<?xml version="1.0" encoding="utf-8"?>
<!-- Generator: Adobe Illustrator 24.0.2, SVG Export Plug-In . SVG Version: 6.00 Build 0)  -->
<svg version="1.1" id="Слой_1" xmlns="http://www.w3.org/2000/svg" xmlns:xlink="http://www.w3.org/1999/xlink" x="0px" y="0px"
	 viewBox="0 0 155.1 79.5" style="enable-background:new 0 0 155.1 79.5;" xml:space="preserve">
<style type="text/css">
	.st0{fill:url(#SVGID_1_);}
	.st1{fill:url(#SVGID_2_);}
	.st2{fill:url(#SVGID_3_);}
	.st3{fill:url(#SVGID_4_);}
	.st4{fill:url(#SVGID_5_);}
	.st5{fill:url(#SVGID_6_);}
	.st6{fill:url(#SVGID_7_);}
	.st7{fill:url(#SVGID_8_);}
	.st8{fill:url(#SVGID_9_);}
	.st9{fill:url(#SVGID_10_);}
	.st10{fill:url(#SVGID_11_);}
	.st11{fill:url(#SVGID_12_);}
	.st12{fill:url(#SVGID_13_);}
	.st13{fill:url(#SVGID_14_);}
	.st14{fill:url(#SVGID_15_);}
	.st15{fill:url(#SVGID_16_);}
	.st16{fill:url(#SVGID_17_);}
	.st17{fill:url(#SVGID_18_);}
	.st18{fill:url(#SVGID_19_);}
	.st19{fill:url(#SVGID_20_);}
	.st20{fill:url(#SVGID_21_);}
	.st21{fill:url(#SVGID_22_);}
	.st22{fill:url(#SVGID_23_);}
	.st23{fill:url(#SVGID_24_);}
	.st24{fill:url(#SVGID_25_);}
	.st25{fill:url(#SVGID_26_);}
	.st26{fill:url(#SVGID_27_);}
	.st27{fill:#FFFFFF;}
	.st28{fill-rule:evenodd;clip-rule:evenodd;fill:url(#SVGID_28_);}
	.st29{fill:url(#SVGID_29_);}
	.st30{fill:url(#SVGID_30_);}
	.st31{fill:url(#SVGID_31_);}
	.st32{fill:url(#SVGID_32_);}
	.st33{fill:url(#SVGID_33_);}
	.st34{fill:url(#SVGID_34_);}
	.st35{fill:url(#SVGID_35_);}
	.st36{fill:url(#SVGID_36_);}
</style>
<linearGradient id="SVGID_1_" gradientUnits="userSpaceOnUse" x1="101.0798" y1="70.795" x2="102.2287" y2="70.795">
	<stop  offset="0" style="stop-color:#12397F"/>
	<stop  offset="0.713" style="stop-color:#3A71CE"/>
</linearGradient>
<rect x="101.1" y="67.7" class="st0" width="1.1" height="6.3"/>
<linearGradient id="SVGID_2_" gradientUnits="userSpaceOnUse" x1="90.0213" y1="70.795" x2="91.1702" y2="70.795">
	<stop  offset="0" style="stop-color:#12397F"/>
	<stop  offset="0.713" style="stop-color:#3A71CE"/>
</linearGradient>
<rect x="90" y="67.7" class="st1" width="1.1" height="6.3"/>
<linearGradient id="SVGID_3_" gradientUnits="userSpaceOnUse" x1="78.6755" y1="70.795" x2="79.8245" y2="70.795">
	<stop  offset="0" style="stop-color:#12397F"/>
	<stop  offset="0.713" style="stop-color:#3A71CE"/>
</linearGradient>
<rect x="78.7" y="67.7" class="st2" width="1.1" height="6.3"/>
<linearGradient id="SVGID_4_" gradientUnits="userSpaceOnUse" x1="67.1383" y1="70.795" x2="68.2872" y2="70.795">
	<stop  offset="0" style="stop-color:#12397F"/>
	<stop  offset="0.713" style="stop-color:#3A71CE"/>
</linearGradient>
<rect x="67.1" y="67.7" class="st3" width="1.1" height="6.3"/>
<linearGradient id="SVGID_5_" gradientUnits="userSpaceOnUse" x1="55.7926" y1="70.795" x2="56.9415" y2="70.795">
	<stop  offset="0" style="stop-color:#12397F"/>
	<stop  offset="0.713" style="stop-color:#3A71CE"/>
</linearGradient>
<rect x="55.8" y="67.7" class="st4" width="1.1" height="6.3"/>
<linearGradient id="SVGID_6_" gradientUnits="userSpaceOnUse" x1="44.3989" y1="70.795" x2="45.5479" y2="70.795">
	<stop  offset="0" style="stop-color:#12397F"/>
	<stop  offset="0.713" style="stop-color:#3A71CE"/>
</linearGradient>
<rect x="44.4" y="67.7" class="st5" width="1.1" height="6.3"/>
<linearGradient id="SVGID_7_" gradientUnits="userSpaceOnUse" x1="16.9552" y1="25.2395" x2="89.1672" y2="25.2395" gradientTransform="matrix(1 0 0 -1 0 79.8898)">
	<stop  offset="0" style="stop-color:#12397F"/>
	<stop  offset="0.713" style="stop-color:#3A71CE"/>
</linearGradient>
<polygon class="st6" points="89.2,55.1 17,55.1 17,54.2 87.1,54.2 "/>
<linearGradient id="SVGID_8_" gradientUnits="userSpaceOnUse" x1="29.2658" y1="21.5613" x2="50.3964" y2="21.5613" gradientTransform="matrix(1 0 0 -1 0 79.8898)">
	<stop  offset="0" style="stop-color:#12397F"/>
	<stop  offset="0.713" style="stop-color:#3A71CE"/>
</linearGradient>
<path class="st7" d="M30.5,54.2h-1.3c1,0.2,3.8,0.7,6.2,3c2.1,2,3.1,4.1,3.6,5.2c3.9,0,7.4,0,11.3,0c-2.1-1.7-5.2-3.6-9-5.3
	C37.2,55.4,33.3,54.6,30.5,54.2z"/>
<linearGradient id="SVGID_9_" gradientUnits="userSpaceOnUse" x1="40.5724" y1="21.5613" x2="61.703" y2="21.5613" gradientTransform="matrix(1 0 0 -1 0 79.8898)">
	<stop  offset="0" style="stop-color:#12397F"/>
	<stop  offset="0.713" style="stop-color:#3A71CE"/>
</linearGradient>
<path class="st8" d="M41.8,54.2h-1.3c1,0.2,3.8,0.7,6.2,3c2.1,2,3.1,4.1,3.6,5.2c3.9,0,7.4,0,11.3,0c-2.1-1.7-5.2-3.6-9-5.3
	C48.5,55.4,44.7,54.6,41.8,54.2z"/>
<linearGradient id="SVGID_10_" gradientUnits="userSpaceOnUse" x1="51.8789" y1="21.5613" x2="73.0096" y2="21.5613" gradientTransform="matrix(1 0 0 -1 0 79.8898)">
	<stop  offset="0" style="stop-color:#12397F"/>
	<stop  offset="0.713" style="stop-color:#3A71CE"/>
</linearGradient>
<path class="st9" d="M53.1,54.2h-1.3c1,0.2,3.8,0.7,6.2,3c2.1,2,3.1,4.1,3.6,5.2c3.9,0,7.4,0,11.3,0c-2.1-1.7-5.2-3.6-9-5.3
	C59.8,55.4,56,54.6,53.1,54.2z"/>
<linearGradient id="SVGID_11_" gradientUnits="userSpaceOnUse" x1="63.1855" y1="21.5613" x2="84.3162" y2="21.5613" gradientTransform="matrix(1 0 0 -1 0 79.8898)">
	<stop  offset="0" style="stop-color:#12397F"/>
	<stop  offset="0.713" style="stop-color:#3A71CE"/>
</linearGradient>
<path class="st10" d="M64.4,54.2h-1.3c1,0.2,3.8,0.7,6.2,3c2.1,2,3.1,4.1,3.6,5.2c3.9,0,7.4,0,11.3,0c-2.1-1.7-5.2-3.6-9-5.3
	C71.1,55.4,67.3,54.6,64.4,54.2z"/>
<linearGradient id="SVGID_12_" gradientUnits="userSpaceOnUse" x1="74.4921" y1="21.5613" x2="95.6228" y2="21.5613" gradientTransform="matrix(1 0 0 -1 0 79.8898)">
	<stop  offset="0" style="stop-color:#12397F"/>
	<stop  offset="0.713" style="stop-color:#3A71CE"/>
</linearGradient>
<path class="st11" d="M75.7,54.2h-1.3c1,0.2,3.8,0.7,6.2,3c2.1,2,3.1,4.1,3.6,5.2c3.9,0,7.4,0,11.3,0c-2.1-1.7-5.2-3.6-9-5.3
	C82.4,55.4,78.6,54.6,75.7,54.2z"/>
<linearGradient id="SVGID_13_" gradientUnits="userSpaceOnUse" x1="39.8311" y1="12.232" x2="106.9294" y2="12.232" gradientTransform="matrix(1 0 0 -1 0 79.8898)">
	<stop  offset="0" style="stop-color:#12397F"/>
	<stop  offset="0.713" style="stop-color:#3A71CE"/>
</linearGradient>
<rect x="39.8" y="67.1" class="st12" width="67.1" height="1.2"/>
<linearGradient id="SVGID_14_" gradientUnits="userSpaceOnUse" x1="39.8311" y1="8.9552" x2="106.9294" y2="8.9552" gradientTransform="matrix(1 0 0 -1 0 79.8898)">
	<stop  offset="0" style="stop-color:#12397F"/>
	<stop  offset="0.713" style="stop-color:#3A71CE"/>
</linearGradient>
<rect x="39.8" y="70.3" class="st13" width="67.1" height="1.2"/>
<linearGradient id="SVGID_15_" gradientUnits="userSpaceOnUse" x1="85.7987" y1="21.5613" x2="106.9294" y2="21.5613" gradientTransform="matrix(1 0 0 -1 0 79.8898)">
	<stop  offset="0" style="stop-color:#12397F"/>
	<stop  offset="0.713" style="stop-color:#3A71CE"/>
</linearGradient>
<path class="st14" d="M87.1,54.2h-1.3c1,0.2,3.8,0.7,6.2,3c2.1,2,3.1,4.1,3.6,5.2c3.9,0,7.4,0,11.3,0c-2.1-1.7-5.2-3.6-9-5.3
	C93.7,55.4,89.9,54.6,87.1,54.2z"/>
<linearGradient id="SVGID_16_" gradientUnits="userSpaceOnUse" x1="39.8311" y1="5.6054" x2="106.9294" y2="5.6054" gradientTransform="matrix(1 0 0 -1 0 79.8898)">
	<stop  offset="0" style="stop-color:#12397F"/>
	<stop  offset="0.713" style="stop-color:#3A71CE"/>
</linearGradient>
<rect x="39.8" y="73.7" class="st15" width="67.1" height="1.2"/>
<linearGradient id="SVGID_17_" gradientUnits="userSpaceOnUse" x1="5.3108" y1="21.5613" x2="37.8982" y2="21.5613" gradientTransform="matrix(1 0 0 -1 0 79.8898)">
	<stop  offset="0" style="stop-color:#12397F"/>
	<stop  offset="0.713" style="stop-color:#3A71CE"/>
</linearGradient>
<path class="st16" d="M37.9,62.4c-5.9-4.8-12.6-8.2-20.6-8.2c-4.5,0-9.4,2.7-12,8.2H37.9z"/>
<linearGradient id="SVGID_18_" gradientUnits="userSpaceOnUse" x1="48.8482" y1="14.5287" x2="51.879" y2="14.5287" gradientTransform="matrix(1 0 0 -1 0 79.8898)">
	<stop  offset="0" style="stop-color:#12397F"/>
	<stop  offset="0.713" style="stop-color:#3A71CE"/>
</linearGradient>
<polygon class="st17" points="48.8,62.4 51.9,52.7 51.9,78 50.4,78 "/>
<linearGradient id="SVGID_19_" gradientUnits="userSpaceOnUse" x1="60.1872" y1="14.5287" x2="63.2179" y2="14.5287" gradientTransform="matrix(1 0 0 -1 0 79.8898)">
	<stop  offset="0" style="stop-color:#12397F"/>
	<stop  offset="0.713" style="stop-color:#3A71CE"/>
</linearGradient>
<polygon class="st18" points="60.2,62.4 63.2,52.7 63.2,78 61.7,78 "/>
<linearGradient id="SVGID_20_" gradientUnits="userSpaceOnUse" x1="36.8004" y1="14.5287" x2="39.8311" y2="14.5287" gradientTransform="matrix(1 0 0 -1 0 79.8898)">
	<stop  offset="0" style="stop-color:#12397F"/>
	<stop  offset="0.713" style="stop-color:#3A71CE"/>
</linearGradient>
<polygon class="st19" points="36.8,62.4 39.8,52.7 39.8,78 38.3,78 "/>
<linearGradient id="SVGID_21_" gradientUnits="userSpaceOnUse" x1="82.965" y1="14.5287" x2="85.9958" y2="14.5287" gradientTransform="matrix(1 0 0 -1 0 79.8898)">
	<stop  offset="0" style="stop-color:#12397F"/>
	<stop  offset="0.713" style="stop-color:#3A71CE"/>
</linearGradient>
<polygon class="st20" points="83,62.4 86,52.7 86,78 84.5,78 "/>
<linearGradient id="SVGID_22_" gradientUnits="userSpaceOnUse" x1="94.3936" y1="14.5287" x2="97.4243" y2="14.5287" gradientTransform="matrix(1 0 0 -1 0 79.8898)">
	<stop  offset="0" style="stop-color:#12397F"/>
	<stop  offset="0.713" style="stop-color:#3A71CE"/>
</linearGradient>
<polygon class="st21" points="94.4,62.4 97.4,52.7 97.4,78 95.9,78 "/>
<linearGradient id="SVGID_23_" gradientUnits="userSpaceOnUse" x1="71.7573" y1="14.5287" x2="74.788" y2="14.5287" gradientTransform="matrix(1 0 0 -1 0 79.8898)">
	<stop  offset="0" style="stop-color:#12397F"/>
	<stop  offset="0.713" style="stop-color:#3A71CE"/>
</linearGradient>
<polygon class="st22" points="71.8,62.4 74.8,52.7 74.8,78 73.3,78 "/>
<linearGradient id="SVGID_24_" gradientUnits="userSpaceOnUse" x1="1000.0516" y1="14.5287" x2="1003.0824" y2="14.5287" gradientTransform="matrix(-1 0 0 -1 1007.2766 79.8898)">
	<stop  offset="0" style="stop-color:#12397F"/>
	<stop  offset="0.713" style="stop-color:#3A71CE"/>
</linearGradient>
<polygon class="st23" points="7.2,62.4 4.2,52.7 4.2,78 5.7,78 "/>
<linearGradient id="SVGID_25_" gradientUnits="userSpaceOnUse" x1="107.388" y1="72.8252" x2="143.395" y2="72.8252">
	<stop  offset="0" style="stop-color:#12397F"/>
	<stop  offset="0.713" style="stop-color:#3A71CE"/>
</linearGradient>
<rect x="107.4" y="67.7" class="st24" width="36" height="10.3"/>
<linearGradient id="SVGID_26_" gradientUnits="userSpaceOnUse" x1="105.4187" y1="14.5287" x2="108.4494" y2="14.5287" gradientTransform="matrix(1 0 0 -1 0 79.8898)">
	<stop  offset="0" style="stop-color:#12397F"/>
	<stop  offset="0.713" style="stop-color:#3A71CE"/>
</linearGradient>
<polygon class="st25" points="105.4,62.4 108.4,52.7 108.4,78 107,78 "/>
<linearGradient id="SVGID_27_" gradientUnits="userSpaceOnUse" x1="112.0028" y1="299.717" x2="193.834" y2="299.717" gradientTransform="matrix(0.9641 0.2656 0.2656 -0.9641 -136.2397 275.5679)">
	<stop  offset="0" style="stop-color:#12397F"/>
	<stop  offset="0.713" style="stop-color:#3A71CE"/>
</linearGradient>
<path class="st26" d="M127.5,37.4l-4.4-7.1l11.5-7.8l-5.5-1.9l-16,5.3l-16.5-5.1l12.1-3.1l-4.2-1.2l-20.8,0.7l-14.7-4
	c-3.5-1-9.2-1.6-12.8-1.2c-11.1,1,4,5.7,6.4,6.3l14.1,3.8l19.8,23.9l4.2,1.2L92,26.5l7.5,2c4.5,1.3,10.3,2.3,15.3,2.3l3,0.3l5.4,5
	L127.5,37.4z"/>
<rect x="110.4" y="70" class="st27" width="9.2" height="1.6"/>
<rect x="121.2" y="70" class="st27" width="9.2" height="1.6"/>
<rect x="132" y="70" class="st27" width="9.2" height="1.6"/>
<rect x="110.4" y="72.7" class="st27" width="9.2" height="1.6"/>
<rect x="121.2" y="72.7" class="st27" width="9.2" height="1.6"/>
<rect x="132" y="72.7" class="st27" width="9.2" height="1.6"/>
<g>
	
		<linearGradient id="SVGID_28_" gradientUnits="userSpaceOnUse" x1="0" y1="840.75" x2="152.4" y2="840.75" gradientTransform="matrix(1 0 0 1 0 -762)">
		<stop  offset="0" style="stop-color:#12397F"/>
		<stop  offset="0.713" style="stop-color:#3A71CE"/>
		<stop  offset="1" style="stop-color:#3A71CE"/>
	</linearGradient>
	<rect y="78" class="st28" width="152.4" height="1.5"/>
</g>
<linearGradient id="SVGID_29_" gradientUnits="userSpaceOnUse" x1="113.2553" y1="64.2235" x2="127.4959" y2="64.2235">
	<stop  offset="0" style="stop-color:#12397F"/>
	<stop  offset="0.713" style="stop-color:#3A71CE"/>
</linearGradient>
<polygon class="st29" points="126,61.4 114.7,61.4 113.3,67.1 127.5,67.1 "/>
<rect x="113.6" y="64" class="st27" width="13.3" height="0.5"/>
<linearGradient id="SVGID_30_" gradientUnits="userSpaceOnUse" x1="14.5336" y1="57.1996" x2="21.3423" y2="57.1996">
	<stop  offset="0" style="stop-color:#12397F"/>
	<stop  offset="0.713" style="stop-color:#3A71CE"/>
</linearGradient>
<rect x="14.5" y="36.4" class="st30" width="6.8" height="41.6"/>
<linearGradient id="SVGID_31_" gradientUnits="userSpaceOnUse" x1="12.8047" y1="273.5691" x2="23.0713" y2="273.5691" gradientTransform="matrix(1 0 0 -0.1661 0 79.2364)">
	<stop  offset="0" style="stop-color:#12397F"/>
	<stop  offset="0.713" style="stop-color:#3A71CE"/>
</linearGradient>
<polygon class="st31" points="23.1,31.2 12.8,31.2 14.5,36.4 21.3,36.4 "/>
<linearGradient id="SVGID_32_" gradientUnits="userSpaceOnUse" x1="10.8392" y1="415.841" x2="25.0367" y2="415.841" gradientTransform="matrix(1 0 0 0.1116 0 -16.9465)">
	<stop  offset="0" style="stop-color:#12397F"/>
	<stop  offset="0.713" style="stop-color:#3A71CE"/>
</linearGradient>
<polyline class="st32" points="25,27.7 24,31.2 11.9,31.2 10.8,27.7 "/>
<linearGradient id="SVGID_33_" gradientUnits="userSpaceOnUse" x1="8.2476" y1="358.9967" x2="27.6283" y2="358.9967" gradientTransform="matrix(1 0 0 0.1116 0 -16.9465)">
	<stop  offset="0" style="stop-color:#12397F"/>
	<stop  offset="0.713" style="stop-color:#3A71CE"/>
</linearGradient>
<polyline class="st33" points="27.6,19.5 25.7,26.7 10.1,26.7 8.2,19.5 "/>
<linearGradient id="SVGID_34_" gradientUnits="userSpaceOnUse" x1="9.9083" y1="-4721.6206" x2="25.9677" y2="-4721.6206" gradientTransform="matrix(1 0 0 -2.423687e-02 0 -96.7586)">
	<stop  offset="0" style="stop-color:#12397F"/>
	<stop  offset="0.713" style="stop-color:#3A71CE"/>
</linearGradient>
<polyline class="st34" points="26,18.5 24.4,16.9 11.5,16.9 9.9,18.5 "/>
<linearGradient id="SVGID_35_" gradientUnits="userSpaceOnUse" x1="12.0917" y1="1413.5419" x2="23.7843" y2="1413.5419" gradientTransform="matrix(1 0 0 7.799864e-02 0 -95.9082)">
	<stop  offset="0" style="stop-color:#12397F"/>
	<stop  offset="0.713" style="stop-color:#3A71CE"/>
</linearGradient>
<polyline class="st35" points="23.8,11.8 22.6,16.9 13.2,16.9 12.1,11.8 "/>
<linearGradient id="SVGID_36_" gradientUnits="userSpaceOnUse" x1="13.7005" y1="-10234.3115" x2="22.1755" y2="-10234.3115" gradientTransform="matrix(1 0 0 -1.586413e-02 0 -151.072)">
	<stop  offset="0" style="stop-color:#12397F"/>
	<stop  offset="0.713" style="stop-color:#3A71CE"/>
</linearGradient>
<polyline class="st36" points="22.2,11.8 21.4,10.8 14.5,10.8 13.7,11.8 "/>
<rect x="12.4" y="13.4" class="st27" width="11.2" height="0.4"/>
<rect x="12.8" y="15.1" class="st27" width="10.4" height="0.4"/>
</svg>
