<?xml version="1.0" encoding="utf-8"?>
<!-- Generator: Adobe Illustrator 24.2.0, SVG Export Plug-In . SVG Version: 6.00 Build 0)  -->
<svg version="1.1" id="Слой_1" xmlns="http://www.w3.org/2000/svg" xmlns:xlink="http://www.w3.org/1999/xlink" x="0px" y="0px"
	 viewBox="0 0 285 185" style="enable-background:new 0 0 285 185;" xml:space="preserve">
<style type="text/css">
	.st0{fill:#58595B;}
	.st1{fill:#434345;}
	.st2{fill:#84888D;}
	.st3{fill:#D9DEE4;}
	.st4{fill:#819FC9;}
</style>
<g>
	<g>
		<path class="st0" d="M161.5,72.7l-38.8-22.4c-4.8-2.8-10.9-1.1-13.6,3.6l-35.3,61.2c-2.8,4.8-1.1,10.9,3.6,13.6l38.8,22.4
			c4.8,2.8,10.9,1.1,13.6-3.6l35.4-61.2C167.9,81.5,166.3,75.4,161.5,72.7 M107.5,141.7l-18.6-10.8c-1.1-0.7-1.5-2.1-0.9-3.2
			c0.7-1.1,2.1-1.5,3.2-0.9l18.6,10.8c1.1,0.7,1.5,2.1,0.9,3.2C110.1,141.9,108.6,142.3,107.5,141.7"/>
		<path class="st1" d="M126.2,122.5c-1,0-2-0.3-2.8-0.8l-24.2-14c-1.3-0.8-2.2-2-2.6-3.4c-0.4-1.5-0.2-3,0.6-4.3l20.3-35.1
			c1.6-2.7,5-3.6,7.7-2.1l24.2,14c1.3,0.8,2.2,2,2.6,3.4c0.4,1.5,0.2,3-0.6,4.3l-20.3,35.1c-0.8,1.3-2,2.2-3.4,2.6
			C127.2,122.4,126.7,122.5,126.2,122.5z M122.3,63.7c-1.4,0-2.7,0.7-3.5,2l-20.3,35.1c-0.5,0.9-0.7,2-0.4,3c0.3,1,0.9,1.9,1.9,2.4
			l24.2,14c0.9,0.5,2,0.7,3,0.4c1-0.3,1.9-0.9,2.4-1.9l20.4-35c0.5-0.9,0.7-2,0.4-3s-0.9-1.9-1.9-2.4l-24.2-14
			C123.7,63.9,123,63.7,122.3,63.7z"/>
		<path class="st2" d="M143.4,79.4l-17.6-10.1c-1.2-0.7-2.6-0.3-3.3,0.9l-7,12.1c-0.7,1.2-0.3,2.6,0.9,3.3L134,95.7
			c1.2,0.7,2.6,0.3,3.3-0.9l7-12.1C145,81.5,144.6,80,143.4,79.4"/>
		<path class="st3" d="M125.5,79.3l-3.2,5.6c-0.4,0.6-0.1,1.4,0.5,1.8l7.4,4.2c0.6,0.4,1.4,0.1,1.8-0.5l3.2-5.6
			c0.4-0.6,0.1-1.4-0.5-1.8l-7.4-4.2C126.6,78.5,125.8,78.7,125.5,79.3 M127.9,87.6c-0.2,0.3-0.6,0.4-0.9,0.2
			c-0.3-0.2-0.4-0.6-0.2-0.9l1.2-2.1c0.2-0.3,0.6-0.4,0.9-0.2c0.3,0.2,0.4,0.6,0.2,0.9L127.9,87.6z"/>
		<path class="st3" d="M134.3,84.1l-1.1-0.6l1.2-2.1c0.9-1.5,0.3-3.4-1.2-4.3s-3.4-0.3-4.3,1.2l-1.2,2.1l-1.1-0.6l1.2-2.1
			c1.2-2.1,3.9-2.8,6-1.6c2.1,1.2,2.8,3.9,1.6,6L134.3,84.1z"/>
		<path class="st2" d="M132.2,98.9l-17.6-10.1c-1.2-0.7-2.6-0.3-3.3,0.9l-7,12.1c-0.7,1.2-0.3,2.6,0.9,3.3l17.6,10.1
			c1.2,0.7,2.6,0.3,3.3-0.9l7-12.1C133.7,101,133.3,99.5,132.2,98.9"/>
		<path class="st3" d="M113.6,98.2l-3.2,5.6c-0.4,0.6-0.1,1.4,0.5,1.8l7.4,4.2c0.6,0.4,1.4,0.1,1.8-0.5l3.2-5.6
			c0.4-0.6,0.1-1.4-0.5-1.8l-7.4-4.2C114.8,97.4,114,97.6,113.6,98.2 M116.1,106.4c-0.2,0.3-0.6,0.4-0.9,0.2
			c-0.3-0.2-0.4-0.6-0.2-0.9l1.2-2.1c0.2-0.3,0.6-0.4,0.9-0.2c0.3,0.2,0.4,0.6,0.2,0.9L116.1,106.4z"/>
		<path class="st3" d="M116,99.2l-1.1-0.6l1.2-2.1c1.2-2.1,3.9-2.8,6-1.6c1.5,0.8,2.3,2.5,2.2,4.2l-1.2-0.1c0.1-1.2-0.5-2.4-1.6-3
			c-1.5-0.9-3.4-0.3-4.3,1.2L116,99.2z"/>
		<path class="st3" d="M122.3,140.5l-38.8-22.4c-4.8-2.8-6.4-8.8-3.6-13.6l-6.1,10.7c-2.8,4.8-1.1,10.9,3.6,13.6l38.8,22.4
			c4.8,2.8,10.9,1.1,13.6-3.6l6.1-10.7C133.2,141.6,127.1,143.3,122.3,140.5 M107.5,141.7l-18.6-10.8c-1.1-0.7-1.5-2.1-0.9-3.2
			c0.7-1.1,2.1-1.5,3.2-0.9l18.6,10.8c1.1,0.7,1.5,2.1,0.9,3.2C110.1,141.9,108.6,142.3,107.5,141.7"/>
	</g>
	<g>
		<path class="st4" d="M199.6,107l-4.9-4.9c7-7,10.9-16.3,10.9-26.2s-3.9-19.2-10.9-26.2l4.9-4.9c8.3,8.3,12.9,19.4,12.9,31.1
			S207.9,98.7,199.6,107z"/>
		<path class="st4" d="M187.1,102.1l-4.9-4.9c11.3-11.3,11.3-29.7,0-41.1l4.9-4.9C201.2,65.3,201.2,88.1,187.1,102.1z"/>
	</g>
</g>
</svg>
