<?xml version="1.0" encoding="utf-8"?>
<!-- Generator: Adobe Illustrator 24.3.0, SVG Export Plug-In . SVG Version: 6.00 Build 0)  -->
<svg version="1.1" id="Слой_1" xmlns="http://www.w3.org/2000/svg" xmlns:xlink="http://www.w3.org/1999/xlink" x="0px" y="0px"
	 viewBox="0 0 285 185" style="enable-background:new 0 0 285 185;" xml:space="preserve">
<style type="text/css">
	.st0{fill:#C2C7C1;}
	.st1{fill:#313133;}
	.st2{fill:#E6332A;}
	.st3{fill:#EDEDED;}
	.st4{fill:#D01317;}
	.st5{fill:#E21113;}
	.st6{fill:#444646;}
	.st7{fill:#525251;stroke:#373636;stroke-width:0.28;stroke-miterlimit:10;}
	.st8{fill:none;stroke:#313133;stroke-width:0.5;stroke-miterlimit:10;}
</style>
<g>
	<g>
		<polygon class="st0" points="35.4,59.1 61.9,59.1 61.9,52.6 35.4,54.9 		"/>
		<rect x="35.3" y="60.9" class="st0" width="26.5" height="74.8"/>
		<rect x="38.5" y="60.9" class="st1" width="16.2" height="74.8"/>
		<rect x="35.3" y="59.1" class="st2" width="26.5" height="1.8"/>
		<path d="M59.3,97.5L59.3,97.5c0.4,0,0.8-0.3,0.8-0.8v-2c0-0.4-0.3-0.8-0.8-0.8l0,0c-0.4,0-0.8,0.3-0.8,0.8v2
			C58.5,97.1,58.9,97.5,59.3,97.5z"/>
		<g>
			<polygon class="st3" points="137.8,69.4 37.2,70 37.1,63.6 137.8,63 			"/>
			<polygon class="st2" points="137.8,71.7 37.2,72.3 37.2,69.8 137.8,69.2 			"/>
			<path class="st4" d="M35.7,72.3h1.7v-8.9h-1.7c0,0-0.7,0.7-0.7,4.3C34.9,71.4,35.7,72.3,35.7,72.3z"/>
			<g id="LWPOLYLINE_26_">
				<g>
					<polygon class="st5" points="91,68.8 74.2,68.9 72.2,65.3 93,65.2 					"/>
				</g>
			</g>
			<g>
				<g>
					<g id="LWPOLYLINE_33_">
						<polygon class="st5" points="128.4,65.1 111.6,65.2 109.7,68.8 130.4,68.7 						"/>
					</g>
				</g>
			</g>
			<g>
				<g id="LWPOLYLINE_23_">
					<g>
						<path class="st6" d="M41.3,65.4h15.1c0.3,0,0.6,0.2,0.7,0.5l1.3,2.9c0.2,0.5-0.1,1.1-0.7,1.1L40.1,70c-0.5,0-0.9-0.6-0.7-1
							l1.3-2.9C40.8,65.6,41,65.4,41.3,65.4z"/>
					</g>
				</g>
				<g>
					<g id="LWPOLYLINE_22_">
						<polygon class="st7" points="45.3,69.3 45.3,66.1 47.2,66.1 47.2,66.9 46.2,66.9 46.2,67.3 47.1,67.3 47.1,68 46.2,68 
							46.2,68.5 47.2,68.5 47.2,69.3 						"/>
					</g>
					<path class="st7" d="M45,67v-0.2l-0.1-0.2l-0.1-0.2l-0.2-0.1l-0.2-0.1l-0.3-0.1h-0.3h-0.1h-1.2v3.2h0.9v-1h0.3h0.1h0.3l0.3-0.1
						l0.2-0.1l0.2-0.2l0.1-0.2l0.1-0.2v-0.2v-0.2C45,67.1,45,67,45,67z M44.1,67.2L44.1,67.2L44.1,67.2L44.1,67.2v0.2l0,0H44h-0.1
						h-0.1h-0.1h-0.3v-0.7h0.3h0.1h0.1H44h0.1l0,0v0.1v0.1V67.2L44.1,67.2L44.1,67.2z"/>
					<g id="LWPOLYLINE_21_">
						<polygon class="st7" points="52.8,69.1 52.7,69.2 52.6,69.2 52.5,69.3 52.4,69.3 52.3,69.3 52.1,69.3 52,69.4 51.9,69.4 
							51.6,69.3 51.3,69.2 51,69.1 50.8,68.9 50.6,68.7 50.4,68.4 50.3,68.1 50.3,67.7 50.4,67.3 50.5,66.9 50.6,66.7 50.8,66.4 
							51.1,66.2 51.3,66.1 51.6,66 51.9,66 52,66 52.1,66 52.2,66 52.4,66 52.5,66.1 52.6,66.1 52.7,66.2 52.8,66.2 52.8,67.2 
							52.7,67.1 52.7,67 52.6,67 52.5,66.9 52.4,66.9 52.3,66.8 52.2,66.8 52,66.8 51.9,66.8 51.7,66.9 51.6,66.9 51.4,67.1 
							51.4,67.2 51.3,67.4 51.2,67.5 51.2,67.7 51.2,67.9 51.3,68.1 51.4,68.2 51.5,68.3 51.6,68.4 51.7,68.5 51.9,68.6 52,68.6 
							52.2,68.6 52.3,68.5 52.4,68.5 52.5,68.5 52.6,68.4 52.6,68.3 52.7,68.3 52.8,68.2 						"/>
					</g>
					<path class="st7" d="M55.7,67.9l-0.1-0.2l-0.1-0.2l-0.1-0.2l-0.2-0.1L55,67.1L54.7,67h-0.3h-0.3l-0.3,0.1l-0.2,0.1l-0.2,0.1
						l-0.1,0.2l-0.1,0.2l-0.1,0.2v0.2v0.2l0.1,0.2l0.1,0.2l0.1,0.2l0.2,0.1l0.2,0.1l0.3,0.1h0.3h0.3l0.3-0.1l0.2-0.1l0.2-0.1
						l0.1-0.2l0.1-0.2l0.1-0.2v-0.2L55.7,67.9z M54.9,68.2L54.9,68.2v0.2v0.1l-0.1,0.1l-0.1,0.1l-0.1,0.1h-0.2h-0.2l-0.1-0.1
						L54,68.6v-0.1v-0.1v-0.1v-0.1v-0.1V68v-0.1v-0.1l0.1-0.1l0.1-0.1l0.1-0.1h0.1h0.1h0.1h0.1l0.1,0.1l0.1,0.1l0.1,0.1v0.1V68
						L54.9,68.2L54.9,68.2z"/>
					<path class="st7" d="M49.5,68.1l0.2-0.1l0.1-0.1l0.1-0.1l0.1-0.1l0.1-0.1v-0.1v-0.1v-0.1v-0.2v-0.2L50,66.7l-0.1-0.2l-0.1-0.1
						l-0.2-0.1l-0.2-0.1h-0.3H49h-1.3v3.2h0.9v-1l0,0l0.3,0.5l0.4,0.5h1.1L49.5,68.1z M49.2,67.2L49.2,67.2L49.2,67.2L49.2,67.2v0.2
						l0,0h-0.1H49h-0.1h-0.1h-0.3v-0.7h0.3h0.1H49h0.1h0.1l0,0v0.1v0.1L49.2,67.2L49.2,67.2L49.2,67.2z"/>
				</g>
				<g>
					<g id="LWPOLYLINE_20_">
						<polygon class="st6" points="45.3,69.1 45.3,66 47.2,65.9 47.2,66.7 46.1,66.7 46.1,67.2 47.1,67.2 47.1,67.9 46.1,67.9 
							46.1,68.4 47.2,68.4 47.2,69.1 						"/>
					</g>
					<path class="st6" d="M45,66.9v-0.2l-0.1-0.2l-0.1-0.2l-0.2-0.1l-0.2-0.1L44.1,66h-0.3h-0.1h-1.2v3.2h0.9v-1h0.3h0.1h0.3
						l0.3-0.1l0.2-0.1l0.2-0.2l0.1-0.2l0.1-0.2v-0.2V67V66.9z M44.1,67.1L44.1,67.1L44.1,67.1L44.1,67.1v0.2l0,0H44h-0.1h-0.1h-0.1
						h-0.3v-0.7h0.3h0.1h0.1H44h0.1l0,0v0.1v0.1V67.1L44.1,67.1L44.1,67.1z"/>
					<g id="LWPOLYLINE_18_">
						<polygon class="st6" points="52.8,69 52.7,69 52.5,69.1 52.4,69.1 52.3,69.2 52.2,69.2 52.1,69.2 52,69.2 51.9,69.2 
							51.6,69.2 51.3,69.1 51,69 50.8,68.8 50.6,68.5 50.4,68.2 50.3,67.9 50.3,67.5 50.3,67.1 50.4,66.8 50.6,66.5 50.8,66.3 
							51,66.1 51.3,65.9 51.6,65.9 51.9,65.8 52,65.8 52.1,65.9 52.2,65.9 52.3,65.9 52.4,65.9 52.5,66 52.7,66 52.8,66.1 52.8,67 
							52.7,67 52.6,66.9 52.6,66.8 52.5,66.8 52.4,66.7 52.3,66.7 52.1,66.6 52,66.6 51.8,66.7 51.7,66.7 51.5,66.8 51.4,66.9 
							51.3,67 51.3,67.2 51.2,67.4 51.2,67.6 51.2,67.8 51.3,67.9 51.3,68.1 51.4,68.2 51.6,68.3 51.7,68.4 51.9,68.4 52,68.4 
							52.1,68.4 52.2,68.4 52.3,68.3 52.4,68.3 52.5,68.3 52.6,68.2 52.7,68.1 52.8,68.1 						"/>
					</g>
					<path class="st6" d="M55.6,67.8l-0.1-0.2l-0.1-0.2l-0.1-0.2l-0.2-0.1L54.9,67l-0.3-0.1h-0.3H54L53.7,67l-0.2,0.1l-0.2,0.1
						l-0.1,0.2l-0.1,0.2L53,67.8V68v0.2l0.1,0.2l0.1,0.2l0.1,0.2l0.2,0.1l0.2,0.1l0.3,0.1h0.3h0.3l0.3-0.1l0.2-0.1l0.2-0.1l0.1-0.2
						l0.1-0.2l0.1-0.2V68L55.6,67.8z M54.8,68.1L54.8,68.1v0.2v0.1h-0.1l-0.1,0.1l-0.1,0.1h-0.2h-0.2L54,68.5l0,0l-0.1-0.1v-0.1
						v-0.1v-0.1V68v-0.1v-0.1v-0.1l0.1-0.1l0.1-0.1l0.1-0.1h0.1h0.1h0.1h0.1l0.1,0.1l0.1,0.1l0.1,0.1v0.1v0.1L54.8,68.1L54.8,68.1z"
						/>
					<path class="st6" d="M49.5,68l0.2-0.1l0.1-0.1l0.1-0.1l0.1-0.1v-0.2v-0.1v-0.1v-0.1v-0.2v-0.2v-0.2l-0.1-0.2l-0.1-0.1l-0.2-0.1
						L49.4,66h-0.3H49h-1.3v3.2h0.9v-1l0,0l0.3,0.5l0.4,0.5h1.1L49.5,68z M49.2,67.1L49.2,67.1L49.2,67.1L49.2,67.1v0.2l0,0h-0.1H49
						h-0.1h-0.1h-0.3v-0.7h0.3h0.1H49h0.1h0.1l0,0v0.1v0.1L49.2,67.1L49.2,67.1L49.2,67.1z"/>
				</g>
			</g>
			<path class="st4" d="M139.7,71.7h-1.9v-8.6h1.9c0,0,0.8,0.7,0.8,4.2C140.6,70.7,139.7,71.7,139.7,71.7z"/>
		</g>
	</g>
	<g>
		<polygon class="st0" points="249.5,59.1 223,59.1 223,52.6 249.5,54.9 		"/>
		<rect x="223" y="60.9" class="st0" width="26.5" height="74.8"/>
		<rect x="230.2" y="60.9" class="st1" width="16.2" height="74.8"/>
		<rect x="223" y="59.1" class="st2" width="26.5" height="1.8"/>
		<path d="M225.6,97.5L225.6,97.5c-0.4,0-0.8-0.3-0.8-0.8v-2c0-0.4,0.3-0.8,0.8-0.8l0,0c0.4,0,0.8,0.3,0.8,0.8v2
			C226.4,97.1,226,97.5,225.6,97.5z"/>
		<g>
			<polygon class="st3" points="147,69.4 247.7,70 247.7,63.6 147.1,63 			"/>
			<polygon class="st2" points="147,71.7 247.7,72.3 247.7,69.8 147,69.2 			"/>
			<path class="st4" d="M249.2,72.3h-1.7v-8.9h1.7c0,0,0.7,0.7,0.7,4.3C250,71.4,249.2,72.3,249.2,72.3z"/>
			<g id="LWPOLYLINE_15_">
				<g>
					<polygon class="st5" points="193.8,68.8 210.6,68.9 212.6,65.3 191.9,65.2 					"/>
				</g>
			</g>
			<g>
				<g>
					<g id="LWPOLYLINE_34_">
						<polygon class="st5" points="156.4,65.1 173.2,65.2 175.2,68.8 154.4,68.7 						"/>
					</g>
				</g>
			</g>
			<g>
				<g id="LWPOLYLINE_10_">
					<g>
						<path class="st6" d="M228.4,65.4h15.1c0.3,0,0.6,0.2,0.7,0.5l1.3,2.9c0.2,0.5-0.1,1.1-0.7,1.1L227.2,70c-0.5,0-0.9-0.6-0.7-1
							l1.3-2.9C227.8,65.6,228.1,65.4,228.4,65.4z"/>
					</g>
				</g>
				<g>
					<g id="LWPOLYLINE_9_">
						<polygon class="st7" points="232.4,69.3 232.3,66.1 234.2,66.1 234.2,66.9 233.2,66.9 233.2,67.3 234.1,67.3 234.1,68 
							233.2,68 233.2,68.5 234.2,68.5 234.2,69.3 						"/>
					</g>
					<path class="st7" d="M232.1,67v-0.2l-0.1-0.2l-0.1-0.2l-0.2-0.1l-0.2-0.1l-0.3-0.1h-0.3h-0.1h-1.2v3.2h0.9v-1h0.3h0.1h0.3
						l0.3-0.1l0.2-0.1l0.2-0.2l0.1-0.2l0.1-0.2v-0.2v-0.2V67z M231.2,67.2L231.2,67.2L231.2,67.2L231.2,67.2v0.2l0,0h-0.1H231h-0.1
						h-0.1h-0.3v-0.7h0.3h0.1h0.1h0.1h0.1l0,0v0.1v0.1L231.2,67.2L231.2,67.2L231.2,67.2z"/>
					<g id="LWPOLYLINE_8_">
						<polygon class="st7" points="239.8,69.1 239.7,69.2 239.6,69.2 239.5,69.3 239.4,69.3 239.3,69.3 239.2,69.3 239.1,69.4 
							239,69.4 238.7,69.3 238.4,69.2 238.1,69.1 237.9,68.9 237.7,68.7 237.5,68.4 237.4,68.1 237.4,67.7 237.4,67.3 237.5,66.9 
							237.7,66.7 237.9,66.4 238.1,66.2 238.4,66.1 238.7,66 239,66 239.1,66 239.2,66 239.3,66 239.4,66 239.5,66.1 239.6,66.1 
							239.7,66.2 239.8,66.2 239.8,67.2 239.8,67.1 239.7,67 239.7,67 239.6,66.9 239.5,66.9 239.4,66.8 239.2,66.8 239.1,66.8 
							238.9,66.8 238.8,66.9 238.6,66.9 238.5,67.1 238.4,67.2 238.3,67.4 238.3,67.5 238.3,67.7 238.3,67.9 238.4,68.1 238.4,68.2 
							238.5,68.3 238.7,68.4 238.8,68.5 238.9,68.6 239.1,68.6 239.2,68.6 239.3,68.5 239.4,68.5 239.5,68.5 239.6,68.4 239.7,68.3 
							239.8,68.3 239.8,68.2 						"/>
					</g>
					<path class="st7" d="M242.7,67.9l-0.1-0.2l-0.1-0.2l-0.1-0.2l-0.2-0.1l-0.2-0.1l-0.3-0.1h-0.3h-0.3l-0.3,0.1l-0.2,0.1l-0.2,0.1
						l-0.1,0.2l-0.1,0.2l-0.1,0.2v0.2v0.2l0.1,0.2l0.1,0.2l0.1,0.2l0.2,0.1l0.2,0.1l0.3,0.1h0.3h0.3l0.3-0.1l0.2-0.1l0.2-0.1
						l0.1-0.2l0.1-0.2l0.1-0.2v-0.2V67.9z M241.9,68.2L241.9,68.2v0.2v0.1l-0.1,0.1l-0.1,0.1l-0.1,0.1h-0.2h-0.2l-0.1-0.1l-0.1-0.1
						l-0.1-0.1v-0.1v-0.1v-0.1v-0.1V68v-0.1v-0.1l0.1-0.1l0.1-0.1l0.1-0.1h0.1h0.1h0.1h0.1l0.1,0.1l0.1,0.1l0.1,0.1v0.1V68
						L241.9,68.2L241.9,68.2z"/>
					<path class="st7" d="M236.5,68.1l0.2-0.1l0.1-0.1l0.1-0.1l0.1-0.1l0.1-0.1v-0.1v-0.1v-0.1v-0.2v-0.2l-0.1-0.2l-0.1-0.2
						l-0.1-0.1l-0.2-0.1l-0.2-0.1h-0.3H236h-1.3v3.2h0.9v-1l0,0l0.3,0.5l0.4,0.5h1.1L236.5,68.1z M236.3,67.2L236.3,67.2L236.3,67.2
						L236.3,67.2v0.2l0,0h-0.1h-0.1H236h-0.1h-0.3v-0.7h0.3h0.1h0.1h0.1h0.1l0,0v0.1v0.1L236.3,67.2L236.3,67.2L236.3,67.2z"/>
				</g>
				<g>
					<g id="LWPOLYLINE_3_">
						<polygon class="st6" points="232.3,69.1 232.3,66 234.2,65.9 234.2,66.7 233.2,66.7 233.2,67.2 234.1,67.2 234.1,67.9 
							233.2,67.9 233.2,68.4 234.2,68.4 234.2,69.1 						"/>
					</g>
					<path class="st6" d="M232.1,66.9v-0.2l-0.1-0.2l-0.1-0.2l-0.2-0.1l-0.2-0.1l-0.3-0.1h-0.3h-0.1h-1.2v3.2h0.9v-1h0.3h0.1h0.3
						l0.3-0.1l0.2-0.1l0.2-0.2l0.1-0.2v-0.2v-0.2V67L232.1,66.9z M231.1,67.1L231.1,67.1L231.1,67.1L231.1,67.1v0.2l0,0H231h-0.1
						h-0.1h-0.1h-0.3v-0.7h0.3h0.1h0.1h0.1h0.1l0,0v0.1v0.1V67.1L231.1,67.1L231.1,67.1z"/>
					<g id="LWPOLYLINE_2_">
						<polygon class="st6" points="239.8,69 239.7,69 239.6,69.1 239.5,69.1 239.4,69.2 239.3,69.2 239.2,69.2 239.1,69.2 239,69.2 
							238.7,69.2 238.3,69.1 238.1,69 237.8,68.8 237.6,68.5 237.5,68.2 237.4,67.9 237.4,67.5 237.4,67.1 237.5,66.8 237.6,66.5 
							237.9,66.3 238.1,66.1 238.4,65.9 238.7,65.9 239,65.8 239.1,65.8 239.2,65.9 239.3,65.9 239.4,65.9 239.5,65.9 239.6,66 
							239.7,66 239.8,66.1 239.8,67 239.8,67 239.7,66.9 239.6,66.8 239.5,66.8 239.4,66.7 239.3,66.7 239.2,66.6 239.1,66.6 
							238.9,66.7 238.7,66.7 238.6,66.8 238.5,66.9 238.4,67 238.3,67.2 238.3,67.4 238.3,67.6 238.3,67.8 238.3,67.9 238.4,68.1 
							238.5,68.2 238.6,68.3 238.8,68.4 238.9,68.4 239.1,68.4 239.2,68.4 239.3,68.4 239.4,68.3 239.5,68.3 239.6,68.3 239.7,68.2 
							239.8,68.1 239.8,68.1 						"/>
					</g>
					<path class="st6" d="M242.7,67.8l-0.1-0.2l-0.1-0.2l-0.1-0.2l-0.2-0.1L242,67l-0.3-0.1h-0.3h-0.3l-0.3,0.1l-0.2,0.1l-0.2,0.1
						l-0.1,0.2l-0.1,0.2l-0.1,0.2V68v0.2l0.1,0.2l0.1,0.2l0.1,0.2l0.2,0.1l0.2,0.1l0.3,0.1h0.3h0.3L242,69l0.2-0.1l0.2-0.1l0.1-0.2
						l0.1-0.2l0.1-0.2V68V67.8z M241.9,68.1L241.9,68.1v0.2v0.1l-0.1,0.1l-0.1,0.1l-0.1,0.1h-0.2h-0.2l-0.1-0.1l-0.1-0.1l-0.1-0.1
						v-0.1v-0.1v-0.1V68v-0.1v-0.1v-0.1l0.1-0.1l0.1-0.1l0.1-0.1h0.1h0.1h0.1h0.1l0.1,0.1l0.1,0.1l0.1,0.1v0.1v0.1L241.9,68.1
						L241.9,68.1z"/>
					<path class="st6" d="M236.5,68l0.2-0.1l0.1-0.1l0.1-0.1l0.1-0.1l0.1-0.1v-0.1v-0.1v-0.1V67v-0.2l-0.1-0.2l-0.1-0.2l-0.1-0.1
						l-0.2-0.1l-0.2-0.1h-0.3H236h-1.3v3.2h0.9v-1l0,0l0.3,0.5l0.4,0.5h1.1L236.5,68z M236.3,67.1L236.3,67.1L236.3,67.1L236.3,67.1
						v0.2l0,0h-0.1h-0.1H236h-0.1h-0.3v-0.7h0.3h0.1h0.1h0.1h0.1l0,0v0.1v0.1L236.3,67.1L236.3,67.1L236.3,67.1z"/>
				</g>
			</g>
			<path class="st4" d="M145.1,71.7h1.9v-8.6h-1.9c0,0-0.8,0.7-0.8,4.2C144.3,70.7,145.1,71.7,145.1,71.7z"/>
		</g>
	</g>
	<circle class="st1" cx="62.1" cy="103.5" r="2.1"/>
	<circle class="st1" cx="222.6" cy="103.5" r="2.1"/>
	<g>
		<path d="M50.8,147.4c0.5,0,1.3,0,1.8,0.5c0.4,0.2,0.7,0.7,0.7,1.6s-0.4,1.4-0.9,1.8c0.2,0,0.7,0.2,1.1,0.5
			c0.5,0.5,0.7,1.1,0.7,1.8c0,0.9-0.4,1.6-0.9,2s-1.4,0.5-2.2,0.5h-3.8v-9h3.4v0.3L50.8,147.4L50.8,147.4z M50.6,151
			c0.2,0,0.7,0,1.1-0.2c0.2-0.2,0.4-0.4,0.4-0.9c0-0.4-0.2-0.7-0.4-0.9c-0.4-0.2-0.7-0.2-1.3-0.2H49v2.3h1.6V151z M50.8,154.9
			c0.4,0,1.1,0,1.4-0.4c0.4-0.2,0.5-0.5,0.5-1.1c0-0.5-0.2-0.7-0.5-1.1c-0.4-0.4-0.9-0.4-1.4-0.4h-2v2.7h2V154.9z"/>
		<path d="M64.7,154c-0.2,0.5-0.7,1.1-1.1,1.4c-0.9,0.7-1.8,1.1-3.1,1.1c-2.2,0-4.5-1.4-4.5-4.7c0-2.7,1.6-4.7,4.3-4.7
			c1.8,0,2.9,0.9,3.4,1.6c0.5,0.7,0.9,2.2,0.9,3.4h-7c0,1.8,1.3,3.1,2.9,3.1c0.7,0,1.3-0.2,1.8-0.7c0.4-0.4,0.7-0.7,0.9-1.3
			L64.7,154z M63,150.8c-0.2-1.4-1.3-2.3-2.7-2.3c-1.3,0-2.3,1.1-2.7,2.3H63z"/>
		<path d="M74,147.4v7.6h1.3v3.8h-1.4v-2.4H67v2.3h-1.4v-3.8c0.7,0,1.4-0.5,1.6-1.1c0.4-0.5,0.4-1.4,0.4-2.3v-4L74,147.4L74,147.4z
			 M72.4,148.8h-3.2v3.4c0,1.1-0.2,2-1.1,2.7h4.3C72.4,154.9,72.4,148.8,72.4,148.8z"/>
		<path d="M79.8,155.5l-4.1-8.1h1.8l3.2,6.5l2.9-6.5h1.8l-6.7,13.9h-1.8L79.8,155.5z"/>
		<path d="M87,147.4h1.6v7.6H92v-7.6h1.6v7.6H97v-7.6h1.6v7.6h1.4v3.8h-1.4v-2.4H87V147.4z"/>
		<path d="M103.2,147.4v5.9l6.1-6.7v9.7h-1.6v-5.9l-6.1,6.7v-9.5h1.6V147.4z"/>
		<path d="M113.8,147.4v5.9l6.1-6.7v9.7h-1.6v-5.9l-6.1,6.7v-9.5h1.6V147.4z M114.3,142.9c0.2,0.7,0.9,1.3,1.8,1.3s1.6-0.5,1.8-1.3
			l1.3,0.5c-0.5,1.3-1.6,2.2-3.1,2.2c-1.4,0-2.7-0.9-3.1-2.2L114.3,142.9z"/>
	</g>
	<g>
		<path d="M161.7,147.4c0.5,0,1.3,0,1.8,0.5c0.4,0.2,0.7,0.7,0.7,1.6s-0.4,1.4-0.9,1.8c0.2,0,0.7,0.2,1.1,0.5
			c0.5,0.5,0.7,1.1,0.7,1.8c0,0.9-0.4,1.6-0.9,2s-1.4,0.5-2.2,0.5h-3.8v-9h3.4L161.7,147.4L161.7,147.4z M161.5,151
			c0.2,0,0.7,0,1.1-0.2c0.2-0.2,0.4-0.4,0.4-0.9c0-0.4-0.2-0.7-0.4-0.9c-0.4-0.2-0.7-0.2-1.3-0.2h-1.4v2.3h1.6L161.5,151L161.5,151z
			 M161.7,154.9c0.4,0,1.1,0,1.4-0.4c0.4-0.2,0.5-0.5,0.5-1.1c0-0.5-0.2-0.7-0.5-1.1c-0.4-0.4-0.9-0.4-1.4-0.4h-2v2.7h2V154.9z"/>
		<path d="M175.6,154c-0.2,0.5-0.7,1.1-1.1,1.4c-0.9,0.7-1.8,1.1-3.1,1.1c-2.2,0-4.5-1.4-4.5-4.7c0-2.7,1.6-4.7,4.3-4.7
			c1.8,0,2.9,0.9,3.4,1.6c0.5,0.7,0.9,2.2,0.9,3.4h-7c0,1.8,1.3,3.1,2.9,3.1c0.7,0,1.3-0.2,1.8-0.7c0.4-0.4,0.7-0.7,0.9-1.3
			L175.6,154z M174,150.8c-0.2-1.4-1.3-2.3-2.7-2.3c-1.3,0-2.3,1.1-2.7,2.3H174z"/>
		<path d="M184.9,147.4v7.6h1.3v3.8h-1.4v-2.4H178v2.3h-1.4v-3.8c0.7,0,1.4-0.5,1.6-1.1c0.2-0.5,0.4-1.4,0.4-2.3v-4h6.5v-0.1
			L184.9,147.4L184.9,147.4z M183.3,148.8h-3.2v3.4c0,1.1-0.2,2-1.1,2.7h4.3V148.8L183.3,148.8z"/>
		<path d="M187.3,151.9c0-2.7,2-4.7,4.7-4.7s4.7,2,4.7,4.7s-2,4.7-4.7,4.7C189.4,156.6,187.3,154.6,187.3,151.9z M188.9,151.9
			c0,2.2,1.6,3.2,3.2,3.2c1.6,0,3.2-1.1,3.2-3.2c0-2.2-1.4-3.4-3.2-3.4C190.5,148.5,188.9,149.7,188.9,151.9z"/>
		<path d="M200.4,146.7l3.8,7.4l3.6-7.4l2.2,9.7h-1.6l-1.3-5.6l-3.1,6.1l-3.1-6.1l-1.1,5.6h-1.6L200.4,146.7z"/>
		<path d="M211.8,147.4h1.6v3.4h1.6c0.7,0,2,0,2.7,0.9c0.4,0.4,0.7,0.9,0.7,1.8c0,0.9-0.4,1.6-0.7,2c-0.7,0.7-1.8,0.7-2.7,0.7h-3.1
			v-8.8L211.8,147.4L211.8,147.4z M214.8,154.9c0.5,0,1.1,0,1.4-0.2c0.2-0.2,0.5-0.5,0.5-1.1c0-0.4-0.2-0.9-0.5-1.1
			c-0.4-0.2-0.9-0.2-1.4-0.2h-1.4v2.7L214.8,154.9L214.8,154.9z M219.3,147.4h1.6v9h-1.6V147.4z"/>
		<path d="M225.4,147.4v5.9l6.1-6.7v9.7h-1.6v-5.9l-6.1,6.7v-9.5h1.6V147.4z M226,142.9c0.2,0.7,0.9,1.3,1.8,1.3
			c0.9,0,1.6-0.5,1.8-1.3l1.3,0.5c-0.5,1.3-1.6,2.2-3.1,2.2s-2.7-0.9-3.1-2.2L226,142.9z"/>
	</g>
	<line class="st8" x1="200.9" y1="142.9" x2="221.9" y2="104.1"/>
	<line class="st8" x1="83.4" y1="142.9" x2="62.3" y2="104.9"/>
</g>
</svg>
