<?xml version="1.0" encoding="utf-8"?>
<!-- Generator: Adobe Illustrator 24.2.3, SVG Export Plug-In . SVG Version: 6.00 Build 0)  -->
<svg version="1.1" id="Слой_1" xmlns="http://www.w3.org/2000/svg" xmlns:xlink="http://www.w3.org/1999/xlink" x="0px" y="0px"
	 viewBox="0 0 285 185" style="enable-background:new 0 0 285 185;" xml:space="preserve">
<style type="text/css">
	.st0{fill:#9E9E9E;}
	.st1{fill:#CDCCCD;}
	.st2{fill:#819FC9;}
	.st3{fill:#E5E2DC;}
	.st4{fill:#B6BCC0;}
</style>
<path class="st0" d="M155.5,94.4h-39.8c-4.4,0-7.8-3.5-7.8-7.8V46.8c0-4.4,3.5-7.8,7.8-7.8h39.8c4.4,0,7.8,3.5,7.8,7.8v39.8
	C163.4,91,159.9,94.4,155.5,94.4z"/>
<path class="st1" d="M155.5,92.6h-39.8c-4.4,0-7.8-3.5-7.8-7.8V44.9c0-4.4,3.5-7.8,7.8-7.8h39.8c4.4,0,7.8,3.5,7.8,7.8v39.8
	C163.4,89,159.9,92.6,155.5,92.6z"/>
<circle class="st2" cx="135.5" cy="64.1" r="15.3"/>
<g>
	<path class="st3" d="M111.2,96.3c0-1.2-0.2-3.4-0.1-3.6c0.8-2.5,2.3-4.3,4.6-5.5c1.6-0.4,3.3-0.6,5.1-0.3c1.4,0.5,2.7,1.2,3.7,2.3
		c1.1,1.2,2.2,2.3,3.2,3.3c0.2,0.2,0.3,0.5,0.9,0.4c-0.1-1.2,0.1-17.1,0-18.8c0.1-1.7,0.1-3.3,0-5.1c0-1.7,0-3.3,0-5.1
		c0.2-1.9,1-3.7,2.3-5.1c1.4-1.3,3.1-1.9,5.1-2.3c1.7,0.1,3.3,0.5,4.7,1.5c0.3,0.3,0.6,0.6,1.1,1c1.1,1.4,1.7,3,1.8,4.8
		c0,1.7,0,3.3,0,5.1c-0.2,2.7-0.2,2.7,2.3,2h0.1c1.8-0.1,3.4,0.2,5.1,1.1c0.6,0.6,1.4,1.3,2,2c1,1.8,1,1.8,2.9,1.1
		c0,0,0.1,0,0.1-0.1c1.6-0.3,3.1-0.2,4.7,0.3c1.5,0.8,2.9,1.8,3.6,3.3c0.4,1.1,1,1.3,1.8,0.5c1.6-0.5,3.3-0.5,5-0.2
		c0.2,0.2,0.4,0.3,0.8,0.3c3,1.7,3.6,4.5,3.5,8c-0.1,2.5,0.5,4.7,0.5,7.1c0,6.6-0.1,13.1-1.7,19.7c-0.6,1.7-1.5,2.9-2.5,4.5
		c-0.4,0.6-0.9,1.2-1.3,1.9c-1.3,1.3-2,2.3-3.6,3.3c-0.2,0.1-1.1,0.4-1.3,0.5c-1.7,0.5-2.8,0.9-4.5,1.3c-1.7,0.2-3.2,0.2-4.9,0.4
		c-1.7,0-3.4,0.2-5.1,0.3c-1.7-0.1-3.1-0.6-4.8-0.7c-1.7-0.4-3.2-0.6-4.9-1c-0.6-0.3-1.4-0.8-2.1-1.1c-1.1-0.6-2.1-0.8-3.1-1.5
		c-1.3-1.1-2.5-2.1-3.7-3.3c-1.6-1.6-2.9-3.6-4.6-5.2c-0.4-0.5-1.2-1.2-1.8-1.6c-0.3-0.3-0.8-0.6-1.1-0.9
		C120.4,105.9,115,102.2,111.2,96.3z"/>
	<g>
		<path class="st4" d="M111.2,97.1c-0.5-1.3-0.2-4.5-0.1-4.7c0.8-2.5,2.3-4.3,4.6-5.5c1.6-0.4,3.3-0.6,5.1-0.3
			c1.4,0.5,2.7,1.2,3.7,2.3c1.1,1.2,2.2,2.3,3.2,3.3c0.2,0.2,0.3,0.5,0.9,0.4c-0.1-1.2,0.1-17.1,0-18.8c0.1-1.7,0.1-3.3,0-5.1
			c0-1.7,0-3.3,0-5.1c0.2-1.9,1-3.7,2.3-5.1c1.4-1.3,3.1-1.9,5.1-2.3c1.7,0.1,3.3,0.5,4.7,1.5c0.3,0.3,0.6,0.6,1.1,1
			c1.1,1.4,1.7,3,1.8,4.8c0,1.7,0,3.3,0,5.1c-0.2,2.7-0.2,2.7,2.3,2h0.1c1.8-0.1,3.4,0.2,5.1,1.1c0.6,0.6,1.4,1.3,2,2
			c1,1.8,1,1.8,2.9,1.1c0,0,0.1,0,0.1-0.1c1.6-0.3,3.1-0.2,4.7,0.3c1.5,0.8,2.9,1.8,3.6,3.3c0.4,1.1,1,1.3,1.8,0.5
			c1.6-0.5,3.3-0.5,5-0.2c0.2,0.2,0.4,0.3,0.8,0.3c3,1.7,4.4,4.3,4.3,7.8c-0.1,2.5,0,5,0,7.4c0,6.6,0.3,13.2-1.3,19.8
			c-0.6,1.7-1.3,3.4-2.3,5.1c-0.4,0.6-1,1.2-1.4,1.8c-1.3,1.3-2.8,2.3-4.4,3.2c-0.2,0.1-0.4,0.2-0.6,0.3c-1.7,0.5-3.3,1.1-5.1,1.5
			c-1.7,0.2-3.3,0.4-5.1,0.6c-1.7,0-3.3,0-5.1,0.1c-1.7-0.1-3.3-0.3-5.1-0.4c-1.7-0.4-3.3-0.9-5.1-1.3c-0.6-0.3-1.3-0.5-1.9-0.9
			c-1.1-0.6-2-1.3-3.1-1.9c-1.3-1.1-2.5-2-3.7-3.2c-1.6-1.6-3.2-3.2-5-4.8c-0.4-0.5-1-1.1-1.5-1.5c-0.3-0.3-0.6-0.6-1-1
			C120.2,106.5,115.1,103,111.2,97.1z M165.3,88.9c-0.1,1.7-0.1,3.3,0,5.1c-0.1,1.1-0.2,2.3-1.6,2.7c-1.1,0.3-1.8-0.3-2.4-1.2
			c0-0.5-0.1-1-0.1-1.5c0.1-1.7,0.1-3.3,0-5.1c0-1.7,0-3.3,0-5.1c0.2-1.6-0.1-3-1.6-3.9c-1.3-0.8-2.7-1-3.9,0.1
			c-1.2,0.8-1.4,2-1.4,3.3c0,2.8,0,5.5,0,8.3c0,0.6,0,1.3-0.4,1.9c-0.9,0.8-1.9,0.9-2.9,0.3c-0.5-0.6-0.6-1.3-0.6-2.2
			c0-1,0-1.9-0.1-2.9c0.1-1.7,0.1-3.3,0-5.1c0.1-1.7,0.1-3.3,0-5.1c-0.1-2-1.2-3.2-3.2-3.3c-1.8-0.1-3.3,1.2-3.6,3.1
			c-0.1,1.7,0,3.6,0,5.3c0,1.7,0,3.3,0,5.1c-0.2,1.7-0.6,2-2.4,2.3c-1.1-0.3-1.6-1.2-1.7-2.3c0.1-1.7,0.1-3.3,0-5.1
			c0.1-1.7,0.1-3.3,0-5.1c0.1-1.6,0.1-3.3,0-5c0.1-1.7,0.1-3.3,0-5.1c0.1-1.7,0.2-3.3-0.1-5.1c-0.6-1.8-1.6-2.5-3.4-2.4
			c-2,0.3-3.1,1.5-3.2,3.4c0,3,0,6,0,9c0,1.7,0,3.3,0,5.1c0,1.7,0,3.3,0,5.1c0,1.7,0,3.3,0,5.1c0,1.7,0,3.3,0,5.1c0,1.7,0,3.3,0,5.1
			c0,1.1,0,2.2,0,3.4c-0.6-0.5-1.1-1-1.5-1.3c-0.8-1-1.6-1.7-2.6-2.6c-0.8-0.9-1.6-1.7-2.5-2.5c-0.8-1-1.6-1.7-2.6-2.6
			c-0.8-0.9-1.4-1.7-2.5-2.3c-1.6-0.9-3.4-0.6-4.7,0.5c-1.3,1.2-1.6,2.7-0.9,4.3c0.4,1.2,16.8,17.2,17.7,17.9c0.9,1,1.7,1.9,2.8,2.7
			c0.8,1,1.7,1.7,2.7,2.3c0.6,0.5,1.4,1.1,2.3,1.3c1.6,0.9,3.2,1.3,5.1,1.6c1.6,0.4,3.3,0.5,5.1,0.5c1.7,0.1,3.3,0.2,5.1-0.1
			c1.7,0,3.4-0.2,5.1-0.6c0.9-0.2,1.7-0.4,2.6-0.8c3.3-1.3,5.9-3.4,7.1-7c1.4-3.2,1.3-6.7,1.4-10.1c0-1.7,0-3.3,0-5.1
			c0-1.7,0-3.3,0-5.1c0-1.7,0-3.3,0-5.1c0-1.5,0.4-3.1-0.6-4.5c-1.4-1.8-3.9-1.8-5.4,0C164.8,85.6,165.2,87.4,165.3,88.9z"/>
	</g>
</g>
<g>
	<path d="M69.4,152.1c0-2.6,2-4.6,4.6-4.6s4.6,2,4.6,4.6s-2,4.6-4.6,4.6S69.4,154.8,69.4,152.1z M71,152.1c0,2.1,1.5,3.2,3.1,3.2
		s3.1-1.1,3.1-3.2c0-2.1-1.5-3.3-3.1-3.3S71,150,71,152.1z"/>
	<path d="M83.7,149.1v7.3h-1.5v-7.3h-2.7v-1.4h7v1.4H83.7z"/>
	<path d="M89.6,147.8v3.6l3.5-3.6H95l-3.8,3.9l4.2,4.8h-2l-3.4-3.8l-0.5,0.4v3.4H88v-8.7L89.6,147.8L89.6,147.8z"/>
	<path d="M98.4,161.3h-1.5v-13.5h1.5v1.2c1-1.3,2.4-1.4,3-1.4c2.7,0,4.2,2.3,4.2,4.6c0,2.4-1.5,4.6-4.2,4.6c-1.4,0-2.4-0.6-3-1.5
		V161.3z M104.1,152.2c0-2.1-1.4-3.3-2.9-3.3s-2.9,1.2-2.9,3.3c0,1.8,1.1,3.2,2.9,3.2S104.1,153.9,104.1,152.2z"/>
	<path d="M108,147.8h1.5v3.3h1.6c0.8,0,1.9,0.1,2.6,0.9c0.3,0.3,0.7,0.9,0.7,1.8c0,0.9-0.4,1.6-0.8,2c-0.8,0.7-1.7,0.7-2.6,0.7h-3
		C108,156.5,108,147.8,108,147.8z M110.9,155.1c0.5,0,1,0,1.3-0.2c0.2-0.1,0.6-0.4,0.6-1.1c0-0.4-0.1-0.8-0.5-1.1s-0.9-0.3-1.3-0.3
		h-1.4v2.7L110.9,155.1L110.9,155.1z M115.4,147.8h1.5v8.7h-1.5V147.8z"/>
	<path d="M122.8,149.1v7.3h-1.5v-7.3h-2.7v-1.4h7v1.4H122.8z"/>
	<path d="M126.3,152.1c0-2.6,2-4.6,4.6-4.6s4.6,2,4.6,4.6s-2,4.6-4.6,4.6S126.3,154.8,126.3,152.1z M127.9,152.1
		c0,2.1,1.5,3.2,3.1,3.2s3.1-1.1,3.1-3.2c0-2.1-1.5-3.3-3.1-3.3S127.9,150,127.9,152.1z"/>
	<path d="M147.2,140.5l1.2,0.6l-10.8,19.5l-1.2-0.6L147.2,140.5z"/>
	<path d="M150.4,149.1c0.3-0.4,0.7-0.8,1.1-1.1c0.7-0.4,1.3-0.5,1.9-0.5c0.7,0,1.4,0.1,2.1,0.6c0.6,0.5,0.8,1,0.8,1.7
		c0,1-0.5,1.6-1,1.8c0.4,0.1,0.8,0.3,1,0.6c0.4,0.4,0.6,0.9,0.6,1.6c0,0.9-0.4,1.7-1.1,2.2c-0.6,0.5-1.5,0.7-2.5,0.7
		c-0.8,0-1.6-0.2-2.3-0.7c-0.5-0.4-0.9-0.9-1.2-1.5l1.3-0.5c0.1,0.2,0.3,0.6,0.8,1s1,0.4,1.4,0.4c0.3,0,1,0,1.5-0.3
		c0.3-0.2,0.6-0.6,0.6-1.2c0-0.5-0.2-0.8-0.5-1c-0.4-0.3-1-0.3-1.4-0.3h-0.9v-1.5h0.7c0.7,0,1-0.1,1.1-0.2c0.2-0.1,0.5-0.4,0.5-0.8
		c0-0.4-0.1-0.7-0.4-0.9c-0.4-0.3-0.8-0.3-1.1-0.3s-0.8,0.1-1.2,0.3c-0.2,0.1-0.5,0.4-0.7,0.8L150.4,149.1z"/>
	<path d="M165.9,147.8h1.5v8.7h-1.5v-1.2c-0.5,0.7-1.4,1.5-3,1.5c-2.2,0-4.2-1.6-4.2-4.6s2-4.6,4.2-4.6c1.7,0,2.6,0.9,3,1.4V147.8z
		 M160.2,152.1c0,1.9,1,3.3,2.9,3.3c1.8,0,2.9-1.5,2.9-3.3c0-2.2-1.6-3.2-2.9-3.2C161.5,148.9,160.2,150,160.2,152.1z"/>
	<path d="M171.7,147.8v3.6l3.5-3.6h1.8l-3.8,3.9l4.2,4.8h-2l-3.4-3.8l-0.5,0.4v3.4H170v-8.7L171.7,147.8L171.7,147.8z"/>
	<path d="M180.6,161.3h-1.5v-13.5h1.5v1.2c1-1.3,2.4-1.4,3-1.4c2.7,0,4.2,2.3,4.2,4.6c0,2.4-1.5,4.6-4.2,4.6c-1.4,0-2.4-0.6-3-1.5
		V161.3z M186.3,152.2c0-2.1-1.4-3.3-2.9-3.3s-2.9,1.2-2.9,3.3c0,1.8,1.1,3.2,2.9,3.2S186.3,153.9,186.3,152.2z"/>
	<path d="M190.1,147.8h1.5v3.3h1.6c0.8,0,1.9,0.1,2.6,0.9c0.3,0.3,0.7,0.9,0.7,1.8c0,0.9-0.4,1.6-0.8,2c-0.8,0.7-1.7,0.7-2.6,0.7h-3
		V147.8z M193,155.1c0.5,0,1,0,1.3-0.2c0.2-0.1,0.6-0.4,0.6-1.1c0-0.4-0.1-0.8-0.5-1.1s-0.9-0.3-1.3-0.3h-1.4v2.7L193,155.1
		L193,155.1z M197.6,147.8h1.5v8.7h-1.5V147.8z"/>
	<path d="M204.9,149.1v7.3h-1.5v-7.3h-2.7v-1.4h7v1.4H204.9z"/>
	<path d="M208.5,152.1c0-2.6,2-4.6,4.6-4.6s4.6,2,4.6,4.6s-2,4.6-4.6,4.6S208.5,154.8,208.5,152.1z M210,152.1
		c0,2.1,1.5,3.2,3.1,3.2s3.1-1.1,3.1-3.2c0-2.1-1.5-3.3-3.1-3.3S210,150,210,152.1z"/>
</g>
</svg>
