<?xml version="1.0" encoding="utf-8"?>
<!-- Generator: Adobe Illustrator 24.2.1, SVG Export Plug-In . SVG Version: 6.00 Build 0)  -->
<svg version="1.1" id="Слой_1" xmlns="http://www.w3.org/2000/svg" xmlns:xlink="http://www.w3.org/1999/xlink" x="0px" y="0px"
	 viewBox="0 0 285 185" style="enable-background:new 0 0 285 185;" xml:space="preserve">
<style type="text/css">
	.st0{fill:none;stroke:#829FCA;stroke-width:8.1209;stroke-miterlimit:10;}
	.st1{enable-background:new    ;}
	.st2{fill:#819FC9;}
	.st3{fill:none;stroke:#546B7E;stroke-width:5.4545;stroke-miterlimit:10;}
	.st4{fill:#546B7E;}
	.st5{fill:none;stroke:#546B7E;stroke-width:5.4545;stroke-linecap:round;stroke-miterlimit:10;}
	.st6{fill:none;stroke:#FFFFFF;stroke-width:3.9693;stroke-linecap:round;stroke-miterlimit:10;}
	.st7{fill:#292C30;}
	.st8{fill:none;stroke:#434345;stroke-width:3.1726;stroke-miterlimit:10;}
	.st9{fill:#D30505;}
</style>
<g>
	<path class="st0" d="M257.7,104.9c18.4-18.4,18.4-48.3,0-66.7"/>
	<path class="st0" d="M243.2,99.2c14.8-14.8,14.8-38.8,0-53.6"/>
</g>
<g class="st1">
	<path d="M99.9,157.9c-0.9,0-2.5-0.2-3.8-1.1c-1.1-0.9-1.6-2-1.6-3.4c0-1.6,0.7-2.7,1.6-3.4c0.9-0.7,2.3-1.1,3.8-1.1v-5.4h1.6v5.2
		c1.4,0,2.9,0.4,3.8,1.1c0.9,0.7,1.6,1.8,1.6,3.4c0,1.4-0.5,2.7-1.6,3.4c-1.3,1.1-2.9,1.1-3.8,1.1v4.9h-1.6V157.9z M99.9,150.2
		c-0.9,0-1.8,0.2-2.3,0.5c-0.5,0.4-1.3,1.1-1.3,2.7c0,1.4,0.5,2.2,1.3,2.7c0.7,0.5,1.6,0.7,2.5,0.7v-6.7H99.9z M101.4,156.7
		c0.9,0,1.8-0.2,2.5-0.7c0.7-0.5,1.3-1.3,1.3-2.7c0-1.4-0.7-2.3-1.3-2.7c-0.5-0.4-1.6-0.5-2.3-0.5v6.7H101.4z"/>
	<path d="M108.6,153.4c0-2.7,2-4.7,4.7-4.7c2.7,0,4.7,2,4.7,4.7s-2,4.7-4.7,4.7C110.6,158.1,108.6,156.1,108.6,153.4z M110.2,153.4
		c0,2.2,1.6,3.2,3.2,3.2c1.6,0,3.2-1.1,3.2-3.2c0-2.2-1.4-3.4-3.2-3.4S110.2,151.3,110.2,153.4z"/>
	<path d="M123.3,150.4v7.6h-1.6v-7.6h-2.9v-1.4h7.2v1.4H123.3z"/>
	<path d="M126.9,153.4c0-2.7,2-4.7,4.7-4.7c2.7,0,4.7,2,4.7,4.7s-2,4.7-4.7,4.7C128.9,158.1,126.9,156.1,126.9,153.4z M128.6,153.4
		c0,2.2,1.6,3.2,3.2,3.2c1.6,0,3.2-1.1,3.2-3.2c0-2.2-1.4-3.4-3.2-3.4S128.6,151.3,128.6,153.4z"/>
	<path d="M138.3,149.1c0.9-0.4,1.8-0.5,2.5-0.5c3.1,0,4.9,2,4.9,4.7c0,2.7-2,4.7-4.9,4.7c-1.3,0-2.2-0.4-2.5-0.5v-1.3
		c0.9,0.4,1.8,0.5,2.5,0.5c1.6,0,3.1-1.1,3.2-2.7h-4.7v-1.4h4.7c-0.4-1.6-1.6-2.5-3.2-2.5c-0.7,0-1.6,0.2-2.5,0.5V149.1z"/>
	<path d="M154.8,157.9h-1.6v-7.6H150v4c0,0.7,0,1.8-0.7,2.5c-0.4,0.4-0.9,0.9-2.2,0.9c-0.2,0-0.4,0-0.5,0v-1.4c0.2,0,0.2,0,0.4,0
		c0.5,0,0.9-0.4,1.1-0.5c0.4-0.4,0.4-1.1,0.4-1.6v-5.4h6.3v9.2H154.8z"/>
	<path d="M165.6,155.6c-0.2,0.5-0.7,1.1-1.1,1.4c-0.9,0.7-1.8,1.1-3.1,1.1c-2.2,0-4.5-1.4-4.5-4.7c0-2.7,1.6-4.7,4.3-4.7
		c1.8,0,2.9,0.9,3.4,1.6c0.5,0.7,0.9,2.2,0.9,3.4h-7c0,1.8,1.3,3.1,2.9,3.1c0.7,0,1.3-0.2,1.8-0.7c0.4-0.4,0.7-0.7,0.9-1.3
		L165.6,155.6z M164.2,152.4c-0.2-1.4-1.3-2.3-2.7-2.3c-1.3,0-2.3,1.1-2.7,2.3H164.2z"/>
	<path d="M169.2,148.2l3.8,7.4l3.6-7.4l2.2,9.7h-1.6l-1.3-5.6l-3.1,6.1l-3.1-6.1l-1.1,5.6h-1.6L169.2,148.2z"/>
	<path d="M188.7,155.6c-0.2,0.5-0.7,1.1-1.1,1.4c-0.9,0.7-1.8,1.1-3.1,1.1c-2.2,0-4.5-1.4-4.5-4.7c0-2.7,1.6-4.7,4.3-4.7
		c1.8,0,2.9,0.9,3.4,1.6c0.5,0.7,0.9,2.2,0.9,3.4h-7c0,1.8,1.3,3.1,2.9,3.1c0.7,0,1.3-0.2,1.8-0.7c0.4-0.4,0.7-0.7,0.9-1.3
		L188.7,155.6z M187.1,152.4c-0.2-1.4-1.3-2.3-2.7-2.3c-1.3,0-2.3,1.1-2.7,2.3H187.1z"/>
	<path d="M191,148.9h1.6v3.6h4.3v-3.6h1.6v9H197v-3.8h-4.3v3.8H191V148.9z"/>
	<path d="M204.3,150.4v7.6h-1.6v-7.6h-2.9v-1.4h7.2v1.4H204.3z"/>
</g>
<g>
	<circle class="st2" cx="39.7" cy="85" r="32.5"/>
	<circle class="st3" cx="39.7" cy="84.8" r="34"/>
	<rect x="36.7" y="41.8" class="st4" width="6" height="9.8"/>
	<path class="st4" d="M47.6,40.2L47.6,40.2c0,1.7-1.3,3-3,3h-9.7c-1.7,0-3-1.3-3-3l0,0c0-1.7,1.3-3,3-3h9.7
		C46.3,37.2,47.6,38.6,47.6,40.2z"/>
	<circle class="st4" cx="39.8" cy="82.8" r="3.2"/>
	<line class="st5" x1="39.8" y1="82.8" x2="54.9" y2="76.1"/>
	<g>
		<line class="st6" x1="39.7" y1="58.6" x2="39.7" y2="68.7"/>
		<line class="st6" x1="39.7" y1="101.1" x2="39.7" y2="111.2"/>
	</g>
	<g>
		<line class="st6" x1="13.6" y1="85" x2="23.6" y2="85"/>
		<line class="st6" x1="56.1" y1="85" x2="66.1" y2="85"/>
	</g>
</g>
<g>
	<path class="st7" d="M159.7,121.8c-7.5,1.6-16.7,1.7-23.9,0.1c-3.1-0.7-5.4-3.4-5.4-6.6l-0.5-75c-0.1-3.6,2.5-6.6,6-7.2
		c7.7-1.1,15.7-1,24,0.1c3.5,0.4,6.1,3.6,6,7.2l-0.5,74.8C165.1,118.3,162.9,121.1,159.7,121.8z"/>
	<line class="st8" x1="130.1" y1="62.8" x2="165.4" y2="62.8"/>
	<circle class="st9" cx="136.9" cy="55.5" r="2.6"/>
</g>
<g class="st1">
	<path d="M12.9,150.4v7.6h-1.6v-7.6H8.4v-1.4h7.2v1.4H12.9z"/>
	<path d="M24.1,148.9h1.6v9h-1.6v-1.3c-0.5,0.7-1.4,1.4-3.1,1.4c-2.3,0-4.3-1.6-4.3-4.7c0-3.1,2.2-4.7,4.3-4.7
		c1.8,0,2.7,0.9,3.1,1.4V148.9z M18.1,153.4c0,2,1.1,3.4,2.9,3.4c2,0,3.1-1.6,3.1-3.4c0-2.3-1.6-3.2-3.1-3.2
		C19.6,150,18.1,151.1,18.1,153.4z"/>
	<path d="M30,148.9v5.9l6.1-6.7v9.7h-1.4V152l-6.1,6.7v-9.7H30z M30.6,144.6c0.2,0.7,0.9,1.3,1.8,1.3c0.9,0,1.6-0.5,1.8-1.3l1.3,0.5
		c-0.5,1.3-1.6,2.2-3.1,2.2s-2.7-0.9-3.1-2.2L30.6,144.6z"/>
	<path d="M40.3,148.2l3.8,7.4l3.6-7.4l2.2,9.7h-1.6l-1.3-5.6l-3.1,6.1l-3.1-6.1l-1.1,5.6h-1.6L40.3,148.2z"/>
	<path d="M59.5,155.6c-0.2,0.5-0.7,1.1-1.1,1.4c-0.9,0.7-1.8,1.1-3.1,1.1c-2.2,0-4.5-1.4-4.5-4.7c0-2.7,1.6-4.7,4.3-4.7
		c1.8,0,2.9,0.9,3.4,1.6c0.5,0.7,0.9,2.2,0.9,3.4h-6.8c0,1.8,1.3,3.1,2.9,3.1c0.7,0,1.3-0.2,1.8-0.7c0.4-0.4,0.7-0.7,0.9-1.3
		L59.5,155.6z M58.1,152.4c-0.2-1.4-1.3-2.3-2.7-2.3c-1.3,0-2.3,1.1-2.7,2.3H58.1z"/>
	<path d="M63.7,162.8h-1.6v-13.9h1.6v1.3c1.1-1.3,2.3-1.4,3.1-1.4c2.9,0,4.3,2.3,4.3,4.7c0,2.5-1.6,4.7-4.3,4.7
		c-1.4,0-2.5-0.7-3.1-1.4V162.8z M69.4,153.4c0-2.2-1.4-3.4-2.9-3.4c-1.4,0-3.1,1.3-3.1,3.4c0,1.8,1.1,3.2,3.1,3.2
		C68.4,156.7,69.4,155.2,69.4,153.4z"/>
</g>
<g class="st1">
	<path d="M235.9,151.5c-0.9-1.1-2-1.3-2.9-1.3c-1.6,0-3.2,1.1-3.2,3.4s1.6,3.2,3.2,3.2c0.9,0,2.2-0.4,2.9-1.4v1.8
		c-0.9,0.7-2,0.9-2.9,0.9c-2.7,0-4.9-2-4.9-4.7s2-4.7,4.9-4.7c1.4,0,2.3,0.5,2.7,0.9v1.8H235.9z"/>
	<path d="M239.8,148.9v5.9l6.1-6.7v9.7h-1.6V152l-6.1,6.7v-9.7H239.8z"/>
	<path d="M248.8,148.9h5.4v1.4h-3.8v7.6h-1.6V148.9z"/>
	<path d="M255.8,148.9h1.6v3.6h4.3v-3.6h1.6v9h-1.6v-3.8h-4.3v3.8h-1.6V148.9z"/>
	<path d="M272.9,148.9h1.6v9h-1.6v-1.3c-0.5,0.7-1.4,1.4-3.1,1.4c-2.3,0-4.3-1.6-4.3-4.7c0-3.1,2.2-4.7,4.3-4.7
		c1.8,0,2.7,0.9,3.1,1.4V148.9z M267.2,153.4c0,2,1.1,3.4,2.9,3.4c2,0,3.1-1.6,3.1-3.4c0-2.3-1.6-3.2-3.1-3.2
		C268.4,150,267.2,151.1,267.2,153.4z"/>
	<path d="M284.3,157.9h-1.6v-7.6h-3.2v4c0,0.7,0,1.8-0.7,2.5c-0.4,0.4-0.9,0.9-2.2,0.9c-0.2,0-0.4,0-0.5,0v-1.4c0.2,0,0.2,0,0.4,0
		c0.5,0,0.9-0.4,1.1-0.5c0.4-0.4,0.4-1.1,0.4-1.6v-5.4h6.3v9.2H284.3z"/>
</g>
</svg>
