<?xml version="1.0" encoding="utf-8"?>
<!-- Generator: Adobe Illustrator 24.2.1, SVG Export Plug-In . SVG Version: 6.00 Build 0)  -->
<svg version="1.1" id="Слой_1" xmlns="http://www.w3.org/2000/svg" xmlns:xlink="http://www.w3.org/1999/xlink" x="0px" y="0px"
	 viewBox="0 0 285 185" style="enable-background:new 0 0 285 185;" xml:space="preserve">
<style type="text/css">
	.st0{fill:#D9DEE4;}
	.st1{fill:#829FCA;}
	.st2{fill:#44484C;}
</style>
<g>
	<circle class="st0" cx="115.2" cy="129.5" r="2.8"/>
	<path class="st1" d="M185.4,108.8l-4.8-4.8c6.9-6.9,10.7-16,10.7-25.7s-3.8-18.8-10.7-25.7l4.8-4.8c8.2,8.2,12.7,19,12.7,30.5
		C198.1,89.8,193.6,100.7,185.4,108.8z"/>
	<path class="st1" d="M173.2,104.1l-4.8-4.8c5.4-5.4,8.4-12.5,8.4-20.2c0-7.6-3-14.8-8.4-20.2l4.8-4.8c6.7,6.7,10.4,15.6,10.4,25
		C183.6,88.5,179.9,97.4,173.2,104.1z"/>
</g>
<g>
	<path class="st2" d="M88,47.7v84.1c0,1.6,1.3,2.9,2.9,2.9h48.4c1.6,0,2.9-1.3,2.9-2.9V47.7c0-1.6-1.3-2.9-2.9-2.9H90.9
		C89.3,44.8,88,46.1,88,47.7z"/>
	<rect x="91.6" y="48.4" class="st0" width="47.1" height="73.5"/>
	<circle class="st0" cx="115.1" cy="129.5" r="2.8"/>
	<g>
		<path class="st2" d="M121.7,94.9c-0.6-1.5-1.9-2-3.4-1.4c-1.1,0.4-2.2,0.9-3.4,1.4c-0.3,0.1-0.5,0.1-0.7-0.2
			c-0.4-0.5-0.8-1-1.2-1.5c-1.7-2.4-2.8-5.1-3.6-7.9c-0.4-1.4-0.7-2.8-0.7-4.3c0-0.3,0.1-0.5,0.4-0.6c1.1-0.4,2.2-0.9,3.3-1.3
			c1.5-0.6,2.1-1.9,1.5-3.5c-0.4-0.9-0.7-1.8-1.1-2.6c-0.4-0.9-0.7-1.8-1.1-2.7c-0.6-1.5-1.9-2-3.4-1.4c-1.1,0.4-2.2,0.9-3.4,1.4
			c-1.1,0.4-1.8,1.1-2.3,2.1c-0.8,1.6-1.1,3.3-1.2,5.1c-0.2,3.6,0.4,7.2,1.5,10.7c1.4,4.7,3.8,8.9,7,12.6c1.5,1.7,3.1,3.2,5.1,4.2
			c1.4,0.7,2.8,0.8,4.2,0.2c1-0.5,2.1-0.8,3.1-1.3c1.5-0.6,2.1-1.9,1.5-3.4C123.2,98.5,122.5,96.7,121.7,94.9z"/>
		<path class="st2" d="M122.7,89.1l2.6,0.6c0.6-2.4,0.4-4.9-0.6-7.2c-1-2.4-2.7-4.4-4.9-5.8l-1.4,2.3c1.7,1,3.1,2.6,3.8,4.5
			C123,85.3,123.1,87.2,122.7,89.1z"/>
		<path class="st2" d="M131.1,80.1c-1.6-4-4.5-7.3-8.2-9.6l-1.4,2.3c3.2,1.9,5.7,4.8,7.1,8.3c1.3,3.3,1.6,6.9,0.8,10.3L132,92
			C132.9,88,132.6,83.9,131.1,80.1z"/>
	</g>
</g>
</svg>
