<?xml version="1.0" encoding="utf-8"?>
<!-- Generator: Adobe Illustrator 24.2.0, SVG Export Plug-In . SVG Version: 6.00 Build 0)  -->
<svg version="1.1" id="Слой_1" xmlns="http://www.w3.org/2000/svg" xmlns:xlink="http://www.w3.org/1999/xlink" x="0px" y="0px"
	 viewBox="0 0 285 185" style="enable-background:new 0 0 285 185;" xml:space="preserve">
<style type="text/css">
	.st0{fill:#44484C;}
	.st1{fill:#D9DEE4;}
	.st2{fill:#E5E2DC;}
	.st3{fill:#B6BCC0;}
	.st4{fill:#829FCA;}
</style>
<g>
	<path class="st0" d="M88,47.7v84.2c0,1.6,1.3,2.9,2.9,2.9h48.4c1.6,0,2.9-1.3,2.9-2.9V47.7c0-1.6-1.3-2.9-2.9-2.9H90.9
		C89.3,44.7,88,46.1,88,47.7z"/>
	<rect x="91.6" y="48.4" class="st1" width="47.2" height="73.6"/>
	<circle class="st1" cx="115.2" cy="129.5" r="2.8"/>
	<path class="st0" d="M129,57.6c-0.4-0.6-0.6-0.7-0.6-0.7l-0.3,0.2l0,0l-14,8.2l-3.7,0.3v0.9h0v0.4h1l0,0H111h-0.6v0.6l-0.1,0.1l0,0
		l-0.3,0.2c0,0-0.1,0.2,0.3,0.8c0,0.1,0.1,0.1,0.1,0.2v13.4h0.6h3.3h1.5V66.9h-0.9l0,0h0.9v-0.4h0v-0.1l13.2-7.7l0,0l0.3-0.2
		C129.3,58.5,129.4,58.3,129,57.6z"/>
	<path class="st2" d="M95.6,124.4c0-1.1,0-2.2,0-3.3c0.3,0,0.3-0.3,0.4-0.5c0.7-2.3,2.1-4,4.3-5.1c1.5-0.4,3.1-0.6,4.7-0.3
		c1.3,0.5,2.5,1.1,3.4,2.1c1,1.1,2,2.1,3,3.1c0.2,0.2,0.3,0.5,0.8,0.4c-0.1-1.1-0.2-2.3-0.2-3.4c0.4-1.6,0.2-3.1,0.2-4.7
		c0.1-1.6,0.1-3.1,0-4.7c0.1-1.6,0.1-3.1,0-4.7c0.1-1.6,0.1-3.1,0-4.7c0-1.6,0-3.1,0-4.7c0.2-1.8,0.9-3.4,2.1-4.7
		c1.3-1.2,2.9-1.8,4.7-2.1c1.6,0.1,3.1,0.5,4.4,1.4c0.3,0.3,0.6,0.6,1,0.9c1,1.3,1.6,2.8,1.7,4.5c0,1.6,0,3.1,0,4.7
		c-0.2,2.5-0.2,2.5,2.1,1.9c0,0,0.1,0,0.1,0c1.7-0.1,3.2,0.2,4.7,1c0.6,0.6,1.3,1.2,1.9,1.9c0.9,1.7,0.9,1.7,2.7,1
		c0,0,0.1,0,0.1-0.1c1.5-0.3,2.9-0.2,4.4,0.3c1.4,0.7,2.7,1.7,3.3,3.1c0.4,1,0.9,1.2,1.7,0.5c1.5-0.5,3.1-0.5,4.6-0.2
		c0.2,0.2,0.4,0.3,0.7,0.3c2.8,1.6,4.1,4,4,7.2c-0.1,2.3,0,4.6,0,6.9c0,6.1,0.3,12.3-1.2,18.4c-0.6,1.6-1.2,3.2-2.1,4.7
		c-0.4,0.6-0.9,1.1-1.3,1.7c-1.2,1.2-2.6,2.1-4.1,3c-0.2,0.1-0.4,0.2-0.6,0.3c-1.6,0.5-3.1,1-4.7,1.4c-1.6,0.2-3.1,0.4-4.7,0.6
		c-1.6,0-3.1,0-4.7,0.1c-1.6-0.1-3.1-0.3-4.7-0.4c-1.6-0.4-3.1-0.8-4.7-1.2c-0.6-0.3-1.2-0.5-1.8-0.8c-1-0.6-1.9-1.2-2.9-1.8
		c-1.2-1-2.3-1.9-3.4-3c-1.5-1.5-3-3-4.6-4.5c-0.4-0.5-0.9-1-1.4-1.4c-0.3-0.3-0.6-0.6-0.9-0.9C104.5,133.7,99.1,129.9,95.6,124.4z"
		/>
	<g>
		<path class="st3" d="M95.6,124.2c0-1.1,0-2.2,0-3.3c0.3,0,0.3-0.3,0.4-0.5c0.7-2.3,2.1-4,4.3-5.1c1.5-0.4,3.1-0.6,4.7-0.3
			c1.3,0.5,2.5,1.1,3.4,2.1c1,1.1,2,2.1,3,3.1c0.2,0.2,0.3,0.5,0.8,0.4c-0.1-1.1-0.2-2.3-0.2-3.4c0.4-1.6,0.2-3.1,0.2-4.7
			c0.1-1.6,0.1-3.1,0-4.7c0.1-1.6,0.1-3.1,0-4.7c0.1-1.6,0.1-3.1,0-4.7c0-1.6,0-3.1,0-4.7c0.2-1.8,0.9-3.4,2.1-4.7
			c1.3-1.2,2.9-1.8,4.7-2.1c1.6,0.1,3.1,0.5,4.4,1.4c0.3,0.3,0.6,0.6,1,0.9c1,1.3,1.6,2.8,1.7,4.5c0,1.6,0,3.1,0,4.7
			c-0.2,2.5-0.2,2.5,2.1,1.9c0,0,0.1,0,0.1,0c1.7-0.1,3.2,0.2,4.7,1c0.6,0.6,1.3,1.2,1.9,1.9c0.9,1.7,0.9,1.7,2.7,1
			c0,0,0.1,0,0.1-0.1c1.5-0.3,2.9-0.2,4.4,0.3c1.4,0.7,2.7,1.7,3.3,3.1c0.4,1,0.9,1.2,1.7,0.5c1.5-0.5,3.1-0.5,4.6-0.2
			c0.2,0.2,0.4,0.3,0.7,0.3c2.8,1.6,4.1,4,4,7.2c-0.1,2.3,0,4.6,0,6.9c0,6.1,0.3,12.3-1.2,18.4c-0.6,1.6-1.2,3.2-2.1,4.7
			c-0.4,0.6-0.9,1.1-1.3,1.7c-1.2,1.2-2.6,2.1-4.1,3c-0.2,0.1-0.4,0.2-0.6,0.3c-1.6,0.5-3.1,1-4.7,1.4c-1.6,0.2-3.1,0.4-4.7,0.6
			c-1.6,0-3.1,0-4.7,0.1c-1.6-0.1-3.1-0.3-4.7-0.4c-1.6-0.4-3.1-0.8-4.7-1.2c-0.6-0.3-1.2-0.5-1.8-0.8c-1-0.6-1.9-1.2-2.9-1.8
			c-1.2-1-2.3-1.9-3.4-3c-1.5-1.5-3-3-4.6-4.5c-0.4-0.5-0.9-1-1.4-1.4c-0.3-0.3-0.6-0.6-0.9-0.9C104.5,133.5,99.2,129.7,95.6,124.2z
			 M146.4,117.1c-0.1,1.6-0.1,3.1,0,4.7c-0.1,1-0.2,2.1-1.5,2.5c-1,0.3-1.7-0.3-2.2-1.1c0-0.5-0.1-0.9-0.1-1.4
			c0.1-1.6,0.1-3.1,0-4.7c0-1.6,0-3.1,0-4.7c0.2-1.5-0.1-2.8-1.5-3.6c-1.2-0.7-2.5-0.9-3.6,0.1c-1.1,0.7-1.3,1.9-1.3,3.1
			c0,2.6,0,5.1,0,7.7c0,0.6,0,1.2-0.4,1.8c-0.8,0.7-1.8,0.8-2.7,0.3c-0.5-0.6-0.6-1.2-0.6-2c0-0.9,0-1.8-0.1-2.7
			c0.1-1.6,0.1-3.1,0-4.7c0.1-1.6,0.1-3.1,0-4.7c-0.1-1.9-1.1-3-3-3.1c-1.7-0.1-3.1,1.1-3.3,2.9c-0.1,1.6,0,3.3,0,4.9
			c0,1.6,0,3.1,0,4.7c-0.2,1.6-0.6,1.9-2.2,2.1c-1-0.3-1.5-1.1-1.6-2.1c0.1-1.6,0.1-3.1,0-4.7c0.1-1.6,0.1-3.1,0-4.7
			c0.1-1.5,0.1-3.1,0-4.6c0.1-1.6,0.1-3.1,0-4.7c0.1-1.6,0.2-3.1-0.1-4.7c-0.6-1.7-1.5-2.3-3.2-2.2c-1.9,0.3-2.9,1.4-3,3.2
			c0,2.8,0,5.6,0,8.4c0,1.6,0,3.1,0,4.7c0,1.6,0,3.1,0,4.7c0,1.6,0,3.1,0,4.7c0,1.6,0,3.1,0,4.7c0,1.6,0,3.1,0,4.7c0,1,0,2,0,3.2
			c-0.6-0.5-1-0.9-1.4-1.2c-0.7-0.9-1.5-1.6-2.4-2.4c-0.7-0.8-1.5-1.6-2.3-2.3c-0.7-0.9-1.5-1.6-2.4-2.4c-0.7-0.8-1.3-1.6-2.3-2.1
			c-1.5-0.8-3.2-0.6-4.4,0.5c-1.2,1.1-1.5,2.5-0.8,4c0.4,1.1,1.4,1.8,2.3,2.6c0.8,0.9,1.7,1.8,2.6,2.6c0.6,0.8,1.3,1.5,2.1,2.1
			c0.7,0.8,1.5,1.7,2.4,2.3c0.7,0.9,1.5,1.6,2.3,2.3c0.8,0.9,1.6,1.8,2.6,2.6c0.6,0.8,1.3,1.5,2.1,2.1c0.8,0.9,1.6,1.8,2.6,2.5
			c0.7,0.9,1.6,1.6,2.5,2.1c0.6,0.5,1.3,1,2.1,1.2c1.5,0.8,3,1.2,4.7,1.5c1.5,0.4,3.1,0.5,4.7,0.5c1.6,0.1,3.1,0.2,4.7-0.1
			c1.6,0,3.2-0.2,4.7-0.6c0.8-0.2,1.6-0.4,2.4-0.7c3.1-1.2,5.5-3.2,6.6-6.5c1.3-3,1.2-6.2,1.3-9.4c0-1.6,0-3.1,0-4.7
			c0-1.6,0-3.1,0-4.7c0-1.6,0-3.1,0-4.7c0-1.4,0.4-2.9-0.6-4.2c-1.3-1.7-3.6-1.7-5,0C145.9,114.1,146.3,115.7,146.4,117.1z"/>
		<path class="st3" d="M109.7,98.4c-0.1,1.6-0.1,3.1,0,4.7c0,0.3,0,0.6,0,0.9c-0.6,0.2-0.7-0.3-1-0.6c-1.7-1.8-2.7-4-3.4-6.4
			c-0.1-1.1-0.2-2.2-0.3-3.3c0.2-3.5,1.4-6.6,3.6-9.3c0.4-0.4,0.8-0.8,1.1-1.1c1.4-1.1,3-2.1,4.7-2.8c3.4-1,6.7-1.1,10,0.2
			c1.3,0.5,2.5,1.3,3.7,2.1c0.6,0.5,1.2,1.1,1.7,1.6c2.3,2.7,3.5,5.8,3.7,9.4c-0.2,1.2-0.3,2.5-0.5,3.7c-0.6,0.2-0.8-0.5-1.3-0.6
			c-1.9-0.2-2.4-1.4-2-3.1c0.1-3.9-2.4-7.8-6-9.3c-0.5-0.1-0.9-0.2-1.4-0.3c-2.9-1.3-5.6-0.8-8.3,0.7c-1.7,0.9-3.1,2.2-4,3.9
			c-1.6,2.8-1.9,5.7-0.7,8.7C109.5,97.8,109.6,98.1,109.7,98.4z"/>
	</g>
	<path class="st4" d="M185.4,108.8l-4.8-4.8c6.9-6.9,10.7-16,10.7-25.7s-3.8-18.8-10.7-25.7l4.8-4.8c8.2,8.2,12.7,19,12.7,30.5
		C198.1,89.8,193.6,100.7,185.4,108.8z"/>
	<path class="st4" d="M173.2,104.1l-4.8-4.8c5.4-5.4,8.4-12.5,8.4-20.2c0-7.6-3-14.8-8.4-20.2l4.8-4.8c6.7,6.7,10.4,15.6,10.4,25
		C183.6,88.5,179.9,97.4,173.2,104.1z"/>
</g>
</svg>
