<?xml version="1.0" encoding="utf-8"?>
<!-- Generator: Adobe Illustrator 21.0.2, SVG Export Plug-In . SVG Version: 6.00 Build 0)  -->
<svg version="1.1" id="Слой_1" xmlns="http://www.w3.org/2000/svg" xmlns:xlink="http://www.w3.org/1999/xlink" x="0px" y="0px"
	 viewBox="0 0 30 30" style="enable-background:new 0 0 30 30;" xml:space="preserve">
<style type="text/css">
	.st0{fill:#1E4488;}
	.st1{fill:none;stroke:#204289;stroke-miterlimit:10;}
</style>
<circle class="st0" cx="30.2" cy="6.1" r="0"/>
<path class="st1" d="M12.9,13.2c0.2-0.5,0.2-1.1,0.2-1.7c0-3.5-2.8-6.3-6.3-6.3S0.5,8,0.5,11.5s2.8,6.3,6.3,6.3
	c0.6,0,1.1-0.1,1.6-0.2l2.9,3.2h2.6V23h2.3v2.5h4.2V21L12.9,13.2z M5.9,12.7c-1.1,0-1.9-0.9-1.9-1.9c0-1.1,0.9-1.9,1.9-1.9
	s1.9,0.9,1.9,1.9C7.9,11.8,7,12.7,5.9,12.7z"/>
</svg>
