<svg xmlns="http://www.w3.org/2000/svg" viewBox="-2 -2 50 50" enable-background="new -2 -2 50 50" xmlns:xlink="http://www.w3.org/1999/xlink">
 <defs>
  <linearGradient id="SVGID_5_" gradientUnits="userSpaceOnUse" x1="35.13" x2="47.595" xlink:href="#SVGID_1_"/>
  <linearGradient id="SVGID_6_" gradientUnits="userSpaceOnUse" x1="-1.594" x2="10.545" xlink:href="#SVGID_1_"/>
  <linearGradient id="SVGID_4_" gradientUnits="userSpaceOnUse" x1="10.429" x2="35.24" xlink:href="#SVGID_1_"/>
  <linearGradient id="SVGID_2_" gradientUnits="userSpaceOnUse" x1="10.429" x2="22.878" xlink:href="#SVGID_1_"/>
  <linearGradient id="SVGID_1_" gradientUnits="userSpaceOnUse" y1=".593" x2="0" y2="30.958">
   <stop stop-color="#0e3e84"/>
   <stop offset="1" stop-color="#3f8ded"/>
  </linearGradient>
  <linearGradient id="SVGID_3_" gradientUnits="userSpaceOnUse" x1="22.878" x2="35.24" xlink:href="#SVGID_1_"/>
 </defs>
 <path fill="url(#SVGID_1_)" d="m22.259.593h1.242v30.366h-1.242z"/>
 <path fill="url(#SVGID_2_)" d="m22.878 39.12l-12.449-7.82v-13.849l12.449 4.256z"/>
 <path fill="#fff" d="m23.22 39.74l-13.13-8.247v-14.521l13.13 4.49v18.278m-12.449-8.626l11.762 7.387v-16.55l-11.762-4.02v13.184"/>
 <path fill="url(#SVGID_3_)" d="m22.878 39.12l12.362-7.82v-13.849l-12.362 4.256z"/>
 <path fill="#fff" d="m22.534 39.742v-18.28l13.05-4.491v14.522l-13.05 8.249m.686-17.791v16.547l11.679-7.384v-13.182l-11.679 4.02"/>
 <path fill="url(#SVGID_4_)" d="m35.24 17.451l-12.15-3.223-12.661 3.223 12.449 4.256z"/>
 <path fill="#fff" d="m22.878 22.07l-13.65-4.667 13.866-3.529 13.325 3.536-13.541 4.66m-11.25-4.569l11.247 3.846 11.188-3.852-10.973-2.911-11.462 2.917"/>
 <path fill="url(#SVGID_5_)" d="m47.37 35.22l-12.24-3.522.22-.789 12.245 3.519z"/>
 <path fill="url(#SVGID_6_)" d="m-1.361 35.22l-.233-.792 11.906-3.519.233.789z"/>
 <path fill="#fff" d="m13.273 30.553c.153-.208.32-.41.5-.606.183-.194.351-.361.503-.492.151-.14.285-.265.396-.362.031-.041.073-.049.129-.033.076.025.149.073.222.152.077.084.161.188.261.327.098.132.154.208.164.223.425.492.849.82 1.28.994.307.091.582.091.832.007.253-.091.45-.248.59-.486.143-.229.216-.515.216-.847 0-.454-.194-.919-.588-1.398-.39-.474-.974-.878-1.752-1.197-.146-.049-.282-.082-.4-.098-.462-.153-.705-.353-.73-.599.031-.18.143-.353.327-.535.107-.089.345-.279.712-.556.373-.285.706-.535 1-.766.294-.229.486-.383.582-.466.139-.111.207-.201.207-.271 0-.154-.184-.299-.549-.445-.607-.203-1.463-.319-2.565-.362-.063-.006-.164-.006-.295-.006-.077-.05-.14-.14-.181-.264-.188-.702-.31-1.372-.369-2.02 0-.042-.014-.07-.036-.101.016-.109.066-.163.154-.17.083-.007.225.027.431.094l5.396 1.757c.244.082.401.152.473.229.07.077.105.223.105.431 0 .744-.195 1.371-.584 1.884-.39.516-.911.973-1.576 1.364-.035.027-.066.076-.09.152.038.091.108.174.212.243.747.557 1.313 1.169 1.693 1.844.378.675.566 1.453.566 2.323-.021.633-.136 1.161-.345 1.601-.207.444-.489.786-.837 1.021-.351.236-.74.376-1.172.418-.428.049-.886 0-1.37-.133-.608-.201-1.166-.479-1.672-.84-.507-.355-.925-.724-1.246-1.092-.318-.38-.52-.68-.596-.922"/>
 <path fill="#fff" d="m25.449 32.555c-.033-.527-.062-1.099-.082-1.696.042-.626.063-1.489.076-2.614.006-1.12.034-2.059.079-2.817.045-.758.153-1.529.323-2.336.076-.312.153-.543.233-.696.073-.147.206-.258.393-.334l2.506-1.057c.55-.229 1.117-.314 1.691-.244.567.069 1.088.292 1.558.689.463.383.834.93 1.114 1.64.272.718.407 1.586.404 2.623-.001.625-.076 1.238-.207 1.822-.134.592-.342 1.155-.631 1.711-.288.557-.67 1.078-1.15 1.565-.472.493-1.06.931-1.752 1.328l-3.902 2.168c-.194.112-.339.063-.43-.153-.098-.214-.153-.5-.173-.848-.021-.341-.041-.59-.05-.751m6.169-6.252c.008-.98-.131-1.786-.402-2.435-.281-.653-.73-1.069-1.357-1.25-.306-.084-.591-.069-.857.048-.241.105-.446.292-.623.556-.178.265-.31.557-.396.884-.093.374-.156.729-.188 1.058-.03.341-.063.82-.088 1.447.02.347.032.931.025 1.738 0 1.01.139 1.724.426 2.146.285.424.707.48 1.279.174.522-.306.947-.71 1.278-1.21.327-.501.558-1.029.695-1.571.14-.548.208-1.076.208-1.585"/>
</svg>
