<?xml version="1.0" encoding="UTF-8" standalone="no"?>
<!-- Created with Inkscape (http://www.inkscape.org/) -->

<svg
   xmlns:dc="http://purl.org/dc/elements/1.1/"
   xmlns:cc="http://creativecommons.org/ns#"
   xmlns:rdf="http://www.w3.org/1999/02/22-rdf-syntax-ns#"
   xmlns:svg="http://www.w3.org/2000/svg"
   xmlns="http://www.w3.org/2000/svg"
   xmlns:sodipodi="http://sodipodi.sourceforge.net/DTD/sodipodi-0.dtd"
   xmlns:inkscape="http://www.inkscape.org/namespaces/inkscape"
   version="1.1"
   id="svg4621"
   xml:space="preserve"
   width="97.38533"
   height="120"
   viewBox="0 0 97.38533 120"
   sodipodi:docname="5 лет гарантии.svg"
   inkscape:version="0.92.1 r15371"><metadata
     id="metadata4627"><rdf:RDF><cc:Work
         rdf:about=""><dc:format>image/svg+xml</dc:format><dc:type
           rdf:resource="http://purl.org/dc/dcmitype/StillImage" /><dc:title></dc:title></cc:Work></rdf:RDF></metadata><defs
     id="defs4625"><linearGradient
       x1="0"
       y1="0"
       x2="1"
       y2="0"
       gradientUnits="userSpaceOnUse"
       gradientTransform="matrix(72.735313,0,0,-72.735313,0.1413625,53.376961)"
       spreadMethod="pad"
       id="linearGradient4647"><stop
         style="stop-opacity:1;stop-color:#12397f"
         offset="0"
         id="stop4643" /><stop
         style="stop-opacity:1;stop-color:#3f8ded"
         offset="1"
         id="stop4645" /></linearGradient><clipPath
       clipPathUnits="userSpaceOnUse"
       id="clipPath4657"><path
         d="M 0,90 H 73.039 V 0 H 0 Z"
         id="path4655"
         inkscape:connector-curvature="0" /></clipPath><linearGradient
       x1="0"
       y1="0"
       x2="1"
       y2="0"
       gradientUnits="userSpaceOnUse"
       gradientTransform="matrix(35.670391,38.136497,38.136497,-35.670391,13.828152,29.128031)"
       spreadMethod="pad"
       id="linearGradient4679"><stop
         style="stop-opacity:1;stop-color:#12397f"
         offset="0"
         id="stop4675" /><stop
         style="stop-opacity:1;stop-color:#3f8ded"
         offset="1"
         id="stop4677" /></linearGradient><linearGradient
       x1="0"
       y1="0"
       x2="1"
       y2="0"
       gradientUnits="userSpaceOnUse"
       gradientTransform="matrix(26.550526,0,0,-26.550526,37.948154,14.855814)"
       spreadMethod="pad"
       id="linearGradient4699"><stop
         style="stop-opacity:1;stop-color:#12397f"
         offset="0"
         id="stop4695" /><stop
         style="stop-opacity:1;stop-color:#3f8ded"
         offset="1"
         id="stop4697" /></linearGradient><linearGradient
       x1="0"
       y1="0"
       x2="1"
       y2="0"
       gradientUnits="userSpaceOnUse"
       gradientTransform="matrix(27.446434,0,0,-27.446434,6.4413252,13.81972)"
       spreadMethod="pad"
       id="linearGradient4719"><stop
         style="stop-opacity:1;stop-color:#12397f"
         offset="0"
         id="stop4715" /><stop
         style="stop-opacity:1;stop-color:#3f8ded"
         offset="1"
         id="stop4717" /></linearGradient><clipPath
       clipPathUnits="userSpaceOnUse"
       id="clipPath4729"><path
         d="M 0,90 H 73.039 V 0 H 0 Z"
         id="path4727"
         inkscape:connector-curvature="0" /></clipPath><linearGradient
       x1="0"
       y1="0"
       x2="1"
       y2="0"
       gradientUnits="userSpaceOnUse"
       gradientTransform="matrix(27.176701,0,0,-27.176701,20.644131,53.722488)"
       spreadMethod="pad"
       id="linearGradient4751"><stop
         style="stop-opacity:1;stop-color:#12397f"
         offset="0"
         id="stop4747" /><stop
         style="stop-opacity:1;stop-color:#3f8ded"
         offset="1"
         id="stop4749" /></linearGradient></defs><sodipodi:namedview
     pagecolor="#ffffff"
     bordercolor="#666666"
     borderopacity="1"
     objecttolerance="10"
     gridtolerance="10"
     guidetolerance="10"
     inkscape:pageopacity="0"
     inkscape:pageshadow="2"
     inkscape:window-width="1920"
     inkscape:window-height="1137"
     id="namedview4623"
     showgrid="false"
     inkscape:zoom="7.8333333"
     inkscape:cx="48.692665"
     inkscape:cy="60"
     inkscape:window-x="-8"
     inkscape:window-y="-8"
     inkscape:window-maximized="1"
     inkscape:current-layer="g4629" /><g
     id="g4629"
     inkscape:groupmode="layer"
     inkscape:label="5 лет гарантии"
     transform="matrix(1.3333333,0,0,-1.3333333,0,120)"><g
       id="g4631"><g
         id="g4633"><g
           id="g4639"><g
             id="g4641"><path
               d="m 36.508,83.48 -4.566,6.192 -2.895,-7.135 -5.952,4.865 -1.041,-7.633 -6.964,3.232 0.879,-7.654 -7.538,1.401 2.743,-7.196 L 3.538,69.035 7.971,62.746 0.715,60.349 6.563,55.358 0.141,51.232 7.034,47.851 1.853,42.26 9.359,40.698 5.742,33.995 l 7.647,0.353 -1.825,-7.391 7.308,2.243 0.082,-7.611 6.51,3.986 1.982,-7.349 5.302,5.479 3.76,-6.624 3.762,6.624 5.302,-5.479 1.983,7.349 6.509,-3.986 0.082,7.611 7.307,-2.243 -1.824,7.391 7.648,-0.353 -3.618,6.703 7.506,1.562 -5.181,5.591 6.893,3.381 -6.422,4.126 5.847,4.991 -7.256,2.397 4.435,6.289 -7.637,0.517 2.742,7.196 -7.536,-1.401 0.878,7.654 -6.963,-3.232 -1.042,7.633 -5.953,-4.865 -2.894,7.135 z"
               style="fill:url(#linearGradient4647);stroke:none"
               id="path4649"
               inkscape:connector-curvature="0" /></g></g></g></g><g
       id="g4651"><g
         id="g4653"
         clip-path="url(#clipPath4657)"><g
           id="g4659"
           transform="translate(64.4463,53.377)"><path
             d="m 0,0 c 0,-15.429 -12.508,-27.937 -27.937,-27.937 -15.429,0 -27.938,12.508 -27.938,27.937 0,15.429 12.509,27.937 27.938,27.937 C -12.508,27.937 0,15.429 0,0"
             style="fill:#ffffff;fill-opacity:1;fill-rule:nonzero;stroke:none"
             id="path4661"
             inkscape:connector-curvature="0" /></g></g></g><g
       id="g4663"><g
         id="g4665"><g
           id="g4671"><g
             id="g4673"><path
               d="m 10.4,53.377 c 0,-14.42 11.69,-26.11 26.108,-26.11 v 0 c 14.42,0 26.11,11.69 26.11,26.11 v 0 c 0,14.42 -11.69,26.109 -26.11,26.109 v 0 C 22.09,79.486 10.4,67.797 10.4,53.377"
               style="fill:url(#linearGradient4679);stroke:none"
               id="path4681"
               inkscape:connector-curvature="0" /></g></g></g></g><g
       id="g4683"><g
         id="g4685"><g
           id="g4691"><g
             id="g4693"><path
               d="M 55.166,19.528 48.26,23.759 46.155,15.96 40.531,21.775 37.949,17.227 43.487,2.109 51.26,13.578 64.499,9.806 58.324,26.663 55.254,27.604 Z"
               style="fill:url(#linearGradient4699);stroke:none"
               id="path4701"
               inkscape:connector-curvature="0" /></g></g></g></g><g
       id="g4703"><g
         id="g4705"><g
           id="g4711"><g
             id="g4713"><path
               d="m 12.49,25.967 -6.049,-19.21 13.157,4.345 8.187,-11.066 6.103,19.38 -1.339,2.359 -5.625,-5.815 -2.106,7.799 -6.906,-4.231 -0.087,8.076 z"
               style="fill:url(#linearGradient4719);stroke:none"
               id="path4721"
               inkscape:connector-curvature="0" /></g></g></g></g><g
       id="g4723"><g
         id="g4725"
         clip-path="url(#clipPath4729)"><g
           id="g4731"
           transform="translate(45.4746,53.4717)"><path
             d="m 0,0 c -0.529,1.447 -1.294,2.726 -2.273,3.798 -0.983,1.077 -2.194,1.937 -3.6,2.559 -1.407,0.623 -2.987,0.939 -4.696,0.939 -0.496,0 -0.953,-0.024 -1.365,-0.072 l 1.803,6.04 H 0.548 v 4.384 h -14.061 l -5.345,-17.746 1.173,0.808 c 1.436,0.989 2.684,1.608 3.71,1.84 1.053,0.24 1.869,0.362 2.427,0.362 1.125,0 2.167,-0.189 3.099,-0.562 0.924,-0.37 1.727,-0.9 2.39,-1.578 0.665,-0.68 1.2,-1.498 1.588,-2.431 0.388,-0.928 0.584,-1.968 0.584,-3.091 0,-1.094 -0.197,-2.145 -0.587,-3.125 -0.388,-0.982 -0.931,-1.841 -1.613,-2.553 -0.681,-0.712 -1.499,-1.286 -2.431,-1.706 -0.926,-0.417 -1.945,-0.628 -3.03,-0.628 -1.087,0 -2.04,0.178 -2.834,0.53 -0.82,0.361 -1.568,0.815 -2.23,1.352 -0.473,0.378 -0.888,0.768 -1.23,1.158 -0.334,0.38 -0.626,0.834 -0.867,1.351 l -0.255,0.543 -3.801,-2.706 0.237,-0.397 c 0.409,-0.683 0.88,-1.328 1.398,-1.915 0.506,-0.576 1.041,-1.11 1.599,-1.597 1.169,-0.964 2.412,-1.664 3.698,-2.081 1.271,-0.413 2.629,-0.622 4.036,-0.622 1.675,0 3.292,0.287 4.804,0.853 1.513,0.567 2.866,1.397 4.021,2.465 1.157,1.071 2.084,2.391 2.756,3.925 0.671,1.532 1.012,3.282 1.012,5.202 C 0.796,-3.026 0.528,-1.445 0,0"
             style="fill:#ffffff;fill-opacity:1;fill-rule:nonzero;stroke:none"
             id="path4733"
             inkscape:connector-curvature="0" /></g></g></g><g
       id="g4735"><g
         id="g4737"><g
           id="g4743"><g
             id="g4745"><path
               d="m 46.022,72.67 h -14.06 -1.153 l -0.332,-1.104 -5.344,-17.745 -1.275,-4.23 3.638,2.506 1.173,0.809 c 1.586,1.091 2.601,1.475 3.173,1.604 v 0 c 1.234,0.281 1.835,0.323 2.084,0.323 v 0 c 0.926,0 1.776,-0.152 2.524,-0.451 v 0 c 0.722,-0.288 1.347,-0.7 1.859,-1.223 v 0 c 0.526,-0.538 0.952,-1.191 1.264,-1.942 v 0 c 0.309,-0.74 0.465,-1.578 0.465,-2.496 v 0 c 0,-0.897 -0.16,-1.755 -0.478,-2.553 v 0 c -0.314,-0.795 -0.748,-1.485 -1.291,-2.052 v 0 C 37.725,43.548 37.07,43.089 36.32,42.752 v 0 C 35.596,42.426 34.791,42.26 33.926,42.26 v 0 c -0.87,0 -1.612,0.134 -2.206,0.397 v 0 c -0.693,0.306 -1.326,0.689 -1.881,1.139 v 0 c -0.413,0.329 -0.759,0.655 -1.042,0.976 v 0 c -0.238,0.272 -0.45,0.602 -0.628,0.985 v 0 l -0.256,0.545 -0.789,1.682 -1.513,-1.077 -3.8,-2.707 -1.167,-0.83 0.736,-1.228 0.237,-0.397 c 0.456,-0.763 0.983,-1.484 1.564,-2.143 v 0 c 0.551,-0.627 1.138,-1.213 1.744,-1.742 v 0 c 1.353,-1.116 2.768,-1.909 4.238,-2.387 v 0 c 1.424,-0.462 2.944,-0.698 4.514,-0.698 v 0 c 1.862,0 3.661,0.321 5.349,0.952 v 0 c 1.703,0.639 3.227,1.574 4.529,2.779 v 0 c 1.316,1.218 2.367,2.713 3.123,4.44 v 0 c 0.758,1.732 1.144,3.691 1.144,5.825 v 0 c 0,1.857 -0.3,3.618 -0.892,5.233 v 0 c -0.599,1.639 -1.468,3.089 -2.584,4.311 v 0 c -1.128,1.236 -2.514,2.222 -4.118,2.931 v 0 c -1.4,0.62 -2.942,0.974 -4.592,1.054 v 0 l 0.862,2.885 h 9.524 1.551 v 1.55 4.385 1.55 z m -14.06,-1.55 h 14.06 V 66.735 H 35.343 L 33.54,60.696 c 0.412,0.048 0.87,0.072 1.366,0.072 v 0 c 1.709,0 3.288,-0.316 4.696,-0.94 v 0 c 1.406,-0.621 2.617,-1.482 3.599,-2.558 v 0 c 0.98,-1.073 1.744,-2.351 2.273,-3.798 v 0 c 0.529,-1.445 0.797,-3.026 0.797,-4.701 v 0 c 0,-1.92 -0.341,-3.67 -1.012,-5.203 v 0 c -0.672,-1.533 -1.6,-2.853 -2.756,-3.925 v 0 c -1.155,-1.068 -2.509,-1.897 -4.022,-2.464 v 0 c -1.512,-0.567 -3.128,-0.854 -4.804,-0.854 v 0 c -1.406,0 -2.765,0.21 -4.036,0.623 v 0 c -1.285,0.416 -2.528,1.117 -3.698,2.081 v 0 c -0.558,0.486 -1.092,1.021 -1.599,1.597 v 0 c -0.517,0.587 -0.988,1.231 -1.398,1.915 v 0 l -0.236,0.396 3.8,2.707 0.255,-0.543 c 0.241,-0.517 0.533,-0.971 0.868,-1.351 v 0 c 0.342,-0.391 0.757,-0.78 1.23,-1.158 v 0 c 0.662,-0.538 1.41,-0.991 2.229,-1.353 v 0 c 0.794,-0.351 1.747,-0.529 2.834,-0.529 v 0 c 1.085,0 2.105,0.211 3.031,0.628 v 0 c 0.932,0.42 1.75,0.994 2.431,1.706 v 0 c 0.681,0.712 1.225,1.57 1.613,2.552 v 0 c 0.39,0.981 0.587,2.031 0.587,3.125 v 0 c 0,1.123 -0.196,2.163 -0.584,3.092 v 0 c -0.389,0.932 -0.923,1.751 -1.588,2.431 v 0 c -0.663,0.678 -1.467,1.208 -2.391,1.578 v 0 c -0.931,0.372 -1.974,0.561 -3.099,0.561 v 0 c -0.558,0 -1.374,-0.121 -2.427,-0.361 v 0 c -1.026,-0.233 -2.273,-0.852 -3.71,-1.84 v 0 l -1.172,-0.808 z"
               style="fill:url(#linearGradient4751);stroke:none"
               id="path4753"
               inkscape:connector-curvature="0" /></g></g></g></g></g></svg>