<?xml version="1.0" encoding="utf-8"?>
<!-- Generator: Adobe Illustrator 25.1.0, SVG Export Plug-In . SVG Version: 6.00 Build 0)  -->
<svg version="1.1" id="Слой_1" xmlns="http://www.w3.org/2000/svg" xmlns:xlink="http://www.w3.org/1999/xlink" x="0px" y="0px"
	 viewBox="0 0 29.3 24.3" style="enable-background:new 0 0 29.3 24.3;" xml:space="preserve">
<style type="text/css">
	.st0{fill:none;stroke:#204289;stroke-miterlimit:10;}
	.st1{fill:#204289;}
</style>
<rect x="0.5" y="0.5" class="st0" width="28.3" height="23.3"/>
<polyline class="st0" points="0.5,16.1 14.5,16.1 14.5,0.5 "/>
<line class="st0" x1="14.7" y1="10.1" x2="29.1" y2="10.1"/>
<rect x="3.3" y="9.7" class="st1" width="2.8" height="3"/>
<g>
	<path class="st1" d="M10.9,6c0.8,0,1.5-0.6,1.5-1.5s-0.6-1.5-1.5-1.5S9.4,3.7,9.4,4.5S10.1,6,10.9,6"/>
	<path class="st1" d="M4.6,21.5C5.4,21.5,6,20.9,6,20s-0.6-1.5-1.5-1.5S3.1,19.2,3.1,20S3.8,21.5,4.6,21.5"/>
</g>
<polygon class="st1" points="24.1,3.3 22.3,7.3 26,7.3 "/>
<rect x="18.3" y="16.7" class="st1" width="2.8" height="3"/>
</svg>
