<?xml version="1.0" encoding="utf-8"?>
<!-- Generator: Adobe Illustrator 21.0.2, SVG Export Plug-In . SVG Version: 6.00 Build 0)  -->
<svg version="1.1" id="Слой_1" xmlns="http://www.w3.org/2000/svg" xmlns:xlink="http://www.w3.org/1999/xlink" x="0px" y="0px"
	 viewBox="0 0 75 85" style="enable-background:new 0 0 75 85;" xml:space="preserve">
<style type="text/css">
	.st0{fill:url(#SVGID_1_);}
	.st1{fill:url(#SVGID_2_);}
	.st2{fill:url(#SVGID_3_);}
	.st3{fill:url(#SVGID_4_);}
	.st4{fill:url(#SVGID_5_);}
	.st5{fill:url(#SVGID_6_);}
	.st6{fill:url(#SVGID_7_);}
	.st7{fill:url(#SVGID_8_);}
	.st8{fill:url(#SVGID_9_);}
	.st9{fill:url(#SVGID_10_);}
	.st10{fill:url(#SVGID_11_);}
	.st11{fill:none;stroke:#204289;stroke-width:0.8625;stroke-miterlimit:10;}
</style>
<linearGradient id="SVGID_1_" gradientUnits="userSpaceOnUse" x1="47.7848" y1="96.2671" x2="47.7848" y2="25.6144" gradientTransform="matrix(1 0 0 1 0 -17.72)">
	<stop  offset="0" style="stop-color:#29398F"/>
	<stop  offset="1" style="stop-color:#3770B7"/>
</linearGradient>
<path class="st0" d="M37.6,62.8c5-0.2,9.7-0.8,13.8-4.1c2.2,6.3,4.3,12.3,6.6,18.5c-0.7-0.1-1.3-0.2-1.9-0.3c-2-0.3-3.9-0.7-5.9-0.9
	c-0.3-0.1-0.9,0.1-1.2,0.3c-1.6,1.6-3.3,3.1-5,4.7C42,75.1,39.8,69.1,37.6,62.8"/>
<linearGradient id="SVGID_2_" gradientUnits="userSpaceOnUse" x1="26.394" y1="96.2671" x2="26.394" y2="25.6144" gradientTransform="matrix(1 0 0 1 0 -17.72)">
	<stop  offset="0" style="stop-color:#29398F"/>
	<stop  offset="1" style="stop-color:#3770B7"/>
</linearGradient>
<path class="st1" d="M30,81.1c-1.6-1.6-3.3-3.1-4.8-4.7c-0.4-0.4-0.8-0.6-1.4-0.4c-2.5,0.4-4.9,0.9-7.6,1.3
	c2.2-6.2,4.3-12.2,6.6-18.5c4.1,3.2,8.7,4,13.8,4.1C34.2,69.1,32.1,75.1,30,81.1"/>
<linearGradient id="SVGID_3_" gradientUnits="userSpaceOnUse" x1="29.7579" y1="96.2671" x2="29.7579" y2="25.6152" gradientTransform="matrix(1 0 0 1 0 -17.72)">
	<stop  offset="0" style="stop-color:#29398F"/>
	<stop  offset="1" style="stop-color:#3770B7"/>
</linearGradient>
<polygon class="st2" points="26.5,39.2 26.5,28.2 33,28.2 33,30.9 29.6,30.9 29.6,32.4 32.7,32.4 32.7,34.8 29.6,34.9 29.6,36.6 
	33,36.6 33,39.2 "/>
<linearGradient id="SVGID_4_" gradientUnits="userSpaceOnUse" x1="21.3482" y1="96.2671" x2="21.3482" y2="25.6144" gradientTransform="matrix(1 0 0 1 0 -17.72)">
	<stop  offset="0" style="stop-color:#29398F"/>
	<stop  offset="1" style="stop-color:#3770B7"/>
</linearGradient>
<path class="st3" d="M21.7,28.2h-0.3h-4.2v11h3v-3.6h1.2h0.3c3.2,0,4-2.2,4-3.7C25.6,30.5,24.8,28.2,21.7,28.2 M21.5,33.2
	c-0.1,0-0.2,0-0.2,0H21h-0.9v-2.5H21c0.1,0,0.3,0,0.3,0c1,0.1,1.1,0.8,1.1,1.3C22.4,32.2,22.4,32.9,21.5,33.2"/>
<linearGradient id="SVGID_5_" gradientUnits="userSpaceOnUse" x1="48.173" y1="96.2671" x2="48.173" y2="25.617" gradientTransform="matrix(1 0 0 1 0 -17.72)">
	<stop  offset="0" style="stop-color:#29398F"/>
	<stop  offset="1" style="stop-color:#3770B7"/>
</linearGradient>
<path class="st4" d="M52.4,38.7c-0.9,0.7-2,0.9-2.9,0.9c-3.1,0-5.6-2.2-5.6-5.8c0-3.9,2.8-5.9,5.5-5.9c0.9,0,2.1,0.3,2.9,0.9V32
	c-0.4-0.5-1.3-1.3-2.6-1.3c-1.7,0-2.8,1.5-2.8,3.2c0,1.9,1.3,3,2.8,3c1.1,0,2-0.6,2.6-1.2L52.4,38.7L52.4,38.7z"/>
<linearGradient id="SVGID_6_" gradientUnits="userSpaceOnUse" x1="57.9627" y1="96.2671" x2="57.9627" y2="25.6135" gradientTransform="matrix(1 0 0 1 0 -17.72)">
	<stop  offset="0" style="stop-color:#29398F"/>
	<stop  offset="1" style="stop-color:#3770B7"/>
</linearGradient>
<path class="st5" d="M62.4,35.4c0-2.2-1.5-4.1-4.5-4.1c-3,0-4.5,1.8-4.5,4.1c0,2.3,1.5,4.1,4.5,4.1C61,39.5,62.4,37.7,62.4,35.4
	 M59.6,35.4c0,0.3,0,2.1-1.6,2.1s-1.6-1.8-1.6-2.1c0-1.2,0.5-2.1,1.6-2.1C59.1,33.4,59.6,34.2,59.6,35.4"/>
<linearGradient id="SVGID_7_" gradientUnits="userSpaceOnUse" x1="39.2026" y1="96.2671" x2="39.2026" y2="25.6152" gradientTransform="matrix(1 0 0 1 0 -17.72)">
	<stop  offset="0" style="stop-color:#29398F"/>
	<stop  offset="1" style="stop-color:#3770B7"/>
</linearGradient>
<path class="st6" d="M41,35.3c1.7-0.7,2.2-2.2,2.2-3.4c0-1.4-0.8-3.5-3.6-3.7c-0.2,0-0.3,0-0.4,0h-4.5v11h3v-3.6l0,0l1.1,1.7
	l1.2,1.9h3.7L41,35.3 M39.1,33.2c-0.1,0-0.2,0-0.2,0h-0.3h-0.9v-2.5h0.9c0.1,0,0.3,0,0.3,0c1,0.1,1.1,0.8,1.1,1.3
	C40.1,32.2,40,32.9,39.1,33.2"/>
<g>
	
		<linearGradient id="SVGID_8_" gradientUnits="userSpaceOnUse" x1="27.063" y1="28.3672" x2="42.8043" y2="78.6098" gradientTransform="matrix(1 0 0 -1 0 85)">
		<stop  offset="0" style="stop-color:#29398F"/>
		<stop  offset="1" style="stop-color:#3770B7"/>
	</linearGradient>
	<path class="st7" d="M37,18.1c-5.4,0-10.2,2.7-13.1,6.8h26.2C47.3,20.8,42.4,18.1,37,18.1z"/>
	
		<linearGradient id="SVGID_9_" gradientUnits="userSpaceOnUse" x1="32.147" y1="26.7744" x2="47.8882" y2="77.017" gradientTransform="matrix(1 0 0 -1 0 85)">
		<stop  offset="0" style="stop-color:#29398F"/>
		<stop  offset="1" style="stop-color:#3770B7"/>
	</linearGradient>
	<path class="st8" d="M37.1,50.2c5.8,0,10.8-3,13.5-7.6H23.5C26.3,47.1,31.3,50.2,37.1,50.2z"/>
	
		<linearGradient id="SVGID_10_" gradientUnits="userSpaceOnUse" x1="26.5942" y1="28.5141" x2="42.3355" y2="78.7567" gradientTransform="matrix(1 0 0 -1 0 85)">
		<stop  offset="0" style="stop-color:#29398F"/>
		<stop  offset="1" style="stop-color:#3770B7"/>
	</linearGradient>
	<path class="st9" d="M37,14.6c7.5,0,14,4.1,17.3,10.3h6.1c-0.1-0.5-0.2-1-0.2-1.6c0-0.7-0.1-1.4-0.2-2c-0.2-2.3-1.3-4.3-3.5-5
		c-3.7-1.2-6.6-3.4-8.9-6.5c-1-1.4-2.7-2-4.4-1.8c-0.9,0.1-1.9,0.3-2.8,0.6c-2.4,0.8-4.8,0.8-7.2,0c-0.9-0.3-1.9-0.4-2.3-0.5l0,0
		c-2.6,0-4.2,0.9-5.3,2.6c-1.9,2.7-4.4,4.4-7.5,5.4c-2.8,0.9-4.1,3-4.1,5.9c0,1-0.1,2.1-0.3,3h6.2C23.1,18.8,29.6,14.6,37,14.6z"/>
	
		<linearGradient id="SVGID_11_" gradientUnits="userSpaceOnUse" x1="32.5628" y1="26.6441" x2="48.304" y2="76.8867" gradientTransform="matrix(1 0 0 -1 0 85)">
		<stop  offset="0" style="stop-color:#29398F"/>
		<stop  offset="1" style="stop-color:#3770B7"/>
	</linearGradient>
	<path class="st10" d="M54.6,42.6c-3.1,6.6-9.8,11-17.6,11s-14.4-4.5-17.6-11h-6c0.3,1.2,0.5,2.5,0.5,3.9c0,2.6,1.2,4.8,3.8,5.6
		c3.5,1.1,6.2,3,8.3,6c0.3,0.4,0.7,0.7,1.1,1c1.3,0.9,2.8,1.3,4.3,0.9c0.9-0.2,1.7-0.3,2.6-0.6c2.1-0.7,4.1-0.7,6.2,0
		c0.6,0.2,1.2,0.3,1.8,0.5c2.4,0.6,4.6,0.1,6-1.9c2.2-3,4.9-5,8.5-6.1c2.2-0.7,3.3-2.5,3.5-4.7c0.1-0.7,0.2-1.4,0.2-2.1
		c0-0.9,0.1-1.7,0.3-2.5L54.6,42.6L54.6,42.6z"/>
</g>
<line class="st11" x1="69" y1="42.6" x2="5" y2="42.6"/>
<line class="st11" x1="5" y1="24.9" x2="69" y2="24.9"/>
</svg>
