<svg xmlns="http://www.w3.org/2000/svg" viewBox="0 0 74.213 84.747" enable-background="new 0 0 74.213 84.747" xmlns:xlink="http://www.w3.org/1999/xlink"><defs><linearGradient id="SVGID_1_" gradientUnits="userSpaceOnUse" y1="12.709" x2="0" y2="71.31"><stop stop-color="#3770b7"/><stop offset="1" stop-color="#29398f"/></linearGradient><linearGradient id="SVGID_2_" gradientUnits="userSpaceOnUse" y1="12.707" x2="0" y2="71.32"><stop stop-color="#d7d6d6"/><stop offset="1" stop-color="#959595"/></linearGradient><linearGradient id="SVGID_3_" gradientUnits="userSpaceOnUse" y1="12.71" x2="0" y2="71.31" xlink:href="#SVGID_2_"/></defs><path fill-rule="evenodd" fill="url(#SVGID_1_)" d="m51.35 43.1c-1.104-.301-2.242-.512-3.301-.926-1.74-.682-2.658-.51-3.846.936-5.9 7.188-11.835 14.344-18.273 21.07-.801.834-1.617 1.656-2.457 2.449-2.301 2.172-5.887 2.125-8.121-.084-2.207-2.182-2.391-5.846-.166-8.05 3.303-3.268 6.688-6.463 10.18-9.527 4.416-3.877 8.967-7.596 13.47-11.373 1.318-1.105 1.594-2.107.873-3.666-.859-1.859-.992-3.77-.453-5.727.391-1.424 1.113-2.664 2.301-3.566 2.203-1.674 4.555-3.119 7.117-4.18.553-.229 1.178-.371 1.771-.383.791-.016 1.115.635.729 1.328-.123.223-.307.416-.488.6-1.029 1.041-2.072 2.066-3.098 3.109-2.111 2.146-2.127 5.275-.039 7.428.609.627 1.221 1.252 1.855 1.85 2.105 1.988 5.191 1.975 7.275-.037 1.068-1.031 2.104-2.1 3.162-3.146.199-.197.412-.396.656-.529.641-.354 1.205-.088 1.289.637.043.385.004.814-.129 1.174-1.109 3.045-2.74 5.811-4.84 8.256-1.377 1.605-3.332 2.146-5.418 2.184-.014.057-.032.115-.049.172"/><path fill-rule="evenodd" fill="url(#SVGID_2_)" d="m43.44 47.7c4.582 3.232 8.916 6.637 12.664 10.736 2.109 2.309 2.086 5.816-.094 7.992-2.182 2.182-5.682 2.186-7.99.074-3.801-3.475-7-7.457-9.986-11.629-.117-.164-.139-.564-.023-.705 1.787-2.164 3.603-4.302 5.429-6.468"/><path fill-rule="evenodd" fill="url(#SVGID_3_)" d="m12.412 26.18c1.127-1.125 2.209-2.207 3.361-3.359 1.131.652 2.35 1.354 3.568 2.059 1.244.721 2.482 1.449 3.736 2.156.373.211.59.438.607.918.035.988.141 1.977.268 2.957.031.244.219.502.404.688 2.525 2.547 5.061 5.084 7.605 7.611.182.18.453.268.75.436-1.338 1.123-2.436 2.045-3.775 3.168-.131-.242-.207-.52-.385-.697-2.426-2.447-4.859-4.887-7.313-7.305-.24-.236-.619-.404-.955-.453-.957-.135-1.926-.18-2.885-.295-.205-.023-.479-.141-.572-.301-1.494-2.538-2.967-5.089-4.414-7.583"/></svg>