<?xml version="1.0" encoding="utf-8"?>
<!-- Generator: Adobe Illustrator 23.0.6, SVG Export Plug-In . SVG Version: 6.00 Build 0)  -->
<svg version="1.1" id="Layer_1" xmlns="http://www.w3.org/2000/svg" xmlns:xlink="http://www.w3.org/1999/xlink" x="0px" y="0px"
	 viewBox="0 0 20 20" style="enable-background:new 0 0 20 20;" xml:space="preserve">
<style type="text/css">
	.st0{fill:#6A391E;}
	.st1{fill:#FFCD08;}
	.st2{fill:#040403;}
	.st3{fill:#FAF7F6;}
	.st4{fill:#221610;}
	.st5{fill:#E05F24;}
	.st6{fill:#6D6B6A;}
	.st7{fill:#242323;}
	.st8{fill:#040303;}
	.st9{fill:#070606;}
	.st10{fill:#FEFDFD;}
	.st11{fill:#0E0B01;}
	.st12{fill:#060502;}
	.st13{fill:#191503;}
	.st14{fill:#1A1603;}
	.st15{fill:#0C0A02;}
	.st16{fill:#191917;}
	.st17{fill:#362D0B;}
	.st18{fill:#EDECEB;}
	.st19{fill:#0D0C0A;}
	.st20{fill:#CDCDCD;}
	.st21{fill:#272622;}
	.st22{fill:#170F0A;}
	.st23{fill:#E06629;}
	.st24{fill:#ACACAC;}
	.st25{fill:#9D9C9D;}
	.st26{fill:#A3A2A2;}
	.st27{fill:#4E3D32;}
	.st28{fill:#89766B;}
</style>
<g>
	<path class="st0" d="M14.9,1c0,0.3,0.4,0.2,0.5,0.4c0.1,0.1,0.1,0.3,0,0.4s-0.2,0-0.3-0.1c-0.3-0.2-0.5-0.3-0.3-0.7
		C14.8,1,14.8,1,14.9,1z"/>
	<path class="st1" d="M3.1,12.6c0.2,0,0.3-0.1,0.5-0.1c-0.3-1,0.3-2.1-0.5-2.9c0-1,0.1-1.9,0-2.9c0-0.4,0.1-0.6,0.6-0.6
		c2.3,0,4.5,0,6.8,0c-0.3,2-0.1,4,0.1,5.9c0,0.4-0.2,0.7-0.4,1.1c0.2,0.1,0.4,0,0.7,0.1c0.1,0,0.2,0,0.2,0c1.2,0,1.2,0,1.4-1.3
		c0.1-0.9,0.5-1.8,0.8-2.7c0-0.2,0.1-0.3,0.3-0.3s0.3,0.2,0.4,0.3c0.2,0.4,0.3,0.9,0.4,1.3c0,0.1,0,0.1-0.1,0.2
		c-0.2,0.1-0.3,0.3-0.2,0.5c0,0.1,0,0.1,0,0.2c0,0.4,0.2,0.8,0.2,1.2c-0.1,0.2-0.4,0.4,0.1,0.5c0.3,0,0.6,0,1,0c0.2,0,0.3,0,0.5,0
		c0.6,0.1,1.2,0,1.8,0c0.3,0,0.7-0.1,0.9,0.3c-0.5,0-1.1,0.1-1.6,0c-0.6,0-0.8,0.2-0.7,0.7c-0.2,0.4,0.2,0.7,0.2,1.1
		c-0.1,0.4,0,0.8-0.1,1.2c0,0.2-0.1,0.3-0.2,0.4c-0.2,0.2-0.1,0.4,0.1,0.4c0,0,0,0,0,0.1s0,0.1-0.1,0.1c0.1,0.9-0.3,1-1.1,1
		c-3.8,0-7.6,0-11.5,0c-0.6,0-0.8-0.1-0.7-0.7C3.1,16,3.1,14.3,3.1,12.6z"/>
	<path class="st2" d="M11.1,13.4c-0.5,0-0.9,0-1.5,0c0.9-0.6,0.8-1.4,0.7-2.3c-0.3-1.7-0.6-3.4,0.2-5c0.9-1.2,1.6-1.5,2.7-1.2
		c0.2,0.2,0.5,0,0.8,0.2s0.6,0.3,0.6,0.6c0,0.1-0.1,0.2-0.2,0.3c-0.4,0.4-0.7,0.2-1.1,0c-0.9-0.1-1.3,0.2-1.4,1.1
		c-0.1,0.5,0,1.1,0,1.6c0,0.6-0.1,1.3-0.6,1.7c-0.4,0.3-0.1,0.6,0,0.9C11.5,12.1,11.7,12.8,11.1,13.4z"/>
	<path class="st3" d="M14.5,5.8c-0.2-0.2-0.4-0.4-0.6-0.5c-0.2-0.3,0-0.5,0.1-0.7s0.2-0.4,0.3-0.6c0-0.3,0.1-0.5,0.3-0.7
		C14.7,3.1,14.8,3,15,2.9c0.5,0.1,0.7,0.4,0.8,0.8c0.1,1,0.1,1.9,0,2.9c0,0.3-0.1,0.6-0.3,0.9c-0.1,0.1-0.2,0.1-0.3,0.1
		C14.8,7.1,14.9,6.3,14.5,5.8z"/>
	<path class="st4" d="M15.1,1.6c0.3,0.2,0.4,0,0.3-0.2c1.1,0.3,1.8,0.9,1.6,2.2c-0.3,0.2-0.5,0.2-0.8,0c-0.1-0.3,0.2-0.3,0.3-0.5
		c-0.5,0.1-0.9,0.3-1.3-0.2C15.3,2.5,15.2,2.1,15.1,1.6z"/>
	<path class="st5" d="M15.2,2.9c0.3,0,0.7,0.4,1,0c0.1-0.2,0.3-0.4,0.5-0.1c0.1,0.1,0.2,0.3,0.2,0.4c-0.1,0.3-0.4,0.3-0.6,0.2
		c-0.2,0.1-0.3,0.2-0.5,0.2C15.7,3.3,15.4,3.1,15.2,2.9C15.1,2.9,15.1,2.9,15.2,2.9z"/>
	<path class="st6" d="M14.7,3.3c-0.1,0.2-0.1,0.5-0.3,0.7C14.2,3.6,14.2,3.4,14.7,3.3z"/>
	<path class="st7" d="M14,4.6c0,0.2-0.3,0.4-0.2,0.7c-0.2-0.1-0.5-0.1-0.7-0.3C13.6,5.1,13.8,4.7,14,4.6z"/>
	<path class="st8" d="M15.7,3.6c0.1-0.2,0.2-0.5,0.5-0.2c0.2,0.3,0.5,0.1,0.8,0.2c1.1,2.4,1.6,5,1,7.6c-0.2,0.7-0.1,1.4,0.7,1.8
		c0.2,0.1,0.4,0.3,0,0.4c-0.7,0-1.4,0-2.1,0c-0.2,0-0.6,0.1-0.7-0.2c0.1-0.1,0.2-0.2,0.3-0.3c1-0.6,1.2-1,0.6-2.1
		c-0.2-0.4-0.4-0.7-0.3-1.2c0-0.2,0-0.3,0-0.5c0-0.1-0.2,0-0.1,0c0.1,0.2,0,0.4,0,0.6c0,0.2,0,0.5-0.3,0.5c-0.2,0.1-0.4-0.1-0.5-0.3
		c-0.5-0.6-0.6-1.8-0.2-2.5C16,6.3,15.7,5,15.7,3.6z"/>
	<path class="st9" d="M3.7,12.2c-0.1-0.6,0-1.3-0.1-1.9c0-0.4-0.2-0.7-0.6-0.8C2.3,9.2,1.5,9.2,0.8,9.4c-0.3,0.1-0.6,0.4-0.6,0.7
		c0,0.4,0.4,0.2,0.6,0.3c0.4,0.1,0.6-0.2,0.9-0.3C1.9,10,2.2,10,2.3,10.3l-1.1,0.4c0,0,0,0-0.1,0c0,0,0,0,0,0
		C0.8,10.9,0.4,11,0,11.1c0,0.3,0,0.7,0,1c0.4,0.3,0.8,0.7,1.4,0.5c0.6-0.2,1.1-0.2,1.7,0C3.5,12.7,3.8,12.6,3.7,12.2z M2.3,11.3
		c-0.1,0.3-0.3,0.5-0.7,0.5c-0.2,0-0.3-0.1-0.3-0.3c0.1-0.4,0.5-0.3,0.8-0.4C2.4,11,2.3,11.2,2.3,11.3z"/>
	<path class="st10" d="M15.4,7.6c0,0.8-0.1,1.5,0.2,2.3c0.1,0.2,0.2,0.5,0.5,0.5s0.2-0.4,0.3-0.6h0.1c0,0.4,0.3,0.7,0.5,1.1
		c0.6,1.2,0.2,2.1-1.2,2.4c-0.1,0-0.1,0.1-0.2,0.1c-0.4-0.6-0.6-1.3-0.9-2c-0.1-0.3-0.2-0.5-0.3-0.7c-0.2-0.5-0.3-1-0.5-1.5
		c0-0.1-0.1-0.3-0.3-0.2c-0.1,0-0.1,0.2-0.2,0.3c-0.2,1.1-0.8,2.1-0.8,3.2c0,0.5-0.2,1.1-1,0.7c-0.1-0.1-0.4,0.1-0.5,0.1
		c-0.1-0.4,0.3-0.7,0.2-1.2c-0.2-0.7-0.7-1.4,0.2-2.2c0.5-0.4,0.3-1.3,0.3-2c0-0.5-0.1-1,0.1-1.5c0.3-0.7,0.8-0.9,1.6-0.6
		c0.4,0.2,0.4,0.7,0.5,1c0.1,0.4,0.4,0.7,0.5,1c0.1,0.2,0.1,0.4,0.2,0.5c0,0.1,0,0.1,0,0.2c0-0.1,0-0.2,0-0.2c0-0.1,0-0.1,0-0.2
		c0.1-0.3,0.2-0.6,0.5-0.7C15.3,7.6,15.3,7.6,15.4,7.6z"/>
	<path class="st11" d="M15.5,15.9c0,0.2,0,0.3,0,0.5c0,1.1,0,1.2-1.2,0.8c-0.2-0.1-0.3,0.1-0.5,0.2c-1,0.4-1.6,0-1.7-1
		c0-0.4,0-0.9,0-1.3c0-0.5,0.1-0.7,0.7-0.7c0.7,0,0.6,0.4,0.6,0.8c0,0.3,0,0.7,0,1c0,0.2,0.1,0.4,0.4,0.5c0.3,0,0.4-0.2,0.5-0.5
		c0-0.4,0-0.7,0-1.1c0-0.5,0-0.7,0.6-0.7s0.7,0.2,0.7,0.7C15.5,15.3,15.5,15.6,15.5,15.9z"/>
	<path class="st11" d="M8.2,15.8c0-0.4,0-0.8,0-1.2c0-0.2,0.1-0.4,0.3-0.4c0.8,0.1,1.5,0,2.2,0c0.4,0,0.7,0.3,0.8,0.8
		c0.1,0.7,0.1,1.3,0.1,2c0,0.6-0.4,0.4-0.7,0.4s-0.6,0-0.6-0.5c0-0.4,0-0.8,0-1.2c0-0.2-0.1-0.5-0.3-0.5c-0.3,0-0.4,0.2-0.5,0.5
		c0,0.3,0,0.6,0,0.9c0,0.4,0.1,0.8-0.6,0.8c-0.7,0-0.7-0.4-0.6-0.8C8.2,16.3,8.2,16.1,8.2,15.8z"/>
	<path class="st12" d="M7.6,8.3c0.2,0.4-0.3,1.1,0.6,1.1c0.1,0,0.3,0.6-0.1,0.9c-0.6,0.4-0.6,1,0,1.4c0.3,0.1,0.2,0.4,0.2,0.5
		c0,0.3-0.2,0.3-0.4,0.3c-1.1,0.2-1.5-0.2-1.5-1.2c0-0.4,0.2-0.9-0.4-1.1c-0.2-0.1-0.2-0.5,0-0.7C6.5,9.1,6.7,8.3,7.6,8.3z"/>
	<path class="st13" d="M5.5,10.5c0,0.5,0,0.9,0,1.4s-0.1,0.7-0.6,0.7s-0.7-0.2-0.6-0.7c0-1,0-2.1,0-3.1c0-0.5,0.3-0.6,0.7-0.6
		c0.4,0,0.6,0.1,0.6,0.5C5.4,9.3,5.5,9.9,5.5,10.5z"/>
	<path class="st14" d="M5.5,15.2c0,0.5,0,0.9,0,1.4s0,0.8-0.6,0.8c-0.7,0-0.6-0.3-0.6-0.8c0-1,0-2,0-3c0-0.5,0.2-0.6,0.6-0.6
		c0.5,0,0.6,0.1,0.6,0.6C5.4,14.2,5.5,14.7,5.5,15.2z"/>
	<path class="st15" d="M7.5,15.9c0,0.3,0,0.5,0,0.8c0,0.4,0,0.7-0.6,0.7s-0.6-0.2-0.6-0.7c0-0.6,0-1.2,0-1.8c0-0.4,0-0.7,0.5-0.7
		s0.7,0.1,0.7,0.6C7.4,15.2,7.5,15.5,7.5,15.9z"/>
	<path class="st16" d="M14.4,10.7c0.3,0,0.7,0.1,0.5,0.6c0,0.2-0.1,0.3,0.1,0.5c0.5,0.4,0.6,1,0.6,1.6c-0.4,0-0.8,0.1-1.2,0
		c-0.2,0-0.5,0.1-0.5-0.2s0.2-0.5,0.5-0.4c0.1,0,0.3,0.1,0.4,0.1c-0.1-0.4-0.3-0.9-0.4-1.3c0-0.2,0.1-0.4,0-0.6S14.3,10.8,14.4,10.7
		L14.4,10.7z"/>
	<path class="st17" d="M6.9,14c-0.3,0-0.6,0-0.6-0.4c0-0.5,0.3-0.5,0.6-0.5c0.3,0,0.6,0,0.6,0.4C7.5,14,7.2,14,6.9,14z"/>
	<path class="st18" d="M14.4,11.4c0.5,0.4,0.3,1.1,0.8,1.6c-0.4,0-0.7,0.3-0.8-0.3c-0.2-0.4-0.4-0.8-0.3-1.3
		C14.2,11.3,14.3,11.3,14.4,11.4z"/>
	<path class="st19" d="M19.8,14.3c-0.9-0.2-1.6-0.1-2,0.8c-0.2-1-0.8-0.9-1.4-0.9c-0.9,0.4,0.2,0.6,0.1,0.9c0.6,0.5,0.5,0.9,0,1.3
		c0.1,0.4-1,0.7,0,1c0.8,0.1,1.1-0.4,1.4-0.9c0.7,1,0.9,1.1,2,0.7C18.7,16.3,18.6,15.3,19.8,14.3z"/>
	<path class="st20" d="M14.4,11.4c-0.1,0-0.2,0-0.3,0v-0.1c0-0.2,0-0.4,0.3-0.4c0.1,0.1,0.3,0,0.3,0.2
		C14.7,11.2,14.6,11.3,14.4,11.4z"/>
	<path class="st21" d="M14.4,10.8c-0.2,0-0.2,0.3-0.3,0.4c-0.2-0.1-0.2-0.3-0.2-0.4c0.1-0.2,0.3-0.2,0.5-0.1
		C14.4,10.8,14.4,10.8,14.4,10.8z"/>
	<path class="st22" d="M15.2,7.6c-0.1,0.2-0.2,0.5-0.4,0.8c-0.3,0.1-0.3-0.3-0.5-0.3c-0.2-0.3-0.5-0.6-0.5-1c-0.1-0.2,0-0.4,0.2-0.4
		c0.7-0.1,0.3-0.5,0.3-0.8c0.1,0,0.1-0.1,0.2-0.1C15.2,6.2,15.3,6.9,15.2,7.6z"/>
	<path class="st23" d="M14.4,5.9c0.3,0.2,0.6,0.4,0.5,0.8c-0.1,0.5-0.5,0-0.7,0.1S14,7,13.9,7.1c-0.2-0.4-0.1-0.8-0.4-1.2
		C13.8,6.1,14.1,6.3,14.4,5.9z"/>
	<path class="st24" d="M10.8,10.1c0-0.3,0-0.5,0-0.8h0.1C10.9,9.6,10.9,9.8,10.8,10.1L10.8,10.1z"/>
	<path class="st25" d="M16.7,7.8c0,0.3,0,0.5-0.3,0.7C16.4,8.2,16.5,8,16.7,7.8z"/>
	<path class="st26" d="M16.5,9.7L16.5,9.7C16.4,9.8,16.4,9.7,16.5,9.7c-0.2-0.3-0.2-0.5-0.1-0.8C16.6,9.2,16.5,9.5,16.5,9.7z"/>
	<path class="st27" d="M14.4,8.1c0.4-0.3,0.3,0.3,0.5,0.3c0,0.1,0,0.1,0,0.2c-0.1,0.1-0.2,0.1-0.3,0C14.5,8.4,14.4,8.2,14.4,8.1z"/>
	<path class="st28" d="M14.6,8.6c0.1,0,0.2,0,0.3,0c-0.1,0.2-0.1,0.4-0.2,0.6h-0.1C14.6,8.9,14.6,8.7,14.6,8.6z"/>
</g>
</svg>
