<?xml version="1.0" encoding="utf-8"?>
<!-- Generator: Adobe Illustrator 23.0.3, SVG Export Plug-In . SVG Version: 6.00 Build 0)  -->
<svg version="1.1" id="Слой_1" xmlns="http://www.w3.org/2000/svg" xmlns:xlink="http://www.w3.org/1999/xlink" x="0px" y="0px"
	 viewBox="0 0 99.9 97.4" style="enable-background:new 0 0 99.9 97.4;" xml:space="preserve">
<style type="text/css">
	.st0{fill:#AAC147;}
</style>
<g>
	<path class="st0" d="M74.6,32.2H25.2c-1.1,0-2,0.9-2,2v41.4c0,1.1,0.9,2,2,2H34v14c0,3.2,2.6,5.9,5.9,5.9l0,0
		c3.2,0,5.9-2.6,5.9-5.9v-14h8.2v14c0,3.2,2.6,5.9,5.9,5.9l0,0c3.2,0,5.9-2.6,5.9-5.9v-14h8.9c1.1,0,2-0.9,2-2V34.1
		C76.6,33,75.7,32.2,74.6,32.2z"/>
	<path class="st0" d="M14.8,32.1L14.8,32.1C11.6,32.1,9,34.8,9,38v23.8c0,3.2,2.6,5.9,5.9,5.9l0,0c3.2,0,5.9-2.6,5.9-5.9V38
		C20.7,34.8,18.1,32.1,14.8,32.1z"/>
	<path class="st0" d="M85,32.1L85,32.1c-3.2,0-5.9,2.6-5.9,5.9v23.8c0,3.2,2.6,5.9,5.9,5.9l0,0c3.2,0,5.9-2.6,5.9-5.9V38
		C90.8,34.8,88.2,32.1,85,32.1z"/>
	<path class="st0" d="M25.6,29.3h48.5c1.3,0,2.2-1.2,1.9-2.4C74.4,19.2,69.6,12.8,63,9l4.1-7.5c0.3-0.5,0.1-1.1-0.4-1.4
		c-0.5-0.3-1.1-0.1-1.4,0.4l-4.2,7.5c-3.4-1.6-7.2-2.5-11.3-2.5c-4,0-7.8,0.9-11.3,2.5l-4.2-7.5C34.1,0,33.5-0.1,33,0.1
		c-0.5,0.3-0.7,0.9-0.4,1.4L36.7,9c-6.6,3.7-11.5,10.2-13.1,17.8C23.4,28.1,24.3,29.3,25.6,29.3z M64.3,18.1c0,1.2-1,2.3-2.3,2.3
		c-1.2,0-2.3-1-2.3-2.3c0-1.2,1-2.3,2.3-2.3S64.3,16.9,64.3,18.1z M37.6,15.8c1.2,0,2.3,1,2.3,2.3c0,1.2-1,2.3-2.3,2.3
		c-1.2,0-2.3-1-2.3-2.3C35.4,16.9,36.4,15.8,37.6,15.8z"/>
</g>
</svg>
