<?xml version="1.0" encoding="utf-8"?>
<!-- Generator: Adobe Illustrator 23.0.3, SVG Export Plug-In . SVG Version: 6.00 Build 0)  -->
<svg version="1.1" id="Слой_1" xmlns="http://www.w3.org/2000/svg" xmlns:xlink="http://www.w3.org/1999/xlink" x="0px" y="0px"
	 viewBox="0 0 99.9 97.4" style="enable-background:new 0 0 99.9 97.4;" xml:space="preserve">
<style type="text/css">
	.st0{fill:#B6BEC4;}
</style>
<g>
	<path class="st0" d="M89.3,71.6c-15.9-7-17.8-28.6-2.6-38.3c0-0.1,0-0.2-0.1-0.2c-0.1-0.2-0.2-0.3-0.3-0.4
		c-5.2-6.7-12.2-9.4-20.5-9c-3.5,0.2-6.8,1.4-9.9,2.9c-3.9,1.9-7.7,1.9-11.5-0.1c-0.2-0.1-0.4-0.2-0.6-0.3c-4-1.7-8.1-2.9-12.5-2.1
		c-7.8,1.3-13.7,5.6-17.5,12.5c-4,7.3-4.5,15.1-3.3,23.1c1.8,12.4,6.9,23.3,15.3,32.7c1.8,2.1,4,3.8,6.7,4.6c3.2,1,6.3,0.3,9.2-1.1
		c6.2-2.9,12.3-3.3,18.7-0.4c1.9,0.9,4,1.5,6,1.7c4.7,0.5,8.4-1.8,11.2-5.3C79.9,89,82,86,84,83C86.3,79.5,88.1,75.6,89.3,71.6z
		 M69.1,0c-0.3,0-0.5,0-0.7,0c-9.6,0.9-18.4,10.2-18.9,19.8c-0.1,2.8-0.1,2.8,2.8,2.5c0.4,0,0.8-0.1,1.1-0.2c5.8-1.4,10.1-4.8,13-10
		C68.4,8.5,69.5,4.5,69.1,0z"/>
	<path class="st0" d="M89.3,71.6c-1.2,4.1-3,7.9-5.3,11.5c-2,3-4.1,6-6.4,8.8c-2.9,3.5-6.5,5.8-11.2,5.3c-2-0.2-4.1-0.8-6-1.7
		c-6.3-2.9-12.5-2.6-18.7,0.4c-2.9,1.4-6,2.1-9.2,1.1c-2.7-0.8-4.8-2.6-6.7-4.6C17.6,82.9,12.4,72,10.6,59.6
		c-1.1-8-0.7-15.8,3.3-23.1c3.8-6.9,9.6-11.2,17.5-12.5c4.4-0.7,8.5,0.4,12.5,2.1c0.2,0.1,0.4,0.2,0.6,0.3c3.8,2,7.6,2,11.5,0.1
		c3.1-1.5,6.4-2.7,9.9-2.9c8.3-0.4,15.3,2.2,20.5,9c0.1,0.1,0.2,0.3,0.3,0.4c0,0.1,0,0.2,0.1,0.2C71.5,43,73.4,64.6,89.3,71.6z"/>
	<path class="st0" d="M69.1,0c0.4,4.5-0.7,8.5-2.7,12.2c-2.9,5.2-7.2,8.6-13,10c-0.4,0.1-0.8,0.1-1.1,0.2c-2.9,0.3-2.9,0.3-2.8-2.5
		C49.9,10.2,58.7,0.9,68.4,0C68.6,0,68.8,0,69.1,0z"/>
</g>
</svg>
