<?xml version="1.0" encoding="utf-8"?>
<!-- Generator: Adobe Illustrator 21.0.2, SVG Export Plug-In . SVG Version: 6.00 Build 0)  -->
<svg version="1.1" id="Слой_1" xmlns="http://www.w3.org/2000/svg" xmlns:xlink="http://www.w3.org/1999/xlink" x="0px" y="0px"
	 viewBox="0 0 71 70" style="enable-background:new 0 0 71 70;" xml:space="preserve">
<style type="text/css">
	.st0{fill:url(#SVGID_1_);}
	.st1{fill:#FFFFFF;}
</style>
<g>
	
		<linearGradient id="SVGID_1_" gradientUnits="userSpaceOnUse" x1="0.5" y1="152.1" x2="70.5" y2="152.1" gradientTransform="matrix(1 0 0 1 0 -117)">
		<stop  offset="0" style="stop-color:#12397F"/>
		<stop  offset="1" style="stop-color:#3F8DED"/>
	</linearGradient>
	<path class="st0" d="M70.5,59.9c0,5.3-4.1,9.7-9.1,9.7H9.6c-5,0-9.1-4.3-9.1-9.7V10.2c0-5.3,4.1-9.6,9.1-9.6h51.8
		c5,0,9.1,4.3,9.1,9.7V59.9L70.5,59.9L70.5,59.9z"/>
	<path class="st1" d="M61.4,70H9.6C4.3,70,0,65.4,0,59.9V10.2C0,4.6,4.3,0,9.6,0h51.8C66.7,0,71,4.6,71,10.2v49.7
		C71,65.4,66.7,70,61.4,70z M9.6,1C4.9,1,1,5.1,1,10.2v49.7c0,5,3.9,9.2,8.6,9.2h51.8c4.7,0,8.6-4.1,8.6-9.2V10.2
		c0-5-3.9-9.1-8.6-9.1L9.6,1L9.6,1z"/>
</g>
<polygon class="st1" points="31.1,12 28.8,5.3 26.6,12 27.9,12 27.9,43.2 29.8,43.2 29.8,12 "/>
<polygon class="st1" points="10.1,57.5 6.9,63.8 13.2,60.7 12.3,59.8 29.7,42.4 28.3,41 10.9,58.4 "/>
<polygon class="st1" points="59.5,44.5 66.1,42.3 59.5,40 59.5,41.3 28.3,41.3 28.3,43.3 59.5,43.3 "/>
<path class="st1" d="M53,42H28.3V17.3H53V42z M29.3,41H52V18.3H29.3V41z"/>
<path class="st1" d="M43.4,51.8H18.7V27.2h24.7V51.8z M19.7,50.8h22.7V28.2H19.7V50.8z"/>
<rect x="40.9" y="22.2" transform="matrix(0.6993 -0.7149 0.7149 0.6993 -1.8744 40.9363)" class="st1" width="13.7" height="1"/>
<rect x="17.2" y="22.2" transform="matrix(0.7129 -0.7012 0.7012 0.7129 -8.9984 23.4787)" class="st1" width="14" height="1"/>
<rect x="41.1" y="46.3" transform="matrix(0.7283 -0.6853 0.6853 0.7283 -19.1255 45.4124)" class="st1" width="13.2" height="1"/>
</svg>
