<svg xmlns="http://www.w3.org/2000/svg" viewBox="282.14 0 31 31" enable-background="new 282.14 0 31 31">
 <defs>
  <linearGradient id="SVGID_1_" gradientUnits="userSpaceOnUse" x1="283.38" y1="13.989" x2="311.27" y2="16.95">
   <stop stop-color="#0e3e84"/>
   <stop offset="1" stop-color="#3f8ded"/>
  </linearGradient>
 </defs>
 <path fill="url(#SVGID_1_)" d="m313.14 18.823v-6.646l-4.958-.558c-.14-.325-.231-.604-.37-.883l3.104-3.904-4.633-4.648-3.847 3.068c-.324-.14-.648-.279-.974-.418l-.555-4.834h-6.58l-.556 4.741c-.371.093-.695.279-1.066.418l-3.707-2.928-4.634 4.647 2.873 3.672c-.185.372-.324.744-.463 1.116l-4.634.558v6.507l4.634.557c.139.372.278.744.463 1.116l-2.873 3.718 4.634 4.647 3.753-2.975c.324.186.649.279 1.02.419l.556 4.787h6.58l.556-4.926c.325-.093.649-.233.928-.372l3.893 3.114 4.633-4.648-3.15-3.951c.139-.279.277-.558.371-.836l5-.558m-15.5 3.555c-3.788 0-6.858-3.08-6.858-6.878s3.07-6.878 6.858-6.878c3.787 0 6.857 3.08 6.857 6.878s-3.07 6.878-6.857 6.878"/>
</svg>
