<?xml version="1.0" encoding="utf-8"?>
<!-- Generator: Adobe Illustrator 23.0.3, SVG Export Plug-In . SVG Version: 6.00 Build 0)  -->
<svg version="1.1" id="Слой_1" xmlns="http://www.w3.org/2000/svg" xmlns:xlink="http://www.w3.org/1999/xlink" x="0px" y="0px"
	 viewBox="0 0 99.9 97.4" style="enable-background:new 0 0 99.9 97.4;" xml:space="preserve">
<style type="text/css">
	.st0{fill:#81C142;}
	.st1{fill:#050604;}
	.st2{fill:#FDFEFC;}
</style>
<g>
	<g>
		<path class="st0" d="M98.9,52.3c-0.1,1.4-0.1,2.4-0.3,3.5c-0.2,1.7-0.5,3.3-0.9,4.9c-0.5,1.9-1.1,3.7-1.8,5.6
			c-0.6,1.6-1.3,3.2-2.1,4.7c-1,1.9-2.1,3.7-3.3,5.4c-1.4,2-2.8,3.8-4.5,5.6c-2.3,2.4-4.8,4.5-7.5,6.5c-2,1.4-4,2.7-6.2,3.7
			c-1.4,0.7-2.9,1.4-4.4,2c-1,0.4-2,0.8-3.1,1.1c-1,0.3-2.1,0.6-3.1,0.8c-0.9,0.2-1.9,0.4-2.8,0.6c-1.4,0.3-2.8,0.5-4.2,0.5
			c-0.8,0-1.6,0.2-2.4,0.3c-1.5,0-3,0-4.5,0c-0.1-0.2-0.4-0.2-0.6-0.2c-1.9-0.2-3.9-0.3-5.8-0.7c-2.1-0.4-4.2-1-6.3-1.7
			c-1.5-0.5-3-1-4.4-1.7c-2.4-1.1-4.7-2.3-6.9-3.8c-2.3-1.5-4.4-3.2-6.4-5c-2.5-2.3-4.7-4.9-6.6-7.6c-1.1-1.5-2-3-2.9-4.7
			c-0.9-1.6-1.6-3.3-2.4-5c-0.9-2-1.6-4.1-2.1-6.2c-0.4-1.4-0.7-2.9-0.9-4.4C2.3,54.7,2,52.8,2,50.9c-0.1-2.7-0.1-5.3,0.3-8
			c0.3-1.8,0.5-3.5,1-5.2c0.3-1.2,0.6-2.4,1-3.6c0.7-2.1,1.5-4.2,2.5-6.3c1-2.2,2.3-4.2,3.6-6.2c1-1.5,2.1-3,3.3-4.3
			c2-2.3,4.2-4.5,6.6-6.4c2.5-2,5.1-3.7,7.9-5.1c1.8-0.9,3.6-1.7,5.5-2.4c1.3-0.5,2.6-0.9,3.9-1.3c0.9-0.3,1.8-0.5,2.7-0.7
			c1-0.2,2.1-0.4,3.1-0.5c1.7-0.2,3.4-0.5,5.1-0.5c2.7-0.1,5.4-0.1,8,0.3c1,0.1,2,0.2,3,0.5C60.7,1.4,62,1.6,63.3,2
			c1,0.3,2.1,0.6,3.2,1c2,0.8,4.1,1.6,6,2.6c1.5,0.8,2.9,1.6,4.3,2.4c1.1,0.7,2.1,1.4,3.1,2.2c2.6,2,5,4.2,7.2,6.7
			c1,1.1,1.7,2.3,2.6,3.4c1.2,1.4,2.1,3,3,4.6c0.8,1.3,1.4,2.6,2,4c0.7,1.6,1.4,3.2,1.9,4.9c0.1,0.4,0.2,0.9,0.4,1.3
			c0.2,0.7,0.5,1.4,0.6,2.1c0.2,0.9,0.4,1.8,0.6,2.7C99.1,47.3,99,50,98.9,52.3z M11.9,31.7c-0.2,0.1-0.4,0.3-0.4,0.6
			c-0.1,0.5-0.4,0.9-0.5,1.3c-0.7,1.8-1.3,3.7-1.7,5.6c-0.4,1.7-0.6,3.5-0.9,5.3C7.9,48,8,51.4,8.5,54.9c0.3,2.7,1,5.4,1.9,7.9
			c0.8,2.3,1.8,4.6,3,6.8c1.3,2.3,2.8,4.5,4.5,6.5c1.8,2.2,3.8,4.1,6,5.9c2.3,1.9,4.8,3.4,7.4,4.8c1.7,0.9,3.5,1.7,5.4,2.3
			c1.6,0.5,3.2,1,4.9,1.3c2.5,0.5,5,0.8,7.5,1c3.1,0.2,6.1-0.2,9.2-0.7c1.8-0.3,3.5-0.7,5.2-1.3c1.5-0.5,3-1.1,4.5-1.7
			c1.9-0.8,3.6-1.8,5.3-2.8c2.8-1.7,5.3-3.8,7.6-6.1c2.2-2.2,4.1-4.6,5.8-7.3c1.1-1.7,2-3.5,2.8-5.4c0.7-1.5,1.3-3,1.8-4.6
			c0.6-1.8,1-3.7,1.3-5.5c0.3-1.9,0.5-3.9,0.6-5.8c0.1-1.9-0.1-3.9-0.3-5.8c-0.3-2.8-0.9-5.5-1.7-8.2c-0.5-1.7-1.2-3.4-1.9-5
			c-1-2.1-2.1-4.1-3.4-6.1c-2.2-3.1-4.6-6-7.5-8.5c-1.6-1.4-3.3-2.6-5.1-3.8c-1.7-1.1-3.5-2-5.4-2.8c-1.5-0.7-3-1.3-4.6-1.7
			c-1.9-0.6-3.8-1-5.7-1.3c-2-0.3-4-0.5-6.1-0.6c-1.9-0.1-3.7,0.1-5.6,0.3C43.5,7,41.3,7.4,39.1,8c-1.7,0.5-3.3,1-5,1.7
			c-1.3,0.6-2.7,1.2-4,1.9c-0.2,0.1-0.3,0.2-0.4,0.4c-0.3-0.1-0.6,0.1-0.8,0.2c-1.1,0.7-2.2,1.4-3.2,2.1c-0.3,0.2-0.7,0.3-0.8,0.8
			c-0.2,0-0.4,0.1-0.6,0.2c-0.5,0.4-0.9,0.8-1.4,1.2c-0.2,0.2-0.3,0.3-0.4,0.6c-0.3,0-0.4,0.1-0.6,0.3c-1.6,1.4-3.1,3-4.4,4.7
			c-1.1,1.4-2.2,2.8-3.1,4.4c-0.8,1.4-1.6,2.8-2.3,4.3C12,31.1,11.8,31.4,11.9,31.7z"/>
		<path class="st1" d="M22.6,17.1c0.1-0.2,0.2-0.4,0.4-0.6c0.5-0.4,1-0.8,1.4-1.2c0.2-0.1,0.4-0.2,0.6-0.2c0.1,0.1,0.2,0.3,0.3,0.4
			c6.7,6.7,13.4,13.4,20.1,20.1c2.8,2.8,5.6,5.6,8.4,8.4c0.2,0.2,0.3,0.4,0.6,0.1c1.6-1.4,3.3-2.8,5-4.1c0.2-0.1,0.2-0.3,0.2-0.5
			c-0.3-1.5-0.8-2.9-2-4c-1.3-1.1-2.6-2.1-3.9-3.1c-2.8-2.1-5.6-4.1-8.2-6.5c-3.9-3.6-7.9-7.1-11.8-10.6c-1.3-1.1-2.5-2.3-3.8-3.4
			c0-0.2,0.2-0.3,0.4-0.4c1.3-0.7,2.6-1.3,4-1.9c1.6-0.7,3.3-1.3,5-1.7c2.2-0.6,4.4-1,6.7-1.3c1.9-0.2,3.7-0.4,5.6-0.3
			c2,0.1,4,0.3,6.1,0.6c1.9,0.3,3.8,0.7,5.7,1.3c1.6,0.5,3.1,1.1,4.6,1.7c1.8,0.8,3.6,1.8,5.4,2.8c1.8,1.1,3.5,2.4,5.1,3.8
			c2.9,2.5,5.4,5.3,7.5,8.5c1.3,1.9,2.4,4,3.4,6.1c0.7,1.6,1.4,3.3,1.9,5c0.8,2.7,1.4,5.4,1.7,8.2c0.2,1.9,0.4,3.9,0.3,5.8
			c-0.1,2-0.3,3.9-0.6,5.8c-0.3,1.9-0.7,3.7-1.3,5.5c-0.5,1.6-1.1,3.1-1.8,4.6c-0.8,1.9-1.8,3.6-2.8,5.4c-1.7,2.6-3.6,5.1-5.8,7.3
			c-2.3,2.3-4.8,4.4-7.6,6.1c-1.7,1.1-3.5,2-5.3,2.8c-1.5,0.6-2.9,1.2-4.5,1.7c-1.7,0.6-3.4,1-5.2,1.3c-3,0.5-6.1,0.8-9.2,0.7
			c-2.5-0.1-5-0.4-7.5-1c-1.6-0.4-3.3-0.8-4.9-1.3c-1.8-0.6-3.6-1.4-5.4-2.3c-2.6-1.4-5.1-2.9-7.4-4.8c-2.2-1.8-4.2-3.7-6-5.9
			c-1.7-2-3.2-4.2-4.5-6.5c-1.2-2.2-2.2-4.4-3-6.8c-0.9-2.6-1.6-5.2-1.9-7.9C8,51.4,7.9,48,8.3,44.5c0.2-1.8,0.5-3.5,0.9-5.3
			c0.4-1.9,1-3.8,1.7-5.6c0.2-0.4,0.4-0.9,0.5-1.3c0.1-0.3,0.2-0.4,0.4-0.6c0.1,0.1,0.2,0.1,0.2,0.2c3.4,3.8,6.8,7.5,10.2,11.3
			c1.7,1.9,3.5,3.8,5.1,5.7c2.1,2.6,4.1,5.4,6.1,8.1c1.3,1.7,2.7,3.1,5,3.5c0.5,0.1,0.8-0.1,1-0.4c1-1.4,2.2-2.8,3.3-4.1
			c2.7-3.1,5.5-6.1,8.5-8.9c0.6-0.5,0.6-0.5,0-1.1C41.8,36.3,32.2,26.7,22.6,17.1z M72.1,69.1c0-0.1-0.1-0.1-0.1-0.2
			c-0.2-0.5-0.4-1.1-0.6-1.6c-0.4-1.2-0.8-2.4-1.3-3.6c-0.3-0.9-0.7-1.8-1-2.7c-0.4-1.2-0.9-2.5-1.3-3.7c-0.4-1.2-0.9-2.4-1.3-3.6
			c-0.4-1.2-0.8-2.5-1.3-3.7c-0.6-1.7-1.2-3.4-1.8-5.1c-0.2-0.5-0.4-1-0.6-1.5c-0.1-0.3-0.3-0.3-0.5-0.1c-1.7,1.4-3.4,2.7-5.1,4
			c-4.1,3.4-7.9,7.1-11.4,11.1c-1.2,1.4-2.4,2.8-3.5,4.3c-0.2,0.2-0.4,0.5,0.1,0.7c0.4,0.2,0.9,0.3,1.3,0.5c1.2,0.4,2.3,0.9,3.5,1.3
			c1.2,0.4,2.3,0.9,3.5,1.3c1.1,0.4,2.3,0.8,3.4,1.3c1.2,0.4,2.3,0.9,3.5,1.3c1.2,0.5,2.5,0.9,3.7,1.4c1.2,0.4,2.4,0.9,3.6,1.3
			c1.1,0.4,2.2,0.7,3.3,1.2c0.5,0.3,0.8,0.1,1.1-0.3c0.8-1.1,1.6-2.2,2.7-3.1C72,69.5,72.1,69.4,72.1,69.1z M77.5,75.5
			c0.1-0.5-0.2-0.9-0.5-1.3c-0.8-0.8-1.6-1.6-2.4-2.4c-0.3-0.3-0.5-0.2-0.8,0c-1.1,0.9-2.1,1.9-3,3c-0.2,0.2-0.2,0.4,0,0.7
			c0.9,0.8,1.7,1.7,2.6,2.5c0.6,0.6,1.4,0.7,2.1,0.2c0.7-0.4,1.2-1,1.7-1.7C77.4,76.2,77.5,75.9,77.5,75.5z"/>
		<path class="st2" d="M22.6,17.1c9.6,9.6,19.2,19.2,28.7,28.7c0.5,0.5,0.5,0.5,0,1.1c-3,2.8-5.8,5.8-8.5,8.9
			c-1.1,1.3-2.3,2.7-3.3,4.1c-0.2,0.3-0.5,0.5-1,0.4c-2.3-0.3-3.7-1.7-5-3.5c-2-2.7-3.9-5.5-6.1-8.1c-1.6-2-3.4-3.8-5.1-5.7
			c-3.4-3.8-6.8-7.5-10.2-11.3c-0.1-0.1-0.2-0.1-0.2-0.2c-0.1-0.3,0.1-0.6,0.2-0.9c0.7-1.5,1.5-2.9,2.3-4.3c0.9-1.6,2-3,3.1-4.4
			c1.4-1.7,2.8-3.3,4.4-4.7C22.2,17.3,22.4,17.1,22.6,17.1z"/>
		<path class="st2" d="M29.8,12.1c1.3,1.1,2.5,2.3,3.8,3.4c3.9,3.5,7.9,7.1,11.8,10.6c2.6,2.4,5.4,4.4,8.2,6.5c1.3,1,2.7,2,3.9,3.1
			c1.2,1,1.7,2.5,2,4c0,0.2,0,0.4-0.2,0.5c-1.7,1.3-3.4,2.7-5,4.1c-0.3,0.2-0.4,0-0.6-0.1c-2.8-2.8-5.6-5.6-8.4-8.4
			C38.7,28.9,32,22.3,25.3,15.6c-0.1-0.1-0.2-0.2-0.3-0.4c0-0.5,0.5-0.6,0.8-0.8c1-0.8,2.1-1.5,3.2-2.1C29.3,12.1,29.5,12,29.8,12.1
			z"/>
		<path class="st2" d="M72.1,69.1c0,0.2-0.1,0.4-0.3,0.5c-1.1,0.9-1.9,2-2.7,3.1c-0.3,0.4-0.5,0.5-1.1,0.3c-1-0.5-2.2-0.8-3.3-1.2
			c-1.2-0.4-2.4-0.9-3.6-1.3c-1.2-0.5-2.5-0.9-3.7-1.4c-1.2-0.4-2.3-0.9-3.5-1.3c-1.1-0.4-2.3-0.9-3.4-1.3c-1.2-0.4-2.3-0.9-3.5-1.3
			c-1.2-0.4-2.3-0.9-3.5-1.3c-0.4-0.2-0.9-0.3-1.3-0.5c-0.4-0.2-0.3-0.4-0.1-0.7c1.1-1.5,2.3-2.9,3.5-4.3c3.5-4,7.3-7.7,11.4-11.1
			c1.7-1.4,3.4-2.7,5.1-4c0.3-0.2,0.4-0.2,0.5,0.1c0.2,0.5,0.4,1,0.6,1.5c0.6,1.7,1.2,3.4,1.8,5.1c0.4,1.2,0.8,2.5,1.3,3.7
			c0.4,1.2,0.9,2.4,1.3,3.6c0.4,1.2,0.9,2.5,1.3,3.7c0.3,0.9,0.7,1.8,1,2.7c0.4,1.2,0.8,2.4,1.3,3.6c0.2,0.5,0.4,1.1,0.6,1.6
			C72.1,69,72.1,69.1,72.1,69.1z"/>
		<path class="st2" d="M77.5,75.5c0,0.4-0.1,0.7-0.3,1c-0.5,0.6-1,1.2-1.7,1.7c-0.7,0.5-1.5,0.4-2.1-0.2c-0.9-0.8-1.7-1.7-2.6-2.5
			c-0.2-0.2-0.2-0.4,0-0.7c0.9-1.1,1.9-2.1,3-3c0.3-0.2,0.5-0.2,0.8,0c0.8,0.8,1.6,1.6,2.4,2.4C77.3,74.6,77.6,75,77.5,75.5z"/>
	</g>
</g>
</svg>
