<svg xmlns="http://www.w3.org/2000/svg" viewBox="60.721 38.088 71 70" enable-background="new 60.721 38.088 71 70">
 <defs>
  <linearGradient id="SVGID_1_" gradientUnits="userSpaceOnUse" x1="61.22" x2="131.22">
   <stop stop-color="#12397f"/>
   <stop offset="1" stop-color="#3f8ded"/>
  </linearGradient>
 </defs>
 <g stroke="#fff" stroke-miterlimit="10">
  <path fill="url(#SVGID_1_)" d="m131.22 97.94c0 5.33-4.076 9.65-9.104 9.65h-51.79c-5.03 0-9.106-4.32-9.106-9.65v-49.7c0-5.329 4.077-9.65 9.106-9.65h51.789c5.03 0 9.104 4.321 9.104 9.65v49.7h.0001z"/>
  <path fill="#fff" d="m113.7 93.15l-2.35-5.73 3.29 10.03 3.29-10.03-2.34 5.72z"/>
 </g>
 <g fill="#fff">
  <path d="m110.98 49.18c0-.117.545-.209 1.219-.209h4.922c.673 0 1.219.094 1.219.211v4.137c0 .117-.546.211-1.22.211l-4.921-.002c-.674 0-1.221-.094-1.221-.211l.002-4.137"/>
  <path d="m117.97 55.13h-1.482c-.031 0-.063.023-.092.055h-.902c-.031-.031-.063-.055-.094-.055h-1.482c-.031 0-.063.021-.093.055h-.902c-.028-.033-.062-.056-.094-.056h-1.481c-.203 0-.367.664-.367 1.48l-.006 29.12c.002.819.166 1.483.367 1.482l1.313.0001c.031.032.062.056.094.056h1.482c.033 0 .063-.022.094-.055h.902c.029.031.062.055.094.055h1.481c.032 0 .063-.021.095-.054h1.069c.203-.0001.367-.666.367-1.483l.005-29.11c-.002-.818-.165-1.481-.368-1.482"/>
  <path d="m91.02 63.09l-4.174-2.119-14.547 29.597.246 1.557c-1.145 2.477-1.811 4.211-1.613 4.311.197.102 1.205-1.461 2.527-3.847l.73-.106 16.831-29.393"/>
  <path d="m87.5 63.08l4.188-2.089 14.338 29.696-.256 1.556c1.127 2.483 1.779 4.224 1.582 4.321-.196.099-1.194-1.471-2.5-3.864l-.729-.109-16.623-29.511"/>
  <circle cx="89.23" cy="62.59" r="4.84"/>
  <path d="m91.5 50.928c.004-1.234-.993-2.238-2.226-2.242-1.234-.004-2.238.994-2.242 2.228l-.02 5.655c-.004 1.232.992 2.236 2.226 2.242 1.233.004 2.237-.994 2.241-2.227l.021-5.656"/>
  <path transform="matrix(-1-.0035.0035-1 178.11 150.56)" d="m75.57 74.32h27.23v1.596h-27.23z"/>
  <path d="m90.36 77.84c0 .5-.407.901-.906.9-.499-.002-.903-.407-.9-.907l.018-5.167c.0001-.5.408-.902.906-.9.5.002.903.408.901.906l-.019 5.168"/>
 </g>
</svg>
