<svg xmlns="http://www.w3.org/2000/svg" viewBox="0 0 121.8 161.1" enable-background="new 0 0 121.8 161.1"><defs><linearGradient id="SVGID_1_" gradientUnits="userSpaceOnUse" y1="187.08" x2="0" y2="-26"><stop stop-color="#0e3f86"/><stop offset="1" stop-color="#3f8ded"/></linearGradient></defs><path fill="url(#SVGID_1_)" d="m7.8 0h72.975l41.03 43.725v109.58c0 4.291-3.51 7.8-7.801 7.8h-106.2c-4.29 0-7.8-3.51-7.8-7.8v-145.5c0-4.29 3.51-7.8 7.8-7.8m11.813 127.97v7.2h67.952v-7.2h-67.952m0-26.929v7.199h54.901v-7.199h-54.901m0-26.93v7.201h81.75v-7.201h-81.75m0-27.495v7.2h33.15v-7.2h-33.15m87.75.899l-31.27-33.676v28.426c0 2.887 2.363 5.25 5.25 5.25h26.02"/></svg>