<svg xmlns="http://www.w3.org/2000/svg" viewBox="0 0 33.281 29.521" enable-background="new 0 0 33.281 29.521"><g fill="none" stroke="#6e6f72" stroke-linejoin="round" stroke-miterlimit="10"><rect x="2.274" y="10.136" width="28.834" height="13.11"/><polygon points="7.936,21.209 3.903,21.209 
	6.928,12.387 10.962,12.387 "/><line x1="5.416" y1="16.801" x2="9.448" y2="16.801"/><polygon points="13.52,21.209 9.488,21.209 
	12.513,12.387 16.546,12.387 "/><line x1="11" y1="16.801" x2="15.03" y2="16.801"/><polygon points="21.195,21.177 17.16,21.177 
	20.185,12.356 24.218,12.356 "/><line x1="18.673" y1="16.764" x2="22.705" y2="16.764"/><polygon points="26.777,21.177 22.745,21.177 
	25.769,12.356 29.802,12.356 "/><line x1="24.26" y1="16.764" x2="28.29" y2="16.764"/><line x1="17.9" y1="13.509" x2="17.29" y2="15.285"/><line x1="16.251" y1="18.314" x2="15.641" y2="20.09"/></g></svg>