<?xml version="1.0" encoding="utf-8"?>
<!-- Generator: Adobe Illustrator 23.0.6, SVG Export Plug-In . SVG Version: 6.00 Build 0)  -->
<svg version="1.1" id="Слой_1" xmlns="http://www.w3.org/2000/svg" xmlns:xlink="http://www.w3.org/1999/xlink" x="0px" y="0px"
	 viewBox="0 0 223.9 273.8" style="enable-background:new 0 0 223.9 273.8;" xml:space="preserve">
<style type="text/css">
	.st0{fill:#767676;}
	.st1{fill:#D7D6D6;}
	.st2{fill:#079A48;}
</style>
<path class="st0" d="M212.1,82.5c0-1-0.3-1.6-0.9-2.3C185.8,54.1,160.4,28,135.1,1.9c-0.5-0.6-1.1-0.8-1.9-0.8
	c-14.5,0-70.6,0-84.1,0c-2.2,0-4.5,0.2-6.7,0.6C28.9,4.4,18.8,16.3,18.7,30.1c-0.1,7.2,0,178.1,0,178.1h14c0,0,0-170.9,0-178
	c0-3.2,1-6.1,2.9-8.6c3.4-4.4,8-6.5,13.5-6.5c22,0,44,0,66,0c1.1,0,1.3,0.3,1.3,1.3c0,14.2-0.1,28.4,0,42.6
	c0.1,11.4,4.6,20.8,13.2,28.1c7.4,6.3,16.1,9.3,25.8,9.4c13.8,0.1,27.6,0,41.4,0c1.1,0,1.3,0.3,1.3,1.3c0,0,0,0,0,0v110.4
	c0,10-8.1,18.1-18.1,18.1H50c-10,0-17.4-8.1-17.4-18.1h-14c0,17.7,13.7,32.1,31.4,32.1h130c17.7,0,32.1-14.4,32.1-32.1V89.4
	c0,0,0,0,0,0C212.1,87.1,212.1,84.8,212.1,82.5z M191.8,81.5c-12.2,0-24.5,0-36.7,0c-10.8,0-20.1-6.9-23-16.7
	c-0.5-1.7-0.8-3.4-0.8-5.2c0-13.7,0-27.4,0-41.5c20.6,21.2,41,42.2,61.3,63.1C192.4,81.7,192.1,81.5,191.8,81.5z"/>
<path class="st1" d="M191.8,81.5c-12.2,0-24.5,0-36.7,0c-10.8,0-20.1-6.9-23-16.7c-0.5-1.7-0.8-3.4-0.8-5.2c0-13.7,0-27.4,0-41.5
	c20.6,21.2,41,42.2,61.3,63.1C192.4,81.7,192.1,81.5,191.8,81.5z"/>
<path class="st2" d="M43.8,185.5h31.5v-81.7h73.4v81.7h38.7l-75.4,88.3L43.8,185.5z"/>
</svg>
