<?xml version="1.0" encoding="utf-8"?>
<!-- Generator: Adobe Illustrator 23.0.6, SVG Export Plug-In . SVG Version: 6.00 Build 0)  -->
<svg version="1.1" id="Слой_1" xmlns="http://www.w3.org/2000/svg" xmlns:xlink="http://www.w3.org/1999/xlink" x="0px" y="0px"
	 viewBox="0 0 223.9 254.3" style="enable-background:new 0 0 223.9 254.3;" xml:space="preserve">
<style type="text/css">
	.st0{fill:#884D9E;}
	.st1{fill:#767676;}
	.st2{fill:#D7D6D6;}
	.st3{fill:#FFFFFF;}
</style>
<g>
	<g>
		<path class="st0" d="M167.5,107.4c5.7,0,9.9,3.3,11,8.6c0.2,0.8,0.2,1.7,0.2,2.6c0,27,0,54,0,81.1c0,6.6-4.5,11.1-11,11.1
			c-49,0-98.1,0-147.1,0c-6.3,0-10.9-4.6-10.9-10.9c0-27.1,0-54.3,0-81.4c0-6.5,4.6-11,11.2-11C45.3,107.4,143.1,107.4,167.5,107.4z
			"/>
	</g>
</g>
<path class="st1" d="M212.1,89.5c0-1-0.3-1.6-0.9-2.3C185.8,61.1,160.4,35,135.1,8.9c-0.5-0.6-1.1-0.8-1.9-0.8
	c-14.5,0-70.6,0-84.1,0c-2.2,0-4.5,0.2-6.7,0.6c-13.6,2.6-23.6,14.5-23.8,28.3c-0.1,7.2,0,65.6,0,65.6h14c0,0,0-58.4,0-65.5
	c0-3.2,1-6.1,2.9-8.6c3.4-4.4,8-6.5,13.5-6.5c22,0,44,0,66,0c1.1,0,1.3,0.3,1.3,1.3c0,14.2-0.1,28.4,0,42.6
	c0.1,11.4,4.6,20.8,13.2,28.1c7.4,6.3,16.1,9.3,25.8,9.4c13.8,0.1,27.6,0,41.4,0c1.1,0,1.3,0.3,1.3,1.3c0,0,0,0,0,0v110.4
	c0,10-8.1,18.1-18.1,18.1H50c-10,0-18.1-8.1-18.1-18.1H18c0,17.7,14.4,32.1,32.1,32.1h130c17.7,0,32.1-14.4,32.1-32.1V96.4
	c0,0,0,0,0,0C212.1,94.1,212.1,91.8,212.1,89.5z M191.8,88.5c-12.2,0-24.5,0-36.7,0c-10.8,0-20.1-6.9-23-16.7
	c-0.5-1.7-0.8-3.4-0.8-5.2c0-13.7,0-27.4,0-41.5c20.6,21.2,41,42.2,61.3,63.1C192.4,88.7,192.1,88.5,191.8,88.5z"/>
<path class="st2" d="M191.8,88.5c-12.2,0-24.5,0-36.7,0c-10.8,0-20.1-6.9-23-16.7c-0.5-1.7-0.8-3.4-0.8-5.2c0-13.7,0-27.4,0-41.5
	c20.6,21.2,41,42.2,61.3,63.1C192.4,88.7,192.1,88.5,191.8,88.5z"/>
<g>
	<path class="st3" d="M21.4,128.7c3.1-0.8,7.6-1.2,12.5-1.2c8,0,13.5,1.9,17.6,5.6c5.5,4.9,8.3,13.3,8.3,25.6
		c0,12.8-3.3,21.9-8.8,26.8c-4.2,4.1-10.5,6.1-19.4,6.1c-3.9,0-7.7-0.4-10.2-0.7V128.7z M33.7,181.3c0.6,0.2,1.5,0.2,2.2,0.2
		c5.9,0,11.1-5.8,11.1-23.3c0-13-3.4-20.9-10.8-20.9c-0.8,0-1.7,0-2.4,0.3V181.3z"/>
	<path class="st3" d="M74.1,191.1l-10.8-63.4h12.8l3.1,25.3c0.8,7.2,1.4,14.5,2.2,22.2h0.3c0.8-7.8,2.3-14.7,3.6-22.3l4.5-25.2h10
		l4.2,25c1.1,7.1,2.3,14.2,3,22.5h0.2c0.8-8.3,1.6-15,2.4-22.4l3.1-25.1h12l-11.2,63.4h-12.7l-3.8-20.8c-1-5.8-2-13.1-2.8-20.8h-0.2
		c-1.1,7.6-2.2,14.7-3.5,20.9l-4.2,20.7H74.1z"/>
	<path class="st3" d="M166.5,189.4c-2.7,1.1-8.6,2.3-13.2,2.3c-7.2,0-12.7-2.1-16.9-6.3c-5.5-5.3-8.4-14.7-8.2-25.6
		c0.3-23,13.4-32.6,26.9-32.6c4.8,0,8.4,0.9,10.3,1.9l-2.2,10.6c-1.8-0.9-4.1-1.4-7.2-1.4c-8.4,0-15,5.7-15,22.3
		c0,15.2,5.9,20.7,11.7,20.7c1.1,0,2-0.1,2.4-0.3v-15.3h-5.6v-10.1h17V189.4z"/>
</g>
</svg>
