<?xml version="1.0" encoding="utf-8"?>
<!-- Generator: Adobe Illustrator 23.0.6, SVG Export Plug-In . SVG Version: 6.00 Build 0)  -->
<svg version="1.1"
	 id="svg2870" inkscape:output_extension="org.inkscape.output.svg.inkscape" inkscape:version="0.46" sodipodi:docname="Fedora3.svg" sodipodi:version="0.32" xmlns:cc="http://creativecommons.org/ns#" xmlns:dc="http://purl.org/dc/elements/1.1/" xmlns:inkscape="http://www.inkscape.org/namespaces/inkscape" xmlns:rdf="http://www.w3.org/1999/02/22-rdf-syntax-ns#" xmlns:sodipodi="http://sodipodi.sourceforge.net/DTD/sodipodi-0.dtd" xmlns:svg="http://www.w3.org/2000/svg"
	 xmlns="http://www.w3.org/2000/svg" xmlns:xlink="http://www.w3.org/1999/xlink" x="0px" y="0px" viewBox="0 0 20 20"
	 style="enable-background:new 0 0 20 20;" xml:space="preserve">
<style type="text/css">
	.st0{fill:#072B61;}
	.st1{fill:#0A57A4;}
	.st2{fill:#FFFFFF;}
</style>
<g id="g2758" transform="matrix(1.4207782,0,0,1.4207782,-98.680262,-243.87652)">
	<g id="g2516" transform="matrix(4.1474231,0,0,4.1474231,-599.81857,123.97573)">
		<path id="path3584" class="st0" d="M164.8,13.2c0-0.9-0.8-1.7-1.7-1.7c-0.9,0-1.7,0.8-1.7,1.7l0,0v1.3l0,0c0,0.2,0.2,0.4,0.4,0.4
			l0,0l0,0h1.3C164,14.9,164.8,14.1,164.8,13.2"/>
		<path id="path2497" class="st1" d="M163.6,11.9c-0.4,0-0.8,0.4-0.8,0.8v0.4h-0.4c-0.4,0-0.8,0.4-0.8,0.8c0,0.4,0.4,0.8,0.8,0.8
			c0.4,0,0.8-0.4,0.8-0.8v-0.4h0.4c0.4,0,0.8-0.4,0.8-0.8C164.4,12.3,164,11.9,163.6,11.9z M163.6,12.3c0.2,0,0.4,0.2,0.4,0.4
			c0,0.2-0.2,0.4-0.4,0.4h0h-0.4c0,0-0.1,0-0.1-0.1v-0.4C163.1,12.5,163.3,12.3,163.6,12.3z M162.3,13.5h0.4c0,0,0.1,0,0.1,0.1v0.4
			c0,0.2-0.2,0.4-0.4,0.4c-0.2,0-0.4-0.2-0.4-0.4C161.9,13.7,162.1,13.5,162.3,13.5z"/>
		<path id="path3588" class="st2" d="M162.8,13.1v-0.4v0c0-0.4,0.4-0.8,0.8-0.8c0.1,0,0.1,0,0.2,0c0.1,0,0.2,0.1,0.2,0.2
			c0,0.1-0.1,0.2-0.2,0.2c-0.1,0-0.1,0-0.2,0c-0.2,0-0.4,0.2-0.4,0.4v0.4v0c0,0,0,0.1,0.1,0.1h0h0.3c0.1,0,0.2,0.1,0.2,0.2
			c0,0.1-0.1,0.2-0.2,0.2h-0.3v0.4v0c0,0.4-0.4,0.8-0.8,0.8c-0.1,0-0.1,0-0.2,0c-0.1,0-0.2-0.1-0.2-0.2c0-0.1,0.1-0.2,0.2-0.2
			c0.1,0,0.1,0,0.2,0c0.2,0,0.4-0.2,0.4-0.4v-0.4c0,0,0-0.1-0.1-0.1h0l-0.3,0c-0.1,0-0.2-0.1-0.2-0.2c0-0.1,0.1-0.2,0.2-0.2H162.8"
			/>
	</g>
</g>
</svg>
