<?xml version="1.0" encoding="utf-8"?>
<!-- Generator: Adobe Illustrator 21.0.2, SVG Export Plug-In . SVG Version: 6.00 Build 0)  -->
<svg version="1.1"
	 id="Слой_1" inkscape:version="0.92.1 r15371" sodipodi:docname="En.svg" xmlns:cc="http://creativecommons.org/ns#" xmlns:dc="http://purl.org/dc/elements/1.1/" xmlns:inkscape="http://www.inkscape.org/namespaces/inkscape" xmlns:rdf="http://www.w3.org/1999/02/22-rdf-syntax-ns#" xmlns:sodipodi="http://sodipodi.sourceforge.net/DTD/sodipodi-0.dtd" xmlns:svg="http://www.w3.org/2000/svg"
	 xmlns="http://www.w3.org/2000/svg" xmlns:xlink="http://www.w3.org/1999/xlink" x="0px" y="0px" viewBox="0 0 29 21"
	 style="enable-background:new 0 0 29 21;" xml:space="preserve">
<style type="text/css">
	.st0{fill:#FFFFFF;}
	.st1{fill:#CF2815;}
	.st2{fill:#012F76;}
</style>
<polygon class="st0" points="29,21 0,21 0,0 29,0 22.6,10.5 "/>
<sodipodi:namedview  bordercolor="#666666" borderopacity="1" gridtolerance="10" guidetolerance="10" id="namedview4543" inkscape:current-layer="g4540" inkscape:cx="21.278815" inkscape:cy="8.2354556" inkscape:pageopacity="0" inkscape:pageshadow="2" inkscape:window-height="1137" inkscape:window-maximized="1" inkscape:window-width="1920" inkscape:window-x="-8" inkscape:window-y="-8" inkscape:zoom="19.666667" objecttolerance="10" pagecolor="#ffffff" showgrid="false">
	</sodipodi:namedview>
<path class="st1" d="M23.8,12.5h-7.3V21h-4v-8.5H0v-4h12.5V0h4v8.5h7.3l-1.2,2L23.8,12.5z M11.1,5.9L2.8,0H0v0.6l11.1,7.5V5.9z
	 M17.9,12.9v2.5l8.8,5.6H29l-1.2-1.6L17.9,12.9z M0,21h2.7l8.4-5.4v-2.4L0,20.5V21z M29,0h-1.8l-9.3,5.8v2.3l9.7-5.8L29,0z"/>
<path class="st2" d="M24.8,0l-6.9,4.5V0H24.8z M11.1,4.5V0H5.3L11.1,4.5z M0,2.5v4.9h7.8L0,2.5z M0,13.6v4.9l7.8-4.9H0z M11.1,21v-4
	l-5.6,4H11.1z M17.9,21h6.2l-6.2-4C17.9,17,17.9,21,17.9,21z M24.4,7.5l2-3.2l-5.2,3.2H24.4z M21.2,13.8l5.6,3.5l-2.2-3.5
	C24.6,13.8,21.2,13.8,21.2,13.8z"/>
</svg>
