<?xml version="1.0" encoding="utf-8"?>
<!-- Generator: Adobe Illustrator 21.0.2, SVG Export Plug-In . SVG Version: 6.00 Build 0)  -->
<svg version="1.1" id="Слой_1" xmlns="http://www.w3.org/2000/svg" xmlns:xlink="http://www.w3.org/1999/xlink" x="0px" y="0px"
	 viewBox="0 0 29 21" style="enable-background:new 0 0 29 21;" xml:space="preserve">
<style type="text/css">
	.st0{fill:#C20401;}
	.st1{fill:#FEFD03;}
	.st2{fill:#CCCCCC;}
	.st3{fill:#CC0000;}
	.st4{fill:#C8B100;}
	.st5{fill:#0076BC;}
	.st6{fill:none;stroke:#000000;stroke-width:0.1;}
	.st7{fill:#C7B300;}
	.st8{fill:#C8B000;}
	.st9{fill:#F38FB0;}
</style>
<g>
	<polygon class="st0" points="0,0 29,0 26,5 0,5 	"/>
	<polygon class="st1" points="0,5 26,5 22.6,10.5 26,16 0,16 	"/>
	<polygon class="st0" points="0,16 26,16 29,21 0,21 	"/>
</g>
<g>
	<path class="st2" d="M9.5,9.2v2.5H7.3v1.5c0,0.4,0.2,0.8,0.6,1c0.5,0.2,1.1,0.4,1.7,0.4c0.6,0,1.2-0.1,1.7-0.4
		c0.4-0.2,0.6-0.5,0.6-1v-1.1v-0.4V9.2H9.5z"/>
	<path class="st3" d="M10.3,11.8C10.3,11.7,10.3,11.7,10.3,11.8c0-0.5-0.3-0.8-0.7-0.8c0,0,0,0,0,0V9.2H7.3v2.5l0,0v1.5
		c0,0.6,0.5,1.1,1.1,1.1c0.6,0,1.1-0.5,1.1-1.1c0,0.6,0.5,1.1,1.1,1.1c0.6,0,1.1-0.5,1.1-1.1v-1.5H10.3z"/>
	<g>
		<polygon class="st4" points="5.8,8.9 5.7,9 5.7,9 5.7,9 5.7,9 5.7,9 5.8,9 5.8,9 5.8,9.1 5.8,9.1 5.8,9.1 5.9,9.1 5.9,9.1 
			6.5,9.1 6.5,9.1 6.5,9.1 6.6,9.1 6.6,9.1 6.6,9.1 6.6,9 6.6,9 6.7,9 6.7,9 6.7,9 6.7,9 6.7,9 6.7,9 6.6,8.9 6.5,8.9 6.5,8.9 
			6.6,8.8 6.6,8.8 6.4,8.9 6.3,8.8 6.2,8.9 6.3,8.8 6.2,8.7 6.2,8.7 6.3,8.7 6.3,8.7 6.2,8.7 6.2,8.7 6.2,8.7 6.2,8.6 6.2,8.6 
			6.2,8.6 6.2,8.6 6.2,8.6 6.2,8.6 6.2,8.6 6.2,8.6 6.2,8.6 6.2,8.6 6.2,8.7 6.2,8.7 6.2,8.7 6.1,8.7 6.1,8.7 6.2,8.7 6.2,8.7 
			6.2,8.7 6.1,8.8 6.2,8.9 6.1,8.8 6,8.9 5.8,8.8 5.8,8.8 5.9,8.9 5.9,8.9 5.8,8.9 		"/>
		<polygon class="st4" points="6.5,9.3 6.5,9.2 6.5,9.2 6.5,9.2 6.5,9.2 6.5,9.2 6.5,9.2 6.5,9.1 6.5,9.1 6.6,9.1 6.5,9.1 5.8,9.1 
			5.8,9.1 5.9,9.1 5.9,9.1 5.9,9.2 5.9,9.2 5.9,9.2 5.9,9.2 5.9,9.2 5.9,9.2 5.9,9.2 5.9,9.3 6,9.3 5.7,9.3 5.7,9.6 5.8,9.6 
			5.8,9.6 5.8,9.6 6.6,9.6 6.6,9.6 6.6,9.6 6.7,9.6 6.7,9.3 6.3,9.3 6.5,9.3 		"/>
		<polygon class="st4" points="5.8,9.7 5.8,9.8 5.8,9.8 6.6,9.8 6.6,9.8 6.6,9.7 5.8,9.7 		"/>
	</g>
	<path id="path655_1_" class="st5" d="M6.9,14c-0.1,0-0.1,0-0.2,0c0,0-0.1,0-0.2,0c-0.1,0-0.1,0-0.2,0c0,0-0.1,0-0.2,0
		c-0.1,0-0.1,0-0.2,0c0,0-0.1,0-0.2,0c-0.1,0-0.1,0-0.2,0c0,0-0.1,0-0.2,0v0.1c0.1,0,0.1,0,0.2,0c0,0,0.1,0,0.2,0C5.9,14,6,14,6,14
		c0,0,0.1,0,0.2,0c0.1,0,0.1,0,0.2,0c0,0,0.1,0,0.2,0c0.1,0,0.1,0,0.2,0c0,0,0.1,0,0.2,0L6.9,14"/>
	<path id="path657_1_" class="st2" d="M6.9,14.1c-0.1,0-0.1,0-0.2,0c0,0-0.1,0-0.2,0c-0.1,0-0.1,0-0.2,0c0,0-0.1,0-0.2,0
		c-0.1,0-0.1,0-0.2,0c0,0-0.1,0-0.2,0c-0.1,0-0.1,0-0.2,0c0,0-0.1,0-0.2,0v0.1c0.1,0,0.1,0,0.2,0c0,0,0.1,0,0.2,0c0.1,0,0.1,0,0.2,0
		c0,0,0.1,0,0.2,0c0.1,0,0.1,0,0.2,0c0,0,0.1,0,0.2,0c0.1,0,0.1,0,0.2,0c0,0,0.1,0,0.2,0L6.9,14.1"/>
	<path id="path659_1_" class="st5" d="M6.9,14.2c-0.1,0-0.1,0-0.2,0c0,0-0.1,0-0.2,0c-0.1,0-0.1,0-0.2,0c0,0-0.1,0-0.2,0
		c-0.1,0-0.1,0-0.2,0c0,0-0.1,0-0.2,0c-0.1,0-0.1,0-0.2,0c0,0-0.1,0-0.2,0v0.1c0.1,0,0.1,0,0.2,0c0,0,0.1,0,0.2,0c0.1,0,0.1,0,0.2,0
		c0,0,0.1,0,0.2,0c0.1,0,0.1,0,0.2,0c0,0,0.1,0,0.2,0c0.1,0,0.1,0,0.2,0c0,0,0.1,0,0.2,0L6.9,14.2"/>
	<path id="path661_1_" class="st2" d="M6.9,14.4c-0.1,0-0.1,0-0.2,0c0,0-0.1,0-0.2,0c-0.1,0-0.1,0-0.2,0c0,0-0.1,0-0.2,0
		c-0.1,0-0.1,0-0.2,0c0,0-0.1,0-0.2,0c-0.1,0-0.1,0-0.2,0c0,0-0.1,0-0.2,0v-0.1c0.1,0,0.1,0,0.2,0c0,0,0.1,0,0.2,0
		c0.1,0,0.1,0,0.2,0c0,0,0.1,0,0.2,0c0.1,0,0.1,0,0.2,0c0,0,0.1,0,0.2,0c0.1,0,0.1,0,0.2,0c0,0,0.1,0,0.2,0L6.9,14.4"/>
	<path id="path663_1_" class="st5" d="M6.9,14.5c-0.1,0-0.1,0-0.2,0c0,0-0.1,0-0.2,0c-0.1,0-0.1,0-0.2,0c0,0-0.1,0-0.2,0
		c-0.1,0-0.1,0-0.2,0c0,0-0.1,0-0.2,0c-0.1,0-0.1,0-0.2,0c0,0-0.1,0-0.2,0v-0.1c0.1,0,0.1,0,0.2,0c0,0,0.1,0,0.2,0
		c0.1,0,0.1,0,0.2,0c0,0,0.1,0,0.2,0c0.1,0,0.1,0,0.2,0c0,0,0.1,0,0.2,0c0.1,0,0.1,0,0.2,0c0,0,0.1,0,0.2,0V14.5"/>
	<path class="st4" d="M6.6,13.6C6.6,13.5,6.6,13.5,6.6,13.6C6.6,13.5,6.6,13.5,6.6,13.6C6.6,13.5,6.6,13.5,6.6,13.6
		C6.6,13.5,6.6,13.5,6.6,13.6l-0.8-0.1c0,0,0,0,0,0s0,0,0,0c0,0,0,0,0,0c0,0,0,0,0,0c0,0.1-0.1,0.1-0.1,0.1h0v0.3h1v-0.3h0
		C6.6,13.7,6.6,13.6,6.6,13.6z"/>
	<path id="path673_1_" class="st2" d="M5.8,13.4h0.7V9.8H5.8V13.4z"/>
	<path class="st3" d="M5.5,11.5l0.4,0.2l0-0.3l-0.2,0l0.6-0.2l0.3,0l0.7,0.1l0-0.4l-0.7-0.1l-0.4,0l-0.8,0.4L5.5,11.5L5.5,11.5
		L5.5,11.5z"/>
	<path class="st3" d="M6.8,11.5L6.8,11.5L6.8,11.5L6.8,11.5l0.1-0.1l-0.3-0.1l0,0.3l-0.4,0.2L5.8,12l-0.5,0.3l0.1,0.4l0.1,0.1
		l0.1,0.2l0.1-0.2l-0.1-0.2l0.2-0.1l0.5-0.2l0.6-0.4L6.8,11.5L6.8,11.5L6.8,11.5z M6.7,11.6l-0.1,0.1L6.7,11.6L6.7,11.6z"/>
	<path id="path797_1_" class="st5" d="M12.2,14c0.1,0,0.1,0,0.2,0c0,0,0.1,0,0.2,0c0.1,0,0.1,0,0.2,0c0,0,0.1,0,0.2,0
		c0.1,0,0.1,0,0.2,0c0,0,0.1,0,0.2,0c0.1,0,0.1,0,0.2,0c0,0,0.1,0,0.2,0v0.1c-0.1,0-0.1,0-0.2,0c0,0-0.1,0-0.2,0c-0.1,0-0.1,0-0.2,0
		c0,0-0.1,0-0.2,0c-0.1,0-0.1,0-0.2,0c0,0-0.1,0-0.2,0c-0.1,0-0.1,0-0.2,0c0,0-0.1,0-0.2,0L12.2,14"/>
	<path id="path799_1_" class="st2" d="M12.2,14.1c0.1,0,0.1,0,0.2,0c0,0,0.1,0,0.2,0c0.1,0,0.1,0,0.2,0c0,0,0.1,0,0.2,0
		c0.1,0,0.1,0,0.2,0c0,0,0.1,0,0.2,0c0.1,0,0.1,0,0.2,0c0,0,0.1,0,0.2,0v0.1c-0.1,0-0.1,0-0.2,0c0,0-0.1,0-0.2,0c-0.1,0-0.1,0-0.2,0
		c0,0-0.1,0-0.2,0c-0.1,0-0.1,0-0.2,0c0,0-0.1,0-0.2,0c-0.1,0-0.1,0-0.2,0c0,0-0.1,0-0.2,0L12.2,14.1"/>
	<path id="path801_1_" class="st5" d="M12.2,14.2c0.1,0,0.1,0,0.2,0c0,0,0.1,0,0.2,0c0.1,0,0.1,0,0.2,0c0,0,0.1,0,0.2,0
		c0.1,0,0.1,0,0.2,0c0,0,0.1,0,0.2,0c0.1,0,0.1,0,0.2,0c0,0,0.1,0,0.2,0v0.1c-0.1,0-0.1,0-0.2,0c0,0-0.1,0-0.2,0c-0.1,0-0.1,0-0.2,0
		c0,0-0.1,0-0.2,0c-0.1,0-0.1,0-0.2,0c0,0-0.1,0-0.2,0c-0.1,0-0.1,0-0.2,0c0,0-0.1,0-0.2,0L12.2,14.2"/>
	<path id="path803_1_" class="st2" d="M12.2,14.4c0.1,0,0.1,0,0.2,0c0,0,0.1,0,0.2,0c0.1,0,0.1,0,0.2,0c0,0,0.1,0,0.2,0
		c0.1,0,0.1,0,0.2,0c0,0,0.1,0,0.2,0c0.1,0,0.1,0,0.2,0c0,0,0.1,0,0.2,0v-0.1c-0.1,0-0.1,0-0.2,0c0,0-0.1,0-0.2,0
		c-0.1,0-0.1,0-0.2,0c0,0-0.1,0-0.2,0c-0.1,0-0.1,0-0.2,0c0,0-0.1,0-0.2,0c-0.1,0-0.1,0-0.2,0c0,0-0.1,0-0.2,0L12.2,14.4"/>
	<path id="path805_1_" class="st5" d="M12.2,14.5c0.1,0,0.1,0,0.2,0c0,0,0.1,0,0.2,0c0.1,0,0.1,0,0.2,0c0,0,0.1,0,0.2,0
		c0.1,0,0.1,0,0.2,0c0,0,0.1,0,0.2,0c0.1,0,0.1,0,0.2,0c0,0,0.1,0,0.2,0v-0.1c-0.1,0-0.1,0-0.2,0c0,0-0.1,0-0.2,0
		c-0.1,0-0.1,0-0.2,0c0,0-0.1,0-0.2,0c-0.1,0-0.1,0-0.2,0c0,0-0.1,0-0.2,0c-0.1,0-0.1,0-0.2,0c0,0-0.1,0-0.2,0L12.2,14.5"/>
	<path class="st4" d="M13.3,13.6C13.3,13.5,13.3,13.5,13.3,13.6L13.3,13.6C13.3,13.5,13.3,13.5,13.3,13.6
		C13.3,13.5,13.3,13.5,13.3,13.6C13.3,13.5,13.3,13.5,13.3,13.6l-0.8-0.1c0,0,0,0,0,0s0,0,0,0c0,0,0,0,0,0c0,0,0,0,0,0
		c0,0.1-0.1,0.1-0.1,0.1l0,0v0.3h1v-0.3h0C13.3,13.7,13.3,13.6,13.3,13.6z"/>
	<path id="path815_1_" class="st2" d="M12.5,13.4h0.7V9.8h-0.7V13.4z"/>
	<path class="st3" d="M12.9,11.1l0.6,0.2l-0.2,0l0,0.3l0.4-0.2l0,0l0.2-0.4L13,10.7l-0.4,0l-0.7,0.1l0,0.4l0.7-0.1L12.9,11.1
		L12.9,11.1z"/>
	<path class="st3" d="M13.3,12l-0.4-0.2l-0.4-0.2l0-0.3l-0.3,0.1l0,0l0,0l0,0l0.1,0.1l-0.1-0.1l0,0.4l0.6,0.4l0.5,0.2l0.2,0.1
		l-0.1,0.2l0.1,0.2l0.1-0.2l0.1-0.1l0.1-0.4L13.3,12L13.3,12z M12.5,11.7l-0.1-0.1L12.5,11.7L12.5,11.7z M13.5,12.6L13.5,12.6
		L13.5,12.6L13.5,12.6z"/>
	<path id="path831_1_" class="st6" d="M8.4,8.1C8.4,8.1,8.5,8,8.4,8.1c0.2-0.1,0.2-0.1,0.2,0C8.6,8.2,8.6,8.2,8.4,8.1
		C8.5,8.2,8.4,8.2,8.4,8.1z"/>
	<g>
		<polygon class="st4" points="11.6,7.3 10.7,7.1 10.6,7.5 10.4,6.9 9.8,6.9 9.8,6.9 9.6,6.9 9.6,6.6 9.7,6.6 9.7,6.5 9.6,6.5 
			9.6,6.4 9.5,6.4 9.5,6.5 9.4,6.5 9.4,6.6 9.5,6.6 9.5,6.9 9.3,6.9 9.3,6.9 8.7,6.9 8.4,7.5 8.1,7.2 7.3,7.4 7.3,7.9 7.4,7.9 
			7.4,8.1 7.6,8.3 7.7,8.4 7.9,8.6 8,8.6 8,8.7 9.5,8.5 11,8.7 11,8.6 11.2,8.6 11.4,8.4 11.5,8.3 11.7,8.1 11.7,7.9 11.8,7.9 
			11.6,7.3 		"/>
		<polygon class="st4" points="8.3,8.9 9.5,9.1 10.8,8.9 9.5,8.8 8.3,8.9 		"/>
	</g>
	<g>
		<path class="st7" d="M7.8,11.7v2.4c0.1,0,0.2,0.1,0.3,0.1l0-2.6H7.8z"/>
		<path class="st7" d="M7.3,13.2c0,0.3,0.1,0.6,0.3,0.7v-2.2H7.3L7.3,13.2z"/>
		<path class="st7" d="M8.3,14.3c0.1,0,0.2,0,0.3,0v-2.6H8.3V14.3z"/>
		<path class="st7" d="M8.8,11.7l0,2.6c0.1,0,0.2-0.1,0.3-0.1v-2.4H8.8z"/>
	</g>
	<path id="path1144_1_" class="st8" d="M9.1,11.4H7.8v-0.3H8v-0.7H7.9v-0.3H8V9.9H8V9.8H8v0h0.1v0h0.1v0h0.1v0h0.1v0.1H8.2v0.2h0.1
		V9.7H8.3V9.5h0.1v0h0.1v0h0.1v0h0.1v0h0.1v0.2H8.5v0.4h0.1V9.9H8.6V9.8h0.1v0h0.1v0h0.1v0h0.1v0h0.1v0.1H8.8v0.2H9v0.3H8.9v0.7h0.2
		V11.4"/>
	<path id="path1154_1_" class="st5" d="M9.1,11.8c0-0.3,0.2-0.5,0.4-0.5c0.2,0,0.4,0.2,0.4,0.5c0,0.3-0.2,0.5-0.4,0.5
		C9.3,12.3,9.1,12.1,9.1,11.8"/>
	<g>
		<polygon class="st4" points="12.5,8.9 12.4,8.9 12.4,9 12.4,9 12.4,9 12.4,9 12.4,9 12.5,9 12.5,9 12.5,9.1 12.5,9.1 12.6,9.1 
			12.6,9.1 13.2,9.1 13.2,9.1 13.2,9.1 13.3,9.1 13.3,9 13.3,9 13.3,9 13.3,9 13.4,9 13.4,9 13.4,9 13.4,9 13.4,9 13.4,8.9 
			13.3,8.9 13.2,8.9 13.2,8.9 13.3,8.8 13.2,8.7 13.1,8.8 13,8.8 12.9,8.9 13,8.8 12.9,8.7 12.9,8.7 13,8.7 13,8.7 12.9,8.7 
			12.9,8.7 12.9,8.6 12.9,8.6 12.9,8.6 12.9,8.6 12.9,8.6 12.9,8.5 12.9,8.5 12.9,8.6 12.9,8.6 12.9,8.6 12.9,8.6 12.9,8.6 
			12.9,8.7 12.9,8.7 12.8,8.7 12.8,8.7 12.9,8.7 12.9,8.7 12.9,8.7 12.8,8.8 12.9,8.8 12.8,8.8 12.7,8.8 12.5,8.7 12.5,8.8 
			12.6,8.9 12.6,8.9 12.5,8.9 		"/>
		<polygon class="st4" points="13.2,9.3 13.2,9.2 13.2,9.2 13.2,9.2 13.2,9.2 13.2,9.2 13.2,9.1 13.2,9.1 13.2,9.1 13.3,9.1 
			13.2,9.1 12.5,9.1 12.5,9.1 12.5,9.1 12.5,9.1 12.6,9.2 12.6,9.2 12.6,9.2 12.6,9.2 12.6,9.2 12.6,9.2 12.6,9.2 12.6,9.3 
			12.7,9.3 12.4,9.3 12.4,9.5 12.5,9.5 12.5,9.6 12.5,9.6 13.3,9.6 13.3,9.6 13.3,9.5 13.4,9.5 13.4,9.3 13,9.3 13.2,9.3 		"/>
		<polygon class="st4" points="12.5,9.7 12.5,9.7 12.5,9.8 13.3,9.8 13.3,9.7 13.3,9.7 12.5,9.7 		"/>
	</g>
	<path class="st4" d="M11.3,13.4c-0.1,0.2-0.4,0.3-0.4,0.3s-0.5-0.1-0.6-0.3c-0.2-0.3-0.1-1.2-0.1-1.2h1.1
		C11.4,12.2,11.4,13.2,11.3,13.4z"/>
	<path class="st9" d="M10.9,9.9c-0.1,0-0.2,0-0.2,0c-0.1,0.1,0,0.2-0.1,0.2c-0.1,0.1-0.1-0.3-0.3-0.1c-0.1,0.1,0,0.1,0,0.2
		c0,0,0.1,0,0.1,0.1c0,0,0,0-0.1,0.1c0,0.2,0,0.3,0.2,0.2c0.1,0.1-0.1,0.2,0,0.3c0,0.1,0.2,0.1,0.3,0.1c0.1,0.1,0.1,0.2,0.2,0.1
		c0.1,0,0.2-0.2,0.2-0.2c0-0.1,0-0.2,0.1-0.3c0-0.1,0-0.2,0-0.3c0-0.1,0-0.3,0-0.3C11.2,9.9,11,9.9,11,10C11,9.9,10.9,9.9,10.9,9.9"
		/>
</g>
</svg>
