<svg xmlns="http://www.w3.org/2000/svg" viewBox="0 0 152.365 99.578" enable-background="new 0 0 152.365 99.578" xmlns:xlink="http://www.w3.org/1999/xlink"><defs><linearGradient id="SVGID_42_" gradientUnits="userSpaceOnUse" x1="107" x2="112.71" xlink:href="#SVGID_1_"/><linearGradient id="SVGID_20_" gradientUnits="userSpaceOnUse" x1="143.81" x2="149.35" xlink:href="#SVGID_1_"/><linearGradient id="SVGID_18_" gradientUnits="userSpaceOnUse" x1="133.08" x2="138.99" xlink:href="#SVGID_1_"/><linearGradient id="SVGID_19_" gradientUnits="userSpaceOnUse" x1="132.76" x2="133.39" xlink:href="#SVGID_1_"/><linearGradient id="SVGID_21_" gradientUnits="userSpaceOnUse" x1="143.49" x2="144.13" xlink:href="#SVGID_1_"/><linearGradient id="SVGID_22_" gradientUnits="userSpaceOnUse" x1="11.294" x2="25.02" xlink:href="#SVGID_1_"/><linearGradient id="SVGID_33_" gradientUnits="userSpaceOnUse" x1="68.03" x2="82.998" xlink:href="#SVGID_1_"/><linearGradient id="SVGID_23_" gradientUnits="userSpaceOnUse" x1="12.714" x2="23.315" xlink:href="#SVGID_1_"/><linearGradient id="SVGID_24_" gradientUnits="userSpaceOnUse" x1="36.941" x2="43.38" xlink:href="#SVGID_1_"/><linearGradient id="SVGID_17_" gradientUnits="userSpaceOnUse" x1="122.56" x2="123.19" xlink:href="#SVGID_1_"/><linearGradient id="SVGID_16_" gradientUnits="userSpaceOnUse" x1="122.87" x2="129.12" xlink:href="#SVGID_1_"/><linearGradient id="SVGID_3_" gradientUnits="userSpaceOnUse" x1="36.56" x2="113.03" xlink:href="#SVGID_1_"/><linearGradient id="SVGID_1_" gradientUnits="userSpaceOnUse" x1="0" x2="152.37"><stop stop-color="#12397f"/><stop offset=".713" stop-color="#3a71ce"/><stop offset="1" stop-color="#3a71ce"/></linearGradient><linearGradient id="SVGID_2_" gradientUnits="userSpaceOnUse" x1="36.2" x2="113.46" xlink:href="#SVGID_1_"/><linearGradient id="SVGID_11_" gradientUnits="userSpaceOnUse" x1="54.52" x2="55.15" xlink:href="#SVGID_1_"/><linearGradient id="SVGID_12_" gradientUnits="userSpaceOnUse" x1="95.87" x2="96.51" xlink:href="#SVGID_1_"/><linearGradient id="SVGID_15_" gradientUnits="userSpaceOnUse" x1="41.509" x2="72.73" xlink:href="#SVGID_1_"/><linearGradient id="SVGID_13_" gradientUnits="userSpaceOnUse" x1="44.37" x2="53.618" xlink:href="#SVGID_1_"/><linearGradient id="SVGID_14_" gradientUnits="userSpaceOnUse" x1="56.11" x2="66.792" xlink:href="#SVGID_1_"/></defs><g fill-rule="evenodd"><rect y="98.03" fill="url(#SVGID_1_)" width="152.37" height="1.545"/><path fill="url(#SVGID_2_)" d="m37.685 97.29h74.29v-71.854c0-2.693-1.137-4.34-2.921-5.477-1.892-1.205-4.558-1.895-7.401-2.61l-18.553-4.667h-.004c-2.756-.701-4.657-.98-6.392-.969-1.732.012-3.352.313-5.517.767l-23.21 4.875c-2.852.6-5.494 1.281-7.384 2.516-1.782 1.165-2.908 2.868-2.908 5.565v71.854m75.03 1.484h-75.77-.742v-.742-72.6c0-3.288 1.388-5.372 3.583-6.806 2.087-1.365 4.888-2.093 7.894-2.724l23.21-4.875c2.246-.472 3.934-.785 5.813-.796 1.876-.012 3.89.277 6.763 1.01l18.551 4.667c2.961.745 5.737 1.464 7.837 2.801 2.206 1.404 3.61 3.431 3.61 6.724v72.6.742h-.744z"/></g><g fill="url(#SVGID_3_)"><path d="m113.03 33.12h-.636c0-5.121-5.17-6.272-10.645-7.492l-18.569-4.135c-5.682-1.281-7.822-.981-12.12-.181l-23.23 4.318c-3.181.592-5.681 1.207-7.544 2.283-2.107 1.22-3.089 2.874-3.089 5.206h-.637c0-5.579 5.275-7.02 11.154-8.115l23.23-4.318c4.278-.795 6.59-1.12 12.381.186l18.568 4.135c5.729 1.276 11.141 2.481 11.141 8.113"/><path d="m113.03 41.589h-.636c0-4.646-5.168-5.697-10.639-6.808l-18.569-3.773c-5.686-1.17-7.829-.896-12.137-.166l-23.23 3.941c-5.601.95-10.628 2.186-10.628 6.806h-.635c0-5.116 5.278-6.436 11.159-7.433l23.23-3.941c4.274-.725 6.584-1.021 12.37.169l18.568 3.774c5.732 1.164 11.146 2.265 11.146 7.431"/><path d="m113.03 50.06h-.636c0-4.172-5.165-5.121-10.633-6.125l-18.569-3.412c-5.691-1.059-7.837-.812-12.146-.15l-23.23 3.563c-5.599.859-10.623 1.974-10.623 6.125h-.636c0-4.655 5.28-5.851 11.164-6.753l23.23-3.563c4.27-.655 6.579-.922 12.358.153l18.568 3.412c5.737 1.052 11.154 2.047 11.154 6.75"/><path d="m113.03 58.53h-.636c0-3.696-5.162-4.544-10.627-5.442l-18.569-3.05c-5.696-.948-7.844-.726-12.157-.134l-23.23 3.186c-5.597.768-10.619 1.762-10.619 5.44h-.636c0-4.192 5.283-5.263 11.167-6.07l23.23-3.187c4.266-.584 6.573-.824 12.348.137l18.569 3.051c5.739.943 11.159 1.833 11.159 6.069"/><path d="m113.03 67.01h-.636c0-3.221-5.159-3.969-10.621-4.759l-18.568-2.69c-5.703-.835-7.852-.64-12.17-.117l-23.23 2.808c-5.594.676-10.613 1.549-10.613 4.758h-.637c0-3.73 5.285-4.678 11.173-5.391l23.23-2.809c4.263-.514 6.568-.725 12.337.121l18.568 2.689c5.742.833 11.166 1.618 11.166 5.39"/><path d="m113.03 75.48h-.636c0-2.745-5.156-3.392-10.614-4.075l-18.569-2.326c-5.707-.725-7.859-.556-12.181-.104l-23.23 2.43c-5.591.586-10.608 1.338-10.608 4.075h-.636c0-3.267 5.288-4.091 11.179-4.706l23.23-2.432c4.259-.445 6.563-.627 12.327.104l18.568 2.328c5.744.719 11.17 1.401 11.17 4.706"/><path d="m113.03 83.953h-.636c0-2.27-5.394-2.842-10.608-3.393l-18.57-1.967c-5.712-.611-7.865-.469-12.19-.086l-23.23 2.053c-5.365.475-10.603 1.127-10.603 3.393h-.637c0-2.809 5.064-3.485 11.184-4.03l23.23-2.055c4.255-.375 6.556-.529 12.314.088l18.569 1.967c5.998.635 11.177 1.181 11.177 4.03"/><path d="m113.03 92.43h-.636c0-1.794-5.391-2.26-10.603-2.71l-18.569-1.604c-5.717-.5-7.873-.383-12.203-.07l-23.23 1.675c-3.963.286-10.598.765-10.598 2.71h-.635c0-2.346 5.067-2.902 11.189-3.344l23.23-1.676c4.251-.307 6.55-.432 12.303.072l18.569 1.604c6 .517 11.183.965 11.183 3.343"/></g><rect x="54.52" y="15.16" fill="url(#SVGID_11_)" width=".636" height="82.87"/><rect x="95.87" y="15.213" fill="url(#SVGID_12_)" width=".638" height="82.82"/><polygon fill-rule="evenodd" fill="url(#SVGID_13_)" points="44.371,98.033 53.618,98.033 53.618,90.148 
	44.371,90.699 "/><rect x="48.677" y="90.42" fill="#fff" width=".636" height="7.609"/><polygon fill-rule="evenodd" fill="url(#SVGID_14_)" points="56.109,98.033 66.792,98.033 66.792,89.273 
	56.109,90.012 "/><rect x="61.13" y="89.64" fill="#fff" width=".635" height="8.391"/><g fill-rule="evenodd"><path fill="url(#SVGID_15_)" d="m44.728 15.877c-.556.104-1.102.208-1.648.311-.509-.556-.896-1.228-1.167-2.02-.271-.788-.403-1.62-.403-2.496 0-.832.115-1.663.35-2.499.263-.935.662-1.81 1.199-2.624.556-.123 1.108-.245 1.67-.369-.612.725-1.088 1.482-1.436 2.273-.214.487-.379.98-.484 1.48-.104.499-.159 1-.159 1.519 0 .514.055.999.163 1.455.108.458.273.888.49 1.291.346.649.819 1.209 1.425 1.675m3.565-2.702c0 .832-.173 1.469-.516 1.916-.274.358-.637.58-1.093.665-.549.103-.967-.017-1.251-.359s-.428-.869-.428-1.581c0-.947 0-1.895 0-2.843 0-.946 0-1.896 0-2.845 0-.813.172-1.443.518-1.898.278-.367.644-.6 1.097-.701.431-.096.778-.05 1.045.131.417.284.628.87.628 1.765 0 .958 0 1.918 0 2.875 0 .958 0 1.918 0 2.875m-1.19.427c.003-1.019.003-2.039.003-3.059 0-1.019 0-2.04 0-3.06 0-.183-.028-.326-.091-.424-.082-.131-.209-.178-.375-.143-.127.027-.237.101-.326.218-.092.117-.138.301-.139.548-.002 1.017 0 2.035 0 3.05s0 2.034 0 3.05c0 .248.047.415.139.5.089.084.195.115.324.09.137-.026.248-.097.333-.21.088-.114.132-.302.132-.56m7.221.465c-.415.079-.823.157-1.233.233 0-1.368 0-2.737 0-4.105 0-1.367 0-2.739 0-4.108 0-.17-.032-.302-.093-.392-.063-.092-.159-.122-.285-.096-.089.02-.159.064-.215.133-.093.114-.14.286-.14.513 0 1.367 0 2.733 0 4.098 0 1.366 0 2.731 0 4.096-.413.077-.818.152-1.221.229 0-1.36 0-2.721 0-4.08 0-1.36.003-2.721.003-4.082 0-.123-.016-.223-.047-.302-.062-.155-.171-.217-.328-.183-.233.05-.346.262-.346.639 0 1.357.0001 2.717 0 4.073-.0001 1.356-.003 2.714-.003 4.07-.402.077-.805.152-1.206.227 0-1.288 0-2.577 0-3.865 0-1.289-.002-2.579 0-3.868.0001-.861.167-1.527.497-1.989.264-.369.619-.602 1.058-.699.213-.047.391-.052.538-.021.149.03.291.097.435.204.124-.137.271-.264.44-.379.168-.116.349-.193.549-.237.456-.102.809-.027 1.074.219.347.322.523.924.523 1.811 0 1.311 0 2.622 0 3.932 0 1.31 0 2.62 0 3.929m4.353-6.819c0 .821-.175 1.637-.527 2.438-.372.847-.893 1.568-1.555 2.169 0 .595 0 1.191 0 1.785-.422.079-.84.157-1.254.236 0-1.756.0001-3.513.003-5.269.0001-1.756 0-3.513 0-5.271 1.023-.026 1.848.353 2.466 1.143.287.367.508.781.65 1.241.141.464.217.972.217 1.528m-1.271.219c0-.433-.064-.833-.194-1.199-.129-.367-.336-.678-.618-.935 0 .774 0 1.546 0 2.319 0 .772 0 1.545 0 2.317.24-.337.438-.714.587-1.128.151-.416.225-.873.225-1.374m5.819 4.923c0-1.361 0-2.721 0-4.081s0-2.722 0-4.083c0-.892-.218-1.488-.655-1.793-.318-.223-.721-.281-1.214-.171-.412.092-.77.309-1.077.648-.446.494-.669 1.19-.669 2.09 0 .764 0 1.529 0 2.292 0 .764 0 1.527 0 2.291-.434.087-.868.173-1.298.26.212.441.427.88.646 1.321.216-.042.434-.085.652-.127 0 .679 0 1.357 0 2.036.428-.08.855-.162 1.29-.243 0-.68 0-1.362 0-2.043.336-.066.68-.133 1.021-.2 0 .684 0 1.368 0 2.05.431-.083.868-.166 1.304-.247m-1.304-3.269c-.341.069-.685.137-1.021.205 0-.774-.002-1.548-.002-2.322 0-.775 0-1.548 0-2.322 0-.292.043-.516.13-.676.088-.16.213-.258.379-.294.218-.047.366.039.449.254.041.107.065.272.065.496 0 .777 0 1.553 0 2.33 0 .776 0 1.553 0 2.329m6.06 2.373c-.452.085-.902.17-1.348.253 0-.829 0-1.659 0-2.488 0-.83 0-1.658 0-2.489-.318-.445-.627-.891-.94-1.336 0 1.083 0 2.164 0 3.246 0 1.082 0 2.163 0 3.244-.446.084-.887.167-1.327.25 0-1.808 0-3.617 0-5.425 0-1.808 0-3.617 0-5.426.375.51.75 1.02 1.127 1.531.376.511.756 1.025 1.136 1.539 0-.507 0-1.016 0-1.523 0-.507 0-1.015 0-1.524.447-.098.897-.197 1.349-.297 0 1.74-.002 3.483 0 5.223.002 1.74.003 3.481.003 5.222m4.749-5.588c0 .807-.119 1.435-.35 1.884-.19.37-.452.624-.79.759-.037.015-.072.025-.106.036 0 .75 0 1.499 0 2.248-.459.087-.918.173-1.372.259 0-.745 0-1.491 0-2.238-.038.003-.07.005-.105.005-.325-.005-.578-.158-.761-.45-.236-.374-.357-.947-.357-1.725 0-.972 0-1.945 0-2.917 0-.971 0-1.946 0-2.918.453-.099.906-.2 1.365-.302 0 1 0 2 0 3.01 0 1 0 2 0 3 0 .21.03.364.081.464.087.171.25.235.487.188.163-.033.287-.126.382-.287.092-.157.134-.354.134-.585 0-1 0-2.01 0-3.01 0-1 0-2.01 0-3.02.459-.102.924-.206 1.392-.308 0 .985 0 1.97 0 2.953 0 .983 0 1.969 0 2.953"/><path fill="url(#SVGID_16_)" d="m122.87 63.35c1.907-.676 4.138.189 6.243 0-.471.421-.941.842-1.412 1.262.471.432.941.865 1.412 1.299-2.081 0-4.385-.51-6.243 0 0-.853 0-1.707 0-2.561"/></g><rect x="122.56" y="63.35" fill="url(#SVGID_17_)" width=".635" height="34.678"/><path fill-rule="evenodd" fill="url(#SVGID_18_)" d="m133.08 65.18c1.807-.641 3.92.18 5.914 0-.444.399-.891.797-1.338 1.195.447.41.894.82 1.338 1.23-1.971 0-4.153-.481-5.914 0 0-.808 0-1.616 0-2.425"/><rect x="132.76" y="65.18" fill="url(#SVGID_19_)" width=".637" height="32.855"/><path fill-rule="evenodd" fill="url(#SVGID_20_)" d="m143.81 67.28c1.692-.6 3.669.166 5.537 0-.417.373-.835.746-1.252 1.119.417.383.835.768 1.252 1.15-1.846 0-3.89-.45-5.537 0 0-.755 0-1.511 0-2.269"/><rect x="143.49" y="67.28" fill="url(#SVGID_21_)" width=".637" height="30.756"/><g fill-rule="evenodd"><polygon fill="url(#SVGID_22_)" points="11.294,97.27 25.018,97.27 23.788,93.809 
	12.241,94.457 "/><path fill="url(#SVGID_23_)" d="m12.714 93.35c3.534 0 7.07-.513 10.601-.513v-31.979c-.0001-3.342-8.549.751-10.601 4.115 0 9.288 0 19.09 0 28.377"/><g fill="url(#SVGID_24_)"><path d="m43.38 17.772c-3.745 1.254-6.442 3.281-6.442 7.665v6.682c.432-3.224 3-4.802 6.442-5.812v-8.535"/><path d="m43.38 26.307c-3.44 1.01-6.01 2.588-6.442 5.812v8.56c.432-2.941 3-4.381 6.442-5.303v-9.07"/><path d="m43.38 44.44c-3.44.834-6.01 2.135-6.442 4.795v8.561c.432-2.379 3-3.543 6.442-4.288v-9.07"/><path d="m43.38 62.58c-3.44.656-6.01 1.682-6.442 3.777v8.561c.432-1.814 3-2.702 6.442-3.271v-9.07"/><path d="m43.38 80.72c-3.44.48-6.01 1.229-6.442 2.763v8.559c.432-1.25 3-1.861 6.442-2.252v-9.07"/><path d="m43.38 89.78c-3.44.391-6.01 1-6.442 2.252.432-1.25 3-1.861 6.442-2.252m0-9.07c-3.44.48-6.01 1.229-6.442 2.763v8.559 5.996h6.442v-8.248-9.07"/><path d="m36.941 83.48c.432-1.533 3-2.282 6.442-2.763v-9.07c-3.44.569-6.01 1.457-6.442 3.271v8.561"/><path d="m36.941 66.36c.432-2.096 3-3.121 6.442-3.777v-9.07c-3.44.745-6.01 1.909-6.442 4.288v8.558"/><path d="m36.941 49.24c.432-2.661 3-3.961 6.442-4.795v-9.07c-3.44.921-6.01 2.361-6.442 5.303v8.559"/></g><g fill="url(#SVGID_33_)"><path d="m82.998 87.78c-5.474-.471-7.674-.365-12.03-.053l-2.942.213v10.1h14.972v-10.258z"/><path d="m70.969 87.72c4.355-.313 6.556-.418 12.03.053v-9.52c-5.474-.578-7.674-.45-12.03-.064l-2.942.26v9.484l2.942-.213"/><path d="m70.969 78.19c4.355-.386 6.556-.514 12.03.064v-9.521c-5.474-.684-7.674-.532-12.03-.076l-2.942.309v9.484l2.942-.26"/><path d="m70.969 68.66c4.355-.456 6.556-.607 12.03.076v-9.52c-5.474-.791-7.674-.616-12.03-.09l-2.942.357v9.484l2.942-.307"/><path d="m70.969 59.12c4.355-.526 6.556-.701 12.03.09v-9.521c-5.474-.897-7.674-.699-12.03-.1l-2.942.402v9.486l2.942-.357"/><path d="m70.969 49.594c4.355-.599 6.556-.797 12.03.1v-9.521c-5.474-1-7.674-.781-12.03-.112l-2.942.452v9.484l2.942-.403"/><path d="m70.969 40.06c4.355-.668 6.556-.891 12.03.112v-9.521c-5.474-1.11-7.674-.864-12.03-.124l-2.942.5v9.484l2.942-.451"/><path d="m70.969 30.528c4.355-.74 6.556-.986 12.03.124v-9.521c-5.474-1.217-7.674-.947-12.03-.136l-2.942.547v9.485l2.942-.499"/><path d="m70.969 20.996c4.355-.812 6.556-1.081 12.03.136v-9.236c-5.426-1.355-7.627-1.05-11.965-.139l-3.01.632v9.154l2.942-.547"/></g><g fill="url(#SVGID_42_)"><path d="m107 18.14v8.512c3.346 1.132 5.709 2.842 5.709 6.458v-7.679c0-4.082-2.363-6.01-5.709-7.291"/><path d="m112.71 33.12c0-3.616-2.363-5.327-5.709-6.458v9.04c3.337 1.03 5.697 2.586 5.709 5.87v-8.45"/><path d="m112.71 41.565c-.012-3.284-2.372-4.84-5.709-5.87v9.04c3.337.934 5.697 2.34 5.709 5.308v-8.45-.024"/><path d="m112.71 50.04c-.012-2.968-2.372-4.375-5.709-5.308v9.04c3.337.834 5.697 2.092 5.709 4.745v-8.452-.024"/><path d="m112.71 58.52c-.012-2.653-2.372-3.911-5.709-4.745v9.04c3.337.735 5.697 1.844 5.709 4.184v-8.456-.02"/><path d="m112.71 66.99c-.012-2.34-2.372-3.448-5.709-4.184v9.04c3.337.636 5.697 1.595 5.709 3.62v-8.457-.017"/><path d="m112.71 75.47c-.012-2.025-2.372-2.984-5.709-3.62v9.04c3.337.537 5.697 1.348 5.709 3.057v-8.46-.015"/><path d="m112.71 83.939c-.012-1.709-2.372-2.52-5.709-3.057v9.04c3.346.439 5.709 1.103 5.709 2.506v-8.473-.013"/><path d="m112.71 92.43c0-1.403-2.363-2.066-5.709-2.506v8.113h5.709v-5.607"/></g></g></svg>