<svg xmlns="http://www.w3.org/2000/svg" viewBox="0 0 198.763 112.05" enable-background="new 0 0 198.763 112.05" xmlns:xlink="http://www.w3.org/1999/xlink"><defs><linearGradient id="SVGID_22_" gradientUnits="userSpaceOnUse" x1="12.214" x2="43.815" xlink:href="#SVGID_1_"/><linearGradient id="SVGID_21_" gradientUnits="userSpaceOnUse" x1="76.81" x2="94.07" xlink:href="#SVGID_1_"/><linearGradient id="SVGID_12_" gradientUnits="userSpaceOnUse" x1="40.611" x2="93.72" xlink:href="#SVGID_1_"/><linearGradient id="SVGID_20_" gradientUnits="userSpaceOnUse" x1="77.12" x2="93.14" xlink:href="#SVGID_1_"/><linearGradient id="SVGID_13_" gradientUnits="userSpaceOnUse" x1="42.656" x2="95.79" xlink:href="#SVGID_1_"/><linearGradient id="SVGID_6_" gradientUnits="userSpaceOnUse" x1="33.891" x2="40.699" xlink:href="#SVGID_1_"/><linearGradient id="SVGID_10_" gradientUnits="userSpaceOnUse" x1="36.52" x2="89.56" xlink:href="#SVGID_1_"/><linearGradient id="SVGID_7_" gradientUnits="userSpaceOnUse" x1="63.48" x2="99.8" xlink:href="#SVGID_1_"/><linearGradient id="SVGID_23_" gradientUnits="userSpaceOnUse" x1="12.198" x2="43.831" xlink:href="#SVGID_1_"/><linearGradient id="SVGID_11_" gradientUnits="userSpaceOnUse" x1="38.565" x2="91.64" xlink:href="#SVGID_1_"/><linearGradient id="SVGID_35_" gradientUnits="userSpaceOnUse" x1="145.41" x2="190.19" xlink:href="#SVGID_1_"/><linearGradient id="SVGID_24_" gradientUnits="userSpaceOnUse" x1="72.6" x2="119.66" xlink:href="#SVGID_1_"/><linearGradient id="SVGID_33_" gradientUnits="userSpaceOnUse" x1="55.45" x2="99.5" xlink:href="#SVGID_1_"/><linearGradient id="SVGID_32_" gradientUnits="userSpaceOnUse" x1="55.5" x2="99.48" xlink:href="#SVGID_1_"/><linearGradient id="SVGID_25_" gradientUnits="userSpaceOnUse" x1="72.48" x2="119.76" xlink:href="#SVGID_1_"/><linearGradient id="SVGID_27_" gradientUnits="userSpaceOnUse" x1="143.86" x2="191.74" xlink:href="#SVGID_1_"/><linearGradient id="SVGID_26_" gradientUnits="userSpaceOnUse" x1="143.87" x2="191.72" xlink:href="#SVGID_1_"/><linearGradient id="SVGID_5_" gradientUnits="userSpaceOnUse" x1="23.898" x2="30.26" xlink:href="#SVGID_1_"/><linearGradient id="SVGID_16_" gradientUnits="userSpaceOnUse" x1="72.56" x2="119.7" xlink:href="#SVGID_1_"/><linearGradient id="SVGID_15_" gradientUnits="userSpaceOnUse" x1="43.792" x2="49.876" xlink:href="#SVGID_1_"/><linearGradient id="SVGID_4_" gradientUnits="userSpaceOnUse" x1="14.596" x2="20.569" xlink:href="#SVGID_1_"/><linearGradient id="SVGID_14_" gradientUnits="userSpaceOnUse" x1="95.47" x2="99.8" xlink:href="#SVGID_1_"/><linearGradient id="SVGID_9_" gradientUnits="userSpaceOnUse" x1="52.04" x2="102.22" xlink:href="#SVGID_1_"/><linearGradient id="SVGID_1_" gradientUnits="userSpaceOnUse" x1="49.13" x2="99.49"><stop stop-color="#12397f"/><stop offset=".713" stop-color="#3a71ce"/><stop offset="1" stop-color="#3a71ce"/></linearGradient><linearGradient id="SVGID_8_" gradientUnits="userSpaceOnUse" x1="48.21" x2="106.74" xlink:href="#SVGID_1_"/><linearGradient id="SVGID_2_" gradientUnits="userSpaceOnUse" x1="0" x2="198.76" xlink:href="#SVGID_1_"/><linearGradient id="SVGID_17_" gradientUnits="userSpaceOnUse" x1="55.27" x2="74.59" xlink:href="#SVGID_1_"/><linearGradient id="SVGID_3_" gradientUnits="userSpaceOnUse" x1="11.897" x2="44.13" xlink:href="#SVGID_1_"/><linearGradient id="SVGID_34_" gradientUnits="userSpaceOnUse" x1="99.48" x2="142.34" xlink:href="#SVGID_1_"/><linearGradient id="SVGID_18_" gradientUnits="userSpaceOnUse" x1="71.69" x2="78.52" xlink:href="#SVGID_1_"/><linearGradient id="SVGID_31_" gradientUnits="userSpaceOnUse" x1="54.35" x2="60.966" xlink:href="#SVGID_1_"/><linearGradient id="SVGID_30_" gradientUnits="userSpaceOnUse" x1="66.35" x2="73.17" xlink:href="#SVGID_1_"/><linearGradient id="SVGID_19_" gradientUnits="userSpaceOnUse" x1="76.79" x2="77.43" xlink:href="#SVGID_1_"/><linearGradient id="SVGID_29_" gradientUnits="userSpaceOnUse" x1="78.34" x2="85.37" xlink:href="#SVGID_1_"/><linearGradient id="SVGID_28_" gradientUnits="userSpaceOnUse" x1="90.33" x2="97.57" xlink:href="#SVGID_1_"/></defs><polygon fill="url(#SVGID_1_)" points="99.474,49.842 49.127,48.673 49.142,48.037 99.489,49.206 "/><rect y="110.03" fill-rule="evenodd" fill="url(#SVGID_2_)" width="198.76" height="2.02"/><path fill="url(#SVGID_3_)" d="m44.13 110.35h-32.24v-56.63l.25-.055c3.593-.789 7.291-1.598 11.09-2.431l20.894-4.576v63.69m-31.603-.637h30.965v-62.26l-20.12 4.407c-3.715.813-7.328 1.604-10.844 2.375v55.48"/><path fill="url(#SVGID_4_)" d="m14.596 107.01v-.322c0-8.391.0001-16.791.002-25.19.002-8.389.003-16.791.006-25.2v-.26l.253-.053c1.75-.363 3.525-.732 5.327-1.107l.384-.079v.391c0 8.581-.003 17.16-.004 25.717v.133c-.0001 8.529-.003 17.06-.003 25.579v.314l-5.966.077m.645-50.46c-.003 8.321-.005 16.637-.006 24.939-.002 8.295-.003 16.588-.003 24.87l4.694-.06c0-8.415.002-16.84.004-25.27v-.13c.0001-8.433.003-16.877.003-25.326-1.584.33-3.148.654-4.692.974"/><path fill="url(#SVGID_5_)" d="m23.898 106.89v-26.42c0-8.691 0-17.395.003-26.1v-.259l1.55-.322c1.459-.303 2.934-.609 4.423-.919l.382-.08v.391c.003 8.888.003 17.785.003 26.662v26.969l-6.361.082m.639-52.26c-.003 8.623-.003 17.24-.003 25.845v25.777l5.09-.066v-26.342c0-8.747 0-17.512-.003-26.27-1.358.282-2.706.562-4.04.839l-1.044.217"/><path fill="url(#SVGID_6_)" d="m33.897 106.76v-.321c-.002-5.417-.002-10.834-.002-16.253 0-3.605 0-7.211-.0001-10.818-.0001-9.02-.003-18.05-.003-27.08v-.259l6.799-1.413v.391c.0001 5.538.0001 11.07.002 16.612 0 3.69 0 7.379.0001 11.07.0001 9.228.002 18.449.006 27.67v.314l-6.802.088m.63-54.21c0 8.941.0001 17.889.003 26.818 0 3.607 0 7.213.0001 10.818 0 5.311 0 10.621.0001 15.93l5.529-.07c-.002-9.117-.003-18.234-.006-27.357 0-3.688 0-7.376 0-11.07-.0001-5.406-.0001-10.814-.003-16.22l-5.525 1.147"/><polygon fill-rule="evenodd" fill="#fff" points="63.796,100.923 99.481,99.949 99.481,42.388 
		63.796,48.454 	"/><path fill="url(#SVGID_7_)" d="m63.48 101.25v-53.06l36.32-6.174v58.25l-36.32.992m.635-52.53v51.875l35.05-.959v-56.872l-35.05 5.956"/><path fill="url(#SVGID_8_)" d="m48.21 48.873l.695-.737c1.684-1.782 3.419-3.614 5.192-5.484.777-.819 1.565-1.648 2.36-2.484 1.073-1.128 2.161-2.272 3.26-3.434 1.377-1.45 2.777-2.928 4.201-4.432l1.861-1.964c1.01-1.065 2.036-2.146 3.077-3.239 1.156-1.217 2.33-2.452 3.515-3.705l.149-.156 2.059.813c1.726.683 3.489 1.379 5.288 2.087 1.447.569 2.92 1.147 4.419 1.734 1.125.441 2.264.886 3.416 1.339 1.377.543 2.778 1.094 4.201 1.654 1.437.564 2.896 1.139 4.374 1.721 1.688.665 3.411 1.339 5.166 2.025 1.414.553 2.85 1.114 4.302 1.685l.994.391-1.045.218c-4.524.94-8.842 1.84-12.974 2.699l-5.076 1.057c-5.288 1.102-10.276 2.139-14.981 3.12-3.725.774-7.284 1.516-10.683 2.224l-13.77 2.868m24.477-24.884c-1.137 1.199-2.261 2.381-3.37 3.548-1.039 1.094-2.066 2.173-3.075 3.239l-1.861 1.965c-1.424 1.504-2.824 2.982-4.2 4.431-1.1 1.163-2.188 2.307-3.262 3.436-.795.836-1.583 1.664-2.359 2.484-1.529 1.612-3.03 3.197-4.496 4.746l11.786-2.455c3.4-.708 6.958-1.449 10.683-2.224 4.706-.98 9.694-2.02 14.982-3.12l5.076-1.056c3.812-.794 7.782-1.621 11.927-2.483-1.113-.437-2.216-.868-3.308-1.295-1.755-.687-3.479-1.36-5.166-2.025-1.478-.582-2.938-1.155-4.375-1.722-1.422-.56-2.824-1.11-4.2-1.652-1.152-.453-2.292-.9-3.416-1.34-1.498-.587-2.973-1.165-4.42-1.735-1.799-.708-3.562-1.404-5.289-2.087l-1.657-.655"/><g fill="#fff" fill-rule="evenodd"><path d="m54.35 101.14c2.209-.079 4.408-.157 6.613-.235-.033-8.768-.071-17.534-.1-26.303-.028-8.768-.062-17.537-.09-26.307-1.749-.635-3.733-.888-6.135-.082-.053 8.819-.101 17.639-.147 26.459-.049 8.823-.097 17.645-.141 26.468"/><path d="m66.34 100.8c2.281-.081 4.551-.161 6.823-.243-.036-9.129-.074-18.265-.105-27.397-.031-9.134-.067-18.271-.099-27.408-1.807-.666-3.851-.939-6.33-.104-.053 9.191-.1 18.383-.147 27.575-.049 9.192-.095 18.387-.142 27.577"/><path d="m78.34 100.46c2.352-.084 4.693-.168 7.03-.252-.04-9.492-.077-18.994-.11-28.493-.034-9.499-.072-19-.107-28.508-1.866-.697-3.97-.99-6.524-.124-.053 9.563-.101 19.13-.148 28.69-.049 9.56-.097 19.13-.143 28.687"/><path d="m90.33 100.13c2.424-.086 4.836-.173 7.244-.259-.044-9.856-.081-19.726-.117-29.59-.037-9.864-.079-19.736-.117-29.608-1.923-.729-4.087-1.042-6.719-.144-.052 9.935-.1 19.87-.147 29.802-.049 9.934-.096 19.872-.144 29.799"/></g><path fill="url(#SVGID_9_)" d="m52.05 46.811l.694-.736c1.435-1.522 2.914-3.087 4.425-4.683.656-.693 1.32-1.393 1.991-2.1.921-.97 1.854-1.955 2.798-2.954 1.149-1.212 2.318-2.449 3.506-3.705l1.66-1.755c.863-.914 1.741-1.839 2.63-2.777.982-1.035 1.979-2.086 2.988-3.153l.148-.157 1.794.711c1.469.581 2.967 1.174 4.495 1.778 1.228.483 2.477.975 3.747 1.473.964.379 1.941.762 2.93 1.151 1.168.461 2.356.929 3.563 1.404 1.23.485 2.48.978 3.746 1.478 1.44.568 2.913 1.145 4.411 1.732 1.203.472 2.422.95 3.656 1.436l.991.389-1.042.218c-3.812.793-7.451 1.553-10.936 2.28l-4.445.928c-4.507.939-8.758 1.826-12.768 2.663-3.057.637-5.982 1.247-8.781 1.832l-12.201 2.547m21.01-21.269c-.958 1.013-1.905 2.01-2.839 2.997-.89.938-1.767 1.862-2.631 2.775l-1.659 1.755c-1.188 1.257-2.357 2.493-3.507 3.707-.943.998-1.878 1.983-2.799 2.953-.671.707-1.335 1.406-1.991 2.1-1.268 1.34-2.513 2.657-3.729 3.945l10.222-2.133c2.799-.584 5.724-1.194 8.78-1.832 4.01-.837 8.261-1.725 12.768-2.663l4.445-.928c3.165-.66 6.458-1.348 9.893-2.063-.897-.352-1.786-.7-2.665-1.044-1.499-.588-2.972-1.165-4.413-1.733-1.265-.5-2.514-.992-3.746-1.478-1.207-.475-2.394-.944-3.562-1.404-.988-.389-1.965-.772-2.929-1.151-1.271-.499-2.52-.989-3.748-1.474-1.529-.603-3.03-1.196-4.495-1.777l-1.395-.552"/><polygon fill-rule="evenodd" fill="#fff" points="36.839,109.992 89.248,109.992 89.248,107.449 
		36.839,107.83 	"/><path fill="url(#SVGID_10_)" d="m89.56 110.31h-53.04v-2.795l53.04-.387v3.182m-52.41-.637h51.772v-1.904l-51.772.377v1.527"/><path fill-rule="evenodd" fill="#fff" d="m38.884 107.89c17.472-.139 34.944-.277 52.42-.418.007-.834.013-1.669.02-2.504-17.479.254-34.958.508-52.44.76 0 .722 0 1.441 0 2.162"/><path fill="url(#SVGID_11_)" d="m38.565 108.21v-2.795l11.167-.162 41.908-.607-.025 3.143-53.05.421m.637-2.168v1.527l51.783-.412.014-1.866-51.797.751"/><path fill-rule="evenodd" fill="#fff" d="m40.929 105.79c17.475-.278 34.95-.557 52.42-.836.013-.822.025-1.643.038-2.465-17.487.379-34.976.76-52.46 1.139 0 .72 0 1.441 0 2.162"/><path fill="url(#SVGID_12_)" d="m40.611 106.11v-2.797l53.11-1.152-.049 3.102-.308.006-52.749.841m.636-2.174v1.526l51.794-.826.029-1.825-51.823 1.125"/><polygon fill-rule="evenodd" fill="#fff" points="42.975,103.687 95.408,102.433 95.466,100.007 
		42.975,101.526 	"/><path fill="url(#SVGID_13_)" d="m42.656 104.01v-2.797l53.14-1.536-.073 3.063-53.06 1.27m.637-2.18v1.527l51.805-1.238.042-1.787-51.847 1.498"/><polygon fill="url(#SVGID_14_)" points="99.8,109.989 99.164,109.989 99.164,100.275 95.466,100.275 95.466,99.638 99.8,99.638 "/><polygon fill="url(#SVGID_15_)" points="49.83,47.818 43.792,47.372 43.839,46.737 49.876,47.184 "/><polygon fill="url(#SVGID_16_)" points="119.621,29.894 72.561,23.929 72.641,23.298 119.701,29.263 "/><polygon fill="url(#SVGID_17_)" points="55.729,45.983 55.265,45.548 74.131,25.5 74.595,25.937 "/><path fill="url(#SVGID_18_)" d="m75.1 40.19c-1.883 0-3.416-2.397-3.416-5.346 0-2.947 1.533-5.345 3.416-5.345s3.415 2.397 3.415 5.345c0 2.949-1.533 5.346-3.415 5.346m0-10.05c-1.507 0-2.779 2.157-2.779 4.708 0 2.553 1.272 4.71 2.779 4.71s2.778-2.157 2.778-4.71c0-2.551-1.272-4.708-2.778-4.708"/><rect x="76.79" y=".777" fill="url(#SVGID_19_)" width=".637" height="23.408"/><path fill-rule="evenodd" fill="url(#SVGID_20_)" d="m77.12.994c4.896-1.738 10.618.482 16.02 0-1.208 1.078-2.416 2.156-3.624 3.235 1.208 1.11 2.416 2.221 3.624 3.331-5.34 0-11.253-1.302-16.02 0 0-2.189 0-4.377 0-6.566"/><path fill="url(#SVGID_21_)" d="m76.81 7.978v-7.208l.211-.076c1.316-.466 2.805-.694 4.554-.694 1.607 0 3.285.188 4.909.37 1.645.185 3.347.376 5 .376.58 0 1.115-.022 1.636-.068l.958-.086-4.079 3.641 3.966 3.646h-.816c-1.792 0-3.673-.147-5.493-.291-1.807-.143-3.674-.288-5.442-.288-1.968 0-3.604.185-5 .567l-.402.111m5.404-1.316c1.793 0 3.673.148 5.492.291 1.527.121 3.098.243 4.616.279l-3.271-3.01 3.2-2.856c-.249.009-.503.014-.767.014-1.689 0-3.409-.193-5.072-.38-1.606-.181-3.265-.367-4.837-.367-1.581 0-2.935.191-4.13.584v5.929c1.363-.328 2.928-.488 4.769-.488"/><path fill-rule="evenodd" fill="url(#SVGID_22_)" d="m43.815 47.05l-16.724 3.662c-5.145 1.126-10.1 2.213-14.877 3.26v28.04 28.02h14.875 16.726v-.041h-6.977v-2.162l2.045-.014v-1.435l-4.669.061c-.002-9.02-.0001-18.04-.002-27.07-.0001-9.02-.003-18.05-.003-27.08l6.162-1.28c.004 9.228.0001 18.462.004 27.677.0001 9.01.002 18.01.006 27.02l.548-.008v-2.072l2.045-.043v-2.058l.841-.024v-22.947-31.501m-13.875 6.125c.002 8.89.002 17.785.002 26.662v26.656l-5.726.073v-26.1c0-8.691 0-17.395.003-26.1l5.721-1.188m-15.02 3.12l5.329-1.108c0 8.581-.002 17.16-.004 25.717-.002 8.574-.003 17.15-.003 25.712l-5.331.069c0-8.391.002-16.791.003-25.19.002-8.388.003-16.79.006-25.2"/><path fill="url(#SVGID_23_)" d="m43.832 110.05h-31.634v-56.09l.013-.002c3.6-.79 7.304-1.601 11.11-2.435l20.508-4.492v54.48l-.84.023v2.059h-.017l-2.03.043v2.072l-.581.001v-.018c-.004-9-.005-18.01-.006-27.02-.0001-3.684-.0001-7.369-.0001-11.06 0-5.531 0-11.07-.002-16.602l-6.129 1.274c0 9.02.0001 18.05.002 27.06 0 3.611.0001 7.221.0001 10.83 0 5.41 0 10.816.002 16.225l4.668-.061v1.467h-.016l-2.029.016v2.129h6.977v.073zm-31.601-.032h31.568v-.007h-6.977v-2.195h.017l2.03-.015v-1.401l-4.669.061v-.017c-.0001-5.413-.0001-10.827-.0001-16.241 0-3.609-.0001-7.219-.002-10.83-.0001-9.02-.002-18.05-.002-27.08v-.013l.012-.002 6.182-1.285v.021c.0001 5.541.0001 11.08.002 16.621 0 3.688 0 7.373.0001 11.06.0001 9 .002 18 .006 27l.517-.008v-2.072h.016l2.029-.045v-2.057l.841-.023v-54.41l-20.468 4.483c-3.805.833-7.505 1.644-11.1 2.432v56.03zm2.665-3.309v-.016c0-8.391.002-16.791.004-25.19.0001-8.389.003-16.791.006-25.2v-.014l.012-.002 5.348-1.112v.02c0 8.581-.0001 17.16-.003 25.717-.002 8.574-.003 17.15-.003 25.712v.017h-.016l-5.348.068m.042-50.39c-.002 8.402-.004 16.799-.006 25.18-.002 8.396-.003 16.793-.003 25.18l5.298-.067c0-8.559.0001-17.13.002-25.697.002-8.555.004-17.12.004-25.697l-5.295 1.1m9.262 50.27v-26.12c0-8.551 0-17.395.004-26.1v-.013l5.752-1.195v.02c.003 8.89.003 17.924.003 26.662v26.671l-.017.0001-5.742.073m.035-52.21c-.003 8.704-.003 17.544-.003 26.09v26.08l5.694-.074v-26.639c0-8.73 0-17.759-.003-26.641l-5.688 1.181"/><path fill-rule="evenodd" fill="url(#SVGID_24_)" d="m87.58 29.509c2.768 1.09 5.636 2.216 8.576 3.375 1.093.43 2.201.864 3.322 1.304v-.188c6.476-1.419 13.203-2.892 20.18-4.421l-42.551-5.393-4.51-.573c2.316.916 4.699 1.859 7.146 2.822 2.536.998 5.148 2.02 7.837 3.074"/><path fill="url(#SVGID_25_)" d="m99.5 34.21l-.022-.009c-1.346-.526-2.371-.929-3.324-1.304-1.479-.583-2.939-1.157-4.378-1.723-1.421-.559-2.821-1.11-4.196-1.652-1.152-.452-2.289-.898-3.413-1.338-1.53-.6-2.974-1.165-4.423-1.736-1.797-.706-3.57-1.408-5.285-2.086l-1.98-.782 4.637.587 42.644 5.406-5.75 1.26c-4.969 1.088-9.805 2.147-14.509 3.178v.199zm-26.771-10.565l1.741.688c1.715.677 3.488 1.378 5.285 2.085 1.449.571 2.894 1.137 4.423 1.736 1.124.44 2.261.886 3.413 1.338 1.376.542 2.776 1.093 4.198 1.652 1.438.565 2.899 1.14 4.379 1.723.947.373 1.965.772 3.3 1.295v-.177l.014-.003c4.708-1.032 9.549-2.093 14.521-3.182l5.566-1.219-46.84-5.936"/><polygon fill-rule="evenodd" fill="url(#SVGID_26_)" points="143.871,24.611 143.871,67.339 143.871,110.033 
		191.722,110.033 191.722,33.05 	"/><path fill="url(#SVGID_27_)" d="m191.74 110.05h-47.882v-85.46l.019.003 47.863 8.441v77.01m-47.849-.032h47.817v-76.953l-47.817-8.434v85.39"/><g fill-rule="evenodd"><path fill="url(#SVGID_28_)" d="m97.37 49.48c-.008-2.24-.018-4.481-.027-6.723-.002-.693-.006-1.387-.008-2.08-1.923-.729-4.087-1.042-6.719-.144-.005 1.124-.012 2.247-.018 3.37-.009 1.807-.018 3.613-.027 5.419-.036 7.01-.069 14.01-.103 21.01l-.144 29.799 7.244-.259c-.044-9.856-.081-19.726-.117-29.59-.025-6.933-.054-13.868-.081-20.805"/><path fill="url(#SVGID_29_)" d="m85.26 71.72c-.027-7.507-.057-15.02-.085-22.528-.006-1.456-.011-2.912-.017-4.368-.002-.538-.004-1.075-.005-1.613-1.866-.697-3.97-.99-6.524-.124-.006.95-.011 1.899-.016 2.849-.005 1.034-.001 2.069-.016 3.103-.041 7.58-.078 15.16-.116 22.738l-.142 28.688 7.03-.252c-.041-9.492-.078-18.994-.111-28.493"/><path fill="url(#SVGID_30_)" d="m73.06 73.16c-.028-8.08-.059-16.16-.088-24.25-.0001-.67-.005-1.342-.007-2.01 0-.381-.002-.762-.003-1.144-1.807-.666-3.851-.939-6.33-.104-.004.775-.009 1.551-.013 2.326-.0001.262-.002.524-.004.788-.046 8.152-.088 16.307-.13 24.461-.048 9.191-.095 18.387-.141 27.577l6.823-.243c-.038-9.129-.076-18.264-.107-27.397"/><path fill="url(#SVGID_31_)" d="m60.866 74.6c-.027-8.656-.06-17.314-.089-25.972 0-.111 0-.224-.0001-.335-1.749-.635-3.733-.888-6.135-.082 0 .091-.0001.183-.0001.274-.054 8.728-.1 17.457-.146 26.18-.048 8.822-.096 17.645-.141 26.468l6.613-.235c-.032-8.768-.07-17.534-.1-26.303"/><path fill="url(#SVGID_32_)" d="m62.18 44.37l10.784-2.25 12.767-2.664c4.323-.901 8.896-1.856 13.75-2.868v-.98c-2.202-.864-4.351-1.705-6.438-2.527-2.505-.988-4.948-1.951-7.308-2.882-2.292-.902-4.518-1.772-6.678-2.624-1.598-.631-3.163-1.251-4.695-1.858l-18.865 20.05 6.683-1.395m9.824-9.524c0-2.776 1.387-5.03 3.098-5.03s3.097 2.251 3.097 5.03c0 2.777-1.386 5.03-3.097 5.03s-3.098-2.251-3.098-5.03"/></g><path fill="url(#SVGID_33_)" d="m55.45 45.792l.035-.037 18.874-20.06.001.003c1.431.567 3.052 1.209 4.695 1.858 1.229.485 2.453.965 3.749 1.474.964.378 1.941.762 2.929 1.15 1.167.461 2.357.931 3.563 1.406 1.231.485 2.48.977 3.745 1.476 1.456.575 2.914 1.146 4.458 1.751.654.257 1.315.516 1.98.776l.001.004v1l-.013.003c-3.346.697-6.559 1.368-9.647 2.01l-34.388 7.176m18.917-20.06l-18.823 20 34.29-7.153c3.086-.644 6.293-1.313 9.635-2.01v-.957c-.661-.26-1.318-.517-1.97-.773-1.544-.604-3-1.176-4.458-1.75-1.265-.5-2.514-.992-3.744-1.476-1.207-.476-2.396-.944-3.563-1.406-.988-.389-1.965-.772-2.929-1.15-1.296-.509-2.521-.99-3.749-1.474-1.64-.648-3.257-1.287-4.685-1.854m.735 14.15c-1.717 0-3.114-2.262-3.114-5.04 0-2.78 1.397-5.04 3.114-5.04 1.716 0 3.113 2.262 3.113 5.04 0 2.782-1.398 5.04-3.113 5.04m0-10.05c-1.699 0-3.081 2.248-3.081 5.01 0 2.764 1.382 5.01 3.081 5.01 1.699 0 3.081-2.248 3.081-5.01-.0001-2.763-1.383-5.01-3.081-5.01"/><g fill-rule="evenodd"><path fill="url(#SVGID_34_)" d="m129.31 31.717l8.357-1.737c.005 12.517.003 25.04.005 37.542.002 12.516.004 25.02.009 37.531l-8.363.109c-.004-12.236-.002-24.473-.004-36.719-.002-12.229-.004-24.481-.004-36.726m13.03 35.622v-42.728l-22.684 4.967c-6.978 1.529-13.704 3-20.18 4.421v.188 1.422.98 1.282 4.516 7.136 22.507 27.918.008 10.03.044h20.18 22.688v-42.693m-18.822-34.42c.005 12.06.005 24.12.005 36.16v36.15l-7.768.101v-35.4c0-11.789 0-23.593.005-35.406l7.758-1.612m-20.369 4.231l7.228-1.501c0 11.638-.003 23.269-.005 34.882-.002 11.631-.004 23.261-.004 34.875l-7.23.094c0-11.379.002-22.775.004-34.17.0001-11.381.003-22.776.007-34.18"/><polygon fill="#fff" points="145.422,27.38 145.422,67.338 145.422,107.264 
		190.17,107.264 190.17,35.272 	"/></g><path fill="url(#SVGID_35_)" d="m190.19 107.28h-44.78v-79.921l.02.003 44.761 7.895v72.02zm-44.748-.033h44.714v-71.962l-44.714-7.886v79.85"/><polygon fill="#fff" points="99.524,37.872 99.439,37.872 99.439,33.965 99.472,33.958 120.052,29.295 120.07,29.379 
	99.524,34.033 "/></svg>