<svg xmlns="http://www.w3.org/2000/svg" viewBox="0 0 155.065 79.542" enable-background="new 0 0 155.065 79.542" xmlns:xlink="http://www.w3.org/1999/xlink"><defs><linearGradient id="SVGID_18_" gradientUnits="userSpaceOnUse" x1="43.895" x2="76.12" xlink:href="#SVGID_1_"/><linearGradient id="SVGID_8_" gradientUnits="userSpaceOnUse" x1="32.32" x2="83.925" xlink:href="#SVGID_1_"/><linearGradient id="SVGID_10_" gradientUnits="userSpaceOnUse" x1="47.892" x2="74.18" xlink:href="#SVGID_1_"/><linearGradient id="SVGID_9_" gradientUnits="userSpaceOnUse" x1="37.13" x2="79.29" xlink:href="#SVGID_1_"/><linearGradient id="SVGID_2_" gradientUnits="userSpaceOnUse" x1="21.372" x2="135.38" xlink:href="#SVGID_1_"/><linearGradient id="SVGID_42_" gradientUnits="userSpaceOnUse" x1="21.531" x2="32.33" xlink:href="#SVGID_1_"/><linearGradient id="SVGID_38_" gradientUnits="userSpaceOnUse" x1="21.531" x2="32.32" xlink:href="#SVGID_1_"/><linearGradient id="SVGID_41_" gradientUnits="userSpaceOnUse" x1="32.33" x2="52.973" xlink:href="#SVGID_1_"/><linearGradient id="SVGID_40_" gradientUnits="userSpaceOnUse" x1="52.97" x2="83.91" xlink:href="#SVGID_1_"/><linearGradient id="SVGID_11_" gradientUnits="userSpaceOnUse" x1="47.77" x2="74.38" xlink:href="#SVGID_1_"/><linearGradient id="SVGID_14_" gradientUnits="userSpaceOnUse" x1="36.97" x2="79.45" xlink:href="#SVGID_1_"/><linearGradient id="SVGID_15_" gradientUnits="userSpaceOnUse" x1="38.701" x2="78.62" xlink:href="#SVGID_1_"/><linearGradient id="SVGID_17_" gradientUnits="userSpaceOnUse" x1="42.16" x2="76.952" xlink:href="#SVGID_1_"/><linearGradient id="SVGID_16_" gradientUnits="userSpaceOnUse" x1="40.43" x2="77.79" xlink:href="#SVGID_1_"/><linearGradient id="SVGID_24_" gradientUnits="userSpaceOnUse" x1="142.78" x2="155.07" xlink:href="#SVGID_1_"/><linearGradient id="SVGID_23_" gradientUnits="userSpaceOnUse" x1="142.94" x2="154.6" xlink:href="#SVGID_1_"/><linearGradient id="SVGID_19_" gradientUnits="userSpaceOnUse" x1="45.627" x2="75.29" xlink:href="#SVGID_1_"/><linearGradient id="SVGID_21_" gradientUnits="userSpaceOnUse" x1="3.188" x2="15.475" xlink:href="#SVGID_1_"/><linearGradient id="SVGID_20_" gradientUnits="userSpaceOnUse" x1="3.347" x2="15.01" xlink:href="#SVGID_1_"/><linearGradient id="SVGID_37_" gradientUnits="userSpaceOnUse" x1="83.925" x2="111.42" xlink:href="#SVGID_1_"/><linearGradient id="SVGID_36_" gradientUnits="userSpaceOnUse" x1="111.42" x2="125.91" xlink:href="#SVGID_1_"/><linearGradient id="SVGID_7_" gradientUnits="userSpaceOnUse" x1="125.74" x2="126.07" xlink:href="#SVGID_1_"/><linearGradient id="SVGID_13_" gradientUnits="userSpaceOnUse" x1="0" x2="152.37" xlink:href="#SVGID_1_"/><linearGradient id="SVGID_12_" gradientUnits="userSpaceOnUse" x1="60.29" x2="60.61" xlink:href="#SVGID_1_"/><linearGradient id="SVGID_6_" gradientUnits="userSpaceOnUse" x1="111.24" x2="111.58" xlink:href="#SVGID_1_"/><linearGradient id="SVGID_5_" gradientUnits="userSpaceOnUse" x1="83.75" x2="84.08" xlink:href="#SVGID_1_"/><linearGradient id="SVGID_1_" gradientUnits="userSpaceOnUse" x1="15.29" x2="139.72"><stop stop-color="#12397f"/><stop offset=".713" stop-color="#3a71ce"/><stop offset="1" stop-color="#3a71ce"/></linearGradient><linearGradient id="SVGID_4_" gradientUnits="userSpaceOnUse" x1="52.793" x2="53.13" xlink:href="#SVGID_1_"/><linearGradient id="SVGID_3_" gradientUnits="userSpaceOnUse" x1="32.16" x2="32.49" xlink:href="#SVGID_1_"/><linearGradient id="SVGID_22_" gradientUnits="userSpaceOnUse" x1="3.188" x2="3.506" xlink:href="#SVGID_1_"/><linearGradient id="SVGID_25_" gradientUnits="userSpaceOnUse" x1="142.78" x2="143.1" xlink:href="#SVGID_1_"/><linearGradient id="SVGID_32_" gradientUnits="userSpaceOnUse" x1="83.925" x2="111.42" xlink:href="#SVGID_1_"/><linearGradient id="SVGID_34_" gradientUnits="userSpaceOnUse" x1="125.91" x2="135.22" xlink:href="#SVGID_1_"/><linearGradient id="SVGID_33_" gradientUnits="userSpaceOnUse" x1="111.41" x2="125.91" xlink:href="#SVGID_1_"/><linearGradient id="SVGID_31_" gradientUnits="userSpaceOnUse" x1="125.91" x2="135.22" xlink:href="#SVGID_1_"/><linearGradient id="SVGID_26_" gradientUnits="userSpaceOnUse" x1="83.91" x2="111.4" xlink:href="#SVGID_1_"/><linearGradient id="SVGID_30_" gradientUnits="userSpaceOnUse" x1="111.41" x2="125.91" xlink:href="#SVGID_1_"/><linearGradient id="SVGID_27_" gradientUnits="userSpaceOnUse" x1="111.4" x2="125.91" xlink:href="#SVGID_1_"/><linearGradient id="SVGID_29_" gradientUnits="userSpaceOnUse" x1="83.925" x2="111.41" xlink:href="#SVGID_1_"/><linearGradient id="SVGID_28_" gradientUnits="userSpaceOnUse" x1="125.9" x2="135.22" xlink:href="#SVGID_1_"/></defs><g fill-rule="evenodd"><path fill="url(#SVGID_1_)" d="m122.13 13.874l-3.691 2.064c-.575.322-.646 1.216-.158 1.988l4.367 6.907c.488.771 1.358 1.141 1.934.818l1.332-.745v5.127c-5.077-2.637-11.393-5.066-18.679-7.05v-8.249h-.0001l1.72-.961c.806-.451.905-1.704.223-2.785l-6.12-9.677c-.684-1.082-1.902-1.598-2.708-1.147l-5.171 2.891c-.807.451-.906 1.705-.223 2.786l6.119 9.676c.684 1.082 1.902 1.597 2.709 1.146l1.865-1.042v6.941c-11.551-2.985-25.402-4.851-40.537-4.7-8.05.08-14.846.539-20.575 1.286v-.978l1.155.664c.5.286 1.254-.041 1.678-.729l3.789-6.154c.424-.688.361-1.485-.137-1.772l-3.203-1.839c-.499-.287-1.254.042-1.678.729l-3.789 6.154c-.423.688-.361 1.485.138 1.772l1.065.611v1.674c-5.652.786-10.224 1.861-13.912 3.133v-6.594l1.815 1.043c.785.45 1.972-.065 2.638-1.146l5.958-9.677c.666-1.081.569-2.335-.216-2.786l-5.04-2.892c-.785-.45-1.971.066-2.637 1.147l-5.958 9.676c-.667 1.081-.569 2.334.215 2.785l1.674.961v8.04c-10.375 4.01-12.909 9.698-12.803 14.563.186 8.4 23.945 18.15 60.34 18.15 36.4 0 64.08.08 64.08-11.412 0-4.352-4.63-9.253-12.677-13.644v-6.362l1.227-.686c.575-.322.647-1.217.159-1.988l-4.368-6.907c-.488-.769-1.358-1.137-1.933-.815m-93.42-4.403c.406.233.244 1.22-.362 2.204-.605.983-1.427 1.593-1.832 1.359-.406-.232-.244-1.22.362-2.204.606-.983 1.426-1.592 1.832-1.359m2.644-4.293c.406.232.244 1.219-.362 2.204-.606.985-1.426 1.593-1.833 1.36-.406-.233-.244-1.22.362-2.203.607-.986 1.427-1.594 1.833-1.361m2.643-4.293c.406.233.243 1.22-.362 2.204-.606.984-1.426 1.593-1.832 1.36-.406-.233-.244-1.22.362-2.204.607-.984 1.426-1.594 1.832-1.36m-3.376 9.683c.405.233.244 1.22-.362 2.205-.606.983-1.426 1.593-1.832 1.359s-.244-1.221.362-2.204c.606-.984 1.426-1.593 1.832-1.36m2.644-4.293c.405.233.243 1.221-.362 2.204-.606.984-1.427 1.593-1.833 1.36-.406-.233-.244-1.22.363-2.204.606-.984 1.426-1.593 1.832-1.36m2.643-4.292c.405.233.244 1.22-.362 2.204-.606.985-1.427 1.593-1.832 1.36-.406-.233-.244-1.22.361-2.204.607-.985 1.427-1.593 1.833-1.36m-3.376 9.683c.406.233.244 1.22-.362 2.205-.605.984-1.426 1.592-1.832 1.359-.406-.233-.244-1.219.362-2.204.606-.984 1.426-1.594 1.832-1.36m2.644-4.293c.406.233.243 1.22-.362 2.204-.606.984-1.427 1.593-1.833 1.36-.406-.233-.244-1.22.363-2.204.605-.984 1.426-1.594 1.832-1.36m2.642-4.293c.406.232.244 1.219-.362 2.204-.605.984-1.426 1.592-1.831 1.36-.406-.233-.245-1.22.361-2.204.607-.984 1.427-1.594 1.832-1.36m-3.375 9.683c.405.233.243 1.22-.363 2.204-.606.985-1.426 1.593-1.832 1.36-.406-.233-.244-1.22.362-2.205.607-.984 1.427-1.592 1.833-1.359m2.643-4.293c.406.233.244 1.22-.361 2.203-.606.985-1.428 1.594-1.833 1.361-.406-.234-.243-1.221.362-2.205.606-.983 1.427-1.592 1.832-1.359m2.644-4.293c.406.233.244 1.22-.363 2.204-.605.984-1.426 1.593-1.832 1.36-.406-.234-.243-1.22.363-2.205.605-.983 1.426-1.592 1.832-1.359m4.215 9.955c.259.147.156.776-.23 1.401-.386.626-.907 1.014-1.166.866-.258-.149-.155-.776.231-1.402.385-.626.908-1.013 1.165-.865m1.681-2.73c.258.148.155.776-.23 1.402-.385.626-.907 1.013-1.165.864-.258-.148-.154-.776.231-1.401.384-.626.906-1.014 1.164-.865m1.682-2.731c.258.148.155.776-.23 1.402s-.907 1.013-1.165.865c-.258-.147-.155-.776.23-1.402.384-.625.907-1.013 1.165-.865m-2.147 6.159c.258.149.154.776-.23 1.402-.386.626-.907 1.013-1.166.865-.258-.148-.155-.775.23-1.402.385-.626.908-1.013 1.166-.865m1.681-2.73c.258.148.155.775-.23 1.402-.386.625-.908 1.012-1.166.864-.257-.148-.154-.776.231-1.402.386-.625.907-1.012 1.165-.864m1.682-2.73c.258.148.154.776-.231 1.402-.385.625-.907 1.013-1.165.865-.258-.148-.155-.776.231-1.401.384-.628.906-1.015 1.165-.866m-2.148 6.158c.258.148.155.776-.23 1.402-.385.625-.907 1.013-1.165.865-.258-.149-.155-.776.23-1.402.385-.625.906-1.013 1.165-.865m1.682-2.731c.258.148.154.776-.231 1.402-.385.625-.907 1.013-1.166.864-.258-.148-.154-.776.23-1.401.386-.625.908-1.013 1.167-.865m1.68-2.73c.258.149.155.776-.23 1.402-.385.625-.907 1.014-1.165.864-.259-.148-.155-.775.23-1.402.386-.624.908-1.013 1.165-.864m-2.146 6.159c.258.149.154.776-.231 1.402-.386.626-.907 1.013-1.166.865-.258-.148-.155-.776.23-1.402.387-.626.909-1.013 1.167-.865m1.681-2.73c.258.148.155.775-.23 1.401-.386.627-.908 1.014-1.166.865-.258-.148-.154-.776.23-1.401.385-.626.908-1.014 1.166-.865m1.681-2.731c.258.148.154.776-.23 1.402-.386.626-.907 1.013-1.166.865-.258-.149-.155-.776.23-1.402.386-.626.908-1.013 1.166-.865m14.352 9.329c41.675-.378 73.47 13.374 73.47 23.67s-27.26 10.224-63.1 10.224c-35.842 0-59.24-8.737-59.42-16.262-.184-7.524 7.378-17.253 49.05-17.632m41.31-10.822c.416-.232 1.259.376 1.881 1.359.623.985.79 1.972.373 2.205-.417.233-1.26-.376-1.882-1.36-.622-.984-.789-1.971-.372-2.204m-2.714-4.293c.417-.233 1.26.375 1.881 1.359.623.984.79 1.972.373 2.204-.417.233-1.26-.375-1.882-1.359-.623-.985-.789-1.972-.372-2.204m-2.715-4.293c.416-.233 1.26.375 1.881 1.36.623.984.789 1.97.373 2.204-.416.232-1.26-.376-1.882-1.36-.622-.985-.788-1.972-.372-2.204m3.467 9.683c.416-.232 1.26.376 1.883 1.36.621.984.787 1.971.371 2.204-.417.233-1.26-.375-1.882-1.36-.622-.985-.789-1.971-.372-2.204m-2.715-4.293c.417-.233 1.26.376 1.882 1.36.622.983.789 1.971.372 2.204-.416.232-1.26-.376-1.882-1.359-.622-.985-.788-1.972-.372-2.205m-2.715-4.292c.418-.233 1.26.375 1.882 1.359s.789 1.971.372 2.204c-.416.233-1.259-.375-1.882-1.36-.622-.984-.788-1.971-.372-2.203m3.468 9.682c.417-.232 1.259.376 1.882 1.36.621.984.787 1.971.371 2.204s-1.259-.376-1.882-1.36c-.622-.983-.788-1.97-.371-2.204m-2.715-4.293c.416-.233 1.259.376 1.882 1.36.622.985.788 1.971.372 2.205-.417.233-1.26-.376-1.882-1.361-.623-.984-.789-1.971-.372-2.204m-2.715-4.293c.417-.233 1.259.376 1.882 1.36.622.984.789 1.971.372 2.203-.417.233-1.26-.375-1.882-1.359-.622-.984-.789-1.971-.372-2.204m3.467 9.683c.417-.232 1.259.376 1.882 1.36.622.984.789 1.971.371 2.204-.416.233-1.258-.375-1.881-1.359-.622-.984-.789-1.971-.372-2.205m-2.715-4.292c.417-.233 1.26.376 1.882 1.36.622.984.789 1.971.373 2.204-.418.233-1.261-.375-1.883-1.36-.622-.984-.789-1.972-.372-2.204m-2.714-4.293c.416-.233 1.258.375 1.881 1.359.622.984.789 1.971.372 2.204-.417.233-1.26-.375-1.882-1.359-.622-.984-.789-1.972-.371-2.204m31.31 16.398c.299-.167.899.268 1.344.97.443.703.563 1.407.266 1.573-.298.167-.898-.268-1.344-.971-.444-.701-.563-1.406-.266-1.572m-1.938-3.065c.298-.166.899.268 1.344.972.443.701.563 1.406.265 1.572-.297.167-.898-.269-1.343-.971s-.563-1.407-.266-1.573m-1.937-3.064c.297-.167.898.268 1.343.97.444.703.563 1.407.266 1.574-.298.166-.899-.269-1.343-.971-.445-.703-.563-1.406-.266-1.573m2.474 6.912c.298-.167.899.269 1.344.971.443.703.563 1.407.265 1.574s-.898-.269-1.343-.971c-.444-.703-.564-1.407-.266-1.574m-1.937-3.065c.297-.166.898.269 1.344.971.443.702.563 1.407.266 1.574-.299.166-.9-.27-1.345-.972-.444-.701-.564-1.406-.265-1.573m-1.939-3.064c.298-.167.899.268 1.344.97.444.703.563 1.407.265 1.574-.297.167-.898-.269-1.342-.971-.445-.702-.564-1.407-.267-1.573m2.476 6.912c.297-.166.898.269 1.343.971s.563 1.407.265 1.574c-.297.167-.898-.269-1.342-.972-.445-.702-.565-1.406-.266-1.573m-1.938-3.065c.297-.167.898.269 1.342.971.445.703.563 1.408.266 1.574-.297.166-.898-.269-1.342-.971-.445-.702-.563-1.407-.266-1.574m-1.939-3.064c.299-.166.899.269 1.344.971.444.703.563 1.407.266 1.574-.297.166-.898-.269-1.344-.971-.444-.703-.563-1.408-.266-1.574m2.475 6.912c.299-.166.9.27 1.344.971.445.703.563 1.407.267 1.573-.298.167-.899-.268-1.344-.971-.445-.701-.564-1.406-.267-1.573m-1.937-3.064c.297-.167.899.268 1.343.971.444.702.563 1.406.266 1.573-.298.167-.898-.269-1.344-.971-.444-.702-.563-1.406-.265-1.573m-1.938-3.065c.298-.166.898.269 1.344.971.443.703.563 1.406.266 1.574-.298.167-.899-.269-1.344-.972-.445-.702-.563-1.406-.266-1.573"/><path fill="#fff" d="m21.531 35.996c0-.041 0 2.204 0-.117 0-2.322 7.635-8.167 19.607-10.134 11.528-1.896 27.21-2.24 42.767-.81 15.557 1.429 28.16 4.202 37.22 7.551 8.773 3.244 14.09 8.972 14.09 10.881s0 .063 0 .097c0 5.77 0 11.533 0 17.297 0 5.766 0 11.529 0 17.289-16.07 0-33.15 0-51.31 0-19.415 0-40.17 0-62.37 0 0-7.149 0-14.307 0-21.461-.0001-3.315-.0001-24.297-.0001-20.593"/></g><path fill="url(#SVGID_2_)" d="m135.38 78.21h-114.01v-42.65h.04c.605-2.583 8.148-8.07 19.701-9.973 6.731-1.106 14.935-1.691 23.725-1.691 6.309 0 12.729.295 19.08.88 14.638 1.345 27.524 3.96 37.27 7.562 8.804 3.254 14.192 8.992 14.192 11.03v34.842m-113.69-.318h113.37v-34.525c0-1.909-5.445-7.575-13.984-10.732-9.715-3.592-22.573-6.2-37.18-7.542-6.344-.583-12.754-.878-19.05-.878-8.773 0-16.959.583-23.673 1.687-5.25.862-10.307 2.608-14.239 4.915-3.617 2.121-5.235 4.071-5.235 5.063v42.01z"/><path fill="url(#SVGID_3_)" d="m32.479 78.05h-.319c0-4.16.003-8.321.006-12.482.003-4.164.006-8.329.006-12.492v-24.989h.318v24.988c0 4.163-.003 8.328-.006 12.492-.003 4.162-.005 8.323-.005 12.483"/><path fill="url(#SVGID_4_)" d="m53.11 78.05h-.317c.006-5.387.007-10.775.007-16.16.0001-3.546.0001-7.093.003-10.64.005-8.936.012-17.878.012-26.819h.317c0 8.941-.005 17.884-.011 26.821-.002 3.545-.003 7.092-.004 10.638.0001 5.389 0 10.778-.007 16.16"/><path fill="url(#SVGID_5_)" d="m83.76 78.05c-.012-8.844-.012-17.844-.012-26.547v-26.568h.317v26.568c0 8.703 0 17.703.011 26.547h-.316"/><path fill="url(#SVGID_6_)" d="m111.26 78.05c-.007-4.85-.007-9.707-.009-14.561 0-3.238 0-6.476-.002-9.711-.006-8.09-.012-16.188-.012-24.283h.318c0 8.095.006 16.193.012 24.283.002 3.235.002 6.473.002 9.711.0001 4.854.002 9.711.009 14.561h-.318"/><path fill="url(#SVGID_7_)" d="m126.07 78.05h-.318v-21.79c0-3.634-.003-7.265-.006-10.897s-.006-7.266-.006-10.898h.318c0 3.632.002 7.265.006 10.898.002 3.633.006 7.264.006 10.897v21.79"/><path fill-rule="evenodd" fill="url(#SVGID_8_)" d="m32.32 78.05h51.605v-38.824c-19.429-1.146-37.27-.938-51.605 2.26v36.564"/><path fill="#fff" d="m84.08 78.21h-51.924v-36.852l.124-.027c8.744-1.951 19.19-2.9 31.935-2.9 6.01 0 12.46.208 19.716.636l.149.008v39.13m-51.605-.318h51.29v-38.516c-7.188-.422-13.583-.627-19.547-.627-12.661 0-23.05.938-31.74 2.866v36.28"/><path fill-rule="evenodd" fill="url(#SVGID_9_)" d="m37.13 78.05h42.16v-36.3c-15.876-.654-30.27-.896-42.16 1.531v34.77"/><path fill="#fff" d="m79.45 78.21h-42.479v-35.06l.127-.025c6.614-1.35 14.412-1.979 24.536-1.979 6.085 0 12.344.227 17.664.445l.152.006v36.614m-42.16-.318h41.843v-35.989c-5.283-.219-11.476-.438-17.498-.438-10.04 0-17.779.618-24.345 1.944v34.483"/><path fill-rule="evenodd" fill="url(#SVGID_10_)" d="m47.892 53.854c0-2.76 5.506-5.379 12.766-5.379 7.259 0 12.598 1.885 13.523 4.715-10.912-1.248-19.575-.524-26.289.664"/><g fill="#fff"><path d="m47.732 54.04v-.189c0-3 5.919-5.537 12.925-5.537 7.349 0 12.716 1.894 13.675 4.824l.077.234-.247-.027c-3.776-.432-7.525-.65-11.141-.65-5.171 0-10.111.43-15.1 1.313l-.186.032m12.925-5.408c-7.351 0-12.35 2.563-12.597 5.03 4.943-.864 9.84-1.284 14.961-1.284 3.545 0 7.218.209 10.919.623-1.124-2.623-6.39-4.367-13.283-4.367"/><path fill-rule="evenodd" d="m47.93 78.05h26.289v-23.895c-9.899-.432-18.872-.59-26.289 1.01v22.887"/></g><path fill="url(#SVGID_11_)" d="m74.38 78.21h-26.606v-23.18l.125-.027c4.129-.889 8.995-1.303 15.312-1.303 3.796 0 7.7.148 11.02.293l.152.006v24.21zm-26.288-.318h25.971v-23.584c-3.281-.143-7.12-.285-10.852-.285-6.23 0-11.04.402-15.12 1.269v22.6"/><g fill="#fff"><rect x="34.966" y="48.41" transform="matrix(.7133.7008-.7008.7133 46.22-15.87)" width="15.09" height=".318"/><rect x="76.58" y="41.2" transform="matrix(.9143.405-.405.9143 25.8-27.01)" width=".318" height="12.53"/></g><rect x="60.29" y="53.892" fill="url(#SVGID_12_)" width=".318" height="24.16"/><g fill-rule="evenodd"><rect y="77.995" fill="url(#SVGID_13_)" width="152.37" height="1.547"/><rect x="37.13" y="76.96" fill="#fff" width="42.16" height="1.023"/></g><path fill="url(#SVGID_14_)" d="m79.45 78.14h-42.479v-1.342h42.479v1.342m-42.16-.319h41.843v-.705h-41.843v.705"/><path fill-rule="evenodd" fill="#fff" d="m38.86 76.931c13.199 0 26.398 0 39.598 0 0-.342 0-.682 0-1.022-13.199 0-26.398 0-39.598 0 0 .34 0 .68 0 1.022"/><path fill="url(#SVGID_15_)" d="m78.62 77.09h-39.915v-1.343h39.915v1.343m-39.596-.32h39.28v-.703h-39.28v.703"/><path fill-rule="evenodd" fill="#fff" d="m40.592 75.878c12.345 0 24.689 0 37.03 0 0-.341 0-.682 0-1.023-12.345 0-24.689 0-37.03 0 0 .341 0 .682 0 1.023"/><path fill="url(#SVGID_16_)" d="m77.78 76.04h-37.35v-1.344h37.35v1.344zm-37.03-.319h36.717v-.705h-36.717v.705"/><path fill-rule="evenodd" fill="#fff" d="m42.32 74.825c11.491 0 22.98 0 34.471 0 0-.342 0-.682 0-1.023-11.491 0-22.98 0-34.471 0 0 .342 0 .681 0 1.023"/><path fill="url(#SVGID_17_)" d="m76.952 74.983h-34.789v-1.342h34.789v1.342m-34.471-.318h34.15v-.704h-34.15v.704"/><path fill-rule="evenodd" fill="#fff" d="m44.05 73.77c10.636 0 21.271 0 31.907 0 0-.342 0-.684 0-1.023-10.636 0-21.271 0-31.907 0 0 .34 0 .682 0 1.023"/><path fill="url(#SVGID_18_)" d="m76.12 73.931h-32.23v-1.342h32.23v1.342m-31.906-.319h31.589v-.705h-31.589v.705"/><rect x="45.785" y="71.7" fill-rule="evenodd" fill="#fff" width="29.344" height="1.023"/><path fill="url(#SVGID_19_)" d="m75.29 72.878h-29.662v-1.342h29.662v1.342m-29.344-.318h29.03v-.705h-29.03v.705"/><path fill-rule="evenodd" fill="url(#SVGID_20_)" d="m3.347 60.964c3.563-1.266 7.73.352 11.664 0-.88.785-1.759 1.57-2.638 2.355.879.809 1.758 1.617 2.638 2.425-3.888 0-8.192-.948-11.664 0 0-1.593 0-3.186 0-4.78"/><path fill="url(#SVGID_21_)" d="m3.188 65.952v-5.101l.106-.038c.95-.336 2.026-.5 3.292-.5 1.166 0 2.385.137 3.564.27 1.2.135 2.441.273 3.648.273.425 0 .817-.016 1.198-.051l.479-.043-2.865 2.559 2.81 2.582h-.408c-1.303 0-2.67-.107-3.993-.211-1.316-.104-2.678-.211-3.968-.211-1.438 0-2.636.137-3.661.416l-.202.055m3.862-.788c1.303 0 2.67.106 3.993.211 1.177.093 2.391.188 3.557.208l-2.463-2.266 2.421-2.162c-.244.014-.495.02-.759.02-1.225 0-2.475-.141-3.684-.275-1.17-.133-2.38-.268-3.529-.268-1.182 0-2.19.145-3.08.445v4.463c1.01-.254 2.169-.376 3.544-.376"/><rect x="3.188" y="60.964" fill="url(#SVGID_22_)" width=".319" height="17.225"/><path fill-rule="evenodd" fill="url(#SVGID_23_)" d="m142.94 60.964c3.564-1.266 7.729.352 11.664 0-.879.785-1.76 1.57-2.639 2.355.879.809 1.76 1.617 2.639 2.425-3.888 0-8.192-.948-11.664 0 0-1.593 0-3.186 0-4.78"/><path fill="url(#SVGID_24_)" d="m142.78 65.952v-5.101l.106-.038c.949-.336 2.025-.5 3.291-.5 1.166 0 2.386.137 3.564.27 1.201.135 2.441.273 3.648.273.426 0 .816-.016 1.199-.051l.477-.043-2.865 2.559 2.81 2.582h-.407c-1.303 0-2.671-.107-3.994-.211-1.316-.104-2.678-.211-3.967-.211-1.439 0-2.637.137-3.661.416l-.201.055m3.863-.788c1.302 0 2.67.106 3.992.211 1.178.093 2.392.188 3.557.208l-2.463-2.266 2.422-2.162c-.244.014-.496.02-.76.02-1.225 0-2.475-.141-3.684-.275-1.171-.133-2.381-.268-3.529-.268-1.182 0-2.189.145-3.08.445v4.463c1.01-.254 2.17-.376 3.545-.376"/><rect x="142.78" y="60.964" fill="url(#SVGID_25_)" width=".317" height="17.225"/><g fill-rule="evenodd"><path fill="url(#SVGID_26_)" d="m83.925 39.23c10.555.75 19.775 2.01 27.479 3.561 0-1.988-.002-3.975-.002-5.963-7.666-1.625-16.882-2.945-27.466-3.769-.011 0-.021-.0001-.03-.002v6.173c.005 0 .013 0 .019 0"/><path fill="url(#SVGID_27_)" d="m111.4 36.823c0 1.987.002 3.975.002 5.963 2.845.572 5.482 1.186 7.904 1.83 2.438.646 4.647 1.324 6.598 2.025-.002-1.91-.004-3.822-.004-5.732-1.455-.561-3.06-1.105-4.801-1.631-2.882-.873-6.122-1.697-9.699-2.455"/><path fill="url(#SVGID_28_)" d="m125.9 40.909c0 1.91.002 3.822.004 5.732 3.078 1.107 5.506 2.271 7.154 3.447.495.354.921.71 1.271 1.064.389.393.686.785.888 1.178v-1.625-1.66-.925c-.035-2.454-3.453-4.953-9.317-7.211"/><path fill="url(#SVGID_29_)" d="m111.41 48.691c-7.779-1.456-17-2.63-27.483-3.293v6.173c8.1.438 15.501 1.186 22.12 2.125 1.849.262 3.637.537 5.362.828 0-.249-.0001-.498-.0001-.746 0-.104 0-.207 0-.311-.0001-1.591-.002-3.183-.003-4.776"/><path fill="url(#SVGID_30_)" d="m111.41 48.691l.003 4.776c0 .104 0 .207 0 .311 0 .248.0001.497.0001.746.884.147 1.753.299 2.604.453.574.104 1.143.211 1.702.316 3.774.713 7.197 1.484 10.191 2.285v-1.318c0-.886-.0001-1.77-.0001-2.654 0-.466 0-.933 0-1.399-.145-.045-.29-.092-.438-.137-2.348-.736-5.02-1.446-7.959-2.113-1.921-.44-3.957-.864-6.103-1.266"/><path fill="url(#SVGID_31_)" d="m125.91 53.605c0 .885.0001 1.769.0001 2.654v1.319c3.872 1.035 7.03 2.115 9.309 3.172v-4.21c-1.377-1.154-3.684-2.327-6.761-3.46-.799-.295-1.649-.586-2.549-.875 0 .468 0 .935 0 1.4"/><path fill="url(#SVGID_32_)" d="m111.41 60.26c-8.12-1.155-17.327-2.081-27.489-2.521v6.172c9.869.297 19.06 1.043 27.49 1.978 0-1.876-.0001-3.753-.0001-5.629"/><path fill="url(#SVGID_33_)" d="m111.41 60.26c0 1.876.0001 3.753.0001 5.629.239.026.477.054.715.079 4.865.544 9.478 1.15 13.78 1.771v-4.99c-3.605-.743-7.627-1.465-11.986-2.119-.824-.125-1.661-.248-2.51-.37"/><g fill="url(#SVGID_34_)"><path d="m125.91 62.753v4.99c3.291.476 6.401.959 9.309 1.43v-4.212c-2.657-.732-5.784-1.48-9.309-2.208"/><path d="m135.22 73.38c-3.065-.262-6.169-.535-9.309-.807v5.42h9.309v-4.613"/></g><path fill="url(#SVGID_36_)" d="m125.91 77.995v-5.42c-4.746-.412-9.575-.82-14.493-1.184.0001 2.201.002 4.402.006 6.604h14.487"/><path fill="url(#SVGID_37_)" d="m111.42 77.995c-.004-2.201-.005-4.402-.006-6.604-8.875-.658-18.03-1.174-27.492-1.305v7.908h27.498z"/><g fill="url(#SVGID_38_)"><path d="m32.32 77.995v-6.795c-3.618.246-7.22.537-10.788.881v5.914h10.788"/><path d="m21.531 67.01c3.387-.564 7-1.051 10.788-1.467v-5.791c-4.051.613-7.689 1.344-10.788 2.189v5.069"/></g><path fill="url(#SVGID_40_)" d="m56.651 38.711c8.492-.304 17.836-.146 27.1.504.051.003.102.006.152.009v-6.171c-.0001 0-.003 0-.004 0-10.72-.834-21.494-.987-30.929-.512 0 2.109-.002 4.219-.002 6.328 1.214-.064 2.442-.117 3.681-.158"/><path fill="url(#SVGID_41_)" d="m52.97 38.869l.002-6.328c-4.236.213-8.202.553-11.771 1.015-3.309.428-6.29.956-8.871 1.573v6.34c3.11-.729 6.776-1.334 10.875-1.801 1.013-.115 2.053-.221 3.117-.318.0001 0 .003 0 .004 0 2.166-.203 4.381-.361 6.644-.481"/><path fill="url(#SVGID_42_)" d="m32.33 41.47v-6.34c-6.753 1.615-10.776 3.849-10.8 6.539 0 .765 0 1.568 0 2.39 0 .367 0 .736 0 1.109 0 .514 0 1.033 0 1.549.199-.361.479-.714.832-1.055.238-.23.51-.457.814-.676 1.888-1.368 5.03-2.551 9.154-3.516"/><path fill="url(#SVGID_38_)" d="m28.673 48.614c-3.197.914-5.639 1.979-7.142 3.175 0 2.22 0 4.01 0 4.8v.273c2.664-1.193 6.342-2.221 10.788-3.061v-3.893-1.311-.893c-.559.121-1.102.246-1.628.375-.703.174-1.376.352-2.02.535"/></g></svg>