<svg xmlns="http://www.w3.org/2000/svg" viewBox="0 0 152.366 80.31" enable-background="new 0 0 152.366 80.31" xmlns:xlink="http://www.w3.org/1999/xlink"><defs><linearGradient id="SVGID_99_" gradientUnits="userSpaceOnUse" x1="130.35" x2="135.33" xlink:href="#SVGID_32_"/><linearGradient id="SVGID_57_" gradientUnits="userSpaceOnUse" x1="8.371" x2="37.906" xlink:href="#SVGID_32_"/><linearGradient id="SVGID_54_" gradientUnits="userSpaceOnUse" x1="147.28" x2="148.58" xlink:href="#SVGID_32_"/><linearGradient id="SVGID_55_" gradientUnits="userSpaceOnUse" x1="76.61" x2="135.33" xlink:href="#SVGID_32_"/><linearGradient id="SVGID_58_" gradientUnits="userSpaceOnUse" x1="31.573" x2="35.14" xlink:href="#SVGID_32_"/><linearGradient id="SVGID_66_" gradientUnits="userSpaceOnUse" x1="22.293" x2="25.18" xlink:href="#SVGID_32_"/><linearGradient id="SVGID_59_" gradientUnits="userSpaceOnUse" x1="31.576" x2="35.14" xlink:href="#SVGID_32_"/><linearGradient id="SVGID_64_" gradientUnits="userSpaceOnUse" x1="22.29" x2="25.18" xlink:href="#SVGID_32_"/><linearGradient id="SVGID_61_" gradientUnits="userSpaceOnUse" x1="31.578" x2="35.14" xlink:href="#SVGID_32_"/><linearGradient id="SVGID_63_" gradientUnits="userSpaceOnUse" x1="31.581" x2="35.14" xlink:href="#SVGID_32_"/><linearGradient id="SVGID_53_" gradientUnits="userSpaceOnUse" x1="139.1" x2="140.39" xlink:href="#SVGID_32_"/><linearGradient id="SVGID_52_" gradientUnits="userSpaceOnUse" x1="146.66" x2="149.2" xlink:href="#SVGID_32_"/><linearGradient id="SVGID_27_" gradientUnits="userSpaceOnUse" x1="11.178" x2="13.779" xlink:href="#SVGID_32_"/><linearGradient id="SVGID_25_" gradientUnits="userSpaceOnUse" x1="31.48" x2="35.24" xlink:href="#SVGID_32_"/><linearGradient id="SVGID_26_" gradientUnits="userSpaceOnUse" x1="31.463" x2="35.26" xlink:href="#SVGID_32_"/><linearGradient id="SVGID_28_" gradientUnits="userSpaceOnUse" x1="26.48" x2="30.11" xlink:href="#SVGID_32_"/><linearGradient id="SVGID_51_" gradientUnits="userSpaceOnUse" x1="138.48" x2="141.01" xlink:href="#SVGID_32_"/><linearGradient id="SVGID_29_" gradientUnits="userSpaceOnUse" x1="17.02" x2="22.271" xlink:href="#SVGID_32_"/><linearGradient id="SVGID_50_" gradientUnits="userSpaceOnUse" x1="137.74" x2="150.21" xlink:href="#SVGID_32_"/><linearGradient id="SVGID_30_" gradientUnits="userSpaceOnUse" x1="18.493" x2="18.918" xlink:href="#SVGID_32_"/><linearGradient id="SVGID_31_" gradientUnits="userSpaceOnUse" x1="20.19" x2="20.614" xlink:href="#SVGID_32_"/><linearGradient id="SVGID_68_" gradientUnits="userSpaceOnUse" x1="14.701" x2="17.07" xlink:href="#SVGID_32_"/><linearGradient id="SVGID_69_" gradientUnits="userSpaceOnUse" x1="14.698" x2="17.07" xlink:href="#SVGID_32_"/><linearGradient id="SVGID_89_" gradientUnits="userSpaceOnUse" x1="76.61" x2="83.53" xlink:href="#SVGID_32_"/><linearGradient id="SVGID_87_" gradientUnits="userSpaceOnUse" x1="119.89" x2="123.08" xlink:href="#SVGID_32_"/><linearGradient id="SVGID_88_" gradientUnits="userSpaceOnUse" x1="126.87" x2="130.39" xlink:href="#SVGID_32_"/><linearGradient id="SVGID_90_" gradientUnits="userSpaceOnUse" x1="76.61" x2="83.52" xlink:href="#SVGID_32_"/><linearGradient id="SVGID_97_" gradientUnits="userSpaceOnUse" x1="130.37" x2="135.33" xlink:href="#SVGID_32_"/><linearGradient id="SVGID_92_" gradientUnits="userSpaceOnUse" x1="76.61" x2="83.51" xlink:href="#SVGID_32_"/><linearGradient id="SVGID_96_" gradientUnits="userSpaceOnUse" x1="130.37" x2="135.33" xlink:href="#SVGID_32_"/><linearGradient id="SVGID_94_" gradientUnits="userSpaceOnUse" x1="76.61" x2="83.5" xlink:href="#SVGID_32_"/><linearGradient id="SVGID_95_" gradientUnits="userSpaceOnUse" x1="130.38" x2="135.33" xlink:href="#SVGID_32_"/><linearGradient id="SVGID_85_" gradientUnits="userSpaceOnUse" x1="106.89" x2="114.02" xlink:href="#SVGID_32_"/><linearGradient id="SVGID_73_" gradientUnits="userSpaceOnUse" x1="8.371" x2="10.355" xlink:href="#SVGID_32_"/><linearGradient id="SVGID_84_" gradientUnits="userSpaceOnUse" x1="103.24" x2="106.89" xlink:href="#SVGID_32_"/><linearGradient id="SVGID_72_" gradientUnits="userSpaceOnUse" x1="8.371" x2="10.358" xlink:href="#SVGID_32_"/><linearGradient id="SVGID_70_" gradientUnits="userSpaceOnUse" x1="14.695" x2="17.07" xlink:href="#SVGID_32_"/><linearGradient id="SVGID_71_" gradientUnits="userSpaceOnUse" x1="14.695" x2="17.07" xlink:href="#SVGID_32_"/><linearGradient id="SVGID_75_" gradientUnits="userSpaceOnUse" x1="8.371" x2="10.361" xlink:href="#SVGID_32_"/><linearGradient id="SVGID_82_" gradientUnits="userSpaceOnUse" x1="93.39" x2="96.57" xlink:href="#SVGID_32_"/><linearGradient id="SVGID_77_" gradientUnits="userSpaceOnUse" x1="17.662" x2="25.18" xlink:href="#SVGID_32_"/><linearGradient id="SVGID_81_" gradientUnits="userSpaceOnUse" x1="83.5" x2="86.89" xlink:href="#SVGID_32_"/><linearGradient id="SVGID_78_" gradientUnits="userSpaceOnUse" x1="7.176" x2="25.17" xlink:href="#SVGID_32_"/><linearGradient id="SVGID_79_" gradientUnits="userSpaceOnUse" x1="7.176" x2="17.662" xlink:href="#SVGID_32_"/><linearGradient id="SVGID_24_" gradientUnits="userSpaceOnUse" x1="31.504" x2="35.22" xlink:href="#SVGID_32_"/><linearGradient id="SVGID_23_" gradientUnits="userSpaceOnUse" x1="31.527" x2="35.2" xlink:href="#SVGID_32_"/><linearGradient id="SVGID_46_" gradientUnits="userSpaceOnUse" x1="83.73" x2="89.41" xlink:href="#SVGID_32_"/><linearGradient id="SVGID_44_" gradientUnits="userSpaceOnUse" x1="61.914" x2="69.12" xlink:href="#SVGID_32_"/><linearGradient id="SVGID_45_" gradientUnits="userSpaceOnUse" x1="60.746" x2="62.22" xlink:href="#SVGID_32_"/><linearGradient id="SVGID_47_" gradientUnits="userSpaceOnUse" x1="95.9" x2="101.58" xlink:href="#SVGID_32_"/><linearGradient id="SVGID_86_" gradientUnits="userSpaceOnUse" x1="114.41" x2="119.94" xlink:href="#SVGID_32_"/><linearGradient id="SVGID_48_" gradientUnits="userSpaceOnUse" x1="109.07" x2="114.48" xlink:href="#SVGID_32_"/><linearGradient id="SVGID_83_" gradientUnits="userSpaceOnUse" x1="96.57" x2="102.75" xlink:href="#SVGID_32_"/><linearGradient id="SVGID_49_" gradientUnits="userSpaceOnUse" x1="120.64" x2="126.05" xlink:href="#SVGID_32_"/><linearGradient id="SVGID_80_" gradientUnits="userSpaceOnUse" x1="0" x2="152.37" xlink:href="#SVGID_32_"/><linearGradient id="SVGID_43_" gradientUnits="userSpaceOnUse" x1="45.11" x2="46.582" xlink:href="#SVGID_32_"/><linearGradient id="SVGID_35_" gradientUnits="userSpaceOnUse" x1="96.56" x2="119.92" xlink:href="#SVGID_32_"/><linearGradient id="SVGID_42_" gradientUnits="userSpaceOnUse" x1="46.28" x2="53.48" xlink:href="#SVGID_32_"/><linearGradient id="SVGID_34_" gradientUnits="userSpaceOnUse" x1="102.53" x2="102.96" xlink:href="#SVGID_32_"/><linearGradient id="SVGID_32_" gradientUnits="userSpaceOnUse" x1="114.17" x2="114.62"><stop stop-color="#12397f"/><stop offset=".713" stop-color="#3a71ce"/><stop offset="1" stop-color="#3a71ce"/></linearGradient><linearGradient id="SVGID_33_" gradientUnits="userSpaceOnUse" x1="108.46" x2="108.9" xlink:href="#SVGID_32_"/><linearGradient id="SVGID_36_" gradientUnits="userSpaceOnUse" x1="96.5" x2="119.93" xlink:href="#SVGID_32_"/><linearGradient id="SVGID_41_" gradientUnits="userSpaceOnUse" x1="11.715" x2="12.03" xlink:href="#SVGID_32_"/><linearGradient id="SVGID_37_" gradientUnits="userSpaceOnUse" x1="96.55" x2="119.92" xlink:href="#SVGID_32_"/><linearGradient id="SVGID_40_" gradientUnits="userSpaceOnUse" x1="35.14" x2="76.18" xlink:href="#SVGID_32_"/><linearGradient id="SVGID_38_" gradientUnits="userSpaceOnUse" x1="96.56" x2="119.92" xlink:href="#SVGID_32_"/><linearGradient id="SVGID_39_" gradientUnits="userSpaceOnUse" x1="96.55" x2="120.11" xlink:href="#SVGID_32_"/><linearGradient id="SVGID_101_" gradientUnits="userSpaceOnUse" x1="76.56" x2="135.37" xlink:href="#SVGID_32_"/><linearGradient id="SVGID_1_" gradientUnits="userSpaceOnUse" x1="8.158" x2="8.582" xlink:href="#SVGID_32_"/><linearGradient id="SVGID_16_" gradientUnits="userSpaceOnUse" x1="8.156" x2="35.27" xlink:href="#SVGID_32_"/><linearGradient id="SVGID_14_" gradientUnits="userSpaceOnUse" x1="8.273" x2="10.453" xlink:href="#SVGID_32_"/><linearGradient id="SVGID_15_" gradientUnits="userSpaceOnUse" x1="8.255" x2="10.474" xlink:href="#SVGID_32_"/><linearGradient id="SVGID_17_" gradientUnits="userSpaceOnUse" x1="14.67" x2="25.2" xlink:href="#SVGID_32_"/><linearGradient id="SVGID_22_" gradientUnits="userSpaceOnUse" x1="31.555" x2="35.17" xlink:href="#SVGID_32_"/><linearGradient id="SVGID_18_" gradientUnits="userSpaceOnUse" x1="14.482" x2="25.23" xlink:href="#SVGID_32_"/><linearGradient id="SVGID_21_" gradientUnits="userSpaceOnUse" x1="14.489" x2="25.291" xlink:href="#SVGID_32_"/><linearGradient id="SVGID_19_" gradientUnits="userSpaceOnUse" x1="14.628" x2="25.25" xlink:href="#SVGID_32_"/><linearGradient id="SVGID_20_" gradientUnits="userSpaceOnUse" x1="14.605" x2="25.28" xlink:href="#SVGID_32_"/><linearGradient id="SVGID_13_" gradientUnits="userSpaceOnUse" x1="8.29" x2="10.433" xlink:href="#SVGID_32_"/><linearGradient id="SVGID_5_" gradientUnits="userSpaceOnUse" x1="19.38" x2="19.811" xlink:href="#SVGID_32_"/><linearGradient id="SVGID_12_" gradientUnits="userSpaceOnUse" x1="8.315" x2="10.407" xlink:href="#SVGID_32_"/><linearGradient id="SVGID_4_" gradientUnits="userSpaceOnUse" x1="16.854" x2="17.287" xlink:href="#SVGID_32_"/><linearGradient id="SVGID_2_" gradientUnits="userSpaceOnUse" x1="10.142" x2="10.573" xlink:href="#SVGID_32_"/><linearGradient id="SVGID_3_" gradientUnits="userSpaceOnUse" x1="14.479" x2="14.913" xlink:href="#SVGID_32_"/><linearGradient id="SVGID_6_" gradientUnits="userSpaceOnUse" x1="22.08" x2="22.505" xlink:href="#SVGID_32_"/><linearGradient id="SVGID_11_" gradientUnits="userSpaceOnUse" x1="8.341" x2="10.382" xlink:href="#SVGID_32_"/><linearGradient id="SVGID_7_" gradientUnits="userSpaceOnUse" x1="24.963" x2="25.388" xlink:href="#SVGID_32_"/><linearGradient id="SVGID_10_" gradientUnits="userSpaceOnUse" x1="8.368" x2="35.16" xlink:href="#SVGID_32_"/><linearGradient id="SVGID_8_" gradientUnits="userSpaceOnUse" x1="31.361" x2="31.793" xlink:href="#SVGID_32_"/><linearGradient id="SVGID_9_" gradientUnits="userSpaceOnUse" x1="34.932" x2="35.36" xlink:href="#SVGID_32_"/></defs><polygon fill="url(#SVGID_1_)" points="8.158,78.666 8.158,26.607 8.582,26.607 8.582,78.656 	"/><path fill="url(#SVGID_2_)" d="m10.142 78.67v-.012c0-1.48 0-2.965 0-4.451s.0001-2.972.0001-4.459v-8.922c0-1.484 0-2.969.0001-4.455 0-1.488 0-2.979 0-4.471v-8.91c0-1.486.0001-2.972.002-4.457.0001-1.488.0001-2.977.0001-4.465v-8.949h.425v8.949c0 1.488-.0001 2.977-.002 4.465-.0001 1.485-.0001 2.971-.0001 4.457v8.91c0 1.492-.0001 2.982-.0001 4.471-.0001 1.486-.002 2.971-.002 4.455v8.922c0 1.487-.0001 2.973-.0001 4.461 0 1.484-.002 2.969-.002 4.449l-.421.012"/><path fill="url(#SVGID_3_)" d="m14.479 78.67v-.012c.002-3.146.002-6.299.002-9.451s0-6.305.002-9.463v-9.469c.004-3.146.004-6.299.004-9.45s0-6.305.003-9.462v-9.491h.424v9.491c-.003 3.158-.003 6.311-.003 9.462 0 3.153 0 6.304-.003 9.45v9.469c-.002 3.158-.002 6.311-.002 9.463s0 6.305-.004 9.451l-.423.012"/><path fill="url(#SVGID_4_)" d="m16.854 78.67v-9.758c0-1.625.002-3.25.002-4.875.0001-1.627.002-3.256.002-4.884v-9.765c0-1.622 0-3.244.0001-4.869s.0001-3.251.0001-4.877v-9.758c.003-3.251.003-6.501.003-9.758v-.03h.425v.03c0 3.256 0 6.507-.004 9.758v9.759c0 1.626 0 3.252 0 4.877-.002 1.625-.002 3.247-.002 4.869v9.765c0 1.628-.0001 3.257-.002 4.884 0 1.625-.0001 3.25-.0001 4.875v9.746l-.425.011"/><path fill="url(#SVGID_5_)" d="m19.805 68.59h-.425v-16.797c.003-2.799.003-5.592.003-8.393v-16.778c0-2.793 0-5.592.003-8.397v-.024h.425v.024c-.004 2.806-.004 5.604-.004 8.397v16.778c0 2.801 0 5.594-.002 8.393v16.797"/><path fill="url(#SVGID_6_)" d="m22.08 78.67v-31.23c0-1.734.0001-3.469.002-5.201 0-1.734 0-3.468 0-5.201v-20.844h.425v20.843c0 1.733-.0001 3.467-.0001 5.201 0 1.732-.0001 3.467-.0001 5.201v31.22l-.425.012"/><polygon fill="url(#SVGID_7_)" points="24.963,78.666 24.963,14.032 25.388,14.032 25.388,78.653 	"/><path fill="url(#SVGID_8_)" d="m31.369 78.67v-11.572c-.003-3.854-.003-7.707-.003-11.565v-11.568c-.002-3.852-.002-7.705-.002-11.559v-11.565c-.003-3.852-.003-7.705-.003-11.559v-.034h.424v.035c0 3.853 0 7.706.003 11.559v11.565c0 3.854 0 7.705.002 11.559v11.567c0 3.858 0 7.712.003 11.565v11.559l-.424.013"/><polygon fill="url(#SVGID_9_)" points="34.932,78.666 34.932,6.572 35.356,6.572 35.356,78.652 	"/><polygon fill="url(#SVGID_10_)" points="8.371,78.867 8.368,78.443 35.145,78.439 35.158,78.652 35.158,78.864 	"/><polygon fill="url(#SVGID_11_)" points="8.395,70.203 8.341,69.783 10.329,69.533 10.382,69.955 	"/><path fill="url(#SVGID_12_)" d="m8.421 61.52l-.107-.41c.063-.016.127-.031.195-.05l.985-.245c.063-.017.131-.033.201-.051l.608-.152.103.412-.609.152c-.069.017-.135.033-.199.049l-.986.246c-.067.018-.13.034-.191.049"/><path fill="url(#SVGID_13_)" d="m8.445 52.84l-.155-.394c.063-.024.128-.05.196-.075l.195-.073c.063-.024.127-.048.19-.072.057-.021.108-.04.16-.06l.04-.016c.056-.02.108-.04.162-.061l.036-.014c.069-.025.135-.051.202-.074.067-.025.133-.05.2-.076l.222-.082c.061-.023.121-.046.182-.068l.208-.078.149.397-.207.075c-.059.025-.122.047-.184.07l-.219.083c-.066.024-.135.051-.203.075-.066.025-.133.051-.201.076l-.034.012c-.056.021-.108.041-.164.063l-.038.014c-.054.021-.106.041-.161.061-.061.023-.126.048-.19.072l-.195.072c-.067.026-.13.05-.191.073"/><path fill="url(#SVGID_14_)" d="m8.463 44.17l-.19-.38c.064-.031.127-.064.191-.096l.415-.207c.057-.029.116-.06.179-.09l.396-.197c.064-.033.132-.068.202-.102.075-.037.136-.068.199-.1l.408-.205.19.381-.408.203c-.061.031-.124.063-.188.095-.081.04-.147.073-.211.104l-.399.199c-.064.031-.121.061-.177.089l-.414.206c-.063.034-.129.068-.193.1"/><path fill="url(#SVGID_15_)" d="m8.48 35.488l-.225-.359c.063-.039.127-.08.19-.121l.592-.369c.054-.032.103-.063.152-.094l.046-.029c.068-.042.135-.084.201-.125.067-.043.133-.084.199-.125l.208-.129c.072-.045.135-.084.198-.123l.208-.129.226.359-.207.127c-.063.041-.126.08-.19.119l-.214.133c-.066.043-.134.086-.202.127-.065.041-.133.084-.201.125l-.042.027c-.055.034-.106.066-.158.098l-.588.365c-.063.041-.128.082-.193.123"/><path fill="url(#SVGID_16_)" d="m8.473 26.818l-.101-.182h-.216l.096-.162-.009-.011 1.99-1.49c.372-.279.749-.561 1.13-.844l.981-.733c.573-.43 1.157-.868 1.752-1.312l1.286-.961c.515-.385 1.037-.775 1.564-1.171.438-.327.881-.659 1.328-.993l2.356-1.762c.503-.377 1.015-.76 1.534-1.147.938-.701 1.896-1.419 2.883-2.154l1.441-1.08c.54-.404 1.086-.813 1.639-1.226.605-.451 1.216-.909 1.837-1.373l5.074-3.793c.007-.005.013-.009.021-.013l.099.189.112.177c-.003.002-.005.004-.009.006l-5.04 3.772c-.62.464-1.231.921-1.836 1.373-.553.414-1.099.822-1.639 1.227l-1.442 1.08c-.985.736-1.945 1.453-2.883 2.155-.52.389-1.03.771-1.534 1.148l-2.356 1.761c-.447.335-.89.666-1.328.993-.527.396-1.05.786-1.564 1.17l-1.286.961c-.594.444-1.179.881-1.751 1.312l-.981.734c-.382.284-.759.564-1.13.843l-2.02 1.506"/><path fill="url(#SVGID_17_)" d="m14.722 69.41l-.052-.421h.002l4.895-.609c.348-.049.7-.094 1.061-.139l4.52-.563.058.42-4.524.564c-.357.043-.707.088-1.057.137l-4.903.611"/><path fill="url(#SVGID_18_)" d="m14.746 59.945l-.051-.205h-.213v-.166l3.03-.754c.332-.082.667-.166 1-.25l1.027-.256c.348-.094.7-.182 1.061-.27l3.536-.881c.324-.082.648-.162.982-.246l.109.41c-.341.086-.666.166-.989.246l-3.536.882c-.358.089-.708.177-1.058.269l-1.03.258c-.337.084-.672.167-1 .25l-2.866.713"/><path fill="url(#SVGID_19_)" d="m14.772 50.47l-.077-.199-.067-.199.003-.002 1.882-.703c.321-.121.646-.242.978-.365.329-.125.664-.248 1-.377.337-.125.681-.254 1.026-.383.351-.131.701-.262 1.058-.395.327-.123.653-.245.986-.369l2.384-.892c.379-.142.758-.284 1.15-.429l.155.395c-.399.148-.778.289-1.157.432l-2.383.891c-.334.125-.66.248-.988.369-.354.135-.706.266-1.058.396-.345.127-.688.256-1.025.383-.341.127-.675.252-1 .375-.332.124-.655.246-.978.367l-1.889.705"/><path fill="url(#SVGID_20_)" d="m14.778 41.02l-.085-.215-.088-.172c.307-.153.616-.309.934-.465l1.931-.963c.333-.165.668-.332 1-.5.296-.148.593-.295.89-.443l.136-.07c.35-.181.702-.354 1.063-.533l1.069-.535c.379-.188.752-.374 1.123-.56l1.229-.611c.36-.18.723-.361 1.096-.545l.201.373-.013.006c-.373.185-.734.365-1.095.545l-1.229.613c-.372.186-.745.371-1.112.553l-1.08.541c-.359.178-.71.352-1.06.531l-.14.07c-.297.148-.594.297-.889.443-.338.168-.673.336-1 .5l-1.931.965c-.317.154-.627.311-.934.463l-.015.009"/><path fill="url(#SVGID_21_)" d="m14.813 31.537l-.111-.179-.212.0001v-.12l.101-.063c.266-.165.535-.332.806-.5l1.456-.907c.199-.125.399-.25.604-.377.329-.205.664-.414 1-.625.338-.211.681-.426 1.023-.639.351-.224.701-.442 1.063-.666.355-.224.715-.448 1.084-.677l2.283-1.424c.379-.236.758-.472 1.148-.715l.23.356c-.397.247-.776.483-1.154.719l-2.283 1.423c-.37.23-.729.454-1.085.676-.358.223-.708.441-1.06.664-.345.216-.688.431-1.024.641-.341.212-.675.42-1 .626-.205.126-.405.251-.604.376l-1.456.907c-.272.171-.542.339-.808.503"/><polygon fill="url(#SVGID_22_)" points="31.607,67.305 31.555,66.883 35.118,66.438 35.171,66.857 	"/><path fill="url(#SVGID_23_)" d="m31.63 55.732l-.103-.41 1.041-.261c.116-.028.231-.058.355-.088l2.168-.542.104.411-2.171.542c-.124.031-.238.059-.354.088l-1.04.26"/><path fill="url(#SVGID_24_)" d="m31.652 44.16l-.148-.396.343-.129c.115-.044.231-.087.353-.132l1.41-.528c.096-.035.188-.069.28-.104l.445-.168c.124-.047.245-.092.366-.139.125-.045.245-.09.367-.137l.15.396c-.123.047-.244.094-.369.139-.121.046-.242.092-.367.137l-.444.168c-.095.035-.187.07-.28.104l-1.411.529c-.121.045-.236.088-.351.131l-.344.129"/><path fill="url(#SVGID_25_)" d="m31.67 32.593l-.189-.38.023-.001c.104-.054.211-.107.324-.162l.346-.174c.116-.057.232-.115.354-.176l.363-.182c.113-.056.227-.113.346-.171l.862-.431c.071-.035.144-.071.216-.108l.155-.078c.069-.034.141-.07.212-.105.125-.062.244-.122.366-.183l.192.378c-.125.063-.246.124-.37.184-.069.036-.141.071-.212.106l-.152.077c-.072.037-.146.073-.219.109l-.861.431c-.119.058-.232.115-.346.17l-.364.184c-.122.06-.237.117-.352.174l-.349.176c-.113.055-.218.107-.322.16l-.023.011"/><path fill="url(#SVGID_26_)" d="m31.688 21.02l-.225-.359.343-.215c.116-.073.231-.145.353-.219l.347-.217c.116-.073.231-.145.356-.22l1.07-.668c.119-.075.24-.152.366-.229l.149-.093c.072-.045.145-.089.217-.135l.152-.095c.071-.044.143-.089.214-.134l.227.358c-.072.046-.145.092-.217.136l-.149.094c-.074.045-.146.091-.219.137l-.149.093c-.126.077-.247.153-.366.229l-1.072.668c-.125.076-.239.148-.354.219l-.349.219c-.122.074-.236.146-.351.218l-.343.213"/><path fill="url(#SVGID_27_)" d="m11.178 78.867v-.213c.002-9.04.004-18.09.005-27.14l.003-10.962c.0001-5.393.003-10.788.003-16.185v-.106l.086-.063c.709-.53 1.429-1.07 2.166-1.623l.339-.254v.424c0 5.597-.002 11.192-.003 16.784l-.002 11.174c-.0001 9.322-.003 18.643-.005 27.953v.213h-2.592m.435-54.4c0 5.363-.002 10.722-.004 16.08l-.002 10.962c-.002 8.98-.003 17.96-.006 26.931l1.743-.0001c.003-9.239.005-18.489.005-27.741l.003-11.174c.002-5.451.003-10.905.003-16.36-.589.443-1.169.876-1.742 1.304"/><path fill="url(#SVGID_28_)" d="m26.482 78.865v-11.164c.0001-7.302.0001-14.605 0-21.906v-.228c-.0001-10.875-.003-21.755-.003-32.637v-.106l.556-.416c.889-.667 1.797-1.347 2.727-2.04l.339-.253v.423c0 10.817.0001 21.635.002 32.446v1.851c.0001 11.271.003 22.548.003 33.817v.213h-3.624m.422-65.828c0 10.846.0001 21.692.002 32.531v.228c.002 7.301.002 14.604 0 21.906v10.74h2.775c0-11.201-.002-22.406-.003-33.606l-.0001-1.851c0-10.67-.002-21.347-.002-32.02-.811.606-1.605 1.202-2.387 1.786l-.384.288"/><path fill="url(#SVGID_29_)" d="m17.02 78.867v-9.389l.188-.022c.761-.086 1.536-.177 2.327-.269.816-.096 1.648-.193 2.497-.289l.236-.027v.237c0 3.184 0 6.368-.002 9.546v.211l-5.246.002m.424-9.01v8.585l4.398-.0001c.002-3.03.002-6.06.002-9.1-.767.088-1.521.178-2.26.263-.726.085-1.44.168-2.14.249"/><rect x="18.493" y="69.5" fill="url(#SVGID_30_)" width=".425" height="9.155"/><rect x="20.19" y="69.3" fill="url(#SVGID_31_)" width=".425" height="9.355"/><g fill="#fff"><rect y="78.76" fill-rule="evenodd" width="152.37" height="1.546"/><path d="m119.73 78.67c-.019-2.479-.019-4.998-.019-7.434 0-2.477 0-4.959-.006-7.441 0-1.238-.002-2.475-.003-3.713-.0001-1.242-.002-2.484-.002-3.73-.006-2.471-.006-4.953-.006-7.432 0-2.477 0-4.953-.008-7.436-.005-2.482-.005-4.96-.005-7.441v-.023h.425v.023c0 2.481 0 4.959.006 7.441s.006 4.959.006 7.436c0 2.479 0 4.961.006 7.432 0 1.246.0001 2.488.002 3.729.0001 1.239.004 2.476.004 3.713.006 2.481.006 4.965.006 7.442 0 2.436 0 4.954.018 7.43l-.424.004"/></g><path fill="url(#SVGID_32_)" d="m114.62 78.67h-.424v-7.566c0-1.262-.002-2.521-.003-3.785-.002-1.264-.003-2.527-.003-3.793v-7.576c0-1.26-.003-2.52-.006-3.779-.003-1.262-.006-2.525-.006-3.787v-7.572c0-1.26-.002-2.522-.003-3.785-.0001-1.262-.003-2.525-.003-3.793v-.021h.425v.021c0 1.268.0001 2.531.002 3.793.002 1.263.003 2.523.003 3.785v7.572c0 1.262.003 2.524.006 3.787.003 1.26.006 2.52.006 3.779v7.576c0 1.266.002 2.529.003 3.793.002 1.262.003 2.523.003 3.785v7.566"/><path fill="url(#SVGID_33_)" d="m108.47 70.957v-32.14c0-2.103 0-4.279-.012-6.43v-.018h.424v.016c.012 2.152.012 4.328.012 6.432v32.13l-.424.001"/><path fill="url(#SVGID_34_)" d="m102.96 78.67h-.424v-23.574c0-1.313-.003-2.625-.007-3.936-.003-1.309-.005-2.613-.005-3.92v-7.861c0-1.31.002-2.617.002-3.926.002-1.309.003-2.615.003-3.925v-.028h.425v.028c0 1.31-.002 2.616-.003 3.925s-.003 2.617-.003 3.926v7.861c0 1.305.003 2.611.006 3.92.003 1.31.006 2.623.006 3.936v23.574"/><g fill="#fff"><path d="m96.78 78.67h-.425v-24.03c.007-2.672.007-5.338.007-8v-16.04h.423v16.04c0 2.666 0 5.333-.005 8v24.03"/><rect x="76.57" y="78.45" width="58.772" height=".423"/><path d="m135.32 36.522l-.022-.003c-.735-.109-1.471-.217-2.21-.326-.914-.133-1.833-.268-2.763-.406-1.168-.172-2.356-.346-3.554-.52l-1.594-.232c-1.063-.158-2.137-.316-3.218-.477-.696-.102-1.395-.205-2.097-.309-1.815-.266-3.655-.535-5.507-.811-1.128-.164-2.262-.332-3.403-.5-.766-.113-1.535-.227-2.309-.342l-1.344-.195c-1.516-.223-3.04-.445-4.586-.668-1.641-.246-3.302-.488-4.987-.734l-3.751-.552c-1.262-.187-2.534-.375-3.816-.563-1.779-.266-3.57-.53-5.389-.798l-1.271-.187c-.941-.138-1.889-.277-2.84-.417-1.354-.199-2.718-.399-4.095-.599-.145-.021-.205-.126-.205-.216h.212l.041-.206.019.003c1.371.199 2.736.399 4.09.599.952.141 1.899.279 2.84.417l1.271.188c1.818.267 3.609.531 5.389.797 1.282.188 2.554.376 3.816.563l3.75.552c1.686.246 3.348.489 4.986.734 1.546.221 3.07.445 4.587.667l1.344.197c.774.113 1.544.227 2.31.34 1.141.17 2.273.336 3.402.5 1.852.275 3.691.545 5.508.811.702.104 1.401.207 2.096.311 1.082.158 2.155.316 3.218.475l1.594.232c1.197.174 2.386.348 3.554.52.929.139 1.85.273 2.764.407.734.108 1.466.214 2.195.323.072.004.12.037.144.061l.067.062.002.095h-.425.212l-.145.152c.059.056.124.056.143.055h-.023"/></g><path fill="url(#SVGID_35_)" d="m119.92 71.45c-.321-.008-.642-.016-.964-.023-.407-.001-.82-.021-1.229-.029-.402-.012-.799-.021-1.199-.031-.333-.008-.67-.017-1.013-.027-.583-.011-1.161-.025-1.755-.042l-.495-.013c-.682-.014-1.38-.031-2.084-.049l-2.5-.063c-.783-.025-1.563-.043-2.351-.063l-.069-.002c-.771-.016-1.541-.035-2.324-.057-.802-.014-1.611-.031-2.404-.053-.747-.016-1.49-.035-2.244-.056l-.223-.007c-.7-.014-1.409-.031-2.133-.049l-.359-.001-.011-.424h.021l.36.009c.722.019 1.431.036 2.132.05l.224.007c.753.019 1.496.04 2.244.056.792.021 1.6.039 2.403.053.784.022 1.555.039 2.324.057l.068.002c.789.02 1.571.037 2.354.063l2.499.063c.703.018 1.401.035 2.083.049l.497.012c.593.018 1.17.031 1.755.043.342.001.678.019 1.012.026.4.011.798.021 1.199.031.408.009.821.021 1.229.03.322.008.642.016.955.023l.004.423-.006.0001"/><path fill="url(#SVGID_36_)" d="m119.91 64c-.622-.027-1.241-.058-1.864-.09l-.323-.016c-.735-.037-1.476-.072-2.216-.109-.746-.035-1.488-.07-2.246-.109-.313-.016-.631-.031-.948-.046-.442-.021-.886-.042-1.33-.063l-2.306-.115c-.782-.043-1.558-.08-2.35-.117-.462-.024-.922-.047-1.383-.069-.336-.017-.672-.032-1.01-.05-.785-.03-1.599-.07-2.385-.11h-.019c-.822-.039-1.64-.078-2.463-.122-.318-.015-.639-.03-.961-.046-.507-.025-1.018-.051-1.535-.072l-.037-.002-.035-.016.083-.215.008-.191c.519.021 1.03.047 1.538.072.321.016.642.031.96.047.824.043 1.642.082 2.464.121l.019.002c.784.039 1.598.08 2.382.109.342.018.678.033 1.012.049.463.023.924.047 1.385.07.791.037 1.567.074 2.351.117l2.303.116c.443.021.889.041 1.331.063.316.015.634.03.949.046.759.039 1.499.074 2.246.111.739.035 1.48.071 2.215.107l.324.016c.623.032 1.24.063 1.861.09l-.019.423"/><path fill="url(#SVGID_37_)" d="m119.9 56.56h-.014c-.506-.038-1.02-.075-1.533-.112l-.641-.047c-.386-.029-.768-.059-1.148-.086-.357-.025-.716-.051-1.074-.078-.31-.023-.621-.047-.933-.068-.434-.033-.872-.063-1.313-.1l-.783-.057c-.493-.035-.992-.072-1.49-.109-.77-.053-1.539-.111-2.304-.168-.792-.057-1.563-.113-2.352-.174-.573-.039-1.141-.08-1.715-.124l-.676-.05c-.866-.059-1.652-.115-2.405-.174l-.459-.035c-.667-.049-1.333-.1-2-.148l-.771-.057c-.57-.042-1.144-.084-1.727-.127l.014-.176-.021-.248h.015.025c.582.045 1.156.086 1.726.127l.771.057c.67.049 1.336.1 2 .149l.46.034c.751.06 1.536.117 2.401.174l.679.051c.572.043 1.14.084 1.714.123.788.062 1.558.117 2.351.174.766.059 1.535.115 2.305.168.499.039.996.075 1.489.11l.786.058c.441.035.878.066 1.311.098.313.023.625.045.936.068.357.027.715.053 1.072.08.381.027.763.056 1.148.085l.64.046c.515.037 1.028.075 1.535.113l-.016.191.019.231-.023.002"/><path fill="url(#SVGID_38_)" d="m119.9 49.13h-.018c-.258-.025-.517-.051-.776-.076-.465-.047-.933-.093-1.408-.137l-.356-.034c-.615-.062-1.228-.122-1.854-.181-.468-.051-.937-.095-1.407-.142-.277-.026-.555-.054-.833-.083-.752-.074-1.516-.146-2.279-.221-.766-.078-1.54-.154-2.297-.225l-.525-.055c-.611-.063-1.216-.125-1.838-.18-.789-.08-1.576-.158-2.381-.234l-.72-.068c-.56-.055-1.121-.107-1.685-.164-.365-.035-.729-.072-1.092-.107-.457-.044-.912-.09-1.37-.133-.409-.041-.822-.082-1.237-.123-.416-.041-.836-.082-1.256-.125l.018-.182-.024-.24.02-.002.03.002c.42.043.839.084 1.254.125.416.041.83.082 1.237.123.457.043.914.088 1.37.133.363.037.727.072 1.092.107.563.055 1.126.109 1.685.162l.719.07c.806.076 1.593.154 2.381.234.622.055 1.229.117 1.841.18l.523.054c.756.071 1.533.147 2.298.226.763.073 1.527.146 2.279.223.278.027.556.054.833.081.471.046.94.093 1.408.14.624.061 1.238.121 1.854.182l.354.035c.475.043.944.09 1.41.137.259.025.518.051.775.075l-.019.194.018.229h-.024"/><path fill="url(#SVGID_39_)" d="m119.87 41.688c-.464-.055-.931-.111-1.399-.168l-.788-.097c-.735-.088-1.476-.181-2.211-.273l-.233-.029c-.667-.081-1.331-.163-2.01-.243-.732-.093-1.502-.188-2.287-.279l-.091-.012c-.725-.09-1.469-.182-2.196-.274-.793-.099-1.563-.192-2.361-.289-.788-.097-1.575-.194-2.387-.294-.787-.094-1.594-.193-2.398-.297-.762-.088-1.565-.188-2.457-.301-.356-.042-.715-.086-1.076-.129-.469-.059-.941-.115-1.42-.172l.021-.186-.027-.234.021-.003h.034c.479.058.952.115 1.421.172.361.044.721.088 1.078.131.891.113 1.694.211 2.455.301.807.104 1.611.201 2.399.297.812.1 1.599.195 2.387.293.799.096 1.568.189 2.362.289.728.094 1.473.186 2.195.275l.091.001c.785.094 1.555.188 2.287.28.678.08 1.343.161 2.01.243l.234.029c.735.092 1.477.186 2.211.273l.787.096c.469.057.935.113 1.398.168l.188.021v.189l-.213.004-.024.208"/><g fill="#fff"><path d="m128.05 78.878h-5.643l-.0001-.212c-.005-3.678-.009-7.363-.012-11.05-.0001-1.477-.004-2.953-.005-4.43-.003-2.211-.006-4.422-.006-6.635 0-1.843-.004-3.686-.007-5.527-.002-1.842-.005-3.684-.005-5.525s-.002-3.686-.004-5.529c-.0001-1.844-.002-3.689-.002-5.535v-.246l.242.036c1.764.257 3.504.514 5.226.77l.181.026v.184c0 1.813.003 3.627.006 5.44.003 1.812.007 3.624.007 5.433s.0001 3.618.002 5.428c.0001 1.809.003 3.618.003 5.428 0 1.813.003 3.627.006 5.44s.006 3.624.006 5.433c0 1.811.002 3.619.002 5.429.003 1.81.004 3.619.004 5.429v.21m-5.219-.423h4.795c0-1.74-.002-3.479-.004-5.217-.002-1.811-.002-3.619-.002-5.43 0-1.809-.003-3.619-.006-5.432-.004-1.814-.006-3.628-.006-5.441 0-1.81-.002-3.619-.003-5.428-.002-1.809-.003-3.619-.003-5.428s-.004-3.621-.006-5.432c-.002-1.753-.006-3.507-.006-5.259-1.584-.235-3.184-.472-4.801-.708 0 1.766.002 3.528.003 5.291.0001 1.844.003 3.688.003 5.529s.003 3.684.006 5.525.006 3.684.006 5.527c0 2.211.004 4.424.007 6.634.0001 1.478.003 2.954.005 4.431.003 3.615.006 7.229.012 10.838"/><path d="m93.6 78.878h-6.954v-.212c0-4.01.003-8.03.006-12.05v-.318c.002-2.061.002-4.123.003-6.188.0001-2.061.0001-4.125.003-6.188.003-4.121.007-8.238.007-12.359 0-2.059.002-4.121.005-6.184.003-2.063.006-4.13.006-6.198v-.244l2.146.317c1.56.23 3.098.458 4.62.68l.183.026v.184c0 2.023-.0001 4.045-.003 6.068-.002 2.02-.003 4.045-.003 6.067 0 2.02-.003 4.04-.006 6.06-.003 2.02-.007 4.04-.007 6.06l.002 4.05c0 2.697 0 5.393-.002 8.09v.295c-.002 3.941-.005 7.893-.005 11.828v.212zm-6.531-.423h6.106c0-3.867.003-7.746.005-11.617v-.297c.002-2.691.002-5.387.002-8.08l-.002-4.05c0-2.02.003-4.04.006-6.06.004-2.02.006-4.04.006-6.06 0-2.02.002-4.046.004-6.067.0001-1.961.002-3.923.002-5.884-1.464-.214-2.941-.433-4.439-.654l-1.66-.246c0 1.985-.003 3.969-.006 5.954-.002 2.062-.006 4.123-.006 6.182 0 4.121-.002 8.238-.005 12.359-.002 2.063-.003 4.127-.004 6.188 0 2.063-.0001 4.126-.003 6.187v.318c-.002 3.945-.006 7.896-.006 11.837"/><path d="m114.23 78.878h-11.196v-.212c-.006-2.404-.006-4.807-.006-7.211v-.217l.215.004c2.232.045 4.433.096 6.601.145 1.407.033 2.799.064 4.18.096l.207.004v7.391zm-10.773-.423h10.35v-6.555c-1.313-.027-2.637-.059-3.973-.088-2.098-.049-4.226-.098-6.382-.143 0 2.263 0 4.524.005 6.786"/></g><g fill-rule="evenodd"><polygon fill="url(#SVGID_40_)" points="35.145,6.572 76.184,13.036 76.184,78.764 
	35.145,78.764 "/><g fill="#fff"><path d="m46.2 78.76c1.203 0 2.401 0 3.597 0 1.187 0 2.367 0 3.545 0 0-1.648.0001-3.299.002-4.949.0001-1.648 0-3.301 0-4.951-1.178-.027-2.36-.053-3.547-.078-1.192-.028-2.394-.055-3.597-.082 0 1.68 0 3.356 0 5.03 0 1.675 0 3.351 0 5.03"/><path d="m53.75 78.76c1.166 0 2.33 0 3.481 0 1.149 0 2.294 0 3.433 0 0-1.621 0-3.245 0-4.867 0-1.621 0-3.246 0-4.871-1.139-.025-2.283-.051-3.433-.076-1.151-.025-2.315-.051-3.479-.078 0 1.65-.0001 3.301-.002 4.948-.002 1.647 0 3.297 0 4.944"/><path d="m61.19 78.76c1.127 0 2.25 0 3.367 0 1.109 0 2.215 0 3.318 0 0-1.596 0-3.191 0-4.787s0-3.193 0-4.791c-1.105-.023-2.209-.049-3.321-.074-1.116-.023-2.239-.049-3.364-.074 0 1.623 0 3.244 0 4.865 0 1.618 0 3.242 0 4.861"/><polygon points="46.568,63.138 67.396,63.734 67.396,60.592 46.568,59.994 
	"/><path d="m46.568 55.49c6.942.311 13.886.621 20.828.932 0-1.049 0-2.096 0-3.143-6.942-.311-13.886-.621-20.828-.93 0 1.048 0 2.094 0 3.141"/><path d="m46.568 47.836c6.942.421 13.886.843 20.828 1.264 0-1.047 0-2.096 0-3.143-6.942-.42-13.886-.842-20.828-1.264 0 1.048 0 2.096 0 3.143"/><path d="m46.568 40.19c6.942.531 13.886 1.064 20.828 1.596 0-1.047 0-2.094 0-3.141-6.942-.533-13.886-1.064-20.828-1.598 0 1.049 0 2.096 0 3.143"/><path d="m46.568 32.535c6.942.643 13.886 1.286 20.828 1.93 0-1.047 0-2.096 0-3.143-6.942-.642-13.886-1.286-20.828-1.929 0 1.047 0 2.094 0 3.142"/><path d="m46.568 24.883c6.942.755 13.886 1.51 20.828 2.264 0-1.047 0-2.094 0-3.142-6.942-.754-13.886-1.509-20.828-2.263 0 1.048 0 2.094 0 3.141"/><polygon points="46.568,17.233 67.396,19.83 67.396,16.688 46.568,14.091 
	"/><polygon points="17.662,64.961 7.176,66.486 7.176,78.654 17.662,78.654 	
		"/></g></g><g fill="#fff"><path d="m17.874 78.867h-10.91v-12.564l10.91-1.588v14.15m-10.486-.425h10.06v-13.237l-10.06 1.465v11.772"/><polygon fill-rule="evenodd" points="17.662,64.961 25.176,57.271 25.176,78.654 
		17.662,78.654 	"/><path d="m25.388 78.867h-7.938v-13.994l7.938-8.123v22.12m-7.514-.425h7.089v-20.651l-7.089 7.256v13.395"/><polygon fill-rule="evenodd" points="17.662,64.961 7.176,66.486 14.695,59.74 25.173,57.125 	
		"/><path d="m6.678 66.72l7.941-7.125 11.05-2.76-7.932 8.273-.054.008-11.01 1.604m8.094-6.836l-7.099 6.369 9.91-1.443 7.093-7.398-9.904 2.472"/><path d="m16.412 78.81h-8.204v-11.04l8.204-.928v11.969m-7.886-.318h7.568v-11.293l-7.568.854v10.439"/></g><rect x="11.715" y="67.52" fill="url(#SVGID_41_)" width=".318" height="11.135"/><path fill="url(#SVGID_42_)" d="m53.48 8.02l-7.2-1.17v-2.941l7.2 1.171v2.94m-6.883-1.441l6.565 1.067v-2.295l-6.565-1.068v2.296"/><polygon fill="url(#SVGID_43_)" points="46.293,6.779 45.109,4.231 46.402,3.939 46.473,4.249 45.564,4.455 46.582,6.646 "/><path fill="url(#SVGID_44_)" d="m69.11 10.562l-7.201-1.171v-2.94l7.201 1.171v2.94m-6.883-1.441l6.564 1.067v-2.296l-6.564-1.067v2.296"/><polygon fill="url(#SVGID_45_)" points="61.929,9.323 60.746,6.775 62.038,6.482 62.107,6.792 61.199,6.999 62.218,9.189 "/><path fill="url(#SVGID_46_)" d="m89.41 28.611l-5.676-.881v-2.266l5.676.88v2.267m-5.359-1.153l5.04.781v-1.621l-5.04-.782v1.622"/><polygon fill="#fff" points="83.745,27.664 82.8,25.723 83.855,25.495 83.922,25.806 83.264,25.948 84.032,27.524 "/><path fill="url(#SVGID_47_)" d="m101.58 30.5l-5.678-.881v-2.265l5.678.881v2.265m-5.359-1.154l5.04.782v-1.622l-5.04-.782v1.622"/><polygon fill="#fff" points="95.919,29.552 94.974,27.611 96.028,27.383 96.096,27.694 95.438,27.835 96.205,29.413 "/><path fill="url(#SVGID_48_)" d="m114.48 32.438l-5.41-.838v-2.17l5.41.84v2.168m-5.091-1.111l4.773.74v-1.525l-4.773-.74v1.525"/><polygon fill="#fff" points="109.086,31.533 108.184,29.679 109.195,29.459 109.263,29.771 108.646,29.905 109.372,31.394 "/><path fill="url(#SVGID_49_)" d="m126.05 34.23l-5.411-.838v-2.17l5.411.838v2.17m-5.093-1.111l4.774.74v-1.525l-4.774-.74v1.525"/><polygon fill="#fff" points="120.654,33.326 119.752,31.473 120.765,31.255 120.831,31.565 120.215,31.698 120.939,33.188 "/><path fill-rule="evenodd" fill="url(#SVGID_50_)" d="m137.8 77.4h12.408c0-1.01 0-1.994-4.257-2.282-.575-1.891-1.066-1.584-5.202-1.584-2.512 1.408-3.256 2.678-2.949 3.866"/><g fill="#fff"><path d="m150.23 77.41h-12.436l-.004-.012c-.338-1.309.629-2.579 2.957-3.887l.004-.002h.004c.565 0 1.063-.005 1.5-.001.352-.004.655-.008.934-.008 1.988 0 2.355.211 2.781 1.604 1.935.132 3.117.409 3.722.872.538.412.538.928.538 1.425v.018m-12.411-.032h12.379c-.0001-1.013-.023-1.964-4.242-2.249l-.012-.002-.003-.001c-.425-1.398-.759-1.593-2.753-1.593-.277 0-.581.003-.933.007-.438.006-.933.012-1.497.012-2.303 1.293-3.264 2.547-2.939 3.835"/><path fill-rule="evenodd" d="m139.74 78.47c.639 0 1.161-.521 1.161-1.162 0-.639-.522-1.161-1.161-1.161-.64 0-1.162.522-1.162 1.161 0 .64.522 1.162 1.162 1.162"/></g><path fill="url(#SVGID_51_)" d="m139.74 78.57c-.699 0-1.269-.568-1.269-1.268 0-.697.569-1.268 1.269-1.268.698 0 1.267.57 1.267 1.268 0 .7-.569 1.268-1.267 1.268m0-2.322c-.583 0-1.056.473-1.056 1.055s.473 1.056 1.056 1.056c.581 0 1.055-.474 1.055-1.056s-.474-1.055-1.055-1.055"/><path fill-rule="evenodd" fill="#fff" d="m147.93 78.47c.639 0 1.161-.521 1.161-1.162 0-.639-.522-1.161-1.161-1.161-.64 0-1.162.522-1.162 1.161 0 .64.522 1.162 1.162 1.162"/><path fill="url(#SVGID_52_)" d="m147.93 78.57c-.699 0-1.268-.568-1.268-1.268 0-.697.568-1.268 1.268-1.268s1.268.57 1.268 1.268c-.0001.7-.569 1.268-1.268 1.268m0-2.322c-.582 0-1.055.473-1.055 1.055s.473 1.056 1.055 1.056 1.056-.474 1.056-1.056-.474-1.055-1.056-1.055"/><g fill="#fff"><path fill-rule="evenodd" d="m141.62 74.12c1.468 0 .775 0 2.242 0 1.635.078 1.445 1.061 1.602 1.227h-4.613l.769-1.227"/><path d="m145.5 75.36h-4.678l.789-1.258h2.251c1.304.063 1.461.699 1.544 1.041.021.088.039.158.068.191l.026.026m-4.62-.031h4.553c-.023-.041-.039-.104-.058-.178-.082-.333-.234-.955-1.513-1.017h-2.233l-.749 1.195"/><path fill-rule="evenodd" d="m139.74 77.848c.297 0 .543-.244.543-.543s-.246-.543-.543-.543c-.299 0-.543.244-.543.543s.244.543.543.543"/></g><path fill="url(#SVGID_53_)" d="m139.74 77.953c-.357 0-.648-.291-.648-.648s.291-.648.648-.648.647.291.647.648-.289.648-.647.648m0-1.084c-.24 0-.438.195-.438.436s.197.438.438.438.437-.197.437-.438-.197-.436-.437-.436"/><circle fill-rule="evenodd" fill="#fff" cx="147.93" cy="77.31" r=".543"/><path fill="url(#SVGID_54_)" d="m147.93 77.953c-.357 0-.648-.291-.648-.648s.291-.648.648-.648.648.291.648.648-.291.648-.648.648m0-1.084c-.24 0-.437.195-.437.436s.196.438.437.438c.241 0 .437-.197.437-.438s-.196-.436-.437-.436"/><path fill-rule="evenodd" fill="url(#SVGID_55_)" d="m76.61 27.17c2.341.34 4.646.682 6.923 1.014 1.128.167 2.246.332 3.355.495.654.097 1.306.193 1.954.289 1.543.229 3.063.455 4.57.673 0 .0001 0 .002 0 .004 1.061.157 2.115.312 3.161.467 2.093.306 4.15.604 6.172.907 2 .287 3.973.578 5.93.863 1.928.283 3.827.568 5.713.842 1.852.275 3.691.545 5.507.811 1.068.158 2.13.314 3.183.469 1.274.188 2.538.373 3.792.559 1.175.172 2.34.342 3.487.51 1.681.25 3.333.489 4.973.732v-.018l-2.642-3.857-56.08-8.978v4.218m7.282-.082l-.856-1.759.856-.186 5.359.831v1.944l-5.359-.83m12.173 1.888l-.855-1.759.855-.185 5.359.831v1.945l-5.359-.832m13.167 1.981l-.814-1.672.814-.175 5.092.789v1.848l-5.092-.79m10.754.123l.813-.176 5.092.791v1.846l-5.092-.789-.813-1.672"/><path fill="#fff" d="m135.34 35.819l-.019-.003c-.734-.109-1.471-.217-2.21-.324-.901-.133-1.833-.27-2.763-.409-1.146-.167-2.313-.337-3.486-.509-1.367-.203-2.607-.385-3.793-.557l-1.047-.155c-.708-.104-1.42-.209-2.135-.315-1.631-.237-3.561-.52-5.507-.811-1.137-.164-2.3-.336-3.425-.503-.758-.112-1.521-.226-2.289-.337l-1.322-.195c-1.501-.219-3.054-.447-4.607-.669-1.633-.245-3.253-.481-4.969-.731l-1.202-.175c-.804-.119-1.611-.239-2.425-.359l-.751-.11v-.004c-1.518-.221-3.063-.45-4.556-.671-.649-.096-1.301-.192-1.953-.288-.705-.104-1.412-.208-2.123-.313l-1.234-.183c-.941-.137-1.889-.276-2.841-.416-1.332-.196-2.71-.398-4.081-.598l-.014-.0001v-4.253l.018.002 56.08 8.98.003.004 2.646 3.861v.042m-41.917-6.192l.725.107c.813.12 1.62.24 2.424.357l1.203.176c1.715.25 3.335.487 4.967.732 1.555.222 3.107.45 4.609.67l1.322.193c.768.113 1.529.226 2.289.338 1.125.166 2.288.339 3.423.504 1.947.289 3.876.572 5.508.811.715.105 1.427.211 2.135.314l1.047.154c1.186.174 2.425.355 3.793.559 1.173.17 2.34.342 3.487.508.928.139 1.859.275 2.762.408.732.107 1.461.215 2.187.322l-2.63-3.84-56.05-8.974v4.186c1.368.199 2.74.4 4.068.595.952.14 1.898.279 2.842.418l1.233.181c.712.105 1.419.209 2.121.313.654.097 1.306.193 1.954.289 1.499.221 3.048.451 4.57.672l.014.002v.005m32.48 3.93l-.02-.002-5.101-.791-.003-.008-.824-1.691.838-.181.003.0001 5.106.792v1.88zm-5.097-.823l5.064.785v-1.814l-5.075-.788-.791.17.802 1.647m-6.471-.972l-.02-.002-5.1-.791-.004-.007-.823-1.69.837-.181h.004l5.105.792v1.879m-5.097-.823l5.064.786v-1.815l-5.074-.787-.791.171.801 1.645m-7.802-1.116l-.02-.003-5.367-.832-.004-.009-.864-1.777.879-.19h.003l5.373.833v1.978m-5.366-.865l5.332.827v-1.911l-5.342-.829-.832.18.842 1.733m-6.808-1.023l-.02-.003-5.366-.832-.004-.008-.864-1.777.879-.19h.002l5.373.833v1.977m-5.365-.865l5.332.828v-1.912l-5.343-.828-.833.18.844 1.732"/><g fill-rule="evenodd"><path fill="url(#SVGID_40_)" d="m35.15 6.06l41.04 6.464-2.637-5.918-35.641-6.554-2.761 6.01m11.293.141l-1.1-2.37 1.1-.249 6.883 1.12v2.618l-6.883-1.119m15.635 2.543l-1.101-2.369 1.101-.249 6.882 1.119v2.619l-6.882-1.12"/><path fill="url(#SVGID_57_)" d="m13.568 22.23c0-.0001 0-.0001 0 0m16.32-12.205c-.078.059-.156.116-.233.175-.34.254-.677.506-1.013.757-.128.096-.257.192-.386.288-1.05.787-2.078 1.556-3.08 2.307l-2.883 2.154c-.922.688-1.816 1.359-2.694 2.02-.86.642-1.699 1.271-2.524 1.887-.807.604-1.599 1.196-2.373 1.774-.382.286-.759.568-1.133.847 0 .0001 0 .0001 0 .0001-.37.276-.736.55-1.096.821-.361.27-.719.537-1.072.801-.351.262-.696.521-1.039.776l-1.991 1.49v-.0001l3.68-5.509 25.855-20.559-2.762 6.01v.037l-3.571 2.67c-.57.426-1.132.847-1.685 1.261"/></g><path fill="#fff" d="m8.354 26.16v-.039l.002-.004 3.684-5.513 25.909-20.6-.029.062-2.76 6v.041l-.006.005-3.571 2.67c-.456.341-.907.677-1.353 1.01l-.566.424c-.341.254-.678.506-1.013.757l-.022.017c-.121.09-.242.181-.363.271-.552.415-1.099.823-1.639 1.227-.486.364-.967.723-1.441 1.079l-2.883 2.155c-.521.389-1.033.771-1.539 1.151-.389.291-.774.579-1.156.865-.393.292-.779.583-1.163.87-.458.343-.911.682-1.36 1.017-.521.392-1.038.777-1.547 1.157-.278.208-.553.413-.826.617l-1.134.848c-.369.277-.735.55-1.095.822-.356.266-.709.529-1.059.79l-.014.001c-.35.262-.697.521-1.039.777l-2.02 1.509m3.709-5.531l-3.628 5.431 1.916-1.435c.344-.257.689-.515 1.04-.777l.014-.001c.349-.261.701-.523 1.058-.789.358-.27.721-.541 1.087-.815v-.002l.014-.008 1.129-.845c.272-.204.549-.41.826-.617.51-.381 1.025-.766 1.547-1.158.449-.334.902-.673 1.36-1.016.384-.287.771-.578 1.164-.871.382-.285.767-.573 1.155-.864.506-.378 1.018-.762 1.539-1.15l2.883-2.155c.475-.355.955-.716 1.441-1.079.54-.404 1.087-.813 1.639-1.227.121-.09.242-.181.363-.272l.023-.017c.335-.25.672-.503 1.012-.757l.566-.423c.446-.333.896-.671 1.353-1.012l3.564-2.666v-.034l2.733-5.946-25.799 20.514"/><path fill-rule="evenodd" fill="url(#SVGID_58_)" d="m31.573 9.278c0 3.853 0 7.706.003 11.559l.343-.215.351-.217.349-.219.353-.22.356-.223.356-.222.359-.224.367-.229c.12-.076.244-.151.367-.229.12-.075.244-.151.367-.229v-12l-3.571 2.671"/><path fill="#fff" d="m31.561 20.867v-.03c-.004-3.853-.004-7.77-.004-11.559v-.008l.007-.005 3.597-2.689v12.04l-.008.005c-.072.045-.145.09-.216.134-.051.032-.101.063-.151.095-.072.046-.145.091-.218.136-.05.032-.101.062-.149.093l-2.858 1.783m.027-11.58c0 3.776 0 7.68.004 11.521l2.81-1.752c.05-.031.1-.063.149-.094.072-.044.145-.089.218-.136.05-.031.101-.063.151-.094.069-.043.139-.087.208-.131v-11.961l-3.54 2.647"/><path fill-rule="evenodd" fill="url(#SVGID_59_)" d="m32.618 20.19l-.349.219-.351.217-.343.215v11.565l.346-.172.348-.174.351-.176.351-.174.359-.18.354-.176.359-.179.367-.183.367-.184.367-.183v-12.01c-.123.078-.247.154-.367.229-.123.078-.247.153-.367.229l-.367.229-.359.224-.356.222-.356.223-.354.219"/><path fill="#fff" d="m31.561 32.43v-11.601l2.841-1.772c.05-.031.1-.063.149-.094.072-.044.145-.089.218-.136.05-.031.101-.063.151-.094.071-.045.143-.09.216-.135l.024-.016v12.05l-3.599 1.797m.031-11.585v11.532l3.536-1.765v-11.971c-.063.04-.128.079-.191.118-.051.032-.101.063-.151.095-.072.046-.145.091-.218.136-.05.032-.101.062-.149.093l-2.827 1.762"/><path fill-rule="evenodd" fill="url(#SVGID_59_)" d="m32.971 31.707l-.351.174-.351.176-.348.174-.346.172c0 3.854 0 7.707.002 11.559l.344-.129.35-.131.349-.129.351-.133.359-.135.354-.133.361-.133.365-.138.367-.138.367-.137v-12l-.367.183-.367.184-.367.183-.359.179-.354.176-.359.18"/><path fill="#fff" d="m31.563 43.984v-.023c-.002-3.852-.002-7.77-.002-11.559v-.001l3.6-1.796v12.04l-1.109.417-2.489.93m.029-11.572c0 3.779 0 7.684.003 11.526l3.533-1.323v-11.967l-3.536 1.764"/><polygon fill-rule="evenodd" fill="url(#SVGID_61_)" points="33.33,43.305 32.971,43.439 32.62,43.572 
		32.271,43.701 31.922,43.832 31.578,43.961 31.578,55.528 31.924,55.441 32.271,55.354 32.62,55.268 32.974,55.18 33.33,55.09 
		33.687,55.002 34.045,54.912 34.413,54.82 34.779,54.729 35.145,54.637 35.145,42.627 34.777,42.764 34.41,42.901 34.045,43.039 
		33.684,43.172 	"/><path fill="#fff" d="m31.563 55.55v-11.597l2.115-.793.362-.135 1.12-.42v12.05l-.012.004-3.585.896m.032-11.575v11.534l3.533-.882v-11.975l-3.533 1.323"/><path fill-rule="evenodd" fill="url(#SVGID_61_)" d="m33.33 55.09l-.356.09-.354.088-.349.087-.348.087-.346.087c0 3.858 0 7.712.003 11.565l.343-.043.352-.044.348-.044.351-.043.359-.045.354-.045.358-.045.368-.047.366-.045.365-.045v-12.01l-.365.092-.366.092-.368.092-.358.09-.357.087"/><path fill="#fff" d="m31.564 67.11v-.018c-.002-3.854-.002-7.773-.002-11.565v-.013l3.598-.9v12.05l-3.596.449m.031-11.571c0 3.782 0 7.692.003 11.534l3.53-.44v-11.976l-3.533.882"/><polygon fill-rule="evenodd" fill="url(#SVGID_63_)" points="33.687,66.83 33.333,66.875 32.974,66.92 
		32.623,66.963 32.275,67.007 31.924,67.051 31.581,67.094 31.581,78.652 35.145,78.652 35.145,66.648 34.779,66.693 34.413,66.738 
		34.045,66.785 	"/><path fill="#fff" d="m31.564 78.67v-11.59l3.596-.449v12.04h-3.596m.034-11.561v11.529l3.53-.002v-11.968l-3.53.441"/><polygon fill-rule="evenodd" fill="url(#SVGID_64_)" points="25.176,57.123 25.176,46.355 25.173,46.355 
		23.994,46.797 22.852,47.225 22.29,47.434 22.29,57.842 22.852,57.703 23.994,57.418 25.173,57.125 	"/><path fill="#fff" d="m22.274 57.863v-10.441l.011-.004 2.904-1.084.002.021v10.781l-.011.004-2.906.723m.033-10.419v10.378l2.853-.711v-10.732l-2.853 1.065"/><path fill-rule="evenodd" fill="url(#SVGID_64_)" d="m23.994 46.797l1.179-.441h.003v-10.762l-.003.002-1.179.588-1.143.568-.559.277v.002c0 3.467-.003 6.934-.003 10.402l.562-.209 1.143-.427"/><path fill="#fff" d="m22.274 47.46v-.023c0-1.734.0001-3.469.0001-5.201.0001-1.734.002-3.468.002-5.201v-.001l.009-.006 2.903-1.445.002.023v10.772l-.001.005-2.907 1.086m.035-10.417c0 1.731 0 3.462-.0001 5.192 0 1.725-.0001 3.452-.0001 5.178l2.853-1.065v-10.724l-2.851 1.419"/><path fill-rule="evenodd" fill="url(#SVGID_66_)" d="m23.994 36.18l1.179-.588.003-.002v-10.768l-.003.002c-.401.25-.79.491-1.179.733l-1.143.713-.559.347v10.408l.559-.277 1.143-.568"/><path fill="#fff" d="m22.277 37.06v-10.444l1.738-1.084c.379-.236.757-.472 1.148-.715l.025-.015.002.027v10.778l-.008.005-2.905 1.448m.032-10.426v10.373l2.851-1.42v-10.729c-.386.239-.756.471-1.127.701l-1.724 1.075"/><path fill-rule="evenodd" fill="url(#SVGID_66_)" d="m22.852 26.27l1.143-.713c.389-.242.777-.483 1.179-.733l.003-.002v-10.762l-2.883 2.155v10.402l.558-.347"/><path fill="#fff" d="m22.277 26.65v-10.439l.006-.004 2.908-2.174v10.803l-.007.004c-.395.244-.773.48-1.152.717l-1.755 1.093m.032-10.422v10.365l1.707-1.063c.377-.235.754-.47 1.144-.712v-10.722l-2.851 2.132"/><path fill-rule="evenodd" fill="url(#SVGID_68_)" d="m17.07 29.88c.003-3.251.003-6.501.003-9.758-.807.604-1.599 1.195-2.373 1.774v9.46c.308-.19.618-.385.932-.58l.957-.595c.16-.099.32-.2.481-.301"/><path fill="#fff" d="m14.685 31.386v-9.499l.007-.004c.268-.2.537-.401.809-.605.516-.384 1.037-.774 1.564-1.17l.026-.019v.033c0 3.199 0 6.507-.003 9.758v.009l-.008.005-.072.045c-.137.087-.273.171-.41.255l-1.082.674c-.271.169-.54.336-.807.502l-.024.016m.033-9.482v9.425c.258-.161.519-.323.781-.487l1.082-.673c.136-.085.272-.171.409-.256l.065-.041c.003-3.237.003-6.531.003-9.717-.52.389-1.033.772-1.539 1.15-.269.201-.537.401-.801.599"/><path fill-rule="evenodd" fill="url(#SVGID_69_)" d="m17.07 29.881c-.161.1-.321.201-.481.301l-.957.595c-.313.195-.624.39-.932.58v.002c-.003 3.158-.003 6.311-.003 9.462h.003l.932-.465.954-.475.484-.242v-9.757"/><path fill="#fff" d="m14.682 40.846v-.024c0-3.101 0-6.305.003-9.462v-.001l.008-.007c.267-.165.535-.332.806-.502l1.083-.673c.136-.085.272-.171.409-.256l.098-.061v9.796l-2.384 1.188-.023.011m.036-9.479c-.003 3.147-.003 6.34-.003 9.428l2.341-1.167v-9.718l-.048.029c-.137.087-.273.171-.41.255l-1.082.674c-.268.169-.535.335-.798.499"/><path fill-rule="evenodd" fill="url(#SVGID_70_)" d="m16.587 39.881l-.954.475-.932.465h-.003c0 3.153 0 6.304-.003 9.45h.003l.933-.348.956-.357.482-.182c0-3.244.002-6.496.002-9.746l-.484.242"/><path fill="#fff" d="m14.682 50.3l-.002-.023c.002-3.146.002-6.35.002-9.45v-.011l.011-.004 2.396-1.194v.026c0 1.626 0 3.252-.0001 4.877s-.002 3.247-.002 4.869v.012l-.001.004-2.394.894m.033-9.463c0 3.088 0 6.281-.004 9.417l2.342-.874c0-1.619 0-3.239.0001-4.859.0001-1.617.002-3.234.002-4.851l-2.341 1.167"/><polygon fill-rule="evenodd" fill="url(#SVGID_71_)" points="16.587,49.566 15.631,49.924 14.698,50.271 
		14.695,50.271 14.695,59.74 15.091,59.643 15.099,59.641 17.069,59.148 17.069,49.385 	"/><path fill="#fff" d="m14.68 59.762v-9.5l.011-.004 2.395-.896v9.799l-.012.003-2.394.598m.031-9.478v9.435l.384-.094 1.958-.49v-9.727l-2.342.876"/><path fill-rule="evenodd" fill="url(#SVGID_72_)" d="m10.355 60.822c0-2.971.003-5.943.003-8.926l-.207.076-.2.076-.204.075-.2.075-.202.076-.198.076-.198.074-.193.073-.195.073-.19.071v8.679l.19-.049.195-.049.193-.049.198-.049.198-.051.202-.049.2-.051.201-.049.203-.051.204-.051"/><path fill="#fff" d="m8.354 61.34v-8.711l2.02-.758v.023c0 1.492-.0001 2.982-.002 4.471-.0001 1.486-.002 2.971-.002 4.455v.014l-2.02.506m.033-8.69v8.646l1.953-.488c0-1.48 0-2.961.002-4.443 0-1.48 0-2.963 0-4.447l-1.955.732"/><polygon fill-rule="evenodd" fill="url(#SVGID_73_)" points="9.747,60.975 9.547,61.025 9.345,61.074 
		9.147,61.125 8.949,61.174 8.756,61.223 8.561,61.271 8.371,61.32 8.371,65.416 10.355,63.635 10.355,60.822 10.151,60.875 
		9.948,60.926 	"/><path fill="#fff" d="m8.354 65.45v-4.144l2.02-.505v2.839l-.005.005-2.01 1.805m.033-4.119v4.047l1.953-1.752v-2.783l-1.953.488"/><path fill-rule="evenodd" fill="url(#SVGID_72_)" d="m9.147 52.35l.198-.074.202-.076.2-.075.204-.075.2-.076.207-.076v-8.91l-.203.102-.204.1-.201.099-.201.102-.201.1-.198.099c-.069.034-.134.067-.198.101l-.196.096-.195.098-.19.096v8.663l.19-.071.195-.073.193-.073.198-.077"/><path fill="#fff" d="m8.354 52.664v-8.694l.009-.005.603-.302c.058-.028.115-.059.176-.089l1.232-.615v8.948l-1.421.532-.599.225m.033-8.676v8.629l1.955-.732v-8.873l-1.185.592c-.062.029-.12.06-.176.088l-.594.296"/><path fill-rule="evenodd" fill="url(#SVGID_75_)" d="m9.348 43.49l.201-.1.201-.102.202-.102.204-.1.203-.102c0-2.973.003-5.945.003-8.922l-.206.127-.202.125-.204.129-.201.127-.201.125-.198.123-.198.123-.196.123-.195.122-.19.12v8.672l.19-.096.195-.098.196-.096c.064-.033.128-.066.198-.101l.198-.097"/><path fill="#fff" d="m8.354 44.01v-8.707l1.387-.869.636-.395v.029c0 1.488 0 2.977-.002 4.465 0 1.485 0 2.971 0 4.457v.001l-1.218.607c-.062.029-.12.06-.176.089l-.627.314m.033-8.691v8.638l.58-.29c.057-.028.115-.059.176-.089l1.199-.6c0-1.48.0001-2.963.0001-4.445.0001-1.479.002-2.957.002-4.436l-1.776 1.107-.182.115"/><polygon fill-rule="evenodd" fill="url(#SVGID_75_)" points="9.149,34.818 9.348,34.695 9.549,34.57 
		9.75,34.443 9.954,34.316 10.155,34.191 10.361,34.064 10.361,25.142 8.371,26.633 8.371,35.307 8.371,35.307 8.561,35.187 
		8.756,35.064 8.952,34.941 	"/><path fill="#fff" d="m8.354 35.34v-8.711l2.023-1.514v8.962l-1.808 1.127-.215.136m.033-8.695v8.636l1.354-.848.604-.375v-8.88l-1.958 1.467"/><polygon fill-rule="evenodd" fill="url(#SVGID_77_)" points="19.593,62.984 17.662,64.961 17.662,68.834 
		17.662,69.617 17.662,78.654 18.706,78.654 19.593,78.654 20.401,78.654 22.058,78.654 22.29,78.654 25.176,78.653 25.176,67.891 
		25.176,57.271 22.29,60.224 	"/><path fill="#fff" d="m17.646 78.67v-13.719l.005-.004 7.541-7.719v21.438l-7.546.004m.032-13.705v13.672l7.481-.002v-21.326l-7.481 7.656"/><path fill-rule="evenodd" fill="url(#SVGID_78_)" d="m15.09 59.64h-.007l-.389.097.396-.098m2.571 5.318l-.595.086-2.374.346-1.135.166-2.166.314-1.037.15-1.985.289-1.194.174 1.194-1.07 1.985-1.781 1.037-.93 2.168-1.945 1.135-1.02.396-.098.008-.002.532-.133.953-.238.485-.12.493-.122 1-.252 1.026-.255c.06-.017.12-.032.182-.048l2.516-.629 2.883-.719-2.883 3.01-2.697 2.814-1.931 2.02"/><path fill="#fff" d="m7.125 66.51l7.559-6.782.011.012-.003-.016 4.896-1.221c.061-.016.12-.031.181-.047l5.453-1.361-7.553 7.879-.601.088-9.943 1.448m7.578-6.755l-7.477 6.707 10.428-1.518 7.468-7.791-5.343 1.334c-.062.016-.122.031-.183.047l-4.893 1.221"/><polygon fill-rule="evenodd" fill="url(#SVGID_79_)" points="13.559,65.559 11.393,65.873 10.355,66.023 
		8.371,66.313 7.176,66.486 7.176,78.654 8.368,78.654 8.368,69.993 8.368,67.915 8.371,67.915 10.355,67.691 11.392,67.573 
		11.875,67.52 13.559,67.328 14.693,67.201 16.254,67.025 16.254,69.008 16.254,78.654 17.066,78.654 17.234,78.654 17.662,78.654 
		17.662,69.617 17.662,68.834 17.662,64.961 17.067,65.047 14.693,65.393 	"/><path fill="#fff" d="m17.678 78.67h-1.439v-11.629l-7.855.887v10.742h-1.224v-12.199l.014-.002 10.504-1.529v13.73m-10.486-.033h1.159v-10.739l.015-.002 7.904-.893v11.633l.964-.0001.411.0001v-13.66l-10.453 1.522v12.139"/><g fill-rule="evenodd"><polygon fill="url(#SVGID_80_)" points="35.145,78.764 0,78.764 0,80.31 152.366,80.31 
	152.366,78.764 76.184,78.764 67.879,78.764 64.561,78.764 61.193,78.764 60.664,78.764 57.231,78.764 53.75,78.764 53.34,78.764 
	49.795,78.764 46.198,78.764 "/><path fill="url(#SVGID_81_)" d="m83.5 70.34c-.006 2.777-.006 5.545-.006 8.324h3.361c0-4.117.003-8.242.007-12.365.002-4.121.002-8.248.006-12.375.002-4.121.005-8.238.005-12.359s.012-8.248.012-12.381c-1.109-.164-2.228-.328-3.355-.494 0 2.778 0 5.557-.007 8.331v8.33c0 2.777-.005 5.547-.011 8.324v8.336c0 2.777 0 5.555-.012 8.329"/></g><path fill="#fff" d="m86.87 78.68h-3.395v-.016c0-2.727 0-5.547.006-8.324.012-2.773.012-5.598.012-8.33v-8.358c.006-2.72.013-5.532.013-8.302v-8.33c.005-2.773.005-5.599.005-8.331v-.018l1.436.21c.65.096 1.297.191 1.938.286l.014.0001v.015c0 2.067-.002 4.168-.005 6.2-.003 2.026-.006 4.123-.006 6.182 0 4.211-.004 8.539-.006 12.359-.002 2.063-.002 4.127-.003 6.188-.0001 2.063-.0001 4.126-.004 6.187v.264c-.002 3.969-.005 8.07-.005 12.1v.015m-3.362-.032h3.329c0-4.02.004-8.123.006-12.09v-.264c.002-2.061.003-4.123.004-6.188.0001-2.061.0001-4.125.003-6.188.003-3.82.006-8.148.006-12.359 0-2.059.003-4.155.006-6.182.003-2.027.006-4.123.006-6.185-.639-.095-1.28-.189-1.925-.284l-1.399-.205c0 2.725 0 5.543-.005 8.311v8.33c0 2.77-.007 5.582-.013 8.302v.022 8.336c0 2.732 0 5.557-.012 8.33-.006 2.775-.006 5.588-.006 8.31"/><path fill-rule="evenodd" fill="url(#SVGID_82_)" d="m93.39 66.54c-.003 4.04-.007 8.089-.007 12.12h3.181v-8-8.01-8.01c.005-2.672.005-5.338.005-8v-8.01-8c-1.046-.155-2.101-.31-3.161-.467 0 4.04-.006 8.09-.006 12.13 0 4.04-.012 8.09-.012 12.12 0 4.051.003 8.096 0 12.137"/><path fill="#fff" d="m96.58 78.68h-3.212v-.016c0-3.953.003-7.984.007-11.881v-.242c.0001-2.693.0001-5.434 0-8.09 0-1.35 0-2.699 0-4.05 0-2.02.002-4.075.004-6.06.004-1.987.007-4.04.007-6.06 0-2.02.002-4.04.003-6.06.002-2.02.003-4.045.003-6.07v-.019l.377.056c.939.139 1.874.276 2.804.414l.014.002v16.03c0 2.623 0 5.332-.006 8v24.05zm-3.18-.032h3.147v-24.01c.006-2.672.006-5.381.006-8v-16c-.925-.137-1.854-.273-2.791-.412l-.339-.049c0 2.02-.0001 4.03-.003 6.05-.0001 2.02-.002 4.04-.002 6.06 0 2.02-.004 4.075-.007 6.06-.002 1.987-.006 4.04-.006 6.06 0 1.351.0001 2.7.0001 4.05.0001 2.652.0001 5.393-.0001 8.09v.242c-.002 3.891-.005 7.915-.005 11.864"/><g fill-rule="evenodd"><path fill="url(#SVGID_83_)" d="m96.57 70.66v8h6.182v-7.851-.0001c-.402-.008-.806-.02-1.209-.031-.824-.017-1.641-.039-2.469-.061-.818-.017-1.646-.037-2.492-.06h-.012z"/><path fill="url(#SVGID_84_)" d="m103.24 71.45c0 2.404 0 4.807.007 7.211h3.638v-7.133c-1.205-.027-2.42-.054-3.645-.078"/></g><path fill="#fff" d="m106.9 78.68h-3.67v-.016c-.006-2.404-.006-4.848-.006-7.211v-.018l.017.002c1.082.021 2.239.046 3.644.076h.016v7.167zm-3.637-.032h3.605v-7.102c-1.39-.031-2.538-.057-3.611-.078 0 2.354 0 4.788.006 7.18"/><path fill-rule="evenodd" fill="url(#SVGID_85_)" d="m106.89 71.53v7.133h1.799 1.992 3.344v-6.973c-2.342-.05-4.719-.107-7.135-.16"/><path fill="#fff" d="m114.04 78.68h-7.168v-7.166h.017c.995.023 1.985.045 2.969.068 1.401.031 2.79.064 4.166.094h.017v7m-7.137-.032h7.104v-6.941c-1.371-.029-2.756-.061-4.151-.094-.978-.021-1.962-.045-2.952-.066v7.101z"/><g fill-rule="evenodd"><path fill="url(#SVGID_86_)" d="m114.41 71.1v7.566h5.53c-.018-2.477-.018-4.955-.018-7.432h-.006c-.711-.016-1.451-.037-2.186-.053-.734-.021-1.458-.037-2.211-.057-.37-.007-.737-.015-1.109-.024"/><path fill="url(#SVGID_87_)" d="m119.92 71.23c0 2.477 0 4.955.018 7.432h2.681c-.007-3.68-.009-7.363-.013-11.05-.002-3.686-.011-7.375-.011-11.06 0-3.686-.012-7.369-.012-11.05 0-3.686-.007-7.375-.007-11.06.166.023.332.049.497.072-1.053-.156-2.114-.312-3.183-.469 0 2.48 0 4.955.007 7.436v.006c.005 2.482.005 4.959.005 7.436 0 2.479 0 4.961.007 7.432 0 2.488.005 4.966.005 7.442.006 2.482.006 4.965.006 7.441"/></g><path fill="#fff" d="m122.64 78.68h-2.713v-.016c-.019-2.477-.019-4.996-.019-7.432 0-2.438 0-4.959-.005-7.442 0-1.237-.0001-2.474-.004-3.713-.0001-1.241-.002-2.483-.002-3.729-.006-2.471-.006-4.992-.006-7.432 0-2.435 0-4.953-.006-7.436v-.006c-.007-2.48-.007-5-.007-7.436v-.02l.02.003c.698.103 1.395.206 2.088.308l1.094.16-.005.033-.478-.07c0 1.84.002 3.68.003 5.518.002 1.844.004 3.688.004 5.529s.002 3.714.005 5.525c.003 1.811.006 3.685.006 5.527 0 2.211.004 4.459.007 6.633.002 1.479.004 2.955.005 4.432.003 3.741.007 7.402.013 11.05v.017m-2.681-.032h2.647c-.006-3.64-.009-7.295-.012-11.03-.0001-1.477-.003-2.953-.005-4.432-.004-2.174-.007-4.422-.007-6.633 0-1.843-.004-3.717-.006-5.527-.003-1.812-.006-3.684-.006-5.525s-.002-3.686-.003-5.529c-.0001-1.84-.003-3.681-.003-5.521l-.584-.086c-.687-.102-1.377-.203-2.069-.307 0 2.432 0 4.943.006 7.418v.006c.006 2.482.006 5 .006 7.436 0 2.439 0 4.961.006 7.432 0 1.246.0001 2.488.003 3.729.0001 1.239.002 2.476.002 3.713.007 2.483.007 5.01.007 7.442 0 2.429 0 4.943.018 7.415"/><path fill-rule="evenodd" fill="url(#SVGID_88_)" d="m127.83 67.809c0 3.619.007 7.238.007 10.857h2.551c0-2.387-.012-4.783-.012-7.175s0-4.783-.006-7.181c0-2.398-.006-4.789-.006-7.192v-7.175c0-2.393-.007-4.782-.012-7.181v-7.187c-1.147-.166-2.313-.338-3.487-.508.002 0 .003 0 .004 0 .312.046.623.092.933.139 0 3.625.011 7.254.011 10.873s.007 7.236.007 10.855c-.0001 3.627.001 7.257.001 10.875"/><g fill="#fff"><path d="m130.41 78.68h-2.582v-.016c0-1.81-.002-3.619-.004-5.428-.0001-1.811-.002-3.619-.002-5.43 0-1.809-.003-3.65-.007-5.432-.002-1.784-.006-3.628-.006-5.441 0-1.81-.0001-3.619-.003-5.428-.0001-1.81-.003-3.619-.003-5.428s-.002-3.651-.005-5.433c-.003-1.778-.007-3.618-.007-5.427l-.922-.138.005-.032c1.175.172 2.34.342 3.487.51l.014.002v7.303c.006 2.32.012 4.721.012 7.078v7.175c0 1.202.0001 2.401.002 3.601.002 1.197.003 2.393.003 3.592.007 2.397.007 4.828.007 7.181 0 1.196.003 2.414.006 3.592.002 1.175.005 2.39.005 3.583v.016m-2.55-.032h2.518c0-1.188-.002-2.396-.006-3.567-.002-1.178-.005-2.396-.005-3.592 0-2.353 0-4.783-.007-7.181 0-1.199-.0001-2.395-.002-3.592-.002-1.199-.004-2.398-.004-3.601v-7.175c0-2.357-.006-4.758-.011-7.078l-.0001-.103v-7.171c-.831-.123-1.671-.246-2.519-.369 0 1.809.004 3.646.006 5.425.003 1.781.007 3.624.007 5.433s0 3.618.003 5.428c.0001 1.809.003 3.618.003 5.428 0 1.813.002 3.657.006 5.441.002 1.781.006 3.623.006 5.432 0 1.811.0001 3.619.003 5.429.002 1.804.003 3.609.003 5.413"/><rect x="106.67" y="71.53" width=".425" height="7.137"/><path d="m110.47 78.67c-.006-2.342-.006-4.693-.006-7.05h.425c0 2.352 0 4.703.006 7.05h-.425"/><path d="m83.71 78.67h-.424c0-2.779 0-5.547.006-8.324.012-2.773.012-5.598.012-8.33v-8.367c.006-2.769.012-5.526.012-8.293v-8.33c.006-2.773.006-5.552.006-8.331v-.026h.424v.026c0 2.778 0 5.557-.006 8.331v8.33c0 2.768-.006 5.525-.012 8.293v.031 8.336c0 2.732 0 5.557-.012 8.331-.006 2.776-.006 5.546-.006 8.323"/><rect x="76.38" y="27.639" width=".424" height="51.03"/><path d="m83.5 70.55l-.745-.018c-.205-.006-.407-.001-.624-.016l-.682-.016c-.224-.006-.446-.012-.687-.018l-2.069-.047c-.232-.012-.466-.016-.705-.021-.229-.006-.464-.001-.705-.016l-.688-.016.001-.424.688.016c.242.004.477.001.706.016.242.006.479.001.709.021l2.061.047c.245.006.468.012.692.018l.682.016c.216.006.418.001.624.015l.745.019-.012.424"/><path d="m83.5 62.22l-.188-.009c-.165-.009-.329-.017-.499-.024-.225-.012-.453-.021-.682-.033l-.688-.033c-.217-.012-.446-.021-.687-.033-.231-.001-.462-.021-.699-.037l-.87-.041c-.165-.008-.33-.016-.506-.021-.232-.018-.465-.027-.704-.037l-.13-.006c-.187-.001-.383-.018-.574-.031l-.69-.031.02-.424.694.033c.193.012.386.021.57.029l.129.006c.241.001.479.021.71.037.17.006.336.014.501.021l.875.041c.238.018.467.027.693.037.241.012.471.021.689.033l.687.033c.229.012.458.023.683.033.17.008.334.016.5.025l.188.008-.022.424"/><path d="m83.5 53.889l-.11-.001c-.187-.014-.374-.027-.57-.041-.218-.018-.452-.034-.687-.051-.225-.016-.454-.033-.682-.05l-.15-.011c-.177-.014-.358-.027-.542-.043-.163-.012-.338-.024-.514-.035l-.182-.013c-.122-.009-.244-.019-.364-.029-.107-.009-.213-.017-.318-.024l-.246-.018c-.148-.001-.297-.02-.451-.03-.197-.019-.399-.032-.597-.046l-.099-.006c-.225-.02-.445-.035-.666-.05h-.038c-.213-.02-.421-.033-.626-.047l-.074-.006.029-.424.073.006c.208.015.419.029.631.047l.032.002c.225.016.448.029.672.049l.095.008c.2.014.408.027.601.045.149.001.297.02.446.03l.247.017c.107.008.215.018.322.025.12.001.24.02.36.029l.181.012c.177.012.353.023.521.035.186.018.364.031.539.044l.148.011c.229.017.458.033.681.051.235.016.471.031.689.049.194.014.383.027.57.043l.11.008-.031.424"/><path d="m83.51 45.563c-.138-.012-.275-.023-.418-.037l-.436-.041c-.174-.018-.35-.035-.529-.057-.219-.021-.448-.043-.684-.065-.219-.022-.447-.044-.681-.065l-.167-.016c-.177-.018-.356-.034-.536-.055l-.686-.064c-.231-.025-.453-.047-.687-.068-.11-.012-.219-.023-.327-.033-.129-.012-.259-.025-.383-.039-.237-.021-.472-.041-.705-.066-.126-.012-.257-.025-.388-.037-.104-.012-.205-.021-.307-.029l.038-.424c.103.001.206.02.31.029.129.014.26.027.39.037.233.027.465.047.694.066l.016.002c.123.014.25.025.376.039.11.012.22.021.329.033.232.021.457.043.688.068l.683.064c.182.021.359.037.534.055l.166.016c.235.021.465.043.684.066.233.02.462.043.688.064.18.021.354.039.525.057l.434.04c.14.013.275.026.411.037l-.032.423"/><path d="m83.5 37.23c-.096-.014-.191-.025-.286-.035-.128-.016-.258-.031-.397-.051l-.059-.008c-.202-.023-.406-.051-.624-.074l-.874-.105c-.162-.02-.323-.041-.5-.059-.231-.033-.467-.061-.695-.086-.18-.025-.363-.047-.543-.068l-.151-.018c-.092-.012-.183-.023-.276-.035-.134-.016-.271-.035-.41-.051-.121-.016-.238-.029-.355-.043-.118-.014-.236-.029-.354-.045-.232-.025-.469-.057-.706-.087-.231-.024-.469-.056-.7-.087l.057-.42c.228.029.461.061.693.086.24.031.473.063.707.086.121.018.237.031.354.045.119.016.237.029.355.045.138.016.277.033.414.051.092.012.182.023.271.034l.15.017c.184.021.372.043.549.069.225.026.465.052.693.086.17.017.334.038.498.058l.872.105c.218.025.424.051.629.076l.06.008c.138.018.267.033.393.049.098.012.192.023.289.035l-.054.422"/></g><path fill-rule="evenodd" fill="url(#SVGID_89_)" d="m76.61 27.676v8.496c.226.031.456.061.687.086.235.031.471.062.706.088.234.031.47.057.705.088.235.025.465.059.688.084.229.027.471.055.693.086.235.027.471.053.693.086.247.025.465.054.693.081l.683.083c.24.027.465.055.687.084.242.031.459.055.682.084.007-2.773.007-5.552.007-8.331-2.277-.333-4.583-.675-6.924-1.015"/><path fill="#fff" d="m83.54 37.04l-.019-.002c-.097-.012-.191-.023-.286-.035-.128-.016-.258-.031-.396-.049l-.06-.008c-.2-.025-.408-.051-.627-.076l-.682-.082c-.064-.008-.128-.016-.19-.023-.16-.02-.325-.041-.504-.059-.225-.033-.463-.059-.693-.086-.175-.025-.361-.047-.541-.067l-.152-.019c-.091-.001-.182-.021-.273-.033-.135-.018-.273-.035-.414-.051-.118-.016-.235-.029-.354-.045-.117-.014-.234-.027-.352-.043-.238-.026-.479-.057-.705-.088-.245-.026-.486-.057-.688-.086l-.014-.002v-8.528l.018.002c1.371.2 2.747.402 4.078.598.954.14 1.902.279 2.846.417l.013.002v.015c0 2.731 0 5.557-.005 8.331v.017m-6.918-.881c.199.027.434.059.673.084.227.029.469.061.706.087.117.015.234.03.352.044.118.014.236.028.354.043.14.018.279.034.415.052.092.012.183.024.272.034l.151.018c.181.021.368.043.543.068.229.025.468.053.693.086.177.018.343.038.503.059.063.008.126.016.189.021l.682.084c.221.023.428.051.629.076l.06.006c.137.02.269.035.395.051.091.001.179.021.27.032.005-2.763.005-5.577.005-8.298-.938-.137-1.882-.276-2.83-.415-1.325-.195-2.695-.396-4.061-.595v8.463z"/><path fill-rule="evenodd" fill="url(#SVGID_90_)" d="m78.7 36.434c-.235-.031-.471-.057-.705-.088-.235-.026-.471-.057-.706-.088-.23-.025-.461-.055-.687-.086v8.506c.226.02.456.045.687.066.235.025.471.046.706.066.229.025.47.047.705.072.235.021.459.043.688.068l.688.066c.235.025.471.047.699.068.235.021.465.043.682.064.235.023.465.045.688.066.235.027.464.051.688.072.24.021.464.045.687.063v-8.33c-.223-.029-.439-.053-.682-.084-.222-.029-.446-.057-.687-.084l-.683-.083c-.229-.027-.446-.056-.693-.081-.223-.033-.458-.059-.693-.086-.223-.031-.464-.059-.693-.086-.224-.023-.454-.056-.689-.081"/><path fill="#fff" d="m83.54 45.37h-.018c-.137-.011-.272-.023-.415-.037-.089-.008-.18-.016-.273-.025l-.161-.016c-.171-.018-.348-.035-.526-.056-.263-.026-.481-.046-.688-.065-.199-.021-.422-.043-.68-.066l-.166-.016c-.175-.016-.355-.033-.535-.053l-.687-.064c-.251-.029-.488-.053-.688-.07-.107-.012-.217-.023-.326-.033-.125-.012-.255-.024-.379-.039h-.001c-.229-.021-.463-.04-.695-.065-.13-.012-.26-.025-.389-.037-.1-.001-.199-.02-.299-.029h-.014v-8.539l.018.002c.202.027.442.059.687.086.227.029.469.061.706.087.117.015.234.03.352.044.118.014.236.028.354.043.141.018.279.034.415.052.092.012.183.024.272.034l.151.018c.181.021.368.043.543.068.229.025.468.053.693.086.177.018.343.038.503.059.063.008.126.016.189.021l.682.084c.221.023.428.051.629.076l.06.006c.137.02.269.035.395.051.096.001.191.021.288.034h.014v8.359zm-6.918-.703c.095.008.189.018.285.025.129.014.258.027.388.037.231.026.468.047.696.066l.001.002c.124.014.254.025.379.039.108.001.218.021.326.033.198.018.437.039.688.068l.686.066c.18.02.36.037.534.055l.166.016c.26.023.482.045.682.064.207.02.426.04.688.066.18.021.355.039.526.057l.162.016c.093.008.184.017.272.025.137.012.267.023.397.035v-8.299c-.092-.012-.183-.021-.272-.033-.128-.016-.258-.031-.396-.049l-.06-.008c-.2-.025-.408-.051-.627-.076l-.682-.082c-.064-.008-.128-.016-.19-.023-.16-.02-.325-.041-.504-.059-.225-.033-.463-.059-.693-.086-.175-.025-.361-.047-.541-.067l-.152-.019c-.091-.001-.182-.021-.273-.033-.135-.018-.273-.035-.414-.051-.118-.016-.235-.029-.354-.045-.117-.014-.234-.027-.352-.043-.238-.026-.479-.057-.705-.088-.238-.025-.471-.057-.67-.082v8.473"/><path fill-rule="evenodd" fill="url(#SVGID_90_)" d="m80.78 45.09c-.229-.021-.464-.043-.699-.068l-.688-.066c-.229-.025-.452-.047-.688-.068-.235-.025-.477-.047-.705-.072-.235-.021-.471-.041-.706-.066-.23-.021-.461-.047-.687-.066v8.49c.226.016.456.031.687.051.235.016.471.031.706.053.229.016.47.03.693.051.241.016.464.033.699.049.223.016.453.037.682.053.235.016.477.031.699.049.235.021.465.037.688.055l.682.049c.235.016.471.032.688.049l.682.051c.006-2.777.011-5.547.011-8.324-.223-.018-.446-.041-.687-.063-.224-.021-.452-.045-.688-.072-.224-.021-.453-.043-.688-.066-.216-.026-.445-.048-.681-.069"/><path fill="#fff" d="m83.53 53.693l-.699-.051c-.229-.02-.476-.036-.688-.051l-.829-.061c-.175-.014-.356-.027-.54-.043-.166-.013-.343-.024-.519-.035l-.181-.014c-.121-.008-.242-.018-.363-.027-.106-.001-.213-.018-.318-.025-.083-.006-.167-.012-.248-.018-.149-.001-.296-.02-.451-.031-.192-.018-.397-.031-.596-.045l-.099-.006c-.222-.02-.447-.035-.666-.05l-.039-.003c-.206-.018-.414-.031-.615-.045l-.086-.006v-8.522l.017.002c.099.008.198.019.3.027.129.014.258.027.388.037.231.026.467.047.695.066l.011.002c.124.014.254.025.378.039.109.001.219.021.327.033.198.018.437.039.688.068l.686.066c.18.02.36.037.534.055l.166.016c.26.023.482.045.682.064.207.02.426.04.688.066.18.021.355.039.526.057l.162.016c.093.008.184.017.272.025.143.012.277.025.414.036h.016v.016c0 2.768-.007 5.578-.013 8.295v.046m-6.905-.539l.058.003c.201.014.409.027.615.046l.038.002c.219.016.444.029.668.049l.097.007c.198.014.404.028.597.046.154.001.303.02.451.031.081.006.164.001.247.016.105.008.212.018.32.025.12.001.24.02.361.029l.182.012c.176.012.352.023.519.035.183.018.363.031.539.045l.83.061c.211.014.458.031.688.049l.664.049v-.012c.006-2.713.013-5.518.013-8.281-.132-.001-.263-.021-.4-.035-.089-.008-.18-.016-.273-.025l-.161-.016c-.171-.018-.348-.035-.526-.056-.263-.026-.481-.046-.688-.065-.199-.021-.422-.043-.68-.066l-.166-.016c-.175-.016-.355-.033-.535-.053l-.687-.064c-.251-.029-.488-.053-.688-.07-.107-.012-.217-.023-.326-.033-.125-.012-.255-.024-.379-.039h-.001c-.229-.021-.463-.04-.695-.065-.13-.012-.26-.025-.389-.037-.095-.001-.188-.018-.281-.027v8.456z"/><path fill-rule="evenodd" fill="url(#SVGID_92_)" d="m80.77 53.47c-.223-.018-.464-.033-.699-.049-.229-.016-.459-.037-.682-.053-.235-.016-.458-.033-.699-.049-.224-.021-.465-.035-.693-.051-.235-.021-.471-.037-.706-.053-.23-.02-.461-.035-.687-.051v8.508l.682.029c.234.015.476.025.699.035.24.011.475.021.705.037.241.001.464.021.693.031l.688.033c.235.016.465.026.693.037l.688.033.687.033.683.033.688.033v-8.336l-.682-.051c-.218-.017-.453-.033-.688-.049l-.682-.049c-.223-.014-.452-.031-.688-.051"/><path fill="#fff" d="m83.53 62.03l-2.762-.134c-.225-.001-.458-.021-.693-.037l-.875-.041c-.165-.008-.331-.016-.506-.023-.226-.016-.453-.025-.705-.035l-.129-.007c-.187-.009-.38-.017-.571-.029l-.695-.032v-8.538l.088.006c.201.014.41.027.616.046l.037.002c.219.016.445.029.669.049l.097.007c.198.014.404.028.597.046.153.001.303.02.451.031.081.006.164.001.247.016.105.008.212.018.32.025.12.001.24.02.361.029l.182.012c.176.012.352.023.519.035.183.018.363.031.539.045l.83.061c.211.014.458.031.688.049l.696.051v8.366m-6.906-.368l.666.029c.19.012.385.021.571.029l.128.006c.253.011.48.021.706.037.175.006.34.016.505.021l.876.041c.235.016.468.027.693.037l2.728.133v-8.303l-.667-.049c-.229-.02-.476-.036-.688-.051l-.829-.061c-.175-.014-.356-.027-.54-.043-.166-.013-.343-.024-.519-.035l-.181-.014c-.121-.008-.242-.018-.363-.027-.106-.001-.213-.018-.318-.025-.083-.006-.167-.012-.248-.018-.149-.001-.296-.02-.451-.031-.192-.018-.397-.031-.596-.045l-.099-.006c-.222-.02-.448-.035-.666-.05l-.039-.003c-.207-.018-.414-.031-.615-.045l-.055-.004v8.477z"/><path fill-rule="evenodd" fill="url(#SVGID_92_)" d="m80.07 61.842l-.688-.033c-.229-.001-.452-.021-.693-.031-.23-.016-.465-.026-.705-.037-.224-.001-.465-.021-.699-.035l-.682-.029v8.5l.676.016.705.016c.24.004.475.001.705.021l.693.015.682.016.693.018.688.016.681.018.694.016.676.018c.012-2.773.012-5.552.012-8.33l-.688-.033-.683-.033-.687-.033-.688-.033c-.227-.017-.456-.028-.692-.043"/><path fill="#fff" d="m83.52 70.36l-2.755-.067-2.069-.048c-.233-.011-.474-.016-.705-.021l-1.396-.031v-8.533l.697.031c.19.012.385.021.571.029l.128.006c.253.011.48.021.706.037.175.006.34.016.505.021l.876.041c.235.016.468.027.693.037l2.76.135v.016c0 2.732 0 5.557-.012 8.33v.017m-6.893-.198l1.365.029c.231.006.472.001.706.021l4.79.113c.012-2.762.012-5.576.012-8.298l-2.729-.132c-.225-.001-.458-.021-.693-.037l-.874-.041c-.166-.008-.332-.016-.507-.023-.226-.016-.453-.025-.705-.035l-.129-.007c-.187-.009-.38-.017-.571-.029l-.664-.03v8.469z"/><path fill-rule="evenodd" fill="url(#SVGID_94_)" d="m80.76 70.28l-.693-.018-.682-.016-.693-.015c-.23-.011-.465-.017-.705-.021l-.705-.016-.676-.016v8.49h6.888c0-2.779 0-5.547.006-8.324l-.676-.018-.694-.016-.681-.018-.689-.012"/><g fill="#fff"><path d="m83.51 78.68h-6.919v-8.523l1.396.031c.231.006.472.001.706.021l4.823.115-.0001.016c-.006 2.777-.006 5.598-.006 8.324v.016zm-6.888-.032h6.855c0-2.717 0-5.525.006-8.293l-4.792-.114c-.233-.011-.474-.016-.705-.021l-1.364-.031v8.459"/><rect x="135.12" y="36.29" width=".424" height="42.37"/><path d="m130.6 78.67h-.424c0-1.192-.004-2.387-.006-3.582-.002-1.197-.006-2.396-.006-3.593 0-2.392 0-4.783-.006-7.181 0-1.199-.002-2.395-.004-3.592-.0001-1.199-.002-2.398-.002-3.601v-7.175c0-2.355-.006-4.713-.012-7.07l-.0001-.105v-7.205h.425v7.311c.006 2.361.012 4.717.012 7.07v7.175c0 1.202.002 2.401.002 3.6.003 1.198.004 2.394.004 3.593.006 2.396.006 4.789.006 7.181 0 1.196.003 2.394.006 3.592.003 1.195.006 2.389.006 3.582"/><path d="m135.33 71.828c-.148-.009-.308-.012-.456-.016l-.512-.001c-.166-.004-.333-.007-.5-.016l-.985-.02c-.158-.009-.319-.012-.47-.015l-.524-.011c-.155-.008-.317-.012-.472-.014l-.533-.001c-.158-.001-.324-.012-.485-.016h-.021l.009-.424h.019c.168.004.339.006.495.015l.524.001c.16.003.327.007.48.015l.516.001c.156.004.322.008.478.016l.985.02c.17.001.332.013.493.016l.511.001c.154.004.319.006.475.016l-.027.424"/><path d="m135.33 64.766c-.141-.012-.292-.018-.435-.023l-.045-.002c-.086-.004-.17-.008-.253-.012-.081-.006-.163-.001-.246-.014-.161-.006-.322-.014-.489-.025l-.022-.0001c-.157-.007-.32-.013-.478-.024l-.48-.019c-.176-.013-.338-.019-.505-.025-.152-.011-.318-.019-.48-.022l-.019-.002c-.161-.011-.31-.018-.453-.023l-.042-.0001c-.173-.013-.339-.019-.504-.024-.176-.013-.338-.019-.511-.025l.014-.424c.18.006.347.014.514.025.17.006.34.012.512.024l.034.0001c.148.006.302.014.458.024h.013c.166.006.339.013.49.024.17.006.332.012.498.025l.486.02c.159.011.317.018.47.022l.029.002c.169.013.326.019.482.026.087.002.17.006.254.012.081.004.161.001.245.012l.046.002c.148.008.305.014.45.025l-.033.422"/><path d="m135.33 57.699c-.077-.005-.157-.012-.237-.018-.085-.008-.169-.014-.25-.019-.174-.015-.329-.026-.498-.035-.086-.009-.165-.015-.244-.021-.082-.006-.165-.014-.247-.021-.164-.009-.331-.02-.498-.035-.079-.003-.164-.001-.248-.017-.08-.006-.16-.013-.243-.017-.101-.001-.193-.016-.289-.023-.071-.006-.143-.011-.217-.018-.161-.001-.321-.018-.5-.033-.091-.001-.181-.016-.272-.023-.076-.006-.152-.001-.232-.018-.161-.001-.322-.02-.494-.033-.094-.009-.188-.016-.285-.023-.074-.004-.149-.001-.225-.016l.034-.424c.075.008.148.012.221.018.101.006.197.014.292.023.167.014.324.023.486.032.084.007.16.013.234.019.094.007.187.014.279.021.173.016.329.025.492.034.078.007.148.013.217.017.1.008.196.016.291.023.078.005.16.012.243.018.081.006.163.014.248.018.169.016.33.025.499.035.087.008.167.014.248.021s.162.013.243.021c.164.001.325.02.498.035.077.004.163.012.249.019.079.005.157.012.232.017l-.027.423"/><path d="m135.33 50.643c-.107-.008-.212-.018-.313-.028-.062-.007-.12-.013-.178-.017-.087-.001-.168-.018-.249-.027-.084-.006-.167-.015-.254-.023-.077-.007-.16-.016-.242-.023-.08-.008-.158-.016-.24-.021-.101-.012-.195-.021-.291-.029-.072-.008-.145-.014-.219-.021-.105-.001-.215-.021-.329-.033l-.164-.018c-.151-.014-.336-.031-.502-.05-.056-.005-.117-.011-.181-.017-.098-.001-.198-.019-.31-.025-.145-.018-.321-.037-.501-.051l-.061-.006c-.146-.017-.285-.032-.443-.043-.168-.02-.332-.037-.507-.055l.042-.422c.178.018.344.035.504.055.156.011.307.027.452.043l.052.006c.182.014.363.033.502.05.103.007.209.017.312.026.06.006.12.012.18.017.169.019.35.036.501.05l.169.018c.112.012.218.023.323.033.077.008.148.014.219.021.1.008.195.018.293.029.077.006.159.014.241.021.079.008.159.016.24.021.091.011.173.02.255.026.082.009.165.017.251.026.055.004.114.001.177.017.098.009.199.021.303.028l-.032.422"/><path d="m135.32 43.582c-.111-.012-.22-.025-.324-.037-.058-.008-.113-.014-.167-.02l-.107-.014c-.13-.018-.256-.033-.389-.047l-.058-.008c-.145-.02-.285-.039-.432-.053l-.039-.006c-.149-.02-.304-.04-.464-.054l-.19-.026c-.1-.014-.2-.027-.311-.039-.161-.018-.334-.038-.502-.061-.08-.012-.163-.02-.245-.029-.084-.001-.17-.02-.254-.029-.159-.022-.327-.044-.502-.064-.081-.001-.157-.018-.234-.027-.091-.001-.179-.02-.269-.032-.142-.019-.296-.038-.451-.056l-.057-.007.049-.421.058.007c.158.019.315.038.458.057.085.011.172.021.259.03.078.001.158.018.238.029.176.02.349.041.509.063.079.012.161.021.243.029.086.001.171.02.254.031.163.021.331.043.492.059.118.014.221.027.322.041l.18.025c.16.014.319.034.473.055l.032.004c.145.014.29.035.44.055l.049.007c.129.013.259.028.396.046l.102.014c.053.006.109.013.168.02.102.014.205.025.313.035l-.04.423"/></g><path fill-rule="evenodd" fill="url(#SVGID_95_)" d="m130.38 71.49c0 2.392.012 4.788.012 7.175h4.938v-7.05c-.154-.009-.318-.012-.471-.016l-.487-.001c-.165-.002-.33-.006-.494-.014l-.5-.011-.493-.011c-.159-.008-.329-.012-.488-.016l-.506-.001c-.158-.008-.334-.001-.499-.014l-.506-.001c-.159-.006-.336-.009-.506-.012"/><path fill="#fff" d="m135.34 78.68h-4.97v-.016c0-1.193-.002-2.408-.006-3.583-.002-1.178-.005-2.396-.005-3.592v-.017l.035.0001c.164.003.334.005.486.015l.532.001c.159.002.322.006.474.015l.522.009c.156.004.317.006.471.016l.992.02c.167.001.333.013.494.016l.505.001c.149.004.306.006.453.016h.016v7.08zm-4.938-.032h4.905v-7.02c-.143-.008-.292-.001-.438-.014l-.505-.011c-.16-.003-.327-.007-.493-.015l-.994-.02c-.152-.001-.313-.012-.47-.016l-.523-.001c-.149-.008-.314-.012-.472-.014l-.533-.012c-.153-.008-.322-.012-.486-.014h-.002c0 1.191.003 2.402.006 3.575.002 1.175.005 2.384.005 3.571"/><path fill-rule="evenodd" fill="url(#SVGID_96_)" d="m131.39 71.52c.165.004.341.006.499.014l.506.001c.159.004.329.008.488.016l.493.011.5.011c.164.008.329.012.494.014l.487.001c.152.004.316.007.471.016v-.006-7.05c-.154-.014-.318-.02-.471-.025-.171-.008-.329-.02-.499-.025-.159-.007-.318-.014-.482-.025-.165-.008-.334-.014-.5-.025l-.493-.02c-.164-.012-.329-.02-.5-.025-.152-.012-.329-.018-.499-.024-.171-.013-.336-.019-.494-.025-.171-.012-.342-.019-.512-.024-.164-.012-.329-.018-.505-.023.006 2.397.006 4.789.006 7.181.17.003.347.006.505.015l.506.004"/><path fill="#fff" d="m135.34 71.63l-.017-.002c-.148-.008-.303-.001-.453-.014l-.505-.011c-.16-.003-.327-.007-.493-.015l-.994-.02c-.152-.001-.313-.012-.47-.016l-.523-.001c-.149-.008-.314-.012-.472-.014l-.533-.012c-.153-.008-.322-.012-.486-.014l-.034-.0001v-.016c0-2.353 0-4.783-.007-7.181v-.018l.018.0001c.171.007.339.013.506.024h.005c.166.006.338.012.507.023l.04.002c.146.008.297.012.452.023l.019.0001c.165.007.334.013.481.024.178.006.338.013.5.025l.492.02c.155.001.315.018.471.023l.029.0001c.162.013.313.019.482.026.086.002.168.008.25.012s.165.001.25.013l.046.003c.141.004.286.011.425.021l.015.002v7.1zm-4.948-.157h.003c.164.003.333.005.486.015l.532.001c.159.002.322.006.474.015l.522.009c.156.004.317.006.471.016l.992.02c.167.001.333.013.494.016l.505.001c.145.004.294.006.437.014v-7.03c-.134-.001-.273-.016-.408-.021l-.047-.002c-.085-.003-.168-.008-.249-.012-.083-.006-.165-.001-.251-.014-.168-.007-.32-.014-.482-.025h-.028c-.155-.008-.316-.014-.471-.025l-.493-.02c-.162-.012-.322-.018-.5-.024-.146-.013-.316-.019-.48-.024h-.018c-.157-.012-.308-.018-.453-.023l-.041-.002c-.169-.012-.34-.018-.506-.023h-.006c-.162-.012-.324-.02-.489-.025.006 2.381.006 4.803.006 7.144"/><path fill-rule="evenodd" fill="url(#SVGID_97_)" d="m132.38 64.41c.171.006.336.014.5.025l.493.02c.166.012.335.018.5.025.164.012.323.019.482.025.17.006.328.018.499.025.152.006.316.012.471.025v-.006-7.06-.002c-.154-.001-.318-.025-.471-.035-.171-.016-.329-.025-.499-.035-.159-.016-.324-.025-.482-.041-.171-.001-.334-.02-.5-.035-.17-.009-.33-.024-.5-.033-.157-.018-.322-.025-.499-.041-.165-.001-.323-.02-.499-.035-.165-.015-.33-.023-.506-.039-.165-.001-.324-.02-.494-.033-.164-.016-.334-.025-.511-.04 0 2.403.006 4.794.006 7.192.176.006.341.012.505.023.17.006.341.013.512.024.158.007.323.013.494.025.17.001.346.015.499.027"/><path fill="#fff" d="m135.32 64.57c-.139-.011-.282-.017-.423-.022l-.047-.002c-.085-.003-.168-.008-.249-.012-.083-.006-.165-.001-.251-.014-.168-.007-.32-.014-.482-.025h-.028c-.155-.008-.316-.014-.471-.025l-.493-.02c-.162-.012-.322-.018-.5-.024-.146-.013-.316-.019-.48-.024h-.018c-.157-.012-.308-.018-.453-.023l-.041-.002c-.169-.012-.34-.018-.506-.023h-.006c-.167-.013-.334-.02-.505-.025h-.017v-.016c0-1.199-.0001-2.395-.002-3.592-.002-1.199-.004-2.398-.004-3.601v-.019l.018.002c.076.006.15.012.223.018.101.006.195.014.289.022.176.015.34.024.494.034.079.006.154.012.229.018.095.007.185.014.275.021.184.016.348.025.499.033.074.008.145.012.215.018.1.008.192.016.285.023.084.006.167.012.248.018.082.006.166.014.251.018.17.016.34.025.5.035.08.008.161.014.242.021s.161.013.24.021c.182.001.337.02.499.035.083.006.169.012.255.018.073.006.146.012.215.018h.016v7.096h-.017m-4.937-.274c.167.006.329.012.491.023h.005c.166.006.337.012.507.023l.04.002c.146.008.297.012.452.023l.019.0001c.165.007.334.013.481.024.178.006.338.013.5.025l.492.02c.156.001.316.018.472.023l.028.0001c.162.013.313.019.482.026.086.002.168.008.25.012s.165.001.25.013l.046.003c.134.004.273.011.407.021v-7.03c-.065-.006-.134-.001-.201-.016-.086-.006-.172-.014-.254-.02-.164-.015-.317-.023-.5-.034-.079-.009-.159-.015-.239-.021-.081-.006-.163-.014-.243-.021-.159-.008-.33-.019-.5-.033-.085-.006-.168-.012-.25-.018-.082-.008-.164-.014-.249-.018-.092-.001-.186-.016-.285-.023-.069-.006-.141-.011-.214-.018-.151-.009-.315-.018-.499-.035-.092-.008-.181-.014-.276-.021-.074-.004-.15-.001-.229-.018-.153-.008-.317-.018-.494-.033-.094-.001-.188-.016-.288-.023-.067-.004-.137-.009-.205-.014 0 1.195.0001 2.39.002 3.582.0001 1.194.002 2.386.002 3.579"/><path fill-rule="evenodd" fill="url(#SVGID_97_)" d="m132.38 57.27c.177.016.342.023.499.041.17.009.33.024.5.033.166.016.329.025.5.035.158.016.323.025.482.041.17.001.328.02.499.035.152.001.316.025.471.035v-7.05-.002c-.165-.012-.323-.029-.471-.045-.171-.018-.329-.031-.499-.05-.165-.013-.324-.032-.488-.046-.165-.018-.328-.031-.505-.049-.159-.014-.319-.033-.494-.051-.152-.013-.335-.031-.499-.049-.16-.014-.318-.033-.5-.045-.159-.018-.33-.037-.5-.049-.165-.018-.324-.037-.506-.049-.158-.02-.322-.037-.499-.055v7.175c.177.015.347.024.511.04.17.014.329.023.494.033.176.016.341.024.506.039.176.017.334.027.499.037"/><path fill="#fff" d="m135.34 57.5h-.018c-.07-.004-.144-.001-.216-.016-.086-.006-.172-.014-.254-.02-.164-.015-.317-.023-.5-.034-.079-.009-.159-.015-.239-.021-.081-.006-.163-.014-.243-.021-.159-.008-.33-.019-.5-.033-.085-.006-.168-.012-.25-.018-.082-.008-.164-.014-.249-.018-.092-.001-.186-.016-.285-.023-.069-.006-.141-.011-.214-.018-.151-.009-.315-.018-.499-.035-.092-.008-.181-.014-.276-.021-.074-.004-.15-.001-.229-.018-.153-.008-.317-.018-.494-.033-.094-.001-.188-.016-.288-.023-.072-.004-.147-.001-.223-.016l-.016-.002v-7.207l.018.002c.162.016.324.033.5.055.163.001.304.025.453.043l.053.005c.184.015.363.034.499.05.112.008.216.018.315.027.063.006.123.012.184.018.147.016.324.033.5.049.058.006.111.012.166.018.113.012.221.023.328.033.074.008.146.014.216.021.1.008.194.018.29.027.082.008.162.016.243.023s.162.016.243.021c.087.001.17.019.253.025.081.009.163.017.247.025.059.006.118.012.18.018.094.001.191.02.291.027h.015v7.09m-4.961-.399c.07.006.14.001.207.016.101.006.195.014.289.022.176.015.34.024.494.034.079.006.154.012.229.018.095.007.185.014.275.021.184.016.348.025.499.033.074.008.145.012.215.018.1.008.192.016.285.023.084.006.167.012.248.018.082.006.166.014.251.018.17.016.34.025.5.035.08.008.161.014.242.021s.161.013.24.021c.182.001.337.02.499.035.083.006.169.012.255.018.066.006.133.012.198.016v-7.02c-.096-.008-.188-.018-.276-.025-.062-.006-.121-.014-.18-.018-.085-.001-.166-.018-.247-.025-.083-.008-.166-.016-.252-.025-.083-.008-.163-.015-.245-.023-.08-.007-.161-.016-.243-.021-.096-.012-.189-.021-.289-.029-.07-.007-.143-.014-.217-.021-.107-.008-.215-.021-.328-.033-.053-.004-.108-.012-.165-.017-.175-.016-.353-.034-.5-.05-.06-.006-.12-.001-.183-.018-.1-.008-.203-.019-.316-.025-.136-.018-.314-.037-.499-.051l-.054-.006c-.147-.016-.289-.031-.451-.043-.17-.02-.327-.037-.482-.053v7.139z"/><path fill-rule="evenodd" fill="url(#SVGID_99_)" d="m134.36 43.25c.17.016.328.039.499.061.147.016.306.037.471.055v-7.06c-1.64-.242-3.292-.48-4.973-.732v7.187c.177.021.353.042.511.063.165.022.329.038.5.061.176.019.347.041.506.063.164.021.334.038.5.06.164.021.334.043.499.06.175.02.329.044.494.064.177.016.34.039.505.061.164.013.323.036.488.058"/><path fill="#fff" d="m135.34 43.39h-.018c-.103-.001-.204-.023-.302-.035-.059-.006-.114-.014-.169-.02l-.104-.014c-.134-.018-.261-.033-.396-.047l-.05-.006c-.149-.021-.291-.039-.438-.055l-.033-.004c-.15-.02-.308-.041-.472-.055-.063-.001-.121-.018-.182-.025-.101-.015-.202-.027-.313-.041-.155-.016-.312-.035-.5-.059-.082-.012-.165-.021-.25-.03-.083-.009-.167-.019-.249-.029-.154-.022-.324-.043-.506-.063-.08-.011-.157-.02-.235-.029-.089-.009-.177-.02-.264-.03-.142-.021-.302-.038-.455-.058l-.071-.008v-7.22l.02.003c.928.139 1.861.275 2.762.408.74.107 1.477.215 2.209.324l.015.002v7.092zm-4.972-.638l.043.006c.152.018.313.037.453.057.088.012.176.021.265.031.077.008.155.018.235.027.182.021.352.043.506.064.082.012.166.02.249.029.084.001.167.019.25.029.188.025.346.044.499.06.111.013.213.028.314.042.06.008.119.016.18.023.165.016.322.035.474.055l.032.006c.148.014.289.033.439.055l.049.006c.135.012.262.029.396.047l.103.014c.055.006.11.014.169.02.092.012.186.023.283.033v-7.03c-.729-.107-1.461-.215-2.196-.322-.896-.131-1.821-.266-2.743-.404v7.151"/><path fill-rule="evenodd" fill="url(#SVGID_99_)" d="m134.86 43.31c-.171-.021-.329-.045-.499-.061-.165-.021-.324-.045-.488-.061-.165-.021-.328-.045-.505-.061-.165-.021-.319-.045-.494-.064-.165-.017-.335-.038-.499-.06-.166-.021-.336-.038-.5-.06-.159-.021-.33-.044-.506-.063-.171-.022-.335-.038-.5-.061-.158-.021-.334-.043-.511-.063.005 2.398.012 4.788.012 7.181.177.018.341.035.499.055.182.012.341.031.506.049.17.012.341.031.5.049.182.012.34.031.5.045.164.018.347.036.499.049.175.018.335.037.494.051.177.018.34.031.505.049.164.014.323.033.488.046.17.019.328.032.499.05.147.016.306.033.471.045v-7.06-.002c-.165-.016-.323-.038-.471-.054"/><path fill="#fff" d="m135.34 50.45l-.018-.002c-.1-.007-.198-.018-.291-.025-.062-.006-.121-.014-.18-.018-.085-.001-.166-.018-.247-.025-.083-.008-.166-.016-.252-.025-.083-.008-.163-.015-.245-.023-.08-.007-.161-.016-.243-.021-.096-.012-.189-.021-.289-.029-.07-.007-.143-.014-.217-.021-.107-.008-.215-.021-.328-.033-.053-.004-.108-.012-.165-.017-.175-.016-.353-.034-.5-.05-.06-.006-.12-.001-.183-.018-.1-.008-.203-.019-.316-.025-.136-.018-.314-.037-.499-.051l-.054-.006c-.147-.016-.289-.031-.451-.043-.176-.021-.34-.039-.5-.055h-.016v-.015c0-2.357-.006-4.754-.011-7.07l-.0001-.125.076.001c.152.018.313.037.453.057.088.012.176.021.265.031.077.008.155.018.235.027.182.021.352.043.506.064.082.012.166.02.249.029.084.001.167.019.25.029.188.025.346.044.499.06.111.013.213.028.314.042.06.008.119.016.18.023.165.016.322.035.473.055l.033.006c.148.014.289.033.439.055l.049.006c.135.012.262.029.396.047l.103.014c.055.006.11.014.169.02.097.012.198.023.301.033l.015.002v7.092zm-4.96-.518c.156.016.314.032.484.054.163.001.304.025.454.043l.052.005c.184.015.363.034.499.05.112.008.216.018.317.027.061.006.121.012.182.018.147.016.324.033.5.049.058.006.111.012.166.018.113.012.221.023.328.033.074.008.146.014.216.021.1.008.194.018.29.027.082.008.162.016.243.023s.162.016.243.021c.087.001.17.019.253.025.081.009.163.017.247.025.059.006.118.012.18.018.088.001.18.02.273.025v-7.03c-.098-.001-.194-.021-.287-.033-.058-.006-.114-.014-.169-.02l-.104-.014c-.134-.018-.261-.033-.396-.047l-.05-.006c-.149-.021-.291-.039-.438-.055l-.033-.004c-.15-.02-.308-.041-.472-.055-.063-.001-.121-.018-.182-.025-.101-.015-.202-.027-.313-.041-.155-.016-.312-.035-.5-.059-.082-.012-.165-.021-.25-.03-.083-.009-.167-.019-.249-.029-.154-.022-.324-.043-.506-.063-.08-.011-.157-.02-.235-.029-.089-.009-.177-.02-.264-.03-.143-.021-.302-.038-.455-.058l-.038-.004v.088c.008 2.316.014 4.708.014 7.06"/><polygon fill="url(#SVGID_101_)" points="135.28,36.965 76.561,28.331 76.653,27.701 135.373,36.335 "/></svg>