<svg xmlns="http://www.w3.org/2000/svg" viewBox="0 0 152.365 73.732" enable-background="new 0 0 152.365 73.732" xmlns:xlink="http://www.w3.org/1999/xlink"><defs><linearGradient id="SVGID_4_" gradientUnits="userSpaceOnUse" x1="49.32" x2="49.643" xlink:href="#SVGID_1_"/><linearGradient id="SVGID_5_" gradientUnits="userSpaceOnUse" x1="36.434" x2="46.853" xlink:href="#SVGID_1_"/><linearGradient id="SVGID_3_" gradientUnits="userSpaceOnUse" x1="103" x2="141.49" xlink:href="#SVGID_1_"/><linearGradient id="SVGID_1_" gradientUnits="userSpaceOnUse" x1="0" x2="152.37"><stop stop-color="#12397f"/><stop offset=".713" stop-color="#3a71ce"/><stop offset="1" stop-color="#3a71ce"/></linearGradient><linearGradient id="SVGID_2_" gradientUnits="userSpaceOnUse" x1="11.41" x2="102.44" xlink:href="#SVGID_1_"/></defs><g fill-rule="evenodd"><rect y="72.19" fill="url(#SVGID_1_)" width="152.37" height="1.547"/><path fill="url(#SVGID_2_)" d="m11.41 72.19c11.379 0 23.988 0 37.979 0 15.63 0 33.21 0 53.05-.002 0-12.02 0-24.05 0-36.08 0-12.03 0-24.07 0-36.11-19.881 4.462-37.433 8.403-53.03 11.907-13.965 3.137-26.573 5.968-38.01 8.537 0 8.636 0 17.266 0 25.881 0 8.626 0 17.251 0 25.86m78.76-66.15c2.967-.635 5.999-1.282 9.09-1.942 0 3.366 0 6.71 0 10.07-3.086.562-6.109 1.114-9.09 1.656 0-3.264 0-6.514 0-9.784m.009 15.288c2.967-.488 6-.986 9.08-1.493 0 3.359 0 6.711 0 10.07-3.076.41-6.099.812-9.08 1.206 0-3.263 0-6.512 0-9.783m.009 15.282c2.968-.342 5.99-.69 9.08-1.045 0 3.36 0 6.717 0 10.06-3.086.258-6.108.518-9.08.765 0-3.257 0-6.519 0-9.783m0 15.289c2.977-.194 5.999-.394 9.08-.597 0 3.352 0 6.705 0 10.06-3.077.104-6.1.208-9.07.309 0-3.256 0-6.513-.009-9.769m-11.06-43.497c2.758-.589 5.562-1.189 8.42-1.8 0 3.242 0 6.464 0 9.699-2.85.521-5.662 1.031-8.42 1.534 0-3.145 0-6.279 0-9.433m-10.369 2.226c2.558-.548 5.171-1.106 7.838-1.684 0 3.127 0 6.232.009 9.353-2.676.486-5.28.961-7.847 1.429 0-3.03 0-6.06 0-9.1m-9.577 2.048c2.394-.512 4.824-1.033 7.31-1.563 0 3.01 0 6.02 0 9.03-2.485.453-4.916.896-7.31 1.333 0-2.93 0-5.86 0-8.796m-8.958 1.916c2.239-.479 4.515-.967 6.846-1.464 0 2.914 0 5.821-.001 8.729-2.321.423-4.597.84-6.846 1.248.001-2.835.001-5.671.001-8.513m28.913 8.554c2.758-.454 5.562-.916 8.421-1.386 0 3.243 0 6.465 0 9.7-2.85.379-5.663.752-8.421 1.118 0-3.145 0-6.279 0-9.432m-10.378 1.705c2.566-.421 5.18-.851 7.847-1.289 0 3.126 0 6.24 0 9.354-2.667.354-5.28.701-7.847 1.041 0-3.03 0-6.06 0-9.106m-9.577 1.574c2.394-.394 4.824-.793 7.31-1.202 0 3.02.009 6.03.009 9.03-2.495.33-4.925.653-7.319.971 0-2.929 0-5.859 0-8.802m-8.967 1.474c2.249-.369 4.524-.744 6.846-1.126 0 2.92 0 5.828 0 8.736-2.321.308-4.606.611-6.846.908 0-2.834 0-5.67 0-8.518m28.922 9.982c2.758-.317 5.571-.641 8.43-.97 0 3.236 0 6.473 0 9.701-2.858.238-5.663.471-8.421.701-.0001-3.138-.0001-6.286-.009-9.432m-10.369 1.193c2.558-.295 5.171-.594 7.847-.902 0 3.121 0 6.24 0 9.354-2.667.223-5.28.44-7.847.654 0-3.03 0-6.068 0-9.106m-9.586 1.101c2.394-.275 4.824-.555 7.319-.841 0 3.01 0 6.03 0 9.03-2.495.207-4.925.41-7.328.609.009-2.929.009-5.864.009-8.802m-8.967 1.032c2.239-.258 4.524-.521 6.846-.787 0 2.914 0 5.828 0 8.734-2.321.195-4.606.385-6.854.572-.0001-2.836-.0001-5.672.008-8.519m28.93 11.417c2.758-.181 5.571-.364 8.421-.554.009 3.23.009 6.459.009 9.688-2.858.098-5.662.191-8.421.285 0-3.133-.009-6.28-.009-9.419m-10.377.68c2.567-.168 5.18-.34 7.847-.514 0 3.111 0 6.232.001 9.34-2.677.09-5.29.178-7.856.266-.0001-3.02-.0001-6.06-.0001-9.09m-9.595.635c2.403-.157 4.833-.316 7.328-.486 0 3.01 0 6.02 0 9.02-2.495.084-4.925.167-7.328.248 0-2.924 0-5.859 0-8.783m-17.351-37.549c2.103-.45 4.251-.909 6.426-1.374 0 2.82-.009 5.635-.009 8.45-2.175.396-4.323.787-6.426 1.17-.0001-2.746.009-5.493.009-8.246m-.001 12.892c2.103-.346 4.251-.699 6.426-1.057 0 2.827 0 5.642-.008 8.457-2.176.289-4.315.574-6.428.854.001-2.749.001-5.496.001-8.254m-.009 12.891c2.104-.242 4.252-.488 6.428-.738 0 2.826 0 5.641 0 8.455-2.185.182-4.324.361-6.437.537.009-2.748.009-5.494.009-8.254m-7.874-24.09c1.985-.423 3.997-.854 6.04-1.292 0 2.733 0 5.46-.009 8.188-2.039.373-4.051.74-6.04 1.101-.0001-2.662.009-5.327.009-7.997m-.001 12.503c1.985-.327 3.998-.658 6.04-.994 0 2.739 0 5.467-.009 8.194-2.039.271-4.051.539-6.04.803 0-2.665 0-5.328.009-8m-.018 12.501c1.984-.228 4.01-.459 6.05-.694 0 2.739 0 5.467 0 8.194-2.049.17-4.061.34-6.05.504 0-2.665 0-5.329 0-8m-.008 12.513c1.984-.129 4.01-.262 6.04-.396 0 2.722 0 5.454 0 8.183-2.048.07-4.06.137-6.05.205.001-2.664.001-5.334.001-7.992m-7.402-35.926c1.866-.399 3.76-.805 5.69-1.218 0 2.651 0 5.297 0 7.942-1.94.352-3.833.698-5.699 1.038 0-2.584 0-5.17.009-7.762m-.017 12.141c1.875-.308 3.768-.62 5.698-.943 0 2.658-.009 5.303-.009 7.947-1.93.258-3.823.51-5.689.758 0-2.586 0-5.172 0-7.762m-.001 12.13c1.866-.214 3.769-.433 5.699-.655-.001 2.656-.001 5.303-.001 7.948-1.929.161-3.832.319-5.699.476 0-2.586.001-5.172.001-7.769m-.001 12.146c1.867-.123 3.761-.247 5.69-.373 0 2.639 0 5.291 0 7.937-1.939.065-3.833.13-5.699.194.0001-2.587.0001-5.178.009-7.758m-6.973-34.914c1.757-.377 3.551-.761 5.371-1.15 0 2.574-.009 5.143-.009 7.71-1.821.332-3.605.658-5.372.979.0001-2.511.0001-5.02.001-7.539m-.009 11.792c1.758-.29 3.55-.584 5.372-.883-.001 2.574-.001 5.143-.001 7.709-1.82.242-3.604.48-5.371.715 0-2.511 0-5.02.009-7.541m-.009 11.783c1.758-.202 3.542-.409 5.362-.618 0 2.579 0 5.148-.009 7.717-1.812.152-3.605.301-5.362.447 0-2.512 0-5.02.009-7.546m-.018 11.798c1.766-.115 3.55-.232 5.371-.352 0 2.563-.001 5.137-.001 7.705-1.82.063-3.605.123-5.361.184 0-2.513 0-5.03 0-7.537m-6.6-33.955c1.676-.356 3.359-.718 5.081-1.087 0 2.501 0 4.997 0 7.492-1.721.313-3.415.622-5.081.927 0-2.442 0-4.885 0-7.332m0 11.466c1.666-.274 3.351-.554 5.071-.836 0 2.501 0 4.997 0 7.491-1.72.229-3.414.453-5.071.676 0-2.442 0-4.884 0-7.331m0 11.453c1.657-.191 3.351-.387 5.062-.584 0 2.506 0 5 0 7.498-1.72.143-3.404.283-5.07.423-.0001-2.442-.0001-4.884.008-7.337m-.009 11.471c1.666-.108 3.35-.221 5.061-.332 0 2.49 0 4.99 0 7.486-1.721.057-3.404.115-5.061.172 0-2.441 0-4.884 0-7.326"/><polygon fill="url(#SVGID_3_)" points="102.995,0 141.485,12.248 141.485,72.183 
	102.995,72.183 "/></g><g fill="#fff"><path d="m55.803 72.34h-20.258v-1.141h20.258v1.141m-19.94-.318h19.621v-.504h-19.621v.504"/><path d="m36.32 71.55v-1.141l20.27-.076-.011 1.158-20.259.059m.319-.824v.506l19.626-.057.004-.521-19.63.072"/><path d="m37.1 70.75v-1.142l20.281-.149-.021 1.174-20.26.117m.318-.825v.504l19.63-.111.009-.539-19.639.146"/><path d="m37.88 69.948v-1.14l20.293-.227-.03 1.193-20.263.174m.318-.825v.504l19.634-.168.014-.555-19.648.219"/><polygon fill-rule="evenodd" points="41.975,54.98 56.992,54.026 56.992,68.494 41.975,68.642 
			"/><path d="m41.815 68.802v-13.97l15.335-.975v14.794l-15.335.151m.319-13.674v13.354l14.699-.146v-14.14l-14.699.933"/><polygon points="59.696,72.185 59.378,72.185 59.378,68.902 58.01,68.902 58.01,68.583 59.696,68.583 "/></g><rect x="49.33" y="54.5" fill="url(#SVGID_4_)" width=".318" height="14.344"/><g fill="#fff"><path d="m31.674 53.867v-1.067l19.632-1.482v1.229l-19.632 1.32m.318-.772v.432l18.996-1.279v-.586l-18.996 1.433"/><path d="m60.26 53.19l-9.274-.648v-1.254l9.274.401v1.501m-8.956-.945l8.639.605v-.856l-8.639-.374v.625"/><polygon points="39.968,54.392 31.822,53.855 31.844,53.538 39.969,54.074 60.095,52.865 60.114,53.181 "/></g><g fill-rule="evenodd"><polygon fill="url(#SVGID_5_)" points="36.434,52.6 46.853,51.841 46.853,47.099 
	36.434,48.188 "/><path fill="#fff" d="m37.1 48.3l.367-.035v3.39l.521-.049v-3.39l.366-.034v3.391l.538-.051v-3.391l.364-.033.003 4.082-2.159.199v-4.079m2.54-.239l.366-.033v1.738c.081-.027.137-.078.165-.158s.073-.295.133-.648c.075-.449.152-.731.228-.846.076-.113.198-.18.366-.195.009-.002.026-.004.054-.008v.609l-.052.002c-.076.008-.13.033-.165.078-.034.045-.062.111-.083.199-.022.086-.054.266-.095.535-.023.144-.047.264-.073.361-.025.098-.071.19-.138.281.083.043.148.142.202.295.053.152.112.369.175.65l.246 1.094-.429.041-.217-1.029c-.004-.016-.011-.043-.021-.086-.004-.014-.02-.076-.045-.188-.046-.197-.084-.318-.114-.365-.03-.049-.075-.07-.136-.066v1.783l-.366.035v-4.079h-.0001m1.461 1.929c0-.417.028-.769.083-1.057.041-.212.097-.403.168-.577.071-.171.149-.301.234-.39.113-.118.244-.185.391-.198.268-.024.479.143.64.5.161.359.241.871.241 1.537 0 .66-.08 1.184-.238 1.57-.159.389-.372.596-.637.62-.27.024-.483-.14-.643-.496-.159-.356-.239-.858-.239-1.509m.376-.064c0 .463.048.809.142 1.038.096.229.216.339.361.325s.266-.145.359-.389c.094-.246.141-.605.141-1.08 0-.469-.046-.813-.137-1.035s-.211-.325-.363-.311c-.15.014-.272.143-.365.383-.091.243-.138.598-.138 1.069m1.732-2.199l1.268-.119v4.08l-.366.033v-3.39l-.543.052v1.742c0 .498-.008.848-.022 1.045-.016.198-.051.355-.108.473-.057.115-.146.179-.269.189-.042.004-.121.002-.233-.006v-.639l.083-.004c.076-.008.127-.035.154-.084s.039-.165.039-.346v-.701-2.325h-.002m3.273 3.772l-.394.036-.156-.913-.727.067-.15.943-.388.037.703-4.146.387-.036.725 4.01m-.669-1.555l-.251-1.486-.244 1.533.495-.047"/></g></svg>