<svg xmlns="http://www.w3.org/2000/svg" viewBox="0 0 153.003 91.709" enable-background="new 0 0 153.003 91.709" xmlns:xlink="http://www.w3.org/1999/xlink"><defs><linearGradient id="SVGID_43_" gradientUnits="userSpaceOnUse" x1="19.71" x2="26.632" xlink:href="#SVGID_4_"/><linearGradient id="SVGID_81_" gradientUnits="userSpaceOnUse" x1="26.09" x2="48.894" xlink:href="#SVGID_4_"/><linearGradient id="SVGID_44_" gradientUnits="userSpaceOnUse" x1="19.694" x2="26.648" xlink:href="#SVGID_4_"/><linearGradient id="SVGID_46_" gradientUnits="userSpaceOnUse" x1="42.971" x2="87.29" xlink:href="#SVGID_4_"/><linearGradient id="SVGID_45_" gradientUnits="userSpaceOnUse" x1="42.987" x2="87.28" xlink:href="#SVGID_4_"/><linearGradient id="SVGID_42_" gradientUnits="userSpaceOnUse" x1="12.981" x2="18.801" xlink:href="#SVGID_4_"/><linearGradient id="SVGID_36_" gradientUnits="userSpaceOnUse" x1="61.763" x2="77.25" xlink:href="#SVGID_4_"/><linearGradient id="SVGID_41_" gradientUnits="userSpaceOnUse" x1="12.997" x2="18.784" xlink:href="#SVGID_4_"/><linearGradient id="SVGID_37_" gradientUnits="userSpaceOnUse" x1="5.769" x2="25.894" xlink:href="#SVGID_4_"/><linearGradient id="SVGID_39_" gradientUnits="userSpaceOnUse" x1="7.315" x2="12.664" xlink:href="#SVGID_4_"/><linearGradient id="SVGID_40_" gradientUnits="userSpaceOnUse" x1="7.3" x2="12.681" xlink:href="#SVGID_4_"/><linearGradient id="SVGID_38_" gradientUnits="userSpaceOnUse" x1="5.752" x2="25.91" xlink:href="#SVGID_4_"/><linearGradient id="SVGID_48_" gradientUnits="userSpaceOnUse" x1="124.32" x2="144.83" xlink:href="#SVGID_4_"/><linearGradient id="SVGID_63_" gradientUnits="userSpaceOnUse" x1="91.18" x2="96.79" xlink:href="#SVGID_4_"/><linearGradient id="SVGID_49_" gradientUnits="userSpaceOnUse" x1="124.3" x2="144.85" xlink:href="#SVGID_4_"/><linearGradient id="SVGID_70_" gradientUnits="userSpaceOnUse" x1="65.28" x2="71.38" xlink:href="#SVGID_4_"/><linearGradient id="SVGID_78_" gradientUnits="userSpaceOnUse" x1="26.83" x2="30.22" xlink:href="#SVGID_4_"/><linearGradient id="SVGID_79_" gradientUnits="userSpaceOnUse" x1="45.46" x2="48.819" xlink:href="#SVGID_4_"/><linearGradient id="SVGID_71_" gradientUnits="userSpaceOnUse" x1="65.27" x2="71.39" xlink:href="#SVGID_4_"/><linearGradient id="SVGID_62_" gradientUnits="userSpaceOnUse" x1="91.19" x2="96.78" xlink:href="#SVGID_4_"/><linearGradient id="SVGID_50_" gradientUnits="userSpaceOnUse" x1="106.2" x2="120.66" xlink:href="#SVGID_4_"/><linearGradient id="SVGID_55_" gradientUnits="userSpaceOnUse" x1="58.26" x2="63.51" xlink:href="#SVGID_4_"/><linearGradient id="SVGID_51_" gradientUnits="userSpaceOnUse" x1="106.18" x2="120.67" xlink:href="#SVGID_4_"/><linearGradient id="SVGID_53_" gradientUnits="userSpaceOnUse" x1="121.89" x2="136.42" xlink:href="#SVGID_4_"/><linearGradient id="SVGID_54_" gradientUnits="userSpaceOnUse" x1="58.28" x2="63.5" xlink:href="#SVGID_4_"/><linearGradient id="SVGID_52_" gradientUnits="userSpaceOnUse" x1="121.91" x2="136.41" xlink:href="#SVGID_4_"/><linearGradient id="SVGID_29_" gradientUnits="userSpaceOnUse" x1="124" x2="145.15" xlink:href="#SVGID_4_"/><linearGradient id="SVGID_33_" gradientUnits="userSpaceOnUse" x1="56.54" x2="124.42" xlink:href="#SVGID_4_"/><linearGradient id="SVGID_22_" gradientUnits="userSpaceOnUse" x1="82.983" x2="124.64" xlink:href="#SVGID_4_"/><linearGradient id="SVGID_34_" gradientUnits="userSpaceOnUse" x1="124.25" x2="144.95" xlink:href="#SVGID_4_"/><linearGradient id="SVGID_47_" gradientUnits="userSpaceOnUse" x1="57.54" x2="83.3" xlink:href="#SVGID_4_"/><linearGradient id="SVGID_35_" gradientUnits="userSpaceOnUse" x1="56.6" x2="124.32" xlink:href="#SVGID_4_"/><linearGradient id="SVGID_32_" gradientUnits="userSpaceOnUse" x1="26.564" x2="87.36" xlink:href="#SVGID_4_"/><linearGradient id="SVGID_4_" gradientUnits="userSpaceOnUse" x1="58.1" x2="63.68"><stop stop-color="#12397f"/><stop offset=".713" stop-color="#3a71ce"/><stop offset="1" stop-color="#3a71ce"/></linearGradient><linearGradient id="SVGID_31_" gradientUnits="userSpaceOnUse" x1="19.466" x2="26.877" xlink:href="#SVGID_4_"/><linearGradient id="SVGID_5_" gradientUnits="userSpaceOnUse" x1="58.1" x2="63.68" xlink:href="#SVGID_4_"/><linearGradient id="SVGID_23_" gradientUnits="userSpaceOnUse" x1="91.01" x2="96.96" xlink:href="#SVGID_4_"/><linearGradient id="SVGID_30_" gradientUnits="userSpaceOnUse" x1="19.393" x2="26.879" xlink:href="#SVGID_4_"/><linearGradient id="SVGID_12_" gradientUnits="userSpaceOnUse" x1="65.02" x2="71.64" xlink:href="#SVGID_4_"/><linearGradient id="SVGID_80_" gradientUnits="userSpaceOnUse" x1="26.632" x2="32.04" xlink:href="#SVGID_4_"/><linearGradient id="SVGID_10_" gradientUnits="userSpaceOnUse" x1="12.679" x2="19.1" xlink:href="#SVGID_4_"/><linearGradient id="SVGID_82_" gradientUnits="userSpaceOnUse" x1="31.835" x2="43.09" xlink:href="#SVGID_4_"/><linearGradient id="SVGID_18_" gradientUnits="userSpaceOnUse" x1="90.87" x2="97.09" xlink:href="#SVGID_4_"/><linearGradient id="SVGID_20_" gradientUnits="userSpaceOnUse" x1="0" x2="153" xlink:href="#SVGID_4_"/><linearGradient id="SVGID_21_" gradientUnits="userSpaceOnUse" x1="56.28" x2="83.62" xlink:href="#SVGID_4_"/><linearGradient id="SVGID_19_" gradientUnits="userSpaceOnUse" x1=".318" x2="152.68" xlink:href="#SVGID_4_"/><linearGradient id="SVGID_9_" gradientUnits="userSpaceOnUse" x1="6.998" x2="12.982" xlink:href="#SVGID_4_"/><linearGradient id="SVGID_83_" gradientUnits="userSpaceOnUse" x1="96.35" x2="97.2" xlink:href="#SVGID_4_"/><linearGradient id="SVGID_3_" gradientUnits="userSpaceOnUse" x1="49.12" x2="87.6" xlink:href="#SVGID_4_"/><linearGradient id="SVGID_84_" gradientUnits="userSpaceOnUse" x1="113.93" x2="114.77" xlink:href="#SVGID_4_"/><linearGradient id="SVGID_1_" gradientUnits="userSpaceOnUse" x1="57.961" x2="63.813" xlink:href="#SVGID_4_"/><linearGradient id="SVGID_2_" gradientUnits="userSpaceOnUse" x1="64.965" x2="71.69" xlink:href="#SVGID_4_"/><linearGradient id="SVGID_85_" gradientUnits="userSpaceOnUse" x1="83.35" x2="124.27" xlink:href="#SVGID_4_"/></defs><path fill-rule="evenodd" fill="#fff" d="m60.887 4.561c1.435 0 2.608.882 2.608 1.96v34.979c0 1.078-1.173 1.96-2.608 1.96-1.434 0-2.608-.882-2.608-1.96v-34.979c0-1.078 1.174-1.96 2.608-1.96"/><path fill="url(#SVGID_1_)" d="m60.887 43.777c-1.614 0-2.926-1.021-2.926-2.278v-34.978c0-1.256 1.313-2.278 2.926-2.278 1.613 0 2.925 1.022 2.925 2.278v34.979c.0001 1.256-1.312 2.277-2.925 2.277m0-38.898c-1.241 0-2.29.752-2.29 1.642v34.979c0 .889 1.048 1.642 2.29 1.642 1.242 0 2.29-.753 2.29-1.642v-34.979c0-.89-1.048-1.642-2.29-1.642"/><path fill-rule="evenodd" fill="#fff" d="m68.33.318c1.675 0 3.046 1.03 3.046 2.289v40.862c0 1.258-1.371 2.29-3.046 2.29-1.676 0-3.047-1.031-3.047-2.29v-40.862c0-1.259 1.371-2.289 3.047-2.289"/><path fill="url(#SVGID_2_)" d="m68.33 46.08c-1.856 0-3.365-1.17-3.365-2.608v-40.862c0-1.438 1.509-2.607 3.365-2.607 1.854 0 3.364 1.169 3.364 2.607v40.862c0 1.437-1.509 2.608-3.364 2.608m0-45.44c-1.505 0-2.729.884-2.729 1.971v40.862c0 1.068 1.25 1.971 2.729 1.971 1.479 0 2.728-.903 2.728-1.971v-40.862c0-1.069-1.249-1.971-2.728-1.971"/><polygon fill-rule="evenodd" fill="#fff" points="87.278,89.805 49.441,89.805 49.441,36.496 
		87.278,47.287 	"/><path fill="url(#SVGID_3_)" d="m87.6 90.12h-38.474v-54.05l38.474 10.973v43.08m-37.838-.637h37.2v-41.959l-37.2-10.609v52.57"/><path fill="url(#SVGID_4_)" d="m58.46 8.752l-.363-.522c1.897-1.317 3.776-1.316 5.585.004l-.376.514c-1.588-1.159-3.174-1.157-4.846.004"/><g fill="url(#SVGID_5_)"><path d="m58.46 11.519l-.363-.522c1.897-1.317 3.776-1.316 5.584.004l-.375.515c-1.588-1.16-3.174-1.159-4.846.003"/><path d="m58.46 16.47l-.363-.523c1.897-1.317 3.776-1.316 5.584.005l-.375.513c-1.588-1.159-3.174-1.157-4.846.005"/></g><path fill="url(#SVGID_4_)" d="m58.46 19.343l-.363-.522c1.897-1.317 3.776-1.315 5.585.005l-.376.514c-1.588-1.16-3.174-1.159-4.846.003"/><path fill="url(#SVGID_5_)" d="m58.46 26.813l-.363-.522c1.897-1.317 3.776-1.316 5.584.004l-.375.514c-1.588-1.159-3.174-1.158-4.846.004"/><path fill-rule="evenodd" fill="#fff" d="m9.46 62.65h1.061c1.179 0 2.144.965 2.144 2.145v6.293c0 1.178-.965 2.143-2.144 2.143h-1.061c-1.18 0-2.145-.965-2.145-2.143v-6.293c0-1.18.965-2.145 2.145-2.145"/><path fill="url(#SVGID_9_)" d="m10.521 73.55h-1.061c-1.358 0-2.462-1.104-2.462-2.461v-6.293c0-1.358 1.104-2.462 2.462-2.462h1.061c1.357 0 2.462 1.104 2.462 2.462v6.293c-.0001 1.358-1.105 2.461-2.462 2.461m-1.061-10.58c-1.01 0-1.827.818-1.827 1.826v6.293c0 1.01.82 1.824 1.827 1.824h1.061c1.01 0 1.825-.818 1.825-1.824v-6.293c0-1.01-.819-1.826-1.825-1.826h-1.061"/><path fill-rule="evenodd" fill="#fff" d="m15.316 60.39h1.148c1.276 0 2.319 1.045 2.319 2.32v6.809c0 1.275-1.043 2.32-2.319 2.32h-1.148c-1.276 0-2.319-1.045-2.319-2.32v-6.809c0-1.275 1.044-2.32 2.319-2.32"/><path fill="url(#SVGID_10_)" d="m16.465 72.16h-1.148c-1.454 0-2.638-1.184-2.638-2.639v-6.809c0-1.455 1.184-2.639 2.638-2.639h1.148c1.454 0 2.638 1.184 2.638 2.639v6.809c0 1.455-1.184 2.639-2.638 2.639m-1.149-11.449c-1.104 0-2 .898-2 2v6.809c0 1.104.897 2 2 2h1.148c1.104 0 2-.898 2-2v-6.809c0-1.104-.898-2-2-2h-1.148"/><path fill="url(#SVGID_4_)" d="m58.46 29.731l-.363-.522c1.897-1.318 3.776-1.317 5.585.004l-.376.514c-1.588-1.16-3.174-1.159-4.846.004"/><g fill="url(#SVGID_12_)"><path d="m65.38 4.491l-.354-.528c2.248-1.509 4.474-1.508 6.617.004l-.367.52c-1.932-1.364-3.861-1.362-5.896.004"/><path d="m65.38 7.698l-.355-.528c2.248-1.509 4.474-1.508 6.617.005l-.367.52c-1.931-1.364-3.86-1.363-5.895.003"/><path d="m65.38 13.438l-.354-.528c2.248-1.509 4.474-1.508 6.617.004l-.367.52c-1.932-1.364-3.861-1.362-5.896.004"/><path d="m65.38 16.768l-.354-.528c2.248-1.51 4.474-1.508 6.617.003l-.367.52c-1.932-1.362-3.861-1.361-5.896.005"/><path d="m65.38 25.427l-.354-.529c2.248-1.509 4.474-1.507 6.617.005l-.367.52c-1.932-1.363-3.861-1.361-5.896.004"/><path d="m65.38 28.81l-.354-.528c2.248-1.509 4.474-1.508 6.617.004l-.367.52c-1.932-1.364-3.861-1.364-5.896.004"/></g><path fill-rule="evenodd" fill="#fff" d="m93.98 19.59c1.536 0 2.792.945 2.792 2.098v37.446c0 1.154-1.257 2.099-2.792 2.099-1.535 0-2.792-.944-2.792-2.099v-37.446c0-1.153 1.257-2.098 2.792-2.098"/><path fill="url(#SVGID_18_)" d="m93.98 61.55c-1.715 0-3.11-1.084-3.11-2.417v-37.445c0-1.332 1.396-2.416 3.11-2.416s3.11 1.084 3.11 2.416v37.446c.0001 1.332-1.395 2.416-3.11 2.416m0-41.642c-1.341 0-2.474.815-2.474 1.78v37.446c0 .965 1.133 1.781 2.474 1.781s2.474-.816 2.474-1.781v-37.446c0-.965-1.133-1.78-2.474-1.78"/><rect x=".318" y="89.85" fill-rule="evenodd" fill="url(#SVGID_19_)" width="152.37" height="1.546"/><path fill="url(#SVGID_20_)" d="m153 91.71h-153v-2.182h153v2.182m-152.37-.634h151.73v-.911h-151.73v.911"/><polygon fill-rule="evenodd" fill="#fff" points="83.3,51.79 56.602,57.36 56.602,89.627 83.3,89.627 	"/><path fill="url(#SVGID_21_)" d="m83.62 89.94h-27.335v-32.845l27.335-5.701v38.546m-26.698-.636h26.06v-37.13l-26.06 5.437v31.691"/><polygon fill-rule="evenodd" fill="#fff" points="83.3,51.79 124.32,62.928 124.32,89.627 83.3,89.627 	"/><path fill="url(#SVGID_22_)" d="m124.64 89.94h-41.656v-38.571l41.655 11.313v27.26m-41.02-.636h40.38v-26.14l-40.38-10.966v37.1"/><g fill="url(#SVGID_23_)"><path d="m91.37 24.26l-.363-.522c2.023-1.406 4.03-1.404 5.955.003l-.375.515c-1.709-1.249-3.416-1.247-5.217.004"/><path d="m91.37 27.22l-.363-.523c2.023-1.406 4.03-1.404 5.955.004l-.375.514c-1.709-1.247-3.416-1.246-5.217.005"/><path d="m91.37 32.523l-.363-.523c2.023-1.405 4.03-1.404 5.955.004l-.375.513c-1.709-1.247-3.416-1.246-5.217.006"/><path d="m91.37 35.6l-.363-.522c2.023-1.405 4.03-1.403 5.955.004l-.375.514c-1.709-1.248-3.416-1.247-5.217.004"/><path d="m91.37 43.601l-.363-.523c2.023-1.404 4.03-1.403 5.955.004l-.375.514c-1.709-1.248-3.416-1.246-5.217.005"/><path d="m91.37 46.725l-.363-.523c2.023-1.404 4.03-1.403 5.955.004l-.375.515c-1.709-1.248-3.416-1.247-5.217.004"/></g><polygon fill-rule="evenodd" fill="#fff" points="124.32,89.627 144.831,89.627 144.831,71.592 
		124.32,66.288 	"/><path fill="url(#SVGID_29_)" d="m145.15 89.94h-21.15v-24.07l21.15 5.469v18.599m-20.509-.636h19.874v-17.471l-19.874-5.138v22.609"/><polygon fill="url(#SVGID_30_)" points="20.028,66.372 19.393,66.372 19.393,58.11 26.385,49.49 26.879,49.891 20.028,58.334 "/><polygon fill="url(#SVGID_31_)" points="19.955,60.391 19.466,59.985 26.388,51.653 26.877,52.059 "/><polygon fill="url(#SVGID_32_)" points="87.196,49.977 49.434,39.918 26.7,44.853 26.564,44.23 49.448,39.264 49.522,39.283 
	87.359,49.362 "/><polygon fill="url(#SVGID_33_)" points="124.261,65.315 83.118,54.991 56.665,60.368 56.539,59.745 83.134,54.337 83.203,54.356 
	124.415,64.698 "/><polygon fill="url(#SVGID_34_)" points="144.799,73.891 124.246,68.94 124.395,68.323 144.948,73.274 "/><rect x="56.6" y="86.991" fill="url(#SVGID_35_)" width="67.72" height=".635"/><polygon fill-rule="evenodd" fill="#fff" points="62.082,87.309 76.934,87.309 76.934,68.831 
		62.082,70.418 	"/><path fill="url(#SVGID_36_)" d="m77.25 87.62h-15.488v-17.494l15.488-1.654v19.15m-14.851-.634h14.215v-17.805l-14.215 1.519v16.286"/><polygon fill-rule="evenodd" fill="url(#SVGID_37_)" points="25.894,67.971 18.29,69.214 13.114,70.059 
		12.42,70.174 7.394,70.997 5.769,71.261 5.769,89.084 25.894,89.084 	"/><path fill="url(#SVGID_38_)" d="m25.91 89.1h-20.16v-17.851l.015-.002 20.14-3.295v21.15m-20.13-.031h20.09v-21.08l-20.09 3.286v17.793"/><path fill-rule="evenodd" fill="url(#SVGID_39_)" d="m12.664 67.62v-2.961c0-1.178-.965-2.143-2.144-2.143h-1.06c-1.18 0-2.145.965-2.145 2.143v3.912l5.349-.951"/><path fill="url(#SVGID_40_)" d="m7.3 68.6v-3.932c0-1.189.969-2.158 2.16-2.158h1.061c1.191 0 2.16.969 2.16 2.158v2.975l-.014.002-5.367.955m2.16-6.06c-1.174 0-2.128.955-2.128 2.127v3.893l5.316-.945v-2.947c0-1.172-.955-2.127-2.127-2.127h-1.061"/><path fill-rule="evenodd" fill="url(#SVGID_41_)" d="m12.997 62.708v4.857l5.787-1.029v-3.828c0-1.275-1.043-2.32-2.319-2.32h-1.148c-1.276-.0001-2.32 1.044-2.32 2.32"/><path fill="url(#SVGID_42_)" d="m12.981 67.58v-4.878c0-1.288 1.048-2.336 2.335-2.336h1.148c1.288 0 2.336 1.048 2.336 2.336v3.842l-.014.002-5.805 1.034m2.335-7.182c-1.27 0-2.304 1.033-2.304 2.305v4.839l5.755-1.024v-3.814c0-1.271-1.033-2.305-2.303-2.305h-1.148"/><polygon fill-rule="evenodd" fill="url(#SVGID_43_)" points="19.71,60.188 19.71,66.372 26.632,65.139 
		26.632,53.891 26.632,51.856 	"/><path fill="url(#SVGID_44_)" d="m19.694 66.39v-6.207l.004-.005 6.95-8.367v13.342l-.014.002-6.94 1.235m.033-6.196v6.158l6.889-1.227v-13.224l-6.889 8.293"/><polygon fill-rule="evenodd" fill="url(#SVGID_45_)" points="49.44,49.471 49.44,89.805 87.278,89.805 
		87.278,89.627 83.3,89.627 56.602,89.627 56.602,87.309 56.602,60.057 56.602,57.36 83.3,51.79 87.278,52.87 87.278,49.668 
		70.37,45.165 65.319,43.82 62.462,43.059 58.354,41.965 49.44,39.591 43.022,40.984 42.987,50.721 45.967,50.145 	"/><path fill="url(#SVGID_46_)" d="m87.29 89.82h-37.869v-40.33l-6.454 1.25v-.02l.036-9.75.013-.002 6.422-1.394h.004l37.849 10.08v3.234l-3.995-1.085-26.682 5.564v32.24h30.676v.21m-37.837-.033h37.805v-.145h-30.677v-32.3l.013-.002 26.703-5.57h.004l3.957 1.075v-3.167l-37.822-10.07-6.402 1.39-.035 9.705 6.454-1.25v40.34"/><g fill-rule="evenodd"><polygon fill="url(#SVGID_47_)" points="83.132,54.663 57.54,60.057 57.54,87.309 
	62.828,87.309 62.828,70.418 77.157,68.831 77.157,87.309 83.3,87.309 83.3,54.708 "/><polygon fill="url(#SVGID_48_)" points="124.32,68.631 124.32,87.309 124.32,89.627 
		144.831,89.627 144.831,73.573 135.856,71.411 129.813,69.955 	"/></g><path fill="url(#SVGID_49_)" d="m144.85 89.64h-20.542v-21.03l20.542 4.947v16.08m-20.51-.031h20.477v-16.03l-20.477-4.932v20.96"/><polygon fill-rule="evenodd" fill="url(#SVGID_50_)" points="106.201,57.819 120.655,61.745 120.655,43.232 
		106.201,47.581 	"/><path fill="url(#SVGID_51_)" d="m120.67 61.766l-14.487-3.934v-10.263l.012-.004 14.476-4.354v18.555zm-14.455-3.959l14.422 3.916v-18.47l-14.422 4.34v10.214"/><polygon fill-rule="evenodd" fill="url(#SVGID_52_)" points="121.909,43.146 121.909,61.659 124.872,62.463 
		124.872,64.536 124.872,65.823 136.409,68.805 136.409,50.192 	"/><path fill="url(#SVGID_53_)" d="m136.42 68.827l-.02-.006-11.549-2.986v-3.359l-2.962-.805v-18.551l.023.011 14.507 7.05v18.645zm-11.536-3.02l11.504 2.975v-18.582l-14.467-7.03v18.474l2.963.805v3.358"/><path fill-rule="evenodd" fill="url(#SVGID_54_)" d="m63.49 40.504v-11.03c-1.68-1.227-3.418-1.249-5.216 0v9.547l5.216 1.487"/><path fill="url(#SVGID_55_)" d="m63.51 40.525l-.021-.005-5.228-1.491v-9.568l.006-.005c.89-.618 1.781-.931 2.65-.931.869 0 1.738.313 2.584.932l.007.004v11.06zm-5.216-1.521l5.183 1.479v-11c-.838-.61-1.699-.92-2.559-.92-.86 0-1.743.31-2.624.92v9.526"/><path fill-rule="evenodd" fill="url(#SVGID_54_)" d="m58.28 26.552c1.798-1.249 3.536-1.227 5.216 0v-7.47c-1.68-1.227-3.418-1.249-5.216 0v7.47"/><path fill="url(#SVGID_55_)" d="m63.51 26.584l-.025-.019c-.842-.614-1.705-.926-2.566-.926-.862 0-1.748.312-2.632.926l-.025.018v-7.51l.006-.005c.89-.618 1.781-.932 2.65-.932.869 0 1.738.313 2.584.932l.007.005v7.511m-5.215-7.493v7.431c.881-.606 1.763-.914 2.624-.914.859 0 1.72.307 2.559.913v-7.431c-.838-.61-1.699-.92-2.559-.92-.86 0-1.743.309-2.624.921"/><path fill-rule="evenodd" fill="url(#SVGID_54_)" d="m58.28 16.209c1.798-1.249 3.536-1.227 5.216 0v-4.952c-1.68-1.226-3.418-1.249-5.216 0v4.952"/><path fill="url(#SVGID_55_)" d="m63.51 16.24l-.025-.019c-.842-.614-1.705-.925-2.566-.925-.862 0-1.748.311-2.632.925l-.025.019v-4.991l.006-.004c.89-.618 1.781-.932 2.65-.932.869 0 1.738.313 2.584.932l.007.005v4.99m-5.215-4.973v4.911c.881-.605 1.763-.914 2.624-.914.859 0 1.72.308 2.559.913v-4.911c-.838-.61-1.699-.92-2.559-.92-.86 0-1.743.31-2.624.921"/><path fill-rule="evenodd" fill="url(#SVGID_54_)" d="m58.28 8.491c1.798-1.249 3.536-1.227 5.216 0v-1.97c0-1.078-1.173-1.96-2.608-1.96-1.434 0-2.608.882-2.608 1.96v1.97"/><path fill="url(#SVGID_55_)" d="m63.51 8.522l-.025-.019c-.842-.614-1.705-.925-2.566-.925-.862 0-1.748.311-2.632.925l-.025.018v-2c0-1.09 1.177-1.976 2.624-1.976 1.447 0 2.625.886 2.625 1.976v2zm-2.625-3.945c-1.429 0-2.591.872-2.591 1.943v1.94c.881-.606 1.763-.914 2.624-.914.859 0 1.72.308 2.559.913v-1.938c0-1.072-1.163-1.944-2.592-1.944"/><path fill-rule="evenodd" fill="url(#SVGID_62_)" d="m91.19 46.46v7.472l5.584 1.517v-8.986c-1.798-1.314-3.659-1.338-5.584-.003"/><path fill="url(#SVGID_63_)" d="m96.79 55.47l-5.615-1.525v-7.492l.007-.004c.952-.662 1.905-.997 2.835-.997s1.861.334 2.768.997l.006.006v9.01zm-5.583-1.551l5.551 1.508v-8.957c-.898-.653-1.821-.985-2.741-.985-.921 0-1.866.331-2.81.985v7.449"/><path fill-rule="evenodd" fill="url(#SVGID_62_)" d="m91.19 43.34c1.925-1.335 3.785-1.311 5.584.002v-8c-1.799-1.313-3.659-1.337-5.584-.0001v8"/><path fill="url(#SVGID_63_)" d="m96.79 43.37l-.025-.019c-.901-.657-1.826-.991-2.748-.991-.923 0-1.871.334-2.816.99l-.025.018v-8.04l.007-.005c.952-.66 1.905-.995 2.835-.995s1.861.336 2.768.997l.006.005v8.04zm-2.773-1.041c.921 0 1.843.33 2.741.979v-7.961c-.898-.654-1.821-.987-2.741-.987-.921 0-1.866.333-2.81.986v7.961c.943-.65 1.888-.978 2.81-.978"/><path fill-rule="evenodd" fill="url(#SVGID_62_)" d="m91.19 32.26c1.925-1.336 3.785-1.312 5.584.002v-5.303c-1.799-1.313-3.659-1.337-5.584-.0001v5.302"/><path fill="url(#SVGID_63_)" d="m96.79 32.29l-.025-.02c-.901-.658-1.826-.991-2.748-.991-.923 0-1.871.333-2.816.99l-.025.017v-5.341l.007-.005c.952-.661 1.905-.996 2.835-.996s1.861.335 2.768.997l.006.005v5.344zm-2.773-1.043c.921 0 1.843.329 2.741.979v-5.262c-.898-.654-1.821-.986-2.741-.986-.921 0-1.866.331-2.81.984v5.263c.943-.649 1.888-.978 2.81-.978"/><path fill-rule="evenodd" fill="url(#SVGID_62_)" d="m91.19 23.995c1.925-1.336 3.785-1.311 5.584.0001v-2.308c0-1.153-1.256-2.098-2.792-2.098-1.535 0-2.792.945-2.792 2.098v2.307"/><path fill="url(#SVGID_63_)" d="m96.79 24.03l-.025-.018c-.901-.658-1.826-.992-2.748-.992-.923 0-1.871.333-2.816.99l-.025.018v-2.337c0-1.165 1.26-2.114 2.808-2.114 1.549 0 2.808.949 2.808 2.114v2.339zm-2.773-1.042c.921 0 1.843.329 2.741.979v-2.276c0-1.147-1.244-2.082-2.775-2.082-1.53 0-2.775.935-2.775 2.082v2.276c.942-.65 1.887-.979 2.809-.979"/><path fill-rule="evenodd" fill="url(#SVGID_70_)" d="m71.38 42.751v-14.262c-1.965-1.348-3.994-1.372-6.093.0001v12.523l6.093 1.738"/><path fill="url(#SVGID_71_)" d="m71.39 42.772l-.021-.005-6.105-1.741v-12.545l.008-.005c1.038-.68 2.079-1.023 3.093-1.023 1.013 0 2.028.344 3.02 1.022l.007.005v14.292m-6.094-1.77l6.06 1.728v-14.233c-.98-.671-1.987-1.012-2.992-1.012-1 0-2.038.341-3.069 1.015v12.502"/><path fill-rule="evenodd" fill="url(#SVGID_70_)" d="m65.28 25.11c2.099-1.373 4.128-1.35 6.093-.002v-8.659c-1.965-1.349-3.994-1.371-6.093.0001v8.66"/><path fill="url(#SVGID_71_)" d="m65.27 25.14v-8.699l.008-.005c1.039-.68 2.079-1.024 3.093-1.024 1.013 0 2.028.345 3.02 1.023l.007.005v8.698l-.025-.017c-.983-.675-1.992-1.018-3-1.018-1.01 0-2.043.343-3.076 1.02l-.025.017m.032-8.681v8.621c1.03-.669 2.063-1.01 3.069-1.01 1 0 2.01.338 2.992 1v-8.619c-.98-.672-1.987-1.012-2.992-1.012-1.01 0-2.038.341-3.069 1.014"/><path fill-rule="evenodd" fill="url(#SVGID_70_)" d="m65.28 13.12c2.099-1.374 4.128-1.35 6.093-.0001v-5.74c-1.965-1.348-3.994-1.371-6.093.002v5.739"/><path fill="url(#SVGID_71_)" d="m65.27 13.148v-5.777l.008-.005c1.038-.678 2.079-1.023 3.093-1.023 1.013 0 2.028.345 3.02 1.022l.007.005v5.778l-.025-.017c-.983-.676-1.992-1.018-3-1.018-1.01 0-2.043.343-3.076 1.019l-.025.016m.032-5.759v5.7c1.03-.669 2.063-1.01 3.069-1.01 1 0 2.01.338 2.992 1v-5.7c-.98-.671-1.987-1.01-2.992-1.01-1.01-.0001-2.038.34-3.069 1.013"/><path fill-rule="evenodd" fill="url(#SVGID_70_)" d="m65.28 4.172c2.099-1.374 4.128-1.35 6.093-.0001v-1.564c0-1.259-1.371-2.289-3.046-2.289-1.676 0-3.047 1.03-3.047 2.289v1.565"/><path fill="url(#SVGID_71_)" d="m65.27 4.202v-1.595c0-1.271 1.374-2.306 3.063-2.306 1.688 0 3.063 1.035 3.063 2.306v1.594l-.025-.018c-.983-.674-1.992-1.017-3-1.017-1.01 0-2.043.343-3.076 1.019l-.025.017m3.063-3.869c-1.671 0-3.03 1.02-3.03 2.273v1.536c1.03-.669 2.063-1.01 3.069-1.01 1 0 2.01.339 2.992 1.01v-1.532c-.0001-1.253-1.359-2.274-3.03-2.274"/><rect x="29.818" y="53.21" fill="#fff" width=".637" height="36.592"/><polygon fill-rule="evenodd" fill="url(#SVGID_78_)" points="26.83,54.1 26.83,65.045 26.83,67.801 
		26.83,89.045 30.222,89.045 30.222,53.44 	"/><path fill="#fff" d="m30.24 89.06h-3.424v-34.973l3.424-.668v35.641m-3.391-.033h3.358v-35.569l-3.358.654v34.915"/><polygon fill-rule="evenodd" fill="url(#SVGID_79_)" points="45.456,50.579 45.456,89.168 48.819,89.168 
		48.819,49.924 	"/><path fill="#fff" d="m48.835 89.19h-3.395v-38.621l3.396-.66v39.28m-3.363-.033h3.331v-39.21l-3.331.648v38.561"/><g fill-rule="evenodd"><polygon fill="url(#SVGID_80_)" points="32.044,52.842 32.022,43.372 26.632,44.541 
	26.632,49.69 26.632,51.856 26.632,53.891 30.137,53.213 "/><polygon fill="url(#SVGID_81_)" points="42.476,40.521 48.894,39.128 48.894,36.033 
		26.086,41.608 26.086,44.078 31.475,42.909 	"/></g><path fill="#fff" d="m26.07 44.1v-2.503l.012-.002 22.829-5.581v3.128l-.013.003-22.828 4.955m.032-2.479v2.438l22.776-4.943v-3.062l-22.776 5.567"/><g fill-rule="evenodd"><polygon fill="url(#SVGID_82_)" points="31.835,52.464 43.009,50.299 43.089,50.715 
	31.914,52.881 "/><g fill="#fff"><polygon points="124.001,49.176 134.214,53.579 134.269,63.305 
	124.001,60.061 "/><rect x="48.788" y="39.591" width=".653" height="49.789"/></g><rect x="96.35" y="58.09" fill="url(#SVGID_83_)" width=".848" height="29.22"/><rect x="113.93" y="62.5" fill="url(#SVGID_84_)" width=".847" height="24.809"/><polygon fill="url(#SVGID_85_)" points="83.483,67.471 124.272,74.208 124.139,75.042 
	83.348,68.305 "/></g></svg>