<?xml version="1.0" encoding="utf-8"?>
<!-- Generator: Adobe Illustrator 23.0.3, SVG Export Plug-In . SVG Version: 6.00 Build 0)  -->
<svg version="1.1" id="Слой_1" xmlns="http://www.w3.org/2000/svg" xmlns:xlink="http://www.w3.org/1999/xlink" x="0px" y="0px"
	 viewBox="0 0 40 40" style="enable-background:new 0 0 40 40;" xml:space="preserve">
<style type="text/css">
	.st0{fill-rule:evenodd;clip-rule:evenodd;fill:#1F4287;}
</style>
<g>
	<path class="st0" d="M29.1,10.9c1.2,1.2,2.1,2.6,2.7,4.1c0.6,1.6,1,3.2,1,4.8V20h-0.3c-0.1,0-0.3,0-0.4,0c-0.1,0-0.3,0-0.4,0
		c-1.6,0-3.1-0.3-4.5-0.9c-1.4-0.6-2.7-1.4-3.8-2.6c-1.2-1.2-2-2.5-2.6-3.9c-0.6-1.4-0.9-3-0.9-4.5l0,0c0-0.1,0-0.3,0-0.4
		s0-0.3,0-0.4V7h0.3c1.6,0.1,3.2,0.4,4.8,1C26.5,8.7,27.9,9.7,29.1,10.9L29.1,10.9z M32.8,21.9c-0.2,1.2-0.5,2.3-1,3.5
		c-0.5,1.1-1.1,2.1-1.9,3l-0.2,0.3l-0.2-0.3L11.6,10.6l-0.2-0.3l0.3-0.2c1-0.8,1.9-1.4,3-1.9s2.3-0.8,3.5-1l0.3-0.1v0.3
		c0,0.1,0,0.2,0,0.3c0,0.1,0,0.2,0,0.3l0,0c0,1.8,0.3,3.5,1,5.1c0.6,1.6,1.6,3,2.9,4.3c1.3,1.3,2.8,2.3,4.3,2.9c1.6,0.6,3.4,1,5.1,1
		c0.1,0,0.3,0,0.3,0c0.1,0,0.2,0,0.3,0h0.3L32.8,21.9z M28.3,29.9c-1,0.8-1.9,1.4-3,1.9c-1.1,0.5-2.3,0.8-3.5,1L21.5,33v-0.3
		c0-0.1,0-0.2,0-0.3c0-0.1,0-0.2,0-0.3l0,0c0-1.8-0.3-3.5-1-5.1c-0.6-1.6-1.6-3-2.9-4.3s-2.8-2.3-4.3-2.9c-1.6-0.6-3.4-1-5.1-1
		c-0.1,0-0.3,0-0.3,0s-0.2,0-0.3,0H7.1l0.1-0.3c0.2-1.2,0.5-2.4,1-3.5c0.5-1.1,1.1-2.1,1.9-3l0.2-0.3l0.2,0.2l17.8,17.8l0.2,0.2
		L28.3,29.9z M19.7,33c-1.6-0.1-3.2-0.4-4.8-1c-1.5-0.6-2.9-1.6-4.1-2.7c-1.2-1.2-2.1-2.6-2.7-4.1c-0.6-1.6-1-3.2-1-4.8v-0.3h0.3
		c0.1,0,0.3,0,0.4,0s0.3,0,0.4,0c1.6,0,3.1,0.3,4.5,0.9c1.4,0.6,2.7,1.4,3.8,2.6c1.2,1.2,2,2.5,2.6,3.9c0.6,1.5,0.9,3,0.9,4.5
		c0,0.1,0,0.3,0,0.4c0,0.1,0,0.3,0,0.4V33L19.7,33z"/>
</g>
</svg>
