<?xml version="1.0" encoding="utf-8"?>
<!-- Generator: Adobe Illustrator 23.0.3, SVG Export Plug-In . SVG Version: 6.00 Build 0)  -->
<svg version="1.1" id="Слой_1" xmlns="http://www.w3.org/2000/svg" xmlns:xlink="http://www.w3.org/1999/xlink" x="0px" y="0px"
	 viewBox="0 0 40 40" style="enable-background:new 0 0 40 40;" xml:space="preserve">
<style type="text/css">
	.st0{fill-rule:evenodd;clip-rule:evenodd;fill:#1F4287;}
</style>
<path class="st0" d="M19.2,17.5L5.5,13.6l2.6-2.9l15.6,1.6l5.2-5.9c1.2-1.4,2.3-1.7,3.3-1.3c0.6,0.2,1.1,0.7,1.3,1.2
	c0.3,0.5,0.3,1.1,0,1.7c-0.2,0.5-0.5,1-1.1,1.6l-5.2,5.8l3.6,15.4l-2.6,2.9l-5.6-13.2l-5.5,6.1l0.2,6.1l-2,2.2l-2-7.7l-7.8-1l2-2.2
	l6.2-0.5L19.2,17.5z"/>
</svg>
