<?xml version="1.0" encoding="utf-8"?>
<!-- Generator: Adobe Illustrator 23.0.3, SVG Export Plug-In . SVG Version: 6.00 Build 0)  -->
<svg version="1.1" id="Слой_1" xmlns="http://www.w3.org/2000/svg" xmlns:xlink="http://www.w3.org/1999/xlink" x="0px" y="0px"
	 viewBox="0 0 40 40" style="enable-background:new 0 0 40 40;" xml:space="preserve">
<style type="text/css">
	.st0{fill:#1F4287;}
</style>
<g>
	<path class="st0" d="M17.5,23.1c0.7-0.8,1.4-1.5,2.1-2.3c2.9-3.4,5.9-6.8,8.8-10.2c0.7-0.9,1.4-1.8,2.1-2.6
		c0.2-0.2,0.3-0.4,0.5-0.6c1-0.9,1.8-1,2.9-0.2c0.5,0.4,1,0.8,1.5,1.2c0.6,0.5,0.7,0.9,0.3,1.6c-0.8,1.3-1.6,2.6-2.4,3.8
		c-4.3,6.1-8.7,12.2-13,18.3c-0.4,0.5-0.8,1-1.2,1.4c-0.7,0.7-1.2,0.7-1.8,0c-1.4-1.5-2.7-3-4-4.5c-2-2.3-4-4.7-5.9-7.1
		c-0.4-0.5-0.8-1.2-1.2-1.7c-0.3-0.6-0.3-1.1,0-1.7c0.5-0.9,1.2-1.6,2.1-2.1c0.6-0.3,1.2-0.3,1.7,0.2c1.7,1.4,3.4,2.9,5,4.3
		C15.9,21.6,16.6,22.3,17.5,23.1z"/>
</g>
</svg>
