<?xml version="1.0" encoding="utf-8"?>
<!-- Generator: Adobe Illustrator 23.0.3, SVG Export Plug-In . SVG Version: 6.00 Build 0)  -->
<svg version="1.1" id="Слой_1" xmlns="http://www.w3.org/2000/svg" xmlns:xlink="http://www.w3.org/1999/xlink" x="0px" y="0px"
	 viewBox="0 0 40 40" style="enable-background:new 0 0 40 40;" xml:space="preserve">
<style type="text/css">
	.st0{fill:#1F4287;}
</style>
<g>
	<path class="st0" d="M7.1,11.3h7.4V8.8c0-1.1,0.7-2,1.5-2h7.8c0.9,0,1.5,1,1.5,2v2.5h7.4c1.4,0,2.7,1.2,2.7,2.7v2.3L20,24.9
		L4.5,16.2v-2.3C4.5,12.6,5.7,11.3,7.1,11.3L7.1,11.3z M15.8,11.3h8.4V9.2c0-0.6-0.4-1.1-0.9-1.1h-6.7c-0.5,0-0.9,0.5-0.9,1.1
		L15.8,11.3L15.8,11.3z M35.6,17.7v12.4c0,1.4-1.2,2.7-2.7,2.7H7.1c-1.4,0-2.7-1.2-2.7-2.7V17.7l15.3,8.5l0.3,0.2l0.3-0.2L35.6,17.7
		z"/>
</g>
</svg>
