<?xml version="1.0" encoding="utf-8"?>
<!-- Generator: Adobe Illustrator 23.0.3, SVG Export Plug-In . SVG Version: 6.00 Build 0)  -->
<svg version="1.1" id="Слой_1" xmlns="http://www.w3.org/2000/svg" xmlns:xlink="http://www.w3.org/1999/xlink" x="0px" y="0px"
	 viewBox="0 0 40 40" style="enable-background:new 0 0 40 40;" xml:space="preserve">
<style type="text/css">
	.st0{fill:#1F4287;}
</style>
<path class="st0" d="M27,18.9c3,0,5.3-2.3,5.3-5.3S30,8.3,27,8.3s-5.3,2.3-5.3,5.3C21.7,16.6,24.1,18.9,27,18.9L27,18.9z"/>
<path class="st0" d="M14.1,14.7c2.7,0,4.8-2.2,4.8-4.8c0-2.7-2.2-4.8-4.8-4.8S9.2,7.2,9.2,9.8C9.2,12.5,11.4,14.7,14.1,14.7
	L14.1,14.7z"/>
<path class="st0" d="M19.6,20.7c0.6-0.8,1.5-1.3,2.9-1.7c-0.5-2-2.3-3.5-4.5-3.5h-7.7c-2.6,0-4.7,2.1-4.7,4.7v9.2h11.9v-1.6H7.7
	v-7.1H19.6z"/>
<path class="st0" d="M30,20h-5.9c-4.9,0-5.6,4.7-5.6,5.2v7.6v1.5h2h13.2h0.6h1.3v-9C35.5,24.6,34.7,20,30,20z M20.5,32.8v-7.2h13.2
	v7.2H20.5z"/>
</svg>
