<?xml version="1.0" encoding="utf-8"?>
<!-- Generator: Adobe Illustrator 23.0.3, SVG Export Plug-In . SVG Version: 6.00 Build 0)  -->
<svg version="1.1" id="Слой_1" xmlns="http://www.w3.org/2000/svg" xmlns:xlink="http://www.w3.org/1999/xlink" x="0px" y="0px"
	 viewBox="0 0 40 40" style="enable-background:new 0 0 40 40;" xml:space="preserve">
<style type="text/css">
	.st0{fill-rule:evenodd;clip-rule:evenodd;fill:#1F4287;}
</style>
<g>
	<path class="st0" d="M32.3,25.8c0,3.3-5.6,6-12.4,6s-12.4-2.6-12.4-6l0,0v-8.3L20,22.8l12.4-5.2v8.3H32.3z"/>
	<path class="st0" d="M19.9,3.8l20,8.9l-20,8.2c-4.3-1.7-14.2-5.5-14.2-5.5v11.4c0.3,0.4-2,0.4-1.7,0v-12l-4-2L19.9,3.8z"/>
</g>
<path class="st0" d="M6.5,36.6H3v-8.9c0-0.9,0.7-1.7,1.7-1.7h0.1c0.9,0,1.7,0.7,1.7,1.7V36.6z"/>
</svg>
