<?xml version="1.0" encoding="utf-8"?>
<!-- Generator: Adobe Illustrator 23.0.3, SVG Export Plug-In . SVG Version: 6.00 Build 0)  -->
<svg version="1.1" id="Слой_1" xmlns="http://www.w3.org/2000/svg" xmlns:xlink="http://www.w3.org/1999/xlink" x="0px" y="0px"
	 viewBox="0 0 40 40" style="enable-background:new 0 0 40 40;" xml:space="preserve">
<style type="text/css">
	.st0{fill-rule:evenodd;clip-rule:evenodd;fill:#1F4287;}
</style>
<path class="st0" d="M21.6,3.6l1.1,4.1c1.3,0.3,2.7,0.8,3.8,1.5l3.3-2.4c0.9,0.7,1.7,1.3,2.4,2.2l-1.8,3.8c0.8,1,1.3,2.1,1.7,3.3
	l4.1,0.3c0.3,1.1,0.4,2.3,0.4,3.4l-3.9,1.8c-0.1,1.1-0.3,2.1-0.7,3l2.9,2.9c-0.6,1.2-1.3,2.2-2,3.2l-4.2-1.2c-0.6,0.6-1.3,1.1-2,1.6
	l0.4,4.2c-1.2,0.6-2.4,1-3.7,1.3l-2.4-3.5c-0.4,0-0.8,0.1-1.2,0.1s-0.8,0-1.2-0.1l-2.4,3.5c-1.3-0.2-2.5-0.8-3.7-1.3l0.4-4.2
	c-0.8-0.5-1.4-1-2-1.6l-4.2,1.2c-0.8-1-1.4-2-2-3.2l2.9-2.9c-0.3-0.9-0.6-2-0.7-3l-3.8-1.8c0-1.2,0.2-2.3,0.4-3.4L7.8,16
	c0.4-1.2,1-2.3,1.7-3.3L7.7,8.8C8.5,8,9.3,7.3,10.2,6.6l3.3,2.4c1.2-0.7,2.4-1.2,3.8-1.5l1.1-4.1c0.5-0.1,1.1-0.1,1.6-0.1
	C20.5,3.5,21.1,3.6,21.6,3.6L21.6,3.6z M20,14.2c-3.3,0-5.9,2.7-5.9,5.9s2.7,5.9,5.9,5.9s5.9-2.7,5.9-5.9S23.2,14.2,20,14.2z"/>
</svg>
