<?xml version="1.0" encoding="utf-8"?>
<!-- Generator: Adobe Illustrator 23.0.3, SVG Export Plug-In . SVG Version: 6.00 Build 0)  -->
<svg version="1.1" id="Слой_1" xmlns="http://www.w3.org/2000/svg" xmlns:xlink="http://www.w3.org/1999/xlink" x="0px" y="0px"
	 viewBox="0 0 40 40" style="enable-background:new 0 0 40 40;" xml:space="preserve">
<style type="text/css">
	.st0{fill:#1F4287;}
	.st1{fill:none;stroke:#1F4287;stroke-width:2.3534;stroke-miterlimit:10;}
</style>
<path class="st0" d="M20.6,21.1h-4c-4.3,0-10.9-2.5-10.9-6.7l0,0h25.9l0,0C31.5,18.5,24.9,21.1,20.6,21.1z"/>
<rect x="17.1" y="19.5" class="st0" width="3.1" height="14.8"/>
<path class="st1" d="M16,8c1.9-1.9,4.9-3.6,8.1-3.6c4.7,0,9.5,3.4,9.5,9.4c0,5.8-5.9,10.1-11.6,10.1"/>
<ellipse transform="matrix(0.7427 -0.6696 0.6696 0.7427 -0.3771 13.7833)" class="st0" cx="17.7" cy="7.4" rx="4.5" ry="2.4"/>
<path class="st1" d="M22.4,23.9c-3.8,0-8,0-8,3.2c0,4,6.3,2.9,9.1,2.2"/>
<path class="st0" d="M18.7,32.1c1.8,0,7.4,2,7.4,2.9l0,0H10.9l0,0C10.9,33.8,16.5,32.1,18.7,32.1z"/>
</svg>
