<?xml version="1.0" encoding="utf-8"?>
<!-- Generator: Adobe Illustrator 23.0.3, SVG Export Plug-In . SVG Version: 6.00 Build 0)  -->
<svg version="1.1" id="Слой_1" xmlns="http://www.w3.org/2000/svg" xmlns:xlink="http://www.w3.org/1999/xlink" x="0px" y="0px"
	 viewBox="0 0 99.9 97.4" style="enable-background:new 0 0 99.9 97.4;" xml:space="preserve">
<style type="text/css">
	.st0{fill:#F37624;}
	.st1{fill:#27160E;}
</style>
<g>
	<g>
		<path class="st0" d="M99.8,97.4c-33.2,0-66.3,0-99.5,0C0.1,97.4,0,97.4,0,97C0,64.7,0,32.3,0,0c0.2,0,0.4,0,0.6,0
			c32.9,0,65.8,0,98.7,0c0.5,0,0.5,0,0.5,0.6c0,32.1,0,64.2,0,96.4C99.9,97.1,99.8,97.3,99.8,97.4z M49.9,93.2c15,0,30.1,0,45.1,0
			c0.6,0,0.6,0,0.6-0.6c0-29.2,0-58.5,0-87.7c0-0.7,0.1-0.6-0.6-0.6c-30.1,0-60.1,0-90.2,0c-0.7,0-0.6-0.1-0.6,0.6
			c0,29.2,0,58.5,0,87.7c0,0.7-0.1,0.6,0.6,0.6C19.9,93.2,34.9,93.2,49.9,93.2z"/>
		<path class="st1" d="M49.9,93.2c-15,0-30.1,0-45.1,0c-0.7,0-0.6,0.1-0.6-0.6c0-29.2,0-58.5,0-87.7c0-0.7-0.1-0.6,0.6-0.6
			c30.1,0,60.1,0,90.2,0c0.7,0,0.6-0.1,0.6,0.6c0,29.2,0,58.5,0,87.7c0,0.6,0,0.6-0.6,0.6C80,93.2,64.9,93.2,49.9,93.2z M44.4,24.5
			c-1.7,0-3.3,0-5,0c-0.6,0-0.7,0.1-0.7,0.7c-0.1,1.4-0.2,2.7-0.7,4c-4.4,11.8-8.8,23.5-13.1,35.3c-0.9,2.4-1.8,4.9-2.7,7.3
			c-0.2,0.7-0.1,0.9,0.6,0.9c1,0,1.9,0,2.9,0c1.5,0,3.1,0,4.6,0c0.4,0,0.7-0.1,0.8-0.5c1.5-4.2,3-8.4,4.5-12.6
			c0.1-0.3,0.2-0.4,0.5-0.4c5.5,0,11.1,0,16.6,0c0.4,0,0.5,0.1,0.7,0.5c1.5,4.1,3.1,8.2,4.6,12.3c0.2,0.6,0.3,0.7,1,0.7
			c2.6,0,5.2,0,7.8,0c0.1,0,0.3,0,0.4,0c0.4,0,0.5-0.2,0.4-0.6c0-0.1-0.1-0.2-0.1-0.4c-1.4-3.8-2.9-7.6-4.3-11.4
			c-4.4-11.7-8.7-23.5-13.1-35.3c-0.2-0.7-0.3-0.7-1-0.7C47.6,24.5,46,24.5,44.4,24.5z M78,54.8c0-5.9,0-11.7,0-17.6
			c0-0.4-0.1-0.5-0.5-0.5c-2.5,0-5.1,0-7.6,0c-0.4,0-0.5,0.1-0.5,0.5c0,11.7,0,23.5,0,35.2c0,0.4,0.1,0.5,0.5,0.5c2.5,0,5.1,0,7.6,0
			c0.4,0,0.5-0.1,0.5-0.5C78,66.4,78,60.6,78,54.8z M69.7,29.9c0,2.3,1.8,4.1,4.1,4.1c2.3,0,4.1-1.8,4.1-4.1c0-2.3-1.8-4.1-4.1-4.1
			C71.5,25.8,69.7,27.7,69.7,29.9z"/>
		<path class="st0" d="M44.4,24.5c1.6,0,3.2,0,4.8,0c0.7,0,0.7,0,1,0.7c4.3,11.8,8.7,23.5,13.1,35.3c1.4,3.8,2.8,7.6,4.3,11.4
			c0,0.1,0.1,0.2,0.1,0.4c0.1,0.4,0,0.6-0.4,0.6c-0.1,0-0.3,0-0.4,0c-2.6,0-5.2,0-7.8,0c-0.7,0-0.8-0.1-1-0.7
			c-1.5-4.1-3.1-8.2-4.6-12.3c-0.1-0.4-0.3-0.5-0.7-0.5c-5.5,0-11.1,0-16.6,0c-0.3,0-0.4,0.1-0.5,0.4c-1.5,4.2-3,8.4-4.5,12.6
			c-0.1,0.4-0.4,0.5-0.8,0.5c-1.5,0-3.1,0-4.6,0c-1,0-1.9,0-2.9,0c-0.7,0-0.9-0.2-0.6-0.9c0.9-2.4,1.8-4.9,2.7-7.3
			c4.3-11.8,8.6-23.6,13.1-35.3c0.5-1.3,0.6-2.7,0.7-4c0-0.6,0.1-0.7,0.7-0.7C41,24.5,42.7,24.5,44.4,24.5z M44.3,32
			c-0.3,1.1-0.6,2.2-0.9,3.2c-1.7,5.5-3.6,11-5.5,16.4c-0.2,0.5-0.2,0.5,0.3,0.5c4.1,0,8.2,0,12.4,0c0.1,0,0.2,0,0.2,0
			c0.2,0,0.3-0.1,0.2-0.3c0-0.1-0.1-0.2-0.1-0.3c-1.7-5-3.5-10-5.2-15C45.3,35.1,44.8,33.6,44.3,32z"/>
		<path class="st0" d="M78,54.8c0,5.8,0,11.7,0,17.5c0,0.4-0.1,0.5-0.5,0.5c-2.5,0-5.1,0-7.6,0c-0.4,0-0.5-0.1-0.5-0.5
			c0-11.7,0-23.5,0-35.2c0-0.4,0.1-0.5,0.5-0.5c2.5,0,5.1,0,7.6,0c0.4,0,0.5,0.1,0.5,0.5C78,43,78,48.9,78,54.8z"/>
		<path class="st0" d="M69.7,29.9c0-2.3,1.8-4.1,4.1-4.1c2.3,0,4.1,1.8,4.1,4.1c0,2.3-1.8,4.1-4.1,4.1C71.5,34,69.7,32.2,69.7,29.9z
			"/>
		<path class="st1" d="M44.3,32c0.5,1.6,1,3.1,1.5,4.6c1.7,5,3.4,10,5.2,15c0,0.1,0.1,0.2,0.1,0.3c0.1,0.2,0,0.3-0.2,0.3
			c-0.1,0-0.2,0-0.2,0c-4.1,0-8.2,0-12.4,0c-0.5,0-0.5,0-0.3-0.5c1.8-5.5,3.8-10.9,5.5-16.4C43.7,34.1,44,33.1,44.3,32z"/>
	</g>
</g>
</svg>
