<svg xmlns="http://www.w3.org/2000/svg" width="11.75" height="11.75" viewBox="0 0 11.75 11.75" enable-background="new 0 0 11.75 11.75"><circle fill="#bcbec0" cx="5.875" cy="5.875" r="5.875"/><path fill="#fff" d="m5.668 9.215c-.039.139-.051.215-.051.24 0 .201.176.238.238.238.291 0 .568-.34 1.01-.857l.326.266c-.668.843-1.171 1.248-1.99 1.248-.744 0-.945-.404-.945-.807 0-.189.051-.354.102-.555l.83-3.088c.039-.152.127-.504-.592-.504h-.125l.088-.328c.352 0 .668-.076 1.033-.277.365-.215.617-.453.781-.693h.668l-1.373 5.117m1.033-7.815c.453 0 .793.34.793.795 0 .453-.34.793-.793.793-.455 0-.795-.34-.795-.793 0-.455.34-.795.795-.795"/></svg>