<?xml version="1.0" encoding="utf-8"?>
<!-- Generator: Adobe Illustrator 21.0.2, SVG Export Plug-In . SVG Version: 6.00 Build 0)  -->
<svg version="1.1" id="Слой_1" xmlns="http://www.w3.org/2000/svg" xmlns:xlink="http://www.w3.org/1999/xlink" x="0px" y="0px"
	 viewBox="0 0 19.1 19.1" style="enable-background:new 0 0 19.1 19.1;" xml:space="preserve">
<style type="text/css">
	.st0{filter:url(#Adobe_OpacityMaskFilter);}
	.st1{clip-path:url(#SVGID_2_);}
	.st2{enable-background:new    ;}
	.st3{clip-path:url(#SVGID_2_);fill:#FFFFFF;}
	.st4{clip-path:url(#SVGID_2_);mask:url(#SVGID_3_);}
	.st5{clip-path:url(#SVGID_5_);}
	.st6{clip-path:url(#SVGID_7_);fill:#FFFFFF;}
	.st7{clip-path:url(#SVGID_9_);}
	.st8{clip-path:url(#SVGID_15_);}
	.st9{clip-path:url(#SVGID_19_);}
	.st10{opacity:0.45;clip-path:url(#SVGID_25_);}
	.st11{clip-path:url(#SVGID_27_);}
</style>
<g>
	<defs>
		<path id="SVGID_1_" d="M6.4,9.5c0-1.8,1.4-3.2,3.2-3.2c1.8,0,3.2,1.4,3.2,3.2c0,1.8-1.4,3.2-3.2,3.2C7.8,12.7,6.4,11.3,6.4,9.5
			 M4.6,9.5c0,2.7,2.2,4.9,4.9,4.9c2.7,0,4.9-2.2,4.9-4.9s-2.2-4.9-4.9-4.9C6.8,4.6,4.6,6.8,4.6,9.5 M13.5,4.5
			c0,0.6,0.5,1.1,1.1,1.1s1.1-0.5,1.1-1.1c0-0.6-0.5-1.1-1.1-1.1S13.5,3.8,13.5,4.5 M5.7,17.3c-0.9,0-1.4-0.2-1.8-0.3
			c-0.4-0.2-0.8-0.4-1.1-0.7c-0.3-0.3-0.5-0.7-0.7-1.1c-0.1-0.3-0.3-0.8-0.3-1.8c0-1-0.1-1.3-0.1-3.9c0-2.6,0-2.9,0.1-3.9
			c0-0.9,0.2-1.4,0.3-1.8c0.2-0.4,0.4-0.8,0.7-1.1c0.3-0.3,0.7-0.5,1.1-0.7C4.3,2,4.8,1.8,5.7,1.8c1,0,1.3-0.1,3.9-0.1
			c2.5,0,2.9,0,3.9,0.1c0.9,0,1.4,0.2,1.8,0.3c0.4,0.2,0.8,0.4,1.1,0.7c0.3,0.3,0.5,0.7,0.7,1.1c0.1,0.3,0.3,0.8,0.3,1.8
			c0,1,0.1,1.3,0.1,3.9c0,2.5,0,2.9-0.1,3.9c0,0.9-0.2,1.4-0.3,1.8c-0.2,0.4-0.4,0.8-0.7,1.1c-0.3,0.3-0.7,0.5-1.1,0.7
			c-0.3,0.1-0.8,0.3-1.8,0.3c-1,0-1.3,0.1-3.9,0.1C7,17.4,6.7,17.4,5.7,17.3 M5.6,0.1c-1,0-1.7,0.2-2.3,0.4C2.7,0.7,2.1,1.1,1.6,1.6
			C1.1,2.1,0.7,2.7,0.5,3.3C0.3,3.9,0.1,4.6,0.1,5.6C0,6.6,0,7,0,9.5s0,2.9,0.1,3.9c0,1,0.2,1.7,0.4,2.3c0.2,0.6,0.6,1.2,1.1,1.7
			c0.5,0.5,1.1,0.9,1.7,1.1C3.9,18.8,4.6,19,5.6,19c1,0,1.3,0.1,3.9,0.1c2.6,0,2.9,0,3.9-0.1c1,0,1.7-0.2,2.3-0.4
			c0.6-0.2,1.2-0.6,1.7-1.1c0.5-0.5,0.9-1.1,1.1-1.7c0.2-0.6,0.4-1.3,0.4-2.3c0-1,0.1-1.3,0.1-3.9s0-2.9-0.1-3.9
			c0-1-0.2-1.7-0.4-2.3c-0.2-0.6-0.6-1.2-1.1-1.7c-0.5-0.5-1.1-0.9-1.7-1.1c-0.6-0.2-1.3-0.4-2.3-0.4C12.5,0,12.1,0,9.5,0
			C7,0,6.6,0,5.6,0.1"/>
	</defs>
	<use xlink:href="#SVGID_1_"  style="overflow:visible;fill:#FFFFFF;"/>
	<clipPath id="SVGID_2_">
		<use xlink:href="#SVGID_1_"  style="overflow:visible;"/>
	</clipPath>
	<defs>
		<filter id="Adobe_OpacityMaskFilter" filterUnits="userSpaceOnUse" x="-46" y="-46" width="111.2" height="111.1">
			<feColorMatrix  type="matrix" values="1 0 0 0 0  0 1 0 0 0  0 0 1 0 0  0 0 0 1 0"/>
		</filter>
	</defs>
	<mask maskUnits="userSpaceOnUse" x="-46" y="-46" width="111.2" height="111.1" id="SVGID_3_">
		<g class="st0">
			<rect x="-46" y="-46" class="st1" width="111.2" height="111.1"/>
			<g class="st2">
				<rect x="-3.5" y="-3.5" class="st3" width="26" height="26"/>
			</g>
		</g>
	</mask>
	<g class="st4">
		<g>
			<defs>
				<rect id="SVGID_4_" x="-46" y="-46" width="111.2" height="111.1"/>
			</defs>
			<use xlink:href="#SVGID_4_"  style="overflow:visible;fill:#FFFFFF;"/>
			<clipPath id="SVGID_5_">
				<use xlink:href="#SVGID_4_"  style="overflow:visible;"/>
			</clipPath>
			<g class="st5">
				<defs>
					<rect id="SVGID_6_" x="-46" y="-46" width="111.2" height="111.1"/>
				</defs>
				<use xlink:href="#SVGID_6_"  style="overflow:visible;fill:#FFFFFF;"/>
				<clipPath id="SVGID_7_">
					<use xlink:href="#SVGID_6_"  style="overflow:visible;"/>
				</clipPath>
				<rect x="-46" y="-46" class="st6" width="111.1" height="111.1"/>
			</g>
			<g class="st5">
				<defs>
					<rect id="SVGID_8_" x="-29.2" y="-27.8" width="94.4" height="83.1"/>
				</defs>
				<use xlink:href="#SVGID_8_"  style="overflow:visible;fill:#FFFFFF;"/>
				<clipPath id="SVGID_9_">
					<use xlink:href="#SVGID_8_"  style="overflow:visible;"/>
				</clipPath>
				<g class="st7">
					<defs>
						<rect id="SVGID_10_" x="-29.2" y="-27.8" width="94.4" height="83.1"/>
					</defs>
					<use xlink:href="#SVGID_10_"  style="overflow:visible;fill:#FFFFFF;"/>
					<clipPath id="SVGID_11_">
						<use xlink:href="#SVGID_10_"  style="overflow:visible;"/>
					</clipPath>
					<g style="clip-path:url(#SVGID_11_);">
						
							<image style="overflow:visible;" width="435" height="383" xlink:href="F0FEA141.png"  transform="matrix(0.217 0 0 0.217 -29.2466 -27.7815)">
						</image>
					</g>
				</g>
			</g>
			<g class="st5">
				<defs>
					<rect id="SVGID_12_" x="-38.8" y="-23.2" width="90.9" height="87.7"/>
				</defs>
				<use xlink:href="#SVGID_12_"  style="overflow:visible;fill:#FFFFFF;"/>
				<clipPath id="SVGID_13_">
					<use xlink:href="#SVGID_12_"  style="overflow:visible;"/>
				</clipPath>
				<g style="clip-path:url(#SVGID_13_);">
					
						<image style="overflow:visible;" width="419" height="404" xlink:href="F0FEA143.png"  transform="matrix(0.217 0 0 0.217 -38.7965 -23.2236)">
					</image>
				</g>
			</g>
			<g class="st5">
				<defs>
					<rect id="SVGID_14_" x="-27.7" y="-6.5" width="62.1" height="62.1"/>
				</defs>
				<use xlink:href="#SVGID_14_"  style="overflow:visible;fill:#FFFFFF;"/>
				<clipPath id="SVGID_15_">
					<use xlink:href="#SVGID_14_"  style="overflow:visible;"/>
				</clipPath>
				<g class="st8">
					<defs>
						<rect id="SVGID_16_" x="-27.7" y="-6.5" width="62.1" height="62.1"/>
					</defs>
					<use xlink:href="#SVGID_16_"  style="overflow:visible;fill:#FFFFFF;"/>
					<clipPath id="SVGID_17_">
						<use xlink:href="#SVGID_16_"  style="overflow:visible;"/>
					</clipPath>
					<g style="clip-path:url(#SVGID_17_);">
						
							<image style="overflow:visible;" width="286" height="286" xlink:href="F0FEA146.png"  transform="matrix(0.217 0 0 0.217 -27.7273 -6.5113)">
						</image>
					</g>
				</g>
			</g>
			<g class="st5">
				<defs>
					<rect id="SVGID_18_" x="-19" y="3.7" width="50.1" height="50.1"/>
				</defs>
				<use xlink:href="#SVGID_18_"  style="overflow:visible;fill:#FFFFFF;"/>
				<clipPath id="SVGID_19_">
					<use xlink:href="#SVGID_18_"  style="overflow:visible;"/>
				</clipPath>
				<g class="st9">
					<defs>
						<rect id="SVGID_20_" x="-19" y="3.7" width="50.1" height="50.1"/>
					</defs>
					<use xlink:href="#SVGID_20_"  style="overflow:visible;fill:#FFFFFF;"/>
					<clipPath id="SVGID_21_">
						<use xlink:href="#SVGID_20_"  style="overflow:visible;"/>
					</clipPath>
					<g style="clip-path:url(#SVGID_21_);">
						
							<image style="overflow:visible;" width="231" height="231" xlink:href="F0FEA147.png"  transform="matrix(0.217 0 0 0.217 -19.0456 3.6897)">
						</image>
					</g>
				</g>
			</g>
			<g class="st5">
				<defs>
					<rect id="SVGID_22_" x="-22.3" y="6.9" width="49.5" height="48"/>
				</defs>
				<use xlink:href="#SVGID_22_"  style="overflow:visible;fill:#FFFFFF;"/>
				<clipPath id="SVGID_23_">
					<use xlink:href="#SVGID_22_"  style="overflow:visible;"/>
				</clipPath>
				<g style="clip-path:url(#SVGID_23_);">
					
						<image style="overflow:visible;" width="228" height="221" xlink:href="F0FEA142.png"  transform="matrix(0.217 0 0 0.217 -22.3012 6.9454)">
					</image>
				</g>
			</g>
			<g class="st5">
				<defs>
					<rect id="SVGID_24_" x="-46" y="-46" width="111.2" height="111.1"/>
				</defs>
				<use xlink:href="#SVGID_24_"  style="overflow:visible;fill:#FFFFFF;"/>
				<clipPath id="SVGID_25_">
					<use xlink:href="#SVGID_24_"  style="overflow:visible;"/>
				</clipPath>
				<g class="st10">
					<g>
						<defs>
							<rect id="SVGID_26_" x="-44.4" y="-33.4" width="88.6" height="45.6"/>
						</defs>
						<use xlink:href="#SVGID_26_"  style="overflow:visible;fill:#FFFFFF;"/>
						<clipPath id="SVGID_27_">
							<use xlink:href="#SVGID_26_"  style="overflow:visible;"/>
						</clipPath>
						<g class="st11">
							<defs>
								<rect id="SVGID_28_" x="-44.4" y="-33.4" width="88.6" height="45.6"/>
							</defs>
							<use xlink:href="#SVGID_28_"  style="overflow:visible;fill:#FFFFFF;"/>
							<clipPath id="SVGID_29_">
								<use xlink:href="#SVGID_28_"  style="overflow:visible;"/>
							</clipPath>
							<g style="clip-path:url(#SVGID_29_);">
								
									<image style="overflow:visible;" width="408" height="210" xlink:href="F0FEA14D.png"  transform="matrix(0.217 0 0 0.217 -44.4396 -33.4247)">
								</image>
							</g>
						</g>
					</g>
				</g>
			</g>
		</g>
	</g>
</g>
</svg>
