<svg xmlns="http://www.w3.org/2000/svg" viewBox="0 0 94.078 90" enable-background="new 0 0 94.078 90"><defs><linearGradient id="SVGID_1_" gradientUnits="userSpaceOnUse" y1="44.684" x2="0" y2="32.31"><stop stop-color="#14387f"/><stop offset="1" stop-color="#3f8ded"/></linearGradient></defs><path fill="#3f8ded" d="m45.28-.625c10.835 0 20.646 4.391 27.746 11.494 2.01 2.01 3.8 4.235 5.339 6.639h-1.356c-1.4-2.103-3-4.056-4.783-5.835-1.047-1.047-2.154-2.03-3.316-2.954-1.283 1-2.777 1.914-4.443 2.721 1.416 1.638 2.709 3.455 3.857 5.422.121.213.244.428.365.644h-1.307l-.043-.07c-1.173-2.01-2.496-3.851-3.949-5.5-1.392.613-2.891 1.156-4.477 1.619-.775.225-1.566.433-2.381.619.271.632.531 1.287.775 1.963.162.447.322.902.474 1.369h-1.193c-.112-.332-.229-.661-.347-.982-.266-.731-.545-1.43-.838-2.106-2.891.588-6.01.931-9.249.981v2.106h-1.139v-2.099c-3.461-.021-6.778-.373-9.846-1-.309.705-.604 1.443-.88 2.211-.108.293-.207.588-.311.891h-1.194c.141-.432.287-.859.439-1.278.257-.712.531-1.405.817-2.07-.798-.185-1.577-.391-2.339-.611-1.6-.469-3.107-1.015-4.51-1.634-1.477 1.676-2.822 3.549-4.01 5.593h-1.303c.099-.173.194-.347.295-.52 1.171-2.026 2.497-3.892 3.948-5.57-1.665-.812-3.154-1.726-4.432-2.725-1.175.927-2.295 1.923-3.354 2.982-1.779 1.779-3.384 3.732-4.784 5.833h-1.358c1.537-2.405 3.329-4.631 5.338-6.637 7.102-7.104 16.913-11.495 27.749-11.495m.87 6.519v8.369c3.074-.049 6.02-.366 8.764-.902-1.786-3.732-4-6.446-6.454-7.733-.754.134-1.527.222-2.31.266m-1.138 8.377v-8.349h-.001-.026-.02-.004-.024-.025-.007-.02-.026-.018-.009-.023-.028-.002-.022-.027-.015-.012-.026-.023-.004-.024-.024-.008-.02-.024-.019-.006-.027-.022-.008-.021-.025-.015-.012-.024-.029l-.022-.004h-.027-.012-.014-.026-.021-.004-.025-.026-.008-.021-.026-.017-.008l-.026-.003h-.024-.002-.023-.022-.016-.013-.026l-.022-.004h-.004-.024-.025-.012-.015l-.024-.004h-.021-.008-.022l-.026-.004h-.004-.021-.024l-.016-.004h-.013l-.079-.003-.025-.004h-.009l-.094-.006c-.479-.04-.958-.099-1.434-.175-2.409 1.305-4.588 3.994-6.35 7.669 2.917.546 6.071.87 9.36.891m5.05-8.997c2.291 1.59 4.336 4.308 5.998 7.844.867-.192 1.715-.411 2.535-.651 1.371-.4 2.713-.878 3.98-1.419-2.898-3.047-6.271-5.343-9.942-6.669-.821.358-1.678.66-2.571.895m-15.545 7.833c1.634-3.476 3.642-6.157 5.883-7.756-.932-.232-1.826-.533-2.682-.891-3.578 1.335-6.865 3.593-9.706 6.566 1.276.545 2.628 1.03 4.01 1.434.809.237 1.645.451 2.498.647m19.363-9.462c3.622 1.466 6.939 3.841 9.792 6.917 1.64-.766 3.125-1.623 4.353-2.521-3.51-2.617-7.492-4.642-11.791-5.931-.726.57-1.512 1.083-2.354 1.535m-26.961 6.893c2.776-2.986 5.987-5.308 9.489-6.779-.867-.449-1.682-.966-2.434-1.541-4.146 1.289-7.991 3.264-11.397 5.794 1.226.904 2.708 1.76 4.342 2.526m8.439-8.72c1.173.792 2.483 1.445 3.904 1.925 1.78.604 3.729.933 5.773.933 2.068 0 4.04-.339 5.837-.956 1.451-.498 2.79-1.177 3.977-1.998-3.057-.791-6.262-1.211-9.564-1.211-3.434.0001-6.762.457-9.927 1.307"/><path fill="#14387f" d="m45.28 77.37c-10.836 0-20.647-4.393-27.746-11.494-2.01-2.01-3.801-4.234-5.338-6.639h1.36c1.4 2.104 3 4.057 4.782 5.835 1.047 1.047 2.156 2.034 3.317 2.954 1.283-1 2.776-1.914 4.448-2.723-1.417-1.638-2.71-3.453-3.858-5.42-.122-.213-.246-.427-.366-.644h1.306l.04.067c1.171 2.01 2.497 3.854 3.952 5.5 1.39-.61 2.887-1.155 4.475-1.619.773-.225 1.567-.432 2.381-.617-.271-.631-.529-1.286-.777-1.965-.163-.444-.323-.901-.476-1.368h1.195c.11.333.227.661.347.983.263.729.545 1.43.84 2.104 2.889-.589 6-.933 9.249-.979v-2.106h1.136v2.099c3.462.022 6.779.373 9.845 1 .31-.705.603-1.443.881-2.211.105-.291.207-.589.313-.89h1.193c-.143.433-.287.86-.443 1.274-.259.713-.531 1.406-.814 2.072.797.188 1.576.389 2.334.609 1.601.469 3.108 1.018 4.513 1.634 1.479-1.672 2.823-3.546 4.01-5.591h1.304c-.098.175-.196.35-.293.521-1.174 2.025-2.496 3.891-3.949 5.569 1.664.81 3.152 1.726 4.429 2.726 1.179-.93 2.297-1.924 3.354-2.981 1.778-1.776 3.383-3.731 4.785-5.835h1.358c-1.539 2.402-3.333 4.633-5.34 6.639-7.102 7.101-16.914 11.494-27.749 11.494m-.873-6.518v-8.371c-3.073.047-6.02.365-8.763.902 1.786 3.732 3.999 6.448 6.451 7.733.758-.129 1.53-.221 2.312-.264m1.14-8.378v8.35h.013.025.022.004.022.029.005.02.026.02.007l.027.004h.026.022.027.015.012.026.027.022l.026.004h.001.016.024.02.007.027.026.004l.019.004h.025.017.012.022l.027.004h.022l.026.004h.012.016.026.019.004l.025.004h.024.008.019l.025.004h.017.008.026l.023.004h.004.022l.026.002h.012l.012.002.026.002h.022.004l.023.004.026.002h.008.019l.023.002.021.002h.006l.024.002.025.002h.004l.022.002h.024l.014.003h.012l.076.007.026.002.001.002.091.008c.483.039.958.099 1.435.175 2.409-1.306 4.587-3.991 6.349-7.671-2.904-.585-6.06-.908-9.345-.93m-5.05 9c-2.289-1.594-4.336-4.312-5.995-7.848-.87.196-1.717.413-2.536.653-1.371.399-2.712.876-3.979 1.42 2.899 3.045 6.269 5.342 9.942 6.669.818-.357 1.676-.657 2.568-.894m15.547-7.833c-1.634 3.474-3.64 6.154-5.885 7.756.935.232 1.828.529 2.683.892 3.575-1.337 6.866-3.595 9.705-6.569-1.277-.543-2.63-1.027-4.01-1.432-.808-.238-1.638-.454-2.494-.647m-19.364 9.463c-3.622-1.471-6.938-3.846-9.794-6.92-1.635.768-3.121 1.621-4.354 2.521 3.515 2.616 7.495 4.644 11.795 5.931.728-.569 1.514-1.082 2.353-1.532m26.964-6.897c-2.779 2.981-5.986 5.308-9.49 6.779.869.448 1.684.966 2.436 1.538 4.146-1.285 7.989-3.262 11.396-5.793-1.228-.898-2.711-1.757-4.342-2.524m-8.442 8.72c-1.173-.789-2.483-1.443-3.903-1.92-1.779-.607-3.729-.937-5.773-.937-2.066 0-4.04.341-5.839.958-1.447.499-2.787 1.175-3.976 1.994 3.057.789 6.265 1.211 9.567 1.211 3.43 0 6.759-.455 9.924-1.306"/><path fill="url(#SVGID_1_)" d="m.002 29.535c0 .274.171.455.41.455h4.762v16.966h-4.893c-.128 0-.281.23-.281.864v7.096c0 .318.108.637.452.637h21.03c.28 0 .32-.23.32-.771v-7.232c0-.318-.106-.501-.32-.501h-4.894v-17.02h4.894c.171 0 .32-.183.32-.636v-7.548c0-.32-.257-.411-.449-.411h-21.01c-.195 0-.346.272-.346.862v7.234m46.932-5.503c-1.101-1.048-3.188-2.594-6.185-2.594h-5.923c-3.492 0-6.379 1.183-7.864 2.957-1.187 1.317-3.535 4-3.535 8.551 0 3.229 1.703 7.417 5.237 9.55 1.982 1.185 6.958 2.277 8.617 2.277l6.248.09c.305 0 1.508.501 1.508 2.229 0 1.504-1.291 1.775-1.531 1.775h-7.777c-.235 0-3.729-.184-4.158-3.186-.044-.319-.152-.5-.324-.5h-7.691c-.171 0-.236.318-.236.547v9.276c0 .364.064.545.215.545h7.326c.15 0 .278-.088.324-.45l.127-2.643c1.531 1.503 4.117 3.098 6.553 3.098h5.839c3.081 0 11.957-1.459 11.957-11.872 0-7.278-4.524-9.143-5.772-9.781-1.293-.59-6.25-1.456-8.382-1.456l-4.115-.09c-.861 0-3.447.09-3.447-2.185 0-2.138 1.596-2.275 2.133-2.275h6.616c.689 0 3.039.591 3.747 3.188.044.226.152.226.24.226l7.129-.046c.176 0 .281-.229.281-.545v-8.325c0-.32-.148-.956-.56-.956h-5.907c-.173 0-.365.137-.409.499l-.281 2.096m26.652-2.594c-7.131 0-11.915 4-13.79 7.777-1.099 2.228-2.265 5.322-2.265 8.778 0 2.64.562 6.825 2.462 9.78 2.452 3.773 6.116 7.776 14.952 7.776h3.896c10.775 0 15.236-9.733 15.236-18.06 0-8.143-6.293-16.05-16.227-16.05h-4.266v.003zm2.133 7.916c3.618 0 5.774 5.41 5.774 9.462 0 4.095-1.938 8.825-5.538 8.825-3.191 0-5.646-4.729-5.646-9.6.002-4.595 2.653-8.687 5.41-8.687"/></svg>