<svg xmlns="http://www.w3.org/2000/svg" viewBox="0 0 14.145 13.204" enable-background="new 0 0 14.145 13.204"><path opacity=".3" fill-rule="evenodd" fill="none" stroke="#fff" stroke-miterlimit="10" d="m.5 10.822c.026-.025.053-.048.078-.073 1.857-1.861 3.716-3.721 5.576-5.579.061-.061.074-.112.058-.194-.423-2.059 1-4.11 3.073-4.43 2.03-.313 3.888.985 4.289 2.999.408 2.048-1.01 4.087-3.067 4.41-.469.075-.933.065-1.398-.027-.038-.008-.095.011-.123.038-.306.301-.61.606-.912.911-.049.05-.098.071-.169.071-.551-.0001-1.104 0-1.656 0-.038 0-.076 0-.124 0 0 .318 0 .623 0 .94-.314 0-.619 0-.936 0 0 .315 0 .621 0 .937-.316 0-.621 0-.938 0 0 .047 0 .082 0 .116 0 .246.002.491-.003.736-.0001.049-.023.108-.057.143-.272.28-.549.556-.828.831-.03.028-.083.05-.125.05-.575.004-1.15.004-1.726 0-.045-.0001-.1-.025-.132-.057-.296-.289-.588-.582-.882-.873.002-.316.002-.634.002-.949zm9.379-7.514c-.004.519.41.94.926.945.522.003.945-.414.946-.936.002-.517-.416-.939-.932-.942-.514-.002-.937.417-.94.933z"/></svg>