<?xml version="1.0" encoding="utf-8"?>
<!-- Generator: Adobe Illustrator 21.0.2, SVG Export Plug-In . SVG Version: 6.00 Build 0)  -->
<svg version="1.1" id="Слой_1" xmlns="http://www.w3.org/2000/svg" xmlns:xlink="http://www.w3.org/1999/xlink" x="0px" y="0px"
	 viewBox="0 0 71 70" style="enable-background:new 0 0 71 70;" xml:space="preserve">
<style type="text/css">
	.st0{fill:url(#SVGID_1_);stroke:#FFFFFF;stroke-miterlimit:10;}
	.st1{fill:none;stroke:#FFFFFF;stroke-miterlimit:10;}
	.st2{fill:#FFFFFF;stroke:#FFFFFF;stroke-miterlimit:10;}
	.st3{fill:#FFFFFF;}
</style>
<g>
	
		<linearGradient id="SVGID_1_" gradientUnits="userSpaceOnUse" x1="0.5" y1="481.1" x2="70.5" y2="481.1" gradientTransform="matrix(1 0 0 1 0 -446)">
		<stop  offset="0" style="stop-color:#12397F"/>
		<stop  offset="1" style="stop-color:#3F8DED"/>
	</linearGradient>
	<path class="st0" d="M70.5,59.9c0,5.3-4.1,9.7-9.1,9.7H9.6c-5,0-9.1-4.3-9.1-9.7V10.2c0-5.3,4.1-9.6,9.1-9.6h51.8
		c5,0,9.1,4.3,9.1,9.7V59.9L70.5,59.9L70.5,59.9z"/>
</g>
<g>
	<path class="st1" d="M39.6,45.6v-1.7h-8.1v1.7c0,1.6,0,5.9-5.9,5.9H23v9h25v-9h-2.6C39.6,51.4,39.6,47.1,39.6,45.6z M44.1,57.3
		H26.7V55h17.5V57.3z"/>
	<path class="st1" d="M49.5,11.7H28V9.6h-4.9v2.1h-1.6c-1.6,0-3,1.4-3,3v14c0,1.7,1.4,3,3,3h9.9v7.1h8.1v-7.1h9.9c1.6,0,3-1.3,3-3
		v-14C52.5,13,51.1,11.7,49.5,11.7z M27.5,16.1h-4.5v-1h4.5V16.1z"/>
</g>
<circle class="st2" cx="35.5" cy="21.7" r="6.6"/>
<rect x="26.2" y="54.6" class="st3" width="18.4" height="3.2"/>
</svg>
