<svg xmlns="http://www.w3.org/2000/svg" viewBox="0 0 33.281 29.521" enable-background="new 0 0 33.281 29.521"><g fill="none" stroke="#6e6f72" stroke-linejoin="round" stroke-miterlimit="10"><path d="m23.19 23.06c0 .553-1.446 1-2 1h-13.688c-.553 0-2-.447-2-1l-5-12.438c0-.553 2.447-3 3-3h21.688c.554 0 3 2.447 3 3l-5 12.438z"/><line x1="14.344" y1="7.621" x2="14.344" y2="28.18"/><line x1="8.221" y1="28.18" x2="20.625" y2="28.18"/><line x1="17.12" y1="5.925" x2="31.09" y2="5.925"/><line x1="15.906" y1="18.886" x2="31.09" y2="18.886"/><line x1="31.09" y1="5.386" x2="31.09" y2="28.18"/><polygon points="13.306,7.621 11.726,7.042 
	11.726,4.807 13.306,4.228 15.54,4.228 17.119,4.807 17.119,7.042 15.54,7.621 "/><line x1="12.898" y1="7.471" x2="12.898" y2="28.18"/><line x1="15.906" y1="7.621" x2="15.906" y2="28.18"/><line x1="28.688" y1="28.18" x2="33.28" y2="28.18"/></g></svg>