<?xml version="1.0" encoding="utf-8"?>
<!-- Generator: Adobe Illustrator 21.0.2, SVG Export Plug-In . SVG Version: 6.00 Build 0)  -->
<svg version="1.1" id="Слой_1" xmlns="http://www.w3.org/2000/svg" xmlns:xlink="http://www.w3.org/1999/xlink" x="0px" y="0px"
	 viewBox="0 0 71 70" style="enable-background:new 0 0 71 70;" xml:space="preserve">
<style type="text/css">
	.st0{fill:url(#SVGID_1_);stroke:#FFFFFF;stroke-miterlimit:10;}
	.st1{fill:#FFFFFF;}
</style>
<g>
	
		<linearGradient id="SVGID_1_" gradientUnits="userSpaceOnUse" x1="0.5" y1="152.1" x2="70.5" y2="152.1" gradientTransform="matrix(1 0 0 1 0 -117)">
		<stop  offset="0" style="stop-color:#12397F"/>
		<stop  offset="1" style="stop-color:#3F8DED"/>
	</linearGradient>
	<path class="st0" d="M70.5,59.9c0,5.3-4.1,9.7-9.1,9.7H9.6c-5,0-9.1-4.3-9.1-9.7V10.2c0-5.3,4.1-9.6,9.1-9.6h51.8
		c5,0,9.1,4.3,9.1,9.7V59.9L70.5,59.9L70.5,59.9z"/>
</g>
<path class="st1" d="M35.5,63C20.8,63,8.9,51,8.9,36.3c0-14.7,11.9-26.6,26.6-26.6c14.7,0,26.6,11.9,26.6,26.6
	C62.1,51,50.2,63,35.5,63z M35.5,10.7c-14.1,0-25.6,11.5-25.6,25.6S21.4,62,35.5,62s25.6-11.5,25.6-25.6S49.6,10.7,35.5,10.7z"/>
<path class="st1" d="M38.8,45.1c0.3-0.3,0.7-0.5,0.9-0.8c2.8-2.7,2.9-5.6,2.9-7.6c0-5.6-1.8-9.2-7.1-9.6c-5.3,0.3-7.1,4-7.1,9.6
	c0,2,0.1,4.9,2.8,7.6c0.3,0.3,0.6,0.6,1,0.8c0.3,0.2,0.3,1.4,0.2,1.6c-0.6,0.9-5,1.8-7.5,4.2c-1.7,1.6-2,4.6-2.8,7.2
	c3,3.5,6.9,3.9,11.3,4.5c0.9,0,1.6,0.1,2.2,0c0.5,0.1,1.3,0.1,2.2,0C42,62,46,61.7,49,58.1c-0.8-2.6-1.1-5.5-2.8-7.2
	c-2.5-2.4-6.9-3.3-7.6-4.2C38.4,46.5,38.5,45.3,38.8,45.1z"/>
<ellipse class="st1" cx="35.4" cy="32.4" rx="6.6" ry="5.3"/>
<ellipse class="st1" cx="29.1" cy="35.5" rx="1.2" ry="2.2"/>
<ellipse class="st1" cx="41.8" cy="35.5" rx="1.2" ry="2.2"/>
</svg>
