<svg xmlns="http://www.w3.org/2000/svg" viewBox="0 0 48.075 67.672" enable-background="new 0 0 48.075 67.672" xmlns:xlink="http://www.w3.org/1999/xlink"><defs><linearGradient id="SVGID_1_" gradientUnits="userSpaceOnUse" x1=".5" x2="47.575"><stop stop-color="#12397f"/><stop offset="1" stop-color="#3f8ded"/></linearGradient><linearGradient id="SVGID_2_" gradientUnits="userSpaceOnUse" x1="2.773" x2="45.3" xlink:href="#SVGID_1_"/><radialGradient id="SVGID_10_" cx="5.781" cy="33.836" r="1.123" gradientUnits="userSpaceOnUse" xlink:href="#SVGID_1_"/><radialGradient id="SVGID_11_" cx="36.818" cy="46.619" r="1.249" gradientUnits="userSpaceOnUse" xlink:href="#SVGID_1_"/><radialGradient id="SVGID_12_" cx="11.127" cy="20.928" r="1.122" gradientUnits="userSpaceOnUse" xlink:href="#SVGID_1_"/><radialGradient id="SVGID_13_" cx="36.818" cy="21.05" r="1.249" gradientUnits="userSpaceOnUse" xlink:href="#SVGID_1_"/><radialGradient id="SVGID_9_" cx="42.11" cy="33.836" r="1.249" gradientUnits="userSpaceOnUse" xlink:href="#SVGID_1_"/><radialGradient id="SVGID_8_" cx="24.04" cy="15.581" r="1.122" gradientUnits="userSpaceOnUse" xlink:href="#SVGID_1_"/><radialGradient id="SVGID_5_" cx="26.861" cy="37.18" r="5.227" gradientUnits="userSpaceOnUse" xlink:href="#SVGID_1_"/><radialGradient id="SVGID_14_" cx="11.127" cy="46.746" r="1.122" gradientUnits="userSpaceOnUse" xlink:href="#SVGID_1_"/><radialGradient id="SVGID_6_" cx="24.04" cy="34.36" r="2.128" gradientUnits="userSpaceOnUse" xlink:href="#SVGID_1_"/><radialGradient id="SVGID_4_" cx="23.23" cy="27.879" r="6.897" gradientUnits="userSpaceOnUse" xlink:href="#SVGID_1_"/><radialGradient id="SVGID_7_" cx="24.04" cy="51.913" r="1.25" gradientUnits="userSpaceOnUse" xlink:href="#SVGID_1_"/><radialGradient id="SVGID_3_" cx="24.77" cy="27.879" r="6.897" gradientUnits="userSpaceOnUse" xlink:href="#SVGID_1_"/></defs><g stroke="#fff" stroke-miterlimit="10"><circle fill="url(#SVGID_1_)" cx="24.04" cy="34.36" r="23.537"/><circle fill="url(#SVGID_2_)" cx="24.04" cy="34.36" r="21.264"/><line fill="url(#SVGID_3_)" x1="24.77" y1="37.633" x2="24.77" y2="18.12"/><line fill="url(#SVGID_4_)" x1="23.23" y1="37.633" x2="23.23" y2="18.12"/><line fill="url(#SVGID_5_)" x1="21.729" y1="31.857" x2="31.993" y2="42.499"/><path fill="url(#SVGID_6_)" d="m26.16 34.36c0 1.173-.953 2.127-2.126 2.127-1.176 0-2.13-.954-2.13-2.127 0-1.178.954-2.13 2.13-2.13 1.172 0 2.126.952 2.126 2.13z"/><line fill="url(#SVGID_7_)" x1="24.04" y1="50.15" x2="24.04" y2="53.68"/><line fill="url(#SVGID_8_)" x1="24.04" y1="13.994" x2="24.04" y2="17.17"/><line fill="url(#SVGID_9_)" x1="40.35" y1="33.836" x2="43.879" y2="33.836"/><line fill="url(#SVGID_10_)" x1="4.193" y1="33.836" x2="7.368" y2="33.836"/><line fill="url(#SVGID_11_)" x1="35.569" y1="45.37" x2="38.07" y2="47.868"/><line fill="url(#SVGID_12_)" x1="10.01" y1="19.805" x2="12.249" y2="22.05"/><line fill="url(#SVGID_13_)" x1="35.569" y1="22.304" x2="38.07" y2="19.805"/><line fill="url(#SVGID_14_)" x1="10.01" y1="47.868" x2="12.249" y2="45.624"/></g></svg>