<svg id="Layer_1" data-name="Layer 1" xmlns="http://www.w3.org/2000/svg" viewBox="0 0 20 20">
  <defs>
    <style>
      .cls-1 {
        fill: #fff;
      }
    </style>
  </defs>
  <title>linux</title>
  <path class="cls-1" d="M18,16.06c-.59-.24-.84-.56-.81-1a1.61,1.61,0,0,0-.44-1.12,4.92,4.92,0,0,0,0-2.58A22.24,22.24,0,0,0,14,6.85a3.79,3.79,0,0,1-.54-2.29A7.05,7.05,0,0,0,13,1.77,2.89,2.89,0,0,0,10.22,0,3.73,3.73,0,0,0,8.13.64c-1.19.82-1,2.62-.93,3.82,0,.16,0,.31,0,.45a6.13,6.13,0,0,1-.07,2,9.93,9.93,0,0,1-.6.84c-.29.38-.62.81-.89,1.21a9.83,9.83,0,0,0-.83,1.94,8.84,8.84,0,0,1-.52,1.32,1.82,1.82,0,0,0-.18,1.34,1.47,1.47,0,0,0-.44.56c-.18.38-.54.59-1.29.73a1,1,0,0,0-.71.43,1.23,1.23,0,0,0,0,1,1.56,1.56,0,0,1-.1,1.11c0,.1-.08.22-.12.35a.64.64,0,0,0,.07.56c.29.44,1.11.59,2,.69a7.33,7.33,0,0,1,1.6.46,8.6,8.6,0,0,0,1.57.46h.23a1.29,1.29,0,0,0,1.19-.7,13.3,13.3,0,0,1,2.16-.26,9.73,9.73,0,0,1,2.14.22,1.72,1.72,0,0,0,.65.71,1.59,1.59,0,0,0,.72.16h0a1.76,1.76,0,0,0,1.28-.53A11.4,11.4,0,0,1,17.38,18l.49-.26a1.09,1.09,0,0,0,.67-1A.81.81,0,0,0,18,16.06ZM10.79,2.89a.91.91,0,0,1,.79,1,1.15,1.15,0,0,1-.17.62,1,1,0,0,0,0-.3.74.74,0,0,0-.66-.82.75.75,0,0,0-.66.82V4.3l-.06,0A1.27,1.27,0,0,1,10,3.89.91.91,0,0,1,10.79,2.89Zm-1.32,2a6.76,6.76,0,0,1,.86.31l.34.13a.89.89,0,0,1,.42.25s0,0-.17.12l-.28.15-.08.05a6.48,6.48,0,0,1-1.23.65c-.13,0-.21,0-.4-.16L8.8,6.3a1.66,1.66,0,0,1-.58-.55c.11-.09.38-.3.52-.43a1.47,1.47,0,0,1,.7-.43ZM8.36,3.08c.32,0,.59.42.59.93a1.5,1.5,0,0,1,0,.2l0,0a.5.5,0,0,0,0-.12c-.06-.4-.32-.68-.61-.68H8.18a.51.51,0,0,0-.38.35C7.86,3.37,8.09,3.08,8.36,3.08Zm-1,15.25a1.26,1.26,0,0,1-.52.64H6.76a7.49,7.49,0,0,1-2-.64l-.08,0A5.59,5.59,0,0,0,3.42,18a3.79,3.79,0,0,1-1-.22c-.07-.08,0-.33.08-.55a3.51,3.51,0,0,0,.13-.49,1.76,1.76,0,0,0,0-.67.89.89,0,0,1,0-.39c0-.09.44-.18.62-.22a2.34,2.34,0,0,0,.69-.21,1.41,1.41,0,0,0,.47-.64,1,1,0,0,1,.27-.39h0c.18,0,.57.39.79.74l.29.47a14.64,14.64,0,0,0,1.12,1.73C7.11,17.43,7.49,17.91,7.39,18.33Zm5.41-4.27a17.29,17.29,0,0,0-.09,2,3.86,3.86,0,0,1-2.28,1.42,8.93,8.93,0,0,1-1.4.12,3.8,3.8,0,0,1-.69-.05l-.62-.71A.76.76,0,0,0,8.14,16c-.05-.39-.55-.78-1.14-1.23a4,4,0,0,1-1.16-1.13,3.4,3.4,0,0,1,.36-2.67,6.56,6.56,0,0,0,.54-1.31,4.53,4.53,0,0,1,.57-1.29A3.35,3.35,0,0,0,8,6.68a2,2,0,0,0,1.21.67.64.64,0,0,0,.2,0,6.35,6.35,0,0,0,1.16-.59,5.65,5.65,0,0,1,1-.5,27.69,27.69,0,0,1,2.17,5.38,6,6,0,0,1-.08,2.06l-.21,0C13,13.65,12.84,13.91,12.8,14.06Zm4.75,2.8a5.58,5.58,0,0,1-.79.44,7.35,7.35,0,0,0-1.58,1A2.12,2.12,0,0,1,14,19h-.1c-.31-.1-.58-.56-.44-1.21a10.18,10.18,0,0,0,.3-2.11l0-.38a3.48,3.48,0,0,1,0-.7h0a1.18,1.18,0,0,0,.56,1.13,1.26,1.26,0,0,0,.49.09A2,2,0,0,0,16,15.36a2.34,2.34,0,0,0,.32-.42.41.41,0,0,1,0,.2A1.4,1.4,0,0,0,17,16.41l.06,0c.15.08.55.29.55.39S17.57,16.84,17.55,16.86Z"/>
</svg>
