<?xml version="1.0" encoding="utf-8"?>
<!-- Generator: Adobe Illustrator 23.0.6, SVG Export Plug-In . SVG Version: 6.00 Build 0)  -->
<svg version="1.1" id="Слой_1" xmlns="http://www.w3.org/2000/svg" xmlns:xlink="http://www.w3.org/1999/xlink" x="0px" y="0px"
	 viewBox="0 0 20 20" style="enable-background:new 0 0 20 20;" xml:space="preserve">
<style type="text/css">
	.st0{fill:#DD4814;}
	.st1{fill:#FFFFFF;}
</style>
<circle class="st0" cx="10" cy="10" r="10"/>
<g id="U">
	<circle class="st1" cx="3.2" cy="10" r="1.3"/>
	<path class="st1" d="M6.8,14.8c-1.2-0.8-2-2-2.4-3.4c0.4-0.3,0.7-0.9,0.7-1.5S4.8,8.9,4.4,8.5C4.7,7.1,5.6,6,6.8,5.2l1,1.6
		c-1,0.7-1.7,1.9-1.7,3.2s0.7,2.5,1.7,3.2L6.8,14.8z"/>
</g>
<g transform="rotate(120)">
	<g>
		<circle class="st1" cx="13.4" cy="4.1" r="1.3"/>
		<path class="st1" d="M7.4,4.8c1.3-0.6,2.7-0.8,4.1-0.4c0.1,0.5,0.4,1,0.9,1.3C13,6,13.6,6.1,14.1,5.9c1,1,1.6,2.4,1.7,3.8l-1.9,0
			c-0.1-1.2-0.8-2.4-1.9-3S9.5,5.9,8.4,6.5L7.4,4.8z"/>
	</g>
</g>
<g transform="rotate(240)">
	<g>
		<circle class="st1" cx="13.4" cy="15.9" r="1.3"/>
		<path class="st1" d="M15.8,10.4c-0.1,1.4-0.7,2.8-1.7,3.8c-0.5-0.2-1.1-0.2-1.6,0.1c-0.5,0.3-0.8,0.8-0.9,1.3
			c-1.4,0.4-2.9,0.2-4.1-0.4l0.9-1.7c1.1,0.5,2.4,0.5,3.6-0.2c1.1-0.7,1.8-1.8,1.9-3L15.8,10.4z"/>
	</g>
</g>
</svg>
