<svg version="1.1" id="Слой_1" xmlns="http://www.w3.org/2000/svg" xmlns:xlink="http://www.w3.org/1999/xlink" x="0px" y="0px"
	 viewBox="0 0 108 83" style="enable-background:new 0 0 108 83;" xml:space="preserve">
<style type="text/css">
	.st0{fill:#214288;}
	.st1{fill:#FFFFFF;}
</style>
<g>
	<g>
		<polygon class="st0" points="58.5,8 67.8,16.8 67.8,29.4 62.8,29.4 62.8,18.8 55,11.4 		"/>
		<rect x="69.4" y="0" class="st0" width="5" height="22.9"/>
		<polygon class="st0" points="76.1,29.2 76.1,16.7 85.3,7.8 88.8,11.3 81,18.7 81,29.2 		"/>
		<g>
			<polygon class="st0" points="26.2,53.2 26.2,36.1 36.5,36.1 36.5,40.2 31,40.2 31,42.7 35.9,42.6 35.9,46.5 31,46.5 31,49.2 
				36.5,49.2 36.5,53.2 			"/>
			<path class="st0" d="M18.6,36.1h-0.6l-6.6,0v17.2h4.7l0-5.6h1.8l0.6,0c4.9,0,6.2-3.5,6.2-5.8C24.8,39.6,23.5,36.1,18.6,36.1z
				 M18.4,43.8c-0.1,0-0.2,0-0.3,0h-0.5h-1.4l0-3.9h1.3c0.2,0,0.4,0,0.5,0c1.6,0.1,1.8,1.2,1.8,2C19.9,42.3,19.9,43.4,18.4,43.8z"/>
			<g>
				<path class="st0" d="M66.7,52.5c-1.5,1.1-3.1,1.3-4.6,1.3c-4.8,0-8.7-3.3-8.7-9.1c0-6,4.3-9.1,8.7-9.1c1.5,0,3.2,0.4,4.6,1.4
					l0,5c-0.6-0.7-2-2.1-4-2.1c-2.8,0-4.3,2.2-4.3,4.9c0,3,2,4.7,4.3,4.7c1.7,0,3.1-0.9,4-1.9V52.5z"/>
				<path class="st0" d="M82.3,47.3c0-3.5-2.3-6.4-7-6.4c-4.7,0-7,2.9-7,6.4c0,3.6,2.4,6.3,7,6.3C80,53.7,82.3,50.8,82.3,47.3
					 M77.9,47.3c0,0.5,0,3.3-2.6,3.3c-2.6,0-2.6-2.8-2.6-3.3c0-1.9,0.9-3.3,2.6-3.3C77,44,77.9,45.4,77.9,47.3"/>
				<path class="st0" d="M48.9,47.2c2.7-1,3.5-3.5,3.5-5.3c0-2.2-1.2-5.5-5.7-5.8c-0.3,0-0.5,0-0.6,0h-7v17.2h4.7l0-5.6h0l1.7,2.7
					l1.9,2.9h5.7L48.9,47.2z M45.9,43.8c-0.1,0-0.2,0-0.3,0.1l-0.5,0h-1.4v-4h1.4c0.2,0,0.4,0,0.5,0c1.6,0.1,1.8,1.2,1.8,2
					C47.4,42.3,47.4,43.4,45.9,43.8z"/>
			</g>
		</g>
	</g>
	<path class="st0" d="M89.7,28.9c9.9-0.2,16.3,2.1,16.3,6.8c0,5.6-8.8,13.4-22.2,20.7v2C98.3,50.7,108,42.2,108,36
		C108,31,100.9,28.6,89.7,28.9z"/>
</g>
<path class="st1" d="M18.9,75.6C8.1,75.9,1.3,73.6,1.3,68.7c0-2.7,2.2-5.8,5.9-9.3C2.7,63.5,0,67,0,70c0,5.3,7.4,7.8,18.9,7.5V75.6z
	"/>
<path class="st1" d="M86,55.3c-0.7,0.4-1.4,0.8-2.2,1.2v2c2-1.1,3.9-2.2,5.7-3.2H86z"/>
<g>
	<g>
		<path class="st1" d="M22.7,69.6c0.2-1.6,0.9-3.2,1.8-4.2c1.4-1.4,3.2-1.8,4.7-1.8c2.3,0,3.9,0.7,4.9,1.7c0.8,0.8,1.4,2,1.4,3.8
			c0,0.9-0.2,1.7-0.8,2.5c-0.4,0.6-0.9,0.9-1.4,1.2c0.8,0.3,1.6,0.8,2.1,1.5c0.6,0.8,0.9,1.9,0.9,2.9c0,1.4-0.6,3.1-1.9,4.3
			c-1.6,1.5-3.4,1.6-4.9,1.6c-1.8,0-3.8-0.3-5.5-1.9c-1.1-1.1-1.9-2.7-2.1-4.6h4.3c0.1,0.7,0.4,1.6,0.9,2.1c0.4,0.4,1.2,0.8,2.1,0.8
			c0.7,0,1.4-0.2,1.9-0.6c0.4-0.4,0.8-1.1,0.8-1.9c0-0.8-0.4-1.4-0.8-1.8c-0.7-0.5-1.7-0.6-2.3-0.6h-0.3v-3h0.3c0.3,0,1.3,0,1.9-0.5
			c0.4-0.3,0.7-0.9,0.7-1.7c0-0.6-0.3-1.2-0.6-1.5c-0.3-0.3-0.9-0.6-1.6-0.6c-0.7,0-1.3,0.3-1.7,0.6c-0.4,0.4-0.6,1.1-0.7,1.7H22.7z
			"/>
	</g>
</g>
<g>
	<g>
		<path class="st1" d="M48.7,76.8c-1,0.9-2.4,1.7-4.5,1.7c-2,0-3.4-0.7-4.4-1.7c-1.6-1.6-2.4-4.1-2.4-7c0-2.9,0.8-5.4,2.4-7
			c1-1,2.4-1.7,4.4-1.7c2,0,3.5,0.8,4.5,1.7c1.6,1.6,2.4,4.1,2.4,7C51.1,72.7,50.3,75.2,48.7,76.8z M42.7,65
			c-1.2,1.2-1.4,3.6-1.4,4.8c0,1.3,0.2,3.6,1.4,4.8c0.4,0.4,0.9,0.6,1.5,0.6c0.7,0,1.1-0.2,1.5-0.6c1.2-1.1,1.4-3.5,1.4-4.8
			c0-1.2-0.2-3.6-1.4-4.8c-0.4-0.4-0.9-0.6-1.5-0.6C43.6,64.4,43.1,64.6,42.7,65z"/>
	</g>
</g>
<g>
	<g>
		<path class="st1" d="M56.4,70.6l-2.7-3.2l1.9-0.7l1.6,2l1.2-3.1l1.8-0.7l-3.4,8.7l-1.8,0.7L56.4,70.6z"/>
		<path class="st1" d="M66.1,65.2l-3.7,1.4c0,0.3,0.2,0.6,0.4,0.7c0.3,0.2,0.6,0.1,0.9,0c0.2-0.1,0.5-0.2,0.6-0.4
			c0,0,0.2-0.2,0.3-0.5l1.5-0.4c-0.2,0.8-0.6,1.3-0.9,1.6c-0.5,0.5-1,0.7-1.5,1c-0.7,0.3-1.4,0.4-2,0.1c-0.5-0.2-0.8-0.7-0.9-1.5
			c-0.1-0.7,0.1-1.5,0.6-2.2c0.6-0.8,1.3-1.2,1.9-1.4c0.6-0.2,1.4-0.4,2-0.1c0.6,0.4,0.8,1.1,0.9,1.6L66.1,65.2z M64.6,64.9
			c0,0-0.1-0.3-0.4-0.4c-0.2-0.1-0.5-0.1-0.8,0c-0.4,0.2-0.6,0.4-0.8,0.6c-0.1,0.2-0.2,0.4-0.2,0.6L64.6,64.9z"/>
		<path class="st1" d="M70.7,60.7l1.6-0.6l0.4,4.7l-1.6,0.6l0-0.6c-0.4,0.8-1,1.1-1.4,1.3c-0.7,0.3-1.3,0.3-1.9,0
			c-0.6-0.3-0.8-0.9-0.9-1.5c-0.1-0.8,0.2-1.6,0.6-2.2c0.4-0.6,1-1.1,1.7-1.3c0.4-0.2,1.1-0.3,1.6,0.1L70.7,60.7z M68.8,63
			c-0.2,0.2-0.3,0.6-0.3,1c0,0.4,0.3,0.6,0.4,0.7c0.2,0.1,0.6,0.1,1,0c0.3-0.1,0.6-0.4,0.8-0.7c0.2-0.3,0.3-0.6,0.3-1
			c0-0.3-0.2-0.6-0.4-0.7c-0.3-0.1-0.6-0.1-0.9,0C69.3,62.5,69,62.7,68.8,63z"/>
		<path class="st1" d="M73.6,59.6l1.6-0.6l0.1,0.7c0.1-0.3,0.3-0.7,0.6-0.9c0.3-0.3,0.5-0.4,0.8-0.5c0.2-0.1,0.3-0.1,0.5-0.1l0,1.5
			c-0.2,0-0.5,0-0.7,0.1c-0.3,0.1-0.6,0.4-0.8,0.6c-0.3,0.5-0.3,1-0.3,1.4l0.2,1.9L74,64.3L73.6,59.6z"/>
		<path class="st1" d="M81,58c-0.3,0-0.6,0-0.9,0.1c-0.2,0.1-0.4,0.2-0.4,0.3c-0.1,0.1-0.1,0.2-0.1,0.3c0,0.1,0.1,0.1,0.2,0.2
			c0.1,0,0.3,0,0.5,0l0.4,0c0.3,0,0.6,0,0.9,0.1c0.3,0.1,0.4,0.4,0.5,0.7c0.1,0.6-0.2,1.1-0.4,1.4c-0.5,0.7-1,1-1.6,1.2
			c-0.7,0.3-1.4,0.4-2.1,0.1l0.6-1.3c0.2,0.1,0.4,0.1,0.6,0.1c0.2,0,0.5,0,0.7-0.1c0.1,0,0.4-0.1,0.5-0.3c0.1-0.1,0.2-0.3,0.1-0.4
			c0-0.1,0-0.2-0.2-0.2c-0.1,0-0.3,0-0.5,0l-0.4,0c-0.3,0-0.6,0-0.8-0.1c-0.3-0.1-0.4-0.4-0.4-0.7c0-0.5,0.1-0.9,0.4-1.3
			c0.4-0.6,1-0.9,1.5-1.1c0.7-0.3,1.3-0.3,1.7-0.2L81,58z"/>
	</g>
</g>
</svg>
