<svg version="1.1" id="Слой_1" xmlns="http://www.w3.org/2000/svg" xmlns:xlink="http://www.w3.org/1999/xlink" x="0px" y="0px"
	 viewBox="0 0 108 83" style="enable-background:new 0 0 108 83;" xml:space="preserve">
<style type="text/css">
	.st0{fill:#204289;}
	.st1{fill:#FFFFFF;}
</style>
<g>
<path class="st0" d="M58.6,8l9.3,8.8l0,12.6l-5,0V18.8l-7.8-7.4L58.6,8z M69.4,22.9h5V0l-5,0V22.9z M81,29.3V18.7l7.8-7.4l-3.5-3.4
	l-9.2,8.8l0,12.6L81,29.3z M36.5,53.3v-4.1H31v-2.7l4.9,0v-3.8l-4.9,0v-2.4h5.5v-4.1H26.2v17.2H36.5z M24.9,41.9
	c0,2.3-1.3,5.8-6.2,5.8l-0.6,0h-1.8l0,5.6h-4.7V36.1l6.6,0h0.6C23.6,36.1,24.9,39.6,24.9,41.9z M19.9,41.9c0-0.8-0.2-1.8-1.8-2
	c-0.1,0-0.3,0-0.5,0h-1.3l0,3.9h1.4h0.5c0.1,0,0.2,0,0.3,0C19.9,43.5,19.9,42.3,19.9,41.9z M66.7,47.6c-0.9,0.9-2.3,1.9-4,1.9
	c-2.4,0-4.3-1.6-4.3-4.7c0-2.7,1.6-4.9,4.3-4.9c2,0,3.4,1.3,4,2.1l0-5c-1.4-1-3.1-1.4-4.6-1.4c-4.4,0-8.7,3.1-8.7,9.1
	c0,5.8,3.9,9.1,8.7,9.1c1.5,0,3.1-0.2,4.6-1.3V47.6z M82.4,47.3c0,3.5-2.3,6.4-7,6.4c-4.7,0-7-2.7-7-6.3c0-3.5,2.3-6.4,7-6.4
	C80.1,41,82.4,43.8,82.4,47.3 M77.9,47.4c0-1.9-0.9-3.3-2.6-3.3c-1.8,0-2.6,1.4-2.6,3.3c0,0.5,0,3.3,2.6,3.3
	C77.9,50.6,77.9,47.8,77.9,47.4 M53.1,53.3h-5.7l-1.9-2.9l-1.7-2.7h0l0,5.6H39V36.1h7.1c0.1,0,0.3,0,0.6,0c4.5,0.3,5.7,3.6,5.7,5.8
	c0,1.8-0.8,4.3-3.5,5.3L53.1,53.3z M47.4,41.9c0-0.7-0.2-1.8-1.8-2c-0.1,0-0.3,0-0.5,0h-1.4v4h1.4l0.5,0c0.1,0,0.2,0,0.3-0.1
	C47.4,43.5,47.4,42.3,47.4,41.9z M89.8,28.9c9.9-0.2,16.3,2.1,16.3,6.8c0,6.6-12.4,16.4-30,24.7v2c18.8-8.7,32-19.1,32-26.3
	C108,31,101,28.7,89.8,28.9z M18.9,75.6C8.1,75.9,1.3,73.7,1.3,68.8c0-2.7,2.2-5.8,6-9.3C2.7,63.5,0,67.1,0,70.1
	c0,5.3,7.4,7.8,18.9,7.5V75.6z M26.8,69.6c0-0.6,0.3-1.3,0.7-1.7c0.4-0.4,1-0.6,1.7-0.6c0.7,0,1.3,0.3,1.6,0.6
	c0.4,0.3,0.6,0.9,0.6,1.5c0,0.8-0.3,1.3-0.7,1.7c-0.6,0.5-1.6,0.5-1.9,0.5h-0.3v3h0.3c0.6,0,1.6,0.1,2.3,0.6c0.4,0.4,0.8,1,0.8,1.8
	c0,0.8-0.3,1.5-0.8,1.9c-0.4,0.4-1.1,0.6-1.9,0.6c-0.9,0-1.6-0.3-2.1-0.8c-0.5-0.5-0.8-1.4-0.9-2.1h-4.3c0.2,1.9,1,3.5,2.1,4.6
	c1.7,1.7,3.6,1.9,5.5,1.9c1.5,0,3.3-0.2,4.9-1.6c1.3-1.2,1.9-2.8,1.9-4.3c0-1-0.3-2.2-0.9-2.9c-0.5-0.7-1.3-1.2-2.1-1.5
	c0.5-0.3,1-0.6,1.4-1.2c0.6-0.8,0.8-1.6,0.8-2.5c0-1.8-0.6-3.1-1.4-3.8c-1-1-2.6-1.7-4.9-1.7c-1.5,0-3.4,0.3-4.7,1.8
	c-1,1-1.7,2.7-1.8,4.2H26.8z M51.1,69.9c0-2.9-0.8-5.4-2.4-7c-1-0.9-2.4-1.7-4.5-1.7c-2,0-3.4,0.7-4.4,1.7c-1.6,1.6-2.4,4.1-2.4,7
	c0,2.9,0.8,5.4,2.4,7c1,1,2.4,1.7,4.4,1.7c2.1,0,3.5-0.8,4.5-1.7C50.3,75.2,51.1,72.7,51.1,69.9z M44.2,64.4c0.7,0,1.1,0.2,1.6,0.6
	c1.2,1.2,1.4,3.6,1.4,4.8c0,1.3-0.2,3.6-1.4,4.8c-0.4,0.4-0.9,0.6-1.6,0.6c-0.6,0-1.1-0.2-1.5-0.6c-1.2-1.2-1.4-3.5-1.4-4.8
	c0-1.2,0.2-3.6,1.4-4.8C43.1,64.6,43.6,64.4,44.2,64.4z M60.2,65.1l-4.9,1.8l0.2,2.9c0,0.6-0.1,0.8-0.2,0.9
	c-0.2,0.3-0.6,0.4-0.8,0.5l0.1,1.3c0.2,0,0.4-0.1,0.7-0.2c0.5-0.2,1-0.4,1.5-1.1c0.2-0.4,0.5-1,0.4-2l-0.1-1.6l1.4-0.5l0.3,3.8
	l1.8-0.7L60.2,65.1z M67.4,65.2c0-0.6-0.2-1.4-0.9-1.8c-0.7-0.4-1.6-0.2-2.2,0c-0.6,0.2-1.4,0.6-2,1.5c-0.5,0.7-0.7,1.6-0.7,2.3
	c0.1,0.9,0.5,1.4,1,1.7c0.7,0.4,1.4,0.2,2.2-0.1c0.6-0.2,1.2-0.5,1.7-1c0.3-0.3,0.8-0.9,1-1.7l-1.7,0.5c-0.1,0.3-0.3,0.5-0.3,0.6
	c-0.2,0.2-0.4,0.3-0.7,0.4c-0.3,0.1-0.6,0.2-0.9,0c-0.2-0.1-0.4-0.5-0.4-0.8l4.1-1.5L67.4,65.2z M63.3,65.9c0-0.2,0.1-0.5,0.3-0.7
	c0.2-0.2,0.4-0.5,0.9-0.7c0.4-0.1,0.6-0.1,0.9,0c0.3,0.1,0.4,0.4,0.4,0.5L63.3,65.9z M72.5,61.9l-0.1-1.3l-4.7,1.7l0.1,1.3l1.5-0.5
	l0.3,3.8l1.8-0.7L71,62.5L72.5,61.9z"/>
</g>
<g>
	<path class="st1" d="M33.4,72.8c0.5-0.3,1-0.6,1.4-1.2c0.6-0.8,0.8-1.6,0.8-2.5c0-1.8-0.6-3.1-1.4-3.8c-1-1-2.6-1.7-4.9-1.7
		c-1.5,0-3.4,0.3-4.7,1.8c-1,1-1.7,2.7-1.8,4.2h4.1c0-0.6,0.3-1.3,0.7-1.7c0.4-0.4,1-0.6,1.7-0.6c0.7,0,1.3,0.3,1.6,0.6
		c0.4,0.3,0.6,0.9,0.6,1.5c0,0.8-0.3,1.3-0.7,1.7c-0.6,0.5-1.6,0.5-1.9,0.5h-0.3v3h0.3c0.6,0,1.6,0.1,2.3,0.6c0.4,0.4,0.8,1,0.8,1.8
		c0,0.8-0.3,1.5-0.8,1.9c-0.4,0.4-1.1,0.6-1.9,0.6c-0.9,0-1.6-0.3-2.1-0.8c-0.5-0.5-0.8-1.4-0.9-2.1h-4.3c0.2,1.9,1,3.5,2.1,4.6
		c1.7,1.7,3.6,1.9,5.5,1.9c1.5,0,3.3-0.2,4.9-1.6c1.3-1.2,1.9-2.8,1.9-4.3c0-1-0.3-2.2-0.9-2.9C35,73.6,34.2,73.1,33.4,72.8z"/>
	<path class="st1" d="M1.3,68.8c0-2.7,2.2-5.8,6-9.3C2.7,63.5,0,67.1,0,70.1c0,5.3,7.4,7.8,18.9,7.5v-1.9
		C8.1,75.9,1.3,73.7,1.3,68.8z"/>
	<path class="st1" d="M86,55.3c-3.1,1.8-6.4,3.5-10,5.2v2c4.9-2.3,9.5-4.7,13.5-7.1H86z"/>
	<polygon class="st1" points="72.4,60.6 67.7,62.3 67.8,63.7 69.3,63.1 69.5,66.9 71.3,66.3 71,62.5 72.5,61.9 	"/>
	<path class="st1" d="M44.2,61.1c-2,0-3.4,0.7-4.4,1.7c-1.6,1.6-2.4,4.1-2.4,7c0,2.9,0.8,5.4,2.4,7c1,1,2.4,1.7,4.4,1.7
		c2.1,0,3.5-0.8,4.5-1.7c1.6-1.6,2.4-4.1,2.4-7c0-2.9-0.8-5.4-2.4-7C47.7,61.9,46.3,61.1,44.2,61.1z M45.8,74.6
		c-0.4,0.4-0.9,0.6-1.6,0.6c-0.6,0-1.1-0.2-1.5-0.6c-1.2-1.2-1.4-3.5-1.4-4.8c0-1.2,0.2-3.6,1.4-4.8c0.4-0.4,0.9-0.6,1.5-0.6
		c0.7,0,1.1,0.2,1.6,0.6c1.2,1.2,1.4,3.6,1.4,4.8C47.2,71.1,47,73.5,45.8,74.6z"/>
	<path class="st1" d="M67.4,65.2c0-0.6-0.2-1.4-0.9-1.8c-0.7-0.4-1.6-0.2-2.2,0c-0.6,0.2-1.4,0.6-2,1.5c-0.5,0.7-0.7,1.6-0.7,2.3
		c0.1,0.9,0.5,1.4,1,1.7c0.7,0.4,1.4,0.2,2.2-0.1c0.6-0.2,1.2-0.5,1.7-1c0.3-0.3,0.8-0.9,1-1.7l-1.7,0.5c-0.1,0.3-0.3,0.5-0.3,0.6
		c-0.2,0.2-0.4,0.3-0.7,0.4c-0.3,0.1-0.6,0.2-0.9,0c-0.2-0.1-0.4-0.5-0.4-0.8l4.1-1.5L67.4,65.2z M63.3,65.9c0-0.2,0.1-0.5,0.3-0.7
		c0.2-0.2,0.4-0.5,0.9-0.7c0.4-0.1,0.6-0.1,0.9,0c0.3,0.1,0.4,0.4,0.4,0.5L63.3,65.9z"/>
	<path class="st1" d="M55.4,66.9l0.2,2.9c0,0.6-0.1,0.8-0.2,0.9c-0.2,0.3-0.6,0.4-0.8,0.5l0.1,1.3c0.2,0,0.4-0.1,0.7-0.2
		c0.5-0.2,1-0.4,1.5-1.1c0.2-0.4,0.5-1,0.4-2l-0.1-1.6l1.4-0.5l0.3,3.8l1.8-0.7l-0.4-5.2L55.4,66.9z"/>
</g>
</svg>
