<svg id="Слой_1" xmlns="http://www.w3.org/2000/svg" xmlns:xlink="http://www.w3.org/1999/xlink" x="0" y="0" viewBox="0 0 90 50" enable-background="new 0 0 90 50">
 <defs>
  <linearGradient id="SVGID_21_" gradientUnits="userSpaceOnUse" x1="79.955" y1="15.876" x2="80.8" y2="14.411" xlink:href="#SVGID_1_"/>
  <linearGradient id="SVGID_14_" gradientUnits="userSpaceOnUse" x1="77.97" y1="42.43" x2="83.38" y2="33.07" xlink:href="#SVGID_4_"/>
  <linearGradient id="SVGID_12_" gradientUnits="userSpaceOnUse" x1="35.38" y1="11.796" x2="36.552" y2="9.767" xlink:href="#SVGID_1_"/>
  <linearGradient id="SVGID_13_" gradientUnits="userSpaceOnUse" x1="39.1" y1="15.263" x2="40.28" y2="13.227" xlink:href="#SVGID_1_"/>
  <linearGradient id="SVGID_15_" gradientUnits="userSpaceOnUse" x1="47.09" y1="40.82" x2="71.987" y2="-2.298" xlink:href="#SVGID_4_"/>
  <linearGradient id="SVGID_20_" gradientUnits="userSpaceOnUse" x1="76.05" y1="20.309" x2="78.49" y2="16.09" xlink:href="#SVGID_1_"/>
  <linearGradient id="SVGID_16_" gradientUnits="userSpaceOnUse" x1="72.41" y1="30.351" x2="74.06" y2="27.478" xlink:href="#SVGID_1_"/>
  <linearGradient id="SVGID_19_" gradientUnits="userSpaceOnUse" x1="78.58" y1="21.84" x2="79.31" y2="20.563" xlink:href="#SVGID_1_"/>
  <linearGradient id="SVGID_17_" gradientUnits="userSpaceOnUse" x1="75.04" y1="30.58" x2="76.16" y2="28.643" xlink:href="#SVGID_1_"/>
  <linearGradient id="SVGID_18_" gradientUnits="userSpaceOnUse" x1="80.09" y1="31.951" x2="81.59" y2="29.342" xlink:href="#SVGID_1_"/>
  <linearGradient id="SVGID_11_" gradientUnits="userSpaceOnUse" x1="43.82" y1="19.477" x2="44.22" y2="18.791" xlink:href="#SVGID_1_"/>
  <linearGradient id="SVGID_10_" gradientUnits="userSpaceOnUse" x1="26.744" y1="11.389" x2="32.844" y2=".823" xlink:href="#SVGID_4_"/>
  <linearGradient id="SVGID_3_" gradientUnits="userSpaceOnUse" x1="56.35" y1="17.567" x2="56.856" y2="16.686" xlink:href="#SVGID_1_"/>
  <linearGradient id="SVGID_1_" gradientUnits="userSpaceOnUse" x1="48.804" y1="18.863" x2="50.28" y2="16.317">
   <stop offset=".321" stop-color="#253975"/>
   <stop offset=".333" stop-color="#243d7b"/>
   <stop offset=".401" stop-color="#205196"/>
   <stop offset=".46" stop-color="#1e5da7"/>
   <stop offset=".505" stop-color="#1d61ad"/>
   <stop offset=".647" stop-color="#306fb6"/>
   <stop offset=".866" stop-color="#4980c1"/>
   <stop offset="1" stop-color="#5286c5"/>
  </linearGradient>
  <linearGradient id="SVGID_2_" gradientUnits="userSpaceOnUse" x1="53.797" y1="19.1" x2="55.08" y2="16.876" xlink:href="#SVGID_1_"/>
  <linearGradient id="SVGID_4_" gradientUnits="userSpaceOnUse" x1="5.904" y1="40.495" x2="26.761" y2="4.373">
   <stop stop-color="#0e3e84"/>
   <stop offset="1" stop-color="#3f8ded"/>
  </linearGradient>
  <linearGradient id="SVGID_9_" gradientUnits="userSpaceOnUse" x1="37.861" y1="15.332" x2="38.55" y2="14.14" xlink:href="#SVGID_1_"/>
  <linearGradient id="SVGID_5_" gradientUnits="userSpaceOnUse" x1="20.18" y1="25.14" x2="20.829" y2="24.01" xlink:href="#SVGID_1_"/>
  <linearGradient id="SVGID_8_" gradientUnits="userSpaceOnUse" x1="53.769" y1="36.882" x2="55.608" y2="33.697" xlink:href="#SVGID_1_"/>
  <linearGradient id="SVGID_6_" gradientUnits="userSpaceOnUse" x1="23.386" y1="26.09" x2="23.91" y2="25.18" xlink:href="#SVGID_1_"/>
  <linearGradient id="SVGID_7_" gradientUnits="userSpaceOnUse" x1="21.616" y1="23.649" x2="21.964" y2="23.04" xlink:href="#SVGID_1_"/>
 </defs>
 <path fill="url(#SVGID_1_)" d="m51.43 17.697c-.321-.443-.627-.856-.948-1.271-.262-.03-.521-.063-.783-.108.031.2.077.398.108.582-.216.031-.446.062-.66.092-.215-.229-.429-.457-.629-.688-.306.414-.596.827-.903 1.24.077.261.154.505.246.765.275-.229.55-.459.842-.704.229 0 .459-.016.688-.016.0001.0001.692.031 2.039.108"/>
 <path fill="url(#SVGID_2_)" d="m55.09 19.05c-.291-.476-.583-.949-.89-1.424.169-.276.353-.552.521-.827-.107-.123-.23-.229-.367-.336-.185.168-.383.336-.583.504.138.781.261 1.562.398 2.356.321-.091.613-.182.921-.273"/>
 <path fill="url(#SVGID_3_)" d="m57 17.514c-.078-.291-.154-.582-.216-.872-.198.03-.397.062-.582.092.063.29.123.565.185.857.199-.017.397-.046.613-.077"/>
 <path fill="url(#SVGID_4_)" d="m31.961 32.451c-.307.385-.627.781-.918 1.182-.107.766-.2 1.529-.307 2.311-2.449 2.879-4.961 5.818-7.535 8.818.23.551.291 1.146.17 1.838-.354.383-.689.75-1.026 1.131.26.414.536.842.812 1.256-.261.336-.537.676-.796 1.012-.612-.842-1.226-1.699-1.822-2.525.046-1.363.138-2.725.198-4.057 0 0 .521-2.588 1.546-7.596-.506-.229-.994-.475-1.471-.719-.459-1.453-.918-2.895-1.347-4.285.244-.383.505-.734.75-1.104.029-.396.046-.813.076-1.209-.521.029-1.042.029-1.563.061-.215-.49-.397-.949-.582-1.424-.291.061-.582.092-.888.152-.98-.598-1.977-1.164-2.956-1.746-.276-.413-.567-.827-.843-1.241-.413.016-.812.032-1.194.046-.935-1.469-1.838-2.894-2.726-4.301.123-.719.244-1.44.367-2.145-.274-.505-.566-1.01-.857-1.515-.229.076-.49.152-.735.229-.138-.353-.261-.688-.398-1.026.215.016.414.046.612.061-.43-.521-.873-1.025-1.302-1.546-.674-.077-1.316-.152-1.975-.229-1.745.873-3.506 1.76-5.251 2.647.657-.597 1.332-1.192 1.99-1.774-.337-.308-.688-.599-1.042-.89.016-1.117.031-2.205.047-3.307.72-.353 1.424-.705 2.129-1.057 3.107.169 6.232.353 9.401.535-.551-.396-1.117-.779-1.667-1.179.214-.55.397-1.101.598-1.653 3.293-1.301 6.554-2.603 9.784-3.889 1.226 0 2.45 0 3.66-.015-1.147 1.209-2.313 2.419-3.492 3.644 1.409 1.072 2.849 2.159 4.305 3.261-.505.521-1.012 1.025-1.517 1.546-.889-.106-1.775-.229-2.665-.352.14-.536.276-1.072.414-1.608-.307.016-.611.016-.949.031-.139.383-.307.75-.443 1.117.076.322.138.643.214.965-.659-.031-1.348-.062-2.02-.092-.383.475-.78.964-1.163 1.454.229.185.474.369.704.566.475.122.949.245 1.424.368.414.49.843.98 1.256 1.484.185-.521.398-1.04.598-1.562-.092-.106-.184-.214-.274-.321.029-.505.046-.996.091-1.501 1.072.124 2.129.246 3.201.368.826.979 1.667 1.989 2.526 3-1.271.75-2.558 1.515-3.844 2.267-.03.382-.03.78-.062 1.163-.214-.032-.429-.062-.643-.077-.23.23-.443.459-.674.688.03.274.061.566.092.856-.551.444-1.087.919-1.623 1.377.107.475.229.95.354 1.44-.261 0-.521.015-.782.03-.185-.337-.383-.657-.582-.979-.782.031-1.577.061-2.358.077-.353.565-.705 1.133-1.042 1.714.276.29.552.582.827.872.137-.013.29-.013.414-.013.306-.2.613-.384.919-.567.167.104.336.198.536.306-.107.429-.214.859-.306 1.287.291.031.566.045.857.076.046.475.076.936.123 1.408.536-.031 1.072-.047 1.592-.047.537-.26 1.072-.504 1.609-.75.368.139.72.277 1.071.414.72 0 1.409 0 2.098.016.031.475.078.98.092 1.455.582-.016 1.164-.033 1.745-.047.062.564.107 1.146.153 1.729.397-.014.797-.029 1.179-.029 1.026.689 2.068 1.408 3.108 2.111"/>
 <path fill="url(#SVGID_5_)" d="m21.52 24.419c-.092.229-.184.458-.261.688-.567-.092-1.117-.198-1.685-.307.077-.291.153-.582.229-.857.568.155 1.135.308 1.717.476"/>
 <path fill="url(#SVGID_6_)" d="m25.345 26.01c-.199.076-.383.168-.582.244-.919-.322-1.822-.629-2.741-.951.077-.182.153-.396.229-.581 1.026.428 2.053.86 3.094 1.288"/>
 <path fill="url(#SVGID_7_)" d="m22.21 23.913c-.291-.14-.582-.292-.858-.43.016-.26.031-.521.046-.78.276.397.536.811.812 1.21"/>
 <path fill="url(#SVGID_8_)" d="m55.64 33.73c-.229 1.252-.476 2.525-.706 3.826-.564-.398-1.163-.781-1.745-1.164.106-.58.215-1.148.308-1.715.489-.459.979-.902 1.47-1.348.227.126.441.263.673.401"/>
 <path fill="url(#SVGID_9_)" d="m38.855 14.772c-.197.261-.414.506-.628.767-.26-.215-.521-.413-.779-.612.184-.368.383-.719.597-1.087.261.306.535.628.81.932"/>
 <path fill="url(#SVGID_10_)" d="m37.05 3.521c-.382.337-.781.673-1.179 1.01-.062.797-.124 1.593-.199 2.403-.613.935-1.227 1.868-1.854 2.817-.995.352-2.01.688-3.02 1.025-.261.582-.506 1.164-.781 1.761-.445-.017-.903-.03-1.363-.046-.49-.75-.98-1.5-1.471-2.25-.184-.996-.352-1.99-.521-2.971-.398-.275-.797-.552-1.195-.827-.443.153-.888.307-1.348.459-.214-.275-.429-.551-.644-.842.767-.873 1.547-1.746 2.313-2.618 2.985-.489 6-.996 9.02-1.484.752.521 1.488 1.042 2.239 1.563"/>
 <path fill="url(#SVGID_11_)" d="m44.21 19.535c-.246-.078-.476-.154-.706-.23.124-.23.261-.459.383-.688.107.305.215.61.323.918"/>
 <path fill="url(#SVGID_12_)" d="m37.628 10.607c-.614.459-1.24.934-1.884 1.394-.383-.521-.766-1.057-1.148-1.591.689-.2 1.394-.384 2.083-.582.322.243.627.504.949.779"/>
 <path fill="url(#SVGID_13_)" d="m40.767 14.36c-.015.291-.046.581-.061.89-.521.015-1.01.045-1.517.061.137-.307.275-.613.413-.904-.336-.336-.688-.657-1.026-.979.245-.26.49-.505.735-.765.153.336.308.673.476 1.01.321.227.658.458.98.687"/>
 <path fill="url(#SVGID_14_)" d="m86.86 37.535c-.398 1.5-.78 3.02-1.18 4.549-.644-.063-1.303-.107-1.945-.154-1.423-.934-2.833-1.852-4.241-2.77.016.244.016.475.031.703-1.394.354-2.771.705-4.166 1.059.046-.66.078-1.303.123-1.961-.337-.121-.674-.244-1.01-.383-.138-.779-.306-1.561-.444-2.342 1.595-1.285 3.187-2.559 4.793-3.826.98.551 1.96 1.102 2.956 1.652-.062-.49-.139-.979-.215-1.453.245-.061.506-.107.752-.154 1.5 1.668 3 3.35 4.547 5.08"/>
 <path fill="url(#SVGID_15_)" d="m85.81 10.151c-1.055.153-2.111.291-3.182.444.149.353.272.72.41 1.087-.46.797-.904 1.623-1.349 2.45-.32-.72-.643-1.44-.947-2.159.259-.444.505-.888.75-1.332-1.227.168-2.42.322-3.631.49-.641.382-1.285.765-1.942 1.147-.031.307-.047.598-.062.903.476-.138.98-.276 1.453-.414.215.689.414 1.378.611 2.067-.351.045-.717.106-1.053.152-.048.353-.078.689-.107 1.025-.613.475-1.227.949-1.838 1.424.184.307.352.599.535.889-.412.321-.813.643-1.209.979-.277-.536-.554-1.072-.826-1.592-.275.169-.568.336-.844.506.289 1.056.598 2.127.889 3.213-1.211.828-2.437 1.654-3.646 2.496.443.505.919 1.01 1.38 1.532-.537.383-1.091.75-1.625 1.133-.339-.457-.677-.934-.996-1.395-.123.046-.23.077-.367.122.229.522.445 1.042.674 1.577.551.32 1.102.629 1.668.936-.154.184-.291.352-.43.537-.338-.094-.688-.17-1.027-.246.123.246.26.49.383.732.291.033.584.063.873.107.26.49.535.996.797 1.5.812.275 1.623.568 2.449.844.092.26.187.535.275.779-.918-.137-1.838-.275-2.74-.412-1.471-1.348-2.908-2.664-4.336-3.965.492.014.981.045 1.486.061-.966-1.502-1.898-2.972-2.832-4.425-.078-.398-.14-.796-.199-1.194-.185 0-.383.016-.566.016-.033.368-.063.72-.092 1.087-.584.535-1.18 1.071-1.762 1.606.061.489.153.965.215 1.455-.506.168-1.012.336-1.519.504-.459-.918-.918-1.82-1.375-2.725-.231-.061-.461-.123-.688-.184-.049-.521-.076-1.058-.107-1.577-1.932-.276-3.856-.55-5.742-.842.337.49.705.979 1.072 1.484.305-.124.613-.245.918-.367.383.337.767.674 1.164 1.01-.291.442-.596.887-.889 1.331-.813.352-1.607.688-2.42 1.024-1.025-1.637-2.035-3.261-3.02-4.852-.243.014-.461.029-.704.029 0 .308 0 .629-.017.95.676 1.117 1.365 2.269 2.053 3.431.459.32.935.627 1.396.949.688-.063 1.363-.139 2.02-.197-1.022 1.852-2.098 3.75-3.168 5.664.185.184.367.352.521.52.123.627.229 1.271.334 1.912-.334.322-.687.631-1.041.936 0 .49.016.98.016 1.471-.887 1.314-1.791 2.646-2.695 3.994-.797-.047-1.592-.094-2.372-.139-.845-2.066-1.654-4.086-2.466-6.078.185-.289.384-.611.552-.902-.015-.521-.048-1.041-.078-1.529-.611-.705-1.225-1.396-1.821-2.066.245-.186.459-.354.705-.537-.583-.352-1.148-.688-1.716-1.041-1.087 0-2.174 0-3.263-.016-.643-.549-1.284-1.102-1.912-1.652-.047-1.211-.124-2.403-.186-3.599 1.333-1.225 2.665-2.449 3.982-3.659.733-.092 1.484-.184 2.232-.275.186.198.383.415.583.613-.047.185-.062.383-.105.567.627.167 1.239.336 1.867.505.274-.275.565-.537.842-.813.246.185.477.367.723.551.824.016 1.683.016 2.51.032.138-.168.291-.337.431-.505-.031-.444-.078-.889-.107-1.348-.291.476-.598.935-.904 1.394-.506-.583-.993-1.148-1.502-1.729.107.597.23 1.179.353 1.76-.443-.274-.887-.551-1.33-.842-.107-.443-.199-.888-.307-1.316-.535-.552-1.058-1.104-1.576-1.653-.093.106-.185.199-.276.307.428.505.874 1.041 1.317 1.563-.244.382-.49.78-.722 1.164-.137-.444-.274-.889-.412-1.317-.459-.307-.936-.613-1.394-.919-.245.229-.49.459-.735.689-.151-.077-.32-.152-.475-.229-.813.796-1.638 1.607-2.45 2.433-.336-.811-.673-1.622-.995-2.418.598.016 1.194.031 1.776.045.106-.261.215-.521.307-.766-.229-.214-.46-.428-.688-.627.367-.307.72-.597 1.086-.888.215-.046.429-.092.643-.138.398-.367.781-.751 1.165-1.116-.106-.276-.245-.553-.368-.827.199-.093.413-.214.629-.321.152.214.319.413.49.612.719-.077 1.439-.139 2.174-.214.017-.199.033-.414.062-.613.781-.321 1.563-.627 2.326-.949-.15-.168-.306-.321-.457-.49-.49.198-.98.384-1.486.582-.151-.306-.336-.611-.488-.918.334-.274.675-.565 1.025-.856-.229-.199-.459-.397-.688-.582-.429.582-.857 1.193-1.283 1.791.166.123.367.26.549.397-.029.353-.029.704-.045 1.058-.476.152-.936.306-1.396.458-.124-.275-.245-.552-.368-.812-.505.076-.994.168-1.5.245.016-.414.031-.827.047-1.241.766-1.086 1.531-2.159 2.281-3.229.873-.229 1.76-.476 2.633-.72 1.379.229 2.758.459 4.135.688-.215.353-.414.705-.644 1.057-.534-.016-1.086-.03-1.623-.047.384.322.767.659 1.148.98.994-.689 1.992-1.378 2.971-2.067.688-.03 1.377-.061 2.068-.092-.521-.474-1.058-.949-1.563-1.424.459-.521.949-1.041 1.425-1.562.719-.321 1.407-.658 2.127-.964.139.214.274.429.414.658-.675.26-1.361.521-2.052.781-.338.414-.705.828-1.057 1.24.871.429 1.76.857 2.648 1.286-.168-.229-.336-.475-.507-.704.461-.413.921-.827 1.363-1.24.937.137 1.867.306 2.808.442.104-.26.198-.521.305-.796 1.531-.643 3.08-1.271 4.608-1.897 1.197-.275 3.738-.185 3.523.505-.275.627-1.516.934-2.269 1.393 2.619.429 5.314.506 8.03.367.353-.414-.537-1.041 1.072-1.255.871.092.582.688.904 1.041 1.301-.291 2.604-.122 3.922.138.414.153.842.307 1.256.476 1.027-.154 2.065-.322 3.092-.476.123.43 3.768.704 3.891 1.134.27.89-3.02 1.947-2.761 2.833"/>
 <path fill="url(#SVGID_16_)" d="m74.55 28.508c-.213.674-.412 1.363-.628 2.053-.673-.154-1.315-.307-1.959-.461-.061-.52-.123-1.01-.185-1.516.445-.566.872-1.117 1.304-1.666.487.52.979 1.057 1.468 1.592"/>
 <path fill="url(#SVGID_17_)" d="m76.48 28.813c-.216.596-.398 1.193-.613 1.807-.291-.031-.598-.061-.903-.094.168-.688.307-1.359.46-2.049.351.121.704.23 1.056.336"/>
 <path fill="url(#SVGID_18_)" d="m84.03 31.996c-1.897-.336-3.782-.674-5.649-1.025-.197-.643-.397-1.271-.582-1.912 1.746.383 3.507.766 5.283 1.146.32.6.628 1.195.948 1.791"/>
 <path fill="url(#SVGID_19_)" d="m80.11 21.68c-.229.215-.46.429-.705.644-.429-.751-.843-1.485-1.256-2.232.168.046.353.077.521.105.475.49.965.995 1.438 1.485"/>
 <path fill="url(#SVGID_20_)" d="m79.25 16.519c-.336.796-.643 1.608-.996 2.419-.734.443-1.484.904-2.232 1.349-.29-.277-.597-.537-.903-.798.734-.474 1.47-.948 2.222-1.423.093-.78.197-1.546.306-2.312.521.261 1.072.505 1.607.766"/>
 <path fill="url(#SVGID_21_)" d="m81.61 14.957c-.598.291-1.193.565-1.794.842-.212-.185-.427-.353-.627-.537.537-.275 1.088-.566 1.623-.841.262.183.538.368.798.536"/>
 <path fill="#fefefe" d="m50.26 9.63c-1.146-.414-1.99-.996-2.51-1.746-.539-.75-.8-1.563-.8-2.449 0-1.516.613-2.771 1.82-3.75 1.213-.996 2.941-1.485 5.178-1.485 2.205 0 3.935.489 5.146 1.485 1.225.979 1.838 2.233 1.838 3.75 0 .949-.273 1.776-.842 2.51-.566.735-1.349 1.303-2.373 1.685 1.303.459 2.281 1.117 2.955 1.99.674.872 1.01 1.883 1.01 3.02 0 1.883-.674 3.414-2.051 4.592-1.377 1.18-3.201 1.761-5.482 1.761-2.113 0-3.875-.489-5.281-1.453-1.674-1.147-2.498-2.726-2.498-4.73 0-1.103.322-2.113.935-3.03.627-.937 1.606-1.642 2.955-2.145m.934-3.907c0 .767.244 1.379.748 1.822.506.428 1.164.643 2.01.643.841 0 1.515-.214 2.02-.659.506-.442.768-1.056.768-1.82 0-.735-.26-1.317-.75-1.761-.506-.443-1.164-.658-1.992-.658-.856 0-1.528.215-2.034.658-.508.443-.769 1.04-.769 1.775m-.428 8.711c0 1.072.322 1.913.949 2.525.629.597 1.408.902 2.356.902.92 0 1.685-.29 2.281-.872.596-.581.904-1.423.904-2.524 0-.949-.31-1.729-.92-2.313-.611-.582-1.394-.873-2.326-.873-1.103 0-1.898.337-2.451.996-.518.659-.793 1.377-.793 2.159"/>
 <path fill="#b1bad1" d="m49.25 9.186c-.398-.229-.75-.475-1.025-.751.367.245.813.445 1.303.628-.092.045-.186.076-.278.123m7.764-8.383c.152.107 1.498.332 1.635.453 1.225.979 2.287 2.664 2.287 4.18 0 .949-.275 1.776-.842 2.51-.508.659-1.441 1.531-2.314 1.914-.32-.168-1.604-.483-1.863-.375 1.017-.426 2.582-1.442 3.136-2.178.565-.735.707-1.302.805-2.245.15-1.441-.404-2.681-1.375-3.452-.33-.262-1.469-.806-1.469-.807m.242 8.874c.842.046 3.08 1.501 3.418 1.944.674.873 1.012 1.884 1.012 3.02 0 1.884-.674 3.414-2.053 4.592-1.377 1.179-3.199 1.761-5.482 1.761-2.113 0-3.875-.489-5.281-1.452-.246-.17-.477-.354-.688-.537 1.408.949 3.104 1.21 5.201 1.21 2.28 0 3.688-.318 5.05-1.497 1.379-1.18 2.102-2.185 2.102-4.066 0-1.134-.323-2.357-.938-3.262-.381-.562-1.646-1.508-1.937-1.57l-.403-.139m-6.06-3.95c0 .645.547 1.75.9 2.164-.187-.092-1.17-.93-1.285-1.088-.504-.698-.889-1.412-.889-2.177 0-.735.26-1.333.768-1.776.504-.444 1.178-.658 2.035-.658.826 0 1.752.207 2.533.746.381.266.774.771.852.862-.428-.215-1.545-.506-2.113-.506-.856 0-1.53.215-2.034.659-.506.442-.767 1.039-.767 1.774m-.428 8.711c0 1.026.959 2.582 1.543 3.193-.23-.139-1.254-.672-1.855-1.555-.496-.726-.752-1.495-.752-2.566 0-.781.261-1.5.797-2.159.535-.659 1.349-.964 2.437-.995 1.959-.045 3.344 1.28 3.834 2.092-.49-.274-2.113-1.164-2.756-1.164-1.104 0-1.9.337-2.451.995-.522.659-.797 1.377-.797 2.159"/>
 <path fill="#294081" d="m49.752 9.63c-.412-.168-.779-.368-1.103-.597-.428-.307-.797-.644-1.057-1.043-.275-.382-.488-.796-.627-1.224-.142-.428-.199-.873-.199-1.332 0-.781.152-1.501.475-2.159.308-.657.781-1.239 1.408-1.744.629-.507 1.396-.89 2.281-1.148.874-.26 1.885-.383 3.02-.383 1.115 0 2.128.123 2.998.383.892.26 1.642.643 2.269 1.148.643.505 1.117 1.087 1.44 1.744.306.659.476 1.377.476 2.159 0 .49-.078.964-.23 1.394-.139.443-.367.856-.66 1.239-.291.384-.643.72-1.057 1.01-.289.198-.611.383-.949.551.476.199.904.428 1.303.688.505.337.935.735 1.285 1.18v.015c.354.444.613.935.797 1.454.168.521.261 1.087.261 1.667 0 .964-.183 1.853-.535 2.634-.354.796-.889 1.5-1.592 2.098-.707.611-1.531 1.056-2.468 1.362-.934.306-1.975.458-3.139.458-1.072 0-2.051-.138-2.953-.382-.903-.245-1.717-.627-2.436-1.117-.859-.597-1.502-1.301-1.933-2.112-.43-.813-.657-1.746-.657-2.771 0-.567.09-1.117.244-1.638.168-.521.411-1.026.733-1.5.324-.49.75-.904 1.256-1.271.386-.291.843-.537 1.349-.764m-.871-.905c.397.276.887.521 1.438.735l.49.168-.49.183c-.643.245-1.209.536-1.7.888-.476.337-.857.735-1.146 1.18-.307.443-.535.902-.689 1.394-.153.49-.229.996-.229 1.531 0 .964.213 1.837.613 2.603.397.75.993 1.41 1.807 1.959.688.476 1.455.843 2.328 1.072.856.245 1.805.368 2.848.368 1.133 0 2.129-.152 3.03-.444.887-.274 1.654-.705 2.326-1.286.658-.565 1.164-1.224 1.485-1.959.336-.734.505-1.562.505-2.479 0-.551-.093-1.056-.244-1.546-.168-.475-.398-.935-.734-1.348-.322-.43-.721-.797-1.195-1.117-.475-.322-1.038-.582-1.666-.813l-.487-.168.487-.184c.49-.199.937-.429 1.316-.689.367-.275.705-.582.965-.934.275-.354.476-.735.613-1.133.121-.397.197-.812.197-1.271 0-.72-.152-1.393-.443-1.99s-.736-1.147-1.316-1.623c-.598-.475-1.317-.827-2.145-1.07-.842-.245-1.807-.367-2.894-.367-1.104 0-2.067.123-2.926.367-.828.244-1.547.597-2.131 1.07-.58.476-1.022 1.026-1.313 1.623-.291.598-.431 1.255-.431 1.99 0 .428.063.827.185 1.225.123.384.307.751.567 1.117.242.351.564.672.979.947m2.493-3c0 .72.229 1.271.688 1.667.23.199.504.352.813.459.321.092.674.153 1.071.153.398 0 .767-.062 1.072-.168.322-.093.599-.245.826-.443.229-.214.397-.444.521-.72.107-.291.17-.612.17-.964 0-.353-.061-.644-.17-.918-.104-.261-.291-.505-.504-.705-.246-.199-.504-.352-.813-.458-.322-.092-.674-.153-1.057-.153-.414 0-.781.061-1.103.153-.307.106-.582.26-.813.475-.227.198-.409.427-.518.704-.123.261-.186.567-.186.918m.447 1.957c-.551-.474-.825-1.132-.825-1.959 0-.398.077-.75.215-1.072.137-.321.336-.597.612-.842.273-.245.597-.428.964-.536.354-.123.766-.184 1.209-.184.432 0 .813.061 1.166.184.366.107.672.29.948.521.275.245.474.521.613.842.137.321.199.673.199 1.072 0 .414-.063.78-.199 1.102-.139.337-.354.627-.629.857-.262.244-.582.414-.949.535-.352.125-.752.185-1.192.185-.445 0-.828-.062-1.195-.185-.355-.106-.66-.29-.937-.52m-.854 6.752c0 1.026.289 1.821.887 2.388.291.275.629.49.994.644.369.138.768.214 1.227.214.429 0 .826-.077 1.193-.214.354-.138.674-.336.949-.612.274-.275.49-.598.629-.996.152-.397.213-.856.213-1.393 0-.444-.059-.857-.213-1.226-.139-.351-.354-.674-.644-.948-.288-.261-.612-.476-.979-.612-.367-.138-.766-.2-1.209-.2-.521 0-.982.077-1.363.23-.367.152-.688.382-.934.688-.244.308-.445.644-.568.98-.123.338-.182.688-.182 1.057m.611 2.664c-.662-.643-.996-1.531-.996-2.663 0-.414.061-.811.213-1.194.139-.367.338-.733.629-1.087.291-.353.643-.627 1.088-.796.428-.185.918-.26 1.5-.26.49 0 .936.076 1.348.229.414.152.781.383 1.103.688.338.321.584.673.733 1.087.17.414.246.873.246 1.363 0 .582-.076 1.087-.229 1.531-.166.442-.396.825-.72 1.132-.322.306-.688.536-1.088.704-.412.152-.856.229-1.33.229-.506 0-.95-.092-1.362-.245-.416-.168-.799-.397-1.135-.718"/>
 <path fill="#fff" d="m64.11 6.622c.182-1.68.932-3.45 1.98-4.529 1.47-1.53 3.42-1.891 5.069-1.891 2.46 0 4.229.75 5.25 1.771.84.81 1.529 2.13 1.529 4.08 0 .989-.181 1.859-.811 2.729-.42.601-.93.99-1.5 1.26.84.301 1.74.87 2.279 1.62.601.811.931 2.07.931 3.15 0 1.53-.601 3.27-2.01 4.56-1.71 1.561-3.66 1.74-5.279 1.74-1.95 0-4.08-.3-5.852-2.07-1.14-1.17-2.01-2.939-2.22-4.949h4.62c.06.779.42 1.71.96 2.25.479.479 1.26.81 2.22.81.78 0 1.53-.24 2.01-.69.479-.449.811-1.229.811-2.04 0-.84-.391-1.529-.87-1.92-.72-.569-1.771-.63-2.46-.63h-.359v-3.18h.271c.271 0 1.35-.03 2.01-.57.42-.359.75-.989.75-1.8 0-.689-.271-1.26-.66-1.62-.359-.33-.96-.6-1.71-.6-.779 0-1.409.27-1.8.66-.42.45-.689 1.229-.72 1.859h-4.44"/>
 <path fill="#b1bad1" d="m69.06 16.342c-.54-.54-.9-1.471-.96-2.25h-2c.06.779.42 1.71.96 2.25.479.479 1.26.81 2.22.81.348 0 .684-.055.996-.146-.497-.141-.919-.367-1.216-.664"/>
 <path fill="#b1bad1" d="m67.27 4.763c-.42.45-.689 1.229-.72 1.859h2c.029-.63.3-1.409.72-1.859.202-.203.472-.37.791-.487-.287-.106-.62-.173-.991-.173-.779 0-1.41.269-1.8.66"/>
 <path fill="#b1bad1" d="m77.913 11.661c-.539-.75-1.439-1.319-2.279-1.62.57-.27 1.08-.659 1.5-1.26.63-.87.811-1.74.811-2.729 0-1.95-.689-3.271-1.529-4.08-1.021-1.021-2.79-1.771-5.25-1.771-.314 0-.643.02-.973.051 1.928.179 3.352.849 4.223 1.72.84.81 1.529 2.13 1.529 4.08 0 .989-.181 1.859-.811 2.729-.42.6-.93.99-1.5 1.26.84.301 1.74.87 2.279 1.62.601.811.931 2.07.931 3.15 0 1.53-.601 3.27-2.01 4.56-1.368 1.248-2.888 1.608-4.271 1.704.333.022.665.036.99.036 1.619 0 3.568-.18 5.279-1.74 1.409-1.29 2.01-3.03 2.01-4.56.002-1.08-.328-2.339-.929-3.15"/>
 <path fill="#294081" d="m71.56 21.312c-1.799 0-4.105-.242-5.992-2.128-1.244-1.278-2.074-3.125-2.277-5.07l-.021-.221h5.03l.014.185c.06.779.431 1.652.902 2.123.477.479 1.233.751 2.077.751.761 0 1.442-.23 1.873-.636.454-.425.747-1.168.747-1.895 0-.698-.298-1.358-.796-1.765-.662-.523-1.648-.585-2.334-.585h-.561v-3.58h.471c.291 0 1.287-.038 1.883-.524.43-.367.678-.969.678-1.646 0-.586-.218-1.123-.597-1.473-.179-.164-.691-.548-1.574-.548-.672 0-1.275.22-1.657.602-.358.384-.633 1.097-.661 1.728l-.009.191h-4.854l.022-.221c.189-1.771.971-3.553 2.035-4.648 1.243-1.295 2.997-1.952 5.214-1.952 2.298 0 4.213.649 5.392 1.829.724.698 1.589 1.999 1.589 4.222 0 1.174-.254 2.025-.849 2.847-.322.461-.715.83-1.19 1.117.813.363 1.531.917 1.971 1.528.588.793.969 2.076.969 3.268 0 1.786-.758 3.501-2.075 4.708-1.736 1.58-3.711 1.793-5.417 1.793m-7.846-7.02c.23 1.775 1 3.445 2.139 4.61 1.771 1.771 3.879 2.01 5.707 2.01 1.629 0 3.514-.2 5.145-1.688 1.235-1.13 1.944-2.739 1.944-4.412 0-1.11-.35-2.3-.891-3.03-.467-.649-1.284-1.229-2.188-1.55l-.455-.163.438-.207c.59-.279 1.056-.67 1.422-1.194.544-.75.773-1.531.773-2.614 0-2.082-.799-3.289-1.469-3.937-1.104-1.105-2.92-1.714-5.11-1.714-2.104 0-3.761.615-4.926 1.829-.947.975-1.68 2.599-1.898 4.191h4.03c.065-.584.313-1.319.758-1.797.461-.461 1.169-.724 1.945-.724.721 0 1.394.238 1.846.653.461.426.726 1.069.726 1.767 0 .793-.299 1.505-.819 1.952-.701.574-1.815.618-2.141.618h-.07v2.778h.16c.744 0 1.822.07 2.584.674.594.481.946 1.258.946 2.076 0 .845-.335 1.683-.874 2.187-.504.473-1.286.744-2.146.744-.948 0-1.81-.317-2.36-.869-.504-.503-.894-1.365-.999-2.19l-4.217.002"/>
</svg>
