<?xml version="1.0" encoding="utf-8"?>
<!-- Generator: Adobe Illustrator 24.2.1, SVG Export Plug-In . SVG Version: 6.00 Build 0)  -->
<svg version="1.1" id="Слой_1" xmlns="http://www.w3.org/2000/svg" xmlns:xlink="http://www.w3.org/1999/xlink" x="0px" y="0px"
	 viewBox="0 0 88.6 48" style="enable-background:new 0 0 88.6 48;" xml:space="preserve">
<style type="text/css">
	.st0{fill:#214287;}
</style>
<g>
	<g>
		<path class="st0" d="M51.4,15.7c-0.3-0.4-0.6-0.9-0.9-1.3c-0.3,0-0.5-0.1-0.8-0.1c0,0.2,0.1,0.4,0.1,0.6c-0.2,0-0.4,0.1-0.7,0.1
			c-0.2-0.2-0.4-0.5-0.6-0.7c-0.3,0.4-0.6,0.8-0.9,1.2c0.1,0.3,0.2,0.5,0.2,0.8c0.3-0.2,0.6-0.5,0.8-0.7c0.2,0,0.5,0,0.7,0
			C49.4,15.6,50.1,15.7,51.4,15.7"/>
		<path class="st0" d="M55.1,17.1c-0.3-0.5-0.6-0.9-0.9-1.4c0.2-0.3,0.4-0.6,0.5-0.8c-0.1-0.1-0.2-0.2-0.4-0.3
			c-0.2,0.2-0.4,0.3-0.6,0.5c0.1,0.8,0.3,1.6,0.4,2.4C54.5,17.3,54.8,17.2,55.1,17.1"/>
		<path class="st0" d="M57,15.6c-0.1-0.3-0.2-0.6-0.2-0.9c-0.2,0-0.4,0.1-0.6,0.1c0.1,0.3,0.1,0.6,0.2,0.9
			C56.6,15.6,56.8,15.6,57,15.6"/>
		<path class="st0" d="M32,30.5c-0.3,0.4-0.6,0.8-0.9,1.2c-0.1,0.8-0.2,1.5-0.3,2.3c-2.4,2.9-5,5.8-7.5,8.8c0.2,0.6,0.3,1.1,0.2,1.8
			c-0.4,0.4-0.7,0.8-1,1.1c0.3,0.4,0.5,0.8,0.8,1.3c-0.3,0.3-0.5,0.7-0.8,1c-0.6-0.8-1.2-1.7-1.8-2.5c0-1.4,0.1-2.7,0.2-4.1
			c0,0,0.5-2.6,1.5-7.6c-0.5-0.2-1-0.5-1.5-0.7c-0.5-1.5-0.9-2.9-1.3-4.3c0.2-0.4,0.5-0.7,0.8-1.1c0-0.4,0-0.8,0.1-1.2
			c-0.5,0-1,0-1.6,0.1c-0.2-0.5-0.4-0.9-0.6-1.4c-0.3,0.1-0.6,0.1-0.9,0.2c-1-0.6-2-1.2-3-1.7c-0.3-0.4-0.6-0.8-0.8-1.2
			c-0.4,0-0.8,0-1.2,0c-0.9-1.5-1.8-2.9-2.7-4.3c0.1-0.7,0.2-1.4,0.4-2.1c-0.3-0.5-0.6-1-0.9-1.5c-0.2,0.1-0.5,0.2-0.7,0.2
			c-0.1-0.4-0.3-0.7-0.4-1c0.2,0,0.4,0,0.6,0.1c-0.4-0.5-0.9-1-1.3-1.5c-0.7-0.1-1.3-0.2-2-0.2c-1.7,0.9-3.5,1.8-5.3,2.6
			c0.7-0.6,1.3-1.2,2-1.8c-0.3-0.3-0.7-0.6-1-0.9c0-1.1,0-2.2,0-3.3c0.7-0.4,1.4-0.7,2.1-1.1c3.1,0.2,6.2,0.4,9.4,0.5
			c-0.6-0.4-1.1-0.8-1.7-1.2c0.2-0.6,0.4-1.1,0.6-1.7c3.3-1.3,6.6-2.6,9.8-3.9c1.2,0,2.5,0,3.7,0c-1.1,1.2-2.3,2.4-3.5,3.6
			c1.4,1.1,2.8,2.2,4.3,3.3c-0.5,0.5-1,1-1.5,1.5c-0.9-0.1-1.8-0.2-2.7-0.4c0.1-0.5,0.3-1.1,0.4-1.6c-0.3,0-0.6,0-0.9,0
			c-0.1,0.4-0.3,0.8-0.4,1.1c0.1,0.3,0.1,0.6,0.2,1c-0.7,0-1.3-0.1-2-0.1c-0.4,0.5-0.8,1-1.2,1.5c0.2,0.2,0.5,0.4,0.7,0.6
			c0.5,0.1,0.9,0.2,1.4,0.4c0.4,0.5,0.8,1,1.3,1.5c0.2-0.5,0.4-1,0.6-1.6c-0.1-0.1-0.2-0.2-0.3-0.3c0-0.5,0-1,0.1-1.5
			c1.1,0.1,2.1,0.2,3.2,0.4c0.8,1,1.7,2,2.5,3c-1.3,0.7-2.6,1.5-3.8,2.3c0,0.4,0,0.8-0.1,1.2c-0.2,0-0.4-0.1-0.6-0.1
			c-0.2,0.2-0.4,0.5-0.7,0.7c0,0.3,0.1,0.6,0.1,0.9c-0.6,0.4-1.1,0.9-1.6,1.4c0.1,0.5,0.2,1,0.4,1.4c-0.3,0-0.5,0-0.8,0
			c-0.2-0.3-0.4-0.7-0.6-1c-0.8,0-1.6,0.1-2.4,0.1c-0.4,0.6-0.7,1.1-1,1.7c0.3,0.3,0.6,0.6,0.8,0.9c0.1,0,0.3,0,0.4,0
			c0.3-0.2,0.6-0.4,0.9-0.6c0.2,0.1,0.3,0.2,0.5,0.3c-0.1,0.4-0.2,0.9-0.3,1.3c0.3,0,0.6,0,0.9,0.1c0,0.5,0.1,0.9,0.1,1.4
			c0.5,0,1.1,0,1.6,0c0.5-0.3,1.1-0.5,1.6-0.8c0.4,0.1,0.7,0.3,1.1,0.4c0.7,0,1.4,0,2.1,0c0,0.5,0.1,1,0.1,1.5c0.6,0,1.2,0,1.7,0
			c0.1,0.6,0.1,1.1,0.2,1.7c0.4,0,0.8,0,1.2,0C29.9,29.1,30.9,29.8,32,30.5"/>
		<path class="st0" d="M21.5,22.5c-0.1,0.2-0.2,0.5-0.3,0.7c-0.6-0.1-1.1-0.2-1.7-0.3c0.1-0.3,0.2-0.6,0.2-0.9
			C20.4,22.1,20.9,22.3,21.5,22.5"/>
		<path class="st0" d="M25.3,24.1c-0.2,0.1-0.4,0.2-0.6,0.2c-0.9-0.3-1.8-0.6-2.7-1c0.1-0.2,0.2-0.4,0.2-0.6
			C23.3,23.2,24.3,23.6,25.3,24.1"/>
		<path class="st0" d="M22.2,22c-0.3-0.1-0.6-0.3-0.9-0.4c0-0.3,0-0.5,0-0.8C21.7,21.1,21.9,21.6,22.2,22"/>
		<path class="st0" d="M55.6,31.8c-0.2,1.3-0.5,2.5-0.7,3.8c-0.6-0.4-1.2-0.8-1.7-1.2c0.1-0.6,0.2-1.1,0.3-1.7
			c0.5-0.5,1-0.9,1.5-1.3C55.2,31.5,55.4,31.6,55.6,31.8"/>
		<path class="st0" d="M38.9,12.8c-0.2,0.3-0.4,0.5-0.6,0.8c-0.3-0.2-0.5-0.4-0.8-0.6c0.2-0.4,0.4-0.7,0.6-1.1
			C38.3,12.2,38.6,12.5,38.9,12.8"/>
		<path class="st0" d="M37.1,1.6c-0.4,0.3-0.8,0.7-1.2,1c-0.1,0.8-0.1,1.6-0.2,2.4c-0.6,0.9-1.2,1.9-1.9,2.8c-1,0.4-2,0.7-3,1
			c-0.3,0.6-0.5,1.2-0.8,1.8c-0.4,0-0.9,0-1.4,0c-0.5-0.8-1-1.5-1.5-2.3c-0.2-1-0.4-2-0.5-3c-0.4-0.3-0.8-0.6-1.2-0.8
			c-0.4,0.2-0.9,0.3-1.3,0.5c-0.2-0.3-0.4-0.6-0.6-0.8c0.8-0.9,1.5-1.7,2.3-2.6c3-0.5,6-1,9-1.5C35.6,0.5,36.3,1,37.1,1.6"/>
		<path class="st0" d="M44.2,17.6c-0.2-0.1-0.5-0.2-0.7-0.2c0.1-0.2,0.3-0.5,0.4-0.7C44,17,44.1,17.3,44.2,17.6"/>
		<path class="st0" d="M37.6,8.6C37,9.1,36.4,9.6,35.7,10C35.4,9.5,35,9,34.6,8.5c0.7-0.2,1.4-0.4,2.1-0.6C37,8.1,37.3,8.4,37.6,8.6
			"/>
		<path class="st0" d="M40.8,12.4c0,0.3,0,0.6-0.1,0.9c-0.5,0-1,0-1.5,0.1c0.1-0.3,0.3-0.6,0.4-0.9c-0.3-0.3-0.7-0.7-1-1
			c0.2-0.3,0.5-0.5,0.7-0.8c0.2,0.3,0.3,0.7,0.5,1C40.1,11.9,40.4,12.2,40.8,12.4"/>
		<path class="st0" d="M86.9,35.6c-0.4,1.5-0.8,3-1.2,4.5C85,40.1,84.4,40,83.7,40c-1.4-0.9-2.8-1.9-4.2-2.8c0,0.2,0,0.5,0,0.7
			c-1.4,0.4-2.8,0.7-4.2,1.1c0-0.7,0.1-1.3,0.1-2c-0.3-0.1-0.7-0.2-1-0.4c-0.1-0.8-0.3-1.6-0.4-2.3c1.6-1.3,3.2-2.6,4.8-3.8
			c1,0.6,2,1.1,3,1.7c-0.1-0.5-0.1-1-0.2-1.5c0.2-0.1,0.5-0.1,0.8-0.2C83.8,32.2,85.3,33.8,86.9,35.6"/>
		<path class="st0" d="M85.8,8.2c-1.1,0.2-2.1,0.3-3.2,0.4C82.8,9,82.9,9.4,83,9.7c-0.5,0.8-0.9,1.6-1.3,2.4
			c-0.3-0.7-0.6-1.4-0.9-2.2c0.3-0.4,0.5-0.9,0.8-1.3c-1.2,0.2-2.4,0.3-3.6,0.5c-0.6,0.4-1.3,0.8-1.9,1.1c0,0.3,0,0.6-0.1,0.9
			c0.5-0.1,1-0.3,1.5-0.4c0.2,0.7,0.4,1.4,0.6,2.1c-0.4,0-0.7,0.1-1.1,0.2c0,0.4-0.1,0.7-0.1,1c-0.6,0.5-1.2,0.9-1.8,1.4
			c0.2,0.3,0.4,0.6,0.5,0.9c-0.4,0.3-0.8,0.6-1.2,1c-0.3-0.5-0.6-1.1-0.8-1.6c-0.3,0.2-0.6,0.3-0.8,0.5c0.3,1.1,0.6,2.1,0.9,3.2
			c-1.2,0.8-2.4,1.7-3.6,2.5c0.4,0.5,0.9,1,1.4,1.5c-0.5,0.4-1.1,0.8-1.6,1.1c-0.3-0.5-0.7-0.9-1-1.4c-0.1,0-0.2,0.1-0.4,0.1
			c0.2,0.5,0.4,1,0.7,1.6c0.6,0.3,1.1,0.6,1.7,0.9c-0.2,0.2-0.3,0.4-0.4,0.5c-0.3-0.1-0.7-0.2-1-0.2c0.1,0.2,0.3,0.5,0.4,0.7
			c0.3,0,0.6,0.1,0.9,0.1c0.3,0.5,0.5,1,0.8,1.5c0.8,0.3,1.6,0.6,2.4,0.8c0.1,0.3,0.2,0.5,0.3,0.8C73,30,72,29.9,71.1,29.7
			c-1.5-1.3-2.9-2.7-4.3-4c0.5,0,1,0,1.5,0.1c-1-1.5-1.9-3-2.8-4.4c-0.1-0.4-0.1-0.8-0.2-1.2c-0.2,0-0.4,0-0.6,0
			c0,0.4-0.1,0.7-0.1,1.1c-0.6,0.5-1.2,1.1-1.8,1.6c0.1,0.5,0.2,1,0.2,1.5c-0.5,0.2-1,0.3-1.5,0.5c-0.5-0.9-0.9-1.8-1.4-2.7
			c-0.2-0.1-0.5-0.1-0.7-0.2c-0.1-0.5-0.1-1.1-0.1-1.6c-1.9-0.3-3.9-0.5-5.7-0.8c0.3,0.5,0.7,1,1.1,1.5c0.3-0.1,0.6-0.2,0.9-0.4
			c0.4,0.3,0.8,0.7,1.2,1c-0.3,0.4-0.6,0.9-0.9,1.3c-0.8,0.4-1.6,0.7-2.4,1c-1-1.6-2-3.3-3-4.9c-0.2,0-0.5,0-0.7,0c0,0.3,0,0.6,0,1
			c0.7,1.1,1.4,2.3,2.1,3.4c0.5,0.3,0.9,0.6,1.4,0.9c0.7-0.1,1.4-0.1,2-0.2c-1,1.9-2.1,3.8-3.2,5.7c0.2,0.2,0.4,0.4,0.5,0.5
			c0.1,0.6,0.2,1.3,0.3,1.9c-0.3,0.3-0.7,0.6-1,0.9c0,0.5,0,1,0,1.5c-0.9,1.3-1.8,2.6-2.7,4c-0.8,0-1.6-0.1-2.4-0.1
			c-0.8-2.1-1.7-4.1-2.5-6.1c0.2-0.3,0.4-0.6,0.6-0.9c0-0.5,0-1-0.1-1.5c-0.6-0.7-1.2-1.4-1.8-2.1c0.2-0.2,0.5-0.4,0.7-0.5
			c-0.6-0.4-1.1-0.7-1.7-1c-1.1,0-2.2,0-3.3,0c-0.6-0.5-1.3-1.1-1.9-1.7c0-1.2-0.1-2.4-0.2-3.6c1.3-1.2,2.7-2.4,4-3.7
			c0.7-0.1,1.5-0.2,2.2-0.3c0.2,0.2,0.4,0.4,0.6,0.6c0,0.2-0.1,0.4-0.1,0.6c0.6,0.2,1.2,0.3,1.9,0.5c0.3-0.3,0.6-0.5,0.8-0.8
			c0.2,0.2,0.5,0.4,0.7,0.6c0.8,0,1.7,0,2.5,0c0.1-0.2,0.3-0.3,0.4-0.5c0-0.4-0.1-0.9-0.1-1.3c-0.3,0.5-0.6,0.9-0.9,1.4
			c-0.5-0.6-1-1.1-1.5-1.7c0.1,0.6,0.2,1.2,0.4,1.8c-0.4-0.3-0.9-0.6-1.3-0.8c-0.1-0.4-0.2-0.9-0.3-1.3c-0.5-0.6-1.1-1.1-1.6-1.7
			c-0.1,0.1-0.2,0.2-0.3,0.3c0.4,0.5,0.9,1,1.3,1.6c-0.2,0.4-0.5,0.8-0.7,1.2c-0.1-0.4-0.3-0.9-0.4-1.3c-0.5-0.3-0.9-0.6-1.4-0.9
			c-0.2,0.2-0.5,0.5-0.7,0.7c-0.2-0.1-0.3-0.2-0.5-0.2c-0.8,0.8-1.6,1.6-2.5,2.4c-0.3-0.8-0.7-1.6-1-2.4c0.6,0,1.2,0,1.8,0
			c0.1-0.3,0.2-0.5,0.3-0.8c-0.2-0.2-0.5-0.4-0.7-0.6c0.4-0.3,0.7-0.6,1.1-0.9c0.2,0,0.4-0.1,0.6-0.1c0.4-0.4,0.8-0.8,1.2-1.1
			c-0.1-0.3-0.2-0.6-0.4-0.8c0.2-0.1,0.4-0.2,0.6-0.3c0.2,0.2,0.3,0.4,0.5,0.6c0.7-0.1,1.4-0.1,2.2-0.2c0-0.2,0-0.4,0.1-0.6
			c0.8-0.3,1.6-0.6,2.3-0.9c-0.1-0.2-0.3-0.3-0.5-0.5c-0.5,0.2-1,0.4-1.5,0.6c-0.2-0.3-0.3-0.6-0.5-0.9c0.3-0.3,0.7-0.6,1-0.9
			c-0.2-0.2-0.5-0.4-0.7-0.6c-0.4,0.6-0.9,1.2-1.3,1.8c0.2,0.1,0.4,0.3,0.5,0.4c0,0.4,0,0.7,0,1.1c-0.5,0.2-0.9,0.3-1.4,0.5
			c-0.1-0.3-0.2-0.6-0.4-0.8c-0.5,0.1-1,0.2-1.5,0.2c0-0.4,0-0.8,0-1.2c0.8-1.1,1.5-2.2,2.3-3.2c0.9-0.2,1.8-0.5,2.6-0.7
			c1.4,0.2,2.8,0.5,4.1,0.7c-0.2,0.4-0.4,0.7-0.6,1.1c-0.5,0-1.1,0-1.6,0c0.4,0.3,0.8,0.7,1.1,1c1-0.7,2-1.4,3-2.1
			c0.7,0,1.4-0.1,2.1-0.1c-0.5-0.5-1.1-0.9-1.6-1.4c0.5-0.5,0.9-1,1.4-1.6c0.7-0.3,1.4-0.7,2.1-1c0.1,0.2,0.3,0.4,0.4,0.7
			c-0.7,0.3-1.4,0.5-2.1,0.8c-0.3,0.4-0.7,0.8-1.1,1.2c0.9,0.4,1.8,0.9,2.6,1.3c-0.2-0.2-0.3-0.5-0.5-0.7c0.5-0.4,0.9-0.8,1.4-1.2
			c0.9,0.1,1.9,0.3,2.8,0.4c0.1-0.3,0.2-0.5,0.3-0.8c1.5-0.6,3.1-1.3,4.6-1.9c1.2-0.3,3.7-0.2,3.5,0.5c-0.3,0.6-1.5,0.9-2.3,1.4
			c2.6,0.4,5.3,0.5,8,0.4c0.4-0.4-0.5-1,1.1-1.3c0.9,0.1,0.6,0.7,0.9,1C77.7,3.8,79,4,80.3,4.2c0.4,0.2,0.8,0.3,1.3,0.5
			c1-0.2,2.1-0.3,3.1-0.5c0.1,0.4,3.8,0.7,3.9,1.1C88.8,6.2,85.5,7.3,85.8,8.2"/>
		<path class="st0" d="M74.6,26.5c-0.2,0.7-0.4,1.4-0.6,2.1c-0.7-0.2-1.3-0.3-2-0.5c-0.1-0.5-0.1-1-0.2-1.5c0.4-0.6,0.9-1.1,1.3-1.7
			C73.6,25.5,74.1,26,74.6,26.5"/>
		<path class="st0" d="M76.5,26.9c-0.2,0.6-0.4,1.2-0.6,1.8c-0.3,0-0.6-0.1-0.9-0.1c0.2-0.7,0.3-1.4,0.5-2
			C75.8,26.6,76.1,26.7,76.5,26.9"/>
		<path class="st0" d="M84,30c-1.9-0.3-3.8-0.7-5.6-1c-0.2-0.6-0.4-1.3-0.6-1.9c1.7,0.4,3.5,0.8,5.3,1.1C83.4,28.8,83.7,29.4,84,30"
			/>
		<path class="st0" d="M80.1,19.7c-0.2,0.2-0.5,0.4-0.7,0.6c-0.4-0.8-0.8-1.5-1.3-2.2c0.2,0,0.4,0.1,0.5,0.1
			C79.1,18.7,79.6,19.2,80.1,19.7"/>
		<path class="st0" d="M79.3,14.6c-0.3,0.8-0.6,1.6-1,2.4c-0.7,0.4-1.5,0.9-2.2,1.3c-0.3-0.3-0.6-0.5-0.9-0.8
			c0.7-0.5,1.5-0.9,2.2-1.4c0.1-0.8,0.2-1.5,0.3-2.3C78.2,14.1,78.7,14.3,79.3,14.6"/>
		<path class="st0" d="M81.6,13c-0.6,0.3-1.2,0.6-1.8,0.8c-0.2-0.2-0.4-0.4-0.6-0.5c0.5-0.3,1.1-0.6,1.6-0.8
			C81.1,12.6,81.4,12.8,81.6,13"/>
	</g>
</g>
</svg>
