<?xml version="1.0" encoding="utf-8"?>
<!-- Generator: Adobe Illustrator 21.0.2, SVG Export Plug-In . SVG Version: 6.00 Build 0)  -->
<svg version="1.1" id="Слой_1" xmlns="http://www.w3.org/2000/svg" xmlns:xlink="http://www.w3.org/1999/xlink" x="0px" y="0px"
	 viewBox="0 0 71 70" style="enable-background:new 0 0 71 70;" xml:space="preserve">
<style type="text/css">
	.st0{fill:url(#SVGID_1_);}
	.st1{fill:#FFFFFF;}
	.st2{fill:none;stroke:#FFFFFF;stroke-width:0.9095;stroke-miterlimit:10;}
</style>
<g>
	
		<linearGradient id="SVGID_1_" gradientUnits="userSpaceOnUse" x1="0.3757" y1="-607.6151" x2="70.3757" y2="-607.6151" gradientTransform="matrix(1 0 0 -1 0 -572.39)">
		<stop  offset="0" style="stop-color:#12397F"/>
		<stop  offset="1" style="stop-color:#3F8DED"/>
	</linearGradient>
	<path class="st0" d="M70.4,60c0,5.3-4.1,9.7-9.1,9.7H9.5c-5,0-9.1-4.3-9.1-9.7V10.3c0-5.3,4.1-9.6,9.1-9.6h51.8
		c5,0,9.1,4.3,9.1,9.7V60L70.4,60L70.4,60z"/>
</g>
<g>
	<polygon class="st1" points="35.2,34.3 44.4,25.1 41,21.7 33.2,29.5 33.2,36.2 33.2,58.1 33.2,61 35.2,61 42.4,61 42.4,59.5 
		35.2,58.4 	"/>
	<path class="st1" d="M41.3,30.2c-1.2,1.2-2.6,1.6-3.3,0.9l4.2-4.2C42.9,27.6,42.5,29.1,41.3,30.2"/>
	<path class="st1" d="M59.6,27.5c-0.1,0-0.2,0-0.2,0H42.1l-0.3,1.4h17.6c0,0,0.1,0,0.2,0c0.4,0,0.7-0.3,0.7-0.7
		C60.3,27.8,60,27.5,59.6,27.5"/>
	<path class="st1" d="M39.8,48.6V30.9l-1.4,0.4v17.3c0,0,0,0.1,0,0.1c0,0.4,0.3,0.7,0.7,0.7c0.4,0,0.7-0.3,0.7-0.7
		C39.8,48.7,39.8,48.6,39.8,48.6"/>
	<path class="st1" d="M53.9,41.9L41.7,29.7l-1,0.9l12.2,12.2c0.1,0.2,0.4,0.4,0.6,0.4c0.4,0,0.7-0.3,0.7-0.7
		C54.3,42.2,54.1,42,53.9,41.9"/>
</g>
<rect x="23" y="13" class="st2" width="28.3" height="37.7"/>
<polyline class="st2" points="20.8,49 20.8,11.3 49.1,11.3 "/>
<polyline class="st2" points="18.7,47.2 18.7,9.5 47,9.5 "/>
</svg>
