<?xml version="1.0" encoding="utf-8"?>
<!-- Generator: Adobe Illustrator 21.0.2, SVG Export Plug-In . SVG Version: 6.00 Build 0)  -->
<svg version="1.1" id="Слой_1" xmlns="http://www.w3.org/2000/svg" xmlns:xlink="http://www.w3.org/1999/xlink" x="0px" y="0px"
	 viewBox="0 0 71 70" style="enable-background:new 0 0 71 70;" xml:space="preserve">
<style type="text/css">
	.st0{fill:url(#SVGID_1_);stroke:#FFFFFF;stroke-miterlimit:10;}
	.st1{fill:#FFFFFF;}
</style>
<g>
	
		<linearGradient id="SVGID_1_" gradientUnits="userSpaceOnUse" x1="0.5" y1="270.1" x2="70.5" y2="270.1" gradientTransform="matrix(1 0 0 1 0 -235)">
		<stop  offset="0" style="stop-color:#12397F"/>
		<stop  offset="1" style="stop-color:#3F8DED"/>
	</linearGradient>
	<path class="st0" d="M70.5,59.9c0,5.3-4.1,9.7-9.1,9.7H9.6c-5,0-9.1-4.3-9.1-9.7V10.2c0-5.3,4.1-9.6,9.1-9.6h51.8
		c5,0,9.1,4.3,9.1,9.7V59.9L70.5,59.9L70.5,59.9z"/>
</g>
<polygon class="st1" points="58.9,22.5 38.4,22.5 42.9,17.9 37.5,12.5 25,25 25,25 25,58 40.1,58 40.1,56.9 31.6,54.9 31.6,29 
	36.4,24.2 36.4,44.9 38.1,44.9 38.1,25.3 49.5,36.7 50.6,35.5 39.5,24.2 58.9,24.2 "/>
</svg>
