<?xml version="1.0" encoding="utf-8"?>
<!-- Generator: Adobe Illustrator 21.0.2, SVG Export Plug-In . SVG Version: 6.00 Build 0)  -->
<svg version="1.1" id="Слой_1" xmlns="http://www.w3.org/2000/svg" xmlns:xlink="http://www.w3.org/1999/xlink" x="0px" y="0px"
	 viewBox="0 0 71 70" style="enable-background:new 0 0 71 70;" xml:space="preserve">
<style type="text/css">
	.st0{fill:url(#SVGID_1_);stroke:#FFFFFF;stroke-miterlimit:10;}
	.st1{fill:#FFFFFF;}
</style>
<g>
	
		<linearGradient id="SVGID_1_" gradientUnits="userSpaceOnUse" x1="0.5" y1="-114.1" x2="70.5" y2="-114.1" gradientTransform="matrix(1 0 0 -1 0 -79)">
		<stop  offset="0" style="stop-color:#12397F"/>
		<stop  offset="1" style="stop-color:#3F8DED"/>
	</linearGradient>
	<path class="st0" d="M70.5,59.9c0,5.3-4.1,9.7-9.1,9.7H9.6c-5,0-9.1-4.3-9.1-9.7V10.2c0-5.3,4.1-9.6,9.1-9.6h51.8
		c5,0,9.1,4.3,9.1,9.7V59.9L70.5,59.9L70.5,59.9z"/>
</g>
<g>
	<g>
		<path class="st1" d="M14.3,40.3c-1.2-0.8-2.4-1.6-3.6-2.4c-1-0.7-2-1.4-3.1-2.1c-0.8-0.6-1-1.2-0.5-2c3.5-5.9,7.1-11.7,10.7-17.6
			c0.6-0.9,1-1,1.9-0.4c1.2,0.8,2.4,1.6,3.7,2.4c0.2,0.1,0.6,0.2,0.8,0.2c3.1-0.1,6.2-0.2,9.3,0.2c0.8,0.1,1.4,0,2.1-0.3
			c1.4-0.7,2.9-1,4.5-1c1.7,0,3.4,0.1,5.1,0.2c0.3,0,0.6-0.1,0.8-0.2c1.3-0.9,2.5-1.9,3.7-2.8c0.8-0.6,1.3-0.5,1.8,0.3
			c4,6,8,12,12.1,18c0.4,0.6,0.4,1.2-0.2,1.6c-1.9,1.6-3.9,3.2-6.1,4.4c-0.2,0.1-0.3,0.4-0.4,0.6c-0.1,0.5-0.1,1.1-0.3,1.6
			c-0.4,1.3-1.3,2.1-2.5,2.6c-0.5,0.2-0.5,0.4-0.6,0.9c-0.1,0.8-0.2,1.7-0.5,2.5c-0.6,1.5-1.8,2.2-3.3,2.3c-0.5,0-0.7,0.2-0.8,0.6
			c-0.1,0.3-0.2,0.7-0.3,1c-0.9,2.1-2.8,3.2-5,2.8c-0.3-0.1-0.5,0-0.5,0.3c-0.6,3.5-5.2,3.9-7.5,1.9c-0.2-0.1-0.3-0.3-0.5-0.4
			c-0.1,0.1-0.2,0.1-0.3,0.2c-1.9,1.7-4.5,1.3-5.9-0.8c-0.6-0.8-0.6-0.8-1.5-0.5c-1.2,0.4-2.3,0.3-3.3-0.5c-0.7-0.6-1.2-1.3-1.8-2
			c-0.1-0.1-0.3-0.2-0.5-0.2c-2.3,0.6-4-1-4.7-2.4c-0.2-0.4-0.2-1-0.4-1.4c-0.1-0.2-0.2-0.4-0.4-0.5c-3.1-0.7-4.3-4.2-2.3-6.6
			C14.2,40.5,14.2,40.5,14.3,40.3z M24.7,38.3c0.4-0.1,0.8-0.3,1.2-0.3c1.9-0.2,3.6,0.9,4.3,2.7c0.1,0.3,0.3,0.5,0.7,0.4
			c2.3-0.5,5,1.9,4.6,4.6c-0.1,0.4,0,0.6,0.4,0.8c1.3,0.8,2.5,1.8,2.6,3.5c0.1,1.2-0.4,2.3-1.3,3.1c-0.3,0.3-0.3,0.5,0,0.8
			c0.9,0.7,1.8,0.8,2.8,0.5s1.2-1.7,0.5-2.5c-0.4-0.4-0.9-0.9-1.3-1.3c-0.5-0.5-0.4-1.1,0-1.5s1-0.4,1.5,0c0.3,0.2,0.5,0.5,0.7,0.7
			c0.4,0.4,0.8,1,1.3,1.2c1.9,0.8,3.4,0.8,4-1.8c0-0.1,0.1-0.3,0.1-0.4c0-0.2-0.1-0.5-0.2-0.7c-0.7-0.7-1.4-1.4-2-2.1
			c-0.5-0.5-0.5-1.1,0-1.6s1-0.5,1.6,0c0.7,0.6,1.3,1.2,1.9,1.9c0.5,0.5,1,0.6,1.7,0.5s1.2-0.4,1.4-1c0.3-0.8,0.6-1.7,0.1-2.6
			c-0.1-0.1-0.2-0.2-0.3-0.3c-0.4-0.4-0.8-0.7-1.1-1.2c-0.4-0.5-0.4-1.1,0-1.5s1.1-0.5,1.5,0c0.3,0.2,0.5,0.5,0.8,0.7
			c0.7,0.7,0.8,0.7,1.6,0.2c1.3-0.7,1.4-2.8,0.2-3.7c-5-3.4-9.9-6.8-14.9-10.2c-0.4-0.3-0.7-0.3-1.1,0c-3.1,1.8-6.2,3.7-9.3,5.5
			c-0.3,0.2-0.7,0.4-1,0.5c-1.8,0.5-4.2-0.4-5.2-2.1c-0.6-0.9-0.8-1.9-0.7-2.9c0.2-1.9,1.3-3.1,2.8-4c2-1.1,3.9-2.1,5.9-3.2
			c0.2-0.1,0.3-0.2,0.6-0.4c-0.3-0.1-0.3-0.1-0.4-0.1c-2,0-4,0.1-6,0.1c-0.2,0-0.5,0.2-0.7,0.5c-0.8,1.3-1.6,2.7-2.5,4
			c-2.4,3.9-4.8,7.8-7.2,11.7c-0.2,0.4-0.2,0.6,0.2,0.8c0.5,0.3,1,0.6,1.4,1c0.2,0.2,0.4,0.2,0.6-0.1c0.5-0.5,1.1-1.1,1.6-1.6
			c1.4-1.4,3.5-1.5,5-0.2C23.7,37.1,24.1,37.7,24.7,38.3z M57.3,36.1c-0.1-0.2-0.2-0.4-0.3-0.5c-3.7-5.1-7.4-10.3-11-15.4
			c-0.3-0.4-0.7-0.6-1.2-0.6c-1.4,0-2.9-0.1-4.3-0.1c-1.6,0-3.2,0.3-4.7,1.1c-3.4,1.8-6.7,3.6-10.1,5.5c-0.6,0.3-1.1,0.8-1.5,1.4
			c-0.7,0.9-0.5,1.9,0.3,2.8c0.9,0.9,1.9,1.1,2.9,0.5c3.3-2,6.7-3.9,10-5.9c0.7-0.4,1.3-0.4,2,0.1c5.5,3.8,11,7.6,16.5,11.4
			C56.6,36.7,56.6,36.7,57.3,36.1z M47.6,18.7c3.9,5.4,7.7,10.8,11.5,16.2c0.6-0.5,1.1-0.9,1.7-1.3c0.5-0.3,0.5-0.6,0.2-1.1
			c-3.4-5.1-6.8-10.1-10.2-15.2c-0.1-0.2-0.3-0.4-0.4-0.6C49.4,17.4,48.6,18,47.6,18.7z M12,36c0.2-0.3,0.3-0.4,0.4-0.6
			c0.6-1,1.2-2,1.9-3c2.4-4,4.9-8,7.3-12c0.2-0.4,0.2-0.6-0.2-0.8c-0.5-0.3-1-0.6-1.4-0.9s-0.6-0.3-0.9,0.2c-1.6,2.7-3.2,5.4-4.8,8
			c-1.4,2.4-2.8,4.7-4.3,7.1c-0.1,0.2-0.4,0.4,0,0.7C10.6,35,11.3,35.4,12,36z M18.7,47.4c-0.2,0.8,0.7,1.6,1.4,2
			c0.6,0.3,1.1,0.2,1.6-0.3c2-2,4-4,6-6c0.8-0.8,0.8-1.6-0.1-2.5s-1.6-0.9-2.4-0.1c-2,2-4,4-5.9,6C18.9,46.8,18.7,47.1,18.7,47.4z
			 M24.1,50.3c0.1,0.7,0.5,1.1,1,1.5c0.6,0.6,1.4,0.6,2,0c2-2,4-4,6-6c0.7-0.7,0.7-1.4,0-2.1c-0.1-0.1-0.3-0.3-0.4-0.4
			c-0.7-0.6-1.5-0.6-2.1,0c-1.9,2-3.9,3.9-5.8,5.9C24.4,49.5,24.1,49.9,24.1,50.3z M15.1,43.1c0,0.5,0.6,1.3,1,1.6
			c0.8,0.4,1.4,0.5,2-0.2c1.3-1.3,2.6-2.6,3.9-3.9c0.6-0.6,0.6-1.4,0-2.1c-0.1-0.1-0.3-0.3-0.4-0.4c-0.7-0.6-1.5-0.7-2.1,0
			c-1.3,1.3-2.6,2.6-3.9,3.9C15.3,42.3,15.1,42.8,15.1,43.1z M30.5,52.7c0.1,0.7,0.6,1.1,1,1.5c0.7,0.6,1.4,0.7,2.1,0
			c1-0.9,1.9-1.9,2.8-2.8c0.6-0.6,0.6-1.3,0.1-2c-0.2-0.2-0.4-0.4-0.6-0.6c-0.5-0.5-1.4-0.4-1.9,0.1c-1,1-2,1.9-2.9,3
			C30.8,52.1,30.7,52.4,30.5,52.7z"/>
	</g>
</g>
</svg>
