<?xml version="1.0" encoding="utf-8"?>
<!-- Generator: Adobe Illustrator 21.0.2, SVG Export Plug-In . SVG Version: 6.00 Build 0)  -->
<svg version="1.1" id="Слой_1" xmlns="http://www.w3.org/2000/svg" xmlns:xlink="http://www.w3.org/1999/xlink" x="0px" y="0px"
	 viewBox="0 0 71 70" style="enable-background:new 0 0 71 70;" xml:space="preserve">
<style type="text/css">
	.st0{fill:url(#SVGID_1_);}
	.st1{fill:none;stroke:#FFFFFF;stroke-miterlimit:10;}
	.st2{fill:#FFFFFF;}
</style>
<g>
	
		<linearGradient id="SVGID_1_" gradientUnits="userSpaceOnUse" x1="0.5" y1="152.1" x2="70.5" y2="152.1" gradientTransform="matrix(1 0 0 1 0 -117)">
		<stop  offset="0" style="stop-color:#12397F"/>
		<stop  offset="1" style="stop-color:#3F8DED"/>
	</linearGradient>
	<path class="st0" d="M70.5,59.9c0,5.3-4.1,9.7-9.1,9.7H9.6c-5,0-9.1-4.3-9.1-9.7V10.2c0-5.3,4.1-9.6,9.1-9.6h51.8
		c5,0,9.1,4.3,9.1,9.7V59.9L70.5,59.9L70.5,59.9z"/>
</g>
<path class="st1" d="M59.5,50.9h-48c-1.6,0-3-1.3-3-3V15.8c0-1.6,1.4-3,3-3h48c1.7,0,3,1.4,3,3v32.1C62.5,49.6,61.2,50.9,59.5,50.9z
	"/>
<rect x="27" y="50.9" class="st1" width="17" height="6.9"/>
<rect x="16.8" y="57.8" class="st1" width="37.5" height="3.8"/>
<path class="st2" d="M39.9,20.2l-6.6-3.8v3.2c-6.6,0.5-11.7,6-11.7,12.7c0,4.4,2.2,8.4,5.9,10.7l0.9-1.4c-3.2-2.1-5.2-5.6-5.2-9.4
	c0-5.8,4.5-10.6,10.1-11.1V24L39.9,20.2z"/>
<path class="st2" d="M30.3,43.7l6.4,4.1l0.1-3.2c6.6-0.2,12-5.5,12.3-12.2c0.2-4.4-1.8-8.5-5.4-11l-0.9,1.3c3.1,2.2,4.9,5.8,4.8,9.6
	C47.3,38.1,42.6,42.7,37,43l0.1-2.8L30.3,43.7z"/>
</svg>
