<svg xmlns="http://www.w3.org/2000/svg" viewBox="0 0 11.67 25.886" enable-background="new 0 0 11.67 25.886"><path fill-rule="evenodd" fill="#fff" d="m3.491 23.894c-1.188-1.01-2.01-2.558-2.49-4.263-1.339-4.691-1.404-9.396.23-14.03.817-2.312 2.371-4.051 4.667-5.079 1.438-.642 2.944-.562 4.446-.421.722.068 1.246.663 1.299 1.471.109 1.581-.119 3.135-.719 4.603-.41 1-1.228 1.486-2.354 1.407-.592-.04-1.184-.055-1.778-.068-.728-.018-1.23.341-1.586.945-.555.955-.652 2.02-.744 3.075-.148 1.569-.047 3.131.291 4.671.043.197.092.392.156.583.414 1.219 1.096 1.673 2.391 1.586.377-.024.752-.069 1.129-.089 1.234-.065 2.194.521 2.57 1.691.428 1.319.607 2.697.611 4.079.008 1.173-.638 1.774-1.824 1.782-.865.004-1.739.13-2.604-.029-1.331-.243-2.474-.859-3.691-1.911"/></svg>