<svg xmlns="http://www.w3.org/2000/svg" viewBox="0 0 55.45 67.672" enable-background="new 0 0 55.45 67.672" xmlns:xlink="http://www.w3.org/1999/xlink"><defs><linearGradient id="SVGID_1_" gradientUnits="userSpaceOnUse" x1="1.738" x2="53.04"><stop stop-color="#12397f"/><stop offset="1" stop-color="#3f8ded"/></linearGradient><linearGradient id="SVGID_2_" gradientUnits="userSpaceOnUse" x1="11.482" x2="54.621" xlink:href="#SVGID_1_"/></defs><g fill-rule="evenodd"><path fill="url(#SVGID_1_)" d="m27.388 66.64c-14.167 0-25.649-11.484-25.649-25.648 0-7.941 3.606-15.04 9.271-19.742l.2.931c.211.993 1.188 1.627 2.18 1.417.038-.008.076-.018.114-.028l4.099-.923.294 1.228c.231.974 1.198 1.58 2.171 1.369l.0001.006 8.934-1.952c.619 1.427 1.582 2.673 2.776 3.638 1.64 1.318 3.719 2.109 5.975 2.109.236 0 .485-.013.746-.033l3.632 5.469c.554.838 1.678 1.074 2.521.535l2.824-1.728c.869-.528 1.14-1.66.612-2.525l-.034-.058v-.0001l-3.206-4.833c.584-.649 1.078-1.38 1.47-2.173l.005-.009c4.17 4.561 6.713 10.634 6.713 17.302 0 14.164-11.484 25.649-25.649 25.649"/><g fill="#fff" stroke="#0b448e" stroke-linejoin="round" stroke-width=".75" stroke-miterlimit="22.926"><path d="m34.887 40.986c0-4.132-3.367-7.503-7.5-7.503-4.132 0-7.502 3.372-7.502 7.503s3.371 7.499 7.502 7.499c4.133 0 7.5-3.367 7.5-7.499z"/><path d="m33.22 40.986c0-3.214-2.619-5.83-5.831-5.83-3.211 0-5.83 2.616-5.83 5.83 0 3.21 2.619 5.829 5.83 5.829 3.212 0 5.831-2.619 5.831-5.829z"/></g><path fill="url(#SVGID_2_)" d="m13.01 21.792l4.203-.946-.108-.501 1.742-.399.835 3.499 10.551-2.306c.753 3.462 3.834 6.06 7.521 6.06.562 0 1.106-.06 1.635-.174l4.274 6.44 2.857-1.749-4.061-6.122c1.823-1.408 2.995-3.615 2.995-6.095 0-.564-.061-1.114-.178-1.644l9.34-2.041-3.074-12.883-34.936 7.635.817 3.422-1.611.368-.131-.604-4.202.946 1.531 7.098"/></g><g fill="none" stroke="#fff" stroke-linejoin="round" stroke-width=".75" stroke-miterlimit="22.926"><line x1="15.684" y1="13.749" x2="17.215" y2="20.846"/><line x1="16.608" y1="10.562" x2="19.685" y2="23.444"/><line x1="29.749" y1="21.245" x2="45.28" y2="17.852"/></g></svg>