<svg xmlns="http://www.w3.org/2000/svg" height="67.67" viewBox="0 0 55.45 67.672" enable-background="new 0 0 55.45 67.672"><g fill="none" stroke="#284288" stroke-linejoin="round" stroke-miterlimit="10"><path d="m20.434 35.16c-.087-.153-.169-.311-.247-.471-1.838-3.833-.223-8.431 3.609-10.271 3.832-1.84 8.43-.224 10.27 3.609 1.135 2.364.956 5.02-.248 7.137"/><path d="m22.398 35.09c-.413-.521-.744-1.122-.97-1.787-1.062-3.129.615-6.526 3.742-7.589 3.126-1.061 6.526.615 7.586 3.743.67 1.974.25 4.054-.938 5.589"/><path d="M18.809,55.61
	C5.97,51.188-1.355,37.469,2.34,24.215C6.177,10.457,20.442,2.414,34.201,6.25C47.1,9.847,54.977,22.608,52.75,35.527"/><rect x="18.809" y="35.17" width="35.417" height="26.25"/><path d="m43.767 51.02c0 .553-.447 1-1 1h-12.5c-.553 0-1-.447-1-1v-6.875c0-.553.447-1 1-1h12.5c.553 0 1 .447 1 1v6.875z"/><polygon points="35.571,45.144 39.801,47.586 
	35.571,50.028 "/><path d="m18.808 38.34h4.105c1.104 0 2 .896 2 2v15.688c0 1.104-.896 2-2 2h-4.105"/><path d="m54.23 58.02h-4.105c-1.104 0-2-.896-2-2v-15.687c0-1.104.896-2 2-2h4.105"/></g></svg>