<svg xmlns="http://www.w3.org/2000/svg" viewBox="0 0 55.45 67.672" enable-background="new 0 0 55.45 67.672" xmlns:xlink="http://www.w3.org/1999/xlink"><defs><linearGradient id="SVGID_1_" gradientUnits="userSpaceOnUse" x1="1.392" x2="52.946"><stop stop-color="#12397f"/><stop offset="1" stop-color="#3f8ded"/></linearGradient><linearGradient id="SVGID_2_" gradientUnits="userSpaceOnUse" x1="29.559" x2="54.831" xlink:href="#SVGID_1_"/></defs><path fill="url(#SVGID_1_)" d="m29.558 56.906c-.636.056-1.274.089-1.922.099-14.283.21-26.03-11.196-26.24-25.481-.21-14.282 11.199-26.03 25.481-26.24 13.39-.197 24.553 9.817 26.07 22.838"/><g stroke="#284288" stroke-linejoin="round" stroke-miterlimit="10"><g fill="#fff"><path d="m29.542 38.496c-.631.195-1.299.313-1.992.341-4.248.16-7.822-3.151-7.984-7.4-.162-4.247 3.151-7.821 7.4-7.983 3.326-.126 6.236 1.875 7.423 4.788"/><path d="m29.474 36.702c-.618.247-1.288.394-1.99.42-3.302.125-6.08-2.45-6.206-5.751-.125-3.3 2.451-6.079 5.751-6.204 2.358-.089 4.447 1.198 5.497 3.144"/></g><path fill="url(#SVGID_2_)" d="m53.35 28.312c.813 0 1.479.639 1.479 1.42v35.35c0 .781-.668 1.42-1.479 1.42h-14.826-7.487c-.813 0-1.479-.639-1.479-1.42v-2.08-33.28c0-.781.663-1.42 1.479-1.42l22.313.002z"/><rect x="31.622" y="30.336" fill="#fff" width="21.15" height="31.16"/></g><ellipse fill="#fff" cx="42.19" cy="64.09" rx="1.061" ry="1.015"/><g fill="none" stroke-linejoin="round" stroke-miterlimit="10"><g stroke="#fff" stroke-linecap="round"><line x1="49.838" y1="64.09" x2="52.768" y2="64.09"/><line x1="31.622" y1="64.09" x2="34.547" y2="64.09"/></g><g stroke="#284288"><rect x="36.05" y="42.46" width="12.289" height="6.923"/><polyline points="36.047,42.456 42.194,46.889 
	48.338,42.456 "/><line x1="36.522" y1="49.5" x2="40.458" y2="45.813"/><line x1="47.848" y1="49.5" x2="43.915" y2="45.814"/></g></g></svg>