<svg xmlns="http://www.w3.org/2000/svg" viewBox="0 0 55.45 67.672" enable-background="new 0 0 55.45 67.672"><defs><linearGradient id="SVGID_1_" gradientUnits="userSpaceOnUse" x1=".564" x2="52.36"><stop stop-color="#12397f"/><stop offset="1" stop-color="#3f8ded"/></linearGradient></defs><path fill="url(#SVGID_1_)" d="m37.18 53.1c-6.82 3.096-14.922 3.223-22.17-.349-12.824-6.323-18.09-21.847-11.771-34.671 6.326-12.826 21.848-18.1 34.675-11.772 12.239 6.03 17.597 20.446 12.564 32.896-.1.245-1.268 3.051-1.375 3.294"/><g fill="#fff" stroke-miterlimit="10"><g stroke="#284288" stroke-linejoin="round"><path d="m29.358 36.695c-.619.234-1.278.394-1.969.463-4.229.426-8-2.661-8.427-6.891-.423-4.229 2.661-8 6.891-8.426 3.31-.334 6.342 1.482 7.705 4.316"/><path d="m29.25 34.876c-.601.29-1.256.487-1.956.567-3.282.371-6.246-1.987-6.618-5.271-.374-3.282 1.987-6.245 5.269-6.617 2.346-.266 4.527.859 5.719 2.722"/></g><g stroke="#204289"><polyline points="44.386,49.848 44.386,26.225 29.211,26.225 
			29.211,49.818 37.594,49.818 		"/><path d="m49.801 66.4c-3.26.002-6.51.004-9.768-.004-.127 0-.293-.061-.378-.152-.442-.485-.934-1.945-1.272-2.502-1.279-2.102-1.813-4.438-1.918-6.891-.063-1.42.266-2.77.723-4.095.241-.687.422-1.384.416-2.129-.021-1.763-.016-3.526-.009-5.289.002-.89.083-1.772.386-2.614.43-1.175 1.253-1.793 2.405-1.806 1.176-.013 2.01.597 2.456 1.786.318.854.394 1.746.396 2.648.011 2.127.007 4.256.009 6.383 0 .125 0 .246 0 .367 1.116-1.605 2.623-2.523 4.465-3.01-1.398-.778-2.326-1.931-3.114-3.22-.114-.191-.177-.451-.179-.68-.018-1.629-.014-3.26-.014-4.889 0-.152 0-.309 0-.457.605-.076 1.067.012 1.561.346.789.539 1.591 1.059 2.334 1.658 1.677 1.348 3.375 2.676 4.953 4.139 1.164 1.08 1.615 2.517 1.174 4.146-.651 2.411-1.416 4.78-2.396 7.07-.625 1.469-1.302 2.922-1.624 4.497-.242 1.194-.381 3.414-.572 4.683.029-.005-.004.011-.034.011z"/><polyline points="43.215,49.818 44.386,49.818 44.386,50.191 	"/></g></g></svg>