<?xml version="1.0" encoding="utf-8"?>
<!-- Generator: Adobe Illustrator 16.0.0, SVG Export Plug-In . SVG Version: 6.00 Build 0)  -->
<!DOCTYPE svg PUBLIC "-//W3C//DTD SVG 1.1//EN" "http://www.w3.org/Graphics/SVG/1.1/DTD/svg11.dtd">
<svg version="1.1" id="Слой_1" xmlns="http://www.w3.org/2000/svg" xmlns:xlink="http://www.w3.org/1999/xlink" x="0px" y="0px"
	 width="56.693px" height="56.693px" viewBox="0 0 56.693 56.693" enable-background="new 0 0 56.693 56.693" xml:space="preserve">
<g>
	<g opacity="0.5">
		<path fill="#FFFFFF" d="M27.36,7.263c-3.52,0.362-6.652,4.372-8.482,10.154h8.482V7.263z"/>
		<path fill="#FFFFFF" d="M17.206,27.914H27.36v-8.496h-9.045C17.671,22.018,17.278,24.896,17.206,27.914z"/>
		<path fill="#FFFFFF" d="M18.315,38.409h9.045v-8.495H17.206C17.278,32.931,17.671,35.809,18.315,38.409z"/>
		<path fill="#FFFFFF" d="M39.54,19.417c0.596,2.607,0.951,5.47,1.016,8.496h10.443c-0.131-3.024-0.857-5.893-2.059-8.496H39.54z"/>
		<path fill="#FFFFFF" d="M39.54,38.409h9.4c1.201-2.604,1.928-5.472,2.059-8.495H40.555C40.491,32.939,40.135,35.801,39.54,38.409z
			"/>
		<path fill="#FFFFFF" d="M27.36,50.563V40.409h-8.482C20.708,46.191,23.841,50.201,27.36,50.563z"/>
		<path fill="#FFFFFF" d="M29.36,7.458v9.959h7.521C35.221,12.167,32.485,8.381,29.36,7.458z"/>
		<path fill="#FFFFFF" d="M39.02,17.417h8.871c-3.375-5.729-9.193-9.844-16.023-10.908C35.002,8.137,37.436,11.988,39.02,17.417z"/>
		<path fill="#FFFFFF" d="M15.206,29.914H5.694c0.131,3.023,0.857,5.892,2.059,8.495h8.469
			C15.624,35.801,15.271,32.939,15.206,29.914z"/>
		<path fill="#FFFFFF" d="M16.739,40.409H8.8c3.426,5.812,9.365,9.96,16.326,10.95C21.558,49.791,18.349,45.926,16.739,40.409z"/>
		<path fill="#FFFFFF" d="M7.753,19.417c-1.201,2.604-1.928,5.472-2.059,8.496h9.512c0.064-3.026,0.42-5.889,1.016-8.496H7.753z"/>
		<path fill="#FFFFFF" d="M36.881,40.409H29.36v9.959C32.485,49.444,35.221,45.659,36.881,40.409z"/>
		<path fill="#FFFFFF" d="M39.02,40.409c-1.576,5.411-3.814,9.228-6.838,10.853c6.695-1.142,12.387-5.213,15.711-10.853H39.02z"/>
		<path fill="#FFFFFF" d="M38.555,29.914H29.36v8.495h8.085C38.09,35.809,38.483,32.931,38.555,29.914z"/>
		<path fill="#FFFFFF" d="M16.739,17.417c1.572-5.386,4.484-9.215,7.85-10.866C17.86,7.674,12.138,11.756,8.802,17.417H16.739z"/>
		<path fill="#FFFFFF" d="M37.446,19.417H29.36v8.496h9.195C38.483,24.896,38.09,22.018,37.446,19.417z"/>
	</g>
	<path opacity="0.5" fill="#FFFFFF" d="M28.347,57.155c-15.561,0-28.221-12.66-28.221-28.221s12.66-28.22,28.221-28.22
		c15.56,0,28.22,12.659,28.22,28.22S43.907,57.155,28.347,57.155z M28.347,4.714c-13.355,0-24.221,10.865-24.221,24.22
		c0,13.355,10.865,24.221,24.221,24.221c13.355,0,24.22-10.865,24.22-24.221C52.567,15.579,41.702,4.714,28.347,4.714z"/>
</g>
<g>
	<path fill="#5675A4" d="M12.945,32.931h-1.021l-3.739-7.36h2.312l1.938,4.25l1.973-4.25h0.951l1.972,4.25l1.938-4.25h2.312
		l-3.739,7.36H16.82l-1.938-4.335L12.945,32.931z"/>
	<path fill="#5675A4" d="M26.409,32.931h-1.021l-3.739-7.36h2.312l1.938,4.25l1.972-4.25h0.952l1.972,4.25l1.938-4.25h2.313
		l-3.74,7.36h-1.02l-1.938-4.335L26.409,32.931z"/>
	<path fill="#5675A4" d="M39.873,32.931h-1.02l-3.74-7.36h2.313l1.938,4.25l1.973-4.25h0.951l1.971,4.25l1.939-4.25h2.311
		l-3.738,7.36h-1.021l-1.938-4.335L39.873,32.931z"/>
</g>
</svg>
