<svg xmlns="http://www.w3.org/2000/svg" width="36.08" viewBox="0 0 36.083 29.521" enable-background="new 0 0 36.083 29.521"><g fill="none" stroke="#6e6f72" stroke-linejoin="round" stroke-miterlimit="10"><path d="m31.33 18.62c0 .553-.447 1-1 1h-24.17c-.552 0-1-.447-1-1v-12.833c0-.552.448-1 1-1h24.17c.553 0 1 .448 1 1v12.833z"/><line x1="3.333" y1="4.37" x2="3.333" y2="26.287"/><line x1="1.666" y1="26.287" x2="4.75" y2="26.287"/><line x1="33" y1="4.37" x2="33" y2="26.287"/><line x1="31.33" y1="26.287" x2="34.417" y2="26.287"/><rect x="12.313" y="6.287" width="11.874" height="11.875"/><line x1="13.458" y1="6.287" x2="13.458" y2="4.787"/><line x1="23.12" y1="6.287" x2="23.12" y2="4.787"/><line x1="13.416" y1="19.828" x2="13.416" y2="18.329"/><line x1="23.08" y1="19.828" x2="23.08" y2="18.329"/></g></svg>