<svg xmlns="http://www.w3.org/2000/svg" viewBox="0 0 93 95" enable-background="new 0 0 93 95"><defs><linearGradient id="SVGID_1_" gradientUnits="userSpaceOnUse" y1="99.31" x2="0" y2="-4.02"><stop stop-color="#123a81"/><stop offset="1" stop-color="#3f8ded"/></linearGradient></defs><path fill="url(#SVGID_1_)" d="m4.944 63.27l26.687 10.08c1.233.465 2.622-.162 3.088-1.396l20.603-54.55c.467-1.232-.161-2.622-1.395-3.087l-26.684-10.08c-1.232-.466-2.622.162-3.087 1.394l-20.606 54.55c-.466 1.231.162 2.621 1.394 3.088m18.609 11.662l6.55 2.475c1.736.656 3.576.546 5.142-.161 1.569-.708 2.872-2.02 3.531-3.763l1.86-4.924 4.195 3.176c1.475 1.117 3.272 1.529 4.981 1.293 1.709-.235 3.33-1.123 4.451-2.604l22.617-29.865 12.468 24.664c.596 1.176.119 2.623-1.057 3.219l-52.04 26.303c-1.176.595-2.624.118-3.219-1.058l-9.481-18.755m18.682-10.606l17.15-45.39c.655-1.736.545-3.577-.162-5.142-.709-1.569-2.02-2.873-3.762-3.531l-2.232-.843 6.219-8.21c.795-1.05 2.307-1.259 3.355-.463l22.741 17.223c1.051.795 1.26 2.306.464 3.356l-35.2 46.48c-.795 1.051-2.305 1.258-3.355.463l-5.211-3.946m-22.758-25.08c-.882-.333-1.516-.917-1.895-1.757-.381-.833-.411-1.686-.08-2.561.329-.871.917-1.497 1.768-1.872.845-.376 1.704-.404 2.574-.076.875.331 1.502.919 1.881 1.758.378.839.406 1.698.077 2.568-.335.888-.915 1.51-1.74 1.888-.83.37-1.686.391-2.585.052m18.856-.913c.667.252 1.147.314 1.435.185.288-.13.559-.532.811-1.199l.226-.598 3.063 1.157-4.312 11.416-3.063-1.155.263-.697c.254-.673.313-1.147.186-1.44-.129-.288-.531-.559-1.198-.81l-7.04-2.66c-.678-.256-1.159-.318-1.44-.187-.284.138-.553.534-.807 1.207l-.263.696-3.063-1.156 3.47-9.188 11.734 4.429"/></svg>