<svg xmlns="http://www.w3.org/2000/svg" viewBox="0 0 13.414 13.285" enable-background="new 0 0 13.414 13.285"><g fill="none" fill-rule="evenodd" stroke="#214497" stroke-miterlimit="10"><path d="m10.391 7.635c1.2.92 1.974 2.154 2.347 3.682.117.477.172.963.174 1.469-4.136 0-8.255 0-12.39 0 .008-.18.009-.355.025-.531.074-.809.276-1.584.632-2.314.46-.943 1.092-1.729 1.907-2.342"/><path d="m6.708 7.357c-1.861.001-3.397-1.517-3.421-3.375-.025-1.88 1.473-3.466 3.384-3.482 1.93-.018 3.465 1.492 3.477 3.416.012 1.951-1.582 3.459-3.44 3.441z"/></g></svg>