<?xml version="1.0" encoding="utf-8"?>
<!-- Generator: Adobe Illustrator 24.0.2, SVG Export Plug-In . SVG Version: 6.00 Build 0)  -->
<svg version="1.1" id="Слой_1" xmlns="http://www.w3.org/2000/svg" xmlns:xlink="http://www.w3.org/1999/xlink" x="0px" y="0px"
	 viewBox="0 0 28 28" style="enable-background:new 0 0 28 28;" xml:space="preserve">
<style type="text/css">
	.st0{fill:#204387;}
	.st1{fill:#FFFFFF;}
</style>
<circle class="st0" cx="14" cy="14" r="14"/>
<path class="st1" d="M14,1.2c6.7-0.2,12.8,5.6,12.8,13c0,5.4-4.5,12.6-12.9,12.6c-6.9,0-12.7-6-12.6-13C1.3,7.6,6.7,1.1,14,1.2z
	 M2.4,14.1c-0.2,5.2,4,11.5,11.6,11.6c6.3,0,11.5-5.2,11.6-11.6c0-6.5-5.2-11.6-11.6-11.7C7.1,2.3,2.2,8.2,2.4,14.1z"/>
<path class="st1" d="M6,14.8c0.2-3.5,2.2-6.2,5.2-7.1c0.9-0.3,1.8-0.3,2.7-0.4c1.9-0.2,3.7-0.4,5.6-0.6c0.3,0,0.5,0,0.5,0.4
	c0.2,2.5,0.6,4.9,0.7,7.4c0.2,2.8-1,5-3.3,6.4c-4.5,2.9-10,0.4-11.2-4.5C6.1,15.8,6.1,15.1,6,14.8z M18.9,7.9c-0.3,0-0.6,0-0.8,0
	c-1.8,0.2-3.7,0.4-5.5,0.6C8,9.2,5.6,14.2,8.1,18.1c0.3,0.5,0.4,0.6,1,0.3c0.7-0.3,1.4-0.6,2-1c3.4-2.3,6-5.3,7.7-9.1
	C18.8,8.2,18.8,8,18.9,7.9z M9.3,19.5c0.1,0.1,0.2,0.2,0.3,0.3c1.5,1.2,3.3,1.4,5.2,1.1c2.5-0.4,4.8-2.9,4.9-5.5
	c0.1-1.4-0.1-2.8-0.2-4.2c0-0.4-0.1-0.9-0.2-1.4C16.9,14.1,13.8,17.5,9.3,19.5z"/>
</svg>
