<?xml version="1.0" encoding="utf-8"?>
<!-- Generator: Adobe Illustrator 24.0.2, SVG Export Plug-In . SVG Version: 6.00 Build 0)  -->
<svg version="1.1" id="Слой_1" xmlns="http://www.w3.org/2000/svg" xmlns:xlink="http://www.w3.org/1999/xlink" x="0px" y="0px"
	 viewBox="0 0 28 28" style="enable-background:new 0 0 28 28;" xml:space="preserve">
<style type="text/css">
	.st0{fill:#FFFFFF;}
</style>
<path class="st0" d="M14,0c7.4-0.2,14.1,6.1,14,14.2c0,6-4.9,13.8-14.2,13.8C6.2,28-0.1,21.4,0,13.8C0.1,6.9,6-0.2,14,0z M1.3,14.1
	c-0.2,5.7,4.4,12.6,12.8,12.7C21,26.8,26.7,21,26.7,14c0-7.1-5.7-12.8-12.7-12.8C6.5,1.2,1.1,7.6,1.3,14.1z"/>
<path class="st0" d="M5.3,14.9c0.2-3.8,2.4-6.8,5.7-7.8c0.9-0.3,1.9-0.4,2.9-0.5C15.9,6.4,18,6.2,20,6c0.4,0,0.5,0,0.6,0.4
	c0.2,2.7,0.6,5.4,0.8,8.1c0.2,3-1.1,5.4-3.7,7.1c-4.9,3.1-10.9,0.4-12.2-5C5.3,15.9,5.3,15.2,5.3,14.9z M19.3,7.3
	c-0.3,0-0.6,0-0.9,0c-2,0.2-4.1,0.4-6.1,0.7c-5,0.7-7.5,6.3-4.9,10.5c0.3,0.5,0.5,0.6,1,0.4c0.8-0.3,1.6-0.7,2.2-1.1
	c3.8-2.5,6.6-5.8,8.4-10C19.2,7.6,19.3,7.5,19.3,7.3z M8.8,20c0.2,0.1,0.3,0.2,0.4,0.3c1.7,1.4,3.6,1.6,5.7,1.2
	c2.8-0.5,5.2-3.2,5.4-6c0.1-1.5-0.2-3.1-0.3-4.7c0-0.5-0.1-1-0.2-1.6C17.2,14.1,13.8,17.8,8.8,20z"/>
</svg>
