<svg version="1.1" xmlns="http://www.w3.org/2000/svg" viewBox="0 0 20.48 20.507" enable-background="new 0 0 20.48 20.507"><g><path fill-rule="evenodd" fill="#ffffff" d="M18.465,20.502c-2.102,0.009-1.892,0.148-2.057-1.841
		c-0.56-6.755-6.182-13.022-12.906-14.313C2.684,4.191,1.85,4.088,1.018,4.038C0.333,3.998-0.017,3.738,0,3.024
		c0.018-0.709,0.004-1.42,0.006-2.132c0-0.625,0.283-0.92,0.938-0.891C10.5,0.42,18.671,7.661,20.189,17.075
		c0.122,0.748,0.228,1.505,0.278,2.26c0.064,1.026-0.084,1.161-1.087,1.167C19.076,20.504,18.77,20.502,18.465,20.502z"/><path fill-rule="evenodd" fill="#ffffff" d="M10.528,20.507c-1.75,0-1.75,0-2.1-1.761
		c-0.705-3.576-3.854-6.441-7.471-6.769C0.299,11.92-0.013,11.654,0,10.985c0.017-0.734-0.004-1.471,0.01-2.207
		C0.017,8.185,0.305,7.93,0.928,7.961c5.717,0.288,10.719,4.911,11.491,10.634C12.676,20.507,12.676,20.507,10.528,20.507z"/><path fill-rule="evenodd" fill="#ffffff" d="M5.304,17.883c-0.017,1.477-1.196,2.635-2.671,2.624
		c-1.465-0.011-2.641-1.211-2.619-2.681c0.021-1.465,1.223-2.653,2.675-2.638C4.139,15.204,5.321,16.421,5.304,17.883z"/></g></svg>