<svg xmlns="http://www.w3.org/2000/svg" viewBox="0 0 425.2 595.3" enable-background="new 0 0 425.2 595.3" xmlns:xlink="http://www.w3.org/1999/xlink">
 <defs>
  <linearGradient id="SVGID_4_" gradientUnits="userSpaceOnUse" y1="326.65" x2="0" y2="617.95" xlink:href="#SVGID_2_"/>
  <linearGradient id="SVGID_5_" gradientUnits="userSpaceOnUse" y1="80.58" x2="0" y2="645.2" xlink:href="#SVGID_2_"/>
  <linearGradient id="SVGID_3_" gradientUnits="userSpaceOnUse" y1="130.56" x2="0" y2="348.36" xlink:href="#SVGID_2_"/>
  <linearGradient id="SVGID_6_" gradientUnits="userSpaceOnUse" x1="206.96" y1="498.39" x2="215.9" y2="97.01" xlink:href="#SVGID_1_"/>
  <linearGradient id="SVGID_1_" gradientUnits="userSpaceOnUse" x1="201.05" y1="500.31" x2="215.95" y2="99.12">
   <stop stop-color="#959595"/>
   <stop offset="1" stop-color="#d7d6d6"/>
  </linearGradient>
  <linearGradient id="SVGID_2_" gradientUnits="userSpaceOnUse" y1="207.68" x2="0" y2="853.23">
   <stop stop-color="#3770b7"/>
   <stop offset="1" stop-color="#29398f"/>
  </linearGradient>
 </defs>
 <path d="m240 306.4c21-9.6 46.9-5.2 63.4 12.5l89.6 96.5c20.6 22.2 19.3 57.3-2.9 77.9-22.3 20.6-57.3 19.3-77.9-2.9l-89.8-96.4c-16.5-17.8-19-43.9-7.9-64.1l-125.6-135.4c-3.5.5-6.9-.1-9.7-1.5l-32.4-17c-.8-.4-1.3-1-1.9-1.7-1-.8-1.9-1.8-2.5-3l-28.1-48.2c-4.7-8-5.8-17.5 1-23.8l8.9-8.4c6.8-6.3 16.1-4.2 23.8.9l46.6 31c1.1.7 2 1.7 2.8 2.7.6.5 1.2 1.1 1.5 2l13.9 34.1c1.1 2.7 1.5 5.8 1 8.9l126.2 135.9" fill="url(#SVGID_1_)"/>
 <path d="m215.6 402.6c-4.2-4.4-7.7-9.2-10.7-14.4-46.3-3.9-83.4-42.8-83.5-89.7-.1-14.3 3.2-27.8 8.8-39.9l-43.8-45.8c-11.6 17.8-18.9 35.4-22.9 54.4-16 0-31.6 0-47.2 0-10.3 0-16.4 6.2-16.5 16.6 0 9.3 0 18.6 0 28 0 10 6.3 16.2 16.2 16.2 11.6 0 23 0 34.7 0 4.2 0 8.5 0 12.7 0 4.1 19.3 11.5 36.9 22.1 53.3v.1c-11.3 11.2-22.4 22.2-33.4 33.4-7.3 7.3-7.3 16 0 23.5 6.3 6.4 12.7 12.8 19.1 19.1 8 8 16.3 8 24.4.1 10-10 20-19.8 29.8-29.8 2.2-2.3 3.7-2.8 6.7-.9 14 9 29.4 15.4 45.6 19 3.5.8 4.1 2.2 4.1 5.5-.2 14.4-.2 28.7-.1 43.1.1 9.8 6.3 16 16 16.1 9 .1 18 0 27 0 12 0 17.8-5.7 17.8-17.6 0-13.7.2-27.2 0-40.8-.1-3.8.6-5.6 4.9-6.5 2.3-.5 4.6-1.1 6.9-1.7l-38.7-41.3" fill="url(#SVGID_2_)"/>
 <path d="m98.3 175.2l1.3-7.7c0-.1 0-.2-.1-.3l-13.6-31.9-.1-.1-4.7-3c-3.2.6-6.4 2.6-9.5 5.6-6.3 6.2-12.5 12.5-18.8 18.8 0 0 0 0-.1.1l3.8 6.3.5.4 30.5 15.3 8.3-1.5 5.8 6.1 47 49.1c.7-.7 1.5-1.4 2.3-2.1l-52.6-55.1" fill="url(#SVGID_3_)"/>
 <path d="m292.6 426.4c2.9-1.9 4.4-1.4 6.7.9 9.9 10.1 19.9 19.9 29.8 29.8 8 8 16.3 8 24.4 0 6.4-6.4 12.8-12.7 19.1-19.1 7.3-7.4 7.3-16.1 0-23.5-9.8-9.9-19.7-19.7-29.5-29.5-1.3-1.3-2.6-2.6-3.8-4 1.1-1.8 2.2-3.5 3.3-5.3l-44.8-46.7c-9.5 25.9-30.5 46.2-56.7 54.9l44.6 46.7c2.3-1.3 4.6-2.7 6.9-4.2" fill="url(#SVGID_4_)"/>
 <path d="m182.1 148.8c-17 3.5-32.8 9.9-47.8 18.7l43.9 45.9c10.5-4.3 22-6.6 34.1-6.7 48.8-.2 88.7 38.2 91.1 86.4 5.3 3.2 10.3 7.1 14.7 11.8l38.6 40.4c1.9-5.6 3.4-11.3 4.7-17.1 16.2 0 32 0 47.8 0 9.4-.1 15.7-6.4 15.8-15.8.1-9.8.4-19.7-.2-29.4-.3-3.8-1.9-8.4-4.5-10.9-2.8-2.6-7.4-4.4-11.4-4.5-15.7-.5-31.5-.2-47.6-.2-4.1-19.3-11.5-36.9-22.1-53.4 11.4-11.3 22.5-22.3 33.5-33.4 7.2-7.3 7.2-15.9.1-23-6.5-6.6-13.1-13.2-19.8-19.8-7.6-7.4-16.1-7.4-23.8.2-9.9 9.8-19.7 19.7-29.5 29.5-1.2 1.2-2.5 2.4-3.7 3.5-16.5-10.9-34.1-18-53-22.1 0-16 0-31.7 0-47.3 0-10-6.2-16.3-16.2-16.3-8.4 0-16.7 0-25.1 0-14.3-.1-19.5 5.1-19.5 19.3-.1 14.4-.1 29.1-.1 44.2" fill="url(#SVGID_5_)"/>
 <path d="m243.1 303.9c20.8-10 46.8-5.9 63.5 11.6l91.1 95.2c20.9 22 20.1 57-1.7 78-22 21-57 20.2-78-1.7l-91.1-95.3c-16.8-17.6-19.7-43.7-8.8-64.1l-127.7-133.3c-3.5.6-6.9.1-9.8-1.3l-32.7-16.4c-.8-.4-1.4-1-1.9-1.7-1-.8-1.9-1.8-2.6-2.9l-28.7-47.9c-4.8-7.9-6.2-17.5.5-23.8l8.8-8.4c6.7-6.4 16.1-4.5 23.8.5l47 30.3c1.1.7 2 1.7 2.8 2.6.6.5 1.2 1.1 1.6 1.9l14.5 33.9c1.1 2.6 1.7 5.7 1.1 8.9l128.3 133.9" fill="url(#SVGID_6_)"/>
</svg>
