<?xml version="1.0" encoding="utf-8"?>
<!-- Generator: Adobe Illustrator 24.2.1, SVG Export Plug-In . SVG Version: 6.00 Build 0)  -->
<svg version="1.1" id="Слой_1" xmlns="http://www.w3.org/2000/svg" xmlns:xlink="http://www.w3.org/1999/xlink" x="0px" y="0px"
	 viewBox="0 0 36 58.9" style="enable-background:new 0 0 36 58.9;" xml:space="preserve">
<style type="text/css">
	.st0{fill:none;stroke:#214287;stroke-miterlimit:10;}
	.st1{fill:#214287;}
</style>
<path class="st0" d="M0.5,55.4V3.5c0-1.6,1.3-3,3-3h29c1.6,0,3,1.3,3,3v51.9c0,1.6-1.3,3-3,3h-29C1.8,58.4,0.5,57,0.5,55.4z"/>
<rect x="-16.3" y="25.3" transform="matrix(-1.836970e-16 1 -1 -1.836970e-16 42.1015 16.7763)" class="st1" width="57.9" height="8.4"/>
<g>
	<path class="st1" d="M26.6,14.2h1.7c1.3,0,2.4-1.1,2.4-2.4V7.1c0-1.3-1.1-2.4-2.4-2.4h-1.7V14.2z"/>
	<path class="st1" d="M25.2,4.7h-1.7c-1.3,0-2.4,1.1-2.4,2.4v4.8c0,1.3,1.1,2.4,2.4,2.4h1.7V4.7z"/>
</g>
<line class="st0" x1="28.5" y1="18.6" x2="28.5" y2="45.5"/>
<line class="st0" x1="23.8" y1="18.6" x2="23.8" y2="45.5"/>
</svg>
