<svg xmlns="http://www.w3.org/2000/svg" viewBox="0 0 77.082 90" enable-background="new 0 0 77.082 90"><defs><linearGradient id="SVGID_1_" gradientUnits="userSpaceOnUse" y1="77.54" x2="0" y2="3.998"><stop stop-color="#0e3e84"/><stop offset="1" stop-color="#3f8ded"/></linearGradient><linearGradient id="SVGID_2_" gradientUnits="userSpaceOnUse" x1="38.542" y1="672.74" x2="38.541" y2="-589.84"><stop stop-color="#0e3e84"/><stop offset=".463" stop-color="#19509c"/><stop offset=".474" stop-color="#1b53a1"/><stop offset=".486" stop-color="#215dae"/><stop offset=".499" stop-color="#2c6ec4"/><stop offset=".51" stop-color="#3882df"/><stop offset="1" stop-color="#3f8ded"/></linearGradient></defs><path fill="url(#SVGID_1_)" d="m43.648 41.775c3.785-1.902 8.543-1.277 11.695 1.872l17.06 17.06c3.926 3.93 3.926 10.355 0 14.283-3.936 3.932-10.359 3.932-14.287 0l-17.07-17.06c-3.146-3.148-3.773-7.908-1.87-11.691l-23.923-23.924c-.643.132-1.262.036-1.792-.211l-6.06-2.881c-.146-.07-.261-.171-.346-.297-.183-.138-.347-.316-.48-.528l-5.45-8.635c-.907-1.434-1.198-3.165 0-4.365l1.581-1.581c1.2-1.2 2.919-.887 4.365 0l8.731 5.355c.215.129.391.293.533.476.122.083.225.2.293.35l2.782 6.157c.218.485.319 1.043.237 1.625l23.996 23.993"/><path fill="url(#SVGID_2_)" d="m2.843 61.38l22.08-22.08 9.71 9.709c-.642 2.65-.59 5.406.171 7.973l-18.18 18.18c-3.79 3.785-9.988 3.785-13.777 0-3.79-3.793-3.79-9.994-.0001-13.781m33.44-33.443l4.071-4.071c-1.913-6.381-.399-13.522 4.57-18.491 5.21-5.21 12.801-6.625 19.404-4.273l-9.73 9.729c-3.207 3.205-3.207 8.451 0 11.656 3.207 3.208 8.451 3.208 11.654 0l9.73-9.727c2.35 6.604.938 14.189-4.271 19.399-4.547 4.544-10.898 6.201-16.829 4.991-2.985-.931-6.237-.897-9.301.087l-9.298-9.3m-29.479 36.785c-1.767 1.766-1.767 4.633 0 6.396 1.769 1.77 4.633 1.77 6.4 0 1.765-1.766 1.765-4.631 0-6.396-1.766-1.768-4.631-1.768-6.4 0"/></svg>