<svg xmlns="http://www.w3.org/2000/svg" viewBox="0 0 186.602 156.165" enable-background="new 0 0 186.602 156.165">
 <defs>
  <linearGradient id="SVGID_1_" gradientUnits="userSpaceOnUse" y1="143.44" x2="0" y2="12.742">
   <stop stop-color="#103b81"/>
   <stop offset="1" stop-color="#3f8ded"/>
  </linearGradient>
  <linearGradient id="SVGID_2_" gradientUnits="userSpaceOnUse" y1="153.17" x2="0" y2="89.49">
   <stop stop-color="#0e3e84"/>
   <stop offset="1" stop-color="#3f8ded"/>
  </linearGradient>
  <linearGradient id="SVGID_3_" gradientUnits="userSpaceOnUse" y1="668.56" x2="0" y2="-424.72">
   <stop stop-color="#0e3e84"/>
   <stop offset=".463" stop-color="#19509c"/>
   <stop offset=".474" stop-color="#1b53a1"/>
   <stop offset=".486" stop-color="#215dae"/>
   <stop offset=".499" stop-color="#2c6ec4"/>
   <stop offset=".51" stop-color="#3882df"/>
   <stop offset="1" stop-color="#3f8ded"/>
  </linearGradient>
 </defs>
 <path fill="url(#SVGID_1_)" d="m28.5 156.16h.9v-73.2h127.8v73.2h.899c9.239 0 16.8-7.561 16.8-16.801v-79.8h6.601c2.807 0 5.102-2.295 5.102-5.1v-13.663c0-2.806-2.502-4.048-5.102-5.101-29.398-11.9-58.8-23.8-88.2-35.699l-88.2 35.699c-2.599 1.053-5.1 2.297-5.1 5.101v13.665c0 2.804 2.295 5.1 5.101 5.1h6.601v79.8c-.002 9.239 7.558 16.799 16.798 16.799m50.1-109.51h29.4v13.5h-29.4v-13.5m49.2 0h29.4v13.5h-29.4v-13.5m-98.48 0h29.399v13.5h-29.399v-13.5"/>
 <path fill="url(#SVGID_2_)" d="m97.43 122.2c3.277-1.646 7.397-1.105 10.127 1.621l14.771 14.772c3.399 3.402 3.399 8.966 0 12.366-3.408 3.403-8.97 3.403-12.37 0l-14.782-14.771c-2.723-2.726-3.266-6.847-1.618-10.123l-20.715-20.715c-.557.113-1.093.03-1.552-.183l-5.247-2.497c-.126-.058-.226-.148-.299-.256-.159-.12-.301-.273-.417-.457l-4.718-7.477c-.786-1.242-1.038-2.742 0-3.78l1.369-1.369c1.039-1.039 2.527-.768 3.779 0l7.56 4.638c.187.11.339.254.461.413.106.07.195.172.254.303l2.409 5.33c.188.42.276.903.205 1.407l20.778 20.775"/>
 <path fill="url(#SVGID_3_)" d="m62.09 139.18l19.12-19.12 8.408 8.407c-.556 2.295-.511 4.683.148 6.903l-15.741 15.742c-3.282 3.277-8.648 3.277-11.93 0-3.281-3.283-3.281-8.653 0-11.933m28.954-28.957l3.525-3.525c-1.657-5.525-.347-11.708 3.957-16.01 4.511-4.51 11.08-5.735 16.801-3.699l-8.425 8.425c-2.776 2.774-2.776 7.316 0 10.09 2.777 2.776 7.317 2.776 10.09 0l8.424-8.423c2.037 5.718.813 12.287-3.697 16.798-3.938 3.934-9.436 5.368-14.572 4.321-2.584-.807-5.399-.776-8.05.075l-8.05-8.05m-25.525 31.853c-1.53 1.529-1.53 4.01 0 5.537 1.531 1.533 4.01 1.533 5.542 0 1.528-1.528 1.528-4.01 0-5.537-1.53-1.532-4.01-1.532-5.542 0"/>
</svg>
