<?xml version="1.0" encoding="utf-8"?>
<!-- Generator: Adobe Illustrator 24.2.1, SVG Export Plug-In . SVG Version: 6.00 Build 0)  -->
<svg version="1.1" id="Слой_1" xmlns="http://www.w3.org/2000/svg" xmlns:xlink="http://www.w3.org/1999/xlink" x="0px" y="0px"
	 viewBox="0 0 61.4 59.7" style="enable-background:new 0 0 61.4 59.7;" xml:space="preserve">
<style type="text/css">
	.st0{fill:#214287;}
	.st1{fill:#214287;stroke:#FFFFFF;stroke-miterlimit:10;}
	.st2{fill:#FFFFFF;}
	.st3{fill:#FFFFFF;stroke:#204386;stroke-miterlimit:10;}
	.st4{fill:none;stroke:#204386;stroke-miterlimit:10;}
</style>
<path class="st0" d="M44.2,54.1c-0.1-9.8-0.4-20.8-0.9-31.2c-0.3-6.7-0.7-13.4-1.1-19.9c-0.1-1-1-1.7-1.8-1.7
	c-0.9-0.1-1.8-0.1-2.7-0.2c-1.2-0.1-2.4-0.1-3.5-0.1c-1.1,0-2.3,0-3.5,0.1c-0.9,0-1.8,0.1-2.7,0.2c-0.8,0.1-1.7,0.7-1.8,1.7
	C26,9.6,25.6,16.2,25.3,23c-0.5,10.3-0.8,21.3-0.9,31.2c0,2,0.6,3.7,3.4,4.1c2.2,0.4,4.2,0.4,6.4,0.3c2.3,0.1,4.3,0,6.4-0.3
	C43.6,57.8,44.3,56.1,44.2,54.1z"/>
<path class="st1" d="M39.8,1.3c0-0.3-0.1-0.5-0.4-0.6c-0.5,0-1.1-0.1-1.6-0.1c-1.2-0.1-2.4-0.1-3.5-0.1c-1.1,0-2.3,0-3.5,0.1
	c-0.6,0-1.1,0.1-1.6,0.1C29,0.8,28.9,1,28.9,1.3l-2.5,56.2c0,0.4,0.1,0.7,0.3,1c0.4,0.2,0.8,0.3,1.3,0.4c2.2,0.4,4.2,0.4,6.4,0.3
	c2.3,0.1,4.3,0,6.4-0.3c0.5-0.1,0.9-0.2,1.3-0.4c0.2-0.3,0.3-0.7,0.3-1L39.8,1.3z"/>
<rect x="29.8" y="7.4" class="st2" width="9.1" height="0.8"/>
<g>
	<path class="st3" d="M32.5,21.9c0.6-0.7,0.5-1.7-0.2-2.2L20.5,9.5C19.9,9,18.9,9,18.3,9.7L0.9,29.8C0.3,30.4,0.4,31.4,1,32
		l11.7,10.2c0.7,0.6,1.7,0.5,2.2-0.2L32.5,21.9L32.5,21.9z"/>
	<path class="st4" d="M25.7,18.6c-0.2,0.3-0.7,0.3-1,0.1l-2.9-2.5c-0.3-0.3-0.3-0.7-0.1-1c0.3-0.3,0.7-0.3,1-0.1l2.9,2.5
		C25.9,17.9,25.9,18.3,25.7,18.6L25.7,18.6z"/>
</g>
</svg>
