<svg xmlns="http://www.w3.org/2000/svg" viewBox="2.25 1.52 28.547 22.326" style="enable-background:new 2.25 1.52 28.547 22.326">
 <path d="m2.25 23.846h1.859v-14.421-.143l.001-.005h24.808l.008.005v14.563h1.862v-15.598h-.009c-.222-2.778-14.267-6.727-14.267-6.727s-14.04 3.949-14.266 6.727h-.005v.151 15.448" style="fill:#999"/>
 <path d="m5.65 23.839h4.454c.25 0 .456-.203.456-.454v-2.776c0-.249-.206-.451-.456-.451h-4.454c-.251 0-.456.202-.456.451v2.776c-.0001.251.205.454.456.454" style="fill:#999"/>
 <path d="m12.274 23.839h4.458c.25 0 .452-.203.452-.454v-2.776c0-.249-.203-.451-.452-.451h-4.458c-.25 0-.452.202-.452.451v2.776c-.0001.251.201.454.452.454" style="fill:#999"/>
 <path d="m22.738 23.839h4.459c.251 0 .453-.203.453-.454v-2.776c0-.249-.202-.451-.453-.451h-4.459c-.248 0-.452.202-.452.451v2.776c0 .251.204.454.452.454" style="fill:#999"/>
 <path d="m5.65 18.789h4.454c.25 0 .456-.205.456-.455v-2.775c0-.25-.206-.454-.456-.454h-4.454c-.251 0-.456.204-.456.454v2.775c-.0001.25.205.455.456.455" style="fill:#999"/>
 <path d="m12.274 18.789h4.458c.25 0 .452-.205.452-.455v-2.775c0-.25-.203-.454-.452-.454h-4.458c-.25 0-.452.204-.452.454v2.775c-.0001.25.201.455.452.455" style="fill:#999"/>
 <path d="m22.738 18.789h4.459c.251 0 .453-.205.453-.455v-2.775c0-.25-.202-.454-.453-.454h-4.459c-.248 0-.452.204-.452.454v2.775c0 .25.204.455.452.455" style="fill:#999"/>
 <path d="m5.65 13.863h4.454c.25 0 .456-.204.456-.455v-2.774c0-.251-.206-.456-.456-.456h-4.454c-.251 0-.456.205-.456.456v2.774c-.0001.25.205.455.456.455" style="fill:#999"/>
</svg>
