<svg xmlns="http://www.w3.org/2000/svg" viewBox="0 0 160.727 162.3" enable-background="new 0 0 160.727 162.3"><defs><linearGradient id="SVGID_1_" gradientUnits="userSpaceOnUse" y1="163.1" x2="0" y2="-.795"><stop stop-color="#0e3e84"/><stop offset="1" stop-color="#3f8ded"/></linearGradient></defs><path fill-rule="evenodd" fill="url(#SVGID_1_)" d="m160.73 162.3h-101.73c27.923-2.823 49.716-26.399 49.716-55.07 0-5.603-.835-11.01-2.383-16.11.854-.366 1.686-.774 2.492-1.223l7.733 7.733 10.547-10.547-7.734-7.734c.992-1.784 1.79-3.69 2.361-5.693h10.934v-14.915h-10.935c-.572-2-1.369-3.909-2.361-5.692l7.734-7.734-10.547-10.547-7.735 7.735c-1.784-.992-3.69-1.79-5.692-2.361v-10.935h-14.914v10.935c-2 .572-3.908 1.369-5.691 2.361l-7.735-7.735-10.548 10.546 7.734 7.735c-.313.563-.608 1.14-.881 1.728-5.565-1.881-11.528-2.9-17.729-2.9-8.03 0-15.652 1.71-22.537 4.783v-13.865c.0001-23.542 19.262-42.803 42.804-42.803h87.1v162.3m-107.36-1.703c29.472 0 53.36-23.892 53.36-53.36 0-29.472-23.892-53.36-53.36-53.36-29.472 0-53.36 23.891-53.36 53.36 0 29.472 23.891 53.36 53.36 53.36m0-41.83c6.37 0 11.533-5.164 11.533-11.533s-5.163-11.534-11.533-11.534c-6.37 0-11.534 5.164-11.534 11.534s5.164 11.533 11.534 11.533m0 11.53c12.738 0 23.06-10.326 23.06-23.06s-10.325-23.06-23.06-23.06-23.06 10.326-23.06 23.06 10.325 23.06 23.06 23.06m46.651-52.863c4.5-1.742 7.692-6.111 7.692-11.227 0-6.647-5.388-12.03-12.03-12.03-4.986 0-9.263 3.03-11.09 7.352 6.151 4.209 11.411 9.625 15.433 15.91"/></svg>