<svg xmlns="http://www.w3.org/2000/svg" viewBox="0 0 40.664 39.646" style="enable-background:new 0 0 40.664 39.646">
 <defs>
  <linearGradient id="SVGID_1_" gradientUnits="userSpaceOnUse" y1="-347.84" x2="0" y2="-387.84" gradientTransform="matrix(1.1554.00001 0-1.1553-743.91-401.18)">
   <stop style="stop-color:#3770b7"/>
   <stop offset="1" style="stop-color:#29398f"/>
  </linearGradient>
 </defs>
 <path d="m1 24.483c1.976-.704 3.863-1.376 5.75-2.05 4.367-1.561 8.733-3.123 13.1-4.675.183-.066.427-.1.604-.036 6.224 2.21 12.443 4.433 18.663 6.655.07.023.139.056.268.108-.135.061-.223.107-.315.142-6.173 2.206-12.345 4.414-18.521 6.606-.202.072-.476.074-.679.002-6.2-2.2-12.396-4.416-18.592-6.63-.072-.021-.136-.056-.282-.122" style="fill:#999"/>
 <path d="m10.598 29.441c1.068.377 2.095.737 3.119 1.104 2.101.748 4.198 1.502 6.302 2.239.144.05.342.017.493-.037 3.047-1.076 6.091-2.161 9.136-3.243.045-.018.096-.021.172-.039.001.124.021.229.021.337.002 2.422-.004 4.844.008 7.266.002.261-.096.369-.314.474-3.16 1.501-6.486 2.201-9.985 2.099-3.038-.089-5.925-.796-8.666-2.104-.174-.083-.313-.144-.312-.396.013-2.497.008-4.994.009-7.492-.002-.053.007-.103.017-.208" style="fill:#999"/>
 <path d="m34.835 27.647c0 1.248.002 2.438 0 3.629 0 .339.002.679-.002 1.018-.008.444-.008.836.39 1.206.506.472.394 1.35-.138 1.813-.158.142-.178.258-.138.451.197.931.376 1.865.562 2.799.087.436.052.48-.443.521-.057-.313-.113-.629-.171-.945-.019-.004-.038-.006-.058-.001-.063.338-.123.675-.203 1.1-.564-.052-1.121-.092-1.676-.161-.217-.026-.297-.167-.244-.409.205-.954.399-1.912.572-2.873.027-.153-.031-.368-.129-.491-.503-.619-.455-1.419.115-1.967.114-.11.206-.31.208-.468.017-1.468.015-2.937.005-4.402-.003-.235.055-.364.297-.434.335-.094.657-.232 1.053-.377" style="fill:#999"/>
 <path d="m24.816 12.867c0-2.746.0001-5.494-.0001-8.24 0-.422.104-.808.461-1.046.197-.132.456-.23.688-.233 2.646-.016 5.295-.009 7.94-.012.339 0 .613.128.839.373 1.36 1.485 2.721 2.975 4.077 4.461.238.258.341.563.341.909 0 4.03.004 8.07 0 12.1 0 .809-.486 1.284-1.289 1.286-3.91-.0001-7.817-.0001-11.729-.0001-.839 0-1.327-.489-1.327-1.331-.0001-2.755 0-5.51 0-8.266zm7.201-.762c-1.493 0-2.986-.002-4.48.002-.102 0-.283.029-.289.066-.028.202-.047.416 0 .609.017.063.235.112.361.112 2.895.005 5.791.004 8.686.005.49-.0001.47.063.482-.49.006-.236-.063-.313-.305-.311-1.487.012-2.971.007-4.455.007zm1.9-6.95c-.019.074-.033.104-.033.135 0 1.026-.006 2.057.004 3.085.004.364.232.586.6.589.914.009 1.825.003 2.738.002.048-.0001-2.143-2.543-3.309-3.811zm-2.72 13.325c-1.228 0-2.455-.003-3.683.002-.095 0-.265.031-.269.065-.026.201-.043.413 0 .608.012.063.217.112.334.112 2.373.006 4.744.006 7.116.006.483 0 .472 0 .485-.487.006-.233-.059-.315-.307-.313-1.222.014-2.45.007-3.676.007zm-.803-3.187c-.962 0-1.922-.003-2.885.003-.092 0-.26.034-.264.066-.025.203-.043.418.004.609.016.065.236.11.362.11 1.815.007 3.632.006 5.447.004.558 0 .517.067.528-.519.007-.22-.065-.282-.282-.279-.969.012-1.94.006-2.91.006zm-1.26-6.375c-.557 0-1.111.002-1.668-.003-.191-.003-.281.065-.258.263.004.024 0 .049 0 .074 0 .46 0 .46.447.461.954 0 1.909 0 2.862 0 .532 0 .522-.0001.528-.525.002-.206-.065-.276-.271-.273-.545.008-1.093.003-1.64.003z" style="fill:url(#SVGID_1_);stroke-miterlimit:10;stroke:#fff;stroke-width:5"/>
 <path d="m24.816 12.867c0-2.746.0001-5.494-.0001-8.24 0-.422.104-.808.461-1.046.197-.132.456-.23.688-.233 2.646-.016 5.295-.009 7.94-.012.339 0 .613.128.839.373 1.36 1.485 2.721 2.975 4.077 4.461.238.258.341.563.341.909 0 4.03.004 8.07 0 12.1 0 .809-.486 1.284-1.289 1.286-3.91-.0001-7.817-.0001-11.729-.0001-.839 0-1.327-.489-1.327-1.331-.0001-2.755 0-5.51 0-8.266m7.201-.762c-1.493 0-2.986-.002-4.48.002-.102 0-.283.029-.289.066-.028.202-.047.416 0 .609.017.063.235.112.361.112 2.895.005 5.791.004 8.686.005.49-.0001.47.063.482-.49.006-.236-.063-.313-.305-.311-1.487.012-2.971.007-4.455.007m1.9-6.95c-.019.074-.033.104-.033.135 0 1.026-.006 2.057.004 3.085.004.364.232.586.6.589.914.009 1.825.003 2.738.002.049 0 .098-.023.166-.039-1.164-1.264-2.309-2.504-3.475-3.772m-2.72 13.325c-1.228 0-2.455-.003-3.683.002-.095 0-.265.031-.269.065-.026.201-.043.413 0 .608.012.063.217.112.334.112 2.373.006 4.744.006 7.116.006.483 0 .472 0 .485-.487.006-.233-.059-.315-.307-.313-1.222.014-2.45.007-3.676.007m-.803-3.187c-.962 0-1.922-.003-2.885.003-.092 0-.26.034-.264.066-.025.203-.043.418.004.609.016.065.236.11.362.11 1.815.007 3.632.006 5.447.004.558 0 .517.067.528-.519.007-.22-.065-.282-.282-.279-.969.012-1.94.006-2.91.006m-1.26-6.375c-.557 0-1.111.002-1.668-.003-.191-.003-.281.065-.258.263.004.024 0 .049 0 .074 0 .46 0 .46.447.461.954 0 1.909 0 2.862 0 .532 0 .522-.0001.528-.525.002-.206-.065-.276-.271-.273-.545.008-1.093.003-1.64.003" style="fill:#999"/>
</svg>
