<?xml version="1.0" encoding="utf-8"?>
<!-- Generator: Adobe Illustrator 23.0.3, SVG Export Plug-In . SVG Version: 6.00 Build 0)  -->
<svg version="1.1" id="Слой_1" xmlns="http://www.w3.org/2000/svg" xmlns:xlink="http://www.w3.org/1999/xlink" x="0px" y="0px"
	 viewBox="0 0 142.5 142.3" style="enable-background:new 0 0 142.5 142.3;" xml:space="preserve">
<style type="text/css">
	.st0{fill:url(#SVGID_1_);}
	.st1{fill:url(#SVGID_2_);}
	.st2{fill:url(#SVGID_3_);}
	.st3{fill:url(#SVGID_4_);}
	.st4{fill:url(#SVGID_5_);}
	.st5{fill:url(#SVGID_6_);}
	.st6{fill:url(#SVGID_7_);}
	.st7{fill:url(#SVGID_8_);}
	.st8{fill:url(#SVGID_9_);}
</style>
<g>
	<linearGradient id="SVGID_1_" gradientUnits="userSpaceOnUse" x1="5.5319" y1="99.5068" x2="31.1999" y2="99.5068">
		<stop  offset="0" style="stop-color:#0E3E84"/>
		<stop  offset="1" style="stop-color:#3F8DED"/>
	</linearGradient>
	<polygon class="st0" points="16.7,72.2 24.2,59.9 5.5,59.9 5.5,139.1 31.2,139.1 31.2,59.9 30,59.9 20.9,74.8 	"/>
	<linearGradient id="SVGID_2_" gradientUnits="userSpaceOnUse" x1="41.1528" y1="23.2731" x2="66.8207" y2="23.2731">
		<stop  offset="0" style="stop-color:#0E3E84"/>
		<stop  offset="1" style="stop-color:#3F8DED"/>
	</linearGradient>
	<polygon class="st1" points="66.8,41.8 66.8,4.8 41.2,4.8 41.2,32.1 54.2,10.7 	"/>
	<linearGradient id="SVGID_3_" gradientUnits="userSpaceOnUse" x1="41.1528" y1="80.4438" x2="66.8207" y2="80.4438">
		<stop  offset="0" style="stop-color:#0E3E84"/>
		<stop  offset="1" style="stop-color:#3F8DED"/>
	</linearGradient>
	<polygon class="st2" points="41.2,41.7 41.2,139.1 66.8,139.1 66.8,55.1 53.3,21.8 	"/>
	<linearGradient id="SVGID_4_" gradientUnits="userSpaceOnUse" x1="90.0275" y1="102.2618" x2="101.4483" y2="102.2618">
		<stop  offset="0" style="stop-color:#0E3E84"/>
		<stop  offset="1" style="stop-color:#3F8DED"/>
	</linearGradient>
	<polygon class="st3" points="101.4,99 90,99 92.7,105.5 	"/>
	<linearGradient id="SVGID_5_" gradientUnits="userSpaceOnUse" x1="76.5117" y1="119.0387" x2="102.1796" y2="119.0387">
		<stop  offset="0" style="stop-color:#0E3E84"/>
		<stop  offset="1" style="stop-color:#3F8DED"/>
	</linearGradient>
	<polygon class="st4" points="84.6,99 76.5,99 76.5,139.1 102.2,139.1 102.2,104.7 90.5,113.4 	"/>
	<linearGradient id="SVGID_6_" gradientUnits="userSpaceOnUse" x1="111.6086" y1="107.1664" x2="137.2766" y2="107.1664">
		<stop  offset="0" style="stop-color:#0E3E84"/>
		<stop  offset="1" style="stop-color:#3F8DED"/>
	</linearGradient>
	<polygon class="st5" points="111.6,75.3 111.6,91.4 125.1,81.4 128,85.4 111.6,97.7 111.6,139.1 137.3,139.1 137.3,75.3 	"/>
	<linearGradient id="SVGID_7_" gradientUnits="userSpaceOnUse" x1="101.4483" y1="98.0581" x2="111.6086" y2="98.0581">
		<stop  offset="0" style="stop-color:#0E3E84"/>
		<stop  offset="1" style="stop-color:#3F8DED"/>
	</linearGradient>
	<polygon class="st6" points="101.4,99 102.2,99 102.2,104.7 111.6,97.7 111.6,91.4 	"/>
	<linearGradient id="SVGID_8_" gradientUnits="userSpaceOnUse" x1="24.1539" y1="46.0356" x2="41.1528" y2="46.0356">
		<stop  offset="0" style="stop-color:#0E3E84"/>
		<stop  offset="1" style="stop-color:#3F8DED"/>
	</linearGradient>
	<polygon class="st7" points="24.2,59.9 30,59.9 41.2,41.7 41.2,32.1 	"/>
	<linearGradient id="SVGID_9_" gradientUnits="userSpaceOnUse" x1="66.8207" y1="70.3795" x2="90.0275" y2="70.3795">
		<stop  offset="0" style="stop-color:#0E3E84"/>
		<stop  offset="1" style="stop-color:#3F8DED"/>
	</linearGradient>
	<polygon class="st8" points="66.8,41.8 66.8,55.1 84.6,99 90,99 	"/>
</g>
</svg>
