<svg xmlns="http://www.w3.org/2000/svg" viewBox="278.64 404.445 38 33" enable-background="new 278.64 404.445 38 33">
 <path fill="#999" d="m311.42 422.26h-28.16c-.552 0-3.25 8.875-3.25 8.875v4.313c0 .553.448 1 1 1h32.688c.553 0 1-.447 1-1v-4.313c0 0-2.729-8.875-3.282-8.875"/>
 <path fill="#fff" d="m311 423.12h-27.27c-.529 0-2.957 8.491-2.957 8.491 0 .529.428.957.957.957h31.27c.529 0 .957-.428.957-.957 0 0-2.428-8.491-2.957-8.491"/>
 <path fill="#999" d="m312.58 407.13c0-.552-.447-1-1-1h-28.563c-.552 0-1 .448-1 1l1 13.813c0 .553.448 1 1 1h26.563c.553 0 1-.447 1-1l1-13.813"/>
 <path fill="#fff" d="m311.73 407.42c0-.504-.425-.913-.95-.913h-27.14c-.524 0-.95.409-.95.913l.95 12.611c0 .505.426.913.95.913h25.24c.525 0 .95-.408.95-.913l.951-12.611"/>
 <path fill="#999" d="m312.35 406.51l-1.088-2.063h-28.25l-.908 2.274 1-.007c-.023.101-.037.206-.037.315l.891 11.809c0 .749.625 1.358 1.393 1.358h23.71c.768 0 1.393-.609 1.392-1.32l.894-11.884c0-.168-.035-.327-.093-.475l1.094-.007m-2.395.125c.217 0 .393.161.394.32l-.894 11.884c0 .197-.176.358-.393.358h-23.71c-.216 0-.393-.161-.394-.396l-.891-11.809c0-.12.069-.221.168-.286l10.273-.072h15.447z"/>
 <path fill="#999" d="m302.12 429.98h-9.53l1-6.38h7.53z"/>
 <path fill="#999" d="m292.59 430.44h9.531v1.656h-9.531z"/>
 <path fill="#999" d="m288.07 428.68h-4.02l1.13-3.88h3.73z"/>
 <path fill="#999" d="m284.05 428.97h4.02v1.01h-4.02z"/>
 <path fill="#999" d="m288.99 426.13l-.73 3.56v-1.01l.73-3.56z"/>
 <path fill="#999" d="m306.46 428.7h4.01l-1.12-3.88h-3.73z"/>
 <path fill="#999" d="m306.46 428.99h4.02v1.01h-4.02z"/>
 <path fill="#999" d="m305.53 426.15l.73 3.56v-1.01l-.73-3.56z"/>
</svg>
