<svg xmlns="http://www.w3.org/2000/svg" viewBox="0 0 74.213 84.747" enable-background="new 0 0 74.213 84.747" xmlns:xlink="http://www.w3.org/1999/xlink"><defs><linearGradient id="SVGID_8_" gradientUnits="userSpaceOnUse" y1="46.2" x2="0" y2="-20.318" xlink:href="#SVGID_2_"/><linearGradient id="SVGID_13_" gradientUnits="userSpaceOnUse" y1="46.2" x2="0" y2="-20.31" xlink:href="#SVGID_2_"/><linearGradient id="SVGID_9_" gradientUnits="userSpaceOnUse" y1="46.2" x2="0" y2="-20.32" xlink:href="#SVGID_2_"/><linearGradient id="SVGID_11_" gradientUnits="userSpaceOnUse" y1="46.2" x2="0" y2="-20.316" xlink:href="#SVGID_2_"/><linearGradient id="SVGID_12_" gradientUnits="userSpaceOnUse" y1="46.2" x2="0" y2="-20.321" xlink:href="#SVGID_2_"/><linearGradient id="SVGID_10_" gradientUnits="userSpaceOnUse" y1="46.2" x2="0" y2="-20.315" xlink:href="#SVGID_2_"/><linearGradient id="SVGID_7_" gradientUnits="userSpaceOnUse" y1="51.65" x2="0" y2="-41.21" xlink:href="#SVGID_2_"/><linearGradient id="SVGID_1_" gradientUnits="userSpaceOnUse" y1="81.79" x2="0" y2="29.08"><stop stop-color="#959595"/><stop offset="1" stop-color="#d7d6d6"/></linearGradient><linearGradient id="SVGID_6_" gradientUnits="userSpaceOnUse" y1="49.35" x2="0" y2="-43.626" xlink:href="#SVGID_2_"/><linearGradient id="SVGID_2_" gradientUnits="userSpaceOnUse" y1="47.726" x2="0" y2="-25.359"><stop stop-color="#3770b7"/><stop offset="1" stop-color="#29398f"/></linearGradient><linearGradient id="SVGID_4_" gradientUnits="userSpaceOnUse" y1="50.843" x2="0" y2="-42.04" xlink:href="#SVGID_2_"/><linearGradient id="SVGID_5_" gradientUnits="userSpaceOnUse" y1="50.13" x2="0" y2="-42.847" xlink:href="#SVGID_2_"/><linearGradient id="SVGID_3_" gradientUnits="userSpaceOnUse" y1="49.4" x2="0" y2="-27.942" xlink:href="#SVGID_2_"/></defs><path fill-rule="evenodd" fill="url(#SVGID_1_)" d="m16.988 47.19c0-6.367.002-12.732-.004-19.1 0-.979.244-1.869 1.07-2.424.455-.303 1.057-.537 1.592-.541 6.135-.037 12.27-.021 18.404-.025.783 0 1.422.295 1.939.863 3.154 3.443 6.305 6.893 9.455 10.34.547.596.787 1.305.787 2.107 0 9.346.006 18.691-.004 28.04 0 1.871-1.125 2.977-2.986 2.977-9.06.004-18.12.004-27.18.002-1.943-.002-3.076-1.137-3.076-3.084-.005-6.386-.0001-12.771-.0001-19.16m16.686-1.768c-3.461 0-6.92-.004-10.381.006-.234 0-.656.07-.67.154-.072.467-.111.965-.004 1.412.037.15.547.26.84.262 6.707.012 13.416.012 20.12.001 1.139-.002 1.088.146 1.117-1.135.014-.549-.141-.727-.707-.723-3.439.026-6.881.014-10.32.014m4.402-16.11c-.043.172-.072.24-.072.309-.002 2.383-.018 4.768.004 7.15.001.848.543 1.357 1.391 1.365 2.115.018 4.23.006 6.346.002.113 0 .227-.051.385-.088-2.698-2.927-5.349-5.802-8.05-8.738m-6.303 30.879c-2.844 0-5.688-.002-8.531.008-.217 0-.609.07-.621.148-.061.469-.102.961-.004 1.414.031.143.508.262.781.264 5.496.014 10.99.001 16.486.001 1.117 0 1.092 0 1.123-1.131.016-.543-.135-.73-.705-.725-2.841.028-5.685.012-8.529.012m-1.859-7.387c-2.229 0-4.455-.004-6.684.008-.215 0-.602.078-.613.158-.059.469-.104.965.008 1.412.037.15.549.254.842.256 4.207.016 8.414.014 12.621.008 1.295 0 1.195.16 1.227-1.199.012-.51-.152-.658-.658-.652-2.247.023-4.495.009-6.743.009m-2.922-14.773c-1.289 0-2.576.001-3.863-.006-.445-.006-.652.154-.598.607.006.057 0 .115 0 .174-.004 1.066-.004 1.066 1.039 1.068 2.211 0 4.42 0 6.631 0 1.234 0 1.213-.002 1.225-1.219.004-.477-.152-.643-.629-.635-1.268.024-2.535.011-3.805.011"/><path fill-rule="evenodd" fill="url(#SVGID_2_)" d="m47.13 41.881c-.521 0-1.043-.144-1.594-.438l-1.188-.637 2.938-2.935c.436-.434.419-.79.346-1.082-.119-.467-.501-.771-.971-.771-.099 0-.199.014-.3.04-.105.029-.251.063-.416.063-.48 0-1.069-.301-1.146-1.146-.049-.525-.469-.908-.998-.908-.115 0-.231.019-.348.056-.127.041-.285.083-.472.083-.104 0-1.016-.031-1.136-1.129-.05-.471-.518-.865-1.022-.865-.072 0-.145.008-.214.024l-1.54.4.006-1.299c.002-.528-.181-.758-.36-.912-.199-.172-.436-.263-.684-.263-.265 0-.519.106-.715.3-.634.628-1.269 1.259-1.894 1.899-.097.1-.403.419-.9.419-.36 0-.682-.165-.954-.491-.927-1.104-1.915-1.901-3.02-2.435-.64-.317-.875-.96-.595-1.604l1.223-2.829c.652-1.512 1.305-3.02 1.965-4.533.352-.8 1.018-1.277 1.783-1.277.494 0 .972.201 1.38.58.563.52 1.18.762 1.941.762.476 0 1.026-.095 1.683-.29 1.615-.479 3.369-.923 5.248-.923.205 0 .411.005.618.016.436.022.855.084 1.249.182.67.062.985.532 1.054.925.065.453-.096.83-.475 1.148l-2.226 2.02c-.246.222-.494.439-.741.657-.502.442-1 .883-1.48 1.349-.362.354-.528.733-.468 1.071.063.346.371.665.847.876.396.178.817.267 1.258.267.108 0 .218-.006.327-.016.179-.018.333-.081.488-.2l1.478-1.127c.711-.541 1.421-1.081 2.127-1.626.107-.082.412-.312.844-.312.258 0 .51.081.751.239 2.636 1.724 4.946 3.824 6.865 6.24.74.925.973 2.053.669 3.26-.306 1.243-1.411 2.082-2.749 2.082-.038 0-.076-.0001-.114-.002-.385 1.116-1.42 1.854-2.684 1.854-.134 0-.269-.008-.403-.024-.232.746-.775 1.175-1.17 1.397-.425.238-.882.359-1.36.359-.114 0-.23-.007-.347-.021-.293.738-.87 1.11-1.273 1.287-.365.163-.745.244-1.13.244"/><path fill="#fff" d="m34.922 20.613c.229 0 .472.102.7.313.815.754 1.701 1.028 2.621 1.028.643 0 1.303-.134 1.968-.331 1.629-.483 3.264-.882 4.963-.882.188 0 .375.005.564.015.381.02.755.072 1.119.168.087.023.229-.018.252.111.015.102-.086.17-.162.236-.742.672-1.482 1.344-2.224 2.01-.752.678-1.528 1.328-2.25 2.033-1.27 1.236-.952 2.855.673 3.576.532.238 1.091.353 1.663.353.14 0 .28-.007.422-.021.37-.035.704-.172 1.01-.404 1.201-.92 2.408-1.83 3.604-2.752.087-.065.157-.104.233-.104.061 0 .123.023.2.074 2.533 1.656 4.752 3.658 6.633 6.03.564.705.699 1.531.482 2.395-.202.823-.925 1.325-1.779 1.325-.151 0-.306-.016-.463-.048-.143-.029-.239-.05-.308-.05-.147 0-.16.095-.2.394-.128.953-.889 1.557-1.827 1.557-.238 0-.489-.039-.743-.121-.197-.064-.391-.146-.614-.232.177.795.017 1.447-.707 1.855-.287.161-.577.23-.869.23-.387 0-.777-.121-1.172-.307.064.768-.157 1.354-.851 1.658-.245.107-.486.156-.728.156-.373 0-.745-.118-1.122-.32.68-.68 1.33-1.33 1.983-1.98.571-.568.81-1.244.61-2.035-.238-.932-1.036-1.526-1.94-1.526-.184 0-.372.024-.561.075-.064.018-.115.028-.155.028-.099 0-.135-.063-.15-.237-.1-1.073-.98-1.817-1.994-1.817-.213 0-.432.033-.65.103-.072.023-.127.036-.169.036-.093 0-.123-.065-.142-.237-.105-1.01-1.022-1.757-2.02-1.757-.146 0-.292.017-.438.05-.096.021-.189.049-.31.08.003-.672-.202-1.238-.708-1.674-.39-.337-.864-.505-1.336-.505-.511 0-1.02.196-1.416.587-.641.635-1.279 1.27-1.908 1.914-.074.077-.13.117-.185.117-.058 0-.113-.044-.188-.133-.938-1.119-2.028-2.055-3.353-2.693-.149-.074-.184-.141-.112-.305 1.063-2.451 2.114-4.91 3.187-7.359.195-.439.516-.678.869-.678m0-2c-1.156 0-2.19.719-2.698 1.874-.662 1.513-1.315 3.03-1.968 4.54-.407.943-.813 1.887-1.223 2.828-.489 1.127-.045 2.344 1.058 2.892.996.48 1.876 1.193 2.71 2.188.586.7 1.259.848 1.72.848.421 0 1.045-.127 1.625-.729.612-.627 1.243-1.254 1.875-1.881l.046.021c-.0001.013.007.06.007.142l-.012 2.599 2.516-.654.128-.034c.041-.011.078-.021.116-.03.008 0 .022.007.033.014.172 1.362 1.217 1.979 2.125 1.979.33 0 .603-.075.779-.132l.053-.005c.118 1.409 1.19 2.053 2.132 2.053.287 0 .527-.057.683-.099l.035.049c-.012.013-.037.045-.082.09-.653.649-1.303 1.299-1.98 1.978l-1.906 1.905 2.369 1.278c.69.37 1.386.558 2.066.558.523 0 1.038-.109 1.529-.324.625-.274 1.119-.682 1.467-1.191.563-.036 1.101-.197 1.603-.479.565-.319 1.01-.746 1.307-1.252 1.335-.072 2.482-.795 3.111-1.881 1.562-.202 2.81-1.281 3.187-2.813.374-1.49.068-2.958-.863-4.122-1.98-2.494-4.371-4.667-7.1-6.451-.4-.264-.838-.4-1.295-.4-.509 0-.992.171-1.438.507-.721.556-1.429 1.095-2.138 1.635-.492.374-.985.749-1.477 1.126-.057.009-.134.013-.211.013-.303 0-.579-.059-.845-.178-.12-.053-.197-.104-.242-.143.026-.043.072-.104.146-.176.454-.443.936-.867 1.444-1.315.251-.221.501-.441.749-.665l1.378-1.247.849-.77c.842-.706.864-1.561.8-2l-.004-.029-.005-.029c-.138-.789-.769-1.611-1.873-1.741-.439-.104-.896-.168-1.366-.191-.221-.012-.444-.018-.667-.018-2.01 0-3.845.464-5.532.965-.563.167-1.021.248-1.398.248-.509 0-.887-.148-1.264-.497-.587-.549-1.319-.85-2.059-.85z"/><path fill-rule="evenodd" fill="url(#SVGID_3_)" d="m58.62 33.663c-.354 0-.876-.131-1.356-.756-.566-.734-1.094-1.369-1.61-1.94-1.659-1.833-3.538-3.434-5.59-4.761-1.248.968-2.507 1.937-3.782 2.883-.384.285-.846.43-1.372.43-.315 0-.611-.05-.888-.101-.64-.118-1.562-.378-2.171-1.271-.293-.427-.426-.85-.406-1.291.035-.894.577-1.484.981-1.851 1.098-.991 2.199-1.979 3.301-2.966l1.018-.912c.066-.06.13-.133.193-.226.71-1.015 1.6-1.526 2.647-1.526.363 0 .745.064 1.136.191.436.143.865.299 1.294.456.603.22 1.171.428 1.754.594.821.236 1.486.346 2.093.346.488 0 .938-.071 1.375-.218.411-.139.693-.3.914-.523.483-.483.973-.584 1.299-.584.705 0 1.321.468 1.606 1.222.822 2.162 1.755 4.238 2.772 6.17.062.119.144.22.221.322.432.558.461 1.058.412 1.384-.048.326-.221.796-.77 1.186-1.354.954-2.421 1.795-3.358 2.646-.133.12-.255.248-.37.384-.394.471-.847.712-1.343.712"/><path fill="#fff" d="m49.583 20.375c.252 0 .526.045.826.143 1.035.338 2.036.762 3.083 1.061.787.227 1.575.384 2.367.384.563 0 1.126-.079 1.694-.271.493-.166.935-.393 1.306-.768.194-.194.398-.287.588-.287.281 0 .53.204.672.576.816 2.148 1.75 4.246 2.822 6.281.091.176.215.336.335.496.315.406.257.814-.165 1.113-1.2.846-2.365 1.734-3.453 2.723-.164.148-.317.309-.461.479-.198.237-.39.357-.579.357-.188 0-.375-.12-.563-.365-.53-.688-1.08-1.359-1.662-2-1.838-2.031-3.918-3.775-6.247-5.221-.051-.032-.089-.053-.131-.053-.041 0-.084.02-.146.066-1.385 1.076-2.775 2.15-4.186 3.197-.237.176-.502.232-.776.232-.233 0-.473-.041-.706-.084-.604-.111-1.16-.314-1.527-.852-.141-.205-.244-.424-.232-.682.02-.496.313-.846.653-1.154 1.435-1.295 2.876-2.584 4.315-3.875.133-.119.246-.254.348-.4.447-.637 1.021-1.094 1.825-1.094m0-2c-.958 0-2.336.338-3.464 1.949-.031.045-.045.059-.046.059l-1.017.912c-1.102.987-2.204 1.976-3.302 2.967-.313.282-1.256 1.137-1.312 2.56-.029.646.166 1.286.581 1.892.914 1.337 2.344 1.601 2.813 1.688.308.057.67.117 1.069.117.746 0 1.408-.211 1.969-.626 1.114-.828 2.217-1.673 3.229-2.456 1.76 1.207 3.367 2.613 4.804 4.201.5.552 1.01 1.167 1.562 1.882.766.995 1.675 1.144 2.147 1.144.555 0 1.371-.187 2.114-1.075.081-.097.174-.193.268-.277.909-.826 1.945-1.643 3.264-2.571.657-.465 1.076-1.124 1.185-1.857.109-.733-.102-1.485-.592-2.117-.057-.075-.105-.134-.145-.199-1-1.898-1.916-3.937-2.724-6.06-.436-1.15-1.41-1.866-2.541-1.866-.729 0-1.439.311-2 .873-.079.079-.202.176-.529.286-.333.112-.679.166-1.057.166-.511 0-1.087-.097-1.814-.306-.552-.158-1.104-.359-1.688-.573-.44-.16-.881-.321-1.326-.467-.491-.162-.977-.244-1.446-.244z"/><path fill-rule="evenodd" fill="url(#SVGID_4_)" d="m38.39 38.01c-.336 0-.673-.078-1-.23-.789-.369-1.265-1.078-1.307-1.947-.006-.71.218-1.277.665-1.729l.678-.681c.584-.588 1.168-1.176 1.76-1.756.466-.454 1.056-.703 1.663-.703.592 0 1.156.237 1.589.667.907.895.914 2.281.015 3.223-.813.851-1.653 1.68-2.497 2.499-.449.431-.989.657-1.564.657"/><path fill="#fff" d="m40.848 31.964c.319 0 .633.126.884.376.505.498.525 1.27-.003 1.822-.805.842-1.636 1.662-2.471 2.473-.258.248-.553.376-.867.376-.188 0-.382-.046-.58-.138-.473-.221-.707-.617-.729-1.088-.003-.41.124-.723.377-.979.809-.811 1.609-1.625 2.427-2.426.285-.277.627-.416.962-.416m0-2c-.87 0-1.708.35-2.359.985-.599.587-1.186 1.178-1.773 1.769l-.673.677c-.638.645-.968 1.474-.961 2.405v.04l.002.041c.06 1.233.763 2.282 1.882 2.805.465.216.943.325 1.426.325.827 0 1.628-.332 2.254-.935.711-.69 1.634-1.595 2.529-2.532 1.267-1.325 1.25-3.357-.038-4.628-.616-.612-1.431-.952-2.289-.952z"/><path fill-rule="evenodd" fill="url(#SVGID_5_)" d="m41.26 39.843c-.87-.026-1.574-.467-1.972-1.238-.418-.817-.339-1.695.213-2.412.164-.213.354-.404.545-.594l.563-.564c.5-.505 1-1.01 1.51-1.506.472-.459 1.071-.712 1.69-.712.599 0 1.165.237 1.593.668.9.905.889 2.303-.027 3.25-.757.78-1.527 1.541-2.299 2.303l-.118.116c-.58.571-1.193.691-1.605.691l-.093-.002"/><path fill="#fff" d="m43.806 33.817c.323 0 .637.125.884.373.505.508.505 1.289-.037 1.85-.789.814-1.595 1.607-2.4 2.402-.25.246-.545.403-.903.403-.017 0-.033 0-.051-.0001-.508-.016-.892-.246-1.124-.697-.236-.463-.204-.928.116-1.344.183-.236.407-.439.616-.652.633-.637 1.264-1.279 1.907-1.906.292-.286.647-.428.992-.428m0-2c-.881 0-1.729.354-2.388.995-.513.5-1.019 1.01-1.522 1.519l-.408.41-.147.147c-.185.183-.414.41-.633.692-.787 1.022-.904 2.321-.314 3.476.566 1.1 1.602 1.749 2.844 1.787.024.0001.068.002.112.002.6 0 1.485-.17 2.307-.979l.12-.118c.761-.75 1.547-1.526 2.313-2.317 1.284-1.328 1.292-3.371.019-4.651-.619-.621-1.436-.963-2.303-.963z"/><path fill-rule="evenodd" fill="url(#SVGID_6_)" d="m44.24 41.792c-1.228 0-1.832-.686-2.116-1.262-.414-.835-.321-1.716.255-2.417.218-.266.463-.514.711-.76l.535-.537c.456-.461.912-.921 1.38-1.371.455-.439 1.039-.682 1.642-.682.586 0 1.146.229 1.573.646.926.904.942 2.292.041 3.229-.683.714-1.388 1.409-2.092 2.104l-.395.39c-.423.42-.958.66-1.468.66.0001.0001-.065 0-.066 0"/><path fill="#fff" d="m46.649 35.764c.317 0 .628.122.876.363.514.502.545 1.271.018 1.82-.806.842-1.641 1.656-2.469 2.475-.236.234-.523.371-.765.371-.008 0-.017 0-.024 0-.639 0-1.03-.236-1.262-.705-.229-.463-.203-.934.131-1.34.251-.307.543-.582.825-.867.571-.574 1.138-1.152 1.722-1.715.278-.268.617-.402.948-.402m0-2c-.863 0-1.692.342-2.336.963-.473.454-.935.92-1.396 1.385l-.356.359-.174.174c-.243.242-.52.517-.781.837-.822 1-.963 2.308-.375 3.495.571 1.157 1.64 1.803 3.01 1.816h.006.063c.771 0 1.563-.347 2.173-.951l.393-.387c.696-.687 1.416-1.396 2.113-2.125 1.269-1.32 1.241-3.357-.065-4.634-.619-.602-1.425-.932-2.274-.932z"/><path fill-rule="evenodd" fill="url(#SVGID_7_)" d="m35.567 35.966c-.319 0-.632-.07-.931-.209-.855-.396-1.334-1.132-1.348-2.071-.021-.603.213-1.179.677-1.646l.226-.229c.732-.74 1.468-1.482 2.216-2.207.461-.445 1.044-.689 1.643-.689.621 0 1.206.258 1.649.726.86.903.822 2.284-.089 3.211-.8.812-1.604 1.615-2.414 2.413-.46.452-1.038.701-1.629.701"/><path fill="#fff" d="m38.05 29.916c.336 0 .665.14.924.413.483.508.456 1.281-.076 1.822-.796.807-1.597 1.607-2.403 2.402-.276.272-.6.413-.927.413-.171 0-.343-.038-.51-.116-.497-.23-.761-.625-.769-1.178-.013-.371.135-.674.387-.928.803-.811 1.607-1.627 2.428-2.422.283-.273.618-.406.946-.406m0-2c-.859 0-1.689.344-2.336.969-.755.731-1.495 1.479-2.231 2.224l-.228.229c-.662.666-.996 1.498-.965 2.403.018 1.284.721 2.364 1.927 2.924.431.2.885.302 1.351.302.855 0 1.683-.351 2.329-.987.814-.803 1.622-1.61 2.425-2.424 1.279-1.3 1.322-3.322.101-4.605-.632-.667-1.475-1.035-2.373-1.035z"/><path fill-rule="evenodd" fill="url(#SVGID_8_)" d="m40.07 31.342c.003-.672-.202-1.238-.708-1.674-.811-.701-1.988-.67-2.752.082-.641.635-1.279 1.27-1.908 1.914-.152.158-.227.158-.372-.016-.938-1.119-2.028-2.055-3.353-2.693-.149-.074-.184-.141-.112-.305 1.063-2.451 2.114-4.91 3.187-7.359.318-.725.986-.904 1.567-.365 1.386 1.281 2.972 1.178 4.589.697 1.809-.537 3.623-.969 5.527-.867.381.02.755.072 1.119.168.087.023.229-.018.252.111.015.102-.086.17-.162.236-.742.672-1.482 1.344-2.224 2.01-.752.678-1.528 1.328-2.25 2.033-1.27 1.236-.952 2.855.673 3.576.662.297 1.365.4 2.085.332.37-.035.704-.172 1.01-.404 1.201-.92 2.408-1.83 3.604-2.752.155-.117.259-.145.434-.029 2.533 1.656 4.752 3.658 6.633 6.03.564.705.699 1.531.482 2.395-.238.969-1.195 1.492-2.242 1.277-.449-.094-.449-.094-.508.344-.16 1.195-1.316 1.842-2.57 1.436-.197-.064-.391-.146-.614-.232.177.795.017 1.447-.707 1.855-.668.375-1.349.25-2.041-.076.064.768-.157 1.354-.851 1.658-.625.273-1.229.168-1.85-.164.68-.68 1.33-1.33 1.983-1.98.571-.568.81-1.244.61-2.035-.287-1.121-1.382-1.754-2.501-1.451-.222.061-.283.037-.306-.209-.121-1.299-1.385-2.115-2.645-1.715-.231.074-.283.049-.311-.201-.121-1.154-1.309-1.971-2.455-1.707-.094.021-.188.048-.308.079"/><path fill-rule="evenodd" fill="url(#SVGID_9_)" d="m42.44 26.901c.02-.496.313-.846.653-1.154 1.435-1.295 2.876-2.584 4.315-3.875.133-.119.246-.254.348-.4.588-.84 1.393-1.363 2.651-.953 1.035.338 2.036.762 3.083 1.061 1.346.387 2.693.574 4.062.113.493-.166.935-.393 1.306-.768.484-.484 1.023-.334 1.26.289.816 2.148 1.75 4.246 2.822 6.281.091.176.215.336.335.496.315.406.257.814-.165 1.113-1.2.846-2.365 1.734-3.453 2.723-.164.148-.317.309-.461.479-.396.475-.766.482-1.143-.008-.53-.688-1.08-1.359-1.662-2-1.838-2.031-3.918-3.775-6.247-5.221-.101-.064-.153-.08-.276.014-1.385 1.076-2.775 2.15-4.186 3.197-.439.326-.975.242-1.482.148-.604-.111-1.16-.314-1.527-.852-.141-.205-.244-.423-.233-.681"/><path fill-rule="evenodd" fill="url(#SVGID_10_)" d="m37.08 35.786c-.003-.41.124-.723.377-.979.809-.811 1.609-1.625 2.427-2.426.559-.545 1.332-.553 1.847-.041.505.498.525 1.27-.003 1.822-.805.842-1.636 1.662-2.471 2.473-.412.396-.918.484-1.447.238-.473-.22-.707-.617-.73-1.087"/><path fill-rule="evenodd" fill="url(#SVGID_11_)" d="m41.3 38.844c-.508-.016-.892-.246-1.124-.697-.236-.463-.204-.928.116-1.344.183-.236.407-.439.616-.652.633-.637 1.264-1.279 1.907-1.906.567-.553 1.365-.568 1.876-.055.505.508.505 1.289-.037 1.85-.789.814-1.595 1.607-2.4 2.402-.262.258-.572.418-.954.402"/><path fill-rule="evenodd" fill="url(#SVGID_12_)" d="m44.28 40.793c-.639 0-1.03-.236-1.262-.705-.229-.463-.203-.934.131-1.34.251-.307.543-.582.825-.867.571-.574 1.138-1.152 1.722-1.715.545-.525 1.316-.533 1.824-.039.514.502.545 1.271.018 1.82-.806.842-1.641 1.656-2.469 2.475-.244.243-.543.381-.789.371"/><path fill-rule="evenodd" fill="url(#SVGID_13_)" d="m34.29 33.672c-.013-.371.135-.674.387-.928.803-.811 1.607-1.627 2.428-2.422.572-.553 1.357-.535 1.87.006.483.508.456 1.281-.076 1.822-.796.807-1.597 1.607-2.403 2.402-.421.414-.948.523-1.437.297-.497-.229-.761-.624-.769-1.177"/></svg>