<svg xmlns="http://www.w3.org/2000/svg" viewBox="0 0 40.664 39.646" style="enable-background:new 0 0 40.664 39.646">
 <path d="m.53 15.228c1.976-.704 3.863-1.376 5.75-2.05 4.367-1.561 8.733-3.123 13.1-4.675.183-.066.427-.101.604-.036 6.225 2.21 12.443 4.433 18.663 6.655.07.023.138.056.267.108-.133.061-.223.107-.314.142-6.173 2.206-12.346 4.414-18.521 6.606-.202.072-.476.074-.679.002-6.2-2.201-12.396-4.416-18.592-6.63-.072-.022-.135-.057-.282-.122" style="fill:#999"/>
 <path d="m10.128 20.19c1.068.377 2.095.737 3.119 1.104 2.101.748 4.198 1.502 6.302 2.238.144.051.342.018.493-.036 3.047-1.076 6.09-2.161 9.136-3.243.045-.018.095-.021.172-.039.009.124.021.229.021.337.002 2.422-.002 4.844.008 7.266.002.26-.096.369-.313.474-3.161 1.501-6.487 2.2-9.985 2.099-3.038-.089-5.925-.796-8.666-2.104-.174-.083-.313-.143-.312-.396.013-2.497.008-4.994.009-7.492-.003-.054.006-.104.016-.208" style="fill:#999"/>
 <path d="m34.37 18.392c0 1.248 0 2.438 0 3.629 0 .339 0 .679-.003 1.018-.008.444-.008.836.39 1.206.506.472.393 1.35-.139 1.813-.158.142-.178.258-.137.451.197.931.376 1.865.563 2.799.086.436.051.48-.444.521-.058-.313-.113-.629-.171-.945-.02-.004-.038-.006-.059-.001-.062.338-.123.675-.201 1.1-.565-.052-1.123-.092-1.677-.161-.217-.026-.297-.167-.243-.41.205-.953.398-1.911.571-2.873.027-.152-.03-.367-.13-.49-.502-.619-.455-1.419.116-1.968.114-.109.206-.309.208-.467.016-1.468.015-2.937.005-4.402-.003-.235.055-.364.296-.434.335-.095.658-.233 1.055-.377" style="fill:#999"/>
</svg>
