<svg xmlns="http://www.w3.org/2000/svg" viewBox="0 0 262.8 151.462" enable-background="new 0 0 262.8 151.462" xmlns:xlink="http://www.w3.org/1999/xlink"><defs><linearGradient id="SVGID_1_" gradientUnits="userSpaceOnUse" y1="151.46" x2="0" y2="74.42"><stop stop-color="#12397f"/><stop offset="1" stop-color="#3f8ded"/></linearGradient><linearGradient id="SVGID_2_" gradientUnits="userSpaceOnUse" y1="126.63" x2="0" y2="0" xlink:href="#SVGID_1_"/></defs><g fill-rule="evenodd"><path fill="url(#SVGID_1_)" d="m208.54 119.36c0 17.728-34.653 32.1-77.4 32.1-42.747 0-77.4-14.372-77.4-32.1h-.039v-44.947l77.7 28.335 77.14-28.15-.002 44.758"/><path fill="url(#SVGID_2_)" d="m131.4 0l131.4 48.618-131.4 44.08c-26.99-9.05-53.98-18.11-80.971-27.17 6.758-2.56 14.88-5.313 10.709-6.327-4.855-.133-10.232.339-18.2 3.814-1.95 16.475-4.01 32.359-3.921 59.838-7.219 4.731-15.06 5.393-23.884-.275-.356-21.297 7.881-42.24 17.17-63.13.952-3.305 12.929-4.098 8.368-5.528-5.639-.837-10.225-.009-12.764 4.054l-27.908-9.362 131.4-48.618"/></g></svg>