<svg xmlns="http://www.w3.org/2000/svg" viewBox="0 0 73.039 90" enable-background="new 0 0 73.039 90"><defs><linearGradient id="SVGID_1_" gradientUnits="userSpaceOnUse" y1="78.27" x2="0" y2="5.226"><stop stop-color="#12397f"/><stop offset="1" stop-color="#3f8ded"/></linearGradient><linearGradient id="SVGID_2_" gradientUnits="userSpaceOnUse" y1="356.57" x2="0" y2="-318.27"><stop stop-color="#3f8ded"/><stop offset="1" stop-color="#4a81c2"/></linearGradient></defs><path fill="url(#SVGID_1_)" d="m36.519 78c-12.174 0-21.842-10.841-36.519-10.699 1.842-5.148 2.317-7.66 5.211-9.548 6.365-4.155 20.917-1.222 20.2-11.985 2.799 0 2.146-1.771 2.911-4.712-2.485-2.269-3.331-5.871-3.811-9.824-.627-.691-1.21-1.726-1.6-2.951-.786-2.471-.489-4.773.666-5.14.027-.009.052-.016.08-.021l-.007-.053c-1.097-7.888 1.796-17.564 12.87-17.564 11.07 0 13.966 9.676 12.87 17.564l-.006.053c.025.005.053.012.076.021 1.153.367 1.451 2.669.666 5.139-.39 1.225-.972 2.26-1.6 2.951-.479 3.953-1.324 7.555-3.813 9.824.766 2.94.113 4.711 2.912 4.711-.72 10.769 13.836 7.83 20.2 11.986 2.893 1.889 3.37 4.398 5.212 9.548-14.675-.141-24.344 10.7-36.517 10.7"/><path fill="url(#SVGID_2_)" d="m52.5 35.18c.372.329.604.805.604 1.338 0 .983-.797 1.781-1.781 1.781-.982 0-1.781-.798-1.781-1.781 0-.778.497-1.44 1.193-1.683l.9-5.268c-.615-.74-1.015-1.906-1.015-3.214 0-1.569.572-2.931 1.406-3.604v-5.04c0-8.529-6.978-15.508-15.507-15.508-8.529 0-15.507 6.979-15.507 15.508v5.127c.78.699 1.306 2.01 1.306 3.519 0 2.237-1.159 4.051-2.592 4.051-1.431 0-2.591-1.814-2.591-4.051 0-1.631.616-3.036 1.504-3.678v-4.795c0-9.832 8.05-17.878 17.881-17.878 9.833 0 17.878 8.05 17.878 17.878v4.867c.836.673 1.406 2.036 1.406 3.604 0 2.183-1.104 3.962-2.485 4.047l-.819 4.782"/></svg>