<?xml version="1.0" encoding="utf-8"?>
<!-- Generator: Adobe Illustrator 21.0.2, SVG Export Plug-In . SVG Version: 6.00 Build 0)  -->
<svg version="1.1" id="Слой_1" xmlns="http://www.w3.org/2000/svg" xmlns:xlink="http://www.w3.org/1999/xlink" x="0px" y="0px"
	 viewBox="0 0 71 70" style="enable-background:new 0 0 71 70;" xml:space="preserve">
<style type="text/css">
	.st0{fill:url(#SVGID_1_);stroke:#FFFFFF;stroke-miterlimit:10;}
	.st1{fill:#FFFFFF;}
</style>
<g>
	
		<linearGradient id="SVGID_1_" gradientUnits="userSpaceOnUse" x1="0.5" y1="-81.1" x2="70.5" y2="-81.1" gradientTransform="matrix(1 0 0 -1 0 -46)">
		<stop  offset="0" style="stop-color:#12397F"/>
		<stop  offset="1" style="stop-color:#3F8DED"/>
	</linearGradient>
	<path class="st0" d="M70.5,59.9c0,5.3-4.1,9.7-9.1,9.7H9.6c-5,0-9.1-4.3-9.1-9.7V10.2c0-5.3,4.1-9.6,9.1-9.6h51.8
		c5,0,9.1,4.3,9.1,9.7V59.9L70.5,59.9L70.5,59.9z"/>
</g>
<path class="st1" d="M56.9,63.3H18.2V11.8h38.7V63.3z M19.2,62.3h36.7V12.8H19.2V62.3z"/>
<polygon class="st1" points="17.1,60.8 16.1,60.8 16.1,9.8 54.3,9.8 54.3,10.8 17.1,10.8 "/>
<polygon class="st1" points="15.1,58.8 14.1,58.8 14.1,7.8 52.3,7.8 52.3,8.8 15.1,8.8 "/>
<path class="st1" d="M48.4,35.5c0-0.6,0-1.1-0.1-1.6l2.3-1.5c-0.3-1.3-0.9-2.6-1.6-3.8l-2.7,0.5c-0.6-0.9-1.4-1.7-2.3-2.3l0.5-2.7
	c-1.2-0.7-2.4-1.2-3.8-1.6l-1.5,2.3c-0.5-0.1-1.1-0.1-1.6-0.1s-1.1,0-1.6,0.1l-1.5-2.3c-1.3,0.3-2.6,0.9-3.8,1.6l0.5,2.7
	c-0.9,0.6-1.7,1.4-2.3,2.3l-2.7-0.5c-0.7,1.2-1.2,2.4-1.6,3.8l2.3,1.5c-0.1,0.5-0.1,1.1-0.1,1.6s0,1.1,0.1,1.6l-2.3,1.5
	c0.3,1.3,0.9,2.6,1.6,3.8l2.7-0.5c0.6,0.9,1.4,1.7,2.3,2.3l-0.5,2.7c1.2,0.7,2.4,1.2,3.8,1.6l1.5-2.3c0.5,0.1,1.1,0.1,1.6,0.1
	s1.1,0,1.6-0.1l1.5,2.3c1.3-0.3,2.6-0.9,3.8-1.6L44,44.2c0.9-0.6,1.7-1.4,2.3-2.3l2.7,0.5c0.7-1.2,1.2-2.4,1.6-3.8l-2.3-1.5
	C48.3,36.6,48.4,36.1,48.4,35.5z M37.6,42c-3.6,0-6.5-2.9-6.5-6.5S34,29,37.6,29s6.5,2.9,6.5,6.5S41.2,42,37.6,42z"/>
</svg>
