<?xml version="1.0" encoding="utf-8"?>
<!-- Generator: Adobe Illustrator 21.0.2, SVG Export Plug-In . SVG Version: 6.00 Build 0)  -->
<svg version="1.1" id="Слой_1" xmlns="http://www.w3.org/2000/svg" xmlns:xlink="http://www.w3.org/1999/xlink" x="0px" y="0px"
	 viewBox="0 0 30 30" style="enable-background:new 0 0 30 30;" xml:space="preserve">
<style type="text/css">
	.st0{fill:#1DA1F2;}
	.st1{fill:#FFFFFF;}
</style>
<g>
	<g>
		<path class="st0" d="M29.3,23.6c0,3.2-2.6,5.9-5.9,5.9H6.6c-3.2,0-5.9-2.6-5.9-5.9V6.8c0-3.2,2.6-5.9,5.9-5.9h16.8
			c3.2,0,5.9,2.6,5.9,5.9V23.6z"/>
		<path class="st1" d="M11.6,23.5c7.5,0,11.6-6.2,11.6-11.6c0-0.2,0-0.4,0-0.5c0.8-0.6,1.5-1.3,2-2.1c-0.7,0.3-1.5,0.5-2.3,0.6
			c0.8-0.5,1.5-1.3,1.8-2.3c-0.8,0.5-1.7,0.8-2.6,1c-0.7-0.8-1.8-1.3-3-1.3c-2.3,0-4.1,1.8-4.1,4.1c0,0.3,0,0.6,0.1,0.9
			c-3.4-0.2-6.4-1.8-8.4-4.3c-0.4,0.6-0.6,1.3-0.6,2.1c0,1.4,0.7,2.7,1.8,3.4c-0.7,0-1.3-0.2-1.9-0.5c0,0,0,0,0,0.1
			c0,2,1.4,3.6,3.3,4c-0.3,0.1-0.7,0.1-1.1,0.1c-0.3,0-0.5,0-0.8-0.1c0.5,1.6,2,2.8,3.8,2.8c-1.4,1.1-3.2,1.7-5.1,1.7
			c-0.3,0-0.7,0-1-0.1C7.1,22.8,9.3,23.5,11.6,23.5"/>
	</g>
</g>
</svg>
