<?xml version="1.0" encoding="utf-8"?>
<!-- Generator: Adobe Illustrator 21.0.2, SVG Export Plug-In . SVG Version: 6.00 Build 0)  -->
<svg version="1.1" id="Слой_1" xmlns="http://www.w3.org/2000/svg" xmlns:xlink="http://www.w3.org/1999/xlink" x="0px" y="0px"
	 viewBox="0 0 23.4 19" style="enable-background:new 0 0 23.4 19;" xml:space="preserve">
<style type="text/css">
	.st0{fill:#FFFFFF;}
</style>
<path class="st0" d="M7.3,19C16.2,19,21,11.7,21,5.4c0-0.2,0-0.4,0-0.6c0.9-0.7,1.7-1.5,2.4-2.5c-0.9,0.4-1.8,0.6-2.8,0.8
	c1-0.6,1.7-1.5,2.1-2.7c-0.9,0.5-2,0.9-3,1.2C18.8,0.6,17.6,0,16.2,0c-2.6,0-4.8,2.1-4.8,4.8c0,0.4,0,0.7,0.1,1.1
	c-4-0.2-7.5-2.1-9.9-5C1.2,1.6,1,2.4,1,3.3c0,1.7,0.8,3.1,2.1,4C2.3,7.3,1.6,7,0.9,6.7c0,0,0,0,0,0.1c0,2.3,1.7,4.3,3.8,4.7
	c-0.4,0.1-0.8,0.2-1.3,0.2c-0.3,0-0.6,0-0.9-0.1c0.6,1.9,2.4,3.3,4.5,3.3c-1.6,1.3-3.7,2.1-6,2.1c-0.4,0-0.8,0-1.1-0.1
	C2.1,18.2,4.6,19,7.3,19"/>
</svg>
