<svg version="1.1" xmlns="http://www.w3.org/2000/svg" viewBox="283.239 145.797 14.513 19.127" enable-background="new 283.239 145.797 14.513 19.127"><g><path fill-rule="evenodd" fill="#214288" d="M285.751,145.797c1.359,0,2.491,1.132,2.491,2.489v2.49h6.906
		c1.358,0,2.604,1.132,2.604,2.49c0,1.357-1.245,2.489-2.604,2.489h-6.906v3.736c0,0.225,0.113,0.452,0.339,0.452h6.567
		c1.358,0,2.604,1.132,2.604,2.49c0,1.357-1.245,2.489-2.604,2.489h-6.228c-0.112,0-0.112,0-0.226,0
		c-3.736,0-5.253-2.363-5.419-5.642c-0.073-1.445-0.015-2.913-0.015-3.026v-7.97C283.261,146.928,284.393,145.797,285.751,145.797
		L285.751,145.797z"/></g></svg>