<?xml version="1.0" encoding="utf-8"?>
<!-- Generator: Adobe Illustrator 21.0.2, SVG Export Plug-In . SVG Version: 6.00 Build 0)  -->
<svg version="1.1" id="Слой_1" xmlns="http://www.w3.org/2000/svg" xmlns:xlink="http://www.w3.org/1999/xlink" x="0px" y="0px"
	 viewBox="0 0 71 70" style="enable-background:new 0 0 71 70;" xml:space="preserve">
<style type="text/css">
	.st0{fill:url(#SVGID_1_);}
	.st1{fill:none;stroke:#FFFFFF;stroke-width:1.3145;stroke-linecap:round;stroke-linejoin:round;stroke-miterlimit:10;}
	.st2{fill:none;stroke:#FFFFFF;stroke-width:1.2857;stroke-linecap:round;stroke-linejoin:round;stroke-miterlimit:10;}
	.st3{fill:#FFFFFF;}
</style>
<g>
	
		<linearGradient id="SVGID_1_" gradientUnits="userSpaceOnUse" x1="0.3757" y1="-607.6151" x2="70.3757" y2="-607.6151" gradientTransform="matrix(1 0 0 -1 0 -572.39)">
		<stop  offset="0" style="stop-color:#12397F"/>
		<stop  offset="1" style="stop-color:#3F8DED"/>
	</linearGradient>
	<path class="st0" d="M70.4,60c0,5.3-4.1,9.7-9.1,9.7H9.5c-5,0-9.1-4.3-9.1-9.7V10.3c0-5.3,4.1-9.6,9.1-9.6h51.8
		c5,0,9.1,4.3,9.1,9.7V60L70.4,60L70.4,60z"/>
</g>
<g>
	<path class="st1" d="M27.9,13.8l-6.5,1.3c0,0-3.5,0.6-4.3,2.1L10.5,31l8.6,3.5l2.2-4.4v28H51V30l2,4.5l8.5-3.5l-6.2-13.8
		c-0.7-1.5-4.3-2.1-4.3-2.1v0l-6.5-1.3"/>
</g>
<g>
	<path class="st2" d="M30.3,10.8c0,0,3.1,0.5,6,0.5c2.5,0,5.7-0.5,5.7-0.5"/>
	<polygon class="st2" points="32.8,20.6 27.8,13.5 30.2,10.8 36.1,17.4 	"/>
	<polygon class="st2" points="39.7,20.6 44.6,13.5 42.2,10.8 36.4,17.4 	"/>
</g>
<rect x="42" y="25.6" class="st3" width="5.2" height="1.4"/>
<path class="st1" d="M17.4,16.8c2,2.3,3.7,10.3,3.9,13.4"/>
<path class="st1" d="M54.9,16.8c-2,2.3-3.7,10.3-3.9,13.4"/>
</svg>
