<?xml version="1.0" encoding="utf-8"?>
<!-- Generator: Adobe Illustrator 24.1.2, SVG Export Plug-In . SVG Version: 6.00 Build 0)  -->
<svg version="1.1" id="Слой_1" xmlns="http://www.w3.org/2000/svg" xmlns:xlink="http://www.w3.org/1999/xlink" x="0px" y="0px"
	 viewBox="0 0 159.5 169" style="enable-background:new 0 0 159.5 169;" xml:space="preserve">
<style type="text/css">
	.st0{fill-rule:evenodd;clip-rule:evenodd;fill:url(#SVGID_1_);}
</style>
<linearGradient id="SVGID_1_" gradientUnits="userSpaceOnUse" x1="79.1815" y1="170.6981" x2="79.1815" y2="-1.0907">
	<stop  offset="0" style="stop-color:#12397F"/>
	<stop  offset="1" style="stop-color:#3F8DED"/>
</linearGradient>
<path class="st0" d="M22.8,76.3V60.3c0-2.6,1.2-4.9,3-6.4c1.2-29.7,24-53.5,52-53.5c27.5,0,50,23,51.9,52.1c2.5,1.5,4.1,4.2,4.1,7.3
	v16.1c0,4.7-3.9,8.5-8.6,8.5c-1.4,0-2.7-0.3-3.9-0.9c-6.5,4.8-13.7,7.2-23.3,7.7c-0.8,1.5-2.4,2.6-4.3,2.6h-8.5
	c-2.7,0-4.9-2.2-4.9-4.8c0-2.7,2.2-4.8,4.9-4.8h8.5c1.7,0,3.1,0.8,4,2.1c8.2-0.5,14.4-2.4,19.8-6.2c-0.7-1.2-1.1-2.6-1.1-4.1V59.7
	c0-3.6,2.3-6.7,5.5-8c-2.1-24.6-21.2-44-44.3-44C54.5,7.8,35.4,27.2,33.4,52c3.8,0.9,6.6,4.3,6.6,8.3v16.1c0,4.7-3.9,8.5-8.6,8.5h0
	C26.7,84.9,22.8,81,22.8,76.3z M77.5,110.2C77.5,110.2,77.5,110.2,77.5,110.2L77.5,110.2L77.5,110.2z M105.8,91.8
	c-2.3,0.5-4.8,0.8-7.4,1c-0.5,0.7-1.2,1.2-1.9,1.7c-5.3,5.6-12,9.2-18.9,9.3C64.7,103.6,52.4,91.2,49,76.7c-0.7-5.7-0.6-14-0.4-16.4
	c0.7-5.9,2.6-10,6.7-12.3c3.9-2.1,11.5,0.8,22.3,0.9h0c6.2,0,15-4,22.6,3.1c0.6-2-1.9-4.8-0.3-3.9c4.1,2.2,6,6.4,6.7,12.3
	c0.5,4.8,0,13.7-0.5,16.4c-0.5,2.3-1.3,4.5-2.3,6.7c2.5-0.5,4.8-1.2,6.9-2.2c0.2-0.6,0.4-1.3,0.6-1.9c1.2-4.4,2.4-22.2,2.2-24.4
	c-0.5-21.7-4.7-38.3-36-38.9c-31.3,0.6-35.5,17.2-36,38.9c-0.4,0.4,2,24.7,2.2,24.4c5.1,17.4,18.2,30,33.8,31
	C89,109.6,99.2,102.5,105.8,91.8z M106.8,110.6c-5.7,11-12.5,18.9-19.9,25c-0.4-4.1-1.3-8.4-2.6-12.7c1.9-1.7,2.7-4,2.5-6.9
	c-2.5-0.1-5.1-0.2-7.6-0.3c-2.5,0.1-5.1,0.2-7.6,0.3c-0.2,2.9,0.6,5.2,2.5,6.9c-1.2,4.4-2.2,8.6-2.6,12.7c-7.4-6.1-14.2-14-19.9-25
	c-10.2,0.9-37.5-3.3-42.9,37.5c0,17.2,44.2,21.2,70.5,21.2h0c26.3,0,70.5-4,70.5-21.2C144.3,107.3,117,111.5,106.8,110.6z"/>
</svg>
