<?xml version="1.0" encoding="utf-8"?>
<!-- Generator: Adobe Illustrator 23.0.3, SVG Export Plug-In . SVG Version: 6.00 Build 0)  -->
<svg version="1.1" id="Слой_1" xmlns="http://www.w3.org/2000/svg" xmlns:xlink="http://www.w3.org/1999/xlink" x="0px" y="0px"
	 viewBox="0 0 40 40" style="enable-background:new 0 0 40 40;" xml:space="preserve">
<style type="text/css">
	.st0{fill:#1F4287;}
</style>
<path class="st0" d="M8,29.7c-2.4-2.5-3.8-5.8-3.8-9.3c0-7.3,6-13.3,13.3-13.3s13.3,6,13.3,13.3c0,1-0.1,1.9-0.3,2.9l-2.5-0.6
	c0.2-0.8,0.3-1.6,0.3-2.3c0-5.9-4.8-10.7-10.7-10.7c-5.9,0-10.7,4.8-10.7,10.7c0,2.8,1.1,5.4,3,7.5L8,29.7z M17.5,23.5
	c-1.7,0-3.1-1.4-3.1-3.1c0-1.7,1.4-3.1,3.1-3.1c1.7,0,3.1,1.4,3.1,3.1C20.6,22.1,19.2,23.5,17.5,23.5z M17.5,19.9
	c-0.3,0-0.5,0.2-0.5,0.5c0,0.3,0.2,0.5,0.5,0.5s0.5-0.2,0.5-0.5C18,20.1,17.8,19.9,17.5,19.9z"/>
<g>
	<path class="st0" d="M12,30.4c0.4,0.4,1.1,0.8,1.8,0.8c0.4,0,0.7-0.1,0.8-0.3c0.1-0.1,0.2-0.3,0.2-0.5c0-0.2-0.1-0.3-0.2-0.5
		c-0.2-0.2-0.5-0.3-1-0.4L13,29.3c-0.3-0.1-0.8-0.3-1.1-0.6c-0.4-0.4-0.4-1-0.4-1.4c0-1,0.4-1.5,0.7-1.9c0.4-0.4,1-0.7,2-0.7
		c0.8,0,1.7,0.2,2.4,0.6l-0.8,1.6c-0.6-0.5-1.1-0.5-1.3-0.5c-0.2,0-0.5,0-0.7,0.2c-0.1,0.1-0.2,0.2-0.2,0.4c0,0.1,0,0.2,0.1,0.3
		c0.1,0.1,0.2,0.2,0.7,0.3L15,28c0.5,0.2,1,0.3,1.4,0.8c0.4,0.4,0.5,0.9,0.5,1.4c0,0.7-0.2,1.4-0.7,2c-0.7,0.7-1.5,0.8-2.3,0.8
		c-0.5,0-1,0-1.5-0.3c-0.1,0-0.6-0.2-1.2-0.6L12,30.4z"/>
	<path class="st0" d="M17.9,28.8h2.9v1.5h-2.9V28.8z"/>
	<path class="st0" d="M28,32.7h-6.2l2-2.1c0.7-0.7,1.2-1.4,1.6-2c0.2-0.3,0.4-0.7,0.4-1.2c0-0.1,0-0.5-0.2-0.7
		c-0.1-0.1-0.3-0.2-0.6-0.2c-0.3,0-0.5,0.2-0.7,0.3c-0.2,0.2-0.3,0.7-0.3,1h-2.1c0-1,0.5-1.7,0.9-2.2c0.5-0.5,1.2-0.8,2.2-0.8
		c1.2,0,1.8,0.5,2.2,0.8c0.3,0.3,0.8,0.9,0.8,1.9c0,1-0.5,1.7-1.2,2.3L25.5,31H28V32.7z"/>
	<path class="st0" d="M34.1,32c-0.6,0.6-1.4,0.9-2.1,0.9c-0.8,0-1.5-0.3-2.1-0.9c-0.7-0.7-1.2-1.8-1.2-3.2c0-1.4,0.5-2.5,1.2-3.2
		c0.6-0.6,1.4-0.9,2.1-0.9c0.8,0,1.5,0.3,2.1,0.9c0.7,0.7,1.2,1.8,1.2,3.2C35.2,30.2,34.8,31.3,34.1,32z M31.3,26.8
		c-0.4,0.4-0.7,1.3-0.7,2c0,0.6,0.2,1.6,0.7,2c0.2,0.1,0.4,0.2,0.6,0.2c0.2,0,0.5-0.1,0.6-0.2c0.4-0.4,0.7-1.4,0.7-2
		c0-0.7-0.3-1.7-0.7-2c-0.2-0.1-0.4-0.2-0.6-0.2C31.7,26.5,31.5,26.6,31.3,26.8z"/>
</g>
</svg>
