<?xml version="1.0" encoding="utf-8"?>
<!-- Generator: Adobe Illustrator 23.0.3, SVG Export Plug-In . SVG Version: 6.00 Build 0)  -->
<svg version="1.1" id="Слой_1" xmlns="http://www.w3.org/2000/svg" xmlns:xlink="http://www.w3.org/1999/xlink" x="0px" y="0px"
	 viewBox="0 0 40 40" style="enable-background:new 0 0 40 40;" xml:space="preserve">
<style type="text/css">
	.st0{fill:#1D4487;}
</style>
<g>
	<path class="st0" d="M35.2,28.2H20.7v-2h14.4c0.2,0,0.3-0.1,0.3-0.3v-11c0-0.2-0.1-0.3-0.3-0.3H17.9c-0.2,0-0.3,0.1-0.3,0.3v8.4h-2
		v-8.4c0-1.3,1-2.3,2.3-2.3h17.2c1.3,0,2.3,1,2.3,2.3v11C37.5,27.2,36.5,28.2,35.2,28.2z"/>
	<path class="st0" d="M10.2,24C7.9,24,6,22.1,6,19.8c0-2.3,1.8-4.3,4.2-4.4c2.4,0,4.3,1.9,4.3,4.3C14.5,22.2,12.6,24.1,10.2,24z"/>
	<path class="st0" d="M17.8,29.9c-0.5-1.9-1.4-3.5-2.9-4.6c0,0-0.8-0.7-2.1-1.1c-0.7,0.5-1.6,0.8-2.5,0.8c-0.9,0-1.7-0.3-2.4-0.7
		c-1.3,0.4-2.2,1-2.2,1c-1,0.8-1.8,1.7-2.4,2.9c-0.4,0.9-0.7,1.9-0.8,2.9c0,0.2,0,0.4,0,0.7c5.2,0,10.3,0,15.5,0
		C18,31.1,17.9,30.5,17.8,29.9z"/>
	<polygon class="st0" points="16.5,29.3 14.9,27.7 25.8,17.3 26.2,17.7 	"/>
</g>
</svg>
