<svg xmlns="http://www.w3.org/2000/svg" viewBox="0 0 177 164.498" enable-background="new 0 0 177 164.498"><defs><linearGradient id="SVGID_1_" gradientUnits="userSpaceOnUse" y1="158.69" x2="0" y2="5.807"><stop stop-color="#14387f"/><stop offset="1" stop-color="#3f8ded"/></linearGradient></defs><path fill="url(#SVGID_1_)" d="m12 0h2.551v13.159h21.3v-13.159h106.5v13.159h21.299v-13.159h1.35c6.6 0 12 5.4 12 12v140.5c0 6.601-5.4 12-12 12h-1.35v-13.581h-21.3v13.581h-106.5v-13.581h-21.3v13.581h-2.55c-6.6 0-12-5.399-12-12v-140.5c0-6.6 5.4-12 12-12m83.37 100.7c34.629-19.67 34.629-14.635 0-34.31-34.63-19.669-29.517-22.04-29.517 17.296 0 39.34-5.113 36.679 29.517 17.01m46.985-69.07v21.3h21.299v-21.3h-21.299m0 39.765v21.299h21.299v-21.299h-21.299m0 39.764v21.3h21.299v-21.3h-21.299m-127.8-79.53v21.3h21.3v-21.3h-21.3m0 39.765v21.299h21.3v-21.299h-21.3m0 39.764v21.3h21.3v-21.3h-21.3"/></svg>