<?xml version="1.0" encoding="utf-8"?>
<!-- Generator: Adobe Illustrator 23.0.3, SVG Export Plug-In . SVG Version: 6.00 Build 0)  -->
<svg version="1.1" id="Слой_1" xmlns="http://www.w3.org/2000/svg" xmlns:xlink="http://www.w3.org/1999/xlink" x="0px" y="0px"
	 viewBox="0 0 40 40" style="enable-background:new 0 0 40 40;" xml:space="preserve">
<style type="text/css">
	.st0{fill:#1D4487;}
</style>
<path class="st0" d="M33.5,8.5H21.2l0.9-1.1l-3.6-4l-8.3,8.2v24.8h10.3v-2.4l-5.8-0.9V14.9l1.5-1.5v12.3c0,0.4,0.3,0.8,0.8,0.8
	s0.8-0.3,0.8-0.8V11.9l0.4-0.5l9.8,9.8c0.2,0.3,0.5,0.4,0.7,0.4c0.4,0,0.8-0.4,0.8-0.8c0-0.1-0.1-0.5-0.3-0.7l-9.8-9.8l0.4-0.4h13.9
	c0.4,0,0.8-0.3,0.8-0.8C34.4,8.8,33.9,8.5,33.5,8.5z"/>
</svg>
