<?xml version="1.0" encoding="utf-8"?>
<!-- Generator: Adobe Illustrator 23.0.3, SVG Export Plug-In . SVG Version: 6.00 Build 0)  -->
<svg version="1.1" id="Слой_1" xmlns="http://www.w3.org/2000/svg" xmlns:xlink="http://www.w3.org/1999/xlink" x="0px" y="0px"
	 viewBox="0 0 40 40" style="enable-background:new 0 0 40 40;" xml:space="preserve">
<style type="text/css">
	.st0{fill:#1D4487;}
</style>
<path class="st0" d="M3.1,32.7l3.8-8.5c0-0.3-0.1-0.6-0.1-0.9V14c0-3.7,3-6.7,6.7-6.7h15.8c3.7,0,6.7,3,6.7,6.7v9.3
	c0,3.7-3,6.7-6.7,6.7H13.6c-0.3,0-0.6,0-0.9-0.1L3.1,32.7z M13.6,9.6c-2.4,0-4.4,2-4.4,4.4v9.3c0,0.3,0,0.6,0.1,0.8l0.1,0.4
	l-2.1,4.6l5.3-1.5l0.3,0c0.3,0.1,0.6,0.1,0.8,0.1h15.8c2.4,0,4.4-2,4.4-4.4V14c0-2.4-2-4.4-4.4-4.4H13.6z"/>
<g>
	<circle class="st0" cx="14.9" cy="18.4" r="2.1"/>
	<circle class="st0" cx="21.4" cy="18.4" r="2.1"/>
	<circle class="st0" cx="27.9" cy="18.4" r="2.1"/>
</g>
</svg>
