<?xml version="1.0" encoding="utf-8"?>
<!-- Generator: Adobe Illustrator 23.0.3, SVG Export Plug-In . SVG Version: 6.00 Build 0)  -->
<svg version="1.1" id="Слой_1" xmlns="http://www.w3.org/2000/svg" xmlns:xlink="http://www.w3.org/1999/xlink" x="0px" y="0px"
	 viewBox="0 0 40 40" style="enable-background:new 0 0 40 40;" xml:space="preserve">
<style type="text/css">
	.st0{fill:#1D4487;}
</style>
<g>
	<path class="st0" d="M13.5,22.7c-3.2,0-5.8-2.6-5.8-5.7c0-3.2,2.5-5.9,5.7-5.9c3.3,0,5.9,2.5,5.9,5.8
		C19.3,20.1,16.6,22.7,13.5,22.7z"/>
	<path class="st0" d="M23.7,30.6c-0.6-2.6-1.9-4.7-4-6.2c0,0-1.1-0.9-2.9-1.5c-1,0.7-2.1,1-3.3,1c-1.2,0-2.3-0.4-3.2-1
		c-1.8,0.6-2.9,1.4-2.9,1.4c-1.4,1-2.5,2.4-3.2,4c-0.6,1.2-0.9,2.5-1.1,3.9c0,0.3,0,0.6,0,0.9c7,0,14,0,21,0
		C24,32.2,23.9,31.4,23.7,30.6z"/>
	<path class="st0" d="M19.2,20.8l2.1-4.8c0-0.2,0-0.3,0-0.4v-4.8c0-2.1,1.7-3.7,3.7-3.7h8.3c2.1,0,3.7,1.7,3.7,3.7v4.8
		c0,2.1-1.7,3.7-3.7,3.7H25c-0.2,0-0.3,0-0.5,0L19.2,20.8z M25,8.5c-1.2,0-2.1,0.9-2.1,2.1v4.8c0,0.1,0,0.3,0,0.4l0,0.3l-0.9,2.1
		l2.4-0.7l0.2,0c0.1,0,0.3,0,0.4,0h8.3c1.2,0,2.1-0.9,2.1-2.1v-4.8c0-1.2-0.9-2.1-2.1-2.1H25z"/>
</g>
</svg>
