<?xml version="1.0" encoding="utf-8"?>
<!-- Generator: Adobe Illustrator 23.0.3, SVG Export Plug-In . SVG Version: 6.00 Build 0)  -->
<svg version="1.1" id="Слой_1" xmlns="http://www.w3.org/2000/svg" xmlns:xlink="http://www.w3.org/1999/xlink" x="0px" y="0px"
	 viewBox="0 0 93 95" style="enable-background:new 0 0 93 95;" xml:space="preserve">
<style type="text/css">
	.st0{fill:url(#SVGID_1_);}
</style>
<linearGradient id="SVGID_1_" gradientUnits="userSpaceOnUse" x1="12.0676" y1="49.6534" x2="82.9324" y2="49.6534">
	<stop  offset="0" style="stop-color:#123A81"/>
	<stop  offset="1" style="stop-color:#3F8DED"/>
</linearGradient>
<path class="st0" d="M78.9,22.3H16.1c-2.2,0-4.1,1.8-4.1,4.1v46.6c0,2.2,1.8,4.1,4.1,4.1h62.7c2.2,0,4.1-1.8,4.1-4.1V26.4
	C82.9,24.1,81.1,22.3,78.9,22.3z M57.6,51.1l-13.7,9.7c-1.1,0.8-2.7,0-2.7-1.4V39.9c0-1.4,1.6-2.2,2.7-1.4l13.7,9.7
	C58.5,48.9,58.5,50.4,57.6,51.1z"/>
</svg>
