<?xml version="1.0" encoding="utf-8"?>
<!-- Generator: Adobe Illustrator 23.0.3, SVG Export Plug-In . SVG Version: 6.00 Build 0)  -->
<svg version="1.1" id="Слой_1" xmlns="http://www.w3.org/2000/svg" xmlns:xlink="http://www.w3.org/1999/xlink" x="0px" y="0px"
	 viewBox="0 0 40 40" style="enable-background:new 0 0 40 40;" xml:space="preserve">
<style type="text/css">
	.st0{fill:#204387;}
	.st1{fill:#FFFFFF;}
</style>
<path class="st0" d="M19.6,5.5v29h13.7v-29H19.6z M26.5,14.4c-1.1,0-2-0.9-2-2s0.9-2,2-2c1.1,0,2,0.9,2,2
	C28.5,13.5,27.6,14.4,26.5,14.4z"/>
<g>
	<path class="st1" d="M15,33.2l-8.3-3.1c-0.9-0.4-1.5-1.4-1.1-2.4l5.6-15.6c0.4-0.9,1.4-1.3,2.4-1.1l8.3,3.1
		c0.9,0.4,1.5,1.5,1.1,2.4l-5.6,15.6C17,33,15.9,33.6,15,33.2z"/>
	<path class="st0" d="M14.9,33.4l-8.3-3.1c-1.1-0.4-1.8-1.8-1.5-2.9l5.6-15.6c0.4-1.1,1.8-1.8,2.9-1.4l8.3,3.1
		c1.1,0.4,1.8,1.8,1.5,2.9L17.8,32C17.4,33.2,16.2,33.8,14.9,33.4z M13.4,11.5c-0.7-0.2-1.4,0.2-1.8,0.9L6.2,27.5
		c-0.2,0.7,0.2,1.4,0.9,1.8l8.1,3c0.7,0.2,1.4-0.2,1.8-0.9l5.5-15.1c0.2-0.7-0.2-1.4-0.9-1.8L13.4,11.5z"/>
</g>
</svg>
