<?xml version="1.0" encoding="utf-8"?>
<!-- Generator: Adobe Illustrator 23.0.3, SVG Export Plug-In . SVG Version: 6.00 Build 0)  -->
<svg version="1.1" id="Слой_1" xmlns="http://www.w3.org/2000/svg" xmlns:xlink="http://www.w3.org/1999/xlink" x="0px" y="0px"
	 viewBox="0 0 40 40" style="enable-background:new 0 0 40 40;" xml:space="preserve">
<style type="text/css">
	.st0{fill:#1F4287;}
</style>
<g>
	<path class="st0" d="M8.8,30.5C6.1,27.6,4.5,23.9,4.5,20c0-8.3,6.7-15,15-15c8.3,0,15,6.7,15,15c0,1.1-0.1,2.2-0.4,3.3l-2.9-0.6
		c0.2-0.9,0.3-1.8,0.3-2.6c0-6.7-5.4-12.1-12.1-12.1S7.5,13.3,7.5,20c0,3.2,1.2,6.2,3.4,8.4L8.8,30.5z M19.5,23.5
		c-1.9,0-3.5-1.6-3.5-3.5s1.6-3.5,3.5-3.5s3.5,1.6,3.5,3.5S21.5,23.5,19.5,23.5z M19.5,19.4c-0.3,0-0.6,0.3-0.6,0.6s0.3,0.6,0.6,0.6
		s0.6-0.3,0.6-0.6S19.9,19.4,19.5,19.4z"/>
	<g>
		<path class="st0" d="M15,32.1V35h-2.3v-8.8h3.6c0.8,0,1.6,0.1,2.2,0.8c0.7,0.7,0.8,1.4,0.8,2.1c0,0.7-0.1,1.5-0.8,2.2
			c-0.7,0.7-1.5,0.8-2.2,0.8H15z M15,30.2h0.8c0.2,0,0.7,0,1-0.3c0.3-0.2,0.3-0.6,0.3-0.8c0-0.2,0-0.6-0.3-0.8
			c-0.3-0.3-0.7-0.3-1-0.3H15V30.2z"/>
		<path class="st0" d="M22.1,26.2l1.5,5.7l1.9-5.7h1.8l1.7,5.7l1.7-5.7h2.4L30.3,35h-2.3l-1.6-5.1L24.7,35h-2.3l-2.6-8.8H22.1z"/>
	</g>
</g>
</svg>
