<?xml version="1.0" encoding="utf-8"?>
<!-- Generator: Adobe Illustrator 23.0.3, SVG Export Plug-In . SVG Version: 6.00 Build 0)  -->
<svg version="1.1" id="OBJECTS" xmlns="http://www.w3.org/2000/svg" xmlns:xlink="http://www.w3.org/1999/xlink" x="0px" y="0px"
	 viewBox="0 0 165.1 69.8" style="enable-background:new 0 0 165.1 69.8;" xml:space="preserve">
<style type="text/css">
	.st0{fill:#FF0000;}
	.st1{fill:#FFFFFF;}
</style>
<g>
	<path class="st0" d="M116.1,69.8c-8.3-0.2-17.3-0.3-26.4-0.6c-3.8-0.1-7.6-0.5-11.4-1c-4.4-0.7-7.7-3-9.4-7.3
		c-0.8-2.2-1.5-4.5-1.7-6.8C66,42.7,66,31.4,66.8,20.1c0.3-3.6,0.7-7.1,1.9-10.5c1.9-5,5.6-7.6,10.7-8.1c6.7-0.5,13.4-0.8,20-1.1
		c11.5-0.4,22.9-0.4,34.4-0.1c5.5,0.1,11,0.4,16.4,0.7c2.6,0.1,5,0.6,7.3,2c3,1.8,4.6,4.6,5.6,7.9c0.9,3,1.2,6.1,1.4,9.1
		c0.6,8.8,0.6,17.5,0.1,26.3c-0.2,3.7-0.3,7.4-1.3,10.9c-0.5,1.9-1.2,3.9-2.2,5.6c-2,3.4-5.3,5.3-9.2,5.6c-4.8,0.4-9.7,0.7-14.5,0.9
		C130.6,69.6,123.7,69.6,116.1,69.8z M122.6,25.9c0-0.3,0-0.7,0-1.1c0-4.1,0-8.2,0-12.3c0-0.6-0.1-0.8-0.7-0.8c-1.5,0-3,0.1-4.4,0
		c-0.7,0-0.9,0.2-0.9,0.9c0,6.5,0,12.9,0,19.4c0,7.8,0,15.7,0,23.5c0,1,0,1,1,1c1.3,0,2.6,0,3.9,0c1.3,0,1.1,0.1,1.1-1.2
		c0-0.6,0-1.3,0-1.8c1.1,0.9,2.1,1.8,3.3,2.5c3.5,2,7.2,0.5,8.1-3.4c0.4-1.8,0.6-3.6,0.6-5.4c0.1-4.9,0.1-9.8,0-14.7
		c0-2-0.3-3.9-0.7-5.9c-0.8-3.6-4.2-5.1-7.5-3.4C125,24,123.9,25,122.6,25.9z M105.3,53.2c0,1,0,1.9,0,2.8c0,0.5,0.1,0.7,0.7,0.7
		c1.7,0,3.4,0,5,0c0.6,0,0.7-0.2,0.7-0.7c0-10.6,0-21.3,0-31.9c0-0.6-0.2-0.7-0.8-0.7c-1.6,0-3.1,0-4.7,0c-1,0-1,0-1,1
		c0,7.8,0,15.6,0,23.4c0,1.4-1.7,3.5-3.1,3.8c-1,0.2-1.6-0.2-1.7-1.3c0-0.4,0-0.9,0-1.3c0-8.2,0-16.5,0-24.7c0-0.7-0.2-0.9-0.9-0.9
		c-1.6,0-3.1,0.1-4.7,0c-0.7,0-0.9,0.2-0.9,0.9c0,8.5,0,17,0,25.5c0,1.2,0.1,2.3,0.3,3.5c0.5,2.7,2.2,4.1,4.7,3.9
		c1.6-0.1,2.9-0.8,4-1.8C103.8,54.6,104.5,53.9,105.3,53.2z M150.4,44.8c0,0.8,0,1.4,0,2.1c-0.1,0.9-0.1,1.9-0.3,2.8
		c-0.3,1.1-1.1,1.7-2.2,1.7c-1.2,0.1-2.1-0.4-2.5-1.5c-0.2-0.4-0.3-0.9-0.3-1.4c-0.1-2.5-0.1-4.9-0.1-7.4c0-0.1,0.1-0.1,0.1-0.2
		c0.3,0,0.6,0,0.9,0c3.3,0,6.7,0,10,0c1,0,1,0,1-1c0-2.1,0.1-4.3,0-6.4c0-1.3-0.2-2.7-0.4-4c-1.7-7.7-10.2-8.4-14.3-5.1
		c-2.4,2-3.4,4.7-3.5,7.6c-0.2,4.9-0.1,9.8-0.1,14.7c0,1.8,0.3,3.5,1.1,5.1c1.7,3.5,4.7,5.2,8.9,5c3.3-0.2,5.7-1.7,7.2-4.5
		c1.2-2.3,1.1-4.8,1.1-7.2c0-0.1-0.3-0.4-0.4-0.4C154.4,44.8,152.4,44.8,150.4,44.8z M81.1,18.4c0,0.3,0,0.6,0,0.9
		c0,5.5,0,10.9,0,16.4c0,6.6,0,13.3,0,19.9c0,1,0,1,1,1c1.5,0,3.1,0,4.6,0c1.1,0,1.1,0,1.1-1.1c0-11.9,0-23.8,0-35.7
		c0-0.5,0-0.9,0-1.5c0.5,0,0.9,0,1.3,0c1.8,0,3.5,0,5.3,0c0.6,0,0.8-0.2,0.8-0.8c0-1.7,0-3.3,0-5c0-0.5-0.1-0.7-0.7-0.7
		c-1.4,0-2.9,0-4.3,0C85.1,12,80,12,75,12c-0.6,0-0.8,0.1-0.8,0.7c0,1.1,0,2.3,0,3.4c0,0.7-0.2,1.7,0.2,2.1c0.4,0.4,1.4,0.2,2.1,0.2
		C78,18.4,79.5,18.4,81.1,18.4z"/>
	<path class="st1" d="M54.9,23.1c2.1,0,4.1,0,6.2,0c0,11.1,0,22.2,0,33.3c-2,0-4,0-6.1,0c0-1.1,0-2.3,0-3.5c-0.6,0.6-1,1-1.5,1.4
		c-1.4,1.4-3,2.6-5.1,2.6c-1.9,0-3.4-0.9-3.9-2.7c-0.4-1.3-0.6-2.7-0.6-4.1c-0.1-8.8-0.1-17.7-0.1-26.5c0-0.1,0-0.2,0-0.4
		c2,0,4,0,6.1,0c0,0.3,0,0.5,0,0.8c0,8.5,0.1,17,0.1,25.5c0,0.2,0,0.5,0,0.7c0.1,1,0.9,1.6,1.8,1.2c0.8-0.3,1.4-0.9,2.1-1.5
		c0.8-0.7,1.1-1.7,1.1-2.8c-0.1-7.6-0.1-15.3-0.1-22.9C54.9,23.9,54.9,23.5,54.9,23.1z"/>
	<path class="st1" d="M22.7,11.9c-1.1,3.7-2.2,7.3-3.3,10.8c-1.5,5-3,10.1-4.5,15.1c-0.1,0.4-0.2,0.8-0.2,1.2c0,5.5,0.1,11,0.1,16.5
		c0,0.3,0,0.5,0,0.9c-2.1,0-4.3,0-6.4,0c0-0.3,0-0.5,0-0.8c0-5.5,0-11.1-0.1-16.6c0-0.6-0.2-1.3-0.4-1.9C5.4,29,2.8,20.9,0.2,12.8
		C0.2,12.6,0.1,12.3,0,12c2.2,0,4.3,0,6.4,0c0.2,0,0.5,0.4,0.5,0.6c1,3.6,2,7.2,2.9,10.8c0.5,1.9,1,3.8,1.7,5.7
		c0.3-1.2,0.7-2.5,1-3.7c1.1-4.2,2.2-8.5,3.2-12.7c0.1-0.5,0.3-0.7,0.9-0.7C18.6,12,20.6,11.9,22.7,11.9z"/>
	<path class="st1" d="M21.7,39.8c0-2.5-0.1-5.1,0-7.6c0-1.2,0.3-2.5,0.7-3.7c1-3,2.9-4.9,6.1-5.4c3.5-0.5,6.7,0.2,8.8,3.3
		c1.1,1.6,1.5,3.4,1.7,5.3c0.1,1.6,0.1,3.3,0.2,4.9c0,3.6,0.1,7.1,0,10.7c0,1.2-0.2,2.5-0.5,3.7c-1,3.7-4.2,6.1-8,6.1
		c-3.9,0-7.3-2.4-8.3-6c-0.4-1.6-0.6-3.4-0.6-5.1C21.6,43.9,21.7,41.8,21.7,39.8C21.7,39.8,21.7,39.8,21.7,39.8z M33.1,40.1
		C33.1,40.1,33.1,40.1,33.1,40.1c-0.1-2.6-0.1-5.2-0.1-7.8c0-0.7-0.1-1.4-0.3-2c-0.3-1.2-1.3-1.8-2.5-1.7c-1.2,0-2.1,0.7-2.4,1.9
		c-0.2,0.6-0.2,1.3-0.2,1.9c0,5.1,0,10.2,0.1,15.3c0,0.7,0.1,1.5,0.3,2.2c0.3,1.2,1.3,1.8,2.4,1.8c1.1,0,2-0.7,2.3-1.8
		c0.2-0.7,0.3-1.4,0.3-2.1C33.2,45.1,33.1,42.6,33.1,40.1z"/>
	<path class="st1" d="M122.6,25.9c1.3-0.9,2.4-2,3.7-2.6c3.3-1.7,6.6-0.2,7.5,3.4c0.4,1.9,0.7,3.9,0.7,5.9c0.1,4.9,0.1,9.8,0,14.7
		c0,1.8-0.2,3.7-0.6,5.4c-0.9,3.9-4.6,5.4-8.1,3.4c-1.2-0.7-2.2-1.7-3.3-2.5c0,0.6,0,1.2,0,1.8c0,1.3,0.1,1.2-1.1,1.2
		c-1.3,0-2.6,0-3.9,0c-1,0-1,0-1-1c0-7.8,0-15.7,0-23.5c0-6.5,0-12.9,0-19.4c0-0.7,0.2-0.9,0.9-0.9c1.5,0,3,0,4.4,0
		c0.6,0,0.7,0.2,0.7,0.8c0,4.1,0,8.2,0,12.3C122.6,25.3,122.6,25.7,122.6,25.9z M122.6,39.8C122.6,39.8,122.6,39.8,122.6,39.8
		c-0.1,3,0,6-0.1,9c0,1.2,0.5,1.8,1.4,2.2c0.3,0.1,0.6,0.3,0.9,0.3c1.4,0.4,2.5-0.1,2.9-1.6c0.2-0.7,0.3-1.5,0.3-2.2
		c0-5.3,0-10.5,0-15.8c0-0.7-0.1-1.4-0.3-2c-0.3-1-0.9-1.4-1.9-1.4c-1,0-1.8,0.4-2.6,0.9c-0.5,0.3-0.7,0.7-0.7,1.3
		C122.7,33.6,122.6,36.7,122.6,39.8z"/>
	<path class="st1" d="M105.3,53.2c-0.8,0.8-1.5,1.4-2.2,2.1c-1.2,1-2.5,1.8-4,1.8c-2.5,0.1-4.2-1.3-4.7-3.9
		c-0.2-1.1-0.3-2.3-0.3-3.5c0-8.5,0-17,0-25.5c0-0.7,0.2-1,0.9-0.9c1.6,0.1,3.1,0,4.7,0c0.7,0,0.9,0.2,0.9,0.9c0,8.2,0,16.5,0,24.7
		c0,0.4,0,0.9,0,1.3c0.1,1.1,0.7,1.5,1.7,1.3c1.4-0.3,3.1-2.4,3.1-3.8c0-7.8,0-15.6,0-23.4c0-1,0-1,1-1c1.6,0,3.1,0,4.7,0
		c0.6,0,0.8,0.1,0.8,0.7c0,10.6,0,21.3,0,31.9c0,0.5-0.1,0.8-0.7,0.7c-1.7,0-3.4,0-5,0c-0.5,0-0.7-0.2-0.7-0.7
		C105.3,55.1,105.3,54.2,105.3,53.2z"/>
	<path class="st1" d="M150.4,44.8c2.1,0,4,0,6,0c0.1,0,0.4,0.2,0.4,0.4c0,2.5,0.1,5-1.1,7.2c-1.5,2.9-4,4.4-7.2,4.5
		c-4.2,0.2-7.2-1.5-8.9-5c-0.8-1.6-1.1-3.3-1.1-5.1c0-4.9,0-9.8,0.1-14.7c0.1-3,1.1-5.6,3.5-7.6c4.1-3.4,12.6-2.6,14.3,5.1
		c0.3,1.3,0.4,2.6,0.4,4c0.1,2.1,0,4.2,0,6.4c0,1,0,1-1,1c-3.3,0-6.7,0-10,0c-0.3,0-0.6,0-0.9,0c-0.1,0.1-0.1,0.2-0.1,0.2
		c0,2.5,0,4.9,0.1,7.4c0,0.5,0.2,0.9,0.3,1.4c0.5,1.1,1.3,1.6,2.5,1.5c1.1-0.1,2-0.6,2.2-1.7c0.2-0.9,0.2-1.9,0.3-2.8
		C150.4,46.3,150.4,45.6,150.4,44.8z M150.5,35.8c-0.1-2-0.1-3.8-0.3-5.7c-0.1-1.4-1-1.9-2.5-1.9c-1.6,0-2.5,0.5-2.6,1.9
		c-0.2,1.7-0.2,3.4-0.2,5.2c0,0.2,0.3,0.4,0.4,0.4C147,35.8,148.6,35.8,150.5,35.8z"/>
	<path class="st1" d="M81.1,18.4c-1.6,0-3.1,0-4.6,0c-0.7,0-1.7,0.2-2.1-0.2c-0.4-0.3-0.1-1.3-0.2-2.1c0-1.1,0-2.3,0-3.4
		c0-0.6,0.2-0.7,0.8-0.7c5.1,0,10.1,0,15.2,0c1.4,0,2.9,0,4.3,0c0.6,0,0.7,0.2,0.7,0.7c0,1.7,0,3.3,0,5c0,0.6-0.2,0.8-0.8,0.8
		c-1.8,0-3.5,0-5.3,0c-0.4,0-0.8,0-1.3,0c0,0.5,0,1,0,1.5c0,11.9,0,23.8,0,35.7c0,1.1,0,1.1-1.1,1.1c-1.5,0-3.1,0-4.6,0
		c-1,0-1,0-1-1c0-6.6,0-13.3,0-19.9c0-5.5,0-10.9,0-16.4C81.1,19,81.1,18.7,81.1,18.4z"/>
	<path class="st0" d="M122.6,39.8c0-3.1,0-6.2,0-9.3c0-0.6,0.2-1,0.7-1.3c0.8-0.5,1.6-1,2.6-0.9c1,0,1.6,0.4,1.9,1.4
		c0.2,0.7,0.3,1.4,0.3,2c0,5.3,0,10.5,0,15.8c0,0.7-0.1,1.5-0.3,2.2c-0.4,1.4-1.5,2-2.9,1.6c-0.3-0.1-0.6-0.2-0.9-0.3
		c-0.9-0.4-1.4-1-1.4-2.2C122.7,45.8,122.6,42.8,122.6,39.8C122.6,39.8,122.6,39.8,122.6,39.8z"/>
	<path class="st0" d="M150.5,35.8c-1.8,0-3.5,0-5.2,0c-0.1,0-0.4-0.3-0.4-0.4c0-1.7,0-3.5,0.2-5.2c0.2-1.4,1-1.9,2.6-1.9
		c1.5,0,2.3,0.5,2.5,1.9C150.4,32,150.4,33.9,150.5,35.8z"/>
</g>
</svg>
