<?xml version="1.0" encoding="utf-8"?>
<!-- Generator: Adobe Illustrator 23.0.3, SVG Export Plug-In . SVG Version: 6.00 Build 0)  -->
<svg version="1.1" id="Слой_1" xmlns="http://www.w3.org/2000/svg" xmlns:xlink="http://www.w3.org/1999/xlink" x="0px" y="0px"
	 viewBox="0 0 40 40" style="enable-background:new 0 0 40 40;" xml:space="preserve">
<style type="text/css">
	.st0{fill:#1F4287;}
</style>
<g>
	<g>
		<path class="st0" d="M8.6,12.3c0.1,0,0.1,0,0.1,0c0.5,0,0.9,0,1.4,0.1c0.6,0,1.3,0.1,1.9,0.2c1.2,0.2,2.3,0.5,3.5,0.9
			c5.5,2,9.9,6.4,12,11.9c0.8,2,1.2,4.1,1.3,6.2c0,0.3,0,0.5,0,0.8c0,0,0,0.1,0,0.1c0.1,0,0.2,0,0.2,0c1.1,0,2.3,0,3.4,0
			c0.3,0,0.7,0,1,0c0,0,0.1,0,0.1,0c0-0.1,0-0.2,0-0.3c0-0.7,0-1.5-0.1-2.2c-0.1-0.8-0.2-1.5-0.3-2.3c-0.4-1.9-0.9-3.6-1.7-5.4
			c-1.6-3.6-3.9-6.6-7-9.1c-2.5-2.1-5.4-3.6-8.5-4.6c-1-0.3-2.1-0.6-3.1-0.8c-0.5-0.1-1-0.1-1.5-0.2c-0.3,0-0.6-0.1-1-0.1
			c-0.5,0-1.1-0.1-1.6-0.1c0,0-0.1,0-0.1,0C8.6,7.7,8.6,12.1,8.6,12.3z M25,32.5c0-0.1,0-0.1,0-0.2c0-0.5,0-1-0.1-1.6
			c-0.1-0.8-0.2-1.6-0.4-2.3c-0.8-3-2.3-5.5-4.5-7.7c-1.8-1.8-4-3.1-6.4-3.9c-1-0.3-2.1-0.6-3.1-0.7C10,16,9.4,16,8.8,16
			c-0.1,0-0.1,0-0.2,0c0,0.1,0,0.2,0,0.2c0,1.4,0,2.8,0,4.3c0,0.1,0,0.1,0,0.2c0,0,0,0,0,0.1c0,0,0.1,0,0.1,0c0.3,0,0.5,0,0.8,0
			c0.7,0,1.4,0.2,2.1,0.3c1.9,0.5,3.6,1.4,5,2.8c1.6,1.5,2.7,3.3,3.3,5.4c0.3,1,0.4,2,0.4,3c0,0.1,0,0.1,0,0.2c0.2,0,4.1,0,4.7,0
			C25,32.5,25,32.5,25,32.5z M15.2,29.2c0-1.9-1.5-3.3-3.3-3.3c-1.8,0-3.3,1.4-3.3,3.3c0,1.9,1.5,3.3,3.3,3.3
			C13.7,32.5,15.2,31,15.2,29.2z"/>
		<path class="st0" d="M8.6,12.3c0-0.2,0-4.6,0-4.7c0,0,0.1,0,0.1,0c0.5,0,1.1,0,1.6,0.1c0.3,0,0.6,0,1,0.1c0.5,0.1,1,0.1,1.5,0.2
			c1.1,0.2,2.1,0.4,3.1,0.8c3.1,1,6,2.5,8.5,4.6c3,2.5,5.3,5.6,7,9.1c0.8,1.7,1.3,3.5,1.7,5.4c0.1,0.8,0.3,1.5,0.3,2.3
			c0.1,0.7,0.1,1.5,0.1,2.2c0,0.1,0,0.2,0,0.3c-0.1,0-0.1,0-0.1,0c-0.3,0-0.7,0-1,0c-1.1,0-2.3,0-3.4,0c-0.1,0-0.1,0-0.2,0
			c0,0,0-0.1,0-0.1c0-0.3,0-0.5,0-0.8c-0.1-2.1-0.5-4.2-1.3-6.2c-2.1-5.5-6.5-9.8-12-11.9c-1.1-0.4-2.3-0.7-3.5-0.9
			c-0.6-0.1-1.3-0.2-1.9-0.2c-0.5,0-0.9,0-1.4-0.1C8.7,12.3,8.6,12.3,8.6,12.3z"/>
		<path class="st0" d="M25,32.5c0,0-0.1,0-0.1,0c-0.6,0-4.5,0-4.7,0c0-0.1,0-0.1,0-0.2c0-1-0.2-2-0.4-3c-0.6-2.1-1.7-3.9-3.3-5.4
			c-1.4-1.3-3.1-2.3-5-2.8c-0.7-0.2-1.4-0.3-2.1-0.3c-0.3,0-0.5,0-0.8,0c0,0-0.1,0-0.1,0c0,0,0-0.1,0-0.1c0-0.1,0-0.1,0-0.2
			c0-1.4,0-2.8,0-4.3c0-0.1,0-0.2,0-0.2c0.1,0,0.1,0,0.2,0c0.6,0,1.2,0,1.8,0.1c1.1,0.1,2.1,0.4,3.1,0.7c2.4,0.8,4.6,2.1,6.4,3.9
			c2.2,2.2,3.7,4.7,4.5,7.7c0.2,0.8,0.3,1.5,0.4,2.3c0.1,0.5,0.1,1,0.1,1.6C25.1,32.3,25,32.4,25,32.5z"/>
		<path class="st0" d="M15.2,29.2c0,1.9-1.5,3.3-3.3,3.3c-1.8,0-3.3-1.4-3.3-3.3c0-1.9,1.6-3.3,3.3-3.3
			C13.7,25.9,15.2,27.3,15.2,29.2z"/>
	</g>
</g>
</svg>
