<svg xmlns="http://www.w3.org/2000/svg" viewBox="0 0 156.3 105.1" enable-background="new 0 0 156.3 105.1" xmlns:xlink="http://www.w3.org/1999/xlink">
 <defs>
  <linearGradient id="SVGID_4_" gradientUnits="userSpaceOnUse" x1="90.9" x2="156.3" xlink:href="#SVGID_1_"/>
  <linearGradient id="SVGID_3_" gradientUnits="userSpaceOnUse" x1="0" x2="72" xlink:href="#SVGID_1_"/>
  <linearGradient id="SVGID_1_" gradientUnits="userSpaceOnUse" x1="37.559" x2="114.72">
   <stop stop-color="#0e3e84"/>
   <stop offset="1" stop-color="#3f8ded"/>
  </linearGradient>
  <linearGradient id="SVGID_2_" gradientUnits="userSpaceOnUse" x1="76.46" x2="96.49" xlink:href="#SVGID_1_"/>
 </defs>
 <path d="m43.7 59.8h64.9c3.4 0 6.1-2.8 6.1-6.1v-36.9c0-3.4-2.8-6.1-6.1-6.1h-7.8l-.7-1.8c-.7-2-1.4-3.8-2-5.4-.8-2-3-3.5-5.2-3.5-2.4 0-4.8 0-7.1 0-2.4 0-4.8 0-7.1 0-2.1 0-4.5 1.5-5.3 3.5-.7 1.6-1.4 3.4-2.2 5.4l-.7 1.8h-9v-3.7c0-1.4-1.2-2.5-2.5-2.5h-9.8c-1.4 0-2.5 1.1-2.5 2.5v3.7h-2.8c-3.4 0-6.1 2.8-6.1 6.1v36.9c-.2 3.4 2.5 6.1 5.9 6.1m42.8-5.3c-10.3 0-18.6-8.3-18.6-18.6s8.3-18.6 18.6-18.6 18.6 8.3 18.6 18.6-8.4 18.6-18.6 18.6m-40.2-36.9h13.5c1.4 0 2.5 1.1 2.5 2.5v3.2c0 1.3-1.1 2.5-2.5 2.5h-13.5c-1.4 0-2.5-1.1-2.5-2.5v-3.3c.1-1.3 1.2-2.4 2.5-2.4" fill="url(#SVGID_1_)"/>
 <path d="m86.5 46.2c-5.5 0-10-4.6-10-10.2s4.5-10.2 10-10.2 10 4.6 10 10.2-4.5 10.2-10 10.2m0-4.8c-2.9 0-5.3-2.4-5.3-5.4s2.4-5.4 5.3-5.4 5.3 2.4 5.3 5.4c0 2.9-2.4 5.4-5.3 5.4" fill="url(#SVGID_2_)"/>
 <path d="m53.8 67.6l18.2 19.5-24 18c2-4.2 3.9-8.5 5.9-12.7-31.9-4.8-53.8-13.7-53.9-25.2-.1-17 21.9-25.3 33.5-26.2.1 1.9.2 3.1.2 5-10.3.6-22.8 6.8-22.4 16.9.4 10.2 20.6 15.2 43.3 15l-.8-10.3" fill="url(#SVGID_3_)"/>
 <path d="m90.9 94.8c34.5-2.9 65.1-13.1 65.4-27.6.3-15.3-17.6-23.5-29.6-25.7-.6-.1.1-2.2.3-2.9-2 .2-7.5 2.7-8.2 3.8l7.2 7.5c-.1-1.6-.1-3.1.7-3.4 9.2 1.8 18.6 7.6 18.3 16.3-.4 10.2-31.3 15.3-54 15.1l-.1 16.9" fill="url(#SVGID_4_)"/>
</svg>
