<?xml version="1.0" encoding="utf-8"?>
<!-- Generator: Adobe Illustrator 21.0.2, SVG Export Plug-In . SVG Version: 6.00 Build 0)  -->
<svg version="1.1" id="Слой_1" xmlns="http://www.w3.org/2000/svg" xmlns:xlink="http://www.w3.org/1999/xlink" x="0px" y="0px"
	 viewBox="0 0 71 70" style="enable-background:new 0 0 71 70;" xml:space="preserve">
<style type="text/css">
	.st0{fill:url(#SVGID_1_);stroke:#FFFFFF;stroke-miterlimit:10;}
	.st1{fill:#FFFFFF;}
</style>
<g>
	
		<linearGradient id="SVGID_1_" gradientUnits="userSpaceOnUse" x1="0.5" y1="-81.1" x2="70.5" y2="-81.1" gradientTransform="matrix(1 0 0 -1 0 -46)">
		<stop  offset="0" style="stop-color:#12397F"/>
		<stop  offset="1" style="stop-color:#3F8DED"/>
	</linearGradient>
	<path class="st0" d="M70.5,59.9c0,5.3-4.1,9.7-9.1,9.7H9.6c-5,0-9.1-4.3-9.1-9.7V10.2c0-5.3,4.1-9.6,9.1-9.6h51.8
		c5,0,9.1,4.3,9.1,9.7V59.9L70.5,59.9L70.5,59.9z"/>
</g>
<path class="st1" d="M58.6,44.4H25.8V11.6h32.8V44.4z M27.2,43.1h30.1V13H27.2V43.1z"/>
<polygon class="st1" points="13.1,24.8 25.8,11.6 26.8,12.6 14,25.7 "/>
<polygon class="st1" points="45,56.5 57.7,43.5 58.6,44.4 45.9,57.4 "/>
<polygon class="st1" points="13.2,56.4 26,43.4 26.9,44.4 14.1,57.4 "/>
<rect x="13.1" y="24.8" class="st1" width="1.3" height="32.6"/>
<polygon class="st1" points="13.4,57.4 13.4,56.1 46,56.1 45.9,57.4 "/>
<polygon class="st1" points="52.7,26 38.8,26 41.9,22.9 38.2,19.3 29.8,27.7 29.8,27.7 29.8,50 40,50 40,49.2 34.2,47.9 34.2,30.4 
	37.5,27.1 37.5,41.2 38.6,41.2 38.6,27.9 46.3,35.6 47.1,34.8 39.6,27.1 52.7,27.1 "/>
</svg>
