<svg id="Слой_1" xmlns="http://www.w3.org/2000/svg" xmlns:xlink="http://www.w3.org/1999/xlink" x="0" y="0" viewBox="0 0 40 50" enable-background="new 0 0 40 50">
 <defs>
  <linearGradient id="SVGID_1_" gradientUnits="userSpaceOnUse" x1="19.994" y1="43.822" x2="19.994" y2="6.944">
   <stop stop-color="#0e3e84"/>
   <stop offset="1" stop-color="#3f8ded"/>
  </linearGradient>
  <linearGradient id="SVGID_2_" gradientUnits="userSpaceOnUse" x1="8.679" y1="7.72" x2="12.217" y2="7.72">
   <stop stop-color="#3075cd"/>
   <stop offset="1" stop-color="#3f8ded"/>
  </linearGradient>
  <linearGradient id="SVGID_3_" gradientUnits="userSpaceOnUse" x1="27.316" y1="7.72" x2="30.86" y2="7.72" xlink:href="#SVGID_2_"/>
 </defs>
 <path fill="url(#SVGID_1_)" d="M0,6.938h7.501v3.104c0,1.633,1.336,2.969,2.969,2.969s2.969-1.336,2.969-2.969V6.938h12.664v3.104
	c0,1.633,1.336,2.969,2.971,2.969s2.97-1.336,2.97-2.969V6.938h7.958v32.451c0,2.438-1.993,4.43-4.431,4.43H4.429
	c-2.435,0-4.428-1.992-4.428-4.43L0,6.938"/>
 <path fill="url(#SVGID_2_)" d="m10.447 3.954c.975 0 1.77.796 1.77 1.769v3.979c0 .973-.795 1.769-1.77 1.769-.973 0-1.767-.796-1.767-1.769v-3.98c0-.972.795-1.768 1.767-1.768"/>
 <path fill="url(#SVGID_3_)" d="m29.09 3.954c.974 0 1.771.796 1.771 1.769v3.979c0 .973-.794 1.769-1.769 1.769-.974 0-1.769-.796-1.769-1.769v-3.98c.0001-.972.795-1.768 1.767-1.768"/>
 <path fill="#fff" d="m2.48 17.691h34.455v21.15c0 1.219-.996 2.215-2.215 2.215h-30.02c-1.219 0-2.215-.996-2.215-2.215v-21.15"/>
 <path fill="#fff" d="m19.556 33.732h-4.629-.436l.305-.313c1.792-1.84 3.038-3.156 3.83-4.322.777-1.141 1.117-2.133 1.117-3.33 0-1.476-.537-2.859-1.604-3.833-.958-.876-2.35-1.428-4.17-1.428-2 0-3.387.639-4.317 1.567-1.199 1.194-1.66 2.87-1.731 4.28h3.715c.029-1.296.49-1.99.983-2.36.526-.396 1.091-.42 1.23-.42.652 0 1.181.25 1.555.65.398.426.617 1.02.617 1.66 0 .5-.113.938-.423 1.478-.299.52-.784 1.137-1.539 2.01v.002l-6.515 7.592h12.01v-3.231"/>
 <path fill="#a1b2cb" d="m14.159 33.783c3.124-3.234 4.825-5.66 4.825-7.982 0-1.824-.794-3.506-2.367-4.504.848.973 1.273 2.231 1.273 3.565 0 2.48-2.065 5.226-5.665 8.917l1.934.004m-7.291-8.149h2.914c-.023-2.689 2.516-2.487 2.771-2.487.812 0 2.507.5 2.698 2.673-.604-2.23-2.114-2.031-2.343-2.031-.258 0-2.057.094-2.033 2.781h-4.09c.011-.301.036-.616.083-.936m.139 10.608h10.698l1.094-2.66v3.598h-12.595l.805-.938"/>
 <path fill="#02316b" d="m18.787 33.783h-4.629-.437l.306-.314c1.792-1.838 3.038-3.156 3.829-4.32.777-1.141 1.117-2.133 1.117-3.331 0-1.476-.537-2.859-1.604-3.833-.958-.876-2.351-1.428-4.17-1.428-2 0-3.388.64-4.317 1.567-1.198 1.195-1.659 2.871-1.731 4.28h3.716c.028-1.296.489-1.99.983-2.36.525-.396 1.09-.42 1.23-.42.652 0 1.181.25 1.555.649.398.427.617 1.02.617 1.661 0 .5-.113.937-.424 1.478-.299.52-.783 1.137-1.538 2.01l-6.517 7.594h12.01v-3.229m-4.192-.371h4.377.187v.186 3.598.188h-.187-12.594-.4l.263-.309 6.775-7.895c.74-.855 1.214-1.457 1.498-1.953.274-.475.374-.855.374-1.292 0-.547-.184-1.053-.518-1.411-.308-.325-.744-.53-1.286-.53-.115 0-.58.02-1.01.344-.439.33-.849.979-.838 2.25l.002.184h-.187-4.087-.19v-.188c.042-1.524.519-3.396 1.849-4.719.995-.991 2.463-1.676 4.576-1.676 1.917 0 3.393.589 4.418 1.526 1.146 1.047 1.727 2.525 1.727 4.104 0 1.276-.361 2.331-1.184 3.538-.763 1.117-1.923 2.367-3.565 4.059"/>
 <path fill="#b1bad1" d="m23.288 27.648c-.321-.186-.605-.383-.828-.607.298.199.657.361 1.053.51-.075.037-.15.06-.225.097m6.273-6.772c.123.087 1.211.268 1.32.366.99.791 1.848 2.152 1.848 3.377 0 .765-.224 1.433-.681 2.029-.41.533-1.165 1.236-1.87 1.545-.258-.135-1.294-.391-1.504-.305.819-.344 2.085-1.166 2.532-1.758.457-.592.57-1.052.649-1.813.121-1.166-.326-2.167-1.11-2.79-.262-.211-1.184-.651-1.184-.651m.196 7.171c.681.037 2.489 1.213 2.762 1.57.545.705.815 1.52.815 2.436 0 1.521-.544 2.758-1.657 3.709-1.112.955-2.584 1.424-4.43 1.424-1.707 0-3.131-.395-4.267-1.174-.198-.139-.386-.283-.558-.434 1.139.768 2.51.977 4.202.977 1.843 0 2.979-.258 4.078-1.211 1.114-.951 1.697-1.762 1.697-3.285 0-.914-.261-1.902-.756-2.635-.31-.451-1.331-1.219-1.564-1.27l-.322-.107m-4.894-3.193c0 .521.44 1.416.726 1.75-.149-.074-.946-.75-1.039-.881-.406-.563-.718-1.141-.718-1.757 0-.595.211-1.078.621-1.437.406-.358.951-.533 1.644-.533.668 0 1.416.167 2.046.603.307.214.627.621.688.696-.348-.173-1.25-.409-1.709-.409-.692 0-1.236.174-1.645.533-.404.359-.614.842-.614 1.435m-.348 7.04c0 .83.775 2.086 1.247 2.58-.187-.113-1.013-.543-1.499-1.258-.401-.584-.608-1.205-.608-2.072 0-.631.21-1.211.644-1.744.433-.533 1.089-.779 1.967-.805 1.584-.035 2.702 1.035 3.098 1.689-.396-.223-1.708-.939-2.226-.939-.891 0-1.536.271-1.98.807-.421.529-.643 1.111-.643 1.742"/>
 <path fill="#02316b" d="m23.698 28.01c-.334-.137-.631-.299-.891-.484-.346-.248-.643-.518-.853-.84-.224-.311-.395-.645-.507-.988-.114-.349-.161-.706-.161-1.078 0-.631.122-1.214.383-1.743.248-.532.633-1 1.138-1.411.509-.408 1.128-.719 1.843-.928.705-.21 1.522-.311 2.438-.311.9 0 1.719.101 2.423.311.72.209 1.325.519 1.832.928.52.409.903.879 1.165 1.411.246.53.383 1.112.383 1.743 0 .396-.063.78-.186 1.126-.111.359-.297.691-.534 1-.234.311-.518.582-.852.818-.234.16-.494.311-.769.445.385.16.731.344 1.054.555.407.273.756.596 1.038.953v.012c.286.359.495.756.644 1.176.136.42.21.879.21 1.346 0 .779-.146 1.498-.433 2.129-.286.641-.718 1.211-1.286 1.695-.57.494-1.237.85-1.992 1.1-.757.246-1.596.371-2.537.371-.867 0-1.657-.113-2.384-.311-.732-.197-1.388-.508-1.969-.902-.693-.482-1.214-1.053-1.561-1.707-.347-.656-.531-1.412-.531-2.238 0-.457.072-.902.197-1.322.136-.422.332-.83.593-1.215.263-.395.606-.729 1.015-1.025.311-.235.68-.435 1.09-.616m-.705-.735c.322.225.718.422 1.163.596l.396.137-.396.146c-.519.197-.977.434-1.374.719-.384.271-.692.594-.927.953-.248.357-.433.727-.558 1.125-.125.395-.186.807-.186 1.236 0 .779.172 1.484.495 2.104.321.605.805 1.139 1.46 1.584.558.383 1.176.68 1.882.863.691.197 1.456.299 2.299.299.915 0 1.721-.125 2.451-.357.716-.225 1.337-.57 1.879-1.041.533-.457.94-.988 1.202-1.58.271-.598.407-1.264.407-2.01 0-.443-.075-.852-.198-1.248-.137-.385-.321-.756-.594-1.088-.26-.348-.583-.643-.966-.904-.384-.258-.84-.471-1.345-.656l-.395-.135.395-.146c.395-.162.756-.348 1.063-.559.298-.223.569-.469.778-.754.224-.285.385-.594.496-.914.099-.324.16-.657.16-1.029 0-.581-.123-1.125-.358-1.607-.235-.483-.596-.927-1.063-1.311-.482-.384-1.064-.668-1.732-.866-.68-.197-1.459-.296-2.336-.296-.891 0-1.671.099-2.364.296-.67.197-1.25.483-1.721.866-.469.384-.826.829-1.063 1.311-.234.482-.347 1.013-.347 1.607 0 .347.051.669.148.992.1.307.247.605.459.902.195.279.456.541.79.764m2.02-2.426c0 .583.187 1.027.558 1.347.187.16.407.285.656.371.261.074.545.123.865.123.322 0 .619-.049.866-.137.263-.072.484-.197.669-.357.186-.172.321-.359.421-.582.089-.235.139-.496.139-.78 0-.283-.05-.52-.139-.74-.085-.212-.234-.411-.406-.571-.198-.162-.408-.285-.656-.371-.26-.075-.545-.123-.854-.123-.334 0-.631.048-.888.123-.248.086-.473.209-.658.383-.186.16-.332.346-.42.568-.101.211-.15.457-.15.743m.357 1.587c-.444-.385-.667-.916-.667-1.585 0-.319.062-.604.173-.866.11-.26.271-.481.496-.679.221-.197.48-.346.778-.433.285-.101.618-.148.976-.148.35 0 .656.048.941.148.297.086.543.232.767.419.224.198.383.421.496.682.109.259.159.542.159.864 0 .334-.05.633-.159.893-.111.27-.286.508-.509.691-.212.197-.471.334-.766.434-.284.098-.608.146-.966.146-.359 0-.669-.051-.965-.146-.284-.088-.532-.237-.754-.42m-.692 5.453c0 .83.234 1.471.718 1.928.234.225.509.396.804.521.298.109.62.172.99.172.346 0 .669-.063.964-.172.287-.113.545-.273.768-.494.222-.225.395-.484.508-.807.123-.318.173-.691.173-1.127 0-.355-.048-.691-.173-.988-.112-.283-.286-.545-.519-.766-.232-.209-.496-.385-.793-.494-.296-.113-.618-.162-.975-.162-.424 0-.794.063-1.103.186-.296.123-.556.311-.753.559-.197.246-.36.518-.461.793-.098.271-.148.55-.148.851m.496 2.152c-.536-.52-.805-1.238-.805-2.152 0-.332.048-.654.171-.967.111-.295.273-.592.509-.877s.519-.506.878-.643c.348-.148.742-.209 1.214-.209.395 0 .756.061 1.088.184.336.125.632.311.89.559.272.26.474.543.595.879.137.334.198.707.198 1.1 0 .471-.063.879-.188 1.238-.133.357-.32.668-.581.914-.259.248-.556.434-.878.568-.333.125-.692.186-1.075.186-.408 0-.768-.072-1.101-.197-.336-.138-.645-.323-.915-.583"/>
 <path fill="#02316b" d="m27.25 37.38c-.828 0-1.633-.104-2.396-.309-.712-.191-1.378-.498-1.98-.908-.694-.482-1.224-1.063-1.573-1.721-.355-.674-.536-1.434-.536-2.256 0-.439.066-.889.199-1.334.141-.436.341-.848.599-1.225.25-.377.584-.717 1.023-1.037.267-.201.599-.391 1.013-.582-.301-.131-.574-.283-.813-.451-.395-.285-.671-.557-.864-.852-.226-.313-.397-.648-.512-.998-.108-.334-.161-.69-.161-1.091 0-.645.131-1.237.386-1.76.247-.53.635-1.01 1.149-1.424.509-.408 1.135-.723 1.856-.935.693-.207 1.518-.31 2.45-.31.925 0 1.743.104 2.435.31.724.21 1.326.517 1.845.935.514.404.909.882 1.176 1.424.258.555.388 1.146.388 1.76 0 .399-.064.794-.188 1.14-.106.346-.289.686-.538 1.012-.238.311-.527.59-.862.826-.203.139-.432.273-.696.41.352.15.675.326.979.523.407.271.761.598 1.049.963l.009.001v.012c.271.346.485.738.64 1.178.143.436.213.893.213 1.359 0 .783-.146 1.504-.435 2.145-.287.646-.725 1.223-1.299 1.709-.559.486-1.215.846-2 1.107-.771.249-1.604.37-2.553.37m-3.551-9.375l.016.037c-.448.201-.803.4-1.08.611-.435.316-.764.646-1.01 1.016-.253.373-.451.777-.588 1.205-.13.438-.196.881-.196 1.311 0 .811.178 1.559.527 2.219.343.646.863 1.217 1.547 1.693.596.404 1.255.707 1.957.896.757.203 1.555.309 2.376.309.94 0 1.767-.123 2.523-.371.779-.256 1.427-.611 1.979-1.092.563-.477.992-1.043 1.276-1.68.284-.631.43-1.342.43-2.113 0-.457-.07-.904-.209-1.334-.153-.432-.366-.822-.638-1.162l-.007-.012v-.012c-.283-.354-.626-.668-1.023-.934-.323-.213-.665-.393-1.045-.551l-.079-.033.077-.039c.296-.148.545-.295.764-.443.327-.23.611-.504.845-.809.244-.316.422-.65.527-.986.119-.342.183-.725.183-1.117 0-.602-.128-1.184-.378-1.726-.262-.53-.649-.999-1.153-1.396-.511-.412-1.106-.712-1.819-.921-.685-.204-1.495-.309-2.412-.309-.925 0-1.741.104-2.426.309-.715.208-1.329.517-1.832.921-.505.408-.884.877-1.126 1.396-.251.512-.379 1.093-.379 1.726 0 .392.052.74.159 1.066.109.342.278.67.5.977.188.291.457.555.845.832.257.182.554.342.883.479l-.017.037m3.551 9.07c-.839 0-1.615-.102-2.312-.301-.682-.178-1.302-.463-1.892-.869-.646-.438-1.142-.975-1.473-1.598-.331-.637-.5-1.348-.5-2.121 0-.438.062-.848.188-1.25.126-.4.311-.771.562-1.137.239-.367.554-.689.936-.963.392-.279.845-.516 1.384-.723l.291-.105-.29-.104c-.463-.18-.857-.381-1.173-.598-.323-.217-.595-.477-.8-.775-.209-.291-.359-.59-.465-.91-.101-.334-.149-.663-.149-1 0-.608.114-1.14.352-1.625.24-.493.6-.937 1.073-1.324.463-.375 1.047-.67 1.734-.873.706-.201 1.481-.297 2.375-.297.879 0 1.669.1 2.348.297.686.203 1.273.496 1.748.872.473.389.835.834 1.073 1.325.24.493.362 1.04.362 1.625 0 .347-.051.679-.161 1.042-.12.342-.289.652-.503.926-.188.258-.446.508-.786.762-.3.207-.66.395-1.072.561l-.293.111.291.1c.558.205 1 .422 1.355.662.396.268.716.566.975.91.249.305.443.666.599 1.098.135.434.199.848.199 1.262 0 .742-.138 1.422-.409 2.02-.261.592-.669 1.129-1.213 1.596-.555.48-1.175.822-1.893 1.047-.751.242-1.558.361-2.461.361m-4.231-9.832c.31.215.698.412 1.154.59l.499.172-.499.186c-.532.203-.979.436-1.366.715-.373.266-.683.582-.916.941-.248.357-.43.723-.553 1.115-.125.395-.185.797-.185 1.225 0 .76.164 1.461.489 2.084.324.611.812 1.139 1.447 1.57.585.4 1.195.682 1.87.857.688.197 1.459.299 2.29.299.896 0 1.693-.115 2.438-.355.709-.221 1.318-.559 1.866-1.033.535-.459.936-.986 1.19-1.566.27-.59.404-1.26.404-1.99 0-.408-.065-.813-.196-1.236-.149-.422-.342-.775-.586-1.076-.254-.336-.567-.631-.957-.895-.351-.236-.787-.449-1.338-.65l-.498-.17.498-.188c.405-.166.761-.352 1.054-.553.332-.25.585-.494.771-.744.209-.268.373-.572.49-.904.106-.354.156-.678.156-1.015 0-.573-.119-1.108-.354-1.59-.235-.481-.59-.917-1.055-1.298-.465-.37-1.043-.658-1.718-.859-.674-.195-1.456-.294-2.326-.294-.886 0-1.654.097-2.353.294-.678.201-1.253.49-1.708.859-.462.379-.816.815-1.052 1.298-.229.474-.343.992-.343 1.59 0 .335.049.655.146.978.101.313.249.605.454.891.201.289.462.543.779.754h.008zm4.171 7.615c-.388 0-.752-.064-1.115-.199-.365-.148-.669-.344-.929-.592h-.0001c-.541-.525-.816-1.26-.816-2.18 0-.361.059-.684.176-.98.124-.326.292-.617.514-.889.254-.307.548-.521.896-.654.338-.145.728-.213 1.227-.213.401 0 .764.063 1.102.188.338.127.644.316.902.564.287.275.485.566.604.895.133.322.201.699.201 1.113 0 .477-.063.887-.189 1.252-.145.385-.337.689-.591.93-.253.242-.553.436-.89.576-.34.127-.707.189-1.091.189m-1.987-.849c.251.242.546.432.9.574.354.133.71.197 1.087.197.375 0 .731-.063 1.061-.186.327-.137.62-.326.865-.559s.433-.527.571-.9c.123-.355.184-.756.184-1.223 0-.404-.065-.77-.194-1.086-.116-.316-.308-.6-.585-.867-.253-.24-.548-.426-.876-.547-.33-.123-.683-.182-1.076-.182-.487 0-.868.063-1.196.207-.337.127-.617.334-.862.631-.218.264-.383.547-.502.865-.114.289-.172.6-.172.953-.0001.898.268 1.615.795 2.123m1.987.539c-.358 0-.687-.057-1-.176-.311-.129-.586-.307-.816-.527-.491-.465-.729-1.107-.729-1.959 0-.307.049-.588.149-.865.095-.266.257-.543.466-.805.198-.248.458-.438.769-.568.313-.125.688-.188 1.118-.188.375 0 .698.053.989.164.283.105.548.27.805.502.235.223.414.486.531.779.116.281.174.609.174 1.01 0 .469-.055.83-.174 1.139-.108.311-.278.58-.518.82-.219.217-.48.385-.78.502-.314.119-.644.176-.98.176m-.047-5.01c-.42 0-.784.061-1.089.184-.298.123-.546.309-.736.545-.204.256-.359.523-.453.779-.099.271-.145.545-.145.84 0 .832.231 1.453.705 1.902.226.213.49.385.791.512.308.113.626.17.975.17.327 0 .646-.059.95-.17.29-.115.543-.277.754-.486.23-.23.394-.488.498-.791.115-.299.17-.652.17-1.111 0-.385-.057-.703-.169-.973-.113-.287-.284-.537-.51-.754-.25-.227-.505-.385-.78-.484-.284-.112-.597-.163-.961-.163m-.051-2.498c-.359 0-.67-.049-.977-.148-.271-.086-.523-.225-.77-.43-.453-.391-.682-.932-.682-1.615 0-.312.059-.601.178-.881.113-.267.278-.495.505-.694.229-.207.496-.354.793-.44.285-.1.617-.15.988-.15.353 0 .665.048.955.15.275.082.53.221.779.427.223.198.39.425.507.697.11.259.164.546.164.88 0 .352-.054.648-.164.909-.112.275-.287.514-.519.707-.203.189-.459.334-.78.439-.287.098-.615.149-.977.149m-1.696-.639c.237.197.48.332.743.412.301.102.603.146.953.146.353 0 .674-.047.951-.145.312-.102.558-.242.754-.424.224-.186.39-.414.498-.68.105-.25.158-.536.158-.875 0-.324-.053-.602-.158-.849-.113-.261-.271-.479-.485-.667-.238-.199-.484-.333-.751-.413-.283-.099-.587-.146-.931-.146-.36 0-.685.05-.964.146-.287.083-.543.228-.764.425-.219.191-.378.41-.486.667-.114.267-.17.548-.17.848 0 .659.22 1.182.652 1.555m1.694.326c-.294 0-.581-.037-.876-.123-.261-.09-.485-.217-.672-.377-.379-.328-.57-.792-.57-1.378h.079c0 .569.178 1 .542 1.316.18.156.396.279.646.363.284.082.563.121.851.121.311 0 .604-.045.854-.133.249-.07.468-.188.654-.352.185-.168.314-.35.412-.566.089-.239.135-.494.135-.762 0-.266-.044-.496-.136-.727-.077-.192-.219-.389-.397-.556-.204-.166-.408-.282-.642-.362-.284-.082-.56-.122-.842-.122-.302 0-.598.042-.878.122-.258.091-.468.214-.642.374-.194.171-.329.352-.41.556-.099.207-.146.451-.146.728h-.079c0-.288.052-.544.153-.761.085-.213.226-.405.431-.581.181-.168.399-.295.67-.391.29-.083.595-.125.902-.125.289 0 .572.041.864.125.245.084.458.206.672.378.191.179.337.38.419.585.096.242.141.482.141.756 0 .278-.047.543-.14.793-.104.229-.239.418-.433.598-.197.17-.427.293-.683.367-.257.09-.561.134-.879.134"/>
</svg>
