<?xml version="1.0" encoding="utf-8"?>
<!-- Generator: Adobe Illustrator 24.2.1, SVG Export Plug-In . SVG Version: 6.00 Build 0)  -->
<svg version="1.1" id="Слой_1" xmlns="http://www.w3.org/2000/svg" xmlns:xlink="http://www.w3.org/1999/xlink" x="0px" y="0px"
	 viewBox="0 0 40 50" style="enable-background:new 0 0 40 50;" xml:space="preserve">
<style type="text/css">
	.st0{fill:#214584;}
	.st1{fill:#FFFFFF;}
</style>
<path class="st0" d="M0,6.9h7.5V10c0,1.6,1.3,3,3,3s3-1.3,3-3V6.9h12.7V10c0,1.6,1.3,3,3,3s3-1.3,3-3V6.9h8v32.5
	c0,2.4-2,4.4-4.4,4.4H4.4c-2.4,0-4.4-2-4.4-4.4L0,6.9"/>
<path class="st0" d="M10.4,4c1,0,1.8,0.8,1.8,1.8v4c0,1-0.8,1.8-1.8,1.8c-1,0-1.8-0.8-1.8-1.8v-4C8.7,4.7,9.5,4,10.4,4"/>
<path class="st0" d="M29.1,4c1,0,1.8,0.8,1.8,1.8v4c0,1-0.8,1.8-1.8,1.8c-1,0-1.8-0.8-1.8-1.8v-4C27.3,4.7,28.1,4,29.1,4"/>
<path class="st1" d="M2.5,17.7h34.5v21.1c0,1.2-1,2.2-2.2,2.2h-30c-1.2,0-2.2-1-2.2-2.2L2.5,17.7"/>
</svg>
