<svg version="1.1" xmlns="http://www.w3.org/2000/svg" viewBox="279.228 145.719 47.922 19.669" enable-background="new 279.228 145.719 47.922 19.669"><g><path fill-rule="evenodd" fill="#ffffff" d="M283.881,148.901l-1.306,4.979l-1.306-4.979h-2.041
		c0.408,1.143,0.816,2.367,1.225,3.592c0.653,1.713,0.979,3.102,1.143,3.999v5.142h1.959v-5.142l2.286-7.591H283.881z
		 M286.412,152.982c-0.408,0.489-0.572,1.224-0.572,2.285v3.346c0,0.979,0.164,1.714,0.572,2.204
		c0.49,0.653,1.143,0.979,2.041,0.979c0.816,0,1.469-0.326,1.959-0.979c0.408-0.49,0.572-1.225,0.572-2.204v-3.346
		c0-1.062-0.164-1.796-0.572-2.285c-0.49-0.653-1.143-0.979-1.959-0.979C287.555,152.003,286.901,152.329,286.412,152.982
		L286.412,152.982z M287.555,158.94v-4c0-0.896,0.326-1.387,0.898-1.387c0.49,0,0.816,0.49,0.816,1.387v4
		c0,0.816-0.327,1.306-0.816,1.306C287.881,160.246,287.555,159.757,287.555,158.94L287.555,158.94z M295.637,152.166v7.264
		c-0.408,0.49-0.735,0.816-1.144,0.816c-0.162,0-0.326-0.163-0.326-0.408c-0.082-0.081-0.082-0.326-0.082-0.652v-7.02h-1.714v7.509
		c0,0.652,0.082,1.143,0.163,1.388c0.164,0.489,0.572,0.734,1.143,0.734c0.572,0,1.224-0.408,1.959-1.143v0.979h1.714v-9.468
		H295.637z"/><path fill-rule="evenodd" fill="#ffffff" d="M313.025,145.719c-3.51,0-7.103,0-10.612,0.408
		c-1.47,0.163-2.694,1.224-3.021,2.774c-0.489,2.122-0.489,4.489-0.489,6.693c0,2.121,0,4.488,0.489,6.61
		c0.327,1.551,1.552,2.611,3.021,2.774c3.51,0.408,7.021,0.408,10.612,0.408c3.511,0,7.021,0,10.531-0.408
		c1.552-0.163,2.776-1.224,3.103-2.774c0.49-2.122,0.49-4.489,0.49-6.61c0-2.204,0-4.571-0.49-6.693
		c-0.326-1.551-1.551-2.611-3.103-2.774c-3.266-0.408-6.612-0.408-9.96-0.408C313.434,145.719,313.188,145.719,313.025,145.719
		L313.025,145.719z M313.597,149.065v12.568h1.715v-0.898c0.571,0.735,1.143,1.062,1.715,1.062c0.734,0,1.143-0.408,1.388-1.062
		c0.081-0.408,0.163-1.061,0.163-1.877v-3.754c0-0.898-0.082-1.551-0.163-1.877c-0.245-0.734-0.653-1.062-1.388-1.062
		c-0.572,0-1.225,0.327-1.715,0.979v-4.08H313.597z M315.312,159.838v-5.794c0.245-0.246,0.571-0.408,0.816-0.408
		c0.49,0,0.734,0.489,0.734,1.305v4c0,0.897-0.244,1.306-0.734,1.306C315.883,160.246,315.557,160.083,315.312,159.838
		L315.312,159.838z M300.943,149.065v1.713h2.041v10.855h1.877v-10.855h2.041v-1.713H300.943z M320.455,153.063
		c-0.408,0.49-0.572,1.225-0.572,2.285v3.265c0,0.979,0.245,1.714,0.572,2.204c0.489,0.653,1.225,0.979,2.041,0.979
		c0.897,0,1.632-0.326,2.122-1.062c0.163-0.244,0.326-0.652,0.408-0.979c0-0.164,0-0.571,0-1.144v-0.244h-1.715
		c0,0.734-0.081,1.061-0.081,1.143c-0.082,0.489-0.326,0.734-0.734,0.734c-0.572,0-0.898-0.408-0.898-1.306v-1.714h3.429v-1.878
		c0-1.061-0.163-1.795-0.49-2.285c-0.489-0.57-1.225-0.897-2.04-0.897C321.598,152.166,320.944,152.493,320.455,153.063
		L320.455,153.063z M321.598,154.94c0-0.815,0.326-1.305,0.898-1.305c0.571,0,0.815,0.489,0.815,1.305v0.898h-1.714V154.94z
		 M310.413,152.248v7.182c-0.408,0.571-0.734,0.816-1.143,0.816c-0.163,0-0.327-0.163-0.327-0.408
		c-0.081-0.081-0.081-0.245-0.081-0.652v-6.938h-1.715v7.427c0,0.652,0.082,1.143,0.163,1.388c0.164,0.489,0.572,0.734,1.144,0.734
		s1.225-0.408,1.959-1.143v0.979h1.715v-9.386H310.413z"/></g></svg>