<?xml version="1.0" encoding="utf-8"?>
<!-- Generator: Adobe Illustrator 24.2.1, SVG Export Plug-In . SVG Version: 6.00 Build 0)  -->
<svg version="1.1" id="Слой_1" xmlns="http://www.w3.org/2000/svg" xmlns:xlink="http://www.w3.org/1999/xlink" x="0px" y="0px"
	 viewBox="0 0 115 50" style="enable-background:new 0 0 115 50;" xml:space="preserve">
<style type="text/css">
	.st0{fill:#FFFFFF;}
	.st1{fill:#214287;}
	.st2{fill:none;stroke:#204386;stroke-width:0.585;stroke-linecap:round;stroke-linejoin:round;stroke-miterlimit:10;}
	.st3{fill:#FFFFFF;stroke:#204386;stroke-width:0.171;stroke-linecap:round;stroke-linejoin:round;stroke-miterlimit:10;}
	.st4{fill:#FFFFFF;stroke:#204386;stroke-width:0.39;stroke-linecap:round;stroke-linejoin:round;stroke-miterlimit:10;}
	.st5{fill:none;stroke:#FFFFFF;stroke-width:0.585;stroke-linecap:round;stroke-linejoin:round;stroke-miterlimit:10;}
	.st6{fill:none;stroke:#204386;stroke-width:0.39;stroke-linecap:round;stroke-linejoin:round;stroke-miterlimit:10;}
	.st7{fill:none;stroke:#FFFFFF;stroke-width:0.78;stroke-linecap:round;stroke-linejoin:round;stroke-miterlimit:10;}
</style>
<g>
	<path class="st0" d="M0,21.4l39.8-3.3l18-7.5l57.2,1.9l-1.1,9.9l-4.4,13.7c0,0-51.3-11.5-51.5-11.5c-0.2,0-9.8,8.8-9.8,8.8
		l-0.1,5.1c0,0-12.9,11.6-13.1,11.6s-19.6-7.9-19.6-7.9l-0.8-4.8L1.6,32.6L0,21.4"/>
	<path class="st1" d="M0,21.2L46.8,0l68,12.2l-4,10.3l-13.5-2.9v2.1l-39.7-8.6l-15,9.9l-8.9-2.3l-6.3,0.6l-9.4,5L0,21.2z"/>
	<path class="st2" d="M14.7,37.4L1.6,32.6L0.3,21.4l18.2,5.1L13.7,29L14.7,37.4z"/>
	<path class="st2" d="M48.3,33.4l9.7-8.9"/>
	<path class="st2" d="M58.1,24.5l51.4,11.8"/>
	<path class="st2" d="M110.6,22.4l-1.1,14"/>
	<path class="st2" d="M114.7,12.4l-0.7,9.8"/>
	<path class="st2" d="M114,22.1l-4.4,14.2"/>
	<path class="st2" d="M13.8,29.3l1.6,12.7"/>
	<path class="st1" d="M13.9,29.1L34,35.8l14.3-10.3l-14.6-4.2l-6,0.5L13.9,29.1z"/>
	<path class="st1" d="M34.1,36.5l-20-6.5L14,29l20.1,6.6L34.1,36.5z"/>
	<path class="st1" d="M34,36.4l14.2-10l-0.1-0.9L33.8,35.6L34,36.4z"/>
	<path class="st2" d="M15.3,42.1l19.6,7.5"/>
	<path class="st2" d="M35.1,49.7l13.3-11.4"/>
	<path class="st2" d="M33.9,35.9l1,13.6"/>
	<path class="st2" d="M48.1,25.6l0.2,12.8"/>
	<path class="st3" d="M41.5,39.4L47,35l2.2,0.9L44,40.3L41.5,39.4z"/>
	<path class="st3" d="M44.1,43.4l-0.3,0.2l-0.6-0.2v-2.7h0.8V43.4z"/>
	<path class="st3" d="M47.9,40.3l-0.3,0.2l-0.4-0.2V38l0.6-0.5V40.3z"/>
	<path class="st1" d="M18.7,32.4l0.2,2.2L15,33.3l-0.3-2.2L18.7,32.4 M25.8,34.7l-4.2-1.4l0.2,2.2l4.3,1.5L25.8,34.7 M29.2,38.1
		l4.6,1.6l-0.2-2.4L29,35.8L29.2,38.1 M15.2,35.2l0.3,2.2l3.9,1.3l-0.2-2.2L15.2,35.2 M26.2,38.9L22,37.5l0.2,2.2l4.3,1.5L26.2,38.9
		 M29.6,42.3l4.6,1.6l-0.2-2.4l-4.6-1.5L29.6,42.3 M15.8,39.1l0.3,2.2l3.9,1.3l-0.2-2.2L15.8,39.1 M26.6,43l-4.2-1.4l0.2,2.2
		l4.3,1.5L26.6,43 M29.9,46.6l4.6,1.6l-0.2-2.4l-4.6-1.5L29.9,46.6"/>
	<path class="st3" d="M49.2,36.6L44,40.9v-0.7l5.2-4.3V36.6z"/>
	<path class="st1" d="M47.6,27.4l0,2.1L45,31.6l0-2.2L47.6,27.4 M40.3,35.5l2.8-2.3l0-2.2l-2.8,2.2L40.3,35.5 M38.2,34.9l-3,2.4
		l0.1,2.4l3.1-2.5L38.2,34.9 M45,33.5l0,2.2l2.6-2.1l0-2.1L45,33.5 M40.4,39.6l2.8-2.3l0-2.2l-2.8,2.2L40.4,39.6 M38.3,39l-3,2.4
		l0.1,2.4l3-2.5L38.3,39 M40.5,43.6l2.6-2.3l0-0.7l-1.3-0.4l-1.3,1.1L40.5,43.6 M38.5,43.2l-3,2.4l0.1,2.4l3-2.5L38.5,43.2"/>
	<path class="st4" d="M20.9,28.7l0-0.5l1.4,0.4l-0.1-1.8l-1.4-0.4l0-0.4l1.6,0.5l-0.1-1.9l-3.4-1l0.1,1.6c-0.2-0.9-0.8-1.9-2-2.2
		l-2.4-0.7l0.3,6.4l1.8,0.5l-0.1-1.9l0.4,0.1c0.2,0.1,0.5,0.1,0.7,0.1c0,0,0,0,0,0c0.4,0,0.7-0.1,0.9-0.4c0.3-0.3,0.4-0.6,0.4-0.9
		l0.1,3.7l3.4,1l-0.1-1.9L20.9,28.7L20.9,28.7z M17.1,25.4c0,0.1,0,0.2,0,0.3c0,0-0.1,0-0.1,0l0,0l0,0l-0.4-0.1l0-0.9l0.1,0
		c0,0,0.1,0,0.1,0C17.1,24.9,17.1,25.2,17.1,25.4z"/>
	<path class="st4" d="M30.8,31.3c-0.1,0.1-0.3,0.3-0.6,0.3c-0.1,0-0.2,0-0.3,0c-0.6-0.2-1.1-0.8-1.2-1.8c0-0.4,0.1-0.8,0.3-1
		c0.2-0.2,0.4-0.2,0.7-0.1c0.4,0.1,0.7,0.4,1.1,1l0.4,0.7l-0.1-2.6L31,27.6c-0.4-0.4-0.9-0.8-1.5-0.9c-0.2-0.1-0.5-0.1-0.7-0.1
		c-0.5,0-1,0.2-1.3,0.6c-0.2,0.3-0.4,0.6-0.5,1c-0.1-0.9-0.6-2.1-1.9-2.6c-0.1,0-0.1,0-0.2-0.1l-2.3-0.7l0.3,6.4l1.8,0.5l0-1.2
		l0.7,1.4l2.3,0.7l-1.4-2.7c0.4-0.1,0.6-0.5,0.7-0.8c0,0.1,0,0.2,0,0.2c0.1,2,1.2,3.6,2.8,4.1c0.3,0.1,0.5,0.1,0.7,0.1
		c0.3,0,0.5-0.1,0.7-0.2l0.1-0.1L31.2,31C31.2,31,30.8,31.3,30.8,31.3z M24.6,27.1c0,0,0.1,0,0.1,0c0.3,0.1,0.4,0.3,0.4,0.6
		c0,0.2,0,0.2,0,0.3c0,0-0.1,0-0.1,0h0l0,0l0,0L24.5,28l0-0.9L24.6,27.1z"/>
	<path class="st4" d="M35.7,32.7c0-1.1-0.7-2.5-2.3-3c-0.8-0.2-1.4-0.1-1.8,0.3c-0.3,0.3-0.5,0.9-0.4,1.5c0.1,1.4,0.9,2.6,2.3,3
		c0.3,0.1,0.5,0.1,0.7,0.1c0.4,0,0.8-0.1,1-0.4C35.6,33.9,35.8,33.4,35.7,32.7L35.7,32.7z M33.9,33c-0.1,0.1-0.2,0.1-0.3,0
		c-0.5-0.2-0.6-0.8-0.6-1.1c0-0.3,0-0.5,0.1-0.6c0,0,0.1-0.1,0.2-0.1c0,0,0.1,0,0.1,0c0.4,0.1,0.6,0.6,0.6,1.1
		C34,32.6,34,32.9,33.9,33z"/>
	<path class="st3" d="M44,41l-2.5-0.8v-0.7l2.5,0.8V41z"/>
	<path class="st5" d="M97.6,19.6l4.9-7.4"/>
	<path class="st5" d="M102.4,12.1l11.2,2.4"/>
	<path class="st6" d="M57.7,13L58,24.5"/>
	<path class="st1" d="M109.6,31.5l-52-11.5l-0.1-4.3L110,27.1L109.6,31.5z"/>
	<path class="st1" d="M48.6,25.8l9.1-6.2l0.1-4.1l-12.7,8.2l3.4,1.1L48.6,25.8z"/>
	<path class="st1" d="M14,33.6l-12.5-4l-0.4-3.8l12.4,4L14,33.6z"/>
	<path class="st7" d="M90.1,21.4V30"/>
	<path class="st7" d="M79,18.7v7.4"/>
	<path class="st7" d="M70.3,17.6v7.1"/>
	<path class="st7" d="M62.5,15.5v7.4"/>
	<path class="st7" d="M53.5,16.7v7.7"/>
	<path class="st7" d="M49.4,20.2v7.1"/>
	<path class="st7" d="M9.6,26.7l0.7,7.8"/>
	<path class="st7" d="M103,24.1v8.9"/>
	<path class="st2" d="M97.3,19.7l-0.4,13.4"/>
	<path class="st2" d="M97.3,19.7l13.4,2.7"/>
</g>
</svg>
