<?xml version="1.0" encoding="utf-8"?>
<!-- Generator: Adobe Illustrator 25.1.0, SVG Export Plug-In . SVG Version: 6.00 Build 0)  -->
<svg version="1.1" id="Слой_1" xmlns="http://www.w3.org/2000/svg" xmlns:xlink="http://www.w3.org/1999/xlink" x="0px" y="0px"
	 width="152.4px" height="99.6px" viewBox="0 0 152.4 99.6" style="enable-background:new 0 0 152.4 99.6;" xml:space="preserve">
<style type="text/css">
	.st0{fill:#204385;}
	.st1{fill:#FFFFFF;}
</style>
<path class="st0" d="M97.6,92.7c-0.5,0-1.1,0-1.6-0.1c-5.1-0.4-9.7-2.8-12.9-6.7L41.3,36.5c-6.8-8-5.7-20,2.3-26.8
	c3.9-3.3,8.8-4.8,13.9-4.4c5.1,0.4,9.7,2.8,12.9,6.7l41.7,49.4c3.3,3.9,4.8,8.8,4.4,13.9c-0.4,5.1-2.8,9.7-6.7,12.9
	C106.4,91.1,102.1,92.7,97.6,92.7z M55.8,6.2c-4.2,0-8.3,1.5-11.6,4.3c-7.6,6.4-8.6,17.8-2.2,25.4l41.7,49.4
	c3.1,3.7,7.5,5.9,12.3,6.3c4.8,0.4,9.5-1.1,13.1-4.2c3.7-3.1,5.9-7.5,6.3-12.3c0.4-4.8-1.1-9.5-4.2-13.1L69.6,12.6
	c-3.1-3.7-7.5-5.9-12.3-6.3C56.9,6.2,56.3,6.2,55.8,6.2z"/>
<g>
	<path class="st0" d="M46.8,13.5L46.8,13.5C40.4,18.9,39.5,28.5,45,35l39.9,47.3c5.4,6.4,15.1,7.3,21.5,1.8l0,0
		c6.4-5.4,7.3-15.1,1.8-21.5L68.3,15.3C62.9,8.9,53.2,8,46.8,13.5z"/>
</g>
<circle class="st1" cx="53.6" cy="32.6" r="3.8"/>
<circle class="st1" cx="62.1" cy="42.8" r="3.8"/>
<circle class="st1" cx="70.7" cy="51.5" r="4.1"/>
<circle class="st1" cx="79.2" cy="61.6" r="4.1"/>
<path class="st1" d="M62.2,48.8c-0.2,0-0.3,0-0.5,0c-1.6-0.1-3-0.9-4.1-2.1l-12-14.2c-1-1.2-1.5-2.8-1.4-4.4c0.1-1.6,0.9-3,2.1-4.1
	s2.8-1.5,4.4-1.4c1.6,0.1,3,0.9,4.1,2.1l12,14.2c1,1.2,1.5,2.8,1.4,4.4c-0.1,1.6-0.9,3-2.1,4.1C64.9,48.3,63.6,48.8,62.2,48.8z
	 M50.2,23.6c-1.2,0-2.3,0.4-3.2,1.2c-1,0.9-1.6,2.1-1.8,3.4c-0.1,1.3,0.3,2.6,1.2,3.6l12,14.2c1.8,2.1,4.9,2.4,7,0.6
	c2.1-1.8,2.4-4.9,0.6-7L54,25.4c-0.9-1-2.1-1.6-3.4-1.8C50.5,23.6,50.3,23.6,50.2,23.6z"/>
<circle class="st1" cx="64.6" cy="23.1" r="3.8"/>
<circle class="st1" cx="73.1" cy="33.2" r="3.8"/>
<path class="st1" d="M73.2,39.3c-0.2,0-0.3,0-0.5,0c-1.6-0.1-3-0.9-4.1-2.1L56.6,23c-2.1-2.5-1.8-6.3,0.7-8.4c1.2-1,2.8-1.5,4.4-1.4
	c1.6,0.1,3,0.9,4.1,2.1l12,14.2c1,1.2,1.5,2.8,1.4,4.4c-0.1,1.6-0.9,3-2.1,4.1C75.9,38.8,74.6,39.3,73.2,39.3z M61.2,14.1
	c-1.1,0-2.3,0.4-3.2,1.2c-2.1,1.8-2.4,4.9-0.6,7l12,14.2c1.8,2.1,4.9,2.4,7,0.6c2.1-1.8,2.4-4.9,0.6-7L65,15.9
	C64,14.7,62.6,14.1,61.2,14.1z"/>
</svg>
