<?xml version="1.0" encoding="utf-8"?>
<!-- Generator: Adobe Illustrator 25.1.0, SVG Export Plug-In . SVG Version: 6.00 Build 0)  -->
<svg version="1.1" id="Слой_1" xmlns="http://www.w3.org/2000/svg" xmlns:xlink="http://www.w3.org/1999/xlink" x="0px" y="0px"
	 viewBox="0 0 153 91.7" style="enable-background:new 0 0 153 91.7;" xml:space="preserve">
<style type="text/css">
	.st0{fill:#204385;}
	.st1{fill:#FFFFFF;}
	.st2{fill:url(#SVGID_1_);}
</style>
<path class="st0" d="M98.4,79.3H59.1V11.9h39.3V79.3z M60.1,78.3h37.3V12.9H60.1V78.3z"/>
<rect x="1.3" y="78.4" class="st0" width="150.5" height="1.5"/>
<path class="st0" d="M96.5,79.6H61V13.7h35.5V79.6z M62,78.6h33.5V14.7H62V78.6z"/>
<g>
	<polygon class="st0" points="91.2,20.4 61,14.1 61,78.4 91.2,84.7 	"/>
	<g>
		<polygon class="st0" points="89,22.4 63.2,17 63.2,78.2 89,83.6 		"/>
		<path class="st1" d="M89.3,83.9l-0.3-0.1l-26-5.4V16.7l26.3,5.5V83.9z M63.5,78l25.3,5.3V22.6l-25.3-5.3V78z"/>
	</g>
	<g>
		<path class="st1" d="M86.5,51.3l-0.3-0.1l-20.5-4.3V19.6L86.5,24V51.3z M66.1,46.5L86,50.7V24.4l-19.8-4.2V46.5z"/>
	</g>
	<g>
		<path class="st1" d="M86.5,80.6l-0.3-0.1l-20.5-4.3V48.9L66,49l20.5,4.3V80.6z M66.1,75.8L86,80V53.7l-19.8-4.2V75.8z"/>
	</g>
	<g>
		
			<linearGradient id="SVGID_1_" gradientUnits="userSpaceOnUse" x1="87.19" y1="123.9533" x2="88.0628" y2="123.9533" gradientTransform="matrix(1 0.2099 0 -1 0 158.1451)">
			<stop  offset="0" style="stop-color:#12397F"/>
			<stop  offset="0.713" style="stop-color:#3A71CE"/>
			<stop  offset="1" style="stop-color:#3A71CE"/>
		</linearGradient>
		<path class="st2" d="M88.1,52.7c0,1.5-0.2,2.6-0.4,2.5c-0.2-0.1-0.4-1.3-0.4-2.7c0-1.5,0.2-2.6,0.4-2.5
			C87.9,50,88.1,51.3,88.1,52.7z"/>
		<path class="st1" d="M87.8,55.5l-0.2-0.1c-0.5-0.3-0.5-2.8-0.5-2.9c0-0.6,0-2.4,0.5-2.7l0.1-0.1l0.1,0c0,0,0,0,0.1,0l0,0
			c0.5,0.2,0.5,2.1,0.5,2.9c0,0.6,0,2.4-0.5,2.7L87.8,55.5z M87.7,50.6c-0.1,0.4-0.1,1-0.1,1.9c0,0.9,0.1,1.6,0.2,2.1
			c0.1-0.4,0.1-1,0.1-1.9C87.8,51.8,87.8,51.1,87.7,50.6z"/>
	</g>
</g>
<rect x="100" y="32.9" class="st0" width="4.3" height="11.3"/>
<circle class="st1" cx="102.2" cy="35" r="0.7"/>
<circle class="st1" cx="102.2" cy="37.1" r="0.7"/>
<circle class="st1" cx="102.2" cy="39.3" r="0.7"/>
</svg>
