<?xml version="1.0" encoding="utf-8"?>
<!-- Generator: Adobe Illustrator 25.1.0, SVG Export Plug-In . SVG Version: 6.00 Build 0)  -->
<svg version="1.1" id="Слой_1" xmlns="http://www.w3.org/2000/svg" xmlns:xlink="http://www.w3.org/1999/xlink" x="0px" y="0px"
	 viewBox="0 0 153 91.7" style="enable-background:new 0 0 153 91.7;" xml:space="preserve">
<style type="text/css">
	.st0{fill:#204385;}
	.st1{fill:url(#SVGID_1_);}
	.st2{fill:url(#SVGID_2_);}
	.st3{fill:url(#SVGID_3_);}
	.st4{fill:url(#SVGID_4_);}
	.st5{fill:url(#SVGID_5_);}
	.st6{fill:url(#SVGID_6_);}
	.st7{fill:url(#SVGID_7_);}
	.st8{fill:url(#SVGID_8_);}
	.st9{fill:url(#SVGID_9_);}
	.st10{fill:url(#SVGID_10_);}
	.st11{fill:url(#SVGID_11_);}
	.st12{fill:url(#SVGID_12_);}
	.st13{fill:url(#SVGID_13_);}
	.st14{fill:#FFFFFF;}
</style>
<rect x="4.3" y="77.3" class="st0" width="144.6" height="1.7"/>
<path class="st0" d="M119.8,57.6c-0.4-3.2-1.1-5.9-1.8-8.2l-3.9-12.6c0-0.1,0-0.3-0.1-0.4v-0.1l0,0c-0.2-0.6-0.8-1-1.4-1
	c0,0-6.3-0.9-9.1-1c-5-0.2-15-0.2-20,0c-2.8,0.1-9.1,1-9.1,1c-0.7,0-1.2,0.4-1.4,1l0,0v0.1c0,0.1-0.1,0.3-0.1,0.4L69,49.4
	c-0.7,2.2-1.4,5-1.8,8.2c-0.4,3.1-0.4,5.8-0.2,8.1v9.9c0,0.9,0.8,1.7,1.7,1.7h4.9c0.9,0,1.7-0.8,1.7-1.7v-7.2h9.4h17.7h9.4v7.2
	c0,0.9,0.8,1.7,1.7,1.7h4.9c0.9,0,1.7-0.8,1.7-1.7v-9.9C120.2,63.4,120.2,60.7,119.8,57.6z M74.2,36.9c0,0,6.5-0.9,9.3-1
	c5-0.2,15-0.2,20,0c2.8,0.1,9.3,1,9.3,1l2.8,10.9c0,0-10-0.4-13.3-0.4c-4.4-0.1-13.3-0.1-17.7,0c-3.3,0.1-13.3,0.4-13.3,0.4
	L74.2,36.9z M95.7,55.5l-1,4.4h-2.4l-1-4.4H95.7z M68.4,60.3c0.1-1,0.2-2.2,0.4-3.4c0.1-0.5,0.2-1.1,0.3-1.5
	c0.2-0.7,0.8-1.2,1.5-1.2h4.6c3.4,0,7.1,2.7,7.1,6.1C82.3,60.3,68.4,60.3,68.4,60.3z M109.9,65.9H77.1c-0.8,0-1.5-0.7-1.5-1.5
	c0-0.8,0.7-1.5,1.5-1.5h32.8c0.8,0,1.5,0.7,1.5,1.5C111.4,65.2,110.7,65.9,109.9,65.9z M104.6,60.3c0-3.4,3.7-6.1,7.1-6.1h4.6
	c0.7,0,1.3,0.5,1.5,1.2c0.1,0.5,0.2,1,0.3,1.5c0.2,1.2,0.3,2.4,0.4,3.4C118.5,60.3,104.6,60.3,104.6,60.3z"/>
<polygon class="st0" points="96.6,7.5 35.3,52.2 33.7,50 95,5.3 "/>
<linearGradient id="SVGID_1_" gradientUnits="userSpaceOnUse" x1="-169.0076" y1="-99.6667" x2="-168.0127" y2="-99.6667" gradientTransform="matrix(0.8076 -0.5898 -0.5898 -0.8076 111.6373 -128.2066)">
	<stop  offset="0" style="stop-color:#12397F"/>
	<stop  offset="0.713" style="stop-color:#3A71CE"/>
	<stop  offset="1" style="stop-color:#3A71CE"/>
</linearGradient>
<path class="st1" d="M33.7,50L33.7,50c-0.5,0.3-0.3,1.2,0.2,2c0.6,0.8,1.4,1.2,1.8,0.8l0,0L33.7,50z"/>
<linearGradient id="SVGID_2_" gradientUnits="userSpaceOnUse" x1="-167.4112" y1="-99.3872" x2="-159.2308" y2="-99.3872" gradientTransform="matrix(0.8076 -0.5898 -0.5898 -0.8076 111.6373 -128.2066)">
	<stop  offset="0" style="stop-color:#12397F"/>
	<stop  offset="0.713" style="stop-color:#3A71CE"/>
	<stop  offset="1" style="stop-color:#3A71CE"/>
</linearGradient>
<polygon class="st2" points="40.5,45.7 35.2,49.6 35.6,51.5 42.2,46.7 "/>
<g>
	
		<linearGradient id="SVGID_3_" gradientUnits="userSpaceOnUse" x1="-164.7984" y1="-99.3483" x2="-164.0442" y2="-99.3483" gradientTransform="matrix(0.8076 -0.5898 -0.5898 -0.8076 111.6373 -128.2066)">
		<stop  offset="0" style="stop-color:#12397F"/>
		<stop  offset="0.713" style="stop-color:#3A71CE"/>
		<stop  offset="1" style="stop-color:#3A71CE"/>
	</linearGradient>
	<polygon class="st3" points="37.5,49.7 36.8,48.7 37.4,48.3 37.5,48.5 37.2,48.7 37.3,48.9 37.6,48.7 37.8,48.9 37.5,49.1 
		37.6,49.3 37.9,49 38.1,49.3 	"/>
	
		<linearGradient id="SVGID_4_" gradientUnits="userSpaceOnUse" x1="-165.8858" y1="-99.2912" x2="-164.9005" y2="-99.2912" gradientTransform="matrix(0.8076 -0.5898 -0.5898 -0.8076 111.6373 -128.2066)">
		<stop  offset="0" style="stop-color:#12397F"/>
		<stop  offset="0.713" style="stop-color:#3A71CE"/>
		<stop  offset="1" style="stop-color:#3A71CE"/>
	</linearGradient>
	<path class="st4" d="M36.3,49L36.3,49l-0.4,0.3l0.7,1l0.3-0.2l-0.2-0.3l0.1-0.1l0,0c0.3-0.2,0.2-0.5,0.1-0.6
		C36.8,49,36.6,48.8,36.3,49z M36.6,49.5L36.6,49.5L36.6,49.5L36.6,49.5l-0.3-0.1l0.1-0.1l0,0c0.1-0.1,0.2,0,0.2,0
		S36.7,49.4,36.6,49.5z"/>
	<g>
		
			<linearGradient id="SVGID_5_" gradientUnits="userSpaceOnUse" x1="-162.7973" y1="-99.3469" x2="-161.8162" y2="-99.3469" gradientTransform="matrix(0.8076 -0.5898 -0.5898 -0.8076 111.6373 -128.2066)">
			<stop  offset="0" style="stop-color:#12397F"/>
			<stop  offset="0.713" style="stop-color:#3A71CE"/>
			<stop  offset="1" style="stop-color:#3A71CE"/>
		</linearGradient>
		<path class="st5" d="M39.9,47.9c0,0.1-0.1,0.2-0.2,0.3c-0.3,0.2-0.7,0.2-0.9-0.2c-0.3-0.4-0.1-0.7,0.1-0.9C39,47,39.1,47,39.2,47
			l0.2,0.3c-0.1,0-0.2,0-0.3,0.1c-0.2,0.1-0.2,0.3,0,0.5c0.1,0.2,0.3,0.2,0.5,0.1c0.1-0.1,0.1-0.2,0.2-0.3L39.9,47.9z"/>
		
			<linearGradient id="SVGID_6_" gradientUnits="userSpaceOnUse" x1="-161.7003" y1="-99.5162" x2="-160.6629" y2="-99.5162" gradientTransform="matrix(0.8076 -0.5898 -0.5898 -0.8076 111.6373 -128.2066)">
			<stop  offset="0" style="stop-color:#12397F"/>
			<stop  offset="0.713" style="stop-color:#3A71CE"/>
			<stop  offset="1" style="stop-color:#3A71CE"/>
		</linearGradient>
		<path class="st6" d="M40.6,46.9c-0.2-0.2-0.4-0.3-0.7-0.1s-0.3,0.5-0.1,0.7s0.4,0.3,0.7,0.1C40.7,47.4,40.7,47.1,40.6,46.9
			 M40.3,47.1c0,0,0.1,0.2,0,0.3c-0.2,0.1-0.3-0.1-0.3-0.1c-0.1-0.1-0.1-0.2,0-0.3C40.1,47,40.2,47,40.3,47.1"/>
		
			<linearGradient id="SVGID_7_" gradientUnits="userSpaceOnUse" x1="-163.8567" y1="-99.351" x2="-162.8175" y2="-99.351" gradientTransform="matrix(0.8076 -0.5898 -0.5898 -0.8076 111.6373 -128.2066)">
			<stop  offset="0" style="stop-color:#12397F"/>
			<stop  offset="0.713" style="stop-color:#3A71CE"/>
			<stop  offset="1" style="stop-color:#3A71CE"/>
		</linearGradient>
		<path class="st7" d="M38.6,48.4c0.1-0.2,0.1-0.4,0-0.5s-0.3-0.3-0.6-0.1l0,0l-0.4,0.3l0.7,1l0.3-0.2l-0.2-0.3l0,0l0.2,0.1l0.2,0.1
			l0.3-0.2L38.6,48.4z M38.3,48.3L38.3,48.3L38.3,48.3L38.3,48.3L38,48.2l0.1-0.1l0,0c0.1-0.1,0.2,0,0.2,0
			C38.3,48.2,38.3,48.2,38.3,48.3z"/>
	</g>
</g>
<linearGradient id="SVGID_8_" gradientUnits="userSpaceOnUse" x1="-168.04" y1="-101.0541" x2="-92.1763" y2="-101.0541" gradientTransform="matrix(0.8076 -0.5898 -0.5898 -0.8076 111.6373 -128.2066)">
	<stop  offset="0" style="stop-color:#12397F"/>
	<stop  offset="0.713" style="stop-color:#3A71CE"/>
	<stop  offset="1" style="stop-color:#3A71CE"/>
</linearGradient>
<polygon class="st8" points="96.6,7.5 35.3,52.2 35.8,52.8 97,8.1 "/>
<linearGradient id="SVGID_9_" gradientUnits="userSpaceOnUse" x1="-92.2087" y1="-99.7207" x2="-91.2138" y2="-99.7207" gradientTransform="matrix(0.8076 -0.5898 -0.5898 -0.8076 111.6373 -128.2066)">
	<stop  offset="0" style="stop-color:#12397F"/>
	<stop  offset="0.713" style="stop-color:#3A71CE"/>
	<stop  offset="1" style="stop-color:#3A71CE"/>
</linearGradient>
<path class="st9" d="M97,8.1L97,8.1c0.5-0.3,0.3-1.2-0.2-2S95.4,5,95,5.3l0,0L97,8.1z"/>
<linearGradient id="SVGID_10_" gradientUnits="userSpaceOnUse" x1="-150.0131" y1="-99.3998" x2="-141.8327" y2="-99.3998" gradientTransform="matrix(0.8076 -0.5898 -0.5898 -0.8076 111.6373 -128.2066)">
	<stop  offset="0" style="stop-color:#12397F"/>
	<stop  offset="0.713" style="stop-color:#3A71CE"/>
	<stop  offset="1" style="stop-color:#3A71CE"/>
</linearGradient>
<polygon class="st10" points="55.6,36.9 50.3,40.8 48.6,39.8 55.2,35 "/>
<linearGradient id="SVGID_11_" gradientUnits="userSpaceOnUse" x1="-134.2429" y1="-99.4199" x2="-126.0625" y2="-99.4199" gradientTransform="matrix(0.8076 -0.5898 -0.5898 -0.8076 111.6373 -128.2066)">
	<stop  offset="0" style="stop-color:#12397F"/>
	<stop  offset="0.713" style="stop-color:#3A71CE"/>
	<stop  offset="1" style="stop-color:#3A71CE"/>
</linearGradient>
<polygon class="st11" points="67.3,26.2 61.9,30.1 62.4,32 69,27.1 "/>
<linearGradient id="SVGID_12_" gradientUnits="userSpaceOnUse" x1="-118.5278" y1="-99.3593" x2="-110.3474" y2="-99.3593" gradientTransform="matrix(0.8076 -0.5898 -0.5898 -0.8076 111.6373 -128.2066)">
	<stop  offset="0" style="stop-color:#12397F"/>
	<stop  offset="0.713" style="stop-color:#3A71CE"/>
	<stop  offset="1" style="stop-color:#3A71CE"/>
</linearGradient>
<polygon class="st12" points="75.7,22.2 81,18.3 80.6,16.4 74,21.2 "/>
<linearGradient id="SVGID_13_" gradientUnits="userSpaceOnUse" x1="-102.8082" y1="-99.3876" x2="-94.6278" y2="-99.3876" gradientTransform="matrix(0.8076 -0.5898 -0.5898 -0.8076 111.6373 -128.2066)">
	<stop  offset="0" style="stop-color:#12397F"/>
	<stop  offset="0.713" style="stop-color:#3A71CE"/>
	<stop  offset="1" style="stop-color:#3A71CE"/>
</linearGradient>
<polygon class="st13" points="92.7,7.6 87.3,11.5 87.7,13.4 94.4,8.6 "/>
<g>
	<polygon class="st0" points="35.4,46.5 35.4,46.5 33.8,46.5 33.8,76.9 35.4,76.9 35.4,76.9 41.8,76.9 44.5,76.9 44.5,46.5 
		41.8,46.5 	"/>
	<polygon class="st0" points="41.8,43.4 35.4,44.1 35.4,44.1 35.4,44.1 35.4,44.1 33.8,44.2 33.8,45.9 33.9,45.9 35.4,45.9 
		35.4,45.9 41.8,45.9 44.5,45.9 44.5,43.2 	"/>
</g>
<polygon class="st0" points="96.6,7.5 35.3,52.2 33.7,50 95,5.3 "/>
<polygon class="st0" points="40.5,45.7 35.2,49.6 35.6,51.5 42.2,46.7 "/>
<g>
	<polygon class="st14" points="37.5,49.7 36.8,48.7 37.4,48.3 37.5,48.5 37.2,48.7 37.3,48.9 37.6,48.7 37.8,48.9 37.5,49.1 
		37.6,49.3 37.9,49 38.1,49.3 	"/>
	<path class="st14" d="M36.3,49L36.3,49l-0.4,0.3l0.7,1l0.3-0.2l-0.2-0.3l0.1-0.1l0,0c0.3-0.2,0.2-0.5,0.1-0.6
		C36.8,49,36.6,48.8,36.3,49z M36.6,49.5L36.6,49.5L36.6,49.5L36.6,49.5l-0.3-0.1l0.1-0.1l0,0c0.1-0.1,0.2,0,0.2,0
		S36.7,49.4,36.6,49.5z"/>
	<g>
		<path class="st14" d="M39.9,47.9c0,0.1-0.1,0.2-0.2,0.3c-0.3,0.2-0.7,0.2-0.9-0.2c-0.3-0.4-0.1-0.7,0.1-0.9C39,47,39.1,47,39.2,47
			l0.2,0.3c-0.1,0-0.2,0-0.3,0.1c-0.2,0.1-0.2,0.3,0,0.5c0.1,0.2,0.3,0.2,0.5,0.1c0.1-0.1,0.1-0.2,0.2-0.3L39.9,47.9z"/>
		<path class="st14" d="M40.6,46.9c-0.2-0.2-0.4-0.3-0.7-0.1s-0.3,0.5-0.1,0.7s0.4,0.3,0.7,0.1C40.7,47.4,40.7,47.1,40.6,46.9
			 M40.3,47.1c0,0,0.1,0.2,0,0.3c-0.2,0.1-0.3-0.1-0.3-0.1c-0.1-0.1-0.1-0.2,0-0.3C40.1,47,40.2,47,40.3,47.1"/>
		<path class="st14" d="M38.6,48.4c0.1-0.2,0.1-0.4,0-0.5s-0.3-0.3-0.6-0.1l0,0l-0.4,0.3l0.7,1l0.3-0.2l-0.2-0.3l0,0l0.2,0.1
			l0.2,0.1l0.3-0.2L38.6,48.4z M38.3,48.3L38.3,48.3L38.3,48.3L38.3,48.3L38,48.2l0.1-0.1l0,0c0.1-0.1,0.2,0,0.2,0
			C38.3,48.2,38.3,48.2,38.3,48.3z"/>
	</g>
</g>
<path class="st0" d="M95,5.3C94.9,5.3,94.9,5.3,95,5.3l1.6,2.3L35.4,52.2L33.7,50l0,0c-0.4,0.3-0.3,1.2,0.3,2s1.4,1.2,1.8,0.8l0,0
	l0,0L97,8.1l0,0l0,0c0.4-0.3,0.3-1.2-0.3-2C96.2,5.3,95.4,5,95,5.3z"/>
<polygon class="st14" points="55.6,36.9 50.3,40.8 48.6,39.8 55.2,35 "/>
<polygon class="st14" points="67.3,26.2 61.9,30.1 62.4,32 69,27.1 "/>
<polygon class="st14" points="75.7,22.2 81,18.3 80.6,16.4 74,21.2 "/>
<polygon class="st14" points="92.7,7.6 87.3,11.5 87.7,13.4 94.4,8.6 "/>
</svg>
