<?xml version="1.0" encoding="utf-8"?>
<!-- Generator: Adobe Illustrator 25.1.0, SVG Export Plug-In . SVG Version: 6.00 Build 0)  -->
<svg version="1.1" id="Слой_1" xmlns="http://www.w3.org/2000/svg" xmlns:xlink="http://www.w3.org/1999/xlink" x="0px" y="0px"
	 viewBox="0 0 152.4 99.6" style="enable-background:new 0 0 152.4 99.6;" xml:space="preserve">
<style type="text/css">
	.st0{fill:#204385;}
</style>
<path class="st0" d="M52.2,88c-0.9,0-1.9-0.3-2.7-0.9L33.3,75.4c-2-1.6-2.5-4.5-1-6.5l21.9-30.3c1.6-2,4.5-2.5,6.5-1l9.7,7l7.7,10.8
	L56,86.1C55.1,87.3,53.6,88,52.2,88z M58,37.7c-1.1,0-2.3,0.5-3,1.5L33.1,69.5c-1.1,1.6-0.8,3.9,0.8,5.1l16.2,11.7
	c1.6,1.1,3.9,0.8,5.1-0.8l21.7-30.1l-7.2-10.1l-9.5-6.9C59.5,38,58.7,37.7,58,37.7z"/>
<path class="st0" d="M68.2,52.1c-0.5,0-1-0.2-1.4-0.5l-5.2-3.8c-0.5-0.4-0.8-0.9-0.9-1.6c-0.1-0.6,0-1.3,0.4-1.8
	c0.8-1,2.3-1.3,3.3-0.5l5.2,3.8c1,0.8,1.3,2.3,0.5,3.3c-0.4,0.5-0.9,0.9-1.6,1C68.4,52.1,68.3,52.1,68.2,52.1z M63,44.6
	c-0.4,0-0.9,0.2-1.1,0.5c-0.2,0.3-0.3,0.6-0.2,1c0.1,0.4,0.3,0.7,0.5,0.9l5.2,3.8c0.3,0.2,0.6,0.3,0.9,0.3c0.4,0,0.7-0.3,0.9-0.6
	c0.4-0.6,0.3-1.5-0.3-1.9l-5.2-3.8C63.6,44.6,63.3,44.6,63,44.6z"/>
<g>
	<path class="st0" d="M88.9,47.4c-1.1-0.3-2.2-1-3-2.1c-1.5-2.2-1.2-4.9,0.6-6.2c1.8-1.3,4.5-0.5,6,1.6c0.8,1.1,1.1,2.4,0.9,3.6
		c1.9-0.9,3.6-1.1,4.3-0.5c0.3-2.1-0.2-4.3-1.5-6.2c-2.8-4-8.2-5-12.2-2.2s-5,8.2-2.2,12.2c1.3,1.9,3.2,3.1,5.2,3.6
		C86.6,50.4,87.4,48.9,88.9,47.4z"/>
	<path class="st0" d="M105.9,48.2L88.1,60.5c-0.4,0.3-1,0.2-1.3-0.2l0,0c-0.3-0.4-0.2-1,0.2-1.3l17.8-12.3c0.4-0.3,1-0.2,1.3,0.2
		l0,0C106.4,47.3,106.3,47.9,105.9,48.2z"/>
	<path class="st0" d="M102.6,54.4l-12.8,8.8c-0.3,0.2-0.7,0.1-0.9-0.2l0,0c-0.2-0.3-0.1-0.7,0.2-0.9l12.8-8.8
		c0.3-0.2,0.7-0.1,0.9,0.2l0,0C103,53.8,102.9,54.2,102.6,54.4z"/>
	<path class="st0" d="M104.3,56.9l-12.8,8.8c-0.3,0.2-0.7,0.1-0.9-0.2l0,0c-0.2-0.3-0.1-0.7,0.2-0.9l12.8-8.8
		c0.3-0.2,0.7-0.1,0.9,0.2l0,0C104.7,56.2,104.6,56.6,104.3,56.9z"/>
	<polygon class="st0" points="110.2,71 109.1,70.8 109.3,69.8 108.8,69.7 108.6,70.7 107.6,70.5 107.5,71 108.5,71.2 108.3,72.2 
		108.8,72.3 109,71.3 110.1,71.5 	"/>
	<polygon class="st0" points="101,76.4 99.2,76.1 99.1,76.6 100,76.8 98.3,78 98.6,78.4 100.3,77.2 100.2,78.1 100.7,78.2 101,76.4 
			"/>
	<polygon class="st0" points="119,64 117.2,63.6 117.1,64.2 118,64.3 116.3,65.5 116.6,66 118.3,64.8 118.2,65.7 118.7,65.8 119,64 
			"/>
	<path class="st0" d="M65.8,36.6l3.4,4.9l25.6-17.7l-3.4-4.9L65.8,36.6z M78,33.6l-7.2,5c-0.6,0.4-1.3,0.3-1.7-0.3
		c-0.4-0.6-0.3-1.3,0.3-1.7l7.2-5c0.6-0.4,1.3-0.3,1.7,0.3C78.7,32.4,78.6,33.2,78,33.6z"/>
	<path class="st0" d="M84.1,11.4L61.4,27.1C59.5,28.4,59,31,60.3,33l39.9,57.7c1.3,1.9,3.9,2.4,5.9,1.1L128.7,76
		c1.9-1.3,2.4-3.9,1.1-5.9L89.9,12.5C88.6,10.6,86,10.1,84.1,11.4z M74.2,21.7c0.8-0.6,2-0.4,2.6,0.5c0.6,0.8,0.4,2-0.5,2.6
		c-0.8,0.6-2,0.4-2.6-0.5C73.1,23.4,73.3,22.2,74.2,21.7z M125.2,66.8L98.7,85.1L64.9,36.3L91.5,18L125.2,66.8z"/>
</g>
</svg>
