<?xml version="1.0" encoding="utf-8"?>
<!-- Generator: Adobe Illustrator 25.1.0, SVG Export Plug-In . SVG Version: 6.00 Build 0)  -->
<svg version="1.1" id="Слой_1" xmlns="http://www.w3.org/2000/svg" xmlns:xlink="http://www.w3.org/1999/xlink" x="0px" y="0px"
	 viewBox="0 0 153 91.7" style="enable-background:new 0 0 153 91.7;" xml:space="preserve">
<style type="text/css">
	.st0{fill:#204385;}
	.st1{fill:#FFFFFF;}
</style>
<rect x="49.1" y="40.8" class="st0" width="3.5" height="28.2"/>
<path class="st0" d="M76.7,76.8h-2.1c-0.4,0-0.8-0.4-0.8-0.8V45.6l0,0h2.9V76.8z"/>
<ellipse class="st0" cx="75.1" cy="45.7" rx="1.3" ry="0.5"/>
<path class="st0" d="M49.5,76.8h2.1c0.4,0,0.8-0.4,0.8-0.8V45.6l0,0h-2.9C49.5,45.6,49.5,76.8,49.5,76.8z"/>
<ellipse class="st0" cx="51.1" cy="45.7" rx="1.3" ry="0.5"/>
<rect x="47" y="43.8" class="st0" width="4.2" height="33"/>
<path class="st0" d="M47.5,86.1c-0.1,0-0.6,0.3-0.6,0.2V49.6h1.3v34.8C48.2,84.4,47.5,86.1,47.5,86.1z"/>
<path class="st0" d="M43.5,86.4h3.4c0.4,0,0.7-0.3,0.7-0.7V50.5h-4.7v35.2C42.8,86.1,43.1,86.4,43.5,86.4z"/>
<g>
	<g>
		<path class="st0" d="M50.7,40.4h0.2c1.4,0,1.8,0.2,1.6,0.5l-4.7,9.5c-0.1,0.2-1.4,0.4-2.7,0.4l0,0c-1.4,0-2.4-0.2-2.3-0.5l5.9-9.5
			C48.8,40.6,49.4,40.4,50.7,40.4z"/>
		<path class="st1" d="M45.1,51.3c-2.3,0-2.6-0.4-2.7-0.6c-0.1-0.2-0.2-0.4-0.1-0.6l0-0.1l5.9-9.5c0.1-0.3,0.5-0.6,2.4-0.6h0.2
			c1.3,0,1.9,0.2,2.1,0.6c0.1,0.2,0.1,0.5-0.1,0.7l-4.7,9.4C47.9,51.2,45.9,51.3,45.1,51.3z M43.5,50.2c0.3,0.1,0.8,0.1,1.6,0.1
			c1.1,0,2-0.1,2.3-0.2l4.5-9.1c-0.2,0-0.5-0.1-1-0.1h-0.2c-1.1,0-1.5,0.2-1.6,0.2L43.5,50.2z M49.1,41.1L49.1,41.1L49.1,41.1z
			 M49.1,41L49.1,41C49.1,41.1,49.1,41,49.1,41z"/>
	</g>
</g>
<path class="st0" d="M71.7,67h-6c-1.1,0-2-0.9-2.1-2.1l0-26.9c0-1.2,1-2.1,2.2-2.1h6c1.2,0,2.1,1,2.1,2.1v26.9
	C73.9,66,72.9,67,71.7,67z M65.7,36.3c-0.9,0-1.7,0.7-1.7,1.6v26.9c0.1,0.9,0.8,1.7,1.7,1.7h6c0.9,0,1.6-0.7,1.6-1.7V37.9
	c0-0.9-0.7-1.6-1.6-1.6H65.7z"/>
<path class="st0" d="M60.8,67h-6c-1.1,0-2.1-1-2.1-2.2V37.9c0-1.2,1-2.1,2.1-2.1h6c1.2,0,2.2,1,2.2,2.1v26.9C63,66,62,67,60.8,67z
	 M54.8,36.3c-0.9,0-1.6,0.7-1.6,1.6v26.9c0,0.9,0.8,1.7,1.6,1.7h6c0.9,0,1.7-0.7,1.7-1.7V37.9c0-0.9-0.7-1.6-1.7-1.6H54.8z"/>
<rect x="102.2" y="40.8" class="st0" width="3.5" height="28.2"/>
<path class="st0" d="M78.1,76.8h2.1c0.4,0,0.8-0.4,0.8-0.8V45.6l0,0h-2.9V76.8z"/>
<ellipse class="st0" cx="79.7" cy="45.7" rx="1.3" ry="0.5"/>
<path class="st0" d="M105.3,76.8h-2.1c-0.4,0-0.8-0.4-0.8-0.8V45.6l0,0h2.9V76.8z"/>
<ellipse class="st0" cx="103.7" cy="45.7" rx="1.3" ry="0.5"/>
<rect x="103.6" y="43.8" class="st0" width="4.2" height="33"/>
<path class="st0" d="M107.3,86.1c0.1,0,0.6,0.3,0.6,0.2V49.6h-1.3v34.8C106.6,84.4,107.3,86.1,107.3,86.1z"/>
<path class="st0" d="M111.3,86.4h-3.4c-0.4,0-0.7-0.3-0.7-0.7V50.5h4.7v35.2C112,86.1,111.7,86.4,111.3,86.4z"/>
<path class="st0" d="M78.9,86.4h-3.4c-0.4,0-0.7-0.3-0.7-0.7V50.8h4.7v34.9C79.6,86.1,79.3,86.4,78.9,86.4z"/>
<g>
	<path class="st0" d="M77.2,40L77.2,40c-1.3,0-2,0.2-2,0.5l-0.4,10.3c0,0.3,1.1,0.5,2.4,0.5l0,0c1.3,0,2.4-0.2,2.4-0.5l-0.3-10.3
		C79.3,40.2,78.5,40,77.2,40z"/>
	<path class="st1" d="M77.2,51.8c-2.9,0-2.9-0.8-2.9-1l0.4-10.3c0-0.9,1.4-1,2.5-1c1.8,0,2.6,0.3,2.6,1l0.3,10.3
		C80.1,51,80.1,51.8,77.2,51.8z M75.3,50.6c0.3,0.1,0.9,0.2,1.9,0.2c1,0,1.6-0.1,1.9-0.2l-0.3-9.9c-0.2-0.1-0.7-0.2-1.6-0.2
		c-1,0-1.4,0.1-1.5,0.2L75.3,50.6z M78.8,40.5C78.8,40.5,78.8,40.5,78.8,40.5L78.8,40.5z M75.7,40.5L75.7,40.5
		C75.7,40.5,75.7,40.5,75.7,40.5z"/>
</g>
<g>
	<g>
		<path class="st0" d="M104.1,40.4h-0.2c-1.4,0-1.8,0.2-1.6,0.5l4.7,9.5c0.1,0.2,1.4,0.4,2.7,0.4l0,0c1.4,0,2.4-0.2,2.3-0.5
			l-5.9-9.5C106,40.6,105.5,40.4,104.1,40.4z"/>
		<path class="st1" d="M109.7,51.3c-0.8,0-2.8-0.1-3.1-0.7l-4.7-9.5c-0.1-0.2-0.1-0.4,0-0.7c0.2-0.4,0.8-0.6,2.1-0.6h0.2
			c1.5,0,2.2,0.2,2.4,0.7l5.9,9.6c0.1,0.2,0,0.4-0.1,0.6C112.3,50.9,112,51.3,109.7,51.3z M107.4,50.1c0.3,0.1,1.2,0.2,2.3,0.2
			c0.8,0,1.3-0.1,1.6-0.1l-5.7-9.1c0,0-0.2-0.2-1.6-0.2h-0.2c-0.5,0-0.8,0-1,0.1L107.4,50.1z M102.7,40.6L102.7,40.6
			C102.7,40.6,102.7,40.6,102.7,40.6z"/>
	</g>
</g>
<path class="st0" d="M89.1,67h-6c-1.2,0-2.1-1-2.1-2.2V37.9c0-1.2,1-2.1,2.1-2.1h6c1.2,0,2.2,1,2.2,2.1v26.9
	C91.3,65.9,90.2,67,89.1,67z M83.1,36.3c-0.9,0-1.6,0.7-1.6,1.6v26.9c0,0.9,0.7,1.7,1.6,1.7h6c0.9,0,1.7-0.8,1.7-1.7V37.9
	c0-0.9-0.7-1.6-1.7-1.6H83.1z"/>
<path class="st0" d="M100,67h-6c-1.2,0-2.2-1-2.2-2.2V37.9c0-1.2,1-2.1,2.2-2.1h6c1.2,0,2.2,1,2.2,2.1v26.9
	C102.2,66,101.2,67,100,67z M94,36.3c-0.9,0-1.7,0.7-1.7,1.6v26.9c0,0.9,0.7,1.7,1.7,1.7h6c0.9,0,1.7-0.7,1.7-1.7V37.9
	c0-0.9-0.7-1.6-1.7-1.6H94z"/>
<path class="st0" d="M123.5,73.2V17.8c0-4.4-3.6-7.9-7.9-7.9h-77c-4.4,0-7.9,3.6-7.9,7.9v55.4h-23v1.4H32l0,0h1.8V17.8
	c0-2.7,2.2-4.9,4.9-4.9h77c2.7,0,4.9,2.2,4.9,4.9v56.8h1.7l0,0h24.3v-1.4H123.5z"/>
</svg>
