<?xml version="1.0" encoding="utf-8"?>
<!-- Generator: Adobe Illustrator 25.1.0, SVG Export Plug-In . SVG Version: 6.00 Build 0)  -->
<svg version="1.1" id="Слой_1" xmlns="http://www.w3.org/2000/svg" xmlns:xlink="http://www.w3.org/1999/xlink" x="0px" y="0px"
	 viewBox="0 0 117.4 62.2" style="enable-background:new 0 0 117.4 62.2;" xml:space="preserve">
<style type="text/css">
	.st0{fill-rule:evenodd;clip-rule:evenodd;fill:#204385;}
	.st1{fill-rule:evenodd;clip-rule:evenodd;fill:#FFFFFF;}
	.st2{fill:#FFFFFF;}
</style>
<circle class="st0" cx="19" cy="19" r="19"/>
<path class="st1" d="M19,37.4c5.1,0,9.5-1.8,13.1-5.4c3.6-3.6,5.4-7.9,5.4-13.1c0-5.1-1.8-9.5-5.4-13.1c-3.7-3.5-8-5.3-13.1-5.3
	S9.5,2.3,5.9,5.9s-5.4,8-5.4,13.1s1.8,9.4,5.4,13S13.9,37.4,19,37.4L19,37.4z M19,36.2c-4.8,0-8.8-1.7-12.2-5c-3.4-3.4-5-7.4-5-12.2
	s1.7-8.8,5-12.2c3.4-3.4,7.4-5,12.2-5s8.8,1.7,12.2,5c3.4,3.4,5,7.4,5,12.2s-1.7,8.8-5,12.2C27.8,34.5,23.7,36.2,19,36.2L19,36.2z
	 M19,3l0.9,0.8v14.7l1.9,1.1l-0.9,1.6L20,20.6v1.2h-1.8v-2.2l-8.6-5v-1.1l0.9-0.5l7.7,4.4V3.7L19,3L19,3z M33,19.8v-1.7h1.7v1.7H33
	L33,19.8z M5,19.8H3.3v-1.7H5V19.8L5,19.8z M19.8,33v1.7h-1.7V33H19.8L19.8,33z M31.6,12.7l-0.9-1.5l1.5-0.9l0.9,1.5L31.6,12.7
	L31.6,12.7z M7.3,26.7l-1.5,0.8L5,26.1l1.5-0.8L7.3,26.7L7.3,26.7z M12.7,6.4l-1.5,0.9l-0.9-1.5l1.5-0.9L12.7,6.4L12.7,6.4z
	 M26.7,30.7l0.9,1.5L26.1,33l-0.9-1.5L26.7,30.7L26.7,30.7z M26.8,7.2l-1.5-0.9l0.9-1.4l1.5,0.9L26.8,7.2L26.8,7.2z M12.7,31.5
	L11.9,33l-1.5-0.9l0.9-1.5L12.7,31.5L12.7,31.5z M7.2,11.2l-0.9,1.5l-1.4-0.9l0.9-1.5L7.2,11.2L7.2,11.2z M31.5,25.3l1.5,0.8
	l-0.9,1.5l-1.5-0.8L31.5,25.3z"/>
<rect x="24.7" y="15.7" class="st2" width="92.7" height="46.5"/>
<path class="st0" d="M26.1,16.7H116v44.2H26.1V16.7L26.1,16.7z M28.4,24.7v8H40v-8H28.4L28.4,24.7z M28.4,19.1v4h85.5v-4H28.4
	L28.4,19.1z M102.4,50.8v8H114v-8H102.4L102.4,50.8z M102.4,42.1v8H114v-8H102.4L102.4,42.1z M102.4,33.4v8H114v-8H102.4L102.4,33.4
	z M102.4,24.7v8H114v-8H102.4L102.4,24.7z M90.1,50.8v8h11.6v-8H90.1L90.1,50.8z M90.1,42.1v8h11.6v-8H90.1L90.1,42.1z M90.1,33.4v8
	h11.6v-8H90.1L90.1,33.4z M90.1,24.7v8h11.6v-8H90.1L90.1,24.7z M77.7,50.8v8h11.6v-8H77.7L77.7,50.8z M77.7,42.1v8h11.6v-8H77.7
	L77.7,42.1z M77.7,33.4v8h11.6v-8H77.7L77.7,33.4z M77.7,24.7v8h11.6v-8H77.7L77.7,24.7z M65.4,50.8v8H77v-8H65.4L65.4,50.8z
	 M65.4,42.1v8H77v-8H65.4L65.4,42.1z M65.4,33.4v8H77v-8H65.4L65.4,33.4z M65.4,24.7v8H77v-8H65.4L65.4,24.7z M53.1,50.8v8h11.6v-8
	H53.1L53.1,50.8z M53.1,42.1v8h11.6v-8H53.1L53.1,42.1z M53.1,33.4v8h11.6v-8H53.1L53.1,33.4z M53.1,24.7v8h11.6v-8H53.1L53.1,24.7z
	 M40.8,50.8v8h11.6v-8H40.8L40.8,50.8z M40.8,42.1v8h11.6v-8H40.8L40.8,42.1z M40.8,33.4v8h11.6v-8H40.8L40.8,33.4z M40.8,24.7v8
	h11.6v-8H40.8L40.8,24.7z M28.4,50.8v8H40v-8H28.4L28.4,50.8z M28.4,42.1v8H40v-8H28.4L28.4,42.1z M28.4,33.4v8H40v-8H28.4z"/>
<rect x="29.5" y="25.4" class="st0" width="9.4" height="6.4"/>
<rect x="41.9" y="25.4" class="st0" width="9.4" height="6.4"/>
<rect x="54.2" y="25.4" class="st0" width="9.4" height="6.4"/>
<rect x="66.6" y="25.4" class="st0" width="9.4" height="6.4"/>
<rect x="78.8" y="34.1" class="st0" width="9.4" height="6.4"/>
<rect x="41.9" y="34.1" class="st0" width="9.4" height="6.4"/>
<rect x="54.2" y="34.1" class="st0" width="9.4" height="6.4"/>
<rect x="66.6" y="34.1" class="st0" width="9.4" height="6.4"/>
<rect x="54.2" y="42.7" class="st0" width="9.4" height="6.4"/>
<rect x="66.6" y="42.7" class="st0" width="9.4" height="6.4"/>
<rect x="78.8" y="42.7" class="st0" width="9.4" height="6.4"/>
<rect x="91.2" y="42.7" class="st0" width="9.4" height="6.4"/>
<rect x="66.4" y="51.5" class="st0" width="9.4" height="6.4"/>
<rect x="78.8" y="51.5" class="st0" width="9.4" height="6.4"/>
<rect x="91" y="51.5" class="st0" width="9.4" height="6.4"/>
<rect x="103.4" y="51.5" class="st0" width="9.4" height="6.4"/>
</svg>
