<?xml version="1.0" encoding="utf-8"?>
<!-- Generator: Adobe Illustrator 25.1.0, SVG Export Plug-In . SVG Version: 6.00 Build 0)  -->
<svg version="1.1" id="Слой_1" xmlns="http://www.w3.org/2000/svg" xmlns:xlink="http://www.w3.org/1999/xlink" x="0px" y="0px"
	 viewBox="0 0 784 777.7" style="enable-background:new 0 0 784 777.7;" xml:space="preserve">
<style type="text/css">
	.st0{fill:#204385;}
</style>
<g>
	<path class="st0" d="M179.3,77.9h-75.2H74c-13.4,0-24.2,5.6-24.2,19v35.4v75.2h54.3v-62.9c0-6.8,5.5-12.4,12.4-12.4h62.9V77.9
		H179.3z"/>
	<path class="st0" d="M738.2,207.2V132V96.6c0-13.4-10.8-19-24.2-19h-30.1h-75.2v54.3h62.9c6.8,0,12.4,5.5,12.4,12.4v62.9H738.2z"/>
	<path class="st0" d="M608.7,569.9h75.2H714c13.4,0,24.2-10.8,24.2-24.2v-30.1v-75.2h-54.3v62.9c0,6.8-5.5,12.4-12.4,12.4h-62.9
		v54.2H608.7z"/>
	<path class="st0" d="M49.7,440.6v75.2v30.1c0,13.4,10.8,24.2,24.2,24.2H104h75.2v-54.3h-62.9c-6.8,0-12.4-5.5-12.4-12.4v-62.9H49.7
		V440.6z"/>
</g>
<circle class="st0" cx="394" cy="378.7" r="183.1"/>
<path class="st0" d="M68.3,777c0-104.6,145.8-189.5,325.7-189.5S719.7,672.3,719.7,777"/>
</svg>
