<?xml version="1.0" encoding="utf-8"?>
<!-- Generator: Adobe Illustrator 25.1.0, SVG Export Plug-In . SVG Version: 6.00 Build 0)  -->
<svg version="1.1" id="Слой_1" xmlns="http://www.w3.org/2000/svg" xmlns:xlink="http://www.w3.org/1999/xlink" x="0px" y="0px"
	 viewBox="0 0 152.4 80.3" style="enable-background:new 0 0 152.4 80.3;" xml:space="preserve">
<style type="text/css">
	.st0{fill:#204385;}
	.st1{fill:url(#SVGID_1_);}
	.st2{fill:url(#SVGID_2_);}
	.st3{fill:url(#SVGID_3_);}
	.st4{fill:url(#SVGID_4_);}
	.st5{fill:url(#SVGID_5_);}
	.st6{fill:url(#SVGID_6_);}
	.st7{fill:url(#SVGID_7_);}
	.st8{fill:url(#SVGID_8_);}
	.st9{fill:url(#SVGID_9_);}
	.st10{fill:url(#SVGID_10_);}
	.st11{fill:url(#SVGID_11_);}
	.st12{fill:url(#SVGID_12_);}
	.st13{fill:url(#SVGID_13_);}
	.st14{fill:url(#SVGID_14_);}
	.st15{fill:url(#SVGID_15_);}
	.st16{fill:url(#SVGID_16_);}
	.st17{fill:url(#SVGID_17_);}
	.st18{fill:url(#SVGID_18_);}
	.st19{fill-rule:evenodd;clip-rule:evenodd;fill:#FFFFFF;}
	.st20{fill:#FFFFFF;}
	.st21{fill-rule:evenodd;clip-rule:evenodd;fill:#204385;}
</style>
<polygon class="st0" points="8.2,78.7 8.2,26.6 8.6,26.6 8.6,78.7 "/>
<path class="st0" d="M10.1,78.7L10.1,78.7c0-1.5,0-3,0-4.5s0-3,0-4.5v-8.9c0-1.5,0-3,0-4.5c0-1.5,0-3,0-4.5V43c0-1.5,0-3,0-4.5
	c0-1.5,0-3,0-4.5v-8.9h0.4v8.9c0,1.5,0,3,0,4.5c0,1.5,0,3,0,4.5v8.9c0,1.5,0,3,0,4.5c0,1.5,0,3,0,4.5v8.9c0,1.5,0,3,0,4.5
	c0,1.5,0,3,0,4.4L10.1,78.7"/>
<path class="st0" d="M14.5,78.7L14.5,78.7c0-3.2,0-6.3,0-9.5s0-6.3,0-9.5v-9.5c0-3.1,0-6.3,0-9.5s0-6.3,0-9.5v-9.5h0.4v9.5
	c0,3.2,0,6.3,0,9.5c0,3.2,0,6.3,0,9.5v9.5c0,3.2,0,6.3,0,9.5s0,6.3,0,9.5L14.5,78.7"/>
<path class="st0" d="M16.9,78.7v-9.8c0-1.6,0-3.3,0-4.9c0-1.6,0-3.3,0-4.9v-9.8c0-1.6,0-3.2,0-4.9s0-3.3,0-4.9v-9.8
	c0-3.3,0-6.5,0-9.8v0h0.4v0c0,3.3,0,6.5,0,9.8v9.8c0,1.6,0,3.3,0,4.9c0,1.6,0,3.2,0,4.9v9.8c0,1.6,0,3.3,0,4.9c0,1.6,0,3.3,0,4.9
	v9.7L16.9,78.7"/>
<path class="st0" d="M19.8,68.6h-0.4V51.8c0-2.8,0-5.6,0-8.4V26.6c0-2.8,0-5.6,0-8.4v0h0.4v0c0,2.8,0,5.6,0,8.4v16.8
	c0,2.8,0,5.6,0,8.4V68.6"/>
<path class="st0" d="M22.1,78.7V47.4c0-1.7,0-3.5,0-5.2c0-1.7,0-3.5,0-5.2V16.2h0.4V37c0,1.7,0,3.5,0,5.2c0,1.7,0,3.5,0,5.2v31.2
	L22.1,78.7"/>
<polygon class="st0" points="25,78.7 25,14 25.4,14 25.4,78.7 "/>
<linearGradient id="SVGID_1_" gradientUnits="userSpaceOnUse" x1="31.361" y1="37.3166" x2="31.793" y2="37.3166" gradientTransform="matrix(1 0 0 -1 0 81.2756)">
	<stop  offset="0" style="stop-color:#12397F"/>
	<stop  offset="0.713" style="stop-color:#3A71CE"/>
	<stop  offset="1" style="stop-color:#3A71CE"/>
</linearGradient>
<path class="st1" d="M31.4,78.7V67.1c0-3.9,0-7.7,0-11.6V44c0-3.9,0-7.7,0-11.6V20.8c0-3.9,0-7.7,0-11.6v0h0.4v0c0,3.9,0,7.7,0,11.6
	v11.6c0,3.9,0,7.7,0,11.6v11.6c0,3.9,0,7.7,0,11.6v11.6L31.4,78.7"/>
<linearGradient id="SVGID_2_" gradientUnits="userSpaceOnUse" x1="34.932" y1="38.6566" x2="35.36" y2="38.6566" gradientTransform="matrix(1 0 0 -1 0 81.2756)">
	<stop  offset="0" style="stop-color:#12397F"/>
	<stop  offset="0.713" style="stop-color:#3A71CE"/>
	<stop  offset="1" style="stop-color:#3A71CE"/>
</linearGradient>
<polygon class="st2" points="34.9,78.7 34.9,6.6 35.4,6.6 35.4,78.7 "/>
<linearGradient id="SVGID_3_" gradientUnits="userSpaceOnUse" x1="8.368" y1="2.6226" x2="35.158" y2="2.6226" gradientTransform="matrix(1 0 0 -1 0 81.2756)">
	<stop  offset="0" style="stop-color:#12397F"/>
	<stop  offset="0.713" style="stop-color:#3A71CE"/>
	<stop  offset="1" style="stop-color:#3A71CE"/>
</linearGradient>
<polygon class="st3" points="8.4,78.9 8.4,78.4 35.1,78.4 35.2,78.7 35.2,78.9 "/>
<linearGradient id="SVGID_4_" gradientUnits="userSpaceOnUse" x1="8.341" y1="11.4076" x2="10.382" y2="11.4076" gradientTransform="matrix(1 0 0 -1 0 81.2756)">
	<stop  offset="0" style="stop-color:#12397F"/>
	<stop  offset="0.713" style="stop-color:#3A71CE"/>
	<stop  offset="1" style="stop-color:#3A71CE"/>
</linearGradient>
<polygon class="st4" points="8.4,70.2 8.3,69.8 10.3,69.5 10.4,70 "/>
<linearGradient id="SVGID_5_" gradientUnits="userSpaceOnUse" x1="8.314" y1="20.2096" x2="10.406" y2="20.2096" gradientTransform="matrix(1 0 0 -1 0 81.2756)">
	<stop  offset="0" style="stop-color:#12397F"/>
	<stop  offset="0.713" style="stop-color:#3A71CE"/>
	<stop  offset="1" style="stop-color:#3A71CE"/>
</linearGradient>
<path class="st5" d="M8.4,61.5l-0.1-0.4c0.1,0,0.1,0,0.2,0l1-0.2c0.1,0,0.1,0,0.2-0.1l0.6-0.2l0.1,0.4l-0.6,0.2c-0.1,0-0.1,0-0.2,0
	l-1,0.2C8.5,61.5,8.5,61.5,8.4,61.5"/>
<linearGradient id="SVGID_6_" gradientUnits="userSpaceOnUse" x1="8.29" y1="29.0071" x2="10.432" y2="29.0071" gradientTransform="matrix(1 0 0 -1 0 81.2756)">
	<stop  offset="0" style="stop-color:#12397F"/>
	<stop  offset="0.713" style="stop-color:#3A71CE"/>
	<stop  offset="1" style="stop-color:#3A71CE"/>
</linearGradient>
<path class="st6" d="M8.4,52.8l-0.2-0.4c0.1,0,0.1,0,0.2-0.1l0.2-0.1c0.1,0,0.1,0,0.2-0.1c0.1,0,0.1,0,0.2-0.1l0,0
	c0.1,0,0.1,0,0.2-0.1l0,0c0.1,0,0.1-0.1,0.2-0.1c0.1,0,0.1,0,0.2-0.1l0.2-0.1c0.1,0,0.1,0,0.2-0.1l0.2-0.1l0.1,0.4l-0.2,0.1
	c-0.1,0-0.1,0-0.2,0.1l-0.2,0.1c-0.1,0-0.1,0.1-0.2,0.1c-0.1,0-0.1,0.1-0.2,0.1l0,0c-0.1,0-0.1,0-0.2,0.1l0,0c-0.1,0-0.1,0-0.2,0.1
	c-0.1,0-0.1,0-0.2,0.1l-0.2,0.1C8.6,52.8,8.5,52.8,8.4,52.8"/>
<linearGradient id="SVGID_7_" gradientUnits="userSpaceOnUse" x1="8.273" y1="37.7941" x2="10.453" y2="37.7941" gradientTransform="matrix(1 0 0 -1 0 81.2756)">
	<stop  offset="0" style="stop-color:#12397F"/>
	<stop  offset="0.713" style="stop-color:#3A71CE"/>
	<stop  offset="1" style="stop-color:#3A71CE"/>
</linearGradient>
<path class="st7" d="M8.5,44.2l-0.2-0.4c0.1,0,0.1-0.1,0.2-0.1l0.4-0.2c0.1,0,0.1-0.1,0.2-0.1l0.4-0.2c0.1,0,0.1-0.1,0.2-0.1
	c0.1,0,0.1-0.1,0.2-0.1l0.4-0.2l0.2,0.4L10,43.4c-0.1,0-0.1,0.1-0.2,0.1c-0.1,0-0.1,0.1-0.2,0.1l-0.4,0.2c-0.1,0-0.1,0.1-0.2,0.1
	l-0.4,0.2C8.6,44.1,8.5,44.1,8.5,44.2"/>
<linearGradient id="SVGID_8_" gradientUnits="userSpaceOnUse" x1="8.255" y1="46.5891" x2="10.475" y2="46.5891" gradientTransform="matrix(1 0 0 -1 0 81.2756)">
	<stop  offset="0" style="stop-color:#12397F"/>
	<stop  offset="0.713" style="stop-color:#3A71CE"/>
	<stop  offset="1" style="stop-color:#3A71CE"/>
</linearGradient>
<path class="st8" d="M8.5,35.5l-0.2-0.4c0.1,0,0.1-0.1,0.2-0.1L9,34.6c0.1,0,0.1-0.1,0.2-0.1l0,0c0.1,0,0.1-0.1,0.2-0.1
	c0.1,0,0.1-0.1,0.2-0.1l0.2-0.1c0.1,0,0.1-0.1,0.2-0.1l0.2-0.1l0.2,0.4l-0.2,0.1c-0.1,0-0.1,0.1-0.2,0.1l-0.2,0.1
	c-0.1,0-0.1,0.1-0.2,0.1c-0.1,0-0.1,0.1-0.2,0.1l0,0c-0.1,0-0.1,0.1-0.2,0.1l-0.6,0.4C8.6,35.4,8.5,35.4,8.5,35.5"/>
<path class="st0" d="M8.5,26.8l-0.1-0.2H8.2l0.1-0.2l0,0l2-1.5c0.4-0.3,0.7-0.6,1.1-0.8l1-0.7c0.6-0.4,1.2-0.9,1.8-1.3l1.3-1
	c0.5-0.4,1-0.8,1.6-1.2c0.4-0.3,0.9-0.7,1.3-1l2.4-1.8c0.5-0.4,1-0.8,1.5-1.1c0.9-0.7,1.9-1.4,2.9-2.2l1.4-1.1
	c0.5-0.4,1.1-0.8,1.6-1.2c0.6-0.5,1.2-0.9,1.8-1.4L35,6.4c0,0,0,0,0,0l0.1,0.2l0.1,0.2c0,0,0,0,0,0l-5,3.8c-0.6,0.5-1.2,0.9-1.8,1.4
	c-0.6,0.4-1.1,0.8-1.6,1.2l-1.4,1.1c-1,0.7-1.9,1.5-2.9,2.2c-0.5,0.4-1,0.8-1.5,1.1l-2.4,1.8c-0.4,0.3-0.9,0.7-1.3,1
	c-0.5,0.4-1,0.8-1.6,1.2l-1.3,1c-0.6,0.4-1.2,0.9-1.8,1.3l-1,0.7c-0.4,0.3-0.8,0.6-1.1,0.8L8.5,26.8"/>
<linearGradient id="SVGID_9_" gradientUnits="userSpaceOnUse" x1="14.67" y1="12.7316" x2="25.206" y2="12.7316" gradientTransform="matrix(1 0 0 -1 0 81.2756)">
	<stop  offset="0" style="stop-color:#12397F"/>
	<stop  offset="0.713" style="stop-color:#3A71CE"/>
	<stop  offset="1" style="stop-color:#3A71CE"/>
</linearGradient>
<path class="st9" d="M14.7,69.4L14.7,69h0l4.9-0.6c0.3,0,0.7-0.1,1.1-0.1l4.5-0.6l0.1,0.4l-4.5,0.6c-0.4,0-0.7,0.1-1.1,0.1
	L14.7,69.4"/>
<linearGradient id="SVGID_10_" gradientUnits="userSpaceOnUse" x1="14.482" y1="22.8446" x2="25.227" y2="22.8446" gradientTransform="matrix(1 0 0 -1 0 81.2756)">
	<stop  offset="0" style="stop-color:#12397F"/>
	<stop  offset="0.713" style="stop-color:#3A71CE"/>
	<stop  offset="1" style="stop-color:#3A71CE"/>
</linearGradient>
<path class="st10" d="M14.7,59.9l-0.1-0.2h-0.2v-0.2l3-0.8c0.3-0.1,0.7-0.2,1-0.3l1-0.3c0.3-0.1,0.7-0.2,1.1-0.3l3.5-0.9
	c0.3-0.1,0.6-0.2,1-0.2l0.1,0.4c-0.3,0.1-0.7,0.2-1,0.2l-3.5,0.9c-0.4,0.1-0.7,0.2-1.1,0.3l-1,0.3c-0.3,0.1-0.7,0.2-1,0.3L14.7,59.9
	"/>
<path class="st0" d="M14.8,50.5l-0.1-0.2l-0.1-0.2l0,0l1.9-0.7c0.3-0.1,0.6-0.2,1-0.4c0.3-0.1,0.7-0.2,1-0.4c0.3-0.1,0.7-0.3,1-0.4
	c0.4-0.1,0.7-0.3,1.1-0.4c0.3-0.1,0.7-0.2,1-0.4l2.4-0.9c0.4-0.1,0.8-0.3,1.1-0.4l0.2,0.4c-0.4,0.1-0.8,0.3-1.2,0.4l-2.4,0.9
	c-0.3,0.1-0.7,0.2-1,0.4c-0.4,0.1-0.7,0.3-1.1,0.4c-0.3,0.1-0.7,0.3-1,0.4c-0.3,0.1-0.7,0.3-1,0.4c-0.3,0.1-0.7,0.2-1,0.4L14.8,50.5
	"/>
<path class="st0" d="M14.8,41l-0.1-0.2l-0.1-0.2c0.3-0.2,0.6-0.3,0.9-0.5l1.9-1c0.3-0.2,0.7-0.3,1-0.5c0.3-0.1,0.6-0.3,0.9-0.4
	l0.1-0.1c0.4-0.2,0.7-0.4,1.1-0.5l1.1-0.5c0.4-0.2,0.8-0.4,1.1-0.6L24,36c0.4-0.2,0.7-0.4,1.1-0.5l0.2,0.4l0,0
	c-0.4,0.2-0.7,0.4-1.1,0.5l-1.2,0.6c-0.4,0.2-0.7,0.4-1.1,0.6L20.7,38c-0.4,0.2-0.7,0.4-1.1,0.5l-0.1,0.1c-0.3,0.1-0.6,0.3-0.9,0.4
	c-0.3,0.2-0.7,0.3-1,0.5l-1.9,1C15.4,40.7,15.1,40.9,14.8,41L14.8,41"/>
<path class="st0" d="M14.8,31.5l-0.1-0.2l-0.2,0v-0.1l0.1-0.1c0.3-0.2,0.5-0.3,0.8-0.5l1.5-0.9c0.2-0.1,0.4-0.3,0.6-0.4
	c0.3-0.2,0.7-0.4,1-0.6c0.3-0.2,0.7-0.4,1-0.6c0.4-0.2,0.7-0.4,1.1-0.7c0.4-0.2,0.7-0.4,1.1-0.7l2.3-1.4c0.4-0.2,0.8-0.5,1.1-0.7
	l0.2,0.4c-0.4,0.2-0.8,0.5-1.2,0.7l-2.3,1.4c-0.4,0.2-0.7,0.5-1.1,0.7c-0.4,0.2-0.7,0.4-1.1,0.7c-0.3,0.2-0.7,0.4-1,0.6
	c-0.3,0.2-0.7,0.4-1,0.6c-0.2,0.1-0.4,0.3-0.6,0.4L15.6,31C15.4,31.2,15.1,31.4,14.8,31.5"/>
<linearGradient id="SVGID_11_" gradientUnits="userSpaceOnUse" x1="31.555" y1="14.4041" x2="35.171" y2="14.4041" gradientTransform="matrix(1 0 0 -1 0 81.2756)">
	<stop  offset="0" style="stop-color:#12397F"/>
	<stop  offset="0.713" style="stop-color:#3A71CE"/>
	<stop  offset="1" style="stop-color:#3A71CE"/>
</linearGradient>
<polygon class="st11" points="31.6,67.3 31.6,66.9 35.1,66.4 35.2,66.9 "/>
<linearGradient id="SVGID_12_" gradientUnits="userSpaceOnUse" x1="31.527" y1="26.1941" x2="35.2" y2="26.1941" gradientTransform="matrix(1 0 0 -1 0 81.2756)">
	<stop  offset="0" style="stop-color:#12397F"/>
	<stop  offset="0.713" style="stop-color:#3A71CE"/>
	<stop  offset="1" style="stop-color:#3A71CE"/>
</linearGradient>
<path class="st12" d="M31.6,55.7l-0.1-0.4l1-0.3c0.1,0,0.2-0.1,0.4-0.1l2.2-0.5l0.1,0.4L33,55.4c-0.1,0-0.2,0.1-0.4,0.1L31.6,55.7"
	/>
<linearGradient id="SVGID_13_" gradientUnits="userSpaceOnUse" x1="31.504" y1="37.9821" x2="35.218" y2="37.9821" gradientTransform="matrix(1 0 0 -1 0 81.2756)">
	<stop  offset="0" style="stop-color:#12397F"/>
	<stop  offset="0.713" style="stop-color:#3A71CE"/>
	<stop  offset="1" style="stop-color:#3A71CE"/>
</linearGradient>
<path class="st13" d="M31.7,44.2l-0.1-0.4l0.3-0.1c0.1,0,0.2-0.1,0.4-0.1l1.4-0.5c0.1,0,0.2-0.1,0.3-0.1l0.4-0.2
	c0.1,0,0.2-0.1,0.4-0.1c0.1,0,0.2-0.1,0.4-0.1l0.2,0.4c-0.1,0-0.2,0.1-0.4,0.1c-0.1,0-0.2,0.1-0.4,0.1L34,43.3
	c-0.1,0-0.2,0.1-0.3,0.1l-1.4,0.5c-0.1,0-0.2,0.1-0.4,0.1L31.7,44.2"/>
<linearGradient id="SVGID_14_" gradientUnits="userSpaceOnUse" x1="31.481" y1="49.7536" x2="35.24" y2="49.7536" gradientTransform="matrix(1 0 0 -1 0 81.2756)">
	<stop  offset="0" style="stop-color:#12397F"/>
	<stop  offset="0.713" style="stop-color:#3A71CE"/>
	<stop  offset="1" style="stop-color:#3A71CE"/>
</linearGradient>
<path class="st14" d="M31.7,32.6l-0.2-0.4l0,0c0.1-0.1,0.2-0.1,0.3-0.2l0.3-0.2c0.1-0.1,0.2-0.1,0.4-0.2l0.4-0.2
	c0.1-0.1,0.2-0.1,0.3-0.2l0.9-0.4c0.1,0,0.1-0.1,0.2-0.1l0.2-0.1c0.1,0,0.1-0.1,0.2-0.1c0.1-0.1,0.2-0.1,0.4-0.2l0.2,0.4
	c-0.1,0.1-0.2,0.1-0.4,0.2c-0.1,0-0.1,0.1-0.2,0.1l-0.2,0.1c-0.1,0-0.1,0.1-0.2,0.1l-0.9,0.4c-0.1,0.1-0.2,0.1-0.3,0.2l-0.4,0.2
	c-0.1,0.1-0.2,0.1-0.4,0.2L32,32.4C31.9,32.5,31.8,32.5,31.7,32.6L31.7,32.6"/>
<linearGradient id="SVGID_15_" gradientUnits="userSpaceOnUse" x1="31.463" y1="61.5476" x2="35.257" y2="61.5476" gradientTransform="matrix(1 0 0 -1 0 81.2756)">
	<stop  offset="0" style="stop-color:#12397F"/>
	<stop  offset="0.713" style="stop-color:#3A71CE"/>
	<stop  offset="1" style="stop-color:#3A71CE"/>
</linearGradient>
<path class="st15" d="M31.7,21l-0.2-0.4l0.3-0.2c0.1-0.1,0.2-0.1,0.4-0.2l0.3-0.2c0.1-0.1,0.2-0.1,0.4-0.2l1.1-0.7
	c0.1-0.1,0.2-0.2,0.4-0.2l0.1-0.1c0.1,0,0.1-0.1,0.2-0.1l0.2-0.1c0.1,0,0.1-0.1,0.2-0.1l0.2,0.4c-0.1,0-0.1,0.1-0.2,0.1L34.9,19
	c-0.1,0-0.1,0.1-0.2,0.1l-0.1,0.1c-0.1,0.1-0.2,0.2-0.4,0.2l-1.1,0.7c-0.1,0.1-0.2,0.1-0.4,0.2l-0.3,0.2c-0.1,0.1-0.2,0.1-0.4,0.2
	L31.7,21"/>
<path class="st0" d="M11.2,78.9v-0.2c0-9,0-18.1,0-27.1l0-11c0-5.4,0-10.8,0-16.2v-0.1l0.1-0.1c0.7-0.5,1.4-1.1,2.2-1.6l0.3-0.3v0.4
	c0,5.6,0,11.2,0,16.8l0,11.2c0,9.3,0,18.6,0,28v0.2L11.2,78.9 M11.6,24.5c0,5.4,0,10.7,0,16.1l0,11c0,9,0,18,0,26.9l1.7,0
	c0-9.2,0-18.5,0-27.7l0-11.2c0-5.5,0-10.9,0-16.4C12.8,23.6,12.2,24,11.6,24.5"/>
<path class="st0" d="M26.5,78.9V67.7c0-7.3,0-14.6,0-21.9v-0.2c0-10.9,0-21.8,0-32.6v-0.1l0.6-0.4c0.9-0.7,1.8-1.3,2.7-2l0.3-0.3
	v0.4c0,10.8,0,21.6,0,32.4v1.9c0,11.3,0,22.5,0,33.8v0.2L26.5,78.9 M26.9,13c0,10.8,0,21.7,0,32.5v0.2c0,7.3,0,14.6,0,21.9v10.7h2.8
	c0-11.2,0-22.4,0-33.6l0-1.9c0-10.7,0-21.3,0-32c-0.8,0.6-1.6,1.2-2.4,1.8L26.9,13"/>
<linearGradient id="SVGID_16_" gradientUnits="userSpaceOnUse" x1="17.02" y1="7.4066" x2="22.268" y2="7.4066" gradientTransform="matrix(1 0 0 -1 0 81.2756)">
	<stop  offset="0" style="stop-color:#12397F"/>
	<stop  offset="0.713" style="stop-color:#3A71CE"/>
	<stop  offset="1" style="stop-color:#3A71CE"/>
</linearGradient>
<path class="st16" d="M17,78.9v-9.4l0.2,0c0.8-0.1,1.5-0.2,2.3-0.3c0.8-0.1,1.6-0.2,2.5-0.3l0.2,0v0.2c0,3.2,0,6.4,0,9.5v0.2
	L17,78.9 M17.4,69.9v8.6l4.4,0c0-3,0-6.1,0-9.1c-0.8,0.1-1.5,0.2-2.3,0.3C18.9,69.7,18.1,69.8,17.4,69.9"/>
<linearGradient id="SVGID_17_" gradientUnits="userSpaceOnUse" x1="18.493" y1="7.1981" x2="18.918" y2="7.1981" gradientTransform="matrix(1 0 0 -1 0 81.2756)">
	<stop  offset="0" style="stop-color:#12397F"/>
	<stop  offset="0.713" style="stop-color:#3A71CE"/>
	<stop  offset="1" style="stop-color:#3A71CE"/>
</linearGradient>
<rect x="18.5" y="69.5" class="st17" width="0.4" height="9.2"/>
<linearGradient id="SVGID_18_" gradientUnits="userSpaceOnUse" x1="20.19" y1="7.2981" x2="20.614" y2="7.2981" gradientTransform="matrix(1 0 0 -1 0 81.2756)">
	<stop  offset="0" style="stop-color:#12397F"/>
	<stop  offset="0.713" style="stop-color:#3A71CE"/>
	<stop  offset="1" style="stop-color:#3A71CE"/>
</linearGradient>
<rect x="20.2" y="69.3" class="st18" width="0.4" height="9.4"/>
<g>
	<rect y="78.8" class="st19" width="152.4" height="1.5"/>
	<path class="st20" d="M119.7,78.7c0-2.5,0-5,0-7.4c0-2.5,0-5,0-7.4c0-1.2,0-2.5,0-3.7c0-1.2,0-2.5,0-3.7c0-2.5,0-5,0-7.4
		c0-2.5,0-5,0-7.4c0-2.5,0-5,0-7.4v0h0.4v0c0,2.5,0,5,0,7.4s0,5,0,7.4c0,2.5,0,5,0,7.4c0,1.2,0,2.5,0,3.7c0,1.2,0,2.5,0,3.7
		c0,2.5,0,5,0,7.4c0,2.4,0,5,0,7.4L119.7,78.7"/>
</g>
<path class="st0" d="M114.6,78.7h-0.4v-7.6c0-1.3,0-2.5,0-3.8c0-1.3,0-2.5,0-3.8V56c0-1.3,0-2.5,0-3.8c0-1.3,0-2.5,0-3.8v-7.6
	c0-1.3,0-2.5,0-3.8c0-1.3,0-2.5,0-3.8v0h0.4v0c0,1.3,0,2.5,0,3.8c0,1.3,0,2.5,0,3.8v7.6c0,1.3,0,2.5,0,3.8c0,1.3,0,2.5,0,3.8v7.6
	c0,1.3,0,2.5,0,3.8c0,1.3,0,2.5,0,3.8V78.7"/>
<path class="st0" d="M108.5,71V38.8c0-2.1,0-4.3,0-6.4v0h0.4v0c0,2.2,0,4.3,0,6.4v32.1L108.5,71"/>
<path class="st0" d="M103,78.7h-0.4V55.1c0-1.3,0-2.6,0-3.9c0-1.3,0-2.6,0-3.9v-7.9c0-1.3,0-2.6,0-3.9c0-1.3,0-2.6,0-3.9v0h0.4v0
	c0,1.3,0,2.6,0,3.9s0,2.6,0,3.9v7.9c0,1.3,0,2.6,0,3.9c0,1.3,0,2.6,0,3.9L103,78.7"/>
<g>
	<path class="st20" d="M96.8,78.7h-0.4v-24c0-2.7,0-5.3,0-8v-16h0.4v16c0,2.7,0,5.3,0,8V78.7"/>
	<rect x="76.6" y="78.5" class="st20" width="58.8" height="0.4"/>
	<path class="st20" d="M135.3,36.5L135.3,36.5c-0.8-0.1-1.5-0.2-2.2-0.3c-0.9-0.1-1.8-0.3-2.8-0.4c-1.2-0.2-2.4-0.3-3.6-0.5
		l-1.6-0.2c-1.1-0.2-2.1-0.3-3.2-0.5c-0.7-0.1-1.4-0.2-2.1-0.3c-1.8-0.3-3.7-0.5-5.5-0.8c-1.1-0.2-2.3-0.3-3.4-0.5
		c-0.8-0.1-1.5-0.2-2.3-0.3l-1.3-0.2c-1.5-0.2-3-0.4-4.6-0.7c-1.6-0.2-3.3-0.5-5-0.7L94,30.4c-1.3-0.2-2.5-0.4-3.8-0.6
		c-1.8-0.3-3.6-0.5-5.4-0.8l-1.3-0.2c-0.9-0.1-1.9-0.3-2.8-0.4c-1.4-0.2-2.7-0.4-4.1-0.6c-0.1,0-0.2-0.1-0.2-0.2h0.2l0-0.2l0,0
		c1.4,0.2,2.7,0.4,4.1,0.6c1,0.1,1.9,0.3,2.8,0.4l1.3,0.2c1.8,0.3,3.6,0.5,5.4,0.8c1.3,0.2,2.6,0.4,3.8,0.6l3.8,0.6
		c1.7,0.2,3.3,0.5,5,0.7c1.5,0.2,3.1,0.4,4.6,0.7l1.3,0.2c0.8,0.1,1.5,0.2,2.3,0.3c1.1,0.2,2.3,0.3,3.4,0.5c1.9,0.3,3.7,0.5,5.5,0.8
		c0.7,0.1,1.4,0.2,2.1,0.3c1.1,0.2,2.2,0.3,3.2,0.5l1.6,0.2c1.2,0.2,2.4,0.3,3.6,0.5c0.9,0.1,1.9,0.3,2.8,0.4
		c0.7,0.1,1.5,0.2,2.2,0.3c0.1,0,0.1,0,0.1,0.1l0.1,0.1l0,0.1h-0.4h0.2l-0.1,0.2C135.3,36.5,135.3,36.5,135.3,36.5L135.3,36.5"/>
</g>
<path class="st0" d="M119.9,71.5c-0.3,0-0.6,0-1,0c-0.4,0-0.8,0-1.2,0c-0.4,0-0.8,0-1.2,0c-0.3,0-0.7,0-1,0c-0.6,0-1.2,0-1.8,0
	l-0.5,0c-0.7,0-1.4,0-2.1,0l-2.5-0.1c-0.8,0-1.6,0-2.4-0.1l-0.1,0c-0.8,0-1.5,0-2.3-0.1c-0.8,0-1.6,0-2.4-0.1c-0.7,0-1.5,0-2.2-0.1
	l-0.2,0c-0.7,0-1.4,0-2.1,0l-0.4,0l0-0.4h0l0.4,0c0.7,0,1.4,0,2.1,0.1l0.2,0c0.8,0,1.5,0,2.2,0.1c0.8,0,1.6,0,2.4,0.1
	c0.8,0,1.6,0,2.3,0.1l0.1,0c0.8,0,1.6,0,2.4,0.1l2.5,0.1c0.7,0,1.4,0,2.1,0l0.5,0c0.6,0,1.2,0,1.8,0c0.3,0,0.7,0,1,0
	c0.4,0,0.8,0,1.2,0c0.4,0,0.8,0,1.2,0c0.3,0,0.6,0,1,0L119.9,71.5L119.9,71.5"/>
<path class="st0" d="M119.9,64c-0.6,0-1.2-0.1-1.9-0.1l-0.3,0c-0.7,0-1.5-0.1-2.2-0.1c-0.7,0-1.5-0.1-2.2-0.1c-0.3,0-0.6,0-0.9,0
	c-0.4,0-0.9,0-1.3-0.1l-2.3-0.1c-0.8,0-1.6-0.1-2.3-0.1c-0.5,0-0.9,0-1.4-0.1c-0.3,0-0.7,0-1,0c-0.8,0-1.6-0.1-2.4-0.1h0
	c-0.8,0-1.6-0.1-2.5-0.1c-0.3,0-0.6,0-1,0c-0.5,0-1-0.1-1.5-0.1l0,0l0,0l0.1-0.2l0-0.2c0.5,0,1,0,1.5,0.1c0.3,0,0.6,0,1,0
	c0.8,0,1.6,0.1,2.5,0.1l0,0c0.8,0,1.6,0.1,2.4,0.1c0.3,0,0.7,0,1,0c0.5,0,0.9,0,1.4,0.1c0.8,0,1.6,0.1,2.4,0.1l2.3,0.1
	c0.4,0,0.9,0,1.3,0.1c0.3,0,0.6,0,0.9,0c0.8,0,1.5,0.1,2.2,0.1c0.7,0,1.5,0.1,2.2,0.1l0.3,0c0.6,0,1.2,0.1,1.9,0.1L119.9,64"/>
<path class="st0" d="M119.9,56.6L119.9,56.6c-0.5,0-1-0.1-1.5-0.1l-0.6,0c-0.4,0-0.8-0.1-1.1-0.1c-0.4,0-0.7-0.1-1.1-0.1
	c-0.3,0-0.6,0-0.9-0.1c-0.4,0-0.9-0.1-1.3-0.1l-0.8-0.1c-0.5,0-1-0.1-1.5-0.1c-0.8-0.1-1.5-0.1-2.3-0.2c-0.8-0.1-1.6-0.1-2.4-0.2
	c-0.6,0-1.1-0.1-1.7-0.1l-0.7,0c-0.9-0.1-1.7-0.1-2.4-0.2l-0.5,0c-0.7,0-1.3-0.1-2-0.1L98.3,55c-0.6,0-1.1-0.1-1.7-0.1l0-0.2l0-0.2
	h0h0c0.6,0,1.2,0.1,1.7,0.1l0.8,0.1c0.7,0,1.3,0.1,2,0.1l0.5,0c0.8,0.1,1.5,0.1,2.4,0.2l0.7,0.1c0.6,0,1.1,0.1,1.7,0.1
	c0.8,0.1,1.6,0.1,2.4,0.2c0.8,0.1,1.5,0.1,2.3,0.2c0.5,0,1,0.1,1.5,0.1l0.8,0.1c0.4,0,0.9,0.1,1.3,0.1c0.3,0,0.6,0,0.9,0.1
	c0.4,0,0.7,0.1,1.1,0.1c0.4,0,0.8,0.1,1.1,0.1l0.6,0c0.5,0,1,0.1,1.5,0.1l0,0.2L119.9,56.6L119.9,56.6"/>
<path class="st0" d="M119.9,49.1L119.9,49.1c-0.3,0-0.5-0.1-0.8-0.1c-0.5,0-0.9-0.1-1.4-0.1l-0.4,0c-0.6-0.1-1.2-0.1-1.9-0.2
	c-0.5-0.1-0.9-0.1-1.4-0.1c-0.3,0-0.6-0.1-0.8-0.1c-0.8-0.1-1.5-0.1-2.3-0.2c-0.8-0.1-1.5-0.2-2.3-0.2l-0.5-0.1
	c-0.6-0.1-1.2-0.1-1.8-0.2c-0.8-0.1-1.6-0.2-2.4-0.2l-0.7-0.1c-0.6-0.1-1.1-0.1-1.7-0.2c-0.4,0-0.7-0.1-1.1-0.1
	c-0.5,0-0.9-0.1-1.4-0.1c-0.4,0-0.8-0.1-1.2-0.1c-0.4,0-0.8-0.1-1.3-0.1l0-0.2l0-0.2l0,0l0,0c0.4,0,0.8,0.1,1.3,0.1
	c0.4,0,0.8,0.1,1.2,0.1c0.5,0,0.9,0.1,1.4,0.1c0.4,0,0.7,0.1,1.1,0.1c0.6,0.1,1.1,0.1,1.7,0.2l0.7,0.1c0.8,0.1,1.6,0.2,2.4,0.2
	c0.6,0.1,1.2,0.1,1.8,0.2l0.5,0.1c0.8,0.1,1.5,0.1,2.3,0.2c0.8,0.1,1.5,0.1,2.3,0.2c0.3,0,0.6,0.1,0.8,0.1c0.5,0,0.9,0.1,1.4,0.1
	c0.6,0.1,1.2,0.1,1.9,0.2l0.4,0c0.5,0,0.9,0.1,1.4,0.1c0.3,0,0.5,0.1,0.8,0.1l0,0.2L119.9,49.1L119.9,49.1"/>
<path class="st0" d="M119.9,41.7c-0.5-0.1-0.9-0.1-1.4-0.2l-0.8-0.1c-0.7-0.1-1.5-0.2-2.2-0.3l-0.2,0c-0.7-0.1-1.3-0.2-2-0.2
	c-0.7-0.1-1.5-0.2-2.3-0.3l-0.1,0c-0.7-0.1-1.5-0.2-2.2-0.3c-0.8-0.1-1.6-0.2-2.4-0.3c-0.8-0.1-1.6-0.2-2.4-0.3
	c-0.8-0.1-1.6-0.2-2.4-0.3c-0.8-0.1-1.6-0.2-2.5-0.3c-0.4,0-0.7-0.1-1.1-0.1c-0.5-0.1-0.9-0.1-1.4-0.2l0-0.2l0-0.2l0,0h0
	c0.5,0.1,1,0.1,1.4,0.2c0.4,0,0.7,0.1,1.1,0.1c0.9,0.1,1.7,0.2,2.5,0.3c0.8,0.1,1.6,0.2,2.4,0.3c0.8,0.1,1.6,0.2,2.4,0.3
	c0.8,0.1,1.6,0.2,2.4,0.3c0.7,0.1,1.5,0.2,2.2,0.3l0.1,0c0.8,0.1,1.6,0.2,2.3,0.3c0.7,0.1,1.3,0.2,2,0.2l0.2,0
	c0.7,0.1,1.5,0.2,2.2,0.3l0.8,0.1c0.5,0.1,0.9,0.1,1.4,0.2l0.2,0v0.2l-0.2,0L119.9,41.7"/>
<g>
	<path class="st20" d="M128.1,78.9h-5.6l0-0.2c0-3.7,0-7.4,0-11.1c0-1.5,0-3,0-4.4c0-2.2,0-4.4,0-6.6c0-1.8,0-3.7,0-5.5
		c0-1.8,0-3.7,0-5.5s0-3.7,0-5.5c0-1.8,0-3.7,0-5.5v-0.2l0.2,0c1.8,0.3,3.5,0.5,5.2,0.8l0.2,0v0.2c0,1.8,0,3.6,0,5.4
		c0,1.8,0,3.6,0,5.4s0,3.6,0,5.4c0,1.8,0,3.6,0,5.4c0,1.8,0,3.6,0,5.4c0,1.8,0,3.6,0,5.4c0,1.8,0,3.6,0,5.4c0,1.8,0,3.6,0,5.4
		L128.1,78.9 M122.8,78.5h4.8c0-1.7,0-3.5,0-5.2c0-1.8,0-3.6,0-5.4c0-1.8,0-3.6,0-5.4c0-1.8,0-3.6,0-5.4c0-1.8,0-3.6,0-5.4
		c0-1.8,0-3.6,0-5.4s0-3.6,0-5.4c0-1.8,0-3.5,0-5.3c-1.6-0.2-3.2-0.5-4.8-0.7c0,1.8,0,3.5,0,5.3c0,1.8,0,3.7,0,5.5s0,3.7,0,5.5
		s0,3.7,0,5.5c0,2.2,0,4.4,0,6.6c0,1.5,0,3,0,4.4C122.8,71.2,122.8,74.8,122.8,78.5"/>
	<path class="st20" d="M93.6,78.9h-7v-0.2c0-4,0-8,0-12.1v-0.3c0-2.1,0-4.1,0-6.2c0-2.1,0-4.1,0-6.2c0-4.1,0-8.2,0-12.4
		c0-2.1,0-4.1,0-6.2s0-4.1,0-6.2v-0.2l2.1,0.3c1.6,0.2,3.1,0.5,4.6,0.7l0.2,0v0.2c0,2,0,4,0,6.1c0,2,0,4,0,6.1c0,2,0,4,0,6.1
		s0,4,0,6.1l0,4c0,2.7,0,5.4,0,8.1v0.3c0,3.9,0,7.9,0,11.8L93.6,78.9L93.6,78.9z M87.1,78.5h6.1c0-3.9,0-7.7,0-11.6v-0.3
		c0-2.7,0-5.4,0-8.1l0-4c0-2,0-4,0-6.1c0-2,0-4,0-6.1s0-4,0-6.1c0-2,0-3.9,0-5.9c-1.5-0.2-2.9-0.4-4.4-0.7l-1.7-0.2c0,2,0,4,0,6
		c0,2.1,0,4.1,0,6.2c0,4.1,0,8.2,0,12.4c0,2.1,0,4.1,0,6.2c0,2.1,0,4.1,0,6.2v0.3C87.1,70.6,87.1,74.5,87.1,78.5"/>
	<path class="st20" d="M114.2,78.9H103v-0.2c0-2.4,0-4.8,0-7.2v-0.2l0.2,0c2.2,0,4.4,0.1,6.6,0.1c1.4,0,2.8,0.1,4.2,0.1l0.2,0
		L114.2,78.9L114.2,78.9z M103.5,78.5h10.3v-6.6c-1.3,0-2.6-0.1-4-0.1c-2.1,0-4.2-0.1-6.4-0.1C103.5,73.9,103.5,76.2,103.5,78.5"/>
</g>
<g>
	<polygon class="st21" points="35.1,6.6 76.2,13 76.2,78.8 35.1,78.8 	"/>
	<g>
		<path class="st19" d="M46.2,78.8c1.2,0,2.4,0,3.6,0c1.2,0,2.4,0,3.5,0c0-1.6,0-3.3,0-4.9c0-1.6,0-3.3,0-5c-1.2,0-2.4-0.1-3.5-0.1
			c-1.2,0-2.4-0.1-3.6-0.1c0,1.7,0,3.4,0,5C46.2,75.4,46.2,77.1,46.2,78.8"/>
		<path class="st19" d="M53.8,78.8c1.2,0,2.3,0,3.5,0c1.1,0,2.3,0,3.4,0c0-1.6,0-3.2,0-4.9c0-1.6,0-3.2,0-4.9
			c-1.1,0-2.3-0.1-3.4-0.1c-1.2,0-2.3-0.1-3.5-0.1c0,1.7,0,3.3,0,4.9C53.7,75.5,53.8,77.1,53.8,78.8"/>
		<path class="st19" d="M61.2,78.8c1.1,0,2.3,0,3.4,0c1.1,0,2.2,0,3.3,0c0-1.6,0-3.2,0-4.8s0-3.2,0-4.8c-1.1,0-2.2,0-3.3-0.1
			c-1.1,0-2.2,0-3.4-0.1c0,1.6,0,3.2,0,4.9C61.2,75.5,61.2,77.1,61.2,78.8"/>
		<polygon class="st19" points="46.6,63.1 67.4,63.7 67.4,60.6 46.6,60 		"/>
		<path class="st19" d="M46.6,55.5c6.9,0.3,13.9,0.6,20.8,0.9c0-1,0-2.1,0-3.1c-6.9-0.3-13.9-0.6-20.8-0.9
			C46.6,53.4,46.6,54.4,46.6,55.5"/>
		<path class="st19" d="M46.6,47.8c6.9,0.4,13.9,0.8,20.8,1.3c0-1,0-2.1,0-3.1c-6.9-0.4-13.9-0.8-20.8-1.3
			C46.6,45.7,46.6,46.8,46.6,47.8"/>
		<path class="st19" d="M46.6,40.2c6.9,0.5,13.9,1.1,20.8,1.6c0-1,0-2.1,0-3.1c-6.9-0.5-13.9-1.1-20.8-1.6
			C46.6,38.1,46.6,39.1,46.6,40.2"/>
		<path class="st19" d="M46.6,32.5c6.9,0.6,13.9,1.3,20.8,1.9c0-1,0-2.1,0-3.1c-6.9-0.6-13.9-1.3-20.8-1.9
			C46.6,30.4,46.6,31.5,46.6,32.5"/>
		<path class="st19" d="M46.6,24.9c6.9,0.8,13.9,1.5,20.8,2.3c0-1,0-2.1,0-3.1c-6.9-0.8-13.9-1.5-20.8-2.3
			C46.6,22.8,46.6,23.8,46.6,24.9"/>
		<polygon class="st19" points="46.6,17.2 67.4,19.8 67.4,16.7 46.6,14.1 		"/>
		<polygon class="st19" points="17.7,65 7.2,66.5 7.2,78.7 17.7,78.7 		"/>
	</g>
</g>
<g>
	<path class="st20" d="M17.9,78.9H7V66.3l10.9-1.6V78.9 M7.4,78.4h10.1V65.2L7.4,66.7L7.4,78.4"/>
	<polygon class="st19" points="17.7,65 25.2,57.3 25.2,78.7 17.7,78.7 	"/>
	<path class="st20" d="M25.4,78.9h-7.9v-14l7.9-8.1V78.9 M17.9,78.4H25V57.8l-7.1,7.3V78.4"/>
	<polygon class="st19" points="17.7,65 7.2,66.5 14.7,59.7 25.2,57.1 	"/>
	<path class="st20" d="M6.7,66.7l7.9-7.1l11-2.8l-7.9,8.3l-0.1,0L6.7,66.7 M14.8,59.9l-7.1,6.4l9.9-1.4l7.1-7.4L14.8,59.9"/>
	<path class="st20" d="M16.4,78.8H8.2v-11l8.2-0.9V78.8 M8.5,78.5h7.6V67.2l-7.6,0.9L8.5,78.5"/>
</g>
<rect x="11.7" y="67.5" class="st0" width="0.3" height="11.1"/>
<path class="st0" d="M53.5,8l-7.2-1.2V3.9l7.2,1.2V8 M46.6,6.6l6.6,1.1V5.4l-6.6-1.1V6.6"/>
<polygon class="st0" points="46.3,6.8 45.1,4.2 46.4,3.9 46.5,4.2 45.6,4.5 46.6,6.6 "/>
<path class="st0" d="M69.1,10.6l-7.2-1.2V6.5l7.2,1.2V10.6 M62.2,9.1l6.6,1.1V7.9l-6.6-1.1V9.1"/>
<polygon class="st0" points="61.9,9.3 60.7,6.8 62,6.5 62.1,6.8 61.2,7 62.2,9.2 "/>
<path class="st0" d="M89.4,28.6l-5.7-0.9v-2.3l5.7,0.9V28.6 M84.1,27.5l5,0.8v-1.6l-5-0.8V27.5"/>
<path class="st0" d="M101.6,30.5l-5.7-0.9v-2.3l5.7,0.9V30.5 M96.2,29.3l5,0.8v-1.6l-5-0.8V29.3"/>
<path class="st0" d="M114.5,32.4l-5.4-0.8v-2.2l5.4,0.8L114.5,32.4 M109.4,31.3l4.8,0.7v-1.5l-4.8-0.7V31.3"/>
<path class="st0" d="M126.1,34.2l-5.4-0.8v-2.2l5.4,0.8V34.2 M121,33.1l4.8,0.7v-1.5l-4.8-0.7V33.1"/>
<path class="st21" d="M137.4,77.4l11.4,0c1.1,0,1.3-1.5,0.3-1.8c-0.5-0.2-1.3-0.3-2.4-0.4c-0.2,0-0.4-0.1-0.5-0.2
	c-1.7-1.3-3-1.3-5.4-1.1c-0.3,0-0.5,0.3-0.8,0.5c-0.3,0.3-0.4,0.6-0.7,0.7c-0.6,0.2-1.4,0.1-1.8,0.5
	C137.4,75.7,137.2,76.5,137.4,77.4"/>
<g>
	<path class="st19" d="M139.7,78.5c0.6,0,1.2-0.5,1.2-1.2c0-0.6-0.5-1.2-1.2-1.2c-0.6,0-1.2,0.5-1.2,1.2
		C138.6,77.9,139.1,78.5,139.7,78.5"/>
</g>
<path class="st0" d="M139.7,78.6c-0.7,0-1.3-0.6-1.3-1.3c0-0.7,0.6-1.3,1.3-1.3c0.7,0,1.3,0.6,1.3,1.3C141,78,140.4,78.6,139.7,78.6
	 M139.7,76.2c-0.6,0-1.1,0.5-1.1,1.1s0.5,1.1,1.1,1.1c0.6,0,1.1-0.5,1.1-1.1S140.3,76.2,139.7,76.2"/>
<path class="st19" d="M147.9,78.5c0.6,0,1.2-0.5,1.2-1.2c0-0.6-0.5-1.2-1.2-1.2c-0.6,0-1.2,0.5-1.2,1.2
	C146.8,77.9,147.3,78.5,147.9,78.5"/>
<path class="st0" d="M147.9,78.6c-0.7,0-1.3-0.6-1.3-1.3c0-0.7,0.6-1.3,1.3-1.3s1.3,0.6,1.3,1.3C149.2,78,148.6,78.6,147.9,78.6
	 M147.9,76.2c-0.6,0-1.1,0.5-1.1,1.1s0.5,1.1,1.1,1.1s1.1-0.5,1.1-1.1S148.5,76.2,147.9,76.2"/>
<path class="st0" d="M139.7,78c-0.4,0-0.6-0.3-0.6-0.6s0.3-0.6,0.6-0.6s0.6,0.3,0.6,0.6S140.1,78,139.7,78 M139.7,76.9
	c-0.2,0-0.4,0.2-0.4,0.4s0.2,0.4,0.4,0.4s0.4-0.2,0.4-0.4S140,76.9,139.7,76.9"/>
<circle class="st19" cx="147.9" cy="77.3" r="0.5"/>
<path class="st0" d="M147.9,78c-0.4,0-0.6-0.3-0.6-0.6s0.3-0.6,0.6-0.6s0.6,0.3,0.6,0.6S148.3,78,147.9,78 M147.9,76.9
	c-0.2,0-0.4,0.2-0.4,0.4s0.2,0.4,0.4,0.4s0.4-0.2,0.4-0.4S148.2,76.9,147.9,76.9"/>
<path class="st21" d="M76.6,27.2c2.3,0.3,4.6,0.7,6.9,1c1.1,0.2,2.2,0.3,3.4,0.5c0.7,0.1,1.3,0.2,2,0.3c1.5,0.2,3.1,0.5,4.6,0.7
	c0,0,0,0,0,0c1.1,0.2,2.1,0.3,3.2,0.5c2.1,0.3,4.2,0.6,6.2,0.9c2,0.3,4,0.6,5.9,0.9c1.9,0.3,3.8,0.6,5.7,0.8
	c1.9,0.3,3.7,0.5,5.5,0.8c1.1,0.2,2.1,0.3,3.2,0.5c1.3,0.2,2.5,0.4,3.8,0.6c1.2,0.2,2.3,0.3,3.5,0.5c1.7,0.3,3.3,0.5,5,0.7v0
	l-2.6-3.9l-56.1-9L76.6,27.2 M83.9,27.1L83,25.3l0.9-0.2l5.4,0.8v1.9L83.9,27.1 M96.1,29l-0.9-1.8l0.9-0.2l5.4,0.8v1.9L96.1,29
	 M109.2,31l-0.8-1.7l0.8-0.2l5.1,0.8v1.8L109.2,31 M120,31.1l0.8-0.2l5.1,0.8v1.8l-5.1-0.8L120,31.1"/>
<path class="st20" d="M135.3,35.8L135.3,35.8c-0.8-0.1-1.5-0.2-2.2-0.3c-0.9-0.1-1.8-0.3-2.8-0.4c-1.1-0.2-2.3-0.3-3.5-0.5
	c-1.4-0.2-2.6-0.4-3.8-0.6l-1-0.2c-0.7-0.1-1.4-0.2-2.1-0.3c-1.6-0.2-3.6-0.5-5.5-0.8c-1.1-0.2-2.3-0.3-3.4-0.5
	c-0.8-0.1-1.5-0.2-2.3-0.3l-1.3-0.2c-1.5-0.2-3.1-0.4-4.6-0.7c-1.6-0.2-3.3-0.5-5-0.7l-1.2-0.2c-0.8-0.1-1.6-0.2-2.4-0.4l-0.8-0.1v0
	c-1.5-0.2-3.1-0.5-4.6-0.7c-0.6-0.1-1.3-0.2-2-0.3c-0.7-0.1-1.4-0.2-2.1-0.3l-1.2-0.2c-0.9-0.1-1.9-0.3-2.8-0.4
	c-1.3-0.2-2.7-0.4-4.1-0.6l0,0v-4.3l0,0l56.1,9l0,0L135.3,35.8L135.3,35.8 M93.4,29.6l0.7,0.1c0.8,0.1,1.6,0.2,2.4,0.4l1.2,0.2
	c1.7,0.3,3.3,0.5,5,0.7c1.6,0.2,3.1,0.5,4.6,0.7l1.3,0.2c0.8,0.1,1.5,0.2,2.3,0.3c1.1,0.2,2.3,0.3,3.4,0.5c1.9,0.3,3.9,0.6,5.5,0.8
	c0.7,0.1,1.4,0.2,2.1,0.3l1,0.2c1.2,0.2,2.4,0.4,3.8,0.6c1.2,0.2,2.3,0.3,3.5,0.5c0.9,0.1,1.9,0.3,2.8,0.4c0.7,0.1,1.5,0.2,2.2,0.3
	l-2.6-3.8l-56.1-9v4.2c1.4,0.2,2.7,0.4,4.1,0.6c1,0.1,1.9,0.3,2.8,0.4l1.2,0.2c0.7,0.1,1.4,0.2,2.1,0.3c0.7,0.1,1.3,0.2,2,0.3
	C90.3,29.2,91.9,29.4,93.4,29.6L93.4,29.6L93.4,29.6 M125.9,33.6L125.9,33.6l-5.1-0.8l0,0l-0.8-1.7l0.8-0.2l0,0l5.1,0.8L125.9,33.6
	L125.9,33.6z M120.8,32.7l5.1,0.8v-1.8l-5.1-0.8l-0.8,0.2L120.8,32.7 M114.3,31.8L114.3,31.8l-5.1-0.8l0,0l-0.8-1.7l0.8-0.2h0
	l5.1,0.8L114.3,31.8 M109.2,30.9l5.1,0.8v-1.8l-5.1-0.8l-0.8,0.2L109.2,30.9 M101.4,29.8L101.4,29.8L96,29l0,0l-0.9-1.8l0.9-0.2h0
	l5.4,0.8L101.4,29.8 M96.1,29l5.3,0.8v-1.9L96.1,27l-0.8,0.2L96.1,29 M89.3,27.9L89.3,27.9l-5.4-0.8l0,0L83,25.3l0.9-0.2h0l5.4,0.8
	L89.3,27.9 M83.9,27.1l5.3,0.8V26l-5.3-0.8l-0.8,0.2L83.9,27.1"/>
<g>
	<path class="st21" d="M35.2,6.1l41,6.5l-2.6-5.9L37.9,0.1L35.2,6.1 M46.4,6.2l-1.1-2.4l1.1-0.2l6.9,1.1v2.6L46.4,6.2 M62.1,8.7
		L61,6.4l1.1-0.2L69,7.2v2.6L62.1,8.7"/>
	<path class="st21" d="M13.6,22.2C13.6,22.2,13.6,22.2,13.6,22.2 M29.9,10c-0.1,0.1-0.2,0.1-0.2,0.2c-0.3,0.3-0.7,0.5-1,0.8
		c-0.1,0.1-0.3,0.2-0.4,0.3c-1,0.8-2.1,1.6-3.1,2.3l-2.9,2.2c-0.9,0.7-1.8,1.4-2.7,2c-0.9,0.6-1.7,1.3-2.5,1.9
		c-0.8,0.6-1.6,1.2-2.4,1.8c-0.4,0.3-0.8,0.6-1.1,0.8c0,0,0,0,0,0c-0.4,0.3-0.7,0.5-1.1,0.8c-0.4,0.3-0.7,0.5-1.1,0.8
		c-0.4,0.3-0.7,0.5-1,0.8l-2,1.5v0l3.7-5.5L37.9,0.1l-2.8,6v0l-3.6,2.7C31,9.2,30.4,9.6,29.9,10"/>
</g>
<path class="st20" d="M8.4,26.2L8.4,26.2L8.4,26.2l3.7-5.6L37.9,0l0,0.1l-2.8,6v0l0,0l-3.6,2.7c-0.5,0.3-0.9,0.7-1.4,1l-0.6,0.4
	c-0.3,0.3-0.7,0.5-1,0.8l0,0c-0.1,0.1-0.2,0.2-0.4,0.3c-0.6,0.4-1.1,0.8-1.6,1.2c-0.5,0.4-1,0.7-1.4,1.1l-2.9,2.2
	c-0.5,0.4-1,0.8-1.5,1.2c-0.4,0.3-0.8,0.6-1.2,0.9c-0.4,0.3-0.8,0.6-1.2,0.9c-0.5,0.3-0.9,0.7-1.4,1c-0.5,0.4-1,0.8-1.5,1.2
	c-0.3,0.2-0.6,0.4-0.8,0.6l-1.1,0.8c-0.4,0.3-0.7,0.5-1.1,0.8c-0.4,0.3-0.7,0.5-1.1,0.8l0,0c-0.4,0.3-0.7,0.5-1,0.8L8.4,26.2
	 M12.1,20.6L8.4,26l1.9-1.4c0.3-0.3,0.7-0.5,1-0.8l0,0c0.3-0.3,0.7-0.5,1.1-0.8c0.4-0.3,0.7-0.5,1.1-0.8v0l0,0l1.1-0.8
	c0.3-0.2,0.5-0.4,0.8-0.6c0.5-0.4,1-0.8,1.5-1.2c0.4-0.3,0.9-0.7,1.4-1c0.4-0.3,0.8-0.6,1.2-0.9c0.4-0.3,0.8-0.6,1.2-0.9
	c0.5-0.4,1-0.8,1.5-1.1l2.9-2.2c0.5-0.4,1-0.7,1.4-1.1c0.5-0.4,1.1-0.8,1.6-1.2c0.1-0.1,0.2-0.2,0.4-0.3l0,0c0.3-0.3,0.7-0.5,1-0.8
	l0.6-0.4c0.4-0.3,0.9-0.7,1.4-1l3.6-2.7v0l2.7-5.9L12.1,20.6"/>
<path class="st21" d="M31.6,9.3c0,3.9,0,7.7,0,11.6l0.3-0.2l0.4-0.2l0.3-0.2L33,20l0.4-0.2l0.4-0.2l0.4-0.2l0.4-0.2
	c0.1-0.1,0.2-0.2,0.4-0.2c0.1-0.1,0.2-0.2,0.4-0.2v-12L31.6,9.3"/>
<path class="st20" d="M31.6,20.9L31.6,20.9c0-3.9,0-7.8,0-11.6v0l0,0l3.6-2.7v12l0,0c-0.1,0-0.1,0.1-0.2,0.1c-0.1,0-0.1,0.1-0.2,0.1
	c-0.1,0-0.1,0.1-0.2,0.1c0,0-0.1,0.1-0.1,0.1L31.6,20.9 M31.6,9.3c0,3.8,0,7.7,0,11.5l2.8-1.8c0,0,0.1-0.1,0.1-0.1
	c0.1,0,0.1-0.1,0.2-0.1c0,0,0.1-0.1,0.2-0.1c0.1,0,0.1-0.1,0.2-0.1v-12L31.6,9.3"/>
<path class="st21" d="M32.6,20.2l-0.3,0.2l-0.4,0.2l-0.3,0.2v11.6l0.3-0.2l0.3-0.2l0.4-0.2l0.4-0.2l0.4-0.2l0.4-0.2l0.4-0.2l0.4-0.2
	l0.4-0.2l0.4-0.2v-12c-0.1,0.1-0.2,0.2-0.4,0.2c-0.1,0.1-0.2,0.2-0.4,0.2L34,19.3l-0.4,0.2l-0.4,0.2L33,20L32.6,20.2"/>
<path class="st20" d="M31.6,32.4V20.8l2.8-1.8c0,0,0.1-0.1,0.1-0.1c0.1,0,0.1-0.1,0.2-0.1c0,0,0.1-0.1,0.2-0.1
	c0.1,0,0.1-0.1,0.2-0.1l0,0v12L31.6,32.4 M31.6,20.8v11.5l3.5-1.8v-12c-0.1,0-0.1,0.1-0.2,0.1c-0.1,0-0.1,0.1-0.2,0.1
	c-0.1,0-0.1,0.1-0.2,0.1c0,0-0.1,0.1-0.1,0.1L31.6,20.8"/>
<path class="st21" d="M33,31.7l-0.4,0.2l-0.4,0.2l-0.3,0.2l-0.3,0.2c0,3.9,0,7.7,0,11.6l0.3-0.1l0.3-0.1l0.3-0.1l0.4-0.1l0.4-0.1
	l0.4-0.1L34,43l0.4-0.1l0.4-0.1l0.4-0.1v-12l-0.4,0.2L34.4,31L34,31.2l-0.4,0.2l-0.4,0.2L33,31.7"/>
<path class="st20" d="M31.6,44L31.6,44c0-3.9,0-7.8,0-11.6v0l3.6-1.8v12l-1.1,0.4L31.6,44 M31.6,32.4c0,3.8,0,7.7,0,11.5l3.5-1.3
	v-12L31.6,32.4"/>
<polygon class="st21" points="33.3,43.3 33,43.4 32.6,43.6 32.3,43.7 31.9,43.8 31.6,44 31.6,55.5 31.9,55.4 32.3,55.4 32.6,55.3 
	33,55.2 33.3,55.1 33.7,55 34,54.9 34.4,54.8 34.8,54.7 35.1,54.6 35.1,42.6 34.8,42.8 34.4,42.9 34,43 33.7,43.2 "/>
<path class="st20" d="M31.6,55.6V44l2.1-0.8L34,43l1.1-0.4v12l0,0L31.6,55.6 M31.6,44v11.5l3.5-0.9v-12L31.6,44"/>
<path class="st21" d="M33.3,55.1L33,55.2l-0.4,0.1l-0.3,0.1l-0.3,0.1l-0.3,0.1c0,3.9,0,7.7,0,11.6l0.3,0l0.4,0l0.3,0l0.4,0l0.4,0
	l0.4,0l0.4,0l0.4,0l0.4,0l0.4,0v-12l-0.4,0.1l-0.4,0.1L34,54.9L33.7,55L33.3,55.1"/>
<path class="st20" d="M31.6,67.1L31.6,67.1c0-3.9,0-7.8,0-11.6v0l3.6-0.9v12L31.6,67.1 M31.6,55.5c0,3.8,0,7.7,0,11.5l3.5-0.4v-12
	L31.6,55.5"/>
<polygon class="st21" points="33.7,66.8 33.3,66.9 33,66.9 32.6,67 32.3,67 31.9,67.1 31.6,67.1 31.6,78.7 35.1,78.7 35.1,66.6 
	34.8,66.7 34.4,66.7 34,66.8 "/>
<path class="st20" d="M31.6,78.7V67.1l3.6-0.4v12L31.6,78.7 M31.6,67.1v11.5l3.5,0v-12L31.6,67.1"/>
<polygon class="st21" points="25.2,57.1 25.2,46.4 25.2,46.4 24,46.8 22.9,47.2 22.3,47.4 22.3,57.8 22.9,57.7 24,57.4 25.2,57.1 
	"/>
<path class="st20" d="M22.3,57.9V47.4l0,0l2.9-1.1l0,0v10.8l0,0L22.3,57.9 M22.3,47.4v10.4l2.9-0.7V46.4L22.3,47.4"/>
<path class="st21" d="M24,46.8l1.2-0.4h0V35.6l0,0L24,36.2l-1.1,0.6L22.3,37v0c0,3.5,0,6.9,0,10.4l0.6-0.2L24,46.8"/>
<path class="st20" d="M22.3,47.5L22.3,47.5c0-1.8,0-3.5,0-5.2c0-1.7,0-3.5,0-5.2v0l0,0l2.9-1.4l0,0v10.8l0,0L22.3,47.5 M22.3,37.1
	c0,1.7,0,3.5,0,5.2c0,1.7,0,3.5,0,5.2l2.9-1.1V35.6L22.3,37.1"/>
<path class="st21" d="M24,36.2l1.2-0.6l0,0V24.8l0,0c-0.4,0.3-0.8,0.5-1.2,0.7l-1.1,0.7l-0.6,0.3V37l0.6-0.3L24,36.2"/>
<path class="st20" d="M22.3,37.1V26.6l1.7-1.1c0.4-0.2,0.8-0.5,1.1-0.7l0,0l0,0v10.8l0,0L22.3,37.1 M22.3,26.6V37l2.9-1.4V24.9
	c-0.4,0.2-0.8,0.5-1.1,0.7L22.3,26.6"/>
<path class="st21" d="M22.9,26.3l1.1-0.7c0.4-0.2,0.8-0.5,1.2-0.7l0,0V14.1l-2.9,2.2v10.4L22.9,26.3"/>
<path class="st20" d="M22.3,26.7V16.2l0,0l2.9-2.2v10.8l0,0c-0.4,0.2-0.8,0.5-1.2,0.7L22.3,26.7 M22.3,16.2v10.4l1.7-1.1
	c0.4-0.2,0.8-0.5,1.1-0.7V14.1L22.3,16.2"/>
<path class="st21" d="M17.1,29.9c0-3.3,0-6.5,0-9.8c-0.8,0.6-1.6,1.2-2.4,1.8v9.5c0.3-0.2,0.6-0.4,0.9-0.6l1-0.6
	C16.7,30.1,16.9,30,17.1,29.9"/>
<path class="st20" d="M14.7,31.4v-9.5l0,0c0.3-0.2,0.5-0.4,0.8-0.6c0.5-0.4,1-0.8,1.6-1.2l0,0v0c0,3.2,0,6.5,0,9.8v0l0,0l-0.1,0
	c-0.1,0.1-0.3,0.2-0.4,0.3l-1.1,0.7C15.2,31,15,31.2,14.7,31.4L14.7,31.4 M14.7,21.9v9.4c0.3-0.2,0.5-0.3,0.8-0.5l1.1-0.7
	c0.1-0.1,0.3-0.2,0.4-0.3l0.1,0c0-3.2,0-6.5,0-9.7c-0.5,0.4-1,0.8-1.5,1.1C15.3,21.5,15,21.7,14.7,21.9"/>
<path class="st21" d="M17.1,29.9c-0.2,0.1-0.3,0.2-0.5,0.3l-1,0.6c-0.3,0.2-0.6,0.4-0.9,0.6v0c0,3.2,0,6.3,0,9.5h0l0.9-0.5l1-0.5
	l0.5-0.2L17.1,29.9"/>
<path class="st20" d="M14.7,40.8L14.7,40.8c0-3.1,0-6.3,0-9.5v0l0,0c0.3-0.2,0.5-0.3,0.8-0.5l1.1-0.7c0.1-0.1,0.3-0.2,0.4-0.3
	l0.1-0.1v9.8L14.7,40.8L14.7,40.8 M14.7,31.4c0,3.1,0,6.3,0,9.4l2.3-1.2v-9.7l0,0c-0.1,0.1-0.3,0.2-0.4,0.3l-1.1,0.7
	C15.2,31,15,31.2,14.7,31.4"/>
<path class="st21" d="M16.6,39.9l-1,0.5l-0.9,0.5h0c0,3.2,0,6.3,0,9.5h0l0.9-0.3l1-0.4l0.5-0.2c0-3.2,0-6.5,0-9.7L16.6,39.9"/>
<path class="st20" d="M14.7,50.3L14.7,50.3c0-3.2,0-6.4,0-9.5v0l0,0l2.4-1.2v0c0,1.6,0,3.3,0,4.9s0,3.2,0,4.9v0l0,0L14.7,50.3
	 M14.7,40.8c0,3.1,0,6.3,0,9.4l2.3-0.9c0-1.6,0-3.2,0-4.9c0-1.6,0-3.2,0-4.9L14.7,40.8"/>
<polygon class="st21" points="16.6,49.6 15.6,49.9 14.7,50.3 14.7,50.3 14.7,59.7 15.1,59.6 15.1,59.6 17.1,59.1 17.1,49.4 "/>
<path class="st20" d="M14.7,59.8v-9.5l0,0l2.4-0.9v9.8l0,0L14.7,59.8 M14.7,50.3v9.4l0.4-0.1l2-0.5v-9.7L14.7,50.3"/>
<path class="st21" d="M10.4,60.8c0-3,0-5.9,0-8.9L10.2,52L10,52l-0.2,0.1l-0.2,0.1l-0.2,0.1l-0.2,0.1l-0.2,0.1l-0.2,0.1l-0.2,0.1
	l-0.2,0.1v8.7l0.2,0l0.2,0l0.2,0l0.2,0l0.2-0.1l0.2,0L9.7,61l0.2,0l0.2-0.1L10.4,60.8"/>
<path class="st20" d="M8.4,61.3v-8.7l2-0.8v0c0,1.5,0,3,0,4.5c0,1.5,0,3,0,4.5v0L8.4,61.3 M8.4,52.7v8.6l2-0.5c0-1.5,0-3,0-4.4
	c0-1.5,0-3,0-4.4L8.4,52.7"/>
<polygon class="st21" points="9.7,61 9.5,61 9.3,61.1 9.1,61.1 8.9,61.2 8.8,61.2 8.6,61.3 8.4,61.3 8.4,65.4 10.4,63.6 10.4,60.8 
	10.2,60.9 9.9,60.9 "/>
<path class="st20" d="M8.4,65.5v-4.1l2-0.5v2.8l0,0L8.4,65.5 M8.4,61.3v4l2-1.8v-2.8L8.4,61.3"/>
<path class="st21" d="M9.1,52.4l0.2-0.1l0.2-0.1l0.2-0.1l0.2-0.1l0.2-0.1l0.2-0.1V43l-0.2,0.1L10,43.2l-0.2,0.1l-0.2,0.1l-0.2,0.1
	l-0.2,0.1c-0.1,0-0.1,0.1-0.2,0.1l-0.2,0.1l-0.2,0.1L8.4,44v8.7l0.2-0.1l0.2-0.1l0.2-0.1L9.1,52.4"/>
<path class="st20" d="M8.4,52.7V44l0,0L9,43.7c0.1,0,0.1-0.1,0.2-0.1l1.2-0.6v8.9L9,52.4L8.4,52.7 M8.4,44v8.6l2-0.7V43l-1.2,0.6
	c-0.1,0-0.1,0.1-0.2,0.1L8.4,44"/>
<path class="st21" d="M9.3,43.5l0.2-0.1l0.2-0.1l0.2-0.1l0.2-0.1l0.2-0.1c0-3,0-5.9,0-8.9l-0.2,0.1L10,34.3l-0.2,0.1l-0.2,0.1
	l-0.2,0.1l-0.2,0.1L9,34.9l-0.2,0.1l-0.2,0.1l-0.2,0.1V44l0.2-0.1l0.2-0.1L9,43.7c0.1,0,0.1-0.1,0.2-0.1L9.3,43.5"/>
<path class="st20" d="M8.4,44v-8.7l1.4-0.9l0.6-0.4v0c0,1.5,0,3,0,4.5c0,1.5,0,3,0,4.5v0l-1.2,0.6c-0.1,0-0.1,0.1-0.2,0.1L8.4,44
	 M8.4,35.3v8.6L9,43.7c0.1,0,0.1-0.1,0.2-0.1l1.2-0.6c0-1.5,0-3,0-4.4c0-1.5,0-3,0-4.4l-1.8,1.1L8.4,35.3"/>
<polygon class="st21" points="9.1,34.8 9.3,34.7 9.5,34.6 9.8,34.4 10,34.3 10.2,34.2 10.4,34.1 10.4,25.1 8.4,26.6 8.4,35.3 
	8.4,35.3 8.6,35.2 8.8,35.1 9,34.9 "/>
<path class="st20" d="M8.4,35.3v-8.7l2-1.5v9l-1.8,1.1L8.4,35.3 M8.4,26.6v8.6l1.4-0.8l0.6-0.4v-8.9L8.4,26.6"/>
<polygon class="st21" points="19.6,63 17.7,65 17.7,68.8 17.7,69.6 17.7,78.7 18.7,78.7 19.6,78.7 20.4,78.7 22.1,78.7 22.3,78.7 
	25.2,78.7 25.2,67.9 25.2,57.3 22.3,60.2 "/>
<path class="st20" d="M17.6,78.7V65l0,0l7.5-7.7v21.4L17.6,78.7 M17.7,65v13.7l7.5,0V57.3L17.7,65"/>
<path class="st21" d="M15.1,59.6L15.1,59.6l-0.4,0.1L15.1,59.6 M17.7,65L17.1,65l-2.4,0.3l-1.1,0.2l-2.2,0.3l-1,0.2l-2,0.3l-1.2,0.2
	l1.2-1.1l2-1.8l1-0.9l2.2-1.9l1.1-1l0.4-0.1l0,0l0.5-0.1l1-0.2l0.5-0.1l0.5-0.1l1-0.3l1-0.3c0.1,0,0.1,0,0.2,0l2.5-0.6l2.9-0.7
	l-2.9,3l-2.7,2.8L17.7,65"/>
<path class="st20" d="M7.1,66.5l7.6-6.8l0,0l0,0l4.9-1.2c0.1,0,0.1,0,0.2,0l5.5-1.4L17.7,65l-0.6,0.1L7.1,66.5 M14.7,59.8l-7.5,6.7
	l10.4-1.5l7.5-7.8l-5.3,1.3c-0.1,0-0.1,0-0.2,0L14.7,59.8"/>
<polygon class="st21" points="13.6,65.6 11.4,65.9 10.4,66 8.4,66.3 7.2,66.5 7.2,78.7 8.4,78.7 8.4,70 8.4,67.9 8.4,67.9 
	10.4,67.7 11.4,67.6 11.9,67.5 13.6,67.3 14.7,67.2 16.3,67 16.3,69 16.3,78.7 17.1,78.7 17.2,78.7 17.7,78.7 17.7,69.6 17.7,68.8 
	17.7,65 17.1,65 14.7,65.4 "/>
<path class="st20" d="M17.7,78.7h-1.4V67l-7.9,0.9v10.7H7.2V66.5l0,0l10.5-1.5L17.7,78.7 M7.2,78.6h1.2V67.9l0,0l7.9-0.9v11.6l1,0
	l0.4,0V65L7.2,66.5L7.2,78.6"/>
<g>
	<polygon class="st21" points="35.1,78.8 0,78.8 0,80.3 152.4,80.3 152.4,78.8 76.2,78.8 67.9,78.8 64.6,78.8 61.2,78.8 60.7,78.8 
		57.2,78.8 53.8,78.8 53.3,78.8 49.8,78.8 46.2,78.8 	"/>
	<path class="st21" d="M83.5,70.3c0,2.8,0,5.5,0,8.3h3.4c0-4.1,0-8.2,0-12.4c0-4.1,0-8.2,0-12.4c0-4.1,0-8.2,0-12.4s0-8.2,0-12.4
		c-1.1-0.2-2.2-0.3-3.4-0.5c0,2.8,0,5.6,0,8.3v8.3c0,2.8,0,5.5,0,8.3V62C83.5,64.8,83.5,67.6,83.5,70.3"/>
</g>
<path class="st20" d="M86.9,78.7h-3.4v0c0-2.7,0-5.5,0-8.3c0-2.8,0-5.6,0-8.3v-8.4c0-2.7,0-5.5,0-8.3V37c0-2.8,0-5.6,0-8.3v0
	l1.4,0.2c0.7,0.1,1.3,0.2,1.9,0.3l0,0v0c0,2.1,0,4.2,0,6.2c0,2,0,4.1,0,6.2c0,4.2,0,8.5,0,12.4c0,2.1,0,4.1,0,6.2c0,2.1,0,4.1,0,6.2
	v0.3C86.9,70.5,86.9,74.6,86.9,78.7L86.9,78.7 M83.5,78.6h3.3c0-4,0-8.1,0-12.1v-0.3c0-2.1,0-4.1,0-6.2c0-2.1,0-4.1,0-6.2
	c0-3.8,0-8.1,0-12.4c0-2.1,0-4.2,0-6.2s0-4.1,0-6.2c-0.6-0.1-1.3-0.2-1.9-0.3l-1.4-0.2c0,2.7,0,5.5,0,8.3v8.3c0,2.8,0,5.6,0,8.3v0
	V62c0,2.7,0,5.6,0,8.3C83.5,73.1,83.5,75.9,83.5,78.6"/>
<path class="st21" d="M93.4,66.5c0,4,0,8.1,0,12.1h3.2v-8v-8v-8c0-2.7,0-5.3,0-8v-8v-8c-1-0.2-2.1-0.3-3.2-0.5c0,4,0,8.1,0,12.1
	s0,8.1,0,12.1C93.4,58.5,93.4,62.5,93.4,66.5"/>
<path class="st20" d="M96.6,78.7h-3.2v0c0-4,0-8,0-11.9v-0.2c0-2.7,0-5.4,0-8.1c0-1.3,0-2.7,0-4c0-2,0-4.1,0-6.1c0-2,0-4,0-6.1
	s0-4,0-6.1c0-2,0-4,0-6.1v0l0.4,0.1c0.9,0.1,1.9,0.3,2.8,0.4l0,0v16c0,2.6,0,5.3,0,8L96.6,78.7L96.6,78.7z M93.4,78.6h3.1v-24
	c0-2.7,0-5.4,0-8v-16c-0.9-0.1-1.9-0.3-2.8-0.4l-0.3,0c0,2,0,4,0,6c0,2,0,4,0,6.1s0,4.1,0,6.1c0,2,0,4,0,6.1c0,1.4,0,2.7,0,4
	c0,2.7,0,5.4,0,8.1v0.2C93.4,70.7,93.4,74.7,93.4,78.6"/>
<g>
	<path class="st21" d="M96.6,70.7v8h6.2v-7.9v0c-0.4,0-0.8,0-1.2,0c-0.8,0-1.6,0-2.5-0.1C98.3,70.7,97.4,70.7,96.6,70.7L96.6,70.7
		L96.6,70.7z"/>
	<path class="st21" d="M103.2,71.5c0,2.4,0,4.8,0,7.2h3.6v-7.1C105.7,71.5,104.5,71.5,103.2,71.5"/>
</g>
<path class="st20" d="M106.9,78.7h-3.7v0c0-2.4,0-4.8,0-7.2v0l0,0c1.1,0,2.2,0,3.6,0.1h0L106.9,78.7L106.9,78.7z M103.3,78.6h3.6
	v-7.1c-1.4,0-2.5-0.1-3.6-0.1C103.3,73.8,103.3,76.3,103.3,78.6"/>
<path class="st21" d="M106.9,71.5v7.1h1.8h2h3.3v-7C111.7,71.6,109.3,71.6,106.9,71.5"/>
<path class="st20" d="M114,78.7h-7.2v-7.2h0c1,0,2,0,3,0.1c1.4,0,2.8,0.1,4.2,0.1h0L114,78.7 M106.9,78.6h7.1v-6.9
	c-1.4,0-2.8-0.1-4.2-0.1c-1,0-2,0-3-0.1L106.9,78.6L106.9,78.6z"/>
<g>
	<path class="st21" d="M114.4,71.1v7.6h5.5c0-2.5,0-5,0-7.4h0c-0.7,0-1.5,0-2.2-0.1c-0.7,0-1.5,0-2.2-0.1
		C115.1,71.1,114.8,71.1,114.4,71.1"/>
	<path class="st21" d="M119.9,71.2c0,2.5,0,5,0,7.4h2.7c0-3.7,0-7.4,0-11.1c0-3.7,0-7.4,0-11.1c0-3.7,0-7.4,0-11c0-3.7,0-7.4,0-11.1
		c0.2,0,0.3,0,0.5,0.1c-1.1-0.2-2.1-0.3-3.2-0.5c0,2.5,0,5,0,7.4v0c0,2.5,0,5,0,7.4c0,2.5,0,5,0,7.4c0,2.5,0,5,0,7.4
		C119.9,66.3,119.9,68.8,119.9,71.2"/>
</g>
<path class="st20" d="M122.6,78.7h-2.7v0c0-2.5,0-5,0-7.4c0-2.4,0-5,0-7.4c0-1.2,0-2.5,0-3.7c0-1.2,0-2.5,0-3.7c0-2.5,0-5,0-7.4
	c0-2.4,0-5,0-7.4v0c0-2.5,0-5,0-7.4v0l0,0c0.7,0.1,1.4,0.2,2.1,0.3l1.1,0.2l0,0l-0.5-0.1c0,1.8,0,3.7,0,5.5c0,1.8,0,3.7,0,5.5
	s0,3.7,0,5.5s0,3.7,0,5.5c0,2.2,0,4.5,0,6.6c0,1.5,0,3,0,4.4C122.6,71.4,122.6,75,122.6,78.7L122.6,78.7 M120,78.7h2.6
	c0-3.6,0-7.3,0-11c0-1.5,0-3,0-4.4c0-2.2,0-4.4,0-6.6c0-1.8,0-3.7,0-5.5c0-1.8,0-3.7,0-5.5s0-3.7,0-5.5c0-1.8,0-3.7,0-5.5l-0.6-0.1
	c-0.7-0.1-1.4-0.2-2.1-0.3c0,2.4,0,4.9,0,7.4v0c0,2.5,0,5,0,7.4c0,2.4,0,5,0,7.4c0,1.2,0,2.5,0,3.7c0,1.2,0,2.5,0,3.7
	c0,2.5,0,5,0,7.4C119.9,73.7,119.9,76.2,120,78.7"/>
<path class="st21" d="M127.8,67.8c0,3.6,0,7.2,0,10.9h2.6c0-2.4,0-4.8,0-7.2s0-4.8,0-7.2c0-2.4,0-4.8,0-7.2v-7.2c0-2.4,0-4.8,0-7.2
	v-7.2c-1.1-0.2-2.3-0.3-3.5-0.5c0,0,0,0,0,0c0.3,0,0.6,0.1,0.9,0.1c0,3.6,0,7.3,0,10.9s0,7.2,0,10.9
	C127.8,60.6,127.8,64.2,127.8,67.8"/>
<g>
	<path class="st20" d="M130.4,78.7h-2.6v0c0-1.8,0-3.6,0-5.4c0-1.8,0-3.6,0-5.4c0-1.8,0-3.7,0-5.4c0-1.8,0-3.6,0-5.4
		c0-1.8,0-3.6,0-5.4c0-1.8,0-3.6,0-5.4s0-3.7,0-5.4c0-1.8,0-3.6,0-5.4l-0.9-0.1l0,0c1.2,0.2,2.3,0.3,3.5,0.5l0,0v7.3
		c0,2.3,0,4.7,0,7.1v7.2c0,1.2,0,2.4,0,3.6c0,1.2,0,2.4,0,3.6c0,2.4,0,4.8,0,7.2c0,1.2,0,2.4,0,3.6
		C130.4,76.3,130.4,77.5,130.4,78.7L130.4,78.7 M127.9,78.6h2.5c0-1.2,0-2.4,0-3.6c0-1.2,0-2.4,0-3.6c0-2.4,0-4.8,0-7.2
		c0-1.2,0-2.4,0-3.6c0-1.2,0-2.4,0-3.6v-7.2c0-2.4,0-4.8,0-7.1l0-0.1v-7.2c-0.8-0.1-1.7-0.2-2.5-0.4c0,1.8,0,3.6,0,5.4
		c0,1.8,0,3.6,0,5.4s0,3.6,0,5.4c0,1.8,0,3.6,0,5.4c0,1.8,0,3.7,0,5.4c0,1.8,0,3.6,0,5.4c0,1.8,0,3.6,0,5.4
		C127.9,75,127.9,76.8,127.9,78.6"/>
	<rect x="106.7" y="71.5" class="st20" width="0.4" height="7.1"/>
	<path class="st20" d="M110.5,78.7c0-2.3,0-4.7,0-7.1h0.4c0,2.4,0,4.7,0,7.1H110.5"/>
	<path class="st20" d="M83.7,78.7h-0.4c0-2.8,0-5.5,0-8.3c0-2.8,0-5.6,0-8.3v-8.4c0-2.8,0-5.5,0-8.3V37c0-2.8,0-5.6,0-8.3v0h0.4v0
		c0,2.8,0,5.6,0,8.3v8.3c0,2.8,0,5.5,0,8.3v0V62c0,2.7,0,5.6,0,8.3C83.7,73.1,83.7,75.9,83.7,78.7"/>
	<rect x="76.4" y="27.6" class="st20" width="0.4" height="51"/>
	<path class="st20" d="M83.5,70.6l-0.7,0c-0.2,0-0.4,0-0.6,0l-0.7,0c-0.2,0-0.4,0-0.7,0l-2.1,0c-0.2,0-0.5,0-0.7,0
		c-0.2,0-0.5,0-0.7,0l-0.7,0l0-0.4l0.7,0c0.2,0,0.5,0,0.7,0c0.2,0,0.5,0,0.7,0l2.1,0c0.2,0,0.5,0,0.7,0l0.7,0c0.2,0,0.4,0,0.6,0
		l0.7,0L83.5,70.6"/>
	<path class="st20" d="M83.5,62.2l-0.2,0c-0.2,0-0.3,0-0.5,0c-0.2,0-0.5,0-0.7,0l-0.7,0c-0.2,0-0.4,0-0.7,0c-0.2,0-0.5,0-0.7,0
		l-0.9,0c-0.2,0-0.3,0-0.5,0c-0.2,0-0.5,0-0.7,0l-0.1,0c-0.2,0-0.4,0-0.6,0l-0.7,0l0-0.4l0.7,0c0.2,0,0.4,0,0.6,0l0.1,0
		c0.2,0,0.5,0,0.7,0c0.2,0,0.3,0,0.5,0l0.9,0c0.2,0,0.5,0,0.7,0c0.2,0,0.5,0,0.7,0l0.7,0c0.2,0,0.5,0,0.7,0c0.2,0,0.3,0,0.5,0l0.2,0
		L83.5,62.2"/>
	<path class="st20" d="M83.5,53.9l-0.1,0c-0.2,0-0.4,0-0.6,0c-0.2,0-0.5,0-0.7-0.1c-0.2,0-0.5,0-0.7,0l-0.2,0c-0.2,0-0.4,0-0.5,0
		c-0.2,0-0.3,0-0.5,0l-0.2,0c-0.1,0-0.2,0-0.4,0c-0.1,0-0.2,0-0.3,0l-0.2,0c-0.1,0-0.3,0-0.5,0c-0.2,0-0.4,0-0.6,0l-0.1,0
		c-0.2,0-0.4,0-0.7,0h0c-0.2,0-0.4,0-0.6,0l-0.1,0l0-0.4l0.1,0c0.2,0,0.4,0,0.6,0l0,0c0.2,0,0.4,0,0.7,0l0.1,0c0.2,0,0.4,0,0.6,0
		c0.1,0,0.3,0,0.4,0l0.2,0c0.1,0,0.2,0,0.3,0c0.1,0,0.2,0,0.4,0l0.2,0c0.2,0,0.4,0,0.5,0c0.2,0,0.4,0,0.5,0l0.1,0
		c0.2,0,0.5,0,0.7,0.1c0.2,0,0.5,0,0.7,0c0.2,0,0.4,0,0.6,0l0.1,0L83.5,53.9"/>
	<path class="st20" d="M83.5,45.6c-0.1,0-0.3,0-0.4,0l-0.4,0c-0.2,0-0.3,0-0.5-0.1c-0.2,0-0.4,0-0.7-0.1c-0.2,0-0.4,0-0.7-0.1
		l-0.2,0c-0.2,0-0.4,0-0.5-0.1l-0.7-0.1c-0.2,0-0.5,0-0.7-0.1c-0.1,0-0.2,0-0.3,0c-0.1,0-0.3,0-0.4,0c-0.2,0-0.5,0-0.7-0.1
		c-0.1,0-0.3,0-0.4,0c-0.1,0-0.2,0-0.3,0l0-0.4c0.1,0,0.2,0,0.3,0c0.1,0,0.3,0,0.4,0c0.2,0,0.5,0,0.7,0.1l0,0c0.1,0,0.3,0,0.4,0
		c0.1,0,0.2,0,0.3,0c0.2,0,0.5,0,0.7,0.1l0.7,0.1c0.2,0,0.4,0,0.5,0.1l0.2,0c0.2,0,0.5,0,0.7,0.1c0.2,0,0.5,0,0.7,0.1
		c0.2,0,0.4,0,0.5,0.1l0.4,0c0.1,0,0.3,0,0.4,0L83.5,45.6"/>
	<path class="st20" d="M83.5,37.2c-0.1,0-0.2,0-0.3,0c-0.1,0-0.3,0-0.4-0.1l-0.1,0c-0.2,0-0.4-0.1-0.6-0.1L81.3,37
		c-0.2,0-0.3,0-0.5-0.1c-0.2,0-0.5-0.1-0.7-0.1c-0.2,0-0.4,0-0.5-0.1l-0.2,0c-0.1,0-0.2,0-0.3,0c-0.1,0-0.3,0-0.4-0.1
		c-0.1,0-0.2,0-0.4,0c-0.1,0-0.2,0-0.4,0c-0.2,0-0.5-0.1-0.7-0.1c-0.2,0-0.5-0.1-0.7-0.1l0.1-0.4c0.2,0,0.5,0.1,0.7,0.1
		c0.2,0,0.5,0.1,0.7,0.1c0.1,0,0.2,0,0.4,0c0.1,0,0.2,0,0.4,0c0.1,0,0.3,0,0.4,0.1c0.1,0,0.2,0,0.3,0l0.2,0c0.2,0,0.4,0,0.5,0.1
		c0.2,0,0.5,0.1,0.7,0.1c0.2,0,0.3,0,0.5,0.1l0.9,0.1c0.2,0,0.4,0.1,0.6,0.1l0.1,0c0.1,0,0.3,0,0.4,0c0.1,0,0.2,0,0.3,0L83.5,37.2"
		/>
</g>
<path class="st21" d="M76.6,27.7v8.5c0.2,0,0.5,0.1,0.7,0.1c0.2,0,0.5,0.1,0.7,0.1c0.2,0,0.5,0.1,0.7,0.1c0.2,0,0.5,0.1,0.7,0.1
	c0.2,0,0.5,0.1,0.7,0.1c0.2,0,0.5,0.1,0.7,0.1c0.2,0,0.5,0.1,0.7,0.1l0.7,0.1c0.2,0,0.5,0.1,0.7,0.1c0.2,0,0.5,0.1,0.7,0.1
	c0-2.8,0-5.6,0-8.3C81.3,28.4,79,28,76.6,27.7"/>
<path class="st20" d="M83.5,37L83.5,37c-0.1,0-0.2,0-0.3,0c-0.1,0-0.3,0-0.4,0l-0.1,0c-0.2,0-0.4-0.1-0.6-0.1l-0.7-0.1
	c-0.1,0-0.1,0-0.2,0c-0.2,0-0.3,0-0.5-0.1c-0.2,0-0.5-0.1-0.7-0.1c-0.2,0-0.4,0-0.5-0.1l-0.2,0c-0.1,0-0.2,0-0.3,0
	c-0.1,0-0.3,0-0.4-0.1c-0.1,0-0.2,0-0.4,0c-0.1,0-0.2,0-0.4,0c-0.2,0-0.5-0.1-0.7-0.1c-0.2,0-0.5-0.1-0.7-0.1l0,0v-8.5l0,0
	c1.4,0.2,2.7,0.4,4.1,0.6c1,0.1,1.9,0.3,2.8,0.4l0,0v0C83.5,31.4,83.5,34.2,83.5,37L83.5,37 M76.6,36.2c0.2,0,0.4,0.1,0.7,0.1
	c0.2,0,0.5,0.1,0.7,0.1c0.1,0,0.2,0,0.4,0s0.2,0,0.4,0c0.1,0,0.3,0,0.4,0.1c0.1,0,0.2,0,0.3,0l0.2,0c0.2,0,0.4,0,0.5,0.1
	c0.2,0,0.5,0.1,0.7,0.1c0.2,0,0.3,0,0.5,0.1c0.1,0,0.1,0,0.2,0l0.7,0.1c0.2,0,0.4,0.1,0.6,0.1l0.1,0c0.1,0,0.3,0,0.4,0.1
	c0.1,0,0.2,0,0.3,0c0-2.8,0-5.6,0-8.3c-0.9-0.1-1.9-0.3-2.8-0.4c-1.3-0.2-2.7-0.4-4.1-0.6L76.6,36.2L76.6,36.2z"/>
<path class="st21" d="M78.7,36.4c-0.2,0-0.5-0.1-0.7-0.1c-0.2,0-0.5-0.1-0.7-0.1c-0.2,0-0.5-0.1-0.7-0.1v8.5c0.2,0,0.5,0,0.7,0.1
	c0.2,0,0.5,0,0.7,0.1c0.2,0,0.5,0,0.7,0.1c0.2,0,0.5,0,0.7,0.1l0.7,0.1c0.2,0,0.5,0,0.7,0.1c0.2,0,0.5,0,0.7,0.1
	c0.2,0,0.5,0,0.7,0.1c0.2,0,0.5,0.1,0.7,0.1c0.2,0,0.5,0,0.7,0.1V37c-0.2,0-0.4-0.1-0.7-0.1c-0.2,0-0.4-0.1-0.7-0.1l-0.7-0.1
	c-0.2,0-0.4-0.1-0.7-0.1c-0.2,0-0.5-0.1-0.7-0.1c-0.2,0-0.5-0.1-0.7-0.1C79.2,36.5,78.9,36.5,78.7,36.4"/>
<path class="st20" d="M83.5,45.4L83.5,45.4c-0.2,0-0.3,0-0.4,0c-0.1,0-0.2,0-0.3,0l-0.2,0c-0.2,0-0.3,0-0.5-0.1
	c-0.3,0-0.5,0-0.7-0.1c-0.2,0-0.4,0-0.7-0.1l-0.2,0c-0.2,0-0.4,0-0.5-0.1L79.4,45c-0.3,0-0.5-0.1-0.7-0.1c-0.1,0-0.2,0-0.3,0
	c-0.1,0-0.3,0-0.4,0h0c-0.2,0-0.5,0-0.7-0.1c-0.1,0-0.3,0-0.4,0c-0.1,0-0.2,0-0.3,0h0v-8.5l0,0c0.2,0,0.4,0.1,0.7,0.1
	c0.2,0,0.5,0.1,0.7,0.1c0.1,0,0.2,0,0.4,0s0.2,0,0.4,0c0.1,0,0.3,0,0.4,0.1c0.1,0,0.2,0,0.3,0l0.2,0c0.2,0,0.4,0,0.5,0.1
	c0.2,0,0.5,0.1,0.7,0.1c0.2,0,0.3,0,0.5,0.1c0.1,0,0.1,0,0.2,0l0.7,0.1c0.2,0,0.4,0.1,0.6,0.1l0.1,0c0.1,0,0.3,0,0.4,0.1
	c0.1,0,0.2,0,0.3,0h0L83.5,45.4L83.5,45.4z M76.6,44.7c0.1,0,0.2,0,0.3,0c0.1,0,0.3,0,0.4,0c0.2,0,0.5,0,0.7,0.1l0,0
	c0.1,0,0.3,0,0.4,0c0.1,0,0.2,0,0.3,0c0.2,0,0.4,0,0.7,0.1l0.7,0.1c0.2,0,0.4,0,0.5,0.1l0.2,0c0.3,0,0.5,0,0.7,0.1
	c0.2,0,0.4,0,0.7,0.1c0.2,0,0.4,0,0.5,0.1l0.2,0c0.1,0,0.2,0,0.3,0c0.1,0,0.3,0,0.4,0V37c-0.1,0-0.2,0-0.3,0c-0.1,0-0.3,0-0.4,0
	l-0.1,0c-0.2,0-0.4-0.1-0.6-0.1l-0.7-0.1c-0.1,0-0.1,0-0.2,0c-0.2,0-0.3,0-0.5-0.1c-0.2,0-0.5-0.1-0.7-0.1c-0.2,0-0.4,0-0.5-0.1
	l-0.2,0c-0.1,0-0.2,0-0.3,0c-0.1,0-0.3,0-0.4-0.1c-0.1,0-0.2,0-0.4,0c-0.1,0-0.2,0-0.4,0c-0.2,0-0.5-0.1-0.7-0.1
	c-0.2,0-0.5-0.1-0.7-0.1L76.6,44.7"/>
<path class="st21" d="M80.8,45.1c-0.2,0-0.5,0-0.7-0.1L79.4,45c-0.2,0-0.5,0-0.7-0.1c-0.2,0-0.5,0-0.7-0.1c-0.2,0-0.5,0-0.7-0.1
	c-0.2,0-0.5,0-0.7-0.1v8.5c0.2,0,0.5,0,0.7,0.1c0.2,0,0.5,0,0.7,0.1c0.2,0,0.5,0,0.7,0.1c0.2,0,0.5,0,0.7,0c0.2,0,0.5,0,0.7,0.1
	c0.2,0,0.5,0,0.7,0c0.2,0,0.5,0,0.7,0.1l0.7,0c0.2,0,0.5,0,0.7,0l0.7,0.1c0-2.8,0-5.5,0-8.3c-0.2,0-0.4,0-0.7-0.1
	c-0.2,0-0.5,0-0.7-0.1c-0.2,0-0.5,0-0.7-0.1C81.2,45.1,81,45.1,80.8,45.1"/>
<path class="st20" d="M83.5,53.7l-0.7-0.1c-0.2,0-0.5,0-0.7-0.1l-0.8-0.1c-0.2,0-0.4,0-0.5,0c-0.2,0-0.3,0-0.5,0l-0.2,0
	c-0.1,0-0.2,0-0.4,0c-0.1,0-0.2,0-0.3,0c-0.1,0-0.2,0-0.2,0c-0.1,0-0.3,0-0.5,0c-0.2,0-0.4,0-0.6,0l-0.1,0c-0.2,0-0.4,0-0.7,0l0,0
	c-0.2,0-0.4,0-0.6,0l-0.1,0v-8.5l0,0c0.1,0,0.2,0,0.3,0c0.1,0,0.3,0,0.4,0c0.2,0,0.5,0,0.7,0.1l0,0c0.1,0,0.3,0,0.4,0
	c0.1,0,0.2,0,0.3,0c0.2,0,0.4,0,0.7,0.1l0.7,0.1c0.2,0,0.4,0,0.5,0.1l0.2,0c0.3,0,0.5,0,0.7,0.1c0.2,0,0.4,0,0.7,0.1
	c0.2,0,0.4,0,0.5,0.1l0.2,0c0.1,0,0.2,0,0.3,0c0.1,0,0.3,0,0.4,0h0v0C83.5,48.1,83.5,50.9,83.5,53.7L83.5,53.7 M76.6,53.2L76.6,53.2
	c0.3,0,0.5,0,0.7,0l0,0c0.2,0,0.4,0,0.7,0l0.1,0c0.2,0,0.4,0,0.6,0c0.2,0,0.3,0,0.5,0c0.1,0,0.2,0,0.2,0c0.1,0,0.2,0,0.3,0
	c0.1,0,0.2,0,0.4,0l0.2,0c0.2,0,0.4,0,0.5,0c0.2,0,0.4,0,0.5,0l0.8,0.1c0.2,0,0.5,0,0.7,0l0.7,0v0c0-2.7,0-5.5,0-8.3
	c-0.1,0-0.3,0-0.4,0c-0.1,0-0.2,0-0.3,0l-0.2,0c-0.2,0-0.3,0-0.5-0.1c-0.3,0-0.5,0-0.7-0.1c-0.2,0-0.4,0-0.7-0.1l-0.2,0
	c-0.2,0-0.4,0-0.5-0.1L79.4,45c-0.3,0-0.5-0.1-0.7-0.1c-0.1,0-0.2,0-0.3,0c-0.1,0-0.3,0-0.4,0h0c-0.2,0-0.5,0-0.7-0.1
	c-0.1,0-0.3,0-0.4,0c-0.1,0-0.2,0-0.3,0L76.6,53.2L76.6,53.2z"/>
<path class="st21" d="M80.8,53.5c-0.2,0-0.5,0-0.7,0c-0.2,0-0.5,0-0.7-0.1c-0.2,0-0.5,0-0.7,0c-0.2,0-0.5,0-0.7-0.1
	c-0.2,0-0.5,0-0.7-0.1c-0.2,0-0.5,0-0.7-0.1v8.5l0.7,0c0.2,0,0.5,0,0.7,0c0.2,0,0.5,0,0.7,0c0.2,0,0.5,0,0.7,0l0.7,0
	c0.2,0,0.5,0,0.7,0l0.7,0l0.7,0l0.7,0l0.7,0v-8.3l-0.7-0.1c-0.2,0-0.5,0-0.7,0l-0.7,0C81.2,53.5,81,53.5,80.8,53.5"/>
<path class="st20" d="M83.5,62l-2.8-0.1c-0.2,0-0.5,0-0.7,0l-0.9,0c-0.2,0-0.3,0-0.5,0c-0.2,0-0.5,0-0.7,0l-0.1,0
	c-0.2,0-0.4,0-0.6,0l-0.7,0v-8.5l0.1,0c0.2,0,0.4,0,0.6,0l0,0c0.2,0,0.4,0,0.7,0l0.1,0c0.2,0,0.4,0,0.6,0c0.2,0,0.3,0,0.5,0
	c0.1,0,0.2,0,0.2,0c0.1,0,0.2,0,0.3,0c0.1,0,0.2,0,0.4,0l0.2,0c0.2,0,0.4,0,0.5,0c0.2,0,0.4,0,0.5,0l0.8,0.1c0.2,0,0.5,0,0.7,0
	l0.7,0.1L83.5,62 M76.6,61.7l0.7,0c0.2,0,0.4,0,0.6,0l0.1,0c0.3,0,0.5,0,0.7,0c0.2,0,0.3,0,0.5,0l0.9,0c0.2,0,0.5,0,0.7,0l2.7,0.1
	v-8.3l-0.7,0c-0.2,0-0.5,0-0.7-0.1l-0.8-0.1c-0.2,0-0.4,0-0.5,0c-0.2,0-0.3,0-0.5,0l-0.2,0c-0.1,0-0.2,0-0.4,0c-0.1,0-0.2,0-0.3,0
	c-0.1,0-0.2,0-0.2,0c-0.1,0-0.3,0-0.5,0c-0.2,0-0.4,0-0.6,0l-0.1,0c-0.2,0-0.4,0-0.7,0l0,0c-0.2,0-0.4,0-0.6,0l-0.1,0L76.6,61.7
	L76.6,61.7z"/>
<path class="st21" d="M80.1,61.8l-0.7,0c-0.2,0-0.5,0-0.7,0c-0.2,0-0.5,0-0.7,0c-0.2,0-0.5,0-0.7,0l-0.7,0v8.5l0.7,0l0.7,0
	c0.2,0,0.5,0,0.7,0l0.7,0l0.7,0l0.7,0l0.7,0l0.7,0l0.7,0l0.7,0c0-2.8,0-5.6,0-8.3l-0.7,0l-0.7,0l-0.7,0l-0.7,0
	C80.5,61.9,80.3,61.9,80.1,61.8"/>
<path class="st20" d="M83.5,70.4l-2.8-0.1l-2.1,0c-0.2,0-0.5,0-0.7,0l-1.4,0v-8.5l0.7,0c0.2,0,0.4,0,0.6,0l0.1,0c0.3,0,0.5,0,0.7,0
	c0.2,0,0.3,0,0.5,0l0.9,0c0.2,0,0.5,0,0.7,0l2.8,0.1v0C83.5,64.7,83.5,67.6,83.5,70.4L83.5,70.4 M76.6,70.2l1.4,0c0.2,0,0.5,0,0.7,0
	l4.8,0.1c0-2.8,0-5.6,0-8.3l-2.7-0.1c-0.2,0-0.5,0-0.7,0l-0.9,0c-0.2,0-0.3,0-0.5,0c-0.2,0-0.5,0-0.7,0l-0.1,0c-0.2,0-0.4,0-0.6,0
	l-0.7,0L76.6,70.2L76.6,70.2z"/>
<path class="st21" d="M80.8,70.3l-0.7,0l-0.7,0l-0.7,0c-0.2,0-0.5,0-0.7,0l-0.7,0l-0.7,0v8.5h6.9c0-2.8,0-5.5,0-8.3l-0.7,0l-0.7,0
	l-0.7,0L80.8,70.3"/>
<g>
	<path class="st20" d="M83.5,78.7h-6.9v-8.5l1.4,0c0.2,0,0.5,0,0.7,0l4.8,0.1l0,0C83.5,73.1,83.5,75.9,83.5,78.7L83.5,78.7
		L83.5,78.7z M76.6,78.6h6.9c0-2.7,0-5.5,0-8.3l-4.8-0.1c-0.2,0-0.5,0-0.7,0l-1.4,0V78.6"/>
	<rect x="135.1" y="36.3" class="st20" width="0.4" height="42.4"/>
	<path class="st20" d="M130.6,78.7h-0.4c0-1.2,0-2.4,0-3.6c0-1.2,0-2.4,0-3.6c0-2.4,0-4.8,0-7.2c0-1.2,0-2.4,0-3.6
		c0-1.2,0-2.4,0-3.6v-7.2c0-2.4,0-4.7,0-7.1l0-0.1v-7.2h0.4v7.3c0,2.4,0,4.7,0,7.1v7.2c0,1.2,0,2.4,0,3.6c0,1.2,0,2.4,0,3.6
		c0,2.4,0,4.8,0,7.2c0,1.2,0,2.4,0,3.6C130.6,76.3,130.6,77.5,130.6,78.7"/>
	<path class="st20" d="M135.3,71.8c-0.1,0-0.3,0-0.5,0l-0.5,0c-0.2,0-0.3,0-0.5,0l-1,0c-0.2,0-0.3,0-0.5,0l-0.5,0
		c-0.2,0-0.3,0-0.5,0l-0.5,0c-0.2,0-0.3,0-0.5,0h0l0-0.4h0c0.2,0,0.3,0,0.5,0l0.5,0c0.2,0,0.3,0,0.5,0l0.5,0c0.2,0,0.3,0,0.5,0l1,0
		c0.2,0,0.3,0,0.5,0l0.5,0c0.2,0,0.3,0,0.5,0L135.3,71.8"/>
	<path class="st20" d="M135.3,64.8c-0.1,0-0.3,0-0.4,0l0,0c-0.1,0-0.2,0-0.3,0c-0.1,0-0.2,0-0.2,0c-0.2,0-0.3,0-0.5,0l0,0
		c-0.2,0-0.3,0-0.5,0l-0.5,0c-0.2,0-0.3,0-0.5,0c-0.2,0-0.3,0-0.5,0l0,0c-0.2,0-0.3,0-0.5,0l0,0c-0.2,0-0.3,0-0.5,0
		c-0.2,0-0.3,0-0.5,0l0-0.4c0.2,0,0.3,0,0.5,0c0.2,0,0.3,0,0.5,0l0,0c0.1,0,0.3,0,0.5,0h0c0.2,0,0.3,0,0.5,0c0.2,0,0.3,0,0.5,0
		l0.5,0c0.2,0,0.3,0,0.5,0l0,0c0.2,0,0.3,0,0.5,0c0.1,0,0.2,0,0.3,0c0.1,0,0.2,0,0.2,0l0,0c0.1,0,0.3,0,0.4,0L135.3,64.8"/>
	<path class="st20" d="M135.3,57.7c-0.1,0-0.2,0-0.2,0c-0.1,0-0.2,0-0.3,0c-0.2,0-0.3,0-0.5,0c-0.1,0-0.2,0-0.2,0
		c-0.1,0-0.2,0-0.2,0c-0.2,0-0.3,0-0.5,0c-0.1,0-0.2,0-0.2,0c-0.1,0-0.2,0-0.2,0c-0.1,0-0.2,0-0.3,0c-0.1,0-0.1,0-0.2,0
		c-0.2,0-0.3,0-0.5,0c-0.1,0-0.2,0-0.3,0c-0.1,0-0.2,0-0.2,0c-0.2,0-0.3,0-0.5,0c-0.1,0-0.2,0-0.3,0c-0.1,0-0.1,0-0.2,0l0-0.4
		c0.1,0,0.1,0,0.2,0c0.1,0,0.2,0,0.3,0c0.2,0,0.3,0,0.5,0c0.1,0,0.2,0,0.2,0c0.1,0,0.2,0,0.3,0c0.2,0,0.3,0,0.5,0c0.1,0,0.1,0,0.2,0
		c0.1,0,0.2,0,0.3,0c0.1,0,0.2,0,0.2,0c0.1,0,0.2,0,0.2,0c0.2,0,0.3,0,0.5,0c0.1,0,0.2,0,0.2,0s0.2,0,0.2,0c0.2,0,0.3,0,0.5,0
		c0.1,0,0.2,0,0.2,0c0.1,0,0.2,0,0.2,0L135.3,57.7"/>
	<path class="st20" d="M135.3,50.6c-0.1,0-0.2,0-0.3,0c-0.1,0-0.1,0-0.2,0c-0.1,0-0.2,0-0.2,0c-0.1,0-0.2,0-0.3,0
		c-0.1,0-0.2,0-0.2,0c-0.1,0-0.2,0-0.2,0c-0.1,0-0.2,0-0.3,0c-0.1,0-0.1,0-0.2,0c-0.1,0-0.2,0-0.3,0l-0.2,0c-0.2,0-0.3,0-0.5,0
		c-0.1,0-0.1,0-0.2,0c-0.1,0-0.2,0-0.3,0c-0.1,0-0.3,0-0.5-0.1l-0.1,0c-0.1,0-0.3,0-0.4,0c-0.2,0-0.3,0-0.5-0.1l0-0.4
		c0.2,0,0.3,0,0.5,0.1c0.2,0,0.3,0,0.5,0l0.1,0c0.2,0,0.4,0,0.5,0c0.1,0,0.2,0,0.3,0c0.1,0,0.1,0,0.2,0c0.2,0,0.4,0,0.5,0l0.2,0
		c0.1,0,0.2,0,0.3,0c0.1,0,0.1,0,0.2,0c0.1,0,0.2,0,0.3,0c0.1,0,0.2,0,0.2,0c0.1,0,0.2,0,0.2,0c0.1,0,0.2,0,0.3,0c0.1,0,0.2,0,0.3,0
		c0.1,0,0.1,0,0.2,0c0.1,0,0.2,0,0.3,0L135.3,50.6"/>
	<path class="st20" d="M135.3,43.6c-0.1,0-0.2,0-0.3,0c-0.1,0-0.1,0-0.2,0l-0.1,0c-0.1,0-0.3,0-0.4,0l-0.1,0c-0.1,0-0.3,0-0.4-0.1
		l0,0c-0.1,0-0.3,0-0.5-0.1l-0.2,0c-0.1,0-0.2,0-0.3,0c-0.2,0-0.3,0-0.5-0.1c-0.1,0-0.2,0-0.2,0c-0.1,0-0.2,0-0.3,0
		c-0.2,0-0.3,0-0.5-0.1c-0.1,0-0.2,0-0.2,0c-0.1,0-0.2,0-0.3,0c-0.1,0-0.3,0-0.5-0.1l-0.1,0l0-0.4l0.1,0c0.2,0,0.3,0,0.5,0.1
		c0.1,0,0.2,0,0.3,0c0.1,0,0.2,0,0.2,0c0.2,0,0.3,0,0.5,0.1c0.1,0,0.2,0,0.2,0c0.1,0,0.2,0,0.3,0c0.2,0,0.3,0,0.5,0.1
		c0.1,0,0.2,0,0.3,0l0.2,0c0.2,0,0.3,0,0.5,0.1l0,0c0.1,0,0.3,0,0.4,0.1l0,0c0.1,0,0.3,0,0.4,0l0.1,0c0.1,0,0.1,0,0.2,0
		c0.1,0,0.2,0,0.3,0L135.3,43.6"/>
</g>
<path class="st21" d="M130.4,71.5c0,2.4,0,4.8,0,7.2h4.9v-7.1c-0.2,0-0.3,0-0.5,0l-0.5,0c-0.2,0-0.3,0-0.5,0l-0.5,0l-0.5,0
	c-0.2,0-0.3,0-0.5,0l-0.5,0c-0.2,0-0.3,0-0.5,0l-0.5,0C130.7,71.5,130.6,71.5,130.4,71.5"/>
<path class="st20" d="M135.3,78.7h-5v0c0-1.2,0-2.4,0-3.6c0-1.2,0-2.4,0-3.6v0l0,0c0.2,0,0.3,0,0.5,0l0.5,0c0.2,0,0.3,0,0.5,0l0.5,0
	c0.2,0,0.3,0,0.5,0l1,0c0.2,0,0.3,0,0.5,0l0.5,0c0.1,0,0.3,0,0.5,0h0L135.3,78.7L135.3,78.7z M130.4,78.6h4.9v-7c-0.1,0-0.3,0-0.4,0
	l-0.5,0c-0.2,0-0.3,0-0.5,0l-1,0c-0.2,0-0.3,0-0.5,0l-0.5,0c-0.1,0-0.3,0-0.5,0l-0.5,0c-0.2,0-0.3,0-0.5,0h0c0,1.2,0,2.4,0,3.6
	C130.4,76.3,130.4,77.5,130.4,78.6"/>
<path class="st21" d="M131.4,71.5c0.2,0,0.3,0,0.5,0l0.5,0c0.2,0,0.3,0,0.5,0l0.5,0l0.5,0c0.2,0,0.3,0,0.5,0l0.5,0
	c0.2,0,0.3,0,0.5,0v0v-7.1c-0.2,0-0.3,0-0.5,0c-0.2,0-0.3,0-0.5,0c-0.2,0-0.3,0-0.5,0c-0.2,0-0.3,0-0.5,0l-0.5,0c-0.2,0-0.3,0-0.5,0
	c-0.2,0-0.3,0-0.5,0c-0.2,0-0.3,0-0.5,0c-0.2,0-0.3,0-0.5,0c-0.2,0-0.3,0-0.5,0c0,2.4,0,4.8,0,7.2c0.2,0,0.3,0,0.5,0L131.4,71.5"/>
<path class="st20" d="M135.3,71.6L135.3,71.6c-0.2,0-0.3,0-0.5,0l-0.5,0c-0.2,0-0.3,0-0.5,0l-1,0c-0.2,0-0.3,0-0.5,0l-0.5,0
	c-0.1,0-0.3,0-0.5,0l-0.5,0c-0.2,0-0.3,0-0.5,0l0,0v0c0-2.4,0-4.8,0-7.2v0l0,0c0.2,0,0.3,0,0.5,0h0c0.2,0,0.3,0,0.5,0l0,0
	c0.1,0,0.3,0,0.5,0l0,0c0.2,0,0.3,0,0.5,0c0.2,0,0.3,0,0.5,0l0.5,0c0.2,0,0.3,0,0.5,0l0,0c0.2,0,0.3,0,0.5,0c0.1,0,0.2,0,0.3,0
	s0.2,0,0.3,0l0,0c0.1,0,0.3,0,0.4,0l0,0L135.3,71.6L135.3,71.6z M130.4,71.5L130.4,71.5c0.2,0,0.3,0,0.5,0l0.5,0c0.2,0,0.3,0,0.5,0
	l0.5,0c0.2,0,0.3,0,0.5,0l1,0c0.2,0,0.3,0,0.5,0l0.5,0c0.1,0,0.3,0,0.4,0v-7c-0.1,0-0.3,0-0.4,0l0,0c-0.1,0-0.2,0-0.2,0
	c-0.1,0-0.2,0-0.3,0c-0.2,0-0.3,0-0.5,0h0c-0.2,0-0.3,0-0.5,0l-0.5,0c-0.2,0-0.3,0-0.5,0c-0.1,0-0.3,0-0.5,0h0c-0.2,0-0.3,0-0.5,0
	l0,0c-0.2,0-0.3,0-0.5,0h0c-0.2,0-0.3,0-0.5,0C130.4,66.7,130.4,69.1,130.4,71.5"/>
<path class="st21" d="M132.4,64.4c0.2,0,0.3,0,0.5,0l0.5,0c0.2,0,0.3,0,0.5,0c0.2,0,0.3,0,0.5,0c0.2,0,0.3,0,0.5,0
	c0.2,0,0.3,0,0.5,0v0v-7.1v0c-0.2,0-0.3,0-0.5,0c-0.2,0-0.3,0-0.5,0c-0.2,0-0.3,0-0.5,0c-0.2,0-0.3,0-0.5,0c-0.2,0-0.3,0-0.5,0
	c-0.2,0-0.3,0-0.5,0c-0.2,0-0.3,0-0.5,0c-0.2,0-0.3,0-0.5,0c-0.2,0-0.3,0-0.5,0c-0.2,0-0.3,0-0.5,0c0,2.4,0,4.8,0,7.2
	c0.2,0,0.3,0,0.5,0c0.2,0,0.3,0,0.5,0c0.2,0,0.3,0,0.5,0C132.1,64.4,132.2,64.4,132.4,64.4"/>
<path class="st20" d="M135.3,64.6c-0.1,0-0.3,0-0.4,0l0,0c-0.1,0-0.2,0-0.2,0c-0.1,0-0.2,0-0.3,0c-0.2,0-0.3,0-0.5,0h0
	c-0.2,0-0.3,0-0.5,0l-0.5,0c-0.2,0-0.3,0-0.5,0c-0.1,0-0.3,0-0.5,0h0c-0.2,0-0.3,0-0.5,0l0,0c-0.2,0-0.3,0-0.5,0h0
	c-0.2,0-0.3,0-0.5,0h0v0c0-1.2,0-2.4,0-3.6c0-1.2,0-2.4,0-3.6v0l0,0c0.1,0,0.1,0,0.2,0c0.1,0,0.2,0,0.3,0c0.2,0,0.3,0,0.5,0
	c0.1,0,0.2,0,0.2,0c0.1,0,0.2,0,0.3,0c0.2,0,0.3,0,0.5,0c0.1,0,0.1,0,0.2,0c0.1,0,0.2,0,0.3,0c0.1,0,0.2,0,0.2,0c0.1,0,0.2,0,0.3,0
	c0.2,0,0.3,0,0.5,0c0.1,0,0.2,0,0.2,0s0.2,0,0.2,0c0.2,0,0.3,0,0.5,0c0.1,0,0.2,0,0.3,0c0.1,0,0.1,0,0.2,0h0L135.3,64.6L135.3,64.6
	 M130.4,64.3c0.2,0,0.3,0,0.5,0h0c0.2,0,0.3,0,0.5,0l0,0c0.1,0,0.3,0,0.5,0l0,0c0.2,0,0.3,0,0.5,0c0.2,0,0.3,0,0.5,0l0.5,0
	c0.2,0,0.3,0,0.5,0l0,0c0.2,0,0.3,0,0.5,0c0.1,0,0.2,0,0.3,0s0.2,0,0.3,0l0,0c0.1,0,0.3,0,0.4,0v-7c-0.1,0-0.1,0-0.2,0
	c-0.1,0-0.2,0-0.3,0c-0.2,0-0.3,0-0.5,0c-0.1,0-0.2,0-0.2,0c-0.1,0-0.2,0-0.2,0c-0.2,0-0.3,0-0.5,0c-0.1,0-0.2,0-0.3,0
	c-0.1,0-0.2,0-0.2,0c-0.1,0-0.2,0-0.3,0c-0.1,0-0.1,0-0.2,0c-0.2,0-0.3,0-0.5,0c-0.1,0-0.2,0-0.3,0c-0.1,0-0.1,0-0.2,0
	c-0.2,0-0.3,0-0.5,0c-0.1,0-0.2,0-0.3,0c-0.1,0-0.1,0-0.2,0c0,1.2,0,2.4,0,3.6C130.4,61.9,130.4,63.1,130.4,64.3"/>
<path class="st21" d="M132.4,57.3c0.2,0,0.3,0,0.5,0c0.2,0,0.3,0,0.5,0c0.2,0,0.3,0,0.5,0c0.2,0,0.3,0,0.5,0c0.2,0,0.3,0,0.5,0
	c0.2,0,0.3,0,0.5,0v-7v0c-0.2,0-0.3,0-0.5,0c-0.2,0-0.3,0-0.5,0c-0.2,0-0.3,0-0.5,0c-0.2,0-0.3,0-0.5,0c-0.2,0-0.3,0-0.5-0.1
	c-0.2,0-0.3,0-0.5,0c-0.2,0-0.3,0-0.5,0c-0.2,0-0.3,0-0.5,0c-0.2,0-0.3,0-0.5,0c-0.2,0-0.3,0-0.5-0.1v7.2c0.2,0,0.3,0,0.5,0
	c0.2,0,0.3,0,0.5,0c0.2,0,0.3,0,0.5,0C132.1,57.3,132.2,57.3,132.4,57.3"/>
<path class="st20" d="M135.3,57.5L135.3,57.5c-0.1,0-0.2,0-0.2,0c-0.1,0-0.2,0-0.3,0c-0.2,0-0.3,0-0.5,0c-0.1,0-0.2,0-0.2,0
	c-0.1,0-0.2,0-0.2,0c-0.2,0-0.3,0-0.5,0c-0.1,0-0.2,0-0.3,0c-0.1,0-0.2,0-0.2,0c-0.1,0-0.2,0-0.3,0c-0.1,0-0.1,0-0.2,0
	c-0.2,0-0.3,0-0.5,0c-0.1,0-0.2,0-0.3,0c-0.1,0-0.1,0-0.2,0c-0.2,0-0.3,0-0.5,0c-0.1,0-0.2,0-0.3,0c-0.1,0-0.1,0-0.2,0l0,0v-7.2l0,0
	c0.2,0,0.3,0,0.5,0.1c0.2,0,0.3,0,0.5,0l0.1,0c0.2,0,0.4,0,0.5,0c0.1,0,0.2,0,0.3,0c0.1,0,0.1,0,0.2,0c0.1,0,0.3,0,0.5,0
	c0.1,0,0.1,0,0.2,0c0.1,0,0.2,0,0.3,0c0.1,0,0.1,0,0.2,0c0.1,0,0.2,0,0.3,0c0.1,0,0.2,0,0.2,0s0.2,0,0.2,0c0.1,0,0.2,0,0.3,0
	c0.1,0,0.2,0,0.2,0c0.1,0,0.1,0,0.2,0c0.1,0,0.2,0,0.3,0h0L135.3,57.5 M130.4,57.1c0.1,0,0.1,0,0.2,0c0.1,0,0.2,0,0.3,0
	c0.2,0,0.3,0,0.5,0c0.1,0,0.2,0,0.2,0c0.1,0,0.2,0,0.3,0c0.2,0,0.3,0,0.5,0c0.1,0,0.1,0,0.2,0c0.1,0,0.2,0,0.3,0c0.1,0,0.2,0,0.2,0
	c0.1,0,0.2,0,0.3,0c0.2,0,0.3,0,0.5,0c0.1,0,0.2,0,0.2,0s0.2,0,0.2,0c0.2,0,0.3,0,0.5,0c0.1,0,0.2,0,0.3,0c0.1,0,0.1,0,0.2,0v-7
	c-0.1,0-0.2,0-0.3,0c-0.1,0-0.1,0-0.2,0c-0.1,0-0.2,0-0.2,0c-0.1,0-0.2,0-0.3,0c-0.1,0-0.2,0-0.2,0c-0.1,0-0.2,0-0.2,0
	c-0.1,0-0.2,0-0.3,0c-0.1,0-0.1,0-0.2,0c-0.1,0-0.2,0-0.3,0c-0.1,0-0.1,0-0.2,0c-0.2,0-0.4,0-0.5,0c-0.1,0-0.1,0-0.2,0
	c-0.1,0-0.2,0-0.3,0c-0.1,0-0.3,0-0.5-0.1l-0.1,0c-0.1,0-0.3,0-0.5,0c-0.2,0-0.3,0-0.5-0.1L130.4,57.1L130.4,57.1z"/>
<path class="st21" d="M134.4,43.3c0.2,0,0.3,0,0.5,0.1c0.1,0,0.3,0,0.5,0.1v-7.1c-1.6-0.2-3.3-0.5-5-0.7v7.2c0.2,0,0.4,0,0.5,0.1
	c0.2,0,0.3,0,0.5,0.1c0.2,0,0.3,0,0.5,0.1c0.2,0,0.3,0,0.5,0.1c0.2,0,0.3,0,0.5,0.1c0.2,0,0.3,0,0.5,0.1c0.2,0,0.3,0,0.5,0.1
	C134,43.2,134.2,43.2,134.4,43.3"/>
<path class="st20" d="M135.3,43.4L135.3,43.4c-0.1,0-0.2,0-0.3,0c-0.1,0-0.1,0-0.2,0l-0.1,0c-0.1,0-0.3,0-0.4,0l-0.1,0
	c-0.1,0-0.3,0-0.4-0.1l0,0c-0.1,0-0.3,0-0.5-0.1c-0.1,0-0.1,0-0.2,0c-0.1,0-0.2,0-0.3,0c-0.2,0-0.3,0-0.5-0.1c-0.1,0-0.2,0-0.3,0
	c-0.1,0-0.2,0-0.2,0c-0.2,0-0.3,0-0.5-0.1c-0.1,0-0.2,0-0.2,0c-0.1,0-0.2,0-0.3,0c-0.1,0-0.3,0-0.5-0.1l-0.1,0v-7.2l0,0
	c0.9,0.1,1.9,0.3,2.8,0.4c0.7,0.1,1.5,0.2,2.2,0.3l0,0L135.3,43.4L135.3,43.4z M130.4,42.8L130.4,42.8c0.2,0,0.4,0,0.5,0.1
	c0.1,0,0.2,0,0.3,0c0.1,0,0.2,0,0.2,0c0.2,0,0.4,0,0.5,0.1c0.1,0,0.2,0,0.2,0c0.1,0,0.2,0,0.3,0c0.2,0,0.3,0,0.5,0.1
	c0.1,0,0.2,0,0.3,0c0.1,0,0.1,0,0.2,0c0.2,0,0.3,0,0.5,0.1l0,0c0.1,0,0.3,0,0.4,0.1l0,0c0.1,0,0.3,0,0.4,0l0.1,0c0.1,0,0.1,0,0.2,0
	c0.1,0,0.2,0,0.3,0v-7c-0.7-0.1-1.5-0.2-2.2-0.3c-0.9-0.1-1.8-0.3-2.7-0.4L130.4,42.8"/>
<path class="st21" d="M134.9,43.3c-0.2,0-0.3,0-0.5-0.1c-0.2,0-0.3,0-0.5-0.1c-0.2,0-0.3,0-0.5-0.1c-0.2,0-0.3,0-0.5-0.1
	c-0.2,0-0.3,0-0.5-0.1c-0.2,0-0.3,0-0.5-0.1c-0.2,0-0.3,0-0.5-0.1c-0.2,0-0.3,0-0.5-0.1c-0.2,0-0.3,0-0.5-0.1c0,2.4,0,4.8,0,7.2
	c0.2,0,0.3,0,0.5,0.1c0.2,0,0.3,0,0.5,0c0.2,0,0.3,0,0.5,0c0.2,0,0.3,0,0.5,0c0.2,0,0.3,0,0.5,0c0.2,0,0.3,0,0.5,0.1
	c0.2,0,0.3,0,0.5,0c0.2,0,0.3,0,0.5,0c0.2,0,0.3,0,0.5,0c0.1,0,0.3,0,0.5,0v-7.1v0C135.2,43.3,135,43.3,134.9,43.3"/>
<path class="st20" d="M135.3,50.5L135.3,50.5c-0.1,0-0.2,0-0.3,0c-0.1,0-0.1,0-0.2,0c-0.1,0-0.2,0-0.2,0c-0.1,0-0.2,0-0.3,0
	c-0.1,0-0.2,0-0.2,0c-0.1,0-0.2,0-0.2,0c-0.1,0-0.2,0-0.3,0c-0.1,0-0.1,0-0.2,0c-0.1,0-0.2,0-0.3,0c-0.1,0-0.1,0-0.2,0
	c-0.2,0-0.4,0-0.5,0c-0.1,0-0.1,0-0.2,0c-0.1,0-0.2,0-0.3,0c-0.1,0-0.3,0-0.5-0.1l-0.1,0c-0.1,0-0.3,0-0.5,0c-0.2,0-0.3,0-0.5-0.1h0
	v0c0-2.4,0-4.8,0-7.1l0-0.1l0.1,0c0.2,0,0.3,0,0.5,0.1c0.1,0,0.2,0,0.3,0c0.1,0,0.2,0,0.2,0c0.2,0,0.4,0,0.5,0.1c0.1,0,0.2,0,0.2,0
	c0.1,0,0.2,0,0.3,0c0.2,0,0.3,0,0.5,0.1c0.1,0,0.2,0,0.3,0c0.1,0,0.1,0,0.2,0c0.2,0,0.3,0,0.5,0.1l0,0c0.1,0,0.3,0,0.4,0.1l0,0
	c0.1,0,0.3,0,0.4,0l0.1,0c0.1,0,0.1,0,0.2,0c0.1,0,0.2,0,0.3,0l0,0L135.3,50.5L135.3,50.5z M130.4,49.9c0.2,0,0.3,0,0.5,0.1
	c0.2,0,0.3,0,0.5,0l0.1,0c0.2,0,0.4,0,0.5,0c0.1,0,0.2,0,0.3,0c0.1,0,0.1,0,0.2,0c0.1,0,0.3,0,0.5,0c0.1,0,0.1,0,0.2,0
	c0.1,0,0.2,0,0.3,0c0.1,0,0.1,0,0.2,0c0.1,0,0.2,0,0.3,0c0.1,0,0.2,0,0.2,0s0.2,0,0.2,0c0.1,0,0.2,0,0.3,0c0.1,0,0.2,0,0.2,0
	c0.1,0,0.1,0,0.2,0c0.1,0,0.2,0,0.3,0v-7c-0.1,0-0.2,0-0.3,0c-0.1,0-0.1,0-0.2,0l-0.1,0c-0.1,0-0.3,0-0.4,0l-0.1,0
	c-0.1,0-0.3,0-0.4-0.1l0,0c-0.1,0-0.3,0-0.5-0.1c-0.1,0-0.1,0-0.2,0c-0.1,0-0.2,0-0.3,0c-0.2,0-0.3,0-0.5-0.1c-0.1,0-0.2,0-0.3,0
	c-0.1,0-0.2,0-0.2,0c-0.2,0-0.3,0-0.5-0.1c-0.1,0-0.2,0-0.2,0c-0.1,0-0.2,0-0.3,0c-0.1,0-0.3,0-0.5-0.1l0,0v0.1
	C130.4,45.2,130.4,47.6,130.4,49.9"/>
<polygon class="st0" points="135.3,37 76.6,28.3 76.7,27.7 135.4,36.3 "/>
<path class="st19" d="M141.8,74.2c1-0.1,0.6-0.1,2.1,0.1c1.3,0.2,1.9,0.8,2.1,0.9l-5.4,0c0,0,0.2-0.3,0.2-0.4
	c0.1-0.2,0.2-0.3,0.2-0.3c0-0.1,0.1-0.1,0.2-0.2c0.1,0,0.1-0.1,0.2-0.1"/>
</svg>
