<?xml version="1.0" encoding="utf-8"?>
<!-- Generator: Adobe Illustrator 25.1.0, SVG Export Plug-In . SVG Version: 6.00 Build 0)  -->
<svg version="1.1" id="Слой_1" xmlns="http://www.w3.org/2000/svg" xmlns:xlink="http://www.w3.org/1999/xlink" x="0px" y="0px"
	 viewBox="0 0 198.8 112.1" style="enable-background:new 0 0 198.8 112.1;" xml:space="preserve">
<style type="text/css">
	.st0{fill:#204385;}
	.st1{fill-rule:evenodd;clip-rule:evenodd;fill:#204385;}
	.st2{fill-rule:evenodd;clip-rule:evenodd;fill:#FFFFFF;}
	.st3{fill:url(#SVGID_1_);}
	.st4{fill:url(#SVGID_2_);}
	.st5{fill:#FFFFFF;}
</style>
<polygon class="st0" points="99.5,49.8 49.2,48.7 49.1,48 99.5,49.2 "/>
<rect y="110" class="st1" width="198.8" height="2"/>
<polygon class="st2" points="63.8,100.9 99.5,99.9 99.5,42.4 63.8,48.5 "/>
<path class="st0" d="M63.5,101.3V48.2L99.8,42v58.3L63.5,101.3 M64.1,48.7v51.9l35.1-1V42.8L64.1,48.7"/>
<path class="st0" d="M48.9,48.1c1.7-1.8,3.4-3.6,5.2-5.5c0.8-0.8,1.6-1.6,2.4-2.5c1.1-1.1,2.2-2.3,3.3-3.4c1.4-1.4,2.8-2.9,4.2-4.4
	l1.9-2c1-1.1,2-2.1,3.1-3.2c1.2-1.2,2.3-2.5,3.5-3.7l0.1-0.2l2.1,0.8c1.7,0.7,3.5,1.4,5.3,2.1c1.4,0.6,2.9,1.1,4.4,1.7
	c1.1,0.4,2.3,0.9,3.4,1.3c1.4,0.5,2.8,1.1,4.2,1.7c1.4,0.6,2.9,1.1,4.4,1.7c1.7,0.7,3.4,1.3,5.2,2c1.4,0.6,2.8,1.1,4.3,1.7
	c0,0-1.7,0.5-2.9,0.9c-0.3,0.1-0.4,0.4-0.6,0.4c-3.3,0.7-6.4,1.3-9.5,2l-5.1,1.1c-5.3,1.1-10.3,2.1-15,3.1
	c-3.7,0.8-7.3,1.5-10.7,2.2l-12.8,2.7 M72.7,24c-1.1,1.2-2.3,2.4-3.4,3.5c-1,1.1-2.1,2.2-3.1,3.2l-1.9,2c-1.4,1.5-2.8,3-4.2,4.4
	c-1.1,1.2-2.2,2.3-3.3,3.4c-0.8,0.8-1.6,1.7-2.4,2.5c-1.5,1.6-3,3.2-4.5,4.7l11.8-2.5c3.4-0.7,7-1.4,10.7-2.2c4.7-1,9.7-2,15-3.1
	l5.1-1.1c3.8-0.8,7.8-1.6,11.9-2.5c-1.1-0.4-2.2-0.9-3.3-1.3c-1.8-0.7-3.5-1.4-5.2-2c-1.5-0.6-2.9-1.2-4.4-1.7
	c-1.4-0.6-2.8-1.1-4.2-1.7c-1.2-0.5-2.3-0.9-3.4-1.3c-1.5-0.6-3-1.2-4.4-1.7c-1.8-0.7-3.6-1.4-5.3-2.1L72.7,24"/>
<g>
	<path class="st2" d="M54.3,101.1c2.2-0.1,4.4-0.2,6.6-0.2c0-8.8-0.1-17.5-0.1-26.3c0-8.8-0.1-17.5-0.1-26.3
		c-1.7-0.6-3.7-0.9-6.1-0.1c-0.1,8.8-0.1,17.6-0.1,26.5C54.4,83.5,54.4,92.3,54.3,101.1"/>
	<path class="st2" d="M66.3,100.8c2.3-0.1,4.6-0.2,6.8-0.2c0-9.1-0.1-18.3-0.1-27.4C73,64,73,54.9,73,45.8c-1.8-0.7-3.9-0.9-6.3-0.1
		c-0.1,9.2-0.1,18.4-0.1,27.6C66.4,82.4,66.4,91.6,66.3,100.8"/>
	<path class="st2" d="M78.3,100.5c2.4-0.1,4.7-0.2,7-0.3c0-9.5-0.1-19-0.1-28.5c0-9.5-0.1-19-0.1-28.5c-1.9-0.7-4-1-6.5-0.1
		c-0.1,9.6-0.1,19.1-0.1,28.7C78.4,81.3,78.4,90.9,78.3,100.5"/>
	<path class="st2" d="M90.3,100.1c2.4-0.1,4.8-0.2,7.2-0.3c0-9.9-0.1-19.7-0.1-29.6c0-9.9-0.1-19.7-0.1-29.6c-1.9-0.7-4.1-1-6.7-0.1
		c-0.1,9.9-0.1,19.9-0.1,29.8C90.4,80.3,90.4,90.2,90.3,100.1"/>
</g>
<path class="st0" d="M52,46.8l0.7-0.7c1.4-1.5,2.9-3.1,4.4-4.7c0.7-0.7,1.3-1.4,2-2.1c0.9-1,1.9-2,2.8-3c1.1-1.2,2.3-2.4,3.5-3.7
	l1.7-1.8c0.9-0.9,1.7-1.8,2.6-2.8c1-1,2-2.1,3-3.2l0.1-0.2l1.8,0.7c1.5,0.6,3,1.2,4.5,1.8c1.2,0.5,2.5,1,3.7,1.5
	c1,0.4,1.9,0.8,2.9,1.2c1.2,0.5,2.4,0.9,3.6,1.4c1.2,0.5,2.5,1,3.7,1.5c1.4,0.6,2.9,1.1,4.4,1.7c1.2,0.5,2.4,1,3.7,1.4l1,0.4l-1,0.2
	c-3.8,0.8-7.5,1.6-10.9,2.3l-4.4,0.9c-4.5,0.9-8.8,1.8-12.8,2.7c-3.1,0.6-6,1.2-8.8,1.8L52,46.8 M73.1,25.5c-1,1-1.9,2-2.8,3
	c-0.9,0.9-1.8,1.9-2.6,2.8l-1.7,1.8c-1.2,1.3-2.4,2.5-3.5,3.7c-0.9,1-1.9,2-2.8,3c-0.7,0.7-1.3,1.4-2,2.1c-1.3,1.3-2.5,2.7-3.7,3.9
	l10.2-2.1c2.8-0.6,5.7-1.2,8.8-1.8c4-0.8,8.3-1.7,12.8-2.7l4.4-0.9c3.2-0.7,6.5-1.3,9.9-2.1c-0.9-0.4-1.8-0.7-2.7-1
	c-1.5-0.6-3-1.2-4.4-1.7c-1.3-0.5-2.5-1-3.7-1.5c-1.2-0.5-2.4-0.9-3.6-1.4c-1-0.4-2-0.8-2.9-1.2c-1.3-0.5-2.5-1-3.7-1.5
	c-1.5-0.6-3-1.2-4.5-1.8L73.1,25.5"/>
<polygon class="st2" points="36.8,110 89.2,110 89.2,107.4 36.8,107.8 "/>
<path class="st0" d="M89.6,110.3h-53v-2.8l53-0.4V110.3 M37.1,109.7h51.8v-1.9l-51.8,0.4V109.7"/>
<path class="st2" d="M38.9,107.9c17.5-0.1,34.9-0.3,52.4-0.4c0-0.8,0-1.7,0-2.5c-17.5,0.3-35,0.5-52.4,0.8
	C38.9,106.5,38.9,107.2,38.9,107.9"/>
<path class="st0" d="M38.6,108.1v-2.7l11.2-0.2l41.9-0.6l0,3L38.6,108.1 M39.2,106v1.5l51.8-0.4l0-1.8L39.2,106"/>
<path class="st2" d="M40.9,105.8c17.5-0.3,34.9-0.6,52.4-0.8c0-0.8,0-1.6,0-2.5c-17.5,0.4-35,0.8-52.5,1.1
	C40.9,104.3,40.9,105.1,40.9,105.8"/>
<path class="st0" d="M40.6,106v-2.7l53.1-1.1l0,3l-0.3,0L40.6,106 M41.3,103.9v1.5l51.8-0.8l0-1.8L41.3,103.9"/>
<polygon class="st2" points="43,103.7 95.4,102.4 95.5,100 43,101.5 "/>
<path class="st0" d="M42.7,103.9v-2.7l53.1-1.5l-0.1,3L42.7,103.9 M43.3,101.8v1.5l51.8-1.2l0-1.7L43.3,101.8"/>
<polygon class="st0" points="99.8,110 99.2,110 99.2,100.3 95.5,100.3 95.5,99.6 99.8,99.6 "/>
<polygon class="st0" points="49.8,47.8 43.8,47.4 43.8,46.7 49.9,47.2 "/>
<polygon class="st0" points="55.7,46 55.3,45.5 74.1,25.5 74.6,25.9 "/>
<rect x="76.8" y="0.8" class="st0" width="0.6" height="23.4"/>
<path class="st1" d="M77.1,1c4.9-1.7,10.6,0.5,16,0c-1.2,1.1-2.4,2.2-3.6,3.2c1.2,1.1,2.4,2.2,3.6,3.3c-5.3,0-11.3-1.3-16,0
	C77.1,5.4,77.1,3.2,77.1,1"/>
<path class="st0" d="M76.8,8V0.8L77,0.7C78.3,0.2,79.8,0,81.6,0c1.6,0,3.3,0.2,4.9,0.4c1.6,0.2,3.3,0.4,5,0.4c0.6,0,1.1,0,1.6-0.1
	l1-0.1L90,4.2l4,3.6h-0.8c-1.8,0-3.7-0.1-5.5-0.3c-1.8-0.1-3.7-0.3-5.4-0.3c-2,0-3.6,0.2-5,0.6L76.8,8 M82.2,6.7
	c1.8,0,3.7,0.1,5.5,0.3c1.5,0.1,3.1,0.2,4.6,0.3l-3.3-3l3.2-2.9c-0.2,0-0.5,0-0.8,0c-1.7,0-3.4-0.2-5.1-0.4
	c-1.6-0.2-3.3-0.4-4.8-0.4c-1.6,0-2.9,0.2-4.1,0.6v5.9C78.8,6.8,80.4,6.7,82.2,6.7"/>
<path class="st1" d="M43.8,46.7l-16.7,3.7c-5.1,1.1-10.1,2.2-14.9,3.3v28.2V110h14.9h16.7v0h-7v-2.2l2,0v-1.4l-4.7,0.1
	c0-9.1,0-18.1,0-27.2c0-9.1,0-18.1,0-27.2l6.2-1.3c0,9.3,0,18.6,0,27.8c0,9.1,0,18.1,0,27.2l0.5,0v-2.1l2,0v-2.1l0.8,0V78.4V46.7
	 M29.9,52.9c0,8.9,0,17.9,0,26.8v26.8l-5.7,0.1V80.3c0-8.7,0-17.5,0-26.2L29.9,52.9 M14.9,56l5.3-1.1c0,8.6,0,17.2,0,25.8
	c0,8.6,0,17.2,0,25.8l-5.3,0.1c0-8.4,0-16.9,0-25.3C14.9,72.9,14.9,64.5,14.9,56"/>
<path class="st1" d="M87.6,29.3c2.8,1.1,5.6,2.3,8.6,3.5c1.1,0.4,2.2,0.9,3.3,1.3V34c6.5-1.5,13.2-3,20.2-4.6l-42.6-5.6l-4.5-0.6
	c2.3,0.9,4.7,1.9,7.1,2.9C82.3,27.2,84.9,28.3,87.6,29.3"/>
<polygon class="st1" points="143.9,24.6 143.9,67.3 143.9,110 191.7,110 191.7,33.1 "/>
<linearGradient id="SVGID_1_" gradientUnits="userSpaceOnUse" x1="143.858" y1="45.9556" x2="191.74" y2="45.9556" gradientTransform="matrix(1 0 0 -1 0 113.2756)">
	<stop  offset="0" style="stop-color:#12397F"/>
	<stop  offset="0.713" style="stop-color:#3A71CE"/>
	<stop  offset="1" style="stop-color:#3A71CE"/>
</linearGradient>
<path class="st3" d="M191.7,110.1h-47.9V24.6l0,0l47.9,8.4L191.7,110.1 M143.9,110h47.8v-77l-47.8-8.4V110"/>
<g>
	<path class="st1" d="M97.4,49.5c0-2.2,0-4.5,0-6.7c0-0.7,0-1.4,0-2.1c-1.9-0.7-4.1-1-6.7-0.1c0,1.1,0,2.2,0,3.4c0,1.8,0,3.6,0,5.4
		c0,7-0.1,14-0.1,21l-0.1,29.8l7.2-0.3c0-9.9-0.1-19.7-0.1-29.6C97.4,63.3,97.4,56.4,97.4,49.5"/>
	<path class="st1" d="M85.3,71.7c0-7.5-0.1-15-0.1-22.5c0-1.5,0-2.9,0-4.4c0-0.5,0-1.1,0-1.6c-1.9-0.7-4-1-6.5-0.1c0,1,0,1.9,0,2.8
		c0,1,0,2.1,0,3.1c0,7.6-0.1,15.2-0.1,22.7l-0.1,28.7l7-0.3C85.3,90.7,85.3,81.2,85.3,71.7"/>
	<path class="st1" d="M73.1,73.2C73,65.1,73,57,73,48.9c0-0.7,0-1.3,0-2c0-0.4,0-0.8,0-1.1c-1.8-0.7-3.9-0.9-6.3-0.1
		c0,0.8,0,1.6,0,2.3c0,0.3,0,0.5,0,0.8c0,8.2-0.1,16.3-0.1,24.5c0,9.2-0.1,18.4-0.1,27.6l6.8-0.2C73.1,91.4,73.1,82.3,73.1,73.2"/>
	<path class="st1" d="M60.9,74.6c0-8.7-0.1-17.3-0.1-26c0-0.1,0-0.2,0-0.3c-1.7-0.6-3.7-0.9-6.1-0.1c0,0.1,0,0.2,0,0.3
		c-0.1,8.7-0.1,17.5-0.1,26.2c0,8.8-0.1,17.6-0.1,26.5l6.6-0.2C60.9,92.1,60.9,83.4,60.9,74.6"/>
	<path class="st1" d="M62.2,44.4L73,42.1l12.8-2.7c4.3-0.9,8.9-1.9,13.8-2.9v-1c-2.2-0.9-4.4-1.7-6.4-2.5c-2.5-1-4.9-2-7.3-2.9
		c-2.3-0.9-4.5-1.8-6.7-2.6c-1.6-0.6-3.2-1.3-4.7-1.9l-18.9,20L62.2,44.4 M72,34.8c0-2.8,1.4-5,3.1-5s3.1,2.3,3.1,5
		c0,2.8-1.4,5-3.1,5S72,37.6,72,34.8"/>
</g>
<g>
	<path class="st1" d="M129.3,31.7l8.4-1.7c0,12.5,0,25,0,37.5c0,12.5,0,25,0,37.5l-8.4,0.1c0-12.2,0-24.5,0-36.7
		C129.3,56.2,129.3,44,129.3,31.7 M142.3,67.3V24.6l-22.7,5c-7,1.5-13.7,3-20.2,4.4v0.2v1.4v1v1.3v4.5v7.1V72v27.9v0v10v0h20.2h22.7
		L142.3,67.3 M123.5,32.9c0,12.1,0,24.1,0,36.2v36.2l-7.8,0.1V69.9c0-11.8,0-23.6,0-35.4L123.5,32.9 M103.2,37.1l7.2-1.5
		c0,11.6,0,23.3,0,34.9c0,11.6,0,23.3,0,34.9l-7.2,0.1c0-11.4,0-22.8,0-34.2C103.1,59.9,103.1,48.5,103.2,37.1"/>
	<polygon class="st2" points="145.4,27.4 145.4,67.3 145.4,107.3 190.2,107.3 190.2,35.3 	"/>
</g>
<linearGradient id="SVGID_2_" gradientUnits="userSpaceOnUse" x1="145.41" y1="45.9561" x2="190.191" y2="45.9561" gradientTransform="matrix(1 0 0 -1 0 113.2756)">
	<stop  offset="0" style="stop-color:#12397F"/>
	<stop  offset="0.713" style="stop-color:#3A71CE"/>
	<stop  offset="1" style="stop-color:#3A71CE"/>
</linearGradient>
<path class="st4" d="M190.2,107.3h-44.8V27.4l0,0l44.8,7.9L190.2,107.3L190.2,107.3z M145.4,107.2h44.7v-72l-44.7-7.9V107.2"/>
<polygon class="st5" points="99.5,38.4 99.4,38.4 99.4,34 99.4,34 120.1,29.3 120.1,29.4 99.5,34 "/>
</svg>
