<?xml version="1.0" encoding="utf-8"?>
<!-- Generator: Adobe Illustrator 25.1.0, SVG Export Plug-In . SVG Version: 6.00 Build 0)  -->
<svg version="1.1" id="Слой_1" xmlns="http://www.w3.org/2000/svg" xmlns:xlink="http://www.w3.org/1999/xlink" x="0px" y="0px"
	 viewBox="0 0 155.1 79.5" style="enable-background:new 0 0 155.1 79.5;" xml:space="preserve">
<style type="text/css">
	.st0{fill:#204385;}
	.st1{fill:#FFFFFF;}
	.st2{fill-rule:evenodd;clip-rule:evenodd;fill:#204385;}
</style>
<rect x="101.1" y="67.7" class="st0" width="1.1" height="6.3"/>
<rect x="90" y="67.7" class="st0" width="1.1" height="6.3"/>
<rect x="78.7" y="67.7" class="st0" width="1.1" height="6.3"/>
<rect x="67.1" y="67.7" class="st0" width="1.1" height="6.3"/>
<rect x="55.8" y="67.7" class="st0" width="1.1" height="6.3"/>
<rect x="44.4" y="67.7" class="st0" width="1.1" height="6.3"/>
<polygon class="st0" points="89.2,55.1 17,55.1 17,54.2 87.1,54.2 "/>
<path class="st0" d="M30.5,54.2h-1.3c1,0.2,3.8,0.7,6.2,3c2.1,2,3.1,4.1,3.6,5.2c3.9,0,7.4,0,11.3,0c-2.1-1.7-5.2-3.6-9-5.3
	C37.2,55.4,33.3,54.6,30.5,54.2z"/>
<path class="st0" d="M41.8,54.2h-1.3c1,0.2,3.8,0.7,6.2,3c2.1,2,3.1,4.1,3.6,5.2c3.9,0,7.4,0,11.3,0c-2.1-1.7-5.2-3.6-9-5.3
	C48.5,55.4,44.7,54.6,41.8,54.2z"/>
<path class="st0" d="M53.1,54.2h-1.3c1,0.2,3.8,0.7,6.2,3c2.1,2,3.1,4.1,3.6,5.2c3.9,0,7.4,0,11.3,0c-2.1-1.7-5.2-3.6-9-5.3
	C59.8,55.4,56,54.6,53.1,54.2z"/>
<path class="st0" d="M64.4,54.2h-1.3c1,0.2,3.8,0.7,6.2,3c2.1,2,3.1,4.1,3.6,5.2c3.9,0,7.4,0,11.3,0c-2.1-1.7-5.2-3.6-9-5.3
	C71.1,55.4,67.3,54.6,64.4,54.2z"/>
<path class="st0" d="M75.7,54.2h-1.3c1,0.2,3.8,0.7,6.2,3c2.1,2,3.1,4.1,3.6,5.2c3.9,0,7.4,0,11.3,0c-2.1-1.7-5.2-3.6-9-5.3
	C82.4,55.4,78.6,54.6,75.7,54.2z"/>
<rect x="39.8" y="67.1" class="st0" width="67.1" height="1.2"/>
<rect x="39.8" y="70.3" class="st0" width="67.1" height="1.2"/>
<path class="st0" d="M87.1,54.2h-1.3c1,0.2,3.8,0.7,6.2,3c2.1,2,3.1,4.1,3.6,5.2c3.9,0,7.4,0,11.3,0c-2.1-1.7-5.2-3.6-9-5.3
	C93.7,55.4,89.9,54.6,87.1,54.2z"/>
<rect x="39.8" y="73.7" class="st0" width="67.1" height="1.2"/>
<path class="st0" d="M37.9,62.4c-5.9-4.8-12.6-8.2-20.6-8.2c-4.5,0-9.4,2.7-12,8.2H37.9z"/>
<polygon class="st0" points="48.8,62.4 51.9,52.7 51.9,78 50.4,78 "/>
<polygon class="st0" points="60.2,62.4 63.2,52.7 63.2,78 61.7,78 "/>
<polygon class="st0" points="36.8,62.4 39.8,52.7 39.8,78 38.3,78 "/>
<polygon class="st0" points="83,62.4 86,52.7 86,78 84.5,78 "/>
<polygon class="st0" points="94.4,62.4 97.4,52.7 97.4,78 95.9,78 "/>
<polygon class="st0" points="71.8,62.4 74.8,52.7 74.8,78 73.3,78 "/>
<polygon class="st0" points="7.2,62.4 4.2,52.7 4.2,78 5.7,78 "/>
<rect x="107.4" y="67.7" class="st0" width="36" height="10.3"/>
<polygon class="st0" points="105.4,62.4 108.4,52.7 108.4,78 107,78 "/>
<path class="st0" d="M127.5,37.4l-4.4-7.1l11.5-7.8l-5.5-1.9l-16,5.3l-16.5-5.1l12.1-3.1l-4.2-1.2l-20.8,0.7l-14.7-4
	c-3.5-1-9.2-1.6-12.8-1.2c-11.1,1,4,5.7,6.4,6.3l14.1,3.8L96.5,46l4.2,1.2L92,26.5l7.5,2c4.5,1.3,10.3,2.3,15.3,2.3l3,0.3l5.4,5
	L127.5,37.4z"/>
<rect x="110.4" y="70" class="st1" width="9.2" height="1.6"/>
<rect x="121.2" y="70" class="st1" width="9.2" height="1.6"/>
<rect x="132" y="70" class="st1" width="9.2" height="1.6"/>
<rect x="110.4" y="72.7" class="st1" width="9.2" height="1.6"/>
<rect x="121.2" y="72.7" class="st1" width="9.2" height="1.6"/>
<rect x="132" y="72.7" class="st1" width="9.2" height="1.6"/>
<g>
	<rect y="78" class="st2" width="152.4" height="1.5"/>
</g>
<polygon class="st0" points="126,61.4 114.7,61.4 113.3,67.1 127.5,67.1 "/>
<rect x="113.6" y="64" class="st1" width="13.3" height="0.5"/>
<rect x="14.5" y="36.4" class="st0" width="6.8" height="41.6"/>
<polygon class="st0" points="23.1,31.2 12.8,31.2 14.5,36.4 21.3,36.4 "/>
<polyline class="st0" points="25,27.7 24,31.2 11.9,31.2 10.8,27.7 "/>
<polyline class="st0" points="27.6,19.5 25.7,26.7 10.1,26.7 8.2,19.5 "/>
<polyline class="st0" points="26,18.5 24.4,16.9 11.5,16.9 9.9,18.5 "/>
<polyline class="st0" points="23.8,11.8 22.6,16.9 13.2,16.9 12.1,11.8 "/>
<polyline class="st0" points="22.2,11.8 21.4,10.8 14.5,10.8 13.7,11.8 "/>
<rect x="12.4" y="13.4" class="st0" width="11.2" height="0.4"/>
<rect x="12.8" y="15.1" class="st0" width="10.4" height="0.4"/>
</svg>
