<?xml version="1.0" encoding="utf-8"?>
<!-- Generator: Adobe Illustrator 25.1.0, SVG Export Plug-In . SVG Version: 6.00 Build 0)  -->
<svg version="1.1" id="Слой_1" xmlns="http://www.w3.org/2000/svg" xmlns:xlink="http://www.w3.org/1999/xlink" x="0px" y="0px"
	 viewBox="0 0 152.4 73.7" style="enable-background:new 0 0 152.4 73.7;" xml:space="preserve">
<style type="text/css">
	.st0{fill-rule:evenodd;clip-rule:evenodd;fill:#204385;}
	.st1{fill:#FFFFFF;}
	.st2{fill-rule:evenodd;clip-rule:evenodd;fill:#FFFFFF;}
	.st3{fill:#204385;}
</style>
<g>
	<rect y="72.2" class="st0" width="152.4" height="1.5"/>
	<path class="st0" d="M11.4,72.2c11.4,0,24,0,38,0c15.6,0,33.2,0,53,0c0-12,0-24,0-36.1s0-24.1,0-36.1C82.6,4.5,65,8.4,49.4,11.9
		c-14,3.1-26.6,6-38,8.5c0,8.6,0,17.3,0,25.9C11.4,54.9,11.4,63.6,11.4,72.2 M90.2,6c3-0.6,6-1.3,9.1-1.9c0,3.4,0,6.7,0,10.1
		c-3.1,0.6-6.1,1.1-9.1,1.7C90.2,12.6,90.2,9.3,90.2,6 M90.2,21.3c3-0.5,6-1,9.1-1.5c0,3.4,0,6.7,0,10.1c-3.1,0.4-6.1,0.8-9.1,1.2
		C90.2,27.8,90.2,24.6,90.2,21.3 M90.2,36.6c3-0.3,6-0.7,9.1-1c0,3.4,0,6.7,0,10.1c-3.1,0.3-6.1,0.5-9.1,0.8
		C90.2,43.1,90.2,39.9,90.2,36.6 M90.2,51.9c3-0.2,6-0.4,9.1-0.6c0,3.4,0,6.7,0,10.1c-3.1,0.1-6.1,0.2-9.1,0.3
		C90.2,58.4,90.2,55.1,90.2,51.9 M79.1,8.4c2.8-0.6,5.6-1.2,8.4-1.8c0,3.2,0,6.5,0,9.7c-2.8,0.5-5.7,1-8.4,1.5
		C79.1,14.7,79.1,11.5,79.1,8.4 M68.7,10.6c2.6-0.5,5.2-1.1,7.8-1.7c0,3.1,0,6.2,0,9.4c-2.7,0.5-5.3,1-7.8,1.4
		C68.7,16.7,68.7,13.7,68.7,10.6 M59.2,12.7c2.4-0.5,4.8-1,7.3-1.6c0,3,0,6,0,9c-2.5,0.5-4.9,0.9-7.3,1.3
		C59.2,18.5,59.2,15.6,59.2,12.7 M50.2,14.6c2.2-0.5,4.5-1,6.8-1.5c0,2.9,0,5.8,0,8.7c-2.3,0.4-4.6,0.8-6.8,1.2
		C50.2,20.3,50.2,17.4,50.2,14.6 M79.1,23.1c2.8-0.5,5.6-0.9,8.4-1.4c0,3.2,0,6.5,0,9.7c-2.8,0.4-5.7,0.8-8.4,1.1
		C79.1,29.4,79.1,26.3,79.1,23.1 M68.7,24.8c2.6-0.4,5.2-0.9,7.8-1.3c0,3.1,0,6.2,0,9.4c-2.7,0.4-5.3,0.7-7.8,1
		C68.7,30.9,68.7,27.9,68.7,24.8 M59.2,26.4c2.4-0.4,4.8-0.8,7.3-1.2c0,3,0,6,0,9c-2.5,0.3-4.9,0.7-7.3,1
		C59.2,32.3,59.2,29.4,59.2,26.4 M50.2,27.9c2.2-0.4,4.5-0.7,6.8-1.1c0,2.9,0,5.8,0,8.7c-2.3,0.3-4.6,0.6-6.8,0.9
		C50.2,33.6,50.2,30.7,50.2,27.9 M79.1,37.9c2.8-0.3,5.6-0.6,8.4-1c0,3.2,0,6.5,0,9.7c-2.9,0.2-5.7,0.5-8.4,0.7
		C79.1,44.2,79.1,41,79.1,37.9 M68.8,39.1c2.6-0.3,5.2-0.6,7.8-0.9c0,3.1,0,6.2,0,9.4c-2.7,0.2-5.3,0.4-7.8,0.7
		C68.8,45.1,68.8,42.1,68.8,39.1 M59.2,40.2c2.4-0.3,4.8-0.6,7.3-0.8c0,3,0,6,0,9c-2.5,0.2-4.9,0.4-7.3,0.6
		C59.2,46,59.2,43.1,59.2,40.2 M50.2,41.2c2.2-0.3,4.5-0.5,6.8-0.8c0,2.9,0,5.8,0,8.7c-2.3,0.2-4.6,0.4-6.9,0.6
		C50.2,46.9,50.2,44,50.2,41.2 M79.1,52.6c2.8-0.2,5.6-0.4,8.4-0.6c0,3.2,0,6.5,0,9.7c-2.9,0.1-5.7,0.2-8.4,0.3
		C79.1,58.9,79.1,55.8,79.1,52.6 M68.8,53.3c2.6-0.2,5.2-0.3,7.8-0.5c0,3.1,0,6.2,0,9.3c-2.7,0.1-5.3,0.2-7.9,0.3
		C68.7,59.4,68.7,56.3,68.8,53.3 M59.2,53.9c2.4-0.2,4.8-0.3,7.3-0.5c0,3,0,6,0,9c-2.5,0.1-4.9,0.2-7.3,0.2
		C59.2,59.8,59.2,56.9,59.2,53.9 M41.8,16.4c2.1-0.4,4.3-0.9,6.4-1.4c0,2.8,0,5.6,0,8.4c-2.2,0.4-4.3,0.8-6.4,1.2
		C41.8,21.9,41.8,19.1,41.8,16.4 M41.8,29.3c2.1-0.3,4.3-0.7,6.4-1.1c0,2.8,0,5.6,0,8.5c-2.2,0.3-4.3,0.6-6.4,0.9
		C41.8,34.8,41.8,32,41.8,29.3 M41.8,42.2c2.1-0.2,4.3-0.5,6.4-0.7c0,2.8,0,5.6,0,8.5c-2.2,0.2-4.3,0.4-6.4,0.5
		C41.8,47.7,41.8,44.9,41.8,42.2 M33.9,18.1c2-0.4,4-0.9,6-1.3c0,2.7,0,5.5,0,8.2c-2,0.4-4.1,0.7-6,1.1
		C33.9,23.4,33.9,20.7,33.9,18.1 M33.9,30.6c2-0.3,4-0.7,6-1c0,2.7,0,5.5,0,8.2c-2,0.3-4.1,0.5-6,0.8C33.9,35.9,33.9,33.3,33.9,30.6
		 M33.9,43.1c2-0.2,4-0.5,6-0.7c0,2.7,0,5.5,0,8.2c-2,0.2-4.1,0.3-6,0.5C33.9,48.4,33.9,45.8,33.9,43.1 M33.9,55.6
		c2-0.1,4-0.3,6-0.4c0,2.7,0,5.5,0,8.2c-2,0.1-4.1,0.1-6,0.2C33.9,60.9,33.9,58.3,33.9,55.6 M26.5,19.7c1.9-0.4,3.8-0.8,5.7-1.2
		c0,2.7,0,5.3,0,7.9c-1.9,0.4-3.8,0.7-5.7,1C26.5,24.8,26.5,22.3,26.5,19.7 M26.5,31.8c1.9-0.3,3.8-0.6,5.7-0.9c0,2.7,0,5.3,0,7.9
		c-1.9,0.3-3.8,0.5-5.7,0.8C26.5,37,26.5,34.4,26.5,31.8 M26.5,43.9c1.9-0.2,3.8-0.4,5.7-0.7c0,2.7,0,5.3,0,7.9
		c-1.9,0.2-3.8,0.3-5.7,0.5C26.5,49.1,26.5,46.5,26.5,43.9 M26.5,56.1c1.9-0.1,3.8-0.2,5.7-0.4c0,2.6,0,5.3,0,7.9
		c-1.9,0.1-3.8,0.1-5.7,0.2C26.4,61.3,26.4,58.7,26.5,56.1 M19.5,21.2c1.8-0.4,3.6-0.8,5.4-1.1c0,2.6,0,5.1,0,7.7
		c-1.8,0.3-3.6,0.7-5.4,1C19.5,26.2,19.5,23.7,19.5,21.2 M19.5,33c1.8-0.3,3.5-0.6,5.4-0.9c0,2.6,0,5.1,0,7.7
		c-1.8,0.2-3.6,0.5-5.4,0.7C19.5,38,19.5,35.5,19.5,33 M19.5,44.7c1.8-0.2,3.5-0.4,5.4-0.6c0,2.6,0,5.1,0,7.7
		c-1.8,0.2-3.6,0.3-5.4,0.4C19.5,49.8,19.5,47.3,19.5,44.7 M19.4,56.5c1.8-0.1,3.5-0.2,5.4-0.4c0,2.6,0,5.1,0,7.7
		C23,64,21.2,64,19.5,64.1C19.5,61.6,19.5,59.1,19.4,56.5 M12.9,22.6c1.7-0.4,3.4-0.7,5.1-1.1c0,2.5,0,5,0,7.5
		c-1.7,0.3-3.4,0.6-5.1,0.9C12.9,27.5,12.9,25,12.9,22.6 M12.9,34.1c1.7-0.3,3.4-0.6,5.1-0.8c0,2.5,0,5,0,7.5
		c-1.7,0.2-3.4,0.5-5.1,0.7C12.9,38.9,12.9,36.5,12.9,34.1 M12.9,45.5c1.7-0.2,3.4-0.4,5.1-0.6c0,2.5,0,5,0,7.5
		c-1.7,0.1-3.4,0.3-5.1,0.4C12.8,50.4,12.8,48,12.9,45.5 M12.8,57c1.7-0.1,3.4-0.2,5.1-0.3c0,2.5,0,5,0,7.5
		c-1.7,0.1-3.4,0.1-5.1,0.2C12.8,61.9,12.8,59.4,12.8,57"/>
	<polygon class="st0" points="103,0 141.5,12.2 141.5,72.2 103,72.2 	"/>
</g>
<g>
	<path class="st1" d="M55.8,72.3H35.5v-1.1h20.3V72.3 M35.9,72h19.6v-0.5H35.9V72"/>
	<path class="st1" d="M36.3,71.6v-1.1l20.3-0.1l0,1.2L36.3,71.6 M36.6,70.7v0.5l19.6-0.1l0-0.5L36.6,70.7"/>
	<path class="st1" d="M37.1,70.8v-1.1l20.3-0.1l0,1.2L37.1,70.8 M37.4,69.9v0.5L57,70.3l0-0.5L37.4,69.9"/>
	<path class="st1" d="M37.9,69.9v-1.1l20.3-0.2l0,1.2L37.9,69.9 M38.2,69.1v0.5l19.6-0.2l0-0.6L38.2,69.1"/>
	<polygon class="st2" points="42,55 57,54 57,68.5 42,68.6 	"/>
	<path class="st3" d="M41.8,68.8v-14l15.3-1v14.8L41.8,68.8 M42.1,55.1v13.4l14.7-0.1V54.2L42.1,55.1"/>
	<polygon class="st1" points="59.7,72.2 59.4,72.2 59.4,68.9 58,68.9 58,68.6 59.7,68.6 	"/>
</g>
<rect x="49.3" y="54.5" class="st3" width="0.3" height="14.3"/>
<g>
	<path class="st3" d="M31.7,53.9v-1.1l19.6-1.5v1.2L31.7,53.9 M32,53.1v0.4l19-1.3v-0.6L32,53.1"/>
	<path class="st3" d="M60.3,53.2L51,52.5v-1.3l9.3,0.4L60.3,53.2 M51.3,52.2l8.6,0.6V52l-8.6-0.4V52.2"/>
	<polygon class="st3" points="40,54.4 31.8,53.9 31.8,53.5 40,54.1 60.1,52.9 60.1,53.2 	"/>
</g>
<g>
	<polygon class="st0" points="36.4,52.6 46.9,51.8 46.9,47.1 36.4,48.2 	"/>
	<path class="st2" d="M37.1,48.3l0.4,0v3.4l0.5,0v-3.4l0.4,0v3.4l0.5-0.1v-3.4l0.4,0l0,4.1l-2.2,0.2L37.1,48.3 M39.6,48.1l0.4,0v1.7
		c0.1,0,0.1-0.1,0.2-0.2s0.1-0.3,0.1-0.6c0.1-0.4,0.2-0.7,0.2-0.8c0.1-0.1,0.2-0.2,0.4-0.2c0,0,0,0,0.1,0v0.6l-0.1,0
		c-0.1,0-0.1,0-0.2,0.1c0,0-0.1,0.1-0.1,0.2c0,0.1-0.1,0.3-0.1,0.5c0,0.1,0,0.3-0.1,0.4c0,0.1-0.1,0.2-0.1,0.3
		c0.1,0,0.1,0.1,0.2,0.3c0.1,0.2,0.1,0.4,0.2,0.7L41,52l-0.4,0l-0.2-1c0,0,0,0,0-0.1c0,0,0-0.1,0-0.2c0-0.2-0.1-0.3-0.1-0.4
		c0,0-0.1-0.1-0.1-0.1v1.8l-0.4,0L39.6,48.1L39.6,48.1 M41.1,50c0-0.4,0-0.8,0.1-1.1c0-0.2,0.1-0.4,0.2-0.6c0.1-0.2,0.1-0.3,0.2-0.4
		c0.1-0.1,0.2-0.2,0.4-0.2c0.3,0,0.5,0.1,0.6,0.5c0.2,0.4,0.2,0.9,0.2,1.5c0,0.7-0.1,1.2-0.2,1.6C42.5,51.8,42.2,52,42,52
		c-0.3,0-0.5-0.1-0.6-0.5C41.2,51.1,41.1,50.6,41.1,50 M41.5,49.9c0,0.5,0,0.8,0.1,1c0.1,0.2,0.2,0.3,0.4,0.3s0.3-0.1,0.4-0.4
		c0.1-0.2,0.1-0.6,0.1-1.1c0-0.5,0-0.8-0.1-1s-0.2-0.3-0.4-0.3c-0.2,0-0.3,0.1-0.4,0.4C41.5,49.1,41.5,49.5,41.5,49.9 M43.2,47.7
		l1.3-0.1v4.1l-0.4,0v-3.4l-0.5,0.1v1.7c0,0.5,0,0.8,0,1c0,0.2-0.1,0.4-0.1,0.5c-0.1,0.1-0.1,0.2-0.3,0.2c0,0-0.1,0-0.2,0v-0.6
		l0.1,0c0.1,0,0.1,0,0.2-0.1s0-0.2,0-0.3v-0.7L43.2,47.7L43.2,47.7 M46.5,51.5l-0.4,0l-0.2-0.9l-0.7,0.1l-0.2,0.9l-0.4,0l0.7-4.1
		l0.4,0L46.5,51.5 M45.8,49.9l-0.3-1.5L45.3,50L45.8,49.9"/>
</g>
</svg>
