<?xml version="1.0" encoding="utf-8"?>
<!-- Generator: Adobe Illustrator 25.1.0, SVG Export Plug-In . SVG Version: 6.00 Build 0)  -->
<svg version="1.1" id="Слой_1" xmlns="http://www.w3.org/2000/svg" xmlns:xlink="http://www.w3.org/1999/xlink" x="0px" y="0px"
	 viewBox="0 0 155.1 79.5" style="enable-background:new 0 0 155.1 79.5;" xml:space="preserve">
<style type="text/css">
	.st0{fill-rule:evenodd;clip-rule:evenodd;fill:#204385;}
	.st1{fill-rule:evenodd;clip-rule:evenodd;fill:#FFFFFF;}
	.st2{fill:#204385;}
	.st3{fill:#FFFFFF;}
</style>
<g>
	<path class="st0" d="M122.1,13.9l-3.7,2.1c-0.6,0.3-0.6,1.2-0.2,2l4.4,6.9c0.5,0.8,1.4,1.1,1.9,0.8l1.3-0.7V30
		c-5.1-2.6-11.4-5.1-18.7-7v-8.2h0l1.7-1c0.8-0.5,0.9-1.7,0.2-2.8l-6.1-9.7c-0.7-1.1-1.9-1.6-2.7-1.1l-5.2,2.9
		c-0.8,0.5-0.9,1.7-0.2,2.8l6.1,9.7c0.7,1.1,1.9,1.6,2.7,1.1l1.9-1v6.9c-11.6-3-25.4-4.9-40.5-4.7c-8,0.1-14.8,0.5-20.6,1.3v-1
		l1.2,0.7c0.5,0.3,1.3,0,1.7-0.7l3.8-6.2c0.4-0.7,0.4-1.5-0.1-1.8l-3.2-1.8c-0.5-0.3-1.3,0-1.7,0.7l-3.8,6.2
		c-0.4,0.7-0.4,1.5,0.1,1.8l1.1,0.6v1.7c-5.7,0.8-10.2,1.9-13.9,3.1v-6.6l1.8,1c0.8,0.5,2-0.1,2.6-1.1l6-9.7
		c0.7-1.1,0.6-2.3-0.2-2.8l-5-2.9c-0.8-0.4-2,0.1-2.6,1.1l-6,9.7c-0.7,1.1-0.6,2.3,0.2,2.8l1.7,1v8c-10.4,4-12.9,9.7-12.8,14.6
		c0.2,8.4,23.9,18.2,60.3,18.2c36.4,0,64.1,0.1,64.1-11.4c0-4.4-4.6-9.3-12.7-13.6v-6.4l1.2-0.7c0.6-0.3,0.6-1.2,0.2-2l-4.4-6.9
		C123.6,13.9,122.7,13.5,122.1,13.9 M28.7,9.5c0.4,0.2,0.2,1.2-0.4,2.2c-0.6,1-1.4,1.6-1.8,1.4c-0.4-0.2-0.2-1.2,0.4-2.2
		C27.5,9.8,28.3,9.2,28.7,9.5 M31.3,5.2c0.4,0.2,0.2,1.2-0.4,2.2c-0.6,1-1.4,1.6-1.8,1.4c-0.4-0.2-0.2-1.2,0.4-2.2
		C30.1,5.5,30.9,4.9,31.3,5.2 M34,0.9c0.4,0.2,0.2,1.2-0.4,2.2c-0.6,1-1.4,1.6-1.8,1.4c-0.4-0.2-0.2-1.2,0.4-2.2
		C32.8,1.3,33.6,0.6,34,0.9 M30.6,10.6c0.4,0.2,0.2,1.2-0.4,2.2c-0.6,1-1.4,1.6-1.8,1.4s-0.2-1.2,0.4-2.2
		C29.4,10.9,30.2,10.3,30.6,10.6 M33.3,6.3c0.4,0.2,0.2,1.2-0.4,2.2c-0.6,1-1.4,1.6-1.8,1.4c-0.4-0.2-0.2-1.2,0.4-2.2
		C32,6.6,32.8,6,33.3,6.3 M35.9,2c0.4,0.2,0.2,1.2-0.4,2.2c-0.6,1-1.4,1.6-1.8,1.4c-0.4-0.2-0.2-1.2,0.4-2.2
		C34.7,2.4,35.5,1.7,35.9,2 M32.5,11.7c0.4,0.2,0.2,1.2-0.4,2.2c-0.6,1-1.4,1.6-1.8,1.4S30.1,14,30.7,13
		C31.3,12,32.1,11.4,32.5,11.7 M35.2,7.4c0.4,0.2,0.2,1.2-0.4,2.2c-0.6,1-1.4,1.6-1.8,1.4c-0.4-0.2-0.2-1.2,0.4-2.2
		C33.9,7.7,34.8,7.1,35.2,7.4 M37.8,3.1c0.4,0.2,0.2,1.2-0.4,2.2c-0.6,1-1.4,1.6-1.8,1.4c-0.4-0.2-0.2-1.2,0.4-2.2
		C36.6,3.5,37.4,2.8,37.8,3.1 M34.4,12.8c0.4,0.2,0.2,1.2-0.4,2.2c-0.6,1-1.4,1.6-1.8,1.4c-0.4-0.2-0.2-1.2,0.4-2.2
		C33.2,13.1,34,12.5,34.4,12.8 M37.1,8.5c0.4,0.2,0.2,1.2-0.4,2.2c-0.6,1-1.4,1.6-1.8,1.4c-0.4-0.2-0.2-1.2,0.4-2.2
		C35.8,8.8,36.7,8.2,37.1,8.5 M39.7,4.2c0.4,0.2,0.2,1.2-0.4,2.2c-0.6,1-1.4,1.6-1.8,1.4c-0.4-0.2-0.2-1.2,0.4-2.2
		C38.5,4.5,39.3,3.9,39.7,4.2 M43.9,14.1c0.3,0.1,0.2,0.8-0.2,1.4c-0.4,0.6-0.9,1-1.2,0.9c-0.3-0.1-0.2-0.8,0.2-1.4
		C43.2,14.4,43.7,14,43.9,14.1 M45.6,11.4c0.3,0.1,0.2,0.8-0.2,1.4s-0.9,1-1.2,0.9c-0.3-0.1-0.2-0.8,0.2-1.4
		C44.8,11.6,45.4,11.2,45.6,11.4 M47.3,8.7c0.3,0.1,0.2,0.8-0.2,1.4s-0.9,1-1.2,0.9c-0.3-0.1-0.2-0.8,0.2-1.4
		C46.5,8.9,47,8.5,47.3,8.7 M45.1,14.8c0.3,0.1,0.2,0.8-0.2,1.4c-0.4,0.6-0.9,1-1.2,0.9c-0.3-0.1-0.2-0.8,0.2-1.4
		C44.4,15.1,44.9,14.7,45.1,14.8 M46.8,12.1c0.3,0.1,0.2,0.8-0.2,1.4c-0.4,0.6-0.9,1-1.2,0.9c-0.3-0.1-0.2-0.8,0.2-1.4
		C46,12.3,46.6,11.9,46.8,12.1 M48.5,9.4c0.3,0.1,0.2,0.8-0.2,1.4c-0.4,0.6-0.9,1-1.2,0.9c-0.3-0.1-0.2-0.8,0.2-1.4
		C47.7,9.6,48.3,9.2,48.5,9.4 M46.4,15.5c0.3,0.1,0.2,0.8-0.2,1.4c-0.4,0.6-0.9,1-1.2,0.9c-0.3-0.1-0.2-0.8,0.2-1.4
		C45.6,15.8,46.1,15.4,46.4,15.5 M48,12.8c0.3,0.1,0.2,0.8-0.2,1.4c-0.4,0.6-0.9,1-1.2,0.9c-0.3-0.1-0.2-0.8,0.2-1.4
		C47.3,13,47.8,12.6,48,12.8 M49.7,10.1c0.3,0.1,0.2,0.8-0.2,1.4c-0.4,0.6-0.9,1-1.2,0.9c-0.3-0.1-0.2-0.8,0.2-1.4
		C48.9,10.3,49.5,9.9,49.7,10.1 M47.6,16.2c0.3,0.1,0.2,0.8-0.2,1.4c-0.4,0.6-0.9,1-1.2,0.9c-0.3-0.1-0.2-0.8,0.2-1.4
		C46.8,16.5,47.3,16.1,47.6,16.2 M49.3,13.5c0.3,0.1,0.2,0.8-0.2,1.4c-0.4,0.6-0.9,1-1.2,0.9c-0.3-0.1-0.2-0.8,0.2-1.4
		C48.5,13.7,49,13.3,49.3,13.5 M50.9,10.8c0.3,0.1,0.2,0.8-0.2,1.4c-0.4,0.6-0.9,1-1.2,0.9c-0.3-0.1-0.2-0.8,0.2-1.4
		C50.2,11,50.7,10.6,50.9,10.8 M65.3,20.1c41.7-0.4,73.5,13.4,73.5,23.7S111.5,54,75.7,54c-35.8,0-59.2-8.7-59.4-16.3
		C16.1,30.2,23.6,20.5,65.3,20.1 M106.6,9.3c0.4-0.2,1.3,0.4,1.9,1.4c0.6,1,0.8,2,0.4,2.2s-1.3-0.4-1.9-1.4S106.2,9.5,106.6,9.3
		 M103.9,5c0.4-0.2,1.3,0.4,1.9,1.4c0.6,1,0.8,2,0.4,2.2c-0.4,0.2-1.3-0.4-1.9-1.4C103.6,6.2,103.5,5.2,103.9,5 M101.2,0.7
		c0.4-0.2,1.3,0.4,1.9,1.4c0.6,1,0.8,2,0.4,2.2c-0.4,0.2-1.3-0.4-1.9-1.4C100.9,1.9,100.8,0.9,101.2,0.7 M104.6,10.4
		c0.4-0.2,1.3,0.4,1.9,1.4c0.6,1,0.8,2,0.4,2.2c-0.4,0.2-1.3-0.4-1.9-1.4C104.4,11.6,104.2,10.6,104.6,10.4 M101.9,6.1
		c0.4-0.2,1.3,0.4,1.9,1.4c0.6,1,0.8,2,0.4,2.2c-0.4,0.2-1.3-0.4-1.9-1.4C101.7,7.3,101.5,6.3,101.9,6.1 M99.2,1.8
		c0.4-0.2,1.3,0.4,1.9,1.4s0.8,2,0.4,2.2C101,5.6,100.2,5,99.6,4C99,3,98.8,2,99.2,1.8 M102.7,11.5c0.4-0.2,1.3,0.4,1.9,1.4
		c0.6,1,0.8,2,0.4,2.2s-1.3-0.4-1.9-1.4C102.4,12.7,102.3,11.7,102.7,11.5 M100,7.2c0.4-0.2,1.3,0.4,1.9,1.4c0.6,1,0.8,2,0.4,2.2
		c-0.4,0.2-1.3-0.4-1.9-1.4C99.7,8.4,99.5,7.4,100,7.2 M97.2,2.9c0.4-0.2,1.3,0.4,1.9,1.4c0.6,1,0.8,2,0.4,2.2
		c-0.4,0.2-1.3-0.4-1.9-1.4C97,4.1,96.8,3.1,97.2,2.9 M100.7,12.6c0.4-0.2,1.3,0.4,1.9,1.4c0.6,1,0.8,2,0.4,2.2
		c-0.4,0.2-1.3-0.4-1.9-1.4C100.5,13.8,100.3,12.8,100.7,12.6 M98,8.3c0.4-0.2,1.3,0.4,1.9,1.4c0.6,1,0.8,2,0.4,2.2
		c-0.4,0.2-1.3-0.4-1.9-1.4C97.8,9.5,97.6,8.5,98,8.3 M95.3,4c0.4-0.2,1.3,0.4,1.9,1.4c0.6,1,0.8,2,0.4,2.2
		c-0.4,0.2-1.3-0.4-1.9-1.4S94.9,4.2,95.3,4 M126.6,20.4c0.3-0.2,0.9,0.3,1.3,1c0.4,0.7,0.6,1.4,0.3,1.6c-0.3,0.2-0.9-0.3-1.3-1
		C126.4,21.2,126.3,20.5,126.6,20.4 M124.7,17.3c0.3-0.2,0.9,0.3,1.3,1c0.4,0.7,0.6,1.4,0.3,1.6c-0.3,0.2-0.9-0.3-1.3-1
		S124.4,17.5,124.7,17.3 M122.7,14.2c0.3-0.2,0.9,0.3,1.3,1c0.4,0.7,0.6,1.4,0.3,1.6c-0.3,0.2-0.9-0.3-1.3-1
		C122.5,15.1,122.4,14.4,122.7,14.2 M125.2,21.2c0.3-0.2,0.9,0.3,1.3,1c0.4,0.7,0.6,1.4,0.3,1.6s-0.9-0.3-1.3-1
		C125,22,124.9,21.3,125.2,21.2 M123.3,18.1c0.3-0.2,0.9,0.3,1.3,1c0.4,0.7,0.6,1.4,0.3,1.6c-0.3,0.2-0.9-0.3-1.3-1
		C123.1,19,123,18.3,123.3,18.1 M121.3,15c0.3-0.2,0.9,0.3,1.3,1c0.4,0.7,0.6,1.4,0.3,1.6c-0.3,0.2-0.9-0.3-1.3-1
		C121.1,15.9,121,15.2,121.3,15 M123.8,21.9c0.3-0.2,0.9,0.3,1.3,1s0.6,1.4,0.3,1.6c-0.3,0.2-0.9-0.3-1.3-1
		C123.6,22.8,123.5,22.1,123.8,21.9 M121.9,18.9c0.3-0.2,0.9,0.3,1.3,1c0.4,0.7,0.6,1.4,0.3,1.6c-0.3,0.2-0.9-0.3-1.3-1
		C121.7,19.7,121.6,19,121.9,18.9 M119.9,15.8c0.3-0.2,0.9,0.3,1.3,1c0.4,0.7,0.6,1.4,0.3,1.6c-0.3,0.2-0.9-0.3-1.3-1
		C119.7,16.7,119.6,16,119.9,15.8 M122.4,22.7c0.3-0.2,0.9,0.3,1.3,1c0.4,0.7,0.6,1.4,0.3,1.6c-0.3,0.2-0.9-0.3-1.3-1
		C122.2,23.6,122.1,22.9,122.4,22.7 M120.5,19.7c0.3-0.2,0.9,0.3,1.3,1c0.4,0.7,0.6,1.4,0.3,1.6c-0.3,0.2-0.9-0.3-1.3-1
		C120.3,20.5,120.2,19.8,120.5,19.7 M118.5,16.6c0.3-0.2,0.9,0.3,1.3,1c0.4,0.7,0.6,1.4,0.3,1.6c-0.3,0.2-0.9-0.3-1.3-1
		C118.3,17.5,118.2,16.8,118.5,16.6"/>
	<path class="st1" d="M21.5,36c0,0,0,2.2,0-0.1c0-2.3,7.6-8.2,19.6-10.1c11.5-1.9,27.2-2.2,42.8-0.8c15.6,1.4,28.2,4.2,37.2,7.6
		c8.8,3.2,14.1,9,14.1,10.9s0,0.1,0,0.1c0,5.8,0,11.5,0,17.3c0,5.8,0,11.5,0,17.3c-16.1,0-33.2,0-51.3,0c-19.4,0-40.2,0-62.4,0
		c0-7.1,0-14.3,0-21.5C21.5,53.3,21.5,32.3,21.5,36"/>
</g>
<path class="st2" d="M135.4,78.2h-114V35.6h0c0.6-2.6,8.1-8.1,19.7-10c6.7-1.1,14.9-1.7,23.7-1.7c6.3,0,12.7,0.3,19.1,0.9
	c14.6,1.3,27.5,4,37.3,7.6c8.8,3.3,14.2,9,14.2,11L135.4,78.2 M21.7,77.9h113.4V43.4c0-1.9-5.4-7.6-14-10.7
	c-9.7-3.6-22.6-6.2-37.2-7.5c-6.3-0.6-12.8-0.9-19.1-0.9c-8.8,0-17,0.6-23.7,1.7c-5.3,0.9-10.3,2.6-14.2,4.9
	c-3.6,2.1-5.2,4.1-5.2,5.1L21.7,77.9L21.7,77.9z"/>
<path class="st2" d="M32.5,78.1h-0.3c0-4.2,0-8.3,0-12.5c0-4.2,0-8.3,0-12.5v-25h0.3v25c0,4.2,0,8.3,0,12.5
	C32.5,69.7,32.5,73.9,32.5,78.1"/>
<path class="st2" d="M53.1,78.1h-0.3c0-5.4,0-10.8,0-16.2c0-3.5,0-7.1,0-10.6c0-8.9,0-17.9,0-26.8h0.3c0,8.9,0,17.9,0,26.8
	c0,3.5,0,7.1,0,10.6C53.1,67.3,53.1,72.7,53.1,78.1"/>
<path class="st2" d="M83.8,78.1c0-8.8,0-17.8,0-26.5V24.9h0.3v26.6c0,8.7,0,17.7,0,26.5H83.8"/>
<path class="st2" d="M111.3,78.1c0-4.8,0-9.7,0-14.6c0-3.2,0-6.5,0-9.7c0-8.1,0-16.2,0-24.3h0.3c0,8.1,0,16.2,0,24.3
	c0,3.2,0,6.5,0,9.7c0,4.9,0,9.7,0,14.6L111.3,78.1"/>
<path class="st2" d="M126.1,78.1h-0.3V56.3c0-3.6,0-7.3,0-10.9s0-7.3,0-10.9h0.3c0,3.6,0,7.3,0,10.9c0,3.6,0,7.3,0,10.9V78.1"/>
<path class="st0" d="M32.3,78.1h51.6V39.2c-19.4-1.1-37.3-0.9-51.6,2.3L32.3,78.1"/>
<path class="st3" d="M84.1,78.2H32.2V41.4l0.1,0c8.7-2,19.2-2.9,31.9-2.9c6,0,12.5,0.2,19.7,0.6l0.1,0V78.2 M32.5,77.9h51.3V39.4
	c-7.2-0.4-13.6-0.6-19.5-0.6c-12.7,0-23,0.9-31.7,2.9L32.5,77.9"/>
<path class="st0" d="M37.1,78.1h42.2V41.8c-15.9-0.7-30.3-0.9-42.2,1.5V78.1"/>
<path class="st3" d="M79.4,78.2H37V43.2l0.1,0c6.6-1.3,14.4-2,24.5-2c6.1,0,12.3,0.2,17.7,0.4l0.2,0V78.2 M37.3,77.9h41.8v-36
	c-5.3-0.2-11.5-0.4-17.5-0.4c-10,0-17.8,0.6-24.3,1.9L37.3,77.9"/>
<path class="st0" d="M47.9,53.9c0-2.8,5.5-5.4,12.8-5.4c7.3,0,12.6,1.9,13.5,4.7C63.3,51.9,54.6,52.7,47.9,53.9"/>
<g>
	<path class="st3" d="M47.7,54v-0.2c0-3,5.9-5.5,12.9-5.5c7.3,0,12.7,1.9,13.7,4.8l0.1,0.2l-0.2,0c-3.8-0.4-7.5-0.7-11.1-0.7
		c-5.2,0-10.1,0.4-15.1,1.3L47.7,54 M60.7,48.6c-7.4,0-12.3,2.6-12.6,5c4.9-0.9,9.8-1.3,15-1.3c3.5,0,7.2,0.2,10.9,0.6
		C72.8,50.4,67.6,48.6,60.7,48.6"/>
	<path class="st1" d="M47.9,78.1h26.3V54.2c-9.9-0.4-18.9-0.6-26.3,1V78.1"/>
</g>
<path class="st2" d="M74.4,78.2H47.8V55l0.1,0c4.1-0.9,9-1.3,15.3-1.3c3.8,0,7.7,0.1,11,0.3l0.2,0L74.4,78.2L74.4,78.2z M48.1,77.9
	h26V54.3c-3.3-0.1-7.1-0.3-10.9-0.3c-6.2,0-11,0.4-15.1,1.3L48.1,77.9"/>
<g>
	<rect x="42.3" y="41" transform="matrix(0.7008 -0.7133 0.7133 0.7008 -21.927 44.8503)" class="st3" width="0.3" height="15.1"/>
	<rect x="70.5" y="47.3" transform="matrix(0.405 -0.9143 0.9143 0.405 2.26 98.406)" class="st3" width="12.5" height="0.3"/>
</g>
<rect x="60.3" y="53.9" class="st2" width="0.3" height="24.2"/>
<g>
	<rect y="78" class="st0" width="152.4" height="1.5"/>
	<rect x="37.1" y="77" class="st1" width="42.2" height="1"/>
</g>
<path class="st2" d="M79.4,78.1H37v-1.3h42.5V78.1 M37.3,77.8h41.8v-0.7H37.3V77.8"/>
<path class="st1" d="M38.9,76.9c13.2,0,26.4,0,39.6,0c0-0.3,0-0.7,0-1c-13.2,0-26.4,0-39.6,0C38.9,76.2,38.9,76.6,38.9,76.9"/>
<path class="st2" d="M78.6,77.1H38.7v-1.3h39.9V77.1 M39,76.8h39.3v-0.7H39V76.8"/>
<path class="st1" d="M40.6,75.9c12.3,0,24.7,0,37,0c0-0.3,0-0.7,0-1c-12.3,0-24.7,0-37,0C40.6,75.2,40.6,75.5,40.6,75.9"/>
<path class="st2" d="M77.8,76H40.4v-1.3h37.3V76z M40.8,75.7h36.7V75H40.7L40.8,75.7"/>
<path class="st1" d="M42.3,74.8c11.5,0,23,0,34.5,0c0-0.3,0-0.7,0-1c-11.5,0-23,0-34.5,0C42.3,74.1,42.3,74.5,42.3,74.8"/>
<path class="st2" d="M77,75H42.2v-1.3H77V75 M42.5,74.7h34.2V74H42.5V74.7"/>
<path class="st1" d="M44,73.8c10.6,0,21.3,0,31.9,0c0-0.3,0-0.7,0-1c-10.6,0-21.3,0-31.9,0C44.1,73.1,44.1,73.4,44,73.8"/>
<path class="st2" d="M76.1,73.9H43.9v-1.3h32.2V73.9 M44.2,73.6h31.6v-0.7H44.2L44.2,73.6"/>
<rect x="45.8" y="71.7" class="st1" width="29.3" height="1"/>
<path class="st2" d="M75.3,72.9H45.6v-1.3h29.7V72.9 M45.9,72.6h29v-0.7h-29V72.6"/>
<path class="st0" d="M3.3,61c3.6-1.3,7.7,0.4,11.7,0c-0.9,0.8-1.8,1.6-2.6,2.4c0.9,0.8,1.8,1.6,2.6,2.4c-3.9,0-8.2-0.9-11.7,0
	C3.3,64.2,3.3,62.6,3.3,61"/>
<path class="st2" d="M3.2,66v-5.1l0.1,0c1-0.3,2-0.5,3.3-0.5c1.2,0,2.4,0.1,3.6,0.3c1.2,0.1,2.4,0.3,3.6,0.3c0.4,0,0.8,0,1.2-0.1
	l0.5,0l-2.9,2.6l2.8,2.6H15c-1.3,0-2.7-0.1-4-0.2c-1.3-0.1-2.7-0.2-4-0.2c-1.4,0-2.6,0.1-3.7,0.4L3.2,66 M7.1,65.2
	c1.3,0,2.7,0.1,4,0.2c1.2,0.1,2.4,0.2,3.6,0.2l-2.5-2.3l2.4-2.2c-0.2,0-0.5,0-0.8,0c-1.2,0-2.5-0.1-3.7-0.3
	c-1.2-0.1-2.4-0.3-3.5-0.3c-1.2,0-2.2,0.1-3.1,0.4v4.5C4.5,65.3,5.7,65.2,7.1,65.2"/>
<rect x="3.2" y="61" class="st2" width="0.3" height="17.2"/>
<path class="st0" d="M142.9,61c3.6-1.3,7.7,0.4,11.7,0c-0.9,0.8-1.8,1.6-2.6,2.4c0.9,0.8,1.8,1.6,2.6,2.4c-3.9,0-8.2-0.9-11.7,0
	C142.9,64.2,142.9,62.6,142.9,61"/>
<rect x="142.8" y="61" class="st2" width="0.3" height="17.2"/>
<g>
	<path class="st0" d="M83.9,39.2c10.6,0.8,19.8,2,27.5,3.6c0-2,0-4,0-6c-7.7-1.6-16.9-2.9-27.5-3.8c0,0,0,0,0,0L83.9,39.2
		C83.9,39.2,83.9,39.2,83.9,39.2"/>
	<path class="st0" d="M111.4,36.8c0,2,0,4,0,6c2.8,0.6,5.5,1.2,7.9,1.8c2.4,0.6,4.6,1.3,6.6,2c0-1.9,0-3.8,0-5.7
		c-1.5-0.6-3.1-1.1-4.8-1.6C118.2,38.4,115,37.6,111.4,36.8"/>
	<path class="st0" d="M125.9,40.9c0,1.9,0,3.8,0,5.7c3.1,1.1,5.5,2.3,7.2,3.4c0.5,0.4,0.9,0.7,1.3,1.1c0.4,0.4,0.7,0.8,0.9,1.2v-1.6
		V49v-0.9C135.2,45.7,131.8,43.2,125.9,40.9"/>
	<path class="st0" d="M111.4,48.7c-7.8-1.5-17-2.6-27.5-3.3v6.2C92,52,99.4,52.8,106,53.7c1.8,0.3,3.6,0.5,5.4,0.8
		c0-0.2,0-0.5,0-0.7c0-0.1,0-0.2,0-0.3C111.4,51.9,111.4,50.3,111.4,48.7"/>
	<path class="st0" d="M111.4,48.7l0,4.8c0,0.1,0,0.2,0,0.3c0,0.2,0,0.5,0,0.7c0.9,0.1,1.8,0.3,2.6,0.5c0.6,0.1,1.1,0.2,1.7,0.3
		c3.8,0.7,7.2,1.5,10.2,2.3v-1.3c0-0.9,0-1.8,0-2.7c0-0.5,0-0.9,0-1.4c-0.1,0-0.3-0.1-0.4-0.1c-2.3-0.7-5-1.4-8-2.1
		C115.6,49.5,113.6,49.1,111.4,48.7"/>
	<path class="st0" d="M125.9,53.6c0,0.9,0,1.8,0,2.7v1.3c3.9,1,7,2.1,9.3,3.2v-4.2c-1.4-1.2-3.7-2.3-6.8-3.5
		c-0.8-0.3-1.6-0.6-2.5-0.9C125.9,52.7,125.9,53.1,125.9,53.6"/>
	<path class="st0" d="M111.4,60.3c-8.1-1.2-17.3-2.1-27.5-2.5v6.2c9.9,0.3,19.1,1,27.5,2C111.4,64,111.4,62.1,111.4,60.3"/>
	<path class="st0" d="M111.4,60.3c0,1.9,0,3.8,0,5.6c0.2,0,0.5,0.1,0.7,0.1c4.9,0.5,9.5,1.2,13.8,1.8v-5c-3.6-0.7-7.6-1.5-12-2.1
		C113.1,60.5,112.3,60.4,111.4,60.3"/>
	<g>
		<path class="st0" d="M125.9,62.8v5c3.3,0.5,6.4,1,9.3,1.4V65C132.6,64.2,129.4,63.5,125.9,62.8"/>
		<path class="st0" d="M135.2,73.4c-3.1-0.3-6.2-0.5-9.3-0.8V78h9.3V73.4"/>
	</g>
	<path class="st0" d="M125.9,78v-5.4c-4.7-0.4-9.6-0.8-14.5-1.2c0,2.2,0,4.4,0,6.6L125.9,78"/>
	<path class="st0" d="M111.4,78c0-2.2,0-4.4,0-6.6c-8.9-0.7-18-1.2-27.5-1.3V78L111.4,78L111.4,78z"/>
	<g>
		<path class="st0" d="M32.3,78v-6.8c-3.6,0.2-7.2,0.5-10.8,0.9V78H32.3"/>
		<path class="st0" d="M21.5,67c3.4-0.6,7-1.1,10.8-1.5v-5.8c-4.1,0.6-7.7,1.3-10.8,2.2V67"/>
	</g>
	<path class="st0" d="M56.7,38.7c8.5-0.3,17.8-0.1,27.1,0.5c0.1,0,0.1,0,0.2,0v-6.2c0,0,0,0,0,0c-10.7-0.8-21.5-1-30.9-0.5
		c0,2.1,0,4.2,0,6.3C54.2,38.8,55.4,38.8,56.7,38.7"/>
	<path class="st0" d="M53,38.9l0-6.3c-4.2,0.2-8.2,0.6-11.8,1c-3.3,0.4-6.3,1-8.9,1.6v6.3c3.1-0.7,6.8-1.3,10.9-1.8
		c1-0.1,2.1-0.2,3.1-0.3c0,0,0,0,0,0C48.5,39.1,50.7,39,53,38.9"/>
	<path class="st0" d="M32.3,41.5v-6.3c-6.8,1.6-10.8,3.8-10.8,6.5c0,0.8,0,1.6,0,2.4c0,0.4,0,0.7,0,1.1c0,0.5,0,1,0,1.5
		c0.2-0.4,0.5-0.7,0.8-1.1c0.2-0.2,0.5-0.5,0.8-0.7C25.1,43.6,28.2,42.4,32.3,41.5"/>
	<path class="st0" d="M28.7,48.6c-3.2,0.9-5.6,2-7.1,3.2c0,2.2,0,4,0,4.8v0.3c2.7-1.2,6.3-2.2,10.8-3.1v-3.9v-1.3v-0.9
		c-0.6,0.1-1.1,0.2-1.6,0.4C30,48.3,29.3,48.4,28.7,48.6"/>
</g>
</svg>
