<?xml version="1.0" encoding="utf-8"?>
<!-- Generator: Adobe Illustrator 25.1.0, SVG Export Plug-In . SVG Version: 6.00 Build 0)  -->
<svg version="1.1" id="Слой_1" xmlns="http://www.w3.org/2000/svg" xmlns:xlink="http://www.w3.org/1999/xlink" x="0px" y="0px"
	 viewBox="0 0 153 91.7" style="enable-background:new 0 0 153 91.7;" xml:space="preserve">
<style type="text/css">
	.st0{fill:#204385;}
	.st1{fill-rule:evenodd;clip-rule:evenodd;fill:#FFFFFF;}
	.st2{fill-rule:evenodd;clip-rule:evenodd;fill:#204385;}
	.st3{fill:url(#SVGID_1_);}
	.st4{fill:url(#SVGID_2_);}
	.st5{fill:url(#SVGID_3_);}
	.st6{fill:url(#SVGID_4_);}
	.st7{fill:#FFFFFF;}
</style>
<path class="st0" d="M60.9,43.8c-1.6,0-2.9-1-2.9-2.3v-35c0-1.3,1.3-2.3,2.9-2.3s2.9,1,2.9,2.3v35C63.8,42.8,62.5,43.8,60.9,43.8
	 M60.9,4.9c-1.2,0-2.3,0.8-2.3,1.6v35c0,0.9,1,1.6,2.3,1.6s2.3-0.8,2.3-1.6v-35C63.2,5.6,62.1,4.9,60.9,4.9"/>
<path class="st1" d="M68.3,0.3c1.7,0,3,1,3,2.3v40.9c0,1.3-1.4,2.3-3,2.3c-1.7,0-3-1-3-2.3V2.6C65.3,1.3,66.7,0.3,68.3,0.3"/>
<path class="st0" d="M68.3,46.1c-1.9,0-3.4-1.2-3.4-2.6V2.6C65,1.2,66.5,0,68.3,0c1.9,0,3.4,1.2,3.4,2.6v40.9
	C71.7,44.9,70.2,46.1,68.3,46.1 M68.3,0.6c-1.5,0-2.7,0.9-2.7,2v40.9c0,1.1,1.3,2,2.7,2c1.5,0,2.7-0.9,2.7-2V2.6
	C71.1,1.5,69.8,0.6,68.3,0.6"/>
<polygon class="st1" points="87.3,89.8 49.4,89.8 49.4,36.5 87.3,47.3 "/>
<path class="st0" d="M87.6,90.1H49.1v-54l38.5,11V90.1 M49.8,89.5H87v-42L49.8,36.9V89.5"/>
<path class="st1" d="M9.5,62.7h1.1c1.2,0,2.1,1,2.1,2.1v6.3c0,1.2-1,2.1-2.1,2.1H9.5c-1.2,0-2.1-1-2.1-2.1v-6.3
	C7.3,63.6,8.3,62.7,9.5,62.7"/>
<path class="st0" d="M10.5,73.6H9.5c-1.4,0-2.5-1.1-2.5-2.5v-6.3c0-1.4,1.1-2.5,2.5-2.5h1.1c1.4,0,2.5,1.1,2.5,2.5v6.3
	C13,72.4,11.9,73.6,10.5,73.6 M9.5,63c-1,0-1.8,0.8-1.8,1.8v6.3c0,1,0.8,1.8,1.8,1.8h1.1c1,0,1.8-0.8,1.8-1.8v-6.3
	c0-1-0.8-1.8-1.8-1.8L9.5,63"/>
<path class="st1" d="M15.3,60.4h1.1c1.3,0,2.3,1,2.3,2.3v6.8c0,1.3-1,2.3-2.3,2.3h-1.1c-1.3,0-2.3-1-2.3-2.3v-6.8
	C13,61.4,14,60.4,15.3,60.4"/>
<path class="st0" d="M16.5,72.2h-1.1c-1.5,0-2.6-1.2-2.6-2.6v-6.8c0-1.5,1.2-2.6,2.6-2.6h1.1c1.5,0,2.6,1.2,2.6,2.6v6.8
	C19.1,71,17.9,72.2,16.5,72.2 M15.3,60.7c-1.1,0-2,0.9-2,2v6.8c0,1.1,0.9,2,2,2h1.1c1.1,0,2-0.9,2-2v-6.8c0-1.1-0.9-2-2-2L15.3,60.7
	"/>
<path class="st1" d="M94,19.6c1.5,0,2.8,0.9,2.8,2.1v37.4c0,1.2-1.3,2.1-2.8,2.1c-1.5,0-2.8-0.9-2.8-2.1V21.7
	C91.2,20.5,92.4,19.6,94,19.6"/>
<path class="st0" d="M94,61.6c-1.7,0-3.1-1.1-3.1-2.4V21.7c0-1.3,1.4-2.4,3.1-2.4s3.1,1.1,3.1,2.4v37.4C97.1,60.5,95.7,61.6,94,61.6
	 M94,19.9c-1.3,0-2.5,0.8-2.5,1.8v37.4c0,1,1.1,1.8,2.5,1.8s2.5-0.8,2.5-1.8V21.7C96.5,20.7,95.3,19.9,94,19.9"/>
<rect x="0.3" y="89.9" class="st2" width="152.4" height="1.5"/>
<path class="st0" d="M153,91.7H0v-2.2h153V91.7 M0.6,91.1h151.7v-0.9H0.6V91.1"/>
<polygon class="st1" points="83.3,51.8 56.6,57.4 56.6,89.6 83.3,89.6 "/>
<path class="st0" d="M83.6,89.9H56.3V57.1l27.3-5.7V89.9 M56.9,89.3H83V52.2l-26.1,5.4V89.3"/>
<polygon class="st1" points="83.3,51.8 124.3,62.9 124.3,89.6 83.3,89.6 "/>
<path class="st0" d="M124.6,89.9H83V51.4l41.7,11.3L124.6,89.9 M83.6,89.3H124V63.2l-40.4-11V89.3"/>
<polygon class="st1" points="124.3,89.6 144.8,89.6 144.8,71.6 124.3,66.3 "/>
<path class="st0" d="M145.1,89.9H124V65.9l21.2,5.5V89.9 M124.6,89.3h19.9V71.8l-19.9-5.1L124.6,89.3"/>
<polygon class="st0" points="20.1,66.3 19.4,66.4 19.4,57.8 26.6,48.9 27.1,49.3 20.1,58 "/>
<polygon class="st0" points="20,60.4 19.5,60 26.8,51.1 27.3,51.6 "/>
<polygon class="st0" points="87.2,50 49.4,39.9 26.7,44.9 26.6,44.2 49.4,39.3 49.5,39.3 87.4,49.4 "/>
<polygon class="st0" points="124.3,65.3 83.1,55 56.7,60.4 56.5,59.7 83.1,54.3 83.2,54.4 124.4,64.7 "/>
<linearGradient id="SVGID_1_" gradientUnits="userSpaceOnUse" x1="124.246" y1="22.1686" x2="144.948" y2="22.1686" gradientTransform="matrix(1 0 0 -1 0 93.2756)">
	<stop  offset="0" style="stop-color:#12397F"/>
	<stop  offset="0.713" style="stop-color:#3A71CE"/>
	<stop  offset="1" style="stop-color:#3A71CE"/>
</linearGradient>
<polygon class="st3" points="144.8,73.9 124.2,68.9 124.4,68.3 144.9,73.3 "/>
<rect x="56.6" y="87" class="st0" width="67.7" height="0.6"/>
<polygon class="st1" points="62.1,87.3 76.9,87.3 76.9,68.8 62.1,70.4 "/>
<path class="st0" d="M77.3,87.6H61.8V70.1l15.5-1.7V87.6 M62.4,87h14.2V69.2l-14.2,1.5L62.4,87"/>
<polygon class="st2" points="25.9,68 18.3,69.2 13.1,70.1 12.4,70.2 7.4,71 5.8,71.3 5.8,89.1 25.9,89.1 "/>
<linearGradient id="SVGID_2_" gradientUnits="userSpaceOnUse" x1="5.75" y1="14.7486" x2="25.91" y2="14.7486" gradientTransform="matrix(1 0 0 -1 0 93.2756)">
	<stop  offset="0" style="stop-color:#12397F"/>
	<stop  offset="0.713" style="stop-color:#3A71CE"/>
	<stop  offset="1" style="stop-color:#3A71CE"/>
</linearGradient>
<path class="st4" d="M25.9,89.1H5.8V71.2l0,0L25.9,68L25.9,89.1 M5.8,89.1h20.1V68L5.8,71.3V89.1"/>
<path class="st2" d="M12.7,67.6v-3c0-1.2-1-2.1-2.1-2.1H9.5c-1.2,0-2.1,1-2.1,2.1v3.9L12.7,67.6"/>
<path class="st2" d="M13,62.7v4.9l5.8-1v-3.8c0-1.3-1-2.3-2.3-2.3h-1.1C14,60.4,13,61.4,13,62.7"/>
<polygon class="st2" points="19.7,60.2 19.7,66.4 26.6,65.1 26.6,53.9 26.6,51.9 "/>
<polygon class="st2" points="49.4,49.5 49.4,89.8 87.3,89.8 87.3,89.6 83.3,89.6 56.6,89.6 56.6,87.3 56.6,60.1 56.6,57.4 
	83.3,51.8 87.3,52.9 87.3,49.7 70.4,45.2 65.3,43.8 62.5,43.1 58.4,42 49.4,39.6 43,41 43,50.7 46,50.1 "/>
<path class="st0" d="M87.3,89.8H49.4V49.5L43,50.7v0l0-9.8l0,0l6.4-1.4h0l37.8,10.1v3.2l-4-1.1l-26.7,5.6v32.2h30.7V89.8 M49.5,89.8
	h37.8v-0.1H56.6V57.3l0,0l26.7-5.6h0l4,1.1v-3.2L49.4,39.6L43,41l0,9.7l6.5-1.3L49.5,89.8"/>
<g>
	<polygon class="st2" points="83.1,54.7 57.5,60.1 57.5,87.3 62.8,87.3 62.8,70.4 77.2,68.8 77.2,87.3 83.3,87.3 83.3,54.7 	"/>
	<polygon class="st2" points="124.3,68.6 124.3,87.3 124.3,89.6 144.8,89.6 144.8,73.6 135.9,71.4 129.8,70 	"/>
</g>
<path class="st0" d="M144.9,89.6h-20.5v-21l20.5,4.9V89.6 M124.3,89.6h20.5v-16l-20.5-4.9V89.6"/>
<polygon class="st2" points="106.2,57.8 120.7,61.7 120.7,43.2 106.2,47.6 "/>
<linearGradient id="SVGID_3_" gradientUnits="userSpaceOnUse" x1="106.183" y1="40.7871" x2="120.671" y2="40.7871" gradientTransform="matrix(1 0 0 -1 0 93.2756)">
	<stop  offset="0" style="stop-color:#12397F"/>
	<stop  offset="0.713" style="stop-color:#3A71CE"/>
	<stop  offset="1" style="stop-color:#3A71CE"/>
</linearGradient>
<path class="st5" d="M120.7,61.8l-14.5-3.9V47.6l0,0l14.5-4.4L120.7,61.8L120.7,61.8z M106.2,57.8l14.4,3.9V43.3l-14.4,4.3V57.8"/>
<polygon class="st2" points="121.9,43.1 121.9,61.7 124.9,62.5 124.9,64.5 124.9,65.8 136.4,68.8 136.4,50.2 "/>
<linearGradient id="SVGID_4_" gradientUnits="userSpaceOnUse" x1="121.889" y1="37.3021" x2="136.42" y2="37.3021" gradientTransform="matrix(1 0 0 -1 0 93.2756)">
	<stop  offset="0" style="stop-color:#12397F"/>
	<stop  offset="0.713" style="stop-color:#3A71CE"/>
	<stop  offset="1" style="stop-color:#3A71CE"/>
</linearGradient>
<path class="st6" d="M136.4,68.8L136.4,68.8l-11.6-3v-3.4l-3-0.8V43.1l0,0l14.5,7L136.4,68.8L136.4,68.8z M124.9,65.8l11.5,3V50.2
	l-14.5-7v18.5l3,0.8V65.8"/>
<path class="st2" d="M63.5,40.5v-11c-1.7-1.2-3.4-1.2-5.2,0V39L63.5,40.5"/>
<path class="st2" d="M58.3,26.6c1.8-1.2,3.5-1.2,5.2,0v-7.5c-1.7-1.2-3.4-1.2-5.2,0V26.6"/>
<path class="st2" d="M58.3,16.2c1.8-1.2,3.5-1.2,5.2,0v-5c-1.7-1.2-3.4-1.2-5.2,0V16.2"/>
<path class="st2" d="M58.3,8.5c1.8-1.2,3.5-1.2,5.2,0v-2c0-1.1-1.2-2-2.6-2c-1.4,0-2.6,0.9-2.6,2L58.3,8.5"/>
<path class="st0" d="M63.5,8.5L63.5,8.5c-0.9-0.6-1.7-0.9-2.6-0.9c-0.9,0-1.7,0.3-2.6,0.9l0,0v-2c0-1.1,1.2-2,2.6-2
	c1.4,0,2.6,0.9,2.6,2L63.5,8.5L63.5,8.5z M60.9,4.6c-1.4,0-2.6,0.9-2.6,1.9v1.9c0.9-0.6,1.8-0.9,2.6-0.9c0.9,0,1.7,0.3,2.6,0.9V6.5
	C63.5,5.4,62.3,4.6,60.9,4.6"/>
<path class="st2" d="M91.2,46.5v7.5l5.6,1.5v-9C95,45.1,93.1,45.1,91.2,46.5"/>
<path class="st2" d="M91.2,43.3c1.9-1.3,3.8-1.3,5.6,0v-8c-1.8-1.3-3.7-1.3-5.6,0V43.3"/>
<path class="st2" d="M91.2,32.3c1.9-1.3,3.8-1.3,5.6,0V27c-1.8-1.3-3.7-1.3-5.6,0V32.3"/>
<path class="st2" d="M91.2,24c1.9-1.3,3.8-1.3,5.6,0v-2.3c0-1.2-1.3-2.1-2.8-2.1c-1.5,0-2.8,0.9-2.8,2.1V24"/>
<path class="st2" d="M71.4,42.8V28.5c-2-1.3-4-1.4-6.1,0V41L71.4,42.8"/>
<path class="st2" d="M65.3,25.1c2.1-1.4,4.1-1.4,6.1,0v-8.7c-2-1.3-4-1.4-6.1,0V25.1"/>
<path class="st2" d="M65.3,13.1c2.1-1.4,4.1-1.4,6.1,0V7.4c-2-1.3-4-1.4-6.1,0V13.1"/>
<path class="st2" d="M65.3,4.2c2.1-1.4,4.1-1.3,6.1,0V2.6c0-1.3-1.4-2.3-3-2.3c-1.7,0-3,1-3,2.3L65.3,4.2"/>
<rect x="29.8" y="53.2" class="st7" width="0.6" height="36.3"/>
<polygon class="st2" points="26.8,54.1 26.8,65 26.8,67.8 26.8,89 30.2,89 30.2,53.4 "/>
<path class="st7" d="M30.2,89.1h-3.4v-35l3.4-0.7V89.1 M26.8,89h3.4V53.5l-3.4,0.7V89"/>
<polygon class="st2" points="45.5,50.6 45.5,89.2 48.8,89.2 48.8,49.9 "/>
<path class="st7" d="M48.8,89.2h-3.4V50.6l3.4-0.7L48.8,89.2 M45.5,89.2h3.3V49.9l-3.3,0.6V89.2"/>
<g>
	<polygon class="st2" points="32,52.8 32,43.4 26.6,44.5 26.6,49.7 26.6,51.9 26.6,53.9 30.1,53.2 	"/>
	<polygon class="st2" points="42.5,40.5 48.9,39.1 48.9,36 26.1,41.6 26.1,44.1 31.5,42.9 	"/>
</g>
<path class="st7" d="M26.1,44.1v-2.5l0,0L48.9,36v3.1l0,0L26.1,44.1 M26.1,41.6v2.4l22.8-4.9v-3.1L26.1,41.6"/>
<g>
	<polygon class="st2" points="31.8,52.5 43,50.3 43.1,50.7 31.9,52.9 	"/>
	<g>
		<polygon class="st1" points="124,49.2 134.2,53.6 134.3,63.3 124,60.1 		"/>
		<rect x="48.8" y="39.6" class="st1" width="0.7" height="49.8"/>
	</g>
	<rect x="96.3" y="58.1" class="st2" width="0.8" height="29.2"/>
	<rect x="113.9" y="62.5" class="st2" width="0.8" height="24.8"/>
	<polygon class="st2" points="83.5,67.5 124.3,74.2 124.1,75 83.3,68.3 	"/>
</g>
</svg>
