<?xml version="1.0" encoding="utf-8"?>
<!-- Generator: Adobe Illustrator 25.1.0, SVG Export Plug-In . SVG Version: 6.00 Build 0)  -->
<svg version="1.1" id="Слой_1" xmlns="http://www.w3.org/2000/svg" xmlns:xlink="http://www.w3.org/1999/xlink" x="0px" y="0px"
	 viewBox="0 0 155.1 78.7" style="enable-background:new 0 0 155.1 78.7;" xml:space="preserve">
<style type="text/css">
	.st0{fill:#204385;}
	.st1{fill:#FFFFFF;}
</style>
<polygon class="st0" points="131.9,30.3 53.6,13.5 52.7,0 117.8,21.9 "/>
<polygon class="st1" points="52.7,0 81.4,15.2 80.4,15.3 "/>
<polygon class="st0" points="52.7,0 29.2,21 80.4,15.3 "/>
<polygon class="st0" points="79.6,21.8 79.6,62.5 82.3,62.8 82.3,25.8 95.3,28.7 95.3,63.8 97.5,63.8 97.5,29.2 108.4,31.7 
	108.4,66.1 110.6,66.1 110.6,32.2 120.5,34.4 120.5,67 122.7,67 122.7,34.9 130.9,36.8 130.9,67.7 133,67.9 133,35 "/>
<polygon class="st1" points="78.7,11.6 78.7,12.6 23.5,22.1 "/>
<polygon class="st1" points="78.7,11.6 78.7,12.6 134.6,30.3 "/>
<g>
	<path class="st1" d="M51,7.3V12c0,1.6,0.7,2.2,1.7,2c1.1-0.2,1.7-1.1,1.7-2.6V6.7l1.5-0.3V11c0,2.5-1.3,3.8-3.2,4.2s-3.1-0.4-3.1-3
		V7.6L51,7.3z"/>
</g>
<polygon class="st0" points="23.5,27 78.7,19.8 78.7,12.6 23.5,22.1 "/>
<polygon class="st0" points="134.6,34.4 78.7,19.8 78.7,12.6 134.6,30.3 "/>
<path class="st0" d="M35.6,26.4L35.6,26.4L35.6,26.4l-7.7,0.9l0,0c-0.9,0.1-1.6,0.9-1.8,1.8c-0.1,1,0.5,1.8,1.5,1.8s1.8-0.8,2-1.8
	c0.1-0.5-0.1-1-0.3-1.3l4.8-0.6c-0.2,0.3-0.4,0.7-0.5,1c-0.1,1,0.5,1.8,1.5,1.8s1.8-0.8,2-1.8S36.6,26.4,35.6,26.4z"/>
<path class="st0" d="M35.1,31c-0.7,0-1.4-0.3-1.9-0.8c-0.4-0.5-0.6-1.1-0.6-1.8l-2,0.3c0,0.2,0,0.4,0,0.6c-0.2,1.2-1,2.1-2,2.5v32.8
	l7.3-0.7v-33C35.7,31,35.4,31,35.1,31z"/>
<path class="st0" d="M49.7,24.8C49.6,24.8,49.6,24.8,49.7,24.8L49.7,24.8L42,25.7l0,0c-0.9,0.1-1.6,0.9-1.8,1.8
	c-0.1,1,0.5,1.8,1.5,1.8s1.8-0.8,2-1.8c0.1-0.5-0.1-1-0.4-1.3l4.9-0.6c-0.2,0.3-0.4,0.7-0.5,1c-0.1,1,0.5,1.8,1.5,1.8s1.8-0.8,2-1.8
	S50.6,24.8,49.7,24.8z"/>
<path class="st0" d="M49.2,29.5c-0.7,0-1.4-0.3-1.9-0.8c-0.4-0.5-0.7-1.1-0.6-1.8l-2,0.3c0,0.2,0,0.4,0,0.6c-0.2,1.2-1,2.1-2,2.5
	v33.2l7.4-0.7V29.3C49.7,29.4,49.5,29.5,49.2,29.5z"/>
<path class="st0" d="M63.5,22.9L63.5,22.9L63.5,22.9l-7.9,0.9l0,0c-0.9,0.1-1.7,0.9-1.8,1.8c-0.1,1,0.5,1.9,1.5,1.9s1.9-0.8,2-1.9
	c0.1-0.5-0.1-1-0.4-1.3l5-0.6c-0.2,0.3-0.4,0.7-0.5,1.1c-0.1,1,0.5,1.9,1.5,1.9s1.9-0.8,2-1.9C65.2,23.7,64.5,22.9,63.5,22.9z"/>
<path class="st0" d="M63,27.6c-0.8,0-1.4-0.3-1.9-0.9c-0.4-0.5-0.7-1.2-0.6-1.9l-2,0.3c0,0.2,0,0.4,0,0.6c-0.2,1.2-1,2.2-2.1,2.6
	v33.8l7.6-0.7v-34C63.6,27.5,63.3,27.6,63,27.6z"/>
<path class="st0" d="M77.2,21.4C77.2,21.4,77.1,21.4,77.2,21.4L77.2,21.4l-8,0.9l0,0c-0.9,0.1-1.7,0.9-1.8,1.8
	c-0.1,1,0.5,1.9,1.5,1.9s1.9-0.8,2-1.9c0.1-0.5-0.1-1-0.4-1.3l5-0.6c-0.2,0.3-0.4,0.7-0.5,1.1c-0.1,1,0.5,1.9,1.5,1.9s1.9-0.8,2-1.9
	C78.8,22.2,78.2,21.4,77.2,21.4z"/>
<path class="st0" d="M76.7,26.2c-0.8,0-1.5-0.3-1.9-0.9c-0.4-0.5-0.7-1.2-0.6-1.9L72,23.7c0,0.2,0,0.4,0,0.6c-0.2,1.2-1,2.2-2.1,2.6
	V61l7.6-0.7V26C77.3,26.1,77,26.2,76.7,26.2z"/>
<rect x="78.4" y="12.3" class="st1" width="0.8" height="7.9"/>
<polygon class="st0" points="15.7,77 83.1,77 83.1,70 15.7,72.5 "/>
<polygon class="st0" points="19.3,71.4 82.9,69 82.9,65.1 19.3,69.2 "/>
<polygon class="st0" points="22.9,68 82.8,64.1 82.8,61.1 22.9,66 "/>
<polygon class="st0" points="139.2,77 83.9,77 83.9,70 139.2,73.4 "/>
<polygon class="st0" points="137,72.2 83.9,69 83.9,65.1 137,70.6 "/>
<polygon class="st0" points="134.8,69.4 83.9,64 83.9,61.1 134.8,67.6 "/>
<rect x="1" y="77.2" class="st0" width="155.1" height="1.6"/>
</svg>
