<?xml version="1.0" encoding="utf-8"?>
<!-- Generator: Adobe Illustrator 25.1.0, SVG Export Plug-In . SVG Version: 6.00 Build 0)  -->
<svg version="1.1" id="Слой_1" xmlns="http://www.w3.org/2000/svg" xmlns:xlink="http://www.w3.org/1999/xlink" x="0px" y="0px"
	 viewBox="0 0 152.4 99.6" style="enable-background:new 0 0 152.4 99.6;" xml:space="preserve">
<style type="text/css">
	.st0{fill-rule:evenodd;clip-rule:evenodd;fill:#204385;}
	.st1{fill:#204385;}
</style>
<g>
	<rect y="98" class="st0" width="152.4" height="1.5"/>
	<path class="st0" d="M37.7,97.3H112V25.4c0-2.7-1.1-4.3-2.9-5.5c-1.9-1.2-4.6-1.9-7.4-2.6l-18.6-4.7h0c-2.8-0.7-4.7-1-6.4-1
		c-1.7,0-3.4,0.3-5.5,0.8L48,17.4c-2.9,0.6-5.5,1.3-7.4,2.5c-1.8,1.2-2.9,2.9-2.9,5.6L37.7,97.3 M112.7,98.8H36.9h-0.7V98V25.4
		c0-3.3,1.4-5.4,3.6-6.8c2.1-1.4,4.9-2.1,7.9-2.7L70.9,11c2.2-0.5,3.9-0.8,5.8-0.8c1.9,0,3.9,0.3,6.8,1l18.6,4.7
		c3,0.7,5.7,1.5,7.8,2.8c2.2,1.4,3.6,3.4,3.6,6.7V98v0.7L112.7,98.8L112.7,98.8z"/>
</g>
<g>
	<path class="st1" d="M113,33.1h-0.6c0-5.1-5.2-6.3-10.6-7.5l-18.6-4.1c-5.7-1.3-7.8-1-12.1-0.2l-23.2,4.3c-3.2,0.6-5.7,1.2-7.5,2.3
		c-2.1,1.2-3.1,2.9-3.1,5.2h-0.6c0-5.6,5.3-7,11.2-8.1l23.2-4.3c4.3-0.8,6.6-1.1,12.4,0.2l18.6,4.1C107.6,26.3,113,27.5,113,33.1"/>
	<path class="st1" d="M113,41.6h-0.6c0-4.6-5.2-5.7-10.6-6.8L83.2,31c-5.7-1.2-7.8-0.9-12.1-0.2l-23.2,3.9c-5.6,1-10.6,2.2-10.6,6.8
		h-0.6c0-5.1,5.3-6.4,11.2-7.4l23.2-3.9c4.3-0.7,6.6-1,12.4,0.2l18.6,3.8C107.6,35.3,113,36.4,113,41.6"/>
	<path class="st1" d="M113,50.1h-0.6c0-4.2-5.2-5.1-10.6-6.1l-18.6-3.4c-5.7-1.1-7.8-0.8-12.1-0.2l-23.2,3.6
		c-5.6,0.9-10.6,2-10.6,6.1h-0.6c0-4.7,5.3-5.9,11.2-6.8L71,39.7c4.3-0.7,6.6-0.9,12.4,0.2l18.6,3.4C107.6,44.4,113,45.4,113,50.1"
		/>
	<path class="st1" d="M113,58.5h-0.6c0-3.7-5.2-4.5-10.6-5.4l-18.6-3c-5.7-0.9-7.8-0.7-12.2-0.1l-23.2,3.2
		c-5.6,0.8-10.6,1.8-10.6,5.4h-0.6c0-4.2,5.3-5.3,11.2-6.1L71,49.3c4.3-0.6,6.6-0.8,12.3,0.1l18.6,3.1C107.6,53.4,113,54.3,113,58.5
		"/>
	<path class="st1" d="M113,67h-0.6c0-3.2-5.2-4-10.6-4.8l-18.6-2.7c-5.7-0.8-7.9-0.6-12.2-0.1l-23.2,2.8c-5.6,0.7-10.6,1.5-10.6,4.8
		h-0.6c0-3.7,5.3-4.7,11.2-5.4L71,58.8c4.3-0.5,6.6-0.7,12.3,0.1l18.6,2.7C107.6,62.5,113,63.2,113,67"/>
	<path class="st1" d="M113,75.5h-0.6c0-2.7-5.2-3.4-10.6-4.1l-18.6-2.3c-5.7-0.7-7.9-0.6-12.2-0.1l-23.2,2.4
		c-5.6,0.6-10.6,1.3-10.6,4.1h-0.6c0-3.3,5.3-4.1,11.2-4.7L71,68.3c4.3-0.4,6.6-0.6,12.3,0.1l18.6,2.3C107.6,71.5,113,72.2,113,75.5
		"/>
	<path class="st1" d="M113,84h-0.6c0-2.3-5.4-2.8-10.6-3.4l-18.6-2c-5.7-0.6-7.9-0.5-12.2-0.1l-23.2,2.1C42.4,81,37.2,81.7,37.2,84
		h-0.6c0-2.8,5.1-3.5,11.2-4L71,77.9c4.3-0.4,6.6-0.5,12.3,0.1l18.6,2C107.9,80.6,113,81.1,113,84"/>
	<path class="st1" d="M113,92.4h-0.6c0-1.8-5.4-2.3-10.6-2.7l-18.6-1.6c-5.7-0.5-7.9-0.4-12.2-0.1l-23.2,1.7
		c-4,0.3-10.6,0.8-10.6,2.7h-0.6c0-2.3,5.1-2.9,11.2-3.3L71,87.4c4.3-0.3,6.6-0.4,12.3,0.1l18.6,1.6C107.8,89.6,113,90.1,113,92.4"
		/>
</g>
<rect x="54.5" y="15.2" class="st1" width="0.6" height="82.9"/>
<rect x="95.9" y="15.2" class="st1" width="0.6" height="82.8"/>
<polygon class="st0" points="44.4,98 53.6,98 53.6,90.1 44.4,90.7 "/>
<rect x="48.7" y="90.4" class="st1" width="0.6" height="7.6"/>
<polygon class="st0" points="56.1,98 66.8,98 66.8,89.3 56.1,90 "/>
<rect x="61.1" y="89.6" class="st1" width="0.6" height="8.4"/>
<g>
	<path class="st0" d="M44.7,15.9c-0.6,0.1-1.1,0.2-1.6,0.3c-0.5-0.6-0.9-1.2-1.2-2c-0.3-0.8-0.4-1.6-0.4-2.5c0-0.8,0.1-1.7,0.3-2.5
		c0.3-0.9,0.7-1.8,1.2-2.6c0.6-0.1,1.1-0.2,1.7-0.4c-0.6,0.7-1.1,1.5-1.4,2.3c-0.2,0.5-0.4,1-0.5,1.5c-0.1,0.5-0.2,1-0.2,1.5
		c0,0.5,0.1,1,0.2,1.5c0.1,0.5,0.3,0.9,0.5,1.3C43.6,14.8,44.1,15.4,44.7,15.9 M48.3,13.2c0,0.8-0.2,1.5-0.5,1.9
		c-0.3,0.4-0.6,0.6-1.1,0.7c-0.5,0.1-1,0-1.3-0.4S45,14.5,45,13.8c0-0.9,0-1.9,0-2.8c0-0.9,0-1.9,0-2.8c0-0.8,0.2-1.4,0.5-1.9
		c0.3-0.4,0.6-0.6,1.1-0.7c0.4-0.1,0.8-0.1,1,0.1c0.4,0.3,0.6,0.9,0.6,1.8c0,1,0,1.9,0,2.9C48.3,11.3,48.3,12.2,48.3,13.2
		 M47.1,13.6c0-1,0-2,0-3.1c0-1,0-2,0-3.1c0-0.2,0-0.3-0.1-0.4c-0.1-0.1-0.2-0.2-0.4-0.1c-0.1,0-0.2,0.1-0.3,0.2
		c-0.1,0.1-0.1,0.3-0.1,0.5c0,1,0,2,0,3.1s0,2,0,3.1c0,0.2,0,0.4,0.1,0.5c0.1,0.1,0.2,0.1,0.3,0.1c0.1,0,0.2-0.1,0.3-0.2
		C47.1,14,47.1,13.9,47.1,13.6 M54.3,14.1c-0.4,0.1-0.8,0.2-1.2,0.2c0-1.4,0-2.7,0-4.1c0-1.4,0-2.7,0-4.1c0-0.2,0-0.3-0.1-0.4
		c-0.1-0.1-0.2-0.1-0.3-0.1c-0.1,0-0.2,0.1-0.2,0.1c-0.1,0.1-0.1,0.3-0.1,0.5c0,1.4,0,2.7,0,4.1c0,1.4,0,2.7,0,4.1
		c-0.4,0.1-0.8,0.2-1.2,0.2c0-1.4,0-2.7,0-4.1c0-1.4,0-2.7,0-4.1c0-0.1,0-0.2,0-0.3C51,6,50.9,6,50.8,6c-0.2,0.1-0.3,0.3-0.3,0.6
		c0,1.4,0,2.7,0,4.1s0,2.7,0,4.1C50,14.9,49.6,15,49.2,15c0-1.3,0-2.6,0-3.9c0-1.3,0-2.6,0-3.9c0-0.9,0.2-1.5,0.5-2
		c0.3-0.4,0.6-0.6,1.1-0.7c0.2,0,0.4-0.1,0.5,0c0.1,0,0.3,0.1,0.4,0.2c0.1-0.1,0.3-0.3,0.4-0.4c0.2-0.1,0.3-0.2,0.5-0.2
		c0.5-0.1,0.8,0,1.1,0.2c0.3,0.3,0.5,0.9,0.5,1.8c0,1.3,0,2.6,0,3.9S54.3,12.8,54.3,14.1 M58.7,7.2c0,0.8-0.2,1.6-0.5,2.4
		c-0.4,0.8-0.9,1.6-1.6,2.2c0,0.6,0,1.2,0,1.8c-0.4,0.1-0.8,0.2-1.3,0.2c0-1.8,0-3.5,0-5.3c0-1.8,0-3.5,0-5.3c1,0,1.8,0.4,2.5,1.1
		c0.3,0.4,0.5,0.8,0.7,1.2C58.6,6.2,58.7,6.7,58.7,7.2 M57.4,7.5c0-0.4-0.1-0.8-0.2-1.2c-0.1-0.4-0.3-0.7-0.6-0.9c0,0.8,0,1.5,0,2.3
		c0,0.8,0,1.5,0,2.3c0.2-0.3,0.4-0.7,0.6-1.1C57.3,8.4,57.4,8,57.4,7.5 M63.2,12.4c0-1.4,0-2.7,0-4.1s0-2.7,0-4.1
		c0-0.9-0.2-1.5-0.7-1.8c-0.3-0.2-0.7-0.3-1.2-0.2c-0.4,0.1-0.8,0.3-1.1,0.6c-0.4,0.5-0.7,1.2-0.7,2.1c0,0.8,0,1.5,0,2.3
		c0,0.8,0,1.5,0,2.3c-0.4,0.1-0.9,0.2-1.3,0.3c0.2,0.4,0.4,0.9,0.6,1.3c0.2,0,0.4-0.1,0.7-0.1c0,0.7,0,1.4,0,2
		c0.4-0.1,0.9-0.2,1.3-0.2c0-0.7,0-1.4,0-2c0.3-0.1,0.7-0.1,1-0.2c0,0.7,0,1.4,0,2.1C62.4,12.6,62.8,12.5,63.2,12.4 M61.9,9.1
		c-0.3,0.1-0.7,0.1-1,0.2c0-0.8,0-1.5,0-2.3c0-0.8,0-1.5,0-2.3c0-0.3,0-0.5,0.1-0.7c0.1-0.2,0.2-0.3,0.4-0.3c0.2,0,0.4,0,0.4,0.3
		c0,0.1,0.1,0.3,0.1,0.5c0,0.8,0,1.6,0,2.3C61.9,7.6,61.9,8.3,61.9,9.1 M68,11.5c-0.5,0.1-0.9,0.2-1.3,0.3c0-0.8,0-1.7,0-2.5
		c0-0.8,0-1.7,0-2.5c-0.3-0.4-0.6-0.9-0.9-1.3c0,1.1,0,2.2,0,3.2s0,2.2,0,3.2c-0.4,0.1-0.9,0.2-1.3,0.3c0-1.8,0-3.6,0-5.4
		s0-3.6,0-5.4c0.4,0.5,0.8,1,1.1,1.5c0.4,0.5,0.8,1,1.1,1.5c0-0.5,0-1,0-1.5s0-1,0-1.5C67.1,1.2,67.5,1.1,68,1c0,1.7,0,3.5,0,5.2
		S68,9.7,68,11.5 M72.7,5.9c0,0.8-0.1,1.4-0.3,1.9c-0.2,0.4-0.5,0.6-0.8,0.8c0,0-0.1,0-0.1,0c0,0.8,0,1.5,0,2.2
		c-0.5,0.1-0.9,0.2-1.4,0.3c0-0.7,0-1.5,0-2.2c0,0-0.1,0-0.1,0c-0.3,0-0.6-0.2-0.8-0.4C69,8,68.9,7.5,68.9,6.7c0-1,0-1.9,0-2.9
		c0-1,0-1.9,0-2.9c0.5-0.1,0.9-0.2,1.4-0.3c0,1,0,2,0,3c0,1,0,2,0,3c0,0.2,0,0.4,0.1,0.5c0.1,0.2,0.3,0.2,0.5,0.2
		c0.2,0,0.3-0.1,0.4-0.3c0.1-0.2,0.1-0.4,0.1-0.6c0-1,0-2,0-3s0-2,0-3c0.5-0.1,0.9-0.2,1.4-0.3c0,1,0,2,0,3S72.7,4.9,72.7,5.9"/>
	<path class="st0" d="M122.9,63.4c1.9-0.7,4.1,0.2,6.2,0c-0.5,0.4-0.9,0.8-1.4,1.3c0.5,0.4,0.9,0.9,1.4,1.3c-2.1,0-4.4-0.5-6.2,0
		C122.9,65.1,122.9,64.2,122.9,63.4"/>
</g>
<rect x="122.6" y="63.4" class="st1" width="0.6" height="34.7"/>
<path class="st0" d="M133.1,65.2c1.8-0.6,3.9,0.2,5.9,0c-0.4,0.4-0.9,0.8-1.3,1.2c0.4,0.4,0.9,0.8,1.3,1.2c-2,0-4.2-0.5-5.9,0
	C133.1,66.8,133.1,66,133.1,65.2"/>
<rect x="132.8" y="65.2" class="st1" width="0.6" height="32.9"/>
<path class="st0" d="M143.8,67.3c1.7-0.6,3.7,0.2,5.5,0c-0.4,0.4-0.8,0.7-1.3,1.1c0.4,0.4,0.8,0.8,1.3,1.2c-1.8,0-3.9-0.4-5.5,0
	C143.8,68.8,143.8,68,143.8,67.3"/>
<rect x="143.5" y="67.3" class="st1" width="0.6" height="30.8"/>
<g>
	<polygon class="st0" points="11.3,97.3 25,97.3 23.8,93.8 12.2,94.5 	"/>
	<path class="st0" d="M12.7,93.4c3.5,0,7.1-0.5,10.6-0.5v-32c0-3.3-8.5,0.8-10.6,4.1C12.7,74.3,12.7,84.1,12.7,93.4"/>
	<g>
		<path class="st0" d="M43.4,17.8c-3.7,1.3-6.4,3.3-6.4,7.7v6.7c0.4-3.2,3-4.8,6.4-5.8V17.8"/>
		<path class="st0" d="M43.4,26.3c-3.4,1-6,2.6-6.4,5.8v8.6c0.4-2.9,3-4.4,6.4-5.3V26.3"/>
		<path class="st0" d="M43.4,44.4c-3.4,0.8-6,2.1-6.4,4.8v8.6c0.4-2.4,3-3.5,6.4-4.3V44.4"/>
		<path class="st0" d="M43.4,62.6c-3.4,0.7-6,1.7-6.4,3.8v8.6c0.4-1.8,3-2.7,6.4-3.3V62.6"/>
		<path class="st0" d="M43.4,80.7c-3.4,0.5-6,1.2-6.4,2.8V92c0.4-1.3,3-1.9,6.4-2.3V80.7"/>
		<path class="st0" d="M43.4,89.8c-3.4,0.4-6,1-6.4,2.3C37.4,90.8,39.9,90.2,43.4,89.8 M43.4,80.7c-3.4,0.5-6,1.2-6.4,2.8V92v6h6.4
			v-8.2V80.7"/>
		<path class="st0" d="M36.9,83.5c0.4-1.5,3-2.3,6.4-2.8v-9.1c-3.4,0.6-6,1.5-6.4,3.3V83.5"/>
		<path class="st0" d="M36.9,66.4c0.4-2.1,3-3.1,6.4-3.8v-9.1c-3.4,0.7-6,1.9-6.4,4.3V66.4"/>
		<path class="st0" d="M36.9,49.2c0.4-2.7,3-4,6.4-4.8v-9.1c-3.4,0.9-6,2.4-6.4,5.3V49.2"/>
	</g>
	<g>
		<path class="st0" d="M83,87.8c-5.5-0.5-7.7-0.4-12-0.1L68,87.9V98h15V87.8L83,87.8z"/>
		<path class="st0" d="M71,87.7c4.4-0.3,6.6-0.4,12,0.1v-9.5c-5.5-0.6-7.7-0.4-12-0.1L68,78.4v9.5L71,87.7"/>
		<path class="st0" d="M71,78.2c4.4-0.4,6.6-0.5,12,0.1v-9.5c-5.5-0.7-7.7-0.5-12-0.1L68,69v9.5L71,78.2"/>
		<path class="st0" d="M71,68.7c4.4-0.5,6.6-0.6,12,0.1v-9.5c-5.5-0.8-7.7-0.6-12-0.1L68,59.5V69L71,68.7"/>
		<path class="st0" d="M71,59.1c4.4-0.5,6.6-0.7,12,0.1v-9.5c-5.5-0.9-7.7-0.7-12-0.1L68,50v9.5L71,59.1"/>
		<path class="st0" d="M71,49.6c4.4-0.6,6.6-0.8,12,0.1v-9.5c-5.5-1-7.7-0.8-12-0.1L68,40.5V50L71,49.6"/>
		<path class="st0" d="M71,40.1c4.4-0.7,6.6-0.9,12,0.1v-9.5c-5.5-1.1-7.7-0.9-12-0.1L68,31v9.5L71,40.1"/>
		<path class="st0" d="M71,30.5c4.4-0.7,6.6-1,12,0.1v-9.5c-5.5-1.2-7.7-0.9-12-0.1L68,21.5V31L71,30.5"/>
		<path class="st0" d="M71,21c4.4-0.8,6.6-1.1,12,0.1v-9.2c-5.4-1.4-7.6-1.1-12-0.1l-3,0.6v9.2L71,21"/>
	</g>
	<g>
		<path class="st0" d="M107,18.1v8.5c3.3,1.1,5.7,2.8,5.7,6.5v-7.7C112.7,21.3,110.3,19.4,107,18.1"/>
		<path class="st0" d="M112.7,33.1c0-3.6-2.4-5.3-5.7-6.5v9c3.3,1,5.7,2.6,5.7,5.9V33.1"/>
		<path class="st0" d="M112.7,41.6c0-3.3-2.4-4.8-5.7-5.9v9c3.3,0.9,5.7,2.3,5.7,5.3V41.6L112.7,41.6"/>
		<path class="st0" d="M112.7,50c0-3-2.4-4.4-5.7-5.3v9c3.3,0.8,5.7,2.1,5.7,4.7V50L112.7,50"/>
		<path class="st0" d="M112.7,58.5c0-2.7-2.4-3.9-5.7-4.7v9c3.3,0.7,5.7,1.8,5.7,4.2V58.5L112.7,58.5"/>
		<path class="st0" d="M112.7,67c0-2.3-2.4-3.4-5.7-4.2v9c3.3,0.6,5.7,1.6,5.7,3.6V67L112.7,67"/>
		<path class="st0" d="M112.7,75.5c0-2-2.4-3-5.7-3.6v9c3.3,0.5,5.7,1.3,5.7,3.1V75.5L112.7,75.5"/>
		<path class="st0" d="M112.7,83.9c0-1.7-2.4-2.5-5.7-3.1v9c3.3,0.4,5.7,1.1,5.7,2.5V83.9L112.7,83.9"/>
		<path class="st0" d="M112.7,92.4c0-1.4-2.4-2.1-5.7-2.5V98h5.7V92.4"/>
	</g>
</g>
</svg>
