<?xml version="1.0" encoding="utf-8"?>
<!-- Generator: Adobe Illustrator 25.1.0, SVG Export Plug-In . SVG Version: 6.00 Build 0)  -->
<svg version="1.1" id="Слой_1" xmlns="http://www.w3.org/2000/svg" xmlns:xlink="http://www.w3.org/1999/xlink" x="0px" y="0px"
	 viewBox="0 0 155.1 79.5" style="enable-background:new 0 0 155.1 79.5;" xml:space="preserve">
<style type="text/css">
	.st0{fill-rule:evenodd;clip-rule:evenodd;fill:#204385;}
	.st1{fill-rule:evenodd;clip-rule:evenodd;fill:#FFFFFF;}
	.st2{fill:#204385;}
</style>
<g>
	<polygon class="st0" points="36.8,1.8 36.2,1.6 33.6,9.5 34.2,9.7 	"/>
	<polygon class="st0" points="33.6,9.5 33.6,10.3 39.1,10.3 39.1,9.5 	"/>
	<polygon class="st0" points="35.9,1.8 36.5,1.6 39.1,9.5 38.5,9.7 	"/>
</g>
<polygon class="st0" points="115,30.6 115,37.1 88.3,37.1 88.3,69.1 141.7,69.1 141.7,37.1 141.7,30.6 "/>
<g>
	<rect y="78" class="st0" width="152.4" height="1.5"/>
</g>
<g>
	<g>
		<rect x="141.4" y="70.3" class="st0" width="3.6" height="7.7"/>
	</g>
	<g>
		<rect x="136.1" y="70.3" class="st0" width="3.6" height="7.7"/>
	</g>
	<g>
		<rect x="130.9" y="70.3" class="st0" width="3.6" height="7.7"/>
	</g>
	<g>
		<rect x="125.7" y="70.3" class="st0" width="3.6" height="7.7"/>
	</g>
	<g>
		<rect x="120.4" y="70.3" class="st0" width="3.6" height="7.7"/>
	</g>
	<g>
		<rect x="115.2" y="70.3" class="st0" width="3.6" height="7.7"/>
	</g>
	<g>
		<rect x="109.9" y="70.3" class="st0" width="3.6" height="7.7"/>
	</g>
	<g>
		<rect x="104.7" y="70.3" class="st0" width="3.6" height="7.7"/>
	</g>
	<g>
		<rect x="99.5" y="70.3" class="st0" width="3.6" height="7.7"/>
	</g>
	<g>
		<rect x="94.2" y="70.3" class="st0" width="3.6" height="7.7"/>
	</g>
	<g>
		<rect x="89" y="70.3" class="st0" width="3.6" height="7.7"/>
	</g>
	<g>
		<rect x="83.7" y="70.3" class="st0" width="3.6" height="7.7"/>
	</g>
	<g>
		<rect x="78.5" y="70.3" class="st0" width="3.6" height="7.7"/>
	</g>
	<g>
		<rect x="73.3" y="70.3" class="st0" width="3.6" height="7.7"/>
	</g>
	<g>
		<rect x="68" y="70.3" class="st0" width="3.6" height="7.7"/>
	</g>
	<g>
		<rect x="62.8" y="70.3" class="st0" width="3.6" height="7.7"/>
	</g>
	<g>
		<rect x="57.5" y="70.3" class="st0" width="3.6" height="7.7"/>
	</g>
	<g>
		<rect x="52.3" y="70.3" class="st0" width="3.6" height="7.7"/>
	</g>
	<g>
		<rect x="47.1" y="70.3" class="st0" width="3.6" height="7.7"/>
	</g>
	<g>
		<rect x="41.8" y="70.3" class="st0" width="3.6" height="7.7"/>
	</g>
	<g>
		<rect x="36.6" y="70.3" class="st0" width="3.6" height="7.7"/>
	</g>
	<g>
		<rect x="31.3" y="70.3" class="st0" width="3.6" height="7.7"/>
	</g>
	<g>
		<rect x="26.1" y="70.3" class="st0" width="3.6" height="7.7"/>
	</g>
	<g>
		<rect x="20.9" y="70.3" class="st0" width="3.6" height="7.7"/>
	</g>
	<g>
		<rect x="15.6" y="70.3" class="st0" width="3.6" height="7.7"/>
	</g>
	<g>
		<rect x="10.4" y="70.3" class="st0" width="3.6" height="7.7"/>
	</g>
</g>
<rect x="9.2" y="69.4" class="st0" width="136.7" height="0.9"/>
<g>
	<g>
		<g>
			<rect x="132" y="64.1" class="st1" width="3.6" height="1.7"/>
		</g>
		<g>
			<rect x="124.5" y="64.1" class="st1" width="3.6" height="1.7"/>
		</g>
		<g>
			<rect x="116.9" y="64.1" class="st1" width="3.6" height="1.7"/>
		</g>
		<g>
			<rect x="109.4" y="64.1" class="st1" width="3.6" height="1.7"/>
		</g>
		<g>
			<rect x="101.8" y="64.1" class="st1" width="3.6" height="1.7"/>
		</g>
		<g>
			<rect x="94.2" y="64.1" class="st1" width="3.6" height="1.7"/>
		</g>
	</g>
	<g>
		<g>
			<rect x="132" y="57.9" class="st1" width="3.6" height="1.7"/>
		</g>
		<g>
			<rect x="124.5" y="57.9" class="st1" width="3.6" height="1.7"/>
		</g>
		<g>
			<rect x="116.9" y="57.9" class="st1" width="3.6" height="1.7"/>
		</g>
		<g>
			<rect x="109.4" y="57.9" class="st1" width="3.6" height="1.7"/>
		</g>
		<g>
			<rect x="101.8" y="57.9" class="st1" width="3.6" height="1.7"/>
		</g>
		<g>
			<rect x="94.2" y="57.9" class="st1" width="3.6" height="1.7"/>
		</g>
	</g>
	<g>
		<g>
			<rect x="132" y="51.8" class="st1" width="3.6" height="1.7"/>
		</g>
		<g>
			<rect x="124.5" y="51.8" class="st1" width="3.6" height="1.7"/>
		</g>
		<g>
			<rect x="116.9" y="51.8" class="st1" width="3.6" height="1.7"/>
		</g>
		<g>
			<rect x="109.4" y="51.8" class="st1" width="3.6" height="1.7"/>
		</g>
		<g>
			<rect x="101.8" y="51.8" class="st1" width="3.6" height="1.7"/>
		</g>
		<g>
			<rect x="94.2" y="51.8" class="st1" width="3.6" height="1.7"/>
		</g>
	</g>
	<g>
		<g>
			<rect x="132" y="45.7" class="st1" width="3.6" height="1.7"/>
		</g>
		<g>
			<rect x="124.5" y="45.7" class="st1" width="3.6" height="1.7"/>
		</g>
		<g>
			<rect x="116.9" y="45.7" class="st1" width="3.6" height="1.7"/>
		</g>
		<g>
			<rect x="109.4" y="45.7" class="st1" width="3.6" height="1.7"/>
		</g>
		<g>
			<rect x="101.8" y="45.7" class="st1" width="3.6" height="1.7"/>
		</g>
		<g>
			<rect x="94.2" y="45.7" class="st1" width="3.6" height="1.7"/>
		</g>
	</g>
	<g>
		<g>
			<rect x="132" y="39.6" class="st1" width="3.6" height="1.7"/>
		</g>
		<g>
			<rect x="124.5" y="39.6" class="st1" width="3.6" height="1.7"/>
		</g>
		<g>
			<rect x="116.9" y="39.6" class="st1" width="3.6" height="1.7"/>
		</g>
		<g>
			<rect x="109.4" y="39.6" class="st1" width="3.6" height="1.7"/>
		</g>
		<g>
			<rect x="101.8" y="39.6" class="st1" width="3.6" height="1.7"/>
		</g>
		<g>
			<rect x="94.2" y="39.6" class="st1" width="3.6" height="1.7"/>
		</g>
	</g>
</g>
<g>
	<g>
		<rect x="132" y="33" class="st1" width="3.6" height="1.7"/>
	</g>
	<g>
		<rect x="124.5" y="33" class="st1" width="3.6" height="1.7"/>
	</g>
	<g>
		<rect x="116.9" y="33" class="st1" width="3.6" height="1.7"/>
	</g>
</g>
<rect x="89.8" y="31.2" class="st0" width="0.8" height="5.9"/>
<rect x="88.3" y="30.6" class="st0" width="26.7" height="0.5"/>
<rect x="99.5" y="31.2" class="st0" width="0.8" height="5.9"/>
<rect x="107.1" y="31.2" class="st0" width="0.8" height="5.9"/>
<rect x="89.8" y="24.7" class="st0" width="0.8" height="5.9"/>
<rect x="88.3" y="24.1" class="st0" width="53.4" height="0.5"/>
<rect x="99.5" y="24.7" class="st0" width="0.8" height="5.9"/>
<rect x="107.1" y="24.7" class="st0" width="0.8" height="5.9"/>
<rect x="115" y="24.7" class="st0" width="0.8" height="5.9"/>
<rect x="122.5" y="24.7" class="st0" width="0.8" height="5.9"/>
<polygon class="st0" points="139.4,24.7 140.2,24.7 140.2,30.6 139.4,30.6 "/>
<polygon class="st0" points="129.7,24.7 130.5,24.7 130.5,30.6 129.7,30.6 "/>
<rect x="89.8" y="18.2" class="st0" width="0.8" height="5.9"/>
<rect x="88.3" y="17.6" class="st0" width="53.4" height="0.5"/>
<rect x="99.5" y="18.2" class="st0" width="0.8" height="5.9"/>
<rect x="107.1" y="18.2" class="st0" width="0.8" height="5.9"/>
<rect x="115" y="18.2" class="st0" width="0.8" height="5.9"/>
<rect x="122.5" y="18.2" class="st0" width="0.8" height="5.9"/>
<polygon class="st0" points="139.4,18.2 140.2,18.2 140.2,24.1 139.4,24.1 "/>
<polygon class="st0" points="129.7,18.2 130.5,18.2 130.5,24.1 129.7,24.1 "/>
<rect x="107" y="11.1" class="st0" width="34.6" height="0.5"/>
<rect x="107.1" y="11.7" class="st0" width="0.8" height="5.9"/>
<rect x="115" y="11.7" class="st0" width="0.8" height="5.9"/>
<rect x="122.5" y="11.7" class="st0" width="0.8" height="5.9"/>
<polygon class="st0" points="139.4,11.7 140.2,11.7 140.2,17.6 139.4,17.6 "/>
<polygon class="st0" points="129.7,11.7 130.5,11.7 130.5,17.6 129.7,17.6 "/>
<rect x="107.1" y="5.2" class="st0" width="0.8" height="5.9"/>
<rect x="115" y="5.2" class="st0" width="0.8" height="5.9"/>
<rect x="122.5" y="5.2" class="st0" width="0.8" height="5.9"/>
<g>
	<g>
		<polygon class="st0" points="34.5,61.6 34,61.9 38.1,69.1 38.7,68.7 		"/>
		<polygon class="st0" points="38.7,61.9 38.2,61.6 33.9,68.7 34.4,69 		"/>
		<rect x="33.6" y="61.3" class="st0" width="0.8" height="8.2"/>
		<rect x="38.3" y="61.3" class="st0" width="0.8" height="8.2"/>
		<polygon class="st0" points="33.6,61.3 33.6,62.1 39.1,62.1 39.1,61.3 		"/>
	</g>
	<polygon class="st0" points="33.6,68.7 33.6,69.5 39.1,69.5 39.1,68.7 	"/>
</g>
<g>
	<g>
		<polygon class="st0" points="34.5,54.2 34,54.5 38.1,61.7 38.7,61.4 		"/>
		<polygon class="st0" points="38.7,54.6 38.2,54.2 33.9,61.3 34.4,61.6 		"/>
		<rect x="33.6" y="53.9" class="st0" width="0.8" height="8.2"/>
		<rect x="38.3" y="53.9" class="st0" width="0.8" height="8.2"/>
		<polygon class="st0" points="33.6,53.9 33.6,54.7 39.1,54.7 39.1,53.9 		"/>
	</g>
	<polygon class="st0" points="33.6,61.3 33.6,62.1 39.1,62.1 39.1,61.3 	"/>
</g>
<g>
	<g>
		<polygon class="st0" points="34.5,46.8 34,47.1 38.1,54.3 38.7,54 		"/>
		<polygon class="st0" points="38.7,47.2 38.2,46.8 33.9,53.9 34.4,54.3 		"/>
		<rect x="33.6" y="46.6" class="st0" width="0.8" height="8.2"/>
		<rect x="38.3" y="46.6" class="st0" width="0.8" height="8.2"/>
		<polygon class="st0" points="33.6,46.6 33.6,47.3 39.1,47.3 39.1,46.6 		"/>
	</g>
	<polygon class="st0" points="33.6,53.9 33.6,54.7 39.1,54.7 39.1,53.9 	"/>
</g>
<g>
	<g>
		<polygon class="st0" points="34.5,39.4 34,39.7 38.1,46.9 38.7,46.6 		"/>
		<polygon class="st0" points="38.7,39.8 38.2,39.5 33.9,46.6 34.4,46.9 		"/>
		<rect x="33.6" y="39.2" class="st0" width="0.8" height="8.2"/>
		<rect x="38.3" y="39.2" class="st0" width="0.8" height="8.2"/>
		<polygon class="st0" points="33.6,39.2 33.6,40 39.1,40 39.1,39.2 		"/>
	</g>
	<polygon class="st0" points="33.6,46.6 33.6,47.3 39.1,47.3 39.1,46.6 	"/>
</g>
<g>
	<g>
		<polygon class="st0" points="34.5,32 34,32.4 38.1,39.5 38.7,39.2 		"/>
		<polygon class="st0" points="38.7,32.4 38.2,32.1 33.9,39.2 34.4,39.5 		"/>
		<rect x="33.6" y="31.8" class="st0" width="0.8" height="8.2"/>
		<rect x="38.3" y="31.8" class="st0" width="0.8" height="8.2"/>
		<polygon class="st0" points="33.6,31.8 33.6,32.6 39.1,32.6 39.1,31.8 		"/>
	</g>
	<polygon class="st0" points="33.6,39.2 33.6,40 39.1,40 39.1,39.2 	"/>
</g>
<g>
	<g>
		<polygon class="st0" points="34.5,24.7 34,25 38.1,32.2 38.7,31.8 		"/>
		<polygon class="st0" points="38.7,25 38.2,24.7 33.9,31.8 34.4,32.1 		"/>
		<rect x="33.6" y="24.4" class="st0" width="0.8" height="8.2"/>
		<rect x="38.3" y="24.4" class="st0" width="0.8" height="8.2"/>
		<polygon class="st0" points="33.6,24.4 33.6,25.2 39.1,25.2 39.1,24.4 		"/>
	</g>
	<polygon class="st0" points="33.6,31.8 33.6,32.6 39.1,32.6 39.1,31.8 	"/>
</g>
<g>
	<polygon class="st0" points="60,21.6 60,22.2 66,22.2 66,21.6 	"/>
	<polygon class="st0" points="48.1,21.6 48.1,22.2 54,22.2 54,21.6 	"/>
	<polygon class="st0" points="42.1,21.6 42.1,22.2 48.1,22.2 48.1,21.6 	"/>
	<polygon class="st0" points="39.1,24.6 39.5,25.1 42.5,22.1 42.1,21.6 	"/>
	<polygon class="st0" points="39.1,24.6 39.1,25.2 45.1,25.2 45.1,24.6 	"/>
	<polygon class="st0" points="45.1,24.6 44.6,25.1 41.6,22.1 42.1,21.6 	"/>
	<polygon class="st0" points="45.1,24.6 45.5,25.1 48.5,22.1 48.1,21.6 	"/>
	<polygon class="st0" points="45.1,24.6 45.1,25.2 51.1,25.2 51.1,24.6 	"/>
	<polygon class="st0" points="51.1,24.6 50.6,25.1 47.6,22.1 48.1,21.6 	"/>
	<polygon class="st0" points="54,21.6 54,22.2 60,22.2 60,21.6 	"/>
	<polygon class="st0" points="51.1,24.6 51.5,25.1 54.5,22.1 54,21.6 	"/>
	<polygon class="st0" points="51.1,24.6 51.1,25.2 57,25.2 57,24.6 	"/>
	<polygon class="st0" points="57.1,24.6 56.6,25.1 53.6,22.1 54.1,21.6 	"/>
	<polygon class="st0" points="57,24.6 57.5,25.1 60.5,22.1 60,21.6 	"/>
	<polygon class="st0" points="57,24.6 57,25.2 63,25.2 63,24.6 	"/>
	<polygon class="st0" points="63,24.6 62.6,25.1 59.6,22.1 60.1,21.6 	"/>
	<polygon class="st0" points="72,21.6 72,22.2 78,22.2 78,21.6 	"/>
	<polygon class="st0" points="66,21.6 66,22.2 72,22.2 72,21.6 	"/>
	<polygon class="st0" points="63,24.6 63.5,25.1 66.5,22.1 66,21.6 	"/>
	<polygon class="st0" points="63,24.6 63,25.2 69,25.2 69,24.6 	"/>
	<polygon class="st0" points="69,24.6 68.6,25.1 65.6,22.1 66,21.6 	"/>
	<polygon class="st0" points="69,24.6 69.5,25.1 72.4,22.1 72,21.6 	"/>
	<polygon class="st0" points="69,24.6 69,25.2 75,25.2 75,24.6 	"/>
	<polygon class="st0" points="75,24.6 74.6,25.1 71.6,22.1 72,21.6 	"/>
	<polygon class="st0" points="78,21.6 78,22.2 84,22.2 84,21.6 	"/>
	<polygon class="st0" points="75,24.6 75.4,25.1 78.4,22.1 78,21.6 	"/>
	<polygon class="st0" points="75,24.6 75,25.2 81,25.2 81,24.6 	"/>
	<polygon class="st0" points="81,24.6 80.5,25.1 77.6,22.1 78,21.6 	"/>
	<polygon class="st0" points="81,24.6 81.4,25.1 84.4,22.1 84,21.6 	"/>
	<polygon class="st0" points="81,24.6 81,25.2 87,25.2 87,24.6 	"/>
	<polygon class="st0" points="87,24.6 86.5,25.1 83.5,22.1 84,21.6 	"/>
</g>
<g>
	<g>
		<polygon class="st0" points="33.2,24.9 33.4,24.5 28.2,21.4 27.9,21.8 		"/>
		<polygon class="st0" points="33.6,21.7 33.6,21.2 27.6,21.2 27.6,21.7 		"/>
		<polygon class="st0" points="33.6,25.2 33.6,24.6 27.6,24.6 27.6,25.2 		"/>
		<rect x="33" y="21.2" class="st0" width="0.6" height="4"/>
	</g>
	<rect x="27.6" y="21.2" class="st0" width="0.6" height="4"/>
</g>
<g>
	<g>
		<polygon class="st0" points="28,21.8 27.8,21.4 22.5,24.5 22.7,24.9 		"/>
		<polygon class="st0" points="28.2,21.7 28.2,21.2 22.2,21.2 22.2,21.7 		"/>
		<polygon class="st0" points="28.2,25.2 28.2,24.6 22.2,24.6 22.2,25.2 		"/>
		<rect x="27.6" y="21.2" class="st0" width="0.6" height="4"/>
	</g>
	<rect x="22.2" y="21.2" class="st0" width="0.6" height="4"/>
</g>
<g>
	<g>
		<polygon class="st0" points="22.3,24.9 22.5,24.5 17.3,21.4 17.1,21.8 		"/>
		<polygon class="st0" points="22.7,21.7 22.7,21.2 16.7,21.2 16.7,21.7 		"/>
		<polygon class="st0" points="22.7,25.2 22.7,24.6 16.7,24.6 16.7,25.2 		"/>
		<rect x="22.2" y="21.2" class="st0" width="0.6" height="4"/>
	</g>
	<rect x="16.7" y="21.2" class="st0" width="0.6" height="4"/>
</g>
<g>
	<g>
		<polygon class="st0" points="17.1,21.8 16.9,21.4 11.6,24.5 11.8,24.9 		"/>
		<polygon class="st0" points="17.3,21.7 17.3,21.2 11.3,21.2 11.3,21.7 		"/>
		<polygon class="st0" points="17.3,25.2 17.3,24.6 11.3,24.6 11.3,25.2 		"/>
		<rect x="16.7" y="21.2" class="st0" width="0.6" height="4"/>
	</g>
	<rect x="11.3" y="21.2" class="st0" width="0.6" height="4"/>
</g>
<rect x="4.2" y="20" class="st0" width="6" height="8.8"/>
<polygon class="st0" points="40.9,25.2 34,25.2 34,31.8 39.4,31.8 "/>
<polygon class="st1" points="39,29 35.7,29 35.7,25.8 39.7,25.8 "/>
<circle class="st0" cx="36.4" cy="1.7" r="0.6"/>
<g>
	<g>
		<polygon class="st0" points="34.5,9.7 34,10 38.1,17.2 38.7,16.9 		"/>
		<polygon class="st0" points="38.7,10.1 38.2,9.8 33.9,16.8 34.4,17.2 		"/>
		<rect x="33.6" y="9.5" class="st0" width="0.8" height="8.2"/>
		<rect x="38.3" y="9.5" class="st0" width="0.8" height="8.2"/>
		<polygon class="st0" points="33.6,9.5 33.6,10.3 39.1,10.3 39.1,9.5 		"/>
	</g>
	<polygon class="st0" points="33.6,16.9 33.6,17.6 39.1,17.6 39.1,16.9 	"/>
</g>
<polygon class="st2" points="11.5,21.4 11.4,21.1 36.3,1.5 36.4,1.8 "/>
<polygon class="st2" points="83.9,22.1 36.3,1.8 36.4,1.5 84,21.8 "/>
<rect x="80.8" y="25.2" class="st2" width="0.3" height="15.6"/>
<rect x="77.8" y="44" class="st2" width="6.3" height="5.1"/>
<g>
	<rect x="79.6" y="45.9" class="st1" width="2.8" height="1.3"/>
</g>
<polygon class="st2" points="83.8,44.1 80.9,40.8 81.1,40.6 84,43.9 "/>
<polygon class="st2" points="77.9,44.1 77.7,43.9 80.9,40.6 81.1,40.8 "/>
<g>
	<g>
		<polygon class="st0" points="34.5,17.3 34,17.6 38.1,24.8 38.7,24.5 		"/>
		<polygon class="st0" points="38.7,17.6 38.2,17.3 33.9,24.4 34.4,24.7 		"/>
		<rect x="33.6" y="17" class="st0" width="0.8" height="8.2"/>
		<rect x="38.3" y="17" class="st0" width="0.8" height="8.2"/>
		<polygon class="st0" points="33.6,17 33.6,17.8 39.1,17.8 39.1,17 		"/>
	</g>
	<polygon class="st0" points="33.6,24.4 33.6,25.2 39.1,25.2 39.1,24.4 	"/>
</g>
</svg>
