<?xml version="1.0" encoding="utf-8"?>
<!-- Generator: Adobe Illustrator 25.1.0, SVG Export Plug-In . SVG Version: 6.00 Build 0)  -->
<svg version="1.1" id="Слой_1" xmlns="http://www.w3.org/2000/svg" xmlns:xlink="http://www.w3.org/1999/xlink" x="0px" y="0px"
	 viewBox="0 0 153 91.7" style="enable-background:new 0 0 153 91.7;" xml:space="preserve">
<style type="text/css">
	.st0{fill:#204385;}
</style>
<rect x="56.8" y="48.9" transform="matrix(0.9376 -0.3477 0.3477 0.9376 -11.6232 34.0271)" class="st0" width="64.4" height="1"/>
<rect x="122.1" y="33.7" class="st0" width="1" height="56.7"/>
<rect x="53.5" y="56.8" class="st0" width="1" height="33.7"/>
<rect x="58.1" y="55.7" class="st0" width="1" height="10.9"/>
<rect x="119" y="34.9" class="st0" width="1" height="11"/>
<path class="st0" d="M41.1,77l-20.4-8.4l-0.5-1.5L32.4,48l1.2-0.4L54.3,56l0.5,1.5L42.3,76.6L41.1,77z M22.6,67.2l18.5,7.6
	l11.3-17.4l-18.7-7.6L22.6,67.2z"/>
<path class="st0" d="M59.7,82.8l-1.4-0.9l-0.2-16.8l0.6-0.9l59.7-23.3l1.3,1.4L109,62.9l-0.5,0.5L59.7,82.8z M60.1,65.8l0.2,14.6
	l47.2-18.8l9.3-17.9L60.1,65.8z"/>
<path class="st0" d="M41.4,91.6H21.2l-1-1V67.7l1.4-0.9l20.2,8.3l0.6,0.9v14.5L41.4,91.6z M22.2,89.6h18.2V76.8l-18.2-7.5V89.6z"/>
<path class="st0" d="M132,91.6h-14l-1-1l1-47.3L60,65.8l0.2,24.7l-1,1H41.4l-1-1V76l0.2-0.5l12.5-19.2l0.5-0.4l68.8-24l0.9,0.1
	l10,7.2l0.4,0.8L133,90.6L132,91.6z M119.1,89.6h12l0.7-48.9l-9.2-6.6l-68,23.7L42.4,76.4v13.2h15.9l-0.2-24.4l0.6-0.9l60-23.3
	l1.4,1L119.1,89.6z"/>
<path class="st0" d="M118.1,91.6h-15l-1-1V64.4l0.6-0.9l4.7-1.8L117.9,42l1.9,0.5L119,90.6L118.1,91.6z M104.1,89.6h13l0.7-43
	L109,62.9l-0.5,0.5l-4.4,1.7V89.6z"/>
<path class="st0" d="M54.2,57.9h-0.7l-20.6-8.4l0.1-1.9l70.2-22h0.6l19.2,6.3v1.9L54.2,57.9z M36.2,48.7l17.7,7.2L119.6,33
	l-16.1-5.3L36.2,48.7z"/>
<path class="st0" d="M90.7,37.4l-4-1.3c-0.3-0.1-0.6-0.1-0.9,0L71,40.8c-0.3,0.1-0.3,0.5,0,0.6l3.9,1.7c0.4,0.2,0.7,0.2,1.1,0
	L90.8,38C91,37.8,90.9,37.5,90.7,37.4z"/>
<path class="st0" d="M38.6,71.5l-11.9-5.2c-0.9-0.4-1.3-1.6-0.7-2.4l7.4-11.3c0.4-0.7,1.3-0.9,2-0.6l11.9,5.2
	c0.9,0.4,1.3,1.6,0.7,2.4l-7.4,11.3C40.2,71.6,39.4,71.8,38.6,71.5z"/>
<path class="st0" d="M55.9,23H51v24.8c0.4,0.2,1.2,0.6,2.3,0.6c1.2,0,2.1-0.4,2.5-0.6C55.9,39.6,55.9,31.3,55.9,23z"/>
<path class="st0" d="M58,0.8h-8.9c-2.1,0-3.7,1.7-3.7,3.7v14.4c0,2.1,1.7,3.7,3.7,3.7H58c2.1,0,3.7-1.7,3.7-3.7V4.5
	C61.7,2.4,60,0.8,58,0.8z M50.8,19.3c-1.6,0-2.8-1.3-2.8-2.8c0-1.6,1.3-2.8,2.8-2.8c1.6,0,2.8,1.3,2.8,2.8
	C53.7,18.1,52.4,19.3,50.8,19.3z M50.8,9.6c-1.6,0-2.8-1.3-2.8-2.8C48,5.2,49.3,4,50.8,4c1.6,0,2.8,1.3,2.8,2.8
	C53.7,8.4,52.4,9.6,50.8,9.6z"/>
</svg>
