<svg xmlns="http://www.w3.org/2000/svg" xmlns:xlink="http://www.w3.org/1999/xlink" viewBox="0 0 114.75319 79.751053">
 <defs id="defs5935">
  <style>
 #reader,  #reader_en,  #reader_de,  #reader_fr,  #reader_it,  #reader_es,
 #po,  #po_en,  #po_de,  #po_fr,  #po_it,  #po_es,
 #ip-style,  #ip-style_en,  #ip-style_de,  #ip-style_fr,  #ip-style_it,  #ip-style_es{
 fill: #77A6D7; font-size: 3px;
 }
 </style>
 <text id="reader" y="10.364" x="38.676"><tspan y="10" x="38.676" id="tspan13223">Встроенные</tspan><tspan id="tspan13227" y="14" x="38.676">считыватели</tspan><tspan id="tspan13229" y="18" x="38.676">бесконтактных</tspan><tspan id="tspan13231" y="22" x="38.676">карт доступа</tspan>
 </text>
 <text id="po" y="45.516" x="39.18"><tspan id="tspan13231-8" y="45" x="39">Программное</tspan><tspan id="tspan13269" y="49" x="39.18">обеспечение</tspan>
 </text>
 <text id="ip-style" y="44.776" x="92.08"><tspan id="tspan13271-3" y="44" x="92.08">Стойка</tspan><tspan id="tspan13304" y="48" x="92.08">электронной</tspan><tspan id="tspan13302" y="52" x="92.08">проходной</tspan>
 </text>
 <text id="reader_en" y="10.364" x="38.676"><tspan y="10" x="38.676" id="tspan13223">Consealed proximity</tspan><tspan id="tspan13227" y="14" x="38.676">card readers</tspan><tspan id="tspan13229" y="18" x="38.676">and graphic</tspan><tspan id="tspan13231" y="22" x="38.676">indication</tspan>
 </text>
 <text id="po_en" y="45.516" x="39.18"><tspan id="tspan13231-8" y="45" x="39">System</tspan><tspan id="tspan13269" y="49" x="39.18">software</tspan>
 </text>
 <text id="ip-style_en" y="44.776" x="92.08"><tspan id="tspan13271-3" y="44" x="92.08">IP-based</tspan><tspan id="tspan13304" y="48" x="92.08">turnstile</tspan>
 </text>
 <text id="reader_de" y="10.364" x="38.676"><tspan y="10" x="38.676" id="tspan13223">Eingebaute</tspan><tspan id="tspan13227" y="14" x="38.676">berührungslose</tspan><tspan id="tspan13229" y="18" x="38.676">Kartenkeser</tspan>
 </text>
 <text id="po_de" y="45.516" x="39.18"><tspan id="tspan13231-8" y="45" x="39">System-</tspan><tspan id="tspan13269" y="49" x="39.18">software</tspan>
 </text>
 <text id="ip-style_de" y="44.776" x="92.08"><tspan id="tspan13271-3" y="44" x="92.08">IP-basierte</tspan><tspan id="tspan13304" y="48" x="92.08">Drehsperre</tspan>
 </text>
 <text id="reader_fr" y="10.364" x="38.676"><tspan y="10" x="38.676" id="tspan13223">Lecteurs de</tspan><tspan id="tspan13227" y="14" x="38.676">cartes</tspan><tspan id="tspan13229" y="18" x="38.676">de proximité</tspan><tspan id="tspan13231" y="22" x="38.676">intégrés</tspan>
 </text>
 <text id="po_fr" y="45.516" x="39.18"><tspan id="tspan13231-8" y="45" x="39">Logiciel</tspan>
 </text>
 <text id="ip-style_fr" y="44.776" x="92.08"><tspan id="tspan13271-3" y="44" x="92.08">Tourniquet</tspan>
 </text>
 <text id="reader_it" y="10.364" x="38.676"><tspan y="10" x="38.676" id="tspan13223">Lettori</tspan><tspan id="tspan13227" y="14" x="38.676">card incorporati</tspan>
 </text>
 <text id="po_it" y="45.516" x="39.18"><tspan id="tspan13231-8" y="45" x="39">Software</tspan>
 </text>
 <text id="ip-style_it" y="44.776" x="92.08"><tspan id="tspan13271-3" y="44" x="92.08">Tornello</tspan><tspan id="tspan13304" y="48" x="92.08">IP-Stile</tspan>
 </text>
 <text id="reader_es" y="10.364" x="38.676"><tspan y="10" x="38.676" id="tspan13223">Lectores</tspan><tspan id="tspan13227" y="14" x="38.676">de tarjetas</tspan><tspan id="tspan13229" y="18" x="38.676">sin contacto</tspan><tspan id="tspan13231" y="22" x="38.676">encastrados</tspan>
 </text>
 <text id="po_es" y="45.516" x="39.18"><tspan id="tspan13231-8" y="45" x="39">Soporte</tspan><tspan id="tspan13269" y="49" x="39.18">lógico</tspan>
 </text>
 <text id="ip-style_es" y="44.776" x="92.08"><tspan id="tspan13271-3" y="44" x="92.08">Stand</tspan><tspan id="tspan13304" y="48" x="92.08">de entrada</tspan><tspan id="tspan13302" y="52" x="92.08">de control electrón</tspan>
 </text>
  <clipPath id="clipPath332">
   <path d="M 0,595.276 H 841.89 V 0 H 0 Z" id="path330"/>
  </clipPath>
  <clipPath id="clipPath806">
   <path d="M 0,841.89 H 1190.55 V 0 H 0 Z" id="path804"/>
  </clipPath>
  <linearGradient id="linearGradient11103" gradientUnits="userSpaceOnUse" x1="88.72" y1="174.94" x2="88.95" y2="173.69">
   <stop id="stop328" stop-color="#e5e5e5"/>
   <stop offset=".543" id="stop330" stop-color="#878787"/>
   <stop offset=".789" id="stop332" stop-color="#878787"/>
   <stop offset=".827" id="stop334" stop-color="#c7c7c6"/>
   <stop offset=".976" id="stop336" stop-color="#c7c7c6"/>
   <stop offset="1" id="stop338-9" stop-color="#c7c7c6"/>
  </linearGradient>
  <linearGradient id="linearGradient11105" gradientUnits="userSpaceOnUse" x1="71.63" y1="171.85" x2="71.829" y2="170.73" xlink:href="#linearGradient11103"/>
  <linearGradient id="linearGradient11107" gradientUnits="userSpaceOnUse" x1="92.08" y1="170.18" x2="70.13" y2="154.81">
   <stop id="stop408" stop-color="#fff"/>
   <stop offset=".689" id="stop410" stop-color="#6da6d4"/>
   <stop offset="1" id="stop412" stop-color="#6da6d4"/>
  </linearGradient>
  <linearGradient id="linearGradient11109" gradientUnits="userSpaceOnUse" x1="66.41" y1="168.91" x2="82.991" y2="184.37">
   <stop id="stop430-2" stop-color="#e5e5e5"/>
   <stop offset=".286" id="stop432-4" stop-color="#aeaeae"/>
   <stop offset=".416" id="stop434-9" stop-color="#aeaeae"/>
   <stop offset=".982" id="stop436-9" stop-color="#70706f"/>
   <stop offset="1" id="stop438" stop-color="#70706f"/>
  </linearGradient>
  <linearGradient id="linearGradient11111" gradientUnits="userSpaceOnUse" x1="86.68" y1="180.62" x2="85.77" y2="179.31">
   <stop id="stop468" stop-color="#70706f"/>
   <stop offset=".502" id="stop470" stop-color="#70706f"/>
   <stop offset=".681" id="stop472" stop-color="#aeaeae"/>
   <stop offset=".758" id="stop474" stop-color="#3d3d3c"/>
   <stop offset=".964" id="stop476" stop-color="#3d3d3c"/>
   <stop offset="1" id="stop478-6" stop-color="#3d3d3c"/>
  </linearGradient>
  <linearGradient id="linearGradient11101" gradientUnits="userSpaceOnUse" x1="69.968" x2="91.42">
   <stop id="stop290" stop-color="#e5e5e5"/>
   <stop offset=".506" id="stop292" stop-color="#aeaeae"/>
   <stop offset=".735" id="stop294" stop-color="#aeaeae"/>
   <stop offset=".952" id="stop296" stop-color="#878787"/>
   <stop offset="1" id="stop298" stop-color="#878787"/>
  </linearGradient>
  <linearGradient xlink:href="#linearGradient832" id="linearGradient9790" gradientUnits="userSpaceOnUse" gradientTransform="matrix(.08714-.43855.44152.10981 68.69 128.53)" x1="0" x2="1"/>
  <linearGradient xlink:href="#linearGradient438" id="linearGradient9774" gradientUnits="userSpaceOnUse" x1="68.66" y1="131.75" x2="79.42" y2="123.88"/>
  <linearGradient xlink:href="#linearGradient508" id="linearGradient9776" gradientUnits="userSpaceOnUse" x1="68.31" y1="146.43" x2="69.831" y2="147.1"/>
  <linearGradient xlink:href="#linearGradient66" id="linearGradient11354" gradientUnits="userSpaceOnUse" x1="198.8" y1="140.82" x2="167.04" y2="176.02"/>
  <linearGradient xlink:href="#linearGradient554" id="linearGradient9778" gradientUnits="userSpaceOnUse" x1="92.38" y1="133.63" x2="92.7" y2="131.73"/>
  <linearGradient xlink:href="#linearGradient776" id="linearGradient9786" gradientUnits="userSpaceOnUse" gradientTransform="matrix(.51114-.31785.34263.53018 65.03 130.1)" x1="0" x2="1"/>
  <linearGradient xlink:href="#linearGradient796" id="linearGradient9788" gradientUnits="userSpaceOnUse" gradientTransform="matrix(.40576-.25232.27199.42088 63.83 130.89)" x1="0" x2="1"/>
  <linearGradient xlink:href="#linearGradient596" id="linearGradient9780" gradientUnits="userSpaceOnUse" x1="85.38" y1="143.79" x2="86.64" y2="142.85"/>
  <linearGradient xlink:href="#linearGradient88" id="linearGradient11356" gradientUnits="userSpaceOnUse" y1="81.01" x2="0" y2="225.65"/>
  <linearGradient xlink:href="#linearGradient508" id="linearGradient11374" gradientUnits="userSpaceOnUse" x1="208.64" y1="120.34" x2="213.2" y2="122.34"/>
  <linearGradient xlink:href="#linearGradient554" id="linearGradient11376" gradientUnits="userSpaceOnUse" x1="280.66" y1="82.05" x2="281.63" y2="76.35"/>
  <linearGradient xlink:href="#linearGradient320" id="linearGradient9772" gradientUnits="userSpaceOnUse" x1="80.885" y1="120.19" x2="82.51" y2="128.38"/>
  <linearGradient xlink:href="#linearGradient596" id="linearGradient11378" gradientUnits="userSpaceOnUse" x1="259.72" y1="112.43" x2="263.49" y2="109.62"/>
  <linearGradient xlink:href="#linearGradient796" id="linearGradient11382" gradientUnits="userSpaceOnUse" gradientTransform="matrix(1.2139-.75485.8137 1.25912 195.24 73.833)" x1="0" x2="1"/>
  <linearGradient xlink:href="#linearGradient832" id="linearGradient11384" gradientUnits="userSpaceOnUse" gradientTransform="matrix(.2607-1.31198 1.32086.3285 209.78 66.79)" x1="0" x2="1"/>
  <linearGradient xlink:href="#linearGradient776" id="linearGradient11380" gradientUnits="userSpaceOnUse" gradientTransform="matrix(1.52914-.95088 1.02501 1.5861 198.84 71.49)" x1="0" x2="1"/>
  <linearGradient xlink:href="#linearGradient438" id="linearGradient11372" gradientUnits="userSpaceOnUse" x1="209.69" y1="76.41" x2="241.88" y2="52.862"/>
  <linearGradient xlink:href="#linearGradient110" id="linearGradient11358" gradientUnits="userSpaceOnUse" x1="223.5" y1="53.5" x2="189.81" y2="90.83"/>
  <linearGradient xlink:href="#linearGradient154" id="linearGradient11360" gradientUnits="userSpaceOnUse" x1="236.45" y1="87.46" x2="222.51" y2="67.7"/>
  <linearGradient xlink:href="#linearGradient320" id="linearGradient11370" gradientUnits="userSpaceOnUse" x1="246.27" y1="41.84" x2="251.12" y2="66.34"/>
  <linearGradient xlink:href="#linearGradient178" id="linearGradient11362" gradientUnits="userSpaceOnUse" x1="228.36" y1="75.04" x2="227.27" y2="69.1"/>
  <linearGradient xlink:href="#linearGradient254" id="linearGradient11366" gradientUnits="userSpaceOnUse" x1="208.4" y1="69.52" x2="237.77" y2="45.869"/>
  <linearGradient xlink:href="#linearGradient288" id="linearGradient11368" gradientUnits="userSpaceOnUse" x1="237.58" y1="51.04" x2="202.38" y2="69.962"/>
  <linearGradient xlink:href="#linearGradient212" id="linearGradient11364" gradientUnits="userSpaceOnUse" x1="260.11" y1="45.926" x2="262.46" y2="63.09"/>
  <linearGradient xlink:href="#linearGradient288" id="linearGradient9770" gradientUnits="userSpaceOnUse" x1="77.981" y1="123.27" x2="66.22" y2="129.59"/>
  <linearGradient x1="806.72" y1="566.59" x2="897.97" y2="633.34" gradientUnits="userSpaceOnUse" id="linearGradient438">
   <stop id="stop424" stop-color="#5a5a59"/>
   <stop offset=".155" id="stop426" stop-color="#5a5a59"/>
   <stop offset=".234" id="stop428" stop-color="#1d1d1b"/>
   <stop offset=".547" id="stop430" stop-color="#1d1d1b"/>
   <stop offset=".967" id="stop432" stop-color="#2e373b"/>
   <stop offset=".978" id="stop434" stop-color="#1d1d1b"/>
   <stop offset="1" id="stop436" stop-color="#1d1d1b"/>
  </linearGradient>
  <linearGradient x1="949.63" y1="653" x2="956.3" y2="604.33" gradientUnits="userSpaceOnUse" id="linearGradient212" xlink:href="#linearGradient288"/>
  <linearGradient x1="910.39" y1="664.58" x2="924.14" y2="595.12" gradientUnits="userSpaceOnUse" id="linearGradient320">
   <stop id="stop304" stop-color="#5f5f5e"/>
   <stop offset=".239" id="stop306" stop-color="#b5b5b4"/>
   <stop offset=".386" id="stop308" stop-color="#8c8c8b"/>
   <stop offset=".411" id="stop310" stop-color="#fff"/>
   <stop offset=".512" id="stop312" stop-color="#fff"/>
   <stop offset=".608" id="stop314" stop-color="#727271"/>
   <stop offset=".702" id="stop316" stop-color="#ededed"/>
   <stop offset="1" id="stop318" stop-color="#7c7b7b"/>
  </linearGradient>
  <linearGradient x1="803.06" y1="586.11" x2="886.32" y2="653.16" gradientUnits="userSpaceOnUse" id="linearGradient254">
   <stop id="stop240" stop-color="#3d3d3c"/>
   <stop offset=".055" id="stop242" stop-color="#3d3d3c"/>
   <stop offset=".2" id="stop244" stop-color="#1d1d1b"/>
   <stop offset=".315" id="stop246" stop-color="#1d1d1b"/>
   <stop offset=".967" id="stop248" stop-color="#2e373b"/>
   <stop offset=".978" id="stop250" stop-color="#1d1d1b"/>
   <stop offset="1" id="stop252" stop-color="#1d1d1b"/>
  </linearGradient>
  <linearGradient x1="0" x2="1" gradientUnits="userSpaceOnUse" gradientTransform="matrix(.73901 3.719 3.74417-.93117 806.96 593.86)" id="linearGradient832">
   <stop id="stop828" stop-color="#fff"/>
   <stop offset="1" id="stop830" stop-color="#fff"/>
  </linearGradient>
  <linearGradient x1="803.73" y1="442.07" x2="816.65" y2="436.39" gradientUnits="userSpaceOnUse" id="linearGradient508" xlink:href="#linearGradient596"/>
  <linearGradient x1="0" x2="1" gradientUnits="userSpaceOnUse" gradientTransform="matrix(3.44097 2.13974 2.30656-3.56915 765.76 573.89)" id="linearGradient796" xlink:href="#linearGradient832"/>
  <linearGradient x1="1007.88" y1="550.62" x2="1010.63" y2="566.75" gradientUnits="userSpaceOnUse" id="linearGradient554" xlink:href="#linearGradient596"/>
  <linearGradient x1="0" x2="1" gradientUnits="userSpaceOnUse" gradientTransform="matrix(4.33457 2.69541 2.90555-4.49603 775.97 580.52)" id="linearGradient776" xlink:href="#linearGradient832"/>
  <linearGradient x1="217.65" y1="224.44" x2="193.9" y2="233.61" gradientUnits="userSpaceOnUse" id="linearGradient718">
   <stop id="stop712" stop-color="#5f5f5e"/>
   <stop offset=".842" id="stop714" stop-color="#c4c4c4"/>
   <stop offset="1" id="stop716" stop-color="#c4c4c4"/>
  </linearGradient>
  <linearGradient x1="948.53" y1="464.48" x2="959.22" y2="472.44" gradientUnits="userSpaceOnUse" id="linearGradient596">
   <stop id="stop582" stop-color="#9d9c9c"/>
   <stop offset=".061" id="stop584" stop-color="#b5b5b4"/>
   <stop offset=".105" id="stop586" stop-color="#b5b5b4"/>
   <stop offset=".291" id="stop588" stop-color="#fff"/>
   <stop offset=".582" id="stop590" stop-color="#70706f"/>
   <stop offset=".78" id="stop592" stop-color="#fff"/>
   <stop offset="1" id="stop594" stop-color="#7c7b7b"/>
  </linearGradient>
  <linearGradient x1="242.84" y1="225.49" x2="244.11" y2="228.66" gradientUnits="userSpaceOnUse" id="linearGradient744">
   <stop id="stop734" stop-color="#fff"/>
   <stop offset=".196" id="stop736" stop-color="#fff"/>
   <stop offset=".465" id="stop738" stop-color="#fff"/>
   <stop offset=".691" id="stop740" stop-color="#727271"/>
   <stop offset="1" id="stop742" stop-color="#727271"/>
  </linearGradient>
  <linearGradient x1="885.77" y1="638.5" x2="786" y2="584.87" gradientUnits="userSpaceOnUse" id="linearGradient288">
   <stop id="stop270" stop-color="#3d3d3c"/>
   <stop offset=".055" id="stop272" stop-color="#3d3d3c"/>
   <stop offset=".106" id="stop274" stop-color="#c7c7c6"/>
   <stop offset=".148" id="stop276" stop-color="#c7c7c6"/>
   <stop offset=".228" id="stop278" stop-color="#1d1d1b"/>
   <stop offset=".547" id="stop280" stop-color="#1d1d1b"/>
   <stop offset=".967" id="stop282" stop-color="#2e373b"/>
   <stop offset=".978" id="stop284" stop-color="#1d1d1b"/>
   <stop offset="1" id="stop286" stop-color="#1d1d1b"/>
  </linearGradient>
  <linearGradient xlink:href="#linearGradient110" id="linearGradient9758" gradientUnits="userSpaceOnUse" x1="73.28" y1="124.09" x2="62.01" y2="136.57"/>
  <linearGradient xlink:href="#linearGradient88" id="linearGradient9756" gradientUnits="userSpaceOnUse" y1="133.28" x2="0" y2="181.63"/>
  <linearGradient xlink:href="#linearGradient154" id="linearGradient9762" gradientUnits="userSpaceOnUse" x1="77.6" y1="135.44" x2="72.945" y2="128.84"/>
  <linearGradient xlink:href="#linearGradient212" id="linearGradient9766" gradientUnits="userSpaceOnUse" x1="85.51" y1="121.56" x2="86.3" y2="127.3"/>
  <linearGradient xlink:href="#linearGradient254" id="linearGradient9768" gradientUnits="userSpaceOnUse" x1="68.23" y1="129.45" x2="78.05" y2="121.54"/>
  <linearGradient xlink:href="#linearGradient178" id="linearGradient9764" gradientUnits="userSpaceOnUse" x1="74.901" y1="131.29" x2="74.54" y2="129.3"/>
  <linearGradient x1="859.65" y1="570.47" x2="856.55" y2="587.31" gradientUnits="userSpaceOnUse" id="linearGradient178">
   <stop id="stop170" stop-color="#5f5f5e"/>
   <stop offset=".94" id="stop172" stop-color="#b5b5b4"/>
   <stop offset=".996" id="stop174" stop-color="#f1f1f1"/>
   <stop offset="1" id="stop176" stop-color="#f1f1f1"/>
  </linearGradient>
  <linearGradient xlink:href="#linearGradient66" id="linearGradient9754" gradientUnits="userSpaceOnUse" x1="65.02" y1="153.28" x2="54.4" y2="165.04"/>
  <linearGradient x1="845.87" y1="631.53" x2="750.37" y2="525.7" gradientUnits="userSpaceOnUse" id="linearGradient110" xlink:href="#linearGradient718"/>
  <linearGradient x1="882.56" y1="535.27" x2="843.06" y2="591.27" gradientUnits="userSpaceOnUse" id="linearGradient154">
   <stop id="stop148" stop-color="#5f5f5e"/>
   <stop offset=".821" id="stop150" stop-color="#b5b5b4"/>
   <stop offset="1" id="stop152" stop-color="#b5b5b4"/>
  </linearGradient>
  <linearGradient x1="220.19" y1="207.42" x2="237.12" y2="230" gradientUnits="userSpaceOnUse" id="linearGradient132" xlink:href="#linearGradient718"/>
  <linearGradient y1="553.56" x2="0" y2="143.56" gradientUnits="userSpaceOnUse" id="linearGradient88">
   <stop id="stop82" stop-color="#5f5f5e"/>
   <stop offset=".699" id="stop84" stop-color="#e7e7e7"/>
   <stop offset="1" id="stop86" stop-color="#a2a1a1"/>
  </linearGradient>
  <linearGradient x1="775.84" y1="384.02" x2="685.8" y2="284.24" gradientUnits="userSpaceOnUse" id="linearGradient66" xlink:href="#linearGradient718"/>
  <radialGradient cx="0" cy="0" r="1" gradientUnits="userSpaceOnUse" gradientTransform="matrix(-4.15083-1.06282.6962-2.71901 226.19 228.1)" id="radialGradient696">
   <stop id="stop690" stop-color="#70706f"/>
   <stop offset=".647" id="stop692" stop-color="#1d1d1b"/>
   <stop offset="1" id="stop694" stop-color="#1d1d1b"/>
  </radialGradient>
  <radialGradient cx="0" cy="0" r="1" gradientUnits="userSpaceOnUse" gradientTransform="matrix(-4.15083-1.06282.6962-2.71901 208.95 219.97)" id="radialGradient630" xlink:href="#radialGradient696"/>
  <radialGradient cx="0" cy="0" r="1" gradientUnits="userSpaceOnUse" gradientTransform="matrix(-4.0334-1.03275.67651-2.64209 254.59 218.38)" id="radialGradient674" xlink:href="#radialGradient696"/>
  <radialGradient cx="0" cy="0" r="1" gradientUnits="userSpaceOnUse" gradientTransform="matrix(-4.0334-1.03275.67651-2.64209 235.83 209.69)" id="radialGradient652" xlink:href="#radialGradient696"/>
 </defs>
 <path id="rect11388" fill="#80b3ff" stroke-width=".346" d="m27.08 65.61h.621v9.28h-.621z"/>
 <path id="rect11388-2" fill="#80b3ff" stroke-width=".488" d="m74.43 57.805h.621v18.499h-.621z"/>
 <g transform="matrix(.3441 0 0 .3441 5.473-10.497)" id="g11352">
  <path id="path46" d="m230.62 44.34c.151.072.339.166.552.281-.609-.307-1.376-.624-2.12-.888.539.176 1.1.382 1.567.607zm4.01 3.196l-.001.002c-.527-.717-1.536-1.629-2.344-2.235.727.511 1.559 1.227 2.353 2.233zm29.964 13.27l.793-.153-.042.042zm-27.863-9.35c.019.053.039.108.057.161-.024-.064-.047-.127-.073-.193zm79.38 30.617v-.0001l-.017-.003c-.012-.002-.025-.005-.038-.006l-62.56-10.367 5.098-4.393-3.245 3.177c0 0 1.83-.551 2.139-.871.309-.32 7.11-6.846 7.442-7.155.331-.308 1.047-1.244 1.522-1.923.272-.39.981-1.538 1.278-2.222.309-.595.823-2.699.823-2.699 0 0 .236-1.865.18-2.978-.029-.573-.103-1.446-.137-1.871-.035-.425-.219-1.763-.219-1.763l.018-1.286c-.007-.768-.18-1.882-.18-1.882 0 0-.051-.315-.276-.827-.476-1.082-1.41-2.888-2.039-3.359-.213-.159-1.01-.303-1.01-.303 0 0-.726-1.05-1.056-1.402-.547-.583-1.806-1.583-2.469-2.028-.481-.323-1.536-.828-2.087-1-.466-.15-1.451-.254-1.94-.259-.591-.007-2.038.285-2.609.441-.494.134-1.545.593-1.704.773-8.592 1.7-25.664 5.094-26.04 5.296-.974-.151-2.606.101-3.573.292-.276.054-.56.135-.842.23-.065.015-.127.029-.184.042-1.561.356-3.381 1.556-3.381 1.556l-12.792 9.581c0 0-.008.009-.02.023l-.231.167c0 0-.509.465-1.118 1.581-.234.353-.456.728-.627 1.095-.038.081-.078.18-.118.287l-16.93 15.439 1.777 150.26 5.477 2.205 29.467 10.125 39.19-15.678.088-1.952-30.545-13.891-.643-114.28 5.722-4.931.199.261.846-.525 43.25 58.22c0 0 1.8.304 3.12-.826 1.798-1.247 1.561-2.475 1.561-2.475l-43.04-57.953 1.064-.66-1.01-1.206 4.143-3.571 67.07 11.236v-.0001c.068.017.139.027.214.023.812-.048 1.648-1.378 1.869-2.971.204-1.465-.187-2.639-.884-2.78z" fill="none" stroke="#878787" stroke-width="1.058" stroke-miterlimit="10"/>
  <path d="m188.95 223.71l5.477 2.205-.097-128.7-7.157-23.768z" id="path68" fill="url(#linearGradient11354)"/>
  <path d="m194.33 97.22l.092 122.18 38.21-14.88-.643-114.29z" id="path90" fill="url(#linearGradient11356)"/>
  <path d="m187.17 73.45l7.157 23.768 36.37-31.38-24.88-9.396z" id="path112" fill="url(#linearGradient11358)"/>
  <path d="m194.42 219.4l29.464 14.322 39.29-15.311-30.545-13.891z" id="path134" fill="url(#linearGradient132)"/>
  <path d="m230.7 65.838l-36.37 31.38 37.658-6.984 34.466-29.704z" id="path156" fill="url(#linearGradient11360)"/>
  <path d="m231.35 68.2l-35.36 28.858 33.949-6.389 32.55-28.17z" id="path180" fill="url(#linearGradient11362)"/>
  <path d="m254.73 37.09c-.535.146-1.726.672-1.726.812 0 .283 1.049.422 1.049.422l5.114.353 7.316 9.04-1.099 12.942-10.04 9.826c0 0 1.83-.551 2.139-.871.309-.32 7.109-6.846 7.441-7.155.331-.308 1.047-1.244 1.522-1.923.272-.39.98-1.538 1.278-2.222.309-.595.823-2.699.823-2.699 0 0 .236-1.865.181-2.978-.029-.573-.103-1.446-.137-1.871-.034-.425-.219-1.763-.219-1.763l.018-1.286c-.007-.767-.18-1.882-.18-1.882 0 0-.05-.314-.276-.827-.476-1.082-1.41-2.888-2.039-3.359-.213-.159-1.01-.303-1.01-.303 0 0-.726-1.05-1.056-1.402-.547-.583-1.806-1.583-2.469-2.028-.481-.323-1.536-.828-2.087-1-.466-.15-1.451-.254-1.94-.259-.007 0-.014 0-.022 0-.604 0-2.024.287-2.588.441" id="path214" fill="url(#linearGradient11364)"/>
  <path id="path226" d="m205.96 55.05l13.99-10.135c0 0 1.873-1.151 3.46-1.464.967-.191 2.599-.443 3.573-.292 1.248.194 3.918 1.191 4.954 1.907.841.58 2.075 1.656 2.678 2.476.752 1.024 2.082 3.508 2.377 4.738.242 1.01.679 3.152.642 4.184-.051 1.402-.766 4.759-1.337 6.04-.442.995-1.974 3.717-2.887 4.32-4.396 2.904-14.871 10.04-14.871 10.04 0 0-1.837.921-3.862.859-.801-.024-2.348-.326-3.292-.682-.849-.32-2.177-1.33-2.902-1.873-.925-.693-2.304-2.159-2.883-3.099-.751-1.218-1.745-3.135-2.182-5.285-.269-1.322-.489-4.069-.035-5.728.017-.061.794-3.129 1.284-4.101.684-1.358 1.292-1.906 1.292-1.906" fill="#1d1d1b"/>
  <path d="m222.39 43.72c-1.561.356-3.381 1.556-3.381 1.556l-12.792 9.581c0 0-1.356 1.49-1.996 2.865-.459.985-1.146 4.072-1.161 4.134-.405 1.671-.114 4.411.186 5.725.489 2.137 1.522 4.03 2.297 5.224.598.924 2 2.353 2.933 3.02.731.523 2.07 1.496 2.918 1.794.943.33 2.481.59 3.273.593 2 .008 3.796-.962 3.796-.962 0 0 11.438-8.372 15.09-11.625.812-.723 1.759-2.762 2.169-3.769.53-1.299 1.058-4.107 1.071-5.509.001-1.033-.448-3.578-.713-4.576-.326-1.222-1.302-3.108-2.073-4.111-.618-.804-2.302-1.998-3.149-2.556-1.043-.687-3.371-1.768-4.611-1.928-.114-.015-.242-.022-.381-.022-1.032 0-2.643.373-3.481.564" id="path256" fill="url(#linearGradient11366)"/>
  <path d="m231.21 48.542c-.211.053-3.594.664-4.804.619-.743-.027-2.915-.578-2.915-.578 0 0-2.904-.636-4.01-.622-.637.008-2.198.138-2.81.315-.613.178-2.406.856-2.406.856l-8.299 5.914c0 0-1.863 2.375-2.279 4.387-.186.899-.709 2.672-.781 3.587-.081 1.032.031 3.12.241 4.133.237 1.148 1.025 3.384 1.603 4.402.61 1.077 3.042 3.742 3.138 3.83.096.087 2.399 1.51 3.306 1.729 1.075.26 2.524.354 4.424.008 1.267-.231 2.84-1.676 2.84-1.676l5.906-5.104c0 0 1.688-1.932 2.168-2.638.621-.912 1.614-2.903 1.998-3.937.454-1.226 1.25-5.077 1.25-5.077l.899-3.2c0 0 .963-1.956 2.492-3.02 1.45-1.01 2.912-1.096 2.912-1.096l-2.073-3.715c0 0-2.59.829-2.801.882" id="path290" fill="url(#linearGradient11368)"/>
  <path d="m226.99 43.15c0 0 2.234.513 3.635 1.185 1.126.541 4.225 2.148 5.941 6.653 2.436 6.394-.136 11.22-.575 12.188-.46 1.016-2.574 3.643-2.574 3.643l31.971-6.171c0 0 2.267-2.745 2.343-7.443.035-2.165-.82-5.669-.907-5.973-2.219-7.68-8.959-10.331-8.959-10.331 0 0-30.371 5.98-30.874 6.25" id="path322" fill="url(#linearGradient11370)"/>
  <path id="path334" d="m234.62 47.538l29.36-5.895c0 0 1.052 1.479 1.358 2.01.226.395.814 1.653.814 1.653l-29.417 6.154-1.118-2.148z" fill="#1d1d1b"/>
  <path id="path338" d="m238.53 49.21l-2.136.496-.356-.805 2.338-.47z" fill="#009e48"/>
  <path id="path342" d="m241.42 48.639l-1.866.372-.155-.778 1.866-.372z" fill="#009e48"/>
  <path id="path346" d="m244.3 48.06l-1.867.373-.155-.778 1.867-.373z" fill="#009e48"/>
  <path id="path350" d="m247.18 47.49l-1.866.372-.155-.778 1.866-.372z" fill="#009e48"/>
  <path id="path354" d="m250.07 46.913l-1.866.373-.155-.778 1.867-.372z" fill="#009e48"/>
  <path id="path358" d="m252.95 46.34l-1.867.372-.155-.778 1.866-.372z" fill="#009e48"/>
  <path id="path362" d="m255.84 45.763l-1.866.373-.155-.779 1.866-.372z" fill="#009e48"/>
  <path id="path366" d="m258.72 45.19l-1.867.372-.155-.778 1.866-.372z" fill="#009e48"/>
  <path id="path370" d="m261.61 44.613l-1.866.373-.155-.778 1.866-.372z" fill="#009e48"/>
  <path id="path374" d="m264.63 44.01l-2.01.4-.155-.778 1.722-.373z" fill="#009e48"/>
  <path id="path378" d="m221.33 51.58l1.862.42-.411 2.109-1.838-.429z" fill="#009e48"/>
  <path id="path382" d="m223.57 52.09l1.943.415-.45 2.119-1.881-.434z" fill="#009e48"/>
  <path id="path386" d="m225.93 52.596l1.956.412-.489 2.122-1.925-.415z" fill="#009e48"/>
  <path id="path390" d="m220.86 54.14l1.906.42-.446 2.109-1.804-.429z" fill="#575756"/>
  <path id="path394" d="m223.1 54.662l1.868.424-.413 2.109-1.853-.448z" fill="#575756"/>
  <path id="path398" d="m225.38 55.18l1.903.418-.454 2.113-1.868-.41z" fill="#009e48"/>
  <path id="path402" d="m222.64 57.19l1.828.455-.378 2.104-1.808-.446z" fill="#575756"/>
  <path id="path406" d="m224.87 57.742l1.876.427-.413 2.108-1.843-.428z" fill="#009e48"/>
  <path id="path410" d="m194.3 160.01l-.418-.168-.411-.134-.408-.099-.407-.07-.377-.027-.348.009-.31.042-.261.084-.216.116-.155.146-.109.174-.034.204.023.218.082.239.151.245.193.25.253.247.303.246.341.226.373.211.389.193.418.166.411.131.406.106.409.066.373.031.351-.011.311-.046.261-.083.217-.11.153-.147.11-.182.032-.196-.022-.224-.079-.233-.152-.245-.201-.25-.245-.252-.302-.242-.341-.227-.373-.216z" fill="#9b9b9a"/>
  <path d="m231.79 53.789c-.47.568-1.203 1.855-1.427 2.558-.319.996-.936 4.337-.936 4.337 0 0-.73 2.807-1.135 3.681-.709 1.529-2.499 4.433-3.638 5.675-1.718 1.875-5.4 5.251-7.625 6.482-.475.262-1.56.661-2.094.753-1.538.264-4.236-.332-4.236-.332 0 0 2.54 1.264 4.895.834.913-.167 1.661-.385 2.486-.811 1.113-.574 4.513-3.412 4.513-3.412 0 0 4.892-3.683 5-3.754.686-.434 3.312-3.174 4.141-4.446.67-1.029 1.419-3.404 1.756-4.584.234-.818.618-3.207.621-3.347.004-.139.118-1.841.235-2.612.271-1.772 1.616-3.423 1.616-3.423 0 0-.018-.0001-.051-.0001-.331 0-2.224.105-4.124 2.403" id="path440" fill="url(#linearGradient11372)"/>
  <path id="path452" d="m249.73 67.62c.311.548.8 1 .529 1.661-1.175 2.866-6.231 7.868-12.551 11.458-6.829 3.879-13.58 6.224-16.19 4.878-.097-.05-.433-.462-.634-.652-.129-.122-.292-.391-.378-.543-1.444-2.542 3.916-8.314 11.973-12.89 8.06-4.577 15.807-6.455 17.251-3.913" fill="#1d1d1b"/>
  <path id="path456" d="m250.29 68.56c1.444 2.542-3.917 8.313-11.973 12.89-8.06 4.577-15.759 6.226-17.203 3.683-1.444-2.543 3.916-8.313 11.973-12.89 8.06-4.576 15.759-6.226 17.203-3.683" fill="#2a2a29"/>
  <path id="path460" d="m222.9 80.67l-1.877 3.341 1.966 2.361 5.491.22 1.56-2.917z" fill="#1d1d1b"/>
  <path id="path464" d="m222.83 86.75l1.439-3.205 4.093 2.787 1.926-2.972-1.995 5.303z" fill="#1d1d1b"/>
  <path id="path468" d="m248.07 67.42l1.213 3.406-2.48 5.77-3.868-.569v-7.989l4.983-.619" fill="#3d3d3c"/>
  <path id="path472" d="m229.87 84.961c.107-.015 3.385-3.205 3.385-3.205 0 0-.294-.25-.147-1.588.064-.585 1.046-1.85 1.046-1.85 0 0-5.617 5.554-5.603 5.598.014.044 1.319 1.044 1.319 1.044" fill="#3d3d3c"/>
  <path id="path476" d="m231.71 81.04l.603 1.161-2.411 2.528-.808-1.235z" fill="#1d1d1b"/>
  <path id="path480" d="m234.25 80.78c0 0 2.073-.721 3.876-1.752.846-.536 2.83-2.18 2.83-2.18l3.759 4.493-6.803 4.22z" fill="#2a2a29"/>
  <path d="m225.14 81.46l-34.14 78.57 5.314 2.175 34.13-78.58c0 0-.043-1.251-2.074-2.065-.563-.295-1.146-.389-1.659-.389-.889 0-1.567.281-1.567.281" id="path510" fill="url(#linearGradient11374)"/>
  <path id="path522" d="m236.75 76.08l2.974-2.557 2.855-4.249.356-1.241c0 0 .744 2.158.971 2.963.226.805.424 2.319.436 2.775.011.456-.582 1.312-.582 1.312l-.689.563z" fill="#1d1d1b"/>
  <path id="path526" d="m248.23 70.823l-2.587-.325c0 0-.67 3.641-.642 3.806.029.165-1.505 1.803-1.505 1.803l3.828.372-.27-.468c0 0-.205-.853-.194-1.222.024-.788.265-2.39.265-2.39z" fill="#1d1d1b"/>
  <path d="m246.69 73.31c-.434 1.683.631 3.166.631 3.166l67.59 11.323 1.2-5.731-67.883-11.248c0 0-1.208.327-1.537 2.491" id="path556" fill="url(#linearGradient11376)"/>
  <path id="path568" d="m234.19 78.27l-4.593 5.359c0 0-.38.559-1.218.707-1.393.247-2.581-.534-2.581-.534l-2.893-3.134 6.357-.314z" fill="#1d1d1b"/>
  <path d="m238.53 79.31c-1.318.796-2.347 2.268-2.347 2.268l45.819 61.677c0 0 1.8.304 3.12-.826 1.797-1.247 1.561-2.475 1.561-2.475l-45.805-61.682c0 0-1.03.243-2.347 1.038" id="path598" fill="url(#linearGradient11378)"/>
  <path id="path610" d="m317 84.85c-.221 1.592-1.058 2.922-1.87 2.971-.812.048-1.293-1.203-1.071-2.796.221-1.593 1.057-2.922 1.869-2.971.813-.048 1.293 1.203 1.072 2.796" fill="#878787"/>
  <path d="m203.86 218.9c-.136.599 1.01 1.371 2.555 1.725 1.547.353 2.913.154 3.05-.445.137-.599-1.01-1.371-2.555-1.724-.519-.119-1.018-.175-1.456-.175-.869 0-1.503.222-1.594.619" id="path632" fill="url(#radialGradient630)"/>
  <path d="m230.88 208.66c-.133.582.979 1.332 2.483 1.676 1.504.343 2.831.15 2.964-.432.132-.582-.979-1.332-2.482-1.676-.504-.115-.989-.17-1.415-.17-.845 0-1.461.216-1.549.602" id="path654" fill="url(#radialGradient652)"/>
  <path d="m249.64 217.35c-.133.582.979 1.332 2.483 1.676 1.504.343 2.831.15 2.964-.432.132-.582-.979-1.332-2.482-1.676-.504-.115-.989-.17-1.415-.17-.845 0-1.461.216-1.549.602" id="path676" fill="url(#radialGradient674)"/>
  <path d="m221.1 227.04c-.137.599 1.01 1.372 2.555 1.725 1.547.353 2.913.154 3.05-.445.137-.599-1.01-1.371-2.555-1.724-.519-.119-1.017-.175-1.456-.175-.869 0-1.503.222-1.594.619" id="path698" fill="url(#radialGradient696)"/>
  <path d="m194.43 225.92l29.467 10.125-.008-2.319-29.464-14.322z" id="path720" fill="url(#linearGradient718)"/>
  <path d="m223.88 233.72l.008 2.319 39.19-15.678.089-1.952z" id="path746" fill="url(#linearGradient744)"/>
  <path id="path758" d="m212.57 60.44c.024.04.06.068.098.073.609.099 1.163.502 1.559 1.125.397.627.591 1.404.543 2.19-.005.1.054.194.132.206.077.013.145-.058.151-.16.05-.884-.167-1.758-.611-2.46-.447-.704-1.069-1.155-1.752-1.265-.078-.012-.145.06-.15.16-.003.049.008.093.03.131" fill="#fff" fill-rule="evenodd"/>
  <path d="m212.5 60.944c-.005.046.007.093.03.131.024.037.06.066.1.073.473.076.907.389 1.219.881.311.49.463 1.099.424 1.712-.005.101.054.194.132.207.078.012.146-.059.151-.16.042-.712-.133-1.419-.493-1.983-.359-.567-.862-.932-1.412-1.02-.006-.0001-.012-.002-.018-.002-.07 0-.128.068-.133.161" id="path778" fill="url(#linearGradient11380)"/>
  <path d="m212.45 61.57c-.0001.049.012.096.034.134.023.037.059.067.098.073.342.055.654.281.881.635.224.355.333.792.306 1.236-.006.102.054.195.132.208.078.013.146-.059.152-.161.029-.543-.101-1.077-.376-1.509-.273-.431-.654-.705-1.073-.774-.006-.0001-.012-.002-.018-.002-.07 0-.129.066-.135.159" id="path798" fill="url(#linearGradient11382)"/>
  <path id="path810" d="m206.41 69.834c-1.948-3.068-1.693-7.503.57-9.887 2.261-2.377 5.685-1.824 7.633 1.232l.007.012c.944 1.486 1.406 3.334 1.296 5.2-.107 1.867-.769 3.532-1.867 4.686-2.261 2.377-5.684 1.824-7.632-1.231zm9.846-3.387c.113-1.985-.375-3.946-1.379-5.527l-.007-.012c-2.069-3.247-5.709-3.834-8.11-1.308-2.403 2.531-2.677 7.242-.605 10.504l.007.011c0 .0001 0 .0001 0 .0001 2.07 3.246 5.708 3.834 8.11 1.307 1.164-1.226 1.869-2.994 1.984-4.978" fill="#fff" fill-rule="evenodd"/>
  <path id="path814" d="m212.5 63.958c.05.079.14.093.198.03.059-.062.066-.178.017-.256l-.411-.646c0 0-.0001-.0001-.002-.002-.049-.077-.139-.091-.197-.03-.059.063-.066.178-.016.256z" fill="#fff" fill-rule="evenodd"/>
  <path d="m211.51 61.45l-3.345 3.518c-.085.089-.137.217-.145.36-.007.144.028.285.1.399-.035.031-.074.064-.115.099-.018-.052-.042-.108-.08-.167-.004-.003-.004-.003-.004-.007-.174-.267-.442-.36-.609-.21-.135.117-.66.848-.759 1.096-.122.307-.07.754-.027.994-.226.055-.669.218-.791.64-.019.062-.007.134.024.183.016.025.035.046.059.055.074.043.156-.0001.181-.097.07-.237.405-.394.687-.44.15-.026.76-.151.982-.303.068-.046.261-.214.591-.514.51-.458 1.213-1.084 1.5-1.267.189-.12.292-.002.339.079.058.108.079.27.007.359-.171.217-1.666 2.243-1.73 2.33-.052.071-.048.188.001.259.058.074.147.074.199.0001.008-.008.405-.544.805-1.083l.466.727c-.024.188-.06.45-.089.564-.084.339-.307.602-.612.728-.129.054-.404.147-.753.266-.314.107-.706.24-1.096.381-.076.024-.114.127-.091.224.005.024.015.046.028.066.036.057.095.084.151.065.388-.141.779-.273 1.093-.381.352-.119.629-.214.766-.27.387-.16.672-.507.784-.951.028-.107.055-.298.079-.464.119.037.25.007.35-.099l3.346-3.518c.175-.182.193-.527.043-.762l-1.758-2.766c-.073-.114-.173-.186-.283-.204-.018-.003-.035-.004-.053-.004-.093 0-.181.04-.251.114m-3.102 3.98l.004-.073 3.343-3.52.057.008 1.756 2.766-.005.072-3.343 3.519-.056-.008-.517-.81c.315-.427.595-.806.662-.889.16-.204.168-.56.015-.833-.124-.223-.381-.407-.7-.206-.171.108-.472.359-.792.64zm-1.603 1.29c.082-.201.585-.893.675-.972.036-.032.145.005.23.133.029.044.035.071.04.086.006.035.009.066-.013.102-.143.136-.277.272-.362.367-.218.244-.248.719-.25.96-.106.031-.219.057-.321.081-.039-.214-.077-.565.0001-.757m.761-.0001c.191-.214.544-.542.739-.699 0 0 .194.306.22.346-.15.133-.299.264-.435.385-.259.234-.506.453-.562.492-.026.02-.068.039-.115.06.009-.204.047-.465.151-.584" id="path834" fill="url(#linearGradient11384)"/>
 </g>
 <g id="g13607" transform="translate(-54.785-114.51)">
  <path id="rect11386" fill="#e3e2db" stroke-width=".088" d="m56.58 114.51h35.03v29.681h-35.03z"/>
  <path d="m61.46 144.33l2.099.004-.032-5.631-2.392-7.945z" id="path68-5" fill="url(#linearGradient9754)"/>
  <path d="m63.52 138.7l.031 5.641 12.772-.06-.215-7.916z" id="path90-5" fill="url(#linearGradient9756)"/>
  <path d="m61.13 130.76l2.392 7.945 12.158-10.489-8.316-3.141z" id="path112-5" fill="url(#linearGradient9758)"/>
  <path d="m75.68 128.21l-12.158 10.489 12.588-2.334 11.521-9.929z" id="path156-0" fill="url(#linearGradient9762)"/>
  <path d="m75.898 129l-11.82 9.646 11.348-2.136 10.88-9.415z" id="path180-2" fill="url(#linearGradient9764)"/>
  <path d="m83.71 118.6c-.179.049-.577.225-.577.272 0 .094.351.141.351.141l1.709.118 2.446 3.02-.367 4.326-3.355 3.284c0 0 .612-.184.715-.291.103-.107 2.376-2.288 2.487-2.392.111-.103.35-.416.509-.643.091-.13.328-.514.427-.743.103-.199.275-.902.275-.902 0 0 .079-.623.06-.996-.001-.191-.034-.483-.046-.625-.011-.142-.073-.589-.073-.589l.006-.43c-.002-.256-.06-.629-.06-.629 0 0-.017-.105-.092-.276-.159-.362-.471-.965-.682-1.123-.071-.053-.336-.101-.336-.101 0 0-.243-.351-.353-.469-.183-.195-.604-.529-.825-.678-.161-.108-.513-.277-.698-.336-.156-.05-.485-.085-.649-.087-.002 0-.005 0-.007 0-.202 0-.676.096-.865.148" id="path214-2" fill="url(#linearGradient9766)"/>
  <path id="path226-6" d="m67.41 124.61l4.677-3.388c0 0 .626-.385 1.156-.489.323-.064.869-.148 1.194-.098.417.065 1.31.398 1.656.637.281.194.694.554.895.828.251.342.696 1.172.795 1.584.081.336.227 1.054.215 1.399-.017.469-.256 1.591-.447 2.02-.148.333-.66 1.242-.965 1.444-1.469.971-4.971 3.354-4.971 3.354 0 0-.614.308-1.291.287-.268-.008-.785-.109-1.101-.228-.284-.107-.728-.445-.97-.626-.309-.232-.77-.722-.964-1.036-.251-.407-.583-1.048-.729-1.766-.09-.442-.163-1.36-.012-1.915.005-.02.265-1.046.429-1.371.229-.454.432-.637.432-.637" fill="#1d1d1b"/>
  <path d="m72.904 120.82c-.522.119-1.13.52-1.13.52l-4.276 3.203c0 0-.453.498-.667.958-.153.329-.383 1.361-.388 1.382-.135.558-.038 1.474.062 1.914.164.714.509 1.346.768 1.746.2.309.668.787.98 1.01.244.175.692.5.975.6.315.11.829.197 1.094.198.67.003 1.269-.322 1.269-.322 0 0 3.823-2.799 5.05-3.886.271-.242.588-.923.725-1.26.177-.434.354-1.373.358-1.842.003-.345-.15-1.196-.238-1.53-.109-.409-.435-1.039-.693-1.374-.207-.269-.769-.668-1.052-.854-.349-.23-1.127-.591-1.541-.644-.038-.005-.081-.007-.127-.007-.345 0-.883.125-1.163.189" id="path256-4" fill="url(#linearGradient9768)"/>
  <path d="m75.852 122.43c-.071.018-1.201.222-1.606.207-.248-.009-.975-.193-.975-.193 0 0-.971-.212-1.34-.208-.213.003-.735.046-.939.105-.205.06-.804.286-.804.286l-2.774 1.977c0 0-.623.794-.762 1.466-.062.3-.237.893-.261 1.199-.027.345.001 1.043.08 1.382.079.384.343 1.131.536 1.472.204.36 1.017 1.251 1.049 1.28.032.029.802.505 1.105.578.359.087.844.118 1.479.003.424-.077.949-.56.949-.56l1.974-1.706c0 0 .564-.646.725-.882.208-.305.539-.97.668-1.316.152-.41.418-1.697.418-1.697l.3-1.07c0 0 .322-.654.833-1.01.485-.337.973-.366.973-.366l-.693-1.242c0 0-.866.277-.936.295" id="path290-4" fill="url(#linearGradient9770)"/>
  <path d="m74.44 120.63c0 0 .747.171 1.215.396.376.181 1.412.718 1.986 2.224.814 2.137-.045 3.751-.192 4.074-.154.339-.86 1.218-.86 1.218l10.687-2.063c0 0 .758-.918.783-2.488.012-.724-.274-1.895-.303-1.997-.742-2.567-2.995-3.453-2.995-3.453 0 0-10.152 1.999-10.32 2.089" id="path322-2" fill="url(#linearGradient9772)"/>
  <path id="path334-2" d="m76.992 122.1l9.814-1.971c0 0 .352.494.454.673.075.132.272.552.272.552l-9.833 2.057-.374-.718z" fill="#1d1d1b"/>
  <path id="path338-4" d="m78.3 122.66l-.714.166-.119-.269.781-.157z" fill="#009e48"/>
  <path id="path342-3" d="m79.26 122.46l-.624.124-.052-.26.624-.124z" fill="#009e48"/>
  <path id="path346-2" d="m80.23 122.27l-.624.125-.052-.26.624-.125z" fill="#009e48"/>
  <path id="path350-4" d="m81.19 122.08l-.624.124-.052-.26.624-.124z" fill="#009e48"/>
  <path id="path354-2" d="m82.16 121.89l-.624.125-.052-.26.624-.124z" fill="#009e48"/>
  <path id="path358-7" d="m83.12 121.7l-.624.124-.052-.26.624-.124z" fill="#009e48"/>
  <path id="path362-6" d="m84.08 121.5l-.624.125-.052-.26.624-.124z" fill="#009e48"/>
  <path id="path366-5" d="m85.05 121.31l-.624.124-.052-.26.624-.124z" fill="#009e48"/>
  <path id="path370-1" d="m86.01 121.12l-.624.125-.052-.26.624-.124z" fill="#009e48"/>
  <path id="path374-1" d="m87.02 120.92l-.671.134-.052-.26.576-.125z" fill="#009e48"/>
  <path id="path378-4" d="m72.55 123.45l.622.14-.137.705-.614-.144z" fill="#009e48"/>
  <path id="path382-4" d="m73.3 123.62l.65.139-.15.708-.629-.145z" fill="#009e48"/>
  <path id="path386-0" d="m74.09 123.79l.654.138-.163.709-.643-.139z" fill="#009e48"/>
  <path id="path390-4" d="m72.39 124.3l.637.14-.149.705-.603-.144z" fill="#575756"/>
  <path id="path394-6" d="m73.14 124.48l.624.142-.138.705-.619-.15z" fill="#575756"/>
  <path id="path398-6" d="m73.905 124.65l.636.14-.152.706-.625-.137z" fill="#009e48"/>
  <path id="path402-4" d="m72.988 125.32l.611.152-.126.703-.604-.149z" fill="#575756"/>
  <path id="path406-8" d="m73.73 125.51l.627.143-.138.705-.616-.143z" fill="#009e48"/>
  <path d="m76.05 124.19c-.157.19-.402.62-.477.855-.106.333-.313 1.45-.313 1.45 0 0-.244.938-.379 1.23-.237.511-.835 1.482-1.216 1.897-.574.627-1.805 1.755-2.549 2.167-.159.088-.521.221-.7.252-.514.088-1.416-.111-1.416-.111 0 0 .849.422 1.636.279.305-.056.555-.129.831-.271.372-.192 1.508-1.141 1.508-1.141 0 0 1.635-1.231 1.672-1.255.229-.145 1.107-1.061 1.384-1.486.224-.344.474-1.138.587-1.532.078-.274.206-1.072.208-1.119.0001-.046.039-.615.079-.873.091-.592.54-1.144.54-1.144 0 0-.006 0-.017 0-.11 0-.743.035-1.379.803" id="path440-2" fill="url(#linearGradient9774)"/>
  <path id="path452-7" d="m82.04 128.81c.104.183.267.334.177.555-.393.958-2.083 2.63-4.195 3.83-2.283 1.297-4.539 2.081-5.412 1.631-.033-.017-.145-.154-.212-.218-.043-.041-.098-.131-.126-.181-.483-.85 1.309-2.779 4-4.309 2.693-1.53 5.284-2.158 5.766-1.308" fill="#1d1d1b"/>
  <path id="path456-9" d="m82.23 129.12c.483.85-1.309 2.779-4 4.309-2.693 1.53-5.268 2.081-5.75 1.231-.483-.85 1.309-2.779 4-4.309 2.693-1.53 5.268-2.081 5.75-1.231" fill="#2a2a29"/>
  <path id="path460-2" d="m73.08 133.17l-.627 1.117.657.789 1.835.073.521-.975z" fill="#1d1d1b"/>
  <path id="path464-7" d="m73.05 135.2l.481-1.071 1.368.932.644-.993-.667 1.773z" fill="#1d1d1b"/>
  <path id="path468-4" d="m81.49 128.74l.405 1.139-.829 1.929-1.293-.19v-2.67l1.666-.207" fill="#3d3d3c"/>
  <path id="path472-1" d="m75.4 134.61c.036-.005 1.131-1.071 1.131-1.071 0 0-.098-.084-.049-.531.021-.195.35-.618.35-.618 0 0-1.878 1.856-1.873 1.871.005.015.441.349.441.349" fill="#3d3d3c"/>
  <path id="path476-5" d="m76.02 133.29l.202.388-.806.845-.27-.413z" fill="#1d1d1b"/>
  <path id="path480-8" d="m76.867 133.21c0 0 .693-.241 1.295-.586.283-.179.946-.729.946-.729l1.257 1.502-2.274 1.411z" fill="#2a2a29"/>
  <path d="m73.824 133.44l-4.762 10.87h2.066l4.467-10.145c0 0-.014-.418-.693-.69-.188-.099-.383-.13-.554-.13-.297 0-.524.094-.524.094" id="path510-8" fill="url(#linearGradient9776)"/>
  <path id="path522-5" d="m77.7 131.64l.994-.855.954-1.42.119-.415c0 0 .249.721.325.991.076.269.142.775.146.928.004.152-.194.439-.194.439l-.23.188z" fill="#1d1d1b"/>
  <path id="path526-4" d="m81.54 129.88l-.865-.108c0 0-.224 1.217-.214 1.272.001.055-.503.603-.503.603l1.279.124-.09-.157c0 0-.069-.285-.065-.408.008-.263.088-.799.088-.799z" fill="#1d1d1b"/>
  <path d="m81.03 130.71c-.145.563.211 1.058.211 1.058l10.359 1.754.006-2.027-10.06-1.618c0 0-.404.109-.514.833" id="path556-8" fill="url(#linearGradient9778)"/>
  <path id="path568-4" d="m76.848 132.37l-1.535 1.791c0 0-.127.187-.407.236-.466.083-.863-.178-.863-.178l-.967-1.048 2.125-.105z" fill="#1d1d1b"/>
  <path d="m78.3 132.72c-.44.266-.785.758-.785.758l7.918 10.725h2.439l-8.788-11.83c0 0-.344.081-.785.347" id="path598-0" fill="url(#linearGradient9780)"/>
  <path id="path758-0" d="m69.62 126.41c.008.013.02.023.033.024.204.033.389.168.521.376.133.21.197.469.181.732-.0001.034.018.065.044.069.026.004.049-.019.05-.053.017-.296-.056-.588-.204-.822-.149-.235-.357-.386-.586-.423-.026-.004-.048.02-.05.053-.0001.016.003.031.001.044" fill="#fff" fill-rule="evenodd"/>
  <path d="m69.6 126.58c-.0001.015.002.031.001.044.008.012.02.022.033.024.158.025.303.13.407.295.104.164.155.367.142.572-.002.034.018.065.044.069.026.004.049-.02.051-.053.014-.238-.045-.474-.165-.663-.12-.19-.288-.311-.472-.341-.002 0-.004-.0001-.006-.0001-.023 0-.043.023-.044.054" id="path778-4" fill="url(#linearGradient9786)"/>
  <path d="m69.58 126.79c0 .016.004.032.011.045.007.012.02.022.033.024.114.018.219.094.294.212.075.119.111.265.102.413-.002.034.018.065.044.07.026.004.049-.02.051-.054.001-.181-.034-.36-.126-.504-.091-.144-.219-.236-.359-.259-.002 0-.004-.0001-.006-.0001-.023 0-.043.022-.045.053" id="path798-4" fill="url(#linearGradient9788)"/>
  <path id="path810-6" d="m67.56 129.55c-.651-1.025-.566-2.508.191-3.305.756-.795 1.9-.61 2.551.412l.002.004c.316.497.47 1.114.433 1.738-.036.624-.257 1.181-.624 1.566-.756.795-1.9.61-2.551-.412zm3.291-1.132c.038-.663-.125-1.319-.461-1.847l-.002-.004c-.692-1.085-1.908-1.282-2.711-.437-.803.846-.895 2.421-.202 3.511l.002.004c0 0 0 0 0 0 .692 1.085 1.908 1.281 2.711.437.389-.41.625-1 .663-1.664" fill="#fff" fill-rule="evenodd"/>
  <path id="path814-2" d="m69.6 127.59c.017.026.047.031.066.001.02-.021.022-.059.006-.085l-.137-.216c0 0 0 0-.0001-.0001-.016-.026-.046-.031-.066-.001-.02.021-.022.06-.005.085z" fill="#fff" fill-rule="evenodd"/>
  <path d="m69.27 126.75l-1.118 1.176c-.028.03-.046.072-.048.12-.002.048.009.095.033.133-.012.001-.025.022-.038.033-.006-.017-.014-.036-.027-.056-.0001-.0001-.0001-.0001-.0001-.002-.058-.089-.148-.12-.203-.07-.045.039-.221.283-.254.366-.041.102-.023.252-.009.332-.075.018-.224.073-.264.214-.006.021-.002.045.008.061.005.008.012.015.02.018.025.014.052 0 .06-.032.023-.079.135-.132.229-.147.05-.009.254-.05.328-.101.023-.015.087-.072.198-.172.171-.153.405-.362.502-.424.063-.04.098-.0001.113.026.019.036.027.09.002.12-.057.072-.557.75-.578.779-.017.024-.016.063.003.086.019.025.049.025.067 0 .003-.003.135-.182.269-.362l.156.243c-.008.063-.02.15-.03.188-.028.113-.103.201-.205.243-.043.018-.135.049-.252.089-.105.036-.236.08-.366.127-.025.008-.038.043-.03.075.002.008.005.015.009.022.012.019.032.028.051.022.13-.047.26-.091.365-.127.118-.04.21-.072.256-.09.129-.054.225-.169.262-.318.009-.036.019-.1.026-.155.04.012.084.002.117-.033l1.119-1.176c.058-.061.064-.176.014-.255l-.588-.925c-.024-.038-.058-.062-.095-.068-.006-.0001-.012-.0001-.018-.0001-.031 0-.06.013-.084.038m-1.037 1.331l.0001-.024 1.117-1.177.019.003.587.925-.0001.024-1.117 1.176-.019-.003-.173-.271c.105-.143.199-.269.221-.297.053-.068.056-.187.005-.279-.041-.074-.127-.136-.234-.069-.057.036-.158.12-.265.214zm-.536.431c.027-.067.196-.298.226-.325.012-.011.049.002.077.045.001.015.012.024.013.029.002.012.003.022-.004.034-.048.045-.092.091-.121.123-.073.082-.083.24-.083.321-.035.001-.073.019-.107.027-.013-.072-.026-.189 0-.253m.254 0c.064-.071.182-.181.247-.234 0 0 .065.102.074.116-.05.044-.1.088-.145.129-.087.078-.169.151-.188.165-.009.007-.023.013-.038.02.003-.068.016-.156.051-.195" id="path834-9" fill="url(#linearGradient9790)"/>
 </g>
 <g id="g13442" transform="translate(-54.785-114.51)">
  <path id="path22" d="m80.6 183.74zm-8.08-11.909l.13.027v-.004c3.823.748 10.871 2.01 15.02 2.755 0 .042 0 .077 0 .103l-15.16-2.784c.0001-.027.002-.06.004-.097zm11.553 8.987c-.254.199-.508.397-.753.588.242-.191.494-.387.753-.588zm7.44-4.545c-.059-.733-.143-.883-.143-.883l-.022.021-.77.554c.485-.353.78-.566.792-.575l-1.491-.274c0 0-.004-.045-.008-.117.026.005.052.009.078.014l.016.003c.614.109.977.173 1 .178.16.005.268-.035.339-.081.083-.016.145-.092.145-.184v-21.261c0-.103-.079-.187-.177-.187-7.233-.916-7.087-.916-10.646-.972-2.869-.045-10.63 0-10.63 0 0 0-.059 18.635 0 18.759.036.031.329.106.821.212-.003.053-.005.098-.006.134l-.697-.128c0 0-12.213 5.918-12.06 6.43 0 0-.1.401.212.528.192.078 21.343 5.481 21.554 5.535.758.195.953.125 1 .076l9.25-6.764-.476.349 1.086-.018-.024-.013c.112.008.238-.006.378-.06.58-.222.487-1.092.473-1.276z" fill="none" stroke="#878787" stroke-width=".204"/>
  <path id="path26" d="m90.68 177.62l-1.086.018.476-.349z" fill="#1d1d1b"/>
  <path d="m69.995 152.51c0 0-.059 18.635 0 18.759.315.279 20.786 3.891 20.969 3.926.364.001.458-.207.458-.207l-.151-21.505c-7.233-.916-7.087-.916-10.646-.972-.956-.015-2.456-.02-4.03-.02-3.15 0-6.599.02-6.599.02" id="path52" fill="url(#linearGradient11101)"/>
  <path id="path64" d="m89.96 175.01l-2.234-.398.056-1.119 2.159.346z" fill="#444443"/>
  <path d="m87.67 174.76l2.207.357c0 0-.073-.936.055-1.09.18-.217-1.742-.445-2.01-.463-.286 0-.255 1.196-.255 1.196" id="path92" fill="url(#linearGradient11103)"/>
  <path id="path104" d="m72.65 171.85l-1.769-.362.053-.94 1.7.258z" fill="#444443"/>
  <path d="m70.808 171.69l1.704.32c0 0 .016-.825.118-.98.144-.217-1.311-.354-1.523-.372-.299 0-.299 1.031-.299 1.031" id="path132" fill="url(#linearGradient11105)"/>
  <path id="path144" d="m90.75 173.22l-20.471-3.44v-16.299l20.471 1.023z" fill="#3d3d3c"/>
  <path d="m70.788 169.38l19.549 3.274v-17.815l-19.549-.973" id="path166" fill="url(#linearGradient11107)"/>
  <path d="m58.05 177.91c1.392.499 19.43 5.345 22.653 5.841.009-.686 10.588-8.312 10.661-8.367l-21.256-3.904c0 0-12.213 5.918-12.06 6.43" id="path192" fill="url(#linearGradient11109)"/>
  <path id="path204" d="m58.05 177.91c0 0-.1.401.212.528.192.078 21.343 5.481 21.554 5.535 1.02.263 1.02.044 1.02.044l-.241-.284z" fill="#3d3d3c"/>
  <path d="m91.35 175.41l-4.42 3.177c0 0-5.49 4.286-5.615 4.383-.125.097-.361.347-.515.496-.154.148-.195.257-.204.289-.039.148.229.298.229.298l9.25-6.765c0 0 .359.491.965.258.58-.222.487-1.092.473-1.276-.059-.733-.143-.883-.143-.883z" id="path232" fill="url(#linearGradient11111)"/>
  <path id="path244" d="m63.54 175.45l6.339-3.396 19.479 3.706-5.672 4.245z" fill="#424241"/>
  <path id="path248" d="m63.54 175.45l.48-.257 19.263 4.379.403.433z" fill="#7e7e7e"/>
  <path id="path252" d="m83.29 179.57l5.558-3.912.516.1-5.672 4.245z" fill="#1d1d1b"/>
  <path id="path256-0" d="m69.884 172.05l.019-.11 19.694 3.648-.234.169z" fill="#d2d2d2"/>
  <path id="path260" d="m63.42 175.38l6.486-3.441-.019.11-6.339 3.396z" fill="#939292"/>
  <path id="path264" d="m91.28 176.73c0 .389-.176.704-.394.704-.218 0-.394-.315-.394-.704 0-.389.176-.704.394-.704.218 0 .394.315.394.704" fill="#aeaeae"/>
  <path id="path268" d="m72.53 180.99c-.136.116-.341.183-.457.151l-4.275-1.098c-.117-.032-.101-.152.035-.268l2.976-2.02c.136-.116.341-.183.457-.151l3.85.944c.117.032.101.152-.034.268z" fill="#c7c7c6"/>
  <path id="path272" d="m91.45 174.93c0 .103-.079.187-.177.187-.098 0-.177-.084-.177-.187v-21.261c0-.103.079-.187.177-.187.098 0 .177.084.177.187z" fill="#c7c7c6"/>
  <path id="path276" d="m90.68 177.62l-1.086.018.476-.349z" fill="#1d1d1b"/>
  <path d="m69.995 152.51c0 0-.059 18.635 0 18.759.315.279 20.786 3.891 20.969 3.926.364.001.458-.207.458-.207l-.151-21.505c-7.233-.916-7.087-.916-10.646-.972-.956-.015-2.456-.02-4.03-.02-3.15 0-6.599.02-6.599.02" id="path302" fill="url(#linearGradient11101)"/>
  <path id="path314" d="m89.96 175.01l-2.234-.398.056-1.119 2.159.346z" fill="#444443"/>
  <path d="m87.67 174.76l2.207.357c0 0-.073-.936.055-1.09.18-.217-1.742-.445-2.01-.463-.286 0-.255 1.196-.255 1.196" id="path342-8" fill="url(#linearGradient11103)"/>
  <path id="path354-0" d="m72.65 171.85l-1.769-.362.053-.94 1.7.258z" fill="#444443"/>
  <path d="m70.808 171.69l1.704.32c0 0 .016-.825.118-.98.144-.217-1.311-.354-1.523-.372-.299 0-.299 1.031-.299 1.031" id="path382-8" fill="url(#linearGradient11105)"/>
  <path id="path394-3" d="m90.75 173.22l-20.471-3.44v-16.299l20.471 1.023z" fill="#3d3d3c"/>
  <path d="m70.788 169.38l19.549 3.274v-17.815l-19.549-.973" id="path416" fill="url(#linearGradient11107)"/>
  <path d="m58.05 177.91c1.392.499 19.43 5.345 22.653 5.841.009-.686 10.588-8.312 10.661-8.367l-21.256-3.904c0 0-12.213 5.918-12.06 6.43" id="path442" fill="url(#linearGradient11109)"/>
  <path id="path454" d="m58.05 177.91c0 0-.1.401.212.528.192.078 21.343 5.481 21.554 5.535 1.02.263 1.02.044 1.02.044l-.241-.284z" fill="#3d3d3c"/>
  <path d="m91.35 175.41l-4.42 3.177c0 0-5.49 4.286-5.615 4.383-.125.097-.361.347-.515.496-.154.148-.195.257-.204.289-.039.148.229.298.229.298l9.25-6.765c0 0 .359.491.965.258.58-.222.487-1.092.473-1.276-.059-.733-.143-.883-.143-.883z" id="path482" fill="url(#linearGradient11111)"/>
  <path id="path494" d="m63.54 175.45l6.339-3.396 19.479 3.706-5.672 4.245z" fill="#424241"/>
  <path id="path498-7" d="m63.54 175.45l.48-.257 19.263 4.379.403.433z" fill="#7e7e7e"/>
  <path id="path502" d="m83.29 179.57l5.558-3.912.516.1-5.672 4.245z" fill="#1d1d1b"/>
  <path id="path506" d="m69.884 172.05l.019-.11 19.694 3.648-.234.169z" fill="#d2d2d2"/>
  <path id="path510-0" d="m63.42 175.38l6.486-3.441-.019.11-6.339 3.396z" fill="#939292"/>
  <path id="path514" d="m91.28 176.73c0 .389-.176.704-.394.704-.218 0-.394-.315-.394-.704 0-.389.176-.704.394-.704.218 0 .394.315.394.704" fill="#aeaeae"/>
  <path id="path518" d="m72.53 180.99c-.136.116-.341.183-.457.151l-4.275-1.098c-.117-.032-.101-.152.035-.268l2.976-2.02c.136-.116.341-.183.457-.151l3.85.944c.117.032.101.152-.034.268z" fill="#c7c7c6"/>
  <path id="path522-1" d="m91.45 174.93c0 .103-.079.187-.177.187-.098 0-.177-.084-.177-.187v-21.261c0-.103.079-.187.177-.187.098 0 .177.084.177.187z" fill="#c7c7c6"/>
 </g>
 <path id="rect11125" d="m3.27 73.35l-3.27 3.189 3.27 3.189v-1.369h90.08v1.396l3.27-3.189-3.27-3.189v1.396h-90.08" fill="#80b3ff" stroke-width=".031"/>
 <text id="ethernet" y="74" x="44.48">Ethernet</text>
 <use xlink:href="#reader"/>
 <use xlink:href="#po"/>
 <use xlink:href="#ip-style"/>
</svg>
