<?xml version="1.0" encoding="utf-8"?>
<!-- Generator: Adobe Illustrator 23.0.2, SVG Export Plug-In . SVG Version: 6.00 Build 0)  -->
<svg version="1.1" id="Слой_1" xmlns="http://www.w3.org/2000/svg" xmlns:xlink="http://www.w3.org/1999/xlink" x="0px" y="0px"
	 viewBox="0 0 200.8 63.1" style="enable-background:new 0 0 200.8 63.1;" xml:space="preserve">
<style type="text/css">
	.st0{fill:#80B3FF;}
	.st1{fill:#E3E2DB;}
	.st2{fill:url(#path68-5_1_);}
	.st3{fill:url(#path90-5_1_);}
	.st4{fill:url(#path112-5_1_);}
	.st5{fill:url(#path156-0_1_);}
	.st6{fill:url(#path180-2_1_);}
	.st7{fill:url(#path214-2_1_);}
	.st8{fill:#1D1D1B;}
	.st9{fill:url(#path256-4_1_);}
	.st10{fill:url(#path290-4_1_);}
	.st11{fill:url(#path322-2_1_);}
	.st12{fill:#009E48;}
	.st13{fill:#575756;}
	.st14{fill:url(#path440-2_1_);}
	.st15{fill:#2A2A29;}
	.st16{fill:#3D3D3C;}
	.st17{fill:url(#path510-8_1_);}
	.st18{fill:url(#path556-8_1_);}
	.st19{fill:url(#path598-0_1_);}
	.st20{fill-rule:evenodd;clip-rule:evenodd;fill:#FFFFFF;}
	.st21{fill:url(#path778-4_1_);}
	.st22{fill:url(#path798-4_1_);}
	.st23{fill:url(#path834-9_1_);}
	.st24{fill:none;stroke:#878787;stroke-width:0.204;}
	.st25{fill:url(#path52_1_);}
	.st26{fill:#444443;}
	.st27{fill:url(#path92_1_);}
	.st28{fill:url(#path132_1_);}
	.st29{fill:url(#path166_1_);}
	.st30{fill:url(#path192_1_);}
	.st31{fill:url(#path232_1_);}
	.st32{fill:#424241;}
	.st33{fill:#7E7E7E;}
	.st34{fill:#D2D2D2;}
	.st35{fill:#939292;}
	.st36{fill:#AEAEAE;}
	.st37{fill:#C7C7C6;}
	.st38{fill:url(#path302_1_);}
	.st39{fill:url(#path342-8_1_);}
	.st40{fill:url(#path382-8_1_);}
	.st41{fill:url(#path416_1_);}
	.st42{fill:url(#path442_1_);}
	.st43{fill:url(#path482_1_);}
	.st44{font-family:'ArialMT';}
	.st45{font-size:5px;}
	.st46{fill:#7A7A79;}
	.st47{fill:url(#path90_1_);}
	.st48{fill:url(#path112_1_);}
	.st49{fill:#CECECE;}
	.st50{fill:url(#path214_1_);}
	.st51{fill:#231F20;}
	.st52{fill:url(#path290_1_);}
	.st53{fill:url(#path322_1_);}
	.st54{fill:#9B9B9A;}
	.st55{fill:#353535;}
	.st56{fill:url(#path510_1_);}
	.st57{fill:url(#path556_1_);}
	.st58{fill:#878787;}
	.st59{fill:url(#path632_1_);}
	.st60{fill:url(#path654_1_);}
	.st61{fill:url(#path676_1_);}
	.st62{fill:url(#path698_1_);}
	.st63{fill:url(#path746_1_);}
	.st64{fill:url(#path778_1_);}
	.st65{fill:url(#path798_1_);}
	.st66{fill:url(#path834_1_);}
</style>
<path id="rect11388" class="st0" d="M34.1,35.9h0.6v25.3h-0.6V35.9z"/>
<path id="rect11388-2" class="st0" d="M144.8,41.1h0.6v18.5h-0.6V41.1z"/>
<g id="g13607" transform="translate(-54.785-114.51)">
	<path id="rect11386" class="st1" d="M138.5,116.4h28.3v24h-28.3V116.4z"/>
	
		<linearGradient id="path68-5_1_" gradientUnits="userSpaceOnUse" x1="411.7228" y1="-1504.0043" x2="403.1461" y2="-1513.5016" gradientTransform="matrix(1 0 0 -1 -273.925 -1363.0093)">
		<stop  offset="0" style="stop-color:#5F5F5E"/>
		<stop  offset="0.842" style="stop-color:#C4C4C4"/>
		<stop  offset="1" style="stop-color:#C4C4C4"/>
	</linearGradient>
	<path id="path68-5" class="st2" d="M142.4,140.5h1.7V136l-1.9-6.4L142.4,140.5z"/>
	
		<linearGradient id="path90-5_1_" gradientUnits="userSpaceOnUse" x1="423.1382" y1="-1494.6223" x2="423.1382" y2="-1533.6693" gradientTransform="matrix(1 0 0 -1 -273.925 -1363.0093)">
		<stop  offset="0" style="stop-color:#5F5F5E"/>
		<stop  offset="0.699" style="stop-color:#E7E7E7"/>
		<stop  offset="1" style="stop-color:#A2A1A1"/>
	</linearGradient>
	<path id="path90-5" class="st3" d="M144,136v4.5l10.3-0.1l-0.2-6.4L144,136z"/>
	
		<linearGradient id="path112-5_1_" gradientUnits="userSpaceOnUse" x1="425.9247" y1="-1487.2319" x2="416.823" y2="-1497.3108" gradientTransform="matrix(1 0 0 -1 -273.925 -1363.0093)">
		<stop  offset="0" style="stop-color:#5F5F5E"/>
		<stop  offset="0.842" style="stop-color:#C4C4C4"/>
		<stop  offset="1" style="stop-color:#C4C4C4"/>
	</linearGradient>
	<path id="path112-5" class="st4" d="M142.2,129.6l1.9,6.4l9.9-8.5l-6.7-2.5L142.2,129.6z"/>
	
		<linearGradient id="path156-0_1_" gradientUnits="userSpaceOnUse" x1="429.3386" y1="-1496.395" x2="425.5793" y2="-1491.0648" gradientTransform="matrix(1 0 0 -1 -273.925 -1363.0093)">
		<stop  offset="0" style="stop-color:#5F5F5E"/>
		<stop  offset="0.821" style="stop-color:#B5B5B4"/>
		<stop  offset="1" style="stop-color:#B5B5B4"/>
	</linearGradient>
	<path id="path156-0" class="st5" d="M153.9,127.5L144,136l10.2-1.9l9.3-8L153.9,127.5z"/>
	
		<linearGradient id="path180-2_1_" gradientUnits="userSpaceOnUse" x1="427.1901" y1="-1493.0168" x2="426.8985" y2="-1491.4098" gradientTransform="matrix(1 0 0 -1 -273.925 -1363.0093)">
		<stop  offset="0" style="stop-color:#5F5F5E"/>
		<stop  offset="0.94" style="stop-color:#B5B5B4"/>
		<stop  offset="0.996" style="stop-color:#F1F1F1"/>
		<stop  offset="1" style="stop-color:#F1F1F1"/>
	</linearGradient>
	<path id="path180-2" class="st6" d="M154.1,128.2l-9.5,7.8l9.1-1.7l8.8-7.6L154.1,128.2z"/>
	
		<linearGradient id="path214-2_1_" gradientUnits="userSpaceOnUse" x1="435.6603" y1="-1485.1719" x2="436.2984" y2="-1489.8075" gradientTransform="matrix(1 0 0 -1 -273.925 -1363.0093)">
		<stop  offset="0" style="stop-color:#3D3D3C"/>
		<stop  offset="5.500000e-02" style="stop-color:#3D3D3C"/>
		<stop  offset="0.106" style="stop-color:#C7C7C6"/>
		<stop  offset="0.148" style="stop-color:#C7C7C6"/>
		<stop  offset="0.228" style="stop-color:#1D1D1B"/>
		<stop  offset="0.547" style="stop-color:#1D1D1B"/>
		<stop  offset="0.967" style="stop-color:#2E373B"/>
		<stop  offset="0.978" style="stop-color:#1D1D1B"/>
		<stop  offset="1" style="stop-color:#1D1D1B"/>
	</linearGradient>
	<path id="path214-2" class="st7" d="M160.4,119.8c-0.2,0-0.5,0.2-0.5,0.2c0,0.1,0.3,0.1,0.3,0.1l1.4,0.1l1.9,2.4l-0.3,3.5l-2.7,2.7
		c0,0,0.5-0.2,0.6-0.2c0.1-0.1,1.9-1.9,2-1.9c0.1-0.1,0.3-0.3,0.4-0.5c0.1-0.1,0.2-0.4,0.3-0.6c0.1-0.2,0.2-0.7,0.2-0.7
		s0.1-0.5,0.1-0.8c0-0.2,0-0.4,0-0.5c0-0.1-0.1-0.5-0.1-0.5v-0.3c0-0.2-0.1-0.5-0.1-0.5s0-0.1-0.1-0.2c-0.2-0.3-0.4-0.8-0.6-0.9
		c-0.1-0.1-0.2-0.1-0.2-0.1s-0.2-0.3-0.3-0.4c-0.2-0.2-0.5-0.4-0.6-0.6c-0.2-0.1-0.4-0.2-0.6-0.2c-0.2-0.1-0.4-0.1-0.5-0.1l0,0
		C160.9,119.7,160.5,119.7,160.4,119.8"/>
	<path id="path226-6" class="st8" d="M147.2,124.6l3.8-2.7c0,0,0.5-0.3,1-0.4c0.2-0.1,0.7-0.1,1-0.1c0.3,0.1,1,0.3,1.4,0.5
		c0.2,0.2,0.6,0.5,0.7,0.6c0.2,0.2,0.6,1,0.6,1.3c0.1,0.2,0.2,0.9,0.2,1.1c0,0.4-0.2,1.3-0.3,1.6c-0.1,0.2-0.6,1-0.8,1.1
		c-1.2,0.8-4,2.7-4,2.7s-0.5,0.2-1,0.2c-0.2,0-0.6-0.1-0.9-0.2c-0.2-0.1-0.6-0.3-0.8-0.5c-0.2-0.2-0.6-0.6-0.8-0.8
		c-0.2-0.3-0.5-0.8-0.6-1.5c-0.1-0.3-0.2-1.1,0-1.5c0,0,0.2-0.8,0.3-1.1C147,124.8,147.2,124.6,147.2,124.6"/>
	
		<linearGradient id="path256-4_1_" gradientUnits="userSpaceOnUse" x1="421.8073" y1="-1491.5239" x2="429.7377" y2="-1485.1359" gradientTransform="matrix(1 0 0 -1 -273.925 -1363.0093)">
		<stop  offset="0" style="stop-color:#3D3D3C"/>
		<stop  offset="5.500000e-02" style="stop-color:#3D3D3C"/>
		<stop  offset="0.2" style="stop-color:#1D1D1B"/>
		<stop  offset="0.315" style="stop-color:#1D1D1B"/>
		<stop  offset="0.967" style="stop-color:#2E373B"/>
		<stop  offset="0.978" style="stop-color:#1D1D1B"/>
		<stop  offset="1" style="stop-color:#1D1D1B"/>
	</linearGradient>
	<path id="path256-4" class="st9" d="M151.6,121.5c-0.4,0.1-0.9,0.4-0.9,0.4l-3.5,2.6c0,0-0.4,0.4-0.6,0.8c-0.2,0.2-0.3,1.1-0.3,1.1
		c-0.1,0.5,0,1.2,0.1,1.5c0.2,0.6,0.4,1,0.6,1.4c0.2,0.2,0.6,0.6,0.8,0.8c0.2,0.2,0.6,0.4,0.8,0.5s0.6,0.2,0.9,0.2
		c0.6,0,1-0.2,1-0.2s3.1-2.3,4.1-3.1c0.2-0.2,0.5-0.7,0.6-1c0.2-0.3,0.3-1.1,0.3-1.5c0-0.2-0.2-1-0.2-1.2c-0.1-0.3-0.3-0.8-0.6-1.1
		c-0.2-0.2-0.6-0.6-0.9-0.7c-0.2-0.2-0.9-0.5-1.2-0.5h-0.1C152.4,121.4,151.9,121.5,151.6,121.5"/>
	
		<linearGradient id="path290-4_1_" gradientUnits="userSpaceOnUse" x1="429.6979" y1="-1486.5599" x2="420.1998" y2="-1491.6639" gradientTransform="matrix(1 0 0 -1 -273.925 -1363.0093)">
		<stop  offset="0" style="stop-color:#3D3D3C"/>
		<stop  offset="5.500000e-02" style="stop-color:#3D3D3C"/>
		<stop  offset="0.106" style="stop-color:#C7C7C6"/>
		<stop  offset="0.148" style="stop-color:#C7C7C6"/>
		<stop  offset="0.228" style="stop-color:#1D1D1B"/>
		<stop  offset="0.547" style="stop-color:#1D1D1B"/>
		<stop  offset="0.967" style="stop-color:#2E373B"/>
		<stop  offset="0.978" style="stop-color:#1D1D1B"/>
		<stop  offset="1" style="stop-color:#1D1D1B"/>
	</linearGradient>
	<path id="path290-4" class="st10" d="M154.1,122.8c-0.1,0-1,0.2-1.3,0.2c-0.2,0-0.8-0.2-0.8-0.2s-0.8-0.2-1-0.2
		c-0.2,0-0.6,0-0.7,0.1c-0.2,0.1-0.6,0.2-0.6,0.2l-2.3,1.6c0,0-0.5,0.6-0.6,1.2c-0.1,0.2-0.2,0.7-0.2,1c0,0.2,0,0.8,0.1,1.1
		c0.1,0.3,0.2,0.9,0.4,1.2c0.2,0.3,0.8,1,0.8,1s0.6,0.4,0.9,0.5c0.3,0.1,0.6,0.1,1.2,0c0.3-0.1,0.7-0.5,0.7-0.5l1.6-1.4
		c0,0,0.5-0.5,0.6-0.7c0.2-0.2,0.4-0.8,0.6-1c0.2-0.3,0.3-1.4,0.3-1.4l0.2-0.9c0,0,0.2-0.6,0.6-0.8c0.4-0.2,0.8-0.3,0.8-0.3l-0.6-1
		C154.8,122.6,154.1,122.8,154.1,122.8"/>
	
		<linearGradient id="path322-2_1_" gradientUnits="userSpaceOnUse" x1="432.0529" y1="-1484.0466" x2="433.3652" y2="-1490.6609" gradientTransform="matrix(1 0 0 -1 -273.925 -1363.0093)">
		<stop  offset="0" style="stop-color:#5F5F5E"/>
		<stop  offset="0.239" style="stop-color:#B5B5B4"/>
		<stop  offset="0.386" style="stop-color:#8C8C8B"/>
		<stop  offset="0.411" style="stop-color:#FFFFFF"/>
		<stop  offset="0.512" style="stop-color:#FFFFFF"/>
		<stop  offset="0.608" style="stop-color:#727271"/>
		<stop  offset="0.702" style="stop-color:#EDEDED"/>
		<stop  offset="1" style="stop-color:#7C7B7B"/>
	</linearGradient>
	<path id="path322-2" class="st11" d="M152.9,121.4c0,0,0.6,0.2,1,0.3c0.3,0.2,1.1,0.6,1.6,1.8c0.6,1.7,0,3.1-0.2,3.3
		c-0.2,0.2-0.7,1-0.7,1l8.6-1.7c0,0,0.6-0.7,0.6-2c0-0.6-0.2-1.5-0.2-1.6c-0.6-2.1-2.4-2.8-2.4-2.8S153,121.3,152.9,121.4"/>
	<path id="path334-2" class="st8" d="M154.9,122.6l7.9-1.6c0,0,0.3,0.4,0.4,0.6c0.1,0.1,0.2,0.5,0.2,0.5l-7.9,1.7l-0.3-0.6
		L154.9,122.6z"/>
	<path id="path338-4" class="st12" d="M156,123.1l-0.6,0.2l-0.1-0.2l0.6-0.2L156,123.1z"/>
	<path id="path342-3" class="st12" d="M156.8,122.9l-0.5,0.1l-0.1-0.2l0.5-0.1L156.8,122.9z"/>
	<path id="path346-2" class="st12" d="M157.6,122.7l-0.5,0.1l-0.1-0.2l0.5-0.1L157.6,122.7z"/>
	<path id="path350-4" class="st12" d="M158.3,122.6l-0.5,0.1l-0.1-0.2l0.5-0.1L158.3,122.6z"/>
	<path id="path354-2" class="st12" d="M159.1,122.4l-0.5,0.1l-0.1-0.2l0.5-0.1L159.1,122.4z"/>
	<path id="path358-7" class="st12" d="M159.9,122.3l-0.5,0.1l-0.1-0.2l0.5-0.1L159.9,122.3z"/>
	<path id="path362-6" class="st12" d="M160.7,122.1l-0.5,0.1l-0.1-0.2l0.5-0.1L160.7,122.1z"/>
	<path id="path366-5" class="st12" d="M161.5,121.9L161,122l-0.1-0.2l0.5-0.1L161.5,121.9z"/>
	<path id="path370-1" class="st12" d="M162.2,121.8l-0.5,0.1l-0.1-0.2l0.5-0.1L162.2,121.8z"/>
	<path id="path374-1" class="st12" d="M163,121.6l-0.6,0.1l-0.1-0.2l0.5-0.1L163,121.6z"/>
	<path id="path378-4" class="st12" d="M151.4,123.6l0.5,0.1l-0.1,0.6l-0.5-0.1L151.4,123.6z"/>
	<path id="path382-4" class="st12" d="M152,123.8l0.6,0.1l-0.2,0.6l-0.5-0.1L152,123.8z"/>
	<path id="path386-0" class="st12" d="M152.6,124l0.6,0.1l-0.2,0.6l-0.5-0.1L152.6,124z"/>
	<path id="path390-4" class="st13" d="M151.2,124.4l0.5,0.1l-0.1,0.6l-0.5-0.1L151.2,124.4z"/>
	<path id="path394-6" class="st13" d="M151.9,124.5l0.5,0.1l-0.1,0.6l-0.5-0.2L151.9,124.5z"/>
	<path id="path398-6" class="st12" d="M152.4,124.6l0.5,0.1l-0.2,0.6l-0.5-0.1L152.4,124.6z"/>
	<path id="path402-4" class="st13" d="M151.7,125.2l0.5,0.2l-0.1,0.6l-0.5-0.1L151.7,125.2z"/>
	<path id="path406-8" class="st12" d="M152.4,125.3l0.5,0.1l-0.1,0.6l-0.5-0.1L152.4,125.3z"/>
	
		<linearGradient id="path440-2_1_" gradientUnits="userSpaceOnUse" x1="422.1746" y1="-1493.4084" x2="430.8642" y2="-1487.0526" gradientTransform="matrix(1 0 0 -1 -273.925 -1363.0093)">
		<stop  offset="0" style="stop-color:#5A5A59"/>
		<stop  offset="0.155" style="stop-color:#5A5A59"/>
		<stop  offset="0.234" style="stop-color:#1D1D1B"/>
		<stop  offset="0.547" style="stop-color:#1D1D1B"/>
		<stop  offset="0.967" style="stop-color:#2E373B"/>
		<stop  offset="0.978" style="stop-color:#1D1D1B"/>
		<stop  offset="1" style="stop-color:#1D1D1B"/>
	</linearGradient>
	<path id="path440-2" class="st14" d="M154.2,124.3c-0.2,0.2-0.3,0.5-0.4,0.7c-0.1,0.2-0.2,1.1-0.2,1.1s-0.2,0.7-0.3,1
		c-0.2,0.4-0.6,1.2-1,1.5c-0.5,0.5-1.5,1.5-2,1.8c-0.2,0.1-0.4,0.2-0.6,0.2c-0.4,0.1-1.1-0.1-1.1-0.1s0.6,0.3,1.3,0.2
		c0.2-0.1,0.5-0.1,0.6-0.2c0.3-0.2,1.2-0.9,1.2-0.9s1.3-1,1.4-1c0.2-0.1,0.9-0.9,1.1-1.2c0.2-0.2,0.4-0.9,0.5-1.2
		c0.1-0.2,0.2-0.9,0.2-0.9s0-0.5,0.1-0.7c0.1-0.5,0.4-0.9,0.4-0.9l0,0C155.2,123.6,154.7,123.6,154.2,124.3"/>
	<path id="path452-7" class="st8" d="M159.1,128c0.1,0.2,0.2,0.2,0.2,0.5c-0.3,0.8-1.7,2.1-3.4,3.1c-1.9,1-3.6,1.7-4.4,1.3
		c0,0-0.1-0.2-0.2-0.2c0,0-0.1-0.1-0.1-0.2c-0.4-0.7,1-2.3,3.2-3.5C156.6,127.8,158.7,127.3,159.1,128"/>
	<path id="path456-9" class="st15" d="M159.2,128.2c0.4,0.7-1,2.3-3.2,3.5c-2.2,1.2-4.3,1.7-4.7,1c-0.4-0.7,1-2.3,3.2-3.5
		C156.7,128,158.8,127.6,159.2,128.2"/>
	<path id="path460-2" class="st8" d="M151.8,131.5l-0.5,0.9l0.6,0.6l1.5,0.1l0.4-0.8L151.8,131.5z"/>
	<path id="path464-7" class="st8" d="M151.8,133.2l0.4-0.9l1.1,0.7l0.5-0.8l-0.6,1.5L151.8,133.2z"/>
	<path id="path468-4" class="st16" d="M158.6,127.9l0.3,0.9l-0.6,1.5l-1-0.2V128L158.6,127.9"/>
	<path id="path472-1" class="st16" d="M153.7,132.7l0.9-0.9c0,0-0.1-0.1,0-0.4c0-0.2,0.2-0.5,0.2-0.5l-1.5,1.5L153.7,132.7"/>
	<path id="path476-5" class="st8" d="M154.1,131.6l0.2,0.3l-0.6,0.6l-0.2-0.3L154.1,131.6z"/>
	<path id="path480-8" class="st15" d="M154.9,131.5c0,0,0.6-0.2,1-0.5c0.2-0.2,0.7-0.6,0.7-0.6l1,1.2l-1.9,1.1L154.9,131.5z"/>
	
		<linearGradient id="path510-8_1_" gradientUnits="userSpaceOnUse" x1="424.607" y1="-1499.0427" x2="425.8354" y2="-1499.5839" gradientTransform="matrix(1 0 0 -1 -273.925 -1363.0093)">
		<stop  offset="0" style="stop-color:#9D9C9C"/>
		<stop  offset="6.100000e-02" style="stop-color:#B5B5B4"/>
		<stop  offset="0.105" style="stop-color:#B5B5B4"/>
		<stop  offset="0.291" style="stop-color:#FFFFFF"/>
		<stop  offset="0.582" style="stop-color:#70706F"/>
		<stop  offset="0.78" style="stop-color:#FFFFFF"/>
		<stop  offset="1" style="stop-color:#7C7B7B"/>
	</linearGradient>
	<path id="path510-8" class="st17" d="M152.4,131.7l-3.9,8.8h1.7l3.6-8.2c0,0,0-0.3-0.6-0.6c-0.2-0.1-0.3-0.1-0.5-0.1
		C152.6,131.6,152.4,131.7,152.4,131.7"/>
	<path id="path522-5" class="st8" d="M155.5,130.3l0.8-0.7l0.8-1.1l0.1-0.3c0,0,0.2,0.6,0.2,0.8c0.1,0.2,0.1,0.6,0.1,0.7
		c0,0.2-0.2,0.3-0.2,0.3l-0.2,0.2L155.5,130.3z"/>
	<path id="path526-4" class="st8" d="M158.7,128.9l-0.7-0.1c0,0-0.2,1-0.2,1s-0.4,0.5-0.4,0.5l1,0.1l-0.1-0.2c0,0-0.1-0.2-0.1-0.3
		c0-0.2,0.1-0.6,0.1-0.6L158.7,128.9z"/>
	
		<linearGradient id="path556-8_1_" gradientUnits="userSpaceOnUse" x1="436.4013" y1="-1494.0774" x2="436.6597" y2="-1492.543" gradientTransform="matrix(1 0 0 -1 -273.925 -1363.0093)">
		<stop  offset="0" style="stop-color:#9D9C9C"/>
		<stop  offset="6.100000e-02" style="stop-color:#B5B5B4"/>
		<stop  offset="0.105" style="stop-color:#B5B5B4"/>
		<stop  offset="0.291" style="stop-color:#FFFFFF"/>
		<stop  offset="0.582" style="stop-color:#70706F"/>
		<stop  offset="0.78" style="stop-color:#FFFFFF"/>
		<stop  offset="1" style="stop-color:#7C7B7B"/>
	</linearGradient>
	<path id="path556-8" class="st18" d="M158.3,129.5c-0.1,0.5,0.2,0.9,0.2,0.9l8.4,1.5v-1.6l-8.2-1.3
		C158.7,128.9,158.3,129,158.3,129.5"/>
	<path id="path568-4" class="st8" d="M154.9,130.9l-1.2,1.5c0,0-0.1,0.2-0.3,0.2c-0.4,0.1-0.7-0.2-0.7-0.2l-0.8-0.8l1.7-0.1
		L154.9,130.9z"/>
	
		<linearGradient id="path598-0_1_" gradientUnits="userSpaceOnUse" x1="432.9141" y1="-1499.4271" x2="433.9317" y2="-1498.668" gradientTransform="matrix(1 0 0 -1 -273.925 -1363.0093)">
		<stop  offset="0" style="stop-color:#9D9C9C"/>
		<stop  offset="6.100000e-02" style="stop-color:#B5B5B4"/>
		<stop  offset="0.105" style="stop-color:#B5B5B4"/>
		<stop  offset="0.291" style="stop-color:#FFFFFF"/>
		<stop  offset="0.582" style="stop-color:#70706F"/>
		<stop  offset="0.78" style="stop-color:#FFFFFF"/>
		<stop  offset="1" style="stop-color:#7C7B7B"/>
	</linearGradient>
	<path id="path598-0" class="st19" d="M156,131.1c-0.3,0.2-0.6,0.6-0.6,0.6l6.4,8.6h1.9l-7.1-9.5C156.6,130.9,156.4,131,156,131.1"
		/>
	<path id="path758-0" class="st20" d="M149,126.1C149.1,126.1,149.1,126.1,149,126.1c0.2,0.1,0.3,0.2,0.5,0.3
		c0.1,0.2,0.2,0.4,0.2,0.6v0.1c0,0,0,0,0.1-0.1c0-0.2-0.1-0.5-0.2-0.6C149.4,126.1,149.2,126,149,126.1C149.1,126,149,126,149,126.1
		L149,126.1"/>
	
		<linearGradient id="path778-4_1_" gradientUnits="userSpaceOnUse" x1="-322.9283" y1="-4256.1626" x2="-322.1208" y2="-4256.1626" gradientTransform="matrix(0.5111 -0.3178 -0.3426 -0.5302 -1147.8229 -2230.1975)">
		<stop  offset="0" style="stop-color:#FFFFFF"/>
		<stop  offset="1" style="stop-color:#FFFFFF"/>
	</linearGradient>
	<path id="path778-4" class="st21" d="M149,126.2L149,126.2L149,126.2c0.2,0.1,0.2,0.2,0.3,0.3c0.1,0.2,0.2,0.3,0.1,0.5v0.1
		c0,0,0,0,0.1-0.1c0-0.2,0-0.4-0.2-0.6C149.3,126.3,149.2,126.2,149,126.2C149.1,126.1,149.1,126.1,149,126.2
		C149,126.1,149,126.1,149,126.2"/>
	
		<linearGradient id="path798-4_1_" gradientUnits="userSpaceOnUse" x1="193.7465" y1="-5506.2305" x2="194.5541" y2="-5506.2305" gradientTransform="matrix(0.4058 -0.2523 -0.272 -0.4209 -1431.99 -2139.0176)">
		<stop  offset="0" style="stop-color:#FFFFFF"/>
		<stop  offset="1" style="stop-color:#FFFFFF"/>
	</linearGradient>
	<path id="path798-4" class="st22" d="M149,126.4L149,126.4C149,126.4,149,126.5,149,126.4c0.2,0.1,0.2,0.2,0.2,0.2
		c0.1,0.1,0.1,0.2,0.1,0.3v0.1c0,0,0,0,0.1-0.1c0-0.2,0-0.3-0.1-0.4C149.2,126.5,149.1,126.4,149,126.4
		C149.1,126.3,149.1,126.3,149,126.4C149,126.3,149,126.4,149,126.4"/>
	<path id="path810-6" class="st20" d="M147.4,128.6c-0.6-0.8-0.5-2,0.2-2.7c0.6-0.6,1.5-0.5,2.1,0.3l0,0c0.2,0.4,0.4,0.9,0.3,1.4
		c0,0.5-0.2,1-0.5,1.3C148.8,129.6,147.8,129.4,147.4,128.6L147.4,128.6z M150,127.7c0-0.6-0.1-1-0.4-1.5l0,0
		c-0.6-0.9-1.5-1-2.2-0.3c-0.6,0.6-0.7,1.9-0.2,2.8l0,0l0,0c0.6,0.9,1.5,1,2.2,0.3C149.8,128.7,149.9,128.2,150,127.7"/>
	<path id="path814-2" class="st20" d="M149,127C149,127,149.1,127,149,127C149.1,127,149.1,126.9,149,127l-0.1-0.2l0,0
		c0,0,0,0-0.1,0v0.1L149,127z"/>
	
		<linearGradient id="path834-9_1_" gradientUnits="userSpaceOnUse" x1="-5045.8569" y1="-6018.4868" x2="-5045.0493" y2="-6018.4868" gradientTransform="matrix(8.714000e-02 -0.4385 -0.4415 -0.1098 -2069.1604 -2745.6931)">
		<stop  offset="0" style="stop-color:#FFFFFF"/>
		<stop  offset="1" style="stop-color:#FFFFFF"/>
	</linearGradient>
	<path id="path834-9" class="st23" d="M148.7,126.3l-0.9,1v0.1v0.1l0,0c0,0,0,0,0-0.1l0,0c-0.1-0.1-0.1-0.1-0.2-0.1
		c0,0-0.2,0.2-0.2,0.3c0,0.1,0,0.2,0,0.2c-0.1,0-0.2,0.1-0.2,0.2c0,0,0,0,0,0.1l0,0h0.1c0-0.1,0.1-0.1,0.2-0.1
		c0.1,0,0.2-0.1,0.2-0.1s0.1-0.1,0.2-0.2c0.2-0.2,0.3-0.3,0.4-0.3c0.1,0,0.1,0,0.1,0v0.1c-0.1,0.1-0.5,0.6-0.5,0.6v0.1
		c0,0,0,0,0.1,0c0,0,0.1-0.2,0.2-0.3l0.2,0.2c0,0.1,0,0.1,0,0.2c0,0.1-0.1,0.2-0.2,0.2c0,0-0.1,0-0.2,0.1c-0.1,0-0.2,0.1-0.3,0.1
		c0,0,0,0,0,0.1l0,0c0,0,0,0,0.1,0c0.1,0,0.2-0.1,0.3-0.1c0.1,0,0.2-0.1,0.2-0.1c0.1-0.1,0.2-0.2,0.2-0.2c0,0,0-0.1,0-0.2h0.1l0.9-1
		c0.1-0.1,0.1-0.2,0-0.2l-0.5-0.7l-0.1-0.1C148.8,126.3,148.8,126.3,148.7,126.3C148.8,126.3,148.7,126.3,148.7,126.3 M147.9,127.4
		L147.9,127.4l0.9-1l0,0l0.5,0.7l0,0l-0.9,1l0,0l-0.2-0.2c0.1-0.1,0.2-0.2,0.2-0.2c0.1-0.1,0.1-0.2,0-0.2c0-0.1-0.1-0.1-0.2-0.1
		C148.2,127.3,148.1,127.4,147.9,127.4L147.9,127.4z M147.4,127.8c0-0.1,0.2-0.2,0.2-0.2s0,0,0.1,0l0,0l0,0l-0.1,0.1
		C147.5,127.7,147.5,127.8,147.4,127.8L147.4,127.8C147.4,127.9,147.4,127.8,147.4,127.8 M147.7,127.8c0.1-0.1,0.2-0.2,0.2-0.2
		l0.1,0.1c-0.1,0-0.1,0.1-0.1,0.1c-0.1,0.1-0.2,0.2-0.2,0.2l0,0C147.6,127.8,147.6,127.8,147.7,127.8"/>
</g>
<g id="g13442" transform="translate(-54.785-114.51)">
	<path id="path22" class="st24" d="M87.5,144.1L87.5,144.1L87.5,144.1c3.9,0.7,11,2,15.1,2.8v0.1L87.5,144.1
		C87.5,144.2,87.5,144.2,87.5,144.1L87.5,144.1z M99.1,153.1c-0.3,0.2-0.5,0.4-0.8,0.6C98.6,153.5,98.8,153.3,99.1,153.1z
		 M106.5,148.6c-0.1-0.7-0.1-0.9-0.1-0.9l0,0l-0.8,0.6c0.5-0.4,0.8-0.6,0.8-0.6l-1.5-0.3c0,0,0,0,0-0.1h0.1l0,0c0.6,0.1,1,0.2,1,0.2
		c0.2,0,0.3,0,0.3-0.1c0.1,0,0.1-0.1,0.1-0.2v-21.3c0-0.1-0.1-0.2-0.2-0.2c-7.2-0.9-7.1-0.9-10.6-1c-2.9,0-10.6,0-10.6,0
		s-0.1,18.6,0,18.8c0,0,0.3,0.1,0.8,0.2c0,0.1,0,0.1,0,0.1l-0.7-0.1c0,0-12.2,5.9-12.1,6.4c0,0-0.1,0.4,0.2,0.5
		c0.2,0.1,21.3,5.5,21.6,5.5c0.8,0.2,1,0.1,1,0.1l9.3-6.8l-0.5,0.3h1.1l0,0c0.1,0,0.2,0,0.4-0.1
		C106.6,149.6,106.5,148.8,106.5,148.6L106.5,148.6z"/>
	<path id="path26" class="st8" d="M105.7,149.9h-1.1l0.5-0.3L105.7,149.9z"/>
	
		<linearGradient id="path52_1_" gradientUnits="userSpaceOnUse" x1="358.8806" y1="-1499.1548" x2="380.3337" y2="-1499.1548" gradientTransform="matrix(1 0 0 -1 -273.925 -1363.0093)">
		<stop  offset="0" style="stop-color:#E5E5E5"/>
		<stop  offset="0.506" style="stop-color:#AEAEAE"/>
		<stop  offset="0.735" style="stop-color:#AEAEAE"/>
		<stop  offset="0.952" style="stop-color:#878787"/>
		<stop  offset="1" style="stop-color:#878787"/>
	</linearGradient>
	<path id="path52" class="st25" d="M85,124.8c0,0-0.1,18.6,0,18.8c0.3,0.3,20.8,3.9,21,3.9c0.4,0,0.5-0.2,0.5-0.2l-0.2-21.5
		c-7.2-0.9-7.1-0.9-10.6-1c-1,0-2.5,0-4,0C88.4,124.8,85,124.8,85,124.8"/>
	<path id="path64" class="st26" d="M105,147.3l-2.2-0.4l0.1-1.1l2.2,0.3L105,147.3z"/>
	
		<linearGradient id="path92_1_" gradientUnits="userSpaceOnUse" x1="377.6742" y1="-1510.2501" x2="377.9042" y2="-1509.0001" gradientTransform="matrix(1 0 0 -1 -273.925 -1363.0093)">
		<stop  offset="0" style="stop-color:#E5E5E5"/>
		<stop  offset="0.543" style="stop-color:#878787"/>
		<stop  offset="0.789" style="stop-color:#878787"/>
		<stop  offset="0.827" style="stop-color:#C7C7C6"/>
		<stop  offset="0.976" style="stop-color:#C7C7C6"/>
		<stop  offset="1" style="stop-color:#C7C7C6"/>
	</linearGradient>
	<path id="path92" class="st27" d="M102.7,147.1l2.2,0.4c0,0-0.1-0.9,0.1-1.1c0.2-0.2-1.7-0.4-2-0.5
		C102.6,145.9,102.7,147.1,102.7,147.1"/>
	<path id="path104" class="st26" d="M87.7,144.2l-1.8-0.4l0.1-0.9l1.7,0.3L87.7,144.2z"/>
	
		<linearGradient id="path132_1_" gradientUnits="userSpaceOnUse" x1="360.5477" y1="-1507.1534" x2="360.7467" y2="-1506.0334" gradientTransform="matrix(1 0 0 -1 -273.925 -1363.0093)">
		<stop  offset="0" style="stop-color:#E5E5E5"/>
		<stop  offset="0.543" style="stop-color:#878787"/>
		<stop  offset="0.789" style="stop-color:#878787"/>
		<stop  offset="0.827" style="stop-color:#C7C7C6"/>
		<stop  offset="0.976" style="stop-color:#C7C7C6"/>
		<stop  offset="1" style="stop-color:#C7C7C6"/>
	</linearGradient>
	<path id="path132" class="st28" d="M85.8,144l1.7,0.3c0,0,0-0.8,0.1-1s-1.3-0.4-1.5-0.4C85.8,143,85.8,144,85.8,144"/>
	<path id="path144" class="st16" d="M105.8,145.5l-20.5-3.4v-16.3l20.5,1V145.5z"/>
	
		<linearGradient id="path166_1_" gradientUnits="userSpaceOnUse" x1="380.9742" y1="-1505.5068" x2="359.0293" y2="-1490.1404" gradientTransform="matrix(1 0 0 -1 -273.925 -1363.0093)">
		<stop  offset="0" style="stop-color:#FFFFFF"/>
		<stop  offset="0.689" style="stop-color:#6DA6D4"/>
		<stop  offset="1" style="stop-color:#6DA6D4"/>
	</linearGradient>
	<path id="path166" class="st29" d="M85.8,141.7l19.5,3.3v-17.8l-19.5-1"/>
	
		<linearGradient id="path192_1_" gradientUnits="userSpaceOnUse" x1="355.3482" y1="-1504.1875" x2="371.9365" y2="-1519.6544" gradientTransform="matrix(1 0 0 -1 -273.925 -1363.0093)">
		<stop  offset="0" style="stop-color:#E5E5E5"/>
		<stop  offset="0.286" style="stop-color:#AEAEAE"/>
		<stop  offset="0.416" style="stop-color:#AEAEAE"/>
		<stop  offset="0.982" style="stop-color:#70706F"/>
		<stop  offset="1" style="stop-color:#70706F"/>
	</linearGradient>
	<path id="path192" class="st30" d="M73,150.2c1.4,0.5,19.4,5.3,22.7,5.8c0-0.7,10.6-8.3,10.7-8.4l-21.3-3.9
		C85.1,143.8,72.9,149.7,73,150.2"/>
	<path id="path204" class="st16" d="M73,150.2c0,0-0.1,0.4,0.2,0.5c0.2,0.1,21.3,5.5,21.6,5.5c1,0.3,1,0,1,0l-0.2-0.3L73,150.2z"/>
	
		<linearGradient id="path232_1_" gradientUnits="userSpaceOnUse" x1="375.6001" y1="-1515.9281" x2="374.6901" y2="-1514.6182" gradientTransform="matrix(1 0 0 -1 -273.925 -1363.0093)">
		<stop  offset="0" style="stop-color:#70706F"/>
		<stop  offset="0.502" style="stop-color:#70706F"/>
		<stop  offset="0.681" style="stop-color:#AEAEAE"/>
		<stop  offset="0.758" style="stop-color:#3D3D3C"/>
		<stop  offset="0.964" style="stop-color:#3D3D3C"/>
		<stop  offset="1" style="stop-color:#3D3D3C"/>
	</linearGradient>
	<path id="path232" class="st31" d="M106.3,147.7l-4.4,3.2c0,0-5.5,4.3-5.6,4.4s-0.4,0.3-0.5,0.5c-0.2,0.1-0.2,0.3-0.2,0.3
		c0,0.1,0.2,0.3,0.2,0.3l9.3-6.8c0,0,0.4,0.5,1,0.3s0.5-1.1,0.5-1.3C106.5,147.8,106.4,147.7,106.3,147.7L106.3,147.7z"/>
	<path id="path244" class="st32" d="M78.5,147.7l6.3-3.4l19.5,3.7l-5.7,4.2L78.5,147.7z"/>
	<path id="path248" class="st33" d="M78.5,147.7l0.5-0.3l19.3,4.4l0.4,0.4L78.5,147.7z"/>
	<path id="path252" class="st8" d="M98.3,151.9l5.6-3.9l0.5,0.1l-5.7,4.2L98.3,151.9z"/>
	<path id="path256-0" class="st34" d="M84.9,144.4v-0.1l19.7,3.6l-0.2,0.2L84.9,144.4z"/>
	<path id="path260" class="st35" d="M78.4,147.7l6.5-3.4v0.1l-6.3,3.4L78.4,147.7z"/>
	<path id="path264" class="st36" d="M106.3,149c0,0.4-0.2,0.7-0.4,0.7c-0.2,0-0.4-0.3-0.4-0.7s0.2-0.7,0.4-0.7
		C106.1,148.3,106.3,148.6,106.3,149"/>
	<path id="path268" class="st37" d="M87.5,153.3c-0.1,0.1-0.3,0.2-0.5,0.2l-4.3-1.1c-0.1,0-0.1-0.2,0-0.3l3-2
		c0.1-0.1,0.3-0.2,0.5-0.2l3.8,0.9c0.1,0,0.1,0.2,0,0.3L87.5,153.3z"/>
	<path id="path272" class="st37" d="M106.4,147.2c0,0.1-0.1,0.2-0.2,0.2s-0.2-0.1-0.2-0.2v-21.3c0-0.1,0.1-0.2,0.2-0.2
		s0.2,0.1,0.2,0.2C106.4,125.9,106.4,147.2,106.4,147.2z"/>
	<path id="path276" class="st8" d="M105.7,149.9h-1.1l0.5-0.3L105.7,149.9z"/>
	
		<linearGradient id="path302_1_" gradientUnits="userSpaceOnUse" x1="358.8806" y1="-1499.1548" x2="380.3337" y2="-1499.1548" gradientTransform="matrix(1 0 0 -1 -273.925 -1363.0093)">
		<stop  offset="0" style="stop-color:#E5E5E5"/>
		<stop  offset="0.506" style="stop-color:#AEAEAE"/>
		<stop  offset="0.735" style="stop-color:#AEAEAE"/>
		<stop  offset="0.952" style="stop-color:#878787"/>
		<stop  offset="1" style="stop-color:#878787"/>
	</linearGradient>
	<path id="path302" class="st38" d="M85,124.8c0,0-0.1,18.6,0,18.8c0.3,0.3,20.8,3.9,21,3.9c0.4,0,0.5-0.2,0.5-0.2l-0.2-21.5
		c-7.2-0.9-7.1-0.9-10.6-1c-1,0-2.5,0-4,0C88.4,124.8,85,124.8,85,124.8"/>
	<path id="path314" class="st26" d="M105,147.3l-2.2-0.4l0.1-1.1l2.2,0.3L105,147.3z"/>
	
		<linearGradient id="path342-8_1_" gradientUnits="userSpaceOnUse" x1="377.6742" y1="-1510.2501" x2="377.9042" y2="-1509.0001" gradientTransform="matrix(1 0 0 -1 -273.925 -1363.0093)">
		<stop  offset="0" style="stop-color:#E5E5E5"/>
		<stop  offset="0.543" style="stop-color:#878787"/>
		<stop  offset="0.789" style="stop-color:#878787"/>
		<stop  offset="0.827" style="stop-color:#C7C7C6"/>
		<stop  offset="0.976" style="stop-color:#C7C7C6"/>
		<stop  offset="1" style="stop-color:#C7C7C6"/>
	</linearGradient>
	<path id="path342-8" class="st39" d="M102.7,147.1l2.2,0.4c0,0-0.1-0.9,0.1-1.1c0.2-0.2-1.7-0.4-2-0.5
		C102.6,145.9,102.7,147.1,102.7,147.1"/>
	<path id="path354-0" class="st26" d="M87.7,144.2l-1.8-0.4l0.1-0.9l1.7,0.3L87.7,144.2z"/>
	
		<linearGradient id="path382-8_1_" gradientUnits="userSpaceOnUse" x1="360.5477" y1="-1507.1534" x2="360.7467" y2="-1506.0334" gradientTransform="matrix(1 0 0 -1 -273.925 -1363.0093)">
		<stop  offset="0" style="stop-color:#E5E5E5"/>
		<stop  offset="0.543" style="stop-color:#878787"/>
		<stop  offset="0.789" style="stop-color:#878787"/>
		<stop  offset="0.827" style="stop-color:#C7C7C6"/>
		<stop  offset="0.976" style="stop-color:#C7C7C6"/>
		<stop  offset="1" style="stop-color:#C7C7C6"/>
	</linearGradient>
	<path id="path382-8" class="st40" d="M85.8,144l1.7,0.3c0,0,0-0.8,0.1-1s-1.3-0.4-1.5-0.4C85.8,143,85.8,144,85.8,144"/>
	<path id="path394-3" class="st16" d="M105.8,145.5l-20.5-3.4v-16.3l20.5,1V145.5z"/>
	
		<linearGradient id="path416_1_" gradientUnits="userSpaceOnUse" x1="380.9742" y1="-1505.5068" x2="359.0293" y2="-1490.1404" gradientTransform="matrix(1 0 0 -1 -273.925 -1363.0093)">
		<stop  offset="0" style="stop-color:#FFFFFF"/>
		<stop  offset="0.689" style="stop-color:#6DA6D4"/>
		<stop  offset="1" style="stop-color:#6DA6D4"/>
	</linearGradient>
	<path id="path416" class="st41" d="M85.8,141.7l19.5,3.3v-17.8l-19.5-1"/>
	
		<linearGradient id="path442_1_" gradientUnits="userSpaceOnUse" x1="355.3482" y1="-1504.1875" x2="371.9365" y2="-1519.6544" gradientTransform="matrix(1 0 0 -1 -273.925 -1363.0093)">
		<stop  offset="0" style="stop-color:#E5E5E5"/>
		<stop  offset="0.286" style="stop-color:#AEAEAE"/>
		<stop  offset="0.416" style="stop-color:#AEAEAE"/>
		<stop  offset="0.982" style="stop-color:#70706F"/>
		<stop  offset="1" style="stop-color:#70706F"/>
	</linearGradient>
	<path id="path442" class="st42" d="M73,150.2c1.4,0.5,19.4,5.3,22.7,5.8c0-0.7,10.6-8.3,10.7-8.4l-21.3-3.9
		C85.1,143.8,72.9,149.7,73,150.2"/>
	<path id="path454" class="st16" d="M73,150.2c0,0-0.1,0.4,0.2,0.5c0.2,0.1,21.3,5.5,21.6,5.5c1,0.3,1,0,1,0l-0.2-0.3L73,150.2z"/>
	
		<linearGradient id="path482_1_" gradientUnits="userSpaceOnUse" x1="375.6001" y1="-1515.9281" x2="374.6901" y2="-1514.6182" gradientTransform="matrix(1 0 0 -1 -273.925 -1363.0093)">
		<stop  offset="0" style="stop-color:#70706F"/>
		<stop  offset="0.502" style="stop-color:#70706F"/>
		<stop  offset="0.681" style="stop-color:#AEAEAE"/>
		<stop  offset="0.758" style="stop-color:#3D3D3C"/>
		<stop  offset="0.964" style="stop-color:#3D3D3C"/>
		<stop  offset="1" style="stop-color:#3D3D3C"/>
	</linearGradient>
	<path id="path482" class="st43" d="M106.3,147.7l-4.4,3.2c0,0-5.5,4.3-5.6,4.4s-0.4,0.3-0.5,0.5c-0.2,0.1-0.2,0.3-0.2,0.3
		c0,0.1,0.2,0.3,0.2,0.3l9.3-6.8c0,0,0.4,0.5,1,0.3s0.5-1.1,0.5-1.3C106.5,147.8,106.4,147.7,106.3,147.7L106.3,147.7z"/>
	<path id="path494" class="st32" d="M78.5,147.7l6.3-3.4l19.5,3.7l-5.7,4.2L78.5,147.7z"/>
	<path id="path498-7" class="st33" d="M78.5,147.7l0.5-0.3l19.3,4.4l0.4,0.4L78.5,147.7z"/>
	<path id="path502" class="st8" d="M98.3,151.9l5.6-3.9l0.5,0.1l-5.7,4.2L98.3,151.9z"/>
	<path id="path506" class="st34" d="M84.9,144.4v-0.1l19.7,3.6l-0.2,0.2L84.9,144.4z"/>
	<path id="path510-0" class="st35" d="M78.4,147.7l6.5-3.4v0.1l-6.3,3.4L78.4,147.7z"/>
	<path id="path514" class="st36" d="M106.3,149c0,0.4-0.2,0.7-0.4,0.7c-0.2,0-0.4-0.3-0.4-0.7s0.2-0.7,0.4-0.7
		C106.1,148.3,106.3,148.6,106.3,149"/>
	<path id="path518" class="st37" d="M87.5,153.3c-0.1,0.1-0.3,0.2-0.5,0.2l-4.3-1.1c-0.1,0-0.1-0.2,0-0.3l3-2
		c0.1-0.1,0.3-0.2,0.5-0.2l3.8,0.9c0.1,0,0.1,0.2,0,0.3L87.5,153.3z"/>
	<path id="path522-1" class="st37" d="M106.4,147.2c0,0.1-0.1,0.2-0.2,0.2s-0.2-0.1-0.2-0.2v-21.3c0-0.1,0.1-0.2,0.2-0.2
		s0.2,0.1,0.2,0.2C106.4,125.9,106.4,147.2,106.4,147.2z"/>
</g>
<path id="rect11125" class="st0" d="M3.3,56.6L0,59.8L3.3,63v-1.4h194.1V63l3.3-3.2l-3.3-3.2V58H3.3"/>
<text id="ethernet" transform="matrix(1 0 0 1 8.48 55.2954)" class="st44 st45">Ethernet</text>
<g>
	<text transform="matrix(1 0 0 1 82.8351 34.5)" class="st44 st45">Встроенные</text>
	<text transform="matrix(1 0 0 1 82.8351 38.5)" class="st44 st45">считыватели</text>
	<text transform="matrix(1 0 0 1 82.8351 42.5)" class="st44 st45">бесконтактных</text>
	<text transform="matrix(1 0 0 1 82.8351 46.5)" class="st44 st45">карт доступа</text>
</g>
<g>
	<text transform="matrix(1 0 0 1 43.5909 50.7727)" class="st44 st45">Программное</text>
	<text transform="matrix(1 0 0 1 43.7709 54.7727)" class="st44 st45">обеспечение</text>
</g>
<g>
	<text transform="matrix(1 0 0 1 165.0345 37.3182)" class="st44 st45">Стойка</text>
	<text transform="matrix(1 0 0 1 165.0345 41.3182)" class="st44 st45">электронной</text>
	<text transform="matrix(1 0 0 1 165.0345 45.3182)" class="st44 st45">проходной</text>
</g>
<g id="g11352" transform="matrix(.3441 0 0 .3441 5.473-10.497)">
	<path id="path68" class="st46" d="M381.1,183.8l4.3,1.7l-0.1-100.9L379.7,66L381.1,183.8z"/>
	
		<linearGradient id="path90_1_" gradientUnits="userSpaceOnUse" x1="22639.8008" y1="18037.9336" x2="22639.8008" y2="17924.5117" gradientTransform="matrix(0.1184 0 0 0.1184 -2280.3438 -1948.0875)">
		<stop  offset="0" style="stop-color:#5F5F5E"/>
		<stop  offset="0.1681" style="stop-color:#656564"/>
		<stop  offset="0.3874" style="stop-color:#757574"/>
		<stop  offset="0.6348" style="stop-color:#90908F"/>
		<stop  offset="0.9011" style="stop-color:#B4B4B4"/>
		<stop  offset="1" style="stop-color:#C4C4C4"/>
	</linearGradient>
	<path id="path90" class="st47" d="M385.3,84.6l0.1,95.8l30-11.7l-0.5-89.6L385.3,84.6z"/>
	
		<linearGradient id="path112_1_" gradientUnits="userSpaceOnUse" x1="22705.9531" y1="16878.1289" x2="22679.5352" y2="16907.4004" gradientTransform="matrix(0.1184 0 0 0.1184 -2280.3438 -1948.0875)">
		<stop  offset="0" style="stop-color:#5F5F5E"/>
		<stop  offset="0.842" style="stop-color:#C4C4C4"/>
		<stop  offset="1" style="stop-color:#C4C4C4"/>
	</linearGradient>
	<path id="path112" class="st48" d="M379.7,66l5.6,18.7L413.8,60l-19.6-7.4L379.7,66z"/>
	<path id="path134" class="st49" d="M385.3,180.5l23.1,11.2l30.8-12l-23.9-10.9L385.3,180.5z"/>
	<path id="path156" class="st46" d="M413.8,60l-28.5,24.6l29.6-5.5l27.1-23.3L413.8,60z"/>
	
		<linearGradient id="path214_1_" gradientUnits="userSpaceOnUse" x1="22948.4102" y1="16827.8477" x2="22950.2539" y2="16841.3066" gradientTransform="matrix(0.1184 0 0 0.1184 -2280.3438 -1948.0875)">
		<stop  offset="0" style="stop-color:#3D3D3C"/>
		<stop  offset="5.500000e-02" style="stop-color:#3D3D3C"/>
		<stop  offset="0.106" style="stop-color:#C7C7C6"/>
		<stop  offset="0.148" style="stop-color:#C7C7C6"/>
		<stop  offset="0.228" style="stop-color:#1D1D1B"/>
		<stop  offset="0.547" style="stop-color:#1D1D1B"/>
		<stop  offset="0.967" style="stop-color:#2E373B"/>
		<stop  offset="0.978" style="stop-color:#1D1D1B"/>
		<stop  offset="1" style="stop-color:#1D1D1B"/>
	</linearGradient>
	<path id="path214" class="st50" d="M432.7,37.5c-0.4,0.1-1.3,0.5-1.3,0.6c0,0.2,0.8,0.3,0.8,0.3l4,0.3l5.7,7.1L441,55.9l-7.8,7.7
		c0,0,1.4-0.5,1.6-0.7c0.2-0.2,5.6-5.3,5.8-5.6c0.2-0.2,0.8-0.9,1.2-1.5c0.2-0.3,0.8-1.2,1-1.7c0.2-0.5,0.6-2.1,0.6-2.1
		s0.2-1.5,0.2-2.4c0-0.5-0.1-1.1-0.1-1.5s-0.2-1.4-0.2-1.4v-1c0-0.6-0.2-1.5-0.2-1.5s0-0.2-0.2-0.6c-0.4-0.9-1.1-2.3-1.6-2.7
		c-0.2-0.2-0.8-0.2-0.8-0.2s-0.5-0.8-0.9-1.1c-0.4-0.5-1.4-1.3-2-1.6c-0.4-0.2-1.2-0.6-1.6-0.8c-0.4-0.2-1.2-0.2-1.5-0.2l0,0
		C434.2,37.1,433.1,37.4,432.7,37.5"/>
	<path id="path226" class="st8" d="M394.4,51.5l11-7.9c0,0,1.5-0.9,2.7-1.2c0.8-0.2,2-0.3,2.8-0.2c0.9,0.2,3.1,0.9,3.9,1.5
		c0.6,0.5,1.6,1.3,2.1,2c0.6,0.8,1.6,2.7,1.9,3.7c0.2,0.8,0.5,2.5,0.5,3.3c-0.1,1.1-0.6,3.8-1,4.7c-0.3,0.8-1.6,2.9-2.3,3.4
		c-3.5,2.3-11.7,7.8-11.7,7.8s-1.4,0.7-3.1,0.7c-0.6,0-1.8-0.2-2.6-0.5c-0.6-0.2-1.7-1-2.3-1.5c-0.7-0.5-1.8-1.7-2.3-2.4
		c-0.6-0.9-1.3-2.4-1.7-4.2c-0.2-1-0.4-3.2,0-4.5c0-0.1,0.6-2.4,1-3.2C393.9,52,394.4,51.5,394.4,51.5"/>
	<path id="path256" class="st51" d="M407.3,42.7c-1.3,0.3-2.7,1.3-2.7,1.3l-10,7.5c0,0-1.1,1.2-1.6,2.3c-0.4,0.8-0.9,3.2-0.9,3.2
		c-0.3,1.3-0.1,3.5,0.2,4.5c0.4,1.6,1.2,3.1,1.8,4.1c0.5,0.7,1.6,1.9,2.3,2.4c0.5,0.4,1.6,1.2,2.3,1.4c0.7,0.2,2,0.5,2.6,0.5
		c1.6,0,3-0.8,3-0.8s8.9-6.6,11.8-9.1c0.6-0.5,1.4-2.2,1.7-3c0.4-1,0.9-3.2,0.9-4.3c0-0.8-0.3-2.8-0.5-3.6c-0.2-0.9-1-2.4-1.6-3.2
		c-0.5-0.6-1.8-1.6-2.4-2c-0.8-0.5-2.7-1.4-3.6-1.5c-0.1,0-0.2,0-0.3,0C409.2,42.2,407.9,42.5,407.3,42.7"/>
	
		<linearGradient id="path290_1_" gradientUnits="userSpaceOnUse" x1="22798.8711" y1="16861.332" x2="22771.2676" y2="16876.1699" gradientTransform="matrix(0.1184 0 0 0.1184 -2280.3438 -1948.0875)">
		<stop  offset="0" style="stop-color:#3D3D3C"/>
		<stop  offset="0.1759" style="stop-color:#C7C7C6"/>
		<stop  offset="0.547" style="stop-color:#1D1D1B"/>
		<stop  offset="0.978" style="stop-color:#292927"/>
	</linearGradient>
	<path id="path290" class="st52" d="M414.2,46.5c-0.2,0.1-2.8,0.5-3.8,0.5c-0.5,0-2.3-0.5-2.3-0.5S405.8,46,405,46
		c-0.5,0-1.7,0.1-2.2,0.2c-0.5,0.2-1.9,0.7-1.9,0.7l-6.5,4.6c0,0-1.5,1.9-1.8,3.5c-0.2,0.7-0.5,2.1-0.6,2.8c-0.1,0.8,0,2.4,0.2,3.2
		c0.2,0.9,0.8,2.7,1.3,3.5c0.5,0.9,2.4,2.9,2.4,3c0.1,0.1,1.9,1.2,2.6,1.3c0.9,0.2,2,0.3,3.5,0c1-0.2,2.2-1.3,2.2-1.3l4.6-4
		c0,0,1.3-1.5,1.7-2c0.5-0.7,1.3-2.3,1.6-3.1c0.4-0.9,1-4,1-4l0.7-2.5c0,0,0.8-1.6,2-2.4c1.1-0.8,2.3-0.9,2.3-0.9l-1.6-2.9
		C416.4,45.7,414.3,46.5,414.2,46.5"/>
	
		<linearGradient id="path322_1_" gradientUnits="userSpaceOnUse" x1="22851.1523" y1="16775.793" x2="22862.4961" y2="16833.0977" gradientTransform="matrix(0.1184 0 0 0.1184 -2280.3438 -1948.0875)">
		<stop  offset="0" style="stop-color:#5F5F5E"/>
		<stop  offset="0.4397" style="stop-color:#727271"/>
		<stop  offset="0.7035" style="stop-color:#EDEDED"/>
		<stop  offset="1" style="stop-color:#7C7B7B"/>
	</linearGradient>
	<path id="path322" class="st53" d="M410.9,42.2c0,0,1.7,0.4,2.8,0.9c0.9,0.4,3.3,1.6,4.6,5.3c1.9,5-0.1,8.8-0.5,9.6s-2,2.8-2,2.8
		l25.1-4.9c0,0,1.8-2.1,1.8-5.8c0-1.7-0.6-4.5-0.7-4.7c-1.7-6-7.1-8.1-7.1-8.1S411.3,42.1,410.9,42.2"/>
	<path id="path334" class="st8" d="M416.8,45.7l23.1-4.6c0,0,0.9,1.2,1.1,1.6c0.2,0.3,0.6,1.3,0.6,1.3l-23.1,4.8l-0.9-1.6
		L416.8,45.7z"/>
	<path id="path338" class="st12" d="M420,47l-1.6,0.4l-0.3-0.6l1.8-0.4L420,47z"/>
	<path id="path342" class="st12" d="M422.2,46.5l-1.5,0.3l-0.2-0.6l1.5-0.3L422.2,46.5z"/>
	<path id="path346" class="st12" d="M424.4,46.1l-1.5,0.3l-0.2-0.6l1.5-0.3L424.4,46.1z"/>
	<path id="path350" class="st12" d="M426.7,45.7l-1.5,0.3l-0.2-0.6l1.5-0.3L426.7,45.7z"/>
	<path id="path354" class="st12" d="M429,45.2l-1.5,0.3l-0.2-0.6l1.5-0.3L429,45.2z"/>
	<path id="path358" class="st12" d="M431.3,44.7l-1.5,0.3l-0.2-0.6l1.5-0.3L431.3,44.7z"/>
	<path id="path362" class="st12" d="M433.5,44.3l-1.5,0.3l-0.2-0.6l1.5-0.3L433.5,44.3z"/>
	<path id="path366" class="st12" d="M435.7,43.9l-1.5,0.3l-0.2-0.6l1.5-0.3L435.7,43.9z"/>
	<path id="path370" class="st12" d="M438,43.4l-1.5,0.3l-0.2-0.6l1.5-0.3L438,43.4z"/>
	<path id="path374" class="st12" d="M440.4,42.9l-1.6,0.3l-0.2-0.6l1.3-0.3L440.4,42.9z"/>
	<path id="path378" class="st12" d="M406.5,48.9l1.5,0.3l-0.3,1.6l-1.4-0.3L406.5,48.9z"/>
	<path id="path382" class="st12" d="M408.2,49.3l1.5,0.3l-0.3,1.6l-1.5-0.3L408.2,49.3z"/>
	<path id="path386" class="st12" d="M410.1,49.7l1.6,0.3l-0.4,1.6l-1.5-0.3L410.1,49.7z"/>
	<path id="path390" class="st13" d="M406.1,50.8l1.5,0.3l-0.3,1.6l-1.4-0.3L406.1,50.8z"/>
	<path id="path394" class="st13" d="M407.8,51.2l1.5,0.3l-0.3,1.6l-1.5-0.3L407.8,51.2z"/>
	<path id="path398" class="st12" d="M409.6,51.7l1.5,0.3l-0.4,1.6l-1.5-0.3L409.6,51.7z"/>
	<path id="path402" class="st13" d="M407.5,53.3l1.4,0.4l-0.3,1.6l-1.4-0.3L407.5,53.3z"/>
	<path id="path406" class="st12" d="M409.2,53.7l1.5,0.3l-0.3,1.6l-1.4-0.3L409.2,53.7z"/>
	<path id="path410" class="st54" d="M385.2,133.9l-0.3-0.2l-0.3-0.1l-0.3-0.1l-0.3-0.1h-0.3h-0.2h-0.2l-0.2,0.1l-0.2,0.1l-0.2,0.1
		l-0.1,0.2v0.2v0.2l0.1,0.2l0.2,0.2l0.2,0.2l0.2,0.2l0.2,0.2l0.2,0.2l0.3,0.2l0.3,0.2l0.3,0.2l0.3,0.1l0.3,0.1l0.3,0.1h0.3h0.3h0.2
		l0.2-0.1l0.2-0.1l0.2-0.1l0.1-0.2v-0.2v-0.2l-0.1-0.2l-0.2-0.2l-0.2-0.2l-0.2-0.2l-0.2-0.2l-0.2-0.2l-0.3-0.2L385.2,133.9z"/>
	<path id="path440" class="st55" d="M414.6,50.6c-0.4,0.5-0.9,1.5-1.1,2c-0.2,0.8-0.7,3.4-0.7,3.4s-0.5,2.2-0.9,2.9
		c-0.5,1.2-2,3.5-2.8,4.5c-1.3,1.5-4.2,4.2-6,5.1c-0.4,0.2-1.3,0.5-1.6,0.6c-1.2,0.2-3.3-0.2-3.3-0.2s2,1,3.8,0.6
		c0.7-0.2,1.3-0.3,2-0.6c0.9-0.5,3.5-2.7,3.5-2.7s3.8-2.9,3.9-3c0.5-0.3,2.6-2.5,3.2-3.5c0.5-0.8,1.1-2.7,1.4-3.6
		c0.2-0.6,0.5-2.5,0.5-2.6s0.1-1.4,0.2-2c0.2-1.4,1.3-2.7,1.3-2.7s0,0-0.1,0C417.6,48.7,416.1,48.8,414.6,50.6"/>
	<path id="path452" class="st8" d="M428.7,61.4c0.2,0.4,0.6,0.8,0.4,1.3c-0.9,2.3-4.9,6.2-9.9,9c-5.3,3.1-10.7,4.9-12.7,3.8
		c-0.1-0.1-0.3-0.4-0.5-0.5c-0.1-0.1-0.2-0.3-0.3-0.4c-1.1-2,3.1-6.5,9.4-10.1C421.5,60.9,427.6,59.5,428.7,61.4"/>
	<path id="path456" class="st15" d="M429.1,62.1c1.1,2-3.1,6.5-9.4,10.1s-12.4,4.9-13.5,2.9s3.1-6.5,9.4-10.1
		C422,61.4,428,60.2,429.1,62.1"/>
	<path id="path460" class="st8" d="M407.6,71.6l-1.5,2.6l1.6,1.9l4.3,0.2l1.3-2.3L407.6,71.6z"/>
	<path id="path464" class="st8" d="M407.6,76.4l1.1-2.5l3.2,2.2l1.5-2.4l-1.6,4.2L407.6,76.4z"/>
	<path id="path468" class="st16" d="M427.4,61.3l0.9,2.7l-2,4.5l-3.1-0.5v-6.3l3.9-0.5"/>
	<path id="path472" class="st16" d="M413.1,75c0.1,0,2.7-2.5,2.7-2.5s-0.2-0.2-0.1-1.3c0.1-0.5,0.8-1.4,0.8-1.4l-4.4,4.4L413.1,75"
		/>
	<path id="path476" class="st8" d="M414.6,71.9l0.5,0.9l-1.9,2l-0.6-0.9L414.6,71.9z"/>
	<path id="path480" class="st15" d="M416.6,71.8c0,0,1.6-0.5,3.1-1.4c0.6-0.4,2.2-1.7,2.2-1.7l3,3.5l-5.3,3.3L416.6,71.8z"/>
	<linearGradient id="path510_1_" gradientUnits="userSpaceOnUse" x1="397.5463" y1="103.1912" x2="397.8067" y2="103.3017">
		<stop  offset="0" style="stop-color:#F6F6F6"/>
		<stop  offset="0.3428" style="stop-color:#CECFD0"/>
		<stop  offset="0.7795" style="stop-color:#A1A3A6"/>
		<stop  offset="1" style="stop-color:#909295"/>
	</linearGradient>
	<path id="path510" class="st56" d="M409.5,72.2l-26.7,61.6l4.2,1.7L413.6,74c0,0,0-1-1.6-1.6c-0.5-0.2-0.9-0.3-1.3-0.3
		C409.9,72,409.5,72.2,409.5,72.2"/>
	<path id="path522" class="st8" d="M418.5,68.1l2.4-2l2.3-3.3l0.3-0.9c0,0,0.5,1.7,0.8,2.4c0.2,0.6,0.3,1.8,0.3,2.2s-0.5,1-0.5,1
		l-0.5,0.5L418.5,68.1z"/>
	<path id="path526" class="st8" d="M427.6,63.9l-2-0.2c0,0-0.5,2.8-0.5,3c0,0.2-1.2,1.4-1.2,1.4l3,0.3l-0.2-0.4c0,0-0.2-0.7-0.2-0.9
		c0-0.6,0.2-1.9,0.2-1.9L427.6,63.9z"/>
	
		<linearGradient id="path556_1_" gradientUnits="userSpaceOnUse" x1="23082.8066" y1="17075.6191" x2="23084.7246" y2="17064.3535" gradientTransform="matrix(0.1184 0 0 0.1184 -2280.3438 -1948.0875)">
		<stop  offset="0" style="stop-color:#9D9C9C"/>
		<stop  offset="0.7212" style="stop-color:#FFFFFF"/>
		<stop  offset="1" style="stop-color:#7C7B7B"/>
	</linearGradient>
	<path id="path556" class="st57" d="M426.3,65.9c-0.3,1.3,0.5,2.5,0.5,2.5l53,8.9l0.9-4.5L427.5,64
		C427.5,63.9,426.5,64.2,426.3,65.9"/>
	<path id="path568" class="st8" d="M416.5,69.7l-3.6,4.2c0,0-0.3,0.5-0.9,0.5c-1.1,0.2-2-0.4-2-0.4l-2.3-2.4l5-0.2L416.5,69.7z"/>
	<path id="path598" class="st46" d="M420,70.6c-1,0.6-1.8,1.8-1.8,1.8l35.9,48.4c0,0,1.4,0.2,2.4-0.6c1.4-0.9,1.3-2,1.3-2l-36-48.5
		C421.8,69.7,421,70,420,70.6"/>
	<path id="path610" class="st58" d="M481.4,74.9c-0.2,1.3-0.9,2.3-1.5,2.4c-0.6,0-1-0.9-0.9-2.2c0.2-1.3,0.9-2.3,1.5-2.4
		C481.3,72.7,481.6,73.7,481.4,74.9"/>
	
		<radialGradient id="path632_1_" cx="-13015.291" cy="-6791.3779" r="0.824" gradientTransform="matrix(-0.4677 -0.1197 7.845668e-02 -0.3064 -5157.6899 -3458.3289)" gradientUnits="userSpaceOnUse">
		<stop  offset="0" style="stop-color:#70706F"/>
		<stop  offset="0.647" style="stop-color:#1D1D1B"/>
		<stop  offset="1" style="stop-color:#1D1D1B"/>
	</radialGradient>
	<path id="path632" class="st59" d="M392.8,180.1c-0.1,0.5,0.8,1.1,2,1.3c1.2,0.3,2.3,0.2,2.4-0.3c0.1-0.5-0.8-1.1-2-1.3
		c-0.4-0.1-0.8-0.2-1.2-0.2C393.3,179.6,392.8,179.8,392.8,180.1"/>
	
		<radialGradient id="path654_1_" cx="-13214.7197" cy="-6920.6187" r="0.824" gradientTransform="matrix(-0.4545 -0.1164 7.623003e-02 -0.2977 -5060.2803 -3425.1934)" gradientUnits="userSpaceOnUse">
		<stop  offset="0" style="stop-color:#70706F"/>
		<stop  offset="0.647" style="stop-color:#1D1D1B"/>
		<stop  offset="1" style="stop-color:#1D1D1B"/>
	</radialGradient>
	<path id="path654" class="st60" d="M413.9,172c-0.1,0.5,0.8,1,2,1.3c1.2,0.2,2.2,0.1,2.4-0.3c0.1-0.5-0.8-1-2-1.3
		c-0.4-0.1-0.8-0.2-1.1-0.2C414.5,171.5,414,171.7,413.9,172"/>
	
		<radialGradient id="path676_1_" cx="-13207.4639" cy="-6918.5674" r="0.824" gradientTransform="matrix(-0.4545 -0.1164 7.623003e-02 -0.2977 -5042.4282 -3416.9241)" gradientUnits="userSpaceOnUse">
		<stop  offset="0" style="stop-color:#70706F"/>
		<stop  offset="0.647" style="stop-color:#1D1D1B"/>
		<stop  offset="1" style="stop-color:#1D1D1B"/>
	</radialGradient>
	<path id="path676" class="st61" d="M428.7,178.8c-0.1,0.5,0.8,1,2,1.3c1.2,0.2,2.2,0.1,2.4-0.3c0.1-0.5-0.8-1-2-1.3
		c-0.4-0.1-0.8-0.2-1.1-0.2C429.2,178.3,428.7,178.5,428.7,178.8"/>
	
		<radialGradient id="path698_1_" cx="-13008.7998" cy="-6789.4722" r="0.824" gradientTransform="matrix(-0.4677 -0.1197 7.845668e-02 -0.3064 -5141.2842 -3450.592)" gradientUnits="userSpaceOnUse">
		<stop  offset="0" style="stop-color:#70706F"/>
		<stop  offset="0.647" style="stop-color:#1D1D1B"/>
		<stop  offset="1" style="stop-color:#1D1D1B"/>
	</radialGradient>
	<path id="path698" class="st62" d="M406.2,186.4c-0.1,0.5,0.8,1.1,2,1.3c1.2,0.3,2.3,0.2,2.4-0.3c0.1-0.5-0.8-1.1-2-1.3
		c-0.4-0.1-0.8-0.2-1.2-0.2C406.8,186,406.3,186.1,406.2,186.4"/>
	<path id="path720" class="st46" d="M385.4,185.6l23.1,7.9v-1.8l-23.2-11.2L385.4,185.6z"/>
	
		<linearGradient id="path746_1_" gradientUnits="userSpaceOnUse" x1="22833.998" y1="18017.0391" x2="22834.9941" y2="18019.5234" gradientTransform="matrix(0.1184 0 0 0.1184 -2280.3438 -1948.0875)">
		<stop  offset="0" style="stop-color:#FFFFFF"/>
		<stop  offset="0.196" style="stop-color:#FFFFFF"/>
		<stop  offset="0.465" style="stop-color:#FFFFFF"/>
		<stop  offset="0.691" style="stop-color:#727271"/>
		<stop  offset="1" style="stop-color:#727271"/>
	</linearGradient>
	<path id="path746" class="st63" d="M408.4,191.7v1.8l30.7-12.3l0.1-1.6L408.4,191.7z"/>
	<path id="path758" class="st20" d="M399.6,55.8C399.6,55.9,399.7,55.9,399.6,55.8c0.5,0.2,1,0.5,1.3,0.9c0.3,0.5,0.5,1.1,0.4,1.7
		c0,0.1,0.1,0.2,0.1,0.2c0.1,0,0.1-0.1,0.2-0.2c0-0.7-0.2-1.4-0.5-2s-0.9-0.9-1.4-1c-0.1,0-0.1,0.1-0.1,0.2
		C399.6,55.7,399.6,55.8,399.6,55.8"/>
	
		<linearGradient id="path778_1_" gradientUnits="userSpaceOnUse" x1="854.8516" y1="13386.2637" x2="855.6358" y2="13386.2637" gradientTransform="matrix(0.1811 -0.1126 0.1214 0.1878 -1390.6465 -2353.3992)">
		<stop  offset="0" style="stop-color:#FFFFFF"/>
		<stop  offset="1" style="stop-color:#FFFFFF"/>
	</linearGradient>
	<path id="path778" class="st64" d="M399.5,56.2L399.5,56.2l0.1,0.2c0.4,0.1,0.7,0.3,0.9,0.7c0.2,0.4,0.4,0.9,0.3,1.3
		c0,0.1,0.1,0.2,0.1,0.2c0.1,0,0.1-0.1,0.2-0.2c0-0.5-0.1-1.1-0.4-1.6s-0.7-0.7-1.1-0.8l0,0C399.6,56.1,399.5,56.1,399.5,56.2"/>
	
		<linearGradient id="path798_1_" gradientUnits="userSpaceOnUse" x1="2608.2073" y1="17551.8672" x2="2608.9915" y2="17551.8672" gradientTransform="matrix(0.1437 -8.936277e-02 9.634800e-02 0.1491 -1680.0739 -2317.6687)">
		<stop  offset="0" style="stop-color:#FFFFFF"/>
		<stop  offset="1" style="stop-color:#FFFFFF"/>
	</linearGradient>
	<path id="path798" class="st65" d="M399.5,56.6L399.5,56.6l0.1,0.2c0.2,0.1,0.5,0.2,0.7,0.5c0.2,0.3,0.2,0.6,0.2,0.9
		c0,0.1,0.1,0.2,0.1,0.2s0.1-0.1,0.2-0.2c0-0.4-0.1-0.9-0.3-1.2s-0.5-0.5-0.9-0.6l0,0C399.5,56.6,399.5,56.6,399.5,56.6"/>
	<path id="path810" class="st20" d="M394.7,63.2c-1.5-2.4-1.3-5.9,0.5-7.8c1.8-1.9,4.5-1.4,6,0.9l0,0c0.7,1.2,1.1,2.6,1,4.1
		c-0.1,1.5-0.6,2.7-1.5,3.7C398.9,66,396.3,65.6,394.7,63.2L394.7,63.2z M402.5,60.5c0.1-1.6-0.3-3.1-1.1-4.3l0,0
		c-1.6-2.5-4.5-3-6.4-1s-2.1,5.6-0.5,8.2l0,0l0,0c1.6,2.5,4.5,3,6.4,1C401.8,63.5,402.4,62.1,402.5,60.5"/>
	<path id="path814" class="st20" d="M399.5,58.5c0.1,0.1,0.1,0.1,0.2,0c0.1-0.1,0.1-0.2,0-0.2l-0.3-0.5l0,0c0-0.1-0.1-0.1-0.2,0
		s-0.1,0.2,0,0.2L399.5,58.5z"/>
	
		<linearGradient id="path834_1_" gradientUnits="userSpaceOnUse" x1="-14893.1475" y1="19348.1309" x2="-14892.3633" y2="19348.1309" gradientTransform="matrix(3.086813e-02 -0.1554 0.1564 3.888330e-02 -2168.79 -3005.3101)">
		<stop  offset="0" style="stop-color:#FFFFFF"/>
		<stop  offset="1" style="stop-color:#FFFFFF"/>
	</linearGradient>
	<path id="path834" class="st66" d="M398.7,56.6l-2.6,2.7c-0.1,0.1-0.1,0.2-0.1,0.3c0,0.1,0,0.2,0.1,0.3L396,60c0-0.1,0-0.1-0.1-0.2
		l0,0c-0.2-0.2-0.3-0.3-0.5-0.2c-0.1,0.1-0.5,0.6-0.6,0.9c-0.1,0.2-0.1,0.6,0,0.8c-0.2,0.1-0.5,0.2-0.6,0.5c0,0.1,0,0.1,0,0.2
		c0,0,0,0,0.1,0.1c0.1,0,0.2,0,0.2-0.1c0.1-0.2,0.3-0.3,0.5-0.3c0.1,0,0.6-0.2,0.8-0.2c0.1,0,0.2-0.2,0.5-0.4c0.4-0.4,0.9-0.9,1.2-1
		c0.2-0.1,0.2,0,0.2,0.1c0.1,0.1,0.1,0.2,0,0.3c-0.2,0.2-1.3,1.7-1.3,1.8c-0.1,0.1,0,0.2,0,0.2c0.1,0.1,0.1,0.1,0.2,0
		c0,0,0.3-0.4,0.6-0.9l0.3,0.5c0,0.2-0.1,0.3-0.1,0.5c-0.1,0.2-0.2,0.5-0.5,0.5c-0.1,0.1-0.3,0.1-0.6,0.2c-0.2,0.1-0.5,0.2-0.9,0.3
		c-0.1,0-0.1,0.1-0.1,0.2c0,0,0,0,0,0.1s0.1,0.1,0.2,0.1c0.3-0.1,0.6-0.2,0.9-0.3c0.3-0.1,0.5-0.2,0.6-0.2c0.3-0.2,0.5-0.4,0.6-0.8
		c0-0.1,0.1-0.2,0.1-0.4c0.1,0,0.2,0,0.3-0.1l2.6-2.7c0.2-0.2,0.2-0.4,0-0.6l-1.4-2.2c-0.1-0.1-0.2-0.2-0.2-0.2c0,0,0,0-0.1,0
		C398.9,56.5,398.8,56.5,398.7,56.6 M396.3,59.7L396.3,59.7l2.6-2.8h0.1l1.4,2.2v0.1l-2.6,2.7h-0.1l-0.4-0.6
		c0.2-0.3,0.5-0.6,0.5-0.7c0.2-0.2,0.2-0.5,0-0.6c-0.1-0.2-0.3-0.3-0.5-0.2c-0.2,0.1-0.4,0.3-0.6,0.5L396.3,59.7z M395,60.7
		c0.1-0.2,0.5-0.7,0.5-0.8c0,0,0.1,0,0.2,0.1v0.1v0.1c-0.1,0.1-0.2,0.2-0.3,0.3c-0.2,0.2-0.2,0.5-0.2,0.8c-0.1,0-0.2,0.1-0.2,0.1
		C395,61.1,394.9,60.9,395,60.7 M395.7,60.7c0.2-0.2,0.4-0.4,0.5-0.5l0.2,0.2c-0.1,0.1-0.2,0.2-0.3,0.3c-0.2,0.2-0.4,0.4-0.5,0.4
		c0,0-0.1,0-0.1,0.1C395.5,61,395.6,60.8,395.7,60.7"/>
</g>
</svg>
