<svg version="1.1" xmlns="http://www.w3.org/2000/svg" width="500" height="550" viewBox="0 0 500 550" enable-background="new 0 0 500 550">
 <path fill="none" stroke="#4c86b8" stroke-width="0.75" stroke-linejoin="round" d="M178.669,228.334
	c6.403,31.11,14.104,68.953,15.846,76.994c2.592,12.01,8.645,15.961,10.277,17.151c1.629,1.183,10.076,7.161,10.076,7.161
	 M189.595,191.986c0,0-19.069-10.296-15.343,12.933c0.478,2.977,1.811,10.728,2.628,14.685c0.08,0.373,0.288,1.405,0.364,1.788
	 M215.905,329.49c-0.052-2.517,1.975-3.9,1.975-3.9 M217.879,323.217c0,0-3.752-2.771-9.585-6.914
	c-5.827-4.155-6.427-9.49-7.507-14.523c-1.085-5.044-10.472-49.315-11.162-53.461c-0.694-4.15-4.353-20.753-4.353-20.753
	 M189.921,218.848l19.857-1.622 M183.547,218.628c0,0,4.296-0.45,5.188-0.522c0.89-0.073,1.627,2.002,1.627,2.002 M183.694,220.479
	c-2.867-12.272-3.536-17.476-3.088-21.479c0.444-4.004,4.792-3.278,7.166-1.497c2.367,1.775,27.049,19.196,27.049,19.196
	 M215.93,216.553c0.15-2.524,1.851-3.709,1.851-3.709 M217.781,216.553v-4.379 M209.186,218.295c0.222,0,1.516,0.493,1.632,3.528
	c0.113,3.037-0.707,3.487-0.961,3.521 M209.857,225.452c0,0-14.574,1.33-31.663,2.891c-22.05,2.019-48.288,4.421-52.795,4.866
	c-8.011,0.789-20.067,0.69-24.808,11.263c-4.74,10.571,1.881,17.391,4.546,20.853c2.671,3.453,39.43,54.441,45.851,63.042
	c6.417,8.591,12.846,7.11,16.797,6.816c3.951-0.296,41.215-3.878,41.215-3.878c0.222,0,1.522,0.4,1.632,3.442
	c0.108,3.041-0.701,3.484-0.961,3.526c-0.264,0.037-35.389,3.259-39.166,3.625c-3.784,0.371-16.084,3.12-25.048-9.192
	c-8.967-12.297-43.581-59.95-46.913-64.392c-3.337-4.45-9.856-13.563-5.188-24.978c4.668-11.411,13.266-15.193,23.938-16.307
	c10.671-1.107,91.892-8.625,91.892-8.625 M208.409,218.295c0.371-1,1.036-1.04,2.224-1.152c1.187-0.107,8.186-0.69,8.186-0.69
	c0.443,0,1.777-0.038,2.228,4c0.444,4.042-0.892,4.706-1.259,4.745c0,0-6.303,0.63-7.672,0.704
	c-1.374,0.073-2.004,0.185-2.521-0.034c-0.52-0.225-0.705-0.523-0.705-0.523 M208.486,331.268c0.37-1.001,1.034-1.041,2.216-1.148
	c1.19-0.112,8.188-0.776,8.188-0.776c0.448,0,1.787-0.043,2.229,4.004c0.444,4.036-0.893,4.7-1.261,4.738
	c0,0-6.299,0.63-7.674,0.704c-1.367,0.079-1.998,0.185-2.514-0.038c-0.522-0.216-0.708-0.52-0.708-0.52 M260.803,333.303
	l9.889-0.957 M270.66,325.377l-7.711,0.743 M253.283,334.011l-10.228,0.961 M242.533,328.045l12.897-1.222 M236.644,336.495
	c0,0,4.927-0.409,5.634-0.517c0.699-0.119,1.404-2.114,1.111-5.009c-0.3-2.887-1.335-3.666-2.112-3.666
	c-0.779,0-7.488,0.707-7.488,0.707 M226.454,218.252c0,0-1.262,0.484-2.077,2.153c-0.997,2.632,0.264,4.263,1.265,5.039
	c0.998,0.781,1.813,1.371,3.071,2.221c1.262,0.854,2.671,0.687,2.671,0.687 M230.865,221.401c-1.447,0.673-2.412,2.041-2.334,3.71
	c0.071,1.666,2.15,2.779,2.15,2.779c1.259,0.887,26.747,19.043,26.747,19.043c6.302,4.443,18.821,10.817,8.304,45.578
	c-10.524,34.76-14.378,48.093-14.821,49.65c-0.442,1.557-1.708,3.11-4.001,1.557c-2.305-1.557-2.942-2.025-2.942-2.025
	s-8.207-5.835-9.043-6.42c-0.838-0.599-2.421-1.927-4.198-0.939c-1.778,0.985-2.717,3.11-1.924,4.692
	c0.343,0.696,2.912,2.618,3.754,3.214c0,0,8.89,6.225,10.72,7.511c1.829,1.281,10.447,7.381,14.305-5.733l13.061-43.65
	 M231.517,341.448c-1.088,0.297-2.619-0.79-3.312-1.281c-0.688-0.501-2.864-2.127-2.864-2.127s-2.717-2.156-0.594-5.338
	c1.979-2.963,5.176-1.944,5.635-1.682c0.592,0.35,1.232,0.859,2.858,1.993c1.635,1.138,2.179,1.911,2.328,2.653 M289.516,215.152
	l-110.819-79.101 M261.083,219.897l-111.248-78.851 M267.137,217.296l-111.413-78.855 M253.948,228.553l-111.246-78.849
	 M256.035,239.287l-111.928-79.774c-1.967-1.53-1.729-2.688-1.729-2.688c-0.052-1.283-0.102-2.772-0.102-4.592
	c0-1.83,0.25-3.12,1.184-4.3c0.945-1.187,3.162-3.953,5.88-6.674c2.717-2.715,5.482-2.912,8.351-3.309
	c2.869-0.393,15.118-1.333,19.663-1.871c4.548-0.548,6.893,1.418,6.893,1.418l45.85,32.28l65.982,47.382 M271.439,247.325
	c0,0-0.747,0.106-2.027,0.2c-1.285,0.099-2.027,0-3.412-0.987c-1.38-0.989-7.954-5.829-7.954-5.829
	c-4.049-2.769-4.249-3.413-4.297-4.694c-0.049-1.284-0.095-2.767-0.095-4.594c0-1.828,0.244-3.115,1.187-4.301
	c0.936-1.186,3.157-3.951,5.876-6.668c2.716-2.718,5.483-2.911,8.348-3.313c2.869-0.388,15.119-1.329,19.664-1.873
	c4.545-0.548,6.473,1.333,6.473,1.333c1.924,1.081,5.333,4.472,7.063,6.202c1.729,1.731,1.331,3.086,1.331,3.776
	c0,0.693-0.194,3.111-0.242,4.891c-0.051,1.779-0.788,2.57-1.831,3.554c-1.034,0.992-7.558,7.07-9.391,8.994
	c-1.823,1.93-2.912,1.631-3.753,1.631 M291.542,244.549c0,0,6.125-0.627,8.696-0.922c2.57-0.299,2.376-1.385,2.376-2.426
	c0-1.035,0.093-7.515,0.093-7.515 M271.439,223.813v23.512l1.679,0.795 M279.183,237.423l3.334-0.337l0.721,4.831l-3.335,0.337
	L279.183,237.423z M278.347,231.535l3.337-0.336l0.71,4.831l-3.328,0.34L278.347,231.535z M277.503,225.65l3.337-0.335l0.719,4.831
	l-3.335,0.337L277.503,225.65z M274.597,245.156l-3.158-21.343l14.718-1.483l3.163,21.344l-1.48,2.966l-14.722,1.48L274.597,245.156
	l14.723-1.481 M301.07,221.672l24.242,2.918 M325.497,231.628c0,0,5.301,0.596,12.86,1.559c7.557,0.965,11.076,4.592,11.076,4.592
	 M347.32,228.407c2.002,0.485,4.893,2.818,4.893,2.818 M357.871,235.075l4.88,3.556 M354.977,241.62l5.11,3.631 M362.75,248.163
	c0,0-2.757-1.301-2.809-3.853c-0.047-2.541,2.841-4.515,2.841-4.515 M318.561,298.738c-6.633,10.347-11.784,18.38-12.544,19.553
	c-2.222,3.456-8.496,10.759-19.217,12.748 M359.769,222.036c0.993,12.346-7.058,23.531-7.058,23.531
	c-2.389,3.681-17.043,26.508-29.323,45.651 M287.587,210.868c0,0,43.824-4.052,49.357-4.547c4.38-0.39,15.471,1.937,20.427,9.02
	 M314.643,292.046c12.92-20.142,31.729-49.449,34.454-53.658c4.103-6.328,4.052-12.552,4.052-12.552 M286.552,323.861
	c9.391-1.877,13.638-9.292,15.86-12.747c0.551-0.85,3.388-5.281,7.429-11.578 M350.926,218.822
	c-4.934-6.617-13.438-5.581-16.552-5.284c-3.11,0.292-38.143,3.554-38.143,3.554 M203.551,151.169l12.746-1.212
	c25.213-3.122,39.709-0.176,46.133,0.717c6.426,0.889,73.316,8.648,78.95,9.438c5.633,0.789,8.339,3.04,9.724,4.029
	c1.116,0.801,8.799,6.117,11.663,8.1 M212.449,157.327l11.064-1.001c18.875-1.877,28.657,0,35.074,0.889
	c6.427,0.887,73.318,8.644,78.957,9.432c5.627,0.795,8.396,2.173,9.775,3.162c1.386,0.989,12.748,8.847,12.748,8.847
	 M362.839,181.668c0,0-2.125-1.58-2.584-2.468c-0.965-1.96,0.622-4.705,2.546-5.854 M302.707,234.363l7.762-0.667
	c0,0,1.333-0.994,1.231-4.354c-0.102-3.36-1.875-4.197-1.875-4.197l-6.229,0.444 M286.606,302.52l8.595-0.798
	c0,0,1.33-0.989,1.232-4.347c-0.101-3.362-1.876-4.193-1.876-4.193l-8.005,0.637 M295.222,293.759c0,0,28.282-2.536,38.314-3.519
	c10.025-0.989,12.947-2.326,16.997-4.596c1.451-0.814,6.462-3.59,12.303-6.819c10.486-5.807,23.648-13.079,23.648-13.079
	c0.927-0.523,0.745-1.346,0.112-1.79c-0.625-0.446-12.489-8.793-12.489-8.793c-0.35-0.259-0.939-0.608-1.26-1.349
	c-0.496-1.113-0.422-3.262,1.393-4.466c1.813-1.203,3.206-0.371,3.853,0.055c0.651,0.428,12.839,9.117,14.25,10.113
	c1.405,1.001,3.147,2.412,3.481,4.598c0.336,2.182-0.63,4.741-3.11,6.146c0,0-17.809,9.845-29.902,16.542
	c-5.194,2.878-9.327,5.173-10.549,5.855c-4.05,2.269-8.701,3.606-18.727,4.599c-10.032,0.982-37.545,3.446-37.545,3.446
	 M379.705,250.532c-0.352-1.143-0.925-1.643-1.275-1.942c-0.353-0.294-3.502-2.501-3.502-2.501s-1.928-1.501-4.188-0.427
	c-2.261,1.074-2.648,3.334-2.688,3.799c-0.04,0.462,0.039,2.313,1.074,3.146c1.034,0.836,3.722,2.743,4.154,3.023
	c0.421,0.276,1.294,0.724,2.349,0.63 M310.664,225.935c0,0,12.841-1.135,22.873-2.122c10.025-0.989,12.947-2.327,16.997-4.594
	c4.05-2.274,35.951-19.904,35.951-19.904c0.927-0.513,0.745-1.341,0.112-1.787c-0.625-0.443-12.489-8.79-12.489-8.79
	c-0.35-0.256-0.939-0.61-1.26-1.351c-0.496-1.109-0.422-3.262,1.393-4.466c1.813-1.206,3.206-0.37,3.853,0.057
	c0.651,0.427,12.839,9.115,14.25,10.116c1.405,1.001,3.147,2.409,3.481,4.595c0.336,2.186-0.63,4.745-3.11,6.151
	c0,0-36.401,20.12-40.451,22.392c-4.05,2.27-8.701,3.606-18.727,4.594C323.504,231.81,311,232.954,311,232.954 M379.705,184.111
	c-0.352-1.147-0.925-1.653-1.275-1.945c-0.353-0.294-3.502-2.504-3.502-2.504s-1.928-1.5-4.188-0.427
	c-2.261,1.075-2.648,3.334-2.688,3.799c-0.04,0.462,0.039,2.318,1.074,3.151c1.034,0.832,3.722,2.739,4.154,3.015
	c0.421,0.283,1.294,0.724,2.349,0.634 M164.959,357.481l-5.828,0.66l7.679,5.199l6.216-0.608 M270.77,432.38l-5.827,0.651
	l7.682,5.197l20.083-1.963l-6.27-4.594 M222.424,384.575c4.843,2.672,7.791-0.688,7.791-0.688 M169.364,349.501l11.518-1.321
	 M231.111,383.802l39.427,27.968 M180.881,348.18l37.014,26.257 M169.265,341.982v7.52h0.099l101.174,71.753h0.106V247.525
	 M169.265,228.989v105.869 M169.265,177.569v44.41 M169.265,361.932v-1.859h0.099l101.174,71.75l0.106,0.087v1.988l4.153,2.753
	l11.709-1.122v-188.59 M274.797,436.651V248.12 M165.115,222.381v-47.627 M165.115,335.236v-105.84 M171.626,361.713l-2.362,0.219
	l-4.149-2.745v-16.886 M180.977,340.756v7.424 M180.977,238.889v94.85 M180.977,197.724v9.092 M180.977,185.74v4.055
	 M222.03,384.675V215.289 M217.879,329.292V225.507 M233.742,342.978v40.574l-11.712,1.123l-4.15-3.008v-43.383 M233.742,230.025
	v103.322 M362.801,381.931v-95.127 M362.801,278.891v-58.434 M362.801,212.402v-40.16 M377.197,212.458v35.338 M377.197,257.331
	v13.619 M377.197,278.919v103.066 M377.197,191.016v13.441 M377.197,172.057v9.313"/>
 <polygon fill="#4c86b8" points="46.855,191.637 45.432,200.131 46.855,198.229 48.279,200.131 "/>
 <polygon fill="#4c86b8" points="46.928,416.876 48.352,408.378 46.928,410.287 45.505,408.378 "/>
 <polygon fill="#4c86b8" points="91.752,139.171 100.343,139.869 98.322,138.609 100.1,137.033 "/>
 <polygon fill="#4c86b8" points="201.375,131.137 192.823,130.094 194.792,131.436 192.954,132.941 "/>
 <polygon fill="#4c86b8" points="165.305,100.541 171.332,106.691 170.633,104.422 173.009,104.387 "/>
 <polygon fill="#4c86b8" points="281.559,183.455 275.446,177.385 276.18,179.645 273.802,179.709 "/>
 <path fill="none" stroke="#4c86b8" stroke-width="0.4" stroke-linejoin="round" d="M291.437,443.304l-9.827-5.954 M477.37,431.033
	l-94.686-47.708 M91.01,412.529l0.143-275.991 M281.835,243.34v-63.59"/>
 <line fill="none" stroke="#4c86b8" stroke-width="0.3753" stroke-linejoin="round" x1="165.046" y1="137.268" x2="165.046" y2="96.572"/>
 <polygon fill="#4c86b8" points="285.661,439.665 294.258,440.208 292.219,438.992 293.968,437.379 "/>
 <polygon fill="#4c86b8" points="458.699,421.75 450.396,421.125 452.431,422.363 450.671,423.956 "/>
 <line fill="none" stroke="#4c86b8" stroke-width="0.3753" stroke-linejoin="round" x1="454.878" y1="422.16" x2="289.648" y2="439.32"/>
 <polygon fill="#4c86b8" points="161.483,464.163 170.083,464.707 168.042,463.481 169.787,461.873 "/>
 <polygon fill="#4c86b8" points="475.066,430.007 466.784,429.299 468.777,430.604 466.964,432.142 "/>
 <line fill="none" stroke="#4c86b8" stroke-width="0.4" stroke-linejoin="round" x1="470.864" y1="430.447" x2="164.735" y2="463.703"/>
 <line fill="none" stroke="#4c86b8" stroke-width="0.3753" stroke-linejoin="round" stroke-dasharray="3.2722 3.2722" x1="223.513" y1="398.478" x2="36.61" y2="417.955"/>
 <line fill="none" stroke="#4c86b8" stroke-width="0.4" stroke-linejoin="round" x1="418.41" y1="378.501" x2="381.19" y2="382.69"/>
 <line fill="none" stroke="#4c86b8" stroke-width="0.4" stroke-linejoin="round" x1="90.939" y1="412.308" x2="163.272" y2="465.667"/>
 <path fill="none" stroke="#4c86b8" stroke-width="0.4179" stroke-linejoin="round" d="M362.793,172.057
	c0,1.454,3.217,2.625,7.181,2.625c3.975,0,7.195-1.172,7.195-2.625s-3.221-2.627-7.195-2.627
	C366.01,169.43,362.793,170.604,362.793,172.057z"/>
 <path fill="none" stroke="#4c86b8" stroke-width="0.3753" stroke-linejoin="round" d="M362.814,381.806
	c0,1.454,3.232,2.632,7.205,2.632c3.977,0,7.207-1.178,7.207-2.632"/>
 <path fill="none" stroke="#4c86b8" stroke-width="0.4179" stroke-linejoin="round" d="M362.868,378.283
	c-3.254,0.802-5.394,2.163-5.394,3.71c0,2.47,5.479,4.472,12.23,4.472s12.228-2.002,12.228-4.472c0-1.441-1.855-2.72-4.735-3.538
	 M357.474,382.151c-0.024,0.819,0,1.315,0,1.98c0,2.467,5.479,4.469,12.23,4.469s12.228-2.002,12.228-4.469v-2.037"/>
 <path fill="none" stroke="#4c86b8" stroke-width="0.4" stroke-linejoin="round" d="M47.023,411.451l-0.068-215.556 M68.055,232.033
	l53.177-5.571 M31.79,192.647l203.849-17.912 M67.954,351.541l109.364-10.296"/>
 <polygon fill="#4c86b8" points="73.584,231.495 72.163,239.989 73.584,238.087 75.011,239.989 "/>
 <line fill="none" stroke="#4c86b8" stroke-width="0.4" stroke-linejoin="round" x1="73.54" y1="347.56" x2="73.476" y2="235.455"/>
 <polygon fill="#4c86b8" points="73.584,350.786 72.163,342.284 73.584,344.19 75.011,342.284 "/>
 <polygon fill="#4c86b8" points="73.584,350.721 72.163,359.224 73.584,357.317 75.011,359.224 "/>
 <line fill="none" stroke="#4c86b8" stroke-width="0.4" stroke-linejoin="round" x1="73.54" y1="410.682" x2="73.476" y2="354.685"/>
 <polygon fill="#4c86b8" points="73.584,413.906 72.163,405.407 73.584,407.313 75.011,405.407 "/>
 <line fill="none" stroke="#4c86b8" stroke-width="0.4" stroke-linejoin="round" x1="96.083" y1="138.872" x2="196.497" y2="131.388"/>
 <line fill="none" stroke="#4c86b8" stroke-width="0.369" stroke-linejoin="round" x1="201.287" y1="200.169" x2="201.287" y2="129.23"/>
 <polygon fill="#4c86b8" points="410.241,169.279 408.821,177.778 410.241,175.87 411.667,177.778 "/>
 <polygon fill="#4c86b8" points="410.385,379.428 411.81,370.935 410.385,372.842 408.962,370.935 "/>
 <line fill="none" stroke="#4c86b8" stroke-width="0.4" stroke-linejoin="round" x1="410.409" y1="375.067" x2="410.343" y2="173.796"/>
 <line fill="none" stroke="#4c86b8" stroke-width="0.3706" stroke-linejoin="round" x1="414.023" y1="168.455" x2="376.809" y2="171.409"/>
 <g>
  <path fill="#4c86b8" d="M419.272,298.29v-0.265c0-1.06-0.619-1.981-1.578-2.107v-0.833h8.834v1.186h-6.639v2.02H419.272z"/>
  <path fill="#4c86b8" d="M422.11,292.045c-4.529,0-4.682-2.436-4.682-3.092s0.152-3.092,4.682-3.092
		c4.531,0,4.682,2.436,4.682,3.092S426.641,292.045,422.11,292.045z M422.11,287.036c-2.006,0-3.684,0.492-3.684,1.918
		s1.678,1.918,3.684,1.918c2.008,0,3.686-0.492,3.686-1.918S424.118,287.036,422.11,287.036z"/>
  <path fill="#4c86b8" d="M422.11,284.729c-4.529,0-4.682-2.436-4.682-3.092s0.152-3.092,4.682-3.092
		c4.531,0,4.682,2.436,4.682,3.092S426.641,284.729,422.11,284.729z M422.11,279.719c-2.006,0-3.684,0.492-3.684,1.918
		s1.678,1.918,3.684,1.918c2.008,0,3.686-0.492,3.686-1.918S424.118,279.719,422.11,279.719z"/>
  <path fill="#4c86b8" d="M422.11,277.412c-4.529,0-4.682-2.436-4.682-3.092s0.152-3.091,4.682-3.091
		c4.531,0,4.682,2.435,4.682,3.091S426.641,277.412,422.11,277.412z M422.11,272.402c-2.006,0-3.684,0.492-3.684,1.918
		c0,1.426,1.678,1.919,3.684,1.919c2.008,0,3.686-0.493,3.686-1.919C425.795,272.894,424.118,272.402,422.11,272.402z"/>
 </g>
 <g>
  <path fill="#4c86b8" d="M362.555,419.94l6.419-0.613l0.077,0.804c-1.045,1.406-1.599,2.637-2.061,4.177
		c-0.422,1.423-0.557,2.538-0.581,4.138l-1.256,0.12c0.042-1.285,0.211-2.568,0.679-4.045c0.408-1.295,1.123-2.833,2.081-4.091
		l-5.264,0.503L362.555,419.94z"/>
  <path fill="#4c86b8" d="M370.397,423.626c-0.431-4.51,1.979-4.892,2.633-4.954s3.092-0.144,3.522,4.366s-1.979,4.892-2.633,4.954
		S370.828,428.136,370.397,423.626z M375.384,423.151c-0.19-1.997-0.841-3.621-2.26-3.486c-1.42,0.136-1.75,1.854-1.56,3.851
		c0.191,1.998,0.841,3.622,2.261,3.486C375.245,426.866,375.576,425.149,375.384,423.151z"/>
  <path fill="#4c86b8" d="M377.681,422.931c-0.431-4.51,1.979-4.892,2.632-4.954c0.653-0.063,3.093-0.144,3.523,4.366
		s-1.979,4.892-2.633,4.954S378.112,427.441,377.681,422.931z M382.668,422.455c-0.191-1.997-0.841-3.621-2.261-3.485
		c-1.419,0.136-1.75,1.854-1.559,3.851c0.19,1.998,0.84,3.622,2.26,3.486S382.859,424.453,382.668,422.455z"/>
 </g>
 <g>
  <path fill="#4c86b8" d="M210.686,446.626l0.264-0.025c1.055-0.101,1.914-0.804,1.947-1.77l0.83-0.079l0.84,8.793l-1.181,0.112
		l-0.631-6.608l-2.011,0.192L210.686,446.626z"/>
  <path fill="#4c86b8" d="M217.121,451.248l-0.095-0.992l3.583-6.161l1.192-0.113l0.551,5.766l1.383-0.132l0.095,0.992l-1.383,0.132
		l0.194,2.035l-1.181,0.112l-0.194-2.035L217.121,451.248z M221.171,449.859l-0.403-4.222l-2.611,4.51L221.171,449.859z"/>
  <path fill="#4c86b8" d="M224.456,448.163c-0.431-4.51,1.979-4.892,2.633-4.954s3.092-0.144,3.522,4.366s-1.979,4.892-2.633,4.954
		C227.326,452.591,224.886,452.672,224.456,448.163z M229.443,447.686c-0.191-1.996-0.84-3.621-2.26-3.485s-1.75,1.854-1.56,3.851
		c0.191,1.998,0.841,3.622,2.261,3.486C229.303,451.402,229.633,449.684,229.443,447.686z"/>
  <path fill="#4c86b8" d="M232.538,444.539l0.263-0.024c1.056-0.102,1.914-0.804,1.948-1.77l0.829-0.08l0.84,8.793l-1.181,0.113
		l-0.631-6.608l-2.01,0.191L232.538,444.539z"/>
 </g>
 <g>
  <path fill="#4c86b8" d="M69.669,389.936v5.981c-2.133,0.013-2.94-1.274-4.025-2.99c-0.467-0.732-1.035-1.805-2.385-1.805
		c-1.098,0-1.691,0.72-1.691,1.779c0,1.123,0.707,1.83,1.754,1.83h0.328v1.161h-0.265c-0.795,0-2.814-0.341-2.814-3.029
		c0-1.804,0.984-2.952,2.675-2.952c1.653,0,2.183,0.782,3.495,2.839c0.757,1.199,1.287,1.691,1.931,1.855v-4.67H69.669z"/>
  <path fill="#4c86b8" d="M62.943,388.311c-0.921,0-2.372-0.518-2.372-2.649c0-2.133,1.451-2.65,2.372-2.65
		c0.846,0,1.653,0.467,1.943,1.274c0.265-1.01,1.262-1.603,2.284-1.603c1.514,0,2.764,0.934,2.764,2.979
		c0,2.044-1.25,2.978-2.764,2.978c-1.022,0-2.019-0.593-2.284-1.603C64.597,387.844,63.789,388.311,62.943,388.311z M62.981,384.096
		c-0.455,0-1.464,0.189-1.464,1.565c0,1.375,1.009,1.564,1.464,1.564c0.795,0,1.489-0.429,1.489-1.564
		S63.776,384.096,62.981,384.096z M67.108,383.819c-0.732,0-1.729,0.379-1.729,1.843s0.997,1.842,1.729,1.842
		c1.325,0,1.88-0.984,1.88-1.842C68.988,384.803,68.433,383.819,67.108,383.819z"/>
  <path fill="#4c86b8" d="M62.943,380.994c-0.921,0-2.372-0.518-2.372-2.649c0-2.133,1.451-2.65,2.372-2.65
		c0.846,0,1.653,0.467,1.943,1.274c0.265-1.01,1.262-1.603,2.284-1.603c1.514,0,2.764,0.934,2.764,2.979
		c0,2.044-1.25,2.978-2.764,2.978c-1.022,0-2.019-0.593-2.284-1.603C64.597,380.527,63.789,380.994,62.943,380.994z M62.981,376.779
		c-0.455,0-1.464,0.189-1.464,1.565c0,1.375,1.009,1.564,1.464,1.564c0.795,0,1.489-0.429,1.489-1.564
		S63.776,376.779,62.981,376.779z M67.108,376.501c-0.732,0-1.729,0.379-1.729,1.843s0.997,1.842,1.729,1.842
		c1.325,0,1.88-0.984,1.88-1.842C68.988,377.486,68.433,376.501,67.108,376.501z"/>
 </g>
 <g>
  <path fill="#4c86b8" d="M67.411,301.849c0.581-0.076,1.577-0.454,1.577-1.817c0-0.594-0.113-2.057-2.183-2.057
		c-1.564,0-2.082,0.984-2.082,1.943c0,0.58,0.265,1.426,0.77,1.729v1.11l-4.657-0.618v-4.77h0.997v3.898l2.612,0.354
		c-0.479-0.555-0.669-1.186-0.669-1.994c0-1.627,1.136-2.764,3.016-2.764c1.767,0,3.142,0.973,3.142,3.168
		c0,2.284-1.527,2.877-2.524,2.979V301.849z"/>
  <path fill="#4c86b8" d="M62.779,290.708c-1.249,0.29-1.262,1.337-1.262,1.69c0,1.843,1.88,2.158,3.268,2.146v-0.024
		c-0.681-0.518-0.934-1.352-0.934-2.158c0-1.615,1.085-2.84,2.965-2.84c1.83,0,3.117,1.111,3.117,3.029
		c0,1.943-1.022,3.167-4.568,3.167c-4.719,0-4.795-2.55-4.795-3.331c0-0.492,0.063-2.36,2.208-2.738V290.708z M68.988,292.5
		c0-1.3-1.072-1.842-2.183-1.842c-1.085,0-2.006,0.617-2.006,1.867c0,1.236,0.833,1.943,2.044,1.943
		C67.94,294.469,68.988,293.85,68.988,292.5z"/>
  <path fill="#4c86b8" d="M60.836,288.528v-6.449h0.808c1.3,1.174,2.474,1.843,3.962,2.449c1.375,0.555,2.474,0.795,4.063,0.971
		v1.262c-1.274-0.164-2.537-0.453-3.962-1.06c-1.249-0.53-2.713-1.388-3.874-2.46v5.287H60.836z"/>
 </g>
 <g>
  <path fill="#4c86b8" d="M35.721,325.606v-0.265c0-1.061-0.619-1.981-1.578-2.107v-0.833h8.833v1.187h-6.638v2.019H35.721z"/>
  <path fill="#4c86b8" d="M38.561,319.363c-4.53,0-4.682-2.437-4.682-3.093s0.151-3.091,4.682-3.091s4.682,2.435,4.682,3.091
		S43.091,319.363,38.561,319.363z M38.561,314.352c-2.006,0-3.685,0.492-3.685,1.918c0,1.427,1.679,1.919,3.685,1.919
		s3.685-0.492,3.685-1.919C42.245,314.844,40.567,314.352,38.561,314.352z"/>
  <path fill="#4c86b8" d="M40.718,310.872c0.581-0.076,1.577-0.455,1.577-1.817c0-0.593-0.113-2.057-2.183-2.057
		c-1.564,0-2.082,0.983-2.082,1.942c0,0.581,0.265,1.427,0.77,1.729v1.11l-4.657-0.618v-4.771h0.997v3.9l2.612,0.353
		c-0.479-0.556-0.669-1.187-0.669-1.993c0-1.629,1.136-2.764,3.016-2.764c1.767,0,3.142,0.971,3.142,3.167
		c0,2.284-1.527,2.877-2.524,2.978V310.872z"/>
  <path fill="#4c86b8" d="M35.721,303.655v-0.264c0-1.061-0.619-1.982-1.578-2.107v-0.834h8.833v1.187h-6.638v2.019H35.721z"/>
 </g>
 <g>
  <path fill="#4c86b8" d="M124.657,131.29c0.125,0.572,0.586,1.533,1.944,1.418c0.591-0.05,2.04-0.286,1.865-2.348
		c-0.132-1.56-1.156-1.991-2.111-1.911c-0.579,0.049-1.399,0.384-1.658,0.913l-1.106,0.094l0.223-4.692l4.753-0.402l0.084,0.993
		l-3.886,0.329l-0.131,2.632c0.513-0.524,1.125-0.767,1.93-0.835c1.622-0.137,2.85,0.899,3.008,2.773
		c0.149,1.761-0.703,3.213-2.892,3.398c-2.275,0.192-2.995-1.279-3.18-2.264L124.657,131.29z"/>
  <path fill="#4c86b8" d="M131.426,125.702l0.264-0.022c1.056-0.089,1.922-0.783,1.967-1.749l0.83-0.07l0.745,8.802l-1.182,0.1
		l-0.56-6.614l-2.012,0.17L131.426,125.702z"/>
  <path fill="#4c86b8" d="M139.265,130.37c0.395,1.22,1.439,1.144,1.792,1.114c1.836-0.155,1.992-2.055,1.862-3.438l-0.025,0.002
		c-0.458,0.723-1.267,1.045-2.071,1.114c-1.61,0.136-2.921-0.843-3.08-2.716c-0.154-1.824,0.844-3.2,2.755-3.362
		c1.509-0.128,3.202,0.274,3.541,4.285c0.354,4.188-1.544,4.943-2.915,5.059c-0.49,0.042-2.356,0.137-2.915-1.969L139.265,130.37z
		 M140.527,124.032c-1.295,0.109-1.746,1.226-1.652,2.331c0.092,1.082,0.785,1.948,2.03,1.842c1.232-0.104,1.866-0.994,1.764-2.201
		C142.577,124.911,141.873,123.917,140.527,124.032z"/>
 </g>
 <g>
  <path fill="#4c86b8" d="M210.07,118.349l0.211,0.159c0.847,0.64,1.954,0.701,2.632,0.012l0.665,0.502l-5.323,7.048l-0.947-0.715
		l4-5.297l-1.61-1.216L210.07,118.349z"/>
  <path fill="#4c86b8" d="M212.977,126.807c-0.289,0.509-0.589,1.532,0.499,2.354c0.473,0.357,1.71,1.148,2.957-0.503
		c0.943-1.249,0.47-2.254-0.296-2.833c-0.463-0.35-1.298-0.647-1.843-0.428l-0.886-0.669l3.299-3.343l3.806,2.875l-0.601,0.795
		l-3.111-2.35l-1.855,1.871c0.731-0.048,1.349,0.181,1.993,0.668c1.299,0.981,1.521,2.572,0.389,4.072
		c-1.065,1.41-2.67,1.921-4.422,0.599c-1.823-1.377-1.375-2.953-0.855-3.81L212.977,126.807z"/>
  <path fill="#4c86b8" d="M220.924,127.211c0.555-0.735,1.843-1.581,3.544-0.296c1.702,1.285,1.24,2.755,0.686,3.49
		c-0.51,0.674-1.369,1.038-2.189,0.782c0.647,0.821,0.52,1.973-0.097,2.789c-0.913,1.208-2.411,1.643-4.043,0.411
		c-1.631-1.232-1.623-2.792-0.71-4c0.616-0.815,1.689-1.254,2.656-0.856C220.301,128.812,220.415,127.886,220.924,127.211z
		 M222,133.242c0.441-0.584,0.739-1.607-0.429-2.49s-2.07-0.314-2.512,0.27c-0.799,1.057-0.349,2.094,0.336,2.61
		C220.081,134.149,221.201,134.299,222,133.242z M224.265,129.782c0.273-0.362,0.73-1.282-0.367-2.111
		c-1.097-0.829-1.856-0.137-2.131,0.226c-0.479,0.634-0.555,1.446,0.352,2.131S223.786,130.417,224.265,129.782z"/>
  <path fill="#4c86b8" d="M225.018,133.197c2.73-3.615,4.765-2.267,5.289-1.872c0.523,0.396,2.376,1.984-0.354,5.599
		c-2.73,3.615-4.766,2.268-5.289,1.872C224.139,138.401,222.288,136.812,225.018,133.197z M229.016,136.216
		c1.209-1.601,1.828-3.236,0.69-4.096c-1.139-0.859-2.543,0.183-3.752,1.784c-1.21,1.601-1.828,3.237-0.689,4.096
		C226.403,138.861,227.806,137.818,229.016,136.216z"/>
 </g>
 <line fill="none" stroke="#4c86b8" stroke-width="0.4" stroke-linejoin="round" x1="277.365" y1="180.368" x2="167.621" y2="102.369"/>
</svg>
