<?xml version="1.0" encoding="utf-8"?>
<!-- Generator: Adobe Illustrator 23.0.3, SVG Export Plug-In . SVG Version: 6.00 Build 0)  -->
<svg version="1.1" id="Слой_1" xmlns="http://www.w3.org/2000/svg" xmlns:xlink="http://www.w3.org/1999/xlink" x="0px" y="0px"
	 viewBox="0 0 500 600" style="enable-background:new 0 0 500 600;" xml:space="preserve">
<style type="text/css">
	.st0{fill:none;stroke:#4C86B9;stroke-width:0.75;}
	.st1{fill:none;stroke:#4C86B9;stroke-width:0.4;}
	.st2{fill:none;stroke:#4C86B9;stroke-width:0.4;stroke-dasharray:1.0081,4.0326;}
	.st3{fill:none;stroke:#4C86B9;stroke-width:0.4;stroke-dasharray:18.1466,4.0326,1.0081,4.0326;}
	.st4{fill:none;stroke:#4C86B9;stroke-width:0.4;stroke-dasharray:1.1082,4.4328;}
	.st5{fill:none;stroke:#4C86B9;stroke-width:0.4;stroke-dasharray:19.9476,4.4328,1.1082,4.4328;}
	.st6{fill:none;stroke:#4C86B9;stroke-width:0.4;stroke-dasharray:0.9434,3.7738;}
	.st7{fill:none;stroke:#4C86B9;stroke-width:0.4;stroke-dasharray:16.9819,3.7738,0.9434,3.7738;}
	.st8{fill:#4C86B9;}
	.st9{fill:none;stroke:#4C86B9;stroke-width:0.75;stroke-miterlimit:10;}
</style>
<line class="st0" x1="174.1" y1="157.8" x2="329.2" y2="120.4"/>
<line class="st0" x1="216.8" y1="191.5" x2="367.1" y2="151.2"/>
<line class="st0" x1="215.7" y1="205.4" x2="367.1" y2="163.4"/>
<line class="st0" x1="192.4" y1="238.5" x2="248.3" y2="222.5"/>
<line class="st0" x1="312.5" y1="204.5" x2="325.4" y2="200.6"/>
<line class="st0" x1="191.8" y1="235.9" x2="191.8" y2="335.5"/>
<line class="st0" x1="191.8" y1="361.2" x2="191.8" y2="492.8"/>
<line class="st0" x1="295.8" y1="228.2" x2="295.8" y2="451.1"/>
<line class="st0" x1="308.7" y1="214.8" x2="308.7" y2="225.7"/>
<line class="st0" x1="325.4" y1="201.3" x2="325.4" y2="209.6"/>
<line class="st0" x1="308.7" y1="241.1" x2="308.7" y2="456.2"/>
<line class="st0" x1="325.4" y1="221.8" x2="325.4" y2="241.7"/>
<line class="st0" x1="325.4" y1="259.1" x2="325.4" y2="451.1"/>
<line class="st0" x1="176.4" y1="497.3" x2="325.4" y2="451.1"/>
<line class="st0" x1="191.8" y1="483.8" x2="295.8" y2="451.1"/>
<line class="st0" x1="207.2" y1="518.5" x2="356.2" y2="469.7"/>
<line class="st0" x1="207.8" y1="523.6" x2="356.8" y2="474.8"/>
<line class="st0" x1="175.7" y1="239.2" x2="175.7" y2="497.5"/>
<line class="st0" x1="161.6" y1="189.7" x2="161.6" y2="506.3"/>
<line class="st0" x1="211.1" y1="176.9" x2="360.7" y2="139"/>
<line class="st0" x1="202.1" y1="168.5" x2="354.3" y2="130.6"/>
<line class="st0" x1="161.6" y1="506.3" x2="207.8" y2="523.6"/>
<line class="st0" x1="176.4" y1="497.3" x2="207.2" y2="518.5"/>
<line class="st0" x1="207.2" y1="518.5" x2="207.2" y2="523.8"/>
<line class="st0" x1="325.4" y1="451.1" x2="356.2" y2="469.7"/>
<line class="st0" x1="356.2" y1="469.7" x2="356.2" y2="474.8"/>
<line class="st0" x1="295.8" y1="451.1" x2="308.7" y2="456.2"/>
<line class="st0" x1="176.1" y1="239.8" x2="191.8" y2="235.9"/>
<line class="st0" x1="175.7" y1="239.2" x2="215.9" y2="205"/>
<line class="st0" x1="173" y1="170.8" x2="168.5" y2="204"/>
<line class="st0" x1="189.4" y1="177.2" x2="184.6" y2="210.9"/>
<line class="st0" x1="173.5" y1="170.3" x2="189.4" y2="176.7"/>
<line class="st0" x1="184.6" y1="210.4" x2="190" y2="216.8"/>
<line class="st0" x1="168.5" y1="204" x2="172.7" y2="210.6"/>
<line class="st0" x1="172.7" y1="210.6" x2="190" y2="216.8"/>
<line class="st0" x1="190" y1="216.8" x2="194.7" y2="215.9"/>
<line class="st0" x1="194.7" y1="215.9" x2="199.2" y2="216.8"/>
<line class="st0" x1="199.2" y1="216.8" x2="213.3" y2="204.8"/>
<line class="st0" x1="189.2" y1="177.7" x2="189.2" y2="210.1"/>
<line class="st0" x1="189.2" y1="209.6" x2="194.7" y2="215.9"/>
<line class="st0" x1="168.5" y1="199.8" x2="159" y2="185.1"/>
<line class="st0" x1="174.5" y1="160.1" x2="199.2" y2="170"/>
<line class="st0" x1="175.9" y1="158.2" x2="201.9" y2="168.8"/>
<line class="st0" x1="214.1" y1="192.1" x2="213.3" y2="204.8"/>
<line class="st0" x1="216.8" y1="191.5" x2="215.7" y2="205.4"/>
<line class="st0" x1="213.8" y1="190.2" x2="206.9" y2="178.1"/>
<line class="st0" x1="216.8" y1="191.5" x2="209.3" y2="177.5"/>
<line class="st0" x1="217.2" y1="190.9" x2="210.4" y2="177"/>
<line class="st0" x1="166.1" y1="161.8" x2="159" y2="169.3"/>
<line class="st0" x1="178.5" y1="174.8" x2="177.5" y2="181.4"/>
<line class="st0" x1="177.3" y1="182.6" x2="176.2" y2="190.7"/>
<line class="st0" x1="176.1" y1="191.8" x2="175.1" y2="198.2"/>
<line class="st0" x1="183.4" y1="176.5" x2="182.5" y2="183.1"/>
<line class="st0" x1="182" y1="185.9" x2="181" y2="192"/>
<line class="st0" x1="180.9" y1="194" x2="179.9" y2="200"/>
<line class="st0" x1="178.5" y1="174.8" x2="183.4" y2="176.5"/>
<line class="st0" x1="177.3" y1="182.2" x2="182.3" y2="183.9"/>
<line class="st0" x1="177.3" y1="183.8" x2="182.3" y2="185.5"/>
<line class="st0" x1="176.2" y1="190.7" x2="181.2" y2="192.4"/>
<line class="st0" x1="175.7" y1="192.1" x2="180.7" y2="193.9"/>
<line class="st0" x1="174.9" y1="198.9" x2="179.9" y2="200.6"/>
<line class="st0" x1="169.3" y1="167.9" x2="193.9" y2="177.6"/>
<line class="st0" x1="168.8" y1="169.5" x2="193.4" y2="179"/>
<line class="st0" x1="169.2" y1="204.3" x2="184.6" y2="210.4"/>
<line class="st0" x1="169.8" y1="205.6" x2="185.2" y2="211.7"/>
<line class="st0" x1="189.2" y1="209.6" x2="192.4" y2="210.9"/>
<line class="st0" x1="192.4" y1="210.9" x2="203" y2="201.1"/>
<line class="st0" x1="193.6" y1="211.4" x2="203.7" y2="202.1"/>
<line class="st0" x1="203" y1="201.1" x2="203.2" y2="194.4"/>
<line class="st0" x1="203.2" y1="192.9" x2="197.9" y2="183.6"/>
<line class="st0" x1="204.5" y1="192.4" x2="198.9" y2="182.6"/>
<line class="st0" x1="204.3" y1="200.9" x2="204.5" y2="194.2"/>
<line class="st0" x1="204.5" y1="192.4" x2="214.3" y2="190.5"/>
<line class="st0" x1="204.6" y1="194" x2="214.4" y2="192.1"/>
<line class="st0" x1="204.3" y1="200.9" x2="212.8" y2="204.2"/>
<line class="st0" x1="203.7" y1="202.1" x2="212.2" y2="205.3"/>
<line class="st0" x1="203.2" y1="192.9" x2="203.2" y2="194.1"/>
<line class="st0" x1="203.2" y1="192.9" x2="204.2" y2="192.4"/>
<line class="st0" x1="203.2" y1="194.4" x2="204.9" y2="194.1"/>
<line class="st0" x1="204.5" y1="192.2" x2="204.6" y2="194"/>
<line class="st0" x1="213.3" y1="189.2" x2="213.9" y2="190.4"/>
<line class="st0" x1="213.9" y1="190.4" x2="214.1" y2="192.1"/>
<line class="st0" x1="213.9" y1="190.4" x2="215.7" y2="189.6"/>
<line class="st0" x1="213.9" y1="192" x2="216.1" y2="192"/>
<line class="st0" x1="213.2" y1="204.5" x2="216" y2="205.3"/>
<line class="st0" x1="212.7" y1="205.2" x2="214.3" y2="206"/>
<line class="st0" x1="198.7" y1="216.8" x2="200.5" y2="217.5"/>
<line class="st0" x1="192.8" y1="211.1" x2="198.9" y2="216.1"/>
<line class="st0" x1="191.7" y1="211.3" x2="197.1" y2="215.8"/>
<line class="st0" x1="197.9" y1="183.6" x2="206.8" y2="178.5"/>
<line class="st0" x1="207.4" y1="178.1" x2="209.7" y2="177.7"/>
<line class="st0" x1="193.5" y1="179.2" x2="193.9" y2="177.6"/>
<line class="st0" x1="193.9" y1="177.6" x2="199.2" y2="170"/>
<line class="st0" x1="158.8" y1="183" x2="158.6" y2="176.5"/>
<line class="st0" x1="159" y1="169.3" x2="158.7" y2="174.1"/>
<line class="st0" x1="163.9" y1="168.9" x2="165.9" y2="162.6"/>
<line class="st0" x1="168.6" y1="169.3" x2="174.4" y2="160.3"/>
<line class="st0" x1="163.9" y1="169.2" x2="159.1" y2="174.2"/>
<line class="st0" x1="164.3" y1="170.4" x2="159.2" y2="176"/>
<path class="st0" d="M159.4,185.6c-0.6-1-0.6-1.5-0.5-3.1"/>
<path class="st0" d="M158.7,177c0-2,0-3.6,0-3.6"/>
<path class="st0" d="M165.7,162.1c1.9-1.3,5.2-2.8,9.2-1.9"/>
<path class="st0" d="M166.1,161.8c2.5-2.2,7.6-4.6,10-3.5"/>
<path class="st0" d="M207.1,178.7c-2.1-4.7-4.4-7.3-8.4-8.8"/>
<path class="st0" d="M210.5,177.3c-2-4.9-5.5-7.1-9.6-8.9"/>
<path class="st0" d="M209.5,178c-2.2-4.4-4.7-6.8-9.9-9.1"/>
<line class="st0" x1="200" y1="169.2" x2="173.4" y2="158.4"/>
<path class="st0" d="M199.1,182.9c-1.8-3.2-3.1-4.3-5.2-5.3"/>
<path class="st0" d="M198.1,184c-1.8-3.2-3.1-4.3-5.2-5.3"/>
<path class="st0" d="M163.9,169.2c1.2-1.4,3.6-1.8,5.1-1.4"/>
<path class="st0" d="M163.8,170.8c1.2-1.4,3.6-1.8,5.1-1.4"/>
<line class="st0" x1="164.3" y1="170.4" x2="164.2" y2="169"/>
<line class="st0" x1="182.9" y1="166.7" x2="181.4" y2="168.9"/>
<line class="st0" x1="182.6" y1="168.2" x2="181.8" y2="169.4"/>
<line class="st0" x1="181.4" y1="167.8" x2="180.7" y2="168.9"/>
<line class="st0" x1="181.6" y1="167.8" x2="181.2" y2="166.9"/>
<line class="st0" x1="182.6" y1="168.2" x2="183.4" y2="167.7"/>
<line class="st0" x1="184.2" y1="167.8" x2="183.3" y2="169.6"/>
<line class="st0" x1="183.8" y1="168" x2="184.7" y2="168.1"/>
<line class="st0" x1="184.7" y1="168.1" x2="184.2" y2="169.2"/>
<line class="st0" x1="184.8" y1="168.8" x2="184.2" y2="170"/>
<line class="st0" x1="184.8" y1="168.4" x2="185.5" y2="168.8"/>
<line class="st0" x1="184.2" y1="169.7" x2="184.7" y2="170"/>
<line class="st0" x1="185.5" y1="168.8" x2="184.9" y2="170.2"/>
<line class="st0" x1="185.8" y1="168.8" x2="186.2" y2="169.1"/>
<line class="st0" x1="186.2" y1="169.1" x2="185.4" y2="170.5"/>
<line class="st0" x1="186.8" y1="169.1" x2="185.9" y2="170.4"/>
<line class="st0" x1="187.1" y1="169.5" x2="187.5" y2="169.6"/>
<line class="st0" x1="185.9" y1="170.4" x2="186.8" y2="171"/>
<line class="st0" x1="187.5" y1="169.9" x2="187.3" y2="171.1"/>
<line class="st0" x1="187.3" y1="170.4" x2="186.8" y2="171"/>
<line class="st0" x1="187.1" y1="169.5" x2="186.5" y2="170.6"/>
<line class="st0" x1="202.9" y1="200.7" x2="204.4" y2="200.7"/>
<line class="st0" x1="203" y1="201.1" x2="203.4" y2="202"/>
<line class="st0" x1="204.3" y1="200.9" x2="204.2" y2="201.9"/>
<path class="st0" d="M223.3,224.8c0.5,1,2.8,0.8,5-0.2c2.1-1,4-2.9,3.5-3.9c-0.5-1-3.1-0.8-5.2,0.2
	C224.4,222,222.8,223.8,223.3,224.8z"/>
<path class="st0" d="M225,223.8c0.2,0.5,1,0.5,2.6-0.2c1.7-0.8,2.5-1.5,2.3-1.9c-0.2-0.5-1-0.4-2.7,0.4
	C225.6,222.8,224.8,223.4,225,223.8z"/>
<line class="st0" x1="227.4" y1="221.6" x2="227.4" y2="223.3"/>
<path class="st0" d="M296.4,191c-4.3-5.4-47.9,13.4-46.4,21.2"/>
<path class="st0" d="M296.8,193.7c-4.3-5.4-46.2,12.9-44.7,20.8"/>
<path class="st0" d="M296.5,190.7c0,1.1,0.6,3,0.7,3"/>
<path class="st0" d="M252,214.4c0-1.2-1.2-2.7-2.4-2.7"/>
<path class="st0" d="M297,193.4c0,2.2-0.4,4.3-0.5,4.3"/>
<path class="st0" d="M263.9,220.6c-2.8-3.9,16.6-13.8,23.2-14.1"/>
<path class="st0" d="M263.9,220.6c6,2.5,25.2-7.2,28.1-12.1"/>
<path class="st0" d="M288.3,207.3c-4.8,0.2-22.9,9.2-22.8,12.2"/>
<path class="st0" d="M265.5,219.5c3.3,2.5,21.2-6.6,25.3-11.2"/>
<ellipse transform="matrix(0.9064 -0.4224 0.4224 0.9064 -64.1693 137.5769)" class="st0" cx="278.4" cy="213.6" rx="1.6" ry="0.5"/>
<path class="st0" d="M295.3,179.3c-0.5,1.8-1.8,3.5-3.3,3.1c-1.6-0.4-2.4-2.2-2-4.1c0.5-1.8,2.2-3,3.7-2.5
	C295.3,176.2,295.8,177.5,295.3,179.3z"/>
<ellipse transform="matrix(0.2591 -0.9658 0.9658 0.2591 43.643 414.449)" class="st0" cx="292" cy="178.8" rx="4.6" ry="3.4"/>
<path class="st0" d="M291.2,179c0.6-1.4,1.5-1.4,2.4-0.6"/>
<path class="st0" d="M291.1,179.2c0.9,1.2,2,1.1,2.5-0.2"/>
<line class="st0" x1="293.3" y1="178.6" x2="294.1" y2="178.4"/>
<line class="st0" x1="291.4" y1="179.2" x2="290.7" y2="179.2"/>
<path class="st0" d="M263.1,220.3c-1.4-3.6-5.1-7.1-10.9-6.2"/>
<path class="st0" d="M283.6,205.4c-4.2-5.5,1.5-10.4,4-10.9"/>
<line class="st0" x1="325.1" y1="200.8" x2="367.1" y2="163.4"/>
<line class="st0" x1="366.7" y1="163.7" x2="367.1" y2="151.6"/>
<line class="st0" x1="329.2" y1="120.4" x2="354.3" y2="130.6"/>
<path class="st0" d="M354.3,130.6c5.1,3,8.1,8.5,12.8,20.5"/>
<path class="st0" d="M366.7,163.7c2.4-0.2,3.4-9,3.2-13.2"/>
<path class="st0" d="M369.9,150.5c-2.4-7.5-7.1-16.6-14.8-21"/>
<line class="st0" x1="367.1" y1="151.2" x2="369.1" y2="150.7"/>
<line class="st0" x1="369.1" y1="150.7" x2="367.5" y2="151.9"/>
<line class="st0" x1="361.5" y1="138.8" x2="363.2" y2="137.5"/>
<line class="st0" x1="361" y1="138.9" x2="363.6" y2="138.8"/>
<line class="st0" x1="355.5" y1="129.8" x2="332" y2="120.4"/>
<path class="st0" d="M333,120.9c0-0.2-3.2-1.6-4.3-0.6"/>
<line class="st0" x1="252.2" y1="214.1" x2="180.2" y2="358.3"/>
<line class="st0" x1="262.4" y1="219.9" x2="190.5" y2="364.1"/>
<line class="st0" x1="287.6" y1="194.5" x2="395.8" y2="236.7"/>
<line class="st0" x1="283.1" y1="205.1" x2="391.2" y2="247.3"/>
<line class="st0" x1="283" y1="215.7" x2="379.4" y2="313.1"/>
<line class="st0" x1="292.1" y1="208.5" x2="387.3" y2="304.7"/>
<path class="st0" d="M387.3,304.7c1.3,4.6-5.1,8.8-8,8.1"/>
<path class="st0" d="M389.7,240c-1.3,2.8-0.6,6.3,1.5,7.3c2.1,1,4.7-1.1,6-3.8c1.3-2.8,0.7-5.8-1.4-6.7
	C393.7,235.8,391,237.2,389.7,240z"/>
<path class="st0" d="M186.1,359.6c2.9,1.4,4.9,3.3,4.4,4.3c-0.5,1-3.2,0.7-6.1-0.6c-2.9-1.4-4.9-3.3-4.4-4.3
	C180.5,358,183.2,358.3,186.1,359.6z"/>
<ellipse transform="matrix(0.1736 -0.9848 0.9848 0.1736 -333.6823 601.0049)" class="st0" cx="191.3" cy="499.3" rx="2.5" ry="5.8"/>
<ellipse transform="matrix(0.1736 -0.9848 0.9848 0.1736 -330.4326 628.6364)" class="st0" cx="209.4" cy="511.2" rx="2.5" ry="5.8"/>
<ellipse transform="matrix(0.1735 -0.9848 0.9848 0.1735 -183.8992 697.043)" class="st0" cx="323.3" cy="458.1" rx="2.5" ry="5.8"/>
<ellipse transform="matrix(0.1736 -0.9848 0.9848 0.1736 -179.7711 722.9478)" class="st0" cx="340.9" cy="468.6" rx="2.5" ry="5.8"/>
<g>
	<line class="st1" x1="259.9" y1="211.9" x2="254.7" y2="222.2"/>
	<line class="st2" x1="252.3" y1="226.8" x2="250.6" y2="230.3"/>
	<line class="st3" x1="249.4" y1="232.6" x2="187.9" y2="355.3"/>
	<line class="st1" x1="186.7" y1="357.6" x2="181.5" y2="367.9"/>
</g>
<g>
	<line class="st1" x1="286.2" y1="209.9" x2="294.3" y2="218.2"/>
	<line class="st4" x1="298.3" y1="222.2" x2="301.3" y2="225.3"/>
	<line class="st5" x1="303.3" y1="227.3" x2="382.1" y2="307.5"/>
	<line class="st1" x1="384" y1="309.6" x2="392.1" y2="317.8"/>
</g>
<g>
	<line class="st1" x1="280.4" y1="198.1" x2="291.2" y2="202.3"/>
	<line class="st6" x1="295.7" y1="204" x2="299.1" y2="205.4"/>
	<line class="st7" x1="301.3" y1="206.2" x2="390.5" y2="241.1"/>
	<line class="st1" x1="392.7" y1="242" x2="403.5" y2="246.2"/>
</g>
<line class="st1" x1="175.7" y1="93.8" x2="175.7" y2="207.7"/>
<line class="st1" x1="356.8" y1="58.7" x2="356.8" y2="130.2"/>
<line class="st1" x1="293" y1="151.6" x2="293" y2="183.3"/>
<line class="st1" x1="393.6" y1="152" x2="393.6" y2="242.8"/>
<line class="st1" x1="293" y1="162.3" x2="393.2" y2="197.9"/>
<line class="st1" x1="230.5" y1="99" x2="230.5" y2="144.8"/>
<line class="st1" x1="231" y1="109.7" x2="392.8" y2="164"/>
<line class="st1" x1="176.2" y1="105.2" x2="356.8" y2="67.3"/>
<line class="st1" x1="115.8" y1="172.2" x2="170" y2="158.9"/>
<line class="st1" x1="124.8" y1="517.6" x2="161.8" y2="505.9"/>
<line class="st1" x1="166.7" y1="537.8" x2="207.8" y2="524.1"/>
<line class="st1" x1="207.8" y1="523.8" x2="254.1" y2="541.2"/>
<line class="st1" x1="357.3" y1="475" x2="404.8" y2="490.7"/>
<line class="st1" x1="235.9" y1="534.2" x2="383.5" y2="483.8"/>
<line class="st1" x1="320" y1="510.8" x2="406.5" y2="544.6"/>
<line class="st1" x1="399.2" y1="244.9" x2="399.2" y2="541.2"/>
<line class="st1" x1="130.8" y1="169.2" x2="130.8" y2="515.5"/>
<line class="st1" x1="130.8" y1="515.5" x2="177" y2="533.9"/>
<g id="XMLID_1_">
	<g>
		<path class="st8" d="M130.8,168.6l1.4,9.6c-0.7-1.1-1.9-1.4-2.8-0.4l1.3-9.2L130.8,168.6z"/>
	</g>
</g>
<g id="XMLID_2_">
	<g>
		<path class="st8" d="M175.8,105.2l9.1-3.3c-0.9,0.9-0.9,2.1,0.2,2.8l-9.3,0.6L175.8,105.2z"/>
	</g>
</g>
<g id="XMLID_3_">
	<g>
		<path class="st8" d="M356.7,67.3l-9.1,3.3c0.9-0.9,0.9-2.1-0.2-2.8l9.3-0.6L356.7,67.3z"/>
	</g>
</g>
<g id="XMLID_4_">
	<g>
		<path class="st8" d="M230.6,109.5l9.5,2c-1.3,0.3-1.9,1.3-1.3,2.5l-8.2-4.4L230.6,109.5z"/>
	</g>
</g>
<g id="XMLID_5_">
	<g>
		<path class="st8" d="M393.3,164.3l-9.5-2c1.3-0.3,1.9-1.3,1.3-2.5l8.2,4.4L393.3,164.3z"/>
	</g>
</g>
<g id="XMLID_6_">
	<g>
		<path class="st8" d="M393.4,198l-9.5-2c1.3-0.3,1.9-1.3,1.3-2.5l8.2,4.4L393.4,198z"/>
	</g>
</g>
<g id="XMLID_7_">
	<g>
		<path class="st8" d="M293.6,162.4l9.5,2c-1.3,0.3-1.9,1.3-1.3,2.5l-8.2-4.4L293.6,162.4z"/>
	</g>
</g>
<g id="XMLID_8_">
	<g>
		<path class="st8" d="M399.2,541.5l-1.4-9.6c0.7,1.1,1.9,1.4,2.8,0.4l-1.3,9.2L399.2,541.5z"/>
	</g>
</g>
<g id="XMLID_9_">
	<g>
		<path class="st8" d="M399.2,244.8l1.4,9.6c-0.7-1.1-1.9-1.4-2.8-0.4l1.3-9.2L399.2,244.8z"/>
	</g>
</g>
<g id="XMLID_10_">
	<g>
		<path class="st8" d="M236,534.2l8.4-4.9c-0.8,1.1-0.6,2.2,0.7,2.8l-9,2.2L236,534.2z"/>
	</g>
</g>
<g id="XMLID_11_">
	<g>
		<path class="st8" d="M383.2,483.7l-8.6,4.6c0.8-1,0.6-2.2-0.6-2.8l9.1-1.9L383.2,483.7z"/>
	</g>
</g>
<g id="XMLID_12_">
	<g>
		<path class="st8" d="M130.8,515.4l-1.4-9.6c0.7,1.1,1.9,1.4,2.8,0.4l-1.3,9.2L130.8,515.4z"/>
	</g>
</g>
<g id="XMLID_13_">
	<g>
		<path class="st8" d="M131.1,515.6l9.4,2.5c-1.3,0.2-2,1.2-1.5,2.4l-8-4.8L131.1,515.6z"/>
	</g>
</g>
<g id="XMLID_14_">
	<g>
		<path class="st8" d="M177.4,534.1l-9.4-2.5c1.3-0.2,2-1.2,1.5-2.4l8,4.8L177.4,534.1z"/>
	</g>
</g>
<circle class="st9" cx="172.5" cy="197.4" r="0.7"/>
<g>
	<path class="st8" d="M222.3,80.2l-1.8,4.2c0.3-0.2,0.6-0.3,1-0.4c2.2-0.5,4,0.9,4.4,3c0.5,2.3-0.8,4.2-3,4.7
		c-2.6,0.6-4.3-1.3-4.7-3c-0.1-0.4-0.2-1.4,0.4-2.8l2.7-6.2L222.3,80.2z M224.7,87.3c-0.3-1.5-1.7-2.4-3.2-2.1
		c-1.5,0.3-2.4,1.7-2,3.2c0.3,1.5,1.6,2.5,3.2,2.2C224.2,90.2,225,88.8,224.7,87.3z"/>
	<path class="st8" d="M234.2,85.6l1.4-0.3l0.2,1.2l-1.4,0.3l0.5,2.1l-1.2,0.3l-0.5-2.1l-5.7,1.2l4.9-11.3L234.2,85.6z M233,85.9
		l-1.1-5l-2.5,5.8L233,85.9z"/>
	<path class="st8" d="M238.8,86.6c-1-0.9-1.7-2.3-2-3.9c-0.3-1.6-0.3-3.2,0.2-4.4c0.6-1.4,1.6-2.1,2.5-2.3c0.9-0.2,2.1,0,3.2,1.1
		c1,0.9,1.7,2.3,2,3.9c0.3,1.6,0.3,3.2-0.2,4.4c-0.6,1.4-1.6,2.1-2.5,2.3C241.1,87.9,239.9,87.7,238.8,86.6z M238.1,78.7
		c-0.4,1.1-0.3,2.4-0.1,3.6c0.3,1.2,0.7,2.4,1.6,3.3c0.8,0.8,1.6,1,2.2,0.9c0.6-0.1,1.3-0.6,1.7-1.7c0.4-1.1,0.3-2.4,0.1-3.6
		s-0.7-2.4-1.6-3.3c-0.8-0.8-1.6-1-2.2-0.9S238.5,77.7,238.1,78.7z"/>
</g>
<g>
	<path class="st8" d="M276.8,109.9l-3.7,2.7c0.3,0,0.7,0.1,1,0.2c2.1,0.7,3,2.8,2.3,4.8c-0.7,2.2-2.8,3.3-5,2.5
		c-2.6-0.9-3.1-3.3-2.5-5c0.1-0.4,0.5-1.3,1.7-2.2l5.4-4L276.8,109.9z M275.2,117.2c0.5-1.5-0.2-2.9-1.7-3.4
		c-1.5-0.5-2.9,0.3-3.4,1.7c-0.5,1.5,0.1,3,1.7,3.5C273.2,119.5,274.7,118.7,275.2,117.2z"/>
	<path class="st8" d="M285,121.1c-0.6,1.7-2.2,2.9-4.4,2.1c-2.2-0.7-2.8-2.6-2.2-4.4c0.4-1.2,1.3-2,2.5-2.1
		c-0.7-0.8-0.9-1.8-0.5-2.9c0.5-1.6,2.1-2.7,4-2c2,0.7,2.5,2.5,2,4.1c-0.3,1-1.1,1.7-2.1,2C285.2,118.7,285.4,119.9,285,121.1z
		 M283.8,120.7c0.4-1.2-0.2-2.4-1.4-2.8c-1.2-0.4-2.4,0.1-2.8,1.4c-0.4,1.3,0.1,2.4,1.4,2.9S283.4,121.9,283.8,120.7z M285.3,115.5
		c0.4-1.2-0.2-2.2-1.2-2.6c-1-0.3-2.1,0.1-2.5,1.3c-0.4,1.1,0.2,2.2,1.2,2.5C283.8,117.2,284.9,116.6,285.3,115.5z"/>
	<path class="st8" d="M289.5,116.8c0.2-0.6,0.6-1.1,1-1.4c1.1-0.9,2.3-0.7,3-0.4c2.1,0.7,2.6,2.5,2.1,4c-0.3,0.8-0.9,1.8-2.2,2
		c0.3,0.3,1.3,1.3,0.7,3.2c-0.7,2.1-2.6,2.8-4.5,2.2c-1.1-0.4-2.3-1.3-2.4-2.9c0-0.5,0-0.8,0.1-1.2l1.2,0.4c-0.1,0.4-0.1,0.9,0,1.2
		c0.2,0.6,0.7,1.2,1.4,1.4c1.2,0.4,2.5-0.3,2.9-1.5c0.2-0.6,0.3-1.6-0.5-2.2c-0.3-0.3-0.7-0.5-1.2-0.6l0.4-1.1
		c0.4,0.2,0.9,0.3,1.3,0.2c0.4-0.1,1.1-0.3,1.5-1.3c0.3-1,0.1-2.1-1.2-2.5c-0.4-0.1-1-0.2-1.6,0.2c-0.3,0.2-0.6,0.6-0.8,1
		L289.5,116.8z"/>
</g>
<g>
	<path class="st8" d="M363.7,180.9l1.3,0.4l-0.4,1.1l-1.3-0.5l-0.7,2.1l-1.2-0.4l0.7-2.1l-5.6-1.9l10-7.3L363.7,180.9z M362.5,180.5
		l1.6-4.9l-5.1,3.7L362.5,180.5z"/>
	<path class="st8" d="M373,184l1.3,0.4l-0.4,1.1l-1.3-0.4l-0.7,2.1l-1.2-0.4l0.7-2.1l-5.6-1.9l10-7.3L373,184z M371.8,183.6l1.6-4.9
		l-5.1,3.7L371.8,183.6z"/>
	<path class="st8" d="M378.2,180.1c0.2-0.6,0.6-1.1,1-1.4c1.1-0.9,2.3-0.7,3-0.4c2.1,0.7,2.6,2.5,2.1,4c-0.3,0.8-0.9,1.8-2.2,2
		c0.3,0.3,1.3,1.3,0.7,3.2c-0.7,2.1-2.6,2.8-4.5,2.2c-1.1-0.4-2.3-1.3-2.4-2.9c0-0.5,0-0.8,0.1-1.2l1.2,0.4c-0.1,0.4-0.1,0.9,0,1.2
		c0.2,0.6,0.7,1.2,1.4,1.4c1.2,0.4,2.5-0.3,2.9-1.5c0.2-0.6,0.3-1.6-0.5-2.2c-0.3-0.3-0.7-0.5-1.2-0.6l0.4-1.1
		c0.4,0.2,0.9,0.3,1.3,0.2c0.4-0.1,1.1-0.3,1.5-1.3c0.3-1,0.1-2.1-1.2-2.5c-0.4-0.1-1-0.2-1.6,0.2c-0.3,0.2-0.6,0.6-0.8,1
		L378.2,180.1z"/>
</g>
<g>
	<path class="st8" d="M148.2,519.5l5.7-3c0.4-0.2,1.5-0.8,1.9-1.1c0.8-0.5,1.1-1,1.2-1.4c0.5-1.2,0-2.4-1.3-3
		c-0.8-0.3-1.5-0.2-2.2,0.3c-0.3,0.2-0.6,0.6-0.9,1.1l-1.2-0.5c0.5-1.1,1.1-1.6,1.7-1.9c0.7-0.3,1.6-0.6,3-0.1
		c1.9,0.7,2.7,2.7,2,4.5c-0.3,0.7-0.8,1.3-1.8,2c-0.7,0.5-1.5,0.9-2.2,1.2l-3.2,1.7l4.5,1.8l-0.4,1.1L148.2,519.5z"/>
	<path class="st8" d="M158.9,522.1c-0.3-1.3-0.1-2.9,0.5-4.4c0.6-1.5,1.5-2.8,2.6-3.5c1.3-0.9,2.5-0.9,3.4-0.5
		c0.8,0.3,1.7,1.2,2.1,2.7c0.3,1.3,0.1,2.9-0.5,4.4c-0.6,1.5-1.5,2.8-2.6,3.5c-1.3,0.9-2.5,0.9-3.4,0.5
		C160.1,524.4,159.2,523.6,158.9,522.1z M162.7,515.2c-0.9,0.7-1.6,1.8-2.1,3c-0.5,1.1-0.7,2.4-0.5,3.6c0.2,1.1,0.8,1.7,1.4,1.9
		s1.4,0.2,2.3-0.5c0.9-0.7,1.6-1.8,2.1-3c0.5-1.1,0.7-2.4,0.5-3.6c-0.2-1.1-0.8-1.7-1.4-1.9C164.4,514.5,163.6,514.5,162.7,515.2z"
		/>
	<path class="st8" d="M168,525.7c-0.3-1.3-0.1-2.9,0.5-4.4c0.6-1.5,1.5-2.8,2.6-3.5c1.3-0.9,2.5-0.9,3.4-0.5
		c0.8,0.3,1.7,1.2,2.1,2.7c0.3,1.3,0.1,2.9-0.5,4.4c-0.6,1.5-1.5,2.8-2.6,3.5c-1.3,0.9-2.5,0.9-3.4,0.5
		C169.2,528,168.3,527.2,168,525.7z M171.7,518.8c-0.9,0.7-1.6,1.8-2.1,3c-0.5,1.1-0.7,2.4-0.5,3.6c0.2,1.1,0.8,1.7,1.4,1.9
		c0.5,0.2,1.4,0.2,2.3-0.5c0.9-0.7,1.6-1.8,2.1-3s0.7-2.4,0.5-3.6c-0.2-1.1-0.8-1.7-1.4-1.9S172.7,518.1,171.7,518.8z"/>
</g>
<g>
	<path class="st8" d="M302.8,498.3l-3.5,1.2l0.1,2.6c0.2-0.1,0.4-0.2,0.7-0.3c2.2-0.8,4.1,0.4,4.9,2.6c0.9,2.5-0.4,4.6-2.6,5.3
		c-0.9,0.3-1.8,0.3-2.7,0c-0.4-0.2-0.9-0.4-1.3-0.8l0.7-1c0.3,0.3,0.6,0.5,1,0.6c0.6,0.2,1.2,0.3,2,0c1.5-0.5,2.2-2.2,1.7-3.7
		c-0.6-1.6-2.1-2.3-3.6-1.8c-0.4,0.1-1.1,0.5-1.8,1.5l-0.3-5.8l4.3-1.5L302.8,498.3z"/>
	<path class="st8" d="M313.6,502l1.3-0.5l0.4,1.1l-1.3,0.5l0.7,2.1l-1.2,0.4l-0.7-2.1l-5.5,1.9l3.4-11.9L313.6,502z M312.4,502.4
		l-1.7-4.9l-1.7,6L312.4,502.4z"/>
	<path class="st8" d="M322.9,498.8l1.3-0.5l0.4,1.1l-1.3,0.5l0.7,2.1l-1.2,0.4l-0.7-2.1l-5.5,1.9l3.4-11.9L322.9,498.8z
		 M321.7,499.2l-1.7-4.9l-1.7,6L321.7,499.2z"/>
</g>
<g>
	<path class="st8" d="M114.9,344.4v1.9l-1.2-0.7v-2.5h11.6v1.3H114.9z"/>
	<path class="st8" d="M123.7,337.3c-1.1,0.8-2.6,1.2-4.3,1.2s-3.2-0.4-4.3-1.2c-1.3-0.9-1.7-2-1.7-2.9c0-0.9,0.5-2.1,1.7-2.9
		c1.1-0.8,2.6-1.2,4.3-1.2s3.2,0.4,4.3,1.2c1.3,0.9,1.7,2,1.7,2.9C125.5,335.2,125,336.4,123.7,337.3z M115.9,336.3
		c1,0.6,2.3,0.8,3.5,0.8s2.5-0.2,3.5-0.8c1-0.6,1.3-1.4,1.3-2s-0.3-1.4-1.3-2c-1-0.6-2.3-0.8-3.5-0.8s-2.5,0.2-3.5,0.8
		c-1,0.6-1.3,1.4-1.3,2S114.9,335.7,115.9,336.3z"/>
	<path class="st8" d="M121.9,322v-1.4h1.2v1.4h2.2v1.3h-2.2v5.9L113,322H121.9z M121.9,323.2h-5.1l5.1,3.6V323.2z"/>
	<path class="st8" d="M123.7,317.7c-1.1,0.8-2.6,1.2-4.3,1.2s-3.2-0.4-4.3-1.2c-1.3-0.9-1.7-2-1.7-2.9c0-0.9,0.5-2.1,1.7-2.9
		c1.1-0.8,2.6-1.2,4.3-1.2s3.2,0.4,4.3,1.2c1.3,0.9,1.7,2,1.7,2.9C125.5,315.7,125,316.9,123.7,317.7z M115.9,316.8
		c1,0.6,2.3,0.8,3.5,0.8s2.5-0.2,3.5-0.8c1-0.6,1.3-1.4,1.3-2c0-0.6-0.3-1.4-1.3-2c-1-0.6-2.3-0.8-3.5-0.8s-2.5,0.2-3.5,0.8
		c-1,0.6-1.3,1.4-1.3,2C114.6,315.4,114.9,316.2,115.9,316.8z"/>
</g>
<g>
	<path class="st8" d="M394.7,379.6L391,377c0.1,0.3,0.2,0.7,0.2,1c0,2.2-1.7,3.7-3.8,3.7c-2.3,0-4-1.6-4-3.9c0-2.7,2.1-4,4-4
		c0.4,0,1.5,0.1,2.7,0.9l5.5,3.9L394.7,379.6z M387.3,380.4c1.6,0,2.7-1.1,2.7-2.7s-1.2-2.7-2.7-2.7c-1.6,0-2.8,1.1-2.8,2.7
		C384.5,379.3,385.7,380.4,387.3,380.4z"/>
	<path class="st8" d="M393.6,370.9c-1.1,0.8-2.6,1.2-4.3,1.2c-1.7,0-3.2-0.4-4.3-1.2c-1.3-0.9-1.7-2-1.7-2.9c0-0.9,0.5-2.1,1.7-2.9
		c1.1-0.8,2.6-1.2,4.3-1.2c1.7,0,3.2,0.4,4.3,1.2c1.3,0.9,1.7,2,1.7,2.9C395.4,368.9,394.9,370.1,393.6,370.9z M385.8,370
		c1,0.6,2.3,0.8,3.5,0.8c1.2,0,2.5-0.2,3.5-0.8c1-0.6,1.3-1.4,1.3-2s-0.3-1.4-1.3-2c-1-0.6-2.3-0.8-3.5-0.8c-1.2,0-2.5,0.2-3.5,0.8
		c-1,0.6-1.3,1.4-1.3,2S384.8,369.4,385.8,370z"/>
	<path class="st8" d="M393.6,361.2c-1.1,0.8-2.6,1.2-4.3,1.2c-1.7,0-3.2-0.4-4.3-1.2c-1.3-0.9-1.7-2-1.7-2.9c0-0.9,0.5-2.1,1.7-2.9
		c1.1-0.8,2.6-1.2,4.3-1.2c1.7,0,3.2,0.4,4.3,1.2c1.3,0.9,1.7,2,1.7,2.9C395.4,359.1,394.9,360.3,393.6,361.2z M385.8,360.2
		c1,0.6,2.3,0.8,3.5,0.8c1.2,0,2.5-0.2,3.5-0.8c1-0.6,1.3-1.4,1.3-2c0-0.6-0.3-1.4-1.3-2c-1-0.6-2.3-0.8-3.5-0.8
		c-1.2,0-2.5,0.2-3.5,0.8c-1,0.6-1.3,1.4-1.3,2C384.5,358.8,384.8,359.6,385.8,360.2z"/>
</g>
</svg>
