<?xml version="1.0" encoding="utf-8"?>
<!-- Generator: Adobe Illustrator 24.2.1, SVG Export Plug-In . SVG Version: 6.00 Build 0)  -->
<svg version="1.1" id="Слой_1" xmlns="http://www.w3.org/2000/svg" xmlns:xlink="http://www.w3.org/1999/xlink" x="0px" y="0px"
	 viewBox="0 0 500 600" style="enable-background:new 0 0 500 600;" xml:space="preserve">
<style type="text/css">
	.st0{fill:none;stroke:#4C86B9;stroke-width:0.75;}
	.st1{fill:none;stroke:#4C86B9;stroke-width:0.5;}
	.st2{fill:none;stroke:#4C86B9;stroke-width:0.25;}
	.st3{fill:#4C86B9;}
	.st4{fill:none;stroke:#4C86B9;stroke-width:0.25;stroke-dasharray:18,4,1,4;}
	.st5{fill:none;stroke:#4C86B9;stroke-width:0.75;stroke-linecap:round;stroke-linejoin:round;stroke-miterlimit:10;}
	.st6{fill:none;stroke:#4C86B9;stroke-width:0.5;stroke-linecap:round;stroke-linejoin:round;stroke-miterlimit:10;}
</style>
<line class="st0" x1="209.4" y1="148.9" x2="314.9" y2="123.4"/>
<line class="st0" x1="216.9" y1="190.9" x2="366.7" y2="150.7"/>
<line class="st0" x1="215.8" y1="204.8" x2="366.7" y2="162.9"/>
<line class="st0" x1="192.6" y1="237.8" x2="248.2" y2="221.8"/>
<line class="st0" x1="312.2" y1="203.9" x2="325.1" y2="200"/>
<line class="st0" x1="191.9" y1="235.2" x2="191.9" y2="334.4"/>
<line class="st0" x1="191.9" y1="360" x2="191.9" y2="491.3"/>
<line class="st0" x1="295.6" y1="227.5" x2="295.6" y2="449.7"/>
<line class="st0" x1="308.4" y1="214.1" x2="308.4" y2="225"/>
<line class="st0" x1="325.1" y1="200.7" x2="325.1" y2="209"/>
<line class="st0" x1="308.4" y1="240.3" x2="308.4" y2="454.8"/>
<line class="st0" x1="325.1" y1="221.1" x2="325.1" y2="241"/>
<line class="st0" x1="325.1" y1="258.3" x2="325.1" y2="449.7"/>
<line class="st0" x1="176.5" y1="495.7" x2="325.1" y2="449.7"/>
<line class="st0" x1="191.9" y1="482.3" x2="295.6" y2="449.7"/>
<line class="st0" x1="207.3" y1="516.9" x2="355.8" y2="468.2"/>
<line class="st0" x1="207.9" y1="522" x2="356.4" y2="473.3"/>
<line class="st0" x1="175.9" y1="238.4" x2="175.9" y2="495.9"/>
<line class="st0" x1="161.8" y1="189.1" x2="161.8" y2="504.7"/>
<line class="st1" x1="211.1" y1="176.3" x2="360.8" y2="138.4"/>
<line class="st1" x1="202.2" y1="168" x2="353.9" y2="130.2"/>
<line class="st0" x1="161.8" y1="504.7" x2="207.9" y2="522"/>
<line class="st0" x1="176.5" y1="495.7" x2="207.3" y2="516.9"/>
<line class="st0" x1="207.3" y1="516.9" x2="207.3" y2="522.1"/>
<line class="st0" x1="325.1" y1="449.7" x2="355.8" y2="468.2"/>
<line class="st0" x1="355.8" y1="468.2" x2="355.8" y2="473.3"/>
<line class="st0" x1="295.6" y1="449.7" x2="308.4" y2="454.8"/>
<line class="st0" x1="176.2" y1="239.1" x2="191.9" y2="235.2"/>
<line class="st0" x1="175.9" y1="238.4" x2="215.9" y2="204.3"/>
<line class="st0" x1="173.2" y1="170.3" x2="168.7" y2="203.4"/>
<line class="st0" x1="189.5" y1="176.7" x2="184.7" y2="210.3"/>
<line class="st0" x1="173.7" y1="169.8" x2="189.5" y2="176.2"/>
<line class="st0" x1="184.7" y1="209.8" x2="190.2" y2="216.2"/>
<line class="st0" x1="168.7" y1="203.4" x2="172.9" y2="209.9"/>
<line class="st0" x1="172.9" y1="209.9" x2="190.2" y2="216.2"/>
<line class="st0" x1="190.2" y1="216.2" x2="194.8" y2="215.2"/>
<line class="st0" x1="194.8" y1="215.2" x2="199.3" y2="216.2"/>
<line class="st0" x1="199.3" y1="216.2" x2="213.4" y2="204.2"/>
<line class="st0" x1="189.4" y1="177.1" x2="189.4" y2="209.5"/>
<line class="st0" x1="189.4" y1="209" x2="194.8" y2="215.2"/>
<line class="st0" x1="168.7" y1="199.2" x2="159.3" y2="184.5"/>
<line class="st0" x1="174.6" y1="159.6" x2="199.3" y2="169.5"/>
<line class="st0" x1="176.1" y1="157.8" x2="202" y2="168.3"/>
<line class="st0" x1="214.2" y1="191.5" x2="213.4" y2="204.2"/>
<line class="st0" x1="216.9" y1="190.9" x2="215.8" y2="204.8"/>
<line class="st0" x1="213.8" y1="189.6" x2="207" y2="177.6"/>
<line class="st0" x1="216.9" y1="190.9" x2="209.4" y2="177"/>
<line class="st0" x1="217.3" y1="190.3" x2="210.5" y2="176.5"/>
<line class="st0" x1="166.3" y1="161.3" x2="159.3" y2="168.8"/>
<line class="st0" x1="178.6" y1="174.3" x2="177.7" y2="180.8"/>
<line class="st0" x1="177.5" y1="182.1" x2="176.4" y2="190.1"/>
<line class="st0" x1="176.2" y1="191.2" x2="175.3" y2="197.6"/>
<line class="st0" x1="183.6" y1="176" x2="182.6" y2="182.6"/>
<line class="st0" x1="182.2" y1="185.3" x2="181.2" y2="191.4"/>
<line class="st0" x1="181" y1="193.5" x2="180.1" y2="199.4"/>
<line class="st0" x1="178.6" y1="174.3" x2="183.6" y2="176"/>
<line class="st0" x1="177.5" y1="181.6" x2="182.5" y2="183.4"/>
<line class="st0" x1="177.5" y1="183.2" x2="182.5" y2="185"/>
<line class="st0" x1="176.4" y1="190.1" x2="181.3" y2="191.9"/>
<line class="st0" x1="175.9" y1="191.5" x2="180.9" y2="193.3"/>
<line class="st0" x1="175.1" y1="198.3" x2="180.1" y2="200"/>
<path class="st0" d="M178,220.7"/>
<path class="st0" d="M173,218.9"/>
<line class="st1" x1="169.5" y1="167.4" x2="194" y2="177.1"/>
<line class="st1" x1="169" y1="169" x2="193.5" y2="178.4"/>
<line class="st1" x1="169.3" y1="203.7" x2="184.7" y2="209.8"/>
<line class="st1" x1="170" y1="205" x2="185.4" y2="211.1"/>
<line class="st0" x1="189.4" y1="209" x2="192.6" y2="210.3"/>
<line class="st1" x1="192.6" y1="210.3" x2="203.1" y2="200.5"/>
<line class="st1" x1="193.7" y1="210.7" x2="203.8" y2="201.5"/>
<line class="st1" x1="203.1" y1="200.5" x2="203.3" y2="193.8"/>
<line class="st1" x1="203.3" y1="192.3" x2="198" y2="183.1"/>
<line class="st1" x1="204.6" y1="191.9" x2="199" y2="182.1"/>
<line class="st1" x1="204.4" y1="200.3" x2="204.6" y2="193.6"/>
<line class="st1" x1="204.6" y1="191.9" x2="214.3" y2="189.9"/>
<line class="st1" x1="204.7" y1="193.5" x2="214.5" y2="191.5"/>
<line class="st1" x1="204.4" y1="200.3" x2="212.9" y2="203.5"/>
<line class="st1" x1="203.8" y1="201.5" x2="212.2" y2="204.7"/>
<line class="st1" x1="203.3" y1="192.3" x2="203.3" y2="193.5"/>
<line class="st1" x1="203.3" y1="192.3" x2="204.2" y2="191.9"/>
<line class="st1" x1="203.3" y1="193.8" x2="205" y2="193.5"/>
<line class="st1" x1="204.6" y1="191.6" x2="204.7" y2="193.5"/>
<line class="st1" x1="213.4" y1="188.7" x2="214" y2="189.9"/>
<line class="st0" x1="214" y1="189.9" x2="214.2" y2="191.5"/>
<line class="st1" x1="214" y1="189.9" x2="215.8" y2="189.1"/>
<line class="st1" x1="213.9" y1="191.4" x2="216.2" y2="191.4"/>
<line class="st1" x1="213.3" y1="203.9" x2="216" y2="204.7"/>
<line class="st1" x1="212.8" y1="204.6" x2="214.3" y2="205.4"/>
<line class="st1" x1="198.8" y1="216.2" x2="200.6" y2="216.8"/>
<line class="st1" x1="192.9" y1="210.5" x2="199" y2="215.5"/>
<line class="st1" x1="191.8" y1="210.7" x2="197.2" y2="215.1"/>
<line class="st1" x1="198" y1="183.1" x2="206.9" y2="177.9"/>
<line class="st1" x1="207.4" y1="177.6" x2="209.8" y2="177.2"/>
<line class="st1" x1="193.6" y1="178.7" x2="194" y2="177.1"/>
<line class="st1" x1="194" y1="177.1" x2="199.3" y2="169.5"/>
<line class="st0" x1="159" y1="182.5" x2="158.9" y2="176"/>
<line class="st0" x1="159.3" y1="168.8" x2="158.9" y2="173.5"/>
<line class="st1" x1="164.1" y1="168.4" x2="166.1" y2="162.1"/>
<line class="st1" x1="168.8" y1="168.8" x2="174.5" y2="159.9"/>
<line class="st1" x1="164.1" y1="168.7" x2="159.3" y2="173.7"/>
<line class="st1" x1="164.5" y1="169.9" x2="159.4" y2="175.5"/>
<path class="st0" d="M159.7,185.1c-0.6-1-0.6-1.5-0.5-3.1"/>
<path class="st0" d="M158.9,176.5c0-2,0-3.6,0-3.6"/>
<path class="st0" d="M165.9,161.6c1.9-1.3,5.2-2.8,9.1-1.9"/>
<path class="st0" d="M166.3,161.3c2.5-2.2,7.6-4.6,10-3.5"/>
<path class="st0" d="M207.2,178.2c-2.1-4.6-4.4-7.3-8.4-8.8"/>
<path class="st0" d="M210.6,176.8c-2-4.9-5.4-7.1-9.5-8.9"/>
<path class="st0" d="M209.5,177.5c-2.2-4.4-4.6-6.8-9.8-9"/>
<line class="st0" x1="200.1" y1="168.7" x2="173.6" y2="157.9"/>
<path class="st1" d="M199.2,182.3c-1.8-3.2-3.1-4.3-5.2-5.3"/>
<path class="st1" d="M198.2,183.5c-1.8-3.2-3.1-4.3-5.2-5.3"/>
<path class="st1" d="M164.1,168.7c1.2-1.4,3.6-1.8,5.1-1.4"/>
<path class="st1" d="M164,170.3c1.2-1.4,3.6-1.8,5.1-1.4"/>
<line class="st1" x1="164.5" y1="169.9" x2="164.4" y2="168.5"/>
<line class="st1" x1="183" y1="166.2" x2="181.6" y2="168.4"/>
<line class="st1" x1="182.7" y1="167.7" x2="181.9" y2="168.9"/>
<line class="st1" x1="181.5" y1="167.3" x2="180.9" y2="168.4"/>
<line class="st1" x1="181.7" y1="167.3" x2="181.3" y2="166.4"/>
<line class="st1" x1="182.7" y1="167.7" x2="183.6" y2="167.2"/>
<line class="st1" x1="184.3" y1="167.3" x2="183.4" y2="169.1"/>
<line class="st1" x1="184" y1="167.5" x2="184.9" y2="167.6"/>
<line class="st1" x1="184.9" y1="167.6" x2="184.3" y2="168.7"/>
<line class="st1" x1="185" y1="168.3" x2="184.3" y2="169.5"/>
<line class="st1" x1="185" y1="167.9" x2="185.6" y2="168.3"/>
<line class="st1" x1="184.3" y1="169.2" x2="184.9" y2="169.5"/>
<line class="st1" x1="185.6" y1="168.3" x2="185" y2="169.7"/>
<line class="st1" x1="185.9" y1="168.3" x2="186.3" y2="168.6"/>
<line class="st1" x1="186.3" y1="168.6" x2="185.5" y2="170"/>
<line class="st1" x1="187" y1="168.6" x2="186.1" y2="169.9"/>
<line class="st1" x1="187.2" y1="169" x2="187.7" y2="169.1"/>
<line class="st1" x1="186.1" y1="169.9" x2="187" y2="170.5"/>
<line class="st1" x1="187.6" y1="169.4" x2="187.4" y2="170.6"/>
<line class="st1" x1="187.4" y1="169.9" x2="187" y2="170.5"/>
<line class="st1" x1="187.2" y1="169" x2="186.6" y2="170.1"/>
<line class="st1" x1="203" y1="200.1" x2="204.5" y2="200.1"/>
<line class="st1" x1="203.1" y1="200.5" x2="203.5" y2="201.4"/>
<line class="st1" x1="204.4" y1="200.3" x2="204.2" y2="201.3"/>
<path class="st0" d="M223.3,224.1c0.5,1,2.8,0.8,5-0.2c2.1-1,4-2.8,3.5-3.8c-0.5-1-3.1-0.8-5.2,0.2
	C224.4,221.3,222.8,223.1,223.3,224.1z"/>
<path class="st1" d="M225,223.1c0.2,0.5,1,0.5,2.6-0.2c1.7-0.8,2.5-1.5,2.3-1.9c-0.2-0.5-1-0.4-2.7,0.4
	C225.6,222.2,224.8,222.7,225,223.1z"/>
<path class="st0" d="M228,221.9"/>
<line class="st0" x1="227.4" y1="220.9" x2="227.4" y2="222.7"/>
<path class="st0" d="M296.1,190.4c-4.3-5.3-47.8,13.3-46.3,21.1"/>
<path class="st0" d="M296.6,193.1c-4.3-5.3-46.1,12.9-44.6,20.7"/>
<path class="st0" d="M296.2,190.1c0,1.1,0.6,3,0.7,3"/>
<path class="st0" d="M252,213.8c0-1.2-1.2-2.7-2.3-2.7"/>
<path class="st0" d="M296.8,192.8c0,2.2-0.4,4.3-0.5,4.3"/>
<path class="st0" d="M263.8,220c-2.8-3.8,16.5-13.8,23.2-14.1"/>
<path class="st0" d="M263.8,220c6,2.5,25.1-7.1,28.1-12.1"/>
<path class="st1" d="M288.1,206.6c-4.8,0.2-22.8,9.2-22.7,12.2"/>
<path class="st1" d="M265.4,218.8c3.3,2.5,21.1-6.6,25.2-11.2"/>
<path class="st0" d="M276.8,213.6c0.1,0.3,0.9,0.2,1.7-0.2c0.8-0.4,1.4-0.9,1.2-1.2c-0.1-0.3-0.9-0.2-1.7,0.2
	C277.2,212.8,276.6,213.3,276.8,213.6z"/>
<path class="st1" d="M295.1,178.8c-0.5,1.8-1.8,3.5-3.3,3.1c-1.6-0.4-2.4-2.2-2-4.1c0.5-1.8,2.2-3,3.7-2.5
	C295.1,175.7,295.6,177,295.1,178.8z"/>
<path class="st0" d="M295.1,179.1c-0.7,2.4-2.7,4-4.5,3.5c-1.8-0.5-2.8-2.9-2.1-5.3c0.7-2.4,2.7-4,4.5-3.5
	C294.8,174.3,295.7,176.7,295.1,179.1z"/>
<path class="st1" d="M291,178.5c0.6-1.4,1.5-1.4,2.3-0.6"/>
<path class="st1" d="M290.9,178.7c0.9,1.2,2,1.1,2.5-0.2"/>
<line class="st1" x1="293" y1="178" x2="293.9" y2="177.8"/>
<line class="st1" x1="291.2" y1="178.7" x2="290.5" y2="178.7"/>
<path class="st1" d="M263,219.6c-1.4-3.6-5.1-7-10.9-6.2"/>
<path class="st1" d="M283.4,204.8c-4.2-5.4,1.5-10.3,3.9-10.9"/>
<line class="st0" x1="324.8" y1="200.2" x2="366.7" y2="162.9"/>
<line class="st0" x1="366.2" y1="163.2" x2="366.7" y2="151.2"/>
<line class="st0" x1="350.7" y1="129" x2="353.9" y2="130.2"/>
<path class="st0" d="M353.9,130.2c4.9,2.2,8.1,8.4,12.8,20.5"/>
<path class="st0" d="M366.2,163.2c2.3-0.2,3.4-9,3.2-13.1"/>
<path class="st0" d="M369.4,150.1c-2.3-7.5-7-16.5-14.7-20.9"/>
<line class="st1" x1="366.7" y1="150.7" x2="368.7" y2="150.2"/>
<line class="st1" x1="368.7" y1="150.2" x2="367.1" y2="151.5"/>
<line class="st1" x1="361.1" y1="138.4" x2="362.8" y2="137.1"/>
<line class="st1" x1="360.6" y1="138.5" x2="363.1" y2="138.4"/>
<line class="st0" x1="355.1" y1="129.4" x2="351.3" y2="127.9"/>
<line class="st0" x1="252.1" y1="213.5" x2="180.4" y2="357.2"/>
<line class="st0" x1="262.3" y1="219.2" x2="190.6" y2="362.9"/>
<line class="st0" x1="287.4" y1="193.9" x2="395.2" y2="236"/>
<line class="st0" x1="282.9" y1="204.5" x2="390.7" y2="246.5"/>
<line class="st0" x1="282.8" y1="215.1" x2="378.9" y2="312.1"/>
<line class="st0" x1="291.9" y1="207.9" x2="386.8" y2="303.7"/>
<path class="st0" d="M386.8,303.7c1.3,4.6-5.1,8.7-8,8.1"/>
<path class="st0" d="M389.2,239.2c-1.3,2.7-0.6,6.3,1.5,7.3c2.1,1,4.7-1.1,6-3.8c1.3-2.7,0.7-5.8-1.4-6.7
	C393.2,235,390.5,236.5,389.2,239.2z"/>
<path class="st0" d="M186.3,358.5c2.9,1.4,4.9,3.3,4.4,4.3c-0.5,1-3.2,0.7-6.1-0.6c-2.9-1.4-4.9-3.3-4.4-4.3
	C180.6,356.9,183.4,357.2,186.3,358.5z"/>
<path class="st1" d="M197.1,498.8c-0.2,1.4-3,2-6.1,1.5c-3.1-0.6-5.5-2.1-5.2-3.5c0.2-1.4,3-2,6.1-1.5
	C194.9,495.8,197.3,497.4,197.1,498.8z"/>
<path class="st1" d="M215.1,510.6c-0.2,1.4-3,2-6.1,1.5c-3.1-0.6-5.5-2.1-5.2-3.5c0.2-1.4,3-2,6.1-1.5
	C213,507.7,215.3,509.2,215.1,510.6z"/>
<path class="st1" d="M328.7,457.7c-0.2,1.4-3,2-6.1,1.5c-3.1-0.6-5.5-2.1-5.2-3.5c0.2-1.4,3-2,6.1-1.5
	C326.6,454.8,328.9,456.3,328.7,457.7z"/>
<path class="st1" d="M346.2,468.1c-0.2,1.4-3,2-6.1,1.5c-3.1-0.6-5.5-2.1-5.2-3.5c0.2-1.4,3-2,6.1-1.5
	C344.1,465.2,346.4,466.8,346.2,468.1z"/>
<line class="st2" x1="175.9" y1="97.4" x2="175.9" y2="207.1"/>
<line class="st2" x1="356.4" y1="62.4" x2="356.4" y2="129.8"/>
<line class="st2" x1="292.8" y1="151.2" x2="292.8" y2="182.7"/>
<line class="st2" x1="393.1" y1="156.7" x2="393.1" y2="242.1"/>
<line class="st2" x1="292.8" y1="161.8" x2="392.7" y2="197.3"/>
<line class="st2" x1="230.5" y1="103.8" x2="230.5" y2="144.3"/>
<line class="st2" x1="231" y1="109.3" x2="392.3" y2="163.5"/>
<line class="st2" x1="176.4" y1="104.9" x2="356.4" y2="67.1"/>
<line class="st2" x1="109.1" y1="168" x2="202.5" y2="145.1"/>
<line class="st2" x1="125.1" y1="516" x2="162" y2="504.3"/>
<line class="st2" x1="170.6" y1="534.8" x2="207.9" y2="522.4"/>
<line class="st2" x1="207.9" y1="522.2" x2="250.4" y2="538.1"/>
<line class="st2" x1="356.8" y1="473.5" x2="393.9" y2="485.7"/>
<line class="st2" x1="240.9" y1="534.4" x2="388" y2="484.1"/>
<line class="st2" x1="323" y1="510.5" x2="414.3" y2="546.2"/>
<line class="st2" x1="406.3" y1="240.6" x2="406.3" y2="542.3"/>
<line class="st2" x1="117.1" y1="166.7" x2="117.1" y2="533.5"/>
<line class="st2" x1="131.1" y1="513.9" x2="177.2" y2="532.2"/>
<g id="XMLID_1_">
	<g>
		<path class="st3" d="M117.1,166.2l1.4,9.6c-0.7-1.1-1.9-1.4-2.8-0.4l1.3-9.2L117.1,166.2z"/>
	</g>
	<g>
		<polyline class="st2" points="117,166.2 115.7,175.4 115.6,175.9 		"/>
		<polyline class="st2" points="117.1,166.1 117.1,166.2 118.5,175.8 		"/>
		<path class="st2" d="M115.5,175.6c0.1-0.1,0.1-0.1,0.2-0.2c0.9-0.9,2.1-0.7,2.8,0.4"/>
	</g>
</g>
<g id="XMLID_2_">
	<g>
		<path class="st3" d="M176,104.9l9.1-3.3c-0.9,0.9-0.9,2.1,0.2,2.8L176,105L176,104.9z"/>
	</g>
	<g>
		<polyline class="st2" points="176,105 185.3,104.3 185.8,104.3 		"/>
		<polyline class="st2" points="175.9,104.9 176,104.9 185.1,101.5 		"/>
		<path class="st2" d="M185.5,104.5c-0.1,0-0.2-0.1-0.2-0.1c-1.1-0.7-1.1-1.9-0.2-2.8"/>
	</g>
</g>
<g id="XMLID_3_">
	<g>
		<path class="st3" d="M356.3,67.2l-9.1,3.3c0.9-0.9,0.9-2.1-0.2-2.8l9.3-0.6L356.3,67.2z"/>
	</g>
	<g>
		<polyline class="st2" points="356.2,67 347,67.7 346.4,67.7 		"/>
		<polyline class="st2" points="356.3,67.1 356.3,67.2 347.1,70.5 		"/>
		<path class="st2" d="M346.7,67.5c0.1,0,0.2,0.1,0.2,0.1c1.1,0.7,1.1,1.9,0.2,2.8"/>
	</g>
</g>
<g id="XMLID_4_">
	<g>
		<path class="st3" d="M230.6,109.2l9.5,2c-1.3,0.3-1.9,1.3-1.3,2.5l-8.2-4.4L230.6,109.2z"/>
	</g>
	<g>
		<polyline class="st2" points="230.5,109.3 238.7,113.7 239.2,113.9 		"/>
		<polyline class="st2" points="230.5,109.2 230.6,109.2 240.1,111.2 		"/>
		<path class="st2" d="M238.9,113.9c-0.1-0.1-0.1-0.2-0.1-0.2c-0.6-1.2,0.1-2.2,1.3-2.5"/>
	</g>
</g>
<g id="XMLID_5_">
	<g>
		<path class="st3" d="M392.8,163.8l-9.5-2c1.3-0.3,1.9-1.3,1.3-2.5l8.2,4.4L392.8,163.8z"/>
	</g>
	<g>
		<polyline class="st2" points="392.8,163.7 384.6,159.3 384.2,159.1 		"/>
		<polyline class="st2" points="392.9,163.8 392.8,163.8 383.3,161.8 		"/>
		<path class="st2" d="M384.5,159.1c0.1,0.1,0.1,0.2,0.1,0.2c0.6,1.2-0.1,2.2-1.3,2.5"/>
	</g>
</g>
<g id="XMLID_6_">
	<g>
		<path class="st3" d="M392.9,197.4l-9.5-2c1.3-0.3,1.9-1.3,1.3-2.5l8.2,4.4L392.9,197.4z"/>
	</g>
	<g>
		<polyline class="st2" points="392.9,197.3 384.8,192.9 384.3,192.7 		"/>
		<polyline class="st2" points="393,197.4 392.9,197.4 383.4,195.4 		"/>
		<path class="st2" d="M384.6,192.7c0.1,0.1,0.1,0.2,0.1,0.2c0.6,1.2-0.1,2.2-1.3,2.5"/>
	</g>
</g>
<g id="XMLID_7_">
	<g>
		<path class="st3" d="M293.4,161.9l9.5,2c-1.3,0.3-1.9,1.3-1.3,2.5l-8.2-4.4L293.4,161.9z"/>
	</g>
	<g>
		<polyline class="st2" points="293.4,162 301.5,166.4 302,166.6 		"/>
		<polyline class="st2" points="293.3,161.9 293.4,161.9 302.9,163.9 		"/>
		<path class="st2" d="M301.7,166.6c-0.1-0.1-0.1-0.2-0.1-0.2c-0.6-1.2,0.1-2.2,1.3-2.5"/>
	</g>
</g>
<g id="XMLID_8_">
	<g>
		<path class="st3" d="M406.3,542.6L405,533c0.7,1.1,1.9,1.4,2.8,0.4l-1.3,9.2L406.3,542.6z"/>
	</g>
	<g>
		<polyline class="st2" points="406.4,542.6 407.8,533.4 407.8,532.9 		"/>
		<polyline class="st2" points="406.3,542.7 406.3,542.6 405,533 		"/>
		<path class="st2" d="M407.9,533.2c-0.1,0.1-0.1,0.1-0.2,0.2c-0.9,0.9-2.1,0.7-2.8-0.4"/>
	</g>
</g>
<g id="XMLID_9_">
	<g>
		<path class="st3" d="M406.4,240.5l1.4,9.6c-0.7-1.1-1.9-1.4-2.8-0.4l1.3-9.2L406.4,240.5z"/>
	</g>
	<g>
		<polyline class="st2" points="406.2,240.5 404.9,249.7 404.9,250.2 		"/>
		<polyline class="st2" points="406.4,240.4 406.4,240.5 407.7,250.1 		"/>
		<path class="st2" d="M404.8,249.9c0.1-0.1,0.1-0.1,0.2-0.2c0.9-0.9,2.1-0.7,2.8,0.4"/>
	</g>
</g>
<g id="XMLID_10_">
	<g>
		<path class="st3" d="M241,534.3l8.4-4.9c-0.8,1.1-0.6,2.2,0.7,2.8l-9,2.2L241,534.3z"/>
	</g>
	<g>
		<polyline class="st2" points="241.1,534.4 250.1,532.2 250.6,532.1 		"/>
		<polyline class="st2" points="241,534.4 241,534.3 249.4,529.4 		"/>
		<path class="st2" d="M250.4,532.3c-0.1,0-0.2-0.1-0.3-0.1c-1.2-0.5-1.4-1.7-0.7-2.8"/>
	</g>
</g>
<g id="XMLID_11_">
	<g>
		<path class="st3" d="M387.8,484l-8.6,4.6c0.8-1,0.6-2.2-0.6-2.8l9.1-1.9L387.8,484z"/>
	</g>
	<g>
		<polyline class="st2" points="387.7,483.9 378.6,485.8 378.1,485.9 		"/>
		<polyline class="st2" points="387.8,484 387.8,484 379.2,488.6 		"/>
		<path class="st2" d="M378.4,485.7c0.1,0,0.2,0.1,0.3,0.1c1.2,0.6,1.4,1.7,0.6,2.8"/>
	</g>
</g>
<g id="XMLID_12_">
	<g>
		<path class="st3" d="M117.1,533.4l-1.4-9.6c0.7,1.1,1.9,1.4,2.8,0.4l-1.3,9.2L117.1,533.4z"/>
	</g>
	<g>
		<polyline class="st2" points="117.2,533.4 118.6,524.2 118.6,523.7 		"/>
		<polyline class="st2" points="117.1,533.5 117.1,533.4 115.8,523.8 		"/>
		<path class="st2" d="M118.7,524c-0.1,0.1-0.1,0.1-0.2,0.2c-0.9,0.9-2.1,0.7-2.8-0.4"/>
	</g>
</g>
<g id="XMLID_13_">
	<g>
		<path class="st3" d="M131.4,513.9l9.4,2.5c-1.3,0.2-2,1.2-1.5,2.4l-7.9-4.8L131.4,513.9z"/>
	</g>
	<g>
		<polyline class="st2" points="131.4,514 139.3,518.8 139.8,519.1 		"/>
		<polyline class="st2" points="131.3,513.9 131.4,513.9 140.8,516.4 		"/>
		<path class="st2" d="M139.5,519.1c0-0.1-0.1-0.2-0.1-0.2c-0.5-1.2,0.2-2.2,1.5-2.4"/>
	</g>
</g>
<g id="XMLID_14_">
	<g>
		<path class="st3" d="M177.5,532.4l-9.4-2.5c1.3-0.2,2-1.2,1.5-2.4l7.9,4.8L177.5,532.4z"/>
	</g>
	<g>
		<polyline class="st2" points="177.6,532.3 169.6,527.5 169.2,527.2 		"/>
		<polyline class="st2" points="177.6,532.4 177.5,532.4 168.1,529.9 		"/>
		<path class="st2" d="M169.5,527.2c0,0.1,0.1,0.2,0.1,0.2c0.5,1.2-0.2,2.2-1.5,2.4"/>
	</g>
</g>
<g>
	<path class="st3" d="M102.6,351.7v1.8l-1.4-0.9v-2.5h10.2v1.6H102.6z"/>
	<path class="st3" d="M110.4,345.9c-1.2,1.1-2.8,1.3-4.2,1.3c-1.3,0-3-0.2-4.2-1.3c-0.7-0.6-1.1-1.4-1.1-2.3c0-0.9,0.4-1.7,1.1-2.3
		c1.2-1.1,2.9-1.3,4.2-1.3c1.3,0,3,0.2,4.2,1.3c0.7,0.6,1.1,1.4,1.1,2.3C111.5,344.5,111.2,345.3,110.4,345.9z M103.2,345
		c0.8,0.6,2.2,0.7,3.1,0.7c0.9,0,2.2-0.1,3.1-0.7c0.7-0.4,0.8-1,0.8-1.4c0-0.4-0.2-0.9-0.8-1.4c-0.9-0.6-2.2-0.7-3.1-0.7
		c-0.9,0-2.2,0.1-3.1,0.7c-0.7,0.4-0.8,1-0.8,1.4C102.3,344,102.5,344.6,103.2,345z"/>
	<path class="st3" d="M106.9,332.1c0.5-0.4,1.1-0.5,1.5-0.5c1,0,1.8,0.4,2.2,0.8c0.5,0.5,1,1.2,1,2.4c0,1.2-0.4,1.9-1,2.4
		c-0.4,0.4-1.1,0.8-2.2,0.8c-0.5,0-1-0.1-1.5-0.5c-0.3-0.2-0.6-0.6-0.8-1.1c-0.2,0.4-0.5,0.7-0.8,0.9c-0.4,0.3-0.9,0.4-1.4,0.4
		c-0.8,0-1.6-0.3-2.1-0.9c-0.3-0.3-0.8-1-0.8-2.1c0-1.1,0.5-1.8,0.8-2.1c0.6-0.6,1.3-0.9,2.1-0.9c0.5,0,1,0.1,1.4,0.4
		c0.3,0.2,0.6,0.5,0.8,0.9C106.2,332.7,106.5,332.4,106.9,332.1z M102.8,336c0.3,0.3,0.7,0.4,1.1,0.4c0.5,0,0.8-0.2,1.1-0.4
		c0.3-0.3,0.5-0.7,0.5-1.1c0-0.4-0.2-0.9-0.5-1.1c-0.2-0.2-0.6-0.4-1.1-0.4c-0.5,0-0.9,0.2-1.1,0.4c-0.2,0.3-0.4,0.6-0.4,1.1
		C102.3,335.4,102.5,335.8,102.8,336z M107.2,336.1c0.3,0.3,0.8,0.5,1.2,0.5c0.4,0,0.9-0.2,1.2-0.5c0.2-0.2,0.5-0.6,0.5-1.2
		c0-0.6-0.3-1-0.5-1.2c-0.3-0.3-0.8-0.5-1.2-0.5c-0.4,0-0.9,0.2-1.2,0.5c-0.3,0.3-0.5,0.8-0.5,1.2
		C106.7,335.3,106.9,335.8,107.2,336.1z"/>
	<path class="st3" d="M108,324.2v-1.1h1.4v1.1h1.9v1.5h-1.9v5.1l-9.1-6.6H108z M108,325.7h-3.3l3.3,2.3V325.7z"/>
</g>
<g>
	<path class="st3" d="M401.9,375.7l-3.1-2.4c0,0.2,0.1,0.4,0.1,0.6c0,1.2-0.5,2-1,2.4c-0.5,0.5-1.3,0.9-2.3,0.9c-1,0-1.9-0.4-2.6-1
		c-0.7-0.6-1-1.5-1-2.6c0-1.4,0.6-2.2,1-2.6c0.4-0.4,1.2-0.9,2.3-0.9c0.7,0,1.3,0.2,2,0.5c0.8,0.4,1.2,0.8,1.8,1.2l3.7,2.8
		L401.9,375.7z M396.9,372.1c-0.4-0.4-1-0.6-1.5-0.6c-0.6,0-1.1,0.2-1.5,0.6c-0.4,0.4-0.6,0.9-0.6,1.5c0,0.6,0.3,1.1,0.6,1.5
		c0.3,0.3,0.9,0.6,1.5,0.6c0.6,0,1.1-0.2,1.5-0.6c0.3-0.3,0.6-0.9,0.6-1.4C397.6,373.1,397.4,372.5,396.9,372.1z"/>
	<path class="st3" d="M393.6,367.3v1.8l-1.4-0.9v-2.5h10.2v1.6H393.6z"/>
	<path class="st3" d="M392.7,357.7l3.1,2.4c0-0.2-0.1-0.4-0.1-0.6c0-1.2,0.5-2,1-2.4c0.6-0.6,1.5-0.9,2.4-0.9c0.9,0,1.9,0.3,2.6,1
		c0.8,0.9,1,2,1,2.6c0,0.9-0.2,1.9-1,2.6c-0.6,0.5-1.3,0.9-2.3,0.9c-0.8,0-1.3-0.2-2-0.5c-0.8-0.4-1.2-0.8-1.8-1.2l-3.7-2.8
		L392.7,357.7z M397.6,361.2c0.3,0.3,0.9,0.6,1.5,0.6c0.5,0,1.1-0.2,1.5-0.6c0.3-0.3,0.6-0.9,0.6-1.5c0-0.5-0.2-1.1-0.6-1.4
		c-0.4-0.4-1-0.6-1.5-0.6s-1.1,0.2-1.5,0.6c-0.4,0.4-0.6,0.9-0.6,1.4S397.2,360.9,397.6,361.2z"/>
</g>
<g>
	<path class="st3" d="M223.4,80.5l-1.7,3.5c0.2-0.1,0.4-0.1,0.6-0.2c1.2-0.2,2,0.1,2.5,0.4c0.7,0.5,1.2,1.2,1.4,2.2
		c0.2,0.9,0.1,1.9-0.5,2.7c-0.7,1-1.7,1.4-2.4,1.5c-0.9,0.2-1.9,0.2-2.8-0.4c-0.6-0.4-1.1-1.1-1.4-2.1c-0.2-0.7-0.1-1.3,0.1-2
		c0.2-0.8,0.5-1.4,0.8-2l2-4.2L223.4,80.5z M221,86.1c-0.3,0.4-0.4,1-0.3,1.6c0.1,0.5,0.4,1.1,0.9,1.4c0.4,0.2,1,0.4,1.6,0.2
		c0.5-0.1,1-0.4,1.3-0.9c0.3-0.5,0.4-1.1,0.3-1.6c-0.1-0.5-0.4-1.1-0.9-1.4c-0.4-0.3-1-0.4-1.5-0.3C221.8,85.3,221.2,85.7,221,86.1z
		"/>
	<path class="st3" d="M233.2,85l1.1-0.2l0.3,1.4l-1.1,0.2l0.4,1.9l-1.5,0.3l-0.4-1.9l-5,1.1l4.5-10.2L233.2,85z M231.7,85.3
		l-0.7-3.2l-1.6,3.7L231.7,85.3z"/>
	<path class="st3" d="M237.5,86.5c-1.3-1-1.9-2.5-2.1-3.8c-0.3-1.3-0.4-2.9,0.4-4.4c0.5-0.9,1.2-1.4,2-1.6c0.9-0.2,1.7,0,2.5,0.6
		c1.3,1,1.9,2.5,2.1,3.8c0.3,1.3,0.4,2.9-0.4,4.4c-0.5,0.9-1.1,1.4-2,1.6C239.1,87.3,238.3,87.1,237.5,86.5z M236.9,79.3
		c-0.4,0.9-0.2,2.3-0.1,3.1c0.2,0.9,0.6,2.1,1.3,2.9c0.6,0.6,1.1,0.6,1.5,0.5c0.4-0.1,0.9-0.4,1.2-1.1c0.4-1,0.2-2.3,0.1-3.2
		c-0.2-0.9-0.6-2.1-1.3-2.8c-0.6-0.6-1.1-0.6-1.5-0.5C237.7,78.2,237.2,78.5,236.9,79.3z"/>
</g>
<g>
	<path class="st3" d="M274.7,109.4l-3.3,2.1c0.2,0,0.4,0.1,0.6,0.2c1.1,0.4,1.7,1.1,1.9,1.7c0.3,0.7,0.4,1.7,0.1,2.6
		c-0.3,0.9-0.9,1.7-1.8,2.1c-1.1,0.5-2.2,0.3-2.8,0.1c-0.8-0.3-1.7-0.8-2.2-1.8c-0.3-0.7-0.4-1.5-0.1-2.5c0.2-0.7,0.6-1.2,1.1-1.7
		c0.6-0.6,1.1-0.9,1.8-1.3l3.9-2.5L274.7,109.4z M269.7,112.9c-0.4,0.2-0.9,0.6-1.1,1.2c-0.2,0.5-0.2,1.1,0.1,1.6
		c0.2,0.4,0.7,0.8,1.2,1c0.5,0.2,1.1,0.2,1.6-0.1c0.5-0.2,0.9-0.8,1.1-1.2c0.2-0.5,0.2-1.1-0.1-1.6c-0.2-0.4-0.7-0.8-1.2-1
		C270.8,112.6,270.2,112.7,269.7,112.9z"/>
	<path class="st3" d="M281.9,117.4c0.2,0.6,0.1,1.2-0.1,1.6c-0.3,1-0.9,1.5-1.5,1.8c-0.6,0.3-1.5,0.5-2.6,0.1
		c-1.1-0.4-1.7-1.1-2-1.7c-0.3-0.5-0.4-1.3-0.1-2.3c0.2-0.4,0.4-0.9,0.9-1.3c0.3-0.2,0.8-0.4,1.3-0.4c-0.3-0.3-0.5-0.7-0.6-1
		c-0.1-0.5,0-1,0.1-1.4c0.3-0.8,0.8-1.4,1.5-1.7c0.4-0.2,1.2-0.4,2.2-0.1c1.1,0.4,1.5,1,1.7,1.4c0.4,0.7,0.4,1.5,0.1,2.3
		c-0.1,0.4-0.4,0.9-0.8,1.2c-0.3,0.2-0.6,0.4-1.1,0.4C281.5,116.6,281.8,117,281.9,117.4z M278,116.4c-0.4,0.2-0.7,0.6-0.9,1
		c-0.1,0.4-0.1,0.9,0,1.3c0.1,0.3,0.4,0.7,1,0.9s1,0.1,1.3-0.1c0.4-0.2,0.7-0.6,0.8-1c0.1-0.4,0.1-0.9,0-1.3c-0.2-0.4-0.6-0.7-1-0.8
		C278.9,116.2,278.4,116.2,278,116.4z M279.5,112.2c-0.3,0.2-0.6,0.5-0.8,0.9c-0.2,0.5-0.1,0.9,0,1.2c0.2,0.4,0.5,0.7,0.9,0.8
		c0.4,0.1,0.9,0.1,1.2-0.1c0.3-0.1,0.6-0.4,0.7-0.9c0.2-0.4,0.1-0.9,0-1.2c-0.2-0.3-0.5-0.6-0.9-0.8
		C280.3,112.1,279.9,112.1,279.5,112.2z"/>
	<path class="st3" d="M285.4,115.3c0.3-0.8,0.9-1.3,1.5-1.6c0.9-0.4,1.7-0.2,2.4,0c0.7,0.3,1.4,0.7,1.8,1.5c0.3,0.7,0.3,1.4,0.1,2.1
		c-0.2,0.5-0.4,0.8-0.8,1.2c-0.4,0.3-0.8,0.5-1.2,0.5c0.4,0.4,0.6,0.8,0.7,1.1c0.1,0.5,0.1,1.1-0.1,1.6c-0.3,1-0.9,1.6-1.6,1.9
		c-0.9,0.5-1.9,0.3-2.7,0c-0.7-0.3-1.5-0.7-1.9-1.6c-0.3-0.6-0.3-1.5-0.1-2.3l1.4,0.5c-0.1,0.5,0,0.9,0.2,1.2c0.1,0.3,0.4,0.6,1,0.8
		c0.5,0.2,0.9,0.1,1.3,0c0.4-0.2,0.8-0.5,1-1.2c0.1-0.3,0.2-0.8,0-1.3c-0.3-0.6-0.8-0.8-1.1-0.9l-0.3-0.1l0.4-1.2l0.2,0.1
		c0.6,0.2,1.1,0.1,1.4,0c0.3-0.2,0.6-0.5,0.7-0.9c0.2-0.5,0.1-0.9,0-1.1c-0.2-0.4-0.6-0.6-0.9-0.7c-0.3-0.1-0.8-0.2-1.2,0
		c-0.5,0.2-0.7,0.7-0.7,0.8L285.4,115.3z"/>
</g>
<g>
	<path class="st3" d="M361.9,179.4l1,0.4l-0.5,1.4l-1-0.4l-0.6,1.8l-1.4-0.5l0.6-1.8l-4.8-1.7l9.2-6.4L361.9,179.4z M360.5,179
		l1.1-3.1l-3.3,2.4L360.5,179z"/>
	<path class="st3" d="M370.2,182.3l1,0.4l-0.5,1.4l-1-0.4l-0.6,1.8l-1.4-0.5l0.6-1.8l-4.8-1.7l9.2-6.4L370.2,182.3z M368.8,181.8
		l1.1-3.1l-3.3,2.4L368.8,181.8z"/>
	<path class="st3" d="M374.3,179.2c0.3-0.8,0.9-1.3,1.5-1.6c0.9-0.4,1.7-0.2,2.4,0c0.7,0.3,1.4,0.7,1.8,1.5c0.3,0.7,0.3,1.4,0.1,2.1
		c-0.2,0.5-0.4,0.8-0.8,1.2c-0.4,0.3-0.8,0.5-1.2,0.5c0.4,0.4,0.6,0.8,0.7,1.1c0.1,0.5,0.1,1.1-0.1,1.6c-0.3,1-0.9,1.6-1.6,1.9
		c-0.9,0.5-1.9,0.3-2.7,0c-0.7-0.3-1.5-0.7-1.9-1.6c-0.3-0.6-0.3-1.5-0.1-2.3l1.4,0.5c-0.1,0.5,0,0.9,0.2,1.2c0.1,0.3,0.4,0.6,1,0.8
		c0.5,0.2,0.9,0.1,1.3,0c0.4-0.2,0.8-0.5,1-1.2c0.1-0.3,0.2-0.8,0-1.3c-0.3-0.6-0.8-0.8-1.1-0.9l-0.3-0.1l0.4-1.2l0.2,0.1
		c0.6,0.2,1.1,0.1,1.4,0c0.3-0.2,0.6-0.5,0.7-0.9c0.2-0.5,0.1-0.9,0-1.1c-0.2-0.4-0.6-0.6-0.9-0.7c-0.3-0.1-0.8-0.2-1.2,0
		c-0.5,0.2-0.7,0.7-0.7,0.8L374.3,179.2z"/>
</g>
<g>
	<path class="st3" d="M154.3,519.2l-6.4-2.5l4.9-2.7c0.5-0.3,1.2-0.7,1.7-1.1c0.4-0.3,0.8-0.6,1-1.2c0.3-0.8,0.1-1.8-1-2.2
		c-1.1-0.4-2,0.2-2.4,1.1l-1.4-0.5c0.4-0.9,1.1-1.5,1.6-1.8c0.5-0.3,1.4-0.5,2.6-0.1c2,0.8,2.5,2.6,2,4.1c-0.3,0.8-0.9,1.3-1.5,1.7
		c-0.5,0.4-1.2,0.7-2,1.2l-2.2,1.2l3.6,1.4L154.3,519.2z"/>
	<path class="st3" d="M157.8,519.5c-0.6-1.5-0.2-3.1,0.3-4.4c0.5-1.2,1.3-2.7,2.7-3.4c0.9-0.5,1.7-0.5,2.6-0.2
		c0.8,0.3,1.4,0.9,1.8,1.9c0.6,1.5,0.2,3.2-0.3,4.4c-0.5,1.2-1.3,2.7-2.7,3.4c-0.9,0.5-1.7,0.5-2.6,0.2
		C158.7,521.1,158.1,520.5,157.8,519.5z M161.3,513.1c-0.8,0.6-1.4,1.8-1.8,2.6c-0.3,0.8-0.7,2.1-0.4,3.1c0.2,0.8,0.6,1.1,1,1.3
		c0.4,0.1,0.9,0.2,1.6-0.3c0.8-0.6,1.4-1.8,1.8-2.6c0.3-0.8,0.7-2.1,0.4-3.1c-0.2-0.8-0.6-1.1-1-1.3
		C162.5,512.7,161.9,512.6,161.3,513.1z"/>
	<path class="st3" d="M165.9,522.7c-0.6-1.5-0.2-3.1,0.3-4.4c0.5-1.2,1.3-2.7,2.7-3.4c0.9-0.5,1.7-0.5,2.6-0.2
		c0.8,0.3,1.4,0.9,1.8,1.9c0.6,1.5,0.2,3.2-0.3,4.4c-0.5,1.2-1.3,2.7-2.7,3.4c-0.9,0.5-1.7,0.5-2.6,0.2
		C166.8,524.2,166.3,523.6,165.9,522.7z M169.4,516.2c-0.8,0.6-1.4,1.8-1.8,2.6c-0.3,0.8-0.7,2.1-0.4,3.1c0.2,0.8,0.6,1.1,1,1.3
		c0.4,0.1,0.9,0.2,1.6-0.3c0.8-0.6,1.4-1.8,1.8-2.6c0.3-0.8,0.7-2.1,0.4-3.1c-0.2-0.8-0.6-1.1-1-1.3
		C170.6,515.8,170.1,515.8,169.4,516.2z"/>
</g>
<g>
	<path class="st3" d="M303.8,499.8l-3,1l0,1.8c0.1-0.1,0.3-0.1,0.4-0.2c0.8-0.3,1.7-0.3,2.5,0.1c0.6,0.3,1.3,0.9,1.8,2.2
		c0.3,1.1,0.3,2-0.2,2.9c-0.5,1-1.4,1.5-2.4,1.9c-0.6,0.2-1.3,0.3-2,0.2c-0.2,0-0.8-0.2-1.5-0.8l0.8-1.3c0.1,0.1,0.5,0.5,1,0.6
		c0.4,0.1,0.9,0.1,1.4-0.1c0.8-0.3,1.1-0.7,1.3-1c0.2-0.4,0.4-1,0.1-1.9c-0.3-0.8-0.7-1.2-1.1-1.4c-0.6-0.3-1.3-0.2-1.8,0
		c-0.4,0.1-0.7,0.3-1.1,0.6c-0.3,0.2-0.5,0.4-0.7,0.7l-0.2-5.4l4-1.3L303.8,499.8z"/>
	<path class="st3" d="M313,502.5l1.1-0.3l0.4,1.4l-1.1,0.3l0.6,1.8l-1.4,0.5l-0.6-1.8l-4.8,1.6l3.5-10.7L313,502.5z M311.6,503
		l-1-3.1l-1.2,3.9L311.6,503z"/>
	<path class="st3" d="M321.3,499.8l1.1-0.3l0.4,1.4l-1.1,0.3l0.6,1.8l-1.4,0.5l-0.6-1.8l-4.8,1.6l3.5-10.7L321.3,499.8z
		 M319.9,500.3l-1-3.1l-1.2,3.9L319.9,500.3z"/>
</g>
<line class="st2" x1="108.9" y1="536.1" x2="147.4" y2="523"/>
<line class="st2" x1="175.2" y1="513.5" x2="180.5" y2="511.7"/>
<line class="st4" x1="392.9" y1="235.1" x2="413.4" y2="243.1"/>
<line class="st2" x1="287.4" y1="496.5" x2="293.5" y2="498.9"/>
<line class="st5" x1="180.7" y1="158.9" x2="180.4" y2="156.5"/>
<line class="st6" x1="192.5" y1="161.7" x2="185.6" y2="158.8"/>
<line class="st6" x1="185.6" y1="158.8" x2="185" y2="155"/>
<line class="st6" x1="185.6" y1="158.8" x2="185" y2="159"/>
<line class="st6" x1="185" y1="159" x2="184.4" y2="154.8"/>
<line class="st6" x1="184.4" y1="154.8" x2="191.9" y2="157.9"/>
<line class="st6" x1="191.9" y1="157.9" x2="192.6" y2="162.3"/>
<line class="st6" x1="192.6" y1="162.3" x2="185" y2="159"/>
<line class="st5" x1="180.2" y1="159.2" x2="198.5" y2="166.9"/>
<line class="st5" x1="351" y1="128.7" x2="352.1" y2="125.3"/>
<line class="st5" x1="349.2" y1="116.2" x2="341.8" y2="112.7"/>
<line class="st5" x1="352" y1="119.8" x2="351.5" y2="118.6"/>
<line class="st5" x1="335" y1="114.8" x2="326.2" y2="110.8"/>
<line class="st5" x1="330.3" y1="133.6" x2="336.3" y2="123.2"/>
<line class="st5" x1="340.6" y1="112.3" x2="326.9" y2="110.8"/>
<line class="st5" x1="319.5" y1="115.3" x2="313.6" y2="125.7"/>
<line class="st5" x1="331.2" y1="133.6" x2="350.7" y2="129"/>
<line class="st5" x1="313.7" y1="126.1" x2="329.5" y2="133.4"/>
<line class="st6" x1="186.3" y1="158.4" x2="185.9" y2="155.4"/>
<line class="st6" x1="186.9" y1="158" x2="186.3" y2="158.4"/>
<line class="st6" x1="191.9" y1="157.9" x2="192.3" y2="160.9"/>
<line class="st6" x1="192.3" y1="160.9" x2="186.3" y2="158.4"/>
<line class="st6" x1="186.9" y1="158" x2="186.5" y2="155.6"/>
<line class="st6" x1="192.2" y1="160.3" x2="186.9" y2="158"/>
<line class="st5" x1="180.2" y1="159.2" x2="179.8" y2="156.4"/>
<line class="st5" x1="197.7" y1="166.5" x2="197.3" y2="163.8"/>
<line class="st5" x1="183.9" y1="152.3" x2="191.4" y2="155.5"/>
<line class="st5" x1="184" y1="152.8" x2="191.5" y2="156"/>
<line class="st6" x1="180.6" y1="159.4" x2="180.2" y2="156.5"/>
<line class="st5" x1="197.4" y1="166.4" x2="196.9" y2="163.6"/>
<line class="st6" x1="217.7" y1="161.6" x2="217.3" y2="161.8"/>
<line class="st6" x1="201.2" y1="166.2" x2="214.6" y2="162.6"/>
<line class="st6" x1="217.4" y1="161.8" x2="217.7" y2="161.6"/>
<line class="st6" x1="217.7" y1="161.6" x2="217.8" y2="161.4"/>
<line class="st6" x1="217.3" y1="161.8" x2="217.3" y2="161.8"/>
<line class="st5" x1="195.7" y1="143.5" x2="181" y2="152.3"/>
<line class="st5" x1="206.3" y1="146.8" x2="198.8" y2="143.6"/>
<line class="st5" x1="217.8" y1="161.4" x2="213.4" y2="153.4"/>
<line class="st5" x1="198.5" y1="166.9" x2="217.3" y2="161.8"/>
<path class="st5" d="M206.3,146.8c2.9,1.3,6.1,4.9,7.1,6.6"/>
<path class="st5" d="M198.8,143.6c-1-0.4-2.5-0.5-3.1-0.1"/>
<path class="st5" d="M183.9,152.3c-3-1.2-4.3,0.7-4.1,4"/>
<path class="st6" d="M184,152.8c-2.9-1.1-4.1,0.4-3.8,3.7"/>
<path class="st5" d="M184,152.8c-2.5-1-4,0.6-3.6,3.7"/>
<path class="st5" d="M180.7,158.9c0.1,0.4,0.1,0.6,0.5,0.7"/>
<path class="st5" d="M196.9,163.6c-0.8-3.7-2.6-6.3-5.5-7.7"/>
<path class="st5" d="M197.3,163.8c-0.8-3.7-3-6.9-5.9-8.3"/>
<path class="st5" d="M340.6,112.3c0.4,0,0.8,0.2,1.2,0.4"/>
<path class="st5" d="M352.1,125.3c1.1-3.9-0.3-7.9-2.9-9.1"/>
<path class="st5" d="M319.5,115.3c1.3-2.1,4.5-4.9,7.4-4.5"/>
<path class="st6" d="M329.5,133.4c0.2,0.1,1,0.3,1.7,0.2"/>
<path class="st6" d="M313.6,125.7c-0.1,0.1,0.1,0.3,0.2,0.3"/>
<path class="st6" d="M351,128.7c-0.1,0.1-0.1,0.2-0.3,0.3"/>
<path class="st5" d="M335,114.8c3.5,2.1,2.6,6.3,1.2,8.4"/>
<line class="st0" x1="172.8" y1="157.8" x2="180" y2="156.1"/>
</svg>
