<?xml version="1.0" encoding="UTF-8" standalone="no"?>
<!-- Generator: Adobe Illustrator 23.0.3, SVG Export Plug-In . SVG Version: 6.00 Build 0)  -->

<svg
   xmlns:dc="http://purl.org/dc/elements/1.1/"
   xmlns:cc="http://creativecommons.org/ns#"
   xmlns:rdf="http://www.w3.org/1999/02/22-rdf-syntax-ns#"
   xmlns:svg="http://www.w3.org/2000/svg"
   xmlns="http://www.w3.org/2000/svg"
   xmlns:sodipodi="http://sodipodi.sourceforge.net/DTD/sodipodi-0.dtd"
   xmlns:inkscape="http://www.inkscape.org/namespaces/inkscape"
   version="1.1"
   id="Слой_1"
   x="0px"
   y="0px"
   viewBox="0 0 500 600"
   style="enable-background:new 0 0 500 600;"
   xml:space="preserve"
   inkscape:version="0.48.2 r9819"
   width="100%"
   height="100%"
   sodipodi:docname="kt-05_sheme.svg"><metadata
   id="metadata523"><rdf:RDF><cc:Work
       rdf:about=""><dc:format>image/svg+xml</dc:format><dc:type
         rdf:resource="http://purl.org/dc/dcmitype/StillImage" /></cc:Work></rdf:RDF></metadata><defs
   id="defs521" /><sodipodi:namedview
   pagecolor="#ffffff"
   bordercolor="#666666"
   borderopacity="1"
   objecttolerance="10"
   gridtolerance="10"
   guidetolerance="10"
   inkscape:pageopacity="0"
   inkscape:pageshadow="2"
   inkscape:window-width="1920"
   inkscape:window-height="1137"
   id="namedview519"
   showgrid="false"
   inkscape:zoom="0.55625733"
   inkscape:cx="122.11974"
   inkscape:cy="71.07676"
   inkscape:window-x="-8"
   inkscape:window-y="-8"
   inkscape:window-maximized="1"
   inkscape:current-layer="g497" />
<style
   type="text/css"
   id="style3">
	.st0{fill:none;stroke:#4C86B9;stroke-width:0.9553;stroke-miterlimit:3.864;}
	.st1{fill:none;stroke:#4C86B9;stroke-width:0.5732;stroke-miterlimit:3.864;}
	.st2{fill:none;stroke:#4C86B9;stroke-width:0.573;stroke-linecap:round;stroke-linejoin:round;stroke-miterlimit:3.864;}
	.st3{fill:#4C86B9;}
	.st4{fill:none;stroke:#4C86B9;stroke-width:0.5732;stroke-linecap:round;stroke-linejoin:round;stroke-miterlimit:3.864;}
	
		.st5{fill:none;stroke:#4C86B9;stroke-width:0.5732;stroke-linecap:round;stroke-linejoin:round;stroke-miterlimit:3.864;stroke-dasharray:5.797,3.8863;}
</style>
<line
   class="st0"
   x1="192.4"
   y1="218.8"
   x2="384.8"
   y2="156.3"
   id="line5" />
<line
   class="st0"
   x1="192.1"
   y1="246.7"
   x2="243.3"
   y2="230.4"
   id="line7" />
<line
   class="st0"
   x1="319.5"
   y1="205.9"
   x2="334.6"
   y2="200.9"
   id="line9" />
<line
   class="st0"
   x1="334.6"
   y1="200.9"
   x2="385"
   y2="156.3"
   id="line11" />
<line
   class="st0"
   x1="205.5"
   y1="198.2"
   x2="372.6"
   y2="144"
   id="line13" />
<line
   class="st0"
   x1="154"
   y1="169.2"
   x2="319"
   y2="115.8"
   id="line15" />
<line
   class="st0"
   x1="318.7"
   y1="115.6"
   x2="354.2"
   y2="123.4"
   id="line17" />
<line
   class="st0"
   x1="363.9"
   y1="130.8"
   x2="372.7"
   y2="144.3"
   id="line19" />
<line
   class="st0"
   x1="195.8"
   y1="185.7"
   x2="205.5"
   y2="198.2"
   id="line21" />
<line
   class="st0"
   x1="205.5"
   y1="198.2"
   x2="205.2"
   y2="200.9"
   id="line23" />
<line
   class="st0"
   x1="205.3"
   y1="201"
   x2="174.9"
   y2="210.4"
   id="line25" />
<line
   class="st0"
   x1="158.2"
   y1="167.9"
   x2="179.3"
   y2="172.6"
   id="line27" />
<line
   class="st0"
   x1="157.6"
   y1="167.9"
   x2="130.3"
   y2="184.1"
   id="line29" />
<line
   class="st0"
   x1="179.3"
   y1="172.6"
   x2="152"
   y2="189.4"
   id="line31" />
<line
   class="st0"
   x1="130.1"
   y1="184.4"
   x2="152"
   y2="189.4"
   id="line33" />
<line
   class="st0"
   x1="372.7"
   y1="144.3"
   x2="372.9"
   y2="146.3"
   id="line35" />
<line
   class="st0"
   x1="372.9"
   y1="146.3"
   x2="402.9"
   y2="136.1"
   id="line37" />
<line
   class="st0"
   x1="205.2"
   y1="200.9"
   x2="372.7"
   y2="146.3"
   id="line39" />
<line
   class="st0"
   x1="174.1"
   y1="206.5"
   x2="204.6"
   y2="197.3"
   id="line41" />
<line
   class="st0"
   x1="196.2"
   y1="185.4"
   x2="363.9"
   y2="130.8"
   id="line43" />
<line
   class="st0"
   x1="187.3"
   y1="176.9"
   x2="352.5"
   y2="123.2"
   id="line45" />
<line
   class="st0"
   x1="161.9"
   y1="168.8"
   x2="322"
   y2="116.5"
   id="line47" />
<line
   class="st0"
   x1="180.8"
   y1="174.7"
   x2="152.3"
   y2="189.3"
   id="line49" />
<line
   class="st0"
   x1="179.3"
   y1="172.6"
   x2="180.3"
   y2="174.7"
   id="line51" />
<line
   class="st0"
   x1="127.4"
   y1="187.4"
   x2="146.6"
   y2="191.5"
   id="line53" />
<line
   class="st0"
   x1="152"
   y1="189.4"
   x2="146.6"
   y2="191.5"
   id="line55" />
<line
   class="st0"
   x1="130.1"
   y1="184.4"
   x2="127.4"
   y2="187.4"
   id="line57" />
<line
   class="st0"
   x1="160"
   y1="172.2"
   x2="145.3"
   y2="181.3"
   id="line59" />
<line
   class="st0"
   x1="168.2"
   y1="174.2"
   x2="153.3"
   y2="183.3"
   id="line61" />
<line
   class="st0"
   x1="145.3"
   y1="181.3"
   x2="153.3"
   y2="183.3"
   id="line63" />
<line
   class="st0"
   x1="155.2"
   y1="175.3"
   x2="162.4"
   y2="177.3"
   id="line65" />
<line
   class="st0"
   x1="160.2"
   y1="172.2"
   x2="168.2"
   y2="174.2"
   id="line67" />
<line
   class="st0"
   x1="150"
   y1="178.7"
   x2="157.4"
   y2="180.7"
   id="line69" />
<line
   class="st0"
   x1="294.9"
   y1="200.6"
   x2="417.1"
   y2="227.3"
   id="line71" />
<line
   class="st0"
   x1="292.2"
   y1="212.7"
   x2="414.1"
   y2="239.6"
   id="line73" />
<line
   class="st0"
   x1="292.8"
   y1="220.7"
   x2="372"
   y2="313.7"
   id="line75" />
<line
   class="st0"
   x1="275.7"
   y1="220.8"
   x2="363.6"
   y2="321.5"
   id="line77" />
<line
   class="st0"
   x1="244.6"
   y1="227.4"
   x2="192"
   y2="364.8"
   id="line79" />
<line
   class="st0"
   x1="258.4"
   y1="227.1"
   x2="200.5"
   y2="377.8"
   id="line81" />
<line
   class="st0"
   x1="191.7"
   y1="445.5"
   x2="320.8"
   y2="398"
   id="line83" />
<line
   class="st0"
   x1="320.8"
   y1="398"
   x2="384.9"
   y2="413.7"
   id="line85" />
<line
   class="st0"
   x1="174.9"
   y1="513.5"
   x2="402.2"
   y2="420.7"
   id="line87" />
<line
   class="st0"
   x1="174.9"
   y1="521"
   x2="402.4"
   y2="429"
   id="line89" />
<line
   class="st0"
   x1="402.4"
   y1="429"
   x2="402.4"
   y2="420.6"
   id="line91" />
<line
   class="st0"
   x1="320.8"
   y1="272.3"
   x2="320.8"
   y2="398"
   id="line93" />
<line
   class="st0"
   x1="402.3"
   y1="237.6"
   x2="402.3"
   y2="421.2"
   id="line95" />
<line
   class="st0"
   x1="402.3"
   y1="136.4"
   x2="402.3"
   y2="224.1"
   id="line97" />
<line
   class="st0"
   x1="385.1"
   y1="233.2"
   x2="385.1"
   y2="427.6"
   id="line99" />
<line
   class="st0"
   x1="385.1"
   y1="142.2"
   x2="385.1"
   y2="220.3"
   id="line101" />
<line
   class="st0"
   x1="320.8"
   y1="219"
   x2="320.8"
   y2="253.5"
   id="line103" />
<line
   class="st0"
   x1="192.3"
   y1="492"
   x2="384.8"
   y2="414"
   id="line105" />
<line
   class="st0"
   x1="192.1"
   y1="205.2"
   x2="192.1"
   y2="506.8"
   id="line107" />
<line
   class="st0"
   x1="176.3"
   y1="209.7"
   x2="176.3"
   y2="513.3"
   id="line109" />
<line
   class="st0"
   x1="139.2"
   y1="208.1"
   x2="139.2"
   y2="512.5"
   id="line111" />
<line
   class="st0"
   x1="119.3"
   y1="204.2"
   x2="119.3"
   y2="507.8"
   id="line113" />
<line
   class="st0"
   x1="105.5"
   y1="200.1"
   x2="105.5"
   y2="501.4"
   id="line115" />
<line
   class="st0"
   x1="114.7"
   y1="514.6"
   x2="143.9"
   y2="521.3"
   id="line117" />
<line
   class="st0"
   x1="143.9"
   y1="521.3"
   x2="174.9"
   y2="521"
   id="line119" />
<path
   class="st0"
   d="M105.6,501.6c0,4.2,0,6.2,0,6.2"
   id="path121" />
<path
   class="st0"
   d="M105.6,507.8c0,2,0.9,3.5,1.9,3.5"
   id="path123" />
<line
   class="st0"
   x1="107.5"
   y1="511.3"
   x2="114.7"
   y2="514.6"
   id="line125" />
<path
   class="st0"
   d="M105.3,497.8c0,6.6,0.8,6.2,2,6.2"
   id="path127" />
<path
   class="st0"
   d="M106.5,503.9c1,1.7,3.9,2.1,7.9,3.3"
   id="path129" />
<line
   class="st0"
   x1="114.4"
   y1="507.2"
   x2="145.1"
   y2="513.9"
   id="line131" />
<line
   class="st0"
   x1="174.9"
   y1="513.5"
   x2="159.1"
   y2="514.4"
   id="line133" />
<path
   class="st0"
   d="M144.9,513.4c0,0.5,6.4,1,14.2,1"
   id="path135" />
<path
   class="st0"
   d="M109.5,184.6c7.7-3.4,29.3-12.5,44.4-15.4"
   id="path137" />
<path
   class="st0"
   d="M109.5,184.6c-4.4,1.7-5.9,5.2-5.9,13"
   id="path139" />
<path
   class="st0"
   d="M103.6,197c0.6,3.8,6,5.2,15.3,7"
   id="path141" />
<path
   class="st0"
   d="M139.4,208.1c11.4,2.4,16.1,3.8,35.3,2.3"
   id="path143" />
<line
   class="st0"
   x1="113.7"
   y1="202.9"
   x2="139.4"
   y2="208.1"
   id="line145" />
<path
   class="st0"
   d="M109.1,185c14.2,3.7,24.8,6.4,50.6,10.6"
   id="path147" />
<path
   class="st0"
   d="M159.8,195.7c-6.6,3.3-7.8,4.9-12,11.1"
   id="path149" />
<path
   class="st0"
   d="M147.8,206.8c0,1.2,0,3-0.2,3"
   id="path151" />
<path
   class="st0"
   d="M160.2,195.8c4.4,5.7,7.6,7.6,13.6,10.8"
   id="path153" />
<path
   class="st0"
   d="M159.8,195.7c16.1-10.5,24.3-18.5,18.9-19.4"
   id="path155" />
<line
   class="st0"
   x1="173.9"
   y1="206.6"
   x2="176.3"
   y2="209.7"
   id="line157" />
<path
   class="st0"
   d="M243.6,229.1c-25.3-5.9,52.1-48.6,57.3-37"
   id="path159" />
<path
   class="st0"
   d="M242.3,228.5c-0.4-16.7,69.4-46,57.6-27.1"
   id="path161" />
<path
   class="st0"
   d="M255.2,220.9c6.6-6.2,15.6-11.8,23.1-14.4"
   id="path163" />
<path
   class="st0"
   d="M271.1,222.1c-4.2,2.2-6.7,3.5-12.6,5"
   id="path165" />
<path
   class="st0"
   d="M259.9,219c-2.8,1.6-7.2,3.2-15.3,3.6"
   id="path167" />
<path
   class="st0"
   d="M259.8,219.1c-0.8,15.3-13.6,14.3-15,4"
   id="path169" />
<path
   class="st0"
   d="M254.3,237.6c-2.6-2.8-7-5.4-11.5-4.9"
   id="path171" />
<path
   class="st0"
   d="M293.6,221.9c0,4.7-4.2,8.6-9.4,8.6"
   id="path173" />
<path
   class="st0"
   d="M292.2,212.7c-3.6-4.1-0.3-11.7,2.9-12"
   id="path175" />
<line
   class="st0"
   x1="270.7"
   y1="221.1"
   x2="284.5"
   y2="212"
   id="line177" />
<line
   class="st0"
   x1="270.7"
   y1="221.3"
   x2="275.9"
   y2="227"
   id="line179" />
<line
   class="st0"
   x1="285"
   y1="211.8"
   x2="290.1"
   y2="218"
   id="line181" />
<line
   class="st0"
   x1="294.9"
   y1="200.6"
   x2="285.2"
   y2="197.9"
   id="line183" />
<line
   class="st0"
   x1="294.9"
   y1="200.6"
   x2="292.9"
   y2="195.9"
   id="line185" />
<line
   class="st0"
   x1="298.4"
   y1="201.3"
   x2="295.8"
   y2="195.7"
   id="line187" />
<line
   class="st0"
   x1="275.9"
   y1="227"
   x2="279.1"
   y2="225"
   id="line189" />
<line
   class="st0"
   x1="287.8"
   y1="220.1"
   x2="290.1"
   y2="218"
   id="line191" />
<line
   class="st0"
   x1="275.8"
   y1="220.7"
   x2="283.4"
   y2="216"
   id="line193" />
<line
   class="st0"
   x1="283.6"
   y1="216.1"
   x2="287.8"
   y2="220.1"
   id="line195" />
<path
   class="st0"
   d="M286.1,198.4c6.2,9.1,0.3,13.6-1.6,13.3"
   id="path197" />
<path
   class="st0"
   d="M282.7,198.7c7.8,12.6,2.5,15.3-8.1,10.7"
   id="path199" />
<path
   class="st0"
   d="M282.7,198.7c-1.6,3.9-4.4,10-8.3,10.6"
   id="path201" />
<path
   class="st0"
   d="M275.9,227c0,0.4,3,2.7,5.6,0.5"
   id="path203" />
<path
   class="st0"
   d="M281.9,216.9c2.7,3.2-1.6,6.2-4.5,3"
   id="path205" />
<path
   class="st0"
   d="M284.5,217.4c0,2.8-3.3,5.2-6.9,5.2"
   id="path207" />
<line
   class="st0"
   x1="330.8"
   y1="113.4"
   x2="356.8"
   y2="111.6"
   id="line209" />
<line
   class="st0"
   x1="356.8"
   y1="111.6"
   x2="376.8"
   y2="116.3"
   id="line211" />
<line
   class="st0"
   x1="376.8"
   y1="116.3"
   x2="350.8"
   y2="118.2"
   id="line213" />
<line
   class="st0"
   x1="350.8"
   y1="118.2"
   x2="331.2"
   y2="113.4"
   id="line215" />
<line
   class="st0"
   x1="330.8"
   y1="113.4"
   x2="328.9"
   y2="115.5"
   id="line217" />
<line
   class="st0"
   x1="328.9"
   y1="115.5"
   x2="349.9"
   y2="120.6"
   id="line219" />
<path
   class="st0"
   d="M347.8,108c6.4,0.6,38.4,8.3,51.1,11.5"
   id="path221" />
<path
   class="st0"
   d="M398.9,119.5c5.2,3.6,4,8.4,4.2,16.4"
   id="path223" />
<line
   class="st0"
   x1="372.6"
   y1="144"
   x2="402.6"
   y2="133.6"
   id="line225" />
<path
   class="st0"
   d="M363.9,130.8c-2.7-4-6.6-6.9-10.9-7.6"
   id="path227" />
<path
   class="st0"
   d="M318.7,115.6c8.6-3.4,11.5-5,29-7.6"
   id="path229" />
<path
   class="st0"
   d="M349.9,120.6c3.9,1.5,26,1.9,51.4,1.7"
   id="path231" />
<line
   class="st0"
   x1="338.1"
   y1="114.8"
   x2="355.1"
   y2="113.8"
   id="line233" />
<line
   class="st0"
   x1="345.6"
   y1="116.6"
   x2="362.8"
   y2="115.6"
   id="line235" />
<line
   class="st0"
   x1="355.1"
   y1="113.8"
   x2="362.8"
   y2="115.6"
   id="line237" />
<line
   class="st0"
   x1="344.3"
   y1="114.5"
   x2="350.3"
   y2="116.3"
   id="line239" />
<line
   class="st0"
   x1="351.5"
   y1="114.3"
   x2="357.5"
   y2="115.8"
   id="line241" />
<path
   class="st0"
   d="M255,224.6c0,1.1-1,2-2.1,2c-1.3,0-2.1-0.9-2.1-2c0-1.1,0.9-2,2.1-2C254.1,222.6,255,223.5,255,224.6z"
   id="path243" />
<path
   class="st0"
   d="M282.4,205.9c0.7,0.9,0.8,1.8-0.2,2.5c-1,0.7-1.9,0.1-2.5-0.8c-0.7-0.9-0.9-1.8,0.1-2.6  C280.8,204.4,281.8,205,282.4,205.9z"
   id="path245" />
<path
   class="st0"
   d="M290,217.9c2.9,2.7,0.9,5.2,0.9,5.2"
   id="path247" />
<path
   class="st0"
   d="M292.8,220.7c0.4-3.3,0-4.5-3.9-8.6"
   id="path249" />
<path
   class="st0"
   d="M270.1,218.3c0.2,0.4-0.5,1.2-1.6,1.8c-1.1,0.6-2.2,0.8-2.4,0.4c-0.2-0.4,0.4-1.3,1.5-1.9  C268.8,218,269.9,217.8,270.1,218.3z"
   id="path251" />
<path
   class="st0"
   d="M272.4,213.1c0.3,0.4-0.4,1.2-1.5,1.8c-1.1,0.6-2.2,0.8-2.4,0.4c-0.3-0.4,0.4-1.2,1.6-1.8  C271.1,212.8,272.2,212.7,272.4,213.1z"
   id="path253" />
<path
   class="st0"
   d="M279.8,212.4c0.3,0.4-0.5,1.2-1.5,1.9c-1.2,0.7-2.1,0.8-2.5,0.4c-0.2-0.4,0.4-1.2,1.6-1.9  C278.5,212.2,279.6,212,279.8,212.4z"
   id="path255" />
<path
   class="st0"
   d="M195.5,185.2c-2.7-4.2-6.6-7.9-14.7-10.5"
   id="path257" />
<path
   class="st0"
   d="M200.1,379c1-2.7-4.8-5.2-8.1-5.1"
   id="path259" />
<path
   class="st0"
   d="M200.1,379c-2.5,1.1-3.9,1.1-8.1,0"
   id="path261" />
<path
   class="st0"
   d="M372.1,313.8c3.1,5.5-5.1,10-8.5,7.7"
   id="path263" />
<path
   class="st0"
   d="M417.1,227.3c5.1,3.9,1.3,13.6-3,12.3"
   id="path265" />
<path
   class="st0"
   d="M417.1,227.3c-4.4,0.2-6.7,8.4-3.5,11.9"
   id="path267" />
<path
   class="st0"
   d="M130.8,239.1c0,1.9-1.2,3.5-2.7,3.5c-1.5,0-2.7-1.6-2.7-3.5c0-2,1.2-3.5,2.7-3.5  C129.5,235.6,130.8,237.1,130.8,239.1z"
   id="path269" />
<path
   class="st0"
   d="M126.7,234.9c6.1-3,7.8,8.6,2.1,7.9"
   id="path271" />
<line
   class="st0"
   x1="287.8"
   y1="220.1"
   x2="290.8"
   y2="223.1"
   id="line273" />
<line
   class="st0"
   x1="292.2"
   y1="212.7"
   x2="285.9"
   y2="211.4"
   id="line275" />
<path
   class="st0"
   d="M243.4,224.8c0.5,2,2.4,3.5,3.7,4"
   id="path277" />
<path
   class="st0"
   d="M300.8,191.6c1.4,3,1.5,4.8,0.6,6.4"
   id="path279" />
<line
   class="st0"
   x1="126.8"
   y1="234.8"
   x2="126"
   y2="236.5"
   id="line281" />
<line
   class="st0"
   x1="127.5"
   y1="242.6"
   x2="129.4"
   y2="243"
   id="line283" />
<line
   class="st0"
   x1="127.6"
   y1="237.3"
   x2="127.6"
   y2="238.7"
   id="line285" />
<line
   class="st0"
   x1="128.2"
   y1="238.2"
   x2="128.2"
   y2="239.5"
   id="line287" />
<line
   class="st0"
   x1="127.7"
   y1="239.5"
   x2="127.9"
   y2="241"
   id="line289" />
<line
   class="st1"
   x1="96.1"
   y1="555"
   x2="176"
   y2="521.2"
   id="line291" />
<line
   class="st1"
   x1="79.5"
   y1="198.9"
   x2="79.5"
   y2="536.2"
   id="line293" />
<line
   class="st1"
   x1="142.4"
   y1="520.7"
   x2="247"
   y2="545.5"
   id="line295" />
<line
   class="st2"
   x1="402.5"
   y1="425.1"
   x2="450.6"
   y2="436.7"
   id="line297" />
<line
   class="st1"
   x1="212"
   y1="537.5"
   x2="442.3"
   y2="439"
   id="line299" />
<line
   class="st2"
   x1="290.8"
   y1="474.7"
   x2="435.3"
   y2="512.7"
   id="line301" />
<line
   class="st1"
   x1="21.9"
   y1="528.7"
   x2="103.8"
   y2="499.1"
   id="line303" />
<line
   class="st1"
   x1="37.3"
   y1="523.3"
   x2="115.7"
   y2="546.7"
   id="line305" />
<line
   class="st1"
   x1="65"
   y1="203.1"
   x2="174.9"
   y2="167.6"
   id="line307" />
<line
   class="st1"
   x1="416.4"
   y1="233.7"
   x2="435"
   y2="237.7"
   id="line309" />
<g
   id="XMLID_3_">
	<g
   id="g312">
		<path
   class="st3"
   d="M448.3,436.4l-11.2,7.2c1.5-2,1.1-3.4-1.5-3.7L448.3,436.4L448.3,436.4z"
   id="path314" />
	</g>
</g>
<g
   id="XMLID_4_">
	<g
   id="g317">
		<path
   class="st3"
   d="M212.3,537.3l11.2-7.2c-1.5,2-1.1,3.4,1.5,3.7L212.3,537.3L212.3,537.3z"
   id="path319" />
	</g>
</g>
<g
   id="XMLID_5_">
	<g
   id="g322">
		<path
   class="st3"
   d="M79.4,198.5l2,13.1c-1.2-2.2-2.7-2.4-4-0.2L79.4,198.5L79.4,198.5L79.4,198.5z"
   id="path324" />
	</g>
</g>
<g
   id="XMLID_6_">
	<g
   id="g327">
		<path
   class="st3"
   d="M79.5,535.7l-2-13.1c1.2,2.2,2.7,2.4,4,0.2L79.5,535.7L79.5,535.7z"
   id="path329" />
	</g>
</g>
<g
   id="XMLID_7_">
	<g
   id="g332">
		<path
   class="st3"
   d="M37.3,523.2l13.1,2.1c-2.5,0.5-3.1,1.8-1.4,3.8L37.3,523.2L37.3,523.2z"
   id="path334" />
	</g>
</g>
<g
   id="XMLID_8_">
	<g
   id="g337">
		<path
   class="st3"
   d="M115.3,546.6l-13.1-2.2c2.5-0.5,3.1-1.8,1.4-3.8L115.3,546.6L115.3,546.6z"
   id="path339" />
	</g>
</g>
<g
   id="g341">
	<g
   id="XMLID_1_">
		<g
   id="g344">
			<path
   class="st3"
   d="M434.8,237.4l2,13.1c-1.2-2.2-2.7-2.4-4-0.2L434.8,237.4L434.8,237.4z"
   id="path346" />
		</g>
	</g>
	<g
   id="XMLID_2_">
		<g
   id="g349">
			<path
   class="st3"
   d="M434.8,512.1l2-13.1c-1.2,2.2-2.7,2.4-4,0.2L434.8,512.1L434.8,512.1z"
   id="path351" />
		</g>
	</g>
	<line
   class="st2"
   x1="434.7"
   y1="246.7"
   x2="434.8"
   y2="505.5"
   id="line353" />
</g>
<line
   class="st4"
   x1="416.5"
   y1="106.4"
   x2="416.5"
   y2="233.7"
   id="line355" />
<line
   class="st4"
   x1="291.1"
   y1="79.1"
   x2="291.1"
   y2="185.8"
   id="line357" />
<line
   class="st1"
   x1="297.7"
   y1="80.4"
   x2="409.5"
   y2="104.9"
   id="line359" />
<g
   id="XMLID_9_">
	<g
   id="g362">
		<path
   class="st3"
   d="M416.5,106.4l-13.3-0.8c2.4-0.7,2.9-2.1,1-3.9L416.5,106.4L416.5,106.4z"
   id="path364" />
	</g>
</g>
<g
   id="XMLID_10_">
	<g
   id="g367">
		<path
   class="st3"
   d="M291.1,79.1l13.3,0.8c-2.4,0.7-2.9,2.1-1,3.9L291.1,79.1L291.1,79.1z"
   id="path369" />
	</g>
</g>
<line
   class="st1"
   x1="298.4"
   y1="46.6"
   x2="408.7"
   y2="71.1"
   id="line371" />
<g
   id="XMLID_12_">
	<g
   id="g374">
		<path
   class="st3"
   d="M416.6,72.8L403.3,72c2.4-0.7,2.9-2.1,1-3.9L416.6,72.8L416.6,72.8z"
   id="path376" />
	</g>
</g>
<g
   id="XMLID_11_">
	<g
   id="g379">
		<path
   class="st3"
   d="M290.9,44.6l13.3,0.8c-2.4,0.7-2.8,2.1-1,3.9L290.9,44.6L290.9,44.6z"
   id="path381" />
	</g>
</g>
<line
   class="st5"
   x1="291.1"
   y1="38.1"
   x2="291.1"
   y2="78.9"
   id="line383" />
<line
   class="st5"
   x1="416.5"
   y1="65.6"
   x2="416.5"
   y2="106.4"
   id="line385" />
<line
   class="st5"
   x1="435"
   y1="237.7"
   x2="462.4"
   y2="243.6"
   id="line387" />
<line
   class="st5"
   x1="435.2"
   y1="512.7"
   x2="459.9"
   y2="518.7"
   id="line389" />
<g
   id="g391">
	<g
   id="XMLID_14_">
		<g
   id="g394">
			<path
   class="st3"
   d="M460.8,242.4l2,13.1c-1.2-2.2-2.7-2.4-4-0.2L460.8,242.4L460.8,242.4z"
   id="path396" />
		</g>
	</g>
	<g
   id="XMLID_13_">
		<g
   id="g399">
			<path
   class="st3"
   d="M460.8,517.1l2-13.1c-1.2,2.2-2.7,2.4-4,0.2L460.8,517.1L460.8,517.1z"
   id="path401" />
		</g>
	</g>
	<line
   class="st2"
   x1="460.7"
   y1="251.7"
   x2="460.8"
   y2="510.5"
   id="line403" />
</g>
<g
   id="g405">
	<path
   class="st3"
   d="M62.7,381.1v2l-1.3-0.7v-2.6h12.2v1.3H62.7z"
   id="path407" />
	<path
   class="st3"
   d="M72,373.6c-1.2,0.8-2.7,1.2-4.5,1.2c-1.7,0-3.3-0.4-4.5-1.2c-1.3-0.9-1.8-2.1-1.8-3.1c0-1,0.5-2.2,1.8-3.1   c1.2-0.8,2.7-1.2,4.5-1.2c1.7,0,3.3,0.4,4.5,1.2c1.3,0.9,1.8,2.1,1.8,3.1C73.8,371.5,73.3,372.7,72,373.6z M63.8,372.6   c1,0.6,2.4,0.9,3.7,0.9c1.3,0,2.7-0.2,3.7-0.9c1-0.6,1.3-1.5,1.3-2.1c0-0.6-0.3-1.4-1.3-2.1c-1-0.6-2.4-0.9-3.7-0.9   c-1.3,0-2.7,0.2-3.7,0.9c-1,0.6-1.3,1.5-1.3,2.1C62.5,371.2,62.8,372,63.8,372.6z"
   id="path409" />
	<path
   class="st3"
   d="M64.4,363.9c-0.7,0-1.3-0.3-1.8-0.6c-1.3-0.8-1.4-2.1-1.4-2.8c0-2.3,1.6-3.4,3.3-3.4c0.9,0,2.1,0.3,2.7,1.5   c0.2-0.4,0.8-1.7,2.9-1.7c2.3,0,3.7,1.6,3.7,3.7c0,1.2-0.5,2.7-2.1,3.3c-0.4,0.2-0.8,0.3-1.3,0.3V363c0.4-0.1,0.9-0.2,1.2-0.4   c0.6-0.4,0.9-1.1,0.9-1.9c0-1.3-1.1-2.4-2.5-2.4c-0.7,0-1.6,0.3-2,1.2c-0.2,0.4-0.3,0.9-0.3,1.4h-1.2c0-0.5-0.1-1-0.3-1.4   c-0.2-0.4-0.7-1-1.8-1c-1.1,0-2.1,0.6-2.1,2c0,0.5,0.1,1.1,0.7,1.5c0.3,0.2,0.8,0.4,1.3,0.5V363.9z"
   id="path411" />
	<path
   class="st3"
   d="M72,353.2c-1.2,0.8-2.7,1.2-4.5,1.2c-1.7,0-3.3-0.4-4.5-1.2c-1.3-0.9-1.8-2.1-1.8-3.1c0-1,0.5-2.2,1.8-3.1   c1.2-0.8,2.7-1.2,4.5-1.2c1.7,0,3.3,0.4,4.5,1.2c1.3,0.9,1.8,2.1,1.8,3.1C73.8,351.1,73.3,352.3,72,353.2z M63.8,352.2   c1,0.6,2.4,0.9,3.7,0.9c1.3,0,2.7-0.2,3.7-0.9c1-0.6,1.3-1.5,1.3-2.1c0-0.6-0.3-1.4-1.3-2.1c-1-0.6-2.4-0.9-3.7-0.9   c-1.3,0-2.7,0.2-3.7,0.9c-1,0.6-1.3,1.5-1.3,2.1C62.5,350.7,62.8,351.6,63.8,352.2z"
   id="path413" />
</g>
<g
   id="g415">
	<path
   class="st3"
   d="M331.4,470.3l-1.8,0.8l0.1-1.4l2.4-1l4.8,11.2l-1.2,0.5L331.4,470.3z"
   id="path417" />
	<path
   class="st3"
   d="M340.8,466.2L339,467l0.1-1.4l2.4-1l4.8,11.2l-1.2,0.5L340.8,466.2z"
   id="path419" />
	<path
   class="st3"
   d="M352.9,461l-6,2.6l-0.5-1.1l8.1-3.5l-2.4,14.6l-1.2-0.2L352.9,461z"
   id="path421" />
	<path
   class="st3"
   d="M360.7,467.8c-1.2-0.8-2.2-2-2.9-3.6c-0.7-1.6-0.9-3.2-0.7-4.6c0.3-1.6,1.2-2.5,2.1-2.9s2.2-0.4,3.5,0.5   c1.2,0.8,2.2,2,2.9,3.6s0.9,3.2,0.7,4.6c-0.3,1.6-1.2,2.5-2.1,2.9C363.4,468.6,362.1,468.6,360.7,467.8z M358.4,459.9   c-0.2,1.2,0.1,2.6,0.7,3.7c0.5,1.2,1.3,2.4,2.3,3.1c1,0.7,1.9,0.7,2.4,0.4s1.2-0.9,1.4-2.1c0.2-1.2-0.1-2.6-0.7-3.7   s-1.3-2.4-2.3-3.1c-1-0.7-1.9-0.7-2.4-0.4C359.2,458.1,358.6,458.7,358.4,459.9z"
   id="path423" />
</g>
<g
   id="g425">
	<path
   class="st3"
   d="M49,543.7l5.7-3.6c0.4-0.3,1.5-0.9,1.9-1.3c0.7-0.6,1-1.1,1.2-1.6c0.4-1.3-0.2-2.5-1.6-3   c-0.8-0.2-1.6-0.1-2.2,0.4c-0.3,0.3-0.6,0.7-0.8,1.3l-1.3-0.4c0.4-1.2,1-1.8,1.6-2.1c0.7-0.4,1.7-0.8,3.1-0.4   c2,0.6,3.1,2.5,2.5,4.6c-0.2,0.8-0.7,1.4-1.7,2.2c-0.7,0.5-1.5,1.1-2.2,1.5l-3.2,2l4.8,1.5l-0.4,1.2L49,543.7z"
   id="path427" />
	<path
   class="st3"
   d="M66.4,545.4l1.4,0.4l-0.4,1.2l-1.4-0.4l-0.7,2.2l-1.3-0.4l0.7-2.2l-5.9-1.8l10.2-7.9L66.4,545.4z M65.2,545   l1.6-5.1l-5.2,4L65.2,545z"
   id="path429" />
	<path
   class="st3"
   d="M70.1,548.5c-0.4-1.3-0.4-3,0.2-4.6c0.5-1.7,1.4-3,2.5-3.9c1.3-1,2.6-1.1,3.5-0.8c0.9,0.3,1.9,1.1,2.4,2.6   c0.4,1.3,0.4,3-0.2,4.6s-1.4,3-2.5,3.9c-1.3,1-2.6,1.1-3.5,0.8C71.6,550.9,70.6,550.1,70.1,548.5z M73.4,541   c-0.9,0.8-1.6,2.1-1.9,3.3c-0.4,1.2-0.6,2.6-0.2,3.8c0.3,1.2,1,1.7,1.6,1.9c0.6,0.2,1.5,0.1,2.4-0.7c0.9-0.8,1.6-2.1,1.9-3.3   c0.4-1.2,0.6-2.6,0.2-3.8c-0.3-1.2-1-1.7-1.6-1.9C75.2,540.1,74.3,540.2,73.4,541z"
   id="path431" />
</g>
<g
   id="g433">
	<path
   class="st3"
   d="M324.9,37.3l-3.8-0.8l-1.3,2.4c0.2,0,0.5,0,0.8,0.1c2.4,0.5,3.5,2.6,3,5c-0.6,2.7-2.9,3.8-5.2,3.3   c-0.9-0.2-1.8-0.7-2.4-1.5c-0.3-0.4-0.6-0.9-0.8-1.4l1.2-0.5c0.1,0.4,0.3,0.8,0.6,1.1c0.4,0.5,0.9,1,1.7,1.1   c1.6,0.4,3.2-0.7,3.5-2.4c0.4-1.7-0.6-3.2-2.2-3.6c-0.4-0.1-1.2-0.2-2.4,0.3l3-5.4l4.7,1L324.9,37.3z"
   id="path435" />
	<path
   class="st3"
   d="M327.6,39.7c0.2-0.7,0.5-1.2,0.9-1.6c1-1.1,2.3-0.9,3-0.8c2.2,0.5,3,2.3,2.6,3.9c-0.2,0.9-0.8,2-2.1,2.3   c0.4,0.2,1.5,1.2,1.1,3.2c-0.5,2.2-2.4,3.2-4.4,2.8c-1.2-0.3-2.5-1.1-2.8-2.8c-0.1-0.5-0.1-0.9,0-1.3l1.3,0.3c0,0.4,0,0.9,0.2,1.3   c0.3,0.7,0.9,1.1,1.6,1.3c1.3,0.3,2.5-0.6,2.8-1.9c0.1-0.7,0.1-1.6-0.7-2.2c-0.3-0.3-0.8-0.5-1.3-0.5l0.3-1.2c0.4,0.1,1,0.2,1.4,0   c0.4-0.1,1.1-0.5,1.4-1.5c0.2-1.1-0.1-2.2-1.6-2.5c-0.5-0.1-1.1-0.1-1.7,0.3c-0.3,0.3-0.6,0.7-0.7,1.1L327.6,39.7z"
   id="path437" />
	<path
   class="st3"
   d="M336.4,49.4c-0.5-1.3-0.6-2.9-0.2-4.6c0.4-1.7,1.1-3.1,2.1-4.1c1.2-1.1,2.5-1.3,3.4-1.1c0.9,0.2,2,0.9,2.6,2.4   c0.5,1.3,0.6,2.9,0.2,4.6c-0.4,1.7-1.1,3.1-2.1,4.1c-1.2,1.1-2.5,1.3-3.4,1.1C338.1,51.7,337,50.9,336.4,49.4z M339.2,41.7   c-0.9,0.9-1.4,2.2-1.7,3.4c-0.3,1.2-0.3,2.6,0.1,3.8c0.4,1.1,1.1,1.6,1.7,1.8s1.5,0,2.3-0.9c0.9-0.9,1.4-2.2,1.7-3.4   c0.3-1.2,0.3-2.7-0.1-3.8c-0.4-1.1-1.1-1.6-1.7-1.8C340.9,40.7,340,40.8,339.2,41.7z"
   id="path439" />
	<path
   class="st3"
   d="M355,41.9c-0.5,0.8-1.1,1.7-1.6,2.9c-0.7,1.5-1.1,2.8-1.4,4.4c-0.3,1.5-0.5,2.8-0.5,4.4c0,1.2,0.1,2.3,0.2,3.5   l-1.2,0.3c-0.3-2.2-0.3-4-0.3-4.3c0-1.4,0.3-2.9,0.5-4.2c0.3-1.2,0.7-2.8,1.5-4.5c0.5-1.1,1.2-2.3,1.8-3.2L355,41.9z"
   id="path441" />
	<path
   class="st3"
   d="M357.6,48.6l6.1-4l1.8,0.4l-6.7,4.3l4.3,7.6l-1.8-0.4l-3.6-6.5l-0.4,0.3l-1.1,5.1l-1.3-0.3l2.6-11.9l1.3,0.3   L357.6,48.6z"
   id="path443" />
	<path
   class="st3"
   d="M370,47.3l-2.3,10.6l-1.3-0.3l2.3-10.6l-2.8-0.6l0.3-1.2l7,1.5l-0.3,1.2L370,47.3z"
   id="path445" />
	<path
   class="st3"
   d="M373.1,57.5c-0.5-1.3-0.6-2.9-0.2-4.6c0.4-1.7,1.1-3.1,2.1-4.1c1.2-1.1,2.5-1.3,3.4-1.1c0.9,0.2,2,0.9,2.6,2.4   c0.5,1.3,0.6,2.9,0.2,4.6c-0.4,1.7-1.1,3.1-2.1,4.1c-1.2,1.1-2.5,1.3-3.4,1.1C374.8,59.7,373.7,59,373.1,57.5z M375.8,49.7   c-0.9,0.9-1.4,2.2-1.7,3.4c-0.3,1.2-0.3,2.6,0.1,3.8c0.4,1.1,1.1,1.6,1.7,1.8c0.6,0.1,1.5,0,2.3-0.9c0.9-0.9,1.4-2.2,1.7-3.4   c0.3-1.2,0.3-2.7-0.1-3.8c-0.4-1.1-1.1-1.6-1.7-1.8C377.6,48.7,376.7,48.9,375.8,49.7z"
   id="path447" />
	<path
   class="st3"
   d="M391.5,52l-3.8-0.8l-1.3,2.4c0.2,0,0.5,0,0.8,0.1c2.4,0.5,3.5,2.6,3,5c-0.6,2.7-2.9,3.8-5.2,3.3   c-0.9-0.2-1.8-0.7-2.4-1.5c-0.3-0.4-0.6-0.9-0.8-1.4l1.2-0.5c0.1,0.4,0.3,0.8,0.6,1.1c0.4,0.5,0.9,1,1.7,1.1   c1.7,0.4,3.2-0.7,3.5-2.4c0.4-1.7-0.6-3.2-2.2-3.6c-0.4-0.1-1.2-0.2-2.4,0.3l3-5.4l4.7,1L391.5,52z"
   id="path449" />
	<path
   class="st3"
   d="M395.9,50.3c0.1,1,0.3,2.4,0.3,3.6c0,1.9-0.3,3.5-0.5,4.7c-0.3,1.3-0.7,2.8-1.3,4.1c-0.1,0.3-0.8,1.9-2,3.8   l-1-0.8c0.6-1,1.1-2,1.6-3.1c0.7-1.5,1.1-2.8,1.4-4.3c0.3-1.5,0.5-3,0.5-4.6c0-1.3-0.1-2.4-0.2-3.3L395.9,50.3z"
   id="path451" />
</g>
<g
   id="g453">
	<path
   class="st3"
   d="M320.9,69.8l-3.8-0.8l-1.3,2.4c0.2,0,0.5,0,0.8,0.1c2.4,0.5,3.5,2.6,3,5c-0.6,2.7-2.9,3.8-5.2,3.3   c-0.9-0.2-1.8-0.7-2.4-1.5c-0.3-0.4-0.6-0.9-0.8-1.4l1.2-0.5c0.1,0.4,0.3,0.8,0.6,1.1c0.4,0.5,0.9,1,1.7,1.1   c1.6,0.4,3.2-0.7,3.5-2.4c0.4-1.7-0.6-3.2-2.2-3.6c-0.4-0.1-1.2-0.2-2.4,0.3l3-5.4l4.7,1L320.9,69.8z"
   id="path455" />
	<path
   class="st3"
   d="M327.1,71.2l-2-0.4l1-1.1l2.6,0.6l-2.6,11.9l-1.3-0.3L327.1,71.2z"
   id="path457" />
	<path
   class="st3"
   d="M332.4,81.9c-0.5-1.3-0.6-2.9-0.2-4.6c0.4-1.7,1.1-3.1,2.1-4.1c1.2-1.1,2.5-1.3,3.4-1.1c0.9,0.2,2,0.9,2.6,2.4   c0.5,1.3,0.6,2.9,0.2,4.6c-0.4,1.7-1.1,3.1-2.1,4.1c-1.2,1.1-2.5,1.3-3.4,1.1C334.1,84.1,333,83.4,332.4,81.9z M335.1,74.1   c-0.9,0.9-1.4,2.2-1.7,3.4c-0.3,1.2-0.3,2.6,0.1,3.8c0.4,1.1,1.1,1.6,1.7,1.8s1.5,0,2.3-0.9c0.9-0.9,1.4-2.2,1.7-3.4   c0.3-1.2,0.3-2.7-0.1-3.8c-0.4-1.1-1.1-1.6-1.7-1.8C336.9,73.1,336,73.2,335.1,74.1z"
   id="path459" />
	<path
   class="st3"
   d="M351,74.3c-0.5,0.8-1.1,1.7-1.6,2.9c-0.7,1.5-1.1,2.8-1.4,4.4c-0.3,1.5-0.5,2.8-0.5,4.4c0,1.2,0.1,2.3,0.2,3.5   l-1.2,0.3c-0.3-2.2-0.3-4-0.3-4.3c0-1.4,0.3-2.9,0.5-4.2c0.3-1.2,0.7-2.8,1.5-4.5c0.5-1.1,1.2-2.3,1.8-3.2L351,74.3z"
   id="path461" />
	<path
   class="st3"
   d="M353.6,81.1l6.1-4l1.8,0.4l-6.7,4.3l4.3,7.6l-1.8-0.4l-3.6-6.5l-0.4,0.3l-1.1,5.1l-1.3-0.3l2.6-11.9l1.3,0.3   L353.6,81.1z"
   id="path463" />
	<path
   class="st3"
   d="M366,79.8l-2.3,10.6l-1.3-0.3l2.3-10.6l-2.8-0.6l0.3-1.2l7,1.5l-0.3,1.2L366,79.8z"
   id="path465" />
	<path
   class="st3"
   d="M369.1,89.9c-0.5-1.3-0.6-2.9-0.2-4.6c0.4-1.7,1.1-3.1,2.1-4.1c1.2-1.1,2.5-1.3,3.4-1.1c0.9,0.2,2,0.9,2.6,2.4   c0.5,1.3,0.6,2.9,0.2,4.6c-0.4,1.7-1.1,3.1-2.1,4.1c-1.2,1.1-2.5,1.3-3.4,1.1C370.8,92.2,369.7,91.4,369.1,89.9z M371.8,82.2   c-0.9,0.9-1.4,2.2-1.7,3.4c-0.3,1.2-0.3,2.6,0.1,3.8c0.4,1.1,1.1,1.6,1.7,1.8c0.6,0.1,1.5,0,2.3-0.9c0.9-0.9,1.4-2.2,1.7-3.4   c0.3-1.2,0.3-2.7-0.1-3.8c-0.4-1.1-1.1-1.6-1.7-1.8C373.5,81.2,372.7,81.3,371.8,82.2z"
   id="path467" />
	<path
   class="st3"
   d="M387.5,84.4l-3.8-0.8l-1.3,2.4c0.2,0,0.5,0,0.8,0.1c2.4,0.5,3.5,2.6,3,5c-0.6,2.7-2.9,3.8-5.2,3.3   c-0.9-0.2-1.8-0.7-2.4-1.5c-0.3-0.4-0.6-0.9-0.8-1.4l1.2-0.5c0.1,0.4,0.3,0.8,0.6,1.1c0.4,0.5,0.9,1,1.7,1.1   c1.7,0.4,3.2-0.7,3.5-2.4c0.4-1.7-0.6-3.2-2.2-3.6c-0.4-0.1-1.2-0.2-2.4,0.3l3-5.4l4.7,1L387.5,84.4z"
   id="path469" />
	<path
   class="st3"
   d="M395.4,93.9l-5-1.1l-2.1,3l-1.4-0.3l8.1-11.3l2.5,13.6l-1.4-0.3L395.4,93.9z M395.2,92.5l-0.9-5.2l-3,4.3   L395.2,92.5z"
   id="path471" />
	<path
   class="st3"
   d="M402.8,85.2c0.1,1,0.3,2.4,0.3,3.6c0,1.9-0.3,3.5-0.5,4.7c-0.3,1.3-0.7,2.8-1.3,4.1c-0.1,0.3-0.8,1.9-2,3.8   l-1-0.8c0.6-1,1.1-2,1.6-3.1c0.7-1.5,1.1-2.8,1.4-4.3c0.3-1.5,0.5-3,0.5-4.6c0-1.3-0.1-2.4-0.2-3.3L402.8,85.2z"
   id="path473" />
</g>
<g
   id="g475">
	<path
   class="st3"
   d="M424.2,400.4c1.9,0,3.6,1.2,3.6,3.7c0,2.4-1.7,3.7-3.6,3.7c-1.3,0-2.4-0.6-3-1.8c-0.6,1-1.5,1.5-2.7,1.5   c-1.7,0-3.4-1.2-3.4-3.3c0-2.2,1.6-3.3,3.4-3.3c1.1,0,2.1,0.5,2.7,1.5C421.7,401,422.9,400.4,424.2,400.4z M418.6,402   c-1.3,0-2.2,1-2.2,2c0,1.1,0.8,2,2.2,2c1.2,0,2.1-0.9,2.1-2C420.7,402.9,419.8,402,418.6,402z M424.1,401.7c-1.4,0-2.3,1-2.3,2.3   s0.9,2.3,2.3,2.3c1.4,0,2.4-1,2.4-2.3C426.5,402.7,425.5,401.7,424.1,401.7z"
   id="path477" />
	<path
   class="st3"
   d="M424.2,390.2c1.9,0,3.6,1.2,3.6,3.7c0,2.4-1.7,3.7-3.6,3.7c-1.3,0-2.4-0.6-3-1.8c-0.6,1-1.5,1.5-2.7,1.5   c-1.7,0-3.4-1.2-3.4-3.3c0-2.2,1.6-3.3,3.4-3.3c1.1,0,2.1,0.5,2.7,1.5C421.7,390.7,422.9,390.2,424.2,390.2z M418.6,391.8   c-1.3,0-2.2,1-2.2,2c0,1.1,0.8,2,2.2,2c1.2,0,2.1-0.9,2.1-2C420.7,392.7,419.8,391.8,418.6,391.8z M424.1,391.5   c-1.4,0-2.3,1-2.3,2.3c0,1.4,0.9,2.3,2.3,2.3c1.4,0,2.4-1,2.4-2.3C426.5,392.4,425.5,391.5,424.1,391.5z"
   id="path479" />
	<path
   class="st3"
   d="M424,380.9v-1.5h1.2v1.5h2.3v1.3h-2.3v6.1l-10.5-7.5H424z M424,382.2h-5.4l5.4,3.8V382.2z"
   id="path481" />
	<path
   class="st3"
   d="M414.6,370.2c0.9,0.3,1.9,0.7,3.2,0.9c1.6,0.3,3,0.4,4.6,0.4c1.5,0,2.8-0.1,4.4-0.4c1.2-0.2,2.3-0.6,3.3-0.9   l0.5,1.1c-2.1,0.8-3.8,1.1-4.1,1.2c-1.3,0.3-2.9,0.4-4.2,0.4c-1.2,0-2.9-0.1-4.7-0.5c-1.2-0.3-2.5-0.7-3.5-1.1L414.6,370.2z"
   id="path483" />
	<path
   class="st3"
   d="M420.6,366.1l-5.2-5.1v-1.8l5.7,5.6l6.5-5.8v1.8l-5.6,4.9l0.3,0.3h5.2v1.3h-12.2v-1.3H420.6z"
   id="path485" />
	<path
   class="st3"
   d="M416.6,354.3h10.9v1.3h-10.9v2.9h-1.3v-7.2h1.3V354.3z"
   id="path487" />
	<path
   class="st3"
   d="M425.9,349.1c-1.2,0.8-2.7,1.2-4.5,1.2c-1.7,0-3.3-0.4-4.5-1.2c-1.3-0.9-1.8-2.1-1.8-3.1c0-1,0.5-2.2,1.8-3.1   c1.2-0.8,2.7-1.2,4.5-1.2c1.7,0,3.3,0.4,4.5,1.2c1.3,0.9,1.8,2.1,1.8,3.1C427.7,347,427.3,348.2,425.9,349.1z M417.8,348.1   c1,0.6,2.4,0.9,3.7,0.9c1.3,0,2.7-0.2,3.7-0.9c1-0.6,1.3-1.5,1.3-2.1c0-0.6-0.3-1.4-1.3-2.1c-1-0.6-2.4-0.9-3.7-0.9   c-1.3,0-2.7,0.2-3.7,0.9c-1,0.6-1.3,1.5-1.3,2.1C416.4,346.7,416.7,347.5,417.8,348.1z"
   id="path489" />
	<path
   class="st3"
   d="M416.6,332.3v3.8l2.6,0.8c-0.1-0.2-0.1-0.5-0.1-0.8c0-2.4,1.8-4,4.2-4c2.7,0,4.4,2,4.4,4.4   c0,1-0.3,1.9-0.9,2.7c-0.3,0.4-0.7,0.8-1.2,1l-0.8-1.1c0.4-0.2,0.7-0.4,1-0.8c0.4-0.5,0.7-1.1,0.7-1.9c0-1.7-1.4-2.9-3.1-2.9   c-1.8,0-3,1.2-3,2.9c0,0.4,0.1,1.2,0.8,2.3l-5.9-1.7v-4.8H416.6z"
   id="path491" />
	<path
   class="st3"
   d="M424.1,322.6v5.1l3.4,1.4v1.5l-12.7-5.5l12.7-5.4v1.5L424.1,322.6z M422.8,323.1l-4.9,2l4.9,2V323.1z"
   id="path493" />
	<path
   class="st3"
   d="M414,317.3c1-0.4,2.3-0.8,3.5-1.1c1.8-0.4,3.5-0.5,4.7-0.5c1.3,0,2.9,0.1,4.2,0.4c0.3,0.1,2,0.4,4.1,1.2   l-0.5,1.1c-1.1-0.4-2.2-0.7-3.3-0.9c-1.6-0.3-3-0.4-4.4-0.4c-1.6,0-3,0.1-4.6,0.4c-1.2,0.3-2.3,0.6-3.2,0.9L414,317.3z"
   id="path495" />
</g>
<g
   id="g497">
	<path
   class="st3"
   d="m 451.8,399.1 c 1.9,0 3.6,1.2 3.6,3.7 0,2.4 -1.7,3.7 -3.6,3.7 -1.3,0 -2.4,-0.6 -3,-1.8 -0.6,1 -1.5,1.5 -2.7,1.5 -1.7,0 -3.4,-1.2 -3.4,-3.3 0,-2.2 1.6,-3.3 3.4,-3.3 1.1,0 2.1,0.5 2.7,1.5 0.6,-1.4 1.7,-2 3,-2 z m -5.6,1.6 c -1.3,0 -2.2,1 -2.2,2 0,1.1 0.8,2 2.2,2 1.2,0 2.1,-0.9 2.1,-2 0,-1.1 -0.9,-2 -2.1,-2 z m 5.6,-0.2 c -1.4,0 -2.3,1 -2.3,2.3 0,1.3 0.9,2.3 2.3,2.3 1.4,0 2.4,-1 2.4,-2.3 0,-1.4 -1,-2.3 -2.4,-2.3 z"
   id="path499"
   inkscape:connector-curvature="0"
   style="fill:#4c86b9" />
	<path
   class="st3"
   d="m 444.3,389.9 v 6.6 H 443 v -8.8 l 12.5,8 -0.7,1 -10.5,-6.8 z"
   id="path501"
   inkscape:connector-curvature="0"
   style="fill:#4c86b9" />
	<path
   class="st3"
   d="m 444.3,378.9 v 3.8 l 2.6,0.8 c -0.1,-0.2 -0.1,-0.5 -0.1,-0.8 0,-2.4 1.8,-4 4.2,-4 2.7,0 4.4,2 4.4,4.4 0,1 -0.3,1.9 -0.9,2.7 -0.3,0.4 -0.7,0.8 -1.2,1 l -0.8,-1.1 c 0.4,-0.2 0.7,-0.4 1,-0.8 0.4,-0.5 0.7,-1.1 0.7,-1.9 0,-1.7 -1.4,-2.9 -3.1,-2.9 -1.8,0 -3,1.2 -3,2.9 0,0.4 0.1,1.2 0.8,2.3 l -5.9,-1.7 v -4.8 h 1.3 z"
   id="path503"
   inkscape:connector-curvature="0"
   style="fill:#4c86b9" />
	<path
   class="st3"
   d="m 442.2,368.9 c 0.9,0.3 1.9,0.7 3.2,0.9 1.6,0.3 3,0.4 4.6,0.4 1.5,0 2.8,-0.1 4.4,-0.4 1.2,-0.2 2.3,-0.6 3.3,-0.9 l 0.5,1.1 c -2.1,0.8 -3.8,1.1 -4.1,1.2 -1.3,0.3 -2.9,0.4 -4.2,0.4 -1.2,0 -2.9,-0.1 -4.7,-0.5 -1.2,-0.3 -2.5,-0.7 -3.5,-1.1 l 0.5,-1.1 z"
   id="path505"
   inkscape:connector-curvature="0"
   style="fill:#4c86b9" />
	<path
   class="st3"
   d="m 448.3,364.9 -5.2,-5.1 V 358 l 5.7,5.6 6.5,-5.8 v 1.8 l -5.6,4.9 0.3,0.3 h 5.2 v 1.3 H 443 v -1.3 h 5.3 z"
   id="path507"
   inkscape:connector-curvature="0"
   style="fill:#4c86b9" />
	<path
   class="st3"
   d="m 444.3,353.1 h 10.9 v 1.3 h -10.9 v 2.9 H 443 v -7.2 h 1.3 v 3 z"
   id="path509"
   inkscape:connector-curvature="0"
   style="fill:#4c86b9" />
	<path
   class="st3"
   d="m 453.6,347.9 c -1.2,0.8 -2.7,1.2 -4.5,1.2 -1.8,0 -3.3,-0.4 -4.5,-1.2 -1.3,-0.9 -1.8,-2.1 -1.8,-3.1 0,-1 0.5,-2.2 1.8,-3.1 1.2,-0.8 2.7,-1.2 4.5,-1.2 1.8,0 3.3,0.4 4.5,1.2 1.3,0.9 1.8,2.1 1.8,3.1 0,1 -0.5,2.2 -1.8,3.1 z m -8.2,-1 c 1,0.6 2.4,0.9 3.7,0.9 1.3,0 2.7,-0.2 3.7,-0.9 1,-0.6 1.3,-1.5 1.3,-2.1 0,-0.6 -0.3,-1.4 -1.3,-2.1 -1,-0.6 -2.4,-0.9 -3.7,-0.9 -1.3,0 -2.7,0.2 -3.7,0.9 -1,0.6 -1.3,1.5 -1.3,2.1 0,0.6 0.3,1.4 1.3,2.1 z"
   id="path511"
   inkscape:connector-curvature="0"
   style="fill:#4c86b9" />
	<path
   class="st3"
   d="m 444.3,331.1 v 3.8 l 2.6,0.8 c -0.1,-0.2 -0.1,-0.5 -0.1,-0.8 0,-2.4 1.8,-4 4.2,-4 2.7,0 4.4,2 4.4,4.4 0,1 -0.3,1.9 -0.9,2.7 -0.3,0.4 -0.7,0.8 -1.2,1 l -0.8,-1.1 c 0.4,-0.2 0.7,-0.4 1,-0.8 0.4,-0.5 0.7,-1.1 0.7,-1.9 0,-1.7 -1.4,-2.9 -3.1,-2.9 -1.8,0 -3,1.2 -3,2.9 0,0.4 0.1,1.2 0.8,2.3 L 443,335.8 V 331 h 1.3 z"
   id="path513"
   inkscape:connector-curvature="0"
   style="fill:#4c86b9" />
	
	<path
   class="st3"
   d="m 441.7,326 c 1,-0.4 2.3,-0.8 3.5,-1.1 1.8,-0.4 3.5,-0.5 4.7,-0.5 1.3,0 2.9,0.1 4.2,0.4 0.3,0.1 2,0.4 4.1,1.2 l -0.5,1.1 c -1.1,-0.4 -2.2,-0.7 -3.3,-0.9 -1.6,-0.3 -3,-0.4 -4.4,-0.4 -1.6,0 -3,0.1 -4.6,0.4 -1.2,0.3 -2.3,0.6 -3.2,0.9 l -0.5,-1.1 z"
   id="path517"
   inkscape:connector-curvature="0"
   style="fill:#4c86b9" />
</g>
</svg>