<?xml version="1.0" encoding="utf-8"?>
<!-- Generator: Adobe Illustrator 23.0.3, SVG Export Plug-In . SVG Version: 6.00 Build 0)  -->
<svg version="1.1" id="Слой_1" xmlns="http://www.w3.org/2000/svg" xmlns:xlink="http://www.w3.org/1999/xlink" x="0px" y="0px"
	 viewBox="0 0 500 600" style="enable-background:new 0 0 500 600;" xml:space="preserve">
<style type="text/css">
	.st0{fill:none;stroke:#4C86B9;stroke-width:0.75;}
	.st1{fill:none;stroke:#4C86B9;stroke-width:0.5;}
	.st2{fill:none;stroke:#4C86B9;stroke-width:0.4;}
	.st3{fill:#4C86B9;}
	.st4{fill:none;stroke:#4C86B9;stroke-width:0.48;stroke-linecap:round;stroke-linejoin:round;stroke-miterlimit:10;}
	.st5{fill:none;stroke:#4C86B9;stroke-width:0.24;stroke-linecap:round;stroke-linejoin:round;stroke-miterlimit:10;}
	.st6{fill:none;stroke:#4C86B9;stroke-width:0.5;stroke-linecap:round;stroke-linejoin:round;stroke-miterlimit:10;}
</style>
<line class="st0" x1="174.6" y1="157.6" x2="329.5" y2="120.1"/>
<line class="st0" x1="217.3" y1="191.1" x2="367.3" y2="150.9"/>
<line class="st0" x1="216.2" y1="205.1" x2="367.3" y2="163.1"/>
<line class="st0" x1="193" y1="238.1" x2="248.7" y2="222.1"/>
<line class="st0" x1="312.8" y1="204.1" x2="325.7" y2="200.3"/>
<line class="st0" x1="192.3" y1="235.5" x2="192.3" y2="334.9"/>
<line class="st0" x1="192.3" y1="360.5" x2="192.3" y2="492"/>
<line class="st0" x1="296.2" y1="227.8" x2="296.2" y2="450.3"/>
<line class="st0" x1="309" y1="214.4" x2="309" y2="225.3"/>
<line class="st0" x1="325.7" y1="200.9" x2="325.7" y2="209.2"/>
<line class="st0" x1="309" y1="240.7" x2="309" y2="455.4"/>
<line class="st0" x1="325.7" y1="221.4" x2="325.7" y2="241.3"/>
<line class="st0" x1="325.7" y1="258.6" x2="325.7" y2="450.3"/>
<line class="st0" x1="176.9" y1="496.4" x2="325.7" y2="450.3"/>
<line class="st0" x1="192.3" y1="483" x2="296.2" y2="450.3"/>
<line class="st0" x1="207.7" y1="517.6" x2="356.4" y2="468.9"/>
<line class="st0" x1="208.3" y1="522.7" x2="357.1" y2="474"/>
<line class="st0" x1="176.3" y1="238.7" x2="176.3" y2="496.6"/>
<line class="st0" x1="162.2" y1="189.4" x2="162.2" y2="505.4"/>
<line class="st0" x1="211.5" y1="176.5" x2="360.9" y2="138.7"/>
<line class="st0" x1="202.6" y1="168.2" x2="354.5" y2="130.4"/>
<line class="st0" x1="162.2" y1="505.4" x2="208.3" y2="522.7"/>
<line class="st0" x1="176.9" y1="496.4" x2="207.7" y2="517.6"/>
<line class="st0" x1="207.7" y1="517.6" x2="207.7" y2="522.9"/>
<line class="st0" x1="325.7" y1="450.3" x2="356.4" y2="468.9"/>
<line class="st0" x1="356.4" y1="468.9" x2="356.4" y2="474"/>
<line class="st0" x1="296.2" y1="450.3" x2="309" y2="455.4"/>
<line class="st0" x1="176.6" y1="239.4" x2="192.3" y2="235.5"/>
<line class="st0" x1="176.3" y1="238.7" x2="216.4" y2="204.6"/>
<line class="st0" x1="173.6" y1="170.5" x2="169.1" y2="203.6"/>
<line class="st0" x1="189.9" y1="176.9" x2="185.1" y2="210.5"/>
<line class="st0" x1="174" y1="170" x2="189.9" y2="176.4"/>
<line class="st0" x1="185.1" y1="210" x2="190.6" y2="216.5"/>
<line class="st0" x1="169.1" y1="203.6" x2="173.2" y2="210.2"/>
<line class="st0" x1="173.2" y1="210.2" x2="190.6" y2="216.5"/>
<line class="st0" x1="190.6" y1="216.5" x2="195.2" y2="215.5"/>
<line class="st0" x1="195.2" y1="215.5" x2="199.7" y2="216.5"/>
<line class="st0" x1="199.7" y1="216.5" x2="213.8" y2="204.4"/>
<line class="st0" x1="189.8" y1="177.3" x2="189.8" y2="209.7"/>
<line class="st0" x1="189.8" y1="209.2" x2="195.2" y2="215.5"/>
<line class="st0" x1="169.1" y1="199.5" x2="159.6" y2="184.7"/>
<line class="st0" x1="175" y1="159.8" x2="199.7" y2="169.7"/>
<line class="st0" x1="176.5" y1="158" x2="202.4" y2="168.5"/>
<line class="st0" x1="214.6" y1="191.8" x2="213.8" y2="204.4"/>
<line class="st0" x1="217.3" y1="191.1" x2="216.2" y2="205.1"/>
<line class="st0" x1="214.3" y1="189.9" x2="207.4" y2="177.8"/>
<line class="st0" x1="217.3" y1="191.1" x2="209.8" y2="177.2"/>
<line class="st0" x1="217.7" y1="190.6" x2="210.9" y2="176.7"/>
<line class="st0" x1="166.7" y1="161.5" x2="159.6" y2="169"/>
<line class="st0" x1="179" y1="174.5" x2="178.1" y2="181"/>
<line class="st0" x1="177.9" y1="182.3" x2="176.8" y2="190.3"/>
<line class="st0" x1="176.6" y1="191.5" x2="175.6" y2="197.9"/>
<line class="st0" x1="184" y1="176.2" x2="183" y2="182.8"/>
<line class="st0" x1="182.5" y1="185.5" x2="181.6" y2="191.6"/>
<line class="st0" x1="181.4" y1="193.7" x2="180.5" y2="199.6"/>
<line class="st0" x1="179" y1="174.5" x2="184" y2="176.2"/>
<line class="st0" x1="177.9" y1="181.8" x2="182.9" y2="183.6"/>
<line class="st0" x1="177.9" y1="183.4" x2="182.9" y2="185.2"/>
<line class="st0" x1="176.8" y1="190.3" x2="181.7" y2="192.1"/>
<line class="st0" x1="176.3" y1="191.8" x2="181.3" y2="193.5"/>
<line class="st0" x1="175.5" y1="198.5" x2="180.5" y2="200.3"/>
<line class="st1" x1="169.9" y1="167.6" x2="194.4" y2="177.3"/>
<line class="st1" x1="169.4" y1="169.2" x2="193.9" y2="178.6"/>
<line class="st1" x1="169.7" y1="204" x2="185.1" y2="210"/>
<line class="st1" x1="170.4" y1="205.2" x2="185.7" y2="211.3"/>
<line class="st0" x1="189.8" y1="209.2" x2="193" y2="210.5"/>
<line class="st1" x1="193" y1="210.5" x2="203.5" y2="200.7"/>
<line class="st1" x1="194.1" y1="211" x2="204.2" y2="201.7"/>
<line class="st1" x1="203.5" y1="200.7" x2="203.7" y2="194"/>
<line class="st1" x1="203.7" y1="192.6" x2="198.4" y2="183.3"/>
<line class="st1" x1="205" y1="192.1" x2="199.4" y2="182.3"/>
<line class="st1" x1="204.8" y1="200.6" x2="205" y2="193.9"/>
<line class="st1" x1="205" y1="192.1" x2="214.8" y2="190.2"/>
<line class="st1" x1="205.1" y1="193.7" x2="214.9" y2="191.8"/>
<line class="st1" x1="204.8" y1="200.6" x2="213.3" y2="203.8"/>
<line class="st1" x1="204.2" y1="201.7" x2="212.7" y2="204.9"/>
<line class="st1" x1="203.7" y1="192.6" x2="203.7" y2="193.8"/>
<line class="st1" x1="203.7" y1="192.6" x2="204.7" y2="192.1"/>
<line class="st1" x1="203.7" y1="194" x2="205.4" y2="193.8"/>
<line class="st1" x1="205" y1="191.9" x2="205.1" y2="193.7"/>
<line class="st1" x1="213.8" y1="188.9" x2="214.4" y2="190.1"/>
<line class="st0" x1="214.4" y1="190.1" x2="214.6" y2="191.8"/>
<line class="st1" x1="214.4" y1="190.1" x2="216.2" y2="189.3"/>
<line class="st1" x1="214.4" y1="191.6" x2="216.6" y2="191.6"/>
<line class="st1" x1="213.7" y1="204.1" x2="216.4" y2="204.9"/>
<line class="st1" x1="213.2" y1="204.8" x2="214.8" y2="205.6"/>
<line class="st1" x1="199.2" y1="216.5" x2="201" y2="217.1"/>
<line class="st1" x1="193.3" y1="210.8" x2="199.4" y2="215.7"/>
<line class="st1" x1="192.2" y1="210.9" x2="197.6" y2="215.4"/>
<line class="st1" x1="198.4" y1="183.3" x2="207.3" y2="178.2"/>
<line class="st1" x1="207.9" y1="177.8" x2="210.2" y2="177.4"/>
<line class="st1" x1="194" y1="178.9" x2="194.4" y2="177.3"/>
<line class="st1" x1="194.4" y1="177.3" x2="199.7" y2="169.7"/>
<line class="st0" x1="159.4" y1="182.7" x2="159.2" y2="176.2"/>
<line class="st0" x1="159.6" y1="169" x2="159.3" y2="173.7"/>
<line class="st1" x1="164.5" y1="168.6" x2="166.4" y2="162.3"/>
<line class="st1" x1="169.2" y1="169" x2="174.9" y2="160"/>
<line class="st1" x1="164.5" y1="168.9" x2="159.7" y2="173.9"/>
<line class="st1" x1="164.9" y1="170.1" x2="159.8" y2="175.7"/>
<path class="st0" d="M160,185.3c-0.6-1-0.6-1.5-0.5-3.1"/>
<path class="st0" d="M159.3,176.7c0-2,0-3.6,0-3.6"/>
<path class="st0" d="M166.3,161.8c1.9-1.3,5.2-2.8,9.1-1.9"/>
<path class="st0" d="M166.7,161.5c2.5-2.2,7.6-4.6,10-3.5"/>
<path class="st0" d="M207.6,178.4c-2.1-4.6-4.4-7.3-8.4-8.8"/>
<path class="st0" d="M211,177c-2-4.9-5.4-7.1-9.5-8.9"/>
<path class="st0" d="M209.9,177.7c-2.2-4.4-4.6-6.8-9.9-9.1"/>
<line class="st0" x1="200.5" y1="168.9" x2="174" y2="158.1"/>
<path class="st1" d="M199.6,182.6c-1.8-3.2-3.1-4.3-5.2-5.3"/>
<path class="st1" d="M198.6,183.7c-1.8-3.2-3.1-4.3-5.2-5.3"/>
<path class="st1" d="M164.5,168.9c1.2-1.4,3.6-1.8,5.1-1.4"/>
<path class="st1" d="M164.4,170.5c1.2-1.4,3.6-1.8,5.1-1.4"/>
<line class="st1" x1="164.9" y1="170.1" x2="164.8" y2="168.7"/>
<line class="st1" x1="183.4" y1="166.4" x2="182" y2="168.6"/>
<line class="st1" x1="183.1" y1="167.9" x2="182.3" y2="169.1"/>
<line class="st1" x1="181.9" y1="167.5" x2="181.3" y2="168.6"/>
<line class="st1" x1="182.1" y1="167.5" x2="181.7" y2="166.6"/>
<line class="st1" x1="183.1" y1="167.9" x2="184" y2="167.4"/>
<line class="st1" x1="184.7" y1="167.5" x2="183.8" y2="169.3"/>
<line class="st1" x1="184.4" y1="167.7" x2="185.3" y2="167.8"/>
<line class="st1" x1="185.3" y1="167.8" x2="184.7" y2="168.9"/>
<line class="st1" x1="185.3" y1="168.5" x2="184.7" y2="169.7"/>
<line class="st1" x1="185.3" y1="168.1" x2="186" y2="168.5"/>
<line class="st1" x1="184.7" y1="169.4" x2="185.3" y2="169.7"/>
<line class="st1" x1="186" y1="168.5" x2="185.4" y2="169.9"/>
<line class="st1" x1="186.3" y1="168.5" x2="186.7" y2="168.8"/>
<line class="st1" x1="186.7" y1="168.8" x2="185.9" y2="170.2"/>
<line class="st1" x1="187.3" y1="168.8" x2="186.5" y2="170.1"/>
<line class="st1" x1="187.6" y1="169.2" x2="188.1" y2="169.3"/>
<line class="st1" x1="186.5" y1="170.1" x2="187.3" y2="170.7"/>
<line class="st1" x1="188" y1="169.6" x2="187.8" y2="170.8"/>
<line class="st1" x1="187.8" y1="170.1" x2="187.3" y2="170.7"/>
<line class="st1" x1="187.6" y1="169.2" x2="187" y2="170.3"/>
<line class="st1" x1="203.4" y1="200.3" x2="204.9" y2="200.3"/>
<line class="st1" x1="203.5" y1="200.7" x2="203.9" y2="201.6"/>
<line class="st1" x1="204.8" y1="200.6" x2="204.7" y2="201.6"/>
<path class="st0" d="M223.7,224.4c0.5,1,2.8,0.8,5-0.2c2.1-1,4-2.8,3.5-3.9c-0.5-1-3.1-0.8-5.2,0.2
	C224.9,221.6,223.3,223.4,223.7,224.4z"/>
<path class="st1" d="M225.5,223.4c0.2,0.5,1,0.5,2.6-0.2c1.7-0.8,2.5-1.5,2.3-1.9c-0.2-0.5-1-0.4-2.7,0.4
	C226.1,222.4,225.3,223,225.5,223.4z"/>
<line class="st0" x1="227.8" y1="221.2" x2="227.8" y2="222.9"/>
<path class="st0" d="M296.7,190.7c-4.3-5.3-47.9,13.4-46.4,21.2"/>
<path class="st0" d="M297.1,193.3c-4.3-5.3-46.2,12.9-44.7,20.7"/>
<path class="st0" d="M296.8,190.3c0,1.1,0.6,3,0.7,3"/>
<path class="st0" d="M252.5,214.1c0-1.2-1.2-2.7-2.4-2.7"/>
<path class="st0" d="M297.3,193c0,2.2-0.4,4.3-0.5,4.3"/>
<path class="st0" d="M264.3,220.2c-2.8-3.8,16.6-13.8,23.2-14.1"/>
<path class="st0" d="M264.3,220.2c6,2.5,25.1-7.2,28.1-12.1"/>
<path class="st1" d="M288.7,206.9c-4.8,0.2-22.9,9.2-22.8,12.2"/>
<path class="st1" d="M265.9,219.1c3.3,2.5,21.2-6.6,25.2-11.2"/>
<path class="st0" d="M277.3,213.9c0.1,0.3,0.9,0.2,1.7-0.2c0.8-0.4,1.4-0.9,1.2-1.2c-0.1-0.3-0.9-0.2-1.7,0.2
	C277.7,213.1,277.2,213.6,277.3,213.9z"/>
<path class="st1" d="M295.6,179c-0.5,1.8-1.8,3.5-3.3,3.1c-1.6-0.4-2.4-2.2-2-4.1c0.5-1.8,2.2-3,3.7-2.5
	C295.6,175.9,296.1,177.2,295.6,179z"/>
<path class="st0" d="M295.6,179.4c-0.7,2.5-2.7,4-4.5,3.6c-1.8-0.5-2.8-2.9-2.1-5.3c0.7-2.5,2.7-4,4.5-3.6
	C295.3,174.5,296.3,176.9,295.6,179.4z"/>
<path class="st1" d="M291.6,178.7c0.6-1.4,1.5-1.4,2.4-0.6"/>
<path class="st1" d="M291.5,178.9c0.9,1.2,2,1.1,2.5-0.2"/>
<line class="st1" x1="293.6" y1="178.3" x2="294.5" y2="178"/>
<line class="st1" x1="291.8" y1="178.9" x2="291" y2="178.9"/>
<path class="st1" d="M263.5,219.9c-1.4-3.6-5.1-7.1-10.9-6.2"/>
<path class="st1" d="M284,205.1c-4.2-5.4,1.5-10.4,4-10.9"/>
<line class="st0" x1="325.4" y1="200.5" x2="367.3" y2="163.1"/>
<line class="st0" x1="366.9" y1="163.4" x2="367.3" y2="151.3"/>
<line class="st0" x1="329.5" y1="120.1" x2="331.6" y2="121"/>
<path class="st0" d="M354.5,130.4c5.1,3,8.1,8.5,12.8,20.5"/>
<path class="st0" d="M366.9,163.4c2.4-0.2,3.4-9,3.2-13.1"/>
<path class="st0" d="M370.1,150.3c-2.4-7.5-7.1-16.6-14.7-20.9"/>
<line class="st1" x1="367.3" y1="150.9" x2="369.4" y2="150.4"/>
<line class="st1" x1="369.4" y1="150.4" x2="367.8" y2="151.7"/>
<line class="st1" x1="361.8" y1="138.5" x2="363.5" y2="137.2"/>
<line class="st1" x1="361.2" y1="138.6" x2="363.8" y2="138.5"/>
<line class="st0" x1="355.8" y1="129.5" x2="332.3" y2="120.1"/>
<path class="st0" d="M333.2,120.7c0-0.2-3.2-1.6-4.3-0.6"/>
<line class="st0" x1="252.6" y1="213.7" x2="180.8" y2="357.6"/>
<line class="st0" x1="262.8" y1="219.5" x2="191" y2="363.4"/>
<line class="st0" x1="287.9" y1="194.2" x2="395.9" y2="236.3"/>
<line class="st0" x1="283.5" y1="204.8" x2="391.4" y2="246.9"/>
<line class="st0" x1="283.3" y1="215.3" x2="379.6" y2="312.6"/>
<line class="st0" x1="292.4" y1="208.2" x2="387.5" y2="304.1"/>
<path class="st0" d="M387.5,304.1c1.3,4.6-5.1,8.8-8,8.1"/>
<path class="st0" d="M389.9,239.6c-1.3,2.8-0.6,6.3,1.5,7.3c2.1,1,4.7-1.1,6-3.8c1.3-2.8,0.7-5.8-1.4-6.7
	C393.9,235.3,391.2,236.8,389.9,239.6z"/>
<path class="st0" d="M186.7,359c2.9,1.4,4.9,3.3,4.4,4.3c-0.5,1-3.2,0.7-6.1-0.6c-2.9-1.4-4.9-3.3-4.4-4.3
	C181,357.4,183.7,357.7,186.7,359z"/>
<path class="st1" d="M197.5,499.5c-0.2,1.4-3,2-6.1,1.5c-3.1-0.6-5.5-2.1-5.2-3.5c0.2-1.4,3-2,6.1-1.5
	C195.4,496.5,197.7,498.1,197.5,499.5z"/>
<path class="st1" d="M215.5,511.3c-0.2,1.4-3,2-6.1,1.5c-3.1-0.6-5.5-2.1-5.2-3.5c0.2-1.4,3-2,6.1-1.5
	C213.4,508.4,215.8,510,215.5,511.3z"/>
<path class="st1" d="M329.3,458.3c-0.2,1.4-3,2-6.1,1.5c-3.1-0.6-5.5-2.1-5.2-3.5c0.2-1.4,3-2,6.1-1.5
	C327.2,455.4,329.6,457,329.3,458.3z"/>
<path class="st1" d="M346.8,468.8c-0.2,1.4-3,2-6.1,1.5c-3.1-0.6-5.5-2.1-5.2-3.5c0.2-1.4,3-2,6.1-1.5
	C344.7,465.9,347.1,467.4,346.8,468.8z"/>
<line class="st2" x1="176.3" y1="97.5" x2="176.3" y2="207.3"/>
<line class="st2" x1="357.1" y1="62.4" x2="357.1" y2="130"/>
<line class="st2" x1="293.4" y1="151.3" x2="293.4" y2="183"/>
<line class="st2" x1="393.8" y1="156.9" x2="393.8" y2="242.4"/>
<line class="st2" x1="293.4" y1="162" x2="393.4" y2="197.5"/>
<line class="st2" x1="231" y1="103.9" x2="231" y2="144.5"/>
<line class="st2" x1="231.4" y1="109.5" x2="393" y2="163.7"/>
<line class="st2" x1="176.7" y1="105" x2="357.1" y2="67.1"/>
<line class="st2" x1="109.4" y1="179.8" x2="192.7" y2="159.4"/>
<line class="st2" x1="125.4" y1="516.7" x2="162.4" y2="505"/>
<line class="st2" x1="171" y1="535.6" x2="208.3" y2="523.2"/>
<line class="st2" x1="208.3" y1="522.9" x2="250.9" y2="538.9"/>
<line class="st2" x1="357.5" y1="474.2" x2="394.6" y2="486.4"/>
<line class="st2" x1="241.3" y1="535.1" x2="388.7" y2="484.8"/>
<line class="st2" x1="323.6" y1="511.2" x2="415.1" y2="547"/>
<line class="st2" x1="407.1" y1="240.9" x2="407.1" y2="543.1"/>
<line class="st2" x1="117.4" y1="178.5" x2="117.4" y2="534.2"/>
<line class="st2" x1="131.4" y1="514.6" x2="177.6" y2="533"/>
<g id="XMLID_28_">
	<g>
		<path class="st3" d="M117.4,177.9l1.4,9.6c-0.7-1.1-1.9-1.4-2.8-0.4l1.3-9.2L117.4,177.9z"/>
	</g>
</g>
<g id="XMLID_27_">
	<g>
		<path class="st3" d="M176.4,105l9.1-3.3c-0.9,0.9-0.9,2.1,0.2,2.8l-9.3,0.6L176.4,105z"/>
	</g>
</g>
<g id="XMLID_26_">
	<g>
		<path class="st3" d="M356.9,67.2l-9.1,3.3c0.9-0.9,0.9-2.1-0.2-2.8l9.3-0.6L356.9,67.2z"/>
	</g>
</g>
<g id="XMLID_25_">
	<g>
		<path class="st3" d="M231,109.3l9.5,2c-1.3,0.3-1.9,1.3-1.3,2.5l-8.2-4.4L231,109.3z"/>
	</g>
</g>
<g id="XMLID_24_">
	<g>
		<path class="st3" d="M393.5,164l-9.5-2c1.3-0.3,1.9-1.3,1.3-2.5l8.2,4.4L393.5,164z"/>
	</g>
</g>
<g id="XMLID_23_">
	<g>
		<path class="st3" d="M393.6,197.7l-9.5-2c1.3-0.3,1.9-1.3,1.3-2.5l8.2,4.4L393.6,197.7z"/>
	</g>
</g>
<g id="XMLID_22_">
	<g>
		<path class="st3" d="M293.9,162.1l9.5,2c-1.3,0.3-1.9,1.3-1.3,2.5l-8.2-4.4L293.9,162.1z"/>
	</g>
</g>
<g id="XMLID_21_">
	<g>
		<path class="st3" d="M407.1,543.4l-1.4-9.6c0.7,1.1,1.9,1.4,2.8,0.4l-1.3,9.2L407.1,543.4z"/>
	</g>
</g>
<g id="XMLID_20_">
	<g>
		<path class="st3" d="M407.1,240.8l1.4,9.6c-0.7-1.1-1.9-1.4-2.8-0.4l1.3-9.2L407.1,240.8z"/>
	</g>
</g>
<g id="XMLID_19_">
	<g>
		<path class="st3" d="M241.5,535.1l8.4-4.9c-0.8,1.1-0.6,2.2,0.7,2.8l-9,2.2L241.5,535.1z"/>
	</g>
</g>
<g id="XMLID_18_">
	<g>
		<path class="st3" d="M388.5,484.7l-8.6,4.6c0.8-1,0.6-2.2-0.6-2.8l9.1-1.9L388.5,484.7z"/>
	</g>
</g>
<g id="XMLID_17_">
	<g>
		<path class="st3" d="M117.4,534.2l-1.4-9.6c0.7,1.1,1.9,1.4,2.8,0.4l-1.3,9.2L117.4,534.2z"/>
	</g>
</g>
<g id="XMLID_16_">
	<g>
		<path class="st3" d="M131.7,514.7l9.4,2.5c-1.3,0.2-2,1.2-1.5,2.4l-8-4.8L131.7,514.7z"/>
	</g>
</g>
<g id="XMLID_15_">
	<g>
		<path class="st3" d="M177.9,533.2l-9.4-2.5c1.3-0.2,2-1.2,1.5-2.4l8,4.8L177.9,533.2z"/>
	</g>
</g>
<g>
	<g>
		<path class="st3" d="M101.3,351.5v1.9l-1.2-0.7v-2.5h11.6v1.3H101.3z"/>
		<path class="st3" d="M110.1,344.3c-1.1,0.8-2.6,1.2-4.3,1.2s-3.2-0.4-4.3-1.2c-1.3-0.9-1.7-2-1.7-2.9c0-0.9,0.5-2.1,1.7-2.9
			c1.1-0.8,2.6-1.2,4.3-1.2s3.2,0.4,4.3,1.2c1.3,0.9,1.7,2,1.7,2.9C111.9,342.3,111.4,343.5,110.1,344.3z M102.3,343.4
			c1,0.6,2.3,0.8,3.5,0.8s2.5-0.2,3.5-0.8c1-0.6,1.3-1.4,1.3-2c0-0.6-0.3-1.4-1.3-2c-1-0.6-2.3-0.8-3.5-0.8s-2.5,0.2-3.5,0.8
			c-1,0.6-1.3,1.4-1.3,2C101,342,101.3,342.8,102.3,343.4z"/>
		<path class="st3" d="M108.3,329v-1.4h1.2v1.4h2.2v1.3h-2.2v5.9L99.4,329H108.3z M108.3,330.3h-5.1l5.1,3.6V330.3z"/>
		<path class="st3" d="M108.5,318.4c1.8,0,3.4,1.2,3.4,3.5c0,2.3-1.6,3.5-3.4,3.5c-1.3,0-2.3-0.6-2.8-1.7c-0.5,0.9-1.5,1.4-2.5,1.4
			c-1.7,0-3.2-1.1-3.2-3.2c0-2.1,1.6-3.2,3.2-3.2c1.1,0,2,0.5,2.5,1.4C106.1,318.9,107.2,318.4,108.5,318.4z M103.1,319.9
			c-1.3,0-2.1,0.9-2.1,2c0,1,0.8,2,2.1,2c1.1,0,2-0.8,2-2C105.1,320.8,104.2,319.9,103.1,319.9z M108.4,319.7
			c-1.3,0-2.2,0.9-2.2,2.2c0,1.3,0.9,2.2,2.2,2.2c1.3,0,2.3-0.9,2.3-2.2C110.7,320.6,109.7,319.7,108.4,319.7z"/>
	</g>
</g>
<g>
	<g>
		<path class="st3" d="M402.7,375.5l-3.7-2.6c0.1,0.3,0.2,0.7,0.2,1c0,2.2-1.7,3.7-3.8,3.7c-2.3,0-4-1.6-4-3.9c0-2.7,2.1-4,4-4
			c0.4,0,1.5,0.1,2.7,0.9l5.5,3.9L402.7,375.5z M395.3,376.3c1.6,0,2.7-1.1,2.7-2.7s-1.2-2.7-2.7-2.7c-1.6,0-2.8,1.1-2.8,2.7
			C392.5,375.2,393.7,376.3,395.3,376.3z"/>
		<path class="st3" d="M392.7,364.2v1.9l-1.2-0.7v-2.5h11.6v1.3H392.7z"/>
		<path class="st3" d="M392,352.2l3.7,2.6c-0.1-0.3-0.2-0.7-0.2-1c0-2.2,1.7-3.7,3.8-3.7c2.3,0,4,1.6,4,3.9c0,2.7-2.1,4-4,4
			c-0.4,0-1.4-0.1-2.7-0.9l-5.5-3.9L392,352.2z M399.4,351.4c-1.6,0-2.7,1.1-2.7,2.7s1.2,2.7,2.7,2.7c1.6,0,2.8-1.1,2.8-2.7
			C402.2,352.5,401,351.4,399.4,351.4z"/>
	</g>
</g>
<g>
	<g>
		<path class="st3" d="M223.8,79.2l-1.8,4.2c0.3-0.2,0.6-0.3,1-0.4c2.2-0.5,4,0.9,4.4,3c0.5,2.3-0.8,4.2-3,4.7
			c-2.6,0.6-4.3-1.3-4.7-3c-0.1-0.4-0.2-1.4,0.4-2.8l2.7-6.2L223.8,79.2z M226.2,86.3c-0.3-1.5-1.7-2.4-3.2-2.1
			c-1.5,0.3-2.4,1.7-2,3.2c0.3,1.5,1.6,2.5,3.2,2.2C225.7,89.2,226.5,87.8,226.2,86.3z"/>
		<path class="st3" d="M235.7,84.6l1.4-0.3l0.2,1.2l-1.4,0.3l0.5,2.1l-1.2,0.3l-0.5-2.1l-5.7,1.2l4.9-11.3L235.7,84.6z M234.5,84.9
			l-1.1-5l-2.5,5.8L234.5,84.9z"/>
		<path class="st3" d="M240.2,85.5c-1-0.9-1.7-2.3-2-3.9c-0.3-1.6-0.3-3.2,0.2-4.4c0.6-1.4,1.6-2.1,2.5-2.3c0.9-0.2,2.1,0,3.2,1.1
			c1,0.9,1.7,2.3,2,3.9c0.3,1.6,0.3,3.2-0.2,4.4c-0.6,1.4-1.6,2.1-2.5,2.3C242.6,86.8,241.4,86.6,240.2,85.5z M239.6,77.7
			c-0.4,1.1-0.3,2.4-0.1,3.6c0.3,1.2,0.7,2.4,1.6,3.3c0.8,0.8,1.6,1,2.2,0.9c0.6-0.1,1.3-0.6,1.7-1.7c0.4-1.1,0.3-2.4,0.1-3.6
			c-0.3-1.2-0.7-2.4-1.6-3.3c-0.8-0.8-1.6-1-2.2-0.9C240.7,76.1,239.9,76.6,239.6,77.7z"/>
	</g>
</g>
<g>
	<g>
		<path class="st3" d="M275.9,108.2l-3.7,2.7c0.3,0,0.7,0.1,1,0.2c2.1,0.7,3,2.8,2.3,4.8c-0.8,2.2-2.9,3.2-5,2.5
			c-2.5-0.9-3.1-3.3-2.5-5c0.1-0.4,0.6-1.3,1.8-2.2l5.5-3.9L275.9,108.2z M274.3,115.5c0.5-1.5-0.2-2.9-1.7-3.4
			c-1.5-0.5-2.9,0.2-3.4,1.7c-0.5,1.5,0.1,3,1.6,3.5C272.4,117.8,273.8,117,274.3,115.5z"/>
		<path class="st3" d="M284.1,119.5c-0.6,1.7-2.2,2.8-4.4,2.1c-2.2-0.8-2.8-2.7-2.2-4.4c0.4-1.2,1.3-2,2.6-2.1
			c-0.7-0.8-0.8-1.8-0.5-2.9c0.5-1.6,2.1-2.7,4-2s2.5,2.5,1.9,4.1c-0.4,1-1.1,1.7-2.1,2C284.4,117.1,284.5,118.3,284.1,119.5z
			 M282.9,119c0.4-1.2-0.2-2.4-1.4-2.8s-2.4,0.1-2.8,1.4c-0.4,1.3,0.1,2.4,1.4,2.9C281.3,120.9,282.5,120.3,282.9,119z M284.4,113.9
			c0.4-1.2-0.2-2.2-1.2-2.6s-2.1,0.1-2.5,1.3c-0.4,1.1,0.1,2.2,1.2,2.5S284,115,284.4,113.9z"/>
		<path class="st3" d="M288.6,115.2c0.2-0.6,0.6-1.1,1.1-1.4c1.1-0.9,2.3-0.6,3-0.4c2,0.7,2.6,2.5,2,4c-0.3,0.8-0.9,1.8-2.2,2
			c0.3,0.3,1.3,1.3,0.6,3.2c-0.7,2.1-2.6,2.8-4.5,2.2c-1.1-0.4-2.3-1.3-2.4-2.9c0-0.5,0-0.8,0.2-1.2l1.2,0.4c-0.1,0.4-0.1,0.9,0,1.2
			c0.2,0.7,0.7,1.2,1.4,1.4c1.2,0.4,2.5-0.3,2.9-1.5c0.2-0.6,0.3-1.6-0.4-2.2c-0.3-0.3-0.7-0.5-1.2-0.7l0.4-1.1
			c0.4,0.2,0.9,0.3,1.3,0.2c0.4-0.1,1.1-0.3,1.5-1.3c0.3-1,0.1-2.1-1.2-2.5c-0.4-0.2-1-0.3-1.6,0.1c-0.3,0.2-0.6,0.6-0.8,1
			L288.6,115.2z"/>
	</g>
</g>
<g>
	<path class="st3" d="M363.2,179.8l1.3,0.5l-0.4,1.1l-1.3-0.5l-0.7,2.1l-1.2-0.4l0.7-2.1l-5.6-1.9l10-7.2L363.2,179.8z M362,179.4
		l1.7-4.9l-5.1,3.7L362,179.4z"/>
	<path class="st3" d="M372.4,183l1.3,0.5l-0.4,1.1l-1.3-0.5l-0.7,2.1l-1.2-0.4l0.7-2.1l-5.6-1.9l10-7.2L372.4,183z M371.2,182.6
		l1.7-4.9l-5.1,3.7L371.2,182.6z"/>
	<path class="st3" d="M377.7,179.2c0.2-0.6,0.6-1.1,1.1-1.4c1.1-0.9,2.3-0.6,3-0.4c2,0.7,2.6,2.5,2,4c-0.3,0.8-0.9,1.8-2.2,2
		c0.3,0.3,1.3,1.3,0.6,3.2c-0.7,2.1-2.6,2.8-4.5,2.2c-1.1-0.4-2.3-1.3-2.4-2.9c0-0.5,0-0.8,0.2-1.2l1.2,0.4c-0.1,0.4-0.1,0.9,0,1.2
		c0.2,0.7,0.7,1.2,1.4,1.4c1.2,0.4,2.5-0.3,2.9-1.5c0.2-0.6,0.3-1.6-0.4-2.2c-0.3-0.3-0.7-0.5-1.2-0.7l0.4-1.1
		c0.4,0.2,0.9,0.3,1.3,0.2c0.4-0.1,1.1-0.3,1.5-1.3c0.3-1,0.1-2.1-1.2-2.5c-0.4-0.2-1-0.3-1.6,0.1c-0.3,0.2-0.6,0.6-0.8,1
		L377.7,179.2z"/>
</g>
<g>
	<path class="st3" d="M148.5,517.6l5.7-3.1c0.4-0.2,1.5-0.8,1.9-1.1c0.8-0.5,1.1-1,1.2-1.4c0.5-1.2-0.1-2.4-1.3-2.9
		c-0.8-0.3-1.5-0.2-2.1,0.3c-0.3,0.2-0.6,0.6-0.8,1.2l-1.2-0.5c0.5-1.1,1.1-1.6,1.7-1.9c0.6-0.3,1.6-0.6,3-0.1
		c1.9,0.7,2.8,2.6,2.1,4.5c-0.3,0.7-0.7,1.3-1.7,2c-0.7,0.5-1.5,0.9-2.2,1.2l-3.2,1.7l4.5,1.7l-0.4,1.1L148.5,517.6z"/>
	<path class="st3" d="M159.2,520.1c-0.3-1.3-0.1-2.9,0.5-4.4s1.5-2.8,2.6-3.6c1.3-0.9,2.5-0.9,3.4-0.6c0.8,0.3,1.8,1.2,2.1,2.7
		c0.3,1.3,0.1,2.9-0.5,4.4c-0.6,1.5-1.5,2.8-2.6,3.6c-1.3,0.9-2.5,0.9-3.4,0.6C160.5,522.4,159.6,521.6,159.2,520.1z M162.9,513.1
		c-0.9,0.7-1.6,1.9-2.1,3c-0.4,1.1-0.7,2.5-0.5,3.6c0.2,1.1,0.8,1.7,1.4,1.9c0.5,0.2,1.4,0.2,2.3-0.5c0.9-0.7,1.6-1.9,2.1-3
		c0.4-1.1,0.7-2.5,0.5-3.6c-0.2-1.1-0.8-1.7-1.4-1.9C164.7,512.4,163.8,512.4,162.9,513.1z"/>
	<path class="st3" d="M168.3,523.5c-0.3-1.3-0.1-2.9,0.5-4.4s1.5-2.8,2.6-3.6c1.3-0.9,2.5-0.9,3.4-0.6c0.8,0.3,1.8,1.2,2.1,2.7
		c0.3,1.3,0.1,2.9-0.5,4.4c-0.6,1.5-1.5,2.8-2.6,3.6c-1.3,0.9-2.5,0.9-3.4,0.6C169.6,525.9,168.7,525.1,168.3,523.5z M172,516.6
		c-0.9,0.7-1.6,1.9-2.1,3c-0.4,1.1-0.7,2.5-0.5,3.6c0.2,1.1,0.8,1.7,1.4,1.9c0.5,0.2,1.4,0.2,2.3-0.5c0.9-0.7,1.6-1.9,2.1-3
		c0.4-1.1,0.7-2.5,0.5-3.6c-0.2-1.1-0.8-1.7-1.4-1.9C173.8,515.9,172.9,515.9,172,516.6z"/>
</g>
<g>
	<g>
		<path class="st3" d="M304.8,498.7l-3.5,1.1l0.1,2.6c0.2-0.1,0.4-0.2,0.7-0.3c2.2-0.7,4.1,0.5,4.8,2.7c0.8,2.5-0.5,4.6-2.7,5.3
			c-0.9,0.3-1.8,0.3-2.7-0.1c-0.4-0.2-0.9-0.5-1.3-0.8l0.7-1c0.3,0.3,0.6,0.5,1,0.7c0.6,0.2,1.2,0.3,2,0.1c1.5-0.5,2.3-2.1,1.8-3.7
			c-0.5-1.6-2-2.4-3.6-1.8c-0.4,0.1-1.1,0.4-1.9,1.4l-0.1-5.9l4.3-1.4L304.8,498.7z"/>
		<path class="st3" d="M315.5,502.6l1.3-0.4l0.4,1.1l-1.3,0.4l0.7,2.1l-1.2,0.4l-0.7-2.1l-5.6,1.8l3.7-11.8L315.5,502.6z M314.3,503
			l-1.6-4.9l-1.9,6L314.3,503z"/>
		<path class="st3" d="M324.8,499.6l1.3-0.4l0.4,1.1l-1.3,0.4l0.7,2.1l-1.2,0.4l-0.7-2.1l-5.6,1.8l3.7-11.8L324.8,499.6z M323.6,500
			l-1.6-4.9l-1.9,6L323.6,500z"/>
	</g>
</g>
<line class="st4" x1="203.4" y1="158.2" x2="203.4" y2="158.1"/>
<line class="st4" x1="195" y1="157.4" x2="195" y2="157.5"/>
<line class="st4" x1="195" y1="157.5" x2="195" y2="157.3"/>
<line class="st4" x1="195" y1="157.3" x2="195.1" y2="156.9"/>
<line class="st4" x1="195.1" y1="156.9" x2="195.5" y2="156.6"/>
<line class="st4" x1="195.5" y1="156.6" x2="196" y2="156.4"/>
<line class="st4" x1="196" y1="156.4" x2="196.7" y2="156.2"/>
<line class="st4" x1="196.7" y1="156.2" x2="197.5" y2="156.1"/>
<line class="st4" x1="197.5" y1="156.1" x2="198.4" y2="156.1"/>
<line class="st4" x1="198.4" y1="156.1" x2="199.3" y2="156.2"/>
<line class="st4" x1="199.3" y1="156.2" x2="200.3" y2="156.3"/>
<line class="st4" x1="200.3" y1="156.3" x2="201.1" y2="156.5"/>
<line class="st4" x1="201.1" y1="156.5" x2="201.9" y2="156.7"/>
<line class="st4" x1="201.9" y1="156.7" x2="202.6" y2="157"/>
<line class="st4" x1="202.6" y1="157" x2="203.1" y2="157.3"/>
<line class="st4" x1="203.1" y1="157.3" x2="203.3" y2="157.6"/>
<line class="st4" x1="203.3" y1="157.6" x2="203.4" y2="158"/>
<line class="st4" x1="203.4" y1="158.2" x2="203.4" y2="158"/>
<line class="st4" x1="203.4" y1="158" x2="203" y2="162.6"/>
<line class="st4" x1="202.4" y1="155.3" x2="211" y2="159.1"/>
<line class="st4" x1="210.8" y1="161.1" x2="204" y2="162.8"/>
<line class="st4" x1="210.8" y1="161.1" x2="211.4" y2="160.9"/>
<line class="st4" x1="211.4" y1="160.9" x2="211.8" y2="160.7"/>
<line class="st4" x1="211.8" y1="160.7" x2="212.1" y2="160.4"/>
<line class="st4" x1="212.1" y1="160.4" x2="212.1" y2="160"/>
<line class="st4" x1="212.1" y1="160" x2="211.9" y2="159.7"/>
<line class="st4" x1="211.9" y1="159.7" x2="211.5" y2="159.4"/>
<line class="st4" x1="211.5" y1="159.4" x2="211" y2="159.1"/>
<line class="st4" x1="202.4" y1="155.3" x2="201.7" y2="155"/>
<line class="st4" x1="201.7" y1="155" x2="200.8" y2="154.8"/>
<line class="st4" x1="200.8" y1="154.8" x2="199.9" y2="154.6"/>
<line class="st4" x1="199.9" y1="154.6" x2="199" y2="154.5"/>
<line class="st4" x1="199" y1="154.5" x2="198.1" y2="154.5"/>
<line class="st4" x1="198.1" y1="154.5" x2="197.2" y2="154.6"/>
<line class="st4" x1="197.2" y1="154.6" x2="196.5" y2="154.7"/>
<line class="st5" x1="210.8" y1="161.1" x2="210.8" y2="161.1"/>
<line class="st4" x1="183.5" y1="157.7" x2="196.5" y2="154.7"/>
<line class="st4" x1="193.6" y1="161.9" x2="183.5" y2="157.9"/>
<line class="st4" x1="194.6" y1="161.9" x2="195" y2="157.3"/>
<line class="st4" x1="193.6" y1="161.9" x2="193.9" y2="162"/>
<line class="st4" x1="193.9" y1="162" x2="194.2" y2="162"/>
<line class="st4" x1="194.2" y1="162" x2="194.5" y2="162"/>
<line class="st4" x1="194.5" y1="162" x2="194.6" y2="161.9"/>
<line class="st4" x1="203" y1="162.6" x2="203.1" y2="162.7"/>
<line class="st4" x1="203.1" y1="162.7" x2="203.3" y2="162.8"/>
<line class="st4" x1="203.3" y1="162.8" x2="203.7" y2="162.9"/>
<line class="st4" x1="203.7" y1="162.9" x2="204" y2="162.8"/>
<line class="st4" x1="183.5" y1="157.7" x2="183.3" y2="157.7"/>
<line class="st4" x1="183.3" y1="157.7" x2="183.3" y2="157.8"/>
<line class="st4" x1="183.3" y1="157.8" x2="183.5" y2="157.9"/>
<line class="st5" x1="193.6" y1="161.9" x2="193.6" y2="161.9"/>
<line class="st5" x1="183.5" y1="157.9" x2="183.5" y2="157.9"/>
<line class="st4" x1="203" y1="162.6" x2="203.4" y2="158.2"/>
<line class="st5" x1="203" y1="162.6" x2="203" y2="162.6"/>
<line class="st5" x1="204" y1="162.8" x2="204" y2="162.8"/>
<line class="st4" x1="194.6" y1="161.9" x2="194.6" y2="161.9"/>
<line class="st4" x1="212.1" y1="160.4" x2="212.1" y2="160.2"/>
<line class="st4" x1="183.3" y1="157.8" x2="183.3" y2="157.9"/>
<line class="st5" x1="211.9" y1="160.9" x2="211.9" y2="160.8"/>
<line class="st4" x1="195.3" y1="157.3" x2="194.8" y2="162.6"/>
<line class="st4" x1="203.1" y1="158" x2="202.6" y2="163.3"/>
<line class="st5" x1="202.8" y1="158.2" x2="202.6" y2="158.4"/>
<line class="st5" x1="202.6" y1="158.4" x2="202.3" y2="158.6"/>
<line class="st4" x1="203.1" y1="158" x2="203" y2="157.7"/>
<line class="st4" x1="203" y1="157.7" x2="202.8" y2="157.3"/>
<line class="st4" x1="202.8" y1="157.3" x2="202.4" y2="157"/>
<line class="st4" x1="202.4" y1="157" x2="201.7" y2="156.8"/>
<line class="st4" x1="201.7" y1="156.8" x2="201" y2="156.6"/>
<line class="st4" x1="201" y1="156.6" x2="200.2" y2="156.4"/>
<line class="st4" x1="200.2" y1="156.4" x2="199.3" y2="156.3"/>
<line class="st4" x1="199.3" y1="156.3" x2="198.5" y2="156.2"/>
<line class="st4" x1="198.5" y1="156.2" x2="197.6" y2="156.3"/>
<line class="st4" x1="197.6" y1="156.3" x2="196.9" y2="156.3"/>
<line class="st4" x1="196.9" y1="156.3" x2="196.2" y2="156.5"/>
<line class="st4" x1="196.2" y1="156.5" x2="195.7" y2="156.7"/>
<line class="st4" x1="195.7" y1="156.7" x2="195.4" y2="157"/>
<line class="st4" x1="195.4" y1="157" x2="195.3" y2="157.3"/>
<line class="st5" x1="211.9" y1="163.4" x2="211.9" y2="163.1"/>
<line class="st4" x1="182.6" y1="157.7" x2="194.8" y2="162.6"/>
<line class="st4" x1="196.3" y1="154.6" x2="182.6" y2="157.7"/>
<line class="st4" x1="202.6" y1="155.2" x2="201.8" y2="154.9"/>
<line class="st4" x1="201.8" y1="154.9" x2="200.9" y2="154.7"/>
<line class="st4" x1="200.9" y1="154.7" x2="200" y2="154.5"/>
<line class="st4" x1="200" y1="154.5" x2="199" y2="154.4"/>
<line class="st4" x1="199" y1="154.4" x2="198" y2="154.4"/>
<line class="st4" x1="198" y1="154.4" x2="197.1" y2="154.5"/>
<line class="st4" x1="197.1" y1="154.5" x2="196.3" y2="154.6"/>
<line class="st4" x1="211.2" y1="159" x2="202.6" y2="155.2"/>
<line class="st4" x1="211" y1="161.2" x2="211.7" y2="161"/>
<line class="st4" x1="211.7" y1="161" x2="212.1" y2="160.7"/>
<line class="st4" x1="212.1" y1="160.7" x2="212.4" y2="160.4"/>
<line class="st4" x1="212.4" y1="160.4" x2="212.4" y2="160.1"/>
<line class="st4" x1="212.4" y1="160.1" x2="212.2" y2="159.7"/>
<line class="st4" x1="212.2" y1="159.7" x2="211.8" y2="159.3"/>
<line class="st4" x1="211.8" y1="159.3" x2="211.2" y2="159"/>
<line class="st4" x1="202.6" y1="163.3" x2="211" y2="161.2"/>
<line class="st4" x1="213.4" y1="161" x2="213.8" y2="161.4"/>
<line class="st4" x1="213.8" y1="161.4" x2="213.8" y2="161.8"/>
<line class="st4" x1="213.8" y1="161.8" x2="213.6" y2="162.1"/>
<line class="st4" x1="213.6" y1="162.1" x2="213.3" y2="162.5"/>
<line class="st4" x1="213.3" y1="162.5" x2="212.7" y2="162.8"/>
<line class="st4" x1="212.7" y1="162.8" x2="211.9" y2="163.1"/>
<line class="st4" x1="211.9" y1="163.1" x2="198.4" y2="166.5"/>
<line class="st4" x1="197.1" y1="165.6" x2="198.5" y2="166.2"/>
<line class="st4" x1="198.5" y1="166.2" x2="199.9" y2="165.8"/>
<line class="st4" x1="199.9" y1="165.8" x2="200.5" y2="165.6"/>
<line class="st4" x1="200.5" y1="165.6" x2="201.1" y2="165.2"/>
<line class="st4" x1="201.1" y1="165.2" x2="201.7" y2="164.7"/>
<line class="st4" x1="201.7" y1="164.7" x2="202.2" y2="164.1"/>
<line class="st4" x1="202.2" y1="164.1" x2="202.6" y2="163.3"/>
<line class="st4" x1="194.8" y1="162.6" x2="195.1" y2="163.4"/>
<line class="st4" x1="195.1" y1="163.4" x2="195.5" y2="164.2"/>
<line class="st4" x1="195.5" y1="164.2" x2="196" y2="164.8"/>
<line class="st4" x1="196" y1="164.8" x2="196.5" y2="165.2"/>
<line class="st4" x1="196.5" y1="165.2" x2="197.1" y2="165.6"/>
<line class="st5" x1="211.7" y1="162.5" x2="211.2" y2="161.7"/>
<line class="st4" x1="198.4" y1="166.5" x2="198.5" y2="166.2"/>
<line class="st4" x1="180.4" y1="158.9" x2="182.6" y2="157.7"/>
<line class="st5" x1="196.5" y1="154.7" x2="196.5" y2="154.7"/>
<line class="st5" x1="183.4" y1="157.7" x2="183.4" y2="157.7"/>
<line class="st4" x1="194.6" y1="161.9" x2="195" y2="157.6"/>
<line class="st4" x1="195" y1="157.6" x2="195" y2="157.3"/>
<line class="st5" x1="211" y1="159.1" x2="211" y2="159.1"/>
<line class="st5" x1="202.4" y1="155.3" x2="202.4" y2="155.3"/>
<line class="st4" x1="202.4" y1="155.2" x2="201.7" y2="154.9"/>
<line class="st4" x1="201.7" y1="154.9" x2="200.8" y2="154.8"/>
<line class="st4" x1="200.8" y1="154.8" x2="199.9" y2="154.6"/>
<line class="st4" x1="199.9" y1="154.6" x2="199" y2="154.5"/>
<line class="st4" x1="199" y1="154.5" x2="198.1" y2="154.5"/>
<line class="st4" x1="198.1" y1="154.5" x2="197.2" y2="154.5"/>
<line class="st4" x1="197.2" y1="154.5" x2="196.5" y2="154.7"/>
<line class="st4" x1="196.5" y1="154.7" x2="183.4" y2="157.7"/>
<line class="st4" x1="183.4" y1="157.7" x2="183.3" y2="157.7"/>
<line class="st4" x1="183.3" y1="157.7" x2="183.3" y2="157.9"/>
<line class="st4" x1="183.3" y1="157.9" x2="183.4" y2="157.9"/>
<line class="st4" x1="183.4" y1="157.9" x2="193.6" y2="161.9"/>
<line class="st4" x1="193.6" y1="161.9" x2="193.9" y2="162"/>
<line class="st4" x1="193.9" y1="162" x2="194.2" y2="162"/>
<line class="st4" x1="194.2" y1="162" x2="194.5" y2="162"/>
<line class="st4" x1="194.5" y1="162" x2="194.6" y2="161.9"/>
<line class="st4" x1="194.6" y1="161.9" x2="195" y2="157.3"/>
<line class="st4" x1="195" y1="157.3" x2="195.2" y2="156.9"/>
<line class="st4" x1="195.2" y1="156.9" x2="195.5" y2="156.6"/>
<line class="st4" x1="195.5" y1="156.6" x2="196" y2="156.4"/>
<line class="st4" x1="196" y1="156.4" x2="196.7" y2="156.2"/>
<line class="st4" x1="196.7" y1="156.2" x2="197.5" y2="156.1"/>
<line class="st4" x1="197.5" y1="156.1" x2="198.4" y2="156.1"/>
<line class="st4" x1="198.4" y1="156.1" x2="199.3" y2="156.2"/>
<line class="st4" x1="199.3" y1="156.2" x2="200.3" y2="156.3"/>
<line class="st4" x1="200.3" y1="156.3" x2="201.1" y2="156.5"/>
<line class="st4" x1="201.1" y1="156.5" x2="201.9" y2="156.7"/>
<line class="st4" x1="201.9" y1="156.7" x2="202.6" y2="157"/>
<line class="st4" x1="202.6" y1="157" x2="203.1" y2="157.3"/>
<line class="st4" x1="203.1" y1="157.3" x2="203.3" y2="157.6"/>
<line class="st4" x1="203.3" y1="157.6" x2="203.4" y2="158"/>
<line class="st4" x1="203.4" y1="158" x2="203" y2="162.6"/>
<line class="st4" x1="203" y1="162.6" x2="203.1" y2="162.7"/>
<line class="st4" x1="203.1" y1="162.7" x2="203.3" y2="162.8"/>
<line class="st4" x1="203.3" y1="162.8" x2="203.7" y2="162.9"/>
<line class="st4" x1="203.7" y1="162.9" x2="204" y2="162.8"/>
<line class="st4" x1="204" y1="162.8" x2="210.8" y2="161.1"/>
<line class="st4" x1="210.8" y1="161.1" x2="211.5" y2="160.9"/>
<line class="st4" x1="211.5" y1="160.9" x2="211.9" y2="160.7"/>
<line class="st4" x1="211.9" y1="160.7" x2="212.1" y2="160.4"/>
<line class="st4" x1="212.1" y1="160.4" x2="212.1" y2="160"/>
<line class="st4" x1="212.1" y1="160" x2="212" y2="159.7"/>
<line class="st4" x1="212" y1="159.7" x2="211.6" y2="159.4"/>
<line class="st4" x1="211.6" y1="159.4" x2="211" y2="159.1"/>
<line class="st4" x1="211" y1="159.1" x2="202.4" y2="155.2"/>
<line class="st4" x1="198.8" y1="166.6" x2="211.9" y2="163.4"/>
<line class="st4" x1="211.9" y1="163.4" x2="212.7" y2="163.1"/>
<line class="st4" x1="212.7" y1="163.1" x2="213.3" y2="162.8"/>
<line class="st4" x1="213.3" y1="162.8" x2="213.6" y2="162.5"/>
<line class="st4" x1="213.6" y1="162.5" x2="213.8" y2="162.1"/>
<line class="st5" x1="196" y1="158" x2="195.7" y2="157.8"/>
<line class="st5" x1="195.7" y1="157.8" x2="195.5" y2="157.6"/>
<line class="st5" x1="199.8" y1="158.5" x2="199.4" y2="158.4"/>
<line class="st5" x1="199.4" y1="158.4" x2="198.9" y2="158.4"/>
<line class="st5" x1="198.9" y1="158.4" x2="198.4" y2="158.4"/>
<line class="st5" x1="200.2" y1="163" x2="200" y2="164.9"/>
<line class="st5" x1="197.3" y1="162.7" x2="197.2" y2="164.6"/>
<line class="st4" x1="196.2" y1="158.2" x2="195.7" y2="158"/>
<line class="st4" x1="197.4" y1="161.7" x2="200.3" y2="161.9"/>
<line class="st4" x1="200.3" y1="161.9" x2="201.3" y2="161.9"/>
<line class="st4" x1="202" y1="158.7" x2="201.9" y2="158.8"/>
<line class="st4" x1="200.5" y1="158.9" x2="197.7" y2="158.6"/>
<line class="st4" x1="197.7" y1="158.6" x2="196.7" y2="158.4"/>
<line class="st4" x1="195.6" y1="158" x2="195.4" y2="160.2"/>
<line class="st4" x1="195.5" y1="158.2" x2="195.6" y2="158"/>
<line class="st5" x1="195.7" y1="158" x2="195.7" y2="158.2"/>
<line class="st4" x1="195.6" y1="158" x2="195.6" y2="158"/>
<line class="st4" x1="195.6" y1="158" x2="195.6" y2="158"/>
<line class="st4" x1="195.6" y1="158" x2="195.6" y2="158"/>
<line class="st4" x1="195.6" y1="158" x2="195.6" y2="158"/>
<line class="st4" x1="195.6" y1="158" x2="195.6" y2="158"/>
<line class="st4" x1="195.7" y1="158" x2="195.7" y2="158"/>
<line class="st4" x1="201.5" y1="158.8" x2="200.5" y2="158.9"/>
<line class="st5" x1="201.5" y1="158.8" x2="201.5" y2="158.8"/>
<line class="st4" x1="201.5" y1="158.8" x2="201.9" y2="158.8"/>
<line class="st4" x1="202.6" y1="158.6" x2="202" y2="158.7"/>
<line class="st5" x1="202.6" y1="158.8" x2="202.6" y2="158.6"/>
<line class="st5" x1="202.7" y1="158.6" x2="202.7" y2="158.8"/>
<line class="st4" x1="202.6" y1="158.6" x2="202.6" y2="158.6"/>
<line class="st4" x1="202.6" y1="158.6" x2="202.6" y2="158.6"/>
<line class="st4" x1="202.7" y1="158.6" x2="202.7" y2="158.6"/>
<line class="st4" x1="202.7" y1="158.6" x2="202.7" y2="158.6"/>
<line class="st4" x1="202.7" y1="158.6" x2="202.7" y2="158.6"/>
<line class="st4" x1="202.7" y1="158.6" x2="202.7" y2="158.6"/>
<line class="st4" x1="202.5" y1="160.9" x2="202.7" y2="158.6"/>
<line class="st4" x1="202.5" y1="160.9" x2="202.5" y2="160.9"/>
<line class="st4" x1="202.5" y1="160.9" x2="202.5" y2="160.9"/>
<line class="st4" x1="202.5" y1="160.9" x2="202.5" y2="160.9"/>
<line class="st4" x1="202.5" y1="160.9" x2="202.5" y2="160.9"/>
<line class="st4" x1="202.5" y1="161" x2="202.5" y2="161"/>
<line class="st4" x1="202.5" y1="161" x2="202.5" y2="161"/>
<line class="st4" x1="201.6" y1="161.8" x2="202.4" y2="161.1"/>
<line class="st4" x1="201.6" y1="161.8" x2="201.3" y2="161.9"/>
<line class="st4" x1="196.4" y1="161.5" x2="197.4" y2="161.7"/>
<line class="st4" x1="196.4" y1="161.5" x2="196.1" y2="161.3"/>
<line class="st4" x1="195.5" y1="160.5" x2="196.1" y2="161.3"/>
<line class="st4" x1="195.5" y1="160.5" x2="195.5" y2="160.5"/>
<line class="st4" x1="195.4" y1="160.5" x2="195.4" y2="160.5"/>
<line class="st4" x1="195.4" y1="160.4" x2="195.4" y2="160.4"/>
<line class="st4" x1="195.4" y1="160.3" x2="195.4" y2="160.3"/>
<line class="st4" x1="195.4" y1="160.3" x2="195.4" y2="160.3"/>
<line class="st4" x1="195.4" y1="160.3" x2="195.4" y2="160.3"/>
<line class="st4" x1="196.4" y1="158.3" x2="196.2" y2="158.2"/>
<line class="st5" x1="196.4" y1="158.3" x2="196.4" y2="158.3"/>
<line class="st5" x1="196.7" y1="158.4" x2="196.7" y2="158.4"/>
<line class="st4" x1="196.4" y1="158.3" x2="196.7" y2="158.4"/>
<line class="st4" x1="202.7" y1="158.8" x2="202.7" y2="158.8"/>
<line class="st4" x1="195.6" y1="158.1" x2="195.6" y2="158.1"/>
<line class="st4" x1="202.5" y1="160.9" x2="202.7" y2="158.8"/>
<line class="st4" x1="213.8" y1="162.1" x2="213.8" y2="161.8"/>
<line class="st4" x1="213.4" y1="161" x2="212.2" y2="159.6"/>
<line class="st4" x1="201.1" y1="159.4" x2="197" y2="159.1"/>
<line class="st5" x1="201.1" y1="159.3" x2="201.1" y2="159.4"/>
<line class="st4" x1="201.1" y1="159.4" x2="201.1" y2="159.4"/>
<line class="st5" x1="201" y1="160.9" x2="201.1" y2="159.9"/>
<line class="st5" x1="202.7" y1="158.8" x2="202.6" y2="158.7"/>
<line class="st5" x1="202.5" y1="159.4" x2="202.4" y2="160.6"/>
<line class="st4" x1="196.8" y1="161.2" x2="197.5" y2="161.3"/>
<line class="st4" x1="200.2" y1="161.6" x2="200.9" y2="161.6"/>
<line class="st4" x1="197" y1="159" x2="196.8" y2="161.2"/>
<line class="st4" x1="197" y1="159.1" x2="197" y2="159.1"/>
<line class="st5" x1="197" y1="159.1" x2="197" y2="159"/>
<line class="st5" x1="200.9" y1="159.4" x2="200.6" y2="159.3"/>
<line class="st5" x1="199.7" y1="159.2" x2="198.4" y2="159.1"/>
<line class="st4" x1="197.7" y1="159.1" x2="197" y2="159"/>
<line class="st4" x1="202.4" y1="158.7" x2="202.6" y2="158.7"/>
<line class="st5" x1="202.6" y1="158.7" x2="202.6" y2="158.7"/>
<line class="st4" x1="202.6" y1="158.8" x2="202.6" y2="158.8"/>
<line class="st4" x1="202.6" y1="158.8" x2="202.6" y2="158.8"/>
<line class="st4" x1="202.6" y1="158.8" x2="202.6" y2="158.8"/>
<line class="st4" x1="202.6" y1="158.8" x2="202.6" y2="158.8"/>
<line class="st4" x1="202.5" y1="158.8" x2="202.5" y2="158.8"/>
<line class="st4" x1="202.5" y1="158.8" x2="202.5" y2="158.8"/>
<line class="st4" x1="202.5" y1="158.8" x2="202.5" y2="158.8"/>
<line class="st4" x1="202.5" y1="158.8" x2="202.5" y2="158.8"/>
<line class="st4" x1="202.5" y1="158.8" x2="202.5" y2="158.8"/>
<line class="st4" x1="202.5" y1="158.8" x2="202.5" y2="158.8"/>
<line class="st5" x1="202.4" y1="161.2" x2="202.1" y2="161.2"/>
<line class="st5" x1="202.2" y1="161.3" x2="202.2" y2="161.3"/>
<line class="st5" x1="202.2" y1="161.3" x2="202.2" y2="161.3"/>
<line class="st5" x1="202.3" y1="161.3" x2="202.3" y2="161.3"/>
<line class="st5" x1="202.3" y1="161.3" x2="202.3" y2="161.3"/>
<line class="st5" x1="202.3" y1="161.3" x2="202.3" y2="161.3"/>
<line class="st5" x1="202.3" y1="161.3" x2="202.3" y2="161.3"/>
<line class="st5" x1="202.3" y1="161.2" x2="202.3" y2="161.2"/>
<line class="st5" x1="202.4" y1="161.2" x2="202.4" y2="161.2"/>
<line class="st5" x1="202.4" y1="161.2" x2="202.4" y2="161.2"/>
<line class="st5" x1="202.4" y1="161.2" x2="202.4" y2="161.2"/>
<line class="st5" x1="199.7" y1="159.2" x2="198.4" y2="159.1"/>
<line class="st5" x1="197.7" y1="159" x2="197.7" y2="159"/>
<line class="st5" x1="200.4" y1="159.3" x2="200.4" y2="159.3"/>
<line class="st5" x1="201.1" y1="159.3" x2="201.1" y2="159.3"/>
<line class="st5" x1="201.1" y1="159.3" x2="201.1" y2="159.3"/>
<line class="st4" x1="201.1" y1="159.3" x2="201.1" y2="159.3"/>
<line class="st4" x1="201.1" y1="159.3" x2="201.1" y2="159.3"/>
<line class="st4" x1="201.1" y1="159.3" x2="201.1" y2="159.3"/>
<line class="st4" x1="201.1" y1="159.3" x2="201.1" y2="159.3"/>
<line class="st4" x1="201.1" y1="159.3" x2="201.1" y2="159.3"/>
<line class="st4" x1="201.1" y1="159.3" x2="201.1" y2="159.3"/>
<line class="st4" x1="201.1" y1="159.3" x2="201.1" y2="159.3"/>
<line class="st4" x1="201.1" y1="159.3" x2="201.1" y2="159.3"/>
<line class="st4" x1="201.1" y1="159.3" x2="201.1" y2="159.3"/>
<line class="st4" x1="201.1" y1="159.3" x2="201.1" y2="159.3"/>
<line class="st4" x1="201.1" y1="159.3" x2="201.1" y2="159.3"/>
<line class="st4" x1="201.1" y1="159.3" x2="201.1" y2="159.3"/>
<line class="st4" x1="201.1" y1="159.3" x2="201.1" y2="159.3"/>
<line class="st4" x1="201.1" y1="159.3" x2="201.1" y2="159.3"/>
<line class="st4" x1="201.1" y1="159.3" x2="201.1" y2="159.3"/>
<line class="st4" x1="201.1" y1="159.3" x2="201.1" y2="159.3"/>
<line class="st4" x1="201.1" y1="159.3" x2="201.1" y2="159.3"/>
<line class="st4" x1="201.1" y1="159.3" x2="201.1" y2="159.3"/>
<line class="st4" x1="201.1" y1="159.3" x2="201.1" y2="159.3"/>
<line class="st4" x1="201.1" y1="159.3" x2="201.1" y2="159.3"/>
<line class="st5" x1="201" y1="161.5" x2="201" y2="161.5"/>
<line class="st4" x1="201" y1="161.5" x2="201" y2="161.5"/>
<line class="st4" x1="201" y1="161.5" x2="201" y2="161.5"/>
<line class="st4" x1="201" y1="161.5" x2="201" y2="161.5"/>
<line class="st4" x1="201" y1="161.5" x2="201" y2="161.5"/>
<line class="st4" x1="201" y1="161.5" x2="201" y2="161.5"/>
<line class="st4" x1="201" y1="161.5" x2="201" y2="161.5"/>
<line class="st4" x1="201" y1="161.5" x2="201" y2="161.5"/>
<line class="st4" x1="201" y1="161.5" x2="201" y2="161.5"/>
<line class="st4" x1="201" y1="161.5" x2="201" y2="161.5"/>
<line class="st4" x1="200.9" y1="161.6" x2="200.9" y2="161.6"/>
<line class="st4" x1="200.9" y1="161.6" x2="200.9" y2="161.6"/>
<line class="st4" x1="200.9" y1="161.6" x2="200.9" y2="161.6"/>
<line class="st4" x1="200.9" y1="161.6" x2="200.9" y2="161.6"/>
<line class="st4" x1="200.9" y1="161.6" x2="200.9" y2="161.6"/>
<line class="st4" x1="200.9" y1="161.6" x2="200.9" y2="161.6"/>
<line class="st4" x1="200.9" y1="161.6" x2="200.9" y2="161.6"/>
<line class="st4" x1="200.9" y1="161.6" x2="200.9" y2="161.6"/>
<line class="st4" x1="200.9" y1="161.6" x2="200.9" y2="161.6"/>
<line class="st4" x1="200.9" y1="161.6" x2="200.9" y2="161.6"/>
<line class="st4" x1="200.9" y1="161.6" x2="200.9" y2="161.6"/>
<line class="st5" x1="200.2" y1="161.6" x2="200.2" y2="161.6"/>
<line class="st5" x1="201.5" y1="161.8" x2="201.5" y2="161.8"/>
<line class="st5" x1="201.5" y1="161.8" x2="201.5" y2="161.8"/>
<line class="st5" x1="201.8" y1="161.7" x2="202" y2="161.4"/>
<line class="st5" x1="202.2" y1="161.3" x2="202.2" y2="161.3"/>
<line class="st5" x1="202.2" y1="161.3" x2="202.2" y2="161.3"/>
<line class="st5" x1="202.4" y1="158.7" x2="202.4" y2="158.7"/>
<line class="st5" x1="202.4" y1="158.7" x2="202.4" y2="158.7"/>
<line class="st4" x1="202.4" y1="158.8" x2="201.8" y2="158.8"/>
<line class="st5" x1="198.3" y1="161.4" x2="199.6" y2="161.5"/>
<line class="st5" x1="197.5" y1="161.3" x2="197.5" y2="161.3"/>
<line class="st5" x1="196.9" y1="161.2" x2="196.9" y2="161.2"/>
<line class="st4" x1="196.8" y1="161.2" x2="196.8" y2="161.2"/>
<line class="st4" x1="196.8" y1="161.2" x2="196.8" y2="161.2"/>
<line class="st4" x1="196.8" y1="161.2" x2="196.8" y2="161.2"/>
<line class="st4" x1="196.8" y1="161.2" x2="196.8" y2="161.2"/>
<line class="st4" x1="196.8" y1="161.2" x2="196.8" y2="161.2"/>
<line class="st4" x1="196.8" y1="161.2" x2="196.8" y2="161.2"/>
<line class="st4" x1="196.8" y1="161.2" x2="196.8" y2="161.2"/>
<line class="st4" x1="196.8" y1="161.2" x2="196.8" y2="161.2"/>
<line class="st4" x1="196.8" y1="161.2" x2="196.8" y2="161.2"/>
<line class="st4" x1="196.8" y1="161.2" x2="196.8" y2="161.2"/>
<line class="st4" x1="196.8" y1="161.2" x2="196.8" y2="161.2"/>
<line class="st4" x1="196.8" y1="161.2" x2="196.8" y2="161.2"/>
<line class="st4" x1="196.8" y1="161.2" x2="196.8" y2="161.2"/>
<line class="st4" x1="196.8" y1="161.2" x2="196.8" y2="161.2"/>
<line class="st4" x1="196.8" y1="161.2" x2="196.8" y2="161.2"/>
<line class="st4" x1="196.8" y1="161.2" x2="196.8" y2="161.2"/>
<line class="st4" x1="196.8" y1="161.2" x2="196.8" y2="161.2"/>
<line class="st4" x1="196.8" y1="161.2" x2="196.8" y2="161.2"/>
<line class="st4" x1="196.8" y1="161.2" x2="196.8" y2="161.2"/>
<line class="st4" x1="196.8" y1="161.2" x2="196.8" y2="161.2"/>
<line class="st5" x1="196.8" y1="161.2" x2="196.8" y2="161.2"/>
<line class="st4" x1="197" y1="159" x2="197" y2="159"/>
<line class="st4" x1="197" y1="159" x2="197" y2="159"/>
<line class="st4" x1="197" y1="159" x2="197" y2="159"/>
<line class="st4" x1="197" y1="159" x2="197" y2="159"/>
<line class="st4" x1="197" y1="159" x2="197" y2="159"/>
<line class="st4" x1="197" y1="159" x2="197" y2="159"/>
<line class="st4" x1="197" y1="159" x2="197" y2="159"/>
<line class="st4" x1="197" y1="159" x2="197" y2="159"/>
<line class="st4" x1="197" y1="159" x2="197" y2="159"/>
<line class="st4" x1="197" y1="159" x2="197" y2="159"/>
<line class="st4" x1="197" y1="159" x2="197" y2="159"/>
<line class="st4" x1="197" y1="159" x2="197" y2="159"/>
<line class="st4" x1="197" y1="159" x2="197" y2="159"/>
<line class="st4" x1="197" y1="159" x2="197" y2="159"/>
<line class="st4" x1="197" y1="159" x2="197" y2="159"/>
<line class="st4" x1="197" y1="159" x2="197" y2="159"/>
<line class="st4" x1="197" y1="159" x2="197" y2="159"/>
<line class="st4" x1="197" y1="159" x2="197" y2="159"/>
<line class="st4" x1="197" y1="159" x2="197" y2="159"/>
<line class="st4" x1="197" y1="159" x2="197" y2="159"/>
<line class="st5" x1="197" y1="159" x2="197" y2="159"/>
<line class="st5" x1="197" y1="158.9" x2="197" y2="158.9"/>
<line class="st5" x1="199.8" y1="158.8" x2="198.4" y2="158.7"/>
<line class="st4" x1="201.8" y1="158.8" x2="201.8" y2="158.8"/>
<line class="st4" x1="201.8" y1="158.8" x2="201.8" y2="158.8"/>
<line class="st4" x1="201.8" y1="158.8" x2="201.7" y2="158.8"/>
<line class="st4" x1="196.6" y1="158.4" x2="196.5" y2="158.4"/>
<line class="st5" x1="195.5" y1="159.9" x2="195.6" y2="158.7"/>
<line class="st5" x1="195.7" y1="158.2" x2="195.5" y2="158.2"/>
<line class="st4" x1="202.4" y1="158.7" x2="201.8" y2="158.8"/>
<line class="st4" x1="201.8" y1="158.8" x2="201.6" y2="158.8"/>
<line class="st5" x1="200.5" y1="158.9" x2="200.4" y2="159.3"/>
<line class="st5" x1="200.6" y1="159.3" x2="200.9" y2="159.3"/>
<line class="st5" x1="201.1" y1="159.3" x2="201.1" y2="159.3"/>
<line class="st5" x1="201.1" y1="159.3" x2="201.1" y2="159.3"/>
<line class="st5" x1="201.1" y1="159.3" x2="201.1" y2="159.3"/>
<line class="st5" x1="201.2" y1="159.3" x2="201.2" y2="159.3"/>
<line class="st5" x1="201.2" y1="159.3" x2="201.2" y2="159.3"/>
<line class="st5" x1="201.2" y1="159.3" x2="201.2" y2="159.3"/>
<line class="st5" x1="201.2" y1="159.3" x2="201.2" y2="159.3"/>
<line class="st5" x1="201.2" y1="159.3" x2="201.2" y2="159.3"/>
<line class="st5" x1="201.2" y1="159.3" x2="201.2" y2="159.3"/>
<line class="st5" x1="201.2" y1="159.3" x2="201.2" y2="159.3"/>
<line class="st5" x1="201.2" y1="159.3" x2="201.2" y2="159.3"/>
<line class="st5" x1="201.2" y1="159.3" x2="201.2" y2="159.3"/>
<line class="st5" x1="201.2" y1="159.3" x2="201.2" y2="159.3"/>
<line class="st5" x1="201.2" y1="159.3" x2="201.2" y2="159.3"/>
<line class="st5" x1="201.2" y1="159.3" x2="201.2" y2="159.3"/>
<line class="st5" x1="201.2" y1="159.3" x2="201.2" y2="159.3"/>
<line class="st5" x1="201.2" y1="159.3" x2="201.2" y2="159.3"/>
<line class="st5" x1="201.2" y1="159.3" x2="201.2" y2="159.3"/>
<line class="st5" x1="201.1" y1="159.4" x2="201.1" y2="161.9"/>
<line class="st5" x1="201" y1="161.5" x2="201" y2="161.5"/>
<line class="st5" x1="201" y1="161.5" x2="201" y2="161.5"/>
<line class="st5" x1="201" y1="161.5" x2="201" y2="161.5"/>
<line class="st5" x1="201" y1="161.5" x2="201" y2="161.5"/>
<line class="st5" x1="201" y1="161.6" x2="201" y2="161.6"/>
<line class="st5" x1="201" y1="161.6" x2="201" y2="161.6"/>
<line class="st5" x1="201" y1="161.6" x2="201" y2="161.6"/>
<line class="st5" x1="201" y1="161.6" x2="201" y2="161.6"/>
<line class="st5" x1="201" y1="161.6" x2="201" y2="161.6"/>
<line class="st5" x1="201" y1="161.6" x2="201" y2="161.6"/>
<line class="st5" x1="201" y1="161.5" x2="201" y2="161.5"/>
<line class="st5" x1="201" y1="161.5" x2="201" y2="161.5"/>
<line class="st5" x1="201" y1="161.5" x2="201" y2="161.5"/>
<line class="st5" x1="201" y1="161.5" x2="201" y2="161.5"/>
<line class="st5" x1="201" y1="161.5" x2="201" y2="161.5"/>
<line class="st5" x1="200.9" y1="161.5" x2="200.9" y2="161.5"/>
<line class="st5" x1="200.9" y1="161.5" x2="200.9" y2="161.5"/>
<line class="st5" x1="200.9" y1="161.5" x2="200.9" y2="161.5"/>
<line class="st4" x1="200.9" y1="161.5" x2="200.2" y2="161.6"/>
<line class="st5" x1="200.2" y1="161.6" x2="200.2" y2="161.9"/>
<line class="st5" x1="201.7" y1="161.6" x2="202" y2="161.4"/>
<line class="st5" x1="202.2" y1="160.6" x2="202.3" y2="159.4"/>
<line class="st5" x1="198.2" y1="161.8" x2="199.5" y2="161.9"/>
<line class="st5" x1="197.5" y1="161.7" x2="197.5" y2="161.3"/>
<line class="st4" x1="197.5" y1="161.3" x2="196.9" y2="161.2"/>
<line class="st5" x1="196.9" y1="161.2" x2="196.9" y2="161.2"/>
<line class="st5" x1="196.9" y1="161.2" x2="196.9" y2="161.2"/>
<line class="st5" x1="196.9" y1="161.2" x2="196.9" y2="161.2"/>
<line class="st5" x1="196.9" y1="161.2" x2="196.9" y2="161.2"/>
<line class="st5" x1="196.8" y1="161.2" x2="196.8" y2="161.2"/>
<line class="st5" x1="196.8" y1="161.2" x2="196.8" y2="161.2"/>
<line class="st5" x1="196.8" y1="161.2" x2="196.8" y2="161.2"/>
<line class="st5" x1="196.8" y1="161.2" x2="196.8" y2="161.2"/>
<line class="st5" x1="196.8" y1="161.2" x2="196.8" y2="161.2"/>
<line class="st5" x1="196.8" y1="161.2" x2="196.8" y2="161.2"/>
<line class="st5" x1="196.8" y1="161.2" x2="196.8" y2="161.2"/>
<line class="st5" x1="196.8" y1="161.2" x2="196.8" y2="161.2"/>
<line class="st5" x1="196.8" y1="161.2" x2="196.8" y2="161.2"/>
<line class="st5" x1="196.8" y1="161.1" x2="196.8" y2="161.1"/>
<line class="st5" x1="196.8" y1="161.1" x2="196.8" y2="161.1"/>
<line class="st5" x1="196.8" y1="161.1" x2="196.8" y2="161.1"/>
<line class="st5" x1="196.8" y1="161.1" x2="196.8" y2="161.1"/>
<line class="st5" x1="196.8" y1="161.1" x2="196.8" y2="161.1"/>
<line class="st5" x1="196.8" y1="160.5" x2="196.9" y2="159.5"/>
<line class="st5" x1="197" y1="158.9" x2="197" y2="158.9"/>
<line class="st5" x1="197" y1="158.9" x2="197" y2="158.9"/>
<line class="st5" x1="197" y1="158.9" x2="197" y2="158.9"/>
<line class="st5" x1="197" y1="158.9" x2="197" y2="158.9"/>
<line class="st5" x1="197" y1="158.9" x2="197" y2="158.9"/>
<line class="st5" x1="197" y1="158.9" x2="197" y2="158.9"/>
<line class="st5" x1="197" y1="158.9" x2="197" y2="158.9"/>
<line class="st5" x1="197" y1="158.9" x2="197" y2="158.9"/>
<line class="st5" x1="197" y1="158.9" x2="197" y2="158.9"/>
<line class="st5" x1="197" y1="158.9" x2="197" y2="158.9"/>
<line class="st5" x1="197" y1="158.9" x2="197" y2="158.9"/>
<line class="st5" x1="197" y1="158.9" x2="197" y2="158.9"/>
<line class="st5" x1="197" y1="158.9" x2="197" y2="158.9"/>
<line class="st5" x1="197" y1="158.9" x2="197" y2="158.9"/>
<line class="st5" x1="197.1" y1="158.9" x2="197.1" y2="158.9"/>
<line class="st5" x1="197.1" y1="158.9" x2="197.1" y2="158.9"/>
<line class="st5" x1="197.1" y1="158.9" x2="197.1" y2="158.9"/>
<line class="st5" x1="197.1" y1="158.9" x2="197.1" y2="158.9"/>
<line class="st4" x1="197.1" y1="158.9" x2="197.7" y2="159"/>
<line class="st5" x1="197.7" y1="159" x2="197.7" y2="158.7"/>
<line class="st4" x1="196.6" y1="158.4" x2="196.6" y2="158.4"/>
<line class="st5" x1="195.8" y1="158.9" x2="195.7" y2="160.1"/>
<line class="st5" x1="196.3" y1="161.3" x2="196.3" y2="161.3"/>
<line class="st5" x1="196.3" y1="161.3" x2="196.3" y2="161.3"/>
<line class="st5" x1="196.3" y1="161.3" x2="196.3" y2="161.3"/>
<line class="st5" x1="196.3" y1="161.3" x2="196.3" y2="161.3"/>
<line class="st5" x1="196.3" y1="161.3" x2="196.3" y2="161.3"/>
<line class="st5" x1="196.3" y1="161.3" x2="196.3" y2="161.3"/>
<line class="st5" x1="196.3" y1="161.3" x2="196.3" y2="161.3"/>
<line class="st5" x1="196.3" y1="161.3" x2="196.3" y2="161.3"/>
<line class="st5" x1="196.3" y1="161.3" x2="196.3" y2="161.3"/>
<line class="st5" x1="196.3" y1="161.3" x2="196.3" y2="161.3"/>
<line class="st5" x1="196.2" y1="161.4" x2="196.3" y2="161.4"/>
<line class="st5" x1="201.5" y1="161.8" x2="201.5" y2="161.8"/>
<line class="st5" x1="201.5" y1="161.8" x2="201.5" y2="161.8"/>
<line class="st5" x1="201.5" y1="161.8" x2="201.5" y2="161.8"/>
<line class="st5" x1="201.4" y1="161.8" x2="201.4" y2="161.8"/>
<line class="st5" x1="201.4" y1="161.8" x2="201.4" y2="161.8"/>
<line class="st5" x1="201.4" y1="161.8" x2="201.4" y2="161.8"/>
<line class="st5" x1="201.4" y1="161.8" x2="201.4" y2="161.8"/>
<line class="st5" x1="201.4" y1="161.8" x2="201.4" y2="161.8"/>
<line class="st5" x1="201.4" y1="161.8" x2="201.4" y2="161.8"/>
<line class="st5" x1="201.4" y1="161.8" x2="201.4" y2="161.8"/>
<line class="st5" x1="201.4" y1="161.8" x2="201.5" y2="161.8"/>
<line class="st4" x1="200.5" y1="158.9" x2="201.6" y2="158.8"/>
<line class="st4" x1="201.6" y1="158.8" x2="201.6" y2="158.8"/>
<line class="st4" x1="201.6" y1="158.8" x2="201.6" y2="158.8"/>
<line class="st5" x1="200.5" y1="158.9" x2="200.5" y2="158.9"/>
<line class="st4" x1="196.6" y1="158.4" x2="197.7" y2="158.7"/>
<line class="st5" x1="197.7" y1="158.7" x2="197.7" y2="158.7"/>
<line class="st4" x1="196.6" y1="158.4" x2="196.6" y2="158.4"/>
<line class="st4" x1="196.6" y1="158.4" x2="196.6" y2="158.4"/>
<line class="st4" x1="195.9" y1="158.2" x2="196.5" y2="158.4"/>
<line class="st4" x1="196.5" y1="158.4" x2="196.5" y2="158.4"/>
<line class="st4" x1="196.5" y1="158.4" x2="196.5" y2="158.4"/>
<line class="st4" x1="196.5" y1="158.4" x2="195.8" y2="158.2"/>
<line class="st4" x1="195.7" y1="158.2" x2="195.9" y2="158.2"/>
<line class="st5" x1="195.9" y1="158.2" x2="195.9" y2="158.2"/>
<line class="st5" x1="195.8" y1="158.1" x2="195.8" y2="158.1"/>
<line class="st4" x1="195.8" y1="158.2" x2="195.8" y2="158.2"/>
<line class="st4" x1="195.8" y1="158.2" x2="195.8" y2="158.2"/>
<line class="st4" x1="195.8" y1="158.2" x2="195.8" y2="158.2"/>
<line class="st4" x1="195.8" y1="158.2" x2="195.8" y2="158.2"/>
<line class="st4" x1="195.8" y1="158.2" x2="195.8" y2="158.2"/>
<line class="st4" x1="195.7" y1="158.2" x2="195.7" y2="158.2"/>
<line class="st4" x1="195.7" y1="158.2" x2="195.7" y2="158.2"/>
<line class="st4" x1="195.7" y1="158.2" x2="195.7" y2="158.2"/>
<line class="st4" x1="195.7" y1="158.2" x2="195.7" y2="158.2"/>
<line class="st4" x1="195.7" y1="158.2" x2="195.7" y2="158.2"/>
<line class="st5" x1="195.7" y1="158.2" x2="195.7" y2="158.2"/>
<line class="st5" x1="196.1" y1="161.1" x2="195.8" y2="160.8"/>
<line class="st5" x1="195.8" y1="160.9" x2="196.1" y2="161.2"/>
<line class="st5" x1="196.2" y1="161.4" x2="196.2" y2="161.4"/>
<line class="st5" x1="196.2" y1="161.3" x2="196.2" y2="161.3"/>
<line class="st5" x1="195.7" y1="160.7" x2="195.5" y2="160.6"/>
<line class="st5" x1="195.5" y1="160.6" x2="195.5" y2="160.6"/>
<line class="st5" x1="195.5" y1="160.6" x2="195.5" y2="160.6"/>
<line class="st5" x1="195.5" y1="160.6" x2="195.5" y2="160.6"/>
<line class="st5" x1="195.5" y1="160.6" x2="195.5" y2="160.6"/>
<line class="st5" x1="195.5" y1="160.6" x2="195.5" y2="160.6"/>
<line class="st5" x1="195.5" y1="160.6" x2="195.5" y2="160.6"/>
<line class="st5" x1="195.6" y1="160.7" x2="195.6" y2="160.7"/>
<line class="st5" x1="195.6" y1="160.7" x2="195.6" y2="160.7"/>
<line class="st5" x1="195.6" y1="160.7" x2="195.6" y2="160.7"/>
<line class="st5" x1="195.6" y1="160.7" x2="195.6" y2="160.7"/>
<line class="st5" x1="195.6" y1="160.7" x2="195.6" y2="160.7"/>
<line class="st5" x1="195.6" y1="160.7" x2="195.6" y2="160.7"/>
<line class="st5" x1="201.1" y1="161.9" x2="200.5" y2="161.9"/>
<line class="st5" x1="200.2" y1="161.9" x2="200.2" y2="161.9"/>
<line class="st5" x1="201.4" y1="161.8" x2="201.4" y2="161.8"/>
<line class="st5" x1="201.4" y1="161.8" x2="201.4" y2="161.8"/>
<line class="st5" x1="197.1" y1="161.6" x2="196.6" y2="161.4"/>
<line class="st5" x1="196.3" y1="161.3" x2="196.3" y2="161.3"/>
<line class="st5" x1="196.3" y1="161.4" x2="196.3" y2="161.4"/>
<line class="st5" x1="197.5" y1="161.7" x2="197.5" y2="161.7"/>
<line class="st4" x1="196.6" y1="158.4" x2="197.7" y2="158.7"/>
<line class="st4" x1="200.5" y1="159" x2="201.7" y2="158.8"/>
<line class="st5" x1="201.1" y1="161.9" x2="200.5" y2="162"/>
<line class="st5" x1="197.1" y1="161.6" x2="196.6" y2="161.5"/>
<line class="st4" x1="202.7" y1="158.8" x2="202.6" y2="158.7"/>
<line class="st4" x1="201.1" y1="159.3" x2="201.1" y2="159.3"/>
<line class="st4" x1="200.2" y1="161.6" x2="197.5" y2="161.3"/>
<line class="st4" x1="197" y1="159" x2="197" y2="159"/>
<line class="st4" x1="200.5" y1="158.9" x2="197.7" y2="158.7"/>
<line class="st4" x1="195.7" y1="158.2" x2="195.5" y2="158.2"/>
<line class="st6" x1="180.4" y1="158.9" x2="198.8" y2="166.6"/>
<line class="st4" x1="328.7" y1="126.5" x2="328.5" y2="127.9"/>
<line class="st4" x1="335.2" y1="127.8" x2="335.2" y2="127.1"/>
<line class="st4" x1="335.2" y1="127" x2="328.7" y2="126.5"/>
<line class="st4" x1="328.7" y1="126.4" x2="328.6" y2="126.7"/>
<line class="st4" x1="328.6" y1="126.7" x2="328.6" y2="127.3"/>
<line class="st4" x1="328.7" y1="126.4" x2="328.7" y2="126.5"/>
<line class="st4" x1="328.7" y1="126.5" x2="328.7" y2="126.5"/>
<line class="st5" x1="328.7" y1="126.5" x2="328.7" y2="126.5"/>
<line class="st5" x1="333.5" y1="126.8" x2="330.3" y2="126.6"/>
<line class="st5" x1="335.2" y1="127" x2="335.2" y2="127"/>
<line class="st4" x1="335.2" y1="127" x2="335.2" y2="127"/>
<line class="st4" x1="335.2" y1="127.1" x2="335.2" y2="127"/>
<line class="st5" x1="335.2" y1="127.6" x2="335.2" y2="127.4"/>
<line class="st4" x1="335.2" y1="127.3" x2="335.2" y2="127"/>
<line class="st5" x1="335.2" y1="127.6" x2="335.3" y2="127.4"/>
<line class="st5" x1="335.3" y1="127.2" x2="335.3" y2="127.2"/>
<line class="st5" x1="328.6" y1="126.9" x2="328.6" y2="127.1"/>
<line class="st5" x1="328.6" y1="126.7" x2="328.6" y2="126.7"/>
<line class="st5" x1="328.6" y1="126.4" x2="328.6" y2="126.4"/>
<line class="st4" x1="328.7" y1="126.4" x2="328.7" y2="126.4"/>
<line class="st4" x1="328.7" y1="126.4" x2="328.7" y2="126.4"/>
<line class="st4" x1="328.7" y1="126.4" x2="328.7" y2="126.4"/>
<line class="st4" x1="328.7" y1="126.4" x2="328.7" y2="126.4"/>
<line class="st4" x1="328.7" y1="126.4" x2="328.7" y2="126.4"/>
<line class="st4" x1="328.7" y1="126.4" x2="328.7" y2="126.4"/>
<line class="st4" x1="328.7" y1="126.4" x2="328.7" y2="126.4"/>
<line class="st4" x1="328.7" y1="126.4" x2="328.7" y2="126.4"/>
<line class="st4" x1="328.7" y1="126.4" x2="328.7" y2="126.4"/>
<line class="st4" x1="328.7" y1="126.4" x2="328.7" y2="126.4"/>
<line class="st4" x1="328.7" y1="126.4" x2="328.7" y2="126.4"/>
<line class="st4" x1="328.7" y1="126.4" x2="328.7" y2="126.4"/>
<line class="st4" x1="328.7" y1="126.4" x2="328.7" y2="126.4"/>
<line class="st4" x1="328.7" y1="126.4" x2="328.7" y2="126.4"/>
<line class="st4" x1="328.7" y1="126.4" x2="328.7" y2="126.4"/>
<line class="st4" x1="328.7" y1="126.4" x2="328.7" y2="126.4"/>
<line class="st4" x1="328.7" y1="126.4" x2="328.7" y2="126.4"/>
<line class="st4" x1="328.7" y1="126.4" x2="328.7" y2="126.4"/>
<line class="st4" x1="328.7" y1="126.4" x2="328.7" y2="126.4"/>
<line class="st4" x1="328.7" y1="126.4" x2="328.7" y2="126.4"/>
<line class="st5" x1="328.7" y1="126.4" x2="328.7" y2="126.3"/>
<line class="st4" x1="335.2" y1="127" x2="335.2" y2="127"/>
<line class="st4" x1="335.2" y1="127" x2="335.2" y2="127"/>
<line class="st4" x1="335.2" y1="127" x2="335.2" y2="127"/>
<line class="st4" x1="335.2" y1="127" x2="335.2" y2="127"/>
<line class="st4" x1="335.2" y1="127" x2="335.2" y2="127"/>
<line class="st4" x1="335.2" y1="127" x2="335.2" y2="127"/>
<line class="st4" x1="335.2" y1="127" x2="335.2" y2="127"/>
<line class="st4" x1="335.2" y1="127" x2="335.2" y2="127"/>
<line class="st4" x1="335.2" y1="127" x2="335.2" y2="127"/>
<line class="st4" x1="335.2" y1="127" x2="335.2" y2="127"/>
<line class="st4" x1="335.2" y1="127" x2="335.2" y2="127"/>
<line class="st4" x1="335.2" y1="127" x2="335.2" y2="127"/>
<line class="st4" x1="335.2" y1="127" x2="335.2" y2="127"/>
<line class="st4" x1="335.2" y1="127" x2="335.2" y2="127"/>
<line class="st4" x1="335.2" y1="127" x2="335.2" y2="127"/>
<line class="st4" x1="335.2" y1="127" x2="335.2" y2="127"/>
<line class="st4" x1="335.2" y1="127" x2="335.2" y2="127"/>
<line class="st4" x1="335.2" y1="127" x2="335.2" y2="127"/>
<line class="st4" x1="335.2" y1="127" x2="335.2" y2="127"/>
<line class="st4" x1="335.2" y1="127" x2="335.2" y2="127"/>
<line class="st5" x1="335.2" y1="127" x2="335.2" y2="127"/>
<line class="st5" x1="335.2" y1="126.9" x2="335.2" y2="127"/>
<line class="st5" x1="336.3" y1="127.7" x2="336.3" y2="127.5"/>
<line class="st4" x1="336.4" y1="126.8" x2="336.4" y2="126.8"/>
<line class="st5" x1="328.9" y1="125.3" x2="328.6" y2="125.3"/>
<line class="st5" x1="330.4" y1="125.4" x2="333.8" y2="125.7"/>
<line class="st5" x1="335.5" y1="125.9" x2="335.2" y2="125.8"/>
<line class="st5" x1="327.6" y1="126.8" x2="327.5" y2="127"/>
<line class="st5" x1="327.9" y1="126.6" x2="328.3" y2="126.6"/>
<line class="st5" x1="328.6" y1="126.7" x2="328.6" y2="126.4"/>
<line class="st5" x1="328.6" y1="126.4" x2="328.6" y2="126.4"/>
<line class="st5" x1="328.6" y1="126.4" x2="328.6" y2="126.4"/>
<line class="st5" x1="328.6" y1="126.4" x2="328.6" y2="126.4"/>
<line class="st5" x1="328.6" y1="126.4" x2="328.6" y2="126.4"/>
<line class="st5" x1="328.6" y1="126.4" x2="328.6" y2="126.4"/>
<line class="st5" x1="328.6" y1="126.4" x2="328.6" y2="126.4"/>
<line class="st5" x1="328.6" y1="126.4" x2="328.6" y2="126.4"/>
<line class="st5" x1="328.6" y1="126.4" x2="328.6" y2="126.4"/>
<line class="st5" x1="328.7" y1="126.4" x2="328.7" y2="126.4"/>
<line class="st5" x1="328.7" y1="126.3" x2="328.7" y2="126.3"/>
<line class="st5" x1="328.7" y1="126.3" x2="328.7" y2="126.3"/>
<line class="st5" x1="328.7" y1="126.3" x2="328.7" y2="126.3"/>
<line class="st5" x1="328.7" y1="126.3" x2="328.7" y2="126.3"/>
<line class="st5" x1="328.7" y1="126.3" x2="328.7" y2="126.3"/>
<line class="st5" x1="328.7" y1="126.3" x2="328.7" y2="126.3"/>
<line class="st5" x1="328.7" y1="126.3" x2="328.7" y2="126.3"/>
<line class="st5" x1="328.7" y1="126.3" x2="328.7" y2="126.3"/>
<line class="st5" x1="328.7" y1="126.3" x2="328.7" y2="126.3"/>
<line class="st5" x1="330.4" y1="126.5" x2="333.6" y2="126.7"/>
<line class="st5" x1="335.2" y1="126.9" x2="335.2" y2="126.9"/>
<line class="st5" x1="335.2" y1="126.9" x2="335.2" y2="126.9"/>
<line class="st5" x1="335.2" y1="126.9" x2="335.2" y2="126.9"/>
<line class="st5" x1="335.3" y1="126.9" x2="335.3" y2="126.9"/>
<line class="st5" x1="335.3" y1="126.9" x2="335.3" y2="126.9"/>
<line class="st5" x1="335.3" y1="126.9" x2="335.3" y2="126.9"/>
<line class="st5" x1="335.3" y1="126.9" x2="335.3" y2="126.9"/>
<line class="st5" x1="335.3" y1="126.9" x2="335.3" y2="126.9"/>
<line class="st5" x1="335.3" y1="126.9" x2="335.3" y2="126.9"/>
<line class="st5" x1="335.3" y1="126.9" x2="335.3" y2="126.9"/>
<line class="st5" x1="335.3" y1="126.9" x2="335.3" y2="126.9"/>
<line class="st5" x1="335.3" y1="126.9" x2="335.3" y2="126.9"/>
<line class="st5" x1="335.3" y1="126.9" x2="335.3" y2="126.9"/>
<line class="st5" x1="335.3" y1="126.9" x2="335.3" y2="126.9"/>
<line class="st5" x1="335.3" y1="126.9" x2="335.3" y2="126.9"/>
<line class="st5" x1="335.3" y1="126.9" x2="335.3" y2="126.9"/>
<line class="st5" x1="335.3" y1="126.9" x2="335.3" y2="126.9"/>
<line class="st5" x1="335.3" y1="126.9" x2="335.3" y2="126.9"/>
<line class="st5" x1="335.3" y1="126.9" x2="335.3" y2="127.2"/>
<line class="st5" x1="335.6" y1="127.3" x2="336" y2="127.3"/>
<line class="st4" x1="336.3" y1="126.7" x2="336.3" y2="126.7"/>
<line class="st5" x1="333.8" y1="125.9" x2="330.2" y2="125.6"/>
<line class="st4" x1="327.6" y1="126" x2="327.6" y2="126"/>
<line class="st4" x1="327.6" y1="126" x2="327.6" y2="126"/>
<line class="st4" x1="327.6" y1="126" x2="327.6" y2="126"/>
<line class="st4" x1="327.7" y1="126" x2="327.7" y2="126"/>
<line class="st4" x1="327.7" y1="126" x2="327.7" y2="126"/>
<line class="st4" x1="327.7" y1="126" x2="327.7" y2="126"/>
<line class="st4" x1="327.7" y1="126" x2="327.7" y2="126"/>
<line class="st4" x1="327.7" y1="125.9" x2="327.7" y2="125.9"/>
<line class="st4" x1="327.7" y1="125.9" x2="327.7" y2="125.9"/>
<line class="st4" x1="327.7" y1="125.9" x2="327.7" y2="125.9"/>
<line class="st4" x1="327.6" y1="126" x2="327.6" y2="126"/>
<line class="st5" x1="336.3" y1="126.9" x2="336.3" y2="127.2"/>
<line class="st5" x1="336.3" y1="127.3" x2="336.3" y2="127.3"/>
<line class="st4" x1="336.4" y1="126.8" x2="336.4" y2="126.8"/>
<line class="st4" x1="336.3" y1="126.7" x2="336.3" y2="126.7"/>
<line class="st4" x1="335.6" y1="126.1" x2="336.3" y2="126.7"/>
<line class="st4" x1="336.3" y1="126.7" x2="336.3" y2="126.7"/>
<line class="st4" x1="336.3" y1="126.7" x2="336.3" y2="126.7"/>
<line class="st4" x1="336.3" y1="126.7" x2="335.7" y2="126.1"/>
<line class="st4" x1="335.5" y1="125.9" x2="335.6" y2="126.1"/>
<line class="st5" x1="335.6" y1="126.1" x2="335.6" y2="126.1"/>
<line class="st5" x1="335.7" y1="126" x2="335.7" y2="126"/>
<line class="st4" x1="335.7" y1="126.1" x2="335.7" y2="126.1"/>
<line class="st4" x1="335.7" y1="126.1" x2="335.7" y2="126.1"/>
<line class="st4" x1="335.6" y1="126" x2="335.6" y2="126"/>
<line class="st4" x1="335.6" y1="126" x2="335.6" y2="126"/>
<line class="st4" x1="335.6" y1="126" x2="335.6" y2="126"/>
<line class="st4" x1="335.6" y1="126" x2="335.6" y2="126"/>
<line class="st4" x1="335.6" y1="125.9" x2="335.6" y2="125.9"/>
<line class="st4" x1="335.5" y1="125.9" x2="335.5" y2="125.9"/>
<line class="st4" x1="335.5" y1="125.9" x2="335.5" y2="125.9"/>
<line class="st4" x1="335.5" y1="125.9" x2="335.5" y2="125.9"/>
<line class="st4" x1="335.5" y1="125.9" x2="335.5" y2="125.9"/>
<line class="st5" x1="335.5" y1="125.9" x2="335.5" y2="125.9"/>
<line class="st4" x1="327.7" y1="125.9" x2="328.5" y2="125.4"/>
<line class="st4" x1="328.4" y1="125.4" x2="327.6" y2="126"/>
<line class="st4" x1="327.6" y1="126" x2="327.6" y2="126"/>
<line class="st4" x1="327.7" y1="125.9" x2="327.7" y2="125.9"/>
<line class="st4" x1="328.5" y1="125.4" x2="328.6" y2="125.3"/>
<line class="st5" x1="328.6" y1="125.3" x2="328.6" y2="125.3"/>
<line class="st4" x1="328.6" y1="125.3" x2="328.6" y2="125.3"/>
<line class="st4" x1="328.6" y1="125.3" x2="328.6" y2="125.3"/>
<line class="st4" x1="328.6" y1="125.3" x2="328.6" y2="125.3"/>
<line class="st4" x1="328.6" y1="125.3" x2="328.6" y2="125.3"/>
<line class="st4" x1="328.6" y1="125.3" x2="328.6" y2="125.3"/>
<line class="st4" x1="328.5" y1="125.3" x2="328.5" y2="125.3"/>
<line class="st4" x1="328.5" y1="125.4" x2="328.5" y2="125.4"/>
<line class="st4" x1="328.5" y1="125.4" x2="328.5" y2="125.4"/>
<line class="st4" x1="328.5" y1="125.4" x2="328.5" y2="125.4"/>
<line class="st4" x1="328.5" y1="125.4" x2="328.5" y2="125.4"/>
<line class="st4" x1="328.4" y1="125.4" x2="328.4" y2="125.4"/>
<line class="st5" x1="328.4" y1="125.4" x2="328.4" y2="125.4"/>
<line class="st5" x1="328.4" y1="125.4" x2="328.4" y2="125.4"/>
<line class="st5" x1="327.6" y1="126.4" x2="327.6" y2="126.1"/>
<line class="st4" x1="327.6" y1="126" x2="327.6" y2="126"/>
<line class="st4" x1="327.6" y1="126" x2="327.6" y2="126"/>
<line class="st5" x1="327.5" y1="126.6" x2="327.5" y2="126.6"/>
<line class="st4" x1="336.3" y1="127.4" x2="336.4" y2="126.8"/>
<line class="st5" x1="336.4" y1="127" x2="336.3" y2="127.2"/>
<line class="st5" x1="336.3" y1="127.6" x2="336.3" y2="127.8"/>
<line class="st4" x1="336.3" y1="127.9" x2="336.3" y2="127.4"/>
<line class="st5" x1="327.5" y1="127" x2="327.5" y2="126.8"/>
<line class="st5" x1="327.6" y1="126.4" x2="327.6" y2="126.2"/>
<line class="st4" x1="327.6" y1="126" x2="327.5" y2="126.6"/>
<line class="st4" x1="327.5" y1="126.6" x2="327.5" y2="127.2"/>
<line class="st4" x1="336.4" y1="127.1" x2="336.4" y2="127.1"/>
<line class="st4" x1="336.4" y1="126.9" x2="336.4" y2="126.9"/>
<line class="st4" x1="328.7" y1="126.4" x2="328.7" y2="126.4"/>
<line class="st4" x1="335.2" y1="127" x2="335.2" y2="127"/>
<line class="st4" x1="335.5" y1="125.9" x2="335.3" y2="125.8"/>
<line class="st4" x1="328.8" y1="125.3" x2="328.6" y2="125.3"/>
<line class="st4" x1="327.7" y1="127.2" x2="344.4" y2="128.5"/>
<line class="st4" x1="327.9" y1="124.5" x2="344.7" y2="125.8"/>
<line class="st5" x1="327.9" y1="124.9" x2="327.8" y2="125.4"/>
<line class="st4" x1="327.9" y1="124.5" x2="327.1" y2="124.4"/>
<line class="st4" x1="327.1" y1="124.4" x2="326.2" y2="124.5"/>
<line class="st4" x1="326.2" y1="124.5" x2="325.5" y2="124.6"/>
<line class="st4" x1="325.5" y1="124.6" x2="324.8" y2="124.7"/>
<line class="st4" x1="324.8" y1="124.7" x2="324.4" y2="125"/>
<line class="st4" x1="324.4" y1="125" x2="324" y2="125.2"/>
<line class="st4" x1="324" y1="125.2" x2="323.9" y2="125.5"/>
<line class="st4" x1="323.9" y1="125.5" x2="324" y2="125.8"/>
<line class="st4" x1="324" y1="125.8" x2="324.3" y2="126.1"/>
<line class="st4" x1="324.3" y1="126.1" x2="324.7" y2="126.4"/>
<line class="st4" x1="324.7" y1="126.4" x2="325.3" y2="126.7"/>
<line class="st4" x1="325.3" y1="126.7" x2="326" y2="126.9"/>
<line class="st4" x1="326" y1="126.9" x2="326.8" y2="127.1"/>
<line class="st4" x1="326.8" y1="127.1" x2="327.7" y2="127.2"/>
<line class="st4" x1="350.4" y1="129.4" x2="350.5" y2="129.1"/>
<line class="st5" x1="327.3" y1="132" x2="327.3" y2="131.8"/>
<line class="st4" x1="332.5" y1="120.9" x2="320.1" y2="124"/>
<line class="st4" x1="320.1" y1="124" x2="319.4" y2="124.3"/>
<line class="st4" x1="319.4" y1="124.3" x2="318.9" y2="124.5"/>
<line class="st4" x1="318.9" y1="124.5" x2="318.7" y2="124.9"/>
<line class="st4" x1="318.7" y1="124.9" x2="318.7" y2="125.2"/>
<line class="st4" x1="318.7" y1="125.2" x2="318.9" y2="125.6"/>
<line class="st4" x1="318.9" y1="125.6" x2="319.3" y2="125.9"/>
<line class="st4" x1="319.3" y1="125.9" x2="319.9" y2="126.3"/>
<line class="st4" x1="319.9" y1="126.3" x2="328.5" y2="130.1"/>
<line class="st4" x1="328.5" y1="130.1" x2="329.2" y2="130.4"/>
<line class="st4" x1="329.2" y1="130.4" x2="330.1" y2="130.6"/>
<line class="st4" x1="330.1" y1="130.6" x2="331.1" y2="130.8"/>
<line class="st4" x1="331.1" y1="130.8" x2="332.1" y2="130.8"/>
<line class="st4" x1="332.1" y1="130.8" x2="333.1" y2="130.9"/>
<line class="st4" x1="333.1" y1="130.9" x2="334" y2="130.8"/>
<line class="st4" x1="334" y1="130.8" x2="334.8" y2="130.7"/>
<line class="st4" x1="334.8" y1="130.7" x2="344.4" y2="128.5"/>
<line class="st4" x1="344.7" y1="125.8" x2="332.5" y2="120.9"/>
<line class="st4" x1="348.8" y1="129.3" x2="350.2" y2="128.9"/>
<line class="st4" x1="350.2" y1="128.9" x2="348.8" y2="128.3"/>
<line class="st4" x1="348.8" y1="128.3" x2="348.2" y2="128"/>
<line class="st4" x1="348.2" y1="128" x2="347.4" y2="127.6"/>
<line class="st4" x1="347.4" y1="127.6" x2="346.6" y2="127.1"/>
<line class="st4" x1="346.6" y1="127.1" x2="345.6" y2="126.5"/>
<line class="st4" x1="345.6" y1="126.5" x2="344.7" y2="125.8"/>
<line class="st4" x1="344.4" y1="128.5" x2="345.4" y2="128.9"/>
<line class="st4" x1="345.4" y1="128.9" x2="346.4" y2="129.2"/>
<line class="st4" x1="346.4" y1="129.2" x2="347.3" y2="129.4"/>
<line class="st4" x1="347.3" y1="129.4" x2="348.1" y2="129.4"/>
<line class="st4" x1="348.1" y1="129.4" x2="348.8" y2="129.3"/>
<line class="st5" x1="335.7" y1="132.5" x2="335.7" y2="132.8"/>
<line class="st4" x1="350.5" y1="129.1" x2="335.7" y2="132.5"/>
<line class="st4" x1="335.7" y1="132.5" x2="334.9" y2="132.7"/>
<line class="st4" x1="334.9" y1="132.7" x2="334" y2="132.8"/>
<line class="st4" x1="334" y1="132.8" x2="333" y2="132.8"/>
<line class="st4" x1="333" y1="132.8" x2="331.9" y2="132.8"/>
<line class="st4" x1="331.9" y1="132.8" x2="330.9" y2="132.7"/>
<line class="st4" x1="330.9" y1="132.7" x2="329.9" y2="132.5"/>
<line class="st4" x1="329.9" y1="132.5" x2="328.9" y2="132.3"/>
<line class="st4" x1="328.9" y1="132.3" x2="328" y2="132.1"/>
<line class="st4" x1="328" y1="132.1" x2="327.3" y2="131.8"/>
<line class="st5" x1="318.7" y1="127.9" x2="318.6" y2="128.2"/>
<line class="st4" x1="327.3" y1="131.8" x2="318.7" y2="127.9"/>
<line class="st4" x1="318.7" y1="127.9" x2="318" y2="127.6"/>
<line class="st4" x1="318" y1="127.6" x2="317.4" y2="127.2"/>
<line class="st4" x1="317.4" y1="127.2" x2="317.1" y2="126.7"/>
<line class="st4" x1="317.1" y1="126.7" x2="317.1" y2="126.3"/>
<line class="st4" x1="317.1" y1="126.3" x2="317.2" y2="125.9"/>
<line class="st4" x1="317.2" y1="125.9" x2="317.5" y2="125.6"/>
<line class="st5" x1="328.2" y1="130.5" x2="327.6" y2="131.4"/>
<line class="st5" x1="319" y1="127.5" x2="319.6" y2="126.7"/>
<line class="st5" x1="335" y1="131.1" x2="335.5" y2="132.1"/>
<line class="st4" x1="350.2" y1="128.9" x2="350.5" y2="129.1"/>
<line class="st5" x1="342.3" y1="128.5" x2="342.3" y2="128.5"/>
<line class="st5" x1="327.7" y1="127.3" x2="327.7" y2="127.3"/>
<line class="st5" x1="343.1" y1="125.3" x2="343.1" y2="125.3"/>
<line class="st5" x1="332.8" y1="121.3" x2="332.8" y2="121.3"/>
<line class="st5" x1="332" y1="121.2" x2="332" y2="121.2"/>
<line class="st5" x1="320.3" y1="124.1" x2="320.3" y2="124.1"/>
<line class="st4" x1="320.3" y1="124.1" x2="319.7" y2="124.3"/>
<line class="st4" x1="319.7" y1="124.3" x2="319.2" y2="124.6"/>
<line class="st4" x1="319.2" y1="124.6" x2="319" y2="124.9"/>
<line class="st4" x1="319" y1="124.9" x2="319" y2="125.2"/>
<line class="st4" x1="319" y1="125.2" x2="319.2" y2="125.6"/>
<line class="st4" x1="319.2" y1="125.6" x2="319.5" y2="125.9"/>
<line class="st4" x1="319.5" y1="125.9" x2="320.1" y2="126.2"/>
<line class="st4" x1="320.1" y1="126.2" x2="328.7" y2="130"/>
<line class="st4" x1="328.7" y1="130" x2="329.4" y2="130.3"/>
<line class="st4" x1="329.4" y1="130.3" x2="330.2" y2="130.5"/>
<line class="st4" x1="330.2" y1="130.5" x2="331.2" y2="130.7"/>
<line class="st4" x1="331.2" y1="130.7" x2="332.1" y2="130.7"/>
<line class="st4" x1="332.1" y1="130.7" x2="333" y2="130.8"/>
<line class="st4" x1="333" y1="130.8" x2="333.9" y2="130.7"/>
<line class="st4" x1="333.9" y1="130.7" x2="334.6" y2="130.6"/>
<line class="st4" x1="334.6" y1="130.6" x2="342.7" y2="128.9"/>
<line class="st4" x1="342.7" y1="128.9" x2="342.9" y2="128.8"/>
<line class="st4" x1="342.9" y1="128.8" x2="342.9" y2="128.6"/>
<line class="st4" x1="342.9" y1="128.6" x2="342.7" y2="128.5"/>
<line class="st4" x1="342.7" y1="128.5" x2="342.3" y2="128.5"/>
<line class="st4" x1="342.3" y1="128.5" x2="327.7" y2="127.3"/>
<line class="st4" x1="327.7" y1="127.3" x2="326.8" y2="127.2"/>
<line class="st4" x1="326.8" y1="127.2" x2="325.9" y2="127"/>
<line class="st4" x1="325.9" y1="127" x2="325.1" y2="126.8"/>
<line class="st4" x1="325.1" y1="126.8" x2="324.5" y2="126.5"/>
<line class="st4" x1="324.5" y1="126.5" x2="324" y2="126.2"/>
<line class="st4" x1="324" y1="126.2" x2="323.7" y2="125.8"/>
<line class="st4" x1="323.7" y1="125.8" x2="323.7" y2="125.5"/>
<line class="st4" x1="323.7" y1="125.5" x2="323.8" y2="125.2"/>
<line class="st4" x1="323.8" y1="125.2" x2="324.1" y2="124.9"/>
<line class="st4" x1="324.1" y1="124.9" x2="324.6" y2="124.6"/>
<line class="st4" x1="324.6" y1="124.6" x2="325.3" y2="124.5"/>
<line class="st4" x1="325.3" y1="124.5" x2="326.2" y2="124.4"/>
<line class="st4" x1="326.2" y1="124.4" x2="327" y2="124.3"/>
<line class="st4" x1="327" y1="124.3" x2="327.9" y2="124.4"/>
<line class="st4" x1="327.9" y1="124.4" x2="342.6" y2="125.5"/>
<line class="st4" x1="342.6" y1="125.5" x2="342.9" y2="125.6"/>
<line class="st4" x1="342.9" y1="125.6" x2="343.1" y2="125.5"/>
<line class="st4" x1="343.1" y1="125.5" x2="343.2" y2="125.4"/>
<line class="st4" x1="343.2" y1="125.4" x2="343.1" y2="125.3"/>
<line class="st4" x1="343.1" y1="125.3" x2="332.8" y2="121.3"/>
<line class="st4" x1="332.8" y1="121.3" x2="332.6" y2="121.2"/>
<line class="st4" x1="332.6" y1="121.2" x2="332.3" y2="121.2"/>
<line class="st4" x1="332.3" y1="121.2" x2="332" y2="121.2"/>
<line class="st4" x1="332" y1="121.2" x2="320.3" y2="124.1"/>
<line class="st4" x1="327.3" y1="132" x2="328" y2="132.4"/>
<line class="st4" x1="328" y1="132.4" x2="328.9" y2="132.6"/>
<line class="st4" x1="328.9" y1="132.6" x2="329.8" y2="132.8"/>
<line class="st4" x1="329.8" y1="132.8" x2="330.9" y2="133"/>
<line class="st4" x1="330.9" y1="133" x2="331.9" y2="133.1"/>
<line class="st4" x1="331.9" y1="133.1" x2="333" y2="133.1"/>
<line class="st4" x1="333" y1="133.1" x2="334" y2="133"/>
<line class="st4" x1="334" y1="133" x2="334.9" y2="133"/>
<line class="st4" x1="334.9" y1="133" x2="335.7" y2="132.8"/>
<line class="st4" x1="317" y1="126.6" x2="317.1" y2="127"/>
<line class="st4" x1="317.1" y1="127" x2="317.4" y2="127.4"/>
<line class="st4" x1="317.4" y1="127.4" x2="317.9" y2="127.8"/>
<line class="st4" x1="317.9" y1="127.8" x2="318.6" y2="128.2"/>
<line class="st4" x1="318.6" y1="128.2" x2="327.3" y2="132"/>
<line class="st4" x1="335.7" y1="132.8" x2="350.4" y2="129.4"/>
<line class="st5" x1="327.1" y1="126.6" x2="327.1" y2="126.6"/>
<line class="st5" x1="327" y1="126.6" x2="326.6" y2="126.6"/>
<line class="st5" x1="326.6" y1="126.6" x2="326.5" y2="126.7"/>
<line class="st5" x1="338.4" y1="127.5" x2="347" y2="128.2"/>
<line class="st5" x1="346.6" y1="129.1" x2="348.1" y2="129.2"/>
<line class="st4" x1="336.3" y1="127.9" x2="336.4" y2="127.3"/>
<line class="st4" x1="336.4" y1="127.3" x2="336.4" y2="126.8"/>
<line class="st4" x1="327.8" y1="125.7" x2="327.7" y2="125.8"/>
<line class="st4" x1="327.5" y1="126.6" x2="327.4" y2="127.2"/>
<line class="st4" x1="327.5" y1="126.1" x2="327.5" y2="126.6"/>
<line class="st4" x1="327.5" y1="126.1" x2="327.5" y2="126.1"/>
<line class="st5" x1="327.7" y1="125.8" x2="327.7" y2="125.9"/>
<line class="st4" x1="327.5" y1="126.1" x2="327.7" y2="125.8"/>
<line class="st4" x1="328.5" y1="125.2" x2="327.8" y2="125.7"/>
<line class="st5" x1="328.5" y1="125.3" x2="328.5" y2="125.2"/>
<line class="st5" x1="328.8" y1="125" x2="328.8" y2="125.3"/>
<line class="st4" x1="328.5" y1="125.2" x2="328.8" y2="125"/>
<line class="st4" x1="335.3" y1="125.6" x2="328.8" y2="125"/>
<line class="st5" x1="335.3" y1="125.8" x2="335.3" y2="125.6"/>
<line class="st5" x1="335.6" y1="125.8" x2="335.6" y2="125.9"/>
<line class="st4" x1="335.3" y1="125.6" x2="335.6" y2="125.8"/>
<line class="st4" x1="336.3" y1="126.6" x2="335.6" y2="125.8"/>
<line class="st5" x1="336.3" y1="126.7" x2="336.3" y2="126.6"/>
<line class="st4" x1="336.4" y1="126.8" x2="336.4" y2="126.8"/>
<line class="st4" x1="336.3" y1="126.6" x2="336.4" y2="126.8"/>
<line class="st4" x1="328.6" y1="125.3" x2="328.6" y2="125.3"/>
<line class="st4" x1="328.6" y1="125.2" x2="328.6" y2="125.2"/>
<line class="st4" x1="335.5" y1="125.8" x2="335.5" y2="125.8"/>
<line class="st5" x1="335.5" y1="125.8" x2="335.5" y2="125.8"/>
<line class="st4" x1="335.3" y1="125.8" x2="328.8" y2="125.3"/>
<line class="st4" x1="328.8" y1="125.3" x2="328.6" y2="125.2"/>
<line class="st4" x1="335.5" y1="125.8" x2="335.3" y2="125.8"/>
<line class="st4" x1="336.3" y1="127.9" x2="336.4" y2="127"/>
<line class="st4" x1="336.3" y1="126.8" x2="336.4" y2="126.9"/>
<line class="st4" x1="336.4" y1="127" x2="336.4" y2="126.9"/>
<line class="st5" x1="336.4" y1="126.8" x2="336.4" y2="127"/>
<line class="st4" x1="335.9" y1="126.3" x2="335.9" y2="126.3"/>
<line class="st4" x1="336" y1="126.3" x2="336" y2="126.3"/>
<line class="st4" x1="335.5" y1="125.8" x2="335.5" y2="125.8"/>
<line class="st4" x1="335.5" y1="125.8" x2="335.5" y2="125.8"/>
<line class="st4" x1="335.7" y1="126.1" x2="335.7" y2="126.1"/>
<line class="st4" x1="335.7" y1="126.1" x2="335.7" y2="126.1"/>
<line class="st4" x1="327.5" y1="126.1" x2="327.5" y2="126.3"/>
<line class="st4" x1="328.1" y1="125.6" x2="328.1" y2="125.6"/>
<line class="st4" x1="328.1" y1="125.6" x2="328.1" y2="125.6"/>
<line class="st4" x1="328.7" y1="125.2" x2="328.7" y2="125.2"/>
<line class="st4" x1="328.4" y1="125.4" x2="328.4" y2="125.4"/>
<line class="st4" x1="328.6" y1="125.3" x2="328.6" y2="125.3"/>
<line class="st4" x1="328.4" y1="125.4" x2="328.4" y2="125.4"/>
<line class="st4" x1="317.1" y1="126.3" x2="317" y2="126.6"/>
<line class="st4" x1="319" y1="124.5" x2="317.5" y2="125.6"/>
<line class="st4" x1="323.7" y1="125.5" x2="323.6" y2="125.7"/>
<line class="st4" x1="323.7" y1="125.6" x2="323.7" y2="125.6"/>
<line class="st4" x1="327.7" y1="127.3" x2="326.8" y2="127.2"/>
<line class="st4" x1="326.8" y1="127.2" x2="325.9" y2="127"/>
<line class="st4" x1="325.9" y1="127" x2="325.1" y2="126.8"/>
<line class="st4" x1="325.1" y1="126.8" x2="324.4" y2="126.4"/>
<line class="st4" x1="324.4" y1="126.4" x2="324" y2="126.2"/>
<line class="st4" x1="324" y1="126.2" x2="323.7" y2="125.8"/>
<line class="st4" x1="323.7" y1="125.8" x2="323.6" y2="125.5"/>
<line class="st4" x1="323.6" y1="125.5" x2="323.7" y2="125.2"/>
<line class="st4" x1="323.7" y1="125.2" x2="324.1" y2="124.9"/>
<line class="st4" x1="324.1" y1="124.9" x2="324.6" y2="124.6"/>
<line class="st4" x1="324.6" y1="124.6" x2="325.3" y2="124.5"/>
<line class="st4" x1="325.3" y1="124.5" x2="326.1" y2="124.4"/>
<line class="st4" x1="326.1" y1="124.4" x2="327" y2="124.3"/>
<line class="st4" x1="327" y1="124.3" x2="327.9" y2="124.4"/>
<line class="st5" x1="327.9" y1="124.4" x2="327.9" y2="124.4"/>
<line class="st4" x1="327.9" y1="124.4" x2="342.6" y2="125.5"/>
<line class="st4" x1="320.3" y1="124.2" x2="332" y2="121.2"/>
<line class="st4" x1="328.7" y1="130" x2="320.1" y2="126.2"/>
<line class="st4" x1="328.7" y1="130" x2="329.4" y2="130.3"/>
<line class="st4" x1="329.4" y1="130.3" x2="330.2" y2="130.5"/>
<line class="st4" x1="330.2" y1="130.5" x2="331.2" y2="130.7"/>
<line class="st4" x1="331.2" y1="130.7" x2="332.1" y2="130.7"/>
<line class="st4" x1="332.1" y1="130.7" x2="333" y2="130.8"/>
<line class="st4" x1="333" y1="130.8" x2="333.9" y2="130.7"/>
<line class="st4" x1="333.9" y1="130.7" x2="334.6" y2="130.5"/>
<line class="st4" x1="320.3" y1="124.2" x2="319.7" y2="124.3"/>
<line class="st4" x1="319.7" y1="124.3" x2="319.2" y2="124.6"/>
<line class="st4" x1="319.2" y1="124.6" x2="319" y2="124.9"/>
<line class="st4" x1="319" y1="124.9" x2="319" y2="125.2"/>
<line class="st4" x1="319" y1="125.2" x2="319.2" y2="125.6"/>
<line class="st4" x1="319.2" y1="125.6" x2="319.5" y2="125.9"/>
<line class="st4" x1="319.5" y1="125.9" x2="320.1" y2="126.2"/>
<line class="st5" x1="328.7" y1="130" x2="328.7" y2="130"/>
<line class="st5" x1="320.1" y1="126.2" x2="320.1" y2="126.2"/>
<line class="st5" x1="334.6" y1="130.5" x2="334.6" y2="130.5"/>
<line class="st4" x1="332.8" y1="121.3" x2="343" y2="125.3"/>
<line class="st4" x1="342.7" y1="128.8" x2="334.6" y2="130.5"/>
<line class="st4" x1="342.3" y1="128.5" x2="327.7" y2="127.3"/>
<line class="st4" x1="342.7" y1="128.8" x2="342.8" y2="128.8"/>
<line class="st4" x1="342.8" y1="128.8" x2="342.9" y2="128.6"/>
<line class="st4" x1="342.9" y1="128.6" x2="342.6" y2="128.5"/>
<line class="st4" x1="342.6" y1="128.5" x2="342.3" y2="128.5"/>
<line class="st4" x1="342.6" y1="125.5" x2="342.9" y2="125.6"/>
<line class="st4" x1="342.9" y1="125.6" x2="343.1" y2="125.5"/>
<line class="st4" x1="343.1" y1="125.5" x2="343.1" y2="125.4"/>
<line class="st4" x1="343.1" y1="125.4" x2="343" y2="125.3"/>
<line class="st4" x1="332.8" y1="121.3" x2="332.6" y2="121.2"/>
<line class="st4" x1="332.6" y1="121.2" x2="332.3" y2="121.2"/>
<line class="st4" x1="332.3" y1="121.2" x2="332" y2="121.2"/>
<line class="st5" x1="342.6" y1="125.5" x2="342.6" y2="125.5"/>
<line class="st5" x1="342.7" y1="128.8" x2="342.7" y2="128.8"/>
<line class="st4" x1="319" y1="125.1" x2="319" y2="125.3"/>
<line class="st4" x1="343.1" y1="125.5" x2="343.1" y2="125.4"/>
<line class="st4" x1="342.8" y1="128.8" x2="342.8" y2="128.8"/>
<line class="st0" x1="354.5" y1="130.4" x2="346.3" y2="126.1"/>
<line class="st2" x1="109.2" y1="536.8" x2="147.7" y2="523.7"/>
<line class="st2" x1="175.6" y1="514.2" x2="180.9" y2="512.4"/>
<line class="st2" x1="393.6" y1="235.4" x2="414.1" y2="243.4"/>
<line class="st2" x1="288" y1="497.2" x2="294.1" y2="499.6"/>
</svg>
