<?xml version="1.0" encoding="utf-8"?>
<!-- Generator: Adobe Illustrator 23.0.3, SVG Export Plug-In . SVG Version: 6.00 Build 0)  -->
<svg version="1.1" id="Слой_1" xmlns="http://www.w3.org/2000/svg" xmlns:xlink="http://www.w3.org/1999/xlink" x="0px" y="0px"
	 viewBox="0 0 500 600" style="enable-background:new 0 0 500 600;" xml:space="preserve">
<style type="text/css">
	.st0{fill:none;stroke:#4E86B9;stroke-width:0.9553;stroke-miterlimit:3.864;}
	.st1{fill:none;stroke:#4E86B9;stroke-width:0.5732;stroke-miterlimit:3.864;}
	.st2{fill:none;stroke:#4E86B9;stroke-width:0.573;stroke-linecap:round;stroke-linejoin:round;stroke-miterlimit:3.864;}
	.st3{fill:#4E86B9;}
	.st4{fill:none;stroke:#4E86B9;stroke-width:0.5732;stroke-linecap:round;stroke-linejoin:round;stroke-miterlimit:3.864;}
	
		.st5{fill:none;stroke:#4E86B9;stroke-width:0.5732;stroke-linecap:round;stroke-linejoin:round;stroke-miterlimit:3.864;stroke-dasharray:5.797,3.8863;}
</style>
<line class="st0" x1="192.4" y1="218.8" x2="384.8" y2="156.3"/>
<line class="st0" x1="192.1" y1="246.7" x2="243.3" y2="230.4"/>
<line class="st0" x1="319.5" y1="205.9" x2="334.6" y2="200.9"/>
<line class="st0" x1="334.6" y1="200.9" x2="385" y2="156.3"/>
<line class="st0" x1="205.5" y1="198.2" x2="372.6" y2="144"/>
<line class="st0" x1="154" y1="169.2" x2="319" y2="115.8"/>
<line class="st0" x1="318.7" y1="115.6" x2="354.2" y2="123.4"/>
<line class="st0" x1="363.9" y1="130.8" x2="372.7" y2="144.3"/>
<line class="st0" x1="195.8" y1="185.7" x2="205.5" y2="198.2"/>
<line class="st0" x1="205.5" y1="198.2" x2="205.2" y2="200.9"/>
<line class="st0" x1="205.3" y1="201" x2="174.9" y2="210.4"/>
<line class="st0" x1="158.2" y1="167.9" x2="179.3" y2="172.6"/>
<line class="st0" x1="157.6" y1="167.9" x2="130.3" y2="184.1"/>
<line class="st0" x1="179.3" y1="172.6" x2="152" y2="189.4"/>
<line class="st0" x1="130.1" y1="184.4" x2="152" y2="189.4"/>
<line class="st0" x1="372.7" y1="144.3" x2="372.9" y2="146.3"/>
<line class="st0" x1="372.9" y1="146.3" x2="402.9" y2="136.1"/>
<line class="st0" x1="205.2" y1="200.9" x2="372.7" y2="146.3"/>
<line class="st0" x1="174.1" y1="206.5" x2="204.6" y2="197.3"/>
<line class="st0" x1="196.2" y1="185.4" x2="363.9" y2="130.8"/>
<line class="st0" x1="187.3" y1="176.9" x2="352.5" y2="123.2"/>
<line class="st0" x1="161.9" y1="168.8" x2="322" y2="116.5"/>
<line class="st0" x1="180.8" y1="174.7" x2="152.3" y2="189.3"/>
<line class="st0" x1="179.3" y1="172.6" x2="180.3" y2="174.7"/>
<line class="st0" x1="127.4" y1="187.4" x2="146.6" y2="191.5"/>
<line class="st0" x1="152" y1="189.4" x2="146.6" y2="191.5"/>
<line class="st0" x1="130.1" y1="184.4" x2="127.4" y2="187.4"/>
<line class="st0" x1="160" y1="172.2" x2="145.3" y2="181.3"/>
<line class="st0" x1="168.2" y1="174.2" x2="153.3" y2="183.3"/>
<line class="st0" x1="145.3" y1="181.3" x2="153.3" y2="183.3"/>
<line class="st0" x1="155.2" y1="175.3" x2="162.4" y2="177.3"/>
<line class="st0" x1="160.2" y1="172.2" x2="168.2" y2="174.2"/>
<line class="st0" x1="150" y1="178.7" x2="157.4" y2="180.7"/>
<line class="st0" x1="294.9" y1="200.6" x2="417.1" y2="227.3"/>
<line class="st0" x1="292.2" y1="212.7" x2="414.1" y2="239.6"/>
<line class="st0" x1="292.8" y1="220.7" x2="372" y2="313.7"/>
<line class="st0" x1="275.7" y1="220.8" x2="363.6" y2="321.5"/>
<line class="st0" x1="244.6" y1="227.4" x2="192" y2="364.8"/>
<line class="st0" x1="258.4" y1="227.1" x2="200.5" y2="377.8"/>
<line class="st0" x1="191.7" y1="445.5" x2="320.8" y2="398"/>
<line class="st0" x1="320.8" y1="398" x2="384.9" y2="413.7"/>
<line class="st0" x1="174.9" y1="513.5" x2="402.2" y2="420.7"/>
<line class="st0" x1="174.9" y1="521" x2="402.4" y2="429"/>
<line class="st0" x1="402.4" y1="429" x2="402.4" y2="420.6"/>
<line class="st0" x1="320.8" y1="272.3" x2="320.8" y2="398"/>
<line class="st0" x1="402.3" y1="237.6" x2="402.3" y2="421.2"/>
<line class="st0" x1="402.3" y1="136.4" x2="402.3" y2="224.1"/>
<line class="st0" x1="385.1" y1="233.2" x2="385.1" y2="427.6"/>
<line class="st0" x1="385.1" y1="142.2" x2="385.1" y2="220.3"/>
<line class="st0" x1="320.8" y1="219" x2="320.8" y2="253.5"/>
<line class="st0" x1="192.3" y1="492" x2="384.8" y2="414"/>
<line class="st0" x1="192.1" y1="205.2" x2="192.1" y2="506.8"/>
<line class="st0" x1="176.3" y1="209.7" x2="176.3" y2="513.3"/>
<line class="st0" x1="139.2" y1="208.1" x2="139.2" y2="512.5"/>
<line class="st0" x1="119.3" y1="204.2" x2="119.3" y2="507.8"/>
<line class="st0" x1="105.5" y1="200.1" x2="105.5" y2="501.4"/>
<line class="st0" x1="114.7" y1="514.6" x2="143.9" y2="521.3"/>
<line class="st0" x1="143.9" y1="521.3" x2="174.9" y2="521"/>
<path class="st0" d="M105.6,501.6c0,4.2,0,6.2,0,6.2"/>
<path class="st0" d="M105.6,507.8c0,2,0.9,3.5,1.9,3.5"/>
<line class="st0" x1="107.5" y1="511.3" x2="114.7" y2="514.6"/>
<path class="st0" d="M105.3,497.8c0,6.6,0.8,6.2,2,6.2"/>
<path class="st0" d="M106.5,503.9c1,1.7,3.9,2.1,7.9,3.3"/>
<line class="st0" x1="114.4" y1="507.2" x2="145.1" y2="513.9"/>
<line class="st0" x1="174.9" y1="513.5" x2="159.1" y2="514.4"/>
<path class="st0" d="M144.9,513.4c0,0.5,6.4,1,14.2,1"/>
<path class="st0" d="M109.5,184.6c7.7-3.4,29.3-12.5,44.4-15.4"/>
<path class="st0" d="M109.5,184.6c-4.4,1.7-5.9,5.2-5.9,13"/>
<path class="st0" d="M103.6,197c0.6,3.8,6,5.2,15.3,7"/>
<path class="st0" d="M139.4,208.1c11.4,2.4,16.1,3.8,35.3,2.3"/>
<line class="st0" x1="113.7" y1="202.9" x2="139.4" y2="208.1"/>
<path class="st0" d="M109.1,185c14.2,3.7,24.8,6.4,50.6,10.6"/>
<path class="st0" d="M159.8,195.7c-6.6,3.3-7.8,4.9-12,11.1"/>
<path class="st0" d="M147.8,206.8c0,1.2,0,3-0.2,3"/>
<path class="st0" d="M160.2,195.8c4.4,5.7,7.6,7.6,13.6,10.8"/>
<path class="st0" d="M159.8,195.7c16.1-10.5,24.3-18.5,18.9-19.4"/>
<line class="st0" x1="173.9" y1="206.6" x2="176.3" y2="209.7"/>
<path class="st0" d="M243.6,229.1c-25.3-5.9,52.1-48.6,57.3-37"/>
<path class="st0" d="M242.3,228.5c-0.4-16.7,69.4-46,57.6-27.1"/>
<path class="st0" d="M255.2,220.9c6.6-6.2,15.6-11.8,23.1-14.4"/>
<path class="st0" d="M271.1,222.1c-4.2,2.2-6.7,3.5-12.6,5"/>
<path class="st0" d="M259.9,219c-2.8,1.6-7.2,3.2-15.3,3.6"/>
<path class="st0" d="M259.8,219.1c-0.8,15.3-13.6,14.3-15,4"/>
<path class="st0" d="M254.3,237.6c-2.6-2.8-7-5.4-11.5-4.9"/>
<path class="st0" d="M293.6,221.9c0,4.7-4.2,8.6-9.4,8.6"/>
<path class="st0" d="M292.2,212.7c-3.6-4.1-0.3-11.7,2.9-12"/>
<line class="st0" x1="270.7" y1="221.1" x2="284.5" y2="212"/>
<line class="st0" x1="270.7" y1="221.3" x2="275.9" y2="227"/>
<line class="st0" x1="285" y1="211.8" x2="290.1" y2="218"/>
<line class="st0" x1="294.9" y1="200.6" x2="285.2" y2="197.9"/>
<line class="st0" x1="294.9" y1="200.6" x2="292.9" y2="195.9"/>
<line class="st0" x1="298.4" y1="201.3" x2="295.8" y2="195.7"/>
<line class="st0" x1="275.9" y1="227" x2="279.1" y2="225"/>
<line class="st0" x1="287.8" y1="220.1" x2="290.1" y2="218"/>
<line class="st0" x1="275.8" y1="220.7" x2="283.4" y2="216"/>
<line class="st0" x1="283.6" y1="216.1" x2="287.8" y2="220.1"/>
<path class="st0" d="M286.1,198.4c6.2,9.1,0.3,13.6-1.6,13.3"/>
<path class="st0" d="M282.7,198.7c7.8,12.6,2.5,15.3-8.1,10.7"/>
<path class="st0" d="M282.7,198.7c-1.6,3.9-4.4,10-8.3,10.6"/>
<path class="st0" d="M275.9,227c0,0.4,3,2.7,5.6,0.5"/>
<path class="st0" d="M281.9,216.9c2.7,3.2-1.6,6.2-4.5,3"/>
<path class="st0" d="M284.5,217.4c0,2.8-3.3,5.2-6.9,5.2"/>
<line class="st0" x1="330.8" y1="113.4" x2="356.8" y2="111.6"/>
<line class="st0" x1="356.8" y1="111.6" x2="376.8" y2="116.3"/>
<line class="st0" x1="376.8" y1="116.3" x2="350.8" y2="118.2"/>
<line class="st0" x1="350.8" y1="118.2" x2="331.2" y2="113.4"/>
<line class="st0" x1="330.8" y1="113.4" x2="328.9" y2="115.5"/>
<line class="st0" x1="328.9" y1="115.5" x2="349.9" y2="120.6"/>
<path class="st0" d="M347.8,108c6.4,0.6,38.4,8.3,51.1,11.5"/>
<path class="st0" d="M398.9,119.5c5.2,3.6,4,8.4,4.2,16.4"/>
<line class="st0" x1="372.6" y1="144" x2="402.6" y2="133.6"/>
<path class="st0" d="M363.9,130.8c-2.7-4-6.6-6.9-10.9-7.6"/>
<path class="st0" d="M318.7,115.6c8.6-3.4,11.5-5,29-7.6"/>
<path class="st0" d="M349.9,120.6c3.9,1.5,26,1.9,51.4,1.7"/>
<line class="st0" x1="338.1" y1="114.8" x2="355.1" y2="113.8"/>
<line class="st0" x1="345.6" y1="116.6" x2="362.8" y2="115.6"/>
<line class="st0" x1="355.1" y1="113.8" x2="362.8" y2="115.6"/>
<line class="st0" x1="344.3" y1="114.5" x2="350.3" y2="116.3"/>
<line class="st0" x1="351.5" y1="114.3" x2="357.5" y2="115.8"/>
<path class="st0" d="M255,224.6c0,1.1-1,2-2.1,2c-1.3,0-2.1-0.9-2.1-2c0-1.1,0.9-2,2.1-2C254.1,222.6,255,223.5,255,224.6z"/>
<path class="st0" d="M282.4,205.9c0.7,0.9,0.8,1.8-0.2,2.5c-1,0.7-1.9,0.1-2.5-0.8c-0.7-0.9-0.9-1.8,0.1-2.6
	C280.8,204.4,281.8,205,282.4,205.9z"/>
<path class="st0" d="M290,217.9c2.9,2.7,0.9,5.2,0.9,5.2"/>
<path class="st0" d="M292.8,220.7c0.4-3.3,0-4.5-3.9-8.6"/>
<path class="st0" d="M270.1,218.3c0.2,0.4-0.5,1.2-1.6,1.8c-1.1,0.6-2.2,0.8-2.4,0.4c-0.2-0.4,0.4-1.3,1.5-1.9
	C268.8,218,269.9,217.8,270.1,218.3z"/>
<path class="st0" d="M272.4,213.1c0.3,0.4-0.4,1.2-1.5,1.8c-1.1,0.6-2.2,0.8-2.4,0.4c-0.3-0.4,0.4-1.2,1.6-1.8
	C271.1,212.8,272.2,212.7,272.4,213.1z"/>
<path class="st0" d="M279.8,212.4c0.3,0.4-0.5,1.2-1.5,1.9c-1.2,0.7-2.1,0.8-2.5,0.4c-0.2-0.4,0.4-1.2,1.6-1.9
	C278.5,212.2,279.6,212,279.8,212.4z"/>
<path class="st0" d="M195.5,185.2c-2.7-4.2-6.6-7.9-14.7-10.5"/>
<path class="st0" d="M200.1,379c1-2.7-4.8-5.2-8.1-5.1"/>
<path class="st0" d="M200.1,379c-2.5,1.2-3.9,1.2-8.1,0"/>
<path class="st0" d="M372.1,313.8c3.1,5.5-5.1,10-8.5,7.7"/>
<path class="st0" d="M417.1,227.3c5.1,3.9,1.3,13.6-3,12.3"/>
<path class="st0" d="M417.1,227.3c-4.4,0.2-6.7,8.4-3.5,11.9"/>
<path class="st0" d="M130.8,239.1c0,1.9-1.2,3.5-2.7,3.5c-1.5,0-2.7-1.6-2.7-3.5c0-2,1.2-3.5,2.7-3.5
	C129.5,235.6,130.8,237.1,130.8,239.1z"/>
<path class="st0" d="M126.7,234.9c6.1-3,7.8,8.6,2.1,7.9"/>
<line class="st0" x1="287.8" y1="220.1" x2="290.8" y2="223.1"/>
<line class="st0" x1="292.2" y1="212.7" x2="285.9" y2="211.4"/>
<path class="st0" d="M243.4,224.8c0.5,2,2.4,3.5,3.7,4"/>
<path class="st0" d="M300.8,191.6c1.4,3,1.5,4.8,0.6,6.4"/>
<line class="st0" x1="126.8" y1="234.8" x2="126" y2="236.5"/>
<line class="st0" x1="127.5" y1="242.6" x2="129.4" y2="243"/>
<line class="st0" x1="127.6" y1="237.3" x2="127.6" y2="238.7"/>
<line class="st0" x1="128.2" y1="238.2" x2="128.2" y2="239.5"/>
<line class="st0" x1="127.7" y1="239.5" x2="127.9" y2="241"/>
<line class="st1" x1="96.1" y1="555" x2="176" y2="521.2"/>
<line class="st1" x1="79.5" y1="198.9" x2="79.5" y2="536.2"/>
<line class="st1" x1="142.4" y1="520.7" x2="247" y2="545.5"/>
<line class="st2" x1="402.5" y1="425.1" x2="450.6" y2="436.7"/>
<line class="st1" x1="212" y1="537.5" x2="442.3" y2="439"/>
<line class="st2" x1="290.8" y1="474.7" x2="435.3" y2="512.7"/>
<line class="st1" x1="21.9" y1="528.7" x2="103.8" y2="499.1"/>
<line class="st1" x1="37.3" y1="523.3" x2="115.7" y2="546.7"/>
<line class="st1" x1="65" y1="203.1" x2="174.9" y2="167.6"/>
<line class="st1" x1="416.4" y1="233.7" x2="435" y2="237.7"/>
<g id="XMLID_3_">
	<g>
		<path class="st3" d="M448.3,436.4l-11.2,7.2c1.5-2,1.1-3.4-1.5-3.7L448.3,436.4L448.3,436.4z"/>
	</g>
</g>
<g id="XMLID_4_">
	<g>
		<path class="st3" d="M212.3,537.3l11.2-7.2c-1.5,2-1.1,3.4,1.5,3.7L212.3,537.3L212.3,537.3z"/>
	</g>
</g>
<g id="XMLID_5_">
	<g>
		<path class="st3" d="M79.4,198.5l2,13.1c-1.2-2.2-2.7-2.4-4-0.2L79.4,198.5L79.4,198.5L79.4,198.5z"/>
	</g>
</g>
<g id="XMLID_6_">
	<g>
		<path class="st3" d="M79.5,535.7l-2-13.1c1.2,2.2,2.7,2.4,4,0.2L79.5,535.7L79.5,535.7z"/>
	</g>
</g>
<g id="XMLID_7_">
	<g>
		<path class="st3" d="M37.3,523.2l13.1,2.1c-2.5,0.5-3.1,1.8-1.4,3.8L37.3,523.2L37.3,523.2z"/>
	</g>
</g>
<g id="XMLID_8_">
	<g>
		<path class="st3" d="M115.3,546.6l-13.1-2.2c2.5-0.5,3.1-1.8,1.4-3.8L115.3,546.6L115.3,546.6z"/>
	</g>
</g>
<g>
	<g id="XMLID_1_">
		<g>
			<path class="st3" d="M434.8,237.4l2,13.1c-1.2-2.2-2.7-2.4-4-0.2L434.8,237.4L434.8,237.4z"/>
		</g>
	</g>
	<g id="XMLID_2_">
		<g>
			<path class="st3" d="M434.8,512.1l2-13.1c-1.2,2.2-2.7,2.4-4,0.2L434.8,512.1L434.8,512.1z"/>
		</g>
	</g>
	<line class="st2" x1="434.7" y1="246.7" x2="434.8" y2="505.5"/>
</g>
<line class="st4" x1="416.5" y1="106.4" x2="416.5" y2="233.7"/>
<line class="st4" x1="291.1" y1="79.1" x2="291.1" y2="185.8"/>
<line class="st1" x1="297.7" y1="80.4" x2="409.5" y2="104.9"/>
<g id="XMLID_9_">
	<g>
		<path class="st3" d="M416.5,106.4l-13.3-0.8c2.4-0.7,2.9-2.1,1-3.9L416.5,106.4L416.5,106.4z"/>
	</g>
</g>
<g id="XMLID_10_">
	<g>
		<path class="st3" d="M291.1,79.1l13.3,0.8c-2.4,0.7-2.9,2.1-1,3.9L291.1,79.1L291.1,79.1z"/>
	</g>
</g>
<line class="st1" x1="298.4" y1="46.6" x2="408.7" y2="71.1"/>
<g id="XMLID_12_">
	<g>
		<path class="st3" d="M416.6,72.8L403.3,72c2.4-0.7,2.9-2.1,1-3.9L416.6,72.8L416.6,72.8z"/>
	</g>
</g>
<g id="XMLID_11_">
	<g>
		<path class="st3" d="M290.9,44.6l13.3,0.8c-2.4,0.7-2.8,2.1-1,3.9L290.9,44.6L290.9,44.6z"/>
	</g>
</g>
<line class="st5" x1="291.1" y1="38.1" x2="291.1" y2="78.9"/>
<line class="st5" x1="416.5" y1="65.6" x2="416.5" y2="106.4"/>
<line class="st5" x1="435" y1="237.7" x2="462.4" y2="243.6"/>
<line class="st5" x1="435.2" y1="512.7" x2="459.9" y2="518.7"/>
<g>
	<g id="XMLID_14_">
		<g>
			<path class="st3" d="M460.8,242.4l2,13.1c-1.2-2.2-2.7-2.4-4-0.2L460.8,242.4L460.8,242.4z"/>
		</g>
	</g>
	<g id="XMLID_13_">
		<g>
			<path class="st3" d="M460.8,517.1l2-13.1c-1.2,2.2-2.7,2.4-4,0.2L460.8,517.1L460.8,517.1z"/>
		</g>
	</g>
	<line class="st2" x1="460.7" y1="251.7" x2="460.8" y2="510.5"/>
</g>
<g>
	<path class="st3" d="M62.7,381.1v2l-1.3-0.7v-2.6h12.2v1.3H62.7z"/>
	<path class="st3" d="M72,373.6c-1.2,0.8-2.7,1.2-4.5,1.2c-1.7,0-3.3-0.4-4.5-1.2c-1.3-0.9-1.8-2.1-1.8-3.1c0-1,0.5-2.2,1.8-3.1
		c1.2-0.8,2.7-1.2,4.5-1.2c1.7,0,3.3,0.4,4.5,1.2c1.3,0.9,1.8,2.1,1.8,3.1C73.8,371.5,73.3,372.7,72,373.6z M63.8,372.6
		c1,0.6,2.4,0.9,3.7,0.9c1.3,0,2.7-0.2,3.7-0.9c1-0.6,1.3-1.5,1.3-2.1c0-0.6-0.3-1.4-1.3-2.1c-1-0.6-2.4-0.9-3.7-0.9
		c-1.3,0-2.7,0.2-3.7,0.9c-1,0.6-1.3,1.5-1.3,2.1C62.5,371.2,62.8,372,63.8,372.6z"/>
	<path class="st3" d="M64.4,363.9c-0.7,0-1.3-0.3-1.8-0.6c-1.3-0.8-1.4-2.1-1.4-2.8c0-2.3,1.6-3.4,3.3-3.4c0.9,0,2.1,0.3,2.7,1.5
		c0.2-0.4,0.8-1.7,2.9-1.7c2.3,0,3.7,1.6,3.7,3.7c0,1.2-0.5,2.7-2.1,3.3c-0.4,0.2-0.8,0.3-1.3,0.3V363c0.4-0.1,0.9-0.2,1.2-0.4
		c0.6-0.4,0.9-1.1,0.9-1.9c0-1.3-1.1-2.4-2.5-2.4c-0.7,0-1.6,0.3-2,1.2c-0.2,0.4-0.3,0.9-0.3,1.4h-1.2c0-0.5-0.1-1-0.3-1.4
		c-0.2-0.4-0.7-1-1.8-1c-1.1,0-2.1,0.6-2.1,2c0,0.5,0.1,1.1,0.7,1.5c0.3,0.2,0.8,0.4,1.3,0.5V363.9z"/>
	<path class="st3" d="M72,353.2c-1.2,0.8-2.7,1.2-4.5,1.2c-1.7,0-3.3-0.4-4.5-1.2c-1.3-0.9-1.8-2.1-1.8-3.1c0-1,0.5-2.2,1.8-3.1
		c1.2-0.8,2.7-1.2,4.5-1.2c1.7,0,3.3,0.4,4.5,1.2c1.3,0.9,1.8,2.1,1.8,3.1C73.8,351.1,73.3,352.3,72,353.2z M63.8,352.2
		c1,0.6,2.4,0.9,3.7,0.9c1.3,0,2.7-0.2,3.7-0.9c1-0.6,1.3-1.5,1.3-2.1c0-0.6-0.3-1.4-1.3-2.1c-1-0.6-2.4-0.9-3.7-0.9
		c-1.3,0-2.7,0.2-3.7,0.9c-1,0.6-1.3,1.5-1.3,2.1C62.5,350.7,62.8,351.6,63.8,352.2z"/>
</g>
<g>
	<path class="st3" d="M331.4,470.3l-1.8,0.8l0.1-1.4l2.4-1l4.8,11.2l-1.2,0.5L331.4,470.3z"/>
	<path class="st3" d="M340.8,466.2L339,467l0.1-1.4l2.4-1l4.8,11.2l-1.2,0.5L340.8,466.2z"/>
	<path class="st3" d="M352.9,461l-6,2.6l-0.5-1.1l8.1-3.5l-2.4,14.6l-1.2-0.2L352.9,461z"/>
	<path class="st3" d="M360.7,467.8c-1.2-0.8-2.2-2-2.9-3.6c-0.7-1.6-0.9-3.2-0.7-4.6c0.3-1.6,1.2-2.5,2.1-2.9s2.2-0.4,3.5,0.5
		c1.2,0.8,2.2,2,2.9,3.6s0.9,3.2,0.7,4.6c-0.3,1.6-1.2,2.5-2.1,2.9C363.4,468.6,362.1,468.6,360.7,467.8z M358.4,459.9
		c-0.2,1.2,0.1,2.6,0.7,3.7c0.5,1.2,1.3,2.4,2.3,3.1c1,0.7,1.9,0.7,2.4,0.4s1.2-0.9,1.4-2.1c0.2-1.2-0.1-2.6-0.7-3.7
		s-1.3-2.4-2.3-3.1c-1-0.7-1.9-0.7-2.4-0.4C359.2,458.1,358.6,458.7,358.4,459.9z"/>
</g>
<g>
	<path class="st3" d="M49,543.7l5.7-3.6c0.4-0.3,1.5-0.9,1.9-1.3c0.7-0.6,1-1.1,1.2-1.6c0.4-1.3-0.2-2.5-1.6-3
		c-0.8-0.2-1.6-0.1-2.2,0.4c-0.3,0.3-0.6,0.7-0.8,1.3l-1.3-0.4c0.4-1.2,1-1.8,1.6-2.1c0.7-0.4,1.7-0.8,3.1-0.4
		c2,0.6,3.1,2.5,2.5,4.6c-0.2,0.8-0.7,1.4-1.7,2.2c-0.7,0.5-1.5,1.1-2.2,1.5l-3.2,2l4.8,1.5l-0.4,1.2L49,543.7z"/>
	<path class="st3" d="M66.4,545.4l1.4,0.4l-0.4,1.2l-1.4-0.4l-0.7,2.2l-1.3-0.4l0.7-2.2l-5.9-1.8l10.2-7.9L66.4,545.4z M65.2,545
		l1.6-5.1l-5.2,4L65.2,545z"/>
	<path class="st3" d="M70.1,548.5c-0.4-1.3-0.4-3,0.2-4.6c0.5-1.7,1.4-3,2.5-3.9c1.3-1,2.6-1.1,3.5-0.8c0.9,0.3,1.9,1.1,2.4,2.6
		c0.4,1.3,0.4,3-0.2,4.6s-1.4,3-2.5,3.9c-1.3,1-2.6,1.1-3.5,0.8C71.6,550.9,70.6,550.1,70.1,548.5z M73.4,541
		c-0.9,0.8-1.6,2.1-1.9,3.3c-0.4,1.2-0.6,2.6-0.2,3.8c0.3,1.2,1,1.7,1.6,1.9c0.6,0.2,1.5,0.1,2.4-0.7c0.9-0.8,1.6-2.1,1.9-3.3
		c0.4-1.2,0.6-2.6,0.2-3.8c-0.3-1.2-1-1.7-1.6-1.9C75.2,540.1,74.3,540.2,73.4,541z"/>
</g>
<g>
	<path class="st3" d="M322.5,36.6l-3.8-0.8l-1.3,2.4c0.2,0,0.5,0,0.8,0.1c2.4,0.5,3.5,2.6,3,5c-0.6,2.7-2.9,3.8-5.2,3.3
		c-0.9-0.2-1.8-0.7-2.4-1.5c-0.3-0.4-0.6-0.9-0.8-1.4l1.2-0.5c0.1,0.4,0.3,0.8,0.6,1.1c0.4,0.5,0.9,1,1.7,1.1
		c1.6,0.4,3.2-0.7,3.5-2.4c0.4-1.7-0.6-3.2-2.2-3.6c-0.4-0.1-1.2-0.2-2.4,0.3l3-5.4l4.7,1L322.5,36.6z"/>
	<path class="st3" d="M325.2,39c0.2-0.7,0.5-1.2,0.9-1.6c1-1.1,2.3-0.9,3-0.8c2.2,0.5,3,2.3,2.6,3.9c-0.2,0.9-0.8,2-2.1,2.3
		c0.4,0.2,1.5,1.2,1.1,3.2c-0.5,2.2-2.4,3.2-4.4,2.8c-1.2-0.3-2.5-1.1-2.8-2.8c-0.1-0.5-0.1-0.9,0-1.3l1.3,0.3c0,0.4,0,0.9,0.2,1.3
		c0.3,0.7,0.9,1.1,1.6,1.3c1.3,0.3,2.5-0.6,2.8-1.9c0.1-0.7,0.1-1.6-0.7-2.2c-0.3-0.3-0.8-0.5-1.3-0.5l0.3-1.2c0.4,0.1,1,0.2,1.4,0
		c0.4-0.1,1.1-0.5,1.4-1.5c0.2-1.1-0.1-2.2-1.6-2.5c-0.5-0.1-1.1-0.1-1.7,0.3c-0.3,0.3-0.6,0.7-0.7,1.1L325.2,39z"/>
	<path class="st3" d="M334,48.7c-0.5-1.3-0.6-2.9-0.2-4.6c0.4-1.7,1.1-3.1,2.1-4.1c1.2-1.1,2.5-1.3,3.4-1.1c0.9,0.2,2,0.9,2.6,2.4
		c0.5,1.3,0.6,2.9,0.2,4.6c-0.4,1.7-1.1,3.1-2.1,4.1c-1.2,1.1-2.5,1.3-3.4,1.1C335.7,50.9,334.6,50.2,334,48.7z M336.7,40.9
		c-0.9,0.9-1.4,2.2-1.7,3.4c-0.3,1.2-0.3,2.6,0.1,3.8c0.4,1.1,1.1,1.6,1.7,1.8c0.6,0.1,1.5,0,2.3-0.9c0.9-0.9,1.4-2.2,1.7-3.4
		s0.3-2.7-0.1-3.8c-0.4-1.1-1.1-1.6-1.7-1.8C338.4,39.9,337.6,40,336.7,40.9z"/>
	<path class="st3" d="M352.6,41.1c-0.5,0.8-1.1,1.7-1.6,2.9c-0.7,1.5-1.1,2.8-1.4,4.4c-0.3,1.5-0.5,2.8-0.5,4.4
		c0,1.2,0.1,2.3,0.2,3.5l-1.2,0.3c-0.3-2.2-0.3-4-0.3-4.3c0-1.4,0.3-2.9,0.5-4.2c0.3-1.2,0.7-2.8,1.5-4.5c0.5-1.1,1.2-2.3,1.8-3.2
		L352.6,41.1z"/>
	<path class="st3" d="M355.2,47.8l6.1-4l1.8,0.4l-6.7,4.3l4.3,7.6l-1.8-0.4l-3.6-6.5l-0.4,0.3l-1.1,5.1l-1.3-0.3l2.6-11.9l1.3,0.3
		L355.2,47.8z"/>
	<path class="st3" d="M367.6,46.5l-2.3,10.6l-1.3-0.3l2.3-10.6l-2.8-0.6l0.3-1.2l7,1.5l-0.3,1.2L367.6,46.5z"/>
	<path class="st3" d="M380.9,50.9c-0.3-0.5-0.8-1-1.3-1.4c-0.6-0.4-1.2-0.8-1.9-0.9c-2.7-0.6-5.2,1.2-5.8,3.9
		c-0.7,3.2,1.5,5.4,3.7,5.9c0.8,0.2,1.6,0.1,2.3-0.1c0.7-0.2,1.3-0.5,1.6-0.7l-0.4,1.6c-1.5,0.7-2.9,0.6-3.8,0.4
		c-3.5-0.8-5.5-4-4.7-7.4c0.8-3.5,4-5.6,7.5-4.8c0.7,0.2,2,0.5,3.2,1.9L380.9,50.9z"/>
	<path class="st3" d="M382,59.2c-0.5-1.3-0.6-2.9-0.2-4.6c0.4-1.7,1.1-3.1,2.1-4.1c1.2-1.1,2.5-1.3,3.4-1.1c0.9,0.2,2,0.9,2.6,2.4
		c0.5,1.3,0.6,2.9,0.2,4.6c-0.4,1.7-1.1,3.1-2.1,4.1c-1.2,1.1-2.5,1.3-3.4,1.1C383.7,61.5,382.6,60.7,382,59.2z M384.8,51.5
		c-0.9,0.9-1.4,2.2-1.7,3.4s-0.3,2.7,0.1,3.8c0.4,1.1,1.1,1.6,1.7,1.8c0.6,0.1,1.5,0,2.3-0.9c0.9-0.9,1.4-2.2,1.7-3.4
		c0.3-1.2,0.3-2.7-0.1-3.8c-0.4-1.1-1.1-1.6-1.7-1.8C386.5,50.5,385.6,50.6,384.8,51.5z"/>
	<path class="st3" d="M396.7,53l-2-0.4l1-1.1l2.6,0.6l-2.6,11.9l-1.3-0.3L396.7,53z"/>
	<path class="st3" d="M404.8,52.1c0.1,1,0.3,2.4,0.3,3.6c0,1.9-0.3,3.5-0.5,4.7c-0.3,1.3-0.7,2.8-1.3,4c-0.1,0.3-0.8,1.9-2,3.8
		l-1-0.8c0.6-1,1.1-2,1.6-3.1c0.7-1.5,1.1-2.8,1.4-4.3c0.3-1.5,0.5-3,0.5-4.6c0-1.3-0.1-2.4-0.2-3.3L404.8,52.1z"/>
</g>
<g>
	<path class="st3" d="M313.1,67.5l-3.8-0.8l-1.3,2.4c0.2,0,0.5,0,0.8,0.1c2.4,0.5,3.5,2.6,3,5c-0.6,2.7-2.9,3.8-5.2,3.3
		c-0.9-0.2-1.8-0.7-2.4-1.5c-0.3-0.4-0.6-0.9-0.8-1.4l1.2-0.5c0.1,0.4,0.3,0.8,0.6,1.1c0.4,0.5,0.9,1,1.7,1.1
		c1.6,0.4,3.2-0.7,3.5-2.4c0.4-1.7-0.6-3.2-2.2-3.6c-0.4-0.1-1.2-0.2-2.4,0.3l3-5.4l4.7,1L313.1,67.5z"/>
	<path class="st3" d="M319.3,68.9l-2-0.4l1-1.1l2.6,0.6l-2.6,11.9l-1.3-0.3L319.3,68.9z"/>
	<path class="st3" d="M324.6,79.6c-0.5-1.3-0.6-2.9-0.2-4.6c0.4-1.7,1.1-3.1,2.1-4.1c1.2-1.1,2.5-1.3,3.4-1.1c0.9,0.2,2,0.9,2.6,2.4
		c0.5,1.3,0.6,2.9,0.2,4.6c-0.4,1.7-1.1,3.1-2.1,4.1c-1.2,1.1-2.5,1.3-3.4,1.1C326.3,81.8,325.2,81.1,324.6,79.6z M327.4,71.8
		c-0.9,0.9-1.4,2.2-1.7,3.4c-0.3,1.2-0.3,2.6,0.1,3.8c0.4,1.1,1.1,1.6,1.7,1.8s1.5,0,2.3-0.9c0.9-0.9,1.4-2.2,1.7-3.4
		c0.3-1.2,0.3-2.7-0.1-3.8c-0.4-1.1-1.1-1.6-1.7-1.8C329.1,70.8,328.2,70.9,327.4,71.8z"/>
	<path class="st3" d="M343.2,72c-0.5,0.8-1.1,1.7-1.6,2.9c-0.7,1.5-1.1,2.8-1.4,4.4c-0.3,1.5-0.5,2.8-0.5,4.4c0,1.2,0.1,2.3,0.2,3.5
		l-1.2,0.3c-0.3-2.2-0.3-4-0.3-4.3c0-1.4,0.3-2.9,0.5-4.2c0.3-1.2,0.7-2.8,1.5-4.5c0.5-1.1,1.2-2.3,1.8-3.2L343.2,72z"/>
	<path class="st3" d="M345.8,78.8l6.1-4l1.8,0.4l-6.7,4.3l4.3,7.6l-1.8-0.4l-3.6-6.5l-0.4,0.3l-1.1,5.1l-1.3-0.3l2.6-11.9l1.3,0.3
		L345.8,78.8z"/>
	<path class="st3" d="M358.2,77.5l-2.3,10.6l-1.3-0.3l2.3-10.6l-2.8-0.6l0.3-1.2l7,1.5l-0.3,1.2L358.2,77.5z"/>
	<path class="st3" d="M371.5,81.8c-0.3-0.5-0.8-1-1.3-1.4c-0.6-0.4-1.2-0.8-1.9-0.9c-2.7-0.6-5.2,1.2-5.8,3.9
		c-0.7,3.2,1.5,5.4,3.7,5.9c0.8,0.2,1.6,0.1,2.3-0.1c0.7-0.2,1.3-0.5,1.6-0.7l-0.4,1.6c-1.5,0.7-2.9,0.6-3.8,0.4
		c-3.5-0.8-5.5-4-4.7-7.4c0.8-3.5,4-5.6,7.5-4.8c0.7,0.2,2,0.5,3.2,1.9L371.5,81.8z"/>
	<path class="st3" d="M372.7,90.1c-0.5-1.3-0.6-2.9-0.2-4.6c0.4-1.7,1.1-3.1,2.1-4.1c1.2-1.1,2.5-1.3,3.4-1.1c0.9,0.2,2,0.9,2.6,2.4
		c0.5,1.3,0.6,2.9,0.2,4.6c-0.4,1.7-1.1,3.1-2.1,4.1c-1.2,1.1-2.5,1.3-3.4,1.1C374.3,92.4,373.3,91.6,372.7,90.1z M375.4,82.4
		c-0.9,0.9-1.4,2.2-1.7,3.4s-0.3,2.6,0.1,3.8c0.4,1.1,1.1,1.6,1.7,1.8c0.6,0.1,1.5,0,2.3-0.9c0.9-0.9,1.4-2.2,1.7-3.4
		c0.3-1.2,0.3-2.7-0.1-3.8c-0.4-1.1-1.1-1.6-1.7-1.8S376.2,81.5,375.4,82.4z"/>
	<path class="st3" d="M387.3,83.9l-2-0.4l1-1.1l2.6,0.6l-2.6,11.9l-1.3-0.3L387.3,83.9z"/>
	<path class="st3" d="M399,94.1l-5-1.1l-2.1,3l-1.4-0.3l8.1-11.3l2.5,13.6l-1.4-0.3L399,94.1z M398.7,92.7l-0.9-5.2l-3,4.3
		L398.7,92.7z"/>
	<path class="st3" d="M406.3,85.4c0.1,1,0.3,2.4,0.3,3.6c0,1.9-0.3,3.5-0.5,4.7c-0.3,1.3-0.7,2.8-1.3,4.1c-0.1,0.3-0.8,1.9-2,3.8
		l-1-0.8c0.6-1,1.1-2,1.6-3.1c0.7-1.5,1.1-2.8,1.4-4.3c0.3-1.5,0.5-3,0.5-4.6c0-1.3-0.1-2.4-0.2-3.3L406.3,85.4z"/>
</g>
<g>
	<path class="st3" d="M424.2,400.4c1.9,0,3.6,1.2,3.6,3.7c0,2.4-1.7,3.7-3.6,3.7c-1.3,0-2.4-0.6-3-1.8c-0.6,1-1.5,1.5-2.7,1.5
		c-1.7,0-3.4-1.2-3.4-3.3c0-2.2,1.6-3.3,3.4-3.3c1.1,0,2.1,0.5,2.7,1.5C421.7,401,422.9,400.4,424.2,400.4z M418.6,402
		c-1.3,0-2.2,1-2.2,2c0,1.1,0.8,2,2.2,2c1.2,0,2.1-0.9,2.1-2C420.7,402.9,419.8,402,418.6,402z M424.1,401.7c-1.4,0-2.3,1-2.3,2.3
		s0.9,2.3,2.3,2.3c1.4,0,2.4-1,2.4-2.3C426.5,402.7,425.5,401.7,424.1,401.7z"/>
	<path class="st3" d="M424.2,390.2c1.9,0,3.6,1.2,3.6,3.7c0,2.4-1.7,3.7-3.6,3.7c-1.3,0-2.4-0.6-3-1.8c-0.6,1-1.5,1.5-2.7,1.5
		c-1.7,0-3.4-1.2-3.4-3.3c0-2.2,1.6-3.3,3.4-3.3c1.1,0,2.1,0.5,2.7,1.5C421.7,390.7,422.9,390.2,424.2,390.2z M418.6,391.8
		c-1.3,0-2.2,1-2.2,2c0,1.1,0.8,2,2.2,2c1.2,0,2.1-0.9,2.1-2C420.7,392.7,419.8,391.8,418.6,391.8z M424.1,391.5
		c-1.4,0-2.3,1-2.3,2.3c0,1.4,0.9,2.3,2.3,2.3c1.4,0,2.4-1,2.4-2.3C426.5,392.4,425.5,391.5,424.1,391.5z"/>
	<path class="st3" d="M424,380.9v-1.5h1.2v1.5h2.3v1.3h-2.3v6.1l-10.5-7.5H424z M424,382.2h-5.4l5.4,3.8V382.2z"/>
	<path class="st3" d="M414.6,370.2c0.9,0.3,1.9,0.7,3.2,0.9c1.6,0.3,3,0.4,4.6,0.4c1.5,0,2.8-0.1,4.4-0.4c1.2-0.2,2.3-0.6,3.3-0.9
		l0.5,1.1c-2.1,0.8-3.8,1.1-4.1,1.2c-1.3,0.3-2.9,0.4-4.2,0.4c-1.2,0-2.9-0.1-4.7-0.5c-1.2-0.3-2.5-0.7-3.5-1.1L414.6,370.2z"/>
	<path class="st3" d="M420.6,366.1l-5.2-5.1v-1.8l5.7,5.6l6.5-5.8v1.8l-5.6,4.9l0.3,0.3h5.2v1.3h-12.2v-1.3H420.6z"/>
	<path class="st3" d="M416.6,354.3h10.9v1.3h-10.9v2.9h-1.3v-7.2h1.3V354.3z"/>
	<path class="st3" d="M418,340.4c-0.4,0.4-0.8,1-1.1,1.6c-0.3,0.6-0.5,1.4-0.5,2.1c0,2.8,2.3,4.8,5.1,4.8c3.3,0,5-2.6,5-4.8
		c0-0.8-0.2-1.6-0.6-2.2c-0.3-0.7-0.8-1.2-1-1.4h1.7c1,1.3,1.2,2.7,1.2,3.6c0,3.6-2.7,6.2-6.3,6.2c-3.6,0-6.3-2.7-6.3-6.3
		c0-0.7,0.1-2.1,1.2-3.5H418z"/>
	<path class="st3" d="M425.9,337.5c-1.2,0.8-2.7,1.2-4.5,1.2c-1.7,0-3.3-0.4-4.5-1.2c-1.3-0.9-1.8-2.1-1.8-3.1c0-1,0.5-2.2,1.8-3.1
		c1.2-0.8,2.7-1.2,4.5-1.2c1.7,0,3.3,0.4,4.5,1.2c1.3,0.9,1.8,2.1,1.8,3.1C427.7,335.4,427.3,336.6,425.9,337.5z M417.8,336.5
		c1,0.6,2.4,0.9,3.7,0.9c1.3,0,2.7-0.2,3.7-0.9c1-0.6,1.3-1.5,1.3-2.1c0-0.6-0.3-1.4-1.3-2.1c-1-0.6-2.4-0.9-3.7-0.9
		c-1.3,0-2.7,0.2-3.7,0.9c-1,0.6-1.3,1.5-1.3,2.1C416.4,335,416.7,335.9,417.8,336.5z"/>
	<path class="st3" d="M416.6,324.5v2l-1.3-0.7v-2.6h12.2v1.3H416.6z"/>
	<path class="st3" d="M424.1,310.9v5.1l3.4,1.4v1.5l-12.7-5.5l12.7-5.4v1.5L424.1,310.9z M422.8,311.5l-4.9,2l4.9,2V311.5z"/>
	<path class="st3" d="M414,305.6c1-0.4,2.3-0.8,3.5-1.1c1.8-0.4,3.5-0.5,4.7-0.5c1.3,0,2.9,0.1,4.2,0.4c0.3,0.1,2,0.4,4.1,1.2
		l-0.5,1.1c-1.1-0.4-2.2-0.7-3.3-0.9c-1.6-0.3-3-0.4-4.4-0.4c-1.6,0-3,0.1-4.6,0.4c-1.2,0.3-2.3,0.6-3.2,0.9L414,305.6z"/>
</g>
<g>
	<path class="st3" d="M451.8,402.8c1.9,0,3.6,1.2,3.6,3.7c0,2.4-1.7,3.7-3.6,3.7c-1.3,0-2.4-0.6-3-1.8c-0.6,1-1.5,1.5-2.7,1.5
		c-1.7,0-3.4-1.2-3.4-3.3c0-2.2,1.6-3.3,3.4-3.3c1.1,0,2.1,0.5,2.7,1.5C449.4,403.4,450.5,402.8,451.8,402.8z M446.2,404.4
		c-1.3,0-2.2,1-2.2,2c0,1.1,0.8,2,2.2,2c1.2,0,2.1-0.9,2.1-2C448.3,405.3,447.4,404.4,446.2,404.4z M451.8,404.1
		c-1.4,0-2.3,1-2.3,2.3s0.9,2.3,2.3,2.3c1.4,0,2.4-1,2.4-2.3C454.2,405.1,453.2,404.1,451.8,404.1z"/>
	<path class="st3" d="M444.3,393.6v6.6H443v-8.8l12.5,8l-0.7,1L444.3,393.6z"/>
	<path class="st3" d="M444.3,382.5v3.8l2.6,0.8c-0.1-0.2-0.1-0.5-0.1-0.8c0-2.4,1.8-4,4.2-4c2.7,0,4.4,2,4.4,4.4
		c0,1-0.3,1.9-0.9,2.7c-0.3,0.4-0.7,0.8-1.2,1l-0.8-1.1c0.4-0.2,0.7-0.4,1-0.8c0.4-0.5,0.7-1.1,0.7-1.9c0-1.7-1.4-2.9-3.1-2.9
		c-1.8,0-3,1.2-3,2.9c0,0.4,0.1,1.2,0.8,2.3l-5.9-1.7v-4.8H444.3z"/>
	<path class="st3" d="M442.2,372.6c0.9,0.3,1.9,0.7,3.2,0.9c1.6,0.3,3,0.4,4.6,0.4c1.5,0,2.8-0.1,4.4-0.4c1.2-0.2,2.3-0.6,3.3-0.9
		l0.5,1.1c-2.1,0.8-3.8,1.1-4.1,1.2c-1.3,0.3-2.9,0.4-4.2,0.4c-1.2,0-2.9-0.1-4.7-0.5c-1.2-0.3-2.5-0.7-3.5-1.1L442.2,372.6z"/>
	<path class="st3" d="M448.3,368.6l-5.2-5.1v-1.8l5.7,5.6l6.5-5.8v1.8l-5.6,4.9l0.3,0.3h5.2v1.3H443v-1.3H448.3z"/>
	<path class="st3" d="M444.3,356.8h10.9v1.3h-10.9v2.9H443v-7.2h1.3V356.8z"/>
	<path class="st3" d="M445.7,342.9c-0.4,0.4-0.8,1-1.1,1.6c-0.3,0.6-0.5,1.4-0.5,2.1c0,2.8,2.3,4.8,5.1,4.8c3.3,0,5-2.6,5-4.8
		c0-0.8-0.2-1.6-0.6-2.2c-0.3-0.7-0.8-1.2-1-1.4h1.7c1,1.3,1.2,2.7,1.2,3.6c0,3.6-2.7,6.2-6.3,6.2c-3.6,0-6.3-2.7-6.3-6.3
		c0-0.7,0.1-2.1,1.2-3.5H445.7z"/>
	<path class="st3" d="M453.6,339.9c-1.2,0.8-2.7,1.2-4.5,1.2s-3.3-0.4-4.5-1.2c-1.3-0.9-1.8-2.1-1.8-3.1c0-1,0.5-2.2,1.8-3.1
		c1.2-0.8,2.7-1.2,4.5-1.2s3.3,0.4,4.5,1.2c1.3,0.9,1.8,2.1,1.8,3.1C455.4,337.8,454.9,339,453.6,339.9z M445.4,338.9
		c1,0.6,2.4,0.9,3.7,0.9s2.7-0.2,3.7-0.9c1-0.6,1.3-1.5,1.3-2.1c0-0.6-0.3-1.4-1.3-2.1c-1-0.6-2.4-0.9-3.7-0.9s-2.7,0.2-3.7,0.9
		c-1,0.6-1.3,1.5-1.3,2.1C444.1,337.5,444.4,338.3,445.4,338.9z"/>
	<path class="st3" d="M444.3,327v2l-1.3-0.7v-2.6h12.2v1.3H444.3z"/>
	<path class="st3" d="M441.7,319.3c1-0.4,2.3-0.8,3.5-1.1c1.8-0.4,3.5-0.5,4.7-0.5c1.3,0,2.9,0.1,4.2,0.4c0.3,0.1,2,0.4,4.1,1.2
		l-0.5,1.1c-1.1-0.4-2.2-0.7-3.3-0.9c-1.6-0.3-3-0.4-4.4-0.4c-1.6,0-3,0.1-4.6,0.5c-1.2,0.3-2.3,0.6-3.2,0.9L441.7,319.3z"/>
</g>
</svg>
