<?xml version="1.0" encoding="utf-8"?>
<!-- Generator: Adobe Illustrator 25.1.0, SVG Export Plug-In . SVG Version: 6.00 Build 0)  -->
<svg version="1.1" id="Слой_1" xmlns="http://www.w3.org/2000/svg" xmlns:xlink="http://www.w3.org/1999/xlink" x="0px" y="0px"
	 width="500px" height="600px" viewBox="0 0 500 600" style="enable-background:new 0 0 500 600;" xml:space="preserve">
<style type="text/css">
	.st0{fill:none;stroke:#4E86B9;stroke-width:0.9553;stroke-miterlimit:3.864;}
	.st1{fill:none;stroke:#4E86B9;stroke-width:0.5732;stroke-miterlimit:3.864;}
	.st2{fill:none;stroke:#4E86B9;stroke-width:0.573;stroke-linecap:round;stroke-linejoin:round;stroke-miterlimit:3.864;}
	.st3{fill:#4E86B9;}
	.st4{fill:none;stroke:#4E86B9;stroke-width:0.5732;stroke-linecap:round;stroke-linejoin:round;stroke-miterlimit:3.864;}
</style>
<line class="st0" x1="192.4" y1="218.8" x2="384.8" y2="156.3"/>
<line class="st0" x1="192.1" y1="246.7" x2="243.3" y2="230.4"/>
<line class="st0" x1="319.5" y1="205.9" x2="334.6" y2="200.9"/>
<line class="st0" x1="334.6" y1="200.9" x2="385" y2="156.3"/>
<line class="st0" x1="205.5" y1="198.2" x2="372.6" y2="144"/>
<line class="st0" x1="154" y1="169.2" x2="319" y2="115.8"/>
<line class="st0" x1="318.7" y1="115.6" x2="354.2" y2="123.4"/>
<line class="st0" x1="363.9" y1="130.8" x2="372.7" y2="144.3"/>
<line class="st0" x1="195.8" y1="185.7" x2="205.5" y2="198.2"/>
<line class="st0" x1="205.5" y1="198.2" x2="205.2" y2="200.9"/>
<line class="st0" x1="205.3" y1="201" x2="174.9" y2="210.4"/>
<line class="st0" x1="158.2" y1="167.9" x2="179.3" y2="172.6"/>
<line class="st0" x1="157.6" y1="167.9" x2="130.3" y2="184.1"/>
<line class="st0" x1="179.3" y1="172.6" x2="152" y2="189.4"/>
<line class="st0" x1="130.1" y1="184.4" x2="152" y2="189.4"/>
<line class="st0" x1="372.7" y1="144.3" x2="372.9" y2="146.3"/>
<line class="st0" x1="372.9" y1="146.3" x2="402.9" y2="136"/>
<line class="st0" x1="205.2" y1="200.9" x2="372.7" y2="146.3"/>
<line class="st0" x1="174.1" y1="206.5" x2="204.6" y2="197.3"/>
<line class="st0" x1="196.2" y1="185.4" x2="363.9" y2="130.8"/>
<line class="st0" x1="187.3" y1="176.9" x2="352.5" y2="123.2"/>
<line class="st0" x1="161.9" y1="168.8" x2="322" y2="116.5"/>
<line class="st0" x1="180.8" y1="174.7" x2="152.3" y2="189.3"/>
<line class="st0" x1="179.3" y1="172.6" x2="180.3" y2="174.7"/>
<line class="st0" x1="127.4" y1="187.4" x2="146.6" y2="191.5"/>
<line class="st0" x1="152" y1="189.4" x2="146.6" y2="191.5"/>
<line class="st0" x1="130.1" y1="184.4" x2="127.4" y2="187.4"/>
<line class="st0" x1="160" y1="172.2" x2="145.3" y2="181.3"/>
<line class="st0" x1="168.2" y1="174.2" x2="153.3" y2="183.3"/>
<line class="st0" x1="145.3" y1="181.3" x2="153.3" y2="183.3"/>
<line class="st0" x1="155.2" y1="175.3" x2="162.4" y2="177.3"/>
<line class="st0" x1="160.2" y1="172.2" x2="168.2" y2="174.2"/>
<line class="st0" x1="150" y1="178.7" x2="157.4" y2="180.7"/>
<line class="st0" x1="294.9" y1="200.6" x2="417.1" y2="227.3"/>
<line class="st0" x1="292.2" y1="212.7" x2="414.1" y2="239.6"/>
<line class="st0" x1="292.8" y1="220.7" x2="372" y2="313.7"/>
<line class="st0" x1="275.7" y1="220.8" x2="363.6" y2="321.5"/>
<line class="st0" x1="244.6" y1="227.4" x2="192" y2="364.8"/>
<line class="st0" x1="258.4" y1="227.1" x2="200.5" y2="377.8"/>
<line class="st0" x1="191.7" y1="445.5" x2="320.8" y2="398"/>
<line class="st0" x1="320.8" y1="398" x2="384.9" y2="413.7"/>
<line class="st0" x1="174.9" y1="513.5" x2="402.2" y2="420.7"/>
<line class="st0" x1="174.9" y1="521" x2="402.4" y2="429"/>
<line class="st0" x1="402.4" y1="429" x2="402.4" y2="420.6"/>
<line class="st0" x1="320.8" y1="272.3" x2="320.8" y2="398"/>
<line class="st0" x1="402.3" y1="237.6" x2="402.3" y2="421.2"/>
<line class="st0" x1="402.3" y1="136.4" x2="402.3" y2="224.1"/>
<line class="st0" x1="385.1" y1="233.2" x2="385.1" y2="427.6"/>
<line class="st0" x1="385.1" y1="142.2" x2="385.1" y2="220.3"/>
<line class="st0" x1="320.8" y1="219" x2="320.8" y2="253.5"/>
<line class="st0" x1="192.3" y1="492" x2="384.8" y2="414"/>
<line class="st0" x1="192.1" y1="205.2" x2="192.1" y2="506.8"/>
<line class="st0" x1="176.3" y1="209.7" x2="176.3" y2="513.3"/>
<line class="st0" x1="139.2" y1="208.1" x2="139.2" y2="512.5"/>
<line class="st0" x1="119.3" y1="204.2" x2="119.3" y2="507.8"/>
<line class="st0" x1="105.5" y1="200.1" x2="105.5" y2="501.4"/>
<line class="st0" x1="114.7" y1="514.6" x2="143.9" y2="521.3"/>
<line class="st0" x1="143.9" y1="521.3" x2="174.9" y2="521"/>
<path class="st0" d="M105.6,501.6c0,4.2,0,6.2,0,6.2"/>
<path class="st0" d="M105.6,507.8c0,2,0.9,3.5,1.9,3.5"/>
<line class="st0" x1="107.5" y1="511.3" x2="114.7" y2="514.6"/>
<path class="st0" d="M105.3,497.8c0,6.6,0.8,6.2,2,6.2"/>
<path class="st0" d="M106.5,503.9c1,1.7,3.9,2.1,7.9,3.3"/>
<line class="st0" x1="114.4" y1="507.2" x2="145.1" y2="513.9"/>
<line class="st0" x1="174.9" y1="513.5" x2="159.1" y2="514.4"/>
<path class="st0" d="M144.9,513.4c0,0.5,6.4,1,14.2,1"/>
<path class="st0" d="M109.5,184.6c7.7-3.4,29.3-12.5,44.4-15.4"/>
<path class="st0" d="M109.5,184.6c-4.4,1.7-5.9,5.2-5.9,13"/>
<path class="st0" d="M103.6,197c0.6,3.8,6,5.2,15.3,7"/>
<path class="st0" d="M139.4,208.1c11.4,2.4,16.1,3.8,35.3,2.3"/>
<line class="st0" x1="113.7" y1="202.9" x2="139.4" y2="208.1"/>
<path class="st0" d="M109.1,185c14.2,3.7,24.8,6.4,50.6,10.6"/>
<path class="st0" d="M159.8,195.7c-6.6,3.3-7.8,4.9-12,11.1"/>
<path class="st0" d="M147.8,206.8c0,1.2,0,3-0.2,3"/>
<path class="st0" d="M160.2,195.8c4.4,5.7,7.6,7.6,13.6,10.8"/>
<path class="st0" d="M159.8,195.7c16.1-10.5,24.3-18.5,18.9-19.4"/>
<line class="st0" x1="173.9" y1="206.6" x2="176.3" y2="209.7"/>
<path class="st0" d="M243.6,229.1c-25.3-5.9,52.1-48.6,57.3-37"/>
<path class="st0" d="M242.3,228.5c-0.4-16.7,69.4-46,57.6-27.1"/>
<path class="st0" d="M255.2,220.9c6.6-6.2,15.6-11.8,23.1-14.4"/>
<path class="st0" d="M271.1,222.1c-4.2,2.2-6.7,3.5-12.6,5"/>
<path class="st0" d="M259.9,219c-2.8,1.6-7.2,3.2-15.3,3.6"/>
<path class="st0" d="M259.8,219.1c-0.8,15.3-13.6,14.3-15,4"/>
<path class="st0" d="M254.3,237.6c-2.6-2.8-7-5.4-11.5-4.9"/>
<path class="st0" d="M293.6,221.9c0,4.7-4.2,8.6-9.4,8.6"/>
<path class="st0" d="M292.2,212.7c-3.6-4.1-0.3-11.7,2.9-12"/>
<line class="st0" x1="270.7" y1="221.1" x2="284.5" y2="212"/>
<line class="st0" x1="270.7" y1="221.3" x2="275.9" y2="227"/>
<line class="st0" x1="285" y1="211.8" x2="290.1" y2="218"/>
<line class="st0" x1="294.9" y1="200.6" x2="285.2" y2="197.9"/>
<line class="st0" x1="294.9" y1="200.6" x2="292.9" y2="195.9"/>
<line class="st0" x1="298.4" y1="201.3" x2="295.8" y2="195.7"/>
<line class="st0" x1="275.9" y1="227" x2="279.1" y2="225"/>
<line class="st0" x1="287.8" y1="220.1" x2="290.1" y2="218"/>
<line class="st0" x1="275.8" y1="220.7" x2="283.4" y2="216"/>
<line class="st0" x1="283.6" y1="216.1" x2="287.8" y2="220.1"/>
<path class="st0" d="M286.1,198.4c6.2,9.1,0.3,13.6-1.6,13.3"/>
<path class="st0" d="M282.7,198.7c7.8,12.6,2.5,15.3-8.1,10.7"/>
<path class="st0" d="M282.7,198.7c-1.6,3.9-4.4,10-8.3,10.6"/>
<path class="st0" d="M275.9,227c0,0.4,3,2.7,5.6,0.5"/>
<path class="st0" d="M281.9,216.9c2.7,3.2-1.6,6.2-4.5,3"/>
<path class="st0" d="M284.5,217.4c0,2.8-3.3,5.2-6.9,5.2"/>
<line class="st0" x1="330.8" y1="113.4" x2="356.8" y2="111.6"/>
<line class="st0" x1="356.8" y1="111.6" x2="376.8" y2="116.3"/>
<line class="st0" x1="376.8" y1="116.3" x2="350.8" y2="118.2"/>
<line class="st0" x1="350.8" y1="118.2" x2="331.2" y2="113.4"/>
<line class="st0" x1="330.8" y1="113.4" x2="328.9" y2="115.5"/>
<line class="st0" x1="328.9" y1="115.5" x2="349.9" y2="120.6"/>
<path class="st0" d="M347.8,108c6.4,0.6,38.4,8.3,51.1,11.5"/>
<path class="st0" d="M398.9,119.5c5.2,3.6,4,8.4,4.2,16.4"/>
<line class="st0" x1="372.6" y1="144" x2="402.6" y2="133.6"/>
<path class="st0" d="M363.9,130.8c-2.7-4-6.6-6.9-10.9-7.6"/>
<path class="st0" d="M318.7,115.6c8.6-3.4,11.5-5,29-7.6"/>
<path class="st0" d="M349.9,120.6c3.9,1.5,26,1.9,51.4,1.7"/>
<line class="st0" x1="338.1" y1="114.8" x2="355.1" y2="113.8"/>
<line class="st0" x1="345.6" y1="116.6" x2="362.8" y2="115.6"/>
<line class="st0" x1="355.1" y1="113.8" x2="362.8" y2="115.6"/>
<line class="st0" x1="344.3" y1="114.5" x2="350.3" y2="116.3"/>
<line class="st0" x1="351.5" y1="114.3" x2="357.5" y2="115.8"/>
<path class="st0" d="M255,224.6c0,1.1-1,2-2.1,2c-1.3,0-2.1-0.9-2.1-2s0.9-2,2.1-2S255,223.5,255,224.6z"/>
<path class="st0" d="M282.4,205.9c0.7,0.9,0.8,1.8-0.2,2.5s-1.9,0.1-2.5-0.8c-0.7-0.9-0.9-1.8,0.1-2.6
	C280.8,204.4,281.8,205,282.4,205.9z"/>
<path class="st0" d="M290,217.9c2.9,2.7,0.9,5.2,0.9,5.2"/>
<path class="st0" d="M292.8,220.7c0.4-3.3,0-4.5-3.9-8.6"/>
<path class="st0" d="M270.1,218.3c0.2,0.4-0.5,1.2-1.6,1.8s-2.2,0.8-2.4,0.4c-0.2-0.4,0.4-1.3,1.5-1.9
	C268.8,218,269.9,217.8,270.1,218.3z"/>
<path class="st0" d="M272.4,213.1c0.3,0.4-0.4,1.2-1.5,1.8s-2.2,0.8-2.4,0.4c-0.3-0.4,0.4-1.2,1.6-1.8
	C271.1,212.8,272.2,212.7,272.4,213.1z"/>
<path class="st0" d="M279.8,212.4c0.3,0.4-0.5,1.2-1.5,1.9c-1.2,0.7-2.1,0.8-2.5,0.4c-0.2-0.4,0.4-1.2,1.6-1.9
	C278.5,212.2,279.6,212,279.8,212.4z"/>
<path class="st0" d="M195.5,185.2c-2.7-4.2-6.6-7.9-14.7-10.5"/>
<path class="st0" d="M200.1,379c1-2.7-4.8-5.2-8.1-5.1"/>
<path class="st0" d="M200.1,379c-2.5,1.1-3.9,1.1-8.1,0"/>
<path class="st0" d="M372.1,313.8c3.1,5.5-5.1,10-8.5,7.7"/>
<path class="st0" d="M417.1,227.3c5.1,3.9,1.3,13.6-3,12.3"/>
<path class="st0" d="M417.1,227.3c-4.4,0.2-6.7,8.4-3.5,11.9"/>
<path class="st0" d="M130.8,239.1c0,1.9-1.2,3.5-2.7,3.5s-2.7-1.6-2.7-3.5c0-2,1.2-3.5,2.7-3.5C129.5,235.6,130.8,237.1,130.8,239.1
	z"/>
<path class="st0" d="M126.7,234.9c6.1-3,7.8,8.6,2.1,7.9"/>
<line class="st0" x1="287.8" y1="220.1" x2="290.8" y2="223.1"/>
<line class="st0" x1="292.2" y1="212.7" x2="285.9" y2="211.4"/>
<path class="st0" d="M243.4,224.8c0.5,2,2.4,3.5,3.7,4"/>
<path class="st0" d="M300.8,191.6c1.4,3,1.5,4.8,0.6,6.4"/>
<line class="st0" x1="126.8" y1="234.8" x2="126" y2="236.5"/>
<line class="st0" x1="127.5" y1="242.6" x2="129.4" y2="243"/>
<line class="st0" x1="127.6" y1="237.3" x2="127.6" y2="238.7"/>
<line class="st0" x1="128.2" y1="238.2" x2="128.2" y2="239.5"/>
<line class="st0" x1="127.7" y1="239.5" x2="127.9" y2="241"/>
<line class="st1" x1="96.1" y1="555" x2="176" y2="521.2"/>
<line class="st1" x1="79.5" y1="198.9" x2="79.5" y2="536.2"/>
<line class="st1" x1="142.4" y1="520.7" x2="247" y2="545.5"/>
<line class="st2" x1="402.5" y1="425.1" x2="450.6" y2="436.7"/>
<line class="st1" x1="212" y1="537.5" x2="442.3" y2="439"/>
<line class="st2" x1="290.8" y1="474.7" x2="435.3" y2="512.7"/>
<line class="st1" x1="21.9" y1="528.7" x2="103.8" y2="499.1"/>
<line class="st1" x1="37.3" y1="523.3" x2="115.7" y2="546.7"/>
<line class="st1" x1="65" y1="203.1" x2="174.9" y2="167.6"/>
<line class="st1" x1="416.4" y1="233.7" x2="435" y2="237.7"/>
<g id="XMLID_3_">
	<g>
		<path class="st3" d="M448.3,436.4l-11.2,7.2c1.5-2,1.1-3.4-1.5-3.7L448.3,436.4L448.3,436.4z"/>
	</g>
</g>
<g id="XMLID_4_">
	<g>
		<path class="st3" d="M212.3,537.3l11.2-7.2c-1.5,2-1.1,3.4,1.5,3.7L212.3,537.3L212.3,537.3z"/>
	</g>
</g>
<g id="XMLID_5_">
	<g>
		<path class="st3" d="M79.4,198.5l2,13.1c-1.2-2.2-2.7-2.4-4-0.2L79.4,198.5L79.4,198.5L79.4,198.5z"/>
	</g>
</g>
<g id="XMLID_6_">
	<g>
		<path class="st3" d="M79.5,535.7l-2-13.1c1.2,2.2,2.7,2.4,4,0.2L79.5,535.7L79.5,535.7z"/>
	</g>
</g>
<g id="XMLID_7_">
	<g>
		<path class="st3" d="M37.3,523.2l13.1,2.1c-2.5,0.5-3.1,1.8-1.4,3.8L37.3,523.2L37.3,523.2z"/>
	</g>
</g>
<g id="XMLID_8_">
	<g>
		<path class="st3" d="M115.3,546.6l-13.1-2.2c2.5-0.5,3.1-1.8,1.4-3.8L115.3,546.6L115.3,546.6z"/>
	</g>
</g>
<g>
	<g id="XMLID_1_">
		<g>
			<path class="st3" d="M434.8,237.4l2,13.1c-1.2-2.2-2.7-2.4-4-0.2L434.8,237.4L434.8,237.4z"/>
		</g>
	</g>
	<g id="XMLID_2_">
		<g>
			<path class="st3" d="M434.8,512.1l2-13.1c-1.2,2.2-2.7,2.4-4,0.2L434.8,512.1L434.8,512.1z"/>
		</g>
	</g>
	<line class="st2" x1="434.7" y1="246.7" x2="434.8" y2="505.5"/>
</g>
<line class="st4" x1="416.5" y1="106.4" x2="416.5" y2="233.7"/>
<line class="st4" x1="291.1" y1="79.1" x2="291.1" y2="185.8"/>
<line class="st1" x1="297.7" y1="80.4" x2="409.5" y2="104.9"/>
<g id="XMLID_9_">
	<g>
		<path class="st3" d="M416.5,106.4l-13.3-0.8c2.4-0.7,2.9-2.1,1-3.9L416.5,106.4L416.5,106.4z"/>
	</g>
</g>
<g id="XMLID_10_">
	<g>
		<path class="st3" d="M291.1,79.1l13.3,0.8c-2.4,0.7-2.9,2.1-1,3.9L291.1,79.1L291.1,79.1z"/>
	</g>
</g>
<g>
	<path class="st3" d="M62.8,381v2l-1.3-0.7v-2.7h12.1v1.3H62.8V381z"/>
	<path class="st3" d="M72,374.6c-1.2,0.8-2.7,1.2-4.4,1.2c-1.7,0-3.3-0.4-4.4-1.2c-1.3-0.9-1.8-2.1-1.8-3.1s0.5-2.2,1.8-3.1
		c1.2-0.8,2.7-1.2,4.4-1.2c1.7,0,3.3,0.4,4.4,1.2c1.3,0.9,1.8,2.1,1.8,3.1C73.8,372.4,73.4,373.7,72,374.6z M63.9,373.6
		c1,0.7,2.4,0.9,3.7,0.9c1.3,0,2.7-0.2,3.7-0.9c1-0.6,1.3-1.5,1.3-2.1s-0.3-1.5-1.3-2.1c-1-0.7-2.4-0.9-3.7-0.9
		c-1.3,0-2.7,0.2-3.7,0.9c-1,0.6-1.3,1.5-1.3,2.1C62.5,372.1,62.9,372.9,63.9,373.6z"/>
	<path class="st3" d="M64.5,364.8c-0.7,0-1.3-0.3-1.8-0.6c-1.3-0.8-1.4-2.1-1.4-2.8c0-2.3,1.6-3.4,3.3-3.4c0.9,0,2.1,0.3,2.7,1.6
		c0.2-0.4,0.8-1.7,2.9-1.7c2.3,0,3.6,1.7,3.6,3.7c0,1.3-0.5,2.7-2.1,3.4c-0.4,0.2-0.8,0.3-1.3,0.3V364c0.4-0.1,0.9-0.2,1.2-0.4
		c0.6-0.4,0.9-1.1,0.9-1.9c0-1.3-1.1-2.4-2.5-2.4c-0.7,0-1.6,0.3-2,1.2c-0.2,0.4-0.3,0.9-0.3,1.4h-1.2c0-0.5-0.1-1-0.3-1.4
		c-0.2-0.4-0.7-1-1.8-1c-1.1,0-2.1,0.6-2.1,2.1c0,0.5,0.1,1.1,0.7,1.6c0.3,0.2,0.8,0.4,1.3,0.5v1.1H64.5z"/>
	<path class="st3" d="M72,354c-1.2,0.8-2.7,1.2-4.4,1.2c-1.7,0-3.3-0.4-4.4-1.2c-1.3-0.9-1.8-2.1-1.8-3.1s0.5-2.2,1.8-3.1
		c1.2-0.8,2.7-1.2,4.4-1.2c1.7,0,3.3,0.4,4.4,1.2c1.3,0.9,1.8,2.1,1.8,3.1C73.8,351.8,73.4,353,72,354z M63.9,352.9
		c1,0.7,2.4,0.9,3.7,0.9c1.3,0,2.7-0.2,3.7-0.9c1-0.6,1.3-1.5,1.3-2.1s-0.3-1.5-1.3-2.1c-1-0.7-2.4-0.9-3.7-0.9
		c-1.3,0-2.7,0.2-3.7,0.9c-1,0.6-1.3,1.5-1.3,2.1C62.5,351.5,62.9,352.3,63.9,352.9z"/>
</g>
<g>
	<path class="st3" d="M424.3,342.9c1.9,0,3.6,1.2,3.6,3.7s-1.7,3.7-3.6,3.7c-1.3,0-2.4-0.6-3-1.8c-0.6,1-1.5,1.5-2.7,1.5
		c-1.7,0-3.4-1.2-3.4-3.3c0-2.2,1.6-3.3,3.4-3.3c1.1,0,2.1,0.5,2.7,1.5C421.9,343.5,423,342.9,424.3,342.9z M418.7,344.5
		c-1.3,0-2.1,1-2.1,2.1s0.8,2.1,2.1,2.1c1.2,0,2.1-0.9,2.1-2.1C420.8,345.4,419.9,344.5,418.7,344.5z M424.2,344.2
		c-1.4,0-2.3,1-2.3,2.4s0.9,2.4,2.3,2.4s2.4-1,2.4-2.4S425.6,344.2,424.2,344.2z"/>
	<path class="st3" d="M424.3,332.6c1.9,0,3.6,1.2,3.6,3.7s-1.7,3.7-3.6,3.7c-1.3,0-2.4-0.6-3-1.8c-0.6,1-1.5,1.5-2.7,1.5
		c-1.7,0-3.4-1.2-3.4-3.3c0-2.2,1.6-3.3,3.4-3.3c1.1,0,2.1,0.5,2.7,1.5C421.9,333.2,423,332.6,424.3,332.6z M418.7,334.2
		c-1.3,0-2.1,1-2.1,2.1s0.8,2.1,2.1,2.1c1.2,0,2.1-0.9,2.1-2.1C420.8,335.1,419.9,334.2,418.7,334.2z M424.2,333.9
		c-1.4,0-2.3,1-2.3,2.4s0.9,2.4,2.3,2.4s2.4-1,2.4-2.4S425.6,333.9,424.2,333.9z"/>
	<path class="st3" d="M424.1,323.7v-1.5h1.2v1.5h2.3v1.3h-2.3v6.2l-10.5-7.6h9.3V323.7z M424.1,325h-5.4l5.4,3.8V325z"/>
</g>
<g>
	<path class="st3" d="M49.8,544.3l5.7-3.6c0.4-0.3,1.5-0.9,1.9-1.3c0.8-0.6,1-1.1,1.2-1.6c0.4-1.3-0.2-2.5-1.6-3
		c-0.8-0.3-1.6-0.1-2.2,0.4c-0.3,0.3-0.6,0.7-0.8,1.3l-1.3-0.4c0.4-1.1,1-1.7,1.6-2.1c0.7-0.4,1.7-0.8,3.1-0.3
		c2,0.6,3.1,2.6,2.5,4.6c-0.2,0.8-0.7,1.4-1.7,2.2c-0.7,0.5-1.5,1-2.2,1.4l-3.3,2l4.9,1.5l-0.4,1.2L49.8,544.3z"/>
	<path class="st3" d="M66.5,545.8l1.4,0.4l-0.4,1.2l-1.4-0.4l-0.7,2.2l-1.3-0.4l0.7-2.2l-5.9-1.8l10.3-7.8L66.5,545.8z M65.2,545.4
		l1.6-5.1l-5.2,4L65.2,545.4z"/>
	<path class="st3" d="M70.2,548.9c-0.4-1.3-0.4-3,0.1-4.6s1.4-3,2.5-3.9c1.3-1,2.6-1.1,3.5-0.8s1.9,1.1,2.4,2.6
		c0.4,1.3,0.4,3-0.1,4.6s-1.4,3-2.5,3.9c-1.3,1-2.6,1.1-3.5,0.8C71.7,551.3,70.7,550.5,70.2,548.9z M73.6,541.4
		c-0.9,0.8-1.6,2-1.9,3.3s-0.6,2.6-0.2,3.8c0.3,1.2,1,1.7,1.6,1.9s1.5,0.1,2.4-0.7s1.6-2,1.9-3.3c0.4-1.2,0.6-2.6,0.2-3.8
		c-0.3-1.2-1-1.7-1.6-1.9C75.4,540.6,74.5,540.7,73.6,541.4z"/>
</g>
<g>
	<path class="st3" d="M334.9,468.5l-1.9,0.8l0.1-1.4l2.4-1.1l4.9,11.1l-1.2,0.5L334.9,468.5z"/>
	<path class="st3" d="M340.6,466l-1.9,0.8l0.1-1.4l2.4-1.1l4.9,11.1l-1.2,0.5L340.6,466z"/>
	<path class="st3" d="M350.9,461.4l-6.1,2.7l-0.5-1.1l8.1-3.6L350,474l-1.2-0.2L350.9,461.4z"/>
	<path class="st3" d="M358,468.5c-1.2-0.7-2.2-2-2.9-3.6s-0.9-3.2-0.7-4.6c0.3-1.6,1.2-2.5,2.1-2.9s2.2-0.4,3.6,0.4
		c1.2,0.7,2.2,2,2.9,3.6c0.7,1.6,0.9,3.2,0.7,4.6c-0.3,1.6-1.2,2.5-2.1,2.9S359.4,469.3,358,468.5z M355.7,460.6
		c-0.2,1.2,0.2,2.6,0.7,3.7c0.5,1.2,1.3,2.3,2.3,3s1.9,0.6,2.5,0.4s1.2-0.9,1.4-2.1c0.2-1.2-0.2-2.6-0.7-3.7c-0.5-1.2-1.3-2.3-2.3-3
		s-1.9-0.6-2.5-0.4C356.5,458.8,355.8,459.4,355.7,460.6z"/>
</g>
<g>
	<path class="st3" d="M356.4,77.6l-3.8-0.9l-1.3,2.4c0.2,0,0.5,0,0.8,0.1c2.4,0.5,3.5,2.7,3,5c-0.6,2.6-2.9,3.8-5.3,3.3
		c-1-0.2-1.8-0.7-2.4-1.5c-0.3-0.4-0.6-0.9-0.8-1.4l1.2-0.5c0.1,0.4,0.3,0.8,0.6,1.1c0.4,0.5,0.9,1,1.8,1.1c1.7,0.4,3.2-0.7,3.6-2.4
		c0.4-1.7-0.6-3.2-2.2-3.6c-0.4-0.1-1.2-0.2-2.5,0.3l3-5.3l4.7,1.1L356.4,77.6z"/>
	<path class="st3" d="M360.3,78.5l-2-0.4l1-1.1l2.6,0.6l-2.7,11.8l-1.3-0.3L360.3,78.5z"/>
	<path class="st3" d="M364.5,88.9c-0.5-1.3-0.6-2.9-0.2-4.6s1.1-3.1,2.2-4.1c1.2-1.1,2.5-1.3,3.4-1.1c0.9,0.2,2,0.9,2.6,2.5
		c0.5,1.3,0.6,2.9,0.2,4.6s-1.1,3.1-2.2,4.1c-1.2,1.1-2.5,1.3-3.4,1.1C366.2,91.2,365.1,90.4,364.5,88.9z M367.3,81.2
		c-0.9,0.9-1.4,2.2-1.7,3.4c-0.3,1.2-0.4,2.6,0.1,3.8c0.4,1.1,1.1,1.6,1.7,1.8c0.6,0.1,1.5,0,2.3-0.9c0.9-0.9,1.4-2.2,1.7-3.4
		c0.3-1.2,0.4-2.6-0.1-3.8c-0.4-1.1-1.1-1.6-1.7-1.8S368.1,80.4,367.3,81.2z"/>
</g>
</svg>
