<?xml version="1.0" encoding="utf-8"?>
<!-- Generator: Adobe Illustrator 23.0.3, SVG Export Plug-In . SVG Version: 6.00 Build 0)  -->
<svg version="1.1" id="Слой_1" xmlns="http://www.w3.org/2000/svg" xmlns:xlink="http://www.w3.org/1999/xlink" x="0px" y="0px"
	 viewBox="0 0 500 600" style="enable-background:new 0 0 500 600;" xml:space="preserve">
<style type="text/css">
	.st0{fill:none;stroke:#4E86B9;stroke-width:0.9553;stroke-miterlimit:3.864;}
	.st1{fill:none;stroke:#4E86B9;stroke-width:0.5732;stroke-miterlimit:3.864;}
	.st2{fill:none;stroke:#4E86B9;stroke-width:0.573;stroke-linecap:round;stroke-linejoin:round;stroke-miterlimit:3.864;}
	.st3{fill:#4E86B9;}
	.st4{fill:none;stroke:#4E86B9;stroke-width:0.5732;stroke-linecap:round;stroke-linejoin:round;stroke-miterlimit:3.864;}
	
		.st5{fill:none;stroke:#4E86B9;stroke-width:0.5732;stroke-linecap:round;stroke-linejoin:round;stroke-miterlimit:3.864;stroke-dasharray:5.797,3.8863;}
</style>
<line class="st0" x1="192.4" y1="218.8" x2="384.8" y2="156.3"/>
<line class="st0" x1="192.1" y1="246.7" x2="243.3" y2="230.4"/>
<line class="st0" x1="319.5" y1="205.9" x2="334.6" y2="200.9"/>
<line class="st0" x1="334.6" y1="200.9" x2="385" y2="156.3"/>
<line class="st0" x1="205.5" y1="198.2" x2="372.6" y2="144"/>
<line class="st0" x1="154" y1="169.2" x2="319" y2="115.8"/>
<line class="st0" x1="318.7" y1="115.6" x2="354.2" y2="123.4"/>
<line class="st0" x1="363.9" y1="130.8" x2="372.7" y2="144.3"/>
<line class="st0" x1="195.8" y1="185.7" x2="205.5" y2="198.2"/>
<line class="st0" x1="205.5" y1="198.2" x2="205.2" y2="200.9"/>
<line class="st0" x1="205.3" y1="201" x2="174.9" y2="210.4"/>
<line class="st0" x1="158.2" y1="167.9" x2="179.3" y2="172.6"/>
<line class="st0" x1="157.6" y1="167.9" x2="130.3" y2="184.1"/>
<line class="st0" x1="179.3" y1="172.6" x2="152" y2="189.4"/>
<line class="st0" x1="130.1" y1="184.4" x2="152" y2="189.4"/>
<line class="st0" x1="372.7" y1="144.3" x2="372.9" y2="146.3"/>
<line class="st0" x1="372.9" y1="146.3" x2="402.9" y2="136"/>
<line class="st0" x1="205.2" y1="200.9" x2="372.7" y2="146.3"/>
<line class="st0" x1="174.1" y1="206.5" x2="204.6" y2="197.3"/>
<line class="st0" x1="196.2" y1="185.4" x2="363.9" y2="130.8"/>
<line class="st0" x1="187.3" y1="176.9" x2="352.5" y2="123.2"/>
<line class="st0" x1="161.9" y1="168.8" x2="322" y2="116.5"/>
<line class="st0" x1="180.8" y1="174.7" x2="152.3" y2="189.3"/>
<line class="st0" x1="179.3" y1="172.6" x2="180.3" y2="174.7"/>
<line class="st0" x1="127.4" y1="187.4" x2="146.6" y2="191.5"/>
<line class="st0" x1="152" y1="189.4" x2="146.6" y2="191.5"/>
<line class="st0" x1="130.1" y1="184.4" x2="127.4" y2="187.4"/>
<line class="st0" x1="160" y1="172.2" x2="145.3" y2="181.3"/>
<line class="st0" x1="168.2" y1="174.2" x2="153.3" y2="183.3"/>
<line class="st0" x1="145.3" y1="181.3" x2="153.3" y2="183.3"/>
<line class="st0" x1="155.2" y1="175.3" x2="162.4" y2="177.3"/>
<line class="st0" x1="160.2" y1="172.2" x2="168.2" y2="174.2"/>
<line class="st0" x1="150" y1="178.7" x2="157.4" y2="180.7"/>
<line class="st0" x1="294.9" y1="200.6" x2="417.1" y2="227.3"/>
<line class="st0" x1="292.2" y1="212.7" x2="414.1" y2="239.6"/>
<line class="st0" x1="292.8" y1="220.7" x2="372" y2="313.7"/>
<line class="st0" x1="275.7" y1="220.8" x2="363.6" y2="321.5"/>
<line class="st0" x1="244.6" y1="227.4" x2="192" y2="364.8"/>
<line class="st0" x1="258.4" y1="227.1" x2="200.5" y2="377.8"/>
<line class="st0" x1="191.7" y1="445.5" x2="320.8" y2="398"/>
<line class="st0" x1="320.8" y1="398" x2="384.9" y2="413.7"/>
<line class="st0" x1="174.9" y1="513.5" x2="402.2" y2="420.7"/>
<line class="st0" x1="174.9" y1="521" x2="402.4" y2="429"/>
<line class="st0" x1="402.4" y1="429" x2="402.4" y2="420.6"/>
<line class="st0" x1="320.8" y1="272.3" x2="320.8" y2="398"/>
<line class="st0" x1="402.3" y1="237.6" x2="402.3" y2="421.2"/>
<line class="st0" x1="402.3" y1="136.4" x2="402.3" y2="224.1"/>
<line class="st0" x1="385.1" y1="233.2" x2="385.1" y2="427.6"/>
<line class="st0" x1="385.1" y1="142.2" x2="385.1" y2="220.3"/>
<line class="st0" x1="320.8" y1="219" x2="320.8" y2="253.5"/>
<line class="st0" x1="192.3" y1="492" x2="384.8" y2="414"/>
<line class="st0" x1="192.1" y1="205.2" x2="192.1" y2="506.8"/>
<line class="st0" x1="176.3" y1="209.7" x2="176.3" y2="513.3"/>
<line class="st0" x1="139.2" y1="208.1" x2="139.2" y2="512.5"/>
<line class="st0" x1="119.3" y1="204.2" x2="119.3" y2="507.8"/>
<line class="st0" x1="105.5" y1="200.1" x2="105.5" y2="501.4"/>
<line class="st0" x1="114.7" y1="514.6" x2="143.9" y2="521.3"/>
<line class="st0" x1="143.9" y1="521.3" x2="174.9" y2="521"/>
<path class="st0" d="M105.6,501.6c0,4.2,0,6.2,0,6.2"/>
<path class="st0" d="M105.6,507.8c0,2,0.9,3.5,1.9,3.5"/>
<line class="st0" x1="107.5" y1="511.3" x2="114.7" y2="514.6"/>
<path class="st0" d="M105.3,497.8c0,6.6,0.8,6.2,2,6.2"/>
<path class="st0" d="M106.5,503.9c1,1.7,3.9,2.1,7.9,3.3"/>
<line class="st0" x1="114.4" y1="507.2" x2="145.1" y2="513.9"/>
<line class="st0" x1="174.9" y1="513.5" x2="159.1" y2="514.4"/>
<path class="st0" d="M144.9,513.4c0,0.5,6.4,1,14.2,1"/>
<path class="st0" d="M109.5,184.6c7.7-3.4,29.3-12.5,44.4-15.4"/>
<path class="st0" d="M109.5,184.6c-4.4,1.7-5.9,5.2-5.9,13"/>
<path class="st0" d="M103.6,197c0.6,3.8,6,5.2,15.3,7"/>
<path class="st0" d="M139.4,208.1c11.4,2.4,16.1,3.8,35.3,2.3"/>
<line class="st0" x1="113.7" y1="202.9" x2="139.4" y2="208.1"/>
<path class="st0" d="M109.1,185c14.2,3.7,24.8,6.4,50.6,10.6"/>
<path class="st0" d="M159.8,195.7c-6.6,3.3-7.8,4.9-12,11.1"/>
<path class="st0" d="M147.8,206.8c0,1.2,0,3-0.2,3"/>
<path class="st0" d="M160.2,195.8c4.4,5.7,7.6,7.6,13.6,10.8"/>
<path class="st0" d="M159.8,195.7c16.1-10.5,24.3-18.5,18.9-19.4"/>
<line class="st0" x1="173.9" y1="206.6" x2="176.3" y2="209.7"/>
<path class="st0" d="M243.6,229.1c-25.3-5.9,52.1-48.6,57.3-37"/>
<path class="st0" d="M242.3,228.5c-0.4-16.7,69.4-46,57.6-27.1"/>
<path class="st0" d="M255.2,220.9c6.6-6.2,15.6-11.8,23.1-14.4"/>
<path class="st0" d="M271.1,222.1c-4.2,2.2-6.7,3.5-12.6,5"/>
<path class="st0" d="M259.9,219c-2.8,1.6-7.2,3.2-15.3,3.6"/>
<path class="st0" d="M259.8,219.1c-0.8,15.3-13.6,14.3-15,4"/>
<path class="st0" d="M254.3,237.6c-2.6-2.8-7-5.4-11.5-4.9"/>
<path class="st0" d="M293.6,221.9c0,4.7-4.2,8.6-9.4,8.6"/>
<path class="st0" d="M292.2,212.7c-3.6-4.1-0.3-11.7,2.9-12"/>
<line class="st0" x1="270.7" y1="221.1" x2="284.5" y2="212"/>
<line class="st0" x1="270.7" y1="221.3" x2="275.9" y2="227"/>
<line class="st0" x1="285" y1="211.8" x2="290.1" y2="218"/>
<line class="st0" x1="294.9" y1="200.6" x2="285.2" y2="197.9"/>
<line class="st0" x1="294.9" y1="200.6" x2="292.9" y2="195.9"/>
<line class="st0" x1="298.4" y1="201.3" x2="295.8" y2="195.7"/>
<line class="st0" x1="275.9" y1="227" x2="279.1" y2="225"/>
<line class="st0" x1="287.8" y1="220.1" x2="290.1" y2="218"/>
<line class="st0" x1="275.8" y1="220.7" x2="283.4" y2="216"/>
<line class="st0" x1="283.6" y1="216.1" x2="287.8" y2="220.1"/>
<path class="st0" d="M286.1,198.4c6.2,9.1,0.3,13.6-1.6,13.3"/>
<path class="st0" d="M282.7,198.7c7.8,12.6,2.5,15.3-8.1,10.7"/>
<path class="st0" d="M282.7,198.7c-1.6,3.9-4.4,10-8.3,10.6"/>
<path class="st0" d="M275.9,227c0,0.4,3,2.7,5.6,0.5"/>
<path class="st0" d="M281.9,216.9c2.7,3.2-1.6,6.2-4.5,3"/>
<path class="st0" d="M284.5,217.4c0,2.8-3.3,5.2-6.9,5.2"/>
<line class="st0" x1="330.8" y1="113.4" x2="356.8" y2="111.6"/>
<line class="st0" x1="356.8" y1="111.6" x2="376.8" y2="116.3"/>
<line class="st0" x1="376.8" y1="116.3" x2="350.8" y2="118.2"/>
<line class="st0" x1="350.8" y1="118.2" x2="331.2" y2="113.4"/>
<line class="st0" x1="330.8" y1="113.4" x2="328.9" y2="115.5"/>
<line class="st0" x1="328.9" y1="115.5" x2="349.9" y2="120.6"/>
<path class="st0" d="M347.8,108c6.4,0.6,38.4,8.3,51.1,11.5"/>
<path class="st0" d="M398.9,119.5c5.2,3.6,4,8.4,4.2,16.4"/>
<line class="st0" x1="372.6" y1="144" x2="402.6" y2="133.6"/>
<path class="st0" d="M363.9,130.8c-2.7-4-6.6-6.9-10.9-7.6"/>
<path class="st0" d="M318.7,115.6c8.6-3.4,11.5-5,29-7.6"/>
<path class="st0" d="M349.9,120.6c3.9,1.5,26,1.9,51.4,1.7"/>
<line class="st0" x1="338.1" y1="114.8" x2="355.1" y2="113.8"/>
<line class="st0" x1="345.6" y1="116.6" x2="362.8" y2="115.6"/>
<line class="st0" x1="355.1" y1="113.8" x2="362.8" y2="115.6"/>
<line class="st0" x1="344.3" y1="114.5" x2="350.3" y2="116.3"/>
<line class="st0" x1="351.5" y1="114.3" x2="357.5" y2="115.8"/>
<path class="st0" d="M255,224.6c0,1.1-1,2-2.1,2c-1.3,0-2.1-0.9-2.1-2s0.9-2,2.1-2S255,223.5,255,224.6z"/>
<path class="st0" d="M282.4,205.9c0.7,0.9,0.8,1.8-0.2,2.5s-1.9,0.1-2.5-0.8c-0.7-0.9-0.9-1.8,0.1-2.6
	C280.8,204.4,281.8,205,282.4,205.9z"/>
<path class="st0" d="M290,217.9c2.9,2.7,0.9,5.2,0.9,5.2"/>
<path class="st0" d="M292.8,220.7c0.4-3.3,0-4.5-3.9-8.6"/>
<path class="st0" d="M270.1,218.3c0.2,0.4-0.5,1.2-1.6,1.8s-2.2,0.8-2.4,0.4c-0.2-0.4,0.4-1.3,1.5-1.9
	C268.8,218,269.9,217.8,270.1,218.3z"/>
<path class="st0" d="M272.4,213.1c0.3,0.4-0.4,1.2-1.5,1.8s-2.2,0.8-2.4,0.4c-0.3-0.4,0.4-1.2,1.6-1.8
	C271.1,212.8,272.2,212.7,272.4,213.1z"/>
<path class="st0" d="M279.8,212.4c0.3,0.4-0.5,1.2-1.5,1.9c-1.2,0.7-2.1,0.8-2.5,0.4c-0.2-0.4,0.4-1.2,1.6-1.9
	C278.5,212.2,279.6,212,279.8,212.4z"/>
<path class="st0" d="M195.5,185.2c-2.7-4.2-6.6-7.9-14.7-10.5"/>
<path class="st0" d="M200.1,379c1-2.7-4.8-5.2-8.1-5.1"/>
<path class="st0" d="M200.1,379c-2.5,1.1-3.9,1.1-8.1,0"/>
<path class="st0" d="M372.1,313.8c3.1,5.5-5.1,10-8.5,7.7"/>
<path class="st0" d="M417.1,227.3c5.1,3.9,1.3,13.6-3,12.3"/>
<path class="st0" d="M417.1,227.3c-4.4,0.2-6.7,8.4-3.5,11.9"/>
<path class="st0" d="M130.8,239.1c0,1.9-1.2,3.5-2.7,3.5s-2.7-1.6-2.7-3.5c0-2,1.2-3.5,2.7-3.5C129.5,235.6,130.8,237.1,130.8,239.1
	z"/>
<path class="st0" d="M126.7,234.9c6.1-3,7.8,8.6,2.1,7.9"/>
<line class="st0" x1="287.8" y1="220.1" x2="290.8" y2="223.1"/>
<line class="st0" x1="292.2" y1="212.7" x2="285.9" y2="211.4"/>
<path class="st0" d="M243.4,224.8c0.5,2,2.4,3.5,3.7,4"/>
<path class="st0" d="M300.8,191.6c1.4,3,1.5,4.8,0.6,6.4"/>
<line class="st0" x1="126.8" y1="234.8" x2="126" y2="236.5"/>
<line class="st0" x1="127.5" y1="242.6" x2="129.4" y2="243"/>
<line class="st0" x1="127.6" y1="237.3" x2="127.6" y2="238.7"/>
<line class="st0" x1="128.2" y1="238.2" x2="128.2" y2="239.5"/>
<line class="st0" x1="127.7" y1="239.5" x2="127.9" y2="241"/>
<line class="st1" x1="96.1" y1="555" x2="176" y2="521.2"/>
<line class="st1" x1="79.5" y1="198.9" x2="79.5" y2="536.2"/>
<line class="st1" x1="142.4" y1="520.7" x2="247" y2="545.5"/>
<line class="st2" x1="402.5" y1="425.1" x2="450.6" y2="436.7"/>
<line class="st1" x1="212" y1="537.5" x2="442.3" y2="439"/>
<line class="st2" x1="290.8" y1="474.7" x2="435.3" y2="512.7"/>
<line class="st1" x1="21.9" y1="528.7" x2="103.8" y2="499.1"/>
<line class="st1" x1="37.3" y1="523.3" x2="115.7" y2="546.7"/>
<line class="st1" x1="65" y1="203.1" x2="174.9" y2="167.6"/>
<line class="st1" x1="416.4" y1="233.7" x2="435" y2="237.7"/>
<g id="XMLID_3_">
	<g>
		<path class="st3" d="M448.3,436.4l-11.2,7.2c1.5-2,1.1-3.4-1.5-3.7L448.3,436.4L448.3,436.4z"/>
	</g>
</g>
<g id="XMLID_4_">
	<g>
		<path class="st3" d="M212.3,537.3l11.2-7.2c-1.5,2-1.1,3.4,1.5,3.7L212.3,537.3L212.3,537.3z"/>
	</g>
</g>
<g id="XMLID_5_">
	<g>
		<path class="st3" d="M79.4,198.5l2,13.1c-1.2-2.2-2.7-2.4-4-0.2L79.4,198.5L79.4,198.5L79.4,198.5z"/>
	</g>
</g>
<g id="XMLID_6_">
	<g>
		<path class="st3" d="M79.5,535.7l-2-13.1c1.2,2.2,2.7,2.4,4,0.2L79.5,535.7L79.5,535.7z"/>
	</g>
</g>
<g id="XMLID_7_">
	<g>
		<path class="st3" d="M37.3,523.2l13.1,2.1c-2.5,0.5-3.1,1.8-1.4,3.8L37.3,523.2L37.3,523.2z"/>
	</g>
</g>
<g id="XMLID_8_">
	<g>
		<path class="st3" d="M115.3,546.6l-13.1-2.2c2.5-0.5,3.1-1.8,1.4-3.8L115.3,546.6L115.3,546.6z"/>
	</g>
</g>
<g>
	<g id="XMLID_1_">
		<g>
			<path class="st3" d="M434.8,237.4l2,13.1c-1.2-2.2-2.7-2.4-4-0.2L434.8,237.4L434.8,237.4z"/>
		</g>
	</g>
	<g id="XMLID_2_">
		<g>
			<path class="st3" d="M434.8,512.1l2-13.1c-1.2,2.2-2.7,2.4-4,0.2L434.8,512.1L434.8,512.1z"/>
		</g>
	</g>
	<line class="st2" x1="434.7" y1="246.7" x2="434.8" y2="505.5"/>
</g>
<line class="st4" x1="416.5" y1="106.4" x2="416.5" y2="233.7"/>
<line class="st4" x1="291.1" y1="79.1" x2="291.1" y2="185.8"/>
<line class="st1" x1="297.7" y1="80.4" x2="409.5" y2="104.9"/>
<g id="XMLID_9_">
	<g>
		<path class="st3" d="M416.5,106.4l-13.3-0.8c2.4-0.7,2.9-2.1,1-3.9L416.5,106.4L416.5,106.4z"/>
	</g>
</g>
<g id="XMLID_10_">
	<g>
		<path class="st3" d="M291.1,79.1l13.3,0.8c-2.4,0.7-2.9,2.1-1,3.9L291.1,79.1L291.1,79.1z"/>
	</g>
</g>
<line class="st1" x1="298.4" y1="46.6" x2="408.7" y2="71.1"/>
<g id="XMLID_12_">
	<g>
		<path class="st3" d="M416.6,72.8L403.3,72c2.4-0.7,2.9-2.1,1-3.9L416.6,72.8L416.6,72.8z"/>
	</g>
</g>
<g id="XMLID_11_">
	<g>
		<path class="st3" d="M290.9,44.6l13.3,0.8c-2.4,0.7-2.8,2.1-1,3.9L290.9,44.6L290.9,44.6z"/>
	</g>
</g>
<line class="st5" x1="291.1" y1="38.1" x2="291.1" y2="78.9"/>
<line class="st5" x1="416.5" y1="65.6" x2="416.5" y2="106.4"/>
<line class="st5" x1="435" y1="237.7" x2="462.4" y2="243.6"/>
<line class="st5" x1="435.2" y1="512.7" x2="459.9" y2="518.7"/>
<g>
	<g id="XMLID_14_">
		<g>
			<path class="st3" d="M460.8,242.4l2,13.1c-1.2-2.2-2.7-2.4-4-0.2L460.8,242.4L460.8,242.4z"/>
		</g>
	</g>
	<g id="XMLID_13_">
		<g>
			<path class="st3" d="M460.8,517.1l2-13.1c-1.2,2.2-2.7,2.4-4,0.2L460.8,517.1L460.8,517.1z"/>
		</g>
	</g>
	<line class="st2" x1="460.7" y1="251.7" x2="460.8" y2="510.5"/>
</g>
<g>
	<path class="st3" d="M62.8,380v2l-1.3-0.7v-2.7h12.1v1.3H62.8z"/>
	<path class="st3" d="M72,373.6c-1.2,0.8-2.7,1.2-4.4,1.2c-1.7,0-3.3-0.4-4.4-1.2c-1.3-0.9-1.8-2.1-1.8-3.1c0-1,0.5-2.2,1.8-3.1
		c1.2-0.8,2.7-1.2,4.4-1.2c1.7,0,3.3,0.4,4.4,1.2c1.3,0.9,1.8,2.1,1.8,3.1C73.8,371.4,73.4,372.7,72,373.6z M63.9,372.6
		c1,0.7,2.4,0.9,3.7,0.9c1.3,0,2.7-0.2,3.7-0.9c1-0.6,1.3-1.5,1.3-2.1c0-0.6-0.3-1.5-1.3-2.1c-1-0.7-2.4-0.9-3.7-0.9
		c-1.3,0-2.7,0.2-3.7,0.9c-1,0.6-1.3,1.5-1.3,2.1C62.5,371.1,62.9,371.9,63.9,372.6z"/>
	<path class="st3" d="M64.5,363.8c-0.7,0-1.3-0.3-1.8-0.6c-1.3-0.8-1.4-2.1-1.4-2.8c0-2.3,1.6-3.4,3.3-3.4c0.9,0,2.1,0.3,2.7,1.6
		c0.2-0.4,0.8-1.7,2.9-1.7c2.3,0,3.6,1.7,3.6,3.7c0,1.3-0.5,2.7-2.1,3.4c-0.4,0.2-0.8,0.3-1.3,0.3v-1.3c0.4-0.1,0.9-0.2,1.2-0.4
		c0.6-0.4,0.9-1.1,0.9-1.9c0-1.3-1.1-2.4-2.5-2.4c-0.7,0-1.6,0.3-2,1.2c-0.2,0.4-0.3,0.9-0.3,1.4h-1.2c0-0.5-0.1-1-0.3-1.4
		c-0.2-0.4-0.7-1-1.8-1c-1.1,0-2.1,0.6-2.1,2.1c0,0.5,0.1,1.1,0.7,1.6c0.3,0.2,0.8,0.4,1.3,0.5V363.8z"/>
	<path class="st3" d="M72,353c-1.2,0.8-2.7,1.2-4.4,1.2c-1.7,0-3.3-0.4-4.4-1.2c-1.3-0.9-1.8-2.1-1.8-3.1c0-1,0.5-2.2,1.8-3.1
		c1.2-0.8,2.7-1.2,4.4-1.2c1.7,0,3.3,0.4,4.4,1.2c1.3,0.9,1.8,2.1,1.8,3.1C73.8,350.8,73.4,352,72,353z M63.9,351.9
		c1,0.7,2.4,0.9,3.7,0.9c1.3,0,2.7-0.2,3.7-0.9c1-0.6,1.3-1.5,1.3-2.1c0-0.6-0.3-1.5-1.3-2.1c-1-0.7-2.4-0.9-3.7-0.9
		c-1.3,0-2.7,0.2-3.7,0.9c-1,0.6-1.3,1.5-1.3,2.1C62.5,350.5,62.9,351.3,63.9,351.9z"/>
</g>
<g>
	<path class="st3" d="M424.3,400.2c1.9,0,3.6,1.2,3.6,3.7c0,2.5-1.7,3.7-3.6,3.7c-1.3,0-2.4-0.6-3-1.8c-0.6,1-1.5,1.5-2.7,1.5
		c-1.7,0-3.4-1.2-3.4-3.3c0-2.2,1.6-3.3,3.4-3.3c1.1,0,2.1,0.5,2.7,1.5C421.9,400.8,423,400.2,424.3,400.2z M418.7,401.8
		c-1.3,0-2.1,1-2.1,2.1c0,1.1,0.8,2.1,2.1,2.1c1.2,0,2.1-0.9,2.1-2.1C420.8,402.7,419.9,401.8,418.7,401.8z M424.2,401.5
		c-1.4,0-2.3,1-2.3,2.4s0.9,2.4,2.3,2.4c1.4,0,2.4-1,2.4-2.4C426.6,402.5,425.6,401.5,424.2,401.5z"/>
	<path class="st3" d="M424.3,389.9c1.9,0,3.6,1.2,3.6,3.7c0,2.5-1.7,3.7-3.6,3.7c-1.3,0-2.4-0.6-3-1.8c-0.6,1-1.5,1.5-2.7,1.5
		c-1.7,0-3.4-1.2-3.4-3.3c0-2.2,1.6-3.3,3.4-3.3c1.1,0,2.1,0.5,2.7,1.5C421.9,390.5,423,389.9,424.3,389.9z M418.7,391.5
		c-1.3,0-2.1,1-2.1,2.1c0,1.1,0.8,2.1,2.1,2.1c1.2,0,2.1-0.9,2.1-2.1C420.8,392.4,419.9,391.5,418.7,391.5z M424.2,391.2
		c-1.4,0-2.3,1-2.3,2.4c0,1.4,0.9,2.4,2.3,2.4c1.4,0,2.4-1,2.4-2.4C426.6,392.2,425.6,391.2,424.2,391.2z"/>
	<path class="st3" d="M424.1,381v-1.5h1.2v1.5h2.3v1.3h-2.3v6.2l-10.5-7.6H424.1z M424.1,382.3h-5.4l5.4,3.8V382.3z"/>
	<path class="st3" d="M414.7,370.2c0.9,0.3,1.9,0.7,3.1,0.9c1.6,0.3,3,0.5,4.6,0.5c1.5,0,2.8-0.1,4.4-0.4c1.2-0.2,2.3-0.6,3.3-0.9
		l0.5,1.1c-2.1,0.8-3.8,1.1-4.1,1.2c-1.3,0.3-2.9,0.4-4.2,0.4c-1.2,0-2.9-0.1-4.7-0.5c-1.2-0.3-2.5-0.7-3.5-1.1L414.7,370.2z"/>
	<path class="st3" d="M416.8,364.5h10.8v1.3h-10.8v2.9h-1.3v-7.2h1.3V364.5z"/>
	<path class="st3" d="M415.5,357.5c0-0.7,0.1-1.9,0.8-2.8c0.3-0.4,1-1.1,2.5-1.1c0.6,0,1.7,0.1,2.4,1.2c0.4-1.7,1.9-2.3,3.1-2.3
		s2.1,0.6,2.6,1.2c0.8,1,0.8,2.1,0.8,2.9v3h-12.1V357.5z M420.8,358.4v-1c0-0.7-0.1-2.4-2-2.4c-2,0-2,2-2,2.3v1.1H420.8z
		 M426.3,358.4v-1.5c0-0.8-0.1-1.5-0.5-2.1c-0.3-0.5-0.9-0.8-1.7-0.8c-1,0-1.5,0.6-1.8,1c-0.3,0.5-0.4,1.1-0.4,2.1v1.4H426.3z"/>
	<path class="st3" d="M418.2,340.8c-0.4,0.4-0.8,1-1.1,1.6c-0.3,0.6-0.5,1.4-0.5,2.1c0,2.8,2.3,4.9,5,4.9c3.3,0,4.9-2.7,4.9-4.9
		c0-0.8-0.2-1.6-0.6-2.3c-0.3-0.7-0.8-1.2-1-1.4h1.7c1,1.3,1.2,2.7,1.2,3.6c0,3.6-2.7,6.3-6.2,6.3c-3.6,0-6.3-2.7-6.3-6.3
		c0-0.7,0.1-2.1,1.2-3.6H418.2z"/>
	<path class="st3" d="M426,337.8c-1.2,0.8-2.7,1.2-4.4,1.2c-1.7,0-3.3-0.4-4.4-1.2c-1.3-0.9-1.8-2.1-1.8-3.1c0-1,0.5-2.2,1.8-3.1
		c1.2-0.8,2.7-1.2,4.4-1.2c1.7,0,3.3,0.4,4.4,1.2c1.3,0.9,1.8,2.1,1.8,3.1C427.8,335.7,427.4,336.9,426,337.8z M417.9,336.8
		c1,0.7,2.4,0.9,3.7,0.9c1.3,0,2.7-0.2,3.7-0.9c1-0.6,1.3-1.5,1.3-2.1c0-0.6-0.3-1.5-1.3-2.1c-1-0.7-2.4-0.9-3.7-0.9
		c-1.3,0-2.7,0.2-3.7,0.9c-1,0.6-1.3,1.5-1.3,2.1C416.5,335.4,416.9,336.2,417.9,336.8z"/>
	<path class="st3" d="M416.8,326.6v2l-1.3-0.7v-2.7h12.1v1.3H416.8z"/>
	<path class="st3" d="M424.2,312.8v5.2l3.4,1.5v1.5l-12.7-5.6l12.7-5.4v1.5L424.2,312.8z M422.9,313.4l-4.8,2l4.8,2.1V313.4z"/>
	<path class="st3" d="M414.2,307.5c1-0.4,2.3-0.8,3.5-1.1c1.8-0.4,3.5-0.5,4.7-0.5c1.3,0,2.9,0.1,4.2,0.4c0.3,0.1,2,0.4,4.1,1.2
		l-0.5,1.1c-1.1-0.4-2.1-0.7-3.3-0.9c-1.6-0.3-2.9-0.4-4.4-0.4c-1.6,0-3,0.1-4.6,0.5c-1.2,0.3-2.3,0.6-3.1,0.9L414.2,307.5z"/>
</g>
<g>
	<path class="st3" d="M452.4,396.5c1.9,0,3.6,1.2,3.6,3.7c0,2.5-1.7,3.7-3.6,3.7c-1.3,0-2.4-0.6-3-1.8c-0.6,1-1.5,1.5-2.7,1.5
		c-1.7,0-3.4-1.2-3.4-3.3c0-2.2,1.6-3.3,3.4-3.3c1.1,0,2.1,0.5,2.7,1.5C450,397.1,451.1,396.5,452.4,396.5z M446.8,398.1
		c-1.3,0-2.1,1-2.1,2.1c0,1.1,0.8,2.1,2.1,2.1c1.2,0,2.1-0.9,2.1-2.1C448.9,399,448,398.1,446.8,398.1z M452.3,397.8
		c-1.4,0-2.3,1-2.3,2.4s0.9,2.4,2.3,2.4c1.4,0,2.4-1,2.4-2.4C454.7,398.8,453.7,397.8,452.3,397.8z"/>
	<path class="st3" d="M444.8,388.1v6.6h-1.2v-8.9l12.4,8.1l-0.7,1.1L444.8,388.1z"/>
	<path class="st3" d="M444.8,378.5v3.9l2.6,0.8c-0.1-0.2-0.1-0.5-0.1-0.8c0-2.4,1.8-4,4.2-4c2.7,0,4.4,2,4.4,4.4
		c0,1-0.3,1.9-0.9,2.7c-0.3,0.4-0.7,0.8-1.2,1.1l-0.8-1.1c0.4-0.2,0.7-0.5,1-0.8c0.4-0.5,0.7-1.1,0.7-2c0-1.7-1.4-3-3.1-3
		c-1.7,0-3,1.3-3,3c0,0.4,0.1,1.3,0.8,2.3l-5.8-1.8v-4.8H444.8z"/>
	<path class="st3" d="M442.8,368.5c0.9,0.3,1.9,0.7,3.1,0.9c1.6,0.3,3,0.5,4.6,0.5c1.5,0,2.8-0.1,4.4-0.4c1.2-0.2,2.3-0.6,3.3-0.9
		l0.5,1.1c-2.1,0.8-3.8,1.1-4.1,1.2c-1.3,0.3-2.9,0.4-4.2,0.4c-1.2,0-2.9-0.1-4.7-0.5c-1.2-0.3-2.5-0.7-3.5-1.1L442.8,368.5z"/>
	<path class="st3" d="M444.9,362.8h10.8v1.3h-10.8v2.9h-1.3v-7.2h1.3V362.8z"/>
	<path class="st3" d="M443.6,355.8c0-0.7,0.1-1.9,0.8-2.8c0.3-0.4,1-1.1,2.5-1.1c0.6,0,1.7,0.1,2.4,1.2c0.4-1.7,1.9-2.3,3.1-2.3
		s2.1,0.6,2.6,1.2c0.8,1,0.8,2.1,0.8,2.9v3h-12.1V355.8z M448.9,356.7v-1c0-0.7-0.1-2.4-2-2.4c-2,0-2,2-2,2.3v1.1H448.9z
		 M454.4,356.7v-1.5c0-0.8-0.1-1.5-0.5-2.1c-0.3-0.5-0.9-0.8-1.7-0.8c-1,0-1.5,0.6-1.8,1c-0.3,0.5-0.4,1.1-0.4,2.1v1.4H454.4z"/>
	<path class="st3" d="M446.3,339.1c-0.4,0.4-0.8,1-1.1,1.6c-0.3,0.6-0.5,1.4-0.5,2.1c0,2.8,2.3,4.9,5,4.9c3.3,0,4.9-2.7,4.9-4.9
		c0-0.8-0.2-1.6-0.6-2.3c-0.3-0.7-0.8-1.2-1-1.4h1.7c1,1.3,1.2,2.7,1.2,3.6c0,3.6-2.7,6.3-6.2,6.3c-3.6,0-6.3-2.7-6.3-6.3
		c0-0.7,0.1-2.1,1.2-3.6H446.3z"/>
	<path class="st3" d="M454.1,336.2c-1.2,0.8-2.7,1.2-4.4,1.2c-1.7,0-3.3-0.4-4.4-1.2c-1.3-0.9-1.8-2.1-1.8-3.1c0-1,0.5-2.2,1.8-3.1
		c1.2-0.8,2.7-1.2,4.4-1.2c1.7,0,3.3,0.4,4.4,1.2c1.3,0.9,1.8,2.1,1.8,3.1C455.9,334,455.5,335.2,454.1,336.2z M446,335.1
		c1,0.7,2.4,0.9,3.7,0.9c1.3,0,2.7-0.2,3.7-0.9c1-0.6,1.3-1.5,1.3-2.1c0-0.6-0.3-1.5-1.3-2.1c-1-0.7-2.4-0.9-3.7-0.9
		c-1.3,0-2.7,0.2-3.7,0.9c-1,0.6-1.3,1.5-1.3,2.1C444.6,333.7,445,334.5,446,335.1z"/>
	<path class="st3" d="M444.9,324.9v2l-1.3-0.7v-2.7h12.1v1.3H444.9z"/>
	<path class="st3" d="M442.3,317.1c1-0.4,2.3-0.8,3.5-1.1c1.8-0.4,3.5-0.5,4.7-0.5c1.3,0,2.9,0.1,4.2,0.4c0.3,0.1,2,0.4,4.1,1.2
		l-0.5,1.1c-1.1-0.4-2.1-0.7-3.3-0.9c-1.6-0.3-2.9-0.4-4.4-0.4c-1.6,0-3,0.1-4.6,0.5c-1.2,0.3-2.3,0.6-3.1,0.9L442.3,317.1z"/>
</g>
<g>
	<path class="st3" d="M49.8,543.3l5.7-3.6c0.4-0.3,1.5-0.9,1.9-1.3c0.8-0.6,1-1.1,1.2-1.6c0.4-1.3-0.2-2.5-1.6-3
		c-0.8-0.3-1.6-0.1-2.2,0.4c-0.3,0.3-0.6,0.7-0.8,1.3l-1.3-0.4c0.4-1.1,1-1.7,1.6-2.1c0.7-0.4,1.7-0.8,3.1-0.3
		c2,0.6,3.1,2.6,2.5,4.6c-0.2,0.8-0.7,1.4-1.7,2.2c-0.7,0.5-1.5,1-2.2,1.4l-3.3,2l4.9,1.5l-0.4,1.2L49.8,543.3z"/>
	<path class="st3" d="M66.5,544.8l1.4,0.4l-0.4,1.2l-1.4-0.4l-0.7,2.2l-1.3-0.4l0.7-2.2l-5.9-1.8l10.3-7.8L66.5,544.8z M65.2,544.4
		l1.6-5.1l-5.2,4L65.2,544.4z"/>
	<path class="st3" d="M70.2,547.9c-0.4-1.3-0.4-3,0.1-4.6c0.5-1.6,1.4-3,2.5-3.9c1.3-1,2.6-1.1,3.5-0.8c0.9,0.3,1.9,1.1,2.4,2.6
		c0.4,1.3,0.4,3-0.1,4.6c-0.5,1.6-1.4,3-2.5,3.9c-1.3,1-2.6,1.1-3.5,0.8C71.7,550.3,70.7,549.5,70.2,547.9z M73.6,540.4
		c-0.9,0.8-1.6,2-1.9,3.3s-0.6,2.6-0.2,3.8c0.3,1.2,1,1.7,1.6,1.9c0.6,0.2,1.5,0.1,2.4-0.7c0.9-0.8,1.6-2,1.9-3.3
		c0.4-1.2,0.6-2.6,0.2-3.8c-0.3-1.2-1-1.7-1.6-1.9C75.4,539.6,74.5,539.7,73.6,540.4z"/>
</g>
<g>
	<path class="st3" d="M334.9,467.5l-1.9,0.8l0.1-1.4l2.4-1.1l4.9,11.1l-1.2,0.5L334.9,467.5z"/>
	<path class="st3" d="M340.6,465l-1.9,0.8l0.1-1.4l2.4-1.1l4.9,11.1l-1.2,0.5L340.6,465z"/>
	<path class="st3" d="M350.9,460.4l-6.1,2.7l-0.5-1.1l8.1-3.6l-2.4,14.6l-1.2-0.2L350.9,460.4z"/>
	<path class="st3" d="M358,467.5c-1.2-0.7-2.2-2-2.9-3.6s-0.9-3.2-0.7-4.6c0.3-1.6,1.2-2.5,2.1-2.9c0.9-0.4,2.2-0.4,3.6,0.4
		c1.2,0.7,2.2,2,2.9,3.6c0.7,1.6,0.9,3.2,0.7,4.6c-0.3,1.6-1.2,2.5-2.1,2.9C360.7,468.3,359.4,468.3,358,467.5z M355.7,459.6
		c-0.2,1.2,0.2,2.6,0.7,3.7c0.5,1.2,1.3,2.3,2.3,3c1,0.7,1.9,0.6,2.5,0.4c0.6-0.2,1.2-0.9,1.4-2.1c0.2-1.2-0.2-2.6-0.7-3.7
		c-0.5-1.2-1.3-2.3-2.3-3c-1-0.7-1.9-0.6-2.5-0.4C356.5,457.8,355.8,458.4,355.7,459.6z"/>
</g>
<g>
	<path class="st3" d="M317.7,67.9l-3.8-0.9l-1.3,2.4c0.2,0,0.5,0,0.8,0.1c2.4,0.5,3.5,2.7,3,5c-0.6,2.6-2.9,3.8-5.3,3.3
		c-1-0.2-1.8-0.7-2.4-1.5c-0.3-0.4-0.6-0.9-0.8-1.4l1.2-0.5c0.1,0.4,0.3,0.8,0.6,1.1c0.4,0.5,0.9,1,1.8,1.1c1.7,0.4,3.2-0.7,3.6-2.4
		c0.4-1.7-0.6-3.2-2.2-3.6c-0.4-0.1-1.2-0.2-2.5,0.3l3-5.3l4.7,1.1L317.7,67.9z"/>
	<path class="st3" d="M321.6,68.8l-2-0.4l1-1.1l2.6,0.6l-2.7,11.8l-1.3-0.3L321.6,68.8z"/>
	<path class="st3" d="M325.8,79.2c-0.5-1.3-0.6-2.9-0.2-4.6c0.4-1.7,1.1-3.1,2.2-4.1c1.2-1.1,2.5-1.3,3.4-1.1c0.9,0.2,2,0.9,2.6,2.5
		c0.5,1.3,0.6,2.9,0.2,4.6c-0.4,1.7-1.1,3.1-2.2,4.1c-1.2,1.1-2.5,1.3-3.4,1.1C327.5,81.5,326.4,80.7,325.8,79.2z M328.6,71.5
		c-0.9,0.9-1.4,2.2-1.7,3.4c-0.3,1.2-0.4,2.6,0.1,3.8c0.4,1.1,1.1,1.6,1.7,1.8c0.6,0.1,1.5,0,2.3-0.9c0.9-0.9,1.4-2.2,1.7-3.4
		c0.3-1.2,0.4-2.6-0.1-3.8c-0.4-1.1-1.1-1.6-1.7-1.8S329.4,70.7,328.6,71.5z"/>
	<path class="st3" d="M344.5,71.9c-0.5,0.8-1.1,1.7-1.6,2.9c-0.7,1.5-1.1,2.8-1.5,4.4c-0.3,1.5-0.5,2.7-0.6,4.4c0,1.2,0,2.3,0.2,3.4
		l-1.2,0.3c-0.3-2.2-0.3-4-0.3-4.3c0-1.4,0.3-2.9,0.6-4.2c0.3-1.2,0.7-2.8,1.5-4.5c0.5-1.1,1.2-2.3,1.8-3.2L344.5,71.9z"/>
	<path class="st3" d="M349.6,75.2l-2.4,10.6l-1.3-0.3l2.4-10.6l-2.9-0.6l0.3-1.2l7,1.6l-0.3,1.2L349.6,75.2z"/>
	<path class="st3" d="M356.7,75.4c0.7,0.1,1.8,0.5,2.5,1.4c0.3,0.4,0.8,1.2,0.5,2.7c-0.1,0.6-0.5,1.6-1.7,2.1
		c1.6,0.8,1.8,2.4,1.6,3.5c-0.3,1.1-1,1.9-1.8,2.3c-1.1,0.5-2.2,0.3-3,0.1l-2.9-0.7l2.7-11.8L356.7,75.4z M353.5,85.8l1.5,0.3
		c0.8,0.2,1.5,0.3,2.2,0c0.5-0.2,1-0.7,1.1-1.5c0.2-0.9-0.2-1.6-0.6-2c-0.4-0.3-1-0.6-1.9-0.8l-1.3-0.3L353.5,85.8z M354.7,80.5
		l1,0.2c0.7,0.2,2.4,0.4,2.8-1.4c0.4-1.9-1.5-2.4-1.8-2.5l-1-0.2L354.7,80.5z"/>
	<path class="st3" d="M372.4,81.7c-0.3-0.5-0.8-1-1.3-1.4c-0.6-0.4-1.2-0.8-1.9-0.9c-2.7-0.6-5.2,1.1-5.9,3.9
		c-0.7,3.2,1.5,5.4,3.7,5.9c0.8,0.2,1.6,0.1,2.3-0.1c0.7-0.2,1.3-0.5,1.6-0.7l-0.4,1.6c-1.5,0.6-2.9,0.5-3.8,0.3
		c-3.5-0.8-5.5-4-4.7-7.5c0.8-3.5,4-5.5,7.6-4.7c0.7,0.2,2.1,0.6,3.2,2L372.4,81.7z"/>
	<path class="st3" d="M373.6,90c-0.5-1.3-0.6-2.9-0.2-4.6c0.4-1.7,1.1-3.1,2.2-4.1c1.2-1.1,2.5-1.3,3.4-1.1c0.9,0.2,2,0.9,2.6,2.5
		c0.5,1.3,0.6,2.9,0.2,4.6c-0.4,1.7-1.1,3.1-2.2,4.1c-1.2,1.1-2.5,1.3-3.4,1.1C375.2,92.3,374.2,91.6,373.6,90z M376.3,82.3
		c-0.9,0.9-1.4,2.2-1.7,3.4c-0.3,1.2-0.4,2.6,0.1,3.8c0.4,1.1,1.1,1.6,1.7,1.8c0.6,0.1,1.5,0,2.3-0.9c0.9-0.9,1.4-2.2,1.7-3.4
		c0.3-1.2,0.4-2.6-0.1-3.8c-0.4-1.1-1.1-1.6-1.7-1.8C378.1,81.3,377.2,81.5,376.3,82.3z"/>
	<path class="st3" d="M386.6,83.5l-2-0.4l1-1.1l2.6,0.6l-2.7,11.8l-1.3-0.3L386.6,83.5z"/>
	<path class="st3" d="M398.3,93.8l-5-1.1l-2.2,3l-1.5-0.3l8.2-11.2l2.5,13.6l-1.5-0.3L398.3,93.8z M398.1,92.4l-0.9-5.2l-3.1,4.3
		L398.1,92.4z"/>
	<path class="st3" d="M405.8,85.2c0.1,1,0.3,2.4,0.3,3.6c0,1.9-0.3,3.5-0.5,4.7c-0.3,1.3-0.8,2.8-1.3,4c-0.1,0.3-0.8,1.9-2.1,3.7
		l-1-0.8c0.6-0.9,1.2-1.9,1.7-3c0.7-1.5,1.1-2.8,1.4-4.2c0.3-1.5,0.5-3,0.6-4.6c0-1.3-0.1-2.4-0.2-3.3L405.8,85.2z"/>
</g>
<g>
	<path class="st3" d="M323.2,35.8l-3.8-0.8l-1.3,2.4c0.2,0,0.5,0,0.8,0.1c2.4,0.5,3.5,2.6,3,4.9c-0.6,2.6-2.9,3.8-5.2,3.3
		c-1-0.2-1.8-0.7-2.4-1.5c-0.3-0.4-0.6-0.9-0.8-1.4l1.2-0.5c0.1,0.4,0.3,0.8,0.6,1.1c0.4,0.5,0.9,0.9,1.8,1.1
		c1.7,0.4,3.2-0.7,3.6-2.4c0.4-1.7-0.6-3.2-2.3-3.5c-0.4-0.1-1.2-0.2-2.5,0.3l3-5.3l4.7,1L323.2,35.8z"/>
	<path class="st3" d="M325.9,38.2c0.2-0.6,0.5-1.2,0.9-1.6c1-1.1,2.3-0.9,3.1-0.8c2.2,0.5,3,2.3,2.6,3.9c-0.2,0.9-0.8,2-2.1,2.3
		c0.4,0.2,1.5,1.2,1.1,3.2c-0.5,2.2-2.4,3.2-4.4,2.8c-1.2-0.3-2.5-1.1-2.9-2.8c-0.1-0.5-0.1-0.9,0-1.3l1.3,0.3c0,0.4,0,0.9,0.2,1.3
		c0.3,0.7,0.9,1.1,1.6,1.3c1.3,0.3,2.6-0.6,2.8-1.9c0.1-0.7,0.1-1.6-0.7-2.2c-0.3-0.3-0.8-0.5-1.3-0.5l0.3-1.2c0.5,0.1,1,0.2,1.4,0
		s1.1-0.5,1.4-1.5c0.2-1-0.1-2.1-1.6-2.5c-0.5-0.1-1.1-0.1-1.7,0.3c-0.3,0.3-0.6,0.7-0.7,1.1L325.9,38.2z"/>
	<path class="st3" d="M334.9,47.9c-0.5-1.3-0.6-2.9-0.2-4.6c0.4-1.7,1.1-3.1,2.1-4.1c1.2-1.1,2.5-1.3,3.4-1.1c0.9,0.2,2,0.9,2.6,2.4
		c0.5,1.3,0.6,2.9,0.2,4.6c-0.4,1.7-1.1,3.1-2.1,4.1c-1.2,1.1-2.5,1.3-3.4,1.1C336.6,50.1,335.5,49.4,334.9,47.9z M337.6,40.2
		c-0.9,0.9-1.4,2.2-1.7,3.4c-0.3,1.2-0.3,2.6,0.1,3.8c0.4,1.1,1.2,1.6,1.8,1.8c0.6,0.1,1.5,0,2.3-0.9c0.9-0.9,1.4-2.2,1.7-3.4
		c0.3-1.2,0.3-2.6-0.1-3.8c-0.4-1.1-1.2-1.6-1.8-1.8C339.3,39.2,338.5,39.3,337.6,40.2z"/>
	<path class="st3" d="M353.6,40.4c-0.5,0.8-1.1,1.7-1.6,2.9c-0.7,1.5-1.1,2.8-1.4,4.4c-0.3,1.5-0.5,2.8-0.5,4.4
		c0,1.2,0.1,2.3,0.2,3.4l-1.2,0.3c-0.3-2.2-0.3-4-0.3-4.3c0-1.4,0.2-2.9,0.5-4.2c0.3-1.2,0.7-2.8,1.5-4.5c0.5-1.1,1.2-2.3,1.8-3.2
		L353.6,40.4z"/>
	<path class="st3" d="M358.7,43.6l-2.3,10.6l-1.3-0.3l2.3-10.6l-2.9-0.6l0.3-1.2l7.1,1.5l-0.3,1.2L358.7,43.6z"/>
	<path class="st3" d="M365.8,43.9c0.7,0.1,1.8,0.5,2.6,1.3c0.3,0.4,0.8,1.2,0.5,2.7c-0.1,0.6-0.5,1.6-1.7,2.1
		c1.6,0.8,1.9,2.3,1.6,3.5s-1,1.9-1.8,2.3c-1.1,0.5-2.2,0.3-3,0.2l-2.9-0.6l2.6-11.8L365.8,43.9z M362.7,54.3l1.5,0.3
		c0.8,0.2,1.5,0.3,2.2,0c0.5-0.2,1-0.8,1.1-1.5c0.2-0.9-0.2-1.6-0.6-2c-0.4-0.3-1-0.6-1.9-0.8l-1.3-0.3L362.7,54.3z M363.8,48.9
		l1,0.2c0.7,0.2,2.4,0.4,2.8-1.5c0.4-2-1.5-2.4-1.9-2.5l-1-0.2L363.8,48.9z"/>
	<path class="st3" d="M381.5,50c-0.3-0.5-0.8-1-1.3-1.4c-0.6-0.4-1.2-0.8-1.9-0.9c-2.7-0.6-5.2,1.2-5.8,3.9
		c-0.7,3.2,1.6,5.4,3.7,5.9c0.8,0.2,1.6,0.1,2.3-0.1c0.7-0.2,1.3-0.5,1.6-0.7l-0.4,1.6c-1.5,0.7-2.9,0.6-3.8,0.4
		c-3.5-0.8-5.5-4-4.8-7.4c0.8-3.5,4-5.6,7.5-4.8c0.7,0.2,2.1,0.5,3.2,1.9L381.5,50z"/>
	<path class="st3" d="M382.8,58.3c-0.5-1.3-0.6-2.9-0.2-4.6s1.1-3.1,2.1-4.1c1.2-1.1,2.5-1.3,3.4-1.1c0.9,0.2,2,0.9,2.6,2.4
		c0.5,1.3,0.6,2.9,0.2,4.6c-0.4,1.7-1.1,3.1-2.1,4.1c-1.2,1.1-2.5,1.3-3.4,1.1C384.5,60.5,383.4,59.8,382.8,58.3z M385.5,50.6
		c-0.9,0.9-1.4,2.2-1.7,3.4c-0.3,1.2-0.3,2.6,0.1,3.8c0.4,1.1,1.2,1.6,1.8,1.8c0.6,0.1,1.5,0,2.3-0.9c0.9-0.9,1.4-2.2,1.7-3.4
		c0.3-1.2,0.3-2.6-0.1-3.8c-0.4-1.1-1.2-1.6-1.8-1.8C387.2,49.6,386.3,49.7,385.5,50.6z"/>
	<path class="st3" d="M395.8,51.7l-2-0.4l1-1.1l2.6,0.6l-2.6,11.8l-1.3-0.3L395.8,51.7z"/>
	<path class="st3" d="M403.9,50.8c0.2,1,0.3,2.4,0.3,3.6c0,1.9-0.2,3.5-0.5,4.7c-0.3,1.3-0.7,2.8-1.3,4c-0.1,0.3-0.8,1.9-2,3.8
		l-1-0.8c0.6-0.9,1.1-1.9,1.6-3c0.7-1.5,1.1-2.8,1.4-4.2c0.3-1.5,0.5-3,0.5-4.6c0-1.3-0.1-2.4-0.2-3.3L403.9,50.8z"/>
</g>
</svg>
