<?xml version="1.0" encoding="utf-8"?>
<!-- Generator: Adobe Illustrator 23.0.3, SVG Export Plug-In . SVG Version: 6.00 Build 0)  -->
<svg version="1.1" id="Слой_1" xmlns="http://www.w3.org/2000/svg" xmlns:xlink="http://www.w3.org/1999/xlink" x="0px" y="0px"
	 viewBox="0 0 500 600" style="enable-background:new 0 0 500 600;" xml:space="preserve">
<style type="text/css">
	.st0{fill:#4E86B9;}
</style>
<g>
	<path class="st0" d="M27.9,517.9l-0.2-0.8l71.9-26.4l0.2,0.7L27.9,517.9z M34.9,506.1H34V226.4h0.8V506.1z M81.8,238.2l-0.2-0.7
		l76.2-22.4l0.2,0.7L81.8,238.2z M30.8,224.7l-0.2-0.7L97,205.3l0.2,0.7L30.8,224.7z"/>
</g>
<g>
	<polygon class="st0" points="34.5,514.7 36.5,502.7 34.5,505.3 32.6,502.7 	"/>
</g>
<g>
	<polygon class="st0" points="34.5,224 36.5,236 34.5,233.4 32.6,236 	"/>
</g>
<g>
	<rect x="367.2" y="257.5" class="st0" width="0.8" height="242.7"/>
</g>
<g>
	<polygon class="st0" points="367.1,508.7 369.2,496.7 367.1,499.4 365.2,496.7 	"/>
</g>
<g>
	<polygon class="st0" points="368.2,255 370.1,267 368.2,264.2 366.2,267 	"/>
</g>
<g>
	<path class="st0" d="M373.6,510.3l-136.3-36.2l0.2-0.7l136.3,36.2L373.6,510.3z M98.9,205.4L60.3,196l0.2-0.7l38.6,9.4L98.9,205.4z
		 M299.2,150l-40.3-10l0.2-0.7l40.3,10L299.2,150z"/>
</g>
<g>
	<polygon class="st0" points="86.1,236.4 75.4,231.3 77.3,234 74.3,235.2 	"/>
</g>
<g>
	<polygon class="st0" points="34.7,223.8 46.6,224.9 43.5,226.3 45.5,228.8 	"/>
</g>
<g>
	
		<rect x="59.6" y="208" transform="matrix(0.2359 -0.9718 0.9718 0.2359 -177.6149 233.9796)" class="st0" width="0.8" height="43.9"/>
</g>
<g>
	<polygon class="st0" points="64,196.3 74.8,191.3 72.7,193.9 75.9,195 	"/>
</g>
<g>
	<polygon class="st0" points="264.6,141.3 252.8,142.6 255.8,143.8 253.8,146.3 	"/>
</g>
<g>
	
		<rect x="66.2" y="168.1" transform="matrix(0.9644 -0.2643 0.2643 0.9644 -38.6708 49.6614)" class="st0" width="198" height="0.8"/>
</g>
<g>
	<path class="st0" d="M157.4,506.2c-0.1,0-0.1,0-0.2-0.1s-0.1-0.2-0.1-0.4l0.5-282.6h0.8l-0.5,282.1l7.4-3l-0.7-280.9h0.8l0.7,280.5
		l5.9-2.4V219.1h0.8v223.2l108.3-38.5c0.1,0,0.1,0,0.2,0h0.1l0.2-112.2h0.8L282.3,404l46.6,11.2V249.7h0.8v185.9l7.7-3.1l0.6-180.5
		h0.8L338.3,432l5.3-2.2l0.5-176.6h0.8l-0.8,176.9c0,0.1-0.1,0.4-0.2,0.4l-186.2,75.6C157.5,506.2,157.5,506.2,157.4,506.2z
		 M172.7,478.6v20.6l155.9-63.3v-19.7L172.7,478.6z M172.7,442.9v34.9L327.3,416l-46.2-11.2l-108.3,38.5L172.7,442.9z M282.3,277.4
		h-0.8l0.1-39h0.8L282.3,277.4z M344.6,243.1h-0.8l0.2-72.7h0.8L344.6,243.1z M338.7,241.7h-0.8l0.2-69.5h0.8L338.7,241.7z
		 M329.5,239.6h-0.8V175h0.8V239.6z M282.5,228.7h-0.8v-3.1h0.8V228.7z"/>
</g>
<g>
	<path class="st0" d="M343.6,253.8c-0.4,0-0.7-0.1-1-0.2l-102.9-25c-0.1,0-3.3-1.4-2.3-5.5c0.8-4.1,4.7-4.2,4.8-4.2L345.2,243
		c0.1,0,0.1,0,0.2,0c1.4,0.1,2.5,1.8,2.5,4.1l0,0l0,0l0,0l0,0l0,0l0,0l0,0l0,0l0,0l0,0l0,0l0,0l0,0l0,0c0,0.4,0,0.7-0.1,1.1
		C347.3,251.5,345.5,253.8,343.6,253.8z M343,252.8l0.7,0.1c1.4,0,2.9-2.1,3.3-4.6l0,0c0-0.4,0.1-0.7,0.1-1.1c0-2.1-0.8-3.5-2.1-3.5
		c-1.4,0-3,2.1-3.3,4.6C341.4,250.5,341.9,252.2,343,252.8z M242.1,219.6c0,0-3.1,0.1-3.9,3.6c-0.7,3.5,1.7,4.6,1.8,4.6l101.6,24.6
		c-0.6-1-0.8-2.4-0.6-4.1c0.2-2.2,1.3-4,2.7-4.8L242.1,219.6z"/>
</g>
<path class="st0" d="M172.7,350.4L172,350l48.4-108.5v-0.1c0-0.5-0.5-2.4-3.5-3.9c-3-1.4-4.6-0.4-4.9-0.1L172.5,329l-0.7-0.4
	l38.7-90c-0.1,0-0.1-0.1-0.1-0.1l-1.7-2.9c-1.4-2.7,7.6-9.4,16.8-14.4c9-4.8,17.4-7.7,20.1-6.9c0.5,0.1,0.8,0.4,1,0.7l1.7,2.8
	l0.1,0.1v0.1l0.4,2.2l-0.8,0.1l-0.4-2.2c-0.1-0.1-0.2-0.2-0.5-0.2c-2.5-0.7-10.9,2.2-19.5,6.8c-8.9,4.8-15,9.6-16.3,12.1
	c0,0,0,0,0-0.1c0.1-0.1,1.9-1.9,5.9-0.1c2.4,1.1,3.4,2.7,3.7,3.6c1.8-2.4,6.9-5.5,10.7-7.6s7.7-3.6,10.5-4.2h0.1
	c1.6,0.2,2.1,0.4,2.7,0.5c0.2,0,0.5,0.1,0.8,0.2c0.2,0,0.4,0.2,0.2,0.5c-0.1,0.8-1.1,1.9-2.5,3.1L315,315l0,0c0,0,0.8,0.7,1,2.2
	c0,1.3-0.7,2.9-2.2,4.3c-1.3,1.3-2.5,1.9-3.9,1.8c-1.9-0.1-3.1-1.9-3.1-1.9l-72.5-82.9c-6,3.1-11.5,4.8-13.4,4.2
	c-0.2,0-0.4-0.1-0.5-0.2L172.7,350.4z M235.2,238.2l72.4,82.7c0,0,1.1,1.6,2.7,1.7c1.1,0.1,2.2-0.5,3.3-1.6c1.3-1.3,1.9-2.7,1.9-3.7
	s-0.6-1.7-0.7-1.7l-71.8-82.4C241,234.8,238.3,236.6,235.2,238.2z M221.1,241.8c0,0.1,0,0.1,0,0.2c0,0.1,0.1,0.1,0.2,0.1
	c1.4,0.5,6.4-1,13-4.3c6-3.1,10-6.4,10.9-8c-0.1,0-0.2-0.1-0.4-0.1c-0.6-0.1-1.1-0.2-2.5-0.5c-2.7,0.6-6.4,2.2-10.3,4.1
	c-6.3,3.3-10.1,6.5-10.9,8l0,0v0.1L221.1,241.8z M244.3,215c-3.3,0-10.9,2.8-18.5,6.9c-10.7,5.8-17.2,11.6-16.4,13.3l1.1,1.8
	c1.3-3.1,8.9-8.6,16.8-12.8c8.6-4.6,16.5-7.4,19.7-6.9l-1-1.7c-0.1-0.1-0.2-0.2-0.5-0.4C245.1,215,244.7,215,244.3,215z"/>
<path class="st0" d="M157.4,506.2l-57.9-14.7c-0.1,0-0.4-0.2-0.4-0.4V213.4h0.8v277.5l57.6,14.6L157.4,506.2z M172.5,256.4l-0.2-0.7
	l35.5-10l0.2,0.7L172.5,256.4z M245.4,235.9l-0.2-0.7l11.1-3.1l0.2,0.7L245.4,235.9z M172.5,230.4l-0.2-0.7L328.8,186
	c0.1,0,0.2,0,0.4,0.1c0.1,0.1,0.1,0.2,0.1,0.4v0.7c0,0.1,0,0.2-0.1,0.4l-42.6,37l-0.1,0.1l-11,3.1l-0.2-0.7l10.9-3l42.2-36.8
	L172.5,230.4z"/>
<g>
	<path class="st0" d="M157.9,223.6L157.9,223.6L157.9,223.6c-0.1,0-0.1,0-0.2,0l-58.3-10.1c-0.2,0-0.4-0.2-0.4-0.4v-7.8
		c0-0.1,0-0.2,0.1-0.4c0.1-0.1,0.2-0.1,0.4-0.1l58.3,9.8c3.7-1,67.1-18,113.2-31.1c46.9-13.3,73-21.8,73.3-21.8c0.1,0,0.2,0,0.4,0
		s0.1,0.2,0.1,0.4v8.2c0,0.1-0.1,0.4-0.2,0.4L158,223.5C158,223.6,158,223.6,157.9,223.6z M99.9,212.7l57.5,10v-7.4l-57.5-9.6
		C99.9,205.8,99.9,212.7,99.9,212.7z M158.2,215.4v7.2l185.9-52.7v-7.2c-4,1.3-29.4,9.4-72.7,21.7
		C226,197.3,164.1,213.8,158.2,215.4z"/>
</g>
<g>
	<path class="st0" d="M97.2,206.2l-0.2-0.7l202.1-56.1c0.1,0,0.1,0,0.2,0l45.2,12.4l-0.2,0.7l-45.1-12.4L97.2,206.2z"/>
</g>
<g>
	<path class="st0" d="M145.3,208.8c-6.5,0-13.5-1.6-13.5-4.5s7-4.5,13.5-4.5c6.5,0,13.5,1.6,13.5,4.5
		C158.7,207.2,151.8,208.8,145.3,208.8z M145.3,200.6c-7.5,0-12.7,1.9-12.7,3.7s5.2,3.7,12.7,3.7s12.7-1.9,12.7-3.7
		C158,202.5,152.8,200.6,145.3,200.6z M300.3,167.9c-6.5,0-13.5-1.6-13.5-4.5s7-4.5,13.5-4.5c6.5,0,13.5,1.6,13.5,4.5
		S306.8,167.9,300.3,167.9z M300.3,159.7c-7.5,0-12.7,1.9-12.7,3.7s5.2,3.7,12.7,3.7c7.5,0,12.7-1.9,12.7-3.7
		S307.8,159.7,300.3,159.7z"/>
</g>
<g>
	
		<rect x="358.1" y="236.5" transform="matrix(0.2495 -0.9684 0.9684 0.2495 25.2803 536.0814)" class="st0" width="0.8" height="30.4"/>
</g>
<g>
	<polygon class="st0" points="480.4,168.1 469.6,163.1 471.7,165.7 468.7,166.9 	"/>
</g>
<g>
	<polygon class="st0" points="352.4,136.3 364.1,137.5 361.1,138.7 363.1,141.3 	"/>
</g>
<g>
	
		<rect x="414.5" y="93.1" transform="matrix(0.2372 -0.9715 0.9715 0.2372 169.0944 518.7928)" class="st0" width="0.8" height="117.2"/>
</g>
<g>
	<path class="st0" d="M344.2,248.8l-0.2-0.7l126.4-31.4v-46.8c0-0.2,0.1-0.4,0.4-0.4l12.9-2.5l0.1,0.8l-12.7,2.5v46.8h-0.4l0.1,0.4
		L344.2,248.8z"/>
</g>
<g>
	<polygon class="st0" points="470.5,217 459.7,211.8 461.8,214.4 458.7,215.6 	"/>
</g>
<g>
	<polygon class="st0" points="344.1,185.5 355.9,186.7 352.8,187.9 354.8,190.4 	"/>
</g>
<g>
	
		<rect x="406" y="141.1" transform="matrix(0.2377 -0.9713 0.9713 0.2377 114.6327 547.9398)" class="st0" width="0.8" height="119.8"/>
</g>
<g>
	
		<rect x="297.1" y="139.5" transform="matrix(0.9709 -0.2394 0.2394 0.9709 -23.6431 85.263)" class="st0" width="84.2" height="0.8"/>
</g>
<g>
	<path class="st0" d="M18.1,377.9v2l-1.3-0.7v-2.7H29v1.3H18.1z"/>
	<path class="st0" d="M27.4,371.5c-1.2,0.8-2.7,1.2-4.5,1.2c-1.7,0-3.3-0.4-4.5-1.2c-1.3-0.9-1.8-2.1-1.8-3.1c0-1,0.5-2.2,1.8-3.1
		c1.2-0.8,2.7-1.2,4.5-1.2c1.7,0,3.3,0.4,4.5,1.2c1.3,0.9,1.8,2.1,1.8,3.1C29.2,369.4,28.7,370.6,27.4,371.5z M19.2,370.5
		c1,0.7,2.4,0.9,3.7,0.9c1.3,0,2.7-0.2,3.7-0.9c1-0.6,1.3-1.5,1.3-2.1c0-0.6-0.3-1.5-1.3-2.1c-1-0.7-2.4-0.9-3.7-0.9
		c-1.3,0-2.7,0.2-3.7,0.9c-1,0.6-1.3,1.5-1.3,2.1C17.9,369,18.2,369.9,19.2,370.5z"/>
	<path class="st0" d="M18.1,360.2v2l-1.3-0.7v-2.7H29v1.3H18.1z"/>
	<path class="st0" d="M27.4,353.8c-1.2,0.8-2.7,1.2-4.5,1.2c-1.7,0-3.3-0.4-4.5-1.2c-1.3-0.9-1.8-2.1-1.8-3.1c0-1,0.5-2.2,1.8-3.1
		c1.2-0.8,2.7-1.2,4.5-1.2c1.7,0,3.3,0.4,4.5,1.2c1.3,0.9,1.8,2.1,1.8,3.1C29.2,351.7,28.7,352.9,27.4,353.8z M19.2,352.8
		c1,0.7,2.4,0.9,3.7,0.9c1.3,0,2.7-0.2,3.7-0.9c1-0.6,1.3-1.5,1.3-2.1c0-0.6-0.3-1.5-1.3-2.1c-1-0.7-2.4-0.9-3.7-0.9
		c-1.3,0-2.7,0.2-3.7,0.9c-1,0.6-1.3,1.5-1.3,2.1C17.9,351.3,18.2,352.2,19.2,352.8z"/>
</g>
<g>
	<path class="st0" d="M360.7,368c1.9,0,3.6,1.2,3.6,3.7c0,2.5-1.7,3.7-3.6,3.7c-1.3,0-2.4-0.6-3-1.8c-0.6,1-1.5,1.5-2.7,1.5
		c-1.7,0-3.4-1.2-3.4-3.3c0-2.2,1.6-3.3,3.4-3.3c1.1,0,2.1,0.5,2.7,1.5C358.3,368.6,359.4,368,360.7,368z M355.1,369.7
		c-1.3,0-2.1,1-2.1,2.1c0,1.1,0.8,2.1,2.1,2.1c1.2,0,2.1-0.9,2.1-2.1C357.2,370.5,356.3,369.7,355.1,369.7z M360.7,369.4
		c-1.4,0-2.3,1-2.3,2.4c0,1.4,0.9,2.4,2.3,2.4c1.4,0,2.4-1,2.4-2.4C363,370.3,362.1,369.4,360.7,369.4z"/>
	<path class="st0" d="M353.2,359.6v6.6h-1.2v-8.9l12.4,8.1l-0.7,1.1L353.2,359.6z"/>
	<path class="st0" d="M353.2,350v3.9l2.6,0.8c-0.1-0.2-0.1-0.5-0.1-0.8c0-2.4,1.8-4,4.2-4c2.7,0,4.4,2,4.4,4.4c0,1-0.3,1.9-0.9,2.7
		c-0.3,0.4-0.7,0.8-1.2,1.1l-0.8-1.1c0.4-0.2,0.7-0.5,1-0.8c0.4-0.5,0.7-1.1,0.7-2c0-1.7-1.4-3-3.1-3c-1.7,0-3,1.3-3,3
		c0,0.4,0.1,1.3,0.8,2.3l-5.9-1.8V350H353.2z"/>
</g>
<g>
	<path class="st0" d="M144.7,168.8l1.7-4.4c-0.3,0.2-0.6,0.3-1,0.4c-2.3,0.6-4.2-0.7-4.8-2.9c-0.6-2.3,0.7-4.5,3-5.1
		c2.8-0.7,4.6,1.1,5.1,3c0.1,0.4,0.3,1.5-0.3,2.9l-2.6,6.6L144.7,168.8z M142,161.5c0.4,1.6,1.9,2.4,3.5,2c1.6-0.4,2.4-1.9,2-3.4
		c-0.4-1.6-1.8-2.5-3.5-2.1C142.4,158.5,141.6,160,142,161.5z"/>
	<path class="st0" d="M159.3,162.1c0.5,1.8-0.3,3.8-2.7,4.4c-2.4,0.6-4-0.7-4.5-2.5c-0.3-1.3,0-2.5,1-3.3c-1.1-0.3-1.8-1.1-2.1-2.2
		c-0.4-1.7,0.3-3.5,2.4-4.1c2.1-0.5,3.6,0.8,4.1,2.4c0.3,1.1,0,2.2-0.8,2.9C158.1,159.9,159,160.9,159.3,162.1z M156.3,157.1
		c-0.3-1.3-1.5-1.8-2.5-1.6c-1.1,0.3-1.8,1.3-1.5,2.6c0.3,1.2,1.4,1.8,2.5,1.5C156,159.4,156.6,158.3,156.3,157.1z M158,162.4
		c-0.3-1.3-1.5-2-2.9-1.7c-1.3,0.3-2.1,1.5-1.7,2.8c0.3,1.3,1.5,2.1,2.9,1.7C157.6,165,158.3,163.8,158,162.4z"/>
	<path class="st0" d="M163.1,163c-1.1-0.9-1.9-2.3-2.3-4c-0.4-1.7-0.4-3.3,0.1-4.6c0.6-1.5,1.6-2.3,2.6-2.5c0.9-0.2,2.2-0.1,3.5,1
		c1.1,0.9,1.9,2.3,2.3,4c0.4,1.7,0.4,3.3-0.1,4.6c-0.6,1.5-1.6,2.3-2.6,2.5C165.7,164.2,164.4,164,163.1,163z M162.1,154.8
		c-0.4,1.2-0.3,2.6,0.1,3.8c0.3,1.2,0.9,2.5,1.8,3.4c0.9,0.8,1.8,0.9,2.4,0.8c0.6-0.2,1.3-0.7,1.7-1.8c0.4-1.2,0.3-2.6-0.1-3.8
		c-0.3-1.2-0.9-2.5-1.8-3.4c-0.9-0.8-1.8-0.9-2.4-0.8C163.2,153.1,162.5,153.7,162.1,154.8z"/>
</g>
<g>
	<path class="st0" d="M415.1,134.8l-3.6,3.1c0.4,0,0.7,0,1.1,0.1c2.3,0.5,3.4,2.6,2.9,4.8c-0.6,2.4-2.7,3.6-5,3.1
		c-2.8-0.7-3.6-3.1-3.1-5c0.1-0.4,0.4-1.4,1.6-2.5l5.4-4.6L415.1,134.8z M414.1,142.5c0.4-1.6-0.5-3-2.1-3.4c-1.6-0.4-3,0.5-3.4,2.1
		c-0.4,1.6,0.4,3.1,2.1,3.5C412.3,145.1,413.8,144.1,414.1,142.5z"/>
	<path class="st0" d="M425.2,137.2l-3.6,3.1c0.4,0,0.7,0,1.1,0.1c2.3,0.5,3.4,2.6,2.9,4.8c-0.6,2.4-2.7,3.6-5,3.1
		c-2.8-0.7-3.6-3.1-3.1-5c0.1-0.4,0.4-1.4,1.6-2.5l5.4-4.6L425.2,137.2z M424.2,145c0.4-1.6-0.5-3-2.1-3.4c-1.6-0.4-3,0.5-3.4,2.1
		c-0.4,1.6,0.4,3.1,2.1,3.5C422.4,147.5,423.8,146.6,424.2,145z"/>
	<path class="st0" d="M434.1,147.8l1.4,0.4l-0.3,1.2l-1.4-0.4l-0.5,2.2l-1.3-0.3l0.5-2.2l-6-1.5l9.8-8.4L434.1,147.8z M432.8,147.4
		l1.3-5.2l-5,4.3L432.8,147.4z"/>
</g>
<g>
	<path class="st0" d="M391.4,188.9l1.4,0.4l-0.3,1.2l-1.4-0.4l-0.5,2.2l-1.3-0.3l0.5-2.2l-6-1.5l9.8-8.4L391.4,188.9z M390.1,188.6
		l1.3-5.2l-5,4.3L390.1,188.6z"/>
	<path class="st0" d="M401.5,191.3l1.4,0.4l-0.3,1.2l-1.4-0.4l-0.5,2.2l-1.3-0.3l0.5-2.2l-6-1.5l9.8-8.4L401.5,191.3z M400.1,191
		l1.3-5.2l-5,4.3L400.1,191z"/>
	<path class="st0" d="M411.5,193.7l1.4,0.4l-0.3,1.2l-1.4-0.4l-0.5,2.2l-1.3-0.3l0.5-2.2l-6-1.5l9.8-8.4L411.5,193.7z M410.2,193.4
		l1.3-5.2l-5,4.3L410.2,193.4z"/>
</g>
<g>
	<path class="st0" d="M43.1,243.5l5.4-4c0.4-0.3,1.4-1,1.8-1.4c0.7-0.6,1-1.2,1.1-1.7c0.3-1.3-0.4-2.5-1.8-2.8
		c-0.8-0.2-1.6,0-2.2,0.6c-0.3,0.3-0.6,0.7-0.7,1.3l-1.3-0.3c0.3-1.2,0.9-1.8,1.4-2.2c0.6-0.5,1.6-0.9,3.1-0.6
		c2.1,0.5,3.3,2.3,2.9,4.4c-0.2,0.8-0.6,1.5-1.5,2.3c-0.7,0.6-1.5,1.2-2.1,1.6l-3.1,2.2l5,1.1l-0.3,1.2L43.1,243.5z"/>
	<path class="st0" d="M52.5,245.6l5.4-4c0.4-0.3,1.4-1,1.8-1.4c0.7-0.6,1-1.2,1.1-1.7c0.3-1.3-0.4-2.5-1.8-2.8
		c-0.8-0.2-1.6,0-2.2,0.6c-0.3,0.3-0.6,0.7-0.7,1.3l-1.3-0.3c0.3-1.2,0.9-1.8,1.4-2.2c0.6-0.5,1.6-0.9,3.1-0.6
		c2.1,0.5,3.3,2.3,2.9,4.4c-0.2,0.8-0.6,1.5-1.5,2.3c-0.7,0.6-1.5,1.2-2.1,1.6l-3.1,2.2l5,1.1l-0.3,1.2L52.5,245.6z"/>
	<path class="st0" d="M63.6,246.5c-0.5-1.3-0.6-2.9-0.2-4.6s1.1-3.1,2.2-4.1c1.2-1.1,2.5-1.3,3.4-1.1c0.9,0.2,2,0.9,2.6,2.5
		c0.5,1.3,0.6,2.9,0.2,4.6s-1.1,3.1-2.2,4.1c-1.2,1.1-2.5,1.3-3.4,1.1C65.3,248.7,64.3,248,63.6,246.5z M66.4,238.8
		c-0.9,0.9-1.4,2.2-1.7,3.4c-0.3,1.2-0.4,2.6,0.1,3.8c0.4,1.1,1.1,1.6,1.7,1.8s1.5,0,2.3-0.9c0.9-0.9,1.4-2.2,1.7-3.4
		c0.3-1.2,0.4-2.6-0.1-3.8c-0.4-1.1-1.1-1.6-1.7-1.8C68.2,237.8,67.3,237.9,66.4,238.8z"/>
</g>
</svg>
