<?xml version="1.0" encoding="utf-8"?>
<!-- Generator: Adobe Illustrator 23.0.3, SVG Export Plug-In . SVG Version: 6.00 Build 0)  -->
<svg version="1.1" id="Слой_1" xmlns="http://www.w3.org/2000/svg" xmlns:xlink="http://www.w3.org/1999/xlink" x="0px" y="0px"
	 viewBox="0 0 500 600" style="enable-background:new 0 0 500 600;" xml:space="preserve">
<style type="text/css">
	.st0{fill:#4E86B9;}
	
		.st1{fill:none;stroke:#4E86B9;stroke-width:0.425;stroke-linecap:round;stroke-linejoin:round;stroke-miterlimit:10;stroke-dasharray:43.2,3.6,3.6,3.6;stroke-dashoffset:11;}
	
		.st2{fill:none;stroke:#4E86B9;stroke-width:0.425;stroke-linecap:round;stroke-linejoin:round;stroke-miterlimit:10;stroke-dasharray:43.2,3.6,3.6,3.6;stroke-dashoffset:20;}
	
		.st3{fill:none;stroke:#4E86B9;stroke-width:0.425;stroke-linecap:round;stroke-linejoin:round;stroke-miterlimit:10;stroke-dasharray:43.2,3.6,3.6,3.6;stroke-dashoffset:12;}
	
		.st4{fill:none;stroke:#4E86B9;stroke-width:0.425;stroke-linecap:round;stroke-linejoin:round;stroke-miterlimit:10;stroke-dasharray:43.2,3.6,3.6,3.6;stroke-dashoffset:19;}
	
		.st5{fill:none;stroke:#4E86B9;stroke-width:0.425;stroke-linecap:round;stroke-linejoin:round;stroke-miterlimit:10;stroke-dasharray:43.2,3.6,3.6,3.6;stroke-dashoffset:25;}
	
		.st6{fill:none;stroke:#4E86B9;stroke-width:0.425;stroke-linecap:round;stroke-linejoin:round;stroke-miterlimit:10;stroke-dasharray:43.2,3.6,3.6,3.6;stroke-dashoffset:14;}
	.st7{fill:none;stroke:#4E86B9;stroke-width:0.425;stroke-linecap:round;stroke-linejoin:round;stroke-miterlimit:10;}
	.st8{fill:none;stroke:#4E86B9;stroke-width:0.709;stroke-linecap:round;stroke-linejoin:round;stroke-miterlimit:10;}
</style>
<path class="st0" d="M101.6,508.2l-2.7-18.3l5.5-0.2L101.6,508.2 M101.6,207l2.8,18.3l-5.5,0.2L101.6,207 M465.6,505l-2.7-18.3
	l5.5-0.2L465.6,505 M465.6,244.2l2.8,18.3l-5.5,0.2L465.6,244.2"/>
<path class="st0" d="M39.9,512.9l-13.8-0.3l1.4-5.5L39.9,512.9 M92.1,525.2l13.8,0.4l-1.5,5.5L92.1,525.2"/>
<path class="st0" d="M209.9,512.4l12.4-6.4l1.4,5.3L209.9,512.4 M462.1,438.4l-12.4,6.5l-1.3-5.4L462.1,438.4"/>
<line class="st1" x1="282.3" y1="463.3" x2="473" y2="506"/>
<line class="st2" x1="475.8" y1="246.6" x2="302.9" y2="207.9"/>
<line class="st3" x1="253.4" y1="241.3" x2="197.8" y2="367.3"/>
<line class="st4" x1="296.6" y1="228" x2="377.7" y2="315.1"/>
<line class="st5" x1="142.9" y1="496.7" x2="94.4" y2="511"/>
<line class="st6" x1="159.7" y1="190" x2="87.9" y2="211.1"/>
<path class="st7" d="M101.6,508.2V207 M465.6,505V244.2"/>
<path class="st7" d="M39.9,512.9l-26.1-6.1 M92.1,525.2l-52.2-12.3 M92.1,525.2l26,6.1 M123,488.5l-85.3,25.1 M175.2,500.8
	l-85.3,25.1"/>
<path class="st7" d="M404.7,104.7L293.8,79.9 M293.8,177V76.9 M404.7,227.8v-126"/>
<path class="st7" d="M462.1,438.4l-252.2,74 M147.1,498.4l65,14.5 M399.3,424.3l65,14.5"/>
<path class="st0" d="M293.8,79.9l13.7,0.2l-1.3,5.5 M404.7,104.7l-13.8-0.2l1.4-5.4"/>
<path class="st8" d="M341.7,406.8l-148.3,43.6 M193.8,476.6l-0.4-0.1 M342.3,284.5v122.4 M342.3,221.8v47.9 M342.3,203.9v7.8
	 M393.2,233.3V419 M393.2,161.9v61.2 M394.5,233.6V429 M394.5,150.4v73 M193.4,247.6l9.1-2.6 M294.1,218.1l4-1.2 M265.7,226.4
	l14-4.2 M202.9,244.9l50.1-14.8 M307.6,214.1l-9,2.6 M336.2,205.7l-9,2.7 M194.2,220.4l-0.9,0.7 M193.5,208.6v0.1 M211.4,203
	l163.9-48.1 M300.5,194.4l0.2-0.2 M250,222.8l0.2-0.1 M249.7,221.7h-0.2 M298.2,192.7L298.2,192.7 M298.5,192.5l-0.3,0.1
	 M298.2,192.7l0.2-0.1 M295.9,192.6l-0.3,0.2 M296.2,192.7l-0.3-0.1 M297.6,192.8h-0.2 M280.9,218.3l0.2,1 M291.2,210.4l-0.2,0.2
	l-1.1,0.8 M285.3,211.1l-0.2,0.3l-0.7,0.5l-0.6,0.6L283,213l-0.8,0.6l-0.9,0.6l-0.9,0.6l-0.9,0.6l-1,0.5l-0.9,0.5l-1,0.5l-0.9,0.5
	l-0.9,0.4l-0.9,0.4 M266.6,223.6l-0.4-0.1 M252,217.1l0.8-0.4 M271.7,218.6h-0.5h-0.5h-0.3l-0.4-0.1l-0.2-0.1v-0.1 M290,210.5
	L290,210.5l0.4-0.2 M296.4,194.8v0.8 M298.2,201.8h-0.1 M294.4,200.9l-1-1.9 M273.5,217.9l0.8-0.2l0.9-0.4l0.8-0.4l0.9-0.5l1-0.4
	l0.9-0.5l0.9-0.6l0.9-0.5l0.9-0.6l0.8-0.6l0.8-0.5l0.8-0.6l0.6-0.6l0.5-0.5l0.3-0.3 M288.2,210l2,0.5 M276,212.1l-0.5,0.3
	 M269.9,218.2h0.1l0.2,0.2l0.2,0.1h0.4h0.5h0.5l0.6-0.2 M274.3,213.1l-0.6,0.5 M272.6,218.2l-0.5,0.2 M275.1,218.2l-1.5-0.3
	 M283.6,196.5l0.6-0.5 M125.3,485.6L125.3,485.6 M130.2,488.4l-0.3,0.1 M153.6,493.6l-0.3,0.1 M410.2,422.5h0.1 M339.2,131.4
	l-166.1,48.8 M362.6,136.6l-166.1,48.8 M211.4,202.2h-0.1 M129.9,208v280.3 M153.4,213.1v280.4 M177.1,213.3L177.1,213.3 M164.5,214
	v280.3 M410.1,144.8h0.1 M143.5,190l0.1-0.1h0.4h0.3h0.3l0.4,0.2 M153.8,185.9h-0.2l-0.3,0.1l-0.2,0.1 M146.3,189.6l-1.2,0.5
	 M145.1,190.1h0.1 M175.3,181.8L175.3,181.8 M165.7,180.1L165.7,180.1h-0.1 M170.5,179.6h0.1 M191.5,185.4L191.5,185.4 M143.5,190
	l0.1-0.1h0.3h0.4h0.3l0.4,0.2 M128.7,196.1h0.2l0.3-0.1h0.3l0.4,0.1l0.3,0.1 M130.4,196.1l-0.9,0.2l-1,0.3l-0.8,0.4l-0.9,0.5
	l-0.7,0.6l-0.7,0.7l-0.5,0.8l-0.3,0.8l-0.3,0.8l-0.1,0.3 M198.1,185.7h0.1 M199.6,186.8l-0.1,0.1l-0.1,0.2l-0.2,0.2l-0.3,0.2
	l-0.3,0.2 M170.1,182.5L170.1,182.5 M141.1,192.1L141.1,192.1 M133.8,198.1h-0.1l-0.1,0.1 M145.2,190.1h-0.1 M137.9,198L137.9,198
	 M133.3,199h-0.1h-0.1v0.1 M129.7,206.9v-0.1h-0.1 M130.2,197l-0.1,0.5l0.1,0.5l0.1,0.4l0.3,0.5l0.4,0.4l0.5,0.4l0.4,0.2 M130.2,197
	l-1,0.1l-0.9,0.2l-0.9,0.4l-0.8,0.6l-0.8,0.6l-0.5,0.6l-0.5,0.8l-0.4,0.8l-0.3,0.9v0.2 M134.2,199.7l21.6,4.8 M381.3,128.4v0.1
	 M402.2,132.4l0.4-0.1l0.4,0.1 M405.1,134.8v-0.1l-0.4-0.7l-0.4-0.5l-0.4-0.4l-0.5-0.3l-0.4-0.1l-0.3,0.1 M397.5,132L397.5,132
	 M380.5,127.7l0.6-0.1 M376,128.1L376,128.1 M337,130.9l-0.4-0.1l-0.2-0.1l-0.3-0.1l-0.1-0.1v-0.1 M343.9,131.4L343.9,131.4
	 M400,132.3l-20.8-4.6 M338.2,131.2l-1.2-0.3 M364.7,137.1l-1.2-0.2 M337,130.9v0.3 M138.1,199.9L138.1,199.9 M154.2,203.5v-0.1
	 M355.1,132.2l-0.1,0.4 M393.2,418.9v0.1 M341.7,406.8h0.1h0.1 M393.2,418.9v0.1 M393.2,418.9v-0.1l-0.1-0.2v-0.1l-0.1-0.1l-0.1-0.1
	h-0.1h-0.1h-0.1 M393.2,429.9l0.2-0.2v-0.1v-0.1l-0.2-0.1 M393.2,419.3l0.2-0.1v-0.1V419h-0.2 M341.4,406.8h0.1h0.1 M393.2,429.4
	v0.3v0.2L393,430 M194.5,487.7l-0.1,0.3l-0.2,0.3l-0.3,0.1h-0.3 M193.5,488.5L193.5,488.5 M193.5,488.5l0.1-0.2 M193.3,488.7
	l0.2-0.1 M392.5,418.2l-50.9-11.5 M193.4,477.6h0.1 M393.2,429.4v-10.1 M194.5,487.7l198.7-58.4 M193.4,477.6h0.1 M193.5,477.6v-0.1
	v-0.1l0.1-0.1v-0.1h0.1V477h0.1 M193.4,476.8h0.1l0.1-0.1l0.1-0.1h0.1 M392.5,418.2h0.1l0.1,0.1l0.1,0.1l0.1,0.1l0.1,0.2l0.1,0.1
	v0.2v0.2 M392.5,418.2l-198.7,58.4 M393.2,419.3l-198.7,58.4 M193.8,476.6h0.1l0.1,0.1l0.1,0.1l0.1,0.2l0.1,0.1l0.1,0.2v0.1v0.2
	 M193.8,476.6v0.4 M193.8,477h0.1v0.1h0.1v0.1v0.1h0.1v0.1v0.1 M194.5,477.7l-0.3-0.1 M194.1,477.6H194h-0.2h-0.2h-0.1 M193.5,477.6
	h-0.1 M194.5,487.7v-10.1 M194.5,477.7h-0.3l-0.3,0.1l-0.3-0.1h-0.1 M193.3,488.5l0.2-0.1l0.3-0.2l0.3-0.2l0.3-0.2 M408.7,425.4
	L408.7,425.4l0.1-0.1l-0.1-0.1l-0.1-0.3 M393.6,429.4h-0.1l-0.3,0.1 M394.5,429l-0.2,0.3l-0.3,0.3l-0.3,0.1l-0.4,0.1 M408.8,424.8
	L408.8,424.8 M408.6,424.8h0.2h0.1 M408.7,145.6h0.1l0.1,0.2l-0.1,0.2l-0.2,0.2 M408.6,424.8l-14.1,4.2 M408.6,146.3v278.6
	 M393.5,429.4l0.2-0.1l0.3-0.1l0.3-0.1h0.1 M394,150.3L394,150.3l-0.2-0.1l-0.1-0.1 M394.5,150.4h-0.3l-0.3-0.1l-0.3-0.1l-0.2-0.1
	 M408.6,146.3l-14.1,4.1 M408.6,146.3l0.1-0.4l0.1-0.4l-0.1-0.1 M393.3,150l0.3,0.1l0.3,0.1l0.2,0.2 M394.3,150.4h0.2 M393.7,149.7
	l0.2,0.1l0.3,0.3l0.2,0.2 M178,492.7L178,492.7h0.2 M177.9,493.2l0.2-0.1l0.4-0.1l0.3-0.3l0.2-0.3 M193.2,488.1l0.1,0.3v0.2
	 M193.2,209.6l0.2-0.2v-0.2V209h-0.1 M193.4,488.1L193.4,488.1h-0.1h-0.1 M193.4,488.1L193.4,488.1 M179.1,492.3l14.1-4.2
	 M193.2,209.6v278.6 M179.1,213.6v278.7 M179.1,492.3l-0.3,0.1l-0.3,0.1l-0.3,0.1h-0.1 M178,213.5L178,213.5l0.4,0.1l0.3,0.1h0.3
	 M178.2,213.3l0.2,0.1l0.1,0.1 M179.1,213.6l14.1-4.1 M193.3,208.6v0.2v0.3l-0.1,0.4 M178.7,213.6l-0.3-0.2l-0.3-0.1H178
	 M178.8,213.6h0.2 M179.1,213.6l-0.2-0.3l-0.3-0.2l-0.2-0.1 M350.1,201.5l0.1,0.1 M350.2,201.6l-0.2,0.1 M336.6,205.6L336.6,205.6
	h0.1v-0.1 M336.2,205.7l-0.3,0.2h-0.1 M298.5,216.7l0.1,0.1v-0.1 M349.9,201.7L349.9,201.7l0.1-0.1h0.1 M393.4,161.2h0.1
	 M393.2,149.9L393.2,149.9 M393.2,161.4L393.2,161.4h0.1v-0.1h0.1 M393.4,161.2L393.4,161.2v-0.1 M298.2,216.9l-0.3,0.1l-0.1,0.1
	 M202.9,244.9h-0.1 M202.9,244.9L202.9,244.9 M250.4,223L250.4,223l-0.4-0.2l-0.3-0.3l-0.1-0.1 M300.7,193.6v0.2l0.1,0.4l-0.1,0.4
	 M202.2,245.2L202.2,245.2l0.3-0.1 M193.9,220.5l0.3-0.1 M300.9,195.1l0.1-0.4l-0.1-0.4l-0.1-0.4l-0.2-0.3l-0.3-0.3l-0.4-0.2
	l-0.5-0.2l-0.6-0.2l-0.7-0.1h-0.8h-0.9l-1,0.1l-1,0.1l-1.1,0.3l-1.2,0.3l-1.2,0.4 M290.9,193.7l-1.3,0.4l-1.4,0.5l-1.4,0.5l-1.4,0.6
	l-1.4,0.6l-1.5,0.6l-1.5,0.7l-1.6,0.7l-1.5,0.8l-1.6,0.8l-1.5,0.8l-1.6,0.8l-1.6,0.9l-1.5,0.9l-1.5,0.9l-1.5,0.9l-1.5,0.9l-1.4,1
	l-1.4,0.9l-1.4,1l-1.3,0.9l-1.2,0.9l-1.2,1l-1.1,0.9l-1.1,0.9l-1,0.9l-0.9,0.9l-0.8,0.8l-0.8,0.8l-0.6,0.8l-0.4,0.8l-0.5,0.7
	l-0.3,0.7l-0.2,0.7l-0.2,0.6v0.4v0.5l0.1,0.3l0.3,0.4l0.3,0.3l0.4,0.2 M202.5,245l0.1-0.1h0.1h0.1h0.1 M298.6,216.7L298.6,216.7
	h-0.1h-0.1v0.1h-0.1h-0.1 M336.7,205.5h-0.1v0.1h-0.1h-0.1h-0.1 M350.2,201.6l-13.6,3.9 M350.2,201.6L350.2,201.6 M349.9,201.7
	l0.3-0.1 M393,162l-43.1,39.7 M393.2,161.9L393,162 M393.2,161.9L393.2,161.9 M193.7,220.1L193.7,220.1 M193.7,220.1l0.2,0.4
	 M193.9,220.4v0.1 M193.8,219.8L193.8,219.8v0.1v0.1h-0.1 M193.7,220.1l0.2,0.3 M194.1,219.8v0.1v0.1v0.1l-0.1,0.1v0.1h-0.1
	 M193.9,220.4l199.3-58.5 M393.5,161.2v0.1l-0.1,0.1v0.1v0.1l-0.1,0.1l-0.1,0.1 M393.5,161.2l-0.3,0.1 M194.1,219.8l0.3-0.1
	 M194.1,219.8L194.1,219.8 M193.5,219.8v0.1l0.2,0.1h0.1 M193.4,220.2l0.2,0.1l0.3,0.1 M193.5,208.7v-0.1 M194.5,219.7l198.7-58.4
	 M393.2,150.7v10.6 M193.5,208.6v0.5 M193.5,208.7h0.1l0.1,0.1l0.1,0.1v0.1v0.1 M194.1,209.2L194.1,209.2 M193.9,208.5L193.9,208.5
	l0.1,0.1v0.1l0.1,0.2v0.2v0.1 M194.1,209.2h0.3 M194.5,209.2l198.7-58.5 M393.5,150.7h-0.3 M393.2,149.9L393.2,149.9l0.1,0.1
	l0.1,0.2v0.1v0.2l0.1,0.2 M193.8,209.1l0.3,0.1 M193.5,209.1h0.1h0.1h0.1 M193.5,209.1h-0.1 M194.5,209.2v10.5 M193.4,209.2h0.1h0.1
	h0.1h0.1h0.2h0.1 M194.1,219.8H194h-0.2h-0.1h-0.1h-0.1l-0.1-0.1 M194.5,219.7L194.5,219.7h-0.1h-0.1l-0.1,0.1 M297.4,192.9
	l-0.1-0.1h-0.2h-0.3h-0.4h-0.1 M276.5,199.7l-0.4,0.2l-0.5,0.5l-0.3,0.2 M282.8,197h-0.2h-0.3l-0.4,0.1 M267.5,204.8L267.5,204.8
	l-0.4,0.3l-0.3,0.3l-0.1,0.1 M274.3,201.1h-0.1l-0.5,0.1l-0.5,0.2h-0.1 M259.8,210.1h-0.1l-0.2,0.3l-0.1,0.2v0.1 M265.7,206.2
	l-0.3,0.1l-0.6,0.3l-0.6,0.3 M254.1,214.7l-0.1,0.1 M257.8,211.9l-0.4,0.2l-0.6,0.5l-0.5,0.3 M300.8,194.1l-0.2,0.2 M264.3,228.7
	h-0.1v0.1l-0.1,0.2l-0.1,0.1 M264,229.1l-0.1,0.2v0.2l-0.1,0.2l-0.1,0.2v0.1 M265.2,224.6l0.1,0.3l0.1,0.5v0.4v0.3l-0.1,0.1
	 M263.3,226.4l-1.1,2.4 M262.3,228.8l-0.4-0.3l-0.7-0.4l-0.7-0.4l-0.6-0.3l-0.8-0.3l-0.8-0.2l-0.7-0.2l-0.8-0.2l-0.6-0.1
	 M256.3,226.5l0.4-0.8 M262.5,232.9v-0.1v-0.3l-0.1-0.3l-0.2-0.3l-0.3-0.3l-0.4-0.4l-0.4-0.3l-0.5-0.4l-0.6-0.3l-0.5-0.3l-0.8-0.3
	 M258.5,229.4l-0.7-0.2l-0.6-0.3l-0.6-0.1l-0.6-0.2h-0.5l-0.5-0.1l-0.4,0.1l-0.4,0.1l-0.2,0.1l-0.2,0.2 M297,201.6l-0.4-0.1h-0.5
	l-0.4,0.1L295,202l-0.5,0.3l-0.4,0.5l-0.4,0.4l-0.4,0.7l-0.3,0.7l-0.2,0.7l-0.2,0.8l-0.1,0.7v0.8v0.6l0.1,0.6l0.2,0.6l0.2,0.5
	l0.3,0.4l0.4,0.4l0.4,0.3l0.4,0.1h0.1 M289.1,209.9l-0.3-0.1 M290.7,203.4l0.8,0.2 M291.4,203.6l-0.3,0.7l-0.3,0.8l-0.1,0.8
	l-0.1,0.8v0.8l0.1,0.8l0.1,0.6l0.3,0.6l0.3,0.5 M291.4,209.9l-2-0.5 M283.2,220.4l-0.5-0.8l-0.4-0.9l-0.5-0.7l-0.2-0.3 M294.1,218.1
	L294.1,218.1l0.2,0.3l0.1,0.4l0.1,0.5l-0.1,0.4l-0.1,0.5l-0.2,0.7l-0.3,0.6l-0.3,0.6l-0.4,0.6l-0.5,0.6l-0.5,0.6l-0.5,0.5l-0.7,0.4
	l-0.7,0.3l-0.5,0.2l-0.6,0.1l-0.5,0.1h-0.4l-0.5-0.1l-0.3-0.2l-0.3-0.2 M289.6,221.8v-0.1l-0.2-0.2l-0.2-0.1H289l-0.2,0.1l-0.2,0.1
	l-0.2,0.1l-0.1,0.2l-0.1,0.1l0.1,0.1 M283.8,220.4h-0.3h-0.3 M283.2,220.4l3.3,3.6 M286.4,224l-0.4-0.2l-0.4-0.2l-0.2-0.3l-0.2-0.4
	l-0.1-0.1 M293.2,217.4v0.3v0.4l-0.1,0.7l-0.2,0.5l-0.3,0.7 M288.7,217.2l0.3-0.3l0.1-0.2 M292.5,220l-2-2.1 M292.5,220l-0.3-1.8
	 M283.8,220.4l-0.4-1.1l-0.5-1.2l-0.7-1.1 M283.8,220.4l0.9,0.2h0.7l0.7-0.1l0.6-0.2l0.5-0.3l0.4-0.4l0.4-0.6l0.3-0.6l0.2-0.5
	l0.1-0.5 M288.7,217.2l-0.8-0.8l-1-0.9l-0.5-0.7 M297,201.6l-0.4-0.1h-0.5l-0.4,0.1L295,202l-0.5,0.3l-0.4,0.5l-0.4,0.4l-0.4,0.7
	l-0.3,0.7l-0.2,0.7l-0.2,0.8l-0.1,0.7v0.8v0.6l0.1,0.6l0.2,0.6l0.2,0.5l0.3,0.4l0.4,0.4l0.4,0.3l0.4,0.1h0.1 M405.8,225.9l-0.5-0.1
	l-0.4,0.1l-0.5,0.1l-0.5,0.2l-0.5,0.3l-0.4,0.4l-0.4,0.6l-0.3,0.6l-0.3,0.7l-0.3,0.7l-0.1,0.8l-0.2,0.8v0.6v0.8l0.2,0.6l0.1,0.5
	l0.3,0.5l0.3,0.5l0.3,0.3l0.4,0.3l0.4,0.2h0.1 M203.4,366.7v-0.2v-0.2l-0.1-0.3l-0.2-0.4l-0.3-0.3l-0.4-0.3l-0.4-0.4l-0.5-0.3
	l-0.5-0.4l-0.6-0.3l-0.7-0.3 M199.5,363.2l-0.8-0.2l-0.7-0.2l-0.7-0.2l-0.7-0.1l-0.5-0.1h-0.5h-0.4l-0.3,0.1l-0.3,0.1l-0.2,0.2v0.1
	 M262.5,232.9v-0.1v-0.3l-0.1-0.3l-0.2-0.3l-0.3-0.3l-0.4-0.4l-0.4-0.3l-0.5-0.4l-0.6-0.3l-0.5-0.3l-0.8-0.3 M258.5,229.4l-0.7-0.2
	l-0.6-0.3l-0.6-0.1l-0.6-0.2h-0.5l-0.5-0.1l-0.4,0.1l-0.4,0.1l-0.2,0.1l-0.2,0.2 M379.3,309.5L379.3,309.5l0.2,0.4l0.1,0.3l0.1,0.5
	l-0.1,0.4l-0.1,0.7l-0.2,0.6L379,313l-0.3,0.6l-0.4,0.7l-0.5,0.5l-0.5,0.6l-0.5,0.5l-0.7,0.3l-0.6,0.3l-0.5,0.2l-0.6,0.2h-0.5h-0.4
	l-0.5-0.1l-0.3-0.2l-0.3-0.2 M294.1,218.1L294.1,218.1l0.2,0.3l0.1,0.4l0.1,0.5l-0.1,0.4l-0.1,0.5l-0.2,0.7l-0.3,0.6l-0.3,0.6
	l-0.4,0.6l-0.5,0.6l-0.5,0.6l-0.5,0.5l-0.7,0.4l-0.7,0.3l-0.5,0.2l-0.6,0.1l-0.5,0.1h-0.4l-0.5-0.1l-0.3-0.2l-0.3-0.2 M288.2,222.5
	l0.1-0.2l0.1-0.2l0.2-0.1l0.3-0.1h0.2l0.3,0.1l0.2,0.1v0.3v0.2l-0.2,0.2l-0.2,0.1L289,223h-0.3l-0.3-0.1l-0.1-0.2L288.2,222.5
	 M292.2,211.1L292.2,211.1l0.1,0.1l0.2,0.1h0.2h0.3h0.3l0.2-0.1h0.1V211 M264.8,229.1l0.1-0.2v0.1l-0.1,0.2l-0.1,0.2l-0.1,0.2
	l-0.1,0.3l-0.1,0.2l-0.1,0.1l0.1-0.1V230l0.1-0.3l0.1-0.2l0.1-0.2L264.8,229.1 M203.4,366.7v-0.2v-0.2l-0.1-0.3l-0.2-0.4l-0.3-0.3
	l-0.4-0.3l-0.4-0.4l-0.5-0.3l-0.5-0.4l-0.6-0.3l-0.7-0.3 M199.5,363.2l-0.8-0.2l-0.7-0.2l-0.7-0.2l-0.7-0.1l-0.5-0.1h-0.5h-0.4
	l-0.3,0.1l-0.3,0.1l-0.2,0.2v0.1 M199.3,363.5l-0.8-0.3l-0.6-0.2l-0.7-0.2l-0.6-0.1l-0.5-0.1h-0.5h-0.4l-0.3,0.1l-0.3,0.2l-0.2,0.1
	l-0.1,0.3l0.1,0.2l0.1,0.3l0.2,0.3l0.3,0.4l0.3,0.3l0.5,0.3l0.5,0.4l0.5,0.3l0.7,0.3l0.6,0.3l0.6,0.3l0.8,0.2l0.7,0.2l0.5,0.1
	l0.7,0.1h0.5h0.4l0.3-0.1l0.3-0.1l0.1-0.2l0.1-0.2v-0.3l-0.1-0.3l-0.2-0.3l-0.3-0.3l-0.4-0.4l-0.4-0.3l-0.5-0.4l-0.5-0.3l-0.7-0.3
	L199.3,363.5 M405.8,225.9l-0.5-0.1l-0.4,0.1l-0.5,0.1l-0.5,0.2l-0.5,0.3l-0.4,0.4l-0.4,0.6l-0.3,0.6l-0.3,0.7l-0.3,0.7l-0.1,0.8
	l-0.2,0.8v0.6v0.8l0.2,0.6l0.1,0.5l0.3,0.5l0.3,0.5l0.3,0.3l0.4,0.3l0.4,0.2h0.1 M408.1,229.7v-0.6l-0.1-0.6l-0.2-0.6l-0.2-0.5
	l-0.3-0.4l-0.4-0.4l-0.4-0.3L406,226l-0.5-0.1h-0.4l-0.5,0.1l-0.5,0.3l-0.5,0.3l-0.4,0.4l-0.4,0.4l-0.3,0.7l-0.3,0.7l-0.3,0.7
	l-0.1,0.7l-0.2,0.8v0.8v0.7l0.2,0.6l0.1,0.6l0.3,0.5l0.3,0.4l0.3,0.4l0.4,0.3l0.4,0.1l0.5,0.1h0.5l0.5-0.1l0.4-0.3l0.5-0.3l0.4-0.5
	l0.4-0.4l0.4-0.7l0.3-0.7l0.2-0.7l0.2-0.8l0.1-0.7v-0.6 M379.4,309.7L379.4,309.7l0.3,0.3l0.1,0.4v0.4v0.5l-0.1,0.6l-0.2,0.7
	l-0.3,0.5l-0.4,0.6l-0.4,0.6l-0.4,0.6l-0.6,0.6l-0.5,0.5l-0.5,0.3l-0.6,0.4l-0.6,0.2l-0.5,0.1l-0.5,0.1h-0.5l-0.4-0.1l-0.4-0.2
	l-0.2-0.3 M379.3,309.5L379.3,309.5l0.2,0.4l0.1,0.3l0.1,0.5l-0.1,0.4l-0.1,0.7l-0.2,0.6L379,313l-0.3,0.6l-0.4,0.7l-0.5,0.5
	l-0.5,0.6l-0.5,0.5l-0.7,0.3l-0.6,0.3l-0.5,0.2l-0.6,0.2h-0.5h-0.4l-0.5-0.1l-0.3-0.2l-0.3-0.2 M284.1,206.3v-0.1l0.1-0.4l0.1-0.3
	l0.2-0.2l0.3-0.1h0.2l0.3,0.1l0.3,0.1l0.2,0.3l0.2,0.3l0.1,0.4v0.4v0.3l-0.1,0.4l-0.2,0.2l-0.2,0.2 M285.7,208h-0.2h-0.3l-0.3-0.1
	l-0.2-0.2l-0.2-0.3 M285.6,207.9l0.2-0.2l0.1-0.2l0.1-0.3v-0.4v-0.3l-0.2-0.4l-0.1-0.3l-0.3-0.2l-0.2-0.1l-0.3-0.1l-0.2,0.1
	l-0.2,0.2l-0.2,0.2l-0.1,0.3v0.3l0.1,0.4l0.1,0.3l0.2,0.3l0.2,0.3l0.3,0.1h0.2L285.6,207.9 M262.7,222.8l0.3-0.3l0.1-0.3l0.1-0.3
	v-0.4L263,221l-0.2-0.3l-0.3-0.2l-0.3-0.1h-0.4h-0.3l-0.3,0.2l-0.3,0.2l-0.2,0.3v0.4v0.3l0.1,0.3l0.3,0.3l0.3,0.2l0.3,0.2h0.4
	l0.3-0.1L262.7,222.8 M262.8,222.9l-0.3,0.2l-0.4,0.1l-0.4-0.1l-0.4-0.1l-0.3-0.2l-0.2-0.3l-0.2-0.3l-0.1-0.4l0.1-0.3l0.1-0.4
	l0.2-0.2l0.3-0.3l0.4-0.1h0.3l0.4,0.1l0.4,0.1l0.3,0.3l0.2,0.3l0.1,0.3v0.4l-0.1,0.3l-0.1,0.4L262.8,222.9 M292.5,214.1v0.1h-0.1
	h-0.1 M290.8,211.9v-0.1l0.1-0.1h0.1 M292.3,214h0.2l0.1-0.1l-0.1-0.2l-0.1-0.3l-0.1-0.3l-0.2-0.3l-0.2-0.3l-0.2-0.3l-0.2-0.2
	l-0.2-0.1l-0.1-0.1l-0.1,0.1v0.1v0.2l0.1,0.3l0.2,0.3l0.1,0.3l0.2,0.3l0.3,0.3l0.2,0.2L292.3,214 M298.7,193l-0.1-0.4 M298.2,192.9
	v-0.2 M298.2,192.7L298.2,192.7 M298.2,192.7l-0.6-0.1 M296,193l-0.1-0.1v-0.2 M297.6,192.8v0.1 M295.9,192.6L295.9,192.6
	 M297.6,192.8l-0.1-0.3 M253.9,215.4h-0.1l-0.1-0.2 M256.1,213v0.1l0.1,0.1 M260.1,210.2l-0.1-0.1l-0.1-0.1 M263.5,207.3
	L263.5,207.3l0.1,0.1l0.1,0.1 M263.3,207.4l0.1,0.1v0.1 M277.4,199.5L277.4,199.5v-0.1v-0.1h-0.1 M272.2,201.9v0.1l0.1,0.1
	 M277.5,199.4v-0.1l-0.1-0.1 M281.6,197.3v0.1v0.1 M268.3,204.6l-0.1-0.1l-0.1-0.1 M272.1,201.9l0.1,0.1l0.1,0.1 M282.5,224.2
	L282.5,224.2h-0.2l-0.3-0.1l-0.4-0.2l-0.8-0.5 M281.3,217.8l0.1,0.3l0.3,0.5l0.3,0.6l0.3,0.5l0.4,0.4l0.3,0.5l0.3,0.3l0.4,0.4
	l0.3,0.2l0.2,0.1 M290.6,217.9l-0.1-0.1l-0.3-0.2l-0.3-0.2l-0.3-0.4l-0.4-0.4l-0.3-0.4 M290.2,217.5l0.5,0.4l0.3,0.3l0.4,0.1
	l0.3,0.1l0.1-0.1 M281.1,218l0.2,0.4l0.2,0.5l0.4,0.5l0.3,0.5l0.3,0.5l0.4,0.4l0.3,0.4l0.3,0.3l0.3,0.2l0.2,0.1l0.2,0.1l0.2-0.1
	 M285.3,222.6h-0.2l-0.3-0.1l-0.4-0.3l-0.4-0.3l-0.1-0.1 M292.4,213l0.2,0.3l0.1,0.4l0.1,0.2v0.2v0.2h-0.2l-0.1-0.1l-0.2-0.1
	l-0.2-0.2l-0.3-0.3l-0.2-0.4l-0.2-0.3l-0.2-0.4l-0.2-0.3l-0.1-0.3v-0.3v-0.1l0.1-0.1h0.1l0.2,0.1l0.2,0.2l0.2,0.2l0.3,0.4l0.2,0.3
	L292.4,213 M292.7,211.3l0.1,0.1l1.1,2.6 M292.5,215.8l0.4,0.4l0.4,0.3l0.3,0.1l0.3,0.1l0.2-0.1l0.1-0.2l0.1-0.4l-0.1-0.4l-0.1-0.5
	l-0.2-0.6l-0.1-0.3 M293.9,214L293.9,214 M289.9,211.4l-3.1-0.6 M290,210.5l-0.1,0.1l-0.1,0.2v0.2l0.1,0.2v0.1 M273.5,217.9
	L273.5,217.9h0.1h0.5 M274.2,217.9l0.8,0.3l0.2,0.1 M280.8,223.4l-1.7-1.7l-2-1.8l-2-1.7 M280.8,223.4l0.4-0.2l0.3-0.2l0.3-0.1
	l0.4-0.2l0.3-0.2l0.3-0.2l0.3-0.1l0.4-0.2 M283.7,221.8l-2.6-2.5 M281.1,219.3l-0.2-0.3l-0.1-0.3l0.1-0.4l0.3-0.3l0.2-0.2
	 M281.5,217.7l2.1-1.5l2.1-1.2 M285.6,215l0.4-0.2l0.5-0.1l0.4,0.1l0.4,0.1l0.2,0.2 M287.6,215.1l2.6,2.4 M290.2,217.5l0.3-0.1
	l0.3-0.2l0.2-0.2l0.3-0.2l0.2-0.2l0.3-0.2l0.2-0.2l0.3-0.2 M286.8,210.7l1.4,1.1l1.4,1.3l2.9,2.6 M272.6,218.2L272.6,218.2l-0.2,0.1
	l-0.6,0.3 M274.3,213.1L274.3,213.1l-0.1,0.1l-0.8,0.6 M255.2,225.2l-0.1-0.3l-0.3-0.4 M254.7,224.2l0.1,0.2 M270.7,219.7l0.3-0.4
	l0.4-0.4l0.2-0.1 M273.4,213.8l-0.9,0.9l-0.2,0.2 M267.4,221.7v0.3l-0.1,0.3l-0.2,0.4l-0.2,0.4l-0.2,0.3 M266.6,223.6l-1.2,1.9
	 M270.7,219.7l-1.6,2l-1.6,2.1l-2.8,4.2 M260.4,221.3v0.1l-0.1,0.3l0.1,0.4l0.1,0.3l0.2,0.3l0.4,0.2l0.3,0.2h0.4l0.4-0.1l0.3-0.1
	l0.3-0.2l0.2-0.3v-0.2 M290.1,210.5H290 M299.5,202.1l0.2-0.3l0.4-0.7l0.3-0.7l0.3-0.6l0.1-0.5v-0.4v-0.4l-0.1-0.4l-0.2-0.3
	l-0.3-0.3l-0.4-0.2l-0.5-0.2l-0.6-0.1l-0.7-0.1h-0.8h-0.4 M256.8,225.9L256.8,225.9 M255,220v0.1v0.2v0.2v0.2 M264.1,218.2v0.1v0.2
	l0.1,0.1v0.2v0.1 M256.8,225.9l0.9,0.6l0.8,0.4l0.9,0.3l0.8,0.1h0.9l1.1-0.1l0.8-0.4l0.8-0.5l0.7-0.5l0.5-0.7 M257.8,224.6l-0.2,0.1
	l-0.1,0.2l-0.1,0.1l-0.1,0.2l-0.1,0.1l-0.1,0.2l-0.1,0.1l-0.1,0.2 M253.5,220.4l-0.4-0.5l-0.1-0.1v-0.1v-0.1v-0.1 M251.2,224.4
	L251.2,224.4v0.1l0.2,0.1l0.3,0.3l0.1,0.1 M251.8,225l2.1,2.1l0.3,0.3 M256.6,225.7l-0.9-0.8l-0.5-0.3l-0.5-0.3l-0.4-0.2l-0.4-0.1
	h-0.3h-0.2l-0.2,0.2v0.2v0.3l0.1,0.3l0.2,0.3l0.2,0.4l0.3,0.4l0.3,0.5l0.2,0.2 M256.8,225.9l-0.2-0.2 M257.8,224.6l-0.2,0.1
	l-0.1,0.2l-0.1,0.1l-0.1,0.2l-0.1,0.1l-0.1,0.2l-0.1,0.1l-0.1,0.2 M263.5,220.9l0.2,0.4v0.4v0.4l-0.2,0.3l-0.3,0.4l-0.3,0.2
	l-0.4,0.1l-0.4,0.1l-0.4-0.1l-0.4-0.1l-0.4-0.3l-0.3-0.3l-0.1-0.3l-0.1-0.4v-0.4l0.1-0.4l0.2-0.4l0.3-0.2l0.4-0.2l0.4-0.1h0.4
	l0.4,0.1l0.4,0.2l0.3,0.3L263.5,220.9 M264.2,218.9l-4.8,0.9l-3.5,0.8l-1,0.1 M255,220.7l-1-0.3l-0.5-0.1 M257.8,224.6l-2.3-2.2
	l-2.1-2 M257.8,224.6L257.8,224.6 M257.8,224.6l0.9,0.7l0.8,0.3l0.8,0.3l0.9,0.1h0.9l0.9-0.1l0.9-0.2l0.8-0.5l0.8-0.5l0.9-1.1
	 M266.1,223.5l2-2.7l2.1-3l2.3-2.9 M272.3,214.9l-8.1,4 M298.2,201.8L298.2,201.8 M275.5,212.4L275.5,212.4l0.1-0.1l0.6-0.4
	 M293.5,200.7l-0.2-0.1l-0.4-0.1l-0.4-0.1h-0.1 M277.5,211.6h-0.4l-0.5,0.2l-0.3,0.1 M275.9,212.2l-0.4,0.2l-0.4,0.2l-0.3,0.3
	l-0.3,0.2l-0.3,0.2l-0.2,0.2l-0.1,0.2v0.1l0.1,0.1h0.2h0.2l0.3-0.1l0.4-0.1l0.4-0.2l0.3-0.2l0.4-0.2l0.4-0.2l0.3-0.2l0.3-0.2
	l0.1-0.2l0.1-0.2V212v-0.1h-0.2H277l-0.4,0.1l-0.3,0.1L275.9,212.2 M274.5,216.2l-0.4,0.2l-0.3,0.2l-0.4,0.3l-0.3,0.2l-0.3,0.2
	l-0.2,0.2v0.2l-0.1,0.1l0.1,0.1h0.2h0.2l0.3-0.1l0.4-0.1l0.4-0.2l0.4-0.2l0.4-0.2l0.3-0.2l0.3-0.2l0.3-0.3l0.2-0.2l0.1-0.1V216
	l-0.1-0.1h-0.2h-0.2h-0.3l-0.4,0.2L274.5,216.2 M282.3,211.2L282.3,211.2l-0.1,0.2v0.1l0.1,0.1h0.2h0.2l0.3-0.1l0.4-0.1l0.4-0.2
	 M290.1,210.5l0.2-0.2 M275.5,212.4l6.2-5.7 M264.1,218.2l10.2-5 M268.4,222.6l0.6-0.2l1.1-0.4l1.2-0.5l1.1-0.5l1.3-0.5l1.2-0.6
	l1.2-0.6h0.2 M285.7,208l0.2-0.1l0.2-0.2l0.1-0.3l0.1-0.3v-0.2 M286,205.7l-0.1-0.3l-0.3-0.2l-0.2-0.1l-0.3-0.1l-0.1,0.1
	 M293.5,199.1l-0.3-0.2l-0.5-0.4 M293.5,199.1l0.4,0.4l0.3,0.5l0.3,1 M290.7,203.8L290.7,203.8 M281.8,206.7h0.1h0.2l0.2,0.1
	l0.1,0.2 M286.3,200.2L286.3,200.2l-0.2-0.1H286l-0.2-0.1h-0.2 M290.7,203.4v0.3 M298.2,201.8l-0.9-3l-0.9-2.9 M296.4,195.9
	l-0.1-0.6v-0.1V195l0.1-0.1v-0.1 M285.8,198L285.8,198h0.1l0.1,0.1l0.2,0.1l0.2,0.4v0.2 M290.7,203.8l-0.3,0.1l-0.2,0.1l-0.3,0.1
	l-0.3,0.1l-0.3,0.1l-0.3,0.1l-0.3,0.1l-0.3,0.1 M296.1,201.3l-0.2-0.6l-0.4-0.6l-0.4-0.5l-0.4-0.4l-0.5-0.3l-0.4-0.2l-0.5-0.1h-0.4
	l-0.4,0.1l-0.4,0.2l-0.4,0.3l-0.3,0.4l-0.2,0.6l-0.2,0.6l-0.1,0.7l-0.1,0.7l0.1,0.6l0.2,0.8 M298.2,201.8h-0.1 M290.9,204.9
	l-0.1-0.6l-0.1-0.4 M288.8,209.8l0.2-0.1l0.5-0.3l0.5-0.6l0.3-0.7l0.1-0.3 M290.7,203.8l-0.3,0.1l-0.2,0.1l-0.3,0.1l-0.3,0.1
	l-0.3,0.1l-0.3,0.1l-0.3,0.1l-0.3,0.1 M286,205.7l0.2,0.4l0.1,0.4v0.4v0.4l-0.2,0.3l-0.2,0.3l-0.2,0.2h-0.3h-0.3l-0.3-0.1l-0.3-0.2
	l-0.2-0.3l-0.2-0.4l-0.1-0.4l-0.1-0.4V206l0.1-0.4l0.2-0.3l0.2-0.2l0.3-0.2h0.3l0.3,0.1l0.3,0.2l0.2,0.2L286,205.7 M286.4,198.8
	l0.9,2.9l0.9,3 M286.4,198.8v0.5l-0.1,0.9 M286.3,200.2l-0.4,0.8l-1.4,2.5l-2.1,3.4 M282.4,207l-4.9,4.6 M277.5,211.6l1.8-0.3
	l1.9-0.1l3.8-0.1 M285.1,211.1l0.6-0.1l0.5-0.2l0.6-0.3l0.4-0.4l0.4-0.7l0.3-0.8l0.2-0.8v-0.9V206l-0.1-0.9l-0.1-0.4 M288.2,204.7
	L288.2,204.7 M255.1,220l4.3-0.9l4.7-0.9 M264.1,218.2L264.1,218.2 M281.7,206.7l-1.2,0.6l-1.3,0.6l-1.3,0.7l-1.2,0.7l-1.3,0.7
	l-1.2,0.7l-1.3,0.8l-1.1,0.7l-1.2,0.8l-1.1,0.8l-1.1,0.7l-1,0.8l-1,0.8l-0.9,0.7l-0.8,0.8l-0.8,0.7 M281.7,206.7h0.1 M281.8,206.7
	v-0.1l1.9-3.3l1.7-3.2 M296.4,194.8l-1.1,0.3l-1.1,0.1l-1.3,0.4l-1.3,0.4l-1.4,0.4l-1.4,0.5l-1.5,0.6l-1.5,0.6 M301.4,197.9v-0.2
	l0.1-0.5v-0.5v-0.4l-0.2-0.3l-0.3-0.3l-0.3-0.3l-0.5-0.2l-0.5-0.2l-0.7-0.1h-0.8h-0.8h-1 M251.8,225L251.8,225l-0.4-0.3l-0.2-0.3
	 M252.9,219.4l-0.6,0.8l-0.4,0.8l-0.4,0.7l-0.3,0.7l-0.1,0.7l-0.1,0.5l0.1,0.4l0.2,0.4 M295.6,193h0.9h0.9h0.7l0.6,0.1l0.5,0.2
	l0.5,0.2l0.3,0.2l0.3,0.3l0.1,0.2 M295.6,193h-0.2l-0.1-0.1l-0.1-0.1h-0.1 M284.9,195.7v0.1v0.1l-0.1,0.1l-0.2,0.1 M252,217.5
	l0.6-0.8l0.8-0.8l0.9-0.9l0.9-0.8l1-0.9l1.1-0.9l1.1-0.9l1.2-1l1.3-0.9l1.3-0.9l1.4-1l1.4-0.9l1.4-0.9l1.5-0.9l1.5-0.9l1.5-0.9
	l1.5-0.9l1.5-0.8l1.6-0.8l1.5-0.8l1.6-0.8l1.5-0.7l1.5-0.7l1.5-0.7l1.4-0.6 M252,217.5l-0.1,0.1h-0.1l-0.1-0.1v-0.1 M249.8,221.9
	l-0.3-0.6 M249.8,221.9l0.1,0.2l0.1,0.1v0.1 M252.9,219.4l0.7-0.8l0.8-0.8l0.8-0.9l1-0.9l1-0.9l1.1-0.9l1.1-0.9l1.2-0.9l1.3-0.9
	l1.3-1l1.4-0.9l1.4-1l1.4-0.9l1.5-0.9l1.5-0.9l1.5-0.9l1.6-0.9l1.5-0.8l1.6-0.8l1.5-0.8l1.6-0.8l1.5-0.7l1.5-0.7l1.5-0.7l1.5-0.6
	 M252.9,219.4l1.3,0.4l0.8,0.2 M255,220h0.1 M255.1,220l0.6-0.8l0.7-0.8l0.9-0.8l0.9-0.9l1-0.8l1.1-0.9l1.1-0.9l1.2-0.9l1.3-0.9
	l1.3-0.9l1.3-0.9l1.4-0.9l1.4-0.9l1.4-0.9l1.5-0.9l1.5-0.8l1.4-0.9l1.5-0.8l1.5-0.7l1.5-0.8l1.5-0.7l1.5-0.7l1.4-0.6l1.4-0.7
	 M285.5,200.1h0.1 M285.6,200l0.1-0.8l0.1-1.3 M170.7,494.1v0.1 M171,494.1v0.1 M125.3,482.1L125.3,482.1l-0.1,0.1v0.1v0.1
	 M125.2,482.6v4.8 M125.2,487.3v0.1 M410.1,431.1L410.1,431.1l0.1-0.1l0.1-0.1v-0.1v-0.1v-0.1 M409.9,425.1h-0.1 M410.3,430.5v-4.8
	 M177.3,499l233-68.4 M176.9,493.6l-0.4-0.1 M173,494v0.1 M177.3,499.2v-0.1V499 M177.3,499v-4.7 M176.9,494l-0.4-0.1 M173.3,494
	v0.1 M410.3,425.8v-0.1v-0.1v-0.1l-0.1-0.1v-0.1h-0.1l-0.1-0.1h-0.1 M176.9,493.6l233-68.4 M177.3,494.3v-0.2l-0.1-0.1v-0.1
	l-0.1-0.1l-0.1-0.1l-0.1-0.1 M177.3,494.3l233-68.6 M285.4,468.4l-1.5-0.3 M285.4,468.4l16.9-4.9 M285.4,468.4v-0.5 M302.3,463.5
	V463 M285.4,467.9l-0.3-0.1 M285.4,467.9l16.9-4.9 M302,462.8l0.3,0.1 M125.3,482.5L125.3,482.5 M125.2,485.6v-3.1 M125.2,491.1v0.3
	l0.2,0.3l0.3,0.4l0.4,0.3l0.5,0.3l0.7,0.3l0.8,0.3l0.9,0.3l1,0.3 M125.2,485.6v5.5 M129.9,488.5l-1-0.3L128,488l-0.8-0.3l-0.7-0.3
	L126,487l-0.4-0.3l-0.3-0.3l-0.2-0.4v-0.3 M129.9,488.5v5.5 M138.4,495.9l-8.5-1.9 M138.4,495.9v0.5 M138.4,496.4l6.5,1.5
	 M144.9,497.9v-0.7 M153.2,499.2l-8.4-1.9 M153.2,493.7l-23.3-5.3 M153.2,493.7v5.4 M153.2,499.2l1.1,0.3l1.2,0.2l1.2,0.1l1.3,0.2
	l1.3,0.1l1.4,0.1l1.4,0.1l1.4,0.1l1.5-0.1 M165.1,494.4h-1.4l-1.4-0.1l-1.3-0.1 M165.1,494.5l-1.5,0.1l-1.4,0.1l-1.4-0.1l-1.4-0.1
	l-1.3-0.2l-1.3-0.1l-1.2-0.2l-1.2-0.2l-1.1-0.2 M177.3,494.1l-0.7-0.1 M165.1,494.4l11.6-0.4 M165.1,494.4v0.1 M177.3,494.1v5.5
	 M165.1,494.5l12.3-0.4 M165.1,494.5v5.5 M165.1,500.1l12.3-0.4 M410.2,421.9l0.1,0.2v0.4 M410.3,422.5v3.1 M410.3,425.6
	L410.3,425.6 M410.3,431.2l-0.3-0.1 M410.3,430.6v0.5 M410.3,425.6L410.3,425.6 M129.1,493.7l1.7,1 M125.2,491.5L125.2,491.5
	 M125.2,490.8v0.6 M130.8,494.7l7.6,1.7 M138.4,496.4v-0.5 M130.8,494.1v0.6 M144.9,497.9l7.6,1.7 M144.9,497.9v-0.7 M177.3,500.2
	l16.1-4.7 M193.4,494.8v0.6 M152.5,499.6l13.5,0.9 M152.5,499v0.6 M165.9,500.6l11.4-0.4 M177.3,499.6v0.5 M165.9,500v0.5
	 M144.9,497.3l7.6,1.7 M165.9,500L165.9,500 M165.9,500l11.4-0.4 M177.3,499.6l16.1-4.8 M193.4,494.8h-0.3 M125.2,487.9L125.2,487.9
	 M125.2,487.9v2.9 M125.2,490.8L125.2,490.8 M130.8,494.1l7.6,1.8 M394.3,436.5l16.1-4.8 M410.3,431.2v0.5 M392.7,436.1l1.5,0.4
	 M394.3,435.9v0.6 M393.9,435.8l0.3,0.1 M394.3,435.9l16.1-4.7 M410.3,431.2v-2.9 M410.3,428.3L410.3,428.3 M375.8,153.6l0.5-0.1
	 M376.4,153.5l0.2-0.2 M375.8,153.5L375.8,153.5 M339.2,131.4l-1.4-0.2l-1.4,0.1l-1.3,0.3 M362.6,136.6l-23.4-5.3 M370.2,142.9
	l-0.9-1.3l-1.1-1.4L367,139l-1-0.8l-1.1-0.7l-1.2-0.5l-1.2-0.4 M199.5,186.7l1.1,0.6l1.1,0.8l1,1.1l1,1.1l1,1.4 M211.3,202.2
	L211.3,202.2l0.1-0.1l0.1-0.1 M211.3,202.7l0.1-0.1h0.2l0.1-0.2v-0.1l0.1-0.2v-0.2v-0.1 M375.8,153.5v0.2v0.2v0.2l-0.1,0.1l-0.1,0.1
	l-0.1,0.1h-0.1 M375.6,153.1l0.1,0.1v0.1l0.1,0.1v0.1 M210.8,202.1l0.8-0.2 M211.6,201.9l0.2-0.1 M211.8,201.8v-0.1 M204.5,191.6
	l-0.2,0.2 M210.8,202.1l-0.2-0.4 M211.2,201.9l-0.3,0.2 M370.2,142.9l-165.6,48.7 M211.2,201.9l-0.9-1.3l-0.8-1.4l-0.9-1.3l-0.9-1.3
	l-0.8-1.3L206,194l-0.8-1.3l-0.9-1.3 M211.2,201.9l0.6-0.2 M211.8,201.6l-0.2-0.4 M211.6,201.2l164-48.1 M375.6,153.1l0.2,0.4
	 M375.8,153.5l0.8-0.2 M370.2,142.9l0.8,1.4l0.9,1.3l0.8,1.3l0.8,1.3l0.9,1.3l0.8,1.3l0.9,1.4l0.8,1.3 M274.2,216.4v0.2 M273.3,217
	L273.3,217 M272.7,217.4h0.1l0.3-0.1l0.4-0.1l0.3-0.2l0.4-0.2l0.4-0.2l0.3-0.2l0.3-0.2l0.2-0.2 M273.3,217l0.9-0.4 M273.3,217
	L273.3,217 M274.2,216.6l0.6-0.6 M275.5,212.4l0.1,0.2 M274.7,213L274.7,213 M274.1,213.5h0.1l0.3-0.1l0.3-0.1l0.4-0.1l0.4-0.2
	l0.4-0.3l0.3-0.2l0.3-0.2l0.2-0.2 M275.6,212.7l0.6-0.6 M275.6,212.7l-0.9,0.4 M274.7,213L274.7,213 M135.2,238.8V257 M125.3,206.1
	v279.5 M129.9,488.3l-1-0.2l-0.9-0.3l-0.7-0.2l-0.7-0.3l-0.5-0.3l-0.4-0.4l-0.3-0.3l-0.1-0.3l-0.1-0.3 M135.2,257l13.1,3 M135.2,257
	l-0.3,0.1 M148.4,260.2v-18.3 M134.9,257.2l13.4,3 M134.9,238.7v18.4 M148.4,241.8l-13.4-3.1 M153.4,493.5l-23.4-5.3 M178,493.1
	L178,493.1l-0.1,0.1h-0.1l-0.2,0.1h-0.2h-0.2 M177.1,213.3h0.2h0.2l0.2-0.1h0.1l0.1-0.1 M164.5,494.3h-1.4h-1.3l-1.4-0.1l-1.3-0.1
	l-1.3-0.1l-1.2-0.2l-1.2-0.1l-1.1-0.2l-1-0.3 M176.5,493.9v-0.5 M177.1,493.3h-0.7 M177.1,493.3v-280 M177.1,213.3h-0.3
	 M176.5,493.9l-11.9,0.4 M410.2,424.9v0.4 M410.2,425.3L410.2,425.3 M410.2,144.7L410.2,144.7 M410.2,424.9h-0.1L410,425h-0.1
	l-0.2,0.1h-0.3h-0.2h-0.3l-0.1-0.1 M410.2,144.8v280.1 M409.5,145.1h0.2l0.2-0.1h0.1l0.1-0.1h0.1 M148.4,259.8l-0.3-0.1h-0.2
	 M139.3,243.7l-1.1,1.2 M142.6,252.1l-1.4,1.7 M140.1,242.7l-0.9,1 M139.3,243.7H139 M138.2,244.9l4.4,7.2 M142.6,252.1h-0.3
	 M138.2,244.9l-0.3,0.1 M141.2,253.8l5.8,2.5 M141.2,253.8h-0.3 M146.1,248.2l-1.2,1.3 M144.9,249.5l-0.3,0.1 M137.8,245l4.4,7.1
	 M138.9,243.7l-1.1,1.3 M140,242.4l-1.1,1.2 M144.6,249.7l-4.6-7.2 M146,248l-1.4,1.7 M147,256.5l-1-8.5 M140.9,253.8l6.1,2.7
	 M142.3,252.1l-1.4,1.7 M135.5,238.9v18.2 M145.1,190.1L145.1,190.1 M175,181.1v0.4 M192.1,185.4V185 M211.3,202.6l0.1,0.4
	 M211.4,203.1l-0.5,0.1 M211.3,202v0.1v0.5 M211.3,202.6l-0.4,0.1 M145.1,190.1l-14.8,6 M130.4,196.1l-0.1,0.9 M129.7,207.9h-0.1
	 M169.8,182.3v-0.4 M129.7,207.9l0.1,0.1h0.1h0.2l0.1,0.1h0.1h0.1l0.2,0.1h0.1 M129.7,206.9v1 M129.6,206.8L129.6,206.8
	 M129.6,207.9l-1.1-0.4l-1.1-0.3l-1-0.4l-0.8-0.4l-0.7-0.5l-0.5-0.4l-0.3-0.4l-0.2-0.5l-0.1-0.4 M129.6,207.9v-0.1 M199.6,186.9
	l0.9,0.6l0.9,0.7l1,0.9l0.9,0.9l0.8,0.9l0.8,1.2 M199.6,187.6v0.1l-0.1,0.3l-0.2,0.3l-0.3,0.2l-0.4,0.1 M133.3,199l-0.4,0.4
	l-0.5,0.6l-0.5,0.8l-0.5,0.9l-0.4,0.9l-0.4,0.9l-0.3,1.1l-0.2,1.1L130,207 M131.4,207.3l-0.5-0.2l-0.6-0.1l-0.5-0.1 M134,199.3
	l-0.8,0.5l-0.8,0.6l-0.3,0.4 M197.9,188.9l-0.3,0.8l-0.5,0.8l-0.7,0.8l-0.6,0.8L195,193l-0.9,1l-1,1l-1,1 M132.2,200.7l0.7-0.2
	 M131.8,204.9l-0.4-0.7l-0.2-1l0.2-1l0.3-0.7l0.3-0.7l0.2-0.1 M179.6,197.8l1.5,0.3 M188,193.6l0.4-0.3l0.4-0.2 M181.1,198.1
	L181.1,198.1 M181.1,198.1l6.8-4.5 M181.1,198.1l0.5,0.1l0.5,0.2l0.5,0.2l0.5,0.3l0.5,0.3l0.4,0.4l0.5,0.4l0.4,0.4 M188,193.6
	l0.5,0.1l0.5,0.1l0.6,0.3l0.5,0.2l0.4,0.4l0.5,0.3l0.4,0.4l0.5,0.5 M198.1,187.5h0.1h0.1v0.1v0.1h0.1v0.1 M198.5,188.8v-1
	 M198.5,187.8L174,199.7 M179.6,197.8L179.6,197.8 M179.6,197.8l9.2-4.8 M188.8,193l3.6-1.8l1.7-0.8l1.8-0.8l2-0.7 M198.5,188.8
	l-0.5,0.1 M133.1,205.4l-0.3,0.1 M130.8,208.2l20.4,4.6 M131.4,207.2v0.1 M131.4,207.3l-0.3,0.7l-0.3,0.2 M175.3,181.8l16.3,3.7
	 M191.5,185.4l0.3,0.1l0.3,0.1l0.2,0.2l0.1,0.2l0.1,0.2l-0.1,0.2l-0.1,0.1 M157.9,203.3l-0.1,0.1h-0.5l-0.6,0.1h-0.5h-0.6h-0.5
	l-0.6-0.1 M154.2,203.5l-16.3-3.7 M137.9,199.9l-0.4-0.1l-0.3-0.2l-0.2-0.1l-0.1-0.2v-0.2l0.1-0.2l0.1-0.2l0.3-0.2l0.5-0.3
	 M137.9,198l32.1-15.5 M170.1,182.5l0.4-0.2l0.5-0.2l0.5-0.1l0.6-0.1h0.5l0.6-0.1h0.5l0.5,0.1l0.8,0.1 M193.1,185.9l-0.1-0.1
	l-0.2-0.1l-0.3-0.2l-0.3-0.1 M175,181.6l17,3.9 M175,181.6l-0.4-0.1h-0.5h-0.7h-0.6h-0.6l-0.7,0.1l-0.5,0.2l-0.5,0.1l-0.5,0.2
	 M134.2,199.7l35.7-17.4 M132.7,205.5l16.9,3.7 M132.7,205.5l-0.8-0.4l-0.2-0.2 M131.8,204.9L131.8,204.9l-0.2,1.1l-0.1,1.2
	 M150.5,211.4l-19.1-4.2 M151.2,212.8h0.2h0.1l0.1,0.1h0.2h0.1l0.1,0.1h0.2h0.1 M150.5,211.5l0.3,1l0.3,0.3 M152.6,213l-0.1-0.1
	h-0.1 M152.4,212.9v-1 M133.1,205.4l17,3.7 M132.9,200.5l0.1-0.1l0.2-0.1l0.1-0.1l0.2-0.1l0.1-0.1l0.2-0.1l0.1-0.1h0.2 M132.9,200.5
	l-0.5,0.7l-0.4,0.7l-0.2,0.5l-0.1,0.5v0.7l0.1,0.5l0.5,0.7l0.7,0.4l0.2,0.1 M150.1,209.1h0.8 M149.7,209.2l0.4-0.1 M150.9,209.2
	l-0.9,0.1l-0.3-0.1 M179.2,212.8l31.7-9.3 M210.8,203.1v0.3 M174,200.7v-1 M179.4,212.3l31.5-9.2 M210.2,200.8l0.3,0.5l0.2,0.5
	l0.1,0.5v0.7 M152.4,212l-0.7-0.2l-0.5-0.1l-0.7-0.2 M156.3,204.1l-0.9,0.6l-0.8,0.6l-0.3,0.4 M154.3,205.7l-0.5,0.7l-0.5,0.7
	l-0.4,0.6l-0.4,0.4l-0.4,0.4l-0.5,0.3l-0.5,0.3 M150.9,209.2L150.9,209.2l-0.2,1.1l-0.1,1.1 M150.5,211.5v-0.1 M152.4,212L152.4,212
	h0.1h0.1h0.1l0.1-0.1 M157.3,204.3L157.3,204.3v0.1h0.1v0.1v0.1v0.1 M152.4,212v-1.2l0.2-1.1l0.3-1.1l0.4-1.1l0.5-0.9l0.8-0.8
	l0.8-0.7l0.9-0.5l1-0.4 M159.4,203.8l0.1,0.1v0.1v0.1v0.1 M174,199.7l-1.6,0.7l-1.7,0.7l-2,0.7l-2,0.6l-0.5,0.1l-2.3,0.6l-2.2,0.5
	l-2.2,0.5 M173.7,199.4L173.7,199.4h0.1v0.1h0.1v0.1v0.1 M157.4,204.7l-0.9,0.2l-0.9,0.5l-0.8,0.6l-0.6,0.8l-0.5,0.9l-0.4,1
	l-0.2,1.1l-0.2,1.1v1 M152.8,211.8v0.1 M159.5,205.6v-0.9v-0.5 M159.5,204.2l-0.5,0.1l-1.6,0.4 M185.2,200.4l-0.4-0.4l-0.5-0.4
	l-0.4-0.4l-0.5-0.3l-0.5-0.3l-0.5-0.2l-0.5-0.1l-0.5-0.2 M179.4,212.3h-0.1h-0.1v0.1 M178.7,210.1l0.2,0.2l0.1,0.3l0.1,0.2l0.1,0.3
	v0.3l0.1,0.2v0.3v0.3 M169.8,213.9L169.8,213.9h0.1 M141.1,192.1l-1.2,0.7l-1.2,0.6l-1.1,0.8l-1,0.7l-1,0.8l-0.8,0.8l-0.7,0.9
	l-0.4,0.8 M133.8,198.1l-0.2,0.4l-0.3,0.4 M133.3,199l0.2,0.1l0.3,0.1l0.2,0.1 M134,199.3l35.8-17.4 M169.8,181.9l0.5-0.2l0.5-0.2
	l0.5-0.1l0.7-0.1h0.6h0.6h0.7h0.5l0.4,0.1 M175,181.1l17,3.9 M192.1,185l0.3,0.1l0.3,0.1l0.2,0.2l0.1,0.2v0.2l-0.1,0.2l-0.2,0.3
	l-0.3,0.2l-0.3,0.2 M156.3,204.1l35.8-17.3 M156.3,204.1l0.3,0.1l0.3,0.1h0.3 M157.3,204.3l1.1-0.3l1.1-0.3 M159.4,203.8l2.2-0.4
	l2.1-0.5l2.1-0.5l2.1-0.6l1.5-0.6l1.6-0.6l1.4-0.6l1.4-0.6 M173.7,199.4l24.4-11.9 M198.1,187.5l0.4-0.2l0.3-0.2l0.2-0.3v-0.2v-0.2
	l-0.2-0.2l-0.3-0.2l-0.4-0.1 M198.1,185.7l-27.7-6.2 M170.5,179.6l-0.5-0.1h-0.5h-0.7h-0.7l-0.7,0.1l-0.7,0.1l-0.5,0.1l-0.5,0.2
	 M165.7,180.1L141.1,192 M174.8,213.6l0.6-0.1h0.5l0.5-0.1h0.6l0.4-0.1l0.5-0.1l0.4-0.1l0.5-0.1 M179.2,212.4v0.3 M179.2,212.4
	L179.2,212.4l-0.7-0.2h-0.9l-1,0.4 M178.7,210.1l31.5-9.2 M204.7,192.2l5.5,8.6 M192.2,195.9l12.5-3.7 M192.2,195.9l-6.9,4.5
	 M185.2,200.4l-10.5,7.1 M169.9,213.8l2.6-0.2 M169.9,213.8L169.9,213.8 M170.6,205.1l10.5-7.1 M181.1,198.1l-1.5-0.3 M174,200.7
	l5.6-2.9 M174,200.7l-1.6,0.8l-1.7,0.8l-2,0.7l-2,0.7l-1.7,0.5l-1.7,0.5l-1.8,0.5l-1.8,0.4 M159.5,205.6l-1.8,0.5 M174.7,207.5
	l-0.4-0.4l-0.4-0.4l-0.5-0.4l-0.5-0.3l-0.5-0.3l-0.5-0.2l-0.5-0.2l-0.5-0.1 M174.7,207.5L174.7,207.5v0.1v0.1l0.1,0.1h0.1
	 M174.8,213.6H174h-0.8h-0.8 M176.7,212.6l-1.5,0.8l-0.3,0.1 M176.7,212.6l0.4-0.7l0.3-0.6l0.4-0.6l0.4-0.4l0.4-0.3 M174.9,207.8
	l3.8,2.3 M174.9,207.8l-0.2,0.7l-0.3,0.7l-0.3,0.7l-0.3,0.7l-0.3,0.8L173,212l-0.4,0.7l-0.4,0.8 M172.6,213.6l-0.4-0.2 M172.1,213.4
	l-2.2,0.4 M172.1,213.4l-0.2-0.9l-0.1-1l-0.2-0.9l-0.1-1l-0.2-0.9l-0.1-0.9L171,207l-0.1-0.6l-0.1-0.6l-0.1-0.4V205 M168.4,205.5
	l2.2-0.4 M169.8,213.9L168,214l-1.7,0.1l-1.8,0.1h-1.7H161l-1.8-0.2l-1.7-0.2l-1.7-0.2l-1.5-0.3l-1.4-0.2 M169.9,213.8h-0.1
	 M168.4,205.5l0.1,0.4l0.1,0.4l0.1,0.6l0.2,0.6l0.1,0.8l0.1,0.9l0.2,0.9l0.1,0.9l0.1,1l0.1,1l0.2,0.9 M157.7,206.1l1.2,0.1l1.3,0.1
	h1.3h1.3h1.4l1.4-0.2l1.4-0.2l1.4-0.3 M152.8,212v-0.3l0.3-1.1l0.5-1.1l0.5-1l0.8-0.9l0.9-0.6l0.9-0.6l1-0.3 M152.8,212l-0.1,0.5
	l-0.1,0.5 M378.2,127L378.2,127 M379.5,127.1l-0.3-0.1l-1-0.1 M381.1,127.6l0.5,0.4l0.1,0.1 M401.4,132.2h0.8l0.3,0.1 M402.5,132.7
	h-0.2L402,133 M402.2,132.4h0.1h0.1v0.1l0.1,0.1v0.1 M361.7,127.3L361.7,127.3 M411.5,142.9L411.5,142.9L411.5,142.9 M411.3,143.6
	l0.2-0.7 M411.5,142.9L411.5,142.9 M380.2,127.8L380.2,127.8l-0.2-0.1h-0.1h-0.2h-0.1h-0.2h-0.1 M379.2,127.2h0.8l0.8,0.2l0.4,0.2
	 M411.5,142.3l0.1,0.1l-0.1,0.4 M402.4,134.2l0.4-0.1l0.3,0.1 M411.5,142.8L411.5,142.8 M337.2,129.8L337.2,129.8 M411.5,142.9
	l-0.2,0.2 M405.2,136l1,0.2l0.9,0.2l0.9,0.4l0.8,0.5l0.8,0.6l0.5,0.6l0.5,0.8l0.4,0.7l0.3,0.9l0.1,1l0.1,1 M402,134.5v-0.9V133
	 M405.1,136.3l0.9,0.1l0.9,0.3l0.9,0.4l0.8,0.5l0.8,0.5l0.6,0.7l0.4,0.7l0.4,0.9l0.3,0.9l0.1,1l0.1,0.9 M402,133l-0.6,0.5l-1,0.5
	l-1.3,0.4h-0.3l-1.3,0.3l-1.4,0.3l-1.5,0.2 M401.6,132.8h0.1l0.1,0.1l0.1,0.1 M343.4,130.9v0.4 M408.5,145.4l0.4-0.1l0.4-0.2
	l0.3-0.1l0.3-0.1l0.3-0.1l0.2-0.2l0.2-0.1l0.2-0.2 M410.2,144.1h-0.4l-0.6,0.3l-0.6,0.6 M411.3,143.6l-0.1,0.2l-0.1,0.2l-0.1,0.1
	 M407.6,142.9l0.6,0.1l0.5,0.1l0.5,0.3l0.5,0.3l0.3,0.4 M411,144.1l-0.8-0.1 M411.3,143.2v0.4 M407.9,139.4l0.7,0.4l0.6,0.3l0.5,0.4
	l0.5,0.5l0.4,0.5l0.2,0.5l0.2,0.5l0.1,0.5 M388.8,136.3l1.5,0.3 M405.1,136.3l0.1-0.3 M405.2,136l0.1-0.2l-0.1-0.2l-0.1-0.2
	l-0.3-0.2l-0.4-0.2l-0.5-0.3l-0.6-0.2l-0.8-0.2 M402.4,134.2l-0.3,0.1l-0.1,0.1 M402,134.5l-0.4,0.2l-0.7,0.2l-0.9,0.3l-1,0.3
	l-1,0.1l-1,0.1l-1.3,0.2h-1.3 M390.4,136.6L390.4,136.6 M393,139.5l-0.2-0.5l-0.3-0.5l-0.2-0.4l-0.3-0.4l-0.4-0.3l-0.3-0.2L391,137
	l-0.4-0.2 M407.7,139.1l-0.3-0.5l-0.2-0.4l-0.3-0.4l-0.3-0.4l-0.3-0.3l-0.3-0.3l-0.4-0.2l-0.3-0.1 M390.4,136.6l14.8-0.3
	 M390.4,136.6l-1.5-0.3 M393,139.5l-0.2-0.5l-0.3-0.5l-0.3-0.4l-0.3-0.4l-0.3-0.3l-0.3-0.2l-0.4-0.2l-0.3-0.2 M380.8,137l9.5-0.3
	 M343,131.6h0.2l0.2-0.1h0.5 M343.9,131.4l32.1-3.3 M376,128.1h0.4h0.5h0.5h0.6l0.7,0.1h0.5l0.5,0.1l0.6,0.1l0.7,0.1 M381.3,128.4
	l16.3,3.7 M397.5,132l0.4,0.1l0.2,0.1l0.2,0.1l0.2,0.1 M379.2,127.7l-35.8,3.6 M343.4,131.3H343l-0.3,0.1 M394.3,134.5l0.1,0.1h0.1
	v0.1v0.1v0.1 M337.3,130.6h-0.1l-0.1,0.1v0.1H337v0.1 M394.5,135.9v-1 M394.5,135l-24.6,2.5 M379.6,137l9.2-0.6 M388.8,136.3
	L388.8,136.3 M394.5,135.9l-5.6,0.4 M365,136.7h-0.1v0.1h-0.1v0.1l-0.1,0.1 M369.8,137L369.8,137l0.1,0.1v0.1v0.1h0.1l-0.1,0.1
	 M370.4,138.3l1.6-0.4l3.1-0.5l3.1-0.3h1.3 M380.8,137l0.3,0.1l0.4,0.2l0.3,0.3l0.3,0.3l0.3,0.4l0.3,0.4l0.2,0.4l0.3,0.5 M379.6,137
	h0.5h0.6 M369.9,137.4v1 M369.9,137.4h-0.4H369h-0.6h-0.6l-0.6-0.1l-0.5-0.1l-0.6-0.1h-0.5l-0.5-0.2 M394.3,134.5h1.3l1.2-0.3
	l1.1-0.1l1-0.3l1-0.3l0.8-0.2l0.6-0.3l0.4-0.2 M401.6,132.8l0.2-0.2l0.3-0.1 M402.2,132.4l-0.2-0.1l-0.3-0.1h-0.2 M401.4,132.2
	l-35.8,3.6 M365.6,135.9h-0.5h-0.5H364l-0.5-0.1h-0.7l-0.6-0.1l-0.6-0.1l-0.5-0.1l-0.4-0.1 M360.4,135.5l-17-3.9 M343.4,131.6
	l-0.4-0.1l-0.3-0.1l-0.2-0.1l-0.1-0.1v-0.1l0.1-0.1h0.2l0.3-0.1h0.4 M379.2,127.2l-35.8,3.6 M379.2,127.2l-0.3-0.1l-0.3-0.1
	l-0.3-0.1 M378.2,127h-1.1l-1.1-0.1 M376,126.9h-2.2h-2.1l-2.1,0.1h-2.1l-1.6,0.1l-1.5,0.2H363l-1.4,0.2 M361.7,127.3l-24.5,2.5
	 M337.2,129.8h-0.3l-0.3,0.1l-0.2,0.1l-0.1,0.1l0.1,0.1l0.2,0.1l0.3,0.1l0.4,0.1 M337.3,130.6l27.7,6.2 M365,136.7l0.4,0.1l0.6,0.1
	l0.7,0.1l0.7,0.1h0.6l0.7,0.1h0.5l0.5-0.1 M369.8,137l24.5-2.5 M383.4,139.7l-1.8-0.2l-1.8-0.2l-1.6-0.2l-1.7-0.3l-1.5-0.2l-1.6-0.2
	l-1.4-0.2l-1.4-0.2 M369.9,138.4l0.5-0.1 M369.9,138.4l-0.9,0.1l-1.1-0.1l-1.2-0.3l-0.5-0.2l-0.6-0.2l-0.4-0.2 M408.5,145v0.4
	 M408.5,145h-0.1v0.1h-0.1 M376.8,154.7l31.7-9.2 M375.6,154.8l0.8-0.2 M408.3,145.1l-31.5,9.2 M408.3,145.1v-0.3l-0.1-0.3v-0.2
	l-0.1-0.3l-0.1-0.3l-0.1-0.2l-0.1-0.3l-0.1-0.2 M375.7,154.3l0.6-0.1 M407.9,139.4L407.9,139.4L407.9,139.4l-0.1-0.2l-0.1-0.1
	 M407.7,139.1l-14.8,0.4 M393,139.5l-9.5,0.2 M383.4,139.7l-12.6,3.7 M407.6,142.9l-31.5,9.2 M407.6,142.9l0.3-3.5 M364.7,137.4
	v-0.3 M376.4,154.1l-0.1-0.6 M376.4,154.6v-0.4 M376.4,154.6l0.4,0.1 M376.8,154.3v0.3 M376.8,154.3l-0.1-0.6l-0.1-0.5l-0.1-0.5
	l-0.3-0.5 M376.2,152.1l-5.3-8.7 M370.8,143.4l-0.8-1.1l-0.8-1.1l-0.9-0.9l-0.9-0.8l-0.4-0.4 M374.9,154.6l0.8,0.2 M375.6,154.8
	v-0.4 M360.1,134.4v-1.3 M360.1,133.1L359,133 M359,133l0.1,1.1 M359.1,134.1l-3.7-0.2 M355.4,133.9l6.8,1.8 M363.9,135.8l6.6-1
	 M370.5,134.8l-3.7-0.2 M366.8,134.6l-0.1-1.1 M366.7,133.5l-1-0.1 M365.7,133.5v1.3 M365.7,134.8l2.6,0.1 M368.3,134.9l-5.3,0.8
	 M363,135.7l-5.5-1.5 M357.5,134.2l2.6,0.2 M386.2,130.1L386.2,130.1h-0.1H386 M382.1,130.2h-0.4h-0.4l-0.3,0.1 M389.7,130.9
	L389.7,130.9 M384.1,130.5L384.1,130.5H384 M380.9,130.4h-0.1 M380.9,130.3L380.9,130.3 M389.7,130.9l-0.3,0.1h-0.5h-0.4l-0.3-0.1
	 M386.8,131h0.4h0.3 M386,131h0.1h0.1 M387.5,131l0.1,0.1v0.1 M388.3,131.2l-0.1,0.1 M386.2,131L386.2,131 M386.5,131.2h0.2l0.1-0.1
	V131 M385.7,131.4L385.7,131.4L385.7,131.4 M385.4,131.4h-0.2 M388.2,131.3H388l-0.3,0.1h-0.3l-0.4,0.1h-0.2 M380.6,131l-0.1,0.1
	 M379.9,131L379.9,131l0.1,0.1l0.1,0.1 M386.7,131.5h-0.3l-0.4-0.1h-0.3l-0.2-0.1 M381.7,131.3h0.4h0.4h0.8 M385.2,131.5h-0.1
	l-0.1,0.1 M380.2,131.2h0.3l0.4,0.1h0.3h0.4 M372.8,131.3l-0.2-0.1 M378.2,132.3h-0.3h-0.3 M377.6,132.3l-0.3-0.1H377 M384.8,131.1
	h-0.4H384 M386,131h-0.2h-0.3h-0.6 M386.2,131H386 M385.9,131.1h0.2V131h0.1 M384.5,131.3h0.3l0.5-0.1h0.3h0.2 M384,131.1l0.2,0.1
	l0.3,0.1 M385.7,131.3L385.7,131.3L385.7,131.3 M386.5,131.2h-0.4h-0.3 M386.6,131.2h-0.1 M387.5,131h-0.4h-0.3 M387.5,131.2h0.1
	v-0.1l-0.1-0.1 M386.2,131.4h0.2l0.2-0.1h0.3l0.4-0.1h0.1 M385.8,131.4h0.1l0.2,0.1h0.1 M385.7,131.4L385.7,131.4h0.1 M383.3,131.2
	h-0.5h-0.4h-0.3h-0.3 M384.3,131.4l-1-0.2 M384.4,131.4L384.4,131.4h-0.1 M384.3,131.4L384.3,131.4h0.1 M377.7,132.1l6.6-0.7
	 M377.6,132.1L377.6,132.1h0.1 M377.5,132.1h0.1 M377.5,132.1L377.5,132.1 M373.4,131.1l4,0.9 M373.4,131.1h-0.1H373.4 M380.1,130.5
	l-6.6,0.7 M380.2,130.5L380.2,130.5h-0.1 M380.2,130.5L380.2,130.5 M381.5,130.7l-1.3-0.3 M380.2,130.9h0.1h0.4l0.8-0.1
	 M380.2,131.2l-0.2-0.1V131l0.2-0.1 M381.7,131.3h-0.3h-0.3h-0.3l-0.3-0.1h-0.2 M385.4,131.4L385.4,131.4 M385.4,131.4l0.3,0.1h0.4
	l0.3,0.1h0.2 M386.7,131.5h0.2l0.2-0.1h0.4l0.4-0.1h0.2 M388.2,131.3l0.1-0.1h-0.1l-0.1-0.2 M388.1,131l0.4,0.1h0.5l0.4-0.1h0.2
	 M389.7,130.9L389.7,130.9l-0.1-0.1 M389.6,130.8h-0.1 M389.5,130.8h-0.1h-0.2h-0.1 M389.1,130.8H389l-0.2,0.1h-0.2l-0.9-0.1
	 M387.6,130.9h-0.2H387h-0.4h-0.5h-0.4 M385.6,130.9h-0.1h-0.3h-0.3h-0.4 M384.4,131h-0.9l-1,0.1h-0.6h-0.5 M381.4,131.2h-0.1h-0.1
	H381h-0.2v-0.1 M380.7,131.1h-0.1h-0.1l0.1-0.1 M380.6,131h0.2h0.3l0.4-0.1h0.5l0.5-0.1h0.4l0.4-0.1h0.3h0.1 M384,130.6h0.1H384
	L384,130.6 M384,130.4h-0.1h-0.2h-0.1 M383.5,130.5h-0.1h-0.1l-0.4,0.1h-0.4l-0.5,0.1 M381.9,130.7l-1.1-0.3 M380.8,130.4l0.1-0.1
	 M380.9,130.3l0.2-0.1h0.3h0.7 M382.1,130.2h0.3h0.4h0.9 M383.7,130.1l1.2,0.1h1.1 M386,130.2h0.1h0.1V130 M386.2,130h-0.1
	 M386.1,130H386h-0.1h-0.1 M385.8,130.1l-1.3-0.1h-1 M383.5,130H383h-0.5H382 M381.9,130.1h-0.6h-0.4h-0.3l-0.1,0.1 M380.4,130.2
	l-0.1,0.1 M380.3,130.4h-0.4h-0.3 M379.5,130.4l-6.7,0.7 M372.8,131h-0.2v0.1h0.1l0.1,0.1 M372.8,131.3l4.1,0.9 M376.9,132.2
	L376.9,132.2 M376.9,132.2h0.3l0.3,0.1 M377.6,132.3h0.4h0.2 M378.2,132.3l6.7-0.7 M384.9,131.6l0.2-0.1 M385.2,131.5l-0.1-0.1H385
	 M384.9,131.4h0.1h0.1 M385.2,131.4h0.1h0.1 M368.1,130.5l0.1-0.2l0.1-0.1l0.3-0.1l0.3-0.2l0.5-0.1l0.5-0.1h0.6l0.8-0.1
	 M371.5,129.4h0.9l0.9-0.1h1h1l1.1,0.1h1.1l1.1,0.1l1.2,0.1l1.1,0.1l1.1,0.1l1.1,0.2l1.1,0.1l1.1,0.2l1,0.1l0.9,0.2l0.9,0.2l0.9,0.2
	l0.6,0.2l0.7,0.2l0.4,0.2l0.4,0.2l0.3,0.2l0.2,0.2l0.1,0.1v0.1 M371.5,129.4h-0.8l-0.6,0.1l-0.5,0.1l-0.5,0.1l-0.3,0.2l-0.3,0.1
	l-0.1,0.1l-0.1,0.2v0.2l0.2,0.2l0.2,0.1l0.4,0.2l0.4,0.2l0.5,0.2l0.6,0.2l0.8,0.2l0.9,0.2l0.9,0.2l1,0.2l1,0.1l1.1,0.2l1.1,0.1
	l1.1,0.2l1.1,0.1l1.2,0.1l1.1,0.1h1.1l1.1,0.1h1h1.1h0.9h0.9l0.8-0.1h0.8l0.6-0.1l0.5-0.1l0.4-0.2l0.3-0.1l0.2-0.1l0.1-0.2v-0.2
	l-0.1-0.1l-0.2-0.2l-0.3-0.2l-0.4-0.2l-0.4-0.2l-0.7-0.2L389,131l-0.9-0.2l-0.9-0.2l-0.9-0.2l-1-0.1l-1.1-0.2l-1-0.1l-1.2-0.2
	l-1.1-0.1l-1.1-0.1l-1.2-0.1l-1.1-0.1h-1.1l-1.1-0.1h-1h-1l-0.9,0.1H371.5 M392.2,132l-0.1,0.1l-0.1,0.2l-0.2,0.1l-0.3,0.2l-0.5,0.1
	l-0.5,0.1l-0.6,0.1h-0.8l-0.8,0.1h-0.9h-1h-1.1h-1h-1.2l-1.1-0.1l-1.2-0.1l-1.1-0.1l-1.2-0.1l-1.2-0.1l-1.1-0.2l-1.1-0.1L374,132
	l-1-0.2l-1-0.2l-0.9-0.1l-0.8-0.2l-0.8-0.2l-0.6-0.2l-0.5-0.2l-0.4-0.3l-0.3-0.1l-0.2-0.2l-0.2-0.2v-0.2 M370.9,129.3h-0.8l-0.7,0.1
	l-0.6,0.1l-0.5,0.1l-0.3,0.1l-0.3,0.2l-0.2,0.1l-0.1,0.2v0.2l0.2,0.2l0.2,0.1l0.3,0.2l0.4,0.2l0.5,0.3l0.6,0.2l0.8,0.2l0.8,0.2
	l0.9,0.1l1,0.2l1,0.2l1.1,0.2l1.1,0.1l1.1,0.2l1.2,0.1l1.2,0.1l1.1,0.1l1.2,0.1l1.1,0.1h1.2h1h1.1h1h0.9l0.8-0.1h0.8l0.6-0.1
	l0.5-0.1l0.5-0.1l0.3-0.2l0.2-0.1l0.1-0.2l0.1-0.1l-0.1-0.2l-0.2-0.2l-0.2-0.2l-0.4-0.2l-0.4-0.2l-0.6-0.2l-0.6-0.2l-0.8-0.2
	l-0.9-0.2L387,130l-1-0.2l-1.1-0.2l-1.1-0.1l-1.1-0.2l-1.2-0.1l-1.1-0.1l-1.2-0.1l-1.2-0.1l-1.1-0.1l-1.2-0.1h-1.1h-1h-1h-1
	L370.9,129.3 M375.3,131.5L375.3,131.5 M376.8,131.7L376.8,131.7L376.8,131.7l-0.1,0.1 M376.7,131.8h-0.1h-0.1l-0.1-0.1h-0.1
	 M376.7,131.7l-1-0.2 M375.7,131.5L375.7,131.5 M375.7,131.5h-0.1l-0.1-0.1h-0.1h-0.1 M375.3,131.4L375.3,131.4v0.1 M375.3,131.5
	l1,0.2 M376.3,131.7L376.3,131.7 M376.3,131.7h0.1l0.1,0.1h0.1h0.1 M376.7,131.8h0.1v-0.1h-0.1 M373.4,131.9l-0.4-0.2l-0.3-0.1
	l-0.2-0.2 M376.2,132.1L376.2,132.1h-0.1H376h-0.1 M375.8,132.1L375,132l-0.6-0.1l-1-0.1 M373.1,131.5l-0.1-0.1h-0.1h-0.1
	 M372.8,131.4h-0.1h-0.1h-0.1 M372.5,131.4l0.1,0.1l0.2,0.2l0.7,0.2 M373.4,131.9l0.6,0.1l0.6,0.1l1.1,0.1 M375.8,132.1h0.2h0.1
	 M376.2,132.1L376.2,132.1h-0.1 M376,132.1l-0.1-0.1h-0.1 M375.8,132h-0.5l-0.7-0.1l-0.8-0.2 M373.9,131.8l-0.3-0.1l-0.3-0.1
	l-0.1-0.1 M371.5,131.5v-0.1l-0.1-0.1 M372.7,131.9l-0.3-0.1 M376.2,132.3L376.2,132.3h-0.1H376h-0.1 M375.8,132.4l-1-0.1l-0.9-0.2
	l-0.6-0.1l-0.6-0.1 M373.1,131.9l-0.5-0.2l-0.3-0.1l-0.2-0.1v-0.1 M372,131.4l-0.1-0.1h-0.1h-0.1 M371.7,131.3h-0.1h-0.1h-0.1
	 M371.4,131.3l0.1,0.2l0.3,0.1l0.4,0.2l0.4,0.1 M372.7,131.9l0.8,0.2l0.9,0.1l0.8,0.1l0.8,0.1 M375.8,132.4h0.1h0.1h0.1
	 M376.2,132.3v-0.1h-0.1 M376,132.2h-0.1h-0.1 M375.8,132.2l-0.9-0.1l-0.8-0.1l-0.5-0.1l-0.5-0.1 M370.4,131.5L370.4,131.5l-0.1-0.2
	 M371.9,132h-0.3 M376.2,132.5L376.2,132.5h-0.1H376h-0.1 M375.8,132.5l-1.2-0.1l-1.2-0.2l-0.8-0.1l-0.8-0.2 M375.8,132.5h0.1h0.1
	h0.1 M376.2,132.5L376.2,132.5h-0.1 M376,132.5h-0.1l-0.1-0.1 M375.8,132.4l-1.1-0.1l-1-0.1l-0.8-0.1l-0.6-0.2 M372.4,131.9
	l-0.6-0.2l-0.5-0.2l-0.2-0.1v-0.1 M370.9,131.3l-0.1-0.1h-0.1h-0.1 M370.6,131.2h-0.1h-0.1h-0.1 M370.3,131.2l0.1,0.2l0.4,0.2
	l0.4,0.2l0.6,0.1 M371.9,132l1,0.2l1.1,0.2l0.9,0.1l1,0.1 M364.1,131.8l-2.5-0.1 M361.6,131.7v1 M361.6,132.6l-6.3-0.4 M355.3,132.2
	v0.4 M355.3,132.6l6.3,0.4 M361.6,133.1v1 M361.6,134l2.6,0.2 M364.2,134.3v-1.1 M364.2,133.2l6.3,0.4 M370.5,133.6v-0.4
	 M370.5,133.2l-6.3-0.4 M364.2,132.8l-0.1-1 M385.8,130.1h0.1h0.1h0.1 M386.2,130L386.2,130 M380.4,130.2l0.2-0.1h0.4h0.4h0.4
	 M389.1,130.8h0.1h0.1h0.1h0.1 M383.5,130.5h0.1h0.1h0.1h0.1 M389.6,130.9h0.1 M384,130.4l0.1,0.1 M380.3,130.2h0.1 M380.3,130.4
	L380.3,130.4 M379.5,130.4h0.2h0.2h0.3 M387.6,130.9l0.5,0.1h0.4h0.3l0.1-0.1 M385.6,130.9h0.5h0.8h0.4h0.3 M388.1,131l0.1,0.1
	l0.1,0.1 M380.5,131.1L380.5,131.1h0.1 M384.9,131.4h0.2v0.1 M381.4,131.2h0.4h0.5h0.6l0.8-0.1h0.6 M380.6,131.1l0.1,0.1h0.1h0.1
	h0.1h0.2h0.1 M372.6,131.2v-0.1h0.1h0.1 M372.8,131.4h0.1h0.1h0.1v0.1 M371.7,131.3h0.1h0.1h0.1v0.1 M370.6,131.2h0.1h0.1h0.1v0.1
	 M372.5,131.4L372.5,131.4h0.1h0.1h0.1 M371.4,131.3L371.4,131.3h0.1h0.1h0.1 M370.3,131.2L370.3,131.2h0.1h0.1h0.1 M373.8,131.8
	h0.1 M373.1,131.5L373.1,131.5l0.1,0.1 M372,131.4l0.1,0.1l0.2,0.1l0.3,0.2l0.4,0.1 M375.8,132h0.2v0.1 M376,132.1h0.1 M373.9,131.8
	l0.5,0.1l0.5,0.1l0.9,0.1 M370.9,131.3l0.1,0.1l0.3,0.2l0.4,0.2l0.5,0.1 M375.8,132.2h0.1h0.1 M376,132.2h0.1v0.1 M373.1,131.9
	l0.6,0.1l0.8,0.1l0.6,0.1l0.7,0.1 M375.8,132.4l0.1,0.1h0.1 M376,132.5h0.1 M372.4,131.9l0.9,0.2l1,0.2l0.8,0.1h0.9 M391.4,131.9
	v0.1l-0.1,0.2l-0.2,0.1l-0.3,0.2l-0.4,0.1l-0.5,0.1l-0.6,0.1h-0.8l-0.8,0.1h-0.9h-0.9h-1.1h-1l-1.1-0.1h-1.1l-1.1-0.1l-1.2-0.1
	l-1.1-0.1l-1.1-0.2l-1.1-0.1l-1.1-0.2l-1-0.1l-1-0.2l-0.9-0.2l-0.9-0.2l-0.8-0.2l-0.6-0.2l-0.5-0.2l-0.4-0.2l-0.4-0.1l-0.2-0.2
	L368,130v-0.2 M385.4,131.4L385.4,131.4 M385.2,131.4h0.1h0.1 M384.9,131.4h0.1h0.1 M385.2,131.5l-0.1-0.1H385 M384.9,131.6l0.2-0.1
	 M378.2,132.3l6.7-0.7 M377.6,132.3h0.4h0.2 M376.9,132.2h0.3l0.3,0.1 M376.9,132.2L376.9,132.2 M372.8,131.3l4.1,0.9 M372.8,131
	h-0.2v0.1h0.1l0.1,0.1 M379.5,130.4l-6.7,0.7 M380.3,130.4h-0.4h-0.3 M380.4,130.2l-0.1,0.1 M381.9,130.1h-0.6h-0.4h-0.3l-0.1,0.1
	 M383.5,130H383h-0.5H382 M385.8,130.1l-1.3-0.1h-1 M386.1,130H386h-0.1h-0.1 M386.2,130h-0.1 M386,130.2h0.1h0.1V130 M383.7,130.1
	l1.2,0.1h1.1 M382.1,130.2h0.3h0.4h0.9 M380.9,130.3l0.2-0.1h0.3h0.7 M380.8,130.4l0.1-0.1 M381.9,130.7l-1.1-0.3 M383.5,130.5h-0.1
	h-0.1l-0.4,0.1h-0.4l-0.5,0.1 M384,130.4h-0.1h-0.2h-0.1 M384,130.6h0.1H384L384,130.6 M380.6,131h0.2h0.3l0.4-0.1h0.5l0.5-0.1h0.4
	l0.4-0.1h0.3h0.1 M380.7,131.1h-0.1h-0.1l0.1-0.1 M381.4,131.2h-0.1h-0.1H381h-0.2v-0.1 M384.4,131h-0.9l-1,0.1h-0.6h-0.5
	 M385.6,130.9h-0.1h-0.3h-0.3h-0.4 M387.6,130.9h-0.2H387h-0.4h-0.5h-0.4 M389.1,130.8H389l-0.2,0.1h-0.2l-0.9-0.1 M389.5,130.8
	h-0.1h-0.2h-0.1 M389.6,130.8h-0.1 M389.7,130.9L389.7,130.9l-0.1-0.1 M388.1,131l0.4,0.1h0.5l0.4-0.1h0.2 M388.2,131.3l0.1-0.1
	h-0.1l-0.1-0.2 M386.7,131.5h0.2l0.2-0.1h0.4l0.4-0.1h0.2 M385.4,131.4l0.3,0.1h0.4l0.3,0.1h0.2 M373.1,131.5l-0.1-0.1h-0.1h-0.1
	 M373.9,131.8l-0.3-0.1l-0.3-0.1l-0.1-0.1 M375.8,132h-0.5l-0.7-0.1l-0.8-0.2 M376,132.1l-0.1-0.1h-0.1 M376.2,132.1L376.2,132.1
	h-0.1 M375.8,132.1h0.2h0.1 M373.4,131.9l0.6,0.1l0.6,0.1l1.1,0.1 M372.5,131.4l0.1,0.1l0.2,0.2l0.7,0.2 M372.8,131.4h-0.1h-0.1
	h-0.1 M371.9,132l1,0.2l1.1,0.2l0.9,0.1l1,0.1 M370.3,131.2l0.1,0.2l0.4,0.2l0.4,0.2l0.6,0.1 M370.6,131.2h-0.1h-0.1h-0.1
	 M370.9,131.3l-0.1-0.1h-0.1h-0.1 M372.4,131.9l-0.6-0.2l-0.5-0.2l-0.2-0.1v-0.1 M375.8,132.4l-1.1-0.1l-1-0.1l-0.8-0.1l-0.6-0.2
	 M376,132.5h-0.1l-0.1-0.1 M376.2,132.5L376.2,132.5h-0.1 M375.8,132.5h0.1h0.1h0.1 M373.1,131.9l-0.5-0.2l-0.3-0.1l-0.2-0.1v-0.1
	 M375.8,132.2l-0.9-0.1l-0.8-0.1l-0.5-0.1l-0.5-0.1 M376,132.2h-0.1h-0.1 M376.2,132.3v-0.1h-0.1 M375.8,132.4h0.1h0.1h0.1
	 M372.7,131.9l0.8,0.2l0.9,0.1l0.8,0.1l0.8,0.1 M371.5,131.5L371.5,131.5l0.3,0.1l0.4,0.2l0.4,0.1 M371.7,131.3h-0.1h-0.1h-0.1
	 M372,131.4l-0.1-0.1h-0.1h-0.1 M371.5,129.4h-0.8l-0.6,0.1l-0.5,0.1l-0.5,0.1l-0.3,0.2l-0.3,0.1l-0.1,0.1l-0.1,0.2v0.2l0.2,0.2
	l0.2,0.1l0.4,0.2l0.4,0.2l0.5,0.2l0.6,0.2l0.8,0.2l0.9,0.2l0.9,0.2l1,0.2l1,0.1l1.1,0.2l1.1,0.1l1.1,0.2l1.1,0.1l1.2,0.1l1.1,0.1
	h1.1l1.1,0.1h1h1.1h0.9h0.9l0.8-0.1h0.8l0.6-0.1l0.5-0.1l0.4-0.2l0.3-0.1l0.2-0.1l0.1-0.2v-0.2l-0.1-0.1l-0.2-0.2l-0.3-0.2l-0.4-0.2
	l-0.4-0.2l-0.7-0.2L389,131l-0.9-0.2l-0.9-0.2l-0.9-0.2l-1-0.1l-1.1-0.2l-1-0.1l-1.2-0.2l-1.1-0.1l-1.1-0.1l-1.2-0.1l-1.1-0.1h-1.1
	l-1.1-0.1h-1h-1l-0.9,0.1H371.5 M386.2,131l-0.1,0.1H386h-0.1 M385.9,131.1h-0.3h-0.4l-0.4,0.1h-0.2 M386,131h-0.2h-0.3h-0.6
	 M384.8,131.1h-0.4H384 M384,131.1l0.2,0.1l0.3,0.1 M384.5,131.3h0.3l0.5-0.1h0.3h0.2 M385.9,131.1h0.2V131h0.1 M386.2,131H386
	 M387.6,131.2L387.6,131.2h-0.1 M386.8,131L386.8,131 M385.7,131.4L385.7,131.4 M387.5,131.2h-0.1l-0.2,0.1h-0.3l-0.4,0.1h-0.2
	 M386.2,131.4L386.2,131.4h-0.1l-0.1-0.1h-0.1h-0.1 M386.5,131.2h-0.4h-0.3 M385.7,131.3L385.7,131.3L385.7,131.3 M385.7,131.4
	L385.7,131.4h0.1 M385.8,131.4h0.1l0.2,0.1h0.1 M386.2,131.4h0.2l0.2-0.1h0.3l0.4-0.1h0.1 M387.5,131.2h0.1v-0.1l-0.1-0.1
	 M387.5,131h-0.4h-0.3 M386.8,131L386.8,131l-0.1,0.2h-0.2 M367.4,130.4L367.4,130.4l0.1-0.2l0.2-0.1l0.3-0.2l0.3-0.1l0.5-0.1
	l0.6-0.1l0.7-0.1h0.8 M370.9,129.3l0.9-0.1h1h1h1l1.1,0.1h1.2l1.1,0.1l1.2,0.1l1.2,0.1l1.1,0.1l1.2,0.1l1.1,0.2l1.1,0.1l1.1,0.2
	l1,0.2l0.9,0.2l0.9,0.2l0.8,0.2l0.6,0.2l0.6,0.2l0.4,0.2l0.4,0.2l0.2,0.2l0.2,0.2l0.1,0.2 M360.1,134.4v-1.3 M357.5,134.2l2.6,0.2
	 M363,135.7l-5.5-1.5 M368.3,134.9l-5.3,0.8 M365.7,134.8l2.6,0.1 M365.7,133.5v1.3 M366.7,133.5l-1-0.1 M366.8,134.6l-0.1-1.1
	 M370.5,134.8l-3.7-0.2 M363.9,135.8l6.6-1 M355.4,133.9l6.8,1.8 M359.1,134.1l-3.7-0.2 M359,133l0.1,1.1 M360.1,133.1L359,133
	 M370.9,129.3h-0.8l-0.7,0.1l-0.6,0.1l-0.5,0.1l-0.3,0.1l-0.3,0.2l-0.2,0.1l-0.1,0.2v0.2l0.2,0.2l0.2,0.1l0.3,0.2l0.4,0.2l0.5,0.3
	l0.6,0.2l0.8,0.2l0.8,0.2l0.9,0.1l1,0.2l1,0.2l1.1,0.2l1.1,0.1l1.1,0.2l1.2,0.1l1.2,0.1l1.1,0.1l1.2,0.1l1.1,0.1h1.2h1h1.1h1h0.9
	l0.8-0.1h0.8l0.6-0.1l0.5-0.1l0.5-0.1l0.3-0.2l0.2-0.1l0.1-0.2l0.1-0.1l-0.1-0.2l-0.2-0.2l-0.2-0.2l-0.4-0.2l-0.4-0.2l-0.6-0.2
	l-0.6-0.2l-0.8-0.2l-0.9-0.2L387,130l-1-0.2l-1.1-0.2l-1.1-0.1l-1.1-0.2l-1.2-0.1l-1.1-0.1l-1.2-0.1l-1.2-0.1l-1.1-0.1l-1.2-0.1
	h-1.1h-1h-1h-1L370.9,129.3 M361.6,131.7v1 M364.1,131.8l-2.5-0.1 M364.2,132.8l-0.1-1 M370.5,133.2l-6.3-0.4 M370.5,133.6v-0.4
	 M364.2,133.2l6.3,0.4 M364.2,134.3v-1.1 M361.6,134l2.6,0.2 M361.6,133.1v1 M355.3,132.6l6.3,0.4 M355.3,132.2v0.4 M361.6,132.6
	l-6.3-0.4 M398.5,132.4l-0.1-0.1l-0.2-0.1l-0.3-0.1l-0.4-0.1 M397.4,132l-16.2-3.7 M381.3,128.4l-0.5-0.1l-0.5-0.1h-0.6l-0.5-0.1
	l-0.6-0.1H378h-0.7h-0.5h-0.4 M376,128.1l-32,3.3 M344,131.4h-0.4h-0.3l-0.2,0.1v0.1 M380.2,130.9L380,131 M375.3,131.4h0.1h0.2
	l0.1,0.1 M375.3,131.5L375.3,131.5v-0.1 M376.7,131.7h0.1 M375.3,131.5l1,0.2 M375.3,131.4L375.3,131.4v0.1 M375.7,131.5h-0.1
	l-0.1-0.1h-0.1h-0.1 M375.7,131.5L375.7,131.5 M376.7,131.7l-1-0.2 M376.7,131.8h0.1v-0.1h-0.1 M376.3,131.7h0.1l0.1,0.1h0.1h0.1
	 M376.3,131.7L376.3,131.7 M384.3,131.4l-1-0.2 M383.3,131.2h-0.5h-0.4h-0.3h-0.3 M381.7,131.3h-0.3h-0.3h-0.3l-0.3-0.1h-0.2
	 M380.2,131.2l-0.2-0.1V131l0.2-0.1 M380.2,130.9h0.1h0.4l0.8-0.1 M381.5,130.7l-1.3-0.3 M380.2,130.5L380.2,130.5 M380.2,130.5
	L380.2,130.5h-0.1 M380.1,130.5l-6.6,0.7 M373.4,131.1h-0.1H373.4 M373.4,131.1l4,0.9 M377.5,132.1L377.5,132.1 M377.5,132.1h0.1
	 M377.6,132.1L377.6,132.1h0.1 M377.7,132.1l6.6-0.7 M384.3,131.4L384.3,131.4h0.1 M384.4,131.4L384.4,131.4h-0.1 M138.7,199.5
	l-0.3-0.1l-0.3-0.1l-0.1-0.2l-0.1-0.1 M175.2,181.8l-0.4-0.1h-0.5h-0.7h-0.7h-0.7l-0.5,0.1L171,182l-0.5,0.1l-0.5,0.2 M138.1,198
	l-0.4,0.2l-0.3,0.2l-0.2,0.2l-0.1,0.2v0.2l0.1,0.2l0.2,0.2l0.3,0.1l0.4,0.2 M154.2,203.4l-16.2-3.6 M154.2,203.4l0.5,0.1l0.5,0.1
	h0.5h0.7l0.7-0.1l0.6-0.1h0.2 M192.3,186.7l0.1-0.1l0.1-0.2l-0.1-0.2l-0.1-0.2l-0.2-0.2l-0.3-0.2l-0.3-0.1 M191.5,186.3L191.5,186.3
	v0.2l-0.2,0.2l-0.2,0.2l-0.3,0.1 M190.8,187.1l-13.2,6.4 M177.5,193.5l-0.1,0.1h-0.1h-0.1h-0.1 M172.9,192.7l4.2,0.9 M172.9,192.7
	L172.9,192.7l-0.1-0.1 M167.6,191.3h0.1h0.1h0.2h0.1v-0.1h0.1l-0.1-0.1H168h-0.2h-0.1h-0.1l-0.1,0.1v0.1H167.6 M361.5,133.3v0.9
	 M361.5,133.3v-0.1h-0.1h-0.1l-0.1-0.1H361l-0.2-0.1h-0.2h-0.2 M355.1,132.6l5.2,0.4 M355.1,132.6H355h-0.1h-0.1 M354.8,132.2v0.4
	 M354.8,132.2L354.8,132.2h0.1h0.1h0.1 M360.2,132.6h0.3h0.2h0.2h0.1h0.2h0.1l0.1-0.1 M372.9,133.4L372.9,133.4h-0.1 M371.1,133.6
	l1.7-0.2 M371.1,133.6L371.1,133.6H371h-0.1 M365.5,133.4l5.3,0.3 M365.5,133.4l-0.2-0.1h-0.2h-0.2h-0.2h-0.1l-0.1,0.1h-0.1
	 M398.5,132.4l-0.1-0.1l-0.2-0.1l-0.3-0.1l-0.4-0.1 M381.3,128.5l-0.5-0.2l-0.5-0.1h-0.6l-0.5-0.1l-0.6-0.1H378h-0.7h-0.5h-0.4
	 M344,131.4h-0.4l-0.3,0.1h-0.2v0.1 M355.1,132.1l-0.2-0.1h-0.3h-0.2h-0.1l-0.2,0.1H354h-0.1 M175,189.5v0.4 M175,189.9l6.4-0.9
	 M181.4,189l0.1,1.3 M181.6,190.3l9.8-3.9 M191.3,186.4l-9.9-1.4 M181.4,185v1.3 M181.4,186.3l-6.4,0.9 M175,187.2v0.3 M175,187.5
	l7.5-1 M182.5,186.5v-0.9 M182.5,185.6l7.2,0.9 M189.7,186.6l-7.2,2.9 M182.5,189.4v-0.9 M182.5,188.6l-7.5,0.9 M162,195.4v0.1h0.1
	 M162.9,195.3L162.9,195.3l-0.1,0.1l-0.1,0.1 M150.5,198l-0.2-0.1v-0.1 M154.8,197.5v-0.1h-0.1h-0.1h-0.2l-0.1,0.1h-0.1 M155,197.6
	v-0.1h-0.2 M149.7,198.3h0.1 M149.2,198.3L149.2,198.3h0.1h0.1h0.1h0.1 M149.8,198.3v0.1 M155.3,197.7l0.2-0.1v-0.1 M149.4,198.8
	l0.4-0.2l0.4-0.1l0.3-0.2l0.3-0.1 M147.8,199.1l0.2-0.1l0.2-0.1l0.3-0.2l0.4-0.2l0.2-0.1 M154.1,197.5l-0.4,0.1l-0.5,0.2l-0.7,0.2
	l-0.8,0.4l-0.7,0.3 M149.2,199.2l0.1-0.2l0.1-0.1 M148.7,199.3v0.1 M147.8,199.3v-0.1v-0.1 M151.1,198.8l-0.5,0.2l-0.3,0.1l-0.3,0.1
	 M147.4,199.7l-0.1-0.1l-0.1-0.2 M149.9,199.3l-0.5,0.2l-0.8,0.1l-0.4,0.1h-0.4 M156,198.8l-0.2,0.1h-0.2h-0.3 M145.9,200.5
	l-0.1-0.1 M146,200.5h-0.1 M147.7,199.8l-0.4,0.1l-0.5,0.2l-0.2,0.1l-0.1,0.1 M146.4,200.4h-0.1h-0.1l-0.1,0.1H146 M151.5,199.7
	h-0.1v-0.1 M151.9,199.6l-0.1,0.1h-0.1h-0.1h-0.1 M155.2,199v0.2l-0.1,0.1 M155.1,199.3l-0.2,0.2l-0.4,0.2L154,200l-0.4,0.1
	 M153.6,200.1l-0.3,0.1l-0.4,0.1l-0.9,0.2 M149.2,201.2v-0.1 M149.3,201.2h-0.1 M149.7,201.2h-0.1h-0.1h-0.1 M151.9,200.6l-1.2,0.3
	l-1.1,0.4 M150.6,198.7l0.4-0.2l0.4-0.2 M149.4,199.2l0.2-0.1l0.3-0.1l0.6-0.2 M149.2,199.2h0.2 M149.4,198.8l-0.1,0.1l-0.1,0.1v0.1
	 M151,198.1l-0.3,0.2l-0.5,0.1l-0.3,0.2l-0.3,0.1 M151.5,198.2h-0.2l-0.3-0.1 M149.8,198.4L149.8,198.4v-0.1 M149,198.7l0.4-0.2
	l0.3-0.1 M148.7,199.2v-0.1l0.1-0.2l0.2-0.1 M148.7,199.4v-0.1 M147.9,199.5l0.4-0.1h0.3 M147.8,199.1v0.1v0.1l0.1,0.2 M149.2,198.3
	l-0.2,0.1l-0.2,0.1l-0.4,0.2L148,199l-0.2,0.1 M149.7,198.3h-0.1h-0.2h-0.1 M149.8,198.3L149.8,198.3h-0.1 M152.2,198l0.5-0.2
	l0.4-0.1l0.3-0.2h0.3 M151.2,197.8l1,0.2 M151.1,197.8L151.1,197.8h0.1 M151.2,197.7h-0.1v0.1 M157.8,194.5l-6.6,3.2 M157.9,194.5
	L157.9,194.5h-0.1 M157.9,194.5L157.9,194.5v-0.1V194.5 M157.9,194.5L157.9,194.5 M162,195.4l-4.1-0.8 M162,195.5L162,195.5h0.1
	l-0.1-0.1 M155.4,198.7l6.6-3.3 M155.2,198.7h0.1h0.1 M155.2,198.7L155.2,198.7 M154,198.5l1.2,0.3 M155.3,197.7l-0.2,0.1l-0.3,0.2
	l-0.8,0.5 M155.3,197.2l0.2,0.1v0.1v0.1l-0.2,0.1 M153.8,197.4l0.3-0.1l0.3-0.1h0.3h0.2l0.3,0.1 M150.1,198.1L150.1,198.1
	 M150.1,198.1h-0.3h-0.4h-0.3l-0.2,0.1 M148.8,198.2l-0.2,0.1l-0.2,0.1l-0.4,0.2l-0.4,0.2l-0.2,0.2 M147.3,199.1l-0.1,0.1l0.1,0.2
	l0.1,0.2 M147.4,199.7l-0.4,0.1l-0.5,0.2l-0.4,0.1l-0.2,0.2 M145.8,200.4L145.8,200.4h0.1 M145.9,200.4v0.1h0.1 M146,200.5h0.1
	l0.1-0.1h0.1h0.1 M146.4,200.4l0.1-0.1l0.2-0.1l0.2-0.1l0.8-0.2 M147.7,199.8h0.3l0.4-0.1l0.4-0.1l0.5-0.1l0.4-0.1 M149.9,199.3h0.1
	l0.3-0.2l0.3-0.1l0.4-0.1 M151.1,198.8l0.9-0.5l1-0.4l0.7-0.2l0.5-0.2 M154.1,197.5h0.1l0.1-0.1h0.1h0.1h0.2v0.1 M154.8,197.5h0.1
	h0.1v0.1h-0.1 M154.9,197.6l-0.2,0.1l-0.3,0.2l-0.4,0.2l-0.5,0.3l-0.5,0.3l-0.5,0.2l-0.3,0.2l-0.3,0.2h-0.1 M151.5,199.5l-0.1,0.1
	v0.1h0.1 M151.5,199.7h0.1h0.1h0.1l0.1-0.1 M151.9,199.6h0.1l0.1-0.1l0.4-0.2l0.4-0.2l0.5-0.3 M153.6,198.7l1.1,0.3 M154.7,199
	l-0.1,0.2v0.1 M154.5,199.3l-0.2,0.2l-0.3,0.1l-0.8,0.4 M153.2,200H153l-0.4,0.1l-0.9,0.2 M151.7,200.4l-1.2,0.4l-1.1,0.3
	 M149.4,201h-0.1l-0.1,0.1v0.1 M149.2,201.2L149.2,201.2h0.1 M149.3,201.2h0.1h0.1h0.1 M149.7,201.2l1.3-0.4l1-0.3 M151.9,200.6
	l0.5-0.1l0.5-0.2l0.5-0.1 M153.6,200.1l0.5-0.2l0.5-0.1l0.2-0.2l0.2-0.2 M155.1,199.3l0.1-0.1V199 M155.2,199h0.4l0.3-0.1
	 M156,198.8l6.7-3.3 M162.7,195.6l0.2-0.1v-0.1l-0.1-0.1l-0.1-0.1 M162.7,195.1l-4.1-0.9 M158.6,194.2L158.6,194.2 M158.6,194.2
	h-0.3H158 M157.9,194.2h-0.4l-0.2,0.1 M157.3,194.3l-6.7,3.3 M150.5,197.6l-0.2,0.1v0.1 M150.3,197.8l0.1,0.1l0.1,0.1 M150.5,198
	l-0.1,0.1h-0.1 M150.3,198.2h-0.1l-0.1-0.1 M144,198.7v-0.4l0.1-0.3l0.2-0.4l0.3-0.4l0.4-0.4l0.5-0.5l0.7-0.3l0.7-0.5l0.9-0.4
	l0.9-0.4l0.9-0.4l1-0.3l1.1-0.4l1.1-0.3l1.1-0.3l1.1-0.1l1.2-0.2l1.1-0.1h1.1h1.1l1.1,0.1h1l1,0.2l0.9,0.1l0.9,0.2l0.8,0.2l0.7,0.2
	l0.5,0.3l0.4,0.3l0.4,0.3l0.2,0.4l0.1,0.3l0.1,0.2 M164,198.9l0.8-0.4l0.7-0.5l0.5-0.3l0.5-0.5l0.3-0.4l0.3-0.4l0.1-0.3l0.1-0.4
	l-0.1-0.4l-0.1-0.3l-0.2-0.4l-0.4-0.3l-0.4-0.3l-0.5-0.3l-0.7-0.2l-0.8-0.2l-0.9-0.2l-0.9-0.1l-1-0.2h-1l-1.1-0.1h-1.1H157l-1.1,0.1
	l-1.2,0.2l-1.1,0.1l-1.1,0.3l-1.1,0.3l-1.1,0.3l-1,0.4l-0.9,0.4l-0.9,0.4l-0.9,0.4l-0.7,0.5l-0.7,0.3l-0.5,0.5l-0.4,0.4l-0.3,0.4
	l-0.2,0.4l-0.1,0.3v0.4l0.1,0.4l0.2,0.3l0.3,0.3l0.4,0.3l0.4,0.3l0.6,0.3l0.6,0.2l0.9,0.2l0.8,0.2l1,0.1l1,0.1l1.1,0.1h1h1.2
	l1.1-0.1l1.1-0.1l1.2-0.1l1.1-0.1l1.1-0.3l1.1-0.3l1-0.4l1-0.4l0.9-0.4L164,198.9 M168.1,195.3v0.3L168,196l-0.2,0.4l-0.3,0.4
	l-0.4,0.4l-0.4,0.4l-0.7,0.3l-0.6,0.5l-0.8,0.4 M164.5,199l-0.9,0.5l-1,0.4l-1,0.4l-1.1,0.3l-1.1,0.4l-1.1,0.3l-1.1,0.1l-1.2,0.3
	l-1.2,0.1h-1.1h-1.2h-1.1h-1.1l-1.1-0.1l-1-0.1l-0.9-0.2l-0.9-0.2L146,201l-0.7-0.2l-0.6-0.3l-0.4-0.3l-0.4-0.4l-0.3-0.3l-0.1-0.4
	l-0.1-0.2 M164.5,199l0.8-0.4l0.6-0.5l0.7-0.3l0.4-0.4l0.4-0.4l0.3-0.4l0.2-0.4l0.1-0.4l-0.1-0.4l-0.1-0.3l-0.2-0.4l-0.3-0.3
	l-0.4-0.3l-0.5-0.3l-0.7-0.3L165,193l-0.8-0.2l-0.9-0.2l-1-0.1l-1-0.1l-1.1-0.1h-1.1h-1.2h-1.1l-1.2,0.1l-1.2,0.1l-1.1,0.1l-1.2,0.3
	l-1.1,0.3l-1.1,0.4l-1,0.4l-1,0.4l-0.9,0.4l-0.9,0.4l-0.6,0.5l-0.7,0.3l-0.5,0.5L144,197l-0.3,0.4l-0.2,0.4l-0.2,0.4v0.4l0.1,0.3
	l0.1,0.4l0.3,0.3l0.4,0.4l0.4,0.3l0.6,0.3l0.7,0.2l0.8,0.2l0.9,0.2l0.9,0.2l1,0.1l1.1,0.1h1.1h1.1h1.2h1.1l1.2-0.1l1.2-0.3l1.1-0.1
	l1.1-0.3l1.1-0.4l1.1-0.3l1-0.4l1-0.4L164.5,199 M158.8,195.3l-0.1-0.1 M160.2,195.3L160.2,195.3 M160.2,195.3l-0.2,0.1h-0.1h-0.1
	 M158.8,195.3l1,0.2 M159.8,195.4L159.8,195.4 M159.8,195.4h0.1h0.1h0.1l0.1-0.1 M160.2,195.3L160.2,195.3v-0.1 M160.2,195.2l-1-0.2
	 M159.2,195L159.2,195 M159.2,195h-0.1h-0.2h-0.1 M158.8,195l-0.1,0.1l0.1,0.1 M159.4,194.1h-0.1V194 M159.6,194.1h-0.2
	 M161.6,194.2l-0.5-0.1h-0.5h-0.9 M162.4,194.7v-0.1l-0.2-0.2l-0.5-0.2 M163,194.7L163,194.7 M162.7,194.8l-0.1,0.1l-0.1-0.1h-0.1
	 M163,194.7v0.1h-0.1h-0.1h-0.1 M162.4,194.8L162.4,194.8h0.1l0.1,0.1l0.1-0.1 M162.7,194.8h0.1h0.1h0.1v-0.1 M163,194.7l-0.1-0.2
	l-0.2-0.2L162,194 M162,193.9l-0.6-0.1h-0.6h-1.1 M159.6,193.9h-0.2l-0.1,0.1 M159.3,194v0.1h0.1 M159.4,194.1h0.1h0.1 M159.6,194.1
	h0.5h0.5l0.9,0.1 M161.6,194.2l0.3,0.1l0.3,0.2l0.1,0.3 M159.4,193.8l-0.1-0.1 M159.6,193.8h-0.2 M162.4,193.8l-0.6-0.1l-0.8-0.1
	h-0.7l-0.7,0.1 M163.4,194.5l-0.1-0.2l-0.2-0.2l-0.3-0.2l-0.4-0.1 M164.1,194.5L164.1,194.5 M163.8,194.8h-0.1l-0.1-0.1h-0.1
	 M164.1,194.5v0.1H164h-0.1l-0.1,0.1 M162.4,193.8l0.5,0.2l0.3,0.2l0.2,0.2v0.2 M163.4,194.7L163.4,194.7l0.1,0.1h0.1h0.1
	 M163.8,194.8l0.1-0.1h0.1h0.1v-0.1 M164.1,194.5l-0.1-0.3l-0.3-0.2l-0.4-0.2l-0.4-0.2 M162.8,193.6l-0.8-0.1l-0.9-0.1h-0.8
	l-0.8,0.1 M159.6,193.6h-0.2h-0.1v0.1 M159.3,193.7L159.3,193.7h0.1 M159.4,193.7l0.1,0.1h0.1 M159.6,193.8l0.8-0.1h0.9l0.5,0.1
	l0.5,0.1 M159.4,193.4h-0.1v-0.1 M159.6,193.4h-0.1h-0.1 M163.1,193.5l-0.9-0.2h-1h-0.8h-0.9 M164.5,194.4l-0.1-0.2l-0.3-0.3
	l-0.4-0.2l-0.5-0.2 M165.2,194.4L165.2,194.4 M164.9,194.6h-0.1h-0.1l-0.1-0.1 M165.2,194.4l-0.1,0.1l-0.1,0.1h-0.1 M159.6,193.2
	h-0.1l-0.1,0.1h-0.1 M159.3,193.3v0.1h0.1 M159.4,193.4h0.1h0.1 M159.6,193.4h1.1h1l0.8,0.1l0.7,0.1 M163.1,193.5l0.6,0.2l0.4,0.3
	l0.2,0.2l0.1,0.3 M164.5,194.5L164.5,194.5l0.1,0.1h0.1h0.1 M164.9,194.6l0.1-0.1h0.1h0.1v-0.1 M165.2,194.4l-0.2-0.3l-0.3-0.4
	l-0.5-0.2l-0.5-0.2 M163.5,193.2l-1-0.2h-1.1h-0.9h-1 M171.4,191.7l2.5-0.3 M173.9,191.4v-2.3 M173.9,189.1l6.3-0.8 M180.1,188.3v-1
	 M180.1,187.4l-6.3,0.9 M173.9,188.2v-2.3 M173.9,185.9l-2.6,0.4 M171.3,186.4v2.2 M171.3,188.5l-6.3,0.9 M165,189.4v0.9 M165,190.3
	l6.3-0.8 M171.3,189.5l0.1,2.2 M159.3,193.3L159.3,193.3h0.1l0.1-0.1h0.1 M159.3,193.7v-0.1h0.1h0.1h0.1 M159.3,194L159.3,194
	l0.1-0.1h0.1h0.1 M157.3,194.3l0.3-0.1h0.3 M157.9,194.2h0.3h0.3 M159.6,193.2h1.2h1.1l0.9,0.1l0.8,0.1 M159.6,193.6l1-0.1h0.9
	l0.7,0.1l0.6,0.1 M159.6,193.9h0.7h0.8l1,0.1 M162.4,194.8v-0.1 M162,193.9l0.4,0.2l0.3,0.2l0.2,0.3 M163.4,194.7v-0.1 M162.8,193.6
	l0.5,0.2l0.4,0.3l0.2,0.2l0.1,0.2 M164.5,194.5v-0.1 M163.5,193.2l0.8,0.3l0.5,0.3l0.2,0.2l0.1,0.3 M162.7,195.1l0.2,0.1v0.1
	 M150.3,197.8l0.1-0.1l0.1-0.1 M150.1,198.1l0.1,0.1h0.1 M154.9,197.6h0.1 M148.8,198.2l0.3-0.1h0.4h0.3h0.2 M147.3,199.1l0.2-0.1
	l0.3-0.2l0.3-0.2l0.3-0.2l0.3-0.1 M147.2,199.3v-0.1l0.1-0.1 M151.5,199.5h0.1l0.3-0.2l0.4-0.2l0.4-0.2l0.5-0.3l0.5-0.3l0.4-0.2
	l0.3-0.2l0.2-0.1 M145.8,200.4l0.3-0.2l0.5-0.2l0.4-0.1l0.3-0.1 M145.8,200.4L145.8,200.4 M151.4,199.6L151.4,199.6l0.1-0.1
	 M154.5,199.3v-0.1v-0.1l0.1-0.1 M153.2,200l0.5-0.2l0.3-0.1l0.4-0.3 M151.7,200.4l0.5-0.1l0.5-0.1l0.4-0.1 M149.2,201.1
	L149.2,201.1l0.1-0.1h0.1 M149.4,201l1.3-0.4l1-0.3 M167.3,195.4v0.2l-0.1,0.4l-0.1,0.3l-0.3,0.4l-0.3,0.4l-0.5,0.5l-0.5,0.3
	l-0.7,0.5l-0.8,0.4 M164,198.9l-0.9,0.4l-0.9,0.4l-1,0.4l-1,0.4l-1.1,0.3l-1.1,0.3l-1-0.1l-1.2,0.1l-1.1,0.1l-1.1,0.1h-1.2h-1
	l-1.1-0.1l-1-0.1l-1-0.1l-0.8-0.2l-0.9-0.2l-0.6-0.2l-0.6-0.3l-0.4-0.3l-0.4-0.3l-0.3-0.3l-0.2-0.3l-0.1-0.4 M150.1,198.1
	L150.1,198.1 M150.3,198.2h-0.1l-0.1-0.1 M150.5,198l-0.1,0.1h-0.1 M150.3,197.8l0.1,0.1l0.1,0.1 M150.5,197.6l-0.2,0.1v0.1
	 M157.3,194.3l-6.7,3.3 M157.9,194.2h-0.4l-0.2,0.1 M158.6,194.2h-0.3H158 M158.6,194.2L158.6,194.2 M162.7,195.1l-4.1-0.9
	 M162.7,195.6l0.2-0.1v-0.1l-0.1-0.1l-0.1-0.1 M156,198.8l6.7-3.3 M155.2,199h0.4l0.3-0.1 M155.1,199.3l0.1-0.1V199 M153.6,200.1
	l0.5-0.2l0.5-0.1l0.2-0.2l0.2-0.2 M151.9,200.6l0.5-0.1l0.5-0.2l0.5-0.1 M149.7,201.2l1.3-0.4l1-0.3 M149.3,201.2h0.1h0.1h0.1
	 M149.2,201.2L149.2,201.2h0.1 M149.4,201h-0.1l-0.1,0.1v0.1 M151.7,200.4l-1.2,0.4l-1.1,0.3 M153.2,200H153l-0.4,0.1l-0.9,0.2
	 M154.5,199.3l-0.2,0.2l-0.3,0.1l-0.8,0.4 M154.7,199l-0.1,0.2v0.1 M153.6,198.7l1.1,0.3 M151.9,199.6h0.1l0.1-0.1l0.4-0.2l0.4-0.2
	l0.5-0.3 M151.5,199.7h0.1h0.1h0.1l0.1-0.1 M151.5,199.5l-0.1,0.1v0.1h0.1 M154.9,197.6l-0.2,0.1l-0.3,0.2l-0.4,0.2l-0.5,0.3
	l-0.5,0.3l-0.5,0.2l-0.3,0.2l-0.3,0.2h-0.1 M154.8,197.5h0.1h0.1v0.1h-0.1 M154.1,197.5h0.1l0.1-0.1h0.1h0.1h0.2v0.1 M151.1,198.8
	l0.9-0.5l1-0.4l0.7-0.2l0.5-0.2 M149.9,199.3h0.1l0.3-0.2l0.3-0.1l0.4-0.1 M147.7,199.8h0.3l0.4-0.1l0.4-0.1l0.5-0.1l0.4-0.1
	 M146.4,200.4l0.1-0.1l0.2-0.1l0.2-0.1l0.8-0.2 M146,200.5h0.1l0.1-0.1h0.1h0.1 M145.9,200.4v0.1h0.1 M145.8,200.4L145.8,200.4h0.1
	 M147.4,199.7l-0.4,0.1l-0.5,0.2l-0.4,0.1l-0.2,0.2 M147.3,199.1l-0.1,0.1l0.1,0.2l0.1,0.2 M148.8,198.2l-0.2,0.1l-0.2,0.1l-0.4,0.2
	l-0.4,0.2l-0.2,0.2 M150.1,198.1h-0.3h-0.4h-0.3l-0.2,0.1 M162.4,194.8L162.4,194.8h0.1l0.1,0.1l0.1-0.1 M161.6,194.2l0.3,0.1
	l0.3,0.2l0.1,0.3 M159.6,194.1h0.5h0.5l0.9,0.1 M159.4,194.1h0.1h0.1 M159.3,194v0.1h0.1 M159.6,193.9h-0.2l-0.1,0.1 M162,193.9
	l-0.6-0.1h-0.6h-1.1 M162.9,194.6v-0.1l-0.2-0.2L162,194 M163,194.7L163,194.7 M162.7,194.8h0.1h0.1h0.1v-0.1 M163.5,193.2l-1-0.2
	h-1.1h-0.9h-1 M165.1,194.3l-0.1-0.2l-0.3-0.4l-0.5-0.2l-0.5-0.2 M165.2,194.4L165.2,194.4 M164.9,194.6l0.1-0.1h0.1h0.1v-0.1
	 M164.5,194.5L164.5,194.5l0.1,0.1h0.1h0.1 M164.5,194.4v0.1 M163.1,193.5l0.6,0.2l0.4,0.3l0.2,0.2l0.1,0.1 M159.6,193.4h1.1h1
	l0.8,0.1l0.7,0.1 M159.4,193.4h0.1h0.1 M159.3,193.3v0.1h0.1 M159.6,193.2h-0.1l-0.1,0.1h-0.1 M163.4,194.5v0.1 M162.4,193.8
	l0.5,0.2l0.3,0.2l0.2,0.2 M159.6,193.8l0.8-0.1h0.9l0.5,0.1l0.5,0.1 M159.4,193.7l0.1,0.1h0.1 M159.3,193.7L159.3,193.7h0.1
	 M159.6,193.6h-0.2h-0.1v0.1 M162.8,193.6l-0.8-0.1l-0.9-0.1h-0.8l-0.8,0.1 M164,194.4v-0.2l-0.3-0.2l-0.4-0.2l-0.4-0.2
	 M164.1,194.5L164.1,194.5 M163.8,194.8l0.1-0.1h0.1h0.1v-0.1 M163.4,194.7L163.4,194.7l0.1,0.1h0.1h0.1 M164,198.9l0.8-0.4l0.7-0.5
	l0.5-0.3l0.5-0.5l0.3-0.4l0.3-0.4l0.1-0.3l0.1-0.4l-0.1-0.4l-0.1-0.3l-0.2-0.4l-0.4-0.3l-0.4-0.3l-0.5-0.3l-0.7-0.2l-0.8-0.2
	l-0.9-0.2l-0.9-0.1l-1-0.2h-1l-1.1-0.1h-1.1H157l-1.1,0.1l-1.2,0.2l-1.1,0.1l-1.1,0.3l-1.1,0.3l-1.1,0.3l-1,0.4l-0.9,0.4l-0.9,0.4
	l-0.9,0.4l-0.7,0.5l-0.7,0.3l-0.5,0.5l-0.4,0.4l-0.3,0.4l-0.2,0.4l-0.1,0.3v0.4l0.1,0.4l0.2,0.3l0.3,0.3l0.4,0.3l0.4,0.3l0.6,0.3
	l0.6,0.2l0.9,0.2l0.8,0.2l1,0.1l1,0.1l1.1,0.1h1h1.2l1.1-0.1l1.1-0.1l1.2-0.1l1.1-0.1l1.1-0.3l1.1-0.3l1-0.4l1-0.4l0.9-0.4
	L164,198.9 M150.6,198.7l-0.4,0.1l-0.3,0.2h-0.2l-0.2,0.1 M149.4,199.2h-0.1h-0.1 M149.4,199.2l0.2-0.1l0.3-0.1l0.6-0.2
	 M150.6,198.7l0.4-0.2l0.4-0.2 M151.5,198.2h-0.2l-0.3-0.1 M151,198.1l-0.3,0.2l-0.5,0.1l-0.3,0.2l-0.3,0.1 M149.4,198.8l-0.1,0.1
	l-0.1,0.1v0.1 M149.2,199.2h0.2 M149.8,198.4L149.8,198.4 M149.8,198.4l-0.4,0.2l-0.3,0.1 M149,198.7l-0.2,0.2l-0.1,0.1v0.2
	 M147.9,199.5l-0.1-0.2 M148.7,199.4h-0.4l-0.3,0.1 M149,198.7l0.4-0.2l0.3-0.1 M149.8,198.4L149.8,198.4v-0.1 M149.8,198.3
	L149.8,198.3h-0.1 M149.7,198.3h-0.1h-0.2h-0.1 M149.2,198.3l-0.2,0.1l-0.2,0.1l-0.4,0.2L148,199l-0.2,0.1 M147.8,199.1v0.1v0.1
	l0.1,0.2 M147.9,199.5l0.4-0.1h0.3 M148.7,199.4v-0.2v-0.1l0.1-0.2l0.2-0.1 M192.3,186.7l0.1-0.1l0.1-0.2v-0.2 M137,199.2L137,199.2
	l0.1,0.2l0.2,0.2l0.3,0.1l0.4,0.2 M143.3,198.8v-0.1v-0.4l0.2-0.4l0.2-0.4l0.3-0.4l0.5-0.5l0.5-0.5l0.7-0.3l0.6-0.5l0.9-0.4l0.9-0.4
	l1-0.4l1-0.4l1.1-0.4l1.1-0.3l1.2-0.3l1.1-0.1l1.2-0.1l1.2-0.1h1.1h1.2h1.1l1.1,0.1l1,0.1l1,0.1l0.9,0.2l0.8,0.2l0.8,0.2l0.7,0.3
	l0.5,0.3l0.4,0.3l0.3,0.3l0.2,0.4l0.1,0.3l0.1,0.1 M138.1,199.9l16.2,3.6 M138.1,199.9L138.1,199.9 M182.5,186.5v-0.9 M175,187.5
	l7.5-1 M175,187.2v0.3 M181.4,186.3l-6.4,0.9 M181.4,185v1.3 M191.3,186.4l-9.9-1.4 M181.6,190.3l9.8-3.9 M181.4,189l0.1,1.3
	 M175,189.9l6.4-0.9 M175,189.5v0.4 M182.5,188.6l-7.5,0.9 M182.5,189.4v-0.9 M189.7,186.6l-7.2,2.9 M182.5,185.6l7.2,0.9
	 M164.5,199l0.8-0.4l0.6-0.5l0.7-0.3l0.4-0.4l0.4-0.4l0.3-0.4l0.2-0.4l0.1-0.4l-0.1-0.4l-0.1-0.3l-0.2-0.4l-0.3-0.3l-0.4-0.3
	l-0.5-0.3l-0.7-0.3L165,193l-0.8-0.2l-0.9-0.2l-1-0.1l-1-0.1l-1.1-0.1h-1.1h-1.2h-1.1l-1.2,0.1l-1.2,0.1l-1.1,0.1l-1.2,0.3l-1.1,0.3
	l-1.1,0.4l-1,0.4l-1,0.4l-0.9,0.4l-0.9,0.4l-0.6,0.5l-0.7,0.3l-0.5,0.5L144,197l-0.3,0.4l-0.2,0.4l-0.2,0.4v0.4l0.1,0.3l0.1,0.4
	l0.3,0.3l0.4,0.4l0.4,0.3l0.6,0.3l0.7,0.2l0.8,0.2l0.9,0.2l0.9,0.2l1,0.1l1.1,0.1h1.1h1.1h1.2h1.1l1.2-0.1l1.2-0.3l1.1-0.1l1.1-0.3
	l1.1-0.4l1.1-0.3l1-0.4l1-0.4L164.5,199 M173.9,191.4v-2.3 M171.4,191.7l2.5-0.3 M171.3,189.5l0.1,2.2 M165,190.3l6.3-0.8
	 M165,189.4v0.9 M171.3,188.5l-6.3,0.9 M171.3,186.4v2.2 M173.9,185.9l-2.6,0.4 M173.9,188.2v-2.3 M180.1,187.4l-6.3,0.9
	 M180.1,188.3v-1 M173.9,189.1l6.3-0.8 M138.1,198l-0.4,0.2l-0.3,0.2l-0.2,0.2l-0.1,0.2v0.2l0.1,0.2l0.2,0.2l0.3,0.1l0.4,0.2
	 M138.1,199.9l16.2,3.6 M192.3,186.7l0.1-0.1l0.1-0.2l-0.1-0.2l-0.1-0.2l-0.2-0.2l-0.3-0.2l-0.3-0.1 M191.4,185.4l-16.3-3.7
	 M175.2,181.8l-0.4-0.1h-0.5h-0.7h-0.7h-0.7l-0.5,0.1L171,182l-0.5,0.1l-0.5,0.2 M169.9,182.5L138.1,198 M154.2,203.4l0.5,0.1
	l0.5,0.1h0.5h0.7l0.7-0.1l0.6-0.1h0.2 M154.2,203.4l0.5,0.1l0.5,0.1h0.5h0.7l0.7-0.1l0.6-0.1h0.2 M154.2,203.4L154.2,203.4
	 M158.8,195h0.1h0.1h0.1h0.1 M158.7,195.2L158.7,195.2V195h0.1 M160.2,195.2L160.2,195.2v0.1 M162.1,195.5L162.1,195.5H162
	 M155.3,197.2l-0.3-0.1h-0.4l-0.4,0.1l-0.3,0.1 M153.8,197.4l-0.4,0.1l-0.4,0.1l-0.8,0.4 M155.5,197.4L155.5,197.4l-0.1-0.1
	l-0.1-0.1 M155.4,198.7h-0.1h-0.1 M160.2,195.2l-1-0.2 M160.2,195.3L160.2,195.3v-0.1 M159.8,195.4h0.1h0.1h0.1l0.1-0.1
	 M159.8,195.4L159.8,195.4 M158.8,195.3l1,0.2 M158.8,195l-0.1,0.1l0.1,0.1 M159.2,195h-0.1h-0.2h-0.1 M159.2,195L159.2,195
	 M151.2,197.8l1,0.2 M152.2,198l0.5-0.2l0.4-0.1l0.3-0.2h0.3 M153.8,197.4l0.3-0.1l0.3-0.1h0.3h0.2l0.3,0.1 M155.3,197.2l0.2,0.1
	v0.1v0.1l-0.2,0.1 M155.3,197.7l-0.2,0.1l-0.3,0.2l-0.8,0.5 M154,198.5l1.2,0.3 M155.2,198.7L155.2,198.7 M155.2,198.7h0.1h0.1
	 M155.4,198.7l6.6-3.3 M162,195.5L162,195.5h0.1l-0.1-0.1 M162,195.4l-4.1-0.8 M157.9,194.5L157.9,194.5 M157.9,194.5L157.9,194.5
	v-0.1V194.5 M157.9,194.5L157.9,194.5h-0.1 M157.8,194.5l-6.6,3.2 M151.2,197.7h-0.1v0.1 M151.1,197.8L151.1,197.8h0.1 M392.7,418.2
	l-50.9-11.5 M393.4,429.6v-10.5 M341.4,406.8l-148.1,43.6 M193.8,488.5L393,430 M408.7,424.9L408.7,424.9l0.1-0.1 M393.5,429.8
	l15.2-4.4 M342,284.2v122.7 M342,221.8v47.7 M342,204v7.6 M408.9,424.8v-279 M394.4,150.4l-0.2-0.1h-0.1 M193.2,488.2l0.2-0.1
	 M178.1,493.2l15.2-4.5 M193.4,488.1v-279 M178.8,213.6h-0.1l-0.2-0.1 M336.7,205.6l13.3-3.9 M327.3,208.4l8.5-2.5 M298.6,216.8
	l9.1-2.7 M350.1,201.6l43-39.7 M393.4,161.1v-10.4 M294.1,218.1l3.6-1 M265.6,226.5l14.1-4.1 M202.9,244.9l50.1-14.8 M193.4,247.7
	l8.8-2.6 M259,210.5l0.1,0.3 M255.4,224.6l-1.9,4.5 M262.5,232.9l1.2-2.8 M264.3,228.7l1-2.3 M289.1,209.9l5.5,1.2 M297,201.6
	l-6.2-1.4 M285.5,223.5l1.3,1.5 M294.1,218.1l-0.8-0.8 M294.6,211.1l108.7,24.4 M405.8,225.9L297,201.6 M253.5,229.2L194.4,363
	 M203.4,366.7l59.1-133.9 M286.8,225l85.1,91.4 M379.3,309.5l-85.1-91.4 M288.1,222.2l0.1,0.4 M289.7,222.2l-0.1-0.5 M292.2,210.7
	v0.4 M293.7,211v-0.1 M263.7,230.1l0.5,0.2 M264.9,228.9l-0.5-0.2 M194.4,363l-0.1,0.2 M203.2,366.9l0.1-0.2 M403.3,235.5h0.2
	 M406,226l-0.2-0.1 M371.9,316.3l0.2,0.1 M379.4,309.7l-0.1-0.2 M285.6,208h0.1 M284.9,205.1h-0.1 M284.3,207.3l0.1,0.1
	 M284.1,206.3L284.1,206.3 M263.2,222.2h0.1 M260.4,221.2v0.1 M290.9,211.7l-0.1,0.1 M292.4,214.3l0.1-0.1 M291.2,211.7H291
	 M292.5,214.1l0.1-0.2 M282.5,224.2l0.7-0.5l1.4-0.7l0.6-0.5 M292,218.3l0.1-0.1l1.2-0.8l1-0.8 M268.3,222.8l3.4-1.4 M300.8,199.7
	l0.6-1.9 M264.8,225.2l0.1-0.1l0.2-0.3l0.3-0.4l0.2-0.1 M286.2,210.9h0.1l1.1-0.5l1.1-0.5l0.3-0.1 M250,222.3l1.1,2 M301.4,195.9
	l-1-1.8 M177.3,499.4l232.8-68.3 M335,131.5l-164,48.1 M211.4,202.6l164-48.1 M178,493.1V213 M398.1,132.2l-0.3-0.1 M170.6,179.5
	l-0.2-0.1h-0.5l-0.5-0.1h-0.5l-0.5,0.1H168 M167.8,179.5h-0.2l-0.5,0.1l-0.5,0.2l-0.5,0.1l-0.3,0.1 M155.6,185.1l-2.6,1.1
	 M143.5,190L143.5,190 M153,186.1l-9.5,3.9 M165.6,180.2l-24.5,11.9 M198.3,185.7l-27.7-6.2 M128.7,196.1l-0.7,0.3l-0.8,0.5
	l-0.5,0.4l-0.7,0.6l-0.4,0.6l-0.4,0.7l-0.4,0.7l-0.3,0.7l-0.2,0.8v0.1 M143.5,190l-14.8,6 M124.3,201.3l-0.1,0.8 M199.5,186.7
	L199.5,186.7v-0.3l-0.2-0.2L199,186l-0.3-0.2l-0.4-0.1 M199.6,187.6v-0.9 M141.1,192.1l-1.1,0.6l-1.1,0.6l-1,0.6l-0.9,0.6l-0.8,0.6
	l-0.8,0.7l-0.5,0.6l-0.5,0.7l-0.4,0.6l-0.4,0.7v0.2 M133.5,198.3L133.5,198.3l-0.1,0.3l-0.3,0.4 M129.6,206.8v1 M133.1,199.1H133
	l-0.2,0.3l-0.3,0.4l-0.4,0.4l-0.3,0.6l-0.4,0.6l-0.3,0.7l-0.3,0.7l-0.2,0.8l-0.3,0.8l-0.1,0.8L130,206v0.9v0.1 M124.2,202.1l-0.2,1
	l-0.1,1 M379.2,127h-0.5l-0.4-0.1 M380.2,127.2h-0.1l-0.5-0.1 M400.4,132.3l-20.3-4.5 M403.1,132.4l-0.5-0.1 M405.3,134.9l-0.1-0.1
	l-0.2-0.6l-0.3-0.5l-0.4-0.4L404,133l-0.4-0.3l-0.3-0.2h-0.1 M361.7,127.3l-24.5,2.5 M411.5,142.3v-0.4l-0.1-0.9l-0.2-0.7l-0.2-0.6
	l-0.3-0.8l-0.4-0.5l-0.4-0.6l-0.4-0.4L409,137l-0.4-0.4l-0.5-0.4l-0.7-0.3l-0.6-0.3l-0.8-0.4l-1.1-0.4l-1.1-0.3l-0.4-0.1
	 M337.2,129.8H337l-0.3,0.1h-0.3l-0.2,0.1l-0.1,0.1l-0.1,0.2v0.1 M335.9,130.4v0.9 M192.5,186.5v-0.3 M137,199.2v0.2 M168.1,195.3
	L168.1,195.3 M143.3,198.8L143.3,198.8 M167.3,195.4L167.3,195.4 M144,198.7L144,198.7 M192.5,186.2L192.5,186.2 M137,199.2
	L137,199.2"/>
<g>
	<path class="st0" d="M459.7,380.1l-3.9-2.8c0.1,0.3,0.2,0.7,0.2,1.1c0,2.3-1.7,3.9-4,3.9c-2.4,0-4.2-1.7-4.2-4.2
		c0-2.9,2.2-4.2,4.1-4.2c0.5,0,1.5,0.1,2.8,1l5.7,4.1L459.7,380.1z M451.9,381c1.6,0,2.8-1.2,2.8-2.9s-1.2-2.8-2.8-2.8
		c-1.6,0-2.9,1.1-2.9,2.8C449,379.8,450.3,381,451.9,381z"/>
	<path class="st0" d="M458.5,370.9c-1.2,0.8-2.7,1.2-4.5,1.2c-1.7,0-3.3-0.4-4.5-1.2c-1.3-0.9-1.8-2.1-1.8-3.1c0-1,0.5-2.2,1.8-3.1
		c1.2-0.8,2.7-1.2,4.5-1.2c1.7,0,3.3,0.4,4.5,1.2c1.3,0.9,1.8,2.1,1.8,3.1C460.3,368.8,459.9,370,458.5,370.9z M450.4,369.9
		c1,0.7,2.4,0.9,3.7,0.9c1.3,0,2.7-0.2,3.7-0.9c1-0.6,1.3-1.5,1.3-2.1c0-0.6-0.3-1.5-1.3-2.1c-1-0.7-2.4-0.9-3.7-0.9
		c-1.3,0-2.7,0.2-3.7,0.9c-1,0.6-1.3,1.5-1.3,2.1C449,368.4,449.3,369.3,450.4,369.9z"/>
	<path class="st0" d="M458.5,360.6c-1.2,0.8-2.7,1.2-4.5,1.2c-1.7,0-3.3-0.4-4.5-1.2c-1.3-0.9-1.8-2.1-1.8-3.1c0-1,0.5-2.2,1.8-3.1
		c1.2-0.8,2.7-1.2,4.5-1.2c1.7,0,3.3,0.4,4.5,1.2c1.3,0.9,1.8,2.1,1.8,3.1C460.3,358.4,459.9,359.7,458.5,360.6z M450.4,359.6
		c1,0.7,2.4,0.9,3.7,0.9c1.3,0,2.7-0.2,3.7-0.9c1-0.6,1.3-1.5,1.3-2.1c0-0.6-0.3-1.5-1.3-2.1c-1-0.7-2.4-0.9-3.7-0.9
		c-1.3,0-2.7,0.2-3.7,0.9c-1,0.6-1.3,1.5-1.3,2.1C449,358.1,449.3,358.9,450.4,359.6z"/>
</g>
<g>
	<path class="st0" d="M355.3,455.8l-2,0.6l0.3-1.4l2.6-0.8l3.5,11.6l-1.3,0.4L355.3,455.8z"/>
	<path class="st0" d="M361.2,454l-2,0.6l0.3-1.4l2.6-0.8l3.5,11.6l-1.3,0.4L361.2,454z"/>
	<path class="st0" d="M371.4,450.1l-1.6,4.5c0.3-0.2,0.6-0.4,1-0.5c2.2-0.7,4.3,0.5,4.9,2.7c0.7,2.3-0.5,4.5-2.8,5.2
		c-2.7,0.8-4.7-0.9-5.2-2.7c-0.1-0.4-0.3-1.5,0.2-3l2.3-6.7L371.4,450.1z M374.4,457.3c-0.5-1.6-2-2.3-3.5-1.9
		c-1.6,0.5-2.4,2-1.9,3.5c0.5,1.5,1.9,2.4,3.5,2C374.1,460.4,374.9,458.8,374.4,457.3z"/>
	<path class="st0" d="M381.3,447.1l-1.6,4.5c0.3-0.2,0.6-0.4,1-0.5c2.2-0.7,4.3,0.5,4.9,2.7c0.7,2.3-0.5,4.5-2.8,5.2
		c-2.7,0.8-4.7-0.9-5.2-2.7c-0.1-0.4-0.3-1.5,0.2-3l2.3-6.7L381.3,447.1z M384.3,454.3c-0.5-1.6-2-2.3-3.5-1.9
		c-1.6,0.5-2.3,2-1.9,3.5c0.5,1.5,1.9,2.4,3.5,2C384,457.4,384.8,455.9,384.3,454.3z"/>
</g>
<g>
	<path class="st0" d="M346.2,76.4l-3.8-0.8l-1.3,2.4c0.2,0,0.5,0,0.8,0.1c2.4,0.5,3.5,2.7,3,5c-0.6,2.6-2.9,3.8-5.3,3.3
		c-1-0.2-1.8-0.7-2.4-1.5c-0.3-0.4-0.6-0.9-0.8-1.4l1.2-0.5c0.1,0.4,0.3,0.8,0.6,1.1c0.4,0.5,0.9,1,1.8,1.1c1.7,0.4,3.2-0.7,3.6-2.4
		c0.4-1.7-0.6-3.2-2.3-3.6c-0.4-0.1-1.2-0.2-2.5,0.3l3-5.3l4.7,1L346.2,76.4z"/>
	<path class="st0" d="M350,77.3l-2-0.4l1-1.1l2.6,0.6L349,88.1l-1.3-0.3L350,77.3z"/>
	<path class="st0" d="M354.3,87.7c-0.5-1.3-0.6-2.9-0.2-4.6c0.4-1.7,1.1-3.1,2.2-4.1c1.2-1.1,2.5-1.3,3.4-1.1s2,0.9,2.6,2.4
		c0.5,1.3,0.6,2.9,0.2,4.6c-0.4,1.7-1.1,3.1-2.2,4.1c-1.2,1.1-2.5,1.3-3.4,1.1C356,89.9,354.9,89.2,354.3,87.7z M357,79.9
		c-0.9,0.9-1.4,2.2-1.7,3.4c-0.3,1.2-0.3,2.6,0.1,3.8c0.4,1.1,1.1,1.6,1.7,1.8c0.6,0.1,1.5,0,2.3-0.9c0.9-0.9,1.4-2.2,1.7-3.4
		c0.3-1.2,0.3-2.6-0.1-3.8c-0.4-1.1-1.1-1.6-1.8-1.8C358.8,78.9,357.9,79.1,357,79.9z"/>
</g>
<g>
	<path class="st0" d="M65.7,516.2l5.5-3.9c0.4-0.3,1.4-1,1.8-1.4c0.7-0.6,1-1.2,1.1-1.6c0.3-1.3-0.4-2.5-1.8-2.9
		c-0.8-0.2-1.6,0-2.2,0.6c-0.3,0.3-0.6,0.7-0.7,1.3L68,508c0.3-1.2,0.9-1.8,1.5-2.2c0.6-0.4,1.6-0.9,3.1-0.5
		c2.1,0.5,3.3,2.4,2.8,4.4c-0.2,0.8-0.6,1.5-1.5,2.3c-0.7,0.6-1.5,1.1-2.1,1.6l-3.1,2.2l5,1.2l-0.3,1.2L65.7,516.2z"/>
	<path class="st0" d="M82.5,516.7l1.4,0.3l-0.3,1.2l-1.4-0.3l-0.5,2.2l-1.3-0.3l0.5-2.2l-6-1.5l9.8-8.4L82.5,516.7z M81.2,516.4
		l1.3-5.2l-5,4.3L81.2,516.4z"/>
	<path class="st0" d="M86.3,519.6c-0.5-1.3-0.5-2.9-0.1-4.6c0.4-1.7,1.2-3.1,2.2-4c1.2-1.1,2.5-1.3,3.5-1s2,1,2.6,2.5
		c0.5,1.3,0.5,2.9,0.1,4.6c-0.4,1.7-1.2,3.1-2.2,4c-1.2,1.1-2.5,1.3-3.5,1S86.9,521.1,86.3,519.6z M89.3,511.9
		c-0.9,0.9-1.4,2.1-1.7,3.4c-0.3,1.2-0.4,2.6,0,3.8c0.4,1.1,1.1,1.7,1.7,1.8c0.6,0.1,1.5,0,2.3-0.8c0.9-0.9,1.4-2.1,1.7-3.4
		c0.3-1.2,0.4-2.6,0-3.8c-0.4-1.1-1.1-1.7-1.7-1.8C91,511,90.1,511.1,89.3,511.9z"/>
</g>
<g>
	<path class="st0" d="M85.1,375.7v2l-1.3-0.7v-2.7H96v1.3H85.1z"/>
	<path class="st0" d="M94.4,369.3c-1.2,0.8-2.7,1.2-4.5,1.2c-1.7,0-3.3-0.4-4.5-1.2c-1.3-0.9-1.8-2.1-1.8-3.1c0-1,0.5-2.2,1.8-3.1
		c1.2-0.8,2.7-1.2,4.5-1.2c1.7,0,3.3,0.4,4.5,1.2c1.3,0.9,1.8,2.1,1.8,3.1C96.2,367.2,95.7,368.4,94.4,369.3z M86.2,368.3
		c1,0.7,2.4,0.9,3.7,0.9c1.3,0,2.7-0.2,3.7-0.9c1-0.6,1.3-1.5,1.3-2.1c0-0.6-0.3-1.5-1.3-2.1c-1-0.7-2.4-0.9-3.7-0.9
		c-1.3,0-2.7,0.2-3.7,0.9c-1,0.6-1.3,1.5-1.3,2.1C84.9,366.8,85.2,367.6,86.2,368.3z"/>
	<path class="st0" d="M85.1,358v2l-1.3-0.7v-2.7H96v1.3H85.1z"/>
	<path class="st0" d="M84.3,347.2l3.9,2.8c-0.1-0.3-0.2-0.7-0.2-1.1c0-2.3,1.7-3.9,4-3.9c2.4,0,4.2,1.7,4.2,4.2
		c0,2.9-2.2,4.2-4.1,4.2c-0.5,0-1.5-0.1-2.8-1l-5.7-4.1L84.3,347.2z M92.1,346.3c-1.6,0-2.8,1.2-2.8,2.9s1.2,2.8,2.8,2.8
		c1.6,0,2.9-1.1,2.9-2.8C95,347.5,93.7,346.3,92.1,346.3z"/>
</g>
</svg>
