<?xml version="1.0" encoding="utf-8"?>
<!-- Generator: Adobe Illustrator 23.0.3, SVG Export Plug-In . SVG Version: 6.00 Build 0)  -->
<svg version="1.1" id="Слой_1" xmlns="http://www.w3.org/2000/svg" xmlns:xlink="http://www.w3.org/1999/xlink" x="0px" y="0px"
	 viewBox="0 0 500 600" style="enable-background:new 0 0 500 600;" xml:space="preserve">
<style type="text/css">
	.st0{fill:none;stroke:#4E86B9;stroke-width:0.6;stroke-linecap:round;stroke-linejoin:round;}
	.st1{fill:none;stroke:#4E86B9;stroke-width:0.71;stroke-linecap:round;stroke-linejoin:round;}
	.st2{fill:#4E86B9;}
</style>
<path class="st0" d="M190.9,538.1l253.7-113.7 M406.8,418.9l41,6 M145.8,531.5l48.3,7.2"/>
<path class="st0" d="M63.5,551.8V183.3 M55.7,531.5l77.1,12.5 M455.4,185.7l0.4,315.5 M283.8,36.5l163.8,29.6"/>
<path class="st0" d="M118.1,527.3l-55.7,24.9 M146.7,146.1l-85,38.1 M161.9,530.2l-36.2,16.2 M83.1,519.2l-31.6,14.1 M447.6,184.4
	l13.4,2 M283.4,475.3l177.7,26.5 M283.8,142.4V34.6 M447.6,184.4V63.3"/>
<path class="st1" d="M251.2,179.2l4.1-1.9 M197.5,203.2l35.3-15.8 M280.7,166l-8.9,4 M304.8,155.2l-3.3,1.5 M198.2,181.4l-0.6,0.5
	 M292.5,404.3l-94.9,42.6 M368.5,105.1v61.5 M370.1,179v250.3 M184.4,172.5l12.7-5.6 M369.1,90.7L369.1,90.7 M184.4,512.5
	l197.8-88.7 M88.2,515.4v6.6 M161.9,523.5v6.6 M148.2,524.5v6.6 M405.6,414.3v6.1 M107.6,141.7l0.3,0.1 M184.5,171.6l-0.3,0.1
	 M108.7,142.1l-1-0.1 M184.2,153.3l-1-0.1 M252.9,96.2L252.9,96.2 M264.2,97.9L264.2,97.9 M240.1,100.5L240.1,100.5 M233.9,103.4
	L233.9,103.4 M241.8,106.3L241.8,106.3 M225.9,108.3v0.4 M237.1,110.1L237.1,110.1 M268.9,166.6l0.1,0.3 M260.2,182.3L260.2,182.3
	l-0.4-0.5l-0.4-0.6 M261.9,181.3L261.9,181.3 M268.1,172.2L268.1,172.2L268.1,172.2h-0.3h-0.1l-0.1,0.1h0.1 M267.5,171.3
	L267.5,171.3L267.5,171.3l-0.2,0.2h-0.1 M273,173.7l-0.3-0.1l-0.4-0.4l-0.5-0.5 M271.2,174.8L271.2,174.8 M259.5,176.8l-0.5-0.6
	 M259.1,176.6L259.1,176.6 M268.1,171.1L268.1,171.1l-0.4,0.1l-0.1-0.1v-0.3 M260,174.5L260,174.5L260,174.5 M262.5,172.9
	L262.5,172.9L262.5,172.9 M265.1,171.2L265.1,171.2L265.1,171.2 M253.8,176.3l0.3-0.1h0.1 M268.9,166.4v0.3l0.1,0.3 M268.9,166.4
	l0.1,0.4 M269,166.8l-0.8-0.5 M271.5,169.7l-1-1.8l-0.8-1.1l-0.4-0.6 M253.8,176.3L253.8,176.3 M253.8,175.7L253.8,175.7l-0.3-0.1
	h-0.4l-0.3,0.1 M266.3,166.5l-0.4,0.3l-0.8,0.6l-0.9,0.8l-0.9,0.6l-1,0.8l-1,0.8l-1,0.8l-1,0.8l-1,0.6l-1,0.6l-1,0.6l-1,0.6
	l-0.9,0.5 M271.9,172.7l-0.8-1.1l-0.8-1l-0.8-0.9l-0.8-1l-0.8-1l-0.8-0.9l-0.4-0.5 M228.9,184.1L228.9,184.1l-0.4-0.1 M228.8,183.9
	L228.8,183.9L228.8,183.9 M235.5,184.8L235.5,184.8 M283.4,147l-0.1-0.3v-0.4 M284.3,148.5H284 M284.9,149.3l0.1-0.3l-0.1-0.3
	l-0.3-0.3l-0.4-0.1 M283.2,146.7L283.2,146.7L283.2,146.7l0.1,0.2 M281.3,153.7L281.3,153.7l0.2-0.2v-0.1 M235.5,184.8L235.5,184.8
	 M235.5,184.5v0.4 M281.3,153.1l0.3,0.1 M281.5,153.3l0.4,0.3l0.1,0.1 M284.1,148.9l0.4,0.1l0.3,0.1l0.1,0.1v0.6l-0.3,0.4
	 M284,148.9L284,148.9 M284.6,154L284.6,154l0.1-0.2 M234.5,184.9h0.3l0.3-0.1l0.1-0.1 M263.4,166.1l-0.8,0.4l-0.6,0.4l-0.4,0.1
	l-0.3,0.1l0,0 M235,185v0.6l0.1,0.5 M239.2,185.1L239.2,185.1L239.2,185.1 M238.9,184.9L238.9,184.9L238.9,184.9 M238.3,184.7
	L238.3,184.7l-0.1-0.3v-0.1 M239.2,185.1L239.2,185.1L239.2,185.1 M281.8,153.3l0.4,0.1l0.8,0.5 M253.7,172.7l0.6-0.6l0.6-0.6
	l0.3-0.3l0.3-0.3 M279.7,157.5L279.7,157.5L279.7,157.5 M279.5,157.1L279.5,157.1L279.5,157.1 M279.7,157.5L279.7,157.5L279.7,157.5
	 M279.5,156.4L279.5,156.4L279.5,156.4l-0.2-0.2 M281.5,152.8l-0.1,0.3l-0.3,0.3l-0.1,0.1 M228.8,183.9l2.1,1.9l1.5,1.2l1.5,1.1
	l0.6,0.6 M273.7,166.1L273.7,166.1L273.7,166.1l-0.2-0.2l-0.1-0.1l-0.1-0.1l-0.1-0.3 M249.6,182.7L249.6,182.7L249.6,182.7l-0.1-0.2
	l-0.1-0.1l-0.1-0.1l-0.1-0.1 M283.2,146.7l1,2.7l0.6,1.8l0.6,1.9l0.5,1.2 M284.9,154.1l-0.3-0.4 M278,158.4l0.4,1.4l0.1,1.4
	l-0.3,1.4l-0.5,1.2l-0.8,0.9l-0.9,0.8l-0.3,0.1 M277.7,164.6l-0.4,0.1 M240.4,184.1l1.2,0.9l1.3,0.5l1.3,0.3l1.3-0.1l1.2-0.4
	l1.1-0.6l0.3-0.3 M246.7,185.8l0.4-0.4 M381.8,83.9v0.3 M383.3,180.9v243.5 M383.3,66.3v102.4 M405.9,81.5l0.1-0.4 M114.8,297.7
	L114.8,297.7 M125.8,315.5L125.8,315.5 M113.7,286.1l0.3-0.1 M124.4,306.1L124.4,306.1 M113.7,270L113.7,270 M123.5,287.5l0.3-0.1
	 M123.5,271.3L123.5,271.3 M122.9,322.4l-9.2-1.3 M404.1,79.8L404.1,79.8 M304.8,155.2L304.8,155.2 M304.8,155.2L304.8,155.2
	 M304.7,155.3L304.7,155.3 M369.1,104.1L369.1,104.1 M368.5,90v0.3 M368.5,90l-0.3,0.1 M368.4,89.9l0.3,0.1 M368.3,90.1L368.3,90.1
	 M368.3,90.1L368,90 M369,104.2L369,104.2L369,104.2 M369.1,104.1L369.1,104.1 M359.9,102.5L359.9,102.5 M359.5,102.6l0.4-0.1
	 M227.7,184.1h-0.3L227,184H227 M284.9,144.8v0.3l-0.1,0.4l-0.1,0.1 M197.9,181.4l0.3-0.1 M285,145.9L285,145.9l0.1-0.4v-0.4
	l-0.1-0.3l-0.3-0.1l-0.4-0.1h-0.4l-0.5,0.1l-0.6,0.3l-0.8,0.3l-0.9,0.4l-0.9,0.4l-1,0.4 M279.4,146.4l-1.1,0.5l-1.2,0.6l-1.3,0.6
	l-1.3,0.8l-1.5,0.8l-1.5,0.8l-1.5,0.9l-1.6,0.9l-1.6,1l-1.8,1l-1.8,1l-1.8,1l-1.8,1.1l-1.8,1.1l-1.9,1.2l-1.8,1.1l-1.8,1.2l-1.8,1.1
	l-1.8,1.2l-1.8,1.2l-1.8,1.2l-1.6,1.2l-1.6,1.1l-1.6,1.1l-1.5,1.1l-1.3,1.1l-1.3,1.1l-1.3,1l-1.2,1l-1.1,0.9l-1,1l-0.9,0.9l-0.9,0.8
	l-0.8,0.8l-0.6,0.8l-0.5,0.6l-0.5,0.6l-0.4,0.5l-0.3,0.4l-0.1,0.4v0.3l0.1,0.3l0.3,0.1l0.4,0.1h0.3 M305,155.2L305,155.2
	 M304.7,155.3l0.3-0.1 M368.5,105l-63.9,50.2 M368.7,105l-0.3,0.1 M368.7,104.8L368.7,104.8 M197.6,181.1L197.6,181.1 M197.6,181.1
	l0.4,0.5 M197.9,181.4L197.9,181.4 M197.8,180.8L197.8,180.8L197.8,180.8l-0.1,0.2l-0.1,0.1h-0.1 M197.6,181.1l0.4,0.5 M198.2,180.7
	L198.2,180.7 M198.2,180.7l0.3-0.1 M198.2,180.7v0.4l-0.1,0.1l-0.1,0.1l-0.1,0.1l-0.1,0.1l-0.1,0.1 M197.9,181.4l170.9-76.5
	 M369.3,104.1L369.3,104.1l-0.1,0.2v0.4l-0.1,0.1l-0.1,0.1l-0.1,0.1 M369.3,104.1l-0.3,0.1 M197.5,180.9L197.5,180.9 M359.5,102.6
	l0.4-0.1 M369,91.4v12.8 M197.3,166.8h-0.2 M368.3,90.1L368,90 M197.3,166.8H197 M196.9,166.8l0.3,0.1 M197,166.8l0.3-0.1
	 M197.3,166.8v0.4 M197.3,166.8l170.9-76.6 M369.3,91.4l-0.3,0.1 M368.3,90.1l0.3,0.1l0.3,0.1l0.1,0.1l0.1,0.1l0.1,0.3l0.1,0.3v0.3
	l0.1,0.3 M197.3,167.2L197.3,167.2l0.3,0.1l0.1,0.1l0.1,0.1l0.1,0.1l0.1,0.1v0.3 M197.3,166.8v0.5 M197.5,167.8h0.3l0.1-0.1
	 M292.5,404.3h0.3 M368.4,415.8L368.4,415.8l-0.3-0.1h-0.3 M368.9,429.5l0.3-0.3v-0.1l-0.1-0.1 M369,416.9L369,416.9l0.1-0.2
	l-0.3-0.1 M291.9,404.3L291.9,404.3l0.4-0.1h0.1 M198.5,505.5l-0.1,0.5l-0.3,0.4l-0.4,0.3l-0.5,0.1 M369,429.1v0.4l-0.1,0.4h-0.3
	 M368,415.7l-75.6-11.3 M369,429.1v-12.2 M368,415.7h0.3l0.3,0.1l0.1,0.1l0.3,0.1l0.1,0.3l0.1,0.3v0.5 M368,415.7L197.6,492
	 M369,416.9l-170.4,76.4 M197.5,491.9l0.3,0.1l0.3,0.1l0.3,0.1l0.1,0.3l0.1,0.3l0.1,0.3v0.5 M197.5,492.5L197.5,492.5l0.2,0.1
	l0.1,0.1l0.1,0.1l0.1,0.1v0.1l0.1,0.1v0.1 M198.5,493.2l-0.5-0.1 M198.1,493.2L198.1,493.2l-0.6,0.1 M198.5,505.5v-12.2
	 M198.5,493.2l-0.3,0.1l-0.4,0.1h-0.4 M197.5,506.3l0.4-0.3l0.4-0.4l0.3-0.4 M381.8,84l-0.3-0.1 M368.5,90l-0.3-0.1 M381.8,84
	l-13.2,6 M368.5,90v0.3 M184.4,512.4l0.4-0.3l0.4-0.4l0.3-0.5 M197.3,506l0.1,0.4l-0.1,0.3l-0.1,0.1 M197.3,168.3l0.1-0.3v-0.3h-0.1
	 M197.5,506L197.5,506 M197.3,506L197.3,506 M197.3,168.3v337.6 M197,166.8l-0.3-0.1 M185.3,173.7v337.6 M185.3,511.3L185.3,511.3
	L185.3,511.3l-0.2,0.2h-0.1l-0.1,0.1l-0.3,0.1l-0.1,0.1h-0.4l-0.1,0.1 M184.4,173.6l0.4,0.1l0.4,0.1l0.3,0.1 M184.4,173.3
	L184.4,173.3l0.2,0.2 M184.8,173.6L184.8,173.6l-0.3-0.1l-0.3-0.1l0,0 M185.3,173.7L185.3,173.7 M185.3,173.7v-0.3l-0.1-0.3
	l-0.3-0.1l-0.3-0.3l-0.3-0.1l-0.3-0.1 M402.1,421.7V416 M165.4,527.9l236.8-106 M165.4,527.9v-5.7 M165.4,522.2v-0.3l-0.1-0.1
	 M165.4,522.2l236.8-106.1 M113.7,526.7l-26-4.6 M113.5,526.5L113.5,526.5 M145.8,531.5l-22.9-3.4 M149.4,531.3l-3.4,0.3
	 M83.1,519.9l0.1,0.3l0.1,0.4l0.4,0.3l0.5,0.4l0.6,0.3l0.8,0.3l0.8,0.3l0.9,0.3l1,0.3 M122.9,528l-0.3,0.1 M161.9,530.1l3.4-1.6
	 M165.4,521.9v6.6 M165.3,522.1L165.3,522.1 M165.3,521.9L165.3,521.9 M113.5,526.5l9.4,1.5 M148.2,531l1,0.3l1.1,0.1l1.1,0.1
	l1.2,0.1h1.2l1.1-0.1l1.2-0.1l1.1-0.1l1-0.1l1-0.3l0.9-0.3l0.8-0.3l0.6-0.3 M405.6,420.2l0.5-0.3l0.4-0.4l0.3-0.3l0.1-0.4v-0.1
	 M402.1,421.7l3.5-1.6 M382.7,64.8l-0.4-0.1 M382.7,64.8l-0.3,0.1 M382.4,82.9l0.3-0.1 M382.7,82.8V64.8 M382.4,82.9L382.4,82.9
	 M382.4,64.8v18 M382.4,64.8L382.4,64.8 M380.9,63.6l0.3-0.1l0.3,0.1l0.3,0.1l0.3,0.1l0.1,0.1V64 M305.7,52.3L305.7,52.3
	 M107.6,141.8L107.6,141.8 M107.5,141.8l0.3,0.1 M107.2,141.9l0.3-0.1 M305.7,52.4l-0.3-0.1h-0.1l-0.1,0.1 M107.6,141.7v-0.3
	l0.1-0.3l0.1-0.3l0.1-0.3l0.3-0.1l0.3-0.1l0.3-0.1h0.3l0.3-0.1 M184.4,171.7L184.4,171.7l0.2-0.1v-0.3 M184.4,172.2l0.3,0.1l0.3-0.3
	l0.3-0.3v-0.6 M382.4,82.9l-0.1,0.5l-0.4,0.4l-0.4,0.3 M184.4,171.4L184.4,171.4L184.4,171.4 M218.9,108l-0.5,0.3l-0.3,0.3l-0.1,0.3
	l0.1,0.3l0.1,0.3l0.4,0.3l0.5,0.3l0.6,0.3l0.8,0.1l0.8,0.1 M251.7,93.2l-32.9,14.7 M260.2,92.6l-0.9-0.1l-0.9-0.1h-2.9l-0.9,0.1
	l-0.9,0.1l-0.8,0.1l-0.6,0.3l-0.5,0.3 M268.9,94l-8.8-1.4 M271.2,96.1l0.4-0.3l0.4-0.3l0.1-0.3l-0.1-0.3l-0.1-0.3l-0.4-0.3l-0.5-0.3
	l-0.6-0.3l-0.8-0.1l-0.8-0.1 M238.3,110.8l32.9-14.7 M229.9,111.4l0.9,0.1l0.9,0.1h2.7l0.9-0.1l0.9-0.1l0.8-0.3l0.6-0.1l0.5-0.3
	 M221.2,110.1l8.8,1.4 M305.7,52.4l75.2,11.2 M109,140.4l196.7-88 M382.4,82.9v-18 M185.1,171.3L185.1,171.3 M185.1,153.3v18
	 M184.5,153.1L184.5,153.1 M184.5,153.3L184.5,153.3 M184.4,152.4L184.4,152.4v0.3l0.1,0.1v0.3l0.1,0.1v0.1 M185.1,153.3l-0.5-0.1
	 M380.9,63.6l-196.7,88 M184.4,151.6L184.4,151.6l0.4,0.2l0.1,0.1l0.1,0.3v0.3l0.1,0.3l0.1,0.3v0.3 M382.4,64.8v-0.3l-0.1-0.3
	l-0.1-0.3l-0.1-0.1l-0.3-0.3l-0.3-0.1l-0.3-0.1l-0.3-0.1h-0.3 M184.7,171.4l0.4-0.1 M185.1,171.3v-17.9 M185.1,153.3l-0.4,0.1
	 M185.1,153.3l-0.5-0.1 M184.5,153.3l-0.4,0.1 M107.7,141.9L107.7,141.9 M107.2,141.9l0.5,0.1 M107.2,143.3v-1.4 M184.7,171.4
	l-0.4-0.1 M184.7,153.5v17.9 M184.7,153.5l-0.5-0.1 M184.2,153.4L184.2,153.4 M184.4,151.6l-75.2-11.2 M109,140.4l-0.3,0.1l-0.3,0.1
	l-0.3,0.1l-0.3,0.3l-0.3,0.3v0.3l-0.1,0.3v0.3 M184.2,153.3l0.4-0.1 M184.5,153.1L184.5,153.1l-0.1-0.2v-0.5 M184.4,151.6v0.3
	 M184.2,153.3v-2 M263.4,95l0.9,2.8 M247.8,104.1L247.8,104.1 M247.8,104.1l1.8,1.6 M247.8,103.6v0.5 M241.8,106.3l-7.3,3.3
	 M234.5,109.6L234.5,109.6 M234.6,109.6l2.5,0.4 M237.1,110.1L237.1,110.1 M237.1,110.1l-9.1,1.1 M226.7,110.9l-0.8-2.7
	 M225.8,108.3L225.8,108.3 M225.9,108.3l2.5,0.4 M228.4,108.7L228.4,108.7 M228.5,108.7l7.3-3.3 M235.9,105.4h0.3 M236,105.4
	l5.7,0.9 M241.8,106.3L241.8,106.3 M255.1,101.9l1,1 M255.8,102.9l-8,0.5 M247.8,103.5L247.8,103.5 M247.8,103.6l2.1,2 M249.7,105.7
	l-3.9,0.3 M245.7,105.9L245.7,105.9 M245.6,105.9l-2.1-2.1 M243.5,103.8L243.5,103.8 M243.3,103.8l-8.3,0.6 M235,104.4L235,104.4
	L235,104.4 M234.8,104.4l-1-1 M233.9,103.4L233.9,103.4 M233.9,103.4l8.2-0.6 M242.1,102.8L242.1,102.8 M242.2,102.6l-2.2-2.1
	 M240,100.6L240,100.6L240,100.6 M240.1,100.5l4.1-0.3 M244.2,100.2L244.2,100.2 M244.4,100.2l2.1,2.1 M246.6,102.3L246.6,102.3
	 M246.7,102.3l8.2-0.6 M254.9,101.9L254.9,101.9L254.9,101.9 M264.2,97.9l-2.5-0.4 M261.7,97.5L261.7,97.5 M261.5,97.5l-7.3,3.3
	 M254.2,100.8l-6-0.9 M248.1,99.8l7.3-3.3 M255.5,96.6L255.5,96.6 M255.4,96.6l-2.5-0.4 M252.9,96.2L252.9,96.2 M252.9,96.2
	l10.2-1.2 M263.1,95L263.1,95 M264.2,97.9L264.2,97.9 M286.8,117.4l-0.1-0.5v-0.4l-0.3-0.4l-0.3-0.3l-0.3-0.1l-0.3,0.1l-0.3,0.3
	l-0.3,0.4l-0.1,0.4l-0.1,0.5l-0.1,0.5v0.5l0.1,0.5l0.1,0.4l0.1,0.3l0.3,0.1h0.3l0.3-0.1l0.3-0.3l0.3-0.4l0.3-0.5V118L286.8,117.4
	 M285.9,115.9L285.9,115.9 M284.3,113.7H284l-0.4,0.1l-0.4,0.4l-0.4,0.4l-0.3,0.5l-0.3,0.6l-0.3,0.6l-0.1,0.6l-0.1,0.8v1.4l0.1,0.6
	l0.1,0.5l0.3,0.5l0.3,0.4l0.3,0.3l0.4,0.1 M285.8,115.8L285.8,115.8 M285.9,115.7L285.9,115.7 M285.9,115.9v-0.3 M285.8,115.9
	l-0.3,0.3l-0.3,0.4l-0.3,0.5l-0.1,0.5l-0.1,0.5v0.5l0.1,0.5l0.1,0.5l0.3,0.4l0.3,0.3l0.3,0.1l0.3-0.1l0.3-0.1l0.3-0.4l0.3-0.4
	l0.3-0.5l0.1-0.5v-1l-0.1-0.4l-0.1-0.4l-0.3-0.3l-0.3-0.1L285.8,115.9 M284.9,113.9L284.9,113.9l-0.4-0.2h-0.4l-0.4,0.3l-0.4,0.3
	l-0.4,0.4l-0.4,0.5l-0.3,0.6l-0.3,0.6l-0.3,0.6l-0.1,0.8l-0.1,0.8l0.1,0.8l0.1,0.6l0.3,0.5l0.3,0.5l0.3,0.4l0.4,0.3l0.4,0.1l0.4-0.1
	h0.1 M287.3,117.2v-0.6l-0.1-0.5l-0.1-0.5l-0.3-0.4l-0.3-0.3l-0.3-0.1l-0.4,0.1l-0.4,0.3l-0.4,0.3l-0.3,0.5l-0.3,0.5l-0.3,0.6
	l-0.1,0.6v1.9l0.1,0.5l0.3,0.4l0.3,0.3l0.3,0.3h0.4l0.4-0.1l0.4-0.3l0.3-0.4l0.3-0.5l0.3-0.5l0.1-0.6l0.1-0.6V117.2 M286.7,154.4
	h-0.3l-0.4,0.1l-0.5,0.3l-0.5,0.4l-0.4,0.4l-0.5,0.6l-0.4,0.6l-0.4,0.8l-0.3,0.8l-0.3,0.9l-0.1,0.9l-0.1,0.9v1.8l0.1,0.8l0.1,0.8
	l0.3,0.6l0.3,0.5l0.4,0.5l0.4,0.4l0.5,0.3h0.3 M279.5,156.9l1.5,0.3 M281,157.1l-0.4,0.9l-0.3,0.9l-0.1,1l-0.1,0.9v0.9l0.1,0.9
	l0.1,0.9l0.3,0.8l0.4,0.6 M281,164.7l-3-0.5 M261,178.1l3.1,4.2 M272.5,175.6l0.1,0.3l0.3,0.5l0.1,0.6v0.8l-0.1,0.6l-0.3,0.8
	l-0.4,0.8l-0.4,0.8l-0.5,0.8l-0.6,0.6l-0.8,0.6l-0.8,0.5l-0.8,0.4l-0.8,0.4l-0.8,0.3l-0.8,0.1h-1.3l-0.6-0.3l-0.6-0.4l-0.5-0.4
	l-0.3-0.3 M268.5,179.3L268.5,179.3l-0.4-0.2h-0.3l-0.3,0.1l-0.3,0.1l-0.3,0.3l-0.3,0.3l-0.1,0.3v0.3l0.1,0.1 M264.2,182.3l-0.8-0.1
	l-0.6-0.3l-0.6-0.4l-0.3-0.4 M271.6,174.5l0.1,0.4l0.1,0.8l-0.1,0.8l-0.3,0.8 M261,178.1l-0.8-1l-0.6-1l-0.5-0.6 M261.9,178.1
	l-0.5,0.1h-0.5 M267.9,173.9l0.3-0.4l0.1-0.3l0.1-0.3 M261.9,178.1l-0.5-1.2l-0.6-1.5l-0.5-0.9 M261.9,178.1l0.6,0.1l0.6,0.1
	l0.9-0.1l0.9-0.3l0.8-0.4l0.6-0.4l0.5-0.6l0.5-0.6l0.4-0.8l0.3-0.8l0.1-0.4v-0.4 M267.9,173.9l-1-1l-1.1-1.1l-0.6-0.8 M271.5,177.4
	l-2.2-3 M271.5,177.4l-1.8-2.8 M245.6,193.3v-0.4l-0.1-0.4l-0.1-0.5l-0.4-0.4l-0.5-0.4l-0.5-0.5l-0.6-0.4l-0.8-0.4l-0.9-0.4
	 M241.7,189.6l-0.8-0.3l-0.9-0.3l-0.9-0.1l-0.9-0.1l-0.8-0.1l-0.8,0.1l-0.6,0.1l-0.6,0.1l-0.5,0.3l-0.4,0.3l-0.3,0.3l-0.3,0.4
	 M247.7,184.8v0.3 M246.3,185.9l-0.8,3 M245.6,188.9l-0.5-0.5l-0.6-0.4l-0.8-0.5l-0.9-0.4l-0.9-0.4l-0.9-0.3l-0.9-0.3l-0.9-0.3h-0.9
	 M238.4,186.3l0.4-1.5 M245.6,193.3v-0.4l-0.1-0.4l-0.1-0.5l-0.4-0.4l-0.5-0.4l-0.5-0.5l-0.6-0.4l-0.8-0.4l-0.9-0.4 M241.7,189.6
	l-0.8-0.3l-0.9-0.3l-0.9-0.1l-0.9-0.1l-0.8-0.1l-0.8,0.1l-0.6,0.1l-0.6,0.1l-0.5,0.3l-0.4,0.3l-0.3,0.3l-0.3,0.4 M203.1,356.8V356
	l-0.3-0.5l-0.4-0.4l-0.5-0.5l-0.6-0.4l-0.6-0.4l-0.8-0.4l-0.8-0.4 M199.3,353.2l-0.9-0.4l-0.9-0.3 M353.7,283.8l0.1,0.3l0.3,0.6
	l0.1,0.6l0.1,0.6l-0.1,0.8l-0.3,0.8l-0.3,0.5l-0.4,0.8l-0.5,0.6l-0.6,0.6l-0.6,0.6l-0.8,0.5l-0.8,0.5l-0.9,0.4l-0.8,0.3l-0.8,0.1
	h-0.8l-0.8-0.1l-0.6-0.3l-0.6-0.4l-0.5-0.4l-0.3-0.3 M272.5,175.6l0.1,0.3l0.3,0.5l0.1,0.6v0.8l-0.1,0.6l-0.3,0.8l-0.4,0.8l-0.4,0.8
	l-0.5,0.8l-0.6,0.6l-0.8,0.6l-0.8,0.5l-0.8,0.4l-0.8,0.4l-0.8,0.3l-0.8,0.1h-1.3l-0.6-0.3l-0.6-0.4l-0.5-0.4l-0.3-0.3 M448.1,178.6
	l-0.3-0.1l-0.5,0.1l-0.4,0.3l-0.5,0.4l-0.5,0.4l-0.4,0.6l-0.4,0.6l-0.4,0.8l-0.3,0.8l-0.3,0.9l-0.1,0.9l-0.1,0.9v1.8l0.1,0.8
	l0.1,0.8l0.3,0.6l0.3,0.5l0.4,0.5l0.4,0.3l0.4,0.3l0.3,0.1 M286.7,154.4h-0.3l-0.4,0.1l-0.5,0.3l-0.5,0.4l-0.4,0.4l-0.5,0.6
	l-0.4,0.6l-0.4,0.8l-0.3,0.8l-0.3,0.9l-0.1,0.9l-0.1,0.9v1.8l0.1,0.8l0.1,0.8l0.3,0.6l0.3,0.5l0.4,0.5l0.4,0.4l0.5,0.3h0.3
	 M353.8,284l0.3,0.3l0.3,0.5l0.1,0.6v1.2l-0.3,0.8l-0.4,0.8l-0.5,0.6l-0.5,0.8l-0.6,0.6l-0.6,0.6l-0.8,0.5l-0.8,0.4l-0.8,0.4
	l-0.8,0.3l-0.8,0.1h-0.8l-0.8-0.1l-0.6-0.3l-0.6-0.4l-0.5-0.4l-0.3-0.3 M353.7,283.8l0.1,0.3l0.3,0.6l0.1,0.6l0.1,0.6l-0.1,0.8
	l-0.3,0.8l-0.3,0.5l-0.4,0.8l-0.5,0.6l-0.6,0.6l-0.6,0.6l-0.8,0.5l-0.8,0.5l-0.9,0.4l-0.8,0.3l-0.8,0.1h-0.8l-0.8-0.1l-0.6-0.3
	l-0.6-0.4l-0.5-0.4l-0.3-0.3 M203.1,356.8V356l-0.3-0.5l-0.4-0.4l-0.5-0.5l-0.6-0.4l-0.6-0.4l-0.8-0.4l-0.8-0.4 M199.3,353.2
	l-0.9-0.4l-0.9-0.3 M197.5,358.3l0.4,0.1l0.9,0.1l0.9,0.1h0.8l0.8-0.1l0.6-0.1l0.5-0.3l0.4-0.3l0.4-0.3l0.1-0.4l0.1-0.4l-0.1-0.4
	l-0.3-0.5l-0.4-0.4l-0.5-0.5l-0.6-0.4l-0.6-0.4L200,354l-0.8-0.4 M199.3,353.5l-0.9-0.4l-0.8-0.3 M448.1,178.6l-0.3-0.1l-0.5,0.1
	l-0.4,0.3l-0.5,0.4l-0.5,0.4l-0.4,0.6l-0.4,0.6l-0.4,0.8l-0.3,0.8l-0.3,0.9l-0.1,0.9l-0.1,0.9v1.8l0.1,0.8l0.1,0.8l0.3,0.6l0.3,0.5
	l0.4,0.5l0.4,0.3l0.4,0.3l0.3,0.1 M450.6,183.2v-0.9l-0.1-0.8l-0.1-0.8l-0.3-0.6l-0.3-0.5l-0.4-0.5l-0.4-0.4l-0.5-0.3h-0.4l-0.5,0.1
	l-0.4,0.3l-0.5,0.4l-0.5,0.5l-0.4,0.5l-0.4,0.6l-0.4,0.8l-0.4,0.9l-0.3,0.8l-0.1,0.9l-0.1,0.9v1.8l0.1,0.8l0.1,0.8l0.3,0.6l0.4,0.6
	l0.4,0.4l0.4,0.4l0.4,0.3l0.5,0.1l0.5-0.1l0.4-0.3l0.5-0.4l0.4-0.5l0.5-0.5l0.4-0.6l0.4-0.8l0.3-0.8l0.3-0.9l0.1-0.9l0.1-0.9
	L450.6,183.2 M267.5,179.9l0.4-0.3l0.4-0.1h0.4l0.3,0.1l0.3,0.3v0.3l-0.1,0.4l-0.3,0.3l-0.4,0.3l-0.4,0.1h-0.4l-0.3-0.1l-0.1-0.3
	v-0.4l0.1-0.3L267.5,179.9 M280.7,166.1L280.7,166.1L280.7,166.1l0.4,0.2l0.4,0.1h0.8l0.3-0.1l0.3-0.1v-0.1 M246.8,190.6
	L246.8,190.6l0.1-0.3l0.3-0.3l0.1-0.4l0.1-0.4l0.1-0.4v-0.4h-0.1 M271.3,170.1L271.3,170.1l-0.1-0.3l-0.1-0.3l-0.3-0.4l-0.3-0.4
	l-0.3-0.4l-0.3-0.4l-0.3-0.4l-0.3-0.3l-0.1-0.3h-0.1l0.1,0.3l0.1,0.3l0.3,0.4l0.3,0.4l0.3,0.4l0.3,0.4l0.3,0.4l0.3,0.3L271.3,170.1
	 M246,181.4l0.3-0.4l0.1-0.4v-0.5l-0.1-0.5l-0.3-0.4l-0.4-0.4l-0.4-0.3l-0.5-0.1h-0.5l-0.4,0.1l-0.4,0.3l-0.3,0.4l-0.1,0.4l-0.1,0.5
	l0.1,0.5l0.3,0.4l0.4,0.4l0.4,0.3l0.4,0.1h0.5l0.5-0.1L246,181.4 M243.5,179L243.5,179l0.6-0.4l0.5-0.1l0.5,0.1l0.5,0.3l0.4,0.3
	l0.4,0.4l0.3,0.5l0.1,0.5v0.5l-0.3,0.5l-0.3,0.3 M246,181.7l-0.4,0.3 M273.9,162.6l-0.4,0.1h-0.3 M273.7,162.5l0.4-0.3l0.3-0.4
	l0.1-0.4l0.1-0.5l-0.1-0.5l-0.3-0.5l-0.3-0.4l-0.4-0.4l-0.4-0.1h-0.5l-0.4,0.1l-0.4,0.3l-0.3,0.4l-0.1,0.4v0.5l0.1,0.5l0.3,0.5
	l0.4,0.4l0.4,0.4l0.4,0.1h0.5L273.7,162.5 M270.9,175L270.9,175L270.9,175 M261.7,179.3L261.7,179.3 M262,180.8L262,180.8L262,180.8
	L262,181l-0.1,0.1v0.1h-0.1v0.1h-0.1 M269.1,174.2L269.1,174.2 M269.2,174.1L269.2,174.1 M262,179.8L262,179.8L262,179.8l0.2-0.1
	 M261.7,179.3L261.7,179.3 M261.7,179.3L261.7,179.3 M262,179.9L262,179.9l-0.1,0.3 M261.2,179.7l0.8,0.5 M262,180.8L262,180.8
	l-0.4-0.4l-0.4-0.5 M262.1,180.8L262.1,180.8L262.1,180.8L262.1,180.8 M261.9,180.2l0.3,0.5 M270.7,175L270.7,175l-0.4-0.4l-0.4-0.5
	 M270.7,175h0.4v-0.1h0.1l0.1-0.1 M269.2,174.2l0.4,0.3 M269.4,174.1L269.4,174.1 M269.4,174.1L269.4,174.1 M269.6,174.4
	L269.6,174.4 M270.1,174.4h-0.3l-0.1,0.1l-0.1,0.1h-0.1 M258.2,181.3l0.5,0.6l0.4,0.3 M261.8,179.2L261.8,179.2L261.8,179.2
	l-0.1,0.2 M268.5,173.3l0.3,0.3l0.1,0.3l0.4,0.4 M269.1,174.2L269.1,174.2L269.1,174.2 M261.5,179.4L261.5,179.4l-0.2,0.2
	 M261.5,179.4L261.5,179.4L261.5,179.4 M261,178.4l0.6,0.9 M261.2,178.4L261.2,178.4 M261.4,179.9L261.4,179.9L261.4,179.9l-0.4,0.1
	v0.1H261 M261.4,179.9l-0.3-0.3 M261.2,179.7L261.2,179.7 M261.3,179.6l-0.5-0.8 M269.5,174.1L269.5,174.1L269.5,174.1 M269.5,174.1
	L269.5,174.1l0.2-0.2 M268.6,173.3l0.6,0.8 M268,172.7l0.3,0.4l0.3,0.4 M268.5,173.3L268.5,173.3 M270,174.1l-0.3-0.3 M270,174.1
	L270,174.1L270,174.1l0.2-0.1v-0.1h0.1 M269.6,173.8l-0.5-0.6 M269.7,173.8L269.7,173.8 M261,178.4L261,178.4l-0.2,0.2l-0.1,0.1v0.1
	 M260.6,177.7l0.5,0.8 M260.2,177.8L260.2,177.8L260.2,177.8l0.1-0.2v-0.1l0.1-0.1v-0.1l0.1-0.1 M268,172.7L268,172.7l-0.3-0.4
	 M268,172.7l0.6,0.6 M268.6,173.3L268.6,173.3l0.2-0.2h0.3 M259.5,176.8L259.5,176.8L259.5,176.8l0.2-0.2l0,0l0.1-0.1l0.1-0.1
	 M261.8,181.2l-0.3-0.4l-0.5-0.6 M267.8,172.2l-0.3-0.3l-0.1-0.3l-0.3-0.3 M266.7,170.8l0.5,0.6 M261.8,179.3L261.8,179.3
	 M261.8,179.3L261.8,179.3 M259.3,175.6l0.1,0.3l0.5,0.8 M259.7,176.6l0.3,0.4l0.3,0.3l0.1,0.3 M260.4,177.4l0.3,0.4 M261.2,178.4
	l-0.3-0.3l-0.4-0.5 M261.8,179.2l-0.3-0.3l-0.1-0.3l-0.4-0.5 M271.2,174.8l-0.4-0.4l-0.5-0.5 M260.2,177.8l-0.4-0.5l-0.3-0.4
	 M260.5,179.3L260.5,179.3l0.3-0.3l0.1-0.3v-0.1 M260.8,178.8l-0.6-1 M260.2,177.8l-0.5-0.8l-0.4-0.5 M269.1,173.2l-0.9-1
	 M269.6,173.1L269.6,173.1l-0.2,0.1h-0.3 M259,177.4L259,177.4l0.2-0.2l0.1-0.1l0.1-0.1v-0.4l-0.1-0.1 M259.1,176.5l-0.1-0.3
	 M271.5,170.1L271.5,170.1l0.1,0.2L271.5,170.1l-0.4-0.4l-0.4-0.5l-0.4-0.6l-0.4-0.6l-0.3-0.5l-0.3-0.3v-0.1 M269.5,167.1
	L269.5,167.1l0.4,0.4 M269,166.8L269,166.8 M272.2,171.7l0.5,0.6l0.3,0.3h0.1l-0.1-0.3l-0.4-0.6l-0.5-0.9l-0.8-1.1 M271.5,169.7
	L271.5,169.7 M254.1,175.9l-0.3-0.3l-0.1-0.4v-0.3l0.1-0.3l0.1-0.1l0.1-0.1l0.1-0.1h0.1l0.1-0.1h0.1 M254.1,175.9l2.4,3l1.9,2.4
	 M259.4,181.3L259.4,181.3l-0.2,0.2H259l-0.3,0.1l-0.1-0.1h-0.1l-0.1-0.1l-0.1-0.1 M271.9,172.7L271.9,172.7l0.2-0.2l0.1-0.1v-0.3
	l0.1-0.1l-0.1-0.1v-0.1 M268.1,166.2l2.2,3l1.9,2.5 M254.3,174.7L254.3,174.7l0.1-0.2 M259.4,181.3l-0.9-1l-0.8-1l-0.8-0.9l-0.8-1
	l-0.8-1l-0.6-0.9l-0.6-0.8 M261,180.2l-0.3,0.1l-0.3,0.1l-0.3,0.3v0.1l-0.3,0.1l-0.3,0.1l-0.3,0.1l-0.3,0.1 M261,180.2l-0.4-0.5
	l-0.3-0.4 M260.5,179.3l-1.5-2 M259,177.4l-0.3-0.6l0.1-0.8l0.3-0.4l0.3-0.5l0.8-0.8 M260,174.4l2.4-1.8 M264.9,171.1l-2.7,1.6
	 M268.1,171.1l-0.6-0.4l-0.8-0.1h-0.5l-0.5,0.1l-0.9,0.4 M269.6,173.1l-1.5-2 M270.3,173.9l-0.4-0.5l-0.3-0.3 M270.3,173.9l0.3-0.1
	l0.3-0.3l0.3-0.1l0.3-0.1l0.3-0.1l0.3-0.3l0.3-0.1l0.3-0.1 M284.3,148.5l-0.3,0.4 M284.6,150.3l0.3-0.4l0.3-0.4v-0.1 M283.2,146.8
	L283.2,146.8 M263.4,166.1l-0.3-0.3l-0.3-0.3l-0.3-0.1h-0.3 M268.2,161.3l0.3-0.1l0.3,0.1l0.3,0.1l0.3,0.3 M234.1,184.7l0.3,0.1
	l0.1,0.1 M261.4,167L261.4,167 M247.1,175.7L247.1,175.7L247,176l0.1,0.3l0.1,0.3 M253.7,172.7l-0.1-0.3l-0.1-0.3v-0.3l0.1-0.1
	 M235,185L235,185 M235.3,185.3l-0.1-0.6 M239.2,185.1L239.2,185.1 M239.2,185.1L239.2,185.1 M246.7,185.8L246.7,185.8 M242,186.6
	L242,186.6L242,186.6 M245.8,181.8l0.4-0.4l0.4-0.6V180l-0.1-0.4l-0.3-0.4l-0.3-0.4l-0.4-0.3l-0.4-0.3l-0.4-0.1h-0.6l-0.5,0.3
	l-0.4,0.4l-0.3,0.5l-0.1,0.4v0.4l0.1,0.4l0.3,0.4l0.3,0.4l0.4,0.3l0.4,0.3l0.4,0.1l0.6-0.1H245.8 M281.7,153.1L281.7,153.1
	 M282.1,153.7L282.1,153.7l-0.8-0.5 M272.1,159.4l-0.4,0.4l-0.3,0.5v0.4l0.1,0.4l0.1,0.4l0.3,0.4l0.3,0.4l0.4,0.3l0.4,0.1l0.4,0.1
	h0.6l0.5-0.3l0.4-0.4l0.3-0.6v-0.8l-0.1-0.5l-0.3-0.4l-0.8-0.1l-0.4-0.3l-0.4-0.1h-1L272.1,159.4 M280,161.3l-0.1,0.3 M277.7,164.5
	L277.7,164.5 M240.4,184.1L240.4,184.1 M279.7,157.5L279.7,157.5 M280.1,160.7L280.1,160.7L280.1,160.7 M280.1,160.5L280.1,160.5
	 M279.7,157.5L279.7,157.5 M236.8,178.4L236.8,178.4l-0.2,0.4l-0.1,0.3l-0.1,0.3 M281.5,152.4l0.1,0.3v0.1 M236.4,178.3L236.4,178.3
	l-0.2,0.4l-0.1,0.3l-0.1,0.3 M234,178.1L234,178.1l-0.2,0.2v0.1 M228.5,183.9L228.5,183.9l0.2-0.1l0.1,0.1 M234.6,188.1l-0.6-1
	l-0.3-0.9v-0.8l0.4-0.6 M238.1,184.4l-1.2-0.3l-1.1-0.1l-0.9,0.3l-0.6,0.4 M239,184.8l-0.5-0.4l-0.4-0.1 M239.3,185l-0.3-0.1
	l-0.1-0.1 M240.4,184.1l-0.4,0.4l-0.4,0.4l-0.4,0.4 M233.9,178.4h0.5l0.6,0.3l1.1,0.6 M233.9,178.4l2.2,2l1.3,1.2l1.5,1.2l1.3,1.2
	 M240.4,184.1l0.3-0.1l0.1-0.3l0.1-0.3l0.1-0.1 M278,158.4L278,158.4 M268.5,161.1h0.3l0.3,0.1l0.3,0.1l0.3,0.1 M277.3,158.6
	l0.3-0.1l0.3-0.1l0.3-0.1l0.3-0.1 M273.9,153.1h0.3l0.3,0.1l0.3,0.1l0.3,0.1 M274,152.9l0.3-0.1h0.3l0.3,0.1h0.3 M241,183.4
	l-0.3,0.3l-0.1,0.1l-0.3,0.3l-0.1,0.1 M247.1,175.7L247.1,175.7l-0.2,0.2 M246.8,175.9l-0.1,0.3v0.5l0.1,0.3 M237.1,178.3l-0.1,0.3
	v0.5l0.1,0.3 M271.9,159.2l0.5-0.3h0.6l0.6,0.4l0.5,0.5l0.4,0.6l0.1,0.8l-0.3,0.6l-0.4,0.5l-0.6,0.4l-0.6-0.1l-0.6-0.3l-0.5-0.5
	l-0.4-0.8l-0.1-0.8l0.1-0.6L271.9,159.2 M275,152.7v0.3 M275,152.9l-0.1,0.4l-0.3,0.3 M274.7,153.5l-3,4.5l-2.5,3.4 M269.2,161.4
	l-0.1,0.3l-0.1,0.1 M269,161.6l-5.6,4.5 M263.4,166.1l5.6-0.4l4.3-0.3 M273.4,165.5l1.2-0.3l1-0.5l0.9-0.9l0.6-1l0.4-1.4v-1.5
	l-0.4-1.5 M277.3,158.6L277.3,158.6 M237.1,178.3l-0.2,0.1h-0.4 M274,152.7l0.3-0.1h0.5l0.3,0.1 M275.1,150.3L275.1,150.3
	L275.1,150.3l-0.1,0.4l-0.1,0.6l0.1,1.4 M277.3,158.6l-0.8-2l-0.5-1.4l-0.5-1.4l-0.5-1.4 M278,158.4l-0.3,0.1l-0.3,0.1l-0.3,0.1
	l-0.3,0.1 M283.3,146.4L283.3,146.4l-0.1,0.4 M274.7,150.3l0.3-0.1h0.1l0.1,0.1 M275.1,150.3l1,2.7l0.6,1.8l0.6,1.8l0.6,1.8
	 M278,158.4l0.5-0.3l0.5-0.3l0.5-0.3 M279.5,157.5l-0.1-0.3l-0.1-0.1 M279.5,157.3l-0.1-0.6v-0.4 M279.4,156.2l0.3-1.4l0.5-1
	l0.6-0.9l0.8-0.5 M284.7,153.8l-0.8-0.9l-0.9-0.5l-0.9-0.3l-0.8,0.3 M279.8,160.7l-0.3,1.1L279,163l-0.6,0.9l-0.8,0.8 M279.5,157.5
	l0.4,1.6v1.6 M278,158.4l0.3-0.1l0.1-0.1l0.3-0.1l0.3-0.1l0.3-0.1l0.1-0.1l0.3-0.1l0.3-0.1 M248.1,184.5L248.1,184.5 M240.4,184.1
	L240.4,184.1l-0.2,0.2l-0.1,0.1l-0.1,0.1l-0.1,0.1l-0.1,0.1l-0.1,0.1l-0.1,0.1 M242.1,186.6l-1.5-0.5l-1.3-0.9 M242.1,186.6l1.1,0.3
	l1.2-0.1l1.1-0.3l1-0.6 M257.3,168.3L257.3,168.3 M268.2,161.3L268.2,161.3l0.2-0.2 M273.9,153.1L273.9,153.1l0.1-0.3l0.1-0.1v-0.1
	 M245.8,181.8l-0.6,0.3h-0.6l-0.6-0.4l-0.5-0.6l-0.4-0.6v-0.8l0.3-0.6l0.5-0.5l0.6-0.3l0.8,0.1l0.6,0.4l0.5,0.5l0.3,0.8l0.1,0.8
	l-0.3,0.6L245.8,181.8 M236.2,179.2L236.2,179.2l0.2,0.1 M241,183.4l-1.6-1.5l-1-1l-1-0.9l-1-0.9 M241,183.4L241,183.4 M249.1,182.1
	l-0.8,1l-0.9,0.9l-1.1,0.6l-1.2,0.3l-1.5-0.1l-1.3-0.5l-1.1-0.9 M253.7,172.7l-2.7,5.2l-2,4.1 M247.2,176.6l6.5-3.9 M246.8,176.8
	l0.3-0.1l0.1-0.1 M237.1,179.2l5.5-1.4l4.2-1 M236.4,179.2l0.5,0.1l0.3-0.1 M253.4,174.8L253.4,174.8l0.5-0.4l0.5-0.4l0.5-0.4
	l0.5-0.4 M255.3,173.6l0.4-0.4l0.4-0.3l0.1-0.3l0.1-0.1h-0.3l-0.3,0.1l-0.4,0.1L255,173l-0.5,0.3l-0.5,0.4h-0.1 M264.3,166.8
	l-0.3,0.1l-0.3,0.3l-0.3,0.3v0.3l0.1-0.1l0.3-0.1l0.4-0.3l0.5-0.3l0.5-0.4l0,0 M260,168.6l0.4-0.4l0.3-0.3l0.3-0.3l0.1-0.1h-0.2
	l-0.3,0.1l-0.4,0.3l-0.4,0.3l-0.5,0.3l-0.5,0.4l-0.5,0.4l-0.5,0.4l-0.5,0.4l-0.4,0.4l-0.3,0.3l-0.3,0.1l-0.1,0.1l0.1,0.1h0.1
	l0.3-0.1l0.4-0.1l0.4-0.3l0.5-0.3l0.5-0.4l0.5-0.4l0.5-0.4L260,168.6 M261.5,166.8l-0.3,0.1L261,167h-0.1l0.1-0.3l0.3-0.3l0.4-0.4
	l0.9-0.8 M262.7,165.7l5.6-4.3 M268.2,161.3L268.2,161.3L268.2,161.3l-0.2,0.2h-0.2l-0.1,0.1h-0.1l-0.1,0.1 M257.3,168.3l1.3-0.9
	l1.3-0.9l1.3-0.9l1.3-0.9l1.3-0.9l1.3-0.8l1.2-0.8l1.2-0.8 M247.1,175.7l1-0.9l1.1-0.9l1.1-0.9l1.3-0.9l1.3-1l1.3-1l1.3-0.9l1.5-1
	 M253.6,171.9l-6.5,3.9 M255.3,171.1l0.3-0.1l0.1-0.1v-0.1l0,0l-0.3,0.1l-0.4,0.3l-0.4,0.3l-1,0.6 M253.8,176.3l-1.3,0.8l-0.5,0.4
	 M252.9,175.7l0.9,0.6 M254.3,174.4l-0.3,0.1l-0.3,0.1l-0.3,0.1l-0.1,0.3l-0.3,0.3l-0.3,0.3l-0.1,0.1v0.3 M266,166.6l-0.4,0.3
	l-0.8,0.6l-0.9,0.6l-0.9,0.8l-1,0.6l-1,0.8l-1,0.6l-1,0.6l-1,0.6l-1,0.6l-1,0.6l-0.9,0.5l-0.9,0.5 M239.5,176l-0.1,0.5 M254.7,165.1
	L254.7,165.1l-0.2-0.2 M271.2,154.7h-0.5 M257.2,168.3l-1.5,1l-1.3,1l-1.3,1l-1.3,1l-1.2,0.9l-1.2,1l-1.1,0.9l-1.1,0.9 M257.2,168.3
	l1.5-1l1.5-0.9l1.5-1l1.5-0.9l1.5-0.9l1.3-0.9l1.3-0.9l1.3-0.8 M268.5,161.1l5.4-7.9 M273.9,153.1l-0.3,0.1l-0.3,0.1 M273.4,153.5
	l-1.2,0.6l-1,0.6 M254.7,165.1l1.8-1.1l1.8-1.1l1.8-1.1l1.8-1.1l1.8-1l1.6-1l1.8-1l1.6-1l1.6-0.9l1.5-0.9 M239.3,176.6l1.2-1l1.3-1
	l1.3-1.1l1.5-1.1l1.5-1.1l1.6-1.1l1.6-1.2l1.6-1.1l1.8-1.1l1.8-1.2 M237.5,178.1l1-0.9l0.9-0.6 M237.1,178.3l0.3-0.1l0.1-0.1
	 M246.8,175.9l-9.7,2.5 M254.4,165l-1.9,1.2l-1.8,1.2l-1.8,1.4l-1.8,1.2l-1.8,1.2l-1.6,1.2l-1.6,1.1l-1.5,1.1l-1.5,1.1 M270.7,154.7
	l-1.8,1l-1.8,1l-1.8,1l-1.8,1.1l-1.9,1.1l-1.9,1.1l-1.9,1.2l-1.9,1.1l-1.9,1.4 M270.7,154.7l1.6-0.9l1.2-0.6 M273.6,153.1l0.3-0.1
	l0.3-0.1 M274,152.9v-0.4 M274,152.7l0.3-1.1l0.3-0.6l0.3-0.5 M236.4,178.3l-1.1-0.3l-0.8-0.1l-0.5,0.1 M236.8,178.4l-0.3-0.1h-0.1
	 M237.1,178.1l-0.3,0.3l-0.1,0.1 M239.5,176l-1.3,1.1l-1,0.9 M228.5,183.9l0.4-0.5l0.5-0.6l0.5-0.6l0.6-0.8l0.8-0.8l0.9-0.8l0.9-0.9
	l1-0.9 M274.7,150.3l-1.5,0.7l-1.6,0.9l-1.6,0.9l-1.6,1l-1.6,1l-1.8,1l-1.8,1.1l-1.9,1.1l-1.8,1.1l-1.9,1.1l-1.8,1.2l-1.9,1.2
	l-1.9,1.2l-1.8,1.2l-1.8,1.2l-1.8,1.1l-1.8,1.2l-1.6,1.2l-1.6,1.1l-1.5,1.1l-1.5,1.1l-1.3,1.1l-1.3,1l-1.2,1l-1.2,1 M274.7,150.3
	l1.3-0.8l1.2-0.6l1.2-0.6l1.1-0.5l1-0.5l0.9-0.4l0.9-0.4l0.8-0.3 M283.3,146.4l0.6-0.1l0.6-0.1h0.4l0.4,0.1l0.3,0.3l0.1,0.3v0.3
	 M228.5,183.9l-0.3,0.4v0.6l0.1,0.3l0.3,0.1l0.1,0.1 M258.8,169l0.3,0.3 M257.8,169.6L257.8,169.6 M257.9,169.7L257.9,169.7l0.6-0.4
	l0.5-0.1 M257.8,169.7l0.3,0.1 M257.5,169.8L257.5,169.8 M259,169.1l0.4-0.4l0.4-0.3 M259.7,168.4L259.7,168.4L259.7,168.4h-0.4
	l-0.3,0.1l-0.4,0.3l-0.4,0.3l-0.4,0.3l-0.3,0.3l-0.3,0.3l-0.1,0.1v0.1h0.1l0.3-0.1l0.3-0.1l0.4-0.3l0.4-0.3l0.4-0.3l0.3-0.3
	L259.7,168.4L259.7,168.4 M260.6,168L260.6,168v-0.2l-0.3,0.1l-0.3,0.1l-0.4,0.3l-0.4,0.3l-0.5,0.4l-0.5,0.3l-0.5,0.4l-0.4,0.4
	l-0.4,0.3l-0.4,0.3l-0.3,0.3l-0.1,0.3v0.1h0.1l0.3-0.1l0.3-0.3l0.4-0.3l0.4-0.3l0.5-0.3l0.5-0.4l0.5-0.4l0.4-0.3l0.4-0.4l0.3-0.3
	L260.6,168 M254.1,173.8l0.1,0.3 M253.7,174.4L253.7,174.4l0.6-0.2 M254.3,174.1l0.4-0.4l0.4-0.3 M253.4,174.8l0.4-0.3l0.5-0.4
	l0.5-0.4l0.4-0.3l0.4-0.3l0.3-0.3l0.1-0.3 M255.9,172.9L255.9,172.9L255.9,172.9L255.9,172.9l-0.4,0.1l-0.4,0.3l-0.4,0.3l-0.5,0.4
	l-0.4,0.3 M253.6,174.5L253.6,174.5l0.4-0.4l0.4-0.3l0.3-0.3l0.3-0.3l0.1-0.1 M255.1,173.5h-0.3l-0.3,0.1l-0.4,0.3l-0.4,0.3
	l-0.1,0.1 M265.1,166.4L265.1,166.4 M265.1,166.4l0.3,0.1 M264.3,166.8l-0.3,0.3l-0.1,0.1l-0.1,0.1v0.1h0.1l0.3-0.1l0.4-0.1l0.4-0.3
	l0.5-0.3 M264.9,166.6h0.3 M108.6,313.2l0.1,1l0.3,1l0.4,1l0.5,1l0.5,0.9l0.6,0.9l0.8,0.8l0.8,0.6l0.9,0.5l0.9,0.4l0.9,0.3
	 M115.1,321.4l6.5,1 M115.1,321.4l-0.3,0.1 M121.5,322.4l0.9,0.1l0.9-0.1l0.9-0.3l0.3-0.1 M121.5,322.4l-0.3,0.1 M108.6,270v43.2
	 M108.6,313.2l-0.3,0.1 M112,264.2l-0.4,0.3l-0.8,0.5l-0.6,0.6l-0.5,0.8l-0.5,0.9l-0.4,0.9l-0.3,1l-0.1,1 M108.6,270l-0.3,0.1
	 M184.2,513L184.2,513L184.2,513l0.1-0.2 M83,513.2v0.3l0.3,0.4l0.4,0.4l0.4,0.3l0.6,0.3l0.8,0.3l0.8,0.3l0.9,0.3l1,0.3
	 M127.6,316.2V273 M121.3,322.5l0.9,0.1l0.9-0.1l0.9-0.3l0.8-0.4l0.8-0.5l0.6-0.6l0.6-0.8l0.4-0.9l0.4-0.9l0.3-0.9l0.1-1
	 M114.8,321.5l6.5,1 M108.3,313.3l0.1,1l0.3,1l0.4,1l0.4,1l0.6,0.9l0.6,0.9l0.8,0.8l0.8,0.6l0.9,0.5l0.9,0.4l0.9,0.3 M108.3,270.1
	v43.2 M114.8,263.9l-0.9-0.1l-0.9,0.1l-0.9,0.3l-0.8,0.4l-0.8,0.5l-0.6,0.6l-0.6,0.8l-0.4,0.9l-0.4,0.9l-0.3,1l-0.1,1 M121.3,264.9
	l-6.5-1 M127.6,273.1l-0.1-1l-0.3-1l-0.4-1l-0.4-1l-0.6-0.9l-0.6-0.9l-0.8-0.8l-0.7-0.7l-0.9-0.5L122,265l-0.9-0.3 M87.8,188.1
	v327.4 M87.8,515.4l60.4,9.1 M161.7,523.5l3.6-1.6 M184.2,155.5V513 M161.7,190.6v332.9 M148.2,197.1v327.4 M148.2,524.5l1,0.1
	l1.1,0.1l1.1,0.1h2.4l1.2-0.1l1.2-0.1l1.1-0.1l1-0.3l0.9-0.1l0.9-0.3l0.8-0.3l0.6-0.3 M87.8,188.1l-0.9-0.3l-0.9-0.3l-0.8-0.4
	l-0.6-0.5l-0.6-0.5l-0.5-0.6l-0.4-0.6l-0.3-0.8l-0.1-0.8v-0.8l0.1-0.8 M148.2,197.1l-60.4-8.9 M161.7,190.6l-0.6,0.9l-0.8,0.9
	l-0.8,0.8l-0.9,0.8l-1,0.8l-1,0.6l-1.1,0.5l-1,0.5l-1.1,0.4l-1.1,0.4l-1.1,0.3l-1,0.1h-1l-1-0.1 M184.2,155.5l-22.5,35.1
	 M183.8,154.6L183.8,154.6l0.4,0.2l0.1,0.1l0.1,0.1v0.4l-0.1,0.1v0.3 M183.8,154.6L183.8,154.6 M407.1,82.8L407.1,82.8l-0.3-0.4
	l-0.3-0.4l-0.4-0.4l-0.4-0.4 M405.8,414.1l0.5-0.3l0.4-0.3l0.3-0.4l0.1-0.3v-0.1 M383.3,66.3l22.5,14.9 M401.9,416.1l3.9-2
	 M383.3,66.3L383.3,66.3l-0.3-0.1l-0.3-0.1l-0.1-0.1 M88.5,187.9l-1-0.3l-0.9-0.3l-0.9-0.4l-0.8-0.5l-0.6-0.5l-0.5-0.6l-0.4-0.6
	v-0.3 M161,191.2l22.9-36 M184.1,155.3l-0.1-0.5 M88.5,187.9l59.4,8.8 M88.5,187.9l-0.1-0.4 M147.9,196.7l-0.1-0.4 M147.9,196.7
	l1,0.1h1.1l1.2-0.1l1.2-0.3l1.1-0.4l1.1-0.4l1.1-0.5l1-0.5l1-0.6l0.9-0.6l0.9-0.8l0.8-0.8l0.6-0.8 M161,191.2l-0.3-0.5 M183.5,154.1
	l-0.5-0.1 M107.1,143.4l1.1-0.5 M84,179.3l23.1-35.9 M88.5,187.4l-1-0.3l-1-0.4l-0.9-0.4l-0.8-0.5l-0.6-0.5l-0.5-0.6l-0.4-0.8
	l-0.3-0.8l-0.1-0.8l0.1-0.8l0.3-0.9l0.4-0.9l0.5-0.8 M88.5,187.4l59.4,8.8 M147.9,196.4l1,0.1h1.1l1.1-0.1l1.2-0.3l1.2-0.4l1.1-0.4
	l1.1-0.5l1-0.5l1-0.6l0.9-0.6l0.9-0.8l0.6-0.8l0.6-0.9 M160.9,190.8l23.1-36 M183.8,154.9l-0.4-0.8 M407,82.3L407,82.3v-0.4
	l-0.3-0.3l-0.4-0.4l-0.5-0.4 M406,81L383,65.6 M383,65.6l-0.3-0.1 M382.8,66.1l0.1-0.5 M111.7,301.2L111.7,301.2 M117.8,312.6
	L117.8,312.6 M117.8,312.6l1.6-1.5 M117.5,312.7l0.3-0.1 M119.3,311.1L119.3,311.1L119.3,311.1 M119,311.2l0.4-0.1 M111.7,301.1
	l3.4-3.3 M111.3,301.2l0.4-0.1 M119.3,310.9l-7.7-9.7 M111.3,301.4l0.4-0.1 M119,311.1l0.4-0.1 M111.7,282.9L111.7,282.9
	L111.7,282.9L111.7,282.9 M123,307.5L123,307.5 M125.9,315.4l-8-2.7 M117.5,312.7l0.4-0.1 M114.1,285.9l-2.4-3 M111.3,283.1l0.4-0.1
	 M123,307.5l1.4-1.3 M122.8,307.6l0.3-0.1 M111.7,272.2L111.7,272.2L111.7,272.2 M111.7,282.8l4.8-4.5 M111.3,282.9l0.4-0.1
	 M116.3,278.3L116.3,278.3L116.3,278.3 M116,278.5l0.3-0.1 M118.9,281.4L118.9,281.4L118.9,281.4 M111.7,272.1l2.1-2.1 M111.3,272.2
	l0.4-0.1 M116.3,278.2l-4.8-6 M111.3,272.4l0.4-0.1 M116,278.3l0.3-0.1 M118.9,275.8L118.9,275.8 M123.6,287.4l-4.8-5.8
	 M118.7,281.6l0.4-0.1 M118.9,275.7l4.5-4.3 M118.7,275.8l0.4-0.1 M111.3,272.2l2.4-2.2 M113.7,270L113.7,270L113.7,270L113.7,270
	 M113.8,270l4.8,5.8 M118.6,275.8L118.6,275.8 M118.7,275.8l4.8-4.5 M123.5,271.3L123.5,271.3L123.5,271.3 M123.5,271.3l2.4,3
	 M125.9,274.3L125.9,274.3L125.9,274.3 M125.9,274.4l-4.8,4.5 M121.2,279.1L121.2,279.1L121.2,279.1 M121.2,279.2l4.8,5.8
	 M125.9,285L125.9,285v0.3 M125.9,285.3l-2.4,2.2 M123.5,287.5L123.5,287.5 M123.5,287.5l-4.8-5.8 M118.7,281.6L118.7,281.6
	 M118.6,281.6l-4.8,4.5 M113.8,286.1L113.8,286.1 M113.7,286.1l-2.4-3 M111.3,283.1L111.3,283.1L111.3,283.1 M111.3,282.9l4.8-4.5
	 M116,278.5L116,278.5v-0.2 M116,278.3l-4.8-6 M111.3,272.4L111.3,272.4L111.3,272.4 M115.1,297.8l7.7,9.7 M122.7,307.6L122.7,307.6
	 M122.8,307.6l1.5-1.5 M124.4,306.1L124.4,306.1 M124.4,306.1l1.5,9.4 M125.9,315.5L125.9,315.5 M125.8,315.5l-8.3-2.8 M117.5,312.7
	L117.5,312.7 M117.5,312.7l1.5-1.5 M119,311.2L119,311.2L119,311.2 M119,311.1l-7.7-9.7 M111.3,301.4L111.3,301.4L111.3,301.4
	 M111.3,301.2l3.6-3.4 M114.8,297.7L114.8,297.7L114.8,297.7 M404.1,79.7l0.4,0.3l0.4,0.4l0.1,0.1 M382.7,65.4l21.4,14.3
	 M85.3,182.7l0.1,0.3l0.4,0.6l0.5,0.6l0.6,0.5l0.8,0.5l0.8,0.4l0.9,0.3l0.9,0.3 M160.3,189.6l22.8-35.6 M90,185.9l58.2,8.8
	 M90,185.9l-0.3-0.5 M148.2,194.5l-0.3-0.5 M148.2,194.5l1,0.1h1l1-0.1l1.1-0.3l1.1-0.3l1-0.4l1-0.4l0.9-0.5l0.9-0.6l0.9-0.6
	l0.8-0.8l0.6-0.8l0.5-0.8 M160.3,189.6L160,189 M160.1,189l23.1-36 M108.9,141.9L86,177.8 M85.9,177.8l-0.5,0.8l-0.3,0.8l-0.3,0.8
	v0.8l0.1,0.8l0.3,0.6l0.4,0.6l0.5,0.6l0.5,0.5l0.8,0.4l0.8,0.4l0.9,0.3l0.9,0.3 M89.9,185.3l58.2,8.8 M148,194l1,0.1h1l1.1-0.1
	l1-0.1l1.1-0.3l1-0.4l1-0.4l1-0.5l0.9-0.6l0.8-0.6l0.8-0.6l0.6-0.8l0.5-0.8 M301.7,156.7l3-1.4 M304.7,155.3l63.9-50.2 M369.1,104.1
	V91.4 M271.8,170.1l8.9-4.1 M251.2,179.3l4.1-1.9 M197.5,203.3l35.4-15.8 M368.1,415.7l-75.6-11.3 M369.1,429.3v-12.6 M291.9,404.3
	l-94.4,42.2 M197.9,506.3l170.8-76.5 M369.1,429.6l12.9-5.7 M292.5,222v182.3 M292.5,167.2V202 M184.4,512.4l12.8-5.7 M197.5,506
	V168 M185.3,173.7l-0.3-0.1H185l-0.3-0.1l-0.1-0.1 M83.1,513.7v6.2 M406.8,419.6v-6.2 M381.4,63.6l-75.6-11.3 M305.4,52.4l-197,88.3
	 M184.7,172.2L381.6,84 M184.4,152.5l-0.1-0.4l-0.1-0.3 M247.8,103.6v0.5 M285.2,119.6l0.4,0.1 M286.2,116l-0.4-0.1 M283.2,121.4
	L283.2,121.4 M284.4,113.7h-0.3 M286.5,115l-1.8-1.1 M283.8,121.4l2-0.6 M277,165l8,1.2 M286.7,154.4l-6-0.9 M261.8,181.3l1.1,1.5
	 M272.5,175.6l-0.9-1 M235.6,184.4l-1.5,5.7 M245.6,193.3l2.1-8.1 M234,190.3l-36.5,140.4 M203.1,356.8l42.4-163.5 M262.9,182.8
	l81.2,108.1 M353.7,283.8l-81.2-108.1 M284.9,166.1l161.4,24.1 M448.1,178.6l-161.4-24.1 M344.1,290.9l0.1,0.3 M353.8,284l-0.1-0.3
	 M203,357.1l0.1-0.4 M446.4,190.3l0.4,0.1 M448.5,178.6h-0.4 M266.9,180.3l0.4,0.5 M268.9,179.8l-0.4-0.5 M280.7,165.6v0.6
	 M282.6,166.1v-0.3 M246.3,190.4l0.5,0.3 M247.5,188.8l-0.6-0.3 M269.6,167.4L269.6,167.4 M271.5,170.2L271.5,170.2 M271.5,169.8
	l-2.1-3.4l-0.1-0.1 M261.9,181.3L261.9,181.3L261.9,181.3l0.2-0.2l0.1-0.3 M270.9,175h0.3l0.1-0.1l0.1-0.1 M259.1,182.1L259.1,182.1
	l0.4,0.3l0.1,0.1h0.5l0.3-0.1 M253.9,176.3l0.3-0.1h0.1 M273,173.7l0.3-0.3l0.1-0.3l0.1-0.1v-0.3l-0.1-0.1l-0.1-0.1l-0.1-0.4
	l-0.3-0.5l-0.3-0.4l-0.3-0.5l-0.4-0.5l-0.4-0.8 M268.9,166.6L268.9,166.6v-0.3 M260.2,182.4l1.2-0.8l0.5-0.4 M271.2,174.8l1.5-1
	l0.3-0.1 M267.4,171l1,1.4 M259,176.3V176l0.1-0.4l0.1-0.3l0.3-0.4l0.3-0.3l0.4-0.4 M265.1,171.2l0.4-0.3l0.5-0.3h0.8l0.5,0.1
	l0.3,0.3 M260,174.5l2.5-1.8 M262.5,172.9l2.7-1.6 M253.8,175.7L253.8,175.7 M284.6,150.3l0.1-0.3l0.3-0.5 M228.6,185.3l2.1,0.4
	 M228.8,184.1l3.1,2.7l2.5,2.1 M284.9,149.3l0.5-2.4 M285.9,154.3l-1.3-3.6l-1.3-3.9 M255.4,171.1L255.4,171.1 M261.4,167L261.4,167
	 M235,185v-0.3l0.1-0.1 M246.8,185.7l0.4-0.4 M281.1,153.3l0.4-0.1h0.4 M277.3,164.9l0.4-0.3 M235.1,184.7l0.4-0.3l0.6-0.1l1-0.1
	l0.6,0.1l0.8,0.3 M261.3,167l2.7-0.4l3-0.3l3.3-0.3l3.4-0.1 M238.9,184.9l0.3,0.3 M238.3,184.7l0.3,0.1l0.4,0.3 M239.2,185.1
	l0.5,0.4l0.6,0.4l0.8,0.4l0.9,0.3 M246.5,185.9l0.3-0.1 M242.1,186.6l0.5,0.1h1.5l1.3-0.4l0.3-0.1 M249.6,182.7l2.8-6l1.5-2.8
	l1.6-2.8 M277.7,164.5l0.6-0.5l0.5-0.6l0.8-1.2l0.3-0.9 M279.8,161.3L279.8,161.3 M280,161.3v-0.6 M279.7,157.5l-0.1-0.4
	 M279.5,157.1l-0.1-0.4v-0.4 M280.1,160.7v-1.4l-0.1-0.9l-0.3-0.9 M279.5,156.5l0.3-1.4l0.5-1l0.5-0.6l0.5-0.3 M273.7,166.1l1.2-0.3
	l1-0.4 M248.1,184.5l0.8-0.9l0.6-1 M275.9,165.5L275.9,165.5l1.2-0.6l0.1-0.1 M247.1,185.4l0.6-0.5l0.5-0.4 M285.5,146.5l-1.2-1.8
	 M227.1,183.4l1.1,1.8 M256.6,170.5L256.6,170.5 M260.6,167.8L260.6,167.8 M255.9,172.7L255.9,172.7 M263.9,167.1L263.9,167.1
	 M184.4,512.8V155.2 M83,183.2v330.1 M407.1,172.3V82.8 M407.1,412.9V184.4 M83.2,183.9l0.1,0.4 M407,82.4L407,82.4 M122.8,307.6
	l0.4-0.1 M118.8,281.4l-0.3,0.1 M118.7,275.9l0.3-0.1 M85.2,182l0.3,0.6 M364.9,100.1L364.9,100.1 M364.4,100.8L364.4,100.8
	 M364.9,99.6L364.9,99.6 M364.1,100.4L364.1,100.4 M364.1,100L364.1,100 M364.7,100.1v-0.4 M364.7,99.8L364.7,99.8L364.7,99.8
	l-0.1-0.2h-0.1v0.1l-0.3,0.1l-0.1,0.1v0.1 M364.2,100v0.4 M364.2,100.4L364.2,100.4l0.1,0.2l0.1,0.1l0,0l0.1-0.1l0.1-0.1v-0.3
	 M364.2,101L364.2,101 M364.1,100.4v0.3l0.1,0.1 M364.1,100v0.4 M364.4,99.6L364.4,99.6l-0.2,0.2l-0.1,0.1v0.3 M364.1,101L364.1,101
	L364.1,101 M364.2,101L364.2,101 M364.4,100.8L364.4,100.8L364.4,100.8l0.2-0.2l0.1-0.1v-0.1l0.1-0.1l0.1-0.1v-0.1 M364.9,100.1
	v-0.4 M364.9,99.6L364.9,99.6l-0.1-0.2v-0.1l-0.1-0.1l-0.1-0.1h-0.1v-0.3 M363.3,100.8L363.3,100.8L363.3,100.8l-0.2-0.4v-0.5
	l0.1-0.3l0.1-0.3l0.1-0.1l0,0 M363.6,99.5v-0.6 M363.6,101.1v-0.6 M363.6,101.1L363.6,101.1 M363.2,101.4L363.2,101.4l0.4-0.2
	l0.3-0.3 M363.6,98.9L363.6,98.9 M363.6,98.9L363.6,98.9 M362.6,101.7L362.6,101.7 M361.9,101.1L361.9,101.1 M362.3,100.8
	L362.3,100.8 M361.9,100.6L361.9,100.6 M362,100.1L362,100.1 M361.9,100.1L361.9,100.1 M362,100.6L362,100.6 M362,100.6L362,100.6
	L362,100.6l0.2-0.2v-0.3l-0.1-0.1l-0.1-0.1v0.1 M362,100.1L362,100.1 M362,100.1v0.6 M361.9,102L361.9,102 M362.1,100L362.1,100
	 M361.9,100.1v0.6 M362,100.1L362,100.1 M361.6,102.1l0.4-0.1 M361.9,102v-0.9 M362.1,101.9l0.5-0.3 M362.6,101.7l-0.4-0.9
	 M362.3,100.8l0.1-0.3l0.1-0.3v-0.8l-0.1-0.1l-0.1-0.1 M361.3,101.3L361.3,101.3 M360.9,101.4L360.9,101.4 M360.9,101.9L360.9,101.9
	 M360.9,100.8L360.9,100.8 M361.3,100.4L361.3,100.4 M360.9,100.6L360.9,100.6 M361.3,102.2L361.3,102.2 M360.7,102.6l0.8-0.4
	 M361.3,102.2v-0.6 M360.9,101.9v-0.4 M360.9,101.4l0.4-0.1 M361.3,101.3v-0.5 M360.9,100.8v-0.4 M360.9,100.6l0.4-0.3 M361.3,100.4
	v-0.6 M360.1,102L360.1,102 M359.8,102.1L359.8,102.1 M359.8,101.6L359.8,101.6 M359.9,101L359.9,101 M359.8,101L359.8,101
	 M359.8,101v0.6 M359.8,101.6L359.8,101.6 M359.9,101.6L359.9,101.6L359.9,101.6l0.1-0.2v-0.3l0,0l-0.1-0.1V101 M359.9,101
	L359.9,101 M359.8,101v0.6 M359.9,101L359.9,101 M359.9,101L359.9,101 M359.8,102.9v-0.9 M359.8,102.1l0.3-0.1 M360.1,102L360.1,102
	l0.2-0.4l0.1-0.3v-0.8l-0.1-0.3l-0.1-0.1h-0.1 M364.2,99.2L364.2,99.2L364.2,99.2l-0.2,0.2v0.1l-0.1,0.1v0.6 M364.5,99.1l-0.3,0.1
	 M364.9,99.8l-0.1-0.3v-0.1l-0.1-0.1l-0.1-0.1l-0.1-0.1h-0.4v-0.3l-0.1,0.1 M364.9,100.1v-0.4 M364.5,100.8L364.5,100.8L364.5,100.8
	l0.2-0.2l0.1-0.1l0.1-0.1l0.1-0.1v-0.1l0.1-0.1 M364.2,101l0.3-0.1 M363.8,100.5v0.3l0.1,0.1v0.3l0.1,0.1l0,0l0.1-0.1 M363.8,100.2
	v0.3 M363.6,100.4v0.3l-0.1,0.1l-0.3,0.1l-0.1-0.1l-0.1-0.3v-0.5l0.1-0.3l0.1-0.3l0.3-0.1l0.1,0.1v0.1 M363.6,101.1v-0.8
	 M363.6,98.9l-0.3-0.1l-0.3,0.1l-0.3,0.3l-0.3,0.4l-0.1,0.4l-0.1,0.5v0.4l0.1,0.4l0.1,0.3l0.3,0.1l0.3,0.1l0.3-0.1l0.3-0.3
	 M363.6,99.6v-0.7 M362.1,99.3l-0.6,0.3 M362.3,100.8l0.1-0.3v-0.3l0.1-0.4v-0.1l-0.1-0.3v-0.3l-0.1-0.1h-0.1 M362.6,101.7l-0.4-0.9
	 M362.3,101.9l0.4-0.3 M361.9,101.1l0.4,0.8 M361.9,102v-0.9 M361.6,102.1l0.4-0.1 M361.6,99.6v2.5 M361.4,99.8l-0.8,0.4
	 M361.4,100.4v-0.6 M360.9,100.6l0.5-0.3 M360.9,100.8v-0.4 M361.3,100.7L361,101 M361.3,101.3v-0.6 M360.9,101.4l0.4-0.3
	 M360.9,101.9v-0.4 M361.4,101.7l-0.5,0.3 M361.4,102.2v-0.6 M360.7,102.6l0.8-0.4 M360.7,100.1v2.5 M360.1,100.4l-0.6,0.3
	 M360.1,102L360.1,102l0.2-0.4l0.1-0.3v-0.8l-0.1-0.3l-0.1-0.1h-0.1 M359.8,102.1l0.4-0.1 M359.8,102.9v-0.9 M359.4,100.6v2.5
	 M364.2,100.6L364.2,100.6 M364.5,99.6L364.5,99.6 M363.3,100.8L363.3,100.8 M363.5,99.3L363.5,99.3 M362.1,100L362.1,100
	 M360.1,101L360.1,101"/>
<polygon class="st2" points="201.6,535.8 201,535.8 200.4,535.6 199.7,535.2 199.3,534.7 199,534 198.9,533.4 199,532.6 
	199.4,532.1 199.7,531.6 191.2,538 "/>
<polygon class="st2" points="434.1,426.5 434.8,426.5 435.4,426.6 435.9,427.1 436.3,427.7 436.6,428.3 436.7,429 436.6,429.6 
	436.3,430.2 435.9,430.6 444.5,424.4 "/>
<polygon class="st2" points="453.6,490.7 453.8,491.1 454.2,491.8 454.8,492.1 455.4,492.3 456.1,492.3 456.9,492.1 457.4,491.8 
	457.8,491.3 458,490.7 455.7,500.9 "/>
<polygon class="st2" points="453.2,196 453.4,195.4 453.8,194.9 454.3,194.5 455.1,194.2 455.8,194.2 456.4,194.3 457,194.8 
	457.4,195.2 457.6,195.8 455.3,185.6 "/>
<polygon class="st2" points="437.8,62.1 438.5,62.5 438.9,62.9 439.1,63.5 439.3,64.2 439.1,65 438.7,65.6 438.2,66.1 437.8,66.3 
	437.1,66.4 447.7,66.1 "/>
<polygon class="st2" points="293.5,40.5 293.1,40.2 292.5,39.8 292.3,39.2 292.3,38.4 292.5,37.7 292.6,37.1 293.2,36.6 293.8,36.3 
	294.4,36.2 283.7,36.5 "/>
<polygon class="st2" points="61.5,193.6 61.8,193 62.1,192.5 62.6,192.1 63.4,191.9 64.1,191.9 64.8,192.1 65.4,192.5 65.7,193 
	66,193.6 63.6,183.2 "/>
<polygon class="st2" points="61.2,541.1 61.5,541.7 61.9,542.2 62.5,542.6 63.2,542.7 63.9,542.8 64.7,542.6 65.1,542.2 65.5,541.7 
	65.7,541.1 63.4,551.4 "/>
<polygon class="st2" points="65.9,535.3 65.4,535.1 64.9,534.6 64.7,534 64.5,533.2 64.7,532.5 65,531.9 65.5,531.3 66,531.1 
	66.6,531 56,531.3 "/>
<polygon class="st2" points="123.3,540.1 123.9,540.5 124.3,540.8 124.5,541.4 124.7,542.2 124.5,542.9 124.3,543.5 123.8,544.1 
	123.2,544.3 122.6,544.6 133.3,544.1 "/>
<g>
	<path class="st2" d="M446.3,329.1c2,0,3.8,1.3,3.8,3.9c0,2.6-1.8,3.9-3.8,3.9c-1.4,0-2.5-0.6-3.1-1.9c-0.6,1-1.6,1.5-2.8,1.5
		c-1.8,0-3.5-1.2-3.5-3.5c0-2.3,1.7-3.5,3.5-3.5c1.2,0,2.2,0.5,2.8,1.5C443.8,329.7,445,329.1,446.3,329.1z M440.5,330.8
		c-1.4,0-2.3,1-2.3,2.2c0,1.2,0.9,2.2,2.3,2.2c1.3,0,2.2-0.9,2.2-2.2C442.7,331.8,441.7,330.8,440.5,330.8z M446.3,330.5
		c-1.4,0-2.4,1-2.4,2.5s1,2.5,2.4,2.5c1.5,0,2.5-1,2.5-2.5C448.8,331.5,447.8,330.5,446.3,330.5z"/>
	<path class="st2" d="M438.4,320.3v7h-1.3v-9.4l13.1,8.5l-0.7,1.1L438.4,320.3z"/>
	<path class="st2" d="M449.4,315.3l-4.1-2.9c0.1,0.4,0.2,0.7,0.2,1.1c0,2.4-1.8,4.1-4.2,4.1c-2.5,0-4.4-1.8-4.4-4.4
		c0-3,2.3-4.4,4.3-4.4c0.5,0,1.6,0.1,2.9,1.1l6,4.3L449.4,315.3z M441.2,316.2c1.7,0,2.9-1.3,2.9-3s-1.3-3-2.9-3c-1.7,0-3,1.2-3,3
		C438.2,314.9,439.5,316.2,441.2,316.2z"/>
</g>
<g>
	<path class="st2" d="M272.8,509.7l-2,0.9l0.2-1.5l2.6-1.1l5.1,11.7l-1.3,0.6L272.8,509.7z"/>
	<path class="st2" d="M278,509.5c-0.2-0.7-0.3-1.4-0.2-2c0.2-1.5,1.4-2.2,2.1-2.6c2.2-1,4,0.1,4.7,1.7c0.4,0.8,0.6,2.1-0.4,3.3
		c0.5,0,2,0.1,2.9,2.1c1,2.2-0.1,4.2-2.1,5.1c-1.2,0.5-2.9,0.6-4.1-0.6c-0.4-0.3-0.6-0.7-0.8-1.1l1.3-0.6c0.2,0.4,0.6,0.8,0.9,1
		c0.6,0.4,1.5,0.4,2.2,0.1c1.3-0.6,1.8-2.1,1.3-3.4c-0.3-0.7-0.9-1.4-2-1.5c-0.4,0-1,0.1-1.4,0.3l-0.5-1.2c0.5-0.2,0.9-0.5,1.2-0.8
		c0.3-0.4,0.7-1.1,0.2-2.2c-0.4-1-1.4-1.8-2.9-1.1c-0.5,0.2-1,0.5-1.2,1.3c-0.1,0.4-0.1,0.9,0.1,1.4L278,509.5z"/>
	<path class="st2" d="M292.2,500.4l-1.1,4.9c0.3-0.3,0.6-0.4,1-0.6c2.2-1,4.5,0,5.5,2.2c1,2.3,0.1,4.8-2.3,5.8
		c-2.8,1.2-5-0.4-5.8-2.2c-0.2-0.4-0.5-1.5-0.2-3.1l1.6-7.3L292.2,500.4z M296.3,507.5c-0.7-1.6-2.3-2.2-3.9-1.5
		c-1.6,0.7-2.2,2.4-1.5,3.9c0.7,1.6,2.3,2.3,4,1.6C296.4,510.8,297,509.1,296.3,507.5z"/>
	<path class="st2" d="M298.3,498.7l-2,0.9l0.2-1.5l2.6-1.1l5.1,11.7l-1.3,0.6L298.3,498.7z"/>
</g>
<g>
	<path class="st2" d="M374.4,35.3l-4-0.7l-1.3,2.6c0.3,0,0.5,0,0.8,0.1c2.5,0.4,3.8,2.6,3.4,5.1c-0.5,2.8-2.9,4.2-5.4,3.7
		c-1-0.2-1.9-0.6-2.6-1.5c-0.3-0.4-0.7-0.9-0.9-1.5l1.3-0.6c0.1,0.5,0.3,0.8,0.7,1.2c0.5,0.5,1,1,1.9,1.1c1.8,0.3,3.3-0.9,3.7-2.7
		c0.3-1.8-0.8-3.3-2.5-3.6c-0.5-0.1-1.3-0.2-2.6,0.4l2.9-5.7l5,0.9L374.4,35.3z"/>
	<path class="st2" d="M378.5,36l-2.1-0.4l1-1.2l2.8,0.5l-2.2,12.6l-1.4-0.2L378.5,36z"/>
	<path class="st2" d="M383.4,46.8c-0.6-1.4-0.8-3-0.4-4.8c0.3-1.8,1-3.3,2.1-4.4c1.2-1.2,2.6-1.5,3.6-1.3c1,0.2,2.2,0.9,2.9,2.5
		c0.6,1.4,0.8,3,0.4,4.8c-0.3,1.8-1,3.3-2.1,4.4c-1.2,1.2-2.6,1.5-3.6,1.3C385.3,49.1,384.1,48.3,383.4,46.8z M386,38.5
		c-0.9,1-1.4,2.3-1.6,3.7c-0.2,1.3-0.2,2.8,0.2,4c0.5,1.2,1.3,1.7,1.9,1.8c0.6,0.1,1.6-0.1,2.4-1c0.9-1,1.4-2.3,1.6-3.7
		c0.2-1.3,0.2-2.8-0.2-4c-0.5-1.2-1.3-1.7-1.9-1.8C387.7,37.4,386.8,37.6,386,38.5z"/>
</g>
<g>
	<path class="st2" d="M89.3,554.9l5.4-4.6c0.4-0.3,1.4-1.2,1.8-1.6c0.7-0.7,0.9-1.3,1-1.8c0.2-1.4-0.7-2.6-2.1-2.8
		c-0.9-0.1-1.7,0.2-2.3,0.8c-0.3,0.3-0.5,0.8-0.6,1.4l-1.4-0.2c0.2-1.3,0.8-2,1.3-2.5c0.6-0.5,1.6-1.1,3.2-0.8
		c2.2,0.3,3.7,2.2,3.3,4.4c-0.1,0.9-0.5,1.6-1.4,2.6c-0.6,0.7-1.4,1.3-2,1.8l-3.1,2.6l5.3,0.8l-0.2,1.3L89.3,554.9z"/>
	<path class="st2" d="M106.9,553.8l1.6,0.2l-0.2,1.3l-1.6-0.2l-0.4,2.4l-1.4-0.2l0.4-2.4l-6.5-1l9.5-9.8L106.9,553.8z M105.5,553.5
		l0.8-5.6l-4.8,5L105.5,553.5z"/>
	<path class="st2" d="M111.2,556.5c-0.7-1.3-0.8-3-0.6-4.8c0.3-1.8,1-3.4,2-4.4c1.2-1.3,2.5-1.6,3.5-1.4c1,0.2,2.2,0.8,3,2.4
		c0.6,1.3,0.8,3,0.6,4.8c-0.3,1.8-1,3.4-2,4.4c-1.2,1.3-2.5,1.6-3.5,1.4C113.2,558.7,112,558,111.2,556.5z M113.6,548.1
		c-0.8,1-1.3,2.4-1.5,3.7c-0.2,1.3-0.2,2.8,0.3,4c0.5,1.2,1.3,1.6,2,1.7c0.6,0.1,1.6-0.1,2.4-1.1c0.8-1,1.3-2.4,1.5-3.7
		c0.2-1.3,0.2-2.8-0.3-4c-0.5-1.2-1.3-1.6-2-1.7C115.3,547,114.4,547.2,113.6,548.1z"/>
</g>
<g>
	<path class="st2" d="M48.2,344.8v2.1l-1.3-0.7v-2.8h12.8v1.4H48.2z"/>
	<path class="st2" d="M57.9,338.1c-1.2,0.8-2.9,1.3-4.7,1.3c-1.8,0-3.5-0.4-4.7-1.3c-1.4-1-1.9-2.3-1.9-3.3c0-1,0.5-2.3,1.9-3.3
		c1.2-0.8,2.9-1.3,4.7-1.3c1.8,0,3.5,0.4,4.7,1.3c1.4,1,1.9,2.3,1.9,3.3C59.9,335.8,59.4,337.1,57.9,338.1z M49.4,337
		c1.1,0.7,2.5,0.9,3.9,0.9c1.3,0,2.8-0.2,3.9-0.9c1.1-0.7,1.4-1.5,1.4-2.2c0-0.7-0.3-1.5-1.4-2.2c-1.1-0.7-2.5-0.9-3.9-0.9
		c-1.3,0-2.8,0.2-3.9,0.9c-1.1,0.7-1.4,1.5-1.4,2.2C47.9,335.4,48.3,336.3,49.4,337z"/>
	<path class="st2" d="M59.6,328.4l-5.4-4.6c-0.4-0.3-1.4-1.2-1.9-1.5c-0.8-0.6-1.4-0.7-2-0.7c-1.4,0-2.5,1-2.5,2.5
		c0,0.9,0.4,1.6,1.1,2.1c0.4,0.2,0.9,0.4,1.5,0.4v1.4c-1.3-0.1-2.1-0.5-2.6-1c-0.6-0.5-1.3-1.4-1.3-3c0-2.3,1.6-3.9,3.8-3.9
		c0.9,0,1.6,0.2,2.7,1c0.7,0.5,1.5,1.2,2.1,1.7l3,2.7v-5.4h1.3V328.4z"/>
	<path class="st2" d="M50,317.6c-0.7,0-1.4-0.3-1.9-0.6c-1.3-0.8-1.5-2.2-1.5-3c0-2.4,1.7-3.6,3.4-3.6c0.9,0,2.2,0.3,2.8,1.6
		c0.2-0.4,0.9-1.8,3.1-1.8c2.4,0,3.8,1.7,3.8,3.9c0,1.3-0.6,2.9-2.2,3.6c-0.5,0.2-0.9,0.3-1.3,0.3v-1.4c0.5-0.1,0.9-0.2,1.3-0.5
		c0.6-0.4,1-1.2,1-2c0-1.4-1.2-2.5-2.6-2.5c-0.7,0-1.7,0.3-2.1,1.3c-0.2,0.4-0.3,1-0.3,1.5h-1.3c0-0.5-0.1-1.1-0.3-1.5
		c-0.2-0.4-0.7-1.1-1.9-1.1c-1.1,0-2.2,0.6-2.2,2.2c0,0.5,0.1,1.1,0.7,1.6c0.3,0.2,0.8,0.5,1.3,0.5V317.6z"/>
	<path class="st2" d="M57.7,306.3l0.5-1.3l4.3,1.9l-0.4,0.9L57.7,306.3z"/>
	<path class="st2" d="M48.2,293.9v4.1l2.8,0.8c-0.1-0.2-0.1-0.5-0.1-0.8c0-2.6,1.9-4.2,4.4-4.2c2.9,0,4.6,2.1,4.6,4.6
		c0,1-0.3,2-1,2.9c-0.3,0.4-0.8,0.8-1.3,1.1l-0.8-1.1c0.4-0.2,0.7-0.5,1-0.9c0.4-0.5,0.8-1.2,0.8-2.1c0-1.8-1.5-3.1-3.3-3.1
		c-1.8,0-3.1,1.3-3.1,3.1c0,0.5,0.1,1.3,0.9,2.5l-6.2-1.9v-5.1H48.2z"/>
</g>
</svg>
