<?xml version="1.0" encoding="utf-8"?>
<!-- Generator: Adobe Illustrator 24.2.1, SVG Export Plug-In . SVG Version: 6.00 Build 0)  -->
<svg version="1.1" id="Слой_1" xmlns="http://www.w3.org/2000/svg" xmlns:xlink="http://www.w3.org/1999/xlink" x="0px" y="0px"
	 viewBox="0 0 500 600" style="enable-background:new 0 0 500 600;" xml:space="preserve">
<style type="text/css">
	.st0{fill:none;stroke:#4E86B9;stroke-width:0.4;stroke-linejoin:round;}
	.st1{fill:none;stroke:#4E86B9;stroke-width:0.75;stroke-linejoin:round;}
	.st2{fill:#4E86B9;}
</style>
<line class="st0" x1="115.4" y1="167.4" x2="37.8" y2="187.1"/>
<line class="st0" x1="169.9" y1="179.6" x2="89.8" y2="200"/>
<line class="st0" x1="161.4" y1="456.7" x2="73.1" y2="489.1"/>
<line class="st0" x1="109.4" y1="450.7" x2="37.8" y2="478.9"/>
<line class="st0" x1="379.3" y1="219.7" x2="379.3" y2="449.5"/>
<line class="st0" x1="62.1" y1="163.3" x2="115.2" y2="177.5"/>
<line class="st0" x1="282.2" y1="105" x2="345.5" y2="122.2"/>
<line class="st0" x1="245.4" y1="425.2" x2="382.9" y2="459.3"/>
<line class="st0" x1="43.1" y1="476.8" x2="78.8" y2="486.6"/>
<line class="st0" x1="366.8" y1="108.1" x2="480.9" y2="135.1"/>
<line class="st0" x1="48.3" y1="187.2" x2="92.6" y2="197.5"/>
<line class="st0" x1="286" y1="108.9" x2="70.4" y2="163.1"/>
<path class="st1" d="M109.4,441.9v9.2c0,0,13.4,4.7,21.8,6.2c7.5,1.2,19.9,2.8,30.1-0.4c9.3-2.8,23.4-8.4,23.4-8.4
	s153.7-59.2,157.9-60.9c4.2-1.7,11.3-4.9,11.3-7.8c-0.1-2.8,0-6.1,0-6.1"/>
<path class="st1" d="M355.1,215.7l-0.6,136.1v20.8c0,2.5-8.5,6.2-8.5,6.2c-3.2,1.2-151.7,58-161.2,61.5s-17.7,5.8-23.4,7.4
	c-10.3,2.8-22.6,1.7-30.1,0.4c-8.5-1.5-21.8-6.2-21.8-6.2l-0.2-0.6v-12.6l0.6-247"/>
<line class="st1" x1="355.4" y1="137.9" x2="355.1" y2="206"/>
<line class="st1" x1="347.7" y1="204.9" x2="348" y2="140.7"/>
<line class="st1" x1="347.1" y1="378.1" x2="347.7" y2="214.9"/>
<line class="st1" x1="340" y1="202.9" x2="340.2" y2="142.7"/>
<line class="st1" x1="339.4" y1="380.9" x2="340" y2="212.8"/>
<path class="st1" d="M250.4,192.4L353.8,216c1.7,0,3.3-2.2,3.8-4.7c0.4-2.7-0.7-4.7-2.3-4.7l-102.4-22.7c0,0-3.5,0-4.4,3.8
	C247.6,191.2,250.4,192.4,250.4,192.4z"/>
<path class="st1" d="M357.4,211.2c-0.4,2.7-2.1,4.7-3.8,4.7s-2.7-2.2-2.3-4.7c0.4-2.7,2.1-4.7,3.8-4.7S357.8,208.7,357.4,211.2z"/>
<line class="st1" x1="171.6" y1="444.5" x2="172.6" y2="185.9"/>
<line class="st1" x1="163.6" y1="187.7" x2="163.4" y2="446.8"/>
<polyline class="st1" points="171.9,399.2 291.7,358.5 338.8,369.4 171.9,431.4 "/>
<path class="st1" d="M253.4,196.7l72.1,77.7c0,0,2.5,2.2-1.2,5.8c-3.8,3.8-6.4-0.1-6.4-0.1l-72.8-78.2"/>
<path class="st1" d="M180.2,317.9c-0.4,1-2.8,0.8-5.3-0.2c-1.1-0.5-2.2-1.1-2.8-1.7c-0.1-1.3-0.1-1.7,0-2.5c1-0.1,2.5,0.1,4.2,0.8
	C178.9,315.5,180.6,317.1,180.2,317.9z"/>
<path class="st1" d="M172.4,312l50-110.9c0,0,1.7-1.7,5.3,0s3.4,4.1,3.4,4.1L180.2,318"/>
<line class="st1" x1="172.5" y1="220.8" x2="218.7" y2="208.9"/>
<line class="st1" x1="255.7" y1="199.4" x2="267.4" y2="196.2"/>
<polyline class="st1" points="287.3,191.2 297.1,188.7 340,153.5 340.1,153.1 172.6,196.2 "/>
<line class="st1" x1="292.5" y1="189.9" x2="292.4" y2="192.3"/>
<line class="st1" x1="292.5" y1="202" x2="292.4" y2="239"/>
<line class="st1" x1="292.5" y1="253" x2="292.4" y2="358.5"/>
<path class="st1" d="M252.8,193c2.1,0.4,2.1,0.4,3.5,0.7c-0.4,1.7-5,5.2-11.2,8.3c-6.9,3.5-13,5.2-13.7,3.9s4.2-5.3,11.2-8.9
	C246.4,195.1,250.1,193.6,252.8,193z"/>
<path class="st1" d="M258.4,182.7l-1.7-2.8c-1.1-2.1-10.3,0.7-20.5,6.1c-10.2,5.3-17.6,11.3-16.5,13.4l1.7,2.9
	c-1.1-2.1,6.3-8,16.5-13.4C248.1,183.5,257.3,180.8,258.4,182.7l0.4,2.1"/>
<path class="st1" d="M107.1,174.3v4.1c0,0-0.2,2.7,4.1,4.2c4.2,1.6,23.4,7,37.9,6.4c14.6-0.6,21.5-3,28-4.6
	c3.5-0.8,53.3-13.1,98.8-24.9c39-10.1,74.8-20.1,75.7-20.4c0,0,4.9-1.7,5.6-3.4s0.7-5.8,0.5-7.4c-0.2-1.6-0.5-3-8-5.2
	c0,0-18.2-5.1-32.3-4.7c-14.1,0.2-24.5,3.5-30,5s-168,43-172,43.9C111.3,168.4,107.1,170.5,107.1,174.3z"/>
<path class="st1" d="M108,171.3c0,0-1,3.6,4.7,5.3s17.2,4.7,27.8,5.3c10.7,0.6,19.5-0.2,29.3-2.5c5.1-1.2,52.4-12.7,97-24.4
	c40.1-10.4,77.9-20.9,80.5-21.6c0,0,11.3-2.3,9.7-6.4"/>
<line class="st1" x1="148.7" y1="448.9" x2="148.7" y2="189.3"/>
<line class="st1" x1="132.8" y1="188.3" x2="132.8" y2="448.2"/>
<line class="st1" x1="114.9" y1="184.5" x2="114.2" y2="443.1"/>
<path class="st1" d="M109.5,174.7c0,0,35.7-8.5,40.5-9.7c4.7-1.2,14.9-2.5,22.7-1.2c7,1.2,11.3,3.8,6.6,5.8
	c-4.2,1.8-41.1,12.3-41.1,12.3v6.9"/>
<path class="st1" d="M177.8,167.4c0,1.6-5.8,2.9-13,2.9s-13-1.3-13-2.9c0-1.6,5.8-2.9,13-2.9S177.8,165.9,177.8,167.4z"/>
<ellipse class="st1" cx="300.2" cy="132.1" rx="13" ry="2.9"/>
<path class="st1" d="M324.9,118.9c0,0-30.8,8.7-36.3,10.4c-5.3,1.7-8.7,4,1.2,6.2c5,1.1,11.8,1,16.5,0.6c4.9-0.5,7.5-1.3,9.6-1.8
	c4.1-0.8,38.6-9,38.6-9"/>
<line class="st0" x1="354.3" y1="211.4" x2="383.5" y2="218.6"/>
<line class="st0" x1="481.2" y1="180.7" x2="354.3" y2="211.2"/>
<polyline class="st0" points="474.8,182.4 474.8,138.1 486.6,135.1 "/>
<line class="st0" x1="362.4" y1="154.7" x2="469.6" y2="180.2"/>
<line class="st0" x1="388.1" y1="99" x2="300" y2="120.2"/>
<polygon class="st2" points="44.1,476 46.1,464.3 44.1,467 42.1,464.3 "/>
<polygon class="st2" points="43.6,476.7 32.9,471.7 35,474.3 31.8,475.5 "/>
<polygon class="st2" points="79.3,486.6 91,487.7 88,488.9 89.9,491.5 "/>
<polygon class="st2" points="44.1,185.9 46.1,197.5 44.1,194.9 42.1,197.5 "/>
<polygon class="st2" points="379.3,457.9 381.4,446.2 379.3,448.8 377.3,446.2 "/>
<polygon class="st2" points="379.3,217.3 381.4,229 379.3,226.3 377.3,229 "/>
<polygon class="st2" points="483.5,136 472.9,131 474.8,133.6 471.8,134.7 "/>
<polygon class="st2" points="359.7,106.1 371.5,107.2 368.5,108.4 370.4,111 "/>
<polygon class="st2" points="95.9,198.4 85.2,193.4 87.1,196 84.1,197.2 "/>
<polygon class="st2" points="44.4,186.2 56.2,187.3 53.2,188.5 55.2,191.1 "/>
<polygon class="st2" points="67,163.9 77.8,158.9 75.7,161.5 78.9,162.6 "/>
<polygon class="st2" points="289.8,108 278.1,109.2 281.1,110.3 279.2,112.8 "/>
<polygon class="st2" points="475.5,181.8 464.7,176.9 466.8,179.4 463.8,180.5 "/>
<polygon class="st2" points="355.6,153 367.4,154.1 364.4,155.3 366.4,157.8 "/>
<line class="st0" x1="26.1" y1="472.3" x2="36.7" y2="475"/>
<line class="st0" x1="86.7" y1="488.8" x2="122.3" y2="498.7"/>
<line class="st0" x1="44.1" y1="194.9" x2="44.1" y2="470.1"/>
<g>
	<path class="st2" d="M372.7,333c1.9,0,3.6,1.2,3.6,3.7s-1.7,3.7-3.6,3.7c-1.3,0-2.4-0.6-3-1.8c-0.6,1-1.5,1.5-2.7,1.5
		c-1.7,0-3.4-1.2-3.4-3.3c0-2.2,1.6-3.3,3.4-3.3c1.1,0,2.1,0.5,2.7,1.5C370.3,333.6,371.4,333,372.7,333z M367.1,334.7
		c-1.3,0-2.1,1-2.1,2.1s0.8,2.1,2.1,2.1c1.2,0,2.1-0.9,2.1-2.1C369.2,335.5,368.3,334.7,367.1,334.7z M372.7,334.4
		c-1.4,0-2.3,1-2.3,2.4s0.9,2.4,2.3,2.4s2.4-1,2.4-2.4C375,335.3,374.1,334.4,372.7,334.4z"/>
	<path class="st2" d="M365.2,324.6v6.6H364v-8.9l12.4,8.1l-0.7,1.1L365.2,324.6z"/>
	<path class="st2" d="M365.2,315v3.9l2.6,0.8c-0.1-0.2-0.1-0.5-0.1-0.8c0-2.4,1.8-4,4.2-4c2.7,0,4.4,2,4.4,4.4c0,1-0.3,1.9-0.9,2.7
		c-0.3,0.4-0.7,0.8-1.2,1.1l-0.8-1.1c0.4-0.2,0.7-0.5,1-0.8c0.4-0.5,0.7-1.1,0.7-2c0-1.7-1.4-3-3.1-3s-3,1.3-3,3
		c0,0.4,0.1,1.3,0.8,2.3l-5.9-1.8V315H365.2z"/>
</g>
<g>
	<path class="st2" d="M153.7,125.4l-2,0.5l0.4-1.4l2.6-0.7l3,11.8l-1.3,0.3L153.7,125.4z"/>
	<path class="st2" d="M162.2,132.7c-1.1-0.9-1.9-2.3-2.3-4c-0.4-1.7-0.4-3.3,0.1-4.6c0.6-1.5,1.6-2.3,2.6-2.5s2.2-0.1,3.5,1
		c1.1,0.9,1.9,2.3,2.3,4c0.4,1.7,0.4,3.3-0.1,4.6c-0.6,1.5-1.6,2.3-2.6,2.5C164.8,134,163.5,133.8,162.2,132.7z M161.2,124.6
		c-0.4,1.2-0.3,2.6,0.1,3.8c0.3,1.2,0.9,2.5,1.8,3.4c0.9,0.8,1.8,0.9,2.4,0.8c0.6-0.2,1.3-0.7,1.7-1.8c0.4-1.2,0.3-2.6-0.1-3.8
		c-0.3-1.2-0.9-2.5-1.8-3.4c-0.9-0.8-1.8-0.9-2.4-0.8C162.3,122.9,161.6,123.4,161.2,124.6z"/>
	<path class="st2" d="M178.4,126.8c0.5,1.8-0.3,3.8-2.7,4.4c-2.4,0.6-4-0.7-4.5-2.5c-0.3-1.3,0-2.5,1-3.3c-1.1-0.3-1.8-1.1-2.1-2.2
		c-0.4-1.7,0.3-3.5,2.4-4.1c2.1-0.5,3.6,0.8,4.1,2.4c0.3,1.1,0,2.2-0.8,2.9C177.3,124.6,178.1,125.5,178.4,126.8z M175.5,121.8
		c-0.3-1.3-1.5-1.8-2.5-1.6s-1.8,1.3-1.5,2.6c0.3,1.2,1.4,1.8,2.5,1.5S175.8,122.9,175.5,121.8z M177.1,127.1
		c-0.3-1.3-1.5-2-2.9-1.7c-1.3,0.3-2.1,1.5-1.7,2.8c0.3,1.3,1.5,2.1,2.9,1.7C176.8,129.6,177.5,128.4,177.1,127.1z"/>
	<path class="st2" d="M179.9,120.4c-0.1-0.7-0.1-1.3,0.1-1.9c0.5-1.4,1.7-1.9,2.4-2.1c2.2-0.6,3.7,0.7,4.1,2.3
		c0.2,0.8,0.2,2.1-0.8,3c0.4,0.1,1.9,0.4,2.4,2.4c0.6,2.2-0.7,4-2.7,4.5c-1.2,0.3-2.8,0.2-3.8-1.2c-0.3-0.4-0.5-0.7-0.6-1.2l1.3-0.3
		c0.2,0.4,0.4,0.8,0.7,1.1c0.5,0.5,1.3,0.6,2,0.4c1.3-0.3,2-1.7,1.7-3c-0.2-0.7-0.7-1.5-1.7-1.7c-0.4-0.1-0.9,0-1.4,0.1l-0.3-1.2
		c0.5-0.1,1-0.3,1.3-0.6c0.3-0.3,0.8-0.9,0.5-2c-0.3-1-1.1-1.9-2.5-1.5c-0.5,0.1-1,0.4-1.3,1.1c-0.2,0.4-0.2,0.8-0.1,1.4
		L179.9,120.4z"/>
</g>
<g>
	<path class="st2" d="M425.1,106.8l-3.6,3.1c0.4,0,0.7,0,1.1,0.1c2.3,0.5,3.4,2.6,2.9,4.8c-0.6,2.4-2.7,3.6-5,3.1
		c-2.8-0.7-3.6-3.1-3.1-5c0.1-0.4,0.4-1.4,1.6-2.5l5.4-4.6L425.1,106.8z M424.1,114.5c0.4-1.6-0.5-3-2.1-3.4s-3,0.5-3.4,2.1
		s0.4,3.1,2.1,3.5C422.3,117.1,423.8,116.1,424.1,114.5z"/>
	<path class="st2" d="M434.9,117.7c-0.4,1.8-2,3.2-4.4,2.6s-3.2-2.5-2.8-4.3c0.3-1.3,1.2-2.2,2.5-2.4c-0.8-0.8-1.1-1.8-0.8-2.9
		c0.4-1.7,1.9-3,4-2.5s2.9,2.4,2.5,4.1c-0.3,1.1-1,1.9-2.1,2.2C434.9,115.2,435.2,116.5,434.9,117.7z M433.6,117.4
		c0.3-1.3-0.4-2.5-1.8-2.8c-1.3-0.3-2.5,0.4-2.8,1.7c-0.3,1.3,0.4,2.5,1.7,2.9C432.1,119.4,433.3,118.7,433.6,117.4z M434.6,111.9
		c0.3-1.3-0.4-2.3-1.5-2.6c-1.1-0.3-2.2,0.3-2.5,1.6c-0.3,1.2,0.4,2.2,1.5,2.5S434.3,113.1,434.6,111.9z"/>
	<path class="st2" d="M443.6,119.6l1.4,0.4l-0.3,1.2l-1.4-0.4l-0.5,2.2l-1.3-0.3l0.5-2.2l-6-1.5l9.8-8.4L443.6,119.6z M442.3,119.3
		l1.3-5.2l-5,4.3L442.3,119.3z"/>
</g>
<g>
	<path class="st2" d="M401.4,154.9l1.4,0.4l-0.3,1.2l-1.4-0.4l-0.5,2.2l-1.3-0.3l0.5-2.2l-6-1.5l9.8-8.4L401.4,154.9z M400.1,154.6
		l1.3-5.2l-5,4.3L400.1,154.6z"/>
	<path class="st2" d="M411.5,157.3l1.4,0.4l-0.3,1.2l-1.4-0.4l-0.5,2.2l-1.3-0.3l0.5-2.2l-6-1.5l9.8-8.4L411.5,157.3z M410.1,157
		l1.3-5.2l-5,4.3L410.1,157z"/>
	<path class="st2" d="M421.5,159.7l1.4,0.4l-0.3,1.2l-1.4-0.4l-0.5,2.2l-1.3-0.3l0.5-2.2l-6-1.5l9.8-8.4L421.5,159.7z M420.2,159.4
		l1.3-5.2l-5,4.3L420.2,159.4z"/>
</g>
<g>
	<path class="st2" d="M53.1,207.5l5.4-4c0.4-0.3,1.4-1,1.8-1.4c0.7-0.6,1-1.2,1.1-1.7c0.3-1.3-0.4-2.5-1.8-2.8
		c-0.8-0.2-1.6,0-2.2,0.6c-0.3,0.3-0.6,0.7-0.7,1.3l-1.3-0.3c0.3-1.2,0.9-1.8,1.4-2.2c0.6-0.5,1.6-0.9,3.1-0.6
		c2.1,0.5,3.3,2.3,2.9,4.4c-0.2,0.8-0.6,1.5-1.5,2.3c-0.7,0.6-1.5,1.2-2.1,1.6l-3.1,2.2l5,1.1l-0.3,1.2L53.1,207.5z"/>
	<path class="st2" d="M71.2,199.6l-3.6,3.2c0.4,0,0.7,0,1.1,0.1c2.3,0.5,3.4,2.6,3,4.8c-0.5,2.4-2.6,3.7-5,3.1
		c-2.8-0.6-3.6-3.1-3.2-5c0.1-0.4,0.4-1.5,1.6-2.5l5.3-4.7L71.2,199.6z M70.3,207.4c0.4-1.6-0.6-3-2.2-3.4s-3,0.6-3.4,2.1
		c-0.4,1.6,0.5,3.1,2.1,3.4C68.6,209.9,70,209,70.3,207.4z"/>
	<path class="st2" d="M74.1,210.6c-0.5-1.3-0.6-2.9-0.2-4.6s1.1-3.1,2.2-4.1c1.2-1.1,2.5-1.3,3.4-1.1s2,0.9,2.6,2.5
		c0.5,1.3,0.6,2.9,0.2,4.6s-1.1,3.1-2.2,4.1c-1.2,1.1-2.5,1.3-3.4,1.1C75.8,212.8,74.7,212.1,74.1,210.6z M76.9,202.9
		c-0.9,0.9-1.4,2.2-1.7,3.4c-0.3,1.2-0.4,2.6,0.1,3.8c0.4,1.1,1.1,1.6,1.7,1.8c0.6,0.1,1.5,0,2.3-0.9c0.9-0.9,1.4-2.2,1.7-3.4
		c0.3-1.2,0.4-2.6-0.1-3.8c-0.4-1.1-1.1-1.6-1.7-1.8C78.6,201.9,77.7,202,76.9,202.9z"/>
</g>
<g>
	<path class="st2" d="M103.1,490.3l5.6-3.7c0.4-0.3,1.4-1,1.8-1.3c0.7-0.6,1-1.1,1.1-1.6c0.4-1.3-0.3-2.5-1.7-2.9
		c-0.8-0.2-1.6-0.1-2.2,0.5c-0.3,0.3-0.6,0.7-0.8,1.3l-1.3-0.4c0.4-1.2,0.9-1.8,1.6-2.2c0.6-0.4,1.6-0.8,3.1-0.4
		c2.1,0.6,3.2,2.5,2.6,4.5c-0.2,0.8-0.6,1.4-1.6,2.2c-0.7,0.5-1.5,1.1-2.1,1.5l-3.2,2.1l4.9,1.4l-0.3,1.2L103.1,490.3z"/>
	<path class="st2" d="M112.4,492.9l5.6-3.7c0.4-0.3,1.4-1,1.8-1.3c0.7-0.6,1-1.1,1.1-1.6c0.4-1.3-0.3-2.5-1.7-2.9
		c-0.8-0.2-1.6-0.1-2.2,0.5c-0.3,0.3-0.6,0.7-0.8,1.3l-1.3-0.4c0.4-1.2,0.9-1.8,1.5-2.2c0.6-0.4,1.6-0.8,3.1-0.4
		c2.1,0.6,3.2,2.5,2.6,4.5c-0.2,0.8-0.6,1.4-1.6,2.2c-0.7,0.5-1.5,1.1-2.1,1.5l-3.2,2.1l4.9,1.4L120,495L112.4,492.9z"/>
	<path class="st2" d="M123.5,494.3c-0.5-1.3-0.4-3,0-4.6c0.5-1.7,1.3-3.1,2.4-4c1.3-1,2.6-1.2,3.5-0.9c0.9,0.3,2,1,2.5,2.6
		c0.5,1.3,0.4,3,0,4.6c-0.5,1.7-1.3,3.1-2.4,4c-1.3,1-2.6,1.2-3.5,0.9C125.1,496.6,124,495.9,123.5,494.3z M126.7,486.7
		c-0.9,0.8-1.5,2.1-1.8,3.3c-0.3,1.2-0.5,2.6-0.1,3.8c0.3,1.2,1.1,1.7,1.7,1.9c0.6,0.2,1.5,0.1,2.4-0.7c0.9-0.8,1.5-2.1,1.8-3.3
		c0.3-1.2,0.5-2.6,0.1-3.8c-0.3-1.2-1.1-1.7-1.7-1.9C128.4,485.8,127.5,485.9,126.7,486.7z"/>
</g>
<g>
	<path class="st2" d="M37.5,339l-3.9-2.8c0.1,0.3,0.2,0.7,0.2,1.1c0,2.3-1.7,3.9-4,3.9c-2.4,0-4.2-1.7-4.2-4.2
		c0-2.8,2.2-4.2,4.1-4.2c0.5,0,1.5,0.1,2.8,1l5.7,4.1L37.5,339z M29.8,339.9c1.6,0,2.8-1.2,2.8-2.8c0-1.7-1.2-2.8-2.8-2.8
		c-1.6,0-2.9,1.1-2.9,2.8C26.9,338.7,28.2,339.9,29.8,339.9z"/>
	<path class="st2" d="M37.5,328.7l-3.9-2.8c0.1,0.3,0.2,0.7,0.2,1.1c0,2.3-1.7,3.9-4,3.9c-2.4,0-4.2-1.7-4.2-4.2
		c0-2.8,2.2-4.2,4.1-4.2c0.5,0,1.5,0.1,2.8,1l5.7,4.1L37.5,328.7z M29.8,329.6c1.6,0,2.8-1.2,2.8-2.8c0-1.7-1.2-2.8-2.8-2.8
		c-1.6,0-2.9,1.1-2.9,2.8C26.9,328.4,28.2,329.6,29.8,329.6z"/>
	<path class="st2" d="M34.5,314.6v-1.5h1.2v1.5H38v1.3h-2.3v6.2l-10.5-7.5H34.5z M34.5,315.9h-5.4l5.4,3.8V315.9z"/>
</g>
</svg>
