<?xml version="1.0" encoding="utf-8"?>
<!-- Generator: Adobe Illustrator 23.0.3, SVG Export Plug-In . SVG Version: 6.00 Build 0)  -->
<svg version="1.1" id="Слой_1" xmlns="http://www.w3.org/2000/svg" xmlns:xlink="http://www.w3.org/1999/xlink" x="0px" y="0px"
	 viewBox="0 0 500 600" style="enable-background:new 0 0 500 600;" xml:space="preserve">
<style type="text/css">
	.st0{fill:none;stroke:#4E86B9;stroke-width:0.5;stroke-linecap:round;stroke-linejoin:round;stroke-miterlimit:10;}
	.st1{fill:#4E86B9;}
	.st2{fill:none;stroke:#4E86B9;stroke-width:0.75;stroke-linecap:round;stroke-linejoin:round;stroke-miterlimit:10;}
</style>
<line class="st0" x1="97.2" y1="184.5" x2="97.2" y2="440"/>
<polygon class="st1" points="97.2,445.4 98.6,436.1 97.2,438.2 95.7,436.1 "/>
<polygon class="st1" points="97.2,180.4 98.6,189.7 97.2,187.6 95.7,189.7 "/>
<g>
	<path class="st0" d="M261.5,374.3v20.2 M122.8,288v249.7 M115.6,192.2v122.7"/>
</g>
<polygon class="st1" points="115.5,320.3 117,311 115.5,313 114.1,311 "/>
<polygon class="st1" points="115.5,188.3 117,197.6 115.5,195.5 114.1,197.6 "/>
<line class="st0" x1="115.6" y1="323.5" x2="115.6" y2="437.4"/>
<polygon class="st1" points="115.5,442.7 117,433.4 115.5,435.5 114.1,433.4 "/>
<polygon class="st1" points="115.5,320.3 117,329.6 115.5,327.5 114.1,329.6 "/>
<polygon class="st1" points="123.4,407.1 131.9,404.6 130.1,406.4 132.2,407.7 "/>
<polygon class="st1" points="261.6,388.9 253.2,391.6 254.9,389.8 252.8,388.5 "/>
<g>
	<path class="st2" d="M209.2,142.2c0,0-0.7-0.4-1.6-1c-0.9-0.5-2.1-0.6-2.7-0.2c-0.6,0.4-1.5,1.9-1.9,3.3c-0.4,1.4-0.9,4.2-1.1,6.2
		c-0.2,2.1-0.3,6.3-0.3,9.5v13.8 M228.8,153.9l-19.6-11.7 M248.7,165.8l-19.9-11.9 M241.7,293.9l6.9,4.1 M241.4,285.8l7.2,4.3
		 M270.2,310.9l39.1,23.4c2.6,1.5,6,2.9,7.7,3s4.1-0.8,5.4-2.1c1.3-1.2,2.8-3.9,3.4-5.9s1.4-5.6,1.6-8s0.4-7,0.4-10.1v-78.8
		c0-3.1-0.5-8.3-1.1-11.3l-0.8-4.1c-0.5-2.4-1.3-5.6-2.1-7.8 M317.2,199.4c-1.4-1.2-3.2-2.4-4.8-3.4l-39.1-23.3 M286,312.5
		l21.1,12.6 M273.3,304.9l7.1,4.2 M342.4,208.5v258.1 M329.5,210.3v256.2 M348.3,466.5v2.4 M433.6,401.3v2.4 M408.7,401.3v2.4
		 M174.7,377.6v1.2c0,0.7,0,1.3,0.1,1.4c0,0.1,0.1,0.4,0.2,0.5c0.1,0.1,0.3,0.4,0.5,0.5s0.3,0.2,0.3,0.2 M199.5,377.6v1.2
		c0,0.7,0,1.4-0.1,1.5c-0.1,0.2-0.3,0.5-0.4,0.7c-0.2,0.2-0.6,0.4-0.9,0.6c-0.3,0.2-0.9,0.4-1.3,0.6c-0.4,0.2-1.2,0.4-1.7,0.5
		s-1.4,0.3-2,0.4s-1.6,0.2-2.2,0.3c-0.6,0.1-1.7,0.1-2.3,0.1c-0.7,0-1.7,0-2.4,0s-1.7-0.1-2.4-0.1c-0.6,0-1.6-0.2-2.2-0.2
		c-0.6-0.1-1.5-0.2-2-0.4c-0.5-0.1-1.3-0.3-1.8-0.4c-0.4-0.1-1.1-0.4-1.4-0.6c-0.3-0.1-0.6-0.3-0.6-0.3 M243.9,424.4v-3.2
		 M279.1,424.4v-3.2 M323.5,466.5v2.4 M238.7,301.3l0.3-0.5 M239.4,308.1l0.4,0.4 M239.6,300.2l9.7-1.3c0,0,4.3,2.9,1,8.7l-9.7,1.3
		 M277.5,304.1h-0.3l-2.7,0.4 M273.4,303.9l-4.6-2.8c0,0-7,0.5-3.9,7.7l4.6,2.7 M370.8,285.2l-4.6,0.6 M369.4,276.4l-4.6,0.6
		 M280.6,311.9l2.1,1.3 M281.2,303.9l2.3-0.3l0.4,0.1l2.1,1.3 M286.1,312.8L286.1,312.8L286.1,312.8L286.1,312.8l0.2-0.1l0,0v-0.1
		l0,0l0,0 M280.5,311.7L280.5,311.7L280.5,311.7v0.1l0,0l0,0l0,0 M280.5,311.7v-6.9 M281.2,303.9h-0.1H281l-0.1,0.1l-0.1,0.1
		l-0.1,0.1l-0.1,0.1v0.2v0.1v0.1 M282.9,313.2l3.2-0.4 M282.6,313L282.6,313v0.1l0,0l0,0l0,0l0,0l0,0l0,0 M286.3,305.6v-0.2v-0.2
		l-0.1-0.1l-0.1-0.1l-0.1-0.1h-0.1h-0.1h-0.1 M286.3,312.5v-6.9 M285.6,304.9l-2.3,0.3 M283.3,305.2h-0.1l-0.1,0.1l-0.1,0.1
		l-0.1,0.1l-0.1,0.1v0.1v0.2v0.2 M282.6,306.1v6.9 M307.2,327.7l2.1,1.3 M310.5,319.5l2.1,1.3 M215.6,305.3l-4.6,0.6 M214.2,296.6
		l-4.6,0.6 M283.4,171.1l-8.9,1.2 M282.4,162.4l-8,1 M366.1,167l3.9-0.5c0,0,0.9,0,0.9-0.7v-6.7 M231.1,163l-2.1-1.3 M211.5,151.2
		l-2.1-1.3 M291,198.8l-2.2-1.3 M310.6,210.5l-2.2-1.3 M153.6,194.6l4.6-0.6 M195.7,189.1l4.6-0.6 M180.6,377.6c0,0,0,0.1,0,0.2
		s0.1,0.2,0.2,0.3c0.1,0.1,0.3,0.2,0.4,0.3c0.1,0.1,0.4,0.2,0.6,0.3c0.2,0.1,0.5,0.2,0.8,0.2c0.2,0.1,0.7,0.2,0.9,0.2
		c0.3,0.1,0.7,0.1,1,0.2c0.3,0,0.8,0.1,1.1,0.1s0.8,0,1.2,0c0.3,0,0.9,0,1.2,0s0.8,0,1.1-0.1c0.3,0,0.6-0.1,0.6-0.1 M189.8,379.2
		c0,0,0.2,0,0.5-0.1c0.3,0,0.7-0.1,1-0.2s0.6-0.2,0.8-0.2c0.2-0.1,0.5-0.2,0.6-0.3c0.2-0.1,0.4-0.2,0.4-0.3c0.1-0.1,0.2-0.2,0.2-0.3
		c0-0.1,0.1-0.2,0.1-0.2 M415.3,402.1c0,0,0.1,0.1,0.3,0.2c0.2,0.1,0.5,0.2,0.7,0.3c0.2,0.1,0.6,0.2,0.9,0.2
		c0.3,0.1,0.8,0.2,1.1,0.2c0.3,0,0.8,0.1,1.2,0.1c0.3,0,0.9,0.1,1.2,0.1c0.3,0,0.9,0,1.2,0c0.3,0,0.9-0.1,1.2-0.1
		c0.3,0,0.8-0.1,1.1-0.1c0.3,0,0.8-0.1,1-0.2c0.3-0.1,0.6-0.2,0.9-0.3c0.2-0.1,0.5-0.2,0.7-0.3c0.2-0.1,0.4-0.2,0.5-0.3
		c0.1-0.1,0.2-0.2,0.2-0.3c0-0.1,0.1-0.2,0.1-0.2 M414.6,401.3v0.1c0,0.1,0.1,0.2,0.1,0.3c0,0.1,0.2,0.2,0.3,0.2
		c0.1,0.1,0.2,0.1,0.2,0.1 M267,424.5c0,0,0.5-0.1,1.1-0.2s1.5-0.3,2-0.4s1.2-0.3,1.7-0.5c0.4-0.1,1-0.4,1.3-0.6s0.7-0.5,0.9-0.6
		c0.2-0.2,0.4-0.5,0.5-0.7s0.1-0.3,0.1-0.3 M248.6,421.3c0,0,0,0.1,0.1,0.3c0.1,0.2,0.2,0.5,0.4,0.6c0.2,0.2,0.5,0.4,0.8,0.6
		s0.8,0.4,1.2,0.6c0.4,0.2,1.1,0.4,1.6,0.5s1.3,0.3,1.9,0.4c0.5,0.1,1.5,0.2,2.1,0.3c0.6,0.1,1.6,0.2,2.2,0.2c0.7,0,1.7,0.1,2.3,0.1
		c0.6,0,1.7,0,2.3,0c0.6,0,1.6-0.1,2.3-0.2c0.6-0.1,1.1-0.1,1.1-0.1 M329.5,466.5c0,0,0,0.1,0.1,0.2c0,0.1,0.1,0.2,0.2,0.3
		c0.1,0.1,0.3,0.2,0.4,0.3c0.1,0.1,0.4,0.2,0.6,0.3c0.2,0.1,0.5,0.2,0.8,0.2c0.2,0.1,0.6,0.2,0.9,0.2s0.7,0.1,1,0.1s0.8,0.1,1.1,0.1
		c0.3,0,0.8,0,1.2,0c0.3,0,0.8,0,1.2,0c0.3,0,0.8-0.1,1.1-0.1c0.3,0,0.5-0.1,0.5-0.1 M338.6,468.2c0,0,0.2,0,0.5-0.1s0.7-0.1,1-0.2
		c0.2-0.1,0.6-0.2,0.8-0.3c0.2-0.1,0.5-0.2,0.7-0.3c0.2-0.1,0.4-0.2,0.5-0.3c0.1-0.1,0.2-0.2,0.2-0.3c0-0.1,0.1-0.2,0.1-0.2
		 M324.6,468c0,0,0.2,0.1,0.6,0.3c0.3,0.2,0.9,0.4,1.3,0.5s1.2,0.3,1.6,0.4c0.5,0.1,1.4,0.3,1.9,0.3c0.6,0.1,1.5,0.2,2.1,0.2
		c0.6,0.1,1.6,0.1,2.2,0.1s1.7,0,2.3,0c0.6,0,1.6-0.1,2.3-0.1c0.6,0,1.6-0.1,2.2-0.2s1.5-0.2,2-0.3c0.5-0.1,1.3-0.3,1.7-0.4
		c0.4-0.1,1.1-0.4,1.4-0.5c0.4-0.2,0.8-0.4,1.1-0.6c0.2-0.2,0.6-0.4,0.7-0.6s0.3-0.5,0.3-0.6c0-0.2,0-0.5-0.2-0.6
		c-0.1-0.2-0.4-0.5-0.6-0.6c-0.2-0.2-0.4-0.3-0.4-0.3 M329.5,463.6c0,0-0.4,0.1-0.9,0.2s-1.3,0.3-1.7,0.4c-0.4,0.1-1.1,0.4-1.4,0.5
		s-0.8,0.4-1,0.6s-0.5,0.4-0.7,0.6c-0.1,0.2-0.2,0.5-0.3,0.6c0,0.2,0.1,0.5,0.2,0.6c0.1,0.2,0.4,0.4,0.6,0.6s0.4,0.3,0.4,0.3
		 M347.2,465.1c0,0-0.2-0.1-0.5-0.2c-0.2-0.1-0.7-0.3-1-0.4s-0.8-0.3-1.2-0.4c-0.4-0.1-1-0.2-1.4-0.3c-0.4-0.1-0.7-0.1-0.7-0.1
		 M324.6,470.4c0,0,0.3,0.1,0.6,0.3c0.3,0.2,1,0.4,1.4,0.5s1.2,0.3,1.8,0.5c0.5,0.1,1.4,0.3,2,0.3c0.6,0.1,1.6,0.2,2.2,0.2
		s1.7,0.1,2.4,0.1c0.7,0,1.7,0,2.4,0c0.7,0,1.7-0.1,2.3-0.1c0.6-0.1,1.6-0.2,2.2-0.3c0.6-0.1,1.5-0.3,2-0.4s1.3-0.3,1.7-0.5
		c0.4-0.1,1-0.4,1.3-0.6s0.7-0.4,0.9-0.6c0.2-0.2,0.4-0.5,0.4-0.7c0.1-0.2,0.1-0.3,0.1-0.3 M426.4,404.4c0,0,0.4-0.1,1-0.2
		c0.5-0.1,1.4-0.2,1.8-0.4c0.5-0.1,1.2-0.3,1.6-0.4s1-0.4,1.3-0.5c0.3-0.2,0.7-0.4,0.9-0.6c0.2-0.2,0.4-0.4,0.5-0.6s0.1-0.4,0.1-0.6
		s-0.1-0.4-0.3-0.6c-0.1-0.2-0.4-0.5-0.7-0.6c-0.3-0.2-0.7-0.4-1-0.5s-0.9-0.4-1.4-0.5c-0.4-0.1-1.2-0.3-1.7-0.4s-0.9-0.2-0.9-0.2
		 M414.6,398.3c0,0-0.4,0.1-0.9,0.2s-1.3,0.3-1.7,0.4c-0.4,0.1-1.1,0.4-1.4,0.5s-0.8,0.4-1,0.6s-0.5,0.4-0.6,0.6s-0.2,0.5-0.2,0.6
		c0,0.2,0.1,0.5,0.3,0.7c0.1,0.2,0.4,0.5,0.7,0.6c0.2,0.2,0.7,0.4,1.1,0.6c0.4,0.1,1,0.4,1.5,0.5s1.3,0.3,1.8,0.4s1.4,0.2,2,0.3
		c0.6,0.1,1.6,0.2,2.2,0.2s1.7,0.1,2.3,0.1c0.6,0,1.7,0,2.3,0c0.6,0,1.7-0.1,2.3-0.2c0.6-0.1,1.1-0.1,1.1-0.1 M426.4,406.8
		c0,0,0.5-0.1,1-0.2c0.6-0.1,1.4-0.3,1.9-0.4s1.2-0.3,1.6-0.5c0.4-0.1,1-0.4,1.3-0.6s0.7-0.4,0.9-0.6c0.2-0.2,0.4-0.5,0.4-0.6
		c0.1-0.2,0.1-0.3,0.1-0.3 M408.7,403.7c0,0,0,0.1,0.1,0.3c0.1,0.2,0.2,0.5,0.4,0.6c0.2,0.2,0.5,0.4,0.8,0.6s0.8,0.4,1.2,0.5
		c0.4,0.1,1,0.4,1.5,0.5s1.3,0.3,1.8,0.4s1.4,0.2,2,0.3c0.6,0.1,1.5,0.2,2.2,0.2c0.6,0,1.6,0.1,2.2,0.1s1.6,0,2.3,0
		c0.6,0,1.6-0.1,2.2-0.1c0.6-0.1,1.1-0.1,1.1-0.1 M180.6,374.6c0,0-0.4,0.1-0.9,0.2s-1.3,0.3-1.7,0.4s-1,0.3-1.4,0.5
		c-0.3,0.1-0.8,0.4-1,0.6s-0.5,0.5-0.7,0.6c-0.1,0.2-0.2,0.4-0.2,0.6s0.1,0.5,0.2,0.6c0.1,0.2,0.4,0.4,0.6,0.6
		c0.2,0.2,0.4,0.3,0.4,0.3 M198.4,376.1c0,0-0.2-0.1-0.4-0.2c-0.3-0.1-0.7-0.3-1-0.4s-0.9-0.3-1.2-0.4c-0.4-0.1-1-0.2-1.4-0.3
		c-0.4-0.1-0.7-0.2-0.7-0.2 M175.8,379c0,0,0.3,0.1,0.6,0.3c0.3,0.2,0.9,0.4,1.3,0.5c0.4,0.1,1.1,0.3,1.6,0.4s1.4,0.3,1.9,0.4
		c0.6,0.1,1.5,0.2,2.1,0.2c0.6,0.1,1.6,0.1,2.2,0.1c0.6,0,1.7,0,2.3,0s1.6,0,2.3-0.1c0.6-0.1,1.6-0.1,2.2-0.2c0.6-0.1,1.5-0.2,2-0.3
		c0.5-0.1,1.3-0.3,1.7-0.4s1.1-0.4,1.4-0.5c0.4-0.1,0.8-0.4,1.1-0.6c0.2-0.2,0.5-0.4,0.7-0.6c0.1-0.2,0.3-0.4,0.3-0.6
		s-0.1-0.5-0.2-0.6c-0.1-0.2-0.4-0.5-0.6-0.6c-0.2-0.2-0.4-0.3-0.4-0.3 M269,428.9c0,0,0.6-0.1,1.4-0.2s2-0.4,2.7-0.5
		c0.7-0.2,1.7-0.5,2.3-0.7c0.6-0.2,1.4-0.6,1.8-0.8c0.4-0.2,1-0.6,1.2-0.9c0.2-0.2,0.5-0.7,0.6-0.9c0.1-0.3,0.1-0.5,0.1-0.5
		 M243.8,424.4c0,0,0.1,0.2,0.1,0.4c0.1,0.3,0.3,0.6,0.6,0.9c0.2,0.2,0.8,0.6,1.1,0.8c0.4,0.2,1.1,0.6,1.7,0.8
		c0.5,0.2,1.5,0.5,2.1,0.7c0.7,0.2,1.8,0.4,2.6,0.5c0.7,0.1,2,0.3,2.9,0.4c0.8,0.1,2.2,0.2,3.1,0.3s2.3,0.1,3.2,0.1
		c0.9,0,2.3,0,3.2-0.1c0.9,0,2.3-0.1,3.1-0.2c0.8-0.1,1.5-0.1,1.5-0.1 M248.6,417.9c0,0-0.4,0.2-1,0.4c-0.5,0.2-1.3,0.5-1.7,0.7
		c-0.4,0.2-1,0.6-1.2,0.9c-0.3,0.2-0.5,0.6-0.6,0.9c-0.1,0.2-0.1,0.7,0,0.9c0.1,0.3,0.3,0.7,0.5,0.9s0.7,0.6,1.1,0.8
		c0.4,0.2,1.1,0.6,1.6,0.8c0.5,0.2,1.5,0.5,2.1,0.7s1.8,0.4,2.6,0.6c0.7,0.1,2,0.3,2.9,0.4c0.8,0.1,2.2,0.2,3.1,0.3
		c0.9,0.1,2.3,0.1,3.2,0.1c0.9,0,2.3,0,3.2-0.1c0.9-0.1,2.3-0.1,3.1-0.2c0.9-0.1,1.5-0.2,1.5-0.2 M269,425.7c0,0,0.6-0.1,1.4-0.2
		s2-0.4,2.7-0.5c0.7-0.2,1.7-0.5,2.3-0.7c0.6-0.2,1.4-0.5,1.8-0.8c0.4-0.2,1-0.6,1.2-0.9c0.3-0.2,0.5-0.6,0.6-0.9s0.1-0.7,0-0.9
		c-0.1-0.3-0.4-0.7-0.6-0.9c-0.3-0.2-0.8-0.6-1.2-0.9c-0.4-0.2-1.2-0.6-1.8-0.8c-0.6-0.2-1-0.4-1-0.4 M329.5,463.6
		c0,0-0.4,0.1-0.9,0.2s-1.3,0.3-1.7,0.4c-0.4,0.1-1.1,0.4-1.4,0.5s-0.8,0.4-1,0.6s-0.5,0.4-0.7,0.6c-0.1,0.2-0.2,0.5-0.3,0.6
		c0,0.2,0.1,0.5,0.2,0.6c0.1,0.2,0.4,0.4,0.6,0.6s0.4,0.3,0.4,0.3 M347.2,465.1c0,0-0.2-0.1-0.5-0.2c-0.2-0.1-0.7-0.3-1-0.4
		s-0.8-0.3-1.2-0.4c-0.4-0.1-1-0.2-1.4-0.3c-0.4-0.1-0.7-0.1-0.7-0.1 M324.6,468c0,0,0.2,0.1,0.6,0.3c0.3,0.2,0.9,0.4,1.3,0.5
		s1.2,0.3,1.6,0.4c0.5,0.1,1.4,0.3,1.9,0.3c0.6,0.1,1.5,0.2,2.1,0.2c0.6,0.1,1.6,0.1,2.2,0.1s1.7,0,2.3,0c0.6,0,1.6-0.1,2.3-0.1
		c0.6,0,1.6-0.1,2.2-0.2s1.5-0.2,2-0.3c0.5-0.1,1.3-0.3,1.7-0.4c0.4-0.1,1.1-0.4,1.4-0.5c0.4-0.2,0.8-0.4,1.1-0.6
		c0.2-0.2,0.6-0.4,0.7-0.6s0.3-0.5,0.3-0.6c0-0.2,0-0.5-0.2-0.6c-0.1-0.2-0.4-0.5-0.6-0.6c-0.2-0.2-0.4-0.3-0.4-0.3 M323.5,468.9
		c0,0,0,0.1,0.1,0.3c0,0.1,0.2,0.4,0.2,0.5c0.1,0.1,0.4,0.3,0.5,0.5c0.2,0.1,0.3,0.2,0.3,0.2 M239.8,308.5l0.3,0.3l0.3,0.1l0.3-0.1
		 M239.8,300.2h-0.3l-0.3,0.2l-0.3,0.4 M240.8,305.5v-0.7l-0.1-0.7l-0.1-0.7l-0.2-0.6l-0.2-0.5l-0.3-0.5l-0.3-0.4l-0.3-0.2l-0.3-0.1
		h-0.3l-0.2,0.2 M239.5,308.1l0.3,0.1h0.3l0.2-0.2l0.2-0.3l0.2-0.4l0.1-0.5l0.1-0.6v-0.6 M275,305.9l-0.3-0.7l-0.4-0.6l-0.5-0.5
		l-0.6-0.4 M269.2,311.3l0.6,0.4l0.7,0.2h0.7l0.7-0.1 M274,305.3l-0.4-0.4l-0.5-0.3l-0.5-0.2H272l-0.6,0.1l-0.6,0.2l-0.5,0.4
		l-0.5,0.4l-0.4,0.5l-0.3,0.6l-0.2,0.7l-0.1,0.7v0.7l0.1,0.6l0.2,0.6l0.3,0.5l0.4,0.4l0.5,0.3l0.5,0.2 M370.8,285.2L370.8,285.2
		L370.8,285.2L370.8,285.2L370.8,285.2l0.1-0.1l0,0l0,0 M366.2,285.8L366.2,285.8L366.2,285.8L366.2,285.8L366.2,285.8L366.2,285.8
		L366.2,285.8l0.1-0.1l0,0l0,0 M366.3,278.7v6.9 M366.3,278.7v-0.2v-0.2v-0.1V278l-0.1-0.1l-0.1-0.1l-0.1-0.1l-0.1-0.1 M364.9,277.1
		l1.1,0.6 M364.9,277.1L364.9,277.1h-0.1h-0.1l0,0v0.1v0.1v0.1v0.1v0.1 M364.6,284.5v-6.9 M364.6,284.5L364.6,284.5v0.1l0,0l0,0l0,0
		v0.1l0,0l0,0l0,0 M366.2,285.8l-1.5-0.9 M370.9,278.1V278v-0.1v-0.1v-0.1v-0.1l-0.1-0.1v-0.1l-0.1-0.1l-0.1-0.1 M369.5,276.5
		L369.5,276.5L369.5,276.5 M370.6,277.1l-1.1-0.6 M370.9,285v-6.9 M241.3,285L241.3,285L241.3,285l0.1-0.1l0,0v-0.1l0,0l0,0v-0.1
		 M241.6,277.9v6.9 M241.6,277.9v-0.1v-0.1l-0.1-0.1v-0.1l-0.1-0.1l-0.1-0.1l-0.1-0.1h-0.1H241 M240.1,277.3l0.8-0.1 M312.7,328.6
		L312.7,328.6L312.7,328.6h0.1l0,0l0,0l0,0v-0.1l0,0 M307.1,327.5L307.1,327.5L307.1,327.5v0.1l0,0l0,0l0,0 M307.1,327.5v-6.9
		 M307.8,319.7l-0.1,0.1h-0.1l-0.1,0.1l-0.1,0.1l-0.1,0.1l-0.1,0.1v0.1v0.2v0.1 M307.8,319.7l2.3-0.3 M310.5,319.5h-0.1h-0.1h-0.1
		 M309.5,329l3.2-0.4 M309.3,328.7L309.3,328.7v0.1l0,0l0,0l0,0l0,0h0.1l0,0 M313,321.4v-0.2v-0.1l-0.1-0.1l-0.1-0.1l-0.1-0.1h-0.1
		h-0.1h-0.1 M313,328.3v-6.9 M312.3,320.7L310,321 M310,321h-0.1l-0.1,0.1l-0.1,0.1l-0.1,0.1l-0.1,0.1l-0.1,0.1v0.2v0.2
		 M309.3,321.9v6.9 M210.9,305.9L210.9,305.9L210.9,305.9L210.9,305.9L210.9,305.9L210.9,305.9L210.9,305.9l0.1-0.1v-0.1l0,0
		 M215.6,305.3L215.6,305.3L215.6,305.3L215.6,305.3L215.6,305.3l0.1-0.1l0,0l0,0 M214.3,296.6L214.3,296.6L214.3,296.6
		 M214.3,296.6l1.1,0.6 M215.7,298.2V298v-0.2v-0.2v-0.1l-0.1-0.1l-0.1,0l-0.1-0.1l-0.1-0.1 M215.7,298.2v6.9 M209.4,305l1.5,0.9
		 M209.3,304.7L209.3,304.7v0.1l0,0l0,0l0,0v0.1l0,0l0,0 M211.1,298.8v-0.2v-0.2v-0.2v-0.1L211,298l-0.1-0.1l-0.1-0.1h-0.1
		 M211.1,305.7v-6.9 M210.7,297.9l-1.1-0.7 M209.7,297.2L209.7,297.2h-0.2l0,0v0.1v0.1v0.1v0.1v0.2 M209.3,297.8v6.9 M283.4,171.1
		l0.3-0.1l0.3-0.3l0.2-0.4l0.2-0.5l0.1-0.6l0.1-0.7v-0.7 M284.6,167.8V167l-0.1-0.8l-0.1-0.8l-0.2-0.7L284,164l-0.3-0.6l-0.3-0.4
		l-0.3-0.3l-0.3-0.2h-0.3 M322.5,165.1v2.5 M324.2,168.9v-3.7 M328.6,171.8L328.6,171.8l0.1-0.1v-0.1v-0.1v-0.1v-0.1v-0.1
		 M328.8,164.4v6.9 M364.6,159.6v5.7 M364.6,165.3v0.1v0.1v0.1v0.1v0.1v0.1l0.1,0.1l0.1,0.1h0.1 M364.9,166.3l1.1,0.6 M366,167
		L366,167h0.1l0,0l0.1-0.1v-0.1v-0.1v-0.1v-0.1v-0.1 M366.3,166.4v-6.8 M230.8,155.5v6.9 M230.8,162.3v0.1v0.1l0.1,0.1l0.1,0.1
		l0.1,0.1l0.1,0.1h0.1h0.1 M231.5,163l2.3-0.3 M233.8,162.7h0.1l0.1-0.1l0.1-0.1l0.1-0.1l0.1-0.1l0.1-0.1V162v-0.1 M234.5,161.9
		v-4.5 M228.8,153.9L228.8,153.9L228.8,153.9l-0.1,0.1l0,0v0.1l0,0l0,0 M228.7,161.1v0.1v0.1l0.1,0.1v0.1l0.1,0.1l0.1,0.1
		 M228.7,161.1v-6.9 M211.3,143.5L211.3,143.5L211.3,143.5L211.3,143.5l-0.1,0.1l0,0l0,0v0.1 M211.2,143.7v6.9 M211.2,150.6v0.2v0.1
		l0.1,0.1l0.1,0.1l0.1,0.1l0.1,0.1h0.1h0.1 M211.9,151.3l2.3-0.3 M214.2,151h0.1h0.1l0.1-0.1l0.1-0.1l0.1-0.1l0.1-0.1v-0.1v-0.1
		v-0.1 M214.9,150.1v-4.5 M209.2,142.2L209.2,142.2L209.2,142.2l-0.1,0.1l0,0l0,0l0,0l0,0 M209,149.3v0.1v0.1l0.1,0.1l0.1,0.1
		l0.1,0.1l0.1,0.1 M209,149.3v-6.9 M288.5,196.8v0.1v0.1v0.1l0.1,0.1l0.1,0.1l0.1,0.1 M288.5,190v6.9 M288.7,189.7L288.7,189.7
		L288.7,189.7l-0.1,0.1l0,0l0,0l0,0l0,0 M290.8,191L290.8,191L290.8,191l-0.1,0.1l0,0l0,0l0,0l0,0 M293.7,198.5h0.1l0.1-0.1l0.1-0.1
		l0.1-0.1l0.1-0.1l0.1-0.1v-0.1v-0.1v-0.1 M290.7,198.1v-6.9 M290.7,198.1v0.2v0.1l0.1,0.1l0.1,0.1l0.1,0.1h0.1h0.1h0.1
		 M293.7,198.5l-2.3,0.3 M294.3,193.1v4.5 M308.1,208.6v0.1v0.1v0.1v0.1l0.1,0.1l0.1,0.1 M308.1,201.7v6.9 M308.3,201.4L308.3,201.4
		L308.3,201.4l-0.1,0.1l0,0l0,0l0,0l0,0 M310.4,202.7L310.4,202.7L310.4,202.7L310.4,202.7l-0.1,0.1l0,0v0.1l0,0 M313.3,210.3h0.1
		l0.1-0.1l0.1-0.1l0.1-0.1l0.1-0.1v-0.1v-0.2v-0.1 M310.3,209.9V203 M310.3,209.9v0.1v0.1l0.1,0.1v0.1l0.1,0.1l0.1,0.1l0.1,0.1h0.1
		h0.1 M313.3,210.3l-2.3,0.3 M314,204.8v4.5 M153.8,187.1L153.8,187.1L153.8,187.1V187v-0.1l0,0l0,0l0,0 M158.4,186.5L158.4,186.5
		L158.4,186.5v-0.2l0,0l0,0l0,0l0,0 M158.4,193.4v-6.9 M158.2,194L158.2,194L158.2,194l0.1-0.1v-0.1v-0.1v-0.1v-0.1 M153.5,194.6
		L153.5,194.6h0.1h0.1l0.1-0.1v-0.1v-0.1v-0.2V194 M152.1,193v-5.7 M152.1,193v0.2v0.1v0.2v0.1v0.1l0.1,0.1l0.1,0.1l0.1,0.1
		 M153.5,194.6l-1.1-0.6 M153.8,187.1v6.9 M195.9,181.6L195.9,181.6L195.9,181.6v-0.1l0,0l0,0l0,0l0,0 M200.5,187.9V181
		 M200.3,188.5L200.3,188.5L200.3,188.5l0.2-0.1v-0.1v-0.1v-0.1V188 M195.6,189.1L195.6,189.1h0.1l0,0l0.1-0.1v-0.1v-0.1v-0.1v-0.1
		 M194.2,187.5v-5.7 M194.2,187.5v0.1v0.1v0.1v0.1v0.1v0.1l0.1,0.1l0.1,0.1l0.1,0.1 M195.6,189.1l-1.1-0.6 M195.9,181.6v6.9
		 M317.2,199.5c0,0-0.7,1.2,2.3,3.9c1.3,1.1,4.1,2.3,6.9,3.6s5,0.6,8,0.1c3.4-0.6,64.7-7.3,100.4-29.9c20.2-12.8,12.8-25,12.8-25
		 M235.7,114.3c0,0,103.4-6.6,169.4,21.8c3.5,1.5,6.3,2.7,7.5,2.1c0,0,3.3,4,7.8,8.6c2.8,2.7,9.8,11.8-0.8,20 M169.1,110
		c0,0-1.4,2.8,1.9,5.1c2.1,1.4,2.9,2,5.1,3c2.5,1.2,5.7,0.8,8.1,0.5c3-0.4,3.2-0.4,7.4-0.9 M324.7,197.3c-1.8,0.1-6.9,0.7-7.9,2.8
		c-0.8,1.6-0.8,4.5,1.8,6.1c0,0,2.7,1.6,3.9,2.4c1.3,0.7,3.3,2.3,5.7,1.9c2.4-0.4,15.2-1.5,25.4-3.4c10.2-1.9,31.3-5.6,51.3-13.2
		c20-7.6,44.5-18,44.2-32.9c-0.3-12.7-8.6-20.3-10.5-22.5s-4.5-4.5-5.9-4.6c-1.4-0.1-12.6,1.2-15.2,1.7s-6.2,1.7-5.5,5.7
		c0.3,1.8,4.5,5.7,6.3,7.4c0,0,6.8,6,5.6,11.1c0,0,0,3.7-6,8.5c-5.9,4.8-20,13-39.9,18.7c-16.2,4.7-19.4,5.1-19.4,5.1 M242.5,116.3
		c0,0,53.7-1.1,92,4.2c38.3,5.3,69.2,17.4,72.9,19.3c3.7,1.9,4.6,0.8,4.6,0.8 M216,104.3c0,0,30.2-0.7,44.2-0.9
		c14-0.1,47.1-0.1,72.6,3.3s55.1,8.6,76.1,15.9s21.9,10.2,22,11.3 M176,108.4c-1.7,0.2-6.6,0.6-7.8,2.5c-1.3,2.1-0.7,4.3,0.8,5.5
		c0,0,3.4,2.5,5.7,3.8s4.1,1.6,7.1,1.1s12.8-1.6,12.8-1.6 M165.9,97.3c-0.5,2.1,1.4,2.9,3.7,4.3c3.4,2.1,22.5,13.7,26,15.7
		s9.2,4.9,12.8,6.3s9.9,3.2,15.4,4.4c5.5,1.3,30,7.7,34,9.2c4,1.4,16.5,5.9,23.6,12.3c7.1,6.4,3.7,13.6,5.6,18.8
		c1.1,2.9,5.5,6.9,10.3,9.8l25.5,15.6c2.9,1.6,5.3,3.7,8.2,3.4c0,0,19-2.4,22-2.8c3-0.4,5.2-1.5,5.2-3.3 M297.3,180.9
		c-4.8-2.9-9.3-6.9-10.3-9.8c-1.9-5.1,1.5-12.4-5.6-18.8s-19.6-10.9-23.6-12.3c-4-1.4-28.5-7.9-34-9.2c-5.5-1.3-11.8-3.1-15.4-4.4
		c-3.6-1.4-9.3-4.3-12.8-6.3s-22.6-13.6-26-15.7s-5.1-3.7-4.3-6.2c0.8-2.4,3.1-3.1,5.5-3.4c2.3-0.4,18.9-2.4,18.9-2.4
		c5.7-0.7,6.2-0.1,7.2,0.5s1.7,1,17.7,10.6c20.1,12.1,10.7,8,60.3,21.6s45.6,33.9,45.8,36.4c0.2,2.4,0.1,4.7,2.7,6.9
		s26.9,16.2,31.5,19.1c4.7,2.9,3.7,5.7,3.4,6.7c-0.3,1-2.6,2.1-4.9,2.4c-2.2,0.4-19.6,2.6-22.5,2.9c-2.9,0.4-5.3-1.7-8.2-3.4
		L297.3,180.9z M241.3,277.3l-1.1-0.7 M201.7,181v3.3 M327.8,286.2l1.6-0.2 M342.3,284.3l22.2-2.9 M370.9,280.6l9.4-1.3
		c2.9-0.4,5.3-3.3,5.3-6.4v-72.6 M371.1,162.1l5.6-0.8c0,0,3.5-0.4,5.1-0.4s3.8,1.8,3.8,4.4c0,0.2,0,0.3,0,0.5v18.8 M364.7,163
		l-35.6,4.8 M295.1,179.6l-0.7,5.6 M204.5,183.7v-3.3 M204.5,173.7l-0.1-24.7c0-3.1,2.1-4.5,4.7-3 M215.1,149.4l13.6,8 M234.5,160.8
		l2,1.2c1.9,1.1,3.6,3.5,4.4,5.9 M241.7,176.5l4.8,102.4c0.1,3.1-1.8,4.5-4.4,3l-0.4-0.2l-0.2-0.1 M320.1,327
		c-0.9,0.7-2.1,0.8-3.5-0.1l-3.6-2 M307.2,321.5l-20.7-12 M280.4,305.9l-3.6-2.1c-2.6-1.5-4.5-5.3-4.3-8.4l7.4-101.2
		c0.2-3.1,2.5-4.4,5.1-2.9l3.5,2.1 M294.4,197l13.7,8.3 M313.9,208.9l2.7,1.7c0.4,0.2,1,0.4,1.4,0.8 M158.5,189.8l35.8-4.7
		 M200.7,184.3l20.5-2.7c2.9-0.4,5.6,1.9,6.1,5l14.9,105.1c0.4,3.1-1.6,6-4.5,6.4l-22.1,2.9 M209.3,301.7l-50.8,6.6 M152.2,309.2
		l-10.3,1.4c-2.9,0.4-5.3-1.9-5.3-5V198.5c0-3.1,2.4-6,5.3-6.4l10.3-1.3 M274.5,158.8c0,1.9-5.8,3.4-12.9,3.4s-12.9-1.5-12.9-3.4
		s5.8-3.4,12.9-3.4S274.5,156.9,274.5,158.8z M342.5,188.3c0,1.2-2.9,2.1-6.4,2.1s-6.4-1-6.4-2.1c0-1.2,2.9-2.1,6.4-2.1
		C339.6,186.2,342.5,187.1,342.5,188.3z M193.5,99.7c0,1.2-2.9,2.1-6.4,2.1s-6.4-1-6.4-2.1c0-1.2,2.9-2.1,6.4-2.1
		C190.7,97.5,193.5,98.5,193.5,99.7z M270.3,178.8l39,23.3c2.6,1.5,5.2,3.4,5.9,4.2c0.7,0.8,1.8,2.7,2.5,4.4s1.7,5.5,2.2,8.7l0.8,5
		c0.5,3.1,0.9,8.2,0.9,11.4v75.5c0,3.2-0.1,7.1-0.2,8.7s-0.5,4.2-0.8,5.7s-1.2,3.4-2,4.1c-0.8,0.8-2.4,0.8-3.6,0.1
		c-1.2-0.7-2.2-1.3-2.2-1.3 M211.1,298.3l4.6-0.6 M153.8,305.7l4.6-0.5 M158.4,312.9l-4.6,0.6 M157,304.1l-4.6,0.6 M153.8,313.5
		L153.8,313.5L153.8,313.5L153.8,313.5L153.8,313.5L153.8,313.5L153.8,313.5l0.1-0.1v-0.1l0,0 M158.4,312.9L158.4,312.9L158.4,312.9
		L158.4,312.9L158.4,312.9v-0.1l0,0l0,0 M157.1,304.1L157.1,304.1L157.1,304.1 M157.1,304.1l1.1,0.7 M158.5,305.8v-0.1v-0.2v-0.2
		v-0.1v-0.1l-0.1-0.1v-0.1l-0.1-0.1h-0.1 M158.5,305.8v6.9 M152.3,312.6l1.5,0.9 M152.2,312.2L152.2,312.2v0.1l0,0l0,0l0,0l0,0l0,0
		l0,0l0,0 M153.9,306.4v-0.2V306v-0.2v-0.2l-0.1-0.1l-0.1-0.1l-0.1-0.1h-0.1 M153.9,313.2v-6.8 M153.6,305.4l-1.1-0.6 M152.5,304.8
		L152.5,304.8h-0.1h-0.1l0,0v0.1v0.1v0.1v0.1v0.1 M152.2,305.4v6.9 M239.9,175.9l-88.4,11.5c-2.9,0.4-6.7,1.2-8.4,1.9
		s-4.4,2.3-5.9,3.7s-3.6,4-4.6,5.9s-2.2,5.1-2.6,7.2c-0.4,2.1-0.7,6.4-0.7,9.5v75.5c0,3.1,0.3,7.3,0.7,9.3s1.5,4.8,2.5,6.3
		s2.9,3.5,4.3,4.4c1.4,0.9,3.9,1.8,5.6,2c1.7,0.2,4.6,0.2,6.5,0c1.9-0.3,3.4-0.5,3.4-0.5 M158.5,311.8l51-6.6 M273.4,172.8l8.1,4.8
		 M273.5,171.7l-4.6-2.8c0,0-7,0.5-3.9,7.7l4.6,2.7 M275,173.7l-0.3-0.7l-0.4-0.6l-0.5-0.5l-0.6-0.3 M269.3,179.2l0.6,0.4l0.7,0.2
		l0.7,0.1l0.7-0.1 M274.1,173.2l-0.4-0.4l-0.5-0.3l-0.5-0.2h-0.6l-0.6,0.1l-0.6,0.2l-0.5,0.4l-0.5,0.4l-0.4,0.6l-0.3,0.6l-0.2,0.7
		l-0.1,0.7v0.7l0.1,0.6l0.2,0.6l0.3,0.5l0.4,0.4l0.5,0.3l0.5,0.2 M238.7,169.1l0.3-0.5 M239.5,175.9l0.4,0.4 M239.7,168l9.7-1.3
		c0,0,4.3,2.9,1,8.7l-9.7,1.3 M239.9,176.4l0.3,0.3l0.3,0.1l0.3-0.1 M239.9,168h-0.3l-0.3,0.2l-0.3,0.3 M240.9,173.3v-0.7l-0.1-0.7
		l-0.1-0.7l-0.2-0.6l-0.2-0.5l-0.3-0.5l-0.2-0.3l-0.3-0.3l-0.3-0.1h-0.3l-0.3,0.2 M239.5,175.9l0.3,0.1h0.3l0.2-0.2l0.2-0.3l0.2-0.4
		l0.1-0.5l0.1-0.6v-0.7 M193.6,314.1v63.5 M193.6,181.9v3.4 M193.6,303.9v3.3 M193.6,120.1V175 M180.7,315.8v61.8 M180.7,183.6v3.2
		 M180.7,305.6v3.3 M180.7,121.6v55.1 M427.6,184.3v217.1 M414.7,145v25.7 M414.7,190.2v211.2 M239.9,308.1l-88.4,11.5
		c-2.9,0.4-7.3,0.5-9.7,0.1c-2.4-0.3-6.1-1.7-8.1-3c-2.1-1.3-4.9-4.2-6.3-6.4c-1.4-2.1-2.9-6.1-3.5-8.7s-1-7.4-1-10.5v-75.5
		c0-3.1,0.4-8,0.9-10.7s2-7,3.4-9.4c1.3-2.4,4-5.9,6-7.6c2-1.8,5.5-4,7.9-4.9s6.7-2,9.6-2.3l59.8-7.8c2.9-0.4,7.7-1,10.6-1.4
		l18.1-2.4 M239.1,301.3l-23.4,3 M393.8,197.8v58.1c0,3.1-0.3,7.4-0.7,9.5c-0.4,2.1-1.6,5.3-2.6,7.2s-3.1,4.5-4.6,5.9
		s-4.1,3-5.9,3.7c-1.7,0.7-4.5,1.4-6.2,1.6c-1.6,0.2-3,0.4-3,0.4 M370.9,158.9c0,0,1.5-0.2,3.4-0.5s4.2-0.5,5.1-0.5
		c0,0,12.4-2.1,13.7,13.3c0.2,1.9,0.6,6,0.6,9.1v1.3 M400.2,195.8v60.1c0,3.1-0.4,8-0.9,10.7c-0.5,2.7-2,7-3.4,9.4
		c-1.3,2.4-4,5.9-6,7.6c-2,1.8-5.5,4-7.9,4.9s-6.7,2-9.6,2.3l-30,3.9 M320.6,158.5l56.1-7.3c0,0,20.5-3.4,22.7,19.1
		c0.2,2,0.6,5.6,0.7,8.5 M283.7,163.3l2.6-0.3 M328.9,164.4l42.1-5.5 M321.4,165.3l7.5-0.9 M284.4,170.1l2.2-0.3 M329.5,296.4
		l-1.6,0.2 M329.5,289.5l-1.6,0.2 M364.7,284.9l-22.3,2.9 M248.7,166.9V159 M248.7,299.1V175.7 M248.7,421.3V307.9 M274.5,172.6V159
		 M274.5,304.8V302 M274.5,266.9v-85.7 M274.5,421.3V313.4 M248.7,158l-34.9-20.9c-2.6-1.5-6-2.9-7.7-3c-1.7-0.1-4.1,0.8-5.3,2.1
		c-1.3,1.2-2.8,3.9-3.4,5.9c-0.6,2-1.4,5.6-1.6,8c-0.2,2.4-0.4,7-0.4,10.1v14.6"/>
</g>
<path class="st0" d="M422.2,407.8v66.3 M262.6,429.8v65.7"/>
<polygon class="st1" points="263.2,489.6 271.6,487.1 269.9,488.9 272,490.2 "/>
<polygon class="st1" points="422.5,468.4 414.1,471.1 415.9,469.3 413.8,468 "/>
<path class="st0" d="M433.8,403.4v85.9 M416.7,469.2l-146.8,19.6"/>
<polygon class="st1" points="122.5,530.9 131.1,528.8 129.4,530.5 131.5,531.8 "/>
<polygon class="st1" points="433.5,487.2 425,489.9 426.7,488.2 424.4,487 "/>
<path class="st0" d="M69,182.9v262.8 M298.7,144.6l-238.1,33 M429,487.9l-300.8,42.6"/>
<polygon class="st1" points="69,451 70.5,441.7 69,443.8 67.6,441.7 "/>
<polygon class="st1" points="69,176.5 70.5,185.8 69,183.7 67.6,185.8 "/>
<g>
	<path class="st0" d="M344.2,144.3v51.3 M179.5,62.5v30.9"/>
</g>
<polygon class="st1" points="180,71 188.4,74 186,74.4 187,76.7 "/>
<polygon class="st1" points="343.8,152.2 335.4,149.1 337.8,148.7 336.8,146.3 "/>
<line class="st0" x1="340" y1="149.6" x2="185" y2="73.8"/>
<line class="st0" x1="243.8" y1="425.9" x2="58.8" y2="451.6"/>
<line class="st0" x1="254.9" y1="390.1" x2="130.1" y2="406.6"/>
<line class="st0" x1="167.9" y1="313.5" x2="113" y2="320.9"/>
<path class="st0" d="M164,182.2l-54.9,7.3 M260.6,158.9L90.7,181.3"/>
<g>
	<path class="st1" d="M263.2,516.7l-1.9,0.2l0.5-1.3l2.5-0.3l1.3,11.5l-1.3,0.1L263.2,516.7z"/>
	<path class="st1" d="M267.7,517.8c0-0.6,0.1-1.2,0.3-1.7c0.6-1.3,1.8-1.6,2.5-1.6c2.2-0.2,3.4,1.1,3.6,2.7c0.1,0.8-0.1,2-1.2,2.7
		c0.4,0.1,1.7,0.6,2,2.6c0.2,2.1-1.2,3.6-3.1,3.9c-1.2,0.1-2.6-0.2-3.4-1.6c-0.2-0.4-0.3-0.8-0.4-1.2l1.3-0.1
		c0.1,0.4,0.3,0.8,0.5,1.1c0.4,0.5,1.1,0.7,1.9,0.7c1.3-0.1,2.1-1.3,2-2.6c-0.1-0.7-0.4-1.5-1.4-1.8c-0.4-0.1-0.9-0.2-1.3-0.1
		l-0.1-1.1c0.5,0,0.9-0.2,1.3-0.4c0.3-0.2,0.9-0.8,0.8-1.8c-0.1-1-0.8-1.9-2.2-1.7c-0.5,0.1-1,0.2-1.4,0.8c-0.2,0.3-0.3,0.8-0.3,1.3
		L267.7,517.8z"/>
	<path class="st1" d="M283.3,521.4l1.4-0.2l0.1,1.2l-1.4,0.2l0.2,2.2l-1.3,0.1l-0.2-2.2l-5.9,0.7l6-10.7L283.3,521.4z M282,521.5
		l-0.6-5.1l-3,5.5L282,521.5z"/>
	<path class="st1" d="M293,513.2l-3.7,0.4l-0.5,2.6c0.2-0.1,0.4-0.1,0.7-0.2c2.3-0.3,4,1.3,4.2,3.5c0.3,2.6-1.5,4.3-3.7,4.6
		c-0.9,0.1-1.8-0.1-2.7-0.6c-0.4-0.3-0.8-0.6-1.1-1.1l0.9-0.8c0.2,0.4,0.5,0.6,0.9,0.8c0.5,0.3,1.1,0.6,1.9,0.5
		c1.6-0.2,2.7-1.6,2.5-3.3c-0.2-1.6-1.5-2.7-3.1-2.5c-0.4,0-1.2,0.2-2.1,1l1-5.7l4.6-0.5L293,513.2z"/>
</g>
<g>
	<path class="st1" d="M335.2,484.4l-2.2,4c0.3-0.1,0.6-0.2,1-0.3c2.2-0.3,3.9,1.2,4.1,3.4c0.3,2.3-1.2,4.1-3.5,4.4
		c-2.7,0.3-4.2-1.6-4.4-3.4c0-0.4-0.1-1.4,0.6-2.7l3.3-5.9L335.2,484.4z M336.9,491.7c-0.2-1.5-1.4-2.5-3-2.3s-2.5,1.5-2.4,2.9
		c0.2,1.5,1.4,2.6,3,2.4C336.1,494.5,337.1,493.2,336.9,491.7z"/>
	<path class="st1" d="M342.5,494.3l2.2-4c-0.3,0.1-0.6,0.2-1,0.3c-2.2,0.3-3.9-1.2-4.1-3.4c-0.3-2.3,1.2-4.1,3.5-4.4
		c2.7-0.3,4.2,1.6,4.4,3.4c0,0.4,0.1,1.5-0.6,2.7l-3.3,5.8L342.5,494.3z M340.8,487.1c0.2,1.5,1.4,2.5,3,2.3
		c1.6-0.2,2.5-1.5,2.4-2.9c-0.2-1.5-1.4-2.6-3-2.4C341.6,484.3,340.6,485.6,340.8,487.1z"/>
	<path class="st1" d="M349.1,485.3c0-0.6,0.1-1.2,0.3-1.7c0.6-1.3,1.8-1.6,2.5-1.6c2.2-0.2,3.4,1.1,3.6,2.7c0.1,0.8-0.1,2-1.2,2.7
		c0.4,0.1,1.7,0.6,2,2.6c0.2,2.1-1.2,3.6-3.1,3.9c-1.2,0.1-2.6-0.2-3.4-1.6c-0.2-0.4-0.3-0.8-0.4-1.2l1.3-0.1
		c0.1,0.4,0.3,0.8,0.5,1.1c0.4,0.5,1.1,0.7,1.9,0.7c1.3-0.1,2.1-1.3,2-2.6c-0.1-0.7-0.4-1.5-1.4-1.8c-0.4-0.1-0.9-0.2-1.3-0.1
		l-0.1-1.1c0.5,0,0.9-0.2,1.3-0.4s0.9-0.8,0.8-1.8c-0.1-1-0.8-1.9-2.2-1.7c-0.5,0.1-1,0.2-1.4,0.8c-0.2,0.3-0.3,0.8-0.3,1.3
		L349.1,485.3z"/>
</g>
<g>
	<path class="st1" d="M186.1,404.1l-2.2,4c0.3-0.1,0.6-0.2,1-0.3c2.2-0.3,3.9,1.2,4.1,3.4c0.3,2.3-1.2,4.1-3.5,4.4
		c-2.7,0.3-4.2-1.6-4.4-3.4c0-0.4-0.1-1.4,0.6-2.7l3.3-5.9L186.1,404.1z M187.7,411.3c-0.2-1.5-1.4-2.5-3-2.3
		c-1.6,0.2-2.5,1.5-2.4,2.9c0.2,1.5,1.4,2.6,3,2.4C187,414.2,187.9,412.9,187.7,411.3z"/>
	<path class="st1" d="M192.1,413.1c-0.9-1-1.4-2.4-1.6-4.1c-0.2-1.6,0-3.2,0.7-4.3c0.7-1.4,1.8-1.9,2.7-2.1c0.9-0.1,2.1,0.2,3.1,1.4
		c0.9,1,1.4,2.4,1.6,4.1c0.2,1.6,0,3.2-0.7,4.3c-0.7,1.4-1.8,1.9-2.7,2.1C194.4,414.5,193.2,414.2,192.1,413.1z M192.2,405.2
		c-0.5,1-0.6,2.4-0.4,3.6s0.5,2.5,1.2,3.4c0.7,0.9,1.5,1.1,2.1,1c0.6-0.1,1.3-0.5,1.8-1.5c0.5-1,0.6-2.4,0.4-3.6s-0.5-2.5-1.2-3.4
		c-0.7-0.9-1.5-1.1-2.1-1C193.5,403.8,192.7,404.2,192.2,405.2z"/>
	<path class="st1" d="M201.8,403.1l-1.9,0.2l0.5-1.3l2.5-0.3l1.3,11.5l-1.3,0.1L201.8,403.1z"/>
</g>
<g>
	<path class="st1" d="M110.5,387.5l0-1.4l1.2,0l0,1.4l2.2,0l0,1.3l-2.2,0l-0.1,5.9l-9.9-7.3L110.5,387.5z M110.5,388.8l-5.1,0
		l5.1,3.7L110.5,388.8z"/>
	<path class="st1" d="M102.9,378.4l3.7,2.7c-0.1-0.3-0.2-0.7-0.1-1c0-2.2,1.7-3.7,3.8-3.7c2.3,0,3.9,1.7,3.9,4c0,2.7-2.1,4-4,4
		c-0.4,0-1.4-0.1-2.6-1l-5.4-4L102.9,378.4z M110.3,377.6c-1.5,0-2.7,1.1-2.7,2.7s1.1,2.7,2.6,2.7c1.5,0,2.8-1.1,2.8-2.7
		C113,378.8,111.8,377.6,110.3,377.6z"/>
	<path class="st1" d="M103.7,368.3l-0.1,6.3l-1.2,0l0.1-8.5l11.7,7.8l-0.7,1L103.7,368.3z"/>
</g>
<g>
	<path class="st1" d="M103.7,258.7l0,3.7l2.5,0.8c0-0.2-0.1-0.5-0.1-0.7c0-2.3,1.8-3.8,4-3.8c2.6,0,4.1,2,4.1,4.2
		c0,0.9-0.3,1.8-0.9,2.6c-0.3,0.4-0.7,0.7-1.2,1l-0.7-1c0.4-0.2,0.7-0.4,0.9-0.8c0.4-0.5,0.7-1.1,0.7-1.9c0-1.6-1.3-2.8-2.9-2.9
		c-1.7,0-2.8,1.2-2.9,2.8c0,0.4,0.1,1.2,0.8,2.2l-5.6-1.7l0-4.6L103.7,258.7z"/>
	<path class="st1" d="M112.5,255.3c-1.1,0.8-2.6,1.1-4.2,1.1c-1.6,0-3.1-0.4-4.2-1.2c-1.3-0.9-1.7-2.1-1.7-3c0-0.9,0.5-2.1,1.8-2.9
		c1.1-0.8,2.6-1.1,4.2-1.1c1.6,0,3.1,0.4,4.2,1.2c1.3,0.9,1.7,2.1,1.7,3C114.3,253.2,113.8,254.4,112.5,255.3z M104.8,254.2
		c1,0.6,2.3,0.9,3.5,0.9c1.2,0,2.5-0.2,3.5-0.8c1-0.6,1.3-1.4,1.3-2c0-0.6-0.3-1.4-1.3-2c-1-0.6-2.3-0.9-3.5-0.9
		c-1.2,0-2.5,0.2-3.5,0.8c-1,0.6-1.3,1.4-1.3,2C103.5,252.8,103.8,253.6,104.8,254.2z"/>
	<path class="st1" d="M112.6,245.4c-1.1,0.8-2.6,1.1-4.2,1.1c-1.6,0-3.1-0.4-4.2-1.2c-1.3-0.9-1.7-2.1-1.7-3c0-0.9,0.5-2.1,1.8-2.9
		c1.1-0.8,2.6-1.1,4.2-1.1c1.6,0,3.1,0.4,4.2,1.2c1.3,0.9,1.7,2.1,1.7,3C114.4,243.4,113.9,244.6,112.6,245.4z M104.9,244.4
		c1,0.6,2.3,0.9,3.5,0.9c1.2,0,2.5-0.2,3.5-0.8c1-0.6,1.3-1.4,1.3-2c0-0.6-0.3-1.4-1.3-2c-1-0.6-2.3-0.9-3.5-0.9
		c-1.2,0-2.5,0.2-3.5,0.8c-1,0.6-1.3,1.4-1.3,2C103.6,243,103.9,243.8,104.9,244.4z"/>
</g>
<g>
	<path class="st1" d="M81.2,331.7l0,1.9l-1.2-0.7l0-2.5l11.5,0.1l0,1.3L81.2,331.7z"/>
	<path class="st1" d="M90.1,325.7c-1.1,0.8-2.6,1.1-4.2,1.1c-1.6,0-3.1-0.4-4.2-1.2c-1.3-0.9-1.7-2.1-1.7-3s0.5-2.1,1.8-2.9
		c1.1-0.8,2.6-1.1,4.2-1.1c1.6,0,3.1,0.4,4.2,1.2c1.3,0.9,1.7,2.1,1.7,3C91.8,323.6,91.4,324.8,90.1,325.7z M82.3,324.6
		c1,0.6,2.3,0.9,3.5,0.9c1.2,0,2.5-0.2,3.5-0.8c1-0.6,1.3-1.4,1.3-2c0-0.6-0.3-1.4-1.3-2c-1-0.6-2.3-0.9-3.5-0.9
		c-1.2,0-2.5,0.2-3.5,0.8c-1,0.6-1.3,1.4-1.3,2C81.1,323.2,81.4,324,82.3,324.6z"/>
	<path class="st1" d="M81.4,314.9l0,1.9l-1.2-0.7l0-2.5l11.5,0.1l0,1.3L81.4,314.9z"/>
	<path class="st1" d="M83,310.5c-0.6,0-1.2-0.3-1.7-0.6c-1.2-0.8-1.3-2-1.3-2.7c0-2.2,1.5-3.2,3.1-3.2c0.8,0,2,0.3,2.5,1.5
		c0.2-0.4,0.8-1.7,2.8-1.6c2.2,0,3.5,1.6,3.4,3.6c0,1.2-0.5,2.6-2,3.2c-0.4,0.2-0.8,0.2-1.2,0.2l0-1.3c0.4,0,0.8-0.2,1.2-0.4
		c0.6-0.4,0.9-1,0.9-1.8c0-1.3-1-2.3-2.3-2.3c-0.7,0-1.5,0.2-1.9,1.1c-0.2,0.4-0.3,0.9-0.3,1.3l-1.1,0c0-0.4,0-1-0.2-1.3
		c-0.2-0.4-0.7-1-1.7-1c-1,0-2,0.5-2,2c0,0.5,0.1,1,0.6,1.5c0.3,0.2,0.7,0.4,1.2,0.5L83,310.5z"/>
</g>
<g>
	<path class="st1" d="M53.7,335.5l0,1.9l-1.2-0.7l0-2.5l11.5,0.1l0,1.3L53.7,335.5z"/>
	<path class="st1" d="M62.6,329.4c-1.1,0.8-2.6,1.1-4.2,1.1c-1.6,0-3.1-0.4-4.2-1.2c-1.3-0.9-1.7-2.1-1.7-3c0-0.9,0.5-2.1,1.8-2.9
		c1.1-0.8,2.6-1.1,4.2-1.1c1.6,0,3.1,0.4,4.2,1.2c1.3,0.9,1.7,2.1,1.7,3C64.3,327.4,63.9,328.6,62.6,329.4z M54.9,328.4
		c1,0.6,2.3,0.9,3.5,0.9c1.2,0,2.5-0.2,3.5-0.8c1-0.6,1.3-1.4,1.3-2c0-0.6-0.3-1.4-1.3-2c-1-0.6-2.3-0.9-3.5-0.9
		c-1.2,0-2.5,0.2-3.5,0.8c-1,0.6-1.3,1.4-1.3,2C53.6,327,53.9,327.8,54.9,328.4z"/>
	<path class="st1" d="M53.9,314.9l-0.1,6.3l-1.2,0l0.1-8.5l11.7,7.8l-0.7,1L53.9,314.9z"/>
	<path class="st1" d="M54,310.3l0,1.9l-1.2-0.7l0-2.5l11.5,0.1l0,1.3L54,310.3z"/>
</g>
<g>
	<path class="st1" d="M225.3,77l-1.7-0.9l1.2-0.8l2.3,1.2l-5.3,10.2l-1.1-0.6L225.3,77z"/>
	<path class="st1" d="M235.4,82.2l-3.3-1.7l-1.8,1.9c0.2,0.1,0.4,0.1,0.7,0.3c2.1,1.1,2.6,3.3,1.5,5.3c-1.2,2.3-3.6,2.8-5.6,1.7
		c-0.8-0.4-1.5-1.1-1.9-2c-0.2-0.4-0.3-1-0.3-1.5l1.2-0.2c0,0.4,0.1,0.8,0.3,1.2c0.2,0.6,0.6,1.1,1.3,1.5c1.4,0.8,3.1,0.1,3.9-1.3
		c0.8-1.5,0.3-3.1-1.2-3.8c-0.4-0.2-1.1-0.5-2.3-0.3l4.1-4.2l4.1,2.1L235.4,82.2z"/>
	<path class="st1" d="M237.3,85.1c0.3-0.6,0.8-1,1.3-1.3c1.2-0.7,2.4-0.3,3,0c1.9,1,2.2,2.9,1.4,4.3c-0.4,0.7-1.2,1.6-2.5,1.6
		c0.3,0.3,1.1,1.5,0.2,3.2c-1,1.9-3,2.4-4.7,1.4c-1.1-0.6-2.1-1.6-1.9-3.2c0-0.4,0.2-0.8,0.3-1.2l1.1,0.6c-0.1,0.4-0.2,0.8-0.2,1.2
		c0.1,0.7,0.5,1.3,1.2,1.6c1.1,0.6,2.5,0.1,3.1-1c0.3-0.6,0.5-1.5-0.1-2.2c-0.2-0.3-0.6-0.6-1.1-0.8l0.5-1c0.4,0.2,0.9,0.4,1.3,0.4
		c0.4,0,1.2-0.2,1.6-1.1c0.5-0.9,0.4-2-0.8-2.7c-0.4-0.2-1-0.4-1.6-0.1c-0.3,0.2-0.7,0.5-1,0.9L237.3,85.1z"/>
	<path class="st1" d="M247.2,88.4l-1.7-0.9l1.2-0.8l2.3,1.2l-5.3,10.2l-1.1-0.6L247.2,88.4z"/>
</g>
</svg>
