<?xml version="1.0" encoding="utf-8"?>
<!-- Generator: Adobe Illustrator 23.0.3, SVG Export Plug-In . SVG Version: 6.00 Build 0)  -->
<svg version="1.1" id="Слой_1" xmlns="http://www.w3.org/2000/svg" xmlns:xlink="http://www.w3.org/1999/xlink" x="0px" y="0px"
	 viewBox="0 0 500 600" style="enable-background:new 0 0 500 600;" xml:space="preserve">
<style type="text/css">
	.st0{fill:none;stroke:#4E86B9;stroke-width:0.7922;stroke-linecap:round;stroke-linejoin:round;stroke-miterlimit:10;}
	.st1{fill:#4E86B9;stroke:#4E86B9;stroke-width:0.7922;stroke-linecap:round;stroke-linejoin:round;stroke-miterlimit:10;}
	.st2{fill:none;stroke:#4E86B9;stroke-width:0.75;stroke-linecap:round;stroke-linejoin:round;stroke-miterlimit:10;}
	.st3{fill:#4E86B9;}
	.st4{fill:#4E86B9;stroke:#4E86B9;stroke-width:0.4;stroke-linecap:round;stroke-linejoin:round;stroke-miterlimit:10;}
	.st5{fill:none;stroke:#4E86B9;stroke-width:0.4;stroke-linecap:round;stroke-linejoin:round;stroke-miterlimit:10;}
	.st6{fill:none;stroke:#4E86B9;stroke-width:0.4;stroke-miterlimit:10;}
	.st7{fill:none;stroke:#4E86B9;stroke-width:0.5;stroke-linecap:round;stroke-linejoin:round;stroke-miterlimit:10;}
</style>
<line class="st0" x1="302" y1="144.1" x2="302" y2="144.1"/>
<g>
	<path class="st0" d="M141.5,161.7v-6 M141.3,162.3L141.3,162.3L141.3,162.3l0.1-0.1v-0.1V162v-0.1v-0.1 M136.9,162.8L136.9,162.8
		h0.1h0.1v-0.1v-0.1v-0.1v-0.1v-0.1 M135.6,161.3v-5 M135.6,161.3v0.1v0.1v0.1v0.1v0.1l0.1,0.1l0.1,0.1l0.1,0.1 M136.9,162.8l-1-0.6
		 M137.2,156.2v6 M176.7,151.5L176.7,151.5L176.7,151.5L176.7,151.5L176.7,151.5L176.7,151.5L176.7,151.5L176.7,151.5 M181,157v-6
		 M180.8,157.5L180.8,157.5L180.8,157.5l0.1-0.1v-0.1v-0.1v-0.1V157 M176.4,158L176.4,158h0.1l0,0l0.1-0.1v-0.1v-0.1v-0.1v-0.1
		 M175.1,156.6v-5 M175.1,156.6v0.1v0.1v0.1v0.1v0.1v0.1l0.1,0.1l0.1,0.1l0.1,0.1 M176.4,158l-1-0.6 M176.7,151.5v6 M174.4,83.9
		l-0.4,0.2c0,0-4.5,3.8-1.2,9l0.7,0.3 M182.4,94.2l0.3-0.1l0.3-0.2 M182.2,90.5v0.7l0.1,0.6l0.1,0.5l0.1,0.4l0.2,0.3l0.2,0.2
		l0.2,0.1h0.2 M182.5,87.6l-0.2,0.7l-0.1,0.7l-0.1,0.7v0.7 M316.1,165.8l0.6-0.5l0.5-0.6l0.3-0.7l0.2-0.8l0.1-0.8 M317.8,162.4
		l-0.1-0.8l-0.2-0.8l-0.3-0.8l-0.4-0.7l-0.6-0.6l-0.6-0.5l-0.7-0.4l-0.7-0.3 M384.3,105.7l0.5-0.3c0,0,3-0.4,4.8,2.1
		c1.3,1.8,1.5,3.8,0.3,6l-4.4,2.9 M382.8,117.2h0.9l0.8-0.2l0.8-0.4l0.7-0.5"/>
</g>
<polyline class="st1" points="141.5,155.7 141.5,155.7 141.5,155.7 141.5,155.6 141.5,155.6 141.5,155.5 141.5,155.5 141.5,155.5 
	"/>
<path class="st1" d="M284.1,169.9L284.1,169.9L284.1,169.9L284.1,169.9L284,170l0,0v0.1l0,0 M286.8,176.4h0.1l0.1-0.1l0.1-0.1
	l0.1-0.1l0.1-0.1l0.1-0.1v-0.1v-0.1 M284,176.1v-6 M284,176.1v0.1v0.1l0.1,0.1l0.1,0.1l0.1,0.1l0.1,0.1l0.1,0.1h0.1h0.1
	 M286.8,176.4l-2.2,0.3 M287.5,171.7v4 M137.2,156.2L137.2,156.2L137.2,156.2v-0.1V156l0,0l0,0l0,0"/>
<polyline class="st1" points="282.1,168.7 282.1,168.8 282.1,168.8 282,168.8 282,168.9 282,168.9 282,168.9 282,169 "/>
<g>
	<path class="st0" d="M162.4,322.3v0.1c0,0.1,0.1,0.2,0.2,0.3c0.1,0.1,0.3,0.2,0.4,0.3c0.1,0.1,0.4,0.2,0.6,0.2
		c0.2,0.1,0.5,0.2,0.7,0.2c0.2,0.1,0.6,0.1,0.9,0.2c0.3,0,0.7,0.1,1,0.1s0.8,0.1,1,0.1c0.3,0,0.8,0,1.1,0s0.8,0,1.1,0s0.8,0,1.1-0.1
		c0.3,0,0.5-0.1,0.5-0.1 M171,323.8c0,0,0.2,0,0.5-0.1c0.3,0,0.7-0.1,0.9-0.2s0.6-0.2,0.8-0.2c0.2-0.1,0.5-0.2,0.6-0.3
		c0.1-0.1,0.3-0.2,0.4-0.3c0.1-0.1,0.2-0.2,0.2-0.3c0-0.1,0.1-0.1,0.1-0.1 M382.5,343.7c0,0,0.1,0.1,0.3,0.1
		c0.2,0.1,0.5,0.2,0.7,0.2c0.2,0.1,0.6,0.2,0.9,0.2c0.3,0.1,0.7,0.1,1,0.2c0.3,0,0.8,0.1,1.1,0.1c0.3,0,0.8,0,1.1,0
		c0.3,0,0.8,0,1.2,0c0.3,0,0.8,0,1.1-0.1c0.3,0,0.8-0.1,1.1-0.1c0.3,0,0.7-0.1,1-0.2c0.2-0.1,0.6-0.2,0.8-0.2
		c0.2-0.1,0.5-0.2,0.6-0.3c0.2-0.1,0.3-0.2,0.4-0.3c0.1-0.1,0.2-0.2,0.2-0.3c0-0.1,0.1-0.2,0.1-0.2 M381.9,343v0.1
		c0,0.1,0.1,0.2,0.1,0.2c0.1,0.1,0.2,0.2,0.2,0.2c0.1,0.1,0.2,0.1,0.2,0.1 M243.4,363.3c0,0,0.4-0.1,1-0.2c0.5-0.1,1.4-0.2,1.8-0.3
		c0.5-0.1,1.2-0.3,1.6-0.4s0.9-0.4,1.2-0.5c0.3-0.1,0.7-0.4,0.8-0.6c0.2-0.2,0.4-0.4,0.4-0.6c0.1-0.2,0.1-0.3,0.1-0.3 M226.1,360.5
		c0,0,0,0.1,0.1,0.3c0.1,0.2,0.2,0.4,0.4,0.6s0.5,0.4,0.8,0.5s0.8,0.4,1.1,0.5c0.4,0.1,1,0.3,1.5,0.4s1.2,0.3,1.7,0.4s1.4,0.2,2,0.3
		c0.6,0.1,1.5,0.1,2.1,0.2c0.6,0,1.6,0.1,2.2,0.1s1.6,0,2.2,0s1.6-0.1,2.1-0.1c0.6-0.1,1-0.1,1-0.1 M302,399.9v0.1
		c0,0.1,0.1,0.2,0.2,0.3s0.3,0.2,0.4,0.3c0.1,0.1,0.4,0.2,0.6,0.2c0.2,0.1,0.5,0.2,0.7,0.2c0.2,0.1,0.6,0.1,0.9,0.2
		c0.3,0,0.7,0.1,1,0.1s0.8,0.1,1,0.1c0.3,0,0.8,0,1.1,0c0.3,0,0.8,0,1.1,0c0.3,0,0.8,0,1.1-0.1c0.3,0,0.5,0,0.5,0 M310.6,401.4
		c0,0,0.2,0,0.5-0.1c0.3,0,0.7-0.1,0.9-0.2c0.2-0.1,0.6-0.1,0.8-0.2c0.2-0.1,0.5-0.2,0.6-0.2c0.1-0.1,0.3-0.2,0.4-0.3
		c0.1-0.1,0.2-0.2,0.2-0.3c0-0.1,0.1-0.2,0.1-0.2 M297.4,401.2c0,0,0.3,0.1,0.6,0.2c0.3,0.1,0.9,0.3,1.3,0.4s1.1,0.3,1.6,0.4
		s1.3,0.2,1.8,0.3c0.5,0.1,1.4,0.2,2,0.2s1.5,0.1,2.1,0.1s1.5,0,2.1,0s1.5,0,2.1-0.1c0.6,0,1.5-0.1,2-0.2s1.4-0.2,1.9-0.3
		c0.5-0.1,1.2-0.2,1.6-0.4c0.4-0.1,1-0.3,1.3-0.4s0.8-0.4,1-0.5s0.5-0.4,0.6-0.5c0.1-0.2,0.2-0.4,0.2-0.6s-0.1-0.4-0.1-0.6
		c-0.1-0.2-0.3-0.4-0.5-0.5s-0.4-0.3-0.4-0.3 M302,397.4c0,0-0.4,0.1-0.9,0.2s-1.2,0.3-1.6,0.4s-1,0.3-1.3,0.4s-0.8,0.3-1,0.5
		c-0.2,0.1-0.5,0.4-0.6,0.5s-0.2,0.4-0.2,0.5s0.1,0.4,0.2,0.6s0.3,0.4,0.5,0.5s0.4,0.3,0.4,0.3 M318.6,398.7c0,0-0.2-0.1-0.4-0.2
		c-0.2-0.1-0.7-0.3-0.9-0.4c-0.3-0.1-0.8-0.2-1.1-0.3c-0.3-0.1-0.9-0.2-1.3-0.3c-0.4-0.1-0.7-0.1-0.7-0.1 M297.4,403.3
		c0,0,0.3,0.1,0.6,0.3c0.3,0.1,0.9,0.4,1.3,0.5s1.2,0.3,1.6,0.4c0.5,0.1,1.3,0.2,1.9,0.3c0.5,0.1,1.5,0.2,2.1,0.2s1.6,0.1,2.2,0.1
		s1.6,0,2.2,0s1.6-0.1,2.2-0.1c0.6-0.1,1.5-0.2,2.1-0.2c0.5-0.1,1.4-0.2,1.8-0.3c0.5-0.1,1.2-0.3,1.6-0.4s0.9-0.3,1.2-0.5
		c0.3-0.1,0.7-0.4,0.8-0.5c0.2-0.2,0.4-0.4,0.4-0.6c0.1-0.2,0.1-0.3,0.1-0.3 M392.9,345.8c0,0,0.4-0.1,0.9-0.1
		c0.5-0.1,1.3-0.2,1.7-0.3c0.4-0.1,1.1-0.3,1.5-0.4s0.9-0.3,1.2-0.5c0.3-0.1,0.7-0.4,0.8-0.5c0.2-0.1,0.4-0.4,0.5-0.5
		s0.1-0.4,0.1-0.5c0-0.2-0.1-0.4-0.3-0.5c-0.1-0.1-0.4-0.4-0.6-0.5s-0.7-0.4-1-0.5s-0.9-0.3-1.3-0.4s-1.1-0.3-1.6-0.4
		s-0.8-0.2-0.8-0.2 M381.9,340.5c0,0-0.4,0.1-0.9,0.2s-1.2,0.3-1.6,0.4s-1,0.3-1.3,0.5c-0.3,0.1-0.8,0.4-1,0.5s-0.5,0.4-0.6,0.5
		c-0.1,0.2-0.2,0.4-0.2,0.6s0.1,0.4,0.2,0.6s0.4,0.4,0.6,0.5s0.7,0.4,1,0.5s1,0.3,1.4,0.4s1.2,0.3,1.7,0.4s1.4,0.2,1.9,0.3
		c0.6,0.1,1.5,0.1,2.1,0.2c0.6,0,1.6,0.1,2.2,0.1s1.6,0,2.2,0s1.6-0.1,2.1-0.1c0.6,0,1.1-0.1,1.1-0.1 M392.9,347.9
		c0,0,0.4-0.1,0.9-0.1c0.5-0.1,1.3-0.2,1.8-0.3c0.4-0.1,1.1-0.3,1.5-0.4s0.9-0.3,1.2-0.5c0.3-0.1,0.6-0.4,0.8-0.5
		c0.2-0.2,0.4-0.4,0.4-0.6c0.1-0.2,0.1-0.3,0.1-0.3 M376.3,345.1c0,0,0,0.1,0.1,0.3c0,0.2,0.2,0.4,0.4,0.5c0.2,0.1,0.5,0.4,0.8,0.5
		s0.8,0.3,1.1,0.5c0.4,0.1,1,0.3,1.4,0.4s1.2,0.2,1.7,0.3c0.5,0.1,1.4,0.2,1.9,0.3c0.5,0.1,1.5,0.1,2,0.2c0.6,0,1.5,0.1,2.1,0.1
		s1.5,0,2.1-0.1c0.6,0,1.5-0.1,2-0.1c0.6-0.1,1-0.1,1-0.1 M162.4,319.8c0,0-0.4,0.1-0.9,0.2s-1.2,0.3-1.6,0.4s-1,0.3-1.3,0.4
		s-0.8,0.4-1,0.5s-0.5,0.4-0.6,0.5s-0.2,0.4-0.2,0.5c0,0.2,0.1,0.4,0.2,0.5c0.1,0.1,0.3,0.4,0.5,0.5s0.4,0.3,0.4,0.3 M179,321.1
		c0,0-0.2-0.1-0.4-0.2s-0.7-0.3-0.9-0.4c-0.3-0.1-0.8-0.2-1.1-0.3c-0.3-0.1-0.9-0.2-1.3-0.3c-0.4-0.1-0.7-0.1-0.7-0.1 M157.8,323.6
		c0,0,0.2,0.1,0.5,0.2s0.9,0.3,1.2,0.5c0.4,0.1,1.1,0.3,1.5,0.4c0.5,0.1,1.3,0.2,1.8,0.3c0.5,0.1,1.4,0.2,2,0.2s1.5,0.1,2.1,0.1
		s1.6,0,2.2,0c0.6,0,1.5-0.1,2.1-0.1s1.5-0.1,2-0.2s1.4-0.2,1.9-0.3c0.5-0.1,1.2-0.3,1.6-0.4c0.4-0.1,1-0.3,1.3-0.4s0.8-0.4,1-0.5
		s0.5-0.4,0.6-0.5c0.1-0.2,0.2-0.4,0.3-0.6c0-0.2,0-0.4-0.1-0.6c-0.1-0.1-0.3-0.4-0.5-0.5s-0.4-0.3-0.4-0.3 M245.2,367.1
		c0,0,0.6-0.1,1.3-0.2c0.7-0.1,1.9-0.3,2.5-0.5c0.6-0.1,1.6-0.4,2.1-0.6s1.3-0.5,1.7-0.7c0.4-0.2,0.9-0.5,1.1-0.7s0.5-0.6,0.6-0.8
		c0.1-0.2,0.1-0.4,0.1-0.4 M221.7,363.2c0,0,0.1,0.2,0.1,0.4c0.1,0.2,0.3,0.6,0.6,0.8c0.2,0.2,0.7,0.5,1.1,0.7
		c0.4,0.2,1.1,0.5,1.6,0.7s1.4,0.4,2,0.6c0.6,0.1,1.7,0.4,2.4,0.5s1.9,0.3,2.7,0.4c0.8,0.1,2.1,0.2,2.9,0.2s2.2,0.1,3,0.1
		s2.2,0,3-0.1c0.8,0,2.1-0.1,2.9-0.2s1.4-0.1,1.4-0.1 M226.1,357.5c0,0-0.4,0.1-0.9,0.3c-0.5,0.2-1.2,0.5-1.6,0.7
		c-0.4,0.2-0.9,0.5-1.1,0.7c-0.2,0.2-0.5,0.6-0.6,0.8c-0.1,0.2-0.1,0.6,0,0.8c0.1,0.2,0.3,0.6,0.5,0.8c0.2,0.2,0.7,0.5,1.1,0.7
		c0.4,0.2,1.1,0.5,1.5,0.7c0.5,0.2,1.4,0.4,2,0.6c0.6,0.1,1.7,0.4,2.4,0.5s1.9,0.3,2.7,0.4c0.8,0.1,2.1,0.2,2.9,0.2s2.2,0.1,3,0.1
		s2.2,0,3-0.1c0.8,0,2.2-0.1,2.9-0.2c0.8-0.1,1.4-0.1,1.4-0.1 M245.2,364.3c0,0,0.6-0.1,1.3-0.2c0.7-0.1,1.9-0.3,2.5-0.5
		c0.6-0.1,1.6-0.4,2.1-0.6s1.3-0.5,1.7-0.7c0.4-0.2,0.9-0.5,1.1-0.7s0.5-0.6,0.6-0.8c0.1-0.2,0.1-0.6,0-0.8
		c-0.1-0.2-0.3-0.6-0.6-0.8c-0.2-0.2-0.7-0.5-1.1-0.7s-1.1-0.5-1.7-0.7c-0.5-0.2-0.9-0.3-0.9-0.3 M302,397.4c0,0-0.4,0.1-0.9,0.2
		s-1.2,0.3-1.6,0.4s-1,0.3-1.3,0.4s-0.8,0.3-1,0.5c-0.2,0.1-0.5,0.4-0.6,0.5s-0.2,0.4-0.2,0.5s0.1,0.4,0.2,0.6s0.3,0.4,0.5,0.5
		s0.4,0.3,0.4,0.3 M318.6,398.7c0,0-0.2-0.1-0.4-0.2c-0.2-0.1-0.7-0.3-0.9-0.4c-0.3-0.1-0.8-0.2-1.1-0.3c-0.3-0.1-0.9-0.2-1.3-0.3
		c-0.4-0.1-0.7-0.1-0.7-0.1 M297.4,401.2c0,0,0.3,0.1,0.6,0.2c0.3,0.1,0.9,0.3,1.3,0.4s1.1,0.3,1.6,0.4s1.3,0.2,1.8,0.3
		c0.5,0.1,1.4,0.2,2,0.2s1.5,0.1,2.1,0.1s1.5,0,2.1,0s1.5,0,2.1-0.1c0.6,0,1.5-0.1,2-0.2s1.4-0.2,1.9-0.3c0.5-0.1,1.2-0.2,1.6-0.4
		c0.4-0.1,1-0.3,1.3-0.4s0.8-0.4,1-0.5s0.5-0.4,0.6-0.5c0.1-0.2,0.2-0.4,0.2-0.6s-0.1-0.4-0.1-0.6c-0.1-0.2-0.3-0.4-0.5-0.5
		s-0.4-0.3-0.4-0.3 M296.4,402c0,0,0,0.1,0.1,0.2c0,0.1,0.2,0.3,0.3,0.4c0.1,0.1,0.3,0.3,0.5,0.4s0.3,0.2,0.3,0.2 M217.9,262.1
		l0.3,0.2l0.3,0.1l0.3-0.1 M217.9,254.9h-0.3l-0.3,0.2l-0.2,0.3 M218.9,259.5v-0.6l-0.1-0.6l-0.1-0.6l-0.2-0.6l-0.2-0.5l-0.2-0.4
		l-0.2-0.3l-0.3-0.2l-0.3-0.1h-0.2l-0.2,0.1 M217.5,261.7l0.2,0.1h0.3l0.2-0.2l0.2-0.3l0.2-0.4l0.1-0.4l0.1-0.5v-0.6 M250.9,259.8
		l-0.3-0.6l-0.4-0.5l-0.5-0.4l-0.6-0.3 M245.4,264.6l0.6,0.3l0.6,0.2l0.7,0.1l0.7-0.1 M250,259.4l-0.4-0.3l-0.5-0.3l-0.5-0.1h-0.5
		l-0.6,0.1L247,259l-0.5,0.3l-0.4,0.4l-0.4,0.5l-0.3,0.5l-0.2,0.6l-0.1,0.6v0.6l0.1,0.6l0.2,0.5l0.3,0.4l0.4,0.4l0.5,0.3l0.5,0.2
		 M340.8,241.8L340.8,241.8L340.8,241.8L340.8,241.8L340.8,241.8l0.1-0.1l0,0l0,0 M336.4,242.3L336.4,242.3L336.4,242.3L336.4,242.3
		L336.4,242.3L336.4,242.3L336.4,242.3l0.1-0.1l0,0l0,0 M336.5,236.1v6 M336.5,236.1V236v-0.1v-0.1v-0.1l-0.1-0.1l-0.1-0.1v-0.1
		h-0.1 M335.2,234.7l1,0.6 M335.2,234.7L335.2,234.7h-0.1H335l0,0v0.1v0.1v0.1v0.1v0.1 M334.9,241.2v-6 M334.9,241.2L334.9,241.2
		L334.9,241.2v0.1l0,0l0,0l0,0l0,0l0,0l0,0 M336.4,242.3l-1.4-0.8 M340.9,235.6v-0.1v-0.1v-0.1v-0.1v-0.1V235v-0.1l-0.1-0.1
		l-0.1-0.1 M339.6,234.2L339.6,234.2L339.6,234.2 M340.6,234.7l-1-0.6 M340.9,241.6v-6 M219.3,241.6L219.3,241.6L219.3,241.6
		l0.1-0.1l0,0v-0.1l0,0l0,0v0 M219.5,235.4v6 M219.5,235.4v-0.1v-0.1l-0.1-0.1l-0.1-0.1l-0.1-0.1l-0.1-0.1H219h-0.1h-0.1
		 M218.1,234.9l0.8-0.1 M286.3,279.6L286.3,279.6L286.3,279.6l0.1-0.1l0,0l0,0l0,0v-0.1l0,0 M281,278.7L281,278.7L281,278.7v0.1l0,0
		l0,0l0,0 M281,278.7v-6 M281.7,271.9h-0.1h-0.1l-0.1,0.1l-0.1,0.1l-0.1,0.1l-0.1,0.1v0.1v0.1v0.1 M281.7,271.9l2.2-0.3
		 M284.2,271.7h-0.1H284h-0.1 M283.3,280l3-0.4 M283.1,279.8L283.1,279.8L283.1,279.8v0.1l0,0l0,0l0,0h0.1l0,0 M286.5,273.4v-0.1
		v-0.1v-0.1l-0.1-0.1l-0.1-0.1h-0.1h-0.1H286 M286.5,279.4v-6 M285.9,272.7l-2.2,0.3 M283.7,273h-0.1l-0.1,0.1l-0.1,0.1l-0.1,0.1
		l-0.1,0.1l-0.1,0.1v0.1v0.1 M283.1,273.8v6 M190.8,259.9L190.8,259.9L190.8,259.9L190.8,259.9L190.8,259.9L190.8,259.9L190.8,259.9
		l0.1-0.1l0,0l0,0 M195.2,259.3L195.2,259.3L195.2,259.3L195.2,259.3L195.2,259.3l0.1-0.1l0,0l0,0 M193.9,251.8L193.9,251.8
		L193.9,251.8 M193.9,251.8l1,0.6 M195.2,253.2v-0.1V253v-0.1v-0.1l-0.1-0.1l-0.1-0.1l-0.1-0.1l-0.1-0.1 M195.2,253.2v6
		 M189.4,259.1l1.4,0.8 M189.3,258.8L189.3,258.8L189.3,258.8v0.1l0,0l0,0l0,0l0,0l0,0 M190.9,253.7v-0.1v-0.1v-0.1v-0.1l-0.1-0.1
		l-0.1-0.1l-0.1-0.1h-0.1 M190.9,259.7v-6 M190.6,252.8l-1-0.6 M189.6,252.3L189.6,252.3h-0.1h-0.1v0.1v0.1v0.1v0.1v0.1
		 M189.3,252.8v6 M177.6,76.1l-0.5-0.4l-0.6-0.3l-0.6-0.1h-0.7l-0.7,0.2l-0.6,0.3l-0.6,0.4l-0.5,0.5l-0.4,0.6l-0.3,0.7l-0.2,0.7
		l-0.1,0.7 M171.7,79.6l0.1,0.6l0.2,0.6l0.2,0.6l0.3,0.5l0.4,0.4l0.5,0.3l0.5,0.2 M297.2,149.9l0.1,0.8l0.2,0.7l0.3,0.7l0.4,0.6
		l0.5,0.5l0.6,0.4 M302,144.8l-0.8,0.1l-0.8,0.3l-0.7,0.4l-0.7,0.5l-0.6,0.6l-0.5,0.7l-0.4,0.8l-0.2,0.8l-0.1,0.9 M258.7,142.3
		l0.3-0.1l0.3-0.2l0.2-0.3l0.2-0.4l0.1-0.5l0.1-0.6v-0.6 M259.9,139.4v-0.7l-0.1-0.7l-0.1-0.7l-0.2-0.6l-0.2-0.6l-0.3-0.5l-0.3-0.4
		l-0.3-0.3l-0.3-0.2h-0.3 M295.5,137v4.6 M297.1,142.5v-5.3 M301.2,142.9L301.2,142.9l0.1-0.1v-0.1v-0.1v-0.1v-0.1v-0.1
		 M301.4,136.4v6 M334.9,132.8v4.5 M334.9,137.3v0.1v0.1v0.1v0.1v0.1v0.1l0.1,0.1l0.1,0.1h0.1 M335.2,138.1l1,0.6 M336.2,138.7
		L336.2,138.7h0.1l0,0l0.1-0.1l0,0v-0.1v-0.1v-0.1v-0.1 M336.5,138.2v-5.9 M340.9,131.8v5.9 M209.4,128.7v6 M209.4,134.7
		L209.4,134.7v0.2l0.1,0.1l0.1,0.1l0.1,0.1l0.1,0.1h0.1h0.1 M210.1,135.3l2.1-0.3 M212.3,135h0.1l0.1-0.1l0.1-0.1l0.1-0.1l0.1-0.1
		l0.1-0.1v-0.1v-0.1 M212.9,134.2v-4 M207.6,127.3L207.6,127.3L207.6,127.3L207.6,127.3l-0.1,0.1v0.1l0,0l0,0 M207.4,133.5v0.1v0.1
		l0.1,0.1l0.1,0.1l0.1,0.1l0.1,0.1 M207.4,133.5v-6 M191.2,118.2L191.2,118.2L191.2,118.2L191.2,118.2l-0.1,0.1l0,0l0,0l0,0
		 M191,118.4v6 M191,124.4L191,124.4v0.2l0.1,0.1l0.1,0.1l0.1,0.1l0.1,0.1h0.1h0.1 M191.7,125l2.2-0.2 M193.8,124.8h0.1h0.1l0.1-0.1
		l0.1-0.1l0.1-0.1l0.1-0.1v-0.1v-0.1v-0.1 M194.5,124v-4 M189.2,117.1L189.2,117.1L189.2,117.1L189.2,117.1l-0.1,0.1l0,0l0,0l0,0
		 M189,123.3L189,123.3v0.2l0.1,0.1l0.1,0.1l0.1,0.1l0.1,0.1 M189,123.3v-6 M263.6,164.7v0.1v0.1v0.1l0.1,0.1l0.1,0.1l0.1,0.1
		 M263.6,158.7v6 M263.7,158.5L263.7,158.5L263.7,158.5L263.7,158.5l-0.1,0.1l0,0l0,0l0,0 M265.7,159.6L265.7,159.6L265.7,159.6
		L265.7,159.6l-0.1,0.1l0,0l0,0l0,0 M268.4,166.2h0.1l0.1-0.1l0.1-0.1l0.1-0.1l0.1-0.1l0.1-0.1l0.1-0.1v-0.1v-0.1 M265.6,165.9v-6
		 M265.6,165.9v0.1v0.1l0.1,0.1l0.1,0.1l0.1,0.1h0.1h0.1h0.1 M268.4,166.2l-2.2,0.3 M269,161.5v4 M282,175v0.1v0.1v0.1l0.1,0.1
		l0.1,0.1l0.1,0.1 M282,169v6"/>
</g>
<path class="st0" d="M173.5,93.4l8.9,0.8 M174.4,83.9L176,84 M183.6,93.3l-0.6,0.6 M314.1,167.2l2-1.4 M384.3,105.7l-4.4,2.9
	l-0.2,0.2l-0.6,0.6l-0.4,0.7l-0.3,0.8 M194.7,94.4l-11.8-1.1 M372.2,111.2l-158.5-15 M372.9,103.6L197.1,86.9 M385.2,115.5
	l-67.5,48.1 M385.1,115.5l0.4-0.5l0.3-0.6l0.2-0.6l0.1-0.7l-0.1-0.7l-0.2-0.7l-0.3-0.7l-0.4-0.6l-0.5-0.5l-0.6-0.4l-0.6-0.3
	l-0.7-0.2H382h-0.7l-0.6,0.2L314,156.6 M381.9,103.4l-7.9-0.7l-0.3,0.1l-0.3,0.2l-0.3,0.4l-0.3,0.5l-0.3,0.6l-0.2,0.7l-0.2,0.8
	l-0.1,0.8l-0.1,0.9v0.9 M376.2,112.5l-3.1-0.3l-0.3-0.1l-0.3-0.3l-0.2-0.4l-0.2-0.6l-0.1-0.7l-0.1-0.7v-0.8"/>
<line class="st0" x1="381.9" y1="102.6" x2="381.9" y2="102.3"/>
<g>
	<path class="st2" d="M219.2,234.8l-1-0.6 M182.1,150.9v2.9 M300.4,242.6l1.5-0.2 M314,241l20.8-2.5 M340.9,237.7l8.9-1.2
		c2.7-0.3,5-2.9,5-5.6v-93.3c0-0.2,0-0.3,0-0.5 M346.3,133.8l-5.2,0.7 M334.7,135.2l-33.1,4.2 M295.5,140.2l-2.2,0.3 M280.6,142
		l-5.1,0.6c-2.7,0.3-5.3,2.9-5.6,5.6l-0.8,6.3 M184.7,153.3v-2.9 M184.7,144.5l-0.1-21.6c0-2.7,2-3.9,4.4-2.6 M194.6,123.4l12.8,6.9
		 M212.8,133.3l1.9,1c1.8,1,3.4,3,4.2,5.2 M219.6,147l4.5,89.3c0.1,2.7-1.7,3.9-4.1,2.6l-0.3-0.2l-0.1-0.1 M293.2,278.2
		c-0.8,0.6-2,0.7-3.3-0.1l-3.3-1.8 M281.1,273.4l-19.4-10.5 M255.9,259.9l-3.4-1.8c-2.4-1.3-4.2-4.6-4-7.3l7-88.3
		c0.2-2.7,2.4-3.9,4.7-2.5l3.3,1.8 M269,164.9l12.8,7.3 M287.4,175.2l2.5,1.4c0.4,0.2,1,0.4,1.3,0.7 M141.6,158.6l33.6-4.1
		 M181.1,153.7l19.3-2.4c2.7-0.3,5.3,1.6,5.7,4.3l14,91.6c0.4,2.7-1.5,5.2-4.2,5.5l-20.7,2.5 M189.2,256.1l-47.6,5.8 M135.6,262.7
		l-9.6,1.2c-2.7,0.3-5-1.6-5-4.4v-93.4c0-2.7,2.2-5.3,5-5.6l9.6-1.2 M174.4,65.7c0,1-2.7,1.9-6,1.9s-6-0.8-6-1.9c0-1,2.7-1.9,6-1.9
		C171.8,63.9,174.4,64.7,174.4,65.7z M172.6,72.3l4.6,2.5l0.2,0.2l0.6,0.6l0.5,0.7l0.4,0.8 M172.6,72.3l-0.5-0.2
		c0,0-3.1-0.1-4.6,2.5c-1.1,2-1.2,4,0.3,6l4.6,2.5 M175.1,83.5l-0.9,0.1l-0.8-0.1l-0.8-0.3l-0.7-0.5 M394,102.6c0,1-2.7,1.9-6,1.9
		s-6-0.8-6-1.9c0-1,2.7-1.9,6-1.9C391.3,100.7,394,101.5,394,102.6z M250.4,131.5c0,1.6-5.4,3-12.1,3s-12.1-1.3-12.1-3
		c0-1.6,5.4-3,12.1-3C244.9,128.6,250.4,129.9,250.4,131.5z M314.1,143.3c0,1-2.7,1.9-6,1.9s-6-0.8-6-1.9c0-1.1,2.7-1.9,6-1.9
		C311.4,141.5,314.1,142.3,314.1,143.3z M246.4,148.9l36.6,20.4c2.4,1.3,4.9,3,5.5,3.6c0.6,0.7,1.7,2.4,2.3,3.8
		c0.7,1.4,1.6,4.8,2,7.5l0.7,4.4c0.5,2.7,0.8,7.2,0.8,9.9v65.9c0,2.7-0.1,6.1-0.2,7.6c-0.1,1.4-0.4,3.6-0.8,4.9
		c-0.3,1.3-1.2,2.9-1.9,3.6c-0.7,0.7-2.3,0.7-3.4,0.1s-2-1.1-2-1.1 M190.9,253.2l4.3-0.5 M137.1,259.7l4.3-0.5 M141.5,265.9
		l-4.3,0.5 M140.1,258.3l-4.3,0.5 M137.1,266.4L137.1,266.4L137.1,266.4L137.1,266.4L137.1,266.4L137.1,266.4L137.1,266.4l0.1-0.1
		l0,0l0,0 M141.5,265.9L141.5,265.9L141.5,265.9L141.5,265.9L141.5,265.9l0.1-0.1l0,0l0,0 M140.2,258.3L140.2,258.3L140.2,258.3
		 M140.2,258.3l1,0.6 M141.5,259.7v-0.1v-0.1v-0.1v-0.1v-0.1l-0.1-0.1V259l-0.1-0.1l-0.1-0.1 M141.5,259.7v6 M135.7,265.6l1.4,0.8
		 M135.6,265.3L135.6,265.3L135.6,265.3v0.1l0,0l0,0l0,0l0,0l0,0l0,0 M137.2,260.2v-0.1V260v-0.1v-0.1v-0.1l-0.1-0.1l-0.1-0.1h-0.1
		 M137.2,266.2v-6 M136.9,259.4l-1-0.6 M135.9,258.8L135.9,258.8h-0.1h-0.1l0,0v0.1v0.1v0.1v0.1v0.1 M135.6,259.3v6 M217.9,146.4
		l-83,10c-2.7,0.3-6.3,1.1-7.9,1.7c-1.6,0.6-4.1,2-5.5,3.2s-3.3,3.5-4.3,5.1s-2,4.4-2.4,6.3c-0.4,1.8-0.7,5.6-0.7,8.3v65.9
		c0,2.7,0.3,6.4,0.7,8.1c0.4,1.7,1.4,4.2,2.3,5.5c0.9,1.3,2.7,3.1,4,3.8c1.3,0.8,3.7,1.6,5.3,1.8c1.6,0.2,4.3,0.2,6.1-0.1
		c1.8-0.2,3.2-0.4,3.2-0.4 M141.5,264.9l47.8-5.8 M249.3,143.7l7.6,4.2 M249.4,142.8l-4.3-2.4c0,0-6.6,0.4-3.7,6.7l4.3,2.4
		 M250.9,144.6l-0.3-0.6l-0.4-0.5l-0.5-0.4l-0.6-0.3 M245.4,149.3l0.6,0.3l0.6,0.2l0.7,0.1l0.7-0.1 M250,144.1l-0.4-0.3l-0.5-0.2
		l-0.5-0.1h-0.5l-0.6-0.1l-0.5,0.2l-0.5,0.3l-0.4,0.4l-0.4,0.5l-0.3,0.5l-0.2,0.6l-0.1,0.6v0.6l0.1,0.6l0.2,0.5l0.3,0.4l0.4,0.4
		l0.5,0.2l0.5,0.2 M216.8,140.5l0.3-0.5 M217.5,146.5l0.4,0.4 M217.7,139.6l9.1-1.1c0,0,4,2.6,0.9,7.6l-9.1,1.1 M217.9,146.8
		l0.3,0.2l0.3,0.1l0.3-0.1 M217.9,139.6h-0.3l-0.3,0.2l-0.3,0.3 M218.8,144.2v-0.6l-0.1-0.6l-0.1-0.6l-0.2-0.6l-0.2-0.5l-0.2-0.4
		l-0.2-0.3l-0.3-0.2l-0.2-0.1H217l-0.2,0.1 M217.5,146.5l0.3,0.1h0.3l0.2-0.2l0.2-0.3l0.2-0.4l0.1-0.4l0.1-0.5v-0.6 M174.5,267v55.4
		 M174.5,151.7v3 M174.5,258v2.9 M174.5,93.5v52.2 M174.5,83.6v0.2 M174.5,65.7v7.6 M162.4,268.4v53.9 M162.4,153.1v2.8
		 M162.4,259.5v2.9 M162.4,65.7v81.4 M394,102.6v240.5 M381.9,117.8v225.3 M381.8,102.6v4.6 M217.9,261.7l-83,10
		c-2.7,0.3-6.8,0.4-9.1,0.1s-5.7-1.4-7.6-2.6c-1.9-1.2-4.6-3.7-5.9-5.5c-1.3-1.9-2.8-5.3-3.3-7.6c-0.5-2.3-0.9-6.5-0.9-9.2V181
		c0-2.7,0.4-6.9,0.9-9.3c0.5-2.4,1.9-6.1,3.1-8.2c1.2-2.1,3.8-5.1,5.6-6.7c1.9-1.6,5.2-3.5,7.4-4.3s6.3-1.7,9-2l56.1-6.8
		c2.7-0.3,7.2-0.9,9.9-1.2l17-2.1 M217.2,255.8l-22,2.7 M358.3,134.6c0,0,0.6,1.1,1.4,2.4s1.7,3.7,2,5.4c0.3,1.6,0.6,5.2,0.6,7.9
		v65.9c0,2.7-0.3,6.5-0.7,8.3c-0.4,1.8-1.5,4.6-2.4,6.3c-1,1.6-2.9,3.9-4.3,5.1c-1.4,1.2-3.9,2.6-5.5,3.2c-1.6,0.6-4.2,1.2-5.8,1.4
		c-1.5,0.2-2.8,0.3-2.8,0.3 M340.9,131.6c0,0,1.4-0.2,3.2-0.4c1.7-0.2,3.9-0.4,4.8-0.4s1.6,0,1.6,0 M363.2,131.1
		c0,0,0.8,1.5,1.9,3.3c1,1.8,2.2,5,2.6,7.1c0.4,2.1,0.7,6.1,0.7,8.8v65.9c0,2.7-0.4,6.9-0.9,9.3c-0.5,2.4-1.9,6.1-3.2,8.2
		c-1.2,2.1-3.8,5.1-5.6,6.7c-1.8,1.6-5.2,3.5-7.4,4.3c-2.2,0.8-6.3,1.7-9,2l-28.1,3.4 M279.8,132.9l66.5-8.1
		c2.7-0.3,6.2-0.1,7.7,0.4c1.5,0.6,2.7,1.1,2.7,1.1 M259,135.4l7.9-0.9 M301.4,136.4l39.5-4.8 M288.7,137.9l12.7-1.4 M259.7,141.4
		l16.1-1.9 M302,251.5l-1.5,0.2 M302,245.5l-1.5,0.2 M335,241.5l-20.9,2.6 M226.1,138.6v-6.8 M226.1,253.8V146.3 M226.1,360.5v-98.9
		 M250.3,143.6v-11.9 M250.3,258.9v-2.5 M250.3,225.8v-74.7 M250.3,360.5v-94.1 M226.1,130.8l-32.8-18.2c-2.4-1.3-5.6-2.5-7.2-2.6
		c-1.6-0.1-3.8,0.7-5,1.8c-1.2,1.1-2.6,3.4-3.2,5.1c-0.6,1.7-1.3,4.9-1.5,7s-0.4,6.1-0.4,8.8v12.8 M189.1,117.1c0,0-0.7-0.4-1.5-0.8
		c-0.8-0.5-2-0.5-2.6-0.1s-1.4,1.7-1.8,2.9c-0.4,1.2-0.9,3.7-1.1,5.4c-0.2,1.8-0.3,5.5-0.3,8.2v12 M207.6,127.3l-18.4-10.2
		 M226.2,137.7l-18.7-10.4 M219.7,249.4l6.5,3.6 M219.4,242.3l6.8,3.7 M246.4,264.2l36.6,20.4c2.4,1.3,5.7,2.5,7.2,2.6
		c1.6,0.1,3.8-0.7,5-1.8c1.2-1.1,2.6-3.4,3.2-5.1s1.3-4.9,1.5-7s0.4-6.1,0.4-8.8v-68.7c0-2.7-0.5-7.2-1-9.9l-0.8-3.6
		c-0.6-2.7-1.7-6.3-2.6-8.1s-2.5-4.2-3.7-5.4s-4.1-3.3-6.5-4.6l-36.6-20.4 M261.2,265.6l19.8,11 M249.3,259l6.7,3.7 M314.1,143.3
		v256.6 M302,143.3v256.6 M319.7,399.9v2.1 M399.6,343v2.1 M376.3,343v2.1 M156.8,322.3v1c0,0.6,0,1.1,0,1.3c0,0.1,0.1,0.3,0.2,0.4
		c0.1,0.1,0.3,0.3,0.5,0.4s0.3,0.2,0.3,0.2 M180.1,322.3v1c0,0.6,0,1.2-0.1,1.3c-0.1,0.2-0.2,0.4-0.4,0.6s-0.6,0.4-0.8,0.5
		c-0.3,0.1-0.8,0.4-1.2,0.5s-1.1,0.3-1.6,0.4s-1.3,0.2-1.8,0.3c-0.5,0.1-1.5,0.2-2.1,0.2c-0.6,0.1-1.6,0.1-2.2,0.1
		c-0.6,0-1.6,0-2.3,0c-0.6,0-1.6-0.1-2.2-0.1c-0.6,0-1.5-0.1-2.1-0.2s-1.4-0.2-1.9-0.3c-0.5-0.1-1.2-0.3-1.6-0.4
		c-0.4-0.1-1-0.3-1.3-0.5c-0.3-0.1-0.6-0.3-0.6-0.3 M221.7,363.2v-2.8 M254.8,363.2v-2.8 M296.4,399.9v2.1 M216.8,255.8l0.3-0.5
		 M217.5,261.8l0.4,0.4 M217.7,254.9l9.1-1.1c0,0,4,2.6,0.9,7.6l-9.1,1.1 M253.2,258.3h-0.3l-2.6,0.3 M249.4,258.1l-4.3-2.4
		c0,0-6.6,0.4-3.7,6.7l4.3,2.4 M340.8,241.8l-4.3,0.5 M339.5,234.2l-4.3,0.5 M256.1,265.1l2,1.1 M256.7,258.1l2.2-0.3l0.4,0.1l2,1.1
		 M261.3,265.8L261.3,265.8L261.3,265.8l0.1-0.1l0,0l0,0l0,0v-0.1l0,0 M256,264.9L256,264.9L256,264.9v0.1l0,0l0,0l0,0 M256,264.9
		v-6 M256.7,258.1h-0.1h-0.1l-0.1,0.1l-0.1,0.1l-0.1,0.1l-0.1,0.1v0.1v0.1v0.1 M258.3,266.2l3-0.4 M258,266L258,266L258,266v0.1l0,0
		l0,0l0,0h0.1l0,0 M261.5,259.6v-0.1v-0.1l-0.1-0.1l-0.1-0.1l-0.1-0.1h-0.1H261h-0.1 M261.5,265.6v-6 M260.9,259l-2.2,0.3
		 M258.7,259.3h-0.1l-0.1,0.1l-0.1,0.1l-0.1,0.1l-0.1,0.1l-0.1,0.1v0.1v0.1 M258,260v6 M281.1,278.8l2,1.1 M284.2,271.7l2,1.1
		 M195.2,259.3l-4.3,0.5 M193.8,251.7l-4.3,0.5 M302,155.1l-2.7-1.5 M172.8,82.2l124.7,69.3 M176.6,75.5l124.7,69.3 M258.7,142.3
		l-8.4,1 M257.8,134.7l-7.5,0.9 M298.4,143.3l2.8-0.3 M336.3,138.7l3.7-0.4 M209.7,135.2l-2-1.1 M191.3,125l-2-1.1 M265.9,166.4
		l-2-1.1 M284.3,176.6l-2-1.1 M137,162.8l4.3-0.5 M176.5,158l4.3-0.5"/>
</g>
<polygon class="st3" points="84.2,381.5 85.5,373.4 84.2,375.2 82.8,373.4 "/>
<polygon class="st3" points="84.2,151.2 85.5,159.3 84.2,157.5 82.8,159.3 "/>
<path class="st4" d="M238.4,319.2v17.2 M101.4,160.8v107"/>
<polygon class="st3" points="101.4,272.4 102.7,264.3 101.4,266.1 100,264.3 "/>
<polygon class="st3" points="101.4,157.9 102.7,166.1 101.4,164.2 100,166.1 "/>
<line class="st5" x1="101.4" y1="275.3" x2="101.4" y2="374.5"/>
<polygon class="st3" points="101.4,379.2 102.7,371 101.4,372.9 100,371 "/>
<polygon class="st3" points="101.4,272.4 102.7,280.6 101.4,278.7 100,280.6 "/>
<polygon class="st3" points="108.8,348.1 116.7,345.9 115.1,347.5 117,348.6 "/>
<polygon class="st3" points="238.3,332.3 230.4,334.6 232.1,333 230.1,331.9 "/>
<path class="st4" d="M232.1,333l-117,14.4 M223.4,365L79.9,382.6 M147.7,267.1l-51.5,6.4 M147.7,151.8l-51.5,6.4 M238.3,131.5
	L78.4,151.1"/>
<path class="st4" d="M388.5,348.4v56.5 M238.7,367.6v57.7"/>
<polygon class="st3" points="238.9,420.5 246.9,418.3 245.2,419.9 247.2,421 "/>
<polygon class="st3" points="388.7,402 380.8,404.3 382.4,402.8 380.5,401.6 "/>
<path class="st4" d="M426,133.4v254.5 M382.4,402.8L244.6,420"/>
<polygon class="st3" points="426,392.3 427.4,384.2 426,386 424.6,384.2 "/>
<polygon class="st3" points="426,131 427.4,139.1 426,137.3 424.6,139.1 "/>
<g>
	<path class="st4" d="M313.1,404.8l120.2-13.2 M314.4,143.5l120.2-13.2"/>
</g>
<path class="st4" d="M317.3,482.5l-156.1-100 M319.7,400v89.1 M156.8,324.6v62"/>
<polygon class="st3" points="157.3,380 163.4,385.5 162.6,383.4 164.8,383.2 "/>
<polygon class="st3" points="319.7,484 312.1,480.8 314.3,480.6 313.5,478.5 "/>
<g>
	<path class="st5" d="M399.6,344.7v138 M108.1,249.3V528"/>
</g>
<polygon class="st3" points="107.8,521.7 115.9,519.7 114.2,521.2 116.3,522.5 "/>
<polygon class="st3" points="399.2,480.7 391.3,483.3 392.8,481.6 390.7,480.5 "/>
<line class="st6" x1="395.1" y1="481.4" x2="113.2" y2="521.3"/>
<line class="st7" x1="84.4" y1="155.3" x2="84.4" y2="378.1"/>
<g>
	<path class="st3" d="M254.7,507.7l-1.7,0.2l0.5-1.1l2.2-0.2l1.1,9.9l-1.1,0.1L254.7,507.7z"/>
	<path class="st3" d="M258.6,508.7c0-0.6,0.1-1.1,0.3-1.5c0.5-1.1,1.6-1.4,2.2-1.4c1.9-0.2,3,1,3.1,2.4c0.1,0.7-0.1,1.7-1,2.4
		c0.4,0.1,1.5,0.5,1.7,2.2c0.2,1.9-1,3.1-2.7,3.3c-1,0.1-2.3-0.2-3-1.4c-0.2-0.3-0.3-0.7-0.3-1l1.1-0.1c0.1,0.4,0.2,0.7,0.5,1
		c0.4,0.4,1,0.6,1.6,0.6c1.1-0.1,1.8-1.1,1.7-2.2c-0.1-0.6-0.4-1.3-1.2-1.6c-0.3-0.1-0.8-0.1-1.2-0.1l-0.1-1c0.4,0,0.8-0.1,1.1-0.3
		c0.3-0.2,0.8-0.7,0.7-1.6c-0.1-0.9-0.7-1.6-1.9-1.5c-0.4,0-0.9,0.2-1.2,0.7c-0.2,0.3-0.3,0.7-0.3,1.1L258.6,508.7z"/>
	<path class="st3" d="M272.1,511.8l1.2-0.1l0.1,1l-1.2,0.1l0.2,1.9l-1.1,0.1l-0.2-1.9l-5.1,0.6l5.2-9.3L272.1,511.8z M271,512
		l-0.5-4.4l-2.6,4.8L271,512z"/>
	<path class="st3" d="M280.5,504.8l-3.2,0.4l-0.4,2.2c0.2-0.1,0.4-0.1,0.6-0.1c2-0.2,3.5,1.1,3.7,3.1c0.3,2.2-1.3,3.8-3.2,4
		c-0.8,0.1-1.6,0-2.3-0.5c-0.3-0.2-0.7-0.5-1-0.9l0.8-0.7c0.2,0.3,0.4,0.5,0.8,0.7c0.5,0.3,1,0.5,1.7,0.4c1.4-0.2,2.3-1.4,2.2-2.8
		c-0.2-1.4-1.3-2.3-2.7-2.2c-0.4,0-1,0.2-1.8,0.9l0.9-5l3.9-0.4L280.5,504.8z"/>
</g>
<g>
	<path class="st3" d="M334,416.9l-1.9,3.4c0.3-0.1,0.6-0.2,0.9-0.2c1.9-0.2,3.4,1.1,3.6,2.9c0.2,2-1,3.6-3,3.8
		c-2.3,0.3-3.6-1.4-3.8-3c0-0.4-0.1-1.2,0.6-2.4l2.8-5.1L334,416.9z M335.5,423.2c-0.2-1.3-1.2-2.2-2.6-2s-2.2,1.3-2,2.6
		c0.2,1.3,1.2,2.3,2.6,2.1C334.8,425.7,335.6,424.5,335.5,423.2z"/>
	<path class="st3" d="M340.3,425.5l1.9-3.4c-0.3,0.1-0.6,0.2-0.9,0.2c-1.9,0.2-3.4-1.1-3.6-2.9c-0.2-2,1-3.6,3-3.8
		c2.3-0.3,3.6,1.4,3.8,3c0,0.4,0.1,1.3-0.6,2.4l-2.9,5.1L340.3,425.5z M338.9,419.3c0.2,1.3,1.2,2.2,2.6,2s2.2-1.3,2-2.6
		c-0.2-1.3-1.2-2.3-2.6-2.1C339.6,416.8,338.7,417.9,338.9,419.3z"/>
	<path class="st3" d="M346.1,417.7c0-0.6,0.1-1.1,0.3-1.5c0.5-1.1,1.6-1.4,2.2-1.4c1.9-0.2,3,1,3.1,2.4c0.1,0.7-0.1,1.7-1,2.4
		c0.4,0.1,1.5,0.5,1.7,2.2c0.2,1.9-1,3.2-2.7,3.3c-1,0.1-2.3-0.2-3-1.4c-0.2-0.3-0.3-0.7-0.3-1l1.1-0.1c0.1,0.4,0.2,0.7,0.5,1
		c0.4,0.4,1,0.6,1.6,0.6c1.1-0.1,1.8-1.1,1.7-2.2c-0.1-0.6-0.4-1.3-1.2-1.6c-0.3-0.1-0.8-0.1-1.2-0.1l-0.1-1c0.4,0,0.8-0.1,1.1-0.3
		c0.3-0.2,0.8-0.7,0.7-1.6c-0.1-0.9-0.7-1.6-1.9-1.5c-0.4,0-0.9,0.2-1.2,0.7c-0.2,0.3-0.3,0.7-0.3,1.1L346.1,417.7z"/>
</g>
<g>
	<path class="st3" d="M208.5,421.3l-1.4-0.9l1.1-0.6l1.9,1.2l-5.4,8.4l-0.9-0.6L208.5,421.3z"/>
	<path class="st3" d="M213,431.4l1,0.7l-0.6,0.9l-1-0.7l-1,1.6l-0.9-0.6l1-1.6l-4.3-2.8l9.9-3.9L213,431.4z M212.1,430.8l2.4-3.7
		l-5.1,2L212.1,430.8z"/>
	<path class="st3" d="M220.7,436.5c-0.8,1.3-2.4,1.9-4.2,0.8s-1.8-2.8-1-4.1c0.6-0.9,1.5-1.4,2.6-1.2c-0.4-0.8-0.3-1.7,0.2-2.5
		c0.8-1.2,2.3-1.8,3.8-0.8c1.5,1,1.6,2.6,0.8,3.8c-0.5,0.8-1.3,1.2-2.2,1.2C221.4,434.6,221.3,435.6,220.7,436.5z M219.8,435.9
		c0.6-0.9,0.3-2-0.6-2.7s-2.1-0.4-2.7,0.6c-0.6,1-0.4,2.1,0.6,2.7C218.1,437.1,219.2,436.9,219.8,435.9z M222.1,431.9
		c0.6-0.9,0.3-1.9-0.5-2.4s-1.8-0.4-2.4,0.6c-0.5,0.8-0.3,1.8,0.5,2.4C220.5,433,221.6,432.8,222.1,431.9z"/>
	<path class="st3" d="M227.9,441.1c-0.8,1.3-2.4,1.9-4.2,0.8c-1.7-1.1-1.8-2.8-1-4.1c0.6-0.9,1.5-1.4,2.6-1.2
		c-0.4-0.8-0.3-1.7,0.2-2.5c0.8-1.2,2.3-1.8,3.8-0.8c1.5,1,1.6,2.6,0.8,3.8c-0.5,0.8-1.3,1.2-2.2,1.2
		C228.6,439.2,228.5,440.2,227.9,441.1z M227,440.5c0.6-0.9,0.3-2-0.6-2.7c-1-0.6-2.1-0.4-2.7,0.6c-0.6,1-0.4,2.1,0.6,2.7
		C225.3,441.7,226.4,441.5,227,440.5z M229.3,436.5c0.6-0.9,0.3-1.9-0.5-2.4c-0.8-0.5-1.8-0.4-2.4,0.6c-0.5,0.8-0.3,1.8,0.5,2.4
		C227.7,437.6,228.7,437.4,229.3,436.5z"/>
</g>
<g>
	<path class="st3" d="M176,345.9l-1.9,3.4c0.3-0.1,0.6-0.2,0.9-0.2c1.9-0.2,3.4,1.1,3.6,2.9c0.2,2-1,3.6-3,3.8
		c-2.3,0.3-3.6-1.4-3.8-3c0-0.4-0.1-1.2,0.6-2.4l2.8-5.1L176,345.9z M177.5,352.2c-0.2-1.3-1.2-2.2-2.6-2s-2.2,1.3-2,2.6
		c0.2,1.3,1.2,2.3,2.6,2.1C176.8,354.6,177.6,353.5,177.5,352.2z"/>
	<path class="st3" d="M181.3,353.6c-0.8-0.9-1.3-2.1-1.4-3.5c-0.2-1.4,0-2.7,0.6-3.8c0.6-1.2,1.6-1.7,2.4-1.8s1.8,0.2,2.7,1.2
		c0.8,0.9,1.3,2.1,1.4,3.5c0.2,1.4,0,2.7-0.6,3.8c-0.6,1.2-1.6,1.7-2.4,1.8C183.2,354.9,182.2,354.7,181.3,353.6z M181.3,346.9
		c-0.4,0.9-0.5,2.1-0.4,3.1s0.4,2.2,1.1,2.9c0.6,0.8,1.3,1,1.8,0.9c0.5-0.1,1.2-0.4,1.6-1.3c0.4-0.9,0.5-2.1,0.4-3.1
		s-0.4-2.2-1.1-2.9c-0.6-0.8-1.3-1-1.8-0.9C182.4,345.6,181.8,346,181.3,346.9z"/>
	<path class="st3" d="M189.7,345l-1.7,0.2l0.5-1.1l2.2-0.2l1.1,9.9l-1.1,0.1L189.7,345z"/>
</g>
<g>
	<path class="st3" d="M95.9,337.7l0-1.2l1,0l0,1.2l1.9,0l0,1.1l-1.9,0l0,5.1l-8.7-6.3L95.9,337.7z M95.9,338.8l-4.4,0l4.4,3.2
		L95.9,338.8z"/>
	<path class="st3" d="M89.2,329.8l3.2,2.3c-0.1-0.3-0.1-0.6-0.1-0.9c0-1.9,1.4-3.2,3.3-3.2c2,0,3.4,1.4,3.4,3.4
		c0,2.4-1.8,3.5-3.4,3.5c-0.4,0-1.2-0.1-2.3-0.8l-4.7-3.4L89.2,329.8z M95.6,329.1c-1.3,0-2.3,1-2.3,2.3c0,1.4,1,2.3,2.3,2.3
		c1.3,0,2.4-0.9,2.4-2.3C98,330.1,96.9,329.1,95.6,329.1z"/>
	<path class="st3" d="M89.8,321.1l0,5.5l-1,0l0-7.3l10.2,6.7l-0.6,0.9L89.8,321.1z"/>
</g>
<g>
	<path class="st3" d="M70.5,278l0,1.7l-1-0.6l0-2.2l10,0l0,1.1L70.5,278z"/>
	<path class="st3" d="M78.1,272.8c-1,0.7-2.3,1-3.7,1c-1.4,0-2.7-0.4-3.7-1c-1.1-0.8-1.5-1.8-1.5-2.6s0.4-1.8,1.5-2.6
		c1-0.7,2.3-1,3.7-1c1.4,0,2.7,0.4,3.7,1c1.1,0.8,1.5,1.8,1.5,2.6S79.2,272,78.1,272.8z M71.4,271.9c0.9,0.5,2,0.7,3,0.7
		c1,0,2.2-0.2,3-0.7c0.8-0.5,1.1-1.2,1.1-1.7c0-0.5-0.3-1.2-1.1-1.7c-0.9-0.5-2-0.7-3-0.7c-1.1,0-2.2,0.2-3,0.7
		c-0.8,0.5-1.1,1.2-1.1,1.7C70.3,270.7,70.6,271.4,71.4,271.9z"/>
	<path class="st3" d="M70.5,263.4l0,1.7l-1-0.6l0-2.2l10,0l0,1.1L70.5,263.4z"/>
	<path class="st3" d="M71.9,259.7c-0.6,0-1.1-0.2-1.5-0.5c-1-0.7-1.2-1.7-1.2-2.3c0-1.9,1.3-2.8,2.7-2.8c0.7,0,1.7,0.3,2.2,1.3
		c0.1-0.3,0.7-1.4,2.4-1.4c1.9,0,3,1.4,3,3.1c0,1-0.4,2.2-1.7,2.8c-0.4,0.1-0.7,0.2-1.1,0.2l0-1.1c0.4,0,0.7-0.2,1-0.4
		c0.5-0.3,0.8-0.9,0.8-1.5c0-1.1-0.9-2-2-2c-0.6,0-1.3,0.2-1.7,1c-0.2,0.3-0.2,0.7-0.2,1.1l-1,0c0-0.4,0-0.8-0.2-1.1
		c-0.2-0.3-0.6-0.8-1.5-0.8c-0.9,0-1.7,0.5-1.7,1.7c0,0.4,0.1,0.9,0.6,1.3c0.3,0.2,0.6,0.4,1,0.4L71.9,259.7z"/>
</g>
<g>
	<path class="st3" d="M90.4,227.3l0,3.2l2.2,0.6c0-0.2-0.1-0.4-0.1-0.6c0-2,1.5-3.3,3.5-3.3c2.2,0,3.6,1.7,3.6,3.7
		c0,0.8-0.2,1.6-0.8,2.2c-0.3,0.3-0.6,0.6-1,0.9l-0.6-0.9c0.3-0.2,0.6-0.4,0.8-0.7c0.3-0.4,0.6-0.9,0.6-1.6c0-1.4-1.1-2.5-2.6-2.5
		c-1.4,0-2.5,1-2.5,2.5c0,0.4,0.1,1,0.7,1.9l-4.8-1.5l0-4L90.4,227.3z"/>
	<path class="st3" d="M98.1,224.3c-1,0.7-2.3,1-3.7,1c-1.4,0-2.7-0.4-3.7-1c-1.1-0.8-1.5-1.8-1.5-2.6s0.4-1.8,1.5-2.6
		c1-0.7,2.3-1,3.7-1c1.4,0,2.7,0.4,3.7,1c1.1,0.8,1.5,1.8,1.5,2.6S99.2,223.6,98.1,224.3z M91.4,223.5c0.9,0.5,2,0.7,3,0.7
		c1,0,2.2-0.2,3-0.7c0.8-0.5,1.1-1.2,1.1-1.7c0-0.5-0.3-1.2-1.1-1.7c-0.9-0.5-2-0.7-3-0.7c-1.1,0-2.2,0.2-3,0.7
		c-0.8,0.5-1.1,1.2-1.1,1.7C90.3,222.3,90.5,223,91.4,223.5z"/>
	<path class="st3" d="M98.1,215.8c-1,0.7-2.3,1-3.7,1c-1.4,0-2.7-0.4-3.7-1c-1.1-0.8-1.5-1.8-1.5-2.6s0.4-1.8,1.5-2.6
		c1-0.7,2.3-1,3.7-1c1.4,0,2.7,0.4,3.7,1c1.1,0.8,1.5,1.8,1.5,2.6S99.2,215.1,98.1,215.8z M91.4,215c0.9,0.5,2,0.7,3,0.7
		c1,0,2.2-0.2,3-0.7c0.8-0.5,1.1-1.2,1.1-1.7c0-0.5-0.3-1.2-1.1-1.7c-0.9-0.5-2-0.7-3-0.7c-1.1,0-2.2,0.2-3,0.7
		c-0.8,0.5-1.1,1.2-1.1,1.7C90.3,213.7,90.5,214.4,91.4,215z"/>
</g>
<g>
	<path class="st3" d="M432.9,272.4l0,1.7l-1-0.6l0-2.2l10,0l0,1.1L432.9,272.4z"/>
	<path class="st3" d="M432.9,267.2l0,1.7l-1-0.6l0-2.2l10,0l0,1.1L432.9,267.2z"/>
	<path class="st3" d="M441.9,264.2l-4.2-3.7c-0.3-0.3-1.1-0.9-1.5-1.2c-0.6-0.5-1.1-0.6-1.5-0.6c-1.1,0-2,0.8-2,2
		c0,0.7,0.3,1.3,0.9,1.7c0.3,0.2,0.7,0.3,1.2,0.3l0,1.1c-1,0-1.6-0.4-2.1-0.8c-0.5-0.4-1-1.1-1-2.4c0-1.8,1.3-3.1,3-3.1
		c0.7,0,1.3,0.2,2.1,0.8c0.6,0.4,1.2,1,1.7,1.4l2.4,2.1l0-4.2l1,0L441.9,264.2z"/>
	<path class="st3" d="M432.9,250.9l0,5.5l-1,0l0-7.4l10.2,6.7l-0.6,0.9L432.9,250.9z"/>
</g>
</svg>
