<svg version="1.1" id="Слой_1" xmlns="http://www.w3.org/2000/svg" xmlns:xlink="http://www.w3.org/1999/xlink" x="0px" y="0px"
	 viewBox="0 0 59.5 59.5" style="enable-background:new 0 0 59.5 59.5;" xml:space="preserve">
<style type="text/css">
	.stt0{fill:#234284;}
	.stt1{fill:none;stroke:#FFFFFF;stroke-width:0.75;stroke-linejoin:round;stroke-miterlimit:10;}
	.stt2{fill:#FFFFFF;}
	.stt3{fill:none;stroke:#FFFFFF;stroke-width:0.75;stroke-miterlimit:10;}
</style>
<rect y="0" class="stt0" width="59.5" height="59.5"/>
<polygon class="stt1" points="6.9,31.3 12.3,25.9 10.3,23.9 5.7,28.5 5.7,32.5 5.7,45.5 5.7,47.2 6.9,47.2 11.1,47.2 11.1,46.4 
	6.9,45.7 "/>
<line class="stt1" x1="11.9" y1="26.3" x2="9.8" y2="24.3"/>
<path class="stt1" d="M10.5,29.1c-0.7,0.7-1.6,0.9-1.9,0.5l2.5-2.5C11.4,27.6,11.2,28.5,10.5,29.1z"/>
<path class="stt2" d="M21.6,27.7C21.6,27.7,21.5,27.7,21.6,27.7H11.2l-0.1,0.8h10.4h0.1c0.2,0,0.4-0.2,0.4-0.4
	C22,27.9,21.8,27.7,21.6,27.7z"/>
<path class="stt2" d="M9.8,40.2V29.6L9,29.9v10.3v0.1c0,0.2,0.2,0.4,0.4,0.4C9.7,40.7,9.8,40.5,9.8,40.2L9.8,40.2z"/>
<path class="stt2" d="M18,36.1l-7.2-7.2l-0.6,0.5l7.3,7.3c0.1,0.1,0.2,0.2,0.4,0.2c0.2,0,0.4-0.2,0.4-0.4
	C18.2,36.3,18.2,36.2,18,36.1z"/>
<path class="stt1" d="M33.1,36.6h16.8c0,0,3.1,0.1,3.1,1.1v17.8H30V37.7C30,36.7,33.1,36.6,33.1,36.6z"/>
<rect x="32.1" y="38" class="stt1" width="18.8" height="16.4"/>
<line class="stt1" x1="32.1" y1="40.5" x2="50.9" y2="40.5"/>
<path class="stt1" d="M30,37.7c0,0,3.1-0.4,3.1-1.1"/>
<path class="stt1" d="M53.1,37.7c0,0-3.6-0.4-3.6-1.1"/>
<g>
	<ellipse class="stt2" cx="41.7" cy="39.3" rx="1.7" ry="0.9"/>
	<g>
		<path class="stt2" d="M42.1,36.7c0,0,0-0.4-0.4-0.4s-0.4,0.4-0.4,0.4v2.1c0,0,0.1,0.2,0.4,0.2c0.3,0,0.4-0.2,0.4-0.2V36.7z"/>
		<path class="stt2" d="M42.1,36.7c0,0-0.1,0.3-0.4,0.3s-0.4-0.3-0.4-0.3"/>
	</g>
	<g>
		<path class="stt2" d="M47.9,47.3c0,0,0.3,0.1,0.5-0.1c0.2-0.2,0.2-0.4,0.2-0.4l-5.8-7.5c0,0-0.2-0.1-0.5,0.1
			c-0.3,0.2-0.2,0.4-0.2,0.4L47.9,47.3z"/>
		<path class="stt2" d="M47.9,47.3c0,0,0-0.3,0.2-0.4c0.2-0.1,0.5-0.1,0.5-0.1"/>
	</g>
	<g>
		<path class="stt2" d="M47.9,47.3c0,0,0.3,0.1,0.5-0.1c0.2-0.2,0.2-0.4,0.2-0.4l-5.8-7.5c0,0-0.2-0.1-0.5,0.1
			c-0.3,0.2-0.2,0.4-0.2,0.4L47.9,47.3z"/>
		<path class="stt2" d="M47.9,47.3c0,0,0-0.3,0.2-0.4c0.2-0.1,0.5-0.1,0.5-0.1"/>
	</g>
	<g>
		<path class="stt2" d="M41.5,39.8c0,0,0.1-0.2-0.2-0.4c-0.3-0.2-0.5-0.1-0.5-0.1L35,46.8c0,0,0,0.2,0.2,0.4c0.2,0.2,0.5,0.1,0.5,0.1
			L41.5,39.8z"/>
		<path class="stt2" d="M35,46.8c0,0,0.3,0,0.5,0.1c0.2,0.1,0.2,0.4,0.2,0.4"/>
	</g>
</g>
<line class="stt3" x1="16.8" y1="54.3" x2="27.2" y2="29.6"/>
<line class="stt3" x1="27.2" y1="30.2" x2="54.9" y2="30.2"/>
<line class="stt3" x1="27.1" y1="30.2" x2="6.4" y2="6.2"/>
<g>
	<g>
		<line class="stt1" x1="30.3" y1="26.9" x2="36.4" y2="26.9"/>
		<line class="stt1" x1="31.9" y1="5.3" x2="31.9" y2="26.9"/>
		<line class="stt1" x1="34.8" y1="5.5" x2="34.8" y2="26.9"/>
	</g>
	<path class="stt1" d="M34.6,6.8h7.2c1.1,0,2,0.9,2,2v5.9c0,1.1-0.9,2-2,2h-7"/>
	<path class="stt1" d="M31.9,16.7h-7.3c-1.1,0-2-0.9-2-2V8.8c0-1.1,0.9-2,2-2H32"/>
	<line class="stt1" x1="28.5" y1="6.8" x2="30.6" y2="16.6"/>
	<line class="stt1" x1="38.1" y1="6.8" x2="35.9" y2="16.6"/>
	<line class="stt1" x1="31.5" y1="5.3" x2="47.9" y2="5.3"/>
	<line class="stt1" x1="47.5" y1="5" x2="47.5" y2="26.9"/>
	<line class="stt1" x1="45.6" y1="26.8" x2="49.5" y2="26.8"/>
</g>
</svg>
