<svg version="1.1" id="Слой_1" xmlns="http://www.w3.org/2000/svg" xmlns:xlink="http://www.w3.org/1999/xlink" x="0px" y="0px"
	 viewBox="0 0 59.5 59.5" style="enable-background:new 0 0 59.5 59.5;" xml:space="preserve">
<style type="text/css">
	.stt0{fill:#234284;}
	.stt1{fill:none;stroke:#FFFFFF;stroke-miterlimit:10;}
	.stt2{fill:#FFFFFF;}
</style>
<path class="stt0" d="M0,0h59.5v59.5H0V0z"/>
<polygon class="stt1" points="52,54.1 54.8,46.6 48.9,48 41.1,43.2 30,45.8 37.8,50.6 30.9,52.2 "/>
<path class="stt2" d="M50.2,42.5V17.8L39.5,15L27.4,7.8L7.3,12.4v24l9,5.5v9.8l4.4-7.5l19.5-5L50.2,42.5z M27.4,31.6L27.4,31.6
	L27.4,31.6L27.4,31.6z M27.5,18.9l11.7-2.7v21.8l-11.7-6.5V18.9z M26.9,31.5L20.7,33V20.5l6.2-1.4V31.5z M20.7,33.5l6.6-1.6
	l11.9,6.7v0l-18.5,4.7V33.5z M49.2,41.1l-9-2.9V16.2l9,2.3V41.1z M27.3,8.6L39,15.5l-18.7,4.2L8.6,12.8L27.3,8.6z M8,36V13.4
	l11.5,6.8l-3.2,5v15.8L8,36z M19.7,44l-2.4,4.1v-5.5l0,0v-0.8l0,0V25.5l2.4-3.8V44z"/>
</svg>
