<?xml version="1.0" encoding="utf-8"?>
<!-- Generator: Adobe Illustrator 23.0.3, SVG Export Plug-In . SVG Version: 6.00 Build 0)  -->
<svg version="1.1" id="Слой_1" xmlns="http://www.w3.org/2000/svg" xmlns:xlink="http://www.w3.org/1999/xlink" x="0px" y="0px"
	 viewBox="0 0 500 600" style="enable-background:new 0 0 500 600;" xml:space="preserve">
<style type="text/css">
	.st0{fill:#4E86B9;}
</style>
<path class="st0" d="M282.8,583.1L65.3,457.9l0.5-0.9l217.5,125.3L282.8,583.1z M173.8,384.8l-32.1-19l0.5-0.9l32.1,19L173.8,384.8z
	 M145,358.6h-1V45.5h1V358.6z M180.2,59.2l-38.4-22l0.5-0.9l38.4,22L180.2,59.2z"/>
<polygon class="st0" points="144.4,366.9 146.9,352.5 144.4,355.7 142,352.5 "/>
<polygon class="st0" points="144.4,38.6 146.9,53.1 144.4,49.8 142,53.1 "/>
<g>
	<path class="st0" d="M195.4,425.5c-18.3,0-33.2-8.9-33.2-19.7V400c0-0.2,0-0.4,0-0.6c0-6.6,5.5-12.7,14.7-16.4V100.1
		c-1.9-1.9-3-4.1-3-6.4V65.8h1v27.9c0,6.4,9.1,11.7,20.3,11.7c10.2,0,18.9-4.4,20.1-10.2l0.9,0.2c-0.4,1.7-1.3,3.3-2.7,4.7v8.9h-1
		v-8c-3.9,3.2-10.3,5.3-17.4,5.3c-7.1,0-13.5-2.1-17.4-5.3v299.7c0,4.7,7.8,8.5,17.4,8.5s17.4-3.8,17.4-8.5V135.5h1V383
		c9.3,3.7,14.9,9.8,14.9,16.5l0,0v6.4C228.6,416.7,213.7,425.5,195.4,425.5z M163.3,404.3v1.6c0,10.3,14.4,18.7,32.2,18.7
		s32.2-8.4,32.2-18.7v-1.6c-3.6,8.5-16.7,14.9-32.2,14.9S166.9,412.8,163.3,404.3z M177,384.1c-8.6,3.5-13.7,9.2-13.7,15.4
		c0,10.3,14.4,18.7,32.2,18.7s32.2-8.4,32.2-18.7c0-6.2-5.2-11.9-13.9-15.4v16.6c0,5.2-8.2,9.6-18.4,9.6c-10.1,0-18.4-4.3-18.4-9.6
		v-6.9c-0.5,0.1-0.9,0.1-1.4,0.1c-2.9,0-5.2-1.4-5.2-3.3c0-1.8,2.3-3.3,5.2-3.3c0.5,0,0.9,0,1.4,0.1L177,384.1L177,384.1z
		 M175.6,388.4c-2.3,0-4.2,1-4.2,2.3c0,1.3,2,2.3,4.2,2.3c0.5,0,0.9-0.1,1.4-0.2v-4.3C176.5,388.4,176,388.4,175.6,388.4z
		 M188.9,417.4c-2.9,0-5.2-1.4-5.2-3.3c0-1.8,2.3-3.3,5.2-3.3c2.9,0,5.2,1.4,5.2,3.3C194.1,416,191.8,417.4,188.9,417.4z
		 M188.9,411.9c-2.3,0-4.2,1-4.2,2.3c0,1.3,2,2.3,4.2,2.3s4.2-1,4.2-2.3C193.1,413,191.2,411.9,188.9,411.9z M219.8,399.3
		c-2.9,0-5.2-1.4-5.2-3.3c0-1.8,2.3-3.3,5.2-3.3c2.9,0,5.2,1.4,5.2,3.3C225,397.9,222.7,399.3,219.8,399.3z M219.8,393.8
		c-2.3,0-4.2,1-4.2,2.3c0,1.3,2,2.3,4.2,2.3s4.2-1,4.2-2.3C224,394.9,222.1,393.8,219.8,393.8z M341.9,257.8h-1v-91h1V257.8z
		 M313.9,226.7c-1.3,0-2.6-0.2-4-0.4c-15-3-31.7-21.8-37.2-41.9l0,0c-3.2-11.7-2.1-22,3.1-27.6c3.4-3.8,8.5-5.1,14.3-3.9
		c15,3,31.7,21.8,37.2,41.8c3.2,11.7,2.1,22-3.1,27.6C321.6,225.2,318.1,226.7,313.9,226.7z M286.2,153.5c-3.9,0-7.2,1.3-9.6,4
		c-4.9,5.3-6,15.3-2.8,26.6l0,0c5.5,19.8,21.8,38.3,36.4,41.2c5.6,1.1,10.2-0.2,13.4-3.6c4.9-5.3,6-15.3,2.8-26.6
		c-5.5-19.8-21.8-38.2-36.4-41.1C288.7,153.6,287.4,153.5,286.2,153.5z M305.8,212.1l-14.5-8.2v-22.3l-8.8-4.9l15.8-9.2l16,26
		l-0.7,0.7l-7.9-4.5L305.8,212.1L305.8,212.1L305.8,212.1z M292.3,203.3l12.5,7.1V188l7.7,4.4L298,168.8l-13.5,7.8l7.8,4.4
		L292.3,203.3L292.3,203.3L292.3,203.3L292.3,203.3z M260.2,211.4h-1v-91.2h1V211.4z M215.7,81.1V65.8h1v15.3H215.7z"/>
	<path class="st0" d="M332.2,168.7c-0.5,0-1.1-0.1-1.7-0.3c-0.6,0.1-1.3,0-2-0.4c-2-1.1-3.7-4-3.7-6.6v-3.8h1v3.8
		c0,2.2,1.4,4.8,3.1,5.6c0.5,0.3,1.1,0.4,1.5,0.2l0,0l0,0c0.1,0,0.2-0.1,0.2-0.2c0.5-0.3,0.9-1.2,0.9-2.2v-3.4h1v3.4
		c0,1.1-0.3,2-0.9,2.7c0.7,0.1,1.4-0.1,1.9-0.4c0.6-0.5,1-1.2,1-2.2v-1.5h1v1.6c0,1.3-0.5,2.4-1.4,3
		C333.7,168.5,332.9,168.7,332.2,168.7z M271.2,133.7c-0.5,0-1.1-0.1-1.7-0.3c-0.6,0.1-1.3,0-2-0.4c-2-1.1-3.7-3.9-3.7-6.6v-3.8h1
		v3.8c0,2.2,1.4,4.8,3.1,5.6c0.7,0.4,1.3,0.4,1.8,0.1c0.5-0.3,0.9-1.2,0.9-2.2v-3.3h1v3.4c0,1.1-0.3,2-0.9,2.7
		c0.7,0.1,1.4-0.1,1.9-0.4c0.6-0.5,1-1.2,1-2.2v-1.6h1v1.6c0,1.3-0.5,2.4-1.4,3C272.7,133.5,272,133.7,271.2,133.7z"/>
	<path class="st0" d="M376.1,287.9c-8.3,0-15.8-4.2-26.2-10l-0.2-0.1L218.4,203c-2.4-1.4-4.1-3.2-4.5-5.2c-0.4-1.6-0.1-3.2,1-4.8
		c2.7-4.2,7.1-3.4,9.1-2.4l41.1,23.3l-0.5,0.9l-41.1-23.3c-0.2-0.1-4.9-2.4-7.8,2c-0.9,1.3-1.2,2.7-0.9,4c0.4,1.7,1.9,3.4,4.1,4.6
		l131.5,75c14.2,7.9,22.8,12.7,35.6,8c13.1-4.9,13.4-20.5,13.5-25.7c0.2-6.4-1.2-35.2-1.6-44.7c-0.6-13.7-4.9-20.5-9.7-26.9
		c-4.9-6.5-10.4-13.3-20.3-19.9c-4.9-3.2-21.2-12.3-21.3-12.4L213.5,80.2c-0.2-0.1-4.9-2.4-7.8,2c-0.9,1.3-1.2,2.7-0.9,4
		c0.4,1.7,1.9,3.4,4.1,4.6l131.3,74.8c0.8,0.5,19.2,10.8,23,14.1c7.8,6.6,13.6,13.1,17.3,19.4c5.2,8.8,5.7,14,5.7,23.7v36.7
		c0.1,4.9,0.1,11.4-6.4,14.5c-5.9,2.7-12.5-1.1-19.5-5.1c-1.3-0.8-2.7-1.6-4.1-2.3l-22.4-12.7l0.5-0.9l22.5,12.7
		c1.4,0.8,2.7,1.6,4.2,2.3c6.8,3.8,13.2,7.5,18.6,5c6-2.7,5.9-8.8,5.9-13.6v-1.1v-35.6c0-9.6-0.5-14.7-5.6-23.2
		c-3.7-6.2-9.4-12.6-17.1-19.1c-3.8-3.2-22.7-13.9-22.9-13.9L208.5,91.8c-2.4-1.4-4.1-3.2-4.5-5.2c-0.4-1.6-0.1-3.2,0.9-4.8
		c2.7-4.2,7.1-3.4,9.2-2.4L347,154.7c0.2,0.1,16.5,9.2,21.4,12.5c10,6.7,15.7,13.6,20.5,20.1c4.9,6.5,9.2,13.4,9.9,27.4
		c0.4,9.5,1.7,38.2,1.6,44.7c-0.3,14.3-5.1,23.2-14.2,26.6C382.5,287.3,379.2,287.9,376.1,287.9z M325,249.1l-51.4-29.2l0.5-0.9
		l51.4,29.1L325,249.1z"/>
	<path class="st0" d="M332.7,255.3l-7.8-4.1v-4.1c0-0.2,0-0.5,0.1-0.7l0,0c-0.1-1.3,0.5-2.4,1.6-3.1c1.4-0.9,3.4-0.9,4.9-0.2
		c2,1.1,3.7,4,3.7,6.6v4.2l-2.4,1L332.7,255.3L332.7,255.3z M327.9,243.8c0.3,0.1,0.7,0.2,1,0.4c2,1.1,3.7,4,3.7,6.6v3.1l1.3-0.6
		v-3.5c0-2.2-1.4-4.8-3.1-5.6C330.2,243.7,329,243.5,327.9,243.8z M325.9,250.6l5.9,3.1v-3c0-2.2-1.4-4.8-3.1-5.6
		c-0.7-0.3-1.3-0.4-1.8-0.1c-0.5,0.3-0.9,1.1-0.9,2V250.6L325.9,250.6L325.9,250.6z M272.1,221.2l-7.8-4.1V213c0-0.2,0-0.5,0.1-0.7
		l0,0c-0.1-1.3,0.5-2.4,1.6-3.1c1.3-0.9,3.4-0.9,4.9-0.2c2,1.1,3.7,4,3.7,6.6v4.2l-2.4,1L272.1,221.2L272.1,221.2z M267.4,209.7
		c0.3,0.1,0.7,0.2,1,0.4c2,1.1,3.7,4,3.7,6.6v3.1l1.3-0.6v-3.4c0-2.2-1.4-4.8-3.1-5.6C269.6,209.5,268.4,209.4,267.4,209.7z
		 M265.3,216.6l5.9,3.1v-3c0-2.2-1.4-4.8-3.1-5.6c-0.7-0.4-1.3-0.4-1.8-0.1c-0.5,0.3-0.9,1-0.9,2L265.3,216.6L265.3,216.6z"/>
</g>
<polygon class="st0" points="58.3,453.3 72.1,458.3 68.1,458.8 69.7,462.5 "/>
<polygon class="st0" points="272.5,577.1 268.5,577.7 282.2,582.7 270.9,573.4 "/>
<g>
	<path class="st0" d="M278.8,585.6l-0.5-0.9l120.9-74.7l0.5,0.9L278.8,585.6z M52.5,456.9l-0.5-0.9l116.7-67.8l0.5,0.9L52.5,456.9z"
		/>
	<path class="st0" d="M211.7,136.1c-0.6,0-1.2-0.1-1.8-0.2l-0.1,0.1l-6.4-2.8c-2.5-1.2-4.2-3.8-4.9-7.1c-1.2-6.4,2.4-14,7.8-16.8
		c2.4-1.3,4.9-1.5,7.1-0.6l5.5,2.3v0.1c0.1,0,0.1,0,0.2,0.1c2.5,1.2,4.2,3.7,4.8,7l0,0c1.2,6.4-2.4,14-7.8,16.8
		C214.6,135.7,213.2,136.1,211.7,136.1z M215.8,111.3c-1.3,0-2.6,0.3-3.8,1c-5.1,2.7-8.4,9.8-7.3,15.8c0.5,3,2,5.2,4.2,6.3
		c2,1,4.4,0.9,6.7-0.4c5.1-2.7,8.4-9.8,7.3-15.8l0,0c-0.5-3-2-5.2-4.2-6.3C217.8,111.6,216.8,111.3,215.8,111.3z M210.8,109.2
		c-1.3,0-2.6,0.3-3.8,1c-5.1,2.7-8.4,9.8-7.3,15.8c0.5,3,2,5.2,4.2,6.3l1.8,0.8c-1-1.3-1.6-2.9-2-4.8c-1.2-6.4,2.4-14,7.8-16.8
		c1.2-0.6,2.4-0.9,3.5-1.1l-1.8-0.8C212.5,109.3,211.7,109.2,210.8,109.2z M213.7,133.4c-0.5,0-0.9-0.1-1.3-0.3
		c-1-0.5-1.7-1.5-2-2.8c-0.5-2.5,0.9-5.4,3.1-6.5c1-0.5,2.1-0.6,3.1-0.2c1,0.5,1.7,1.5,2,2.8l0,0c0.5,2.5-0.9,5.4-3.1,6.5
		C214.8,133.3,214.3,133.4,213.7,133.4z M215.2,124.3c-0.4,0-0.9,0.1-1.3,0.3c-1.7,0.9-2.9,3.4-2.5,5.5c0.2,1,0.7,1.7,1.4,2
		c0.6,0.3,1.4,0.2,2.2-0.2c1.7-0.9,2.9-3.4,2.5-5.5c-0.2-1-0.7-1.7-1.4-2C215.8,124.4,215.5,124.3,215.2,124.3z M213.7,121.8
		c-0.5,0-0.9-0.1-1.3-0.3c-1-0.5-1.6-1.5-1.9-2.8c-0.5-2.5,0.9-5.4,3.1-6.5c1-0.5,2.1-0.6,3.1-0.2c1,0.5,1.7,1.5,2,2.8l0,0
		c0.5,2.5-0.9,5.4-3.1,6.5C214.8,121.7,214.3,121.8,213.7,121.8z M215.2,112.8c-0.4,0-0.9,0.1-1.3,0.3c-1.8,0.9-2.9,3.4-2.5,5.5
		c0.2,1,0.7,1.7,1.4,2c0.6,0.3,1.4,0.2,2.2-0.2c1.7-0.9,2.9-3.4,2.5-5.5l0,0c-0.2-1-0.7-1.7-1.4-2.1
		C215.8,112.8,215.5,112.8,215.2,112.8z M195.3,76.9c-11.8,0-21.3-4.9-21.3-11s9.6-11,21.3-11s21.3,4.9,21.3,11S207,76.9,195.3,76.9
		z M195.3,55.8c-11.2,0-20.3,4.5-20.3,10c0,5.5,9.1,10,20.3,10c11.2,0,20.3-4.5,20.3-10C215.6,60.3,206.5,55.8,195.3,55.8z"/>
</g>
<path class="st0" d="M246.9,462.5l-76.5-43.4l0.5-0.9l76.5,43.4L246.9,462.5z M293.1,429l-76.4-43.4l0.5-0.9l76.4,43.4L293.1,429z"
	/>
<polygon class="st0" points="279.4,421.8 268.5,431.5 270,427.8 266,427.4 "/>
<polygon class="st0" points="231.6,452.8 242.2,442.8 240.9,446.7 244.9,446.9 "/>
<path class="st0" d="M426.5,526.5L210.6,406.1l0.5-0.9l214.5,119.6V207.9h1L426.5,526.5L426.5,526.5z M425.8,199.8l-59.5-33.2
	l0.5-0.9l59.5,33.2L425.8,199.8z"/>
<polygon class="st0" points="426.1,515.5 423.7,512.3 426.1,526.7 428.5,512.3 "/>
<polygon class="st0" points="426.1,310 423.7,306.8 426.1,321.1 428.5,306.8 "/>
<polygon class="st0" points="423.7,213.7 426.1,210.4 428.5,213.7 426.1,199.3 "/>
<polygon class="st0" points="423.7,335.1 426.1,331.9 428.5,335.1 426.1,320.7 "/>
<polygon class="st0" points="207.2,57.6 217.8,47.6 216.4,51.4 220.5,51.6 "/>
<polygon class="st0" points="182.6,73.3 169.2,79.1 173.2,79.4 171.8,83.1 "/>
<path class="st0" d="M399.9,511h-1l0.4-253.1h1L399.9,511z M231.9,453.2l-0.5-0.9l91.5-59.3l0.5,0.9L231.9,453.2z M167.1,83.9
	l-0.5-0.9L258,23.8l0.5,0.9L167.1,83.9z"/>
<rect x="301.5" y="10.4" transform="matrix(0.4984 -0.8669 0.8669 0.4984 53.4267 318.5437)" class="st0" width="1" height="205.4"/>
<polygon class="st0" points="208.2,59.2 222,64.2 218,64.7 219.6,68.4 "/>
<polygon class="st0" points="388.3,162.4 384.3,163 398,168 386.7,158.7 "/>
<path class="st0" d="M425.9,321.1l-63-36.4l0.5-0.9l63,36.4L425.9,321.1z M398.8,214.8h-1v-46.7h1V214.8z M208.8,79.1h-1V59.2h1
	V79.1z"/>
<g>
	<path class="st0" d="M125.5,218.3v2.2l-1.4-0.8v-2.9h13.1v1.4H125.5z"/>
	<path class="st0" d="M135.5,211.4c-1.3,0.9-2.9,1.3-4.8,1.3s-3.5-0.5-4.8-1.3c-1.5-1-2-2.3-2-3.4c0-1,0.5-2.4,2-3.4
		c1.3-0.9,2.9-1.3,4.8-1.3s3.5,0.5,4.8,1.3c1.4,1,2,2.3,2,3.4C137.5,209.1,136.9,210.4,135.5,211.4z M126.7,210.3c1.1,0.7,2.6,1,4,1
		c1.4,0,2.9-0.3,4-1c1.1-0.7,1.4-1.6,1.4-2.3c0-0.7-0.4-1.6-1.4-2.3c-1.1-0.7-2.6-1-4-1c-1.4,0-2.9,0.3-4,1
		c-1.1,0.7-1.4,1.6-1.4,2.3C125.3,208.7,125.6,209.6,126.7,210.3z"/>
	<path class="st0" d="M133.4,194.5v-1.6h1.3v1.6h2.5v1.5h-2.5v6.7l-11.3-8.2H133.4z M133.4,195.9h-5.8l5.8,4.1V195.9z"/>
	<path class="st0" d="M135.5,189.7c-1.3,0.9-2.9,1.3-4.8,1.3s-3.5-0.5-4.8-1.3c-1.5-1-2-2.3-2-3.4c0-1,0.5-2.4,2-3.4
		c1.3-0.9,2.9-1.3,4.8-1.3s3.5,0.5,4.8,1.3c1.4,1,2,2.3,2,3.4C137.5,187.4,136.9,188.7,135.5,189.7z M126.7,188.6c1.1,0.7,2.6,1,4,1
		c1.4,0,2.9-0.3,4-1c1.1-0.7,1.4-1.6,1.4-2.3c0-0.7-0.4-1.6-1.4-2.3c-1.1-0.7-2.6-1-4-1c-1.4,0-2.9,0.3-4,1
		c-1.1,0.7-1.4,1.6-1.4,2.3C125.3,187,125.6,187.9,126.7,188.6z"/>
</g>
<g>
	<path class="st0" d="M409.5,407.6l4.2,3c-0.1-0.4-0.2-0.7-0.2-1.2c0-2.5,1.9-4.2,4.3-4.2c2.6,0,4.5,1.9,4.5,4.5
		c0,3.1-2.4,4.5-4.4,4.5c-0.5,0-1.6-0.1-3-1.1l-6.2-4.4L409.5,407.6z M417.9,406.7c-1.7,0-3,1.3-3,3.1c0,1.8,1.3,3,3,3
		c1.7,0,3.1-1.2,3.1-3.1C421,408,419.6,406.7,417.9,406.7z"/>
	<path class="st0" d="M409.5,396.5l4.2,3c-0.1-0.4-0.2-0.7-0.2-1.2c0-2.5,1.9-4.2,4.3-4.2c2.6,0,4.5,1.9,4.5,4.5
		c0,3.1-2.4,4.5-4.4,4.5c-0.5,0-1.6-0.1-3-1.1l-6.2-4.4L409.5,396.5z M417.9,395.6c-1.7,0-3,1.3-3,3.1c0,1.8,1.3,3,3,3
		c1.7,0,3.1-1.2,3.1-3.1C421,396.8,419.6,395.6,417.9,395.6z"/>
	<path class="st0" d="M418.5,383.5c2,0,3.8,1.3,3.8,4c0,2.7-1.8,4-3.8,4c-1.4,0-2.6-0.6-3.2-2c-0.6,1-1.6,1.6-2.9,1.6
		c-1.9,0-3.6-1.3-3.6-3.6c0-2.4,1.8-3.6,3.6-3.6c1.2,0,2.3,0.5,2.9,1.6C415.9,384.2,417.1,383.5,418.5,383.5z M412.5,385.3
		c-1.4,0-2.3,1-2.3,2.2c0,1.2,0.9,2.2,2.3,2.2c1.3,0,2.3-1,2.3-2.2C414.7,386.2,413.7,385.3,412.5,385.3z M418.4,385
		c-1.5,0-2.5,1.1-2.5,2.5c0,1.5,1,2.5,2.5,2.5c1.5,0,2.5-1,2.5-2.5C421,386,419.9,385,418.4,385z"/>
</g>
<g>
	<path class="st0" d="M412.3,280.4c-0.7,0-1.4-0.3-1.9-0.6c-1.4-0.9-1.5-2.3-1.5-3c0-2.5,1.7-3.7,3.5-3.7c0.9,0,2.2,0.4,2.9,1.7
		c0.2-0.5,0.9-1.9,3.2-1.9c2.4,0,3.9,1.8,3.9,4c0,1.4-0.6,2.9-2.3,3.6c-0.5,0.2-0.9,0.3-1.4,0.3v-1.4c0.5-0.1,1-0.2,1.3-0.5
		c0.6-0.4,1-1.2,1-2c0-1.4-1.2-2.6-2.6-2.6c-0.7,0-1.7,0.3-2.2,1.3c-0.2,0.4-0.3,1-0.3,1.5h-1.3c0-0.5-0.1-1.1-0.3-1.5
		c-0.2-0.4-0.8-1.1-1.9-1.1c-1.2,0-2.2,0.6-2.2,2.2c0,0.5,0.1,1.2,0.7,1.7c0.3,0.3,0.8,0.5,1.4,0.5V280.4z"/>
	<path class="st0" d="M410.4,262.3v4.2l2.8,0.8c-0.1-0.3-0.1-0.5-0.1-0.8c0-2.6,2-4.3,4.5-4.3c2.9,0,4.7,2.2,4.7,4.8
		c0,1.1-0.3,2-1,2.9c-0.4,0.4-0.8,0.8-1.3,1.1l-0.8-1.2c0.4-0.2,0.7-0.5,1.1-0.9c0.5-0.5,0.8-1.2,0.8-2.1c0-1.8-1.5-3.2-3.4-3.2
		c-1.9,0-3.2,1.4-3.2,3.2c0,0.5,0.1,1.4,0.9,2.5l-6.3-1.9v-5.2H410.4z"/>
	<path class="st0" d="M418.3,252.5v-1.6h1.3v1.6h2.5v1.5h-2.5v6.7l-11.3-8.2H418.3z M418.3,253.9h-5.8l5.8,4.1V253.9z"/>
</g>
<g>
	<path class="st0" d="M174.3,500.6l-6.2-3.6l0.7-1.2l8.3,4.8l-14.3,7.2l-0.6-1.2L174.3,500.6z"/>
	<path class="st0" d="M179.8,513.2c-1,1.8-3.1,2.7-5.4,1.3c-2.3-1.3-2.6-3.6-1.5-5.3c0.7-1.2,1.9-1.9,3.3-1.8
		c-0.6-1-0.5-2.2,0.1-3.3c0.9-1.6,2.9-2.5,4.9-1.3c2,1.2,2.2,3.3,1.3,4.9c-0.6,1.1-1.6,1.7-2.8,1.7
		C180.5,510.6,180.5,512,179.8,513.2z M178.5,512.4c0.7-1.3,0.3-2.7-1-3.4c-1.3-0.7-2.7-0.4-3.5,0.9c-0.7,1.3-0.4,2.7,0.9,3.5
		C176.3,514.1,177.8,513.7,178.5,512.4z M181.3,507.1c0.7-1.2,0.3-2.5-0.8-3.1c-1-0.6-2.4-0.4-3.1,0.9c-0.6,1.1-0.3,2.4,0.8,3.1
		C179.3,508.5,180.6,508.2,181.3,507.1z"/>
	<path class="st0" d="M182.1,516.7c-0.1-1.5,0.3-3.2,1.3-4.8c0.9-1.6,2.2-2.8,3.5-3.5c1.6-0.8,3-0.5,3.9,0c0.9,0.5,1.8,1.6,1.9,3.4
		c0.1,1.5-0.3,3.2-1.3,4.8c-0.9,1.6-2.2,2.8-3.5,3.5c-1.6,0.8-3,0.5-3.9,0C183.1,519.6,182.2,518.5,182.1,516.7z M187.4,509.7
		c-1.2,0.6-2.1,1.8-2.8,3s-1.2,2.6-1.2,3.9c0,1.3,0.6,2.1,1.2,2.4c0.6,0.3,1.5,0.5,2.7-0.1c1.2-0.6,2.1-1.8,2.8-3
		c0.7-1.2,1.2-2.6,1.2-3.9c0-1.3-0.6-2.1-1.2-2.4C189.5,509.2,188.6,509.1,187.4,509.7z"/>
	<path class="st0" d="M203.8,515.2c-0.8,0.6-1.7,1.4-2.6,2.4c-1.2,1.3-2,2.6-2.9,4c-0.8,1.4-1.4,2.7-2,4.4c-0.4,1.2-0.7,2.4-0.9,3.6
		l-1.4-0.1c0.4-2.4,1-4.2,1.1-4.5c0.5-1.4,1.2-2.9,1.9-4.1c0.7-1.1,1.7-2.7,3-4.1c0.9-0.9,2-2,2.9-2.7L203.8,515.2z"/>
	<path class="st0" d="M208.2,520.3l-1.9-1.1l1.3-0.8l2.5,1.4l-6.6,11.3l-1.3-0.7L208.2,520.3z"/>
	<path class="st0" d="M209.2,532.4c-0.1-1.5,0.3-3.2,1.3-4.8c0.9-1.6,2.2-2.8,3.5-3.5c1.6-0.8,3-0.5,3.9,0c0.9,0.5,1.8,1.6,1.9,3.4
		c0.1,1.5-0.3,3.2-1.3,4.8c-0.9,1.6-2.2,2.8-3.5,3.5c-1.6,0.8-3,0.5-3.9,0C210.2,535.3,209.3,534.2,209.2,532.4z M214.5,525.4
		c-1.2,0.6-2.1,1.8-2.8,3c-0.7,1.2-1.2,2.6-1.2,3.9c0,1.3,0.6,2,1.2,2.4c0.6,0.3,1.5,0.5,2.7-0.1c1.2-0.6,2.1-1.8,2.8-3
		c0.7-1.2,1.2-2.6,1.2-3.9c0-1.3-0.6-2-1.2-2.4C216.6,524.9,215.7,524.8,214.5,525.4z"/>
	<path class="st0" d="M222.4,530.7c0.4-0.6,0.9-1.1,1.5-1.4c1.4-0.7,2.7-0.2,3.4,0.2c2.1,1.2,2.3,3.3,1.4,4.9
		c-0.5,0.8-1.4,1.8-2.9,1.7c0.3,0.4,1.2,1.7,0,3.7c-1.2,2.1-3.5,2.5-5.5,1.4c-1.2-0.7-2.3-2-2-3.8c0.1-0.5,0.2-0.9,0.4-1.3l1.3,0.7
		c-0.2,0.4-0.3,0.9-0.3,1.4c0.1,0.8,0.5,1.4,1.3,1.9c1.3,0.7,2.8,0.3,3.5-1c0.4-0.6,0.6-1.7,0-2.5c-0.3-0.4-0.7-0.7-1.1-1l0.6-1.1
		c0.4,0.3,1,0.5,1.4,0.5c0.5,0,1.3-0.1,1.9-1.1c0.6-1,0.6-2.2-0.8-3.1c-0.5-0.3-1.1-0.5-1.8-0.2c-0.4,0.2-0.8,0.5-1.1,0.9
		L222.4,530.7z"/>
	<path class="st0" d="M228.4,543.6c-0.1-1.5,0.3-3.2,1.3-4.8c0.9-1.6,2.2-2.8,3.5-3.5c1.6-0.8,3-0.5,3.9,0s1.8,1.6,1.9,3.4
		c0.1,1.5-0.3,3.2-1.3,4.8c-0.9,1.6-2.2,2.8-3.5,3.5c-1.6,0.8-3,0.5-3.9,0C229.4,546.5,228.6,545.4,228.4,543.6z M233.8,536.6
		c-1.2,0.6-2.1,1.8-2.8,3c-0.7,1.2-1.2,2.6-1.2,3.9c0,1.3,0.6,2,1.2,2.4c0.6,0.3,1.5,0.5,2.7-0.1c1.2-0.6,2.1-1.8,2.8-3
		c0.7-1.2,1.2-2.6,1.2-3.9c0-1.3-0.6-2.1-1.2-2.4C235.9,536.1,234.9,536,233.8,536.6z"/>
	<path class="st0" d="M244.7,538.3c-0.2,1.1-0.5,2.6-0.9,3.8c-0.6,1.9-1.4,3.5-2.1,4.7c-0.7,1.3-1.7,2.6-2.6,3.7
		c-0.2,0.2-1.5,1.7-3.3,3.2l-0.8-1.1c0.9-0.8,1.8-1.6,2.7-2.6c1.2-1.3,2-2.5,2.8-3.9c0.9-1.5,1.5-2.9,2.1-4.5
		c0.4-1.3,0.7-2.5,0.8-3.4L244.7,538.3z"/>
</g>
<g>
	<path class="st0" d="M292.3,84.5l-4.7,2.1c0.4,0.1,0.7,0.2,1.1,0.4c2.2,1.3,2.7,3.8,1.5,5.9c-1.3,2.3-3.9,2.9-6.1,1.6
		c-2.7-1.5-2.7-4.3-1.7-6.1c0.2-0.4,0.9-1.4,2.4-2.1l6.9-3.1L292.3,84.5z M288.9,92.2c0.9-1.5,0.4-3.3-1.1-4.2
		c-1.5-0.9-3.3-0.4-4.1,1.1c-0.9,1.5-0.5,3.3,1.1,4.2C286.2,94.3,288,93.8,288.9,92.2z"/>
	<path class="st0" d="M302.9,91.7l-3.6-2.1l-2.1,2c0.2,0.1,0.5,0.2,0.8,0.3c2.3,1.3,2.7,3.9,1.5,6.1c-1.5,2.5-4.3,3-6.5,1.7
		c-0.9-0.5-1.6-1.3-2-2.3c-0.2-0.5-0.3-1.1-0.3-1.7l1.4-0.1c0,0.5,0,0.9,0.2,1.4c0.2,0.7,0.7,1.3,1.4,1.7c1.6,0.9,3.5,0.3,4.5-1.3
		c0.9-1.6,0.4-3.5-1.2-4.4c-0.4-0.2-1.2-0.6-2.6-0.5l4.8-4.5l4.5,2.6L302.9,91.7z"/>
	<path class="st0" d="M301.3,102.3c-0.1-1.5,0.3-3.2,1.3-4.8c0.9-1.6,2.2-2.8,3.5-3.5c1.6-0.8,3-0.5,3.9,0c0.9,0.5,1.8,1.6,1.9,3.4
		c0.1,1.5-0.3,3.2-1.3,4.8c-0.9,1.6-2.2,2.8-3.5,3.5c-1.6,0.8-3,0.5-3.9,0S301.5,104.1,301.3,102.3z M306.7,95.3
		c-1.2,0.6-2.1,1.8-2.8,3c-0.7,1.2-1.2,2.6-1.2,3.9c0,1.3,0.6,2.1,1.2,2.4s1.5,0.5,2.7-0.1c1.2-0.6,2.1-1.8,2.8-3
		c0.7-1.2,1.2-2.6,1.2-3.9c0-1.3-0.6-2.1-1.2-2.4C308.8,94.8,307.8,94.7,306.7,95.3z"/>
	<path class="st0" d="M323,100.8c-0.8,0.6-1.7,1.4-2.6,2.4c-1.2,1.3-2,2.5-2.9,4c-0.8,1.4-1.4,2.7-2,4.4c-0.4,1.2-0.7,2.4-0.9,3.6
		l-1.4-0.1c0.4-2.4,1-4.2,1.1-4.5c0.5-1.4,1.2-2.9,1.9-4.1c0.7-1.1,1.7-2.7,3-4.1c0.9-0.9,2-2,2.9-2.7L323,100.8z"/>
	<path class="st0" d="M320.3,114.8l4.7-2.1c-0.4-0.1-0.7-0.2-1.1-0.4c-2.2-1.3-2.7-3.8-1.5-5.9c1.3-2.3,3.9-2.9,6.1-1.6
		c2.7,1.5,2.7,4.3,1.7,6.1c-0.2,0.4-0.9,1.4-2.4,2.1l-6.9,3.1L320.3,114.8z M323.7,107.1c-0.9,1.5-0.4,3.3,1.1,4.2s3.3,0.4,4.1-1.1
		c0.9-1.5,0.5-3.3-1.1-4.2C326.4,105,324.6,105.6,323.7,107.1z"/>
	<path class="st0" d="M329.5,118.7c-0.1-1.5,0.3-3.2,1.3-4.8s2.2-2.8,3.5-3.5c1.6-0.8,3-0.5,3.9,0c0.9,0.5,1.8,1.6,1.9,3.4
		c0.1,1.5-0.3,3.2-1.3,4.8c-0.9,1.6-2.2,2.8-3.5,3.5c-1.6,0.8-3,0.5-3.9,0C330.5,121.5,329.6,120.4,329.5,118.7z M334.9,111.6
		c-1.2,0.6-2.1,1.8-2.8,3c-0.7,1.2-1.2,2.6-1.2,3.9c0,1.3,0.6,2,1.2,2.4s1.5,0.5,2.7-0.1c1.2-0.6,2.1-1.8,2.8-3
		c0.7-1.2,1.2-2.6,1.2-3.9c0-1.3-0.6-2-1.2-2.4C337,111.2,336,111,334.9,111.6z"/>
	<path class="st0" d="M339.1,124.3c-0.1-1.5,0.3-3.2,1.3-4.8c0.9-1.6,2.2-2.8,3.5-3.5c1.6-0.8,3-0.5,3.9,0c0.9,0.5,1.8,1.6,1.9,3.4
		c0.1,1.5-0.3,3.2-1.3,4.8c-0.9,1.6-2.2,2.8-3.5,3.5c-1.6,0.8-3,0.5-3.9,0C340.1,127.1,339.3,126,339.1,124.3z M344.5,117.2
		c-1.2,0.6-2.1,1.8-2.8,3s-1.2,2.6-1.2,3.9c0,1.3,0.6,2.1,1.2,2.4c0.6,0.3,1.5,0.5,2.7-0.1c1.2-0.6,2.1-1.8,2.8-3
		c0.7-1.2,1.2-2.6,1.2-3.9c0-1.3-0.6-2.1-1.2-2.4S345.6,116.6,344.5,117.2z"/>
	<path class="st0" d="M355.4,118.9c-0.2,1.1-0.5,2.6-0.9,3.8c-0.6,1.9-1.4,3.5-2.1,4.7c-0.7,1.3-1.7,2.6-2.6,3.7
		c-0.2,0.2-1.5,1.7-3.3,3.2l-0.8-1.1c0.9-0.8,1.8-1.6,2.7-2.6c1.2-1.3,2-2.5,2.8-3.9c0.9-1.5,1.5-2.9,2.1-4.5
		c0.4-1.3,0.7-2.5,0.8-3.4L355.4,118.9z"/>
</g>
<g>
	<path class="st0" d="M220.3,30.6c0.8,0.2,2.4,0.9,3.6,2.8c2.1,3.3,1.1,7.3-2.1,9.4c-1.8,1.2-3.4,1.2-4.5,1.1l-0.5,2.1l-1.4-0.3
		l0.5-2.1c-1.7-0.6-2.8-1.8-3.5-2.8c-2.1-3.3-1.1-7.3,2.1-9.4c1-0.6,2.5-1.3,4.4-1.1l0.5-2.2l1.4,0.3L220.3,30.6z M218.5,31.7
		c-0.5,0-1.8-0.1-3.2,0.8c-2.5,1.6-3.2,4.9-1.6,7.4c0.9,1.4,2.1,1.9,2.7,2.2L218.5,31.7z M217.7,42.4c1.5,0.1,2.7-0.4,3.3-0.8
		c2.5-1.6,3.2-4.9,1.6-7.4c-0.5-0.8-1.4-1.8-2.8-2.2L217.7,42.4z"/>
	<path class="st0" d="M226.4,25.7l-1.9,1.2l-0.1-1.6l2.4-1.5l7,11l-1.2,0.8L226.4,25.7z"/>
	<path class="st0" d="M237.5,30.4c-1.4-0.6-2.7-1.8-3.7-3.3c-1-1.6-1.5-3.2-1.5-4.8c0.1-1.8,0.9-2.9,1.8-3.5
		c0.9-0.6,2.3-0.8,3.9-0.1c1.4,0.6,2.7,1.8,3.7,3.3c1,1.6,1.5,3.2,1.5,4.8c-0.1,1.8-0.9,2.9-1.8,3.5
		C240.5,30.9,239.1,31.1,237.5,30.4z M233.7,22.5c0,1.3,0.6,2.7,1.3,3.9c0.7,1.2,1.8,2.3,2.9,2.8c1.2,0.6,2.1,0.4,2.7,0
		c0.6-0.4,1.1-1.1,1.1-2.4c0-1.3-0.6-2.7-1.3-3.9s-1.8-2.3-2.9-2.8c-1.2-0.6-2.1-0.4-2.7,0C234.3,20.4,233.7,21.2,233.7,22.5z"/>
	<path class="st0" d="M246.9,24.5c-1.4-0.6-2.7-1.8-3.7-3.3c-1-1.6-1.5-3.2-1.5-4.8c0.1-1.8,0.9-2.9,1.8-3.5
		c0.9-0.6,2.3-0.8,3.9-0.1c1.4,0.6,2.7,1.8,3.7,3.3c1,1.6,1.5,3.2,1.5,4.8c-0.1,1.8-0.9,2.9-1.8,3.5
		C249.9,24.9,248.5,25.2,246.9,24.5z M243.1,16.5c0,1.3,0.6,2.7,1.3,3.9c0.7,1.2,1.8,2.3,2.9,2.8c1.2,0.6,2.1,0.4,2.7,0
		c0.6-0.4,1.1-1.1,1.1-2.4c0-1.3-0.6-2.7-1.3-3.9c-0.7-1.2-1.8-2.3-2.9-2.8c-1.2-0.6-2.1-0.4-2.7,0
		C243.7,14.4,243.1,15.2,243.1,16.5z"/>
</g>
<g>
	<path class="st0" d="M286.1,399.9c0.8,0.2,2.4,0.9,3.6,2.8c2.1,3.3,1.1,7.3-2.1,9.4c-1.8,1.2-3.4,1.2-4.5,1.1l-0.5,2.1l-1.4-0.3
		l0.5-2.1c-1.7-0.6-2.8-1.8-3.5-2.8c-2.1-3.3-1.1-7.3,2.1-9.4c1-0.6,2.5-1.3,4.4-1.1l0.5-2.2l1.4,0.3L286.1,399.9z M284.3,401
		c-0.5,0-1.8-0.1-3.2,0.8c-2.5,1.6-3.2,4.9-1.6,7.4c0.9,1.4,2.1,1.9,2.7,2.2L284.3,401z M283.6,411.7c1.5,0.1,2.7-0.4,3.3-0.8
		c2.5-1.6,3.2-4.9,1.6-7.4c-0.5-0.8-1.4-1.8-2.8-2.2L283.6,411.7z"/>
	<path class="st0" d="M292.2,395.1l-1.9,1.2l-0.1-1.6l2.4-1.5l7,11l-1.2,0.8L292.2,395.1z"/>
	<path class="st0" d="M301.6,388.1l-0.3,5.1c0.3-0.3,0.5-0.5,0.9-0.8c2.1-1.3,4.6-0.7,5.9,1.4c1.4,2.2,0.8,4.8-1.4,6.2
		c-2.6,1.7-5.1,0.4-6.2-1.3c-0.3-0.4-0.8-1.4-0.7-3.1l0.4-7.6L301.6,388.1z M306.8,394.6c-0.9-1.5-2.7-1.9-4.2-0.9
		c-1.5,1-1.9,2.7-0.9,4.2c0.9,1.5,2.7,2,4.3,1C307.4,397.9,307.8,396.1,306.8,394.6z"/>
	<path class="st0" d="M312.1,394.2c-1.4-0.6-2.7-1.8-3.7-3.3c-1-1.6-1.5-3.2-1.5-4.8c0.1-1.8,0.9-2.9,1.8-3.5
		c0.9-0.6,2.3-0.8,3.9-0.1c1.4,0.6,2.7,1.8,3.7,3.3s1.5,3.2,1.5,4.8c-0.1,1.8-0.9,2.9-1.8,3.5C315.1,394.6,313.8,394.9,312.1,394.2z
		 M308.4,386.2c0,1.3,0.6,2.7,1.3,3.9s1.8,2.3,2.9,2.8c1.2,0.6,2.1,0.4,2.7,0c0.6-0.4,1.1-1.1,1.1-2.4c0-1.3-0.6-2.7-1.3-3.9
		c-0.7-1.2-1.8-2.3-2.9-2.8c-1.2-0.6-2.1-0.4-2.7,0C308.9,384.1,308.3,384.9,308.4,386.2z"/>
</g>
</svg>
