<?xml version="1.0" encoding="utf-8"?>
<!-- Generator: Adobe Illustrator 23.0.3, SVG Export Plug-In . SVG Version: 6.00 Build 0)  -->
<svg version="1.1" id="Слой_1" xmlns="http://www.w3.org/2000/svg" xmlns:xlink="http://www.w3.org/1999/xlink" x="0px" y="0px"
	 viewBox="0 0 500 600" style="enable-background:new 0 0 500 600;" xml:space="preserve">
<style type="text/css">
	.st0{fill:#4D87B8;}
	.st1{fill:none;stroke:#4D87B8;stroke-width:0.5;stroke-linecap:round;stroke-linejoin:round;stroke-miterlimit:10;}
	.st2{fill:none;stroke:#4D87B8;stroke-width:0.942;stroke-linecap:round;stroke-linejoin:round;stroke-miterlimit:10;}
	.st3{fill:none;stroke:#4D87B8;stroke-width:0.24;stroke-miterlimit:10;}
	.st4{fill:none;stroke:#4D87B8;stroke-width:0.235;stroke-miterlimit:10;stroke-dasharray:7.5374,3.7687;}
	.st5{fill:#4E86B9;}
</style>
<path class="st0" d="M162.3,376.1l-0.2,0.1l-0.2,0.1l-0.2,0.2l-0.1,0.2v0.2l0.1,0.2l0.2,0.2l0.2,0.1l0.2,0.1l-5.3-0.8L162.3,376.1
	 M333.3,377.7l0.2-0.1l0.2-0.1l0.2-0.2l0.1-0.2v-0.2l-0.1-0.2l-0.2-0.2l-0.2-0.1l-0.2-0.1l5.3,0.8L333.3,377.7"/>
<path class="st0" d="M318.1,360.8l0.2-0.1l0.2-0.1l0.1-0.2l0.1-0.2v-0.2l-0.1-0.2l-0.1-0.2l-0.2-0.1l-0.2-0.1l5.3,0.8L318.1,360.8
	 M183.4,359.1l-0.2,0.1l-0.2,0.1l-0.2,0.2l-0.1,0.2v0.2l0.1,0.2l0.2,0.2l0.2,0.1l0.2,0.1l-5.3-0.8L183.4,359.1"/>
<path class="st0" d="M146.9,168.6l-0.1-0.2l-0.1-0.2l-0.2-0.2l-0.2-0.1H146l-0.2,0.1l-0.2,0.2l-0.1,0.2l-0.1,0.2l0.8-5.3
	L146.9,168.6 M145.2,339.6l0.1,0.2l0.1,0.2l0.2,0.1l0.2,0.1h0.2l0.2-0.1l0.2-0.1l0.1-0.2l0.1-0.2l-0.8,5.3L145.2,339.6"/>
<path class="st0" d="M198.9,326.3l-0.1-0.2l-0.1-0.2l-0.2-0.1l-0.2-0.1h-0.2l-0.2,0.1l-0.2,0.1l-0.1,0.2l-0.1,0.2l0.8-5.3
	L198.9,326.3 M197.3,339.6l0.1,0.2l0.1,0.2l0.2,0.1l0.2,0.1h0.2l0.2-0.1l0.2-0.1l0.1-0.2l0.1-0.2l-0.8,5.3L197.3,339.6"/>
<path class="st0" d="M215.8,411.1l0.1,0.2l0.1,0.2l0.2,0.2l0.2,0.1h0.2l0.2-0.1l0.2-0.2l0.1-0.2l0.1-0.2l-0.8,5.3L215.8,411.1
	 M217.5,430.9l-0.1-0.2l-0.1-0.2l-0.2-0.1l-0.2-0.1h-0.2l-0.2,0.1l-0.2,0.1l-0.1,0.2l-0.1,0.2l0.8-5.3L217.5,430.9"/>
<path class="st0" d="M147.9,412.5l-0.1-0.2l-0.1-0.2l-0.2-0.2l-0.2-0.1H147l-0.2,0.1l-0.2,0.2l-0.1,0.2l-0.1,0.2l0.8-5.3
	L147.9,412.5 M146.2,424.7l0.1,0.2l0.1,0.2l0.2,0.2l0.2,0.1h0.2l0.2-0.1l0.2-0.2l0.1-0.2l0.1-0.2l-0.8,5.3L146.2,424.7 M355.9,406.6
	l0.1,0.2l0.1,0.2l0.2,0.1l0.2,0.1h0.2l0.2-0.1l0.2-0.1l0.1-0.2l0.1-0.2l-0.8,5.3L355.9,406.6 M357.4,435.4l-0.1-0.2l-0.1-0.2
	l-0.2-0.2l-0.2-0.1h-0.2l-0.2,0.1l-0.2,0.2l-0.1,0.2l-0.1,0.2l0.8-5.3L357.4,435.4 M372.2,33.6l-0.1-0.2l-0.1-0.2l-0.2-0.2l-0.2-0.1
	h-0.2l-0.2,0.1l-0.2,0.2l-0.1,0.2l-0.1,0.2l0.8-5.3L372.2,33.6 M370.5,339.6l0.1,0.2l0.1,0.2l0.2,0.1l0.2,0.1h0.2l0.2-0.1l0.2-0.1
	l0.1-0.2l0.1-0.2l-0.8,5.3L370.5,339.6"/>
<path class="st0" d="M353.6,339.6l0.1,0.2l0.1,0.2l0.2,0.1l0.2,0.1h0.2l0.2-0.1l0.2-0.1l0.1-0.2l0.1-0.2l-0.8,5.3L353.6,339.6
	 M355.3,47.6l-0.1-0.2l-0.1-0.2l-0.2-0.2l-0.2-0.1h-0.2l-0.2,0.1l-0.2,0.2l-0.1,0.2l-0.1,0.2l0.8-5.3L355.3,47.6"/>
<path class="st0" d="M220.4,277.2l0.2-0.1l0.2-0.1l0.2-0.2l0.1-0.2v-0.2l-0.1-0.2l-0.2-0.2l-0.2-0.1l-0.2-0.1l5.3,0.8L220.4,277.2
	 M211.2,275.5l-0.2,0.1l-0.2,0.1l-0.2,0.2l-0.1,0.2v0.2l0.1,0.2l0.2,0.2l0.2,0.1l0.2,0.1l-5.3-0.8L211.2,275.5 M334.3,20.1l0.2-0.1
	l0.2-0.1l0.1-0.2l0.1-0.2v-0.2l-0.1-0.2l-0.1-0.2l-0.2-0.1l-0.2-0.1l5.3,0.8L334.3,20.1 M158.6,18.5l-0.2,0.1l-0.2,0.1L158,19
	l-0.1,0.2v0.2l0.1,0.2l0.2,0.2l0.2,0.1l0.2,0.1l-5.3-0.8L158.6,18.5"/>
<path class="st1" d="M338.5,376.9H157.1 M157.1,343.6V381 M338.5,343.6V381"/>
<path class="st1" d="M178.2,360.1h145.2 M323.5,343.6v21.1 M178.2,343.6v21.1"/>
<path class="st1" d="M146.1,344.9V163.4 M153.3,163.4h-11.6 M157.2,344.9h-15.4"/>
<path class="st1" d="M198.1,344.9V321 M178.2,344.9h24"/>
<path class="st1" d="M216.6,416.5v-21.9 M216.6,425.5v-9.1 M216.6,425.5v10.2"/>
<path class="st1" d="M147.1,430.1v-22.9 M161.4,430.1h-17.4 M356.7,411.9v-27.3 M356.7,430.1v-18.1 M356.7,430.1v10.2 M334.2,411.9
	h26.1 M334.2,430.1h26.1 M371.4,344.9V28.3 M338.5,28.3H375 M338.3,344.9H375"/>
<path class="st1" d="M131.8,407.2v56.8 M287.2,463.9H128.1 M159.5,406.2h-50.6"/>
<path class="st1" d="M354.4,42.3v302.5 M338.3,344.9h17.6 M334,42.3h24"/>
<path class="st1" d="M206,276.3h19.7 M153.4,19.3h186.2 M339.7,28.3V15.1 M153.4,146.7V15.1"/>
<path class="st0" d="M130.9,458.6l0.1,0.2l0.1,0.2l0.2,0.2l0.2,0.1h0.2l0.2-0.1l0.2-0.2l0.1-0.2l0.1-0.2l-0.8,5.3L130.9,458.6
	 M132.6,412.5l-0.1-0.2l-0.1-0.2l-0.2-0.2l-0.2-0.1h-0.2l-0.2,0.1l-0.2,0.2l-0.1,0.2l-0.1,0.2l0.8-5.3L132.6,412.5"/>
<path class="st2" d="M338.3,343.6L338.3,343.6L338.3,343.6h0.1l0,0l0,0l0,0l0,0l0,0 M338.5,344.9L338.5,344.9L338.5,344.9
	L338.5,344.9L338.5,344.9L338.5,344.9h-0.1l0,0l0,0 M338.5,343.6v1.2 M338.3,343.6h-3.6 M338.3,344.9h-3.6 M334.1,343.6L334.1,343.6
	h0.1h0.1h0.1h0.1h0.1h0.1l0,0 M334.7,344.9L334.7,344.9h-0.1h-0.1h-0.1h-0.1h-0.1h0.1h-0.1 M334.1,343.6h-10 M334.1,344.9h-10
	 M324.1,344.9H324h-0.1h-0.1h-0.1h-0.1h-0.1l0,0l0,0 M323.5,343.6L323.5,343.6L323.5,343.6h0.1h0.1h0.1h0.1h0.1h0.1 M323.5,344.9
	v-1.2 M334.5,32.8L334.5,32.8h-0.1h-0.1h-0.1l0,0l0,0l0,0l0,0 M334,37.8v-5 M334,343.6V42.3 M338.1,32.8h-3.6 M338.5,32.8
	L338.5,32.8L338.5,32.8L338.5,32.8h-0.1h-0.1h-0.1h-0.1H338 M338.5,343.6V32.8 M178.2,42.3L178.2,42.3L178.2,42.3L178.2,42.3h-0.1
	H178h-0.1l0,0h-0.1 M178.2,343.6V42.3 M177.8,42.3h-3.6 M174.2,42.3L174.2,42.3h-0.2h-0.1h-0.1l0,0l0,0l0,0l0,0 M173.7,343.6V42.3
	 M323.9,42.3L323.9,42.3h-0.1h-0.1h-0.1l0,0l0,0l0,0l0,0 M323.5,61.2V42.3 M323.5,68.9v-0.1 M323.5,106.6V76.5 M323.5,114.3v-0.1
	 M323.5,289.7V121.9 M323.5,297.4v-0.1 M323.5,343.6v-38.7 M328,42.3L328,42.3L328,42.3L328,42.3h-0.1h-0.1h-0.1h-0.1h-0.1
	 M328,343.6V42.3 M327.5,42.3h-3.6 M161.6,32.8h172.5 M335.6,31.4h-0.2l-0.2-0.1l-0.2-0.1l-0.1-0.2l-0.1-0.2v-0.2v-0.2l0.1-0.2
	l0.1-0.2l0.1-0.1l0.2-0.1l0.2-0.1h0.2l0.2,0.1l0.2,0.1l0.2,0.1l0.1,0.2l0.1,0.2v0.2v0.2l-0.1,0.2l-0.1,0.2l-0.2,0.1l-0.2,0.1H335.6
	 M160.1,31.4h-0.2l-0.2-0.1l-0.2-0.1l-0.1-0.2l-0.1-0.2v-0.2v-0.2l0.1-0.2l0.1-0.2l0.1-0.1l0.2-0.1l0.2-0.1h0.2l0.2,0.1l0.2,0.1
	l0.1,0.1l0.1,0.2l0.1,0.2v0.2v0.2l-0.1,0.2l-0.1,0.2l-0.2,0.1l-0.2,0.1H160.1 M338.5,32.3v-3.6 M157.1,32.3v-3.6 M157.1,28.3h181.6
	 M157.1,343.6L157.1,343.6L157.1,343.6L157.1,343.6L157.1,343.6L157.1,343.6h0.1l0,0l0,0 M157.3,344.9L157.3,344.9L157.3,344.9h-0.1
	l0,0l0,0l0,0l0,0l0,0 M157.1,344.9v-1.2 M160.9,343.6h-3.6 M160.9,344.9h-3.6 M177.4,343.6h0.1h0.1h0.1h0.1h0.1h0.1l0,0l0,0
	 M178.2,344.9L178.2,344.9L178.2,344.9h-0.1H178h-0.1h-0.1h-0.1h-0.1 M178.2,343.6v1.2 M177.4,343.6h-16 M177.4,344.9h-16
	 M160.9,343.6L160.9,343.6h0.1h0.1h0.1h0.1h0.1h0.1h0.1 M161.5,344.9L161.5,344.9h-0.1h-0.1h-0.1H161h-0.1h0l0,0 M334,42.4L334,42.4
	L334,42.4L334,42.4v-0.1v-0.1v-0.1V42v-0.1 M161.6,42.4L161.6,42.4L161.6,42.4L161.6,42.4v-0.1v-0.1v-0.1V42v-0.1 M328,42.4h6
	 M290.3,42.4h33.2 M178.2,42.4h109.1 M161.6,42.4h12.1 M334,42v-3.7 M161.6,42v-3.7 M334,38.2L334,38.2V38v-0.1v-0.1v-0.1l0,0l0,0
	l0,0 M293.4,37.8H334 M161.6,37.8h122.6 M161.6,38.2L161.6,38.2V38v-0.1v-0.1v-0.1l0,0l0,0l0,0 M171.4,343.6l2.3-2.3 M173.7,334.6
	h-12.1 M161.6,341.4l2.3,2.3 M334,334.6h-6 M331.7,343.6l2.3-2.3 M328,341.4l2.3,2.3 M335.8,30.7l0.1-0.1v-0.1v-0.1l-0.1-0.1
	l-0.1-0.1h-0.1h-0.1l-0.1,0.1l-0.1,0.1v0.1v0.1l0.1,0.1l0.1,0.1h0.1L335.8,30.7L335.8,30.7 M335.9,30.9l0.1-0.1v-0.1v-0.1l-0.1-0.1
	l-0.1-0.1l-0.1-0.1h-0.1h-0.1l-0.1,0.1l-0.1,0.1l-0.1,0.1v0.1l0.1,0.1l0.1,0.1l0.1,0.1h0.1h0.1l0.1-0.1H335.9 M336.2,31.1l0.1-0.2
	l0.1-0.2v-0.2v-0.2l-0.1-0.2l-0.1-0.1l-0.2-0.1l-0.2-0.1h-0.2h-0.2l-0.2,0.1l-0.1,0.1l-0.1,0.2l-0.1,0.2v0.2v0.2l0.1,0.2l0.1,0.1
	l0.2,0.1l0.2,0.2h0.2h0.2l0.2-0.1L336.2,31.1 M160.3,30.7l0.1-0.1v-0.1v-0.1l-0.1-0.1l-0.1-0.1h-0.1H160l-0.2,0.1l-0.1,0.1v0.1v0.1
	l0.1,0.1l0.1,0.1h0.1h0.1L160.3,30.7 M160.5,30.9l0.1-0.1v-0.1v-0.1l-0.1-0.1l-0.1-0.1l-0.1-0.1h-0.1H160l-0.1,0.1l-0.1,0.1v0.1v0.1
	v0.1l0.1,0.1L160,31h0.1h0.1l0.1-0.1H160.5 M160.7,31.1l0.1-0.2l0.1-0.2v-0.2v-0.2l-0.1-0.2l-0.1-0.1l-0.2-0.1l-0.2-0.1H160h-0.2
	l-0.2,0.1l-0.1,0.1l-0.1,0.2l-0.1,0.2v0.2v0.2l0.1,0.2l0.1,0.1l0.2,0.1l0.2,0.1h0.2h0.2l0.2-0.1L160.7,31.1 M161.6,32.8L161.6,32.8
	L161.6,32.8L161.6,32.8h-0.1h-0.1h-0.1h-0.1H161 M161.6,37.8v-5 M161.6,343.6V42.3 M157.5,32.8L157.5,32.8h-0.2h-0.1h-0.1l0,0l0,0
	l0,0l0,0 M157.1,343.6V32.8 M161.1,32.8h-3.6 M173.7,163.4h-12.1 M173.7,146.7h-12.1 M167.6,153.5h0.3l0.3-0.1l0.3-0.1l0.2-0.2
	l0.2-0.2l0.2-0.2l0.1-0.3l0.1-0.3v-0.3v-0.3l-0.1-0.3l-0.1-0.3l-0.2-0.2l-0.2-0.2l-0.2-0.2l-0.3-0.1l-0.3-0.1h-0.3h-0.3h-0.3
	l-0.3,0.1l-0.3,0.1l-0.2,0.2l-0.2,0.2l-0.1,0.2l-0.1,0.3l-0.1,0.3v0.3v0.3l0.1,0.3l0.1,0.3l0.2,0.2l0.2,0.2l0.2,0.2l0.3,0.1l0.3,0.1
	H167.6 M183.7,316.4h0.8 M183.7,316.9h0.8 M317.6,316.4h0.8 M317.6,316.9h0.8 M184.4,316.4L184.4,316.4L184.4,316.4v0.1v0.1v0.1v0.1
	v0.1v0.2 M317.6,317.3v-0.2V317v-0.1v-0.1v-0.1v-0.1l0,0l0,0 M184.4,316.4h133.1 M317.6,317.7v-0.3 M184.4,317.3v0.3 M184.4,317.7
	h-0.8 M183.7,317.7v3.3 M183.7,321h134.7 M318.3,317.7v3.3 M318.3,317.7h-0.8 M318.3,50.2L318.3,50.2L318.3,50.2L318.3,50.2v-0.1V50
	v-0.1v-0.1v-0.1 M183.7,50.2L183.7,50.2L183.7,50.2L183.7,50.2v-0.1V50v-0.1v-0.1v-0.1 M302.4,50.2h15.9 M183.7,50.2h91.5
	 M318.3,46.2L318.3,46.2v-0.2v-0.1v-0.1l0,0l0,0l0,0l0,0 M301.8,45.7h16.4 M183.7,45.7h92.1 M183.7,46.2L183.7,46.2v-0.2v-0.1v-0.1
	l0,0l0,0l0,0l0,0 M318.3,49.8v-3.6 M183.7,49.8v-3.6 M322.3,44.2h-3.6 M322.3,322.4h-3.6 M318.3,45.7v-1.5 M318.3,317.7V50.2
	 M318.3,322.4V321 M322.8,61.2v-17 M322.8,106.6V76.5 M322.8,289.7V121.9 M322.8,322.4v-17.6 M183.2,44.1h-3.6 M183.2,322.4h-3.6
	 M179.1,322.4V44.1 M183.7,45.7v-1.5 M183.7,317.7V50.2 M183.7,322.4V321 M157.1,147.2l-0.5,0.2l-0.6,0.5l-0.5,0.6l-0.3,0.6
	l-0.2,0.7l-0.2,0.7l-0.1,1l-0.1,1.1v1.1v1.2 M167.2,149.7h0.8 M154.4,155v1.2v1.2l0.1,1.1l0.2,1.1l0.3,1l0.3,0.7l0.5,0.6l0.6,0.6
	l0.6,0.3 M184.1,146.7L184.1,146.7h0.2h0.1h0.1l0.1,0.1v0.1v0.1v0.1 M184.6,162.9L184.6,162.9v0.2v0.1l-0.1,0.1l-0.1,0.1h-0.1h-0.1
	H184 M184.6,147.2v15.7 M183.7,146.7h0.5 M184.1,163.4h-0.5 M155.5,163.4L155.5,163.4h-0.2h-0.3h-0.5h-0.3h-0.3h-0.2h-0.1l0,0
	 M155.5,146.7L155.5,146.7h-0.2h-0.3h-0.5h-0.3h-0.3h-0.2h-0.1l0,0 M153.4,163.4v-16.7 M184.2,163.3L184.2,163.3 M184.2,146.7
	L184.2,146.7 M179.1,147.4h-0.9 M178.2,162.6h0.9 M178.2,146.7h0.9 M155.5,146.7h1.5 M155.5,161.6v1.8 M155.5,146.7v1.8
	 M157.1,163.4h-1.5 M179.1,163.4h-0.9 M168.2,152.9v-2.5 M165.7,151.6v0.3l0.1,0.3l0.1,0.3l0.2,0.2l0.2,0.2l0.2,0.2l0.3,0.1l0.3,0.1
	h0.3h0.3l0.3-0.1l0.3-0.1l0.2-0.2l0.2-0.2l0.2-0.2l0.1-0.2l0.1-0.3v-0.3v-0.2v-0.3l-0.1-0.3l-0.1-0.2l-0.2-0.2l-0.2-0.2l-0.2-0.1
	l-0.3-0.1l-0.3-0.1h-0.3h-0.3l-0.3,0.1l-0.3,0.1l-0.2,0.2l-0.2,0.2l-0.2,0.2l-0.1,0.3l-0.1,0.3V151.6 M167,152.9h1 M167,150.4v2.5
	 M168.2,150.4h-1 M323.5,114.3L323.5,114.3L323.5,114.3h-0.2h-0.1h-0.2h-0.2h-0.2h-0.2H322h-0.2h-0.2h-0.1h-0.1l0,0 M323.5,121.9
	L323.5,121.9L323.5,121.9h-0.2h-0.1h-0.2h-0.2h-0.2h-0.2H322h-0.2h-0.2h-0.1h-0.1l0,0 M323.5,121.9v-7.6 M323.5,297.4L323.5,297.4
	L323.5,297.4h-0.2h-0.1h-0.2h-0.2h-0.2h-0.2H322h-0.2h-0.2h-0.1h-0.1l0,0 M323.5,304.9L323.5,304.9L323.5,304.9h-0.2h-0.1h-0.2h-0.2
	h-0.2h-0.2H322h-0.2h-0.2h-0.1h-0.1l0,0 M323.5,304.9v-7.6 M323.5,68.9L323.5,68.9L323.5,68.9h-0.2h-0.1h-0.2h-0.2h-0.2h-0.2H322
	h-0.2h-0.2h-0.1h-0.1l0,0 M323.5,76.5L323.5,76.5L323.5,76.5h-0.2h-0.1h-0.2h-0.2h-0.2h-0.2H322h-0.2h-0.2h-0.1h-0.1l0,0
	 M323.5,76.5v-7.6 M323.5,289.7L323.5,289.7L323.5,289.7h-0.2h-0.1h-0.2h-0.2h-0.2h-0.2H322h-0.2h-0.2h-0.1h-0.1l0,0 M323.5,297.2
	L323.5,297.2L323.5,297.2h-0.2h-0.1h-0.2h-0.2h-0.2h-0.2H322h-0.2h-0.2h-0.1h-0.1l0,0 M323.5,297.2v-7.5 M323.5,106.6L323.5,106.6
	L323.5,106.6h-0.2h-0.1h-0.2h-0.2h-0.2h-0.2H322h-0.2h-0.2h-0.1h-0.1l0,0 M323.5,114.2L323.5,114.2L323.5,114.2h-0.2h-0.1h-0.2h-0.2
	h-0.2h-0.2H322h-0.2h-0.2h-0.1h-0.1l0,0 M323.5,114.2v-7.6 M323.5,61.2L323.5,61.2L323.5,61.2h-0.2h-0.1h-0.2h-0.2h-0.2h-0.2H322
	h-0.2h-0.2h-0.1h-0.1l0,0 M323.5,68.8L323.5,68.8L323.5,68.8h-0.2h-0.1h-0.2h-0.2h-0.2h-0.2H322h-0.2h-0.2h-0.1h-0.1l0,0
	 M323.5,68.8v-7.6 M275.9,49.6L275.9,49.6v0.1v0.1v0.1L276,50h0.1h0.1h0.1h0.1l0.1-0.1v-0.1v-0.1v-0.1v-0.1v-0.1v-0.1v-0.1V49
	l-0.1-0.1h-0.1h-0.1h-0.1H276l-0.1,0.1v0.1v0.1V49.6L275.9,49.6 M301.7,49.6L301.7,49.6v-0.1v-0.1v-0.1l-0.1-0.1h-0.1h-0.1h-0.1
	h-0.1l-0.1,0.1l-0.1,0.1v0.1v0.1v0.1v0.1v0.1V50l0.1,0.1l0.1,0.1h0.1h0.1h0.1h0.1l0.1-0.1V50v-0.1V49.6L301.7,49.6 M301.7,46.7
	L301.7,46.7v-0.1v-0.1v-0.1l-0.1-0.1h-0.1h-0.1h-0.1h-0.1l-0.1,0.1l-0.1,0.1v0.1v0.1v0.1v0.1v0.1v0.1l0.1,0.1l0.1,0.1h0.1h0.1h0.1
	h0.1l0.1-0.1v-0.1v-0.1V46.7L301.7,46.7 M275.9,46.7L275.9,46.7v0.1v0.1v0.1l0.1,0.1h0.1h0.1h0.1h0.1l0.1-0.1v-0.1v-0.1v-0.1v-0.1
	v-0.1v-0.1v-0.1v-0.1l-0.1-0.1h-0.1h-0.1h-0.1H276l-0.1,0.1v0.1v0.1V46.7L275.9,46.7 M275.2,46.7l0.1-0.3l0.2-0.3l0.3-0.2l0.3-0.1
	l0.3,0.1l0.3,0.2l0.2,0.3l0.1,0.3l-0.1,0.3l-0.2,0.3l-0.3,0.2l-0.3,0.1l-0.3-0.1l-0.3-0.2l-0.2-0.3L275.2,46.7 M275.2,49.6l0.1-0.3
	l0.2-0.3l0.3-0.2l0.3-0.1l0.3,0.1l0.3,0.2l0.2,0.3l0.1,0.3l-0.1,0.3l-0.2,0.3l-0.3,0.2l-0.3,0.1l-0.3-0.1l-0.3-0.2l-0.2-0.3
	L275.2,49.6 M275.2,46v4.2 M275.2,50.2l1.8,1 M276.9,45l-1.8,1 M302.3,49.6l-0.1,0.3l-0.2,0.3l-0.3,0.2l-0.3,0.1l-0.3-0.1l-0.3-0.2
	l-0.2-0.3l-0.1-0.3l0.1-0.3l0.2-0.3l0.3-0.2l0.3-0.1l0.3,0.1l0.3,0.2l0.2,0.3L302.3,49.6 M302.3,46.7l-0.1,0.3l-0.2,0.3l-0.3,0.2
	l-0.3,0.1l-0.3-0.1l-0.3-0.2l-0.2-0.3l-0.1-0.3l0.1-0.3l0.2-0.3l0.3-0.2l0.3-0.1l0.3,0.1l0.3,0.2l0.2,0.3L302.3,46.7 M302.4,50.2V46
	 M302.4,46l-1.8-1 M300.6,51.3l1.8-1 M288,52.9v-0.8 M289.5,52.9H288 M289.5,52.9v-0.8 M291.2,52.2L291.2,52.2L291.2,52.2H291h-0.2
	h-0.2h-0.2h-0.3h-0.3h-0.3h-0.3h-0.3h-0.3h-0.3h-0.3h-0.3H287h-0.2h-0.1h-0.1h-0.1l0,0 M291.2,44.1L291.2,44.1L291.2,44.1H291h-0.2
	h-0.2h-0.2h-0.3h-0.3h-0.3h-0.3h-0.3h-0.3h-0.3h-0.3h-0.3H287h-0.2h-0.1h-0.1h-0.1l0,0 M277.5,51.3v-0.1 M300.1,51.3v-0.1
	 M277.5,51.3H277 M276.9,51.3L276.9,51.3 M291.2,51.3h9.4 M277,51.3h9.4 M300.6,51.3L300.6,51.3 M300.6,51.3h-0.5 M291.2,51.3
	L291.2,51.3L291.2,51.3h-0.1H291h-0.2h-0.2h-0.2h-0.3h-0.3h-0.3h-0.3 M288.8,51.1h-0.3h-0.3h-0.3h-0.3h-0.2H287h-0.2h-0.1h-0.1l0,0
	l0,0 M277.5,45.1V45 M300.1,45.1V45 M291.2,44.9h9.4 M277,44.9h9.4 M277,44.9L277,44.9 M276.9,45h0.5 M300.1,45h0.5 M300.6,45
	L300.6,45 M286.3,45L286.3,45L286.3,45h0.2h0.1h0.2h0.2h0.2h0.3h0.3h0.3h0.3h0.3h0.3h0.3h0.3h0.3h0.2h0.2h0.1h0.1l0,0l0,0
	 M277.5,51.1v-1.7 M300.1,51.1v-1.7 M277.5,51.1h22.7 M300.1,49.4v-2.6 M277.5,49.4v-2.6 M277.5,49.4h22.7 M300.1,46.8v-1.7
	 M277.5,45.1h22.7 M277.5,46.8v-1.7 M277.5,46.8h22.7 M285.9,39.1V39l-0.1-0.1l-0.1-0.1l-0.1-0.1h-0.1h-0.1l-0.1,0.1l-0.1,0.1V39
	v0.1v0.1l0.1,0.1l0.1,0.1h0.1h0.1l0.1-0.1l0.1-0.1L285.9,39.1L285.9,39.1 M284,38v2.3 M284,40.3h2.2 M291.4,40.3h2.2 M293.4,40.3V38
	 M292.7,39.1V39l-0.1-0.1l-0.1-0.1l-0.1-0.1h-0.1h-0.1l-0.1,0.1l-0.1,0.1V39v0.1v0.1l0.1,0.1l0.1,0.1h0.1h0.1l0.1-0.1l0.1-0.1
	L292.7,39.1L292.7,39.1 M293.4,38L293.4,38v-0.2v-0.1v-0.1v-0.1l0,0l0,0l0,0 M284,37.5L284,37.5L284,37.5L284,37.5v0.1v0.1v0.1V38
	v0.1 M284,37.1v0.5 M284,37.1h9.4 M293.4,37.1v0.5 M284,37.5h9.4 M286.2,40.4L286.2,40.4L286.2,40.4h0.2h0.2h0.2h0.2 M290.5,40.4
	h0.2h0.2h0.2h0.1h0.1l0,0 M286.2,39.5L286.2,39.5h0.1h0.1h0.2h0.2h0.2h0.2 M290.2,39.5h0.2h0.2h0.2h0.2h0.1h0.1l0,0l0,0 M287.1,40.4
	h0.1h0.1l0,0 M290.2,40.4L290.2,40.4h0.1h0.1 M287.4,38.3L287.4,38.3L287.4,38.3h0.2h0.1h0.2h0.2h0.2h0.2 M288.8,38.3h0.2h0.2h0.2
	h0.2h0.2h0.1h0.1l0,0 M287.2,43v0.2v0.2v0.2v0.1v0.1V44v0.1l0,0 M290.3,43v0.2v0.2v0.2v0.1v0.1V44v0.1l0,0 M287.2,42.8v0.3
	 M290.3,42.8v0.3 M287.2,42.2L287.2,42.2L287.2,42.2L287.2,42.2v0.1v0.1v0.1v0.1v0.1 M290.3,42.2L290.3,42.2L290.3,42.2L290.3,42.2
	v0.1v0.1v0.1v0.1v0.1 M287.2,41.4v0.8 M290.3,41.4v0.8 M290.3,42.2h-3.1 M290.3,40.6h-0.3h-0.3h-0.3h-0.3h-0.3h-0.3h-0.3h-0.3
	 M287.2,41.4v-0.8 M290.3,41.4h-0.3h-0.3h-0.3h-0.3h-0.3h-0.3h-0.3h-0.3 M290.3,41.4v-0.8 M156.3,32.4L156.3,32.4v0.1v0.1l0,0l0,0
	l0,0h0.1h0.1h0.1 M156.6,28.4L156.6,28.4h-0.1h-0.1l0,0l0,0v0.1v0.1v0.1 M157.1,28.6L157.1,28.6L157.1,28.6v-0.1l0,0l0,0l0,0l0,0
	l0,0 M156.6,28.4h0.3 M156.3,32.4v-3.7 M157.1,32.7v-4.1 M156.6,32.9h0.3 M157.1,32.9L157.1,32.9L157.1,32.9L157.1,32.9L157.1,32.9
	L157.1,32.9v-0.1l0,0l0,0 M339.3,32.4L339.3,32.4v0.1v0.1l0,0l0,0h-0.1h-0.1H339 M338.5,32.7L338.5,32.7L338.5,32.7v0.1l0,0l0,0l0,0
	l0,0l0,0 M338.9,32.9h-0.3 M338.9,28.4L338.9,28.4h0.1h0.1l0,0l0,0v0.1v0.1v0.1 M338.5,28.4L338.5,28.4L338.5,28.4L338.5,28.4
	L338.5,28.4L338.5,28.4v0.1l0,0l0,0 M338.9,28.4h-0.3 M338.5,28.6v4.1 M339.3,28.7v3.7 M183.2,43.4L183.2,43.4h0.1h0.1l0,0l0,0v0.1
	v0.1v0.1 M179,43.8L179,43.8v-0.1v-0.1l0,0l0,0l0,0h0.1h0.1h0.1 M179.5,43.4h3.7 M183.7,43.8v0.3 M183.4,44.2L183.4,44.2L183.4,44.2
	h0.1l0,0l0,0l0,0l0,0l0,0 M179.3,44.2h4.1 M179,43.8v0.3 M179,44.2L179,44.2L179,44.2L179,44.2L179,44.2L179,44.2h0.1l0,0l0,0
	 M322.6,44.2L322.6,44.2L322.6,44.2h0.1l0,0l0,0l0,0l0,0l0,0 M322.8,43.8v0.3 M322.8,43.8L322.8,43.8v-0.1v-0.1l0,0l0,0h-0.1h-0.1
	h-0.1 M318.6,43.4L318.6,43.4h-0.1h-0.1l0,0l0,0l0,0v0.1v0.1v0.1 M318.5,44.2h4.1 M318.6,43.4h3.7 M318.3,44.2L318.3,44.2
	L318.3,44.2L318.3,44.2L318.3,44.2L318.3,44.2h0.1l0,0l0,0 M318.3,43.8v0.3 M318.6,323.2L318.6,323.2h-0.1h-0.1l0,0l0,0l0,0v-0.1
	V323v-0.1 M322.8,322.9L322.8,322.9v0.1v0.1l0,0l0,0h-0.1h-0.1h-0.1 M322.8,322.6L322.8,322.6L322.8,322.6L322.8,322.6L322.8,322.6
	L322.8,322.6h-0.1l0,0l0,0 M322.8,322.9v-0.3 M322.4,323.2h-3.7 M318.3,322.9v-0.3 M318.5,322.6L318.5,322.6L318.5,322.6h-0.1l0,0
	l0,0l0,0l0,0l0,0 M322.6,322.6h-4.1 M183.2,323.2L183.2,323.2h0.1h0.1l0,0l0,0l0,0v-0.1V323v-0.1 M183.6,322.9v-0.3 M183.6,322.6
	L183.6,322.6L183.6,322.6L183.6,322.6L183.6,322.6L183.6,322.6h-0.1l0,0l0,0 M179,322.9v-0.3 M179.3,322.6L179.3,322.6L179.3,322.6
	h-0.1l0,0l0,0l0,0l0,0l0,0 M179,322.9L179,322.9v0.1v0.1l0,0l0,0h0.1h0.1h0.1 M183.3,322.6h-4.1 M183.2,323.2h-3.7 M205.9,316.4
	V50.2 M202.1,50.2v266.2 M299.7,316.4V51.4 M295.9,51.4v265.2 M229.3,316.4V50.2 M225.6,50.2v266.2 M252.8,316.4V50.2 M249,50.2
	v266.2 M276.2,316.4V50.9 M272.5,50.2v266.2 M155.5,161.6v1.8 M155.5,146.7v1.8 M321.3,114.3v7.6 M321.3,297.4v7.6 M321.3,69v7.6
	 M323.4,297.4v-0.1 M321.3,297.3v0.1 M321.3,289.7v7.6 M323.4,114.3v-0.1 M321.3,114.2v0.1 M321.3,106.6v7.6 M323.4,69v-0.2
	 M321.3,68.8v0.1 M321.3,61.3v7.5 M291.2,52.2v-0.9 M286.3,51.3v0.9 M291.2,45v-0.9 M286.3,44.1V45 M286.2,39.6v0.9 M291.3,40.5
	v-0.9 M287.4,38.3v2.3 M290.2,40.6v-2.3"/>
<path class="st2" d="M324.1,411.9H324h-0.1l-0.1,0.1l-0.1,0.1l-0.1,0.1l-0.1,0.1v0.1v0.1 M330.4,416.5l-0.1-0.1l-0.1-0.2l-0.1-0.2
	v-0.2 M330,415.7v-0.2l0.1-0.2l0.1-0.2l0.1-0.1l0.2-0.1l0.2-0.1h0.2h0.2l0.2,0.1l0.2,0.1l0.1,0.2l0.1,0.2v0.2v0.2v0.2l-0.1,0.2
	l-0.1,0.2l0,0 M334.7,412.2l3.6,3.6 M334.7,412.2L334.7,412.2l-0.1-0.1h-0.1h-0.1h-0.1h-0.1H334h-0.1 M324.1,411.9h10 M323.5,416.5
	v-3.7 M323.5,429.3v-2.6 M323.5,429.3v0.1v0.1l0.1,0.1l0.1,0.1l0.1,0.1l0.1,0.1h0.1h0.1 M334.1,430.1h-10 M334.1,430.1L334.1,430.1
	h0.1h0.1h0.1h0.1h0.1h0.1v-0.1 M338.3,426.2l-3.6,3.6 M338.3,426.2L338.3,426.2l0.1-0.1V426v-0.1v-0.1v-0.1v-0.1v-0.1 M338.5,425.5
	v0.1 M338.5,416.2v0.1 M338.5,416.2L338.5,416.2v-0.1V416v-0.1v-0.1v-0.1v-0.1l0,0 M331.6,425.5L331.6,425.5l0.2,0.2l0.1,0.2v0.2
	v0.2v0.2l-0.1,0.2l-0.1,0.2l-0.2,0.1l-0.2,0.1h-0.2h-0.2l-0.2-0.1l-0.2-0.1l-0.1-0.1l-0.1-0.2l-0.1-0.2v-0.2 M330,426.2V426l0.1-0.2
	l0.1-0.2l0.1-0.1 M157.1,425.5h181.6 M157.1,416.5h181.6 M338.5,425.1v-8.2 M157.1,425.1v-8.2 M178.2,425.5v3.7 M168.3,425.5
	l0.1,0.1l0.1,0.2l0.1,0.2v0.2 M168.6,426.2v0.2l-0.1,0.2l-0.1,0.2l-0.1,0.1l-0.2,0.1l-0.2,0.1h-0.2h-0.2l-0.2-0.1l-0.2-0.1l-0.1-0.2
	l-0.1-0.2v-0.2v-0.2v-0.2l0.1-0.2l0.1-0.2l0,0 M160.9,429.8l-3.6-3.6 M160.9,429.8L160.9,429.8l0.1,0.1h0.1h0.1h0.1h0.1h0.1h0.1
	 M177.4,430.1h-16 M177.4,430.1h0.1h0.1l0.1-0.1l0.1-0.1l0.1-0.1l0.1-0.1v-0.1v-0.1 M157.1,425.6v-0.1 M157.1,425.6L157.1,425.6v0.1
	v0.1v0.1v0.1v0.1l0,0v0.1 M155.5,416h-0.3h-0.2h-0.2h-0.2h-0.1l0,0 M156.6,416.5L156.6,416.5H156h-0.5h-0.3H155h-0.2h-0.2h-0.1l0,0
	 M178.2,416H158 M158,416.5V416 M178.2,416.5V416 M179.6,416h4.5 M184.2,416L184.2,416L184.2,416h0.1h0.1l0,0l0,0l0,0 M184.6,416
	v0.5 M179.1,416v0.5 M159.5,406.5L159.5,406.5h0.1h0.2h0.3h0.3h0.5h0.5h0.3h0.1l0,0l0,0 M155.5,416h28.8 M173.8,407.2h1.5h1.5
	l1.4,0.1l1.4,0.2l0.8,0.2l0.7,0.2l0.7,0.3l0.6,0.5l0.5,0.6l0.5,0.7l0.3,0.8l0.2,0.9l0.2,0.9l0.1,0.9l0.1,0.9l0.1,0.9l0.1,0.9
	 M160.3,407.2h13.5 M153.3,408.7l0.1-0.3l0.2-0.3l0.5-0.3l0.5-0.2l0.5-0.1h0.5h0.5h0.5l0.6-0.1l0.6-0.1h0.6l0.6,0.1l0.6,0.1h0.6h0.6
	 M153.3,408.7L153.3,408.7 M155.5,416v-0.7v-0.7v-0.8v-0.8v-0.8l-0.1-0.7l-0.1-0.7l-0.3-0.5l-0.5-0.5l-0.3-0.2l-0.3-0.3l-0.2-0.3
	l-0.1-0.3v-0.2 M323.5,425.5v1.2 M322.8,425.8v-0.2 M277.5,435.2v-1.9 M300.1,435.2v-1.9 M290.3,435.2h9.9 M277.5,435.2h9.9
	 M302.4,426.7l-1.8,0.3 M302.4,426.7v-1.2 M275.1,426.7v-1.2 M276.9,427.1l-1.8-0.3 M277,425.5v1.6 M276.9,427.1l0.5,0.1
	 M277.5,433.2v-6.1 M290.3,433.2h9.9 M277.5,433.2h9.9 M300.1,433.2v-6.1 M300.1,427.1l0.5-0.1 M300.6,427.1v-1.6 M290.4,426.8
	L290.4,426.8l0.3,0.3l0.2,0.3l0.1,0.3l0.1,0.3v0.3 M286.5,429.6l-0.1-0.3l-0.1-0.3v-0.3v-0.3l0.1-0.3l0.1-0.3l0.2-0.3l0.2-0.2
	l0.1-0.1 M291.2,428.5v0.3l-0.1,0.3l-0.1,0.3 M290.4,426.7v2.3 M287.1,428.9v-2.3 M289.7,433.3l0.3-0.1l0.3-0.2l0.2-0.2l0.2-0.3
	l0.2-0.3l0.1-0.3l0.1-0.3v-0.3v-0.3l-0.1-0.3l-0.1-0.3l-0.2-0.3l-0.2-0.3l-0.2-0.2l-0.3-0.2l-0.3-0.2l-0.3-0.1l-0.3-0.1h-0.3h-0.3
	l-0.3,0.1l-0.3,0.1l-0.3,0.2l-0.3,0.2l-0.2,0.2l-0.2,0.3l-0.2,0.3l-0.1,0.3l-0.1,0.3v0.3v0.3l0.1,0.3l0.1,0.3l0.2,0.3l0.2,0.3
	l0.2,0.2l0.3,0.2l0.3,0.1 M289.6,461.1v-0.8 M287.9,461v-0.8 M289.4,433.1V433 M289.9,432l-0.6,1 M289.4,431l0.6,1 M288.2,431h1.1
	 M287.7,432l0.6-1 M288.2,432.9l-0.6-1 M288.2,432.9v0.1 M288.2,433.1h0.5 M288.9,433.1h0.5 M288.9,433.1L288.9,433.1L288.9,433.1
	L288.9,433.1L288.9,433.1h-0.1l0,0l0,0l0,0 M287.9,433.3v-0.2 M289.7,433.1v0.2 M289.7,433.1L289.7,433.1L289.7,433.1L289.7,433.1
	h-0.1l0,0l0,0h-0.1h-0.1 M288.2,433.1L288.2,433.1h-0.1l0,0l0,0l0,0l0,0l0,0l0,0 M289.7,460.3L289.7,460.3L289.7,460.3h-0.2h-0.1
	h-0.2h-0.2h-0.2h-0.2h-0.2H288h-0.1h-0.1l0,0 M288.8,463.5h0.2l0.2-0.1l0.2-0.1l0.2-0.2l0.2-0.2l0.1-0.2l0.1-0.2v-0.2v-0.2l-0.1-0.2
	l-0.1-0.2l-0.2-0.2l-0.2-0.1l-0.2-0.1l-0.3-0.2h-0.2l-0.2,0.1l-0.2,0.1l-0.2,0.1l-0.2,0.2l-0.1,0.2l-0.1,0.2v0.2v0.2l0.1,0.2
	l0.1,0.2l0.1,0.2l0.2,0.2l0.2,0.1l0.2,0.1L288.8,463.5 M284,426.4v-0.2V426v-0.1v-0.1v-0.1v-0.1v-0.1l0,0 M293.4,425.5L293.4,425.5
	L293.4,425.5v0.1v0.1v0.1v0.1v0.2v0.2 M284,426.4v0.3 M284,426.7h9.4 M293.4,426.7v-0.3 M287.2,433v25.7 M290.3,433v25.7
	 M287.2,461.6v2.4 M290.3,461.6v2.4 M290.3,463.9l-0.3,0.1l-0.3,0.1l-0.3,0.1h-0.3h-0.3h-0.3l-0.3-0.1l-0.3-0.1 M287.2,458.7v2.8
	 M290.3,458.7v2.8 M287.6,461.4h-0.3 M290.3,461.4H290 M287.9,458.7h-0.6 M290.3,458.7h-0.6 M157.1,416.6L157.1,416.6L157.1,416.6
	v-0.1l0,0l0,0l0,0l0,0l0,0 M156.6,416.4h0.3 M156.3,425.1L156.3,425.1v0.1v0.1l0,0l0,0l0,0h0.1h0.1h0.1 M156.6,416.4L156.6,416.4
	h-0.1h-0.1l0,0l0,0v0.1v0.1v0.1 M157.1,425.5L157.1,425.5L157.1,425.5L157.1,425.5L157.1,425.5L157.1,425.5v-0.1l0,0l0,0
	 M156.6,425.5h0.3 M156.3,425.1v-8.3 M157.1,425.3v-8.6 M338.9,425.5L338.9,425.5h0.1h0.1l0,0l0,0v-0.1v-0.1v-0.1 M338.5,425.3
	L338.5,425.3L338.5,425.3v0.1l0,0l0,0l0,0l0,0l0,0 M338.9,425.5h-0.3 M338.5,416.4L338.5,416.4L338.5,416.4L338.5,416.4L338.5,416.4
	L338.5,416.4v0.1l0,0l0,0 M338.9,416.4h-0.3 M339.3,416.8L339.3,416.8v-0.1v-0.1l0,0l0,0l0,0h-0.1h-0.1H339 M339.3,416.8v8.3
	 M338.5,416.7v8.6 M154.4,416v0.5 M159.5,406.4v0.8 M161.9,407.2v-0.8 M289.7,460.3v-27 M287.9,433.3v27"/>
<path class="st3" d="M388.1,590.4l0.2-0.1l0.2-0.1l0.1-0.2l0.1-0.2v-0.2l-0.1-0.2l-0.1-0.2l-0.2-0.1l-0.2-0.1l4.8,0.8L388.1,590.4
	 M158.2,588.9L158,589l-0.2,0.1l-0.1,0.2l-0.1,0.2v0.2l0.1,0.2l0.1,0.2l0.2,0.1l0.2,0.1l-4.8-0.7L158.2,588.9"/>
<path class="st1" d="M153.4,589.7h239.5 M392.9,550.5v43.2 M153.4,408.7v184.4"/>
<path class="st1" d="M113.8,406.5v163.7 M322.7,570.1H110.4"/>
<path class="st0" d="M388.1,590.4l0.2-0.1l0.2-0.1l0.1-0.2l0.1-0.2v-0.2l-0.1-0.2l-0.1-0.2l-0.2-0.1l-0.2-0.1l4.8,0.8L388.1,590.4
	 M158.2,588.9L158,589l-0.2,0.1l-0.1,0.2l-0.1,0.2v0.2l0.1,0.2l0.1,0.2l0.2,0.1l0.2,0.1l-4.8-0.7L158.2,588.9"/>
<path class="st0" d="M113.1,565.3l0.1,0.2l0.1,0.2l0.2,0.1l0.2,0.1h0.2l0.2-0.1l0.2-0.1l0.1-0.2l0.1-0.2l-0.7,4.8L113.1,565.3
	 M114.6,411.3l-0.1-0.2l-0.1-0.2l-0.2-0.1l-0.2-0.1h-0.2l-0.2,0.1l-0.2,0.1l-0.1,0.2l-0.1,0.2l0.7-4.8L114.6,411.3"/>
<path class="st1" d="M323.5,429.3v-3.1 M323.5,429.3v0.1v0.1l0.1,0.1l0.1,0.1l0.1,0.1l0.1,0.1h0.1h0.1 M153.4,408.7L153.4,408.7
	 M322.3,426.9h-0.2l-0.1-0.1l-0.1-0.1l-0.1-0.1v-0.2v-0.2l0.1-0.1l0.1-0.1l0.1-0.1h0.2h0.2h0.2l0.1,0.1l0.1,0.1l0.1,0.1v0.2v0.2
	l-0.1,0.1l-0.1,0.1l-0.1,0.1H322.3 M323.5,425.5v0.8 M323.5,426.2v0.2l-0.1,0.2l-0.1,0.2l-0.1,0.1l-0.2,0.1l-0.2,0.1h-0.2h-0.2
	l-0.2-0.1l-0.2-0.1l-0.2-0.1l-0.1-0.2l-0.1-0.2v-0.2V426l0.1-0.2l0.1-0.2l0.1-0.1 M322.3,426.9h-0.2l-0.1-0.1l-0.1-0.1l-0.1-0.1
	v-0.2v-0.2l0.1-0.1l0.1-0.1l0.1-0.1h0.2h0.2h0.2l0.1,0.1l0.1,0.1l0.1,0.1v0.2v0.2l-0.1,0.1l-0.1,0.1l-0.1,0.1H322.3 M316.1,429.4
	l-0.3-0.6 M321.3,426.3l-0.5,0.2 M315.8,428.8l5.8-3.3 M287.1,428.9v-2.3 M290.5,426.7v2.3 M288.8,433.5h0.3l0.3-0.1l0.3-0.1
	l0.3-0.2l0.3-0.2l0.2-0.2l0.2-0.3l0.2-0.3l0.1-0.3l0.1-0.3v-0.3v-0.3l-0.1-0.3l-0.1-0.3l-0.2-0.3l-0.2-0.3l-0.2-0.2l-0.3-0.2
	l-0.3-0.1l-0.3-0.1l-0.3-0.1h-0.3l-0.3,0.1l-0.3,0.1l-0.3,0.1l-0.3,0.2l-0.2,0.2l-0.2,0.3l-0.2,0.3l-0.1,0.3l-0.1,0.3v0.3v0.3
	l0.1,0.3l0.1,0.3l0.2,0.3l0.2,0.3l0.2,0.2l0.3,0.2l0.3,0.2l0.3,0.1L288.8,433.5L288.8,433.5 M289.4,431h-1.1 M288.2,431l-0.6,1
	 M288.2,433.1h1.1 M289.4,432.9v0.1 M289.4,432.9l0.6-1 M289.9,432l-0.6-1 M287.7,432l0.6,1 M288.2,433.1V433 M284,426.7h9.4
	 M284,426.4v0.3 M293.4,426.7v-0.3 M284,426.4v-0.2V426v-0.1v-0.1v-0.1v-0.1v-0.1l0,0 M293.4,425.5L293.4,425.5L293.4,425.5v0.1v0.1
	v0.1v0.1v0.2v0.2 M341.9,452.8l-2.9,0.9 M342.7,455.7l-2.8,0.9 M342.7,455.7v-0.3V455v-0.3l-0.1-0.3l-0.1-0.3l-0.2-0.3l-0.2-0.3
	l-0.2-0.3 M339,453.6h-0.1h-0.1h-0.1h-0.1h-0.1h-0.1l0,0l0,0 M339.9,456.6h-0.1h-0.1h-0.1h-0.1h-0.1h-0.1l0,0l0,0 M338.3,453.9
	L338.3,453.9 M339.2,456.8L339.2,456.8 M338.2,454L338.2,454l-0.2,0.1h-0.1h-0.2l-0.2,0.1l-0.2,0.1l-0.2,0.1l-0.2,0.1 M339.1,456.8
	L339.1,456.8l-0.2,0.1h-0.1h-0.2l-0.2,0.1l-0.2,0.1l-0.2,0.1l-0.2,0.1 M336.8,454.3l-25.4,7.7 M337.7,457.3l-25.4,7.7 M311.5,462.1
	l-2.7,0.8 M312.4,465l-2.7,0.8 M312.4,465l-0.9-2.9 M306.7,463.6l-0.2,0.1 M308.7,462.9l-0.7,0.2 M307.4,466.5l-0.2-0.3l-0.2-0.3
	l-0.2-0.3l-0.1-0.3l-0.1-0.3v-0.3v-0.3v-0.3 M309.6,465.9l-2.3,0.7 M309,463.6l-0.2-0.7 M309.6,465.9l-0.2-0.7 M316,434.6L316,434.6
	l-0.1,0.1h-0.1h-0.1l0,0l0,0l0,0l0,0 M328.3,456.9l-12.8-22.1 M382.9,551.4l-53-91.8 M383.3,551.2L383.3,551.2l-0.1,0.1H383h-0.1
	l0,0l0,0l0,0l0,0 M323.5,430.3L323.5,430.3L323.5,430.3L323.5,430.3l-0.1,0.1h-0.1h-0.1H323h-0.1 M390.8,546.9L390.8,546.9
	L390.8,546.9L390.8,546.9l-0.1,0.1l0,0h-0.1h-0.1h-0.1 M337.3,454.2l-13.8-23.9 M390.8,546.9l-52-90.1 M313.7,430.6l7-4.1
	 M321.2,427l1.7,3.1 M321.4,426.8l1.8,3.2 M313.6,431.3L313.6,431.3v-0.1v-0.1V431v-0.1v-0.1l0.1-0.1h0.1 M315.4,434.5l-1.8-3.2
	 M316,434.6L316,434.6l-0.2,0.1h-0.1h-0.1h-0.1h-0.1l-0.1-0.1v-0.1 M323.1,430.5l-7,4.1 M323.2,429.9L323.2,429.9v0.1v0.1v0.1v0.1
	v0.1v0.1h-0.1 M320.9,426.6L320.9,426.6h0.1h0.1h0.1h0.1h0.1l0.1,0.1v0.1 M315.6,434.3l-1.7-3.1 M313.8,431.2L313.8,431.2
	L313.8,431.2v-0.1l0,0l0,0l0,0l0,0l0,0 M313.9,430.9l6.9-4 M321,426.9L321,426.9L321,426.9h0.1l0,0l0,0l0,0l0,0l0,0 M323,429.9
	L323,429.9L323,429.9v0.1l0,0l0,0l0,0l0,0l0,0 M322.9,430.3l-6.9,4 M316,434.4L316,434.4L316,434.4h-0.1l0,0l0,0l0,0l0,0l0,0
	 M391,547.3l1.8,3.2 M390.4,547.1L390.4,547.1l0.1-0.1h0.1h0.1h0.1h0.1l0.1,0.1v0.1 M392.9,550.5L392.9,550.5v0.1v0.1v0.1v0.1v0.1
	l-0.1,0.1h-0.1 M383.4,551.2l7-4.1 M383.2,551.8L383.2,551.8v-0.1v-0.1v-0.1v-0.1v-0.1v-0.1h0.1 M385,555l-1.8-3.2 M385.7,555.1
	L385.7,555.1l-0.1,0.1h-0.1h-0.1h-0.1h-0.1l-0.1-0.1V555 M392.7,551l-7,4.1 M390.9,547.5l1.7,3.1 M392.6,550.5L392.6,550.5
	L392.6,550.5v0.1l0,0l0,0l0,0l0,0l0,0 M392.5,550.8l-6.9,4 M385.5,554.8L385.5,554.8L385.5,554.8h-0.1h-0.1l0,0l0,0l0,0l0,0
	 M385.2,554.8l-1.7-3.1 M383.5,551.7L383.5,551.7L383.5,551.7v-0.1l0,0l0,0l0,0l0,0l0,0 M383.6,551.4l6.9-4 M390.5,547.4
	L390.5,547.4L390.5,547.4h0.1l0,0l0,0l0,0l0,0l0,0 M340.9,441.5l-1.7,0.9 M352.2,461.2l-1.6,0.9 M352.2,461.2l-11.3-19.6 M346,467.4
	l-0.8,0.5 M345.4,465.6l0.6,1.7 M332.4,443.8l1.2,1.4 M332.4,443.8l-0.8,0.5 M344.3,466.3l1.1-0.7 M345.4,465.6l-0.1-0.5
	 M350.7,462.1l-5.3,3.1 M350.7,462.1l-11.3-19.6 M339.2,442.5l-5.3,3.1 M334,445.6l-0.3-0.3 M333.7,445.1l-1.1,0.7 M338.5,453.9
	l0.1-0.1l0.2-0.3l0.2-0.2l0.2-0.2l0.3-0.2 M339.5,452.6l0.3-0.1l0.3-0.1h0.3h0.3h0.3l0.3,0.1l0.3,0.1l0.3,0.2l0.2,0.2l0.2,0.2
	l0.2,0.3l0.1,0.3l0.1,0.3v0.3v0.3l-0.1,0.3l-0.1,0.3l-0.2,0.3l-0.2,0.3l-0.2,0.2l-0.3,0.2l-0.3,0.1l-0.3,0.1h-0.3h-0.3h-0.3
	l-0.3-0.1l-0.3-0.1l-0.1-0.1 M341.7,455.2l-1.4,0.5 M340.3,455.6l-0.5-1.4 M341.2,453.9l0.5,1.4 M339.9,454.2l1.4-0.5 M340.6,454.4
	h0.1h0.1l0.1,0.1l0.1,0.1v0.1v0.1l-0.1,0.1l-0.1,0.1h-0.1h-0.1l-0.1-0.1l-0.1-0.1v-0.1v-0.1l0.1-0.1L340.6,454.4 M307,464l-0.2-0.3
	 M308.3,463.3l-0.2-0.3 M308.1,462.9L308.1,462.9l-0.2,0.1l-0.1,0.1l-0.2,0.1l-0.2,0.1l-0.2,0.1l-0.1,0.1l-0.1,0.1h-0.1
	 M308.1,462.9L308.1,462.9L308.1,462.9L308.1,462.9L308.1,462.9 M306.8,463.6L306.8,463.6L306.8,463.6L306.8,463.6L306.8,463.6
	 M290.7,432.8L290.7,432.8L290.7,432.8l-0.2,0.1l-0.1,0.1l-0.1,0.1l-0.2,0.1l-0.2,0.1l-0.1,0.1l-0.1,0.1h-0.1l0,0l0,0 M306.9,464.6
	v0.2l0.1,0.2l0.1,0.2l0.2,0.2l0.2,0.1l0.2,0.1l0.2,0.1h0.2h0.2l0.2-0.1l0.2-0.1l0.2-0.2l0.1-0.2l0.1-0.2v-0.2v-0.2v-0.2l-0.1-0.2
	l-0.1-0.2l-0.2-0.2l-0.2-0.1l-0.2-0.1h-0.2h-0.2l-0.2,0.1l-0.2,0.1l-0.2,0.2l-0.2,0.2l-0.1,0.1l-0.1,0.2V464.6 M308.1,462.9
	l-17.4-30.1 M289.4,433.5l17.4,30.1"/>
<path class="st4" d="M178.7,427.8c2.4,112.6,118.7,170.8,205,127.9"/>
<path class="st0" d="M177.1,431l0.6,0.2l1.1-3.3l1.2,3.3l0.5-0.2l-1.8-4.6L177.1,431z"/>
<path class="st0" d="M381.6,558.5l-0.3-0.3l2.4-2.5l-3.5,0.3v-0.6l4.9-0.6L381.6,558.5z"/>
<g>
	<path class="st5" d="M248.2,355.2l1.7-2.3c-0.2,0.1-0.4,0.1-0.6,0.1c-1.4,0-2.4-1.1-2.4-2.4c0-1.5,1.1-2.5,2.5-2.5
		c1.7,0,2.5,1.3,2.5,2.5c0,0.3-0.1,0.9-0.6,1.7l-2.5,3.4L248.2,355.2z M247.7,350.5c0,1,0.7,1.7,1.7,1.7c1,0,1.7-0.7,1.7-1.7
		c0-1-0.7-1.7-1.7-1.7C248.4,348.8,247.7,349.6,247.7,350.5z"/>
	<path class="st5" d="M256.6,348.5l-1.7,2.3c0.2-0.1,0.4-0.1,0.6-0.1c1.4,0,2.4,1.1,2.4,2.4c0,1.5-1.1,2.5-2.5,2.5
		c-1.7,0-2.5-1.3-2.5-2.5c0-0.3,0.1-0.9,0.6-1.7l2.5-3.5L256.6,348.5z M257.1,353.1c0-1-0.7-1.7-1.7-1.7c-1,0-1.7,0.7-1.7,1.7
		c0,1,0.7,1.7,1.7,1.7C256.4,354.9,257.1,354.1,257.1,353.1z"/>
	<path class="st5" d="M259.7,354.5c-0.5-0.7-0.7-1.6-0.7-2.7s0.3-2,0.7-2.7c0.6-0.8,1.3-1.1,1.9-1.1c0.6,0,1.3,0.3,1.9,1.1
		c0.5,0.7,0.7,1.6,0.7,2.7s-0.3,2-0.7,2.7c-0.6,0.8-1.3,1.1-1.9,1.1C261,355.6,260.3,355.3,259.7,354.5z M260.4,349.6
		c-0.4,0.6-0.5,1.5-0.5,2.2s0.1,1.6,0.5,2.2c0.4,0.6,0.9,0.8,1.3,0.8s0.9-0.2,1.3-0.8c0.4-0.6,0.5-1.5,0.5-2.2s-0.1-1.6-0.5-2.2
		c-0.4-0.6-0.9-0.8-1.3-0.8S260.7,349,260.4,349.6z"/>
</g>
<g>
	<path class="st5" d="M243.1,367.2h-1.2l0.4-0.8h1.6v7.3h-0.8V367.2z"/>
	<path class="st5" d="M245.3,373.7l2.7-3.1c0.2-0.2,0.7-0.8,0.9-1.1c0.3-0.5,0.4-0.8,0.4-1.1c0-0.8-0.6-1.4-1.5-1.4
		c-0.5,0-0.9,0.2-1.2,0.6c-0.1,0.2-0.2,0.5-0.2,0.9h-0.8c0-0.7,0.3-1.2,0.5-1.5c0.3-0.4,0.8-0.7,1.7-0.7c1.3,0,2.3,0.9,2.3,2.2
		c0,0.5-0.1,0.9-0.6,1.6c-0.3,0.4-0.7,0.9-1,1.2l-1.5,1.7h3.1v0.7H245.3z"/>
	<path class="st5" d="M252,372.7c-0.5-0.7-0.7-1.6-0.7-2.7s0.3-2,0.7-2.7c0.6-0.8,1.3-1.1,1.9-1.1c0.6,0,1.3,0.3,1.9,1.1
		c0.5,0.7,0.7,1.6,0.7,2.7s-0.3,2-0.7,2.7c-0.6,0.8-1.3,1.1-1.9,1.1C253.3,373.8,252.5,373.6,252,372.7z M252.6,367.8
		c-0.4,0.6-0.5,1.5-0.5,2.2s0.1,1.6,0.5,2.2c0.4,0.6,0.9,0.8,1.3,0.8s0.9-0.2,1.3-0.8c0.4-0.6,0.5-1.5,0.5-2.2s-0.1-1.6-0.5-2.2
		c-0.4-0.6-0.9-0.8-1.3-0.8S253,367.2,252.6,367.8z"/>
	<path class="st5" d="M258.2,372.7c-0.5-0.7-0.7-1.6-0.7-2.7s0.3-2,0.7-2.7c0.6-0.8,1.3-1.1,1.9-1.1c0.6,0,1.3,0.3,1.9,1.1
		c0.5,0.7,0.7,1.6,0.7,2.7s-0.3,2-0.7,2.7c-0.6,0.8-1.3,1.1-1.9,1.1C259.5,373.8,258.8,373.6,258.2,372.7z M258.8,367.8
		c-0.4,0.6-0.5,1.5-0.5,2.2s0.1,1.6,0.5,2.2c0.4,0.6,0.9,0.8,1.3,0.8s0.9-0.2,1.3-0.8c0.4-0.6,0.5-1.5,0.5-2.2s-0.1-1.6-0.5-2.2
		c-0.4-0.6-0.9-0.8-1.3-0.8S259.2,367.2,258.8,367.8z"/>
</g>
<g>
	<path class="st5" d="M238.1,10.4h-1.2l0.4-0.8h1.6V17h-0.8V10.4z"/>
	<path class="st5" d="M240.3,17l2.7-3.1c0.2-0.2,0.7-0.8,0.9-1.1c0.3-0.5,0.4-0.8,0.4-1.1c0-0.8-0.6-1.4-1.5-1.4
		c-0.5,0-0.9,0.2-1.2,0.6c-0.1,0.2-0.2,0.5-0.2,0.9h-0.8c0-0.7,0.3-1.2,0.5-1.5c0.3-0.4,0.8-0.7,1.7-0.7c1.3,0,2.3,0.9,2.3,2.2
		c0,0.5-0.1,0.9-0.6,1.6c-0.3,0.4-0.7,0.9-1,1.2l-1.5,1.7h3.1V17H240.3z"/>
	<path class="st5" d="M246.1,17l2.7-3.1c0.2-0.2,0.7-0.8,0.9-1.1c0.3-0.5,0.4-0.8,0.4-1.1c0-0.8-0.6-1.4-1.5-1.4
		c-0.5,0-0.9,0.2-1.2,0.6c-0.1,0.2-0.2,0.5-0.2,0.9h-0.8c0-0.7,0.3-1.2,0.5-1.5c0.3-0.4,0.8-0.7,1.7-0.7c1.3,0,2.3,0.9,2.3,2.2
		c0,0.5-0.1,0.9-0.6,1.6c-0.3,0.4-0.7,0.9-1,1.2l-1.5,1.7h3.1V17H246.1z"/>
	<path class="st5" d="M256,14.8h0.9v0.7H256V17h-0.8v-1.4h-3.8l4.6-6.3V14.8z M255.2,14.8v-3.2l-2.3,3.2H255.2z"/>
</g>
<g>
	<path class="st5" d="M352.1,193.3l-3.1-2.7c-0.2-0.2-0.8-0.7-1.1-0.9c-0.5-0.3-0.8-0.4-1.1-0.4c-0.8,0-1.4,0.6-1.4,1.5
		c0,0.5,0.2,0.9,0.6,1.2c0.2,0.1,0.5,0.2,0.9,0.2v0.8c-0.7,0-1.2-0.3-1.5-0.5c-0.4-0.3-0.7-0.8-0.7-1.7c0-1.3,0.9-2.3,2.2-2.3
		c0.5,0,0.9,0.1,1.6,0.6c0.4,0.3,0.9,0.7,1.2,1l1.7,1.5v-3.1h0.7V193.3z"/>
	<path class="st5" d="M351.1,186.7c-0.7,0.5-1.6,0.7-2.7,0.7s-2-0.3-2.7-0.7c-0.8-0.6-1.1-1.3-1.1-1.9s0.3-1.3,1.1-1.9
		c0.7-0.5,1.6-0.7,2.7-0.7s2,0.3,2.7,0.7c0.8,0.6,1.1,1.3,1.1,1.9S351.9,186.1,351.1,186.7z M346.2,186.1c0.6,0.4,1.5,0.5,2.2,0.5
		s1.6-0.1,2.2-0.5c0.6-0.4,0.8-0.9,0.8-1.3s-0.2-0.9-0.8-1.3c-0.6-0.4-1.5-0.5-2.2-0.5s-1.6,0.1-2.2,0.5c-0.6,0.4-0.8,0.9-0.8,1.3
		S345.6,185.7,346.2,186.1z"/>
	<path class="st5" d="M351.1,180.4c-0.7,0.5-1.6,0.7-2.7,0.7s-2-0.3-2.7-0.7c-0.8-0.6-1.1-1.3-1.1-1.9s0.3-1.3,1.1-1.9
		c0.7-0.5,1.6-0.7,2.7-0.7s2,0.3,2.7,0.7c0.8,0.6,1.1,1.3,1.1,1.9S351.9,179.9,351.1,180.4z M346.2,179.8c0.6,0.4,1.5,0.5,2.2,0.5
		s1.6-0.1,2.2-0.5c0.6-0.4,0.8-0.9,0.8-1.3s-0.2-0.9-0.8-1.3c-0.6-0.4-1.5-0.5-2.2-0.5s-1.6,0.1-2.2,0.5c-0.6,0.4-0.8,0.9-0.8,1.3
		S345.6,179.4,346.2,179.8z"/>
	<path class="st5" d="M351.1,174.2c-0.7,0.5-1.6,0.7-2.7,0.7s-2-0.3-2.7-0.7c-0.8-0.6-1.1-1.3-1.1-1.9s0.3-1.3,1.1-1.9
		c0.7-0.5,1.6-0.7,2.7-0.7s2,0.3,2.7,0.7c0.8,0.6,1.1,1.3,1.1,1.9S351.9,173.6,351.1,174.2z M346.2,173.6c0.6,0.4,1.5,0.5,2.2,0.5
		s1.6-0.1,2.2-0.5c0.6-0.4,0.8-0.9,0.8-1.3s-0.2-0.9-0.8-1.3c-0.6-0.4-1.5-0.5-2.2-0.5s-1.6,0.1-2.2,0.5c-0.6,0.4-0.8,0.9-0.8,1.3
		S345.6,173.2,346.2,173.6z"/>
</g>
<g>
	<path class="st5" d="M368.4,192.7l-3.1-2.7c-0.2-0.2-0.8-0.7-1.1-0.9c-0.5-0.3-0.8-0.4-1.1-0.4c-0.8,0-1.4,0.6-1.4,1.5
		c0,0.5,0.2,0.9,0.6,1.2c0.2,0.1,0.5,0.2,0.9,0.2v0.8c-0.7,0-1.2-0.3-1.5-0.5c-0.4-0.3-0.7-0.8-0.7-1.7c0-1.3,0.9-2.3,2.2-2.3
		c0.5,0,0.9,0.1,1.6,0.6c0.4,0.3,0.9,0.7,1.2,1l1.7,1.5V188h0.7V192.7z"/>
	<path class="st5" d="M367.4,186c-0.7,0.5-1.6,0.7-2.7,0.7s-2-0.3-2.7-0.7c-0.8-0.6-1.1-1.3-1.1-1.9s0.3-1.3,1.1-1.9
		c0.7-0.5,1.6-0.7,2.7-0.7s2,0.3,2.7,0.7c0.8,0.6,1.1,1.3,1.1,1.9S368.2,185.5,367.4,186z M362.5,185.4c0.6,0.4,1.5,0.5,2.2,0.5
		s1.6-0.1,2.2-0.5c0.6-0.4,0.8-0.9,0.8-1.3s-0.2-0.9-0.8-1.3c-0.6-0.4-1.5-0.5-2.2-0.5s-1.6,0.1-2.2,0.5c-0.6,0.4-0.8,0.9-0.8,1.3
		S361.9,185,362.5,185.4z"/>
	<path class="st5" d="M368.1,179.1l-2.3-1.7c0.1,0.2,0.1,0.4,0.1,0.6c0,1.4-1.1,2.4-2.4,2.4c-1.5,0-2.5-1.1-2.5-2.5
		c0-1.7,1.3-2.5,2.5-2.5c0.3,0,0.9,0.1,1.7,0.6l3.4,2.5L368.1,179.1z M363.4,179.6c1,0,1.7-0.7,1.7-1.7c0-1-0.7-1.7-1.7-1.7
		c-1,0-1.7,0.7-1.7,1.7C361.7,178.9,362.4,179.6,363.4,179.6z"/>
	<path class="st5" d="M362.9,174.3c-0.4,0-0.8-0.2-1.1-0.3c-0.8-0.5-0.9-1.3-0.9-1.7c0-1.4,1-2.1,2-2.1c0.5,0,1.3,0.2,1.6,0.9
		c0.1-0.3,0.5-1.1,1.8-1.1c1.4,0,2.2,1,2.2,2.2c0,0.8-0.3,1.6-1.3,2c-0.3,0.1-0.5,0.2-0.8,0.2v-0.8c0.3,0,0.5-0.1,0.7-0.3
		c0.4-0.2,0.5-0.7,0.5-1.1c0-0.8-0.7-1.4-1.5-1.4c-0.4,0-1,0.2-1.2,0.7c-0.1,0.2-0.2,0.5-0.2,0.8h-0.7c0-0.3,0-0.6-0.2-0.8
		s-0.4-0.6-1.1-0.6c-0.6,0-1.3,0.4-1.3,1.3c0,0.3,0.1,0.7,0.4,0.9c0.2,0.1,0.5,0.3,0.8,0.3V174.3z"/>
</g>
<g>
	<path class="st5" d="M136.7,269.7v1.2l-0.8-0.4v-1.6h7.3v0.8H136.7z"/>
	<path class="st5" d="M143.3,267.5l-3.1-2.7c-0.2-0.2-0.8-0.7-1.1-0.9c-0.5-0.3-0.8-0.4-1.1-0.4c-0.8,0-1.4,0.6-1.4,1.5
		c0,0.5,0.2,0.9,0.6,1.2c0.2,0.1,0.5,0.2,0.9,0.2v0.8c-0.7,0-1.2-0.3-1.5-0.5c-0.4-0.3-0.7-0.8-0.7-1.7c0-1.3,0.9-2.3,2.2-2.3
		c0.5,0,0.9,0.1,1.6,0.6c0.4,0.3,0.9,0.7,1.2,1l1.7,1.5v-3.1h0.7V267.5z"/>
	<path class="st5" d="M142.3,260.9c-0.7,0.5-1.6,0.7-2.7,0.7c-1,0-2-0.3-2.7-0.7c-0.8-0.6-1.1-1.3-1.1-1.9s0.3-1.3,1.1-1.9
		c0.7-0.5,1.6-0.7,2.7-0.7c1,0,2,0.3,2.7,0.7c0.8,0.6,1.1,1.3,1.1,1.9S143.1,260.3,142.3,260.9z M137.4,260.2
		c0.6,0.4,1.5,0.5,2.2,0.5s1.6-0.1,2.2-0.5c0.6-0.4,0.8-0.9,0.8-1.3s-0.2-0.9-0.8-1.3c-0.6-0.4-1.5-0.5-2.2-0.5s-1.6,0.1-2.2,0.5
		c-0.6,0.4-0.8,0.9-0.8,1.3S136.8,259.9,137.4,260.2z"/>
	<path class="st5" d="M142.3,254.6c-0.7,0.5-1.6,0.7-2.7,0.7c-1,0-2-0.3-2.7-0.7c-0.8-0.6-1.1-1.3-1.1-1.9s0.3-1.3,1.1-1.9
		c0.7-0.5,1.6-0.7,2.7-0.7c1,0,2,0.3,2.7,0.7c0.8,0.6,1.1,1.3,1.1,1.9S143.1,254.1,142.3,254.6z M137.4,254c0.6,0.4,1.5,0.5,2.2,0.5
		s1.6-0.1,2.2-0.5c0.6-0.4,0.8-0.9,0.8-1.3s-0.2-0.9-0.8-1.3c-0.6-0.4-1.5-0.5-2.2-0.5s-1.6,0.1-2.2,0.5c-0.6,0.4-0.8,0.9-0.8,1.3
		S136.8,253.6,137.4,254z"/>
</g>
<g>
	<path class="st5" d="M188.9,339.3v1.2l-0.8-0.4v-1.6h7.3v0.8H188.9z"/>
	<path class="st5" d="M188.8,332.1v2.3l1.6,0.5c0-0.1,0-0.3,0-0.5c0-1.5,1.1-2.4,2.5-2.4c1.6,0,2.6,1.2,2.6,2.7
		c0,0.6-0.2,1.1-0.6,1.6c-0.2,0.2-0.4,0.5-0.7,0.6l-0.5-0.6c0.2-0.1,0.4-0.3,0.6-0.5c0.3-0.3,0.4-0.7,0.4-1.2c0-1-0.8-1.8-1.9-1.8
		c-1.1,0-1.8,0.8-1.8,1.8c0,0.3,0,0.8,0.5,1.4l-3.5-1.1v-2.9H188.8z"/>
	<path class="st5" d="M193.4,325.7c1.1,0,2.2,0.7,2.2,2.2c0,1.5-1,2.2-2.2,2.2c-0.8,0-1.5-0.4-1.8-1.1c-0.3,0.6-0.9,0.9-1.6,0.9
		c-1,0-2-0.7-2-2c0-1.3,1-2,2-2c0.7,0,1.3,0.3,1.6,0.9C191.9,326.1,192.6,325.7,193.4,325.7z M190,326.7c-0.8,0-1.3,0.6-1.3,1.3
		c0,0.7,0.5,1.3,1.3,1.3c0.7,0,1.3-0.5,1.3-1.3C191.3,327.3,190.7,326.7,190,326.7z M193.4,326.5c-0.8,0-1.4,0.6-1.4,1.4
		c0,0.8,0.6,1.4,1.4,1.4c0.8,0,1.4-0.6,1.4-1.4S194.2,326.5,193.4,326.5z"/>
</g>
<g>
	<path class="st5" d="M207.1,404.4l2.3,1.7c-0.1-0.2-0.1-0.4-0.1-0.6c0-1.4,1.1-2.4,2.4-2.4c1.5,0,2.5,1.1,2.5,2.5
		c0,1.7-1.3,2.5-2.5,2.5c-0.3,0-0.9-0.1-1.7-0.6l-3.5-2.5L207.1,404.4z M211.8,403.9c-1,0-1.7,0.7-1.7,1.7c0,1,0.7,1.7,1.7,1.7
		c1,0,1.7-0.7,1.7-1.7C213.5,404.6,212.8,403.9,211.8,403.9z"/>
	<path class="st5" d="M213.2,401.3c-0.7,0.5-1.6,0.7-2.7,0.7c-1,0-2-0.3-2.7-0.7c-0.8-0.6-1.1-1.3-1.1-1.9c0-0.6,0.3-1.3,1.1-1.9
		c0.7-0.5,1.6-0.7,2.7-0.7c1,0,2,0.3,2.7,0.7c0.8,0.6,1.1,1.3,1.1,1.9C214.3,400,214,400.7,213.2,401.3z M208.3,400.7
		c0.6,0.4,1.5,0.5,2.2,0.5s1.6-0.1,2.2-0.5c0.6-0.4,0.8-0.9,0.8-1.3s-0.2-0.9-0.8-1.3c-0.6-0.4-1.5-0.5-2.2-0.5s-1.6,0.1-2.2,0.5
		c-0.6,0.4-0.8,0.9-0.8,1.3S207.6,400.3,208.3,400.7z"/>
</g>
<g>
	<path class="st5" d="M346.5,403.3v1.2l-0.8-0.4v-1.6h7.3v0.8H346.5z"/>
	<path class="st5" d="M353.1,401.1l-3.1-2.7c-0.2-0.2-0.8-0.7-1.1-0.9c-0.5-0.3-0.8-0.4-1.1-0.4c-0.8,0-1.4,0.6-1.4,1.5
		c0,0.5,0.2,0.9,0.6,1.2c0.2,0.1,0.5,0.2,0.9,0.2v0.8c-0.7,0-1.2-0.3-1.5-0.5c-0.4-0.3-0.7-0.8-0.7-1.7c0-1.3,0.9-2.3,2.2-2.3
		c0.5,0,0.9,0.1,1.6,0.6c0.4,0.3,0.9,0.7,1.2,1l1.7,1.5v-3.1h0.7V401.1z"/>
	<path class="st5" d="M352.1,394.4c-0.7,0.5-1.6,0.7-2.7,0.7s-2-0.3-2.7-0.7c-0.8-0.6-1.1-1.3-1.1-1.9c0-0.6,0.3-1.3,1.1-1.9
		c0.7-0.5,1.6-0.7,2.7-0.7s2,0.3,2.7,0.7c0.8,0.6,1.1,1.3,1.1,1.9C353.2,393.1,352.9,393.9,352.1,394.4z M347.2,393.8
		c0.6,0.4,1.5,0.5,2.2,0.5s1.6-0.1,2.2-0.5c0.6-0.4,0.8-0.9,0.8-1.3s-0.2-0.9-0.8-1.3c-0.6-0.4-1.5-0.5-2.2-0.5s-1.6,0.1-2.2,0.5
		c-0.6,0.4-0.8,0.9-0.8,1.3S346.6,393.4,347.2,393.8z"/>
</g>
<g>
	<path class="st5" d="M209.8,264.2h-1.2l0.4-0.8h1.6v7.3h-0.8V264.2z"/>
	<path class="st5" d="M212.5,265.3c0-0.4,0.2-0.8,0.3-1.1c0.5-0.8,1.3-0.9,1.7-0.9c1.4,0,2.1,1,2.1,2c0,0.5-0.2,1.3-0.9,1.6
		c0.3,0.1,1.1,0.5,1.1,1.8c0,1.4-1,2.2-2.2,2.2c-0.8,0-1.6-0.3-2-1.3c-0.1-0.3-0.2-0.5-0.2-0.8h0.8c0,0.3,0.1,0.5,0.3,0.7
		c0.2,0.4,0.7,0.5,1.1,0.5c0.8,0,1.4-0.7,1.4-1.5c0-0.4-0.2-1-0.7-1.2c-0.2-0.1-0.5-0.2-0.8-0.2v-0.7c0.3,0,0.6,0,0.8-0.2
		s0.6-0.4,0.6-1.1c0-0.6-0.4-1.3-1.3-1.3c-0.3,0-0.7,0.1-0.9,0.4c-0.1,0.2-0.3,0.5-0.3,0.8H212.5z"/>
	<path class="st5" d="M219,269.8c-0.5-0.7-0.7-1.6-0.7-2.7c0-1,0.3-2,0.7-2.7c0.6-0.8,1.3-1.1,1.9-1.1s1.3,0.3,1.9,1.1
		c0.5,0.7,0.7,1.6,0.7,2.7c0,1-0.3,2-0.7,2.7c-0.6,0.8-1.3,1.1-1.9,1.1S219.6,270.6,219,269.8z M219.7,264.9
		c-0.4,0.6-0.5,1.5-0.5,2.2s0.1,1.6,0.5,2.2c0.4,0.6,0.9,0.8,1.3,0.8s0.9-0.2,1.3-0.8c0.4-0.6,0.5-1.5,0.5-2.2s-0.1-1.6-0.5-2.2
		c-0.4-0.6-0.9-0.8-1.3-0.8S220,264.3,219.7,264.9z"/>
</g>
<g>
	<path class="st5" d="M205.6,538.4h-1.2l0.4-0.8h1.6v7.3h-0.8V538.4z"/>
	<path class="st5" d="M207.8,545l2.7-3.1c0.2-0.2,0.7-0.8,0.9-1.1c0.3-0.5,0.4-0.8,0.4-1.1c0-0.8-0.6-1.4-1.5-1.4
		c-0.5,0-0.9,0.2-1.2,0.6c-0.1,0.2-0.2,0.5-0.2,0.9H208c0-0.7,0.3-1.2,0.5-1.5c0.3-0.4,0.8-0.7,1.7-0.7c1.3,0,2.3,0.9,2.3,2.2
		c0,0.5-0.1,0.9-0.6,1.6c-0.3,0.4-0.7,0.9-1,1.2l-1.5,1.7h3.1v0.7H207.8z"/>
	<path class="st5" d="M214.5,544c-0.5-0.7-0.7-1.6-0.7-2.7s0.3-2,0.7-2.7c0.6-0.8,1.3-1.1,1.9-1.1s1.3,0.3,1.9,1.1
		c0.5,0.7,0.7,1.6,0.7,2.7s-0.3,2-0.7,2.7c-0.6,0.8-1.3,1.1-1.9,1.1S215,544.8,214.5,544z M215.1,539.1c-0.4,0.6-0.5,1.5-0.5,2.2
		s0.1,1.6,0.5,2.2c0.4,0.6,0.9,0.8,1.3,0.8s0.9-0.2,1.3-0.8c0.4-0.6,0.5-1.5,0.5-2.2s-0.1-1.6-0.5-2.2c-0.4-0.6-0.9-0.8-1.3-0.8
		S215.5,538.5,215.1,539.1z"/>
	<path class="st5" d="M222.2,537.6c0.9,0,1.5,0.6,1.5,1.5c0,0.9-0.6,1.5-1.5,1.5s-1.5-0.6-1.5-1.5
		C220.6,538.3,221.3,537.6,222.2,537.6z M222.2,540.2c0.4,0,1-0.3,1-1c0-0.7-0.5-1-1-1c-0.4,0-1,0.3-1,1
		C221.2,539.8,221.7,540.2,222.2,540.2z"/>
</g>
<g>
	<path class="st5" d="M257.7,580h-1.2l0.4-0.8h1.6v7.3h-0.8V580z"/>
	<path class="st5" d="M264.9,580h-2.3l-0.5,1.6c0.1,0,0.3,0,0.5,0c1.5,0,2.4,1.1,2.4,2.5c0,1.6-1.2,2.6-2.7,2.6
		c-0.6,0-1.1-0.2-1.6-0.6c-0.2-0.2-0.5-0.5-0.6-0.7l0.6-0.5c0.1,0.2,0.3,0.4,0.5,0.6c0.3,0.3,0.7,0.4,1.2,0.4c1,0,1.8-0.8,1.8-1.9
		c0-1.1-0.8-1.8-1.8-1.8c-0.3,0-0.8,0-1.4,0.5l1.1-3.5h2.9V580z"/>
	<path class="st5" d="M271.3,584.5c0,1.1-0.7,2.2-2.2,2.2c-1.5,0-2.2-1-2.2-2.2c0-0.8,0.4-1.5,1.1-1.8c-0.6-0.3-0.9-0.9-0.9-1.6
		c0-1,0.7-2,2-2c1.3,0,2,1,2,2c0,0.7-0.3,1.3-0.9,1.6C270.9,583.1,271.3,583.7,271.3,584.5z M270.4,584.5c0-0.8-0.6-1.4-1.4-1.4
		c-0.8,0-1.4,0.6-1.4,1.4c0,0.8,0.6,1.4,1.4,1.4S270.4,585.3,270.4,584.5z M270.3,581.1c0-0.8-0.6-1.3-1.3-1.3
		c-0.7,0-1.3,0.5-1.3,1.3c0,0.7,0.5,1.3,1.3,1.3C269.7,582.4,270.3,581.9,270.3,581.1z"/>
	<path class="st5" d="M273.4,585.6c-0.5-0.7-0.7-1.6-0.7-2.7s0.3-2,0.7-2.7c0.6-0.8,1.3-1.1,1.9-1.1c0.6,0,1.3,0.3,1.9,1.1
		c0.5,0.7,0.7,1.6,0.7,2.7s-0.3,2-0.7,2.7c-0.6,0.8-1.3,1.1-1.9,1.1C274.7,586.7,273.9,586.4,273.4,585.6z M274,580.7
		c-0.4,0.6-0.5,1.5-0.5,2.2s0.1,1.6,0.5,2.2c0.4,0.6,0.9,0.8,1.3,0.8s0.9-0.2,1.3-0.8c0.4-0.6,0.5-1.5,0.5-2.2s-0.1-1.6-0.5-2.2
		c-0.4-0.6-0.9-0.8-1.3-0.8S274.4,580,274,580.7z"/>
</g>
<g>
	<path class="st5" d="M138.1,424.5v1.2l-0.8-0.4v-1.6h7.3v0.8H138.1z"/>
	<path class="st5" d="M138.1,417.3v2.3l1.6,0.5c0-0.1,0-0.3,0-0.5c0-1.5,1.1-2.4,2.5-2.4c1.6,0,2.6,1.2,2.6,2.7
		c0,0.6-0.2,1.1-0.6,1.6c-0.2,0.2-0.4,0.5-0.7,0.6l-0.5-0.6c0.2-0.1,0.4-0.3,0.6-0.5c0.3-0.3,0.4-0.7,0.4-1.2c0-1-0.8-1.8-1.9-1.8
		c-1.1,0-1.8,0.8-1.8,1.8c0,0.3,0,0.8,0.5,1.4l-3.5-1.1v-2.9H138.1z"/>
	<path class="st5" d="M143.7,415.1c-0.7,0.5-1.6,0.7-2.7,0.7c-1,0-2-0.3-2.7-0.7c-0.8-0.6-1.1-1.3-1.1-1.9c0-0.6,0.3-1.3,1.1-1.9
		c0.7-0.5,1.6-0.7,2.7-0.7c1,0,2,0.3,2.7,0.7c0.8,0.6,1.1,1.3,1.1,1.9C144.8,413.8,144.5,414.5,143.7,415.1z M138.8,414.4
		c0.6,0.4,1.5,0.5,2.2,0.5s1.6-0.1,2.2-0.5c0.6-0.4,0.8-0.9,0.8-1.3s-0.2-0.9-0.8-1.3c-0.6-0.4-1.5-0.5-2.2-0.5s-1.6,0.1-2.2,0.5
		c-0.6,0.4-0.8,0.9-0.8,1.3S138.2,414.1,138.8,414.4z"/>
</g>
<g>
	<path class="st5" d="M123,445.7c-0.4,0-0.8-0.2-1.1-0.3c-0.8-0.5-0.9-1.3-0.9-1.7c0-1.4,1-2.1,2-2.1c0.5,0,1.3,0.2,1.6,0.9
		c0.1-0.3,0.5-1.1,1.8-1.1c1.4,0,2.2,1,2.2,2.2c0,0.8-0.3,1.6-1.3,2c-0.3,0.1-0.5,0.2-0.8,0.2v-0.8c0.3,0,0.5-0.1,0.7-0.3
		c0.4-0.2,0.5-0.7,0.5-1.1c0-0.8-0.7-1.4-1.5-1.4c-0.4,0-1,0.2-1.2,0.7c-0.1,0.2-0.2,0.5-0.2,0.8h-0.7c0-0.3,0-0.6-0.2-0.8
		s-0.4-0.6-1.1-0.6c-0.6,0-1.3,0.4-1.3,1.3c0,0.3,0.1,0.7,0.4,0.9c0.2,0.1,0.5,0.3,0.8,0.3V445.7z"/>
	<path class="st5" d="M126.5,435.1c1.1,0,2.2,0.7,2.2,2.2c0,1.5-1,2.2-2.2,2.2c-0.8,0-1.5-0.4-1.8-1.1c-0.3,0.6-0.9,0.9-1.6,0.9
		c-1,0-2-0.7-2-2c0-1.3,1-2,2-2c0.7,0,1.3,0.3,1.6,0.9C125,435.5,125.7,435.1,126.5,435.1z M123.1,436.1c-0.8,0-1.3,0.6-1.3,1.3
		c0,0.7,0.5,1.3,1.3,1.3c0.7,0,1.3-0.5,1.3-1.3C124.4,436.6,123.8,436.1,123.1,436.1z M126.4,435.9c-0.8,0-1.4,0.6-1.4,1.4
		c0,0.8,0.6,1.4,1.4,1.4c0.8,0,1.4-0.6,1.4-1.4S127.3,435.9,126.4,435.9z"/>
	<path class="st5" d="M127.5,433c-0.7,0.5-1.6,0.7-2.7,0.7c-1,0-2-0.3-2.7-0.7c-0.8-0.6-1.1-1.3-1.1-1.9c0-0.6,0.3-1.3,1.1-1.9
		c0.7-0.5,1.6-0.7,2.7-0.7c1,0,2,0.3,2.7,0.7c0.8,0.6,1.1,1.3,1.1,1.9C128.6,431.7,128.3,432.4,127.5,433z M122.6,432.4
		c0.6,0.4,1.5,0.5,2.2,0.5s1.6-0.1,2.2-0.5c0.6-0.4,0.8-0.9,0.8-1.3s-0.2-0.9-0.8-1.3c-0.6-0.4-1.5-0.5-2.2-0.5s-1.6,0.1-2.2,0.5
		c-0.6,0.4-0.8,0.9-0.8,1.3S122,432,122.6,432.4z"/>
</g>
<g>
	<path class="st5" d="M103.7,498v1.2l-0.8-0.4v-1.6h7.3v0.8H103.7z"/>
	<path class="st5" d="M109.3,494.2c-0.7,0.5-1.6,0.7-2.7,0.7c-1,0-2-0.3-2.7-0.7c-0.8-0.6-1.1-1.3-1.1-1.9c0-0.6,0.3-1.3,1.1-1.9
		c0.7-0.5,1.6-0.7,2.7-0.7c1,0,2,0.3,2.7,0.7c0.8,0.6,1.1,1.3,1.1,1.9C110.4,492.9,110.1,493.6,109.3,494.2z M104.4,493.5
		c0.6,0.4,1.5,0.5,2.2,0.5s1.6-0.1,2.2-0.5c0.6-0.4,0.8-0.9,0.8-1.3s-0.2-0.9-0.8-1.3c-0.6-0.4-1.5-0.5-2.2-0.5s-1.6,0.1-2.2,0.5
		c-0.6,0.4-0.8,0.9-0.8,1.3S103.8,493.2,104.4,493.5z"/>
	<path class="st5" d="M103.7,483.9v2.3l1.6,0.5c0-0.1,0-0.3,0-0.5c0-1.5,1.1-2.4,2.5-2.4c1.6,0,2.6,1.2,2.6,2.7
		c0,0.6-0.2,1.1-0.6,1.6c-0.2,0.2-0.4,0.5-0.7,0.6l-0.5-0.6c0.2-0.1,0.4-0.3,0.6-0.5c0.3-0.3,0.4-0.7,0.4-1.2c0-1-0.8-1.8-1.9-1.8
		c-1.1,0-1.8,0.8-1.8,1.8c0,0.3,0,0.8,0.5,1.4l-3.5-1.1v-2.9H103.7z"/>
	<path class="st5" d="M109.3,481.7c-0.7,0.5-1.6,0.7-2.7,0.7c-1,0-2-0.3-2.7-0.7c-0.8-0.6-1.1-1.3-1.1-1.9c0-0.6,0.3-1.3,1.1-1.9
		c0.7-0.5,1.6-0.7,2.7-0.7c1,0,2,0.3,2.7,0.7c0.8,0.6,1.1,1.3,1.1,1.9C110.4,480.4,110.1,481.1,109.3,481.7z M104.4,481.1
		c0.6,0.4,1.5,0.5,2.2,0.5s1.6-0.1,2.2-0.5c0.6-0.4,0.8-0.9,0.8-1.3s-0.2-0.9-0.8-1.3c-0.6-0.4-1.5-0.5-2.2-0.5s-1.6,0.1-2.2,0.5
		c-0.6,0.4-0.8,0.9-0.8,1.3S103.8,480.7,104.4,481.1z"/>
</g>
</svg>
