<?xml version="1.0" encoding="utf-8"?>
<!-- Generator: Adobe Illustrator 23.0.3, SVG Export Plug-In . SVG Version: 6.00 Build 0)  -->
<svg version="1.1" id="Слой_1" xmlns="http://www.w3.org/2000/svg" xmlns:xlink="http://www.w3.org/1999/xlink" x="0px" y="0px"
	 viewBox="0 0 500 600" style="enable-background:new 0 0 500 600;" xml:space="preserve">
<style type="text/css">
	.st0{fill:none;stroke:#4E86B9;stroke-width:0.7286;stroke-linecap:round;stroke-linejoin:round;stroke-miterlimit:10;}
	.st1{fill:#4E86B9;}
	.st2{fill:none;stroke:#4E86B9;stroke-width:0.999;}
	.st3{fill:none;stroke:#4E86B9;stroke-width:0.7488;stroke-linecap:round;stroke-linejoin:round;stroke-miterlimit:10;}
</style>
<path class="st0" d="M335.9,444.5l14.4-8.6 M335.9,445.6v-1.1 M349.5,445.6l0.9-1 M351.3,49.4L351.3,49.4L351.3,49.4h0.2h0.2h0.2
	h0.2h0.3h0.3h0.3h0.2h0.2h0.2 M353.8,49.4h0.1l0,0l0,0 M142.1,49.4L142.1,49.4L142.1,49.4h0.2h0.2h0.2h0.2h0.3h0.3h0.3h0.2h0.2h0.2
	 M144.6,49.4h0.1h0.1l0,0 M138.5,57.1L138.5,57.1L138.5,57.1h0.1h0.1h0.1h0.1h0.2h0.2 M138.5,57.1v388.6 M144.8,57.1h0.2h0.2h0.1
	h0.1h0.1h0.1l0,0l0,0 M145.7,57.1v388.6 M139.4,57.1h5.4 M157.5,57.1h5.4 M162.9,57.1h0.2h0.2h0.1h0.1h0.1h0.1l0,0l0,0 M163.8,72.6
	v373 M163.8,57.1v4.5 M156.5,57.1L156.5,57.1L156.5,57.1h0.1h0.1h0.1h0.1h0.2h0.2 M156.5,57.1v388.6 M356.7,57.1h0.2h0.2h0.1h0.1
	h0.1h0.1h0.1l0,0 M357.6,57.1v388.6 M351.3,57.1h5.4 M350.3,57.1L350.3,57.1L350.3,57.1h0.1h0.1h0.1h0.1h0.2h0.2 M350.3,394.9v50.7
	 M350.3,154.3v221.9 M350.3,98.9v36.8 M350.3,57.1v23.1 M357.6,50.6v-0.2v-0.1v-0.1V50v-0.1v-0.1l0,0l0,0 M138.5,49.7h219.2
	 M138.5,50.6v-0.2v-0.1v-0.1V50v-0.1v-0.1l0,0l0,0 M357.6,56.1v-5.5 M138.5,56.1v-5.5 M357.6,57.1L357.6,57.1L357.6,57.1L357.6,57.1
	v-0.3v-0.1v-0.1v-0.2v-0.2 M138.5,57.1L138.5,57.1L138.5,57.1L138.5,57.1v-0.3v-0.1v-0.1v-0.2v-0.2 M145.7,57.1h10.9 M313.2,57.1
	h37.1 M163.8,57.1h139.6 M143.4,445.6h-4.9 M143.4,447.5h-4.9 M138.5,447.5v-1.8 M163.8,445.6v1.8 M143.4,445.6h20.5 M143.4,447.5
	h20.5 M143.4,447.5v-1.8 M156.5,433.8h-10.9 M145.7,445h10.9 M156.5,205h-10.9 M145.7,225.5h10.9 M151.5,208.7h-0.4l-0.4,0.1
	l-0.3,0.1l-0.3,0.2l-0.3,0.3l-0.2,0.3l-0.2,0.3l-0.1,0.4v0.4v0.4l0.1,0.4l0.1,0.3l0.2,0.3l0.2,0.3l0.3,0.2l0.3,0.2l0.3,0.1l0.4,0.1
	h0.4l0.4-0.1l0.3-0.1l0.3-0.2l0.3-0.2l0.2-0.3l0.2-0.3l0.1-0.3l0.1-0.4V211v-0.4l-0.1-0.4l-0.2-0.3l-0.2-0.3l-0.3-0.3l-0.3-0.2
	l-0.3-0.1l-0.3-0.1H151.5z M335.9,447.5h16.8 M335.9,445.6h16.8 M335.9,445.6v1.8 M352.7,447.5h4.9 M357.6,445.6v1.8 M352.7,445.6
	h4.9 M352.7,445.6v1.8 M164.9,425.1L164.9,425.1L164.9,425.1h0.1h0.1h0.1h0.1h0.2h0.2 M164.9,59.7L164.9,59.7L164.9,59.7h0.1h0.1
	h0.1h0.1h0.2h0.2 M164.9,72.6v352.5 M164.9,59.7v1.8 M171.3,425.1h0.2h0.2h0.1h0.1h0.1h0.1h0.1l0,0 M172.2,423.3v1.8 M172.2,68.9
	v347 M172.2,59.7v1.8 M171.3,59.7h0.2h0.2h0.1h0.1h0.1h0.1h0.1l0,0 M165.9,425.1h5.4 M165.9,59.7h5.4 M342.4,59.7L342.4,59.7
	L342.4,59.7h0.1h0.1h0.1h0.1h0.2h0.2 M342.4,425.1L342.4,425.1L342.4,425.1h0.1h0.1h0.1h0.1h0.2h0.2 M342.4,423.3v1.8 M342.4,68.9
	v347 M342.4,59.7v1.8 M343.3,59.7h5.4 M343.3,425.1h5.4 M348.7,59.7h0.2h0.2h0.1h0.1h0.1h0.1l0,0l0,0 M348.7,425.1h0.2h0.2h0.1h0.1
	h0.1h0.1l0,0l0,0 M349.7,394.9v30.2 M349.7,385.5v0.2 M349.7,154.3v221.9 M349.7,145v0.2 M349.7,98.9v36.8 M349.7,89.4v0.2
	 M349.7,59.7v20.5 M342.4,68.9L342.4,68.9L342.4,68.9L342.4,68.9v-0.2v-0.1v-0.1v-0.2V68 M172.2,68.9L172.2,68.9L172.2,68.9
	L172.2,68.9v-0.2v-0.1v-0.1v-0.2V68 M326.3,68.9h16.1 M172.2,68.9h125.3 M342.4,67.9v-5.5 M172.2,67.9v-5.5 M342.4,62.4v-0.2V62
	v-0.1v-0.1v-0.1v-0.1l0,0l0,0 M326.3,61.5h16.1 M172.2,61.5h125.3 M172.2,62.4v-0.2V62v-0.1v-0.1v-0.1v-0.1l0,0l0,0 M342.4,415.9
	L342.4,415.9L342.4,415.9v0.1v0.1v0.1v0.1v0.2v0.2 M172.2,415.9L172.2,415.9L172.2,415.9v0.1v0.1v0.1v0.1v0.2v0.2 M342.4,415.9
	H172.2 M342.4,416.8v5.5 M172.2,416.8v5.5 M342.4,422.4v0.2v0.2v0.1v0.1v0.1v0.1l0,0l0,0 M172.2,422.4v0.2v0.2v0.1v0.1v0.1v0.1l0,0
	l0,0 M342.4,423.3H172.2 M317,69.1v346.8 M306.1,69.1v346.8 M233.7,68.9v347 M244.6,68.9v347 M208.4,68.9v347 M197.5,68.9v347
	 M280.8,68.9v347 M270,68.9v347 M163.1,72.6h7.3 M171.3,62.4l-0.9-1 M170.3,72.6l0.9-1 M162.2,71.7l0.9,1 M163.1,61.5l-0.9,1
	 M170.3,61.5h-7.3 M171.3,71.7v-9.2 M162.2,62.4v9.2 M348.7,59.7h0.2h0.2h0.1h0.1h0.1h0.1l0,0l0,0 M349.7,59.1v0.4 M349.7,59.1
	L349.7,59.1v-0.2v-0.1v-0.1l-0.1-0.1h-0.1h-0.1h-0.1 M348.7,58.7L348.7,58.7h0.2h0.1h0.1h0.1l0,0l0,0l0,0 M342.8,58.7L342.8,58.7
	h-0.2h-0.1l-0.1,0.1l-0.1,0.1V59v0.1v0.1 M342.8,58.7L342.8,58.7L342.8,58.7L342.8,58.7h0.1h0.1h0.1h0.1h0.1 M343.3,59.7h5.4
	 M342.4,59.1v0.4 M342.4,59.7L342.4,59.7L342.4,59.7h0.1h0.1h0.1h0.1h0.2h0.2 M343.3,58.7h5.4 M349.7,425.1L349.7,425.1L349.7,425.1
	h-0.1h-0.1h-0.1h-0.2h-0.2h-0.2 M349.7,425.5v-0.4 M349.2,426.1L349.2,426.1h0.2h0.1l0.1-0.1v-0.1v-0.1v-0.1v-0.1 M349.2,426.1
	L349.2,426.1L349.2,426.1L349.2,426.1h-0.1H349h-0.1h-0.1h-0.1 M348.7,426.1h-5.4 M348.7,425.1h-5.4 M342.4,425.5v-0.4 M343.3,425.1
	h-0.2h-0.2h-0.1h-0.1h-0.1h-0.1l0,0l0,0 M342.4,425.5L342.4,425.5v0.2v0.1l0.1,0.1l0.1,0.1h0.1h0.1h0.1 M343.3,426.1L343.3,426.1
	h-0.2h-0.1h-0.1h-0.1l0,0l0,0l0,0 M172.2,425.1L172.2,425.1L172.2,425.1h-0.1H172h-0.1h-0.1h-0.2h-0.2 M172.2,425.5v-0.4
	 M171.7,426.1L171.7,426.1h0.2h0.1l0.1-0.1l0.1-0.1v-0.1v-0.1v-0.1 M171.7,426.1L171.7,426.1L171.7,426.1L171.7,426.1h-0.1h-0.1
	h-0.1h-0.1h-0.1 M171.3,425.1h-5.4 M171.3,426.1h-5.4 M165.9,425.1h-0.2h-0.2h-0.1h-0.1h-0.1H165l0,0l0,0 M164.9,425.5v-0.4
	 M164.9,425.5L164.9,425.5v0.2v0.1l0.1,0.1l0.1,0.1h0.1h0.1h0.1 M165.9,426.1L165.9,426.1h-0.2h-0.1h-0.1h-0.1l0,0l0,0l0,0
	 M171.3,59.7h0.2h0.2h0.1h0.1h0.1h0.1h0.1l0,0 M172.2,59.1v0.4 M172.2,59.1L172.2,59.1v-0.2v-0.1l-0.1-0.1l-0.1-0.1h-0.1h-0.1h-0.1
	 M171.3,58.7L171.3,58.7h0.2h0.1h0.1h0.1l0,0l0,0l0,0 M165.3,58.7L165.3,58.7h-0.2H165l-0.1,0.1l-0.1,0.1V59v0.1v0.1 M165.3,58.7
	L165.3,58.7L165.3,58.7L165.3,58.7h0.1h0.1h0.1h0.1h0.1 M165.9,58.7h5.4 M165.9,59.7h5.4 M164.9,59.1v0.4 M164.9,59.7L164.9,59.7
	L164.9,59.7h0.1h0.1h0.1h0.1h0.2h0.2 M328.1,66.9l-0.1,0.4l-0.2,0.4l-0.4,0.2l-0.4,0.1l-0.4-0.1l-0.4-0.2l-0.2-0.4l-0.1-0.4l0.1-0.4
	l0.2-0.4l0.4-0.2l0.4-0.1l0.4,0.1l0.4,0.2l0.2,0.4L328.1,66.9z M328.1,63.5l-0.1,0.4l-0.2,0.4l-0.4,0.2l-0.4,0.1l-0.4-0.1l-0.4-0.2
	l-0.2-0.4l-0.1-0.4l0.1-0.4l0.2-0.4l0.4-0.2l0.4-0.1l0.4,0.1l0.4,0.2L328,63L328.1,63.5z M328.2,67.8v-5.2 M328.2,62.6l-2.2-1.3
	 M326,69l2.2-1.3 M295.6,63.5l0.1-0.4l0.2-0.4l0.4-0.2l0.4-0.1l0.4,0.1l0.4,0.2l0.2,0.4l0.1,0.4l-0.1,0.4l-0.2,0.4l-0.4,0.2
	l-0.4,0.1l-0.4-0.1l-0.4-0.2l-0.2-0.4L295.6,63.5z M295.6,66.9l0.1-0.4l0.2-0.4l0.4-0.2l0.4-0.1l0.4,0.1l0.4,0.2l0.2,0.4l0.1,0.4
	l-0.1,0.4l-0.2,0.4l-0.4,0.2l-0.4,0.1l-0.4-0.1l-0.4-0.2l-0.2-0.4L295.6,66.9z M295.6,62.6v5.2 M295.6,67.8l2.2,1.3 M297.7,61.3
	l-2.2,1.3 M311,71.1h1.7 M312.8,70.1v1 M311,70.1v1 M309,60.3L309,60.3h0.1h0.1h0.2h0.2h0.3h0.3h0.4h0.4h0.4h0.4h0.4h0.4h0.4h0.3
	h0.3h0.2h0.2h0.1h0.1l0,0 M309,70.1L309,70.1h0.1h0.1h0.2h0.2h0.3h0.3h0.4h0.4h0.4h0.4h0.4h0.4h0.4h0.3h0.3h0.2h0.2h0.1h0.1l0,0
	 M325.5,68.9L325.5,68.9 M298.3,68.9L298.3,68.9 M309,69.1h-11.2 M326,69.1h-11.2 M326,69.1L326,69.1 M326,69h-0.5 M298.3,69h-0.5
	 M297.7,69L297.7,69 M314.8,69L314.8,69L314.8,69h-0.2h-0.2h-0.2h-0.3h-0.3h-0.3h-0.4h-0.4h-0.4h-0.4H311h-0.4h-0.3h-0.3h-0.3h-0.2
	h-0.2h-0.1H309l0,0 M325.5,61.3L325.5,61.3 M298.3,61.3L298.3,61.3 M325.5,61.3h0.5 M326,61.3L326,61.3 M309,61.3h-11.2 M326,61.3
	h-11.2 M297.8,61.3L297.8,61.3 M297.7,61.3h0.5 M309,61.4L309,61.4L309,61.4h0.2h0.2h0.2h0.3h0.3h0.3h0.4h0.4h0.4 M311.9,61.4h0.4
	h0.4h0.4h0.3h0.3h0.3h0.2h0.2h0.1h0.1l0,0 M325.5,63.6v3.1 M298.3,63.6v3.1 M298.3,66.7v2.2 M325.5,68.9h-27.1 M325.5,66.7v2.2
	 M325.5,66.7h-27.1 M298.3,61.5v2.2 M325.5,63.6h-27.1 M325.5,61.5v2.2 M325.5,61.5h-27.1 M307.8,55.4h2.5 M299.1,52.6v2.8
	 M299.1,55.4h2.5 M310.3,55.4v-2.8 M299.1,52.1L299.1,52.1L299.1,52.1L299.1,52.1v0.2v0.1l0,0v0.1v0.1 M310.3,52.6L310.3,52.6v-0.2
	v-0.1v-0.1v-0.1l0,0l0,0l0,0 M299.1,52.1h11.2 M310.3,51.5v0.5 M299.1,51.5h11.2 M299.1,51.5v0.5 M301.6,55.5L301.6,55.5h0.1h0.1
	h0.2h0.2h0.2 M306.7,55.5h0.2h0.3h0.2h0.1h0.1l0,0 M301.6,54.5L301.6,54.5L301.6,54.5h0.1h0.2h0.2h0.3h0.3h0.2 M306.3,54.5h0.2h0.3
	h0.3h0.2h0.2h0.1l0,0l0,0 M303,53.1L303,53.1L303,53.1h0.2h0.2h0.2h0.3h0.3h0.3 M304.6,53.1h0.3h0.3h0.3h0.2h0.2h0.1h0.1l0,0
	 M309.6,58.9v0.3v0.2v0.2v0.2V60v0.1v0.1l0,0 M309.5,58v0.9 M309.4,57.3L309.4,57.3L309.4,57.3l0.1,0.1v0.1v0.1v0.1v0.1v0.1
	 M303,56.4l0.7,1 M307.2,57.3h-3.6 M306.1,56.4h0.4 M306.7,55.4h-0.5 M314.2,59.3v0.9 M314.2,59.3h-0.7 M313.5,59.3L313.5,59.3
	L313.5,59.3l-0.1-0.1v-0.1V59v-0.1v-0.1v-0.1 M313.3,58.7v-0.9 M313.3,57.8v-0.3v-0.2v-0.2v-0.2v-0.2v-0.1v-0.1h-0.1 M313,56.4h-5.8
	 M307.2,56.4l-0.7-1 M306.6,56.4l0.7,1 M307.2,57.3h5.8 M313,57.3L313,57.3L313,57.3l0.1,0.1v0.1v0.1v0.1v0.1v0.1 M313.1,58v0.9
	 M313.2,58.9v0.3v0.2v0.2v0.2V60v0.1v0.1l0,0 M306.1,55.4h-0.4h-0.4h-0.4h-0.4H304h-0.4h-0.4h-0.4 M302.6,56.4v-1 M306.1,56.4h-0.4
	h-0.4h-0.4h-0.4H304h-0.4h-0.4h-0.4 M306.1,56.4v-1 M309.4,54L309.4,54L309.4,54L309.4,54L309.4,54L309.4,54L309.4,54L309.4,54
	L309.4,54 M308,53.9L308,53.9L308,53.9L308,53.9L308,53.9L308,53.9L308,53.9L308,53.9L308,53.9 M308.2,54.1l1.1-0.1 M308.2,53.9
	l1.1-0.1 M309.4,53.8L309.4,53.8L309.4,53.8L309.4,53.8h-0.1l0,0 M308,53.9l0.1-0.2l0.1-0.2l0.2-0.1l0.2-0.1h0.2l0.2,0.1l0.2,0.1
	l0.1,0.2l0.1,0.2 M308.2,53.9L308.2,53.9h-0.1l0,0l0,0l0,0 M308,54.1L308,54.1L308,54.1L308,54.1h0.1l0,0 M309.4,54v0.2l-0.1,0.2
	l-0.2,0.1l-0.2,0.1h-0.2l-0.2-0.1l-0.2-0.1l-0.1-0.2L308,54 M309.3,54L309.3,54h0.1l0,0l0,0l0,0 M301.3,54L301.3,54L301.3,54
	L301.3,54L301.3,54L301.3,54L301.3,54L301.3,54L301.3,54 M299.8,53.9L299.8,53.9L299.8,53.9L299.8,53.9L299.8,53.9L299.8,53.9
	L299.8,53.9L299.8,53.9L299.8,53.9 M300.1,54.1l1.1-0.1 M300.1,53.9l1.1-0.1 M301.1,54L301.1,54h0.1l0,0l0,0l0,0 M299.8,54.1
	L299.8,54.1L299.8,54.1L299.8,54.1h0.1l0,0 M301.3,54l-0.1,0.2l-0.1,0.2l-0.2,0.1l-0.2,0.1h-0.2l-0.2-0.1l-0.2-0.1l-0.1-0.2
	l-0.1-0.2 M300.1,53.9L300.1,53.9H300l0,0l0,0l0,0 M301.3,53.8L301.3,53.8L301.3,53.8L301.3,53.8h-0.1l0,0 M299.8,53.9v-0.2l0.1-0.2
	l0.2-0.1l0.2-0.1h0.2l0.2,0.1l0.2,0.1l0.1,0.2l0.1,0.2 M327,62.8l-0.1,0.4v0.1 M326.2,63.3l0.4,0.1h0.1 M327.4,63.7l-0.4-0.1h-0.1
	 M326.7,64l0.1-0.4v-0.1 M327,63.4L327,63.4h0.1l0.4,0.1 M326.8,63.4L326.8,63.4L326.8,63.4l0.1-0.5 M326.8,63.5L326.8,63.5h-0.1
	l-0.4-0.1 M326.9,63.6L326.9,63.6L326.9,63.6l-0.1,0.5 M326.2,63.4v-0.2 M326.9,62.8h0.2 M327.4,63.5v0.2 M326.8,64.1h-0.2
	 M327,62.5h-0.2h-0.2l-0.2,0.1l-0.2,0.2L326,63l-0.1,0.2v0.2v0.2l0.1,0.2l0.1,0.2l0.2,0.1l0.2,0.1h0.2h0.2l0.2-0.1l0.2-0.2l0.1-0.2
	l0.1-0.2v-0.2v-0.2l-0.1-0.2l-0.1-0.2l-0.2-0.1L327,62.5z M326.2,66.7l0.4,0.1h0.1 M327.4,67.2l-0.4-0.1h-0.1 M327,66.3l-0.1,0.4
	v0.1 M326.7,67.6l0.1-0.4v-0.1 M326.8,66.8L326.8,66.8L326.8,66.8l0.1-0.5 M326.9,67.1L326.9,67.1L326.9,67.1l-0.1,0.5 M326.8,67.1
	L326.8,67.1h-0.1l-0.4-0.1 M327,66.8L327,66.8h0.1l0.4,0.1 M326.2,66.9v-0.2 M326.9,66.3h0.2 M327.4,66.9v0.2 M326.8,67.6h-0.2
	 M327,66h-0.2h-0.2l-0.2,0.1l-0.2,0.2l-0.1,0.2l-0.1,0.2v0.2v0.2l0.1,0.2l0.1,0.2l0.2,0.1l0.2,0.1h0.2h0.2l0.2-0.1l0.2-0.2l0.1-0.2
	l0.1-0.2v-0.2v-0.2l-0.1-0.2l-0.1-0.2l-0.2-0.1L327,66z M297.6,63.7l-0.4-0.1H297 M297.1,62.8l-0.1,0.4v0.1 M296.7,64l0.1-0.4v-0.1
	 M296.4,63.3l0.4,0.1h0.1 M296.8,63.5L296.8,63.5h-0.1l-0.4-0.1 M297,63.4L297,63.4h0.1l0.4,0.1 M297,63.6L297,63.6L297,63.6
	l-0.1,0.5 M296.9,63.4L296.9,63.4L296.9,63.4l0.1-0.5 M296.3,63.4v-0.2 M297,62.8h0.2 M297.6,63.5v0.2 M296.9,64.1h-0.2 M297.1,62.5
	h-0.2h-0.2l-0.2,0.1l-0.2,0.2l-0.1,0.2l-0.1,0.2v0.2v0.2l0.1,0.2l0.1,0.2l0.2,0.1l0.2,0.1h0.2h0.2l0.2-0.1l0.2-0.2l0.1-0.2l0.1-0.2
	v-0.2v-0.2l-0.1-0.2l-0.1-0.2l-0.2-0.1L297.1,62.5z M296.7,67.6l0.1-0.4v-0.1 M297.1,66.3l-0.1,0.4v0.1 M296.4,66.7l0.4,0.1h0.1
	 M297.6,67.2l-0.4-0.1H297 M297,67.1L297,67.1L297,67.1l-0.1,0.5 M296.8,67.1L296.8,67.1h-0.1l-0.4-0.1 M296.9,66.8L296.9,66.8
	L296.9,66.8l0.1-0.5 M297,66.8L297,66.8h0.1l0.4,0.1 M296.3,66.9v-0.2 M297,66.3h0.2 M297.6,66.9v0.2 M296.9,67.6h-0.2 M297.1,66
	h-0.2h-0.2l-0.2,0.1l-0.2,0.2l-0.1,0.2l-0.1,0.2v0.2v0.2l0.1,0.2l0.1,0.2l0.2,0.1l0.2,0.1h0.2h0.2l0.2-0.1l0.2-0.2l0.1-0.2l0.1-0.2
	v-0.2v-0.2l-0.1-0.2l-0.1-0.2l-0.2-0.1L297.1,66z M349.7,154.3L349.7,154.3h0.1h0.1h0.2h0.2h0.2h0.3h0.3h0.2h0.2h0.2h0.1h0.1l0,0
	 M349.7,145.1L349.7,145.1h0.1h0.1h0.2h0.2h0.2h0.3h0.3h0.2h0.2h0.2h0.1h0.1l0,0 M349.7,145.1v9.2 M349.7,98.9L349.7,98.9h0.1h0.1
	h0.2h0.2h0.2h0.3h0.3h0.2h0.2h0.2h0.1h0.1l0,0 M349.7,89.6L349.7,89.6h0.1h0.1h0.2h0.2h0.2h0.3h0.3h0.2h0.2h0.2h0.1h0.1l0,0
	 M349.7,89.6v9.2 M349.7,394.9L349.7,394.9h0.1h0.1h0.2h0.2h0.2h0.3h0.3h0.2h0.2h0.2h0.1h0.1l0,0 M349.7,385.7L349.7,385.7h0.1h0.1
	h0.2h0.2h0.2h0.3h0.3h0.2h0.2h0.2h0.1h0.1l0,0 M349.7,385.7v9.2 M349.7,145L349.7,145h0.1h0.1h0.2h0.2h0.2h0.3h0.3h0.2h0.2h0.2h0.1
	h0.1l0,0 M349.7,135.7L349.7,135.7h0.1h0.1h0.2h0.2h0.2h0.3h0.3h0.2h0.2h0.2h0.1h0.1l0,0 M349.7,135.7v9.2 M349.7,80.2L349.7,80.2
	h0.1h0.1h0.2h0.2h0.2h0.3h0.3h0.2h0.2h0.2h0.1h0.1l0,0 M349.7,89.4L349.7,89.4h0.1h0.1h0.2h0.2h0.2h0.3h0.3h0.2h0.2h0.2h0.1h0.1l0,0
	 M349.7,80.2v9.2 M349.7,376.3L349.7,376.3h0.1h0.1h0.2h0.2h0.2h0.3h0.3h0.2h0.2h0.2h0.1h0.1l0,0 M349.7,385.5L349.7,385.5h0.1h0.1
	h0.2h0.2h0.2h0.3h0.3h0.2h0.2h0.2h0.1h0.1l0,0 M349.7,376.3v9.2 M138.5,205.9l-0.1,0.1l-0.7,0.5l-0.5,0.7l-0.4,0.8l-0.3,0.9
	l-0.2,0.9L136,211l-0.1,1.4v1.4v1.5 M151.1,208.8h0.9 M163.8,225.5h0.3 M164.1,225.5V205 M164.1,205h-0.3 M135.8,215.3v1.5v1.4
	l0.1,1.4l0.2,1.3l0.3,1.2l0.4,0.9l0.5,0.8l0.8,0.7l0.3,0.2 M138.5,225.5h-1.4 M164.9,225.5h-0.8 M164.9,206h-0.8 M164.1,224.5h0.8
	 M164.1,205h0.8 M137,205h1.4 M137,225.5L137,225.5h-0.3h-0.4h-0.5h-0.3H135h-0.3h-0.2l0,0 M137,225.5L137,225.5L137,225.5
	 M137,223.3v2.2 M137,205v2.2 M137,205L137,205h-0.3h-0.4h-0.5h-0.3H135h-0.3h-0.2l0,0 M137,205L137,205L137,205 M134.5,225.5V205
	 M152.1,209.6h-1.3 M152.1,212.6v-3 M150.9,212.6h1.3 M150.9,209.6v3 M149.3,211.1v0.4l0.1,0.3l0.1,0.3l0.2,0.3l0.2,0.3l0.3,0.2
	l0.3,0.2l0.3,0.1h0.4h0.4l0.3-0.1l0.3-0.1l0.3-0.2l0.3-0.2l0.2-0.3l0.2-0.3l0.1-0.3l0.1-0.4v-0.4l-0.1-0.4l-0.1-0.3l-0.2-0.3
	l-0.2-0.3l-0.3-0.2l-0.3-0.2l-0.3-0.1l-0.3-0.1h-0.4h-0.4l-0.3,0.1l-0.3,0.2l-0.3,0.2l-0.2,0.3l-0.2,0.3l-0.1,0.3l-0.1,0.3V211.1z
	 M353.9,49.7v-0.3 M351.3,49.4v0.3 M144.8,49.7v-0.3 M142.1,49.4v0.3 M309,60.3v1.1 M314.8,61.4v-1.1 M309,69v1.1 M314.8,70.1V69
	 M301.6,54.5v1.1 M307.8,55.5v-1.1 M303,53.1v2.4 M306.3,55.4v-2.4 M349.8,145v0.2 M352.1,145.1v-0.2 M352.2,154.3v-9.2 M349.8,89.4
	v0.2 M352.1,89.6v-0.2 M352.2,98.9v-9.2 M349.8,385.5v0.2 M352.1,385.7v-0.2 M352.2,394.9v-9.2 M352.2,145v-9.2 M352.2,89.4v-9.2
	 M352.2,385.5v-9.2 M137,223.2v2.3 M137,205v2.2 M143.8,479.7H351 M357.6,447.5v34.1 M138.4,447.5v34.1 M170.4,464.2h160.2
	 M335.9,446.7V466 M163.8,447.5V466 M141.1,38.5h210.7 M357.6,55.2V36.7 M134.5,205V36.7 M212.9,387.3h16.2 M92,442.3V231.8
	 M145.7,225.5H90.2 M136.7,447.5H90.2 M195.5,442.5v-13.4 M162.9,447.5h34.4 M400.3,55.3v384.9 M359.5,447.5h42.7 M357.4,49.7h44.7
	 M376.4,63.7v378.1 M356.8,447.5h21.5 M357.4,57.1h20.8"/>
<polygon class="st1" points="138.3,479.8 150,481.7 147.3,479.7 149.9,477.8 "/>
<polygon class="st1" points="357.7,479.5 346.1,481.7 348.6,479.6 346,477.7 "/>
<polygon class="st1" points="164.1,464.2 175.8,466.5 173.3,464.4 175.9,462.5 "/>
<polygon class="st1" points="335.7,464.3 324.1,466.4 326.6,464.4 323.9,462.4 "/>
<polygon class="st1" points="208.1,387.3 219.7,389.4 217.1,387.3 219.7,385.4 "/>
<polygon class="st1" points="233.8,387.1 222.2,389.5 224.7,387.4 222.1,385.5 "/>
<polygon class="st1" points="195.5,447.6 197.4,436.2 195.4,438.7 193.5,436.2 "/>
<polygon class="st1" points="195.7,423.3 197.3,434.6 195.4,432 193.5,434.3 "/>
<polygon class="st1" points="91.9,447.6 93.8,436.2 91.8,438.7 89.9,436.2 "/>
<polygon class="st1" points="92.2,225.8 93.8,237.1 91.8,234.5 89.9,236.9 "/>
<polygon class="st1" points="134.4,38.2 146,40.5 143.5,38.4 146.1,36.4 "/>
<polygon class="st1" points="357.7,38.3 346,40.3 348.6,38.3 346,36.3 "/>
<polygon class="st1" points="376.4,447.2 378.2,435.9 376.3,438.4 374.3,435.9 "/>
<polygon class="st1" points="376.6,57.2 378.2,68.5 376.4,65.9 374.3,68.2 "/>
<polygon class="st1" points="400.3,447.2 402.1,435.9 400.3,438.4 398.3,435.9 "/>
<polygon class="st1" points="400.6,49.6 402.1,60.9 400.3,58.3 398.2,60.7 "/>
<rect x="139.1" y="507.2" class="st2" width="218.5" height="11.2"/>
<g>
	<path class="st1" d="M145.5,510.7c0,1-0.9,1.8-1.8,1.8c-1,0-1.8-0.9-1.8-1.8s0.9-1.8,1.8-1.8C144.7,508.8,145.5,509.7,145.5,510.7"
		/>
	<path class="st1" d="M145.5,515.3c0,1-0.9,1.8-1.8,1.8c-1,0-1.8-0.9-1.8-1.8c0-1,0.9-1.8,1.8-1.8
		C144.7,513.5,145.5,514.4,145.5,515.3"/>
	<path class="st1" d="M354.5,510.7c0,1-0.9,1.8-1.8,1.8c-1,0-1.8-0.9-1.8-1.8s0.9-1.8,1.8-1.8C353.7,508.8,354.5,509.7,354.5,510.7"
		/>
	<path class="st1" d="M354.5,515.3c0,1-0.9,1.8-1.8,1.8c-1,0-1.8-0.9-1.8-1.8c0-1,0.9-1.8,1.8-1.8
		C353.7,513.5,354.5,514.4,354.5,515.3"/>
	<path class="st2" d="M336.1,518.5v5.8h16.3l5.2-5.8 M344.8,518.5c0.1,0.2,0.1,0.4,0.1,0.7c0,1-0.8,1.7-1.7,1.7s-1.7-0.8-1.7-1.7
		c0-0.2,0-0.4,0.1-0.7H344.8z M336.1,507.2v-5.8h16.3l5.2,5.8 M344.8,507.2c0.1-0.2,0.1-0.4,0.1-0.7c0-1-0.8-1.7-1.7-1.7
		s-1.7,0.8-1.7,1.7c0,0.2,0,0.4,0.1,0.7H344.8z M139.1,518.5l5.1,5.6h19.8v-3.9h8v-1.7 M172,507.2V502l-4.2-5.5h-32.2v2.4l2.4,2.4
		v4.8h-2.1v1.2h3.3 M153.6,520.2c0,1-0.8,1.7-1.7,1.7c-1,0-1.7-0.8-1.7-1.7s0.8-1.7,1.7-1.7C152.7,518.5,153.6,519.2,153.6,520.2z"
		/>
	<path class="st1" d="M353,520.3c0,1-0.9,1.8-1.8,1.8c-1,0-1.8-0.9-1.8-1.8s0.9-1.8,1.8-1.8C352.3,518.5,353,519.2,353,520.3"/>
	<path class="st2" d="M306.4,527.5c0.1-0.2,0.1-0.4,0.1-0.7c0-1-0.8-1.7-1.7-1.7s-1.7,0.8-1.7,1.7c0,0.2,0,0.4,0.1,0.7H306.4z
		 M311.8,519.5c-0.4,0-0.9,0.1-1.3,0.2v1.1H309c-0.5,0.7-0.9,1.4-0.9,2.3c0,1.3,0.7,2.5,1.7,3.1l0.7-3.1l3.8,1.1l-0.4,2
		c1-0.7,1.5-1.7,1.5-3C315.5,521.1,313.9,519.5,311.8,519.5z M307.8,527.7c0.1-0.4,0.2-0.8,0.2-1.2c0-1.8-1.5-3.4-3.4-3.4
		c-1.8,0-3.4,1.5-3.4,3.4c0,0.4,0.1,0.9,0.2,1.2H307.8z M303.1,561.3h3 M310.5,523l3.8,1.1l-8.1,41.3v-21L310.5,523z M306.3,565.5
		h-3v-37.7h3V565.5z M309.6,527.7h-10.9 M325.1,527.7h-11.5 M306.3,531h2.5 M328.6,518.8v1.8h-3.5V531h-12.6 M298.3,520.9V531h4.8
		 M295.7,518.5v2.4h14.8v-2.4"/>
	<path class="st0" d="M352.6,524.7h28.7 M357.6,518.5h9.6 M357.6,507.8h9.6 M353,502.2h29 M365.9,520.9v24.8 M365.9,507.8v10.6
		 M380.4,524.7v27.3 M380.4,504.8v17.3 M401,499v63.3 M144.2,496.4h259.7"/>
	<line class="st3" x1="306.3" y1="565.5" x2="402.1" y2="565.5"/>
</g>
<polygon class="st1" points="400.8,496.4 403,507.9 401,505.5 399.1,508.1 "/>
<polygon class="st1" points="400.8,565.5 403,553.9 401,556.5 399.1,553.8 "/>
<polygon class="st1" points="380.2,502.2 382.4,513.8 380.3,511.2 378.3,513.9 "/>
<polygon class="st1" points="380.2,525.3 382.4,513.7 380.3,516.3 378.3,513.7 "/>
<polygon class="st1" points="365.6,518.8 367.8,530.4 365.9,527.8 363.9,530.4 "/>
<polygon class="st1" points="365.6,508.1 367.8,496.4 365.9,499 363.9,496.4 "/>
<line class="st0" x1="365.9" y1="492.2" x2="365.9" y2="502.8"/>
<g>
	<path class="st1" d="M242.4,458.8l2.3-3.2c-0.3,0.1-0.6,0.1-0.9,0.1c-1.9,0-3.3-1.5-3.3-3.3c0-2,1.5-3.5,3.5-3.5
		c2.4,0,3.5,1.8,3.5,3.4c0,0.4-0.1,1.3-0.8,2.3l-3.4,4.8L242.4,458.8z M241.6,452.4c0,1.3,1,2.3,2.4,2.3s2.3-1,2.3-2.3
		c0-1.3-1-2.4-2.4-2.4C242.6,450,241.6,451,241.6,452.4z"/>
	<path class="st1" d="M255,450.1h-3.2l-0.7,2.2c0.2,0,0.4-0.1,0.6-0.1c2,0,3.3,1.5,3.3,3.5c0,2.3-1.7,3.6-3.7,3.6
		c-0.8,0-1.6-0.2-2.3-0.8c-0.3-0.3-0.6-0.6-0.9-1l0.9-0.6c0.2,0.3,0.4,0.6,0.7,0.8c0.4,0.3,0.9,0.6,1.6,0.6c1.4,0,2.5-1.2,2.5-2.6
		c0-1.5-1-2.5-2.5-2.5c-0.4,0-1,0.1-2,0.7l1.5-4.9h4V450.1z"/>
	<path class="st1" d="M258,457.9c-0.7-1-1-2.3-1-3.7s0.3-2.7,1-3.7c0.8-1.1,1.8-1.5,2.6-1.5c0.8,0,1.8,0.4,2.6,1.5
		c0.7,1,1,2.3,1,3.7s-0.3,2.7-1,3.7c-0.8,1.1-1.8,1.5-2.6,1.5C259.8,459.4,258.8,459,258,457.9z M258.9,451.1
		c-0.5,0.9-0.7,2-0.7,3.1s0.2,2.2,0.7,3.1c0.5,0.8,1.2,1.1,1.7,1.1c0.5,0,1.2-0.3,1.7-1.1c0.5-0.9,0.7-2,0.7-3.1s-0.2-2.2-0.7-3.1
		c-0.5-0.8-1.2-1.1-1.7-1.1C260.1,450,259.4,450.3,258.9,451.1z"/>
</g>
<g>
	<path class="st1" d="M243.1,467.9h-1.7l0.6-1.1h2.2V477h-1.1V467.9z"/>
	<path class="st1" d="M246.1,477l3.7-4.3c0.3-0.3,0.9-1.1,1.2-1.5c0.5-0.7,0.6-1.1,0.6-1.5c0-1.1-0.8-2-2-2c-0.7,0-1.3,0.3-1.7,0.9
		c-0.2,0.3-0.3,0.7-0.3,1.2h-1.1c0-1,0.4-1.6,0.8-2.1c0.4-0.5,1.1-1,2.4-1c1.8,0,3.1,1.3,3.1,3c0,0.7-0.2,1.3-0.8,2.2
		c-0.4,0.6-1,1.2-1.4,1.7l-2.1,2.4h4.3v1H246.1z"/>
	<path class="st1" d="M255.7,467.9H254l0.6-1.1h2.2V477h-1.1V467.9z"/>
	<path class="st1" d="M261.1,475.7c-0.7-1-1-2.3-1-3.7s0.3-2.7,1-3.7c0.8-1.1,1.8-1.5,2.6-1.5c0.8,0,1.8,0.4,2.6,1.5
		c0.7,1,1,2.3,1,3.7s-0.3,2.7-1,3.7c-0.8,1.1-1.8,1.5-2.6,1.5C262.9,477.2,261.9,476.8,261.1,475.7z M261.9,468.9
		c-0.5,0.9-0.7,2-0.7,3.1s0.2,2.2,0.7,3.1c0.5,0.8,1.2,1.1,1.7,1.1c0.5,0,1.2-0.3,1.7-1.1c0.5-0.9,0.7-2,0.7-3.1s-0.2-2.2-0.7-3.1
		c-0.5-0.8-1.2-1.1-1.7-1.1C263.2,467.7,262.5,468,261.9,468.9z"/>
</g>
<g>
	<path class="st1" d="M234.6,24.5h-1.7l0.6-1.1h2.2v10.1h-1.1V24.5z"/>
	<path class="st1" d="M237.7,33.5l3.7-4.3c0.3-0.3,0.9-1.1,1.2-1.5c0.5-0.7,0.6-1.1,0.6-1.5c0-1.1-0.8-2-2-2c-0.7,0-1.3,0.3-1.7,0.9
		c-0.2,0.3-0.3,0.7-0.3,1.2H238c0-1,0.4-1.6,0.8-2.1c0.4-0.5,1.1-1,2.4-1c1.8,0,3.1,1.3,3.1,3c0,0.7-0.2,1.3-0.8,2.2
		c-0.4,0.6-1,1.2-1.4,1.7l-2.1,2.4h4.3v1H237.7z"/>
	<path class="st1" d="M246.3,25.9c0-0.6,0.2-1.1,0.5-1.5c0.7-1,1.7-1.2,2.3-1.2c1.9,0,2.8,1.3,2.8,2.7c0,0.7-0.3,1.7-1.3,2.2
		c0.3,0.1,1.5,0.7,1.5,2.4c0,1.9-1.4,3-3.1,3c-1,0-2.3-0.4-2.8-1.7c-0.2-0.4-0.2-0.7-0.2-1.1h1.1c0,0.4,0.2,0.7,0.4,1
		c0.3,0.5,0.9,0.8,1.6,0.8c1.1,0,2-0.9,2-2c0-0.6-0.2-1.3-1-1.7c-0.3-0.2-0.8-0.2-1.2-0.2v-1c0.4,0,0.8,0,1.2-0.2
		c0.3-0.2,0.8-0.6,0.8-1.5c0-0.9-0.5-1.7-1.7-1.7c-0.4,0-0.9,0.1-1.3,0.6c-0.2,0.3-0.4,0.6-0.4,1.1H246.3z"/>
	<path class="st1" d="M253.6,33.5l3.7-4.3c0.3-0.3,0.9-1.1,1.2-1.5c0.5-0.7,0.6-1.1,0.6-1.5c0-1.1-0.8-2-2-2c-0.7,0-1.3,0.3-1.7,0.9
		c-0.2,0.3-0.3,0.7-0.3,1.2h-1.1c0-1,0.4-1.6,0.8-2.1c0.4-0.5,1.1-1,2.4-1c1.8,0,3.1,1.3,3.1,3c0,0.7-0.2,1.3-0.8,2.2
		c-0.4,0.6-1,1.2-1.4,1.7l-2.1,2.4h4.3v1H253.6z"/>
</g>
<g>
	<path class="st1" d="M373,261.4l-4.3-3.7c-0.3-0.3-1.1-0.9-1.5-1.2c-0.7-0.5-1.1-0.6-1.5-0.6c-1.1,0-2,0.8-2,2
		c0,0.7,0.3,1.3,0.9,1.7c0.3,0.2,0.7,0.3,1.2,0.3v1.1c-1,0-1.6-0.4-2.1-0.8c-0.5-0.4-1-1.1-1-2.4c0-1.8,1.3-3.1,3-3.1
		c0.7,0,1.3,0.2,2.2,0.8c0.6,0.4,1.2,1,1.7,1.4l2.4,2.1v-4.3h1V261.4z"/>
	<path class="st1" d="M364,251.8v1.7l-1.1-0.6v-2.2H373v1.1H364z"/>
	<path class="st1" d="M371.7,246.5c-1,0.7-2.3,1-3.7,1s-2.7-0.3-3.7-1c-1.1-0.8-1.5-1.8-1.5-2.6s0.4-1.8,1.5-2.6c1-0.7,2.3-1,3.7-1
		s2.7,0.3,3.7,1c1.1,0.8,1.5,1.8,1.5,2.6S372.8,245.7,371.7,246.5z M364.9,245.6c0.9,0.5,2,0.7,3.1,0.7s2.2-0.2,3.1-0.7
		c0.8-0.5,1.1-1.2,1.1-1.7s-0.3-1.2-1.1-1.7c-0.9-0.5-2-0.7-3.1-0.7s-2.2,0.2-3.1,0.7c-0.8,0.5-1.1,1.2-1.1,1.7
		S364.1,245.1,364.9,245.6z"/>
	<path class="st1" d="M371.7,237.8c-1,0.7-2.3,1-3.7,1s-2.7-0.3-3.7-1c-1.1-0.8-1.5-1.8-1.5-2.6s0.4-1.8,1.5-2.6c1-0.7,2.3-1,3.7-1
		s2.7,0.3,3.7,1c1.1,0.8,1.5,1.8,1.5,2.6S372.8,237.1,371.7,237.8z M364.9,237c0.9,0.5,2,0.7,3.1,0.7s2.2-0.2,3.1-0.7
		c0.8-0.5,1.1-1.2,1.1-1.7s-0.3-1.2-1.1-1.7c-0.9-0.5-2-0.7-3.1-0.7s-2.2,0.2-3.1,0.7c-0.8,0.5-1.1,1.2-1.1,1.7
		S364.1,236.5,364.9,237z"/>
</g>
<g>
	<path class="st1" d="M398,261.6l-4.3-3.7c-0.3-0.3-1.1-0.9-1.5-1.2c-0.7-0.5-1.1-0.6-1.5-0.6c-1.1,0-2,0.8-2,2
		c0,0.7,0.3,1.3,0.9,1.7c0.3,0.2,0.7,0.3,1.2,0.3v1.1c-1,0-1.6-0.4-2.1-0.8c-0.5-0.4-1-1.1-1-2.4c0-1.8,1.3-3.1,3-3.1
		c0.7,0,1.3,0.2,2.2,0.8c0.6,0.4,1.2,1,1.7,1.4l2.4,2.1v-4.3h1V261.6z"/>
	<path class="st1" d="M389,252v1.7l-1.1-0.6v-2.2H398v1.1H389z"/>
	<path class="st1" d="M388.9,242.1v3.2l2.2,0.7c0-0.2-0.1-0.4-0.1-0.6c0-2,1.5-3.3,3.5-3.3c2.3,0,3.6,1.7,3.6,3.7
		c0,0.8-0.2,1.6-0.8,2.3c-0.3,0.3-0.6,0.6-1,0.9l-0.6-0.9c0.3-0.2,0.6-0.4,0.8-0.7c0.3-0.4,0.6-0.9,0.6-1.6c0-1.4-1.2-2.5-2.6-2.5
		c-1.5,0-2.5,1-2.5,2.5c0,0.4,0.1,1,0.7,2l-4.9-1.5v-4H388.9z"/>
	<path class="st1" d="M396.7,239c-1,0.7-2.3,1-3.7,1s-2.7-0.3-3.7-1c-1.1-0.8-1.5-1.8-1.5-2.6s0.4-1.8,1.5-2.6c1-0.7,2.3-1,3.7-1
		s2.7,0.3,3.7,1c1.1,0.8,1.5,1.8,1.5,2.6S397.8,238.3,396.7,239z M389.9,238.2c0.9,0.5,2,0.7,3.1,0.7s2.2-0.2,3.1-0.7
		c0.8-0.5,1.1-1.2,1.1-1.7s-0.3-1.2-1.1-1.7c-0.9-0.5-2-0.7-3.1-0.7s-2.2,0.2-3.1,0.7c-0.8,0.5-1.1,1.2-1.1,1.7
		S389,237.7,389.9,238.2z"/>
</g>
<g>
	<path class="st1" d="M79.1,340.7v1.7l-1.1-0.6v-2.2h10.1v1.1H79.1z"/>
	<path class="st1" d="M88.2,337.7l-4.3-3.7c-0.3-0.3-1.1-0.9-1.5-1.2c-0.7-0.5-1.1-0.6-1.5-0.6c-1.1,0-2,0.8-2,2
		c0,0.7,0.3,1.3,0.9,1.7c0.3,0.2,0.7,0.3,1.2,0.3v1.1c-1,0-1.6-0.4-2.1-0.8c-0.5-0.4-1-1.1-1-2.4c0-1.8,1.3-3.1,3-3.1
		c0.7,0,1.3,0.2,2.2,0.8c0.6,0.4,1.2,1,1.7,1.4l2.4,2.1v-4.3h1V337.7z"/>
	<path class="st1" d="M86.8,328.5c-1,0.7-2.3,1-3.7,1s-2.7-0.3-3.7-1c-1.1-0.8-1.5-1.8-1.5-2.6c0-0.8,0.4-1.8,1.5-2.6
		c1-0.7,2.3-1,3.7-1s2.7,0.3,3.7,1c1.1,0.8,1.5,1.8,1.5,2.6C88.4,326.7,88,327.7,86.8,328.5z M80.1,327.7c0.9,0.5,2,0.7,3.1,0.7
		c1.1,0,2.2-0.2,3.1-0.7c0.8-0.5,1.1-1.2,1.1-1.7c0-0.5-0.3-1.2-1.1-1.7c-0.9-0.5-2-0.7-3.1-0.7c-1.1,0-2.2,0.2-3.1,0.7
		c-0.8,0.5-1.1,1.2-1.1,1.7C78.9,326.4,79.2,327.1,80.1,327.7z"/>
	<path class="st1" d="M86.8,319.9c-1,0.7-2.3,1-3.7,1s-2.7-0.3-3.7-1c-1.1-0.8-1.5-1.8-1.5-2.6c0-0.8,0.4-1.8,1.5-2.6
		c1-0.7,2.3-1,3.7-1s2.7,0.3,3.7,1c1.1,0.8,1.5,1.8,1.5,2.6C88.4,318.1,88,319.1,86.8,319.9z M80.1,319c0.9,0.5,2,0.7,3.1,0.7
		c1.1,0,2.2-0.2,3.1-0.7c0.8-0.5,1.1-1.2,1.1-1.7c0-0.5-0.3-1.2-1.1-1.7c-0.9-0.5-2-0.7-3.1-0.7c-1.1,0-2.2,0.2-3.1,0.7
		c-0.8,0.5-1.1,1.2-1.1,1.7C78.9,317.8,79.2,318.5,80.1,319z"/>
</g>
<g>
	<path class="st1" d="M181.8,441.1v1.7l-1.1-0.6V440h10.1v1.1H181.8z"/>
	<path class="st1" d="M183.3,437.3c-0.6,0-1.1-0.2-1.5-0.5c-1-0.7-1.2-1.7-1.2-2.3c0-1.9,1.3-2.8,2.7-2.8c0.7,0,1.7,0.3,2.2,1.3
		c0.1-0.3,0.7-1.5,2.4-1.5c1.9,0,3,1.4,3,3.1c0,1-0.4,2.3-1.7,2.8c-0.4,0.2-0.7,0.2-1.1,0.2v-1.1c0.4,0,0.7-0.2,1-0.4
		c0.5-0.3,0.8-0.9,0.8-1.6c0-1.1-0.9-2-2-2c-0.6,0-1.3,0.2-1.7,1c-0.2,0.3-0.2,0.8-0.2,1.2h-1c0-0.4,0-0.8-0.2-1.2
		c-0.2-0.3-0.6-0.8-1.5-0.8c-0.9,0-1.7,0.5-1.7,1.7c0,0.4,0.1,0.9,0.6,1.3c0.3,0.2,0.6,0.4,1.1,0.4V437.3z"/>
	<path class="st1" d="M181.8,428.3v1.7l-1.1-0.6v-2.2h10.1v1.1H181.8z"/>
</g>
<g>
	<path class="st1" d="M353.6,541.1l3.2,2.3c-0.1-0.3-0.1-0.6-0.1-0.9c0-1.9,1.5-3.3,3.3-3.3c2,0,3.5,1.5,3.5,3.5
		c0,2.4-1.8,3.5-3.4,3.5c-0.4,0-1.3-0.1-2.3-0.8l-4.8-3.4L353.6,541.1z M360,540.3c-1.3,0-2.3,1-2.3,2.4s1,2.3,2.3,2.3
		c1.3,0,2.4-1,2.4-2.4C362.4,541.3,361.4,540.3,360,540.3z"/>
	<path class="st1" d="M361.9,536.7c-1,0.7-2.3,1-3.7,1s-2.7-0.3-3.7-1c-1.1-0.8-1.5-1.8-1.5-2.6c0-0.8,0.4-1.8,1.5-2.6
		c1-0.7,2.3-1,3.7-1s2.7,0.3,3.7,1c1.1,0.8,1.5,1.8,1.5,2.6C363.5,534.9,363.1,535.9,361.9,536.7z M355.2,535.8
		c0.9,0.5,2,0.7,3.1,0.7s2.2-0.2,3.1-0.7c0.8-0.5,1.1-1.2,1.1-1.7c0-0.5-0.3-1.2-1.1-1.7c-0.9-0.5-2-0.7-3.1-0.7s-2.2,0.2-3.1,0.7
		c-0.8,0.5-1.1,1.2-1.1,1.7C354,534.6,354.3,535.3,355.2,535.8z"/>
</g>
<g>
	<path class="st1" d="M369.6,549.4v1.7l-1.1-0.6v-2.2h10.1v1.1H369.6z"/>
	<path class="st1" d="M378.6,546.3l-4.3-3.7c-0.3-0.3-1.1-0.9-1.5-1.2c-0.7-0.5-1.1-0.6-1.5-0.6c-1.1,0-2,0.8-2,2
		c0,0.7,0.3,1.3,0.9,1.7c0.3,0.2,0.7,0.3,1.2,0.3v1.1c-1,0-1.6-0.4-2.1-0.8c-0.5-0.4-1-1.1-1-2.4c0-1.8,1.3-3.1,3-3.1
		c0.7,0,1.3,0.2,2.2,0.8c0.6,0.4,1.2,1,1.7,1.4l2.4,2.1v-4.3h1V546.3z"/>
	<path class="st1" d="M377.3,537.1c-1,0.7-2.3,1-3.7,1s-2.7-0.3-3.7-1c-1.1-0.8-1.5-1.8-1.5-2.6c0-0.8,0.4-1.8,1.5-2.6
		c1-0.7,2.3-1,3.7-1s2.7,0.3,3.7,1c1.1,0.8,1.5,1.8,1.5,2.6C378.8,535.3,378.4,536.3,377.3,537.1z M370.5,536.3
		c0.9,0.5,2,0.7,3.1,0.7s2.2-0.2,3.1-0.7c0.8-0.5,1.1-1.2,1.1-1.7c0-0.5-0.3-1.2-1.1-1.7c-0.9-0.5-2-0.7-3.1-0.7s-2.2,0.2-3.1,0.7
		c-0.8,0.5-1.1,1.2-1.1,1.7C369.4,535,369.7,535.7,370.5,536.3z"/>
</g>
<g>
	<path class="st1" d="M389.9,546.5c-0.6,0-1.1-0.2-1.5-0.5c-1-0.7-1.2-1.7-1.2-2.3c0-1.9,1.3-2.8,2.7-2.8c0.7,0,1.7,0.3,2.2,1.3
		c0.1-0.3,0.7-1.5,2.4-1.5c1.9,0,3,1.4,3,3.1c0,1-0.4,2.3-1.7,2.8c-0.4,0.2-0.7,0.2-1.1,0.2v-1.1c0.4,0,0.7-0.2,1-0.4
		c0.5-0.3,0.8-0.9,0.8-1.6c0-1.1-0.9-2-2-2c-0.6,0-1.3,0.2-1.7,1c-0.2,0.3-0.2,0.8-0.2,1.2h-1c0-0.4,0-0.8-0.2-1.2
		c-0.2-0.3-0.6-0.8-1.5-0.8c-0.9,0-1.7,0.5-1.7,1.7c0,0.4,0.1,0.9,0.6,1.3c0.3,0.2,0.6,0.4,1.1,0.4V546.5z"/>
	<path class="st1" d="M388.4,533.4v5.5h-1v-7.4l10.3,6.8l-0.6,0.9L388.4,533.4z"/>
	<path class="st1" d="M394.7,524.9c1.6,0,3,1,3,3.1c0,2.1-1.4,3.1-3,3.1c-1.1,0-2-0.5-2.5-1.5c-0.5,0.8-1.3,1.2-2.2,1.2
		c-1.4,0-2.8-1-2.8-2.8c0-1.8,1.4-2.8,2.8-2.8c0.9,0,1.7,0.4,2.2,1.2C392.7,525.4,393.6,524.9,394.7,524.9z M390.1,526.3
		c-1.1,0-1.8,0.8-1.8,1.7c0,0.9,0.7,1.7,1.8,1.7c1,0,1.7-0.7,1.7-1.7C391.8,527,391.1,526.3,390.1,526.3z M394.7,526
		c-1.1,0-1.9,0.8-1.9,2c0,1.2,0.8,2,1.9,2c1.2,0,2-0.8,2-2C396.7,526.8,395.8,526,394.7,526z"/>
	<path class="st1" d="M396,522.1l0.4-1l3.4,1.5l-0.3,0.7L396,522.1z"/>
	<path class="st1" d="M388.4,512.3v3.2l2.2,0.7c0-0.2-0.1-0.4-0.1-0.6c0-2,1.5-3.3,3.5-3.3c2.3,0,3.6,1.7,3.6,3.7
		c0,0.8-0.2,1.6-0.8,2.3c-0.3,0.3-0.6,0.6-1,0.9l-0.6-0.9c0.3-0.2,0.6-0.4,0.8-0.7c0.3-0.4,0.6-0.9,0.6-1.6c0-1.4-1.2-2.5-2.6-2.5
		c-1.5,0-2.5,1-2.5,2.5c0,0.4,0.1,1,0.7,2l-4.9-1.5v-4H388.4z"/>
</g>
<g>
	<path class="st1" d="M212.5,374.1h-1.7l0.6-1.1h2.2v10.1h-1.1V374.1z"/>
	<path class="st1" d="M221.8,380.2h1.2v1h-1.2v1.9h-1.1v-1.9h-5.2l6.3-8.8V380.2z M220.7,380.2v-4.5l-3.2,4.5H220.7z"/>
	<path class="st1" d="M225.5,381.8c-0.7-1-1-2.3-1-3.7s0.3-2.7,1-3.7c0.8-1.1,1.8-1.5,2.6-1.5s1.8,0.4,2.6,1.5c0.7,1,1,2.3,1,3.7
		s-0.3,2.7-1,3.7c-0.8,1.1-1.8,1.5-2.6,1.5S226.3,382.9,225.5,381.8z M226.3,375c-0.5,0.9-0.7,2-0.7,3.1s0.2,2.2,0.7,3.1
		c0.5,0.8,1.2,1.1,1.7,1.1s1.2-0.3,1.7-1.1c0.5-0.9,0.7-2,0.7-3.1s-0.2-2.2-0.7-3.1c-0.5-0.8-1.2-1.1-1.7-1.1S226.9,374.2,226.3,375
		z"/>
</g>
</svg>
