<?xml version="1.0" encoding="utf-8"?>
<!-- Generator: Adobe Illustrator 23.0.3, SVG Export Plug-In . SVG Version: 6.00 Build 0)  -->
<svg version="1.1" id="Слой_1" xmlns="http://www.w3.org/2000/svg" xmlns:xlink="http://www.w3.org/1999/xlink" x="0px" y="0px"
	 viewBox="0 0 500 600" style="enable-background:new 0 0 500 600;" xml:space="preserve">
<style type="text/css">
	.st0{fill:none;stroke:#4E86B9;stroke-width:0.4;stroke-miterlimit:3.864;}
	.st1{fill:#4E86B9;}
	.st2{fill:none;stroke:#4E86B9;stroke-width:0.75;stroke-miterlimit:10;}
</style>
<path class="st0" d="M133.9,47.2v307.9 M121.3,35l50.5,29 M68.1,441.1l210.1,120.4 M194.8,69l177,99.4 M198,400.8l212.8,119
	 M204.2,380.5l74.2,42.1 M159.3,413l74.2,42.1 M125.7,358.2l36.8,21.9"/>
<path class="st1" d="M133.9,363.2l2.3-14l-2.3,3.1l-2.3-3.1L133.9,363.2z"/>
<path class="st1" d="M133.9,41.9l2.3,14l-2.3-3.1l-2.3,3.1L133.9,41.9z"/>
<path class="st1" d="M193.6,63.9l10.3-9.7l-1.3,3.7l3.9,0.2L193.6,63.9z"/>
<path class="st1" d="M172.3,77.9l-13,5.5l3.9,0.2l-1.3,3.6L172.3,77.9z"/>
<path class="st2" d="M290,212.1v-21.8l8.4,4.7l-15.3-24.9l-14.2,8.2l7.9,4.5v21.8L290,212.1L290,212.1z M258.8,186
	c-5.3-19.4,1.9-32.8,16.4-30c14.4,2.9,30.3,20.9,35.7,40.3c5.4,19.4-1.9,32.8-16.4,30C280.2,223.5,264.2,205.4,258.8,186z
	 M245.8,212.4V124 M325,169.1v88.1 M165.9,71.1c0,4.8,7.8,8.8,17.3,8.8c9.6,0,17.3-4,17.3-8.8c0-4.8-7.8-8.8-17.3-8.8
	C173.7,62.3,165.9,66.3,165.9,71.1z M200.6,182.7V98.2 M165.9,71.1v233.5V396c0,4.8,7.8,8.8,17.3,8.8c9.6,0,17.3-4,17.3-8.8v-91.3
	V196.7 M200.6,84.4V71.1 M151.6,395.4v5.5c0,10.3,14.2,18.6,31.8,18.6s31.8-8.3,31.8-18.6v-6.1 M166.1,388.7
	c-0.6,0.2-1.3,0.4-2.2,0.4c-2.5,0-4.6-1.2-4.6-2.6s2-2.8,4.6-2.8c0.6,0,1.2,0.1,1.8,0.2 M202.4,391.5c0-1.4,2-2.6,4.6-2.6
	s4.6,1.2,4.6,2.6c0,1.4-2,2.6-4.6,2.6C204.4,394.2,202.4,393,202.4,391.5z M172.4,409.1c0-1.4,2-2.6,4.6-2.6c2.5,0,4.6,1.2,4.6,2.6
	c0,1.4-2,2.6-4.6,2.6C174.4,411.8,172.4,410.6,172.4,409.1z M200.3,379c8.8,3.4,14.7,9.1,14.7,15.8c0,10.3-14.2,18.6-31.8,18.6
	c-17.6,0-31.8-8.3-31.8-18.6c0-6.5,5.7-12.3,14.3-15.6"/>
<path class="st2" d="M256.9,130.1v3.2c0,2.3-1.4,3.4-3.4,2.5c-1.8-1-3.4-3.6-3.4-5.9v-3.7 M259.8,131.9v1.7c0,2.4-2,3.6-4.7,2.6
	 M316.1,164v3.2c0,2.3-1.4,3.4-3.4,2.5c-1.8-1-3.4-3.6-3.4-5.9v-3.7 M319,165.7v1.7c0,2.4-2,3.6-4.7,2.6"/>
<path class="st2" d="M259.2,220l50.1,28.4 M318,253.3l21.8,12.3c8.2,4.5,16,10.1,22.5,7.1c6.5-3,6-10,6-14.7v-34.5
	c0-9.3-0.5-14.2-5.5-22.7s-13-15.5-16.7-18.6c-3.7-3.1-22.3-13.6-22.3-13.6L196.3,95.8c-3.4-1.9-5.8-5.3-3.4-9
	c2.5-3.9,6.6-2.9,8.2-2.2l129,73.2c0,0,15.9,8.8,20.7,12c9.6,6.4,14.9,12.9,19.9,19.4c4.9,6.5,8.9,13.2,9.5,26.4
	c0.6,13.1,1.7,37.5,1.6,43.3c-0.1,5.9-0.8,20.7-13.5,25.4c-12.6,4.7-20.9,0-35-7.9l-136.9-82.2c-3.4-1.9-5.8-5.3-3.4-9
	c2.5-3.9,6.6-2.9,8.2-2.2l49.2,32"/>
<path class="st2" d="M250.6,214c0-2.3,1.4-3.4,3.4-2.5c1.8,1,3.4,3.6,3.4,5.9v3.7l-6.6-3.5L250.6,214L250.6,214z M250.6,213.2
	c-0.1-3.1,3.7-3.7,5.5-2.8c1.8,1,3.4,3.6,3.4,5.9v3.7l-2.3,1 M309.4,247c0-2.3,1.4-3.4,3.4-2.4c1.8,1,3.4,3.6,3.4,5.9v3.7l-6.6-3.5
	L309.4,247L309.4,247z M309.4,246.3c-0.1-3.1,3.7-3.7,5.5-2.8c1.8,1,3.4,3.6,3.4,5.9v3.7l-2.3,1"/>
<path class="st1" d="M63.5,438.6l13.4,4.8l-3.9,0.5l1.6,3.6L63.5,438.6z"/>
<path class="st1" d="M282.9,564.3l-13.2-4.9l3.9-0.5l-1.6-3.6L282.9,564.3z"/>
<path class="st1" d="M194.8,69l13.4,4.8l-3.9,0.5l1.6,3.6L194.8,69z"/>
<path class="st1" d="M380.2,172.8l-13.2-4.9l3.9-0.5l-1.6-3.6L380.2,172.8z"/>
<path class="st1" d="M266.1,416.1l-10.6,9.4l1.4-3.6l-3.9-0.4L266.1,416.1z"/>
<path class="st1" d="M219.3,446.4l10.5-9.5l-1.3,3.6l3.9,0.2L219.3,446.4z"/>
<path class="st0" d="M162.7,380.2L59.4,441.1 M381.6,503.7l-102.3,63.2"/>
<path class="st0" d="M380.3,215.5v-47.4"/>
<path class="st0" d="M219.3,446.4l88.8-57.5"/>
<path class="st0" d="M194.8,84.5V65.7"/>
<path class="st0" d="M405.9,318v191.3"/>
<path class="st1" d="M405.9,517.5l2.3-14l-2.3,3.1l-2.3-3.1L405.9,517.5z"/>
<path class="st1" d="M405.9,315l2.3,14l-2.3-3.1l-2.3,3.1L405.9,315z"/>
<path class="st0" d="M405.9,206.6v100.8 M340.6,163.4l70.3,39.2 M340.6,280.1l70.3,39.2"/>
<path class="st1" d="M405.9,316.8l2.3-14l-2.3,3.1l-2.3-3.1L405.9,316.8z"/>
<path class="st1" d="M405.9,199.6l2.3,14l-2.3-3.1l-2.3,3.1L405.9,199.6z"/>
<path class="st0" d="M157,87.6l88.8-57.5"/>
<g>
	<path class="st1" d="M115.5,222.3v2.2l-1.4-0.8v-2.9h13.1v1.4H115.5z"/>
	<path class="st1" d="M125.5,215.4c-1.3,0.9-2.9,1.3-4.8,1.3s-3.5-0.5-4.8-1.3c-1.5-1-2-2.3-2-3.4c0-1,0.5-2.4,2-3.4
		c1.3-0.9,2.9-1.3,4.8-1.3s3.5,0.5,4.8,1.3c1.4,1,2,2.3,2,3.4C127.5,213.1,126.9,214.4,125.5,215.4z M116.7,214.3c1.1,0.7,2.6,1,4,1
		c1.4,0,2.9-0.3,4-1c1.1-0.7,1.4-1.6,1.4-2.3c0-0.7-0.4-1.6-1.4-2.3c-1.1-0.7-2.6-1-4-1c-1.4,0-2.9,0.3-4,1
		c-1.1,0.7-1.4,1.6-1.4,2.3C115.3,212.7,115.6,213.6,116.7,214.3z"/>
	<path class="st1" d="M115.5,203.3v2.2l-1.4-0.8v-2.9h13.1v1.4H115.5z"/>
	<path class="st1" d="M127.2,199.3l-5.5-4.8c-0.4-0.3-1.4-1.2-1.9-1.5c-0.8-0.6-1.5-0.7-2-0.7c-1.5,0-2.5,1.1-2.5,2.6
		c0,0.9,0.4,1.7,1.2,2.2c0.4,0.3,0.9,0.4,1.5,0.4v1.5c-1.3-0.1-2.1-0.5-2.7-1c-0.6-0.5-1.3-1.5-1.3-3.1c0-2.3,1.6-4,3.9-4
		c0.9,0,1.7,0.3,2.8,1c0.8,0.5,1.6,1.3,2.2,1.8l3.1,2.7v-5.5h1.3V199.3z"/>
</g>
<g>
	<path class="st1" d="M389.5,414.6l4.2,3c-0.1-0.4-0.2-0.7-0.2-1.2c0-2.5,1.9-4.2,4.3-4.2c2.6,0,4.5,1.9,4.5,4.5
		c0,3.1-2.4,4.5-4.4,4.5c-0.5,0-1.6-0.1-3-1.1l-6.2-4.4L389.5,414.6z M397.9,413.7c-1.7,0-3,1.3-3,3.1s1.3,3,3,3
		c1.7,0,3.1-1.2,3.1-3.1C401,415,399.6,413.7,397.9,413.7z"/>
	<path class="st1" d="M398.3,402.7v-1.6h1.3v1.6h2.5v1.4h-2.5v6.7l-11.3-8.2H398.3z M398.3,404.1h-5.8l5.8,4.1V404.1z"/>
	<path class="st1" d="M392.3,398.4c-0.7,0-1.4-0.3-1.9-0.6c-1.4-0.9-1.5-2.3-1.5-3c0-2.5,1.7-3.7,3.5-3.7c0.9,0,2.2,0.4,2.9,1.7
		c0.2-0.5,0.9-1.9,3.2-1.9c2.4,0,3.9,1.8,3.9,4c0,1.4-0.6,2.9-2.3,3.6c-0.5,0.2-0.9,0.3-1.4,0.3v-1.5c0.5-0.1,1-0.2,1.3-0.5
		c0.6-0.4,1-1.2,1-2c0-1.4-1.2-2.6-2.6-2.6c-0.7,0-1.7,0.3-2.2,1.3c-0.2,0.4-0.3,1-0.3,1.5h-1.3c0-0.5-0.1-1.1-0.3-1.5
		c-0.2-0.4-0.8-1.1-1.9-1.1c-1.2,0-2.2,0.6-2.2,2.2c0,0.5,0.1,1.2,0.7,1.7c0.3,0.3,0.8,0.5,1.4,0.5V398.4z"/>
</g>
<g>
	<path class="st1" d="M392.3,274.4c-0.7,0-1.4-0.3-1.9-0.6c-1.4-0.9-1.5-2.3-1.5-3c0-2.5,1.7-3.7,3.5-3.7c0.9,0,2.2,0.4,2.9,1.7
		c0.2-0.5,0.9-1.9,3.2-1.9c2.4,0,3.9,1.8,3.9,4c0,1.4-0.6,2.9-2.3,3.6c-0.5,0.2-0.9,0.3-1.4,0.3v-1.4c0.5-0.1,1-0.2,1.3-0.5
		c0.6-0.4,1-1.2,1-2c0-1.4-1.2-2.6-2.6-2.6c-0.7,0-1.7,0.3-2.2,1.3c-0.2,0.4-0.3,1-0.3,1.5h-1.3c0-0.5-0.1-1.1-0.3-1.5
		c-0.2-0.4-0.8-1.1-1.9-1.1c-1.2,0-2.2,0.6-2.2,2.2c0,0.5,0.1,1.2,0.7,1.7c0.3,0.3,0.8,0.5,1.4,0.5V274.4z"/>
	<path class="st1" d="M398.3,257.4v-1.6h1.3v1.6h2.5v1.5h-2.5v6.7l-11.3-8.2H398.3z M398.3,258.8h-5.8l5.8,4.1V258.8z"/>
	<path class="st1" d="M400.4,252.6c-1.3,0.9-2.9,1.3-4.8,1.3s-3.5-0.5-4.8-1.3c-1.5-1-2-2.3-2-3.4c0-1,0.5-2.4,2-3.4
		c1.3-0.9,2.9-1.3,4.8-1.3s3.5,0.5,4.8,1.3c1.4,1,2,2.3,2,3.4C402.3,250.3,401.8,251.6,400.4,252.6z M391.6,251.5c1.1,0.7,2.6,1,4,1
		c1.4,0,2.9-0.3,4-1c1.1-0.7,1.5-1.6,1.5-2.3c0-0.7-0.4-1.6-1.5-2.3c-1.1-0.7-2.6-1-4-1c-1.4,0-2.9,0.3-4,1
		c-1.1,0.7-1.5,1.6-1.5,2.3C390.1,249.9,390.5,250.8,391.6,251.5z"/>
</g>
<g>
	<path class="st1" d="M127.6,482.7l-6.2-3.6l0.7-1.2l8.3,4.8l-14.3,7.2l-0.6-1.2L127.6,482.7z"/>
	<path class="st1" d="M137,488.2l-6.2-3.6l0.7-1.2l8.3,4.8l-14.3,7.2l-0.6-1.2L137,488.2z"/>
	<path class="st1" d="M138.5,491.3c0.4-0.6,0.9-1.1,1.5-1.4c1.4-0.7,2.7-0.2,3.4,0.2c2.1,1.2,2.3,3.3,1.4,4.9
		c-0.5,0.8-1.4,1.8-2.9,1.7c0.3,0.4,1.2,1.7,0,3.7c-1.2,2.1-3.5,2.5-5.5,1.4c-1.2-0.7-2.3-2-2-3.8c0.1-0.5,0.2-0.9,0.4-1.3l1.3,0.7
		c-0.2,0.4-0.3,0.9-0.3,1.4c0.1,0.8,0.5,1.4,1.3,1.9c1.3,0.7,2.8,0.3,3.5-1c0.4-0.6,0.6-1.7,0-2.5c-0.3-0.4-0.7-0.7-1.2-1l0.6-1.1
		c0.4,0.3,1,0.5,1.4,0.5c0.5,0,1.3-0.1,1.9-1.1c0.6-1,0.6-2.2-0.8-3.1c-0.5-0.3-1.1-0.5-1.8-0.2c-0.4,0.2-0.8,0.5-1.1,0.9
		L138.5,491.3z"/>
	<path class="st1" d="M156.6,497c-0.8,0.6-1.7,1.4-2.6,2.4c-1.2,1.3-2,2.6-2.9,4c-0.8,1.4-1.4,2.7-2,4.4c-0.4,1.2-0.7,2.4-0.9,3.6
		l-1.4-0.1c0.4-2.4,1-4.2,1.1-4.5c0.5-1.4,1.2-2.9,1.9-4.1c0.7-1.1,1.7-2.7,3-4.1c0.9-0.9,2-2,2.9-2.7L156.6,497z"/>
	<path class="st1" d="M161.1,502.2l-1.9-1.1l1.3-0.8l2.5,1.4l-6.6,11.3l-1.3-0.7L161.1,502.2z"/>
	<path class="st1" d="M162,514.3c-0.1-1.5,0.3-3.2,1.3-4.8c0.9-1.6,2.2-2.8,3.5-3.5c1.6-0.8,3-0.5,3.9,0c0.9,0.5,1.8,1.6,1.9,3.4
		c0.1,1.5-0.3,3.2-1.3,4.8c-0.9,1.6-2.2,2.8-3.5,3.5c-1.6,0.8-3,0.5-3.9,0C163.1,517.1,162.2,516,162,514.3z M167.4,507.2
		c-1.2,0.6-2.1,1.8-2.8,3c-0.7,1.2-1.2,2.6-1.2,3.9c0,1.3,0.6,2.1,1.2,2.4c0.6,0.3,1.5,0.5,2.7-0.1c1.2-0.6,2.1-1.8,2.8-3
		c0.7-1.2,1.2-2.6,1.2-3.9c0-1.3-0.6-2-1.2-2.4C169.5,506.8,168.5,506.6,167.4,507.2z"/>
	<path class="st1" d="M169.7,520.7l6.9-2.4c0.5-0.2,1.8-0.6,2.3-0.9c0.9-0.4,1.4-0.9,1.6-1.4c0.7-1.3,0.4-2.7-1-3.5
		c-0.8-0.5-1.7-0.5-2.5-0.1c-0.4,0.2-0.8,0.6-1.2,1.1l-1.3-0.7c0.7-1.1,1.5-1.6,2.2-1.8c0.8-0.3,1.9-0.4,3.3,0.4
		c2,1.2,2.7,3.4,1.5,5.4c-0.4,0.8-1.1,1.3-2.3,1.9c-0.9,0.4-1.9,0.7-2.6,1l-3.9,1.3l4.8,2.8L177,525L169.7,520.7z"/>
	<path class="st1" d="M184.3,517.8c0.4-0.6,0.9-1.1,1.5-1.4c1.4-0.7,2.7-0.2,3.4,0.2c2.1,1.2,2.3,3.3,1.4,4.9
		c-0.5,0.8-1.4,1.8-2.9,1.7c0.3,0.4,1.2,1.7,0,3.7c-1.2,2.1-3.5,2.5-5.5,1.4c-1.2-0.7-2.3-2-2-3.8c0.1-0.5,0.2-0.9,0.4-1.3l1.3,0.7
		c-0.2,0.4-0.3,0.9-0.3,1.4c0.1,0.8,0.5,1.4,1.3,1.9c1.3,0.7,2.8,0.3,3.5-1c0.4-0.6,0.6-1.7,0-2.5c-0.3-0.4-0.7-0.7-1.2-1l0.6-1.1
		c0.4,0.3,1,0.5,1.4,0.5c0.5,0,1.3-0.1,1.9-1.1c0.6-1,0.6-2.2-0.8-3.1c-0.5-0.3-1.1-0.5-1.8-0.2c-0.4,0.2-0.8,0.5-1.1,0.9
		L184.3,517.8z"/>
	<path class="st1" d="M190.2,530.4l0.9,1.1l-3.9,2.8l-0.6-0.8L190.2,530.4z"/>
	<path class="st1" d="M206.4,528.5l-1.9-1.1l1.3-0.8l2.5,1.4l-6.6,11.3l-1.3-0.7L206.4,528.5z"/>
	<path class="st1" d="M204,540.6l6.9-2.4c0.5-0.2,1.8-0.6,2.3-0.9c0.9-0.4,1.4-0.9,1.6-1.4c0.7-1.3,0.4-2.7-1-3.5
		c-0.8-0.5-1.7-0.5-2.5-0.1c-0.4,0.2-0.8,0.6-1.2,1.1l-1.3-0.7c0.7-1.1,1.5-1.6,2.2-1.8c0.8-0.3,1.9-0.4,3.3,0.4
		c2,1.2,2.7,3.4,1.5,5.4c-0.4,0.8-1.1,1.3-2.3,1.9c-0.9,0.4-1.9,0.7-2.6,1l-3.9,1.3l4.8,2.8l-0.7,1.2L204,540.6z"/>
	<path class="st1" d="M213,545.8l6.9-2.4c0.5-0.2,1.8-0.6,2.3-0.9c0.9-0.4,1.4-0.9,1.6-1.4c0.7-1.3,0.4-2.7-1-3.5
		c-0.8-0.5-1.7-0.5-2.5-0.1c-0.4,0.2-0.8,0.6-1.1,1.1l-1.3-0.7c0.7-1.1,1.5-1.6,2.2-1.8c0.8-0.3,1.9-0.4,3.3,0.4
		c2,1.2,2.7,3.4,1.5,5.4c-0.4,0.8-1.1,1.3-2.3,1.9c-0.9,0.4-1.9,0.7-2.6,1l-3.9,1.3l4.8,2.8l-0.7,1.2L213,545.8z"/>
	<path class="st1" d="M227.5,542.9c0.4-0.6,0.9-1.1,1.5-1.4c1.4-0.7,2.7-0.2,3.4,0.2c2.1,1.2,2.3,3.3,1.4,4.9
		c-0.5,0.8-1.4,1.8-2.9,1.7c0.3,0.4,1.2,1.7,0,3.7c-1.2,2.1-3.5,2.5-5.5,1.4c-1.2-0.7-2.3-2-2-3.8c0.1-0.5,0.2-0.9,0.4-1.3l1.3,0.7
		c-0.2,0.4-0.3,0.9-0.3,1.4c0.1,0.8,0.5,1.4,1.3,1.9c1.3,0.7,2.8,0.3,3.5-1c0.4-0.6,0.6-1.7,0-2.5c-0.3-0.4-0.7-0.7-1.2-1l0.6-1.1
		c0.4,0.3,1,0.5,1.4,0.5c0.5,0,1.3-0.1,1.9-1.1c0.6-1,0.6-2.2-0.8-3.1c-0.5-0.3-1.1-0.5-1.8-0.2c-0.4,0.2-0.8,0.5-1.1,0.9
		L227.5,542.9z"/>
	<path class="st1" d="M240.2,544.9c-0.2,1.1-0.5,2.6-0.9,3.8c-0.6,1.9-1.4,3.5-2.1,4.7c-0.7,1.3-1.7,2.6-2.6,3.7
		c-0.2,0.2-1.5,1.7-3.3,3.2l-0.8-1.1c0.9-0.8,1.8-1.6,2.7-2.6c1.2-1.3,2-2.5,2.8-3.9c0.9-1.5,1.5-2.9,2.1-4.5
		c0.4-1.3,0.7-2.5,0.8-3.4L240.2,544.9z"/>
</g>
<g>
	<path class="st1" d="M256.9,79.9l-4.7,2.2c0.4,0.1,0.7,0.2,1.1,0.4c2.2,1.2,2.8,3.7,1.6,5.8c-1.3,2.3-3.8,3-6.1,1.7
		c-2.7-1.5-2.8-4.3-1.8-6.1c0.2-0.4,0.9-1.4,2.4-2.1l6.9-3.2L256.9,79.9z M253.7,87.6c0.9-1.5,0.4-3.3-1.2-4.1
		c-1.6-0.9-3.3-0.3-4.1,1.1c-0.9,1.5-0.5,3.3,1.1,4.2C251.1,89.7,252.8,89.1,253.7,87.6z"/>
	<path class="st1" d="M267.7,86.9l-3.7-2.1l-2.1,2c0.3,0.1,0.5,0.2,0.8,0.3c2.3,1.3,2.8,3.8,1.5,6.1c-1.4,2.5-4.2,3-6.5,1.8
		c-0.9-0.5-1.6-1.3-2-2.3c-0.2-0.5-0.3-1.1-0.3-1.7l1.4-0.2c0,0.5,0.1,0.9,0.3,1.4c0.3,0.7,0.7,1.3,1.5,1.7c1.6,0.9,3.5,0.3,4.4-1.3
		c0.9-1.6,0.4-3.5-1.2-4.4c-0.4-0.2-1.2-0.6-2.6-0.5l4.7-4.6l4.5,2.5L267.7,86.9z"/>
	<path class="st1" d="M266.3,97.5c-0.1-1.5,0.3-3.2,1.2-4.8c0.9-1.6,2.1-2.9,3.5-3.5c1.6-0.8,3-0.6,3.9-0.1c0.9,0.5,1.8,1.6,2,3.4
		c0.1,1.5-0.3,3.2-1.2,4.8s-2.1,2.9-3.5,3.5c-1.6,0.8-3,0.6-3.9,0.1S266.4,99.3,266.3,97.5z M271.5,90.4c-1.2,0.6-2.1,1.8-2.8,3
		c-0.7,1.2-1.2,2.6-1.1,3.9c0.1,1.3,0.7,2,1.3,2.4c0.6,0.3,1.5,0.5,2.7-0.2c1.2-0.6,2.1-1.8,2.8-3c0.7-1.2,1.2-2.6,1.1-3.9
		c-0.1-1.3-0.7-2-1.3-2.4C273.6,89.9,272.7,89.8,271.5,90.4z"/>
	<path class="st1" d="M287.9,95.7c-0.8,0.6-1.6,1.4-2.5,2.5c-1.1,1.3-2,2.6-2.8,4.1c-0.8,1.4-1.4,2.7-1.9,4.4
		c-0.4,1.2-0.7,2.4-0.9,3.6l-1.4-0.1c0.4-2.4,0.9-4.2,1-4.5c0.5-1.4,1.2-2.9,1.9-4.2c0.6-1.1,1.6-2.7,3-4.2c0.9-0.9,2-2,2.9-2.7
		L287.9,95.7z"/>
	<path class="st1" d="M285.4,109.7l4.7-2.2c-0.4-0.1-0.7-0.2-1.1-0.4c-2.2-1.2-2.8-3.7-1.6-5.8c1.3-2.3,3.8-3,6.1-1.7
		c2.7,1.5,2.8,4.3,1.8,6.1c-0.2,0.4-0.9,1.4-2.4,2.1L286,111L285.4,109.7z M288.7,102c-0.9,1.5-0.4,3.3,1.2,4.1s3.3,0.3,4.1-1.1
		c0.9-1.5,0.5-3.3-1.1-4.2C291.3,99.9,289.6,100.4,288.7,102z"/>
	<path class="st1" d="M294.7,113.5c-0.1-1.5,0.3-3.2,1.2-4.8s2.1-2.9,3.5-3.5c1.6-0.8,3-0.6,3.9-0.1c0.9,0.5,1.8,1.6,2,3.4
		c0.1,1.5-0.3,3.2-1.2,4.8s-2.1,2.9-3.5,3.5c-1.6,0.8-3,0.6-3.9,0.1S294.8,115.2,294.7,113.5z M299.9,106.4c-1.2,0.6-2.1,1.8-2.8,3
		s-1.2,2.6-1.1,3.9c0.1,1.3,0.7,2,1.3,2.4c0.6,0.3,1.5,0.5,2.7-0.2c1.2-0.6,2.1-1.8,2.8-3c0.7-1.2,1.2-2.6,1.1-3.9
		c-0.1-1.3-0.7-2-1.3-2.4C302,105.9,301.1,105.8,299.9,106.4z"/>
	<path class="st1" d="M304.4,118.9c-0.1-1.5,0.3-3.2,1.2-4.8s2.1-2.9,3.5-3.5c1.6-0.8,3-0.6,3.9-0.1s1.8,1.6,2,3.4
		c0.1,1.5-0.3,3.2-1.2,4.8s-2.1,2.9-3.5,3.5c-1.6,0.8-3,0.6-3.9,0.1C305.4,121.8,304.5,120.7,304.4,118.9z M309.6,111.8
		c-1.2,0.6-2.1,1.8-2.8,3c-0.7,1.2-1.2,2.6-1.1,3.9c0.1,1.3,0.7,2,1.3,2.4c0.6,0.3,1.5,0.5,2.7-0.2c1.2-0.6,2.1-1.8,2.8-3
		c0.7-1.2,1.2-2.6,1.1-3.9c-0.1-1.3-0.7-2-1.3-2.4C311.7,111.3,310.8,111.2,309.6,111.8z"/>
	<path class="st1" d="M314,124.2l0.9,1l-3.9,2.9l-0.6-0.8L314,124.2z"/>
	<path class="st1" d="M330.2,122l-1.9-1.1l1.3-0.8l2.5,1.4l-6.4,11.4l-1.3-0.7L330.2,122z"/>
	<path class="st1" d="M336.1,125.3l-1.9-1.1l1.3-0.8l2.5,1.4l-6.4,11.4l-1.3-0.7L336.1,125.3z"/>
	<path class="st1" d="M341.9,128.6l-1.9-1.1l1.3-0.8l2.5,1.4l-6.4,11.4l-1.3-0.7L341.9,128.6z"/>
	<path class="st1" d="M343,140.7c-0.1-1.5,0.3-3.2,1.2-4.8c0.9-1.6,2.1-2.9,3.5-3.5c1.6-0.8,3-0.6,3.9-0.1c0.9,0.5,1.8,1.6,2,3.4
		c0.1,1.5-0.3,3.2-1.2,4.8s-2.1,2.9-3.5,3.5c-1.6,0.8-3,0.6-3.9,0.1C344.1,143.5,343.2,142.4,343,140.7z M348.3,133.6
		c-1.2,0.6-2.1,1.8-2.8,3s-1.2,2.6-1.1,3.9c0.1,1.3,0.7,2,1.3,2.4s1.5,0.5,2.7-0.2c1.2-0.6,2.1-1.8,2.8-3c0.7-1.2,1.2-2.6,1.1-3.9
		c-0.1-1.3-0.7-2-1.3-2.4C350.4,133.1,349.4,133,348.3,133.6z"/>
	<path class="st1" d="M359.2,135.1c-0.2,1.1-0.5,2.6-0.8,3.8c-0.6,1.9-1.4,3.6-2,4.7c-0.7,1.3-1.6,2.6-2.6,3.8
		c-0.2,0.2-1.4,1.7-3.3,3.2l-0.8-1.1c0.9-0.8,1.8-1.6,2.6-2.6c1.2-1.4,2-2.5,2.8-3.9c0.8-1.5,1.5-2.9,2-4.5c0.4-1.3,0.6-2.5,0.8-3.4
		L359.2,135.1z"/>
</g>
<g>
	<path class="st1" d="M206.3,34.6c0.8,0.2,2.4,0.9,3.6,2.8c2.1,3.3,1.1,7.3-2.1,9.4c-1.8,1.2-3.4,1.2-4.5,1.1l-0.5,2.1l-1.4-0.3
		l0.5-2.1c-1.7-0.6-2.8-1.8-3.5-2.8c-2.1-3.3-1.1-7.3,2.1-9.4c1-0.6,2.5-1.3,4.4-1.1l0.5-2.2l1.4,0.3L206.3,34.6z M204.5,35.7
		c-0.5,0-1.8-0.1-3.2,0.8c-2.5,1.6-3.2,4.9-1.6,7.4c0.9,1.4,2.1,1.9,2.7,2.2L204.5,35.7z M203.7,46.4c1.5,0.1,2.7-0.4,3.3-0.8
		c2.5-1.6,3.2-4.9,1.6-7.4c-0.5-0.8-1.4-1.8-2.8-2.2L203.7,46.4z"/>
	<path class="st1" d="M212.4,29.7l-1.9,1.2l-0.1-1.6l2.4-1.5l7,11l-1.2,0.8L212.4,29.7z"/>
	<path class="st1" d="M223.5,34.4c-1.4-0.6-2.7-1.8-3.7-3.3c-1-1.6-1.5-3.2-1.5-4.8c0.1-1.8,0.9-2.9,1.8-3.5
		c0.9-0.6,2.3-0.8,3.9-0.1c1.4,0.6,2.7,1.8,3.7,3.3c1,1.6,1.5,3.2,1.5,4.8c-0.1,1.8-0.9,2.9-1.8,3.5
		C226.5,34.9,225.1,35.1,223.5,34.4z M219.7,26.5c0,1.3,0.6,2.7,1.3,3.9c0.7,1.2,1.8,2.3,2.9,2.8c1.2,0.6,2.1,0.4,2.7,0
		c0.6-0.4,1.1-1.1,1.1-2.4c0-1.3-0.6-2.7-1.3-3.9s-1.8-2.3-2.9-2.8c-1.2-0.6-2.1-0.4-2.7,0C220.3,24.4,219.7,25.2,219.7,26.5z"/>
	<path class="st1" d="M232.8,30.6l1.1-7.2c0.1-0.5,0.3-1.9,0.3-2.4c0-1-0.2-1.6-0.5-2.1c-0.8-1.2-2.3-1.6-3.6-0.7
		c-0.8,0.5-1.2,1.3-1.2,2.1c0,0.5,0.1,1,0.5,1.5l-1.2,0.8c-0.7-1.1-0.7-2-0.6-2.8c0.1-0.8,0.5-1.9,1.9-2.8c1.9-1.2,4.3-0.8,5.5,1.1
		c0.5,0.7,0.7,1.6,0.6,2.9c-0.1,0.9-0.2,2-0.3,2.8l-0.6,4.1l4.7-3l0.7,1.1L232.8,30.6z"/>
</g>
<g>
	<path class="st1" d="M268.1,395.9c0.8,0.2,2.4,0.9,3.6,2.8c2.1,3.3,1.1,7.3-2.1,9.4c-1.8,1.2-3.4,1.2-4.5,1.1l-0.5,2.1l-1.4-0.3
		l0.5-2.1c-1.7-0.6-2.8-1.8-3.5-2.8c-2.1-3.3-1.1-7.3,2.1-9.4c1-0.6,2.5-1.3,4.4-1.1l0.5-2.2l1.4,0.3L268.1,395.9z M266.3,397
		c-0.5,0-1.8-0.1-3.2,0.8c-2.5,1.6-3.2,4.9-1.6,7.4c0.9,1.4,2.1,1.9,2.7,2.2L266.3,397z M265.6,407.7c1.5,0.1,2.7-0.4,3.3-0.8
		c2.5-1.6,3.2-4.9,1.6-7.4c-0.5-0.8-1.4-1.8-2.8-2.2L265.6,407.7z"/>
	<path class="st1" d="M274.2,391.1l-1.9,1.2l-0.1-1.6l2.4-1.5l7,11l-1.2,0.8L274.2,391.1z"/>
	<path class="st1" d="M288.6,391.3l1.4-0.9l0.7,1.1l-1.4,0.9l1.3,2.1l-1.2,0.8l-1.3-2.1l-5.7,3.6l0.8-13.9L288.6,391.3z M287.3,392
		l-3.1-4.9l-0.4,7.1L287.3,392z"/>
	<path class="st1" d="M294.4,378.1l-3.5,2.3l0.8,2.8c0.2-0.2,0.4-0.3,0.7-0.5c2.2-1.4,4.7-0.6,6.1,1.5c1.6,2.5,0.7,5.1-1.5,6.5
		c-0.9,0.6-1.9,0.8-3,0.7c-0.5-0.1-1.1-0.2-1.7-0.5l0.5-1.3c0.4,0.2,0.8,0.4,1.3,0.4c0.7,0.1,1.4,0,2.2-0.5c1.6-1,1.9-3,0.9-4.6
		c-1-1.6-2.9-2-4.4-1c-0.4,0.3-1.1,0.8-1.6,2.1l-1.8-6.3l4.4-2.8L294.4,378.1z"/>
</g>
</svg>
