<?xml version="1.0" encoding="utf-8"?>
<!-- Generator: Adobe Illustrator 23.0.3, SVG Export Plug-In . SVG Version: 6.00 Build 0)  -->
<svg version="1.1"
	 id="svg253" xmlns:cc="http://creativecommons.org/ns#" xmlns:dc="http://purl.org/dc/elements/1.1/" xmlns:inkscape="http://www.inkscape.org/namespaces/inkscape" xmlns:rdf="http://www.w3.org/1999/02/22-rdf-syntax-ns#" xmlns:sodipodi="http://sodipodi.sourceforge.net/DTD/sodipodi-0.dtd" xmlns:svg="http://www.w3.org/2000/svg"
	 xmlns="http://www.w3.org/2000/svg" xmlns:xlink="http://www.w3.org/1999/xlink" x="0px" y="0px" viewBox="0 0 500 600"
	 style="enable-background:new 0 0 500 600;" xml:space="preserve">
<style type="text/css">
	.st0{fill:#4E86B9;stroke:#4E86B9;stroke-width:0.2687;stroke-miterlimit:10;}
	.st1{fill:#4E86B9;stroke:#4E86B9;stroke-width:0.4759;stroke-linecap:round;stroke-linejoin:round;stroke-miterlimit:10;}
	.st2{fill:#4E86B9;stroke:#4E86B9;stroke-width:0.2687;stroke-linecap:round;stroke-linejoin:round;stroke-miterlimit:10;}
	.st3{fill:#4E86B9;stroke:#4E86B9;stroke-width:1.1841;stroke-linecap:round;stroke-linejoin:round;stroke-miterlimit:10;}
	.st4{fill:none;stroke:#4E86B9;stroke-width:0.8922;stroke-linecap:round;stroke-linejoin:round;stroke-miterlimit:10;}
	.st5{fill:none;stroke:#4E86B9;stroke-width:0.4759;stroke-linecap:round;stroke-linejoin:round;stroke-miterlimit:10;}
	.st6{fill:#4E86B9;stroke:#4E86B9;stroke-width:1.1896;stroke-miterlimit:10;}
	.st7{fill:#4E86B9;stroke:#4E86B9;stroke-width:1.1841;stroke-linecap:round;stroke-linejoin:round;}
	.st8{fill:#4E86B9;stroke:#4E86B9;stroke-width:0.5948;stroke-miterlimit:10;}
	.st9{fill:#4E86B9;stroke:#4E86B9;stroke-width:0.5948;stroke-linecap:round;stroke-linejoin:round;stroke-miterlimit:10;}
	.st10{fill:#4E86B9;}
	.st11{fill:none;stroke:#4E86B9;stroke-width:0.4759;stroke-linecap:round;stroke-linejoin:round;}
	
		.st12{fill:none;stroke:#4E86B9;stroke-width:0.4759;stroke-linecap:round;stroke-linejoin:round;stroke-miterlimit:10;stroke-dasharray:56.8339,28.4169,4.7362,28.4169;}
</style>
<path id="path4" class="st1" d="M122.3,474.4L454.1,556"/>
<path id="path6" class="st1" d="M77.7,135v-98"/>
<path id="path10" class="st1" d="M100.1,141.9V71"/>
<path id="path12" class="st1" d="M403.9,480.1l50.3,12.3 M402.5,220.3l47.9,11.3"/>
<path id="path18" class="st1" d="M122.3,151.4v-44.1"/>
<path id="path20" class="st4" d="M121.3,303.5l0.1-0.1v-0.1 M76.9,149.6L76.9,149.6 M77.1,150.9l0.8,0.6l1.1,0.6l1.2,0.6l1.3,0.6
	l1.4,0.5l1.5,0.5l1.5,0.4l1.6,0.4 M87.2,155.3l1.7,0.3l1.7,0.3l1.8,0.2l1.8,0.2l1.8,0.1l1.8,0.1h1.9h1.9l1.8-0.1l1.8-0.1l1.8-0.2
	l1.8-0.2l1.7-0.3l1.7-0.3l1.6-0.4l1.6-0.4l1.5-0.5l1.4-0.5l1.3-0.6l1.2-0.6l1.1-0.6l1-0.7l0.2-0.2 M73.3,144.8v0.4l0.1,0.8l0.2,0.8
	l0.4,0.8l0.5,0.8l0.6,0.7l0.7,0.7l0.8,0.7l1,0.7l1.1,0.6l1.2,0.6l1.3,0.6l1.4,0.5l1.5,0.5l1.5,0.4l1.6,0.4 M87.2,155.2l1.7,0.4
	l1.7,0.3l1.7,0.3l1.8,0.2l1.8,0.1l1.8,0.1h1.8h1.8l1.8-0.1l1.8-0.1l1.8-0.2l1.8-0.2l1.7-0.3l1.7-0.3l1.6-0.4l1.6-0.4l1.5-0.5
	l1.4-0.5l1.3-0.5l1.3-0.6l1.2-0.6l1.1-0.6l1-0.7l0.8-0.7l0.6-0.7l0.5-0.7l0.4-0.8l0.3-0.8l0.2-0.8l0.1-0.8l0,0 M77.5,150v0.1v0.1
	l-0.1,0.1h-0.1l-0.1-0.1l-0.1-0.1l-0.1-0.1l-0.1-0.2v-0.2v-0.1 M76.9,149.6v-0.1v-0.1l0.1-0.1h0.1l0.1,0.1l0.1,0.1l0.1,0.1l0.1,0.2
	v0.2v0.1 M123.3,149.6v-0.1v-0.2l0.1-0.2l0.1-0.1l0.1-0.1h0.1h0.1v0.1v0.1v0.1v0.1v0.2l-0.1,0.2l-0.1,0.1l-0.1,0.1h-0.1h-0.1
	l-0.1-0.1L123.3,149.6L123.3,149.6 M112.6,131.2l1.6,0.4l1.5,0.4l1.4,0.5l1.4,0.5l1.3,0.6l1.2,0.6l1.1,0.6l1,0.7l0.8,0.7l0.7,0.7
	l0.6,0.7l0.4,0.7l0.3,0.8l0.2,0.8l0.1,0.8v0.8L126,143l-0.3,0.8l-0.4,0.7l-0.5,0.7l-0.6,0.7l-0.7,0.7l-1,0.7l-1.1,0.6l-1.2,0.6
	l-1.3,0.6l-1.3,0.5l-1.4,0.5l-1.5,0.5l-1.6,0.4l-1.6,0.4l-1.7,0.3l-1.7,0.3l-1.8,0.2l-1.8,0.2l-1.8,0.1l-1.8,0.1h-1.8l-1.8-0.1
	l-1.8-0.1l-1.8-0.2l-1.7-0.2l-1.7-0.3l-1.7-0.3l-1.6-0.4l-1.5-0.4l-1.5-0.5l-1.4-0.5l-1.3-0.5l-1.2-0.6l-1.1-0.6l-1-0.6l-0.8-0.7
	l-0.7-0.7l-0.6-0.7l-0.5-0.7l-0.4-0.8l-0.3-0.8l-0.1-0.8v-0.8l0.1-0.8l0.2-0.8l0.3-0.8l0.5-0.7l0.6-0.7l0.7-0.7l0.8-0.7l1-0.7
	l1.1-0.6l1.2-0.6l1.3-0.6l1.4-0.5l1.5-0.5l1.5-0.4l1.6-0.4l1.6-0.3l1.7-0.3l1.7-0.2l1.8-0.2L97,130l1.8-0.1h1.8h1.8l1.8,0.1l1.8,0.1
	l1.8,0.2l1.7,0.2l1.7,0.3L112.6,131.2 M86.6,131.5L86.6,131.5l-1.7,0.4l-1.5,0.5l-1.4,0.5l-1.3,0.5l-1.3,0.6l-1.2,0.6l-1.1,0.6
	l-1,0.7l-0.8,0.7l-0.6,0.7l-0.5,0.7l-0.4,0.8l-0.3,0.8l-0.2,0.8l-0.1,0.8l0.1,0.8l0.2,0.8l0.3,0.8l0.4,0.8l0.5,0.7l0.6,0.7l0.8,0.7
	l1,0.7l1.1,0.6l1.2,0.6l1.3,0.6l1.3,0.5l1.4,0.5l1.5,0.5l1.6,0.4l1.6,0.4l1.7,0.3l1.7,0.3l1.8,0.2l1.8,0.2l1.8,0.1l1.8,0.1h1.8h1.8
	l1.8-0.1l1.8-0.1l1.8-0.2l1.8-0.3l1.7-0.3l1.7-0.4l1.6-0.4l1.5-0.4l1.5-0.5l1.4-0.5l1.3-0.6l1.2-0.6l1.1-0.6l1-0.7l0.8-0.7l0.7-0.7
	l0.6-0.7l0.5-0.7l0.4-0.8l0.2-0.8l0.1-0.8v-0.8l-0.1-0.8l-0.2-0.8l-0.4-0.8l-0.5-0.8l-0.6-0.7l-0.7-0.7l-0.8-0.7l-0.8-0.5l-1.1-0.6
	l-1.2-0.6l-1.3-0.6l-1.4-0.5l-1.5-0.5l-1.5-0.4l-1-0.3 M122.2,474.7l-0.2,0.1l-1,0.6l-1.1,0.6l-1.2,0.6l-1.3,0.5l-1.4,0.5l-1.5,0.5
	l-1.5,0.4l-1.6,0.4l-1.6,0.3l-1.7,0.3l-1.7,0.2l-1.8,0.2l-1.8,0.1l-1.8,0.1h-1.8l-1.8-0.1l-1.8-0.1L94,480l-1.7-0.2l-1.7-0.3
	l-1.6-0.3l-1.6-0.4l-1.5-0.4l-1.5-0.5l-1.4-0.5l-1.3-0.5l-1.2-0.6l-1.1-0.6l-1-0.6l-0.1-0.1 M125.4,470.9L125.4,470.9l-0.4,0.8
	l-0.4,0.7l-0.6,0.7l-0.7,0.7l-0.8,0.7l-1,0.6l-1.1,0.6l-1.2,0.6l-1.3,0.5l-1.4,0.5l-1.5,0.5l-1.5,0.4L112,479l-1.7,0.3l-1.7,0.3
	l-1.7,0.2l-1.8,0.2l-1.8,0.1l-1.8,0.1h-1.8l-1.8-0.1l-1.8-0.1l-1.8-0.2l-1.7-0.2l-1.7-0.3l-1.7-0.3l-1.6-0.4l-1.5-0.4l-1.5-0.5
	l-1.4-0.5l-1.3-0.5l-1.2-0.6l-1.1-0.6l-1-0.6l-0.8-0.7l-0.7-0.7l-0.6-0.7l-0.5-0.7l-0.4-0.7v-0.1 M122,474.1l-0.6,0.4 M123.9,472.4
	L123.9,472.4l-0.3,0.4 M122,474l-0.4,0.3l-0.2,0.1 M123.6,472.6l0.3-0.4 M121.4,474.4l0.3-0.2l0.3-0.2 M121.6,470.1L121.6,470.1
	l-0.1,0.1 M124.3,472.5l-0.3-0.1 M122,301.2L122,301.2 M124.3,468.2l-0.1,0.1l-0.2,0.1h-0.2h-0.1 M121.5,470.4L121.5,470.4
	L121.5,470.4l-0.1,0.2 M123.9,468.3v4 M74.7,468.2v0.3l0.1,0.8l0.2,0.8l0.4,0.7l0.5,0.7l0.6,0.7l0.7,0.7l0.8,0.7l1,0.6l1.1,0.6
	l1.2,0.6l1.3,0.5l1.4,0.5l1.5,0.5l1.5,0.4l1.6,0.4l1.7,0.3l1.7,0.3l1.8,0.2l1.8,0.2l1.8,0.1l1.8,0.1h1.8h1.8l1.8-0.1l1.8-0.2
	l1.8-0.2l1.7-0.3l1.7-0.3l1.6-0.4l1.6-0.4l1.5-0.5l1.4-0.5l1.3-0.5l1.2-0.6l1.1-0.6 M124.3,472.5l0.6-0.7l0.5-0.7l0.4-0.8l0.2-0.8
	l0.1-0.8v-0.3 M121.4,470.6v4.2 M124.3,472.5v-4.2 M77.4,149.9l-0.2,0.1 M77.3,149.6l-0.2,0.1 M77.1,150l0.2,0.1 M77.1,150l-0.1-0.3
	 M77.1,149.5l-0.1,0.2 M77.1,149.5l0.2,0.1 M77.3,149.6l0.1,0.3 M77.3,150.1l0.1-0.2 M76.9,149.7v0.2v0.2l0.1,0.1l0.1,0.1h0.1h0.1
	v-0.1v-0.1v-0.2v-0.2l-0.1-0.1l-0.1-0.1h-0.1h-0.1v0.1V149.7 M123.5,149.2l0.2,0.1 M123.4,149.5l0.2,0.1 M123.5,149.6l0.1-0.1
	 M123.5,149.6l-0.1-0.2 M123.5,149.2l-0.1,0.3 M123.5,149.2l0.1-0.1 M123.6,149.1l0.1,0.2 M123.6,149.5l0.1-0.3 M123.4,149.5v0.1
	v0.1h0.1h0.1l0.1-0.1l0.1-0.1v-0.2v-0.2V149v-0.1h-0.1h-0.1l-0.1,0.1l-0.1,0.1v0.2V149.5 M122,474.3v-4 M122.3,474.4l-0.3-0.1
	 M123.6,469.1L123.6,469.1l0.1-0.1l0,0 M121.8,303.6v-0.3 M123.6,473.3v-4.2 M122.1,303.7v-0.3 M122.3,474.4v-4.2 M122.3,474.4
	l1.3-1 M121.5,302.9h-0.2 M121.5,302.5h-0.2 M121.3,303.6L121.3,303.6 M121.8,303.3L121.8,303.3v-0.1v-0.1V303l0,0h-0.1h-0.1h-0.1
	 M122.1,303.3v-0.1v-0.1L122,303l-0.1-0.1l-0.1-0.1l-0.1-0.1l-0.1-0.1h-0.1 M121.4,303.6L121.4,303.6h0.1h0.1h0.1h0.1h0.1h0.1l0,0
	 M121.8,303.6l0.3,0.1 M121.6,470.2L121.6,470.2h0.1h0.1h0.1h0.1h0.1h0.1 M121.3,303.8h0.1h0.1h0.1h0.1h0.1h0.1l0.1-0.1
	 M121.3,301.6L121.3,301.6l0.1-0.2 M121.3,301.1L121.3,301.1l0.1-0.2l-0.1-0.1 M121.3,301L121.3,301v-0.2v-0.1 M410.4,474.9
	l-0.1,0.7l-0.2,0.7l-0.3,0.6l-0.4,0.5l-0.4,0.4 M410.2,225.2l0.3,249.7 M123.6,150.4l281.7,68.7 M404,480l-274.8-67 M404,480
	l0.7,0.1h0.7l0.7-0.1l0.6-0.2l0.5-0.3l0.5-0.4l0.4-0.5l0.3-0.6l0.2-0.7l0.1-0.7 M408.4,226.6l0.3,249.7 M121.7,151.8l281.9,68.8
	 M121.3,300.6l0.2,0.1l0.6,0.5l0.5,0.6l0.5,0.7l0.4,0.7l0.3,0.7l0.2,0.8l0.1,0.7 M124.3,406.9l-0.1-101.2 M124.3,406.9l0.1,0.7
	l0.2,0.7l0.3,0.7l0.4,0.7l0.5,0.7l0.5,0.6l0.6,0.5l0.7,0.4l0.7,0.3l0.7,0.2 M405.3,219.2l0.7,0.2l0.7,0.3l0.7,0.4l0.6,0.5l0.5,0.6
	l0.5,0.7l0.4,0.7l0.3,0.7l0.2,0.7l0.1,0.7 M408.4,226.7l-0.1-0.7l-0.2-0.7l-0.3-0.7l-0.4-0.7l-0.5-0.7l-0.5-0.6l-0.6-0.5l-0.7-0.4
	l-0.7-0.3l-0.7-0.2 M121.5,303.2v-0.4 M123.2,150.8l0.1-0.1 M76.8,150.8l0.1,0.1 M126.9,144.7v-3 M73.3,141.9v3 M87,131.4l-0.5,0.1
	 M113.6,131.5l-0.5-0.1 M122.2,474.7l0.1-0.1 M78.4,474.7l0.1,0.1 M121.5,470.4l-0.3-318.2 M74.4,148.1l0.3,320.1 M125.8,151v-2.9
	 M126.2,468.1l-0.1-57 M77.1,150L77.1,150 M76.9,149.7L76.9,149.7 M123.8,149.2L123.8,149.2 M123.6,149.7L123.6,149.7 M123.7,469
	l-0.2-165.8 M122.1,301.3l-0.7-0.2 M121.4,301.4V301 M407.4,479.4l1.8-1.4"/>
<g id="XMLID_1_">
	<g id="g24">
		<line id="line22" class="st5" x1="44.7" y1="191.3" x2="120.2" y2="121.8"/>
	</g>
</g>
<path id="path27" class="st6" d="M122.8,134.4c0,0.6,0.6,1.3,1.4,1.3"/>
<g id="XMLID_3_">
	<g id="g31">
		<line id="line29" class="st5" x1="122.3" y1="117.1" x2="403.9" y2="187.1"/>
	</g>
</g>
<g id="XMLID_8_">
	<g id="g40">
		<line id="line36" class="st5" x1="76.6" y1="47.5" x2="404.2" y2="128.9"/>
		<line id="line38" class="st5" x1="410.4" y1="225.2" x2="410.4" y2="114.8"/>
	</g>
</g>
<g id="XMLID_7_">
	<g id="g47">
		<line id="line45" class="st5" x1="403.9" y1="158.1" x2="100.1" y2="81.3"/>
	</g>
</g>
<g id="XMLID_9_">
	<g id="g56">
		<path id="path52" class="st8" d="M408.9,411.2l-6.5,7.6c0-0.8-0.3-1.5-0.8-2l6-5l1.2-0.7L408.9,411.2z"/>
		<path id="path54" class="st8" d="M407.7,411.8l-6,5c-0.4-0.4-1-0.6-1.6-0.6L407.7,411.8z"/>
	</g>
	<g id="g60">
		<polyline id="polyline58" class="st9" points="383.2,432.2 401.6,416.8 407.7,411.8 426.8,396 		"/>
	</g>
</g>
<g id="XMLID_10_">
	<g id="g67">
		<path id="path65" class="st6" d="M419.7,404.4l-8.8,5.1l-0.1-0.1l6.5-7.6C417.2,403.2,418.3,404.4,419.7,404.4z"/>
	</g>
</g>
<g id="XMLID_11_">
	<g id="g72">
		<line id="line70" class="st5" x1="442.6" y1="238.2" x2="443.3" y2="480.4"/>
	</g>
</g>
<g id="XMLID_12_">
	<g id="g77">
		<path id="path75" class="st10" d="M440.5,242.2l1.9-12.3l2.2,12.3c-0.2-0.5-1.1-1-2-1C441.5,241.2,440.7,241.7,440.5,242.2z"/>
	</g>
</g>
<g id="XMLID_15_">
	<g id="g82">
		<path id="path80" class="st10" d="M443.3,552.5l-2.2-12.3c0.2,0.5,1.1,1,2,1c1.1,0,1.9-0.4,2.1-1L443.3,552.5z"/>
	</g>
</g>
<g id="XMLID_16_">
	<g id="g87">
		<path id="path85" class="st10" d="M442.8,478c1.1,0,1.9-0.4,2.1-1l-1.9,12.3l-2.2-12.3C440.9,477.6,441.7,478,442.8,478z"/>
	</g>
</g>
<line id="line90" class="st11" x1="44.7" y1="520.1" x2="89.1" y2="479.2"/>
<line id="line96" class="st11" x1="52.2" y1="191.6" x2="51.9" y2="506.6"/>
<g id="XMLID_18_">
	<g id="g100">
		<path id="path98" class="st10" d="M52.2,195.8c-1,0-1.8,0.3-2,0.8l0,0l1.9-12.2l2.2,12.3C54.1,196.2,53.2,195.8,52.2,195.8z"/>
	</g>
</g>
<line id="line103" class="st12" x1="100.1" y1="141.9" x2="100.1" y2="500.7"/>
<g id="XMLID_2_">
	<g id="g107">
		<path id="path105" class="st10" d="M445,501.6l-1.9-12.3l-2.2,12.3c0.2-0.5,1.1-1,2-1C444,500.7,444.8,501.1,445,501.6z"/>
	</g>
</g>
<line id="line130" class="st5" x1="443.1" y1="497.1" x2="443.1" y2="544.2"/>
<g id="XMLID_4_">
	<g id="g210">
		<path id="path208" class="st10" d="M95.5,144c0.6,0.7,1.5,1.1,2,1l0,0l-10.2,6.8l7.5-10C94.6,142.4,94.8,143.2,95.5,144z"/>
	</g>
</g>
<g id="XMLID_5_">
	<g id="g215">
		<path id="path213" class="st10" d="M133.3,120.1c-0.3,1-0.2,1.8,0.2,2.2l0,0l-11.1-5.2l12.4,1.3
			C134.2,118.4,133.6,119.2,133.3,120.1z"/>
	</g>
</g>
<g id="XMLID_6_">
	<g id="g220">
		<path id="path218" class="st10" d="M111,84.4c-0.3,1-0.2,1.8,0.2,2.2l0,0l-11.1-5.2l12.4,1.3C112,82.7,111.3,83.4,111,84.4z"/>
	</g>
</g>
<g id="XMLID_13_">
	<g id="g225">
		<path id="path223" class="st10" d="M88.4,50.4c-0.3,1-0.2,1.8,0.2,2.2l0,0l-11.1-5.2l12.4,1.3C89.3,48.7,88.6,49.5,88.4,50.4z"/>
	</g>
</g>
<g id="XMLID_14_">
	<g id="g230">
		<path id="path228" class="st10" d="M399.4,127.5c0.2-1,0.1-1.8-0.2-2.2l0,0l11.2,5l-12.4-1C398.6,129.2,399.2,128.5,399.4,127.5z"
			/>
	</g>
</g>
<g id="XMLID_19_">
	<g id="g235">
		<path id="path233" class="st10" d="M399.4,156.8c0.2-1,0.1-1.8-0.2-2.2l0,0l11.2,5l-12.4-1C398.6,158.5,399.2,157.8,399.4,156.8z"
			/>
	</g>
</g>
<g id="XMLID_20_">
	<g id="g240">
		<path id="path238" class="st10" d="M399.8,186c0.2-1,0.1-1.8-0.2-2.2l0,0l11.2,5l-12.4-1C399,187.7,399.5,186.9,399.8,186z"/>
	</g>
</g>
<g id="XMLID_17_">
	<g id="g245">
		<path id="path243" class="st10" d="M51.9,502.1c1,0,1.8-0.3,2.1-0.7l0,0l-2.1,12.1l-2.1-12.3C50,501.6,50.9,502.1,51.9,502.1z"/>
	</g>
</g>
<g id="XMLID_21_">
	<g id="g250">
		<path id="path248" class="st10" d="M102,138.6c-0.6-0.7-1.4-1.2-2-1.1l0,0l10.4-6.6l-7.7,9.8C102.8,140.3,102.6,139.3,102,138.6z"
			/>
	</g>
</g>
<g>
	<path class="st10" d="M231.1,70.7l-5.1-1.3l0.3-0.9l6.8,1.8l-8.7,7.9l-0.7-0.8L231.1,70.7z"/>
	<path class="st10" d="M233.4,79.8l2.9-2.4c-0.3,0-0.6,0-0.9-0.1c-1.8-0.5-2.7-2.1-2.2-3.9c0.5-1.9,2.2-2.8,4-2.3
		c2.2,0.6,2.8,2.6,2.4,4c-0.1,0.3-0.4,1.2-1.3,1.9l-4.3,3.5L233.4,79.8z M234.3,73.7c-0.3,1.2,0.4,2.4,1.6,2.7s2.4-0.4,2.7-1.6
		c0.3-1.2-0.3-2.5-1.6-2.8C235.8,71.7,234.6,72.4,234.3,73.7z"/>
	<path class="st10" d="M247.6,75l-3-0.8l-1.1,1.9c0.2,0,0.4,0,0.6,0.1c1.9,0.5,2.7,2.2,2.2,4c-0.6,2.1-2.5,2.9-4.3,2.5
		c-0.8-0.2-1.4-0.6-1.9-1.3c-0.2-0.3-0.4-0.7-0.6-1.2l1-0.4c0.1,0.3,0.2,0.6,0.4,0.9c0.3,0.4,0.7,0.8,1.4,1c1.3,0.3,2.6-0.5,2.9-1.8
		c0.4-1.3-0.4-2.5-1.7-2.9c-0.3-0.1-1-0.2-2,0.2l2.5-4.1l3.7,1L247.6,75z"/>
	<path class="st10" d="M255.8,75.5c-0.4,0.6-0.9,1.3-1.4,2.2c-0.6,1.1-1,2.2-1.3,3.4c-0.3,1.1-0.5,2.2-0.6,3.5c-0.1,1,0,1.9,0,2.7
		l-1,0.2c-0.2-1.8-0.1-3.2-0.1-3.4c0.1-1.1,0.3-2.3,0.6-3.3c0.2-0.9,0.7-2.2,1.4-3.5c0.4-0.8,1.1-1.8,1.5-2.5L255.8,75.5z"/>
	<path class="st10" d="M259.9,78.3l-1.6-0.4l0.8-0.8l2.1,0.5l-2.5,9.3l-1-0.3L259.9,78.3z"/>
	<path class="st10" d="M263.8,87c-0.4-1.1-0.4-2.3,0-3.7c0.4-1.3,1-2.4,1.8-3.2c1-0.8,2-1,2.8-0.8c0.7,0.2,1.6,0.8,2,2
		c0.4,1.1,0.4,2.3,0,3.7c-0.4,1.3-1,2.4-1.8,3.2c-1,0.8-2,1-2.8,0.8C265.1,88.8,264.3,88.2,263.8,87z M266.3,80.9
		c-0.7,0.7-1.2,1.7-1.4,2.7c-0.3,1-0.4,2.1-0.1,3c0.3,0.9,0.9,1.3,1.3,1.5c0.5,0.1,1.2,0,1.9-0.6c0.7-0.7,1.2-1.7,1.4-2.7
		c0.3-1,0.4-2.1,0.1-3c-0.3-0.9-0.9-1.3-1.3-1.5C267.7,80.2,267,80.3,266.3,80.9z"/>
	<path class="st10" d="M276.7,88.8l1.1,0.3l-0.3,0.9l-1.1-0.3l-0.5,1.8l-1-0.3l0.5-1.8l-4.8-1.3l7.9-6.5L276.7,88.8z M275.6,88.5
		l1.1-4.1l-4,3.3L275.6,88.5z"/>
	<path class="st10" d="M286.7,85.4l-3-0.8l-1.1,1.8c0.2,0,0.4,0,0.6,0.1c1.9,0.5,2.7,2.2,2.2,4c-0.6,2.1-2.4,2.9-4.3,2.5
		c-0.8-0.2-1.4-0.6-1.9-1.3c-0.2-0.3-0.4-0.7-0.6-1.2l1-0.4c0.1,0.3,0.2,0.6,0.4,0.9c0.3,0.4,0.7,0.8,1.4,1c1.3,0.3,2.6-0.5,2.9-1.8
		c0.4-1.3-0.4-2.5-1.7-2.9c-0.3-0.1-1-0.2-2,0.2l2.5-4.1l3.7,1L286.7,85.4z"/>
	<path class="st10" d="M290.2,84.2c0.1,0.8,0.1,1.9,0.1,2.9c0,1.5-0.3,2.8-0.6,3.7c-0.3,1-0.7,2.2-1.1,3.2c-0.1,0.2-0.7,1.5-1.8,2.9
		l-0.8-0.6c0.5-0.7,1-1.5,1.4-2.4c0.6-1.2,0.9-2.2,1.2-3.3c0.3-1.2,0.5-2.3,0.6-3.6c0.1-1,0-1.9-0.1-2.6L290.2,84.2z"/>
</g>
<g>
	<path class="st10" d="M427.3,358.3l0,6.4l-1.2,0l0-8.6l11.9,7.9l-0.7,1L427.3,358.3z"/>
	<path class="st10" d="M437.4,352.8l-3.7-2.7c0.1,0.3,0.2,0.7,0.2,1c0,2.2-1.7,3.8-3.9,3.8c-2.3,0-4-1.7-4-4c0-2.8,2.2-4,4-4
		c0.4,0,1.5,0.1,2.7,1l5.5,4L437.4,352.8z M429.9,353.6c1.6,0,2.7-1.1,2.7-2.7s-1.2-2.7-2.7-2.7c-1.6,0-2.8,1.1-2.8,2.7
		C427.1,352.5,428.3,353.6,429.9,353.6z"/>
	<path class="st10" d="M427.4,337.5l0,3.8l2.5,0.8c-0.1-0.2-0.1-0.5-0.1-0.7c0-2.4,1.8-3.9,4.1-3.8c2.6,0,4.2,2,4.2,4.3
		c0,0.9-0.3,1.8-0.9,2.6c-0.3,0.4-0.7,0.7-1.2,1l-0.7-1c0.4-0.2,0.7-0.4,1-0.8c0.4-0.5,0.7-1.1,0.7-1.9c0-1.6-1.3-2.9-3-2.9
		c-1.7,0-2.9,1.2-2.9,2.9c0,0.4,0.1,1.2,0.8,2.3l-5.6-1.7l0-4.7L427.4,337.5z"/>
</g>
<g>
	<path class="st10" d="M437.7,533.3l-4.9-4.3c-0.4-0.3-1.3-1.1-1.7-1.4c-0.8-0.5-1.3-0.7-1.8-0.7c-1.3,0-2.3,0.9-2.3,2.3
		c0,0.8,0.4,1.5,1,2c0.4,0.2,0.8,0.4,1.4,0.4l0,1.3c-1.2-0.1-1.9-0.4-2.4-0.9c-0.6-0.5-1.2-1.3-1.2-2.8c0-2.1,1.5-3.6,3.5-3.6
		c0.8,0,1.5,0.2,2.5,0.9c0.7,0.5,1.4,1.1,1.9,1.6l2.7,2.5l0-4.9l1.2,0L437.7,533.3z"/>
	<path class="st10" d="M436.3,522.2c-1.1,0.8-2.6,1.2-4.3,1.2s-3.2-0.4-4.3-1.2c-1.3-0.9-1.7-2.1-1.7-3s0.5-2.1,1.8-3
		c1.1-0.8,2.6-1.2,4.3-1.2s3.2,0.4,4.3,1.2c1.3,0.9,1.7,2.1,1.7,3S437.6,521.3,436.3,522.2z M428.4,521.2c1,0.6,2.3,0.9,3.6,0.9
		c1.2,0,2.6-0.2,3.6-0.8c1-0.6,1.3-1.4,1.3-2s-0.3-1.4-1.3-2c-1-0.6-2.3-0.9-3.6-0.9c-1.2,0-2.6,0.2-3.6,0.8c-1,0.6-1.3,1.4-1.3,2
		S427.4,520.5,428.4,521.2z"/>
	<path class="st10" d="M436.3,512.2c-1.1,0.8-2.6,1.2-4.3,1.2s-3.2-0.4-4.3-1.2c-1.3-0.9-1.7-2.1-1.7-3s0.5-2.1,1.8-3
		c1.1-0.8,2.6-1.2,4.3-1.2s3.2,0.4,4.3,1.2c1.3,0.9,1.7,2.1,1.7,3S437.6,511.3,436.3,512.2z M428.4,511.2c1,0.6,2.3,0.9,3.6,0.9
		c1.2,0,2.6-0.2,3.6-0.8c1-0.6,1.3-1.4,1.3-2s-0.3-1.4-1.3-2c-1-0.6-2.3-0.9-3.6-0.9c-1.2,0-2.6,0.2-3.6,0.8c-1,0.6-1.3,1.4-1.3,2
		S427.5,510.6,428.4,511.2z"/>
</g>
<g>
	<path class="st10" d="M379.1,417.9l-1.6,1.2l-0.2-1.4l2.1-1.6l7,9.4l-1,0.8L379.1,417.9z"/>
	<path class="st10" d="M390.3,420.7c-1.3-0.4-2.5-1.4-3.5-2.7s-1.6-2.8-1.6-4.2c-0.1-1.6,0.6-2.7,1.4-3.2c0.7-0.6,2-0.9,3.5-0.4
		c1.3,0.4,2.5,1.4,3.5,2.7c1,1.3,1.6,2.8,1.6,4.2c0.1,1.6-0.6,2.7-1.4,3.2C393,420.8,391.8,421.2,390.3,420.7z M386.4,413.8
		c0.1,1.2,0.7,2.4,1.4,3.4c0.7,1,1.7,1.9,2.8,2.3c1.1,0.4,1.9,0.2,2.4-0.2c0.5-0.4,0.9-1.1,0.8-2.3c-0.1-1.2-0.7-2.4-1.4-3.4
		c-0.7-1-1.7-1.9-2.8-2.3c-1.1-0.4-1.9-0.2-2.4,0.2C386.8,411.9,386.3,412.6,386.4,413.8z"/>
</g>
<g>
	<path class="st10" d="M234.6,101.6l-5.1-1.3l0.3-0.9l6.8,1.8l-8.7,7.9l-0.7-0.8L234.6,101.6z"/>
	<path class="st10" d="M235,110.6l4.4-3c0.3-0.2,1.1-0.8,1.4-1.1c0.6-0.5,0.8-0.9,0.9-1.3c0.3-1-0.3-2-1.4-2.3
		c-0.7-0.2-1.3,0-1.8,0.4c-0.3,0.2-0.5,0.5-0.6,1l-1-0.3c0.3-0.9,0.7-1.4,1.2-1.7c0.5-0.3,1.3-0.7,2.5-0.4c1.6,0.4,2.6,1.9,2.1,3.5
		c-0.2,0.6-0.5,1.2-1.3,1.8c-0.5,0.4-1.2,0.9-1.7,1.2l-2.5,1.7l3.9,1l-0.3,0.9L235,110.6z"/>
	<path class="st10" d="M244.1,111.7c-0.4-1.1-0.4-2.3,0-3.7c0.4-1.3,1-2.4,1.8-3.2c1-0.8,2-1,2.8-0.8c0.7,0.2,1.6,0.8,2,2
		c0.4,1.1,0.4,2.3,0,3.7c-0.4,1.3-1,2.4-1.8,3.2c-1,0.8-2,1-2.8,0.8C245.4,113.6,244.6,113,244.1,111.7z M246.6,105.7
		c-0.7,0.7-1.2,1.7-1.4,2.7c-0.3,1-0.4,2.1-0.1,3c0.3,0.9,0.9,1.3,1.3,1.5c0.5,0.1,1.2,0,1.9-0.6c0.7-0.7,1.2-1.7,1.4-2.7
		c0.3-1,0.4-2.1,0.1-3c-0.3-0.9-0.9-1.3-1.3-1.5C248,105,247.3,105,246.6,105.7z"/>
	<path class="st10" d="M259.3,106.4c-0.4,0.6-0.9,1.3-1.4,2.2c-0.6,1.1-1,2.2-1.3,3.4c-0.3,1.1-0.5,2.2-0.6,3.5c-0.1,1,0,1.9,0,2.7
		l-1,0.2c-0.2-1.8-0.1-3.2-0.1-3.4c0.1-1.1,0.3-2.3,0.6-3.3c0.2-0.9,0.7-2.2,1.4-3.5c0.4-0.8,1.1-1.8,1.5-2.5L259.3,106.4z"/>
	<path class="st10" d="M260.1,116.9l2.9-2.4c-0.3,0-0.6,0-0.9-0.1c-1.8-0.5-2.7-2.1-2.2-3.9c0.5-1.9,2.2-2.8,4-2.3
		c2.2,0.6,2.8,2.6,2.4,4c-0.1,0.3-0.4,1.2-1.3,1.9l-4.3,3.5L260.1,116.9z M261,110.8c-0.3,1.2,0.4,2.4,1.6,2.7
		c1.3,0.3,2.4-0.4,2.7-1.6c0.3-1.2-0.3-2.5-1.6-2.8C262.5,108.8,261.3,109.5,261,110.8z"/>
	<path class="st10" d="M273.7,111.9l-5.1-1.3l0.3-0.9l6.8,1.8l-8.7,7.9l-0.7-0.8L273.7,111.9z"/>
	<path class="st10" d="M275.3,120c-0.4-1.1-0.4-2.3,0-3.7c0.4-1.3,1-2.4,1.8-3.2c1-0.8,2-1,2.8-0.8c0.7,0.2,1.6,0.8,2,2
		c0.4,1.1,0.4,2.3,0,3.7c-0.4,1.3-1,2.4-1.8,3.2c-1,0.8-2,1-2.8,0.8C276.6,121.8,275.7,121.2,275.3,120z M277.7,113.9
		c-0.7,0.7-1.2,1.7-1.4,2.7s-0.4,2.1-0.1,3c0.3,0.9,0.9,1.3,1.3,1.5c0.5,0.1,1.2,0,1.9-0.6c0.7-0.7,1.2-1.7,1.4-2.7
		c0.3-1,0.4-2.1,0.1-3c-0.3-0.9-0.9-1.3-1.3-1.5C279.1,113.2,278.4,113.3,277.7,113.9z"/>
	<path class="st10" d="M285.8,113c0.1,0.8,0.1,1.9,0.1,2.9c0,1.5-0.3,2.8-0.6,3.7c-0.3,1-0.7,2.2-1.1,3.2c-0.1,0.2-0.7,1.5-1.8,2.9
		l-0.8-0.6c0.5-0.7,1-1.5,1.4-2.4c0.6-1.2,0.9-2.2,1.2-3.3c0.3-1.2,0.5-2.3,0.6-3.6c0.1-1,0-1.9-0.1-2.6L285.8,113z"/>
</g>
<g>
	<path class="st10" d="M235.7,131l-2.9,2.4c0.3,0,0.6,0,0.9,0.1c1.8,0.5,2.7,2.1,2.2,3.9c-0.5,1.9-2.2,2.8-4,2.3
		c-2.2-0.6-2.8-2.6-2.4-4c0.1-0.3,0.4-1.1,1.3-1.9l4.3-3.6L235.7,131z M234.8,137.2c0.3-1.2-0.4-2.4-1.6-2.7
		c-1.3-0.3-2.4,0.4-2.7,1.6c-0.3,1.2,0.3,2.5,1.6,2.8C233.4,139.2,234.5,138.4,234.8,137.2z"/>
	<path class="st10" d="M244.7,134.1l-3-0.8l-1.1,1.8c0.2,0,0.4,0,0.6,0.1c1.9,0.5,2.7,2.2,2.2,4c-0.6,2.1-2.4,2.9-4.3,2.5
		c-0.8-0.2-1.4-0.6-1.9-1.3c-0.2-0.3-0.4-0.7-0.6-1.2l1-0.4c0.1,0.3,0.2,0.6,0.4,0.9c0.3,0.4,0.7,0.8,1.4,1c1.3,0.3,2.6-0.5,2.9-1.8
		c0.4-1.3-0.4-2.5-1.7-2.9c-0.3-0.1-1-0.2-2,0.2l2.5-4.1l3.7,1L244.7,134.1z"/>
	<path class="st10" d="M245.7,141.9c-0.4-1.1-0.4-2.3,0-3.7c0.4-1.3,1-2.4,1.8-3.2c1-0.8,2-1,2.8-0.8c0.7,0.2,1.6,0.8,2,2
		c0.4,1.1,0.4,2.3,0,3.7c-0.4,1.3-1,2.4-1.8,3.2c-1,0.8-2,1-2.8,0.8C246.9,143.8,246.1,143.2,245.7,141.9z M248.1,135.9
		c-0.7,0.7-1.2,1.7-1.4,2.7c-0.3,1-0.4,2.1-0.1,3c0.3,0.9,0.9,1.3,1.3,1.5c0.5,0.1,1.2,0,1.9-0.6c0.7-0.7,1.2-1.7,1.4-2.7
		c0.3-1,0.4-2.1,0.1-3c-0.3-0.9-0.9-1.3-1.3-1.5C249.5,135.2,248.8,135.2,248.1,135.9z"/>
	<path class="st10" d="M260.8,136.6c-0.4,0.6-0.9,1.3-1.4,2.2c-0.6,1.1-1,2.2-1.3,3.4c-0.3,1.1-0.5,2.2-0.6,3.5c-0.1,1,0,1.9,0,2.7
		l-1,0.2c-0.2-1.8-0.1-3.2-0.1-3.4c0.1-1.1,0.3-2.3,0.6-3.3c0.2-0.9,0.7-2.2,1.4-3.5c0.4-0.8,1.1-1.8,1.5-2.5L260.8,136.6z"/>
	<path class="st10" d="M261.6,147.1l2.9-2.4c-0.3,0-0.6,0-0.9-0.1c-1.8-0.5-2.7-2.1-2.2-3.9c0.5-1.9,2.2-2.8,4-2.3
		c2.2,0.6,2.8,2.6,2.4,4c-0.1,0.3-0.4,1.2-1.3,1.9l-4.3,3.5L261.6,147.1z M262.5,141c-0.3,1.2,0.4,2.4,1.6,2.7s2.4-0.4,2.7-1.6
		c0.3-1.2-0.3-2.5-1.6-2.8C264,139,262.8,139.7,262.5,141z"/>
	<path class="st10" d="M268.9,148.1c-0.4-1.1-0.4-2.3,0-3.7s1-2.4,1.8-3.2c1-0.8,2-1,2.8-0.8c0.7,0.2,1.6,0.8,2,2
		c0.4,1.1,0.4,2.3,0,3.7c-0.4,1.3-1,2.4-1.8,3.2c-1,0.8-2,1-2.8,0.8C270.1,149.9,269.3,149.3,268.9,148.1z M271.3,142
		c-0.7,0.7-1.2,1.7-1.4,2.7c-0.3,1-0.4,2.1-0.1,3c0.3,0.9,0.9,1.3,1.3,1.5c0.5,0.1,1.2,0,1.9-0.6c0.7-0.7,1.2-1.7,1.4-2.7
		s0.4-2.1,0.1-3c-0.3-0.9-0.9-1.3-1.3-1.5C272.7,141.3,272,141.4,271.3,142z"/>
	<path class="st10" d="M276.8,150.2c-0.4-1.1-0.4-2.3,0-3.7c0.4-1.3,1-2.4,1.8-3.2c1-0.8,2-1,2.8-0.8c0.7,0.2,1.6,0.8,2,2
		c0.4,1.1,0.4,2.3,0,3.7s-1,2.4-1.8,3.2c-1,0.8-2,1-2.8,0.8C278.1,152,277.2,151.4,276.8,150.2z M279.2,144.1
		c-0.7,0.7-1.2,1.7-1.4,2.7s-0.4,2.1-0.1,3c0.3,0.9,0.9,1.3,1.3,1.5c0.5,0.1,1.2,0,1.9-0.6c0.7-0.7,1.2-1.7,1.4-2.7
		c0.3-1,0.4-2.1,0.1-3c-0.3-0.9-0.9-1.3-1.3-1.5C280.6,143.4,279.9,143.5,279.2,144.1z"/>
	<path class="st10" d="M287.3,143.2c0.1,0.8,0.1,1.9,0.1,2.9c0,1.5-0.3,2.8-0.6,3.7c-0.3,1-0.7,2.2-1.2,3.2
		c-0.1,0.2-0.7,1.5-1.8,2.9l-0.8-0.6c0.5-0.7,1-1.5,1.4-2.4c0.6-1.2,0.9-2.2,1.2-3.3c0.3-1.2,0.5-2.3,0.6-3.6c0.1-1,0-1.9-0.1-2.6
		L287.3,143.2z"/>
</g>
<g>
	<path class="st10" d="M49.9,169.1l-1.3,1l-0.2-1.1l1.6-1.3l6.1,7.5l-0.8,0.7L49.9,169.1z"/>
	<path class="st10" d="M61.8,166.9l0.9-0.7l0.6,0.8l-0.9,0.7l1.1,1.4l-0.8,0.7l-1.1-1.4l-3.8,3.1l-0.6-10.3L61.8,166.9z M61,167.6
		l-2.7-3.3l0.3,5.2L61,167.6z"/>
	<path class="st10" d="M64.4,157.3l-4.1,3.3l-0.6-0.8l5.5-4.5l1.2,11.7l-1,0.1L64.4,157.3z"/>
</g>
<g>
	<path class="st10" d="M36.6,328.6l0,2l-1.2-0.7l0-2.6l11.7,0.1l0,1.3L36.6,328.6z"/>
	<path class="st10" d="M45.6,321.3c-1.1,0.8-2.6,1.2-4.3,1.2s-3.2-0.4-4.3-1.2c-1.3-0.9-1.7-2.1-1.7-3c0-0.9,0.5-2.1,1.8-3
		c1.1-0.8,2.6-1.2,4.3-1.2s3.2,0.4,4.3,1.2c1.3,0.9,1.7,2.1,1.7,3C47.3,319.3,46.9,320.4,45.6,321.3z M37.7,320.3
		c1,0.6,2.3,0.9,3.6,0.9c1.2,0,2.6-0.2,3.6-0.8c1-0.6,1.3-1.4,1.3-2c0-0.6-0.3-1.4-1.3-2c-1-0.6-2.3-0.9-3.6-0.9
		c-1.2,0-2.6,0.2-3.6,0.8c-1,0.6-1.3,1.4-1.3,2C36.4,318.9,36.7,319.7,37.7,320.3z"/>
	<path class="st10" d="M36.7,308.6l0,2l-1.2-0.7l0-2.6l11.7,0.1l0,1.3L36.7,308.6z"/>
	<path class="st10" d="M47.2,302.5l-4.9-4.3c-0.3-0.3-1.3-1.1-1.7-1.4c-0.8-0.5-1.3-0.7-1.8-0.7c-1.3,0-2.3,0.9-2.3,2.3
		c0,0.8,0.4,1.5,1,2c0.4,0.2,0.8,0.4,1.4,0.4l0,1.3c-1.2-0.1-1.9-0.4-2.4-0.9c-0.6-0.5-1.2-1.3-1.2-2.8c0-2.1,1.5-3.6,3.5-3.6
		c0.8,0,1.5,0.2,2.5,0.9c0.7,0.5,1.4,1.1,1.9,1.6l2.7,2.5l0-4.9l1.2,0L47.2,302.5z"/>
</g>
</svg>
