<?xml version="1.0" encoding="utf-8"?>
<!-- Generator: Adobe Illustrator 25.3.1, SVG Export Plug-In . SVG Version: 6.00 Build 0)  -->
<svg version="1.1" id="Слой_1" xmlns="http://www.w3.org/2000/svg" xmlns:xlink="http://www.w3.org/1999/xlink" x="0px" y="0px"
	 viewBox="0 0 70.1 55" style="enable-background:new 0 0 70.1 55;" xml:space="preserve">
<style type="text/css">
	.st0{fill:#003C8E;}
	.st1{fill:none;stroke:#284288;stroke-linejoin:round;stroke-miterlimit:10;}
	.st2{fill:#BDBEC0;}
</style>
<polygon class="st0" points="34.1,23.8 41.8,26.7 41.8,21 "/>
<polygon class="st0" points="69.8,23.8 62.1,21 62.1,26.7 "/>
<line class="st1" x1="40.6" y1="23.8" x2="64.2" y2="23.8"/>
<g>
	<path class="st2" d="M0.7,15.2c0.5-0.5,1-0.9,1.5-1.4c0.2-0.2,0.3-0.3,0.5-0.5c2.4,2.5,4.8,4.9,7.3,7.3c0,0,0.1,0,0.1-0.1
		c0-0.1,0-0.3,0-0.4c0-3.3,0-6.5,0-9.8c0-0.7,0.2-1.2,0.9-1.4c0.6-0.3,1.1-0.1,1.6,0.4c2.3,2.2,4.5,4.5,6.8,6.8
		c0.7,0.7,0.7,1.5,0,2.1c-1.8,1.8-3.7,3.7-5.5,5.5c-0.1,0.1-0.2,0.2-0.3,0.3c0.1,0.1,0.2,0.2,0.3,0.3c1.8,1.8,3.7,3.7,5.5,5.5
		c0.7,0.7,0.7,1.5,0,2.2c-2.3,2.3-4.5,4.5-6.8,6.8c-0.8,0.8-2,0.5-2.3-0.4C10,38,10,37.8,10,37.6c0-3.2,0-6.5,0-9.7
		c0-0.2,0-0.3,0-0.5c-2.4,2.4-4.8,4.8-7.2,7.2c-0.7-0.7-1.4-1.3-2-2c0,0,0,0,0-0.1c0,0,0.1-0.1,0.1-0.1c2.8-2.8,5.6-5.6,8.4-8.4
		C9.3,24,9.3,24,9.4,23.9c-0.1-0.1-0.2-0.2-0.3-0.3c-1.5-1.5-3-3-4.6-4.6C3.3,17.8,2,16.5,0.7,15.2C0.7,15.2,0.7,15.2,0.7,15.2z
		 M12.8,20.5c1.2-1.2,2.4-2.4,3.5-3.5c-1.2-1.2-2.3-2.3-3.5-3.5C12.8,15.8,12.8,18.1,12.8,20.5z M12.8,34.3c1.2-1.2,2.3-2.3,3.4-3.4
		c-1.1-1.1-2.3-2.3-3.4-3.5C12.8,29.7,12.8,32,12.8,34.3z"/>
	<path class="st2" d="M33.5,25.3c-0.1,0.4-0.1,0.9-0.2,1.3c-0.4,2.7-1.4,5.2-2.9,7.4c-0.6,0.9-1.4,1.8-2.1,2.6c-0.7-0.7-1.3-1.4-2-2
		c2.9-2.9,4.4-6.5,4.4-10.7c0-4.2-1.5-7.7-4.4-10.7c0.7-0.7,1.3-1.3,2-2c0.5,0.5,1,1.1,1.5,1.7c1.8,2.3,2.9,4.8,3.4,7.6
		c0.1,0.6,0.1,1.1,0.2,1.7c0,0.1,0,0.2,0.1,0.2C33.5,23.4,33.5,24.4,33.5,25.3z"/>
	<path class="st2" d="M24.3,32.7c-0.6-0.6-1.3-1.3-2-2c1.8-1.9,2.8-4.2,2.8-6.8c0-2.6-1-4.9-2.8-6.8c0.7-0.7,1.3-1.3,2-1.9
		C29.1,19.6,29.4,27.8,24.3,32.7z"/>
	<path class="st2" d="M20.4,28.8c-0.7-0.7-1.3-1.3-1.9-2c0.7-0.8,1.2-1.8,1.2-2.9c0-1.1-0.4-2.1-1.2-2.9c0.6-0.7,1.3-1.3,1.9-1.9
		C22.8,21.1,23.4,25.8,20.4,28.8z"/>
</g>
<g>
	<path class="st0" d="M24.5,43.5h-1.6v-1.9h3.8v11.3h-2.2V43.5z"/>
	<path class="st0" d="M36.5,43.5h-3.7l-0.4,1.8c0.2,0,0.5-0.1,0.8-0.1c1.2,0,2.3,0.5,2.9,1.1c0.9,0.9,1,2,1,2.7
		c0,1.2-0.4,2.2-1.1,2.9c-0.9,0.9-1.9,1.1-3.1,1.1c-0.6,0-1.6-0.1-2.4-0.5c-0.5-0.2-1-0.6-1.4-1l0.7-1.9c0.3,0.4,0.7,0.7,1.2,1
		c0.6,0.3,1.1,0.4,1.6,0.4c0.9,0,1.5-0.4,1.7-0.7c0.3-0.3,0.6-0.9,0.6-1.6c0-0.6-0.2-1.1-0.7-1.6c-0.6-0.5-1.2-0.6-1.8-0.6
		c-0.8,0-1.6,0.2-2.4,0.7l1.3-5.9h5.2V43.5z"/>
	<path class="st0" d="M43.6,45.5h1.5l2,4.2l2-4.2h1.5l1.3,7.3h-2.1l-0.6-4l-1.8,4h-0.7l-1.8-4l-0.6,4h-2.1L43.6,45.5z"/>
</g>
</svg>
