<?xml version="1.0" encoding="utf-8"?>
<!-- Generator: Adobe Illustrator 25.3.1, SVG Export Plug-In . SVG Version: 6.00 Build 0)  -->
<svg version="1.1" id="Слой_1" xmlns="http://www.w3.org/2000/svg" xmlns:xlink="http://www.w3.org/1999/xlink" x="0px" y="0px"
	 viewBox="0 0 70.1 55" style="enable-background:new 0 0 70.1 55;" xml:space="preserve">
<style type="text/css">
	.st0{fill:#003C8E;}
	.st1{fill:none;stroke:#214497;stroke-miterlimit:10;}
	.st2{fill:none;stroke:#BDBEC0;stroke-miterlimit:10;}
</style>
<g>
	<path class="st0" d="M16.7,44.5c0.2-2,1.7-3.2,3.7-3.2c2.2,0,3.5,1.2,3.5,3.1c0,0.6-0.1,1.7-1.3,2.4c0.5,0.2,1.7,0.8,1.7,2.7
		c0,2.3-1.8,3.6-4,3.6c-2.2,0-3.9-1.3-4-3.5h2.2c0.1,0.9,0.8,1.6,1.9,1.6c1.3,0,1.8-0.9,1.8-1.8c0-0.8-0.5-1.8-1.9-1.8H20v-1.6h0.3
		c1.1,0,1.5-0.8,1.5-1.5c0-0.9-0.6-1.5-1.5-1.5c-0.8,0-1.5,0.5-1.6,1.5H16.7z"/>
	<path class="st0" d="M25.9,47.2c0-3.9,2.1-5.9,4.4-5.9s4.4,2,4.4,5.9c0,3.9-2.1,5.9-4.4,5.9S25.9,51.1,25.9,47.2z M28.1,47.2
		c0,2.9,1.2,4,2.2,4s2.2-1.1,2.2-4c0-2.9-1.2-4-2.2-4C29.3,43.2,28.1,44.3,28.1,47.2z"/>
	<path class="st0" d="M35.5,47.2c0-3.9,2.1-5.9,4.4-5.9c2.2,0,4.4,2,4.4,5.9c0,3.9-2.1,5.9-4.4,5.9C37.6,53.1,35.5,51.1,35.5,47.2z
		 M37.7,47.2c0,2.9,1.2,4,2.2,4s2.2-1.1,2.2-4c0-2.9-1.2-4-2.2-4S37.7,44.3,37.7,47.2z"/>
	<path class="st0" d="M45.1,47.2c0-3.9,2.1-5.9,4.4-5.9c2.2,0,4.4,2,4.4,5.9c0,3.9-2.1,5.9-4.4,5.9C47.2,53.1,45.1,51.1,45.1,47.2z
		 M47.3,47.2c0,2.9,1.2,4,2.2,4s2.2-1.1,2.2-4c0-2.9-1.2-4-2.2-4S47.3,44.3,47.3,47.2z"/>
</g>
<g>
	<path class="st1" d="M20.4,30.4c1.3,1,2.1,2.3,2.5,3.9c0.1,0.5,0.2,1,0.2,1.6c-4.4,0-8.8,0-13.2,0c0-0.2,0-0.4,0-0.6
		c0.1-0.9,0.3-1.7,0.7-2.5c0.5-1,1.2-1.8,2-2.5"/>
	<path class="st1" d="M16.5,30.1c-2,0-3.6-1.6-3.6-3.6c0-2,1.6-3.7,3.6-3.7c2.1,0,3.7,1.6,3.7,3.6C20.1,28.5,18.4,30.1,16.5,30.1z"
		/>
	<path class="st1" d="M38.9,30.4c1.3,1,2.1,2.3,2.5,3.9c0.1,0.5,0.2,1,0.2,1.6c-4.4,0-8.8,0-13.2,0c0-0.2,0-0.4,0-0.6
		c0.1-0.9,0.3-1.7,0.7-2.5c0.5-1,1.2-1.8,2-2.5"/>
	<path class="st1" d="M35,30.1c-2,0-3.6-1.6-3.6-3.6c0-2,1.6-3.7,3.6-3.7c2.1,0,3.7,1.6,3.7,3.6C38.7,28.5,37,30.1,35,30.1z"/>
	<path class="st1" d="M57.4,30.4c1.3,1,2.1,2.3,2.5,3.9c0.1,0.5,0.2,1,0.2,1.6c-4.4,0-8.8,0-13.2,0c0-0.2,0-0.4,0-0.6
		c0.1-0.9,0.3-1.7,0.7-2.5c0.5-1,1.2-1.8,2-2.5"/>
	<path class="st1" d="M53.5,30.1c-2,0-3.6-1.6-3.6-3.6c0-2,1.6-3.7,3.6-3.7c2.1,0,3.7,1.6,3.7,3.6C57.2,28.5,55.5,30.1,53.5,30.1z"
		/>
</g>
<g>
	<path class="st2" d="M37.2,17.2c1.4-1,1.9-2.9,1.2-4.5c-0.6-1.6-2.6-2.5-4.1-2.2c-1.5,0.3-2.5,1.2-2.9,2.7
		c-0.4,1.6,0.1,2.9,1.3,3.9 M45.8,3.5c2.8,2.9,4.3,6.5,4.3,10.6c0,4.1-1.5,7.7-4.4,10.7 M24.2,24.8c-2.8-3-4.3-6.5-4.3-10.6
		c0-4.1,1.5-7.7,4.3-10.6 M43.1,22c4.6-4.5,4-12.1,0-15.7 M40.5,8.9c2.9,3.2,2.7,7.6,0,10.6 M29.6,19.5c-1.4-1.5-2.2-3.2-2.2-5.3
		c0-2.1,0.8-3.8,2.1-5.3 M26.9,6.3c-4.6,4.5-4,12.1,0.1,15.8"/>
</g>
</svg>
