<?xml version="1.0" encoding="utf-8"?>
<!-- Generator: Adobe Illustrator 21.0.2, SVG Export Plug-In . SVG Version: 6.00 Build 0)  -->
<svg version="1.1" id="Слой_1" xmlns="http://www.w3.org/2000/svg" xmlns:xlink="http://www.w3.org/1999/xlink" x="0px" y="0px"
	 viewBox="0 0 300 99.4" style="enable-background:new 0 0 300 99.4;" xml:space="preserve">
<style type="text/css">
	.st0{fill:#1A4F96;}
	.st1{fill:#878787;}
	.st2{fill:url(#SVGID_1_);}
	.st3{fill:#212121;}
	.st4{fill:url(#SVGID_2_);}
	.st5{fill:url(#SVGID_3_);}
	.st6{fill:#1A1A1A;}
	.st7{fill:url(#SVGID_4_);}
	.st8{fill:url(#SVGID_5_);}
	.st9{fill:url(#SVGID_6_);}
	.st10{fill:#1F1F1F;}
	.st11{fill:#5C5C5C;}
	.st12{fill:#C2C2C2;}
	.st13{fill:#737373;}
	.st14{fill:#949494;}
	.st15{fill:#B3B3B3;}
	.st16{fill:url(#SVGID_7_);}
	.st17{fill:url(#SVGID_8_);}
	.st18{fill:url(#SVGID_9_);}
	.st19{fill:url(#SVGID_10_);}
	.st20{fill:url(#SVGID_11_);}
	.st21{fill:url(#SVGID_12_);}
	.st22{fill:#A8A39B;}
	.st23{fill:url(#SVGID_13_);}
	.st24{fill:none;}
	.st25{fill:url(#SVGID_14_);}
	.st26{fill:url(#SVGID_15_);}
	.st27{fill:url(#SVGID_16_);}
	.st28{fill:url(#SVGID_17_);}
	.st29{fill:url(#SVGID_18_);}
	.st30{fill:url(#SVGID_19_);}
	.st31{fill:url(#SVGID_20_);}
	.st32{fill:url(#SVGID_21_);}
	.st33{fill:#969696;}
	.st34{fill:#185694;}
	.st35{fill:url(#SVGID_22_);}
	.st36{fill:url(#SVGID_23_);}
	.st37{fill:#F7F6F6;}
	.st38{fill:url(#SVGID_24_);}
	.st39{enable-background:new    ;}
	.st40{fill:#FFFFFF;}
	.st41{fill:#3AAA35;}
	.st42{fill:url(#SVGID_25_);}
	.st43{fill:url(#SVGID_26_);}
	.st44{fill:url(#SVGID_27_);}
	.st45{fill:url(#SVGID_28_);}
	.st46{fill:url(#SVGID_29_);}
	.st47{fill:url(#SVGID_30_);}
	.st48{fill:url(#SVGID_31_);}
	.st49{fill:url(#SVGID_32_);}
	.st50{fill:url(#SVGID_33_);}
	.st51{fill:url(#SVGID_34_);}
	.st52{fill:url(#SVGID_35_);}
	.st53{fill:url(#SVGID_36_);}
	.st54{fill:url(#SVGID_37_);}
	.st55{fill:url(#SVGID_38_);}
	.st56{fill:url(#SVGID_39_);}
	.st57{fill:url(#SVGID_40_);}
	.st58{fill:url(#SVGID_41_);}
	.st59{fill:url(#SVGID_42_);}
	.st60{fill:url(#SVGID_43_);}
	.st61{fill:url(#SVGID_44_);}
	.st62{fill:url(#SVGID_45_);}
	.st63{fill:url(#SVGID_46_);}
	.st64{fill:url(#SVGID_47_);}
	.st65{fill:url(#SVGID_48_);}
	.st66{fill:url(#SVGID_49_);}
	.st67{fill:url(#SVGID_50_);}
	.st68{fill:url(#SVGID_51_);}
	.st69{fill:url(#SVGID_52_);}
	.st70{fill:url(#SVGID_53_);}
	.st71{fill:url(#SVGID_54_);}
	.st72{fill:url(#SVGID_55_);}
	.st73{fill:url(#SVGID_56_);}
	.st74{fill:url(#SVGID_57_);}
	.st75{fill:url(#SVGID_58_);}
	.st76{fill:url(#SVGID_59_);}
	.st77{fill:url(#SVGID_60_);}
	.st78{fill:#1D1D1B;}
</style>
<rect x="126" y="15.8" class="st0" width="1.5" height="23.9"/>
<polygon class="st0" points="300,14 285.7,9.2 285.7,11.7 14.3,11.7 14.3,9.2 0,14 14.3,18.8 14.3,16.4 285.7,16.4 285.7,18.8 "/>
<rect x="260.1" y="15.8" class="st0" width="1.5" height="23.9"/>
<g>
	<g>
		<path class="st1" d="M260.5,96.1c-0.4,0-0.9-0.1-1.5-0.3c0,0-0.6-0.2-1.7-0.4c-26.4-6.7-39.9-10.2-40.1-10.3
			c-0.6-0.2-0.6-0.9-0.5-1.2c0-0.3,0.5-1.1,11.7-6.8c5.6-2.8,11.3-5.6,11.8-5.8c-0.2-0.1-0.2-0.1-0.2-0.1l0,0l0,0
			c0-0.1-0.1-0.2-0.1-18.3c0-9,0-18,0-18.1v-0.2h0.2c0.2,0,15.1-0.1,20.6,0c6.6,0.1,6.6,0.1,18.8,1.7l1.8,0.2c0.3,0,0.5,0.3,0.5,0.6
			v41.2c0,0.3-0.2,0.5-0.4,0.5c-0.1,0-0.1,0.1-0.2,0.1h0.2l0.1-0.1l0.1,0.1L282,79l-0.2,0.2c0.1,0.2,0.2,0.7,0.2,1.6l0,0
			c0.1,1.8-0.5,2.4-1,2.6c-0.1,0-0.1,0-0.2,0.1l0.2,0.1h-2.8L261.3,96C261,96.1,260.8,96.1,260.5,96.1z M217.1,83.9L217.1,83.9
			L217.1,83.9c0,0.1-0.2,0.7,0.3,0.9c0.2,0.1,7.4,1.9,40.1,10.3c1,0.3,1.6,0.4,1.7,0.4c1.5,0.4,1.7,0.2,1.8,0.2l0,0l17.9-13.1
			l0.2,0.3l-0.4,0.3h1.4l0,0c0.2,0,0.4,0,0.6-0.1c0.6-0.2,0.9-1,0.8-2.2l0,0c-0.1-0.7-0.1-1.2-0.2-1.4l-1.3,0.9l0,0l0,0l-0.2-0.3
			c0.5-0.4,0.9-0.7,1.2-0.8l-2.6-0.5v-0.2c0,0,0-0.1,0-0.2v-0.3l1.5,0.3c0.5,0.1,0.8,0.1,0.8,0.1c0.2,0,0.4,0,0.5-0.1l0,0l0,0
			c0.1,0,0.1-0.1,0.1-0.2V36.9c0-0.1-0.1-0.2-0.1-0.2l0,0l-1.8-0.2c-12.2-1.5-12.2-1.5-18.8-1.6c-5.1-0.1-18.6,0-20.4,0
			c0,12-0.1,34.3,0,36c0.1,0,0.5,0.1,1.4,0.4h0.2v0.2c0,0.1,0,0.2,0,0.3V72l-1.5-0.3c-0.6,0.3-6,2.9-11.4,5.7
			C218.8,82.4,217.3,83.6,217.1,83.9z M240.2,71L240.2,71L240.2,71z M260.6,95.4L260.6,95.4V95v0.2l0.1-0.2L260.6,95.4z M265.9,90.8
			l-0.2-0.3l0,0l0,0c0.5-0.4,0.9-0.7,1.5-1.1l0.2,0.3L265.9,90.8z M274.5,77.9h-0.2l-29.5-5.4v-0.2c0-0.1,0-0.1,0-0.2v-0.2l0.3,0.1
			h0.2c7,1.4,19.7,3.7,29.1,5.3h0.2v0.2c0,0.1,0,0.1,0,0.2L274.5,77.9z"/>
		<g>
			<polygon points="280.1,83.3 278,83.4 278.9,82.7 			"/>
			
				<linearGradient id="SVGID_1_" gradientUnits="userSpaceOnUse" x1="239.9556" y1="350.3497" x2="281.5" y2="350.3497" gradientTransform="matrix(1 0 0 1 0 -293.6719)">
				<stop  offset="0" style="stop-color:#DBDBDB"/>
				<stop  offset="0.2107" style="stop-color:#CACACA"/>
				<stop  offset="0.5242" style="stop-color:#B5B5B5"/>
				<stop  offset="0.7349" style="stop-color:#AEAEAE"/>
				<stop  offset="0.9518" style="stop-color:#666666"/>
			</linearGradient>
			<path class="st2" d="M240,71c-0.1-0.2,0-36.3,0-36.3s15-0.1,20.6,0c6.9,0.1,6.6,0.1,20.6,1.9l0.3,41.7c0,0-0.2,0.4-0.9,0.4
				C280.3,78.6,240.6,71.6,240,71z"/>
			<polygon class="st3" points="278.7,78.3 274.4,77.5 274.5,75.4 278.7,76 			"/>
			
				<linearGradient id="SVGID_2_" gradientUnits="userSpaceOnUse" x1="276.2561" y1="371.7899" x2="276.6839" y2="369.3641" gradientTransform="matrix(1 0 0 1 0 -293.6719)">
				<stop  offset="0" style="stop-color:#DBDBDB"/>
				<stop  offset="4.981127e-02" style="stop-color:#D1D1D1"/>
				<stop  offset="0.2867" style="stop-color:#A3A3A3"/>
				<stop  offset="0.4974" style="stop-color:#828282"/>
				<stop  offset="0.6721" style="stop-color:#6D6D6D"/>
				<stop  offset="0.7892" style="stop-color:#666666"/>
				<stop  offset="0.7986" style="stop-color:#777777"/>
				<stop  offset="0.8142" style="stop-color:#8D8D8D"/>
				<stop  offset="0.8326" style="stop-color:#9E9E9E"/>
				<stop  offset="0.8553" style="stop-color:#AAAAAA"/>
				<stop  offset="0.8873" style="stop-color:#B1B1B1"/>
				<stop  offset="0.9759" style="stop-color:#B3B3B3"/>
			</linearGradient>
			<path class="st4" d="M278.5,78.5l-4.3-0.7c0,0-0.1-2.3,0.5-2.3c0.5,0,4.2,0.5,3.9,0.9C278.4,76.7,278.5,78.5,278.5,78.5z"/>
			<polygon class="st3" points="245.1,72.2 241.7,71.5 241.8,69.7 245.1,70.2 			"/>
			
				<linearGradient id="SVGID_3_" gradientUnits="userSpaceOnUse" x1="243.2086" y1="365.8143" x2="243.5898" y2="363.6534" gradientTransform="matrix(1 0 0 1 0 -293.6719)">
				<stop  offset="0" style="stop-color:#DBDBDB"/>
				<stop  offset="4.981127e-02" style="stop-color:#D1D1D1"/>
				<stop  offset="0.2867" style="stop-color:#A3A3A3"/>
				<stop  offset="0.4974" style="stop-color:#828282"/>
				<stop  offset="0.6721" style="stop-color:#6D6D6D"/>
				<stop  offset="0.7892" style="stop-color:#666666"/>
				<stop  offset="0.7986" style="stop-color:#777777"/>
				<stop  offset="0.8142" style="stop-color:#8D8D8D"/>
				<stop  offset="0.8326" style="stop-color:#9E9E9E"/>
				<stop  offset="0.8553" style="stop-color:#AAAAAA"/>
				<stop  offset="0.8873" style="stop-color:#B1B1B1"/>
				<stop  offset="0.9759" style="stop-color:#B3B3B3"/>
			</linearGradient>
			<path class="st5" d="M244.9,72.5l-3.3-0.6c0,0,0-2,0.6-2c0.4,0,3.2,0.3,3,0.7C244.9,70.9,244.9,72.5,244.9,72.5z"/>
			<polygon class="st6" points="280.2,74.8 240.6,68.2 240.6,36.6 280.2,38.6 			"/>
			
				<linearGradient id="SVGID_4_" gradientUnits="userSpaceOnUse" x1="282.7505" y1="362.5869" x2="240.2168" y2="332.8045" gradientTransform="matrix(1 0 0 1 0 -293.6719)">
				<stop  offset="0" style="stop-color:#FFFFFF"/>
				<stop  offset="0.1942" style="stop-color:#D8E7F3"/>
				<stop  offset="0.4522" style="stop-color:#AACBE6"/>
				<stop  offset="0.682" style="stop-color:#89B7DC"/>
				<stop  offset="0.8724" style="stop-color:#74AAD6"/>
				<stop  offset="1" style="stop-color:#6DA6D4"/>
			</linearGradient>
			<polygon class="st7" points="279.4,73.7 241.5,67.4 241.5,37.3 279.4,39.2 			"/>
			
				<linearGradient id="SVGID_5_" gradientUnits="userSpaceOnUse" x1="233.1012" y1="360.1096" x2="265.2546" y2="390.093" gradientTransform="matrix(1 0 0 1 0 -293.6719)">
				<stop  offset="0" style="stop-color:#DBDBDB"/>
				<stop  offset="0.1192" style="stop-color:#CACACA"/>
				<stop  offset="0.2965" style="stop-color:#B5B5B5"/>
				<stop  offset="0.4157" style="stop-color:#AEAEAE"/>
				<stop  offset="0.9819" style="stop-color:#4D4D4D"/>
			</linearGradient>
			<path class="st8" d="M260.8,95.2c-6.2-1-41.2-10.3-43.9-11.3c-0.3-1,23.4-12.5,23.4-12.5l41.2,7.6
				C281.3,79.1,260.8,93.9,260.8,95.2z"/>
			<path class="st6" d="M216.9,83.9c0,0-0.2,0.8,0.4,1c0.4,0.2,41.4,10.6,41.8,10.7c2,0.5,2,0.1,2,0.1l-0.5-0.6L216.9,83.9z"/>
			
				<linearGradient id="SVGID_6_" gradientUnits="userSpaceOnUse" x1="272.3437" y1="382.7932" x2="270.5675" y2="380.2565" gradientTransform="matrix(1 0 0 1 0 -293.6719)">
				<stop  offset="0" style="stop-color:#4D4D4D"/>
				<stop  offset="0.251" style="stop-color:#4F4F4F"/>
				<stop  offset="0.3718" style="stop-color:#575757"/>
				<stop  offset="0.4648" style="stop-color:#646464"/>
				<stop  offset="0.5435" style="stop-color:#767676"/>
				<stop  offset="0.6126" style="stop-color:#8E8E8E"/>
				<stop  offset="0.6751" style="stop-color:#ABABAB"/>
				<stop  offset="0.6807" style="stop-color:#AEAEAE"/>
				<stop  offset="0.6899" style="stop-color:#9D9D9D"/>
				<stop  offset="0.712" style="stop-color:#7A7A7A"/>
				<stop  offset="0.7365" style="stop-color:#5C5C5C"/>
				<stop  offset="0.7632" style="stop-color:#444444"/>
				<stop  offset="0.7933" style="stop-color:#313131"/>
				<stop  offset="0.8285" style="stop-color:#242424"/>
				<stop  offset="0.8737" style="stop-color:#1C1C1C"/>
				<stop  offset="0.9639" style="stop-color:#1A1A1A"/>
			</linearGradient>
			<path class="st9" d="M281.4,79c0,0,0.2,0.3,0.3,1.7c0,0.4,0.2,2-0.9,2.5c-1.2,0.5-1.9-0.5-1.9-0.5L261,95.8c0,0-0.5-0.3-0.4-0.6
				c0-0.1,0.1-0.3,0.4-0.6c0.3-0.3,0.8-0.8,1-1s10.9-8.5,10.9-8.5L281.4,79"/>
			<polygon class="st10" points="227.5,79.1 239.8,72.6 277.5,79.7 266.5,88 			"/>
			<polygon class="st11" points="227.5,79.1 228.4,78.6 265.8,87.1 266.5,88 			"/>
			<polygon points="265.8,87.1 276.5,79.5 277.5,79.7 266.5,88 			"/>
			<polygon class="st12" points="239.8,72.6 239.8,72.3 278,79.4 277.5,79.7 			"/>
			<polygon class="st13" points="227.3,79 239.8,72.3 239.8,72.6 227.5,79.1 			"/>
			<ellipse class="st14" cx="280.5" cy="81.6" rx="0.8" ry="1.4"/>
			<path class="st15" d="M244.9,89.9c-0.3,0.2-0.7,0.4-0.9,0.3l-8.3-2.1c-0.2-0.1-0.2-0.3,0.1-0.5l5.8-3.9c0.3-0.2,0.7-0.4,0.9-0.3
				l7.5,1.8c0.2,0.1,0.2,0.3-0.1,0.5L244.9,89.9z"/>
			<path class="st15" d="M281.6,78.1c0,0.2-0.2,0.4-0.3,0.4l0,0c-0.2,0-0.3-0.2-0.3-0.4V36.9c0-0.2,0.2-0.4,0.3-0.4l0,0
				c0.2,0,0.3,0.2,0.3,0.4V78.1z"/>
		</g>
	</g>
	<polygon points="280.1,83.3 278,83.4 278.9,82.7 	"/>
	
		<linearGradient id="SVGID_7_" gradientUnits="userSpaceOnUse" x1="239.9556" y1="350.3497" x2="281.5" y2="350.3497" gradientTransform="matrix(1 0 0 1 0 -293.6719)">
		<stop  offset="0" style="stop-color:#DBDBDB"/>
		<stop  offset="0.2107" style="stop-color:#CACACA"/>
		<stop  offset="0.5242" style="stop-color:#B5B5B5"/>
		<stop  offset="0.7349" style="stop-color:#AEAEAE"/>
		<stop  offset="0.9518" style="stop-color:#666666"/>
	</linearGradient>
	<path class="st16" d="M240,71c-0.1-0.2,0-36.3,0-36.3s15-0.1,20.6,0c6.9,0.1,6.6,0.1,20.6,1.9l0.3,41.7c0,0-0.2,0.4-0.9,0.4
		C280.3,78.6,240.6,71.6,240,71z"/>
	<polygon class="st3" points="278.7,78.3 274.4,77.5 274.5,75.4 278.7,76 	"/>
	
		<linearGradient id="SVGID_8_" gradientUnits="userSpaceOnUse" x1="276.2561" y1="371.7899" x2="276.6839" y2="369.3641" gradientTransform="matrix(1 0 0 1 0 -293.6719)">
		<stop  offset="0" style="stop-color:#DBDBDB"/>
		<stop  offset="4.981127e-02" style="stop-color:#D1D1D1"/>
		<stop  offset="0.2867" style="stop-color:#A3A3A3"/>
		<stop  offset="0.4974" style="stop-color:#828282"/>
		<stop  offset="0.6721" style="stop-color:#6D6D6D"/>
		<stop  offset="0.7892" style="stop-color:#666666"/>
		<stop  offset="0.7986" style="stop-color:#777777"/>
		<stop  offset="0.8142" style="stop-color:#8D8D8D"/>
		<stop  offset="0.8326" style="stop-color:#9E9E9E"/>
		<stop  offset="0.8553" style="stop-color:#AAAAAA"/>
		<stop  offset="0.8873" style="stop-color:#B1B1B1"/>
		<stop  offset="0.9759" style="stop-color:#B3B3B3"/>
	</linearGradient>
	<path class="st17" d="M278.5,78.5l-4.3-0.7c0,0-0.1-2.3,0.5-2.3c0.5,0,4.2,0.5,3.9,0.9C278.4,76.7,278.5,78.5,278.5,78.5z"/>
	<polygon class="st3" points="245.1,72.2 241.7,71.5 241.8,69.7 245.1,70.2 	"/>
	
		<linearGradient id="SVGID_9_" gradientUnits="userSpaceOnUse" x1="243.2086" y1="365.8143" x2="243.5898" y2="363.6534" gradientTransform="matrix(1 0 0 1 0 -293.6719)">
		<stop  offset="0" style="stop-color:#DBDBDB"/>
		<stop  offset="4.981127e-02" style="stop-color:#D1D1D1"/>
		<stop  offset="0.2867" style="stop-color:#A3A3A3"/>
		<stop  offset="0.4974" style="stop-color:#828282"/>
		<stop  offset="0.6721" style="stop-color:#6D6D6D"/>
		<stop  offset="0.7892" style="stop-color:#666666"/>
		<stop  offset="0.7986" style="stop-color:#777777"/>
		<stop  offset="0.8142" style="stop-color:#8D8D8D"/>
		<stop  offset="0.8326" style="stop-color:#9E9E9E"/>
		<stop  offset="0.8553" style="stop-color:#AAAAAA"/>
		<stop  offset="0.8873" style="stop-color:#B1B1B1"/>
		<stop  offset="0.9759" style="stop-color:#B3B3B3"/>
	</linearGradient>
	<path class="st18" d="M244.9,72.5l-3.3-0.6c0,0,0-2,0.6-2c0.4,0,3.2,0.3,3,0.7C244.9,70.9,244.9,72.5,244.9,72.5z"/>
	<polygon class="st6" points="280.2,74.8 240.6,68.2 240.6,36.6 280.2,38.6 	"/>
	
		<linearGradient id="SVGID_10_" gradientUnits="userSpaceOnUse" x1="282.7505" y1="362.5869" x2="240.2168" y2="332.8045" gradientTransform="matrix(1 0 0 1 0 -293.6719)">
		<stop  offset="0" style="stop-color:#FFFFFF"/>
		<stop  offset="0.1942" style="stop-color:#D8E7F3"/>
		<stop  offset="0.4522" style="stop-color:#AACBE6"/>
		<stop  offset="0.682" style="stop-color:#89B7DC"/>
		<stop  offset="0.8724" style="stop-color:#74AAD6"/>
		<stop  offset="1" style="stop-color:#6DA6D4"/>
	</linearGradient>
	<polygon class="st19" points="279.4,73.7 241.5,67.4 241.5,37.3 279.4,39.2 	"/>
	
		<linearGradient id="SVGID_11_" gradientUnits="userSpaceOnUse" x1="233.1012" y1="360.1096" x2="265.2546" y2="390.093" gradientTransform="matrix(1 0 0 1 0 -293.6719)">
		<stop  offset="0" style="stop-color:#DBDBDB"/>
		<stop  offset="0.1192" style="stop-color:#CACACA"/>
		<stop  offset="0.2965" style="stop-color:#B5B5B5"/>
		<stop  offset="0.4157" style="stop-color:#AEAEAE"/>
		<stop  offset="0.9819" style="stop-color:#4D4D4D"/>
	</linearGradient>
	<path class="st20" d="M260.8,95.2c-6.2-1-41.2-10.3-43.9-11.3c-0.3-1,23.4-12.5,23.4-12.5l41.2,7.6
		C281.3,79.1,260.8,93.9,260.8,95.2z"/>
	<path class="st6" d="M216.9,83.9c0,0-0.2,0.8,0.4,1c0.4,0.2,41.4,10.6,41.8,10.7c2,0.5,2,0.1,2,0.1l-0.5-0.6L216.9,83.9z"/>
	
		<linearGradient id="SVGID_12_" gradientUnits="userSpaceOnUse" x1="272.3437" y1="382.7932" x2="270.5675" y2="380.2565" gradientTransform="matrix(1 0 0 1 0 -293.6719)">
		<stop  offset="0" style="stop-color:#4D4D4D"/>
		<stop  offset="0.251" style="stop-color:#4F4F4F"/>
		<stop  offset="0.3718" style="stop-color:#575757"/>
		<stop  offset="0.4648" style="stop-color:#646464"/>
		<stop  offset="0.5435" style="stop-color:#767676"/>
		<stop  offset="0.6126" style="stop-color:#8E8E8E"/>
		<stop  offset="0.6751" style="stop-color:#ABABAB"/>
		<stop  offset="0.6807" style="stop-color:#AEAEAE"/>
		<stop  offset="0.6899" style="stop-color:#9D9D9D"/>
		<stop  offset="0.712" style="stop-color:#7A7A7A"/>
		<stop  offset="0.7365" style="stop-color:#5C5C5C"/>
		<stop  offset="0.7632" style="stop-color:#444444"/>
		<stop  offset="0.7933" style="stop-color:#313131"/>
		<stop  offset="0.8285" style="stop-color:#242424"/>
		<stop  offset="0.8737" style="stop-color:#1C1C1C"/>
		<stop  offset="0.9639" style="stop-color:#1A1A1A"/>
	</linearGradient>
	<path class="st21" d="M281.4,79c0,0,0.2,0.3,0.3,1.7c0,0.4,0.2,2-0.9,2.5c-1.2,0.5-1.9-0.5-1.9-0.5L261,95.8c0,0-0.5-0.3-0.4-0.6
		c0-0.1,0.1-0.3,0.4-0.6c0.3-0.3,0.8-0.8,1-1s10.9-8.5,10.9-8.5L281.4,79"/>
	<polygon class="st10" points="227.5,79.1 239.8,72.6 277.5,79.7 266.5,88 	"/>
	<polygon class="st11" points="227.5,79.1 228.4,78.6 265.8,87.1 266.5,88 	"/>
	<polygon points="265.8,87.1 276.5,79.5 277.5,79.7 266.5,88 	"/>
	<polygon class="st12" points="239.8,72.6 239.8,72.3 278,79.4 277.5,79.7 	"/>
	<polygon class="st13" points="227.3,79 239.8,72.3 239.8,72.6 227.5,79.1 	"/>
	<ellipse class="st14" cx="280.5" cy="81.6" rx="0.8" ry="1.4"/>
	<path class="st15" d="M244.9,89.9c-0.3,0.2-0.7,0.4-0.9,0.3l-8.3-2.1c-0.2-0.1-0.2-0.3,0.1-0.5l5.8-3.9c0.3-0.2,0.7-0.4,0.9-0.3
		l7.5,1.8c0.2,0.1,0.2,0.3-0.1,0.5L244.9,89.9z"/>
	<path class="st15" d="M281.6,78.1c0,0.2-0.2,0.4-0.3,0.4l0,0c-0.2,0-0.3-0.2-0.3-0.4V36.9c0-0.2,0.2-0.4,0.3-0.4l0,0
		c0.2,0,0.3,0.2,0.3,0.4V78.1z"/>
</g>
<g>
	<g>
		<path class="st22" d="M147.2,39.7L147.2,39.7L147.2,39.7c0-0.2,0-0.3,0-0.3c-0.1-0.5-0.3-0.8-0.3-0.8l-3.4-0.3l-39-0.5h1.2h-1.2
			l0.2,36.1l1.8,0.7l0.1-0.1v0.1l38.9-6.6l1.5-2c0-0.1,0-0.1,0-0.2l0.1-9.2l0,0l0.1-5.5l0,0L147.2,39.7
			C147.2,39.8,147.2,39.7,147.2,39.7z"/>
		<path class="st22" d="M106.4,74.8L106.4,74.8l-1.9-0.8v-0.1l-0.2-36.3h0.2l0,0l39,0.5l0,0l3.5,0.3v0.1c0,0,0.2,0.3,0.3,0.9l0,0
			c0,0,0,0.1,0,0.3l0,0L147.2,51l0,0l-0.1,5.7l-0.1,9.2c0,0.1,0,0.2,0,0.3l0,0l-1.6,2.1h-0.1L106.4,74.8z M104.8,73.8l1.6,0.6
			l0.3-0.1v0.1l38.6-6.6l1.5-1.9l0,0l0,0l0,0l0.1-9.2l0.1-5.3l0,0l0.1-11.7c0-0.1,0-0.2,0-0.3c-0.1-0.3-0.2-0.6-0.2-0.7l-3.3-0.3
			l-37.8-0.5l0,0h-1L104.8,73.8z"/>
	</g>
	<g>
		<g>
			
				<linearGradient id="SVGID_13_" gradientUnits="userSpaceOnUse" x1="130.6479" y1="363.749" x2="121.6183" y2="327.5334" gradientTransform="matrix(1 0 0 1 0 -293.6719)">
				<stop  offset="0" style="stop-color:#D2CFC7"/>
				<stop  offset="0.2912" style="stop-color:#D2CFC7"/>
				<stop  offset="0.7582" style="stop-color:#E2E0DA"/>
				<stop  offset="1" style="stop-color:#E2E0DA"/>
			</linearGradient>
			<polygon class="st23" points="105.7,37.9 146.9,38.6 147.2,39.7 147,66 107.5,74 			"/>
			<polygon class="st24" points="105.7,37.9 146.9,38.6 147.2,39.7 147,66 107.5,74 			"/>
		</g>
		<g>
			
				<linearGradient id="SVGID_14_" gradientUnits="userSpaceOnUse" x1="130.9988" y1="337.6177" x2="156.7413" y2="358.6011" gradientTransform="matrix(1 0 0 1 0 -293.6719)">
				<stop  offset="0" style="stop-color:#BBBBAD"/>
				<stop  offset="0.2512" style="stop-color:#C2C1B4"/>
				<stop  offset="0.6416" style="stop-color:#D2CFC7"/>
				<stop  offset="1" style="stop-color:#D4D0C9"/>
			</linearGradient>
			<path class="st25" d="M147.1,45.5l-5.8,0.2c0,0-2,0.2-2,2.1c0,1,0,11.7,0,12.8c0,2.7,1.3,2.4,1.3,2.4l6.4-0.5L147.1,45.5z"/>
			<path class="st24" d="M147.1,45.5l-5.8,0.2c0,0-2,0.2-2,2.1c0,1,0,11.7,0,12.8c0,2.7,1.3,2.4,1.3,2.4l6.4-0.5L147.1,45.5z"/>
		</g>
		<g>
			
				<linearGradient id="SVGID_15_" gradientUnits="userSpaceOnUse" x1="-1108.3982" y1="339.7949" x2="-1099.1222" y2="360.6288" gradientTransform="matrix(-1 0 0 1 -990.4943 -293.6719)">
				<stop  offset="0" style="stop-color:#BBBBAD"/>
				<stop  offset="0.2512" style="stop-color:#C2C1B4"/>
				<stop  offset="0.6416" style="stop-color:#D2CFC7"/>
				<stop  offset="1" style="stop-color:#D4D0C9"/>
			</linearGradient>
			<path class="st26" d="M108.3,46.4l9.4-0.2c0,0,1.8,0,1.8,1.9c0,1,0,13.7,0,14.9c0,2.7-2.2,2.9-2.2,2.9l-8.8,1L108.3,46.4z"/>
			<path class="st24" d="M108.3,46.4l9.4-0.2c0,0,1.8,0,1.8,1.9c0,1,0,13.7,0,14.9c0,2.7-2.2,2.9-2.2,2.9l-8.8,1L108.3,46.4z"/>
		</g>
		<g>
			
				<linearGradient id="SVGID_16_" gradientUnits="userSpaceOnUse" x1="104.4613" y1="349.9219" x2="108.5991" y2="349.9219" gradientTransform="matrix(1 0 0 1 0 -293.6719)">
				<stop  offset="0" style="stop-color:#C4C2BA"/>
				<stop  offset="0.332" style="stop-color:#C8C5BE"/>
				<stop  offset="0.67" style="stop-color:#D2CFC9"/>
				<stop  offset="1" style="stop-color:#E2E0DA"/>
			</linearGradient>
			<polygon class="st27" points="108.2,41.4 108.6,73.5 107.7,74.1 106.4,74.6 104.7,74 104.5,37.9 105.7,37.9 			"/>
		</g>
		<g>
			
				<linearGradient id="SVGID_17_" gradientUnits="userSpaceOnUse" x1="141.7605" y1="347.9719" x2="147.1023" y2="347.9719" gradientTransform="matrix(1 0 0 1 0 -293.6719)">
				<stop  offset="0" style="stop-color:#919287"/>
				<stop  offset="0.1347" style="stop-color:#98988E"/>
				<stop  offset="0.3661" style="stop-color:#AAAAA0"/>
				<stop  offset="0.6644" style="stop-color:#C7C4BB"/>
				<stop  offset="0.7803" style="stop-color:#D2CFC7"/>
				<stop  offset="0.7979" style="stop-color:#D9D5D1"/>
				<stop  offset="0.8303" style="stop-color:#E0DDDB"/>
				<stop  offset="0.8757" style="stop-color:#E5E2E2"/>
				<stop  offset="1" style="stop-color:#E6E3E3"/>
			</linearGradient>
			<path class="st28" d="M147,56.7l-2.2,0.3l-0.1,2.5l-3-5.2l2.9-5.2l-0.1,2.2l2.5-0.2L147,56.7z"/>
			<path class="st24" d="M147,56.7l-2.2,0.3l-0.1,2.5l-3-5.2l2.9-5.2l-0.1,2.2l2.5-0.2L147,56.7z"/>
		</g>
		<g>
			
				<linearGradient id="SVGID_18_" gradientUnits="userSpaceOnUse" x1="105.9544" y1="344.9898" x2="92.5308" y2="337.2992" gradientTransform="matrix(1.0241 -1.000000e-04 -1.000000e-04 1.0263 9.7208 -294.04)">
				<stop  offset="0" style="stop-color:#919287"/>
				<stop  offset="0.1347" style="stop-color:#98988E"/>
				<stop  offset="0.3661" style="stop-color:#AAAAA0"/>
				<stop  offset="0.6644" style="stop-color:#C7C4BB"/>
				<stop  offset="0.7803" style="stop-color:#D2CFC7"/>
				<stop  offset="0.7979" style="stop-color:#D9D5D1"/>
				<stop  offset="0.8303" style="stop-color:#E0DDDB"/>
				<stop  offset="0.8757" style="stop-color:#E5E2E2"/>
				<stop  offset="1" style="stop-color:#E6E3E3"/>
			</linearGradient>
			<path class="st29" d="M108.3,53.5l4-0.2v-2.6l3.5,5.6l-3.6,6.2v-2.6l-3.8,0.2L108.3,53.5z"/>
			<path class="st24" d="M108.3,53.5l4-0.2v-2.6l3.5,5.6l-3.6,6.2v-2.6l-3.8,0.2L108.3,53.5z"/>
		</g>
		
			<linearGradient id="SVGID_19_" gradientUnits="userSpaceOnUse" x1="-911.7242" y1="339.6709" x2="-902.1615" y2="361.1491" gradientTransform="matrix(-1 0 0 1 -794.0988 -293.6719)">
			<stop  offset="0" style="stop-color:#919287"/>
			<stop  offset="0.1347" style="stop-color:#98988E"/>
			<stop  offset="0.3661" style="stop-color:#AAAAA0"/>
			<stop  offset="0.6644" style="stop-color:#C7C4BB"/>
			<stop  offset="0.7803" style="stop-color:#D2CFC7"/>
			<stop  offset="0.7979" style="stop-color:#D9D5D1"/>
			<stop  offset="0.8303" style="stop-color:#E0DDDB"/>
			<stop  offset="0.8757" style="stop-color:#E5E2E2"/>
			<stop  offset="1" style="stop-color:#E6E3E3"/>
		</linearGradient>
		<path class="st30" d="M117.5,65.9c1.5-0.3,1.9-1.7,1.9-3c0-1,0-13.6,0-14.7c0-1.8-1.7-1.7-1.7-1.7l-9,0.1l-1.1-0.2l10.1-0.2
			c0,0,1.8,0,1.8,1.9c0,1,0,13.8,0,14.9C119.5,65.7,117.5,66,117.5,65.9l-10,1.2l1.1-0.3C116.4,66.1,117.2,65.9,117.5,65.9z"/>
		<g>
			
				<linearGradient id="SVGID_20_" gradientUnits="userSpaceOnUse" x1="140.5946" y1="347.6776" x2="150.8169" y2="348.6714" gradientTransform="matrix(1 0 0 1 0 -293.6719)">
				<stop  offset="0" style="stop-color:#D2CFC7"/>
				<stop  offset="0.2912" style="stop-color:#D2CFC7"/>
				<stop  offset="0.7582" style="stop-color:#E2E0DA"/>
				<stop  offset="1" style="stop-color:#E2E0DA"/>
			</linearGradient>
			<path class="st31" d="M147,56.7l-2.2,0.3l-0.1,2.5l-2.9-5.2l2.8-5v2.2l2.5-0.2L147,56.7z"/>
			<path class="st24" d="M147,56.7l-2.2,0.3l-0.1,2.5l-2.9-5.2l2.8-5v2.2l2.5-0.2L147,56.7z"/>
		</g>
		
			<linearGradient id="SVGID_21_" gradientUnits="userSpaceOnUse" x1="-525.7687" y1="339.6963" x2="-518.4285" y2="356.1826" gradientTransform="matrix(1 0 0 1 665.5566 -293.6719)">
			<stop  offset="0" style="stop-color:#919287"/>
			<stop  offset="0.1347" style="stop-color:#98988E"/>
			<stop  offset="0.3661" style="stop-color:#AAAAA0"/>
			<stop  offset="0.6644" style="stop-color:#C7C4BB"/>
			<stop  offset="0.7803" style="stop-color:#D2CFC7"/>
			<stop  offset="0.7979" style="stop-color:#D9D5D1"/>
			<stop  offset="0.8303" style="stop-color:#E0DDDB"/>
			<stop  offset="0.8757" style="stop-color:#E5E2E2"/>
			<stop  offset="1" style="stop-color:#E6E3E3"/>
		</linearGradient>
		<path class="st32" d="M140.5,63c-0.9-0.1-1.1-0.9-1.1-2c0-0.9,0-12.2,0-13.1c0.1-2,1.7-2,1.7-2l6.1-0.4l0,0l-6.1,0.1
			c0,0-1.7-0.1-1.8,2.2c-0.1,0.9-0.1,12.1-0.1,13.1c-0.1,2.3,1.3,2.3,1.4,2.3c0.4,0,6.4-0.6,6.4-0.6l0,0C143.8,62.8,141,63,140.5,63
			z"/>
		<g>
			<g>
				<path class="st33" d="M135.6,54.8c0,2.9-2.7,5.5-5.9,5.8s-5.8-1.9-5.7-5c0.1-3.1,2.7-5.7,5.9-5.8
					C133,49.6,135.6,51.9,135.6,54.8z"/>
			</g>
			<path class="st33" d="M135.5,59.4c0,0.4-0.3,0.7-0.7,0.8l-10.2,1c-0.4,0-0.7-0.3-0.7-0.6l0.2-9.7c0-0.4,0.3-0.7,0.7-0.7l10.1-0.5
				c0.4,0,0.7,0.3,0.7,0.7L135.5,59.4z"/>
		</g>
		<path class="st34" d="M135.1,59c0,0.4-0.3,0.7-0.7,0.8l-9.6,0.9c-0.4,0-0.7-0.3-0.7-0.6l0.2-9.2c0-0.4,0.3-0.7,0.7-0.7l9.4-0.4
			c0.4,0,0.7,0.3,0.7,0.7V59z"/>
		<g>
			
				<linearGradient id="SVGID_22_" gradientUnits="userSpaceOnUse" x1="104.5" y1="331.8719" x2="146.9" y2="331.8719" gradientTransform="matrix(1 0 0 1 0 -293.6719)">
				<stop  offset="0" style="stop-color:#D2CFC7"/>
				<stop  offset="0.2912" style="stop-color:#D2CFC7"/>
				<stop  offset="0.7582" style="stop-color:#E2E0DA"/>
				<stop  offset="1" style="stop-color:#E2E0DA"/>
			</linearGradient>
			<polygon class="st35" points="104.5,37.8 143.5,38.3 146.9,38.6 105.7,37.9 			"/>
			<polygon class="st24" points="104.5,37.8 143.5,38.3 146.9,38.6 105.7,37.9 			"/>
		</g>
		<g>
			
				<linearGradient id="SVGID_23_" gradientUnits="userSpaceOnUse" x1="125.4879" y1="337.0418" x2="105.1785" y2="356.5411" gradientTransform="matrix(1 0 0 1 0 -293.6719)">
				<stop  offset="0" style="stop-color:#BBBBAD"/>
				<stop  offset="0.2512" style="stop-color:#C2C1B4"/>
				<stop  offset="0.6416" style="stop-color:#D2CFC7"/>
				<stop  offset="1" style="stop-color:#D4D0C9"/>
			</linearGradient>
			<path class="st36" d="M108.3,53.5l4-0.1v-2.5l3.4,5.5l-3.5,6.1V60l-3.8,0.3L108.3,53.5z"/>
			<path class="st24" d="M108.3,53.5l4-0.1v-2.5l3.4,5.5l-3.5,6.1V60l-3.8,0.3L108.3,53.5z"/>
		</g>
		<g>
			<g>
				<polygon class="st37" points="108.4,73.7 106.5,74.6 106.5,39.7 108.4,39.7 				"/>
			</g>
		</g>
		<g>
			
				<linearGradient id="SVGID_24_" gradientUnits="userSpaceOnUse" x1="128.0688" y1="339.065" x2="124.978" y2="326.6687" gradientTransform="matrix(1 0 0 1 0 -293.6719)">
				<stop  offset="0" style="stop-color:#D2CFC7"/>
				<stop  offset="0.2912" style="stop-color:#D2CFC7"/>
				<stop  offset="0.7582" style="stop-color:#E2E0DA"/>
				<stop  offset="1" style="stop-color:#E2E0DA"/>
			</linearGradient>
			<path class="st38" d="M147.2,39.5c0,0,0.1,0.9-0.3,1.2c-0.4,0.3-0.9,0.3-1.8,0.3c-0.7,0-34.3,1.4-34.8,1.4c-0.8,0-1.7,0-2.8-1
				c-1.1-1-1.5-2.7-1.9-3.5l41.3,0.8C146.9,38.6,147,38.9,147.2,39.5"/>
			<path class="st24" d="M147.2,39.5c0,0,0.1,0.9-0.3,1.2c-0.4,0.3-0.9,0.3-1.8,0.3c-0.7,0-34.3,1.4-34.8,1.4c-0.8,0-1.7,0-2.8-1
				c-1.1-1-1.5-2.7-1.9-3.5l41.3,0.8C146.9,38.6,147,38.9,147.2,39.5"/>
		</g>
		<g>
			<path class="st22" d="M106.5,74.6c0,0,1-1.2,1.6-1.6c0.6-0.5,1.4-0.7,2-0.9c0.6-0.1,34.8-6.3,35.2-6.4s1.2-0.3,1.3-0.2
				c0.2,0.1,0.4,0.3,0.3,0.5l-1.5,2L106.5,74.6z"/>
			<path class="st24" d="M106.5,74.6c0,0,1-1.2,1.6-1.6c0.6-0.5,1.4-0.7,2-0.9c0.6-0.1,34.8-6.3,35.2-6.4s1.2-0.3,1.3-0.2
				c0.2,0.1,0.4,0.3,0.3,0.5l-1.5,2L106.5,74.6z"/>
		</g>
		<polygon class="st24" points="134.8,56.3 124.9,56.8 125.1,54.6 134.9,54.1 		"/>
		<g class="st39">
			<path class="st40" d="M125.8,56.2l-0.2,0l0.1-1.3c0,0-0.1,0.1-0.2,0.1c-0.1,0.1-0.2,0.1-0.2,0.1l0-0.2c0.1-0.1,0.2-0.1,0.3-0.2
				s0.2-0.2,0.2-0.2l0.1,0L125.8,56.2z"/>
			<path class="st40" d="M126.4,55.7l0.2,0c0,0.1,0,0.2,0.1,0.2c0.1,0,0.1,0.1,0.2,0.1c0.1,0,0.2,0,0.3-0.1c0.1-0.1,0.1-0.2,0.1-0.3
				c0-0.1,0-0.2-0.1-0.3c-0.1-0.1-0.1-0.1-0.2-0.1c-0.1,0-0.1,0-0.2,0.1c-0.1,0-0.1,0.1-0.1,0.1l-0.2,0l0.2-0.8l0.8,0l0,0.2l-0.7,0
				l-0.1,0.4c0.1-0.1,0.2-0.1,0.3-0.1c0.1,0,0.3,0,0.4,0.1c0.1,0.1,0.1,0.2,0.1,0.4c0,0.1-0.1,0.3-0.1,0.4c-0.1,0.1-0.3,0.2-0.4,0.2
				c-0.1,0-0.3,0-0.4-0.1C126.4,55.9,126.4,55.8,126.4,55.7z"/>
			<path class="st40" d="M127.7,56.1l0-0.2l0.2,0l0,0.2L127.7,56.1z M127.8,55.1l0-0.2l0.2,0l0,0.2L127.8,55.1z"/>
			<path class="st40" d="M128.3,55.2c0-0.2,0-0.3,0.1-0.5c0-0.1,0.1-0.2,0.2-0.3c0.1-0.1,0.2-0.1,0.3-0.1c0.1,0,0.2,0,0.2,0
				s0.1,0.1,0.2,0.1c0,0.1,0.1,0.1,0.1,0.2c0,0.1,0,0.2,0,0.4c0,0.2,0,0.3-0.1,0.5c0,0.1-0.1,0.2-0.2,0.3s-0.2,0.1-0.3,0.1
				c-0.2,0-0.3,0-0.4-0.2C128.3,55.8,128.3,55.5,128.3,55.2z M128.5,55.2c0,0.3,0,0.4,0.1,0.5c0.1,0.1,0.1,0.1,0.2,0.1
				c0.1,0,0.2-0.1,0.2-0.1c0.1-0.1,0.1-0.3,0.1-0.5c0-0.3,0-0.4-0.1-0.5c-0.1-0.1-0.1-0.1-0.2-0.1c-0.1,0-0.2,0-0.2,0.1
				C128.5,54.8,128.5,55,128.5,55.2z"/>
			<path class="st40" d="M130.6,54.7l-0.2,0c0-0.1,0-0.1-0.1-0.2c-0.1-0.1-0.1-0.1-0.2-0.1c-0.1,0-0.1,0-0.2,0.1
				c-0.1,0-0.1,0.1-0.2,0.2c0,0.1-0.1,0.2-0.1,0.4c0.1-0.1,0.1-0.1,0.2-0.2c0.1,0,0.1-0.1,0.2-0.1c0.1,0,0.2,0,0.3,0.1
				c0.1,0.1,0.1,0.2,0.1,0.4c0,0.1,0,0.2-0.1,0.3c0,0.1-0.1,0.2-0.2,0.2c-0.1,0.1-0.2,0.1-0.3,0.1c-0.2,0-0.3,0-0.4-0.2
				c-0.1-0.1-0.1-0.3-0.1-0.6c0-0.3,0.1-0.5,0.2-0.7c0.1-0.1,0.2-0.2,0.4-0.2c0.1,0,0.2,0,0.3,0.1C130.6,54.5,130.6,54.6,130.6,54.7
				z M129.8,55.4c0,0.1,0,0.1,0,0.2s0.1,0.1,0.1,0.1c0.1,0,0.1,0,0.2,0c0.1,0,0.2,0,0.2-0.1c0.1-0.1,0.1-0.2,0.1-0.3
				c0-0.1,0-0.2-0.1-0.3c-0.1-0.1-0.1-0.1-0.2-0.1c-0.1,0-0.2,0-0.2,0.1C129.8,55.2,129.8,55.3,129.8,55.4z"/>
			<path class="st40" d="M130.9,55.9l0-0.2l0.2,0l0,0.2L130.9,55.9z M131,54.9l0-0.2l0.2,0l0,0.2L131,54.9z"/>
			<path class="st40" d="M131.5,55.1c0-0.2,0-0.3,0.1-0.5c0-0.1,0.1-0.2,0.2-0.3c0.1-0.1,0.2-0.1,0.3-0.1c0.1,0,0.2,0,0.2,0
				s0.1,0.1,0.2,0.1c0,0.1,0.1,0.1,0.1,0.2c0,0.1,0,0.2,0,0.4c0,0.2,0,0.3-0.1,0.5c0,0.1-0.1,0.2-0.2,0.3s-0.2,0.1-0.3,0.1
				c-0.2,0-0.3,0-0.4-0.2C131.5,55.6,131.5,55.4,131.5,55.1z M131.7,55.1c0,0.3,0,0.4,0.1,0.5c0.1,0.1,0.1,0.1,0.2,0.1
				s0.2-0.1,0.2-0.1c0.1-0.1,0.1-0.3,0.1-0.5c0-0.3,0-0.4-0.1-0.5c-0.1-0.1-0.1-0.1-0.2-0.1s-0.2,0-0.2,0.1
				C131.7,54.6,131.7,54.8,131.7,55.1z"/>
			<path class="st40" d="M133.1,54.9c-0.1,0-0.1-0.1-0.2-0.1c0-0.1-0.1-0.1,0-0.2c0-0.1,0.1-0.2,0.1-0.3c0.1-0.1,0.2-0.1,0.3-0.1
				c0.1,0,0.3,0,0.3,0.1c0.1,0.1,0.1,0.2,0.1,0.3c0,0.1,0,0.1-0.1,0.2c0,0.1-0.1,0.1-0.2,0.1c0.1,0,0.2,0.1,0.2,0.1
				c0,0.1,0.1,0.2,0.1,0.3c0,0.1-0.1,0.3-0.2,0.4c-0.1,0.1-0.2,0.2-0.4,0.2c-0.2,0-0.3,0-0.4-0.1c-0.1-0.1-0.1-0.2-0.1-0.3
				c0-0.1,0-0.2,0.1-0.3C132.9,55,133,54.9,133.1,54.9z M132.9,55.3c0,0.1,0,0.1,0,0.2c0,0.1,0.1,0.1,0.1,0.1s0.1,0,0.2,0
				c0.1,0,0.2,0,0.2-0.1c0.1-0.1,0.1-0.1,0.1-0.2c0-0.1,0-0.2-0.1-0.2c-0.1-0.1-0.1-0.1-0.2-0.1c-0.1,0-0.2,0-0.2,0.1
				C133,55.1,132.9,55.2,132.9,55.3z M133,54.6c0,0.1,0,0.1,0.1,0.2c0,0,0.1,0.1,0.2,0.1c0.1,0,0.1,0,0.2-0.1
				c0.1-0.1,0.1-0.1,0.1-0.2c0-0.1,0-0.1-0.1-0.2c0,0-0.1-0.1-0.2-0.1c-0.1,0-0.1,0-0.2,0.1C133.1,54.4,133,54.5,133,54.6z"/>
		</g>
		<polygon class="st24" points="134.6,52 128.9,52.2 129.1,50.4 134.9,50.2 		"/>
		<g class="st39">
			<path class="st41" d="M130.6,50.5l0.2,0c0.1,0,0.1,0,0.1,0c0,0,0,0,0.1,0c0,0,0,0,0,0.1c0,0,0,0,0,0.1c0,0,0,0-0.1,0.1
				c0,0,0,0,0.1,0c0,0,0,0.1,0,0.1c0,0.1,0,0.1-0.1,0.1c0,0-0.1,0-0.2,0l-0.3,0L130.6,50.5z M130.6,51l0.1,0c0.1,0,0.1,0,0.1,0
				c0,0,0,0,0-0.1c0,0,0,0,0,0s0,0,0,0c0,0,0,0-0.1,0l-0.1,0L130.6,51z M130.6,50.8l0.1,0c0,0,0.1,0,0.1,0c0,0,0,0,0,0c0,0,0,0,0,0
				c0,0,0,0,0-0.1c0,0-0.1,0-0.1,0l-0.1,0L130.6,50.8z"/>
			<path class="st41" d="M131,51.1l0.2-0.3l-0.1-0.3l0.1,0l0.1,0.1c0,0,0,0,0,0.1c0,0,0,0,0.1-0.1l0.1-0.1l0.1,0l-0.2,0.3l0.2,0.3
				l-0.1,0l-0.1-0.2l0,0l-0.2,0.2L131,51.1z"/>
			<path class="st41" d="M131.6,50.8c0-0.1,0.1-0.2,0.1-0.2c0.1,0,0.1-0.1,0.2-0.1c0.1,0,0.1,0,0.2,0.1c0,0,0.1,0.1,0,0.2
				c0,0.1,0,0.1-0.1,0.2c0,0-0.1,0.1-0.1,0.1c0,0-0.1,0-0.1,0c-0.1,0-0.1,0-0.2-0.1C131.6,50.9,131.6,50.9,131.6,50.8z M131.7,50.8
				c0,0.1,0,0.1,0,0.2c0,0,0.1,0.1,0.1,0c0,0,0.1,0,0.1-0.1c0,0,0.1-0.1,0.1-0.2c0-0.1,0-0.1,0-0.2c0,0-0.1-0.1-0.1,0
				c0,0-0.1,0-0.1,0.1C131.7,50.7,131.7,50.7,131.7,50.8z"/>
			<path class="st41" d="M132.3,50.5l0.4,0l-0.1,0.5l0.1,0l0,0.2l-0.1,0l0-0.2l-0.4,0l0,0.2l-0.1,0l0-0.2l0,0
				C132.2,50.9,132.3,50.7,132.3,50.5z M132.4,50.6c0,0.2-0.1,0.3-0.1,0.4l0.3,0l0.1-0.4L132.4,50.6z"/>
			<path class="st41" d="M133.3,50.3l0.7,0.4l-0.8,0.4L133.3,50.3z"/>
		</g>
		<polygon class="st24" points="131.4,60.1 124.3,60.7 124.4,59.5 131.5,58.9 		"/>
		<g class="st39">
			<path class="st41" d="M125.3,59.4l-0.1,0.8l-0.7-0.3L125.3,59.4z"/>
			<path class="st41" d="M125.8,59.5l0.2,0c0.1,0,0.1,0,0.1,0s0,0,0.1,0c0,0,0,0,0,0.1c0,0,0,0,0,0.1s0,0-0.1,0.1c0,0,0,0,0.1,0
				c0,0,0,0,0,0.1c0,0.1,0,0.1-0.1,0.1c0,0-0.1,0-0.2,0.1l-0.3,0L125.8,59.5z M125.9,60l0.1,0c0.1,0,0.1,0,0.1,0c0,0,0,0,0-0.1
				c0,0,0,0,0,0c0,0,0,0,0,0c0,0,0,0-0.1,0l-0.1,0L125.9,60z M125.9,59.8l0.1,0c0,0,0.1,0,0.1,0c0,0,0,0,0,0s0,0,0,0c0,0,0,0,0-0.1
				c0,0-0.1,0-0.1,0l-0.1,0L125.9,59.8z"/>
			<path class="st41" d="M126.4,59.5L126.4,59.5l0.1,0.2l0.1,0c0.1,0,0.1,0,0.2,0c0,0,0.1,0.1,0,0.1c0,0,0,0.1-0.1,0.1
				c0,0-0.1,0.1-0.2,0.1l-0.2,0L126.4,59.5z M126.4,59.9l0.1,0c0.1,0,0.1,0,0.1,0c0,0,0,0,0-0.1c0,0,0,0,0-0.1c0,0-0.1,0-0.1,0
				l-0.1,0L126.4,59.9z M126.9,59.4L126.9,59.4l0,0.5l-0.1,0L126.9,59.4z"/>
			<path class="st41" d="M127,60l0.2-0.3l-0.2-0.3l0.1,0l0.1,0.1c0,0,0,0,0,0.1c0,0,0,0,0-0.1l0.1-0.1l0.1,0l-0.2,0.3l0.2,0.3
				l-0.1,0l-0.1-0.2l0,0l-0.2,0.2L127,60z"/>
			<path class="st41" d="M127.6,59.6c0-0.1,0.1-0.2,0.1-0.2c0.1,0,0.1-0.1,0.2-0.1c0.1,0,0.1,0,0.2,0.1c0,0,0.1,0.1,0,0.2
				c0,0.1,0,0.1-0.1,0.2c0,0-0.1,0.1-0.1,0.1c0,0-0.1,0-0.1,0c-0.1,0-0.1,0-0.2-0.1C127.6,59.8,127.6,59.7,127.6,59.6z M127.7,59.6
				c0,0.1,0,0.1,0,0.2c0,0,0.1,0,0.1,0c0,0,0.1,0,0.1-0.1c0,0,0.1-0.1,0.1-0.2c0-0.1,0-0.1,0-0.2c0,0-0.1,0-0.1,0c0,0-0.1,0-0.1,0.1
				C127.8,59.5,127.7,59.6,127.7,59.6z"/>
			<path class="st41" d="M128.4,59.3l0.4,0l-0.1,0.5l0.1,0l0,0.2l-0.1,0l0-0.2l-0.4,0l0,0.2l-0.1,0l0-0.2l0.1,0
				C128.3,59.7,128.3,59.5,128.4,59.3z M128.4,59.4c0,0.2-0.1,0.3-0.1,0.4l0.3,0l0-0.4L128.4,59.4z"/>
		</g>
	</g>
</g>
<rect x="193.3" y="15.8" class="st0" width="1.5" height="23.9"/>
<g>
	<g>
		<path class="st1" d="M193.9,96.1c-0.4,0-0.9-0.1-1.5-0.3c0,0-0.6-0.2-1.7-0.4c-26.4-6.7-39.9-10.2-40.1-10.3
			c-0.6-0.2-0.6-0.9-0.5-1.2c0-0.3,0.5-1.1,11.7-6.8c5.6-2.8,11.3-5.6,11.8-5.8c-0.2-0.1-0.2-0.1-0.2-0.1l0,0l0,0
			c0-0.1-0.1-0.2-0.1-18.3c0-9,0-18,0-18.1v-0.2h0.2c0.2,0,15.1-0.1,20.6,0c6.6,0.1,6.6,0.1,18.8,1.7l1.8,0.2c0.3,0,0.5,0.3,0.5,0.6
			v41.2c0,0.3-0.2,0.5-0.4,0.5c-0.1,0-0.1,0.1-0.2,0.1h0.2l0.1-0.1l0.1,0.1l0.4,0.1l-0.2,0.2c0.1,0.2,0.2,0.7,0.2,1.6l0,0
			c0.1,1.8-0.5,2.4-1,2.6c-0.1,0-0.1,0-0.2,0.1l0.2,0.1h-2.8L194.7,96C194.3,96.1,194.2,96.1,193.9,96.1z M150.4,83.9L150.4,83.9
			L150.4,83.9c0,0.1-0.2,0.7,0.3,0.9c0.2,0.1,7.4,1.9,40.1,10.3c1,0.3,1.6,0.4,1.7,0.4c1.5,0.4,1.7,0.2,1.8,0.2l0,0l17.9-13.1
			l0.2,0.3l-0.4,0.3h1.4l0,0c0.2,0,0.4,0,0.6-0.1c0.6-0.2,0.9-1,0.8-2.2l0,0c-0.1-0.7-0.1-1.2-0.2-1.4l-1.3,0.9l0,0l0,0l-0.2-0.3
			c0.5-0.4,0.9-0.7,1.2-0.8l-2.6-0.5v-0.2c0,0,0-0.1,0-0.2v-0.3l1.5,0.3c0.5,0.1,0.8,0.1,0.8,0.1c0.2,0,0.4,0,0.5-0.1l0,0l0,0
			c0.1,0,0.1-0.1,0.1-0.2V36.9c0-0.1-0.1-0.2-0.1-0.2l0,0l-1.8-0.2c-12.2-1.5-12.2-1.5-18.8-1.6c-5.1-0.1-18.6,0-20.4,0
			c0,12-0.1,34.3,0,36c0.1,0,0.5,0.1,1.4,0.4h0.2v0.2c0,0.1,0,0.2,0,0.3V72l-1.5-0.3c-0.6,0.3-6,2.9-11.4,5.7
			C152.2,82.4,150.6,83.6,150.4,83.9z M173.5,71L173.5,71L173.5,71z M193.9,95.4L193.9,95.4V95v0.2L194,95L193.9,95.4z M199.3,90.8
			l-0.2-0.3l0,0l0,0c0.5-0.4,0.9-0.7,1.5-1.1l0.2,0.3L199.3,90.8z M207.8,77.9h-0.2L178,72.5v-0.2c0-0.1,0-0.1,0-0.2v-0.2l0.3,0.1
			h0.2c7,1.4,19.7,3.7,29.1,5.3h0.2v0.2c0,0.1,0,0.1,0,0.2V77.9z"/>
		<g>
			<polygon points="213.4,83.3 211.3,83.4 212.3,82.7 			"/>
			
				<linearGradient id="SVGID_25_" gradientUnits="userSpaceOnUse" x1="173.3024" y1="350.3497" x2="214.8469" y2="350.3497" gradientTransform="matrix(1 0 0 1 0 -293.6719)">
				<stop  offset="0" style="stop-color:#DBDBDB"/>
				<stop  offset="0.2107" style="stop-color:#CACACA"/>
				<stop  offset="0.5242" style="stop-color:#B5B5B5"/>
				<stop  offset="0.7349" style="stop-color:#AEAEAE"/>
				<stop  offset="0.9518" style="stop-color:#666666"/>
			</linearGradient>
			<path class="st42" d="M173.4,71c-0.1-0.2,0-36.3,0-36.3s15-0.1,20.6,0c6.9,0.1,6.6,0.1,20.6,1.9l0.3,41.7c0,0-0.2,0.4-0.9,0.4
				C213.6,78.6,174,71.6,173.4,71z"/>
			<polygon class="st3" points="212,78.3 207.7,77.5 207.8,75.4 212,76 			"/>
			
				<linearGradient id="SVGID_26_" gradientUnits="userSpaceOnUse" x1="209.6546" y1="371.7982" x2="210.0823" y2="369.3724" gradientTransform="matrix(1 0 0 1 0 -293.6719)">
				<stop  offset="0" style="stop-color:#DBDBDB"/>
				<stop  offset="4.981127e-02" style="stop-color:#D1D1D1"/>
				<stop  offset="0.2867" style="stop-color:#A3A3A3"/>
				<stop  offset="0.4974" style="stop-color:#828282"/>
				<stop  offset="0.6721" style="stop-color:#6D6D6D"/>
				<stop  offset="0.7892" style="stop-color:#666666"/>
				<stop  offset="0.7986" style="stop-color:#777777"/>
				<stop  offset="0.8142" style="stop-color:#8D8D8D"/>
				<stop  offset="0.8326" style="stop-color:#9E9E9E"/>
				<stop  offset="0.8553" style="stop-color:#AAAAAA"/>
				<stop  offset="0.8873" style="stop-color:#B1B1B1"/>
				<stop  offset="0.9759" style="stop-color:#B3B3B3"/>
			</linearGradient>
			<path class="st43" d="M211.9,78.5l-4.3-0.7c0,0-0.1-2.3,0.5-2.3c0.5,0,4.2,0.5,3.9,0.9C211.7,76.7,211.9,78.5,211.9,78.5z"/>
			<polygon class="st3" points="178.5,72.2 175.1,71.5 175.2,69.7 178.5,70.2 			"/>
			
				<linearGradient id="SVGID_27_" gradientUnits="userSpaceOnUse" x1="176.5101" y1="365.8062" x2="176.8911" y2="363.6452" gradientTransform="matrix(1 0 0 1 0 -293.6719)">
				<stop  offset="0" style="stop-color:#DBDBDB"/>
				<stop  offset="4.981127e-02" style="stop-color:#D1D1D1"/>
				<stop  offset="0.2867" style="stop-color:#A3A3A3"/>
				<stop  offset="0.4974" style="stop-color:#828282"/>
				<stop  offset="0.6721" style="stop-color:#6D6D6D"/>
				<stop  offset="0.7892" style="stop-color:#666666"/>
				<stop  offset="0.7986" style="stop-color:#777777"/>
				<stop  offset="0.8142" style="stop-color:#8D8D8D"/>
				<stop  offset="0.8326" style="stop-color:#9E9E9E"/>
				<stop  offset="0.8553" style="stop-color:#AAAAAA"/>
				<stop  offset="0.8873" style="stop-color:#B1B1B1"/>
				<stop  offset="0.9759" style="stop-color:#B3B3B3"/>
			</linearGradient>
			<path class="st44" d="M178.2,72.5l-3.3-0.6c0,0,0-2,0.6-2c0.4,0,3.2,0.3,3,0.7C178.3,70.9,178.2,72.5,178.2,72.5z"/>
			<polygon class="st6" points="213.6,74.8 173.9,68.2 173.9,36.6 213.6,38.6 			"/>
			
				<linearGradient id="SVGID_28_" gradientUnits="userSpaceOnUse" x1="216.1505" y1="362.5869" x2="173.6168" y2="332.8045" gradientTransform="matrix(1 0 0 1 0 -293.6719)">
				<stop  offset="0" style="stop-color:#FFFFFF"/>
				<stop  offset="0.1942" style="stop-color:#D8E7F3"/>
				<stop  offset="0.4522" style="stop-color:#AACBE6"/>
				<stop  offset="0.682" style="stop-color:#89B7DC"/>
				<stop  offset="0.8724" style="stop-color:#74AAD6"/>
				<stop  offset="1" style="stop-color:#6DA6D4"/>
			</linearGradient>
			<polygon class="st45" points="212.8,73.7 174.9,67.4 174.9,37.3 212.8,39.2 			"/>
			
				<linearGradient id="SVGID_29_" gradientUnits="userSpaceOnUse" x1="166.4012" y1="360.1096" x2="198.5546" y2="390.093" gradientTransform="matrix(1 0 0 1 0 -293.6719)">
				<stop  offset="0" style="stop-color:#DBDBDB"/>
				<stop  offset="0.1192" style="stop-color:#CACACA"/>
				<stop  offset="0.2965" style="stop-color:#B5B5B5"/>
				<stop  offset="0.4157" style="stop-color:#AEAEAE"/>
				<stop  offset="0.9819" style="stop-color:#4D4D4D"/>
			</linearGradient>
			<path class="st46" d="M194.1,95.2c-6.2-1-41.2-10.3-43.9-11.3c-0.3-1,23.4-12.5,23.4-12.5l41.2,7.6
				C214.6,79.1,194.1,93.9,194.1,95.2z"/>
			<path class="st6" d="M150.2,83.9c0,0-0.2,0.8,0.4,1c0.4,0.2,41.4,10.6,41.8,10.7c2,0.5,2,0.1,2,0.1l-0.5-0.6L150.2,83.9z"/>
			
				<linearGradient id="SVGID_30_" gradientUnits="userSpaceOnUse" x1="205.7264" y1="382.7685" x2="203.9502" y2="380.2318" gradientTransform="matrix(1 0 0 1 0 -293.6719)">
				<stop  offset="0" style="stop-color:#4D4D4D"/>
				<stop  offset="0.251" style="stop-color:#4F4F4F"/>
				<stop  offset="0.3718" style="stop-color:#575757"/>
				<stop  offset="0.4648" style="stop-color:#646464"/>
				<stop  offset="0.5435" style="stop-color:#767676"/>
				<stop  offset="0.6126" style="stop-color:#8E8E8E"/>
				<stop  offset="0.6751" style="stop-color:#ABABAB"/>
				<stop  offset="0.6807" style="stop-color:#AEAEAE"/>
				<stop  offset="0.6899" style="stop-color:#9D9D9D"/>
				<stop  offset="0.712" style="stop-color:#7A7A7A"/>
				<stop  offset="0.7365" style="stop-color:#5C5C5C"/>
				<stop  offset="0.7632" style="stop-color:#444444"/>
				<stop  offset="0.7933" style="stop-color:#313131"/>
				<stop  offset="0.8285" style="stop-color:#242424"/>
				<stop  offset="0.8737" style="stop-color:#1C1C1C"/>
				<stop  offset="0.9639" style="stop-color:#1A1A1A"/>
			</linearGradient>
			<path class="st47" d="M214.8,79c0,0,0.2,0.3,0.3,1.7c0,0.4,0.2,2-0.9,2.5c-1.2,0.5-1.9-0.5-1.9-0.5l-17.9,13.1
				c0,0-0.5-0.3-0.4-0.6c0-0.1,0.1-0.3,0.4-0.6c0.3-0.3,0.8-0.8,1-1s10.9-8.5,10.9-8.5L214.8,79"/>
			<polygon class="st10" points="160.9,79.1 173.1,72.6 210.9,79.7 199.9,88 			"/>
			<polygon class="st11" points="160.9,79.1 161.8,78.6 199.1,87.1 199.9,88 			"/>
			<polygon points="199.1,87.1 209.9,79.5 210.9,79.7 199.9,88 			"/>
			<polygon class="st12" points="173.1,72.6 173.2,72.3 211.3,79.4 210.9,79.7 			"/>
			<polygon class="st13" points="160.6,79 173.2,72.3 173.1,72.6 160.9,79.1 			"/>
			<ellipse class="st14" cx="213.8" cy="81.6" rx="0.8" ry="1.4"/>
			<path class="st15" d="M178.3,89.9c-0.3,0.2-0.7,0.4-0.9,0.3l-8.3-2.1c-0.2-0.1-0.2-0.3,0.1-0.5l5.8-3.9c0.3-0.2,0.7-0.4,0.9-0.3
				l7.5,1.8c0.2,0.1,0.2,0.3-0.1,0.5L178.3,89.9z"/>
			<path class="st15" d="M214.9,78.1c0,0.2-0.2,0.4-0.3,0.4l0,0c-0.2,0-0.3-0.2-0.3-0.4V36.9c0-0.2,0.2-0.4,0.3-0.4l0,0
				c0.2,0,0.3,0.2,0.3,0.4V78.1z"/>
		</g>
	</g>
	<polygon points="213.4,83.3 211.3,83.4 212.3,82.7 	"/>
	
		<linearGradient id="SVGID_31_" gradientUnits="userSpaceOnUse" x1="173.3024" y1="350.3497" x2="214.8469" y2="350.3497" gradientTransform="matrix(1 0 0 1 0 -293.6719)">
		<stop  offset="0" style="stop-color:#DBDBDB"/>
		<stop  offset="0.2107" style="stop-color:#CACACA"/>
		<stop  offset="0.5242" style="stop-color:#B5B5B5"/>
		<stop  offset="0.7349" style="stop-color:#AEAEAE"/>
		<stop  offset="0.9518" style="stop-color:#666666"/>
	</linearGradient>
	<path class="st48" d="M173.4,71c-0.1-0.2,0-36.3,0-36.3s15-0.1,20.6,0c6.9,0.1,6.6,0.1,20.6,1.9l0.3,41.7c0,0-0.2,0.4-0.9,0.4
		C213.6,78.6,174,71.6,173.4,71z"/>
	<polygon class="st3" points="212,78.3 207.7,77.5 207.8,75.4 212,76 	"/>
	
		<linearGradient id="SVGID_32_" gradientUnits="userSpaceOnUse" x1="209.6546" y1="371.7982" x2="210.0823" y2="369.3724" gradientTransform="matrix(1 0 0 1 0 -293.6719)">
		<stop  offset="0" style="stop-color:#DBDBDB"/>
		<stop  offset="4.981127e-02" style="stop-color:#D1D1D1"/>
		<stop  offset="0.2867" style="stop-color:#A3A3A3"/>
		<stop  offset="0.4974" style="stop-color:#828282"/>
		<stop  offset="0.6721" style="stop-color:#6D6D6D"/>
		<stop  offset="0.7892" style="stop-color:#666666"/>
		<stop  offset="0.7986" style="stop-color:#777777"/>
		<stop  offset="0.8142" style="stop-color:#8D8D8D"/>
		<stop  offset="0.8326" style="stop-color:#9E9E9E"/>
		<stop  offset="0.8553" style="stop-color:#AAAAAA"/>
		<stop  offset="0.8873" style="stop-color:#B1B1B1"/>
		<stop  offset="0.9759" style="stop-color:#B3B3B3"/>
	</linearGradient>
	<path class="st49" d="M211.9,78.5l-4.3-0.7c0,0-0.1-2.3,0.5-2.3c0.5,0,4.2,0.5,3.9,0.9C211.7,76.7,211.9,78.5,211.9,78.5z"/>
	<polygon class="st3" points="178.5,72.2 175.1,71.5 175.2,69.7 178.5,70.2 	"/>
	
		<linearGradient id="SVGID_33_" gradientUnits="userSpaceOnUse" x1="176.5101" y1="365.8062" x2="176.8911" y2="363.6452" gradientTransform="matrix(1 0 0 1 0 -293.6719)">
		<stop  offset="0" style="stop-color:#DBDBDB"/>
		<stop  offset="4.981127e-02" style="stop-color:#D1D1D1"/>
		<stop  offset="0.2867" style="stop-color:#A3A3A3"/>
		<stop  offset="0.4974" style="stop-color:#828282"/>
		<stop  offset="0.6721" style="stop-color:#6D6D6D"/>
		<stop  offset="0.7892" style="stop-color:#666666"/>
		<stop  offset="0.7986" style="stop-color:#777777"/>
		<stop  offset="0.8142" style="stop-color:#8D8D8D"/>
		<stop  offset="0.8326" style="stop-color:#9E9E9E"/>
		<stop  offset="0.8553" style="stop-color:#AAAAAA"/>
		<stop  offset="0.8873" style="stop-color:#B1B1B1"/>
		<stop  offset="0.9759" style="stop-color:#B3B3B3"/>
	</linearGradient>
	<path class="st50" d="M178.2,72.5l-3.3-0.6c0,0,0-2,0.6-2c0.4,0,3.2,0.3,3,0.7C178.3,70.9,178.2,72.5,178.2,72.5z"/>
	<polygon class="st6" points="213.6,74.8 173.9,68.2 173.9,36.6 213.6,38.6 	"/>
	
		<linearGradient id="SVGID_34_" gradientUnits="userSpaceOnUse" x1="216.1505" y1="362.5869" x2="173.6168" y2="332.8045" gradientTransform="matrix(1 0 0 1 0 -293.6719)">
		<stop  offset="0" style="stop-color:#FFFFFF"/>
		<stop  offset="0.1942" style="stop-color:#D8E7F3"/>
		<stop  offset="0.4522" style="stop-color:#AACBE6"/>
		<stop  offset="0.682" style="stop-color:#89B7DC"/>
		<stop  offset="0.8724" style="stop-color:#74AAD6"/>
		<stop  offset="1" style="stop-color:#6DA6D4"/>
	</linearGradient>
	<polygon class="st51" points="212.8,73.7 174.9,67.4 174.9,37.3 212.8,39.2 	"/>
	
		<linearGradient id="SVGID_35_" gradientUnits="userSpaceOnUse" x1="166.4012" y1="360.1096" x2="198.5546" y2="390.093" gradientTransform="matrix(1 0 0 1 0 -293.6719)">
		<stop  offset="0" style="stop-color:#DBDBDB"/>
		<stop  offset="0.1192" style="stop-color:#CACACA"/>
		<stop  offset="0.2965" style="stop-color:#B5B5B5"/>
		<stop  offset="0.4157" style="stop-color:#AEAEAE"/>
		<stop  offset="0.9819" style="stop-color:#4D4D4D"/>
	</linearGradient>
	<path class="st52" d="M194.1,95.2c-6.2-1-41.2-10.3-43.9-11.3c-0.3-1,23.4-12.5,23.4-12.5l41.2,7.6
		C214.6,79.1,194.1,93.9,194.1,95.2z"/>
	<path class="st6" d="M150.2,83.9c0,0-0.2,0.8,0.4,1c0.4,0.2,41.4,10.6,41.8,10.7c2,0.5,2,0.1,2,0.1l-0.5-0.6L150.2,83.9z"/>
	
		<linearGradient id="SVGID_36_" gradientUnits="userSpaceOnUse" x1="205.7264" y1="382.7685" x2="203.9502" y2="380.2318" gradientTransform="matrix(1 0 0 1 0 -293.6719)">
		<stop  offset="0" style="stop-color:#4D4D4D"/>
		<stop  offset="0.251" style="stop-color:#4F4F4F"/>
		<stop  offset="0.3718" style="stop-color:#575757"/>
		<stop  offset="0.4648" style="stop-color:#646464"/>
		<stop  offset="0.5435" style="stop-color:#767676"/>
		<stop  offset="0.6126" style="stop-color:#8E8E8E"/>
		<stop  offset="0.6751" style="stop-color:#ABABAB"/>
		<stop  offset="0.6807" style="stop-color:#AEAEAE"/>
		<stop  offset="0.6899" style="stop-color:#9D9D9D"/>
		<stop  offset="0.712" style="stop-color:#7A7A7A"/>
		<stop  offset="0.7365" style="stop-color:#5C5C5C"/>
		<stop  offset="0.7632" style="stop-color:#444444"/>
		<stop  offset="0.7933" style="stop-color:#313131"/>
		<stop  offset="0.8285" style="stop-color:#242424"/>
		<stop  offset="0.8737" style="stop-color:#1C1C1C"/>
		<stop  offset="0.9639" style="stop-color:#1A1A1A"/>
	</linearGradient>
	<path class="st53" d="M214.8,79c0,0,0.2,0.3,0.3,1.7c0,0.4,0.2,2-0.9,2.5c-1.2,0.5-1.9-0.5-1.9-0.5l-17.9,13.1c0,0-0.5-0.3-0.4-0.6
		c0-0.1,0.1-0.3,0.4-0.6c0.3-0.3,0.8-0.8,1-1s10.9-8.5,10.9-8.5L214.8,79"/>
	<polygon class="st10" points="160.9,79.1 173.1,72.6 210.9,79.7 199.9,88 	"/>
	<polygon class="st11" points="160.9,79.1 161.8,78.6 199.1,87.1 199.9,88 	"/>
	<polygon points="199.1,87.1 209.9,79.5 210.9,79.7 199.9,88 	"/>
	<polygon class="st12" points="173.1,72.6 173.2,72.3 211.3,79.4 210.9,79.7 	"/>
	<polygon class="st13" points="160.6,79 173.2,72.3 173.1,72.6 160.9,79.1 	"/>
	<ellipse class="st14" cx="213.8" cy="81.6" rx="0.8" ry="1.4"/>
	<path class="st15" d="M178.3,89.9c-0.3,0.2-0.7,0.4-0.9,0.3l-8.3-2.1c-0.2-0.1-0.2-0.3,0.1-0.5l5.8-3.9c0.3-0.2,0.7-0.4,0.9-0.3
		l7.5,1.8c0.2,0.1,0.2,0.3-0.1,0.5L178.3,89.9z"/>
	<path class="st15" d="M214.9,78.1c0,0.2-0.2,0.4-0.3,0.4l0,0c-0.2,0-0.3-0.2-0.3-0.4V36.9c0-0.2,0.2-0.4,0.3-0.4l0,0
		c0.2,0,0.3,0.2,0.3,0.4V78.1z"/>
</g>
<rect x="76" y="15.8" class="st0" width="1.5" height="23.9"/>
<g>
	<g>
		<path class="st22" d="M97.2,39.7L97.2,39.7L97.2,39.7c0-0.2,0-0.3,0-0.3c-0.1-0.5-0.3-0.8-0.3-0.8l-3.4-0.3l-39-0.5h1.2h-1.2
			l0.2,36.1l1.8,0.7l0.1-0.1v0.1L95.5,68l1.5-2c0-0.1,0-0.1,0-0.2l0.1-9.2l0,0l0.1-5.5l0,0V39.7C97.2,39.8,97.2,39.7,97.2,39.7z"/>
		<path class="st22" d="M56.4,74.8L56.4,74.8L54.5,74v-0.1l-0.2-36.3h0.2l0,0l39,0.5l0,0l3.5,0.3v0.1c0,0,0.2,0.3,0.3,0.9l0,0
			c0,0,0,0.1,0,0.3l0,0L97.2,51l0,0l-0.1,5.7L97,65.9c0,0.1,0,0.2,0,0.3l0,0l-1.4,2h-0.1L56.4,74.8z M54.9,73.8l1.6,0.6l0.3-0.1v0.1
			l38.6-6.6l1.5-1.9l0,0l0,0l0,0l0.1-9.2l0.1-5.3l0,0L97,39.7c0-0.1,0-0.2,0-0.3c-0.1-0.3-0.2-0.6-0.2-0.7l-3.3-0.3l-37.8-0.5l0,0
			h-1L54.9,73.8z"/>
	</g>
	<g>
		<g>
			
				<linearGradient id="SVGID_37_" gradientUnits="userSpaceOnUse" x1="80.6479" y1="363.7489" x2="71.6184" y2="327.5334" gradientTransform="matrix(1 0 0 1 0 -293.6719)">
				<stop  offset="0" style="stop-color:#D2CFC7"/>
				<stop  offset="0.2912" style="stop-color:#D2CFC7"/>
				<stop  offset="0.7582" style="stop-color:#E2E0DA"/>
				<stop  offset="1" style="stop-color:#E2E0DA"/>
			</linearGradient>
			<polygon class="st54" points="55.7,37.9 96.9,38.6 97.2,39.7 97,66 57.5,74 			"/>
			<polygon class="st24" points="55.7,37.9 96.9,38.6 97.2,39.7 97,66 57.5,74 			"/>
		</g>
		<g>
			
				<linearGradient id="SVGID_38_" gradientUnits="userSpaceOnUse" x1="81.057" y1="337.5836" x2="106.7995" y2="358.567" gradientTransform="matrix(1 0 0 1 0 -293.6719)">
				<stop  offset="0" style="stop-color:#BBBBAD"/>
				<stop  offset="0.2512" style="stop-color:#C2C1B4"/>
				<stop  offset="0.6416" style="stop-color:#D2CFC7"/>
				<stop  offset="1" style="stop-color:#D4D0C9"/>
			</linearGradient>
			<path class="st55" d="M97.2,45.5l-5.8,0.2c0,0-2,0.2-2,2.1c0,1,0,11.7,0,12.8c0,2.7,1.3,2.4,1.3,2.4l6.4-0.5L97.2,45.5z"/>
			<path class="st24" d="M97.2,45.5l-5.8,0.2c0,0-2,0.2-2,2.1c0,1,0,11.7,0,12.8c0,2.7,1.3,2.4,1.3,2.4l6.4-0.5L97.2,45.5z"/>
		</g>
		<g>
			
				<linearGradient id="SVGID_39_" gradientUnits="userSpaceOnUse" x1="-1058.3981" y1="339.7948" x2="-1049.1222" y2="360.6288" gradientTransform="matrix(-1 0 0 1 -990.4943 -293.6719)">
				<stop  offset="0" style="stop-color:#BBBBAD"/>
				<stop  offset="0.2512" style="stop-color:#C2C1B4"/>
				<stop  offset="0.6416" style="stop-color:#D2CFC7"/>
				<stop  offset="1" style="stop-color:#D4D0C9"/>
			</linearGradient>
			<path class="st56" d="M58.3,46.4l9.4-0.2c0,0,1.8,0,1.8,1.9c0,1,0,13.7,0,14.9c0,2.7-2.2,2.9-2.2,2.9l-8.8,1L58.3,46.4z"/>
			<path class="st24" d="M58.3,46.4l9.4-0.2c0,0,1.8,0,1.8,1.9c0,1,0,13.7,0,14.9c0,2.7-2.2,2.9-2.2,2.9l-8.8,1L58.3,46.4z"/>
		</g>
		<g>
			
				<linearGradient id="SVGID_40_" gradientUnits="userSpaceOnUse" x1="54.4918" y1="349.9219" x2="58.6295" y2="349.9219" gradientTransform="matrix(1 0 0 1 0 -293.6719)">
				<stop  offset="0" style="stop-color:#C4C2BA"/>
				<stop  offset="0.332" style="stop-color:#C8C5BE"/>
				<stop  offset="0.67" style="stop-color:#D2CFC9"/>
				<stop  offset="1" style="stop-color:#E2E0DA"/>
			</linearGradient>
			<polygon class="st57" points="58.2,41.4 58.6,73.5 57.7,74.1 56.5,74.6 54.7,74 54.5,37.9 55.7,37.9 			"/>
		</g>
		<g>
			
				<linearGradient id="SVGID_41_" gradientUnits="userSpaceOnUse" x1="91.7909" y1="347.9719" x2="97.1327" y2="347.9719" gradientTransform="matrix(1 0 0 1 0 -293.6719)">
				<stop  offset="0" style="stop-color:#919287"/>
				<stop  offset="0.1347" style="stop-color:#98988E"/>
				<stop  offset="0.3661" style="stop-color:#AAAAA0"/>
				<stop  offset="0.6644" style="stop-color:#C7C4BB"/>
				<stop  offset="0.7803" style="stop-color:#D2CFC7"/>
				<stop  offset="0.7979" style="stop-color:#D9D5D1"/>
				<stop  offset="0.8303" style="stop-color:#E0DDDB"/>
				<stop  offset="0.8757" style="stop-color:#E5E2E2"/>
				<stop  offset="1" style="stop-color:#E6E3E3"/>
			</linearGradient>
			<path class="st58" d="M97.1,56.7L94.9,57l-0.1,2.5l-3-5.2l2.9-5.2l-0.1,2.2l2.5-0.2L97.1,56.7z"/>
			<path class="st24" d="M97.1,56.7L94.9,57l-0.1,2.5l-3-5.2l2.9-5.2l-0.1,2.2l2.5-0.2L97.1,56.7z"/>
		</g>
		<g>
			
				<linearGradient id="SVGID_42_" gradientUnits="userSpaceOnUse" x1="57.1775" y1="344.9557" x2="43.7539" y2="337.2651" gradientTransform="matrix(1.0241 -1.000000e-04 -1.000000e-04 1.0263 9.7208 -294.04)">
				<stop  offset="0" style="stop-color:#919287"/>
				<stop  offset="0.1347" style="stop-color:#98988E"/>
				<stop  offset="0.3661" style="stop-color:#AAAAA0"/>
				<stop  offset="0.6644" style="stop-color:#C7C4BB"/>
				<stop  offset="0.7803" style="stop-color:#D2CFC7"/>
				<stop  offset="0.7979" style="stop-color:#D9D5D1"/>
				<stop  offset="0.8303" style="stop-color:#E0DDDB"/>
				<stop  offset="0.8757" style="stop-color:#E5E2E2"/>
				<stop  offset="1" style="stop-color:#E6E3E3"/>
			</linearGradient>
			<path class="st59" d="M58.4,53.5l4-0.2v-2.6l3.5,5.6l-3.6,6.2v-2.6l-3.8,0.2L58.4,53.5z"/>
			<path class="st24" d="M58.4,53.5l4-0.2v-2.6l3.5,5.6l-3.6,6.2v-2.6l-3.8,0.2L58.4,53.5z"/>
		</g>
		
			<linearGradient id="SVGID_43_" gradientUnits="userSpaceOnUse" x1="-861.7375" y1="339.6408" x2="-852.1749" y2="361.119" gradientTransform="matrix(-1 0 0 1 -794.0988 -293.6719)">
			<stop  offset="0" style="stop-color:#919287"/>
			<stop  offset="0.1347" style="stop-color:#98988E"/>
			<stop  offset="0.3661" style="stop-color:#AAAAA0"/>
			<stop  offset="0.6644" style="stop-color:#C7C4BB"/>
			<stop  offset="0.7803" style="stop-color:#D2CFC7"/>
			<stop  offset="0.7979" style="stop-color:#D9D5D1"/>
			<stop  offset="0.8303" style="stop-color:#E0DDDB"/>
			<stop  offset="0.8757" style="stop-color:#E5E2E2"/>
			<stop  offset="1" style="stop-color:#E6E3E3"/>
		</linearGradient>
		<path class="st60" d="M67.5,65.9c1.5-0.3,1.9-1.7,1.9-3c0-1,0-13.6,0-14.7c0-1.8-1.7-1.7-1.7-1.7l-9,0.1l-1.1-0.2l10.1-0.2
			c0,0,1.8,0,1.8,1.9c0,1,0,13.8,0,14.9C69.5,65.7,67.5,66,67.5,65.9l-10,1.2l1.1-0.3C66.4,66.1,67.3,65.9,67.5,65.9z"/>
		<g>
			
				<linearGradient id="SVGID_44_" gradientUnits="userSpaceOnUse" x1="90.6257" y1="347.6709" x2="100.8479" y2="348.6647" gradientTransform="matrix(1 0 0 1 0 -293.6719)">
				<stop  offset="0" style="stop-color:#D2CFC7"/>
				<stop  offset="0.2912" style="stop-color:#D2CFC7"/>
				<stop  offset="0.7582" style="stop-color:#E2E0DA"/>
				<stop  offset="1" style="stop-color:#E2E0DA"/>
			</linearGradient>
			<path class="st61" d="M97.1,56.7L94.9,57l-0.1,2.5l-2.9-5.2l2.8-5v2.2l2.5-0.2L97.1,56.7z"/>
			<path class="st24" d="M97.1,56.7L94.9,57l-0.1,2.5l-2.9-5.2l2.8-5v2.2l2.5-0.2L97.1,56.7z"/>
		</g>
		
			<linearGradient id="SVGID_45_" gradientUnits="userSpaceOnUse" x1="-575.6819" y1="339.6663" x2="-568.3419" y2="356.1526" gradientTransform="matrix(1 0 0 1 665.5566 -293.6719)">
			<stop  offset="0" style="stop-color:#919287"/>
			<stop  offset="0.1347" style="stop-color:#98988E"/>
			<stop  offset="0.3661" style="stop-color:#AAAAA0"/>
			<stop  offset="0.6644" style="stop-color:#C7C4BB"/>
			<stop  offset="0.7803" style="stop-color:#D2CFC7"/>
			<stop  offset="0.7979" style="stop-color:#D9D5D1"/>
			<stop  offset="0.8303" style="stop-color:#E0DDDB"/>
			<stop  offset="0.8757" style="stop-color:#E5E2E2"/>
			<stop  offset="1" style="stop-color:#E6E3E3"/>
		</linearGradient>
		<path class="st62" d="M90.6,63c-0.9-0.1-1.1-0.9-1.1-2c0-0.9,0-12.2,0-13.1c0.1-2,1.7-2,1.7-2l6.1-0.4l0,0l-6.1,0.1
			c0,0-1.7-0.1-1.8,2.2c-0.1,0.9-0.1,12.1-0.1,13.1c-0.1,2.3,1.3,2.3,1.4,2.3c0.4,0,6.4-0.6,6.4-0.6l0,0C93.8,62.8,91,63,90.6,63z"
			/>
		<g>
			<g>
				<path class="st33" d="M85.6,54.8c0,2.9-2.7,5.5-5.9,5.8c-3.2,0.3-5.8-1.9-5.7-5c0.1-3.1,2.7-5.7,5.9-5.8S85.6,51.9,85.6,54.8z"
					/>
			</g>
			<path class="st33" d="M85.5,59.4c0,0.4-0.3,0.7-0.7,0.8l-10.2,1c-0.4,0-0.7-0.3-0.7-0.6l0.2-9.7c0-0.4,0.3-0.7,0.7-0.7l10.1-0.5
				c0.4,0,0.7,0.3,0.7,0.7L85.5,59.4z"/>
		</g>
		<path class="st34" d="M85.2,59c0,0.4-0.3,0.7-0.7,0.8l-9.6,0.9c-0.4,0-0.7-0.3-0.7-0.6l0.2-9.2c0-0.4,0.3-0.7,0.7-0.7l9.4-0.4
			c0.4,0,0.7,0.3,0.7,0.7V59z"/>
		<g>
			
				<linearGradient id="SVGID_46_" gradientUnits="userSpaceOnUse" x1="54.5" y1="331.8719" x2="96.9" y2="331.8719" gradientTransform="matrix(1 0 0 1 0 -293.6719)">
				<stop  offset="0" style="stop-color:#D2CFC7"/>
				<stop  offset="0.2912" style="stop-color:#D2CFC7"/>
				<stop  offset="0.7582" style="stop-color:#E2E0DA"/>
				<stop  offset="1" style="stop-color:#E2E0DA"/>
			</linearGradient>
			<polygon class="st63" points="54.5,37.8 93.5,38.3 96.9,38.6 55.7,37.9 			"/>
			<polygon class="st24" points="54.5,37.8 93.5,38.3 96.9,38.6 55.7,37.9 			"/>
		</g>
		<g>
			
				<linearGradient id="SVGID_47_" gradientUnits="userSpaceOnUse" x1="75.5517" y1="337.0765" x2="55.2424" y2="356.5758" gradientTransform="matrix(1 0 0 1 0 -293.6719)">
				<stop  offset="0" style="stop-color:#BBBBAD"/>
				<stop  offset="0.2512" style="stop-color:#C2C1B4"/>
				<stop  offset="0.6416" style="stop-color:#D2CFC7"/>
				<stop  offset="1" style="stop-color:#D4D0C9"/>
			</linearGradient>
			<path class="st64" d="M58.4,53.5l4-0.1v-2.5l3.4,5.5l-3.5,6.1V60l-3.8,0.3L58.4,53.5z"/>
			<path class="st24" d="M58.4,53.5l4-0.1v-2.5l3.4,5.5l-3.5,6.1V60l-3.8,0.3L58.4,53.5z"/>
		</g>
		<g>
			<g>
				<polygon class="st37" points="58.5,73.7 56.6,74.6 56.6,39.7 58.5,39.7 				"/>
			</g>
		</g>
		<g>
			
				<linearGradient id="SVGID_48_" gradientUnits="userSpaceOnUse" x1="78.076" y1="339.0708" x2="74.9853" y2="326.6745" gradientTransform="matrix(1 0 0 1 0 -293.6719)">
				<stop  offset="0" style="stop-color:#D2CFC7"/>
				<stop  offset="0.2912" style="stop-color:#D2CFC7"/>
				<stop  offset="0.7582" style="stop-color:#E2E0DA"/>
				<stop  offset="1" style="stop-color:#E2E0DA"/>
			</linearGradient>
			<path class="st65" d="M97.2,39.5c0,0,0.1,0.9-0.3,1.2C96.5,41,96,41,95.1,41c-0.7,0-34.3,1.4-34.8,1.4c-0.8,0-1.7,0-2.8-1
				s-1.5-2.7-1.9-3.5l41.3,0.8C96.9,38.6,97.1,38.9,97.2,39.5"/>
			<path class="st24" d="M97.2,39.5c0,0,0.1,0.9-0.3,1.2C96.5,41,96,41,95.1,41c-0.7,0-34.3,1.4-34.8,1.4c-0.8,0-1.7,0-2.8-1
				s-1.5-2.7-1.9-3.5l41.3,0.8C96.9,38.6,97.1,38.9,97.2,39.5"/>
		</g>
		<g>
			<path class="st22" d="M56.6,74.6c0,0,1-1.2,1.6-1.6c0.6-0.5,1.4-0.7,2-0.9c0.6-0.1,34.8-6.3,35.2-6.4s1.2-0.3,1.3-0.2
				c0.2,0.1,0.4,0.3,0.3,0.5l-1.5,2L56.6,74.6z"/>
			<path class="st24" d="M56.6,74.6c0,0,1-1.2,1.6-1.6c0.6-0.5,1.4-0.7,2-0.9c0.6-0.1,34.8-6.3,35.2-6.4s1.2-0.3,1.3-0.2
				c0.2,0.1,0.4,0.3,0.3,0.5l-1.5,2L56.6,74.6z"/>
		</g>
		<polygon class="st24" points="84.8,56.3 75,56.8 75.1,54.6 85,54.1 		"/>
		<g class="st39">
			<path class="st40" d="M75.8,56.2l-0.2,0l0.1-1.3c0,0-0.1,0.1-0.2,0.1c-0.1,0.1-0.2,0.1-0.2,0.1l0-0.2c0.1-0.1,0.2-0.1,0.3-0.2
				s0.2-0.2,0.2-0.2l0.1,0L75.8,56.2z"/>
			<path class="st40" d="M76.4,55.7l0.2,0c0,0.1,0,0.2,0.1,0.2c0.1,0,0.1,0.1,0.2,0.1c0.1,0,0.2,0,0.3-0.1c0.1-0.1,0.1-0.2,0.1-0.3
				c0-0.1,0-0.2-0.1-0.3c-0.1-0.1-0.1-0.1-0.2-0.1c-0.1,0-0.1,0-0.2,0.1c-0.1,0-0.1,0.1-0.1,0.1l-0.2,0l0.2-0.8l0.8,0l0,0.2l-0.7,0
				l-0.1,0.4c0.1-0.1,0.2-0.1,0.3-0.1c0.1,0,0.3,0,0.4,0.1c0.1,0.1,0.1,0.2,0.1,0.4c0,0.1-0.1,0.3-0.2,0.4c-0.1,0.1-0.3,0.2-0.4,0.2
				c-0.1,0-0.3,0-0.4-0.1C76.4,55.9,76.4,55.8,76.4,55.7z"/>
			<path class="st40" d="M77.7,56.1l0-0.2l0.2,0l0,0.2L77.7,56.1z M77.8,55.1l0-0.2l0.2,0l0,0.2L77.8,55.1z"/>
			<path class="st40" d="M78.3,55.2c0-0.2,0-0.3,0.1-0.5c0-0.1,0.1-0.2,0.2-0.3c0.1-0.1,0.2-0.1,0.3-0.1c0.1,0,0.2,0,0.2,0
				c0.1,0,0.1,0.1,0.2,0.1c0,0.1,0.1,0.1,0.1,0.2c0,0.1,0,0.2,0,0.4c0,0.2,0,0.3-0.1,0.5c0,0.1-0.1,0.2-0.2,0.3S78.9,56,78.8,56
				c-0.2,0-0.3,0-0.4-0.2C78.3,55.8,78.3,55.5,78.3,55.2z M78.5,55.2c0,0.3,0,0.4,0.1,0.5c0.1,0.1,0.1,0.1,0.2,0.1
				c0.1,0,0.2-0.1,0.2-0.1c0.1-0.1,0.1-0.3,0.1-0.5c0-0.3,0-0.4-0.1-0.5c-0.1-0.1-0.1-0.1-0.2-0.1c-0.1,0-0.2,0-0.2,0.1
				C78.6,54.8,78.5,54.9,78.5,55.2z"/>
			<path class="st40" d="M80.7,54.7l-0.2,0c0-0.1,0-0.1-0.1-0.2c-0.1-0.1-0.1-0.1-0.2-0.1c-0.1,0-0.1,0-0.2,0.1
				c-0.1,0-0.1,0.1-0.2,0.2c0,0.1-0.1,0.2-0.1,0.4c0.1-0.1,0.1-0.1,0.2-0.2c0.1,0,0.1-0.1,0.2-0.1c0.1,0,0.2,0,0.3,0.1
				c0.1,0.1,0.1,0.2,0.1,0.4c0,0.1,0,0.2-0.1,0.3c0,0.1-0.1,0.2-0.2,0.2c-0.1,0.1-0.2,0.1-0.3,0.1c-0.2,0-0.3,0-0.4-0.2
				c-0.1-0.1-0.1-0.3-0.1-0.6c0-0.3,0.1-0.5,0.2-0.7c0.1-0.1,0.2-0.2,0.4-0.2c0.1,0,0.2,0,0.3,0.1C80.6,54.5,80.6,54.6,80.7,54.7z
				 M79.8,55.4c0,0.1,0,0.1,0,0.2c0,0.1,0.1,0.1,0.1,0.1c0.1,0,0.1,0,0.2,0c0.1,0,0.2,0,0.2-0.1c0.1-0.1,0.1-0.2,0.1-0.3
				c0-0.1,0-0.2-0.1-0.3c-0.1-0.1-0.1-0.1-0.2-0.1c-0.1,0-0.2,0-0.2,0.1C79.8,55.2,79.8,55.3,79.8,55.4z"/>
			<path class="st40" d="M80.9,55.9l0-0.2l0.2,0l0,0.2L80.9,55.9z M81,54.9l0-0.2l0.2,0l0,0.2L81,54.9z"/>
			<path class="st40" d="M81.5,55.1c0-0.2,0-0.3,0.1-0.5c0-0.1,0.1-0.2,0.2-0.3s0.2-0.1,0.3-0.1c0.1,0,0.2,0,0.2,0
				c0.1,0,0.1,0.1,0.2,0.1c0,0.1,0.1,0.1,0.1,0.2c0,0.1,0,0.2,0,0.4c0,0.2,0,0.3-0.1,0.5c0,0.1-0.1,0.2-0.2,0.3s-0.2,0.1-0.3,0.1
				c-0.2,0-0.3,0-0.4-0.2C81.5,55.6,81.5,55.4,81.5,55.1z M81.7,55.1c0,0.3,0,0.4,0.1,0.5c0.1,0.1,0.1,0.1,0.2,0.1s0.2-0.1,0.2-0.1
				c0.1-0.1,0.1-0.3,0.1-0.5c0-0.3,0-0.4-0.1-0.5c-0.1-0.1-0.1-0.1-0.2-0.1s-0.2,0-0.2,0.1C81.8,54.6,81.7,54.8,81.7,55.1z"/>
			<path class="st40" d="M83.1,54.9c-0.1,0-0.1-0.1-0.2-0.1c0-0.1-0.1-0.1,0-0.2c0-0.1,0.1-0.2,0.1-0.3c0.1-0.1,0.2-0.1,0.3-0.1
				c0.1,0,0.3,0,0.3,0.1c0.1,0.1,0.1,0.2,0.1,0.3c0,0.1,0,0.1-0.1,0.2c0,0.1-0.1,0.1-0.2,0.1c0.1,0,0.2,0.1,0.2,0.1
				c0,0.1,0.1,0.2,0.1,0.3c0,0.1-0.1,0.3-0.2,0.4c-0.1,0.1-0.2,0.2-0.4,0.2c-0.2,0-0.3,0-0.4-0.1c-0.1-0.1-0.1-0.2-0.1-0.3
				c0-0.1,0-0.2,0.1-0.3C82.9,55,83,54.9,83.1,54.9z M83,55.3c0,0.1,0,0.1,0,0.2c0,0.1,0.1,0.1,0.1,0.1c0.1,0,0.1,0,0.2,0
				c0.1,0,0.2,0,0.2-0.1c0.1-0.1,0.1-0.1,0.1-0.2c0-0.1,0-0.2-0.1-0.2C83.5,55,83.4,55,83.3,55c-0.1,0-0.2,0-0.2,0.1
				C83,55.1,83,55.2,83,55.3z M83.1,54.6c0,0.1,0,0.1,0.1,0.2c0,0,0.1,0.1,0.2,0.1c0.1,0,0.1,0,0.2-0.1c0.1-0.1,0.1-0.1,0.1-0.2
				c0-0.1,0-0.1-0.1-0.2c0,0-0.1-0.1-0.2-0.1c-0.1,0-0.1,0-0.2,0.1C83.1,54.4,83.1,54.5,83.1,54.6z"/>
		</g>
		<polygon class="st24" points="84.6,52 78.9,52.2 79.2,50.4 84.9,50.2 		"/>
		<g class="st39">
			<path class="st41" d="M80.6,50.5l0.2,0c0.1,0,0.1,0,0.1,0c0,0,0,0,0.1,0c0,0,0,0,0,0.1c0,0,0,0,0,0.1c0,0,0,0-0.1,0.1
				c0,0,0,0,0.1,0c0,0,0,0.1,0,0.1c0,0.1,0,0.1-0.1,0.1c0,0-0.1,0-0.2,0l-0.2,0L80.6,50.5z M80.6,51l0.1,0c0.1,0,0.1,0,0.1,0
				c0,0,0,0,0-0.1c0,0,0,0,0,0c0,0,0,0,0,0c0,0,0,0-0.1,0l-0.1,0L80.6,51z M80.7,50.8l0.1,0c0,0,0.1,0,0.1,0c0,0,0,0,0,0s0,0,0,0
				c0,0,0,0,0-0.1c0,0-0.1,0-0.1,0l-0.1,0L80.7,50.8z"/>
			<path class="st41" d="M81,51.1l0.2-0.3l-0.1-0.3l0.1,0l0.1,0.1c0,0,0,0,0,0.1c0,0,0,0,0.1-0.1l0.1-0.1l0.1,0l-0.2,0.3l0.2,0.3
				l-0.1,0l-0.1-0.2l0,0l-0.2,0.2L81,51.1z"/>
			<path class="st41" d="M81.6,50.8c0-0.1,0.1-0.2,0.1-0.2c0.1,0,0.1-0.1,0.2-0.1c0.1,0,0.1,0,0.2,0.1c0,0,0.1,0.1,0,0.2
				c0,0.1,0,0.1-0.1,0.2c0,0-0.1,0.1-0.1,0.1c0,0-0.1,0-0.1,0c-0.1,0-0.1,0-0.2-0.1C81.6,50.9,81.6,50.9,81.6,50.8z M81.7,50.8
				c0,0.1,0,0.1,0,0.2c0,0,0.1,0.1,0.1,0c0,0,0.1,0,0.1-0.1c0,0,0.1-0.1,0.1-0.2c0-0.1,0-0.1,0-0.2c0,0-0.1-0.1-0.1,0
				c0,0-0.1,0-0.1,0.1C81.8,50.7,81.7,50.7,81.7,50.8z"/>
			<path class="st41" d="M82.4,50.5l0.4,0l-0.1,0.5l0.1,0l0,0.2l-0.1,0l0-0.2l-0.4,0l0,0.2l-0.1,0l0-0.2l0,0
				C82.3,50.9,82.3,50.7,82.4,50.5z M82.4,50.6c0,0.2-0.1,0.3-0.1,0.4l0.3,0l0.1-0.4L82.4,50.6z"/>
			<path class="st41" d="M83.3,50.3l0.7,0.4L83.2,51L83.3,50.3z"/>
		</g>
		<polygon class="st24" points="81.4,60.1 74.3,60.7 74.4,59.5 81.6,58.9 		"/>
		<g class="st39">
			<path class="st41" d="M75.3,59.4l-0.1,0.8l-0.7-0.3L75.3,59.4z"/>
			<path class="st41" d="M75.9,59.5l0.2,0c0.1,0,0.1,0,0.1,0s0,0,0.1,0s0,0,0,0.1c0,0,0,0,0,0.1c0,0,0,0-0.1,0.1c0,0,0,0,0.1,0
				c0,0,0,0.1,0,0.1c0,0.1,0,0.1-0.1,0.1c0,0-0.1,0-0.2,0.1l-0.3,0L75.9,59.5z M75.9,60l0.1,0c0.1,0,0.1,0,0.1,0c0,0,0,0,0-0.1
				c0,0,0,0,0,0s0,0,0,0c0,0,0,0-0.1,0l-0.1,0L75.9,60z M75.9,59.8l0.1,0c0,0,0.1,0,0.1,0c0,0,0,0,0,0c0,0,0,0,0,0c0,0,0,0,0-0.1
				c0,0-0.1,0-0.1,0l-0.1,0L75.9,59.8z"/>
			<path class="st41" d="M76.4,59.5L76.4,59.5l0.1,0.2l0.1,0c0.1,0,0.1,0,0.2,0c0,0,0.1,0.1,0,0.1c0,0,0,0.1-0.1,0.1
				c0,0-0.1,0.1-0.2,0.1l-0.2,0L76.4,59.5z M76.5,59.9L76.5,59.9c0.2,0,0.2,0,0.2,0c0,0,0,0,0-0.1c0,0,0,0,0-0.1c0,0-0.1,0-0.1,0
				l-0.1,0L76.5,59.9z M77,59.4L77,59.4l0,0.5l-0.1,0L77,59.4z"/>
			<path class="st41" d="M77.1,60l0.2-0.3l-0.2-0.2l0.1,0l0.1,0.1c0,0,0,0,0,0.1c0,0,0,0,0.1-0.1l0.1-0.1l0.1,0l-0.2,0.3l0.2,0.3
				l-0.1,0l-0.1-0.2l0,0L77.2,60L77.1,60z"/>
			<path class="st41" d="M77.7,59.6c0-0.1,0.1-0.2,0.1-0.2c0.1,0,0.1-0.1,0.2-0.1c0.1,0,0.1,0,0.2,0.1c0,0,0.1,0.1,0,0.2
				c0,0.1,0,0.1-0.1,0.2c0,0-0.1,0.1-0.1,0.1c0,0-0.1,0-0.1,0c-0.1,0-0.1,0-0.2-0.1C77.7,59.8,77.6,59.7,77.7,59.6z M77.8,59.6
				c0,0.1,0,0.1,0,0.2c0,0,0.1,0,0.1,0s0.1,0,0.1-0.1c0,0,0.1-0.1,0.1-0.2c0-0.1,0-0.1,0-0.2c0,0-0.1,0-0.1,0c0,0-0.1,0-0.1,0.1
				C77.8,59.5,77.8,59.6,77.8,59.6z"/>
			<path class="st41" d="M78.4,59.3l0.4,0l-0.1,0.5l0.1,0l0,0.2l-0.1,0l0-0.2l-0.4,0l0,0.2l-0.1,0l0-0.2l0.1,0
				C78.3,59.7,78.4,59.5,78.4,59.3z M78.5,59.4c0,0.2-0.1,0.3-0.1,0.4l0.3,0l0-0.4L78.5,59.4z"/>
		</g>
	</g>
</g>
<rect x="27" y="15.8" class="st0" width="1.5" height="23.9"/>
<g>
	<g>
		<path class="st22" d="M48.2,39.7L48.2,39.7L48.2,39.7c0-0.2,0-0.3,0-0.3c-0.1-0.5-0.3-0.8-0.3-0.8l-3.4-0.3l-39-0.5h1.2H5.5
			l0.2,36.1l1.8,0.7l0.1-0.1v0.1L46.5,68l1.5-2c0-0.1,0-0.1,0-0.2l0.1-9.2l0,0l0.1-5.5l0,0L48.2,39.7C48.2,39.8,48.2,39.7,48.2,39.7
			z"/>
		<path class="st22" d="M7.4,74.8L7.4,74.8L5.5,74v-0.1L5.3,37.7h0.2l0,0l39,0.5l0,0l3.5,0.3v0.1c0,0,0.2,0.3,0.3,0.9l0,0
			c0,0,0,0.1,0,0.3l0,0l-0.1,11.3l0,0l-0.1,5.7L48,66c0,0.1,0,0.2,0,0.3l0,0l-1.4,1.9h-0.1L7.4,74.8z M5.9,73.8l1.6,0.6l0.3-0.1v0.1
			l38.6-6.6l1.5-1.9l0,0l0,0l0,0l0.1-9.2l0.1-5.3l0,0L48,39.7c0-0.1,0-0.2,0-0.3c-0.1-0.3-0.2-0.6-0.2-0.7l-3.3-0.3L6.7,38l0,0h-1
			L5.9,73.8z"/>
	</g>
	<g>
		<g>
			
				<linearGradient id="SVGID_49_" gradientUnits="userSpaceOnUse" x1="31.6479" y1="363.7489" x2="22.6184" y2="327.5334" gradientTransform="matrix(1 0 0 1 0 -293.6719)">
				<stop  offset="0" style="stop-color:#D2CFC7"/>
				<stop  offset="0.2912" style="stop-color:#D2CFC7"/>
				<stop  offset="0.7582" style="stop-color:#E2E0DA"/>
				<stop  offset="1" style="stop-color:#E2E0DA"/>
			</linearGradient>
			<polygon class="st66" points="6.7,37.9 47.9,38.6 48.2,39.7 48,66 8.5,74 			"/>
			<polygon class="st24" points="6.7,37.9 47.9,38.6 48.2,39.7 48,66 8.5,74 			"/>
		</g>
		<g>
			
				<linearGradient id="SVGID_50_" gradientUnits="userSpaceOnUse" x1="32.057" y1="337.5836" x2="57.7995" y2="358.567" gradientTransform="matrix(1 0 0 1 0 -293.6719)">
				<stop  offset="0" style="stop-color:#BBBBAD"/>
				<stop  offset="0.2512" style="stop-color:#C2C1B4"/>
				<stop  offset="0.6416" style="stop-color:#D2CFC7"/>
				<stop  offset="1" style="stop-color:#D4D0C9"/>
			</linearGradient>
			<path class="st67" d="M48.2,45.5l-5.8,0.2c0,0-2,0.2-2,2.1c0,1,0,11.7,0,12.8c0,2.7,1.3,2.4,1.3,2.4l6.4-0.5L48.2,45.5z"/>
			<path class="st24" d="M48.2,45.5l-5.8,0.2c0,0-2,0.2-2,2.1c0,1,0,11.7,0,12.8c0,2.7,1.3,2.4,1.3,2.4l6.4-0.5L48.2,45.5z"/>
		</g>
		<g>
			
				<linearGradient id="SVGID_51_" gradientUnits="userSpaceOnUse" x1="-1009.3981" y1="339.7948" x2="-1000.1223" y2="360.6288" gradientTransform="matrix(-1 0 0 1 -990.4943 -293.6719)">
				<stop  offset="0" style="stop-color:#BBBBAD"/>
				<stop  offset="0.2512" style="stop-color:#C2C1B4"/>
				<stop  offset="0.6416" style="stop-color:#D2CFC7"/>
				<stop  offset="1" style="stop-color:#D4D0C9"/>
			</linearGradient>
			<path class="st68" d="M9.3,46.4l9.4-0.2c0,0,1.8,0,1.8,1.9c0,1,0,13.7,0,14.9c0,2.7-2.2,2.9-2.2,2.9l-8.8,1L9.3,46.4z"/>
			<path class="st24" d="M9.3,46.4l9.4-0.2c0,0,1.8,0,1.8,1.9c0,1,0,13.7,0,14.9c0,2.7-2.2,2.9-2.2,2.9l-8.8,1L9.3,46.4z"/>
		</g>
		<g>
			
				<linearGradient id="SVGID_52_" gradientUnits="userSpaceOnUse" x1="5.4918" y1="349.9219" x2="9.6295" y2="349.9219" gradientTransform="matrix(1 0 0 1 0 -293.6719)">
				<stop  offset="0" style="stop-color:#C4C2BA"/>
				<stop  offset="0.332" style="stop-color:#C8C5BE"/>
				<stop  offset="0.67" style="stop-color:#D2CFC9"/>
				<stop  offset="1" style="stop-color:#E2E0DA"/>
			</linearGradient>
			<polygon class="st69" points="9.2,41.4 9.6,73.5 8.7,74.1 7.5,74.6 5.7,74 5.5,37.9 6.7,37.9 			"/>
		</g>
		<g>
			
				<linearGradient id="SVGID_53_" gradientUnits="userSpaceOnUse" x1="42.7909" y1="347.9719" x2="48.1327" y2="347.9719" gradientTransform="matrix(1 0 0 1 0 -293.6719)">
				<stop  offset="0" style="stop-color:#919287"/>
				<stop  offset="0.1347" style="stop-color:#98988E"/>
				<stop  offset="0.3661" style="stop-color:#AAAAA0"/>
				<stop  offset="0.6644" style="stop-color:#C7C4BB"/>
				<stop  offset="0.7803" style="stop-color:#D2CFC7"/>
				<stop  offset="0.7979" style="stop-color:#D9D5D1"/>
				<stop  offset="0.8303" style="stop-color:#E0DDDB"/>
				<stop  offset="0.8757" style="stop-color:#E5E2E2"/>
				<stop  offset="1" style="stop-color:#E6E3E3"/>
			</linearGradient>
			<path class="st70" d="M48.1,56.7L45.9,57l-0.1,2.5l-3-5.2l2.9-5.2l-0.1,2.2l2.5-0.2L48.1,56.7z"/>
			<path class="st24" d="M48.1,56.7L45.9,57l-0.1,2.5l-3-5.2l2.9-5.2l-0.1,2.2l2.5-0.2L48.1,56.7z"/>
		</g>
		<g>
			
				<linearGradient id="SVGID_54_" gradientUnits="userSpaceOnUse" x1="9.3306" y1="344.9511" x2="-4.0929" y2="337.2605" gradientTransform="matrix(1.0241 -1.000000e-04 -1.000000e-04 1.0263 9.7208 -294.04)">
				<stop  offset="0" style="stop-color:#919287"/>
				<stop  offset="0.1347" style="stop-color:#98988E"/>
				<stop  offset="0.3661" style="stop-color:#AAAAA0"/>
				<stop  offset="0.6644" style="stop-color:#C7C4BB"/>
				<stop  offset="0.7803" style="stop-color:#D2CFC7"/>
				<stop  offset="0.7979" style="stop-color:#D9D5D1"/>
				<stop  offset="0.8303" style="stop-color:#E0DDDB"/>
				<stop  offset="0.8757" style="stop-color:#E5E2E2"/>
				<stop  offset="1" style="stop-color:#E6E3E3"/>
			</linearGradient>
			<path class="st71" d="M9.4,53.5l4-0.2v-2.6l3.5,5.6l-3.6,6.2v-2.6l-3.8,0.2L9.4,53.5z"/>
			<path class="st24" d="M9.4,53.5l4-0.2v-2.6l3.5,5.6l-3.6,6.2v-2.6l-3.8,0.2L9.4,53.5z"/>
		</g>
		
			<linearGradient id="SVGID_55_" gradientUnits="userSpaceOnUse" x1="-812.7375" y1="339.6408" x2="-803.1749" y2="361.119" gradientTransform="matrix(-1 0 0 1 -794.0988 -293.6719)">
			<stop  offset="0" style="stop-color:#919287"/>
			<stop  offset="0.1347" style="stop-color:#98988E"/>
			<stop  offset="0.3661" style="stop-color:#AAAAA0"/>
			<stop  offset="0.6644" style="stop-color:#C7C4BB"/>
			<stop  offset="0.7803" style="stop-color:#D2CFC7"/>
			<stop  offset="0.7979" style="stop-color:#D9D5D1"/>
			<stop  offset="0.8303" style="stop-color:#E0DDDB"/>
			<stop  offset="0.8757" style="stop-color:#E5E2E2"/>
			<stop  offset="1" style="stop-color:#E6E3E3"/>
		</linearGradient>
		<path class="st72" d="M18.5,65.9c1.5-0.3,1.9-1.7,1.9-3c0-1,0-13.6,0-14.7c0-1.8-1.7-1.7-1.7-1.7l-9,0.1l-1.1-0.2l10.1-0.2
			c0,0,1.8,0,1.8,1.9c0,1,0,13.8,0,14.9C20.5,65.7,18.5,66,18.5,65.9l-10,1.2l1.1-0.3C17.4,66.1,18.3,65.9,18.5,65.9z"/>
		<g>
			
				<linearGradient id="SVGID_56_" gradientUnits="userSpaceOnUse" x1="41.6257" y1="347.6709" x2="51.8479" y2="348.6647" gradientTransform="matrix(1 0 0 1 0 -293.6719)">
				<stop  offset="0" style="stop-color:#D2CFC7"/>
				<stop  offset="0.2912" style="stop-color:#D2CFC7"/>
				<stop  offset="0.7582" style="stop-color:#E2E0DA"/>
				<stop  offset="1" style="stop-color:#E2E0DA"/>
			</linearGradient>
			<path class="st73" d="M48.1,56.7L45.9,57l-0.1,2.5l-2.9-5.2l2.8-5v2.2l2.5-0.2L48.1,56.7z"/>
			<path class="st24" d="M48.1,56.7L45.9,57l-0.1,2.5l-2.9-5.2l2.8-5v2.2l2.5-0.2L48.1,56.7z"/>
		</g>
		
			<linearGradient id="SVGID_57_" gradientUnits="userSpaceOnUse" x1="-624.6819" y1="339.6663" x2="-617.3419" y2="356.1526" gradientTransform="matrix(1 0 0 1 665.5566 -293.6719)">
			<stop  offset="0" style="stop-color:#919287"/>
			<stop  offset="0.1347" style="stop-color:#98988E"/>
			<stop  offset="0.3661" style="stop-color:#AAAAA0"/>
			<stop  offset="0.6644" style="stop-color:#C7C4BB"/>
			<stop  offset="0.7803" style="stop-color:#D2CFC7"/>
			<stop  offset="0.7979" style="stop-color:#D9D5D1"/>
			<stop  offset="0.8303" style="stop-color:#E0DDDB"/>
			<stop  offset="0.8757" style="stop-color:#E5E2E2"/>
			<stop  offset="1" style="stop-color:#E6E3E3"/>
		</linearGradient>
		<path class="st74" d="M41.6,63c-0.9-0.1-1.1-0.9-1.1-2c0-0.9,0-12.2,0-13.1c0.1-2,1.7-2,1.7-2l6.1-0.4l0,0l-6.1,0.1
			c0,0-1.7-0.1-1.8,2.2c-0.1,0.9-0.1,12.1-0.1,13.1c-0.1,2.3,1.3,2.3,1.4,2.3c0.4,0,6.4-0.6,6.4-0.6l0,0C44.8,62.8,42,63,41.6,63z"
			/>
		<g>
			<g>
				<path class="st33" d="M36.6,54.8c0,2.9-2.7,5.5-5.9,5.8s-5.8-1.9-5.7-5c0.1-3.1,2.7-5.7,5.9-5.8S36.6,51.9,36.6,54.8z"/>
			</g>
			<path class="st33" d="M36.5,59.4c0,0.4-0.3,0.7-0.7,0.8l-10.2,1c-0.4,0-0.7-0.3-0.7-0.6l0.2-9.7c0-0.4,0.3-0.7,0.7-0.7l10.1-0.5
				c0.4,0,0.7,0.3,0.7,0.7L36.5,59.4z"/>
		</g>
		<path class="st34" d="M36.2,59c0,0.4-0.3,0.7-0.7,0.8l-9.6,0.9c-0.4,0-0.7-0.3-0.7-0.6l0.2-9.2c0-0.4,0.3-0.7,0.7-0.7l9.4-0.4
			c0.4,0,0.7,0.3,0.7,0.7V59z"/>
		<g>
			
				<linearGradient id="SVGID_58_" gradientUnits="userSpaceOnUse" x1="5.5" y1="331.8719" x2="47.9" y2="331.8719" gradientTransform="matrix(1 0 0 1 0 -293.6719)">
				<stop  offset="0" style="stop-color:#D2CFC7"/>
				<stop  offset="0.2912" style="stop-color:#D2CFC7"/>
				<stop  offset="0.7582" style="stop-color:#E2E0DA"/>
				<stop  offset="1" style="stop-color:#E2E0DA"/>
			</linearGradient>
			<polygon class="st75" points="5.5,37.8 44.5,38.3 47.9,38.6 6.7,37.9 			"/>
			<polygon class="st24" points="5.5,37.8 44.5,38.3 47.9,38.6 6.7,37.9 			"/>
		</g>
		<g>
			
				<linearGradient id="SVGID_59_" gradientUnits="userSpaceOnUse" x1="26.5517" y1="337.0765" x2="6.2424" y2="356.5758" gradientTransform="matrix(1 0 0 1 0 -293.6719)">
				<stop  offset="0" style="stop-color:#BBBBAD"/>
				<stop  offset="0.2512" style="stop-color:#C2C1B4"/>
				<stop  offset="0.6416" style="stop-color:#D2CFC7"/>
				<stop  offset="1" style="stop-color:#D4D0C9"/>
			</linearGradient>
			<path class="st76" d="M9.4,53.5l4-0.1v-2.5l3.4,5.5l-3.5,6.1V60l-3.8,0.3L9.4,53.5z"/>
			<path class="st24" d="M9.4,53.5l4-0.1v-2.5l3.4,5.5l-3.5,6.1V60l-3.8,0.3L9.4,53.5z"/>
		</g>
		<g>
			<g>
				<polygon class="st37" points="9.5,73.7 7.6,74.6 7.6,39.7 9.5,39.7 				"/>
			</g>
		</g>
		<g>
			
				<linearGradient id="SVGID_60_" gradientUnits="userSpaceOnUse" x1="29.076" y1="339.0708" x2="25.9853" y2="326.6745" gradientTransform="matrix(1 0 0 1 0 -293.6719)">
				<stop  offset="0" style="stop-color:#D2CFC7"/>
				<stop  offset="0.2912" style="stop-color:#D2CFC7"/>
				<stop  offset="0.7582" style="stop-color:#E2E0DA"/>
				<stop  offset="1" style="stop-color:#E2E0DA"/>
			</linearGradient>
			<path class="st77" d="M48.2,39.5c0,0,0.1,0.9-0.3,1.2C47.5,41,47,41,46.1,41c-0.7,0-34.3,1.4-34.8,1.4c-0.8,0-1.7,0-2.8-1
				S7,38.7,6.6,37.9l41.3,0.8C47.9,38.6,48.1,38.9,48.2,39.5"/>
			<path class="st24" d="M48.2,39.5c0,0,0.1,0.9-0.3,1.2C47.5,41,47,41,46.1,41c-0.7,0-34.3,1.4-34.8,1.4c-0.8,0-1.7,0-2.8-1
				S7,38.7,6.6,37.9l41.3,0.8C47.9,38.6,48.1,38.9,48.2,39.5"/>
		</g>
		<g>
			<path class="st22" d="M7.6,74.6c0,0,1-1.2,1.6-1.6c0.6-0.5,1.4-0.7,2-0.9c0.6-0.1,34.8-6.3,35.2-6.4s1.2-0.3,1.3-0.2
				c0.2,0.1,0.4,0.3,0.3,0.5l-1.5,2L7.6,74.6z"/>
			<path class="st24" d="M7.6,74.6c0,0,1-1.2,1.6-1.6c0.6-0.5,1.4-0.7,2-0.9c0.6-0.1,34.8-6.3,35.2-6.4s1.2-0.3,1.3-0.2
				c0.2,0.1,0.4,0.3,0.3,0.5l-1.5,2L7.6,74.6z"/>
		</g>
		<polygon class="st24" points="35.8,56.3 26,56.8 26.1,54.6 36,54.1 		"/>
		<g class="st39">
			<path class="st40" d="M26.8,56.2l-0.2,0l0.1-1.3c-0.1,0-0.1,0.1-0.2,0.1c-0.1,0-0.2,0.1-0.2,0.1l0-0.2c0.1-0.1,0.2-0.1,0.3-0.2
				c0.1-0.1,0.2-0.2,0.2-0.2l0.1,0L26.8,56.2z"/>
			<path class="st40" d="M27.4,55.7l0.2,0c0,0.1,0,0.2,0.1,0.2c0.1,0,0.1,0.1,0.2,0.1c0.1,0,0.2,0,0.3-0.1c0.1-0.1,0.1-0.2,0.1-0.3
				c0-0.1,0-0.2-0.1-0.3c-0.1-0.1-0.1-0.1-0.2-0.1c-0.1,0-0.1,0-0.2,0.1c-0.1,0-0.1,0.1-0.1,0.1l-0.2,0l0.2-0.8l0.8,0l0,0.2l-0.7,0
				l-0.1,0.4c0.1-0.1,0.2-0.1,0.3-0.1c0.1,0,0.3,0,0.4,0.1c0.1,0.1,0.1,0.2,0.1,0.4c0,0.1-0.1,0.3-0.2,0.4c-0.1,0.1-0.3,0.2-0.4,0.2
				c-0.1,0-0.3,0-0.4-0.1C27.4,55.9,27.4,55.8,27.4,55.7z"/>
			<path class="st40" d="M28.7,56.1l0-0.2l0.2,0l0,0.2L28.7,56.1z M28.8,55.1l0-0.2l0.2,0l0,0.2L28.8,55.1z"/>
			<path class="st40" d="M29.3,55.2c0-0.2,0-0.4,0.1-0.5c0-0.1,0.1-0.2,0.2-0.3s0.2-0.1,0.3-0.1c0.1,0,0.2,0,0.2,0
				c0.1,0,0.1,0.1,0.2,0.1c0,0.1,0.1,0.1,0.1,0.2c0,0.1,0,0.2,0,0.4c0,0.2,0,0.3-0.1,0.5c0,0.1-0.1,0.2-0.2,0.3S29.9,56,29.8,56
				c-0.2,0-0.3,0-0.4-0.2C29.3,55.8,29.3,55.5,29.3,55.2z M29.5,55.2c0,0.3,0,0.4,0.1,0.5c0.1,0.1,0.1,0.1,0.2,0.1
				c0.1,0,0.2-0.1,0.2-0.1c0.1-0.1,0.1-0.3,0.1-0.5c0-0.3,0-0.4-0.1-0.5c-0.1-0.1-0.1-0.1-0.2-0.1c-0.1,0-0.2,0-0.2,0.1
				C29.6,54.8,29.5,54.9,29.5,55.2z"/>
			<path class="st40" d="M31.7,54.7l-0.2,0c0-0.1,0-0.1-0.1-0.2c-0.1-0.1-0.1-0.1-0.2-0.1c-0.1,0-0.1,0-0.2,0.1
				c-0.1,0-0.1,0.1-0.2,0.2c0,0.1-0.1,0.2-0.1,0.4c0.1-0.1,0.1-0.1,0.2-0.2c0.1,0,0.1-0.1,0.2-0.1c0.1,0,0.2,0,0.3,0.1
				c0.1,0.1,0.1,0.2,0.1,0.4c0,0.1,0,0.2-0.1,0.3c0,0.1-0.1,0.2-0.2,0.2c-0.1,0.1-0.2,0.1-0.3,0.1c-0.2,0-0.3,0-0.4-0.2
				c-0.1-0.1-0.1-0.3-0.1-0.6c0-0.3,0.1-0.5,0.2-0.7c0.1-0.1,0.3-0.2,0.4-0.2c0.1,0,0.2,0,0.3,0.1C31.6,54.5,31.6,54.6,31.7,54.7z
				 M30.8,55.4c0,0.1,0,0.1,0,0.2c0,0.1,0.1,0.1,0.1,0.1c0.1,0,0.1,0,0.2,0c0.1,0,0.2,0,0.2-0.1c0.1-0.1,0.1-0.2,0.1-0.3
				c0-0.1,0-0.2-0.1-0.3c-0.1-0.1-0.1-0.1-0.2-0.1c-0.1,0-0.2,0-0.2,0.1C30.8,55.2,30.8,55.3,30.8,55.4z"/>
			<path class="st40" d="M31.9,55.9l0-0.2l0.2,0l0,0.2L31.9,55.9z M32,54.9l0-0.2l0.2,0l0,0.2L32,54.9z"/>
			<path class="st40" d="M32.5,55.1c0-0.2,0-0.4,0.1-0.5c0-0.1,0.1-0.2,0.2-0.3s0.2-0.1,0.3-0.1c0.1,0,0.2,0,0.2,0
				c0.1,0,0.1,0.1,0.2,0.1c0,0.1,0.1,0.1,0.1,0.2c0,0.1,0,0.2,0,0.4c0,0.2,0,0.3-0.1,0.5c0,0.1-0.1,0.2-0.2,0.3s-0.2,0.1-0.3,0.1
				c-0.2,0-0.3,0-0.4-0.2C32.5,55.6,32.5,55.4,32.5,55.1z M32.7,55.1c0,0.3,0,0.4,0.1,0.5c0.1,0.1,0.1,0.1,0.2,0.1
				c0.1,0,0.2-0.1,0.2-0.1c0.1-0.1,0.1-0.3,0.1-0.5c0-0.3,0-0.4-0.1-0.5c-0.1-0.1-0.1-0.1-0.2-0.1c-0.1,0-0.2,0-0.2,0.1
				C32.8,54.6,32.7,54.8,32.7,55.1z"/>
			<path class="st40" d="M34.1,54.9c-0.1,0-0.1-0.1-0.2-0.1c0-0.1-0.1-0.1,0-0.2c0-0.1,0.1-0.2,0.1-0.3c0.1-0.1,0.2-0.1,0.3-0.1
				c0.1,0,0.3,0,0.3,0.1c0.1,0.1,0.1,0.2,0.1,0.3c0,0.1,0,0.1-0.1,0.2c0,0.1-0.1,0.1-0.2,0.1c0.1,0,0.2,0.1,0.2,0.1
				c0,0.1,0.1,0.2,0.1,0.3c0,0.1-0.1,0.3-0.2,0.4c-0.1,0.1-0.2,0.2-0.4,0.2c-0.2,0-0.3,0-0.4-0.1c-0.1-0.1-0.1-0.2-0.1-0.3
				c0-0.1,0-0.2,0.1-0.3C33.9,55,34,54.9,34.1,54.9z M34,55.3c0,0.1,0,0.1,0,0.2s0.1,0.1,0.1,0.1c0.1,0,0.1,0,0.2,0
				c0.1,0,0.2,0,0.2-0.1c0.1-0.1,0.1-0.1,0.1-0.2s0-0.2-0.1-0.2C34.5,55,34.4,55,34.3,55c-0.1,0-0.2,0-0.2,0.1
				C34,55.1,34,55.2,34,55.3z M34.1,54.6c0,0.1,0,0.1,0.1,0.2c0,0,0.1,0.1,0.2,0.1c0.1,0,0.1,0,0.2-0.1c0.1-0.1,0.1-0.1,0.1-0.2
				c0-0.1,0-0.1-0.1-0.2c0,0-0.1-0.1-0.2-0.1s-0.1,0-0.2,0.1C34.1,54.4,34.1,54.5,34.1,54.6z"/>
		</g>
		<polygon class="st24" points="35.6,52 29.9,52.2 30.2,50.4 35.9,50.2 		"/>
		<g class="st39">
			<path class="st41" d="M31.6,50.5l0.2,0c0.1,0,0.1,0,0.1,0c0,0,0,0,0.1,0c0,0,0,0,0,0.1c0,0,0,0.1,0,0.1c0,0,0,0-0.1,0.1
				c0,0,0,0,0.1,0c0,0,0,0.1,0,0.1c0,0.1,0,0.1-0.1,0.1c0,0-0.1,0-0.2,0l-0.3,0L31.6,50.5z M31.6,51l0.1,0c0.1,0,0.1,0,0.1,0
				c0,0,0,0,0-0.1c0,0,0,0,0,0c0,0,0,0,0,0c0,0,0,0-0.1,0l-0.1,0L31.6,51z M31.7,50.8l0.1,0c0,0,0.1,0,0.1,0c0,0,0,0,0,0
				c0,0,0,0,0,0c0,0,0,0,0-0.1c0,0-0.1,0-0.1,0l-0.1,0L31.7,50.8z"/>
			<path class="st41" d="M32,51.1l0.2-0.3l-0.1-0.3l0.1,0l0.1,0.1c0,0,0,0,0,0.1c0,0,0,0,0.1-0.1l0.1-0.1l0.1,0l-0.2,0.3l0.2,0.3
				l-0.1,0l-0.1-0.2l0,0l-0.2,0.2L32,51.1z"/>
			<path class="st41" d="M32.6,50.8c0-0.1,0.1-0.2,0.1-0.2c0.1,0,0.1-0.1,0.2-0.1c0.1,0,0.1,0,0.2,0.1c0,0,0.1,0.1,0,0.2
				c0,0.1,0,0.1-0.1,0.2c0,0-0.1,0.1-0.1,0.1c0,0-0.1,0-0.1,0c-0.1,0-0.1,0-0.2-0.1C32.6,50.9,32.6,50.9,32.6,50.8z M32.7,50.8
				c0,0.1,0,0.1,0,0.2c0,0,0.1,0.1,0.1,0c0,0,0.1,0,0.1-0.1c0,0,0.1-0.1,0.1-0.2c0-0.1,0-0.1,0-0.2c0,0-0.1-0.1-0.1,0
				c0,0-0.1,0-0.1,0.1C32.8,50.7,32.7,50.7,32.7,50.8z"/>
			<path class="st41" d="M33.4,50.5l0.4,0l-0.1,0.5l0.1,0l0,0.2l-0.1,0l0-0.2l-0.4,0l0,0.2l-0.1,0l0-0.2l0,0
				C33.3,50.9,33.3,50.7,33.4,50.5z M33.4,50.6c0,0.2-0.1,0.3-0.1,0.4l0.3,0l0.1-0.4L33.4,50.6z"/>
			<path class="st41" d="M34.3,50.3l0.7,0.4L34.2,51L34.3,50.3z"/>
		</g>
		<polygon class="st24" points="32.4,60.1 25.3,60.7 25.4,59.5 32.6,58.9 		"/>
		<g class="st39">
			<path class="st41" d="M26.4,59.4l-0.1,0.8l-0.7-0.3L26.4,59.4z"/>
			<path class="st41" d="M26.9,59.5l0.2,0c0.1,0,0.1,0,0.1,0c0,0,0,0,0.1,0c0,0,0,0,0,0.1c0,0,0,0,0,0.1s0,0-0.1,0.1c0,0,0,0,0.1,0
				c0,0,0,0,0,0.1c0,0.1,0,0.1-0.1,0.1c0,0-0.1,0-0.2,0.1l-0.3,0L26.9,59.5z M26.9,60l0.1,0c0.1,0,0.1,0,0.1,0c0,0,0,0,0-0.1
				c0,0,0,0,0,0c0,0,0,0,0,0c0,0,0,0-0.1,0l-0.1,0L26.9,60z M26.9,59.8l0.1,0c0,0,0.1,0,0.1,0c0,0,0,0,0,0c0,0,0,0,0,0
				c0,0,0,0,0-0.1c0,0-0.1,0-0.1,0l-0.1,0L26.9,59.8z"/>
			<path class="st41" d="M27.4,59.5L27.4,59.5l0.1,0.2l0.1,0c0.1,0,0.1,0,0.2,0c0,0,0.1,0.1,0,0.1c0,0,0,0.1-0.1,0.1
				c0,0-0.1,0.1-0.2,0.1l-0.2,0L27.4,59.5z M27.5,59.9L27.5,59.9c0.2,0,0.2,0,0.2,0c0,0,0,0,0-0.1c0,0,0,0,0-0.1c0,0-0.1,0-0.1,0
				l-0.1,0L27.5,59.9z M28,59.4L28,59.4l0,0.5l-0.1,0L28,59.4z"/>
			<path class="st41" d="M28.1,60l0.2-0.3l-0.2-0.2l0.1,0l0.1,0.1c0,0,0,0,0,0.1c0,0,0,0,0.1-0.1l0.1-0.1l0.1,0l-0.2,0.3l0.2,0.3
				l-0.1,0l-0.1-0.2l0,0L28.2,60L28.1,60z"/>
			<path class="st41" d="M28.7,59.6c0-0.1,0.1-0.2,0.1-0.2c0.1,0,0.1-0.1,0.2-0.1c0.1,0,0.1,0,0.2,0.1c0,0,0.1,0.1,0,0.2
				c0,0.1,0,0.1-0.1,0.2c0,0-0.1,0.1-0.1,0.1c0,0-0.1,0-0.1,0c-0.1,0-0.1,0-0.2-0.1C28.7,59.8,28.7,59.7,28.7,59.6z M28.8,59.6
				c0,0.1,0,0.1,0,0.2c0,0,0.1,0,0.1,0c0,0,0.1,0,0.1-0.1c0,0,0.1-0.1,0.1-0.2c0-0.1,0-0.1,0-0.2c0,0-0.1,0-0.1,0c0,0-0.1,0-0.1,0.1
				C28.8,59.5,28.8,59.6,28.8,59.6z"/>
			<path class="st41" d="M29.4,59.3l0.4,0l-0.1,0.5l0.1,0l0,0.2l-0.1,0l0-0.2l-0.4,0l0,0.2l-0.1,0l0-0.2l0.1,0
				C29.3,59.7,29.4,59.5,29.4,59.3z M29.5,59.4c0,0.2-0.1,0.3-0.1,0.4l0.3,0l0-0.4L29.5,59.4z"/>
		</g>
	</g>
</g>
<g class="st39">
	<path class="st78" d="M144,2.3h-3v2.7h3v0.4h-3v3.4h3v0.4h-3.5V1.8h3.5V2.3z"/>
	<path class="st78" d="M145.9,5.1v4.1h-0.4V5.1h-0.5V4.7h0.5V3.1h0.4v1.6h0.8v0.4H145.9z"/>
</g>
<g class="st39">
	<path class="st78" d="M147.5,1.1h0.4v4.2c0.2-0.4,0.6-0.8,1.4-0.8c0.8,0,1.1,0.5,1.2,0.6c0.2,0.3,0.2,0.7,0.2,1.1v2.8h-0.4V6.3
		c0-0.3,0-0.6-0.2-0.9c-0.1-0.2-0.3-0.4-0.9-0.4c-0.6,0-0.9,0.3-1.1,0.6c-0.2,0.4-0.2,0.8-0.2,1.2v2.3h-0.4V1.1z"/>
</g>
<g class="st39">
	<path class="st78" d="M152.3,7c0,1.1,0.8,1.9,1.8,1.9c0.7,0,1.3-0.4,1.6-1l0.4,0.2c-0.3,0.5-0.9,1.2-2,1.2c-1.4,0-2.2-1-2.2-2.3
		c0-1.6,1.1-2.4,2.2-2.4c1.2,0,2.1,1,2.1,2.4H152.3z M155.7,6.6C155.5,5.7,154.9,5,154,5c-0.9,0-1.6,0.7-1.7,1.6H155.7z"/>
	<path class="st78" d="M157.4,4.7h0.4v0.6c0.2-0.4,0.5-0.7,1-0.7c0.1,0,0.3,0,0.5,0.1l-0.2,0.4c0,0-0.1-0.1-0.3-0.1
		c-0.9,0-0.9,1.2-0.9,1.8v2.4h-0.4V4.7z"/>
	<path class="st78" d="M160.3,4.7h0.4v0.7c0.2-0.4,0.6-0.8,1.4-0.8c0.8,0,1.1,0.5,1.2,0.6c0.2,0.3,0.2,0.7,0.2,1.1v2.8h-0.4V6.3
		c0-0.3,0-0.6-0.2-0.9c-0.1-0.2-0.3-0.4-0.9-0.4c-0.6,0-0.9,0.3-1.1,0.6c-0.2,0.4-0.2,0.8-0.2,1.2v2.3h-0.4V4.7z"/>
	<path class="st78" d="M165.3,7c0,1.1,0.8,1.9,1.8,1.9c0.7,0,1.3-0.4,1.6-1l0.4,0.2c-0.3,0.5-0.9,1.2-2,1.2c-1.4,0-2.2-1-2.2-2.3
		c0-1.6,1.1-2.4,2.2-2.4c1.2,0,2.1,1,2.1,2.4H165.3z M168.7,6.6C168.6,5.7,167.9,5,167,5c-0.9,0-1.6,0.7-1.7,1.6H168.7z"/>
	<path class="st78" d="M170.9,5.1v4.1h-0.4V5.1H170V4.7h0.5V3.1h0.4v1.6h0.8v0.4H170.9z"/>
</g>
<g class="st39">
	<path class="st78" d="M9.4,78.8v5.6H9v-5.6H7.4v-0.4h3.5v0.4H9.4z"/>
</g>
<g class="st39">
	<path class="st78" d="M11.3,82.7c0,0.9,0.7,1.5,1.5,1.5c0.6,0,1-0.4,1.3-0.8l0.3,0.2c-0.2,0.4-0.7,1-1.6,1c-1.1,0-1.8-0.8-1.8-1.9
		c0-1.3,0.9-1.9,1.8-1.9c1,0,1.7,0.8,1.7,2H11.3z M14.1,82.3C14,81.6,13.4,81,12.7,81c-0.7,0-1.3,0.6-1.4,1.3H14.1z"/>
	<path class="st78" d="M15.9,86.5h-0.4v-5.7h0.4v0.6c0.4-0.5,0.9-0.7,1.4-0.7c1.1,0,1.8,0.8,1.8,1.9c0,1.1-0.7,2-1.8,2
		c-0.9,0-1.3-0.6-1.4-0.8V86.5z M18.7,82.6c0-1-0.7-1.5-1.4-1.5c-0.7,0-1.4,0.5-1.4,1.5c0,0.9,0.5,1.6,1.4,1.6S18.7,83.5,18.7,82.6z
		"/>
	<path class="st78" d="M20.6,80.6l1.5,3.3l1.5-3.3l0.9,3.9H24l-0.6-2.9l-1.4,3.1l-1.4-3.1l-0.6,2.9h-0.4L20.6,80.6z"/>
	<path class="st78" d="M25.6,80.8v2.9l2.6-3.2v3.9h-0.4v-2.9l-2.6,3.2v-3.9H25.6z"/>
	<path class="st78" d="M29.5,80.8h0.4v1.6h2.1v-1.6h0.4v3.7h-0.4v-1.7h-2.1v1.7h-0.4V80.8z"/>
	<path class="st78" d="M36.6,80.8h0.4v3.7h-0.4v-0.7c-0.4,0.6-1,0.8-1.4,0.8c-1,0-1.8-0.7-1.8-1.9c0-1.1,0.7-1.9,1.8-1.9
		c0.6,0,1.1,0.2,1.4,0.7V80.8z M33.7,82.6c0,0.8,0.5,1.6,1.4,1.6c0.9,0,1.4-0.8,1.4-1.6c0-1.1-0.8-1.5-1.4-1.5
		C34.4,81,33.7,81.6,33.7,82.6z"/>
	<path class="st78" d="M40.8,84.5h-0.4v-3.3h-1.7v2.1c0,0.2,0,0.6-0.2,0.9c-0.1,0.2-0.4,0.3-0.7,0.3c-0.1,0-0.1,0-0.2,0v-0.3
		c0,0,0.1,0,0.1,0c0.2,0,0.4-0.1,0.5-0.2c0.1-0.2,0.1-0.4,0.1-0.6v-2.5h2.4V84.5z"/>
	<path class="st78" d="M42.5,80.8v1.5h0.9c0.3,0,0.7,0,0.9,0.3c0.2,0.2,0.3,0.5,0.3,0.7c0,0.3-0.1,0.6-0.3,0.8
		c-0.3,0.3-0.6,0.3-0.9,0.3h-1.2v-3.7H42.5z M43.3,84.1c0.2,0,0.4,0,0.6-0.2c0.1-0.1,0.3-0.3,0.3-0.6c0-0.3-0.1-0.5-0.3-0.6
		c-0.2-0.1-0.4-0.2-0.6-0.2h-0.8v1.5H43.3z M45.3,80.8v3.7H45v-3.7H45.3z"/>
	<path class="st78" d="M49.9,84.5l-1.7-3.7h0.4l1.5,3.3l1.3-3.3h0.4l-2.4,5.7H49L49.9,84.5z"/>
	<path class="st78" d="M54.6,82.9c-0.3,0-0.7,0.1-1,0.1c-0.2,0-0.6,0-0.9-0.2c-0.3-0.2-0.3-0.7-0.3-0.9v-1.1h0.4v1.1
		c0,0.3,0,0.5,0.2,0.7c0.1,0.1,0.3,0.1,0.5,0.1c0.3,0,0.8-0.1,1-0.1v-1.8H55v3.7h-0.4V82.9z"/>
	<path class="st78" d="M56.4,82.7c0,0.9,0.7,1.5,1.5,1.5c0.6,0,1-0.4,1.3-0.8l0.3,0.2c-0.2,0.4-0.7,1-1.6,1c-1.1,0-1.8-0.8-1.8-1.9
		c0-1.3,0.9-1.9,1.8-1.9c1,0,1.7,0.8,1.7,2H56.4z M59.2,82.3c-0.1-0.7-0.6-1.3-1.4-1.3c-0.7,0-1.3,0.6-1.4,1.3H59.2z"/>
</g>
<g class="st39">
	<path class="st78" d="M61.4,81.1h-1.3v-0.3H63v0.3h-1.3v3.3h-0.4V81.1z"/>
</g>
<g class="st39">
	<path class="st78" d="M66.4,80.8h0.4v3.7h-0.4v-0.7c-0.4,0.6-1,0.8-1.4,0.8c-1,0-1.8-0.7-1.8-1.9c0-1.1,0.7-1.9,1.8-1.9
		c0.6,0,1.1,0.2,1.4,0.7V80.8z M63.6,82.6c0,0.8,0.5,1.6,1.4,1.6c0.9,0,1.4-0.8,1.4-1.6c0-1.1-0.8-1.5-1.4-1.5
		C64.3,81,63.6,81.6,63.6,82.6z"/>
	<path class="st78" d="M70.6,86.5h-0.4v-5.7h0.4v0.6c0.4-0.5,0.9-0.7,1.4-0.7c1.1,0,1.8,0.8,1.8,1.9c0,1.1-0.7,2-1.8,2
		c-0.9,0-1.3-0.6-1.4-0.8V86.5z M73.4,82.6c0-1-0.7-1.5-1.4-1.5c-0.7,0-1.4,0.5-1.4,1.5c0,0.9,0.5,1.6,1.4,1.6S73.4,83.5,73.4,82.6z
		"/>
	<path class="st78" d="M77.8,80.8h0.4v3.7h-0.4v-0.7c-0.4,0.6-1,0.8-1.4,0.8c-1,0-1.8-0.7-1.8-1.9c0-1.1,0.7-1.9,1.8-1.9
		c0.6,0,1.1,0.2,1.4,0.7V80.8z M75,82.6c0,0.8,0.5,1.6,1.4,1.6c0.9,0,1.4-0.8,1.4-1.6c0-1.1-0.8-1.5-1.4-1.5
		C75.7,81,75,81.6,75,82.6z"/>
	<path class="st78" d="M79.6,81.7c0.3-0.7,1-1,1.6-1c1.1,0,1.9,0.8,1.9,1.9c0,1.2-0.9,1.9-1.9,1.9c-0.6,0-1-0.2-1.3-0.5
		c-0.6-0.6-0.6-1.5-0.6-2c0-0.8,0.1-2.3,1.2-3c0.4-0.3,1-0.4,1.4-0.5c0.5-0.1,0.7-0.3,0.8-0.5h0.5c-0.3,0.6-0.9,0.8-1.3,0.9
		c-0.4,0.1-0.9,0.2-1.3,0.5C79.9,80.1,79.7,81,79.6,81.7L79.6,81.7z M82.7,82.6c0-0.8-0.5-1.6-1.5-1.6c-1,0-1.6,0.8-1.6,1.6
		c0,0.4,0.1,0.8,0.4,1.1c0.4,0.5,0.8,0.5,1.2,0.5C82.3,84.2,82.7,83.4,82.7,82.6z"/>
</g>
<g class="st39">
	<path class="st78" d="M87.9,82.6c0,1.1-0.8,1.9-1.9,1.9S84,83.7,84,82.6c0-1.1,0.8-1.9,1.9-1.9S87.9,81.5,87.9,82.6z M87.5,82.6
		c0-0.9-0.7-1.6-1.5-1.6s-1.5,0.7-1.5,1.6c0,0.9,0.7,1.6,1.5,1.6S87.5,83.5,87.5,82.6z"/>
</g>
<g class="st39">
	<path class="st78" d="M90.8,82.9c-0.3,0-0.7,0.1-1,0.1c-0.2,0-0.6,0-0.9-0.2c-0.3-0.2-0.3-0.7-0.3-0.9v-1.1H89v1.1
		c0,0.3,0,0.5,0.2,0.7c0.1,0.1,0.3,0.1,0.5,0.1c0.3,0,0.8-0.1,1-0.1v-1.8h0.4v3.7h-0.4V82.9z"/>
	<path class="st78" d="M92.6,82.7c0,0.9,0.7,1.5,1.5,1.5c0.6,0,1-0.4,1.3-0.8l0.3,0.2c-0.2,0.4-0.7,1-1.6,1c-1.1,0-1.8-0.8-1.8-1.9
		c0-1.3,0.9-1.9,1.8-1.9c1,0,1.7,0.8,1.7,2H92.6z M95.4,82.3C95.3,81.6,94.7,81,94,81c-0.7,0-1.3,0.6-1.4,1.3H95.4z"/>
</g>
<g class="st39">
	<path class="st78" d="M96.9,80.8h2v0.3h-1.6v3.3h-0.4V80.8z"/>
</g>
<g class="st39">
	<path class="st78" d="M102.9,82.6c0,1.1-0.8,1.9-1.9,1.9S99,83.7,99,82.6c0-1.1,0.8-1.9,1.9-1.9S102.9,81.5,102.9,82.6z
		 M102.5,82.6c0-0.9-0.7-1.6-1.5-1.6s-1.5,0.7-1.5,1.6c0,0.9,0.7,1.6,1.5,1.6S102.5,83.5,102.5,82.6z"/>
	<path class="st78" d="M107.2,80.8c0.2,0,0.5,0,0.8,0.2c0.1,0.1,0.3,0.3,0.3,0.7c0,0.3-0.1,0.6-0.4,0.8c0.1,0,0.3,0.1,0.5,0.2
		c0.2,0.1,0.3,0.4,0.3,0.7c0,0.4-0.2,0.7-0.4,0.8c-0.3,0.2-0.7,0.3-0.9,0.3H106v-3.7H107.2z M107.2,82.4c0.1,0,0.3,0,0.5-0.2
		c0.1-0.1,0.2-0.2,0.2-0.5c0-0.2-0.1-0.4-0.2-0.5c-0.2-0.1-0.4-0.1-0.5-0.1h-0.8v1.3H107.2z M107.4,84.1c0.1,0,0.4,0,0.6-0.2
		c0.1-0.1,0.3-0.3,0.3-0.5c0-0.2-0.1-0.4-0.2-0.5c-0.2-0.1-0.4-0.2-0.6-0.2h-1v1.4H107.4z"/>
	<path class="st78" d="M110.1,86.5h-0.4v-5.7h0.4v0.6c0.4-0.5,0.9-0.7,1.4-0.7c1.1,0,1.8,0.8,1.8,1.9c0,1.1-0.7,2-1.8,2
		c-0.9,0-1.3-0.6-1.4-0.8V86.5z M113,82.6c0-1-0.7-1.5-1.4-1.5c-0.7,0-1.4,0.5-1.4,1.5c0,0.9,0.5,1.6,1.4,1.6S113,83.5,113,82.6z"/>
	<path class="st78" d="M114.6,82.7c0,0.9,0.7,1.5,1.5,1.5c0.6,0,1-0.4,1.3-0.8l0.3,0.2c-0.2,0.4-0.7,1-1.6,1c-1.1,0-1.8-0.8-1.8-1.9
		c0-1.3,0.9-1.9,1.8-1.9c1,0,1.7,0.8,1.7,2H114.6z M117.3,82.3c-0.1-0.7-0.6-1.3-1.4-1.3c-0.7,0-1.3,0.6-1.4,1.3H117.3z"/>
	<path class="st78" d="M119.2,80.6l1.5,3.3l1.5-3.3l0.9,3.9h-0.4l-0.6-2.9l-1.4,3.1l-1.4-3.1l-0.6,2.9h-0.4L119.2,80.6z"/>
	<path class="st78" d="M124,82.7c0,0.9,0.7,1.5,1.5,1.5c0.6,0,1-0.4,1.3-0.8l0.3,0.2c-0.2,0.4-0.7,1-1.6,1c-1.1,0-1.8-0.8-1.8-1.9
		c0-1.3,0.9-1.9,1.8-1.9c1,0,1.7,0.8,1.7,2H124z M126.8,82.3c-0.1-0.7-0.6-1.3-1.4-1.3c-0.7,0-1.3,0.6-1.4,1.3H126.8z"/>
	<path class="st78" d="M128.2,80.8h0.4v1.6h2.1v-1.6h0.4v3.7h-0.4v-1.7h-2.1v1.7h-0.4V80.8z"/>
	<path class="st78" d="M132.6,80.8v2.9l2.6-3.2v3.9h-0.4v-2.9l-2.6,3.2v-3.9H132.6z"/>
</g>
<g class="st39">
	<path class="st78" d="M8.5,89.3v5.6h1.7v0.4H8.1v-6H8.5z"/>
	<path class="st78" d="M11.5,89.3v6h-0.4v-6H11.5z"/>
</g>
<g class="st39">
	<path class="st78" d="M17.9,90.5c-0.5-0.6-1.3-0.9-2-0.9c-1.5,0-2.7,1.2-2.7,2.8c0,1.8,1.5,2.7,2.7,2.7c0.6,0,1.4-0.2,2-0.9v0.5
		c-0.6,0.5-1.4,0.7-2,0.7c-1.8,0-3.1-1.4-3.1-3.1c0-1.7,1.4-3.1,3.1-3.1c1.1,0,1.8,0.6,2,0.8V90.5z"/>
</g>
<g class="st39">
	<path class="st78" d="M24.9,92.3c0,1.7-1.4,3.1-3.1,3.1c-1.8,0-3.1-1.4-3.1-3.1s1.4-3.1,3.1-3.1S24.9,90.5,24.9,92.3z M24.5,92.3
		c0-1.5-1.2-2.7-2.7-2.7s-2.7,1.2-2.7,2.7c0,1.5,1.2,2.7,2.7,2.7S24.5,93.8,24.5,92.3z"/>
	<path class="st78" d="M26.2,95.3v-6.1l5,5.3v-5.2h0.4v6.2l-5-5.3v5.1H26.2z"/>
</g>
<g class="st39">
	<path class="st78" d="M214,89.3v6h-0.4v-5.6H210v5.6h-0.4v-6H214z"/>
	<path class="st78" d="M221.6,92.3c0,1.7-1.4,3.1-3.1,3.1c-1.8,0-3.1-1.4-3.1-3.1s1.4-3.1,3.1-3.1C220.2,89.2,221.6,90.6,221.6,92.3
		z M221.1,92.3c0-1.5-1.2-2.7-2.7-2.7c-1.5,0-2.7,1.2-2.7,2.7c0,1.5,1.2,2.7,2.7,2.7C220,95.1,221.1,93.9,221.1,92.3z"/>
</g>
</svg>
