<?xml version="1.0" encoding="utf-8"?>
<!-- Generator: Adobe Illustrator 21.0.2, SVG Export Plug-In . SVG Version: 6.00 Build 0)  -->
<svg version="1.1" id="Слой_1" xmlns="http://www.w3.org/2000/svg" xmlns:xlink="http://www.w3.org/1999/xlink" x="0px" y="0px"
	 viewBox="0 0 300 96.9" style="enable-background:new 0 0 300 96.9;" xml:space="preserve">
<style type="text/css">
	.st0{fill:#1A4F96;}
	.st1{fill:#878787;}
	.st2{fill:url(#SVGID_1_);}
	.st3{fill:#212121;}
	.st4{fill:url(#SVGID_2_);}
	.st5{fill:url(#SVGID_3_);}
	.st6{fill:#1A1A1A;}
	.st7{fill:url(#SVGID_4_);}
	.st8{fill:url(#SVGID_5_);}
	.st9{fill:url(#SVGID_6_);}
	.st10{fill:#1F1F1F;}
	.st11{fill:#5C5C5C;}
	.st12{fill:#C2C2C2;}
	.st13{fill:#737373;}
	.st14{fill:#949494;}
	.st15{fill:#B3B3B3;}
	.st16{fill:url(#SVGID_7_);}
	.st17{fill:url(#SVGID_8_);}
	.st18{fill:url(#SVGID_9_);}
	.st19{fill:url(#SVGID_10_);}
	.st20{fill:url(#SVGID_11_);}
	.st21{fill:url(#SVGID_12_);}
	.st22{fill:#A8A39B;}
	.st23{fill:url(#SVGID_13_);}
	.st24{fill:none;}
	.st25{fill:url(#SVGID_14_);}
	.st26{fill:url(#SVGID_15_);}
	.st27{fill:url(#SVGID_16_);}
	.st28{fill:url(#SVGID_17_);}
	.st29{fill:url(#SVGID_18_);}
	.st30{fill:url(#SVGID_19_);}
	.st31{fill:url(#SVGID_20_);}
	.st32{fill:url(#SVGID_21_);}
	.st33{fill:#969696;}
	.st34{fill:#185694;}
	.st35{fill:url(#SVGID_22_);}
	.st36{fill:url(#SVGID_23_);}
	.st37{fill:#F7F6F6;}
	.st38{fill:url(#SVGID_24_);}
	.st39{enable-background:new    ;}
	.st40{fill:#FFFFFF;}
	.st41{fill:#3AAA35;}
	.st42{fill:#1D1D1B;}
</style>
<rect x="100.2" y="15.7" class="st0" width="1.5" height="23.9"/>
<polygon class="st0" points="300,13.9 285.7,9.1 285.7,11.6 14.3,11.6 14.3,9.1 0,13.9 14.3,18.7 14.3,16.3 285.7,16.3 285.7,18.7 
	"/>
<rect x="213.3" y="15.7" class="st0" width="1.5" height="23.9"/>
<g>
	<g>
		<path class="st1" d="M216.4,96c-0.4,0-0.9-0.1-1.5-0.3c0,0-0.6-0.2-1.7-0.4c-26.4-6.7-39.9-10.2-40.1-10.3
			c-0.6-0.2-0.6-0.9-0.5-1.2c0-0.3,0.5-1.1,11.7-6.8c5.6-2.8,11.3-5.6,11.8-5.8c-0.2-0.1-0.2-0.1-0.2-0.1l0,0l0,0
			c0-0.1-0.1-0.2-0.1-18.3c0-9,0-18,0-18.1v-0.2h0.2c0.2,0,15.1-0.1,20.6,0c6.6,0.1,6.6,0.1,18.8,1.7l1.8,0.2c0.3,0,0.5,0.3,0.5,0.6
			v41.2c0,0.3-0.2,0.5-0.4,0.5c-0.1,0-0.1,0.1-0.2,0.1h0.2l0.1-0.1l0.1,0.1l0.4,0.1l-0.2,0.2c0.1,0.2,0.2,0.7,0.2,1.6l0,0
			c0.1,1.8-0.5,2.4-1,2.6c-0.1,0-0.1,0-0.2,0.1l0.2,0.1h-2.8L217,95.9C216.9,96,216.7,96,216.4,96z M173,83.8L173,83.8L173,83.8
			c0,0.1-0.2,0.7,0.3,0.9c0.2,0.1,7.4,1.9,40.1,10.3c1,0.3,1.6,0.4,1.7,0.4c1.5,0.4,1.7,0.2,1.8,0.2l0,0l17.9-13.1l0.2,0.3l-0.4,0.3
			h1.4l0,0c0.2,0,0.4,0,0.6-0.1c0.6-0.2,0.9-1,0.8-2.2l0,0c-0.1-0.7-0.1-1.2-0.2-1.4l-1.3,0.9l0,0l0,0l-0.2-0.3
			c0.5-0.4,0.9-0.7,1.2-0.8l-2.6-0.5v-0.2c0,0,0-0.1,0-0.2V78l1.5,0.3c0.5,0.1,0.8,0.1,0.8,0.1c0.2,0,0.4,0,0.5-0.1l0,0l0,0
			c0.1,0,0.1-0.1,0.1-0.2V36.8c0-0.1-0.1-0.2-0.1-0.2l0,0l-1.8-0.2c-12.2-1.5-12.2-1.5-18.8-1.6c-5.1-0.1-18.6,0-20.4,0
			c0,12-0.1,34.3,0,36c0.1,0,0.5,0.1,1.4,0.4h0.2v0.2c0,0.1,0,0.2,0,0.3v0.2l-1.5-0.3c-0.6,0.3-6,2.9-11.4,5.7
			C174.7,82.3,173.2,83.5,173,83.8z M196.1,70.9L196.1,70.9L196.1,70.9z M216.5,95.3L216.5,95.3v-0.4v0.2l0.1-0.2L216.5,95.3z
			 M221.8,90.7l-0.2-0.3l0,0l0,0c0.5-0.4,0.9-0.7,1.5-1.1l0.2,0.3L221.8,90.7z M230.4,77.8h-0.2l-29.5-5.4v-0.2c0-0.1,0-0.1,0-0.2
			v-0.2l0.3,0.1h0.2c7,1.4,19.7,3.7,29.1,5.3h0.2v0.2c0,0.1,0,0.1,0,0.2L230.4,77.8z"/>
		<g>
			<polygon points="236,83.2 233.9,83.3 234.8,82.6 			"/>
			
				<linearGradient id="SVGID_1_" gradientUnits="userSpaceOnUse" x1="195.8555" y1="350.3512" x2="237.4" y2="350.3512" gradientTransform="matrix(1 0 0 1 0 -293.7734)">
				<stop  offset="0" style="stop-color:#DBDBDB"/>
				<stop  offset="0.2107" style="stop-color:#CACACA"/>
				<stop  offset="0.5242" style="stop-color:#B5B5B5"/>
				<stop  offset="0.7349" style="stop-color:#AEAEAE"/>
				<stop  offset="0.9518" style="stop-color:#666666"/>
			</linearGradient>
			<path class="st2" d="M195.9,70.9c-0.1-0.2,0-36.3,0-36.3s15-0.1,20.6,0c6.9,0.1,6.6,0.1,20.6,1.9l0.3,41.7c0,0-0.2,0.4-0.9,0.4
				C236.2,78.5,196.5,71.5,195.9,70.9z"/>
			<polygon class="st3" points="234.6,78.2 230.3,77.4 230.4,75.3 234.6,75.9 			"/>
			
				<linearGradient id="SVGID_2_" gradientUnits="userSpaceOnUse" x1="232.1477" y1="371.8386" x2="232.5755" y2="369.4128" gradientTransform="matrix(1 0 0 1 0 -293.7734)">
				<stop  offset="0" style="stop-color:#DBDBDB"/>
				<stop  offset="4.981127e-02" style="stop-color:#D1D1D1"/>
				<stop  offset="0.2867" style="stop-color:#A3A3A3"/>
				<stop  offset="0.4974" style="stop-color:#828282"/>
				<stop  offset="0.6721" style="stop-color:#6D6D6D"/>
				<stop  offset="0.7892" style="stop-color:#666666"/>
				<stop  offset="0.7986" style="stop-color:#777777"/>
				<stop  offset="0.8142" style="stop-color:#8D8D8D"/>
				<stop  offset="0.8326" style="stop-color:#9E9E9E"/>
				<stop  offset="0.8553" style="stop-color:#AAAAAA"/>
				<stop  offset="0.8873" style="stop-color:#B1B1B1"/>
				<stop  offset="0.9759" style="stop-color:#B3B3B3"/>
			</linearGradient>
			<path class="st4" d="M234.4,78.4l-4.3-0.7c0,0-0.1-2.3,0.5-2.3c0.5,0,4.2,0.5,3.9,0.9C234.3,76.6,234.4,78.4,234.4,78.4z"/>
			<polygon class="st3" points="201.1,72.1 197.6,71.4 197.7,69.6 201,70.1 			"/>
			
				<linearGradient id="SVGID_3_" gradientUnits="userSpaceOnUse" x1="199.1003" y1="365.863" x2="199.4814" y2="363.7021" gradientTransform="matrix(1 0 0 1 0 -293.7734)">
				<stop  offset="0" style="stop-color:#DBDBDB"/>
				<stop  offset="4.981127e-02" style="stop-color:#D1D1D1"/>
				<stop  offset="0.2867" style="stop-color:#A3A3A3"/>
				<stop  offset="0.4974" style="stop-color:#828282"/>
				<stop  offset="0.6721" style="stop-color:#6D6D6D"/>
				<stop  offset="0.7892" style="stop-color:#666666"/>
				<stop  offset="0.7986" style="stop-color:#777777"/>
				<stop  offset="0.8142" style="stop-color:#8D8D8D"/>
				<stop  offset="0.8326" style="stop-color:#9E9E9E"/>
				<stop  offset="0.8553" style="stop-color:#AAAAAA"/>
				<stop  offset="0.8873" style="stop-color:#B1B1B1"/>
				<stop  offset="0.9759" style="stop-color:#B3B3B3"/>
			</linearGradient>
			<path class="st5" d="M200.8,72.4l-3.3-0.6c0,0,0-2,0.6-2c0.4,0,3.2,0.3,3,0.7C200.8,70.8,200.8,72.4,200.8,72.4z"/>
			<polygon class="st6" points="236.1,74.7 196.5,68.1 196.5,36.5 236.1,38.5 			"/>
			
				<linearGradient id="SVGID_4_" gradientUnits="userSpaceOnUse" x1="238.6505" y1="362.5884" x2="196.1168" y2="332.806" gradientTransform="matrix(1 0 0 1 0 -293.7734)">
				<stop  offset="0" style="stop-color:#FFFFFF"/>
				<stop  offset="0.1942" style="stop-color:#D8E7F3"/>
				<stop  offset="0.4522" style="stop-color:#AACBE6"/>
				<stop  offset="0.682" style="stop-color:#89B7DC"/>
				<stop  offset="0.8724" style="stop-color:#74AAD6"/>
				<stop  offset="1" style="stop-color:#6DA6D4"/>
			</linearGradient>
			<polygon class="st7" points="235.3,73.6 197.4,67.3 197.4,37.2 235.3,39.1 			"/>
			
				<linearGradient id="SVGID_5_" gradientUnits="userSpaceOnUse" x1="189.0013" y1="360.1111" x2="221.1546" y2="390.0945" gradientTransform="matrix(1 0 0 1 0 -293.7734)">
				<stop  offset="0" style="stop-color:#DBDBDB"/>
				<stop  offset="0.1192" style="stop-color:#CACACA"/>
				<stop  offset="0.2965" style="stop-color:#B5B5B5"/>
				<stop  offset="0.4157" style="stop-color:#AEAEAE"/>
				<stop  offset="0.9819" style="stop-color:#4D4D4D"/>
			</linearGradient>
			<path class="st8" d="M216.7,95.1c-6.2-1-41.2-10.3-43.9-11.3c-0.3-1,23.4-12.5,23.4-12.5l41.2,7.6
				C237.2,79,216.7,93.8,216.7,95.1z"/>
			<path class="st6" d="M172.8,83.8c0,0-0.2,0.8,0.4,1c0.4,0.2,41.4,10.6,41.8,10.7c2,0.5,2,0.1,2,0.1l-0.5-0.6L172.8,83.8z"/>
			
				<linearGradient id="SVGID_6_" gradientUnits="userSpaceOnUse" x1="228.268" y1="382.8293" x2="226.4917" y2="380.2926" gradientTransform="matrix(1 0 0 1 0 -293.7734)">
				<stop  offset="0" style="stop-color:#4D4D4D"/>
				<stop  offset="0.251" style="stop-color:#4F4F4F"/>
				<stop  offset="0.3718" style="stop-color:#575757"/>
				<stop  offset="0.4648" style="stop-color:#646464"/>
				<stop  offset="0.5435" style="stop-color:#767676"/>
				<stop  offset="0.6126" style="stop-color:#8E8E8E"/>
				<stop  offset="0.6751" style="stop-color:#ABABAB"/>
				<stop  offset="0.6807" style="stop-color:#AEAEAE"/>
				<stop  offset="0.6899" style="stop-color:#9D9D9D"/>
				<stop  offset="0.712" style="stop-color:#7A7A7A"/>
				<stop  offset="0.7365" style="stop-color:#5C5C5C"/>
				<stop  offset="0.7632" style="stop-color:#444444"/>
				<stop  offset="0.7933" style="stop-color:#313131"/>
				<stop  offset="0.8285" style="stop-color:#242424"/>
				<stop  offset="0.8737" style="stop-color:#1C1C1C"/>
				<stop  offset="0.9639" style="stop-color:#1A1A1A"/>
			</linearGradient>
			<path class="st9" d="M237.3,78.9c0,0,0.2,0.3,0.3,1.7c0,0.4,0.2,2-0.9,2.5c-1.2,0.5-1.9-0.5-1.9-0.5l-17.9,13.1
				c0,0-0.5-0.3-0.4-0.6c0-0.1,0.1-0.3,0.4-0.6c0.3-0.3,0.8-0.8,1-1s10.9-8.5,10.9-8.5L237.3,78.9"/>
			<polygon class="st10" points="183.4,79 195.7,72.5 233.4,79.6 222.4,87.9 			"/>
			<polygon class="st11" points="183.4,79 184.3,78.5 221.7,87 222.4,87.9 			"/>
			<polygon points="221.7,87 232.4,79.4 233.4,79.6 222.4,87.9 			"/>
			<polygon class="st12" points="195.7,72.5 195.7,72.2 233.9,79.3 233.4,79.6 			"/>
			<polygon class="st13" points="183.2,78.9 195.7,72.2 195.7,72.5 183.4,79 			"/>
			<ellipse class="st14" cx="236.4" cy="81.5" rx="0.8" ry="1.4"/>
			<path class="st15" d="M200.8,89.8c-0.3,0.2-0.7,0.4-0.9,0.3l-8.3-2.1c-0.2-0.1-0.2-0.3,0.1-0.5l5.8-3.9c0.3-0.2,0.7-0.4,0.9-0.3
				l7.5,1.8c0.2,0.1,0.2,0.3-0.1,0.5L200.8,89.8z"/>
			<path class="st15" d="M237.5,78c0,0.2-0.2,0.4-0.3,0.4l0,0c-0.2,0-0.3-0.2-0.3-0.4V36.8c0-0.2,0.2-0.4,0.3-0.4l0,0
				c0.2,0,0.3,0.2,0.3,0.4V78z"/>
		</g>
	</g>
	<polygon points="236,83.2 233.9,83.3 234.8,82.6 	"/>
	
		<linearGradient id="SVGID_7_" gradientUnits="userSpaceOnUse" x1="195.8555" y1="350.3512" x2="237.4" y2="350.3512" gradientTransform="matrix(1 0 0 1 0 -293.7734)">
		<stop  offset="0" style="stop-color:#DBDBDB"/>
		<stop  offset="0.2107" style="stop-color:#CACACA"/>
		<stop  offset="0.5242" style="stop-color:#B5B5B5"/>
		<stop  offset="0.7349" style="stop-color:#AEAEAE"/>
		<stop  offset="0.9518" style="stop-color:#666666"/>
	</linearGradient>
	<path class="st16" d="M195.9,70.9c-0.1-0.2,0-36.3,0-36.3s15-0.1,20.6,0c6.9,0.1,6.6,0.1,20.6,1.9l0.3,41.7c0,0-0.2,0.4-0.9,0.4
		C236.2,78.5,196.5,71.5,195.9,70.9z"/>
	<polygon class="st3" points="234.6,78.2 230.3,77.4 230.4,75.3 234.6,75.9 	"/>
	
		<linearGradient id="SVGID_8_" gradientUnits="userSpaceOnUse" x1="232.1477" y1="371.8386" x2="232.5755" y2="369.4128" gradientTransform="matrix(1 0 0 1 0 -293.7734)">
		<stop  offset="0" style="stop-color:#DBDBDB"/>
		<stop  offset="4.981127e-02" style="stop-color:#D1D1D1"/>
		<stop  offset="0.2867" style="stop-color:#A3A3A3"/>
		<stop  offset="0.4974" style="stop-color:#828282"/>
		<stop  offset="0.6721" style="stop-color:#6D6D6D"/>
		<stop  offset="0.7892" style="stop-color:#666666"/>
		<stop  offset="0.7986" style="stop-color:#777777"/>
		<stop  offset="0.8142" style="stop-color:#8D8D8D"/>
		<stop  offset="0.8326" style="stop-color:#9E9E9E"/>
		<stop  offset="0.8553" style="stop-color:#AAAAAA"/>
		<stop  offset="0.8873" style="stop-color:#B1B1B1"/>
		<stop  offset="0.9759" style="stop-color:#B3B3B3"/>
	</linearGradient>
	<path class="st17" d="M234.4,78.4l-4.3-0.7c0,0-0.1-2.3,0.5-2.3c0.5,0,4.2,0.5,3.9,0.9C234.3,76.6,234.4,78.4,234.4,78.4z"/>
	<polygon class="st3" points="201.1,72.1 197.6,71.4 197.7,69.6 201,70.1 	"/>
	
		<linearGradient id="SVGID_9_" gradientUnits="userSpaceOnUse" x1="199.1003" y1="365.863" x2="199.4814" y2="363.7021" gradientTransform="matrix(1 0 0 1 0 -293.7734)">
		<stop  offset="0" style="stop-color:#DBDBDB"/>
		<stop  offset="4.981127e-02" style="stop-color:#D1D1D1"/>
		<stop  offset="0.2867" style="stop-color:#A3A3A3"/>
		<stop  offset="0.4974" style="stop-color:#828282"/>
		<stop  offset="0.6721" style="stop-color:#6D6D6D"/>
		<stop  offset="0.7892" style="stop-color:#666666"/>
		<stop  offset="0.7986" style="stop-color:#777777"/>
		<stop  offset="0.8142" style="stop-color:#8D8D8D"/>
		<stop  offset="0.8326" style="stop-color:#9E9E9E"/>
		<stop  offset="0.8553" style="stop-color:#AAAAAA"/>
		<stop  offset="0.8873" style="stop-color:#B1B1B1"/>
		<stop  offset="0.9759" style="stop-color:#B3B3B3"/>
	</linearGradient>
	<path class="st18" d="M200.8,72.4l-3.3-0.6c0,0,0-2,0.6-2c0.4,0,3.2,0.3,3,0.7C200.8,70.8,200.8,72.4,200.8,72.4z"/>
	<polygon class="st6" points="236.1,74.7 196.5,68.1 196.5,36.5 236.1,38.5 	"/>
	
		<linearGradient id="SVGID_10_" gradientUnits="userSpaceOnUse" x1="238.6505" y1="362.5884" x2="196.1168" y2="332.806" gradientTransform="matrix(1 0 0 1 0 -293.7734)">
		<stop  offset="0" style="stop-color:#FFFFFF"/>
		<stop  offset="0.1942" style="stop-color:#D8E7F3"/>
		<stop  offset="0.4522" style="stop-color:#AACBE6"/>
		<stop  offset="0.682" style="stop-color:#89B7DC"/>
		<stop  offset="0.8724" style="stop-color:#74AAD6"/>
		<stop  offset="1" style="stop-color:#6DA6D4"/>
	</linearGradient>
	<polygon class="st19" points="235.3,73.6 197.4,67.3 197.4,37.2 235.3,39.1 	"/>
	
		<linearGradient id="SVGID_11_" gradientUnits="userSpaceOnUse" x1="189.0013" y1="360.1111" x2="221.1546" y2="390.0945" gradientTransform="matrix(1 0 0 1 0 -293.7734)">
		<stop  offset="0" style="stop-color:#DBDBDB"/>
		<stop  offset="0.1192" style="stop-color:#CACACA"/>
		<stop  offset="0.2965" style="stop-color:#B5B5B5"/>
		<stop  offset="0.4157" style="stop-color:#AEAEAE"/>
		<stop  offset="0.9819" style="stop-color:#4D4D4D"/>
	</linearGradient>
	<path class="st20" d="M216.7,95.1c-6.2-1-41.2-10.3-43.9-11.3c-0.3-1,23.4-12.5,23.4-12.5l41.2,7.6C237.2,79,216.7,93.8,216.7,95.1
		z"/>
	<path class="st6" d="M172.8,83.8c0,0-0.2,0.8,0.4,1c0.4,0.2,41.4,10.6,41.8,10.7c2,0.5,2,0.1,2,0.1l-0.5-0.6L172.8,83.8z"/>
	
		<linearGradient id="SVGID_12_" gradientUnits="userSpaceOnUse" x1="228.268" y1="382.8293" x2="226.4917" y2="380.2926" gradientTransform="matrix(1 0 0 1 0 -293.7734)">
		<stop  offset="0" style="stop-color:#4D4D4D"/>
		<stop  offset="0.251" style="stop-color:#4F4F4F"/>
		<stop  offset="0.3718" style="stop-color:#575757"/>
		<stop  offset="0.4648" style="stop-color:#646464"/>
		<stop  offset="0.5435" style="stop-color:#767676"/>
		<stop  offset="0.6126" style="stop-color:#8E8E8E"/>
		<stop  offset="0.6751" style="stop-color:#ABABAB"/>
		<stop  offset="0.6807" style="stop-color:#AEAEAE"/>
		<stop  offset="0.6899" style="stop-color:#9D9D9D"/>
		<stop  offset="0.712" style="stop-color:#7A7A7A"/>
		<stop  offset="0.7365" style="stop-color:#5C5C5C"/>
		<stop  offset="0.7632" style="stop-color:#444444"/>
		<stop  offset="0.7933" style="stop-color:#313131"/>
		<stop  offset="0.8285" style="stop-color:#242424"/>
		<stop  offset="0.8737" style="stop-color:#1C1C1C"/>
		<stop  offset="0.9639" style="stop-color:#1A1A1A"/>
	</linearGradient>
	<path class="st21" d="M237.3,78.9c0,0,0.2,0.3,0.3,1.7c0,0.4,0.2,2-0.9,2.5c-1.2,0.5-1.9-0.5-1.9-0.5l-17.9,13.1
		c0,0-0.5-0.3-0.4-0.6c0-0.1,0.1-0.3,0.4-0.6c0.3-0.3,0.8-0.8,1-1s10.9-8.5,10.9-8.5L237.3,78.9"/>
	<polygon class="st10" points="183.4,79 195.7,72.5 233.4,79.6 222.4,87.9 	"/>
	<polygon class="st11" points="183.4,79 184.3,78.5 221.7,87 222.4,87.9 	"/>
	<polygon points="221.7,87 232.4,79.4 233.4,79.6 222.4,87.9 	"/>
	<polygon class="st12" points="195.7,72.5 195.7,72.2 233.9,79.3 233.4,79.6 	"/>
	<polygon class="st13" points="183.2,78.9 195.7,72.2 195.7,72.5 183.4,79 	"/>
	<ellipse class="st14" cx="236.4" cy="81.5" rx="0.8" ry="1.4"/>
	<path class="st15" d="M200.8,89.8c-0.3,0.2-0.7,0.4-0.9,0.3l-8.3-2.1c-0.2-0.1-0.2-0.3,0.1-0.5l5.8-3.9c0.3-0.2,0.7-0.4,0.9-0.3
		l7.5,1.8c0.2,0.1,0.2,0.3-0.1,0.5L200.8,89.8z"/>
	<path class="st15" d="M237.5,78c0,0.2-0.2,0.4-0.3,0.4l0,0c-0.2,0-0.3-0.2-0.3-0.4V36.8c0-0.2,0.2-0.4,0.3-0.4l0,0
		c0.2,0,0.3,0.2,0.3,0.4V78z"/>
</g>
<rect x="63.1" y="61.6" transform="matrix(0.7071 -0.7071 0.7071 0.7071 -22.1185 71.3356)" class="st0" width="23.9" height="1.5"/>
<rect x="112.1" y="52.5" transform="matrix(0.7071 -0.7071 0.7071 0.7071 -1.3309 103.3081)" class="st0" width="23.9" height="1.5"/>
<g>
	<g>
		<path class="st22" d="M121.3,39.6L121.3,39.6L121.3,39.6c0-0.2,0-0.3,0-0.3c-0.1-0.5-0.3-0.8-0.3-0.8l-3.4-0.3l-39-0.5h1.2h-1.2
			l0.2,36.1l1.8,0.7l0.1-0.1v0.1l38.9-6.6l1.5-2c0-0.1,0-0.1,0-0.2l0.1-9.2l0,0l0.1-5.5l0,0L121.3,39.6
			C121.3,39.7,121.3,39.6,121.3,39.6z"/>
		<path class="st22" d="M80.5,74.7L80.5,74.7l-1.9-0.8v-0.1l-0.2-36.3h0.2l0,0l39,0.5l0,0l3.5,0.3v0.1c0,0,0.2,0.3,0.3,0.9l0,0
			c0,0,0,0.1,0,0.3l0,0l-0.1,11.3l0,0l-0.1,5.7l-0.1,9.2c0,0.1,0,0.2,0,0.3l0,0l-1.6,2.1h-0.1L80.5,74.7z M79,73.7l1.6,0.6l0.3-0.1
			v0.1l38.6-6.6l1.5-1.9l0,0l0,0l0,0l0.1-9.2l0.1-5.3l0,0l0.1-11.7c0-0.1,0-0.2,0-0.3c-0.1-0.3-0.2-0.6-0.2-0.7l-3.3-0.3L80,37.8
			l0,0h-1V73.7z"/>
	</g>
	<g>
		<g>
			
				<linearGradient id="SVGID_13_" gradientUnits="userSpaceOnUse" x1="104.7619" y1="363.8069" x2="95.7324" y2="327.5914" gradientTransform="matrix(1 0 0 1 0 -293.7734)">
				<stop  offset="0" style="stop-color:#D2CFC7"/>
				<stop  offset="0.2912" style="stop-color:#D2CFC7"/>
				<stop  offset="0.7582" style="stop-color:#E2E0DA"/>
				<stop  offset="1" style="stop-color:#E2E0DA"/>
			</linearGradient>
			<polygon class="st23" points="79.9,37.8 121,38.5 121.3,39.6 121.1,65.9 81.6,73.9 			"/>
			<polygon class="st24" points="79.9,37.8 121,38.5 121.3,39.6 121.1,65.9 81.6,73.9 			"/>
		</g>
		<g>
			
				<linearGradient id="SVGID_14_" gradientUnits="userSpaceOnUse" x1="105.197" y1="337.6177" x2="130.9395" y2="358.6011" gradientTransform="matrix(1 0 0 1 0 -293.7734)">
				<stop  offset="0" style="stop-color:#BBBBAD"/>
				<stop  offset="0.2512" style="stop-color:#C2C1B4"/>
				<stop  offset="0.6416" style="stop-color:#D2CFC7"/>
				<stop  offset="1" style="stop-color:#D4D0C9"/>
			</linearGradient>
			<path class="st25" d="M121.3,45.4l-5.8,0.2c0,0-2,0.2-2,2.1c0,1,0,11.7,0,12.8c0,2.7,1.3,2.4,1.3,2.4l6.4-0.5L121.3,45.4z"/>
			<path class="st24" d="M121.3,45.4l-5.8,0.2c0,0-2,0.2-2,2.1c0,1,0,11.7,0,12.8c0,2.7,1.3,2.4,1.3,2.4l6.4-0.5L121.3,45.4z"/>
		</g>
		<g>
			
				<linearGradient id="SVGID_15_" gradientUnits="userSpaceOnUse" x1="-1082.4982" y1="339.7963" x2="-1073.2223" y2="360.6303" gradientTransform="matrix(-1 0 0 1 -990.4943 -293.7734)">
				<stop  offset="0" style="stop-color:#BBBBAD"/>
				<stop  offset="0.2512" style="stop-color:#C2C1B4"/>
				<stop  offset="0.6416" style="stop-color:#D2CFC7"/>
				<stop  offset="1" style="stop-color:#D4D0C9"/>
			</linearGradient>
			<path class="st26" d="M82.4,46.3l9.4-0.2c0,0,1.8,0,1.8,1.9c0,1,0,13.7,0,14.9c0,2.7-2.2,2.9-2.2,2.9l-8.8,1L82.4,46.3z"/>
			<path class="st24" d="M82.4,46.3l9.4-0.2c0,0,1.8,0,1.8,1.9c0,1,0,13.7,0,14.9c0,2.7-2.2,2.9-2.2,2.9l-8.8,1L82.4,46.3z"/>
		</g>
		<g>
			
				<linearGradient id="SVGID_16_" gradientUnits="userSpaceOnUse" x1="78.6181" y1="349.9234" x2="82.7558" y2="349.9234" gradientTransform="matrix(1 0 0 1 0 -293.7734)">
				<stop  offset="0" style="stop-color:#C4C2BA"/>
				<stop  offset="0.332" style="stop-color:#C8C5BE"/>
				<stop  offset="0.67" style="stop-color:#D2CFC9"/>
				<stop  offset="1" style="stop-color:#E2E0DA"/>
			</linearGradient>
			<polygon class="st27" points="82.4,41.3 82.8,73.4 81.8,74 80.6,74.5 78.8,73.9 78.6,37.8 79.9,37.8 			"/>
		</g>
		<g>
			
				<linearGradient id="SVGID_17_" gradientUnits="userSpaceOnUse" x1="115.9172" y1="347.9734" x2="121.2591" y2="347.9734" gradientTransform="matrix(1 0 0 1 0 -293.7734)">
				<stop  offset="0" style="stop-color:#919287"/>
				<stop  offset="0.1347" style="stop-color:#98988E"/>
				<stop  offset="0.3661" style="stop-color:#AAAAA0"/>
				<stop  offset="0.6644" style="stop-color:#C7C4BB"/>
				<stop  offset="0.7803" style="stop-color:#D2CFC7"/>
				<stop  offset="0.7979" style="stop-color:#D9D5D1"/>
				<stop  offset="0.8303" style="stop-color:#E0DDDB"/>
				<stop  offset="0.8757" style="stop-color:#E5E2E2"/>
				<stop  offset="1" style="stop-color:#E6E3E3"/>
			</linearGradient>
			<path class="st28" d="M121.2,56.6l-2.2,0.3l-0.1,2.5l-3-5.2l2.9-5.2l-0.1,2.2l2.5-0.2L121.2,56.6z"/>
			<path class="st24" d="M121.2,56.6l-2.2,0.3l-0.1,2.5l-3-5.2l2.9-5.2l-0.1,2.2l2.5-0.2L121.2,56.6z"/>
		</g>
		<g>
			
				<linearGradient id="SVGID_18_" gradientUnits="userSpaceOnUse" x1="80.7373" y1="348.5202" x2="67.3137" y2="340.8296" gradientTransform="matrix(1.0241 -1.000000e-04 -1.000000e-04 1.0263 9.7346 -297.7723)">
				<stop  offset="0" style="stop-color:#919287"/>
				<stop  offset="0.1347" style="stop-color:#98988E"/>
				<stop  offset="0.3661" style="stop-color:#AAAAA0"/>
				<stop  offset="0.6644" style="stop-color:#C7C4BB"/>
				<stop  offset="0.7803" style="stop-color:#D2CFC7"/>
				<stop  offset="0.7979" style="stop-color:#D9D5D1"/>
				<stop  offset="0.8303" style="stop-color:#E0DDDB"/>
				<stop  offset="0.8757" style="stop-color:#E5E2E2"/>
				<stop  offset="1" style="stop-color:#E6E3E3"/>
			</linearGradient>
			<path class="st29" d="M82.5,53.4l4-0.2v-2.6l3.5,5.6l-3.6,6.2v-2.6L82.6,60L82.5,53.4z"/>
			<path class="st24" d="M82.5,53.4l4-0.2v-2.6l3.5,5.6l-3.6,6.2v-2.6L82.6,60L82.5,53.4z"/>
		</g>
		
			<linearGradient id="SVGID_19_" gradientUnits="userSpaceOnUse" x1="-885.8242" y1="339.6724" x2="-876.2615" y2="361.1506" gradientTransform="matrix(-1 0 0 1 -794.0988 -293.7734)">
			<stop  offset="0" style="stop-color:#919287"/>
			<stop  offset="0.1347" style="stop-color:#98988E"/>
			<stop  offset="0.3661" style="stop-color:#AAAAA0"/>
			<stop  offset="0.6644" style="stop-color:#C7C4BB"/>
			<stop  offset="0.7803" style="stop-color:#D2CFC7"/>
			<stop  offset="0.7979" style="stop-color:#D9D5D1"/>
			<stop  offset="0.8303" style="stop-color:#E0DDDB"/>
			<stop  offset="0.8757" style="stop-color:#E5E2E2"/>
			<stop  offset="1" style="stop-color:#E6E3E3"/>
		</linearGradient>
		<path class="st30" d="M91.6,65.8c1.5-0.3,1.9-1.7,1.9-3c0-1,0-13.6,0-14.7c0-1.8-1.7-1.7-1.7-1.7l-9,0.1l-1.1-0.2l10.1-0.2
			c0,0,1.8,0,1.8,1.9c0,1,0,13.8,0,14.9C93.6,65.6,91.6,65.9,91.6,65.8l-10,1.2l1.1-0.3C90.5,66,91.4,65.8,91.6,65.8z"/>
		<g>
			
				<linearGradient id="SVGID_20_" gradientUnits="userSpaceOnUse" x1="114.7567" y1="347.6754" x2="124.9789" y2="348.6693" gradientTransform="matrix(1 0 0 1 0 -293.7734)">
				<stop  offset="0" style="stop-color:#D2CFC7"/>
				<stop  offset="0.2912" style="stop-color:#D2CFC7"/>
				<stop  offset="0.7582" style="stop-color:#E2E0DA"/>
				<stop  offset="1" style="stop-color:#E2E0DA"/>
			</linearGradient>
			<path class="st31" d="M121.2,56.6l-2.2,0.3l-0.1,2.5l-2.9-5.2l2.8-5v2.2l2.5-0.2L121.2,56.6z"/>
			<path class="st24" d="M121.2,56.6l-2.2,0.3l-0.1,2.5l-2.9-5.2l2.8-5v2.2l2.5-0.2L121.2,56.6z"/>
		</g>
		
			<linearGradient id="SVGID_21_" gradientUnits="userSpaceOnUse" x1="-551.5686" y1="339.6978" x2="-544.2285" y2="356.1841" gradientTransform="matrix(1 0 0 1 665.5566 -293.7734)">
			<stop  offset="0" style="stop-color:#919287"/>
			<stop  offset="0.1347" style="stop-color:#98988E"/>
			<stop  offset="0.3661" style="stop-color:#AAAAA0"/>
			<stop  offset="0.6644" style="stop-color:#C7C4BB"/>
			<stop  offset="0.7803" style="stop-color:#D2CFC7"/>
			<stop  offset="0.7979" style="stop-color:#D9D5D1"/>
			<stop  offset="0.8303" style="stop-color:#E0DDDB"/>
			<stop  offset="0.8757" style="stop-color:#E5E2E2"/>
			<stop  offset="1" style="stop-color:#E6E3E3"/>
		</linearGradient>
		<path class="st32" d="M114.7,62.9c-0.9-0.1-1.1-0.9-1.1-2c0-0.9,0-12.2,0-13.1c0.1-2,1.7-2,1.7-2l6.1-0.4l0,0l-6.1,0.1
			c0,0-1.7-0.1-1.8,2.2c-0.1,0.9-0.1,12.1-0.1,13.1c-0.1,2.3,1.3,2.3,1.4,2.3c0.4,0,6.4-0.6,6.4-0.6l0,0
			C118,62.7,115.2,62.9,114.7,62.9z"/>
		<g>
			<g>
				<path class="st33" d="M109.7,54.7c0,2.9-2.7,5.5-5.9,5.8c-3.2,0.3-5.8-1.9-5.7-5s2.7-5.7,5.9-5.8S109.7,51.8,109.7,54.7z"/>
			</g>
			<path class="st33" d="M109.7,59.3c0,0.4-0.3,0.7-0.7,0.8l-10.2,1c-0.4,0-0.7-0.3-0.7-0.6l0.2-9.7c0-0.4,0.3-0.7,0.7-0.7l10.1-0.5
				c0.4,0,0.7,0.3,0.7,0.7L109.7,59.3z"/>
		</g>
		<path class="st34" d="M109.3,58.9c0,0.4-0.3,0.7-0.7,0.8L99,60.6c-0.4,0-0.7-0.3-0.7-0.6l0.2-9.2c0-0.4,0.3-0.7,0.7-0.7l9.4-0.4
			c0.4,0,0.7,0.3,0.7,0.7C109.3,50.4,109.3,58.9,109.3,58.9z"/>
		<g>
			
				<linearGradient id="SVGID_22_" gradientUnits="userSpaceOnUse" x1="78.6" y1="331.8734" x2="121" y2="331.8734" gradientTransform="matrix(1 0 0 1 0 -293.7734)">
				<stop  offset="0" style="stop-color:#D2CFC7"/>
				<stop  offset="0.2912" style="stop-color:#D2CFC7"/>
				<stop  offset="0.7582" style="stop-color:#E2E0DA"/>
				<stop  offset="1" style="stop-color:#E2E0DA"/>
			</linearGradient>
			<polygon class="st35" points="78.6,37.7 117.6,38.2 121,38.5 79.9,37.8 			"/>
			<polygon class="st24" points="78.6,37.7 117.6,38.2 121,38.5 79.9,37.8 			"/>
		</g>
		<g>
			
				<linearGradient id="SVGID_23_" gradientUnits="userSpaceOnUse" x1="99.6408" y1="337.0885" x2="79.3315" y2="356.5878" gradientTransform="matrix(1 0 0 1 0 -293.7734)">
				<stop  offset="0" style="stop-color:#BBBBAD"/>
				<stop  offset="0.2512" style="stop-color:#C2C1B4"/>
				<stop  offset="0.6416" style="stop-color:#D2CFC7"/>
				<stop  offset="1" style="stop-color:#D4D0C9"/>
			</linearGradient>
			<path class="st36" d="M82.5,53.4l4-0.1v-2.5l3.4,5.5l-3.5,6.1v-2.5l-3.8,0.3L82.5,53.4z"/>
			<path class="st24" d="M82.5,53.4l4-0.1v-2.5l3.4,5.5l-3.5,6.1v-2.5l-3.8,0.3L82.5,53.4z"/>
		</g>
		<g>
			<g>
				<polygon class="st37" points="82.6,73.6 80.7,74.5 80.7,39.6 82.6,39.6 				"/>
			</g>
		</g>
		<g>
			
				<linearGradient id="SVGID_24_" gradientUnits="userSpaceOnUse" x1="102.1891" y1="339.1248" x2="99.0983" y2="326.7285" gradientTransform="matrix(1 0 0 1 0 -293.7734)">
				<stop  offset="0" style="stop-color:#D2CFC7"/>
				<stop  offset="0.2912" style="stop-color:#D2CFC7"/>
				<stop  offset="0.7582" style="stop-color:#E2E0DA"/>
				<stop  offset="1" style="stop-color:#E2E0DA"/>
			</linearGradient>
			<path class="st38" d="M121.3,39.4c0,0,0.1,0.9-0.3,1.2s-0.9,0.3-1.8,0.3c-0.7,0-34.3,1.4-34.8,1.4c-0.8,0-1.7,0-2.8-1
				c-1.1-1-1.5-2.7-1.9-3.5l41.3,0.8C121,38.5,121.2,38.8,121.3,39.4"/>
			<path class="st24" d="M121.3,39.4c0,0,0.1,0.9-0.3,1.2s-0.9,0.3-1.8,0.3c-0.7,0-34.3,1.4-34.8,1.4c-0.8,0-1.7,0-2.8-1
				c-1.1-1-1.5-2.7-1.9-3.5l41.3,0.8C121,38.5,121.2,38.8,121.3,39.4"/>
		</g>
		<g>
			<path class="st22" d="M80.7,74.5c0,0,1-1.2,1.6-1.6c0.6-0.5,1.4-0.7,2-0.9c0.6-0.1,34.8-6.3,35.2-6.4c0.4-0.1,1.2-0.3,1.3-0.2
				c0.2,0.1,0.4,0.3,0.3,0.5l-1.5,2L80.7,74.5z"/>
			<path class="st24" d="M80.7,74.5c0,0,1-1.2,1.6-1.6c0.6-0.5,1.4-0.7,2-0.9c0.6-0.1,34.8-6.3,35.2-6.4c0.4-0.1,1.2-0.3,1.3-0.2
				c0.2,0.1,0.4,0.3,0.3,0.5l-1.5,2L80.7,74.5z"/>
		</g>
		<polygon class="st24" points="109,56.2 99.1,56.7 99.2,54.5 109.1,54 		"/>
		<g class="st39">
			<path class="st40" d="M100,56.1l-0.2,0l0.1-1.3c-0.1,0-0.1,0.1-0.2,0.1c-0.1,0.1-0.2,0.1-0.2,0.1l0-0.2c0.1-0.1,0.2-0.1,0.3-0.2
				c0.1-0.1,0.2-0.2,0.2-0.2l0.1,0L100,56.1z"/>
			<path class="st40" d="M100.5,55.7l0.2,0c0,0.1,0,0.2,0.1,0.2c0.1,0,0.1,0.1,0.2,0.1c0.1,0,0.2,0,0.3-0.1c0.1-0.1,0.1-0.2,0.1-0.3
				c0-0.1,0-0.2-0.1-0.3c-0.1-0.1-0.1-0.1-0.2-0.1c-0.1,0-0.1,0-0.2,0.1c-0.1,0-0.1,0.1-0.1,0.1l-0.2,0l0.2-0.8l0.8,0l0,0.2l-0.7,0
				l-0.1,0.4c0.1-0.1,0.2-0.1,0.3-0.1c0.1,0,0.3,0,0.4,0.1c0.1,0.1,0.1,0.2,0.1,0.4c0,0.1-0.1,0.3-0.1,0.4c-0.1,0.1-0.3,0.2-0.4,0.2
				c-0.1,0-0.3,0-0.4-0.1C100.6,55.9,100.5,55.8,100.5,55.7z"/>
			<path class="st40" d="M101.9,56l0-0.2l0.2,0l0,0.2L101.9,56z M101.9,55.1l0-0.2l0.2,0l0,0.2L101.9,55.1z"/>
			<path class="st40" d="M102.4,55.2c0-0.2,0-0.3,0.1-0.5c0-0.1,0.1-0.2,0.2-0.3c0.1-0.1,0.2-0.1,0.3-0.1c0.1,0,0.2,0,0.2,0
				s0.1,0.1,0.2,0.1c0,0.1,0.1,0.1,0.1,0.2c0,0.1,0,0.2,0,0.4c0,0.2,0,0.3-0.1,0.5c0,0.1-0.1,0.2-0.2,0.3s-0.2,0.1-0.3,0.1
				c-0.2,0-0.3,0-0.4-0.2C102.5,55.7,102.4,55.5,102.4,55.2z M102.6,55.2c0,0.3,0,0.4,0.1,0.5c0.1,0.1,0.1,0.1,0.2,0.1
				c0.1,0,0.2-0.1,0.2-0.1c0.1-0.1,0.1-0.3,0.1-0.5c0-0.3,0-0.4-0.1-0.5c-0.1-0.1-0.1-0.1-0.2-0.1c-0.1,0-0.2,0-0.2,0.1
				C102.7,54.7,102.7,54.9,102.6,55.2z"/>
			<path class="st40" d="M104.8,54.6l-0.2,0c0-0.1,0-0.1-0.1-0.2c-0.1-0.1-0.1-0.1-0.2-0.1c-0.1,0-0.1,0-0.2,0.1
				c-0.1,0-0.1,0.1-0.2,0.2c0,0.1-0.1,0.2-0.1,0.4c0.1-0.1,0.1-0.1,0.2-0.2c0.1,0,0.1-0.1,0.2-0.1c0.1,0,0.2,0,0.3,0.1
				c0.1,0.1,0.1,0.2,0.1,0.4c0,0.1,0,0.2-0.1,0.3c0,0.1-0.1,0.2-0.2,0.2c-0.1,0.1-0.2,0.1-0.3,0.1c-0.2,0-0.3,0-0.4-0.2
				c-0.1-0.1-0.1-0.3-0.1-0.6c0-0.3,0.1-0.5,0.2-0.7c0.1-0.1,0.3-0.2,0.4-0.2c0.1,0,0.2,0,0.3,0.1C104.7,54.4,104.8,54.5,104.8,54.6
				z M103.9,55.4c0,0.1,0,0.1,0,0.2c0,0.1,0.1,0.1,0.1,0.1c0.1,0,0.1,0,0.2,0c0.1,0,0.2,0,0.2-0.1c0.1-0.1,0.1-0.2,0.1-0.3
				c0-0.1,0-0.2-0.1-0.3c-0.1-0.1-0.1-0.1-0.2-0.1c-0.1,0-0.2,0-0.2,0.1C104,55.2,103.9,55.3,103.9,55.4z"/>
			<path class="st40" d="M105.1,55.8l0-0.2l0.2,0l0,0.2L105.1,55.8z M105.1,54.9l0-0.2l0.2,0l0,0.2L105.1,54.9z"/>
			<path class="st40" d="M105.6,55c0-0.2,0-0.3,0.1-0.5c0-0.1,0.1-0.2,0.2-0.3c0.1-0.1,0.2-0.1,0.3-0.1c0.1,0,0.2,0,0.2,0
				c0.1,0,0.1,0.1,0.2,0.1c0,0.1,0.1,0.1,0.1,0.2c0,0.1,0,0.2,0,0.4c0,0.2,0,0.3-0.1,0.5c0,0.1-0.1,0.2-0.2,0.3s-0.2,0.1-0.3,0.1
				c-0.2,0-0.3,0-0.4-0.2C105.6,55.5,105.6,55.3,105.6,55z M105.8,55c0,0.3,0,0.4,0.1,0.5c0.1,0.1,0.1,0.1,0.2,0.1
				c0.1,0,0.2-0.1,0.2-0.1c0.1-0.1,0.1-0.3,0.1-0.5c0-0.3,0-0.4-0.1-0.5c-0.1-0.1-0.1-0.1-0.2-0.1c-0.1,0-0.2,0-0.2,0.1
				C105.9,54.5,105.8,54.7,105.8,55z"/>
			<path class="st40" d="M107.2,54.8c-0.1,0-0.1-0.1-0.2-0.1c0-0.1-0.1-0.1,0-0.2c0-0.1,0.1-0.2,0.1-0.3c0.1-0.1,0.2-0.1,0.3-0.1
				c0.1,0,0.3,0,0.3,0.1c0.1,0.1,0.1,0.2,0.1,0.3c0,0.1,0,0.1-0.1,0.2c0,0.1-0.1,0.1-0.2,0.1c0.1,0,0.2,0.1,0.2,0.1
				c0,0.1,0.1,0.2,0.1,0.3c0,0.1-0.1,0.3-0.2,0.4c-0.1,0.1-0.2,0.2-0.4,0.2c-0.2,0-0.3,0-0.4-0.1c-0.1-0.1-0.1-0.2-0.1-0.3
				c0-0.1,0-0.2,0.1-0.3C107,54.9,107.1,54.9,107.2,54.8z M107.1,55.3c0,0.1,0,0.1,0,0.2c0,0.1,0.1,0.1,0.1,0.1c0.1,0,0.1,0,0.2,0
				c0.1,0,0.2,0,0.2-0.1c0.1-0.1,0.1-0.1,0.1-0.2c0-0.1,0-0.2-0.1-0.2c-0.1-0.1-0.1-0.1-0.2-0.1c-0.1,0-0.2,0-0.2,0.1
				C107.1,55.1,107.1,55.2,107.1,55.3z M107.2,54.5c0,0.1,0,0.1,0.1,0.2c0,0,0.1,0.1,0.2,0.1c0.1,0,0.1,0,0.2-0.1
				c0.1-0.1,0.1-0.1,0.1-0.2c0-0.1,0-0.1-0.1-0.2c0,0-0.1-0.1-0.2-0.1c-0.1,0-0.1,0-0.2,0.1C107.2,54.4,107.2,54.4,107.2,54.5z"/>
		</g>
		<polygon class="st24" points="108.8,51.9 103,52.1 103.3,50.3 109,50.1 		"/>
		<g class="st39">
			<path class="st41" d="M104.7,50.5l0.2,0c0.1,0,0.1,0,0.1,0c0,0,0,0,0.1,0c0,0,0,0,0,0.1c0,0,0,0,0,0.1c0,0,0,0-0.1,0.1
				c0,0,0,0,0.1,0c0,0,0,0.1,0,0.1c0,0.1,0,0.1-0.1,0.1c0,0-0.1,0-0.2,0l-0.3,0L104.7,50.5z M104.8,51l0.1,0c0.1,0,0.1,0,0.1,0
				c0,0,0,0,0-0.1c0,0,0,0,0,0c0,0,0,0,0,0c0,0,0,0-0.1,0l-0.1,0L104.8,51z M104.8,50.7l0.1,0c0,0,0.1,0,0.1,0c0,0,0,0,0,0
				c0,0,0,0,0,0c0,0,0,0,0-0.1c0,0-0.1,0-0.1,0l-0.1,0L104.8,50.7z"/>
			<path class="st41" d="M105.2,51l0.2-0.3l-0.1-0.3l0.1,0l0.1,0.1c0,0,0,0,0,0.1c0,0,0,0,0.1-0.1l0.1-0.1l0.1,0l-0.2,0.3l0.2,0.3
				l-0.1,0l-0.1-0.2l0,0l-0.2,0.2L105.2,51z"/>
			<path class="st41" d="M105.8,50.7c0-0.1,0.1-0.2,0.1-0.2c0.1,0,0.1-0.1,0.2-0.1c0.1,0,0.1,0,0.2,0.1c0,0,0.1,0.1,0,0.2
				c0,0.1,0,0.1-0.1,0.2c0,0-0.1,0.1-0.1,0.1c0,0-0.1,0-0.1,0c-0.1,0-0.1,0-0.2-0.1C105.8,50.9,105.7,50.8,105.8,50.7z M105.9,50.7
				c0,0.1,0,0.1,0,0.2c0,0,0.1,0.1,0.1,0s0.1,0,0.1-0.1c0,0,0.1-0.1,0.1-0.2c0-0.1,0-0.1,0-0.2c0,0-0.1-0.1-0.1,0c0,0-0.1,0-0.1,0.1
				C105.9,50.6,105.9,50.7,105.9,50.7z"/>
			<path class="st41" d="M106.5,50.4l0.4,0l-0.1,0.5l0.1,0l0,0.2l-0.1,0l0-0.2l-0.4,0l0,0.2l-0.1,0l0-0.2l0,0
				C106.4,50.8,106.4,50.7,106.5,50.4z M106.5,50.5c0,0.2-0.1,0.3-0.1,0.4l0.3,0l0.1-0.4L106.5,50.5z"/>
			<path class="st41" d="M107.4,50.2l0.7,0.4l-0.8,0.4L107.4,50.2z"/>
		</g>
		<polygon class="st24" points="105.5,60 98.4,60.6 98.6,59.4 105.7,58.8 		"/>
		<g class="st39">
			<path class="st41" d="M99.5,59.3l-0.1,0.8l-0.7-0.3L99.5,59.3z"/>
			<path class="st41" d="M100,59.5l0.2,0c0.1,0,0.1,0,0.1,0c0,0,0,0,0.1,0c0,0,0,0,0,0.1c0,0,0,0,0,0.1c0,0,0,0-0.1,0.1
				c0,0,0,0,0.1,0s0,0.1,0,0.1c0,0.1,0,0.1-0.1,0.1c0,0-0.1,0-0.2,0l-0.3,0L100,59.5z M100,59.9l0.1,0c0.1,0,0.1,0,0.1,0
				c0,0,0,0,0-0.1c0,0,0,0,0,0s0,0,0,0s0,0-0.1,0l-0.1,0L100,59.9z M100,59.7l0.1,0c0,0,0.1,0,0.1,0c0,0,0,0,0,0c0,0,0,0,0,0
				c0,0,0,0,0-0.1c0,0-0.1,0-0.1,0l-0.1,0L100,59.7z"/>
			<path class="st41" d="M100.6,59.4L100.6,59.4l0.1,0.2l0.1,0c0.1,0,0.1,0,0.2,0c0,0,0.1,0.1,0,0.1c0,0,0,0.1-0.1,0.1
				c0,0-0.1,0.1-0.2,0.1l-0.2,0L100.6,59.4z M100.6,59.9L100.6,59.9c0.2,0,0.2,0,0.2,0c0,0,0,0,0-0.1c0,0,0,0,0-0.1c0,0-0.1,0-0.1,0
				l-0.1,0L100.6,59.9z M101.1,59.4L101.1,59.4l0,0.5l-0.1,0L101.1,59.4z"/>
			<path class="st41" d="M101.2,59.9l0.2-0.3l-0.2-0.2l0.1,0l0.1,0.1c0,0,0,0,0,0.1c0,0,0,0,0.1-0.1l0.1-0.1l0.1,0l-0.2,0.3l0.2,0.3
				l-0.1,0l-0.1-0.2l0,0l-0.2,0.2L101.2,59.9z"/>
			<path class="st41" d="M101.8,59.6c0-0.1,0.1-0.2,0.1-0.2c0.1,0,0.1-0.1,0.2-0.1c0.1,0,0.1,0,0.2,0.1c0,0,0.1,0.1,0,0.2
				c0,0.1,0,0.1-0.1,0.2c0,0-0.1,0.1-0.1,0.1c0,0-0.1,0-0.1,0c-0.1,0-0.1,0-0.2-0.1C101.8,59.8,101.8,59.7,101.8,59.6z M101.9,59.6
				c0,0.1,0,0.1,0,0.2c0,0,0.1,0,0.1,0s0.1,0,0.1-0.1c0,0,0.1-0.1,0.1-0.2c0-0.1,0-0.1,0-0.2s-0.1,0-0.1,0c0,0-0.1,0-0.1,0.1
				C101.9,59.5,101.9,59.5,101.9,59.6z"/>
			<path class="st41" d="M102.5,59.3l0.4,0l-0.1,0.5l0.1,0l0,0.2l-0.1,0l0-0.2l-0.4,0l0,0.2l-0.1,0l0-0.2l0.1,0
				C102.4,59.6,102.5,59.5,102.5,59.3z M102.6,59.3c0,0.2-0.1,0.3-0.1,0.4l0.3,0l0-0.4L102.6,59.3z"/>
		</g>
	</g>
</g>
<g class="st39">
	<path class="st42" d="M80.5,78.2v5.6h-0.4v-5.6h-1.6v-0.4H82v0.4H80.5z"/>
</g>
<g class="st39">
	<path class="st42" d="M82.4,82c0,0.9,0.7,1.5,1.5,1.5c0.6,0,1-0.4,1.3-0.8l0.3,0.2c-0.2,0.4-0.7,1-1.6,1c-1.1,0-1.8-0.8-1.8-1.9
		c0-1.3,0.9-1.9,1.8-1.9c1,0,1.7,0.8,1.7,2H82.4z M85.2,81.7c-0.1-0.7-0.6-1.3-1.4-1.3c-0.7,0-1.3,0.6-1.4,1.3H85.2z"/>
	<path class="st42" d="M87,85.9h-0.4v-5.7H87v0.6c0.4-0.5,0.9-0.7,1.4-0.7c1.1,0,1.8,0.8,1.8,1.9c0,1.1-0.7,2-1.8,2
		c-0.9,0-1.3-0.6-1.4-0.8V85.9z M89.8,82c0-1-0.7-1.5-1.4-1.5c-0.7,0-1.4,0.5-1.4,1.5c0,0.9,0.5,1.6,1.4,1.6S89.8,82.9,89.8,82z"/>
	<path class="st42" d="M91.7,79.9l1.5,3.3l1.5-3.3l0.9,3.9h-0.4l-0.6-2.9L93.1,84l-1.4-3.1l-0.6,2.9h-0.4L91.7,79.9z"/>
	<path class="st42" d="M96.7,80.1v2.9l2.6-3.2v3.9h-0.4v-2.9L96.3,84v-3.9H96.7z"/>
	<path class="st42" d="M100.6,80.1h0.4v1.6h2.1v-1.6h0.4v3.7H103v-1.7H101v1.7h-0.4V80.1z"/>
	<path class="st42" d="M107.7,80.1h0.4v3.7h-0.4v-0.7c-0.4,0.6-1,0.8-1.4,0.8c-1,0-1.8-0.7-1.8-1.9c0-1.1,0.7-1.9,1.8-1.9
		c0.6,0,1.1,0.2,1.4,0.7V80.1z M104.8,82c0,0.8,0.5,1.6,1.4,1.6c0.9,0,1.4-0.8,1.4-1.6c0-1.1-0.8-1.5-1.4-1.5
		C105.5,80.4,104.8,81,104.8,82z"/>
	<path class="st42" d="M111.9,83.8h-0.4v-3.3h-1.7v2.1c0,0.2,0,0.6-0.2,0.9c-0.1,0.2-0.4,0.3-0.7,0.3c-0.1,0-0.1,0-0.2,0v-0.3
		c0,0,0.1,0,0.1,0c0.2,0,0.4-0.1,0.5-0.2c0.1-0.2,0.1-0.4,0.1-0.6v-2.5h2.4V83.8z"/>
	<path class="st42" d="M116.5,83.9l-1.7-3.7h0.4l1.5,3.3l1.3-3.3h0.4l-2.4,5.7h-0.4L116.5,83.9z"/>
	<path class="st42" d="M121.2,82.3c-0.3,0-0.7,0.1-1,0.1c-0.2,0-0.6,0-0.9-0.2c-0.3-0.2-0.3-0.7-0.3-0.9v-1.1h0.4v1.1
		c0,0.3,0,0.5,0.2,0.7c0.1,0.1,0.3,0.1,0.5,0.1c0.3,0,0.8-0.1,1-0.1v-1.8h0.4v3.7h-0.4V82.3z"/>
	<path class="st42" d="M123,82c0,0.9,0.7,1.5,1.5,1.5c0.6,0,1-0.4,1.3-0.8l0.3,0.2c-0.2,0.4-0.7,1-1.6,1c-1.1,0-1.8-0.8-1.8-1.9
		c0-1.3,0.9-1.9,1.8-1.9c1,0,1.7,0.8,1.7,2H123z M125.8,81.7c-0.1-0.7-0.6-1.3-1.4-1.3c-0.7,0-1.3,0.6-1.4,1.3H125.8z"/>
</g>
<g class="st39">
	<path class="st42" d="M128,80.5h-1.3v-0.3h2.9v0.3h-1.3v3.3H128V80.5z"/>
</g>
<g class="st39">
	<path class="st42" d="M133,80.1h0.4v3.7H133v-0.7c-0.4,0.6-1,0.8-1.4,0.8c-1,0-1.8-0.7-1.8-1.9c0-1.1,0.7-1.9,1.8-1.9
		c0.6,0,1.1,0.2,1.4,0.7V80.1z M130.2,82c0,0.8,0.5,1.6,1.4,1.6c0.9,0,1.4-0.8,1.4-1.6c0-1.1-0.8-1.5-1.4-1.5
		C130.9,80.4,130.2,81,130.2,82z"/>
</g>
<g class="st39">
	<path class="st42" d="M79.4,96.7H79v-5.7h0.4v0.6c0.4-0.5,0.9-0.7,1.4-0.7c1.1,0,1.8,0.8,1.8,1.9c0,1.1-0.7,2-1.8,2
		c-0.9,0-1.3-0.6-1.4-0.8V96.7z M82.3,92.8c0-1-0.7-1.5-1.4-1.5c-0.7,0-1.4,0.5-1.4,1.5c0,0.9,0.5,1.6,1.4,1.6S82.3,93.7,82.3,92.8z
		"/>
	<path class="st42" d="M86.7,90.9H87v3.7h-0.4V94c-0.4,0.6-1,0.8-1.4,0.8c-1,0-1.8-0.7-1.8-1.9c0-1.1,0.7-1.9,1.8-1.9
		c0.6,0,1.1,0.2,1.4,0.7V90.9z M83.8,92.8c0,0.8,0.5,1.6,1.4,1.6c0.9,0,1.4-0.8,1.4-1.6c0-1.1-0.8-1.5-1.4-1.5
		C84.5,91.2,83.8,91.8,83.8,92.8z"/>
	<path class="st42" d="M88.5,91.8c0.3-0.7,1-1,1.6-1c1.1,0,1.9,0.8,1.9,1.9c0,1.2-0.9,1.9-1.9,1.9c-0.6,0-1-0.2-1.3-0.5
		c-0.6-0.6-0.6-1.5-0.6-2c0-0.8,0.1-2.3,1.2-3c0.4-0.3,1-0.4,1.4-0.5c0.5-0.1,0.7-0.3,0.8-0.5h0.4c-0.3,0.6-0.9,0.8-1.3,0.9
		c-0.4,0.1-0.9,0.2-1.3,0.5C88.7,90.2,88.5,91.1,88.5,91.8L88.5,91.8z M91.6,92.8c0-0.8-0.5-1.6-1.5-1.6c-1,0-1.6,0.8-1.6,1.6
		c0,0.4,0.1,0.8,0.4,1.1c0.4,0.5,0.8,0.5,1.2,0.5C91.1,94.4,91.6,93.5,91.6,92.8z"/>
</g>
<g class="st39">
	<path class="st42" d="M96.7,92.8c0,1.1-0.8,1.9-1.9,1.9s-1.9-0.8-1.9-1.9c0-1.1,0.8-1.9,1.9-1.9S96.7,91.7,96.7,92.8z M96.3,92.8
		c0-0.9-0.7-1.6-1.5-1.6s-1.5,0.7-1.5,1.6c0,0.9,0.7,1.6,1.5,1.6S96.3,93.7,96.3,92.8z"/>
</g>
<g class="st39">
	<path class="st42" d="M99.7,93.1c-0.3,0-0.7,0.1-1,0.1c-0.2,0-0.6,0-0.9-0.2c-0.3-0.2-0.3-0.7-0.3-0.9v-1.1h0.4V92
		c0,0.3,0,0.5,0.2,0.7c0.1,0.1,0.3,0.1,0.5,0.1c0.3,0,0.8-0.1,1-0.1v-1.8h0.4v3.7h-0.4V93.1z"/>
	<path class="st42" d="M101.5,92.8c0,0.9,0.7,1.5,1.5,1.5c0.6,0,1-0.4,1.3-0.8l0.3,0.2c-0.2,0.4-0.7,1-1.6,1c-1.1,0-1.8-0.8-1.8-1.9
		c0-1.3,0.9-1.9,1.8-1.9c1,0,1.7,0.8,1.7,2H101.5z M104.3,92.5c-0.1-0.7-0.6-1.3-1.4-1.3c-0.7,0-1.3,0.6-1.4,1.3H104.3z"/>
</g>
<g class="st39">
	<path class="st42" d="M105.6,90.9h2v0.3H106v3.3h-0.4V90.9z"/>
</g>
<g class="st39">
	<path class="st42" d="M111.7,92.8c0,1.1-0.8,1.9-1.9,1.9s-1.9-0.8-1.9-1.9c0-1.1,0.8-1.9,1.9-1.9S111.7,91.7,111.7,92.8z
		 M111.3,92.8c0-0.9-0.7-1.6-1.5-1.6s-1.5,0.7-1.5,1.6c0,0.9,0.7,1.6,1.5,1.6S111.3,93.7,111.3,92.8z"/>
	<path class="st42" d="M116,90.9c0.2,0,0.5,0,0.8,0.2c0.1,0.1,0.3,0.3,0.3,0.7c0,0.3-0.1,0.6-0.4,0.8c0.1,0,0.3,0.1,0.5,0.2
		c0.2,0.1,0.3,0.4,0.3,0.7c0,0.4-0.2,0.7-0.4,0.8c-0.3,0.2-0.7,0.3-0.9,0.3h-1.4v-3.7H116z M116,92.5c0.1,0,0.3,0,0.5-0.2
		c0.1-0.1,0.2-0.2,0.2-0.5c0-0.2-0.1-0.4-0.2-0.5c-0.2-0.1-0.4-0.1-0.5-0.1h-0.8v1.3H116z M116.2,94.3c0.1,0,0.4,0,0.6-0.2
		c0.1-0.1,0.3-0.3,0.3-0.5c0-0.2-0.1-0.4-0.2-0.5c-0.2-0.1-0.4-0.2-0.6-0.2h-1v1.4H116.2z"/>
	<path class="st42" d="M118.9,96.7h-0.4v-5.7h0.4v0.6c0.4-0.5,0.9-0.7,1.4-0.7c1.1,0,1.8,0.8,1.8,1.9c0,1.1-0.7,2-1.8,2
		c-0.9,0-1.3-0.6-1.4-0.8V96.7z M121.8,92.8c0-1-0.7-1.5-1.4-1.5c-0.7,0-1.4,0.5-1.4,1.5c0,0.9,0.5,1.6,1.4,1.6
		S121.8,93.7,121.8,92.8z"/>
	<path class="st42" d="M123.3,92.8c0,0.9,0.7,1.5,1.5,1.5c0.6,0,1-0.4,1.3-0.8l0.3,0.2c-0.2,0.4-0.7,1-1.6,1c-1.1,0-1.8-0.8-1.8-1.9
		c0-1.3,0.9-1.9,1.8-1.9c1,0,1.7,0.8,1.7,2H123.3z M126.1,92.5c-0.1-0.7-0.6-1.3-1.4-1.3c-0.7,0-1.3,0.6-1.4,1.3H126.1z"/>
	<path class="st42" d="M128,90.7l1.5,3.3l1.5-3.3l0.9,3.9h-0.4l-0.6-2.9l-1.4,3.1l-1.4-3.1l-0.6,2.9h-0.4L128,90.7z"/>
	<path class="st42" d="M132.8,92.8c0,0.9,0.7,1.5,1.5,1.5c0.6,0,1-0.4,1.3-0.8l0.3,0.2c-0.2,0.4-0.7,1-1.6,1c-1.1,0-1.8-0.8-1.8-1.9
		c0-1.3,0.9-1.9,1.8-1.9c1,0,1.7,0.8,1.7,2H132.8z M135.5,92.5c-0.1-0.7-0.6-1.3-1.4-1.3c-0.7,0-1.3,0.6-1.4,1.3H135.5z"/>
	<path class="st42" d="M137,90.9h0.4v1.6h2.1v-1.6h0.4v3.7h-0.4v-1.7h-2.1v1.7H137V90.9z"/>
	<path class="st42" d="M141.4,90.9v2.9l2.6-3.2v3.9h-0.4v-2.9l-2.6,3.2v-3.9H141.4z"/>
	<path class="st42" d="M148,88.6v5.6h1.7v0.4h-2.1v-6H148z"/>
	<path class="st42" d="M151,88.6v6h-0.4v-6H151z"/>
</g>
<g class="st39">
	<path class="st42" d="M157.4,89.8c-0.5-0.6-1.3-0.9-2-0.9c-1.5,0-2.7,1.2-2.7,2.8c0,1.8,1.5,2.7,2.7,2.7c0.6,0,1.4-0.2,2-0.9V94
		c-0.6,0.5-1.4,0.7-2,0.7c-1.8,0-3.1-1.4-3.1-3.1c0-1.7,1.4-3.1,3.1-3.1c1.1,0,1.8,0.6,2,0.8V89.8z"/>
</g>
<g class="st39">
	<path class="st42" d="M164.5,91.6c0,1.7-1.4,3.1-3.1,3.1c-1.8,0-3.1-1.4-3.1-3.1s1.4-3.1,3.1-3.1C163.2,88.5,164.5,89.9,164.5,91.6
		z M164.1,91.6c0-1.5-1.2-2.7-2.7-2.7c-1.5,0-2.7,1.2-2.7,2.7c0,1.5,1.2,2.7,2.7,2.7C162.9,94.4,164.1,93.2,164.1,91.6z"/>
	<path class="st42" d="M165.8,94.6v-6.1l5,5.3v-5.2h0.4v6.2l-5-5.3v5.1H165.8z"/>
</g>
<g class="st39">
	<path class="st42" d="M52.2,70.2h1.3c1,0,1.7,0.6,1.7,1.5c0,0.6-0.3,1.1-0.7,1.3c0.8,0.1,1.2,0.7,1.2,1.5c0,1.1-0.8,1.7-1.9,1.7
		h-1.6V70.2z M52.6,72.9h1c0.3,0,0.6,0,0.8-0.3c0.2-0.2,0.4-0.5,0.4-0.9c0-0.5-0.2-0.8-0.4-0.9c-0.3-0.2-0.7-0.3-1-0.3h-0.8V72.9z
		 M52.6,75.8h1c0.4,0,0.9,0,1.3-0.4c0.3-0.3,0.4-0.6,0.4-0.9c0-0.5-0.2-0.9-0.6-1.1c-0.2-0.1-0.5-0.2-1.1-0.2h-0.9V75.8z"/>
	<path class="st42" d="M57.2,72.5V74h0.9c0.3,0,0.7,0,0.9,0.3c0.2,0.2,0.3,0.5,0.3,0.7c0,0.3-0.1,0.6-0.3,0.8
		c-0.3,0.3-0.6,0.3-0.9,0.3h-1.2v-3.7H57.2z M58.1,75.8c0.2,0,0.4,0,0.6-0.2c0.1-0.1,0.3-0.3,0.3-0.6c0-0.3-0.1-0.5-0.3-0.6
		c-0.2-0.1-0.4-0.2-0.6-0.2h-0.8v1.5H58.1z M60,72.5v3.7h-0.4v-3.7H60z"/>
	<path class="st42" d="M62.2,74.3l-1.4-1.7h0.4l1.2,1.5l1.1-1.5h0.4l-1.3,1.7l1.5,1.9h-0.4l-1.3-1.7l-1.3,1.7h-0.4L62.2,74.3z"/>
	<path class="st42" d="M68.5,74.4c0,1.1-0.8,1.9-1.9,1.9s-1.9-0.8-1.9-1.9c0-1.1,0.8-1.9,1.9-1.9S68.5,73.3,68.5,74.4z M68.2,74.4
		c0-0.9-0.7-1.6-1.5-1.6s-1.5,0.7-1.5,1.6c0,0.9,0.7,1.6,1.5,1.6S68.2,75.2,68.2,74.4z"/>
	<path class="st42" d="M72.3,72.5v3.3h0.5v1.3h-0.3v-1h-3.1v1H69v-1.3c0.3,0,0.6-0.3,0.7-0.5c0.1-0.3,0.2-0.6,0.2-1v-1.9H72.3z
		 M71.9,72.8h-1.7v1.6c0,0.8-0.2,1.2-0.5,1.4h2.2V72.8z"/>
</g>
<g class="st39">
	<path class="st42" d="M135.3,36.3h1.3c1,0,1.7,0.6,1.7,1.5c0,0.6-0.3,1.1-0.7,1.3c0.8,0.1,1.2,0.7,1.2,1.5c0,1.1-0.8,1.7-1.9,1.7
		h-1.6V36.3z M135.7,39h1c0.3,0,0.6,0,0.8-0.3c0.2-0.2,0.4-0.5,0.4-0.9c0-0.5-0.2-0.8-0.4-0.9c-0.3-0.2-0.7-0.3-1-0.3h-0.8V39z
		 M135.7,42h1c0.4,0,0.9,0,1.3-0.4c0.3-0.3,0.4-0.6,0.4-0.9c0-0.5-0.2-0.9-0.6-1.1c-0.2-0.1-0.5-0.2-1.1-0.2h-0.9V42z"/>
	<path class="st42" d="M140.8,40.4l-1.4-1.7h0.4l1.2,1.5l1.1-1.5h0.4l-1.3,1.7l1.5,1.9h-0.4l-1.3-1.7l-1.3,1.7h-0.4L140.8,40.4z"/>
	<path class="st42" d="M147.1,40.5c0,1.1-0.8,1.9-1.9,1.9s-1.9-0.8-1.9-1.9c0-1.1,0.8-1.9,1.9-1.9S147.1,39.4,147.1,40.5z
		 M146.8,40.5c0-0.9-0.7-1.6-1.5-1.6s-1.5,0.7-1.5,1.6c0,0.9,0.7,1.6,1.5,1.6S146.8,41.4,146.8,40.5z"/>
	<path class="st42" d="M150.9,38.6V42h0.5v1.3h-0.3v-1H148v1h-0.3V42c0.3,0,0.6-0.3,0.7-0.5c0.1-0.3,0.2-0.6,0.2-1v-1.9H150.9z
		 M150.5,39h-1.7v1.6c0,0.8-0.2,1.2-0.5,1.4h2.2V39z"/>
</g>
<g class="st39">
	<path class="st42" d="M236.7,88.1v6h-0.4v-5.6h-3.6v5.6h-0.4v-6H236.7z"/>
	<path class="st42" d="M244.2,91.1c0,1.7-1.4,3.1-3.1,3.1c-1.8,0-3.1-1.4-3.1-3.1s1.4-3.1,3.1-3.1C242.9,88,244.2,89.4,244.2,91.1z
		 M243.8,91.1c0-1.5-1.2-2.7-2.7-2.7c-1.5,0-2.7,1.2-2.7,2.7c0,1.5,1.2,2.7,2.7,2.7C242.6,93.9,243.8,92.7,243.8,91.1z"/>
</g>
<g class="st39">
	<path class="st42" d="M148.2,2.3h-3v2.7h3v0.4h-3v3.4h3v0.4h-3.5V1.8h3.5V2.3z"/>
	<path class="st42" d="M150,5.1v4.1h-0.4V5.1h-0.5V4.7h0.5V3.1h0.4v1.6h0.8v0.4H150z"/>
</g>
<g class="st39">
	<path class="st42" d="M151.7,1.1h0.4v4.2c0.2-0.4,0.6-0.8,1.4-0.8c0.8,0,1.1,0.5,1.2,0.6c0.2,0.3,0.2,0.7,0.2,1.1v2.8h-0.4V6.3
		c0-0.3,0-0.6-0.2-0.9C154.2,5.3,154,5,153.4,5c-0.6,0-0.9,0.3-1.1,0.6c-0.2,0.4-0.2,0.8-0.2,1.2v2.3h-0.4V1.1z"/>
</g>
<g class="st39">
	<path class="st42" d="M156.4,7c0,1.1,0.8,1.9,1.8,1.9c0.7,0,1.3-0.4,1.6-1l0.4,0.2c-0.3,0.5-0.9,1.2-2,1.2c-1.4,0-2.2-1-2.2-2.3
		c0-1.6,1.1-2.4,2.2-2.4c1.2,0,2.1,1,2.1,2.4H156.4z M159.8,6.6C159.7,5.7,159,5,158.1,5c-0.9,0-1.6,0.7-1.7,1.6H159.8z"/>
	<path class="st42" d="M161.6,4.7h0.4v0.6c0.2-0.4,0.5-0.7,1-0.7c0.1,0,0.3,0,0.5,0.1l-0.2,0.4c0,0-0.1-0.1-0.3-0.1
		C162,5,162,6.2,162,6.8v2.4h-0.4V4.7z"/>
	<path class="st42" d="M164.4,4.7h0.4v0.7c0.2-0.4,0.6-0.8,1.4-0.8c0.8,0,1.1,0.5,1.2,0.6c0.2,0.3,0.2,0.7,0.2,1.1v2.8h-0.4V6.3
		c0-0.3,0-0.6-0.2-0.9C167,5.3,166.7,5,166.2,5c-0.6,0-0.9,0.3-1.1,0.6c-0.2,0.4-0.2,0.8-0.2,1.2v2.3h-0.4V4.7z"/>
	<path class="st42" d="M169.5,7c0,1.1,0.8,1.9,1.8,1.9c0.7,0,1.3-0.4,1.6-1l0.4,0.2c-0.3,0.5-0.9,1.2-2,1.2c-1.4,0-2.2-1-2.2-2.3
		c0-1.6,1.1-2.4,2.2-2.4c1.2,0,2.1,1,2.1,2.4H169.5z M172.8,6.6c-0.1-0.9-0.8-1.6-1.7-1.6c-0.9,0-1.6,0.7-1.7,1.6H172.8z"/>
	<path class="st42" d="M175.1,5.1v4.1h-0.4V5.1h-0.5V4.7h0.5V3.1h0.4v1.6h0.8v0.4H175.1z"/>
</g>
</svg>
