<?xml version="1.0" encoding="utf-8"?>
<!-- Generator: Adobe Illustrator 23.0.3, SVG Export Plug-In . SVG Version: 6.00 Build 0)  -->
<svg version="1.1" id="Слой_1" xmlns="http://www.w3.org/2000/svg" xmlns:xlink="http://www.w3.org/1999/xlink" x="0px" y="0px"
	 viewBox="0 0 153 91.7" style="enable-background:new 0 0 153 91.7;" xml:space="preserve">
<style type="text/css">
	.st0{fill:none;stroke:url(#SVGID_1_);stroke-miterlimit:10;}
	.st1{fill:url(#SVGID_2_);}
	.st2{fill:none;stroke:url(#SVGID_3_);stroke-miterlimit:10;}
	.st3{fill:url(#SVGID_4_);}
	.st4{fill:url(#SVGID_5_);stroke:#FFFFFF;stroke-width:0.5;stroke-miterlimit:10;}
	.st5{fill:url(#SVGID_6_);stroke:#FFFFFF;stroke-width:0.5;stroke-miterlimit:10;}
	.st6{fill:url(#SVGID_7_);stroke:#FFFFFF;stroke-width:0.5;stroke-miterlimit:10;}
	.st7{fill:url(#SVGID_8_);stroke:#FFFFFF;stroke-width:0.5;stroke-miterlimit:10;}
	.st8{fill:url(#SVGID_9_);}
	.st9{fill:#FFFFFF;}
</style>
<linearGradient id="SVGID_1_" gradientUnits="userSpaceOnUse" x1="53.1735" y1="40.2681" x2="104.362" y2="51.0114">
	<stop  offset="0" style="stop-color:#12397F"/>
	<stop  offset="0.713" style="stop-color:#3A71CE"/>
	<stop  offset="1" style="stop-color:#3A71CE"/>
</linearGradient>
<rect x="59.6" y="12.4" class="st0" width="38.3" height="66.4"/>
<linearGradient id="SVGID_2_" gradientUnits="userSpaceOnUse" x1="1.3369" y1="79.1238" x2="151.8475" y2="79.1238">
	<stop  offset="0" style="stop-color:#12397F"/>
	<stop  offset="0.713" style="stop-color:#3A71CE"/>
	<stop  offset="1" style="stop-color:#3A71CE"/>
</linearGradient>
<rect x="1.3" y="78.4" class="st1" width="150.5" height="1.5"/>
<linearGradient id="SVGID_3_" gradientUnits="userSpaceOnUse" x1="55.1552" y1="41.7372" x2="102.3803" y2="51.6487">
	<stop  offset="0" style="stop-color:#12397F"/>
	<stop  offset="0.713" style="stop-color:#3A71CE"/>
	<stop  offset="1" style="stop-color:#3A71CE"/>
</linearGradient>
<rect x="61.5" y="14.2" class="st2" width="34.5" height="64.9"/>
<g>
	
		<linearGradient id="SVGID_4_" gradientUnits="userSpaceOnUse" x1="61.0408" y1="40.7413" x2="91.1542" y2="40.7413" gradientTransform="matrix(1 0.2099 0 1 0 -7.3361)">
		<stop  offset="0" style="stop-color:#12397F"/>
		<stop  offset="0.713" style="stop-color:#3A71CE"/>
		<stop  offset="1" style="stop-color:#3A71CE"/>
	</linearGradient>
	<polygon class="st3" points="91.2,20.4 61,14.1 61,78.4 91.2,84.7 	"/>
	
		<linearGradient id="SVGID_5_" gradientUnits="userSpaceOnUse" x1="63.2229" y1="41.6717" x2="88.9721" y2="41.6717" gradientTransform="matrix(1 0.2099 0 1 0 -7.3361)">
		<stop  offset="0" style="stop-color:#12397F"/>
		<stop  offset="0.713" style="stop-color:#3A71CE"/>
		<stop  offset="1" style="stop-color:#3A71CE"/>
	</linearGradient>
	<polygon class="st4" points="89,22.4 63.2,17 63.2,78.2 89,83.6 	"/>
	
		<linearGradient id="SVGID_6_" gradientUnits="userSpaceOnUse" x1="65.89" y1="26.8181" x2="86.208" y2="26.8181" gradientTransform="matrix(1 0.2099 0 1 0 -7.3361)">
		<stop  offset="0" style="stop-color:#12397F"/>
		<stop  offset="0.713" style="stop-color:#3A71CE"/>
		<stop  offset="1" style="stop-color:#3A71CE"/>
	</linearGradient>
	<polygon class="st5" points="86.2,24.2 65.9,19.9 65.9,46.7 86.2,51 	"/>
	
		<linearGradient id="SVGID_7_" gradientUnits="userSpaceOnUse" x1="65.89" y1="56.1374" x2="86.208" y2="56.1374" gradientTransform="matrix(1 0.2099 0 1 0 -7.3361)">
		<stop  offset="0" style="stop-color:#12397F"/>
		<stop  offset="0.713" style="stop-color:#3A71CE"/>
		<stop  offset="1" style="stop-color:#3A71CE"/>
	</linearGradient>
	<polygon class="st6" points="86.2,53.5 65.9,49.2 65.9,76 86.2,80.3 	"/>
	
		<linearGradient id="SVGID_8_" gradientUnits="userSpaceOnUse" x1="87.19" y1="41.5642" x2="88.0628" y2="41.5642" gradientTransform="matrix(1 0.2099 0 1 0 -7.3361)">
		<stop  offset="0" style="stop-color:#12397F"/>
		<stop  offset="0.713" style="stop-color:#3A71CE"/>
		<stop  offset="1" style="stop-color:#3A71CE"/>
	</linearGradient>
	<path class="st7" d="M88.1,52.7c0,1.5-0.2,2.6-0.4,2.5c-0.2-0.1-0.4-1.3-0.4-2.7c0-1.5,0.2-2.6,0.4-2.5
		C87.9,50,88.1,51.3,88.1,52.7z"/>
</g>
<linearGradient id="SVGID_9_" gradientUnits="userSpaceOnUse" x1="98.961" y1="37.8976" x2="105.3741" y2="39.2436">
	<stop  offset="0" style="stop-color:#12397F"/>
	<stop  offset="0.713" style="stop-color:#3A71CE"/>
	<stop  offset="1" style="stop-color:#3A71CE"/>
</linearGradient>
<rect x="100" y="32.9" class="st8" width="4.3" height="11.3"/>
<circle class="st9" cx="102.2" cy="35" r="0.7"/>
<circle class="st9" cx="102.2" cy="37.1" r="0.7"/>
<circle class="st9" cx="102.2" cy="39.3" r="0.7"/>
</svg>
