<?xml version="1.0" encoding="utf-8"?>
<!-- Generator: Adobe Illustrator 23.0.3, SVG Export Plug-In . SVG Version: 6.00 Build 0)  -->
<svg version="1.1" id="Слой_1" xmlns="http://www.w3.org/2000/svg" xmlns:xlink="http://www.w3.org/1999/xlink" x="0px" y="0px"
	 viewBox="0 0 153 91.7" style="enable-background:new 0 0 153 91.7;" xml:space="preserve">
<style type="text/css">
	.st0{fill:url(#SVGID_1_);}
	.st1{fill:url(#SVGID_2_);}
	.st2{fill:#143B82;}
	.st3{fill:url(#SVGID_3_);}
	.st4{fill:url(#SVGID_4_);}
	.st5{fill:url(#SVGID_5_);}
	.st6{fill:url(#SVGID_6_);}
	.st7{fill:url(#SVGID_7_);}
	.st8{fill:url(#SVGID_8_);}
	.st9{fill:none;stroke:url(#SVGID_9_);stroke-width:0.5;stroke-miterlimit:10;}
	.st10{fill:none;stroke:url(#SVGID_10_);stroke-width:0.5;stroke-miterlimit:10;}
	.st11{fill:url(#SVGID_11_);}
	.st12{fill:url(#SVGID_12_);}
	.st13{fill:url(#SVGID_13_);}
	.st14{fill:url(#SVGID_14_);}
	.st15{fill:url(#SVGID_15_);}
	.st16{fill:url(#SVGID_16_);}
	.st17{fill:url(#SVGID_17_);}
	.st18{fill:url(#SVGID_18_);}
	.st19{fill:url(#SVGID_19_);}
	.st20{fill:url(#SVGID_20_);}
	.st21{fill:none;stroke:url(#SVGID_21_);stroke-width:0.5;stroke-miterlimit:10;}
	.st22{fill:none;stroke:url(#SVGID_22_);stroke-width:0.5;stroke-miterlimit:10;}
	.st23{fill:url(#SVGID_23_);}
</style>
<linearGradient id="SVGID_1_" gradientUnits="userSpaceOnUse" x1="3193.6826" y1="54.9616" x2="3189.8655" y2="54.9198" gradientTransform="matrix(-1 0 0 1 3242.5957 0)">
	<stop  offset="0" style="stop-color:#12397F"/>
	<stop  offset="0.713" style="stop-color:#3A71CE"/>
	<stop  offset="1" style="stop-color:#3A71CE"/>
</linearGradient>
<rect x="49.1" y="40.8" class="st0" width="3.5" height="28.2"/>
<linearGradient id="SVGID_2_" gradientUnits="userSpaceOnUse" x1="72.8644" y1="61.196" x2="77.5973" y2="61.196">
	<stop  offset="0" style="stop-color:#12397F"/>
	<stop  offset="0.713" style="stop-color:#3A71CE"/>
	<stop  offset="1" style="stop-color:#3A71CE"/>
</linearGradient>
<path class="st1" d="M76.7,76.8h-2.1c-0.4,0-0.8-0.4-0.8-0.8V45.6c0,0,0,0,0,0h2.9V76.8z"/>
<ellipse class="st2" cx="75.1" cy="45.7" rx="1.3" ry="0.5"/>
<linearGradient id="SVGID_3_" gradientUnits="userSpaceOnUse" x1="3193.2886" y1="61.2095" x2="3190.0276" y2="61.1738" gradientTransform="matrix(-1 0 0 1 3242.5957 0)">
	<stop  offset="0" style="stop-color:#12397F"/>
	<stop  offset="0.713" style="stop-color:#3A71CE"/>
	<stop  offset="1" style="stop-color:#3A71CE"/>
</linearGradient>
<path class="st3" d="M49.5,76.8h2.1c0.4,0,0.8-0.4,0.8-0.8V45.6c0,0,0,0,0,0h-2.9V76.8z"/>
<linearGradient id="SVGID_4_" gradientUnits="userSpaceOnUse" x1="3190.9121" y1="45.673" x2="3189.3267" y2="45.7114" gradientTransform="matrix(-1 0 0 1 3242.5957 0)">
	<stop  offset="0" style="stop-color:#12397F"/>
	<stop  offset="0.713" style="stop-color:#3A71CE"/>
	<stop  offset="1" style="stop-color:#3A71CE"/>
</linearGradient>
<ellipse class="st4" cx="51.1" cy="45.7" rx="1.3" ry="0.5"/>
<linearGradient id="SVGID_5_" gradientUnits="userSpaceOnUse" x1="3191.1624" y1="59.6237" x2="3195.7246" y2="59.6237" gradientTransform="matrix(-1 0 0 0.9789 3242.5957 1.931)">
	<stop  offset="0" style="stop-color:#12397F"/>
	<stop  offset="0.713" style="stop-color:#3A71CE"/>
	<stop  offset="1" style="stop-color:#3A71CE"/>
</linearGradient>
<rect x="47" y="43.8" class="st5" width="4.2" height="33"/>
<linearGradient id="SVGID_6_" gradientUnits="userSpaceOnUse" x1="-3394.0564" y1="67.9483" x2="-3399.1826" y2="67.8922" gradientTransform="matrix(0.2821 0 0 1 1005.5521 0)">
	<stop  offset="0" style="stop-color:#12397F"/>
	<stop  offset="0.713" style="stop-color:#3A71CE"/>
	<stop  offset="1" style="stop-color:#3A71CE"/>
</linearGradient>
<path class="st6" d="M47.5,86.1c-0.1,0-0.6,0.3-0.6,0.2V49.6h1.3v34.8C48.2,84.4,47.5,86.1,47.5,86.1z"/>
<linearGradient id="SVGID_7_" gradientUnits="userSpaceOnUse" x1="3199.95" y1="68.4283" x2="3194.8184" y2="68.3722" gradientTransform="matrix(-1 0 0 1 3242.5957 0)">
	<stop  offset="0" style="stop-color:#12397F"/>
	<stop  offset="0.713" style="stop-color:#3A71CE"/>
	<stop  offset="1" style="stop-color:#3A71CE"/>
</linearGradient>
<path class="st7" d="M43.5,86.4h3.4c0.4,0,0.7-0.3,0.7-0.7V50.5h-4.7v35.2C42.8,86.1,43.1,86.4,43.5,86.4z"/>
<g>
	
		<linearGradient id="SVGID_8_" gradientUnits="userSpaceOnUse" x1="3099.675" y1="60.8824" x2="3104.3198" y2="60.8824" gradientTransform="matrix(-1.0716 -1.172285e-02 -0.5137 0.9276 3403.3538 25.5414)">
		<stop  offset="0" style="stop-color:#12397F"/>
		<stop  offset="0.713" style="stop-color:#3A71CE"/>
		<stop  offset="1" style="stop-color:#3A71CE"/>
	</linearGradient>
	<path class="st8" d="M50.7,40.4h0.2c1.4,0,1.8,0.2,1.6,0.5l-4.7,9.5c-0.1,0.2-1.4,0.4-2.7,0.4h0c-1.4,0-2.4-0.2-2.3-0.5l5.9-9.5
		C48.8,40.6,49.4,40.4,50.7,40.4z"/>
</g>
<linearGradient id="SVGID_9_" gradientUnits="userSpaceOnUse" x1="63.6057" y1="51.3443" x2="73.8678" y2="51.3443">
	<stop  offset="0" style="stop-color:#12397F"/>
	<stop  offset="0.713" style="stop-color:#3A71CE"/>
	<stop  offset="1" style="stop-color:#3A71CE"/>
</linearGradient>
<path class="st9" d="M65.7,66.7h6c1,0,1.9-0.8,1.9-1.9V37.9c0-1-0.8-1.9-1.9-1.9h-6c-1,0-1.9,0.8-1.9,1.9v26.9
	C63.9,65.8,64.7,66.7,65.7,66.7z"/>
<linearGradient id="SVGID_10_" gradientUnits="userSpaceOnUse" x1="52.6607" y1="51.3443" x2="62.9228" y2="51.3443">
	<stop  offset="0" style="stop-color:#12397F"/>
	<stop  offset="0.713" style="stop-color:#3A71CE"/>
	<stop  offset="1" style="stop-color:#3A71CE"/>
</linearGradient>
<path class="st10" d="M54.8,66.7h6c1,0,1.9-0.8,1.9-1.9V37.9c0-1-0.8-1.9-1.9-1.9h-6c-1,0-1.9,0.8-1.9,1.9v26.9
	C52.9,65.8,53.8,66.7,54.8,66.7z"/>
<linearGradient id="SVGID_11_" gradientUnits="userSpaceOnUse" x1="105.9067" y1="54.9616" x2="102.0894" y2="54.9198">
	<stop  offset="0" style="stop-color:#12397F"/>
	<stop  offset="0.713" style="stop-color:#3A71CE"/>
	<stop  offset="1" style="stop-color:#3A71CE"/>
</linearGradient>
<rect x="102.2" y="40.8" class="st11" width="3.5" height="28.2"/>
<linearGradient id="SVGID_12_" gradientUnits="userSpaceOnUse" x1="3344.9922" y1="61.2095" x2="3341.731" y2="61.1738" gradientTransform="matrix(-1 0 0 1 3422.8936 0)">
	<stop  offset="0" style="stop-color:#12397F"/>
	<stop  offset="0.713" style="stop-color:#3A71CE"/>
	<stop  offset="1" style="stop-color:#3A71CE"/>
</linearGradient>
<path class="st12" d="M78.1,76.8h2.1c0.4,0,0.8-0.4,0.8-0.8V45.6c0,0,0,0,0,0h-2.9V76.8z"/>
<ellipse class="st2" cx="79.7" cy="45.7" rx="1.3" ry="0.5"/>
<linearGradient id="SVGID_13_" gradientUnits="userSpaceOnUse" x1="105.5146" y1="60.8831" x2="101.4347" y2="60.8385" gradientTransform="matrix(1 0 0 0.9894 0 0.9706)">
	<stop  offset="0.4567" style="stop-color:#12397F"/>
	<stop  offset="0.713" style="stop-color:#3A71CE"/>
	<stop  offset="1" style="stop-color:#3A71CE"/>
</linearGradient>
<path class="st13" d="M105.3,76.8h-2.1c-0.4,0-0.8-0.4-0.8-0.8V45.6c0,0,0,0,0,0h2.9V76.8z"/>
<linearGradient id="SVGID_14_" gradientUnits="userSpaceOnUse" x1="103.1361" y1="45.673" x2="101.5507" y2="45.7114">
	<stop  offset="0" style="stop-color:#12397F"/>
	<stop  offset="0.713" style="stop-color:#3A71CE"/>
	<stop  offset="1" style="stop-color:#3A71CE"/>
</linearGradient>
<ellipse class="st14" cx="103.7" cy="45.7" rx="1.3" ry="0.5"/>
<linearGradient id="SVGID_15_" gradientUnits="userSpaceOnUse" x1="107.9822" y1="60.3242" x2="103.4202" y2="60.2743">
	<stop  offset="0" style="stop-color:#12397F"/>
	<stop  offset="0.713" style="stop-color:#3A71CE"/>
	<stop  offset="1" style="stop-color:#3A71CE"/>
</linearGradient>
<rect x="103.6" y="43.8" class="st15" width="4.2" height="33"/>
<linearGradient id="SVGID_16_" gradientUnits="userSpaceOnUse" x1="7553.502" y1="67.9483" x2="7548.3755" y2="67.8922" gradientTransform="matrix(-0.2821 0 0 1 2237.0437 0)">
	<stop  offset="0" style="stop-color:#12397F"/>
	<stop  offset="0.713" style="stop-color:#3A71CE"/>
	<stop  offset="1" style="stop-color:#3A71CE"/>
</linearGradient>
<path class="st16" d="M107.3,86.1c0.1,0,0.6,0.3,0.6,0.2V49.6h-1.3v34.8C106.6,84.4,107.3,86.1,107.3,86.1z"/>
<linearGradient id="SVGID_17_" gradientUnits="userSpaceOnUse" x1="112.1739" y1="68.4283" x2="107.0425" y2="68.3722">
	<stop  offset="0" style="stop-color:#12397F"/>
	<stop  offset="0.713" style="stop-color:#3A71CE"/>
	<stop  offset="1" style="stop-color:#3A71CE"/>
</linearGradient>
<path class="st17" d="M111.3,86.4h-3.4c-0.4,0-0.7-0.3-0.7-0.7V50.5h4.7v35.2C112,86.1,111.7,86.4,111.3,86.4z"/>
<linearGradient id="SVGID_18_" gradientUnits="userSpaceOnUse" x1="79.8005" y1="68.5868" x2="74.6726" y2="68.5307">
	<stop  offset="0" style="stop-color:#12397F"/>
	<stop  offset="0.713" style="stop-color:#3A71CE"/>
	<stop  offset="1" style="stop-color:#3A71CE"/>
</linearGradient>
<path class="st18" d="M78.9,86.4h-3.4c-0.4,0-0.7-0.3-0.7-0.7V50.8h4.7v34.9C79.6,86.1,79.3,86.4,78.9,86.4z"/>
<linearGradient id="SVGID_19_" gradientUnits="userSpaceOnUse" x1="74.8605" y1="45.6497" x2="79.6134" y2="45.6497">
	<stop  offset="0" style="stop-color:#12397F"/>
	<stop  offset="0.713" style="stop-color:#3A71CE"/>
	<stop  offset="1" style="stop-color:#3A71CE"/>
</linearGradient>
<path class="st19" d="M77.2,40L77.2,40c-1.3,0-2,0.2-2,0.5l-0.4,10.3c0,0.3,1.1,0.5,2.4,0.5h0c1.3,0,2.4-0.2,2.4-0.5l-0.3-10.3
	C79.3,40.2,78.5,40,77.2,40z"/>
<g>
	
		<linearGradient id="SVGID_20_" gradientUnits="userSpaceOnUse" x1="235.5764" y1="24.6849" x2="240.2212" y2="24.6849" gradientTransform="matrix(1.0716 -1.172285e-02 0.5137 0.9276 -160.7579 25.5414)">
		<stop  offset="0" style="stop-color:#12397F"/>
		<stop  offset="0.713" style="stop-color:#3A71CE"/>
		<stop  offset="1" style="stop-color:#3A71CE"/>
	</linearGradient>
	<path class="st20" d="M104.1,40.4h-0.2c-1.4,0-1.8,0.2-1.6,0.5l4.7,9.5c0.1,0.2,1.4,0.4,2.7,0.4h0c1.4,0,2.4-0.2,2.3-0.5l-5.9-9.5
		C106,40.6,105.5,40.4,104.1,40.4z"/>
</g>
<linearGradient id="SVGID_21_" gradientUnits="userSpaceOnUse" x1="80.952" y1="51.3443" x2="91.2141" y2="51.3443">
	<stop  offset="0" style="stop-color:#12397F"/>
	<stop  offset="0.713" style="stop-color:#3A71CE"/>
	<stop  offset="1" style="stop-color:#3A71CE"/>
</linearGradient>
<path class="st21" d="M89.1,66.7h-6c-1,0-1.9-0.8-1.9-1.9V37.9c0-1,0.8-1.9,1.9-1.9h6c1,0,1.9,0.8,1.9,1.9v26.9
	C91,65.8,90.1,66.7,89.1,66.7z"/>
<linearGradient id="SVGID_22_" gradientUnits="userSpaceOnUse" x1="91.897" y1="51.3443" x2="102.1591" y2="51.3443">
	<stop  offset="0" style="stop-color:#12397F"/>
	<stop  offset="0.713" style="stop-color:#3A71CE"/>
	<stop  offset="1" style="stop-color:#3A71CE"/>
</linearGradient>
<path class="st22" d="M100,66.7h-6c-1,0-1.9-0.8-1.9-1.9V37.9c0-1,0.8-1.9,1.9-1.9h6c1,0,1.9,0.8,1.9,1.9v26.9
	C101.9,65.8,101.1,66.7,100,66.7z"/>
<linearGradient id="SVGID_23_" gradientUnits="userSpaceOnUse" x1="7.6702" y1="42.209" x2="146.4362" y2="42.209">
	<stop  offset="0" style="stop-color:#12397F"/>
	<stop  offset="0.713" style="stop-color:#3A71CE"/>
	<stop  offset="1" style="stop-color:#3A71CE"/>
</linearGradient>
<path class="st23" d="M123.5,73.2V17.8c0-4.4-3.6-7.9-7.9-7.9h-77c-4.4,0-7.9,3.6-7.9,7.9v55.4h-23v1.4h24.3v0h1.8V17.8
	c0-2.7,2.2-4.9,4.9-4.9h77c2.7,0,4.9,2.2,4.9,4.9v56.8h1.7v0h24.3v-1.4H123.5z"/>
</svg>
