<?xml version="1.0" encoding="utf-8"?>
<!-- Generator: Adobe Illustrator 21.0.2, SVG Export Plug-In . SVG Version: 6.00 Build 0)  -->
<svg version="1.1" id="Слой_1" xmlns="http://www.w3.org/2000/svg" xmlns:xlink="http://www.w3.org/1999/xlink" x="0px" y="0px"
	 viewBox="0 0 39.7 39.7" style="enable-background:new 0 0 39.7 39.7;" xml:space="preserve">
<style type="text/css">
	.st0{clip-path:url(#SVGID_2_);fill:#1E4385;}
</style>
<g>
	<defs>
		<rect id="SVGID_1_" width="39.7" height="39.7"/>
	</defs>
	<clipPath id="SVGID_2_">
		<use xlink:href="#SVGID_1_"  style="overflow:visible;"/>
	</clipPath>
	<path class="st0" d="M19.8,0C8.9,0,0,8.9,0,19.8c0,11,8.9,19.8,19.8,19.8s19.8-8.9,19.8-19.8C39.7,8.9,30.8,0,19.8,0 M11.2,19.8
		c-3.2,0-5.8-2.6-5.8-5.8c0-3.2,2.6-5.8,5.8-5.8S17,10.8,17,14h-1c0-2.6-2.2-4.8-4.8-4.8c-2.5,0-4.5,1.9-4.7,4.3H8v1H6.4
		c0.3,2.4,2.3,4.3,4.7,4.3V19.8z M11.7,14.5L9.4,17l-0.7-0.7l2.1-2.2v-2.6h1V14.5z M32.5,29.5H12.7V15.1h19.8V29.5z"/>
	<rect x="13.9" y="25.2" class="st0" width="5" height="3.1"/>
	<rect x="26.4" y="25.2" class="st0" width="5" height="3.1"/>
	<rect x="13.9" y="16.2" class="st0" width="17.6" height="1.8"/>
	<rect x="13.9" y="18.8" class="st0" width="5" height="3.1"/>
	<rect x="20.3" y="22" class="st0" width="5" height="3.1"/>
</g>
</svg>
