<?xml version="1.0" encoding="utf-8"?>
<!-- Generator: Adobe Illustrator 21.0.2, SVG Export Plug-In . SVG Version: 6.00 Build 0)  -->
<svg version="1.1" id="Слой_1" xmlns="http://www.w3.org/2000/svg" xmlns:xlink="http://www.w3.org/1999/xlink" x="0px" y="0px"
	 viewBox="0 0 39.7 39.7" style="enable-background:new 0 0 39.7 39.7;" xml:space="preserve">
<style type="text/css">
	.st0{clip-path:url(#SVGID_2_);fill:#1E4385;}
</style>
<g>
	<defs>
		<rect id="SVGID_1_" width="39.7" height="39.7"/>
	</defs>
	<clipPath id="SVGID_2_">
		<use xlink:href="#SVGID_1_"  style="overflow:visible;"/>
	</clipPath>
	<path class="st0" d="M19.8,0C8.9,0,0,8.9,0,19.8c0,11,8.9,19.8,19.8,19.8s19.8-8.9,19.8-19.8C39.7,8.9,30.8,0,19.8,0 M25,15
		c0,1.7-1.4,3.1-3.1,3.1s-3.1-1.4-3.1-3.1s1.4-3.1,3.1-3.1S25,13.3,25,15 M14.9,21.8c-2.5-0.8-4.2-3.1-4.2-5.7c0-3.3,2.7-6,6-6
		c1.4,0,2.7,0.5,3.7,1.3l-0.8,1c-0.8-0.7-1.9-1-2.9-1c-2.4,0-4.3,1.8-4.7,4.1h1.4v1.3H12c0.2,1.8,1.5,3.3,3.3,3.9L14.9,21.8z
		 M17.4,13.5v3.2l-2.4,2.6l-1-0.9l2.1-2.2v-2.7H17.4z M28.8,28H15.4V25c0-3.5,3-6.4,6.7-6.4c3.7,0,6.7,2.8,6.7,6.4V28z"/>
</g>
</svg>
