<?xml version="1.0" encoding="utf-8"?>
<!-- Generator: Adobe Illustrator 21.0.2, SVG Export Plug-In . SVG Version: 6.00 Build 0)  -->
<svg version="1.1" id="Слой_1" xmlns="http://www.w3.org/2000/svg" xmlns:xlink="http://www.w3.org/1999/xlink" x="0px" y="0px"
	 viewBox="0 0 39.7 39.7" style="enable-background:new 0 0 39.7 39.7;" xml:space="preserve">
<style type="text/css">
	.st0{fill:#1E4385;}
	.st1{clip-path:url(#SVGID_2_);fill:#1E4385;}
</style>
<rect x="6.2" y="10.9" class="st0" width="11.8" height="7.4"/>
<g>
	<defs>
		<rect id="SVGID_1_" width="39.7" height="39.7"/>
	</defs>
	<clipPath id="SVGID_2_">
		<use xlink:href="#SVGID_1_"  style="overflow:visible;"/>
	</clipPath>
	<path class="st1" d="M19.8,0C8.9,0,0,8.9,0,19.8c0,11,8.9,19.8,19.8,19.8s19.8-8.9,19.8-19.8C39.7,8.9,30.8,0,19.8,0 M24.9,13.7
		c1.6,0,2.9,1.3,2.9,2.9c0,1.6-1.3,2.9-2.9,2.9c-1.6,0-2.9-1.3-2.9-2.9C22,15,23.3,13.7,24.9,13.7 M13.3,20.5h-2.5
		c-0.2,0-0.3-0.1-0.3-0.3v0H5.2V9.9h13.8v10.3h-5.4v0C13.6,20.4,13.4,20.5,13.3,20.5 M32.1,29.7h-14V27c0-3.6,3.1-6.6,7-6.6
		c3.9,0,7,3,7,6.6V29.7z"/>
</g>
</svg>
