<?xml version="1.0" encoding="utf-8"?>
<!-- Generator: Adobe Illustrator 21.0.2, SVG Export Plug-In . SVG Version: 6.00 Build 0)  -->
<svg version="1.1" id="Слой_1" xmlns="http://www.w3.org/2000/svg" xmlns:xlink="http://www.w3.org/1999/xlink" x="0px" y="0px"
	 viewBox="0 0 608.2 340.3" style="enable-background:new 0 0 608.2 340.3;" xml:space="preserve">
<style type="text/css">
	.st0{clip-path:url(#SVGID_2_);fill:#B22951;}
	.st1{clip-path:url(#SVGID_2_);fill:#0071BA;}
	.st2{fill:#4A4A49;}
	.st3{clip-path:url(#SVGID_4_);fill:#0071BA;}
	.st4{fill:#FFFFFF;}
	.st5{filter:url(#Adobe_OpacityMaskFilter);}
	.st6{clip-path:url(#SVGID_6_);fill:url(#SVGID_8_);}
	.st7{clip-path:url(#SVGID_6_);mask:url(#SVGID_7_);}
	.st8{clip-path:url(#SVGID_10_);fill:none;stroke:#30A9DF;stroke-width:3;}
	.st9{fill:#0067A7;}
	
		.st10{fill:none;stroke:#5C5C5B;stroke-width:0.75;stroke-linecap:round;stroke-linejoin:round;stroke-dasharray:5.900000e-02,6.059;}
	.st11{fill:none;stroke:#5C5C5B;stroke-width:0.75;stroke-linecap:round;stroke-linejoin:round;}
	
		.st12{fill:none;stroke:#5C5C5B;stroke-width:0.75;stroke-linecap:round;stroke-linejoin:round;stroke-dasharray:1.000000e-03,6.001;}
	.st13{clip-path:url(#SVGID_12_);fill:none;stroke:#5C5C5B;stroke-width:0.75;stroke-linecap:round;stroke-linejoin:round;}
</style>
<g>
	<defs>
		<rect id="SVGID_1_" x="4.8" width="603.4" height="340.3"/>
	</defs>
	<clipPath id="SVGID_2_">
		<use xlink:href="#SVGID_1_"  style="overflow:visible;"/>
	</clipPath>
	<path class="st0" d="M357.6,275.4c0,0-1.1,0-1.1,1.1v8.5c0,0,0,1.1,1.1,1.1h16.5c0,0,1.1,0,1.1-1.1v-8.5c0,0,0-1.1-1.1-1.1H357.6z"
		/>
	<path class="st0" d="M28.9,257.1c0,0,0,1.1,1.1,1.1h488.1c0,0,1.1,0,1.1-1.1v-9.3c0,0,0-1.1-1.1-1.1H30c0,0-1.1,0-1.1,1.1V257.1z"
		/>
	<path class="st0" d="M115.3,228.4c0,0,0,1.1,1.1,1.1h401.7c0,0,1.1,0,1.1-1.1v-9.3c0,0,0-1.1-1.1-1.1H116.4c0,0-1.1,0-1.1,1.1
		V228.4z"/>
	<path class="st0" d="M183.4,199.7c0,0,0,1.1,1.1,1.1h333.6c0,0,1.1,0,1.1-1.1v-9.3c0,0,0-1.1-1.1-1.1H184.5c0,0-1.1,0-1.1,1.1
		V199.7z"/>
	<path class="st0" d="M248.7,171.1c0,0,0,1.1,1.1,1.1h268.3c0,0,1.1,0,1.1-1.1v-9.3c0,0,0-1.1-1.1-1.1H249.8c0,0-1.1,0-1.1,1.1
		V171.1z"/>
	<path class="st0" d="M305.2,142.4c0,0,0,1.1,1.1,1.1h211.8c0,0,1.1,0,1.1-1.1v-9.3c0,0,0-1.1-1.1-1.1H306.3c0,0-1.1,0-1.1,1.1
		V142.4z"/>
	<path class="st0" d="M346,113.8c0,0,0,1.1,1.1,1.1h171c0,0,1.1,0,1.1-1.1v-9.3c0,0,0-1.1-1.1-1.1h-171c0,0-1.1,0-1.1,1.1V113.8z"/>
	<path class="st0" d="M386.7,85.1c0,0,0,1.1,1.1,1.1h130.2c0,0,1.1,0,1.1-1.1v-9.3c0,0,0-1.1-1.1-1.1H387.8c0,0-1.1,0-1.1,1.1V85.1z
		"/>
	<path class="st0" d="M409.2,56.4c0,0,0,1.1,1.1,1.1h107.8c0,0,1.1,0,1.1-1.1v-9.3c0,0,0-1.1-1.1-1.1H410.3c0,0-1.1,0-1.1,1.1V56.4z
		"/>
	<path class="st1" d="M505.7,275.5c0,0-1.1,0-1.1,1.1v8.5c0,0,0,1.1,1.1,1.1h16.5c0,0,1.1,0,1.1-1.1v-8.5c0,0,0-1.1-1.1-1.1H505.7z"
		/>
</g>
<g>
	<path class="st2" d="M547.1,249.6h3.6v-2.8h0.8v7h-0.8v-3.4h-3.6v3.4h-0.8v-7h0.8V249.6z"/>
	<path class="st2" d="M552.8,251.6c0-1.3,1-2.3,2.3-2.3c1.3,0,2.3,1,2.3,2.3c0,1.3-1,2.3-2.3,2.3
		C553.8,253.9,552.8,252.9,552.8,251.6z M553.6,251.6c0,1.1,0.8,1.6,1.5,1.6c0.8,0,1.5-0.6,1.5-1.6c0-1.1-0.7-1.6-1.5-1.6
		C554.3,250,553.6,250.6,553.6,251.6z"/>
	<path class="st2" d="M559.4,252c-0.1,0-0.5,0-0.8-0.3c-0.2-0.2-0.3-0.5-0.3-0.9s0.1-0.8,0.4-1c0.4-0.4,0.8-0.4,1.3-0.4h1.5v4.4
		h-0.8V252h-0.5l-1.2,1.8h-0.9L559.4,252z M560.7,250.1H560c-0.3,0-0.5,0-0.7,0.1c-0.1,0.1-0.3,0.3-0.3,0.5c0,0.2,0.1,0.4,0.3,0.5
		c0.2,0.1,0.5,0.1,0.7,0.1h0.7V250.1z"/>
	<path class="st2" d="M567.1,246.4c-0.3,0.8-1,1.1-1.4,1.2c-0.4,0.1-1,0.2-1.4,0.5c-0.5,0.4-0.9,1.2-0.9,2h0
		c0.3-0.5,0.8-0.8,1.6-0.8c1.3,0,2.3,1,2.3,2.3c0,1.3-1,2.3-2.4,2.3c-0.7,0-1.2-0.3-1.5-0.5c-0.7-0.6-0.7-1.5-0.7-2.2
		c0-0.8,0-2.8,1.2-3.6c0.5-0.3,1-0.4,1.5-0.5c0.6-0.1,0.8-0.3,0.9-0.6H567.1z M563.4,251.6c0,1.1,0.8,1.6,1.5,1.6
		c0.8,0,1.5-0.6,1.5-1.6c0-1.1-0.7-1.6-1.5-1.6C564.1,250,563.4,250.6,563.4,251.6z"/>
	<path class="st2" d="M569.1,256.2h-0.8v-6.8h0.8v0.6c0.5-0.6,1.2-0.7,1.5-0.7c1.4,0,2.1,1.1,2.1,2.3c0,1.2-0.8,2.3-2.1,2.3
		c-0.7,0-1.2-0.3-1.5-0.7V256.2z M571.9,251.6c0-1.1-0.7-1.6-1.4-1.6c-0.7,0-1.4,0.6-1.4,1.6c0,0.9,0.6,1.6,1.5,1.6
		C571.4,253.2,571.9,252.5,571.9,251.6z"/>
	<path class="st2" d="M573.9,249.4h0.8v1.7h0.8c0.4,0,0.9,0,1.3,0.4c0.2,0.2,0.3,0.5,0.3,0.9c0,0.5-0.2,0.8-0.4,1
		c-0.4,0.4-0.8,0.4-1.3,0.4h-1.5V249.4z M575.3,253.1c0.3,0,0.5,0,0.7-0.1c0.1-0.1,0.3-0.2,0.3-0.6c0-0.2-0.1-0.4-0.3-0.5
		c-0.2-0.1-0.4-0.1-0.7-0.1h-0.7v1.3H575.3z"/>
</g>
<g>
	<path class="st2" d="M550.8,216.8v6.3h0.8v2.2h-0.7v-1.5h-5v1.5h-0.7v-2.2c0.5,0,0.9-0.4,1.1-0.9c0.1-0.3,0.3-0.9,0.3-1.8v-3.5
		H550.8z M547.3,220.3c0,1-0.1,1.5-0.3,2c-0.1,0.3-0.3,0.6-0.5,0.8h3.5v-5.5h-2.7V220.3z"/>
	<path class="st2" d="M556.3,222.7c-0.1,0.2-0.3,0.5-0.5,0.7c-0.4,0.4-0.9,0.5-1.4,0.5c-1,0-2.2-0.7-2.2-2.3c0-1.3,0.8-2.3,2.1-2.3
		c0.9,0,1.4,0.4,1.6,0.8c0.3,0.4,0.4,1.1,0.4,1.6H553c0,0.9,0.6,1.5,1.4,1.5c0.4,0,0.6-0.1,0.9-0.3c0.2-0.2,0.4-0.4,0.5-0.6
		L556.3,222.7z M555.6,221.2c-0.1-0.7-0.6-1.1-1.3-1.1s-1.2,0.5-1.3,1.1H555.6z"/>
	<path class="st2" d="M558.3,219.5v1.8l1.8-1.8h0.9l-1.9,1.9l2.1,2.4h-1l-1.7-1.9l-0.2,0.2v1.7h-0.8v-4.4H558.3z"/>
	<path class="st2" d="M565.3,219.5h0.8v4.4h-0.8v-0.6c-0.3,0.3-0.7,0.7-1.5,0.7c-1.1,0-2.1-0.8-2.1-2.3c0-1.5,1-2.3,2.1-2.3
		c0.8,0,1.3,0.5,1.5,0.7V219.5z M562.5,221.7c0,0.9,0.5,1.6,1.4,1.6c0.9,0,1.4-0.8,1.4-1.6c0-1.1-0.8-1.6-1.4-1.6
		C563.1,220.1,562.5,220.6,562.5,221.7z"/>
	<path class="st2" d="M571.7,216.5c-0.3,0.8-1,1.1-1.4,1.2c-0.4,0.1-1,0.2-1.4,0.5c-0.5,0.4-0.9,1.2-0.9,2h0
		c0.3-0.5,0.8-0.8,1.6-0.8c1.3,0,2.3,1,2.3,2.3c0,1.3-1,2.3-2.4,2.3c-0.7,0-1.2-0.3-1.5-0.5c-0.7-0.6-0.7-1.5-0.7-2.2
		c0-0.8,0-2.8,1.2-3.6c0.5-0.3,1-0.4,1.5-0.5c0.6-0.1,0.8-0.3,0.9-0.6H571.7z M568,221.7c0,1.1,0.8,1.6,1.5,1.6
		c0.8,0,1.5-0.6,1.5-1.6c0-1.1-0.7-1.6-1.5-1.6C568.7,220.1,568,220.6,568,221.7z"/>
	<path class="st2" d="M573.7,226.3H573v-6.8h0.8v0.6c0.5-0.6,1.2-0.7,1.5-0.7c1.4,0,2.1,1.1,2.1,2.3c0,1.2-0.8,2.3-2.1,2.3
		c-0.7,0-1.2-0.3-1.5-0.7V226.3z M576.6,221.7c0-1.1-0.7-1.6-1.4-1.6c-0.7,0-1.4,0.6-1.4,1.6c0,0.9,0.6,1.6,1.5,1.6
		C576,223.3,576.6,222.6,576.6,221.7z"/>
	<path class="st2" d="M578.5,219.5h0.8v1.7h0.8c0.4,0,0.9,0,1.3,0.4c0.2,0.2,0.3,0.5,0.3,0.9c0,0.5-0.2,0.8-0.4,1
		c-0.4,0.4-0.9,0.4-1.3,0.4h-1.5V219.5z M580,223.2c0.3,0,0.5,0,0.7-0.1c0.1-0.1,0.3-0.2,0.3-0.6c0-0.2-0.1-0.4-0.3-0.5
		c-0.2-0.1-0.4-0.1-0.7-0.1h-0.7v1.3H580z"/>
</g>
<g>
	<path class="st2" d="M547.4,193.5c-0.3,0-0.8-0.1-1.2-0.4c-0.5-0.4-0.6-1-0.6-1.4c0-0.6,0.2-1.1,0.5-1.4c0.5-0.6,1.3-0.6,1.7-0.6
		h1.6v7h-0.8v-3.1h-0.4l-2,3.1h-0.9L547.4,193.5z M548,190.4c-0.4,0-0.9,0-1.2,0.4c-0.2,0.2-0.3,0.5-0.3,0.9c0,0.5,0.2,0.8,0.4,0.9
		c0.3,0.2,0.7,0.3,1.1,0.3h0.8v-2.5H548z"/>
	<path class="st2" d="M551.1,192.3h0.8v1.8h2.1v-1.8h0.8v4.4h-0.8v-1.9h-2.1v1.9h-0.8V192.3z"/>
	<path class="st2" d="M557.8,192.3c0.2,0,0.6,0,0.9,0.3c0.2,0.1,0.4,0.4,0.4,0.8c0,0.4-0.2,0.7-0.5,0.9c0.1,0,0.3,0.1,0.5,0.3
		c0.2,0.2,0.3,0.5,0.3,0.8c0,0.5-0.2,0.8-0.5,1c-0.3,0.2-0.7,0.3-1,0.3h-1.9v-4.4H557.8z M557.7,194c0.1,0,0.3,0,0.5-0.1
		c0.1-0.1,0.2-0.2,0.2-0.5c0-0.2-0.1-0.3-0.2-0.4c-0.2-0.1-0.4-0.1-0.6-0.1h-0.7v1.1H557.7z M557.8,196c0.2,0,0.5,0,0.7-0.1
		c0.1-0.1,0.3-0.3,0.3-0.5s-0.1-0.4-0.2-0.5c-0.2-0.1-0.5-0.2-0.7-0.2h-1v1.3H557.8z"/>
	<path class="st2" d="M564,192.3h0.8v4.4H564V196c-0.3,0.3-0.7,0.7-1.5,0.7c-1.1,0-2.1-0.8-2.1-2.3c0-1.5,1-2.3,2.1-2.3
		c0.8,0,1.3,0.5,1.5,0.7V192.3z M561.1,194.4c0,0.9,0.5,1.6,1.4,1.6c0.9,0,1.4-0.8,1.4-1.6c0-1.1-0.8-1.6-1.4-1.6
		C561.8,192.8,561.1,193.4,561.1,194.4z"/>
	<path class="st2" d="M566.9,199h-0.8v-6.8h0.8v0.6c0.5-0.6,1.2-0.7,1.5-0.7c1.4,0,2.1,1.1,2.1,2.3c0,1.2-0.8,2.3-2.1,2.3
		c-0.7,0-1.2-0.3-1.5-0.7V199z M569.7,194.5c0-1.1-0.7-1.6-1.4-1.6c-0.7,0-1.4,0.6-1.4,1.6c0,0.9,0.6,1.6,1.5,1.6
		C569.2,196.1,569.7,195.4,569.7,194.5z"/>
	<path class="st2" d="M571.7,192.3h0.8v1.7h0.8c0.4,0,0.9,0,1.3,0.4c0.2,0.2,0.3,0.5,0.3,0.9c0,0.5-0.2,0.8-0.4,1
		c-0.4,0.4-0.8,0.4-1.3,0.4h-1.5V192.3z M573.1,196c0.3,0,0.5,0,0.7-0.1c0.1-0.1,0.3-0.2,0.3-0.6c0-0.2-0.1-0.4-0.3-0.5
		c-0.2-0.1-0.4-0.1-0.7-0.1h-0.7v1.3H573.1z"/>
</g>
<g>
	<path class="st2" d="M549,165.7h-0.2c-2.6,0-3.2-1.6-3.2-2.7s0.6-2.7,3.2-2.7h0.2v-0.8h0.8v0.8h0.2c2.6,0,3.2,1.6,3.2,2.7
		s-0.6,2.7-3.2,2.7h-0.2v1H549V165.7z M549,161h-0.2c-1.9,0-2.4,1.1-2.4,2s0.5,2,2.4,2h0.2V161z M549.8,165h0.2c1.9,0,2.4-1.1,2.4-2
		s-0.5-2-2.4-2h-0.2V165z"/>
	<path class="st2" d="M558.3,165.6c-0.1,0.2-0.3,0.5-0.5,0.7c-0.4,0.4-0.9,0.5-1.4,0.5c-1,0-2.2-0.7-2.2-2.3c0-1.3,0.8-2.3,2.1-2.3
		c0.9,0,1.4,0.4,1.6,0.8c0.3,0.4,0.4,1.1,0.4,1.6h-3.4c0,0.9,0.6,1.5,1.4,1.5c0.4,0,0.6-0.1,0.9-0.3c0.2-0.2,0.4-0.4,0.5-0.6
		L558.3,165.6z M557.5,164c-0.1-0.7-0.6-1.1-1.3-1.1c-0.6,0-1.2,0.5-1.3,1.1H557.5z"/>
	<path class="st2" d="M561.1,162.3c0.2,0,0.6,0,0.9,0.3c0.2,0.1,0.4,0.4,0.4,0.8c0,0.4-0.2,0.7-0.5,0.9c0.1,0,0.3,0.1,0.5,0.3
		c0.2,0.2,0.3,0.5,0.3,0.8c0,0.5-0.2,0.8-0.5,1c-0.3,0.2-0.7,0.3-1,0.3h-1.9v-4.4H561.1z M561,164.1c0.1,0,0.3,0,0.5-0.1
		c0.1-0.1,0.2-0.2,0.2-0.5c0-0.2-0.1-0.3-0.2-0.4c-0.2-0.1-0.4-0.1-0.6-0.1h-0.7v1.1H561z M561.1,166c0.2,0,0.5,0,0.7-0.1
		c0.1-0.1,0.3-0.3,0.3-0.5s-0.1-0.4-0.2-0.5c-0.2-0.1-0.5-0.2-0.7-0.2h-1v1.3H561.1z"/>
	<path class="st2" d="M564.7,169.1H564v-6.8h0.8v0.6c0.5-0.6,1.2-0.7,1.5-0.7c1.4,0,2.1,1.1,2.1,2.3c0,1.2-0.8,2.3-2.1,2.3
		c-0.7,0-1.2-0.3-1.5-0.7V169.1z M567.5,164.5c0-1.1-0.7-1.6-1.4-1.6c-0.7,0-1.4,0.6-1.4,1.6c0,0.9,0.6,1.6,1.5,1.6
		C567,166.1,567.5,165.4,567.5,164.5z"/>
	<path class="st2" d="M572.8,162.3h0.8v4.4h-0.8v-0.6c-0.3,0.3-0.7,0.7-1.5,0.7c-1.1,0-2.1-0.8-2.1-2.3c0-1.5,1-2.3,2.1-2.3
		c0.8,0,1.3,0.5,1.5,0.7V162.3z M570,164.5c0,0.9,0.5,1.6,1.4,1.6c0.9,0,1.4-0.8,1.4-1.6c0-1.1-0.8-1.6-1.4-1.6
		C570.7,162.9,570,163.4,570,164.5z"/>
	<path class="st2" d="M578.3,166.7h-0.8V163H576v2c0,0.4,0,0.9-0.3,1.3c-0.1,0.2-0.5,0.5-1.1,0.5c-0.1,0-0.2,0-0.2,0V166
		c0.1,0,0.1,0,0.2,0c0.3,0,0.5-0.1,0.5-0.3c0.1-0.2,0.1-0.5,0.1-0.7v-2.7h3.1V166.7z"/>
	<path class="st2" d="M579.7,162.3h0.8v1.7h0.8c0.4,0,0.9,0,1.3,0.4c0.2,0.2,0.3,0.5,0.3,0.9c0,0.5-0.2,0.8-0.4,1
		c-0.4,0.4-0.8,0.4-1.3,0.4h-1.5V162.3z M581.2,166c0.3,0,0.5,0,0.7-0.1c0.1-0.1,0.3-0.2,0.3-0.6c0-0.2-0.1-0.4-0.3-0.5
		c-0.2-0.1-0.4-0.1-0.7-0.1h-0.7v1.3H581.2z"/>
</g>
<g>
	<path class="st2" d="M545.7,139.5l1.2-7.4l2.7,5.9l2.7-5.9l1.1,7.4h-0.8l-0.7-4.9l-2.4,5.2l-2.4-5.2l-0.7,4.9H545.7z"/>
	<path class="st2" d="M558.2,135.1h0.8v4.4h-0.8v-0.6c-0.3,0.3-0.7,0.7-1.5,0.7c-1.1,0-2.1-0.8-2.1-2.3c0-1.5,1-2.3,2.1-2.3
		c0.8,0,1.3,0.5,1.5,0.7V135.1z M555.3,137.3c0,0.9,0.5,1.6,1.4,1.6c0.9,0,1.4-0.8,1.4-1.6c0-1.1-0.8-1.6-1.4-1.6
		C556,135.7,555.3,136.2,555.3,137.3z"/>
	<path class="st2" d="M561.1,141.9h-0.8v-6.8h0.8v0.6c0.5-0.6,1.2-0.7,1.5-0.7c1.4,0,2.1,1.1,2.1,2.3c0,1.2-0.8,2.3-2.1,2.3
		c-0.7,0-1.2-0.3-1.5-0.7V141.9z M563.9,137.3c0-1.1-0.7-1.6-1.4-1.6c-0.7,0-1.4,0.6-1.4,1.6c0,0.9,0.6,1.6,1.5,1.6
		C563.4,138.9,563.9,138.2,563.9,137.3z"/>
	<path class="st2" d="M567.3,135.8v3.7h-0.8v-3.7h-1.4v-0.7h3.5v0.7H567.3z"/>
</g>
<g>
	<path class="st2" d="M549.8,108.9h-3l-0.8,2h-0.9l3.2-7.3l3.1,7.3h-0.9L549.8,108.9z M549.5,108.2l-1.2-2.8l-1.2,2.8H549.5z"/>
	<path class="st2" d="M555.8,106.5v4.4H555v-3.7h-2v3.7h-0.8v-4.4H555.8z"/>
	<path class="st2" d="M558,113.3h-0.8v-6.8h0.8v0.6c0.5-0.6,1.2-0.7,1.5-0.7c1.4,0,2.1,1.1,2.1,2.3c0,1.2-0.8,2.3-2.1,2.3
		c-0.7,0-1.2-0.3-1.5-0.7V113.3z M560.8,108.8c0-1.1-0.7-1.6-1.4-1.6c-0.7,0-1.4,0.6-1.4,1.6c0,0.9,0.6,1.6,1.5,1.6
		C560.3,110.4,560.8,109.6,560.8,108.8z"/>
	<path class="st2" d="M566.6,109.8c-0.1,0.2-0.3,0.5-0.5,0.7c-0.4,0.4-0.9,0.5-1.4,0.5c-1,0-2.2-0.7-2.2-2.3c0-1.3,0.8-2.3,2.1-2.3
		c0.9,0,1.4,0.4,1.6,0.8c0.3,0.4,0.4,1.1,0.4,1.6h-3.4c0,0.9,0.6,1.5,1.4,1.5c0.4,0,0.6-0.1,0.9-0.3c0.2-0.2,0.4-0.4,0.5-0.6
		L566.6,109.8z M565.9,108.2c-0.1-0.7-0.6-1.1-1.3-1.1s-1.2,0.5-1.3,1.1H565.9z"/>
	<path class="st2" d="M571.1,110.9h-0.8v-3.7h-1.6v2c0,0.4,0,0.9-0.3,1.3c-0.1,0.2-0.5,0.5-1,0.5c-0.1,0-0.2,0-0.2,0v-0.7
		c0.1,0,0.1,0,0.2,0c0.3,0,0.5-0.1,0.5-0.3c0.1-0.2,0.1-0.5,0.1-0.7v-2.7h3.1V110.9z"/>
	<path class="st2" d="M572.5,106.5h0.8v1.7h0.8c0.4,0,0.9,0,1.3,0.4c0.2,0.2,0.3,0.5,0.3,0.9c0,0.5-0.2,0.8-0.4,1
		c-0.4,0.4-0.9,0.4-1.3,0.4h-1.5V106.5z M574,110.2c0.3,0,0.5,0,0.7-0.1c0.1-0.1,0.3-0.2,0.3-0.6c0-0.2-0.1-0.4-0.3-0.5
		c-0.2-0.1-0.4-0.1-0.7-0.1h-0.7v1.3H574z"/>
</g>
<g>
	<path class="st2" d="M545.7,82.3l1.2-7.4l2.7,5.9l2.7-5.9l1.1,7.4h-0.8l-0.7-4.9l-2.4,5.2l-2.4-5.2l-0.7,4.9H545.7z"/>
	<path class="st2" d="M558.2,78h0.8v4.4h-0.8v-0.6c-0.3,0.3-0.7,0.7-1.5,0.7c-1.1,0-2.1-0.8-2.1-2.3c0-1.5,1-2.3,2.1-2.3
		c0.8,0,1.3,0.5,1.5,0.7V78z M555.3,80.1c0,0.9,0.5,1.6,1.4,1.6c0.9,0,1.4-0.8,1.4-1.6c0-1.1-0.8-1.6-1.4-1.6
		C556,78.5,555.3,79.1,555.3,80.1z"/>
	<path class="st2" d="M561.1,78v2.9l3-3.2v4.7h-0.8v-2.9l-3,3.2V78H561.1z M561.3,75.9c0.1,0.4,0.4,0.6,0.9,0.6
		c0.5,0,0.8-0.3,0.9-0.6l0.6,0.2c-0.2,0.6-0.8,1-1.5,1c-0.7,0-1.3-0.4-1.5-1L561.3,75.9z"/>
</g>
<g>
	<path class="st2" d="M550.8,48.4l-4.9,5.7v-7.3h0.8v5.4l4.9-5.7v7.3h-0.8V48.4z"/>
	<path class="st2" d="M554.8,51.2c0.1-0.5,0.3-1,0.6-1.2c0.4-0.4,1-0.7,1.6-0.7c1.3,0,2.3,1,2.3,2.3s-1,2.3-2.3,2.3
		c-0.9,0-1.5-0.4-1.8-0.8c-0.2-0.3-0.4-0.7-0.5-1.2H554v1.9h-0.8v-4.4h0.8v1.8H554.8z M555.5,51.6c0,1.1,0.7,1.6,1.5,1.6
		c0.8,0,1.5-0.6,1.5-1.6S557.8,50,557,50C556.2,50,555.5,50.6,555.5,51.6z"/>
	<path class="st2" d="M560.5,49.4h0.8v1.8h2.1v-1.8h0.8v4.4h-0.8v-1.9h-2.1v1.9h-0.8V49.4z"/>
	<path class="st2" d="M565.5,49.4h0.8v1.7h0.8c0.4,0,0.9,0,1.3,0.4c0.2,0.2,0.3,0.5,0.3,0.9c0,0.5-0.2,0.8-0.4,1
		c-0.4,0.4-0.9,0.4-1.3,0.4h-1.5V49.4z M566.9,53.1c0.3,0,0.5,0,0.7-0.1c0.1-0.1,0.3-0.2,0.3-0.6c0-0.2-0.1-0.4-0.3-0.5
		c-0.2-0.1-0.4-0.1-0.7-0.1h-0.7v1.3H566.9z"/>
</g>
<g>
	<path class="st2" d="M384,275l2.4,4.5l2-4.5h0.5l-3.2,7h-0.5l0.9-2l-2.7-5H384z"/>
	<path class="st2" d="M390.3,279.7l-1.6-2h0.5l1.4,1.8l1.3-1.8h0.5l-1.6,2l1.7,2.2h-0.5l-1.5-2l-1.5,2h-0.5L390.3,279.7z"/>
	<path class="st2" d="M397.7,279.9c0,1.3-1,2.2-2.2,2.2s-2.2-1-2.2-2.2c0-1.3,1-2.2,2.2-2.2S397.7,278.6,397.7,279.9z M397.3,279.9
		c0-1-0.8-1.8-1.8-1.8s-1.8,0.8-1.8,1.8s0.8,1.8,1.8,1.8S397.3,280.9,397.3,279.9z"/>
	<path class="st2" d="M402,277.7v3.9h0.6v1.6h-0.4V282h-3.6v1.2h-0.4v-1.6c0.4,0,0.7-0.3,0.8-0.6c0.1-0.3,0.2-0.7,0.2-1.2v-2.2H402z
		 M401.6,278.1h-2v1.9c0,0.9-0.3,1.4-0.5,1.6h2.5V278.1z"/>
	<path class="st2" d="M404,277.7v1.8h1c0.3,0,0.8,0,1.1,0.4c0.2,0.2,0.3,0.6,0.3,0.9c0,0.3-0.1,0.7-0.4,0.9c-0.3,0.3-0.7,0.3-1,0.3
		h-1.4v-4.3H404z M405,281.6c0.2,0,0.5,0,0.7-0.2c0.2-0.1,0.3-0.4,0.3-0.7c0-0.3-0.1-0.5-0.3-0.7c-0.2-0.1-0.4-0.2-0.7-0.2h-1v1.7
		H405z M407.3,277.7v4.3h-0.4v-4.3H407.3z"/>
	<path class="st2" d="M411.7,284.4h-0.4v-6.7h0.4v0.7c0.4-0.6,1-0.8,1.7-0.8c1.3,0,2.1,1,2.1,2.2c0,1.3-0.8,2.3-2.1,2.3
		c-1.1,0-1.5-0.7-1.7-0.9V284.4z M415,279.8c0-1.2-0.8-1.8-1.7-1.8c-0.8,0-1.7,0.6-1.7,1.8c0,1.1,0.6,1.9,1.7,1.9
		C414.4,281.7,415,280.9,415,279.8z"/>
	<path class="st2" d="M420.2,277.7h0.4v4.3h-0.4v-0.8c-0.4,0.7-1.1,0.9-1.7,0.9c-1.1,0-2.1-0.8-2.1-2.3c0-1.3,0.8-2.2,2.1-2.2
		c0.7,0,1.3,0.3,1.7,0.8V277.7z M416.8,279.8c0,1,0.6,1.9,1.7,1.9c1.1,0,1.7-0.9,1.7-1.9c0-1.3-0.9-1.8-1.7-1.8
		C417.7,278,416.8,278.6,416.8,279.8z"/>
	<path class="st2" d="M422.1,277.7h0.4v1.9h2.4v-1.9h0.4v4.3h-0.4v-2h-2.4v2h-0.4V277.7z"/>
	<path class="st2" d="M427.3,277.7v1.8h1c0.3,0,0.8,0,1.1,0.4c0.2,0.2,0.3,0.6,0.3,0.9c0,0.3-0.1,0.7-0.4,0.9
		c-0.3,0.3-0.7,0.3-1,0.3h-1.4v-4.3H427.3z M428.3,281.6c0.2,0,0.5,0,0.7-0.2c0.2-0.1,0.3-0.4,0.3-0.7c0-0.3-0.1-0.5-0.3-0.7
		c-0.2-0.1-0.4-0.2-0.7-0.2h-1v1.7H428.3z"/>
	<path class="st2" d="M430.6,277.7h0.4v3.9h2v-3.9h0.4v3.9h2v-3.9h0.4v4.3h-5.2V277.7z"/>
	<path class="st2" d="M437.5,279.9c0,1.1,0.8,1.8,1.7,1.8c0.7,0,1.2-0.4,1.5-1l0.4,0.2c-0.3,0.5-0.8,1.2-1.9,1.2
		c-1.3,0-2.1-1-2.1-2.2c0-1.5,1-2.3,2.1-2.3c1.2,0,2,0.9,2,2.3H437.5z M440.8,279.5c-0.1-0.8-0.7-1.5-1.6-1.5
		c-0.9,0-1.5,0.7-1.6,1.5H440.8z"/>
	<path class="st2" d="M446.3,277.7c0.2,0,0.6,0,0.9,0.3c0.2,0.1,0.4,0.4,0.4,0.8c0,0.4-0.2,0.7-0.5,0.9c0.1,0,0.3,0.1,0.5,0.2
		c0.2,0.2,0.4,0.4,0.4,0.9c0,0.5-0.2,0.8-0.4,0.9c-0.3,0.3-0.8,0.3-1,0.3h-1.6v-4.3H446.3z M446.3,279.6c0.2,0,0.4,0,0.6-0.2
		c0.1-0.1,0.3-0.3,0.3-0.6c0-0.3-0.1-0.5-0.3-0.6c-0.2-0.2-0.5-0.2-0.6-0.2h-1v1.5H446.3z M446.5,281.6c0.2,0,0.5,0,0.7-0.2
		c0.1-0.1,0.3-0.3,0.3-0.6c0-0.3-0.1-0.5-0.3-0.6c-0.2-0.2-0.5-0.2-0.8-0.2h-1.2v1.6H446.5z"/>
	<path class="st2" d="M449.7,284.4h-0.4v-6.7h0.4v0.7c0.4-0.6,1-0.8,1.7-0.8c1.3,0,2.1,1,2.1,2.2c0,1.3-0.8,2.3-2.1,2.3
		c-1.1,0-1.5-0.7-1.7-0.9V284.4z M453,279.8c0-1.2-0.8-1.8-1.7-1.8c-0.8,0-1.7,0.6-1.7,1.8c0,1.1,0.6,1.9,1.7,1.9
		C452.4,281.7,453,280.9,453,279.8z"/>
	<path class="st2" d="M454.8,279.9c0,1.1,0.8,1.8,1.7,1.8c0.7,0,1.2-0.4,1.5-1l0.4,0.2c-0.3,0.5-0.8,1.2-1.9,1.2
		c-1.3,0-2.1-1-2.1-2.2c0-1.5,1-2.3,2.1-2.3c1.2,0,2,0.9,2,2.3H454.8z M458,279.5c-0.1-0.8-0.7-1.5-1.6-1.5c-0.9,0-1.5,0.7-1.6,1.5
		H458z"/>
	<path class="st2" d="M460.2,277.4l1.7,3.9l1.7-3.9l1,4.5h-0.4l-0.7-3.3l-1.6,3.6l-1.6-3.6l-0.7,3.3h-0.4L460.2,277.4z"/>
	<path class="st2" d="M465.8,279.9c0,1.1,0.8,1.8,1.7,1.8c0.7,0,1.2-0.4,1.5-1l0.4,0.2c-0.3,0.5-0.8,1.2-1.9,1.2
		c-1.3,0-2.1-1-2.1-2.2c0-1.5,1-2.3,2.1-2.3c1.2,0,2,0.9,2,2.3H465.8z M469.1,279.5c-0.1-0.8-0.7-1.5-1.6-1.5
		c-0.9,0-1.5,0.7-1.6,1.5H469.1z"/>
	<path class="st2" d="M470.7,277.7h0.4v1.9h2.4v-1.9h0.4v4.3h-0.4v-2h-2.4v2h-0.4V277.7z"/>
	<path class="st2" d="M475.9,277.7v3.4l3-3.7v4.5h-0.4v-3.4l-3,3.7v-4.5H475.9z"/>
</g>
<g>
	<path class="st2" d="M539.3,278.5c0,2-1.6,3.6-3.6,3.6s-3.6-1.6-3.6-3.6s1.6-3.6,3.6-3.6S539.3,276.5,539.3,278.5z M538.8,278.5
		c0-1.8-1.3-3.2-3.1-3.2s-3.1,1.4-3.1,3.2c0,1.8,1.3,3.2,3.1,3.2S538.8,280.3,538.8,278.5z"/>
	<path class="st2" d="M540.6,277.7h3.2v4.3h-0.4v-3.9H541v3.9h-0.4V277.7z"/>
	<path class="st2" d="M549.5,279.9c0,1.3-1,2.2-2.2,2.2s-2.2-1-2.2-2.2c0-1.3,1-2.2,2.2-2.2S549.5,278.6,549.5,279.9z M549.1,279.9
		c0-1-0.8-1.8-1.8-1.8s-1.8,0.8-1.8,1.8s0.8,1.8,1.8,1.8S549.1,280.9,549.1,279.9z"/>
	<path class="st2" d="M550.5,278.4c0.2-0.3,0.6-0.8,1.4-0.8c0.3,0,0.7,0,0.9,0.3c0.2,0.2,0.3,0.4,0.3,0.8c0,0.4-0.2,0.7-0.5,0.9
		c0.2,0,0.4,0.1,0.5,0.3c0.2,0.2,0.3,0.5,0.3,0.8c0,0.4-0.2,0.8-0.5,1c-0.3,0.2-0.7,0.3-1.1,0.3c-0.4,0-0.8-0.1-1.1-0.3
		c-0.1-0.1-0.3-0.3-0.5-0.6l0.4-0.2c0.1,0.3,0.3,0.5,0.5,0.5c0.3,0.2,0.6,0.2,0.8,0.2c0.4,0,0.7-0.1,0.8-0.2
		c0.2-0.2,0.3-0.4,0.3-0.7c0-0.3-0.1-0.5-0.3-0.6c-0.2-0.2-0.6-0.2-0.8-0.2h-0.4v-0.4h0.3c0.2,0,0.4,0,0.6-0.2
		c0.2-0.2,0.3-0.3,0.3-0.5c0-0.3-0.1-0.5-0.2-0.6c-0.1-0.1-0.3-0.2-0.7-0.2c-0.5,0-0.8,0.3-1,0.6L550.5,278.4z"/>
	<path class="st2" d="M557.8,277.7v3.9h0.6v1.6h-0.4V282h-3.6v1.2h-0.4v-1.6c0.4,0,0.7-0.3,0.8-0.6c0.1-0.3,0.2-0.7,0.2-1.2v-2.2
		H557.8z M557.4,278.1h-2v1.9c0,0.9-0.3,1.4-0.5,1.6h2.5V278.1z"/>
	<path class="st2" d="M562.8,277.7h0.4v4.3h-0.4v-0.8c-0.4,0.7-1.1,0.9-1.7,0.9c-1.1,0-2.1-0.8-2.1-2.3c0-1.3,0.8-2.2,2.1-2.2
		c0.7,0,1.3,0.3,1.7,0.8V277.7z M559.5,279.8c0,1,0.6,1.9,1.7,1.9c1.1,0,1.7-0.9,1.7-1.9c0-1.3-0.9-1.8-1.7-1.8
		C560.3,278,559.5,278.6,559.5,279.8z"/>
	<path class="st2" d="M564.8,277.7h0.4v1.9h2.4v-1.9h0.4v4.3h-0.4v-2h-2.4v2h-0.4V277.7z"/>
	<path class="st2" d="M569.9,277.7v3.4l3-3.7v4.5h-0.4v-3.4l-3,3.7v-4.5H569.9z"/>
	<path class="st2" d="M575.4,280.1c-0.3,0-0.6-0.1-0.8-0.3c-0.3-0.3-0.4-0.6-0.4-0.9c0-0.3,0.1-0.7,0.4-0.9c0.3-0.3,0.7-0.3,1-0.3
		h1.4v4.3h-0.4v-1.8h-0.7l-1.3,1.8H574L575.4,280.1z M576.6,278.1h-1c-0.2,0-0.5,0-0.7,0.2c-0.1,0.1-0.3,0.3-0.3,0.7
		c0,0.3,0.1,0.5,0.3,0.6c0.2,0.1,0.5,0.2,0.7,0.2h1V278.1z"/>
</g>
<g>
	<defs>
		<rect id="SVGID_3_" x="4.8" width="603.4" height="340.3"/>
	</defs>
	<clipPath id="SVGID_4_">
		<use xlink:href="#SVGID_3_"  style="overflow:visible;"/>
	</clipPath>
	<path class="st3" d="M465.3,56.4c0,0,0,1.1,1.1,1.1h51.7c0,0,1.1,0,1.1-1.1v-9.3c0,0,0-1.1-1.1-1.1h-51.7c0,0-1.1,0-1.1,1.1V56.4z"
		/>
	<path class="st3" d="M253.7,257.1c0,0,0,1.1,1.1,1.1h263.3c0,0,1.1,0,1.1-1.1v-9.3c0,0,0-1.1-1.1-1.1H254.8c0,0-1.1,0-1.1,1.1
		V257.1z"/>
	<path class="st3" d="M334.7,228.4c0,0,0,1.1,1.1,1.1h182.3c0,0,1.1,0,1.1-1.1v-9.3c0,0,0-1.1-1.1-1.1H335.8c0,0-1.1,0-1.1,1.1
		V228.4z"/>
	<path class="st3" d="M386.7,199.7c0,0,0,1.1,1.1,1.1h130.2c0,0,1.1,0,1.1-1.1v-9.3c0,0,0-1.1-1.1-1.1H387.8c0,0-1.1,0-1.1,1.1
		V199.7z"/>
	<path class="st3" d="M413.5,171.1c0,0,0,1.1,1.1,1.1h103.5c0,0,1.1,0,1.1-1.1v-9.3c0,0,0-1.1-1.1-1.1H414.6c0,0-1.1,0-1.1,1.1
		V171.1z"/>
	<path class="st3" d="M432.9,142.4c0,0,0,1.1,1.1,1.1h84c0,0,1.1,0,1.1-1.1v-9.3c0,0,0-1.1-1.1-1.1h-84c0,0-1.1,0-1.1,1.1V142.4z"/>
	<path class="st3" d="M441.3,113.8c0,0,0,1.1,1.1,1.1h75.7c0,0,1.1,0,1.1-1.1v-9.3c0,0,0-1.1-1.1-1.1h-75.7c0,0-1.1,0-1.1,1.1V113.8
		z"/>
	<path class="st3" d="M464.7,85.1c0,0,0,1.1,1.1,1.1h52.3c0,0,1.1,0,1.1-1.1v-9.3c0,0,0-1.1-1.1-1.1h-52.3c0,0-1.1,0-1.1,1.1V85.1z"
		/>
</g>
<g>
	<path class="st4" d="M229.5,249.3h-1.1v-1.7h3.2v7.9h-2V249.3z"/>
	<path class="st4" d="M234.3,255.4l2.2-2.7c-0.3,0.2-0.6,0.2-1.1,0.2c-0.7,0-1.3-0.2-1.8-0.7c-0.6-0.6-0.8-1.4-0.8-1.9
		c0-0.8,0.3-1.5,0.8-2c0.5-0.5,1.3-1,2.6-1c1.5,0,2.2,0.6,2.5,0.9c0.5,0.5,0.8,1.2,0.8,1.9c0,1.2-0.7,2.3-1.2,2.9l-1.8,2.3H234.3z
		 M235.4,249.4c-0.2,0.2-0.4,0.6-0.4,0.9s0.2,0.6,0.4,0.9c0.2,0.2,0.6,0.4,0.9,0.4c0.3,0,0.6-0.1,0.9-0.3c0.2-0.2,0.4-0.6,0.4-0.9
		c0-0.3-0.2-0.7-0.4-0.9c-0.2-0.2-0.6-0.4-0.9-0.4C236.1,249,235.7,249.1,235.4,249.4z"/>
	<path class="st4" d="M242.2,252.7c0,0.3,0.1,0.6,0.3,0.8c0.2,0.2,0.5,0.3,0.8,0.3c0.4,0,0.6-0.2,0.8-0.3c0.2-0.2,0.2-0.4,0.2-0.7
		c0-0.3-0.2-0.6-0.3-0.7c-0.2-0.2-0.5-0.2-0.8-0.2c-0.1,0-0.2,0-0.3,0v-1.4c0.4,0.1,0.7-0.1,0.8-0.2c0.2-0.2,0.3-0.4,0.3-0.6
		c0-0.2-0.1-0.4-0.2-0.6c-0.1-0.1-0.4-0.2-0.6-0.2c-0.2,0-0.4,0.1-0.6,0.2c-0.2,0.2-0.3,0.4-0.3,0.7h-1.9c0-0.8,0.4-1.5,0.8-1.8
		c0.6-0.6,1.3-0.8,2.1-0.8c0.6,0,1.4,0.1,2,0.7c0.4,0.4,0.6,0.9,0.6,1.5c0,0.3-0.1,0.6-0.2,1c-0.1,0.3-0.3,0.5-0.6,0.6
		c0.5,0.2,0.8,0.5,0.9,0.7c0.2,0.3,0.3,0.7,0.3,1.2c0,0.8-0.4,1.4-0.7,1.7c-0.4,0.4-1.2,0.8-2.4,0.8c-0.8,0-1.6-0.2-2.3-0.8
		c-0.4-0.4-0.9-1-1-2.1H242.2z"/>
</g>
<g>
	<path class="st4" d="M484.1,249.3H483v-1.7h3.2v7.9h-2V249.3z"/>
	<path class="st4" d="M493.4,251.9c0.5,0.5,0.6,1,0.6,1.4c0,0.5-0.2,1.1-0.6,1.5c-0.3,0.3-1,0.8-2.4,0.8c-1.3,0-2-0.5-2.4-0.8
		c-0.4-0.4-0.6-1-0.6-1.5c0-0.5,0.2-1.1,0.6-1.4c0.2-0.2,0.6-0.5,1-0.6c-0.3-0.1-0.5-0.3-0.7-0.4c-0.2-0.2-0.5-0.7-0.5-1.3
		c0-0.6,0.3-1.1,0.6-1.5c0.5-0.4,1.2-0.7,2.1-0.7c0.8,0,1.6,0.3,2,0.8c0.3,0.3,0.6,0.8,0.6,1.4c0,0.6-0.2,1-0.5,1.2
		c-0.2,0.2-0.5,0.4-0.8,0.5C492.8,251.4,493.1,251.7,493.4,251.9z M490.3,252.4c-0.2,0.2-0.3,0.4-0.3,0.6c0,0.2,0.1,0.5,0.3,0.7
		c0.2,0.2,0.4,0.3,0.7,0.3c0.3,0,0.5-0.1,0.7-0.3c0.2-0.2,0.3-0.4,0.3-0.7c0-0.3-0.1-0.5-0.3-0.6c-0.2-0.2-0.5-0.3-0.7-0.3
		C490.7,252.1,490.5,252.2,490.3,252.4z M490.3,249c-0.2,0.2-0.2,0.4-0.2,0.6c0,0.2,0.1,0.4,0.2,0.6c0.2,0.2,0.4,0.3,0.6,0.3
		c0.2,0,0.4,0,0.6-0.2c0.2-0.2,0.3-0.4,0.3-0.6c0-0.2-0.1-0.5-0.3-0.6c-0.2-0.2-0.3-0.2-0.6-0.2C490.7,248.8,490.5,248.9,490.3,249z
		"/>
	<path class="st4" d="M501.1,255.4h-6.3l2-2.1c0.7-0.7,1.2-1.4,1.6-2c0.2-0.3,0.4-0.7,0.4-1.2c0-0.1,0-0.5-0.2-0.8
		c-0.1-0.1-0.3-0.2-0.6-0.2c-0.3,0-0.6,0.2-0.7,0.3c-0.2,0.2-0.3,0.7-0.3,1H495c0-1,0.5-1.8,0.9-2.2c0.5-0.5,1.3-0.9,2.2-0.9
		c1.2,0,1.9,0.5,2.2,0.8c0.3,0.3,0.8,0.9,0.8,1.9c0,1-0.5,1.7-1.2,2.3l-1.3,1.2h2.6V255.4z"/>
	<path class="st4" d="M503,253.5h1.8l-2,3.7h-1.2L503,253.5z"/>
	<path class="st4" d="M512.5,251.9c0.5,0.5,0.6,1,0.6,1.4c0,0.5-0.2,1.1-0.6,1.5c-0.3,0.3-1,0.8-2.4,0.8c-1.3,0-2-0.5-2.4-0.8
		c-0.4-0.4-0.6-1-0.6-1.5c0-0.5,0.2-1.1,0.6-1.4c0.2-0.2,0.6-0.5,1-0.6c-0.3-0.1-0.5-0.3-0.7-0.4c-0.2-0.2-0.5-0.7-0.5-1.3
		c0-0.6,0.3-1.1,0.6-1.5c0.5-0.4,1.2-0.7,2.1-0.7c0.8,0,1.6,0.3,2,0.8c0.3,0.3,0.6,0.8,0.6,1.4c0,0.6-0.2,1-0.5,1.2
		c-0.2,0.2-0.5,0.4-0.8,0.5C511.9,251.4,512.2,251.7,512.5,251.9z M509.4,252.4c-0.2,0.2-0.3,0.4-0.3,0.6c0,0.2,0.1,0.5,0.3,0.7
		c0.2,0.2,0.4,0.3,0.7,0.3c0.3,0,0.5-0.1,0.7-0.3c0.2-0.2,0.3-0.4,0.3-0.7c0-0.3-0.1-0.5-0.3-0.6c-0.2-0.2-0.5-0.3-0.7-0.3
		C509.8,252.1,509.6,252.2,509.4,252.4z M509.4,249c-0.2,0.2-0.2,0.4-0.2,0.6c0,0.2,0.1,0.4,0.2,0.6c0.2,0.2,0.4,0.3,0.6,0.3
		c0.2,0,0.4,0,0.6-0.2c0.2-0.2,0.3-0.4,0.3-0.6c0-0.2-0.1-0.5-0.3-0.6c-0.2-0.2-0.3-0.2-0.6-0.2C509.8,248.8,509.6,248.9,509.4,249z
		"/>
</g>
<g>
	<defs>
		<rect id="SVGID_5_" x="4.8" width="603.4" height="340.3"/>
	</defs>
	<clipPath id="SVGID_6_">
		<use xlink:href="#SVGID_5_"  style="overflow:visible;"/>
	</clipPath>
	<defs>
		<filter id="Adobe_OpacityMaskFilter" filterUnits="userSpaceOnUse" x="0" y="40.7" width="372.5" height="215.2">
			<feFlood  style="flood-color:white;flood-opacity:1" result="back"/>
			<feBlend  in="SourceGraphic" in2="back" mode="normal"/>
		</filter>
	</defs>
	<mask maskUnits="userSpaceOnUse" x="0" y="40.7" width="372.5" height="215.2" id="SVGID_7_">
		<g class="st5">
			
				<linearGradient id="SVGID_8_" gradientUnits="userSpaceOnUse" x1="2.4749" y1="372.3729" x2="3.7871" y2="372.3729" gradientTransform="matrix(-173.806 65.3294 -65.3294 -173.806 24974.0762 64762.7539)">
				<stop  offset="0" style="stop-color:#FFFFFF"/>
				<stop  offset="1" style="stop-color:#000000"/>
			</linearGradient>
			<polygon class="st6" points="533.5,-198.7 -107.3,42.1 79.5,539.1 720.3,298.2 			"/>
		</g>
	</mask>
	<g class="st7">
		<g>
			<defs>
				<rect id="SVGID_9_" y="40.7" width="372.5" height="215.2"/>
			</defs>
			<clipPath id="SVGID_10_">
				<use xlink:href="#SVGID_9_"  style="overflow:visible;"/>
			</clipPath>
			<path class="st8" d="M12.6,238.7c0,0,207.2-65,343.8-186.6"/>
			<polyline class="st8" points="347.8,68 356.4,52.1 339.6,58.8 			"/>
		</g>
	</g>
</g>
<g>
	<path class="st9" d="M98.6,182.3c0.8-0.3,1.5-0.5,2.3-0.3c0.8,0.3,1.3,0.9,1.5,1.4c0.5,1.1,0.3,2.6-1.6,3.3l-0.8,0.3l1.5,3.5
		l-0.9,0.4l-3.5-8L98.6,182.3z M99.7,186.3l0.7-0.3c1.1-0.5,1.5-1.3,1.1-2.2c-0.6-1.3-1.8-0.9-2.4-0.6l-0.7,0.3L99.7,186.3z"/>
</g>
<g>
	<path class="st9" d="M104.6,186.3c-0.7-1.5,0-3.1,1.5-3.8s3.1,0,3.8,1.5c0.7,1.5,0,3.1-1.5,3.8
		C106.9,188.4,105.3,187.8,104.6,186.3z M105.5,185.9c0.5,1.2,1.7,1.5,2.6,1.1c0.9-0.4,1.5-1.4,0.9-2.6c-0.5-1.2-1.7-1.5-2.6-1.1
		S105,184.7,105.5,185.9z"/>
</g>
<g>
	<path class="st9" d="M115,180.4c-0.7-0.4-1.4-0.2-1.9,0c-0.9,0.4-1.5,1.4-0.9,2.6s1.7,1.5,2.6,1.1c0.5-0.2,1-0.7,1.3-1.5l0.5,1
		c-0.4,0.6-0.9,1-1.3,1.2c-1.5,0.7-3.2,0.1-3.8-1.4c-0.7-1.5-0.1-3.1,1.5-3.8c0.8-0.4,1.4-0.3,1.8-0.2L115,180.4z"/>
</g>
<g>
	<path class="st9" d="M118.1,178.2l1.9,4.2l-0.9,0.4l-1.9-4.2l-1.5,0.7l-0.4-0.8l4-1.8l0.4,0.8L118.1,178.2z"/>
</g>
<g>
	<path class="st9" d="M127.5,172.8l2.3,4.9l-0.9,0.4l-2-4.1l-2.3,1.1l2,4.1l-0.9,0.4l-2.3-4.9L127.5,172.8z"/>
</g>
<g>
	<path class="st9" d="M134,179.1l-0.9,0.4l-3.7-7.6l0.9-0.4l0.3,0.7c0.2-1,0.9-1.4,1.3-1.6c1.5-0.7,3,0.1,3.6,1.4
		c0.7,1.3,0.4,3-1.1,3.7c-0.8,0.4-1.5,0.3-2.1,0L134,179.1z M134.7,172.4c-0.6-1.2-1.7-1.4-2.5-1.1c-0.8,0.4-1.3,1.4-0.7,2.6
		c0.5,1,1.5,1.5,2.5,1C135,174.5,135.2,173.4,134.7,172.4z"/>
</g>
<g>
	<path class="st9" d="M136.9,171.4c-0.7-1.5-0.2-3.1,1.3-3.9c1.5-0.7,3.1-0.2,3.9,1.3c0.7,1.5,0.2,3.1-1.3,3.8
		S137.6,172.8,136.9,171.4z M137.8,170.9c0.6,1.2,1.7,1.4,2.6,1c0.9-0.4,1.4-1.5,0.8-2.7c-0.6-1.2-1.7-1.4-2.6-1
		C137.7,168.7,137.2,169.7,137.8,170.9z"/>
</g>
<g>
	<path class="st9" d="M143.3,165.1l1.6,3.2l1.5-5.3l2.7,5.2l-0.8,0.4l-1.6-3.2l-1.5,5.3l-2.6-5.2L143.3,165.1z"/>
</g>
<g>
	<path class="st9" d="M148.9,163.2c0-0.3,0.1-0.7,0.3-0.9c0.3-0.4,0.6-0.7,0.9-0.8c0.4-0.2,0.8-0.4,1.3-0.3c0.5,0.1,0.7,0.4,0.9,0.7
		c0.3,0.6,0.1,1,0,1.3c0.3-0.1,0.5,0,0.7,0c0.3,0.1,0.6,0.3,0.8,0.7c0.3,0.5,0.3,1.1,0,1.6c-0.2,0.4-0.7,0.8-1.2,1.1
		c-0.4,0.2-0.9,0.4-1.5,0.3c-0.4-0.1-0.8-0.3-1.1-0.5l0.6-0.7c0.1,0.1,0.3,0.3,0.7,0.3c0.4,0.1,0.7,0,0.9-0.2
		c0.2-0.1,0.6-0.3,0.7-0.6c0.1-0.2,0.2-0.5,0-0.9c-0.1-0.3-0.4-0.4-0.6-0.4c-0.3,0-0.7,0.1-0.9,0.2l-0.5,0.3l-0.4-0.8l0.4-0.2
		c0.4-0.2,0.5-0.4,0.6-0.5c0.1-0.1,0.1-0.4,0-0.6c-0.1-0.2-0.3-0.4-0.5-0.4c-0.3-0.1-0.6,0.1-0.7,0.1c-0.2,0.1-0.4,0.3-0.6,0.5
		c-0.1,0.1-0.2,0.4-0.2,0.6L148.9,163.2z"/>
</g>
<g>
	<path class="st9" d="M155.6,158.8c0.3-0.1,0.7-0.3,1.2-0.2c0.2,0,0.6,0.2,0.9,0.7c0.2,0.5,0.2,0.9,0,1.2c0.2,0,0.4-0.1,0.8,0
		c0.4,0.1,0.7,0.4,0.9,0.7c0.3,0.5,0.2,1,0.1,1.4c-0.2,0.4-0.6,0.7-1,0.9l-2.1,1.1l-2.5-4.8L155.6,158.8z M156.5,160.8
		c0.1,0,0.3-0.2,0.5-0.4c0.1-0.1,0.1-0.3,0-0.6c-0.1-0.2-0.3-0.3-0.5-0.3c-0.3,0-0.5,0.1-0.7,0.2L155,160l0.6,1.2L156.5,160.8z
		 M157.8,162.8c0.2-0.1,0.5-0.3,0.7-0.6c0.1-0.2,0.1-0.5,0-0.7c-0.1-0.2-0.3-0.4-0.5-0.4c-0.3-0.1-0.6,0.1-0.8,0.2l-1.1,0.6l0.7,1.4
		L157.8,162.8z"/>
</g>
<g>
	<path class="st9" d="M160,159.5c-0.8-1.5-0.3-3.1,1.2-3.9s3.1-0.3,3.9,1.2c0.8,1.5,0.3,3.1-1.2,3.9
		C162.5,161.4,160.8,161,160,159.5z M160.9,159c0.6,1.2,1.8,1.3,2.6,0.9c0.9-0.5,1.4-1.5,0.7-2.7c-0.6-1.2-1.8-1.4-2.7-0.9
		C160.7,156.8,160.3,157.9,160.9,159z"/>
</g>
<g>
	<path class="st9" d="M169.1,151.5l2.2,4l0.7-0.4l1.1,2l-0.8,0.4l-0.7-1.3l-3.6,2l0.7,1.3L168,160l-1.1-2c0.4-0.2,0.6-0.7,0.5-1.1
		c0-0.4-0.2-0.9-0.5-1.4l-1.2-2.1L169.1,151.5z M168.7,152.7l-1.7,0.9l1,1.8c0.3,0.6,0.5,1.1,0.2,1.8l2.3-1.2L168.7,152.7z"/>
</g>
<g>
	<path class="st9" d="M171.8,150l1.8,3.1l1.3-5.3l2.9,5.1l-0.8,0.5l-1.8-3.2l-1.3,5.3l-2.8-5.1L171.8,150z"/>
</g>
<g>
	<path class="st9" d="M179,147l2.3,4l-0.8,0.5l-2.3-4l-1.5,0.8l-0.4-0.8l3.8-2.1l0.4,0.8L179,147z"/>
</g>
<g>
	<path class="st9" d="M187.3,145.9c0,0.3,0,0.7-0.1,1.1c-0.2,0.6-0.6,1.1-1.2,1.5c-1.1,0.7-2.7,0.6-3.8-1.1c-0.8-1.4-0.6-3,0.9-3.8
		c0.9-0.5,1.8-0.4,2.3-0.2c0.5,0.3,1.1,0.9,1.5,1.5l-3.7,2.1c0.6,1,1.6,1.2,2.4,0.7c0.4-0.2,0.6-0.5,0.8-0.9
		c0.1-0.3,0.1-0.6,0.1-0.9L187.3,145.9z M185.6,144.7c-0.6-0.7-1.4-0.8-2.1-0.4c-0.7,0.4-1,1.2-0.7,2L185.6,144.7z"/>
</g>
<g>
	<path class="st9" d="M193.2,144.1l-0.8,0.5l-2.3-4l-1.7,1l1.2,2.1c0.2,0.4,0.5,0.9,0.4,1.6c0,0.3-0.2,0.8-0.8,1.2
		c-0.1,0-0.2,0.1-0.3,0.1l-0.4-0.7c0.1,0,0.1-0.1,0.2-0.1c0.3-0.2,0.4-0.4,0.4-0.7c0-0.3-0.1-0.6-0.3-0.9l-1.7-2.9l3.3-1.9
		L193.2,144.1z"/>
</g>
<g>
	<path class="st9" d="M192.3,138.3l0.8-0.5l1.1,1.8l0.8-0.5c0.4-0.2,1-0.6,1.7-0.4c0.3,0.1,0.7,0.3,0.9,0.8c0.3,0.5,0.3,1,0.2,1.3
		c-0.2,0.6-0.7,0.9-1.1,1.2l-1.6,1L192.3,138.3z M196.2,141.3c0.3-0.2,0.5-0.3,0.6-0.6c0.1-0.1,0.2-0.4,0-0.8
		c-0.1-0.2-0.3-0.4-0.6-0.4c-0.3,0-0.5,0.1-0.8,0.3l-0.8,0.5l0.9,1.4L196.2,141.3z"/>
</g>
<g>
	<path class="st9" d="M197.1,135.4l0.8-0.5l1.1,1.9l2.2-1.3l-1.1-1.9l0.8-0.5l2.8,4.7l-0.8,0.5l-1.2-2l-2.2,1.3l1.2,2l-0.8,0.5
		L197.1,135.4z"/>
</g>
<g>
	<path class="st9" d="M203.9,134.5c-0.9-1.4-0.5-3.1,1-4c1.4-0.9,3.1-0.5,4,0.9s0.4,3.1-1,3.9C206.5,136.3,204.8,135.9,203.9,134.5z
		 M204.8,134c0.7,1.1,1.9,1.2,2.7,0.7c0.8-0.5,1.3-1.6,0.6-2.7c-0.7-1.1-1.8-1.3-2.7-0.7C204.5,131.8,204.1,132.9,204.8,134z"/>
</g>
<g>
	<path class="st9" d="M213.4,127.3c-0.8-0.3-1.5,0-1.9,0.2c-0.9,0.5-1.3,1.6-0.6,2.7s1.9,1.2,2.7,0.7c0.5-0.3,0.9-0.9,1-1.7l0.6,1
		c-0.3,0.7-0.7,1.1-1.2,1.4c-1.4,0.9-3.1,0.5-4-0.9c-0.9-1.4-0.5-3.1,0.9-4c0.7-0.5,1.4-0.5,1.7-0.4L213.4,127.3z"/>
</g>
<g>
	<path class="st9" d="M216.2,124.7l2.4,3.9l-0.8,0.5l-2.4-3.9l-1.4,0.9l-0.5-0.7l3.7-2.3l0.5,0.7L216.2,124.7z"/>
</g>
<g>
	<path class="st9" d="M219.1,121.9l1.9,3l1-5.4l3.2,4.9l-0.8,0.5l-2-3.1l-1,5.4l-3.1-4.9L219.1,121.9z"/>
</g>
<g>
	<path class="st9" d="M228.9,116.5l2.5,3.8l-0.8,0.5l-2.5-3.8l-1.4,0.9l-0.5-0.7l3.6-2.4l0.5,0.7L228.9,116.5z"/>
</g>
<g>
	<path class="st9" d="M236.5,120.7l-0.8,0.5l-4.7-7l0.8-0.5l0.4,0.6c0.1-1,0.7-1.6,1.1-1.8c1.4-0.9,3-0.3,3.8,0.9
		c0.8,1.2,0.8,2.9-0.6,3.8c-0.7,0.5-1.5,0.5-2.1,0.3L236.5,120.7z M236.3,113.9c-0.7-1.1-1.9-1.2-2.6-0.7c-0.7,0.5-1.1,1.6-0.4,2.7
		c0.6,0.9,1.7,1.3,2.6,0.7C236.8,116,236.9,114.8,236.3,113.9z"/>
</g>
<g>
	<path class="st9" d="M241.2,113.2l-4.8-2.7l0.9-0.6l3.8,2.2l-0.7-4.2l0.9-0.6l1.4,9.3l-0.9,0.6L241.2,113.2z"/>
</g>
<g>
	<path class="st9" d="M245.8,104.1l2.6,3.8l0.7-0.5l1.3,1.9l-0.7,0.5l-0.8-1.2l-3.4,2.3l0.8,1.2l-0.7,0.5l-1.3-1.9
		c0.4-0.3,0.5-0.7,0.4-1.2c-0.1-0.4-0.3-0.9-0.6-1.3l-1.4-2L245.8,104.1z M245.5,105.4l-1.6,1.1l1.2,1.7c0.4,0.5,0.6,1.1,0.4,1.7
		l2.1-1.5L245.5,105.4z"/>
</g>
<g>
	<path class="st9" d="M251,100.5l0.8-0.5l3.1,4.5l-0.8,0.5l-0.4-0.6c0,0.5-0.2,1.3-1,1.8c-1.1,0.8-2.7,0.7-3.8-0.9
		c-1.1-1.5-0.6-3.1,0.5-3.9c0.9-0.6,1.7-0.4,2-0.3L251,100.5z M249.7,104.8c0.7,1,1.7,1.3,2.6,0.7c0.9-0.7,0.9-1.8,0.3-2.7
		c-0.8-1.2-2-1.1-2.6-0.6C249.2,102.6,248.9,103.7,249.7,104.8z"/>
</g>
<g>
	<path class="st4" d="M308.9,221.1h-1.1v-1.7h3.2v7.9h-2V221.1z"/>
	<path class="st4" d="M316.2,221.1h-3.3v-1.7h6.5l-4.5,7.9h-2.3L316.2,221.1z"/>
	<path class="st4" d="M322.8,221.1h-3.3v-1.7h6.5l-4.5,7.9h-2.3L322.8,221.1z"/>
</g>
<g>
	<path class="st4" d="M486.8,221.1h-1.1v-1.7h3.2v7.9h-2V221.1z"/>
	<path class="st4" d="M495.6,224.2h1v1.6h-1v1.5h-1.9v-1.5h-3.8v-1.3l3-5.1h2.7V224.2z M493.7,224.2V221l-1.9,3.2H493.7z"/>
	<path class="st4" d="M500.6,221.1h-3.3v-1.7h6.5l-4.5,7.9H497L500.6,221.1z"/>
	<path class="st4" d="M503,225.3h1.8l-2,3.7h-1.2L503,225.3z"/>
	<path class="st4" d="M512,219.4l-2.2,2.7c0.3-0.1,0.7-0.2,1.1-0.2c0.6,0,1.3,0.2,1.8,0.8c0.6,0.6,0.7,1.2,0.7,1.9
		c0,0.7-0.2,1.4-0.8,2.1c-0.8,0.8-1.8,0.9-2.5,0.9c-1.4,0-2.1-0.5-2.6-1c-0.4-0.4-0.7-1-0.7-1.8c0-1.1,0.5-2.1,1.2-2.9l1.8-2.3H512z
		 M510.9,225.4c0.2-0.2,0.4-0.5,0.4-0.9c0-0.2-0.1-0.6-0.4-0.8c-0.3-0.3-0.7-0.4-0.9-0.4c-0.3,0-0.6,0.1-0.9,0.3
		c-0.2,0.2-0.4,0.5-0.4,0.8c0,0.3,0.1,0.7,0.3,0.9c0.3,0.3,0.7,0.4,0.9,0.4C510.5,225.8,510.8,225.6,510.9,225.4z"/>
</g>
<g>
	<path class="st4" d="M348.2,192.3h-1.1v-1.7h3.2v7.9h-2V192.3z"/>
	<path class="st4" d="M356.9,192.3h-2.7l-0.1,0.9c0.3,0,0.5-0.1,0.6-0.1c1.1,0,1.7,0.4,2.1,0.8c0.4,0.4,0.7,1,0.7,1.9
		c0,0.9-0.4,1.6-0.8,2c-0.7,0.8-1.7,0.9-2.5,0.9c-1.2,0-2-0.3-2.7-0.7l0.3-1.9c0.4,0.4,0.8,0.6,0.9,0.6c0.4,0.2,0.8,0.3,1.2,0.3
		c0.4,0,0.8-0.1,1-0.4c0.2-0.2,0.3-0.5,0.3-0.8c0-0.4-0.2-0.7-0.4-0.8c-0.4-0.4-1.2-0.4-1.4-0.4c-0.6,0-1,0.1-1.5,0.3l0.7-4.2h4.1
		V192.3z"/>
	<path class="st4" d="M364.8,198.4h-6.3l2-2.1c0.7-0.7,1.2-1.4,1.6-2c0.2-0.3,0.4-0.7,0.4-1.2c0-0.1,0-0.5-0.2-0.8
		c-0.1-0.1-0.3-0.2-0.6-0.2c-0.3,0-0.6,0.2-0.7,0.3c-0.2,0.2-0.3,0.7-0.3,1h-2.1c0-1,0.5-1.8,0.9-2.2c0.5-0.5,1.3-0.9,2.2-0.9
		c1.2,0,1.9,0.5,2.2,0.8c0.3,0.3,0.8,0.9,0.8,1.9c0,1-0.5,1.7-1.2,2.3l-1.3,1.2h2.6V198.4z"/>
	<path class="st4" d="M366.6,196.4h1.8l-2,3.7h-1.2L366.6,196.4z"/>
	<path class="st4" d="M376.1,194.9c0.5,0.5,0.6,1,0.6,1.4c0,0.5-0.2,1.1-0.6,1.5c-0.3,0.3-1,0.8-2.4,0.8c-1.3,0-2-0.5-2.4-0.8
		c-0.4-0.4-0.6-1-0.6-1.5c0-0.5,0.2-1.1,0.6-1.4c0.2-0.2,0.6-0.5,1-0.6c-0.3-0.1-0.5-0.3-0.7-0.4c-0.2-0.2-0.5-0.7-0.5-1.3
		c0-0.6,0.3-1.1,0.6-1.5c0.5-0.4,1.2-0.7,2.1-0.7c0.8,0,1.6,0.3,2,0.8c0.3,0.3,0.6,0.8,0.6,1.4c0,0.6-0.2,1-0.5,1.2
		c-0.2,0.2-0.5,0.4-0.8,0.5C375.5,194.4,375.8,194.6,376.1,194.9z M373,195.4c-0.2,0.2-0.3,0.4-0.3,0.6c0,0.2,0.1,0.5,0.3,0.7
		c0.2,0.2,0.4,0.3,0.7,0.3c0.3,0,0.5-0.1,0.7-0.3c0.2-0.2,0.3-0.4,0.3-0.7c0-0.3-0.1-0.5-0.3-0.6c-0.2-0.2-0.5-0.3-0.7-0.3
		C373.5,195.1,373.2,195.2,373,195.4z M373.1,192c-0.2,0.2-0.2,0.4-0.2,0.6c0,0.2,0.1,0.4,0.2,0.6c0.2,0.2,0.4,0.3,0.6,0.3
		c0.2,0,0.4,0,0.6-0.2c0.2-0.2,0.3-0.4,0.3-0.6c0-0.2-0.1-0.5-0.3-0.6c-0.2-0.2-0.3-0.2-0.6-0.2C373.4,191.7,373.2,191.9,373.1,192z
		"/>
</g>
<g>
	<path class="st4" d="M483.8,192.3h-1.1v-1.7h3.2v7.9h-2V192.3z"/>
	<path class="st4" d="M492.8,197.7c-0.6,0.6-1.4,0.9-2.2,0.9s-1.6-0.3-2.2-0.9c-0.7-0.7-1.2-1.8-1.2-3.2c0-1.4,0.5-2.5,1.2-3.2
		c0.6-0.6,1.4-0.9,2.2-0.9s1.6,0.3,2.2,0.9c0.7,0.7,1.2,1.8,1.2,3.2C494,195.9,493.6,197,492.8,197.7z M490,192.4
		c-0.4,0.4-0.7,1.3-0.7,2.1c0,0.6,0.2,1.7,0.7,2.1c0.2,0.1,0.4,0.2,0.6,0.2s0.5-0.1,0.6-0.2c0.4-0.4,0.7-1.4,0.7-2
		c0-0.7-0.3-1.7-0.7-2.1c-0.2-0.1-0.4-0.2-0.6-0.2S490.2,192.3,490,192.4z"/>
	<path class="st4" d="M500.3,195.4h1v1.6h-1v1.5h-1.9v-1.5h-3.8v-1.3l3-5.1h2.7V195.4z M498.5,195.4v-3.2l-1.9,3.2H498.5z"/>
	<path class="st4" d="M503,196.4h1.8l-2,3.7h-1.2L503,196.4z"/>
	<path class="st4" d="M508.1,198.4l2.2-2.7c-0.3,0.2-0.7,0.2-1.1,0.2c-0.7,0-1.3-0.2-1.8-0.7c-0.6-0.6-0.8-1.4-0.8-1.9
		c0-0.8,0.3-1.5,0.8-2c0.5-0.5,1.3-1,2.6-1c1.5,0,2.2,0.6,2.5,0.9c0.5,0.5,0.8,1.2,0.8,1.9c0,1.2-0.7,2.3-1.2,2.9l-1.8,2.3H508.1z
		 M509.2,192.4c-0.2,0.2-0.4,0.6-0.4,0.9s0.2,0.6,0.4,0.9c0.2,0.2,0.6,0.4,0.9,0.4c0.3,0,0.6-0.1,0.9-0.3c0.2-0.2,0.4-0.6,0.4-0.9
		c0-0.3-0.2-0.7-0.4-0.9c-0.2-0.2-0.6-0.4-0.9-0.4C509.9,192,509.5,192.1,509.2,192.4z"/>
</g>
<g>
	<path class="st4" d="M378.1,163.7H377V162h3.2v7.9h-2V163.7z"/>
	<path class="st4" d="M383.3,163.7h-1.1V162h3.2v7.9h-2V163.7z"/>
	<path class="st4" d="M392.5,166.3c0.5,0.5,0.6,1,0.6,1.4c0,0.5-0.2,1.1-0.6,1.5c-0.3,0.3-1,0.8-2.4,0.8c-1.3,0-2-0.5-2.4-0.8
		c-0.4-0.4-0.6-1-0.6-1.5c0-0.5,0.2-1.1,0.6-1.4c0.2-0.2,0.6-0.5,1-0.6c-0.3-0.1-0.5-0.3-0.7-0.4c-0.2-0.2-0.5-0.6-0.5-1.3
		c0-0.6,0.3-1.1,0.6-1.5c0.5-0.4,1.2-0.7,2.1-0.7c0.8,0,1.6,0.3,2,0.8c0.3,0.3,0.6,0.8,0.6,1.4c0,0.6-0.2,1-0.5,1.2
		c-0.2,0.2-0.5,0.4-0.8,0.5C392,165.8,392.3,166.1,392.5,166.3z M389.5,166.8c-0.2,0.2-0.3,0.4-0.3,0.6c0,0.2,0.1,0.5,0.3,0.7
		c0.2,0.2,0.4,0.3,0.7,0.3c0.3,0,0.5-0.1,0.7-0.3c0.2-0.2,0.3-0.4,0.3-0.7c0-0.3-0.1-0.5-0.3-0.6c-0.2-0.2-0.5-0.3-0.7-0.3
		C389.9,166.5,389.7,166.6,389.5,166.8z M389.5,163.4c-0.2,0.2-0.2,0.4-0.2,0.6c0,0.2,0.1,0.4,0.2,0.6c0.2,0.2,0.4,0.3,0.6,0.3
		c0.2,0,0.4,0,0.6-0.2c0.2-0.2,0.3-0.4,0.3-0.6c0-0.2-0.1-0.5-0.3-0.6c-0.2-0.2-0.3-0.2-0.6-0.2
		C389.9,163.2,389.7,163.3,389.5,163.4z"/>
	<path class="st4" d="M395,167.9h1.8l-2,3.7h-1.2L395,167.9z"/>
	<path class="st4" d="M400.2,169.8l2.2-2.7c-0.3,0.2-0.7,0.2-1.1,0.2c-0.7,0-1.3-0.2-1.8-0.7c-0.6-0.6-0.8-1.4-0.8-1.9
		c0-0.8,0.3-1.5,0.8-2c0.5-0.5,1.3-1,2.6-1c1.5,0,2.2,0.6,2.5,0.9c0.5,0.5,0.8,1.2,0.8,1.9c0,1.2-0.7,2.3-1.2,2.9l-1.8,2.3H400.2z
		 M401.3,163.8c-0.2,0.2-0.4,0.6-0.4,0.9s0.2,0.6,0.4,0.9c0.2,0.2,0.6,0.4,0.9,0.4c0.3,0,0.6-0.1,0.9-0.3c0.2-0.2,0.4-0.6,0.4-0.9
		s-0.2-0.7-0.4-0.9c-0.2-0.2-0.6-0.4-0.9-0.4C401.9,163.4,401.6,163.5,401.3,163.8z"/>
</g>
<g>
	<path class="st4" d="M493.4,166.3c0.5,0.5,0.6,1,0.6,1.4c0,0.5-0.2,1.1-0.6,1.5c-0.3,0.3-1,0.8-2.4,0.8c-1.3,0-2-0.5-2.4-0.8
		c-0.4-0.4-0.6-1-0.6-1.5c0-0.5,0.2-1.1,0.6-1.4c0.2-0.2,0.6-0.5,1-0.6c-0.3-0.1-0.5-0.3-0.7-0.4c-0.2-0.2-0.5-0.6-0.5-1.3
		c0-0.6,0.3-1.1,0.6-1.5c0.5-0.4,1.2-0.7,2.1-0.7c0.8,0,1.6,0.3,2,0.8c0.3,0.3,0.6,0.8,0.6,1.4c0,0.6-0.2,1-0.5,1.2
		c-0.2,0.2-0.5,0.4-0.8,0.5C492.8,165.8,493.1,166.1,493.4,166.3z M490.3,166.8c-0.2,0.2-0.3,0.4-0.3,0.6c0,0.2,0.1,0.5,0.3,0.7
		c0.2,0.2,0.4,0.3,0.7,0.3c0.3,0,0.5-0.1,0.7-0.3c0.2-0.2,0.3-0.4,0.3-0.7c0-0.3-0.1-0.5-0.3-0.6c-0.2-0.2-0.5-0.3-0.7-0.3
		C490.7,166.5,490.5,166.6,490.3,166.8z M490.3,163.4c-0.2,0.2-0.2,0.4-0.2,0.6c0,0.2,0.1,0.4,0.2,0.6c0.2,0.2,0.4,0.3,0.6,0.3
		c0.2,0,0.4,0,0.6-0.2c0.2-0.2,0.3-0.4,0.3-0.6c0-0.2-0.1-0.5-0.3-0.6c-0.2-0.2-0.3-0.2-0.6-0.2
		C490.7,163.2,490.5,163.3,490.3,163.4z"/>
	<path class="st4" d="M496.9,167.2c0,0.3,0.1,0.6,0.3,0.8c0.2,0.2,0.5,0.3,0.8,0.3c0.4,0,0.6-0.2,0.8-0.3c0.2-0.2,0.2-0.4,0.2-0.6
		c0-0.3-0.2-0.6-0.3-0.7c-0.2-0.2-0.5-0.2-0.8-0.2c-0.1,0-0.2,0-0.3,0V165c0.4,0.1,0.7-0.1,0.8-0.2c0.2-0.2,0.3-0.4,0.3-0.6
		c0-0.2-0.1-0.4-0.2-0.6c-0.1-0.1-0.4-0.2-0.6-0.2c-0.2,0-0.4,0.1-0.6,0.2c-0.2,0.2-0.3,0.4-0.3,0.7h-1.9c0-0.8,0.4-1.5,0.8-1.8
		c0.6-0.6,1.3-0.8,2.1-0.8c0.6,0,1.4,0.1,2,0.7c0.4,0.4,0.6,0.9,0.6,1.5c0,0.3-0.1,0.6-0.2,1c-0.1,0.3-0.3,0.5-0.6,0.6
		c0.5,0.2,0.8,0.5,0.9,0.7c0.2,0.3,0.3,0.7,0.3,1.2c0,0.8-0.4,1.4-0.7,1.7c-0.4,0.4-1.2,0.8-2.4,0.8c-0.8,0-1.6-0.2-2.3-0.8
		c-0.4-0.4-0.9-1-1-2.1H496.9z"/>
	<path class="st4" d="M503,167.9h1.8l-2,3.7h-1.2L503,167.9z"/>
	<path class="st4" d="M508.1,169.8l2.2-2.7c-0.3,0.2-0.7,0.2-1.1,0.2c-0.7,0-1.3-0.2-1.8-0.7c-0.6-0.6-0.8-1.4-0.8-1.9
		c0-0.8,0.3-1.5,0.8-2c0.5-0.5,1.3-1,2.6-1c1.5,0,2.2,0.6,2.5,0.9c0.5,0.5,0.8,1.2,0.8,1.9c0,1.2-0.7,2.3-1.2,2.9l-1.8,2.3H508.1z
		 M509.2,163.8c-0.2,0.2-0.4,0.6-0.4,0.9s0.2,0.6,0.4,0.9c0.2,0.2,0.6,0.4,0.9,0.4c0.3,0,0.6-0.1,0.9-0.3c0.2-0.2,0.4-0.6,0.4-0.9
		s-0.2-0.7-0.4-0.9c-0.2-0.2-0.6-0.4-0.9-0.4C509.8,163.4,509.5,163.5,509.2,163.8z"/>
</g>
<g>
	<path class="st4" d="M400.6,140.6l2.2-2.7c-0.3,0.2-0.7,0.2-1.1,0.2c-0.7,0-1.3-0.2-1.8-0.7c-0.6-0.6-0.8-1.4-0.8-1.9
		c0-0.8,0.3-1.5,0.8-2c0.5-0.5,1.3-1,2.6-1c1.5,0,2.2,0.6,2.5,0.9c0.5,0.5,0.8,1.2,0.8,1.9c0,1.2-0.7,2.3-1.2,2.9l-1.8,2.3H400.6z
		 M401.7,134.5c-0.2,0.2-0.4,0.6-0.4,0.9s0.2,0.6,0.4,0.9c0.2,0.2,0.6,0.4,0.9,0.4c0.3,0,0.6-0.1,0.9-0.3c0.2-0.2,0.4-0.6,0.4-0.9
		s-0.2-0.7-0.4-0.9c-0.2-0.2-0.6-0.4-0.9-0.4C402.3,134.2,402,134.2,401.7,134.5z"/>
	<path class="st4" d="M411.9,137.5h1v1.6h-1v1.5H410v-1.5h-3.8v-1.3l3-5.1h2.7V137.5z M410,137.5v-3.2l-1.9,3.2H410z"/>
	<path class="st4" d="M414.5,138.6h1.8l-2,3.7H413L414.5,138.6z"/>
	<path class="st4" d="M423.9,137.5h1v1.6h-1v1.5H422v-1.5h-3.8v-1.3l3-5.1h2.7V137.5z M422,137.5v-3.2l-1.9,3.2H422z"/>
</g>
<g>
	<path class="st4" d="M492.9,132.7l-2.2,2.7c0.3-0.1,0.7-0.2,1.1-0.2c0.6,0,1.3,0.2,1.8,0.8c0.6,0.6,0.7,1.2,0.7,1.9
		c0,0.7-0.2,1.4-0.8,2.1c-0.8,0.8-1.8,0.9-2.5,0.9c-1.4,0-2.1-0.5-2.6-1c-0.4-0.4-0.7-1-0.7-1.8c0-1.1,0.5-2.1,1.2-2.9l1.8-2.3
		H492.9z M491.8,138.8c0.2-0.2,0.4-0.5,0.4-0.9c0-0.2-0.1-0.6-0.4-0.8c-0.3-0.3-0.7-0.4-0.9-0.4c-0.3,0-0.6,0.1-0.9,0.3
		c-0.2,0.2-0.4,0.5-0.4,0.8c0,0.3,0.1,0.7,0.3,0.9c0.3,0.3,0.7,0.4,0.9,0.4C491.3,139.2,491.6,139,491.8,138.8z"/>
	<path class="st4" d="M496.9,137.9c0,0.3,0.1,0.6,0.3,0.8c0.2,0.2,0.5,0.3,0.8,0.3c0.4,0,0.6-0.2,0.8-0.3c0.2-0.2,0.2-0.4,0.2-0.6
		c0-0.3-0.2-0.6-0.3-0.7c-0.2-0.2-0.5-0.2-0.8-0.2c-0.1,0-0.2,0-0.3,0v-1.4c0.4,0.1,0.7-0.1,0.8-0.2c0.2-0.2,0.3-0.4,0.3-0.6
		c0-0.2-0.1-0.4-0.2-0.6c-0.1-0.1-0.4-0.2-0.6-0.2c-0.2,0-0.4,0.1-0.6,0.2c-0.2,0.2-0.3,0.4-0.3,0.7h-1.9c0-0.8,0.4-1.5,0.8-1.8
		c0.6-0.6,1.3-0.8,2.1-0.8c0.6,0,1.4,0.1,2,0.7c0.4,0.4,0.6,0.9,0.6,1.5c0,0.3-0.1,0.6-0.2,1c-0.1,0.3-0.3,0.5-0.6,0.6
		c0.5,0.2,0.8,0.5,0.9,0.7c0.2,0.3,0.3,0.7,0.3,1.2c0,0.8-0.4,1.4-0.7,1.7c-0.4,0.4-1.2,0.8-2.4,0.8c-0.8,0-1.6-0.2-2.3-0.8
		c-0.4-0.4-0.9-1-1-2.1H496.9z"/>
	<path class="st4" d="M503,138.6h1.8l-2,3.7h-1.2L503,138.6z"/>
	<path class="st4" d="M512.4,137.1c0.5,0.5,0.6,1,0.6,1.4c0,0.5-0.2,1.1-0.6,1.5c-0.3,0.3-1,0.8-2.4,0.8c-1.3,0-2-0.5-2.4-0.8
		c-0.4-0.4-0.6-1-0.6-1.5c0-0.5,0.2-1.1,0.6-1.4c0.2-0.2,0.6-0.5,1-0.6c-0.3-0.1-0.5-0.3-0.7-0.4c-0.2-0.2-0.5-0.6-0.5-1.3
		c0-0.6,0.3-1.1,0.6-1.5c0.5-0.4,1.2-0.7,2.1-0.7c0.8,0,1.6,0.3,2,0.8c0.3,0.3,0.6,0.8,0.6,1.4c0,0.6-0.2,1-0.5,1.2
		c-0.2,0.2-0.5,0.4-0.8,0.5C511.9,136.6,512.2,136.8,512.4,137.1z M509.4,137.6c-0.2,0.2-0.3,0.4-0.3,0.6c0,0.2,0.1,0.5,0.3,0.7
		c0.2,0.2,0.4,0.3,0.7,0.3c0.3,0,0.5-0.1,0.7-0.3c0.2-0.2,0.3-0.4,0.3-0.7c0-0.3-0.1-0.5-0.3-0.6c-0.2-0.2-0.5-0.3-0.7-0.3
		C509.8,137.3,509.6,137.4,509.4,137.6z M509.4,134.2c-0.2,0.2-0.2,0.4-0.2,0.6c0,0.2,0.1,0.4,0.2,0.6c0.2,0.2,0.4,0.3,0.6,0.3
		c0.2,0,0.4,0,0.6-0.2c0.2-0.2,0.3-0.4,0.3-0.6c0-0.2-0.1-0.5-0.3-0.6c-0.2-0.2-0.3-0.2-0.6-0.2C509.8,133.9,509.6,134,509.4,134.2z
		"/>
</g>
<g>
	<path class="st4" d="M414.4,108.5c0.5,0.5,0.6,1,0.6,1.4c0,0.5-0.2,1.1-0.6,1.5c-0.3,0.3-1,0.8-2.4,0.8c-1.3,0-2-0.5-2.4-0.8
		c-0.4-0.4-0.6-1-0.6-1.5c0-0.5,0.2-1.1,0.6-1.4c0.2-0.2,0.6-0.5,1-0.6c-0.3-0.1-0.5-0.3-0.7-0.4c-0.2-0.2-0.5-0.6-0.5-1.3
		c0-0.6,0.3-1.1,0.6-1.5c0.5-0.4,1.2-0.7,2.1-0.7c0.8,0,1.6,0.3,2,0.8c0.3,0.3,0.6,0.8,0.6,1.4c0,0.6-0.2,1-0.5,1.2
		c-0.2,0.2-0.5,0.4-0.8,0.5C413.9,108,414.2,108.2,414.4,108.5z M411.4,109c-0.2,0.2-0.3,0.4-0.3,0.6c0,0.2,0.1,0.5,0.3,0.7
		c0.2,0.2,0.4,0.3,0.7,0.3c0.3,0,0.5-0.1,0.7-0.3c0.2-0.2,0.3-0.4,0.3-0.7c0-0.3-0.1-0.5-0.3-0.6c-0.2-0.2-0.5-0.3-0.7-0.3
		C411.8,108.7,411.6,108.8,411.4,109z M411.4,105.6c-0.2,0.2-0.2,0.4-0.2,0.6c0,0.2,0.1,0.4,0.2,0.6c0.2,0.2,0.4,0.3,0.6,0.3
		c0.2,0,0.4,0,0.6-0.2c0.2-0.2,0.3-0.4,0.3-0.6c0-0.2-0.1-0.5-0.3-0.6c-0.2-0.2-0.3-0.2-0.6-0.2
		C411.8,105.3,411.5,105.5,411.4,105.6z"/>
	<path class="st4" d="M421.5,108.5c0.5,0.5,0.6,1,0.6,1.4c0,0.5-0.2,1.1-0.6,1.5c-0.3,0.3-1,0.8-2.4,0.8c-1.3,0-2-0.5-2.4-0.8
		c-0.4-0.4-0.6-1-0.6-1.5c0-0.5,0.2-1.1,0.6-1.4c0.2-0.2,0.6-0.5,1-0.6c-0.3-0.1-0.5-0.3-0.7-0.4c-0.2-0.2-0.5-0.6-0.5-1.3
		c0-0.6,0.3-1.1,0.6-1.5c0.5-0.4,1.2-0.7,2.1-0.7c0.8,0,1.6,0.3,2,0.8c0.3,0.3,0.6,0.8,0.6,1.4c0,0.6-0.2,1-0.5,1.2
		c-0.2,0.2-0.5,0.4-0.8,0.5C420.9,108,421.3,108.2,421.5,108.5z M418.5,109c-0.2,0.2-0.3,0.4-0.3,0.6c0,0.2,0.1,0.5,0.3,0.7
		c0.2,0.2,0.4,0.3,0.7,0.3c0.3,0,0.5-0.1,0.7-0.3c0.2-0.2,0.3-0.4,0.3-0.7c0-0.3-0.1-0.5-0.3-0.6c-0.2-0.2-0.5-0.3-0.7-0.3
		C418.9,108.7,418.6,108.8,418.5,109z M418.5,105.6c-0.2,0.2-0.2,0.4-0.2,0.6c0,0.2,0.1,0.4,0.2,0.6c0.2,0.2,0.4,0.3,0.6,0.3
		c0.2,0,0.4,0,0.6-0.2c0.2-0.2,0.3-0.4,0.3-0.6c0-0.2-0.1-0.5-0.3-0.6c-0.2-0.2-0.3-0.2-0.6-0.2
		C418.8,105.3,418.6,105.5,418.5,105.6z"/>
	<path class="st4" d="M424,110.1h1.8l-2,3.7h-1.2L424,110.1z"/>
	<path class="st4" d="M433.4,109h1v1.6h-1v1.5h-1.9v-1.5h-3.8v-1.3l3-5.1h2.7V109z M431.5,109v-3.2l-1.9,3.2H431.5z"/>
</g>
<g>
	<path class="st4" d="M492.9,104.1l-2.2,2.7c0.3-0.1,0.7-0.2,1.1-0.2c0.6,0,1.3,0.2,1.8,0.8c0.6,0.6,0.7,1.2,0.7,1.9
		c0,0.7-0.2,1.4-0.8,2.1c-0.8,0.8-1.8,0.9-2.5,0.9c-1.4,0-2.1-0.5-2.6-1c-0.4-0.4-0.7-1-0.7-1.8c0-1.1,0.5-2.1,1.2-2.9l1.8-2.3
		H492.9z M491.8,110.2c0.2-0.2,0.4-0.5,0.4-0.9c0-0.2-0.1-0.6-0.4-0.8c-0.3-0.3-0.7-0.4-0.9-0.4c-0.3,0-0.6,0.1-0.9,0.3
		c-0.2,0.2-0.4,0.5-0.4,0.8c0,0.3,0.1,0.7,0.3,0.9c0.3,0.3,0.7,0.4,0.9,0.4C491.3,110.6,491.6,110.4,491.8,110.2z"/>
	<path class="st4" d="M496.9,109.3c0,0.3,0.1,0.6,0.3,0.8c0.2,0.2,0.5,0.3,0.8,0.3c0.4,0,0.6-0.2,0.8-0.3c0.2-0.2,0.2-0.4,0.2-0.6
		c0-0.3-0.2-0.6-0.3-0.7c-0.2-0.2-0.5-0.2-0.8-0.2c-0.1,0-0.2,0-0.3,0v-1.4c0.4,0.1,0.7-0.1,0.8-0.2c0.2-0.2,0.3-0.4,0.3-0.6
		c0-0.2-0.1-0.4-0.2-0.6c-0.1-0.1-0.4-0.2-0.6-0.2c-0.2,0-0.4,0.1-0.6,0.2c-0.2,0.2-0.3,0.4-0.3,0.7h-1.9c0-0.8,0.4-1.5,0.8-1.8
		c0.6-0.6,1.3-0.8,2.1-0.8c0.6,0,1.4,0.1,2,0.7c0.4,0.4,0.6,0.9,0.6,1.5c0,0.3-0.1,0.6-0.2,1c-0.1,0.3-0.3,0.5-0.6,0.6
		c0.5,0.2,0.8,0.5,0.9,0.7c0.2,0.3,0.3,0.7,0.3,1.2c0,0.8-0.4,1.4-0.7,1.7c-0.4,0.4-1.2,0.8-2.4,0.8c-0.8,0-1.6-0.2-2.3-0.8
		c-0.4-0.4-0.9-1-1-2.1H496.9z"/>
	<path class="st4" d="M503,110.1h1.8l-2,3.7h-1.2L503,110.1z"/>
	<path class="st4" d="M512.3,109h1v1.6h-1v1.5h-1.9v-1.5h-3.8v-1.3l3-5.1h2.7V109z M510.4,109v-3.2l-1.9,3.2H510.4z"/>
</g>
<g>
	<path class="st4" d="M439,80.4h1V82h-1v1.5h-1.9V82h-3.8v-1.3l3-5.1h2.7V80.4z M437.1,80.4v-3.2l-1.9,3.2H437.1z"/>
	<path class="st4" d="M446.8,83.4h-6.3l2-2.1c0.7-0.7,1.2-1.4,1.6-2c0.2-0.3,0.4-0.7,0.4-1.2c0-0.1,0-0.5-0.2-0.8
		c-0.1-0.1-0.3-0.2-0.6-0.2c-0.3,0-0.6,0.2-0.7,0.3c-0.2,0.2-0.3,0.7-0.3,1h-2.1c0-1,0.5-1.8,0.9-2.2c0.5-0.5,1.3-0.9,2.2-0.9
		c1.2,0,1.9,0.5,2.2,0.8c0.3,0.3,0.8,0.9,0.8,1.9c0,1-0.5,1.7-1.2,2.3l-1.3,1.2h2.6V83.4z"/>
	<path class="st4" d="M448.7,81.5h1.8l-2,3.7h-1.2L448.7,81.5z"/>
	<path class="st4" d="M458.1,80.4h1V82h-1v1.5h-1.9V82h-3.8v-1.3l3-5.1h2.7V80.4z M456.2,80.4v-3.2l-1.9,3.2H456.2z"/>
</g>
<g>
	<path class="st4" d="M503.7,75.6l-2.2,2.7c0.3-0.1,0.7-0.2,1.1-0.2c0.6,0,1.3,0.2,1.8,0.8c0.6,0.6,0.7,1.2,0.7,1.9
		c0,0.7-0.2,1.4-0.8,2.1c-0.8,0.8-1.8,0.9-2.5,0.9c-1.4,0-2.1-0.5-2.6-1c-0.4-0.4-0.7-1-0.7-1.8c0-1.1,0.5-2.1,1.2-2.9l1.8-2.3
		H503.7z M502.6,81.6c0.2-0.2,0.4-0.5,0.4-0.9c0-0.2-0.1-0.6-0.4-0.8c-0.3-0.3-0.7-0.4-0.9-0.4c-0.3,0-0.6,0.1-0.9,0.3
		c-0.2,0.2-0.4,0.5-0.4,0.8c0,0.3,0.1,0.7,0.3,0.9c0.3,0.3,0.7,0.4,0.9,0.4C502.1,82,502.4,81.8,502.6,81.6z"/>
	<path class="st4" d="M507.7,80.8c0,0.3,0.1,0.6,0.3,0.8c0.2,0.2,0.5,0.3,0.8,0.3c0.4,0,0.6-0.2,0.8-0.3c0.2-0.2,0.2-0.4,0.2-0.6
		c0-0.3-0.2-0.6-0.3-0.7c-0.2-0.2-0.5-0.2-0.8-0.2c-0.1,0-0.2,0-0.3,0v-1.4c0.4,0.1,0.7-0.1,0.8-0.2c0.2-0.2,0.3-0.4,0.3-0.6
		c0-0.2-0.1-0.4-0.2-0.6c-0.1-0.1-0.4-0.2-0.6-0.2c-0.2,0-0.4,0.1-0.6,0.2c-0.2,0.2-0.3,0.4-0.3,0.7H506c0-0.8,0.4-1.5,0.8-1.8
		c0.6-0.6,1.3-0.8,2.1-0.8c0.6,0,1.4,0.1,2,0.7c0.4,0.4,0.6,0.9,0.6,1.5c0,0.3-0.1,0.6-0.2,1c-0.1,0.3-0.3,0.5-0.6,0.6
		c0.5,0.2,0.8,0.5,0.9,0.7c0.2,0.3,0.3,0.7,0.3,1.2c0,0.8-0.4,1.4-0.7,1.7c-0.4,0.4-1.2,0.8-2.4,0.8c-0.8,0-1.6-0.2-2.3-0.8
		c-0.4-0.4-0.9-1-1-2.1H507.7z"/>
</g>
<g>
	<path class="st4" d="M441.4,52.5h1V54h-1v1.5h-1.9V54h-3.8v-1.3l3-5.1h2.7V52.5z M439.5,52.5v-3.2l-1.9,3.2H439.5z"/>
	<path class="st4" d="M448.5,49.4h-2.7l-0.1,0.9c0.3,0,0.5-0.1,0.6-0.1c1.1,0,1.7,0.4,2.1,0.8c0.4,0.4,0.7,1,0.7,1.9
		c0,0.9-0.4,1.6-0.8,2c-0.7,0.8-1.7,0.9-2.5,0.9c-1.2,0-2-0.3-2.7-0.7l0.3-1.9c0.4,0.4,0.8,0.6,0.9,0.6c0.4,0.2,0.8,0.3,1.2,0.3
		c0.4,0,0.8-0.1,1-0.4c0.2-0.2,0.3-0.5,0.3-0.8c0-0.4-0.2-0.7-0.4-0.9c-0.4-0.4-1.2-0.4-1.4-0.4c-0.6,0-1,0.1-1.5,0.3l0.7-4.2h4.1
		V49.4z"/>
	<path class="st4" d="M451.1,53.6h1.8l-2,3.7h-1.2L451.1,53.6z"/>
	<path class="st4" d="M460.4,52.5h1V54h-1v1.5h-1.9V54h-3.8v-1.3l3-5.1h2.7V52.5z M458.5,52.5v-3.2l-1.9,3.2H458.5z"/>
</g>
<g>
	<path class="st4" d="M494.4,52.5h1V54h-1v1.5h-1.9V54h-3.8v-1.3l3-5.1h2.7V52.5z M492.5,52.5v-3.2l-1.9,3.2H492.5z"/>
	<path class="st4" d="M502.3,55.5H496l2-2.1c0.7-0.7,1.2-1.4,1.6-2c0.2-0.3,0.4-0.7,0.4-1.2c0-0.1,0-0.5-0.2-0.8
		c-0.1-0.1-0.3-0.2-0.6-0.2c-0.3,0-0.6,0.2-0.7,0.3c-0.2,0.2-0.3,0.7-0.3,1h-2.1c0-1,0.5-1.8,0.9-2.2c0.5-0.5,1.3-0.9,2.2-0.9
		c1.2,0,1.9,0.5,2.2,0.8c0.3,0.3,0.8,0.9,0.8,1.9c0,1-0.5,1.7-1.2,2.3l-1.3,1.2h2.6V55.5z"/>
	<path class="st4" d="M504.1,53.6h1.8l-2,3.7h-1.2L504.1,53.6z"/>
	<path class="st4" d="M513.5,52.5h1V54h-1v1.5h-1.9V54h-3.8v-1.3l3-5.1h2.7V52.5z M511.6,52.5v-3.2l-1.9,3.2H511.6z"/>
</g>
<line class="st10" x1="532.9" y1="253.7" x2="532.9" y2="49"/>
<path class="st11" d="M532.9,45L532.9,45 M532.9,261.7L532.9,261.7"/>
<line class="st12" x1="588" y1="266.9" x2="9.2" y2="266.9"/>
<g>
	<defs>
		<rect id="SVGID_11_" x="4.8" width="603.4" height="340.3"/>
	</defs>
	<clipPath id="SVGID_12_">
		<use xlink:href="#SVGID_11_"  style="overflow:visible;"/>
	</clipPath>
	<path class="st13" d="M5.3,266.9L5.3,266.9 M595.9,266.9L595.9,266.9"/>
</g>
</svg>
