<?xml version="1.0" encoding="utf-8"?>
<!-- Generator: Adobe Illustrator 21.0.2, SVG Export Plug-In . SVG Version: 6.00 Build 0)  -->
<svg version="1.1" id="Слой_1" xmlns="http://www.w3.org/2000/svg" xmlns:xlink="http://www.w3.org/1999/xlink" x="0px" y="0px"
	 viewBox="0 0 16 16" style="enable-background:new 0 0 16 16;" xml:space="preserve">
<style type="text/css">
	.st0{fill:#204387;}
</style>
<path class="st0" d="M3.1,1.3v13.5c0,0.7,0.6,1.2,1.3,1.2h7.4c0.7,0,1.3-0.6,1.3-1.2V1.3c0-0.7-0.6-1.2-1.3-1.2H4.5
	C3.7,0,3.1,0.6,3.1,1.3z M11.6,1.1c0.4,0,0.7,0.3,0.7,0.7v12.5c0,0.4-0.3,0.7-0.7,0.7H7.7V1.1H11.6z M5.6,1.1v13.8H4.7
	c-0.4,0-0.7-0.3-0.7-0.7V1.8c0-0.4,0.3-0.7,0.7-0.7H5.6z"/>
</svg>
