<?xml version="1.0" encoding="utf-8"?>
<!-- Generator: Adobe Illustrator 23.0.3, SVG Export Plug-In . SVG Version: 6.00 Build 0)  -->
<svg version="1.1" id="Слой_1" xmlns="http://www.w3.org/2000/svg" xmlns:xlink="http://www.w3.org/1999/xlink" x="0px" y="0px"
	 viewBox="0 0 16 16" style="enable-background:new 0 0 16 16;" xml:space="preserve">
<style type="text/css">
	.st0{fill:#204387;}
	.st1{fill:#FFFFFF;}
</style>
<polygon class="st0" points="1,0 13.5,0 14.9,0.9 13.5,14.7 2,16 1,14.7 "/>
<rect x="2" y="0.9" class="st1" width="12.9" height="15.1"/>
<path class="st0" d="M12,8.4c0,0.6-0.5,1.1-1.1,1.1c-0.6,0-1.1-0.5-1.1-1.1c0-0.6,0.5-1.1,1.1-1.1S12,7.8,12,8.4"/>
<path class="st0" d="M12,4.7c0,0.6-0.5,1.1-1.1,1.1c-0.6,0-1.1-0.5-1.1-1.1c0-0.6,0.5-1.1,1.1-1.1C11.4,3.6,12,4.1,12,4.7"/>
<path class="st0" d="M14.9,16H2L2,0.9l12.8,0V16z M3.1,15h10.8v-13H3.1V15z"/>
</svg>
