<?xml version="1.0" encoding="utf-8"?>
<!-- Generator: Adobe Illustrator 21.0.2, SVG Export Plug-In . SVG Version: 6.00 Build 0)  -->
<svg version="1.1" id="Слой_1" xmlns="http://www.w3.org/2000/svg" xmlns:xlink="http://www.w3.org/1999/xlink" x="0px" y="0px"
	 viewBox="0 0 16 16" style="enable-background:new 0 0 16 16;" xml:space="preserve">
<style type="text/css">
	.st0{fill:#204387;}
	.st1{fill:#FFFFFF;}
</style>
<polygon class="st0" points="56.3,-8.8 49.1,-8.8 50.7,-10.4 48.8,-12.4 44.4,-8 44.4,-8 44.4,3.6 49.7,3.6 49.7,3.2 46.7,2.5 
	46.7,-6.5 48.4,-8.2 48.4,-0.9 49,-0.9 49,-7.8 53,-3.9 53.4,-4.3 49.5,-8.2 56.3,-8.2 "/>
<path class="st0" d="M0.7,0.7v14.6h14.6V0.7H0.7z M14,14.5H2.1v-11h5.6v0.1L7.7,3.7L2.9,8.4l0.4,0.4l4.5-4.5v5.1h0.5V4.4l4.5,4.5
	l0.4-0.4L8.4,3.7L8.3,3.6V3.5H14V14.5z"/>
<g>
	<path class="st0" d="M-73.6-23.7c-0.3,0-0.5,0.2-0.5,0.5v3.3c0,0.3,0.2,0.5,0.5,0.5s0.5-0.2,0.5-0.5v-3.3
		C-73.2-23.5-73.4-23.7-73.6-23.7z"/>
	<path class="st0" d="M-79.2-26.3v16h11.1v-16H-79.2z M-72-18.3v4.4c0,0.9-0.8,1.7-1.7,1.7s-1.7-0.8-1.7-1.7v-4.4
		c-1-0.6-1.8-1.7-1.8-3c0-1.9,1.5-3.4,3.4-3.4s3.4,1.5,3.4,3.4C-70.2-20-70.9-18.9-72-18.3z"/>
</g>
<polygon class="st0" points="69.3,-56.8 69.3,-52.4 58.3,-52.4 56.1,-56.8 "/>
<rect x="63.8" y="-52.6" class="st0" width="1.3" height="3"/>
<rect x="66.5" y="-52.3" transform="matrix(-1.836970e-16 1 -1 -1.836970e-16 18.1569 -116.0515)" class="st0" width="1.3" height="6.7"/>
<polygon class="st0" points="71.8,-46.8 70.5,-46.8 70.5,-48 70.5,-50 70.5,-51.1 71.8,-51.1 "/>
<circle class="st0" cx="64.4" cy="-48.9" r="1.1"/>
<path class="st0" d="M39.7-42.4h-7.4c-0.5,0-1,0.5-1,1v14c0,0.5,0.5,1,1,1h7.4c0.6,0,1-0.5,1-1v-14C40.7-42,40.2-42.4,39.7-42.4z
	 M36-27c-0.5,0-0.9-0.4-0.9-0.9s0.4-0.9,0.9-0.9s0.9,0.4,0.9,0.9S36.5-27,36-27z M39.6-31.3c0,0.5-0.4,0.9-0.9,0.9h-5.5
	c-0.5,0-0.9-0.4-0.9-0.9v-8.5c0-0.5,0.2-0.9,0.7-0.9h5.8c0.5,0,0.7,0.4,0.7,0.9V-31.3z"/>
<path class="st0" d="M67.4-36.1H53.7c-0.7,0-1.3,0.6-1.3,1.3v7.6c0,0.7,0.6,1.3,1.3,1.3h13.7c0.7,0,1.3-0.6,1.3-1.3v-7.6
	C68.7-35.5,68.1-36.1,67.4-36.1z M67.6-27.5c0,0.4-0.3,0.7-0.7,0.7H54.2c-0.4,0-0.7-0.3-0.7-0.7v-3.9h14.1V-27.5z M67.6-33.6H53.5
	v-0.9c0-0.4,0.3-0.7,0.7-0.7h12.7c0.4,0,0.7,0.3,0.7,0.7V-33.6z"/>
<path class="st0" d="M-23.9-57.7c1.7,0,3.1-0.5,4.1-1.5c0.7-0.7,1-1.6,1-2.9c0-1.2-0.5-2.2-1.2-2.8c-0.8-0.7-2-1.1-3.7-1.1
	c-1.4,0-2.5,0.1-3.3,0.3v9.2h-1.5v1.2h1.5v2.7h1.7v-2.7h4.7v-1.2h-4.7v-1.4C-24.9-57.7-24.4-57.7-23.9-57.7z M-25.3-64.4
	c0.3-0.1,0.9-0.1,1.6-0.1c1.9,0,3.1,0.9,3.1,2.6c0,1.8-1.3,2.8-3.3,2.8c-0.6,0-1,0-1.4-0.1V-64.4z"/>
<path class="st0" d="M2.7-44.2v16h8.5v-16H2.7z M7-39.2c-0.6,0-1.1-0.5-1.1-1.1c0-0.6,0.5-1.1,1.1-1.1c0.6,0,1.1,0.5,1.1,1.1
	C8.1-39.7,7.6-39.2,7-39.2z"/>
<g>
	<path class="st1" d="M0.6-29L-4-30.7c-0.5-0.2-0.8-0.8-0.6-1.3l3.1-8.6c0.2-0.5,0.8-0.8,1.3-0.6l4.6,1.7c0.5,0.2,0.8,0.8,0.6,1.3
		l-3.1,8.6C1.7-29.1,1.1-28.8,0.6-29z"/>
	<path class="st0" d="M0.5-28.8l-4.6-1.7c-0.6-0.2-1-1-0.8-1.6l3.1-8.6c0.2-0.6,1-1,1.6-0.8l4.6,1.7c0.6,0.2,1,1,0.8,1.6l-3.1,8.6
		C1.8-28.9,1.1-28.5,0.5-28.8z M-0.3-40.9c-0.4-0.1-0.8,0.1-1,0.5l-3.1,8.6c-0.1,0.4,0.1,0.8,0.5,1l4.6,1.7c0.4,0.1,0.8-0.1,1-0.5
		l3.1-8.6c0.1-0.4-0.1-0.8-0.5-1L-0.3-40.9z"/>
</g>
<path class="st0" d="M20.7-43.4v-0.7h-2.9v6.6h-2v4.1h2v5.4h2.9v-1h8.4v-14.3H20.7z M27.9-30.6h-7.3v-11.6h7.3V-30.6z"/>
<path class="st0" d="M23.8-40.2L23.8-40.2c-0.5,0-0.9,0.4-0.9,0.9v5.5c0,0.5,0.4,0.9,0.9,0.9h0c0.5,0,0.9-0.4,0.9-0.9v-5.5
	C24.7-39.8,24.3-40.2,23.8-40.2z"/>
<polygon class="st0" points="98.4,-54.4 98.4,-60.1 100.4,-60.1 100.4,-62.5 97.7,-62.5 97.7,-51.7 100.4,-51.7 100.4,-54.4 "/>
<g>
	<path class="st0" d="M-16.9-27.8v-1.7h-1.9v7.6h0v4.1h0v4.4h1.9v-2h5.4v-12.3H-16.9z M-14.7-17.5c-0.6,0-1.1-0.5-1.1-1.1
		s0.5-1.1,1.1-1.1s1.1,0.5,1.1,1.1S-14.1-17.5-14.7-17.5z"/>
	<rect x="-21.4" y="-21.9" class="st0" width="2" height="4.1"/>
</g>
</svg>
