<?xml version="1.0" encoding="utf-8"?>
<!-- Generator: Adobe Illustrator 21.0.2, SVG Export Plug-In . SVG Version: 6.00 Build 0)  -->
<svg version="1.1" id="Слой_1" xmlns="http://www.w3.org/2000/svg" xmlns:xlink="http://www.w3.org/1999/xlink" x="0px" y="0px"
	 viewBox="0 0 16 16" style="enable-background:new 0 0 16 16;" xml:space="preserve">
<style type="text/css">
	.st0{fill:#204387;}
</style>
<path class="st0" d="M8.3,9.6c1.7,0,3.1-0.5,4.1-1.5c0.7-0.7,1-1.6,1-2.9c0-1.2-0.5-2.2-1.2-2.8c-0.8-0.7-2-1.1-3.7-1.1
	C7.1,1.4,6,1.5,5.2,1.6v9.2H3.7v1.2h1.5v2.7h1.7v-2.7h4.7v-1.2H6.9V9.5C7.3,9.6,7.8,9.6,8.3,9.6z M6.9,2.9c0.3-0.1,0.9-0.1,1.6-0.1
	c1.9,0,3.1,0.9,3.1,2.6c0,1.8-1.3,2.8-3.3,2.8c-0.6,0-1,0-1.4-0.1V2.9z"/>
</svg>
