<?xml version="1.0" encoding="utf-8"?>
<!-- Generator: Adobe Illustrator 21.0.2, SVG Export Plug-In . SVG Version: 6.00 Build 0)  -->
<svg version="1.1" id="Слой_1" xmlns="http://www.w3.org/2000/svg" xmlns:xlink="http://www.w3.org/1999/xlink" x="0px" y="0px"
	 viewBox="0 0 16 16" style="enable-background:new 0 0 16 16;" xml:space="preserve">
<style type="text/css">
	.st0{fill:#204387;}
</style>
<path class="st0" d="M11.7,0H4.3c-0.5,0-1,0.5-1,1v14c0,0.5,0.5,1,1,1h7.4c0.6,0,1-0.5,1-1V1C12.7,0.5,12.2,0,11.7,0z M8,15.4
	c-0.5,0-0.9-0.4-0.9-0.9s0.4-0.9,0.9-0.9s0.9,0.4,0.9,0.9S8.5,15.4,8,15.4z M11.6,11.1c0,0.5-0.4,0.9-0.9,0.9H5.3
	c-0.5,0-0.9-0.4-0.9-0.9V2.6c0-0.5,0.2-0.9,0.7-0.9h5.8c0.5,0,0.7,0.4,0.7,0.9V11.1z"/>
</svg>
