<?xml version="1.0" encoding="utf-8"?>
<!-- Generator: Adobe Illustrator 23.0.3, SVG Export Plug-In . SVG Version: 6.00 Build 0)  -->
<svg version="1.1" id="Слой_1" xmlns="http://www.w3.org/2000/svg" xmlns:xlink="http://www.w3.org/1999/xlink" x="0px" y="0px"
	 viewBox="0 0 500 600" style="enable-background:new 0 0 500 600;" xml:space="preserve">
<style type="text/css">
	.st0{fill:none;stroke:#4E86B9;stroke-width:0.6;stroke-linejoin:round;stroke-miterlimit:10;}
	.st1{fill:none;stroke:#4E86B9;stroke-width:0.6;stroke-linecap:round;stroke-linejoin:round;stroke-miterlimit:10;}
	.st2{fill:none;stroke:#4E86B9;stroke-width:0.6;stroke-linecap:round;stroke-linejoin:round;}
	.st3{fill:none;stroke:#4E86B9;stroke-width:0.6;stroke-linecap:round;stroke-linejoin:round;stroke-dasharray:5.4756,2.7378;}
	.st4{fill:#4E86B9;}
</style>
<path class="st0" d="M195.6,394.8c0,0-110.9-99.9-111.1-100.1c-0.2-0.2-1-0.7-1.5-2.3c-0.5-1.6-1.9-2.3-1.8-5.1S82,106.1,82,106.1"
	/>
<path class="st0" d="M181.8,150.2l0-0.6l-29.9-26.9l-2.7,1.7L104,83.7L85.7,95.3c0,0,0,1.5,0,2.3c0,1.1-0.4,2-1.1,2.8
	c-0.6,0.7-1.6,1.8-2.4,3.9c-1.1,2.9,1.4,3.8,1.4,3.8s1.9-2.2,3.4-4.7c1.5-2.5,1.9-2.9,1.9-3.4s0.1-1.4-1.1-2.6"/>
<polyline class="st0" points="85.8,95.4 87.8,97.2 87.8,99.7 "/>
<path class="st0" d="M85.7,97.8c0,0,2.2,1.8,2.9,3"/>
<path class="st0" d="M85.6,105.7c0,0,0.1-1.5,1.1-2.9c1-1.4,1.2-2.9,1.2-2.9"/>
<line class="st0" x1="84.5" y1="100.8" x2="86.7" y2="102.7"/>
<polyline class="st0" points="149.1,124.2 149.1,123.6 104.4,83.4 107.1,81.7 151.7,122 151.7,122.8 "/>
<line class="st0" x1="149.1" y1="123.6" x2="151.7" y2="122"/>
<polyline class="st0" points="181.6,149.5 179,151.1 206.7,176 "/>
<polyline class="st0" points="208.9,173.5 182.5,149.7 179.8,151.4 206.9,175.7 "/>
<path class="st1" d="M236.1,167.9c0,0-2.8-3.4-5.4-4c-3.4-0.8-7-0.1-12,2.4c-5,2.5-12.6,8.7-17.7,17.5s-4.4,14.6-4.4,15.6
	s-1,224.5-1,224.5s-0.2,5,2.4,7.4c2,1.9,2.7,2.5,2.7,2.5"/>
<path class="st1" d="M238.2,262.4l0.6-87.5c-0.2-8.5-6.1-10-14.6-7c-4.1,1.4-12.4,7-18.6,16.1c-6.3,9.1-5.9,15.3-6,16.7
	s-1,226.4-1,226.4s-0.2,7.2,5.4,8.5c5.3,1.3,10.3-0.9,17.9-6.6c0,0,7.6-5.8,12.4-14.9c3.5-6.7,3.5-10.9,3.5-12.5
	c0-1.6,0.3-67,0.3-67"/>
<ellipse transform="matrix(0.6741 -0.7386 0.7386 0.6741 -235.431 296.3694)" class="st1" cx="218.2" cy="415" rx="10.4" ry="5.2"/>
<path class="st1" d="M211.2,416.5c0,0,2.5,1.7,6-2.2c4.1-4.5,1.7-6.5,1.7-6.5"/>
<g>
	<ellipse transform="matrix(0.6733 -0.7394 0.7394 0.6733 -86.4189 231.7561)" class="st1" cx="219" cy="213.7" rx="7.5" ry="3.7"/>
	
		<ellipse transform="matrix(0.6732 -0.7395 0.7395 0.6732 -86.3168 231.6252)" class="st1" cx="218.9" cy="213.5" rx="6.4" ry="3.2"/>
	<line class="st1" x1="213.4" y1="216.7" x2="214.2" y2="217.9"/>
</g>
<polygon class="st1" points="218.2,213.4 218.2,211.9 219.6,211 219.6,212.5 221.4,211.4 221.4,212.6 219.6,213.7 219.6,215.3 
	218.2,216.2 218.2,214.6 216.4,215.8 216.4,214.6 "/>
<line class="st1" x1="219.6" y1="212.5" x2="218.5" y2="211.7"/>
<line class="st1" x1="219.6" y1="213.7" x2="218.3" y2="212.6"/>
<line class="st1" x1="218.1" y1="214.6" x2="217.4" y2="213.9"/>
<line class="st1" x1="219.6" y1="215" x2="218.1" y2="213.6"/>
<line class="st1" x1="221.4" y1="212.6" x2="220.4" y2="212"/>
<path class="st1" d="M226,179.3c2.1,1.9,0.8,6.9-3,11.2c-3.8,4.3-8.6,6.3-10.8,4.4c-2.1-1.9-0.8-6.9,3-11.2
	C219.1,179.4,223.9,177.4,226,179.3z"/>
<path class="st1" d="M212.1,188.6c0,0,2.1,2.3,6.2-2.3c4.1-4.5,1.7-6.4,1.7-6.4"/>
<line class="st1" x1="215.3" y1="183.8" x2="218.1" y2="186.3"/>
<line class="st1" x1="215.4" y1="183.6" x2="218.3" y2="186.1"/>
<line class="st1" x1="217.7" y1="181.4" x2="220.1" y2="183.6"/>
<g>
	<path class="st1" d="M186.7,371.7c2.2,3.4,2.8,6.9,1.4,7.8c-1.4,0.9-4.4-1.1-6.6-4.5c-2.2-3.4-2.8-6.9-1.4-7.8
		C181.6,366.3,184.5,368.3,186.7,371.7z"/>
	<path class="st1" d="M186.1,372.1c1.7,2.6,2.1,5.2,1,5.9c-1.1,0.7-3.3-0.8-4.9-3.4c-1.7-2.6-2.1-5.2-1-5.9
		C182.2,368,184.4,369.6,186.1,372.1z"/>
	<path class="st1" d="M185.6,372.5c1.2,1.8,1.5,3.7,0.7,4.2c-0.8,0.5-2.4-0.6-3.5-2.4c-1.2-1.8-1.5-3.7-0.7-4.2
		C182.8,369.6,184.4,370.6,185.6,372.5z"/>
	<line class="st1" x1="187.1" y1="378" x2="188.9" y2="377"/>
	<line class="st1" x1="181.2" y1="368.7" x2="182.7" y2="367.6"/>
</g>
<g>
	<path class="st1" d="M160.7,305.5c2.2,3.4,2.7,6.9,1.3,7.8c-1.4,0.9-4.3-1.1-6.5-4.6c-2.2-3.4-2.7-6.9-1.3-7.8
		C155.6,300,158.5,302.1,160.7,305.5z"/>
	<path class="st1" d="M160,305.9c1.6,2.6,2.1,5.2,1,5.9c-1.1,0.7-3.3-0.8-4.9-3.4c-1.6-2.6-2.1-5.2-1-5.9
		C156.2,301.8,158.4,303.3,160,305.9z"/>
	
		<ellipse transform="matrix(0.8456 -0.5339 0.5339 0.8456 -139.5533 131.8385)" class="st1" cx="158.1" cy="307.1" rx="1.7" ry="3.9"/>
	<line class="st1" x1="161" y1="311.8" x2="162.8" y2="310.8"/>
	<line class="st1" x1="155.1" y1="302.5" x2="156.7" y2="301.3"/>
</g>
<g>
	
		<ellipse transform="matrix(0.8457 -0.5337 0.5337 0.8457 -114.1415 115.4195)" class="st1" cx="142.5" cy="255.1" rx="3.1" ry="7.3"/>
	
		<ellipse transform="matrix(0.8457 -0.5337 0.5337 0.8457 -114.1368 115.4108)" class="st1" cx="142.5" cy="255.1" rx="2.3" ry="5.5"/>
	
		<ellipse transform="matrix(0.8457 -0.5336 0.5336 0.8457 -114.1214 115.3968)" class="st1" cx="142.5" cy="255.1" rx="1.7" ry="3.9"/>
	<line class="st1" x1="145.4" y1="259.7" x2="147.2" y2="258.7"/>
	<line class="st1" x1="139.5" y1="250.4" x2="141.1" y2="249.2"/>
</g>
<g>
	<ellipse transform="matrix(0.8457 -0.5337 0.5337 0.8457 -63.0539 72.1265)" class="st1" cx="93.2" cy="145.1" rx="3.1" ry="7.3"/>
	<path class="st1" d="M95.1,143.8c1.6,2.6,2.1,5.2,1,5.9c-1.1,0.7-3.3-0.8-4.9-3.4c-1.6-2.6-2.1-5.2-1-5.9
		C91.3,139.7,93.5,141.3,95.1,143.8z"/>
	<ellipse transform="matrix(0.8456 -0.5338 0.5338 0.8456 -63.0567 72.1528)" class="st1" cx="93.2" cy="145.1" rx="1.7" ry="3.9"/>
	<line class="st1" x1="96.1" y1="149.7" x2="97.9" y2="148.7"/>
	<line class="st1" x1="90.2" y1="140.4" x2="91.8" y2="139.2"/>
</g>
<g>
	
		<ellipse transform="matrix(0.8457 -0.5337 0.5337 0.8457 -92.9336 133.7374)" class="st1" cx="184.8" cy="227.6" rx="3.1" ry="7.3"/>
	
		<ellipse transform="matrix(0.8456 -0.5338 0.5338 0.8456 -92.945 133.7616)" class="st1" cx="184.8" cy="227.6" rx="2.3" ry="5.5"/>
	<path class="st1" d="M186.2,226.7c1.2,1.8,1.5,3.7,0.7,4.2c-0.8,0.5-2.4-0.6-3.5-2.4c-1.2-1.8-1.5-3.7-0.7-4.2
		C183.5,223.7,185.1,224.8,186.2,226.7z"/>
	<line class="st1" x1="187.7" y1="232.2" x2="189.5" y2="231.2"/>
	<line class="st1" x1="181.8" y1="222.9" x2="183.4" y2="221.7"/>
</g>
<g>
	<ellipse transform="matrix(0.8457 -0.5336 0.5336 0.8457 -126.7884 105.4836)" class="st1" cx="119" cy="272" rx="3.1" ry="7.3"/>
	<ellipse transform="matrix(0.8456 -0.5338 0.5338 0.8456 -126.8122 105.5364)" class="st1" cx="119" cy="272" rx="2.3" ry="5.5"/>
	
		<ellipse transform="matrix(0.8456 -0.5338 0.5338 0.8456 -126.8096 105.5519)" class="st1" cx="119.1" cy="272" rx="1.7" ry="3.9"/>
	<line class="st1" x1="122" y1="276.7" x2="123.6" y2="275.8"/>
	<line class="st1" x1="116.1" y1="267.3" x2="117.6" y2="266.2"/>
</g>
<polygon class="st1" points="149.1,286.5 125.1,264.8 125.1,261.8 149.1,283.4 "/>
<line class="st1" x1="125.1" y1="264.8" x2="127.1" y2="263.5"/>
<polygon class="st1" points="136.1,272.2 136.1,274.3 148.1,285.1 148.1,282.8 "/>
<line class="st1" x1="148.1" y1="285.1" x2="149.1" y2="284.5"/>
<ellipse transform="matrix(0.8439 -0.5364 0.5364 0.8439 -136.2207 151.3241)" class="st1" cx="192" cy="309.8" rx="1.6" ry="4"/>
<path class="st1" d="M194,310.2c0,0-1.1-0.8-1.6-2.5"/>
<g>
	
		<ellipse transform="matrix(0.8396 -0.5432 0.5432 0.8396 -153.3116 139.0335)" class="st1" cx="158.8" cy="329.1" rx="2.9" ry="6.8"/>
	<path class="st1" d="M163.2,333.1c0,0-2.1-0.6-4.5-4.1c-2.1-3.2-1.8-5.4-1.8-5.4"/>
	<line class="st1" x1="157.9" y1="327.4" x2="163.2" y2="332.1"/>
</g>
<path class="st1" d="M146,310.5c1.2,0.2,2.2,0,3.1-0.5c3.9-2.5,2.3-11.9-3.6-21.2c-5.9-9.2-13.7-14.7-17.6-12.2
	c-3.8,2.4-2.4,11.4,3.1,20.4l-0.1,19.9c0,0,0.1,5.8,5.3,11.9c5.2,6.2,7.9,4.9,8.5,4.6c0.8-0.4,1.2-1.2,1.3-3.7
	C145.9,327.3,146,310.5,146,310.5z"/>
<path class="st1" d="M144.2,333.5c0,0-10-5.8-10.7-16.6c0-9.6,0-19.9,0-19.9s-9.9-17.3-2.1-20.8"/>
<line class="st1" x1="133.6" y1="309.5" x2="150.2" y2="299.1"/>
<line class="st1" x1="137.3" y1="307.1" x2="133.6" y2="303.4"/>
<line class="st1" x1="134.2" y1="320.6" x2="145.9" y2="313.7"/>
<line class="st1" x1="143.7" y1="315.2" x2="145.9" y2="317.8"/>
<g>
	<path class="st1" d="M223.4,378.5c-3.9,4.4-8.9,6.3-11.1,4.3c-2.2-2-0.7-7.1,3.2-11.5c3.9-4.4,8.9-6.3,11.1-4.3
		C228.8,369,227.4,374.2,223.4,378.5z"/>
	<path class="st1" d="M212.4,382.9c0,0-2.9-2.1-0.9-7.1c2-5,6.6-8.6,9.7-9.6c2.9-0.9,4.5-0.1,5.5,0.9"/>
	<polygon class="st1" points="218.4,374.8 218.4,372.2 220.6,370.8 220.6,373.4 223.6,371.5 223.6,373.3 220.6,375.2 220.6,377.7 
		218.4,379.2 218.4,376.6 215.4,378.5 215.4,376.7 	"/>
	<line class="st1" x1="220.6" y1="373.4" x2="218.7" y2="372"/>
	<line class="st1" x1="223.5" y1="373.2" x2="222.1" y2="372.6"/>
	<line class="st1" x1="220.5" y1="375.2" x2="218.5" y2="373.6"/>
	<line class="st1" x1="220.6" y1="377.8" x2="218" y2="375.2"/>
	<line class="st1" x1="218.4" y1="376.6" x2="217.3" y2="375.6"/>
</g>
<ellipse transform="matrix(0.8443 -0.5359 0.5359 0.8443 -130.2888 130.6671)" class="st1" cx="159.7" cy="289.5" rx="0.7" ry="1.8"/>
<path class="st1" d="M158.7,288c0,0,0.2,2.1,2,2.9"/>
<ellipse transform="matrix(0.8438 -0.5366 0.5366 0.8438 -128.5003 135.577)" class="st1" cx="168.7" cy="288.6" rx="0.7" ry="1.8"/>
<path class="st1" d="M167.7,287c0,0,0.2,2.1,2,2.9"/>
<ellipse transform="matrix(0.8496 -0.5274 0.5274 0.8496 -127.3428 94.9795)" class="st1" cx="102.9" cy="270.8" rx="1.8" ry="4.4"/>
<path class="st1" d="M100.6,266.9c0.1-0.1,0.2-0.3,0.3-0.3c0.9-0.5,2.6,0.8,4,3c1.3,2.2,1.6,4.6,0.6,5"/>
<line class="st1" x1="100.6" y1="267.1" x2="104.5" y2="274.5"/>
<line class="st1" x1="100.9" y1="266.9" x2="105" y2="274.6"/>
<ellipse transform="matrix(0.8495 -0.5275 0.5275 0.8495 -132.5077 91.3239)" class="st1" cx="93.8" cy="278" rx="1.8" ry="4.4"/>
<path class="st1" d="M91.6,274.1c0.1-0.1,0.2-0.3,0.3-0.3c0.9-0.5,2.6,0.8,4,3c1.3,2.2,1.6,4.6,0.6,5"/>
<line class="st1" x1="91.6" y1="274.2" x2="95.4" y2="281.7"/>
<line class="st1" x1="91.9" y1="274.1" x2="96" y2="281.8"/>
<ellipse transform="matrix(0.8424 -0.5389 0.5389 0.8424 -77.0253 103.6214)" class="st1" cx="138.6" cy="183.5" rx="7.3" ry="17.4"/>
<path class="st1" d="M130,168.4c3.4-2.2,10.4,2.6,15.5,10.7c5.2,8.1,6.6,16.4,3.2,18.6"/>
<ellipse transform="matrix(0.842 -0.5395 0.5395 0.842 -77.0568 103.7417)" class="st1" cx="138.6" cy="183.4" rx="5.8" ry="13.9"/>
<path class="st1" d="M132.6,171.4c0,0,2.4,0.7,3,3.2c0.6,2.5-0.6,5.8-2.7,9.4c2.9,0.8,11.9,1.5,12.1,11.6c1.5-3.5,2.3-5.9,2.3-5.9"
	/>
<line class="st1" x1="132.9" y1="183.9" x2="141.9" y2="178.2"/>
<g>
	<path class="st1" d="M157.8,185c0,0,6,5.2,7,6.3c1,1.1,3.6,3.6,3.6,7c0,3-3.2,0.9-3.8,0.4c-0.5-0.5-6.6-5.9-7.2-6.7
		c-0.6-0.8-2.6-3.6-2.5-5.9C154.9,183.8,157,184.3,157.8,185z"/>
	<path class="st1" d="M168.2,197.7c0,0-5.8-4.8-7-6.1s-3.3-3.8-3.8-6.6"/>
	<line class="st1" x1="161.1" y1="188.1" x2="161.9" y2="192.1"/>
	<line class="st1" x1="164.6" y1="194.4" x2="166.3" y2="193.2"/>
	<line class="st1" x1="165.5" y1="195.3" x2="167.1" y2="194.4"/>
	<line class="st1" x1="158.6" y1="188" x2="158" y2="185.3"/>
</g>
<g>
	<path class="st1" d="M112.6,167.3c0,0,6,5.2,7,6.3c1,1.1,3.6,3.6,3.6,7c0,3-3.2,0.9-3.8,0.4c-0.5-0.5-6.6-5.9-7.2-6.7
		c-0.6-0.8-2.6-3.6-2.5-5.9C109.7,166.1,111.8,166.6,112.6,167.3z"/>
	<path class="st1" d="M123,180c0,0-5.8-4.8-7-6.1c-1.2-1.3-3.3-3.8-3.8-6.6"/>
</g>
<path class="st1" d="M113,169.5c0,0,1.7,1.9,5,2.7"/>
<path class="st1" d="M115.6,173.3c0,0,2.7,1.4,4.8,1.1"/>
<path class="st1" d="M118.9,176.5c0,0,1.2,0.3,3,0"/>
<polygon class="st1" points="105.6,201.5 105.6,180.9 108.5,183.7 108.5,204 "/>
<path class="st1" d="M417.6,401.6l0.2-50.2c0-6.8-7.5-4.7-11.6-1.7c-2.4,1.8-42.8,27.3-45.4,28.9c-2.5,1.6-2.4,2.6-2.6,3.4
	s-2,8.8-2.9,12.9c-0.9,4-1.9,14.4-1.9,15.7c-0.1,1.3-0.6,136.6-0.6,136.6s0.2,2.9,0.6,2.2c0.5-0.8,1-1.8,2.3-7.5
	c1.3-5.7,1.6-7.1,1.8-7.9c0.2-0.8,0-1.8,2.4-3.3c2.4-1.5,39.6-25.2,41.1-26.2s6.2-3.9,8-5.4c1.6-1.3,3.8-3.8,3.8-3.8"/>
<path class="st1" d="M353.1,549.3l-4.4-0.6c0,0-0.5,0.2-0.5-2.5c0-2.7,0.5-133.3,0.6-134.6c0-1.4,0.5-11.1,2.2-18.6
	c1.7-7.5,2.2-9.5,2.5-10.9c0.3-1.5,0.4-3.7,4.1-6c3.7-2.3,40.3-25.7,43.1-27.5s5.7-3.8,8.8-4.4c2.5-0.5,3.6,0.5,4,0.9
	c0.4,0.4,2.2,2,2.2,2"/>
<path class="st1" d="M418.4,489.3c0,0-2.5,4.5-6.3,6.3c-3.8,1.8-4.8-0.4-4.9-0.9c-0.1-0.5-0.3-1.3-0.2-1.8c0-0.5-0.6-0.4-1-0.1
	c-0.4,0.3-4.5,3-6.1,3.7c-1.6,0.7-6.2,2-6.2-3c0-5,0.2-50.2,0.2-51.6c0-1.4,0.5-4.6,4.7-9c3.1-3.2,5.9-4.4,6.8-5
	c0.9-0.6,1.8-0.7,1.8-2.2c0-1.5,0.3-5,5.2-8.9c4.3-3.5,6.6-1.5,6.9-1c0.3,0.5,0.4,1.4,0.4,1.9c0,0.5-0.1,1.3,1,0.6
	c1.2-0.8,4.6-3,5.6-3.5c1-0.4,6.7-2.7,6.7,2.5c0,5.2-0.1,14.6-0.1,14.6"/>
<path class="st1" d="M394.1,496c0,0-20.9-19.1-21.7-19.7c-0.8-0.6-1.2-1.6-1.2-3.1c0-1.4,0.3-49.1,0.3-50.1c0-1-0.6-5,4.5-10.3
	c2.8-2.9,8.3-5.9,8.3-5.9s0.4-3.8,2.5-7c2.1-3.2,4.7-4.8,6.9-5.3c1.4-0.3,2.6,0.3,2.9,0.6c0.3,0.3,22.5,20.2,22.5,20.2"/>
<path class="st1" d="M399.1,397.4c0,0,3.7-2.4,4.7-2.8c1-0.4,3.6-2.1,6.2,0.2c2.6,2.3,21.7,19.4,21.7,19.4"/>
<ellipse transform="matrix(0.6729 -0.7398 0.7398 0.6729 -176.4738 443.7011)" class="st1" cx="413.4" cy="421.4" rx="2.9" ry="1.5"/>
<ellipse transform="matrix(0.6729 -0.7398 0.7398 0.6729 -227.0657 465.8775)" class="st1" cx="413.2" cy="489.7" rx="2.9" ry="1.5"/>
<path class="st1" d="M418.5,489.3c0,0-10.1-8.9-10.6-9.5c-0.5-0.6-1-1.5-0.9-3.6"/>
<path class="st1" d="M418.6,486.6c0,0-13.6-12.1-14.4-12.8c-0.7-0.8-1.7-1.2-1.7-4.4c0-3.2,0-13.1,0.1-14.4c0.1-1.2,0.2-4,2.4-7.4
	c2.2-3.5,2.1-3.9,2.1-5.6c0-1.7,0.4-4.7,4.3-8.4c3.9-3.7,6.7-2.9,7.6-2.2c0.8,0.8,9.8,8.9,9.8,8.9"/>
<path class="st1" d="M417.8,485.9c0,0-0.9-1.1-0.9-3.4s0-13.8,0.1-14.7c0-0.9,0.1-3.2,1.8-6.1"/>
<polyline class="st1" points="429.6,498.6 422.3,503.2 418.6,499.8 418.7,478.5 "/>
<polyline class="st1" points="437.4,493.6 440.1,491.9 440.2,467.6 422.4,478.9 422.3,503.1 "/>
<line class="st1" x1="421.7" y1="478.2" x2="422.4" y2="478.9"/>
<line class="st1" x1="439.5" y1="466.9" x2="440.2" y2="467.6"/>
<polyline class="st1" points="440.3,463.4 441.3,462.7 441.3,465.8 419.9,479.4 416.9,476.7 416.9,473.6 419.9,476.3 421.7,475.2 
	"/>
<line class="st1" x1="419.9" y1="476.3" x2="419.9" y2="479.4"/>
<line class="st1" x1="441.3" y1="462.7" x2="440.3" y2="461.8"/>
<polyline class="st1" points="418.7,472.5 418.8,448.2 428.8,441.8 "/>
<polyline class="st1" points="418.8,448.2 422.5,451.6 429.2,447.4 "/>
<polyline class="st1" points="422.5,451.6 422.4,475.9 418.7,472.5 416.9,473.6 "/>
<polyline class="st1" points="422.4,475.9 440.3,464.5 440.4,440.2 436.6,436.9 435.8,437.4 "/>
<line class="st1" x1="440.4" y1="440.2" x2="435.9" y2="443"/>
<path class="st1" d="M435.6,434.6c0,1.5-1.5,2.6-3.5,2.6c-1.9,0-3.5-1.2-3.5-2.6c0-1.5,1.5-2.7,3.5-2.7
	C434.1,432,435.6,433.2,435.6,434.6z"/>
<path class="st1" d="M428.7,434.6c0,0,0.2,11,0.3,11.7c0.1,0.8,0.7,3.1,3.8,2.8c3.2-0.3,3.2-2.7,3.2-2.7l-0.4-11.6"/>
<line class="st1" x1="429.7" y1="448.2" x2="428.5" y2="453.4"/>
<path class="st1" d="M429.1,447.5l-2,8.6c0,0-0.1,0.5,0,1.2"/>
<path class="st1" d="M437.4,450.1c0,0-1-0.9-1.2-1c-0.2-0.1-1.2-1-3.9,0.5c-2.6,1.5-3.9,3.9-4.5,4.6c-0.5,0.8-1.2,2.8-0.6,4
	c0.6,1.3,2.2,2.2,2.2,2.2s1.1,1.2,2.4-0.7c1.3-1.9,4.5-6.4,4.8-7.1c0.3-0.7,1-1.3-0.5-2.9C436.6,449.8,437.4,450.1,437.4,450.1z"/>
<path class="st1" d="M437.4,450.1c0,0,1.4,1.2,0.1,3.1c-1.3,1.9-4.4,6.5-4.6,6.8c-0.3,0.3-0.8,1.3-2.1,0.8"/>
<path class="st1" d="M431.9,461c0,0,2.9-0.6,5-3.2c2.1-2.6,2.6-5.5,0.7-7.5"/>
<line class="st1" x1="437.2" y1="450.1" x2="436.9" y2="450.6"/>
<path class="st1" d="M437.4,486.5c0,0-1-0.9-1.2-1c-0.2-0.1-1.2-1-3.9,0.5c-2.6,1.5-3.9,3.9-4.5,4.6s-1.2,2.8-0.6,4
	c0.6,1.3,2.2,2.2,2.2,2.2s1.1,1.2,2.4-0.7c1.3-1.9,4.5-6.4,4.8-7.1c0.3-0.7,1-1.3-0.5-2.9C436.6,486.3,437.4,486.5,437.4,486.5z"/>
<path class="st1" d="M437.4,486.5c0,0,1.4,1.2,0.1,3.1c-1.3,1.9-4.4,6.5-4.6,6.8c-0.3,0.3-0.8,1.3-2.1,0.8"/>
<path class="st1" d="M431.9,497.4c0,0,2.9-0.6,5-3.2c2.1-2.6,2.6-5.5,0.7-7.5"/>
<line class="st1" x1="437.2" y1="486.5" x2="436.9" y2="487"/>
<path class="st1" d="M427.2,494.4c0,0-1.1-2.3,1.3-5.5c2.6-3.5,5-3.7,6.3-3.7"/>
<polyline class="st1" points="434.4,496.4 434.2,497.2 430.7,499.7 428.8,496.6 "/>
<polyline class="st1" points="430.7,499.7 429.7,498.9 428.2,496 "/>
<path class="st1" d="M429.7,498.8c-0.1,0.3-0.1,0.5-0.1,0.8c0.2,1.5,1.9,2.4,3.8,2.2s3.3-1.6,3.1-3.1c-0.1-1.1-1.1-1.9-2.4-2.2"/>
<path class="st1" d="M429.7,500l0.8,11c0,0,0.3,2.9,3.9,2.4c3.5-0.4,3.1-2.8,3.1-3c0-0.2-0.8-11.1-0.8-11.1"/>
<ellipse transform="matrix(0.6722 -0.7404 0.7404 0.6722 -149.007 412.2874)" class="st1" cx="391.1" cy="374.4" rx="5.2" ry="2.6"/>
<path class="st1" d="M394.6,370.7c0,0-1.2,3.9-6.7,7.6"/>
<path class="st1" d="M393.8,495.7c-0.3,0.7-0.8,1.4-1.4,2c-1.9,2.1-4.4,3.1-5.4,2.1c-1.1-1-0.4-3.5,1.6-5.6c0.6-0.7,1.3-1.2,1.9-1.6
	"/>
<path class="st1" d="M392.7,494.7c-1,1.4-2.7,3.3-5.4,5.1"/>
<line class="st1" x1="407.8" y1="495.6" x2="405.1" y2="493.3"/>
<line class="st1" x1="359.9" y1="379.1" x2="359" y2="531.3"/>
<line class="st1" x1="199.4" y1="200.9" x2="199.4" y2="123.7"/>
<line class="st1" x1="238.9" y1="174.6" x2="238.9" y2="101.2"/>
<line class="st1" x1="139.9" y1="339.7" x2="139.9" y2="91.6"/>
<line class="st1" x1="81.5" y1="117.1" x2="81.5" y2="16.8"/>
<line class="st1" x1="107" y1="80.9" x2="107" y2="54.6"/>
<line class="st1" x1="145.8" y1="193.7" x2="124.7" y2="207.9"/>
<line class="st1" x1="131.5" y1="185.1" x2="113.2" y2="196.8"/>
<line class="st1" x1="199.4" y1="152" x2="139.9" y2="98.2"/>
<line class="st1" x1="199.4" y1="131.5" x2="81.5" y2="23.8"/>
<line class="st1" x1="87.7" y1="297.4" x2="49.5" y2="264.1"/>
<line class="st1" x1="80.7" y1="97.4" x2="51.1" y2="71.9"/>
<line class="st1" x1="84.8" y1="95.3" x2="80.7" y2="97.4"/>
<line class="st1" x1="198.9" y1="456.2" x2="199" y2="423.9"/>
<line class="st1" x1="195.2" y1="452.7" x2="195.2" y2="423.2"/>
<line class="st1" x1="284" y1="145" x2="220" y2="186.9"/>
<line class="st1" x1="283.2" y1="372.6" x2="219.1" y2="413.9"/>
<line class="st1" x1="304.8" y1="376.5" x2="219.1" y2="431.5"/>
<line class="st1" x1="302.5" y1="117.1" x2="219.1" y2="169.7"/>
<line class="st1" x1="278.7" y1="375" x2="278.7" y2="148.3"/>
<line class="st1" x1="300.5" y1="378.5" x2="300.5" y2="118.3"/>
<line class="st1" x1="255.3" y1="238.3" x2="255.3" y2="164.3"/>
<line class="st1" x1="139.4" y1="294.9" x2="70" y2="232.1"/>
<line class="st1" x1="139.9" y1="182.8" x2="67.2" y2="117.5"/>
<line class="st1" x1="72.5" y1="234.3" x2="72.5" y2="122.8"/>
<line class="st1" x1="54.4" y1="268.2" x2="54.4" y2="75.1"/>
<line class="st1" x1="217.4" y1="463.5" x2="180.1" y2="429.3"/>
<line class="st1" x1="142.3" y1="216.9" x2="103.3" y2="180.8"/>
<line class="st1" x1="348.2" y1="413.9" x2="348.2" y2="365.2"/>
<line class="st1" x1="418" y1="369.6" x2="418" y2="322.6"/>
<line class="st1" x1="417.8" y1="325.1" x2="348.7" y2="369.4"/>
<line class="st1" x1="362.2" y1="528.5" x2="312.4" y2="561.1"/>
<line class="st1" x1="356.3" y1="376.9" x2="312.8" y2="404.6"/>
<line class="st1" x1="317.3" y1="557.4" x2="317.3" y2="402.2"/>
<g>
	<g>
		<g>
			<line class="st2" x1="346.9" y1="580" x2="348" y2="575.2"/>
			<line class="st3" x1="349" y1="570.8" x2="354.7" y2="546.8"/>
			<line class="st2" x1="355.2" y1="544.6" x2="356.3" y2="539.8"/>
		</g>
	</g>
</g>
<path class="st1" d="M326.7,552.1c3.7,9.6,10.9,15.1,22.7,16.4"/>
<line class="st1" x1="371.1" y1="508.5" x2="371.1" y2="470.4"/>
<line class="st1" x1="437.7" y1="556.6" x2="437.7" y2="507.3"/>
<line class="st1" x1="437.3" y1="551.3" x2="371.4" y2="495.3"/>
<line class="st1" x1="393.9" y1="442.2" x2="393.9" y2="409.3"/>
<line class="st1" x1="433.3" y1="418.5" x2="433.3" y2="384.1"/>
<line class="st1" x1="453.8" y1="376.7" x2="394.1" y2="414.5"/>
<g id="XMLID_90_">
	<g>
		<path class="st4" d="M255.2,164.2l1.8,10c-1.6-2.5-3.3,0-3.3,0L255.2,164.2L255.2,164.2z"/>
	</g>
	<g>
		<polyline class="st1" points="255.1,163.9 255.1,164.2 253.6,174.2 		"/>
		<line class="st1" x1="255.2" y1="164.2" x2="256.9" y2="174.2"/>
		<path class="st1" d="M253.6,174.2c0,0,1.6-2.5,3.3,0"/>
	</g>
</g>
<g id="XMLID_89_">
	<g>
		<path class="st4" d="M278.6,148.6l1.8,10c-1.6-2.5-3.3,0-3.3,0L278.6,148.6L278.6,148.6z"/>
	</g>
	<g>
		<polyline class="st1" points="278.5,148.3 278.5,148.6 277.1,158.6 		"/>
		<line class="st1" x1="278.6" y1="148.6" x2="280.3" y2="158.6"/>
		<path class="st1" d="M277.1,158.6c0,0,1.6-2.5,3.3,0"/>
	</g>
</g>
<g id="XMLID_88_">
	<g>
		<path class="st4" d="M300.3,118.6l1.8,10c-1.6-2.5-3.3,0-3.3,0L300.3,118.6L300.3,118.6z"/>
	</g>
	<g>
		<polyline class="st1" points="300.3,118.3 300.2,118.6 298.8,128.6 		"/>
		<line class="st1" x1="300.3" y1="118.6" x2="302.1" y2="128.6"/>
		<path class="st1" d="M298.8,128.6c0,0,1.6-2.5,3.3,0"/>
	</g>
</g>
<g id="XMLID_87_">
	<g>
		<path class="st4" d="M72.5,122.9l1.6,10c-1.6-2.5-3.3-0.1-3.3-0.1L72.5,122.9L72.5,122.9z"/>
	</g>
	<g>
		<polyline class="st1" points="72.5,122.7 72.4,122.9 70.9,132.9 		"/>
		<line class="st1" x1="72.5" y1="122.9" x2="74.1" y2="133"/>
		<path class="st1" d="M70.9,132.9c0,0,1.7-2.4,3.3,0.1"/>
	</g>
</g>
<g id="XMLID_86_">
	<g>
		<path class="st4" d="M317.4,402.5l1.8,10c-1.6-2.5-3.3,0-3.3,0L317.4,402.5L317.4,402.5z"/>
	</g>
	<g>
		<polyline class="st1" points="317.3,402.2 317.3,402.5 315.8,412.5 		"/>
		<line class="st1" x1="317.4" y1="402.5" x2="319.1" y2="412.5"/>
		<path class="st1" d="M315.8,412.5c0,0,1.6-2.5,3.3,0"/>
	</g>
</g>
<g id="XMLID_85_">
	<g>
		<path class="st4" d="M72.5,233.7l1.8-10c-1.6,2.5-3.3,0-3.3,0L72.5,233.7L72.5,233.7z"/>
	</g>
	<g>
		<polyline class="st1" points="72.4,234 72.4,233.8 71,223.7 		"/>
		<line class="st1" x1="72.5" y1="233.7" x2="74.3" y2="223.7"/>
		<path class="st1" d="M71,223.7c0,0,1.6,2.5,3.3,0"/>
	</g>
</g>
<g id="XMLID_84_">
	<g>
		<path class="st4" d="M54.4,267.9l1.8-10c-1.6,2.5-3.3,0-3.3,0L54.4,267.9L54.4,267.9z"/>
	</g>
	<g>
		<polyline class="st1" points="54.4,268.1 54.3,267.9 52.9,257.9 		"/>
		<line class="st1" x1="54.4" y1="267.9" x2="56.2" y2="257.9"/>
		<path class="st1" d="M52.9,257.9c0,0,1.6,2.5,3.3,0"/>
	</g>
</g>
<g id="XMLID_83_">
	<g>
		<path class="st4" d="M255.3,238l1.8-10c-1.6,2.5-3.3,0-3.3,0L255.3,238L255.3,238z"/>
	</g>
	<g>
		<polyline class="st1" points="255.2,238.3 255.2,238 253.8,228 		"/>
		<line class="st1" x1="255.3" y1="238" x2="257.1" y2="228"/>
		<path class="st1" d="M253.8,228c0,0,1.6,2.5,3.3,0"/>
	</g>
</g>
<g id="XMLID_82_">
	<g>
		<path class="st4" d="M278.7,375l1.8-10c-1.6,2.5-3.3,0-3.3,0L278.7,375L278.7,375z"/>
	</g>
	<g>
		<polyline class="st1" points="278.6,375.3 278.6,375.1 277.2,365.1 		"/>
		<line class="st1" x1="278.7" y1="375" x2="280.5" y2="365.1"/>
		<path class="st1" d="M277.2,365.1c0,0,1.6,2.5,3.3,0"/>
	</g>
</g>
<g id="XMLID_81_">
	<g>
		<path class="st4" d="M300.5,378.7l1.8-10c-1.6,2.5-3.3,0-3.3,0L300.5,378.7L300.5,378.7z"/>
	</g>
	<g>
		<polyline class="st1" points="300.4,379 300.4,378.8 299,368.7 		"/>
		<line class="st1" x1="300.5" y1="378.7" x2="302.2" y2="368.7"/>
		<path class="st1" d="M299,368.7c0,0,1.6,2.5,3.3,0"/>
	</g>
</g>
<g id="XMLID_80_">
	<g>
		<path class="st4" d="M317.3,557.4l1.8-10c-1.6,2.5-3.3,0-3.3,0L317.3,557.4L317.3,557.4z"/>
	</g>
	<g>
		<polyline class="st1" points="317.3,557.7 317.2,557.4 315.8,547.4 		"/>
		<line class="st1" x1="317.3" y1="557.4" x2="319.1" y2="547.4"/>
		<path class="st1" d="M315.8,547.4c0,0,1.6,2.5,3.3,0"/>
	</g>
</g>
<g id="XMLID_79_">
	<g>
		<path class="st4" d="M238.2,107l-9.2,4.3c3-0.1,1.9,2.7,1.9,2.7L238.2,107L238.2,107z"/>
	</g>
	<g>
		<polyline class="st1" points="238.4,106.9 238.2,107.1 230.8,114 		"/>
		<line class="st1" x1="238.2" y1="107" x2="229" y2="111.3"/>
		<path class="st1" d="M230.8,114c0,0,1.1-2.8-1.9-2.7"/>
	</g>
</g>
<g id="XMLID_78_">
	<g>
		<path class="st4" d="M417.5,325.1l-9.9,4.7c2.9,0.3,1.5,2.9,1.5,2.9l8.4-7.5L417.5,325.1z"/>
	</g>
	<g>
		<polyline class="st1" points="417.7,325 417.5,325.2 409.1,332.7 		"/>
		<line class="st1" x1="417.5" y1="325.1" x2="407.6" y2="329.8"/>
		<path class="st1" d="M409.1,332.7c0,0,1.4-2.6-1.5-2.9"/>
	</g>
</g>
<g id="XMLID_77_">
	<g>
		<path class="st4" d="M348.7,369.4l8.7-3.7c-2.9-0.3-1.6-2.9-1.6-2.9l-7.2,6.5L348.7,369.4z"/>
	</g>
	<g>
		<polyline class="st1" points="348.4,369.5 348.6,369.3 355.9,362.8 		"/>
		<line class="st1" x1="348.7" y1="369.4" x2="357.4" y2="365.7"/>
		<path class="st1" d="M355.9,362.8c0,0-1.4,2.6,1.6,2.9"/>
	</g>
</g>
<g id="XMLID_76_">
	<g>
		<path class="st4" d="M199.7,131.3l9.3-4c-3,0-1.8-2.8-1.8-2.8L199.7,131.3L199.7,131.3z"/>
	</g>
	<g>
		<polyline class="st1" points="199.4,131.4 199.6,131.2 207.2,124.6 		"/>
		<line class="st1" x1="199.7" y1="131.3" x2="209" y2="127.3"/>
		<path class="st1" d="M207.2,124.6c0,0-1.2,2.7,1.8,2.8"/>
	</g>
</g>
<g id="XMLID_75_">
	<g>
		<path class="st4" d="M82,75.9l9.2-4.3c-3,0.1-1.9-2.7-1.9-2.7L82,75.9L82,75.9z"/>
	</g>
	<g>
		<polyline class="st1" points="81.8,76 82,75.8 89.4,68.9 		"/>
		<line class="st1" x1="82" y1="75.9" x2="91.2" y2="71.6"/>
		<path class="st1" d="M89.4,68.9c0,0-1.1,2.8,1.9,2.7"/>
	</g>
</g>
<g id="XMLID_74_">
	<g>
		<path class="st4" d="M199.1,151.7l-6.3-8c0.7,2.9-2.2,2.5-2.2,2.5L199.1,151.7L199.1,151.7z"/>
	</g>
	<g>
		<polyline class="st1" points="199.3,151.9 199,151.8 190.6,146.2 		"/>
		<line class="st1" x1="199.1" y1="151.7" x2="192.8" y2="143.7"/>
		<path class="st1" d="M190.6,146.2c0,0,2.9,0.4,2.2-2.5"/>
	</g>
</g>
<g id="XMLID_73_">
	<g>
		<path class="st4" d="M117.2,193.5l-6.3-8c0.8,2.9-2.2,2.5-2.2,2.5L117.2,193.5L117.2,193.5z"/>
	</g>
	<g>
		<polyline class="st1" points="117.3,193.7 117.1,193.6 108.7,188 		"/>
		<line class="st1" x1="117.2" y1="193.5" x2="110.9" y2="185.5"/>
		<path class="st1" d="M108.7,188c0,0,2.9,0.4,2.2-2.5"/>
	</g>
</g>
<g id="XMLID_72_">
	<g>
		<path class="st4" d="M129.5,205.1l6.2,8c-0.7-2.9,2.2-2.4,2.2-2.4L129.5,205.1L129.5,205.1z"/>
	</g>
	<g>
		<polyline class="st1" points="129.3,204.9 129.6,205 137.9,210.7 		"/>
		<line class="st1" x1="129.5" y1="205.1" x2="135.7" y2="213.2"/>
		<path class="st1" d="M137.9,210.7c0,0-2.9-0.4-2.2,2.4"/>
	</g>
</g>
<g id="XMLID_71_">
	<g>
		<path class="st4" d="M199.1,446.8l6.1,8.1c-0.7-2.9,2.2-2.4,2.2-2.4L199.1,446.8L199.1,446.8z"/>
	</g>
	<g>
		<polyline class="st1" points="199,446.5 199.2,446.7 207.5,452.5 		"/>
		<line class="st1" x1="199.1" y1="446.8" x2="205.2" y2="454.9"/>
		<path class="st1" d="M207.5,452.5c0,0-2.9-0.5-2.2,2.4"/>
	</g>
</g>
<g id="XMLID_70_">
	<g>
		<path class="st4" d="M140.2,98.5l6.2,8c-0.7-2.9,2.2-2.4,2.2-2.4L140.2,98.5L140.2,98.5z"/>
	</g>
	<g>
		<polyline class="st1" points="140,98.2 140.2,98.4 148.6,104 		"/>
		<line class="st1" x1="140.2" y1="98.5" x2="146.4" y2="106.5"/>
		<path class="st1" d="M148.6,104c0,0-2.9-0.4-2.2,2.4"/>
	</g>
</g>
<g id="XMLID_69_">
	<g>
		<path class="st4" d="M81.7,23.9l6.1,8.1c-0.7-2.9,2.2-2.4,2.2-2.4L81.7,23.9L81.7,23.9z"/>
	</g>
	<g>
		<polyline class="st1" points="81.5,23.7 81.7,23.9 90,29.6 		"/>
		<line class="st1" x1="81.7" y1="23.9" x2="87.8" y2="32"/>
		<path class="st1" d="M90,29.6c0,0-2.9-0.5-2.2,2.4"/>
	</g>
</g>
<g id="XMLID_68_">
	<g>
		<path class="st4" d="M432.8,389.9l-9.3,4.1c3,0,1.8,2.7,1.8,2.7L432.8,389.9L432.8,389.9z"/>
	</g>
	<g>
		<polyline class="st1" points="433.1,389.8 432.9,389.9 425.4,396.7 		"/>
		<line class="st1" x1="432.8" y1="389.9" x2="423.5" y2="393.9"/>
		<path class="st1" d="M425.4,396.7c0,0,1.1-2.7-1.8-2.7"/>
	</g>
</g>
<g id="XMLID_67_">
	<g>
		<path class="st4" d="M394.4,414.4l9.3-4.1c-2.9,0-1.8-2.7-1.8-2.7L394.4,414.4L394.4,414.4z"/>
	</g>
	<g>
		<polyline class="st1" points="394.1,414.5 394.4,414.3 401.9,407.5 		"/>
		<line class="st1" x1="394.4" y1="414.4" x2="403.7" y2="410.3"/>
		<path class="st1" d="M401.9,407.5c0,0-1.1,2.7,1.8,2.7"/>
	</g>
</g>
<g id="XMLID_66_">
	<g>
		<path class="st4" d="M371.6,495.6l6.5,7.8c-0.8-2.8,2.1-2.5,2.1-2.5L371.6,495.6L371.6,495.6z"/>
	</g>
	<g>
		<polyline class="st1" points="371.4,495.3 371.7,495.5 380.2,500.9 		"/>
		<line class="st1" x1="371.6" y1="495.6" x2="378.1" y2="503.4"/>
		<path class="st1" d="M380.2,500.9c0,0-3-0.3-2.1,2.5"/>
	</g>
</g>
<g id="XMLID_65_">
	<g>
		<path class="st4" d="M349.1,568.5l-9.3-4c2,2.2-0.7,3.2-0.7,3.2L349.1,568.5L349.1,568.5z"/>
	</g>
	<g>
		<polyline class="st1" points="349.4,568.6 349.1,568.5 339,567.7 		"/>
		<line class="st1" x1="349.1" y1="568.5" x2="339.8" y2="564.5"/>
		<path class="st1" d="M339,567.7c0,0,2.8-1.1,0.7-3.2"/>
	</g>
</g>
<g id="XMLID_64_">
	<g>
		<path class="st4" d="M326.8,552.2l3.6,9.5c0.5-2.9,3-1.4,3-1.4L326.8,552.2L326.8,552.2z"/>
	</g>
	<g>
		<polyline class="st1" points="326.7,551.9 326.9,552.1 333.4,560.3 		"/>
		<line class="st1" x1="326.8" y1="552.2" x2="330.4" y2="561.7"/>
		<path class="st1" d="M333.4,560.3c0,0-2.5-1.6-3,1.4"/>
	</g>
</g>
<line class="st1" x1="443.7" y1="320.6" x2="405.1" y2="345.7"/>
<line class="st1" x1="448.4" y1="323" x2="410.8" y2="347.7"/>
<line class="st1" x1="453.3" y1="338.5" x2="423.8" y2="311.7"/>
<g id="XMLID_63_">
	<g>
		<path class="st4" d="M436.8,323.4l-6.4-7.8c0.7,2.9-2.2,2.4-2.2,2.4L436.8,323.4L436.8,323.4z"/>
	</g>
	<g>
		<polyline class="st1" points="437,323.7 436.8,323.5 428.2,318 		"/>
		<line class="st1" x1="436.8" y1="323.4" x2="430.5" y2="315.6"/>
		<path class="st1" d="M428.2,318c0,0,2.9,0.5,2.2-2.4"/>
	</g>
</g>
<g id="XMLID_62_">
	<g>
		<path class="st4" d="M441.3,327.7l5.7,8c-0.7-2.9,2.2-2.4,2.2-2.4L441.3,327.7L441.3,327.7z"/>
	</g>
	<g>
		<polyline class="st1" points="441.2,327.4 441.4,327.6 449.3,333.2 		"/>
		<line class="st1" x1="441.3" y1="327.7" x2="447.1" y2="335.6"/>
		<path class="st1" d="M449.3,333.2c0,0-2.9-0.5-2.2,2.4"/>
	</g>
</g>
<line class="st1" x1="461.4" y1="384.8" x2="413.2" y2="415.9"/>
<line class="st1" x1="460.7" y1="464.6" x2="412.5" y2="495.6"/>
<line class="st1" x1="455.3" y1="467.5" x2="455.3" y2="389.3"/>
<g id="XMLID_61_">
	<g>
		<path class="st4" d="M455.4,467.5l1.6-10c-1.6,2.5-3.3,0.1-3.3,0.1L455.4,467.5L455.4,467.5z"/>
	</g>
	<g>
		<polyline class="st1" points="455.4,467.8 455.3,467.5 453.7,457.5 		"/>
		<line class="st1" x1="455.4" y1="467.5" x2="457" y2="457.5"/>
		<path class="st1" d="M453.7,457.5c0,0,1.7,2.4,3.3-0.1"/>
	</g>
</g>
<g id="XMLID_60_">
	<g>
		<path class="st4" d="M455.3,389.5l1.8,10c-1.6-2.5-3.3,0-3.3,0L455.3,389.5L455.3,389.5z"/>
	</g>
	<g>
		<polyline class="st1" points="455.3,389.2 455.2,389.4 453.8,399.4 		"/>
		<line class="st1" x1="455.3" y1="389.5" x2="457.1" y2="399.4"/>
		<path class="st1" d="M453.8,399.4c0,0,1.6-2.5,3.3,0"/>
	</g>
</g>
<line class="st1" x1="333.9" y1="410.6" x2="390.4" y2="374.2"/>
<line class="st1" x1="333.3" y1="533.6" x2="390" y2="496.2"/>
<line class="st1" x1="338.3" y1="530.3" x2="338.3" y2="408.7"/>
<g id="XMLID_59_">
	<g>
		<path class="st4" d="M338.3,529.7l1.8-10c-1.6,2.5-3.3,0-3.3,0L338.3,529.7L338.3,529.7z"/>
	</g>
	<g>
		<polyline class="st1" points="338.2,530 338.2,529.7 336.8,519.7 		"/>
		<line class="st1" x1="338.3" y1="529.7" x2="340" y2="519.7"/>
		<path class="st1" d="M336.8,519.7c0,0,1.6,2.5,3.3,0"/>
	</g>
</g>
<g id="XMLID_58_">
	<g>
		<path class="st4" d="M338.3,408.4l1.8,10c-1.6-2.5-3.3,0-3.3,0L338.3,408.4L338.3,408.4z"/>
	</g>
	<g>
		<polyline class="st1" points="338.2,408.1 338.2,408.4 336.8,418.4 		"/>
		<line class="st1" x1="338.3" y1="408.4" x2="340" y2="418.4"/>
		<path class="st1" d="M336.8,418.4c0,0,1.6-2.5,3.3,0"/>
	</g>
</g>
<line class="st1" x1="72.5" y1="122.8" x2="72.5" y2="70.3"/>
<g id="XMLID_57_">
	<g>
		<path class="st4" d="M72.5,89.5l1.8-10c-1.6,2.5-3.3,0-3.3,0L72.5,89.5L72.5,89.5z"/>
	</g>
	<g>
		<polyline class="st1" points="72.4,89.8 72.4,89.6 71,79.6 		"/>
		<line class="st1" x1="72.5" y1="89.5" x2="74.3" y2="79.6"/>
		<path class="st1" d="M71,79.6c0,0,1.6,2.5,3.3,0"/>
	</g>
</g>
<line class="st1" x1="238.9" y1="106.8" x2="199.8" y2="131"/>
<line class="st1" x1="106.6" y1="60" x2="81.5" y2="76.1"/>
<g id="XMLID_56_">
	<g>
		<path class="st4" d="M54.3,75.1l1.8,10c-1.6-2.5-3.3,0-3.3,0L54.3,75.1L54.3,75.1z"/>
	</g>
	<g>
		<polyline class="st1" points="54.2,74.8 54.2,75.1 52.8,85.1 		"/>
		<line class="st1" x1="54.3" y1="75.1" x2="56.1" y2="85.1"/>
		<path class="st1" d="M52.8,85.1c0,0,1.6-2.5,3.3,0"/>
	</g>
</g>
<g id="XMLID_55_">
	<g>
		<path class="st4" d="M106.6,59.8l-9.2,4.3c3-0.1,1.9,2.7,1.9,2.7L106.6,59.8L106.6,59.8z"/>
	</g>
	<g>
		<polyline class="st1" points="106.8,59.7 106.7,59.9 99.3,66.8 		"/>
		<line class="st1" x1="106.6" y1="59.8" x2="97.4" y2="64.1"/>
		<path class="st1" d="M99.3,66.8c0,0,1.1-2.8-1.9-2.7"/>
	</g>
</g>
<g id="XMLID_54_">
	<g>
		<path class="st4" d="M199.2,131.2l-6.3-7.9c0.8,2.9-2.2,2.5-2.2,2.5L199.2,131.2L199.2,131.2z"/>
	</g>
	<g>
		<polyline class="st1" points="199.3,131.4 199.1,131.3 190.7,125.7 		"/>
		<line class="st1" x1="199.2" y1="131.2" x2="192.9" y2="123.2"/>
		<path class="st1" d="M190.7,125.7c0,0,2.9,0.4,2.2-2.5"/>
	</g>
</g>
<g id="XMLID_53_">
	<g>
		<path class="st4" d="M194.9,442.7l-6.4-7.9c0.8,2.9-2.1,2.5-2.1,2.5L194.9,442.7L194.9,442.7z"/>
	</g>
	<g>
		<polyline class="st1" points="195.1,442.9 194.8,442.8 186.3,437.3 		"/>
		<line class="st1" x1="194.9" y1="442.7" x2="188.5" y2="434.8"/>
		<path class="st1" d="M186.3,437.3c0,0,2.9,0.4,2.1-2.5"/>
	</g>
</g>
<g id="XMLID_52_">
	<g>
		<path class="st4" d="M437.5,551.3l-6.5-7.8c0.8,2.8-2.1,2.6-2.1,2.6L437.5,551.3L437.5,551.3z"/>
	</g>
	<g>
		<polyline class="st1" points="437.6,551.5 437.4,551.4 428.8,546.1 		"/>
		<line class="st1" x1="437.5" y1="551.3" x2="430.9" y2="543.5"/>
		<path class="st1" d="M428.8,546.1c0,0,2.9,0.3,2.1-2.6"/>
	</g>
</g>
<polyline class="st1" points="209.4,323.5 208.4,324.2 208.6,268.9 231.3,254.5 "/>
<path class="st1" d="M238.7,294.4c0,0,1.8,0.9,4-0.5c2.2-1.4,15.3-9.6,15.8-10.1c0.6-0.5,1.8-1,1.1-3"/>
<path class="st1" d="M259.9,282.4c0,0-0.2,39-0.2,39.7c0,0.7-0.1,1.5-1.5,2.4c-1.3,0.9-15.2,9.8-15.9,10.1c-0.7,0.4-2.3,1-3.9,0.4"
	/>
<path class="st1" d="M208.6,312.2c0,0,5.9,5.2,7.2,6.4c1,1,3.5,2.6,7.1,3.2"/>
<path class="st1" d="M208.6,313.6c0,0,5.5,4.9,6.8,6.1c1.1,1,3.6,2.8,7.5,3.6c0.6,0.1,1.2,0.2,1.9,0.2"/>
<line class="st1" x1="208.6" y1="318.9" x2="211.9" y2="316.8"/>
<path class="st1" d="M213.5,318.2c0,0-0.2,3.6,2.5,7.4c2.7,3.8,7.8,5.4,11.6,5.4c1.1,0,2.4-0.1,3.7-0.5c0.4-0.1,0.9-0.3,1.4-0.4"/>
<path class="st1" d="M208.6,321.2l6.9,6.2c0,0,5.1,4.5,12.2,3.6"/>
<path class="st1" d="M208.5,322.5l7,6.3c0,0,5.2,4.2,11.8,3.8c2.5-0.1,4.4-0.5,5.8-1.1c0.3-0.1,0.5-0.2,0.7-0.3"/>
<g>
	
		<ellipse transform="matrix(0.6685 -0.7438 0.7438 0.6685 -141.2135 286.2241)" class="st1" cx="250.4" cy="301.5" rx="9.5" ry="4.7"/>
	
		<ellipse transform="matrix(0.6682 -0.744 0.744 0.6682 -140.9023 285.3366)" class="st1" cx="249.4" cy="300.6" rx="7.5" ry="3.4"/>
	
		<ellipse transform="matrix(0.6685 -0.7437 0.7437 0.6685 -141.0266 285.4995)" class="st1" cx="249.7" cy="300.9" rx="8.3" ry="3.6"/>
	<path class="st1" d="M255.7,294c0,0,2,0.7,0.4,4.8c-1.2,3.2-3.8,6.3-6.9,8.2s-4.9,1.3-5.7,0.9"/>
</g>
<g>
	
		<ellipse transform="matrix(0.6683 -0.7439 0.7439 0.6683 -152.5832 291.3511)" class="st1" cx="250.4" cy="316.8" rx="9.5" ry="4.7"/>
	
		<ellipse transform="matrix(0.6684 -0.7438 0.7438 0.6684 -152.2453 290.2752)" class="st1" cx="249.4" cy="315.9" rx="7.5" ry="3.4"/>
	
		<ellipse transform="matrix(0.6685 -0.7437 0.7437 0.6685 -152.3647 290.5535)" class="st1" cx="249.7" cy="316.2" rx="8.3" ry="3.6"/>
	<path class="st1" d="M255.7,309.2c0,0,2,0.7,0.4,4.8c-1.2,3.2-3.8,6.3-6.9,8.2s-4.9,1.3-5.7,0.9"/>
</g>
<path class="st1" d="M215.2,328.8c0,0-2.4,4-0.4,5.8c2,1.8,6.4-1.6,7.1-2.5"/>
<path class="st1" d="M215.5,329c0,0-1.7,3-0.3,4.6c1.4,1.6,5.3-1.1,5.9-1.8"/>
<polyline class="st1" points="219.2,331.2 218,331.5 218.2,330.7 217,329.9 "/>
<path class="st1" d="M224.3,245c0,0-0.5-0.7-1.5-1"/>
<g>
	
		<ellipse transform="matrix(0.6732 -0.7395 0.7395 0.6732 -112.9004 244.4133)" class="st1" cx="220.1" cy="249.9" rx="7.5" ry="3.7"/>
	
		<ellipse transform="matrix(0.6732 -0.7394 0.7394 0.6732 -112.8271 244.2204)" class="st1" cx="219.9" cy="249.8" rx="6.4" ry="3.2"/>
	<line class="st1" x1="214.5" y1="253" x2="215.3" y2="254.2"/>
	<polygon class="st1" points="219.8,249 220.8,247.2 222,247.1 221,249 222.4,249 221.5,250.5 220.1,250.5 219.1,252.4 217.9,252.5 
		218.9,250.6 217.5,250.6 218.3,249.1 	"/>
	<line class="st1" x1="221" y1="249" x2="220.2" y2="248.3"/>
	<line class="st1" x1="221.5" y1="250.5" x2="219.8" y2="249.1"/>
	<line class="st1" x1="220.1" y1="250.5" x2="218.5" y2="249.1"/>
	<line class="st1" x1="218.9" y1="250.6" x2="218.1" y2="249.8"/>
	<line class="st1" x1="219" y1="252.3" x2="218.5" y2="251.6"/>
</g>
<line class="st1" x1="276.4" y1="312.8" x2="254.7" y2="326.9"/>
<line class="st1" x1="208.2" y1="271.1" x2="208.2" y2="240"/>
<line class="st1" x1="231.6" y1="256.5" x2="231.6" y2="226.8"/>
<g id="XMLID_51_">
	<g>
		<path class="st4" d="M273.5,274.3l1.8,10c-1.6-2.5-3.3,0-3.3,0l1.4-10L273.5,274.3z"/>
	</g>
	<g>
		<polyline class="st1" points="273.4,274 273.4,274.3 271.9,284.3 		"/>
		<line class="st1" x1="273.5" y1="274.3" x2="275.2" y2="284.3"/>
		<path class="st1" d="M271.9,284.3c0,0,1.6-2.5,3.3,0"/>
	</g>
</g>
<g id="XMLID_50_">
	<g>
		<path class="st4" d="M273.5,314.4l1.8-10c-1.6,2.5-3.3,0-3.3,0l1.4,10L273.5,314.4z"/>
	</g>
	<g>
		<polyline class="st1" points="273.4,314.7 273.4,314.4 271.9,304.4 		"/>
		<line class="st1" x1="273.5" y1="314.4" x2="275.2" y2="304.4"/>
		<path class="st1" d="M271.9,304.4c0,0,1.6,2.5,3.3,0"/>
	</g>
</g>
<g id="XMLID_49_">
	<g>
		<path class="st4" d="M208.7,246.7l9.3-4c-3,0-1.8-2.7-1.8-2.7L208.7,246.7L208.7,246.7z"/>
	</g>
	<g>
		<polyline class="st1" points="208.5,246.8 208.7,246.6 216.3,240 		"/>
		<line class="st1" x1="208.7" y1="246.7" x2="218.1" y2="242.7"/>
		<path class="st1" d="M216.3,240c0,0-1.2,2.7,1.8,2.7"/>
	</g>
</g>
<g id="XMLID_48_">
	<g>
		<path class="st4" d="M242.3,247.3l6.5,7.8c-0.8-2.8,2.1-2.5,2.1-2.5L242.3,247.3L242.3,247.3z"/>
	</g>
	<g>
		<polyline class="st1" points="242.1,247.1 242.3,247.2 250.9,252.6 		"/>
		<line class="st1" x1="242.3" y1="247.3" x2="248.8" y2="255.1"/>
		<path class="st1" d="M250.9,252.6c0,0-3-0.3-2.1,2.5"/>
	</g>
</g>
<line class="st1" x1="273.5" y1="314.7" x2="273.5" y2="273.8"/>
<line class="st1" x1="231" y1="232.8" x2="208.5" y2="246.8"/>
<g id="XMLID_47_">
	<g>
		<path class="st4" d="M231.1,232.7l-9.3,4c3,0,1.8,2.8,1.8,2.8L231.1,232.7L231.1,232.7z"/>
	</g>
	<g>
		<polyline class="st1" points="231.4,232.6 231.2,232.8 223.6,239.4 		"/>
		<line class="st1" x1="231.1" y1="232.7" x2="221.8" y2="236.7"/>
		<path class="st1" d="M223.6,239.4c0,0,1.2-2.7-1.8-2.8"/>
	</g>
</g>
<g id="XMLID_46_">
	<g>
		<path class="st4" d="M273.2,273.7l-6.5-7.8c0.8,2.8-2.1,2.5-2.1,2.5L273.2,273.7L273.2,273.7z"/>
	</g>
	<g>
		<polyline class="st1" points="273.4,273.9 273.2,273.8 264.6,268.5 		"/>
		<line class="st1" x1="273.2" y1="273.7" x2="266.7" y2="265.9"/>
		<path class="st1" d="M264.6,268.5c0,0,3,0.3,2.1-2.5"/>
	</g>
</g>
<line class="st1" x1="238.7" y1="294.4" x2="208.5" y2="268.9"/>
<line class="st1" x1="259.7" y1="280.7" x2="229.9" y2="255.4"/>
<polyline class="st1" points="238.4,335.1 233.8,331.2 224.8,323.5 222.9,321.9 208.5,309.8 "/>
<line class="st1" x1="278.6" y1="270.7" x2="256.9" y2="284.8"/>
<line class="st1" x1="265.4" y1="232.3" x2="228.7" y2="256.1"/>
<line class="st1" x1="273.4" y1="273.9" x2="242.8" y2="247.3"/>
<g>
	<path class="st4" d="M141.4,71.6c-0.9,1-2.4,1.3-3.7,0.1c-1.3-1.2-1.2-2.7-0.3-3.7c0.6-0.7,1.5-1,2.4-0.7c-0.2-0.8-0.1-1.5,0.5-2.1
		c0.8-0.9,2.2-1.2,3.4-0.2c1.2,1.1,1,2.5,0.2,3.4c-0.5,0.6-1.3,0.9-2.1,0.7C142.2,70,142,70.9,141.4,71.6z M140.7,70.9
		c0.7-0.7,0.6-1.7-0.2-2.4s-1.7-0.6-2.4,0.1c-0.7,0.7-0.6,1.7,0.1,2.4C139,71.7,140,71.7,140.7,70.9z M143.2,67.8
		c0.6-0.7,0.5-1.6-0.1-2.1c-0.6-0.5-1.5-0.6-2.1,0.1c-0.6,0.6-0.5,1.5,0.1,2.1C141.7,68.5,142.6,68.5,143.2,67.8z"/>
	<path class="st4" d="M150.4,72.5l-2.1-1.9l-1.7,1c0.2,0.1,0.3,0.2,0.4,0.3c1.3,1.2,1.3,2.9,0.1,4.2c-1.3,1.5-3.2,1.4-4.5,0.2
		c-0.5-0.5-0.9-1.1-1-1.8c0-0.4,0-0.8,0-1.2l0.9,0.1c-0.1,0.3-0.1,0.6,0,0.9c0.1,0.5,0.3,0.9,0.7,1.3c0.9,0.8,2.3,0.7,3.1-0.2
		c0.8-0.9,0.8-2.2-0.2-3c-0.2-0.2-0.7-0.6-1.7-0.7l3.8-2.3l2.6,2.3L150.4,72.5z"/>
</g>
<g>
	<path class="st4" d="M212.3,121l0.8-4.8c0.1-0.3,0.2-1.2,0.2-1.6c0-0.7-0.1-1.1-0.3-1.4c-0.5-0.8-1.5-1.1-2.4-0.6
		c-0.5,0.3-0.8,0.8-0.8,1.4c0,0.3,0.1,0.6,0.3,1l-0.8,0.5c-0.4-0.8-0.5-1.4-0.4-1.9c0.1-0.5,0.4-1.3,1.3-1.8
		c1.3-0.8,2.9-0.4,3.7,0.8c0.3,0.5,0.4,1.1,0.4,2c-0.1,0.6-0.2,1.3-0.3,1.9l-0.5,2.7l3.2-1.9l0.5,0.8L212.3,121z"/>
	<path class="st4" d="M218.6,117.2l0.8-4.8c0.1-0.3,0.2-1.2,0.2-1.6c0-0.7-0.1-1.1-0.3-1.4c-0.5-0.8-1.5-1.1-2.4-0.6
		c-0.5,0.3-0.8,0.8-0.8,1.4c0,0.3,0.1,0.6,0.3,1l-0.8,0.5c-0.4-0.8-0.5-1.4-0.4-1.9c0.1-0.5,0.4-1.3,1.3-1.8
		c1.3-0.8,2.9-0.4,3.7,0.8c0.3,0.5,0.4,1.1,0.4,2c-0.1,0.6-0.2,1.3-0.3,1.9l-0.5,2.7l3.2-1.9l0.5,0.8L218.6,117.2z"/>
</g>
<g>
	<path class="st4" d="M268,223.3v1.5l-0.9-0.5v-1.9h8.7v1H268z"/>
	<path class="st4" d="M267.9,213.1v2.8l1.9,0.6c0-0.2-0.1-0.3-0.1-0.6c0-1.8,1.3-2.9,3-2.9c2,0,3.1,1.5,3.1,3.2c0,0.7-0.2,1.4-0.7,2
		c-0.2,0.3-0.5,0.6-0.9,0.8l-0.5-0.8c0.3-0.1,0.5-0.3,0.7-0.6c0.3-0.4,0.5-0.8,0.5-1.4c0-1.2-1-2.1-2.2-2.1c-1.3,0-2.1,0.9-2.1,2.1
		c0,0.3,0.1,0.9,0.6,1.7l-4.2-1.3v-3.5H267.9z"/>
	<path class="st4" d="M274.6,210.5c-0.8,0.6-2,0.9-3.2,0.9c-1.2,0-2.4-0.3-3.2-0.9c-1-0.7-1.3-1.5-1.3-2.2c0-0.7,0.3-1.6,1.3-2.2
		c0.8-0.6,2-0.9,3.2-0.9c1.2,0,2.4,0.3,3.2,0.9c1,0.7,1.3,1.5,1.3,2.2C275.9,208.9,275.6,209.8,274.6,210.5z M268.8,209.7
		c0.7,0.5,1.7,0.6,2.7,0.6c0.9,0,1.9-0.2,2.7-0.6c0.7-0.5,1-1.1,1-1.5c0-0.4-0.2-1-1-1.5c-0.7-0.5-1.7-0.6-2.7-0.6
		c-0.9,0-1.9,0.2-2.7,0.6c-0.7,0.5-1,1.1-1,1.5C267.8,208.7,268,209.3,268.8,209.7z"/>
</g>
<g>
	<path class="st4" d="M271.6,301.5l-3.7-3.2c-0.3-0.2-1-0.8-1.3-1c-0.6-0.4-1-0.5-1.3-0.5c-1,0-1.7,0.7-1.7,1.7
		c0,0.6,0.3,1.1,0.8,1.5c0.3,0.2,0.6,0.3,1,0.3v1c-0.9,0-1.4-0.3-1.8-0.7c-0.4-0.4-0.9-1-0.9-2.1c0-1.5,1.1-2.7,2.6-2.7
		c0.6,0,1.1,0.2,1.9,0.7c0.5,0.4,1,0.8,1.5,1.2l2.1,1.8v-3.7h0.9V301.5z"/>
	<path class="st4" d="M269.2,288.3c1.4,0,2.6,0.9,2.6,2.7c0,1.8-1.2,2.7-2.6,2.7c-0.9,0-1.7-0.4-2.1-1.3c-0.4,0.7-1.1,1.1-1.9,1.1
		c-1.2,0-2.4-0.8-2.4-2.4c0-1.6,1.2-2.4,2.4-2.4c0.8,0,1.5,0.4,1.9,1.1C267.4,288.8,268.2,288.3,269.2,288.3z M265.1,289.5
		c-1,0-1.5,0.7-1.5,1.5c0,0.8,0.6,1.5,1.5,1.5c0.9,0,1.5-0.6,1.5-1.5C266.6,290.1,266,289.5,265.1,289.5z M269.1,289.3
		c-1,0-1.7,0.7-1.7,1.7c0,1,0.7,1.7,1.7,1.7c1,0,1.7-0.7,1.7-1.7S270.1,289.3,269.1,289.3z"/>
</g>
<g>
	<path class="st4" d="M245,203.7l2.8,2c-0.1-0.2-0.1-0.5-0.1-0.8c0-1.7,1.3-2.8,2.9-2.8c1.7,0,3,1.3,3,3c0,2.1-1.6,3-3,3
		c-0.3,0-1.1-0.1-2-0.7l-4.1-3L245,203.7z M250.5,203c-1.2,0-2,0.9-2,2.1s0.9,2,2,2c1.2,0,2.1-0.8,2.1-2
		C252.6,203.9,251.7,203,250.5,203z"/>
	<path class="st4" d="M252.2,199.9c-0.8,0.6-2,0.9-3.2,0.9s-2.4-0.3-3.2-0.9c-1-0.7-1.3-1.5-1.3-2.2c0-0.7,0.3-1.6,1.3-2.2
		c0.8-0.6,2-0.9,3.2-0.9s2.4,0.3,3.2,0.9c1,0.7,1.3,1.5,1.3,2.2C253.5,198.3,253.2,199.2,252.2,199.9z M246.3,199.1
		c0.7,0.5,1.7,0.6,2.7,0.6s1.9-0.2,2.7-0.6c0.7-0.5,1-1.1,1-1.5c0-0.4-0.2-1-1-1.5c-0.7-0.5-1.7-0.6-2.7-0.6s-1.9,0.2-2.7,0.6
		c-0.7,0.5-1,1.1-1,1.5C245.4,198.1,245.6,198.7,246.3,199.1z"/>
</g>
<g>
	<path class="st4" d="M168.7,118l0.8,0.7l-0.6,0.7l-0.8-0.7l-1.1,1.2l-0.7-0.6l1.1-1.2l-3.3-3l9.1-2L168.7,118z M168,117.3l2.6-2.9
		l-4.6,1L168,117.3z"/>
	<path class="st4" d="M174.2,123l0.8,0.7l-0.6,0.7l-0.8-0.7l-1.1,1.2l-0.7-0.6l1.1-1.2l-3.3-3l9.1-2L174.2,123z M173.5,122.3
		l2.6-2.9l-4.6,1L173.5,122.3z"/>
</g>
<g>
	<path class="st4" d="M60.4,188.6v4.8h-0.9v-6.4l9,5.8l-0.5,0.8L60.4,188.6z"/>
	<path class="st4" d="M68.2,186.1l-3.7-3.2c-0.3-0.2-1-0.8-1.3-1c-0.6-0.4-1-0.5-1.3-0.5c-1,0-1.7,0.7-1.7,1.7
		c0,0.6,0.3,1.1,0.8,1.5c0.3,0.2,0.6,0.3,1,0.3v1c-0.9,0-1.4-0.3-1.8-0.7c-0.4-0.4-0.9-1-0.9-2.1c0-1.5,1.1-2.7,2.6-2.7
		c0.6,0,1.1,0.2,1.9,0.7c0.5,0.4,1,0.8,1.5,1.2l2.1,1.8v-3.7h0.9V186.1z"/>
</g>
<g>
	<path class="st4" d="M42.1,178.6v1.5l-0.9-0.5v-1.9h8.7v1H42.1z"/>
	<path class="st4" d="M49.9,174l-3.7-3.2c-0.3-0.2-1-0.8-1.3-1c-0.6-0.4-1-0.5-1.3-0.5c-1,0-1.7,0.7-1.7,1.7c0,0.6,0.3,1.1,0.8,1.5
		c0.3,0.2,0.6,0.3,1,0.3v1c-0.9,0-1.4-0.3-1.8-0.7c-0.4-0.4-0.9-1-0.9-2.1c0-1.5,1.1-2.7,2.6-2.7c0.6,0,1.1,0.2,1.9,0.7
		c0.5,0.4,1,0.8,1.5,1.2L49,172v-3.7h0.9V174z"/>
	<path class="st4" d="M42.1,161.5v4.8h-0.9v-6.4l9,5.8l-0.5,0.8L42.1,161.5z"/>
</g>
<g>
	<path class="st4" d="M85.4,59.6l-1.3,0.8l0-1l1.7-1l4.5,7.5l-0.8,0.5L85.4,59.6z"/>
	<path class="st4" d="M92.9,54.5l-0.3,3.4c0.2-0.2,0.4-0.4,0.6-0.5c1.4-0.9,3.1-0.4,3.9,1c0.9,1.5,0.5,3.2-1,4.1
		c-1.8,1.1-3.4,0.2-4.1-1c-0.2-0.3-0.5-1-0.4-2.1l0.4-5.1L92.9,54.5z M96.3,58.9c-0.6-1-1.8-1.3-2.8-0.7S92.2,60,92.8,61
		c0.6,1,1.8,1.4,2.8,0.7C96.7,61.1,96.9,59.9,96.3,58.9z"/>
</g>
<g>
	<path class="st4" d="M212.7,455.3l4.8-0.6c0.3,0,1.2-0.2,1.6-0.3c0.7-0.2,1-0.4,1.3-0.7c0.7-0.7,0.6-1.7-0.2-2.4
		c-0.5-0.4-1-0.5-1.6-0.4c-0.3,0.1-0.6,0.3-0.9,0.6l-0.7-0.6c0.6-0.6,1.2-0.8,1.7-0.9c0.6-0.1,1.3,0,2.1,0.7c1.1,1,1.3,2.6,0.3,3.7
		c-0.4,0.4-0.9,0.7-1.8,0.9c-0.6,0.1-1.3,0.2-1.9,0.3l-2.7,0.3l2.7,2.5l-0.6,0.7L212.7,455.3z"/>
</g>
<g>
	<path class="st4" d="M374.9,345.8l0.9-0.6l0.5,0.7l-0.9,0.6l0.9,1.4l-0.8,0.5l-0.9-1.4l-3.7,2.5l0.3-9.3L374.9,345.8z M374.1,346.3
		l-2.1-3.2l-0.2,4.8L374.1,346.3z"/>
	<path class="st4" d="M378.7,336.9l-2.3,1.6l0.6,1.9c0.1-0.1,0.3-0.2,0.4-0.3c1.5-1,3.1-0.5,4.1,0.9c1.1,1.6,0.5,3.4-0.9,4.4
		c-0.6,0.4-1.2,0.6-2,0.5c-0.4,0-0.8-0.1-1.1-0.3l0.3-0.9c0.3,0.2,0.5,0.2,0.9,0.3c0.5,0,1,0,1.5-0.3c1-0.7,1.2-2,0.5-3.1
		c-0.7-1-1.9-1.3-3-0.6c-0.3,0.2-0.7,0.5-1.1,1.4l-1.3-4.2l2.9-1.9L378.7,336.9z"/>
</g>
<g>
	<path class="st4" d="M435.4,375.6l-1.3,0.8l0-1l1.7-1l4.5,7.5l-0.8,0.5L435.4,375.6z"/>
	<path class="st4" d="M447,374.9c0.7,1.2,0.6,2.7-1,3.6c-1.5,0.9-2.9,0.3-3.6-0.8c-0.5-0.8-0.5-1.7,0-2.5c-0.8,0-1.5-0.4-1.9-1.1
		c-0.6-1.1-0.5-2.5,0.8-3.3c1.3-0.8,2.7-0.2,3.3,0.8c0.4,0.7,0.5,1.5,0.1,2.2C445.8,373.6,446.5,374.1,447,374.9z M443.9,372
		c-0.5-0.8-1.4-1-2.1-0.6c-0.7,0.4-1,1.3-0.5,2.1c0.4,0.7,1.3,1,2.1,0.5C444.2,373.7,444.4,372.8,443.9,372z M446.2,375.4
		c-0.5-0.8-1.5-1.1-2.3-0.5c-0.9,0.5-1.1,1.5-0.6,2.3c0.5,0.9,1.5,1.1,2.3,0.6C446.5,377.2,446.7,376.2,446.2,375.4z"/>
</g>
<g>
	<path class="st4" d="M406.8,512.3c0.3-0.4,0.7-0.6,1.1-0.7c1-0.3,1.8,0.2,2.2,0.5c1.3,1.1,1.1,2.5,0.4,3.4c-0.4,0.5-1.1,1-2.1,0.8
		c0.2,0.3,0.6,1.3-0.4,2.4c-1.1,1.3-2.6,1.3-3.8,0.3c-0.7-0.6-1.3-1.6-0.9-2.7c0.1-0.3,0.2-0.6,0.4-0.8l0.7,0.6
		c-0.2,0.3-0.3,0.6-0.3,0.9c0,0.5,0.2,1,0.6,1.4c0.7,0.6,1.8,0.5,2.5-0.3c0.3-0.4,0.6-1,0.3-1.7c-0.1-0.3-0.4-0.6-0.6-0.8l0.6-0.7
		c0.2,0.2,0.6,0.4,0.9,0.5s0.9,0.1,1.4-0.5c0.5-0.6,0.6-1.4-0.2-2.1c-0.3-0.2-0.6-0.5-1.2-0.3c-0.3,0.1-0.6,0.2-0.8,0.5L406.8,512.3
		z"/>
	<path class="st4" d="M412.5,517.1c0.3-0.4,0.7-0.6,1.1-0.7c1-0.3,1.8,0.2,2.2,0.5c1.3,1.1,1.1,2.5,0.4,3.4c-0.4,0.5-1.1,1-2.1,0.8
		c0.2,0.3,0.6,1.3-0.4,2.4c-1.1,1.3-2.6,1.3-3.8,0.3c-0.7-0.6-1.3-1.6-0.9-2.7c0.1-0.3,0.2-0.6,0.4-0.8l0.7,0.6
		c-0.2,0.3-0.3,0.6-0.3,0.9c0,0.5,0.2,1,0.6,1.4c0.7,0.6,1.8,0.5,2.5-0.3c0.3-0.4,0.6-1,0.3-1.7c-0.1-0.3-0.4-0.6-0.6-0.8l0.6-0.7
		c0.2,0.2,0.6,0.4,0.9,0.5s0.9,0.1,1.4-0.5c0.5-0.6,0.6-1.4-0.2-2.1c-0.3-0.2-0.6-0.5-1.2-0.3c-0.3,0.1-0.6,0.2-0.8,0.5L412.5,517.1
		z"/>
</g>
<g>
	<path class="st4" d="M305.9,491.6v1.5l-0.9-0.5v-1.9h8.7v1H305.9z"/>
	<path class="st4" d="M312.6,486.2c-0.8,0.6-2,0.9-3.2,0.9c-1.2,0-2.4-0.3-3.2-0.9c-1-0.7-1.3-1.5-1.3-2.2c0-0.7,0.3-1.6,1.3-2.2
		c0.8-0.6,2-0.9,3.2-0.9c1.2,0,2.4,0.3,3.2,0.9c1,0.7,1.3,1.5,1.3,2.2C313.9,484.6,313.5,485.5,312.6,486.2z M306.7,485.5
		c0.7,0.5,1.7,0.6,2.7,0.6c0.9,0,1.9-0.2,2.7-0.6c0.7-0.5,1-1.1,1-1.5c0-0.4-0.2-1-1-1.5c-0.7-0.5-1.7-0.6-2.7-0.6
		c-0.9,0-1.9,0.2-2.7,0.6c-0.7,0.5-1,1.1-1,1.5C305.7,484.4,306,485,306.7,485.5z"/>
	<path class="st4" d="M312.6,478.8c-0.8,0.6-2,0.9-3.2,0.9c-1.2,0-2.4-0.3-3.2-0.9c-1-0.7-1.3-1.5-1.3-2.2c0-0.7,0.3-1.6,1.3-2.2
		c0.8-0.6,2-0.9,3.2-0.9c1.2,0,2.4,0.3,3.2,0.9c1,0.7,1.3,1.5,1.3,2.2C313.9,477.2,313.5,478.1,312.6,478.8z M306.7,478
		c0.7,0.5,1.7,0.6,2.7,0.6c0.9,0,1.9-0.2,2.7-0.6c0.7-0.5,1-1.1,1-1.5c0-0.4-0.2-1-1-1.5c-0.7-0.5-1.7-0.6-2.7-0.6
		c-0.9,0-1.9,0.2-2.7,0.6c-0.7,0.5-1,1.1-1,1.5C305.7,477,306,477.6,306.7,478z"/>
</g>
<g>
	<path class="st4" d="M117.6,208.7c-0.9,1-2.4,1.3-3.7,0.1c-1.3-1.2-1.2-2.7-0.3-3.7c0.6-0.7,1.5-1,2.4-0.7
		c-0.2-0.8-0.1-1.5,0.5-2.1c0.8-0.9,2.2-1.2,3.4-0.2c1.2,1.1,1,2.5,0.2,3.4c-0.5,0.6-1.3,0.9-2.1,0.7
		C118.4,207.1,118.2,208,117.6,208.7z M116.9,208c0.7-0.7,0.6-1.7-0.2-2.4s-1.7-0.6-2.4,0.1c-0.7,0.7-0.6,1.7,0.1,2.4
		C115.2,208.8,116.2,208.8,116.9,208z M119.4,204.9c0.6-0.7,0.5-1.6-0.1-2.1c-0.6-0.5-1.5-0.6-2.1,0.1c-0.6,0.6-0.5,1.5,0.1,2.1
		C117.9,205.6,118.8,205.6,119.4,204.9z"/>
</g>
<g>
	<path class="st4" d="M320,572.4c0-0.5,0.2-0.9,0.4-1.3c0.6-0.9,1.5-1,2-1c1.7,0,2.5,1.2,2.5,2.4c0,0.6-0.2,1.5-1.1,1.9
		c0.3,0.1,1.3,0.6,1.3,2.1c0,1.6-1.2,2.6-2.7,2.6c-0.9,0-2-0.4-2.4-1.5c-0.1-0.3-0.2-0.6-0.2-0.9h1c0,0.3,0.1,0.6,0.3,0.9
		c0.3,0.4,0.8,0.7,1.4,0.7c1,0,1.7-0.8,1.7-1.8c0-0.5-0.2-1.2-0.9-1.5c-0.3-0.1-0.7-0.2-1-0.2v-0.9c0.3,0,0.7,0,1-0.2
		c0.3-0.1,0.7-0.5,0.7-1.3c0-0.8-0.4-1.5-1.5-1.5c-0.4,0-0.8,0.1-1.1,0.5c-0.2,0.2-0.3,0.5-0.3,0.9H320z"/>
	<path class="st4" d="M327.8,577.8c-0.6-0.8-0.9-2-0.9-3.2c0-1.2,0.3-2.4,0.9-3.2c0.7-1,1.5-1.3,2.2-1.3c0.7,0,1.6,0.3,2.2,1.3
		c0.6,0.8,0.9,2,0.9,3.2c0,1.2-0.3,2.4-0.9,3.2c-0.7,1-1.5,1.3-2.2,1.3C329.4,579.1,328.5,578.7,327.8,577.8z M328.6,571.9
		c-0.5,0.7-0.6,1.7-0.6,2.7c0,0.9,0.2,1.9,0.6,2.7c0.5,0.7,1.1,1,1.5,1c0.4,0,1-0.2,1.5-1c0.5-0.7,0.6-1.7,0.6-2.7
		c0-0.9-0.2-1.9-0.6-2.7c-0.5-0.7-1.1-1-1.5-1C329.6,570.9,329,571.2,328.6,571.9z"/>
	<path class="st4" d="M337.1,570.2c0.6,0,1.1,0.5,1.1,1.1s-0.5,1.1-1.1,1.1c-0.6,0-1.1-0.5-1.1-1.1S336.5,570.2,337.1,570.2z
		 M337.1,571.8c0.3,0,0.6-0.3,0.6-0.6s-0.3-0.6-0.6-0.6c-0.3,0-0.5,0.3-0.5,0.6S336.8,571.8,337.1,571.8z"/>
</g>
<g>
	<path class="st4" d="M427,309.7l4.8-0.6c0.3,0,1.2-0.2,1.6-0.3c0.7-0.2,1-0.4,1.3-0.7c0.7-0.7,0.6-1.7-0.2-2.4
		c-0.5-0.4-1-0.5-1.6-0.4c-0.3,0.1-0.6,0.3-0.9,0.6l-0.7-0.6c0.6-0.6,1.2-0.8,1.7-0.9c0.6-0.1,1.3,0,2.1,0.7c1.1,1,1.3,2.6,0.3,3.7
		c-0.4,0.4-0.9,0.7-1.8,0.9c-0.6,0.1-1.3,0.2-1.9,0.3l-2.7,0.3l2.7,2.5l-0.6,0.7L427,309.7z"/>
</g>
<g>
	<path class="st4" d="M445.1,431v2.8l1.9,0.6c0-0.2-0.1-0.3-0.1-0.5c0-1.8,1.3-2.9,3-2.9c2,0,3.1,1.5,3.1,3.2c0,0.7-0.2,1.4-0.7,2
		c-0.2,0.3-0.5,0.6-0.9,0.8l-0.5-0.8c0.3-0.1,0.5-0.3,0.7-0.6c0.3-0.4,0.5-0.8,0.5-1.4c0-1.2-1-2.1-2.2-2.1c-1.3,0-2.1,0.9-2.1,2.1
		c0,0.3,0.1,0.9,0.6,1.7l-4.2-1.3V431H445.1z"/>
	<path class="st4" d="M450.4,424.1V423h0.9v1.1h1.7v1h-1.7v4.5l-7.6-5.5H450.4z M450.4,425.1h-3.9l3.9,2.8V425.1z"/>
</g>
<g>
	<path class="st4" d="M332.6,478.9c1.4,0,2.6,0.9,2.6,2.7c0,1.8-1.2,2.7-2.6,2.7c-0.9,0-1.7-0.4-2.1-1.3c-0.4,0.7-1.1,1.1-1.9,1.1
		c-1.2,0-2.4-0.8-2.4-2.4c0-1.6,1.2-2.4,2.4-2.4c0.8,0,1.5,0.4,1.9,1.1C330.9,479.3,331.7,478.9,332.6,478.9z M328.6,480.1
		c-1,0-1.5,0.7-1.5,1.5s0.6,1.5,1.5,1.5c0.9,0,1.5-0.6,1.5-1.5C330.1,480.7,329.4,480.1,328.6,480.1z M332.6,479.9
		c-1,0-1.7,0.7-1.7,1.7s0.7,1.7,1.7,1.7c1,0,1.7-0.7,1.7-1.7C334.3,480.6,333.6,479.9,332.6,479.9z"/>
	<path class="st4" d="M333.9,476.4c-0.8,0.6-2,0.9-3.2,0.9c-1.2,0-2.4-0.3-3.2-0.9c-1-0.7-1.3-1.5-1.3-2.2c0-0.7,0.3-1.6,1.3-2.2
		c0.8-0.6,2-0.9,3.2-0.9c1.2,0,2.4,0.3,3.2,0.9c1,0.7,1.3,1.5,1.3,2.2C335.2,474.8,334.8,475.7,333.9,476.4z M328,475.6
		c0.7,0.5,1.7,0.6,2.7,0.6c0.9,0,1.9-0.2,2.7-0.6c0.7-0.5,1-1.1,1-1.5c0-0.4-0.2-1-1-1.5c-0.7-0.5-1.7-0.6-2.7-0.6
		c-0.9,0-1.9,0.2-2.7,0.6c-0.7,0.5-1,1.1-1,1.5C327,474.6,327.3,475.2,328,475.6z"/>
</g>
<g>
	<path class="st4" d="M288.4,270.1v1.5l-0.9-0.5v-1.9h8.7v1H288.4z"/>
	<path class="st4" d="M288.4,260.5v4.8h-0.9v-6.4l9,5.8l-0.5,0.8L288.4,260.5z"/>
	<path class="st4" d="M296.2,258.1l-3.7-3.2c-0.3-0.2-1-0.8-1.3-1c-0.6-0.4-1-0.5-1.3-0.5c-1,0-1.7,0.7-1.7,1.7
		c0,0.6,0.3,1.1,0.8,1.5c0.3,0.2,0.6,0.3,1,0.3v1c-0.9,0-1.4-0.3-1.8-0.7c-0.4-0.4-0.9-1-0.9-2.1c0-1.5,1.1-2.7,2.6-2.7
		c0.6,0,1.1,0.2,1.9,0.7c0.5,0.4,1,0.8,1.5,1.2l2.1,1.8v-3.7h0.9V258.1z"/>
</g>
<g>
	<path class="st4" d="M213.4,230.8l-1.3,0.8l0-1l1.7-1l4.5,7.5l-0.8,0.5L213.4,230.8z"/>
	<path class="st4" d="M218.4,229.3c-0.2-0.4-0.3-0.9-0.3-1.3c0-1.1,0.8-1.7,1.2-1.9c1.4-0.9,2.7-0.3,3.3,0.8c0.3,0.5,0.6,1.4,0,2.2
		c0.3-0.1,1.4-0.1,2.2,1.2c0.8,1.4,0.3,2.9-0.9,3.6c-0.8,0.5-1.9,0.7-2.9,0c-0.3-0.2-0.5-0.4-0.6-0.7l0.8-0.5
		c0.2,0.2,0.5,0.5,0.7,0.6c0.5,0.2,1,0.1,1.5-0.1c0.8-0.5,1.1-1.6,0.6-2.4c-0.3-0.4-0.8-0.9-1.5-0.8c-0.3,0-0.7,0.2-0.9,0.4
		l-0.4-0.7c0.3-0.2,0.6-0.4,0.8-0.7c0.2-0.3,0.4-0.8,0-1.5c-0.4-0.7-1.1-1.1-2.1-0.5c-0.3,0.2-0.6,0.5-0.7,1c0,0.3,0,0.6,0.2,1
		L218.4,229.3z"/>
</g>
<g>
	<path class="st4" d="M70.5,111.3l-3.7-3.2c-0.3-0.2-1-0.8-1.3-1c-0.6-0.4-1-0.5-1.3-0.5c-1,0-1.7,0.7-1.7,1.7
		c0,0.6,0.3,1.1,0.8,1.5c0.3,0.2,0.6,0.3,1,0.3v1c-0.9,0-1.4-0.3-1.8-0.7c-0.4-0.4-0.9-1-0.9-2.1c0-1.5,1.1-2.7,2.6-2.7
		c0.6,0,1.1,0.2,1.9,0.7c0.5,0.4,1,0.8,1.5,1.2l2.1,1.8v-3.7h0.9V111.3z"/>
	<path class="st4" d="M62.7,101v1.5l-0.9-0.5V100h8.7v1H62.7z"/>
</g>
<g>
	<path class="st4" d="M261.7,249.2l-1-1.1l1-0.3l1.3,1.4l-6.4,5.9l-0.7-0.7L261.7,249.2z"/>
	<path class="st4" d="M268.7,256.7l-1.9-2.1l-1.8,0.9c0.1,0.1,0.3,0.2,0.4,0.4c1.2,1.3,1,3-0.3,4.2c-1.4,1.3-3.3,1.1-4.5-0.2
		c-0.5-0.5-0.8-1.1-0.8-1.9c0-0.4,0-0.8,0.1-1.2l0.9,0.2c-0.1,0.3-0.1,0.6-0.1,0.9c0,0.5,0.2,1,0.6,1.4c0.8,0.9,2.2,0.9,3.1,0.1
		c0.9-0.9,1-2.1,0.1-3c-0.2-0.2-0.7-0.6-1.6-0.8l4-1.9l2.4,2.5L268.7,256.7z"/>
</g>
</svg>
