<?xml version="1.0" encoding="utf-8"?>
<!-- Generator: Adobe Illustrator 23.0.3, SVG Export Plug-In . SVG Version: 6.00 Build 0)  -->
<svg version="1.1" id="Слой_1" xmlns="http://www.w3.org/2000/svg" xmlns:xlink="http://www.w3.org/1999/xlink" x="0px" y="0px"
	 viewBox="0 0 500 600" style="enable-background:new 0 0 500 600;" xml:space="preserve">
<style type="text/css">
	.st0{fill:none;stroke:#4E86B9;stroke-width:0.6;stroke-linejoin:round;stroke-miterlimit:10;}
	.st1{fill:none;stroke:#4E86B9;stroke-width:0.6;stroke-linecap:round;stroke-linejoin:round;stroke-miterlimit:10;}
	.st2{fill:none;stroke:#4E86B9;stroke-width:0.6;stroke-linecap:round;stroke-linejoin:round;}
	.st3{fill:none;stroke:#4E86B9;stroke-width:0.6;stroke-linecap:round;stroke-linejoin:round;stroke-dasharray:5.4756,2.7378;}
	.st4{fill:#4E86B9;}
</style>
<path class="st0" d="M193,396.3c0,0-112-100.9-112.2-101.1s-1-0.7-1.6-2.3c-0.5-1.7-1.9-2.3-1.9-5.1c0-2.8,0.8-183.1,0.8-183.1"/>
<path class="st0" d="M179,149.1v-0.6l-30.2-27.2L146,123l-45.6-41.1L81.9,93.7c0,0,0,1.5,0,2.3c0,1.1-0.4,2-1.1,2.8
	c-0.6,0.8-1.6,1.8-2.4,4c-1.1,2.9,1.4,3.8,1.4,3.8s2-2.2,3.5-4.7s2-2.9,1.9-3.5s0.1-1.4-1.1-2.6"/>
<polyline class="st0" points="82.1,93.8 84.1,95.6 84.1,98.1 "/>
<path class="st0" d="M81.9,96.1c0,0,2.3,1.9,3,3.1"/>
<path class="st0" d="M81.8,104.1c0,0,0.1-1.5,1.1-3c1-1.4,1.2-2.9,1.2-2.9"/>
<line class="st0" x1="80.7" y1="99.2" x2="82.9" y2="101.2"/>
<polyline class="st0" points="146,122.9 146,122.3 100.8,81.7 103.5,80 148.6,120.6 148.6,121.4 "/>
<line class="st0" x1="146" y1="122.3" x2="148.6" y2="120.6"/>
<polyline class="st0" points="178.9,148.4 176.2,150.1 204.1,175.2 "/>
<polyline class="st0" points="206.4,172.7 179.7,148.6 177,150.3 204.4,174.9 "/>
<path class="st1" d="M233.9,167c0,0-2.9-3.4-5.5-4c-3.4-0.8-7.1-0.1-12.2,2.4c-5.1,2.6-12.8,8.8-17.9,17.6
	c-5.2,8.9-4.4,14.7-4.4,15.8s-1,226.8-1,226.8s-0.2,5,2.5,7.5c2.1,1.9,2.8,2.5,2.8,2.5"/>
<path class="st1" d="M236.2,265.5l0.4-91.4c-0.2-8.6-6.2-10.1-14.7-7.1c-4.1,1.4-12.5,7.1-18.8,16.3s-6,15.5-6,16.9
	s-1,228.7-1,228.7s-0.2,7.2,5.5,8.6c5.4,1.3,10.4-1,18.1-6.7c0,0,7.7-5.9,12.5-15c3.5-6.7,3.5-11,3.5-12.6S236,338,236,338"/>
<polyline class="st1" points="205.7,326.1 204.7,326.7 204.9,270.8 227.8,256.3 "/>
<path class="st1" d="M235.2,296.6c0,0,1.9,0.9,4.1-0.6c2.2-1.4,15.4-9.7,16-10.2s1.8-1.1,1.2-3"/>
<path class="st1" d="M256.7,284.5c0,0-0.2,39.4-0.2,40.1s-0.1,1.5-1.5,2.4s-15.3,9.9-16.1,10.2s-2.3,1.1-4,0.4"/>
<path class="st1" d="M204.9,314.6c0,0,5.9,5.3,7.3,6.5c1.1,1,3.6,2.6,7.1,3.3"/>
<path class="st1" d="M204.9,316c0,0,5.5,5,6.9,6.2c1.1,1,3.6,2.9,7.6,3.6c0.6,0.1,1.2,0.2,1.9,0.3"/>
<line class="st1" x1="204.9" y1="321.4" x2="208.2" y2="319.2"/>
<path class="st1" d="M209.8,320.7c0,0-0.2,3.6,2.6,7.5c2.7,3.9,7.9,5.5,11.7,5.5c1.2,0,2.4-0.1,3.7-0.5c0.5-0.1,0.9-0.3,1.4-0.4"/>
<path class="st1" d="M204.9,323.7l7,6.3c0,0,5.1,4.6,12.3,3.7"/>
<path class="st1" d="M204.8,325l7.1,6.4c0,0,5.2,4.2,11.9,3.8c2.5-0.1,4.4-0.6,5.9-1.1c0.3-0.1,0.5-0.2,0.7-0.3"/>
<g>
	<path class="st1" d="M253.6,296.7c2,1.8,0.7,6.4-2.9,10.3c-3.5,3.9-8,5.7-9.9,4c-2-1.8-0.7-6.4,2.9-10.3
		C247.1,296.7,251.6,294.9,253.6,296.7z"/>
	
		<ellipse transform="matrix(0.6684 -0.7438 0.7438 0.6684 -143.7184 283.4963)" class="st1" cx="246.1" cy="302.9" rx="7.6" ry="3.4"/>
	
		<ellipse transform="matrix(0.6683 -0.7439 0.7439 0.6683 -143.8129 283.8602)" class="st1" cx="246.4" cy="303.2" rx="8.3" ry="3.6"/>
	<path class="st1" d="M252.5,296.2c0,0,2,0.7,0.4,4.8c-1.3,3.3-3.9,6.4-6.9,8.3c-3.1,1.9-4.9,1.3-5.7,0.9"/>
</g>
<g>
	
		<ellipse transform="matrix(0.6683 -0.7439 0.7439 0.6683 -155.4196 289.7597)" class="st1" cx="247.2" cy="319.2" rx="9.6" ry="4.8"/>
	
		<ellipse transform="matrix(0.6684 -0.7438 0.7438 0.6684 -155.1827 288.5938)" class="st1" cx="246.1" cy="318.3" rx="7.6" ry="3.4"/>
	
		<ellipse transform="matrix(0.6684 -0.7438 0.7438 0.6684 -155.2984 288.9279)" class="st1" cx="246.4" cy="318.6" rx="8.3" ry="3.6"/>
	<path class="st1" d="M252.5,311.6c0,0,2,0.7,0.4,4.8c-1.3,3.3-3.9,6.4-6.9,8.3s-4.9,1.3-5.7,0.9"/>
</g>
<path class="st1" d="M211.6,331.3c0,0-2.5,4-0.4,5.9s6.5-1.6,7.2-2.5"/>
<path class="st1" d="M211.8,331.6c0,0-1.7,3.1-0.3,4.7s5.3-1.1,5.9-1.8"/>
<line class="st1" x1="210.4" y1="334.7" x2="211.5" y2="336.1"/>
<polyline class="st1" points="215.6,333.8 214.3,334.1 214.6,333.3 213.4,332.5 "/>
<ellipse transform="matrix(0.6741 -0.7387 0.7387 0.6741 -237.45 295.2313)" class="st1" cx="215.8" cy="416.7" rx="10.5" ry="5.2"/>
<path class="st1" d="M208.7,418.2c0,0,2.5,1.7,6.1-2.2c4.2-4.6,1.7-6.5,1.7-6.5"/>
<path class="st1" d="M220.7,246.7c0,0-0.5-0.7-1.6-1.1"/>
<g>
	<path class="st1" d="M221.6,246.1c1.5,1.4,0.5,5-2.3,8.1s-6.3,4.5-7.9,3.1c-1.5-1.4-0.5-5,2.3-8.1
		C216.5,246.1,220,244.7,221.6,246.1z"/>
	
		<ellipse transform="matrix(0.6733 -0.7394 0.7394 0.6733 -115.3029 242.1015)" class="st1" cx="216.3" cy="251.5" rx="6.5" ry="3.2"/>
	<line class="st1" x1="210.8" y1="254.8" x2="211.6" y2="256"/>
	<polygon class="st1" points="216.2,250.8 217.2,248.9 218.4,248.9 217.4,250.8 218.8,250.8 217.9,252.3 216.5,252.3 215.4,254.2 
		214.3,254.2 215.3,252.3 213.9,252.4 214.7,250.8 	"/>
	<line class="st1" x1="217.4" y1="250.8" x2="216.6" y2="250.1"/>
	<line class="st1" x1="217.9" y1="252.3" x2="216.2" y2="250.9"/>
	<line class="st1" x1="216.5" y1="252.3" x2="214.8" y2="250.9"/>
	<line class="st1" x1="215.3" y1="252.3" x2="214.4" y2="251.5"/>
	<line class="st1" x1="215.4" y1="254.1" x2="214.9" y2="253.3"/>
</g>
<g>
	
		<ellipse transform="matrix(0.6732 -0.7394 0.7394 0.6732 -86.9036 229.8062)" class="st1" cx="216.6" cy="213.2" rx="7.6" ry="3.8"/>
	
		<ellipse transform="matrix(0.6732 -0.7394 0.7394 0.6732 -86.7991 229.7125)" class="st1" cx="216.5" cy="213.1" rx="6.5" ry="3.2"/>
	<line class="st1" x1="211" y1="216.3" x2="211.8" y2="217.5"/>
</g>
<polygon class="st1" points="215.8,213 215.8,211.5 217.2,210.6 217.2,212.1 219,211 219,212.2 217.2,213.3 217.2,214.9 
	215.8,215.8 215.8,214.3 214,215.4 214,214.2 "/>
<line class="st1" x1="217.2" y1="212.1" x2="216.1" y2="211.3"/>
<line class="st1" x1="217.2" y1="213.3" x2="215.9" y2="212.2"/>
<line class="st1" x1="215.7" y1="214.2" x2="215" y2="213.5"/>
<line class="st1" x1="217.2" y1="214.6" x2="215.7" y2="213.2"/>
<line class="st1" x1="219" y1="212.2" x2="218" y2="211.6"/>
<path class="st1" d="M223.7,178.5c2.2,1.9,0.8,7-3,11.4s-8.7,6.3-10.9,4.4c-2.2-1.9-0.8-7,3-11.4
	C216.7,178.6,221.5,176.6,223.7,178.5z"/>
<path class="st1" d="M209.6,187.9c0,0,2.1,2.3,6.3-2.3c4.1-4.6,1.7-6.5,1.7-6.5"/>
<line class="st1" x1="212.8" y1="183.1" x2="215.7" y2="185.6"/>
<line class="st1" x1="213" y1="182.9" x2="215.9" y2="185.4"/>
<line class="st1" x1="215.3" y1="180.7" x2="217.7" y2="182.9"/>
<g>
	
		<ellipse transform="matrix(0.8399 -0.5427 0.5427 0.8399 -174.2661 158.3953)" class="st1" cx="181.4" cy="374.6" rx="3.1" ry="7.4"/>
	
		<ellipse transform="matrix(0.8399 -0.5428 0.5428 0.8399 -174.2889 158.439)" class="st1" cx="181.4" cy="374.6" rx="2.3" ry="5.6"/>
	<ellipse transform="matrix(0.8397 -0.5431 0.5431 0.8397 -174.3742 158.58)" class="st1" cx="181.4" cy="374.6" rx="1.7" ry="4"/>
	<line class="st1" x1="184.4" y1="379.3" x2="186.2" y2="378.3"/>
	<line class="st1" x1="178.4" y1="370" x2="179.9" y2="368.8"/>
</g>
<g>
	<ellipse transform="matrix(0.8457 -0.5336 0.5336 0.8457 -140.288 130.1754)" class="st1" cx="155" cy="307.7" rx="3.1" ry="7.4"/>
	<ellipse transform="matrix(0.8457 -0.5337 0.5337 0.8457 -140.3055 130.214)" class="st1" cx="155" cy="307.7" rx="2.3" ry="5.6"/>
	
		<ellipse transform="matrix(0.8458 -0.5335 0.5335 0.8458 -140.2293 130.1839)" class="st1" cx="155.1" cy="307.7" rx="1.7" ry="4"/>
	<line class="st1" x1="158" y1="312.4" x2="159.8" y2="311.4"/>
	<line class="st1" x1="152.1" y1="303" x2="153.6" y2="301.8"/>
</g>
<g>
	<path class="st1" d="M141.9,253.5c2.2,3.5,2.8,7,1.3,7.9c-1.4,0.9-4.4-1.1-6.6-4.6c-2.2-3.5-2.8-7-1.3-7.9
		C136.8,247.9,139.8,250,141.9,253.5L141.9,253.5z"/>
	<path class="st1" d="M141.3,253.8c1.6,2.6,2.1,5.3,1,6c-1.1,0.7-3.3-0.9-5-3.5c-1.6-2.6-2.1-5.3-1-6
		C137.4,249.7,139.6,251.2,141.3,253.8z"/>
	<path class="st1" d="M140.8,254.2c1.2,1.9,1.5,3.8,0.7,4.3s-2.4-0.6-3.6-2.4c-1.2-1.9-1.5-3.8-0.7-4.3
		C138,251.2,139.6,252.3,140.8,254.2z"/>
	<line class="st1" x1="142.3" y1="259.8" x2="144.1" y2="258.8"/>
	<line class="st1" x1="136.3" y1="250.4" x2="137.9" y2="249.2"/>
</g>
<g>
	<ellipse transform="matrix(0.8457 -0.5336 0.5336 0.8457 -63.0235 69.9751)" class="st1" cx="89.5" cy="144" rx="3.1" ry="7.4"/>
	<ellipse transform="matrix(0.8457 -0.5336 0.5336 0.8457 -63.0185 69.9752)" class="st1" cx="89.5" cy="144" rx="2.3" ry="5.6"/>
	<ellipse transform="matrix(0.8455 -0.534 0.534 0.8455 -63.062 70.0562)" class="st1" cx="89.5" cy="144" rx="1.7" ry="4"/>
	<line class="st1" x1="92.4" y1="148.7" x2="94.3" y2="147.7"/>
	<line class="st1" x1="86.5" y1="139.3" x2="88.1" y2="138.1"/>
</g>
<g>
	<ellipse transform="matrix(0.8457 -0.5337 0.5337 0.8457 -93.2334 132.21)" class="st1" cx="182" cy="227.3" rx="3.1" ry="7.4"/>
	<ellipse transform="matrix(0.8457 -0.5336 0.5336 0.8457 -93.215 132.1796)" class="st1" cx="182" cy="227.3" rx="2.3" ry="5.6"/>
	<ellipse transform="matrix(0.8455 -0.534 0.534 0.8455 -93.2266 132.358)" class="st1" cx="182.1" cy="227.3" rx="1.7" ry="4"/>
	<line class="st1" x1="185" y1="232" x2="186.8" y2="231"/>
	<line class="st1" x1="179" y1="222.6" x2="180.6" y2="221.4"/>
</g>
<g>
	
		<ellipse transform="matrix(0.8458 -0.5336 0.5336 0.8458 -127.4208 103.6712)" class="st1" cx="115.6" cy="272.2" rx="3.1" ry="7.4"/>
	
		<ellipse transform="matrix(0.8457 -0.5337 0.5337 0.8457 -127.4342 103.7014)" class="st1" cx="115.6" cy="272.2" rx="2.3" ry="5.6"/>
	
		<ellipse transform="matrix(0.8457 -0.5336 0.5336 0.8457 -127.4206 103.6813)" class="st1" cx="115.6" cy="272.2" rx="1.7" ry="4"/>
	<line class="st1" x1="118.6" y1="276.9" x2="120.2" y2="276"/>
	<line class="st1" x1="112.6" y1="267.5" x2="114.2" y2="266.3"/>
</g>
<polygon class="st1" points="146,286.8 121.7,264.9 121.8,261.9 146,283.7 "/>
<line class="st1" x1="121.7" y1="264.9" x2="123.7" y2="263.6"/>
<polygon class="st1" points="132.9,272.4 132.9,274.5 145,285.5 145,283.1 "/>
<line class="st1" x1="145" y1="285.5" x2="146" y2="284.8"/>
<ellipse transform="matrix(0.844 -0.5364 0.5364 0.844 -136.965 149.9752)" class="st1" cx="189.3" cy="310.4" rx="1.6" ry="4"/>
<path class="st1" d="M191.4,310.8c0,0-1.1-0.8-1.6-2.5"/>
<g>
	
		<ellipse transform="matrix(0.8395 -0.5434 0.5434 0.8395 -154.2473 137.6051)" class="st1" cx="155.8" cy="329.9" rx="3" ry="6.9"/>
	<path class="st1" d="M160.3,334c0,0-2.1-0.6-4.5-4.2c-2.1-3.2-1.9-5.5-1.9-5.5"/>
	<line class="st1" x1="154.8" y1="328.2" x2="160.2" y2="333"/>
</g>
<path class="st1" d="M142.8,311.1c1.2,0.2,2.2,0,3.1-0.5c3.9-2.5,2.3-12.1-3.6-21.4c-5.9-9.3-13.9-14.9-17.8-12.4
	c-3.8,2.4-2.4,11.5,3.1,20.6l-0.1,20.2c0,0,0.1,5.8,5.3,12.1c5.2,6.2,8,5,8.6,4.7c0.8-0.4,1.3-1.2,1.3-3.8
	C142.7,328.1,142.8,311.1,142.8,311.1z"/>
<path class="st1" d="M141.1,334.3c0,0-10.1-5.9-10.8-16.8c0-9.7,0-20.1,0-20.1s-10-17.5-2.1-21"/>
<line class="st1" x1="130.3" y1="310.1" x2="147.1" y2="299.5"/>
<line class="st1" x1="134" y1="307.7" x2="130.3" y2="303.9"/>
<line class="st1" x1="131" y1="321.4" x2="142.7" y2="314.3"/>
<line class="st1" x1="140.5" y1="315.8" x2="142.7" y2="318.5"/>
<g>
	<path class="st1" d="M221.1,379.8c-4,4.4-9,6.4-11.2,4.4s-0.7-7.2,3.2-11.6c4-4.4,9-6.4,11.2-4.4
		C226.5,370.2,225.1,375.4,221.1,379.8z"/>
	<path class="st1" d="M209.9,384.2c0,0-2.9-2.1-0.9-7.2c2-5,6.7-8.7,9.8-9.7c3-1,4.6-0.1,5.6,0.9"/>
	<polygon class="st1" points="216,376.1 216,373.4 218.2,372 218.2,374.7 221.2,372.7 221.2,374.6 218.3,376.4 218.3,379 216,380.5 
		216,377.9 212.9,379.8 212.9,378 	"/>
	<line class="st1" x1="218.2" y1="374.7" x2="216.3" y2="373.2"/>
	<line class="st1" x1="221.2" y1="374.5" x2="219.7" y2="373.8"/>
	<line class="st1" x1="218.2" y1="376.5" x2="216.1" y2="374.9"/>
	<line class="st1" x1="218.2" y1="379.1" x2="215.6" y2="376.5"/>
	<line class="st1" x1="216" y1="377.9" x2="214.9" y2="376.9"/>
</g>
<ellipse transform="matrix(0.8443 -0.5359 0.5359 0.8443 -130.9557 129.1069)" class="st1" cx="156.7" cy="289.9" rx="0.8" ry="1.8"/>
<path class="st1" d="M155.7,288.4c0,0,0.2,2.1,2,2.9"/>
<ellipse transform="matrix(0.8442 -0.5361 0.5361 0.8442 -129.0374 133.898)" class="st1" cx="165.8" cy="288.9" rx="0.8" ry="1.8"/>
<path class="st1" d="M164.8,287.4c0,0,0.2,2.1,2,2.9"/>
<ellipse transform="matrix(0.8496 -0.5275 0.5275 0.8496 -128.0044 93.1534)" class="st1" cx="99.3" cy="271" rx="1.9" ry="4.5"/>
<path class="st1" d="M97,267.1c0.1-0.1,0.2-0.3,0.3-0.3c0.9-0.5,2.7,0.8,4,3c1.4,2.2,1.6,4.6,0.6,5"/>
<line class="st1" x1="97" y1="267.2" x2="100.9" y2="274.7"/>
<line class="st1" x1="97.3" y1="267.1" x2="101.4" y2="274.9"/>
<ellipse transform="matrix(0.8497 -0.5272 0.5272 0.8497 -133.1452 89.3029)" class="st1" cx="90.1" cy="278.2" rx="1.9" ry="4.5"/>
<path class="st1" d="M87.8,274.3c0.1-0.1,0.2-0.3,0.3-0.3c0.9-0.5,2.7,0.8,4,3c1.4,2.2,1.6,4.6,0.6,5"/>
<line class="st1" x1="87.8" y1="274.5" x2="91.8" y2="282"/>
<line class="st1" x1="88.2" y1="274.3" x2="92.3" y2="282.1"/>
<ellipse transform="matrix(0.8424 -0.5389 0.5389 0.8424 -77.1578 101.7912)" class="st1" cx="135.4" cy="182.8" rx="7.4" ry="17.5"/>
<path class="st1" d="M126.6,167.6c3.4-2.2,10.5,2.6,15.7,10.8s6.7,16.6,3.2,18.8"/>
<path class="st1" d="M140.3,179.5c4.2,6.5,5.4,13.3,2.6,15c-2.7,1.7-8.3-2.1-12.5-8.7c-4.2-6.5-5.4-13.3-2.6-15
	C130.5,169.1,136.1,173,140.3,179.5z"/>
<path class="st1" d="M129.3,170.5c0,0,2.4,0.7,3.1,3.2c0.6,2.5-0.6,5.9-2.8,9.5c2.9,0.8,12,1.5,12.2,11.8c1.5-3.5,2.4-6,2.4-6"/>
<line class="st1" x1="129.7" y1="183.2" x2="138.7" y2="177.4"/>
<g>
	<path class="st1" d="M154.7,184.3c0,0,6.1,5.2,7.1,6.3s3.6,3.7,3.6,7.1c0,3.1-3.3,0.9-3.8,0.4s-6.7-6-7.3-6.8s-2.7-3.7-2.6-5.9
		C151.8,183.1,154,183.6,154.7,184.3z"/>
	<path class="st1" d="M165.3,197.1c0,0-5.8-4.9-7.1-6.2c-1.2-1.3-3.3-3.8-3.8-6.7"/>
	<line class="st1" x1="158.1" y1="187.4" x2="158.9" y2="191.5"/>
	<line class="st1" x1="161.6" y1="193.8" x2="163.4" y2="192.6"/>
	<line class="st1" x1="162.6" y1="194.7" x2="164.1" y2="193.8"/>
	<line class="st1" x1="155.6" y1="187.3" x2="155" y2="184.6"/>
</g>
<g>
	<path class="st1" d="M109.1,166.4c0,0,6.1,5.2,7.1,6.3s3.6,3.7,3.6,7.1c0,3.1-3.3,0.9-3.8,0.4s-6.7-6-7.3-6.8
		c-0.6-0.8-2.7-3.7-2.6-5.9C106.2,165.2,108.3,165.7,109.1,166.4z"/>
	<path class="st1" d="M119.6,179.2c0,0-5.8-4.9-7.1-6.2c-1.2-1.3-3.3-3.8-3.8-6.7"/>
</g>
<path class="st1" d="M109.5,168.6c0,0,1.8,1.9,5.1,2.8"/>
<path class="st1" d="M112.1,172.5c0,0,2.8,1.4,4.8,1.1"/>
<path class="st1" d="M115.5,175.7c0,0,1.2,0.3,3,0"/>
<polygon class="st1" points="102.1,200.9 102.1,180.1 104.9,183 104.9,203.5 "/>
<path class="st1" d="M417.3,403.1l0.2-50.8c0-6.9-7.5-4.8-11.8-1.7c-2.5,1.8-43.3,27.6-45.9,29.2s-2.5,2.7-2.6,3.4
	c-0.2,0.8-2.1,8.9-2.9,13c-0.9,4.1-1.9,14.5-1.9,15.8c-0.1,1.3-0.6,138-0.6,138s0.2,3,0.6,2.2c0.5-0.8,1-1.8,2.3-7.5
	s1.6-7.1,1.8-7.9c0.2-0.8,0-1.8,2.4-3.3s40-25.5,41.6-26.5s6.2-3.9,8.1-5.4c1.7-1.4,3.8-3.9,3.8-3.9"/>
<path class="st1" d="M352.1,552.4l-4.5-0.6c0,0-0.5,0.2-0.5-2.5s0.5-134.7,0.6-136c0-1.4,0.5-11.2,2.3-18.8s2.2-9.6,2.5-11
	c0.3-1.5,0.4-3.7,4.1-6.1s40.7-25.9,43.6-27.7c2.9-1.8,5.8-3.8,8.9-4.4c2.5-0.5,3.7,0.5,4.1,0.9s2.2,2,2.2,2"/>
<path class="st1" d="M418.1,491.7c0,0-2.6,4.6-6.4,6.4s-4.8-0.4-4.9-0.9s-0.3-1.3-0.2-1.9s-0.6-0.4-1-0.1c-0.5,0.3-4.6,3-6.2,3.7
	s-6.3,2-6.3-3s0.2-50.7,0.2-52.1s0.5-4.6,4.8-9.1c3.1-3.2,6-4.4,6.9-5s1.8-0.7,1.8-2.3c0-1.6,0.3-5.1,5.2-9c4.3-3.5,6.7-1.6,7-1
	c0.3,0.5,0.4,1.4,0.4,1.9s-0.1,1.3,1.1,0.6s4.6-3.1,5.7-3.5s6.8-2.8,6.7,2.5c0,5.2-0.1,14.8-0.1,14.8"/>
<path class="st1" d="M393.5,498.5c0,0-21.1-19.3-21.9-19.9s-1.3-1.6-1.3-3.1s0.3-49.6,0.3-50.6s-0.7-5,4.6-10.4c2.9-2.9,8.4-6,8.4-6
	s0.4-3.8,2.5-7.1s4.8-4.9,6.9-5.4c1.4-0.3,2.6,0.3,3,0.6c0.3,0.3,22.7,20.4,22.7,20.4"/>
<path class="st1" d="M398.5,398.9c0,0,3.7-2.4,4.7-2.9c1-0.4,3.7-2.2,6.3,0.2c2.6,2.3,21.9,19.6,21.9,19.6"/>
<ellipse transform="matrix(0.6725 -0.7401 0.7401 0.6725 -177.8495 444.2977)" class="st1" cx="413.1" cy="423.1" rx="3" ry="1.5"/>
<ellipse transform="matrix(0.6731 -0.7396 0.7396 0.6731 -229.0112 466.1961)" class="st1" cx="412.8" cy="492.1" rx="3" ry="1.5"/>
<path class="st1" d="M418.2,491.8c0,0-10.2-9-10.7-9.6s-1-1.6-0.9-3.7"/>
<path class="st1" d="M418.3,489c0,0-13.8-12.2-14.5-12.9c-0.7-0.8-1.7-1.2-1.7-4.5c0-3.2,0-13.3,0.1-14.5c0.1-1.3,0.2-4,2.4-7.5
	c2.2-3.5,2.1-4,2.2-5.6c0-1.7,0.4-4.8,4.4-8.5c3.9-3.7,6.8-3,7.6-2.2c0.9,0.8,9.9,9,9.9,9"/>
<path class="st1" d="M417.5,488.3c0,0-0.9-1.1-0.9-3.4s0-14,0.1-14.9c0-0.9,0.1-3.2,1.8-6.1"/>
<polyline class="st1" points="429.3,501.2 422,505.8 418.3,502.4 418.4,480.8 "/>
<polyline class="st1" points="437.2,496.2 440,494.4 440.1,469.8 422.1,481.3 422,505.7 "/>
<line class="st1" x1="421.4" y1="480.6" x2="422.1" y2="481.3"/>
<line class="st1" x1="439.4" y1="469.1" x2="440.1" y2="469.8"/>
<polyline class="st1" points="440.2,465.6 441.2,464.9 441.2,468 419.6,481.7 416.6,479 416.6,475.9 419.6,478.7 421.4,477.5 "/>
<line class="st1" x1="419.6" y1="478.7" x2="419.6" y2="481.7"/>
<line class="st1" x1="441.2" y1="464.9" x2="440.2" y2="464"/>
<polyline class="st1" points="418.4,474.8 418.5,450.2 428.6,443.8 "/>
<polyline class="st1" points="418.5,450.2 422.3,453.6 429,449.4 "/>
<polyline class="st1" points="422.3,453.6 422.2,478.2 418.4,474.8 416.6,475.9 "/>
<polyline class="st1" points="422.2,478.2 440.2,466.7 440.3,442.2 436.5,438.8 435.6,439.3 "/>
<line class="st1" x1="440.3" y1="442.2" x2="435.8" y2="445"/>
<ellipse class="st1" cx="432" cy="436.5" rx="3.5" ry="2.7"/>
<path class="st1" d="M428.5,436.5c0,0,0.2,11.1,0.3,11.9c0.1,0.8,0.7,3.1,3.9,2.8c3.2-0.3,3.2-2.7,3.2-2.7l-0.4-11.7"/>
<line class="st1" x1="429.5" y1="450.2" x2="428.2" y2="455.4"/>
<path class="st1" d="M428.9,449.5l-2.1,8.7c0,0-0.1,0.5,0,1.2"/>
<path class="st1" d="M437.3,452.2c0,0-1-0.9-1.2-1s-1.2-1-3.9,0.5c-2.7,1.5-4,3.9-4.5,4.7c-0.5,0.8-1.2,2.8-0.6,4.1s2.2,2.2,2.2,2.2
	s1.1,1.2,2.4-0.7c1.3-1.9,4.5-6.5,4.8-7.2s1-1.3-0.5-2.9C436.5,451.9,437.3,452.2,437.3,452.2z"/>
<path class="st1" d="M437.3,452.2c0,0,1.4,1.2,0.1,3.2s-4.4,6.6-4.7,6.9c-0.3,0.3-0.8,1.3-2.2,0.8"/>
<path class="st1" d="M431.7,463.2c0,0,2.9-0.6,5.1-3.2c2.1-2.6,2.6-5.6,0.7-7.6"/>
<line class="st1" x1="437.1" y1="452.2" x2="436.7" y2="452.6"/>
<path class="st1" d="M437.3,488.9c0,0-1-0.9-1.2-1s-1.2-1-3.9,0.5s-4,3.9-4.5,4.7c-0.5,0.8-1.2,2.8-0.6,4.1s2.2,2.2,2.2,2.2
	s1.1,1.2,2.4-0.7c1.3-1.9,4.5-6.5,4.8-7.2s1-1.3-0.5-2.9C436.5,488.7,437.3,488.9,437.3,488.9z"/>
<path class="st1" d="M437.3,488.9c0,0,1.4,1.2,0.1,3.2s-4.4,6.6-4.7,6.9c-0.3,0.3-0.8,1.4-2.2,0.8"/>
<path class="st1" d="M431.7,500c0,0,2.9-0.6,5.1-3.2c2.1-2.6,2.6-5.6,0.7-7.6"/>
<line class="st1" x1="437.1" y1="488.9" x2="436.7" y2="489.4"/>
<path class="st1" d="M427,496.9c0,0-1.1-2.3,1.3-5.6c2.6-3.5,5.1-3.7,6.4-3.7"/>
<polyline class="st1" points="434.2,498.9 434,499.8 430.5,502.2 428.6,499.1 "/>
<polyline class="st1" points="430.5,502.2 429.5,501.4 428,498.5 "/>
<path class="st1" d="M429.5,501.4c-0.1,0.3-0.1,0.5-0.1,0.8c0.2,1.5,1.9,2.5,3.8,2.2s3.3-1.7,3.1-3.1c-0.1-1.1-1.1-1.9-2.4-2.2"/>
<path class="st1" d="M429.5,502.6l0.8,11.1c0,0,0.3,2.9,3.9,2.4c3.5-0.4,3.1-2.8,3.1-3.1c0-0.2-0.8-11.3-0.8-11.3"/>
<ellipse transform="matrix(0.6721 -0.7405 0.7405 0.6721 -150.1235 412.3608)" class="st1" cx="390.5" cy="375.7" rx="5.3" ry="2.6"/>
<path class="st1" d="M394,372c0,0-1.2,4-6.8,7.6"/>
<path class="st1" d="M393.2,498.2c-0.4,0.7-0.8,1.4-1.4,2c-1.9,2.1-4.4,3.1-5.5,2.1s-0.4-3.5,1.6-5.6c0.6-0.7,1.3-1.2,1.9-1.6"/>
<path class="st1" d="M392.1,497.2c-1,1.5-2.7,3.4-5.5,5.2"/>
<line class="st1" x1="407.4" y1="498.2" x2="404.6" y2="495.8"/>
<line class="st1" x1="359" y1="380.5" x2="358" y2="534.2"/>
<line class="st1" x1="196.8" y1="200.3" x2="196.8" y2="122.3"/>
<line class="st1" x1="236.7" y1="173.8" x2="236.7" y2="99.6"/>
<line class="st1" x1="136.6" y1="340.6" x2="136.6" y2="89.9"/>
<line class="st1" x1="77.7" y1="115.7" x2="77.7" y2="14.4"/>
<line class="st1" x1="103.4" y1="79.1" x2="103.4" y2="52.6"/>
<line class="st1" x1="142.7" y1="193.1" x2="121.3" y2="207.4"/>
<line class="st1" x1="128.2" y1="184.4" x2="109.7" y2="196.2"/>
<line class="st1" x1="196.8" y1="151" x2="136.6" y2="96.6"/>
<line class="st1" x1="196.8" y1="130.2" x2="77.7" y2="21.5"/>
<line class="st1" x1="83.9" y1="297.9" x2="45.3" y2="264.3"/>
<line class="st1" x1="76.9" y1="95.7" x2="47" y2="70"/>
<line class="st1" x1="81" y1="93.7" x2="76.9" y2="95.7"/>
<line class="st1" x1="196.3" y1="458.4" x2="196.4" y2="425.7"/>
<line class="st1" x1="192.5" y1="454.8" x2="192.5" y2="425"/>
<line class="st1" x1="282.3" y1="143.9" x2="217.6" y2="186.2"/>
<line class="st1" x1="281.5" y1="373.8" x2="216.7" y2="415.5"/>
<line class="st1" x1="303.3" y1="377.8" x2="216.7" y2="433.3"/>
<line class="st1" x1="301" y1="115.7" x2="216.7" y2="168.8"/>
<line class="st1" x1="276.9" y1="376.3" x2="276.9" y2="147.2"/>
<line class="st1" x1="298.9" y1="379.9" x2="298.9" y2="116.9"/>
<line class="st1" x1="253.3" y1="238.1" x2="253.3" y2="163.4"/>
<line class="st1" x1="273.4" y1="315.2" x2="251.5" y2="329.4"/>
<line class="st1" x1="136.2" y1="295.4" x2="66.1" y2="231.9"/>
<line class="st1" x1="136.6" y1="182.1" x2="63.2" y2="116.1"/>
<line class="st1" x1="68.6" y1="234.1" x2="68.6" y2="121.5"/>
<line class="st1" x1="50.3" y1="268.4" x2="50.3" y2="73.3"/>
<line class="st1" x1="215" y1="465.7" x2="177.3" y2="431.1"/>
<line class="st1" x1="139.1" y1="216.5" x2="99.7" y2="180"/>
<line class="st1" x1="347.1" y1="415.5" x2="347.1" y2="366.4"/>
<line class="st1" x1="417.6" y1="370.8" x2="417.6" y2="323.3"/>
<line class="st1" x1="417.5" y1="325.8" x2="347.7" y2="370.6"/>
<line class="st1" x1="361.3" y1="531.3" x2="311" y2="564.3"/>
<line class="st1" x1="355.4" y1="378.1" x2="311.4" y2="406.2"/>
<line class="st1" x1="315.9" y1="560.6" x2="315.9" y2="403.8"/>
<g>
	<g>
		<g>
			<line class="st2" x1="345.8" y1="583.4" x2="347" y2="578.6"/>
			<line class="st3" x1="348" y1="574.2" x2="353.7" y2="549.8"/>
			<line class="st2" x1="354.2" y1="547.6" x2="355.4" y2="542.8"/>
		</g>
	</g>
</g>
<path class="st1" d="M325.4,555.2c3.7,9.6,11,15.2,22.9,16.6"/>
<line class="st1" x1="370.3" y1="511.2" x2="370.3" y2="472.6"/>
<line class="st1" x1="437.6" y1="559.8" x2="437.6" y2="510"/>
<line class="st1" x1="437.1" y1="554.4" x2="370.6" y2="497.9"/>
<line class="st1" x1="393.3" y1="444.1" x2="393.3" y2="410.9"/>
<line class="st1" x1="433.1" y1="420.2" x2="433.1" y2="385.5"/>
<line class="st1" x1="453.9" y1="378" x2="393.6" y2="416.2"/>
<line class="st1" x1="204.5" y1="273.1" x2="204.5" y2="241.7"/>
<line class="st1" x1="228.2" y1="258.4" x2="228.2" y2="228.3"/>
<g id="XMLID_1_">
	<g>
		<path class="st4" d="M270.4,276.3l1.8,10.1c-1.7-2.5-3.3,0-3.3,0L270.4,276.3L270.4,276.3z"/>
	</g>
	<g>
		<polyline class="st1" points="270.3,276 270.3,276.3 268.9,286.4 		"/>
		<line class="st1" x1="270.4" y1="276.3" x2="272.2" y2="286.4"/>
		<path class="st1" d="M268.9,286.4c0,0,1.7-2.5,3.3,0"/>
	</g>
</g>
<g id="XMLID_2_">
	<g>
		<path class="st4" d="M253.1,163.3l1.8,10.1c-1.7-2.5-3.3,0-3.3,0L253.1,163.3L253.1,163.3z"/>
	</g>
	<g>
		<polyline class="st1" points="253.1,163 253,163.3 251.6,173.4 		"/>
		<line class="st1" x1="253.1" y1="163.3" x2="254.9" y2="173.4"/>
		<path class="st1" d="M251.6,173.4c0,0,1.7-2.5,3.3,0"/>
	</g>
</g>
<g id="XMLID_3_">
	<g>
		<path class="st4" d="M276.8,147.5l1.8,10.1c-1.7-2.5-3.3,0-3.3,0L276.8,147.5L276.8,147.5z"/>
	</g>
	<g>
		<polyline class="st1" points="276.7,147.2 276.7,147.5 275.3,157.6 		"/>
		<line class="st1" x1="276.8" y1="147.5" x2="278.6" y2="157.6"/>
		<path class="st1" d="M275.3,157.6c0,0,1.7-2.5,3.3,0"/>
	</g>
</g>
<g id="XMLID_4_">
	<g>
		<path class="st4" d="M298.8,117.2l1.8,10.1c-1.7-2.5-3.3,0-3.3,0L298.8,117.2L298.8,117.2z"/>
	</g>
	<g>
		<polyline class="st1" points="298.7,116.9 298.7,117.2 297.3,127.3 		"/>
		<line class="st1" x1="298.8" y1="117.2" x2="300.6" y2="127.3"/>
		<path class="st1" d="M297.3,127.3c0,0,1.7-2.5,3.3,0"/>
	</g>
</g>
<g id="XMLID_5_">
	<g>
		<path class="st4" d="M68.6,121.6l1.6,10.1c-1.6-2.5-3.3-0.1-3.3-0.1L68.6,121.6L68.6,121.6z"/>
	</g>
	<g>
		<polyline class="st1" points="68.6,121.3 68.5,121.6 66.9,131.7 		"/>
		<line class="st1" x1="68.6" y1="121.6" x2="70.2" y2="131.7"/>
		<path class="st1" d="M66.9,131.7c0,0,1.7-2.5,3.3,0.1"/>
	</g>
</g>
<g id="XMLID_7_">
	<g>
		<path class="st4" d="M316,404.1l1.8,10.1c-1.7-2.5-3.3,0-3.3,0L316,404.1L316,404.1z"/>
	</g>
	<g>
		<polyline class="st1" points="315.9,403.8 315.9,404 314.4,414.2 		"/>
		<line class="st1" x1="316" y1="404.1" x2="317.8" y2="414.2"/>
		<path class="st1" d="M314.4,414.2c0,0,1.7-2.5,3.3,0"/>
	</g>
</g>
<g id="XMLID_8_">
	<g>
		<path class="st4" d="M68.6,233.5l1.8-10.1c-1.7,2.5-3.3,0-3.3,0L68.6,233.5L68.6,233.5z"/>
	</g>
	<g>
		<polyline class="st1" points="68.5,233.8 68.5,233.6 67,223.5 		"/>
		<line class="st1" x1="68.6" y1="233.5" x2="70.4" y2="223.5"/>
		<path class="st1" d="M67,223.5c0,0,1.7,2.5,3.3,0"/>
	</g>
</g>
<g id="XMLID_9_">
	<g>
		<path class="st4" d="M50.3,268l1.8-10.1c-1.7,2.5-3.3,0-3.3,0L50.3,268L50.3,268z"/>
	</g>
	<g>
		<polyline class="st1" points="50.2,268.3 50.2,268 48.8,257.9 		"/>
		<line class="st1" x1="50.3" y1="268" x2="52.1" y2="257.9"/>
		<path class="st1" d="M48.8,257.9c0,0,1.7,2.5,3.3,0"/>
	</g>
</g>
<g id="XMLID_10_">
	<g>
		<path class="st4" d="M270.4,316.9l1.8-10.1c-1.7,2.5-3.3,0-3.3,0L270.4,316.9L270.4,316.9z"/>
	</g>
	<g>
		<polyline class="st1" points="270.3,317.1 270.3,316.9 268.9,306.8 		"/>
		<line class="st1" x1="270.4" y1="316.9" x2="272.2" y2="306.8"/>
		<path class="st1" d="M268.9,306.8c0,0,1.7,2.5,3.3,0"/>
	</g>
</g>
<g id="XMLID_11_">
	<g>
		<path class="st4" d="M253.3,239.3l1.8-10.1c-1.7,2.5-3.3,0-3.3,0L253.3,239.3L253.3,239.3z"/>
	</g>
	<g>
		<polyline class="st1" points="253.2,239.6 253.2,239.3 251.7,229.2 		"/>
		<line class="st1" x1="253.3" y1="239.3" x2="255.1" y2="229.2"/>
		<path class="st1" d="M251.7,229.2c0,0,1.7,2.5,3.3,0"/>
	</g>
</g>
<g id="XMLID_12_">
	<g>
		<path class="st4" d="M276.9,376.3l1.8-10.1c-1.7,2.5-3.3,0-3.3,0L276.9,376.3L276.9,376.3z"/>
	</g>
	<g>
		<polyline class="st1" points="276.9,376.6 276.8,376.3 275.4,366.2 		"/>
		<line class="st1" x1="276.9" y1="376.3" x2="278.7" y2="366.2"/>
		<path class="st1" d="M275.4,366.2c0,0,1.7,2.5,3.3,0"/>
	</g>
</g>
<g id="XMLID_13_">
	<g>
		<path class="st4" d="M298.9,380.1l1.8-10.1c-1.7,2.5-3.3,0-3.3,0L298.9,380.1L298.9,380.1z"/>
	</g>
	<g>
		<polyline class="st1" points="298.9,380.3 298.8,380.1 297.4,370 		"/>
		<line class="st1" x1="298.9" y1="380.1" x2="300.7" y2="370"/>
		<path class="st1" d="M297.4,370c0,0,1.7,2.5,3.3,0"/>
	</g>
</g>
<g id="XMLID_14_">
	<g>
		<path class="st4" d="M315.9,560.6l1.8-10.1c-1.7,2.5-3.3,0-3.3,0L315.9,560.6L315.9,560.6z"/>
	</g>
	<g>
		<polyline class="st1" points="315.9,560.9 315.8,560.6 314.4,550.5 		"/>
		<line class="st1" x1="315.9" y1="560.6" x2="317.7" y2="550.5"/>
		<path class="st1" d="M314.4,550.5c0,0,1.7,2.5,3.3,0"/>
	</g>
</g>
<g id="XMLID_15_">
	<g>
		<path class="st4" d="M236,105.5l-9.3,4.3c3-0.1,1.9,2.7,1.9,2.7L236,105.5L236,105.5z"/>
	</g>
	<g>
		<polyline class="st1" points="236.2,105.4 236,105.6 228.6,112.6 		"/>
		<line class="st1" x1="236" y1="105.5" x2="226.7" y2="109.8"/>
		<path class="st1" d="M228.6,112.6c0,0,1.1-2.8-1.9-2.7"/>
	</g>
</g>
<g id="XMLID_17_">
	<g>
		<path class="st4" d="M417.1,325.8l-10,4.8c3,0.3,1.5,2.9,1.5,2.9L417.1,325.8L417.1,325.8z"/>
	</g>
	<g>
		<polyline class="st1" points="417.4,325.7 417.2,325.9 408.7,333.5 		"/>
		<line class="st1" x1="417.1" y1="325.8" x2="407.2" y2="330.6"/>
		<path class="st1" d="M408.7,333.5c0,0,1.4-2.6-1.5-2.9"/>
	</g>
</g>
<g id="XMLID_19_">
	<g>
		<path class="st4" d="M347.7,370.6l8.8-3.7c-3-0.3-1.6-2.9-1.6-2.9l-7.3,6.6H347.7z"/>
	</g>
	<g>
		<polyline class="st1" points="347.4,370.7 347.6,370.5 354.9,363.9 		"/>
		<line class="st1" x1="347.7" y1="370.6" x2="356.5" y2="366.9"/>
		<path class="st1" d="M354.9,363.9c0,0-1.4,2.6,1.6,2.9"/>
	</g>
</g>
<g id="XMLID_20_">
	<g>
		<path class="st4" d="M205,248.4l9.4-4c-3,0-1.8-2.8-1.8-2.8L205,248.4L205,248.4z"/>
	</g>
	<g>
		<polyline class="st1" points="204.7,248.5 204.9,248.4 212.6,241.6 		"/>
		<line class="st1" x1="205" y1="248.4" x2="214.4" y2="244.4"/>
		<path class="st1" d="M212.6,241.6c0,0-1.2,2.8,1.8,2.8"/>
	</g>
</g>
<g id="XMLID_21_">
	<g>
		<path class="st4" d="M197.1,130l9.4-4c-3,0-1.8-2.8-1.8-2.8L197.1,130L197.1,130z"/>
	</g>
	<g>
		<polyline class="st1" points="196.8,130.1 197,129.9 204.7,123.2 		"/>
		<line class="st1" x1="197.1" y1="130" x2="206.5" y2="126"/>
		<path class="st1" d="M204.7,123.2c0,0-1.2,2.7,1.8,2.8"/>
	</g>
</g>
<g id="XMLID_22_">
	<g>
		<path class="st4" d="M78.2,74.1l9.3-4.3c-3,0.1-1.9-2.7-1.9-2.7L78.2,74.1L78.2,74.1z"/>
	</g>
	<g>
		<polyline class="st1" points="78,74.2 78.2,74 85.6,67 		"/>
		<line class="st1" x1="78.2" y1="74.1" x2="87.5" y2="69.8"/>
		<path class="st1" d="M85.6,67c0,0-1.1,2.8,1.9,2.7"/>
	</g>
</g>
<g id="XMLID_23_">
	<g>
		<path class="st4" d="M196.5,150.7l-6.3-8.1c0.8,2.9-2.2,2.5-2.2,2.5L196.5,150.7L196.5,150.7z"/>
	</g>
	<g>
		<polyline class="st1" points="196.6,150.9 196.4,150.8 187.9,145.1 		"/>
		<line class="st1" x1="196.5" y1="150.7" x2="190.1" y2="142.6"/>
		<path class="st1" d="M187.9,145.1c0,0,3,0.4,2.2-2.5"/>
	</g>
</g>
<g id="XMLID_24_">
	<g>
		<path class="st4" d="M113.7,192.9l-6.4-8c0.8,2.9-2.2,2.5-2.2,2.5L113.7,192.9L113.7,192.9z"/>
	</g>
	<g>
		<polyline class="st1" points="113.9,193.1 113.7,193 105.1,187.3 		"/>
		<line class="st1" x1="113.7" y1="192.9" x2="107.3" y2="184.8"/>
		<path class="st1" d="M105.1,187.3c0,0,3,0.4,2.2-2.5"/>
	</g>
</g>
<g id="XMLID_27_">
	<g>
		<path class="st4" d="M126.2,204.6l6.2,8.1c-0.7-2.9,2.2-2.5,2.2-2.5L126.2,204.6L126.2,204.6z"/>
	</g>
	<g>
		<polyline class="st1" points="126,204.4 126.3,204.6 134.7,210.3 		"/>
		<line class="st1" x1="126.2" y1="204.6" x2="132.4" y2="212.8"/>
		<path class="st1" d="M134.7,210.3c0,0-3-0.4-2.2,2.5"/>
	</g>
</g>
<g id="XMLID_28_">
	<g>
		<path class="st4" d="M196.6,448.8l6.1,8.2c-0.7-2.9,2.3-2.4,2.3-2.4L196.6,448.8L196.6,448.8z"/>
	</g>
	<g>
		<polyline class="st1" points="196.4,448.6 196.6,448.7 205,454.6 		"/>
		<line class="st1" x1="196.6" y1="448.8" x2="202.7" y2="457"/>
		<path class="st1" d="M205,454.6c0,0-3-0.5-2.3,2.4"/>
	</g>
</g>
<g id="XMLID_29_">
	<g>
		<path class="st4" d="M137,96.9l6.3,8.1c-0.7-2.9,2.2-2.5,2.2-2.5L137,96.9L137,96.9z"/>
	</g>
	<g>
		<polyline class="st1" points="136.8,96.7 137,96.8 145.5,102.5 		"/>
		<line class="st1" x1="137" y1="96.9" x2="143.3" y2="105"/>
		<path class="st1" d="M145.5,102.5c0,0-3-0.4-2.2,2.5"/>
	</g>
</g>
<g id="XMLID_30_">
	<g>
		<path class="st4" d="M77.9,21.6l6.1,8.2c-0.7-2.9,2.3-2.4,2.3-2.4L77.9,21.6L77.9,21.6z"/>
	</g>
	<g>
		<polyline class="st1" points="77.7,21.3 77.9,21.5 86.3,27.3 		"/>
		<line class="st1" x1="77.9" y1="21.6" x2="84" y2="29.8"/>
		<path class="st1" d="M86.3,27.3c0,0-2.9-0.5-2.3,2.4"/>
	</g>
</g>
<g id="XMLID_31_">
	<g>
		<path class="st4" d="M432.6,391.3l-9.4,4.1c3,0,1.8,2.8,1.8,2.8L432.6,391.3L432.6,391.3z"/>
	</g>
	<g>
		<polyline class="st1" points="432.9,391.2 432.7,391.4 425.1,398.2 		"/>
		<line class="st1" x1="432.6" y1="391.3" x2="423.2" y2="395.4"/>
		<path class="st1" d="M425.1,398.2c0,0,1.1-2.8-1.8-2.8"/>
	</g>
</g>
<g id="XMLID_32_">
	<g>
		<path class="st4" d="M393.8,416l9.4-4.1c-3,0-1.8-2.8-1.8-2.8L393.8,416L393.8,416z"/>
	</g>
	<g>
		<polyline class="st1" points="393.6,416.1 393.8,415.9 401.4,409.1 		"/>
		<line class="st1" x1="393.8" y1="416" x2="403.2" y2="411.9"/>
		<path class="st1" d="M401.4,409.1c0,0-1.1,2.8,1.8,2.8"/>
	</g>
</g>
<g id="XMLID_34_">
	<g>
		<path class="st4" d="M245.5,256.9c-0.8-2.9,2.1-2.5,2.1-2.5L239,249v0.1L245.5,256.9z"/>
	</g>
	<g>
		<polyline class="st1" points="238.7,248.8 239,249 247.6,254.4 		"/>
		<line class="st1" x1="238.9" y1="249" x2="245.5" y2="256.9"/>
		<path class="st1" d="M247.6,254.4c0,0-3-0.3-2.1,2.5"/>
	</g>
</g>
<g id="XMLID_35_">
	<g>
		<path class="st4" d="M348,571.7l-9.4-4c2.1,2.2-0.8,3.3-0.8,3.3L348,571.7L348,571.7z"/>
	</g>
	<g>
		<polyline class="st1" points="348.3,571.9 348,571.8 337.9,571 		"/>
		<line class="st1" x1="348" y1="571.7" x2="338.6" y2="567.7"/>
		<path class="st1" d="M337.9,571c0,0,2.8-1.1,0.8-3.3"/>
	</g>
</g>
<g id="XMLID_36_">
	<g>
		<path class="st4" d="M329.1,564.9c0.5-3,3-1.4,3-1.4l-6.5-8.3l-0.1,0.1L329.1,564.9z"/>
	</g>
	<g>
		<polyline class="st1" points="325.4,555 325.6,555.2 332.2,563.5 		"/>
		<line class="st1" x1="325.5" y1="555.3" x2="329.1" y2="564.9"/>
		<path class="st1" d="M332.2,563.5c0,0-2.5-1.6-3,1.4"/>
	</g>
</g>
<line class="st1" x1="443.6" y1="321.3" x2="404.7" y2="346.6"/>
<line class="st1" x1="448.3" y1="323.8" x2="410.4" y2="348.7"/>
<line class="st1" x1="453.3" y1="339.4" x2="423.5" y2="312.3"/>
<g id="XMLID_38_">
	<g>
		<path class="st4" d="M436.7,324.2l-6.4-7.9c0.7,2.9-2.3,2.4-2.3,2.4L436.7,324.2L436.7,324.2z"/>
	</g>
	<g>
		<polyline class="st1" points="436.9,324.4 436.6,324.3 428,318.7 		"/>
		<line class="st1" x1="436.7" y1="324.2" x2="430.3" y2="316.2"/>
		<path class="st1" d="M428,318.7c0,0,3,0.5,2.3-2.4"/>
	</g>
</g>
<g id="XMLID_37_">
	<g>
		<path class="st4" d="M441.3,328.4l5.7,8.1c-0.7-2.9,2.3-2.4,2.3-2.4L441.3,328.4L441.3,328.4z"/>
	</g>
	<g>
		<polyline class="st1" points="441.1,328.2 441.3,328.4 449.3,334.1 		"/>
		<line class="st1" x1="441.3" y1="328.4" x2="447" y2="336.5"/>
		<path class="st1" d="M449.3,334.1c0,0-2.9-0.5-2.3,2.4"/>
	</g>
</g>
<line class="st1" x1="461.5" y1="386.2" x2="412.8" y2="417.6"/>
<line class="st1" x1="460.8" y1="466.8" x2="412.1" y2="498.2"/>
<line class="st1" x1="455.4" y1="469.7" x2="455.4" y2="390.7"/>
<g id="XMLID_39_">
	<g>
		<path class="st4" d="M455.5,469.7l1.6-10.1c-1.6,2.5-3.3,0.1-3.3,0.1L455.5,469.7L455.5,469.7z"/>
	</g>
	<g>
		<polyline class="st1" points="455.4,470 455.4,469.7 453.8,459.7 		"/>
		<line class="st1" x1="455.5" y1="469.7" x2="457.1" y2="459.6"/>
		<path class="st1" d="M453.8,459.7c0,0,1.7,2.5,3.3-0.1"/>
	</g>
</g>
<g id="XMLID_40_">
	<g>
		<path class="st4" d="M455.4,390.9l1.8,10.1c-1.7-2.5-3.3,0-3.3,0L455.4,390.9L455.4,390.9z"/>
	</g>
	<g>
		<polyline class="st1" points="455.3,390.6 455.3,390.9 453.9,401 		"/>
		<line class="st1" x1="455.4" y1="390.9" x2="457.2" y2="401"/>
		<path class="st1" d="M453.9,401c0,0,1.7-2.5,3.3,0"/>
	</g>
</g>
<line class="st1" x1="332.7" y1="412.2" x2="389.8" y2="375.5"/>
<line class="st1" x1="332.1" y1="536.5" x2="389.4" y2="498.8"/>
<line class="st1" x1="337.1" y1="533.2" x2="337.1" y2="410.4"/>
<g id="XMLID_42_">
	<g>
		<path class="st4" d="M337.1,532.6l1.8-10.1c-1.7,2.5-3.3,0-3.3,0L337.1,532.6L337.1,532.6z"/>
	</g>
	<g>
		<polyline class="st1" points="337,532.9 337,532.6 335.6,522.5 		"/>
		<line class="st1" x1="337.1" y1="532.6" x2="338.9" y2="522.5"/>
		<path class="st1" d="M335.6,522.5c0,0,1.7,2.5,3.3,0"/>
	</g>
</g>
<g id="XMLID_41_">
	<g>
		<path class="st4" d="M337.1,410l1.8,10.1c-1.7-2.5-3.3,0-3.3,0L337.1,410L337.1,410z"/>
	</g>
	<g>
		<polyline class="st1" points="337,409.7 337,410 335.6,420.1 		"/>
		<line class="st1" x1="337.1" y1="410" x2="338.9" y2="420.1"/>
		<path class="st1" d="M335.6,420.1c0,0,1.7-2.5,3.3,0"/>
	</g>
</g>
<line class="st1" x1="68.6" y1="121.5" x2="68.6" y2="68.4"/>
<g id="XMLID_43_">
	<g>
		<path class="st4" d="M68.6,87.9l1.8-10.1c-1.7,2.5-3.3,0-3.3,0L68.6,87.9L68.6,87.9z"/>
	</g>
	<g>
		<polyline class="st1" points="68.5,88.1 68.5,87.9 67,77.8 		"/>
		<line class="st1" x1="68.6" y1="87.9" x2="70.4" y2="77.8"/>
		<path class="st1" d="M67,77.8c0,0,1.7,2.5,3.3,0"/>
	</g>
</g>
<line class="st1" x1="236.7" y1="105.3" x2="197.2" y2="129.8"/>
<line class="st1" x1="103" y1="58" x2="77.7" y2="74.3"/>
<line class="st1" x1="270.4" y1="317.2" x2="270.4" y2="275.8"/>
<line class="st1" x1="227.5" y1="234.4" x2="204.7" y2="248.5"/>
<g id="XMLID_6_">
	<g>
		<path class="st4" d="M50.2,73.3L52,83.4c-1.7-2.5-3.3,0-3.3,0L50.2,73.3L50.2,73.3z"/>
	</g>
	<g>
		<polyline class="st1" points="50.1,73 50.1,73.2 48.7,83.4 		"/>
		<line class="st1" x1="50.2" y1="73.3" x2="52" y2="83.4"/>
		<path class="st1" d="M48.7,83.4c0,0,1.7-2.5,3.3,0"/>
	</g>
</g>
<g id="XMLID_16_">
	<g>
		<path class="st4" d="M227.6,234.3l-9.4,4c3,0,1.8,2.8,1.8,2.8L227.6,234.3L227.6,234.3z"/>
	</g>
	<g>
		<polyline class="st1" points="227.9,234.2 227.7,234.4 220,241.1 		"/>
		<line class="st1" x1="227.6" y1="234.3" x2="218.2" y2="238.3"/>
		<path class="st1" d="M220,241.1c0,0,1.2-2.8-1.8-2.8"/>
	</g>
</g>
<g id="XMLID_18_">
	<g>
		<path class="st4" d="M103,57.8l-9.3,4.3c3-0.1,1.9,2.7,1.9,2.7L103,57.8L103,57.8z"/>
	</g>
	<g>
		<polyline class="st1" points="103.3,57.7 103.1,57.9 95.6,64.9 		"/>
		<line class="st1" x1="103" y1="57.8" x2="93.7" y2="62.2"/>
		<path class="st1" d="M95.6,64.9c0,0,1.1-2.8-1.9-2.7"/>
	</g>
</g>
<g id="XMLID_25_">
	<g>
		<path class="st4" d="M196.6,129.9l-6.4-8c0.8,2.9-2.2,2.5-2.2,2.5L196.6,129.9L196.6,129.9z"/>
	</g>
	<g>
		<polyline class="st1" points="196.7,130.2 196.5,130 188,124.4 		"/>
		<line class="st1" x1="196.6" y1="129.9" x2="190.2" y2="121.9"/>
		<path class="st1" d="M188,124.4c0,0,3,0.4,2.2-2.5"/>
	</g>
</g>
<g id="XMLID_26_">
	<g>
		<path class="st4" d="M192.2,444.7l-6.5-7.9c0.8,2.9-2.2,2.5-2.2,2.5L192.2,444.7L192.2,444.7z"/>
	</g>
	<g>
		<polyline class="st1" points="192.4,444.9 192.2,444.8 183.6,439.2 		"/>
		<line class="st1" x1="192.2" y1="444.7" x2="185.8" y2="436.7"/>
		<path class="st1" d="M183.6,439.2c0,0,3,0.4,2.2-2.5"/>
	</g>
</g>
<g id="XMLID_33_">
	<g>
		<path class="st4" d="M270.1,275.7l-6.6-7.8c0.9,2.9-2.1,2.6-2.1,2.6L270.1,275.7L270.1,275.7z"/>
	</g>
	<g>
		<polyline class="st1" points="270.3,275.9 270.1,275.8 261.4,270.4 		"/>
		<line class="st1" x1="270.1" y1="275.7" x2="263.5" y2="267.9"/>
		<path class="st1" d="M261.4,270.4c0,0,3,0.3,2.1-2.6"/>
	</g>
</g>
<line class="st1" x1="235.2" y1="296.6" x2="204.8" y2="270.9"/>
<line class="st1" x1="256.5" y1="282.8" x2="226.4" y2="257.2"/>
<polyline class="st1" points="235,337.7 230.4,333.8 221.2,326 219.3,324.4 204.8,312.1 "/>
<line class="st1" x1="275.6" y1="272.7" x2="253.7" y2="286.9"/>
<line class="st1" x1="262.2" y1="233.9" x2="225.2" y2="257.9"/>
<line class="st1" x1="270.3" y1="275.9" x2="239.4" y2="249"/>
<g id="XMLID_45_">
	<g>
		<path class="st4" d="M370.4,497.9l6.5,7.9c-0.8-2.9,2.2-2.5,2.2-2.5L370.4,497.9L370.4,497.9z"/>
	</g>
	<g>
		<polyline class="st1" points="370.2,497.6 370.4,497.8 379.1,503.2 		"/>
		<line class="st1" x1="370.4" y1="497.9" x2="376.9" y2="505.7"/>
		<path class="st1" d="M379.1,503.2c0,0-3-0.3-2.2,2.5"/>
	</g>
</g>
<g id="XMLID_44_">
	<g>
		<path class="st4" d="M437.4,554.5l-6.6-7.8c0.9,2.9-2.1,2.6-2.1,2.6L437.4,554.5L437.4,554.5z"/>
	</g>
	<g>
		<polyline class="st1" points="437.6,554.7 437.3,554.5 428.6,549.2 		"/>
		<line class="st1" x1="437.4" y1="554.5" x2="430.8" y2="546.6"/>
		<path class="st1" d="M428.6,549.2c0,0,3,0.3,2.1-2.6"/>
	</g>
</g>
<g>
	<path class="st4" d="M137.9,69.7c-0.9,1-2.4,1.3-3.8,0.1c-1.3-1.2-1.2-2.7-0.3-3.7c0.6-0.7,1.5-1,2.4-0.7c-0.2-0.8-0.1-1.5,0.5-2.2
		c0.8-0.9,2.3-1.3,3.5-0.2c1.2,1.1,1,2.5,0.2,3.5c-0.6,0.6-1.3,0.9-2.1,0.7C138.8,68.1,138.6,69,137.9,69.7z M137.2,69
		c0.7-0.7,0.6-1.7-0.2-2.4c-0.8-0.7-1.7-0.6-2.4,0.1c-0.7,0.7-0.6,1.8,0.1,2.4C135.6,69.8,136.6,69.7,137.2,69z M139.8,65.8
		c0.6-0.7,0.5-1.6-0.1-2.2c-0.6-0.5-1.5-0.6-2.2,0.2c-0.6,0.7-0.5,1.6,0.1,2.1C138.3,66.5,139.2,66.5,139.8,65.8z"/>
	<path class="st4" d="M146.8,70.2l-2.1-1.9l-1.7,1c0.2,0.1,0.3,0.2,0.5,0.3c1.3,1.2,1.3,2.9,0.1,4.2c-1.3,1.5-3.2,1.4-4.5,0.2
		c-0.5-0.5-0.9-1.1-1-1.8c0-0.4,0-0.8,0-1.2l1,0.1c-0.1,0.3-0.1,0.6,0,0.9c0.1,0.5,0.3,0.9,0.7,1.4c0.9,0.8,2.3,0.7,3.1-0.2
		c0.9-0.9,0.8-2.2-0.2-3.1c-0.2-0.2-0.7-0.6-1.7-0.7l3.8-2.3l2.6,2.4L146.8,70.2z"/>
</g>
<g>
	<path class="st4" d="M209.5,119.2l0.8-4.9c0.1-0.3,0.2-1.3,0.2-1.6c0-0.7-0.1-1.1-0.3-1.4c-0.5-0.9-1.5-1.1-2.4-0.6
		c-0.5,0.3-0.8,0.8-0.9,1.4c0,0.3,0.1,0.7,0.3,1l-0.8,0.5c-0.4-0.8-0.5-1.4-0.4-1.9c0.1-0.6,0.4-1.3,1.3-1.9
		c1.3-0.8,2.9-0.5,3.7,0.9c0.3,0.5,0.4,1.1,0.4,2c-0.1,0.6-0.2,1.3-0.3,1.9l-0.5,2.7l3.2-1.9l0.5,0.8L209.5,119.2z"/>
	<path class="st4" d="M215.5,115.6l0.8-4.9c0.1-0.3,0.2-1.3,0.2-1.6c0-0.7-0.1-1.1-0.3-1.4c-0.5-0.9-1.5-1.1-2.4-0.6
		c-0.5,0.3-0.8,0.8-0.9,1.4c0,0.3,0.1,0.7,0.3,1l-0.8,0.5c-0.4-0.8-0.5-1.4-0.4-1.9c0.1-0.6,0.4-1.3,1.3-1.9
		c1.3-0.8,2.9-0.5,3.7,0.9c0.3,0.5,0.4,1.1,0.4,2c-0.1,0.6-0.2,1.3-0.3,1.9l-0.5,2.7l3.2-1.9l0.5,0.8L215.5,115.6z"/>
</g>
<g>
	<path class="st4" d="M266.3,351.1v1.5l-0.9-0.5v-2h8.9v1H266.3z"/>
	<path class="st4" d="M265.7,343.2l2.8,2c-0.1-0.3-0.1-0.5-0.1-0.8c0-1.7,1.3-2.9,2.9-2.9c1.8,0,3,1.3,3,3c0,2.1-1.6,3.1-3,3.1
		c-0.3,0-1.1-0.1-2-0.7l-4.2-3L265.7,343.2z M271.4,342.6c-1.2,0-2,0.9-2,2.1s0.9,2.1,2,2.1c1.2,0,2.1-0.8,2.1-2.1
		C273.5,343.4,272.6,342.6,271.4,342.6z"/>
	<path class="st4" d="M266.3,334.5v2.8l1.9,0.6c0-0.2-0.1-0.3-0.1-0.6c0-1.8,1.3-2.9,3.1-2.9c2,0,3.2,1.5,3.2,3.2
		c0,0.7-0.2,1.4-0.7,2c-0.2,0.3-0.5,0.6-0.9,0.8l-0.6-0.8c0.3-0.1,0.5-0.3,0.7-0.6c0.3-0.4,0.5-0.8,0.5-1.4c0-1.2-1-2.2-2.3-2.2
		c-1.3,0-2.2,0.9-2.2,2.2c0,0.3,0.1,0.9,0.6,1.7l-4.3-1.3v-3.5H266.3z"/>
</g>
<g>
	<path class="st4" d="M268.5,304.1l-3.7-3.2c-0.3-0.2-1-0.8-1.3-1c-0.6-0.4-1-0.5-1.4-0.5c-1,0-1.7,0.7-1.7,1.8
		c0,0.6,0.3,1.1,0.8,1.5c0.3,0.2,0.6,0.3,1,0.3v1c-0.9,0-1.4-0.3-1.8-0.7c-0.4-0.4-0.9-1-0.9-2.1c0-1.6,1.1-2.7,2.6-2.7
		c0.6,0,1.1,0.2,1.9,0.7c0.5,0.4,1.1,0.8,1.5,1.2l2.1,1.8v-3.7h0.9V304.1z"/>
	<path class="st4" d="M266,291.2c1.4,0,2.6,0.9,2.6,2.7c0,1.8-1.2,2.7-2.6,2.7c-1,0-1.8-0.4-2.2-1.3c-0.4,0.7-1.1,1.1-1.9,1.1
		c-1.3,0-2.5-0.8-2.5-2.4c0-1.6,1.2-2.4,2.5-2.4c0.8,0,1.5,0.4,1.9,1.1C264.3,291.7,265.1,291.2,266,291.2z M261.9,292.4
		c-1,0-1.6,0.7-1.6,1.5c0,0.8,0.6,1.5,1.6,1.5c0.9,0,1.5-0.7,1.5-1.5S262.8,292.4,261.9,292.4z M266,292.2c-1,0-1.7,0.7-1.7,1.7
		c0,1,0.7,1.7,1.7,1.7c1,0,1.7-0.7,1.7-1.7C267.7,292.9,267,292.2,266,292.2z"/>
</g>
<g>
	<path class="st4" d="M243.1,203.1l2.8,2c-0.1-0.3-0.1-0.5-0.1-0.8c0-1.7,1.3-2.9,2.9-2.9c1.8,0,3,1.3,3,3c0,2.1-1.6,3.1-3,3.1
		c-0.3,0-1.1-0.1-2-0.7l-4.2-3L243.1,203.1z M248.8,202.5c-1.2,0-2,0.9-2,2.1s0.9,2.1,2,2.1c1.2,0,2.1-0.8,2.1-2.1
		C250.9,203.4,250,202.5,248.8,202.5z"/>
	<path class="st4" d="M250.5,199.3c-0.8,0.6-2,0.9-3.3,0.9c-1.3,0-2.4-0.3-3.3-0.9c-1-0.7-1.3-1.6-1.3-2.3s0.3-1.6,1.3-2.3
		c0.8-0.6,2-0.9,3.3-0.9c1.3,0,2.4,0.3,3.3,0.9c1,0.7,1.3,1.6,1.3,2.3S251.5,198.6,250.5,199.3z M244.5,198.6
		c0.8,0.5,1.8,0.7,2.7,0.7c0.9,0,1.9-0.2,2.7-0.7c0.7-0.5,1-1.1,1-1.5c0-0.5-0.2-1.1-1-1.5c-0.8-0.5-1.8-0.7-2.7-0.7
		c-0.9,0-1.9,0.2-2.7,0.7c-0.7,0.5-1,1.1-1,1.5C243.6,197.5,243.8,198.1,244.5,198.6z"/>
</g>
<g>
	<path class="st4" d="M165.7,116.6l0.8,0.7l-0.6,0.7l-0.8-0.7l-1.1,1.2l-0.7-0.7l1.1-1.2l-3.4-3l9.2-2L165.7,116.6z M165,116
		l2.6-2.9l-4.7,1L165,116z"/>
	<path class="st4" d="M171.3,121.7l0.8,0.7l-0.6,0.7l-0.8-0.7l-1.1,1.2l-0.7-0.7l1.1-1.2l-3.4-3l9.2-2L171.3,121.7z M170.6,121
		l2.6-2.9l-4.7,1L170.6,121z"/>
</g>
<g>
	<path class="st4" d="M61.6,178.9c1.4,0,2.6,0.9,2.6,2.7c0,1.8-1.2,2.7-2.6,2.7c-1,0-1.8-0.4-2.2-1.3c-0.4,0.7-1.1,1.1-1.9,1.1
		c-1.3,0-2.5-0.8-2.5-2.4c0-1.6,1.2-2.4,2.5-2.4c0.8,0,1.5,0.4,1.9,1.1C59.9,179.3,60.7,178.9,61.6,178.9z M57.5,180.1
		c-1,0-1.6,0.7-1.6,1.5c0,0.8,0.6,1.5,1.6,1.5c0.9,0,1.5-0.7,1.5-1.5S58.4,180.1,57.5,180.1z M61.6,179.9c-1,0-1.7,0.7-1.7,1.7
		s0.7,1.7,1.7,1.7c1,0,1.7-0.7,1.7-1.7C63.3,180.6,62.6,179.9,61.6,179.9z"/>
	<path class="st4" d="M56.1,172v2.8l1.9,0.6c0-0.2-0.1-0.3-0.1-0.6c0-1.8,1.3-2.9,3.1-2.9c2,0,3.2,1.5,3.2,3.2c0,0.7-0.2,1.4-0.7,2
		c-0.2,0.3-0.5,0.6-0.9,0.8l-0.6-0.8c0.3-0.1,0.5-0.3,0.7-0.6c0.3-0.4,0.5-0.8,0.5-1.4c0-1.2-1-2.2-2.3-2.2c-1.3,0-2.2,0.9-2.2,2.2
		c0,0.3,0.1,0.9,0.6,1.7l-4.3-1.3V172H56.1z"/>
</g>
<g>
	<path class="st4" d="M37.8,169.8v1.5l-0.9-0.5v-2h8.9v1H37.8z"/>
	<path class="st4" d="M43.1,161.7v-1.1H44v1.1h1.7v1H44v4.5l-7.7-5.5H43.1z M43.1,162.7h-3.9l3.9,2.8V162.7z"/>
	<path class="st4" d="M44.5,158.4c-0.8,0.6-2,0.9-3.3,0.9c-1.3,0-2.4-0.3-3.3-0.9c-1-0.7-1.3-1.6-1.3-2.3s0.3-1.6,1.3-2.3
		c0.8-0.6,2-0.9,3.3-0.9c1.3,0,2.4,0.3,3.3,0.9c1,0.7,1.3,1.6,1.3,2.3S45.5,157.7,44.5,158.4z M38.6,157.7c0.8,0.5,1.8,0.7,2.7,0.7
		c0.9,0,1.9-0.2,2.7-0.7c0.7-0.5,1-1.1,1-1.5c0-0.5-0.2-1.1-1-1.5c-0.8-0.5-1.8-0.7-2.7-0.7c-0.9,0-1.9,0.2-2.7,0.7
		c-0.7,0.5-1,1.1-1,1.5C37.6,156.6,37.8,157.2,38.6,157.7z"/>
</g>
<g>
	<path class="st4" d="M81.6,57.9l-1.3,0.8l0-1.1l1.7-1l4.6,7.6l-0.8,0.5L81.6,57.9z"/>
	<path class="st4" d="M88.1,53.3l-0.3,3.5c0.2-0.2,0.4-0.4,0.6-0.5c1.5-0.9,3.1-0.4,4,1c0.9,1.5,0.5,3.3-1,4.2
		c-1.8,1.1-3.5,0.2-4.2-1c-0.2-0.3-0.5-1-0.4-2.1l0.4-5.1L88.1,53.3z M91.6,57.8c-0.6-1-1.8-1.3-2.8-0.7c-1,0.6-1.3,1.8-0.7,2.8
		c0.6,1,1.8,1.4,2.9,0.7C91.9,60.1,92.2,58.8,91.6,57.8z"/>
</g>
<g>
	<path class="st4" d="M209.9,457.1l4.9-0.6c0.3,0,1.3-0.2,1.6-0.3c0.7-0.2,1-0.4,1.3-0.7c0.7-0.7,0.6-1.8-0.2-2.5
		c-0.5-0.4-1-0.6-1.6-0.4c-0.3,0.1-0.6,0.3-0.9,0.6l-0.7-0.7c0.6-0.6,1.2-0.9,1.7-0.9c0.6-0.1,1.3,0,2.2,0.7c1.2,1,1.3,2.7,0.3,3.8
		c-0.4,0.4-0.9,0.7-1.8,0.9c-0.6,0.1-1.3,0.2-1.9,0.3l-2.8,0.3l2.8,2.5l-0.6,0.7L209.9,457.1z"/>
</g>
<g>
	<path class="st4" d="M374.3,345.8l0.9-0.6l0.5,0.8l-0.9,0.6l0.9,1.4l-0.8,0.5l-0.9-1.4l-3.8,2.5l0.3-9.4L374.3,345.8z M373.5,346.4
		l-2.2-3.3l-0.2,4.8L373.5,346.4z"/>
	<path class="st4" d="M378.1,336.9l-2.4,1.6l0.6,1.9c0.1-0.1,0.3-0.2,0.4-0.4c1.5-1,3.2-0.5,4.1,0.9c1.1,1.6,0.5,3.5-0.9,4.4
		c-0.6,0.4-1.3,0.6-2,0.5c-0.4,0-0.8-0.1-1.1-0.3l0.3-0.9c0.3,0.2,0.6,0.2,0.9,0.3c0.5,0,1,0,1.5-0.4c1-0.7,1.2-2.1,0.6-3.1
		c-0.7-1.1-2-1.3-3-0.6c-0.3,0.2-0.7,0.6-1.1,1.5l-1.3-4.3l2.9-1.9L378.1,336.9z"/>
</g>
<g>
	<path class="st4" d="M434.9,376.4l-1.3,0.8l0-1.1l1.7-1l4.6,7.6l-0.8,0.5L434.9,376.4z"/>
	<path class="st4" d="M445.3,376.6c0.7,1.2,0.6,2.7-1,3.6c-1.5,0.9-3,0.3-3.7-0.8c-0.5-0.8-0.5-1.7,0-2.5c-0.8,0-1.5-0.4-1.9-1.1
		c-0.6-1.1-0.5-2.5,0.8-3.4c1.4-0.8,2.7-0.2,3.4,0.8c0.4,0.7,0.5,1.5,0.1,2.2C444.1,375.3,444.8,375.8,445.3,376.6z M442.2,373.7
		c-0.5-0.8-1.4-1-2.1-0.6c-0.7,0.4-1,1.3-0.5,2.1c0.5,0.8,1.3,1,2.1,0.5C442.4,375.3,442.7,374.4,442.2,373.7z M444.5,377.1
		c-0.5-0.9-1.5-1.1-2.3-0.6c-0.9,0.5-1.1,1.5-0.6,2.3c0.5,0.9,1.5,1.1,2.4,0.6C444.8,378.9,445,377.9,444.5,377.1z"/>
</g>
<g>
	<path class="st4" d="M406.5,514.8c0.3-0.4,0.7-0.6,1.2-0.7c1-0.3,1.8,0.2,2.2,0.5c1.3,1.1,1.2,2.5,0.4,3.4c-0.4,0.5-1.2,1-2.1,0.8
		c0.2,0.3,0.6,1.3-0.4,2.5c-1.1,1.3-2.6,1.3-3.8,0.3c-0.7-0.6-1.3-1.6-0.9-2.8c0.1-0.3,0.3-0.6,0.4-0.8l0.8,0.6
		c-0.2,0.3-0.3,0.6-0.3,0.9c0,0.5,0.2,1,0.6,1.4c0.8,0.6,1.9,0.5,2.5-0.3c0.3-0.4,0.6-1,0.3-1.7c-0.1-0.3-0.4-0.6-0.7-0.8l0.6-0.7
		c0.2,0.2,0.6,0.4,0.9,0.5c0.3,0.1,0.9,0.1,1.4-0.5c0.5-0.6,0.6-1.4-0.2-2.1c-0.3-0.2-0.7-0.5-1.2-0.3c-0.3,0.1-0.6,0.2-0.9,0.5
		L406.5,514.8z"/>
	<path class="st4" d="M411.8,519.3c0.3-0.4,0.7-0.6,1.2-0.7c1-0.3,1.8,0.2,2.2,0.5c1.3,1.1,1.2,2.5,0.4,3.4c-0.4,0.5-1.2,1-2.1,0.8
		c0.2,0.3,0.6,1.3-0.4,2.5c-1.1,1.3-2.6,1.3-3.8,0.3c-0.7-0.6-1.3-1.6-0.9-2.8c0.1-0.3,0.3-0.6,0.4-0.8l0.8,0.6
		c-0.2,0.3-0.3,0.6-0.3,0.9c0,0.5,0.2,1,0.6,1.4c0.8,0.6,1.9,0.5,2.5-0.3c0.3-0.4,0.6-1,0.3-1.7c-0.1-0.3-0.4-0.6-0.7-0.8l0.6-0.7
		c0.2,0.2,0.6,0.4,0.9,0.5c0.3,0.1,0.9,0.1,1.4-0.5c0.5-0.6,0.6-1.4-0.2-2.1c-0.3-0.2-0.7-0.5-1.2-0.3c-0.3,0.1-0.6,0.2-0.9,0.5
		L411.8,519.3z"/>
</g>
<g>
	<path class="st4" d="M304.3,493.8v1.5l-0.9-0.5v-2h8.9v1H304.3z"/>
	<path class="st4" d="M311.1,489.1c-0.8,0.6-2,0.9-3.3,0.9c-1.3,0-2.4-0.3-3.3-0.9c-1-0.7-1.3-1.6-1.3-2.3c0-0.7,0.3-1.6,1.3-2.3
		c0.8-0.6,2-0.9,3.3-0.9c1.3,0,2.4,0.3,3.3,0.9c1,0.7,1.3,1.6,1.3,2.3C312.4,487.6,312.1,488.4,311.1,489.1z M305.1,488.4
		c0.8,0.5,1.8,0.7,2.7,0.7c0.9,0,1.9-0.2,2.7-0.7c0.7-0.5,1-1.1,1-1.5c0-0.5-0.2-1.1-1-1.5c-0.8-0.5-1.8-0.7-2.7-0.7
		c-0.9,0-1.9,0.2-2.7,0.7c-0.7,0.5-1,1.1-1,1.5C304.1,487.3,304.4,487.9,305.1,488.4z"/>
	<path class="st4" d="M311.1,481.6c-0.8,0.6-2,0.9-3.3,0.9c-1.3,0-2.4-0.3-3.3-0.9c-1-0.7-1.3-1.6-1.3-2.3c0-0.7,0.3-1.6,1.3-2.3
		c0.8-0.6,2-0.9,3.3-0.9c1.3,0,2.4,0.3,3.3,0.9c1,0.7,1.3,1.6,1.3,2.3C312.4,480,312.1,480.9,311.1,481.6z M305.1,480.8
		c0.8,0.5,1.8,0.7,2.7,0.7c0.9,0,1.9-0.2,2.7-0.7c0.7-0.5,1-1.1,1-1.5c0-0.5-0.2-1.1-1-1.5c-0.8-0.5-1.8-0.7-2.7-0.7
		c-0.9,0-1.9,0.2-2.7,0.7c-0.7,0.5-1,1.1-1,1.5C304.1,479.8,304.4,480.4,305.1,480.8z"/>
</g>
<g>
	<path class="st4" d="M113.9,208.3c-0.9,1-2.4,1.3-3.8,0.1c-1.3-1.2-1.2-2.7-0.3-3.7c0.6-0.7,1.5-1,2.4-0.7
		c-0.2-0.8-0.1-1.5,0.5-2.2c0.8-0.9,2.3-1.3,3.5-0.2c1.2,1.1,1,2.5,0.2,3.5c-0.6,0.6-1.3,0.9-2.1,0.7
		C114.7,206.7,114.5,207.6,113.9,208.3z M113.2,207.6c0.7-0.7,0.6-1.7-0.2-2.4c-0.8-0.7-1.7-0.6-2.4,0.1c-0.7,0.7-0.6,1.8,0.1,2.4
		C111.5,208.4,112.5,208.4,113.2,207.6z M115.7,204.4c0.6-0.7,0.5-1.6-0.1-2.2c-0.6-0.5-1.5-0.6-2.2,0.2c-0.6,0.7-0.5,1.6,0.1,2.1
		C114.2,205.1,115.1,205.1,115.7,204.4z"/>
</g>
<g>
	<path class="st4" d="M318.6,575.6c0-0.5,0.2-0.9,0.4-1.3c0.6-0.9,1.5-1,2.1-1c1.7,0,2.5,1.2,2.5,2.4c0,0.6-0.2,1.5-1.1,2
		c0.3,0.1,1.3,0.6,1.3,2.1c0,1.7-1.2,2.7-2.7,2.7c-0.9,0-2-0.4-2.5-1.5c-0.1-0.3-0.2-0.6-0.2-0.9h1c0,0.3,0.1,0.7,0.3,0.9
		c0.3,0.4,0.8,0.7,1.4,0.7c1,0,1.7-0.8,1.7-1.8c0-0.5-0.2-1.2-0.9-1.5c-0.3-0.1-0.7-0.2-1-0.2v-0.9c0.3,0,0.7,0,1-0.2
		c0.3-0.1,0.7-0.5,0.7-1.3c0-0.8-0.4-1.5-1.5-1.5c-0.4,0-0.8,0.1-1.1,0.5c-0.2,0.2-0.3,0.6-0.3,0.9H318.6z"/>
	<path class="st4" d="M326.5,581.1c-0.6-0.8-0.9-2-0.9-3.3c0-1.3,0.3-2.4,0.9-3.3c0.7-1,1.6-1.3,2.3-1.3c0.7,0,1.6,0.3,2.3,1.3
		c0.6,0.8,0.9,2,0.9,3.3c0,1.3-0.3,2.4-0.9,3.3c-0.7,1-1.6,1.3-2.3,1.3C328.1,582.4,327.2,582.1,326.5,581.1z M327.3,575.1
		c-0.5,0.8-0.7,1.8-0.7,2.7c0,0.9,0.2,1.9,0.7,2.7c0.5,0.7,1.1,1,1.5,1c0.5,0,1.1-0.2,1.5-1c0.5-0.8,0.7-1.8,0.7-2.7
		c0-0.9-0.2-1.9-0.7-2.7c-0.5-0.7-1.1-1-1.5-1C328.4,574.2,327.7,574.4,327.3,575.1z"/>
	<path class="st4" d="M335.9,573.4c0.6,0,1.1,0.5,1.1,1.1s-0.5,1.1-1.1,1.1c-0.6,0-1.1-0.5-1.1-1.1S335.3,573.4,335.9,573.4z
		 M335.9,575.1c0.3,0,0.6-0.3,0.6-0.6s-0.3-0.6-0.6-0.6s-0.6,0.3-0.6,0.6S335.6,575.1,335.9,575.1z"/>
</g>
<g>
	<path class="st4" d="M426.4,310.4l4.9-0.6c0.3,0,1.3-0.2,1.6-0.3c0.7-0.2,1-0.4,1.3-0.7c0.7-0.7,0.6-1.8-0.2-2.5
		c-0.5-0.4-1-0.6-1.6-0.4c-0.3,0.1-0.6,0.3-0.9,0.6l-0.7-0.7c0.6-0.6,1.2-0.9,1.7-0.9c0.6-0.1,1.3,0,2.2,0.7c1.2,1,1.3,2.7,0.3,3.8
		c-0.4,0.4-0.9,0.7-1.8,0.9c-0.6,0.1-1.3,0.2-1.9,0.3l-2.8,0.3l2.8,2.5l-0.6,0.7L426.4,310.4z"/>
</g>
<g>
	<path class="st4" d="M445,432.9v2.8l1.9,0.6c0-0.2-0.1-0.3-0.1-0.6c0-1.8,1.3-2.9,3.1-2.9c2,0,3.2,1.5,3.2,3.2c0,0.7-0.2,1.4-0.7,2
		c-0.2,0.3-0.5,0.6-0.9,0.8l-0.6-0.8c0.3-0.1,0.5-0.3,0.7-0.6c0.3-0.4,0.5-0.8,0.5-1.4c0-1.2-1-2.2-2.3-2.2c-1.3,0-2.2,0.9-2.2,2.2
		c0,0.3,0.1,0.9,0.6,1.7l-4.3-1.3v-3.5H445z"/>
	<path class="st4" d="M450.3,426.2v-1.1h0.9v1.1h1.7v1h-1.7v4.5l-7.7-5.5H450.3z M450.3,427.2h-3.9l3.9,2.8V427.2z"/>
</g>
<g>
	<path class="st4" d="M331.4,480.9c1.4,0,2.6,0.9,2.6,2.7c0,1.8-1.2,2.7-2.6,2.7c-1,0-1.8-0.4-2.2-1.3c-0.4,0.7-1.1,1.1-1.9,1.1
		c-1.3,0-2.5-0.8-2.5-2.4c0-1.6,1.2-2.4,2.5-2.4c0.8,0,1.5,0.4,1.9,1.1C329.6,481.3,330.4,480.9,331.4,480.9z M327.3,482.1
		c-1,0-1.6,0.7-1.6,1.5c0,0.8,0.6,1.5,1.6,1.5c0.9,0,1.5-0.7,1.5-1.5C328.8,482.7,328.2,482.1,327.3,482.1z M331.4,481.9
		c-1,0-1.7,0.7-1.7,1.7c0,1,0.7,1.7,1.7,1.7c1,0,1.7-0.7,1.7-1.7C333.1,482.6,332.4,481.9,331.4,481.9z"/>
	<path class="st4" d="M332.7,478.3c-0.8,0.6-2,0.9-3.3,0.9c-1.3,0-2.4-0.3-3.3-0.9c-1-0.7-1.3-1.6-1.3-2.3c0-0.7,0.3-1.6,1.3-2.3
		c0.8-0.6,2-0.9,3.3-0.9c1.3,0,2.4,0.3,3.3,0.9c1,0.7,1.3,1.6,1.3,2.3C334,476.8,333.6,477.6,332.7,478.3z M326.7,477.6
		c0.8,0.5,1.8,0.7,2.7,0.7c0.9,0,1.9-0.2,2.7-0.7c0.7-0.5,1-1.1,1-1.5c0-0.5-0.2-1.1-1-1.5c-0.8-0.5-1.8-0.7-2.7-0.7
		c-0.9,0-1.9,0.2-2.7,0.7c-0.7,0.5-1,1.1-1,1.5C325.7,476.5,326,477.1,326.7,477.6z"/>
</g>
<g>
	<path class="st4" d="M286.6,270.2v1.5l-0.9-0.5v-2h8.9v1H286.6z"/>
	<path class="st4" d="M292.1,261.4c1.4,0,2.6,0.9,2.6,2.7c0,1.8-1.2,2.7-2.6,2.7c-1,0-1.8-0.4-2.2-1.3c-0.4,0.7-1.1,1.1-1.9,1.1
		c-1.3,0-2.5-0.8-2.5-2.4c0-1.6,1.2-2.4,2.5-2.4c0.8,0,1.5,0.4,1.9,1.1C290.3,261.9,291.1,261.4,292.1,261.4z M288,262.6
		c-1,0-1.6,0.7-1.6,1.5c0,0.8,0.6,1.5,1.6,1.5c0.9,0,1.5-0.7,1.5-1.5S288.9,262.6,288,262.6z M292.1,262.4c-1,0-1.7,0.7-1.7,1.7
		s0.7,1.7,1.7,1.7c1,0,1.7-0.7,1.7-1.7C293.8,263.1,293.1,262.4,292.1,262.4z"/>
	<path class="st4" d="M286.6,255.3v4.8h-0.9v-6.5l9.1,5.9l-0.5,0.8L286.6,255.3z"/>
</g>
<g>
	<path class="st4" d="M209.5,232.4l-1.3,0.8l0-1.1l1.7-1l4.6,7.6l-0.8,0.5L209.5,232.4z"/>
	<path class="st4" d="M213,231.7c-0.2-0.4-0.3-0.9-0.3-1.3c0-1.1,0.8-1.7,1.2-1.9c1.4-0.9,2.7-0.3,3.4,0.8c0.3,0.5,0.6,1.4,0,2.3
		c0.3-0.1,1.4-0.1,2.2,1.2c0.9,1.4,0.3,2.9-1,3.7c-0.8,0.5-1.9,0.7-2.9,0c-0.3-0.2-0.5-0.4-0.6-0.7l0.8-0.5c0.2,0.3,0.5,0.5,0.7,0.6
		c0.5,0.2,1,0.2,1.5-0.1c0.8-0.5,1.1-1.6,0.6-2.4c-0.3-0.4-0.8-0.9-1.5-0.8c-0.3,0-0.7,0.2-1,0.4l-0.5-0.8c0.3-0.2,0.6-0.4,0.8-0.7
		c0.2-0.3,0.4-0.8,0-1.5c-0.4-0.7-1.1-1.1-2.1-0.5c-0.3,0.2-0.6,0.5-0.7,1c0,0.3,0,0.6,0.2,1L213,231.7z"/>
</g>
<g>
	<path class="st4" d="M65.7,108.4l-3.7-3.2c-0.3-0.2-1-0.8-1.3-1c-0.6-0.4-1-0.5-1.4-0.5c-1,0-1.7,0.7-1.7,1.8
		c0,0.6,0.3,1.1,0.8,1.5c0.3,0.2,0.6,0.3,1,0.3v1c-0.9,0-1.4-0.3-1.8-0.7c-0.4-0.4-0.9-1-0.9-2.1c0-1.6,1.1-2.7,2.6-2.7
		c0.6,0,1.1,0.2,1.9,0.7c0.5,0.4,1.1,0.8,1.5,1.2l2.1,1.8v-3.7h0.9V108.4z"/>
	<path class="st4" d="M57.8,99.9v1.5l-0.9-0.5v-2h8.9v1H57.8z"/>
</g>
<g>
	<path class="st4" d="M257.7,251.1l-1.1-1l1-0.3l1.4,1.3l-5.9,6.6l-0.7-0.7L257.7,251.1z"/>
	<path class="st4" d="M264.2,256.9l-2.1-1.9l-1.7,1c0.2,0.1,0.3,0.2,0.5,0.3c1.3,1.2,1.3,3,0.1,4.2c-1.3,1.5-3.2,1.4-4.5,0.2
		c-0.5-0.5-0.9-1.1-1-1.8c0-0.4,0-0.8,0-1.2l1,0.1c-0.1,0.3-0.1,0.6,0,0.9c0.1,0.5,0.3,0.9,0.7,1.4c0.9,0.8,2.3,0.7,3.1-0.2
		c0.9-0.9,0.8-2.2-0.2-3.1c-0.2-0.2-0.7-0.6-1.7-0.7l3.8-2.3l2.6,2.4L264.2,256.9z"/>
</g>
</svg>
