<?xml version="1.0" encoding="utf-8"?>
<!-- Generator: Adobe Illustrator 23.0.3, SVG Export Plug-In . SVG Version: 6.00 Build 0)  -->
<svg version="1.1" id="Слой_1" xmlns="http://www.w3.org/2000/svg" xmlns:xlink="http://www.w3.org/1999/xlink" x="0px" y="0px"
	 viewBox="0 0 500 600" style="enable-background:new 0 0 500 600;" xml:space="preserve">
<style type="text/css">
	.st0{fill:none;stroke:#4E86B9;stroke-width:0.6;stroke-linecap:round;stroke-linejoin:round;stroke-miterlimit:10;}
	.st1{clip-path:url(#SVGID_2_);fill:#4E86B9;}
	.st2{clip-path:url(#SVGID_4_);fill:#4E86B9;}
	.st3{clip-path:url(#SVGID_6_);fill:#4E86B9;}
	.st4{clip-path:url(#SVGID_8_);fill:#4E86B9;}
	.st5{clip-path:url(#SVGID_10_);fill:#4E86B9;}
	.st6{clip-path:url(#SVGID_12_);fill:#4E86B9;}
	.st7{clip-path:url(#SVGID_14_);fill:#4E86B9;}
	.st8{clip-path:url(#SVGID_16_);fill:#4E86B9;}
	
		.st9{clip-path:url(#SVGID_18_);fill:none;stroke:#4E86B9;stroke-width:0.6;stroke-linecap:round;stroke-linejoin:round;stroke-miterlimit:10;}
	.st10{clip-path:url(#SVGID_20_);fill:#4E86B9;}
	.st11{clip-path:url(#SVGID_22_);fill:#4E86B9;}
	.st12{clip-path:url(#SVGID_24_);fill:#4E86B9;}
	.st13{clip-path:url(#SVGID_26_);fill:#4E86B9;}
	.st14{clip-path:url(#SVGID_28_);fill:#4E86B9;}
	.st15{clip-path:url(#SVGID_30_);fill:#4E86B9;}
	.st16{clip-path:url(#SVGID_32_);fill:#4E86B9;}
	.st17{clip-path:url(#SVGID_34_);fill:#4E86B9;}
	.st18{clip-path:url(#SVGID_36_);fill:#4E86B9;}
	.st19{clip-path:url(#SVGID_38_);fill:#4E86B9;}
	.st20{clip-path:url(#SVGID_40_);fill:#4E86B9;}
	.st21{clip-path:url(#SVGID_42_);fill:#4E86B9;}
	.st22{clip-path:url(#SVGID_44_);fill:#4E86B9;}
	.st23{clip-path:url(#SVGID_46_);fill:#4E86B9;}
	.st24{clip-path:url(#SVGID_48_);fill:#4E86B9;}
	.st25{clip-path:url(#SVGID_50_);fill:#4E86B9;}
	.st26{clip-path:url(#SVGID_52_);fill:#4E86B9;}
	.st27{clip-path:url(#SVGID_54_);fill:#4E86B9;}
	.st28{clip-path:url(#SVGID_56_);fill:#4E86B9;}
	.st29{clip-path:url(#SVGID_58_);fill:#4E86B9;}
	.st30{clip-path:url(#SVGID_60_);fill:#4E86B9;}
	.st31{clip-path:url(#SVGID_62_);fill:#4E86B9;}
	.st32{clip-path:url(#SVGID_64_);fill:#4E86B9;}
	
		.st33{clip-path:url(#SVGID_66_);fill:none;stroke:#4E86B9;stroke-width:0.6;stroke-linecap:round;stroke-linejoin:round;stroke-miterlimit:10;}
	.st34{clip-path:url(#SVGID_68_);fill:#4E86B9;}
	.st35{clip-path:url(#SVGID_70_);fill:#4E86B9;}
	.st36{fill:#4E86B9;}
</style>
<path class="st0" d="M314.3,410.8V98.2 M318.3,95.3l-138.6,86.5 M320.3,407.6L185.5,494 M198.6,431.1l-0.4,0.1l-0.3,0.2l-0.3,0.3
	l-0.2,0.3l-0.1,0.4v0.4l0.1,0.4l0.2,0.3l0.3,0.3l0.3,0.2l0.4,0.1h0.4l0.4-0.1l0.4-0.1l0.3-0.2l0.2-0.3l0.2-0.4l0.1-0.4v-0.4
	l-0.1-0.4l-0.2-0.3l-0.3-0.3l-0.3-0.2l-0.4-0.1L198.6,431.1l0.2,1.5 M355.3,384.4l-0.2,50.8 M394.2,375.9l-23.9-21.2 M405.4,401.7
	l-11.1-10 M403.7,377.4l-23.9-21.2 M379.7,433.6l15,13.3 M383.6,439.8l11.5,10.2 M356.3,438.1l17.9,16 M381,453.3l2.6,2.4
	 M405.4,395.3v12 M412.3,407.3v-12 M412.4,471.9v-12 M405.5,459.9v12 M415,449.9l-0.2-1.1l-0.7-1.1l-0.2-0.1 M414,447.5l-1.5-1.3
	 M403.9,455.8l1.5,1.3 M405.4,457.1l1,0.6l1.3,0.2l1.5-0.3l1.6-0.8l1.6-1.3l1.3-1.7l0.9-1.8l0.2-0.8 M413.9,411.4l-1.5-1.3
	 M403.8,419.7l1.5,1.3 M405.2,420.9l1,0.7l1.2,0.3l1.4-0.2l1.6-0.7l1.6-1.3l1.4-1.6l1-1.8l0.5-1.9l-0.2-1.4 M352.1,306.4l-4.5-0.6
	 M347.6,305.9L352,286 M352.1,306.4l4.5-19.9 M347.6,305.9l0.2,233 M352.1,306.4l0.2,233 M352.3,539.4l-4.5-0.6 M356.1,376.1
	l0.6-2.7 M356.1,380.6v-4.5 M352.3,539.4l4.5-19.9 M352,286l0.3-0.9l0.4-0.9l0.5-0.8l0.5-0.8l0.6-0.8l0.7-0.7l0.8-0.7l0.9-0.6
	 M356.6,286.6l0.2-0.6l0.2-0.6l0.3-0.6l0.4-0.5l0.4-0.5l0.5-0.5l0.5-0.5l0.6-0.4 M359.8,369.3l-0.6,0.4l-0.5,0.5l-0.5,0.5l-0.4,0.5
	l-0.4,0.5l-0.3,0.6l-0.2,0.6l-0.2,0.6 M356.7,279.7l29-18.7 M385.7,261.1l3,2.7 M359.7,282.4l29-18.7 M388.6,263.7l0.1,100.5
	 M359.9,515.4l28.5-17.9 M372.1,452.3l-1.6,0.8l-1.4,0.1l-1-0.6l-0.3-1.2l0.3-1.7l0.3-0.7 M372,285.8l1.7-0.8l1.4-0.1l1,0.6l0.3,1.2
	l-0.3,1.7l-0.9,1.8l-1.4,1.7l-1.7,1.4l-1.7,0.8l-1.4,0.1l-1-0.6l-0.3-1.2l0.3-1.7l1-1.8l1.4-1.7L372,285.8L372,285.8z M376,285.4
	l-0.4,0.8l-1.5,2.4l-1.9,2.3l-2.2,1.9l-1.7,1.2 M356.8,519.5l0.2-0.6l0.2-0.6l0.3-0.6l0.4-0.5l0.4-0.5l0.5-0.5l0.5-0.5l0.6-0.4
	 M371,451.3l-0.7,0.5l-1.7,1.2 M373.1,400.4l0.2-1.4l0.4-1.6l0.7-1.6l1-1.7l1.2-1.6l1.4-1.5l1.5-1.3l1.5-1.1 M381,388.5l0.9-0.6
	 M382.7,386.7v0.2v0.2l-0.1,0.2l-0.1,0.2l-0.1,0.2l-0.1,0.2l-0.2,0.1l-0.2,0.1 M382.7,385.9v0.8 M395,378l-0.4-1.6l-1.1-0.9
	l-1.6-0.1l-2,0.7l-1.4,0.9 M383.4,383.1l-0.4,0.8l-0.4,2 M395,378.7v-0.8 M395.9,378.9l-0.2,0.1l-0.2,0.1h-0.1h-0.1h-0.1l-0.1-0.1
	v-0.1v-0.1 M395.9,378.9l0.9-0.6 M396.8,378.3l1.5-0.9l1.5-0.6l1.4-0.3l1.2,0.1l1,0.4l0.7,0.7l0.5,1l0.2,1.2 M404.7,380v21.1
	 M387.9,455.4l-2,0.7l-1.6-0.1l-1.1-0.9l-0.4-1.6 M382.8,453.5v-0.8 M381.9,452.6l0.2-0.1l0.2-0.1h0.2h0.1h0.1l0.1,0.1v0.1v0.1
	 M381.9,452.6l-0.9,0.6 M381,453.2l-1.5,0.9l-1.5,0.6l-1.4,0.3l-1.2-0.1l-1-0.4l-0.7-0.7l-0.5-1l-0.2-1.2 M373.1,451.5l-0.1-51.1
	 M382.8,437.8v-1.4 M383.6,439.8l-0.4-0.5l-0.4-1.6 M382.7,401.7l0.4-2l1.1-2.3l1.6-2.2l2-1.9l2.1-1.4l2-0.7l1.6,0.1l0.7,0.4
	 M382.7,403.2v-1.5 M381.4,406.6l1-1.8l0.3-1.4v-0.2 M378.4,415l0.1-0.9l0.2-1l0.2-1l0.4-1.1l0.4-1.1l0.5-1.1l0.6-1.1l0.7-1.1
	 M378.4,430.1v-15 M379.7,433.6L379.7,433.6l-0.5-0.6l-0.3-0.6l-0.3-0.7l-0.2-0.8l-0.1-0.9 M359.7,361.5l1.2-2.1l1.7-2l1.9-1.6
	l2-1.1l1.8-0.5l1.4,0.2l0.5,0.3 M364.9,369.9v-0.3v-0.4l0.1-0.4l0.1-0.4l0.1-0.4l0.1-0.4l0.2-0.4l0.2-0.4 M365.7,366.8l-0.8-0.7
	l-5.2-4.6 M363.1,372.6l-1.5,1.1l-1.5,1.3l-1.4,1.5l-1.2,1.6l-1,1.6l-0.7,1.6l-0.4,1.5l-0.1,1.4 M393.3,434.3v-6 M393.3,428.3v-0.9
	l0.2-1l0.3-1l0.4-1.1l0.4-1.1l0.5-1 M395,433.2l-1.7,1.1 M364.9,370.7v-0.8 M364.9,370.7v0.2l-0.1,0.2l-0.1,0.2l-0.1,0.2l-0.1,0.2
	l-0.2,0.2l-0.2,0.1l-0.1,0 M364,372l-0.9,0.6 M355,435.2l0.3,0.3 M354.9,384.1l0.3,0.3 M372.9,357.1l1.5-0.9l1.5-0.6l1.4-0.3
	l1.2,0.1l1,0.4l0.3,0.2 M363.3,372.5l-3.6-3.2 M393.3,434.3l3,2.7 M396.3,440v-3 M396.3,440l-3-2.6 M393.3,443.3v-6 M356.2,380.6
	l-0.5,0.3 M417.3,423.5l-1-0.9 M417.3,423.5l-1,0.6 M398,435.9l-1.7,1.1 M417.3,423.5v3 M396.3,440l20.9-13.5 M395,447.1l-0.5-0.4
	l-0.4-0.5l-0.4-0.6l-0.3-0.7l-0.2-0.8l-0.1-0.8 M356.3,438.1l-0.4-0.4l-0.4-1l-0.2-1.2 M395.1,460.3l3.7,3.3 M395.1,460.3v-21.4
	 M398,438.9l0.8,0.7 M398.8,463.6v-24 M415.6,427.6l0.8,0.7 M398.8,439.6l17.6-11.3 M416.3,452.3l-3,1.9 M405.6,459.2l-6.8,4.4
	 M416.3,428.2v24 M416.3,401.2l-3.7-3.3 M416.3,401.2l-4,2.6 M405.5,408.1l-6.8,4.4 M398.7,412.5l-3.7-3.3 M412.6,397.9l-0.3,0.2
	 M405.4,402.5l-10.4,6.7 M398.7,412.5v24 M398.8,436.6l-3.7-3.3 M395,409.2v24 M398.8,436.6l17.6-11.3 M416.3,425.2v-24
	 M406.6,393.3l-0.8,0.8l-0.4,1l0.2,1l0.7,0.9l1.1,0.6l1.3,0.3l1.3-0.1l1.2-0.5l0.8-0.8l0.4-1l-0.2-1l-0.7-0.9l-1.1-0.6l-1.3-0.3
	l-1.3,0.1L406.6,393.3L406.6,393.3z M405.4,407.3l0.2,0.8l0.7,0.9l1.1,0.6l1.3,0.3l1.3-0.1l1.2-0.5l0.8-0.8l0.4-1v-0.2 M406.1,408.8
	l-1.4,5.2 M403.3,417.3l-0.1-0.1 M405.5,408l-2.4,9.2 M411.5,409.7l-0.2-0.5 M403.1,417.2l0.1,0.6 M403.3,453.4l-0.1-0.1
	 M410.5,445.8l-1.3,0.1l-1.7,0.8l-1.7,1.4l-1.4,1.7l-0.9,1.8l-0.3,1.7 M409.9,458.1l0.3-1 M406.4,460.4l3.5-2.3 M405,456.8l1.4,3.6
	 M406.4,460.4l-0.6-0.5 M403.2,453.3l0.1,0.3 M404.4,456.2l1.5,3.6 M410.1,457.4l0.4,0.1l1.1,0.6l0.7,0.9l0.2,1l-0.4,1l-0.8,0.8
	l-1.2,0.5l-1.3,0.1l-1.3-0.3l-1.1-0.6l-0.7-0.9l-0.2-1l0.1-0.5 M412.4,471.9v0.2l-0.4,1l-0.8,0.8l-1.2,0.5l-1.3,0.1l-1.3-0.3
	l-1.1-0.6l-0.7-0.9l-0.2-0.8 M407.5,454.6L407.5,454.6l-0.6,0.2h-0.6l-0.6-0.1l-0.5-0.3l-0.2-0.2 M415,449.7L415,449.7v0.3l-0.2,0.4
	l-0.4,0.3 M412.4,446.2l-0.1-0.1l-1.2-0.4l-1.6,0.3l-1.8,1l-1.7,1.5l-1.4,1.9l-1,1.9l-0.3,1.7l0.3,1.3l0.3,0.3 M404.9,454.4
	l-0.3-0.3 M404.4,455.4v-0.1v-0.1V455v-0.2v-0.2v-0.2v-0.2V454 M404.4,455.4l0.3,0.3 M414.3,450.8l-6.8,3.8 M404.4,455.4l1.1-0.6
	 M414.2,452.1l0.1-0.1l0.4-0.4l0.1-0.3v-0.4l-0.2-0.4 M407.3,455.9l6.9-3.8 M404.7,455.7l0.4,0.3l0.6,0.2l0.6,0.1l0.6-0.1l0.4-0.2
	 M413.9,411.5l0.3,0.4l0.2,0.5v0.5l-0.2,0.5l-0.3,0.4 M407.3,420l-0.2,0.1l-0.6,0.3l-0.4,0.1h-0.6l-0.5-0.2l-0.3-0.2 M406.4,412
	l-1.6,1.8l-1.1,1.9l-0.5,1.8l0.1,1.5l0.5,0.7 M412.4,410.1l-0.9-0.4l-1.5,0.1l-1.8,0.8l-1.8,1.4 M405,420.7L405,420.7l-0.2-0.2
	l-0.1-0.1l-0.1-0.1l-0.1-0.1l-0.1-0.1V420v-0.1 M405,420.7l0.3,0.3 M404.8,420.2l-0.3-0.3 M413.8,413.8l-6.5,6.2 M405,420.7l0.3-0.3
	 M414.3,414.6L414.3,414.6l0.4-0.6l0.2-0.6v-0.6l-0.2-0.5l-0.2-0.2 M407.8,420.8l6.5-6.2 M405.3,421L405.3,421l0.5,0.3l0.6,0.1h0.4
	l0.6-0.2l0.5-0.4 M408,468.3l0.3,0.2l0.4,0.1h0.4l0.4-0.1l0.4-0.2l0.3-0.2l0.2-0.3l0.1-0.4l0.1-0.4v-0.4l-0.1-0.4l-0.2-0.3l-0.3-0.3
	l-0.3-0.2l-0.4-0.1h-0.4l-0.4,0.1l-0.3,0.2l-0.3,0.3l-0.2,0.3l-0.1,0.4v0.4l0.1,0.4l0.2,0.3L408,468.3l1-1.2 M407.8,402.7l0.3,0.3
	l0.3,0.2l0.4,0.1h0.4l0.4-0.1l0.4-0.1l0.3-0.2l0.2-0.3l0.2-0.4l0.1-0.4v-0.4l-0.1-0.4l-0.2-0.3l-0.3-0.3l-0.3-0.2l-0.4-0.1h-0.4
	l-0.4,0.1l-0.3,0.2l-0.3,0.3l-0.2,0.3l-0.1,0.4v0.4l0.1,0.4L407.8,402.7l1.3-0.9 M150.2,385.3v18.8 M208.7,420.1l-0.6-0.5
	 M194,435.4l0.6,0.5 M204.6,419h-0.2 M193.1,431.7v0.2 M131.8,225.7l-0.4,0.9 M148.9,253.7h0.9 M128.4,267.6l0.5-0.3 M124.2,259.9
	l-0.5,0.3 M137.3,260.5l0.5-0.3 M133.1,252.8l-0.5,0.3 M118.9,396.5l57.1,50.7 M170.1,267.2l-1.7,1.1 M174.4,277.6l1.4-0.9
	 M210.5,377.1l-0.1-51.4 M126.5,315.9L126.5,315.9 M207.4,344.3l-0.8-0.7 M194.3,357.3l0.8,0.7 M207.4,359.3l-0.8-0.7 M194.3,372.4
	l0.8,0.7 M213.5,232.5v-0.2 M202,232.3v0.1 M193.6,237.7l0.2,2.2l0.5,2.2l0.9,2.1l1.2,1.9 M219.1,246.1l1.2-1.9l0.9-2.1l0.5-2.2
	l0.2-2.3l-0.2-2.3l-0.5-2.2l-0.4-1.1 M220.8,232.9v-1.4 M150.8,260l-1.7,1.1 M155,270.4l1.7-1.1 M195.8,249.3l0.5,0.5 M204.8,211.5
	l-0.5-0.5 M195.7,220.7l0.5,0.5 M204.9,315.2l-0.5-0.5 M195.8,324.4l0.5,0.5 M205,390.4l-0.5-0.5 M195.9,399.5l0.5,0.5 M170.1,201.8
	l-1.7,1.1 M174.3,212.2l1.4-0.9 M131.3,167.2l-1.7,1.1 M135.5,177.6l1.7-1.1 M195.4,436.4l1.7,0.2l2.1-0.5l2.3-1.1l2.3-1.7l2.1-2.1
	l1.8-2.4l1.3-2.5l0.7-2.3v-2l-0.6-1.5l-1.2-0.9l-1.7-0.2l-2.1,0.5l-2.3,1.1l-2.3,1.7l-2.1,2.1l-1.8,2.4l-1.3,2.5l-0.7,2.3v2l0.6,1.5
	L195.4,436.4L195.4,436.4z M201.8,426.6l2.3-3.1 M201.8,426.6l-1.9-0.7 M199.9,425.9l-1.6,2.2 M200.2,428.8l-1.9-0.7 M197.9,432
	l2.3-3.1 M199.2,432.5l-1.3-0.5 M199.2,432.5l2.3-3.1 M203.4,430.1l-1.9-0.7 M205,427.9l-1.6,2.2 M205,427.9l-1.9-0.7 M203.1,427.2
	l2.3-3.1 M205.4,424l-1.3-0.5 M208.1,419.6l-0.8-0.5l-1.7-0.2l-2.1,0.5l-2.3,1.1l-2.3,1.7l-2.1,2.1l-1.8,2.4l-1.3,2.5l-0.7,2.3v2
	l0.6,1.5l0.4,0.4 M200.2,428.8l-1.5-1.3 M205.4,424l-1.5-0.3 M198.6,430.9l0.6,1.6 M203.1,427.2l-1-0.9 M199.2,426.9l4.3,3.2
	 M201.5,429.4l-2.5-2.3 M124.3,213.6l11.5,4.8 M123.4,210.7l0.9,2.9 M134.8,215.6l-11.5-4.8 M135.8,218.5l-0.9-2.9 M135.8,218.5
	l1.8-1.2 M135.2,215.4l-0.4,0.2 M123.4,210.7l0.4-0.2 M128,232.9l0.4-0.2 M124.4,221.9l3.6,11 M124.4,221.9l0.4-0.2 M122.3,221.1
	l2,0.9 M128,232.9l-2-0.9 M125.9,232.1l-3.6-11 M122.3,221.1l0.4-0.2 M143,199.4l-2.3,1.5 M140.7,200.9v-4.2 M140.7,196.7l0.4-0.3
	 M175,244.7l0.3-0.2 M175.8,245.4l-0.8-0.7 M175,244.7v4.2 M175,248.9l0.8,0.7 M140.7,196.7l-3-2.7 M140.7,200.9l-3-2.7
	 M137.7,198.2V194 M137.7,194l0.4-0.3 M176.8,179.2l3,2.7 M179.8,181.8l-1.9,0.8 M177.8,182.6l-2.1-1.9 M175.7,180.8l1.1-1.6
	 M179.8,181.8l0.3,315.6 M178.1,496.4l1.9,1 M178.1,496.4l-0.3-313.8 M221.5,154.9l-3-2.7 M179.8,181.8l41.8-26.9 M176.8,179.2
	l41.8-26.9 M193,431.7l0.3-1.4l0.9-2.4l1.5-2.4l1.9-2.3l2.2-1.9l2.2-1.4l2.2-0.8h0.2 M221.8,470.5l-0.2-230 M221.6,234.6l-0.1-79.7
	 M221.8,470.5L180,497.4 M206.6,391.6l-0.3,1.8l-0.9,2l-1.4,2l-1.7,1.8l-1.9,1.3l-1.8,0.8l-1.6,0.1l-1.2-0.5l-0.6-1.1v-1.6l0.6-1.9
	l1.2-2l1.6-1.9l1.8-1.6l1.9-1.1l1.7-0.5l1.4,0.2l0.9,0.8L206.6,391.6L206.6,391.6z M206.5,316.5l-0.3,1.8l-0.9,2l-1.4,2l-1.7,1.8
	l-1.9,1.3l-1.8,0.8l-1.6,0.1l-1.2-0.5l-0.6-1.1v-1.6l0.6-1.9l1.2-2l1.6-1.9l1.8-1.6l1.9-1.1l1.7-0.5l1.4,0.2l0.9,0.8L206.5,316.5
	L206.5,316.5z M199.2,250.7l-0.7,0.2l-1.6,0.1l-1.2-0.5l-0.6-1.1v-1.6l0,0 M206.4,212.8l-0.3,1.8l-0.9,2l-1.4,2l-1.7,1.8l-1.9,1.3
	l-1.8,0.8l-1.6,0.1l-1.2-0.5L195,221v-1.6l0.6-1.9l1.2-2l1.6-1.9l1.8-1.6l1.9-1.1l1.7-0.5l1.4,0.2l0.9,0.8L206.4,212.8L206.4,212.8z
	 M208.4,461.2l-0.3,2.1l-1,2.3l-1.5,2.4l-1.9,2.2l-2.2,1.8l-2.2,1.3l-2.1,0.6l-1.7-0.1l-1.3-0.8l-0.7-1.4v-1.9l0.7-2.2l1.2-2.4
	l1.7-2.3l2.1-2l2.2-1.6l2.2-1l1.9-0.3l1.5,0.4l1,1.1L208.4,461.2L208.4,461.2z M208.1,181.6l-0.3,2.1l-1,2.3l-1.5,2.4l-1.9,2.2
	l-2.2,1.8l-2.2,1.3l-2.1,0.6l-1.7-0.1l-1.3-0.8l-0.7-1.4v-1.9l0.7-2.2l1.3-2.4l1.7-2.3l2.1-2l2.2-1.6l2.2-1l1.9-0.3l1.5,0.4l1,1.1
	L208.1,181.6z M189.5,231.7v12.6 M190.4,243.7l-1,0.6 M211.9,219.7v-2.6 M189.5,231.7l22.5-14.5 M189.6,338.2l0.1,53.5 M189.6,391.7
	l3-2 M209.7,378.8l2.4-1.5 M212.1,377.2l-0.1-53.5 M212,323.7l-22.5,14.5 M176,494.6l2.1,1.9 M175.7,180.8l0.3,313.8 M202.5,181.2
	l-0.3-1.2l-0.6-0.5 M193.9,188l0.1,0.1l1,0.6l1.4-0.1l1.7-0.8l1.7-1.4l1.4-1.7l0.9-1.8l0.3-1.7 M219.6,152.5l2.1,1.9 M221.7,154.3
	l-0.2,0.6 M218.6,152.2l1.1,0.2 M221.7,154.3l0.1,81.1 M221.8,239.7l0.2,228.4 M221.8,470.5l0.2-2.4 M202.1,180.9l-0.3-1.2l-0.1-0.1
	 M194,188.2l0.5,0.2l1.4-0.1l1.7-0.8l1.7-1.4l1.4-1.7l0.9-1.8l0.3-1.7 M210.4,375.8l1.6,1.5 M202.7,460.8l-0.3-1.2l-0.6-0.5
	 M194.2,467.6l0.1,0.1l1,0.6l1.4-0.1l1.7-0.8l1.7-1.4l1.4-1.7l0.9-1.8l0.3-1.7 M202.3,460.5l-0.3-1.2v-0.1 M194.3,467.8l0.5,0.2
	l1.4-0.1l1.7-0.8l1.7-1.4l1.4-1.7l0.9-1.8l0.3-1.7 M147.6,136.4l21.3,19 M168.9,155.7v-0.3 M183.8,168.7v0.3 M183.8,168.7l3.9,3.4
	 M198.5,181.7l2.6,2.3 M183.8,168.7l2.6-1.7 M186.5,167l3.9,3.4 M200.9,179.9l1.2,1 M168.9,155.4l2.6-1.7 M150.2,134.7l21.3,19
	 M171.6,154.2v-0.5 M126,146.8l16.7-10.8 M118.5,152.7l0.1-0.9l0.3-1l0.5-1.1l0.7-1.1l0.8-1.1l0.9-1l1-0.9l1-0.7 M123.8,144.8
	l16.7-10.8 M118.8,396.5l-0.3-243.7 M142.7,136.1l0.6-0.3l0.6-0.2l0.7-0.1h0.7l0.7,0.1l0.6,0.2l0.6,0.3l0.5,0.4 M140.5,134.1
	l1.1-0.6l1.2-0.4l1.3-0.2h1.4l1.3,0.2l1.3,0.4l1.1,0.6l1,0.7 M137.8,297.6V283 M135.6,295.6l2.2,2 M135.6,281.1v14.6 M137.8,283.1
	l-2.2-2 M137.8,283.1l0.4-0.2 M138.2,297.4l-0.4,0.2 M135.9,280.8l-0.4,0.2 M150.8,246l0.3-4.1 M151.2,241.8l-0.1,0.1 M151.2,241.8
	l0.3-0.6l0,0 M151.1,241.9l-1.4-3.2l-1.8-3.2l-2.1-3l-2.3-2.7l-2.4-2.2l-2.4-1.7l-2.2-1l-1.9-0.3L133,225l-1.2,1.1l-0.7,1.7
	l-0.2,2.3l0.4,2.7l0.9,3l1.3,3.2l1.7,3.2l2.1,3.1l2.3,2.8l2.4,2.3l2.4,1.8l2.2,1.2l2,0.5l1.7-0.2l1.3-0.9l0.8-1.6 M152.8,251.2
	l-0.3-0.2l-0.2-0.1 M153.1,251.7l-1,1.3l-1.5,0.6h-0.7 M131.8,225.7l0.9-1.3l1.5-0.7h1.9l2.2,0.7l2.4,1.4l2.5,2.1l2.4,2.6l2.3,3
	l2,3.3l1.7,3.3 M151.5,249.1l-0.2-0.4l-0.2-0.4l-0.1-0.4l-0.1-0.4l-0.1-0.4v-0.4v-0.3v-0.3 M151.5,249.1l0.7,1.5 M152.3,251
	L152.3,251L152.3,251l-0.1-0.2v-0.1v-0.1v-0.1v-0.1v-0.1 M135.7,239.7v-1.1 M136.7,240.7l-1.1-0.9 M136.7,240.7l1.1,1.8l1.2,1.7
	l1.3,1.5l1.3,1.3l1.3,1.1l1.3,0.8l1.2,0.5l1.1,0.2 M147.8,250.6l-1.1-0.9 M147.8,249.5v1.1 M147.8,249.5l0.8-0.4l0.6-0.7l0.4-1
	l0.1-1.2l-0.1-1.4l-0.3-1.6l-0.6-1.7l-0.8-1.8 M147.8,238.5v1.1 M146.8,237.5l1.1,1 M146.8,237.5l-1.1-1.8l-1.2-1.7l-1.3-1.5
	l-1.3-1.3l-1.3-1.1l-1.3-0.8l-1.2-0.5l-1.1-0.2 M135.8,227.6l1.1,1 M135.7,228.7v-1.1 M135.7,228.7l-0.8,0.4l-0.6,0.7l-0.4,1
	l-0.1,1.2l0.1,1.4l0.3,1.6l0.6,1.7l0.8,1.8 M137.9,228.9l-1.1-0.4 M147.8,249.5l1.8-4.2 M135.7,239.7l8.8-5.6 M135.7,228.7l1.8,2
	l0.3,2l-0.6,2.5l-1.6,3.5 M136.7,240.7l4.9,1.6l2.5,1.8l1.6,2.3l1,3.3 M166.5,236.9l0.7,0.4 M124.8,259.8l-0.5,0.1l-0.1,0.1
	 M128.9,267.2l0.4-0.5 M127.7,263.2l-1-1.4l-1.1-1l-1-0.6h-0.8l-0.5,0.6l-0.1,1.1l0.4,1.4l0.7,1.5l1,1.4l1.1,1l1,0.6h0.8l0.5-0.6
	l0.1-1.1l-0.4-1.4C128.4,264.6,127.7,263.2,127.7,263.2z M126.1,264.5l-0.7,0.3 M126.1,264.5l0.9,1.5 M127,266l0.4-0.2 M126.5,264.3
	l0.9,1.5 M127.2,264l-0.7,0.3 M126.6,263l0.6,1 M126.6,263l-0.7,0.3 M125,261.8l0.9,1.5 M124.6,262l0.4-0.2 M124.6,262l0.9,1.5
	 M125.5,263.5l-0.7,0.3 M124.8,263.8l0.6,1 M126.5,264.3l0.6-0.4 M125.1,262h-0.5 M127,266l0.3-0.5 M125.5,263.5l0.4-0.3
	 M126.1,264.5l1-0.7 M125.4,264.8l1.7-1 M133.7,252.7l-0.5,0.1h-0.1 M137.8,260.2l0.4-0.5 M135.6,254.6l-1.1-1l-1-0.5h-0.8l-0.5,0.6
	v1.1l0.4,1.4l0.8,1.5l1,1.4l1.1,1l1,0.5h0.8l0.5-0.6v-1.1l-0.4-1.4l-0.8-1.5L135.6,254.6L135.6,254.6z M135.2,257.6l-0.3,0.9
	 M135.2,257.6l1.1,1.2 M136.3,258.8l0.2-0.6 M135.4,257l1.1,1.2 M135.6,256.1l-0.3,0.9 M134.9,255.3l0.7,0.8 M134.9,255.3l-0.3,0.9
	 M133.6,254.9l1.1,1.2 M133.4,255.5l0.2-0.6 M133.4,255.5l1.1,1.2 M134.5,256.7l-0.3,0.9 M134.2,257.6l0.7,0.8 M134.7,256.2l0.7-0.4
	 M135.2,257.6l0.4-0.3 M134,255.4l-0.6,0.1 M134.5,256.7l1.1-0.7 M134.2,257.6l1.3-1.1 M125.9,146.9l-1,0.8l-1,0.9l-0.9,1l-0.8,1.1
	l-0.7,1.1l-0.5,1.1l-0.3,1l-0.1,0.9 M171.7,154.1l-2.6,1.7 M171.7,154.1l14.2,12.6 M185.8,166.7l-2.6,1.7 M200.9,184.2l-2.6-2.3
	 M187.5,172.3l-4.3-3.8 M125.8,146.9l16.7-10.8 M147.4,136.5l-0.5-0.4l-0.6-0.3l-0.6-0.2l-0.7-0.1h-0.7l-0.7,0.1l-0.6,0.2l-0.6,0.3
	 M169,155.8l-21.6-19.3 M150.3,403.6l-0.3,1.8l-0.8,1.2l-1.2,0.5h-0.2 M131.3,227l0.1-0.4l0.8-1.6l1.2-1l1.7-0.3l2,0.4l2.2,1.1
	l2.4,1.7l2.4,2.3l2.3,2.7l2.1,3l1.8,3.2l1.5,3.2l1,3.1l0.5,2.8v2.4l-0.5,1.9l-1,1.3l-1.5,0.6l-1.8-0.1h-0.1 M120.6,154.9l0.3,243.5
	 M155,341.5v7.5 M126.3,315.8l28.8,25.7 M126.3,323.3v-7.5 M155.1,349l-22.9-20.7 M132.2,328.6l-5.9-5.3 M166.6,268.7l0.3-1.4
	l0.8-0.7l1.3,0.1l1.6,0.8l1.7,1.5l1.6,2l1.3,2.2l0.8,1.9 M175.8,278.7l-0.8,0.6l-1.3-0.1l-1.6-0.8l-1.7-1.5l-1.6-2l-1.3-2.2
	l-0.8-2.2l-0.3-1.9 M127.7,168.8l0.3-1.4l0.8-0.7l1.3,0.1l1.6,0.8l1.7,1.5l1.6,2l1.3,2.2l0.8,2.2l0.3,1.9l-0.3,1.4l-0.8,0.7
	l-1.3-0.1l-1.6-0.8l-1.7-1.5l-1.6-2l-1.3-2.2l-0.8-2.2L127.7,168.8L127.7,168.8z M131.5,253.9l0.3-1.1l0.7-0.4l1.1,0.2l1.3,0.9
	l1.3,1.4l1.1,1.7l0.7,1.7l0.3,1.5l-0.3,1.1l-0.7,0.4l-1.1-0.2l-1.3-0.9l-1.3-1.4l-1.1-1.7l-0.7-1.7
	C131.7,255.5,131.5,253.9,131.5,253.9z M122.5,261l0.3-1.1l0.7-0.4l1.1,0.2l1.3,0.9l1.3,1.4l1.1,1.7l0.7,1.7l0.3,1.5L129,268
	l-0.7,0.4l-1.1-0.2l-1.3-0.9l-1.3-1.4l-1.1-1.7l-0.7-1.7L122.5,261z M129,307.6l0.3-1.2l0.8-0.5l1.2,0.3l1.4,1l1.4,1.5l1.2,1.9
	l0.8,1.9l0.3,1.7l-0.3,1.2l-0.8,0.5l-1.2-0.3l-1.4-1l-1.4-1.5l-1.2-1.9l-0.8-1.9C129.3,309.2,129,307.6,129,307.6z M129.1,238.8
	l-2.1-6.2 M123.3,221.1l-0.5-1.6 M131.1,239.6l-2-0.9 M124.8,220.4l6.3,19.2 M122.7,219.5l2,0.9 M143,198.1v4.5 M128.1,184.8
	l14.9,13.3 M128.1,189.3v-4.5 M143,202.6l-2.1-1.9 M137.7,197.9l-9.6-8.6 M163.9,238.8v-4.5 M175,248.7l-11.1-9.9 M163.9,234.3
	l11.9,10.6 M166.5,203.3l0.3-1.4l0.8-0.7l1.3,0.1l1.6,0.8l1.7,1.5l1.6,2l1.3,2.2l0.8,1.9 M175.7,213.4L175,214l-1.3-0.1l-1.6-0.8
	l-1.7-1.5l-1.6-2l-1.3-2.2l-0.8-2.2l-0.3-1.9 M147.2,261.5l0.3-1.4l0.8-0.7l1.3,0.1l1.6,0.8l1.7,1.5l1.6,2l1.3,2.2l0.8,2.2l0.3,1.9
	l-0.3,1.4l-0.8,0.7l-1.3-0.1l-1.6-0.8l-1.7-1.5l-1.6-2l-1.3-2.2l-0.8-2.2L147.2,261.5L147.2,261.5z M137.2,216.3l-13.5-5.7
	 M136.1,218.3l2,0.9 M138.1,219.1l-0.9-2.9 M174.9,211.8h0.2l0.6-0.2 M170,201.8L170,201.8l-0.9,0.5l-0.1,0.2 M185.8,166.7v0.7
	 M136.2,177.3h0.2l0.8-0.5l0.1-0.1 M131.2,167.2L131.2,167.2l-0.9,0.5l-0.1,0.2 M163.9,238.8l2.6-1.7 M175,244.7l-8.5-7.6
	 M166.5,237.1v-0.5 M128.1,189.3l2.6-1.7 M137.8,194l-7.1-6.3 M130.7,187.6v-0.5 M175,277.2h0.2l0.5-0.2 M170,267.2L170,267.2
	l-0.9,0.5l-0.1,0.2 M155.6,270h0.2l0.8-0.5l0.1-0.1 M150.6,260L150.6,260l-0.9,0.5l-0.1,0.2 M125.8,147l-1,0.8l-1,0.9l-0.9,1
	l-0.8,1.1l-0.7,1.1l-0.5,1.1l-0.3,1l-0.1,0.9 M171.6,154.1l-2.6,1.7 M171.6,154.1l14.2,12.6 M185.8,166.7l-2.6,1.7 M200.9,184.2
	l-2.6-2.3 M187.5,172.3l-4.3-3.8 M125.8,147l16.7-10.8 M147.4,136.5l-0.5-0.4l-0.6-0.3l-0.6-0.2l-0.7-0.1h-0.7l-0.7,0.1l-0.6,0.2
	l-0.6,0.3 M169,155.8l-21.6-19.3 M150.2,403.6l-0.3,1.8l-0.8,1.2l-1.2,0.5h-0.2 M131.2,227l0.1-0.4l0.8-1.6l1.2-1l1.7-0.3l2,0.4
	l2.2,1.1l2.4,1.7l2.4,2.3l2.3,2.7l2.1,3l1.8,3.2l1.5,3.2l1,3.1l0.5,2.8v2.4l-0.5,1.9l-1,1.3l-1.5,0.6l-1.8-0.1h-0.1 M120.6,154.9
	l0.3,243.5 M155,341.2v7.5 M126.2,315.5l28.8,25.7 M126.2,323v-7.5 M155,348.7l-5.8-5.2 M132.5,328.6l-6.3-5.6 M166.6,268.8l0.3-1.4
	l0.8-0.7l1.3,0.1l1.6,0.8l1.7,1.5l1.6,2l1.3,2.2l0.8,1.9 M175.8,278.8l-0.8,0.6l-1.3-0.1l-1.6-0.8l-1.7-1.5l-1.6-2l-1.3-2.2
	l-0.8-2.2l-0.3-1.9 M127.7,168.8l0.3-1.4l0.8-0.7l1.3,0.1l1.6,0.8l1.7,1.5l1.6,2l1.3,2.2l0.8,2.2l0.3,1.9l-0.3,1.4l-0.8,0.7
	l-1.3-0.1l-1.6-0.8l-1.7-1.5l-1.6-2l-1.3-2.2l-0.8-2.2L127.7,168.8L127.7,168.8z M131.5,254l0.3-1.1l0.7-0.4l1.1,0.2l1.3,0.9
	l1.3,1.4l1.1,1.7l0.7,1.7l0.3,1.5L138,261l-0.7,0.4l-1.1-0.2l-1.3-0.9l-1.3-1.4l-1.1-1.7l-0.7-1.7C131.7,255.5,131.5,254,131.5,254z
	 M122.5,261l0.3-1.1l0.7-0.4l1.1,0.2l1.3,0.9l1.3,1.4l1.1,1.7l0.7,1.7l0.3,1.5L129,268l-0.7,0.4l-1.1-0.2l-1.3-0.9l-1.3-1.4
	l-1.1-1.7l-0.7-1.7C122.8,262.5,122.5,261,122.5,261z M127.5,309.3l0.3-1.2l0.8-0.5l1.2,0.3l1.4,1l1.4,1.5l1.2,1.9l0.8,1.9l0.3,1.7
	l-0.3,1.2l-0.8,0.5l-1.2-0.3l-1.4-1l-1.4-1.5l-1.2-1.9l-0.8-1.9L127.5,309.3L127.5,309.3z M138.1,282.4v15 M135.9,280.4l2.2,2
	 M135.9,280.9v-0.5 M142.9,198.1v4.5 M128,184.8l14.9,13.3 M128,189.3v-4.5 M143,202.6l-2.1-1.9 M137.6,197.9l-9.6-8.6 M163.9,238.9
	v-4.5 M174.9,248.7l-11.1-9.9 M163.8,234.3l11.9,10.6 M166.5,203.4l0.3-1.4l0.8-0.7l1.3,0.1l1.6,0.8l1.7,1.5l1.6,2l1.3,2.2l0.8,1.9
	 M175.7,213.4l-0.8,0.6l-1.3-0.1l-1.6-0.8l-1.7-1.5l-1.6-2l-1.3-2.2l-0.8-2.2l-0.3-1.9 M147.2,261.5l0.3-1.4l0.8-0.7l1.3,0.1
	l1.6,0.8l1.7,1.5l1.6,2l1.3,2.2l0.8,2.2l0.3,1.9l-0.3,1.4l-0.8,0.7l-1.3-0.1l-1.6-0.8l-1.7-1.5l-1.6-2l-1.3-2.2l-0.8-2.2
	L147.2,261.5L147.2,261.5z M137.2,216.3l-13.5-5.7 M136.1,218.3l2,0.9 M138.1,219.2l-0.9-2.9 M174.9,211.9h0.2l0.6-0.2 M169.9,201.8
	L169.9,201.8l-0.9,0.5l-0.1,0.2 M185.8,166.8v0.7 M136.1,177.3h0.2l0.8-0.5l0.1-0.1 M131.1,167.2L131.1,167.2l-0.9,0.5l-0.1,0.2
	 M163.8,238.9l2.6-1.7 M175,244.7l-8.5-7.6 M166.5,237.2v-0.5 M128,189.4l2.6-1.7 M137.8,194l-7.1-6.3 M130.7,187.7v-0.5 M175,277.2
	h0.2l0.5-0.2 M170,267.2L170,267.2l-0.9,0.5L169,268 M155.6,270h0.2l0.8-0.5l0.1-0.1 M150.6,260L150.6,260l-0.9,0.5l-0.1,0.2
	 M126.4,323l-0.1,0.1 M155,344.7l-22.4-20.1 M134.5,312.6l-0.1-0.8l-0.4-1l-0.6-0.9l-0.7-0.8l-0.7-0.5l-0.6-0.1l-0.4,0.2l-0.1,0.6
	l0.1,0.8l0.4,1l0.6,0.9l0.7,0.8l0.7,0.5l0.6,0.1l0.4-0.2L134.5,312.6z M135.2,313.2L135,312l-0.6-1.4l-0.8-1.3l-1-1.1l-1-0.7
	l-0.8-0.2l-0.6,0.3l-0.2,0.8l0.2,1.2l0.6,1.4l0.8,1.3l1,1.1l1,0.7l0.8,0.2l0.6-0.3L135.2,313.2L135.2,313.2z M167.8,269.8l0.3-1.1
	l0.8-0.5l1.2,0.3l1.4,0.9l1.4,1.5l1.2,1.8l0.8,1.9l0.3,1.6l-0.3,1.1l-0.8,0.5l-1.2-0.3l-1.4-0.9l-1.4-1.5l-1.2-1.8l-0.8-1.9
	L167.8,269.8L167.8,269.8z M168.8,270.8l0.2-0.8l0.5-0.3l0.8,0.2l1,0.7l1,1.1l0.8,1.3l0.5,1.3l0.2,1.1l-0.2,0.8l-0.5,0.3l-0.8-0.2
	l-1-0.7l-1-1.1l-0.8-1.3l-0.6-1.3L168.8,270.8L168.8,270.8z M190.8,337.5h0.4l0.5-0.1l0.5-0.2l0.4-0.2 M193.2,338.1l-0.6,0.3
	l-0.7,0.2l-0.7,0.1h-0.7l-0.7-0.1l-0.3-0.1 M189.6,390l0.3,0.1l0.7,0.1h0.7l0.7-0.1l0.7-0.2l0.6-0.3 M208.4,326.8l0.4-0.3l0.3-0.3
	l0.2-0.4l0.1-0.3 M192.6,337l15.8-10.2 M209,327.9l-15.8,10.2 M208.4,361.6l-0.3,2l-0.9,2.3l-1.5,2.3l-1.9,2.1l-2.1,1.8l-2.1,1.2
	l-2,0.6l-1.7-0.1l-1.2-0.7l-0.6-1.3V370l0.6-2.2l1.2-2.3l1.7-2.2l2-2l2.1-1.5l2.1-0.9l1.9-0.3l1.5,0.4l0.9,1.1L208.4,361.6
	L208.4,361.6z M193.3,389.5l15.8-10.2 M208.3,346.6l-0.3,2l-0.9,2.3l-1.5,2.3l-1.9,2.1l-2.1,1.8l-2.1,1.2l-2,0.6l-1.7-0.1l-1.2-0.7
	l-0.6-1.3V355l0.6-2.2l1.2-2.3l1.7-2.2l2-2l2.1-1.5l2.1-0.9l1.9-0.3l1.5,0.4l0.9,1.1L208.3,346.6L208.3,346.6z M210.2,325l0.1,0.5
	v0.5l-0.1,0.5l-0.3,0.5l-0.4,0.5l-0.5,0.4 M209.1,379.3l0.5-0.4l0.4-0.5l0.3-0.5l0.1-0.5v-0.2 M126.8,323.6l5.2,4.7 M126.2,322.5
	v0.1v0.1l0.1,0.2l0.1,0.2l0.1,0.2l0.1,0.1l0.1,0.1l0.1,0.1 M126.2,322.5v-6.2 M126.2,316.3v-0.1v-0.1l0.1-0.1h0.1h0.1h0.1l0.1,0.1
	l0.1,0.1 M132,320.9l-5.2-4.7 M132.6,322v-0.1v-0.1l-0.1-0.2l-0.1-0.2l-0.1-0.2l-0.1-0.1l-0.1-0.1l-0.1-0.1 M132.6,328.2V322
	 M132,328.2l0.1,0.1l0.1,0.1h0.1h0.1h0.1l0.1-0.1v-0.1v-0.1 M195.1,358.2l1.3,0.5l1.7-0.1l2-0.8l2.1-1.4l2-1.8l1.7-2.1l1.3-2.2
	l0.7-2.1l0.1-1.9l-0.5-1.4l-1.1-0.8l-1.6-0.2l-1.9,0.5l-2.1,1.1l-2.1,1.6l-1.9,2l-1.5,2.2l-1,2.2l-0.4,2l0.2,1.7L195.1,358.2
	L195.1,358.2z M195.9,357.3l1.3,0.5l1.7-0.2l2-0.9l2-1.5l1.8-1.9l1.4-2.1l0.9-2.1l0.2-1.9l-0.4-1.4l-1-0.8l-1.5-0.1l-1.9,0.6l-2,1.2
	l-1.9,1.7l-1.6,2.1l-1.2,2.2l-0.6,2l0.1,1.7L195.9,357.3L195.9,357.3z M195,355.1l0.9-0.2l2-0.9l2-1.5l1.8-1.9l1.4-2.1l0.9-2.1
	l0.2-1.6 M205,358.7l-1.9,0.5l-2.1,1.1l-2.1,1.6l-1.9,2l-1.5,2.2l-1,2.2l-0.4,2l0.2,1.7l0.8,1.1l1.3,0.5l1.7-0.1l2-0.8l2.1-1.4
	l2-1.8l1.7-2.1l1.3-2.2l0.7-2.2l0.1-1.9l-0.5-1.4l-1.1-0.8L205,358.7L205,358.7z M204.6,359.7l-1.8,0.5l-2,1.1l-2,1.7l-1.7,2
	l-1.3,2.2l-0.7,2.1v1.7l0.6,1.2l1.2,0.6l1.7-0.1l2-0.8l2-1.4l1.9-1.9l1.5-2.1l1-2.1l0.3-1.9L207,361l-1-0.9L204.6,359.7L204.6,359.7
	z M195,370.1l0.7-0.1l2-0.8l2-1.4l1.9-1.9l1.5-2.1l1-2.1l0.3-1.9 M202.3,233.9l-0.3-1.7l0.6-1.7l1.3-1.4l1.9-0.9l2.2-0.2l2.2,0.4
	l1.8,1l1.1,1.5l0.3,1.7l-0.6,1.6l-1.3,1.4l-1.9,0.9l-2.2,0.2l-2.2-0.4l-1.8-1L202.3,233.9L202.3,233.9z M206.6,232.7l-0.1-0.4
	l0.1-0.3l0.3-0.3l0.4-0.2l0.5-0.1l0.5,0.1l0.4,0.2l0.2,0.3l0.1,0.4l-0.1,0.3l-0.3,0.3l-0.4,0.2l-0.5,0.1l-0.4-0.1l-0.4-0.2
	L206.6,232.7L206.6,232.7z M219.1,246.1l-0.3,0.3l-2.1,1.9l-2.6,1.5l-3,0.9l-3.2,0.3l-3.2-0.3l-3.1-0.9l-2.7-1.4l-2.1-1.9l-0.4-0.5
	 M220.7,233.3v1.3l-0.6,2.4l-1.4,2.3l-2.1,1.9l-2.6,1.5l-3,0.9l-3.2,0.3l-3.3-0.3l-1.8-0.5 M197,236.9l2.5,1.7l2.9,1.1l3.2,0.5
	l3.3-0.1l3.1-0.8l2.8-1.4l2.2-1.9l1.5-2.2l0.7-2.5l-0.2-2.5l-1-2.4l-1.8-2.1 M217.4,224.7l1.9,2.1l1.1,2.4l0.3,2.6l-0.5,2.5
	l-1.3,2.4l-2,2.1l-2.6,1.7l-3,1.1l-3.3,0.6l-3.4-0.1l-3.3-0.7l-3-1.2l-2.5-1.7 M220.7,233v0.2l-0.5,2.5l-1.3,2.4l-2,2.1l-2.6,1.7
	l-3,1.1l-3.3,0.6l-3.4-0.1l-3.3-0.7l-3-1.2l-2.5-1.7 M202.3,235.2l-1.3-1.6l-0.4-1.9l0.4-1.9l1.2-1.6l1.9-1.2l2.3-0.7h2.5l2.3,0.6
	l1.9,1.2l1.3,1.6l0.4,1.8l-0.4,1.9l-1.2,1.6l-1.9,1.2L209,237h-2.5l-2.3-0.6L202.3,235.2z M216.3,224.5l-6.6-5.9 M190.4,231.1
	l6.6,5.9 M203.3,235.4l1.8,1.1l2.2,0.5l2.2-0.2l2-0.8l1.4-1.3l0.6-1.6v-0.4 M201.9,232.6l0.3,1.3l1.1,1.5 M196,238.5l-6.5-5.8
	 M196,247.4l-6.5-5.8 M189.4,242.9l6.5,5.8 M189.4,234l6.5,5.8 M196,248.7l2.5,1.7l3,1.2l3.3,0.7h3.4l3.3-0.6l3-1.1l2.6-1.7l2-2.1
	l1.3-2.4l0.2-0.8 M196,247.4l2.5,1.7l3,1.2l3.3,0.7l2.2,0.1 M189.4,238.8l3.1-2 M210.2,218.3l7.1,6.4 M150.4,261.2l1.4,0.9l1.4,1.4
	l1.2,1.8l0.8,1.9l0.3,1.7l-0.2,1.2l-0.7,0.6l-1.1-0.1l-1.4-0.9l-1.4-1.4l-1.2-1.8l-0.8-1.9l-0.3-1.7l0.2-1.2l0.7-0.6L150.4,261.2
	L150.4,261.2z M150.8,262.5l1,0.6l1,1l0.9,1.3l0.6,1.3l0.2,1.2l-0.1,0.9l-0.5,0.4l-0.8-0.1l-1-0.6l-1-1l-0.9-1.3l-0.6-1.3l-0.2-1.2
	l0.1-0.9l0.5-0.4L150.8,262.5z M196.9,250.2h1 M195.6,248.4l0.4,1.1l1,0.7 M195.1,248l0.4,1.1l0.3,0.3 M204.3,211.1l-0.3-0.2
	l-1.3-0.2l0,0 M195,219.2v0.3l0.5,1.2l0.1,0.1 M197.1,221.7l1.5-0.1l1.8-0.8l1.8-1.4l1.5-1.8l1.1-1.9l0.5-1.8l-0.1-1.4l-0.8-0.9
	l-1.3-0.2l-1.7,0.5l-1.8,1.1l-1.7,1.6l-1.4,1.9l-0.8,1.9l-0.2,1.7l0.5,1.2L197.1,221.7L197.1,221.7z M200.4,215.6l1.2-1.9
	 M200.4,215.6l-1.3-0.2 M199.2,215.4l-1,1.5 M199.5,217.1l-1.3-0.2 M198.3,218.9l1.2-1.9 M199.3,219.1l-1-0.2 M199.3,219.1l1.2-1.9
	 M201.8,217.4l-1.3-0.2 M202.8,215.9l-1,1.5 M202.8,215.9l-1.3-0.2 M201.5,215.7l1.2-1.9 M202.7,213.9l-1-0.2 M199.5,217.1l-0.9-0.8
	 M198.9,218l0.4,1.1 M201.5,215.7l-0.7-0.6 M199,215.6l2.8,1.9 M200.5,217.2l-1.6-1.4 M195.1,322.8l0.3,1.2l0.4,0.4 M204.4,314.8
	L204.4,314.8l-1.2-0.5h-0.5 M197.1,319.4l-1,1.9l-0.4,1.8l0.3,1.4l0.9,0.8l1.4,0.1l1.7-0.6l1.8-1.2l1.6-1.7l1.3-1.9l0.7-1.9l0.1-1.6
	l-0.6-1.1l-1.2-0.4l-1.6,0.3l-1.8,1l-1.8,1.5L197.1,319.4L197.1,319.4z M201.6,319.5l1.3,0.2 M201.6,319.5l1.2-1.9 M202.8,317.6
	l-1-0.2 M200.6,319.3l1.2-1.9 M199.3,319l1.3,0.2 M198.3,320.5l1-1.5 M198.3,320.5l1.3,0.2 M198.4,322.6l1.2-1.9 M199.4,322.8
	l-1-0.2 M199.4,322.8l1.2-1.9 M200.6,321l1.3,0.2 M201.9,321.2l1-1.5 M199.6,320.8l-0.9-0.8 M202.8,317.6l-1-0.2 M198.9,321.7
	l0.4,1.1 M201.6,319.5l-0.7-0.6 M200.6,321l-1.6-1.4 M201.8,321.2l-2.7-1.9 M195.2,398l0.3,1.3l0.3,0.4 M204.4,390L204.4,390
	l-1.3-0.5h-0.4 M197,394.7l-1,1.9l-0.3,1.7l0.3,1.3l0.9,0.7h1.4l1.7-0.7l1.8-1.3l1.6-1.7l1.2-1.9l0.7-1.9v-1.6l-0.6-1l-1.2-0.4
	l-1.6,0.3l-1.8,1l-1.7,1.5L197,394.7L197,394.7z M201.6,394.6l1.3,0.2 M201.6,394.6l1.2-1.9 M202.8,392.7l-1-0.2 M200.6,394.4
	l1.2-1.9 M199.3,394.2l1.3,0.2 M198.4,395.7l1-1.5 M198.4,395.7l1.3,0.2 M198.5,397.8l1.2-1.9 M199.5,398l-1-0.1 M199.5,398l1.2-1.9
	 M200.7,396.1l1.3,0.2 M202,396.3l1-1.5 M199.7,395.9l-0.9-0.8 M199.1,396.9l0.4,1.1 M201.6,394.6l-0.7-0.6 M202,396.3l-2.8-1.9
	 M200.7,396.1l-1.6-1.4 M171.1,211.1l-1.4-1.5l-1.1-1.8l-0.7-1.9l-0.2-1.6l0.3-1.1l0.8-0.4l1.2,0.3l1.4,1l1.4,1.5l1.1,1.8l0.7,1.9
	l0.2,1.6l-0.3,1.1l-0.8,0.4l-1.2-0.3L171.1,211.1L171.1,211.1z M171.2,210.1l-1-1.1l-0.8-1.3l-0.5-1.3l-0.2-1.1l0.2-0.8l0.6-0.3
	l0.8,0.2l1,0.7l1,1.1l0.8,1.3l0.5,1.3l0.2,1.1l-0.2,0.8L173,211l-0.8-0.2L171.2,210.1L171.2,210.1z M130.1,173.6l-0.8-1.9L129,170
	l0.2-1.2l0.7-0.6l1.1,0.2l1.4,0.9l1.4,1.4l1.2,1.8l0.8,1.9l0.3,1.7l-0.2,1.2l-0.7,0.6l-1.1-0.2l-1.4-0.9l-1.4-1.4L130.1,173.6
	L130.1,173.6z M130.8,173.4l-0.6-1.3l-0.2-1.2l0.1-0.9l0.5-0.4l0.8,0.1l1,0.6l1,1l0.8,1.3l0.6,1.3l0.2,1.2l-0.1,0.9l-0.5,0.4
	l-0.8-0.1l-1-0.6l-1-1C131.6,174.7,130.8,173.4,130.8,173.4z"/>
<g>
	<g>
		<defs>
			<rect id="SVGID_1_" x="29.8" y="14.4" width="440.4" height="571.2"/>
		</defs>
		<clipPath id="SVGID_2_">
			<use xlink:href="#SVGID_1_"  style="overflow:visible;"/>
		</clipPath>
		<path class="st1" d="M314.1,98l2.1,11.9c-2-2.9-3.9,0-3.9,0L314.1,98L314.1,98"/>
	</g>
</g>
<g>
	<g>
		<defs>
			<rect id="SVGID_3_" x="29.8" y="14.4" width="440.4" height="571.2"/>
		</defs>
		<clipPath id="SVGID_4_">
			<use xlink:href="#SVGID_3_"  style="overflow:visible;"/>
		</clipPath>
		<path class="st2" d="M314.1,411.7l2.1-11.9c-2,2.9-3.9,0-3.9,0L314.1,411.7L314.1,411.7"/>
	</g>
</g>
<path class="st0" d="M283.6,410.6V131 M292.5,405.7l-94.7,61.7 M294.1,124.5l-94.7,61.7"/>
<g>
	<g>
		<defs>
			<rect id="SVGID_5_" x="29.8" y="14.4" width="440.4" height="571.2"/>
		</defs>
		<clipPath id="SVGID_6_">
			<use xlink:href="#SVGID_5_"  style="overflow:visible;"/>
		</clipPath>
		<path class="st3" d="M283.6,130.9l2.1,11.9c-2-2.9-3.9,0-3.9,0L283.6,130.9L283.6,130.9"/>
	</g>
</g>
<g>
	<g>
		<defs>
			<rect id="SVGID_7_" x="29.8" y="14.4" width="440.4" height="571.2"/>
		</defs>
		<clipPath id="SVGID_8_">
			<use xlink:href="#SVGID_7_"  style="overflow:visible;"/>
		</clipPath>
		<path class="st4" d="M283.6,410.6l2.1-11.9c-2,2.9-3.9,0-3.9,0L283.6,410.6L283.6,410.6"/>
	</g>
</g>
<path class="st0" d="M261,292.1l-51.5,33.3"/>
<path class="st0" d="M254.5,349.7v-55.2 M261,345.7l-51.3,33.2"/>
<g>
	<g>
		<defs>
			<rect id="SVGID_9_" x="29.8" y="14.4" width="440.4" height="571.2"/>
		</defs>
		<clipPath id="SVGID_10_">
			<use xlink:href="#SVGID_9_"  style="overflow:visible;"/>
		</clipPath>
		<path class="st5" d="M254.4,296.9l2.1,11.9c-1.9-2.9-3.9,0-3.9,0L254.4,296.9L254.4,296.9"/>
	</g>
</g>
<g>
	<g>
		<defs>
			<rect id="SVGID_11_" x="29.8" y="14.4" width="440.4" height="571.2"/>
		</defs>
		<clipPath id="SVGID_12_">
			<use xlink:href="#SVGID_11_"  style="overflow:visible;"/>
		</clipPath>
		<path class="st6" d="M254.6,151.4l2.1,11.9c-2-2.9-3.9,0-3.9,0L254.6,151.4L254.6,151.4"/>
	</g>
</g>
<g>
	<g>
		<defs>
			<rect id="SVGID_13_" x="29.8" y="14.4" width="440.4" height="571.2"/>
		</defs>
		<clipPath id="SVGID_14_">
			<use xlink:href="#SVGID_13_"  style="overflow:visible;"/>
		</clipPath>
		<path class="st7" d="M254.4,348.6l2.1-11.9c-2,2.9-3.9,0-3.9,0L254.4,348.6L254.4,348.6"/>
	</g>
</g>
<g>
	<g>
		<defs>
			<rect id="SVGID_15_" x="29.8" y="14.4" width="440.4" height="571.2"/>
		</defs>
		<clipPath id="SVGID_16_">
			<use xlink:href="#SVGID_15_"  style="overflow:visible;"/>
		</clipPath>
		<path class="st8" d="M254.6,296.1l2.1-11.9c-2,2.9-3.9,0-3.9,0L254.6,296.1L254.6,296.1"/>
	</g>
</g>
<g>
	<g>
		<defs>
			<rect id="SVGID_17_" x="29.8" y="14.4" width="440.4" height="571.2"/>
		</defs>
		<clipPath id="SVGID_18_">
			<use xlink:href="#SVGID_17_"  style="overflow:visible;"/>
		</clipPath>
		<path class="st9" d="M178.8,77.2l-59.7-53.4 M222,49.6L179.6,78 M118.9,160.9V14.7 M222,154.4V39"/>
	</g>
</g>
<g>
	<g>
		<defs>
			<rect id="SVGID_19_" x="29.8" y="14.4" width="440.4" height="571.2"/>
		</defs>
		<clipPath id="SVGID_20_">
			<use xlink:href="#SVGID_19_"  style="overflow:visible;"/>
		</clipPath>
		<path class="st10" d="M222,49.6l-10.9,5.1c3.5-0.1,2.2,3.2,2.2,3.2L222,49.6L222,49.6"/>
	</g>
</g>
<g>
	<g>
		<defs>
			<rect id="SVGID_21_" x="29.8" y="14.4" width="440.4" height="571.2"/>
		</defs>
		<clipPath id="SVGID_22_">
			<use xlink:href="#SVGID_21_"  style="overflow:visible;"/>
		</clipPath>
		<path class="st11" d="M179.6,78l10.9-5.1c-3.5,0.1-2.2-3.2-2.2-3.2L179.6,78L179.6,78"/>
	</g>
</g>
<g>
	<g>
		<defs>
			<rect id="SVGID_23_" x="29.8" y="14.4" width="440.4" height="571.2"/>
		</defs>
		<clipPath id="SVGID_24_">
			<use xlink:href="#SVGID_23_"  style="overflow:visible;"/>
		</clipPath>
		<path class="st12" d="M178.8,77.2l-7.2-9.6c0.8,3.4-2.7,2.9-2.7,2.9L178.8,77.2L178.8,77.2"/>
	</g>
</g>
<g>
	<g>
		<defs>
			<rect id="SVGID_25_" x="29.8" y="14.4" width="440.4" height="571.2"/>
		</defs>
		<clipPath id="SVGID_26_">
			<use xlink:href="#SVGID_25_"  style="overflow:visible;"/>
		</clipPath>
		<path class="st13" d="M119.1,23.8l7.2,9.6c-0.8-3.4,2.7-2.9,2.7-2.9L119.1,23.8L119.1,23.8"/>
	</g>
</g>
<path class="st0" d="M175.2,492.8L141.3,460 M141.5,474.4V219.2"/>
<g>
	<g>
		<defs>
			<rect id="SVGID_27_" x="29.8" y="14.4" width="440.4" height="571.2"/>
		</defs>
		<clipPath id="SVGID_28_">
			<use xlink:href="#SVGID_27_"  style="overflow:visible;"/>
		</clipPath>
		<path class="st14" d="M175.1,492l-7.2-9.6c0.8,3.4-2.7,2.9-2.7,2.9L175.1,492L175.1,492"/>
	</g>
</g>
<g>
	<g>
		<defs>
			<rect id="SVGID_29_" x="29.8" y="14.4" width="440.4" height="571.2"/>
		</defs>
		<clipPath id="SVGID_30_">
			<use xlink:href="#SVGID_29_"  style="overflow:visible;"/>
		</clipPath>
		<path class="st15" d="M142.7,461.8l7.2,9.6c-0.8-3.4,2.7-2.9,2.7-2.9L142.7,461.8L142.7,461.8"/>
	</g>
</g>
<path class="st0" d="M208.5,547.4l-48.6-44.6 M175.3,526.4v-94.2 M180.6,536V415.8"/>
<g>
	<g>
		<defs>
			<rect id="SVGID_31_" x="29.8" y="14.4" width="440.4" height="571.2"/>
		</defs>
		<clipPath id="SVGID_32_">
			<use xlink:href="#SVGID_31_"  style="overflow:visible;"/>
		</clipPath>
		<path class="st16" d="M175.1,516.6l-7.2-9.6c0.8,3.4-2.7,2.9-2.7,2.9L175.1,516.6L175.1,516.6"/>
	</g>
</g>
<g>
	<g>
		<defs>
			<rect id="SVGID_33_" x="29.8" y="14.4" width="440.4" height="571.2"/>
		</defs>
		<clipPath id="SVGID_34_">
			<use xlink:href="#SVGID_33_"  style="overflow:visible;"/>
		</clipPath>
		<path class="st17" d="M180.6,522.2l7.2,9.6c-0.8-3.4,2.7-2.9,2.7-2.9L180.6,522.2L180.6,522.2"/>
	</g>
</g>
<path class="st0" d="M48,339.6V90.9 M83.8,320.1V191.7 M160.5,255.6l-87.3-74.5 M158.2,383.4l-85-72.4 M120.7,153.9L41.5,86
	 M124.9,401.8l-86.6-70.4"/>
<g>
	<g>
		<defs>
			<rect id="SVGID_35_" x="29.8" y="14.4" width="440.4" height="571.2"/>
		</defs>
		<clipPath id="SVGID_36_">
			<use xlink:href="#SVGID_35_"  style="overflow:visible;"/>
		</clipPath>
		<path class="st18" d="M83.6,196.8l2.1,11.9c-2-2.9-3.9,0-3.9,0l1.7-11.9H83.6"/>
	</g>
</g>
<g>
	<g>
		<defs>
			<rect id="SVGID_37_" x="29.8" y="14.4" width="440.4" height="571.2"/>
		</defs>
		<clipPath id="SVGID_38_">
			<use xlink:href="#SVGID_37_"  style="overflow:visible;"/>
		</clipPath>
		<path class="st19" d="M47.8,92.8l2.1,11.9c-1.9-2.9-3.9,0-3.9,0l1.7-11.9H47.8"/>
	</g>
</g>
<g>
	<g>
		<defs>
			<rect id="SVGID_39_" x="29.8" y="14.4" width="440.4" height="571.2"/>
		</defs>
		<clipPath id="SVGID_40_">
			<use xlink:href="#SVGID_39_"  style="overflow:visible;"/>
		</clipPath>
		<path class="st20" d="M83.8,319.5l2.1-11.9c-2,2.9-3.9,0-3.9,0l1.7,11.9H83.8"/>
	</g>
</g>
<g>
	<g>
		<defs>
			<rect id="SVGID_41_" x="29.8" y="14.4" width="440.4" height="571.2"/>
		</defs>
		<clipPath id="SVGID_42_">
			<use xlink:href="#SVGID_41_"  style="overflow:visible;"/>
		</clipPath>
		<path class="st21" d="M48.1,339l2.1-11.9c-1.9,2.9-3.9,0-3.9,0L48.1,339L48.1,339"/>
	</g>
</g>
<path class="st0" d="M83.8,191.6V82.7"/>
<g>
	<g>
		<defs>
			<rect id="SVGID_43_" x="29.8" y="14.4" width="440.4" height="571.2"/>
		</defs>
		<clipPath id="SVGID_44_">
			<use xlink:href="#SVGID_43_"  style="overflow:visible;"/>
		</clipPath>
		<path class="st22" d="M83.8,121.9l2.2-11.8c-2,2.9-3.9,0-3.9,0L83.8,121.9L83.8,121.9"/>
	</g>
</g>
<path class="st0" d="M168.9,82.7L98.4,129 M145.5,132.9V87.3 M137.6,378l3.8,3.9 M147.6,389.6l2.2,2.7 M150.6,388.2l-12,7
	 M153.9,374l-15.8,10 M148.2,408.3l-2.1-1.2l-2.2-1.9l-2.1-2.5l-1.8-2.8l-1.4-2.9l-0.9-2.8l-0.3-2.4 M137.5,391.6l0.1-20.1
	 M137.6,371.5l-2-3.6l-1.6-3.6l-1.1-3.5l-0.5-3.2v-2.7l0.6-2.2l1.1-1.5l1.6-0.8 M154.8,383.4h-0.5 M150.1,385.2l-0.1,20.1
	 M150,405.3l-0.3,1.9l-0.9,1.2l-1.4,0.4l-1.8-0.5l-2.1-1.3l-2.2-1.9l-2.1-2.5l-1.8-2.8l-1.4-2.9l-0.9-2.8l-0.3-2.4 M134.8,391.7
	l0.1-20.1 M134.9,371.5l-2-3.6l-1.6-3.6l-1.1-3.5l-0.5-3.2v-2.7l0.6-2.2l1.1-1.5l1.6-0.8h2l2.3,0.7l2.6,1.5l2.7,2.1l2.7,2.7l2.6,3.1
	l2.3,3.5l2,3.6l1.6,3.6l1.1,3.5l0.6,3.2v2.7l-0.6,2.2l-1.1,1.5l-1.6,0.8h-2"/>
<g>
	<g>
		<defs>
			<rect id="SVGID_45_" x="29.8" y="14.4" width="440.4" height="571.2"/>
		</defs>
		<clipPath id="SVGID_46_">
			<use xlink:href="#SVGID_45_"  style="overflow:visible;"/>
		</clipPath>
		<path class="st23" d="M118.4,115.7l-10.9,5.1c3.5-0.1,2.2,3.2,2.2,3.2L118.4,115.7L118.4,115.7"/>
	</g>
</g>
<g>
	<g>
		<defs>
			<rect id="SVGID_47_" x="29.8" y="14.4" width="440.4" height="571.2"/>
		</defs>
		<clipPath id="SVGID_48_">
			<use xlink:href="#SVGID_47_"  style="overflow:visible;"/>
		</clipPath>
		<path class="st24" d="M145.8,98.3l10.9-5.1c-3.5,0.1-2.2-3.2-2.2-3.2L145.8,98.3L145.8,98.3"/>
	</g>
</g>
<path class="st0" d="M212.6,295.7L188.5,312 M212.6,323.3v-34.5 M188.5,392.1V302 M179.8,183.7V63.4"/>
<g>
	<g>
		<defs>
			<rect id="SVGID_49_" x="29.8" y="14.4" width="440.4" height="571.2"/>
		</defs>
		<clipPath id="SVGID_50_">
			<use xlink:href="#SVGID_49_"  style="overflow:visible;"/>
		</clipPath>
		<path class="st25" d="M212,296l-10.9,5.1c3.5-0.1,2.2,3.2,2.2,3.2L212,296L212,296"/>
	</g>
</g>
<g>
	<g>
		<defs>
			<rect id="SVGID_51_" x="29.8" y="14.4" width="440.4" height="571.2"/>
		</defs>
		<clipPath id="SVGID_52_">
			<use xlink:href="#SVGID_51_"  style="overflow:visible;"/>
		</clipPath>
		<path class="st26" d="M188.4,312l10.9-5.1c-3.5,0.1-2.2-3.2-2.2-3.2L188.4,312L188.4,312"/>
	</g>
</g>
<path class="st0" d="M386.8,455.6l-2.1-2.1l-1.6-4.3l3.7-4.8 M397.5,450.9l-0.7-0.4l-1,0.1l-1.2,0.6l-1.2,1l-1,1.2l-0.7,1.3
	l-0.2,1.2l0.2,0.9 M396.4,450l-0.7-0.4l-1,0.1l-1.2,0.6l-1.2,1l-1,1.2l-0.7,1.3l-0.2,1.2l0.2,0.9 M395.1,453.7l-1,1.2l-0.7,1.3
	l-0.2,1.2l0.2,0.9l0.7,0.4l1-0.1 M389.8,455.4l-2.6,0.3l-1.6-4.3l3.7-4.8 M394.8,449.3l-0.7-0.4l-1,0.1l-1.2,0.6l-1.2,1l-1,1.2
	l-0.7,1.3l-0.2,1.2l0.2,0.9l0.7,0.4 M394.1,458.6l-4.3-3.3 M398.5,452.1l-4.4-3.3 M387,388.3l-2.1-2.1l-1.6-4.3l3.7-4.8l5.4-0.4
	l2.4,1.7 M397.8,383.6l-0.7-0.4l-1,0.1l-1.2,0.6l-1.2,1l-1,1.2l-0.7,1.3l-0.2,1.2l0.2,0.9 M396.6,382.7l-0.7-0.4l-1,0.1l-1.2,0.6
	l-1.2,1l-1,1.2l-0.7,1.3l-0.2,1.2l0.2,0.9 M396.6,390.7l1.2-1l1-1.2l0.7-1.3l0.2-1.2l-0.2-0.9l-0.7-0.4l-1,0.1l-1.2,0.6l-1.2,1
	l-1,1.2l-0.7,1.3l-0.2,1.2l0.2,0.9l0.7,0.4l1-0.1L396.6,390.7z M390.1,388l-2.6,0.3l-1.6-4.3l3.7-4.8l5.4-0.4l1.6,4.3 M395.1,382
	l-0.7-0.4l-1,0.1l-1.2,0.6l-1.2,1l-1,1.2l-0.7,1.3l-0.2,1.2l0.2,0.9l0.7,0.4 M394.4,391.3l-4.3-3.3 M398.8,384.8l-4.4-3.3
	 M372,490.6l1.7-0.8l1.4-0.1l1,0.6l0.3,1.2l-0.3,1.7l-0.9,1.8l-1.4,1.7l-1.7,1.4l-1.7,0.8L369,499l-0.9-0.6l-0.3-1.2 M367.7,497.2
	l0.3-1.6l0.9-1.8l1.4-1.7l1.7-1.4 M376.1,490.3l-0.4,0.8l-1.5,2.4l-1.9,2.3l-2.2,1.9l-1.7,1.2 M388.7,455.5l0.1,41.9"/>
<path class="st0" d="M464,448.8V212.6 M468,209.7L383.5,262 M470,445.6l-80.8,52.1"/>
<g>
	<g>
		<defs>
			<rect id="SVGID_53_" x="29.8" y="14.4" width="440.4" height="571.2"/>
		</defs>
		<clipPath id="SVGID_54_">
			<use xlink:href="#SVGID_53_"  style="overflow:visible;"/>
		</clipPath>
		<path class="st27" d="M463.8,212.3l2.1,11.9c-2-2.9-3.9,0-3.9,0L463.8,212.3L463.8,212.3"/>
	</g>
</g>
<g>
	<g>
		<defs>
			<rect id="SVGID_55_" x="29.8" y="14.4" width="440.4" height="571.2"/>
		</defs>
		<clipPath id="SVGID_56_">
			<use xlink:href="#SVGID_55_"  style="overflow:visible;"/>
		</clipPath>
		<path class="st28" d="M463.8,449.6l2.1-11.9c-2,2.9-3.9,0-3.9,0L463.8,449.6L463.8,449.6"/>
	</g>
</g>
<path class="st0" d="M410.5,367.4L364.6,325 M411,399.7v-43.9 M365.1,355.2v-36.7"/>
<g>
	<g>
		<defs>
			<rect id="SVGID_57_" x="29.8" y="14.4" width="440.4" height="571.2"/>
		</defs>
		<clipPath id="SVGID_58_">
			<use xlink:href="#SVGID_57_"  style="overflow:visible;"/>
		</clipPath>
		<path class="st29" d="M410.6,367.4l-7.2-9.6c0.8,3.4-2.7,2.9-2.7,2.9L410.6,367.4L410.6,367.4"/>
	</g>
</g>
<g>
	<g>
		<defs>
			<rect id="SVGID_59_" x="29.8" y="14.4" width="440.4" height="571.2"/>
		</defs>
		<clipPath id="SVGID_60_">
			<use xlink:href="#SVGID_59_"  style="overflow:visible;"/>
		</clipPath>
		<path class="st30" d="M364.6,325l7.2,9.6c-0.8-3.4,2.7-2.9,2.7-2.9L364.6,325L364.6,325"/>
	</g>
</g>
<path class="st0" d="M435.9,451.7l-0.2-203.1 M372.5,493.5l71.2-46.4 M372.5,287.8l71-45.2"/>
<g>
	<g>
		<defs>
			<rect id="SVGID_61_" x="29.8" y="14.4" width="440.4" height="571.2"/>
		</defs>
		<clipPath id="SVGID_62_">
			<use xlink:href="#SVGID_61_"  style="overflow:visible;"/>
		</clipPath>
		<path class="st31" d="M435.9,451.7l2.1-11.9c-2,2.9-3.9,0-3.9,0L435.9,451.7L435.9,451.7"/>
	</g>
</g>
<g>
	<g>
		<defs>
			<rect id="SVGID_63_" x="29.8" y="14.4" width="440.4" height="571.2"/>
		</defs>
		<clipPath id="SVGID_64_">
			<use xlink:href="#SVGID_63_"  style="overflow:visible;"/>
		</clipPath>
		<path class="st32" d="M435.7,248.5l2.1,11.9c-2-2.9-3.9,0-3.9,0L435.7,248.5L435.7,248.5"/>
	</g>
</g>
<g>
	<g>
		<defs>
			<rect id="SVGID_65_" x="29.8" y="14.4" width="440.4" height="571.2"/>
		</defs>
		<clipPath id="SVGID_66_">
			<use xlink:href="#SVGID_65_"  style="overflow:visible;"/>
		</clipPath>
		<path class="st33" d="M380.5,585.4l-48.7-44.6 M347.3,564.4v-94.3 M352.5,574V453.8 M145.7,357.8l0.1,21 M127.7,390.7l-1.7,1.1
			 M132,401.1l1.7-1.1 M124.2,392.2l0.3-1.4l0.8-0.7l1.3,0.1l1.6,0.8l1.7,1.5l1.6,2l1.3,2.2l0.8,2.2l0.3,1.9l-0.3,1.4l-0.8,0.7
			l-1.3-0.1l-1.6-0.8l-1.7-1.5l-1.6-2l-1.3-2.2l-0.8-2.2L124.2,392.2L124.2,392.2z M132.7,400.6h0.2l0.8-0.5l0.1-0.1 M127.7,390.6
			L127.7,390.6l-0.9,0.5l-0.1,0.2 M124.2,392.2l0.3-1.4l0.8-0.7l1.3,0.1l1.6,0.8l1.7,1.5l1.6,2l1.3,2.2l0.8,2.2l0.3,1.9l-0.3,1.4
			l-0.8,0.7l-1.3-0.1l-1.6-0.8l-1.7-1.5l-1.6-2l-1.3-2.2l-0.8-2.2L124.2,392.2L124.2,392.2z M132.7,400.6h0.2l0.8-0.5l0.1-0.1
			 M127.7,390.6L127.7,390.6l-0.9,0.5l-0.1,0.2 M127.5,391.8l1.4,0.9l1.4,1.4l1.2,1.8l0.8,1.9l0.3,1.7l-0.2,1.2l-0.7,0.6l-1.1-0.2
			l-1.4-0.9l-1.4-1.4l-1.2-1.8l-0.8-1.9l-0.3-1.7l0.2-1.2l0.7-0.6L127.5,391.8L127.5,391.8z M127.9,393.1l1,0.6l1,1l0.8,1.3l0.6,1.3
			l0.2,1.2l-0.1,0.9l-0.5,0.4l-0.8-0.1l-1-0.6l-1-1l-0.8-1.3l-0.6-1.3l-0.2-1.2l0.1-0.9l0.5-0.4L127.9,393.1L127.9,393.1z"/>
	</g>
</g>
<g>
	<g>
		<defs>
			<rect id="SVGID_67_" x="29.8" y="14.4" width="440.4" height="571.2"/>
		</defs>
		<clipPath id="SVGID_68_">
			<use xlink:href="#SVGID_67_"  style="overflow:visible;"/>
		</clipPath>
		<path class="st34" d="M347.1,554.7l-7.2-9.6c0.8,3.4-2.7,2.9-2.7,2.9L347.1,554.7L347.1,554.7"/>
	</g>
</g>
<g>
	<g>
		<defs>
			<rect id="SVGID_69_" x="29.8" y="14.4" width="440.4" height="571.2"/>
		</defs>
		<clipPath id="SVGID_70_">
			<use xlink:href="#SVGID_69_"  style="overflow:visible;"/>
		</clipPath>
		<path class="st35" d="M352.6,560.2l7.2,9.6c-0.8-3.4,2.7-2.9,2.7-2.9L352.6,560.2L352.6,560.2"/>
	</g>
</g>
<g>
	<path class="st36" d="M193.1,57.8l1.2-7c0.1-0.5,0.3-1.8,0.3-2.4c0.1-1-0.1-1.6-0.4-2c-0.7-1.2-2.2-1.6-3.5-0.8
		c-0.8,0.5-1.2,1.2-1.2,2.1c0,0.5,0.1,0.9,0.4,1.5l-1.2,0.7c-0.6-1.1-0.7-2-0.5-2.8c0.1-0.8,0.6-1.9,1.9-2.7
		c1.9-1.2,4.2-0.7,5.4,1.2c0.4,0.7,0.6,1.5,0.5,2.9c-0.1,0.9-0.3,1.9-0.4,2.7l-0.7,4l4.6-2.8l0.7,1.1L193.1,57.8z"/>
	<path class="st36" d="M203.6,38.1l-3.5,2.1l0.7,2.8c0.2-0.2,0.4-0.3,0.7-0.5c2.2-1.3,4.6-0.5,5.9,1.6c1.5,2.5,0.5,5.1-1.6,6.4
		c-0.9,0.5-1.9,0.8-3,0.6c-0.5-0.1-1.1-0.3-1.6-0.5l0.6-1.3c0.4,0.3,0.8,0.4,1.3,0.4c0.7,0.1,1.4,0,2.2-0.4c1.5-0.9,1.9-2.9,1-4.4
		c-0.9-1.6-2.8-2-4.3-1.1c-0.4,0.2-1.1,0.7-1.7,2l-1.6-6.3l4.4-2.6L203.6,38.1z"/>
</g>
<g>
	<path class="st36" d="M239.7,336.3c-0.7,0-1.4-0.3-1.9-0.6c-1.3-0.8-1.5-2.2-1.5-3c0-2.4,1.7-3.6,3.5-3.6c0.9,0,2.2,0.3,2.8,1.7
		c0.2-0.4,0.9-1.8,3.1-1.8c2.4,0,3.9,1.7,3.9,3.9c0,1.3-0.6,2.9-2.2,3.6c-0.5,0.2-0.9,0.3-1.3,0.3v-1.4c0.5-0.1,0.9-0.2,1.3-0.5
		c0.6-0.4,1-1.2,1-2c0-1.4-1.2-2.5-2.6-2.5c-0.7,0-1.7,0.3-2.2,1.3c-0.2,0.4-0.3,1-0.3,1.5H242c0-0.5-0.1-1.1-0.3-1.5
		c-0.2-0.4-0.7-1.1-1.9-1.1c-1.1,0-2.2,0.6-2.2,2.2c0,0.5,0.1,1.2,0.7,1.7c0.3,0.3,0.8,0.5,1.3,0.5V336.3z"/>
	<path class="st36" d="M237.9,317.8v4.1l2.8,0.8c-0.1-0.3-0.1-0.5-0.1-0.8c0-2.6,1.9-4.2,4.4-4.2c2.9,0,4.6,2.1,4.6,4.7
		c0,1-0.3,2-1,2.9c-0.3,0.4-0.8,0.8-1.3,1.1l-0.8-1.1c0.4-0.2,0.7-0.5,1-0.9c0.4-0.5,0.8-1.2,0.8-2.1c0-1.8-1.5-3.1-3.3-3.1
		c-1.8,0-3.1,1.3-3.1,3.1c0,0.5,0.1,1.3,0.9,2.5l-6.2-1.9v-5.1H237.9z"/>
</g>
<g>
	<path class="st36" d="M267.8,284.7v2.1l-1.3-0.7v-2.8h12.8v1.4H267.8z"/>
	<path class="st36" d="M275.7,269.6c2,0,3.8,1.3,3.8,3.9c0,2.6-1.8,3.9-3.8,3.9c-1.4,0-2.6-0.6-3.1-1.9c-0.6,1-1.6,1.6-2.8,1.6
		c-1.8,0-3.6-1.2-3.6-3.5c0-2.3,1.7-3.5,3.6-3.5c1.2,0,2.2,0.5,2.8,1.6C273.2,270.2,274.3,269.6,275.7,269.6z M269.8,271.3
		c-1.4,0-2.3,1-2.3,2.2s0.9,2.2,2.3,2.2c1.3,0,2.2-0.9,2.2-2.2C272,272.3,271.1,271.3,269.8,271.3z M275.7,271c-1.4,0-2.4,1-2.4,2.5
		c0,1.5,1,2.5,2.4,2.5c1.5,0,2.5-1,2.5-2.5S277.2,271,275.7,271z"/>
	<path class="st36" d="M267.8,258.9v4.1l2.8,0.8c-0.1-0.2-0.1-0.5-0.1-0.8c0-2.6,1.9-4.2,4.4-4.2c2.9,0,4.6,2.1,4.6,4.7
		c0,1-0.3,2-1,2.9c-0.3,0.4-0.8,0.8-1.3,1.1l-0.8-1.1c0.4-0.2,0.7-0.5,1-0.9c0.4-0.5,0.8-1.2,0.8-2.1c0-1.8-1.5-3.1-3.3-3.1
		c-1.8,0-3.1,1.3-3.1,3.1c0,0.5,0.1,1.3,0.9,2.5l-6.2-1.9v-5.1H267.8z"/>
</g>
<g>
	<path class="st36" d="M154.8,41l1.2,1.1l-0.9,1l-1.2-1.1l-1.6,1.8l-1.1-1l1.6-1.8l-4.9-4.4l13.4-2.9L154.8,41z M153.7,40l3.8-4.2
		l-6.8,1.5L153.7,40z"/>
	<path class="st36" d="M168.7,43.1l-3.1-2.7l-2.5,1.5c0.2,0.1,0.4,0.3,0.6,0.5c1.9,1.7,1.8,4.3,0.2,6.1c-1.9,2.1-4.7,2-6.5,0.3
		c-0.8-0.7-1.3-1.5-1.5-2.7c-0.1-0.5-0.1-1.1,0-1.7l1.4,0.2c-0.1,0.5-0.1,0.9-0.1,1.3c0.1,0.7,0.4,1.4,1,2c1.3,1.2,3.3,1,4.5-0.3
		c1.2-1.4,1.1-3.2-0.2-4.4c-0.3-0.3-1-0.8-2.4-1l5.5-3.3l3.8,3.4L168.7,43.1z"/>
</g>
<g>
	<path class="st36" d="M74.9,255.5c2,0,3.8,1.3,3.8,3.9c0,2.6-1.8,3.9-3.8,3.9c-1.4,0-2.6-0.6-3.1-1.9c-0.6,1-1.6,1.6-2.8,1.6
		c-1.8,0-3.6-1.2-3.6-3.5c0-2.3,1.7-3.5,3.6-3.5c1.2,0,2.2,0.5,2.8,1.6C72.4,256.2,73.5,255.5,74.9,255.5z M69,257.3
		c-1.4,0-2.3,1-2.3,2.2s0.9,2.2,2.3,2.2c1.3,0,2.2-0.9,2.2-2.2C71.2,258.2,70.3,257.3,69,257.3z M74.9,257c-1.4,0-2.4,1-2.4,2.5
		c0,1.5,1,2.5,2.4,2.5c1.5,0,2.5-1,2.5-2.5S76.3,257,74.9,257z"/>
	<path class="st36" d="M67,244.8v4.1l2.8,0.8c-0.1-0.2-0.1-0.5-0.1-0.8c0-2.6,1.9-4.2,4.4-4.2c2.9,0,4.6,2.1,4.6,4.7
		c0,1-0.3,2-1,2.9c-0.3,0.4-0.8,0.8-1.3,1.1l-0.8-1.1c0.4-0.2,0.7-0.5,1-0.9c0.4-0.5,0.8-1.2,0.8-2.1c0-1.8-1.5-3.1-3.3-3.1
		c-1.8,0-3.1,1.3-3.1,3.1c0,0.5,0.1,1.3,0.9,2.5l-6.2-1.9v-5.1H67z"/>
</g>
<g>
	<path class="st36" d="M30.5,223.5v2.1l-1.3-0.7v-2.8H42v1.4H30.5z"/>
	<path class="st36" d="M29.6,210.2l4.1,2.9c-0.1-0.4-0.2-0.7-0.2-1.1c0-2.5,1.8-4.1,4.2-4.1c2.6,0,4.4,1.8,4.4,4.4
		c0,3-2.3,4.4-4.4,4.4c-0.5,0-1.6-0.1-2.9-1.1l-6-4.4L29.6,210.2z M37.8,209.2c-1.7,0-3,1.3-3,3c0,1.7,1.3,3,3,3
		c1.7,0,3.1-1.2,3.1-3C40.9,210.5,39.6,209.2,37.8,209.2z"/>
	<path class="st36" d="M30.5,198.5v7h-1.3v-9.4l13.1,8.6l-0.7,1.1L30.5,198.5z"/>
</g>
<g>
	<path class="st36" d="M124.6,92.4l-1.8,1.1l-0.1-1.5l2.4-1.5l6.6,11l-1.2,0.7L124.6,92.4z"/>
	<path class="st36" d="M135.6,84.8l-0.4,5c0.3-0.3,0.5-0.5,0.9-0.7c2.1-1.3,4.5-0.6,5.7,1.5c1.3,2.2,0.7,4.7-1.5,6
		c-2.6,1.6-5,0.3-6-1.5c-0.2-0.4-0.7-1.4-0.6-3.1l0.6-7.4L135.6,84.8z M140.6,91.4c-0.9-1.5-2.6-1.9-4.1-1c-1.5,0.9-1.9,2.6-1,4.1
		c0.9,1.5,2.6,2,4.1,1.1C141.2,94.6,141.5,92.8,140.6,91.4z"/>
</g>
<g>
	<path class="st36" d="M199.1,532l7.1-0.9c0.5-0.1,1.8-0.2,2.4-0.4c1-0.2,1.5-0.6,1.8-1c1-1.1,0.9-2.5-0.2-3.6
		c-0.7-0.6-1.5-0.8-2.3-0.6c-0.4,0.1-0.9,0.4-1.3,0.8l-1.1-0.9c0.9-0.9,1.7-1.2,2.5-1.3c0.8-0.1,1.9,0,3.1,1.1
		c1.7,1.5,1.9,3.8,0.4,5.5c-0.6,0.6-1.3,1.1-2.6,1.4c-0.9,0.2-1.9,0.3-2.7,0.4l-4,0.5l4,3.6l-0.9,1L199.1,532z"/>
</g>
<g>
	<path class="st36" d="M398.2,332.1c0.5-0.5,1.1-0.9,1.7-1.1c1.5-0.5,2.7,0.3,3.2,0.8c1.9,1.6,1.7,3.6,0.5,5
		c-0.6,0.7-1.7,1.5-3.1,1.1c0.2,0.4,0.8,1.9-0.6,3.6c-1.5,1.8-3.8,1.8-5.5,0.4c-1-0.9-1.8-2.3-1.3-4c0.1-0.5,0.4-0.8,0.6-1.2
		l1.1,0.9c-0.3,0.4-0.4,0.9-0.5,1.3c-0.1,0.7,0.3,1.5,0.9,2c1.1,0.9,2.7,0.7,3.6-0.4c0.5-0.6,0.9-1.5,0.4-2.5
		c-0.2-0.4-0.6-0.8-0.9-1.1l0.8-1c0.4,0.3,0.8,0.6,1.3,0.7c0.4,0.1,1.3,0.1,2-0.8c0.7-0.9,0.9-2.1-0.3-3.1c-0.4-0.3-0.9-0.7-1.7-0.5
		c-0.4,0.1-0.9,0.3-1.2,0.7L398.2,332.1z"/>
	<path class="st36" d="M406.6,339.1c0.5-0.5,1.1-0.9,1.7-1.1c1.5-0.5,2.7,0.3,3.2,0.8c1.9,1.6,1.7,3.6,0.5,5
		c-0.6,0.7-1.7,1.5-3.1,1.1c0.2,0.4,0.8,1.9-0.6,3.6c-1.5,1.8-3.8,1.8-5.5,0.4c-1-0.9-1.8-2.3-1.3-4c0.1-0.5,0.4-0.8,0.6-1.2
		l1.1,0.9c-0.3,0.4-0.4,0.9-0.5,1.3c-0.1,0.7,0.3,1.5,0.9,2c1.1,0.9,2.7,0.7,3.6-0.4c0.5-0.6,0.9-1.5,0.4-2.5
		c-0.2-0.4-0.6-0.8-0.9-1.1l0.8-1c0.4,0.4,0.8,0.6,1.3,0.7c0.4,0.1,1.3,0.1,2-0.8c0.7-0.9,0.9-2.1-0.3-3.1c-0.4-0.3-0.9-0.7-1.7-0.5
		c-0.4,0.1-0.9,0.3-1.2,0.7L406.6,339.1z"/>
</g>
<g>
	<path class="st36" d="M420.6,372.6v2.2l-1.3-0.7v-2.8h12.8v1.4H420.6z"/>
	<path class="st36" d="M430.4,364.6c-1.2,0.8-2.9,1.3-4.7,1.3c-1.8,0-3.5-0.4-4.7-1.3c-1.4-1-1.9-2.3-1.9-3.3c0-1,0.5-2.3,1.9-3.3
		c1.2-0.8,2.9-1.3,4.7-1.3c1.8,0,3.5,0.4,4.7,1.3c1.4,1,1.9,2.3,1.9,3.3C432.3,362.4,431.8,363.7,430.4,364.6z M421.8,363.6
		c1.1,0.7,2.6,0.9,3.9,0.9c1.3,0,2.8-0.2,3.9-0.9c1.1-0.7,1.4-1.6,1.4-2.2c0-0.7-0.3-1.5-1.4-2.2c-1.1-0.7-2.6-0.9-3.9-0.9
		c-1.3,0-2.8,0.3-3.9,0.9c-1.1,0.7-1.4,1.6-1.4,2.2C420.4,362,420.7,362.9,421.8,363.6z"/>
	<path class="st36" d="M430.4,353.7c-1.2,0.8-2.9,1.3-4.7,1.3c-1.8,0-3.5-0.4-4.7-1.3c-1.4-1-1.9-2.3-1.9-3.3c0-1,0.5-2.3,1.9-3.3
		c1.2-0.8,2.9-1.3,4.7-1.3c1.8,0,3.5,0.4,4.7,1.3c1.4,1,1.9,2.3,1.9,3.3C432.3,351.5,431.8,352.8,430.4,353.7z M421.8,352.7
		c1.1,0.7,2.6,0.9,3.9,0.9c1.3,0,2.8-0.2,3.9-0.9c1.1-0.7,1.4-1.6,1.4-2.2c0-0.7-0.3-1.5-1.4-2.2c-1.1-0.7-2.6-0.9-3.9-0.9
		c-1.3,0-2.8,0.3-3.9,0.9c-1.1,0.7-1.4,1.6-1.4,2.2C420.4,351.1,420.7,352,421.8,352.7z"/>
</g>
<g>
	<path class="st36" d="M369.2,568.6l7.1-0.6c0.5,0,1.8-0.2,2.4-0.3c1-0.2,1.5-0.5,1.9-0.9c1-1,1-2.5-0.1-3.6
		c-0.6-0.6-1.5-0.9-2.3-0.7c-0.4,0.1-0.9,0.3-1.4,0.8l-1-1c0.9-0.9,1.8-1.2,2.5-1.2c0.8-0.1,1.9,0.1,3.1,1.2
		c1.6,1.6,1.7,3.9,0.2,5.5c-0.6,0.6-1.3,1-2.6,1.3c-0.9,0.2-2,0.2-2.7,0.3l-4,0.3l3.9,3.8l-0.9,0.9L369.2,568.6z"/>
</g>
<g>
	<path class="st36" d="M237.5,245.4v2.1l-1.3-0.7v-2.8H249v1.4H237.5z"/>
	<path class="st36" d="M247.3,237.4c-1.2,0.8-2.9,1.3-4.7,1.3c-1.8,0-3.5-0.4-4.7-1.3c-1.4-1-1.9-2.3-1.9-3.3c0-1,0.5-2.3,1.9-3.3
		c1.2-0.8,2.9-1.3,4.7-1.3c1.8,0,3.5,0.4,4.7,1.3c1.4,1,1.9,2.3,1.9,3.3C249.2,235.1,248.7,236.4,247.3,237.4z M238.7,236.3
		c1.1,0.7,2.6,0.9,3.9,0.9c1.3,0,2.8-0.2,3.9-0.9c1.1-0.7,1.4-1.6,1.4-2.2c0-0.7-0.3-1.5-1.4-2.2c-1.1-0.7-2.6-0.9-3.9-0.9
		c-1.3,0-2.8,0.2-3.9,0.9c-1.1,0.7-1.4,1.6-1.4,2.2C237.3,234.8,237.6,235.7,238.7,236.3z"/>
	<path class="st36" d="M245.4,219.3c2,0,3.8,1.3,3.8,3.9c0,2.6-1.8,3.9-3.8,3.9c-1.4,0-2.6-0.6-3.1-1.9c-0.6,1-1.6,1.6-2.8,1.6
		c-1.8,0-3.6-1.2-3.6-3.5c0-2.3,1.7-3.5,3.6-3.5c1.2,0,2.2,0.5,2.8,1.6C242.9,219.9,244.1,219.3,245.4,219.3z M239.5,221
		c-1.4,0-2.3,1-2.3,2.2s0.9,2.2,2.3,2.2c1.3,0,2.2-0.9,2.2-2.2C241.7,222,240.8,221,239.5,221z M245.4,220.7c-1.4,0-2.4,1-2.4,2.5
		s1,2.5,2.4,2.5c1.5,0,2.5-1,2.5-2.5S246.9,220.7,245.4,220.7z"/>
</g>
<g>
	<path class="st36" d="M190.5,287.5l-1.8,1.1l-0.1-1.5l2.4-1.5l6.6,11l-1.2,0.7L190.5,287.5z"/>
	<path class="st36" d="M202.2,293.8l1.2-7c0.1-0.5,0.3-1.8,0.3-2.4c0.1-1-0.1-1.6-0.4-2c-0.7-1.2-2.2-1.6-3.5-0.8
		c-0.8,0.5-1.2,1.2-1.2,2.1c0,0.5,0.1,0.9,0.4,1.5l-1.2,0.7c-0.6-1.1-0.7-2-0.5-2.8c0.1-0.8,0.6-1.9,1.9-2.7
		c1.9-1.2,4.2-0.7,5.4,1.2c0.4,0.7,0.6,1.5,0.5,2.9c-0.1,0.9-0.3,1.9-0.4,2.7l-0.7,4l4.6-2.8l0.7,1.1L202.2,293.8z"/>
</g>
<g>
	<path class="st36" d="M74.7,151.5v-1.6H76v1.6h2.4v1.4H76v6.6l-11.1-8H74.7z M74.7,152.9h-5.7l5.7,4.1V152.9z"/>
	<path class="st36" d="M66.1,141.5l4.1,2.9c-0.1-0.4-0.2-0.7-0.2-1.1c0-2.5,1.8-4.1,4.2-4.1c2.6,0,4.4,1.8,4.4,4.4
		c0,3-2.3,4.4-4.4,4.4c-0.5,0-1.6-0.1-2.9-1.1l-6-4.4L66.1,141.5z M74.3,140.5c-1.7,0-3,1.3-3,3c0,1.7,1.3,3,3,3
		c1.7,0,3.1-1.2,3.1-3C77.4,141.8,76.1,140.5,74.3,140.5z"/>
</g>
<g>
	<path class="st36" d="M308.6,279.8l-5.4-4.7c-0.4-0.3-1.4-1.2-1.9-1.5c-0.8-0.6-1.4-0.7-2-0.7c-1.4,0-2.5,1-2.5,2.6
		c0,0.9,0.4,1.7,1.1,2.1c0.4,0.2,0.9,0.4,1.5,0.4v1.4c-1.3-0.1-2.1-0.5-2.6-1c-0.6-0.5-1.3-1.4-1.3-3c0-2.3,1.6-4,3.8-4
		c0.9,0,1.7,0.2,2.7,1c0.7,0.5,1.5,1.2,2.1,1.7l3,2.7v-5.4h1.3V279.8z"/>
	<path class="st36" d="M297.2,264.8v2.1l-1.3-0.7v-2.8h12.8v1.4H297.2z"/>
	<path class="st36" d="M306.9,256.8c-1.2,0.8-2.9,1.3-4.7,1.3c-1.8,0-3.5-0.4-4.7-1.3c-1.4-1-1.9-2.3-1.9-3.3c0-1,0.5-2.3,1.9-3.3
		c1.2-0.8,2.9-1.3,4.7-1.3c1.8,0,3.5,0.4,4.7,1.3c1.4,1,1.9,2.3,1.9,3.3C308.9,254.6,308.4,255.8,306.9,256.8z M298.3,255.7
		c1.1,0.7,2.6,0.9,3.9,0.9c1.3,0,2.8-0.3,3.9-0.9c1.1-0.7,1.4-1.6,1.4-2.2c0-0.7-0.3-1.5-1.4-2.2c-1.1-0.7-2.6-0.9-3.9-0.9
		c-1.3,0-2.8,0.2-3.9,0.9c-1.1,0.7-1.4,1.6-1.4,2.2C296.9,254.2,297.3,255.1,298.3,255.7z"/>
</g>
<g>
	<path class="st36" d="M157.4,454.4c0.5-0.5,1.1-0.8,1.7-1c1.5-0.4,2.6,0.4,3.2,0.9c1.8,1.6,1.6,3.7,0.4,5c-0.6,0.7-1.7,1.4-3.1,1
		c0.2,0.4,0.8,1.9-0.7,3.5c-1.6,1.8-3.9,1.7-5.5,0.2c-1-0.9-1.8-2.3-1.2-4c0.2-0.5,0.4-0.8,0.7-1.2l1.1,1c-0.3,0.4-0.5,0.8-0.5,1.3
		c-0.1,0.7,0.2,1.5,0.8,2c1.1,1,2.7,0.8,3.6-0.2c0.5-0.5,0.9-1.5,0.5-2.4c-0.2-0.4-0.5-0.9-0.9-1.2l0.8-0.9c0.3,0.4,0.8,0.7,1.3,0.8
		c0.4,0.1,1.3,0.2,2.1-0.7c0.8-0.8,1-2-0.2-3.1c-0.4-0.3-0.9-0.7-1.7-0.6c-0.4,0.1-0.9,0.3-1.3,0.7L157.4,454.4z"/>
	<path class="st36" d="M160.6,467.9c0.2-1.5,1-3,2.2-4.4c1.2-1.4,2.7-2.3,4.1-2.6c1.7-0.4,3,0.1,3.7,0.8c0.8,0.7,1.4,1.9,1.2,3.6
		c-0.2,1.5-1,3-2.2,4.4c-1.2,1.4-2.7,2.3-4.1,2.6c-1.7,0.4-3-0.1-3.7-0.8C161,470.9,160.4,469.6,160.6,467.9z M167.1,462.3
		c-1.2,0.3-2.4,1.3-3.3,2.3c-0.9,1-1.7,2.3-1.9,3.5c-0.2,1.2,0.2,2.1,0.7,2.5c0.5,0.4,1.4,0.8,2.6,0.4c1.2-0.4,2.4-1.3,3.3-2.3
		c0.9-1,1.7-2.3,1.9-3.5c0.2-1.2-0.2-2.1-0.7-2.5C169.2,462.2,168.3,461.9,167.1,462.3z"/>
</g>
<g>
	<path class="st36" d="M448,350.3v2.2l-1.3-0.7v-2.8h12.8v1.4H448z"/>
	<path class="st36" d="M447.9,336.3v7h-1.3v-9.4l13.1,8.6l-0.7,1.1L447.9,336.3z"/>
	<path class="st36" d="M447.9,324.5v4.1l2.8,0.8c-0.1-0.2-0.1-0.5-0.1-0.8c0-2.6,1.9-4.2,4.4-4.2c2.9,0,4.6,2.2,4.6,4.7
		c0,1-0.3,2-1,2.9c-0.3,0.4-0.8,0.8-1.3,1.1l-0.8-1.1c0.4-0.2,0.7-0.5,1-0.9c0.4-0.5,0.8-1.2,0.8-2.1c0-1.8-1.5-3.1-3.3-3.1
		c-1.8,0-3.1,1.3-3.1,3.1c0,0.5,0.1,1.3,0.9,2.5l-6.2-1.9v-5.1H447.9z"/>
</g>
<path class="st0" d="M254.5,286.9V161.7"/>
</svg>
