<?xml version="1.0" encoding="utf-8"?>
<!-- Generator: Adobe Illustrator 23.0.3, SVG Export Plug-In . SVG Version: 6.00 Build 0)  -->
<svg version="1.1" id="Слой_1" xmlns="http://www.w3.org/2000/svg" xmlns:xlink="http://www.w3.org/1999/xlink" x="0px" y="0px"
	 viewBox="0 0 500 600" style="enable-background:new 0 0 500 600;" xml:space="preserve">
<style type="text/css">
	.st0{fill:none;stroke:#4E86B9;stroke-width:0.6593;stroke-linecap:round;stroke-linejoin:round;stroke-miterlimit:10;}
	.st1{fill:#4E86B9;}
	.st2{fill:none;stroke:#4E86B9;stroke-width:0.6705;stroke-linecap:round;stroke-linejoin:round;stroke-miterlimit:10;}
	
		.st3{fill:none;stroke:#4E86B9;stroke-width:0.6705;stroke-linecap:round;stroke-linejoin:round;stroke-miterlimit:10;stroke-dasharray:4.5862,4.5862;}
</style>
<path class="st0" d="M247.4,220.9l0.2-1.3 M247.1,218.3v0.1l0.1,0.2v0.1l0.1,0.2v0.1l0.1,0.2l0.1,0.1l0.1,0.1 M247.1,218.3l-1.1-0.9
	 M246,217.4l0.3-2.1 M246.3,215.3l1.1,0.9 M248.2,215.9h-0.1L248,216h-0.2l-0.1,0.1h-0.1l-0.1,0.1 M248.2,215.9l0.2-1.2
	 M248.4,214.6l1.9,1.5 M250.3,216.1l-0.2,1.2 M250.7,218.6v-0.1l-0.1-0.2v-0.1l-0.1-0.1v-0.2l-0.1-0.1l-0.1-0.2l-0.1-0.1
	 M250.7,218.6l1.1,0.9 M251.8,219.5l-0.3,2.1 M251.5,221.6l-1.1-0.9 M249.6,221h0.3l0.1-0.1h0.1l0.1-0.1l0.1-0.1 M249.6,221
	l-0.2,1.2 M249.3,222.3l-1.9-1.3 M247.9,224.3l1.6,0.9l1.5,0.2l1.3-0.3l1-0.9l0.7-1.5l0.2-1.8l-0.3-2l-0.7-2.1l-1.1-1.9l-1.3-1.6
	l-1.6-1.1l-1.6-0.6h-1.5l-1.1,0.7l-0.9,1.1l-0.3,1.7v1.9l0.6,2.1l0.9,2l1.2,1.8L247.9,224.3z M382.9,418.6l-6.7-2.6 M379.7,419.2
	l-0.6-0.3l-3.4-2.1 M376,416.2l0.2,0.1l3.8,1.8l0.6,0.3 M381.5,415.8l-0.7-0.3l-1.5-0.7 M379.6,414.2l1,0.3l0.6,0.2 M378.6,422.4
	l-1.1-1.8 M382.3,411.6l-1.8,0.2 M377.7,418l-0.6-0.2l-1.3-0.8 M382.3,411.6l-1.1,3.3 M381.5,415.8v-0.5l-0.1-0.1V415l-0.1-0.1
	l-0.1-0.1 M381.5,415.8l2.2,0.2 M383.8,416l-0.9,2.6 M382.9,418.6l-2.2-0.2 M379.7,419.2l0.1-0.1h0.1l0.1-0.1l0.1-0.1l0.1-0.1
	l0.1-0.1l0.1-0.1l0.1-0.1 M379.7,419.2l-1.1,3.3 M378.6,422.4l-1.7-0.2 M376.9,422.2l1.1-3.3 M377.7,418v0.5l0.1,0.1v0.1l0.1,0.1
	v0.1l0.1,0.1 M377.7,418l-2.3-0.2 M375.5,417.7l0.9-2.6 M376.4,415.1l2.2,0.3 M379.5,414.6l-0.1,0.1l-0.1,0.1h-0.1l-0.1,0.1L379,415
	l-0.1,0.1l-0.1,0.2l-0.1,0.1 M379.5,414.6l1.1-3.3 M380.6,411.3l1.7,0.2 M382.8,407.6l-1.7,0.1l-1.8,0.8l-1.8,1.3l-1.7,1.8l-1.5,2.1
	l-1,2.4l-0.6,2.5l-0.1,2.2l0.3,2l0.8,1.7l1.1,1.1l1.6,0.5l1.7-0.1l1.8-0.7l1.9-1.4l1.6-1.8l1.5-2.1l1-2.5l0.6-2.4l0.2-2.4l-0.3-2
	l-0.8-1.6l-1.2-1.1L382.8,407.6z M293.1,434.7l-6.2-3.8 M291.4,433.1l-0.5-0.3l-3.7-1.9l-0.2-0.1 M289.4,431l1.6,0.7l0.6,0.2
	 M287.3,430.2l1.7,0.7 M287.8,434.2l1.6,0.8l0.6,0.3 M289,435.8l-0.6-0.4l-0.8-0.6 M293.5,429l-2.1,0.1 M287.2,438.6l-1-1.7
	 M287.4,430.1l1.4,0.7l0.5,0.3 M294.2,437.6l1.2-2.4l0.8-2.4l0.5-2.5l-0.1-2.1l-0.6-1.9l-1-1.3l-1.3-0.9l-1.6-0.2l-1.8,0.5l-1.8,1
	l-1.8,1.5l-1.6,2l-1.2,2.2l-0.9,2.5l-0.3,2.4l0.1,2.2l0.6,1.9l0.9,1.4l1.4,0.9l1.7,0.2l1.8-0.4l1.8-1l1.8-1.6L294.2,437.6z
	 M291.5,436.9l-1.6-1.6 M289,435.8l0.2-0.1h0.3l0.1-0.1l0.1-0.1h0.1l0.1-0.1 M289,435.8l-1.8,2.8 M287.2,438.6l-1.2-1.2
	 M285.9,437.4l1.8-2.8 M287.8,433.3v0.3l-0.1,0.1v0.8 M287.8,433.3l-1.6-1.6 M286.3,431.8l1.5-2.2 M287.7,429.5l1.6,1.6
	 M290.3,430.6h-0.2l-0.1,0.1h-0.1l-0.1,0.1h-0.1l-0.1,0.1l-0.2,0.1 M290.3,430.6l1.9-2.8 M292.2,427.8l1.2,1.1 M293.5,429l-1.9,2.9
	 M291.4,433.1l0.1-0.2v-1 M291.4,433.1l1.7,1.6 M293.1,434.7l-1.6,2.2 M403.5,244l-6.8-2.6 M400.4,244.6l-0.6-0.4l-3.4-2
	 M396.7,241.6h0.2l3.7,1.8l0.7,0.3 M402.2,241.1l-0.7-0.2l-1.6-0.8 M400.3,239.6l1,0.3l0.6,0.2 M399.3,247.8l-1.2-1.7 M403,237
	l-1.9,0.2 M398.4,243.4l-0.6-0.3l-1.5-0.7 M403.4,233.1l-1.7,0.1l-1.9,0.7l-1.8,1.3l-1.6,1.8l-1.5,2.1l-1,2.4l-0.6,2.5l-0.2,2.4
	l0.3,2l0.8,1.6l1.2,1.1l1.6,0.6l1.7-0.1l1.8-0.8l1.8-1.4l1.7-1.8l1.3-2.1l1.1-2.4l0.6-2.5l0.1-2.2l-0.3-2.1l-0.8-1.6l-1.1-1.1
	L403.4,233.1z M403,237l-1.1,3.1 M402.2,241.1v-0.2l-0.1-0.1v-0.3l-0.1-0.1v-0.1l-0.1-0.1 M402.2,241.1l2.1,0.3 M404.3,241.5
	l-0.8,2.5 M403.5,244l-2.3-0.2 M400.4,244.6l0.1-0.1l0.1-0.1l0.1-0.1l0.1-0.1l0.1-0.1l0.1-0.1l0.1-0.1l0.1-0.1 M400.4,244.6
	l-1.1,3.1 M399.3,247.8l-1.7-0.1 M397.6,247.7l1-3.3 M398.4,243.4v0.4l0.1,0.1v0.2l0.1,0.1v0.1 M398.4,243.4l-2.2-0.3 M396.1,243.1
	l0.9-2.5 M397,240.6l2.1,0.2 M400.2,240h-0.1l-0.1,0.1l-0.1,0.1l-0.2,0.1l-0.1,0.1l-0.1,0.1l-0.1,0.1l-0.1,0.1 M400.2,240l1.1-3.3
	 M401.3,236.8l1.7,0.2 M297,250.6l-5.9-1.8 M290.4,248.9l3.7,1.7l0.6,0.3 M293.9,251.9l-0.7-0.4l-3.4-2.1l-0.2-0.1 M295.2,248.3
	l-0.6-0.3l-1.6-0.7 M293.1,255.1l-1.3-1.8 M293.2,246.9l1,0.3l0.5,0.2 M295.6,244.3l-1.9,0.2 M291.5,251.3l-0.6-0.3l-1.6-0.9
	 M300.2,249l0.2-2.4l-0.1-2.1l-0.7-1.8l-1-1.4l-1.5-0.8l-1.7-0.1l-1.8,0.6l-1.8,1.1l-1.7,1.7l-1.6,2l-1.1,2.2l-0.8,2.5l-0.3,2.4
	l0.2,2.1l0.6,1.8l1.1,1.3l1.3,0.8l1.7,0.1l1.8-0.6l1.8-1.1l1.8-1.7l1.5-2l1.2-2.2L300.2,249z M297,250.6l-2.3,0.3 M293.9,251.9
	l0.1-0.1l0.1-0.1l0.1-0.1l0.1-0.1l0.1-0.2l0.1-0.1V251l0.1-0.1 M293.9,251.9l-0.8,3.1 M293.1,255.1l-1.8,0.2 M291.3,255.3l0.7-3.1
	 M291.5,251.3v0.1l0.1,0.1v0.1l0.1,0.1v0.1l0.1,0.1v0.1l0.1,0.1 M291.5,251.3l-2.4,0.2 M289.2,251.5l0.5-2.5 M289.7,249l2.4-0.3
	 M293,247.7l-0.1,0.1l-0.1,0.1l-0.1,0.1l-0.1,0.1l-0.1,0.2l-0.1,0.1l-0.1,0.1l-0.1,0.1 M293,247.7l0.7-3.1 M293.7,244.5l1.9-0.2
	 M295.6,244.3l-0.8,3.1 M295.2,248.3v-0.2l-0.1-0.1v-0.1l-0.1-0.1v-0.1l-0.1-0.1l-0.1-0.1 M295.2,248.3l2.4-0.2 M297.6,248.1
	l-0.6,2.5 M360.4,367.5l-10.3-5.2 M357.2,362.5l-1.1-0.6 M377.3,222.3l-0.9,0.4l-1.8,1.3l-1.1,1.2 M413.4,308.8l0.1,0.1l1.5,1
	l1.3,1.5l1,1.8l0.7,1.9l0.2,1.9v0.3 M427.9,329.9l0.7,0.2l1.5,1l1.3,1.5l1,1.8l0.7,2l0.2,1.8l-0.2,1.7l-0.7,1.4l-0.9,0.6
	 M425.6,316.2l0.1-0.1l1.4-0.1l1.5,0.4 M428.6,316.4l1.5,1l1.3,1.5l1,1.8l0.7,1.9l0.2,1.9l-0.2,1.7l-0.7,1.2l-0.9,0.7 M422.7,355.2
	l-6.7,3.4 M422.7,355.2v-35.6 M422.7,319.6L416,323 M413.4,314.8l9.3,4.7 M413.4,316.3l6.5,3.3 M419.9,319.6l-5.3,2.7 M414.6,322.3
	l-1.2,0.4 M416,358.5l-1.9,0.7l-0.7,0.2 M416,358.5v-35.6 M416,322.9l-1.9,0.7l-0.7,0.2 M245.2,246.9v6.9 M245.2,253.7v0.6l0.1,0.2
	l0.1,0.2l0.1,0.2l0.2,0.1l0.1,0.2l0.2,0.1 M246.1,255.4l1.9,0.9 M248,256.3l0.1,0.1h0.3l0.2-0.1l0.1-0.1v-0.1l0.1-0.2v-0.2
	 M248.9,248.8v-0.2l-0.1-0.3V248l-0.1-0.2l-0.2-0.2l-0.1-0.1l-0.2-0.2l-0.1-0.1 M248,247.1l-1.9-0.9 M246.1,246.2l-0.2-0.1h-0.3
	l-0.1,0.1l-0.1,0.1l-0.1,0.1v0.4 M248.9,255.6v-6.9 M285.9,226.9H285 M285.9,217.8l-0.9,0.5 M285,225.2l0.2,0.2l0.6,0.2h0.1
	 M285.5,299.7l-0.4-0.2 M285.5,299.7l2.8-1.5 M288.3,298.2v-3.4 M285.5,296.2v3.5 M285.5,296.2L285,296 M288.3,294.8l-2.8,1.4
	 M285,293.2l3.3,1.7 M285.5,225l-0.4-0.2 M285.5,225l2.8-1.5 M288.3,223.5v-3.4 M285.5,221.5v3.5 M288.3,220.1l-3.3-1.7
	 M285.5,221.5l-0.4-0.2 M288.3,220.1l-2.8,1.4 M303.3,190.4h0.3l0.1,0.1l0.2,0.2l0.1,0.2v0.2 M337.9,429.3l16.9-8.4 M337.9,423
	l16.6-8.3 M254.9,464.6l1.9-1 M390,128.6L273.2,187 M253.4,242.5l-7.3,3.7 M248,247.1l6.1-3 M254.4,246l-5.5,2.8 M248.9,255.6
	l5.6-2.8 M297.7,193.2h0.3l0.1,0.1l0.2,0.2l0.1,0.2v0.2 M383.9,129.6L273.2,185 M349.2,412.1l5.6,2.7 M369.8,401.6l-2.9-1.5
	 M280.1,335.1v-0.9 M276.4,341.6l0.8-0.6 M338.9,235.8l0.5,0.2 M357.2,200.5l-0.6-0.3 M372.2,419.8l0.6,2.5 M379.7,408.2l-2.2,1.1
	 M282.3,436l0.4,2.5 M289.9,424.5l-2.3,1.1 M392.9,245.1l0.6,2.6 M400.4,233.6l-2.4,1.1 M286,252.6l0.6,2.5 M293.5,241.1l-2.3,1.1
	 M374.9,215.9l1,0.6l1.7,0.6l2,0.2l1.9-0.2 M375.3,216.1l-0.2,1.3l0.4,2l1.2,1.6l1.6,0.9l0.4,0.1 M377.3,221.4v0.1l-0.1,2
	 M380.5,217.1l-0.7,0.5l-1.6,1.9 M378.2,215l0.9-1l0.4-0.3 M381.5,214.9l-1.2,0.2h-1.7l-1.3-0.3 M422.7,346.3l8.8-4.5 M425.6,316.2
	l-4.8,2.4 M422.7,332.5l8.8-4.4 M248.5,256.3l5.9-2.9 M253.3,242.3l-7.7,3.9 M285,225.3l0.3,0.2 M285,237l0.9-1.8 M303.3,190.4
	l-5.6,2.8 M297.7,193.2l-0.6,0.3l-0.6,0.7"/>
<path class="st0" d="M347.7,224.5l-5.4,2.8 M343.5,208.1l4.3-2.1 M337.4,223.9v-4.2 M342.4,227.3l-0.2,0.2l-1.2,1.8l-0.7,1.8
	 M340.2,231.2l-1.6-3.7l-1.2-3.6 M337.1,222.1v0.3l0.2,0.7l0.1,0.8 M347.7,206l-0.7,0.1l-0.7,0.1l-0.7,0.2l-0.8,0.3l-0.3,0.2
	 M347.7,206l0.6-0.1l3.4-0.7l3.6-0.3 M355.3,204.9l-1.6,2.1l-1.1,2.5 M352.7,216.1l0.1-0.9l0.2-0.9l0.1-0.9v-0.9l-0.1-0.8v-0.8
	l-0.2-0.8l-0.2-0.7 M352.7,216.1l0.1,0.7l1.1,3.3l1.5,3.4 M355.4,223.4l-3.9,0.4l-3.7,0.7 M342.4,227.3l0.7-0.1l0.7-0.2l0.7-0.2
	l0.7-0.2l0.8-0.4l0.7-0.5l0.7-0.6l0.6-0.6 M347.5,232.4l2.2-1.2l2.2-1.8l2-2.2l1.8-2.6l1.6-2.8l1.1-3l0.7-3l0.3-2.8l-0.2-2.7
	l-0.7-2.4l-1.1-1.9l-1.5-1.5l-1.8-0.8l-2-0.3l-2.1,0.4l-2.2,0.9l-2.4,1.6l-2.1,2l-1.9,2.4l-1.7,2.7l-1.3,2.9l-0.9,3l-0.5,3l-0.1,2.8
	l0.5,2.5l0.9,2.1l1.2,1.7l1.7,1.1l1.9,0.6h2.1L347.5,232.4z M349.1,200.6l2.6-0.8l2.5-0.2l2.2,0.6l1.9,1l1.7,1.7l1.2,2.2l0.8,2.6
	l0.4,3l-0.2,3.3l-0.7,3.4l-1,3.5l-1.6,3.4l-1.8,3.1l-2.2,2.8l-2.4,2.4l-2.6,2l-2.6,1.3l-2.6,0.8l-2.4,0.2l-2.2-0.6l-2-1l-1.6-1.7
	l-1.2-2.3l-0.8-2.6l-0.3-3l0.2-3.3l0.6-3.4l1.1-3.5l1.5-3.4l1.9-3.1l2.1-2.8l2.5-2.5l2.5-1.9L349.1,200.6z M324.6,206.7l-1.9,4.3
	l-1.5,4.4l-0.5,1.9 M251.3,497.8l-0.1,0.1l-0.7,1.2l-0.2,1.6l0.2,1.9l0.7,1.9l1.1,1.8l1.5,1.2l1.5,0.8l1.4,0.1v-0.1 M252.8,497.9
	l-1.4-0.1l-1.1,0.6l-0.8,1.2l-0.2,1.7 M249.3,501.3l0.2,1.9l0.8,1.9l1.1,1.7l1.4,1.2l1.5,0.8l1.5,0.1l1.1-0.7l0.7-1 M250.5,455.7
	l-0.6,0.8l-0.5,1.6v1.9l0.5,2l0.8,1.9l1.2,1.8l1.5,1.5l1.6,0.9l1.5,0.3h0.3 M257.6,466.6l-0.1,0.2l-0.7,1.3l-1,0.9l-1.3,0.2L253,469
	l-1.6-0.9l-1.5-1.3l-1.1-1.8l-0.9-2l-0.4-2v-2l0.4-1.6l0.9-1.1l1.1-0.6h1.5l0.9,0.3 M251.7,256.3l0.2,1.5l0.6,1.3l1,1.2l1,0.8
	 M251.7,254.8v1.6 M251.7,240.3v2.8 M251.7,256.3l-2.8,1.4 M248.9,257.7l0.2,1.5l0.6,1.5l0.9,1.2l1.1,0.8l1.1,0.2l0.9-0.2l0.6-0.9
	l0.2-1.1 M248.9,257.7h-5.6 M248.9,256.2v1.5 M248.9,241.6v2.8 M251.7,239.9v0.3 M251.7,240.3l-2.8,1.4 M254.5,260.6v-13.4
	 M254.5,263.4v-2.8 M248.9,241.6h-5.6 M251.3,239.5l-0.8-0.1l-0.9,0.2l-0.6,0.8l-0.2,1.2 M251.3,180.7l-0.1,0.1l-0.7,1.2l-0.2,1.6
	l0.2,1.9l0.7,1.9l1.1,1.8l1.5,1.2l1.5,0.8h1.4 M252.8,180.8l-1.4-0.1l-1.1,0.6l-0.8,1.2l-0.2,1.7 M249.3,184.2l0.2,1.8l0.8,2
	l1.1,1.7l1.4,1.2l1.5,0.8l1.5,0.1l1.1-0.7l0.7-1 M254.5,247.2v16.2 M254.5,263.4l-0.2,1.9l-0.8,1.6l-1.3,0.9l-1.5,0.2l-1.8-0.6
	l-1.7-1.2l-1.6-1.8l-1.4-2.1l-0.8-2.2l-0.2-2.4 M243.3,257.7v-16.1 M243.3,241.6l0.2-1.9l0.8-1.6l1.4-0.9l1.6-0.2l1.7,0.6l1.8,1.2
	l1.5,1.7l1.3,2.1l0.8,2.4l0.2,2.2 M254,437.1l-0.2-2l-0.7-2l-1-1.9l-1.3-1.6l-1.6-1.1l-1.5-0.7h-1.5l-1.2,0.6l-0.8,1.1l-0.5,1.6v1.9
	l0.5,2l0.8,2l1.2,1.7l1.5,1.5l1.5,0.9l1.6,0.3l1.3-0.3l1-0.8l0.7-1.4L254,437.1z M254,221l-0.2-1.9l-0.7-2.1l-1-1.9l-1.3-1.6
	l-1.6-1.1l-1.5-0.7h-1.5l-1.2,0.6l-0.8,1.1l-0.5,1.6v1.9l0.5,2l0.8,2l1.2,1.7l1.5,1.5l1.5,0.9l1.6,0.3l1.3-0.3l1-0.8l0.7-1.3
	L254,221z M243.8,377v1.9l0.5,2l0.8,2l1.2,1.8l1.5,1.3l1.5,0.9l1.6,0.3l1.3-0.2l1-0.9l0.7-1.4l0.2-1.8 M254,383l-0.2-1.9l-0.7-2
	l-1-1.9l-0.8-1 M258.8,375.6l1.8,1.1 M237.2,304.1v1 M260.6,315.9l-23.3-11.8 M260.6,376.7v-60.9 M240,501.3l0.2-2.5l0.7-2l1.1-1.6
	l1.6-0.9l1.8-0.4l1.9,0.3l2.1,0.9l2,1.5l1.9,1.9l1.6,2.4l1.3,2.6l1,2.7l0.4,2.7v2.6l-0.4,2.3l-1,1.8l-1.3,1.2l-1.6,0.7l-1.9,0.1
	l-2-0.6l-2.1-1.2l-1.9-1.7l-1.8-2.1l-1.6-2.6l-1.1-2.7l-0.7-2.7L240,501.3z M240,184.2l0.2-2.5l0.7-2l1.1-1.6l1.6-0.9l1.8-0.4
	l1.9,0.3l2.1,0.8l2,1.5l1.9,2l1.6,2.4l1.3,2.6l1,2.7l0.4,2.7v2.6l-0.4,2.2l-1,1.8l-1.3,1.2l-1.6,0.7l-1.9,0.1l-2-0.6l-2.1-1.2
	l-1.9-1.7l-1.8-2.2l-1.6-2.5l-1.1-2.7l-0.7-2.7L240,184.2z M257.7,468.9l-0.2-2.7l-0.7-2.7l-1.1-2.7l-1.6-2.5l-1.8-2.1l-1.9-1.8
	l-2.1-1.1l-2-0.6h-1.9l-1.6,0.7l-1.3,1.3l-1,1.8l-0.4,2.1v2.6l0.4,2.7l1,2.7l1.3,2.7l1.6,2.2l1.9,2l2,1.5l2.1,0.9l1.9,0.2l1.8-0.3
	l1.6-1l1.1-1.6l0.7-2L257.7,468.9z M230.1,307.6V165.4 M230.1,510.2V377 M267.6,529l-37.5-18.8 M267.6,184.2V529 M273.2,526.1
	l-5.6,2.8 M273.2,181.4v344.7 M230.1,165.4l37.5,18.8 M273.2,181.4l-5.6,2.8 M235.7,162.6l37.5,18.8 M235.7,162.6l-5.6,2.8
	 M360.4,444.9l-0.4-0.2 M367.7,402h0.3l1.8-0.4l1.7-1.1l1.7-1.6l1.5-1.9l1.2-2.2l0.7-2.5l0.2-2.2 M376.8,390l-0.2-2l-0.7-1.7
	l-0.2-0.2 M340.2,441h0.4l2.1-0.1l2.1-0.8l2.3-1.5l2-1.9l1.9-2.4l1.6-2.7l1.1-2.8l0.8-2.9l0.2-2.8 M354.8,423.1v-29.9 M354.8,423.1
	l2.8,1.3 M317.1,427.3h0.3l1.8-0.4l1.7-1l1.7-1.6l1.5-2l1.2-2.2l0.7-2.4l0.2-2.3 M326.2,415.4l-0.2-2.1l-0.7-1.6l-0.2-0.3
	 M354.8,393.3l2.1-3.4l1.7-3.6l1.4-3.7l0.9-3.7l0.5-3.7l-0.1-3.4l-0.5-3.1l-1-2.7l-1.5-2.4l-1.7-1.5 M336.9,403.9l1,0.6
	 M354.8,393.3l2.8,1.3 M369.3,227.3l7.5-3.7 M376.8,223.6l1.5-1l1.3-1.5l1-1.8l0.7-1.9l0.2-1.9l-0.2-1.7L381,213 M376.8,223.6
	l2.8,1.4 M368,227.8l1.3-0.5 M369.3,227.3l2.8,1.5 M410.6,138.9l-53,26.5 M413.4,140.4l-2.8-1.5 M357.6,165.4v0.4 M360.4,166.9
	l-2.8-1.5 M274.9,344.9h0.5l1.6-0.7l1.5-1.1l1.3-1.7l1-1.9l0.7-2l0.2-1.9 M281.6,335.6l-0.2-1.8l-0.4-1.1 M285,305.2l0.9-0.4
	 M285.9,293.6v-9 M285.9,304.7v-5.3 M285.9,304.7l2.8,1.5 M313.1,221l7.5-3.7 M320.6,217.3l1.5-1l1.2-1.5l1.1-1.8l0.7-2l0.2-1.8
	l-0.2-1.7l-0.3-0.8 M320.6,217.3l2.8,1.4 M311.7,221.5l1.3-0.5 M313.1,221l2.8,1.5 M360.4,170.3l-0.4-0.2 M285,237.4l0.9-0.4
	 M285.9,218.9v-2.1 M285.9,237v-12.2 M285.9,237l2.8,1.3 M285,217.2v23 M288.7,215.4l-3.7,1.8 M288.7,238.3v-22.9 M285,240.3
	l3.7-1.9 M284.5,337l-0.2-1.7l-0.7-1.5l-1-0.8l-1.3-0.3l-1.5,0.3l-1.6,0.9l-1.4,1.5l-1.1,1.8l-0.9,1.9l-0.4,2v1.9l0.4,1.6l0.9,1.1
	l1.1,0.6h1.4l1.6-0.7l1.5-1.1l1.3-1.6l1-1.9l0.7-2L284.5,337z M285,285.1V308 M288.7,283.2l-3.7,1.9 M288.7,306.2v-23 M285,308
	l3.7-1.8 M387.1,413.1l-0.2-2.1l-0.7-1.8l-1.1-1.4l-1.5-0.7l-1.7-0.1l-1.9,0.4l-1.8,1.1l-1.8,1.6l-1.7,2l-1.2,2.4l-0.9,2.5l-0.4,2.5
	v2.2l0.4,2l0.9,1.6l1.2,1l1.7,0.4l1.8-0.2l1.8-0.8l1.9-1.4l1.7-1.8l1.5-2.2l1.1-2.4l0.7-2.5L387.1,413.1z M297.1,429.4l-0.2-2.1
	l-0.7-1.8l-1.1-1.4l-1.5-0.7l-1.7-0.1l-1.8,0.5l-1.9,1.1l-1.8,1.6l-1.6,2l-1.3,2.4l-0.9,2.5l-0.4,2.5v2.2l0.4,2l0.9,1.6l1.3,1
	l1.6,0.5l1.8-0.2l1.9-0.8l1.8-1.4l1.7-1.8l1.5-2.1l1.1-2.5l0.7-2.5L297.1,429.4z M407.8,238.6l-0.2-2.2l-0.8-1.8l-1-1.2l-1.5-0.8
	l-1.8-0.1l-1.8,0.4l-1.9,1.1l-1.8,1.6l-1.6,2l-1.2,2.4l-0.9,2.5l-0.4,2.5v2.4l0.4,1.9l0.9,1.6l1.2,1l1.6,0.4l1.8-0.1l1.9-0.8
	l1.8-1.4l1.8-1.9l1.5-2.1l1-2.5l0.8-2.5L407.8,238.6z M301,246.1l-0.3-2.2l-0.7-1.8l-1.1-1.2l-1.3-0.8l-1.8-0.1l-1.8,0.4l-1.9,1.1
	l-1.8,1.6l-1.6,2l-1.2,2.4l-0.9,2.5l-0.6,2.5v2.2l0.6,2l0.9,1.6l1.2,1l1.6,0.4l1.8-0.1l1.9-0.8l1.8-1.3l1.8-1.9l1.3-2.1l1.1-2.5
	l0.7-2.5L301,246.1z M356.6,200.2l-0.3-0.1l-2.2-0.6h-2.5l-2.5,0.7l-2.6,1.3l-2.6,1.8l-2.5,2.4l-2.1,2.8l-1.9,3.1l-1.6,3.3l-1.2,3.5
	l-0.7,3.4l-0.2,3.4l0.2,3l0.7,2.7l1.2,2.2l1.6,1.8l1.5,0.9 M337.9,434.4l0.3,2.6l0.7,2.1l1.2,1.7l1.5,1.1l1.9,0.6l2.1-0.2l2.1-0.8
	l2.3-1.3l2-1.9l1.9-2.4l1.6-2.7l1.1-2.9l0.8-2.9l0.2-2.8 M337.9,404.5v29.9 M357.6,394.6l2.1-3.4l1.7-3.6l1.3-3.7l0.9-3.7l0.5-3.6
	l-0.1-3.5l-0.4-3.1l-1-2.7l-1.5-2.2l-1.9-1.7l-2.1-1.1l-2.5-0.4l-2.7,0.1l-2.7,0.8l-2.8,1.5l-2.8,1.9l-2.7,2.6l-2.5,2.9l-2.1,3.3
	l-1.9,3.6l-1.3,3.7l-1,3.7l-0.6,3.6l-0.1,3.6l0.5,3.1l0.9,2.8l1.4,2.4l1.8,1.9l2,1.2 M357.6,424.5v-29.9 M379.6,391.5l-0.2-2.1
	l-0.7-1.6l-1.1-1.1l-1.5-0.6l-1.7,0.1l-1.8,0.7l-1.8,1.4l-1.6,1.8l-1.3,2.1l-0.9,2.4l-0.4,2.4v2.2l0.4,1.8l0.9,1.5l1.3,0.8l1.6,0.2
	l1.8-0.4l1.8-1l1.7-1.6l1.5-2l1.1-2.3l0.7-2.4L379.6,391.5z M329,416.7l-0.2-2l-0.7-1.7l-1.1-1.1l-1.5-0.6l-1.7,0.1l-1.8,0.8
	l-1.8,1.4l-1.6,1.8l-1.3,2.1l-0.9,2.4l-0.4,2.4v2.1l0.4,1.9l0.9,1.4l1.3,0.9l1.6,0.2l1.8-0.4l1.8-1.1l1.7-1.6l1.5-1.9l1.1-2.2
	l0.7-2.5L329,416.7z M315.9,210.9l-1.5,1l-1.2,1.5l-1.1,1.8l-0.7,1.9l-0.2,1.9l0.2,1.7l0.7,1.2l1.1,0.8l1.2,0.2l1.5-0.5
	 M323.4,207.2l-7.5,3.7 M323.4,218.7l1.5-1l1.3-1.5l1-1.8l0.7-1.9l0.2-1.9l-0.2-1.7l-0.7-1.2l-1-0.8l-1.3-0.1l-1.5,0.4 M315.9,222.5
	l7.5-3.8 M379.6,225l1.5-0.9l1.3-1.6l1-1.7l0.7-2l0.2-1.9l-0.2-1.6l-0.7-1.3l-1-0.7l-1.3-0.2l-1.5,0.4 M372.1,228.8l7.5-3.8
	 M372.1,217.3l-1.4,1l-1.2,1.5l-1.1,1.8l-0.5,1.9l-0.2,1.9l0.2,1.6l0.5,1.3l1.1,0.7l1.2,0.2l1.4-0.4 M379.6,213.5l-7.5,3.8
	 M273.2,488.5l48.7-24.4 M321.9,464.1v-3.5 M321.9,460.6l38.5-19.2 M360.4,441.4v3.5 M360.4,444.9l53-26.5 M413.4,418.4v-278
	 M413.4,140.4l-53,26.5 M360.4,166.9v3.4 M360.4,170.3l-38.5,19.3 M321.9,189.6v-3.5 M319.1,184.7l-45.9,23 M321.9,186.1l-48.7,24.4
	 M321.9,186.1l-2.8-1.5 M367.6,392.9l7.3,3.7 M355.3,386.7l2.6,1.3 M355.3,386.7V365 M247.2,434.8l0.7-0.2l2.4-1 M250.8,434.3
	l-2.2,1.5l-0.7,0.3 M246.1,434.3l3.8-1.2 M247.9,437.5l3.7-2.8 M249.8,431.4l-1.9,0.8l-0.7,0.2 M249.9,437.1l0.4-0.3 M247.9,432
	l0.7-0.2l1.1-0.6 M251.7,435.8l-0.6,0.3l-0.6,0.3 M251.7,437.1l-1.1-0.6 M249.9,437.1l0.1-0.1h0.1l0.1-0.1l0.1-0.1h0.1v-0.1l0.1-0.1
	 M249.9,437.1v1.4 M249.9,438.4l-2-0.9 M247.9,437.5V436 M247.2,434.8l0.1,0.2v0.1l0.1,0.2l0.1,0.1l0.1,0.1l0.1,0.2v0.1l0.1,0.1
	 M247.2,434.8l-1.1-0.6 M246.1,434.3v-2.4 M246.1,431.9l1.1,0.6 M247.9,432h-0.1l-0.1,0.1h-0.1l-0.1,0.1l-0.1,0.1l-0.1,0.1
	 M247.9,432v-1.5 M247.9,430.5l2,1 M249.9,431.6v1.3 M250.6,434.1l-0.1-0.1v-0.2l-0.1-0.1l-0.1-0.2l-0.1-0.1l-0.1-0.1V433l-0.1-0.1
	 M250.6,434.1l1.1,0.6 M251.7,434.7v2.4 M254.2,437.2l-0.2-2l-0.7-2.1l-1.1-1.9l-1.3-1.7l-1.5-1.1l-1.6-0.7h-1.5l-1.2,0.6l-0.9,1.1
	l-0.5,1.6v2l0.5,2l0.9,2l1.2,1.8l1.5,1.5l1.6,0.9l1.5,0.3l1.3-0.3l1.1-0.8l0.7-1.5L254.2,437.2z M246.6,381.8l4.7-1.9 M247.8,381.8
	l0.6-0.3l3-1.4 M251.6,380.9l-2.4,1.5l-0.6,0.3 M249.1,378.2l-1.5,0.8l-0.7,0.2 M247.3,378.3l0.7-0.2l0.9-0.3 M249.1,384.3l1.5-1.2
	 M251.7,381.2l-0.3,0.2l-0.6,0.3 M253.7,380.5l-0.8-2.1l-1.2-1.8l-0.2-0.3 M251.8,381.7l-1,0.1 M250.5,382.7v-0.1l0.1-0.1v-0.1
	l0.1-0.1v-0.1l0.1-0.1v-0.2 M250.5,382.7l0.5,1.5 M250.9,384.2l-1.8,0.1 M249.1,384.3l-0.4-1.6 M247.8,381.8l0.1,0.1l0.1,0.1
	l0.1,0.2l0.1,0.1l0.1,0.1l0.1,0.1h0.1l0.1,0.1 M247.8,381.8h-1.1 M246.6,381.8l-0.7-2.6 M246,379.2h1 M247.3,378.3v0.1l-0.1,0.1
	l-0.1,0.2v0.1L247,379v0.2 M247.3,378.3l-0.4-1.6 M246.9,376.7h1.8 M248.7,376.7l0.4,1.6 M250,379.2l-0.1-0.1l-0.1-0.2v-0.1
	l-0.2-0.1l-0.1-0.1l-0.1-0.1l-0.1-0.1h-0.1 M250,379.2h1.1 M251.1,379.2l0.7,2.5 M250.5,218l-2.2,1.2l-0.6,0.3 M247.1,218.4l0.7-0.3
	l2.4-0.9 M247.4,220.9l3.3-2.4 M246,217.5l4.4-1.2 M249.5,221l0.6-0.3l1.7-1 M247.9,216l-0.4,0.2 M251.8,219.9l-0.9,0.4l-0.6,0.3
	 M248.2,215.9l0.7-0.2l0.6-0.2"/>
<g>
	<path class="st0" d="M367.4,244.5l-25.9,13.3 M393.2,231.2l-25.8,13.3 M340.2,230.9l30,15.1 M355.4,223.2l30.1,15.1 M229.8,307.3
		l-34.9-17.5 M229.9,165.5l-49.6-24.9 M229.9,510.2l-49.6-24.8 M183.1,146.2v335.6 M267.4,184.3v-51.2 M229.9,165.5v-51.2
		 M263.6,134.7l-30.9-15.5 M273.4,181.5v-49.4 M413.5,140.4V57.7 M277.3,133.6l133.9-71.2 M413.8,140.2l26.5-13.1 M348.4,218.3
		l92-46.1 M436.9,133.2l0.4,35.9 M413.5,140.5l44.9-22.5 M413.5,418.5l44.9-22.5 M455.6,123.5v267.8 M348.4,218.3V107.7
		 M273.4,181.5v-32.6 M345.4,112.9l-69.1,38 M267.8,544.2l5.6-2.8 M267.8,544.2l-10.8,5.5 M273.2,526.1v18.8 M273.4,541.4l19.9-10
		 M229.9,360.6l-35-17.5 M267.6,529v18.8 M205.7,288.9V158.4 M229.9,165.5l-27.8-13.9 M197.7,338v-46.8 M209.6,291.2l25.2-7.4
		 M437,333.3l0.4-155.3 M417,116.6l17.8,10.5 M205.7,316v59.6 M237.2,304.1v-24.2 M383.1,130l34.6-17.3 M347.8,383.5l92.3-46.2
		 M205.7,314.1v-25.3 M341.5,388.9h0.3l1.8-0.5l1.8-1l1.7-1.6l1.5-2l1.1-2.2l0.7-2.4l0.2-2.4 M350.6,376.8l-0.2-2l-0.7-1.7l-0.2-0.2
		 M318.2,427.2l0.5-0.2l2.2-1.5l2-1.9l1.2-1.4 M360,445.1l-37.5,18.8 M360,445.1v-3.5 M322.5,463.9l-0.6-0.2 M322.5,463.9v-3.5
		 M360,441.7l-37.5,18.8 M252.4,456l-0.1,0.2l-0.1,1.8l0.3,2l0.8,2l1.1,1.8l1.5,1.5l1.5,1.1 M257.3,466.5l0.3,0.1 M250.4,455.7
		l-0.5,0.4l-0.6,1.5l-0.1,1.8l0.3,2l0.8,2l1.1,1.9l1.5,1.5l1.5,1 M254.5,467.8l1.6,0.6h0.7 M321.9,189l0.6,0.2 M322.5,189.2
		l37.5-18.8 M360,167.1v3.4 M322.5,185.9v3.4 M254.5,259.8l-1.1,0.6 M353.4,378.3l-0.2-2.1l-0.7-1.6l-1.1-1.1l-1.5-0.6l-1.7,0.1
		l-1.8,0.7l-1.8,1.3l-1.6,1.8l-1.3,2.1l-0.9,2.4l-0.5,2.4v2.2l0.5,1.8l0.9,1.5l1.3,0.8l1.6,0.2l1.8-0.4l1.8-1l1.7-1.6l1.5-2l1.1-2.3
		l0.7-2.4L353.4,378.3z M384,129.7l2.4-0.9l3.6-0.2 M252.6,254.3v5.1 M252.6,241.1v1.5 M319.7,184.4v0.4 M297.2,193.6l-0.1-0.2
		l-0.5-0.3L296,193l-0.8-0.1l-0.7,0.1l-0.7,0.1l-0.5,0.3l-0.1,0.4l0.1,0.3l0.5,0.3l0.7,0.2l0.7,0.1l0.8-0.1l0.7-0.2 M296.7,194.5
		l0.1-0.1 M357.2,165.7l53.4-26.7 M390,128.6l20.6,10.3 M273.2,207.7l46.5-23.3 M319.7,184.4l2.8,1.5 M322.5,185.9l37.5-18.8
		 M360,167.1l-2.8-1.5 M354.8,395.3h-0.1l-1.8,0.7l-1.7,1.4l-1.6,1.8l-1.3,2.1l-0.9,2.4l-0.6,2.4v2.1l0.6,1.9l0.9,1.5l0.9,0.7
		 M274.2,343.1h0.7l1.4-0.4l1.5-1l1.2-1.5l1.1-1.8l0.7-1.9l0.2-1.9l-0.2-1.7l-0.1-0.1 M207.5,376.5l-1.8-0.9 M205.7,373.7V314
		 M276.8,344.3l-0.5,0.2l-1,0.2h-0.6 M260.5,375.5l-16.2,1.1 M238.1,304.5l-2,1 M260.5,315.9l-16.2,1 M207.5,376.5v-59.6
		 M207.5,376.5l36.8,0.1 M244.3,316.9v59.8 M236.1,305.5L205.7,316 M205.7,316l1.8,0.9 M207.5,316.9h36.8 M275.5,337.3l2.8,1.3
		 M277.9,334.2l1.3,0.7 M274.5,339.9l0.9,0.9 M279.3,334.8l-1-0.9 M278.3,338.7l1-3.8 M275.4,340.8l2.9-2.1 M280.1,333v1.1
		 M276.4,341.6l-1.1,0.7l-1,0.3 M274.2,341.8h1.2l1.3-0.6l1.4-1.1l1-1.6l0.7-1.9 M279.8,336.6l0.2-1.7l-0.2-1.6l-0.2-0.2
		 M352.6,209.5l0.1,6.6 M338.9,215.2l16.5,8.2"/>
</g>
<polygon class="st1" points="197.6,291.6 199.3,301.2 197.6,299 196,301.2 "/>
<polygon class="st1" points="205.6,295.4 204,285.9 205.6,288 207.2,285.9 "/>
<polygon class="st1" points="197.6,344.4 196,334.8 197.6,336.9 199.3,334.8 "/>
<polygon class="st1" points="237.2,283.2 228.4,287.4 230,285.2 227.5,284.3 "/>
<polygon class="st1" points="205.6,292.4 214.4,288.2 212.8,290.3 215.3,291.2 "/>
<polygon class="st1" points="183.1,142 184.7,151.6 183.1,149.5 181.4,151.6 "/>
<polygon class="st1" points="205.8,152.9 207.4,162.5 205.8,160.4 204.1,162.5 "/>
<polygon class="st1" points="229.8,117.8 239,120.6 236.4,121.1 237.6,123.5 "/>
<polygon class="st1" points="267.4,136.4 258.1,133.7 260.7,133.2 259.5,130.8 "/>
<polygon class="st1" points="273.5,135.6 282.7,132.4 280.1,132 281.2,129.6 "/>
<polygon class="st1" points="273.2,152.4 282.4,149.2 279.7,148.8 280.9,146.4 "/>
<polygon class="st1" points="348.2,111.2 339.1,114.4 341.7,114.7 340.6,117.2 "/>
<polygon class="st1" points="413.4,61.1 404.2,64.3 406.9,64.7 405.8,67.1 "/>
<polygon class="st1" points="413.8,114.9 421.4,120.9 420.3,118.4 422.9,118.1 "/>
<polygon class="st1" points="437.3,128.6 429.8,122.3 430.9,124.8 428.2,125.1 "/>
<polygon class="st1" points="382.4,236.9 391.5,233.7 388.9,233.3 390,230.9 "/>
<polygon class="st1" points="367,244.8 357.7,247.7 360.4,248.1 359.2,250.5 "/>
<polygon class="st1" points="436.9,128.8 438.5,138.4 436.9,136.2 435.3,138.4 "/>
<polygon class="st1" points="437.4,173.5 435.8,163.9 437.4,166.1 439,163.9 "/>
<polygon class="st1" points="455.7,119.3 457.3,128.9 455.7,126.8 454.1,128.9 "/>
<polygon class="st1" points="437.5,174 439.1,183.6 437.5,181.4 435.9,183.6 "/>
<polygon class="st1" points="437,338.8 435.4,329.2 437,331.3 438.6,329.2 "/>
<polygon class="st1" points="455.7,397.2 454.1,387.6 455.7,389.8 457.3,387.6 "/>
<polygon class="st1" points="258.5,547 261.2,547.5 259.9,549.9 267.8,544.3 "/>
<polygon class="st1" points="273.4,541.5 281.3,535.7 280.1,538.1 282.7,538.6 "/>
<polygon class="st1" points="183.1,486.9 181.4,477.3 183.1,479.4 184.7,477.3 "/>
<g>
	<path class="st0" d="M260.5,340.3c-2.4,0-4.4,2.8-4.4,6.2c0,3.4,2,6.2,4.4,6.2V340.3z"/>
</g>
<path class="st2" d="M76.5,470.2v35.4 M156.2,500.8v35.6 M76.5,502.4l79.8,30.5 M76.4,247.4l-29.1-14.5 M76.4,469.8l-29.1-14.3
	 M127.8,258.3l-5.4,2.7 M135.6,345.9v62.4 M142.5,416.2v24.7 M142.5,437.5l-27.2-13.6 M115.4,402.5v24.8 M122.3,261l-13.5,6.4
	 M127.8,258.3l19.7-9.8 M55.1,236.7v222.5 M108.9,249.1l52.9,26.5 M161.8,275.6l-5.4,2.7 M103.3,251.8l53,26.5 M156.3,278.3v222.4
	 M156.3,500.7l-53-26.4 M129.2,291.9l-1-0.5l-0.9-0.9l-0.8-1l-0.7-1.1l-0.4-1.2l-0.3-1.2l-0.1-1.2l0.1-1.1l0.3-0.9l0.4-0.7l0.7-0.5
	l0.8-0.2l0.9,0.1l1,0.3l0.9,0.5l0.9,0.9l0.8,1l0.6,1.1l0.4,1.2l0.3,1.2l0.1,1.2l-0.1,1.1l-0.3,0.9l-0.4,0.7l-0.6,0.5l-0.8,0.2
	l-0.9-0.1L129.2,291.9z M129.2,469.9l-1-0.7l-0.9-0.8l-0.8-1l-0.7-1.1l-0.4-1.2l-0.3-1.3l-0.1-1.1l0.1-1.1l0.3-0.9l0.4-0.8l0.7-0.4
	l0.8-0.2h0.9l1,0.4l0.9,0.5l0.9,0.8l0.8,1l0.6,1.2l0.4,1.2l0.3,1.2l0.1,1.1l-0.1,1.1l-0.3,0.9l-0.4,0.8l-0.6,0.4l-0.8,0.2h-0.9
	L129.2,469.9z M142.8,416.1l-27.3-13.7 M142.8,349.3v66.8 M115.5,335.7l27.3,13.6 M115.5,402.4v-66.7 M161.8,275.6V498 M161.8,497.9
	l-5.4,2.7 M127,281.6l-0.1,0.1l-0.5,0.8l-0.3,0.9l-0.1,1.1l0.1,1.2l0.3,1.2l0.5,1.2l0.5,1.1l0.9,1l0.9,0.8l0.9,0.7l0.9,0.3h1.2
	 M76.6,247.6v222.5 M99.9,250.8l-23.4-3.2 M76.6,470.1l23.4,3 M78.6,243.9l-2.1,3.7 M101.9,247l-23.3-3.1 M108.9,249.1l-0.8-0.3
	l-0.8-0.3l-0.9-0.3l-0.9-0.2l-0.9-0.3l-0.9-0.2l-1-0.1l-1-0.2 M103.3,251.8l-0.3-0.2l-0.4-0.1l-0.3-0.2l-0.4-0.1l-0.4-0.1L101,251
	l-0.4-0.1h-0.4 M99.9,473.1l0.4,0.1l0.4,0.1l0.5,0.1l0.4,0.1l0.4,0.1l0.3,0.2l0.4,0.1l0.3,0.2 M115.5,402.4l5.4-2.7 M120.9,399.6
	v-61.2 M142.8,410.6l-21.9-11 M127,459.5l-0.1,0.2l-0.5,0.6l-0.3,1l-0.1,1.1l0.1,1.1l0.3,1.2l0.5,1.2l0.5,1.2l0.9,1l0.9,0.8l0.9,0.5
	l0.9,0.3l0.9,0.1h0.3 M103.3,251.8l5.5-2.7 M103.3,474.2V251.8 M99.9,250.8v222.3 M99.9,250.8l2-3.8"/>
<polygon class="st1" points="55,236.9 56.8,248 55,245.5 53.1,248 "/>
<polygon class="st1" points="122.3,260.9 113.1,267.4 114.5,264.7 111.5,264.1 "/>
<polygon class="st1" points="127.7,258.3 136.8,251.6 135.4,254.4 138.4,254.9 "/>
<polygon class="st1" points="135.6,345.6 137.4,356.7 135.6,354.2 133.7,356.7 "/>
<polygon class="st1" points="135.6,412.6 133.7,401.5 135.6,404 137.4,401.5 "/>
<polygon class="st1" points="55.1,459 53.2,447.9 55.1,450.4 57,447.9 "/>
<polygon class="st1" points="156.3,532.8 145.2,530.9 148.1,530 146.4,527.4 "/>
<polygon class="st1" points="76.5,502.4 87.5,504.7 84.5,505.5 86.2,508.2 "/>
<line class="st2" x1="76.2" y1="470.1" x2="64" y2="468.5"/>
<line class="st3" x1="108.5" y1="248.8" x2="71.8" y2="229.9"/>
<polygon class="st1" points="85.9,237.3 91.1,227.3 91.1,230.4 94.1,229.5 "/>
<g>
	<path class="st2" d="M89.9,263.2c-3.8-4.1-6.1-9.6-6.1-15.6c0-12.7,10.3-23,23-23"/>
</g>
<polygon class="st1" points="84,244.6 86.6,255.6 84.6,253.2 82.9,255.8 "/>
<g>
	<path class="st1" d="M194.8,328.4l-3.2-2.8c-0.2-0.2-0.8-0.7-1.1-0.9c-0.5-0.3-0.9-0.4-1.2-0.4c-0.9,0-1.5,0.6-1.5,1.5
		c0,0.5,0.2,1,0.7,1.3c0.2,0.1,0.5,0.2,0.9,0.3v0.9c-0.8,0-1.2-0.3-1.6-0.6c-0.4-0.3-0.8-0.9-0.8-1.8c0-1.4,1-2.4,2.3-2.4
		c0.5,0,1,0.2,1.6,0.6c0.4,0.3,0.9,0.7,1.3,1l1.8,1.6v-3.3h0.8V328.4z"/>
	<path class="st1" d="M187.5,317.9l2.5,1.8c-0.1-0.2-0.1-0.4-0.1-0.7c0-1.5,1.1-2.5,2.5-2.5c1.5,0,2.6,1.1,2.6,2.6
		c0,1.8-1.4,2.7-2.6,2.7c-0.3,0-1-0.1-1.8-0.6l-3.6-2.6L187.5,317.9z M192.4,317.4c-1,0-1.8,0.8-1.8,1.8s0.8,1.8,1.8,1.8
		c1,0,1.8-0.7,1.8-1.8C194.2,318.1,193.4,317.4,192.4,317.4z"/>
</g>
<g>
	<path class="st1" d="M172.3,326.8v1.3l-0.8-0.5V326h7.7v0.9H172.3z"/>
	<path class="st1" d="M172.3,317.8v2.5l1.7,0.5c0-0.2,0-0.3,0-0.5c0-1.5,1.2-2.5,2.7-2.5c1.7,0,2.8,1.3,2.8,2.8
		c0,0.6-0.2,1.2-0.6,1.7c-0.2,0.2-0.5,0.5-0.8,0.7l-0.5-0.7c0.3-0.1,0.4-0.3,0.6-0.5c0.3-0.3,0.5-0.7,0.5-1.2c0-1.1-0.9-1.9-2-1.9
		c-1.1,0-1.9,0.8-1.9,1.9c0,0.3,0,0.8,0.5,1.5l-3.7-1.1v-3.1H172.3z"/>
	<path class="st1" d="M178.2,315.5c-0.7,0.5-1.7,0.8-2.8,0.8c-1.1,0-2.1-0.3-2.8-0.8c-0.9-0.6-1.2-1.4-1.2-2s0.3-1.4,1.2-2
		c0.7-0.5,1.7-0.8,2.8-0.8c1.1,0,2.1,0.3,2.8,0.8c0.9,0.6,1.2,1.4,1.2,2S179,314.9,178.2,315.5z M173,314.8c0.7,0.4,1.5,0.6,2.3,0.6
		c0.8,0,1.7-0.2,2.3-0.6c0.6-0.4,0.9-0.9,0.9-1.3c0-0.4-0.2-0.9-0.9-1.3c-0.7-0.4-1.5-0.6-2.3-0.6c-0.8,0-1.7,0.2-2.3,0.6
		c-0.6,0.4-0.9,0.9-0.9,1.3C172.2,313.9,172.4,314.4,173,314.8z"/>
</g>
<g>
	<path class="st1" d="M195,217.7v2.5l1.7,0.5c0-0.1,0-0.3,0-0.5c0-1.5,1.2-2.5,2.7-2.5c1.7,0,2.8,1.3,2.8,2.8c0,0.6-0.2,1.2-0.6,1.7
		c-0.2,0.2-0.5,0.5-0.8,0.7l-0.5-0.7c0.3-0.1,0.4-0.3,0.6-0.5c0.3-0.3,0.5-0.7,0.5-1.2c0-1.1-0.9-1.9-2-1.9c-1.1,0-1.9,0.8-1.9,1.9
		c0,0.3,0,0.8,0.5,1.5l-3.7-1.1v-3.1H195z"/>
	<path class="st1" d="M199.7,211c1.2,0,2.3,0.8,2.3,2.4c0,1.6-1.1,2.4-2.3,2.4c-0.8,0-1.5-0.4-1.9-1.2c-0.4,0.6-1,0.9-1.7,0.9
		c-1.1,0-2.1-0.7-2.1-2.1c0-1.4,1-2.1,2.1-2.1c0.7,0,1.3,0.3,1.7,0.9C198.2,211.4,198.9,211,199.7,211z M196.2,212.1
		c-0.8,0-1.4,0.6-1.4,1.3c0,0.7,0.5,1.3,1.4,1.3c0.8,0,1.3-0.6,1.3-1.3C197.5,212.6,197,212.1,196.2,212.1z M199.7,211.9
		c-0.9,0-1.5,0.6-1.5,1.5c0,0.9,0.6,1.5,1.5,1.5c0.9,0,1.5-0.6,1.5-1.5C201.2,212.5,200.6,211.9,199.7,211.9z"/>
	<path class="st1" d="M200.7,208.9l0.3-0.8l2.6,1.2l-0.2,0.5L200.7,208.9z"/>
</g>
<g>
	<path class="st1" d="M199.7,200.6c1.2,0,2.3,0.8,2.3,2.4c0,1.6-1.1,2.4-2.3,2.4c-0.8,0-1.5-0.4-1.9-1.2c-0.4,0.6-1,0.9-1.7,0.9
		c-1.1,0-2.1-0.7-2.1-2.1c0-1.4,1-2.1,2.1-2.1c0.7,0,1.3,0.3,1.7,0.9C198.2,201,198.9,200.6,199.7,200.6z M196.2,201.6
		c-0.8,0-1.4,0.6-1.4,1.3c0,0.7,0.5,1.3,1.4,1.3c0.8,0,1.3-0.6,1.3-1.3C197.5,202.2,197,201.6,196.2,201.6z M199.7,201.4
		c-0.9,0-1.5,0.6-1.5,1.5c0,0.9,0.6,1.5,1.5,1.5c0.9,0,1.5-0.6,1.5-1.5C201.2,202,200.6,201.4,199.7,201.4z"/>
</g>
<g>
	<path class="st1" d="M245.1,121.2l4-1.4c0.3-0.1,1-0.4,1.3-0.5c0.5-0.3,0.8-0.5,1-0.8c0.4-0.8,0.2-1.6-0.6-2.1
		c-0.5-0.3-1-0.3-1.4,0c-0.2,0.1-0.5,0.3-0.7,0.7l-0.7-0.4c0.4-0.7,0.9-0.9,1.3-1.1c0.5-0.2,1.1-0.2,2,0.2c1.2,0.7,1.6,2,0.9,3.2
		c-0.3,0.5-0.6,0.8-1.4,1.1c-0.5,0.2-1.1,0.4-1.5,0.6l-2.3,0.8l2.8,1.6l-0.4,0.7L245.1,121.2z"/>
</g>
<g>
	<path class="st1" d="M252.1,124.1c-0.1-0.9,0.2-1.9,0.7-2.8c0.5-1,1.3-1.7,2.1-2.1c0.9-0.4,1.8-0.3,2.3,0c0.5,0.3,1.1,1,1.1,2
		c0.1,0.9-0.2,1.9-0.7,2.8c-0.5,1-1.3,1.7-2.1,2.1c-0.9,0.4-1.8,0.3-2.3,0C252.7,125.7,252.1,125.1,252.1,124.1z M255.2,119.9
		c-0.7,0.4-1.3,1-1.7,1.7s-0.7,1.5-0.7,2.3c0,0.8,0.4,1.2,0.7,1.4s0.9,0.3,1.6-0.1c0.7-0.4,1.3-1,1.7-1.7s0.7-1.5,0.7-2.3
		c0-0.8-0.4-1.2-0.7-1.4C256.4,119.6,255.9,119.5,255.2,119.9z"/>
</g>
<g>
	<path class="st1" d="M303.3,130.1l0.8-0.4l0.4,0.7l-0.8,0.4l0.7,1.3l-0.8,0.4l-0.7-1.3l-3.5,1.9l1.1-8.1L303.3,130.1z M302.6,130.5
		l-1.6-3l-0.5,4.1L302.6,130.5z"/>
</g>
<g>
	<path class="st1" d="M306.4,131l1-4.2c0.1-0.3,0.2-1.1,0.3-1.4c0.1-0.6,0-1-0.2-1.2c-0.4-0.8-1.3-1-2.1-0.6
		c-0.5,0.3-0.8,0.7-0.8,1.2c0,0.3,0,0.6,0.2,0.9l-0.8,0.4c-0.3-0.7-0.3-1.2-0.2-1.7c0.1-0.5,0.4-1.1,1.2-1.5
		c1.2-0.6,2.6-0.3,3.2,0.9c0.2,0.5,0.3,0.9,0.2,1.7c-0.1,0.5-0.2,1.2-0.3,1.6l-0.6,2.4l2.9-1.5l0.4,0.7L306.4,131z"/>
</g>
<g>
	<path class="st1" d="M335.1,91.1l-3.7,2l-0.4-0.7l5-2.7l-0.8,9.4l-0.8-0.1L335.1,91.1z"/>
</g>
<g>
	<path class="st1" d="M341,88l-3.7,2l-0.4-0.7l5-2.7l-0.8,9.4l-0.8-0.1L341,88z"/>
</g>
<g>
	<path class="st1" d="M425.5,107.8l-1.1-0.7l0.8-0.5l1.5,0.9l-4,6.6l-0.7-0.4L425.5,107.8z"/>
	<path class="st1" d="M433.2,112.4l-2.1-1.3l-1.3,1.2c0.1,0,0.3,0.1,0.4,0.2c1.3,0.8,1.6,2.3,0.8,3.6c-0.9,1.5-2.5,1.7-3.8,0.9
		c-0.5-0.3-0.9-0.8-1.2-1.4c-0.1-0.3-0.2-0.7-0.2-1l0.8-0.1c0,0.3,0,0.5,0.1,0.8c0.1,0.4,0.4,0.8,0.8,1c0.9,0.6,2.1,0.2,2.6-0.7
		c0.6-0.9,0.3-2-0.6-2.6c-0.2-0.1-0.7-0.4-1.5-0.3l2.9-2.6l2.6,1.6L433.2,112.4z"/>
	<path class="st1" d="M432.1,118.5l0.5,0.6l-2.3,1.6l-0.3-0.5L432.1,118.5z"/>
</g>
<g>
	<path class="st1" d="M442.1,117.8l-2.1-1.3l-1.3,1.2c0.1,0,0.3,0.1,0.4,0.2c1.3,0.8,1.6,2.3,0.8,3.6c-0.9,1.5-2.5,1.7-3.8,0.9
		c-0.5-0.3-0.9-0.8-1.2-1.4c-0.1-0.3-0.2-0.7-0.2-1l0.8-0.1c0,0.3,0,0.5,0.1,0.8c0.1,0.4,0.4,0.8,0.8,1c0.9,0.6,2.1,0.2,2.6-0.7
		c0.6-0.9,0.3-2-0.6-2.6c-0.2-0.1-0.7-0.4-1.5-0.3l2.9-2.6l2.6,1.6L442.1,117.8z"/>
</g>
<g>
	<path class="st1" d="M346,244.7c0.5,0.2,1.5,0.7,2.2,2.1c1.1,2.3,0.2,4.8-2,5.9c-1.3,0.6-2.3,0.5-3,0.4l-0.5,1.4l-0.9-0.3l0.5-1.4
		c-1.1-0.5-1.7-1.3-2.1-2.1c-1.1-2.3-0.2-4.8,2-5.9c0.7-0.3,1.7-0.6,2.9-0.4l0.4-1.4l0.9,0.3L346,244.7z M344.8,245.3
		c-0.3-0.1-1.2-0.2-2.1,0.3c-1.7,0.9-2.4,2.9-1.5,4.7c0.5,1,1.2,1.4,1.6,1.6L344.8,245.3z M343.6,252.2c1,0.2,1.8-0.1,2.2-0.3
		c1.7-0.8,2.4-2.9,1.5-4.7c-0.3-0.6-0.8-1.2-1.7-1.6L343.6,252.2z"/>
	<path class="st1" d="M354.7,245.9c0.5,1.1,0.3,2.4-1.1,3.1s-2.6,0.1-3.1-1c-0.4-0.7-0.3-1.5,0.2-2.2c-0.7,0-1.3-0.5-1.6-1.1
		c-0.5-1-0.3-2.2,0.9-2.9c1.2-0.6,2.4,0,2.8,1c0.3,0.6,0.3,1.3-0.1,1.9C353.7,244.7,354.4,245.1,354.7,245.9z M352.2,243.2
		c-0.4-0.8-1.2-0.9-1.8-0.6c-0.6,0.3-0.9,1.1-0.6,1.8c0.3,0.7,1.1,0.9,1.8,0.6C352.3,244.6,352.6,243.8,352.2,243.2z M354,246.2
		c-0.4-0.8-1.2-1-2-0.6c-0.8,0.4-1.1,1.2-0.7,2c0.4,0.8,1.2,1.1,2,0.7C354.1,247.9,354.4,247,354,246.2z"/>
</g>
<g>
	<path class="st1" d="M427.1,161.6l0,1.3l-0.8-0.4l0-1.7l7.7,0l0,0.9L427.1,161.6z"/>
</g>
<g>
	<path class="st1" d="M433.7,156l-2.5-1.7c0.1,0.2,0.1,0.4,0.1,0.7c0,1.5-1.1,2.5-2.5,2.5c-1.5,0-2.6-1.1-2.7-2.6
		c0-1.8,1.4-2.7,2.6-2.7c0.3,0,1,0.1,1.8,0.6l3.6,2.6L433.7,156z M428.7,156.6c1,0,1.8-0.8,1.8-1.8c0-1-0.8-1.8-1.8-1.8
		c-1,0-1.8,0.7-1.8,1.8C426.9,155.8,427.7,156.6,428.7,156.6z"/>
</g>
<g>
	<path class="st1" d="M432.8,150.1l0.3-0.8l2.6,1.1l-0.2,0.5L432.8,150.1z"/>
</g>
<g>
	<path class="st1" d="M426.9,142.2l0,2.5l1.7,0.5c0-0.1,0-0.3,0-0.5c0-1.5,1.1-2.5,2.6-2.6c1.7,0,2.8,1.3,2.8,2.8
		c0,0.6-0.2,1.2-0.6,1.7c-0.2,0.2-0.5,0.5-0.8,0.7l-0.5-0.7c0.3-0.1,0.4-0.3,0.6-0.5c0.3-0.3,0.5-0.7,0.5-1.2c0-1.1-0.9-1.9-2-1.9
		c-1.1,0-1.9,0.8-1.9,1.9c0,0.3,0.1,0.8,0.5,1.5l-3.7-1.1l0-3.1L426.9,142.2z"/>
</g>
<g>
	<path class="st1" d="M427.8,259.6l0,4.2l-0.8,0l0-5.7l7.9,5.1l-0.4,0.7L427.8,259.6z"/>
</g>
<g>
	<path class="st1" d="M434.6,257.3l-3.3-2.8c-0.2-0.2-0.8-0.7-1.1-0.9c-0.5-0.3-0.9-0.4-1.2-0.4c-0.9,0-1.5,0.6-1.5,1.5
		c0,0.5,0.2,1,0.7,1.3c0.2,0.1,0.5,0.2,0.9,0.2l0,0.9c-0.8,0-1.2-0.3-1.6-0.6c-0.4-0.3-0.8-0.9-0.8-1.8c0-1.4,1-2.4,2.3-2.4
		c0.5,0,1,0.1,1.7,0.6c0.5,0.3,0.9,0.7,1.3,1l1.8,1.6l0-3.3l0.8,0L434.6,257.3z"/>
</g>
<g>
	<path class="st1" d="M445.6,265.4l0,1.3l-0.8-0.4l0-1.7l7.7,0l0,0.9L445.6,265.4z"/>
</g>
<g>
	<path class="st1" d="M452.4,261.2l-3.3-2.8c-0.2-0.2-0.8-0.7-1.1-0.9c-0.5-0.3-0.9-0.4-1.2-0.4c-0.9,0-1.5,0.6-1.5,1.5
		c0,0.5,0.2,1,0.7,1.3c0.2,0.1,0.5,0.2,0.9,0.2l0,0.9c-0.8,0-1.2-0.3-1.6-0.6c-0.4-0.3-0.8-0.9-0.8-1.8c0-1.4,1-2.4,2.3-2.4
		c0.5,0,1,0.1,1.7,0.6c0.5,0.3,0.9,0.7,1.3,1l1.8,1.6l0-3.3l0.8,0L452.4,261.2z"/>
</g>
<g>
	<path class="st1" d="M445.5,252l0,1.3l-0.8-0.4l0-1.7l7.7,0l0,0.9L445.5,252z"/>
</g>
<g>
	<path class="st1" d="M279.9,529.1c-0.2-0.4-0.2-0.8-0.2-1.2c0.1-0.9,0.8-1.4,1.2-1.6c1.3-0.7,2.4-0.1,2.9,0.9
		c0.2,0.5,0.4,1.3-0.1,2c0.3,0,1.2,0,1.8,1.2c0.6,1.3,0.1,2.5-1.1,3.1c-0.7,0.4-1.7,0.5-2.5-0.2c-0.2-0.2-0.4-0.4-0.5-0.6l0.8-0.4
		c0.2,0.2,0.4,0.4,0.6,0.6c0.4,0.2,0.9,0.2,1.3,0c0.8-0.4,1-1.3,0.7-2.1c-0.2-0.4-0.6-0.8-1.3-0.8c-0.3,0-0.6,0.1-0.9,0.2l-0.3-0.7
		c0.3-0.1,0.6-0.3,0.7-0.5c0.2-0.2,0.4-0.7,0.1-1.3c-0.3-0.6-0.9-1-1.8-0.6c-0.3,0.1-0.6,0.4-0.7,0.8c0,0.2,0,0.6,0.1,0.9
		L279.9,529.1z"/>
</g>
<g>
	<g>
		<path class="st1" d="M42.1,369.3v1.5l-0.9-0.5v-2h8.9v1H42.1z"/>
		<path class="st1" d="M49,363.7c-0.9,0.6-2,0.9-3.3,0.9c-1.3,0-2.4-0.3-3.3-0.9c-1-0.7-1.3-1.6-1.3-2.3c0-0.7,0.3-1.6,1.3-2.3
			c0.9-0.6,2-0.9,3.3-0.9c1.3,0,2.4,0.3,3.3,0.9c1,0.7,1.3,1.6,1.3,2.3C50.3,362.2,50,363.1,49,363.7z M43,363
			c0.8,0.5,1.8,0.7,2.7,0.7s2-0.2,2.7-0.7c0.8-0.5,1-1.1,1-1.5s-0.2-1.1-1-1.5c-0.8-0.5-1.8-0.7-2.7-0.7s-2,0.2-2.7,0.7
			c-0.8,0.5-1,1.1-1,1.5S42.2,362.5,43,363z"/>
		<path class="st1" d="M49,356.1c-0.9,0.6-2,0.9-3.3,0.9c-1.3,0-2.4-0.3-3.3-0.9c-1-0.7-1.3-1.6-1.3-2.3c0-0.7,0.3-1.6,1.3-2.3
			c0.9-0.6,2-0.9,3.3-0.9c1.3,0,2.4,0.3,3.3,0.9c1,0.7,1.3,1.6,1.3,2.3C50.3,354.5,50,355.4,49,356.1z M43,355.4
			c0.8,0.5,1.8,0.7,2.7,0.7s2-0.2,2.7-0.7c0.8-0.5,1-1.1,1-1.5s-0.2-1.1-1-1.5c-0.8-0.5-1.8-0.7-2.7-0.7s-2,0.2-2.7,0.7
			c-0.8,0.5-1,1.1-1,1.5S42.2,354.9,43,355.4z"/>
	</g>
</g>
<g>
	<path class="st1" d="M135.7,244.5c-0.2-0.4-0.3-0.9-0.3-1.4c0.1-1.1,0.8-1.7,1.3-1.9c1.5-0.8,2.8-0.2,3.4,0.9
		c0.3,0.6,0.5,1.5,0,2.3c0.3,0,1.4-0.1,2.2,1.3c0.8,1.5,0.2,3-1.1,3.7c-0.8,0.4-1.9,0.6-2.9-0.1c-0.3-0.2-0.5-0.4-0.6-0.7l0.9-0.5
		c0.2,0.3,0.4,0.5,0.7,0.6c0.5,0.2,1,0.2,1.5-0.1c0.9-0.5,1.1-1.6,0.7-2.4c-0.2-0.4-0.8-0.9-1.5-0.9c-0.3,0-0.7,0.1-1,0.3l-0.4-0.8
		c0.3-0.1,0.6-0.4,0.8-0.7c0.2-0.3,0.4-0.8,0-1.5c-0.4-0.7-1.1-1.1-2.1-0.6c-0.3,0.2-0.7,0.4-0.8,1c0,0.3,0,0.6,0.1,1L135.7,244.5z"
		/>
</g>
<g>
	<path class="st1" d="M126.8,385.5c-0.5,0-1-0.2-1.3-0.4c-0.9-0.6-1-1.5-1-2.1c0-1.7,1.2-2.5,2.4-2.5c0.6,0,1.5,0.2,2,1.2
		c0.1-0.3,0.6-1.3,2.2-1.3c1.7,0,2.7,1.2,2.7,2.7c0,0.9-0.4,2-1.5,2.5c-0.3,0.1-0.6,0.2-0.9,0.2v-1c0.3,0,0.7-0.1,0.9-0.3
		c0.4-0.3,0.7-0.8,0.7-1.4c0-1-0.8-1.8-1.8-1.8c-0.5,0-1.2,0.2-1.5,0.9c-0.1,0.3-0.2,0.7-0.2,1h-0.9c0-0.3,0-0.7-0.2-1
		c-0.1-0.3-0.5-0.8-1.3-0.8c-0.8,0-1.5,0.4-1.5,1.5c0,0.4,0.1,0.8,0.5,1.2c0.2,0.2,0.6,0.3,0.9,0.3V385.5z"/>
	<path class="st1" d="M132.3,377.5c-0.9,0.6-2,0.9-3.3,0.9c-1.3,0-2.4-0.3-3.3-0.9c-1-0.7-1.3-1.6-1.3-2.3c0-0.7,0.3-1.6,1.3-2.3
		c0.9-0.6,2-0.9,3.3-0.9c1.3,0,2.4,0.3,3.3,0.9c1,0.7,1.3,1.6,1.3,2.3C133.7,375.9,133.3,376.8,132.3,377.5z M126.3,376.7
		c0.8,0.5,1.8,0.7,2.7,0.7c0.9,0,2-0.2,2.7-0.7c0.8-0.5,1-1.1,1-1.5s-0.2-1.1-1-1.5c-0.8-0.5-1.8-0.7-2.7-0.7c-0.9,0-2,0.2-2.7,0.7
		c-0.8,0.5-1,1.1-1,1.5S125.6,376.3,126.3,376.7z"/>
</g>
<g>
	<path class="st1" d="M128,418.8l-1.4-0.6l0.9-0.6l1.8,0.8l-3.8,8.1l-0.9-0.4L128,418.8z"/>
</g>
<g>
	<path class="st1" d="M137.6,423.3l-2.6-1.2l-1.3,1.5c0.2,0,0.3,0.1,0.5,0.2c1.6,0.8,2.1,2.5,1.3,4.1c-0.9,1.8-2.7,2.3-4.3,1.5
		c-0.7-0.3-1.2-0.8-1.5-1.5c-0.2-0.3-0.3-0.7-0.3-1.2l1-0.2c0,0.3,0.1,0.6,0.2,0.9c0.2,0.4,0.5,0.8,1.1,1.1c1.1,0.5,2.4,0,3-1.1
		c0.6-1.2,0.1-2.4-1-2.9c-0.3-0.1-0.9-0.3-1.8-0.2l3-3.3l3.2,1.5L137.6,423.3z"/>
</g>
<g>
	<path class="st1" d="M113.5,511.7l1,0.4l-0.3,0.8l-1-0.4l-0.6,1.6l-0.9-0.4l0.6-1.6l-4.3-1.7l8-5.2L113.5,511.7z M112.5,511.3
		l1.4-3.7l-4.1,2.7L112.5,511.3z"/>
</g>
<g>
	<path class="st1" d="M116.2,514.3c-0.2-1-0.1-2.2,0.4-3.4c0.5-1.2,1.2-2.2,2-2.7c1-0.7,2-0.7,2.6-0.4c0.7,0.3,1.4,0.9,1.7,2.1
		c0.2,1,0.1,2.2-0.4,3.4c-0.5,1.2-1.2,2.2-2,2.7c-1,0.7-2,0.7-2.6,0.4C117.2,516.1,116.5,515.5,116.2,514.3z M119.1,509
		c-0.7,0.5-1.3,1.4-1.6,2.3c-0.3,0.9-0.5,1.9-0.4,2.8c0.2,0.9,0.7,1.3,1.1,1.5c0.4,0.2,1.1,0.2,1.8-0.4c0.7-0.5,1.3-1.4,1.6-2.3
		c0.3-0.9,0.5-1.9,0.4-2.8c-0.2-0.9-0.7-1.3-1.1-1.5C120.5,508.4,119.8,508.4,119.1,509z"/>
</g>
<g>
	<path class="st1" d="M90.1,220.7c-0.2-0.4-0.3-0.9-0.3-1.4c0.1-1.1,0.8-1.7,1.3-1.9c1.5-0.8,2.8-0.2,3.4,0.9c0.3,0.6,0.5,1.5,0,2.3
		c0.3,0,1.4-0.1,2.2,1.3c0.8,1.5,0.2,3-1.1,3.7c-0.8,0.4-1.9,0.6-2.9-0.1c-0.3-0.2-0.5-0.4-0.6-0.7l0.9-0.5c0.2,0.3,0.4,0.5,0.7,0.6
		c0.5,0.2,1,0.2,1.5-0.1c0.9-0.5,1.1-1.6,0.7-2.4c-0.2-0.4-0.8-0.9-1.5-0.9c-0.3,0-0.7,0.1-1,0.3l-0.4-0.8c0.3-0.1,0.6-0.4,0.8-0.7
		c0.2-0.3,0.4-0.8,0-1.5c-0.4-0.7-1.1-1.1-2.1-0.6c-0.3,0.2-0.7,0.4-0.8,1c0,0.3,0,0.6,0.1,1L90.1,220.7z"/>
	<path class="st1" d="M99.8,221.7c-0.9-0.5-1.8-1.3-2.4-2.4c-0.6-1.1-0.9-2.3-0.8-3.3c0.1-1.2,0.7-1.9,1.4-2.3s1.6-0.5,2.7,0.1
		c0.9,0.5,1.8,1.3,2.4,2.4c0.6,1.1,0.9,2.3,0.8,3.3c-0.1,1.2-0.7,1.9-1.4,2.3S100.8,222.2,99.8,221.7z M97.5,216.1
		c-0.1,0.9,0.3,1.9,0.7,2.7c0.5,0.8,1.1,1.6,1.9,2.1c0.8,0.4,1.4,0.3,1.8,0.1c0.4-0.2,0.8-0.7,0.9-1.6c0.1-0.9-0.3-1.9-0.7-2.7
		c-0.5-0.8-1.1-1.6-1.9-2.1c-0.8-0.4-1.4-0.3-1.8-0.1C98,214.7,97.6,215.2,97.5,216.1z"/>
</g>
<g>
	<path class="st1" d="M104.5,210.2c0.9-0.5,2-0.2,2.5,0.7s0.2,2-0.7,2.5c-0.9,0.5-2,0.2-2.5-0.7
		C103.3,211.8,103.6,210.7,104.5,210.2z M106,212.9c0.5-0.3,0.8-0.9,0.4-1.7c-0.4-0.7-1.2-0.8-1.6-0.5s-0.8,0.9-0.4,1.7
		C104.8,213.1,105.6,213.1,106,212.9z"/>
</g>
<g>
	<path class="st1" d="M207.4,280.4l-1.3,0.4l0.2-1l1.7-0.5l2.1,7.9l-0.9,0.2L207.4,280.4z"/>
	<path class="st1" d="M218.1,282.8c0.3,1.2-0.2,2.5-1.8,3c-1.6,0.4-2.7-0.4-3.1-1.7c-0.2-0.9,0-1.7,0.7-2.3
		c-0.7-0.2-1.2-0.7-1.4-1.5c-0.3-1.1,0.2-2.4,1.6-2.8c1.4-0.4,2.5,0.5,2.8,1.6c0.2,0.7,0,1.5-0.5,2
		C217.3,281.3,217.8,281.9,218.1,282.8z M216,279.4c-0.2-0.9-1-1.2-1.7-1c-0.7,0.2-1.2,0.9-1,1.8c0.2,0.8,1,1.2,1.7,1
		S216.2,280.2,216,279.4z M217.2,283c-0.2-0.9-1-1.3-2-1.1s-1.4,1-1.1,1.9c0.2,0.9,1,1.4,2,1.1C217,284.7,217.4,283.9,217.2,283z"/>
	<path class="st1" d="M220.6,283.2l0.9,0.1l-0.5,3l-0.6-0.1L220.6,283.2z"/>
	<path class="st1" d="M226.6,275.2l-2.5,0.7l0,1.8c0.1-0.1,0.3-0.1,0.5-0.2c1.6-0.4,2.9,0.5,3.4,2c0.5,1.8-0.6,3.2-2.1,3.6
		c-0.6,0.2-1.3,0.2-1.9-0.1c-0.3-0.1-0.6-0.4-0.9-0.6l0.6-0.7c0.2,0.2,0.4,0.4,0.7,0.5c0.4,0.2,0.9,0.3,1.4,0.1
		c1.1-0.3,1.7-1.4,1.4-2.6c-0.3-1.1-1.3-1.7-2.5-1.4c-0.3,0.1-0.8,0.3-1.4,1l0.1-4.1l3.1-0.9L226.6,275.2z"/>
</g>
</svg>
