<?xml version="1.0" encoding="utf-8"?>
<!-- Generator: Adobe Illustrator 23.0.3, SVG Export Plug-In . SVG Version: 6.00 Build 0)  -->
<svg version="1.1" id="Слой_1" xmlns="http://www.w3.org/2000/svg" xmlns:xlink="http://www.w3.org/1999/xlink" x="0px" y="0px"
	 viewBox="0 0 500 600" style="enable-background:new 0 0 500 600;" xml:space="preserve">
<style type="text/css">
	.st0{fill:none;stroke:#538FC1;stroke-width:0.7828;stroke-linecap:round;stroke-linejoin:round;stroke-miterlimit:10;}
	.st1{fill:#4E86B9;}
	.st2{fill:none;stroke:#4E86B9;stroke-width:0.6452;stroke-linecap:round;stroke-linejoin:round;stroke-miterlimit:10;}
	
		.st3{fill:none;stroke:#4E86B9;stroke-width:0.6452;stroke-linecap:round;stroke-linejoin:round;stroke-miterlimit:10;stroke-dasharray:4.4128,4.4128;}
</style>
<path class="st0" d="M251.5,362.8l0.7-0.2l0.9-0.3 M253.3,368.6l1.4-1.2 M255.8,365.6l-0.3,0.2l-0.6,0.3 M255.9,366.1l-1,0.1
	 M254.6,367.1V367l0.1-0.1v-0.1l0.1-0.1v-0.1l0.1-0.1v-0.2 M254.6,367.1l0.4,1.4 M255,368.5l-1.8,0.1 M253.3,368.6l-0.4-1.5
	 M252,366.2l0.1,0.1l0.1,0.1l0.1,0.2l0.1,0.1l0.1,0.1l0.1,0.1h0.1l0.1,0.1 M252,366.2h-1.1 M250.9,366.2l-0.7-2.5 M250.2,363.7h1
	 M251.5,362.8v0.1l-0.1,0.1v0.1l-0.1,0.1v0.1l-0.1,0.1v0.2 M251.5,362.8l-0.4-1.5 M251.1,361.3h1.7 M252.8,361.3l0.4,1.5
	 M254.2,363.7l-0.1-0.1l-0.1-0.2v-0.1l-0.2-0.1l-0.1-0.1l-0.1-0.1l-0.1-0.1h-0.1 M254.2,363.7h1.1 M255.2,363.7l0.7,2.4
	 M257.8,364.9l-0.9-2.1l-1.2-1.9l-1.4-1.5l-1.6-1l-1.5-0.2l-1.4,0.3l-1,1L248,361l-0.1,1.9l0.4,2.1l0.9,2.1l1.2,1.9l1.4,1.5l1.6,0.9
	l1.5,0.3l1.4-0.3l1-1l0.7-1.5l0.1-1.9L257.8,364.9z M296.2,436.7l-6-3.6 M294.5,435.3L294,435l-3.6-1.9l-0.2-0.1 M292.6,433.2
	l1.5,0.7l0.5,0.2 M290.5,432.4l1.7,0.7 M291,436.4l1.5,0.8l0.5,0.3 M292.1,437.8l-0.6-0.3l-0.8-0.6 M296.5,431.2l-2.1,0.1
	 M290.4,440.6l-1-1.6 M290.6,432.3l1.3,0.7l0.5,0.3 M294.6,439l-1.5-1.5 M292.1,437.8h0.4l0.1-0.1h0.1l0.1-0.1h0.1l0.1-0.1
	 M292.1,437.8l-1.8,2.9 M290.4,440.6l-1.2-1.2 M289.2,439.4l1.8-2.7 M291,435.5v0.3l-0.1,0.1v0.8 M291,435.5l-1.5-1.5 M289.5,434
	l1.4-2.2 M290.9,431.8l1.5,1.5 M293.4,432.9h-0.2l-0.1,0.1H293l-0.1,0.1h-0.1l-0.1,0.1l-0.2,0.1 M293.4,432.9l1.9-2.8 M295.3,430
	l1.2,1.2 M296.5,431.2l-1.9,2.9 M294.5,435.3l0.1-0.2v-1 M294.5,435.3l1.6,1.4 M296.2,436.7l-1.5,2.3 M297.3,439.7l1.2-2.4l0.9-2.4
	l0.3-2.4l-0.2-2.2l-0.5-1.9l-1.1-1.3l-1.5-0.7h-1.8l-1.9,0.7l-1.8,1.2l-1.8,1.8l-1.4,2.2l-1.1,2.4l-0.5,2.5l-0.1,2.3l0.4,2.1
	l0.9,1.5l1.2,1l1.6,0.4l1.9-0.3l1.9-1l1.8-1.5L297.3,439.7z M384.6,420.7l-6.6-2.5 M381.6,421.3l-0.5-0.3l-3.2-2.1 M378,418.3
	l0.1,0.1l3.7,1.8l0.7,0.2 M383.4,418l-0.7-0.3l-1.5-0.8 M381.6,416.3l0.9,0.4l0.7,0.2 M380.5,424.4l-1.1-1.7 M384.2,413.8l-1.9,0.2
	 M379.6,420.1l-0.5-0.2l-1.3-0.8 M384.2,413.8l-1.1,3.2 M383.4,418l-0.1-0.2v-0.3l-0.1-0.1v-0.1l-0.1-0.1V417 M383.4,418l2.1,0.2
	 M385.5,418.2l-0.9,2.5 M384.6,420.7l-2.1-0.3 M381.6,421.3l0.2-0.1l0.1-0.1h0.1l0.1-0.1l0.1-0.1l0.1-0.1l0.1-0.1l0.1-0.2
	 M381.6,421.3l-1.1,3.2 M380.5,424.4l-1.6-0.2 M378.8,424.2l1.1-3.2 M379.6,420.1v0.1l0.1,0.2v0.2l0.1,0.1v0.2l0.1,0.1 M379.6,420.1
	l-2.1-0.2 M377.5,419.8l0.9-2.5 M378.4,417.3l2.1,0.3 M381.3,416.8l-0.1,0.1h-0.1L381,417l-0.1,0.1l-0.1,0.1l-0.1,0.1l-0.1,0.1
	l-0.1,0.2 M381.3,416.8l1.1-3.2 M382.4,413.6l1.7,0.2 M384.6,410l-1.7,0.1l-1.9,0.8l-1.9,1.4l-1.6,1.9l-1.4,2.3l-0.9,2.4l-0.5,2.5
	v2.3l0.5,1.9l1,1.5l1.4,0.8l1.7,0.2l1.9-0.4l1.9-1.1l1.7-1.6l1.5-2.2l1.1-2.3l0.8-2.5l0.2-2.4l-0.2-2.1l-0.8-1.8l-1.2-1.1L384.6,410
	z M300,228.2l-5.8-1.8 M293.5,226.6l3.6,1.6l0.5,0.3 M296.9,229.5l-0.7-0.4L293,227l-0.2-0.1 M298.3,226l-0.6-0.3l-1.5-0.7
	 M296.2,232.6l-1.3-1.7 M296.3,224.6l1,0.3l0.5,0.2 M298.6,222.1l-1.9,0.2 M294.6,228.9l-0.5-0.3l-1.5-0.9 M303.1,226.7l0.2-2.4
	l-0.1-2.2l-0.8-1.8l-1.1-1.3l-1.5-0.5H298l-1.9,0.8l-1.8,1.3l-1.8,1.8l-1.4,2.3l-1,2.4l-0.5,2.4l-0.1,2.3l0.5,2.1l0.9,1.4l1.3,1
	l1.6,0.3l1.9-0.4l1.9-1l1.8-1.5l1.5-2.1l1.2-2.3L303.1,226.7z M300,228.2l-2.3,0.3 M296.9,229.5l0.1-0.1l0.1-0.1l0.1-0.1l0.1-0.1
	l0.1-0.2l0.1-0.1v-0.1l0.1-0.1 M296.9,229.5l-0.8,3.1 M296.2,232.6l-1.8,0.2 M294.4,232.8l0.7-3.1 M294.6,228.9v0.1l0.1,0.1v0.1
	l0.1,0.1v0.1l0.1,0.1v0.1l0.1,0.1 M294.6,228.9l-2.3,0.2 M292.3,229.1l0.5-2.4 M292.9,226.7l2.3-0.3 M296.1,225.4l-0.1,0.1l-0.1,0.1
	l-0.1,0.1l-0.1,0.1l-0.1,0.2l-0.1,0.1l-0.1,0.1l-0.1,0.1 M296.1,225.4l0.7-3.1 M296.7,222.3l1.9-0.2 M298.6,222.1l-0.8,3.1
	 M298.3,226v-0.2l-0.1-0.1v-0.1l-0.1-0.1v-0.1l-0.1-0.1l-0.1-0.1 M298.3,226l2.3-0.2 M300.6,225.8l-0.5,2.4 M403.9,221.8l-6.7-2.5
	 M400.8,222.4l-0.5-0.4l-3.3-2 M397.2,219.5h0.2l3.6,1.8l0.7,0.3 M402.6,219l-0.6-0.2l-1.5-0.8 M400.7,217.5l1,0.3l0.5,0.2
	 M399.7,225.5l-1.2-1.6 M403.3,215l-1.9,0.2 M398.8,221.2l-0.5-0.3l-1.4-0.7 M403.7,211.1l-1.8,0.1L400,212l-1.9,1.4l-1.6,1.9
	l-1.3,2.3l-1,2.4l-0.4,2.4v2.3l0.5,2l1,1.4l1.3,0.9l1.6,0.2l1.9-0.4l1.8-1.2l1.8-1.6l1.5-2.1l1.2-2.4l0.7-2.4l0.2-2.4l-0.2-2.1
	l-0.8-1.8l-1.2-1.2L403.7,211.1z M403.3,215l-1.1,3.1 M402.6,219v-0.2l-0.1-0.1v-0.3l-0.1-0.1v-0.1l-0.1-0.1 M402.6,219l2.1,0.3
	 M404.6,219.3l-0.7,2.4 M403.9,221.8l-2.2-0.2 M400.8,222.4l0.1-0.1l0.1-0.1l0.1-0.1l0.1-0.1l0.1-0.1l0.1-0.1l0.1-0.1l0.1-0.1
	 M400.8,222.4l-1.1,3.1 M399.7,225.5l-1.7-0.1 M398.1,225.4l1-3.2 M398.8,221.2v0.4l0.1,0.1v0.2l0.1,0.1v0.1 M398.8,221.2l-2.2-0.3
	 M396.7,220.9l0.9-2.4 M397.5,218.5l2.1,0.2 M400.6,217.9h-0.1l-0.1,0.1l-0.1,0.1l-0.2,0.1l-0.1,0.1l-0.1,0.1l-0.1,0.1l-0.1,0.1
	 M400.6,217.9l1.1-3.2 M401.7,214.7l1.7,0.2 M378.3,200.6l-1.3,0.8l-1.8,1.5l-0.7,0.7 M413.5,314.1l0.9,0.5l1.4,1.3l1.2,1.8l0.9,2
	l0.3,2v0.8 M427.6,334.6l0.7,0.2l1.5,1.1l1.3,1.5l1,1.9l0.7,2l0.1,2l-0.4,1.5l-0.8,1.2l-0.5,0.2 M425.4,321.3L425.4,321.3l1.3-0.2
	l1.5,0.4 M428.3,321.5l1.5,1l1.3,1.5l1,1.9l0.7,2l0.1,2l-0.4,1.5l-0.8,1.2l-0.5,0.3 M422.6,359.3l-6.6,3.3 M422.6,359.3v-34.7
	 M422.6,324.6l-6.6,3.3 M413.5,320l9.1,4.6 M413.5,321.4l6.3,3.2 M419.9,324.6l-5.1,2.6 M414.7,327.2l-1.2,0.4 M416,362.6l-1.9,0.7
	l-0.7,0.2 M416,362.6v-34.7 M416,327.9l-1.9,0.7l-0.7,0.2 M249.4,224.6v6.7 M249.4,231.3v0.5l0.1,0.2l0.1,0.2l0.1,0.2l0.2,0.1
	l0.1,0.2l0.2,0.1 M250.3,232.9l1.9,0.9 M252.2,233.8l0.1,0.1h0.3l0.2-0.1l0.1-0.1v-0.1l0.1-0.2v-0.2 M253.1,226.5v-0.2L253,226v-0.2
	l-0.1-0.2l-0.2-0.2l-0.1-0.1l-0.2-0.2l-0.1-0.1 M252.2,224.8l-1.9-0.9 M250.3,223.9l-0.2-0.1h-0.3l-0.1,0.1l-0.1,0.1l-0.1,0.1v0.4
	 M253.1,233.1v-6.7 M289.2,205.1h-0.9 M289.2,196.2l-0.9,0.4 M288.4,203.6l0.1,0.1l0.5,0.2h0.1 M288.7,276.6l2.7-1.4 M291.5,275.2
	v-3.3 M288.7,276.6l-0.4-0.2 M288.7,273.2v3.4 M288.7,273.2l-0.4-0.2 M291.5,271.9l-2.7,1.3 M288.3,270.3l3.2,1.6 M288.7,203.8
	l-0.4-0.2 M288.7,203.8l2.7-1.4 M291.5,202.4v-3.3 M288.7,200.4v3.4 M291.5,199.1l-3.2-1.6 M288.7,200.4l-0.4-0.2 M291.5,199.1
	l-2.7,1.3 M306.1,169.5h0.3l0.1,0.1l0.2,0.2l0.1,0.2v0.2 M339.8,431.6l16.5-8.3 M339.8,425.4l16.5-8.2 M259,465.9l1.9-1
	 M390.6,109.3l-113.8,56.9 M257.2,220.4l-6.9,3.5 M252.2,224.8l5.7-2.8 M258.4,223.7l-5.4,2.7 M253.1,233.1l5.5-2.7 M300.7,172.3
	h0.3l0.1,0.1l0.2,0.2l0.1,0.2v0.2 M384.7,110.3l-107.9,54 M351.9,414.3l4.5,2.3 M371.8,404.1l-4-2 M282.7,311v-0.9 M279,317.3
	l0.8-0.5 M340.8,213.8l0.4,0.2 M358.7,179.4l-0.5-0.3 M285.7,438.1l0.4,2.4 M293,426.9l-2.3,1.1 M374.3,421.7l0.4,2.5 M381.6,410.5
	l-2.3,1.1 M289.3,230.2l0.5,2.4 M296.6,219l-2.3,1.1 M376,194.4l1,0.6l1.6,0.5l2,0.2l1.9-0.2 M376.3,194.6l-0.2,1.3l0.4,2l1.2,1.5
	l1.5,0.9l0.4,0.1 M378.3,199.8v0.1l-0.1,2 M381.5,195.6l-0.7,0.4l-1.5,1.9 M379.1,193.5l0.9-1l0.9-0.6 M381.1,198.8l-0.2-0.1
	l-1.1-0.3l-1.2-1l-0.4-1.5l0.1-0.4 M382.4,193.4l-1.2,0.2h-1.6l-1.3-0.3 M422.6,350.5l8.5-4.3 M425.4,321.3l-4.7,2.3 M422.6,337.2
	l8.5-4.3 M252.7,233.8l5.8-2.8 M257.1,220.2l-7.3,3.7 M288.3,203.6l0.3,0.2 M288.3,215l0.9-1.8 M306.1,169.5l-5.5,2.7 M300.7,172.3
	l-0.5,0.3l-0.5,0.8"/>
<path class="st0" d="M279,317.4l-1.2,0.8 M277.8,317.7l0.3-0.1l1.3-0.5l1.3-1.1l1.1-1.6l0.7-1.8 M282.5,312.6l0.2-1.6l-0.3-1.5
	l-0.1-0.2 M354.2,188.2l0.1,6.5 M340.8,193.7l16.1,8 M349.5,202.8l-5.2,2.7 M345.3,186.8l4.2-2.1 M339.4,202.2v-4.1 M344.2,205.6
	l-0.2,0.2l-1.2,1.8l-0.6,1.8 M342.1,209.3l-1.5-3.6l-1.2-3.5 M339.1,200.4v0.3l0.2,0.7l0.1,0.8 M349.5,184.8l-0.6,0.1l-0.7,0.1
	l-0.7,0.2l-0.8,0.3l-0.3,0.2 M349.5,184.8l0.5-0.1l3.3-0.7l3.5-0.3 M356.8,183.7l-1.5,2.1l-1.1,2.4 M354.3,194.6l0.1-0.9l0.2-0.9
	l0.1-0.9V191l-0.1-0.8v-0.8l-0.2-0.8l-0.2-0.7 M354.3,194.6l0.1,0.7l1.1,3.2l1.4,3.3 M356.9,201.7l-3.8,0.4l-3.6,0.7 M344.2,205.6
	l0.6-0.1l0.7-0.2l0.7-0.2l0.7-0.2l0.8-0.4l0.7-0.4l0.7-0.5l0.5-0.5 M349.3,210.5l2.4-1.3l2.2-2l2.2-2.3l1.7-2.9l1.5-3l1-3.2l0.5-3.1
	v-3l-0.4-2.6l-1-2.1l-1.4-1.6l-1.9-1L354,182l-2.2,0.3l-2.4,1.1l-2.4,1.5l-2.2,2.2l-2,2.6l-1.6,2.8l-1.2,3.2l-0.8,3.1l-0.3,3.1
	l0.2,2.7l0.8,2.4l1.2,1.9l1.6,1.4l1.9,0.7h2.3L349.3,210.5z M350.8,179.5l2.6-0.8l2.4-0.1l2.3,0.4l1.9,1.2l1.6,1.8l1.1,2.3l0.8,2.7
	l0.2,3.1l-0.3,3.3l-0.8,3.5l-1.2,3.4l-1.7,3.3l-2.1,3.1l-2.3,2.7l-2.4,2.2l-2.6,1.6l-2.6,1.1l-2.5,0.5l-2.3-0.2l-2.1-0.9l-1.7-1.4
	l-1.4-2.1l-0.9-2.5l-0.5-3l0.1-3.2l0.5-3.4l1-3.4l1.4-3.4l1.9-3.2l2.1-3l2.4-2.4l2.6-2L350.8,179.5z M326.8,185.5l-0.8,1.8l-1.7,4.6
	l-1.1,3.8 M255.5,506.3l-0.1,0.1l-0.6,1.1l-0.2,1.6l0.2,1.9l0.6,1.9l1.1,1.6l1.4,1.3l1.4,0.7l1.3,0.1 M256.9,506.3h-1.3l-1.1,0.5
	l-0.8,1.2l-0.2,1.5 M253.5,509.6l0.2,1.9l0.8,1.9l1.1,1.6l1.3,1.3l1.4,0.8h1.4l1.1-0.5l0.7-1.1 M254.6,457.3h-0.1l-0.8,1.4l-0.2,1.8
	l0.2,2l0.8,2.1l1.1,2l1.4,1.5l1.5,1.1l1.5,0.5h0.6 M261.6,467.9l-0.1,0.3l-0.7,1.3l-1.2,0.8l-1.3,0.2l-1.6-0.4l-1.5-1.1l-1.4-1.6
	l-1.1-1.9l-0.7-2.1l-0.3-2.1l0.3-1.8l0.7-1.3l1.1-0.9l1.4-0.1l1.3,0.3 M255.8,234.3l0.2,1.4l0.5,1.3l1,1.2l1,0.8 M255.8,232.3v2
	 M255.8,218.6v2.3 M255.8,234.3l-2.7,1.4 M253,235.7l0.2,1.3l0.6,1.4l0.9,1.2l1.1,0.8l1.1,0.2l0.9-0.2l0.5-0.9l0.2-1.1 M253,235.7
	h-5.5 M253,233.7v2 M253,219.9v2.3 M255.8,218.3v0.3 M255.8,218.6l-2.7,1.3 M258.5,238.4v-13 M258.5,241.2v-2.7 M253,219.9h-5.5
	 M255.5,217.8l-0.8-0.1l-0.9,0.2l-0.6,0.9l-0.2,1.1 M255.5,152.3l-0.1,0.1l-0.6,1.1l-0.2,1.6l0.2,1.9l0.6,1.9l1.1,1.6l1.4,1.3
	l1.4,0.7l1.3,0.1 M256.9,152.3l-1.3-0.1l-1.1,0.7l-0.8,1.1l-0.2,1.6 M253.5,155.6l0.2,1.9l0.8,1.9l1.1,1.6l1.3,1.3l1.4,0.7l1.4,0.1
	l1.1-0.5l0.7-1.1 M258.5,225.4v15.8 M258.5,241.2l-0.2,1.9l-0.8,1.5l-1.3,0.9l-1.4,0.2l-1.7-0.6l-1.6-1.2l-1.5-1.6l-1.3-2.2
	l-0.8-2.2l-0.2-2.2 M247.6,235.7v-15.8 M247.6,219.9l0.2-1.9l0.8-1.5l1.3-0.9l1.5-0.2l1.6,0.5l1.7,1.2l1.4,1.6l1.3,2.2l0.8,2.2
	l0.2,2.2 M258.1,445.8l-0.2-2l-0.8-2.1l-1.1-2l-1.4-1.5l-1.5-1.1l-1.5-0.4l-1.4,0.1l-1.1,0.9l-0.8,1.3l-0.2,1.7l0.2,2.1l0.8,2.1
	l1.1,1.9l1.4,1.6l1.5,1.1l1.5,0.4l1.4-0.2l1.1-0.8l0.8-1.3L258.1,445.8z M258.1,199.4l-0.2-2l-0.8-2.1l-1.1-2l-1.4-1.5l-1.5-1.1
	l-1.5-0.4l-1.4,0.1l-1.1,0.8l-0.8,1.4l-0.2,1.8l0.2,2.1l0.8,2.1l1.1,1.9l1.4,1.6l1.5,1l1.5,0.6l1.4-0.2l1.1-0.8l0.8-1.4L258.1,199.4
	z M258.1,367.4l-0.2-2l-0.8-2.1l-1.1-2l-1.4-1.5l-1.5-1.1l-1.5-0.4l-1.4,0.1l-1.1,0.9l-0.8,1.3l-0.2,1.7l0.2,2.1l0.8,2.1l1.1,1.9
	l1.4,1.6l1.5,1.1l1.5,0.4l1.4-0.2l1.1-0.8l0.8-1.3L258.1,367.4z M263.4,350.5l1,0.5 M264.4,291.7l-22.8-11.5 M264.4,351.1v-59.4
	 M244.4,509.6l0.2-2.4l0.8-2l1.2-1.5l1.5-1l1.9-0.2l2,0.4l2.2,1l2,1.6l1.9,2.1l1.5,2.5l1.2,2.7l0.8,2.7l0.2,2.7l-0.2,2.4l-0.8,2
	l-1.2,1.5l-1.5,0.9l-1.9,0.3l-2-0.4l-2.2-1l-2-1.6l-1.9-2.2l-1.5-2.4l-1.2-2.7l-0.8-2.7L244.4,509.6z M244.4,155.6l0.2-2.4l0.8-2.1
	l1.2-1.5l1.5-0.9l1.9-0.2l2,0.3l2.2,1.1l2,1.6l1.9,2.1l1.5,2.5l1.2,2.7l0.8,2.7l0.2,2.6l-0.2,2.4l-0.8,2.1l-1.2,1.5l-1.5,0.9
	l-1.9,0.3l-2-0.4l-2.2-1.1l-2-1.6l-1.9-2.1l-1.5-2.5l-1.2-2.6l-0.8-2.8L244.4,155.6z M261.7,470.1l-0.2-2.7l-0.8-2.7l-1.2-2.7
	l-1.5-2.4l-1.9-2.2l-2-1.6l-2.2-1l-2-0.4l-1.9,0.3l-1.5,0.9l-1.2,1.5l-0.8,2l-0.2,2.4l0.2,2.7l0.8,2.7l1.2,2.7l1.5,2.4l1.9,2.2
	l2,1.6l2.2,1l2,0.4l1.9-0.2l1.5-1l1.2-1.5l0.8-2L261.7,470.1z M234.8,282.4V137.3 M234.8,518.2V354.5 M271.3,536.5l-36.6-18.3
	 M234.8,137.3l36.6,18.3 M240.2,134.6l36.6,18.3 M240.2,134.6l-5.5,2.7 M271.3,155.6v380.9 M276.8,533.8l-5.5,2.7 M276.8,152.9
	v380.9 M276.8,152.9l-5.5,2.7 M361.8,446.8l-0.4-0.2 M368.9,405l1.5-0.3l1.9-0.9l1.7-1.5l1.5-2l1.2-2.3l0.8-2.4l0.2-2.3
	 M377.8,393.3l-0.2-2.1l-0.8-1.6l-0.1-0.2 M342.1,443h1.2l2.3-0.4l2.3-1.1l2.2-1.9l2.1-2.3l1.8-2.7l1.3-3.1l0.8-3l0.3-3
	 M356.4,425.6v-29.1 M356.4,425.6l2.7,1.3 M319.6,429.6l1.5-0.2l1.9-1l1.8-1.4l1.5-2l1.2-2.3l0.8-2.4l0.2-2.3 M328.5,418l-0.2-2.1
	l-0.8-1.8l-0.1-0.1 M356.4,396.4l2.1-3.4l1.7-3.7l1.3-3.7l0.9-3.7l0.3-3.7l-0.1-3.4l-0.7-3.1l-1.2-2.6l-1.5-2.1l-1.1-0.9
	 M338.8,406.8l1,0.5 M356.4,396.4l2.7,1.3 M370.5,205.6l7.3-3.6 M377.8,201.9l1.5-1.1l1.4-1.6l1-2.1l0.5-2.1v-2l-0.4-1.4
	 M377.8,201.9l2.7,1.3 M369.2,206l1.3-0.4 M370.5,205.6l2.8,1.4 M359.1,145.2v0.4 M410.7,119.4l-51.6,25.8 M361.8,146.6l-2.7-1.4
	 M413.5,120.8l-2.7-1.4 M278.4,320.2L278.4,320.2l1.5-0.4l1.6-1.1l1.3-1.5l1.2-2l0.7-2.1l0.2-2 M285,311.1l-0.2-1.9l-0.4-1
	 M288.3,281.5l0.9-0.4 M289.2,270.7v-9.3 M289.2,281v-4.6 M289.2,281l2.7,1.4 M315.6,199.4l7.3-3.6 M323,195.8l1.5-1.2l1.4-1.6l1-2
	l0.5-2.1v-2l-0.4-1.4 M323,195.8l2.7,1.3 M314.3,199.9l1.3-0.4 M315.6,199.4l2.7,1.4 M361.8,149.9l-0.4-0.2 M288.3,215.4l0.9-0.4
	 M289.2,197.9v-2.6 M289.2,215v-11.4 M289.2,215l2.7,1.3 M288.3,195.7v22.4 M291.9,194l-3.6,1.8 M291.9,216.3V194 M288.3,218.2
	l3.6-1.9 M287.7,312.4l-0.2-1.8l-0.7-1.4l-1.2-0.8l-1.3-0.1l-1.6,0.4l-1.5,1.1l-1.4,1.5l-1.1,2l-0.7,2.1l-0.2,2l0.2,1.8l0.7,1.4
	l1.1,0.8l1.4,0.2l1.5-0.5l1.6-1l1.3-1.6l1.2-1.9l0.7-2.1L287.7,312.4z M288.3,261.8v22.3 M291.9,260l-3.6,1.9 M291.9,282.4V260
	 M288.3,284.2l3.6-1.8 M388.8,415.4l-0.2-2.2l-0.8-1.8l-1.1-1.3l-1.5-0.7h-1.7l-2,0.7l-1.9,1.2l-1.7,1.8l-1.5,2.2l-1.1,2.4l-0.8,2.6
	l-0.2,2.4l0.2,2.2l0.8,1.7l1.1,1.3l1.5,0.7h1.7l1.9-0.7l2-1.2l1.7-1.8l1.5-2.2l1.1-2.5l0.8-2.5L388.8,415.4z M300.1,431.7l-0.2-2.2
	l-0.8-1.8l-1.1-1.3l-1.5-0.7h-1.7l-2,0.7l-1.9,1.2l-1.8,1.9l-1.5,2.2l-1.2,2.4l-0.6,2.5l-0.2,2.4l0.2,2.2l0.6,1.9l1.2,1.2l1.5,0.7
	h1.8l1.9-0.5l2-1.3l1.7-1.8l1.5-2.2l1.1-2.4l0.8-2.5L300.1,431.7z M408,216.5l-0.3-2.2l-0.6-1.9l-1.2-1.2l-1.5-0.7l-1.8-0.1
	l-1.9,0.7l-1.9,1.3l-1.9,1.8l-1.4,2.2l-1.2,2.4l-0.8,2.5l-0.2,2.5l0.2,2.2l0.8,1.8l1.2,1.3l1.4,0.7h1.9l1.9-0.7l1.9-1.2l1.8-1.9
	l1.5-2.2l1.2-2.4l0.6-2.5L408,216.5z M303.8,223.8l-0.3-2.2l-0.6-1.9l-1.2-1.2l-1.5-0.8h-1.8l-1.9,0.7l-2,1.3l-1.8,1.8l-1.5,2.2
	l-1.1,2.4l-0.8,2.5l-0.2,2.4l0.2,2.2l0.8,1.9l1.1,1.2l1.5,0.8h1.8l2-0.7l1.9-1.3l1.8-1.8l1.5-2.2l1.2-2.4l0.6-2.5L303.8,223.8z
	 M358.1,179.1l-0.6-0.2l-2.3-0.6l-2.4,0.2l-2.6,0.9l-2.6,1.4l-2.5,2l-2.4,2.5l-2.1,3l-1.8,3.2l-1.4,3.4l-1,3.5l-0.5,3.4v3.2l0.5,2.8
	l1,2.5l1.4,2l1.8,1.4l0.3,0.1 M339.8,436.5l0.4,2.6l0.7,2.3l1.3,1.7l1.7,1l2.1,0.3l2.3-0.4l2.3-1.2l2.2-1.8l2.1-2.4l1.7-2.7l1.3-2.9
	l0.7-3.1l0.3-3 M339.8,407.4v29.1 M359.1,397.8l2.1-3.4l1.7-3.6l1.3-3.7l0.9-3.8l0.3-3.6l-0.1-3.4l-0.6-3.1l-1.2-2.6l-1.5-2.1
	l-2-1.5l-2.3-0.9l-2.6-0.2l-2.7,0.4l-2.9,1.1l-2.8,1.8l-2.7,2.3l-2.5,2.7l-2.4,3.2l-2,3.5l-1.5,3.7l-1.2,3.7l-0.6,3.8l-0.1,3.5
	l0.3,3.3l0.9,3l1.3,2.4l1.7,1.9l2.1,1.3 M359.1,426.9v-29.1 M380.5,394.7l-0.2-2.1l-0.8-1.8l-1.2-1l-1.5-0.4l-1.8,0.2l-1.8,0.9
	l-1.8,1.5l-1.5,2l-1.2,2.3l-0.7,2.4l-0.3,2.3l0.3,2.1l0.7,1.6l1.2,1.1l1.5,0.4l1.8-0.2l1.8-1l1.8-1.4l1.5-2l1.2-2.3l0.8-2.4
	L380.5,394.7z M331.2,419.3l-0.2-2.1l-0.8-1.6l-1.2-1.1l-1.5-0.4l-1.8,0.2l-1.9,1l-1.8,1.4l-1.5,2l-1.2,2.3l-0.7,2.4l-0.3,2.4l0.3,2
	l0.7,1.8l1.2,1.1l1.5,0.4l1.8-0.3l1.9-0.9l1.8-1.5l1.5-2l1.2-2.3l0.8-2.4L331.2,419.3z M318.4,189.6l-1.5,1.2l-1.4,1.6l-1,2
	l-0.5,2.1v2l0.5,1.5l1,1l1.4,0.3l1.5-0.4 M325.7,186l-7.3,3.6 M325.7,197.1l1.5-1.1l1.4-1.6l1-2l0.5-2.2v-1.9l-0.5-1.6l-1-1
	l-1.4-0.2l-1.5,0.4 M318.4,200.9l7.3-3.7 M380.5,203.3l1.5-1.1l1.4-1.6l1-2l0.5-2.1v-2l-0.5-1.5l-1-1l-1.4-0.3l-1.5,0.4 M373.2,207
	l7.3-3.7 M373.2,195.8l-1.5,1.1l-1.4,1.6l-1,2l-0.5,2.1v2l0.5,1.5l1,1l1.4,0.3l1.5-0.4 M380.5,192.1l-7.3,3.7 M276.8,489.3
	l47.5-23.8 M324.3,465.5v-3.4 M324.3,462.1l37.5-18.7 M361.8,443.4v3.4 M361.8,446.8l51.7-25.8 M413.5,421V120.8 M413.5,120.8
	l-51.7,25.8 M361.8,146.6v3.3 M361.8,149.9l-37.5,18.8 M324.3,168.8v-3.4 M321.6,163.9l-44.8,22.4 M324.3,165.4l-47.5,23.8
	 M324.3,165.4l-2.7-1.4 M371.6,391.9l6.1,3 M356.8,384.5l4.4,2.2 M356.8,384.5v-18.7 M254.6,196.5l-2.2,1.2l-0.6,0.3 M251.3,196.8
	l0.7-0.3l2.3-0.9 M251.6,199.3l3.2-2.3 M250.2,195.9l4.3-1.2 M253.7,199.4l0.5-0.3l1.6-1 M252.1,194.5l-0.4,0.2 M255.9,198.3
	l-0.9,0.4l-0.5,0.3 M252.4,194.4l0.7-0.2l0.6-0.2 M252.1,202.6l1.6,0.9l1.5,0.2l1.3-0.4l1-1.1l0.5-1.5v-2l-0.4-2.1l-0.9-2.1
	l-1.2-1.9l-1.5-1.4l-1.6-0.9l-1.5-0.2l-1.3,0.4l-1,1.1l-0.6,1.5v2l0.4,2.1l0.9,2.1l1.2,1.9L252.1,202.6z M251.6,199.3l0.2-1.3
	 M251.3,196.8v0.1l0.1,0.2v0.1l0.1,0.2v0.1l0.1,0.2l0.1,0.1l0.1,0.1 M251.3,196.8l-1.1-0.9 M250.2,195.9l0.3-2.1 M250.5,193.8
	l1.1,0.9 M252.4,194.4h-0.1l-0.1,0.1H252l-0.1,0.1h-0.1l-0.1,0.1 M252.4,194.4l0.2-1.2 M252.6,193.2l1.9,1.4 M254.5,194.6l-0.2,1.2
	 M254.8,197v-0.1l-0.1-0.2v-0.1l-0.1-0.1v-0.2l-0.1-0.1l-0.1-0.2l-0.1-0.1 M254.8,197l1.1,0.9 M255.9,197.9l-0.3,2.1 M255.6,200
	l-1.1-0.9 M253.7,199.4h0.3l0.1-0.1h0.1l0.1-0.1l0.1-0.1 M253.7,199.4l-0.2,1.2 M253.5,200.6l-1.9-1.3 M251.4,443.7l0.7-0.3l2.3-1
	 M254.9,443.2l-2.2,1.3l-0.7,0.3 M250.3,443.1l3.7-1.2 M252.1,446.3l3.6-2.7 M253.8,440.3l-1.7,0.8l-0.7,0.2 M254,445.8l0.4-0.2
	 M252.1,440.9l0.7-0.2l0.9-0.4 M255.8,444.6l-0.5,0.3l-0.5,0.3 M258.2,445.9l-0.2-2.1l-0.8-2.1l-1.1-2l-1.5-1.6l-1.5-1.1l-1.5-0.4
	l-1.4,0.1l-1.2,0.9l-0.7,1.3l-0.3,1.9l0.3,2.1l0.7,2.1l1.2,2l1.4,1.6l1.5,1.1l1.5,0.4l1.5-0.1l1.1-0.9l0.8-1.4L258.2,445.9z
	 M255.8,445.9l-1.1-0.7 M254,445.8h0.1v-0.1h0.1l0.1-0.1h0.1l0.1-0.1v-0.1l0.1-0.1 M254,445.8v1.3 M254,447.1l-2-0.9 M252.1,446.3
	v-1.4 M251.4,443.7l0.1,0.1v0.1l0.1,0.2l0.1,0.1l0.1,0.2l0.1,0.1v0.1l0.1,0.1 M251.4,443.7l-1.1-0.6 M250.3,443.1v-2.3 M250.3,440.8
	l1.1,0.5 M252.1,440.9H252v0.1h-0.1l-0.1,0.1h-0.1l-0.1,0.1v0.1h-0.1 M252.1,440.9v-1.4 M252.1,439.5l2,1 M254,440.5v1.4 M254.7,443
	l-0.1-0.1v-0.2l-0.1-0.1l-0.1-0.1l-0.1-0.2l-0.1-0.1V442l-0.1-0.1 M254.7,443l1.1,0.5 M255.8,443.5v2.4 M250.9,366.2l4.6-1.9
	 M251.9,366.2l0.5-0.3l3-1.3 M255.7,365.3l-2.3,1.4l-0.6,0.3 M253.3,362.7l-1.4,0.8l-0.7,0.2"/>
<g>
	<path class="st0" d="M368.6,222.3l-25.3,12.9 M399.5,206.9l-30.8,15.4 M342.1,209l29.2,14.7 M356.9,201.5l29.3,14.7 M234.5,137.4
		l-54.4-27.2 M234.5,518.3L180.1,491 M182.4,114.1v373.3 M271.1,155.7v-49.9 M234.5,137.4V87.5 M267,107.1l-29.4-14.7 M277,153
		v-48.2 M413.6,120.8V32.4 M281,106l130.3-69.1 M413.6,120.8l25.9-12.8 M350.1,196.8l89.8-44.9 M436.7,113.9l0.4,32.7 M413.6,120.9
		L457.4,99 M413.6,421.1l43.8-21.9 M454.7,105.3v289.8 M350.1,196.8V88.9 M277,153v-23.9 M347.2,93.8l-67.2,37 M271.5,551.5l5.5-2.7
		 M271.5,551.5l-14.1,7.1 M276.8,533.4v18.9 M277,548.8l19.4-9.7 M271.5,536.6v18.2 M200,265.2v-139 M234.5,137.4l-35.4-17.6
		 M437.2,338.3l-0.1-179.7 M416.6,97.3l17.5,10.4 M349.7,387l90.4-45.2 M384,110.7l33.7-16.9 M343.3,392.2l1.5-0.3l1.9-0.9l1.7-1.5
		l1.5-2l1.2-2.3l0.8-2.4l0.2-2.3 M352.2,380.4l-0.2-2.1l-0.8-1.6l-0.1-0.1 M320.7,429.5l1.6-0.9l2.2-1.9l2-2.1 M324.8,465.3
		l-0.5-0.2 M361.4,447l-36.6,18.3 M324.8,465.3v-3.4 M361.4,447v-3.4 M361.4,443.6l-36.6,18.3 M256.4,457.6l-0.2,1.4l0.3,2.1
		l0.7,2.1l1.1,1.9l1.4,1.6l1.5,1.1 M261.2,467.8l0.3,0.1 M254.5,457.3h-0.1l-0.8,1.4l-0.2,1.8l0.2,2l0.8,2.1l1.1,2l1.4,1.5l1.5,1.1
		 M258.5,469.1l1.5,0.5h0.6 M324.8,168.4l36.6-18.3 M361.4,146.8v3.3 M324.3,168.2l0.5,0.2 M324.8,165.1v3.3 M258.5,237.2l-1.3,0.7
		 M355,381.9l-0.2-2.1l-0.8-1.6l-1.2-1.1l-1.5-0.4l-1.8,0.2l-1.9,0.9l-1.7,1.5l-1.5,2l-1.1,2.3l-0.8,2.4l-0.3,2.3l0.3,2.1l0.8,1.6
		l1.1,1.1l1.5,0.4l1.7-0.2l1.9-0.9l1.8-1.5l1.5-2l1.2-2.3l0.8-2.4L355,381.9z M384.8,110.4l2.3-0.9l3.5-0.2 M256.6,231.8v5.4
		 M256.6,219.5v1 M322.1,163.7v0.4 M300.2,172.7l-0.1-0.2l-0.4-0.3L299,172l-0.8-0.1l-0.7,0.1l-0.7,0.1l-0.4,0.3l-0.1,0.4l0.1,0.3
		l0.4,0.3l0.7,0.2l0.7,0.1l0.8-0.1l0.6-0.2 M299.7,173.6l0.1-0.1 M358.7,145.4l52.1-26.1 M390.6,109.3l20.1,10.1 M276.8,186.4
		l45.3-22.7 M322.1,163.7l2.7,1.4 M324.8,165.1l36.6-18.3 M361.4,146.8l-2.7-1.4 M356.4,398.2L355,399l-1.8,1.5l-1.5,2l-1.2,2.2
		l-0.8,2.4l-0.2,2.4l0.2,2.1l0.8,1.6l1.2,1.1h0.2 M277.9,318.8L277.9,318.8l1.5-0.5l1.4-1.2l1.3-1.6l0.9-2l0.4-2v-1.9l-0.2-1
		 M210.3,356l-1.8-0.9 M284.2,314.7l-0.3,0.7l-0.7,1.2l-0.8,1l-0.9,1l-0.9,0.8l-0.8,0.4 M264.4,350l-15.1,3.6 M264.4,291.8
		l-14.7,3.3 M210.3,356l39-2.5 M249.3,295.3v58.3 M278.6,313.4l2.2,1.1 M280.8,310.2l1,0.5 M277.8,316.4l0.2,0.2 M281.8,310.8
		L281,310 M280.8,314.5l1-3.7 M278,316.6l2.9-2.1 M282.6,308.9l0.1,1.2"/>
</g>
<polygon class="st1" points="277.1,108.2 285.2,101.7 284,104.3 286.8,104.7 "/>
<polygon class="st1" points="182.3,492.5 184,482.3 182.3,484.6 180.6,482.3 "/>
<polygon class="st1" points="182.3,111.2 184,121.4 182.3,119.1 180.6,121.4 "/>
<polygon class="st1" points="199.9,120.5 201.6,130.7 199.9,128.4 198.2,130.7 "/>
<polygon class="st1" points="199.9,264.5 198.2,254.3 199.9,256.6 201.6,254.3 "/>
<polygon class="st1" points="234.6,90.8 244.5,94 241.7,94.4 242.9,97 "/>
<polygon class="st1" points="270.9,109.2 261.1,106 263.9,105.5 262.7,102.9 "/>
<polygon class="st1" points="276.8,132.6 284.8,126.1 283.6,128.7 286.5,129.1 "/>
<polygon class="st1" points="350.1,92.1 342,98.5 343.2,95.9 340.4,95.5 "/>
<polygon class="st1" points="413.5,35.6 405.3,42 406.5,39.4 403.7,39 "/>
<polygon class="st1" points="414.1,95.8 423.8,99.5 420.9,99.8 422,102.4 "/>
<polygon class="st1" points="436.6,109 426.9,105.4 429.8,105.1 428.6,102.4 "/>
<polygon class="st1" points="454.8,100.4 456.5,110.6 454.8,108.3 453.1,110.6 "/>
<polygon class="st1" points="436.9,109.2 438.5,119.4 436.8,117.1 435.1,119.4 "/>
<polygon class="st1" points="437.3,153.5 438.9,163.7 437.3,161.4 435.5,163.7 "/>
<polygon class="st1" points="437.3,153.2 438.9,143 437.2,145.3 435.5,143 "/>
<polygon class="st1" points="368.8,222 360.5,228.2 361.8,225.6 358.9,225.2 "/>
<polygon class="st1" points="383.6,214.7 392.1,208.8 390.7,211.3 393.5,211.9 "/>
<polygon class="st1" points="437.4,343.1 439,332.9 437.3,335.2 435.6,332.9 "/>
<polygon class="st1" points="454.8,400.5 456.5,390.3 454.8,392.6 453.1,390.3 "/>
<polygon class="st1" points="261.3,554.2 264,554.8 262.6,557.3 271.3,551.6 "/>
<polygon class="st1" points="277,548.9 285.5,543 284.1,545.6 286.9,546.1 "/>
<path class="st0" d="M234.1,282.2L197,263.5 M234.2,339L197,320.3 M208.5,262.6v-139 M200,314.9v-49.8 M212.6,265.1l24.9-7.3
	 M208.5,291.5V355 M208.5,289.4v-26.9 M208.5,353v-63.6 M210.4,356v-63.6 M240.8,280.3l-32.3,11.1 M208.5,291.5l1.9,1 M210.4,292.4
	l38.7,2.9"/>
<polygon class="st1" points="199.9,265.5 201.6,275.7 199.9,273.4 198.2,275.7 "/>
<polygon class="st1" points="199.9,321.8 198.2,311.6 199.9,313.9 201.6,311.6 "/>
<polygon class="st1" points="241.1,256.7 231.8,261.1 233.5,258.9 230.8,257.8 "/>
<polygon class="st1" points="208.4,266.4 217.7,261.8 216,264.1 218.7,265.1 "/>
<g>
	<path class="st0" d="M241.2,280.4v-25.7 M264.3,317.4c-2.6,0-4.7,3-4.7,6.6c0,3.7,2.1,6.6,4.7,6.6V317.4z"/>
</g>
<path class="st2" d="M79.2,434.2v34.1 M156,463.6v34.2 M79.2,465.2l76.8,29.4 M79.2,219.9l-28-13.9 M79.2,433.8l-28-13.7
	 M128.6,230.4l-5.2,2.6 M136.1,314.7v60 M142.8,382.3V406 M142.8,402.7l-26.1-13.1 M116.7,369.1v23.8 M123.4,233l-13,6.2
	 M128.6,230.4l18.9-9.4 M58.6,209.6v214 M110.4,221.5l50.9,25.5 M161.3,247l-5.2,2.6 M105.1,224.1l51,25.5 M156.1,249.6v213.9
	 M156.1,463.5l-51-25.4 M130,262.7l-0.9-0.5l-0.8-0.8l-0.7-0.9l-0.6-1l-0.4-1.1l-0.3-1.2l-0.1-1.2l0.1-1l0.3-0.8l0.4-0.6l0.6-0.5
	l0.7-0.2l0.8,0.1l0.9,0.3l0.8,0.5l0.8,0.8l0.7,0.9l0.6,1.1l0.4,1.1l0.3,1.1l0.1,1.2l-0.1,1.1l-0.3,0.8l-0.4,0.6l-0.6,0.5l-0.7,0.2
	l-0.8-0.1L130,262.7z M130,433.9l-0.9-0.6l-0.8-0.7l-0.7-0.9l-0.6-1l-0.4-1.1l-0.3-1.3l-0.1-1l0.1-1l0.3-0.8l0.4-0.7l0.6-0.4
	l0.7-0.2h0.8l0.9,0.4l0.8,0.5l0.8,0.7l0.7,0.9l0.6,1.1l0.4,1.1l0.3,1.2l0.1,1.1l-0.1,1l-0.3,0.8l-0.4,0.7l-0.6,0.4l-0.7,0.2h-0.8
	L130,433.9z M143,382.1L116.8,369 M143,317.9v64.2 M116.8,304.9l26.3,13.1 M116.8,369v-64.1 M161.3,247v213.9 M161.3,460.9l-5.2,2.6
	 M127.9,252.8l-0.1,0.1l-0.5,0.7l-0.3,0.8l-0.1,1l0.1,1.2l0.3,1.2l0.5,1.2l0.5,1l0.8,0.9l0.8,0.7l0.8,0.6l0.8,0.3h1.2 M79.3,220.1
	v214 M101.8,223.2l-22.5-3 M79.3,434.1l22.5,2.9 M81.3,216.6l-2,3.6 M103.7,219.5l-22.4-2.9 M110.4,221.5l-0.7-0.3l-0.7-0.3
	l-0.8-0.3l-0.8-0.2l-0.8-0.3l-0.8-0.2l-0.9-0.1l-0.9-0.2 M105.1,224.1l-0.3-0.2l-0.4-0.1l-0.3-0.2l-0.4-0.1l-0.4-0.1l-0.5-0.1
	l-0.4-0.1H102 M101.8,437l0.4,0.1l0.4,0.1l0.5,0.1l0.4,0.1l0.4,0.1l0.3,0.2l0.4,0.1l0.3,0.2 M116.8,369l5.2-2.6 M122,366.3v-58.9
	 M143,376.9l-21-10.6 M127.9,423.9l-0.1,0.2l-0.5,0.6l-0.3,0.9l-0.1,1.1l0.1,1l0.3,1.2l0.5,1.1l0.5,1.1l0.8,0.9l0.8,0.7l0.8,0.5
	l0.8,0.3l0.8,0.1h0.3 M105.1,224.1l5.3-2.6 M105.1,438.1v-214 M101.8,223.2V437 M101.8,223.2l1.9-3.7"/>
<polygon class="st1" points="58.5,209.8 60.3,220.5 58.5,218.1 56.7,220.5 "/>
<polygon class="st1" points="123.3,232.9 114.5,239.2 115.9,236.5 112.9,236 "/>
<polygon class="st1" points="128.5,230.4 137.3,224 135.9,226.6 138.9,227.2 "/>
<polygon class="st1" points="136.1,314.3 137.9,325 136.1,322.6 134.3,325 "/>
<polygon class="st1" points="136.1,378.8 134.3,368.1 136.1,370.5 137.9,368.1 "/>
<polygon class="st1" points="58.7,423.5 56.9,412.8 58.7,415.2 60.4,412.8 "/>
<polygon class="st1" points="156,494.4 145.3,492.6 148.2,491.7 146.5,489.2 "/>
<polygon class="st1" points="79.2,465.2 89.9,467.4 87,468.2 88.5,470.7 "/>
<line class="st2" x1="79" y1="434.1" x2="67.2" y2="432.6"/>
<line class="st3" x1="110.1" y1="221.2" x2="74.7" y2="203.1"/>
<polygon class="st1" points="88.3,210.2 93.3,200.6 93.3,203.6 96.2,202.7 "/>
<g>
	<path class="st2" d="M92.2,235.1c-3.7-3.9-5.9-9.2-5.9-15c0-12.2,9.9-22.1,22.1-22.1"/>
</g>
<polygon class="st1" points="86.5,217.2 89,227.7 87,225.5 85.4,228 "/>
<g>
	<path class="st1" d="M171.3,307.3v1.4l-0.9-0.5v-1.8h8.2v0.9H171.3z"/>
	<path class="st1" d="M171.3,298.3v4.5h-0.8v-6l8.4,5.5l-0.5,0.7L171.3,298.3z"/>
	<path class="st1" d="M177.6,295.2c-0.8,0.5-1.8,0.8-3,0.8c-1.2,0-2.2-0.3-3-0.8c-0.9-0.6-1.2-1.5-1.2-2.1s0.3-1.5,1.2-2.1
		c0.8-0.5,1.8-0.8,3-0.8c1.2,0,2.2,0.3,3,0.8c0.9,0.6,1.2,1.5,1.2,2.1S178.5,294.6,177.6,295.2z M172.1,294.5
		c0.7,0.4,1.6,0.6,2.5,0.6c0.9,0,1.8-0.2,2.5-0.6c0.7-0.4,0.9-1,0.9-1.4c0-0.4-0.2-1-0.9-1.4c-0.7-0.4-1.6-0.6-2.5-0.6
		c-0.9,0-1.8,0.2-2.5,0.6c-0.7,0.4-0.9,1-0.9,1.4C171.2,293.5,171.4,294.1,172.1,294.5z"/>
</g>
<g>
	<path class="st1" d="M188.6,199.6l2.6,1.9c-0.1-0.2-0.1-0.5-0.1-0.7c0-1.6,1.2-2.7,2.7-2.7c1.6,0,2.8,1.2,2.8,2.8
		c0,1.9-1.5,2.8-2.8,2.8c-0.3,0-1-0.1-1.9-0.7l-3.9-2.8L188.6,199.6z M193.9,199c-1.1,0-1.9,0.8-1.9,1.9s0.8,1.9,1.9,1.9
		c1.1,0,2-0.8,2-1.9C195.8,199.8,195,199,193.9,199z"/>
	<path class="st1" d="M196.5,196.9l-3.5-3c-0.2-0.2-0.9-0.8-1.2-1c-0.5-0.4-0.9-0.5-1.3-0.5c-0.9,0-1.6,0.7-1.6,1.6
		c0,0.6,0.3,1.1,0.7,1.4c0.2,0.2,0.6,0.3,1,0.3v0.9c-0.8,0-1.3-0.3-1.7-0.6c-0.4-0.3-0.8-0.9-0.8-1.9c0-1.5,1-2.5,2.4-2.5
		c0.6,0,1.1,0.2,1.8,0.7c0.5,0.3,1,0.8,1.4,1.1l1.9,1.7v-3.5h0.8V196.9z"/>
	<path class="st1" d="M195.3,189.2l0.3-0.8l2.8,1.2l-0.2,0.6L195.3,189.2z"/>
</g>
<g>
	<path class="st1" d="M190.4,185.3c-0.5,0-0.9-0.2-1.2-0.4c-0.8-0.5-1-1.4-1-1.9c0-1.5,1.1-2.3,2.2-2.3c0.6,0,1.4,0.2,1.8,1.1
		c0.1-0.3,0.6-1.2,2-1.2c1.5,0,2.5,1.1,2.5,2.5c0,0.8-0.4,1.8-1.4,2.3c-0.3,0.1-0.6,0.2-0.9,0.2v-0.9c0.3,0,0.6-0.1,0.8-0.3
		c0.4-0.3,0.6-0.8,0.6-1.3c0-0.9-0.8-1.6-1.7-1.6c-0.5,0-1.1,0.2-1.4,0.8c-0.1,0.3-0.2,0.6-0.2,0.9h-0.8c0-0.3,0-0.7-0.2-0.9
		c-0.1-0.3-0.5-0.7-1.2-0.7c-0.7,0-1.4,0.4-1.4,1.4c0,0.3,0.1,0.7,0.5,1.1c0.2,0.2,0.5,0.3,0.9,0.3V185.3z"/>
</g>
<g>
	<path class="st1" d="M248.4,93.3l4.3-1.7c0.3-0.1,1.1-0.4,1.4-0.6c0.6-0.3,0.8-0.6,1-0.9c0.4-0.8,0.2-1.7-0.7-2.2
		c-0.5-0.3-1.1-0.3-1.5,0c-0.3,0.1-0.5,0.4-0.7,0.7l-0.8-0.4c0.4-0.7,0.9-1,1.3-1.2c0.5-0.2,1.2-0.3,2.1,0.2
		c1.3,0.7,1.8,2.1,1.1,3.3c-0.3,0.5-0.6,0.9-1.4,1.3c-0.5,0.3-1.2,0.5-1.6,0.7l-2.4,0.9l3.1,1.6l-0.4,0.7L248.4,93.3z"/>
</g>
<g>
	<path class="st1" d="M255.9,96c-0.1-0.9,0.1-2,0.7-3c0.5-1,1.3-1.8,2.1-2.3c1-0.5,1.9-0.4,2.4-0.1c0.6,0.3,1.2,1,1.3,2.1
		c0.1,0.9-0.1,2-0.7,3s-1.3,1.8-2.1,2.3c-1,0.5-1.9,0.4-2.4,0.1C256.6,97.8,256.1,97.1,255.9,96z M259.1,91.5
		c-0.7,0.4-1.3,1.2-1.7,1.9s-0.7,1.7-0.6,2.5c0.1,0.8,0.5,1.3,0.8,1.5c0.4,0.2,1,0.3,1.7-0.1c0.7-0.4,1.3-1.2,1.7-1.9
		s0.7-1.7,0.6-2.5c-0.1-0.8-0.5-1.3-0.8-1.5C260.4,91.1,259.8,91,259.1,91.5z"/>
</g>
<g>
	<path class="st1" d="M307.9,109.7l0.9-0.5l0.4,0.7l-0.9,0.5l0.7,1.4l-0.8,0.4l-0.7-1.4l-3.7,1.9l1.2-8.7L307.9,109.7z M307.1,110.1
		l-1.7-3.2l-0.6,4.4L307.1,110.1z"/>
</g>
<g>
	<path class="st1" d="M311.1,110.7l1-4.4c0.1-0.3,0.3-1.1,0.3-1.5c0.1-0.6,0-1-0.2-1.3c-0.4-0.8-1.3-1.1-2.2-0.7
		c-0.5,0.3-0.8,0.7-0.9,1.3c0,0.3,0,0.6,0.2,1l-0.8,0.4c-0.3-0.7-0.4-1.3-0.2-1.8c0.1-0.5,0.4-1.2,1.3-1.6c1.3-0.7,2.7-0.3,3.4,1
		c0.3,0.5,0.3,1,0.2,1.9c-0.1,0.6-0.2,1.2-0.4,1.7l-0.6,2.5l3.1-1.6l0.4,0.7L311.1,110.7z"/>
</g>
<g>
	<path class="st1" d="M335.1,66.1l-4,2.1l-0.4-0.7l5.3-2.8l-1,10l-0.9-0.1L335.1,66.1z"/>
</g>
<g>
	<path class="st1" d="M341.4,62.8l-4,2.1l-0.4-0.7l5.3-2.8l-1,10l-0.9-0.1L341.4,62.8z"/>
</g>
<g>
	<path class="st1" d="M425.4,88l-1.2-0.7l0.8-0.5l1.6,0.9l-3.9,7.2l-0.8-0.4L425.4,88z"/>
</g>
<g>
	<path class="st1" d="M433.9,92.6l-2.3-1.3l-1.3,1.3c0.2,0,0.3,0.1,0.5,0.2c1.4,0.8,1.8,2.4,1,3.8c-0.9,1.6-2.6,1.9-4,1.2
		c-0.6-0.3-1-0.8-1.3-1.4c-0.1-0.3-0.2-0.7-0.2-1.1l0.9-0.1c0,0.3,0,0.6,0.2,0.8c0.2,0.4,0.4,0.8,0.9,1.1c1,0.6,2.2,0.1,2.8-0.9
		c0.6-1,0.2-2.2-0.8-2.7c-0.3-0.1-0.8-0.4-1.7-0.3l2.9-2.9l2.9,1.6L433.9,92.6z"/>
</g>
<g>
	<path class="st1" d="M433.2,99.2l0.6,0.6l-2.4,1.8l-0.4-0.5L433.2,99.2z"/>
</g>
<g>
	<path class="st1" d="M443.6,97.8l-2.3-1.3l-1.3,1.3c0.2,0,0.3,0.1,0.5,0.2c1.4,0.8,1.8,2.4,1,3.8c-0.9,1.6-2.6,1.9-4,1.2
		c-0.6-0.3-1-0.8-1.3-1.4c-0.1-0.3-0.2-0.7-0.2-1.1l0.9-0.1c0,0.3,0,0.6,0.2,0.8c0.2,0.4,0.4,0.8,0.9,1.1c1,0.6,2.2,0.1,2.8-0.9
		c0.6-1,0.2-2.2-0.8-2.7c-0.3-0.1-0.8-0.4-1.7-0.3l2.9-2.9l2.9,1.6L443.6,97.8z"/>
</g>
<g>
	<path class="st1" d="M426.4,141.6l0,1.4l-0.9-0.5l0-1.8l8.2-0.2l0,0.9L426.4,141.6z"/>
</g>
<g>
	<path class="st1" d="M433.3,135.5l-2.7-1.8c0.1,0.2,0.1,0.5,0.1,0.7c0,1.6-1.1,2.7-2.6,2.7c-1.6,0-2.8-1.1-2.9-2.8
		c0-1.9,1.4-2.9,2.7-2.9c0.3,0,1,0,1.9,0.6l3.9,2.7L433.3,135.5z M428.1,136.2c1.1,0,1.9-0.9,1.9-2c0-1.1-0.9-1.9-1.9-1.9
		c-1.1,0-1.9,0.8-1.9,2C426.1,135.5,427,136.2,428.1,136.2z"/>
</g>
<g>
	<path class="st1" d="M432.3,129.2l0.3-0.8l2.8,1.2l-0.2,0.6L432.3,129.2z"/>
</g>
<g>
	<path class="st1" d="M425.9,121l0.1,2.6l1.8,0.5c0-0.2-0.1-0.3-0.1-0.5c0-1.6,1.2-2.7,2.8-2.8c1.8,0,3,1.3,3,2.9
		c0,0.7-0.2,1.3-0.6,1.8c-0.2,0.3-0.5,0.5-0.8,0.7l-0.5-0.7c0.3-0.1,0.5-0.3,0.7-0.6c0.3-0.4,0.5-0.8,0.5-1.3c0-1.2-1-2-2.1-2
		c-1.2,0-2,0.9-2,2.1c0,0.3,0.1,0.8,0.6,1.6l-4-1.1l-0.1-3.3L425.9,121z"/>
</g>
<g>
	<path class="st1" d="M431.8,251.1c1.3,0,2.4,0.8,2.5,2.5c0,1.7-1.1,2.5-2.4,2.6c-0.9,0-1.6-0.4-2-1.2c-0.4,0.7-1,1-1.8,1
		c-1.2,0-2.3-0.7-2.3-2.2c0-1.5,1.1-2.3,2.2-2.3c0.8,0,1.4,0.3,1.8,1C430.2,251.6,430.9,251.1,431.8,251.1z M428.1,252.3
		c-0.9,0-1.4,0.7-1.4,1.4c0,0.8,0.6,1.4,1.5,1.4c0.8,0,1.4-0.6,1.4-1.4C429.5,252.9,428.9,252.3,428.1,252.3z M431.8,252
		c-0.9,0-1.5,0.7-1.5,1.6c0,0.9,0.7,1.6,1.6,1.6c0.9,0,1.6-0.7,1.6-1.6C433.4,252.7,432.7,252,431.8,252z"/>
</g>
<g>
	<path class="st1" d="M426.6,244.2l0.1,2.6l1.8,0.5c0-0.2-0.1-0.3-0.1-0.5c0-1.6,1.2-2.7,2.8-2.8c1.8,0,3,1.3,3,2.9
		c0,0.7-0.2,1.3-0.6,1.8c-0.2,0.3-0.5,0.5-0.8,0.7l-0.5-0.7c0.3-0.1,0.5-0.3,0.7-0.6c0.3-0.4,0.5-0.8,0.5-1.3c0-1.2-1-2-2.1-2
		c-1.2,0-2,0.9-2,2.1c0,0.3,0.1,0.8,0.6,1.6l-4-1.1l-0.1-3.3L426.6,244.2z"/>
</g>
<g>
	<path class="st1" d="M445.1,258.7l0,1.4l-0.9-0.5l0-1.8l8.2-0.2l0,0.9L445.1,258.7z"/>
</g>
<g>
	<path class="st1" d="M446.1,253.8c-0.5,0-0.9-0.2-1.2-0.4c-0.9-0.5-1-1.4-1-1.9c0-1.5,1-2.3,2.2-2.4c0.6,0,1.4,0.2,1.8,1
		c0.1-0.3,0.5-1.2,2-1.2c1.5,0,2.5,1.1,2.5,2.5c0,0.8-0.3,1.9-1.4,2.3c-0.3,0.1-0.6,0.2-0.9,0.2l0-0.9c0.3,0,0.6-0.1,0.8-0.3
		c0.4-0.3,0.6-0.8,0.6-1.3c0-0.9-0.8-1.6-1.7-1.6c-0.5,0-1.1,0.2-1.4,0.8c-0.1,0.3-0.2,0.6-0.2,0.9l-0.8,0c0-0.3-0.1-0.7-0.2-0.9
		c-0.1-0.3-0.5-0.7-1.2-0.7c-0.7,0-1.4,0.4-1.4,1.4c0,0.3,0.1,0.7,0.5,1c0.2,0.2,0.5,0.3,0.9,0.3L446.1,253.8z"/>
</g>
<g>
	<path class="st1" d="M449.7,242.3l0-1l0.8,0l0,1l1.5,0l0,0.9l-1.5,0l0.1,4.2l-7.2-5L449.7,242.3z M449.7,243.2l-3.6,0.1l3.7,2.5
		L449.7,243.2z"/>
</g>
<g>
	<path class="st1" d="M347.8,222.5c0.5,0.2,1.4,0.7,2.1,2c1.1,2.2,0.3,4.6-1.8,5.7c-1.2,0.6-2.2,0.6-2.9,0.4l-0.4,1.3l-0.8-0.3
		l0.4-1.3c-1.1-0.5-1.7-1.3-2-1.9c-1.1-2.2-0.3-4.6,1.8-5.7c0.7-0.3,1.6-0.6,2.8-0.4l0.4-1.3l0.8,0.3L347.8,222.5z M346.6,223.2
		c-0.3-0.1-1.1-0.1-2,0.3c-1.6,0.9-2.3,2.9-1.4,4.5c0.5,0.9,1.2,1.3,1.6,1.5L346.6,223.2z M345.6,229.8c0.9,0.2,1.7-0.1,2.1-0.3
		c1.6-0.8,2.3-2.9,1.4-4.5c-0.3-0.5-0.8-1.2-1.6-1.5L345.6,229.8z"/>
	<path class="st1" d="M356.7,223.1c0.6,1.1,0.4,2.5-1.1,3.3s-2.7,0.2-3.3-1c-0.4-0.8-0.4-1.6,0.2-2.4c-0.8,0-1.4-0.5-1.7-1.1
		c-0.5-1-0.4-2.4,1-3.1s2.5-0.1,3.1,1c0.4,0.7,0.3,1.4-0.1,2.1C355.5,221.8,356.2,222.3,356.7,223.1z M353.9,220.2
		c-0.4-0.8-1.3-1-1.9-0.6c-0.7,0.3-1,1.1-0.6,1.9c0.4,0.7,1.2,1,1.9,0.6S354.3,220.9,353.9,220.2z M355.8,223.5
		c-0.4-0.8-1.3-1.1-2.1-0.6c-0.8,0.4-1.1,1.3-0.7,2.1c0.4,0.8,1.3,1.1,2.2,0.7C356,225.2,356.3,224.3,355.8,223.5z"/>
</g>
<g>
	<path class="st1" d="M285.8,535c-0.2-0.4-0.2-0.9-0.2-1.3c0.1-1,0.9-1.5,1.3-1.7c1.4-0.7,2.6,0,3,1c0.3,0.5,0.4,1.4-0.2,2.1
		c0.3,0,1.3,0,1.9,1.3c0.7,1.4,0.1,2.7-1.2,3.3c-0.8,0.4-1.8,0.5-2.7-0.3c-0.2-0.2-0.4-0.4-0.5-0.7l0.8-0.4c0.2,0.3,0.4,0.5,0.6,0.6
		c0.4,0.2,0.9,0.2,1.4,0c0.8-0.4,1.1-1.4,0.7-2.2c-0.2-0.4-0.6-0.9-1.3-0.9c-0.3,0-0.6,0.1-0.9,0.3l-0.4-0.7
		c0.3-0.1,0.6-0.3,0.8-0.6c0.2-0.2,0.4-0.7,0.1-1.4c-0.3-0.7-1-1.1-1.9-0.6c-0.3,0.1-0.6,0.4-0.7,0.9c-0.1,0.3,0,0.6,0.1,0.9
		L285.8,535z"/>
</g>
<g>
	<path class="st1" d="M196.9,299.3l-3.5-3c-0.2-0.2-0.9-0.8-1.2-1c-0.5-0.4-0.9-0.5-1.3-0.5c-0.9,0-1.6,0.7-1.6,1.6
		c0,0.6,0.3,1.1,0.7,1.4c0.2,0.2,0.6,0.3,1,0.3v0.9c-0.8,0-1.3-0.3-1.7-0.6c-0.4-0.3-0.8-0.9-0.8-1.9c0-1.5,1-2.5,2.4-2.5
		c0.6,0,1.1,0.2,1.8,0.7c0.5,0.3,1,0.8,1.4,1.1l1.9,1.7V294h0.8V299.3z"/>
	<path class="st1" d="M189,288.1l2.6,1.9c-0.1-0.2-0.1-0.5-0.1-0.7c0-1.6,1.2-2.7,2.7-2.7c1.6,0,2.8,1.2,2.8,2.8
		c0,1.9-1.5,2.8-2.8,2.8c-0.3,0-1-0.1-1.9-0.7l-3.9-2.8L189,288.1z M194.3,287.5c-1.1,0-1.9,0.8-1.9,1.9s0.8,1.9,1.9,1.9
		c1.1,0,2-0.8,2-1.9C196.2,288.3,195.4,287.5,194.3,287.5z"/>
</g>
<g>
	<path class="st1" d="M211.5,254.5l-1.3,0.4l0.2-1l1.7-0.5l2.1,7.9l-0.9,0.2L211.5,254.5z"/>
	<path class="st1" d="M222.2,256.9c0.3,1.2-0.2,2.5-1.8,3c-1.6,0.4-2.7-0.4-3.1-1.7c-0.2-0.9,0-1.7,0.7-2.3
		c-0.7-0.2-1.2-0.7-1.4-1.5c-0.3-1.1,0.2-2.4,1.6-2.8c1.4-0.4,2.5,0.5,2.8,1.6c0.2,0.7,0,1.5-0.5,2C221.4,255.4,222,256,222.2,256.9
		z M220.1,253.5c-0.2-0.9-1-1.2-1.7-1c-0.7,0.2-1.2,0.9-1,1.8c0.2,0.8,1,1.2,1.7,1S220.4,254.3,220.1,253.5z M221.3,257.1
		c-0.2-0.9-1-1.3-2-1.1s-1.4,1-1.1,1.9c0.2,0.9,1,1.4,2,1.1C221.1,258.8,221.6,258,221.3,257.1z"/>
	<path class="st1" d="M224.7,257.3l0.9,0.1l-0.5,3l-0.6-0.1L224.7,257.3z"/>
	<path class="st1" d="M230.8,249.3l-2.5,0.7l0,1.8c0.1-0.1,0.3-0.1,0.5-0.2c1.6-0.4,2.9,0.5,3.4,2c0.5,1.8-0.6,3.2-2.1,3.6
		c-0.6,0.2-1.3,0.2-1.9-0.1c-0.3-0.1-0.6-0.4-0.9-0.6l0.6-0.7c0.2,0.2,0.4,0.4,0.7,0.5c0.4,0.2,0.9,0.3,1.4,0.1
		c1.1-0.3,1.7-1.4,1.4-2.6c-0.3-1.1-1.3-1.7-2.5-1.4c-0.3,0.1-0.8,0.3-1.4,1l0.1-4.1l3.1-0.9L230.8,249.3z"/>
</g>
<g>
	<g>
		<path class="st1" d="M46.2,337.2v1.4l-0.9-0.5v-1.9h8.6v1H46.2z"/>
		<path class="st1" d="M52.8,331.8c-0.8,0.6-1.9,0.9-3.2,0.9c-1.2,0-2.3-0.3-3.2-0.9c-1-0.7-1.3-1.5-1.3-2.2c0-0.7,0.3-1.5,1.3-2.2
			c0.8-0.6,1.9-0.9,3.2-0.9c1.2,0,2.3,0.3,3.2,0.9c1,0.7,1.3,1.5,1.3,2.2C54,330.3,53.7,331.1,52.8,331.8z M47,331.1
			c0.7,0.5,1.7,0.6,2.6,0.6c0.9,0,1.9-0.2,2.6-0.6c0.7-0.5,1-1,1-1.5c0-0.4-0.2-1-1-1.5c-0.7-0.5-1.7-0.6-2.6-0.6
			c-0.9,0-1.9,0.2-2.6,0.6c-0.7,0.5-1,1-1,1.5C46,330,46.3,330.6,47,331.1z"/>
		<path class="st1" d="M52.8,324.5c-0.8,0.6-1.9,0.9-3.2,0.9c-1.2,0-2.3-0.3-3.2-0.9c-1-0.7-1.3-1.5-1.3-2.2c0-0.7,0.3-1.5,1.3-2.2
			c0.8-0.6,1.9-0.9,3.2-0.9c1.2,0,2.3,0.3,3.2,0.9c1,0.7,1.3,1.5,1.3,2.2C54,323,53.7,323.8,52.8,324.5z M47,323.8
			c0.7,0.5,1.7,0.6,2.6,0.6c0.9,0,1.9-0.2,2.6-0.6c0.7-0.5,1-1,1-1.5c0-0.4-0.2-1-1-1.5c-0.7-0.5-1.7-0.6-2.6-0.6
			c-0.9,0-1.9,0.2-2.6,0.6c-0.7,0.5-1,1-1,1.5C46,322.7,46.3,323.3,47,323.8z"/>
	</g>
</g>
<g>
	<path class="st1" d="M136.2,217.2c-0.2-0.4-0.3-0.9-0.3-1.3c0.1-1.1,0.8-1.6,1.3-1.8c1.4-0.8,2.7-0.2,3.2,0.9
		c0.3,0.5,0.5,1.4,0,2.2c0.3,0,1.4-0.1,2.1,1.2c0.8,1.4,0.2,2.8-1.1,3.6c-0.8,0.4-1.9,0.6-2.8-0.1c-0.3-0.2-0.4-0.4-0.6-0.7l0.8-0.5
		c0.2,0.3,0.4,0.5,0.7,0.6c0.4,0.2,1,0.2,1.5-0.1c0.8-0.5,1.1-1.5,0.6-2.3c-0.2-0.4-0.7-0.9-1.4-0.9c-0.3,0-0.7,0.1-0.9,0.3
		l-0.4-0.7c0.3-0.1,0.6-0.4,0.8-0.6c0.2-0.3,0.4-0.8,0-1.5c-0.4-0.7-1.1-1.1-2-0.6c-0.3,0.2-0.6,0.4-0.7,1c0,0.3,0,0.6,0.1,1
		L136.2,217.2z"/>
</g>
<g>
	<path class="st1" d="M127.7,352.7c-0.5,0-0.9-0.2-1.3-0.4c-0.9-0.6-1-1.5-1-2c0-1.6,1.1-2.4,2.3-2.4c0.6,0,1.5,0.2,1.9,1.1
		c0.1-0.3,0.6-1.2,2.1-1.2c1.6,0,2.6,1.2,2.6,2.6c0,0.9-0.4,1.9-1.5,2.4c-0.3,0.1-0.6,0.2-0.9,0.2v-1c0.3,0,0.6-0.1,0.9-0.3
		c0.4-0.3,0.6-0.8,0.6-1.3c0-1-0.8-1.7-1.7-1.7c-0.5,0-1.1,0.2-1.4,0.9c-0.1,0.3-0.2,0.6-0.2,1h-0.9c0-0.3,0-0.7-0.2-1
		c-0.1-0.3-0.5-0.7-1.3-0.7c-0.8,0-1.5,0.4-1.5,1.5c0,0.3,0.1,0.8,0.5,1.1c0.2,0.2,0.5,0.3,0.9,0.3V352.7z"/>
	<path class="st1" d="M133,345c-0.8,0.6-1.9,0.9-3.2,0.9c-1.2,0-2.3-0.3-3.2-0.9c-1-0.7-1.3-1.5-1.3-2.2c0-0.7,0.3-1.5,1.3-2.2
		c0.8-0.6,1.9-0.9,3.2-0.9c1.2,0,2.3,0.3,3.2,0.9c1,0.7,1.3,1.5,1.3,2.2C134.3,343.5,134,344.4,133,345z M127.2,344.3
		c0.7,0.5,1.7,0.6,2.6,0.6c0.9,0,1.9-0.2,2.6-0.6c0.7-0.5,1-1,1-1.5c0-0.4-0.2-1-1-1.5c-0.7-0.5-1.7-0.6-2.6-0.6
		c-0.9,0-1.9,0.2-2.6,0.6c-0.7,0.5-1,1-1,1.5C126.3,343.3,126.5,343.8,127.2,344.3z"/>
</g>
<g>
	<path class="st1" d="M128.9,384.8l-1.3-0.6l0.8-0.6l1.7,0.8l-3.7,7.8l-0.9-0.4L128.9,384.8z"/>
</g>
<g>
	<path class="st1" d="M138.1,389.1l-2.5-1.2l-1.3,1.4c0.2,0,0.3,0.1,0.5,0.2c1.6,0.7,2,2.4,1.3,3.9c-0.8,1.7-2.6,2.2-4.2,1.5
		c-0.6-0.3-1.1-0.8-1.5-1.4c-0.1-0.3-0.3-0.7-0.3-1.1l0.9-0.2c0,0.3,0.1,0.6,0.2,0.9c0.2,0.4,0.5,0.8,1,1.1c1.1,0.5,2.3,0,2.9-1.1
		c0.5-1.1,0.1-2.3-1-2.8c-0.3-0.1-0.8-0.3-1.8-0.2l2.9-3.2l3.1,1.5L138.1,389.1z"/>
</g>
<g>
	<path class="st1" d="M114.8,474.1l1,0.4l-0.3,0.8l-1-0.4l-0.6,1.5l-0.9-0.3l0.6-1.5l-4.1-1.6l7.7-5L114.8,474.1z M113.9,473.7
		l1.4-3.5l-3.9,2.6L113.9,473.7z"/>
</g>
<g>
	<path class="st1" d="M117.4,476.6c-0.2-1-0.1-2.1,0.3-3.3c0.4-1.1,1.1-2.1,2-2.6c1-0.7,1.9-0.7,2.5-0.4c0.6,0.2,1.3,0.9,1.6,2
		c0.2,1,0.1,2.1-0.3,3.3c-0.4,1.1-1.1,2.1-2,2.6c-1,0.7-1.9,0.6-2.5,0.4C118.4,478.4,117.7,477.7,117.4,476.6z M120.2,471.5
		c-0.7,0.5-1.2,1.4-1.5,2.2s-0.5,1.8-0.4,2.7c0.2,0.8,0.6,1.3,1,1.4c0.4,0.2,1,0.2,1.7-0.4c0.7-0.5,1.2-1.4,1.5-2.2s0.5-1.8,0.4-2.7
		c-0.2-0.8-0.6-1.3-1-1.4C121.5,471,120.9,471,120.2,471.5z"/>
</g>
<g>
	<path class="st1" d="M92.3,194.3c-0.2-0.4-0.3-0.9-0.3-1.3c0.1-1.1,0.8-1.6,1.3-1.8c1.4-0.8,2.7-0.2,3.2,0.9c0.3,0.5,0.5,1.4,0,2.2
		c0.3,0,1.4-0.1,2.1,1.2c0.8,1.4,0.2,2.8-1.1,3.6c-0.8,0.4-1.9,0.6-2.8-0.1c-0.3-0.2-0.4-0.4-0.6-0.7l0.8-0.5
		c0.2,0.3,0.4,0.5,0.7,0.6c0.4,0.2,1,0.2,1.5-0.1c0.8-0.5,1.1-1.5,0.6-2.3c-0.2-0.4-0.7-0.9-1.4-0.9c-0.3,0-0.7,0.1-0.9,0.3
		l-0.4-0.7c0.3-0.1,0.6-0.4,0.8-0.6c0.2-0.3,0.4-0.8,0-1.5c-0.4-0.7-1.1-1.1-2-0.6c-0.3,0.2-0.6,0.4-0.7,1c0,0.3,0,0.6,0.1,1
		L92.3,194.3z"/>
	<path class="st1" d="M101.6,195.3c-0.9-0.4-1.7-1.3-2.3-2.4c-0.6-1.1-0.9-2.2-0.8-3.2c0.1-1.2,0.7-1.9,1.3-2.2
		c0.6-0.3,1.5-0.5,2.6,0.1c0.9,0.4,1.7,1.3,2.3,2.3c0.6,1.1,0.9,2.2,0.8,3.2c-0.1,1.2-0.7,1.9-1.3,2.2
		C103.6,195.7,102.6,195.8,101.6,195.3z M99.4,189.9c-0.1,0.9,0.3,1.8,0.7,2.6s1.1,1.6,1.8,2c0.7,0.4,1.4,0.3,1.8,0.1
		c0.4-0.2,0.8-0.7,0.8-1.6c0.1-0.9-0.3-1.8-0.7-2.6s-1.1-1.6-1.8-2c-0.7-0.4-1.4-0.3-1.8-0.1C99.9,188.5,99.5,189,99.4,189.9z"/>
</g>
<g>
	<path class="st1" d="M106.2,184.2c0.9-0.5,1.9-0.2,2.4,0.7c0.5,0.9,0.2,1.9-0.7,2.4c-0.9,0.5-1.9,0.2-2.4-0.7
		C105,185.7,105.3,184.7,106.2,184.2z M107.6,186.8c0.4-0.2,0.8-0.9,0.4-1.6c-0.4-0.7-1.1-0.7-1.6-0.5c-0.4,0.2-0.8,0.9-0.4,1.6
		S107.2,187,107.6,186.8z"/>
</g>
</svg>
