<?xml version="1.0" encoding="utf-8"?>
<!-- Generator: Adobe Illustrator 25.1.0, SVG Export Plug-In . SVG Version: 6.00 Build 0)  -->
<svg version="1.1" id="Слой_1" xmlns="http://www.w3.org/2000/svg" xmlns:xlink="http://www.w3.org/1999/xlink" x="0px" y="0px"
	 viewBox="0 0 19.9 19.9" style="enable-background:new 0 0 19.9 19.9;" xml:space="preserve">
<style type="text/css">
	.st0{fill:#1E4385;}
</style>
<path class="st0" d="M10,0C4.5,0,0,4.5,0,10c0,5.5,4.5,10,10,10c5.5,0,10-4.5,10-10C19.9,4.5,15.5,0,10,0z M10,18.4
	c-4.7,0-8.4-3.8-8.4-8.4c0-4.7,3.8-8.4,8.4-8.4c4.7,0,8.4,3.8,8.4,8.4C18.4,14.6,14.6,18.4,10,18.4z"/>
<path class="st0" d="M14.6,14.1c-0.1,0-0.2,0-0.3-0.1L9,11.4V5.2c0-0.3,0.3-0.6,0.6-0.6s0.6,0.3,0.6,0.6v5.4l4.7,2.4
	c0.3,0.1,0.4,0.5,0.3,0.8C15,14,14.8,14.1,14.6,14.1z"/>
</svg>
