<?xml version="1.0" encoding="utf-8"?>
<!-- Generator: Adobe Illustrator 25.1.0, SVG Export Plug-In . SVG Version: 6.00 Build 0)  -->
<svg version="1.1" id="Слой_1" xmlns="http://www.w3.org/2000/svg" xmlns:xlink="http://www.w3.org/1999/xlink" x="0px" y="0px"
	 width="489.1px" height="119.7px" viewBox="0 0 489.1 119.7" style="enable-background:new 0 0 489.1 119.7;" xml:space="preserve"
	>
<style type="text/css">
	.st0{fill:#355CA7;}
</style>
<path class="st0" d="M48.2,96.5C21.6,96.5,0,74.9,0,48.3S21.6,0,48.2,0s48.2,21.6,48.2,48.2S74.8,96.5,48.2,96.5z M48.2,1
	C22.2,1,1,22.2,1,48.2s21.2,47.2,47.2,47.2s47.2-21.2,47.2-47.2S74.3,1,48.2,1z"/>
<g>
	<rect x="4.2" y="47.4" class="st0" width="6.7" height="1.8"/>
	<rect x="85.6" y="47.4" class="st0" width="6.7" height="1.8"/>
</g>
<g>
	<rect x="47.3" y="85.6" class="st0" width="1.8" height="6.7"/>
	<rect x="47.3" y="4.1" class="st0" width="1.8" height="6.7"/>
</g>
<g>
	<rect x="67.7" y="80.2" transform="matrix(0.866 -0.5 0.5 0.866 -32.5849 45.4725)" class="st0" width="1.8" height="6.7"/>
	<rect x="27" y="9.6" transform="matrix(0.866 -0.5 0.5 0.866 -2.7507 15.665)" class="st0" width="1.8" height="6.7"/>
</g>
<g>
	<rect x="82.6" y="65.3" transform="matrix(0.5 -0.866 0.866 0.5 -17.6842 106.6172)" class="st0" width="1.8" height="6.7"/>
	<rect x="12" y="24.5" transform="matrix(0.5 -0.866 0.866 0.5 -17.6603 25.1343)" class="st0" width="1.8" height="6.7"/>
</g>
<g>
	<rect x="24.5" y="82.6" transform="matrix(0.5 -0.866 0.866 0.5 -58.4013 65.8553)" class="st0" width="6.7" height="1.8"/>
	<rect x="65.2" y="12.1" transform="matrix(0.5 -0.866 0.866 0.5 23.0212 65.8929)" class="st0" width="6.7" height="1.8"/>
</g>
<g>
	<rect x="9.6" y="67.7" transform="matrix(0.866 -0.5 0.5 0.866 -32.5631 15.659)" class="st0" width="6.7" height="1.8"/>
	<rect x="80.1" y="27" transform="matrix(0.866 -0.5 0.5 0.866 -2.7728 45.4661)" class="st0" width="6.7" height="1.8"/>
</g>
<circle class="st0" cx="48.2" cy="48.2" r="2.9"/>
<polygon class="st0" points="48.8,12.4 49.3,48.3 47.1,48.3 47.6,12.4 "/>
<polygon class="st0" points="27.9,37.1 47.7,49.1 48.8,47.2 28.5,36 "/>
<path class="st0" d="M178.9,96.5c-26.6,0-48.2-21.6-48.2-48.2s21.6-48.2,48.2-48.2s48.2,21.6,48.2,48.2
	C227.2,74.8,205.5,96.5,178.9,96.5z M178.9,1c-26.1,0-47.2,21.2-47.2,47.2c0,26.1,21.2,47.2,47.2,47.2c26.1,0,47.2-21.2,47.2-47.2
	C226.2,22.2,205,1,178.9,1z"/>
<g>
	<rect x="134.9" y="47.4" class="st0" width="6.7" height="1.8"/>
	<rect x="216.3" y="47.4" class="st0" width="6.7" height="1.8"/>
</g>
<g>
	<rect x="178" y="85.6" class="st0" width="1.8" height="6.7"/>
	<rect x="178" y="4.1" class="st0" width="1.8" height="6.7"/>
</g>
<g>
	<rect x="198.4" y="80.2" transform="matrix(0.866 -0.5 0.5 0.866 -15.078 110.8344)" class="st0" width="1.8" height="6.7"/>
	<rect x="157.7" y="9.6" transform="matrix(0.866 -0.5 0.5 0.866 14.7563 81.0269)" class="st0" width="1.8" height="6.7"/>
</g>
<g>
	<rect x="213.2" y="65.2" transform="matrix(0.5 -0.866 0.866 0.5 47.6719 219.7305)" class="st0" width="1.8" height="6.7"/>
	<rect x="142.8" y="24.5" transform="matrix(0.5 -0.866 0.866 0.5 47.6957 138.3474)" class="st0" width="1.8" height="6.7"/>
</g>
<g>
	<rect x="155.2" y="82.6" transform="matrix(0.5 -0.866 0.866 0.5 6.9386 179.0557)" class="st0" width="6.7" height="1.8"/>
	<rect x="195.9" y="12.1" transform="matrix(0.5 -0.866 0.866 0.5 88.361 179.0932)" class="st0" width="6.7" height="1.8"/>
</g>
<g>
	<rect x="140.3" y="67.7" transform="matrix(0.866 -0.5 0.5 0.866 -15.0549 81.0103)" class="st0" width="6.7" height="1.8"/>
	<rect x="210.9" y="27" transform="matrix(0.866 -0.5 0.5 0.866 14.772 110.854)" class="st0" width="6.7" height="1.8"/>
</g>
<circle class="st0" cx="178.9" cy="48.2" r="2.9"/>
<polygon class="st0" points="179.5,12.4 180,48.3 177.8,48.3 178.3,12.4 "/>
<path class="st0" d="M178.9,96.5c-26.6,0-48.2-21.6-48.2-48.2s21.6-48.2,48.2-48.2s48.2,21.6,48.2,48.2
	C227.2,74.8,205.5,96.5,178.9,96.5z M178.9,1c-26.1,0-47.2,21.2-47.2,47.2c0,26.1,21.2,47.2,47.2,47.2c26.1,0,47.2-21.2,47.2-47.2
	C226.2,22.2,205,1,178.9,1z"/>
<g>
	<rect x="134.9" y="47.4" class="st0" width="6.7" height="1.8"/>
	<rect x="216.3" y="47.4" class="st0" width="6.7" height="1.8"/>
</g>
<g>
	<rect x="178" y="85.6" class="st0" width="1.8" height="6.7"/>
	<rect x="178" y="4.1" class="st0" width="1.8" height="6.7"/>
</g>
<g>
	<rect x="198.4" y="80.2" transform="matrix(0.866 -0.5 0.5 0.866 -15.078 110.8344)" class="st0" width="1.8" height="6.7"/>
	<rect x="157.7" y="9.6" transform="matrix(0.866 -0.5 0.5 0.866 14.7563 81.0269)" class="st0" width="1.8" height="6.7"/>
</g>
<g>
	<rect x="213.2" y="65.2" transform="matrix(0.5 -0.866 0.866 0.5 47.6719 219.7305)" class="st0" width="1.8" height="6.7"/>
	<rect x="142.8" y="24.5" transform="matrix(0.5 -0.866 0.866 0.5 47.6957 138.3474)" class="st0" width="1.8" height="6.7"/>
</g>
<g>
	<rect x="155.2" y="82.6" transform="matrix(0.5 -0.866 0.866 0.5 6.9386 179.0557)" class="st0" width="6.7" height="1.8"/>
	<rect x="195.9" y="12.1" transform="matrix(0.5 -0.866 0.866 0.5 88.361 179.0932)" class="st0" width="6.7" height="1.8"/>
</g>
<g>
	<rect x="140.3" y="67.7" transform="matrix(0.866 -0.5 0.5 0.866 -15.0549 81.0103)" class="st0" width="6.7" height="1.8"/>
	<rect x="210.9" y="27" transform="matrix(0.866 -0.5 0.5 0.866 14.772 110.854)" class="st0" width="6.7" height="1.8"/>
</g>
<circle class="st0" cx="178.9" cy="48.2" r="2.9"/>
<polygon class="st0" points="179.5,12.4 180,48.3 177.8,48.3 178.3,12.4 "/>
<polygon class="st0" points="156,47.5 179.1,47.1 179,49.4 156,48.7 "/>
<path class="st0" d="M309.9,96.5c-26.6,0-48.2-21.6-48.2-48.2s21.6-48.2,48.2-48.2c26.6,0,48.2,21.6,48.2,48.2
	C358.1,74.8,336.5,96.5,309.9,96.5z M309.9,1c-26.1,0-47.2,21.2-47.2,47.2c0,26.1,21.2,47.2,47.2,47.2s47.2-21.2,47.2-47.2
	C357.1,22.2,335.9,1,309.9,1z"/>
<g>
	<rect x="265.8" y="47.4" class="st0" width="6.7" height="1.8"/>
	<rect x="347.3" y="47.4" class="st0" width="6.7" height="1.8"/>
</g>
<g>
	<rect x="309" y="85.6" class="st0" width="1.8" height="6.7"/>
	<rect x="309" y="4.1" class="st0" width="1.8" height="6.7"/>
</g>
<g>
	<rect x="329.3" y="80.2" transform="matrix(0.866 -0.5 0.5 0.866 2.4768 176.3179)" class="st0" width="1.8" height="6.7"/>
	<rect x="288.6" y="9.6" transform="matrix(0.866 -0.5 0.5 0.866 32.3111 146.5104)" class="st0" width="1.8" height="6.7"/>
</g>
<g>
	<rect x="344.3" y="65.3" transform="matrix(0.5 -0.866 0.866 0.5 113.1614 333.2421)" class="st0" width="1.8" height="6.7"/>
	<rect x="273.7" y="24.5" transform="matrix(0.5 -0.866 0.866 0.5 113.1854 251.7592)" class="st0" width="1.8" height="6.7"/>
</g>
<g>
	<rect x="286.2" y="82.6" transform="matrix(0.5 -0.866 0.866 0.5 72.445 292.4874)" class="st0" width="6.7" height="1.8"/>
	<rect x="326.9" y="12.1" transform="matrix(0.5 -0.866 0.866 0.5 153.8675 292.5249)" class="st0" width="6.7" height="1.8"/>
</g>
<g>
	<rect x="271.3" y="67.7" transform="matrix(0.866 -0.5 0.5 0.866 2.5011 146.5072)" class="st0" width="6.7" height="1.8"/>
	<rect x="341.8" y="27" transform="matrix(0.866 -0.5 0.5 0.866 32.2914 176.3143)" class="st0" width="6.7" height="1.8"/>
</g>
<circle class="st0" cx="309.9" cy="48.2" r="2.9"/>
<polygon class="st0" points="310.5,12.4 311,48.3 308.8,48.3 309.3,12.4 "/>
<path class="st0" d="M440.9,96.5c-26.6,0-48.2-21.6-48.2-48.2s21.6-48.2,48.2-48.2c26.6,0,48.2,21.6,48.2,48.2
	C489.1,74.8,467.5,96.5,440.9,96.5z M440.9,1c-26.1,0-47.2,21.2-47.2,47.2c0,26.1,21.2,47.2,47.2,47.2s47.2-21.2,47.2-47.2
	C488.1,22.2,466.9,1,440.9,1z"/>
<g>
	<rect x="396.8" y="47.4" class="st0" width="6.7" height="1.8"/>
	<rect x="478.3" y="47.4" class="st0" width="6.7" height="1.8"/>
</g>
<g>
	<rect x="440" y="85.6" class="st0" width="1.8" height="6.7"/>
	<rect x="439.9" y="4.2" class="st0" width="1.8" height="6.7"/>
</g>
<g>
	<rect x="460.3" y="80.2" transform="matrix(0.866 -0.5 0.5 0.866 20.0316 241.8014)" class="st0" width="1.8" height="6.7"/>
	<rect x="419.6" y="9.6" transform="matrix(0.866 -0.5 0.5 0.866 49.8659 211.9939)" class="st0" width="1.8" height="6.7"/>
</g>
<g>
	<rect x="475.2" y="65.3" transform="matrix(0.5 -0.866 0.866 0.5 178.651 446.6538)" class="st0" width="1.8" height="6.7"/>
	<rect x="404.7" y="24.5" transform="matrix(0.5 -0.866 0.866 0.5 178.675 365.1708)" class="st0" width="1.8" height="6.7"/>
</g>
<g>
	<rect x="417.2" y="82.6" transform="matrix(0.5 -0.866 0.866 0.5 137.9513 405.9191)" class="st0" width="6.7" height="1.8"/>
	<rect x="457.9" y="12.1" transform="matrix(0.5 -0.866 0.866 0.5 219.3738 405.9566)" class="st0" width="6.7" height="1.8"/>
</g>
<g>
	<rect x="402.3" y="67.7" transform="matrix(0.866 -0.5 0.5 0.866 20.0571 212.0041)" class="st0" width="6.7" height="1.8"/>
	<rect x="472.8" y="27" transform="matrix(0.866 -0.5 0.5 0.866 49.8474 241.8113)" class="st0" width="6.7" height="1.8"/>
</g>
<circle class="st0" cx="440.9" cy="48.2" r="2.9"/>
<polygon class="st0" points="440.3,83.8 439.7,47.9 442,47.9 441.4,83.8 "/>
<g>
	<path class="st0" d="M18.8,119.2l2-12.7l4.6,10.1l4.7-10.2l1.9,12.7h-1.4l-1.1-8.4l-4.1,8.9l-4-8.9l-1.2,8.4L18.8,119.2L18.8,119.2
		z"/>
	<path class="st0" d="M33.9,115.5c0-2.3,1.7-3.9,4-3.9s4,1.7,4,3.9s-1.7,3.9-4,3.9S33.9,117.8,33.9,115.5z M35.3,115.5
		c0,1.8,1.3,2.8,2.6,2.8c1.4,0,2.6-1,2.6-2.8s-1.3-2.8-2.6-2.8S35.3,113.7,35.3,115.5z"/>
	<path class="st0" d="M46.9,113.5c-0.2-0.4-0.6-0.8-1-0.8c-0.5,0-0.9,0.3-0.9,0.8s0.4,0.7,1.2,1.1c1.1,0.5,1.6,0.8,1.9,1.2
		c0.3,0.4,0.4,0.8,0.4,1.2c0,1.6-1.1,2.4-2.6,2.4c-0.3,0-2,0-2.6-1.9l1.1-0.5c0.1,0.4,0.6,1.2,1.5,1.2c0.8,0,1.2-0.6,1.2-1.2
		c0-0.7-0.5-0.9-1.2-1.2c-0.9-0.4-1.5-0.7-1.8-1.1s-0.3-0.7-0.3-1.1c0-1.3,0.9-2.1,2.2-2.1c0.4,0,1.5,0.1,2.1,1.4L46.9,113.5z"/>
	<path class="st0" d="M56,113.8c-0.7-0.9-1.7-1.1-2.3-1.1c-1.4,0-2.6,1-2.6,2.8s1.3,2.8,2.6,2.8c0.8,0,1.7-0.3,2.4-1.2v1.5
		c-0.8,0.6-1.7,0.8-2.4,0.8c-2.3,0-4-1.7-4-3.9c0-2.3,1.7-4,4-4c1.2,0,2,0.5,2.3,0.7V113.8z"/>
	<path class="st0" d="M57.6,115.5c0-2.3,1.7-3.9,4-3.9s4,1.7,4,3.9s-1.7,3.9-4,3.9S57.6,117.8,57.6,115.5z M58.9,115.5
		c0,1.8,1.3,2.8,2.6,2.8c1.4,0,2.6-1,2.6-2.8s-1.3-2.8-2.6-2.8S58.9,113.7,58.9,115.5z"/>
	<path class="st0" d="M67.8,111.7l2.2,5.1l2.3-5.7l2.3,5.7l2.2-5.1h1.4l-3.7,8l-2.3-5.6l-2.3,5.6l-3.7-8H67.8z"/>
</g>
<g>
	<path class="st0" d="M162.7,107.2c0.7,0,1.9,0.1,2.8,0.8c0.4,0.3,1.1,1,1.1,2.5c0,0.6-0.1,1.6-1.2,2.4c1.7,0.4,2.3,1.9,2.3,3
		s-0.6,2.1-1.2,2.6c-1,0.8-2.1,0.8-2.9,0.8h-3v-12h2.1V107.2z M161.9,112.4h1c0.7,0,2.4-0.1,2.4-2c0-2-1.9-2-2.3-2h-1v4H161.9z
		 M161.9,117.9h1.5c0.8,0,1.5-0.1,2.1-0.5c0.5-0.3,0.8-0.9,0.8-1.7c0-1-0.6-1.5-1-1.8c-0.5-0.3-1.1-0.4-2-0.4h-1.4V117.9z"/>
	<path class="st0" d="M176.4,117.3c-0.2,0.4-0.5,0.9-0.9,1.2c-0.7,0.6-1.5,0.9-2.5,0.9c-1.8,0-3.7-1.1-3.7-3.9c0-2.2,1.4-4,3.6-4
		c1.5,0,2.4,0.7,2.8,1.4c0.5,0.7,0.7,1.8,0.7,2.8h-5.8c0,1.5,1.1,2.5,2.4,2.5c0.6,0,1.1-0.2,1.5-0.5c0.3-0.3,0.6-0.7,0.8-1
		L176.4,117.3z M175.1,114.6c-0.2-1.2-1.1-1.9-2.2-1.9s-2,0.8-2.2,1.9H175.1z"/>
	<path class="st0" d="M178.4,111.7h1.3v0.8c0.1-0.2,0.7-1,1.7-1c0.4,0,0.8,0.1,1.2,0.3L182,113c-0.3-0.2-0.6-0.3-0.8-0.3
		c-0.5,0-0.8,0.2-1,0.5s-0.4,0.8-0.4,2v3.9h-1.3v-7.4H178.4z"/>
	<path class="st0" d="M185,106v13.1h-1.3V106H185z"/>
	<path class="st0" d="M188.1,107.9c0.5,0,0.9,0.4,0.9,0.9s-0.4,0.9-0.9,0.9s-0.9-0.4-0.9-0.9C187.2,108.4,187.6,107.9,188.1,107.9z
		 M188.8,111.7v7.5h-1.3v-7.5H188.8z"/>
	<path class="st0" d="M191.2,111.7h1.3v0.9c0.2-0.3,0.9-1,2.1-1c0.9,0,1.7,0.4,2.1,1s0.4,1.2,0.4,2v4.6h-1.3v-4.6c0-0.5,0-1-0.3-1.4
		c-0.3-0.3-0.6-0.5-1.2-0.5c-0.5,0-0.9,0.1-1.3,0.6c-0.5,0.6-0.5,1.5-0.5,2v3.9h-1.3L191.2,111.7L191.2,111.7z"/>
</g>
<g>
	<path class="st0" d="M290.1,107.2h2.4c1.2,0,2.9,0.1,4.4,1.4c1.1,0.9,2.1,2.4,2.1,4.6c0,2.5-1.2,3.9-2.1,4.6
		c-1.1,0.9-2.3,1.4-4.4,1.4h-2.4V107.2z M291.4,117.9h1.2c1,0,2.3-0.1,3.4-1.1c0.9-0.8,1.6-1.9,1.6-3.7c0-2.9-2-4.8-5.1-4.8h-1.2
		L291.4,117.9L291.4,117.9z"/>
	<path class="st0" d="M302.5,116c0,0.5,0,1.1,0.4,1.6c0.2,0.3,0.6,0.6,1.3,0.6s1.1-0.3,1.3-0.6c0.4-0.5,0.4-1.1,0.4-1.6v-4.4h1.3
		v4.5c0,0.9-0.1,1.6-0.7,2.3c-0.7,0.7-1.5,0.9-2.3,0.9s-1.6-0.2-2.3-0.9c-0.6-0.6-0.7-1.3-0.7-2.3v-4.5h1.3V116z"/>
	<path class="st0" d="M310.8,119.2h-1.3V106h1.3v6.7c0.9-1.1,2-1.2,2.6-1.2c2.3,0,3.6,1.9,3.6,4s-1.3,3.9-3.6,3.9
		c-1.2,0-2.1-0.5-2.6-1.3V119.2z M315.7,115.5c0-1.8-1.2-2.8-2.4-2.8s-2.5,1-2.5,2.8c0,1.5,1,2.8,2.5,2.8
		C314.8,118.2,315.7,117,315.7,115.5z"/>
	<path class="st0" d="M324.7,111.7h1.3v7.5h-1.3v-1c-0.4,0.6-1.2,1.3-2.6,1.3c-1.9,0-3.6-1.3-3.6-4c0-2.6,1.7-3.9,3.6-3.9
		c1.4,0,2.2,0.8,2.6,1.2V111.7z M319.9,115.4c0,1.6,0.9,2.8,2.4,2.8c1.6,0,2.5-1.3,2.5-2.8c0-1.9-1.3-2.8-2.5-2.8
		C321,112.7,319.9,113.6,319.9,115.4z"/>
	<path class="st0" d="M329.1,107.9c0.5,0,0.9,0.4,0.9,0.9s-0.4,0.9-0.9,0.9s-0.9-0.4-0.9-0.9C328.2,108.4,328.6,107.9,329.1,107.9z
		 M329.8,111.7v7.5h-1.3v-7.5H329.8z"/>
</g>
<g>
	<path class="st0" d="M404.6,119.2v-12.5l9.4,9.8v-9.3h1.3v12.5l-9.4-9.8v9.3H404.6z"/>
	<path class="st0" d="M424.7,117.3c-0.2,0.4-0.5,0.9-0.9,1.2c-0.7,0.6-1.5,0.9-2.5,0.9c-1.8,0-3.7-1.1-3.7-3.9c0-2.2,1.4-4,3.6-4
		c1.5,0,2.4,0.7,2.8,1.4c0.5,0.7,0.7,1.8,0.7,2.8h-5.8c0,1.5,1.1,2.5,2.4,2.5c0.6,0,1.1-0.2,1.5-0.5c0.3-0.3,0.6-0.7,0.8-1
		L424.7,117.3z M423.4,114.6c-0.2-1.2-1.1-1.9-2.2-1.9s-2,0.8-2.2,1.9H423.4z"/>
	<path class="st0" d="M427.1,111.7l2.2,5.1l2.3-5.7l2.3,5.7l2.2-5.1h1.4l-3.7,8l-2.3-5.6l-2.3,5.6l-3.7-8H427.1z"/>
	<path class="st0" d="M443.5,107.2h2.4c1.2,0,2.9,0.1,4.4,1.4c1.1,0.9,2.1,2.4,2.1,4.6c0,2.5-1.2,3.9-2.1,4.6
		c-1.1,0.9-2.3,1.4-4.4,1.4h-2.4V107.2z M444.8,117.9h1.2c1,0,2.3-0.1,3.4-1.1c0.9-0.8,1.6-1.9,1.6-3.7c0-2.9-2-4.8-5.1-4.8h-1.2
		L444.8,117.9L444.8,117.9z"/>
	<path class="st0" d="M461.2,117.3c-0.2,0.4-0.5,0.9-0.9,1.2c-0.7,0.6-1.5,0.9-2.5,0.9c-1.8,0-3.7-1.1-3.7-3.9c0-2.2,1.4-4,3.6-4
		c1.5,0,2.4,0.7,2.8,1.4c0.5,0.7,0.7,1.8,0.7,2.8h-5.8c0,1.5,1.1,2.5,2.4,2.5c0.6,0,1.1-0.2,1.5-0.5c0.3-0.3,0.6-0.7,0.8-1
		L461.2,117.3z M459.9,114.6c-0.2-1.2-1.1-1.9-2.2-1.9c-1.1,0-2,0.8-2.2,1.9H459.9z"/>
	<path class="st0" d="M464.5,106v13.1h-1.3V106H464.5z"/>
	<path class="st0" d="M467,106h1.3v6.5c0.2-0.3,0.9-1,2.1-1c0.9,0,1.7,0.4,2.1,1c0.4,0.6,0.4,1.2,0.4,2v4.6h-1.3v-4.6
		c0-0.5,0-1-0.3-1.4c-0.3-0.3-0.6-0.5-1.2-0.5c-0.5,0-0.9,0.1-1.3,0.6c-0.5,0.6-0.5,1.5-0.5,2v3.9H467V106z"/>
	<path class="st0" d="M476.1,107.9c0.5,0,0.9,0.4,0.9,0.9s-0.4,0.9-0.9,0.9s-0.9-0.4-0.9-0.9C475.2,108.4,475.6,107.9,476.1,107.9z
		 M476.7,111.7v7.5h-1.3v-7.5H476.7z"/>
</g>
<polygon class="st0" points="297.9,28.6 309,48.9 310.9,47.7 298.9,28 "/>
<polygon class="st0" points="440.2,24.7 439.7,47.7 441.9,47.7 441.4,24.7 "/>
</svg>
