<?xml version="1.0" encoding="utf-8"?>
<!-- Generator: Adobe Illustrator 23.0.3, SVG Export Plug-In . SVG Version: 6.00 Build 0)  -->
<svg version="1.1" id="Слой_1" xmlns="http://www.w3.org/2000/svg" xmlns:xlink="http://www.w3.org/1999/xlink" x="0px" y="0px"
	 viewBox="0 0 153 91.7" style="enable-background:new 0 0 153 91.7;" xml:space="preserve">
<style type="text/css">
	.st0{fill:none;stroke:url(#SVGID_1_);stroke-miterlimit:10;}
	.st1{fill:none;stroke:url(#SVGID_2_);stroke-miterlimit:10;}
	.st2{fill:none;stroke:url(#SVGID_3_);stroke-miterlimit:10;}
	.st3{fill:none;stroke:url(#SVGID_4_);stroke-miterlimit:10;}
	.st4{fill:none;stroke:url(#SVGID_5_);stroke-miterlimit:10;}
	.st5{fill:url(#SVGID_6_);}
	.st6{fill:url(#SVGID_7_);}
	.st7{fill:url(#SVGID_8_);}
	.st8{fill:url(#SVGID_9_);}
	.st9{fill:url(#SVGID_10_);}
	.st10{fill:url(#SVGID_11_);}
	.st11{fill:url(#SVGID_12_);}
	.st12{fill:url(#SVGID_13_);}
	.st13{fill:url(#SVGID_14_);}
	.st14{fill:url(#SVGID_15_);}
</style>
<linearGradient id="SVGID_1_" gradientUnits="userSpaceOnUse" x1="58.6611" y1="49.4217" x2="119.3602" y2="49.4217">
	<stop  offset="0" style="stop-color:#12397F"/>
	<stop  offset="0.713" style="stop-color:#3A71CE"/>
	<stop  offset="1" style="stop-color:#3A71CE"/>
</linearGradient>
<line class="st0" x1="58.8" y1="60.6" x2="119.2" y2="38.2"/>
<linearGradient id="SVGID_2_" gradientUnits="userSpaceOnUse" x1="122.0532" y1="62.0281" x2="123.0532" y2="62.0281">
	<stop  offset="0" style="stop-color:#12397F"/>
	<stop  offset="0.713" style="stop-color:#3A71CE"/>
	<stop  offset="1" style="stop-color:#3A71CE"/>
</linearGradient>
<line class="st1" x1="122.6" y1="33.7" x2="122.6" y2="90.4"/>
<linearGradient id="SVGID_3_" gradientUnits="userSpaceOnUse" x1="53.5" y1="73.6451" x2="54.5" y2="73.6451">
	<stop  offset="0" style="stop-color:#12397F"/>
	<stop  offset="0.713" style="stop-color:#3A71CE"/>
	<stop  offset="1" style="stop-color:#3A71CE"/>
</linearGradient>
<line class="st2" x1="54" y1="56.8" x2="54" y2="90.5"/>
<linearGradient id="SVGID_4_" gradientUnits="userSpaceOnUse" x1="58.1436" y1="61.1185" x2="59.1436" y2="61.1185">
	<stop  offset="0" style="stop-color:#12397F"/>
	<stop  offset="0.713" style="stop-color:#3A71CE"/>
	<stop  offset="1" style="stop-color:#3A71CE"/>
</linearGradient>
<line class="st3" x1="58.6" y1="66.6" x2="58.6" y2="55.7"/>
<linearGradient id="SVGID_5_" gradientUnits="userSpaceOnUse" x1="118.984" y1="40.3977" x2="119.984" y2="40.3977">
	<stop  offset="0" style="stop-color:#12397F"/>
	<stop  offset="0.713" style="stop-color:#3A71CE"/>
	<stop  offset="1" style="stop-color:#3A71CE"/>
</linearGradient>
<line class="st4" x1="119.5" y1="45.9" x2="119.5" y2="34.9"/>
<linearGradient id="SVGID_6_" gradientUnits="userSpaceOnUse" x1="20.6832" y1="68.6312" x2="54.2665" y2="55.917">
	<stop  offset="0" style="stop-color:#12397F"/>
	<stop  offset="0.713" style="stop-color:#3A71CE"/>
	<stop  offset="1" style="stop-color:#3A71CE"/>
</linearGradient>
<path class="st5" d="M41.1,77l-20.4-8.4l-0.5-1.5L32.4,48l1.2-0.4L54.3,56l0.5,1.5L42.3,76.6L41.1,77z M22.6,67.2l18.5,7.6
	l11.3-17.4l-18.7-7.6L22.6,67.2z"/>
<linearGradient id="SVGID_7_" gradientUnits="userSpaceOnUse" x1="55.5062" y1="74.5758" x2="122.3397" y2="49.2735">
	<stop  offset="0" style="stop-color:#12397F"/>
	<stop  offset="0.713" style="stop-color:#3A71CE"/>
	<stop  offset="1" style="stop-color:#3A71CE"/>
</linearGradient>
<path class="st6" d="M59.7,82.8l-1.4-0.9l-0.2-16.8l0.6-0.9l59.7-23.3l1.3,1.4L109,62.9l-0.5,0.5L59.7,82.8z M60.1,65.8l0.2,14.6
	l47.2-18.8l9.3-17.9L60.1,65.8z"/>
<linearGradient id="SVGID_8_" gradientUnits="userSpaceOnUse" x1="20.2299" y1="79.1908" x2="42.4555" y2="79.1908">
	<stop  offset="0" style="stop-color:#12397F"/>
	<stop  offset="0.713" style="stop-color:#3A71CE"/>
	<stop  offset="1" style="stop-color:#3A71CE"/>
</linearGradient>
<path class="st7" d="M41.4,91.6H21.2l-1-1V67.7l1.4-0.9l20.2,8.3l0.6,0.9l0,14.5L41.4,91.6z M22.2,89.6h18.2l0-12.8l-18.2-7.5V89.6z
	"/>
<linearGradient id="SVGID_9_" gradientUnits="userSpaceOnUse" x1="40.4126" y1="61.769" x2="133.7856" y2="61.769">
	<stop  offset="0" style="stop-color:#12397F"/>
	<stop  offset="0.713" style="stop-color:#3A71CE"/>
	<stop  offset="1" style="stop-color:#3A71CE"/>
</linearGradient>
<path class="st8" d="M132,91.6h-14l-1-1l1-47.3l-58,22.5l0.2,24.7l-1,1H41.4l-1-1l0-14.5l0.2-0.5l12.5-19.2l0.5-0.4l68.8-24l0.9,0.1
	l10,7.2l0.4,0.8L133,90.6L132,91.6z M119.1,89.6h12l0.7-48.9l-9.2-6.6l-68,23.7L42.4,76.4l0,13.2h15.9l-0.2-24.4l0.6-0.9l60-23.3
	l1.4,1L119.1,89.6z"/>
<linearGradient id="SVGID_10_" gradientUnits="userSpaceOnUse" x1="96.212" y1="75.0412" x2="127.6309" y2="63.1465">
	<stop  offset="0" style="stop-color:#12397F"/>
	<stop  offset="0.713" style="stop-color:#3A71CE"/>
	<stop  offset="1" style="stop-color:#3A71CE"/>
</linearGradient>
<path class="st9" d="M118.1,91.6h-15l-1-1V64.4l0.6-0.9l4.7-1.8L117.9,42l1.9,0.5l-0.8,48.1L118.1,91.6z M104.1,89.6h13l0.7-43
	L109,62.9l-0.5,0.5l-4.4,1.7V89.6z"/>
<linearGradient id="SVGID_11_" gradientUnits="userSpaceOnUse" x1="35.6648" y1="56.7728" x2="120.3087" y2="24.7279">
	<stop  offset="0" style="stop-color:#12397F"/>
	<stop  offset="0.713" style="stop-color:#3A71CE"/>
	<stop  offset="1" style="stop-color:#3A71CE"/>
</linearGradient>
<path class="st10" d="M54.2,57.9l-0.7,0l-20.6-8.4l0.1-1.9l70.2-22l0.6,0l19.2,6.3l0,1.9L54.2,57.9z M36.2,48.7l17.7,7.2l65.7-22.9
	l-16.1-5.3L36.2,48.7z"/>
<linearGradient id="SVGID_12_" gradientUnits="userSpaceOnUse" x1="70.7107" y1="39.5661" x2="90.8796" y2="39.5661">
	<stop  offset="0" style="stop-color:#12397F"/>
	<stop  offset="0.713" style="stop-color:#3A71CE"/>
	<stop  offset="1" style="stop-color:#3A71CE"/>
</linearGradient>
<path class="st11" d="M90.7,37.4l-4-1.3c-0.3-0.1-0.6-0.1-0.9,0l-14.8,4.7c-0.3,0.1-0.3,0.5,0,0.6l3.9,1.7c0.4,0.2,0.7,0.2,1.1,0
	l14.8-5.1C91,37.8,90.9,37.5,90.7,37.4z"/>
<linearGradient id="SVGID_13_" gradientUnits="userSpaceOnUse" x1="25.6939" y1="61.7403" x2="48.3173" y2="61.7403">
	<stop  offset="0" style="stop-color:#12397F"/>
	<stop  offset="0.713" style="stop-color:#3A71CE"/>
	<stop  offset="1" style="stop-color:#3A71CE"/>
</linearGradient>
<path class="st12" d="M38.6,71.5l-11.9-5.2c-0.9-0.4-1.3-1.6-0.7-2.4l7.4-11.3c0.4-0.7,1.3-0.9,2-0.6l11.9,5.2
	c0.9,0.4,1.3,1.6,0.7,2.4l-7.4,11.3C40.2,71.6,39.4,71.8,38.6,71.5z"/>
<linearGradient id="SVGID_14_" gradientUnits="userSpaceOnUse" x1="51.0886" y1="35.7399" x2="55.943" y2="35.7399">
	<stop  offset="0" style="stop-color:#12397F"/>
	<stop  offset="0.713" style="stop-color:#3A71CE"/>
	<stop  offset="1" style="stop-color:#3A71CE"/>
</linearGradient>
<path class="st13" d="M55.9,23h-4.9v24.8c0.4,0.2,1.2,0.6,2.3,0.6c1.2,0,2.1-0.4,2.5-0.6C55.9,39.6,55.9,31.3,55.9,23z"/>
<linearGradient id="SVGID_15_" gradientUnits="userSpaceOnUse" x1="45.3351" y1="11.674" x2="61.6965" y2="11.674">
	<stop  offset="0" style="stop-color:#12397F"/>
	<stop  offset="0.713" style="stop-color:#3A71CE"/>
	<stop  offset="1" style="stop-color:#3A71CE"/>
</linearGradient>
<path class="st14" d="M58,0.8h-8.9c-2.1,0-3.7,1.7-3.7,3.7v14.4c0,2.1,1.7,3.7,3.7,3.7H58c2.1,0,3.7-1.7,3.7-3.7V4.5
	C61.7,2.4,60,0.8,58,0.8z M50.8,19.3c-1.6,0-2.8-1.3-2.8-2.8c0-1.6,1.3-2.8,2.8-2.8c1.6,0,2.8,1.3,2.8,2.8
	C53.7,18.1,52.4,19.3,50.8,19.3z M50.8,9.6c-1.6,0-2.8-1.3-2.8-2.8C48,5.2,49.3,4,50.8,4c1.6,0,2.8,1.3,2.8,2.8
	C53.7,8.4,52.4,9.6,50.8,9.6z"/>
</svg>
