<?xml version="1.0" encoding="utf-8"?>
<!-- Generator: Adobe Illustrator 23.0.3, SVG Export Plug-In . SVG Version: 6.00 Build 0)  -->
<svg version="1.1" id="Слой_1" xmlns="http://www.w3.org/2000/svg" xmlns:xlink="http://www.w3.org/1999/xlink" x="0px" y="0px"
	 viewBox="0 0 500 550" style="enable-background:new 0 0 500 550;" xml:space="preserve">
<style type="text/css">
	.st0{fill:none;stroke:#4F89B9;stroke-width:0.6593;stroke-linecap:round;stroke-linejoin:round;stroke-miterlimit:10;}
	.st1{fill:#4F89B9;}
</style>
<line class="st0" x1="54.3" y1="317.1" x2="54.3" y2="317.6"/>
<line class="st0" x1="54.3" y1="317.6" x2="54.4" y2="318.2"/>
<line class="st0" x1="54.4" y1="318.2" x2="54.7" y2="319.3"/>
<line class="st0" x1="54.7" y1="319.3" x2="55.1" y2="320.5"/>
<line class="st0" x1="55.1" y1="320.5" x2="55.4" y2="321"/>
<line class="st0" x1="55.4" y1="321" x2="55.7" y2="321.6"/>
<line class="st0" x1="55.7" y1="321.6" x2="56.1" y2="322.1"/>
<line class="st0" x1="56.1" y1="322.1" x2="56.4" y2="322.6"/>
<line class="st0" x1="56.4" y1="322.6" x2="57.4" y2="323.5"/>
<line class="st0" x1="57.4" y1="323.5" x2="58.4" y2="324.5"/>
<line class="st0" x1="58.4" y1="324.5" x2="69.4" y2="332.7"/>
<line class="st0" x1="69.4" y1="332.7" x2="80.6" y2="340.6"/>
<line class="st0" x1="80.6" y1="340.6" x2="92.1" y2="348.3"/>
<line class="st0" x1="92.1" y1="348.3" x2="103.8" y2="355.5"/>
<line class="st0" x1="103.8" y1="355.5" x2="115.6" y2="362.3"/>
<line class="st0" x1="115.6" y1="362.3" x2="127.7" y2="368.8"/>
<line class="st0" x1="127.7" y1="368.8" x2="140" y2="375"/>
<line class="st0" x1="140" y1="375" x2="152.4" y2="380.7"/>
<line class="st0" x1="152.4" y1="380.7" x2="165.1" y2="386.1"/>
<line class="st0" x1="165.1" y1="386.1" x2="166.6" y2="386.7"/>
<line class="st0" x1="166.6" y1="386.7" x2="168.2" y2="387.1"/>
<line class="st0" x1="168.2" y1="387.1" x2="169.8" y2="387.4"/>
<line class="st0" x1="169.8" y1="387.4" x2="171.6" y2="387.7"/>
<line class="st0" x1="171.6" y1="387.7" x2="173.3" y2="387.9"/>
<line class="st0" x1="173.3" y1="387.9" x2="175.1" y2="387.9"/>
<line class="st0" x1="175.1" y1="387.9" x2="176.9" y2="387.7"/>
<line class="st0" x1="176.9" y1="387.7" x2="178.8" y2="387.5"/>
<line class="st0" x1="178.8" y1="387.5" x2="180.5" y2="387.2"/>
<line class="st0" x1="180.5" y1="387.2" x2="182.3" y2="386.9"/>
<line class="st0" x1="182.3" y1="386.9" x2="184.1" y2="386.4"/>
<line class="st0" x1="184.1" y1="386.4" x2="185.8" y2="385.9"/>
<line class="st0" x1="185.8" y1="385.9" x2="189.2" y2="384.7"/>
<line class="st0" x1="189.2" y1="384.7" x2="192.3" y2="383.5"/>
<line class="st0" x1="192.3" y1="383.5" x2="195.5" y2="382.1"/>
<line class="st0" x1="195.5" y1="382.1" x2="198.5" y2="380.5"/>
<line class="st0" x1="198.5" y1="380.5" x2="201.4" y2="378.9"/>
<line class="st0" x1="201.4" y1="378.9" x2="204.3" y2="377.2"/>
<line class="st0" x1="204.3" y1="377.2" x2="209.8" y2="373.9"/>
<line class="st0" x1="209.8" y1="373.9" x2="215.1" y2="370.2"/>
<line class="st0" x1="215.1" y1="370.2" x2="235.4" y2="356.3"/>
<line class="st0" x1="235.4" y1="356.3" x2="256" y2="342.6"/>
<line class="st0" x1="256" y1="342.6" x2="276.9" y2="329.2"/>
<line class="st0" x1="276.9" y1="329.2" x2="297.9" y2="316.3"/>
<line class="st0" x1="297.9" y1="316.3" x2="319.2" y2="303.9"/>
<line class="st0" x1="319.2" y1="303.9" x2="340.8" y2="291.7"/>
<line class="st0" x1="340.8" y1="291.7" x2="362.5" y2="279.9"/>
<line class="st0" x1="362.5" y1="279.9" x2="384.4" y2="268.6"/>
<line class="st0" x1="384.4" y1="268.6" x2="406.6" y2="257.7"/>
<line class="st0" x1="406.6" y1="257.7" x2="428.9" y2="247.1"/>
<line class="st0" x1="428.9" y1="247.1" x2="430.1" y2="246.6"/>
<line class="st0" x1="430.1" y1="246.6" x2="431.2" y2="246"/>
<line class="st0" x1="431.2" y1="246" x2="432.2" y2="245.4"/>
<line class="st0" x1="432.2" y1="245.4" x2="433.1" y2="244.7"/>
<line class="st0" x1="433.1" y1="244.7" x2="433.8" y2="243.9"/>
<line class="st0" x1="433.8" y1="243.9" x2="434.5" y2="243.2"/>
<line class="st0" x1="434.5" y1="243.2" x2="434.8" y2="242.3"/>
<line class="st0" x1="434.8" y1="242.3" x2="435" y2="241.5"/>
<line class="st0" x1="435" y1="241.5" x2="435" y2="241.3"/>
<line class="st0" x1="435" y1="241.3" x2="435" y2="241.1"/>
<line class="st0" x1="54.3" y1="317.1" x2="54.8" y2="319.9"/>
<line class="st0" x1="54.8" y1="319.9" x2="55.4" y2="322.5"/>
<line class="st0" x1="55.4" y1="322.5" x2="56.5" y2="325.1"/>
<line class="st0" x1="56.5" y1="325.1" x2="57.9" y2="327.7"/>
<line class="st0" x1="57.9" y1="327.7" x2="59.6" y2="330.2"/>
<line class="st0" x1="59.6" y1="330.2" x2="61.4" y2="332.5"/>
<line class="st0" x1="61.4" y1="332.5" x2="63.4" y2="334.7"/>
<line class="st0" x1="63.4" y1="334.7" x2="65.5" y2="336.8"/>
<line class="st0" x1="65.5" y1="336.8" x2="69.1" y2="340"/>
<line class="st0" x1="69.1" y1="340" x2="72.7" y2="343"/>
<line class="st0" x1="72.7" y1="343" x2="75.7" y2="345.4"/>
<line class="st0" x1="75.7" y1="345.4" x2="78.6" y2="347.6"/>
<line class="st0" x1="78.6" y1="347.6" x2="87.2" y2="354"/>
<line class="st0" x1="87.2" y1="354" x2="95.8" y2="359.9"/>
<line class="st0" x1="95.8" y1="359.9" x2="104.3" y2="365.3"/>
<line class="st0" x1="104.3" y1="365.3" x2="112.8" y2="370.7"/>
<line class="st0" x1="112.8" y1="370.7" x2="121.8" y2="375.8"/>
<line class="st0" x1="121.8" y1="375.8" x2="131" y2="380.9"/>
<line class="st0" x1="131" y1="380.9" x2="140.3" y2="385.7"/>
<line class="st0" x1="140.3" y1="385.7" x2="149.8" y2="390.4"/>
<line class="st0" x1="149.8" y1="390.4" x2="156.1" y2="393.2"/>
<line class="st0" x1="156.1" y1="393.2" x2="162.5" y2="396"/>
<line class="st0" x1="162.5" y1="396" x2="164" y2="396.7"/>
<line class="st0" x1="164" y1="396.7" x2="165.7" y2="397.4"/>
<line class="st0" x1="165.7" y1="397.4" x2="167.6" y2="398"/>
<line class="st0" x1="167.6" y1="398" x2="169.6" y2="398.7"/>
<line class="st0" x1="169.6" y1="398.7" x2="173.4" y2="399.7"/>
<line class="st0" x1="173.4" y1="399.7" x2="177.6" y2="400.2"/>
<line class="st0" x1="177.6" y1="400.2" x2="181.4" y2="400.3"/>
<line class="st0" x1="181.4" y1="400.3" x2="185.2" y2="400.2"/>
<line class="st0" x1="185.2" y1="400.2" x2="188.7" y2="399.7"/>
<line class="st0" x1="188.7" y1="399.7" x2="192.1" y2="398.9"/>
<line class="st0" x1="192.1" y1="398.9" x2="194.6" y2="398"/>
<line class="st0" x1="194.6" y1="398" x2="197.2" y2="397"/>
<line class="st0" x1="197.2" y1="397" x2="199.5" y2="396"/>
<line class="st0" x1="199.5" y1="396" x2="201.8" y2="394.7"/>
<line class="st0" x1="201.8" y1="394.7" x2="206.2" y2="392.5"/>
<line class="st0" x1="206.2" y1="392.5" x2="210.7" y2="390.2"/>
<line class="st0" x1="210.7" y1="390.2" x2="215.4" y2="387.5"/>
<line class="st0" x1="215.4" y1="387.5" x2="220.1" y2="385"/>
<line class="st0" x1="220.1" y1="385" x2="232" y2="378.5"/>
<line class="st0" x1="232" y1="378.5" x2="243.9" y2="371.9"/>
<line class="st0" x1="243.9" y1="371.9" x2="266.8" y2="359.1"/>
<line class="st0" x1="266.8" y1="359.1" x2="289.7" y2="346.2"/>
<line class="st0" x1="289.7" y1="346.2" x2="312.6" y2="332.8"/>
<line class="st0" x1="312.6" y1="332.8" x2="335.6" y2="319.4"/>
<line class="st0" x1="335.6" y1="319.4" x2="342.5" y2="315.2"/>
<line class="st0" x1="342.5" y1="315.2" x2="349.5" y2="311.1"/>
<line class="st0" x1="349.5" y1="311.1" x2="355.7" y2="307.4"/>
<line class="st0" x1="355.7" y1="307.4" x2="361.9" y2="303.6"/>
<line class="st0" x1="361.9" y1="303.6" x2="368" y2="300"/>
<line class="st0" x1="368" y1="300" x2="374.2" y2="296.2"/>
<line class="st0" x1="374.2" y1="296.2" x2="377.9" y2="293.9"/>
<line class="st0" x1="377.9" y1="293.9" x2="381.8" y2="291.5"/>
<line class="st0" x1="381.8" y1="291.5" x2="386" y2="288.9"/>
<line class="st0" x1="386" y1="288.9" x2="390.3" y2="286.1"/>
<line class="st0" x1="390.3" y1="286.1" x2="395.3" y2="283"/>
<line class="st0" x1="395.3" y1="283" x2="400.4" y2="279.7"/>
<line class="st0" x1="400.4" y1="279.7" x2="404.8" y2="276.5"/>
<line class="st0" x1="404.8" y1="276.5" x2="409.4" y2="273.1"/>
<line class="st0" x1="409.4" y1="273.1" x2="414.8" y2="268.9"/>
<line class="st0" x1="414.8" y1="268.9" x2="420" y2="264.3"/>
<line class="st0" x1="420" y1="264.3" x2="422.8" y2="261.6"/>
<line class="st0" x1="422.8" y1="261.6" x2="425.3" y2="258.9"/>
<line class="st0" x1="425.3" y1="258.9" x2="427.7" y2="256.1"/>
<line class="st0" x1="427.7" y1="256.1" x2="430" y2="253.1"/>
<line class="st0" x1="430" y1="253.1" x2="432" y2="250.2"/>
<line class="st0" x1="432" y1="250.2" x2="432.8" y2="248.6"/>
<line class="st0" x1="432.8" y1="248.6" x2="433.6" y2="247"/>
<line class="st0" x1="433.6" y1="247" x2="434" y2="245.7"/>
<line class="st0" x1="434" y1="245.7" x2="434.5" y2="244.1"/>
<line class="st0" x1="434.5" y1="244.1" x2="434.8" y2="242.7"/>
<line class="st0" x1="434.8" y1="242.7" x2="435" y2="241.1"/>
<line class="st0" x1="394.3" y1="203.1" x2="458" y2="166.5"/>
<line class="st0" x1="452.5" y1="156.2" x2="383.1" y2="196.2"/>
<line class="st0" x1="428.9" y1="247.1" x2="430.1" y2="246.6"/>
<line class="st0" x1="430.1" y1="246.6" x2="431.2" y2="246"/>
<line class="st0" x1="431.2" y1="246" x2="432.2" y2="245.4"/>
<line class="st0" x1="432.2" y1="245.4" x2="433.1" y2="244.7"/>
<line class="st0" x1="433.1" y1="244.7" x2="433.8" y2="243.9"/>
<line class="st0" x1="433.8" y1="243.9" x2="434.5" y2="243.2"/>
<line class="st0" x1="434.5" y1="243.2" x2="434.8" y2="242.3"/>
<line class="st0" x1="434.8" y1="242.3" x2="435" y2="241.5"/>
<line class="st0" x1="435" y1="241.5" x2="435" y2="241.1"/>
<line class="st0" x1="435" y1="241.1" x2="435" y2="240.6"/>
<line class="st0" x1="215.1" y1="370.2" x2="235.4" y2="356.3"/>
<line class="st0" x1="235.4" y1="356.3" x2="256" y2="342.6"/>
<line class="st0" x1="256" y1="342.6" x2="276.9" y2="329.2"/>
<line class="st0" x1="276.9" y1="329.2" x2="297.9" y2="316.3"/>
<line class="st0" x1="297.9" y1="316.3" x2="319.2" y2="303.9"/>
<line class="st0" x1="319.2" y1="303.9" x2="340.8" y2="291.7"/>
<line class="st0" x1="340.8" y1="291.7" x2="362.5" y2="279.9"/>
<line class="st0" x1="362.5" y1="279.9" x2="384.4" y2="268.6"/>
<line class="st0" x1="384.4" y1="268.6" x2="406.6" y2="257.7"/>
<line class="st0" x1="406.6" y1="257.7" x2="428.9" y2="247.1"/>
<line class="st0" x1="165.1" y1="386.1" x2="166.6" y2="386.7"/>
<line class="st0" x1="166.6" y1="386.7" x2="168.2" y2="387.1"/>
<line class="st0" x1="168.2" y1="387.1" x2="169.8" y2="387.4"/>
<line class="st0" x1="169.8" y1="387.4" x2="171.6" y2="387.7"/>
<line class="st0" x1="171.6" y1="387.7" x2="173.3" y2="387.9"/>
<line class="st0" x1="173.3" y1="387.9" x2="175.1" y2="387.9"/>
<line class="st0" x1="175.1" y1="387.9" x2="176.9" y2="387.7"/>
<line class="st0" x1="176.9" y1="387.7" x2="178.8" y2="387.5"/>
<line class="st0" x1="178.8" y1="387.5" x2="180.5" y2="387.2"/>
<line class="st0" x1="180.5" y1="387.2" x2="182.3" y2="386.9"/>
<line class="st0" x1="182.3" y1="386.9" x2="184.1" y2="386.4"/>
<line class="st0" x1="184.1" y1="386.4" x2="185.8" y2="385.9"/>
<line class="st0" x1="185.8" y1="385.9" x2="189.2" y2="384.7"/>
<line class="st0" x1="189.2" y1="384.7" x2="192.3" y2="383.5"/>
<line class="st0" x1="192.3" y1="383.5" x2="195.5" y2="382.1"/>
<line class="st0" x1="195.5" y1="382.1" x2="198.5" y2="380.5"/>
<line class="st0" x1="198.5" y1="380.5" x2="201.4" y2="378.9"/>
<line class="st0" x1="201.4" y1="378.9" x2="204.3" y2="377.2"/>
<line class="st0" x1="204.3" y1="377.2" x2="209.8" y2="373.9"/>
<line class="st0" x1="209.8" y1="373.9" x2="215.1" y2="370.2"/>
<line class="st0" x1="58.4" y1="324.5" x2="69.4" y2="332.7"/>
<line class="st0" x1="69.4" y1="332.7" x2="80.6" y2="340.6"/>
<line class="st0" x1="80.6" y1="340.6" x2="92.1" y2="348.3"/>
<line class="st0" x1="92.1" y1="348.3" x2="103.8" y2="355.5"/>
<line class="st0" x1="103.8" y1="355.5" x2="115.6" y2="362.3"/>
<line class="st0" x1="115.6" y1="362.3" x2="127.7" y2="368.8"/>
<line class="st0" x1="127.7" y1="368.8" x2="140" y2="375"/>
<line class="st0" x1="140" y1="375" x2="152.4" y2="380.7"/>
<line class="st0" x1="152.4" y1="380.7" x2="165.1" y2="386.1"/>
<line class="st0" x1="54.3" y1="316.2" x2="54.3" y2="317.2"/>
<line class="st0" x1="54.3" y1="317.2" x2="54.4" y2="318.2"/>
<line class="st0" x1="54.4" y1="318.2" x2="54.7" y2="319.3"/>
<line class="st0" x1="54.7" y1="319.3" x2="55.1" y2="320.5"/>
<line class="st0" x1="55.1" y1="320.5" x2="55.4" y2="321"/>
<line class="st0" x1="55.4" y1="321" x2="55.7" y2="321.6"/>
<line class="st0" x1="55.7" y1="321.6" x2="56.1" y2="322.1"/>
<line class="st0" x1="56.1" y1="322.1" x2="56.4" y2="322.6"/>
<line class="st0" x1="56.4" y1="322.6" x2="57.4" y2="323.5"/>
<line class="st0" x1="57.4" y1="323.5" x2="58.4" y2="324.5"/>
<line class="st0" x1="58.5" y1="321.4" x2="58.5" y2="323.4"/>
<line class="st0" x1="165.2" y1="382.9" x2="165.1" y2="385"/>
<line class="st0" x1="428.9" y1="246" x2="428.8" y2="243.9"/>
<line class="st0" x1="56.4" y1="306.1" x2="56.3" y2="306.4"/>
<line class="st0" x1="56.3" y1="306.4" x2="56.1" y2="306.8"/>
<line class="st0" x1="56.1" y1="306.8" x2="55.3" y2="308.6"/>
<line class="st0" x1="55.3" y1="308.6" x2="54.9" y2="310.3"/>
<line class="st0" x1="54.9" y1="310.3" x2="54.7" y2="311.3"/>
<line class="st0" x1="54.7" y1="311.3" x2="54.7" y2="312.2"/>
<line class="st0" x1="54.7" y1="312.2" x2="54.7" y2="313.1"/>
<line class="st0" x1="54.7" y1="313.1" x2="54.7" y2="313.9"/>
<line class="st0" x1="54.7" y1="313.9" x2="54.9" y2="314.8"/>
<line class="st0" x1="54.9" y1="314.8" x2="55.1" y2="315.7"/>
<line class="st0" x1="55.1" y1="315.7" x2="55.5" y2="316.6"/>
<line class="st0" x1="55.5" y1="316.6" x2="56" y2="317.3"/>
<line class="st0" x1="56" y1="317.3" x2="56.5" y2="318.1"/>
<line class="st0" x1="56.5" y1="318.1" x2="58.6" y2="320.2"/>
<line class="st0" x1="62" y1="322.7" x2="69.5" y2="328.5"/>
<line class="st0" x1="69.5" y1="328.5" x2="80.8" y2="336.3"/>
<line class="st0" x1="80.8" y1="336.3" x2="92.3" y2="343.9"/>
<line class="st0" x1="92.3" y1="343.9" x2="103.9" y2="351.1"/>
<line class="st0" x1="103.9" y1="351.1" x2="115.8" y2="358"/>
<line class="st0" x1="115.8" y1="358" x2="127.9" y2="364.5"/>
<line class="st0" x1="127.9" y1="364.5" x2="140.2" y2="370.6"/>
<line class="st0" x1="140.2" y1="370.6" x2="152.6" y2="376.4"/>
<line class="st0" x1="152.6" y1="376.4" x2="161.5" y2="380.2"/>
<line class="st0" x1="165.3" y1="381.7" x2="166" y2="382.1"/>
<line class="st0" x1="166" y1="382.1" x2="166.8" y2="382.3"/>
<line class="st0" x1="166.8" y1="382.3" x2="167.5" y2="382.5"/>
<line class="st0" x1="167.5" y1="382.5" x2="168.3" y2="382.7"/>
<line class="st0" x1="168.3" y1="382.7" x2="169.8" y2="383"/>
<line class="st0" x1="169.8" y1="383" x2="171.5" y2="383.3"/>
<line class="st0" x1="171.5" y1="383.3" x2="173" y2="383.5"/>
<line class="st0" x1="173" y1="383.5" x2="174.6" y2="383.5"/>
<line class="st0" x1="174.6" y1="383.5" x2="176.4" y2="383.4"/>
<line class="st0" x1="176.4" y1="383.4" x2="178" y2="383.3"/>
<line class="st0" x1="178" y1="383.3" x2="179.7" y2="383"/>
<line class="st0" x1="179.7" y1="383" x2="181.3" y2="382.7"/>
<line class="st0" x1="181.3" y1="382.7" x2="182.9" y2="382.3"/>
<line class="st0" x1="182.9" y1="382.3" x2="184.6" y2="381.8"/>
<line class="st0" x1="184.6" y1="381.8" x2="186.2" y2="381.4"/>
<line class="st0" x1="186.2" y1="381.4" x2="187.8" y2="380.9"/>
<line class="st0" x1="187.8" y1="380.9" x2="190.8" y2="379.7"/>
<line class="st0" x1="190.8" y1="379.7" x2="193.8" y2="378.5"/>
<line class="st0" x1="193.8" y1="378.5" x2="196.6" y2="377"/>
<line class="st0" x1="196.6" y1="377" x2="199.5" y2="375.6"/>
<line class="st0" x1="199.5" y1="375.6" x2="202.2" y2="374.1"/>
<line class="st0" x1="202.2" y1="374.1" x2="204.8" y2="372.5"/>
<line class="st0" x1="204.8" y1="372.5" x2="210" y2="369.3"/>
<line class="st0" x1="210" y1="369.3" x2="214.9" y2="366"/>
<line class="st0" x1="214.9" y1="366" x2="235.2" y2="351.9"/>
<line class="st0" x1="235.2" y1="351.9" x2="255.9" y2="338.2"/>
<line class="st0" x1="255.9" y1="338.2" x2="276.7" y2="325"/>
<line class="st0" x1="276.7" y1="325" x2="297.8" y2="312.1"/>
<line class="st0" x1="297.8" y1="312.1" x2="319" y2="299.5"/>
<line class="st0" x1="319" y1="299.5" x2="340.5" y2="287.3"/>
<line class="st0" x1="340.5" y1="287.3" x2="362.3" y2="275.6"/>
<line class="st0" x1="362.3" y1="275.6" x2="384.3" y2="264.3"/>
<line class="st0" x1="384.3" y1="264.3" x2="406.4" y2="253.3"/>
<line class="st0" x1="406.4" y1="253.3" x2="428.8" y2="242.8"/>
<line class="st0" x1="428.8" y1="242.8" x2="429.9" y2="242.3"/>
<line class="st0" x1="429.9" y1="242.3" x2="431" y2="241.6"/>
<line class="st0" x1="431" y1="241.6" x2="431.9" y2="241.1"/>
<line class="st0" x1="431.9" y1="241.1" x2="432.6" y2="240.5"/>
<line class="st0" x1="432.6" y1="240.5" x2="433.4" y2="239.9"/>
<line class="st0" x1="433.4" y1="239.9" x2="433.9" y2="239.2"/>
<line class="st0" x1="433.9" y1="239.2" x2="434.4" y2="238.6"/>
<line class="st0" x1="434.4" y1="238.6" x2="434.6" y2="237.9"/>
<line class="st0" x1="434.6" y1="237.9" x2="434.7" y2="237.5"/>
<line class="st0" x1="434.7" y1="237.5" x2="434.8" y2="237.1"/>
<line class="st0" x1="434.8" y1="237.1" x2="434.8" y2="236.8"/>
<line class="st0" x1="434.8" y1="236.8" x2="434.8" y2="236.4"/>
<line class="st0" x1="434.8" y1="236.4" x2="434.6" y2="235.6"/>
<line class="st0" x1="434.6" y1="235.6" x2="434.4" y2="234.9"/>
<line class="st0" x1="434.4" y1="234.9" x2="434.2" y2="234.5"/>
<line class="st0" x1="434.2" y1="234.5" x2="433.9" y2="234.1"/>
<line class="st0" x1="317.5" y1="162.3" x2="316.7" y2="162"/>
<line class="st0" x1="316.7" y1="162" x2="315.8" y2="161.8"/>
<line class="st0" x1="315.8" y1="161.8" x2="314.7" y2="161.7"/>
<line class="st0" x1="314.7" y1="161.7" x2="313.6" y2="161.7"/>
<line class="st0" x1="313.6" y1="161.7" x2="312.4" y2="161.7"/>
<line class="st0" x1="312.4" y1="161.7" x2="311.1" y2="161.8"/>
<line class="st0" x1="311.1" y1="161.8" x2="309.8" y2="162"/>
<line class="st0" x1="309.8" y1="162" x2="308.3" y2="162.3"/>
<line class="st0" x1="308.3" y1="162.3" x2="304.9" y2="163.2"/>
<line class="st0" x1="304.9" y1="163.2" x2="301.3" y2="164.4"/>
<line class="st0" x1="301.3" y1="164.4" x2="297.1" y2="166"/>
<line class="st0" x1="297.1" y1="166" x2="292.6" y2="167.8"/>
<line class="st0" x1="165.3" y1="381.7" x2="165.4" y2="380.3"/>
<line class="st0" x1="165.4" y1="380.3" x2="165.9" y2="378.7"/>
<line class="st0" x1="165.9" y1="378.7" x2="166.4" y2="377"/>
<line class="st0" x1="166.4" y1="377" x2="167.2" y2="375.4"/>
<line class="st0" x1="167.2" y1="375.4" x2="168.3" y2="373.6"/>
<line class="st0" x1="168.3" y1="373.6" x2="169.5" y2="371.8"/>
<line class="st0" x1="169.5" y1="371.8" x2="170.9" y2="369.9"/>
<line class="st0" x1="170.9" y1="369.9" x2="172.5" y2="368"/>
<line class="st0" x1="172.5" y1="368" x2="174.4" y2="366"/>
<line class="st0" x1="174.4" y1="366" x2="176.5" y2="363.9"/>
<line class="st0" x1="176.5" y1="363.9" x2="178.8" y2="361.8"/>
<line class="st0" x1="178.8" y1="361.8" x2="181.3" y2="359.6"/>
<line class="st0" x1="181.3" y1="359.6" x2="184" y2="357.3"/>
<line class="st0" x1="184" y1="357.3" x2="186.9" y2="355"/>
<line class="st0" x1="186.9" y1="355" x2="190" y2="352.8"/>
<line class="st0" x1="190" y1="352.8" x2="193.3" y2="350.2"/>
<line class="st0" x1="193.3" y1="350.2" x2="209.4" y2="339"/>
<line class="st0" x1="209.4" y1="339" x2="225.4" y2="328"/>
<line class="st0" x1="225.4" y1="328" x2="241.5" y2="317.5"/>
<line class="st0" x1="241.5" y1="317.5" x2="257.5" y2="307.3"/>
<line class="st0" x1="257.5" y1="307.3" x2="273.6" y2="297.3"/>
<line class="st0" x1="273.6" y1="297.3" x2="289.8" y2="287.8"/>
<line class="st0" x1="289.8" y1="287.8" x2="305.9" y2="278.6"/>
<line class="st0" x1="305.9" y1="278.6" x2="321.9" y2="269.7"/>
<line class="st0" x1="321.9" y1="269.7" x2="338" y2="261.3"/>
<line class="st0" x1="338" y1="261.3" x2="354.1" y2="253.2"/>
<line class="st0" x1="354.1" y1="253.2" x2="370.2" y2="245.5"/>
<line class="st0" x1="370.2" y1="245.5" x2="386.3" y2="238.1"/>
<line class="st0" x1="386.3" y1="238.1" x2="402.2" y2="231.1"/>
<line class="st0" x1="58.6" y1="320.2" x2="58.7" y2="318.6"/>
<line class="st0" x1="58.7" y1="318.6" x2="59.1" y2="317.1"/>
<line class="st0" x1="59.1" y1="317.1" x2="59.7" y2="315.5"/>
<line class="st0" x1="59.7" y1="315.5" x2="60.6" y2="313.8"/>
<line class="st0" x1="60.6" y1="313.8" x2="61.5" y2="312"/>
<line class="st0" x1="61.5" y1="312" x2="62.7" y2="310.2"/>
<line class="st0" x1="62.7" y1="310.2" x2="64.2" y2="308.3"/>
<line class="st0" x1="64.2" y1="308.3" x2="65.8" y2="306.4"/>
<line class="st0" x1="65.8" y1="306.4" x2="67.7" y2="304.3"/>
<line class="st0" x1="67.7" y1="304.3" x2="69.6" y2="302.2"/>
<line class="st0" x1="69.6" y1="302.2" x2="71.9" y2="300.1"/>
<line class="st0" x1="71.9" y1="300.1" x2="74.3" y2="298"/>
<line class="st0" x1="74.3" y1="298" x2="77.1" y2="295.7"/>
<line class="st0" x1="77.1" y1="295.7" x2="79.9" y2="293.4"/>
<line class="st0" x1="79.9" y1="293.4" x2="83.1" y2="291"/>
<line class="st0" x1="83.1" y1="291" x2="86.4" y2="288.4"/>
<line class="st0" x1="86.4" y1="288.4" x2="102.1" y2="277.1"/>
<line class="st0" x1="102.1" y1="277.1" x2="118" y2="266"/>
<line class="st0" x1="118" y1="266" x2="133.8" y2="255.3"/>
<line class="st0" x1="133.8" y1="255.3" x2="149.7" y2="245"/>
<line class="st0" x1="149.7" y1="245" x2="165.5" y2="235"/>
<line class="st0" x1="165.5" y1="235" x2="181.5" y2="225.3"/>
<line class="st0" x1="181.5" y1="225.3" x2="197.4" y2="216"/>
<line class="st0" x1="197.4" y1="216" x2="213.3" y2="207.1"/>
<line class="st0" x1="213.3" y1="207.1" x2="229.2" y2="198.4"/>
<line class="st0" x1="229.2" y1="198.4" x2="245.1" y2="190.2"/>
<line class="st0" x1="245.1" y1="190.2" x2="260.9" y2="182.5"/>
<line class="st0" x1="260.9" y1="182.5" x2="276.8" y2="174.9"/>
<line class="st0" x1="276.8" y1="174.9" x2="292.6" y2="167.8"/>
<line class="st0" x1="429.3" y1="227.4" x2="428.8" y2="226.7"/>
<line class="st0" x1="428.8" y1="226.7" x2="428" y2="226.1"/>
<line class="st0" x1="428" y1="226.1" x2="427.2" y2="225.7"/>
<line class="st0" x1="427.2" y1="225.7" x2="426.1" y2="225.3"/>
<line class="st0" x1="426.1" y1="225.3" x2="424.9" y2="225.2"/>
<line class="st0" x1="424.9" y1="225.2" x2="423.5" y2="225.1"/>
<line class="st0" x1="423.5" y1="225.1" x2="422.1" y2="225.1"/>
<line class="st0" x1="422.1" y1="225.1" x2="420.5" y2="225.3"/>
<line class="st0" x1="420.5" y1="225.3" x2="418.7" y2="225.7"/>
<line class="st0" x1="418.7" y1="225.7" x2="416.8" y2="226.1"/>
<line class="st0" x1="416.8" y1="226.1" x2="414.7" y2="226.7"/>
<line class="st0" x1="414.7" y1="226.7" x2="412.5" y2="227.3"/>
<line class="st0" x1="412.5" y1="227.3" x2="407.7" y2="228.9"/>
<line class="st0" x1="407.7" y1="228.9" x2="402.2" y2="231.1"/>
<line class="st0" x1="54.7" y1="312" x2="54.3" y2="316.2"/>
<line class="st0" x1="435" y1="240.6" x2="434.8" y2="236.5"/>
<line class="st0" x1="313.4" y1="161.7" x2="305.8" y2="162.3"/>
<line class="st0" x1="305.8" y1="162.3" x2="302.1" y2="162.8"/>
<line class="st0" x1="302.1" y1="162.8" x2="298.6" y2="163.3"/>
<line class="st0" x1="298.6" y1="163.3" x2="295.6" y2="164"/>
<line class="st0" x1="295.6" y1="164" x2="292.5" y2="164.7"/>
<line class="st0" x1="292.5" y1="164.7" x2="289.5" y2="165.6"/>
<line class="st0" x1="289.5" y1="165.6" x2="286.5" y2="166.6"/>
<line class="st0" x1="286.5" y1="166.6" x2="279.7" y2="169.1"/>
<line class="st0" x1="279.7" y1="169.1" x2="273.4" y2="171.7"/>
<line class="st0" x1="273.4" y1="171.7" x2="267.8" y2="174.2"/>
<line class="st0" x1="267.8" y1="174.2" x2="262.2" y2="176.7"/>
<line class="st0" x1="262.2" y1="176.7" x2="256" y2="179.4"/>
<line class="st0" x1="256" y1="179.4" x2="249.8" y2="182.2"/>
<line class="st0" x1="249.8" y1="182.2" x2="243" y2="185.3"/>
<line class="st0" x1="243" y1="185.3" x2="236.2" y2="188.6"/>
<line class="st0" x1="236.2" y1="188.6" x2="229" y2="192"/>
<line class="st0" x1="229" y1="192" x2="221.8" y2="195.5"/>
<line class="st0" x1="221.8" y1="195.5" x2="214.9" y2="199"/>
<line class="st0" x1="214.9" y1="199" x2="208" y2="202.5"/>
<line class="st0" x1="208" y1="202.5" x2="201.3" y2="206"/>
<line class="st0" x1="201.3" y1="206" x2="194.6" y2="209.5"/>
<line class="st0" x1="194.6" y1="209.5" x2="188.2" y2="213"/>
<line class="st0" x1="188.2" y1="213" x2="181.7" y2="216.5"/>
<line class="st0" x1="181.7" y1="216.5" x2="167.4" y2="224.5"/>
<line class="st0" x1="167.4" y1="224.5" x2="153.2" y2="232.9"/>
<line class="st0" x1="153.2" y1="232.9" x2="139.5" y2="241.2"/>
<line class="st0" x1="139.5" y1="241.2" x2="125.8" y2="249.7"/>
<line class="st0" x1="125.8" y1="249.7" x2="121.4" y2="252.6"/>
<line class="st0" x1="121.4" y1="252.6" x2="116.9" y2="255.5"/>
<line class="st0" x1="116.9" y1="255.5" x2="112.3" y2="258.6"/>
<line class="st0" x1="112.3" y1="258.6" x2="107.7" y2="261.6"/>
<line class="st0" x1="107.7" y1="261.6" x2="102" y2="265.5"/>
<line class="st0" x1="102" y1="265.5" x2="96.5" y2="269.3"/>
<line class="st0" x1="96.5" y1="269.3" x2="91.5" y2="272.8"/>
<line class="st0" x1="91.5" y1="272.8" x2="86.6" y2="276.3"/>
<line class="st0" x1="86.6" y1="276.3" x2="80.8" y2="280.6"/>
<line class="st0" x1="80.8" y1="280.6" x2="75.1" y2="285.1"/>
<line class="st0" x1="75.1" y1="285.1" x2="72.4" y2="287.5"/>
<line class="st0" x1="72.4" y1="287.5" x2="69.5" y2="290"/>
<line class="st0" x1="69.5" y1="290" x2="66.9" y2="292.6"/>
<line class="st0" x1="66.9" y1="292.6" x2="64.2" y2="295.3"/>
<line class="st0" x1="64.2" y1="295.3" x2="61.9" y2="298"/>
<line class="st0" x1="61.9" y1="298" x2="59.7" y2="300.7"/>
<line class="st0" x1="59.7" y1="300.7" x2="58" y2="303.3"/>
<line class="st0" x1="58" y1="303.3" x2="56.4" y2="306.1"/>
<line class="st0" x1="433.9" y1="234.2" x2="429.3" y2="227.4"/>
<line class="st0" x1="428.4" y1="226.4" x2="415.3" y2="217"/>
<line class="st0" x1="415.3" y1="217" x2="402" y2="208.1"/>
<line class="st0" x1="402" y1="208.1" x2="388.4" y2="199.5"/>
<line class="st0" x1="388.4" y1="199.5" x2="374.7" y2="191.3"/>
<line class="st0" x1="374.7" y1="191.3" x2="360.7" y2="183.5"/>
<line class="st0" x1="360.7" y1="183.5" x2="346.4" y2="176"/>
<line class="st0" x1="346.4" y1="176" x2="332" y2="169"/>
<line class="st0" x1="332" y1="169" x2="317.5" y2="162.3"/>
<line class="st0" x1="458" y1="166.6" x2="458.4" y2="164.7"/>
<line class="st0" x1="458.4" y1="164.7" x2="458.4" y2="163.8"/>
<line class="st0" x1="458.4" y1="163.8" x2="458.2" y2="163.2"/>
<line class="st0" x1="458.2" y1="163.2" x2="457.8" y2="162.8"/>
<line class="st0" x1="457.8" y1="162.8" x2="457.2" y2="162.5"/>
<line class="st0" x1="457.2" y1="162.5" x2="456.5" y2="162.3"/>
<line class="st0" x1="456.5" y1="162.3" x2="455.6" y2="162.1"/>
<line class="st0" x1="455.6" y1="162.1" x2="453.9" y2="161.8"/>
<line class="st0" x1="453.9" y1="161.8" x2="453.2" y2="161.6"/>
<line class="st0" x1="453.2" y1="161.6" x2="452.5" y2="161.2"/>
<line class="st0" x1="452.5" y1="161.2" x2="452.2" y2="160.8"/>
<line class="st0" x1="452.2" y1="160.8" x2="451.9" y2="160.3"/>
<line class="st0" x1="451.9" y1="160.3" x2="451.8" y2="159.8"/>
<line class="st0" x1="451.8" y1="159.8" x2="451.8" y2="159.1"/>
<line class="st0" x1="451.8" y1="159.1" x2="452.1" y2="157.7"/>
<line class="st0" x1="452.1" y1="157.7" x2="452.5" y2="156.2"/>
<g>
	<polygon class="st0" points="154.9,331.1 162.6,325.5 166.7,327.8 164.8,329.2 162.6,327.9 161.5,328.7 163.5,329.8 161.8,331.1 
		159.8,330 158.6,330.8 160.7,332.1 158.9,333.4 	"/>
	<polygon class="st0" points="156.1,326.3 155.9,326.2 155.7,326.1 155.2,325.8 157,324.5 157.5,324.8 157.7,325 157.9,325.1 
		158,325.2 158,325.4 158,325.5 157.9,325.7 157.8,325.8 157.7,325.9 157.5,326 157.4,326.1 157.3,326.1 157.2,326.2 157,326.3 
		156.8,326.3 156.6,326.3 156.3,326.3 	"/>
	<polygon class="st0" points="159.7,323.8 159.4,323.7 156.8,322.2 149.1,327.8 150.9,328.9 153.5,327 154.2,327.5 154.4,327.6 
		155.1,327.9 155.9,328.1 156.6,328.1 157.3,328 157.9,327.9 158.5,327.6 159,327.4 159.5,327.1 159.9,326.8 160.2,326.4 160.5,326 
		160.7,325.6 160.7,325.1 160.6,324.7 160.2,324.2 	"/>
	<polygon class="st0" points="171.1,339.9 170.8,339.9 170.4,339.8 170.1,339.8 169.8,339.7 169.5,339.6 169.2,339.5 169,339.4 
		168.7,339.3 168.1,338.8 167.7,338.3 167.4,337.8 167.4,337.1 167.6,336.5 168,335.8 168.6,335.1 169.4,334.4 170.5,333.7 
		171.5,333.3 172.6,332.9 173.6,332.8 174.5,332.7 175.4,332.8 176.3,333 177,333.4 177.2,333.5 177.4,333.6 177.6,333.8 177.8,334 
		177.9,334.2 178,334.4 178.1,334.6 178.2,334.8 175.9,336.5 175.9,336.3 176,336.1 176,335.9 175.9,335.7 175.8,335.5 175.7,335.3 
		175.5,335.1 175.3,334.9 174.8,334.7 174.4,334.6 173.9,334.6 173.3,334.7 172.8,334.8 172.3,335 171.8,335.2 171.3,335.5 
		170.9,335.9 170.5,336.3 170.3,336.6 170.3,336.9 170.3,337.3 170.4,337.5 170.6,337.8 170.9,338 171.2,338.1 171.5,338.2 
		171.8,338.3 172.1,338.3 172.4,338.4 172.7,338.4 173,338.3 173.3,338.3 	"/>
	<polygon class="st0" points="177.9,340.7 177.8,340.8 177.5,340.9 177.3,341.1 176.9,341.2 176.6,341.3 176.2,341.4 175.8,341.4 
		175.4,341.2 175.1,341 175,340.7 175,340.5 175.1,340.2 175.3,340 175.5,339.8 175.7,339.6 175.8,339.6 176.2,339.3 176.5,339.2 
		176.8,339 177.1,338.9 177.5,338.9 177.8,338.9 178.1,339 178.4,339.1 178.6,339.2 178.7,339.4 178.7,339.6 178.7,339.8 178.6,340 
		178.4,340.3 178.2,340.5 	"/>
	<polygon class="st0" points="179.6,341.7 180.2,341.3 180.6,340.8 180.9,340.3 181,339.9 181,339.4 180.7,338.9 180.3,338.5 
		179.7,338.1 179,337.7 178.3,337.5 177.6,337.5 176.8,337.5 176.1,337.6 175.4,337.9 174.7,338.2 174.1,338.6 173.5,339 
		173.1,339.5 172.8,340 172.7,340.4 172.8,340.9 173,341.4 173.4,341.8 174,342.2 174.7,342.5 175.4,342.7 176.2,342.8 176.9,342.8 
		177.6,342.6 178.3,342.4 179,342.1 	"/>
	<polygon class="st0" points="166.9,332.4 166.8,332.4 166.6,332.3 166,332 167.8,330.7 168.3,331 168.5,331.1 168.7,331.2 
		168.8,331.4 168.8,331.5 168.8,331.7 168.7,331.8 168.6,331.9 168.5,332 168.4,332.1 168.3,332.2 168.1,332.3 168,332.3 
		167.8,332.4 167.6,332.5 167.4,332.5 167.2,332.5 	"/>
	<polygon class="st0" points="166.5,334.2 167.1,334.2 167.7,334.2 168.2,334.2 168.7,334 169.2,333.9 169.6,333.7 170,333.5 
		170.3,333.2 170.7,332.9 171,332.6 171.3,332.2 171.5,331.8 171.6,331.4 171.5,330.9 171.2,330.5 170.7,330.1 170.4,329.9 
		167.7,328.4 159.9,334 161.8,335 164.3,333.2 164.3,333.2 163.8,334.4 163.2,335.8 165.4,337.1 	"/>
</g>
<path class="st0" d="M247.8,303.8l-45.5-25.5c-3.1-1.7-6.8-1.5-9.7,0.5l-72.9,50.7c-5.5,4.1-22.3,8.8-29.2,4.9L76.3,326
	c-6.5-3.8-9.1-17.8,0.1-25.6c34.3-28.7,76.7-56.2,128.2-86.1c35.5-18.8,68.1-35.2,98.3-46.5c3.8-1.4,8.7-0.5,12.2,1.5
	c30.2,17.4,60.5,34.9,90.7,52.3c2.2,1.2,2,4.4-0.3,5.4c-23.5,10.1-48.3,21.8-74,35.3c-26,13.6-49.9,27.5-71.7,41.1
	C256.1,305.8,251.6,305.9,247.8,303.8z"/>
<path class="st0" d="M137.4,317.1l-10.7,2.7c-5.2-1.7-11.6-4.3-18.4-8.5c-5.5-3.3-9.9-6.9-13.4-10c0.1-3.8,0.2-7.6,0.2-11.3
	l40.7-23.7l12.6,4c3.3,3.1,7.7,6.7,13.3,10.1c6.5,3.9,12.5,6.4,17.3,7.9C165.1,297.8,151.3,307.4,137.4,317.1z"/>
<polygon class="st0" points="169.6,292.5 144.8,278.4 105.6,301.2 129.8,315.5 "/>
<line class="st0" x1="213.8" y1="423.5" x2="486.4" y2="257.8"/>
<polygon class="st1" points="209.2,425.7 217.7,422.6 215.2,422.3 216.2,420 "/>
<polygon class="st1" points="488.5,256.5 480,259.7 482.5,260 481.5,262.3 "/>
<line class="st0" x1="16.1" y1="331.6" x2="166.8" y2="419.1"/>
<line class="st0" x1="331.7" y1="167" x2="496.3" y2="260.9"/>
<line class="st0" x1="5" y1="332.9" x2="61" y2="299.1"/>
<line class="st0" x1="162" y1="424.8" x2="332.4" y2="321.4"/>
<line class="st0" x1="116.8" y1="373" x2="235.3" y2="440.4"/>
<polygon class="st1" points="169.2,420.5 160.7,417.3 163.2,417 162.3,414.7 "/>
<polygon class="st1" points="11.6,328.8 20.1,332.1 17.6,332.3 18.6,334.6 "/>
<line class="st0" x1="393.3" y1="338.1" x2="299.1" y2="290.9"/>
<line class="st0" x1="393.4" y1="388" x2="299.1" y2="340.8"/>
<line class="st0" x1="384.1" y1="377.3" x2="384.1" y2="333.5"/>
<polygon class="st1" points="384.1,333.9 385.6,342.8 384.1,340.8 382.6,342.8 "/>
<polygon class="st1" points="384.1,383.2 382.6,374.3 384.1,376.3 385.6,374.3 "/>
<g>
	<path class="st1" d="M85.6,378.3l0.5-0.9l4.8,2.8l-0.4,0.7c-0.8,0.2-1.6,0.6-2.6,1.2c-0.9,0.6-1.8,1.2-2.6,1.9
		c-0.5,0.5-1.1,1.1-1.5,1.8l-0.9-0.5c0.4-0.6,0.9-1.2,1.6-1.9c0.7-0.7,1.5-1.3,2.3-1.8c0.9-0.5,1.7-0.9,2.4-1.2L85.6,378.3z"/>
	<path class="st1" d="M91.3,381.7l0.5-0.9l4.8,2.8l-0.4,0.7c-0.8,0.2-1.6,0.6-2.6,1.2c-0.9,0.6-1.8,1.2-2.6,1.9
		c-0.5,0.5-1.1,1.1-1.5,1.8l-0.9-0.5c0.4-0.6,0.9-1.2,1.6-1.9c0.7-0.7,1.5-1.3,2.3-1.8s1.7-0.9,2.4-1.2L91.3,381.7z"/>
</g>
<g>
	<path class="st1" d="M395.1,363.9v1h-5.7c0-0.3,0-0.5,0.1-0.7c0.1-0.4,0.4-0.8,0.7-1.1s0.8-0.8,1.4-1.3c0.9-0.8,1.6-1.4,1.9-1.8
		s0.5-0.9,0.5-1.3c0-0.4-0.1-0.8-0.4-1.1s-0.7-0.4-1.2-0.4c-0.5,0-0.9,0.2-1.2,0.5s-0.5,0.7-0.5,1.3l-1.1-0.1
		c0.1-0.8,0.4-1.4,0.8-1.8s1.1-0.6,2-0.6c0.8,0,1.5,0.2,2,0.7s0.7,1,0.7,1.7c0,0.3-0.1,0.7-0.2,1s-0.4,0.7-0.7,1s-0.9,0.9-1.6,1.5
		c-0.6,0.5-1,0.9-1.2,1.1s-0.3,0.4-0.4,0.6H395.1z"/>
	<path class="st1" d="M396.3,357.5v-1h5.6v0.8c-0.5,0.6-1.1,1.4-1.6,2.3s-1,2-1.2,3c-0.2,0.7-0.3,1.5-0.4,2.4h-1.1
		c0-0.7,0.1-1.5,0.4-2.4s0.6-1.9,1.1-2.8s1-1.6,1.5-2.2H396.3z"/>
</g>
<g>
	<path class="st1" d="M281.2,397.2l-0.9,0.5l-3.5-5.8c-0.1,0.3-0.3,0.7-0.5,1.1c-0.2,0.4-0.5,0.8-0.7,1l-0.5-0.9
		c0.4-0.5,0.6-1.1,0.8-1.7c0.2-0.6,0.2-1.1,0.2-1.5l0.6-0.4L281.2,397.2z"/>
	<path class="st1" d="M282.4,393.9l0.9-0.7c0.3,0.4,0.7,0.7,1.1,0.7c0.4,0.1,0.8,0,1.1-0.2c0.4-0.3,0.7-0.6,0.8-1.2
		c0.1-0.5,0-1-0.3-1.6c-0.3-0.5-0.7-0.8-1.2-1c-0.5-0.1-0.9,0-1.4,0.2c-0.3,0.2-0.5,0.4-0.7,0.7s-0.2,0.6-0.2,0.8l-0.9,0.4l-1.6-4.2
		l3.7-2.2l0.5,0.9l-2.9,1.8l0.8,2.2c0.3-0.6,0.6-1,1.1-1.3c0.6-0.4,1.3-0.5,2-0.3s1.3,0.6,1.7,1.3c0.4,0.7,0.6,1.4,0.5,2.1
		c-0.1,0.9-0.6,1.6-1.4,2.1c-0.7,0.4-1.3,0.5-2,0.4S282.8,394.5,282.4,393.9z"/>
	<path class="st1" d="M287.1,388.8c-0.5-0.9-0.9-1.6-1-2.3c-0.1-0.6-0.1-1.2,0.1-1.7c0.2-0.5,0.5-0.9,1.1-1.2
		c0.4-0.2,0.8-0.4,1.2-0.4s0.8,0.1,1.2,0.2s0.7,0.5,1.1,0.8c0.4,0.4,0.8,0.9,1.2,1.6c0.5,0.9,0.9,1.6,1,2.2c0.1,0.6,0.1,1.2-0.1,1.7
		c-0.2,0.5-0.5,0.9-1.1,1.2c-0.7,0.4-1.4,0.5-2.1,0.2C288.7,391,287.9,390.1,287.1,388.8z M288,388.2c0.7,1.2,1.4,1.9,1.9,2.2
		c0.5,0.2,1,0.2,1.4,0c0.4-0.3,0.6-0.7,0.7-1.2c0-0.6-0.3-1.5-1-2.7c-0.7-1.2-1.4-1.9-1.9-2.2c-0.5-0.2-1-0.2-1.4,0
		c-0.4,0.3-0.6,0.6-0.7,1.1C286.9,386.1,287.3,387,288,388.2z"/>
</g>
</svg>
