<svg xmlns="http://www.w3.org/2000/svg" viewBox="0 0 693.667 253.334" enable-background="new 0 0 693.667 253.334">
 <defs/>
 <path fill="none" stroke="#00a096" stroke-miterlimit="10" d="m133.08 77.58h55.17v46.42"/>
 <path fill="#00a096" d="m188.25 91.29l-3.318 9.118c0 0 3.319-2.864 6.635 0l-3.317-9.118"/>
 <path fill="#00a096" d="m156.03 77.59l9.118 3.318c0 0-2.864-3.319 0-6.635l-9.118 3.317"/>
 <path fill="none" stroke="#932783" stroke-miterlimit="10" d="m133.03 185.25h55.17v-46.41"/>
 <path fill="#932783" d="m188.2 171.55l3.317-9.118c-3.316 2.864-6.635 0-6.635 0l3.318 9.118"/>
 <path fill="#932783" d="m155.37 185.19l9.118 3.316c-2.864-3.315 0-6.635 0-6.635l-9.118 3.319"/>
 <path fill="none" stroke="#5bc4f1" stroke-miterlimit="10" d="m137.17 131.48h41.833"/>
 <path fill="#5bc4f1" d="m155.37 131.48l9.118 3.316c-2.864-3.315 0-6.635 0-6.635l-9.118 3.319"/>
 <path fill="none" stroke="#00a096" stroke-miterlimit="10" d="m557.27 77.58h-55.17v46.42"/>
 <path fill="#00a096" d="m502.1 91.29l-3.316 9.118c3.315-2.864 6.635 0 6.635 0l-3.319-9.118"/>
 <path fill="#00a096" d="m534.94 77.65l-9.117-3.317c2.863 3.316 0 6.635 0 6.635l9.117-3.318"/>
 <path fill="none" stroke="#932783" stroke-miterlimit="10" d="m557.31 185.25h-55.17v-46.41"/>
 <path fill="#932783" d="m502.14 171.55l3.318-9.118c0 0-3.319 2.864-6.635 0l3.317 9.118"/>
 <path fill="#932783" d="m534.98 185.19l-9.117-3.318c0 0 2.863 3.319 0 6.635l9.117-3.317"/>
 <path fill="none" stroke="#5bc4f1" stroke-miterlimit="10" d="m553.18 131.48h-41.833"/>
 <path fill="#5bc4f1" d="m534.98 131.48l-9.117-3.318c0 0 2.863 3.319 0 6.635l9.117-3.317"/>
 <path fill="none" stroke="#5bc4f1" stroke-miterlimit="10" d="m248.42 111.33l61.5-31.363"/>
 <path fill="#5bc4f1" d="m275.29 97.46l9.607-1.353c-4.086-1.583-3.114-5.857-3.114-5.857l-6.493 7.21"/>
 <path fill="none" stroke="#5bc4f1" stroke-miterlimit="10" d="m433.93 111.33l-61.5-31.363"/>
 <path fill="#5bc4f1" d="m407.05 97.46l-6.494-7.21c0 0 .973 4.274-3.113 5.857l9.607 1.353"/>
 <path fill="#cfeafb" d="m144 93.83c0 2.338-1.914 4.252-4.252 4.252h-119c-2.338 0-4.252-1.914-4.252-4.252v-32.497c0-2.338 1.914-4.252 4.252-4.252h119c2.338 0 4.252 1.914 4.252 4.252v32.497"/>
 <path fill="#205081" d="m445.17 76.933c0 1.871-1.53 3.401-3.401 3.401h-192.7c-1.871 0-3.401-1.531-3.401-3.401v-41.2c0-1.871 1.531-3.401 3.401-3.401h192.71c1.871 0 3.401 1.531 3.401 3.401v41.2"/>
 <path fill="#cfeafb" d="m144 146.83c0 2.339-1.914 4.252-4.252 4.252h-119c-2.338 0-4.252-1.913-4.252-4.252v-32.496c0-2.338 1.914-4.252 4.252-4.252h119c2.338 0 4.252 1.914 4.252 4.252v32.496"/>
 <path fill="#cfeafb" d="m144 198.33c0 2.339-1.914 4.252-4.252 4.252h-119c-2.338 0-4.252-1.913-4.252-4.252v-32.496c0-2.339 1.914-4.252 4.252-4.252h119c2.338 0 4.252 1.913 4.252 4.252v32.496"/>
 <path fill="#cfeafb" d="m677.67 93.83c0 2.338-1.913 4.252-4.252 4.252h-119c-2.339 0-4.252-1.914-4.252-4.252v-32.497c0-2.338 1.913-4.252 4.252-4.252h119c2.339 0 4.252 1.914 4.252 4.252v32.497"/>
 <path fill="#cfeafb" d="m677.67 146.83c0 2.339-1.913 4.252-4.252 4.252h-119c-2.339 0-4.252-1.913-4.252-4.252v-32.496c0-2.338 1.913-4.252 4.252-4.252h119c2.339 0 4.252 1.914 4.252 4.252v32.496"/>
 <path fill="#cfeafb" d="m677.67 198.33c0 2.339-1.913 4.252-4.252 4.252h-119c-2.339 0-4.252-1.913-4.252-4.252v-32.496c0-2.339 1.913-4.252 4.252-4.252h119c2.339 0 4.252 1.913 4.252 4.252v32.496"/>
 <path fill="#5bc4f1" d="m336.31 149.08c0 1.871-1.53 3.401-3.401 3.401h-151.7c-1.871 0-3.401-1.53-3.401-3.401v-35.2c0-1.871 1.531-3.401 3.401-3.401h151.7c1.871 0 3.401 1.531 3.401 3.401v35.2"/>
 <path fill="#5bc4f1" d="m512.27 149.08c0 1.871-1.53 3.401-3.401 3.401h-151.7c-1.871 0-3.401-1.53-3.401-3.401v-35.2c0-1.871 1.53-3.401 3.401-3.401h151.7c1.871 0 3.401 1.531 3.401 3.401v35.2"/>
 <path fill="#fff" d="m300.34 52.765h-2.993v2.179h2.904v.771h-2.904v2.849h2.993v.771h-3.807v-7.338h3.807v.768"/>
 <path fill="#fff" d="m305.18 54.768v3.839h.682v1.937h-.726v-1.21h-3.477v1.21h-.726v-1.937c.396-.011.693-.274.847-.594s.187-.748.187-1.21v-2.035h3.213m-.792.725h-1.628v1.717c0 .527-.121 1.022-.55 1.396h2.178v-3.113"/>
 <path fill="#fff" d="m307.49 54.768v3.02l3.125-3.367v4.918h-.792v-3.048l-3.125 3.367v-4.885h.792"/>
 <path fill="#fff" d="m312.11 54.768h.792v1.87h2.157v-1.87h.792v4.565h-.792v-1.97h-2.157v1.97h-.792v-4.565"/>
 <path fill="#fff" d="m320.84 54.768h.792v4.565h-.792v-.638c-.264.341-.759.77-1.562.77-1.155 0-2.223-.813-2.223-2.42 0-1.573 1.056-2.388 2.223-2.388.88 0 1.353.484 1.562.759v-.648m-2.97 2.277c0 .979.55 1.716 1.496 1.716.968 0 1.518-.803 1.518-1.705 0-1.177-.814-1.694-1.518-1.694-.781-.0001-1.496.572-1.496 1.683"/>
 <path fill="#fff" d="m324.02 57.45c-.055 0-.549-.044-.879-.363-.188-.176-.363-.484-.363-.913 0-.43.154-.792.406-1.023.396-.374.892-.385 1.343-.385h1.595v4.565h-.792v-1.837h-.483l-1.299 1.837h-.945l1.417-1.881m1.31-1.98h-.737c-.318 0-.55.021-.715.121-.132.088-.286.264-.286.561 0 .242.089.43.286.551.23.143.518.132.704.132h.748v-1.365"/>
 <path fill="#fff" d="m333.75 56.04c-.418-.528-1.023-.683-1.431-.683-.847 0-1.617.594-1.617 1.705s.792 1.694 1.606 1.694c.473 0 1.056-.209 1.474-.715v.946c-.495.363-1.022.473-1.452.473-1.419 0-2.442-1.012-2.442-2.387 0-1.397 1.034-2.421 2.442-2.421.727 0 1.199.286 1.42.44v.948"/>
 <path fill="#fff" d="m335.79 54.768v3.02l3.125-3.367v4.918h-.792v-3.048l-3.124 3.367v-4.885h.791"/>
 <path fill="#fff" d="m343.98 56.04c-.418-.528-1.023-.683-1.431-.683-.847 0-1.617.594-1.617 1.705s.793 1.694 1.606 1.694c.474 0 1.056-.209 1.474-.715v.946c-.494.363-1.022.473-1.451.473-1.42 0-2.443-1.012-2.443-2.387 0-1.397 1.035-2.421 2.443-2.421.726 0 1.199.286 1.419.44v.948"/>
 <path fill="#fff" d="m346.79 55.49v3.84h-.792v-3.84h-1.431v-.726h3.653v.726h-1.43"/>
 <path fill="#fff" d="m353.1 58.17c-.132.253-.33.528-.562.737-.418.374-.936.561-1.518.561-1.101 0-2.256-.693-2.256-2.387 0-1.364.836-2.421 2.211-2.421.892 0 1.453.44 1.729.836.285.407.45 1.111.428 1.717h-3.553c.011.946.66 1.551 1.452 1.551.374 0 .671-.109.935-.33.209-.176.375-.407.474-.627l.66.363m-.781-1.617c-.132-.715-.671-1.188-1.343-1.188-.67 0-1.221.506-1.342 1.188h2.685"/>
 <path fill="#fff" d="m354.92 54.41l1.892 3.719 1.849-3.719 1.101 4.918h-.814l-.605-2.827-1.551 3.146-1.573-3.146-.583 2.827h-.814l1.098-4.918"/>
 <path fill="#fff" d="m364.22 54.768h.793v4.565h-.793v-.638c-.264.341-.759.77-1.562.77-1.155 0-2.223-.813-2.223-2.42 0-1.573 1.056-2.388 2.223-2.388.88 0 1.353.484 1.562.759v-.648m-2.97 2.277c0 .979.55 1.716 1.496 1.716.968 0 1.519-.803 1.519-1.705 0-1.177-.814-1.694-1.519-1.694-.781-.0001-1.496.572-1.496 1.683"/>
 <path fill="#fff" d="m372.55 53.45c-.099-.198-.265-.418-.429-.55-.144-.11-.407-.253-.826-.253-.726 0-1.231.45-1.231 1.133 0 .286.077.451.274.638.221.221.496.341.771.462l.704.309c.43.187.825.385 1.133.693.375.374.529.803.529 1.331 0 1.353-1 2.255-2.322 2.255-.484 0-1.089-.099-1.596-.594-.362-.353-.582-.858-.682-1.299l.793-.22c.055.385.23.715.439.936.318.318.682.407 1.057.407 1 0 1.474-.716 1.474-1.452 0-.33-.099-.616-.362-.858-.209-.198-.496-.33-.881-.506l-.66-.309c-.285-.132-.648-.286-.979-.604-.319-.309-.506-.649-.506-1.199 0-1.134.869-1.893 2.057-1.893.451 0 .814.088 1.178.33.297.198.549.495.715.814l-.65.429"/>
 <path fill="#fff" d="m374.57 56.58h2.42v.813h-2.42v-.813"/>
 <path fill="#fff" d="m378.09 59.33l2.673-3.092c.187-.22.683-.803.858-1.066.33-.474.406-.825.406-1.122 0-.825-.594-1.431-1.463-1.431-.518 0-.946.231-1.221.649-.144.22-.231.495-.242.869h-.814c.033-.737.264-1.188.551-1.519.308-.353.824-.748 1.738-.748 1.297 0 2.266.924 2.266 2.189 0 .495-.143.946-.583 1.573-.308.429-.704.88-1 1.221l-1.529 1.728h3.103v.748h-4.742"/>
 <path fill="#fff" d="m385.03 58.37c-.483-.704-.737-1.65-.737-2.695 0-1.046.254-1.992.737-2.696.562-.813 1.298-1.1 1.882-1.1.582 0 1.32.286 1.881 1.1.484.704.736 1.65.736 2.696 0 1.045-.252 1.991-.736 2.695-.561.813-1.299 1.1-1.881 1.1-.584 0-1.321-.286-1.882-1.1m.616-4.928c-.396.627-.539 1.463-.539 2.233 0 .77.143 1.605.539 2.232.385.616.891.814 1.266.814.373 0 .879-.198 1.265-.814.396-.627.539-1.463.539-2.232 0-.771-.144-1.606-.539-2.233-.386-.616-.892-.814-1.265-.814-.375-.0001-.881.197-1.266.814"/>
 <path fill="#fff" d="m396.72 121.61c-.232-.231-.584-.506-.958-.683-.385-.176-.836-.285-1.265-.285-1.694 0-2.949 1.363-2.949 3.058 0 1.991 1.617 2.993 2.96 2.993.495 0 .979-.144 1.364-.342.418-.209.715-.483.848-.616v1.013c-.814.583-1.662.715-2.212.715-2.179 0-3.796-1.65-3.796-3.773 0-2.189 1.64-3.817 3.84-3.817.439 0 1.287.055 2.168.726v1.01"/>
 <path fill="#fff" d="m398.81 122.77v3.02l3.125-3.367v4.918h-.792v-3.048l-3.124 3.367v-4.885h.791"/>
 <path fill="#fff" d="m407 124.04c-.418-.528-1.023-.683-1.431-.683-.847 0-1.617.594-1.617 1.705s.793 1.694 1.606 1.694c.474 0 1.056-.209 1.474-.715v.946c-.494.363-1.022.473-1.451.473-1.42 0-2.443-1.012-2.443-2.387 0-1.397 1.035-2.421 2.443-2.421.726 0 1.199.286 1.419.44v.948"/>
 <path fill="#fff" d="m409.81 123.49v3.84h-.792v-3.84h-1.431v-.726h3.653v.726h-1.43"/>
 <path fill="#fff" d="m416.12 126.17c-.132.253-.33.528-.562.737-.418.374-.936.561-1.518.561-1.101 0-2.256-.693-2.256-2.387 0-1.364.836-2.421 2.211-2.421.892 0 1.453.44 1.728.836.286.407.451 1.111.429 1.717h-3.553c.011.946.66 1.551 1.452 1.551.374 0 .671-.109.935-.33.209-.176.375-.407.474-.627l.66.363m-.782-1.617c-.132-.715-.671-1.188-1.343-1.188-.67 0-1.221.506-1.342 1.188h2.685"/>
 <path fill="#fff" d="m417.94 122.42l1.892 3.719 1.849-3.719 1.101 4.918h-.814l-.605-2.827-1.551 3.146-1.573-3.146-.583 2.827h-.814l1.098-4.918"/>
 <path fill="#fff" d="m427.24 122.77h.793v4.565h-.793v-.638c-.264.341-.759.77-1.562.77-1.155 0-2.223-.813-2.223-2.42 0-1.573 1.056-2.388 2.223-2.388.88 0 1.353.484 1.562.759v-.648m-2.97 2.277c0 .979.55 1.716 1.496 1.716.968 0 1.519-.803 1.519-1.705 0-1.177-.814-1.694-1.519-1.694-.781-.0001-1.496.572-1.496 1.683"/>
 <path fill="#fff" d="m435.77 122.77v4.565h-.793v-3.84h-2.09v3.84h-.792v-4.565h3.675"/>
 <path fill="#fff" d="m436.98 125.07c0-1.386 1.023-2.409 2.42-2.409 1.398 0 2.421 1.023 2.421 2.409 0 1.387-1.034 2.398-2.421 2.398-1.386.0001-2.42-1.01-2.42-2.398m.814 0c0 1.122.792 1.694 1.605 1.694.826 0 1.607-.583 1.607-1.694 0-1.122-.771-1.705-1.607-1.705-.835 0-1.605.594-1.605 1.705"/>
 <path fill="#fff" d="m444.75 122.77c.242 0 .638.011.957.264.165.132.396.396.396.858 0 .451-.221.737-.496.913.133.033.353.099.572.308.254.242.363.528.363.881 0 .483-.22.836-.473 1.034-.275.209-.715.308-1.078.308h-1.97v-4.565h1.729zm-.099 1.859c.077 0 .33-.012.506-.133.088-.065.221-.197.221-.473 0-.22-.1-.352-.221-.44-.187-.12-.396-.109-.638-.109h-.704v1.155h.836m.143 2c.22 0 .517-.011.715-.154.144-.109.265-.297.265-.506s-.078-.396-.231-.517c-.198-.154-.495-.165-.716-.165h-1.012v1.342h.979"/>
 <path fill="#fff" d="m447.76 122.77h.793v1.749h.814c.406 0 .979.033 1.386.451.176.176.353.495.353.957 0 .495-.209.836-.408 1.023-.396.374-.891.385-1.342.385h-1.596v-4.565m1.53 3.861c.265 0 .518-.011.705-.121.099-.066.297-.23.297-.583 0-.198-.055-.429-.286-.572-.198-.132-.451-.132-.704-.132h-.748v1.408h.736m2.365-3.861h.793v4.565h-.793v-4.565"/>
 <path fill="#fff" d="m453.94 122.77h.792v3.839h1.76v-3.839h.793v3.839h1.76v-3.839h.793v4.565h-5.897v-4.565"/>
 <path fill="#fff" d="m465.38 126.17c-.132.253-.33.528-.561.737-.418.374-.936.561-1.519.561-1.101 0-2.255-.693-2.255-2.387 0-1.364.836-2.421 2.211-2.421.891 0 1.452.44 1.728.836.286.407.45 1.111.429 1.717h-3.553c.001.946.659 1.551 1.451 1.551.375 0 .672-.109.936-.33.209-.176.374-.407.473-.627l.66.363m-.781-1.617c-.131-.715-.671-1.188-1.342-1.188s-1.221.506-1.342 1.188h2.684"/>
 <path fill="#fff" d="m466.62 122.77h.793v1.87h2.156v-1.87h.792v4.565h-.792v-1.97h-2.156v1.97h-.793v-4.565"/>
 <path fill="#fff" d="m472.65 122.77v3.02l3.124-3.367v4.918h-.791v-3.048l-3.125 3.367v-4.885h.792"/>
 <path fill="#fff" d="m478.16 125.45c-.055 0-.549-.044-.879-.363-.188-.176-.363-.484-.363-.913 0-.43.154-.792.406-1.023.396-.374.892-.385 1.343-.385h1.595v4.565h-.792v-1.837h-.483l-1.299 1.837h-.945l1.417-1.881m1.309-1.98h-.737c-.318 0-.55.021-.715.121-.132.088-.286.264-.286.561 0 .242.089.43.286.551.23.143.518.132.704.132h.748v-1.365"/>
 <path fill="#fff" d="m400.81 136.09c.463-.188.881-.231 1.244-.231 1.572 0 2.486 1.013 2.486 2.421 0 1.375-.979 2.387-2.432 2.387-.682 0-1.111-.176-1.299-.253v-.771c.419.221.914.319 1.287.319.826 0 1.541-.55 1.629-1.408h-2.409v-.704h2.409c-.176-.836-.857-1.287-1.639-1.287-.375 0-.848.099-1.277.297v-.77"/>
 <path fill="#fff" d="m408.18 140.61c-.43 0-1.276-.066-1.926-.594-.527-.43-.792-1.013-.792-1.771 0-.848.353-1.408.781-1.761.483-.407 1.166-.594 1.937-.594v-2.695h.792v2.695c.771 0 1.452.187 1.937.594.429.353.781.913.781 1.761 0 .759-.265 1.342-.793 1.771-.648.527-1.496.594-1.925.594v2.453h-.792v-2.453m0-4.02c-.43 0-.914.088-1.221.286-.298.187-.683.594-.683 1.364 0 .704.308 1.1.638 1.331.342.242.836.33 1.266.33v-3.311m.792 3.311c.429 0 .924-.088 1.265-.33.33-.231.639-.627.639-1.331 0-.771-.385-1.178-.682-1.364-.309-.198-.793-.286-1.222-.286v3.311"/>
 <path fill="#fff" d="m415.33 140.61c-.43 0-1.277-.066-1.926-.594-.528-.43-.793-1.013-.793-1.771 0-.848.353-1.408.781-1.761.484-.407 1.166-.594 1.938-.594v-2.695h.791v2.695c.771 0 1.453.187 1.937.594.429.353.781.913.781 1.761 0 .759-.265 1.342-.792 1.771-.649.527-1.496.594-1.926.594v2.453h-.791v-2.453m0-4.02c-.43 0-.914.088-1.222.286-.298.187-.683.594-.683 1.364 0 .704.309 1.1.639 1.331.341.242.836.33 1.266.33v-3.311m.791 3.311c.43 0 .924-.088 1.266-.33.33-.231.639-.627.639-1.331 0-.771-.386-1.178-.683-1.364-.308-.198-.792-.286-1.222-.286v3.311"/>
 <path fill="#fff" d="m424.1 139.37c-.132.253-.33.528-.562.737-.418.374-.936.561-1.518.561-1.101 0-2.256-.693-2.256-2.387 0-1.364.836-2.421 2.211-2.421.892 0 1.453.44 1.728.836.286.407.451 1.111.429 1.717h-3.553c.011.946.66 1.551 1.452 1.551.374 0 .671-.109.935-.33.209-.176.375-.407.474-.627l.66.363m-.781-1.617c-.132-.715-.671-1.188-1.343-1.188-.67 0-1.221.506-1.342 1.188h2.685"/>
 <path fill="#fff" d="m426.13 135.97v1.87l1.849-1.87h.968l-1.98 2.035 2.223 2.53h-1.034l-1.782-2-.242.23v1.771h-.792v-4.565h.79z"/>
 <path fill="#fff" d="m431.54 136.69v3.84h-.792v-3.84h-1.431v-.726h3.653v.726h-1.43"/>
 <path fill="#fff" d="m434.6 135.97v3.01l3.124-3.367v4.918h-.792v-3.048l-3.125 3.367v-4.885h.793"/>
 <path fill="#fff" d="m440.95 135.97c.241 0 .637.011.957.264.164.132.396.396.396.858 0 .451-.22.737-.495.913.132.033.352.099.572.308.253.242.363.528.363.881 0 .483-.221.836-.474 1.034-.274.209-.715.308-1.078.308h-1.97v-4.565h1.729zm-.1 1.859c.076 0 .33-.012.506-.133.088-.065.221-.197.221-.473 0-.22-.1-.352-.221-.44-.188-.121-.396-.109-.639-.109h-.703v1.155h.836m.143 2c.221 0 .518-.011.715-.154.144-.109.265-.297.265-.506s-.077-.396-.231-.517c-.197-.154-.494-.165-.715-.165h-1.012v1.342h.978"/>
 <path fill="#fff" d="m443.95 135.97h.792v1.87h2.156v-1.87h.792v4.565h-.792v-1.97h-2.156v1.97h-.792v-4.565"/>
 <path fill="#fff" d="m448.9 138.27c0-1.386 1.023-2.409 2.421-2.409s2.421 1.023 2.421 2.409c0 1.387-1.035 2.398-2.421 2.398s-2.421-1.012-2.421-2.398m.814 0c0 1.122.793 1.694 1.606 1.694.825 0 1.606-.583 1.606-1.694 0-1.122-.77-1.705-1.606-1.705-.835 0-1.606.593-1.606 1.705"/>
 <path fill="#fff" d="m458.53 137.24c-.418-.528-1.023-.683-1.431-.683-.847 0-1.617.594-1.617 1.705s.793 1.694 1.606 1.694c.474 0 1.056-.209 1.474-.715v.946c-.494.363-1.022.473-1.451.473-1.42 0-2.443-1.012-2.443-2.387 0-1.397 1.035-2.421 2.443-2.421.726 0 1.199.286 1.419.44v.948"/>
 <path fill="#fff" d="m461.33 136.69v3.84h-.792v-3.84h-1.431v-.726h3.653v.726h-1.43"/>
 <path fill="#fff" d="m464.39 135.97v3.01l3.125-3.367v4.918h-.793v-3.048l-3.124 3.367v-4.885h.792"/>
 <path fill="#fff" d="m242.5 121.61c-.231-.231-.583-.506-.958-.683-.385-.176-.836-.285-1.265-.285-1.694 0-2.948 1.363-2.948 3.058 0 1.991 1.617 2.993 2.959 2.993.495 0 .979-.144 1.364-.342.418-.209.715-.483.847-.616v1.013c-.814.583-1.662.715-2.211.715-2.178 0-3.795-1.65-3.795-3.773 0-2.189 1.639-3.817 3.839-3.817.44 0 1.287.055 2.167.726v1.01"/>
 <path fill="#fff" d="m244.59 122.77v3.02l3.125-3.367v4.918h-.792v-3.048l-3.125 3.367v-4.885h.792"/>
 <path fill="#fff" d="m252.78 124.04c-.418-.528-1.023-.683-1.43-.683-.847 0-1.617.594-1.617 1.705s.792 1.694 1.606 1.694c.473 0 1.056-.209 1.474-.715v.946c-.495.363-1.023.473-1.452.473-1.419 0-2.442-1.012-2.442-2.387 0-1.397 1.034-2.421 2.442-2.421.726 0 1.199.286 1.419.44v.948"/>
 <path fill="#fff" d="m255.59 123.49v3.84h-.792v-3.84h-1.43v-.726h3.653v.726h-1.431"/>
 <path fill="#fff" d="m261.9 126.17c-.132.253-.33.528-.561.737-.418.374-.936.561-1.519.561-1.1 0-2.255-.693-2.255-2.387 0-1.364.836-2.421 2.211-2.421.891 0 1.452.44 1.728.836.286.407.451 1.111.429 1.717h-3.553c.011.946.66 1.551 1.452 1.551.374 0 .671-.109.935-.33.209-.176.374-.407.473-.627l.66.363m-.781-1.617c-.132-.715-.671-1.188-1.342-1.188s-1.221.506-1.342 1.188h2.684"/>
 <path fill="#fff" d="m263.72 122.42l1.892 3.719 1.848-3.719 1.1 4.918h-.814l-.605-2.827-1.551 3.146-1.573-3.146-.583 2.827h-.814l1.1-4.918"/>
 <path fill="#fff" d="m273.02 122.77h.792v4.565h-.792v-.638c-.264.341-.759.77-1.562.77-1.155 0-2.223-.813-2.223-2.42 0-1.573 1.056-2.388 2.223-2.388.88 0 1.353.484 1.562.759v-.648m-2.97 2.277c0 .979.55 1.716 1.496 1.716.968 0 1.518-.803 1.518-1.705 0-1.177-.814-1.694-1.518-1.694-.781-.0001-1.496.572-1.496 1.683"/>
 <path fill="#fff" d="m229.26 132.83c-.264.88-1.012 1.122-1.497 1.243-.429.11-1.012.209-1.452.528-.572.429-.924 1.254-.957 2.09h.022c.297-.506.847-.836 1.661-.836 1.364 0 2.376 1.045 2.376 2.409s-1 2.398-2.498 2.398c-.77 0-1.276-.297-1.573-.572-.693-.638-.77-1.551-.77-2.354 0-.814.033-2.894 1.298-3.763.495-.342 1.067-.44 1.595-.562.616-.143.814-.33.913-.583h.882zm-3.872 5.435c0 1.122.792 1.694 1.606 1.694.825 0 1.606-.583 1.606-1.694 0-1.122-.77-1.705-1.606-1.705-.836 0-1.606.593-1.606 1.705"/>
 <path fill="#fff" d="m234.67 139.37c-.132.253-.33.528-.561.737-.418.374-.936.561-1.519.561-1.1 0-2.255-.693-2.255-2.387 0-1.364.836-2.421 2.211-2.421.891 0 1.452.44 1.728.836.286.407.451 1.111.429 1.717h-3.553c.011.946.66 1.551 1.452 1.551.374 0 .671-.109.935-.33.209-.176.374-.407.473-.627l.66.363m-.781-1.617c-.132-.715-.671-1.188-1.342-1.188s-1.221.506-1.342 1.188h2.684"/>
 <path fill="#fff" d="m235.95 136.68c.154-.22.363-.44.583-.572.352-.209.704-.253 1-.253.363 0 .737.033 1.078.319.297.253.396.55.396.869 0 .539-.286.813-.517.957.231.055.418.176.528.297.187.198.319.484.319.836 0 .474-.22.902-.594 1.178-.33.242-.803.352-1.298.352-.407 0-.836-.088-1.221-.385-.264-.198-.473-.495-.605-.781l.682-.286c.044.11.154.33.407.518.253.187.506.23.748.23.176 0 .528-.011.77-.176.154-.099.319-.309.319-.638 0-.254-.121-.43-.275-.528-.231-.154-.539-.154-.748-.154h-.462v-.726h.385c.363 0 .528-.077.594-.121.121-.077.242-.209.242-.418 0-.198-.077-.375-.198-.474-.187-.165-.44-.165-.583-.165-.176 0-.396.033-.627.176-.121.077-.264.198-.374.396l-.55-.451"/>
 <path fill="#fff" d="m240.27 138.27c0-1.386 1.023-2.409 2.42-2.409 1.397 0 2.42 1.023 2.42 2.409 0 1.387-1.034 2.398-2.42 2.398s-2.42-1.012-2.42-2.398m.815 0c0 1.122.792 1.694 1.606 1.694.825 0 1.606-.583 1.606-1.694 0-1.122-.77-1.705-1.606-1.705-.836 0-1.606.593-1.606 1.705"/>
 <path fill="#fff" d="m249.99 135.97v4.565h-.792v-3.84h-2.09v3.84h-.792v-4.565h3.674"/>
 <path fill="#fff" d="m254.98 135.97h.792v4.565h-.792v-.638c-.264.341-.759.77-1.562.77-1.155 0-2.223-.813-2.223-2.42 0-1.573 1.056-2.388 2.223-2.388.88 0 1.353.484 1.562.759v-.648m-2.97 2.277c0 .979.55 1.716 1.496 1.716.968 0 1.518-.803 1.518-1.705 0-1.177-.814-1.694-1.518-1.694-.781 0-1.496.572-1.496 1.683"/>
 <path fill="#fff" d="m260.85 137.24c-.418-.528-1.023-.683-1.43-.683-.847 0-1.617.594-1.617 1.705s.792 1.694 1.606 1.694c.473 0 1.056-.209 1.474-.715v.946c-.495.363-1.023.473-1.452.473-1.419 0-2.442-1.012-2.442-2.387 0-1.397 1.034-2.421 2.442-2.421.726 0 1.199.286 1.419.44v.948"/>
 <path fill="#fff" d="m262.09 135.97h.792v1.87h2.156v-1.87h.792v4.565h-.792v-1.97h-2.156v1.97h-.792v-4.565"/>
 <path fill="#fff" d="m267.04 138.27c0-1.386 1.023-2.409 2.42-2.409 1.397 0 2.42 1.023 2.42 2.409 0 1.387-1.034 2.398-2.42 2.398s-2.42-1.012-2.42-2.398m.815 0c0 1.122.792 1.694 1.606 1.694.825 0 1.606-.583 1.606-1.694 0-1.122-.77-1.705-1.606-1.705-.836 0-1.606.593-1.606 1.705"/>
 <path fill="#fff" d="m276.67 137.24c-.418-.528-1.023-.683-1.43-.683-.847 0-1.617.594-1.617 1.705s.792 1.694 1.606 1.694c.473 0 1.056-.209 1.474-.715v.946c-.495.363-1.023.473-1.452.473-1.419 0-2.442-1.012-2.442-2.387 0-1.397 1.034-2.421 2.442-2.421.726 0 1.199.286 1.419.44v.948"/>
 <path fill="#fff" d="m279.47 136.69v3.84h-.792v-3.84h-1.43v-.726h3.653v.726h-1.431"/>
 <path fill="#fff" d="m282.53 135.97v3.01l3.125-3.367v4.918h-.792v-3.048l-3.125 3.367v-4.885h.792"/>
 <path fill="#205081" d="m67.5 63.882c-.231-.231-.583-.506-.958-.683-.385-.176-.836-.285-1.265-.285-1.694 0-2.948 1.363-2.948 3.058 0 1.991 1.617 2.993 2.959 2.993.495 0 .979-.144 1.364-.342.418-.209.715-.483.847-.616v1.013c-.814.583-1.662.715-2.211.715-2.178 0-3.795-1.65-3.795-3.773 0-2.189 1.639-3.817 3.839-3.817.44 0 1.287.055 2.167.726v1.01z"/>
 <path fill="#205081" d="m69.59 65.04v3.02l3.125-3.367v4.918h-.792v-3.048l-3.125 3.367v-4.885h.792"/>
 <path fill="#205081" d="m77.79 66.31c-.418-.528-1.023-.683-1.43-.683-.847 0-1.617.594-1.617 1.705s.792 1.694 1.606 1.694c.473 0 1.056-.209 1.474-.715v.946c-.495.363-1.023.473-1.452.473-1.419 0-2.442-1.012-2.442-2.387 0-1.397 1.034-2.421 2.442-2.421.726 0 1.199.286 1.419.44v.948"/>
 <path fill="#205081" d="m80.59 65.763v3.84h-.792v-3.84h-1.43v-.726h3.653v.726h-1.431"/>
 <path fill="#205081" d="m86.91 68.44c-.132.253-.33.528-.561.737-.418.374-.936.561-1.519.561-1.1 0-2.255-.693-2.255-2.387 0-1.364.836-2.421 2.211-2.421.891 0 1.452.44 1.728.836.286.407.451 1.111.429 1.717h-3.553c.011.946.66 1.551 1.452 1.551.374 0 .671-.109.935-.33.209-.176.374-.407.473-.627l.66.363m-.781-1.618c-.132-.715-.671-1.188-1.342-1.188s-1.221.506-1.342 1.188h2.684"/>
 <path fill="#205081" d="m88.72 64.69l1.892 3.719 1.848-3.719 1.1 4.918h-.814l-.605-2.827-1.551 3.146-1.573-3.146-.583 2.827h-.814l1.1-4.918"/>
 <path fill="#205081" d="m98.03 65.04h.792v4.565h-.792v-.638c-.264.341-.759.77-1.562.77-1.155 0-2.223-.813-2.223-2.42 0-1.573 1.056-2.388 2.223-2.388.88 0 1.353.484 1.562.759v-.648m-2.97 2.277c0 .979.55 1.716 1.496 1.716.968 0 1.518-.803 1.518-1.705 0-1.177-.814-1.694-1.518-1.694-.781 0-1.496.572-1.496 1.683"/>
 <path fill="#205081" d="m36.937 78.34c0-1.386 1.023-2.409 2.42-2.409 1.397 0 2.42 1.023 2.42 2.409 0 1.387-1.034 2.398-2.42 2.398s-2.42-1.01-2.42-2.398m.814 0c0 1.122.792 1.694 1.606 1.694.825 0 1.606-.583 1.606-1.694 0-1.122-.77-1.705-1.606-1.705-.836 0-1.606.594-1.606 1.705"/>
 <path fill="#205081" d="m44.27 78.16l-1.661-2.123h.968l1.177 1.551 1.199-1.551h.968l-1.672 2.134 1.892 2.432h-.968l-1.441-1.859-1.441 1.859h-.968l1.947-2.443"/>
 <path fill="#205081" d="m48.772 83.13h-.792v-7.096h.792v.638c.539-.671 1.232-.748 1.563-.748 1.43 0 2.222 1.188 2.222 2.421 0 1.254-.803 2.387-2.189 2.387-.737 0-1.254-.33-1.595-.77v3.168zm2.971-4.785c0-1.123-.759-1.717-1.496-1.717-.737 0-1.519.605-1.519 1.705 0 .936.594 1.694 1.529 1.694.925 0 1.486-.769 1.486-1.682"/>
 <path fill="#205081" d="m57.27 76.04h.792v4.565h-.792v-.638c-.264.341-.759.77-1.562.77-1.155 0-2.223-.813-2.223-2.42 0-1.573 1.056-2.388 2.223-2.388.88 0 1.353.484 1.562.759v-.648m-2.971 2.277c0 .979.55 1.716 1.496 1.716.968 0 1.518-.803 1.518-1.705 0-1.177-.814-1.694-1.518-1.694-.781 0-1.496.572-1.496 1.683"/>
 <path fill="#205081" d="m59.55 76.04h.792v1.87h2.156v-1.87h.792v4.565h-.792v-1.97h-2.156v1.97h-.792v-4.565"/>
 <path fill="#205081" d="m64.788 76.04h.792v1.87h2.157v-1.87h.792v4.565h-.792v-1.97h-2.157v1.97h-.792v-4.565"/>
 <path fill="#205081" d="m69.74 78.34c0-1.386 1.023-2.409 2.42-2.409 1.397 0 2.42 1.023 2.42 2.409 0 1.387-1.034 2.398-2.42 2.398s-2.42-1.01-2.42-2.398m.815 0c0 1.122.792 1.694 1.606 1.694.825 0 1.606-.583 1.606-1.694 0-1.122-.77-1.705-1.606-1.705-.836 0-1.606.594-1.606 1.705"/>
 <path fill="#205081" d="m75.59 77.853h2.42v.813h-2.42v-.813"/>
 <path fill="#205081" d="m82.982 76.04v4.565h-.792v-3.84h-2.09v3.84h-.792v-4.565h3.674"/>
 <path fill="#205081" d="m84.19 78.34c0-1.386 1.023-2.409 2.42-2.409 1.397 0 2.42 1.023 2.42 2.409 0 1.387-1.034 2.398-2.42 2.398s-2.42-1.01-2.42-2.398m.814 0c0 1.122.792 1.694 1.606 1.694.825 0 1.606-.583 1.606-1.694 0-1.122-.77-1.705-1.606-1.705-.836 0-1.606.594-1.606 1.705"/>
 <path fill="#205081" d="m93.17 76.04v1.87l1.716-1.87h.924l-1.98 2.112 2.179 2.453h-.99l-1.694-1.925-.154.153v1.771h-.792v-1.771l-.154-.153-1.694 1.925h-.99l2.178-2.453-1.98-2.112h.924l1.716 1.87v-1.87h.791"/>
 <path fill="#205081" d="m100.3 76.04h.792v4.565h-.792v-.638c-.264.341-.759.77-1.562.77-1.155 0-2.223-.813-2.223-2.42 0-1.573 1.056-2.388 2.223-2.388.88 0 1.353.484 1.562.759v-.648m-2.97 2.277c0 .979.55 1.716 1.496 1.716.968 0 1.518-.803 1.518-1.705 0-1.177-.814-1.694-1.518-1.694-.781 0-1.496.572-1.496 1.683"/>
 <path fill="#205081" d="m103.37 83.13h-.792v-7.096h.792v.638c.539-.671 1.232-.748 1.563-.748 1.43 0 2.222 1.188 2.222 2.421 0 1.254-.803 2.387-2.189 2.387-.737 0-1.254-.33-1.595-.77v3.168zm2.97-4.785c0-1.123-.759-1.717-1.496-1.717-.737 0-1.519.605-1.519 1.705 0 .936.594 1.694 1.529 1.694.925 0 1.486-.769 1.486-1.682"/>
 <path fill="#205081" d="m108.37 76.04h.792v1.87h2.156v-1.87h.792v4.565h-.792v-1.97h-2.156v1.97h-.792v-4.565"/>
 <path fill="#205081" d="m113.32 78.34c0-1.386 1.023-2.409 2.42-2.409 1.397 0 2.42 1.023 2.42 2.409 0 1.387-1.034 2.398-2.42 2.398s-2.42-1.01-2.42-2.398m.814 0c0 1.122.792 1.694 1.606 1.694.825 0 1.606-.583 1.606-1.694 0-1.122-.77-1.705-1.606-1.705-.836 0-1.606.594-1.606 1.705"/>
 <path fill="#205081" d="m120.16 76.04v3.02l3.125-3.367v4.918h-.792v-3.048l-3.125 3.367v-4.885h.792m.264-2.223c.11.374.418.66.935.66s.825-.286.935-.66l.66.253c-.231.649-.825 1.067-1.595 1.067s-1.364-.418-1.595-1.067l.66-.253"/>
 <path fill="#205081" d="m53.789 88.31c-.418-.528-1.023-.683-1.43-.683-.847 0-1.617.594-1.617 1.705s.792 1.694 1.606 1.694c.473 0 1.056-.209 1.474-.715v.946c-.495.363-1.023.473-1.452.473-1.419 0-2.442-1.012-2.442-2.387 0-1.397 1.034-2.421 2.442-2.421.726 0 1.199.286 1.419.44v.948"/>
 <path fill="#205081" d="m55.823 87.04v3.02l3.125-3.367v4.918h-.792v-3.048l-3.125 3.367v-4.885h.792"/>
 <path fill="#205081" d="m60.44 87.04h2.707v.726h-1.915v3.84h-.792v-4.566"/>
 <path fill="#205081" d="m63.941 87.04h.792v1.87h2.156v-1.87h.792v4.565h-.791v-1.97h-2.156v1.97h-.792v-4.565"/>
 <path fill="#205081" d="m72.68 87.04h.792v4.565h-.792v-.638c-.264.341-.759.77-1.562.77-1.155 0-2.223-.813-2.223-2.42 0-1.573 1.056-2.388 2.223-2.388.88 0 1.353.484 1.562.759v-.648m-2.97 2.277c0 .979.55 1.716 1.496 1.716.968 0 1.518-.803 1.518-1.705 0-1.177-.814-1.694-1.518-1.694-.782 0-1.496.572-1.496 1.683"/>
 <path fill="#205081" d="m78.42 91.6h-.792v-3.84h-1.628v2.058c0 .385 0 .891-.352 1.32-.143.176-.484.484-1.1.484-.077 0-.165-.012-.242-.022v-.727c.055.012.121.022.176.022.297 0 .484-.154.572-.297.143-.22.154-.506.154-.781v-2.783h3.212v4.566"/>
 <path fill="#205081" d="m80.7 87.04v3.02l3.125-3.367v4.918h-.792v-3.048l-3.125 3.367v-4.885h.792"/>
 <path fill="#205081" d="m85.37 87.75c.154-.22.363-.44.583-.572.352-.209.704-.253 1-.253.363 0 .737.033 1.078.319.297.253.396.55.396.869 0 .539-.286.813-.517.957.231.055.418.176.528.297.188.198.319.484.319.836 0 .474-.22.902-.594 1.178-.33.242-.803.352-1.298.352-.407 0-.836-.088-1.221-.385-.264-.198-.473-.495-.605-.781l.682-.286c.044.11.154.33.407.518.253.187.506.23.748.23.176 0 .528-.011.77-.176.154-.099.319-.308.319-.638 0-.254-.121-.43-.275-.528-.231-.154-.539-.154-.748-.154h-.462v-.726h.385c.363 0 .528-.077.594-.121.121-.077.242-.209.242-.418 0-.198-.077-.375-.198-.474-.187-.165-.44-.165-.583-.165-.176 0-.396.033-.627.176-.121.077-.264.198-.374.396l-.55-.451"/>
 <path fill="#205081" d="m93.47 87.04h.792v4.565h-.792v-.638c-.264.341-.759.77-1.562.77-1.155 0-2.223-.813-2.223-2.42 0-1.573 1.056-2.388 2.223-2.388.88 0 1.353.484 1.562.759v-.648m-2.97 2.277c0 .979.55 1.716 1.496 1.716.968 0 1.518-.803 1.518-1.705 0-1.177-.814-1.694-1.518-1.694-.782 0-1.496.572-1.496 1.683"/>
 <path fill="#205081" d="m95.75 87.04h.792v3.839h2.046v-3.839h.792v3.839h.749v1.937h-.727v-1.21h-3.652v-4.566"/>
 <path fill="#205081" d="m101.76 87.04v3.02l3.125-3.367v4.918h-.792v-3.048l-3.125 3.367v-4.885h.792"/>
 <path fill="#205081" d="m107.17 87.04v3.02l3.125-3.367v4.918h-.792v-3.048l-3.125 3.367v-4.885h.792"/>
 <path fill="#205081" d="m67.5 121.28c-.231-.231-.583-.506-.958-.683-.385-.176-.836-.285-1.265-.285-1.694 0-2.948 1.363-2.948 3.058 0 1.991 1.617 2.993 2.959 2.993.495 0 .979-.144 1.364-.342.418-.209.715-.483.847-.616v1.013c-.814.583-1.662.715-2.211.715-2.178 0-3.795-1.65-3.795-3.773 0-2.189 1.639-3.817 3.839-3.817.44 0 1.287.055 2.167.726v1.01z"/>
 <path fill="#205081" d="m69.59 122.44v3.02l3.125-3.367v4.918h-.792v-3.048l-3.125 3.367v-4.885h.792"/>
 <path fill="#205081" d="m77.79 123.72c-.418-.528-1.023-.683-1.43-.683-.847 0-1.617.594-1.617 1.705s.792 1.694 1.606 1.694c.473 0 1.056-.209 1.474-.715v.946c-.495.363-1.023.473-1.452.473-1.419 0-2.442-1.012-2.442-2.387 0-1.397 1.034-2.421 2.442-2.421.726 0 1.199.286 1.419.44v.948"/>
 <path fill="#205081" d="m80.59 123.16v3.84h-.792v-3.84h-1.43v-.726h3.653v.726h-1.431"/>
 <path fill="#205081" d="m86.91 125.84c-.132.253-.33.528-.561.737-.418.374-.936.561-1.519.561-1.1 0-2.255-.693-2.255-2.387 0-1.364.836-2.421 2.211-2.421.891 0 1.452.44 1.728.836.286.407.451 1.111.429 1.717h-3.553c.011.946.66 1.551 1.452 1.551.374 0 .671-.109.935-.33.209-.176.374-.407.473-.627l.66.363m-.781-1.617c-.132-.715-.671-1.188-1.342-1.188s-1.221.506-1.342 1.188h2.684"/>
 <path fill="#205081" d="m88.72 122.09l1.892 3.719 1.848-3.719 1.1 4.918h-.814l-.605-2.827-1.551 3.146-1.573-3.146-.583 2.827h-.814l1.1-4.918"/>
 <path fill="#205081" d="m98.03 122.44h.792v4.565h-.792v-.638c-.264.341-.759.77-1.562.77-1.155 0-2.223-.813-2.223-2.42 0-1.573 1.056-2.388 2.223-2.388.88 0 1.353.484 1.562.759v-.648m-2.97 2.278c0 .979.55 1.716 1.496 1.716.968 0 1.518-.803 1.518-1.705 0-1.177-.814-1.694-1.518-1.694-.781-.0001-1.496.571-1.496 1.683"/>
 <path fill="#205081" d="m42.542 133.44v1.87l1.849-1.87h.968l-1.98 2.035 2.222 2.53h-1.034l-1.782-2-.242.23v1.771h-.793v-4.565h.792z"/>
 <path fill="#205081" d="m46.1 135.74c0-1.386 1.023-2.409 2.42-2.409 1.397 0 2.42 1.023 2.42 2.409 0 1.387-1.034 2.398-2.42 2.398s-2.42-1.01-2.42-2.398m.815 0c0 1.122.792 1.694 1.606 1.694.825 0 1.606-.583 1.606-1.694 0-1.122-.77-1.705-1.606-1.705-.836 0-1.606.594-1.606 1.705"/>
 <path fill="#205081" d="m52.16 133.44h.792v1.87h2.156v-1.87h.792v4.565h-.792v-1.97h-2.156v1.97h-.792v-4.565"/>
 <path fill="#205081" d="m58.954 134.16v3.84h-.792v-3.84h-1.43v-.726h3.653v.726h-1.431"/>
 <path fill="#205081" d="m62.01 140.53h-.792v-7.096h.792v.638c.539-.671 1.232-.748 1.563-.748 1.43 0 2.222 1.188 2.222 2.421 0 1.254-.803 2.387-2.189 2.387-.737 0-1.254-.33-1.595-.77v3.168zm2.971-4.785c0-1.123-.759-1.717-1.496-1.717-.737 0-1.519.605-1.519 1.705 0 .936.594 1.694 1.529 1.694.925.0001 1.486-.769 1.486-1.682"/>
 <path fill="#205081" d="m66.72 135.74c0-1.386 1.023-2.409 2.42-2.409 1.397 0 2.42 1.023 2.42 2.409 0 1.387-1.034 2.398-2.42 2.398s-2.42-1.01-2.42-2.398m.814 0c0 1.122.792 1.694 1.606 1.694.825 0 1.606-.583 1.606-1.694 0-1.122-.77-1.705-1.606-1.705-.836 0-1.606.594-1.606 1.705"/>
 <path fill="#205081" d="m76.22 138h-.792v-3.84h-1.628v2.058c0 .385 0 .891-.352 1.32-.143.176-.484.484-1.1.484-.077 0-.165-.012-.242-.022v-.727c.055.012.121.022.176.022.297 0 .484-.154.572-.297.143-.22.154-.506.154-.781v-2.783h3.212v4.566"/>
 <path fill="#205081" d="m78.61 136.12c-.055 0-.55-.044-.88-.363-.187-.176-.363-.484-.363-.913 0-.43.154-.792.407-1.023.396-.374.891-.385 1.342-.385h1.595v4.565h-.792v-1.837h-.484l-1.298 1.837h-.946l1.419-1.881m1.309-1.98h-.737c-.319 0-.55.021-.715.121-.132.088-.286.264-.286.561 0 .242.088.43.286.551.231.143.517.132.704.132h.748v-1.365"/>
 <path fill="#205081" d="m88.31 133.44v3.839h.682v1.937h-.726v-1.21h-3.477v1.21h-.726v-1.937c.396-.011.693-.274.847-.594s.187-.748.187-1.21v-2.035h3.213m-.792.726h-1.628v1.717c0 .527-.121 1.022-.55 1.396h2.178v-3.113"/>
 <path fill="#205081" d="m89.54 135.74c0-1.386 1.023-2.409 2.42-2.409 1.397 0 2.42 1.023 2.42 2.409 0 1.387-1.034 2.398-2.42 2.398s-2.42-1.01-2.42-2.398m.815 0c0 1.122.792 1.694 1.606 1.694.825 0 1.606-.583 1.606-1.694 0-1.122-.77-1.705-1.606-1.705-.836 0-1.606.594-1.606 1.705"/>
 <path fill="#205081" d="m99.17 134.72c-.418-.528-1.023-.683-1.43-.683-.847 0-1.617.594-1.617 1.705s.792 1.694 1.606 1.694c.473 0 1.056-.209 1.474-.715v.946c-.495.363-1.023.473-1.452.473-1.419 0-2.442-1.012-2.442-2.387 0-1.397 1.034-2.421 2.442-2.421.726 0 1.199.286 1.419.44v.948"/>
 <path fill="#205081" d="m101.97 134.16v3.84h-.792v-3.84h-1.43v-.726h3.653v.726h-1.431"/>
 <path fill="#205081" d="m105.68 137.57l-2.102-4.137h.902l1.617 3.268 1.485-3.268h.88l-3.355 7.096h-.88l1.453-2.959"/>
 <path fill="#205081" d="m112.97 133.44v4.565h-.792v-3.84h-2.09v3.84h-.792v-4.565h3.674"/>
 <path fill="#205081" d="m117.97 133.44h.792v4.565h-.792v-.638c-.264.341-.759.77-1.562.77-1.155 0-2.223-.813-2.223-2.42 0-1.573 1.056-2.388 2.223-2.388.88 0 1.353.484 1.562.759v-.648m-2.97 2.278c0 .979.55 1.716 1.496 1.716.968 0 1.518-.803 1.518-1.705 0-1.177-.814-1.694-1.518-1.694-.782-.0001-1.496.571-1.496 1.683"/>
 <path fill="#205081" d="m67.5 171.78c-.231-.231-.583-.506-.958-.683-.385-.176-.836-.285-1.265-.285-1.694 0-2.948 1.363-2.948 3.058 0 1.991 1.617 2.993 2.959 2.993.495 0 .979-.144 1.364-.342.418-.209.715-.483.847-.616v1.013c-.814.583-1.662.715-2.211.715-2.178 0-3.795-1.65-3.795-3.773 0-2.189 1.639-3.817 3.839-3.817.44 0 1.287.055 2.167.726v1.01z"/>
 <path fill="#205081" d="m69.59 172.94v3.01l3.125-3.367v4.918h-.792v-3.048l-3.125 3.367v-4.885h.792"/>
 <path fill="#205081" d="m77.79 174.22c-.418-.528-1.023-.683-1.43-.683-.847 0-1.617.594-1.617 1.705s.792 1.694 1.606 1.694c.473 0 1.056-.209 1.474-.715v.946c-.495.363-1.023.473-1.452.473-1.419 0-2.442-1.012-2.442-2.387 0-1.397 1.034-2.421 2.442-2.421.726 0 1.199.286 1.419.44v.948"/>
 <path fill="#205081" d="m80.59 173.66v3.84h-.792v-3.84h-1.43v-.726h3.653v.726h-1.431"/>
 <path fill="#205081" d="m86.91 176.34c-.132.253-.33.528-.561.737-.418.374-.936.561-1.519.561-1.1 0-2.255-.693-2.255-2.387 0-1.364.836-2.421 2.211-2.421.891 0 1.452.44 1.728.836.286.407.451 1.111.429 1.717h-3.553c.011.946.66 1.551 1.452 1.551.374 0 .671-.109.935-.33.209-.176.374-.407.473-.627l.66.363m-.781-1.617c-.132-.715-.671-1.188-1.342-1.188s-1.221.506-1.342 1.188h2.684"/>
 <path fill="#205081" d="m88.72 172.59l1.892 3.719 1.848-3.719 1.1 4.918h-.814l-.605-2.827-1.551 3.146-1.573-3.146-.583 2.827h-.814l1.1-4.918"/>
 <path fill="#205081" d="m98.03 172.94h.792v4.565h-.792v-.638c-.264.341-.759.77-1.562.77-1.155 0-2.223-.813-2.223-2.42 0-1.573 1.056-2.388 2.223-2.388.88 0 1.353.484 1.562.759v-.648m-2.97 2.278c0 .979.55 1.716 1.496 1.716.968 0 1.518-.803 1.518-1.705 0-1.177-.814-1.694-1.518-1.694-.781-.0001-1.496.571-1.496 1.683"/>
 <path fill="#205081" d="m42.2 183.94c.242 0 .638.011.957.264.165.132.396.396.396.858 0 .451-.22.737-.495.913.132.033.352.099.572.308.253.242.363.528.363.881 0 .483-.22.836-.473 1.034-.275.209-.715.308-1.078.308h-1.969v-4.565h1.727zm-.099 1.86c.077 0 .33-.012.506-.133.088-.065.22-.197.22-.473 0-.22-.099-.352-.22-.44-.187-.12-.396-.109-.638-.109h-.704v1.155h.836m.143 2c.22 0 .517-.011.715-.154.143-.109.264-.297.264-.506s-.077-.396-.231-.517c-.198-.154-.495-.165-.715-.165h-1.012v1.342h.979"/>
 <path fill="#205081" d="m45.99 183.94v3.01l3.125-3.367v4.918h-.792v-3.048l-3.125 3.367v-4.885h.792"/>
 <path fill="#205081" d="m54.15 183.94v3.839h.682v1.937h-.726v-1.21h-3.477v1.21h-.726v-1.937c.396-.011.693-.274.847-.594s.187-.748.187-1.21v-2.035h3.213m-.792.726h-1.628v1.717c0 .527-.121 1.022-.55 1.396h2.178v-3.113"/>
 <path fill="#205081" d="m59.719 187.34c-.132.253-.33.528-.561.737-.418.374-.936.561-1.519.561-1.1 0-2.255-.693-2.255-2.387 0-1.364.836-2.421 2.211-2.421.891 0 1.452.44 1.727.836.286.407.451 1.111.429 1.717h-3.553c.011.946.66 1.551 1.452 1.551.374 0 .671-.109.935-.33.209-.176.374-.407.473-.627l.661.363m-.781-1.617c-.132-.715-.671-1.188-1.342-1.188-.671 0-1.221.506-1.342 1.188h2.684"/>
 <path fill="#205081" d="m60.675 186.24c0-1.386 1.023-2.409 2.42-2.409 1.397 0 2.42 1.023 2.42 2.409 0 1.387-1.034 2.398-2.42 2.398s-2.42-1.01-2.42-2.398m.814 0c0 1.122.792 1.694 1.606 1.694.825 0 1.606-.583 1.606-1.694 0-1.122-.77-1.705-1.606-1.705-.836 0-1.606.594-1.606 1.705"/>
 <path fill="#205081" d="m66.72 183.94h.792v1.87h2.156v-1.87h.792v4.565h-.792v-1.97h-2.156v1.97h-.792v-4.565"/>
 <path fill="#205081" d="m75.46 183.94h.792v4.565h-.792v-.638c-.264.341-.759.77-1.562.77-1.155 0-2.223-.813-2.223-2.42 0-1.573 1.056-2.388 2.223-2.388.88 0 1.353.484 1.562.759v-.648m-2.97 2.278c0 .979.55 1.716 1.496 1.716.968 0 1.518-.803 1.518-1.705 0-1.177-.814-1.694-1.518-1.694-.781-.0001-1.496.571-1.496 1.683"/>
 <path fill="#205081" d="m82.15 180.8c-.264.88-1.012 1.122-1.497 1.243-.429.11-1.012.209-1.452.528-.572.429-.924 1.254-.957 2.09h.022c.297-.506.847-.836 1.661-.836 1.364 0 2.376 1.045 2.376 2.409s-1 2.398-2.498 2.398c-.77 0-1.276-.297-1.573-.572-.693-.638-.771-1.551-.771-2.354 0-.814.033-2.894 1.298-3.763.495-.342 1.067-.44 1.595-.562.616-.143.814-.33.913-.583h.883zm-3.873 5.434c0 1.122.792 1.694 1.606 1.694.825 0 1.606-.583 1.606-1.694 0-1.122-.77-1.705-1.606-1.705-.836 0-1.606.594-1.606 1.705"/>
 <path fill="#205081" d="m86.964 188.5h-.792v-3.84h-1.628v2.058c0 .385 0 .891-.352 1.32-.143.176-.484.484-1.1.484-.077 0-.165-.012-.242-.022v-.727c.055.012.121.022.176.022.297 0 .484-.154.572-.297.143-.22.154-.506.154-.781v-2.783h3.212v4.566"/>
 <path fill="#205081" d="m90.08 185.81c.077-.55.33-1 .616-1.298.396-.419 1-.683 1.727-.683 1.408 0 2.42 1.023 2.42 2.409 0 1.387-1.023 2.398-2.42 2.398-.946 0-1.54-.429-1.881-.858-.22-.274-.451-.692-.506-1.243h-.781v1.97h-.792v-4.565h.792v1.87h.825m.77.428c0 1.122.771 1.694 1.573 1.694.825 0 1.606-.583 1.606-1.694s-.77-1.705-1.606-1.705c-.847 0-1.573.616-1.573 1.705"/>
 <path fill="#205081" d="m99.59 183.94v3.839h.682v1.937h-.726v-1.21h-3.477v1.21h-.726v-1.937c.396-.011.693-.274.847-.594s.187-.748.187-1.21v-2.035h3.213m-.792.726h-1.628v1.717c0 .527-.121 1.022-.55 1.396h2.178v-3.113"/>
 <path fill="#205081" d="m105.16 187.34c-.132.253-.33.528-.561.737-.418.374-.936.561-1.519.561-1.1 0-2.255-.693-2.255-2.387 0-1.364.836-2.421 2.211-2.421.891 0 1.452.44 1.728.836.286.407.451 1.111.429 1.717h-3.553c.011.946.66 1.551 1.452 1.551.374 0 .671-.109.935-.33.209-.176.374-.407.473-.627l.66.363m-.782-1.617c-.132-.715-.671-1.188-1.342-1.188s-1.221.506-1.342 1.188h2.684"/>
 <path fill="#205081" d="m106.4 183.94h.792v1.87h2.157v-1.87h.792v4.565h-.792v-1.97h-2.157v1.97h-.792v-4.565"/>
 <path fill="#205081" d="m112.43 183.94v3.01l3.125-3.367v4.918h-.792v-3.048l-3.125 3.367v-4.885h.792"/>
 <path fill="#205081" d="m117.94 186.62c-.055 0-.55-.044-.88-.363-.187-.176-.363-.484-.363-.913 0-.43.154-.792.407-1.023.396-.374.891-.385 1.342-.385h1.595v4.565h-.792v-1.837h-.484l-1.298 1.837h-.946l1.419-1.881m1.309-1.98h-.737c-.319 0-.55.021-.715.121-.132.088-.286.264-.286.561 0 .242.088.43.286.551.231.143.517.132.704.132h.748v-1.365"/>
 <path fill="#205081" d="m581.5 67.72v6.567h.836v2.311h-.771v-1.54h-5.192v1.54h-.771v-2.311c.528.022.946-.439 1.167-.99.143-.362.264-.913.264-1.925v-3.652h4.467m-3.653 3.652c0 1.012-.088 1.584-.265 2.046-.132.353-.319.628-.562.869h3.664v-5.798h-2.838v2.883"/>
 <path fill="#205081" d="m584.03 70.49v3.02l3.124-3.367v4.918h-.792v-3.048l-3.125 3.367v-4.885h.793"/>
 <path fill="#205081" d="m592.22 71.77c-.418-.528-1.023-.683-1.43-.683-.848 0-1.617.594-1.617 1.705s.791 1.694 1.605 1.694c.473 0 1.057-.209 1.475-.715v.946c-.496.363-1.023.473-1.453.473-1.418 0-2.441-1.012-2.441-2.387 0-1.397 1.033-2.421 2.441-2.421.727 0 1.199.286 1.42.44v.948"/>
 <path fill="#205081" d="m593.47 70.49h.792v3.839h2.046v-3.839h.793v3.839h.748v1.937h-.727v-1.21h-3.652v-4.566"/>
 <path fill="#205081" d="m599.47 70.49v3.02l3.125-3.367v4.918h-.793v-3.048l-3.124 3.367v-4.885h.792"/>
 <path fill="#205081" d="m607.77 70.49v4.565h-.793v-3.84h-2.09v3.84h-.792v-4.565h3.675"/>
 <path fill="#205081" d="m612.72 75.05h-.791v-3.84h-1.629v2.058c0 .385 0 .891-.352 1.32-.144.176-.484.484-1.101.484-.077 0-.165-.012-.242-.022v-.727c.056.012.121.022.177.022.297 0 .483-.154.571-.297.144-.22.154-.506.154-.781v-2.783h3.212v4.566"/>
 <path fill="#205081" d="m615 70.49v3.02l3.124-3.367v4.918h-.791v-3.048l-3.125 3.367v-4.885h.792"/>
 <path fill="#205081" d="m619.62 70.49h.792v1.87h2.157v-1.87h.791v4.565h-.791v-1.97h-2.157v1.97h-.792v-4.565"/>
 <path fill="#205081" d="m628.36 70.49h.792v4.565h-.792v-.638c-.264.341-.76.77-1.563.77-1.154 0-2.223-.813-2.223-2.42 0-1.573 1.057-2.388 2.223-2.388.881 0 1.354.484 1.563.759v-.648m-2.971 2.278c0 .979.551 1.716 1.496 1.716.969 0 1.519-.803 1.519-1.705 0-1.177-.813-1.694-1.519-1.694-.781-.0001-1.496.571-1.496 1.683"/>
 <path fill="#205081" d="m631.44 77.58h-.792v-7.096h.792v.638c.539-.671 1.232-.748 1.563-.748 1.431 0 2.222 1.188 2.222 2.421 0 1.254-.803 2.387-2.189 2.387-.736 0-1.254-.33-1.595-.77v3.168m2.97-4.785c0-1.123-.759-1.717-1.496-1.717s-1.519.605-1.519 1.705c0 .936.594 1.694 1.529 1.694.924 0 1.486-.769 1.486-1.682"/>
 <path fill="#205081" d="m636.43 70.49h.793v1.87h2.156v-1.87h.792v4.565h-.792v-1.97h-2.156v1.97h-.793v-4.565"/>
 <path fill="#205081" d="m641.67 70.49h.792v1.749h.814c.407 0 .979.033 1.386.451.176.176.353.495.353.957 0 .495-.209.836-.407 1.023-.396.374-.891.385-1.342.385h-1.596v-4.565m1.53 3.862c.264 0 .518-.011.704-.121.099-.066.297-.23.297-.583 0-.198-.055-.429-.286-.572-.197-.132-.451-.132-.703-.132h-.749v1.408h.737m2.365-3.862h.792v4.565h-.792v-4.565"/>
 <path fill="#205081" d="m651.9 73.888c-.132.253-.33.528-.561.737-.418.374-.936.561-1.519.561-1.101 0-2.255-.693-2.255-2.387 0-1.364.836-2.421 2.211-2.421.891 0 1.452.44 1.727.836.287.407.451 1.111.43 1.717h-3.553c.001.946.66 1.551 1.451 1.551.375 0 .672-.109.936-.33.209-.176.374-.407.473-.627l.66.363m-.781-1.617c-.131-.715-.67-1.188-1.342-1.188-.671 0-1.221.506-1.342 1.188h2.684"/>
 <path fill="#205081" d="m598.29 83.79c0-1.386 1.023-2.409 2.421-2.409s2.421 1.023 2.421 2.409c0 1.387-1.035 2.398-2.421 2.398s-2.421-1.01-2.421-2.398m.814 0c0 1.122.793 1.694 1.606 1.694.825 0 1.606-.583 1.606-1.694 0-1.122-.77-1.705-1.606-1.705-.835 0-1.606.594-1.606 1.705"/>
 <path fill="#205081" d="m605.9 82.21v3.84h-.793v-3.84h-1.43v-.726h3.652v.726h-1.429"/>
 <path fill="#205081" d="m610.61 84.26c-.285.044-.759.099-1.078.099-.23 0-.759-.011-1.111-.33-.308-.275-.385-.682-.385-1.122v-1.419h.793v1.309c0 .165.021.407.099.539.144.275.451.298.692.298.298 0 .65-.033.99-.1v-2.046h.793v4.565h-.793v-1.793"/>
 <path fill="#205081" d="m616.95 84.89c-.132.253-.33.528-.562.737-.418.374-.936.561-1.518.561-1.101 0-2.256-.693-2.256-2.387 0-1.364.836-2.421 2.211-2.421.892 0 1.453.44 1.729.836.285.407.45 1.111.428 1.717h-3.553c.011.946.66 1.551 1.452 1.551.374 0 .671-.109.935-.33.209-.176.375-.407.474-.627l.66.363m-.781-1.617c-.132-.715-.671-1.188-1.343-1.188-.67 0-1.221.506-1.342 1.188h2.685"/>
 <path fill="#205081" d="m619.75 82.21v3.84h-.792v-3.84h-1.431v-.726h3.653v.726h-1.43"/>
 <path fill="#205081" d="m622.02 81.49h.792v1.749h.814c.406 0 .979.033 1.387.451.176.176.352.495.352.957 0 .495-.209.836-.407 1.023-.396.374-.892.385-1.343.385h-1.595v-4.565m1.529 3.862c.265 0 .517-.011.704-.121.1-.066.297-.23.297-.583 0-.198-.055-.429-.285-.572-.199-.132-.451-.132-.705-.132h-.748v1.408h.737m2.366-3.862h.792v4.565h-.792v-4.565"/>
 <path fill="#205081" d="m601.17 121.73c-.232-.231-.584-.506-.958-.683-.385-.176-.836-.285-1.265-.285-1.695 0-2.949 1.363-2.949 3.058 0 1.991 1.617 2.993 2.96 2.993.495 0 .979-.144 1.364-.342.418-.209.715-.483.848-.616v1.013c-.814.583-1.662.715-2.212.715-2.179 0-3.796-1.65-3.796-3.773 0-2.189 1.64-3.817 3.84-3.817.439 0 1.287.055 2.168.726v1.01"/>
 <path fill="#205081" d="m603.25 122.89v3.02l3.125-3.367v4.918h-.792v-3.048l-3.124 3.367v-4.885h.791"/>
 <path fill="#205081" d="m611.45 124.17c-.418-.528-1.023-.683-1.431-.683-.847 0-1.617.594-1.617 1.705s.793 1.694 1.606 1.694c.474 0 1.056-.209 1.474-.715v.946c-.494.363-1.022.473-1.451.473-1.42 0-2.443-1.012-2.443-2.387 0-1.397 1.035-2.421 2.443-2.421.726 0 1.199.286 1.419.44v.948"/>
 <path fill="#205081" d="m614.26 123.61v3.84h-.792v-3.84h-1.431v-.726h3.653v.726h-1.43"/>
 <path fill="#205081" d="m620.57 126.29c-.132.253-.33.528-.562.737-.418.374-.936.561-1.518.561-1.101 0-2.256-.693-2.256-2.387 0-1.364.836-2.421 2.211-2.421.892 0 1.453.44 1.729.836.285.407.45 1.111.428 1.717h-3.553c.011.946.66 1.551 1.452 1.551.374 0 .671-.109.935-.33.209-.176.375-.407.474-.627l.66.363m-.781-1.617c-.132-.715-.671-1.188-1.343-1.188-.67 0-1.221.506-1.342 1.188h2.685"/>
 <path fill="#205081" d="m622.38 122.54l1.892 3.719 1.849-3.719 1.101 4.918h-.814l-.605-2.827-1.551 3.146-1.573-3.146-.583 2.827h-.814l1.098-4.918"/>
 <path fill="#205081" d="m631.69 122.89h.793v4.565h-.793v-.638c-.264.341-.759.77-1.562.77-1.155 0-2.223-.813-2.223-2.42 0-1.573 1.056-2.388 2.223-2.388.88 0 1.353.484 1.562.759v-.648m-2.97 2.277c0 .979.55 1.716 1.496 1.716.968 0 1.519-.803 1.519-1.705 0-1.177-.814-1.694-1.519-1.694-.781-.0001-1.496.572-1.496 1.683"/>
 <path fill="#205081" d="m566.71 137.73l-.506.396-1.65-2 1.65-2.068.506.407-1.32 1.661 1.32 1.606m1.629 0l-.506.396-1.65-2 1.65-2.068.506.407-1.32 1.661 1.32 1.606"/>
 <path fill="#205081" d="m575.23 131.12v7.338h-.814v-6.568h-3.763v6.568h-.813v-7.338h5.39"/>
 <path fill="#205081" d="m577.71 140.99h-.792v-7.096h.792v.638c.539-.671 1.232-.748 1.563-.748 1.43 0 2.223 1.188 2.223 2.421 0 1.254-.804 2.387-2.189 2.387-.737 0-1.254-.33-1.596-.77v3.168m2.97-4.785c0-1.123-.76-1.717-1.496-1.717-.737 0-1.519.605-1.519 1.705 0 .936.595 1.694 1.529 1.694.926.0001 1.486-.769 1.486-1.682"/>
 <path fill="#205081" d="m582.42 136.19c0-1.386 1.023-2.409 2.421-2.409s2.421 1.023 2.421 2.409c0 1.387-1.035 2.398-2.421 2.398s-2.421-1.01-2.421-2.398m.815 0c0 1.122.793 1.694 1.606 1.694.825 0 1.606-.583 1.606-1.694 0-1.122-.77-1.705-1.606-1.705-.836 0-1.606.594-1.606 1.705"/>
 <path fill="#205081" d="m588.51 134.6c.154-.22.363-.44.584-.572.352-.209.703-.253 1-.253.362 0 .737.033 1.078.319.297.253.396.55.396.869 0 .539-.285.813-.517.957.231.055.418.176.528.297.188.198.318.484.318.836 0 .474-.22.902-.594 1.178-.33.242-.803.352-1.299.352-.406 0-.836-.088-1.221-.385-.264-.198-.473-.495-.605-.781l.683-.286c.044.11.154.33.407.518.253.187.506.23.748.23.176 0 .528-.011.77-.176.154-.099.32-.308.32-.638 0-.254-.121-.43-.275-.528-.231-.154-.539-.154-.748-.154h-.463v-.726h.385c.363 0 .529-.077.595-.121.121-.077.242-.209.242-.418 0-.198-.077-.375-.198-.474-.188-.165-.439-.165-.583-.165-.176 0-.396.033-.627.176-.121.077-.265.198-.374.396l-.551-.451"/>
 <path fill="#205081" d="m593.91 140.99h-.792v-7.096h.792v.638c.539-.671 1.232-.748 1.563-.748 1.43 0 2.223 1.188 2.223 2.421 0 1.254-.804 2.387-2.189 2.387-.737 0-1.254-.33-1.596-.77v3.168m2.969-4.785c0-1.123-.76-1.717-1.496-1.717-.737 0-1.519.605-1.519 1.705 0 .936.595 1.694 1.529 1.694.926.0001 1.486-.769 1.486-1.682"/>
 <path fill="#205081" d="m602.4 133.89h.792v4.565h-.792v-.638c-.264.341-.76.77-1.563.77-1.154 0-2.223-.813-2.223-2.42 0-1.573 1.057-2.388 2.223-2.388.881 0 1.354.484 1.563.759v-.648m-2.971 2.277c0 .979.551 1.716 1.496 1.716.969 0 1.519-.803 1.519-1.705 0-1.177-.813-1.694-1.519-1.694-.781-.0001-1.496.572-1.496 1.683"/>
 <path fill="#205081" d="m607.13 136.66c-.286.044-.759.099-1.078.099-.231 0-.759-.011-1.111-.33-.308-.275-.385-.682-.385-1.122v-1.419h.792v1.309c0 .165.021.407.1.539.143.275.451.298.692.298.298 0 .649-.033.99-.1v-2.046h.792v4.565h-.792v-1.793"/>
 <path fill="#205081" d="m609.42 133.89h.791v1.87h2.156v-1.87h.793v4.565h-.793v-1.97h-2.156v1.97h-.791v-4.565"/>
 <path fill="#205081" d="m614.37 136.19c0-1.386 1.023-2.409 2.42-2.409 1.398 0 2.421 1.023 2.421 2.409 0 1.387-1.034 2.398-2.421 2.398-1.386.0001-2.42-1.01-2.42-2.398m.814 0c0 1.122.792 1.694 1.605 1.694.826 0 1.607-.583 1.607-1.694 0-1.122-.771-1.705-1.607-1.705-.835 0-1.605.594-1.605 1.705"/>
 <path fill="#205081" d="m624.46 137.29c-.132.253-.33.528-.562.737-.418.374-.936.561-1.518.561-1.101 0-2.256-.693-2.256-2.387 0-1.364.836-2.421 2.211-2.421.892 0 1.453.44 1.729.836.285.407.45 1.111.428 1.717h-3.553c.011.946.66 1.551 1.452 1.551.374 0 .671-.109.935-.33.209-.176.375-.407.474-.627l.66.363m-.781-1.617c-.132-.715-.671-1.188-1.343-1.188-.67 0-1.221.506-1.342 1.188h2.685"/>
 <path fill="#205081" d="m628.31 134.6c.154-.22.363-.44.584-.572.352-.209.703-.253 1-.253.362 0 .737.033 1.078.319.297.253.396.55.396.869 0 .539-.285.813-.517.957.231.055.418.176.528.297.188.198.318.484.318.836 0 .474-.22.902-.594 1.178-.33.242-.803.352-1.299.352-.406 0-.836-.088-1.221-.385-.264-.198-.473-.495-.605-.781l.683-.286c.044.11.154.33.407.518.253.187.506.23.748.23.176 0 .528-.011.77-.176.154-.099.32-.308.32-.638 0-.254-.121-.43-.275-.528-.231-.154-.539-.154-.748-.154h-.463v-.726h.385c.363 0 .529-.077.595-.121.121-.077.242-.209.242-.418 0-.198-.077-.375-.198-.474-.188-.165-.439-.165-.583-.165-.176 0-.396.033-.627.176-.121.077-.265.198-.374.396l-.551-.451"/>
 <path fill="#205081" d="m636.45 133.89v3.839h.683v1.937h-.726v-1.21h-3.477v1.21h-.727v-1.937c.396-.011.693-.274.848-.594.153-.319.187-.748.187-1.21v-2.035h3.212m-.791.725h-1.629v1.717c0 .527-.121 1.022-.55 1.396h2.179v-3.113"/>
 <path fill="#205081" d="m641.47 133.89h.792v4.565h-.792v-.638c-.265.341-.759.77-1.562.77-1.156 0-2.223-.813-2.223-2.42 0-1.573 1.056-2.388 2.223-2.388.879 0 1.353.484 1.562.759v-.648m-2.969 2.277c0 .979.549 1.716 1.496 1.716.968 0 1.518-.803 1.518-1.705 0-1.177-.814-1.694-1.518-1.694-.782-.0001-1.496.572-1.496 1.683"/>
 <path fill="#205081" d="m643.76 133.89h.792v1.87h2.156v-1.87h.793v4.565h-.793v-1.97h-2.156v1.97h-.792v-4.565"/>
 <path fill="#205081" d="m649.78 133.89v3.01l3.124-3.367v4.918h-.792v-3.048l-3.125 3.367v-4.885h.793"/>
 <path fill="#205081" d="m658.45 137.29c-.132.253-.33.528-.561.737-.418.374-.936.561-1.519.561-1.101 0-2.255-.693-2.255-2.387 0-1.364.836-2.421 2.211-2.421.891 0 1.452.44 1.727.836.287.407.451 1.111.43 1.717h-3.553c.001.946.66 1.551 1.451 1.551.375 0 .672-.109.936-.33.209-.176.374-.407.473-.627l.66.363m-.782-1.617c-.131-.715-.67-1.188-1.342-1.188-.671 0-1.221.506-1.342 1.188h2.684"/>
 <path fill="#205081" d="m659.5 134.45l.506-.396 1.65 2-1.65 2.068-.506-.407 1.32-1.661-1.32-1.606m1.627 0l.507-.396 1.649 2-1.649 2.068-.507-.407 1.32-1.661-1.32-1.606"/>
 <path fill="#205081" d="m571.74 176.89h-3.124l-.881 2.068h-.902l3.378-7.69 3.29 7.69h-.902l-.859-2.068m-.32-.771l-1.232-2.937-1.254 2.937h2.486"/>
 <path fill="#205081" d="m576.07 174.39c.241 0 .637.011.957.264.164.132.396.396.396.858 0 .451-.22.737-.495.913.132.033.352.099.572.308.253.242.363.528.363.881 0 .483-.221.836-.474 1.034-.274.209-.715.308-1.078.308h-1.97v-4.565h1.729zm-.1 1.859c.076 0 .33-.012.506-.133.088-.065.221-.197.221-.473 0-.22-.1-.352-.221-.44-.188-.12-.396-.109-.639-.109h-.703v1.155h.836m.143 2c.221 0 .518-.011.715-.154.144-.109.265-.297.265-.506s-.077-.396-.231-.517c-.197-.154-.494-.165-.715-.165h-1.012v1.342h.978"/>
 <path fill="#205081" d="m580.63 175.12v3.84h-.793v-3.84h-1.43v-.726h3.652v.726h-1.429"/>
 <path fill="#205081" d="m582.61 176.69c0-1.386 1.023-2.409 2.421-2.409 1.396 0 2.42 1.023 2.42 2.409 0 1.387-1.034 2.398-2.42 2.398-1.387.0001-2.421-1.01-2.421-2.398m.814 0c0 1.122.792 1.694 1.606 1.694.824 0 1.605-.583 1.605-1.694 0-1.122-.77-1.705-1.605-1.705s-1.606.594-1.606 1.705"/>
 <path fill="#205081" d="m589.23 174.04l1.893 3.719 1.848-3.719 1.101 4.918h-.814l-.604-2.827-1.552 3.146-1.573-3.146-.583 2.827h-.813l1.097-4.918"/>
 <path fill="#205081" d="m598.54 174.39h.791v4.565h-.791v-.638c-.265.341-.76.77-1.563.77-1.155 0-2.223-.813-2.223-2.42 0-1.573 1.057-2.388 2.223-2.388.88 0 1.354.484 1.563.759v-.648m-2.971 2.277c0 .979.55 1.716 1.496 1.716.969 0 1.518-.803 1.518-1.705 0-1.177-.813-1.694-1.518-1.694-.781-.0001-1.496.572-1.496 1.683"/>
 <path fill="#205081" d="m602.39 175.12v3.84h-.793v-3.84h-1.43v-.726h3.652v.726h-1.429"/>
 <path fill="#205081" d="m605.45 174.39v3.01l3.125-3.367v4.918h-.792v-3.048l-3.124 3.367v-4.885h.791"/>
 <path fill="#205081" d="m612.51 177.16c-.285.044-.759.099-1.078.099-.23 0-.759-.011-1.111-.33-.308-.275-.385-.682-.385-1.122v-1.419h.793v1.309c0 .165.021.407.099.539.144.275.451.298.692.298.298 0 .65-.033.99-.1v-2.046h.793v4.565h-.793v-1.793"/>
 <path fill="#205081" d="m618.84 177.79c-.132.253-.33.528-.562.737-.418.374-.936.561-1.518.561-1.101 0-2.256-.693-2.256-2.387 0-1.364.836-2.421 2.211-2.421.892 0 1.453.44 1.728.836.286.407.451 1.111.429 1.717h-3.553c.011.946.66 1.551 1.452 1.551.374 0 .671-.109.935-.33.209-.176.375-.407.474-.627l.66.363m-.781-1.617c-.132-.715-.671-1.188-1.343-1.188-.67 0-1.221.506-1.342 1.188h2.685"/>
 <path fill="#205081" d="m623.66 175.67c-.418-.528-1.023-.683-1.43-.683-.848 0-1.617.594-1.617 1.705s.792 1.694 1.605 1.694c.474 0 1.057-.209 1.475-.715v.946c-.495.363-1.023.473-1.452.473-1.419 0-2.442-1.012-2.442-2.387 0-1.397 1.034-2.421 2.442-2.421.726 0 1.199.286 1.419.44v.948"/>
 <path fill="#205081" d="m625.7 174.39v1.87l1.848-1.87h.969l-1.98 2.035 2.223 2.53h-1.035l-1.781-2-.242.23v1.771h-.793v-4.565h.791z"/>
 <path fill="#205081" d="m630.34 174.39v3.01l3.124-3.367v4.918h-.791v-3.048l-3.125 3.367v-4.885h.792"/>
 <path fill="#205081" d="m635.75 174.39v3.01l3.124-3.367v4.918h-.791v-3.048l-3.125 3.367v-4.885h.792m.265-2.223c.109.374.418.66.935.66s.825-.286.935-.66l.66.253c-.23.649-.824 1.067-1.595 1.067s-1.364-.418-1.595-1.067l.66-.253"/>
 <path fill="#205081" d="m644.37 178.53l-2.102-4.137h.902l1.617 3.268 1.486-3.268h.879l-3.355 7.096h-.879l1.452-2.959"/>
 <path fill="#205081" d="m650.44 177.16c-.286.044-.759.099-1.078.099-.231 0-.759-.011-1.111-.33-.308-.275-.385-.682-.385-1.122v-1.419h.792v1.309c0 .165.021.407.1.539.143.275.451.298.692.298.298 0 .649-.033.99-.1v-2.046h.792v4.565h-.792v-1.793"/>
 <path fill="#205081" d="m656.77 177.79c-.133.253-.33.528-.562.737-.419.374-.936.561-1.519.561-1.1 0-2.256-.693-2.256-2.387 0-1.364.837-2.421 2.212-2.421.892 0 1.452.44 1.728.836.285.407.451 1.111.429 1.717h-3.554c.012.946.66 1.551 1.453 1.551.373 0 .67-.109.935-.33.209-.176.374-.407.474-.627l.66.363m-.781-1.617c-.133-.715-.672-1.188-1.343-1.188s-1.222.506-1.343 1.188h2.686"/>
 <path fill="#205081" d="m659.58 175.12v3.84h-.793v-3.84h-1.43v-.726h3.652v.726h-1.429"/>
 <path fill="#205081" d="m573.92 192.49h-.792v-7.096h.792v.638c.539-.671 1.232-.748 1.563-.748 1.43 0 2.223 1.188 2.223 2.421 0 1.254-.804 2.387-2.189 2.387-.737 0-1.254-.33-1.596-.77v3.168m2.97-4.785c0-1.123-.76-1.717-1.496-1.717-.737 0-1.519.605-1.519 1.705 0 .936.595 1.694 1.529 1.694.925.0001 1.486-.769 1.486-1.682"/>
 <path fill="#205081" d="m582.42 185.39h.792v4.565h-.792v-.638c-.264.341-.76.77-1.563.77-1.154 0-2.223-.813-2.223-2.42 0-1.573 1.057-2.388 2.223-2.388.881 0 1.354.484 1.563.759v-.648m-2.97 2.277c0 .979.551 1.716 1.496 1.716.969 0 1.519-.803 1.519-1.705 0-1.177-.813-1.694-1.519-1.694-.781-.0001-1.496.572-1.496 1.683"/>
 <path fill="#205081" d="m589.11 182.25c-.264.88-1.012 1.122-1.496 1.243-.429.11-1.012.209-1.452.528-.571.429-.924 1.254-.957 2.09h.022c.297-.506.847-.836 1.66-.836 1.365 0 2.377 1.045 2.377 2.409s-1 2.398-2.498 2.398c-.77 0-1.275-.297-1.572-.572-.693-.638-.771-1.551-.771-2.354 0-.814.033-2.894 1.298-3.763.496-.342 1.068-.44 1.596-.562.616-.143.814-.33.913-.583h.88zm-3.872 5.434c0 1.122.792 1.694 1.606 1.694.824 0 1.605-.583 1.605-1.694 0-1.122-.77-1.705-1.605-1.705s-1.606.594-1.606 1.705"/>
 <path fill="#205081" d="m590.18 187.69c0-1.386 1.023-2.409 2.421-2.409 1.396 0 2.42 1.023 2.42 2.409 0 1.387-1.034 2.398-2.42 2.398-1.387.0001-2.421-1.01-2.421-2.398m.815 0c0 1.122.792 1.694 1.606 1.694.824 0 1.605-.583 1.605-1.694 0-1.122-.77-1.705-1.605-1.705s-1.606.594-1.606 1.705"/>
 <path fill="#205081" d="m598.67 188.16c-.286.044-.759.099-1.078.099-.231 0-.759-.011-1.111-.33-.308-.275-.385-.682-.385-1.122v-1.419h.792v1.309c0 .165.021.407.1.539.143.275.451.298.692.298.298 0 .649-.033.99-.1v-2.046h.792v4.565h-.792v-1.793"/>
 <path fill="#205081" d="m605.01 188.79c-.133.253-.33.528-.562.737-.419.374-.936.561-1.519.561-1.1 0-2.256-.693-2.256-2.387 0-1.364.837-2.421 2.212-2.421.892 0 1.452.44 1.728.836.285.407.451 1.111.429 1.717h-3.554c.012.946.66 1.551 1.453 1.551.373 0 .67-.109.935-.33.209-.176.374-.407.474-.627l.66.363m-.781-1.617c-.133-.715-.672-1.188-1.343-1.188s-1.222.506-1.343 1.188h2.686"/>
 <path fill="#205081" d="m606.25 185.39h2.706v.726h-1.915v3.84h-.791v-4.566"/>
 <path fill="#205081" d="m609.46 187.69c0-1.386 1.023-2.409 2.421-2.409s2.421 1.023 2.421 2.409c0 1.387-1.035 2.398-2.421 2.398s-2.421-1.01-2.421-2.398m.815 0c0 1.122.793 1.694 1.606 1.694.825 0 1.606-.583 1.606-1.694 0-1.122-.77-1.705-1.606-1.705-.836 0-1.606.594-1.606 1.705"/>
 <path fill="#205081" d="m619.8 185.39c.241 0 .638.011.957.264.165.132.396.396.396.858 0 .451-.22.737-.494.913.131.033.352.099.572.308.252.242.362.528.362.881 0 .483-.22.836-.474 1.034-.274.209-.715.308-1.078.308h-1.969v-4.565h1.728zm-.098 1.859c.076 0 .33-.012.506-.133.088-.065.22-.197.22-.473 0-.22-.099-.352-.22-.44-.188-.12-.396-.109-.639-.109h-.704v1.155h.837m.142 2c.22 0 .518-.011.715-.154.143-.109.264-.297.264-.506s-.076-.396-.23-.517c-.198-.154-.495-.165-.715-.165h-1.013v1.342h.979"/>
 <path fill="#205081" d="m623.6 192.49h-.791v-7.096h.791v.638c.539-.671 1.232-.748 1.563-.748 1.431 0 2.223 1.188 2.223 2.421 0 1.254-.803 2.387-2.189 2.387-.736 0-1.254-.33-1.596-.77v3.168m2.97-4.785c0-1.123-.759-1.717-1.496-1.717-.736 0-1.518.605-1.518 1.705 0 .936.594 1.694 1.529 1.694.924.0001 1.485-.769 1.485-1.682"/>
 <path fill="#205081" d="m632.64 188.79c-.133.253-.33.528-.561.737-.419.374-.936.561-1.52.561-1.1 0-2.255-.693-2.255-2.387 0-1.364.837-2.421 2.212-2.421.891 0 1.451.44 1.727.836.286.407.451 1.111.43 1.717h-3.554c.011.946.66 1.551 1.452 1.551.374 0 .671-.109.936-.33.209-.176.373-.407.473-.627l.66.363m-.781-1.617c-.132-.715-.671-1.188-1.342-1.188-.672 0-1.222.506-1.343 1.188h2.685"/>
 <path fill="#205081" d="m634.46 185.04l1.893 3.719 1.848-3.719 1.101 4.918h-.814l-.604-2.827-1.552 3.146-1.573-3.146-.583 2.827h-.813l1.097-4.918"/>
 <path fill="#205081" d="m644.31 188.79c-.132.253-.33.528-.562.737-.418.374-.936.561-1.518.561-1.101 0-2.256-.693-2.256-2.387 0-1.364.836-2.421 2.211-2.421.892 0 1.453.44 1.728.836.286.407.451 1.111.429 1.717h-3.553c.011.946.66 1.551 1.452 1.551.374 0 .671-.109.935-.33.209-.176.375-.407.474-.627l.66.363m-.781-1.617c-.132-.715-.671-1.188-1.343-1.188-.67 0-1.221.506-1.342 1.188h2.685"/>
 <path fill="#205081" d="m645.55 185.39h.792v1.87h2.156v-1.87h.793v4.565h-.793v-1.97h-2.156v1.97h-.792v-4.565"/>
 <path fill="#205081" d="m651.58 185.39v3.01l3.124-3.367v4.918h-.792v-3.048l-3.125 3.367v-4.885h.793"/>
</svg>
