<svg xmlns="http://www.w3.org/2000/svg" viewBox="0 0 595.28 411.02" enable-background="new 0 0 595.28 411.02">
 <defs/>
 <path fill="#cfeafb" d="m284.48 368.76c108.74-31.18 179.78-115.69 158.83-188.77-20.954-73.08-125.98-107.04-234.71-75.862-108.74 31.18-179.9 115.69-158.94 188.77 20.954 73.08 126.09 107.04 234.82 75.862"/>
 <g opacity=".7">
  <path fill="#5bc4f1" d="m443.31 180c-2.688-9.374-6.768-18.1-12.05-26.13l-157.92 74.05c-24.416 7.957-44.848 23.375-44.848 23.375s-25.472-18.791-158.84 78.25c40.31 46.84 126.38 64.59 214.83 39.23 108.74-31.18 179.78-115.69 158.83-188.77"/>
 </g>
 <path fill="none" stroke="#fff" stroke-width="20" d="m446.02 139.95l-391.25 193.53"/>
 <path fill="#00598f" d="m61.903 264.66c.486-.721 1.134-.873 1.719-.873.306 0 .855.045 1.27.422.261.234.468.613.468 1.107 0 .613-.36 1.053-.828 1.27.801.18 1.206.82 1.206 1.549 0 .746-.378 1.207-.747 1.467-.378.262-.882.396-1.369.396-1.188 0-1.863-.738-2.169-1.439l.648-.289c.243.676.829 1.098 1.549 1.098.324 0 .666-.08.918-.252.387-.27.486-.639.486-.963 0-1.098-1.018-1.18-1.603-1.18h-.54v-.629h.54c.837 0 1.224-.469 1.224-1.018 0-.262-.099-.486-.243-.631-.234-.242-.576-.279-.811-.279-.432 0-.846.127-1.206.648l-.512-.404"/>
 <path fill="#00598f" d="m69.66 266.16h.648v3.736h-.648v-.523c-.216.279-.621.631-1.278.631-.945 0-1.819-.666-1.819-1.98 0-1.287.864-1.953 1.819-1.953.72 0 1.107.396 1.278.621v-.532m-2.431 1.863c0 .801.45 1.404 1.224 1.404.792 0 1.243-.656 1.243-1.395 0-.965-.667-1.387-1.243-1.387-.639.002-1.224.468-1.224 1.378"/>
 <path fill="#00598f" d="m71.53 266.16h.648v3.143h1.44v-3.143h.648v3.143h1.44v-3.143h.648v3.143h.612v1.584h-.594v-.99h-4.843v-3.737z"/>
 <path fill="#00598f" d="m78.3 266.16v2.467l2.557-2.756v4.02h-.648v-2.494l-2.557 2.754v-3.996h.648"/>
 <path fill="#00598f" d="m83.36 266.75v3.143h-.649v-3.143h-1.17v-.594h2.989v.594h-1.17"/>
 <path fill="#00598f" d="m87.967 266.16h.648v3.736h-.648v-.523c-.216.279-.621.631-1.278.631-.945 0-1.819-.666-1.819-1.98 0-1.287.864-1.953 1.819-1.953.72 0 1.107.396 1.278.621v-.532m-2.43 1.863c0 .801.45 1.404 1.224 1.404.792 0 1.243-.656 1.243-1.395 0-.965-.667-1.387-1.243-1.387-.639.002-1.224.468-1.224 1.378"/>
 <path fill="#00598f" d="m91.7 268.04c0-1.135.837-1.971 1.981-1.971 1.143 0 1.98.836 1.98 1.971s-.846 1.963-1.98 1.963-1.981-.828-1.981-1.963m.666 0c0 .918.648 1.387 1.314 1.387.675 0 1.314-.477 1.314-1.387 0-.918-.63-1.395-1.314-1.395-.684.0001-1.314.487-1.314 1.395"/>
 <path fill="#00598f" d="m97.84 266.75v3.143h-.648v-3.143h-1.17v-.594h2.989v.594h-1.171"/>
 <path fill="#00598f" d="m104.8 266.16v3.736h-.648v-3.143h-1.71v3.143h-.648v-3.736h3.01"/>
 <path fill="#00598f" d="m105.78 268.04c0-1.135.837-1.971 1.981-1.971 1.143 0 1.98.836 1.98 1.971s-.846 1.963-1.98 1.963c-1.135 0-1.981-.828-1.981-1.963m.667 0c0 .918.648 1.387 1.314 1.387.675 0 1.314-.477 1.314-1.387 0-.918-.63-1.395-1.314-1.395-.684.0001-1.314.487-1.314 1.395"/>
 <path fill="#00598f" d="m113.13 266.16v1.529l1.404-1.529h.756l-1.621 1.729 1.783 2.01h-.81l-1.387-1.576-.126.127v1.449h-.648v-1.449l-.126-.127-1.387 1.576h-.81l1.782-2.01-1.62-1.729h.756l1.405 1.529v-1.529h.649"/>
 <path fill="#00598f" d="m118.96 266.16h.648v3.736h-.648v-.523c-.216.279-.621.631-1.278.631-.945 0-1.819-.666-1.819-1.98 0-1.287.864-1.953 1.819-1.953.72 0 1.107.396 1.278.621v-.532m-2.43 1.863c0 .801.45 1.404 1.224 1.404.792 0 1.243-.656 1.243-1.395 0-.965-.667-1.387-1.243-1.387-.639.002-1.224.468-1.224 1.378"/>
 <path fill="#00598f" d="m121.48 271.96h-.648v-5.807h.648v.521c.441-.549 1.01-.611 1.278-.611 1.17 0 1.819.973 1.819 1.98 0 1.025-.657 1.953-1.792 1.953-.604 0-1.026-.27-1.306-.631v2.595m2.432-3.916c0-.918-.621-1.404-1.224-1.404s-1.242.494-1.242 1.395c0 .766.486 1.387 1.251 1.387.756-.0001 1.215-.632 1.215-1.378"/>
 <path fill="#00598f" d="m128.43 266.16h.648v3.736h-.648v-.523c-.216.279-.621.631-1.278.631-.945 0-1.819-.666-1.819-1.98 0-1.287.864-1.953 1.819-1.953.72 0 1.107.396 1.278.621v-.532m-2.43 1.863c0 .801.45 1.404 1.224 1.404.792 0 1.243-.656 1.243-1.395 0-.965-.667-1.387-1.243-1.387-.64.002-1.224.468-1.224 1.378"/>
 <path fill="#00598f" d="m341.76 255.65h-2.557l-.721 1.693h-.737l2.764-6.293 2.692 6.293h-.738l-.703-1.693m-.261-.628l-1.01-2.404-1.025 2.404h2.034"/>
 <path fill="#00598f" d="m345.3 253.6c.198 0 .521.008.783.215.135.109.324.324.324.703 0 .369-.181.604-.405.748.107.025.288.08.468.252.207.197.297.432.297.719 0 .396-.18.686-.387.848-.225.17-.585.252-.882.252h-1.612v-3.736h1.414zm-.081 1.521c.063 0 .27-.001.414-.107.072-.055.18-.162.18-.389 0-.18-.081-.287-.18-.359-.153-.1-.324-.09-.522-.09h-.576v.945h.684m.117 1.639c.18 0 .423-.001.585-.127.117-.09.216-.242.216-.414 0-.17-.063-.324-.189-.422-.161-.127-.404-.137-.585-.137h-.828v1.1h.801"/>
 <path fill="#00598f" d="m349.03 254.2v3.143h-.648v-3.143h-1.17v-.594h2.988v.594h-1.17"/>
 <path fill="#00598f" d="m350.57 255.48c0-1.135.838-1.971 1.98-1.971 1.144 0 1.98.836 1.98 1.971s-.846 1.963-1.98 1.963c-1.133 0-1.98-.828-1.98-1.963m.666 0c0 .918.648 1.387 1.314 1.387.676 0 1.314-.477 1.314-1.387 0-.918-.63-1.395-1.314-1.395-.683.0001-1.314.487-1.314 1.395"/>
 <path fill="#00598f" d="m355.99 253.31l1.549 3.043 1.513-3.043.9 4.02h-.667l-.495-2.314-1.27 2.574-1.287-2.574-.477 2.314h-.667l.901-4.02"/>
 <path fill="#00598f" d="m363.6 253.6h.648v3.736h-.648v-.523c-.216.279-.621.631-1.278.631-.945 0-1.818-.666-1.818-1.98 0-1.287.864-1.953 1.818-1.953.721 0 1.107.396 1.278.621v-.532m-2.431 1.863c0 .801.45 1.404 1.225 1.404.792 0 1.242-.656 1.242-1.395 0-.965-.666-1.387-1.242-1.387-.639.0001-1.225.468-1.225 1.378"/>
 <path fill="#00598f" d="m366.75 254.2v3.143h-.648v-3.143h-1.17v-.594h2.988v.594h-1.17"/>
 <path fill="#00598f" d="m369.25 253.6v2.467l2.557-2.756v4.03h-.648v-2.494l-2.557 2.754v-3.996h.648"/>
 <path fill="#00598f" d="m373.07 254.19c.126-.18.297-.359.477-.467.288-.172.576-.207.819-.207.297 0 .604.027.883.26.243.207.324.451.324.713 0 .439-.234.666-.424.783.189.045.343.143.433.242.153.162.261.396.261.684 0 .389-.18.738-.486.965-.27.197-.657.287-1.063.287-.333 0-.684-.072-.999-.314-.216-.162-.387-.406-.495-.641l.559-.232c.036.09.126.27.333.422.207.154.414.189.612.189.144 0 .432-.001.63-.145.126-.08.261-.252.261-.521 0-.207-.099-.352-.225-.432-.189-.127-.441-.127-.612-.127h-.378v-.594h.314c.298 0 .433-.063.486-.1.1-.063.198-.17.198-.342 0-.162-.063-.307-.162-.387-.153-.135-.36-.135-.477-.135-.145 0-.324.027-.514.145-.099.063-.216.16-.306.322l-.449-.368"/>
 <path fill="#00598f" d="m379.69 253.6h.648v3.736h-.648v-.523c-.216.279-.621.631-1.278.631-.945 0-1.818-.666-1.818-1.98 0-1.287.864-1.953 1.818-1.953.721 0 1.107.396 1.278.621v-.532m-2.43 1.863c0 .801.45 1.404 1.225 1.404.792 0 1.242-.656 1.242-1.395 0-.965-.666-1.387-1.242-1.387-.639.0001-1.225.468-1.225 1.378"/>
 <path fill="#00598f" d="m381.56 253.6h.648v3.143h1.674v-3.143h.648v3.143h.612v1.584h-.594v-.99h-2.989v-3.737"/>
 <path fill="#00598f" d="m386.48 253.6v2.467l2.557-2.756v4.03h-.648v-2.494l-2.557 2.754v-3.996h.648"/>
 <path fill="#00598f" d="m390.99 255.8c-.045 0-.45-.037-.721-.299-.153-.143-.297-.395-.297-.746s.126-.648.333-.838c.324-.307.729-.314 1.099-.314h1.305v3.736h-.647v-1.504h-.396l-1.063 1.504h-.774l1.161-1.539m1.072-1.621h-.604c-.261 0-.45.018-.585.1-.108.07-.234.215-.234.459 0 .197.072.35.234.449.188.117.423.107.576.107h.612v-1.115"/>
 <path fill="#00598f" d="m397.21 256.99l-1.72-3.385h.738l1.323 2.674 1.215-2.674h.721l-2.746 5.807h-.72l1.189-2.422"/>
 <path fill="#00598f" d="m402.07 255.87c-.233.037-.621.082-.882.082-.189 0-.621-.001-.909-.27-.252-.227-.315-.559-.315-.92v-1.16h.648v1.07c0 .137.018.334.081.441.117.225.369.244.567.244.243 0 .531-.027.81-.082v-1.674h.648v3.736h-.648v-1.467"/>
 <path fill="#00598f" d="m407.26 256.38c-.107.207-.27.432-.459.604-.342.307-.765.459-1.242.459-.9 0-1.846-.566-1.846-1.953 0-1.117.685-1.98 1.81-1.98.729 0 1.188.359 1.414.684.233.334.368.91.351 1.404h-2.908c.001.775.54 1.27 1.188 1.27.307 0 .55-.09.766-.27.171-.145.306-.334.387-.514l.539.296m-.639-1.322c-.108-.586-.55-.973-1.099-.973s-.999.414-1.099.973h2.198"/>
 <path fill="#00598f" d="m409.55 254.2v3.143h-.648v-3.143h-1.17v-.594h2.988v.594h-1.17"/>
 <path fill="#00598f" d="m414.15 253.6h.648v3.736h-.648v-.523c-.216.279-.621.631-1.278.631-.945 0-1.818-.666-1.818-1.98 0-1.287.864-1.953 1.818-1.953.721 0 1.107.396 1.278.621v-.532m-2.43 1.863c0 .801.45 1.404 1.225 1.404.792 0 1.242-.656 1.242-1.395 0-.965-.666-1.387-1.242-1.387-.639.0001-1.225.468-1.225 1.378"/>
 <path fill="#00598f" d="m343.91 270.21h-.648v-5.807h.648v.523c.441-.549 1.01-.613 1.278-.613 1.171 0 1.818.973 1.818 1.98 0 1.027-.657 1.955-1.791 1.955-.604 0-1.026-.271-1.306-.631v2.593m2.432-3.916c0-.918-.621-1.404-1.225-1.404-.603 0-1.242.496-1.242 1.396 0 .766.486 1.387 1.252 1.387.756 0 1.215-.631 1.215-1.379"/>
 <path fill="#00598f" d="m350.86 264.4h.648v3.736h-.648v-.521c-.216.279-.621.631-1.278.631-.945 0-1.818-.668-1.818-1.982 0-1.287.864-1.953 1.818-1.953.721 0 1.107.396 1.278.621v-.532m-2.43 1.864c0 .803.45 1.406 1.225 1.406.792 0 1.242-.658 1.242-1.396 0-.963-.666-1.387-1.242-1.387-.639 0-1.225.468-1.225 1.377"/>
 <path fill="#00598f" d="m356.33 261.84c-.216.719-.828.918-1.224 1.018-.352.09-.829.17-1.188.432-.469.352-.757 1.025-.783 1.711h.018c.243-.414.693-.686 1.359-.686 1.116 0 1.944.855 1.944 1.973 0 1.115-.818 1.963-2.043 1.963-.631 0-1.045-.244-1.288-.469-.566-.521-.63-1.27-.63-1.928 0-.666.027-2.367 1.063-3.078.405-.279.873-.359 1.306-.459.504-.117.666-.27.747-.477h.719m-3.169 4.447c0 .918.648 1.387 1.314 1.387.676 0 1.314-.479 1.314-1.387 0-.918-.63-1.396-1.314-1.396-.683 0-1.314.486-1.314 1.396"/>
 <path fill="#00598f" d="m357.21 266.29c0-1.135.838-1.973 1.98-1.973 1.144 0 1.98.838 1.98 1.973 0 1.133-.846 1.963-1.98 1.963-1.133 0-1.98-.83-1.98-1.963m.666 0c0 .918.648 1.387 1.314 1.387.676 0 1.314-.479 1.314-1.387 0-.918-.63-1.396-1.314-1.396-.683 0-1.314.486-1.314 1.396"/>
 <path fill="#00598f" d="m364.16 266.67c-.233.035-.621.08-.882.08-.189 0-.621-.008-.909-.27-.252-.225-.315-.559-.315-.918v-1.162h.648v1.072c0 .135.018.332.081.441.117.225.369.242.567.242.243 0 .531-.027.81-.08v-1.676h.648v3.736h-.648v-1.465"/>
 <path fill="#00598f" d="m369.34 267.19c-.107.207-.27.432-.459.602-.342.307-.765.461-1.242.461-.9 0-1.846-.568-1.846-1.955 0-1.115.685-1.98 1.81-1.98.729 0 1.188.361 1.413.686.234.332.369.908.352 1.404h-2.908c.001.773.541 1.27 1.188 1.27.307 0 .55-.092.766-.271.171-.143.306-.332.387-.512l.539.295m-.639-1.325c-.108-.586-.549-.973-1.099-.973-.549 0-.999.414-1.099.973h2.198"/>
 <path fill="#00598f" d="m370.36 264.4h2.215v.596h-1.566v3.141h-.648v-3.737"/>
 <path fill="#00598f" d="m372.8 266.29c0-1.135.838-1.973 1.98-1.973 1.144 0 1.98.838 1.98 1.973 0 1.133-.846 1.963-1.98 1.963-1.133 0-1.98-.83-1.98-1.963m.666 0c0 .918.648 1.387 1.314 1.387.676 0 1.314-.479 1.314-1.387 0-.918-.63-1.396-1.314-1.396-.683 0-1.314.486-1.314 1.396"/>
 <path fill="#00598f" d="m381.26 264.4c.198 0 .522.001.783.217.136.107.324.324.324.703 0 .367-.18.602-.405.746.108.027.288.082.469.252.207.199.297.432.297.721 0 .396-.181.684-.388.846-.225.172-.585.252-.882.252h-1.611v-3.736h1.413m-.081 1.521c.063 0 .271-.008.414-.107.072-.055.181-.162.181-.387 0-.18-.081-.289-.181-.361-.152-.098-.324-.09-.521-.09h-.576v.945h.683m.117 1.639c.18 0 .423-.008.585-.125.117-.09.217-.244.217-.414 0-.172-.063-.324-.189-.424-.162-.125-.405-.135-.585-.135h-.828v1.098h.8"/>
 <path fill="#00598f" d="m384.36 270.21h-.648v-5.807h.648v.523c.44-.549 1.01-.613 1.278-.613 1.17 0 1.818.973 1.818 1.98 0 1.027-.657 1.955-1.792 1.955-.603 0-1.026-.271-1.305-.631v2.593m2.432-3.916c0-.918-.621-1.404-1.225-1.404s-1.242.496-1.242 1.396c0 .766.486 1.387 1.251 1.387.757 0 1.216-.631 1.216-1.379"/>
 <path fill="#00598f" d="m391.76 267.19c-.107.207-.27.432-.459.602-.342.307-.765.461-1.242.461-.9 0-1.846-.568-1.846-1.955 0-1.115.685-1.98 1.81-1.98.729 0 1.188.361 1.414.686.233.332.368.908.351 1.404h-2.908c.001.773.54 1.27 1.188 1.27.307 0 .55-.092.766-.271.171-.143.306-.332.387-.512l.539.295m-.639-1.325c-.108-.586-.55-.973-1.099-.973s-.999.414-1.099.973h2.198"/>
 <path fill="#00598f" d="m393.25 264.12l1.549 3.043 1.513-3.043.9 4.02h-.667l-.495-2.313-1.27 2.574-1.287-2.574-.477 2.313h-.667l.901-4.02"/>
 <path fill="#00598f" d="m401.31 267.19c-.107.207-.27.432-.459.602-.342.307-.765.461-1.242.461-.9 0-1.846-.568-1.846-1.955 0-1.115.685-1.98 1.81-1.98.729 0 1.188.361 1.414.686.233.332.368.908.351 1.404h-2.908c.001.773.54 1.27 1.188 1.27.307 0 .55-.092.766-.271.171-.143.306-.332.387-.512l.539.295m-.639-1.325c-.108-.586-.55-.973-1.099-.973s-.999.414-1.099.973h2.198"/>
 <path fill="#00598f" d="m402.33 264.4h.648v1.531h1.764v-1.531h.648v3.736h-.648v-1.611h-1.764v1.611h-.648v-3.736"/>
 <path fill="#00598f" d="m407.26 264.4v2.467l2.557-2.754v4.02h-.648v-2.494l-2.557 2.756v-3.998h.648"/>
 <path fill="#00598f" d="m223.91 156.24c.486-.72 1.134-.874 1.719-.874.306 0 .855.045 1.27.423.261.234.468.612.468 1.107 0 .612-.36 1.053-.829 1.269.801.18 1.207.819 1.207 1.549 0 .747-.378 1.206-.747 1.467-.378.261-.882.396-1.369.396-1.188 0-1.863-.738-2.169-1.44l.648-.288c.243.675.829 1.099 1.549 1.099.324 0 .666-.081.918-.252.387-.27.486-.639.486-.963 0-1.099-1.018-1.18-1.603-1.18h-.54v-.63h.54c.837 0 1.225-.468 1.225-1.018 0-.261-.099-.486-.243-.63-.234-.243-.576-.279-.811-.279-.432 0-.846.126-1.206.648l-.513-.404"/>
 <path fill="#00598f" d="m231.67 157.74h.648v3.736h-.648v-.522c-.216.279-.621.63-1.278.63-.945 0-1.819-.666-1.819-1.98 0-1.288.864-1.954 1.819-1.954.72 0 1.107.396 1.278.621v-.531m-2.431 1.864c0 .801.45 1.404 1.224 1.404.792 0 1.243-.657 1.243-1.396 0-.963-.667-1.386-1.243-1.386-.639 0-1.224.468-1.224 1.378"/>
 <path fill="#00598f" d="m233.54 157.74h.648v3.142h1.44v-3.142h.648v3.142h1.44v-3.142h.648v3.142h.612v1.584h-.594v-.99h-4.843v-3.736z"/>
 <path fill="#00598f" d="m240.31 157.74v2.467l2.557-2.755v4.02h-.648v-2.494l-2.557 2.755v-3.998h.648"/>
 <path fill="#00598f" d="m245.37 158.33v3.142h-.648v-3.142h-1.17v-.594h2.989v.594h-1.171"/>
 <path fill="#00598f" d="m249.98 157.74h.648v3.736h-.648v-.522c-.216.279-.621.63-1.278.63-.945 0-1.819-.666-1.819-1.98 0-1.288.864-1.954 1.819-1.954.72 0 1.107.396 1.278.621v-.531m-2.431 1.864c0 .801.45 1.404 1.224 1.404.792 0 1.243-.657 1.243-1.396 0-.963-.667-1.386-1.243-1.386-.639 0-1.224.468-1.224 1.378"/>
 <path fill="#00598f" d="m253.71 159.62c0-1.134.837-1.972 1.981-1.972 1.143 0 1.98.837 1.98 1.972s-.846 1.962-1.98 1.962c-1.135 0-1.981-.828-1.981-1.962m.666 0c0 .918.648 1.386 1.314 1.386.675 0 1.314-.477 1.314-1.386 0-.918-.63-1.396-1.314-1.396-.684 0-1.314.487-1.314 1.396"/>
 <path fill="#00598f" d="m259.85 158.33v3.142h-.649v-3.142h-1.17v-.594h2.989v.594h-1.17"/>
 <path fill="#00598f" d="m264.85 159.47l-1.359-1.738h.792l.963 1.27.981-1.27h.792l-1.368 1.747 1.548 1.99h-.792l-1.18-1.521-1.179 1.521h-.792l1.594-1.999"/>
 <path fill="#00598f" d="m268.53 157.74v2.467l2.557-2.755v4.02h-.648v-2.494l-2.557 2.755v-3.998h.648"/>
 <path fill="#00598f" d="m272.31 157.74h.648v3.142h1.44v-3.142h.648v3.142h1.44v-3.142h.648v3.142h.612v1.584h-.594v-.99h-4.843v-3.736"/>
 <path fill="#00598f" d="m281.75 160.52c-.108.207-.27.432-.459.603-.342.306-.765.459-1.242.459-.9 0-1.846-.567-1.846-1.954 0-1.116.685-1.98 1.81-1.98.729 0 1.188.36 1.414.684.234.333.369.91.351 1.405h-2.908c.009.774.54 1.269 1.188 1.269.306 0 .549-.09.765-.27.171-.144.306-.333.387-.513l.54.297m-.64-1.324c-.108-.585-.549-.972-1.099-.972-.549 0-.999.414-1.098.972h2.197"/>
 <path fill="#00598f" d="m282.76 157.74h.648v1.531h1.765v-1.531h.648v3.736h-.648v-1.611h-1.765v1.611h-.648v-3.736"/>
 <path fill="#00598f" d="m287.69 157.74v2.467l2.557-2.755v4.02h-.648v-2.494l-2.557 2.755v-3.998h.648"/>
 <path fill="#00598f" d="m292.12 157.74v2.467l2.557-2.755v4.02h-.648v-2.494l-2.557 2.755v-3.998h.648m.216-1.817c.09.306.342.54.765.54.423 0 .675-.234.765-.54l.54.207c-.189.531-.675.874-1.305.874s-1.116-.342-1.306-.874l.541-.207"/>
 <path fill="none" stroke="#fff" stroke-width="2" d="m379.25 325.41l-289.24-170.75"/>
 <path fill="#00598f" d="m432.43 75.8c.999 0 1.691.107 2.345.68.719.639.905 1.505.905 2.145 0 .346-.053 1.306-.732 1.985-.493.493-1.226.786-2.251.786h-1.119v3.29h-1.731v-8.885h2.583zm-.853 4.103h.706c.333 0 .759 0 1.132-.28.32-.253.479-.653.479-1.039 0-.493-.239-.826-.492-1.012-.36-.253-.813-.28-1.226-.28h-.6v2.611z"/>
 <path fill="#00598f" d="m441.79 79.54c.573.52.973 1.319.973 2.265 0 .933-.399 1.732-.973 2.251-.493.453-1.239.813-2.331.813-1.093 0-1.838-.36-2.331-.813-.573-.52-.973-1.319-.973-2.251 0-.946.399-1.745.973-2.265.493-.453 1.238-.813 2.331-.813 1.092.0001 1.838.361 2.331.813m-.706 2.265c0-.906-.692-1.638-1.625-1.638s-1.625.732-1.625 1.638c0 .879.679 1.625 1.625 1.625.945.0001 1.625-.745 1.625-1.625"/>
 <path fill="#00598f" d="m448.35 80.67c-.347-.319-.772-.506-1.332-.506-1.079 0-1.625.786-1.625 1.625 0 .946.706 1.639 1.679 1.639.359 0 .839-.107 1.278-.506v1.585c-.319.16-.826.36-1.492.36-.905 0-1.705-.346-2.225-.839-.439-.413-.919-1.132-.919-2.211 0-1.013.413-1.825.999-2.345.706-.626 1.519-.746 2.078-.746.6 0 1.093.12 1.559.347v1.597"/>
 <path fill="#00598f" d="m452.4 80.3v4.383h-1.625v-4.383h-1.599v-1.385h4.822v1.385h-1.598"/>
 <path fill="#00598f" d="m463.42 78.917v5.768h-1.625v-4.383h-2.212v4.383h-1.625v-5.768h5.462"/>
 <path fill="#00598f" d="m466.59 87.73h-1.625v-8.818h1.625v.746c.253-.36.813-.933 1.879-.933.506 0 1.318.12 1.971.773.427.426.866 1.146.866 2.291 0 1.306-.572 2.01-.905 2.331-.44.413-1.106.746-1.959.746-.399 0-1.212-.066-1.852-.933v3.797m.387-7.18c-.359.306-.546.706-.546 1.239s.213.972.532 1.252c.214.187.56.387 1.065.387.533 0 .88-.213 1.093-.413.347-.32.506-.799.506-1.226s-.173-.906-.492-1.212c-.293-.266-.72-.413-1.106-.413-.426 0-.759.12-1.052.386"/>
 <path fill="#00598f" d="m474.18 78.917v3.557l2.664-3.557h1.626v5.768h-1.626v-3.557l-2.664 3.557h-1.625v-5.768h1.625"/>
 <path fill="#00598f" d="m486.11 75.09c-.267 1.585-1.532 1.972-1.892 2.078l-.6.173c-.493.146-1.173.253-1.639.693-.347.319-.613.866-.652 1.479h.026c.439-.56 1.306-.786 2.024-.786.866 0 1.599.267 2.158.813.319.307.893 1.013.893 2.238 0 1.119-.506 1.852-.973 2.278-.64.586-1.372.813-2.291.813-.626 0-1.559-.08-2.305-.759-.959-.866-1.039-2.091-1.039-2.917 0-2.211.453-3.303.879-3.89.746-1.025 1.825-1.252 2.598-1.412.853-.173 1.186-.386 1.319-.799h1.494zm-1.359 6.714c0-.919-.652-1.638-1.625-1.638s-1.625.719-1.625 1.638c0 .906.666 1.625 1.625 1.625s1.625-.719 1.625-1.625"/>
 <path fill="#00598f" d="m489.3 78.917v2.052h1.266c.507 0 1.146.146 1.545.586.254.267.44.666.44 1.239 0 .759-.333 1.226-.613 1.465-.426.373-.905.426-1.292.426h-2.971v-5.768h1.625m.76 4.489c.173 0 .426-.013.6-.146.106-.08.213-.24.213-.466 0-.213-.106-.346-.213-.413-.174-.12-.413-.133-.56-.133h-.8v1.159h.76zm4.728-4.489v5.768h-1.625v-5.768h1.625"/>
 <path fill="#00598f" d="m501.45 84.69h-1.625v-4.383h-1.572v2.118c0 .466-.066 1.186-.546 1.705-.12.133-.612.613-1.559.613-.16 0-.319-.013-.479-.053v-1.385c.08.013.173.026.253.026.36 0 .56-.146.666-.28.174-.213.2-.506.2-.732v-3.397h4.662v5.768"/>
 <path fill="#00598f" d="m504.61 78.917v3.557l2.664-3.557h1.626v5.768h-1.626v-3.557l-2.664 3.557h-1.625v-5.768h1.625"/>
 <path fill="#205081" d="m91.01 256.38c0 0-4.709-.682-6.071-1.689-1.068-.791-2.981-3.285-3.291-4.576-.38-1.58.311-4.475.915-5.982.377-.941 1.624-2.932 1.901-3.908.897-3.166-.792-7.338-.792-7.338s3.434 2.844 4.17 3.908c.951 1.371 1.215 4.539 1.215 4.539s.857-1.969.686-3.168c-.194-1.359-1.317-4.221-1.32-5.596-.003-1.613.587-4.234 1.531-5.543.875-1.213 4.646-3.941 4.646-3.941s-.978 2.764-1.056 3.73c-.137 1.695.144 5.178.774 6.758.629 1.576 4.083 5.42 4.083 5.42s.658-3.74 1.408-4.717c.717-.934 4.01-2.463 4.01-2.463s-.906 4.227-.704 5.631c.295 2.049 2.577 5.922 2.939 7.744.296 1.486.044 3.961-.475 5.385-.474 1.299-2.049 3.357-3.168 4.17-1.022.742-4.505 1.496-4.505 1.496s1.301-1.764 1.408-2.465c.352-2.305-.93-2.557-1.056-3.449-.139-.992.071-4.01.071-4.01s-1.482 1.523-1.69 2.182c-.222.707-.141 3.291-.141 3.291s-1.254-2.232-1.337-3.01c-.102-.963.846-2.463.862-3.434.02-1.164-1.566-4.451-1.566-4.451s-.129 2.979-.334 3.924c-.173.801-.517 2.246-1 2.904-.341.461-1.69 1.547-1.69 1.547s-.115-2.598-.844-3.236c-.281-.246-2.01-.688-2.01-.688s1.108 1.955.791 3.01c-.2.668-.725 1.385-.897 2.059-.189.742-.009 2.543.211 3.275.29.964 2.323 2.691 2.323 2.691"/>
 <path fill="none" stroke="#009ad1" stroke-width="1.92" d="m75.52 237.22l39.631 20.531"/>
 <path fill="none" stroke="#009ad1" stroke-width="1.92" d="m114.42 237.22l-39.632 20.531"/>
 <path fill="#205081" d="m103.85 209.48c-.336 0-.608-.271-.608-.607s.272-.609.608-.609.608.273.608.609-.272.607-.608.607m1.41-3.01c-1.791 0-3.243 1.452-3.243 3.243 0 1.793 1.452 3.244 3.243 3.244s3.243-1.451 3.243-3.244c0-1.791-1.452-3.243-3.243-3.243"/>
 <path fill="#205081" d="m105.22 214.43c-2.554 0-4.632-2.078-4.632-4.633 0-2.553 2.078-4.631 4.632-4.631 2.554 0 4.632 2.079 4.632 4.631 0 2.555-2.078 4.633-4.632 4.633m0-10.423c-3.193 0-5.79 2.598-5.79 5.79 0 3.193 2.597 5.791 5.79 5.791 3.193 0 5.79-2.598 5.79-5.791 0-3.192-2.597-5.79-5.79-5.79"/>
 <path fill="#205081" d="m113.15 214.2c0 1.311-1.071 2.381-2.38 2.381h-11.388c-1.309 0-2.381-1.07-2.381-2.381v-8.423c0-1.309 1.072-2.38 2.381-2.38h11.388c1.309 0 2.38 1.071 2.38 2.38v8.423m13.218 1.041v3.543h-4.329l-2.214-4.674c.855-.795 1.142-1.963.617-2.842-.12-.201-.274-.371-.452-.51l7.435-6.446.054-.069c.416-.291.738-.706.915-1.19l.089-.115v-.18c.042-.179.066-.366.066-.558v-4.729c0-1.372-1.123-2.495-2.496-2.495h-5.02c-.282 0-.553.05-.806.137l-.061-.0001-23.16 6.945c-.866.165-1.952 1.207-1.852 2.384l1.166 10.568c.145 1.311 1.342 2.383 2.661 2.383h12.477c.414 0 .805-.105 1.148-.293l.282-.182c.11-.08.213-.168.307-.266l2.85-2.471c.503.633 1.385.889 2.279.707l2.418 5.105c.139.295.437.482.764.482h4.865v3.49h3.543v-8.725h-3.543z"/>
 <path fill="#00598f" d="m213.19 61.59v8h-1.559v-6.656h-3.214v6.656h-1.559v-8h6.332"/>
 <path fill="#00598f" d="m219.61 64.956c.516.468.875 1.188.875 2.039 0 .84-.36 1.56-.875 2.027-.444.408-1.115.731-2.099.731s-1.655-.324-2.099-.731c-.516-.468-.875-1.188-.875-2.027 0-.851.36-1.571.875-2.039.444-.408 1.116-.731 2.099-.731s1.655.323 2.099.731m-.636 2.039c0-.815-.624-1.475-1.463-1.475-.84 0-1.463.66-1.463 1.475 0 .792.612 1.463 1.463 1.463s1.463-.671 1.463-1.463"/>
 <path fill="#00598f" d="m223.91 64.39c.348 0 .828 0 1.235.312.3.228.504.588.504 1.02 0 .444-.252.863-.72 1.067.24.048.492.168.684.336.228.204.396.516.396.971 0 .612-.3.959-.551 1.151-.42.312-.936.336-1.164.336h-2.674v-5.193h2.29m-.156 2.063c.024 0 .228 0 .384-.096.132-.084.192-.204.192-.36 0-.192-.084-.312-.168-.372-.12-.084-.288-.084-.432-.084h-.648v.912h.672m.012 1.979c.156 0 .384-.012.54-.132.096-.072.192-.216.192-.42 0-.192-.096-.312-.192-.372-.156-.108-.372-.12-.504-.12h-.72v1.043h.684z"/>
 <path fill="#00598f" d="m228.55 64.39v1.847h1.14c.456 0 1.031.132 1.391.528.228.24.396.6.396 1.115 0 .684-.3 1.104-.551 1.319-.384.336-.816.384-1.164.384h-2.674v-5.193h1.462m.683 4.04c.156 0 .384-.012.54-.132.096-.072.192-.216.192-.42 0-.192-.096-.312-.192-.372-.156-.108-.372-.12-.504-.12h-.72v1.043h.684zm4.258-4.04v5.193h-1.463v-5.193h1.463"/>
 <path fill="#00598f" d="m234.89 64.39h1.463v3.946h1.679v-3.946h1.463v3.946h1.679v-3.946h1.463v5.193h-7.748v-5.193z"/>
 <path fill="#00598f" d="m249.13 68.13c-.156.384-.744 1.619-2.555 1.619-.839 0-1.475-.24-1.991-.731-.576-.54-.816-1.211-.816-2.027 0-1.031.42-1.667.792-2.039.612-.6 1.332-.731 1.955-.731 1.056 0 1.667.419 2.027.851.552.66.624 1.476.624 2.039v.12h-3.886c0 .312.084.647.252.875.156.216.479.492 1.043.492.552 0 .971-.264 1.211-.684l1.344.216m-1.343-1.835c-.12-.708-.696-1.043-1.235-1.043-.54 0-1.104.348-1.224 1.043h2.459"/>
 <path fill="#00598f" d="m250.29 64.39h1.463v1.835h2.039v-1.835h1.463v5.193h-1.463v-2.111h-2.039v2.111h-1.463v-5.193"/>
 <path fill="#00598f" d="m258.12 64.39v3.203l2.399-3.203h1.463v5.193h-1.463v-3.202l-2.399 3.202h-1.463v-5.193h1.463"/>
 <path fill="#00598f" d="m268.47 68.13c-.156.384-.744 1.619-2.555 1.619-.839 0-1.475-.24-1.991-.731-.576-.54-.816-1.211-.816-2.027 0-1.031.42-1.667.792-2.039.612-.6 1.332-.731 1.955-.731 1.056 0 1.667.419 2.027.851.552.66.624 1.476.624 2.039v.12h-3.886c0 .312.084.647.252.875.156.216.479.492 1.043.492.552 0 .971-.264 1.211-.684l1.344.216m-1.344-1.835c-.12-.708-.696-1.043-1.235-1.043-.54 0-1.104.348-1.224 1.043h2.459"/>
 <path fill="#00598f" d="m183.25 83.21l-2.471-4.414h1.703l1.607 2.951 1.439-2.951h1.655l-4.186 7.94h-1.655l1.908-3.526"/>
 <path fill="#00598f" d="m189.37 86.73h-1.463v-7.94h1.463v.672c.228-.324.732-.839 1.691-.839.456 0 1.187.108 1.775.695.384.384.779 1.032.779 2.063 0 1.175-.516 1.811-.815 2.099-.396.372-.996.672-1.763.672-.359 0-1.091-.06-1.667-.839v3.417m.348-6.464c-.324.276-.492.635-.492 1.115 0 .479.192.875.48 1.127.192.168.504.348.959.348.479 0 .792-.192.983-.372.312-.288.456-.72.456-1.104s-.156-.815-.444-1.091c-.264-.24-.648-.372-.996-.372-.382 0-.682.108-.946.349"/>
 <path fill="#00598f" d="m199.56 79.36c.516.468.875 1.188.875 2.039 0 .839-.36 1.559-.875 2.027-.444.408-1.115.731-2.099.731s-1.655-.324-2.099-.731c-.516-.468-.875-1.188-.875-2.027 0-.852.36-1.571.875-2.039.444-.408 1.116-.731 2.099-.731s1.655.323 2.099.731m-.636 2.039c0-.816-.624-1.476-1.463-1.476-.84 0-1.463.66-1.463 1.476 0 .792.612 1.463 1.463 1.463s1.463-.671 1.463-1.463"/>
 <path fill="#00598f" d="m203.85 78.79c.348 0 .828 0 1.235.312.3.228.504.588.504 1.02 0 .444-.252.863-.72 1.067.24.048.492.168.684.336.228.204.396.516.396.971 0 .612-.3.959-.552 1.151-.42.312-.936.336-1.164.336h-2.674v-5.193h2.291m-.156 2.063c.024 0 .228 0 .384-.096.132-.084.192-.204.192-.36 0-.192-.084-.312-.168-.372-.12-.084-.288-.084-.432-.084h-.648v.912h.672m.011 1.979c.156 0 .384-.012.54-.132.096-.072.192-.216.192-.42 0-.192-.096-.312-.192-.372-.156-.108-.372-.12-.504-.12h-.72v1.043h.684z"/>
 <path fill="#00598f" d="m207.03 78.79h1.463v1.835h2.039v-1.835h1.463v5.193h-1.463v-2.111h-2.039v2.111h-1.463v-5.193"/>
 <path fill="#00598f" d="m214.47 82.04c-.084-.012-.516-.084-.839-.408-.204-.204-.408-.564-.408-1.104 0-.647.324-1.067.624-1.307.516-.408 1.115-.432 1.607-.432h2.063v5.193h-1.463v-1.823h-.167l-1.271 1.823h-1.679l1.533-1.942m1.583-2.099h-.635c-.168 0-.336 0-.492.144-.144.132-.192.288-.192.456 0 .167.036.312.192.432.156.12.335.132.492.132h.635v-1.164"/>
 <path fill="#00598f" d="m227.2 75.35c-.24 1.427-1.379 1.775-1.703 1.871l-.54.156c-.444.132-1.055.228-1.475.624-.312.288-.552.78-.588 1.332h.024c.396-.504 1.176-.708 1.823-.708.779 0 1.439.24 1.943.731.288.276.804.912.804 2.02 0 1.01-.456 1.667-.875 2.051-.576.527-1.235.731-2.063.731-.564 0-1.403-.072-2.075-.684-.864-.78-.936-1.883-.936-2.626 0-1.991.408-2.975.792-3.502.671-.923 1.643-1.127 2.339-1.271.768-.156 1.067-.348 1.187-.72h1.343m-1.223 6.05c0-.828-.588-1.476-1.463-1.476s-1.463.648-1.463 1.476c0 .815.6 1.463 1.463 1.463.863 0 1.463-.648 1.463-1.463"/>
 <path fill="#00598f" d="m233.72 82.53c-.156.384-.744 1.619-2.555 1.619-.84 0-1.475-.24-1.991-.731-.575-.54-.815-1.211-.815-2.027 0-1.032.42-1.667.792-2.039.612-.6 1.332-.731 1.955-.731 1.056 0 1.667.419 2.027.852.552.659.624 1.475.624 2.039v.12h-3.886c0 .312.084.647.252.875.156.216.479.492 1.043.492.552 0 .971-.264 1.211-.684l1.343.215m-1.343-1.835c-.12-.708-.696-1.043-1.235-1.043-.54 0-1.104.348-1.224 1.043h2.459"/>
 <path fill="#00598f" d="m234.74 79.27c.6-.48 1.247-.647 1.967-.647.444 0 .996.084 1.379.348.264.18.587.528.587 1.104 0 .66-.479.983-.719 1.115.251.06.503.192.684.348.228.204.396.516.396.959 0 .612-.324.996-.6 1.2-.444.335-1.151.456-1.703.456-.624 0-1.535-.144-2.23-.864l.719-.887c.42.396.996.552 1.392.552.744 0 .911-.348.911-.588 0-.156-.072-.324-.276-.432-.167-.084-.384-.096-.624-.096h-.612v-1.055h.588c.192 0 .432-.024.576-.12.156-.108.18-.252.18-.36 0-.276-.192-.527-.792-.527-.468 0-.839.144-1.151.408l-.672-.914"/>
 <path fill="#00598f" d="m244.98 79.36c.516.468.875 1.188.875 2.039 0 .839-.36 1.559-.875 2.027-.444.408-1.115.731-2.099.731s-1.655-.324-2.099-.731c-.516-.468-.875-1.188-.875-2.027 0-.852.36-1.571.875-2.039.444-.408 1.116-.731 2.099-.731s1.655.323 2.099.731m-.636 2.039c0-.816-.624-1.476-1.463-1.476-.84 0-1.463.66-1.463 1.476 0 .792.612 1.463 1.463 1.463s1.463-.671 1.463-1.463"/>
 <path fill="#00598f" d="m251.9 78.79v5.193h-1.463v-3.945h-1.991v3.946h-1.463v-5.193h4.917z"/>
 <path fill="#00598f" d="m257.28 78.79h1.463v5.193h-1.463v-.671c-.527.755-1.223.839-1.595.839-1.595 0-2.651-1.248-2.651-2.771 0-1.535 1.043-2.758 2.579-2.758.396 0 1.175.072 1.667.839v-.671m-2.734 2.591c0 .828.6 1.475 1.439 1.475.839 0 1.439-.647 1.439-1.475s-.6-1.463-1.439-1.463c-.839-.0001-1.439.635-1.439 1.463"/>
 <path fill="#00598f" d="m264.04 80.37c-.312-.288-.696-.456-1.199-.456-.972 0-1.463.708-1.463 1.463 0 .852.636 1.475 1.511 1.475.324 0 .755-.096 1.151-.456v1.427c-.288.144-.744.324-1.343.324-.815 0-1.535-.312-2-.756-.396-.372-.828-1.019-.828-1.991 0-.912.372-1.643.899-2.111.636-.563 1.368-.671 1.871-.671.54 0 .983.108 1.403.312v1.44"/>
 <path fill="#00598f" d="m265.15 78.79h1.463v1.835h2.039v-1.835h1.463v5.193h-1.463v-2.111h-2.039v2.111h-1.463v-5.193"/>
 <path fill="#00598f" d="m276.32 79.36c.516.468.875 1.188.875 2.039 0 .839-.36 1.559-.875 2.027-.444.408-1.115.731-2.099.731s-1.655-.324-2.099-.731c-.516-.468-.875-1.188-.875-2.027 0-.852.36-1.571.875-2.039.444-.408 1.116-.731 2.099-.731s1.655.323 2.099.731m-.636 2.039c0-.816-.624-1.476-1.463-1.476-.84 0-1.463.66-1.463 1.476 0 .792.612 1.463 1.463 1.463s1.463-.671 1.463-1.463"/>
 <path fill="#00598f" d="m282.24 80.37c-.312-.288-.696-.456-1.199-.456-.972 0-1.463.708-1.463 1.463 0 .852.636 1.475 1.511 1.475.324 0 .755-.096 1.151-.456v1.427c-.288.144-.744.324-1.343.324-.815 0-1.535-.312-2-.756-.396-.372-.828-1.019-.828-1.991 0-.912.372-1.643.899-2.111.636-.563 1.368-.671 1.871-.671.54 0 .983.108 1.403.312v1.44"/>
 <path fill="#00598f" d="m285.88 80.04v3.946h-1.463v-3.946h-1.439v-1.248h4.342v1.248h-1.44"/>
 <path fill="#00598f" d="m289.56 78.79v3.203l2.399-3.203h1.463v5.193h-1.463v-3.202l-2.399 3.202h-1.463v-5.193h1.463"/>
 <path fill="#fff" d="m245.95 297.98c47.635 0 86.25-27.98 86.25-62.5 0-34.517-38.616-62.5-86.25-62.5-47.635 0-86.25 27.982-86.25 62.5 0 34.519 38.614 62.5 86.25 62.5"/>
 <path fill="#00598f" d="m223.84 253.86c-.189-.189-.477-.414-.783-.559-.315-.145-.685-.234-1.036-.234-1.386 0-2.413 1.117-2.413 2.504 0 1.629 1.323 2.447 2.422 2.447.405 0 .801-.117 1.116-.277.342-.172.585-.396.693-.506v.828c-.667.479-1.359.586-1.81.586-1.783 0-3.106-1.35-3.106-3.088 0-1.791 1.341-3.123 3.142-3.123.36 0 1.053.045 1.773.594v.828z"/>
 <path fill="#00598f" d="m225.55 254.81v2.467l2.557-2.756v4.03h-.648v-2.494l-2.557 2.754v-3.996h.648"/>
 <path fill="#00598f" d="m232.25 255.85c-.342-.434-.837-.559-1.17-.559-.693 0-1.323.486-1.323 1.395 0 .91.648 1.387 1.314 1.387.387 0 .864-.172 1.206-.586v.775c-.405.297-.837.387-1.188.387-1.162 0-1.999-.828-1.999-1.953 0-1.145.847-1.98 1.999-1.98.594 0 .981.234 1.161.359v.775"/>
 <path fill="#00598f" d="m234.55 255.4v3.143h-.648v-3.143h-1.17v-.594h2.989v.594h-1.171"/>
 <path fill="#00598f" d="m239.63 257.59c-.108.207-.27.432-.459.604-.342.307-.765.459-1.242.459-.9 0-1.846-.566-1.846-1.953 0-1.117.685-1.98 1.81-1.98.729 0 1.188.359 1.414.684.234.334.369.91.351 1.404h-2.908c.009.775.54 1.27 1.188 1.27.306 0 .549-.09.766-.27.171-.145.306-.334.387-.514l.539.296m-.639-1.322c-.108-.586-.549-.973-1.099-.973-.549 0-.999.414-1.098.973h2.197"/>
 <path fill="#00598f" d="m241.12 254.52l1.548 3.043 1.512-3.043.9 4.02h-.666l-.495-2.314-1.27 2.574-1.288-2.574-.477 2.314h-.666l.902-4.02"/>
 <path fill="#00598f" d="m248.73 254.81h.648v3.736h-.648v-.523c-.216.279-.621.631-1.278.631-.945 0-1.819-.666-1.819-1.98 0-1.287.864-1.953 1.819-1.953.72 0 1.107.396 1.278.621v-.532m-2.43 1.863c0 .801.45 1.404 1.224 1.404.792 0 1.243-.656 1.243-1.395 0-.965-.667-1.387-1.243-1.387-.639.0001-1.224.468-1.224 1.378"/>
 <path fill="#00598f" d="m255.54 253.72c-.081-.162-.216-.342-.351-.451-.117-.09-.333-.207-.675-.207-.594 0-1.01.369-1.01.928 0 .234.063.369.225.521.18.182.405.279.63.379l.576.252c.351.152.675.314.927.566.306.307.432.658.432 1.09 0 1.107-.819 1.846-1.9 1.846-.396 0-.891-.08-1.305-.486-.297-.287-.477-.701-.558-1.063l.648-.18c.045.314.189.586.36.766.261.262.558.332.864.332.819 0 1.206-.584 1.206-1.188 0-.27-.081-.504-.297-.703-.171-.162-.405-.27-.72-.414l-.54-.252c-.234-.107-.531-.234-.801-.494-.261-.252-.414-.531-.414-.982 0-.926.711-1.547 1.684-1.547.369 0 .666.07.963.27.243.162.45.404.585.666l-.531.351"/>
 <path fill="#00598f" d="m257.2 256.29h1.98v.666h-1.98v-.666"/>
 <path fill="#00598f" d="m260.08 258.54l2.188-2.529c.153-.182.558-.658.702-.875.27-.387.333-.674.333-.918 0-.674-.486-1.17-1.198-1.17-.423 0-.774.189-.999.531-.117.18-.189.404-.198.711h-.666c.027-.604.216-.973.45-1.242.252-.287.675-.611 1.422-.611 1.062 0 1.854.756 1.854 1.791 0 .404-.117.773-.477 1.287-.252.352-.576.721-.819 1l-1.251 1.412h2.539v.613h-3.88"/>
 <path fill="#00598f" d="m265.53 257.75c-.396-.576-.603-1.35-.603-2.205s.207-1.629.603-2.205c.459-.668 1.063-.9 1.54-.9s1.081.232 1.54.9c.396.576.603 1.35.603 2.205s-.207 1.629-.603 2.205c-.459.666-1.063.9-1.54.9s-1.081-.234-1.54-.9m.504-4.03c-.324.514-.441 1.197-.441 1.828 0 .629.117 1.314.441 1.828.315.504.729.666 1.035.666s.72-.162 1.036-.666c.324-.514.441-1.199.441-1.828 0-.631-.117-1.314-.441-1.828-.315-.504-.729-.666-1.036-.666s-.72.162-1.035.666"/>
 <path fill="#00598f" d="m215.86 264.8h.648v1.531h1.765v-1.531h.648v3.736h-.648v-1.611h-1.765v1.611h-.648v-3.736"/>
 <path fill="#00598f" d="m223.01 264.8h.648v3.736h-.648v-.521c-.216.279-.621.631-1.278.631-.945 0-1.819-.668-1.819-1.982 0-1.287.864-1.953 1.819-1.953.72 0 1.107.396 1.278.621v-.532m-2.431 1.863c0 .803.45 1.406 1.224 1.406.792 0 1.243-.658 1.243-1.396 0-.963-.667-1.387-1.243-1.387-.639 0-1.224.469-1.224 1.377"/>
 <path fill="#00598f" d="m229.98 264.8v3.736h-.648v-3.141h-1.71v3.141h-.648v-3.736h3.01"/>
 <path fill="#00598f" d="m231.85 270.61h-.648v-5.807h.648v.523c.441-.549 1.01-.613 1.278-.613 1.17 0 1.819.973 1.819 1.98 0 1.027-.657 1.955-1.792 1.955-.604 0-1.026-.271-1.306-.631v2.593zm2.431-3.916c0-.918-.621-1.404-1.224-1.404s-1.242.496-1.242 1.396c0 .766.486 1.387 1.251 1.387.756 0 1.215-.631 1.215-1.379"/>
 <path fill="#00598f" d="m239.25 267.59c-.108.207-.27.432-.459.602-.342.307-.765.461-1.242.461-.9 0-1.846-.568-1.846-1.955 0-1.115.685-1.98 1.81-1.98.729 0 1.188.361 1.414.686.234.332.369.908.351 1.404h-2.908c.009.773.54 1.27 1.188 1.27.306 0 .549-.092.765-.271.171-.143.306-.332.387-.512l.54.295m-.639-1.324c-.108-.586-.549-.973-1.099-.973-.549 0-.999.414-1.098.973h2.197"/>
 <path fill="#00598f" d="m243.17 264.8v3.143h.558v1.584h-.594v-.99h-2.845v.99h-.594v-1.584c.324-.001.567-.225.693-.486.126-.262.153-.611.153-.99v-1.666h2.629m-.648.594h-1.333v1.404c0 .432-.099.836-.45 1.143h1.783v-2.547"/>
 <path fill="#00598f" d="m247.42 264.8v3.736h-.648v-3.141h-1.71v3.141h-.648v-3.736h3.01"/>
 <path fill="#00598f" d="m249.29 270.61h-.648v-5.807h.648v.523c.441-.549 1.01-.613 1.278-.613 1.17 0 1.819.973 1.819 1.98 0 1.027-.657 1.955-1.792 1.955-.604 0-1.026-.271-1.306-.631v2.593zm2.431-3.916c0-.918-.621-1.404-1.224-1.404s-1.242.496-1.242 1.396c0 .766.486 1.387 1.251 1.387.756 0 1.215-.631 1.215-1.379"/>
 <path fill="#00598f" d="m254.02 264.8v2.467l2.557-2.754v4.02h-.648v-2.494l-2.557 2.756v-3.998h.648"/>
 <path fill="#00598f" d="m258.53 267c-.045 0-.45-.035-.72-.297-.153-.145-.297-.396-.297-.748 0-.35.126-.648.333-.836.324-.307.729-.316 1.098-.316h1.306v3.736h-.648v-1.504h-.396l-1.063 1.504h-.774l1.161-1.539m1.071-1.621h-.603c-.261 0-.45.02-.585.1-.108.072-.234.217-.234.459 0 .199.072.352.234.451.189.117.423.107.576.107h.612v-1.117"/>
 <path fill="#00598f" d="m262.75 265.4v3.141h-.648v-3.141h-1.17v-.596h2.989v.596h-1.171"/>
 <path fill="#00598f" d="m265.25 264.8v2.467l2.557-2.754v4.02h-.648v-2.494l-2.557 2.756v-3.998h.648"/>
 <path fill="#00598f" d="m269.68 264.8v2.467l2.557-2.754v4.02h-.648v-2.494l-2.557 2.756v-3.998h.648"/>
 <path fill="#005083" d="m225.38 207.6h-3.994v-2.464h3.994v2.464m0 5.683h-3.994v-2.465h3.994v2.465m0 5.684h-3.994v-2.465h3.994v2.465m-4.472 13.762h5.067v-30.332h-5.067v30.332"/>
 <path fill="#005083" d="m234.21 207.53h-4.211v-2.464h4.211v2.464m0 5.684h-4.211v-2.465h4.211v2.465m0 5.683h-4.211v-2.465h4.211v2.465m-4.604 13.764h5.067v-30.333h-5.067v30.333"/>
 <path fill="#005083" d="m236.13 193.01c-1.286.101-2.432.339-3.344.655-.826-.262-1.826-.414-2.905-.414-2.836 0-5.136 1.05-5.136 2.349 0 .073.033.141.048.213-1.961.235-3.403.983-3.403 1.88 0 1.085 2.1 1.965 4.691 1.965.966 0 1.863-.123 2.609-.332.724.179 1.542.289 2.423.289 2.837 0 5.136-1.051 5.136-2.349 0-.111-.039-.217-.072-.324.245-.009.487-.014.738-.033 3.19-.25 5.599-1.325 5.382-2.401-.216-1.078-2.978-1.748-6.167-1.498"/>
 <path fill="#005083" d="m249.84 195.24c-.827.064-1.565.219-2.151.423-.532-.168-1.174-.268-1.868-.268-1.825 0-3.304.675-3.304 1.511 0 .048.021.092.03.138-1.261.151-2.188.632-2.188 1.209 0 .697 1.35 1.264 3.02 1.264.621 0 1.198-.079 1.678-.214.466.115.992.187 1.559.187 1.824 0 3.303-.677 3.303-1.511 0-.072-.025-.14-.046-.209.158-.005.314-.009.475-.021 2.051-.161 3.601-.854 3.462-1.545-.138-.693-1.914-1.125-3.967-.964"/>
 <path fill="#005083" d="m255.23 207.04c-1.286.102-2.432.34-3.344.656-.826-.262-1.826-.414-2.905-.414-2.836 0-5.136 1.049-5.136 2.35 0 .072.033.141.048.213-1.961.234-3.403.982-3.403 1.879 0 1.086 2.1 1.965 4.691 1.965.966 0 1.863-.123 2.609-.332.724.178 1.542.289 2.423.289 2.837 0 5.136-1.051 5.136-2.348 0-.111-.039-.219-.072-.324.245-.001.487-.014.738-.033 3.19-.25 5.599-1.326 5.382-2.402-.216-1.077-2.978-1.749-6.167-1.499"/>
 <path fill="#005083" d="m268.94 209.28c-.827.064-1.565.217-2.151.422-.532-.168-1.174-.268-1.868-.268-1.825 0-3.304.676-3.304 1.512 0 .047.021.09.03.137-1.261.152-2.188.633-2.188 1.209 0 .697 1.35 1.264 3.02 1.264.621 0 1.198-.078 1.678-.213.466.113.992.186 1.559.186 1.824 0 3.303-.676 3.303-1.51 0-.072-.025-.141-.046-.209.158-.006.314-.001.475-.021 2.051-.162 3.601-.854 3.462-1.545-.138-.692-1.915-1.126-3.967-.964"/>
 <path fill="#005083" d="m234.74 237.93h-1.986v-4.314h1.986v4.314m-3.612 0h-1.986v-4.314h1.986v4.314m-3.611 0h-1.986v-4.314h1.986v4.314m-3.613 0h-1.986v-4.314h1.986v4.314m-3.611 0h-1.986v-4.314h1.986v4.314m-3.972 4.04h23.965v-10.406h-23.965v10.406"/>
 <path fill="#005083" d="m214.81 239.99h55.26v2.053h-55.26z"/>
 <path fill="#005083" d="m252.13 240.67l-4.11-15.4v-7.47h-10.34v7.47l-1.78 5.71h5.17v9.69z"/>
 <path fill="#005083" d="m264.73 225.96v-8.16h-9.79v7.67l-4.45 16.37h18.69z"/>
 <path fill="#005083" d="m221.47 306.74c-6.879 0-12.475 5.598-12.475 12.477s5.596 12.475 12.475 12.475 12.475-5.596 12.475-12.475-5.596-12.477-12.475-12.477m0 27.412c-8.236 0-14.936-6.701-14.936-14.936 0-8.236 6.7-14.938 14.936-14.938s14.937 6.701 14.937 14.938c0 8.235-6.702 14.936-14.937 14.936"/>
 <path fill="#005083" d="m221.47 319.39c-.34 0-.615-.273-.615-.615v-10.615c0-.342.275-.615.615-.615s.615.273.615.615v10.615c-.0001.341-.276.615-.615.615"/>
 <path fill="#005083" d="m221.47 319.39c-.186 0-.37-.084-.491-.244l-4.154-5.486c-.205-.271-.151-.656.12-.861.271-.207.657-.152.862.119l4.153 5.486c.206.271.152.656-.119.861-.111.086-.241.125-.371.125"/>
 <path fill="#005083" d="m214.04 319.83h-3.282c-.339 0-.615-.275-.615-.615s.276-.615.615-.615h3.282c.34 0 .615.275.615.615s-.275.615-.615.615"/>
 <path fill="#005083" d="m232.09 319.83h-3.282c-.339 0-.615-.275-.615-.615s.276-.615.615-.615h3.282c.34 0 .615.275.615.615s-.275.615-.615.615"/>
 <path fill="#005083" d="m221.47 330.19c-.34 0-.615-.273-.615-.613v-3.283c0-.34.275-.615.615-.615s.615.275.615.615v3.283c-.0001.34-.276.613-.615.613"/>
 <path fill="#005083" d="m218.99 343.27h30.31c-1.535-4.191-6.29-7.43-12.231-8.244v-2.648c1.2-.826 2.191-2.139 2.829-3.758 1.249-.646 2.02-1.504 2.02-2.445 0-.725-.457-1.398-1.234-1.965.003-4.891.112-8.832-6.535-8.832-6.844 0-6.541 3.941-6.535 8.832-.776.566-1.232 1.24-1.232 1.965 0 .941.767 1.799 2.02 2.445.637 1.619 1.63 2.932 2.83 3.758v2.648c-5.941.815-10.696 4.053-12.232 8.244"/>
 <path fill="#005083" d="m218.99 343.27h30.31c-1.535-4.191-6.29-7.43-12.231-8.244v-2.648c1.2-.826 2.191-2.139 2.829-3.758 1.249-.646 2.02-1.504 2.02-2.445 0-.725-.457-1.398-1.234-1.965.003-4.891.112-8.832-6.535-8.832-6.844 0-6.541 3.941-6.535 8.832-.776.566-1.232 1.24-1.232 1.965 0 .941.767 1.799 2.02 2.445.637 1.619 1.63 2.932 2.83 3.758v2.648c-5.941.815-10.696 4.053-12.232 8.244"/>
 <path fill="#005083" d="m378 240.51c-9.244 0-16.765-7.52-16.765-16.764s7.521-16.765 16.765-16.765 16.766 7.521 16.766 16.765-7.522 16.764-16.766 16.764m0-30.766c-7.721 0-14 6.281-14 14s6.281 14 14 14 14-6.281 14-14-6.282-14-14-14"/>
 <path fill="#005083" d="m378 215.92c-.381 0-.689-.309-.689-.689v-3.896c0-.381.309-.689.689-.689.382 0 .691.309.691.689v3.896c0 .38-.309.689-.691.689"/>
 <path fill="#005083" d="m389.92 224.43h-3.684c-.382 0-.689-.307-.689-.689 0-.381.308-.691.689-.691h3.684c.381 0 .69.311.69.691 0 .382-.309.689-.69.689"/>
 <path fill="#005083" d="m367.17 212.95l10.692 10.768v15.295l-6.756-.891-6.089-5.941c0 0-2.608-8.732-2.358-8.982.251-.252 1.096-5.42 1.096-5.42l3.415-4.829"/>
 <path fill="#005083" d="m386.53 215.73l-2.604 2.604c-.27.27-.706.27-.977 0-.27-.27-.271-.705 0-.977l2.604-2.604c.27-.27.707-.271.977 0 .271.269.27.707 0 .977"/>
 <path fill="#005083" d="m383.61 230.13l2.604 2.604c.27.271.706.271.977 0 .27-.27.271-.705 0-.975l-2.604-2.605c-.27-.27-.707-.27-.977 0-.27.269-.269.706 0 .976"/>
 <path fill="#005083" d="m166.96 130.47l1.43 1.46h5.64l-1.43-1.46z"/>
 <path fill="#005083" d="m163.47 129.4h33.458v1.079h-3.852l1.431 1.46h2.421v.948h-33.458v-3.487m42.28-6.237h-5.393-2.379l-1.051.609v4.62h-33.458-1.264c0 0-.297.26-.456 1.313-.114.26-.209.68-.209 1.368 0 .583.072.986.165 1.275.138 1.38.5 1.783.5 1.783h1.264 33.458v2.409 19.927l1.051 1.217h2.379 5.393 2.296v-34.521h-2.296"/>
 <path fill="#005083" d="m180.01 130.47l1.43 1.46h5.64l-1.43-1.46z"/>
 <path fill="#205081" d="m320.72 132.18c-.347 0-.627-.28-.627-.626 0-.346.28-.627.627-.627.346 0 .627.281.627.627 0 .346-.282.626-.627.626m1.452-3.105c-1.845 0-3.342 1.496-3.342 3.342 0 1.845 1.497 3.341 3.342 3.341s3.341-1.496 3.341-3.341c0-1.846-1.496-3.342-3.341-3.342"/>
 <path fill="#205081" d="m322.14 137.27c-2.631 0-4.771-2.141-4.771-4.772 0-2.632 2.141-4.773 4.771-4.773 2.632 0 4.771 2.141 4.771 4.773 0 2.632-2.139 4.772-4.771 4.772m0-10.737c-3.289 0-5.965 2.676-5.965 5.966 0 3.289 2.676 5.965 5.965 5.965s5.966-2.676 5.966-5.965c0-3.291-2.677-5.966-5.966-5.966"/>
 <path fill="#205081" d="m330.31 137.04c0 1.349-1.104 2.452-2.453 2.452h-11.732c-1.35 0-2.452-1.103-2.452-2.452v-8.679c0-1.349 1.103-2.452 2.452-2.452h11.732c1.35 0 2.453 1.103 2.453 2.452v8.679m13.618 1.072v3.65h-4.461l-2.28-4.815c.881-.818 1.176-2.023.635-2.928-.123-.207-.28-.382-.465-.526l7.661-6.64.056-.072c.428-.3.76-.727.942-1.226l.091-.119v-.185c.043-.185.068-.377.068-.575v-4.872c0-1.414-1.157-2.571-2.57-2.571h-5.176c-.291 0-.568.051-.83.141l-.063-.0001-23.863 7.155c-.893.171-2.01 1.244-1.908 2.456l1.202 10.888c.149 1.35 1.383 2.456 2.742 2.456h12.854c.426 0 .828-.11 1.182-.301l.291-.188c.113-.083.22-.175.316-.275l2.937-2.545c.518.652 1.427.915 2.348.729l2.491 5.259c.145.304.451.499.788.499h5.01v3.595h3.65v-8.989h-3.65"/>
 <path fill="#005083" d="m240.74 112.75l.464.044-.043.464-.464-.044.043-.464m-.492-.713l.044-.464.464.044-.044.463-.464-.043m-.113-.012l-.464-.043.043-.464.464.044-.043.463m1.122.21l-.044.464-.464-.043.044-.464.464.043m-.411-.611l.464.044-.044.463-.464-.043.044-.464m18.529 4.422h-18.23l-.225-.488 1.071-.873c.938-.764 1.056-2.186.339-3.318.003-.002.005-.006.007-.009-.064-.101-.135-.2-.213-.295-.108-.133-.224-.253-.347-.362-.0001.0001-.002.0001-.004.002-.959-.85-2.317-.981-3.224-.242l-3.09 2.518c-.213.173-.373.385-.502.615l-4.522 3.615v31.21h10.993v-.562l-8.278-1.26v-24.639l2.754-2.284.075.078.423-.065.459-.248.268.212.307.226v15.38c0 .081.058.13.155.13h1.086c.097 0 .155-.049.155-.13v-16.195c0-.012-.009-.018-.012-.029.026-.062.044-.123.055-.173.034-.162.067-.716.079-.936l.613-.507.873-.102c0 0 .048-.006.117-.021.002 0 .003.002.005.002h18.813c.075 0 .151-.052.151-.137v-.961c0-.086-.076-.155-.151-.155"/>
 <path fill="#005083" d="m284.71 113.13c1.109 0 2.01.899 2.01 2.01 0 1.11-.899 2.01-2.01 2.01s-2.01-.899-2.01-2.01c0-1.109.899-2.01 2.01-2.01m7.617 5.468c0-4.207-3.41-7.617-7.617-7.617s-7.617 3.41-7.617 7.617c0 3.27 2.065 6.05 4.958 7.13v2.345l1.472 1.291v1.343l-1.472 1.032v1.808l.955 1.136v1.058l-.955.388v1.445l1.213.904v1.291l-1.213.852v1.033l2.01 2.427h1.084v-17.14l1.084.826v16.318l1.395-1.575v-16.873c2.758-1.145 4.699-3.862 4.699-7.03"/>
 <path fill="#00598f" d="m179.64 350.33c-.189-.188-.477-.414-.783-.557-.315-.145-.685-.234-1.036-.234-1.386 0-2.413 1.115-2.413 2.502 0 1.629 1.323 2.449 2.422 2.449.405 0 .801-.117 1.116-.279.342-.172.585-.396.693-.504v.828c-.667.477-1.359.586-1.81.586-1.783 0-3.106-1.352-3.106-3.088 0-1.793 1.341-3.125 3.142-3.125.36 0 1.053.045 1.773.594v.828z"/>
 <path fill="#00598f" d="m180.47 353.15c0-1.135.837-1.973 1.981-1.973 1.143 0 1.98.838 1.98 1.973 0 1.133-.846 1.963-1.98 1.963-1.135 0-1.981-.83-1.981-1.963m.666 0c0 .918.648 1.387 1.314 1.387.675 0 1.314-.479 1.314-1.387 0-.918-.63-1.396-1.314-1.396-.684 0-1.314.486-1.314 1.396"/>
 <path fill="#00598f" d="m186.06 351.27v1.531l1.513-1.531h.792l-1.62 1.666 1.818 2.07h-.846l-1.458-1.639-.198.189v1.449h-.648v-3.736h.647"/>
 <path fill="#00598f" d="m189.86 357.08h-.648v-5.807h.648v.523c.441-.549 1.01-.613 1.278-.613 1.17 0 1.819.973 1.819 1.98 0 1.027-.657 1.955-1.792 1.955-.604 0-1.026-.271-1.306-.631v2.593zm2.43-3.916c0-.918-.621-1.404-1.224-1.404s-1.243.496-1.243 1.396c0 .766.486 1.387 1.251 1.387.757 0 1.216-.631 1.216-1.379"/>
 <path fill="#00598f" d="m196.81 351.27h.648v3.736h-.648v-.521c-.216.279-.621.631-1.278.631-.945 0-1.819-.668-1.819-1.982 0-1.287.864-1.953 1.819-1.953.72 0 1.107.396 1.278.621v-.532m-2.431 1.864c0 .803.45 1.406 1.224 1.406.792 0 1.243-.658 1.243-1.396 0-.963-.667-1.387-1.243-1.387-.639 0-1.224.469-1.224 1.377"/>
 <path fill="#00598f" d="m198.68 351.27h.648v3.143h1.44v-3.143h.648v3.143h1.44v-3.143h.648v3.143h.612v1.584h-.594v-.99h-4.843v-3.737z"/>
 <path fill="#00598f" d="m208.12 354.06c-.108.207-.27.432-.459.602-.342.307-.765.461-1.242.461-.9 0-1.846-.568-1.846-1.955 0-1.115.685-1.98 1.81-1.98.729 0 1.188.361 1.414.686.234.332.369.908.351 1.404h-2.908c.009.773.54 1.27 1.188 1.27.306 0 .549-.092.765-.271.171-.143.306-.332.387-.512l.54.295m-.639-1.325c-.108-.586-.549-.973-1.099-.973-.549 0-.999.414-1.098.973h2.197"/>
 <path fill="#00598f" d="m209.13 351.27h.648v1.531h1.765v-1.531h.648v3.736h-.648v-1.611h-1.765v1.611h-.648v-3.736"/>
 <path fill="#00598f" d="m214.06 351.27v2.467l2.557-2.754v4.02h-.648v-2.494l-2.557 2.756v-3.998h.648"/>
 <path fill="#00598f" d="m221.16 354.06c-.108.207-.27.432-.459.602-.342.307-.765.461-1.242.461-.9 0-1.846-.568-1.846-1.955 0-1.115.685-1.98 1.81-1.98.729 0 1.188.361 1.414.686.234.332.369.908.351 1.404h-2.908c.009.773.54 1.27 1.188 1.27.306 0 .549-.092.766-.271.171-.143.306-.332.387-.512l.539.295m-.639-1.325c-.108-.586-.549-.973-1.099-.973-.549 0-.999.414-1.098.973h2.197"/>
 <path fill="#00598f" d="m227.28 351.27v3.736h-.648v-3.141h-1.71v3.141h-.648v-3.736h3.01"/>
 <path fill="#00598f" d="m228.26 353.15c0-1.135.837-1.973 1.981-1.973 1.143 0 1.98.838 1.98 1.973 0 1.133-.846 1.963-1.98 1.963-1.135 0-1.981-.83-1.981-1.963m.666 0c0 .918.648 1.387 1.314 1.387.675 0 1.314-.479 1.314-1.387 0-.918-.63-1.396-1.314-1.396-.684 0-1.314.486-1.314 1.396"/>
 <path fill="#00598f" d="m234.4 351.87v3.141h-.648v-3.141h-1.17v-.596h2.989v.596h-1.171"/>
 <path fill="#00598f" d="m239.49 354.06c-.108.207-.27.432-.459.602-.342.307-.765.461-1.242.461-.9 0-1.846-.568-1.846-1.955 0-1.115.685-1.98 1.81-1.98.729 0 1.188.361 1.414.686.234.332.369.908.351 1.404h-2.908c.009.773.54 1.27 1.188 1.27.306 0 .549-.092.765-.271.171-.143.306-.332.387-.512l.54.295m-.639-1.325c-.108-.586-.549-.973-1.099-.973-.549 0-.999.414-1.098.973h2.197"/>
 <path fill="#00598f" d="m241.15 357.08h-.648v-5.807h.648v.523c.441-.549 1.01-.613 1.278-.613 1.17 0 1.819.973 1.819 1.98 0 1.027-.657 1.955-1.792 1.955-.604 0-1.026-.271-1.306-.631v2.593zm2.43-3.916c0-.918-.621-1.404-1.224-1.404s-1.243.496-1.243 1.396c0 .766.486 1.387 1.251 1.387.758 0 1.216-.631 1.216-1.379"/>
 <path fill="#00598f" d="m245.24 351.27h.648v1.432h.667c.333 0 .801.027 1.134.369.144.145.288.406.288.783 0 .406-.171.686-.333.838-.324.307-.729.314-1.099.314h-1.305v-3.736m1.251 3.161c.216 0 .423-.008.576-.098.081-.055.243-.189.243-.479 0-.162-.045-.352-.234-.467-.162-.109-.369-.109-.576-.109h-.612v1.152h.603"/>
 <path fill="#00598f" d="m251.58 357.08h-.648v-5.807h.648v.523c.441-.549 1.01-.613 1.278-.613 1.17 0 1.819.973 1.819 1.98 0 1.027-.657 1.955-1.792 1.955-.604 0-1.026-.271-1.306-.631v2.593zm2.431-3.916c0-.918-.621-1.404-1.224-1.404s-1.243.496-1.243 1.396c0 .766.486 1.387 1.251 1.387.757 0 1.216-.631 1.216-1.379"/>
 <path fill="#00598f" d="m258.53 351.27h.648v3.736h-.648v-.521c-.216.279-.621.631-1.278.631-.945 0-1.819-.668-1.819-1.982 0-1.287.864-1.953 1.819-1.953.72 0 1.107.396 1.278.621v-.532m-2.43 1.864c0 .803.45 1.406 1.224 1.406.792 0 1.243-.658 1.243-1.396 0-.963-.667-1.387-1.243-1.387-.639 0-1.224.469-1.224 1.377"/>
 <path fill="#00598f" d="m264 348.71c-.216.719-.828.918-1.225 1.018-.351.09-.828.17-1.188.432-.468.352-.756 1.025-.783 1.711h.018c.243-.414.693-.686 1.359-.686 1.117 0 1.945.855 1.945 1.973 0 1.115-.819 1.963-2.043 1.963-.63 0-1.044-.244-1.288-.469-.567-.521-.63-1.27-.63-1.928 0-.666.027-2.367 1.063-3.078.405-.279.873-.359 1.305-.459.504-.117.667-.27.748-.477h.719m-3.169 4.447c0 .918.648 1.387 1.314 1.387.675 0 1.314-.479 1.314-1.387 0-.918-.63-1.396-1.314-1.396-.684 0-1.314.486-1.314 1.396"/>
 <path fill="#00598f" d="m264.88 353.15c0-1.135.837-1.973 1.981-1.973 1.143 0 1.98.838 1.98 1.973 0 1.133-.846 1.963-1.98 1.963-1.135 0-1.981-.83-1.981-1.963m.666 0c0 .918.648 1.387 1.314 1.387.675 0 1.314-.479 1.314-1.387 0-.918-.63-1.396-1.314-1.396-.684 0-1.314.486-1.314 1.396"/>
 <path fill="#00598f" d="m271.83 353.54c-.234.035-.621.08-.882.08-.189 0-.621-.008-.909-.27-.252-.225-.315-.559-.315-.918v-1.162h.648v1.072c0 .135.018.332.081.441.117.225.369.242.567.242.243 0 .531-.027.811-.08v-1.676h.648v3.736h-.648v-1.465z"/>
 <path fill="#00598f" d="m277.02 354.06c-.108.207-.27.432-.459.602-.342.307-.765.461-1.242.461-.9 0-1.846-.568-1.846-1.955 0-1.115.685-1.98 1.81-1.98.729 0 1.188.361 1.414.686.234.332.369.908.351 1.404h-2.908c.009.773.54 1.27 1.188 1.27.306 0 .549-.092.765-.271.171-.143.306-.332.387-.512l.54.295m-.639-1.325c-.108-.586-.549-.973-1.099-.973-.549 0-.999.414-1.098.973h2.197"/>
 <path fill="#00598f" d="m278.03 351.27h2.214v.596h-1.566v3.141h-.648v-3.737"/>
 <path fill="#00598f" d="m280.47 353.15c0-1.135.837-1.973 1.981-1.973 1.143 0 1.98.838 1.98 1.973 0 1.133-.846 1.963-1.98 1.963s-1.981-.83-1.981-1.963m.667 0c0 .918.648 1.387 1.314 1.387.675 0 1.314-.479 1.314-1.387 0-.918-.63-1.396-1.314-1.396-.684 0-1.314.486-1.314 1.396"/>
 <path fill="#00598f" d="m215.96 362.07c.198 0 .522.008.783.215.135.109.324.324.324.703 0 .369-.18.604-.405.748.108.025.288.08.468.252.207.197.297.432.297.719 0 .396-.18.686-.387.848-.225.17-.585.252-.882.252h-1.611v-3.736h1.413m-.081 1.521c.063 0 .271-.001.415-.107.072-.055.18-.162.18-.389 0-.18-.081-.287-.18-.359-.153-.1-.324-.09-.522-.09h-.576v.945h.683m.118 1.638c.18 0 .423-.001.585-.127.117-.09.216-.242.216-.414 0-.17-.063-.324-.189-.422-.162-.127-.405-.137-.585-.137h-.829v1.1h.802"/>
 <path fill="#00598f" d="m219.07 367.88h-.648v-5.807h.648v.521c.441-.549 1.01-.611 1.278-.611 1.17 0 1.819.973 1.819 1.98 0 1.025-.657 1.953-1.792 1.953-.604 0-1.026-.27-1.306-.631v2.595zm2.431-3.916c0-.918-.621-1.404-1.224-1.404s-1.242.494-1.242 1.395c0 .766.486 1.387 1.251 1.387.756-.0001 1.215-.632 1.215-1.378"/>
 <path fill="#00598f" d="m226.47 364.85c-.108.207-.27.432-.459.604-.342.307-.765.459-1.242.459-.9 0-1.846-.566-1.846-1.953 0-1.117.685-1.98 1.81-1.98.729 0 1.188.359 1.414.684.234.334.369.91.351 1.404h-2.908c.009.775.54 1.27 1.188 1.27.306 0 .549-.09.765-.27.171-.145.306-.334.387-.514l.54.296m-.639-1.323c-.108-.586-.549-.973-1.099-.973-.549 0-.999.414-1.098.973h2.197"/>
 <path fill="#00598f" d="m227.95 361.78l1.549 3.043 1.512-3.043.9 4.02h-.666l-.495-2.314-1.27 2.574-1.288-2.574-.477 2.314h-.666l.901-4.02"/>
 <path fill="#00598f" d="m236.02 364.85c-.108.207-.27.432-.459.604-.342.307-.765.459-1.242.459-.9 0-1.846-.566-1.846-1.953 0-1.117.685-1.98 1.81-1.98.729 0 1.188.359 1.414.684.234.334.369.91.351 1.404h-2.908c.009.775.54 1.27 1.188 1.27.306 0 .549-.09.766-.27.171-.145.306-.334.387-.514l.539.296m-.64-1.323c-.108-.586-.549-.973-1.099-.973-.549 0-.999.414-1.098.973h2.197"/>
 <path fill="#00598f" d="m237.03 362.07h.648v1.529h1.765v-1.529h.648v3.736h-.648v-1.611h-1.765v1.611h-.648v-3.736"/>
 <path fill="#00598f" d="m241.96 362.07v2.467l2.557-2.756v4.02h-.648v-2.494l-2.557 2.754v-3.996h.648"/>
 <path fill="none" stroke="#5bc4f1" stroke-width="2" stroke-linecap="round" stroke-linejoin="round" stroke-dasharray="0 5.874" d="m304.25 55.44c44.06-5.789 80.51-1.63 90.8-.194"/>
 <path fill="#5bc4f1" d="m404.78 56.854l-11.226 2.038c0 0 4.401-3.205 1.316-7.691l9.91 5.653"/>
 <path fill="none" stroke="#5bc4f1" stroke-width="2" stroke-linecap="round" stroke-linejoin="round" stroke-dasharray="0 6.063" d="m60.938 215.97c17.16-92.29 79.63-116.35 93.92-120.7"/>
 <path fill="#5bc4f1" d="m164.54 92.98l-9.629 6.12c0 0 2.867-4.628-1.682-7.62l11.311 1.5"/>
 <path fill="none" stroke="#5bc4f1" stroke-width="2" stroke-linecap="round" stroke-linejoin="round" stroke-dasharray="0 5.884" d="m111.5 150.88c4.817-30.595 30.08-48.33 38.25-53.32"/>
 <path fill="#00598f" d="m505.01 202.73c.899 0 1.523.097 2.11.612.648.575.816 1.355.816 1.931 0 .312-.049 1.176-.66 1.787-.443.443-1.104.709-2.026.709h-1.01v2.961h-1.56v-8h2.328m-.768 3.694h.636c.3 0 .684 0 1.02-.252.288-.228.432-.588.432-.936 0-.443-.216-.743-.444-.911-.323-.229-.731-.252-1.103-.252h-.54v2.351"/>
 <path fill="#00598f" d="m513.46 206.1c.516.468.876 1.188.876 2.04 0 .84-.36 1.559-.876 2.027-.443.406-1.115.73-2.099.73s-1.655-.324-2.099-.73c-.516-.469-.876-1.188-.876-2.027 0-.852.36-1.572.876-2.04.443-.407 1.115-.731 2.099-.731s1.656.324 2.099.731m-.636 2.04c0-.816-.623-1.475-1.463-1.475s-1.463.659-1.463 1.475c0 .791.611 1.463 1.463 1.463s1.463-.672 1.463-1.463"/>
 <path fill="#00598f" d="m519.38 207.12c-.312-.288-.695-.456-1.199-.456-.972 0-1.463.708-1.463 1.463 0 .852.635 1.475 1.511 1.475.324 0 .756-.096 1.151-.455v1.426c-.288.145-.743.324-1.344.324-.815 0-1.535-.311-2-.756-.396-.371-.828-1.02-.828-1.99 0-.912.372-1.643.899-2.111.636-.563 1.367-.672 1.871-.672.54 0 .983.108 1.403.313v1.439"/>
 <path fill="#00598f" d="m523.04 206.78v3.946h-1.464v-3.946h-1.438v-1.247h4.341v1.247h-1.439"/>
 <path fill="#00598f" d="m464.19 218.53v5.193h-1.464v-3.945h-1.99v3.945h-1.464v-5.193h4.918"/>
 <path fill="#00598f" d="m467.05 226.47h-1.464v-7.939h1.464v.672c.228-.324.731-.84 1.69-.84.456 0 1.188.109 1.775.697.384.383.779 1.031.779 2.063 0 1.176-.516 1.811-.815 2.098-.396.373-.995.672-1.763.672-.36 0-1.092-.059-1.667-.84v3.417m.349-6.463c-.324.275-.492.635-.492 1.115 0 .479.192.875.479 1.127.192.168.504.348.96.348.479 0 .792-.191.983-.371.312-.289.456-.721.456-1.104 0-.385-.156-.816-.444-1.092-.264-.24-.647-.371-.995-.371-.384 0-.684.108-.947.348"/>
 <path fill="#00598f" d="m477.23 219.09c.516.467.876 1.188.876 2.039 0 .84-.36 1.559-.876 2.027-.443.406-1.115.73-2.099.73s-1.655-.324-2.099-.73c-.516-.469-.876-1.188-.876-2.027 0-.852.36-1.572.876-2.039.443-.408 1.115-.732 2.099-.732s1.656.324 2.099.732m-.635 2.039c0-.816-.623-1.475-1.463-1.475s-1.463.658-1.463 1.475c0 .791.611 1.463 1.463 1.463s1.463-.672 1.463-1.463"/>
 <path fill="#00598f" d="m480.7 218.53v3.203l2.398-3.203h1.463v5.193h-1.462v-3.201l-2.398 3.201h-1.464v-5.193h1.463"/>
 <path fill="#00598f" d="m485.81 219.01c.6-.48 1.247-.648 1.967-.648.443 0 .995.084 1.379.348.265.182.588.529.588 1.104 0 .66-.479.984-.72 1.115.252.061.504.193.684.35.229.203.396.516.396.959 0 .611-.324.994-.6 1.199-.444.336-1.151.455-1.703.455-.624 0-1.535-.143-2.231-.863l.72-.887c.42.395.996.551 1.392.551.743 0 .911-.348.911-.588 0-.156-.071-.324-.275-.432-.168-.084-.384-.096-.624-.096h-.611v-1.055h.588c.191 0 .432-.025.575-.121.156-.107.18-.252.18-.359 0-.275-.191-.527-.791-.527-.468 0-.84.145-1.151.408l-.674-.913"/>
 <path fill="#00598f" d="m493.53 218.53c.348 0 .827 0 1.235.313.3.229.504.588.504 1.02 0 .443-.252.863-.72 1.066.24.049.491.168.684.336.228.205.396.516.396.973 0 .611-.3.959-.552 1.15-.42.313-.936.336-1.163.336h-2.675v-5.193h2.291zm-.156 2.065c.024 0 .229 0 .384-.098.132-.084.192-.203.192-.359 0-.191-.084-.311-.168-.371-.12-.084-.288-.084-.432-.084h-.647v.912h.671m.013 1.978c.155 0 .384-.012.539-.133.097-.072.192-.215.192-.42 0-.191-.096-.311-.192-.371-.155-.107-.371-.119-.503-.119h-.72v1.043h.684"/>
 <path fill="#00598f" d="m501.52 219.09c.516.467.876 1.188.876 2.039 0 .84-.36 1.559-.876 2.027-.443.406-1.115.73-2.099.73s-1.655-.324-2.099-.73c-.516-.469-.876-1.188-.876-2.027 0-.852.36-1.572.876-2.039.443-.408 1.115-.732 2.099-.732s1.655.324 2.099.732m-.636 2.039c0-.816-.623-1.475-1.463-1.475s-1.463.658-1.463 1.475c0 .791.611 1.463 1.463 1.463s1.463-.672 1.463-1.463"/>
 <path fill="#00598f" d="m508.32 218.53v3.947h.768v2.758h-1.319v-1.512h-3.574v1.512h-1.319v-2.758c.456-.025.768-.348.924-.66.144-.313.204-.721.204-1.332v-1.955h4.316m-1.464 1.248h-1.535v1.15c0 .672-.144 1.176-.575 1.549h2.11v-2.699"/>
 <path fill="#00598f" d="m511.35 218.53v3.203l2.398-3.203h1.463v5.193h-1.463v-3.201l-2.398 3.201h-1.464v-5.193h1.464"/>
 <path fill="#00598f" d="m518.88 219.78v3.945h-1.464v-3.945h-1.438v-1.248h4.342v1.248h-1.44"/>
 <path fill="#00598f" d="m526.19 222.27c-.156.385-.744 1.619-2.555 1.619-.84 0-1.476-.24-1.991-.73-.575-.541-.815-1.213-.815-2.027 0-1.031.42-1.668.792-2.039.611-.6 1.331-.732 1.955-.732 1.055 0 1.667.42 2.026.852.552.66.624 1.477.624 2.039v.121h-3.886c0 .311.084.646.251.875.156.215.48.492 1.044.492.552 0 .972-.264 1.211-.684l1.344.214m-1.343-1.833c-.119-.709-.695-1.045-1.235-1.045-.539 0-1.103.35-1.223 1.045h2.458"/>
 <path fill="#00598f" d="m531.96 223.72h-1.463v-3.945h-1.415v1.906c0 .42-.061 1.068-.492 1.535-.107.121-.552.553-1.403.553-.144 0-.287-.012-.432-.049v-1.246c.072.012.156.023.229.023.323 0 .503-.133.6-.252.155-.191.18-.455.18-.66v-3.059h4.197v5.194z"/>
 <path fill="#00598f" d="m534.82 218.53v1.848h1.139c.456 0 1.032.133 1.392.527.228.24.396.6.396 1.115 0 .684-.3 1.104-.552 1.32-.384.336-.815.383-1.163.383h-2.675v-5.193h1.463m.684 4.04c.155 0 .384-.012.539-.133.097-.072.192-.215.192-.42 0-.191-.096-.311-.192-.371-.155-.107-.371-.119-.503-.119h-.72v1.043h.684"/>
 <path fill="#00598f" d="m538.76 218.53h1.464v1.836h2.038v-1.836h1.464v5.193h-1.464v-2.111h-2.038v2.111h-1.464v-5.193"/>
 <path fill="#00598f" d="m549.93 219.09c.516.467.876 1.188.876 2.039 0 .84-.36 1.559-.876 2.027-.443.406-1.115.73-2.099.73s-1.655-.324-2.099-.73c-.516-.469-.876-1.188-.876-2.027 0-.852.36-1.572.876-2.039.443-.408 1.115-.732 2.099-.732s1.655.324 2.099.732m-.636 2.039c0-.816-.623-1.475-1.463-1.475s-1.463.658-1.463 1.475c0 .791.611 1.463 1.463 1.463s1.463-.672 1.463-1.463"/>
 <path fill="#00598f" d="m555.84 220.11c-.312-.287-.695-.455-1.199-.455-.972 0-1.463.707-1.463 1.463 0 .852.635 1.475 1.511 1.475.324 0 .756-.096 1.151-.455v1.426c-.288.145-.743.324-1.344.324-.815 0-1.535-.311-2-.756-.396-.371-.828-1.02-.828-1.99 0-.912.372-1.643.899-2.111.636-.563 1.367-.672 1.871-.672.54 0 .983.109 1.403.313v1.438"/>
 <path fill="#00598f" d="m559.49 219.78v3.945h-1.464v-3.945h-1.438v-1.248h4.341v1.248h-1.439"/>
 <path fill="#00598f" d="m563.16 218.53v3.203l2.398-3.203h1.463v5.193h-1.463v-3.201l-2.398 3.201h-1.464v-5.193h1.464"/>
 <path fill="none" stroke="#5bc4f1" stroke-width="2" stroke-linecap="round" stroke-linejoin="round" stroke-dasharray="0 5.832" d="m503.57 155.3c-1.423-19.866-8.466-35.909-11.461-41.947"/>
 <path fill="#5bc4f1" d="m487.31 104.76l1.957 11.241c0 0 1.492-5.237 6.766-3.887l-8.723-7.354"/>
 <path fill="none" stroke="#5bc4f1" stroke-width="2" stroke-linecap="round" stroke-linejoin="round" stroke-dasharray="0 5.979" d="m390.36 313.14c58.58-14.746 86.9-54.59 93.48-65.1"/>
 <path fill="none" stroke="#5bc4f1" stroke-width="2" stroke-linecap="round" stroke-linejoin="round" stroke-dasharray="0 6.004" d="m303.24 361.31c148.81-17.777 178.9-102.05 183.45-118.85"/>
 <path fill="#5bc4f1" d="m488.63 232.73l-5.768 9.844c0 0 4.521-3.03 7.675 1.406l-1.907-11.25"/>
 <path fill="none" stroke="#005083" stroke-width=".624" stroke-miterlimit="10" d="m484.86 52.08c.827.316 1.318.707 1.313 1.123-.016.986-2.809 1.745-6.246 1.695-3.438-.051-6.217-.892-6.203-1.879.006-.367.396-.703 1.063-.977"/>
 <path fill="#005083" d="m486.48 53.13c0 .325.027 1.368.014 1.546-.078.989-3.153 1.95-6.542 1.95s-6.51-.998-6.51-1.95c0-.174-.025-1.119 0-1.481 0 0 1.413 1.82 6.51 1.82 5.096.0001 6.528-1.885 6.528-1.885"/>
 <path fill="none" stroke="#005083" stroke-width=".624" stroke-miterlimit="10" d="m484.83 55.27c.091.121.139.247.139.377 0 .986-2.782 1.786-6.22 1.786s-6.303-.803-6.23-1.786c.059-.776.955-.853 1.111-1.01"/>
 <path fill="#005083" d="m485.27 55.67c0 .325.027 1.368.014 1.546-.078.989-3.153 1.95-6.542 1.95s-6.51-.998-6.51-1.95c0-.174-.026-1.119 0-1.481 0 0 1.413 1.82 6.51 1.82 5.096 0 6.528-1.885 6.528-1.885"/>
 <path fill="none" stroke="#005083" stroke-width=".624" stroke-miterlimit="10" d="m484.98 57.21c1.248.156 1.237.88 1.237 1.01 0 .986-2.78 1.786-6.219 1.786-3.438 0-6.229-.8-6.229-1.786 0-.172.084-.337.24-.494"/>
 <path fill="#005083" d="m486.52 58.24c0 .325.027 1.368.014 1.546-.078.989-3.153 1.95-6.542 1.95s-6.51-.998-6.51-1.95c0-.174-.025-1.119 0-1.481 0 0 1.413 1.82 6.51 1.82 5.096 0 6.528-1.885 6.528-1.885"/>
 <path fill="none" stroke="#005083" stroke-width=".624" stroke-miterlimit="10" d="m484.83 60.38c.091.121.139.247.139.377 0 .986-2.782 1.786-6.22 1.786s-6.23-.8-6.23-1.786c0-.172.683-1.127 1.189-1.205"/>
 <path fill="#005083" d="m485.27 60.779c0 .325.027 1.368.014 1.546-.078.989-3.153 1.95-6.542 1.95s-6.51-.998-6.51-1.95c0-.174-.026-1.119 0-1.481 0 0 1.413 1.82 6.51 1.82 5.096 0 6.528-1.885 6.528-1.885"/>
 <path fill="none" stroke="#005083" stroke-width=".624" stroke-miterlimit="10" d="m484.78 62.28c.091.121.897.351.811.931-.148.976-2.782 1.787-6.221 1.787-3.438 0-6.229-.801-6.229-1.787 0-.171.084-.337.24-.494"/>
 <path fill="#005083" d="m485.9 63.23c0 .325.027 1.368.014 1.546-.078.989-3.153 1.95-6.542 1.95s-6.51-.998-6.51-1.95c0-.174-.025-1.119 0-1.481 0 0 1.413 1.82 6.51 1.82 5.096 0 6.528-1.885 6.528-1.885"/>
 <path fill="none" stroke="#005083" stroke-width=".624" stroke-miterlimit="10" d="m455.8 60.47c0 .986-2.782 1.786-6.22 1.786s-6.23-.8-6.23-1.786c0-.987 2.787-1.787 6.225-1.787 3.438 0 6.225.8 6.225 1.787z"/>
 <path fill="#005083" d="m456.11 60.49c0 .325.027 1.368.013 1.546-.077.989-3.152 1.95-6.542 1.95-3.388 0-6.509-.998-6.509-1.95 0-.174-.025-1.119 0-1.481 0 0 1.413 1.82 6.509 1.82 5.097-.0001 6.529-1.885 6.529-1.885"/>
 <path fill="none" stroke="#005083" stroke-width=".624" stroke-miterlimit="10" d="m455.7 62.62c.092.121.14.247.14.377 0 .986-2.782 1.786-6.22 1.786s-6.23-.8-6.23-1.786c0-.172.084-.337.241-.495"/>
 <path fill="#005083" d="m456.14 63.03c0 .325.027 1.368.013 1.546-.078.989-3.152 1.95-6.542 1.95-3.388 0-6.509-.998-6.509-1.95 0-.174-.026-1.119 0-1.481 0 0 1.413 1.82 6.509 1.82 5.096.0001 6.529-1.885 6.529-1.885"/>
 <path fill="none" stroke="#005083" stroke-width=".624" stroke-miterlimit="10" d="m471.2 55.49c-.015.986-2.807 1.745-6.246 1.695-3.436-.051-6.217-.892-6.202-1.878.015-.987 2.813-1.745 6.249-1.695 3.439.051 6.214.892 6.199 1.878z"/>
 <path fill="#005083" d="m471.51 55.42c0 .325.027 1.368.014 1.546-.078.989-3.153 1.95-6.542 1.95s-6.51-.998-6.51-1.95c0-.174-.025-1.119 0-1.481 0 0 1.413 1.82 6.51 1.82 5.095 0 6.528-1.885 6.528-1.885"/>
 <path fill="none" stroke="#005083" stroke-width=".624" stroke-miterlimit="10" d="m469.85 57.56c.091.121.139.247.139.377 0 .986-2.782 1.786-6.22 1.786s-6.303-.803-6.23-1.786c.059-.776.955-.853 1.111-1.01"/>
 <path fill="#005083" d="m470.3 57.958c0 .325.027 1.368.014 1.546-.078.989-3.153 1.95-6.542 1.95s-6.51-.998-6.51-1.95c0-.174-.026-1.119 0-1.481 0 0 1.413 1.82 6.51 1.82 5.095 0 6.528-1.885 6.528-1.885"/>
 <path fill="none" stroke="#005083" stroke-width=".624" stroke-miterlimit="10" d="m470 59.5c1.248.156 1.237.88 1.237 1.01 0 .986-2.78 1.786-6.22 1.786-3.437 0-6.229-.8-6.229-1.786 0-.172.084-.337.239-.495"/>
 <path fill="#005083" d="m471.55 60.53c0 .325.027 1.368.013 1.546-.077.989-3.152 1.95-6.541 1.95s-6.51-.998-6.51-1.95c0-.174-.025-1.119 0-1.481 0 0 1.413 1.82 6.51 1.82 5.095 0 6.528-1.885 6.528-1.885"/>
 <path fill="none" stroke="#005083" stroke-width=".624" stroke-miterlimit="10" d="m469.85 62.66c.091.121.139.247.139.377 0 .986-2.782 1.786-6.22 1.786s-6.23-.8-6.23-1.786c0-.172.683-1.127 1.189-1.205"/>
 <path fill="#005083" d="m470.3 63.07c0 .325.027 1.368.014 1.546-.078.989-3.153 1.95-6.542 1.95s-6.51-.998-6.51-1.95c0-.174-.026-1.119 0-1.481 0 0 1.413 1.82 6.51 1.82 5.095.0001 6.528-1.885 6.528-1.885"/>
 <path fill="none" stroke="#005083" stroke-width=".624" stroke-miterlimit="10" d="m484.93 45.712c-.015.986-2.807 1.745-6.245 1.695-3.437-.051-6.218-.892-6.202-1.878.014-.987 2.813-1.746 6.249-1.695 3.438.051 6.212.893 6.198 1.878z"/>
 <path fill="#005083" d="m485.24 45.646c0 .325.026 1.368.013 1.546-.078.989-3.153 1.95-6.542 1.95s-6.509-.998-6.509-1.95c0-.174-.027-1.119 0-1.481 0 0 1.413 1.82 6.509 1.82s6.529-1.885 6.529-1.885"/>
 <path fill="none" stroke="#005083" stroke-width=".624" stroke-miterlimit="10" d="m484.24 49.583c.827.316 1.318.707 1.313 1.123-.016.986-2.809 1.745-6.246 1.695-3.438-.051-6.217-.892-6.203-1.879.006-.367.397-.703 1.063-.977"/>
 <path fill="#005083" d="m485.86 50.639c0 .325.027 1.368.014 1.546-.078.989-3.153 1.95-6.542 1.95s-6.51-.998-6.51-1.95c0-.174-.025-1.119 0-1.481 0 0 1.413 1.82 6.51 1.82 5.096 0 6.528-1.885 6.528-1.885"/>
 <path fill="none" stroke="#005083" stroke-width=".624" stroke-miterlimit="10" d="m484.24 47.09c.827.316 1.317.707 1.312 1.123-.015.986-2.808 1.745-6.246 1.695-3.437-.051-6.217-.892-6.203-1.879.007-.367.397-.703 1.063-.977"/>
 <path fill="#005083" d="m485.86 48.14c0 .325.026 1.368.013 1.546-.078.989-3.153 1.95-6.542 1.95-3.388 0-6.509-.998-6.509-1.95 0-.174-.026-1.119 0-1.481 0 0 1.413 1.82 6.509 1.82s6.529-1.885 6.529-1.885"/>
 <path fill="none" stroke="#005083" stroke-width="1.541" stroke-linecap="round" stroke-linejoin="round" d="m444.72 52.681c20.2-5.659 28.1-14.13 28.1-14.13"/>
 <path fill="#005083" d="m477.08 33.979l-8.642 4.404c0 0 4.378.169 4.851 4.525l3.791-8.929"/>
 <path fill="none" stroke="#005083" stroke-width=".709" stroke-miterlimit="10" d="m482.37 191.67h57.62"/>
 <path fill="none" stroke="#005083" stroke-width="1.046" stroke-miterlimit="10" d="m483.77 182.93l12.38-5.05 13.25-1.57 8.2-6.1 10.28-1.92 10.64-6.97"/>
 <path fill="none" stroke="#005083" stroke-width=".349" stroke-miterlimit="10" d="m537.99 161.32v30.335m-10.11-23.362v23.19m-10.286-21.27v21.444m-8.195-15.342v15.342m-13.25-13.773v13.946m-12.378-8.89v9.07"/>
 <path fill="#005083" d="m485.08 183.02c0 .771-.625 1.396-1.396 1.396-.77 0-1.394-.625-1.394-1.396 0-.77.624-1.395 1.394-1.395.771 0 1.396.625 1.396 1.395"/>
 <path fill="#005083" d="m497.5 177.92c0 .77-.624 1.395-1.396 1.395-.77 0-1.394-.625-1.394-1.395 0-.771.624-1.396 1.394-1.396.772.0001 1.396.626 1.396 1.396"/>
 <path fill="#005083" d="m510.67 176.4c0 .77-.625 1.395-1.395 1.395-.771 0-1.395-.625-1.395-1.395s.624-1.395 1.395-1.395c.77 0 1.395.625 1.395 1.395"/>
 <path fill="#005083" d="m518.99 170.08c0 .77-.624 1.395-1.396 1.395-.77 0-1.394-.625-1.394-1.395s.624-1.395 1.394-1.395c.772 0 1.396.625 1.396 1.395"/>
 <path fill="#005083" d="m529.19 168.2c0 .77-.625 1.395-1.395 1.395-.771 0-1.395-.625-1.395-1.395s.624-1.395 1.395-1.395c.77 0 1.395.625 1.395 1.395"/>
 <path fill="#005083" d="m539.3 161.79c0 .77-.624 1.395-1.396 1.395-.77 0-1.394-.625-1.394-1.395s.624-1.395 1.394-1.395c.772 0 1.396.625 1.396 1.395"/>
 <path fill="none" stroke="#005083" stroke-width=".861" stroke-miterlimit="10" d="m234.78 55.39c-4.628 0-9.697-6.829-11.353-12.957-1.378-5.099-.454-9.87-.431-10.07.056-.501.401-.916.868-1.041.201-.055 4.605-1.33 11.02-1.33 6.417 0 11.167 1.276 11.366 1.33.259.071.486.233.645.458.135.192.386.548.202 3.76-.096 1.698-.499 4.245-1.162 6.923-1.887 7.618-7.214 12.927-11.154 12.927z"/>
 <path fill="none" stroke="#005083" stroke-width=".21" stroke-miterlimit="10" d="m234.78 54.17c-3.908 0-8.665-6.273-10.231-12.07-1.344-4.974-.395-9.597-.395-9.597s4.389-1.292 10.729-1.292c6.341 0 11.07 1.292 11.07 1.292s.004 4.621-1.135 9.597c-1.562 6.832-7.02 12.07-10.04 12.07z"/>
 <path fill="#005083" d="m236.25 46.07h-2.674l.497-2.352c-.323-.251-.531-.637-.531-1.076 0-.759.614-1.373 1.372-1.373.756 0 1.372.614 1.372 1.373 0 .439-.211.825-.532 1.076l.496 2.352m-6.178-6.728v5.089c0 0-.087 4.01 4.658 4.01 4.917 0 4.917-3.968 4.917-3.968v-5.132h-9.575"/>
 <path fill="#005083" d="m232.24 38.31v-.583c0-1.676 1.276-3.04 2.843-3.04 1.568 0 2.844 1.364 2.844 3.04v.583h1.38v-.583c0-2.437-1.895-4.42-4.224-4.42-2.328 0-4.224 1.983-4.224 4.42v.583h1.381"/>
</svg>
