<?xml version="1.0" encoding="utf-8"?>
<!-- Generator: Adobe Illustrator 24.0.2, SVG Export Plug-In . SVG Version: 6.00 Build 0)  -->
<svg version="1.1" id="Слой_1" xmlns="http://www.w3.org/2000/svg" xmlns:xlink="http://www.w3.org/1999/xlink" x="0px" y="0px"
	 viewBox="0 0 155.1 78.7" style="enable-background:new 0 0 155.1 78.7;" xml:space="preserve">
<style type="text/css">
	.st0{fill:url(#SVGID_1_);}
	.st1{fill:#FFFFFF;}
	.st2{fill:url(#SVGID_2_);}
	.st3{fill:#3963AD;}
	.st4{fill:url(#SVGID_13_);}
	.st5{fill:url(#SVGID_14_);}
	.st6{fill:url(#SVGID_15_);}
	.st7{fill:url(#SVGID_16_);}
	.st8{fill:url(#SVGID_17_);}
	.st9{fill:url(#SVGID_18_);}
	.st10{fill:url(#SVGID_19_);}
	.st11{fill:url(#SVGID_20_);}
	.st12{fill:url(#SVGID_21_);}
	.st13{fill:url(#SVGID_22_);}
	.st14{fill:url(#SVGID_23_);}
	.st15{fill:url(#SVGID_24_);}
	.st16{fill:url(#SVGID_25_);}
	.st17{fill:url(#SVGID_26_);}
	.st18{fill:url(#SVGID_27_);}
	.st19{fill:url(#SVGID_28_);}
	.st20{fill:url(#SVGID_29_);}
</style>
<linearGradient id="SVGID_1_" gradientUnits="userSpaceOnUse" x1="61.8965" y1="-8.8815" x2="116.6416" y2="45.8636">
	<stop  offset="0" style="stop-color:#1F3C79"/>
	<stop  offset="0.713" style="stop-color:#416DB4"/>
	<stop  offset="1" style="stop-color:#416DB4"/>
</linearGradient>
<polygon class="st0" points="131.9,30.3 53.6,13.5 52.7,0 117.8,21.9 "/>
<polygon class="st1" points="52.7,0 81.4,15.2 80.4,15.3 "/>
<linearGradient id="SVGID_2_" gradientUnits="userSpaceOnUse" x1="43.5304" y1="6.8735" x2="66.2737" y2="29.6168">
	<stop  offset="0" style="stop-color:#1F3C79"/>
	<stop  offset="0.713" style="stop-color:#416DB4"/>
	<stop  offset="1" style="stop-color:#416DB4"/>
</linearGradient>
<polygon class="st2" points="52.7,0 29.2,21 80.4,15.3 "/>
<polygon class="st3" points="79.6,21.8 79.6,62.5 82.3,62.8 82.3,25.8 95.3,28.7 95.3,63.8 97.5,63.8 97.5,29.2 108.4,31.7 
	108.4,66.1 110.6,66.1 110.6,32.2 120.5,34.4 120.5,67 122.7,67 122.7,34.9 130.9,36.8 130.9,67.7 133,67.9 133,35 "/>
<g>
	<defs>
		<polygon id="SVGID_3_" points="78.4,18.6 130.2,33.2 130.2,25.2 78.4,4.7 		"/>
	</defs>
	<clipPath id="SVGID_4_">
		<use xlink:href="#SVGID_3_"  style="overflow:visible;"/>
	</clipPath>
</g>
<g>
	<defs>
		<polygon id="SVGID_5_" points="78.4,18.6 130.2,33.2 130.2,25.2 78.4,4.7 		"/>
	</defs>
	<clipPath id="SVGID_6_">
		<use xlink:href="#SVGID_5_"  style="overflow:visible;"/>
	</clipPath>
</g>
<g>
	<defs>
		<polygon id="SVGID_7_" points="26.9,19.2 26.9,26.2 78.5,20.1 78.5,8.3 		"/>
	</defs>
	<clipPath id="SVGID_8_">
		<use xlink:href="#SVGID_7_"  style="overflow:visible;"/>
	</clipPath>
</g>
<g>
	<defs>
		<polygon id="SVGID_9_" points="26.9,19.2 26.9,26.2 78.5,20.1 78.5,8.3 		"/>
	</defs>
	<clipPath id="SVGID_10_">
		<use xlink:href="#SVGID_9_"  style="overflow:visible;"/>
	</clipPath>
</g>
<g>
	<defs>
		<polyline id="SVGID_11_" points="78.5,8.3 78.5,20.1 132.4,33.6 132.4,27.9 		"/>
	</defs>
	<clipPath id="SVGID_12_">
		<use xlink:href="#SVGID_11_"  style="overflow:visible;"/>
	</clipPath>
</g>
<polygon class="st1" points="78.7,11.6 78.7,12.6 23.5,22.1 "/>
<polygon class="st1" points="78.7,11.6 78.7,12.6 134.6,30.3 "/>
<g>
	<path class="st1" d="M51,7.3V12c0,1.6,0.7,2.2,1.7,2c1.1-0.2,1.7-1.1,1.7-2.6V6.7l1.5-0.3V11c0,2.5-1.3,3.8-3.2,4.2
		c-1.9,0.4-3.1-0.4-3.1-3V7.6L51,7.3z"/>
</g>
<linearGradient id="SVGID_13_" gradientUnits="userSpaceOnUse" x1="23.531" y1="19.8106" x2="78.7232" y2="19.8106">
	<stop  offset="0" style="stop-color:#1F3C79"/>
	<stop  offset="0.713" style="stop-color:#416DB4"/>
	<stop  offset="1" style="stop-color:#416DB4"/>
</linearGradient>
<polygon class="st4" points="23.5,27 78.7,19.8 78.7,12.6 23.5,22.1 "/>
<linearGradient id="SVGID_14_" gradientUnits="userSpaceOnUse" x1="-140.1317" y1="23.5338" x2="78.7232" y2="23.5338" gradientTransform="matrix(-0.2551 0 0 1 98.8093 0)">
	<stop  offset="0" style="stop-color:#1F3C79"/>
	<stop  offset="0.713" style="stop-color:#416DB4"/>
	<stop  offset="1" style="stop-color:#416DB4"/>
</linearGradient>
<polygon class="st5" points="134.6,34.4 78.7,19.8 78.7,12.6 134.6,30.3 "/>
<linearGradient id="SVGID_15_" gradientUnits="userSpaceOnUse" x1="26.1756" y1="28.6505" x2="37.1085" y2="28.6505">
	<stop  offset="0" style="stop-color:#1F3C79"/>
	<stop  offset="0.713" style="stop-color:#416DB4"/>
	<stop  offset="1" style="stop-color:#416DB4"/>
</linearGradient>
<path class="st6" d="M35.6,26.4C35.6,26.4,35.6,26.4,35.6,26.4L35.6,26.4l-7.7,0.9v0c-0.9,0.1-1.6,0.9-1.8,1.8
	c-0.1,1,0.5,1.8,1.5,1.8c1,0,1.8-0.8,2-1.8c0.1-0.5-0.1-1-0.3-1.3l4.8-0.6c-0.2,0.3-0.4,0.7-0.5,1c-0.1,1,0.5,1.8,1.5,1.8
	s1.8-0.8,2-1.8S36.6,26.4,35.6,26.4z"/>
<linearGradient id="SVGID_16_" gradientUnits="userSpaceOnUse" x1="28.6194" y1="46.4515" x2="35.965" y2="46.4515">
	<stop  offset="0" style="stop-color:#1F3C79"/>
	<stop  offset="0.713" style="stop-color:#416DB4"/>
	<stop  offset="1" style="stop-color:#416DB4"/>
</linearGradient>
<path class="st7" d="M35.1,31c-0.7,0-1.4-0.3-1.9-0.8c-0.4-0.5-0.6-1.1-0.6-1.8l-2,0.3c0,0.2,0,0.4,0,0.6c-0.2,1.2-1,2.1-2,2.5v32.8
	l7.3-0.7V30.9C35.7,31,35.4,31,35.1,31z"/>
<linearGradient id="SVGID_17_" gradientUnits="userSpaceOnUse" x1="40.1142" y1="27.0963" x2="51.1609" y2="27.0963">
	<stop  offset="0" style="stop-color:#1F3C79"/>
	<stop  offset="0.713" style="stop-color:#416DB4"/>
	<stop  offset="1" style="stop-color:#416DB4"/>
</linearGradient>
<path class="st8" d="M49.7,24.8C49.6,24.8,49.6,24.8,49.7,24.8L49.7,24.8l-7.7,0.9v0c-0.9,0.1-1.6,0.9-1.8,1.8
	c-0.1,1,0.5,1.8,1.5,1.8c1,0,1.8-0.8,2-1.8c0.1-0.5-0.1-1-0.4-1.3l4.9-0.6c-0.2,0.3-0.4,0.7-0.5,1c-0.1,1,0.5,1.8,1.5,1.8
	c1,0,1.8-0.8,2-1.8S50.6,24.8,49.7,24.8z"/>
<linearGradient id="SVGID_18_" gradientUnits="userSpaceOnUse" x1="42.5834" y1="45.0824" x2="50.0055" y2="45.0824">
	<stop  offset="0" style="stop-color:#1F3C79"/>
	<stop  offset="0.713" style="stop-color:#416DB4"/>
	<stop  offset="1" style="stop-color:#416DB4"/>
</linearGradient>
<path class="st9" d="M49.2,29.5c-0.7,0-1.4-0.3-1.9-0.8c-0.4-0.5-0.7-1.1-0.6-1.8l-2,0.3c0,0.2,0,0.4,0,0.6c-0.2,1.2-1,2.1-2,2.5
	v33.2l7.4-0.7V29.3C49.7,29.4,49.5,29.5,49.2,29.5z"/>
<linearGradient id="SVGID_19_" gradientUnits="userSpaceOnUse" x1="53.7931" y1="25.1627" x2="65.0624" y2="25.1627">
	<stop  offset="0" style="stop-color:#1F3C79"/>
	<stop  offset="0.713" style="stop-color:#416DB4"/>
	<stop  offset="1" style="stop-color:#416DB4"/>
</linearGradient>
<path class="st10" d="M63.5,22.9C63.5,22.9,63.5,22.9,63.5,22.9L63.5,22.9l-7.9,0.9v0c-0.9,0.1-1.7,0.9-1.8,1.8
	c-0.1,1,0.5,1.9,1.5,1.9c1,0,1.9-0.8,2-1.9c0.1-0.5-0.1-1-0.4-1.3l5-0.6c-0.2,0.3-0.4,0.7-0.5,1.1c-0.1,1,0.5,1.9,1.5,1.9
	c1,0,1.9-0.8,2-1.9C65.2,23.7,64.5,22.9,63.5,22.9z"/>
<linearGradient id="SVGID_20_" gradientUnits="userSpaceOnUse" x1="56.3121" y1="43.5112" x2="63.8837" y2="43.5112">
	<stop  offset="0" style="stop-color:#1F3C79"/>
	<stop  offset="0.713" style="stop-color:#416DB4"/>
	<stop  offset="1" style="stop-color:#416DB4"/>
</linearGradient>
<path class="st11" d="M63,27.6c-0.8,0-1.4-0.3-1.9-0.9c-0.4-0.5-0.7-1.2-0.6-1.9l-2,0.3c0,0.2,0,0.4,0,0.6c-0.2,1.2-1,2.2-2.1,2.6
	v33.8l7.6-0.7v-34C63.6,27.5,63.3,27.6,63,27.6z"/>
<linearGradient id="SVGID_21_" gradientUnits="userSpaceOnUse" x1="67.3706" y1="23.7252" x2="78.7232" y2="23.7252">
	<stop  offset="0" style="stop-color:#1F3C79"/>
	<stop  offset="0.713" style="stop-color:#416DB4"/>
	<stop  offset="1" style="stop-color:#416DB4"/>
</linearGradient>
<path class="st12" d="M77.2,21.4C77.2,21.4,77.1,21.4,77.2,21.4L77.2,21.4l-8,0.9v0c-0.9,0.1-1.7,0.9-1.8,1.8
	c-0.1,1,0.5,1.9,1.5,1.9c1,0,1.9-0.8,2-1.9c0.1-0.5-0.1-1-0.4-1.3l5-0.6c-0.2,0.3-0.4,0.7-0.5,1.1c-0.1,1,0.5,1.9,1.5,1.9
	c1,0,1.9-0.8,2-1.9C78.8,22.2,78.2,21.4,77.2,21.4z"/>
<linearGradient id="SVGID_22_" gradientUnits="userSpaceOnUse" x1="69.9083" y1="42.2094" x2="77.5358" y2="42.2094">
	<stop  offset="0" style="stop-color:#1F3C79"/>
	<stop  offset="0.713" style="stop-color:#416DB4"/>
	<stop  offset="1" style="stop-color:#416DB4"/>
</linearGradient>
<path class="st13" d="M76.7,26.2c-0.8,0-1.5-0.3-1.9-0.9c-0.4-0.5-0.7-1.2-0.6-1.9L72,23.7c0,0.2,0,0.4,0,0.6
	c-0.2,1.2-1,2.2-2.1,2.6V61l7.6-0.7V26C77.3,26.1,77,26.2,76.7,26.2z"/>
<rect x="78.4" y="12.3" class="st1" width="0.8" height="7.9"/>
<linearGradient id="SVGID_23_" gradientUnits="userSpaceOnUse" x1="15.7182" y1="73.5004" x2="83.1491" y2="73.5004">
	<stop  offset="0" style="stop-color:#1F3C79"/>
	<stop  offset="0.713" style="stop-color:#416DB4"/>
	<stop  offset="1" style="stop-color:#416DB4"/>
</linearGradient>
<polygon class="st14" points="15.7,77 83.1,77 83.1,70 15.7,72.5 "/>
<linearGradient id="SVGID_24_" gradientUnits="userSpaceOnUse" x1="19.2608" y1="68.2391" x2="82.8658" y2="68.2391">
	<stop  offset="0" style="stop-color:#1F3C79"/>
	<stop  offset="0.713" style="stop-color:#416DB4"/>
	<stop  offset="1" style="stop-color:#416DB4"/>
</linearGradient>
<polygon class="st15" points="19.3,71.4 82.9,69 82.9,65.1 19.3,69.2 "/>
<linearGradient id="SVGID_25_" gradientUnits="userSpaceOnUse" x1="22.8671" y1="64.5403" x2="82.7619" y2="64.5403">
	<stop  offset="0" style="stop-color:#1F3C79"/>
	<stop  offset="0.713" style="stop-color:#416DB4"/>
	<stop  offset="1" style="stop-color:#416DB4"/>
</linearGradient>
<polygon class="st16" points="22.9,68 82.8,64.1 82.8,61.1 22.9,66 "/>
<linearGradient id="SVGID_26_" gradientUnits="userSpaceOnUse" x1="83.8831" y1="73.5018" x2="139.1969" y2="73.5018">
	<stop  offset="0" style="stop-color:#1F3C79"/>
	<stop  offset="0.713" style="stop-color:#416DB4"/>
	<stop  offset="1" style="stop-color:#416DB4"/>
</linearGradient>
<polygon class="st17" points="139.2,77 83.9,77 83.9,70 139.2,73.4 "/>
<linearGradient id="SVGID_27_" gradientUnits="userSpaceOnUse" x1="83.8831" y1="68.6671" x2="137.0042" y2="68.6671">
	<stop  offset="0" style="stop-color:#1F3C79"/>
	<stop  offset="0.713" style="stop-color:#416DB4"/>
	<stop  offset="1" style="stop-color:#416DB4"/>
</linearGradient>
<polygon class="st18" points="137,72.2 83.9,69 83.9,65.1 137,70.6 "/>
<linearGradient id="SVGID_28_" gradientUnits="userSpaceOnUse" x1="83.8831" y1="65.2389" x2="134.7964" y2="65.2389">
	<stop  offset="0" style="stop-color:#1F3C79"/>
	<stop  offset="0.713" style="stop-color:#416DB4"/>
	<stop  offset="1" style="stop-color:#416DB4"/>
</linearGradient>
<polygon class="st19" points="134.8,69.4 83.9,64 83.9,61.1 134.8,67.6 "/>
<linearGradient id="SVGID_29_" gradientUnits="userSpaceOnUse" x1="1" y1="77.9618" x2="156.0649" y2="77.9618">
	<stop  offset="0" style="stop-color:#1F3C79"/>
	<stop  offset="0.713" style="stop-color:#416DB4"/>
	<stop  offset="1" style="stop-color:#416DB4"/>
</linearGradient>
<rect x="1" y="77.2" class="st20" width="155.1" height="1.6"/>
</svg>
