<?xml version="1.0" encoding="utf-8"?>
<!-- Generator: Adobe Illustrator 24.0.2, SVG Export Plug-In . SVG Version: 6.00 Build 0)  -->
<svg version="1.1" id="Слой_1" xmlns="http://www.w3.org/2000/svg" xmlns:xlink="http://www.w3.org/1999/xlink" x="0px" y="0px"
	 viewBox="0 0 153 91.7" style="enable-background:new 0 0 153 91.7;" xml:space="preserve">
<style type="text/css">
	.st0{fill:url(#SVGID_1_);}
	.st1{fill:url(#SVGID_2_);}
	.st2{fill:url(#SVGID_3_);}
	.st3{fill:url(#SVGID_4_);}
	.st4{fill:url(#SVGID_5_);}
	.st5{fill:url(#SVGID_6_);}
	.st6{fill:url(#SVGID_7_);}
	.st7{fill:url(#SVGID_8_);}
	.st8{fill:url(#SVGID_9_);}
	.st9{fill:url(#SVGID_10_);}
	.st10{fill:url(#SVGID_11_);}
	.st11{fill:url(#SVGID_12_);}
	.st12{fill:url(#SVGID_13_);}
	.st13{fill:url(#SVGID_14_);}
	.st14{fill:url(#SVGID_15_);}
	.st15{fill:url(#SVGID_16_);}
	.st16{fill:url(#SVGID_17_);}
	.st17{fill:url(#SVGID_18_);}
	.st18{fill:url(#SVGID_19_);}
	.st19{fill:url(#SVGID_20_);}
	.st20{fill:#FFFFFF;}
	.st21{fill:url(#SVGID_21_);}
</style>
<linearGradient id="SVGID_1_" gradientUnits="userSpaceOnUse" x1="4.2606" y1="78.161" x2="148.8989" y2="78.161">
	<stop  offset="0" style="stop-color:#12397F"/>
	<stop  offset="0.713" style="stop-color:#3A71CE"/>
	<stop  offset="1" style="stop-color:#3A71CE"/>
</linearGradient>
<rect x="4.3" y="77.3" class="st0" width="144.6" height="1.7"/>
<linearGradient id="SVGID_2_" gradientUnits="userSpaceOnUse" x1="66.8557" y1="55.7389" x2="120.1443" y2="55.7389">
	<stop  offset="0" style="stop-color:#12397F"/>
	<stop  offset="0.713" style="stop-color:#3A71CE"/>
	<stop  offset="1" style="stop-color:#3A71CE"/>
</linearGradient>
<path class="st1" d="M119.8,57.6c-0.4-3.2-1.1-5.9-1.8-8.2l-3.9-12.6c0-0.1,0-0.3-0.1-0.4l0-0.1h0c-0.2-0.6-0.8-1-1.4-1
	c0,0-6.3-0.9-9.1-1c-5-0.2-15-0.2-20,0c-2.8,0.1-9.1,1-9.1,1c-0.7,0-1.2,0.4-1.4,1h0l0,0.1c0,0.1-0.1,0.3-0.1,0.4l-3.9,12.6
	c-0.7,2.2-1.4,5-1.8,8.2c-0.4,3.1-0.4,5.8-0.2,8.1v9.9c0,0.9,0.8,1.7,1.7,1.7h4.9c0.9,0,1.7-0.8,1.7-1.7v-7.2h9.4h17.7h9.4v7.2
	c0,0.9,0.8,1.7,1.7,1.7h4.9c0.9,0,1.7-0.8,1.7-1.7v-9.9C120.2,63.4,120.2,60.7,119.8,57.6z M74.2,36.9c0,0,6.5-0.9,9.3-1
	c5-0.2,15-0.2,20,0c2.8,0.1,9.3,1,9.3,1l2.8,10.9c0,0-10-0.4-13.3-0.4c-4.4-0.1-13.3-0.1-17.7,0c-3.3,0.1-13.3,0.4-13.3,0.4
	L74.2,36.9z M95.7,55.5l-1,4.4h-2.4l-1-4.4H95.7z M68.4,60.3c0.1-1,0.2-2.2,0.4-3.4c0.1-0.5,0.2-1.1,0.3-1.5
	c0.2-0.7,0.8-1.2,1.5-1.2h4.6c3.4,0,7.1,2.7,7.1,6.1H68.4z M109.9,65.9H77.1c-0.8,0-1.5-0.7-1.5-1.5c0-0.8,0.7-1.5,1.5-1.5h32.8
	c0.8,0,1.5,0.7,1.5,1.5C111.4,65.2,110.7,65.9,109.9,65.9z M104.6,60.3c0-3.4,3.7-6.1,7.1-6.1h4.6c0.7,0,1.3,0.5,1.5,1.2
	c0.1,0.5,0.2,1,0.3,1.5c0.2,1.2,0.3,2.4,0.4,3.4H104.6z"/>
<linearGradient id="SVGID_3_" gradientUnits="userSpaceOnUse" x1="46.1984" y1="38.0455" x2="122.0439" y2="38.0455" gradientTransform="matrix(0.8076 -0.5898 0.5898 0.8076 -25.2309 47.6476)">
	<stop  offset="0" style="stop-color:#12397F"/>
	<stop  offset="0.713" style="stop-color:#3A71CE"/>
	<stop  offset="1" style="stop-color:#3A71CE"/>
</linearGradient>
<polygon class="st2" points="96.6,7.5 35.3,52.2 33.7,50 95,5.3 "/>
<linearGradient id="SVGID_4_" gradientUnits="userSpaceOnUse" x1="45.2284" y1="38.4117" x2="46.2233" y2="38.4117" gradientTransform="matrix(0.8076 -0.5898 0.5898 0.8076 -25.2309 47.6476)">
	<stop  offset="0" style="stop-color:#12397F"/>
	<stop  offset="0.713" style="stop-color:#3A71CE"/>
	<stop  offset="1" style="stop-color:#3A71CE"/>
</linearGradient>
<path class="st3" d="M33.7,50C33.7,50,33.7,50,33.7,50c-0.5,0.3-0.3,1.2,0.2,2c0.6,0.8,1.4,1.2,1.8,0.8c0,0,0,0,0,0L33.7,50z"/>
<linearGradient id="SVGID_5_" gradientUnits="userSpaceOnUse" x1="46.8248" y1="38.0971" x2="55.0052" y2="38.0971" gradientTransform="matrix(0.8076 -0.5898 0.5898 0.8076 -25.2309 47.6476)">
	<stop  offset="0" style="stop-color:#12397F"/>
	<stop  offset="0.713" style="stop-color:#3A71CE"/>
	<stop  offset="1" style="stop-color:#3A71CE"/>
</linearGradient>
<polygon class="st4" points="40.5,45.7 35.2,49.6 35.6,51.5 42.2,46.7 "/>
<g>
	
		<linearGradient id="SVGID_6_" gradientUnits="userSpaceOnUse" x1="49.4376" y1="38.0416" x2="50.1918" y2="38.0416" gradientTransform="matrix(0.8076 -0.5898 0.5898 0.8076 -25.2309 47.6476)">
		<stop  offset="0" style="stop-color:#12397F"/>
		<stop  offset="0.713" style="stop-color:#3A71CE"/>
		<stop  offset="1" style="stop-color:#3A71CE"/>
	</linearGradient>
	<polygon class="st5" points="37.5,49.7 36.8,48.7 37.4,48.3 37.5,48.5 37.2,48.7 37.3,48.9 37.6,48.7 37.8,48.9 37.5,49.1 
		37.6,49.3 37.9,49 38.1,49.3 	"/>
	
		<linearGradient id="SVGID_7_" gradientUnits="userSpaceOnUse" x1="48.3502" y1="38.0412" x2="49.3355" y2="38.0412" gradientTransform="matrix(0.8076 -0.5898 0.5898 0.8076 -25.2309 47.6476)">
		<stop  offset="0" style="stop-color:#12397F"/>
		<stop  offset="0.713" style="stop-color:#3A71CE"/>
		<stop  offset="1" style="stop-color:#3A71CE"/>
	</linearGradient>
	<path class="st6" d="M36.3,49L36.3,49l-0.4,0.3l0.7,1l0.3-0.2l-0.2-0.3l0.1-0.1l0,0c0.3-0.2,0.2-0.5,0.1-0.6
		C36.8,49,36.6,48.8,36.3,49z M36.6,49.5C36.6,49.5,36.6,49.5,36.6,49.5L36.6,49.5l-0.1,0.1l-0.2-0.2l0.1-0.1c0,0,0,0,0,0
		c0.1-0.1,0.2,0,0.2,0C36.6,49.3,36.7,49.4,36.6,49.5z"/>
	<g>
		
			<linearGradient id="SVGID_8_" gradientUnits="userSpaceOnUse" x1="51.4387" y1="38.0421" x2="52.4198" y2="38.0421" gradientTransform="matrix(0.8076 -0.5898 0.5898 0.8076 -25.2309 47.6476)">
			<stop  offset="0" style="stop-color:#12397F"/>
			<stop  offset="0.713" style="stop-color:#3A71CE"/>
			<stop  offset="1" style="stop-color:#3A71CE"/>
		</linearGradient>
		<path class="st7" d="M39.9,47.9c0,0.1-0.1,0.2-0.2,0.3c-0.3,0.2-0.7,0.2-0.9-0.2c-0.3-0.4-0.1-0.7,0.1-0.9C39,47,39.1,47,39.2,47
			l0.2,0.3c-0.1,0-0.2,0-0.3,0.1c-0.2,0.1-0.2,0.3,0,0.5c0.1,0.2,0.3,0.2,0.5,0.1c0.1-0.1,0.1-0.2,0.2-0.3L39.9,47.9z"/>
		
			<linearGradient id="SVGID_9_" gradientUnits="userSpaceOnUse" x1="52.5357" y1="38.2374" x2="53.5731" y2="38.2374" gradientTransform="matrix(0.8076 -0.5898 0.5898 0.8076 -25.2309 47.6476)">
			<stop  offset="0" style="stop-color:#12397F"/>
			<stop  offset="0.713" style="stop-color:#3A71CE"/>
			<stop  offset="1" style="stop-color:#3A71CE"/>
		</linearGradient>
		<path class="st8" d="M40.6,46.9c-0.2-0.2-0.4-0.3-0.7-0.1c-0.3,0.2-0.3,0.5-0.1,0.7c0.2,0.2,0.4,0.3,0.7,0.1
			C40.7,47.4,40.7,47.1,40.6,46.9 M40.3,47.1c0,0,0.1,0.2,0,0.3c-0.2,0.1-0.3-0.1-0.3-0.1c-0.1-0.1-0.1-0.2,0-0.3
			C40.1,47,40.2,47,40.3,47.1"/>
		
			<linearGradient id="SVGID_10_" gradientUnits="userSpaceOnUse" x1="50.3793" y1="38.0415" x2="51.4185" y2="38.0415" gradientTransform="matrix(0.8076 -0.5898 0.5898 0.8076 -25.2309 47.6476)">
			<stop  offset="0" style="stop-color:#12397F"/>
			<stop  offset="0.713" style="stop-color:#3A71CE"/>
			<stop  offset="1" style="stop-color:#3A71CE"/>
		</linearGradient>
		<path class="st9" d="M38.6,48.4c0.1-0.2,0.1-0.4,0-0.5c-0.1-0.1-0.3-0.3-0.6-0.1c0,0,0,0,0,0l-0.4,0.3l0.7,1l0.3-0.2l-0.2-0.3l0,0
			l0.2,0.1l0.2,0.1l0.3-0.2L38.6,48.4z M38.3,48.3C38.3,48.3,38.3,48.3,38.3,48.3L38.3,48.3l-0.1,0.1L38,48.2l0.1-0.1c0,0,0,0,0,0
			c0.1-0.1,0.2,0,0.2,0C38.3,48.2,38.3,48.2,38.3,48.3z"/>
	</g>
</g>
<linearGradient id="SVGID_11_" gradientUnits="userSpaceOnUse" x1="46.1984" y1="39.7922" x2="122.0439" y2="39.7922" gradientTransform="matrix(0.8076 -0.5898 0.5898 0.8076 -25.2309 47.6476)">
	<stop  offset="0" style="stop-color:#12397F"/>
	<stop  offset="0.713" style="stop-color:#3A71CE"/>
	<stop  offset="1" style="stop-color:#3A71CE"/>
</linearGradient>
<polygon class="st10" points="96.6,7.5 35.3,52.2 35.8,52.8 97,8.1 "/>
<linearGradient id="SVGID_12_" gradientUnits="userSpaceOnUse" x1="122.0273" y1="38.4117" x2="123.0222" y2="38.4117" gradientTransform="matrix(0.8076 -0.5898 0.5898 0.8076 -25.2309 47.6476)">
	<stop  offset="0" style="stop-color:#12397F"/>
	<stop  offset="0.713" style="stop-color:#3A71CE"/>
	<stop  offset="1" style="stop-color:#3A71CE"/>
</linearGradient>
<path class="st11" d="M97,8.1C97,8.1,97,8.1,97,8.1c0.5-0.3,0.3-1.2-0.2-2S95.4,5,95,5.3c0,0,0,0,0,0L97,8.1z"/>
<linearGradient id="SVGID_13_" gradientUnits="userSpaceOnUse" x1="64.2229" y1="38.0971" x2="72.4033" y2="38.0971" gradientTransform="matrix(0.8076 -0.5898 0.5898 0.8076 -25.2309 47.6476)">
	<stop  offset="0" style="stop-color:#12397F"/>
	<stop  offset="0.713" style="stop-color:#3A71CE"/>
	<stop  offset="1" style="stop-color:#3A71CE"/>
</linearGradient>
<polygon class="st12" points="55.6,36.9 50.3,40.8 48.6,39.8 55.2,35 "/>
<linearGradient id="SVGID_14_" gradientUnits="userSpaceOnUse" x1="79.9886" y1="38.0971" x2="88.169" y2="38.0971" gradientTransform="matrix(0.8076 -0.5898 0.5898 0.8076 -25.2309 47.6476)">
	<stop  offset="0" style="stop-color:#12397F"/>
	<stop  offset="0.713" style="stop-color:#3A71CE"/>
	<stop  offset="1" style="stop-color:#3A71CE"/>
</linearGradient>
<polygon class="st13" points="67.3,26.2 61.9,30.1 62.4,32 69,27.1 "/>
<linearGradient id="SVGID_15_" gradientUnits="userSpaceOnUse" x1="95.7082" y1="38.0971" x2="103.8886" y2="38.0971" gradientTransform="matrix(0.8076 -0.5898 0.5898 0.8076 -25.2309 47.6476)">
	<stop  offset="0" style="stop-color:#12397F"/>
	<stop  offset="0.713" style="stop-color:#3A71CE"/>
	<stop  offset="1" style="stop-color:#3A71CE"/>
</linearGradient>
<polygon class="st14" points="75.7,22.2 81,18.3 80.6,16.4 74,21.2 "/>
<linearGradient id="SVGID_16_" gradientUnits="userSpaceOnUse" x1="111.4278" y1="38.0971" x2="119.6082" y2="38.0971" gradientTransform="matrix(0.8076 -0.5898 0.5898 0.8076 -25.2309 47.6476)">
	<stop  offset="0" style="stop-color:#12397F"/>
	<stop  offset="0.713" style="stop-color:#3A71CE"/>
	<stop  offset="1" style="stop-color:#3A71CE"/>
</linearGradient>
<polygon class="st15" points="92.7,7.6 87.3,11.5 87.7,13.4 94.4,8.6 "/>
<g>
	<linearGradient id="SVGID_17_" gradientUnits="userSpaceOnUse" x1="33.7949" y1="61.6905" x2="44.4515" y2="61.6905">
		<stop  offset="0" style="stop-color:#12397F"/>
		<stop  offset="0.713" style="stop-color:#3A71CE"/>
		<stop  offset="1" style="stop-color:#3A71CE"/>
	</linearGradient>
	<polygon class="st16" points="35.4,46.5 35.4,46.5 33.8,46.5 33.8,76.9 35.4,76.9 35.4,76.9 41.8,76.9 44.5,76.9 44.5,46.5 
		41.8,46.5 	"/>
	<linearGradient id="SVGID_18_" gradientUnits="userSpaceOnUse" x1="33.7949" y1="44.5573" x2="44.4515" y2="44.5573">
		<stop  offset="0" style="stop-color:#12397F"/>
		<stop  offset="0.713" style="stop-color:#3A71CE"/>
		<stop  offset="1" style="stop-color:#3A71CE"/>
	</linearGradient>
	<polygon class="st17" points="41.8,43.4 35.4,44.1 35.4,44.1 35.4,44.1 35.4,44.1 33.8,44.2 33.8,45.9 33.9,45.9 35.4,45.9 
		35.4,45.9 41.8,45.9 44.5,45.9 44.5,43.2 	"/>
</g>
<linearGradient id="SVGID_19_" gradientUnits="userSpaceOnUse" x1="46.1984" y1="38.0455" x2="122.0439" y2="38.0455" gradientTransform="matrix(0.8076 -0.5898 0.5898 0.8076 -25.2309 47.6476)">
	<stop  offset="0" style="stop-color:#12397F"/>
	<stop  offset="0.713" style="stop-color:#3A71CE"/>
	<stop  offset="1" style="stop-color:#3A71CE"/>
</linearGradient>
<polygon class="st18" points="96.6,7.5 35.3,52.2 33.7,50 95,5.3 "/>
<linearGradient id="SVGID_20_" gradientUnits="userSpaceOnUse" x1="46.8248" y1="38.0971" x2="55.0052" y2="38.0971" gradientTransform="matrix(0.8076 -0.5898 0.5898 0.8076 -25.2309 47.6476)">
	<stop  offset="0" style="stop-color:#12397F"/>
	<stop  offset="0.713" style="stop-color:#3A71CE"/>
	<stop  offset="1" style="stop-color:#3A71CE"/>
</linearGradient>
<polygon class="st19" points="40.5,45.7 35.2,49.6 35.6,51.5 42.2,46.7 "/>
<g>
	<polygon class="st20" points="37.5,49.7 36.8,48.7 37.4,48.3 37.5,48.5 37.2,48.7 37.3,48.9 37.6,48.7 37.8,48.9 37.5,49.1 
		37.6,49.3 37.9,49 38.1,49.3 	"/>
	<path class="st20" d="M36.3,49L36.3,49l-0.4,0.3l0.7,1l0.3-0.2l-0.2-0.3l0.1-0.1l0,0c0.3-0.2,0.2-0.5,0.1-0.6
		C36.8,49,36.6,48.8,36.3,49z M36.6,49.5C36.6,49.5,36.6,49.5,36.6,49.5L36.6,49.5l-0.1,0.1l-0.2-0.2l0.1-0.1c0,0,0,0,0,0
		c0.1-0.1,0.2,0,0.2,0C36.6,49.3,36.7,49.4,36.6,49.5z"/>
	<g>
		<path class="st20" d="M39.9,47.9c0,0.1-0.1,0.2-0.2,0.3c-0.3,0.2-0.7,0.2-0.9-0.2c-0.3-0.4-0.1-0.7,0.1-0.9C39,47,39.1,47,39.2,47
			l0.2,0.3c-0.1,0-0.2,0-0.3,0.1c-0.2,0.1-0.2,0.3,0,0.5c0.1,0.2,0.3,0.2,0.5,0.1c0.1-0.1,0.1-0.2,0.2-0.3L39.9,47.9z"/>
		<path class="st20" d="M40.6,46.9c-0.2-0.2-0.4-0.3-0.7-0.1c-0.3,0.2-0.3,0.5-0.1,0.7c0.2,0.2,0.4,0.3,0.7,0.1
			C40.7,47.4,40.7,47.1,40.6,46.9 M40.3,47.1c0,0,0.1,0.2,0,0.3c-0.2,0.1-0.3-0.1-0.3-0.1c-0.1-0.1-0.1-0.2,0-0.3
			C40.1,47,40.2,47,40.3,47.1"/>
		<path class="st20" d="M38.6,48.4c0.1-0.2,0.1-0.4,0-0.5c-0.1-0.1-0.3-0.3-0.6-0.1c0,0,0,0,0,0l-0.4,0.3l0.7,1l0.3-0.2l-0.2-0.3
			l0,0l0.2,0.1l0.2,0.1l0.3-0.2L38.6,48.4z M38.3,48.3C38.3,48.3,38.3,48.3,38.3,48.3L38.3,48.3l-0.1,0.1L38,48.2l0.1-0.1
			c0,0,0,0,0,0c0.1-0.1,0.2,0,0.2,0C38.3,48.2,38.3,48.2,38.3,48.3z"/>
	</g>
</g>
<linearGradient id="SVGID_21_" gradientUnits="userSpaceOnUse" x1="45.2283" y1="38.4117" x2="123.0223" y2="38.4117" gradientTransform="matrix(0.8076 -0.5898 0.5898 0.8076 -25.2309 47.6476)">
	<stop  offset="0" style="stop-color:#12397F"/>
	<stop  offset="0.713" style="stop-color:#3A71CE"/>
	<stop  offset="1" style="stop-color:#3A71CE"/>
</linearGradient>
<path class="st21" d="M95,5.3C94.9,5.3,94.9,5.3,95,5.3l1.6,2.3L35.4,52.2L33.7,50c0,0,0,0,0,0c-0.4,0.3-0.3,1.2,0.3,2
	c0.6,0.8,1.4,1.2,1.8,0.8c0,0,0,0,0,0l0,0L97,8.1l0,0c0,0,0,0,0,0c0.4-0.3,0.3-1.2-0.3-2C96.2,5.3,95.4,5,95,5.3z"/>
<polygon class="st20" points="55.6,36.9 50.3,40.8 48.6,39.8 55.2,35 "/>
<polygon class="st20" points="67.3,26.2 61.9,30.1 62.4,32 69,27.1 "/>
<polygon class="st20" points="75.7,22.2 81,18.3 80.6,16.4 74,21.2 "/>
<polygon class="st20" points="92.7,7.6 87.3,11.5 87.7,13.4 94.4,8.6 "/>
</svg>
