<?xml version="1.0" encoding="utf-8"?>
<!-- Generator: Adobe Illustrator 23.0.3, SVG Export Plug-In . SVG Version: 6.00 Build 0)  -->
<svg version="1.1" id="Слой_1" xmlns="http://www.w3.org/2000/svg" xmlns:xlink="http://www.w3.org/1999/xlink" x="0px" y="0px"
	 viewBox="0 0 500 600" style="enable-background:new 0 0 500 600;" xml:space="preserve">
<style type="text/css">
	.st0{fill:none;stroke:#4E86B9;stroke-width:0.75;stroke-linecap:round;stroke-linejoin:round;stroke-miterlimit:10;}
	.st1{fill:none;stroke:#4E86B9;stroke-width:0.4;stroke-linecap:round;stroke-linejoin:round;stroke-miterlimit:10;}
	.st2{fill:#4E86B9;}
	.st3{fill:none;stroke:#4E86B9;stroke-width:0.4;}
</style>
<path class="st0" d="M201.8,81.1c-0.4,0.6-0.6,0.5-0.6,2.3v448.6c0,2.3,1.6,4.3,3.8,4.9l45,12.3c6.5,1.8,13.4,0.8,19.1-2.9
	l35.3-22.2c3-1.8,4.7-5.1,4.7-8.6V49.8c0-2.6-2.6-4.7-5.2-4.9"/>
<path class="st0" d="M247.1,88.3c14.4,1.6,19.4-2.3,27.7-9.9l25.7-24.9c6.1-6,4-11.4-4.5-12.1l-35.6-3c-8.7-0.8-15.1-0.5-21.4,5.5
	l-32.5,29c-6.6,6.1-7.3,11.4,4.2,12.6L247.1,88.3z"/>
<line class="st0" x1="243.4" y1="88" x2="243.4" y2="547.3"/>
<line class="st0" x1="217" y1="85.9" x2="217" y2="540.1"/>
<line class="st0" x1="225.3" y1="136.2" x2="224.3" y2="137.7"/>
<line class="st0" x1="225.9" y1="144.8" x2="227.5" y2="145.8"/>
<line class="st0" x1="230.1" y1="146.4" x2="230.5" y2="146.2"/>
<line class="st0" x1="227.8" y1="134.5" x2="227.4" y2="134.7"/>
<polyline class="st0" points="228.7,146.4 229.6,146.5 230.1,146.4 230.9,146 231.5,145.6 232.1,144.9 232.4,144.2 232.8,143.4 
	233,142.3 233.1,141.4 233,140.4 232.8,139.3 232.4,138.3 232.1,137.4 231.5,136.5 230.9,135.8 230.1,135.2 229.6,134.8 
	228.8,134.7 227.9,134.5 227.2,134.7 226.5,134.9 225.9,135.3 225.4,136 225.3,136.2 "/>
<polyline class="st0" points="227.5,145.8 227.9,146.1 228.7,146.4 "/>
<polygon class="st0" points="227,145.2 227.6,145.3 228.3,145.2 228.8,144.9 229.3,144.4 229.7,143.8 230,143 230.1,142.3 
	230.1,141.3 230.1,140.5 229.8,139.6 229.5,138.7 229.1,138 228.5,137.4 227.9,136.9 227.2,136.5 226.6,136.4 225.9,136.4 
	225.3,136.6 224.8,137 224.4,137.5 224.1,138.2 223.9,139.1 223.7,139.9 223.7,140.8 223.9,141.7 224.1,142.6 224.6,143.4 
	225.2,144 225.7,144.7 226.3,145.1 "/>
<line class="st0" x1="225.4" y1="141" x2="228.3" y2="141.7"/>
<line class="st0" x1="228.3" y1="141.7" x2="228.3" y2="140.6"/>
<line class="st0" x1="228.3" y1="140.6" x2="225.4" y2="140"/>
<line class="st0" x1="225.4" y1="140" x2="225.4" y2="141"/>
<polyline class="st0" points="230.5,146.2 230.6,146.2 231.3,145.8 231.9,145.5 232.4,144.9 232.8,144.2 233.1,143.4 233.4,142.3 
	233.4,141.3 233.4,140.3 233.1,139.3 232.8,138.2 232.4,137.4 231.9,136.5 231.3,135.8 230.6,135.2 229.8,134.7 229.1,134.5 
	228.3,134.4 227.8,134.5 "/>
<line class="st0" x1="226.2" y1="140.9" x2="225.4" y2="141"/>
<line class="st0" x1="226.2" y1="140.9" x2="228.3" y2="141.3"/>
<line class="st0" x1="226.2" y1="140.3" x2="226.2" y2="140.9"/>
<path class="st0" d="M244.4,85.6c14.4,1.6,18.1-0.1,26.4-7.7l25.7-24.9c6.1-6,9.2-10.8-1-11.6l-35.2-3c-8.7-0.8-15.1-0.5-21.4,5.5
	l-32.5,29c-6.6,6.1-6,9.2,5.5,10.4L244.4,85.6z"/>
<path class="st0" d="M256.9,75.4c9.2-5.3,10.5-11.7,2.7-14.4c-7.9-2.7-22.1-0.4-31.7,5.1c-9.5,5.6-10.4,12.1-2.2,14.6
	C233.9,83.2,247.6,80.8,256.9,75.4z"/>
<path class="st0" d="M233.4,68.9l7.5,0.5c2.1-0.6,4.7-1,6.4-0.9c1.7,0.1,2.2,0.6,1.4,1.4l7.5,0.5c0.9,0,0.9,0.5,0,0.9
	c-0.9,0.4-2.5,0.8-3.4,0.6l-7.5-0.5c-2.1,0.6-4.7,1-6.4,0.9c-1.7-0.1-2.2-0.6-1.4-1.4l-7.5-0.5c-0.9,0-0.9-0.5,0-0.9
	C230.8,69.2,232.3,68.9,233.4,68.9z"/>
<line class="st1" x1="300" y1="41.8" x2="333.9" y2="44.2"/>
<line class="st1" x1="307.4" y1="521.2" x2="340.9" y2="530.3"/>
<line class="st1" x1="326.4" y1="52.2" x2="326.4" y2="518.3"/>
<polygon class="st2" points="326.2,43.7 328.2,55.5 326.2,52.8 324.3,55.5 "/>
<polygon class="st2" points="326.4,526.6 328.5,514.8 326.4,517.5 324.4,514.8 "/>
<polygon class="st2" points="181.9,548.7 193.5,549.6 190.5,550.9 192.4,553.4 "/>
<polygon class="st2" points="241.8,564.7 230.2,563.9 233.2,562.7 231.1,560.3 "/>
<line class="st3" x1="234" y1="562.6" x2="187.6" y2="550.1"/>
<polygon class="st2" points="326.4,526.8 316,531.2 319.1,531.4 317.9,534.3 "/>
<polygon class="st2" points="278.3,557.5 288.8,553.5 285.7,553.1 286.9,550.3 "/>
<line class="st1" x1="283.6" y1="554.4" x2="320.1" y2="530.7"/>
<line class="st1" x1="252.2" y1="550.3" x2="285.7" y2="559.2"/>
<line class="st1" x1="231.7" y1="571.1" x2="268.2" y2="547.4"/>
<line class="st1" x1="165.8" y1="559.6" x2="202.3" y2="535.9"/>
<g>
	<path class="st2" d="M351.9,310.8l-5.5-4c0.2,0.5,0.2,1,0.2,1.5c0,3.3-2.5,5.6-5.7,5.6c-3.5,0-6-2.5-6-6c0-4.1,3.2-6,5.9-6
		c0.7,0,2.2,0.1,4,1.4l8.2,5.9L351.9,310.8z M340.9,312c2.3,0,4-1.7,4-4.1s-1.7-4-4-4c-2.3,0-4.1,1.6-4.1,4.1
		C336.7,310.4,338.5,312,340.9,312z"/>
	<path class="st2" d="M351.9,296l-5.5-4c0.2,0.5,0.2,1,0.2,1.5c0,3.3-2.5,5.6-5.7,5.6c-3.5,0-6-2.5-6-6c0-4.1,3.2-6,5.9-6
		c0.7,0,2.2,0.1,4,1.4l8.2,5.9L351.9,296z M340.9,297.3c2.3,0,4-1.7,4-4.1s-1.7-4-4-4c-2.3,0-4.1,1.6-4.1,4.1
		C336.7,295.6,338.5,297.3,340.9,297.3z"/>
	<path class="st2" d="M350.3,282.9c-1.7,1.1-3.9,1.7-6.4,1.7c-2.5,0-4.7-0.6-6.4-1.7c-1.9-1.3-2.6-3.1-2.6-4.4s0.7-3.1,2.6-4.4
		c1.7-1.1,3.9-1.7,6.4-1.7c2.5,0,4.7,0.6,6.4,1.7c1.9,1.3,2.6,3.1,2.6,4.4S352.2,281.6,350.3,282.9z M338.7,281.4
		c1.5,0.9,3.5,1.3,5.3,1.3s3.8-0.3,5.3-1.3c1.5-0.9,1.9-2.1,1.9-3s-0.5-2.1-1.9-3c-1.5-0.9-3.5-1.3-5.3-1.3s-3.8,0.3-5.3,1.3
		c-1.5,0.9-1.9,2.1-1.9,3S337.2,280.5,338.7,281.4z"/>
</g>
<g>
	<path class="st2" d="M189.4,558.5l-2.8-0.8l1.5-1.5l3.7,1l-4.6,16.7l-1.9-0.5L189.4,558.5z"/>
	<path class="st2" d="M205.8,563l-5.4-1.5l-2.1,3.3c0.3,0,0.7,0.1,1.1,0.2c3.4,0.9,4.8,4,3.9,7.3c-1,3.7-4.5,5.3-7.7,4.4
		c-1.4-0.4-2.5-1.1-3.4-2.3c-0.4-0.6-0.8-1.3-1-2.1l1.8-0.6c0.1,0.6,0.4,1.1,0.8,1.7c0.5,0.8,1.3,1.4,2.4,1.7
		c2.4,0.6,4.6-0.8,5.3-3.2c0.7-2.4-0.6-4.6-3-5.2c-0.6-0.2-1.8-0.4-3.6,0.3l4.6-7.4l6.6,1.8L205.8,563z"/>
	<path class="st2" d="M218,566.3l-9.2-2.5l0.5-1.7l12.3,3.4l-15.9,14.1l-1.2-1.4L218,566.3z"/>
</g>
<g>
	<path class="st2" d="M298.6,553.9l-2.4,1.6l-0.1-2.1l3.2-2.1l9.5,14.5l-1.6,1.1L298.6,553.9z"/>
	<path class="st2" d="M314.7,561.2l0.3-6.8c-0.3,0.4-0.7,0.7-1.2,1c-2.8,1.8-6.1,1-7.8-1.7c-1.9-2.9-1.2-6.3,1.7-8.2
		c3.4-2.2,6.8-0.6,8.3,1.7c0.4,0.5,1.1,1.9,1,4.1l-0.5,10.1L314.7,561.2z M307.6,552.6c1.3,1.9,3.6,2.4,5.6,1.1s2.4-3.7,1.2-5.6
		c-1.3-1.9-3.6-2.6-5.7-1.2C306.7,548.2,306.3,550.6,307.6,552.6z"/>
	<path class="st2" d="M324.8,552.6c-1.9-0.8-3.6-2.3-4.9-4.4s-2.1-4.3-2-6.3c0.1-2.3,1.1-3.9,2.3-4.6c1.2-0.8,3-1.1,5.1-0.3
		c1.9,0.8,3.6,2.3,4.9,4.4s2.1,4.3,2,6.3c-0.1,2.3-1.1,3.9-2.3,4.6C328.8,553.1,327,553.5,324.8,552.6z M319.7,542.1
		c0,1.8,0.8,3.6,1.8,5.1c1,1.5,2.4,3,4,3.7c1.6,0.7,2.8,0.5,3.6,0c0.7-0.5,1.5-1.5,1.4-3.2c0-1.8-0.8-3.6-1.8-5.1
		c-1-1.5-2.4-3-4-3.7c-1.6-0.7-2.8-0.5-3.6,0C320.4,539.3,319.6,540.3,319.7,542.1z"/>
</g>
</svg>
