<svg version="1.1" xmlns="http://www.w3.org/2000/svg" width="400.546" height="550" viewBox="0 0 400.546 550" enable-background="new 0 0 400.546 550">
 <path fill="none" stroke="#4c86b8" stroke-width="0.4" stroke-linecap="round" stroke-linejoin="round" stroke-miterlimit="10" d="
	M228.903,452.693l20.304,4.51 M228.903,452.693l26.054,5.74 M224.303,66.809l24.904,8.036 M228.903,452.693l26.054,5.74
	 M244.934,78.766v371.906"/>
 <path fill="none" stroke="#4c86b8" stroke-width="0.75" stroke-linecap="round" stroke-linejoin="round" stroke-miterlimit="10" d="
	M148.194,100.497l-0.166,346.867 M171.864,105.909l-0.088,348.421 M211.641,68.45l-5.338-1.148 M170.876,101.646l-0.247,0.327
	l-0.657,0.74 M171.044,101.566L171.044,101.566l-0.084,0.081h-0.084 M186.249,92.467l-15.205,9.099 M186.329,92.382L186.329,92.382
	l-0.08,0.085 M177.294,97.794l-14.308-3.116 M144.824,92.467l-0.166,0.33l-0.166,0.655v0.655v0.161 M144.492,94.268l0.332,2.79
	 M144.985,91.976l-0.161,0.491 M153.944,81.974l-0.818,0.74l-1.401,1.308l-1.396,1.318l-1.229,1.308l-1.155,1.309l-1.066,1.231
	l-0.906,1.31l-0.737,1.146l-0.166,0.247 M145.068,91.889L145.068,91.889v0.087h-0.083 M231.128,71.158l-0.171-0.493l-0.325-0.491
	l-0.41-0.493l-0.578-0.491l-0.657-0.41l-0.739-0.33l-0.901-0.325 M232.029,73.945l-0.825-2.787 M203.182,62.221l-23.921,16.312
	 M211.807,68.535l-5.587,3.845 M206.395,72.23l-5.518-1.259 M225.207,67.226V67.14l-0.083-0.085v-0.076l-0.083-0.085l-0.083-0.085
	h-0.079l-0.082-0.076h-0.088 M224.709,66.732l-1.967-0.576l-2.634-0.74l-2.957-0.738l-3.044-0.735l-3.204-0.655l-3.287-0.574
	l-3.284-0.576l-0.576-0.081 M225.612,68.125l-0.405-0.899 M225.612,68.201v-0.077 M227.346,68.125l-1.48-0.493l-0.495-0.083
	 M156.413,80.257l-0.494,0.325l-0.82,0.576l-0.737,0.569l-0.417,0.247 M164.056,75.661l-7.643,4.596 M190.764,64.269l-1.72,0.654
	l-3.125,1.155l-3.121,1.224l-3.042,1.233l-3.042,1.307l-3.043,1.231l-2.959,1.309l-2.709,1.233l-0.742,0.406 M167.261,74.021
	l-0.573,0.247l-1.069,0.493l-0.988,0.576l-0.574,0.323 M202.356,62.797l-1.152-0.083h-1.23l-1.316,0.083l-1.313,0.164l-1.315,0.16
	l-1.314,0.168l-1.313,0.325l-1.239,0.247l-0.404,0.164 M203.756,62.058h-0.087h-0.077h-0.083h-0.087l-0.079,0.081h-0.082
	l-0.079,0.083 M191.757,64.024l-0.993,0.245 M158.798,116.402l-0.74,1.146 M159.372,123.036l1.148,0.74 M162.495,124.187l0.33-0.083
	 M160.686,115.086l-0.246,0.085 M153.126,102.059l-0.083,348.095 M228.903,445.15l0.164-363.916 M220.521,458.512l0.08-368.338
	 M148.115,447.779v7.045 M228.903,452.693v-7.211 M153.043,450.154h-0.166h-0.247h-0.246l-0.161-0.08h-0.164 M152.059,450.074
	l-0.988-0.332l-0.821-0.326l-0.658-0.328l-0.574-0.326l-0.496-0.41l-0.246-0.328l-0.159-0.41l-0.087-0.25 M172.196,454.584
	l1.395,0.162l1.479,0.244l1.481,0.078l1.642,0.17l1.563,0.078l1.644,0.078h1.643h1.646h1.641l1.641-0.078l1.646-0.078l1.561-0.082
	 M191.177,455.156l17.265-1.48 M172.196,454.584l-0.168-0.084h-0.164l-0.088-0.082v-0.088 M209.184,453.432L209.184,453.432
	l-0.087,0.078l-0.162,0.088h-0.249l-0.244,0.078 M193.972,80.418l5.094-3.524 M188.8,79.272l5.172,1.146 M193.894,75.748
	l-5.094,3.524 M199.065,76.894l-5.172-1.146 M194.958,75.008l5.182,1.146 M200.14,76.154l5.172-3.442 M205.312,72.712
	L205.312,72.712h0.088h0.082h0.079 M200.054,71.566l-5.096,3.441 M205.312,72.712l-5.258-1.146 M211.483,68.45h0.076h0.081h0.087
	v0.085h0.079 M206.285,67.315l-5.378,3.673 M211.483,68.45l-5.181-1.148 M184.604,104.353l3.287-0.899l3.206-0.986l3.206-0.987
	l3.119-0.984l3.123-1.148l3.046-1.063l2.958-1.146l2.957-1.148 M184.769,100.335l3.533-0.657l3.614-0.823l3.452-0.816l3.453-0.899
	l3.45-0.986l3.289-0.982l3.286-1.15 M219.698,87.956l0.823-0.569l0.822-0.655l0.654-0.576 M211.975,92.55l7.724-4.594
	 M208.847,94.021l1.152-0.406l0.987-0.493l0.988-0.572 M230.056,73.044l-45.287,27.291 M221.998,86.156l1.559-1.803l1.401-1.886
	l1.318-1.803l1.152-1.883l0.981-1.888l0.904-1.969l0.741-1.881 M171.615,105.416l1.313,0.164l1.32,0.083h1.397l1.478-0.083
	l1.479-0.081l1.479-0.162l1.563-0.33l1.476-0.247l1.483-0.408 M171.615,101.566l1.154,0.161l1.233,0.083h1.313l1.313-0.083
	l1.397-0.081l1.396-0.166l1.479-0.247l1.401-0.325l1.397-0.327 M230.139,72.551l0.162-0.576l0.085-0.655l-0.085-0.493l-0.162-0.57
	l-0.41-0.493l-0.498-0.493l-0.654-0.406l-0.742-0.415l-0.82-0.249 M229.973,72.958L229.973,72.958v-0.083v-0.079h0.083v-0.085
	l0.083-0.081v-0.081 M184.604,100.335l45.368-27.376 M183.702,100.582l0.078-0.085h0.168h0.078l0.168-0.081h0.079l0.083-0.081h0.166
	h0.082 M171.292,101.566h0.076h0.086h0.078h0.083 M186.495,92.382l-15.203,9.184 M186.661,91.815l0.161,0.074v0.17l-0.081,0.159
	l-0.246,0.164 M165.208,87.055l21.453,4.76 M163.892,87.387l0.33-0.164l0.329-0.168h0.325h0.332 M148.687,96.483l15.205-9.096
	 M148.521,96.4v0.083h0.088h0.078 M145.397,92.059l-0.246,0.57l-0.083,0.655l0.083,0.578l0.246,0.491l0.413,0.493l0.493,0.489
	l0.574,0.413l0.74,0.406l0.902,0.247 M145.563,91.642L145.563,91.642l-0.082,0.09v0.083v0.074l-0.084,0.087v0.083 M190.851,64.269
	l-45.287,27.374 M191.84,64.024l-0.171,0.083h-0.076h-0.082l-0.166,0.083h-0.088l-0.159,0.079h-0.083h-0.164 M212.636,76.564
	l-1.237,0.738l-1.235,0.738l-1.15,0.742l-1.229,0.653l-1.152,0.655l-1.071,0.654l-1.065,0.576l-0.986,0.572l-0.908,0.491
	l-0.815,0.496l-0.827,0.406l-0.657,0.415l-0.576,0.323l-0.576,0.247l-0.405,0.162l-0.332,0.17l-0.164,0.077h-0.164 M225.7,68.779
	l-13.064,7.785 M225.783,68.125l0.165,0.077l0.081,0.17v0.164l-0.246,0.159l-0.083,0.085 M184.769,100.335h-0.08h-0.084
	 M230.056,73.044L230.056,73.044h-0.083v-0.085 M148.44,100.254l2.63,0.821l2.71,0.735l2.799,0.735l2.876,0.662l2.957,0.652
	l3.04,0.57l3.043,0.493l3.12,0.493 M150.494,98.532l2.222,0.57l2.3,0.661l2.301,0.572l2.388,0.574l2.379,0.491l2.468,0.491
	l2.552,0.412l2.544,0.489 M157.896,94.021l-7.402,4.511 M165.701,98.286l1.23,0.33 M166.932,98.615v-2.132 M166.932,96.483
	l-5.098,0.98 M161.834,97.463l1.237,0.247 M163.071,97.709l-1.314,0.823 M161.757,98.532l2.626,0.57 M164.383,99.102l1.318-0.816
	 M209.507,95.992l0.492-0.244l0.411-0.168l0.412-0.164l0.491-0.244l0.414-0.247l0.326-0.164l0.408-0.245l0.418-0.164 M212.88,94.353
	l7.642-4.673 M158.962,93.942h-0.41h-0.332l-0.323,0.079 M162.825,94.6l-3.863-0.657 M162.986,94.678l-0.161-0.079 M164.964,87.301
	l21.448,4.758 M164.304,93.696h0.247 M164.964,87.301l-0.66,6.395 M163.071,97.794l-1.237,0.738 M166.932,96.566l-4.849,0.897
	 M166.688,98.449v-1.722 M162.495,97.548l0.906,0.162 M162.17,98.532l2.213,0.493 M164.383,99.025l1.318-0.823 M165.701,98.203
	l0.986,0.247 M165.701,98.122l0.986,0.247 M164.383,98.942l1.318-0.82 M162.17,98.449l2.213,0.493 M163.479,97.633l-1.31,0.816
	 M162.495,97.463l0.984,0.17 M166.688,96.646l-4.192,0.816 M166.688,98.369v-1.722 M164.383,99.025v-0.083 M162.17,98.532v-0.083
	 M165.701,98.203v-0.081 M220.521,89.68l0.324-0.247l0.337-0.161l0.41-0.247l0.246-0.247l0.321-0.247l0.334-0.244l0.248-0.166
	l0.247-0.245 M166.688,96.728v-0.081 M166.688,98.449v-0.081 M186.412,92.059L186.412,92.059v-0.083h0.083v-0.087h0.078l0.088-0.074
	 M165.208,87.055h-0.083v0.083h-0.081v0.085h-0.08v0.078 M222.989,87.877l1.476-1.563l1.4-1.469l1.314-1.479l1.15-1.476l1.066-1.556
	l0.904-1.48l0.827-1.466l0.735-1.482 M164.383,94.434v-0.081v-0.085v-0.081v-0.081v-0.164l0.085-0.081v-0.087l0.083-0.079
	 M163.071,97.794v-0.085 M162.495,97.548v-0.085 M163.646,93.862l0.658-6.231 M163.401,93.942l0.244-0.081 M163.071,94.187
	l0.33-0.245 M162.907,94.353v-0.085l0.164-0.081 M158.798,93.615l4.109,0.738 M157.563,93.774l0.334-0.159h0.411h0.49
	 M150.167,98.203l7.396-4.428 M149.1,96.728l1.067,1.475 M164.304,87.631L149.1,96.728 M150.167,98.203l0.161,0.166l0.166,0.164
	 M157.896,94.021L157.896,94.021h-0.087l-0.083-0.079h-0.079v-0.081h-0.085v-0.087 M148.687,96.483h0.079l0.087,0.083h0.078
	l0.086,0.081l0.083,0.081 M163.892,87.387L163.892,87.387h0.081l0.083,0.081h0.078v0.081h0.088l0.082,0.083 M144.743,97.057h0.081
	 M224.299,66.809h0.166l0.083,0.085l0.085,0.085l0.164,0.076l0.082,0.085l0.079,0.162v0.083l0.083,0.164 M198.083,84.676
	l26.216-17.868 M224.299,66.809l-2.706-0.816l-3.54-0.986l-3.697-0.816l-3.775-0.823l-3.867-0.738l-3.204-0.491 M177.294,80.012
	l20.789,4.664 M203.509,62.138l-26.215,17.874 M177.294,80.012L177.294,80.012h-0.088 M158.962,93.942h-0.086v-0.081l-0.078-0.087
	v-0.079v-0.081 M162.825,94.6h-0.084h-0.082v-0.083v-0.083h0.082l0.166-0.081 M164.304,87.631l0.164-0.244l0.162-0.085l0.163-0.078
	l0.171,0.078 M163.646,93.862l0.166-0.087l0.161-0.079h0.083h0.078h0.088h0.082 M163.071,94.187h0.083l0.076,0.081v0.085
	l0.087,0.081v0.083V94.6l0.084,0.079v0.083 M163.401,93.942l0.078,0.079v0.085l0.087,0.081l0.079,0.081v0.085l0.082,0.081v0.083
	 M163.728,94.517l-0.326,0.245 M164.304,94.434L164.304,94.434l-0.082,0.083h-0.166h-0.083h-0.081 M163.646,93.862l0.082,0.081
	v0.079l0.084,0.085v0.081v0.081v0.085l0.08,0.081v0.083 M164.304,94.434v-0.081v-0.085v-0.081v-0.081v-0.164v-0.081v-0.087v-0.079
	 M163.892,94.517h-0.164 M164.383,94.434h-0.079 M154.274,81.891l-1.645,1.476l-1.56,1.395l-1.399,1.478l-1.23,1.392l-1.15,1.31
	l-0.986,1.31l-0.822,1.316 M145.563,91.642L145.563,91.642v-0.076h-0.082 M145.481,91.566l45.282-27.297 M190.851,64.269
	L190.851,64.269h-0.087 M156.579,80.257l-0.908,0.574l-0.742,0.489l-0.654,0.572 M164.222,75.661l-7.643,4.596 M167.349,73.945
	l-1.071,0.569l-1.069,0.576l-0.986,0.57 M190.764,64.269l-3.448,1.316l-3.452,1.309l-3.453,1.393l-3.286,1.395l-3.367,1.393
	l-3.202,1.478l-3.206,1.395 M225.37,68.371l-0.163-0.493l-0.166-0.33 M225.37,68.371v0.079l0.081,0.085v0.083h0.085v0.077h0.076
	l0.088,0.085 M179.261,78.533l-0.496,0.323l-0.488,0.332l-0.413,0.332l-0.246,0.159 M161.428,124.187l0.655,0.083l0.488-0.083
	l0.583-0.245l0.491-0.332l0.41-0.489l0.327-0.574l0.247-0.655l0.084-0.74l0.079-0.738l-0.079-0.82l-0.084-0.74l-0.247-0.814
	l-0.327-0.74l-0.41-0.655l-0.491-0.493l-0.583-0.491l-0.488-0.33l-0.572-0.162l-0.656-0.085l-0.496,0.085l-0.58,0.247l-0.489,0.33
	l-0.327,0.489l-0.164,0.166 M160.521,123.776l0.334,0.247l0.573,0.164 M160.112,123.366l0.495,0.081l0.493-0.162l0.41-0.164
	l0.406-0.411l0.334-0.491l0.161-0.576l0.159-0.572v-0.738l-0.076-0.657l-0.168-0.655l-0.244-0.655l-0.326-0.572l-0.412-0.496
	l-0.49-0.41l-0.496-0.245l-0.493-0.083h-0.493l-0.496,0.164l-0.412,0.33l-0.325,0.406l-0.242,0.493l-0.17,0.655l-0.079,0.657v0.659
	l0.079,0.733l0.249,0.659l0.332,0.574l0.405,0.572l0.41,0.413l0.493,0.328L160.112,123.366z M158.962,120.088l2.213,0.493
	 M161.175,120.581v-0.738 M161.175,119.843l-2.213-0.495 M158.962,119.348v0.74 M162.825,124.104h0.082l0.494-0.247l0.49-0.327
	l0.412-0.408l0.326-0.574l0.246-0.655l0.168-0.74v-0.818v-0.821l-0.168-0.737l-0.246-0.821l-0.326-0.655l-0.412-0.655l-0.49-0.576
	l-0.494-0.491l-0.58-0.325l-0.57-0.168l-0.582-0.079l-0.489,0.079 M159.533,120.007l-0.571,0.081 M159.533,120.007l1.642,0.327
	 M159.533,119.514v0.494 M171.292,454.09h-0.082h-0.166h-0.245h-0.17h-0.161h-0.249h-0.161h-0.086 M169.972,454.09l-16.684-3.775
	 M171.776,453.924l-0.484,0.166 M153.288,450.314h-0.079h-0.083l-0.083-0.078v-0.082 M221.676,450.646h-0.171l-0.161,0.078h-0.249
	l-0.249,0.084h-0.324 M221.676,450.646l6.075-3.934 M227.751,446.713l0.579-0.414l0.329-0.406l0.166-0.41l0.078-0.332
	 M210.497,460.891l9.781-2.291 M209.428,460.891h0.079h0.161l0.17,0.078h0.079h0.168l0.159-0.078h0.166h0.087 M209.343,460.891
	h0.085 M220.278,458.6h0.077h0.085l0.081-0.088 M170.138,461.629l1.316,0.244l1.398,0.248l1.476,0.244l1.564,0.162l1.642,0.17
	l1.643,0.074l1.727,0.084l1.725,0.086h1.729h1.722l1.73-0.086l1.733-0.084l1.635-0.074 M170.138,461.629v-7.539 M170.138,454.09
	l1.316,0.24l0.322,0.088 M171.454,454.004l0.322,0.086 M209.343,453.598l-0.159-0.166 M208.686,453.598h0.657 M209.343,461.135
	v-7.537 M191.177,462.697l18.166-1.563 M154.112,458.105l16.025,3.523 M154.112,458.105v-7.541 M154.112,450.564l16.025,3.525
	 M152.63,450.154l0.247,0.082l1.235,0.328 M148.115,454.824v0.082l0.079,0.332l0.246,0.41l0.412,0.406l0.489,0.414l0.737,0.318
	l0.83,0.336l0.902,0.324l1.065,0.326l1.235,0.332 M220.846,450.809h0.413 M221.259,450.809l0.246-0.162 M220.521,458.268
	l0.737,0.078 M221.259,458.346l6.492-4.176 M227.751,454.17l0.496-0.328l0.329-0.41l0.249-0.406l0.078-0.332 M191.177,455.156
	l0.168-352.196 M191.177,455.156l0.168-352.196 M202.195,62.874l-0.657-0.076h-1.32l-1.396,0.076l-1.314,0.087l-1.479,0.247
	l-1.401,0.16l-1.391,0.333l-1.396,0.323 M227.014,68.201l-1.563-0.489 M177.206,80.012L177.206,80.012l0.088-0.17l0.157-0.164
	l0.331-0.159l0.411-0.332l0.497-0.332l0.486-0.406l0.74-0.41l0.74-0.494l0.818-0.569l0.666-0.413 M225.612,68.042l0.171,0.083
	 M171.044,101.566h0.078l0.088-0.085h0.082v0.085 M186.249,92.467v-0.085h0.08h0.083h0.083 M169.646,102.792l0.166-0.079h0.083
	 M169.646,102.792l0.572-0.408 M157.896,94.021l18.733,4.182 M220.521,89.68v0.162v0.164v0.083l-0.081,0.085v0.077l-0.085,0.085
	 M158.962,93.942l18.083,4.014 M177.294,97.794l-14.308-3.116 M186.412,92.059h0.083v0.077l-0.083,0.168l-0.083,0.079
	 M184.928,93.205l1.484-1.146 M164.551,93.696l14.302,3.197 M177.863,97.463l-13.48-3.029 M164.468,95.008l-0.085-0.574
	 M231.863,75.907v0.164v0.083l-0.081,0.164 M144.824,92.467l0.081-0.164l0.246-0.168l0.246-0.077 M144.824,97.057v0.406l0.244,0.576
	l0.413,0.576l0.573,0.487l0.659,0.415l0.742,0.408l0.984,0.329 M162.907,94.353h0.079v0.081l0.085,0.083l0.083,0.083l0.076,0.079
	 M163.812,94.846l-0.084-0.33 M145.563,91.642h-0.166h-0.08l-0.083,0.09l-0.166,0.083l-0.083,0.161 M153.944,81.974h0.083
	l0.085-0.083h0.162 M145.068,91.889L145.068,91.889l0.083-0.157h0.083l0.163-0.09l0.084-0.076 M227.014,68.201l0.083-0.077h0.083
	h0.166 M231.863,75.907l0.166-0.653l0.078-0.657l-0.078-0.576v-0.076 M203.182,62.221L203.182,62.221l0.079-0.083h0.082h0.166
	 M177.617,79.678h-0.083l-0.166,0.164l-0.074,0.17 M224.299,66.809l0.166-0.076h0.083h0.085h0.076 M225.041,67.548l0.083-0.076
	l0.083-0.087v-0.083v-0.076 M203.509,62.138l0.083-0.081h0.077h0.087 M225.37,68.371h0.081l0.085-0.17l0.076-0.077 M225.783,68.125
	H225.7h-0.088 M156.413,80.257L156.413,80.257h0.082h0.084 M164.056,75.661L164.056,75.661h0.078h0.088 M167.261,74.021l0.088-0.076
	 M191.757,64.024L191.757,64.024h0.083 M190.764,64.269h0.087 M169.972,454.09l0.086-348.428 M153.288,450.314l0.168-348.177
	 M221.752,89.351l-0.076,361.296 M227.751,446.713l0.166-363.918 M210.656,95.992l-0.159,364.899 M220.44,90.25l-0.162,368.35
	 M209.507,96.483l-0.079,364.408 M191.177,462.697v-7.541 M170.138,454.09h0.081"/>
 <polygon fill="#4c86b8" points="244.815,73.744 246.341,82.83 244.815,80.789 243.295,82.83 "/>
 <polygon fill="#4c86b8" points="245.095,456.189 246.62,447.111 245.095,449.145 243.574,447.111 "/>
 <polygon fill="#4c86b8" points="131.906,467.264 140.385,470.865 137.849,471.053 138.743,473.436 "/>
 <polygon fill="#4c86b8" points="173.713,494.422 165.159,491.004 167.689,490.76 166.737,488.406 "/>
 <line fill="none" stroke="#4c86b8" stroke-width="0.4" x1="168.353" y1="490.943" x2="136.177" y2="469.996"/>
 <polygon fill="#4c86b8" points="250.588,457.482 242.553,461.986 245.095,461.898 244.46,464.357 "/>
 <polygon fill="#4c86b8" points="214.482,486.875 222.609,482.549 220.076,482.588 220.759,480.141 "/>
 <g>
  <path fill="none" stroke="#4c86b8" stroke-width="0.4" stroke-linecap="round" stroke-linejoin="round" stroke-miterlimit="10" d="
		M218.546,483.768l27.398-22.598 M219.864,489.922l-72.143-34.129 M230.008,452.938l-59.96,45.334 M148.44,455.648l-21.23,14.348"/>
 </g>
 <g>
  <path fill="#4c86b8" d="M256.928,275.792h-0.875c0.059-0.918-0.137-1.723-0.59-2.414c-0.441-0.584-1.008-0.924-1.699-1.018v-1.234
		l12.711,0.018v1.734h-9.547V275.792z"/>
  <path fill="#4c86b8" d="M266.725,262.544c0,1.574-0.666,2.736-2.002,3.486c-1.131,0.609-2.652,0.912-4.559,0.912
		c-0.738,0-1.516-0.059-2.334-0.178c-0.814-0.119-1.582-0.363-2.297-0.734c-1.357-0.762-2.037-1.924-2.037-3.486
		c0-1.572,0.68-2.734,2.037-3.486c1.191-0.643,2.736-0.965,4.631-0.965c1.871,0,3.391,0.322,4.559,0.965
		C266.059,259.798,266.725,260.96,266.725,262.544z M265.385,262.544c0-0.965-0.482-1.686-1.449-2.162
		c-0.822-0.418-2.078-0.627-3.771-0.627c-1.717,0-2.992,0.209-3.826,0.627c-0.965,0.477-1.447,1.197-1.447,2.162
		c0,0.955,0.482,1.67,1.447,2.146c0.514,0.227,1.09,0.385,1.734,0.473c0.645,0.09,1.342,0.135,2.092,0.135
		c1.656,0,2.914-0.203,3.771-0.607C264.902,264.202,265.385,263.485,265.385,262.544z"/>
  <path fill="#4c86b8" d="M256.928,255.161h-0.875c0.059-0.918-0.137-1.723-0.59-2.414c-0.441-0.584-1.008-0.924-1.699-1.02v-1.234
		l12.711,0.02v1.732h-9.547V255.161z"/>
  <path fill="#4c86b8" d="M255.248,246.544h-1.484v-9.262h1.197c1.645,1.467,3.541,2.635,5.686,3.504
		c1.145,0.441,2.158,0.764,3.039,0.965c0.883,0.203,1.813,0.34,2.789,0.412v1.824c-2.086-0.275-3.992-0.793-5.721-1.557
		c-1.979-0.822-3.814-1.984-5.506-3.486V246.544z"/>
 </g>
 <g>
  <path fill="#4c86b8" d="M230.25,485.372l-0.578-0.657c0.729-0.562,1.203-1.24,1.424-2.036c0.146-0.717,0.029-1.367-0.355-1.949
		l0.926-0.814l8.377,9.563l-1.303,1.145l-6.301-7.173L230.25,485.372z"/>
  <path fill="#4c86b8" d="M242.617,483.551c0.396,0.271,0.846,0.399,1.35,0.386c0.504-0.015,1.012-0.27,1.525-0.77
		c0.801-0.75,1.104-1.634,0.906-2.652c-0.156-0.846-0.664-1.786-1.525-2.822l-0.031,0.073c0.063,1.12-0.426,2.136-1.465,3.048
		c-0.904,0.795-1.898,1.147-2.982,1.062c-1.082-0.088-2.041-0.605-2.875-1.555c-0.51-0.615-0.867-1.267-1.072-1.95
		c-0.203-0.685-0.193-1.392,0.031-2.121c0.223-0.729,0.703-1.415,1.438-2.061c1.217-1.069,2.445-1.449,3.684-1.143
		c0.699,0.164,1.357,0.49,1.977,0.977c0.619,0.489,1.291,1.145,2.014,1.968c0.652,0.743,1.172,1.462,1.559,2.153
		c0.387,0.692,0.633,1.379,0.74,2.063c0.289,1.54-0.207,2.871-1.488,3.995c-1.619,1.424-3.258,1.538-4.91,0.341L242.617,483.551z
		 M242.854,475.585c-1.469-1.311-2.816-1.428-4.043-0.351c-0.645,0.566-0.965,1.209-0.961,1.927c0.004,0.72,0.318,1.415,0.941,2.088
		c0.582,0.663,1.232,1.02,1.953,1.071c0.719,0.051,1.359-0.181,1.926-0.693c0.607-0.534,0.945-1.171,1.01-1.911
		C243.744,476.979,243.469,476.267,242.854,475.585z"/>
  <path fill="#4c86b8" d="M253.184,473.962l-4.514,3.965l-0.908-1.035l-1.037-10.203l1.248-1.097l5.535,6.301l1.504-1.321
		l0.885,1.008l-1.504,1.321l1.971,2.242l-1.209,1.062L253.184,473.962z M249.035,475.821l3.264-2.867l-4.059-4.621L249.035,475.821z
		"/>
 </g>
 <g>
  <path fill="#4c86b8" d="M134.444,479.638l0.489-0.727c0.728,0.563,1.506,0.85,2.332,0.859c0.73-0.039,1.328-0.318,1.793-0.838
		l1.023,0.689l-7.118,10.531l-1.438-0.969l5.335-7.918L134.444,479.638z"/>
  <path fill="#4c86b8" d="M139.352,491.138c-0.162,0.451-0.172,0.918-0.03,1.402c0.142,0.482,0.519,0.91,1.133,1.279
		c0.929,0.584,1.86,0.65,2.796,0.203c0.777-0.367,1.559-1.098,2.341-2.195l-0.079-0.01c-1.066,0.344-2.174,0.131-3.32-0.643
		c-0.998-0.672-1.593-1.543-1.783-2.613c-0.192-1.07,0.064-2.131,0.771-3.178c0.467-0.648,1.004-1.16,1.615-1.531
		c0.61-0.373,1.296-0.543,2.057-0.512c0.763,0.033,1.549,0.32,2.359,0.867c1.345,0.906,2.024,1.998,2.042,3.273
		c0.019,0.717-0.129,1.438-0.443,2.16c-0.313,0.723-0.777,1.539-1.39,2.447c-0.553,0.82-1.114,1.506-1.687,2.055
		c-0.571,0.549-1.173,0.963-1.806,1.24c-1.415,0.672-2.829,0.529-4.242-0.422c-1.789-1.205-2.315-2.76-1.579-4.664L139.352,491.138z
		 M147.114,489.341c0.896-1.754,0.666-3.088-0.688-4c-0.712-0.48-1.415-0.627-2.107-0.439c-0.694,0.186-1.287,0.666-1.779,1.441
		c-0.494,0.73-0.674,1.451-0.539,2.158c0.133,0.709,0.519,1.271,1.159,1.688c0.672,0.453,1.374,0.617,2.104,0.49
		C145.995,490.554,146.611,490.108,147.114,489.341z"/>
  <path fill="#4c86b8" d="M151.313,498.917l-4.98-3.357l0.769-1.141l9.603-3.598l1.379,0.928l-4.686,6.953l1.661,1.119l-0.749,1.113
		l-1.662-1.119l-1.668,2.477l-1.334-0.9L151.313,498.917z M148.46,495.376l3.603,2.428l3.437-5.1L148.46,495.376z"/>
 </g>
</svg>
