<?xml version="1.0" encoding="utf-8"?>
<!-- Generator: Adobe Illustrator 23.0.3, SVG Export Plug-In . SVG Version: 6.00 Build 0)  -->
<svg version="1.1" id="Слой_1" xmlns="http://www.w3.org/2000/svg" xmlns:xlink="http://www.w3.org/1999/xlink" x="0px" y="0px"
	 viewBox="0 0 500 600" style="enable-background:new 0 0 500 600;" xml:space="preserve">
<style type="text/css">
	.st0{fill:none;stroke:#4E86B9;stroke-width:0.4;stroke-linecap:round;stroke-linejoin:round;}
	.st1{fill:none;stroke:#4E86B9;stroke-width:0.75;stroke-linecap:round;stroke-linejoin:round;}
	.st2{fill:#4E86B9;}
</style>
<path class="st0" d="M228,46h-66.6 M228,74V36.6"/>
<path class="st0" d="M309,56.1V546 M279.3,553.6h32.2 M254.4,51.4h57.1"/>
<path class="st0" d="M235.6,539.3h36.7"/>
<path class="st1" d="M279.6,75.3v-0.5V74 M229.1,74v0.3 M245.2,61.5h18.2 M263.4,61.5h0.3h0.3l0.3,0.1l0.3,0.2l0.2,0.1l0.2,0.2
	l0.1,0.2v0.2 M264.9,62.4v16.3 M264.9,78.6v0.2l-0.1,0.2l-0.2,0.2l-0.2,0.1l-0.3,0.2l-0.3,0.1h-0.3l-0.3,0.1 M263.4,79.6h-18.2
	 M245.2,79.6l-0.3-0.1h-0.3l-0.3-0.1l-0.3-0.2l-0.2-0.1l-0.2-0.2v-0.2l-0.1-0.2 M243.8,78.6V62.4 M243.8,62.4l0.1-0.2V62l0.2-0.2
	l0.2-0.1l0.3-0.2l0.3-0.1h0.3h0.3 M265.6,54l0.7,0.3l2.1,1l2,1.2l1.9,1.4l2.2,2.1l1.8,2.3l1.5,2.4l1,2.7l0.7,2.7l0.2,2.8l-0.2,2.8
	l-0.7,2.7l-1,2.6l-1.5,2.5l-1.8,2.3l-2.2,2.1l-1.9,1.4l-2,1.2l-2.1,1l-2.2,0.9l-2.3,0.8l-2.4,0.4l-2.4,0.3l-2.5,0.1l-2.5-0.1
	l-2.4-0.3l-2.4-0.4l-2.3-0.8l-2.3-0.9l-2.1-1l-2-1.2l-1.8-1.4l-2.3-2.1l-1.8-2.3l-1.5-2.5l-1-2.6l-0.6-2.7l-0.3-2.8l0.3-2.8l0.6-2.7
	l1-2.7l1.5-2.4l1.8-2.3l2.3-2.1l1.8-1.4l2-1.2l2.1-1l0.7-0.3 M254.3,51.7l-2.9,0.1l-2.8,0.4l-1.8,0.4l-1.7,0.4l-1.7,0.7l-2.2,1
	l-2.2,1.2l-1.3,0.9l-1.2,0.9l-1.1,1.1l-1.9,2.1l-1.6,2.2l-1.2,2.4l-0.9,2.3l-0.5,2.4l-0.2,2.5l0.2,1.8l0.3,1.8l0.4,1.8l0.7,1.8
	l0.9,1.8l1,1.6l1.3,1.6l1.5,1.6l1.1,0.9l1.2,1l1.3,1l1.5,0.8l1.5,0.8l1.5,0.7l2.6,0.9l2.6,0.7l2.8,0.3l2.9,0.2l2.9-0.2l2.8-0.4
	l2.7-0.6l2.5-0.9l1.6-0.7l1.5-0.8l1.5-0.9l1.3-0.9l1.2-1l1.1-1l1.9-2l1.6-2.2l1.2-2.3l0.9-2.4l0.5-2.4l0.2-2.4l-0.2-2.5l-0.5-2.4
	l-0.9-2.3l-1.2-2.3l-1.6-2.3l-2-2.1l-1.1-1.1l-1.2-0.9l-1.2-0.9l-2.2-1.2l-2.3-1l-2.6-0.9l-2.6-0.6l-2.9-0.4L254.3,51.7 M279.7,74
	v-0.8 M229,73.2V74 M254.3,51.7l-1.7,0.1l-2,0.2l-2.1,0.3l-2.3,0.6l-2.5,0.8l-2.6,1.2l-1.9,1l-1.8,1.3l-1.8,1.5l-1.7,1.8l-1.6,2
	l-1.4,2.3l-1,2.5l-0.6,2.7l-0.3,2.9l0.3,2.9l0.7,2.8l1,2.6l1.4,2.2l1.6,2.1l1.6,1.7l1.8,1.5l1.8,1.2l1.8,1l2.6,1.1l2.5,0.9l2.3,0.5
	l2.1,0.3l2,0.2l1.7,0.1l1.7-0.1l2-0.2l2.1-0.3l2.3-0.5l2.5-0.9l2.7-1.1l1.8-1l1.8-1.3l1.8-1.5l1.7-1.8l1.6-2l1.4-2.3l1-2.5l0.7-2.8
	l0.2-2.9l-0.2-2.9l-0.8-2.8l-1-2.6l-1.4-2.3l-1.6-2l-1.7-1.7l-1.8-1.5l-1.8-1.2l-1.7-1l-2.7-1.2l-2.5-0.8l-2.3-0.6l-2.1-0.3l-2-0.2
	L254.3,51.7 M229.5,553.6L229.5,553.6h0.2h0.3h0.5h0.7h0.9h1h1.1h1.3 M268.8,553.6h1.6h1.6h1.5h1.3h1.1h1h0.9h0.7h0.4h0.3h0.2
	 M229.5,486.8L229.5,486.8v0.3v0.4v0.5v0.5v0.5v0.4v0.3v0.2 M279.3,82.6L279.3,82.6L279.3,82.6v-0.3l-0.1-0.3v-0.3v-0.4l0.1-0.4
	v-0.2v-0.2 M229.5,80.6L229.5,80.6v0.2v0.3v0.4v0.3v0.3v0.3v0.2v0.2v-0.1 M240.9,553.6h-5.4 M266.4,553.6h-24 M268.8,553.6h-0.9
	 M267.9,553.6h-1.5 M242.4,553.6h-1.5 M266.2,53.8l-1.8-0.7l-1.7-0.5l-1.5-0.4l-2-0.3l-1.6-0.3l-1.4-0.1l-1.1-0.1h-1l-1.1,0.1
	l-2.5,0.2l-2.7,0.4l-2.7,0.7l-2.3,0.9l-2.3,1.1l-2.3,1.4l-1.5,1l-1.1,1l-0.9,0.9l-1.1,1.1l-1.1,1.3l-1,1.6l-1,1.8l-0.9,2.1l-0.7,2.2
	l-0.4,2.4l-0.1,2.3l0.1,2.2l0.3,1.9l0.5,1.6l0.6,1.6l0.9,1.9l1.2,1.9l1.7,2.1l1.6,1.6l2,1.6l2,1.3l1.7,1l1.3,0.6l1.6,0.7l1.9,0.6
	l2.1,0.5l1.9,0.4l1.8,0.2l2.4,0.2l2.2-0.1l2.5-0.2l2.7-0.5l1.9-0.5l2-0.6l1.8-0.8l1.6-0.8l1.1-0.6l0.9-0.5l1.2-0.9l1.3-1l1.4-1.2
	l1.3-1.4l1-1.3l1.2-1.7l1-1.9l0.9-2l0.5-2.1l0.3-1.9l0.2-1.8l-0.1-1.8l-0.3-1.8l-0.5-2.4l-1-2.4l-1.3-2.2l-0.5-0.8l-0.5-0.8l-0.8-1
	l-1.2-1.3L273,58l-1.9-1.5l-2.2-1.4L266.2,53.8 M229.5,82.6v404.2 M229.5,490v63.6 M279.3,553.6V490v-3.2V82.6"/>
<polygon class="st2" points="308.9,553.6 306.6,540.3 308.8,543.3 311,540.3 "/>
<polygon class="st2" points="308.9,51.4 306.6,64.7 308.8,61.8 311,64.7 "/>
<polygon class="st2" points="279.3,539.2 266,541.5 269,539.3 266,537.1 "/>
<polygon class="st2" points="229.7,539.2 243.1,541.5 240.1,539.3 243.1,537.1 "/>
<polygon class="st2" points="280.8,45.8 267.4,48.1 270.4,45.9 267.4,43.7 "/>
<polygon class="st2" points="227.8,45.8 241.1,48.1 238.1,45.9 241.1,43.7 "/>
<g>
	<polygon class="st2" points="251.6,86.7 251.6,85.2 252.9,85.2 252.9,85.5 252.2,85.5 252.2,85.7 252.9,85.7 252.9,86.1 
		252.2,86.1 252.2,86.3 252.9,86.3 252.9,86.7 	"/>
	<path class="st2" d="M250.6,85.2L250.6,85.2h-0.9v1.5h0.6v-0.5h0.2h0.1c0.6,0,0.8-0.3,0.8-0.5C251.4,85.5,251.3,85.1,250.6,85.2z
		 M250.6,85.8C250.6,85.8,250.6,85.8,250.6,85.8l-0.1,0h-0.2v-0.3h0.2c0,0,0.1,0,0.1,0c0.2,0,0.2,0.1,0.2,0.2
		C250.8,85.7,250.8,85.8,250.6,85.8z"/>
	<g>
		<path class="st2" d="M256.8,86.6c-0.2,0.1-0.4,0.1-0.6,0.1c-0.6,0-1.1-0.3-1.1-0.8c0-0.5,0.6-0.8,1.1-0.8c0.2,0,0.4,0,0.6,0.1
			l0,0.4c-0.1-0.1-0.3-0.2-0.5-0.2c-0.4,0-0.6,0.2-0.6,0.4c0,0.3,0.3,0.4,0.6,0.4c0.2,0,0.4-0.1,0.5-0.2V86.6z"/>
		<path class="st2" d="M258.9,86.1c0-0.3-0.3-0.6-0.9-0.6c-0.6,0-0.9,0.3-0.9,0.6c0,0.3,0.3,0.6,0.9,0.6
			C258.6,86.7,258.9,86.5,258.9,86.1 M258.3,86.1c0,0,0,0.3-0.3,0.3c-0.3,0-0.3-0.2-0.3-0.3c0-0.2,0.1-0.3,0.3-0.3
			S258.3,86,258.3,86.1"/>
		<path class="st2" d="M254.5,86.1c0.3-0.1,0.5-0.3,0.5-0.5c0-0.2-0.2-0.5-0.7-0.5c0,0-0.1,0-0.1,0h-0.9v1.5h0.6v-0.5h0l0.2,0.2
			l0.3,0.3h0.7L254.5,86.1z M254.2,85.8C254.1,85.8,254.1,85.8,254.2,85.8l-0.1,0h-0.2l0-0.4h0.2c0,0,0.1,0,0.1,0
			c0.2,0,0.2,0.1,0.2,0.2C254.4,85.7,254.3,85.8,254.2,85.8z"/>
	</g>
</g>
<line class="st0" x1="234.4" y1="45.9" x2="273.2" y2="45.9"/>
<line class="st0" x1="280.7" y1="73.2" x2="280.7" y2="36.6"/>
<path class="st0" d="M166.9,539.3h62.3"/>
<g>
	<path class="st2" d="M319.1,307.8v2.5l-1.6-0.9v-3.3h15.1v1.7H319.1z"/>
	<path class="st2" d="M330.7,299.8c-1.5,1-3.4,1.5-5.6,1.5s-4.1-0.5-5.6-1.5c-1.7-1.2-2.3-2.7-2.3-3.9s0.6-2.7,2.3-3.9
		c1.5-1,3.4-1.5,5.6-1.5s4.1,0.5,5.6,1.5c1.7,1.2,2.3,2.7,2.3,3.9S332.4,298.7,330.7,299.8z M320.5,298.5c1.3,0.8,3,1.1,4.6,1.1
		s3.3-0.3,4.6-1.1c1.3-0.8,1.7-1.8,1.7-2.6s-0.4-1.8-1.7-2.6c-1.3-0.8-3-1.1-4.6-1.1s-3.3,0.3-4.6,1.1c-1.3,0.8-1.7,1.8-1.7,2.6
		S319.3,297.7,320.5,298.5z"/>
	<path class="st2" d="M332.7,288.4l-6.4-5.5c-0.5-0.4-1.7-1.4-2.2-1.8c-1-0.7-1.7-0.8-2.3-0.8c-1.7,0-2.9,1.2-2.9,3
		c0,1.1,0.5,1.9,1.3,2.5c0.5,0.3,1,0.5,1.8,0.5v1.7c-1.5-0.1-2.4-0.5-3.1-1.1c-0.7-0.6-1.5-1.7-1.5-3.6c0-2.7,1.9-4.7,4.5-4.7
		c1,0,2,0.3,3.2,1.2c0.9,0.6,1.8,1.5,2.5,2.1l3.6,3.2v-6.4h1.5V288.4z"/>
	<path class="st2" d="M319.1,266.6v4.9l3.3,1c-0.1-0.3-0.1-0.6-0.1-1c0-3,2.3-5,5.2-5c3.4,0,5.4,2.5,5.4,5.5c0,1.2-0.3,2.4-1.2,3.4
		c-0.4,0.5-0.9,1-1.5,1.3l-1-1.3c0.5-0.2,0.9-0.6,1.2-1c0.5-0.6,0.9-1.4,0.9-2.4c0-2.1-1.7-3.7-3.9-3.7c-2.2,0-3.7,1.6-3.7,3.7
		c0,0.5,0.1,1.6,1,2.9l-7.3-2.2v-6H319.1z"/>
</g>
<g>
	<path class="st2" d="M177.6,29.4c0.6,0.7,1.8,2.3,1.8,5c0,4.5-3.5,7.8-7.9,7.8c-2.5,0-4.1-1-5.1-1.8l-1.8,1.8l-1.1-1.1l1.8-1.8
		c-1.3-1.7-1.7-3.5-1.7-4.9c0-4.5,3.5-7.8,7.9-7.8c1.4,0,3.2,0.3,4.9,1.7l1.8-1.8l1.1,1.1L177.6,29.4z M175.1,29.4
		c-0.5-0.4-1.7-1.2-3.6-1.2c-3.4,0-6.1,2.8-6.1,6.2c0,1.9,0.8,3.2,1.3,3.8L175.1,29.4z M167.8,39.4c1.4,1.1,2.9,1.3,3.8,1.3
		c3.4,0,6.1-2.8,6.1-6.2c0-1.1-0.3-2.6-1.4-3.9L167.8,39.4z"/>
	<path class="st2" d="M188,28.5h-2.5l0.9-1.6h3.3V42H188V28.5z"/>
	<path class="st2" d="M195.9,40c-1-1.5-1.5-3.4-1.5-5.6s0.5-4.1,1.5-5.6c1.2-1.7,2.7-2.3,3.9-2.3s2.7,0.6,3.9,2.3
		c1,1.5,1.5,3.4,1.5,5.6s-0.5,4.1-1.5,5.6c-1.2,1.7-2.7,2.3-3.9,2.3S197.1,41.7,195.9,40z M197.2,29.9c-0.8,1.3-1.1,3-1.1,4.6
		s0.3,3.3,1.1,4.6c0.8,1.3,1.8,1.7,2.6,1.7s1.8-0.4,2.6-1.7c0.8-1.3,1.1-3,1.1-4.6s-0.3-3.3-1.1-4.6c-0.8-1.3-1.8-1.7-2.6-1.7
		S198,28.6,197.2,29.9z"/>
	<path class="st2" d="M214.9,28.4h-8.3v-1.5h11.1l-10.1,15.5l-1.3-0.9L214.9,28.4z"/>
</g>
<g>
	<path class="st2" d="M183,522c0.6,0.7,1.8,2.3,1.8,5c0,4.5-3.5,7.8-7.9,7.8c-2.5,0-4.1-1-5.1-1.8l-1.8,1.8l-1.1-1.1l1.8-1.8
		c-1.3-1.7-1.7-3.5-1.7-4.9c0-4.5,3.5-7.8,7.9-7.8c1.4,0,3.2,0.3,4.9,1.7l1.8-1.8l1.1,1.1L183,522z M180.6,522
		c-0.5-0.4-1.7-1.2-3.6-1.2c-3.4,0-6.1,2.8-6.1,6.2c0,1.9,0.8,3.2,1.3,3.8L180.6,522z M173.2,532c1.4,1.1,2.9,1.3,3.8,1.3
		c3.4,0,6.1-2.8,6.1-6.2c0-1.1-0.3-2.6-1.4-3.9L173.2,532z"/>
	<path class="st2" d="M193.4,521.1h-2.5l0.9-1.6h3.3v15.1h-1.7V521.1z"/>
	<path class="st2" d="M201.3,532.6c-1-1.5-1.5-3.4-1.5-5.6s0.5-4.1,1.5-5.6c1.2-1.7,2.7-2.3,3.9-2.3s2.7,0.6,3.9,2.3
		c1,1.5,1.5,3.4,1.5,5.6s-0.5,4.1-1.5,5.6c-1.2,1.7-2.7,2.3-3.9,2.3S202.5,534.3,201.3,532.6z M202.6,522.5c-0.8,1.3-1.1,3-1.1,4.6
		s0.3,3.3,1.1,4.6c0.8,1.3,1.8,1.7,2.6,1.7s1.8-0.4,2.6-1.7c0.8-1.3,1.1-3,1.1-4.6s-0.3-3.3-1.1-4.6c-0.8-1.3-1.8-1.7-2.6-1.7
		S203.4,521.2,202.6,522.5z"/>
	<path class="st2" d="M212.8,534.6l5.5-6.4c0.4-0.5,1.4-1.7,1.8-2.2c0.7-1,0.8-1.7,0.8-2.3c0-1.7-1.2-2.9-3-2.9
		c-1.1,0-1.9,0.5-2.5,1.3c-0.3,0.5-0.5,1-0.5,1.8h-1.7c0.1-1.5,0.5-2.4,1.1-3.1c0.6-0.7,1.7-1.5,3.6-1.5c2.7,0,4.7,1.9,4.7,4.5
		c0,1-0.3,2-1.2,3.2c-0.6,0.9-1.5,1.8-2.1,2.5l-3.2,3.6h6.4v1.5H212.8z"/>
</g>
</svg>
