<?xml version="1.0" encoding="utf-8"?>
<!-- Generator: Adobe Illustrator 24.2.0, SVG Export Plug-In . SVG Version: 6.00 Build 0)  -->
<svg version="1.1" id="Слой_1" xmlns="http://www.w3.org/2000/svg" xmlns:xlink="http://www.w3.org/1999/xlink" x="0px" y="0px"
	 viewBox="0 0 285 185" style="enable-background:new 0 0 285 185;" xml:space="preserve">
<style type="text/css">
	.st0{fill:#E54F49;}
</style>
<g>
	<path class="st0" d="M183.6,61.9l1.1-9.5l-9.9-12.6l-12.6,10l-1.1,9.5l8.4-6.6c-0.7,3.2-1.2,6.6-1.2,10c0,4.1,0.8,8.2,1.6,12.1
		c0.8,3.7,1.5,7.3,1.5,10.7c0,3.5-0.7,7-1.5,10.7c-0.8,3.9-1.6,7.9-1.6,12.1c0,4.1,0.8,8.2,1.6,12.1c0.8,3.7,1.5,7.3,1.5,10.7
		c0,3.5-0.7,7-1.5,10.7c-0.8,3.9-1.6,7.9-1.6,12.1h6.7c0-3.5,0.7-7,1.5-10.7c0.8-3.9,1.6-7.9,1.6-12.1c0-4.1-0.8-8.2-1.6-12.1
		c-0.8-3.7-1.5-7.3-1.5-10.7s0.7-7,1.5-10.7c0.8-3.9,1.6-7.9,1.6-12.1c0-4.1-0.8-8.2-1.6-12.1c-0.8-3.7-1.5-7.3-1.5-10.7
		c0-3.2,0.6-6.5,1.3-10L183.6,61.9z"/>
	<path class="st0" d="M127.2,48.7l-1.1,9.5l8.4-6.6c-0.7,3.2-1.2,6.6-1.2,10c0,4.1,0.8,8.2,1.6,12.1c0.8,3.7,1.5,7.3,1.5,10.7
		c0,3.5-0.7,7-1.5,10.7c-0.8,3.9-1.6,7.9-1.6,12.1c0,4.1,0.8,8.2,1.6,12.1c0.8,3.7,1.5,7.3,1.5,10.7c0,3.4-0.7,7-1.5,10.7
		c-0.8,3.9-1.6,7.9-1.6,12.1h6.7c0-3.5,0.7-7,1.5-10.7c0.8-3.9,1.6-7.9,1.6-12.1c0-4.2-0.8-8.2-1.6-12.1c-0.8-3.7-1.5-7.3-1.5-10.7
		c0-3.5,0.7-7,1.5-10.7c0.8-3.9,1.6-7.9,1.6-12.1c0-4.1-0.8-8.2-1.6-12.1c-0.8-3.7-1.5-7.3-1.5-10.7c0-3.2,0.6-6.5,1.3-10l7.3,9.2
		l1.1-9.5l-9.9-12.5L127.2,48.7z"/>
	<path class="st0" d="M92.2,48.7l-1.1,9.5l8.4-6.6c-0.7,3.2-1.2,6.6-1.2,10c0,4.1,0.8,8.2,1.6,12.1c0.8,3.7,1.5,7.3,1.5,10.7
		c0,3.5-0.7,7-1.5,10.7c-0.8,3.9-1.6,7.9-1.6,12.1c0,4.1,0.8,8.2,1.6,12.1c0.8,3.7,1.5,7.3,1.5,10.7c0,3.4-0.7,7-1.5,10.7
		c-0.8,3.9-1.6,7.9-1.6,12.1h6.7c0-3.5,0.7-7,1.5-10.7c0.8-3.9,1.6-7.9,1.6-12.1c0-4.2-0.8-8.2-1.6-12.1c-0.8-3.7-1.5-7.3-1.5-10.7
		c0-3.5,0.7-7,1.5-10.7c0.8-3.9,1.6-7.9,1.6-12.1c0-4.1-0.8-8.2-1.6-12.1c-0.8-3.7-1.5-7.3-1.5-10.7c0-3.2,0.6-6.5,1.3-10l7.3,9.2
		l1.1-9.5l-9.9-12.5L92.2,48.7z"/>
</g>
</svg>
