<?xml version="1.0" encoding="utf-8"?>
<!-- Generator: Adobe Illustrator 24.2.0, SVG Export Plug-In . SVG Version: 6.00 Build 0)  -->
<svg version="1.1" id="Слой_1" xmlns="http://www.w3.org/2000/svg" xmlns:xlink="http://www.w3.org/1999/xlink" x="0px" y="0px"
	 viewBox="0 0 285 185" style="enable-background:new 0 0 285 185;" xml:space="preserve">
<style type="text/css">
	.st0{fill-rule:evenodd;clip-rule:evenodd;fill:#0A3C70;}
	.st1{fill-rule:evenodd;clip-rule:evenodd;fill:#434343;}
	.st2{fill-rule:evenodd;clip-rule:evenodd;fill:#393939;}
	.st3{fill-rule:evenodd;clip-rule:evenodd;fill:#265AA6;}
	.st4{fill-rule:evenodd;clip-rule:evenodd;fill:#0B4696;}
	.st5{fill-rule:evenodd;clip-rule:evenodd;fill:#F2F9FA;}
	.st6{fill-rule:evenodd;clip-rule:evenodd;fill:#F7C03A;}
	.st7{fill-rule:evenodd;clip-rule:evenodd;fill:#FFFFFF;}
	.st8{fill-rule:evenodd;clip-rule:evenodd;fill:#BDC2C4;}
	.st9{fill:#C2C7C1;}
	.st10{fill:#313133;}
	.st11{fill:#E6332A;}
	.st12{fill:none;stroke:#525251;stroke-width:1.4401;stroke-linecap:round;stroke-linejoin:round;}
	.st13{fill:none;stroke:#525251;stroke-width:1.4401;stroke-linecap:round;stroke-linejoin:round;stroke-dasharray:3.4163,3.4163;}
	.st14{fill:none;stroke:#525251;stroke-width:1.4401;stroke-linecap:round;stroke-linejoin:round;stroke-dasharray:2.0407,2.0407;}
	.st15{fill:none;stroke:#525251;stroke-width:1.4401;stroke-linecap:round;stroke-linejoin:round;stroke-dasharray:3.452,3.452;}
	.st16{fill:none;stroke:#525251;stroke-width:1.4401;stroke-linecap:round;stroke-linejoin:round;stroke-dasharray:2.0439,2.0439;}
	.st17{fill:#EDEDED;}
	.st18{fill:#D01317;}
	.st19{fill:#E21113;}
	.st20{fill:#444646;}
	.st21{fill:#525251;stroke:#373636;stroke-width:0.2471;stroke-miterlimit:10;}
</style>
<g>
	<path class="st0" d="M111.2,95.5h5.1c2.5,0,4.5,2,4.5,4.5v3.5c0,2.5-2,4.5-4.5,4.5h-5.1c-2.5,0-4.5-2-4.5-4.5v-3.5
		C106.6,97.6,108.7,95.5,111.2,95.5z"/>
	<path class="st0" d="M205.9,95.5h5.1c2.5,0,4.5,2,4.5,4.5v3.5c0,2.5-2,4.5-4.5,4.5h-5.1c-2.5,0-4.5-2-4.5-4.5v-3.5
		C201.4,97.6,203.4,95.5,205.9,95.5z"/>
	<path class="st1" d="M133.1,153.7H122c-2.5,0-4.6-2.1-4.6-4.6v-7.9c0-2.5,2.1-4.6,4.6-4.6h11.1c2.5,0,4.6,2.1,4.6,4.6v7.9
		C137.6,151.6,135.6,153.7,133.1,153.7z"/>
	<path class="st2" d="M133.1,153.7H131l-3.5-2l-3.5,2H122c-0.2,0-0.5,0-0.7-0.1l6.2-3.6l0,0l0,0l6.2,3.6
		C133.5,153.6,133.3,153.7,133.1,153.7z"/>
	<path class="st2" d="M119.5,152.9c-0.4-0.3-0.8-0.6-1.1-1l9.1-5.3l0,0l0,0l9.2,5.3c-0.3,0.4-0.7,0.7-1.1,1l-8-4.6L119.5,152.9z"/>
	<path class="st2" d="M117.6,150.6c-0.2-0.5-0.3-1-0.3-1.5v0l10.1-5.8l0,0l0,0l10.1,5.8v0c0,0.5-0.1,1-0.2,1.5l-9.9-5.7L117.6,150.6
		z"/>
	<polygon class="st2" points="117.4,147.3 117.4,145.7 127.5,139.8 127.5,139.8 127.5,139.8 137.6,145.6 137.6,147.3 127.5,141.5 	
		"/>
	<polygon class="st2" points="117.4,143.9 117.4,142.3 127.1,136.6 127.9,136.6 137.6,142.2 137.6,143.9 127.5,138.1 	"/>
	<path class="st2" d="M117.4,140.5c0.1-0.9,0.5-1.7,1.1-2.3l2.5-1.5c0.3-0.1,0.6-0.1,0.9-0.1h2.1L117.4,140.5L117.4,140.5z
		 M131,136.6h2.1c0.3,0,0.6,0,0.9,0.1l2.5,1.4c0.6,0.6,1,1.4,1.1,2.3L131,136.6z"/>
	<path class="st1" d="M200.5,153.7h-11.1c-2.5,0-4.6-2.1-4.6-4.6v-7.9c0-2.5,2.1-4.6,4.6-4.6h11.1c2.5,0,4.6,2.1,4.6,4.6v7.9
		C205.1,151.6,203,153.7,200.5,153.7z"/>
	<path class="st2" d="M200.5,153.7h-2.1l-3.5-2l-3.5,2h-2.1c-0.2,0-0.5,0-0.7-0.1l6.2-3.6l0,0l0,0l6.2,3.6
		C201,153.6,200.8,153.7,200.5,153.7z"/>
	<path class="st2" d="M186.9,152.9c-0.4-0.3-0.8-0.6-1.1-1l9.1-5.3l0,0l0,0l9.2,5.3c-0.3,0.4-0.7,0.7-1.1,1l-8-4.6L186.9,152.9z"/>
	<path class="st2" d="M185.1,150.6c-0.2-0.5-0.3-1-0.3-1.5v0l10.1-5.8l0,0l0,0l10.1,5.8v0c0,0.5-0.1,1-0.2,1.5l-9.9-5.7L185.1,150.6
		z"/>
	<polygon class="st2" points="184.8,147.3 184.8,145.7 195,139.8 195,139.8 195,139.8 205.1,145.6 205.1,147.3 195,141.5 	"/>
	<polygon class="st2" points="184.8,143.9 184.8,142.3 194.6,136.6 195.4,136.6 205.1,142.2 205.1,143.9 195,138.1 	"/>
	<path class="st2" d="M184.9,140.5c0.1-0.9,0.5-1.7,1.1-2.3l2.5-1.5c0.3-0.1,0.6-0.1,0.9-0.1h2.1L184.9,140.5L184.9,140.5z
		 M198.4,136.6h2.1c0.3,0,0.6,0,0.9,0.1l2.5,1.4c0.6,0.6,1,1.4,1.1,2.3L198.4,136.6z"/>
	<path class="st3" d="M161.2,75h27.1c6.2,1.6,16.5,22.7,22.6,29.5c0,0,1.7,2.6,3.3,9.1l1.2,23.2c0,0-1.7,7.5-9.1,6.2h-45.2h-45.2
		c-7.4,1.3-9.1-6.2-9.1-6.2l1.2-23.2c1.7-6.5,3.3-9.1,3.3-9.1c6.1-6.8,18.1-27.9,24.3-29.5H161.2z"/>
	<path class="st4" d="M214.3,114.6l1.2,22.2c0,0-1.1,5.2-5.8,6.2h-96.8c-4.7-1-5.8-6.2-5.8-6.2l1.2-22.2H214.3z"/>
	<path class="st0" d="M215.2,130.4l0.3,6.4c0,0-1.1,5.2-5.8,6.2h-96.8c-4.7-1-5.8-6.2-5.8-6.2l0.3-6.4H215.2z"/>
	<path class="st5" d="M148.4,121.1h25.4c0.5,0,1,0.4,1,1l0,0c0,0.5-0.4,1-1,1h-25.4c-0.5,0-1-0.4-1-1l0,0
		C147.4,121.5,147.9,121.1,148.4,121.1z"/>
	<path class="st5" d="M153,126.7h16.2c0.5,0,1,0.4,1,1l0,0c0,0.5-0.4,1-1,1H153c-0.5,0-1-0.4-1-1l0,0
		C152,127.1,152.5,126.7,153,126.7z"/>
	<path class="st6" d="M120.5,118h10c2.4,0,4.4,2,4.4,4.4l0,0c0,2.4-2,4.4-4.4,4.4h-10c-2.4,0-4.4-2-4.4-4.4l0,0
		C116.1,120,118.1,118,120.5,118z"/>
	<path class="st6" d="M191.8,118h10c2.4,0,4.4,2,4.4,4.4l0,0c0,2.4-2,4.4-4.4,4.4h-10c-2.4,0-4.4-2-4.4-4.4l0,0
		C187.4,120,189.4,118,191.8,118z"/>
	<path class="st7" d="M122.2,139.4c2,0,3.7-1.7,3.7-3.7c0-2-1.7-3.7-3.7-3.7c-2,0-3.7,1.7-3.7,3.7
		C118.5,137.8,120.2,139.4,122.2,139.4z"/>
	<path class="st7" d="M198.2,139.4c2,0,3.7-1.7,3.7-3.7c0-2-1.7-3.7-3.7-3.7c-2,0-3.7,1.7-3.7,3.7
		C194.6,137.8,196.2,139.4,198.2,139.4z"/>
	<path class="st7" d="M161.3,78.9h19.5c4.1,1.1,10.8,14.2,15.3,20l0.1,0.1h-69.4l0.3-0.7c4.6-6,12-18.4,16-19.4H161.3z"/>
	<polygon class="st8" points="166.2,99.1 164.2,99.1 168.6,78.9 170.6,78.9 	"/>
	<polygon class="st8" points="173.6,99.1 171.6,99.1 175.9,78.9 177.9,78.9 	"/>
	<polygon class="st9" points="62.6,86.3 86,86.3 86,80.5 62.6,82.5 	"/>
	
		<rect x="62.6" y="87.9" transform="matrix(-1 -4.448187e-11 4.448187e-11 -1 148.6265 241.8083)" class="st9" width="23.4" height="66"/>
	
		<rect x="65.4" y="87.9" transform="matrix(-1 -4.587853e-11 4.587853e-11 -1 145.0433 241.8083)" class="st10" width="14.3" height="66"/>
	
		<rect x="62.6" y="86.3" transform="matrix(-1 -4.500723e-11 4.500723e-11 -1 148.6365 174.1743)" class="st11" width="23.4" height="1.6"/>
	<path d="M83.7,120.2L83.7,120.2c0.4,0,0.7-0.3,0.7-0.7v-1.7c0-0.4-0.3-0.7-0.7-0.7l0,0c-0.4,0-0.7,0.3-0.7,0.7v1.7
		C83.1,119.9,83.4,120.2,83.7,120.2z"/>
	<g>
		<g>
			<path class="st12" d="M230.1,90.3C230.1,90.3,230.1,90.3,230.1,90.3l-1.7,0v0h-1.7"/>
			<line class="st13" x1="223.3" y1="90.3" x2="67.8" y2="90.3"/>
			<path class="st12" d="M66.1,90.3h-1.7v-0.1h-1.5c0,0,0,0-0.1,0.2"/>
			<path class="st14" d="M62.3,92.3c0,0.5-0.1,1-0.1,1.7c0,0.5,0,1,0,1.4"/>
			<path class="st12" d="M62.4,96.4c0.2,1.2,0.5,1.6,0.5,1.6h1.5v-0.1h1.7"/>
			<line class="st15" x1="69.6" y1="97.9" x2="226.6" y2="97.9"/>
			<path class="st12" d="M228.4,97.9L228.4,97.9L228.4,97.9h1.7c0,0,0.3-0.4,0.6-1.6"/>
			<path class="st16" d="M230.8,94.3c0-0.1,0-0.2,0-0.3c0-1.3-0.1-2.2-0.3-2.8"/>
		</g>
	</g>
	<g>
		
			<rect x="52.7" y="50.9" transform="matrix(-0.8633 0.5047 -0.5047 -0.8633 271.3907 33.9864)" class="st17" width="156.9" height="5.6"/>
		
			<rect x="54.6" y="55.9" transform="matrix(-0.8633 0.5047 -0.5047 -0.8633 276.58 39.0955)" class="st11" width="156.9" height="2.1"/>
		<path class="st18" d="M64.7,98.2l1.3-0.8l-4-6.8l-1.3,0.8c0,0-0.2,0.9,1.4,3.6C63.7,97.8,64.7,98.2,64.7,98.2z"/>
		<g id="LWPOLYLINE_83_">
			<g>
				<polygon class="st19" points="105.4,71 92.6,78.5 89.5,76.7 105.3,67.4 				"/>
			</g>
		</g>
		<g>
			<g>
				<g id="LWPOLYLINE_12_">
					<polygon class="st19" points="132.3,51.7 119.5,59.1 119.6,62.8 135.4,53.5 					"/>
				</g>
			</g>
		</g>
		<g>
			<g id="LWPOLYLINE_79_">
				<g>
					<path class="st20" d="M66,90.4l11.5-6.7c0.2-0.1,0.5-0.1,0.7,0l2.2,1.6c0.4,0.3,0.4,0.9-0.1,1.1L67,94.3c-0.4,0.2-0.9,0-1-0.5
						l-0.3-2.8C65.6,90.8,65.7,90.5,66,90.4z"/>
				</g>
			</g>
			<g>
				<g id="LWPOLYLINE_78_">
					<polygon class="st21" points="70.7,91.6 69.3,89.2 70.7,88.4 71.1,89 70.3,89.4 70.5,89.8 71.2,89.3 71.5,89.9 70.8,90.3 
						71,90.7 71.8,90.2 72.1,90.8 					"/>
				</g>
				<path class="st21" d="M69.5,90l-0.1-0.1l-0.1-0.1l-0.2-0.1l-0.2,0l-0.2,0l-0.2,0.1l-0.2,0.1l-0.1,0l-0.9,0.5l1.4,2.4l0.7-0.4
					l-0.5-0.8l0.3-0.2l0.1,0l0.2-0.2l0.2-0.2l0.1-0.2l0.1-0.2l0-0.2l0-0.2l0-0.2l-0.1-0.1L69.5,90z M68.9,90.6L68.9,90.6L68.9,90.6
					l0,0.1l0,0.1l0,0.1l0,0.1L68.8,91l0,0l-0.1,0l-0.2,0.1l-0.3-0.6l0.2-0.1l0.1,0l0.1,0l0.1,0l0.1,0l0.1,0l0,0l0,0L68.9,90.6
					L68.9,90.6L68.9,90.6z"/>
				<g id="LWPOLYLINE_75_">
					<polygon class="st21" points="76.3,88.2 76.3,88.3 76.2,88.4 76.2,88.5 76.1,88.5 76,88.6 76,88.7 75.9,88.7 75.8,88.8 
						75.5,88.9 75.3,89 75,89 74.7,88.9 74.5,88.8 74.2,88.7 74,88.5 73.8,88.2 73.7,87.9 73.6,87.6 73.6,87.3 73.6,87 73.7,86.8 
						73.9,86.5 74.1,86.3 74.3,86.2 74.4,86.1 74.5,86.1 74.6,86.1 74.7,86 74.8,86 74.9,86 75,86 75.1,86 75.5,86.7 75.4,86.7 
						75.3,86.7 75.3,86.7 75.2,86.6 75.1,86.6 75,86.7 74.9,86.7 74.7,86.8 74.6,86.8 74.5,87 74.4,87.1 74.4,87.2 74.4,87.4 
						74.4,87.5 74.5,87.7 74.5,87.8 74.6,87.9 74.8,88.1 74.9,88.1 75,88.2 75.1,88.2 75.3,88.2 75.4,88.2 75.5,88.1 75.6,88 
						75.7,88 75.8,87.9 75.8,87.8 75.9,87.8 75.9,87.7 75.9,87.6 75.9,87.5 					"/>
				</g>
				<path class="st21" d="M78,86l-0.1-0.1l-0.2-0.1l-0.2-0.1l-0.2,0l-0.2,0l-0.2,0.1l-0.2,0.1L76.4,86l-0.2,0.2l-0.1,0.2L76,86.6
					l0,0.2l0,0.2l0.1,0.2l0.1,0.2l0.1,0.2l0.1,0.1l0.2,0.1l0.2,0.1l0.2,0l0.2,0l0.2-0.1l0.2-0.1l0.2-0.2l0.2-0.2l0.1-0.2l0.1-0.2
					l0-0.2l0-0.2l-0.1-0.2l-0.1-0.2L78,86z M77.5,86.6L77.5,86.6l0.1,0.1l0,0.1l0,0.1l0,0.1l-0.1,0.1l-0.1,0.1l-0.1,0.1l-0.1,0
					l-0.1,0L77,87.2l-0.1-0.1l-0.1-0.1l0-0.1l0,0l-0.1-0.1l0-0.1l0-0.1l0-0.1l0-0.1l0-0.1l0.1-0.1l0.1-0.1l0.1,0l0.1,0l0.1,0l0.1,0
					l0.1,0l0.1,0.1l0.1,0.1L77.5,86.6L77.5,86.6z"/>
				<path class="st21" d="M73.4,88.9l0.1-0.1l0.1-0.1l0-0.1l0-0.1l0-0.1l0-0.1l0-0.1l-0.1-0.1l-0.1-0.1l-0.1-0.1l-0.1-0.1L73,87.5
					l-0.2-0.1l-0.2,0l-0.2,0l-0.2,0.1l-0.1,0.1l-1,0.6l1.4,2.4l0.7-0.4l-0.5-0.8l0,0l0.5,0.2l0.5,0.3l0.8-0.5L73.4,88.9z M72.8,88.3
					L72.8,88.3L72.8,88.3l0,0.1l0,0.1l0,0.1l0,0.1l-0.1,0.1l0,0l-0.1,0l-0.2,0.1l-0.3-0.6l0.2-0.1l0.1,0l0.1,0l0.1,0l0.1,0l0.1,0
					l0,0l0,0L72.8,88.3L72.8,88.3L72.8,88.3z"/>
			</g>
			<g>
				<g id="LWPOLYLINE_74_">
					<polygon class="st20" points="70.6,91.5 69.2,89.1 70.6,88.3 71,88.9 70.2,89.3 70.4,89.6 71.1,89.2 71.4,89.8 70.7,90.2 
						71,90.6 71.7,90.1 72.1,90.7 					"/>
				</g>
				<path class="st20" d="M69.4,89.9l-0.1-0.1l-0.1-0.1L69,89.6l-0.2,0l-0.2,0l-0.2,0.1l-0.2,0.1l-0.1,0l-0.9,0.5l1.4,2.4l0.7-0.4
					l-0.5-0.8l0.3-0.2l0.1,0l0.2-0.2l0.2-0.2l0.1-0.2l0.1-0.2l0-0.2l0-0.2l0-0.2L69.5,90L69.4,89.9z M68.8,90.5L68.8,90.5L68.8,90.5
					l0,0.1l0,0.1l0,0.1l0,0.1l-0.1,0.1l0,0l-0.1,0L68.4,91l-0.3-0.6l0.2-0.1l0.1,0l0.1,0l0.1,0l0.1,0l0.1,0l0,0l0,0L68.8,90.5
					L68.8,90.5L68.8,90.5z"/>
				<g id="LWPOLYLINE_73_">
					<polygon class="st20" points="76.3,88.1 76.2,88.2 76.2,88.3 76.1,88.4 76,88.4 76,88.5 75.9,88.6 75.8,88.6 75.7,88.7 
						75.5,88.8 75.2,88.8 74.9,88.9 74.7,88.8 74.4,88.7 74.2,88.6 73.9,88.4 73.7,88.1 73.6,87.8 73.5,87.5 73.5,87.2 73.6,86.9 
						73.7,86.7 73.8,86.4 74,86.2 74.2,86.1 74.3,86 74.4,86 74.5,86 74.6,85.9 74.7,85.9 74.8,85.9 74.9,85.9 75,85.9 75.4,86.6 
						75.3,86.6 75.3,86.6 75.2,86.5 75.1,86.5 75,86.5 74.9,86.6 74.8,86.6 74.7,86.6 74.5,86.7 74.4,86.9 74.4,87 74.3,87.1 
						74.3,87.3 74.3,87.4 74.4,87.6 74.5,87.7 74.6,87.8 74.7,88 74.8,88 74.9,88.1 75.1,88.1 75.2,88.1 75.3,88.1 75.4,88 
						75.5,87.9 75.6,87.9 75.7,87.8 75.7,87.7 75.8,87.6 75.8,87.6 75.8,87.5 75.9,87.4 					"/>
				</g>
				<path class="st20" d="M77.9,85.9l-0.1-0.1l-0.2-0.1l-0.2-0.1l-0.2,0l-0.2,0l-0.2,0.1l-0.2,0.1l-0.2,0.2l-0.2,0.2L76,86.3
					l-0.1,0.2l0,0.2l0,0.2L76,87l0.1,0.2l0.1,0.2l0.1,0.1l0.2,0.1l0.2,0.1l0.2,0l0.2,0l0.2-0.1l0.2-0.1l0.2-0.2l0.2-0.2l0.1-0.2
					l0.1-0.2l0-0.2l0-0.2l-0.1-0.2l-0.1-0.2L77.9,85.9z M77.4,86.5L77.4,86.5l0.1,0.1l0,0.1l0,0.1l0,0.1L77.4,87l-0.1,0.1l-0.1,0.1
					l-0.1,0l-0.1,0l-0.1-0.1L76.8,87L76.8,87l0-0.1l0,0l-0.1-0.1l0-0.1l0-0.1l0-0.1l0-0.1l0-0.1l0.1-0.1l0.1-0.1l0.1,0l0.1,0l0.1,0
					l0.1,0l0.1,0l0.1,0.1l0.1,0.1L77.4,86.5L77.4,86.5z"/>
				<path class="st20" d="M73.3,88.8l0.1-0.1l0.1-0.1l0-0.1l0-0.1l0-0.1l0-0.1l0-0.1l-0.1-0.1l-0.1-0.1l-0.1-0.1l-0.1-0.1l-0.2-0.1
					l-0.2-0.1l-0.2,0l-0.2,0l-0.2,0.1L72,87.5l-1,0.6l1.4,2.4l0.7-0.4l-0.5-0.8l0,0l0.5,0.2l0.5,0.3l0.8-0.5L73.3,88.8z M72.7,88.2
					L72.7,88.2L72.7,88.2l0,0.1l0,0.1l0,0.1l0,0.1l-0.1,0.1l0,0l-0.1,0l-0.2,0.1L72,88.2l0.2-0.1l0.1,0l0.1,0l0.1,0l0.1,0l0.1,0l0,0
					l0,0L72.7,88.2L72.7,88.2L72.7,88.2z"/>
			</g>
		</g>
		<path class="st18" d="M202.7,17.5l-1.5,0.8l-3.8-6.6l1.5-0.8c0,0,1,0.2,2.5,2.8C202.9,16.4,202.7,17.5,202.7,17.5z"/>
		<g id="LWPOLYLINE_71_">
			<g>
				<polygon class="st19" points="163.3,37.2 150.5,44.7 147.3,42.8 163.2,33.6 				"/>
			</g>
		</g>
		<g>
			<g>
				<g id="LWPOLYLINE_11_">
					<polygon class="st19" points="190.2,17.8 177.4,25.3 177.5,28.9 193.3,19.6 					"/>
				</g>
			</g>
		</g>
	</g>
</g>
</svg>
