<?xml version="1.0" encoding="utf-8"?>
<!-- Generator: Adobe Illustrator 24.2.0, SVG Export Plug-In . SVG Version: 6.00 Build 0)  -->
<svg version="1.1" id="Слой_1" xmlns="http://www.w3.org/2000/svg" xmlns:xlink="http://www.w3.org/1999/xlink" x="0px" y="0px"
	 viewBox="0 0 285 185" style="enable-background:new 0 0 285 185;" xml:space="preserve">
<style type="text/css">
	.st0{fill:#C2C7C1;}
	.st1{fill:#313133;}
	.st2{fill:#E6332A;}
	.st3{fill:#EDEDED;}
	.st4{fill:#D01317;}
	.st5{fill:#E21113;}
	.st6{fill:#444646;}
	.st7{fill:#525251;stroke:#373636;stroke-width:0.2999;stroke-miterlimit:10;}
	.st8{fill:none;stroke:#BEBBBA;stroke-width:2.8307;stroke-miterlimit:10;}
	.st9{fill:#BEBBBA;}
	.st10{fill:#D7D2D3;}
	.st11{fill:#0B4696;}
	.st12{fill:#0A3C70;}
	.st13{fill:#265AA6;}
	.st14{fill:#C7C6C8;}
</style>
<g>
	<g>
		<polygon class="st0" points="13.2,28.1 41.6,28.1 41.6,21.1 13.2,23.6 		"/>
		
			<rect x="13.2" y="30.1" transform="matrix(-1 -4.343871e-11 4.343871e-11 -1 54.8054 140.2806)" class="st0" width="28.4" height="80.1"/>
		
			<rect x="16.6" y="30.1" transform="matrix(-1 -4.703761e-11 4.703761e-11 -1 50.4562 140.2806)" class="st1" width="17.3" height="80.1"/>
		
			<rect x="13.2" y="28.1" transform="matrix(-1 -4.595003e-11 4.595003e-11 -1 54.8175 58.1879)" class="st2" width="28.4" height="2"/>
		<path d="M38.9,69.2L38.9,69.2c0.5,0,0.8-0.4,0.8-0.8v-2.1c0-0.5-0.4-0.8-0.8-0.8l0,0c-0.5,0-0.8,0.4-0.8,0.8v2.1
			C38,68.9,38.4,69.2,38.9,69.2z"/>
		<g>
			<polygon class="st3" points="131.9,39.1 15.1,39.8 15.1,33 131.8,32.3 			"/>
			<polygon class="st2" points="131.9,41.6 15.1,42.2 15.1,39.7 131.9,39 			"/>
			<path class="st4" d="M13.5,42.3l1.8,0l0-9.5l-1.8,0c0,0-0.8,0.8-0.8,4.7S13.5,42.3,13.5,42.3z"/>
			<g id="LWPOLYLINE_27_">
				<g>
					<polygon class="st5" points="72.8,38.6 54.9,38.6 52.7,34.8 75,34.7 					"/>
				</g>
			</g>
			<g>
				<g>
					<g id="LWPOLYLINE_24_">
						<polygon class="st5" points="112.9,34.6 94.9,34.7 92.8,38.5 115.1,38.4 						"/>
					</g>
				</g>
			</g>
			<g>
				<g id="LWPOLYLINE_23_">
					<g>
						<path class="st6" d="M19.6,34.9l16.2,0c0.3,0,0.6,0.2,0.7,0.5l1.4,3.1c0.2,0.5-0.2,1.1-0.7,1.1l-18.9,0.1
							c-0.6,0-1-0.6-0.7-1.1l1.3-3.1C19,35.1,19.3,34.9,19.6,34.9z"/>
					</g>
				</g>
				<g>
					<g id="LWPOLYLINE_22_">
						<polygon class="st7" points="23.8,39.1 23.8,35.6 25.9,35.6 25.9,36.5 24.8,36.5 24.8,36.9 25.8,36.9 25.8,37.7 24.8,37.7 
							24.8,38.2 25.9,38.2 25.9,39 						"/>
					</g>
					<path class="st7" d="M23.6,36.6l0-0.2l-0.1-0.2l-0.1-0.2l-0.2-0.2l-0.2-0.1l-0.3-0.1l-0.3,0l-0.1,0l-1.3,0l0,3.4l0.9,0l0-1.1
						l0.4,0l0.1,0l0.3,0l0.3-0.1l0.2-0.1l0.2-0.2l0.1-0.2l0.1-0.2l0-0.2l0-0.2L23.6,36.6z M22.6,36.8L22.6,36.8l0,0.1l0,0.1l0,0.1
						l-0.1,0.1l-0.1,0l-0.1,0l-0.1,0l-0.1,0l-0.3,0l0-0.8l0.3,0l0.1,0l0.1,0l0.1,0l0.1,0l0,0.1l0,0.1l0,0.1L22.6,36.8L22.6,36.8
						L22.6,36.8z"/>
					<g id="LWPOLYLINE_17_">
						<polygon class="st7" points="31.9,38.9 31.8,38.9 31.6,39 31.5,39.1 31.4,39.1 31.3,39.1 31.2,39.1 31.1,39.1 31,39.1 
							30.6,39.1 30.3,39 30,38.9 29.7,38.7 29.5,38.4 29.4,38.1 29.3,37.7 29.2,37.3 29.3,36.9 29.4,36.6 29.5,36.2 29.8,36 
							30,35.8 30.3,35.6 30.6,35.6 30.9,35.5 31.1,35.5 31.2,35.5 31.3,35.6 31.4,35.6 31.5,35.6 31.6,35.7 31.8,35.7 31.9,35.8 
							31.9,36.8 31.8,36.7 31.7,36.7 31.7,36.6 31.6,36.5 31.5,36.5 31.3,36.4 31.2,36.4 31.1,36.4 30.9,36.4 30.7,36.5 30.6,36.6 
							30.4,36.7 30.3,36.8 30.3,37 30.2,37.2 30.2,37.4 30.2,37.6 30.3,37.8 30.4,37.9 30.5,38 30.6,38.2 30.7,38.2 30.9,38.3 
							31.1,38.3 31.2,38.3 31.3,38.3 31.4,38.2 31.5,38.2 31.6,38.1 31.7,38 31.8,38 31.9,37.9 						"/>
					</g>
					<path class="st7" d="M35,37.6l-0.1-0.2l-0.1-0.2L34.6,37l-0.2-0.2l-0.2-0.1l-0.3-0.1l-0.3,0l-0.3,0L33,36.7l-0.2,0.1L32.5,37
						l-0.2,0.2l-0.1,0.2l-0.1,0.2l0,0.3l0,0.3l0.1,0.2l0.1,0.2l0.2,0.2l0.2,0.2L33,39l0.3,0.1l0.3,0l0.3,0l0.3-0.1l0.2-0.1l0.2-0.2
						l0.2-0.2l0.1-0.2l0.1-0.2l0-0.3L35,37.6z M34.1,37.9L34.1,37.9l0,0.2l0,0.1L34,38.3l-0.1,0.1l-0.1,0.1l-0.2,0l-0.2,0l-0.1-0.1
						l-0.1-0.1l-0.1-0.1l0-0.1l0-0.1l0-0.1l0-0.1l0-0.1l0-0.1l0-0.1l0.1-0.1l0.1-0.1l0.1-0.1l0.1,0l0.1,0l0.1,0l0.1,0l0.1,0.1
						l0.1,0.1l0.1,0.1l0,0.1l0,0.1L34.1,37.9L34.1,37.9z"/>
					<path class="st7" d="M28.3,37.8l0.2-0.1l0.2-0.1l0.1-0.1l0.1-0.1l0.1-0.1l0-0.2l0-0.1l0-0.1l0-0.2l0-0.2l-0.1-0.2l-0.1-0.2
						l-0.2-0.2l-0.2-0.1l-0.2-0.1l-0.3,0l-0.1,0l-1.4,0l0,3.4l0.9,0l0-1.1l0,0l0.3,0.5L28,39l1.1,0L28.3,37.8z M28,36.8L28,36.8
						l0,0.1l0,0.1l0,0.1l-0.1,0.1l-0.1,0l-0.1,0l-0.1,0l-0.1,0l-0.3,0l0-0.8l0.3,0l0.1,0l0.1,0l0.1,0l0.1,0l0,0.1l0,0.1l0,0.1
						L28,36.8L28,36.8L28,36.8z"/>
				</g>
				<g>
					<g id="LWPOLYLINE_16_">
						<polygon class="st6" points="23.8,38.9 23.8,35.5 25.8,35.5 25.8,36.3 24.8,36.3 24.8,36.8 25.7,36.8 25.7,37.5 24.8,37.5 
							24.8,38.1 25.8,38.1 25.9,38.9 						"/>
					</g>
					<path class="st6" d="M23.5,36.5l0-0.2l-0.1-0.2l-0.1-0.2l-0.2-0.2l-0.2-0.1l-0.3-0.1l-0.3,0l-0.1,0l-1.3,0l0,3.4l0.9,0l0-1.1
						l0.4,0l0.1,0l0.3,0l0.3-0.1l0.2-0.1l0.2-0.2l0.1-0.2l0.1-0.2l0-0.2l0-0.2L23.5,36.5z M22.6,36.7L22.6,36.7l0,0.1l0,0.1l0,0.1
						l-0.1,0.1l-0.1,0l-0.1,0l-0.1,0l-0.1,0l-0.3,0l0-0.8l0.3,0l0.1,0l0.1,0l0.1,0l0.1,0l0,0.1l0,0.1l0,0.1L22.6,36.7L22.6,36.7
						L22.6,36.7z"/>
					<g id="LWPOLYLINE_15_">
						<polygon class="st6" points="31.9,38.7 31.7,38.8 31.6,38.8 31.5,38.9 31.4,38.9 31.3,38.9 31.2,39 31.1,39 30.9,39 
							30.6,38.9 30.3,38.9 30,38.7 29.7,38.5 29.5,38.2 29.3,37.9 29.2,37.6 29.2,37.2 29.2,36.8 29.4,36.4 29.5,36.1 29.7,35.8 
							30,35.6 30.3,35.5 30.6,35.4 30.9,35.4 31,35.4 31.2,35.4 31.3,35.4 31.4,35.4 31.5,35.5 31.6,35.5 31.7,35.6 31.8,35.6 
							31.8,36.6 31.8,36.6 31.7,36.5 31.6,36.4 31.6,36.4 31.4,36.3 31.3,36.3 31.2,36.2 31,36.2 30.9,36.2 30.7,36.3 30.5,36.4 
							30.4,36.5 30.3,36.7 30.2,36.8 30.2,37 30.2,37.2 30.2,37.4 30.3,37.6 30.3,37.8 30.4,37.9 30.6,38 30.7,38.1 30.9,38.1 
							31.1,38.1 31.2,38.1 31.3,38.1 31.4,38.1 31.5,38 31.6,37.9 31.7,37.9 31.8,37.8 31.8,37.8 						"/>
					</g>
					<path class="st6" d="M34.9,37.4l-0.1-0.2L34.8,37l-0.2-0.2l-0.2-0.2l-0.2-0.1l-0.3-0.1l-0.3,0l-0.3,0l-0.3,0.1l-0.2,0.1
						l-0.2,0.2L32.4,37l-0.1,0.2l-0.1,0.2l0,0.3l0,0.3l0.1,0.2l0.1,0.2l0.2,0.2l0.2,0.2l0.2,0.1l0.3,0.1l0.3,0l0.3,0l0.3-0.1
						l0.2-0.1l0.2-0.2l0.2-0.2l0.1-0.2l0.1-0.2l0-0.3L34.9,37.4z M34.1,37.7L34.1,37.7l0,0.2l0,0.1l-0.1,0.1l-0.1,0.1l-0.1,0.1
						l-0.2,0l-0.2,0l-0.1-0.1l-0.1-0.1l-0.1-0.1l0-0.1l0-0.1l0-0.1l0-0.1l0-0.1l0-0.1l0-0.1l0.1-0.1l0.1-0.1l0.1-0.1l0.1,0l0.1,0
						l0.1,0l0.1,0l0.1,0.1l0.1,0.1l0.1,0.1l0,0.1l0,0.1L34.1,37.7L34.1,37.7z"/>
					<path class="st6" d="M28.3,37.7l0.2-0.1l0.2-0.1l0.1-0.1l0.1-0.1l0.1-0.1l0-0.2l0-0.1l0-0.1l0-0.2l0-0.2l-0.1-0.2l-0.1-0.2
						l-0.2-0.2l-0.2-0.1l-0.2-0.1l-0.3,0l-0.1,0l-1.4,0l0,3.4l0.9,0l0-1.1l0,0l0.3,0.5l0.4,0.6l1.1,0L28.3,37.7z M28,36.7L28,36.7
						l0,0.1l0,0.1l0,0.1l-0.1,0.1l-0.1,0l-0.1,0l-0.1,0l-0.1,0l-0.3,0l0-0.8l0.3,0l0.1,0l0.1,0l0.1,0l0.1,0l0,0.1l0,0.1l0,0.1
						L28,36.7L28,36.7L28,36.7z"/>
				</g>
			</g>
			<path class="st4" d="M133.9,41.6l-2,0l0-9.3l2,0c0,0,0.9,0.8,0.9,4.5C134.8,40.6,133.9,41.6,133.9,41.6z"/>
		</g>
	</g>
	<g>
		<line class="st8" x1="151.5" y1="138.9" x2="170.8" y2="138.9"/>
		<path class="st9" d="M195.7,134.9h12.9c1,0,1.8-0.8,1.8-1.8v0c0-1-0.8-1.8-1.8-1.8h-12.9c-1,0-1.8,0.8-1.8,1.8v0
			C193.9,134.1,194.7,134.9,195.7,134.9z"/>
		<path class="st10" d="M208.9,134.1h-12.9c-1,0-1.8-0.8-1.8-1.8c0,0,0-0.1,0-0.1c-0.2,0.3-0.4,0.6-0.4,1c0,1,0.8,1.8,1.8,1.8h12.9
			c0.9,0,1.7-0.7,1.7-1.6C210,133.8,209.5,134.1,208.9,134.1z"/>
		<path class="st11" d="M194.2,150.6h-17.9c-2.2,0-4-1.8-4-4v-16c0-2.2,1.8-4,4-4h17.9V150.6z"/>
		<rect x="161.8" y="132" class="st11" width="15.5" height="13.5"/>
		<rect x="161.8" y="138.8" class="st12" width="16.7" height="6.7"/>
		<path class="st12" d="M172.3,138.8v7.9c0,2.2,1.8,4,4,4h17.9v-11.9H172.3z"/>
		<path class="st9" d="M195.7,146.1h12.9c1,0,1.8-0.8,1.8-1.8l0,0c0-1-0.8-1.8-1.8-1.8h-12.9c-1,0-1.8,0.8-1.8,1.8l0,0
			C193.9,145.3,194.7,146.1,195.7,146.1z"/>
		<path class="st10" d="M208.9,145.2h-12.9c-1,0-1.8-0.8-1.8-1.8c0,0,0-0.1,0-0.1c-0.2,0.3-0.4,0.6-0.4,1c0,1,0.8,1.8,1.8,1.8h12.9
			c0.9,0,1.7-0.7,1.7-1.6C210,144.9,209.5,145.2,208.9,145.2z"/>
		<path class="st13" d="M194,153.9L194,153.9c-1.6,0-2.9-1.3-2.9-2.9v-24.8c0-1.6,1.3-2.9,2.9-2.9h0c1.6,0,2.9,1.3,2.9,2.9V151
			C197,152.6,195.7,153.9,194,153.9z"/>
		<circle class="st14" cx="181" cy="131.6" r="1.1"/>
		<circle class="st14" cx="181" cy="145.8" r="1.1"/>
		<line class="st8" x1="244.2" y1="138.8" x2="263.5" y2="138.8"/>
		<path class="st11" d="M219.1,150.6h17.9c2.2,0,4-1.8,4-4v-16c0-2.2-1.8-4-4-4h-17.9V150.6z"/>
		
			<rect x="235.9" y="132" transform="matrix(-1 -4.380641e-11 4.380641e-11 -1 487.3529 277.4749)" class="st11" width="15.5" height="13.5"/>
		
			<rect x="234.7" y="138.8" transform="matrix(-1 -4.526125e-11 4.526125e-11 -1 486.1225 284.3506)" class="st12" width="16.7" height="6.7"/>
		<path class="st12" d="M240.9,138.8v7.9c0,2.2-1.8,4-4,4h-17.9v-11.9H240.9z"/>
	</g>
	<g>
		<line class="st8" x1="12.7" y1="138.9" x2="32" y2="138.9"/>
		<path class="st9" d="M56.9,134.9h12.9c1,0,1.8-0.8,1.8-1.8v0c0-1-0.8-1.8-1.8-1.8H56.9c-1,0-1.8,0.8-1.8,1.8v0
			C55.1,134.1,55.9,134.9,56.9,134.9z"/>
		<path class="st10" d="M70.1,134.1H57.3c-1,0-1.8-0.8-1.8-1.8c0,0,0-0.1,0-0.1c-0.2,0.3-0.4,0.6-0.4,1c0,1,0.8,1.8,1.8,1.8h12.9
			c0.9,0,1.7-0.7,1.7-1.6C71.2,133.8,70.7,134.1,70.1,134.1z"/>
		<path class="st11" d="M55.3,150.6H37.5c-2.2,0-4-1.8-4-4v-16c0-2.2,1.8-4,4-4h17.9V150.6z"/>
		<rect x="23" y="132" class="st11" width="15.5" height="13.5"/>
		<rect x="23" y="138.8" class="st12" width="16.7" height="6.7"/>
		<path class="st12" d="M33.5,138.8v7.9c0,2.2,1.8,4,4,4h17.9v-11.9H33.5z"/>
		<path class="st9" d="M56.9,146.1h12.9c1,0,1.8-0.8,1.8-1.8l0,0c0-1-0.8-1.8-1.8-1.8H56.9c-1,0-1.8,0.8-1.8,1.8l0,0
			C55.1,145.3,55.9,146.1,56.9,146.1z"/>
		<path class="st10" d="M70.1,145.2H57.3c-1,0-1.8-0.8-1.8-1.8c0,0,0-0.1,0-0.1c-0.2,0.3-0.4,0.6-0.4,1c0,1,0.8,1.8,1.8,1.8h12.9
			c0.9,0,1.7-0.7,1.7-1.6C71.2,144.9,70.7,145.2,70.1,145.2z"/>
		<path class="st13" d="M55.2,153.9L55.2,153.9c-1.6,0-2.9-1.3-2.9-2.9v-24.8c0-1.6,1.3-2.9,2.9-2.9h0c1.6,0,2.9,1.3,2.9,2.9V151
			C58.2,152.6,56.9,153.9,55.2,153.9z"/>
		<circle class="st14" cx="42.2" cy="131.6" r="1.1"/>
		<circle class="st14" cx="42.2" cy="145.8" r="1.1"/>
		<g>
			<line class="st8" x1="83.3" y1="138.8" x2="102.6" y2="138.8"/>
			<path class="st11" d="M58.1,150.6H76c2.2,0,4-1.8,4-4v-16c0-2.2-1.8-4-4-4H58.1V150.6z"/>
			
				<rect x="75" y="132" transform="matrix(-1 -4.380641e-11 4.380641e-11 -1 165.4913 277.4749)" class="st11" width="15.5" height="13.5"/>
			
				<rect x="73.8" y="138.8" transform="matrix(-1 -4.460844e-11 4.460844e-11 -1 164.2609 284.3506)" class="st12" width="16.7" height="6.7"/>
			<path class="st12" d="M80,138.8v7.9c0,2.2-1.8,4-4,4H58.1v-11.9H80z"/>
		</g>
	</g>
	<g>
		<polygon class="st0" points="152,28.1 180.4,28.1 180.4,21.1 152,23.6 		"/>
		
			<rect x="152" y="30.1" transform="matrix(-1 -4.343871e-11 4.343871e-11 -1 332.4162 140.2806)" class="st0" width="28.4" height="80.1"/>
		
			<rect x="155.4" y="30.1" transform="matrix(-1 -4.703761e-11 4.703761e-11 -1 328.067 140.2806)" class="st1" width="17.3" height="80.1"/>
		
			<rect x="152" y="28.1" transform="matrix(-1 -4.595003e-11 4.595003e-11 -1 332.4283 58.1879)" class="st2" width="28.4" height="2"/>
		<path d="M177.7,69.2L177.7,69.2c0.5,0,0.8-0.4,0.8-0.8v-2.1c0-0.5-0.4-0.8-0.8-0.8l0,0c-0.5,0-0.8,0.4-0.8,0.8v2.1
			C176.8,68.9,177.2,69.2,177.7,69.2z"/>
		<g>
			<polygon class="st3" points="270.7,39.1 153.9,39.8 153.9,33 270.6,32.3 			"/>
			<polygon class="st2" points="270.7,41.6 154,42.2 153.9,39.7 270.7,39 			"/>
			<path class="st4" d="M152.3,42.3l1.8,0l0-9.5l-1.8,0c0,0-0.8,0.8-0.8,4.7C151.5,41.3,152.3,42.3,152.3,42.3z"/>
			<g id="LWPOLYLINE_11_">
				<g>
					<polygon class="st5" points="211.6,38.6 193.7,38.6 191.5,34.8 213.8,34.7 					"/>
				</g>
			</g>
			<g>
				<g>
					<g id="LWPOLYLINE_25_">
						<polygon class="st5" points="251.7,34.6 233.7,34.7 231.6,38.5 253.9,38.4 						"/>
					</g>
				</g>
			</g>
			<g>
				<g id="LWPOLYLINE_7_">
					<g>
						<path class="st6" d="M158.4,34.9l16.2,0c0.3,0,0.6,0.2,0.7,0.5l1.4,3.1c0.2,0.5-0.2,1.1-0.7,1.1l-18.9,0.1
							c-0.6,0-1-0.6-0.7-1.1l1.3-3.1C157.8,35.1,158.1,34.9,158.4,34.9z"/>
					</g>
				</g>
				<g>
					<g id="LWPOLYLINE_6_">
						<polygon class="st7" points="162.7,39.1 162.6,35.6 164.7,35.6 164.7,36.5 163.6,36.5 163.6,36.9 164.6,36.9 164.6,37.7 
							163.6,37.7 163.6,38.2 164.7,38.2 164.7,39 						"/>
					</g>
					<path class="st7" d="M162.4,36.6l0-0.2l-0.1-0.2l-0.1-0.2l-0.2-0.2l-0.2-0.1l-0.3-0.1l-0.3,0l-0.1,0l-1.3,0l0,3.4l0.9,0l0-1.1
						l0.4,0l0.1,0l0.3,0l0.3-0.1l0.2-0.1l0.2-0.2l0.1-0.2l0.1-0.2l0-0.2l0-0.2L162.4,36.6z M161.4,36.8L161.4,36.8l0,0.1l0,0.1
						l0,0.1l-0.1,0.1l-0.1,0l-0.1,0l-0.1,0l-0.1,0l-0.3,0l0-0.8l0.3,0l0.1,0l0.1,0l0.1,0l0.1,0l0,0.1l0,0.1l0,0.1L161.4,36.8
						L161.4,36.8L161.4,36.8z"/>
					<g id="LWPOLYLINE_3_">
						<polygon class="st7" points="170.7,38.9 170.6,38.9 170.5,39 170.3,39.1 170.2,39.1 170.1,39.1 170,39.1 169.9,39.1 
							169.8,39.1 169.4,39.1 169.1,39 168.8,38.9 168.5,38.7 168.3,38.4 168.2,38.1 168.1,37.7 168,37.3 168.1,36.9 168.2,36.6 
							168.3,36.2 168.6,36 168.8,35.8 169.1,35.6 169.4,35.6 169.8,35.5 169.9,35.5 170,35.5 170.1,35.6 170.2,35.6 170.3,35.6 
							170.5,35.7 170.6,35.7 170.7,35.8 170.7,36.8 170.6,36.7 170.6,36.7 170.5,36.6 170.4,36.5 170.3,36.5 170.2,36.4 170,36.4 
							169.9,36.4 169.7,36.4 169.5,36.5 169.4,36.6 169.2,36.7 169.1,36.8 169.1,37 169,37.2 169,37.4 169,37.6 169.1,37.8 
							169.2,37.9 169.3,38 169.4,38.2 169.5,38.2 169.7,38.3 169.9,38.3 170,38.3 170.1,38.3 170.2,38.2 170.3,38.2 170.4,38.1 
							170.5,38 170.6,38 170.7,37.9 						"/>
					</g>
					<path class="st7" d="M173.8,37.6l-0.1-0.2l-0.1-0.2l-0.2-0.2l-0.2-0.2l-0.2-0.1l-0.3-0.1l-0.3,0l-0.3,0l-0.3,0.1l-0.2,0.1
						l-0.2,0.2l-0.2,0.2l-0.1,0.2l-0.1,0.2l0,0.3l0,0.3l0.1,0.2l0.1,0.2l0.2,0.2l0.2,0.2l0.2,0.1l0.3,0.1l0.3,0l0.3,0L173,39
						l0.2-0.1l0.2-0.2l0.2-0.2l0.1-0.2l0.1-0.2l0-0.3L173.8,37.6z M172.9,37.9L172.9,37.9l0,0.2l0,0.1l-0.1,0.1l-0.1,0.1l-0.1,0.1
						l-0.2,0l-0.2,0l-0.1-0.1l-0.1-0.1l-0.1-0.1l0-0.1l0-0.1l0-0.1l0-0.1l0-0.1l0-0.1l0-0.1l0.1-0.1l0.1-0.1l0.1-0.1l0.1,0l0.1,0
						l0.1,0l0.1,0l0.1,0.1l0.1,0.1l0.1,0.1l0,0.1l0,0.1L172.9,37.9L172.9,37.9z"/>
					<path class="st7" d="M167.1,37.8l0.2-0.1l0.2-0.1l0.1-0.1l0.1-0.1l0.1-0.1l0-0.2l0-0.1l0-0.1l0-0.2l0-0.2l-0.1-0.2l-0.1-0.2
						l-0.2-0.2l-0.2-0.1l-0.2-0.1l-0.3,0l-0.1,0l-1.4,0l0,3.4l0.9,0l0-1.1l0,0l0.3,0.5l0.4,0.6l1.1,0L167.1,37.8z M166.9,36.8
						L166.9,36.8l0,0.1l0,0.1l0,0.1l-0.1,0.1l-0.1,0l-0.1,0l-0.1,0l-0.1,0l-0.3,0l0-0.8l0.3,0l0.1,0l0.1,0l0.1,0l0.1,0l0,0.1l0,0.1
						l0,0.1L166.9,36.8L166.9,36.8L166.9,36.8z"/>
				</g>
				<g>
					<g id="LWPOLYLINE_2_">
						<polygon class="st6" points="162.6,38.9 162.6,35.5 164.6,35.5 164.7,36.3 163.6,36.3 163.6,36.8 164.5,36.8 164.5,37.5 
							163.6,37.5 163.6,38.1 164.7,38.1 164.7,38.9 						"/>
					</g>
					<path class="st6" d="M162.3,36.5l0-0.2l-0.1-0.2l-0.1-0.2l-0.2-0.2l-0.2-0.1l-0.3-0.1l-0.3,0l-0.1,0l-1.3,0l0,3.4l0.9,0l0-1.1
						l0.4,0l0.1,0l0.3,0l0.3-0.1l0.2-0.1l0.2-0.2l0.1-0.2l0.1-0.2l0-0.2l0-0.2L162.3,36.5z M161.4,36.7L161.4,36.7l0,0.1l0,0.1
						l0,0.1l-0.1,0.1l-0.1,0l-0.1,0l-0.1,0l-0.1,0l-0.3,0l0-0.8l0.3,0l0.1,0l0.1,0l0.1,0l0.1,0l0,0.1l0,0.1l0,0.1L161.4,36.7
						L161.4,36.7L161.4,36.7z"/>
					<g id="LWPOLYLINE_1_">
						<polygon class="st6" points="170.7,38.7 170.5,38.8 170.4,38.8 170.3,38.9 170.2,38.9 170.1,38.9 170,39 169.9,39 169.7,39 
							169.4,38.9 169.1,38.9 168.8,38.7 168.5,38.5 168.3,38.2 168.1,37.9 168,37.6 168,37.2 168,36.8 168.2,36.4 168.3,36.1 
							168.5,35.8 168.8,35.6 169.1,35.5 169.4,35.4 169.7,35.4 169.8,35.4 170,35.4 170.1,35.4 170.2,35.4 170.3,35.5 170.4,35.5 
							170.5,35.6 170.6,35.6 170.7,36.6 170.6,36.6 170.5,36.5 170.4,36.4 170.4,36.4 170.2,36.3 170.1,36.3 170,36.2 169.9,36.2 
							169.7,36.2 169.5,36.3 169.3,36.4 169.2,36.5 169.1,36.7 169,36.8 169,37 169,37.2 169,37.4 169.1,37.6 169.1,37.8 
							169.2,37.9 169.4,38 169.5,38.1 169.7,38.1 169.9,38.1 170,38.1 170.1,38.1 170.2,38.1 170.3,38 170.4,37.9 170.5,37.9 
							170.6,37.8 170.7,37.8 						"/>
					</g>
					<path class="st6" d="M173.7,37.4l-0.1-0.2l-0.1-0.2l-0.2-0.2l-0.2-0.2l-0.2-0.1l-0.3-0.1l-0.3,0l-0.3,0l-0.3,0.1l-0.2,0.1
						l-0.2,0.2l-0.2,0.2l-0.1,0.2l-0.1,0.2l0,0.3l0,0.3l0.1,0.2l0.1,0.2l0.2,0.2l0.2,0.2l0.2,0.1l0.3,0.1l0.3,0l0.3,0l0.3-0.1
						l0.2-0.1l0.2-0.2l0.2-0.2l0.1-0.2l0.1-0.2l0-0.3L173.7,37.4z M172.9,37.7L172.9,37.7l0,0.2l0,0.1l-0.1,0.1l-0.1,0.1l-0.1,0.1
						l-0.2,0l-0.2,0l-0.1-0.1l-0.1-0.1l-0.1-0.1l0-0.1l0-0.1l0-0.1l0-0.1l0-0.1l0-0.1l0-0.1l0.1-0.1l0.1-0.1l0.1-0.1l0.1,0l0.1,0
						l0.1,0l0.1,0l0.1,0.1l0.1,0.1l0.1,0.1l0,0.1l0,0.1L172.9,37.7L172.9,37.7z"/>
					<path class="st6" d="M167.1,37.7l0.2-0.1l0.2-0.1l0.1-0.1l0.1-0.1l0.1-0.1l0-0.2l0-0.1l0-0.1l0-0.2l0-0.2l-0.1-0.2l-0.1-0.2
						l-0.2-0.2l-0.2-0.1l-0.2-0.1l-0.3,0l-0.1,0l-1.4,0l0,3.4l0.9,0l0-1.1l0,0l0.3,0.5l0.4,0.6l1.1,0L167.1,37.7z M166.8,36.7
						L166.8,36.7l0,0.1l0,0.1l0,0.1l-0.1,0.1l-0.1,0l-0.1,0l-0.1,0l-0.1,0l-0.3,0l0-0.8l0.3,0l0.1,0l0.1,0l0.1,0l0.1,0l0,0.1l0,0.1
						l0,0.1L166.8,36.7L166.8,36.7L166.8,36.7z"/>
				</g>
			</g>
			<path class="st4" d="M272.7,41.6l-2,0l0-9.3l2,0c0,0,0.9,0.8,0.9,4.5C273.6,40.6,272.7,41.6,272.7,41.6z"/>
		</g>
	</g>
</g>
</svg>
