<?xml version="1.0" encoding="utf-8"?>
<!-- Generator: Adobe Illustrator 24.2.0, SVG Export Plug-In . SVG Version: 6.00 Build 0)  -->
<svg version="1.1" id="Слой_1" xmlns="http://www.w3.org/2000/svg" xmlns:xlink="http://www.w3.org/1999/xlink" x="0px" y="0px"
	 viewBox="0 0 285 185" style="enable-background:new 0 0 285 185;" xml:space="preserve">
<style type="text/css">
	.st0{fill:none;stroke:#A0A3A9;stroke-width:2;stroke-miterlimit:10;}
	.st1{fill-rule:evenodd;clip-rule:evenodd;fill:#0A3C70;}
	.st2{fill-rule:evenodd;clip-rule:evenodd;fill:#434343;}
	.st3{fill-rule:evenodd;clip-rule:evenodd;fill:#393939;}
	.st4{fill-rule:evenodd;clip-rule:evenodd;fill:#265AA6;}
	.st5{fill-rule:evenodd;clip-rule:evenodd;fill:#0B4696;}
	.st6{fill-rule:evenodd;clip-rule:evenodd;fill:#F2F9FA;}
	.st7{fill-rule:evenodd;clip-rule:evenodd;fill:#F7C03A;}
	.st8{fill-rule:evenodd;clip-rule:evenodd;fill:#FFFFFF;}
	.st9{fill-rule:evenodd;clip-rule:evenodd;fill:#BDC2C4;}
	.st10{fill:#C2C7C1;}
	.st11{fill:#313133;}
	.st12{fill:#E6332A;}
	.st13{fill:#EDEDED;}
	.st14{fill:#D01317;}
	.st15{fill:#E21113;}
	.st16{fill:#444646;}
	.st17{fill:#525251;stroke:#373636;stroke-width:0.2183;stroke-miterlimit:10;}
	.st18{clip-path:url(#SVGID_2_);}
	.st19{fill:#0B4696;}
	.st20{fill:#265AA6;}
	.st21{fill:none;stroke:#383838;stroke-width:2.2351;stroke-miterlimit:10;}
	.st22{fill:#E4E3E4;}
	.st23{fill:#C7C6C8;}
	.st24{fill:none;stroke:#231F20;stroke-width:4.1473;stroke-miterlimit:10;}
	.st25{fill:none;stroke:#E4E3E4;stroke-width:3.9455;stroke-miterlimit:10;}
	.st26{fill:#BBBBBB;}
	.st27{fill:#FFFFFF;}
	.st28{fill:#E5E5E4;}
	.st29{fill:#C12026;}
	.st30{fill:#771F1D;}
	.st31{fill:#EC2024;}
	.st32{fill:none;stroke:#9D9B9D;stroke-width:6.7054;stroke-miterlimit:10;}
	.st33{fill:none;stroke:#A0A3A9;stroke-width:2.0805;stroke-miterlimit:10;}
</style>
<line class="st0" x1="171.2" y1="96.7" x2="111.5" y2="72.2"/>
<g>
	<g>
		<path class="st1" d="M167.4,96h5.1c2.5,0,4.5,2,4.5,4.5v3.5c0,2.5-2,4.5-4.5,4.5h-5.1c-2.5,0-4.5-2-4.5-4.5v-3.5
			C162.9,98,164.9,96,167.4,96z"/>
		<path class="st1" d="M261.5,96h5.1c2.5,0,4.5,2,4.5,4.5v3.5c0,2.5-2,4.5-4.5,4.5h-5.1c-2.5,0-4.5-2-4.5-4.5v-3.5
			C257,98,259.1,96,261.5,96z"/>
		<path class="st2" d="M189.1,153.8h-11c-2.5,0-4.6-2.1-4.6-4.6v-7.8c0-2.5,2.1-4.6,4.6-4.6h11c2.5,0,4.6,2.1,4.6,4.6v7.8
			C193.7,151.7,191.6,153.8,189.1,153.8z"/>
		<path class="st3" d="M189.1,153.8h-2.1l-3.4-2l-3.4,2h-2.1c-0.2,0-0.5,0-0.7-0.1l6.2-3.6l0,0l0,0l6.2,3.6
			C189.6,153.8,189.4,153.8,189.1,153.8z"/>
		<path class="st3" d="M175.6,153c-0.4-0.3-0.8-0.6-1.1-1l9.1-5.2l0,0l0,0l9.1,5.3c-0.3,0.4-0.7,0.7-1.1,1l-8-4.6L175.6,153z"/>
		<path class="st3" d="M173.8,150.7c-0.2-0.5-0.3-1-0.3-1.5v0l10.1-5.8l0,0l0,0l10.1,5.8v0c0,0.5-0.1,1-0.2,1.5l-9.8-5.7
			L173.8,150.7z"/>
		<polygon class="st3" points="173.6,147.5 173.6,145.8 183.6,140 183.6,140 183.6,140 193.7,145.8 193.7,147.5 183.6,141.6 		"/>
		<polygon class="st3" points="173.6,144.1 173.6,142.4 183.2,136.8 184,136.8 193.7,142.4 193.7,144.1 183.6,138.3 		"/>
		<path class="st3" d="M173.6,140.7c0.1-0.9,0.5-1.6,1.1-2.3l2.5-1.5c0.3-0.1,0.6-0.1,0.9-0.1h2.1L173.6,140.7L173.6,140.7z
			 M187.1,136.8h2.1c0.3,0,0.6,0,0.9,0.1l2.4,1.4c0.6,0.6,1,1.4,1.1,2.3L187.1,136.8z"/>
		<path class="st2" d="M256.2,153.8h-11c-2.5,0-4.6-2.1-4.6-4.6v-7.8c0-2.5,2.1-4.6,4.6-4.6h11c2.5,0,4.6,2.1,4.6,4.6v7.8
			C260.7,151.7,258.7,153.8,256.2,153.8z"/>
		<path class="st3" d="M256.2,153.8h-2.1l-3.4-2l-3.4,2h-2.1c-0.2,0-0.5,0-0.7-0.1l6.2-3.6l0,0l0,0l6.2,3.6
			C256.7,153.8,256.4,153.8,256.2,153.8z"/>
		<path class="st3" d="M242.7,153c-0.4-0.3-0.8-0.6-1.1-1l9.1-5.2l0,0l0,0l9.1,5.3c-0.3,0.4-0.7,0.7-1.1,1l-8-4.6L242.7,153z"/>
		<path class="st3" d="M240.9,150.7c-0.2-0.5-0.3-1-0.3-1.5v0l10.1-5.8l0,0l0,0l10.1,5.8v0c0,0.5-0.1,1-0.2,1.5l-9.8-5.7
			L240.9,150.7z"/>
		<polygon class="st3" points="240.6,147.5 240.6,145.8 250.7,140 250.7,140 250.7,140 260.7,145.8 260.7,147.5 250.7,141.6 		"/>
		<polygon class="st3" points="240.6,144.1 240.6,142.4 250.3,136.8 251.1,136.8 260.7,142.4 260.7,144.1 250.7,138.3 		"/>
		<path class="st3" d="M240.7,140.7c0.1-0.9,0.5-1.6,1.1-2.3l2.5-1.5c0.3-0.1,0.6-0.1,0.9-0.1h2.1L240.7,140.7L240.7,140.7z
			 M254.1,136.8h2.1c0.3,0,0.6,0,0.9,0.1l2.4,1.4c0.6,0.6,1,1.4,1.1,2.3L254.1,136.8z"/>
		<path class="st4" d="M217.2,75.6h27c6.2,1.6,16.4,22.5,22.4,29.3c0,0,1.6,2.6,3.3,9l1.2,23.1c0,0-1.6,7.5-9,6.2h-44.9h-44.9
			c-7.4,1.3-9-6.2-9-6.2l1.2-23.1c1.6-6.5,3.3-9,3.3-9c6-6.8,18-27.7,24.1-29.3H217.2z"/>
		<path class="st5" d="M269.9,114.9l1.2,22.1c0,0-1.1,5.2-5.8,6.2H169c-4.7-1-5.8-6.2-5.8-6.2l1.2-22.1H269.9z"/>
		<path class="st1" d="M270.7,130.6l0.3,6.4c0,0-1.1,5.2-5.8,6.2H169c-4.7-1-5.8-6.2-5.8-6.2l0.3-6.4H270.7z"/>
		<path class="st6" d="M204.4,121.4h25.2c0.5,0,1,0.4,1,1l0,0c0,0.5-0.4,1-1,1h-25.2c-0.5,0-1-0.4-1-1l0,0
			C203.4,121.8,203.9,121.4,204.4,121.4z"/>
		<path class="st6" d="M209,127h16.1c0.5,0,1,0.4,1,1l0,0c0,0.5-0.4,1-1,1H209c-0.5,0-1-0.4-1-1l0,0C208,127.4,208.4,127,209,127z"
			/>
		<path class="st7" d="M176.7,118.4h9.9c2.4,0,4.4,2,4.4,4.4l0,0c0,2.4-2,4.4-4.4,4.4h-9.9c-2.4,0-4.4-2-4.4-4.4l0,0
			C172.3,120.4,174.3,118.4,176.7,118.4z"/>
		<path class="st7" d="M247.6,118.4h9.9c2.4,0,4.4,2,4.4,4.4l0,0c0,2.4-2,4.4-4.4,4.4h-9.9c-2.4,0-4.4-2-4.4-4.4l0,0
			C243.2,120.4,245.1,118.4,247.6,118.4z"/>
		<path class="st8" d="M178.3,139.6c2,0,3.7-1.6,3.7-3.7c0-2-1.6-3.7-3.7-3.7c-2,0-3.7,1.6-3.7,3.7
			C174.7,138,176.3,139.6,178.3,139.6z"/>
		<path class="st8" d="M253.9,139.6c2,0,3.7-1.6,3.7-3.7c0-2-1.6-3.7-3.7-3.7c-2,0-3.7,1.6-3.7,3.7
			C250.3,138,251.9,139.6,253.9,139.6z"/>
		<path class="st8" d="M217.2,79.5h19.4c4.1,1.1,10.8,14.2,15.2,19.9l0.1,0.1h-69l0.3-0.7c4.6-6,11.9-18.3,15.9-19.3H217.2z"/>
		<polygon class="st9" points="222.1,99.6 220.1,99.6 224.4,79.5 226.4,79.5 		"/>
		<polygon class="st9" points="229.4,99.6 227.4,99.6 231.7,79.5 233.7,79.5 		"/>
	</g>
	<polygon class="st10" points="130,95 150.7,95 150.7,89.9 130,91.7 	"/>
	
		<rect x="130" y="96.5" transform="matrix(-1 -4.489221e-11 4.489221e-11 -1 280.6555 251.2538)" class="st10" width="20.7" height="58.3"/>
	
		<rect x="132.4" y="96.5" transform="matrix(-1 -4.673696e-11 4.673696e-11 -1 277.4898 251.2538)" class="st11" width="12.6" height="58.3"/>
	
		<rect x="130" y="95" transform="matrix(-1 -4.504897e-11 4.504897e-11 -1 280.6643 191.5017)" class="st12" width="20.7" height="1.4"/>
	<path d="M148.7,125L148.7,125c0.3,0,0.6-0.3,0.6-0.6v-1.5c0-0.3-0.3-0.6-0.6-0.6l0,0c-0.3,0-0.6,0.3-0.6,0.6v1.5
		C148.1,124.7,148.3,125,148.7,125z"/>
	<g>
		
			<rect x="130.9" y="93.9" transform="matrix(-0.9956 9.367888e-02 -9.367888e-02 -0.9956 408.5057 173.598)" class="st13" width="138.6" height="5"/>
		
			<rect x="131.2" y="98.8" transform="matrix(-0.9956 9.367888e-02 -9.367888e-02 -0.9956 409.4377 180.1905)" class="st12" width="138.6" height="1.9"/>
		<path class="st14" d="M130.4,107.3l1.3-0.1l-0.6-6.9l-1.3,0.1c0,0-0.5,0.6-0.3,3.4C129.8,106.6,130.4,107.3,130.4,107.3z"/>
		<g id="LWPOLYLINE_97_">
			<g>
				<polygon class="st15" points="173.2,100.7 160.1,101.9 158.3,99.3 174.4,97.7 				"/>
			</g>
		</g>
		<g>
			<g>
				<g id="LWPOLYLINE_13_">
					<polygon class="st15" points="201.9,95.2 188.9,96.4 187.6,99.3 203.8,97.8 					"/>
				</g>
			</g>
		</g>
		<g>
			<g id="LWPOLYLINE_93_">
				<g>
					<path class="st16" d="M134.3,101.5l11.7-1.1c0.2,0,0.5,0.1,0.6,0.3l1.2,2.2c0.2,0.4,0,0.8-0.5,0.9l-13.7,1.3
						c-0.4,0-0.7-0.4-0.6-0.8l0.8-2.3C133.9,101.7,134.1,101.5,134.3,101.5z"/>
				</g>
			</g>
			<g>
				<g id="LWPOLYLINE_92_">
					<polygon class="st17" points="137.7,104.3 137.5,101.8 138.9,101.6 139,102.2 138.2,102.3 138.2,102.7 138.9,102.6 139,103.1 
						138.3,103.2 138.3,103.6 139.1,103.5 139.2,104.1 					"/>
				</g>
				<path class="st17" d="M137.3,102.5l0-0.1l-0.1-0.1l-0.1-0.1L137,102l-0.2-0.1l-0.2,0l-0.2,0l-0.1,0l-0.9,0.1l0.2,2.5l0.7-0.1
					l-0.1-0.8l0.3,0l0.1,0l0.2,0l0.2-0.1l0.1-0.1l0.1-0.1l0.1-0.1l0-0.1l0-0.1l0-0.1L137.3,102.5z M136.6,102.7L136.6,102.7
					L136.6,102.7l0,0.1l0,0l0,0l0,0l-0.1,0l0,0l-0.1,0l-0.2,0l-0.1-0.6l0.2,0l0.1,0l0.1,0l0.1,0l0,0l0,0l0,0l0,0L136.6,102.7
					L136.6,102.7L136.6,102.7z"/>
				<g id="LWPOLYLINE_89_">
					<polygon class="st17" points="143.5,103.6 143.4,103.7 143.3,103.7 143.3,103.7 143.2,103.8 143.1,103.8 143,103.8 
						142.9,103.8 142.8,103.8 142.6,103.8 142.4,103.8 142.1,103.7 141.9,103.6 141.8,103.4 141.6,103.2 141.5,102.9 141.5,102.7 
						141.5,102.4 141.5,102.1 141.6,101.8 141.8,101.6 141.9,101.5 142.1,101.4 142.4,101.3 142.6,101.2 142.7,101.2 142.8,101.2 
						142.9,101.2 142.9,101.2 143,101.3 143.1,101.3 143.2,101.3 143.3,101.4 143.3,102.1 143.3,102 143.3,102 143.2,102 
						143.1,101.9 143,101.9 142.9,101.9 142.8,101.8 142.7,101.8 142.6,101.9 142.5,101.9 142.4,102 142.3,102.1 142.2,102.2 
						142.2,102.3 142.2,102.5 142.2,102.6 142.2,102.8 142.3,102.9 142.3,103 142.4,103.1 142.5,103.2 142.6,103.2 142.7,103.2 
						142.9,103.2 143,103.2 143,103.2 143.1,103.1 143.2,103.1 143.3,103.1 143.3,103 143.4,103 143.4,102.9 					"/>
				</g>
				<path class="st17" d="M145.6,102.5l-0.1-0.2l-0.1-0.1l-0.1-0.1l-0.2-0.1l-0.2-0.1l-0.2,0l-0.2,0l-0.2,0l-0.2,0.1L144,102
					l-0.1,0.1l-0.1,0.1l-0.1,0.2l0,0.2l0,0.2l0,0.2l0.1,0.2l0.1,0.1l0.1,0.1l0.2,0.1l0.2,0.1l0.2,0l0.2,0l0.2,0l0.2-0.1l0.2-0.1
					l0.1-0.1l0.1-0.1l0.1-0.2l0-0.2l0-0.2L145.6,102.5z M145,102.7L145,102.7l0,0.1l0,0.1l0,0.1l-0.1,0.1l-0.1,0.1l-0.1,0l-0.1,0
					l-0.1,0l-0.1-0.1l-0.1-0.1l0-0.1l0-0.1l0-0.1l0,0l0-0.1l0-0.1l0-0.1l0-0.1l0-0.1l0.1,0l0.1,0l0.1,0l0.1,0l0.1,0l0.1,0l0.1,0.1
					l0,0.1l0,0.1l0,0.1L145,102.7L145,102.7z"/>
				<path class="st17" d="M140.9,103.1l0.1-0.1l0.1-0.1l0.1-0.1l0.1-0.1l0-0.1l0-0.1l0-0.1l0-0.1l0-0.1l0-0.1l-0.1-0.1l-0.1-0.1
					l-0.1-0.1l-0.2-0.1l-0.2-0.1l-0.2,0l-0.1,0l-1,0.1l0.2,2.5l0.7-0.1l-0.1-0.8l0,0l0.3,0.4l0.3,0.4l0.8-0.1L140.9,103.1z
					 M140.6,102.4L140.6,102.4L140.6,102.4l0,0.1l0,0l0,0l0,0l-0.1,0l0,0l-0.1,0l-0.2,0l-0.1-0.6l0.2,0l0.1,0l0.1,0l0.1,0l0,0l0,0
					l0,0l0,0L140.6,102.4L140.6,102.4L140.6,102.4z"/>
			</g>
			<g>
				<g id="LWPOLYLINE_88_">
					<polygon class="st16" points="137.7,104.1 137.4,101.7 138.9,101.5 139,102.1 138.2,102.2 138.2,102.6 138.9,102.5 139,103 
						138.2,103.1 138.3,103.5 139.1,103.4 139.1,104 					"/>
				</g>
				<path class="st16" d="M137.3,102.4l0-0.1l-0.1-0.1l-0.1-0.1l-0.1-0.1l-0.2-0.1l-0.2,0l-0.2,0l-0.1,0l-0.9,0.1l0.2,2.5l0.7-0.1
					l-0.1-0.8l0.3,0l0.1,0l0.2,0l0.2-0.1l0.1-0.1l0.1-0.1l0.1-0.1l0-0.1l0-0.1l0-0.1L137.3,102.4z M136.6,102.6L136.6,102.6
					L136.6,102.6l0,0.1l0,0l0,0l0,0l-0.1,0l0,0l-0.1,0l-0.2,0l-0.1-0.6l0.2,0l0.1,0l0.1,0l0.1,0l0,0l0,0l0,0l0,0L136.6,102.6
					L136.6,102.6L136.6,102.6z"/>
				<g id="LWPOLYLINE_87_">
					<polygon class="st16" points="143.5,103.5 143.4,103.5 143.3,103.6 143.2,103.6 143.1,103.7 143.1,103.7 143,103.7 
						142.9,103.7 142.8,103.7 142.6,103.7 142.3,103.7 142.1,103.6 141.9,103.5 141.7,103.3 141.6,103.1 141.5,102.8 141.4,102.5 
						141.4,102.2 141.5,102 141.6,101.7 141.7,101.5 141.9,101.4 142.1,101.2 142.3,101.2 142.6,101.1 142.7,101.1 142.7,101.1 
						142.8,101.1 142.9,101.1 143,101.1 143.1,101.2 143.2,101.2 143.3,101.2 143.3,102 143.3,101.9 143.2,101.9 143.2,101.8 
						143.1,101.8 143,101.8 142.9,101.7 142.8,101.7 142.7,101.7 142.6,101.8 142.5,101.8 142.4,101.9 142.3,102 142.2,102.1 
						142.2,102.2 142.2,102.4 142.2,102.5 142.2,102.6 142.2,102.8 142.3,102.9 142.4,103 142.5,103 142.6,103.1 142.7,103.1 
						142.8,103.1 142.9,103.1 143,103.1 143.1,103 143.2,103 143.2,102.9 143.3,102.9 143.3,102.8 143.4,102.8 					"/>
				</g>
				<path class="st16" d="M145.6,102.4l-0.1-0.2l-0.1-0.1l-0.1-0.1l-0.2-0.1l-0.2-0.1l-0.2,0l-0.2,0l-0.2,0l-0.2,0.1l-0.2,0.1
					l-0.1,0.1l-0.1,0.1l-0.1,0.2l0,0.2l0,0.2l0,0.2l0.1,0.2l0.1,0.1l0.1,0.1l0.2,0.1l0.2,0.1l0.2,0l0.2,0l0.2,0l0.2-0.1l0.2-0.1
					l0.1-0.1l0.1-0.1l0.1-0.2l0-0.2l0-0.2L145.6,102.4z M145,102.6L145,102.6l0,0.1l0,0.1l0,0.1l-0.1,0.1l-0.1,0.1l-0.1,0l-0.1,0
					l-0.1,0l-0.1-0.1l-0.1-0.1l0-0.1l0-0.1l0-0.1l0,0l0-0.1l0-0.1l0-0.1l0-0.1l0-0.1l0.1,0l0.1,0l0.1,0l0.1,0l0.1,0l0.1,0l0.1,0.1
					l0,0.1l0,0.1l0,0.1L145,102.6L145,102.6z"/>
				<path class="st16" d="M140.8,103l0.1-0.1l0.1-0.1l0.1-0.1l0.1-0.1l0-0.1l0-0.1l0-0.1l0-0.1l0-0.1l0-0.1l-0.1-0.1l-0.1-0.1
					l-0.1-0.1l-0.2-0.1l-0.2-0.1l-0.2,0l-0.1,0l-1,0.1l0.2,2.5l0.7-0.1l-0.1-0.8l0,0l0.3,0.4l0.3,0.4l0.8-0.1L140.8,103z
					 M140.6,102.2L140.6,102.2L140.6,102.2l0,0.1l0,0l0,0l0,0l-0.1,0l0,0l-0.1,0l-0.2,0L140,102l0.2,0l0.1,0l0.1,0l0.1,0l0,0l0,0
					l0,0l0,0L140.6,102.2L140.6,102.2L140.6,102.2z"/>
			</g>
		</g>
		<path class="st14" d="M271,94l-1.5,0.1l-0.6-6.7l1.5-0.1c0,0,0.7,0.5,1,3.2C271.6,93.2,271,94,271,94z"/>
		<g id="LWPOLYLINE_85_">
			<g>
				<polygon class="st15" points="232.1,95.1 219.1,96.3 217.3,93.7 233.4,92.2 				"/>
			</g>
		</g>
		<g>
			<g>
				<g id="LWPOLYLINE_14_">
					<polygon class="st15" points="260.9,89.6 247.9,90.8 246.6,93.7 262.7,92.2 					"/>
				</g>
			</g>
		</g>
	</g>
</g>
<g>
	<defs>
		<circle id="SVGID_1_" cx="67.9" cy="94.6" r="49.5"/>
	</defs>
	<clipPath id="SVGID_2_">
		<use xlink:href="#SVGID_1_"  style="overflow:visible;"/>
	</clipPath>
	<g class="st18">
		<path class="st19" d="M-252-33.5l63.1,55.8l97.8,85c0,0-13.3,2.1-13,1.4s-13.5-3-13.5-3s-11.4-2-15.5-3.4
			c-3.8-1.3-16.2-7.1-16.2-7.1s-4.3-3-10.5-2.5c-1.7,0.1-5.1,1.2-6.6,2.1c-0.8,0.5-2.4,1.7-3,2.5c-0.7,1-1.6,3.4-1.8,4.6
			c-0.3,2.2,1.1,10.5,1.1,10.5l5.5,18.3l-91.4,21.5L-258-11.1L-252-33.5z"/>
		<path class="st19" d="M133.9,182.1l-9.4-1.8c0,0-41.3-4.4-52.3-12.1c-2.2-1.6-9.4-11.3-15.3-15.8c-5.7-4.3-17.3-10.8-20.9-12.4
			c-6.9-3.2-17.8-6.3-17.8-6.3l-29-8l-59.2-8.9l-23.8-6.4c0,0-52.3-41.8-88.2-76.6c-15.9-15.4-72.5-65.1-72.5-65.1l5-52.6l232,98.3
			l134.9,121.4l19.2,30.2l1.8,14.2L133.9,182.1z"/>
		<path class="st20" d="M-200.6-50.4C-199.2-49-63,31.6-16.3,57.5c16.8,9.3,21,10.1,54.4,32c8.1,5.3,34.5,25.4,41.6,32
			c6,5.6,22.4,21,22.4,21s21.2,22.6,26.5,30.6c1.7,2.5,4.6,8.7,4.6,8.7l11,0.9c0,0,0-5.7,0.7-7.5c1-2.7,4.4-7.7,6.6-9.4
			c1.6-1.3,5.4-3,7.3-3.7c3.1-1.1,9.6-2.8,12.8-3.7c26.7-6.9,80.5-19.1,107.4-24.7c11.6-2.4,46.6-9.1,46.6-9.1L324.3-66l-558.7-0.9
			L-200.6-50.4z"/>
		<path class="st21" d="M-261.2-36.2c6.4,0.3,120.7,111.6,162.8,143.3"/>
		<path class="st19" d="M74.1,170.4l19.5,6.1l39,6.7l13.1,0.6c0,0,1.8,15.4,3,20.4c1.8,7.6,9.3,28.8,9.8,29.6
			c3.7,6.7,11.6,21.6,11.6,21.6l-71.6-0.3l-29.9-63.1L74.1,170.4z"/>
		<path class="st21" d="M71.1,166.8c14.3,10.4,52.1,15.5,76.2,17.1"/>
		<path class="st22" d="M99,223c0,19.3-76.8-7.9-140.8-21.3c-34.8-7.3-70.3-17.8-93-32c-19.9-12.5-36.6-48.5-37.8-61.3
			c-0.5-5-1.6-16,14-18.6c12-2,44.8,15.5,68.9,18c50.1,5.1,98.9,15.8,130.8,32.9c7.9,4.3,18.7,11.7,27.4,21.9
			C85.5,182.7,99,210.2,99,223z"/>
		<path class="st23" d="M86.3,223.3c-14.5,0-42.2-7.1-71.4-14.6c-18.3-4.7-37.2-9.5-55.4-13.3c-40.5-8.5-71.9-19.3-90.9-31.2
			c-18.1-11.4-33.8-45.5-34.9-56.5c-0.6-6.2-0.3-10.3,8.7-11.7c0.2,0,0.5-0.1,1-0.1c5.3,0,15.4,3.5,26,7.2
			c12.9,4.5,27.5,9.6,40.1,10.9C-35.9,119.6,9.7,131,38,146.3c4.5,2.4,16.1,9.3,25.6,20.5c16.3,19.2,28.6,45,29,55.8
			C91.9,222.8,90.1,223.3,86.3,223.3z"/>
		<path class="st24" d="M-118.8,157.9c-1.2-0.2-2.5-0.6-3.6-1c-6.4-2.5-11.4-8.1-12.7-15.3c-2-11.1,5.3-21.7,16.4-23.7
			c4.7-0.9,9.3,0,13.2,2"/>
		
			<ellipse transform="matrix(0.9989 -4.709981e-02 4.709981e-02 0.9989 -7.1799 -3.6498)" class="st25" cx="-81" cy="150.5" rx="28.3" ry="28.8"/>
		<circle class="st22" cx="-80.9" cy="150.4" r="19.6"/>
		<circle class="st22" cx="33.6" cy="183.7" r="17.3"/>
		<path class="st22" d="M6.6,177.6c0.7-4.7,3.4-8.6,7.1-11.1C13,153.7,3.5,142.8-9.7,140.7c-15.1-2.3-29.2,8-31.5,23.1
			c-2.3,15.1,8,29.2,23.1,31.5c10,1.5,19.5-2.5,25.5-9.7C6.5,183.1,6.1,180.4,6.6,177.6z"/>
		<g>
			<polygon class="st26" points="-177,126.4 296,11.2 300,24.6 -175.5,140.2 			"/>
			<polygon class="st27" points="-176.5,124.7 296.5,9.5 300.5,22.9 -175,138.1 			"/>
			<polygon class="st28" points="291.3,50.3 -175.1,164.1 -175.3,139.9 291.3,26.7 			"/>
			<polygon class="st29" points="172.6,78.6 67.8,104 56.8,84.1 173.9,55.7 			"/>
			<polygon class="st27" points="-173.6,163.3 299.4,48 301.1,52.8 -174.4,168 			"/>
			<polygon class="st29" points="-70.5,115.1 -175.3,140.4 -176.6,163.3 -59.5,135 			"/>
			<polygon class="st29" points="-174.6,168.1 298.4,52.8 301,58.4 -173.8,175.7 			"/>
			<path class="st30" d="M-173.7,171.8l226.2-55c0,0,3.9,1.8,21.9-2.4c9.4-2.2,10-2.8,15.6-6.5c0.3-0.2,1.5-0.4,1.5-0.4l209-51.2
				l0.7,1.9L93.7,109.7c-2.4,0.2-6.3,4.2-20.4,7.5c-12,2.4-24,3.5-24,3.5l-222.9,54.8L-173.7,171.8z"/>
			<path class="st31" d="M89.2,107.7c-0.9,0.4-5.6,4.5-17.3,6.7c-11.1,2.1-21.1,2.9-17.9,1.4c1.4-0.6,6.5-4.4,16.6-6.7
				S89.7,107.5,89.2,107.7z"/>
		</g>
		<path class="st32" d="M170.9,255.9c0,0-14.5-33.8-18.1-46.2c-2.1-7.4-6.2-24.5-4.3-32c0.9-3.5,3.7-9.9,6.9-11.7
			c38.9-21.3,173.5-37,173.5-37"/>
		<path class="st20" d="M-139.5,166.8l27.7,12.2l60.3,18.3l65.2,14.6l39.9,11l40.2,4.9l40.8,18.3l-50.9-4.6l-64.6-7.9
			c0,0-59.1-9.8-60-10.4c-0.9-0.6-45.1-13.1-45.1-13.1l-50.9-23.5l-20.7-16.8L-139.5,166.8z"/>
	</g>
</g>
<circle class="st33" cx="67.9" cy="94.6" r="49.5"/>
</svg>
