<svg id="Слой_1" xmlns="http://www.w3.org/2000/svg" xmlns:xlink="http://www.w3.org/1999/xlink" x="0" y="0" width="400" height="550" viewBox="220.945 320.275 400 550" enable-background="new 220.945 320.275 400 550">
 <defs/>
 <path fill="#4d87b8" d="m343.19 662.53l-.233.081-.206.117-.152.183-.082.224v.239l.082.223.152.177.206.124.233.074-4.673-.72 4.673-.722m150.91 1.442l.234-.074.208-.124.152-.178.079-.224v-.238l-.079-.223-.152-.183-.208-.117-.234-.081 4.678.72-4.678.722"/>
 <path fill="#4d87b8" d="m480.74 649.05l.234-.081.21-.115.148-.183.083-.224v-.237l-.083-.221-.148-.183-.21-.12-.234-.076 4.678.72-4.678.72m-118.86-1.438l-.233.075-.207.12-.151.182-.083.221v.237l.083.224.151.183.207.116.233.08-4.674-.719 4.674-.719"/>
 <path fill="#4d87b8" d="m329.52 479.42l-.079-.233-.12-.204-.179-.153-.224-.083h-.237l-.225.083-.179.153-.12.204-.08.233.72-4.675.723 4.675m-1.441 150.89l.08.232.12.207.179.149.225.085h.237l.224-.085.179-.149.12-.207.079-.232-.722 4.673-.721-4.673"/>
 <path fill="#4d87b8" d="m375.44 618.55l-.08-.233-.117-.206-.182-.148-.223-.082h-.237l-.224.082-.179.148-.121.206-.076.233.719-4.67.72 4.67m-1.439 11.753l.076.232.121.207.179.149.224.085h.237l.223-.085.182-.149.117-.207.08-.232-.721 4.673-.718-4.673"/>
 <path fill="#4d87b8" d="m390.47 693.47l.077.236.117.199.185.154.221.081h.236l.223-.081.182-.154.119-.199.078-.236-.72 4.673-.718-4.673m1.438 17.357l-.078-.234-.119-.207-.182-.147-.223-.083h-.236l-.221.083-.185.147-.117.207-.077.234.718-4.676.72 4.676"/>
 <path fill="#4d87b8" d="m330.42 694.68l-.08-.233-.115-.208-.184-.154-.222-.08h-.238l-.221.08-.185.154-.118.208-.074.233.716-4.675.721 4.675m-1.436 10.803l.074.233.119.201.184.153.221.08h.238l.222-.08.184-.153.115-.201.08-.233-.721 4.67-.716-4.67m185.03-16.02l.079.233.117.208.183.148.226.081h.233l.223-.081.185-.148.116-.208.076-.233-.715 4.67-.723-4.67m1.436 25.367l-.074-.231-.119-.205-.182-.151-.223-.083h-.233l-.226.083-.183.151-.117.205-.079.231.72-4.672.716 4.672m12.973-354.65l-.076-.232-.123-.207-.183-.153-.221-.078h-.229l-.226.078-.183.153-.122.207-.075.232.715-4.67.723 4.67m-1.437 270.12l.077.232.122.207.181.149.226.085h.229l.222-.085.182-.149.123-.207.076-.232-.721 4.673-.717-4.673"/>
 <path fill="#4d87b8" d="m512.08 630.3l.076.232.122.207.177.149.226.085h.234l.225-.085.18-.149.119-.207.077-.232-.718 4.673-.718-4.673m1.435-257.71l-.077-.234-.119-.204-.18-.154-.225-.08h-.236l-.224.08-.178.154-.122.204-.075.234.716-4.673.72 4.673"/>
 <path fill="#4d87b8" d="m394.4 575.24l.234-.075.205-.119.154-.184.079-.224v-.235l-.079-.223-.154-.184-.205-.117-.234-.076 4.673.717-4.673.72m-8.01-1.435l-.234.077-.204.117-.154.184-.08.223v.236l.08.223.154.185.204.118.234.075-4.673-.718 4.673-.72m108.65-225.5l.231-.077.209-.123.148-.178.088-.223v-.239l-.088-.226-.148-.176-.209-.123-.231-.079 4.675.722-4.675.722m-155.06-1.443l-.233.079-.206.123-.153.176-.08.226v.239l.08.223.153.178.206.123.233.077-4.673-.721 4.673-.723"/>
 <path fill="none" stroke="#4d87b8" stroke-width=".5" stroke-linecap="round" stroke-linejoin="round" stroke-miterlimit="10" d="m498.77 663.25h-160.26m0-29.329v33.02m160.26-33.02v33.02"/>
 <path fill="none" stroke="#4d87b8" stroke-width=".5" stroke-linecap="round" stroke-linejoin="round" stroke-miterlimit="10" d="m357.21 648.33h128.21m0-14.411v18.569m-128.21-18.569v18.569"/>
 <path fill="none" stroke="#4d87b8" stroke-width=".5" stroke-linecap="round" stroke-linejoin="round" stroke-miterlimit="10" d="m328.8 634.98v-160.23m6.493 0h-10.183m13.583 160.23h-13.583"/>
 <path fill="none" stroke="#4d87b8" stroke-width=".5" stroke-linecap="round" stroke-linejoin="round" stroke-miterlimit="10" d="m374.72 634.98v-21.1m-17.503 21.1h21.19"/>
 <path fill="none" stroke="#4d87b8" stroke-width=".5" stroke-linecap="round" stroke-linejoin="round" stroke-miterlimit="10" d="m391.19 698.14v-19.257m0 27.27v-8.01m0 8.01v8.988"/>
 <path fill="none" stroke="#4d87b8" stroke-width=".5" stroke-linecap="round" stroke-linejoin="round" stroke-miterlimit="10" d="m329.7 710.15v-20.15m12.68 20.15h-15.429m187.78-16.02v-24.06m0 40.08v-16.02m0 16.02v8.986m-19.832-25.01h23.05m-23.05 16.02h23.05m9.747-75.18v-279.47m-28.917 0h32.14m-32.34 279.47h32.34"/>
 <path fill="none" stroke="#4d87b8" stroke-width=".5" stroke-linecap="round" stroke-linejoin="round" stroke-miterlimit="10" d="m316.21 690.01v50.06m137.27-.0001h-140.49m27.748-51h-44.711"/>
 <path fill="none" stroke="#4d87b8" stroke-width=".5" stroke-linecap="round" stroke-linejoin="round" stroke-miterlimit="10" d="m512.79 367.92v267.05m-14.206 0h15.545m-19.353-267.05h21.235"/>
 <path fill="none" stroke="#4d87b8" stroke-width=".5" stroke-linecap="round" stroke-linejoin="round" stroke-miterlimit="10" d="m381.71 574.52h17.359m-63.768-226.93h164.41m0 7.905v-11.601m-164.41 116.15v-116.15"/>
 <path fill="#4d87b8" d="m315.49 735.39l.076.231.121.21.179.151.225.081h.238l.222-.081.182-.151.118-.21.079-.231-.721 4.67-.719-4.67m1.439-40.713l-.079-.233-.118-.208-.182-.154-.222-.08h-.238l-.225.08-.179.154-.121.208-.076.233.718-4.675.722 4.675"/>
 <path fill="none" stroke="#4d87b8" stroke-width=".942" stroke-linecap="round" stroke-linejoin="round" stroke-miterlimit="10" d="m498.58 633.9h.042.038.033.033.021.016.001.005m-.002 1.071h-.004-.001-.016-.021-.033-.033-.039-.041m.197-1.071v1.071m-.196-1.071h-3.215m3.215 1.071h-3.215m-.474-1.071h.067.064.063.06.063.057.051.048m.0001 1.071h-.048-.053-.055-.063-.06-.064-.063-.067m-.0001-1.071h-8.807m8.807 1.071h-8.807m.003 0h-.129-.127-.114-.104-.083-.059-.037-.013m0-1.071h.013.037.059.083.104.114.127.129m-.666 1.071v-1.071m9.746-274.39h-.074-.074-.07-.063-.05-.037-.021-.009m-.002 4.405v-4.405m0 274.39v-265.98m3.608-8.412h-3.208m3.609 0h-.001-.021-.036-.054-.061-.064-.077-.078m.401 274.39v-274.39m-141.56 8.412h-.008-.024-.036-.049-.06-.069-.076-.081m.403 265.98v-265.98m-.402 0h-3.204m.0001 0h-.079-.074-.07-.06-.05-.037-.021-.008m-.002 265.98v-265.98m132.61 0h-.075-.073-.07-.063-.048-.034-.021-.011m-.0001 16.691v-16.691m0 23.499v-.133m0 33.381v-26.57m0 33.379v-.133m0 154.89v-148.08m0 154.89v-.134m0 40.99v-34.18m4.01-231.8h-.009-.026-.036-.051-.059-.067-.079-.077m.404 265.98v-265.98m-.404 0h-3.207m-143.3-8.412h152.25m1.334-1.203l-.2-.025-.18-.076-.168-.116-.132-.153-.08-.183-.039-.2.015-.199.058-.191.112-.166.144-.137.178-.098.194-.051h.202l.191.051.176.098.152.137.104.166.062.191.013.199-.036.2-.087.183-.128.153-.16.116-.19.076-.201.025m-154.92 0l-.2-.025-.186-.076-.164-.116-.128-.153-.084-.183-.04-.2.015-.199.061-.191.108-.166.146-.137.175-.098.195-.051h.202l.195.051.177.098.145.137.108.166.062.191.012.199-.037.2-.086.183-.128.153-.161.116-.188.076-.199.025m157.59.803v-3.204m-160.26 3.204v-3.204m0-.399h160.26m-160.26 278.4h.003.001.014.022.027.034.041.042m.0001 1.071h-.042-.041-.034-.027-.022-.014-.001-.003m-.0001 0v-1.071m3.411 0h-3.216m3.216 1.071h-3.216m17.834-1.071h.129.125.118.101.082.062.037.015m-.002 1.071h-.015-.037-.062-.082-.101-.118-.125-.129m.669-1.071v1.071m-.667-1.071h-14.15m14.15 1.071h-14.15m-.471-1.071h.047.054.056.058.063.063.066.064m0 1.071h-.064-.066-.064-.063-.058-.056-.054-.047m152.84-267.05v-.008-.022-.039-.048-.063-.066-.077-.077m-152.25.4v-.008-.022-.039-.048-.063-.066-.077-.077m146.91.4h5.339m-38.596 0h29.25m-128.21 0h96.29m-110.98 0h10.687m141.56-.4v-3.206m-152.25 3.206v-3.206m152.25 0v-.079-.073-.072-.059-.051-.036-.023-.009m-35.785.0001h35.785m-152.25 0h108.18m-108.18.401v-.079-.073-.072-.059-.051-.036-.023-.009m8.681 269.99l2-2m-.0001-6.01h-10.686m.0001 6.01l2 2m150.24-8.01h-5.339m3.336 8.01l2-2m-5.339 0l1.999 2m4.935-276.19l.06-.112.011-.134-.035-.122-.086-.099-.112-.061-.131-.012-.123.037-.101.086-.062.115-.012.127.038.125.086.101.116.061.126.011.127-.038.098-.085m.079.064l.07-.125.025-.139-.02-.14-.065-.129-.105-.097-.127-.061-.147-.014-.14.032-.117.077-.089.109-.053.136-.002.143.051.134.08.115.118.083.14.037.144-.011.129-.053.108-.097m.23.184l.099-.161.054-.185.003-.19-.046-.185-.089-.167-.132-.137-.163-.1-.18-.051-.192-.002-.185.041-.169.094-.135.131-.1.162-.055.182-.004.19.044.183.096.169.128.136.163.098.187.056.184.004.188-.048.166-.092.138-.128m-155.22-.248l.059-.112.001-.134-.038-.122-.083-.099-.114-.061-.13-.012-.125.037-.1.086-.062.115-.001.127.04.125.083.101.116.061.129.011.124-.038.101-.085m.078.064l.069-.125.024-.139-.02-.14-.066-.129-.104-.097-.13-.061-.141-.014-.141.032-.119.077-.09.109-.05.136v.143l.045.134.084.115.119.083.138.037.145-.011.131-.053.107-.097m.227.184l.098-.161.056-.185.004-.19-.047-.185-.089-.167-.132-.137-.163-.1-.181-.051-.191-.002-.184.041-.167.094-.137.131-.096.162-.056.182-.003.19.044.183.091.169.13.136.163.098.182.056.189.004.187-.048.165-.092.137-.128m.768 1.547h-.007-.023-.037-.049-.062-.069-.074-.079m.4 4.405v-4.405m0 274.39v-265.98m-3.606-8.412h-.078-.074-.07-.062-.048-.037-.023-.008m.0001 274.39v-274.39m3.606 0h-3.206m14.29 115.23h-10.686m10.686-14.687h-10.686m5.343 6.04l.288-.024.283-.073.262-.115.241-.164.206-.198.173-.233.129-.257.084-.275.039-.29-.014-.287-.059-.28-.108-.269-.152-.245-.192-.219-.223-.182-.252-.14-.272-.096-.286-.05h-.289l-.282.05-.275.096-.252.14-.223.182-.192.219-.15.245-.108.269-.06.28-.015.287.039.29.083.275.129.257.173.233.209.198.238.164.266.115.277.073.285.024m14.157 143.78h.668m-.668.395h.668m117.52-.395h.669m-.669.395h.669m-118.19-.395v.014.044.073.102.12.141.147.158m117.52 0v-.158-.147-.141-.12-.102-.073-.044-.014m-117.52 0h117.52m.0001 1.103v-.305m-117.52.0001v.305m0-.0001h-.668m0 0v2.899m0 .0001h118.86m0-2.9v2.899m0-2.899h-.669m.669-236.11v-.008-.022-.037-.051-.06-.07-.074-.079m-118.86.401v-.008-.022-.037-.051-.06-.07-.074-.079m104.84.401h14.02m-118.86 0h80.8m38.06-3.605v-.078-.075-.068-.062-.05-.039-.022-.007m-14.511 0h14.511m-118.86 0h81.29m-81.29.401v-.078-.075-.068-.062-.05-.039-.022-.007m118.86 3.607v-3.206m-118.86 3.206v-3.206m122.46-1.734h-3.207m3.207 245.69h-3.207m-.398-244.35v-1.333m0 241.45v-236.11m0 240.35v-1.334m4-229.27v-15.09m0 55.14v-26.57m0 188.14v-148.08m0 177.05v-15.489m-123.26-230.2h-3.205m3.205 245.69h-3.205m-.401 0v-245.69m4.01 1.333v-1.333m0 241.45v-236.11m0 240.35v-1.334m-23.504-153.38l-.378.228-.506.402-.413.467-.323.535-.244.587-.18.638-.15.943-.072 1-.017 1.037.011 1.062m11.284-4.677h.673m-11.957 4.677l-.011 1.076.021 1.058.074 1.016.16.952.278.874.313.615.417.544.533.457.487.308m23.903-14.247l.082.007.074.023.069.039.06.049.051.061.036.067.023.077.006.076m0 13.889l-.006.08-.023.073-.036.071-.051.06-.06.052-.069.037-.074.021-.082.006m.401-14.288v13.887m-.8-14.287h.399m0 14.687h-.398m-24.875 0h-.029-.192-.312-.4-.26-.261-.224-.136-.021m1.835-14.687h-.029-.192-.312-.4-.26-.261-.224-.136-.021m-.0001 14.687v-14.687m27.24 14.666v.021m0-14.687v.022m-4.54.646h-.802m0 13.354h.802m-.802-14.02h.802m-20.815 0h1.317m-1.317 13.09v1.596m0-14.688v1.579m1.317 13.11h-1.317m20.815 0h-.802m-8.89-9.223v-2.225m-2.127 1.102l.023.283.07.273.117.256.16.236.195.204.229.169.252.127.27.083.281.035.285-.012.275-.061.263-.104.242-.151.212-.186.179-.219.139-.249.094-.266.046-.278v-.284l-.046-.28-.094-.267-.139-.246-.179-.222-.212-.187-.242-.146-.263-.107-.275-.061-.285-.012-.281.039-.27.082-.252.126-.229.171-.195.203-.16.234-.117.258-.07.274-.023.285m1.195 1.123h.932m-.932-2.225v2.225m.932-2.225h-.932m138.03-31.814h-.027-.065-.112-.15-.178-.191-.211-.207-.2-.172-.153-.105-.077-.021m1.869 6.679h-.027-.065-.112-.15-.178-.191-.211-.207-.2-.172-.153-.105-.077-.021m1.869 0v-6.679m0 161.57h-.027-.065-.112-.15-.178-.191-.211-.207-.2-.172-.153-.105-.077-.021m1.869 6.675h-.027-.065-.112-.15-.178-.191-.211-.207-.2-.172-.153-.105-.077-.021m1.869 0v-6.676m0-201.62h-.027-.065-.112-.15-.178-.191-.211-.207-.2-.172-.153-.105-.077-.021m1.869 6.677h-.027-.065-.112-.15-.178-.191-.211-.207-.2-.172-.153-.105-.077-.021m1.869 0v-6.677m0 194.82h-.027-.065-.112-.15-.178-.191-.211-.207-.2-.172-.153-.105-.077-.021m1.869 6.676h-.027-.065-.112-.15-.178-.191-.211-.207-.2-.172-.153-.105-.077-.021m1.869 0v-6.676m0-161.57h-.027-.065-.112-.15-.178-.191-.211-.207-.2-.172-.153-.105-.077-.021m1.869 6.676h-.027-.065-.112-.15-.178-.191-.211-.207-.2-.172-.153-.105-.077-.021m1.869 0v-6.676m0-40.06h-.027-.065-.112-.15-.178-.191-.211-.207-.2-.172-.153-.105-.077-.021m1.869 6.675h-.027-.065-.112-.15-.178-.191-.211-.207-.2-.172-.153-.105-.077-.021m1.869 0v-6.675m-41.971-10.336l.008.071.02.069.036.063.048.06.097.067.07.027.092.001.088-.001.069-.026.102-.068.047-.06.034-.063.019-.069.007-.071-.007-.066-.019-.07-.034-.063-.047-.061-.102-.068-.069-.027-.088-.013-.092.013-.07.027-.097.068-.048.061-.036.063-.02.07-.008.066m22.77 0l-.006-.066-.02-.07-.032-.063-.046-.061-.104-.068-.07-.027-.087-.013-.091.013-.073.027-.094.068-.053.061-.035.063-.018.07-.009.066.009.071.018.069.035.063.053.06.094.067.073.027.091.001.087-.001.07-.026.104-.068.046-.06.032-.063.02-.069.006-.071m0-2.536l-.006-.068-.02-.069-.032-.063-.046-.059-.104-.069-.07-.028-.087-.011-.091.011-.073.028-.094.069-.053.059-.035.063-.018.069-.009.068.009.07.018.066.035.066.053.056.094.072.073.025.091.011.087-.011.07-.025.104-.072.046-.056.032-.067.02-.066.006-.069m-22.77 0l.008.07.02.066.036.066.048.056.097.072.07.025.092.011.088-.011.069-.025.102-.072.047-.056.034-.067.019-.066.007-.07-.007-.068-.019-.069-.034-.063-.047-.059-.102-.069-.069-.028-.088-.011-.092.011-.07.028-.097.069-.048.059-.036.063-.02.069-.008.069m-.583 0l.066-.331.188-.283.282-.187.329-.068.338.068.28.187.188.283.064.331-.064.333-.188.281-.28.188-.338.065-.329-.065-.282-.188-.188-.281-.066-.333m0 2.536l.066-.329.188-.282.282-.188.329-.065.338.065.28.188.188.282.064.329-.064.334-.188.28-.28.189-.338.064-.329-.064-.282-.189-.188-.28-.066-.334m-.049-3.137v3.737m0 0l1.575.908m0-5.553l-1.575.908m23.985 3.137l-.064.334-.187.28-.284.189-.331.064-.331-.064-.282-.189-.188-.28-.064-.334.064-.329.188-.282.282-.188.331-.065.331.065.284.188.187.282.064.329m0-2.536l-.064.333-.187.281-.284.188-.331.065-.331-.065-.282-.188-.188-.281-.064-.333.064-.331.188-.283.282-.187.331-.068.331.068.284.187.187.283.064.331m.057 3.136v-3.737m0 0l-1.581-.908m0 5.553l1.581-.908m-12.66 2.404v-.732m1.27.732h-1.271m1.271 0v-.732m1.501 0h-.021-.071-.12-.155-.201-.234-.265-.286-.303-.321-.316-.315-.304-.294-.263-.232-.195-.162-.115-.073-.023m4.269-7.078h-.021-.071-.12-.155-.201-.234-.265-.286-.303-.321-.316-.315-.304-.294-.263-.232-.195-.162-.115-.073-.023m-7.88 6.313v-.103m20.03.103v-.103m-20.03.103h-.429m0 0l.045.028m12.533.0001h8.261m-20.794 0h8.262m12.532 0l.047-.028m0-.0001h-.426m-7.882-.023l-.004-.002-.05-.006-.089-.006-.143-.006-.183-.005-.215-.004-.247-.004-.281-.003-.297-.002h-.31-.317m.002-.0001h-.32-.311l-.297.002-.276.003-.249.004-.218.004-.18.005-.138.006-.098.006-.047.006-.004.002m-7.877-5.421v-.105m20.03.105v-.105m-7.882-.028h8.261m-20.794 0h8.262m-8.262 0l-.047.026m.002 0h.429m20.03.0001h.426m0-.0001l-.047-.026m-12.532.05l.005.003.046.006.1.007.136.005.18.007.218.003.249.004.276.003.297.002h.311.322.315.311l.298-.002.279-.003.251-.004.212-.003.184-.007.141-.005.091-.007.048-.006.006-.003m-12.154 5.425v-1.539m20.03 1.539v-1.539m-20.03 1.539h20.03m0-1.538v-2.269m-20.03 2.269v-2.269m0 2.269h20.03m0-2.269v-1.535m-20.03 0h20.03m-20.03 1.535v-1.535m0 1.535h20.03m-12.58-6.807l-.026-.141-.067-.126-.104-.098-.131-.058-.142-.001-.141.034-.117.078-.091.112-.048.134v.146l.048.133.091.113.117.079.141.033.142-.011.131-.055.104-.099.067-.125.026-.139m-1.57-1v2m0 0h1.873m4.54 0h1.866m0 0v-2m-.701 1l-.023-.141-.067-.126-.104-.098-.133-.058-.14-.001-.142.034-.113.078-.093.112-.047.134v.146l.047.133.093.113.113.079.142.033.14-.011.133-.055.104-.099.067-.125.023-.139m.701-1v-.079-.073-.072-.059-.051-.035-.023-.009m-8.279 0v.009.023.035.051.059.072.073.079m0-.801v.399m0-.399h8.279m0 0v.399m-8.279.0001h8.279m-6.406 2.536h.023.066.119.156.197.235m2.943 0h.232.194.161.113.078.021m-4.538-.799h.036.082.133.169.213.246.18m2.418 0h.175.246.215.173.129.086.035.002m-3.74.799h.104.114.042m2.419 0h.042.108.111m-2.68-1.809h.014.06.11.147.187.216.232.244m0 0h.243.235.212.184.151.104.064.015m-2.552 4.09v.207.189.171.147.119.086.054.017m2.671-.99v.207.189.171.147.119.086.054.017m-2.671-1.247v.257m2.671-.257v.257m-2.671-.753v.009.027.043.058.074.087.093.104m2.671-.495v.009.027.043.058.074.087.093.104m-2.671-1.161v.666m2.671-.666v.666m0 0h-2.672m2.672-1.333h-.319-.335-.336-.343-.347-.338-.329-.325m.0001.667v-.667m2.671.667h-.319-.335-.336-.343-.347-.338-.329-.325m2.672 0v-.667m-118.32-7.22l.004.06.015.056.026.052.033.048.039.042.05.03.051.026.057.018.059.003m.0001-4l-.067.003-.061.021-.059.027-.049.044-.042.05-.031.056-.02.064-.005.063m.668-.13v-.04-.037-.033-.036-.025-.015-.012-.002m-.334.002h.333m-.668 3.668v-3.34m.669 3.474v-3.604m-.334 3.805h.333m.0001 0v-.002-.012-.023-.024-.027-.036-.04-.038m160.92-.133l-.005.068-.021.062-.029.057-.043.05-.049.042-.053.033-.067.018-.063.007m-.332-.203v.038.04.036.027.024.023.012.002m.332-.0001h-.332m.332-4l.063.003.067.021.053.027.049.044.043.05.029.056.021.064.005.063m-.662-.328v.002.012.015.025.036.033.037.04m.332-.2h-.332m0 .198v3.604m.662-3.474v3.34m-137.75 9.68l.067.007.062.018.06.033.05.042.04.049.031.058.019.062.007.067m-4.01 0l.006-.061.013-.054.024-.054.034-.047.042-.04.046-.034.055-.026.056-.016.058-.005m0 .0001h3.337m.335.336v.333m-.2.0001h.042.037.031.031.027.018.013.003m-3.808 0h3.605m-3.805-.334v.333m0 .0001h.004.001.019.024.032.035.037.041m126.47 0h.043.032.034.032.024.018.001.004m0-.334v.333m0-.333l-.006-.067-.02-.062-.03-.058-.041-.049-.05-.042-.055-.033-.066-.018-.065-.007m-3.336 0l-.057.005-.061.016-.054.026-.046.034-.039.04-.032.047-.025.054-.016.054-.006.061m.201.333h3.607m-3.472-.67h3.336m-3.67.67h.006.009.021.023.031.031.037.041m-.199-.334v.333m.334 246.36l-.057-.004-.061-.021-.054-.021-.046-.036-.039-.039-.032-.047-.025-.051-.016-.061-.006-.058m4 .0001l-.006.065-.02.066-.03.057-.041.049-.05.042-.055.029-.066.021-.065.007m.333-.667h-.002-.012-.018-.024-.032-.034-.032-.043m.197.331v-.332m-.333.669h-3.336m-.334-.337v-.332m.199.0001h-.039-.037-.033-.031-.023-.021-.009-.006m3.806 0h-3.607m-119.39.668l.059-.004.057-.021.051-.021.049-.036.041-.039.032-.047.026-.051.015-.061.005-.058m0 .0001v-.332m0 .0001h-.003-.011-.018-.026-.031-.032-.037-.042m-3.806.331v-.332m.2.0001h-.041-.037-.034-.033-.024-.018-.011-.003m.0001.331l.007.065.019.066.031.057.042.049.05.042.06.029.062.021.063.007m3.472-.667h-3.604m3.469.668h-3.337m23.371-6v-235.01m-3.339-.0001v235.01m86.14.002v-234.06m-3.337 0v234.06m-58.762.0001v-235.01m-3.34-.0001v235.01m24.04.002v-235.01m-3.336-.0001v235.01m24.04.002v-234.42m-3.337-.593v235.01m-103.29-136.74v1.608m0-14.687v1.593m146.36-30.17v6.679m0 154.89v6.676m0-208.3v6.677m1.806 194.95v-.134m-1.735 0v.134m-.071-6.81v6.676m1.806-161.44v-.133m-1.735 0v.133m-.071-6.809v6.676m1.806-39.924v-.133m-1.735 0v.133m-.071-6.808v6.675m-26.576-14.739v-.788m-4.271 0v.788m4.271-6.293v-.785m-4.271 0v.785m-.124-4.855v.799m4.54 0v-.799m-3.482-1.01v2m2.419.0001v-2"/>
 <path fill="none" stroke="#4d87b8" stroke-width=".942" stroke-linecap="round" stroke-linejoin="round" stroke-miterlimit="10" d="m486.08 694.13l-.127.016-.127.04-.114.062-.104.081-.083.104-.059.114-.037.126-.013.131m6.122 3.333l-.108-.109-.113-.169-.068-.189-.023-.198m-.002-.002l.023-.201.068-.188.111-.17.146-.136.178-.1.193-.062.197-.011.198.033.188.083.163.118.125.156.091.181.05.192v.203l-.05.196-.091.183-.125.151-.044.038m2.715-3.808l3.215 3.214m-3.215-3.214l-.048-.044-.053-.037-.055-.034-.063-.027-.06-.023-.064-.017-.063-.013-.067-.003m-8.807 0h8.807m-9.471 4.01v-3.337m0 14.688v-2.268m0 2.268l.013.129.037.127.059.112.083.099.104.087.114.063.127.036.127.014m8.806 0h-8.807m8.807 0l.067-.002.063-.012.064-.015.06-.022.063-.027.057-.035.051-.036.049-.051m3.215-3.207l-3.214 3.207m3.214-3.207l.042-.054.038-.051.033-.054.033-.06.021-.061.016-.067.001-.063.004-.066m-.0001-.125v.127m0-8.259v.123m0-.123l-.004-.066-.001-.065-.016-.064-.021-.061-.033-.058-.033-.061-.038-.051-.042-.048m-5.927 8.606l.042.038.127.155.091.18.05.198v.198l-.05.198-.091.182-.127.15-.161.124-.188.076-.198.034-.197-.011-.193-.056-.178-.099-.146-.143-.111-.167-.068-.187-.023-.202m-.002.003l.023-.201.068-.191.111-.164.108-.114m-153.02-.0001h160.26m-160.26-8.01h160.26m0 7.613v-7.21m-160.26 7.21v-7.21m18.696 7.607v3.341m-8.794-3.341l.109.114.112.164.069.19.023.202m.0001.0001l-.023.201-.069.186-.112.169-.145.142-.175.099-.194.057-.2.011-.199-.034-.183-.076-.164-.126-.128-.15-.09-.18-.047-.198v-.198l.047-.198.09-.18.128-.156.043-.037m-5.384 3.805l-3.216-3.207m3.216 3.207l.047.052.054.035.055.035.059.028.062.021.063.015.066.012.064.002m14.15 0h-14.15m14.15 0l.128-.014.125-.036.117-.063.101-.087.083-.099.062-.112.037-.127.015-.129m-18.698-3.214v-.127m0 .127l.002.066.001.062.015.069.023.059.026.061.034.054.041.05.043.054m-1.535-9.01h-.279-.244-.18-.151-.072-.015m1.924.398h-.021-.506-.413-.322-.244-.18-.151-.072-.015m20.978-.398h-17.884m0 .398v-.398m17.884.398v-.398m1.203 0h4m.137 0h.019.069.06.051.037.023.006m-.0001 0v.399m-4.806-.399v.399m-17.25-8.803h.019.124.184.257.316.355.374.307.074.048.001m-5.633 8.404h25.355m-9.209-7.731l1.318-.025 1.294.007 1.235.073 1.156.174.667.173.618.229.558.305.495.374.423.462.379.619.29.714.219.769.166.79.13.778.102.768.086.765.074.759m-21.11-7.734h11.903m-18.04 1.224l.076-.313.19-.306.35-.302.396-.18.42-.07.436-.013h.438l.441-.035.488-.121.479-.123.475-.004.476.129.483.126.49.022.494-.035m-6.132 1.225v.001m1.889 6.497l-.008-.637.004-.645.024-.675.023-.681-.022-.665-.105-.628-.191-.498-.312-.439-.4-.4-.26-.245-.262-.257-.223-.274-.136-.295-.021-.158m150.11 14.905v1.073m-.539-.847v-.226m-40.06 8.548v-1.671m20.03 1.671v-1.671m-8.682 1.671h8.683m-20.03 0h8.678m13.358-7.475l-1.579.313m1.579-.313v-1.073m-24.04 1.073v-1.073m1.573 1.386l-1.573-.313m1.62-1.073l-.047 1.386m0 0l.431.086m0 5.405v-5.405m11.349 5.405h8.683m-20.03 0h8.678m11.353 0v-5.405m0 0l.426-.087m0 .0001l-.047-1.386m-8.917 1.128l.086.093.202.249.155.277.12.295.071.313.021.318m-4.058.932l-.115-.305-.073-.311-.023-.315.023-.318.073-.313.115-.295.162-.277.195-.249.104-.104m3.598 1.556l-.021.315-.071.311-.114.291m-.45-2.518v1.992m-2.941.0001v-1.992m2.278 5.844l.299-.144.277-.18.247-.221.214-.255.173-.281.129-.308.086-.32.035-.326-.001-.337-.062-.324-.109-.314-.153-.294-.188-.27-.23-.238-.263-.203-.288-.165-.313-.114-.324-.074-.327-.024-.335.024-.322.074-.308.114-.288.165-.263.203-.229.238-.195.27-.153.294-.104.314-.059.324-.011.337.035.326.082.32.133.308.169.281.212.255.247.221.276.18.303.145m1.568 24.469v-.658m-1.514.654v-.654m1.255-24.04v-.128m.502-.866l-.502.865m0-1.729l.502.864m-1.502-.864h1m-1.502.864l.502-.864m0 1.73l-.502-.865m.502.865v.128m0 0h.405m.185 0h.41m-.41 0h-.023-.023-.021-.022-.022-.025-.025-.022m-.717.224v-.225m1.618.0001v.225m0-.225h-.016-.023-.03-.035-.048-.045-.054-.057m-1 0h-.06-.054-.05-.039-.036-.028-.026-.018m1.632 24.04h-.022-.068-.114-.146-.177-.194-.199-.189-.176-.152-.108-.071-.027m.822 2.808l.243-.024.235-.072.212-.118.184-.163.151-.189.104-.219.064-.24.013-.243-.04-.238-.085-.231-.126-.208-.169-.18-.204-.136-.224-.095-.24-.053h-.245l-.238.053-.226.095-.196.136-.171.18-.133.208-.082.231-.036.238.012.243.06.24.11.219.147.189.185.163.218.118.231.072.246.024m-4.141-32.738v-.152-.151-.139-.122-.098-.07-.051-.017m8.279 0v.017.051.07.098.122.139.151.152m-8.279 0v.273m0 0h8.279m0 0v-.273m-5.482 5.828v22.669m2.671-22.658v22.657m-2.671 2.491v2.131m2.671-2.131v2.114m0 .0001l-.318.127-.335.086-.336.053-.343.025-.347-.021-.336-.047-.329-.085-.327-.121m0-4.622v2.49m2.671-2.49v2.49m-2.409 0h-.263m2.672 0h-.248m-1.906-2.49h-.518m2.672 0h-.506m-117.15-37.11v-.039-.036-.033-.031-.026-.02-.012-.002m-.334-.002h.334m-.669 7.679l.004.056.015.056.027.057.032.046.04.039.05.034.051.023.056.017.059.004m.0001-8.01l-.067.005-.061.02-.059.034-.05.041-.042.05-.031.057-.02.063-.005.066m.669 7.674v-.003-.009-.019-.025-.028-.037-.035-.043m-.334.199h.334m-.669-.331v-7.344m.669 7.473v-7.607m160.59 7.809l.063-.006.065-.02.055-.03.049-.041.043-.049.029-.06.021-.062.005-.064m-.662.13v.046.033.037.03.023.018.012.003m.332 0h-.332m0-8.01v.003.012.016.03.029.035.036.039m.332-.2h-.332m.662.335l-.004-.06-.014-.056-.026-.051-.031-.048-.04-.041-.048-.032-.052-.028-.06-.017-.056-.003m.331.336v7.344m-.662-7.478v7.607m-162.54-8.206v.399m4.525-8.803v.673m2.077 0v-.673m112.83 47.542v-23.812m-1.648 0v23.812"/>
 <path fill="#4d87b8" d="m321.96 571.07h-.461c.029-.484-.074-.907-.311-1.272-.234-.308-.533-.486-.897-.535v-.652l6.7.009v.915h-5.03v1.535"/>
 <path fill="#4d87b8" d="m326.25 561.73h.745v4.512c-.542.034-1.018-.078-1.434-.33-.256-.167-.507-.401-.749-.697-.243-.294-.522-.704-.842-1.234-.327-.476-.606-.823-.843-1.042-.236-.216-.565-.322-.983-.322-.524 0-.861.153-1.014.458-.151.311-.231.607-.231.896 0 .536.203.934.604 1.197.264.151.575.228.931.228v.846c-.563 0-1.017-.121-1.354-.366-.598-.396-.897-1.047-.897-1.951 0-.627.131-1.104.387-1.427.259-.325.535-.531.825-.618.29-.088.54-.131.75-.131.584-.006 1.041.136 1.374.423.334.289.704.771 1.114 1.453.395.601.687.996.876 1.176.251.257.499.407.743.454v-3.525h-.002"/>
 <path fill="#4d87b8" d="m327.13 558.65c0 .832-.353 1.441-1.058 1.84-.595.317-1.397.478-2.403.478-.389 0-.795-.031-1.23-.093-.429-.064-.831-.193-1.207-.385-.717-.405-1.077-1.016-1.077-1.84 0-.829.36-1.441 1.077-1.837.627-.337 1.441-.508 2.438-.508.988 0 1.791.171 2.403.508.705.388 1.057 1 1.057 1.837m-.709 0c0-.508-.255-.887-.763-1.139-.433-.221-1.097-.33-1.99-.33-.903 0-1.574.108-2.01.33-.511.252-.764.631-.764 1.139 0 .503.253.88.764 1.132.267.119.575.204.912.249.34.047.708.071 1.102.071.875 0 1.54-.105 1.99-.32.51-.258.763-.635.763-1.132"/>
 <path fill="#4d87b8" d="m327.13 553.22c0 .828-.353 1.44-1.058 1.836-.595.321-1.397.479-2.403.479-.389 0-.795-.03-1.23-.094-.429-.063-.831-.191-1.207-.386-.717-.401-1.077-1.015-1.077-1.836 0-.831.36-1.443 1.077-1.837.627-.34 1.441-.509 2.438-.509.988 0 1.791.169 2.403.509.705.39 1.057 1 1.057 1.838m-.709 0c0-.508-.255-.888-.763-1.14-.433-.219-1.097-.331-1.99-.331-.903 0-1.574.111-2.01.331-.511.252-.764.632-.764 1.14 0 .503.253.88.764 1.13.267.12.575.201.912.25.34.046.708.07 1.102.07.875 0 1.54-.108 1.99-.32.51-.256.763-.633.763-1.13"/>
 <path fill="#4d87b8" d="m408.51 340.75v-.457c.484.027.909-.074 1.271-.312.312-.237.486-.532.539-.896h.651l-.011 6.696h-.911v-5.03h-1.539"/>
 <path fill="#4d87b8" d="m417.84 345.03v.746h-4.51c-.033-.539.079-1.019.33-1.433.167-.252.404-.502.694-.745.299-.245.709-.523 1.237-.847.479-.325.822-.607 1.043-.844.215-.232.323-.563.323-.978 0-.529-.158-.866-.46-1.016-.313-.153-.608-.23-.898-.23-.53 0-.934.2-1.197.604-.15.264-.225.571-.225.93h-.847c0-.566.121-1.016.37-1.356.391-.602 1.042-.896 1.946-.896.626 0 1.104.132 1.429.383.327.262.526.537.617.829.087.288.132.538.132.751.004.577-.132 1.041-.42 1.371-.292.334-.781.702-1.456 1.112-.604.397-.992.69-1.179.878-.254.251-.404.498-.451.739h3.522z"/>
 <path fill="#4d87b8" d="m423.28 345.03v.746h-4.51c-.038-.539.073-1.019.324-1.433.173-.252.402-.502.7-.745.292-.245.706-.523 1.234-.847.476-.325.823-.607 1.04-.844.215-.232.329-.563.329-.978 0-.529-.158-.866-.465-1.016-.311-.153-.605-.23-.894-.23-.539 0-.938.2-1.202.604-.148.264-.228.571-.228.93h-.84c0-.566.121-1.016.362-1.356.397-.602 1.048-.896 1.951-.896.629 0 1.105.132 1.425.383.326.262.533.537.618.829.092.288.136.538.136.751.005.577-.14 1.041-.428 1.371-.287.334-.771.702-1.45 1.112-.602.397-.994.69-1.174.878-.261.251-.412.498-.455.739h3.527z"/>
 <path fill="#4d87b8" d="m426.99 344.21h-3.163v-.728l3.138-4.396h.877v4.42h1.054v.704h-1.054v1.572h-.852v-1.572m-2.284-.704h2.284v-3.246l-2.284 3.246"/>
 <path fill="#4d87b8" d="m383.59 564.89v-.416c.435.03.815-.063 1.143-.281.276-.208.438-.477.484-.803h.585l-.009 6.03h-.822v-4.528h-1.381"/>
 <path fill="#4d87b8" d="m387.73 567.6l.755-.017c.056.38.155.67.295.874.227.277.562.416 1 .416.299.018.604-.051.911-.202.309-.153.462-.479.462-.976 0-.25-.065-.49-.2-.723-.132-.231-.431-.358-.893-.38-.056-.007-.141-.009-.25-.009-.111 0-.233.002-.369.009v-.628c.43 0 .763-.05 1-.152.362-.147.544-.44.544-.881 0-.323-.104-.571-.311-.747-.205-.174-.493-.259-.861-.254-.485 0-.822.172-1.01.517-.108.13-.162.39-.162.779h-.754c0-.439.087-.815.254-1.126.318-.543.876-.814 1.679-.814.437.006.794.079 1.074.218.279.138.49.324.63.562.142.237.214.5.214.788 0 .373-.101.672-.302.891-.2.221-.431.38-.689.475v.018c.339.051.617.209.833.478.218.269.327.612.327 1.031 0 .582-.199 1.026-.598 1.327-.399.302-.896.455-1.489.455-.304 0-.599-.042-.886-.12-.284-.08-.541-.248-.767-.508-.252-.314-.399-.745-.439-1.301"/>
 <path fill="#4d87b8" d="m394.77 569.53c-.746 0-1.297-.317-1.653-.951-.289-.536-.434-1.258-.434-2.162 0-.351.028-.72.086-1.106.055-.387.171-.75.348-1.09.362-.645.912-.965 1.653-.965.749 0 1.298.321 1.653.965.305.566.459 1.299.459 2.196 0 .887-.155 1.609-.459 2.162-.351.635-.901.951-1.653.951m0-.635c.458 0 .8-.229 1.026-.689.2-.388.297-.986.297-1.788 0-.814-.098-1.417-.297-1.814-.226-.457-.568-.687-1.026-.687-.453 0-.79.23-1.016.687-.108.243-.185.519-.227.823-.04.305-.063.635-.063.992 0 .785.097 1.383.29 1.788.231.459.568.688 1.016.688"/>
 <path fill="#4d87b8" d="m367.75 631.45h-.417c.027-.436-.063-.818-.279-1.145-.209-.276-.479-.44-.804-.485v-.583l6.03.001v.82h-4.529v1.383"/>
 <path fill="#4d87b8" d="m370.73 627.25v-.778c.288-.052.525-.175.717-.368.188-.188.286-.485.292-.879 0-.93-.477-1.394-1.425-1.394-.292 0-.6.084-.919.244-.319.161-.478.514-.478 1.061 0 .354.062.63.188.831.128.2.235.32.318.36v.771l-3.169-.413v-3.272h.659v2.651l1.814.245c-.045-.032-.106-.107-.182-.233-.077-.118-.139-.278-.19-.47-.05-.191-.073-.404-.066-.643 0-.386.084-.722.257-1.01.173-.289.41-.512.713-.669.301-.158.654-.235 1.055-.235 1.368.058 2.053.78 2.053 2.174 0 .306-.037.594-.115.867-.075.273-.24.523-.488.751-.317.249-.661.385-1.034.407"/>
 <path fill="#4d87b8" d="m372.36 620.27c0 .675-.168 1.179-.505 1.514-.334.336-.758.504-1.267.504-.503 0-.868-.113-1.095-.349-.226-.234-.387-.482-.482-.742-.209.574-.651.863-1.323.863-.448 0-.812-.152-1.099-.464-.285-.306-.427-.75-.427-1.326 0-.562.141-1 .424-1.315.284-.313.649-.471 1.103-.471.305 0 .575.066.804.207.233.137.407.354.519.646.05-.165.144-.34.28-.517.134-.171.312-.313.534-.417.219-.108.475-.158.763-.158.484 0 .902.162 1.249.479.348.317.522.834.522 1.546m-3.639 0c0-.335-.09-.601-.275-.791-.184-.191-.428-.277-.733-.266-.385.016-.631.138-.739.37-.105.23-.161.46-.161.687 0 .322.082.579.244.772.16.192.379.288.656.288.323 0 .571-.094.746-.286.176-.188.262-.446.262-.774m3.01 0c0-.325-.1-.615-.296-.866-.199-.252-.502-.38-.907-.38-.329-.017-.603.08-.828.291-.224.214-.336.53-.336.955 0 .422.113.731.339.939s.502.302.825.29c.379 0 .673-.119.887-.351.209-.23.316-.528.316-.878"/>
 <path fill="#4d87b8" d="m510.39 496.37h.741v4.512c-.536.031-1.014-.077-1.433-.329-.255-.171-.505-.403-.751-.699-.237-.294-.521-.705-.838-1.234-.325-.476-.607-.823-.844-1.04-.233-.219-.565-.325-.982-.325-.523 0-.861.154-1.015.46-.156.309-.233.607-.233.895 0 .534.204.934.602 1.197.268.15.574.226.936.226v.849c-.563 0-1.017-.122-1.36-.366-.593-.398-.891-1.048-.891-1.952 0-.627.129-1.104.382-1.427.258-.324.536-.53.829-.617.291-.088.541-.13.751-.13.58-.007 1.037.134 1.372.422.334.288.707.773 1.115 1.452.394.601.682.995.875 1.178.252.256.499.406.743.452l.0001-3.524"/>
 <path fill="#4d87b8" d="m511.27 493.29c0 .829-.356 1.438-1.061 1.837-.592.32-1.393.478-2.397.478-.396 0-.8-.03-1.229-.092-.435-.063-.837-.192-1.215-.386-.714-.404-1.071-1.015-1.071-1.837 0-.832.357-1.442 1.071-1.839.629-.337 1.445-.508 2.444-.508.985 0 1.787.17 2.397.508.705.389 1.061 1 1.061 1.839m-.71 0c0-.51-.254-.889-.759-1.14-.435-.222-1.104-.332-1.989-.332-.907 0-1.578.11-2.02.332-.507.251-.761.63-.761 1.14 0 .502.254.879.761 1.13.271.118.573.203.913.25.338.045.708.07 1.106.07.868 0 1.535-.106 1.989-.319.506-.259.76-.636.76-1.131"/>
 <path fill="#4d87b8" d="m511.27 487.85c0 .828-.356 1.44-1.061 1.836-.592.32-1.393.481-2.397.481-.396 0-.8-.032-1.229-.096-.435-.061-.837-.191-1.215-.385-.714-.401-1.071-1.014-1.071-1.836 0-.83.357-1.442 1.071-1.837.629-.34 1.445-.51 2.444-.51.985 0 1.787.17 2.397.51.705.389 1.061 1 1.061 1.837m-.71 0c0-.507-.254-.888-.759-1.139-.435-.22-1.104-.332-1.989-.332-.907 0-1.578.112-2.02.332-.507.252-.761.632-.761 1.139 0 .503.254.879.761 1.13.271.121.573.203.913.25.338.047.708.071 1.106.071.868 0 1.535-.108 1.989-.321.506-.256.76-.633.76-1.13"/>
 <path fill="#4d87b8" d="m511.27 482.42c0 .829-.356 1.443-1.061 1.838-.592.321-1.393.481-2.397.481-.396 0-.8-.033-1.229-.097-.435-.062-.837-.189-1.215-.386-.714-.401-1.071-1.013-1.071-1.837 0-.827.357-1.441 1.071-1.836.629-.34 1.445-.508 2.444-.508.985 0 1.787.168 2.397.508.705.391 1.061 1 1.061 1.837m-.71 0c0-.509-.254-.89-.759-1.141-.435-.218-1.104-.328-1.989-.328-.907 0-1.578.109-2.02.328-.507.251-.761.631-.761 1.141 0 .502.254.878.761 1.13.271.121.573.203.913.25.338.05.708.073 1.106.073.868 0 1.535-.109 1.989-.323.506-.257.76-.634.76-1.13"/>
 <path fill="#4d87b8" d="m524.72 496.37h.738v4.513c-.534.03-1.013-.078-1.434-.329-.253-.17-.504-.402-.746-.699-.24-.294-.521-.705-.841-1.233-.324-.476-.604-.823-.846-1.041-.23-.219-.562-.324-.982-.324-.521 0-.859.154-1.01.46-.156.309-.232.607-.232.895 0 .534.201.934.602 1.197.263.15.576.226.936.226v.849c-.567 0-1.02-.123-1.355-.366-.602-.399-.897-1.049-.897-1.952 0-.628.129-1.104.384-1.427.262-.324.535-.531.824-.617.294-.088.545-.131.75-.131.581-.007 1.045.135 1.375.422.335.289.704.773 1.111 1.452.396.601.688.996.877 1.178.249.257.498.407.745.452v-3.523z"/>
 <path fill="#4d87b8" d="m525.6 493.29c0 .83-.355 1.439-1.06 1.837-.597.32-1.395.479-2.4.479-.396 0-.801-.03-1.229-.092-.432-.063-.832-.192-1.21-.386-.72-.404-1.074-1.015-1.074-1.837 0-.831.354-1.442 1.074-1.839.631-.337 1.441-.507 2.439-.507.983 0 1.786.17 2.4.507.705.388 1.06 1 1.06 1.838m-.711 0c0-.51-.257-.889-.763-1.14-.434-.222-1.102-.332-1.986-.332-.908 0-1.577.109-2.02.332-.511.252-.763.63-.763 1.14 0 .502.252.88.763 1.13.269.118.571.203.912.25.34.045.705.069 1.105.069.872 0 1.535-.105 1.986-.319.507-.258.764-.635.764-1.13"/>
 <path fill="#4d87b8" d="m524.01 489.3c.24-.062.453-.197.619-.4.172-.204.249-.495.227-.872-.014-.578-.259-1-.732-1.281-.39-.232-.938-.357-1.653-.378l.02.038c.47.365.702.911.702 1.64 0 .634-.208 1.15-.62 1.55-.409.398-.951.595-1.615.595-.418-.012-.802-.095-1.146-.253-.342-.156-.617-.405-.833-.75-.204-.339-.31-.768-.31-1.283 0-.854.276-1.474.828-1.857.311-.219.663-.368 1.073-.442.408-.076.897-.113 1.479-.113.521 0 .986.042 1.394.131s.768.229 1.074.424c.708.422 1.064 1.081 1.064 1.979 0 1.136-.523 1.826-1.574 2.063v-.791h.003m-3.073-2.863c-1.029.125-1.541.618-1.541 1.479 0 .453.141.804.43 1.051.283.249.662.364 1.151.352.462 0 .836-.132 1.104-.4.266-.267.4-.602.389-1 0-.426-.13-.783-.401-1.062-.268-.287-.648-.425-1.132-.417"/>
 <path fill="#4d87b8" d="m523.45 484.8l-.021-.838c.425-.064.747-.174.975-.329.304-.251.458-.624.458-1.114.021-.329-.055-.668-.227-1.012-.166-.344-.53-.513-1.084-.513-.276 0-.542.074-.803.221-.255.148-.396.48-.42.995-.004.063-.008.155-.008.278 0 .122.004.258.008.407h-.693c0-.478-.06-.846-.171-1.11-.166-.402-.495-.602-.982-.602-.354 0-.633.113-.825.342-.198.229-.292.551-.284.956 0 .541.192.914.57 1.122.148.119.44.179.874.179v.839c-.494 0-.909-.097-1.255-.284-.605-.353-.905-.973-.905-1.865.003-.484.082-.882.241-1.194.156-.308.359-.544.623-.7.267-.159.562-.234.876-.234.42 0 .748.112.993.332.245.223.423.48.527.771h.019c.054-.377.232-.688.532-.929.296-.243.681-.363 1.144-.363.643 0 1.139.22 1.474.667.341.439.504.993.504 1.652 0 .338-.045.667-.13.984-.087.315-.277.6-.565.851-.351.285-.825.448-1.445.491"/>
 <path fill="#4d87b8" d="m418.31 643.16c.062.247.202.455.402.625.206.165.495.244.873.227.581-.02 1.01-.264 1.282-.736.228-.39.354-.938.378-1.649l-.036.016c-.366.469-.916.701-1.645.701-.632 0-1.149-.207-1.548-.616-.399-.413-.596-.951-.596-1.618.012-.424.096-.803.251-1.143.157-.346.405-.621.753-.832.336-.211.765-.315 1.282-.315.853 0 1.477.277 1.853.829.227.31.373.666.446 1.076.075.406.112.899.112 1.475 0 .525-.045.988-.132 1.397-.086.41-.227.767-.427 1.074-.417.708-1.079 1.065-1.975 1.065-1.137 0-1.828-.526-2.064-1.575h.791m2.869-3.07c-.128-1.032-.623-1.545-1.479-1.545-.455 0-.802.141-1.049.431-.251.283-.367.666-.354 1.152 0 .464.13.831.398 1.103.268.27.602.4 1 .394.424 0 .781-.135 1.062-.404.285-.273.424-.649.418-1.131"/>
 <path fill="#4d87b8" d="m426.66 639.4c-.161-.563-.588-.847-1.288-.847-.593 0-1.026.242-1.29.727-.196.386-.313.941-.356 1.653h.05c.201-.267.442-.45.73-.553.29-.099.587-.155.896-.17.645 0 1.159.205 1.558.622.392.415.594.963.594 1.642 0 .705-.202 1.261-.602 1.653-.402.393-.967.595-1.69.617-.371 0-.716-.063-1.033-.182-.323-.12-.603-.333-.827-.641-.365-.526-.554-1.379-.554-2.562 0-1.097.177-1.924.526-2.471.464-.708 1.13-1.062 2-1.062 1.15.019 1.84.543 2.075 1.571h-.79v.003m-2.849 3.113c.091 1 .578 1.507 1.47 1.507.444 0 .791-.146 1.042-.436.251-.286.371-.659.354-1.109 0-.489-.128-.874-.383-1.147-.259-.271-.594-.405-1.013-.394-.44.012-.798.152-1.069.418-.273.263-.411.651-.401 1.161"/>
 <path fill="#4d87b8" d="m430.63 644.75c-.829 0-1.438-.354-1.834-1.059-.32-.593-.481-1.396-.481-2.4 0-.391.029-.799.09-1.229.066-.431.195-.832.392-1.212.403-.717 1.015-1.07 1.834-1.07.83 0 1.443.354 1.842 1.07.339.632.506 1.443.506 2.441 0 .988-.167 1.787-.506 2.401-.39.704-1 1.058-1.843 1.058m0-.707c.51 0 .889-.253 1.142-.764.223-.432.331-1.1.331-1.988 0-.905-.108-1.576-.331-2.02-.253-.508-.632-.764-1.142-.764-.504 0-.878.256-1.13.764-.117.27-.202.573-.249.91-.044.343-.065.707-.065 1.105 0 .871.101 1.535.314 1.988.262.512.636.765 1.13.765"/>
 <path fill="#4d87b8" d="m412.38 655.62v-.463c.482.032.907-.07 1.271-.311.309-.23.488-.53.542-.896h.646l-.006 6.699h-.918v-5.03h-1.535"/>
 <path fill="#4d87b8" d="m421.72 659.9v.743h-4.515c-.03-.537.076-1.016.327-1.435.175-.257.403-.508.701-.749.293-.241.704-.521 1.23-.839.478-.327.828-.612 1.04-.844.221-.234.326-.566.326-.985 0-.522-.148-.859-.463-1.01-.303-.155-.602-.232-.891-.232-.533 0-.933.197-1.196.602-.152.265-.227.572-.227.935h-.849c0-.567.124-1.021.364-1.36.401-.593 1.048-.891 1.956-.891.63 0 1.102.124 1.426.381.32.259.529.531.618.827.09.294.129.543.129.75.001.583-.136 1.042-.423 1.376-.29.328-.771.704-1.448 1.106-.604.399-1 .689-1.178.878-.259.254-.413.503-.453.748h3.526"/>
 <path fill="#4d87b8" d="m424.8 660.77c-.828 0-1.44-.349-1.832-1.053-.328-.595-.483-1.396-.483-2.4 0-.393.029-.803.092-1.23.062-.43.191-.837.392-1.211.399-.718 1.014-1.072 1.832-1.072.828 0 1.442.354 1.838 1.072.344.625.506 1.441.506 2.441 0 .984-.162 1.786-.506 2.4-.387.705-1 1.053-1.839 1.053m0-.703c.513 0 .892-.255 1.143-.764.219-.432.327-1.099.327-1.986 0-.906-.108-1.581-.327-2.02-.251-.51-.63-.763-1.143-.763-.502 0-.877.253-1.128.763-.117.269-.202.574-.251.913-.048.34-.069.706-.069 1.104 0 .87.105 1.535.32 1.986.261.51.636.765 1.128.765"/>
 <path fill="#4d87b8" d="m430.24 660.77c-.831 0-1.44-.349-1.84-1.053-.317-.595-.479-1.396-.479-2.4 0-.393.03-.803.092-1.23.063-.43.195-.837.387-1.211.403-.718 1.016-1.072 1.839-1.072.829 0 1.439.354 1.84 1.072.337.625.508 1.441.508 2.441 0 .984-.171 1.786-.508 2.4-.391.705-1 1.053-1.839 1.053m0-.703c.508 0 .887-.255 1.139-.764.223-.432.335-1.099.335-1.986 0-.906-.112-1.581-.335-2.02-.252-.51-.631-.763-1.139-.763-.502 0-.881.253-1.131.763-.117.269-.207.574-.25.913-.045.34-.068.706-.068 1.104 0 .87.104 1.535.318 1.986.258.51.635.765 1.131.765"/>
 <path fill="#4d87b8" d="m383.44 686.57c-.568.163-.848.596-.848 1.286 0 .602.241 1.027.726 1.298.39.188.941.31 1.657.355v-.048c-.27-.201-.456-.446-.556-.733-.099-.289-.158-.59-.17-.899 0-.638.209-1.153.623-1.553.413-.397.962-.591 1.64-.591.71 0 1.26.202 1.653.601.393.403.598.967.618 1.688 0 .367-.059.717-.178 1.036-.12.319-.335.594-.64.825-.53.368-1.382.55-2.566.55-1.099 0-1.92-.174-2.467-.53-.71-.455-1.066-1.122-1.066-1.999.02-1.145.542-1.834 1.576-2.069v.783h-.002m3.109 2.855c1-.096 1.505-.587 1.505-1.469 0-.449-.145-.796-.432-1.047-.288-.25-.658-.368-1.112-.351-.49 0-.873.131-1.146.384-.271.257-.402.591-.391 1.014.013.441.15.796.414 1.067.265.274.651.409 1.162.402"/>
 <path fill="#4d87b8" d="m388.79 682.6c0 .832-.352 1.439-1.055 1.84-.597.32-1.397.48-2.403.48-.391 0-.8-.029-1.23-.1-.431-.059-.834-.187-1.21-.381-.715-.403-1.073-1.015-1.073-1.84 0-.829.358-1.439 1.073-1.837.627-.337 1.443-.508 2.441-.508.985 0 1.788.171 2.403.508.702.393 1.054 1 1.054 1.838m-.706 0c0-.51-.255-.888-.765-1.139-.432-.221-1.095-.329-1.987-.329-.905 0-1.578.108-2.01.329-.51.251-.764.629-.764 1.139 0 .501.254.881.764 1.132.271.115.573.203.914.25.34.044.705.067 1.101.067.875 0 1.537-.104 1.987-.317.511-.259.765-.638.765-1.132"/>
 <path fill="#4d87b8" d="m322.94 706.47h-.414c.028-.438-.064-.82-.277-1.146-.212-.277-.479-.439-.809-.484v-.583l6.03.009v.821h-4.532v1.383"/>
 <path fill="#4d87b8" d="m325.91 702.27v-.781c.288-.053.526-.172.718-.364.188-.195.287-.488.293-.881 0-.927-.477-1.394-1.424-1.394-.294 0-.603.085-.92.243-.32.162-.479.516-.479 1.063 0 .352.062.628.188.83.127.199.233.319.32.358v.771l-3.174-.412v-3.273h.663v2.651l1.814.246c-.044-.031-.107-.108-.182-.233-.077-.118-.14-.276-.192-.472-.049-.191-.072-.402-.065-.642 0-.387.084-.721.257-1.01.171-.286.41-.509.71-.665.305-.158.657-.235 1.059-.235 1.368.057 2.051.778 2.051 2.172 0 .305-.037.595-.114.867-.075.273-.239.523-.488.75-.316.251-.662.39-1.035.411"/>
 <path fill="#4d87b8" d="m327.58 695.29c0 .746-.314 1.297-.947 1.655-.537.289-1.259.43-2.163.43-.351 0-.721-.028-1.107-.084-.387-.054-.75-.174-1.092-.346-.643-.361-.968-.912-.968-1.655 0-.744.325-1.294.968-1.653.568-.308 1.301-.457 2.198-.457.887 0 1.606.149 2.164.457.632.351.947.903.947 1.653m-.635 0c0-.459-.229-.798-.687-1.024-.389-.198-.987-.295-1.789-.295-.816 0-1.422.097-1.815.295-.458.227-.688.565-.688 1.024 0 .454.229.792.688 1.019.243.105.516.182.822.227.306.04.637.06.992.06.786 0 1.383-.093 1.79-.286.458-.233.687-.573.687-1.02"/>
 <path fill="#4d87b8" d="m311.12 723.89l-.015-.836c.416-.067.742-.175.967-.331.31-.251.464-.622.464-1.11.017-.333-.059-.671-.226-1.015-.173-.34-.531-.511-1.083-.511-.277 0-.545.074-.799.222-.26.145-.4.48-.427.992-.006.063-.001.154-.001.276 0 .123.004.261.001.41h-.697c0-.476-.056-.846-.169-1.112-.163-.403-.488-.6-.977-.6-.363 0-.639.114-.83.343-.2.229-.289.549-.286.955 0 .541.19.912.574 1.123.147.118.436.178.867.178v.836c-.49 0-.904-.092-1.254-.28-.603-.351-.904-.976-.904-1.863.001-.485.088-.882.239-1.195.157-.308.364-.543.627-.702.263-.152.557-.233.877-.233.414 0 .743.111.992.336.244.219.418.474.526.77h.018c.06-.379.234-.689.534-.931.301-.243.68-.367 1.145-.367.65 0 1.141.224 1.476.669.335.441.504.993.504 1.654 0 .335-.046.663-.135.985-.086.315-.275.6-.563.849-.345.281-.83.448-1.445.488"/>
 <path fill="#4d87b8" d="m313.23 716.07c0 .746-.184 1.307-.557 1.683-.376.372-.845.558-1.412.558-.558 0-.96-.13-1.212-.391-.251-.263-.435-.538-.541-.823-.233.635-.723.96-1.467.96-.499 0-.902-.174-1.223-.513-.319-.344-.475-.838-.475-1.474 0-.63.154-1.121.469-1.469.313-.346.727-.521 1.229-.521.337 0 .636.078.892.231.259.152.45.391.575.72.055-.188.164-.381.313-.577.15-.189.347-.347.592-.463.245-.118.527-.176.847-.176.543 0 1 .18 1.387.532.39.355.583.93.583 1.723m-4.04 0c0-.378-.103-.672-.305-.883-.201-.213-.474-.31-.814-.295-.426.018-.702.155-.818.413-.123.259-.181.514-.181.765 0 .355.091.641.271.855.177.213.418.323.728.323.359 0 .636-.109.829-.32.194-.209.29-.497.29-.858m3.348 0c0-.368-.111-.688-.33-.97-.223-.278-.561-.418-1.01-.418-.364-.018-.667.091-.917.328-.25.236-.373.586-.373 1.06 0 .464.127.809.378 1.037.251.23.558.34.912.324.423 0 .751-.127.989-.387.233-.262.352-.589.352-.974"/>
 <path fill="#4d87b8" d="m313.26 710.63c0 .826-.351 1.443-1.055 1.836-.594.324-1.396.48-2.4.48-.389 0-.803-.029-1.23-.089-.429-.065-.837-.195-1.214-.39-.715-.401-1.069-1.014-1.069-1.836 0-.829.355-1.442 1.069-1.836.629-.341 1.442-.509 2.444-.509.986 0 1.784.168 2.4.509.704.386 1.055 1 1.055 1.835m-.706 0c0-.507-.252-.885-.763-1.136-.431-.221-1.095-.333-1.986-.333-.903 0-1.581.112-2.02.333-.505.252-.763.629-.763 1.136 0 .504.258.882.763 1.131.272.121.574.201.914.251.34.047.706.071 1.105.071.872 0 1.533-.105 1.986-.322.511-.254.763-.632.763-1.131"/>
 <path fill="#4d87b8" d="m506.74 688.16h-.458c.027-.482-.077-.909-.316-1.271-.229-.313-.531-.487-.89-.543v-.646l6.699.008v.911h-5.04v1.541"/>
 <path fill="#4d87b8" d="m511.03 678.82h.746v4.515c-.548.032-1.021-.075-1.434-.326-.261-.173-.508-.405-.749-.7-.245-.294-.524-.706-.845-1.233-.331-.478-.609-.822-.844-1.043-.239-.214-.565-.321-.988-.321-.519 0-.857.153-1.01.464-.149.304-.23.604-.23.889 0 .535.203.935.606 1.198.26.152.572.228.928.228v.846c-.563 0-1.018-.121-1.355-.365-.597-.398-.897-1.046-.897-1.952 0-.625.13-1.102.392-1.427.256-.321.531-.53.821-.617.289-.085.54-.132.747-.132.592-.008 1.045.137 1.379.426.334.286.703.771 1.111 1.45.396.6.691.997.877 1.18.251.259.499.405.746.446v-3.526"/>
 <path fill="#4d87b8" d="m511.9 675.74c0 .827-.35 1.445-1.054 1.837-.598.322-1.402.48-2.407.48-.384 0-.799-.03-1.229-.09-.426-.063-.831-.195-1.206-.391-.719-.399-1.078-1.016-1.078-1.837 0-.827.361-1.44 1.078-1.835.626-.343 1.438-.506 2.436-.506.99 0 1.789.163 2.407.506.703.388 1.053 1 1.053 1.836m-.706 0c0-.509-.255-.885-.767-1.136-.429-.223-1.091-.332-1.988-.332-.901 0-1.576.109-2.01.332-.509.251-.764.627-.764 1.136 0 .503.255.882.764 1.133.271.118.577.199.911.249.341.048.709.07 1.103.07.877 0 1.536-.108 1.988-.319.512-.258.767-.636.767-1.133"/>
 <path fill="none" stroke="#4d87b8" stroke-width=".24" stroke-miterlimit="10" d="m542.5 851.67l.218-.066.183-.111.136-.159.068-.202v-.214l-.068-.202-.136-.159-.183-.111-.218-.067 4.214.65-4.214.641m-202.98-1.292l-.211.066-.188.112-.138.158-.071.202v.214l.071.202.138.163.188.107.211.067-4.208-.643 4.208-.648"/>
 <path fill="none" stroke="#4d87b8" stroke-width=".5" stroke-linecap="round" stroke-linejoin="round" stroke-miterlimit="10" d="m335.31 851.03h211.4m0-34.575v38.07m-211.4-163.28v162.81"/>
 <path fill="none" stroke="#4d87b8" stroke-width=".5" stroke-linecap="round" stroke-linejoin="round" stroke-miterlimit="10" d="m300.37 689.34v144.45m184.35 0h-187.38"/>
 <path fill="#4d87b8" d="m542.5 851.67l.218-.066.183-.111.136-.159.068-.202v-.214l-.068-.202-.136-.159-.183-.111-.218-.067 4.214.65-4.214.641m-202.98-1.292l-.211.066-.188.112-.138.158-.071.202v.214l.071.202.138.163.188.107.211.067-4.208-.643 4.208-.648"/>
 <path fill="#4d87b8" d="m299.72 829.58l.069.211.108.187.162.136.202.075h.211l.202-.075.163-.136.11-.187.067-.211-.645 4.21-.649-4.21m1.294-136.03l-.067-.215-.11-.187-.163-.134-.202-.07h-.211l-.202.07-.162.134-.108.187-.069.215.649-4.213.645 4.213"/>
 <path fill="none" stroke="#4d87b8" stroke-width=".5" stroke-linecap="round" stroke-linejoin="round" stroke-miterlimit="10" d="m485.43 709.49v-2.67m0 2.67l.001.129.041.127.055.112.084.101.104.086.11.063.129.036.129.014m-150.78-18.924v.001m149.17 16.11l-.159-.023-.14-.068-.119-.109-.078-.135-.036-.159.013-.159.056-.146.097-.127.133-.086.156-.046h.156l.155.046.127.086.103.127.055.146.016.159-.037.159-.076.135-.122.109-.139.068-.161.023m.939-1.203v.671m0 0l-.026.206-.071.199-.108.175-.147.148-.179.11-.195.071-.208.023-.212-.021-.198-.072-.172-.108-.151-.149-.108-.176-.076-.197-.021-.207.021-.207.071-.198.109-.175.078-.093m.654 1.219l-.162-.024-.146-.07-.122-.113-.08-.139-.032-.163.008-.164.061-.148.102-.128.136-.092.156-.049h.163l.155.049.133.092.104.128.061.148.008.164-.031.163-.08.139-.122.113-.148.07-.164.024m-5.519 2.175l-.269-.462m4.854-2.188l-.426.248m-4.427 1.94l5.074-2.932m-30.404 3.066v-1.992m2.941-.0001v1.992m-1.471 4l.327-.024.324-.073.313-.116.288-.163.263-.203.23-.24.188-.268.153-.293.104-.313.066-.33.001-.33-.035-.327-.086-.326-.129-.302-.173-.281-.214-.256-.246-.22-.276-.185-.3-.14-.314-.094-.331-.053h-.33l-.326.053-.317.094-.305.14-.274.185-.247.22-.212.256-.169.281-.133.302-.082.326-.035.327.011.33.061.33.103.313.153.293.195.268.231.24.261.203.288.163.308.116.322.073.335.024m.5-2.231h-1m0 0l-.502.862m.502.996h1m0-.128v.128m0-.128l.502-.867m0-.0001l-.502-.862m-1.502.862l.502.867m0 .129v-.128m-3.641-5.493h8.279m-8.279-.273v.273m8.279 0v-.271m-8.279-.002v-.152-.151-.137-.123-.097-.072-.051-.017m8.279 0v.017.051.072.097.122.138.151.152m42.762 23.302l-2.559.779m3.318 1.782l-2.533.776m2.533-.776l.023-.347-.008-.339-.048-.346-.081-.328-.114-.324-.151-.31-.177-.295-.201-.274m-2.561.781l-.103.034-.098.031-.101.029-.085.027-.076.023-.068.02-.049.013-.036.013m1.4 2.369l-.106.028-.099.028-.101.031-.085.028-.076.022-.068.018-.05.017-.034.009m-.78-2.549l-.063.018m.843 2.532l-.065.02m-.778-2.553l-.075.021-.101.031-.127.044-.156.047-.176.052-.193.056-.198.067-.207.061m2.01 2.174l-.07.027-.104.028-.127.041-.154.048-.178.052-.188.055-.204.069-.206.06m-.783-2.554l-22.366 6.838m23.15-4.284l-22.367 6.839m-.78-2.555l-2.386.729m3.168 1.826l-2.387.728m2.387-.728l-.782-2.555m-4.227 1.292l-.2.061m2.041-.625l-.561.174m-.681 3l-.212-.274-.181-.291-.153-.304-.115-.322-.09-.334-.05-.34-.017-.341.019-.344m2.822 1.93l-2.023.62m1.411-2.62l-.169-.554m.781 2.554l-.167-.554m5.759-26.968l-.069.04-.065.039-.058.031-.052.03-.048.023-.031.021-.02.001-.008.006m11.254 19.486l-11.251-19.486m59.43 102.91l-46.808-81.06m47.15 80.86l-.062.04-.068.036-.056.034-.057.029-.043.023-.029.018-.02.001-.007.007m-52.49-106.92l-.004.002-.021.014-.029.016-.05.026-.052.033-.058.035-.065.035-.072.041m59.78 102.71v.006l-.027.012-.028.024-.049.023-.049.027-.058.035-.07.036-.073.038m-46.9-82.02l-12.175-21.09m59.43 102.91l-45.88-79.45m-22.14-23.12l6.239-3.605m.353.337l1.536 2.655m-1.339-2.847l1.602 2.772m-8.54 1.233l-.033-.073-.016-.075-.004-.077.013-.076.026-.077.041-.064.056-.057.066-.045m1.452 3.322l-1.602-2.778m2.151 2.923l-.075.033-.075.019-.076.004-.08-.014-.073-.034-.064-.039-.058-.053-.047-.063m6.788-3.458l-6.24 3.604m6.391-4.155l.03.073.019.075.003.079-.011.079-.028.069-.043.073-.049.053-.071.049m-2-3.468l.073-.034.075-.016.078-.004.082.012.07.025.066.045.057.056.048.063m-5.141 6.587l-1.533-2.66m-.0001-.002l-.016-.031-.001-.04-.002-.036.008-.041.014-.033.02-.035.026-.032.032-.022m.0001-.002l6.133-3.539m-.0001 0l.036-.015.037-.001.037-.002.039.007.037.016.036.021.027.025.023.034m1.538 2.657l.014.038.001.035.002.046-.007.035-.011.039-.024.03-.024.027-.031.024m-.0001.0001l-6.134 3.538m0 0l-.036.018-.037.006-.037.002-.037-.005-.038-.015-.035-.02-.03-.027-.024-.032m66.57 99.8l1.61 2.774m-2.158-2.924l.071-.03.079-.02.077-.003.075.015.077.025.07.043.051.056.047.063m1.611 2.775l.023.071.025.075v.079l-.001.077-.032.072-.032.072-.063.055-.065.046m-8.248.138l6.244-3.608m-6.384 4.153l-.036-.072-.013-.076-.006-.077.015-.075.022-.077.049-.065.049-.057.06-.045m1.457 3.32l-1.597-2.776m2.141 2.919l-.068.035-.074.02-.085.002-.074-.012-.072-.032-.061-.042-.065-.051-.044-.063m6.791-3.458l-6.248 3.6m4.596-6.73l1.537 2.655m0 0l.018.035.007.04.002.041-.009.038-.006.035-.02.035-.026.028-.042.021m0 .002l-6.131 3.537m0 0l-.027.017-.043.001h-.034l-.051-.006-.025-.014-.041-.021-.029-.026-.02-.031m-.0001-.0001l-1.537-2.66m0-.0001l-.013-.036-.011-.037-.002-.038.008-.037.018-.037.021-.033.027-.032.023-.022m.0001-.0001l6.13-3.537m0 0l.046-.018.029-.008.047-.002.03.008.042.014.025.02.035.028.021.034m-44.07-93.53l-1.451.833m11.468 16.508l-1.449.837m1.449-.837l-10.02-17.342m4.542 22.816l-.743.425m.227-1.943l.517 1.519m-12.02-20.814l1.059 1.21m-1.059-1.21l-.74.428m11.212 19.417l1.033-.551m0 .0001l-.135-.418m4.677-2.701l-4.677 2.7m4.677-2.7l-10.02-17.344m0 .0001l-4.675 2.702m0 0l-.295-.325m.0001 0l-.991.614m5.346 6.992l.059-.138.161-.278.195-.247.238-.22.262-.174m-.002 0l.294-.144.305-.092.311-.046h.321l.321.046.303.092.282.144.268.175.232.219.202.247.158.278.118.299.07.312.024.317-.024.315-.07.317-.118.294-.158.276-.202.25-.232.217-.268.177-.282.143-.303.093-.321.05h-.321l-.311-.05-.305-.093-.294-.143-.133-.082m1.996-1.346l-1.213.371m0 0l-.368-1.211m1.211-.37l.37 1.21m-1.581-.84l1.211-.37m-.588.504l.124-.045.128.012.12.058.083.096.043.125-.009.127-.058.12-.1.084-.121.041-.134-.001-.112-.056-.086-.097-.044-.126.001-.128.058-.117.098-.084m-29.637 8.514l-.194-.334m1.301-.307l-.188-.334m.0001 0l-.073.038-.106.063-.141.081-.153.09-.169.092-.159.097-.136.078-.109.063-.07.04m1.138-.656h-.002l-.006.002-.006.005-.009.007m-1.114.641l-.009.006-.008.006-.004.004h-.002m-14.198-27.27l-.025.011-.063.037-.098.056-.129.077-.146.085-.158.087-.156.094-.138.08-.117.063-.081.047-.041.028-.005.002m15.434 27.478l.023.238.075.233.114.211.16.189.194.144.22.112.23.057.243.015.243-.038.227-.085.205-.126.179-.169.135-.201.1-.221.049-.237v-.243l-.049-.241-.1-.223-.135-.2-.179-.167-.205-.128-.227-.089-.243-.033-.243.001-.23.067-.22.103-.194.15-.16.181-.114.217-.075.229-.023.245m1.081-1.55l-15.358-26.596m-1.159.668l15.357 26.599"/>
 <path fill="#4d87b8" d="m292.31 771.71h-.459c.027-.481-.077-.909-.315-1.275-.231-.308-.526-.483-.891-.538v-.647l6.701.012v.911h-5.03l-.002 1.537"/>
 <path fill="#4d87b8" d="m297.48 764.73c0 .826-.351 1.438-1.056 1.833-.598.321-1.395.48-2.401.48-.39 0-.797-.03-1.23-.09-.433-.068-.834-.192-1.211-.391-.716-.403-1.074-1.012-1.074-1.833 0-.831.358-1.443 1.074-1.841.627-.338 1.442-.508 2.442-.508.983 0 1.785.17 2.4.508.705.391 1.056 1 1.056 1.842m-.704 0c0-.508-.256-.893-.765-1.144-.435-.22-1.096-.327-1.988-.327-.906 0-1.578.107-2.02.327-.513.251-.765.636-.765 1.144 0 .502.252.876.765 1.127.266.122.577.202.914.25.341.047.706.069 1.102.069.871 0 1.535-.105 1.988-.319.509-.257.765-.631.765-1.127"/>
 <path fill="#4d87b8" d="m295.62 761.61v-.868c.323-.052.588-.191.798-.405.208-.215.319-.539.324-.979 0-1.029-.531-1.545-1.585-1.545-.328 0-.667.092-1.019.267-.355.18-.534.577-.534 1.184 0 .391.069.7.208.922.147.223.262.354.356.398v.86l-3.521-.463v-3.639h.729v2.947l2.02.273c-.049-.035-.118-.122-.202-.257-.086-.134-.159-.31-.211-.521-.061-.217-.086-.454-.077-.719 0-.429.096-.8.288-1.117.189-.324.453-.573.792-.742.334-.174.728-.257 1.168-.257 1.521.061 2.28.863 2.28 2.408 0 .343-.038.662-.125.965-.085.304-.263.583-.539.835-.35.279-.738.428-1.151.453"/>
 <path fill="#4d87b8" d="m297.48 753.85c0 .831-.351 1.438-1.056 1.839-.598.319-1.395.479-2.401.479-.39 0-.797-.031-1.23-.097-.433-.059-.834-.188-1.211-.382-.716-.404-1.074-1.014-1.074-1.839 0-.83.358-1.443 1.074-1.837.627-.338 1.442-.512 2.442-.512.983 0 1.785.174 2.4.512.705.39 1.056 1 1.056 1.837m-.704 0c0-.511-.256-.891-.765-1.143-.435-.218-1.096-.329-1.988-.329-.906 0-1.578.111-2.02.329-.513.252-.765.632-.765 1.143 0 .502.252.88.765 1.131.266.117.577.204.914.251.341.046.706.067 1.102.067.871 0 1.535-.106 1.988-.318.509-.257.765-.636.765-1.131"/>
 <path fill="#4d87b8" d="m424.98 843.55v-.461c.485.029.905-.07 1.271-.308.309-.233.485-.531.535-.899h.654l-.011 6.7h-.914v-5.03h-1.535"/>
 <path fill="#4d87b8" d="m429.65 846.86h.868c.054.32.191.585.4.796.215.211.544.318.981.326 1.03 0 1.547-.531 1.547-1.584 0-.325-.09-.666-.27-1.021-.175-.354-.573-.531-1.179-.531-.39 0-.7.068-.921.211-.221.138-.356.261-.404.352h-.856l.464-3.523h3.637v.735h-2.945l-.275 2.02c.036-.048.124-.115.261-.205.132-.082.307-.151.522-.207.213-.06.448-.085.717-.077.424 0 .798.099 1.12.284.318.194.565.457.739.797.174.333.259.721.259 1.17-.063 1.52-.868 2.279-2.415 2.279-.338 0-.659-.04-.965-.123-.305-.091-.579-.265-.832-.541-.275-.357-.43-.736-.453-1.155"/>
 <path fill="#4d87b8" d="m437.4 848.68c-.75 0-1.308-.188-1.679-.56-.375-.372-.565-.839-.565-1.41 0-.559.134-.958.393-1.21.262-.25.536-.432.825-.543-.639-.229-.964-.717-.964-1.465 0-.496.174-.903.513-1.219.348-.32.838-.479 1.479-.479.631 0 1.117.154 1.465.473.346.312.521.723.521 1.225 0 .337-.075.635-.229.891-.152.259-.394.45-.724.574.189.063.384.163.577.316.193.146.351.346.467.59.115.246.173.527.173.847 0 .546-.175 1-.53 1.394-.356.385-.932.576-1.722.576m0-.695c.364 0 .685-.108.967-.33.277-.219.42-.555.42-1.01.019-.362-.094-.672-.325-.916-.234-.252-.592-.375-1.061-.375-.467 0-.813.125-1.041.379-.229.248-.337.556-.323.912 0 .421.125.746.386.983.262.237.588.355.977.355m0-3.346c.381 0 .671-.101.883-.305.21-.206.308-.479.294-.813-.018-.431-.158-.7-.415-.825-.257-.117-.512-.174-.762-.174-.358 0-.644.088-.856.269-.216.176-.318.419-.318.73 0 .355.101.631.313.826.211.197.497.292.861.292"/>
 <path fill="#4d87b8" d="m442.84 848.72c-.826 0-1.442-.349-1.835-1.053-.323-.595-.481-1.395-.481-2.398 0-.392.032-.805.094-1.23.063-.432.191-.837.388-1.211.399-.717 1.013-1.072 1.835-1.072.828 0 1.443.356 1.836 1.072.342.625.509 1.443.509 2.441 0 .986-.167 1.787-.509 2.398-.388.704-1 1.053-1.837 1.053m0-.7c.508 0 .889-.256 1.14-.762.22-.438.331-1.103.331-1.99 0-.909-.111-1.581-.331-2.02-.251-.509-.632-.763-1.14-.763-.502 0-.88.254-1.131.763-.119.271-.2.573-.251.907-.046.345-.069.71-.069 1.108 0 .87.11 1.535.32 1.99.255.508.635.763 1.131.763"/>
 <path fill="#4d87b8" d="m379.58 806.66v-.463c.485.031.907-.07 1.272-.309.307-.232.488-.529.537-.897h.648l-.009 6.699h-.914v-5.03h-1.534"/>
 <path fill="#4d87b8" d="m388.92 810.95v.743h-4.514c-.031-.539.08-1.017.331-1.433.168-.259.401-.506.695-.749.297-.242.708-.523 1.236-.842.478-.325.826-.61 1.042-.845.215-.233.323-.563.323-.981 0-.524-.153-.86-.46-1.017-.308-.151-.604-.226-.896-.226-.534 0-.932.197-1.196.599-.15.264-.227.574-.227.935h-.848c0-.567.123-1.018.367-1.36.396-.593 1.047-.891 1.953-.891.627 0 1.104.126 1.426.384.325.257.53.531.619.827.089.292.13.54.13.749.008.583-.134 1.04-.422 1.373-.291.33-.775.703-1.453 1.11-.602.398-.997.688-1.177.876-.257.251-.409.502-.454.747h3.525"/>
 <path fill="#4d87b8" d="m392 811.82c-.83 0-1.442-.353-1.838-1.057-.319-.593-.479-1.393-.479-2.397 0-.393.033-.803.094-1.23.064-.431.193-.837.386-1.212.402-.717 1.015-1.071 1.838-1.071.829 0 1.44.356 1.837 1.071.34.626.508 1.444.508 2.442 0 .987-.168 1.786-.508 2.398-.391.704-1 1.056-1.838 1.056m0-.705c.509 0 .889-.253 1.14-.762.221-.435.33-1.099.33-1.987 0-.908-.108-1.58-.33-2.02-.251-.507-.63-.763-1.14-.763-.502 0-.879.256-1.131.763-.119.271-.204.573-.25.911-.047.343-.072.707-.072 1.105 0 .869.106 1.533.321 1.987.26.51.636.763 1.132.763"/>
 <path fill="#4d87b8" d="m395.05 805.92c0-.275.093-.501.281-.675.189-.17.398-.259.631-.259.227 0 .433.089.618.259.185.174.279.399.279.675 0 .165-.043.318-.124.462-.082.144-.193.257-.335.336-.141.076-.286.118-.438.118-.27 0-.491-.095-.659-.28-.169-.184-.253-.396-.253-.636m.453 0c0 .118.041.227.13.321.086.095.197.143.329.143.126 0 .234-.041.33-.129.094-.085.141-.197.141-.335 0-.12-.04-.229-.126-.326-.086-.104-.199-.153-.345-.153-.113 0-.216.042-.315.125-.098.087-.144.2-.144.354"/>
 <path fill="none" stroke="#4d87b8" stroke-width=".235" stroke-miterlimit="10" stroke-dasharray="7.5374 3.7687" d="m357.6 708.13c2.122 99.41 104.83 150.82 180.98 112.92"/>
 <path fill="#4d87b8" d="m356.2 710.96l.45.15.97-2.93 1.14 2.87.43-.18-1.61-4.07z"/>
 <path fill="#4d87b8" d="m536.74 823.61l-.34-.33 2.13-2.22-3.06.33-.05-.47 4.35-.47z"/>
</svg>
