<?xml version="1.0" encoding="utf-8"?>
<!-- Generator: Adobe Illustrator 24.2.1, SVG Export Plug-In . SVG Version: 6.00 Build 0)  -->
<svg version="1.1" id="Слой_1" xmlns="http://www.w3.org/2000/svg" xmlns:xlink="http://www.w3.org/1999/xlink" x="0px" y="0px"
	 viewBox="0 0 549 551.2" style="enable-background:new 0 0 549 551.2;" xml:space="preserve">
<style type="text/css">
	.st0{fill:none;stroke:#5089BE;stroke-width:0.7286;stroke-linecap:round;stroke-linejoin:round;stroke-miterlimit:10;}
	.st1{fill:#5089BE;}
</style>
<path class="st0" d="M179.5,428.5l-0.3,0.1l-0.3,0.1l-0.2,0.2l-0.1,0.3v0.3l0.1,0.3l0.2,0.2l0.3,0.1l0.3,0.1l-6.4-0.9L179.5,428.5
	 M366.8,430.2l0.3-0.1l0.3-0.1l0.2-0.2l0.1-0.3v-0.3l-0.1-0.3l-0.2-0.2l-0.3-0.1l-0.3-0.1l6.4,0.9L366.8,430.2"/>
<path class="st0" d="M349.7,414l0.3-0.1l0.3-0.1l0.2-0.2l0.1-0.3V413l-0.1-0.3l-0.2-0.2l-0.3-0.1l-0.3-0.1l6.4,0.9L349.7,414
	 M205.5,412.4l-0.3,0.1l-0.3,0.1l-0.2,0.2l-0.1,0.3v0.3l0.1,0.3l0.2,0.2l0.3,0.1l0.3,0.1l-6.4-0.9L205.5,412.4"/>
<path class="st0" d="M162.6,204.4l-0.1-0.3l-0.1-0.3l-0.2-0.2l-0.3-0.1h-0.3l-0.3,0.1l-0.2,0.2l-0.1,0.3l-0.1,0.3l0.9-5.8
	L162.6,204.4 M160.8,391l0.1,0.3l0.1,0.3l0.2,0.2l0.3,0.1h0.3l0.3-0.1l0.2-0.2l0.1-0.3l0.1-0.3l-0.9,5.8L160.8,391"/>
<path class="st0" d="M224,380.5l-0.1-0.3l-0.1-0.3l-0.2-0.2l-0.3-0.1h-0.9l-0.3,0.1l-0.2,0.2l-0.1,0.3l-0.1,0.3l0.9-5.8L224,380.5
	 M221.6,391l0.1,0.3l0.1,0.3l0.2,0.2l0.3,0.1h0.9l0.3-0.1l0.2-0.2l0.1-0.3l0.1-0.3l-1.5,5.8L221.6,391"/>
<path class="st0" d="M239.7,491.8l0.1,0.3l0.1,0.3l0.2,0.2l0.3,0.1h0.3l0.3-0.1l0.2-0.2l0.1-0.3l0.1-0.3l-0.9,5.8L239.7,491.8
	 M241.4,513.3l-0.1-0.3l-0.1-0.3l-0.2-0.2l-0.3-0.1h-0.3l-0.3,0.1l-0.2,0.2l-0.1,0.3l-0.1,0.3l0.9-5.8L241.4,513.3"/>
<path class="st0" d="M165.4,493.3l-0.1-0.3l-0.1-0.3l-0.2-0.2l-0.3-0.1h-0.3l-0.3,0.1l-0.2,0.2l-0.1,0.3l-0.1,0.3l0.9-5.8
	L165.4,493.3 M163.7,506.7l0.1,0.3l0.1,0.3l0.2,0.2l0.3,0.1h0.3l0.3-0.1l0.2-0.2l0.1-0.3l0.1-0.3l-0.9,5.8L163.7,506.7 M389.5,486.9
	l0.1,0.3l0.1,0.3l0.2,0.2l0.3,0.1h0.3l0.3-0.1l0.2-0.2l0.1-0.3l0.1-0.3l-0.9,5.8L389.5,486.9 M391.3,518.2l-0.1-0.3l-0.1-0.3
	l-0.2-0.2l-0.3-0.1h-0.3l-0.3,0.1l-0.2,0.2l-0.1,0.3l-0.1,0.3l0.9-5.8L391.3,518.2 M411,47.6l-0.1-0.3l-0.1-0.3l-0.2-0.2l-0.3-0.1
	h-0.3l-0.3,0.1l-0.2,0.2l-0.1,0.3l-0.1,0.3l0.9-5.8L411,47.6 M409.2,390.9l0.1,0.3l0.1,0.3l0.2,0.2l0.3,0.1h0.3l0.3-0.1l0.2-0.2
	l0.1-0.3l0.1-0.3l-0.9,5.8L409.2,390.9"/>
<path class="st0" d="M144.3,507.1l0.1,0.3l0.1,0.3l0.2,0.2l0.3,0.1h0.3l0.3-0.1l0.2-0.2l0.1-0.3l0.1-0.3l-0.9,5.8L144.3,507.1
	 M146.1,460.9l-0.1-0.3l-0.1-0.3l-0.2-0.2l-0.3-0.1H145l-0.3,0.1l-0.2,0.2l-0.1,0.3l-0.1,0.3l0.9-5.8L146.1,460.9"/>
<path class="st0" d="M390.8,390.9l0.1,0.3l0.1,0.3l0.2,0.2l0.3,0.1h0.3l0.3-0.1l0.2-0.2l0.1-0.3l0.1-0.3l-0.9,5.8L390.8,390.9
	 M392.6,54.8l-0.1-0.3l-0.1-0.3l-0.2-0.2l-0.3-0.1h-0.3l-0.3,0.1l-0.2,0.2l-0.1,0.3l-0.1,0.3l0.9-5.8L392.6,54.8"/>
<path class="st0" d="M224.5,323.4l0.3-0.1l0.3-0.1l0.2-0.2l0.1-0.3v-0.3l-0.1-0.3l-0.2-0.2l-0.3-0.1l-0.3-0.1l5.8,0.9L224.5,323.4
	 M212.8,321.6l-0.3,0.1l-0.3,0.1l-0.2,0.2l-0.1,0.3v0.3l0.1,0.3l0.2,0.2l0.3,0.1l0.3,0.1l-5.2-0.9L212.8,321.6 M366.8,32.9l0.3-0.1
	l0.3-0.1l0.2-0.2l0.1-0.3v-0.3l-0.1-0.3l-0.2-0.2l-0.3-0.1l-0.3-0.1l6.9,0.9L366.8,32.9 M175.5,31.2l-0.9,0.1l-0.3,0.1l-0.2,0.2
	l-0.1,0.3v0.3l0.1,0.3l0.2,0.2l0.3,0.1l0.9,0.1l-5.8-0.9L175.5,31.2"/>
<path class="st0" d="M373.2,429.3H173.1 M173.1,395.5v37.3 M374.3,395.3v36.7"/>
<path class="st0" d="M199.1,413.2h156.4 M356.7,395.3V416 M199.1,395.5v20"/>
<path class="st0" d="M161.7,396.8V198.7 M169.7,198.7h-12 M173.3,396.8h-15"/>
<path class="st0" d="M222.5,396.8v-22 M199.1,396.8h28.5"/>
<path class="st0" d="M240.6,497.6v-23.8 M240.6,507.5v-9.9 M240.6,507.5v11.1"/>
<path class="st0" d="M164.5,512.4v-24.9 M180.2,512.4h-40.6 M390.4,492.6v-29.7 M390.4,512.4v-19.8 M390.4,512.4v11.1 M369.3,492.6
	h25 M369.3,512.4h25 M410.1,396.6V41.8 M374.3,41.8h38.6 M374.1,396.6h39.4"/>
<path class="st0" d="M145.2,455.1v57.8 M317,454.5H141.6 M178.2,486.4h-16.8"/>
<path class="st0" d="M391.7,49v347.7 M374.1,396.6h19.2 M367.6,49h26.8"/>
<path class="st0" d="M169.7,32.1l204-0.1 M374.3,41.8V28.6 M169.7,180.5V28.7"/>
<path class="st1" d="M179.5,428.5l-0.3,0.1l-0.3,0.1l-0.2,0.2l-0.1,0.3v0.3l0.1,0.3l0.2,0.2l0.3,0.1l0.3,0.1l-6.4-0.9L179.5,428.5
	 M366.8,430.2l0.3-0.1l0.3-0.1l0.2-0.2l0.1-0.3v-0.3l-0.1-0.3l-0.2-0.2l-0.3-0.1l-0.3-0.1l6.4,0.9L366.8,430.2"/>
<path class="st1" d="M349.7,414l0.3-0.1l0.3-0.1l0.2-0.2l0.1-0.3V413l-0.1-0.3l-0.2-0.2l-0.3-0.1l-0.3-0.1l6.4,0.9L349.7,414
	 M205.5,412.4l-0.3,0.1l-0.3,0.1l-0.2,0.2l-0.1,0.3v0.3l0.1,0.3l0.2,0.2l0.3,0.1l0.3,0.1l-6.4-0.9L205.5,412.4"/>
<path class="st1" d="M162.6,204.4l-0.1-0.3l-0.1-0.3l-0.2-0.2l-0.3-0.1h-0.3l-0.3,0.1l-0.2,0.2l-0.1,0.3l-0.1,0.3l0.9-5.8
	L162.6,204.4 M160.8,391l0.1,0.3l0.1,0.3l0.2,0.2l0.3,0.1h0.3l0.3-0.1l0.2-0.2l0.1-0.3l0.1-0.3l-0.9,5.8L160.8,391"/>
<path class="st1" d="M224,380.5l-0.1-0.3l-0.1-0.3l-0.2-0.2l-0.3-0.1h-0.9l-0.3,0.1l-0.2,0.2l-0.1,0.3l-0.1,0.3l0.9-5.8L224,380.5
	 M221.6,391l0.1,0.3l0.1,0.3l0.2,0.2l0.3,0.1h0.9l0.3-0.1l0.2-0.2l0.1-0.3l0.1-0.3l-1.5,5.8L221.6,391"/>
<path class="st1" d="M239.7,491.8l0.1,0.3l0.1,0.3l0.2,0.2l0.3,0.1h0.3l0.3-0.1l0.2-0.2l0.1-0.3l0.1-0.3l-0.9,5.8L239.7,491.8
	 M241.4,513.3l-0.1-0.3l-0.1-0.3l-0.2-0.2l-0.3-0.1h-0.3l-0.3,0.1l-0.2,0.2l-0.1,0.3l-0.1,0.3l0.9-5.8L241.4,513.3"/>
<path class="st1" d="M165.4,493.3l-0.1-0.3l-0.1-0.3l-0.2-0.2l-0.3-0.1h-0.3l-0.3,0.1l-0.2,0.2l-0.1,0.3l-0.1,0.3l0.9-5.8
	L165.4,493.3 M163.7,506.7l0.1,0.3l0.1,0.3l0.2,0.2l0.3,0.1h0.3l0.3-0.1l0.2-0.2l0.1-0.3l0.1-0.3l-0.9,5.8L163.7,506.7 M389.5,486.9
	l0.1,0.3l0.1,0.3l0.2,0.2l0.3,0.1h0.3l0.3-0.1l0.2-0.2l0.1-0.3l0.1-0.3l-0.9,5.8L389.5,486.9 M391.3,518.2l-0.1-0.3l-0.1-0.3
	l-0.2-0.2l-0.3-0.1h-0.3l-0.3,0.1l-0.2,0.2l-0.1,0.3l-0.1,0.3l0.9-5.8L391.3,518.2 M411,47.6l-0.1-0.3l-0.1-0.3l-0.2-0.2l-0.3-0.1
	h-0.3l-0.3,0.1l-0.2,0.2l-0.1,0.3l-0.1,0.3l0.9-5.8L411,47.6 M409.2,390.9l0.1,0.3l0.1,0.3l0.2,0.2l0.3,0.1h0.3l0.3-0.1l0.2-0.2
	l0.1-0.3l0.1-0.3l-0.9,5.8L409.2,390.9"/>
<path class="st1" d="M144.3,507.1l0.1,0.3l0.1,0.3l0.2,0.2l0.3,0.1h0.3l0.3-0.1l0.2-0.2l0.1-0.3l0.1-0.3l-0.9,5.8L144.3,507.1
	 M146.1,460.9l-0.1-0.3l-0.1-0.3l-0.2-0.2l-0.3-0.1H145l-0.3,0.1l-0.2,0.2l-0.1,0.3l-0.1,0.3l0.9-5.8L146.1,460.9"/>
<path class="st1" d="M390.8,390.9l0.1,0.3l0.1,0.3l0.2,0.2l0.3,0.1h0.3l0.3-0.1l0.2-0.2l0.1-0.3l0.1-0.3l-0.9,5.8L390.8,390.9
	 M392.6,54.8l-0.1-0.3l-0.1-0.3l-0.2-0.2l-0.3-0.1h-0.3l-0.3,0.1l-0.2,0.2l-0.1,0.3l-0.1,0.3l0.9-5.8L392.6,54.8"/>
<path class="st1" d="M224.5,323.4l0.3-0.1l0.3-0.1l0.2-0.2l0.1-0.3v-0.3l-0.1-0.3l-0.2-0.2l-0.3-0.1l-0.3-0.1l5.8,0.9L224.5,323.4
	 M212.8,321.6l-0.3,0.1l-0.3,0.1l-0.2,0.2l-0.1,0.3v0.3l0.1,0.3l0.2,0.2l0.3,0.1l0.3,0.1l-5.2-0.9L212.8,321.6 M366.8,32.9l0.3-0.1
	l0.3-0.1l0.2-0.2l0.1-0.3v-0.3l-0.1-0.3l-0.2-0.2l-0.3-0.1l-0.3-0.1l6.9,0.9L366.8,32.9 M175.5,31.2l-0.9,0.1l-0.3,0.1l-0.2,0.2
	l-0.1,0.3v0.3l0.1,0.3l0.2,0.2l0.3,0.1l0.9,0.1l-5.8-0.9L175.5,31.2"/>
<path class="st0" d="M374.1,395.3L374.1,395.3h0.1h0h0h0h0h0h0 M374.3,396.6L374.3,396.6L374.3,396.6L374.3,396.6L374.3,396.6
	L374.3,396.6h-0.1h0h-0.1 M374.3,395.3v1.3 M374.1,395.3h-5.7 M374.1,396.6h-5.7 M367.8,395.3L367.8,395.3h0.2h0.1h0.1h0.1h0.1h0.1
	h0.1 M368.4,396.6L368.4,396.6h-0.1h-0.1h-0.1H368h-0.1h-0.1h-0.1 M367.8,395.3h-10.3 M367.8,396.6h-10.3 M357.5,396.6h-0.2h-0.2
	H357h-0.1h-0.1h-0.1h0h0 M356.7,395.3L356.7,395.3L356.7,395.3h0.1h0.1h0.1h0.1h0.2h0.2 M356.7,396.6v-1.3 M368.1,49.1L368.1,49.1
	h-0.2h-0.1h-0.1h-0.1h0h0h0 M373.8,49.1h-5.7 M374.3,49.1L374.3,49.1L374.3,49.1L374.3,49.1h-0.1h-0.1H374h-0.1h-0.1 M374.3,395.3
	V49.1 M199.1,49.1L199.1,49.1L199.1,49.1L199.1,49.1H199h-0.1h-0.1h-0.1h-0.1 M199.1,395.5V49.1 M193.5,49.1L193.5,49.1h-0.2h-0.1
	h-0.1h-0.1h0h0h0 M193,395.5V49.1 M368.2,49L368.2,49H368h-0.1h-0.1h-0.1h0h0h0 M367.7,70.2V49 M367.7,78.6v-0.2 M367.7,119.7V86.9
	 M367.7,128.2V128 M367.7,336.4v-200 M367.7,344.8v-0.2 M367.7,395.3v-42.3 M374.4,49L374.4,49L374.4,49L374.4,49h-0.1h-0.1h-0.1
	H374h-0.1 M178.1,49.1h188.4 M374.3,48.6v-6.3 M173.1,48.7v-6.3 M173.1,41.9h201.2 M173.1,395.5L173.1,395.5L173.1,395.5
	L173.1,395.5L173.1,395.5L173.1,395.5h0.1h0h0.1 M173.3,396.8L173.3,396.8h-0.1h0h0h0h0h0h0 M173.1,396.8v-1.3 M178.5,395.5h-5.1
	 M178.5,396.8h-5.1 M198.3,395.5h0.2h0.2h0.1h0.1h0.1h0.1h0h0 M199.1,396.8L199.1,396.8L199.1,396.8H199h-0.1h-0.1h-0.1h-0.2h-0.2
	 M199.1,395.5v1.3 M198.3,395.5h-19.2 M198.3,396.8h-19.2 M178.5,395.5L178.5,395.5h0.1h0.1h0.1h0.1h0.1h0.1h0.1 M179.1,396.8
	L179.1,396.8h-0.2h-0.1h-0.1h-0.1h-0.1h-0.1h-0.1 M179.2,49.1L179.2,49.1L179.2,49.1L179.2,49.1V49v-0.1v-0.1v-0.1v-0.1 M179.2,48.6
	v4.2 M179.2,52.8L179.2,52.8v-0.2v-0.1v-0.1v-0.1v0v0v0 M190.5,395.5l2.5-2.5 M193,385.5h-13.8 M179.2,393l2.5,2.5 M356.9,392.7
	l10.5-7.3 M179.2,49.2L179.2,49.2L179.2,49.2L179.2,49.2h-0.1H179h-0.1h-0.1h-0.1 M179.2,52.3v-3.1 M179.2,395.5V49.1 M173.6,49.2
	L173.6,49.2h-0.2h-0.1h-0.1h-0.1h0h0h0 M173.1,395.5V49.2 M178.7,49.2h-5.1 M193,198.7h-13.8 M193,180.5h-13.8 M186.4,188l0.4,0
	l0.3-0.1l0.3-0.1l0.3-0.2l0.3-0.2l0.2-0.3l0.2-0.3l0.1-0.3l0-0.4l0-0.4l-0.1-0.3l-0.1-0.3l-0.2-0.3l-0.2-0.3l-0.3-0.2l-0.3-0.2
	l-0.3-0.1l-0.4-0.1h-0.4l-0.4,0.1l-0.3,0.1l-0.3,0.2l-0.3,0.2l-0.2,0.3l-0.2,0.3l-0.1,0.3l-0.1,0.3l0,0.4l0,0.4l0.1,0.3l0.2,0.3
	l0.2,0.3l0.3,0.2l0.3,0.2l0.3,0.1l0.3,0.1L186.4,188 M206.8,368.6h0.8 M206.8,369.1h0.8 M359,368.5h0.8 M359,369h0.8 M207.6,368.6
	L207.6,368.6L207.6,368.6v0.2v0.1v0.2v0.2v0.2v0.2 M359,369.5v-0.2v-0.2V369v-0.2v-0.1v-0.1v-0.1v0 M207.6,368.6H359 M359,369.9
	v-0.4 M207.6,369.6v0.4 M207.6,370h-0.8 M206.8,370v4.7 M206.8,374.7h153 M359.8,369.9v4.7 M359.8,369.9H359 M359.8,59.3L359.8,59.3
	L359.8,59.3L359.8,59.3v-0.1v-0.1V59v-0.1v-0.1 M206.8,59.4L206.8,59.4L206.8,59.4L206.8,59.4v-0.1v-0.1v-0.1V59V59 M206.8,59.4h153
	 M359.8,53.1L359.8,53.1v-0.2v-0.1v-0.1v-0.1v0v0v0 M339.3,52.7l20.5-0.1 M206.8,53.2L206.8,53.2v-0.2V53v-0.1v-0.1v0v0v0
	 M359.8,58.8v-5.7 M366.6,51h-6.3 M366.6,376.3h-6.3 M359.8,52.6V51 M359.8,369.9V59.3 M359.8,376.3v-1.7 M367.1,70.2V51
	 M367.1,119.7V86.9 M367.1,336.4v-200 M367.1,376.3v-23.2 M206.3,376.4h-5.7 M200.1,376.4V51.1 M206.8,370V59.4 M206.8,376.4v-1.7
	 M173.1,181.1l-0.5,0.3l0,0.5l-0.5,0.6l-0.4,0.7l-0.3,0.7l-0.2,0.8l-0.2,1.2l-0.1,1.2l0,1.3l0,1.3 M186,183.8h0.8 M170.9,189.6
	l0,1.3l0,1.3l0.1,1.3l0.2,1.2l0.3,1.1l0.4,0.8l0.5,0.7l0.7,0.6l0,0.4 M207.3,180.5L207.3,180.5l0.2,0l0.1,0l0.1,0.1l0.1,0.1l0,0.1
	l0,0.1l0,0.1 M207.8,198.2L207.8,198.2l0,0.2l0,0.1l-0.1,0.1l-0.1,0.1l-0.1,0l-0.1,0l-0.1,0 M207.8,181v17.2 M206.8,180.5h0.5
	 M207.3,198.7h-0.5 M172,198.7L172,198.7h-0.3h-0.4h-0.5h-0.3h-0.3h-0.3h-0.2h0 M172,180.5L172,180.5h-0.3h-0.4h-0.5h-0.3h-0.3h-0.3
	h-0.2h0 M169.7,198.7v-18.2 M207.5,198.6L207.5,198.6 M207.5,180.5L207.5,180.5 M200.1,181.3h-1 M199.1,197.8h1 M199.1,180.5h1
	 M172.1,180.5h1 M172.1,196.7v2 M172.1,180.5v2 M173.1,198.7h-1 M200.1,198.7h-1 M187,187.3v-2.7 M184.3,185.9l0,0.3l0.1,0.3
	l0.1,0.3l0.2,0.3l0.2,0.3l0.3,0.2l0.3,0.2l0.3,0.1l0.3,0l0.4,0l0.3-0.1l0.3-0.1l0.3-0.2l0.3-0.2l0.2-0.3l0.2-0.3l0.1-0.3l0.1-0.3
	v-0.4l-0.1-0.3l-0.1-0.3l-0.2-0.3l-0.2-0.3l-0.3-0.2l-0.3-0.2l-0.3-0.1l-0.3-0.1l-0.4,0l-0.3,0l-0.3,0.1l-0.3,0.2l-0.3,0.2l-0.2,0.3
	l-0.2,0.3l-0.1,0.3l-0.1,0.3L184.3,185.9 M185.8,187.3h1.2 M185.8,184.5v2.7 M187,184.5h-1.2 M367.7,128.2L367.7,128.2h-0.1h-0.1
	h-0.2h-0.2h-0.2h-0.3h-0.3h-0.2h-0.2h-0.2h-0.1h-0.1h0 M367.7,136.4L367.7,136.4h-0.1h-0.1h-0.2h-0.2h-0.2h-0.3h-0.3h-0.2h-0.2h-0.2
	h-0.1h-0.1h0 M367.7,136.4v-8.3 M367.7,344.8L367.7,344.8h-0.1h-0.1h-0.2h-0.2h-0.2h-0.3h-0.3h-0.2h-0.2h-0.2h-0.1h-0.1h0
	 M367.7,353.1L367.7,353.1h-0.1h-0.1h-0.2h-0.2h-0.2h-0.3h-0.3h-0.2h-0.2h-0.2h-0.1h-0.1h0 M367.7,353.1v-8.3 M367.7,78.6
	L367.7,78.6h-0.1h-0.1h-0.2h-0.2h-0.2h-0.3h-0.3h-0.2h-0.2h-0.2h-0.1h-0.1h0 M367.7,86.9L367.7,86.9h-0.1h-0.1h-0.2h-0.2h-0.2h-0.3
	h-0.3h-0.2h-0.2h-0.2h-0.1h-0.1h0 M367.7,86.9v-8.3 M367.7,336.4L367.7,336.4h-0.1h-0.1h-0.2h-0.2h-0.2h-0.3h-0.3h-0.2h-0.2h-0.2
	h-0.1h-0.1h0 M367.7,344.6L367.7,344.6h-0.1h-0.1h-0.2h-0.2h-0.2h-0.3h-0.3h-0.2h-0.2h-0.2h-0.1h-0.1h0 M367.7,344.6v-8.3
	 M367.7,119.7L367.7,119.7h-0.1h-0.1h-0.2h-0.2h-0.2h-0.3h-0.3h-0.2h-0.2h-0.2h-0.1h-0.1h0 M367.7,128L367.7,128h-0.1h-0.1h-0.2
	h-0.2h-0.2h-0.3h-0.3h-0.2h-0.2h-0.2h-0.1h-0.1h0 M367.7,128v-8.3 M367.7,70.2L367.7,70.2h-0.1h-0.1h-0.2h-0.2h-0.2h-0.3h-0.3h-0.2
	h-0.2h-0.2h-0.1h-0.1h0 M367.7,78.5L367.7,78.5h-0.1h-0.1h-0.2h-0.2h-0.2h-0.3h-0.3h-0.2h-0.2h-0.2h-0.1h-0.1h0 M367.7,78.5v-8.3
	 M347.1,51.8v-2.3 M173.1,42.2L173.1,42.2L173.1,42.2V42v0v0v0v0v0 M172.9,48.8v-6.5 M173.1,49v-6.8 M173.1,49.2L173.1,49.2
	L173.1,49.2L173.1,49.2L173.1,49.2v-0.1v0v0v0 M374.3,48.8L374.3,48.8L374.3,48.8V49v0v0v0v0v0 M374.3,41.8L374.3,41.8L374.3,41.8
	L374.3,41.8L374.3,41.8v0.1v0v0v0 M374.3,42v6.8 M200.1,50.7L200.1,50.7l0-0.1l0-0.1l0-0.1l0.1-0.1l0.1,0l0.1,0l0.1,0l0.1,0
	 M200.1,50.7v0.4 M200.1,51.1L200.1,51.1L200.1,51.1L200.1,51.1L200.1,51.1h0.1h0h0h0 M366.8,51L366.8,51L366.8,51h0.1h0h0h0h0h0
	 M367.1,50.6V51 M367.1,50.6L367.1,50.6l0-0.2l0-0.1l-0.1-0.1l-0.1-0.1l-0.1,0l-0.1,0l-0.1,0 M360.2,50.1L360.2,50.1l-0.1,0l-0.1,0
	l-0.1,0l-0.1,0.1l0,0.1l0,0.1l0,0.1l0,0.1 M360,51h6.8 M360.2,50.1h6.5 M359.8,51L359.8,51L359.8,51L359.8,51L359.8,51h0.1h0h0h0
	 M359.8,50.6V51 M360.2,377.1L360.2,377.1l-0.1,0l-0.1,0l-0.1,0l-0.1-0.1l0-0.1l0-0.1l0-0.1l0-0.1 M367.1,376.7L367.1,376.7l0,0.2
	l0,0.1l-0.1,0.1l-0.1,0.1l-0.1,0l-0.1,0l-0.1,0 M367.1,376.3L367.1,376.3L367.1,376.3L367.1,376.3L367.1,376.3h-0.1h0h0h0
	 M367.1,376.7v-0.4 M366.6,377.1h-6.5 M359.8,376.7v-0.4 M360,376.3L360,376.3L360,376.3h-0.1h0h0h0h0h0 M366.8,376.3H360
	 M206.4,377.2L206.4,377.2l0.1,0l0.1,0l0.1,0l0.1-0.1l0-0.1l0-0.1l0-0.1l0-0.1 M206.8,376.8v-0.4 M206.8,376.4L206.8,376.4
	L206.8,376.4L206.8,376.4L206.8,376.4h-0.1h0h0h0 M200.1,376.8v-0.4 M200.4,376.4L200.4,376.4L200.4,376.4h-0.1h0h0h0h0h0
	 M200.1,376.8L200.1,376.8l0,0.2l0,0.1l0.1,0.1l0.1,0.1l0.1,0l0.1,0l0.1,0 M206.6,376.4h-6.2 M206.4,377.2h-5.9 M239.9,368.6V59.4
	 M230.5,59.4v309.2 M172.1,196.7v2 M172.1,180.5v2 M365.4,128.2v8.3 M365.4,344.8v8.3 M365.4,78.6v8.3 M367.6,344.8v-0.2
	 M365.5,344.6v0.2 M365.4,336.4v8.3 M367.6,128.2V128 M365.5,128v0.2 M365.4,119.7v8.3 M367.6,78.6v-0.2 M365.5,78.5v0.2
	 M365.4,70.2v8.3"/>
<path class="st0" d="M358.4,492.6l-0.2,0l-0.2,0l-0.1,0.1l-0.1,0.1l-0.1,0.1l-0.1,0.1l0,0.2l0,0.2 M365.2,497.6l-0.1-0.1l-0.1-0.2
	l-0.1-0.2l0-0.2 M364.8,496.8l0-0.2l0.1-0.2l0.1-0.2l0.2-0.2l0.2-0.1l0.2-0.1l0.2,0l0.2,0l0.2,0.1l0.2,0.1l0.2,0.2l0.1,0.2l0.1,0.2
	v0.2l-0.1,0.2l-0.1,0.2l-0.2,0.2l-0.1,0 M369.9,492.9l4,4 M369.9,492.9L369.9,492.9l-0.1-0.1l-0.1,0l-0.1,0l-0.1,0l-0.1,0l-0.1,0
	l-0.1,0 M358.4,492.6h10.9 M357.6,497.6v-4.1 M357.6,511.6v-2.8 M357.6,511.6l0,0.2l0,0.2l0.1,0.1l0.1,0.1l0.1,0.1l0.1,0.1l0.2,0
	l0.2,0 M369.3,512.4h-10.9 M369.3,512.4L369.3,512.4l0.2,0l0.1,0l0.1,0l0.1,0l0.1,0l0.1,0l0.1-0.1 M373.9,508.2l-4,4 M373.9,508.2
	L373.9,508.2l0.1-0.1l0-0.1l0-0.1l0-0.1l0-0.1l0-0.1l0-0.1 M374.1,507.5v0.2 M374.1,497.4v0.2 M374.1,497.4L374.1,497.4l0-0.2l0-0.1
	l0-0.1l0-0.1l0-0.1l0-0.1l-0.1-0.1 M366.6,507.5L366.6,507.5l0.2,0.2l0.1,0.2l0.1,0.2v0.2l-0.1,0.2l-0.1,0.2l-0.2,0.2l-0.2,0.1
	l-0.2,0.1l-0.2,0l-0.2,0l-0.2-0.1l-0.2-0.1l-0.2-0.2l-0.1-0.2l-0.1-0.2l0-0.2 M364.8,508.3l0-0.2l0.1-0.2l0.1-0.2l0.1-0.1
	 M175.4,507.5h198.7 M175.4,497.6h198.7 M374.1,507v-8.9 M175.4,507v-8.9 M198.5,507.5v4.1 M187.7,507.5l0.1,0.1l0.1,0.2l0.1,0.2
	l0,0.2 M188.1,508.3l0,0.2l-0.1,0.2l-0.1,0.2l-0.2,0.2l-0.2,0.1l-0.2,0.1l-0.2,0l-0.2,0l-0.2-0.1l-0.2-0.1l-0.2-0.2l-0.1-0.2
	l-0.1-0.2v-0.2l0.1-0.2l0.1-0.2l0.2-0.2l0.1,0 M179.7,512.2l-4-4 M179.7,512.2L179.7,512.2l0.1,0.1l0.1,0l0.1,0l0.1,0l0.1,0l0.1,0
	l0.1,0 M197.7,512.4h-17.5 M197.7,512.4l0.2,0l0.2,0l0.1-0.1l0.1-0.1l0.1-0.1l0.1-0.1l0-0.2l0-0.2 M175.4,507.6v-0.2 M175.4,507.6
	L175.4,507.6l0,0.2l0,0.1l0,0.1l0,0.1l0,0.1l0,0.1l0.1,0.1 M173.8,497.1h-0.3h-0.3h-0.2h-0.2h-0.1h0 M175,497.6L175,497.6h-0.7h-0.5
	h-0.4h-0.3h-0.2h-0.2h-0.1h0 M198.5,497.1h-22.1 M176.4,497.6v-0.5 M198.5,497.6v-0.5 M200,497.1h5 M205.2,497.1L205.2,497.1h0.1
	h0.1h0.1h0h0h0 M205.5,497.1v0.5 M199.5,497.1v0.5 M178.2,486.7L178.2,486.7h0.2h0.2h0.3h0.4h0.4h0.5h0.4h0.1h0.1h0 M173.8,497.1
	h31.3 M193.8,487.5l1.6,0l1.6,0l1.5,0.1l1.4,0.2l0.8,0.2l0.8,0.3l0.7,0.4l0.6,0.5l0.5,0.6l0.5,0.8l0.4,0.9l0.3,0.9l0.2,1l0.2,1
	l0.1,0.9l0.1,0.9l0.1,0.9 M179.1,487.5h14.7 M171.5,489l0.1-0.4l0.2-0.4l0.4-0.4l0.5-0.2l0.5-0.1l0.5,0h0.5l0.5,0l0.6-0.1l0.6-0.2
	l0.6,0l0.6,0.2l0.6,0.2l0.6,0l0.6,0 M171.5,489L171.5,489 M173.8,497.1l0-0.8l0-0.8l0-0.8l0-0.8l0-0.8l-0.1-0.8l-0.2-0.6l-0.4-0.5
	l-0.5-0.5l-0.3-0.3l-0.3-0.3l-0.3-0.3l-0.2-0.4l0-0.2 M357.6,507.5v1.3 M357,507.8v-0.3 M175.4,497.8L175.4,497.8L175.4,497.8v-0.1
	v0v0v0v0v0 M175,497.6h0.4 M174.6,507.1L174.6,507.1l0,0.1l0,0.1l0,0.1l0.1,0.1l0.1,0l0.1,0l0.1,0l0.1,0 M175,497.6L175,497.6
	l-0.2,0l-0.1,0l-0.1,0.1l-0.1,0.1l0,0.1l0,0.1l0,0.1 M175.4,507.5L175.4,507.5L175.4,507.5L175.4,507.5L175.4,507.5v-0.1v0v0v0
	 M175,507.5h0.4 M174.6,507.1V498 M175.4,507.2v-9.4 M374.5,507.5L374.5,507.5l0.2,0l0.1,0l0.1-0.1l0.1-0.1l0-0.1l0-0.1l0-0.1
	 M374.1,507.2L374.1,507.2L374.1,507.2v0.1v0v0v0v0v0 M374.5,507.5h-0.4 M374.1,497.6L374.1,497.6L374.1,497.6L374.1,497.6
	L374.1,497.6v0.1v0v0v0 M374.5,497.6h-0.4 M375,498L375,498l0-0.1l0-0.1l0-0.1l-0.1-0.1l-0.1,0l-0.1,0l-0.1,0l-0.1,0 M375,498v9.1
	 M374.1,497.8v9.4 M172.6,497.1v0.5 M178.2,486.7v0.8 M180.8,487.5v-0.8"/>
<g>
	<path class="st1" d="M152.5,317.6h-0.6c0-0.7-0.1-1.3-0.4-1.8c-0.3-0.4-0.7-0.7-1.2-0.7v-0.9l9.2,0v1.3h-6.9V317.6z"/>
	<path class="st1" d="M158.4,304.7h1v6.2c-0.7,0-1.4-0.1-2-0.5c-0.4-0.2-0.7-0.6-1-1c-0.3-0.4-0.7-1-1.2-1.7
		c-0.5-0.7-0.8-1.1-1.2-1.4c-0.3-0.3-0.8-0.4-1.4-0.4c-0.7,0-1.2,0.2-1.4,0.6c-0.2,0.4-0.3,0.8-0.3,1.2c0,0.7,0.3,1.3,0.8,1.7
		c0.4,0.2,0.8,0.3,1.3,0.3v1.2c-0.8,0-1.4-0.2-1.9-0.5c-0.8-0.5-1.2-1.4-1.2-2.7c0-0.9,0.2-1.5,0.5-2c0.4-0.4,0.7-0.7,1.1-0.9
		s0.7-0.2,1-0.2c0.8,0,1.4,0.2,1.9,0.6c0.5,0.4,1,1.1,1.5,2c0.5,0.8,0.9,1.4,1.2,1.6c0.3,0.4,0.7,0.6,1,0.6V304.7z"/>
	<path class="st1" d="M159.6,300.5c0,1.1-0.5,2-1.5,2.5c-0.8,0.4-1.9,0.7-3.3,0.7c-0.5,0-1.1,0-1.7-0.1c-0.6-0.1-1.2-0.3-1.7-0.5
		c-1-0.6-1.5-1.4-1.5-2.5c0-1.1,0.5-2,1.5-2.5c0.9-0.5,2-0.7,3.4-0.7c1.4,0,2.5,0.2,3.3,0.7C159.1,298.5,159.6,299.3,159.6,300.5z
		 M158.7,300.5c0-0.7-0.4-1.2-1.1-1.6c-0.6-0.3-1.5-0.5-2.7-0.5c-1.2,0-2.2,0.2-2.8,0.5c-0.7,0.3-1.1,0.9-1.1,1.6
		c0,0.7,0.4,1.2,1.1,1.6c0.4,0.2,0.8,0.3,1.3,0.3c0.5,0.1,1,0.1,1.5,0.1c1.2,0,2.1-0.1,2.7-0.4C158.3,301.7,158.7,301.1,158.7,300.5
		z"/>
	<path class="st1" d="M159.6,293c0,1.1-0.5,2-1.5,2.5c-0.8,0.4-1.9,0.7-3.3,0.7c-0.5,0-1.1,0-1.7-0.1c-0.6-0.1-1.2-0.3-1.7-0.5
		c-1-0.6-1.5-1.4-1.5-2.5c0-1.1,0.5-2,1.5-2.5c0.9-0.5,2-0.7,3.4-0.7c1.4,0,2.5,0.2,3.3,0.7C159.1,291,159.6,291.8,159.6,293z
		 M158.7,293c0-0.7-0.4-1.2-1.1-1.6c-0.6-0.3-1.5-0.5-2.7-0.5c-1.2,0-2.2,0.2-2.8,0.5c-0.7,0.3-1.1,0.9-1.1,1.6
		c0,0.7,0.4,1.2,1.1,1.6c0.4,0.2,0.8,0.3,1.3,0.3c0.5,0.1,1,0.1,1.5,0.1c1.2,0,2.1-0.1,2.7-0.4C158.3,294.2,158.7,293.6,158.7,293z"
		/>
</g>
<g>
	<path class="st1" d="M267.4,20.8v-0.6c0.7,0,1.3-0.1,1.8-0.4c0.4-0.3,0.7-0.7,0.7-1.2h0.9l0,9.2h-1.3v-6.9H267.4z"/>
	<path class="st1" d="M280.3,26.8v1H274c0-0.7,0.1-1.4,0.5-2c0.2-0.4,0.6-0.7,1-1c0.4-0.3,1-0.7,1.7-1.2c0.7-0.5,1.1-0.8,1.4-1.2
		c0.3-0.3,0.4-0.8,0.4-1.4c0-0.7-0.2-1.2-0.6-1.4c-0.4-0.2-0.8-0.3-1.2-0.3c-0.7,0-1.3,0.3-1.7,0.8c-0.2,0.4-0.3,0.8-0.3,1.3H274
		c0-0.8,0.2-1.4,0.5-1.9c0.5-0.8,1.4-1.2,2.7-1.2c0.9,0,1.5,0.2,2,0.5c0.4,0.4,0.7,0.7,0.9,1.1s0.2,0.7,0.2,1c0,0.8-0.2,1.4-0.6,1.9
		c-0.4,0.5-1.1,1-2,1.5c-0.8,0.5-1.4,0.9-1.6,1.2c-0.4,0.3-0.6,0.7-0.6,1H280.3z"/>
	<path class="st1" d="M281.2,25l1.2,0c0.1,0.6,0.2,1,0.5,1.3c0.3,0.4,0.9,0.6,1.5,0.6c0.5,0,0.9-0.1,1.4-0.3
		c0.5-0.2,0.7-0.7,0.7-1.5c0-0.4-0.1-0.7-0.3-1.1c-0.2-0.4-0.7-0.6-1.4-0.6c-0.1,0-0.2,0-0.4,0s-0.4,0-0.6,0v-1
		c0.7,0,1.2-0.1,1.5-0.2c0.6-0.2,0.8-0.7,0.8-1.4c0-0.5-0.2-0.9-0.5-1.1s-0.8-0.4-1.3-0.4c-0.7,0-1.3,0.3-1.5,0.8
		c-0.2,0.2-0.2,0.6-0.2,1.2h-1.2c0-0.7,0.1-1.3,0.4-1.7c0.5-0.8,1.3-1.2,2.6-1.2c0.7,0,1.2,0.1,1.6,0.3c0.4,0.2,0.8,0.5,1,0.9
		c0.2,0.4,0.3,0.8,0.3,1.2c0,0.6-0.2,1-0.5,1.4s-0.7,0.6-1.1,0.7v0c0.5,0.1,0.9,0.3,1.3,0.7c0.3,0.4,0.5,0.9,0.5,1.6
		c0,0.9-0.3,1.6-0.9,2c-0.6,0.5-1.4,0.7-2.3,0.7c-0.5,0-0.9-0.1-1.4-0.2c-0.4-0.1-0.8-0.4-1.2-0.8C281.5,26.5,281.3,25.9,281.2,25z"
		/>
	<path class="st1" d="M295.3,26.8v1H289c0-0.7,0.1-1.4,0.5-2c0.2-0.4,0.6-0.7,1-1c0.4-0.3,1-0.7,1.7-1.2c0.7-0.5,1.1-0.8,1.4-1.2
		c0.3-0.3,0.4-0.8,0.4-1.4c0-0.7-0.2-1.2-0.6-1.4c-0.4-0.2-0.8-0.3-1.2-0.3c-0.7,0-1.3,0.3-1.7,0.8c-0.2,0.4-0.3,0.8-0.3,1.3H289
		c0-0.8,0.2-1.4,0.5-1.9c0.5-0.8,1.4-1.2,2.7-1.2c0.9,0,1.5,0.2,2,0.5c0.4,0.4,0.7,0.7,0.9,1.1s0.2,0.7,0.2,1c0,0.8-0.2,1.4-0.6,1.9
		c-0.4,0.5-1.1,1-2,1.5c-0.8,0.5-1.4,0.9-1.6,1.2c-0.4,0.3-0.6,0.7-0.6,1H295.3z"/>
</g>
<g>
	<g>
		<path class="st1" d="M208.4,309.4v-0.6c0.7,0,1.3-0.1,1.8-0.4c0.4-0.3,0.7-0.7,0.7-1.2h0.9l0,9.2h-1.3v-6.9H208.4z"/>
		<path class="st1" d="M219,314.1h-4.4v-1l4.3-6.1h1.2v6.1h1.5v1h-1.5v2.2H219V314.1z M215.8,313.2h3.2v-4.5L215.8,313.2z"/>
		<path class="st1" d="M225.6,316.5c-1.1,0-2-0.5-2.5-1.5c-0.4-0.8-0.7-1.9-0.7-3.3c0-0.5,0-1.1,0.1-1.7c0.1-0.6,0.3-1.2,0.5-1.7
			c0.6-1,1.4-1.5,2.5-1.5c1.1,0,2,0.5,2.5,1.5c0.5,0.9,0.7,2,0.7,3.4c0,1.4-0.2,2.5-0.7,3.3C227.6,316,226.7,316.5,225.6,316.5z
			 M225.6,315.5c0.7,0,1.2-0.4,1.6-1.1c0.3-0.6,0.5-1.5,0.5-2.7c0-1.2-0.2-2.2-0.5-2.8c-0.3-0.7-0.9-1.1-1.6-1.1
			c-0.7,0-1.2,0.4-1.6,1.1c-0.2,0.4-0.3,0.8-0.3,1.3c-0.1,0.5-0.1,1-0.1,1.5c0,1.2,0.1,2.1,0.4,2.7
			C224.4,315.2,224.9,315.5,225.6,315.5z"/>
	</g>
</g>
<g>
	<g>
		<path class="st1" d="M211.2,395.4h-0.6c0-0.7-0.1-1.3-0.4-1.8c-0.3-0.4-0.7-0.7-1.2-0.7V392l9.2,0v1.3h-6.9V395.4z"/>
		<path class="st1" d="M215.4,389.1l0-1.2c0.6-0.1,1-0.2,1.3-0.5c0.4-0.3,0.6-0.9,0.6-1.5c0-0.5-0.1-0.9-0.3-1.4
			c-0.2-0.5-0.7-0.7-1.5-0.7c-0.4,0-0.7,0.1-1.1,0.3c-0.4,0.2-0.6,0.7-0.6,1.4c0,0.1,0,0.2,0,0.4s0,0.4,0,0.6h-1
			c0-0.7-0.1-1.2-0.2-1.5c-0.2-0.6-0.7-0.8-1.4-0.8c-0.5,0-0.9,0.2-1.1,0.5s-0.4,0.8-0.4,1.3c0,0.7,0.3,1.3,0.8,1.5
			c0.2,0.2,0.6,0.2,1.2,0.2v1.2c-0.7,0-1.3-0.1-1.7-0.4c-0.8-0.5-1.2-1.3-1.2-2.6c0-0.7,0.1-1.2,0.3-1.6c0.2-0.4,0.5-0.8,0.9-1
			c0.4-0.2,0.8-0.3,1.2-0.3c0.6,0,1,0.2,1.4,0.5s0.6,0.7,0.7,1.1h0c0.1-0.5,0.3-0.9,0.7-1.3c0.4-0.3,0.9-0.5,1.6-0.5
			c0.9,0,1.6,0.3,2,0.9c0.5,0.6,0.7,1.4,0.7,2.3c0,0.5-0.1,0.9-0.2,1.4c-0.1,0.4-0.4,0.8-0.8,1.2C216.9,388.8,216.2,389,215.4,389.1
			z"/>
		<path class="st1" d="M211.2,380.4h-0.6c0-0.7-0.1-1.3-0.4-1.8c-0.3-0.4-0.7-0.7-1.2-0.7V377l9.2,0v1.3h-6.9V380.4z"/>
	</g>
</g>
<g>
	<g>
		<path class="st1" d="M387.7,224.5h1v6.2c-0.7,0-1.4-0.1-2-0.5c-0.4-0.2-0.7-0.6-1-1c-0.3-0.4-0.7-1-1.2-1.7
			c-0.5-0.7-0.8-1.1-1.2-1.4c-0.3-0.3-0.8-0.4-1.4-0.4c-0.7,0-1.2,0.2-1.4,0.6c-0.2,0.4-0.3,0.8-0.3,1.2c0,0.7,0.3,1.3,0.8,1.7
			c0.4,0.2,0.8,0.3,1.3,0.3v1.2c-0.8,0-1.4-0.2-1.9-0.5c-0.8-0.5-1.2-1.4-1.2-2.7c0-0.9,0.2-1.5,0.5-2s0.7-0.7,1.1-0.9
			c0.4-0.1,0.7-0.2,1-0.2c0.8,0,1.4,0.2,1.9,0.6c0.5,0.4,1,1.1,1.5,2c0.5,0.8,0.9,1.4,1.2,1.6c0.3,0.4,0.7,0.6,1,0.6V224.5z"/>
		<path class="st1" d="M381.8,222.4h-0.6c0-0.7-0.1-1.3-0.4-1.8c-0.3-0.4-0.7-0.7-1.2-0.7V219l9.2,0v1.3h-6.9V222.4z"/>
		<path class="st1" d="M388.9,212.8c0,1.1-0.5,2-1.5,2.5c-0.8,0.4-1.9,0.7-3.3,0.7c-0.5,0-1.1,0-1.7-0.1c-0.6-0.1-1.2-0.3-1.7-0.5
			c-1-0.6-1.5-1.4-1.5-2.5c0-1.1,0.5-2,1.5-2.5c0.9-0.5,2-0.7,3.4-0.7c1.4,0,2.5,0.2,3.3,0.7C388.4,210.8,388.9,211.6,388.9,212.8z
			 M387.9,212.8c0-0.7-0.4-1.2-1.1-1.6c-0.6-0.3-1.5-0.5-2.7-0.5c-1.2,0-2.2,0.2-2.8,0.5c-0.7,0.3-1.1,0.9-1.1,1.6
			c0,0.7,0.4,1.2,1.1,1.6c0.4,0.2,0.8,0.3,1.3,0.3c0.5,0.1,1,0.1,1.5,0.1c1.2,0,2.1-0.1,2.7-0.4C387.6,214,387.9,213.5,387.9,212.8z
			"/>
		<path class="st1" d="M388.9,205.3c0,1.1-0.5,2-1.5,2.5c-0.8,0.4-1.9,0.7-3.3,0.7c-0.5,0-1.1,0-1.7-0.1c-0.6-0.1-1.2-0.3-1.7-0.5
			c-1-0.6-1.5-1.4-1.5-2.5c0-1.1,0.5-2,1.5-2.5c0.9-0.5,2-0.7,3.4-0.7c1.4,0,2.5,0.2,3.3,0.7C388.4,203.3,388.9,204.1,388.9,205.3z
			 M387.9,205.3c0-0.7-0.4-1.2-1.1-1.6c-0.6-0.3-1.5-0.5-2.7-0.5c-1.2,0-2.2,0.2-2.8,0.5c-0.7,0.3-1.1,0.9-1.1,1.6
			c0,0.7,0.4,1.2,1.1,1.6c0.4,0.2,0.8,0.3,1.3,0.3c0.5,0.1,1,0.1,1.5,0.1c1.2,0,2.1-0.1,2.7-0.4C387.6,206.5,387.9,206,387.9,205.3z
			"/>
	</g>
</g>
<g>
	<g>
		<path class="st1" d="M406.3,224.5h1v6.2c-0.7,0-1.4-0.1-2-0.5c-0.4-0.2-0.7-0.6-1-1c-0.3-0.4-0.7-1-1.2-1.7
			c-0.5-0.7-0.8-1.1-1.2-1.4c-0.3-0.3-0.8-0.4-1.4-0.4c-0.7,0-1.2,0.2-1.4,0.6c-0.2,0.4-0.3,0.8-0.3,1.2c0,0.7,0.3,1.3,0.8,1.7
			c0.4,0.2,0.8,0.3,1.3,0.3v1.2c-0.8,0-1.4-0.2-1.9-0.5c-0.8-0.5-1.2-1.4-1.2-2.7c0-0.9,0.2-1.5,0.5-2s0.7-0.7,1.1-0.9
			c0.4-0.1,0.7-0.2,1-0.2c0.8,0,1.4,0.2,1.9,0.6c0.5,0.4,1,1.1,1.5,2c0.5,0.8,0.9,1.4,1.2,1.6c0.3,0.4,0.7,0.6,1,0.6V224.5z"/>
		<path class="st1" d="M400.4,222.4h-0.6c0-0.7-0.1-1.3-0.4-1.8c-0.3-0.4-0.7-0.7-1.2-0.7V219l9.2,0v1.3h-6.9V222.4z"/>
		<path class="st1" d="M405,216v-1.2c0.4-0.1,0.8-0.3,1.1-0.6c0.3-0.3,0.4-0.7,0.4-1.4c0-1.4-0.7-2.1-2.2-2.1
			c-0.5,0-0.9,0.1-1.4,0.4c-0.5,0.2-0.7,0.8-0.7,1.6c0,0.5,0.1,1,0.3,1.3c0.2,0.3,0.4,0.5,0.5,0.6v1.2l-4.9-0.6v-5h1v4.1l2.8,0.4
			c-0.1-0.1-0.2-0.2-0.3-0.4s-0.2-0.4-0.3-0.7c-0.1-0.3-0.1-0.6-0.1-1c0-0.6,0.1-1.1,0.4-1.5c0.3-0.4,0.6-0.8,1.1-1
			c0.5-0.2,1-0.4,1.6-0.4c2.1,0.1,3.1,1.2,3.1,3.3c0,0.5-0.1,0.9-0.2,1.3c-0.1,0.4-0.4,0.8-0.7,1.2C406.1,215.7,405.5,216,405,216z"
			/>
		<path class="st1" d="M407.5,205.3c0,1.1-0.5,2-1.5,2.5c-0.8,0.4-1.9,0.7-3.3,0.7c-0.5,0-1.1,0-1.7-0.1c-0.6-0.1-1.2-0.3-1.7-0.5
			c-1-0.6-1.5-1.4-1.5-2.5c0-1.1,0.5-2,1.5-2.5c0.9-0.5,2-0.7,3.4-0.7c1.4,0,2.5,0.2,3.3,0.7C407,203.3,407.5,204.1,407.5,205.3z
			 M406.5,205.3c0-0.7-0.4-1.2-1.1-1.6c-0.6-0.3-1.5-0.5-2.7-0.5c-1.2,0-2.2,0.2-2.8,0.5c-0.7,0.3-1.1,0.9-1.1,1.6
			c0,0.7,0.4,1.2,1.1,1.6c0.4,0.2,0.8,0.3,1.3,0.3c0.5,0.1,1,0.1,1.5,0.1c1.2,0,2.1-0.1,2.7-0.4C406.2,206.5,406.5,206,406.5,205.3z
			"/>
	</g>
</g>
<g>
	<g>
		<path class="st1" d="M269.6,406.7c0.1,0.3,0.3,0.6,0.6,0.9c0.3,0.2,0.7,0.3,1.2,0.3c0.8,0,1.4-0.4,1.8-1c0.3-0.5,0.5-1.3,0.5-2.3
			l-0.1,0c-0.5,0.6-1.3,1-2.3,1c-0.9,0-1.6-0.3-2.1-0.9c-0.6-0.6-0.8-1.3-0.8-2.2c0-0.6,0.1-1.1,0.4-1.6c0.2-0.5,0.6-0.9,1-1.1
			s1.1-0.4,1.8-0.4c1.2,0,2,0.4,2.6,1.1c0.3,0.4,0.5,0.9,0.6,1.5c0.1,0.6,0.2,1.2,0.2,2c0,0.7-0.1,1.4-0.2,1.9
			c-0.1,0.6-0.3,1.1-0.6,1.5c-0.6,1-1.5,1.5-2.7,1.5c-1.6,0-2.5-0.7-2.8-2.2H269.6z M273.6,402.5c-0.2-1.4-0.9-2.1-2-2.1
			c-0.6,0-1.1,0.2-1.4,0.6c-0.3,0.4-0.5,0.9-0.5,1.6c0,0.6,0.2,1.1,0.6,1.5c0.4,0.4,0.8,0.6,1.4,0.5c0.6,0,1.1-0.2,1.5-0.6
			C273.4,403.6,273.6,403.1,273.6,402.5z"/>
		<path class="st1" d="M275.9,406.3h1.2c0.1,0.4,0.3,0.8,0.6,1.1c0.3,0.3,0.7,0.4,1.4,0.4c1.4,0,2.1-0.7,2.1-2.2
			c0-0.5-0.1-0.9-0.4-1.4c-0.2-0.5-0.8-0.7-1.6-0.7c-0.5,0-1,0.1-1.3,0.3c-0.3,0.2-0.5,0.4-0.6,0.5h-1.2l0.6-4.9h5v1h-4.1l-0.4,2.8
			c0.1-0.1,0.2-0.2,0.4-0.3s0.4-0.2,0.7-0.3c0.3-0.1,0.6-0.1,1-0.1c0.6,0,1.1,0.1,1.5,0.4c0.4,0.3,0.8,0.6,1,1.1
			c0.2,0.5,0.4,1,0.4,1.6c-0.1,2.1-1.2,3.1-3.3,3.1c-0.5,0-0.9-0.1-1.3-0.2c-0.4-0.1-0.8-0.4-1.2-0.7
			C276.2,407.4,275.9,406.9,275.9,406.3z"/>
		<path class="st1" d="M286.6,408.9c-1.1,0-2-0.5-2.5-1.5c-0.4-0.8-0.7-1.9-0.7-3.3c0-0.5,0-1.1,0.1-1.7c0.1-0.6,0.3-1.2,0.5-1.7
			c0.6-1,1.4-1.5,2.5-1.5c1.1,0,2,0.5,2.5,1.5c0.5,0.9,0.7,2,0.7,3.4c0,1.4-0.2,2.5-0.7,3.3C288.6,408.4,287.8,408.9,286.6,408.9z
			 M286.6,407.9c0.7,0,1.2-0.4,1.6-1.1c0.3-0.6,0.5-1.5,0.5-2.7c0-1.2-0.2-2.2-0.5-2.8c-0.3-0.7-0.9-1.1-1.6-1.1
			c-0.7,0-1.2,0.4-1.6,1.1c-0.2,0.4-0.3,0.8-0.3,1.3c-0.1,0.5-0.1,1-0.1,1.5c0,1.2,0.1,2.1,0.4,2.7
			C285.4,407.6,285.9,407.9,286.6,407.9z"/>
	</g>
</g>
<g>
	<g>
		<path class="st1" d="M268.1,419.2v-0.6c0.7,0,1.3-0.1,1.8-0.4c0.4-0.3,0.7-0.7,0.7-1.2h0.9l0,9.2h-1.3v-6.9H268.1z"/>
		<path class="st1" d="M281,425.2v1h-6.2c0-0.7,0.1-1.4,0.5-2c0.2-0.4,0.6-0.7,1-1c0.4-0.3,1-0.7,1.7-1.2c0.7-0.5,1.1-0.8,1.4-1.2
			c0.3-0.3,0.4-0.8,0.4-1.4c0-0.7-0.2-1.2-0.6-1.4c-0.4-0.2-0.8-0.3-1.2-0.3c-0.7,0-1.3,0.3-1.7,0.8c-0.2,0.4-0.3,0.8-0.3,1.3h-1.2
			c0-0.8,0.2-1.4,0.5-1.9c0.5-0.8,1.4-1.2,2.7-1.2c0.9,0,1.5,0.2,2,0.5s0.7,0.7,0.9,1.1s0.2,0.7,0.2,1c0,0.8-0.2,1.4-0.6,1.9
			c-0.4,0.5-1.1,1-2,1.5c-0.8,0.5-1.4,0.9-1.6,1.2c-0.4,0.3-0.6,0.7-0.6,1H281z"/>
		<path class="st1" d="M283.1,419.2v-0.6c0.7,0,1.3-0.1,1.8-0.4c0.4-0.3,0.7-0.7,0.7-1.2h0.9l0,9.2h-1.3v-6.9H283.1z"/>
		<path class="st1" d="M292.7,426.4c-1.1,0-2-0.5-2.5-1.5c-0.4-0.8-0.7-1.9-0.7-3.3c0-0.5,0-1.1,0.1-1.7c0.1-0.6,0.3-1.2,0.5-1.7
			c0.6-1,1.4-1.5,2.5-1.5c1.1,0,2,0.5,2.5,1.5c0.5,0.9,0.7,2,0.7,3.4c0,1.4-0.2,2.5-0.7,3.3C294.7,425.9,293.9,426.4,292.7,426.4z
			 M292.7,425.4c0.7,0,1.2-0.4,1.6-1.1c0.3-0.6,0.5-1.5,0.5-2.7c0-1.2-0.2-2.2-0.5-2.8c-0.3-0.7-0.9-1.1-1.6-1.1
			c-0.7,0-1.2,0.4-1.6,1.1c-0.2,0.4-0.3,0.8-0.3,1.3c-0.1,0.5-0.1,1-0.1,1.5c0,1.2,0.1,2.1,0.4,2.7C291.5,425,292,425.4,292.7,425.4
			z"/>
	</g>
</g>
<g>
	<g>
		<path class="st1" d="M230.2,482.7c-0.8,0.2-1.2,0.8-1.2,1.8c0,0.8,0.3,1.4,1,1.8c0.5,0.3,1.3,0.4,2.3,0.5v-0.1
			c-0.4-0.3-0.6-0.6-0.8-1s-0.2-0.8-0.2-1.2c0-0.9,0.3-1.6,0.9-2.1c0.6-0.5,1.3-0.8,2.3-0.8c1,0,1.7,0.3,2.3,0.8
			c0.5,0.6,0.8,1.3,0.9,2.3c0,0.5-0.1,1-0.2,1.4s-0.5,0.8-0.9,1.1c-0.7,0.5-1.9,0.8-3.5,0.8c-1.5,0-2.7-0.2-3.4-0.7
			c-1-0.6-1.5-1.6-1.5-2.8c0-1.6,0.8-2.5,2.2-2.9V482.7z M234.5,486.6c1.4-0.1,2.1-0.8,2.1-2c0-0.6-0.2-1.1-0.6-1.4
			c-0.4-0.3-0.9-0.5-1.5-0.5c-0.7,0-1.2,0.2-1.6,0.5s-0.6,0.8-0.5,1.4c0,0.6,0.2,1.1,0.6,1.5C233.3,486.4,233.8,486.6,234.5,486.6z"
			/>
		<path class="st1" d="M237.6,477.2c0,1.1-0.5,2-1.5,2.5c-0.8,0.4-1.9,0.7-3.3,0.7c-0.5,0-1.1,0-1.7-0.1c-0.6-0.1-1.2-0.3-1.7-0.5
			c-1-0.6-1.5-1.4-1.5-2.5c0-1.1,0.5-2,1.5-2.5c0.9-0.5,2-0.7,3.4-0.7c1.4,0,2.5,0.2,3.3,0.7C237.1,475.2,237.6,476.1,237.6,477.2z
			 M236.6,477.2c0-0.7-0.4-1.2-1.1-1.6c-0.6-0.3-1.5-0.5-2.7-0.5c-1.2,0-2.2,0.2-2.8,0.5c-0.7,0.3-1.1,0.9-1.1,1.6
			c0,0.7,0.4,1.2,1.1,1.6c0.4,0.2,0.8,0.3,1.3,0.3c0.5,0.1,1,0.1,1.5,0.1c1.2,0,2.1-0.1,2.7-0.4
			C236.3,478.4,236.6,477.9,236.6,477.2z"/>
	</g>
</g>
<g>
	<g>
		<path class="st1" d="M153,509.3h-0.6c0-0.7-0.1-1.3-0.4-1.8c-0.3-0.4-0.7-0.7-1.2-0.7v-0.9l9.2,0v1.3H153V509.3z"/>
		<path class="st1" d="M157.5,502.9v-1.2c0.4-0.1,0.8-0.3,1.1-0.6c0.3-0.3,0.4-0.7,0.4-1.4c0-1.4-0.7-2.1-2.2-2.1
			c-0.5,0-0.9,0.1-1.4,0.4s-0.7,0.8-0.7,1.6c0,0.5,0.1,1,0.3,1.3c0.2,0.3,0.4,0.5,0.5,0.6v1.2l-4.9-0.6v-5h1v4.1l2.8,0.4
			c-0.1-0.1-0.2-0.2-0.3-0.4c-0.1-0.2-0.2-0.4-0.3-0.7s-0.1-0.6-0.1-1c0-0.6,0.1-1.1,0.4-1.5c0.3-0.4,0.6-0.8,1.1-1
			c0.5-0.2,1-0.4,1.6-0.4c2.1,0.1,3.1,1.2,3.1,3.3c0,0.5-0.1,0.9-0.2,1.3c-0.1,0.4-0.4,0.8-0.7,1.2
			C158.6,502.6,158.1,502.8,157.5,502.9z"/>
		<path class="st1" d="M160.1,492.2c0,1.1-0.5,2-1.5,2.5c-0.8,0.4-1.9,0.7-3.3,0.7c-0.5,0-1.1,0-1.7-0.1c-0.6-0.1-1.2-0.3-1.7-0.5
			c-1-0.6-1.5-1.4-1.5-2.5c0-1.1,0.5-2,1.5-2.5c0.9-0.5,2-0.7,3.4-0.7c1.4,0,2.5,0.2,3.3,0.7C159.6,490.2,160.1,491,160.1,492.2z
			 M159.1,492.2c0-0.7-0.4-1.2-1.1-1.6c-0.6-0.3-1.5-0.5-2.7-0.5c-1.2,0-2.2,0.2-2.8,0.5c-0.7,0.3-1.1,0.9-1.1,1.6
			c0,0.7,0.4,1.2,1.1,1.6c0.4,0.2,0.8,0.3,1.3,0.3c0.5,0.1,1,0.1,1.5,0.1c1.2,0,2.1-0.1,2.7-0.4
			C158.8,493.4,159.1,492.8,159.1,492.2z"/>
	</g>
</g>
<g>
	<g>
		<path class="st1" d="M138.6,492.4l0-1.2c0.6-0.1,1-0.2,1.3-0.5c0.4-0.3,0.6-0.9,0.6-1.5c0-0.5-0.1-0.9-0.3-1.4
			c-0.2-0.5-0.7-0.7-1.5-0.7c-0.4,0-0.7,0.1-1.1,0.3c-0.4,0.2-0.6,0.7-0.6,1.4c0,0.1,0,0.2,0,0.4s0,0.4,0,0.6h-1
			c0-0.7-0.1-1.2-0.2-1.5c-0.2-0.6-0.7-0.8-1.4-0.8c-0.5,0-0.9,0.2-1.1,0.5s-0.4,0.8-0.4,1.3c0,0.7,0.3,1.3,0.8,1.5
			c0.2,0.2,0.6,0.2,1.2,0.2v1.2c-0.7,0-1.3-0.1-1.7-0.4c-0.8-0.5-1.2-1.3-1.2-2.6c0-0.7,0.1-1.2,0.3-1.6c0.2-0.4,0.5-0.8,0.9-1
			c0.4-0.2,0.8-0.3,1.2-0.3c0.6,0,1,0.2,1.4,0.5s0.6,0.7,0.7,1.1h0c0.1-0.5,0.3-0.9,0.7-1.3c0.4-0.3,0.9-0.5,1.6-0.5
			c0.9,0,1.6,0.3,2,0.9c0.5,0.6,0.7,1.4,0.7,2.3c0,0.5-0.1,0.9-0.2,1.4c-0.1,0.4-0.4,0.8-0.8,1.2
			C140.1,492.1,139.5,492.3,138.6,492.4z"/>
		<path class="st1" d="M139,484.8v-1.2c0.4-0.1,0.8-0.3,1.1-0.6c0.3-0.3,0.4-0.7,0.4-1.4c0-1.4-0.7-2.1-2.2-2.1
			c-0.5,0-0.9,0.1-1.4,0.4s-0.7,0.8-0.7,1.6c0,0.5,0.1,1,0.3,1.3c0.2,0.3,0.4,0.5,0.5,0.6v1.2l-4.9-0.6v-5h1v4.1l2.8,0.4
			c-0.1-0.1-0.2-0.2-0.3-0.4c-0.1-0.2-0.2-0.4-0.3-0.7s-0.1-0.6-0.1-1c0-0.6,0.1-1.1,0.4-1.5c0.3-0.4,0.6-0.8,1.1-1
			c0.5-0.2,1-0.4,1.6-0.4c2.1,0.1,3.1,1.2,3.1,3.3c0,0.5-0.1,0.9-0.2,1.3c-0.1,0.4-0.4,0.8-0.7,1.2
			C140.1,484.5,139.6,484.7,139,484.8z"/>
		<path class="st1" d="M141.6,474.1c0,1.1-0.5,2-1.5,2.5c-0.8,0.4-1.9,0.7-3.3,0.7c-0.5,0-1.1,0-1.7-0.1c-0.6-0.1-1.2-0.3-1.7-0.5
			c-1-0.6-1.5-1.4-1.5-2.5c0-1.1,0.5-2,1.5-2.5c0.9-0.5,2-0.7,3.4-0.7c1.4,0,2.5,0.2,3.3,0.7C141.1,472.1,141.6,472.9,141.6,474.1z
			 M140.6,474.1c0-0.7-0.4-1.2-1.1-1.6c-0.6-0.3-1.5-0.5-2.7-0.5c-1.2,0-2.2,0.2-2.8,0.5c-0.7,0.3-1.1,0.9-1.1,1.6
			c0,0.7,0.4,1.2,1.1,1.6c0.4,0.2,0.8,0.3,1.3,0.3c0.5,0.1,1,0.1,1.5,0.1c1.2,0,2.1-0.1,2.7-0.4
			C140.3,475.3,140.6,474.8,140.6,474.1z"/>
	</g>
</g>
<g>
	<g>
		<path class="st1" d="M379.8,485.1h-0.6c0-0.7-0.1-1.3-0.4-1.8c-0.3-0.4-0.7-0.7-1.2-0.7v-0.9l9.2,0v1.3h-6.9V485.1z"/>
		<path class="st1" d="M385.7,472.2h1v6.2c-0.7,0-1.4-0.1-2-0.5c-0.4-0.2-0.7-0.6-1-1c-0.3-0.4-0.7-1-1.2-1.7
			c-0.5-0.7-0.8-1.1-1.2-1.4c-0.3-0.3-0.8-0.4-1.4-0.4c-0.7,0-1.2,0.2-1.4,0.6c-0.2,0.4-0.3,0.8-0.3,1.2c0,0.7,0.3,1.3,0.8,1.7
			c0.4,0.2,0.8,0.3,1.3,0.3v1.2c-0.8,0-1.4-0.2-1.9-0.5c-0.8-0.5-1.2-1.4-1.2-2.7c0-0.9,0.2-1.5,0.5-2s0.7-0.7,1.1-0.9
			s0.7-0.2,1-0.2c0.8,0,1.4,0.2,1.9,0.6c0.5,0.4,1,1.1,1.5,2c0.5,0.8,0.9,1.4,1.2,1.6c0.3,0.4,0.7,0.6,1,0.6V472.2z"/>
		<path class="st1" d="M386.9,467.9c0,1.1-0.5,2-1.5,2.5c-0.8,0.4-1.9,0.7-3.3,0.7c-0.5,0-1.1,0-1.7-0.1c-0.6-0.1-1.2-0.3-1.7-0.5
			c-1-0.6-1.5-1.4-1.5-2.5c0-1.1,0.5-2,1.5-2.5c0.9-0.5,2-0.7,3.4-0.7c1.4,0,2.5,0.2,3.3,0.7C386.4,465.9,386.9,466.8,386.9,467.9z
			 M385.9,467.9c0-0.7-0.4-1.2-1.1-1.6c-0.6-0.3-1.5-0.5-2.7-0.5c-1.2,0-2.2,0.2-2.8,0.5c-0.7,0.3-1.1,0.9-1.1,1.6
			c0,0.7,0.4,1.2,1.1,1.6c0.4,0.2,0.8,0.3,1.3,0.3c0.5,0.1,1,0.1,1.5,0.1c1.2,0,2.1-0.1,2.7-0.4
			C385.6,469.1,385.9,468.6,385.9,467.9z"/>
	</g>
</g>
<path class="st0" d="M357.6,511.6v-3.3 M357.6,511.6l0,0.2l0,0.2l0.1,0.1l0.1,0.1l0.1,0.1l0.1,0.1l0.2,0l0.2,0 M171.5,489L171.5,489
	 M356.5,509l-0.2,0l-0.2-0.1l-0.1-0.1l-0.1-0.2l0-0.2l0-0.2l0.1-0.2l0.1-0.2l0.2-0.1l0.2-0.1h0.2l0.2,0.1l0.2,0.1l0.1,0.2l0.1,0.2
	l0,0.2l0,0.2l-0.1,0.2l-0.1,0.1l-0.2,0.1L356.5,509 M357.6,507.5v0.8 M357.6,508.3l0,0.3l-0.1,0.2l-0.1,0.2l-0.2,0.2l-0.2,0.1
	l-0.2,0.1l-0.3,0l-0.3,0l-0.2-0.1l-0.2-0.1l-0.2-0.2l-0.1-0.2l-0.1-0.2l0-0.3l0-0.3l0.1-0.2l0.1-0.2l0.1-0.1 M356.5,509l-0.2,0
	l-0.2-0.1l-0.1-0.1l-0.1-0.2l0-0.2l0-0.2l0.1-0.2l0.1-0.2l0.2-0.1l0.2-0.1h0.2l0.2,0.1l0.2,0.1l0.1,0.2l0.1,0.2l0,0.2l0,0.2
	l-0.1,0.2l-0.1,0.1l-0.2,0.1L356.5,509 M357.7,512.8L357.7,512.8L357.7,512.8L357.7,512.8l-0.1,0.1l-0.1,0l-0.1,0l-0.1,0l-0.1,0
	 M357.5,512.3L357.5,512.3l0.1,0.2l0,0.1l0,0.1l0,0.1l-0.1,0.1l-0.1,0.1l-0.1,0.1 M357.1,512.4L357.1,512.4L357.1,512.4l0,0.1l0,0
	l0,0l0,0l0,0l0,0"/>
<line class="st0" x1="319.2" y1="486.4" x2="319.2" y2="488.4"/>
<line class="st0" x1="344" y1="486.4" x2="344" y2="488.4"/>
<line class="st0" x1="344" y1="486.4" x2="319.2" y2="486.4"/>
<line class="st0" x1="346.4" y1="495.6" x2="346.4" y2="496.7"/>
<line class="st0" x1="344.5" y1="495.2" x2="346.4" y2="495.6"/>
<line class="st0" x1="316.7" y1="495.6" x2="318.7" y2="495.2"/>
<line class="st0" x1="316.7" y1="495.6" x2="316.7" y2="496.7"/>
<line class="st0" x1="344.4" y1="496.7" x2="344.5" y2="495.2"/>
<line class="st0" x1="344.5" y1="495.2" x2="344" y2="495.1"/>
<line class="st0" x1="344" y1="488.4" x2="344" y2="495.1"/>
<line class="st0" x1="344" y1="488.4" x2="318.7" y2="488.3"/>
<line class="st0" x1="319.2" y1="488.4" x2="319.2" y2="495.1"/>
<line class="st0" x1="319.2" y1="495.1" x2="318.7" y2="495.2"/>
<line class="st0" x1="318.7" y1="495.2" x2="318.7" y2="496.7"/>
<line class="st0" x1="318.5" y1="495.4" x2="318.5" y2="462.7"/>
<line class="st0" x1="316.9" y1="458.6" x2="316.9" y2="495.4"/>
<line class="st0" x1="333.8" y1="494.6" x2="332.6" y2="491.5"/>
<line class="st0" x1="330.7" y1="495.8" x2="329.5" y2="492.8"/>
<polyline class="st0" points="330.7,495.8 331.2,495.8 331.6,495.7 332,495.6 332.4,495.5 332.8,495.3 333.1,495.1 333.5,494.9 
	333.8,494.6 "/>
<line class="st0" x1="330.5" y1="486.3" x2="320.8" y2="459.5"/>
<line class="st0" x1="326.9" y1="486.3" x2="317.7" y2="460.7"/>
<line class="st0" x1="320.8" y1="459.5" x2="319.7" y2="456.6"/>
<line class="st0" x1="317.7" y1="460.7" x2="316.6" y2="457.9"/>
<line class="st0" x1="317.7" y1="460.7" x2="320.8" y2="459.5"/>
<line class="st0" x1="318.8" y1="454.4" x2="318.7" y2="454.2"/>
<line class="st0" x1="319.8" y1="457.1" x2="318.7" y2="454.3"/>
<polyline class="st0" points="315.6,455.5 315.9,455.2 316.3,454.9 316.6,454.7 317,454.5 317.4,454.4 317.8,454.3 318.2,454.2 
	318.7,454.2 "/>
<line class="st0" x1="316.6" y1="457.9" x2="315.6" y2="455.5"/>
<line class="st0" x1="319" y1="456.9" x2="319.7" y2="456.6"/>
<line class="st0" x1="316.6" y1="457.9" x2="317.3" y2="457.6"/>
<polyline class="st0" points="332.4,491 332.5,491.1 332.9,491.2 333.2,491.5 333.5,491.7 333.8,492 "/>
<polyline class="st0" points="333.8,492 334,492.4 334.1,492.7 334.2,493.1 334.2,493.5 334.2,493.9 334.1,494.3 334,494.7 
	333.8,495 333.6,495.3 333.3,495.6 333,495.8 332.6,496 332.2,496.1 331.8,496.2 331.4,496.2 331.1,496.1 330.7,496 330.3,495.9 
	330,495.6 329.7,495.4 329.4,495.1 329.2,494.7 329.1,494.4 329,494 329,493.6 329,493.2 329.1,492.8 329.2,492.4 329.3,492.3 "/>
<line class="st0" x1="331.2" y1="494.6" x2="330.6" y2="493.1"/>
<line class="st0" x1="330.6" y1="493.1" x2="332" y2="492.5"/>
<line class="st0" x1="332.6" y1="494" x2="331.2" y2="494.6"/>
<line class="st0" x1="332" y1="492.5" x2="332.6" y2="494"/>
<polyline class="st0" points="331.9,493.3 332,493.5 332,493.6 332,493.8 331.8,493.9 331.7,494 331.5,494 331.4,493.9 331.3,493.8 
	331.2,493.6 331.2,493.5 331.3,493.3 331.4,493.2 331.5,493.1 331.7,493.1 331.8,493.2 331.9,493.3 "/>
<polyline class="st0" points="317.6,454.7 317.3,454.8 317,454.9 316.7,455.1 316.5,455.3 316.4,455.5 316.3,455.8 316.2,456.1 
	316.2,456.4 316.3,456.7 316.4,457 316.6,457.2 316.8,457.4 317.1,457.5 317.4,457.6 317.7,457.7 318,457.7 318.3,457.6 
	318.5,457.4 318.8,457.2 318.9,457 319.1,456.7 319.2,456.4 319.2,456.1 319.1,455.8 319,455.6 318.9,455.3 318.7,455.1 
	318.4,454.9 318.2,454.8 317.9,454.7 317.6,454.7 "/>
<path class="st0" d="M318.8,454.4c0,0,0.3,0,0.4,0.1"/>
<line class="st0" x1="316.3" y1="454.5" x2="316.3" y2="454.9"/>
<path class="st0" d="M316.3,454.5c0.5-0.2,0.8-0.3,1.3-0.3"/>
<line class="st0" x1="319.2" y1="454.5" x2="319.1" y2="455.2"/>
<path class="st0" d="M316.3,454.5c0.5-0.2,1.3-0.3,1.7-0.3"/>
<line class="st0" x1="326.5" y1="486.4" x2="319.2" y2="486.4"/>
<line class="st0" x1="327.7" y1="488.4" x2="319.2" y2="488.4"/>
<line class="st0" x1="312.5" y1="496.9" x2="316" y2="496.9"/>
<g id="XMLID_1_">
	<g>
	</g>
	<g>
		<line class="st0" x1="206.8" y1="52.7" x2="359.8" y2="52.7"/>
		<line class="st0" x1="316.9" y1="49.1" x2="316.9" y2="52.4"/>
	</g>
</g>
<path class="st0" d="M334.1,493.5c0,1.4-1.1,2.6-2.6,2.6c-1.4,0-2.6-1.1-2.6-2.6s1.1-2.6,2.6-2.6C333,491,334.1,492.1,334.1,493.5z"
	/>
<line class="st0" x1="206.6" y1="322.7" x2="230.8" y2="322.7"/>
<line class="st0" x1="272.9" y1="368.6" x2="272.9" y2="60"/>
<line class="st0" x1="263.5" y1="60" x2="263.5" y2="368.6"/>
<line class="st0" x1="305.5" y1="368.6" x2="305.5" y2="60"/>
<line class="st0" x1="296.2" y1="60" x2="296.2" y2="368.6"/>
<line class="st0" x1="337.9" y1="368.8" x2="337.9" y2="60.2"/>
<line class="st0" x1="328.6" y1="60.2" x2="328.6" y2="368.8"/>
<path class="st0" d="M207.2,59c0,0.5-0.4,0.8-0.8,0.8h-5.9c-0.5,0-0.8-0.4-0.8-0.8v-5.9c0-0.5,0.4-0.8,0.8-0.8h5.9
	c0.5,0,0.8,0.4,0.8,0.8V59z"/>
<line class="st0" x1="356.9" y1="392.7" x2="356.7" y2="395.3"/>
</svg>
