<?xml version="1.0" encoding="utf-8"?>
<!-- Generator: Adobe Illustrator 23.0.3, SVG Export Plug-In . SVG Version: 6.00 Build 0)  -->
<svg version="1.1" id="Слой_1" xmlns="http://www.w3.org/2000/svg" xmlns:xlink="http://www.w3.org/1999/xlink" x="0px" y="0px"
	 viewBox="0 0 500 600" style="enable-background:new 0 0 500 600;" xml:space="preserve">
<style type="text/css">
	.st0{fill:none;stroke:#4C86B9;stroke-width:2;stroke-miterlimit:10;}
	.st1{fill:none;stroke:#4C86B9;stroke-width:0.75;stroke-miterlimit:10;}
	.st2{fill:none;stroke:#4C86B9;stroke-miterlimit:10;}
	.st3{fill:none;stroke:#4C86B9;stroke-width:0.5;stroke-miterlimit:10;}
	.st4{fill:#4C86B9;}
</style>
<line class="st0" x1="55.7" y1="191.3" x2="55.7" y2="352.5"/>
<line class="st0" x1="71.3" y1="198.6" x2="71.3" y2="364.9"/>
<line class="st0" x1="55.7" y1="191.3" x2="449.6" y2="177.4"/>
<line class="st0" x1="71.3" y1="198.6" x2="476.4" y2="184"/>
<line class="st0" x1="476.4" y1="184" x2="476.4" y2="338.5"/>
<line class="st0" x1="71.3" y1="364.9" x2="476.4" y2="338.5"/>
<line class="st0" x1="55.7" y1="352.5" x2="71.3" y2="364.9"/>
<line class="st0" x1="55.7" y1="271.7" x2="71.3" y2="284.6"/>
<line class="st0" x1="55.7" y1="191.3" x2="71.3" y2="198.6"/>
<line class="st0" x1="449.6" y1="177.4" x2="476.4" y2="184"/>
<line class="st0" x1="266.5" y1="183.9" x2="268.1" y2="185.1"/>
<line class="st0" x1="255.6" y1="184.4" x2="256.9" y2="185.5"/>
<line class="st1" x1="268.1" y1="185.1" x2="256.9" y2="185.5"/>
<line class="st2" x1="259.2" y1="220.7" x2="217.9" y2="223"/>
<line class="st2" x1="262.5" y1="314.6" x2="257.7" y2="318.8"/>
<line class="st2" x1="268.4" y1="318.8" x2="263.4" y2="314.8"/>
<line class="st2" x1="267.3" y1="323.2" x2="268.4" y2="318.8"/>
<line class="st2" x1="257.7" y1="323.2" x2="257.7" y2="318.8"/>
<line class="st2" x1="267.3" y1="323.2" x2="262.5" y2="325.8"/>
<line class="st2" x1="257.7" y1="323.2" x2="262.5" y2="325.8"/>
<ellipse class="st1" cx="57.8" cy="263.8" rx="1" ry="3.7"/>
<ellipse class="st1" cx="65.1" cy="268.6" rx="1" ry="3.7"/>
<ellipse class="st1" cx="65.1" cy="290.3" rx="1" ry="3.7"/>
<ellipse class="st1" cx="57.8" cy="283.7" rx="1" ry="3.7"/>
<line class="st2" x1="257.6" y1="229.5" x2="216.4" y2="231.8"/>
<line class="st2" x1="250.6" y1="268.3" x2="209.4" y2="270.6"/>
<line class="st2" x1="249.1" y1="277.1" x2="207.8" y2="279.4"/>
<line class="st2" x1="241.7" y1="317.9" x2="200.5" y2="320.1"/>
<line class="st2" x1="239.7" y1="326.7" x2="198.2" y2="328.9"/>
<line class="st2" x1="207.4" y1="232.3" x2="200.4" y2="271.1"/>
<line class="st2" x1="257.4" y1="276.6" x2="250" y2="317.4"/>
<line class="st2" x1="216.4" y1="231.8" x2="209.4" y2="270.6"/>
<line class="st2" x1="249.1" y1="277.1" x2="241.7" y2="317.9"/>
<line class="st2" x1="257.6" y1="229.5" x2="262.4" y2="225"/>
<line class="st2" x1="216.4" y1="231.8" x2="212.7" y2="227.7"/>
<line class="st2" x1="200.4" y1="271.1" x2="207.8" y2="279.4"/>
<line class="st2" x1="209.4" y1="270.6" x2="198.9" y2="279.8"/>
<line class="st2" x1="259" y1="267.8" x2="249.1" y2="277.1"/>
<line class="st2" x1="250.6" y1="268.3" x2="257.4" y2="276.6"/>
<line class="st2" x1="198.9" y1="279.8" x2="191.5" y2="320.6"/>
<line class="st2" x1="265.9" y1="229.1" x2="259" y2="267.8"/>
<line class="st2" x1="207.8" y1="279.4" x2="200.5" y2="320.1"/>
<line class="st2" x1="257.6" y1="229.5" x2="250.6" y2="268.3"/>
<line class="st2" x1="241.7" y1="317.9" x2="245" y2="321.8"/>
<line class="st2" x1="200.5" y1="320.1" x2="195.2" y2="324.8"/>
<line class="st2" x1="259.2" y1="220.7" x2="265.9" y2="229.1"/>
<line class="st2" x1="191.5" y1="320.6" x2="198.2" y2="328.9"/>
<line class="st2" x1="250" y1="317.4" x2="239.5" y2="326.7"/>
<line class="st2" x1="217.9" y1="223" x2="207.4" y2="232.3"/>
<line class="st2" x1="169.4" y1="225.6" x2="128.2" y2="227.9"/>
<line class="st2" x1="167.9" y1="234.4" x2="126.6" y2="236.7"/>
<line class="st2" x1="160.9" y1="273.2" x2="119.7" y2="275.4"/>
<line class="st2" x1="159.3" y1="282" x2="118.1" y2="284.2"/>
<line class="st2" x1="152" y1="322.7" x2="110.8" y2="325"/>
<line class="st2" x1="150" y1="331.5" x2="108.5" y2="333.8"/>
<line class="st2" x1="117.7" y1="237.2" x2="110.7" y2="275.9"/>
<line class="st2" x1="167.7" y1="281.5" x2="160.3" y2="322.3"/>
<line class="st2" x1="126.6" y1="236.7" x2="119.7" y2="275.4"/>
<line class="st2" x1="159.3" y1="282" x2="152" y2="322.7"/>
<line class="st2" x1="167.9" y1="234.4" x2="172.7" y2="229.9"/>
<line class="st2" x1="126.6" y1="236.7" x2="122.9" y2="232.5"/>
<line class="st2" x1="110.7" y1="275.9" x2="118.1" y2="284.2"/>
<line class="st2" x1="119.7" y1="275.4" x2="109.1" y2="284.7"/>
<line class="st2" x1="169.2" y1="272.7" x2="159.3" y2="282"/>
<line class="st2" x1="160.9" y1="273.2" x2="167.7" y2="281.5"/>
<line class="st2" x1="109.1" y1="284.7" x2="101.7" y2="325.5"/>
<line class="st2" x1="176.2" y1="233.9" x2="169.2" y2="272.7"/>
<line class="st2" x1="118.1" y1="284.2" x2="110.8" y2="325"/>
<line class="st2" x1="167.9" y1="234.4" x2="160.9" y2="273.2"/>
<line class="st2" x1="152" y1="322.7" x2="155.2" y2="326.7"/>
<line class="st2" x1="110.8" y1="325" x2="105.5" y2="329.7"/>
<line class="st2" x1="169.4" y1="225.6" x2="176.2" y2="233.9"/>
<line class="st2" x1="101.7" y1="325.5" x2="108.5" y2="333.8"/>
<line class="st2" x1="160.3" y1="322.3" x2="149.8" y2="331.5"/>
<line class="st2" x1="128.2" y1="227.9" x2="117.7" y2="237.2"/>
<line class="st2" x1="362.4" y1="214.7" x2="321.1" y2="217"/>
<line class="st2" x1="360.8" y1="223.5" x2="319.6" y2="225.8"/>
<line class="st2" x1="353.9" y1="262.3" x2="312.6" y2="264.6"/>
<line class="st2" x1="352.3" y1="271.1" x2="311" y2="273.4"/>
<line class="st2" x1="345" y1="311.9" x2="303.7" y2="314.1"/>
<line class="st2" x1="342.9" y1="320.7" x2="301.4" y2="322.9"/>
<line class="st2" x1="310.6" y1="226.3" x2="303.6" y2="265.1"/>
<line class="st2" x1="360.6" y1="270.6" x2="353.2" y2="311.4"/>
<line class="st2" x1="319.6" y1="225.8" x2="312.6" y2="264.6"/>
<line class="st2" x1="352.3" y1="271.1" x2="345" y2="311.9"/>
<line class="st2" x1="360.8" y1="223.5" x2="365.7" y2="219"/>
<line class="st2" x1="319.6" y1="225.8" x2="315.9" y2="221.7"/>
<line class="st2" x1="303.6" y1="265.1" x2="311" y2="273.4"/>
<line class="st2" x1="312.6" y1="264.6" x2="302.1" y2="273.9"/>
<line class="st2" x1="362.2" y1="261.8" x2="352.3" y2="271.1"/>
<line class="st2" x1="353.9" y1="262.3" x2="360.6" y2="270.6"/>
<line class="st2" x1="302.1" y1="273.9" x2="294.7" y2="314.6"/>
<line class="st2" x1="369.1" y1="223.1" x2="362.2" y2="261.8"/>
<line class="st2" x1="311" y1="273.4" x2="303.7" y2="314.1"/>
<line class="st2" x1="360.8" y1="223.5" x2="353.9" y2="262.3"/>
<line class="st2" x1="345" y1="311.9" x2="348.2" y2="315.8"/>
<line class="st2" x1="303.7" y1="314.1" x2="298.4" y2="318.8"/>
<line class="st2" x1="362.4" y1="214.7" x2="369.1" y2="223.1"/>
<line class="st2" x1="294.7" y1="314.6" x2="301.4" y2="322.9"/>
<line class="st2" x1="353.2" y1="311.4" x2="342.7" y2="320.7"/>
<line class="st2" x1="321.1" y1="217" x2="310.6" y2="226.3"/>
<line class="st2" x1="448.2" y1="210.1" x2="406.9" y2="212.4"/>
<line class="st2" x1="446.6" y1="218.9" x2="405.4" y2="221.2"/>
<line class="st2" x1="439.6" y1="257.7" x2="398.4" y2="260"/>
<line class="st2" x1="438.1" y1="266.5" x2="396.8" y2="268.7"/>
<line class="st2" x1="430.7" y1="307.3" x2="389.5" y2="309.5"/>
<line class="st2" x1="428.7" y1="316.1" x2="387.2" y2="318.3"/>
<line class="st2" x1="396.4" y1="221.7" x2="389.4" y2="260.5"/>
<line class="st2" x1="446.4" y1="266" x2="439" y2="306.8"/>
<line class="st2" x1="405.4" y1="221.2" x2="398.4" y2="260"/>
<line class="st2" x1="438.1" y1="266.5" x2="430.7" y2="307.3"/>
<line class="st2" x1="446.6" y1="218.9" x2="451.4" y2="214.4"/>
<line class="st2" x1="405.4" y1="221.2" x2="401.7" y2="217"/>
<line class="st2" x1="389.4" y1="260.5" x2="396.8" y2="268.7"/>
<line class="st2" x1="398.4" y1="260" x2="387.9" y2="269.2"/>
<line class="st2" x1="448" y1="257.2" x2="438.1" y2="266.5"/>
<line class="st2" x1="439.6" y1="257.7" x2="446.4" y2="266"/>
<line class="st2" x1="387.9" y1="269.2" x2="380.5" y2="310"/>
<line class="st2" x1="454.9" y1="218.5" x2="448" y2="257.2"/>
<line class="st2" x1="396.8" y1="268.7" x2="389.5" y2="309.5"/>
<line class="st2" x1="446.6" y1="218.9" x2="439.6" y2="257.7"/>
<line class="st2" x1="430.7" y1="307.3" x2="434" y2="311.2"/>
<line class="st2" x1="389.5" y1="309.5" x2="384.2" y2="314.2"/>
<line class="st2" x1="448.2" y1="210.1" x2="454.9" y2="218.5"/>
<line class="st2" x1="380.5" y1="310" x2="387.2" y2="318.3"/>
<line class="st2" x1="439" y1="306.8" x2="428.5" y2="316.1"/>
<line class="st2" x1="406.9" y1="212.4" x2="396.4" y2="221.7"/>
<line class="st3" x1="29.3" y1="192.3" x2="56.6" y2="191.3"/>
<line class="st3" x1="31.5" y1="353" x2="55.2" y2="352.2"/>
<line class="st3" x1="71.3" y1="364.9" x2="71.3" y2="404.1"/>
<line class="st3" x1="55.7" y1="352.5" x2="55.7" y2="391.6"/>
<line class="st3" x1="39.1" y1="372" x2="87.1" y2="410.3"/>
<line class="st3" x1="36.8" y1="192" x2="36.8" y2="352.5"/>
<line class="st3" x1="476.4" y1="338.5" x2="476.4" y2="381.5"/>
<line class="st3" x1="71.3" y1="397.8" x2="476.4" y2="371.4"/>
<g id="XMLID_1_">
	<g>
		<path class="st4" d="M36.8,192l1.7,13.6c-1.7-3.1-3.4,0-3.4,0L36.8,192z"/>
	</g>
	<g>
		<line class="st2" x1="36.8" y1="192" x2="35.1" y2="205.6"/>
		<line class="st2" x1="36.8" y1="192" x2="38.5" y2="205.6"/>
		<path class="st2" d="M35.1,205.6c0,0,1.7-3.1,3.4,0"/>
	</g>
</g>
<g id="XMLID_2_">
	<g>
		<path class="st4" d="M36.8,353.4l-1.7-13.6c1.7,3.1,3.4,0,3.4,0L36.8,353.4z"/>
	</g>
	<g>
		<line class="st2" x1="36.8" y1="353.4" x2="38.5" y2="339.7"/>
		<line class="st2" x1="36.8" y1="353.4" x2="35.1" y2="339.7"/>
		<path class="st2" d="M38.5,339.7c0,0-1.7,3.1-3.4,0"/>
	</g>
</g>
<g id="XMLID_3_">
	<g>
		<path class="st4" d="M71.3,397.8l13.5-2.7c-3,1.9,0.2,3.5,0.2,3.5L71.3,397.8z"/>
	</g>
	<g>
		<line class="st2" x1="71.3" y1="397.8" x2="85" y2="398.6"/>
		<line class="st2" x1="71.3" y1="397.8" x2="84.8" y2="395.1"/>
		<path class="st2" d="M85,398.6c0,0-3.2-1.5-0.2-3.5"/>
	</g>
</g>
<g id="XMLID_4_">
	<g>
		<path class="st4" d="M476.4,371.4l-13.5,2.7c3-1.9-0.2-3.5-0.2-3.5L476.4,371.4z"/>
	</g>
	<g>
		<line class="st2" x1="476.4" y1="371.4" x2="462.7" y2="370.6"/>
		<line class="st2" x1="476.4" y1="371.4" x2="462.9" y2="374.1"/>
		<path class="st2" d="M462.7,370.6c0,0,3.2,1.5,0.2,3.5"/>
	</g>
</g>
<g id="XMLID_5_">
	<g>
		<path class="st4" d="M71.7,398.2l11.8,7c-3.5-0.6-2.1,2.7-2.1,2.7L71.7,398.2z"/>
	</g>
	<g>
		<line class="st2" x1="71.7" y1="398.2" x2="81.4" y2="407.9"/>
		<line class="st2" x1="71.7" y1="398.2" x2="83.5" y2="405.2"/>
		<path class="st2" d="M81.4,407.9c0,0-1.4-3.3,2.1-2.7"/>
	</g>
</g>
<g id="XMLID_6_">
	<g>
		<path class="st4" d="M55.1,385l-11.8-7c3.5,0.6,2.1-2.7,2.1-2.7L55.1,385z"/>
	</g>
	<g>
		<line class="st2" x1="55.1" y1="385" x2="45.4" y2="375.2"/>
		<line class="st2" x1="55.1" y1="385" x2="43.3" y2="378"/>
		<path class="st2" d="M45.4,375.2c0,0,1.4,3.3-2.1,2.7"/>
	</g>
</g>
<g>
	<path class="st4" d="M29,398.5l-2.8,3.7l0,0c0.3-0.1,0.7-0.2,1.1-0.2c2.2,0,3.9,1.8,3.9,4c0,2.3-1.9,4.1-4.2,4.1
		c-2.3,0-4.2-1.9-4.2-4.1c0-1.1,0.5-2,1.1-2.9l4-5.5L29,398.5z M29.9,406.2c0-1.6-1.3-2.8-2.8-2.8c-1.6,0-2.8,1.2-2.8,2.8
		s1.2,2.8,2.8,2.8C28.6,409,29.9,407.7,29.9,406.2z"/>
	<path class="st4" d="M36.5,399.2l-0.8,2.6l0.7-0.1c2.4,0,4,1.9,4,4.2c0,2.5-2,4.3-4.4,4.3c-1.6,0-2.9-0.8-3.7-2.2l1.1-0.8
		c0.5,1,1.5,1.7,2.7,1.7c1.8,0,3-1.3,3-3.1c0-1.7-1.3-2.9-3-2.9c-0.8,0-1.6,0.3-2.3,0.8l1.7-5.8h4.8v1.2H36.5z"/>
	<path class="st4" d="M45.5,408.7l-1.8,4.1l-0.9-0.4l1.5-4.2L45.5,408.7z"/>
	<path class="st4" d="M51.3,399.2l-0.8,2.6l0.7-0.1c2.4,0,4,1.9,4,4.2c0,2.5-2,4.3-4.4,4.3c-1.6,0-2.9-0.8-3.7-2.2l1.1-0.8
		c0.5,1,1.5,1.7,2.7,1.7c1.8,0,3-1.3,3-3.1c0-1.7-1.3-2.9-3-2.9c-0.8,0-1.6,0.3-2.3,0.8l1.7-5.8h4.8v1.2H51.3z"/>
</g>
<g>
	<path class="st4" d="M244.6,377.3l0.1,1.2l-1.5,0.1l0.1,1.9l-1.3,0.1l-0.1-1.9l-6.2,0.4l6.7-11.3l0,0l0.7,9.5L244.6,377.3z
		 M241.4,372L241.4,372l-3.4,5.7l3.8-0.3L241.4,372z"/>
	<path class="st4" d="M254.3,373.8c0.2,3-1.1,6.3-3.9,6.5c-2.7,0.2-4.5-2.9-4.7-5.9c-0.2-2.5,0.8-6.3,3.9-6.5
		C252.7,367.6,254.2,371.3,254.3,373.8z M247.1,374.4c0.2,1.7,1.1,4.8,3.3,4.7c2.2-0.2,2.7-3.4,2.6-5.1c-0.1-1.7-1.1-5-3.3-4.9
		C247.4,369.2,246.9,372.6,247.1,374.4z"/>
	<path class="st4" d="M258.2,379.1l2.5-4l0,0c-0.3,0.1-0.7,0.2-1,0.2c-2.2,0.2-4-1.5-4.2-3.7c-0.2-2.3,1.6-4.2,3.9-4.4
		c2.3-0.2,4.3,1.5,4.4,3.8c0.1,1.1-0.4,2.1-0.9,3l-3.6,5.7L258.2,379.1z M256.9,371.4c0.1,1.6,1.4,2.7,3,2.6c1.5-0.1,2.7-1.4,2.6-3
		c-0.1-1.5-1.5-2.7-3-2.6C257.9,368.5,256.8,369.9,256.9,371.4z"/>
</g>
<g>
	<path class="st4" d="M21.6,293.9l-1.2-0.7v-2.6h12.1v1.3H21.6V293.9z"/>
	<path class="st4" d="M21.6,282.1l2.6,0.8l-0.1-0.7c0-2.4,1.9-4,4.2-4c2.5,0,4.3,2,4.3,4.4c0,1.6-0.8,2.9-2.2,3.7l-0.8-1.1
		c1-0.5,1.7-1.5,1.7-2.7c0-1.8-1.3-3-3.1-3c-1.7,0-2.9,1.3-2.9,3c0,0.8,0.3,1.6,0.8,2.3l-5.8-1.7v-4.8h1.2V282.1z"/>
	<path class="st4" d="M20.9,269.9l3.7,2.8l0,0c-0.1-0.3-0.2-0.7-0.2-1.1c0-2.2,1.8-3.9,4-3.9c2.3,0,4.1,1.9,4.1,4.2
		c0,2.3-1.9,4.2-4.1,4.2c-1.1,0-2-0.5-2.9-1.1l-5.5-4L20.9,269.9z M28.6,269c-1.6,0-2.8,1.3-2.8,2.8c0,1.6,1.2,2.8,2.8,2.8
		c1.6,0,2.8-1.2,2.8-2.8C31.4,270.3,30.1,269,28.6,269z"/>
</g>
</svg>
