<?xml version="1.0" encoding="utf-8"?>
<!-- Generator: Adobe Illustrator 23.0.3, SVG Export Plug-In . SVG Version: 6.00 Build 0)  -->
<svg version="1.1" xmlns="http://www.w3.org/2000/svg" xmlns:xlink="http://www.w3.org/1999/xlink" x="0px" y="0px"
	 viewBox="0 0 500 550" style="enable-background:new 0 0 500 550;" xml:space="preserve">
<style type="text/css">
	.st0{fill:#4F89B9;}
	.st1{fill:none;stroke:#4F89B9;stroke-width:0.6593;stroke-linecap:round;stroke-linejoin:round;stroke-miterlimit:10;}
</style>
<g id="Слой_1">
	<polygon class="st0" points="369.8,111.6 371.3,120.5 369.8,118.5 368.3,120.5 	"/>
	<polygon class="st0" points="369.8,457.3 368.3,448.3 369.8,450.3 371.3,448.3 	"/>
	<line class="st1" x1="342.1" y1="440.4" x2="342.1" y2="488.2"/>
	<line class="st1" x1="248" y1="503" x2="248" y2="547.7"/>
	<line class="st1" x1="250" y1="540.7" x2="337.4" y2="484.6"/>
	<polygon class="st0" points="341.9,481.5 335.4,487.8 336.2,485.4 333.7,485.3 	"/>
	<polygon class="st0" points="248.1,542 254.7,535.8 253.9,538.1 256.4,538.3 	"/>
</g>
<g id="Слой_2">
	<line class="st1" x1="270.7" y1="55.5" x2="393.9" y2="124.7"/>
	<line class="st1" x1="341.1" y1="440.4" x2="393.8" y2="470.9"/>
	<line class="st1" x1="369.9" y1="115.5" x2="369.9" y2="450.4"/>
	<line class="st1" x1="264.3" y1="488.5" x2="265.1" y2="486.2"/>
	<line class="st1" x1="265.1" y1="486.2" x2="265.7" y2="483.8"/>
	<line class="st1" x1="265.7" y1="483.8" x2="266.2" y2="480"/>
	<line class="st1" x1="266.2" y1="480" x2="266.9" y2="476"/>
	<line class="st1" x1="266.9" y1="476" x2="268.2" y2="468.4"/>
	<line class="st1" x1="268.2" y1="468.4" x2="269.4" y2="460.6"/>
	<line class="st1" x1="269.4" y1="460.6" x2="279.7" y2="398.1"/>
	<line class="st1" x1="279.7" y1="398.1" x2="290.6" y2="334"/>
	<line class="st1" x1="290.6" y1="334" x2="302.2" y2="268.6"/>
	<line class="st1" x1="302.2" y1="268.6" x2="314.4" y2="202"/>
	<line class="st1" x1="314.4" y1="202" x2="320.7" y2="168.4"/>
	<line class="st1" x1="320.7" y1="168.4" x2="327.2" y2="134.5"/>
	<line class="st1" x1="327.2" y1="134.5" x2="328.8" y2="126.1"/>
	<line class="st1" x1="328.8" y1="126.1" x2="330.4" y2="117.5"/>
	<line class="st1" x1="330.4" y1="117.5" x2="330.8" y2="115.4"/>
	<line class="st1" x1="330.8" y1="115.4" x2="331" y2="113.1"/>
	<line class="st1" x1="331" y1="113.1" x2="331" y2="110.9"/>
	<line class="st1" x1="331" y1="110.9" x2="330.8" y2="108.5"/>
	<line class="st1" x1="330.8" y1="108.5" x2="330.4" y2="106.2"/>
	<line class="st1" x1="330.4" y1="106.2" x2="329.9" y2="103.8"/>
	<line class="st1" x1="329.9" y1="103.8" x2="329.2" y2="101.7"/>
	<line class="st1" x1="329.2" y1="101.7" x2="328.3" y2="99.5"/>
	<line class="st1" x1="328.3" y1="99.5" x2="327.2" y2="97.5"/>
	<line class="st1" x1="327.2" y1="97.5" x2="325.9" y2="95.7"/>
	<line class="st1" x1="325.9" y1="95.7" x2="324.6" y2="94.1"/>
	<line class="st1" x1="324.6" y1="94.1" x2="323" y2="92.8"/>
	<line class="st1" x1="323" y1="92.8" x2="321.4" y2="91.5"/>
	<line class="st1" x1="321.4" y1="91.5" x2="319.9" y2="90.3"/>
	<line class="st1" x1="319.9" y1="90.3" x2="318.2" y2="89.2"/>
	<line class="st1" x1="318.2" y1="89.2" x2="316.6" y2="87.9"/>
	<line class="st1" x1="316.6" y1="87.9" x2="310.1" y2="83.4"/>
	<line class="st1" x1="310.1" y1="83.4" x2="303.6" y2="78.9"/>
	<line class="st1" x1="303.6" y1="78.9" x2="296.9" y2="74.7"/>
	<line class="st1" x1="296.9" y1="74.7" x2="290.3" y2="70.5"/>
	<line class="st1" x1="290.3" y1="70.5" x2="283.6" y2="66.5"/>
	<line class="st1" x1="283.6" y1="66.5" x2="276.8" y2="62.6"/>
	<line class="st1" x1="276.8" y1="62.6" x2="270.1" y2="58.9"/>
	<line class="st1" x1="270.1" y1="58.9" x2="263.2" y2="55.3"/>
	<line class="st1" x1="263.2" y1="55.3" x2="256.4" y2="52"/>
	<line class="st1" x1="256.4" y1="52" x2="249.4" y2="48.7"/>
	<line class="st1" x1="249.4" y1="48.7" x2="246" y2="47.1"/>
	<line class="st1" x1="246" y1="47.1" x2="242.5" y2="45.7"/>
	<line class="st1" x1="242.5" y1="45.7" x2="239" y2="44.2"/>
	<line class="st1" x1="239" y1="44.2" x2="237.2" y2="43.5"/>
	<line class="st1" x1="237.2" y1="43.5" x2="235.4" y2="43.3"/>
	<line class="st1" x1="235.4" y1="43.3" x2="233.5" y2="43.3"/>
	<line class="st1" x1="233.5" y1="43.3" x2="231.6" y2="43.6"/>
	<line class="st1" x1="341.1" y1="440.4" x2="341.7" y2="438.9"/>
	<line class="st1" x1="341.7" y1="438.9" x2="342" y2="437.5"/>
	<line class="st1" x1="342" y1="437.5" x2="342.2" y2="435.8"/>
	<line class="st1" x1="342.2" y1="435.8" x2="342.4" y2="434.1"/>
	<line class="st1" x1="342.4" y1="434.1" x2="342.4" y2="432.4"/>
	<line class="st1" x1="342.4" y1="432.4" x2="342.5" y2="430.7"/>
	<line class="st1" x1="342.5" y1="430.7" x2="342.8" y2="423.9"/>
	<line class="st1" x1="342.8" y1="423.9" x2="343.1" y2="416.9"/>
	<line class="st1" x1="343.1" y1="416.9" x2="343.7" y2="403.1"/>
	<line class="st1" x1="343.7" y1="403.1" x2="344.2" y2="389.2"/>
	<line class="st1" x1="344.2" y1="389.2" x2="344.8" y2="361.3"/>
	<line class="st1" x1="344.8" y1="361.3" x2="345.3" y2="333.4"/>
	<line class="st1" x1="345.3" y1="333.4" x2="345.4" y2="305.1"/>
	<line class="st1" x1="345.4" y1="305.1" x2="345.2" y2="276.8"/>
	<line class="st1" x1="345.2" y1="276.8" x2="344.7" y2="248.3"/>
	<line class="st1" x1="344.7" y1="248.3" x2="343.9" y2="219.5"/>
	<line class="st1" x1="343.9" y1="219.5" x2="342.9" y2="190.6"/>
	<line class="st1" x1="342.9" y1="190.6" x2="341.5" y2="161.6"/>
	<line class="st1" x1="341.5" y1="161.6" x2="340.7" y2="147.1"/>
	<line class="st1" x1="340.7" y1="147.1" x2="339.9" y2="132.5"/>
	<line class="st1" x1="339.9" y1="132.5" x2="339.3" y2="125"/>
	<line class="st1" x1="339.3" y1="125" x2="338.9" y2="117.7"/>
	<line class="st1" x1="338.9" y1="117.7" x2="338.8" y2="115.9"/>
	<line class="st1" x1="338.8" y1="115.9" x2="338.6" y2="114.1"/>
	<line class="st1" x1="338.6" y1="114.1" x2="338.5" y2="112.2"/>
	<line class="st1" x1="338.5" y1="112.2" x2="338.3" y2="110.4"/>
	<line class="st1" x1="338.3" y1="110.4" x2="338" y2="108.4"/>
	<line class="st1" x1="338" y1="108.4" x2="337.4" y2="106.5"/>
	<line class="st1" x1="337.4" y1="106.5" x2="336.6" y2="104.5"/>
	<line class="st1" x1="336.6" y1="104.5" x2="335.8" y2="102.4"/>
	<line class="st1" x1="335.8" y1="102.4" x2="334.8" y2="100.5"/>
	<line class="st1" x1="334.8" y1="100.5" x2="333.7" y2="98.6"/>
	<line class="st1" x1="333.7" y1="98.6" x2="332.5" y2="96.8"/>
	<line class="st1" x1="332.5" y1="96.8" x2="331.1" y2="95.1"/>
	<line class="st1" x1="331.1" y1="95.1" x2="329.7" y2="93.6"/>
	<line class="st1" x1="329.7" y1="93.6" x2="328.2" y2="92.2"/>
	<line class="st1" x1="328.2" y1="92.2" x2="326.7" y2="91"/>
	<line class="st1" x1="326.7" y1="91" x2="325.2" y2="89.9"/>
	<line class="st1" x1="325.2" y1="89.9" x2="319" y2="85.6"/>
	<line class="st1" x1="319" y1="85.6" x2="312.8" y2="81.5"/>
	<line class="st1" x1="312.8" y1="81.5" x2="300.3" y2="73.6"/>
	<line class="st1" x1="300.3" y1="73.6" x2="287.9" y2="66"/>
	<line class="st1" x1="287.9" y1="66" x2="275.5" y2="58.9"/>
	<line class="st1" x1="275.5" y1="58.9" x2="263.1" y2="52.3"/>
	<line class="st1" x1="263.1" y1="52.3" x2="256.8" y2="49.2"/>
	<line class="st1" x1="256.8" y1="49.2" x2="250.6" y2="46.1"/>
	<line class="st1" x1="250.6" y1="46.1" x2="247.6" y2="44.7"/>
	<line class="st1" x1="247.6" y1="44.7" x2="244.4" y2="43.2"/>
	<line class="st1" x1="244.4" y1="43.2" x2="242.9" y2="42.4"/>
	<line class="st1" x1="242.9" y1="42.4" x2="241.4" y2="41.8"/>
	<line class="st1" x1="241.4" y1="41.8" x2="239.8" y2="41.4"/>
	<line class="st1" x1="239.8" y1="41.4" x2="238.6" y2="41.2"/>
	<polyline class="st1" points="263.8,492.2 337.5,444.3 340.2,441.8 	"/>
	<line class="st1" x1="234.4" y1="41.8" x2="231.3" y2="43.5"/>
	<line class="st1" x1="340.2" y1="441.7" x2="340.7" y2="441.3"/>
	<line class="st1" x1="340.7" y1="441.3" x2="341" y2="440.6"/>
	<line class="st1" x1="341" y1="440.6" x2="341.5" y2="439.8"/>
	<line class="st1" x1="341.5" y1="439.8" x2="341.9" y2="439"/>
	<line class="st1" x1="341.9" y1="439" x2="342.2" y2="438.1"/>
	<line class="st1" x1="342.2" y1="438.1" x2="342.5" y2="437.1"/>
	<line class="st1" x1="342.5" y1="437.1" x2="342.7" y2="436.1"/>
	<line class="st1" x1="342.7" y1="436.1" x2="342.9" y2="435.1"/>
	<line class="st1" x1="342.9" y1="435.1" x2="342.9" y2="434.1"/>
	<line class="st1" x1="342.9" y1="434.1" x2="343" y2="433"/>
	<line class="st1" x1="343" y1="433" x2="343.1" y2="431.8"/>
	<line class="st1" x1="343.1" y1="431.8" x2="343.1" y2="430.6"/>
	<line class="st1" x1="343.1" y1="430.6" x2="343.7" y2="418.7"/>
	<line class="st1" x1="343.7" y1="418.7" x2="344.2" y2="406.7"/>
	<line class="st1" x1="344.2" y1="406.7" x2="344.6" y2="394.6"/>
	<line class="st1" x1="344.6" y1="394.6" x2="345.1" y2="382.6"/>
	<line class="st1" x1="345.1" y1="382.6" x2="345.3" y2="370.5"/>
	<line class="st1" x1="345.3" y1="370.5" x2="345.6" y2="358.3"/>
	<line class="st1" x1="345.6" y1="358.3" x2="345.8" y2="346.2"/>
	<line class="st1" x1="345.8" y1="346.2" x2="346" y2="333.9"/>
	<line class="st1" x1="346" y1="333.9" x2="346.1" y2="321.7"/>
	<line class="st1" x1="346.1" y1="321.7" x2="346.1" y2="309.4"/>
	<line class="st1" x1="346.1" y1="309.4" x2="346.1" y2="297"/>
	<line class="st1" x1="346.1" y1="297" x2="346" y2="284.7"/>
	<line class="st1" x1="346" y1="284.7" x2="345.8" y2="272.3"/>
	<line class="st1" x1="345.8" y1="272.3" x2="345.7" y2="259.9"/>
	<line class="st1" x1="345.7" y1="259.9" x2="345.4" y2="247.5"/>
	<line class="st1" x1="345.4" y1="247.5" x2="345.2" y2="235"/>
	<line class="st1" x1="345.2" y1="235" x2="344.8" y2="222.5"/>
	<line class="st1" x1="344.8" y1="222.5" x2="344.4" y2="209.9"/>
	<line class="st1" x1="344.4" y1="209.9" x2="343.9" y2="197.4"/>
	<line class="st1" x1="343.9" y1="197.4" x2="343.4" y2="184.7"/>
	<line class="st1" x1="343.4" y1="184.7" x2="342.8" y2="172.1"/>
	<line class="st1" x1="342.8" y1="172.1" x2="342.1" y2="159.6"/>
	<line class="st1" x1="342.1" y1="159.6" x2="341.5" y2="146.8"/>
	<line class="st1" x1="341.5" y1="146.8" x2="340.7" y2="134.1"/>
	<line class="st1" x1="340.7" y1="134.1" x2="340.3" y2="127.7"/>
	<line class="st1" x1="340.3" y1="127.7" x2="339.9" y2="121.4"/>
	<line class="st1" x1="339.9" y1="121.4" x2="339.8" y2="118.3"/>
	<line class="st1" x1="339.8" y1="118.3" x2="339.5" y2="115"/>
	<line class="st1" x1="339.5" y1="115" x2="339.4" y2="113.6"/>
	<line class="st1" x1="339.4" y1="113.6" x2="339.3" y2="112.1"/>
	<line class="st1" x1="339.3" y1="112.1" x2="339.2" y2="110.9"/>
	<line class="st1" x1="339.2" y1="110.9" x2="339.1" y2="109.6"/>
	<line class="st1" x1="339.1" y1="109.6" x2="338.9" y2="108.5"/>
	<line class="st1" x1="338.9" y1="108.5" x2="338.6" y2="107.4"/>
	<line class="st1" x1="338.6" y1="107.4" x2="338.3" y2="106.4"/>
	<line class="st1" x1="338.3" y1="106.4" x2="338" y2="105.3"/>
	<line class="st1" x1="338" y1="105.3" x2="337.6" y2="104.1"/>
	<line class="st1" x1="337.6" y1="104.1" x2="337.2" y2="103"/>
	<line class="st1" x1="337.2" y1="103" x2="336.6" y2="101.9"/>
	<line class="st1" x1="336.6" y1="101.9" x2="336.2" y2="100.8"/>
	<line class="st1" x1="336.2" y1="100.8" x2="335.5" y2="99.6"/>
	<line class="st1" x1="335.5" y1="99.6" x2="334.9" y2="98.6"/>
	<line class="st1" x1="334.9" y1="98.6" x2="334.3" y2="97.6"/>
	<line class="st1" x1="334.3" y1="97.6" x2="333.5" y2="96.5"/>
	<line class="st1" x1="333.5" y1="96.5" x2="332.8" y2="95.7"/>
	<line class="st1" x1="332.8" y1="95.7" x2="332.1" y2="94.8"/>
	<line class="st1" x1="332.1" y1="94.8" x2="331.3" y2="94"/>
	<line class="st1" x1="331.3" y1="94" x2="330.5" y2="93.1"/>
	<line class="st1" x1="330.5" y1="93.1" x2="329.8" y2="92.4"/>
	<line class="st1" x1="329.8" y1="92.4" x2="329" y2="91.8"/>
	<line class="st1" x1="329" y1="91.8" x2="328.1" y2="91"/>
	<line class="st1" x1="328.1" y1="91" x2="327.2" y2="90.3"/>
	<line class="st1" x1="327.2" y1="90.3" x2="326.2" y2="89.6"/>
	<line class="st1" x1="326.2" y1="89.6" x2="325.2" y2="89"/>
	<line class="st1" x1="325.2" y1="89" x2="323.9" y2="88.1"/>
	<line class="st1" x1="323.9" y1="88.1" x2="322.7" y2="87.3"/>
	<line class="st1" x1="322.7" y1="87.3" x2="318" y2="84"/>
	<line class="st1" x1="318" y1="84" x2="313.1" y2="80.9"/>
	<line class="st1" x1="313.1" y1="80.9" x2="308.4" y2="77.7"/>
	<line class="st1" x1="308.4" y1="77.7" x2="303.6" y2="74.7"/>
	<line class="st1" x1="303.6" y1="74.7" x2="298.8" y2="71.8"/>
	<line class="st1" x1="298.8" y1="71.8" x2="294" y2="68.8"/>
	<line class="st1" x1="294" y1="68.8" x2="289.3" y2="66"/>
	<line class="st1" x1="289.3" y1="66" x2="284.5" y2="63.2"/>
	<line class="st1" x1="284.5" y1="63.2" x2="279.7" y2="60.5"/>
	<line class="st1" x1="279.7" y1="60.5" x2="274.9" y2="57.8"/>
	<line class="st1" x1="274.9" y1="57.8" x2="270.2" y2="55.2"/>
	<line class="st1" x1="270.2" y1="55.2" x2="265.3" y2="52.8"/>
	<line class="st1" x1="265.3" y1="52.8" x2="260.5" y2="50.3"/>
	<line class="st1" x1="260.5" y1="50.3" x2="255.8" y2="47.9"/>
	<line class="st1" x1="255.8" y1="47.9" x2="252.4" y2="46.2"/>
	<line class="st1" x1="252.4" y1="46.2" x2="249" y2="44.7"/>
	<line class="st1" x1="249" y1="44.7" x2="247.1" y2="43.6"/>
	<line class="st1" x1="247.1" y1="43.6" x2="245.1" y2="42.7"/>
	<line class="st1" x1="245.1" y1="42.7" x2="244" y2="42.3"/>
	<line class="st1" x1="244" y1="42.3" x2="243" y2="41.8"/>
	<line class="st1" x1="243" y1="41.8" x2="242" y2="41.5"/>
	<line class="st1" x1="242" y1="41.5" x2="241" y2="41.3"/>
	<line class="st1" x1="241" y1="41.3" x2="240.2" y2="41.1"/>
	<line class="st1" x1="240.2" y1="41.1" x2="239.3" y2="40.9"/>
	<line class="st1" x1="239.3" y1="40.9" x2="238.5" y2="40.9"/>
	<line class="st1" x1="238.5" y1="40.9" x2="237.7" y2="40.9"/>
	<line class="st1" x1="237.7" y1="40.9" x2="236.8" y2="41.1"/>
	<line class="st1" x1="236.8" y1="41.1" x2="235.9" y2="41.3"/>
	<line class="st1" x1="235.9" y1="41.3" x2="235.6" y2="41.4"/>
	<line class="st1" x1="235.6" y1="41.4" x2="235.1" y2="41.6"/>
	<line class="st1" x1="234.7" y1="41.7" x2="234.7" y2="41.7"/>
	<line class="st1" x1="234.7" y1="41.8" x2="234.7" y2="41.8"/>
	<line class="st1" x1="264.4" y1="488.4" x2="264.6" y2="487.9"/>
	<line class="st1" x1="264.6" y1="487.9" x2="264.8" y2="487.5"/>
	<line class="st1" x1="264.8" y1="487.5" x2="265.2" y2="485.7"/>
	<line class="st1" x1="265.2" y1="485.7" x2="265.7" y2="483.8"/>
	<line class="st1" x1="265.7" y1="483.8" x2="266" y2="481.9"/>
	<line class="st1" x1="266" y1="481.9" x2="266.2" y2="479.8"/>
	<line class="st1" x1="266.2" y1="479.8" x2="267.6" y2="472.1"/>
	<line class="st1" x1="267.6" y1="472.1" x2="268.8" y2="464.2"/>
	<line class="st1" x1="268.8" y1="464.2" x2="274" y2="432.5"/>
	<line class="st1" x1="274" y1="432.5" x2="279.3" y2="400.5"/>
	<line class="st1" x1="279.3" y1="400.5" x2="290.4" y2="335.2"/>
	<line class="st1" x1="290.4" y1="335.2" x2="302.2" y2="268.5"/>
	<line class="st1" x1="302.2" y1="268.5" x2="314.6" y2="200.7"/>
	<line class="st1" x1="314.6" y1="200.7" x2="321.1" y2="166.4"/>
	<line class="st1" x1="321.1" y1="166.4" x2="327.6" y2="131.8"/>
	<line class="st1" x1="327.6" y1="131.8" x2="328.5" y2="127.5"/>
	<line class="st1" x1="328.5" y1="127.5" x2="329.3" y2="123.1"/>
	<line class="st1" x1="329.3" y1="123.1" x2="329.8" y2="121"/>
	<line class="st1" x1="329.8" y1="121" x2="330.2" y2="118.7"/>
	<line class="st1" x1="330.2" y1="118.7" x2="330.5" y2="116.6"/>
	<line class="st1" x1="330.5" y1="116.6" x2="330.9" y2="114.4"/>
	<line class="st1" x1="330.9" y1="114.4" x2="331" y2="112.1"/>
	<line class="st1" x1="331" y1="112.1" x2="330.9" y2="109.9"/>
	<line class="st1" x1="330.9" y1="109.9" x2="330.7" y2="107.5"/>
	<line class="st1" x1="330.7" y1="107.5" x2="330.3" y2="105.3"/>
	<line class="st1" x1="330.3" y1="105.3" x2="329.7" y2="103"/>
	<line class="st1" x1="329.7" y1="103" x2="328.9" y2="100.9"/>
	<line class="st1" x1="328.9" y1="100.9" x2="328" y2="98.8"/>
	<line class="st1" x1="328" y1="98.8" x2="326.8" y2="96.9"/>
	<line class="st1" x1="326.8" y1="96.9" x2="325.6" y2="95.2"/>
	<line class="st1" x1="325.6" y1="95.2" x2="324.3" y2="93.8"/>
	<line class="st1" x1="324.3" y1="93.8" x2="322.7" y2="92.4"/>
	<line class="st1" x1="322.7" y1="92.4" x2="321.1" y2="91.3"/>
	<line class="st1" x1="321.1" y1="91.3" x2="318" y2="89"/>
	<line class="st1" x1="318" y1="89" x2="314.8" y2="86.7"/>
	<line class="st1" x1="314.8" y1="86.7" x2="308.4" y2="82.2"/>
	<line class="st1" x1="308.4" y1="82.2" x2="302" y2="77.9"/>
	<line class="st1" x1="302" y1="77.9" x2="295.5" y2="73.7"/>
	<line class="st1" x1="295.5" y1="73.7" x2="289" y2="69.6"/>
	<line class="st1" x1="289" y1="69.6" x2="282.4" y2="65.8"/>
	<line class="st1" x1="282.4" y1="65.8" x2="275.8" y2="62.1"/>
	<line class="st1" x1="275.8" y1="62.1" x2="269.2" y2="58.4"/>
	<line class="st1" x1="269.2" y1="58.4" x2="262.4" y2="55"/>
	<line class="st1" x1="262.4" y1="55" x2="255.8" y2="51.6"/>
	<line class="st1" x1="255.8" y1="51.6" x2="249" y2="48.5"/>
	<line class="st1" x1="249" y1="48.5" x2="245.6" y2="47"/>
	<line class="st1" x1="245.6" y1="47" x2="242.2" y2="45.6"/>
	<line class="st1" x1="242.2" y1="45.6" x2="238.8" y2="44.1"/>
	<line class="st1" x1="238.8" y1="44.1" x2="237" y2="43.5"/>
	<line class="st1" x1="237" y1="43.5" x2="235.3" y2="43.2"/>
	<line class="st1" x1="235.3" y1="43.2" x2="233.5" y2="43.3"/>
	<line class="st1" x1="233.5" y1="43.3" x2="231.7" y2="43.6"/>
	<line class="st1" x1="263.7" y1="493" x2="263.2" y2="495.8"/>
	<line class="st1" x1="263.2" y1="495.8" x2="262.5" y2="498.5"/>
	<line class="st1" x1="262.5" y1="498.5" x2="261.9" y2="501.2"/>
	<line class="st1" x1="261.9" y1="501.2" x2="261" y2="503.6"/>
	<line class="st1" x1="261" y1="503.6" x2="260.7" y2="504.1"/>
	<line class="st1" x1="260.7" y1="504.1" x2="260.4" y2="504.7"/>
	<line class="st1" x1="260.4" y1="504.7" x2="260.2" y2="505.2"/>
	<line class="st1" x1="260.2" y1="505.2" x2="259.8" y2="505.8"/>
	<line class="st1" x1="259.8" y1="505.8" x2="259.1" y2="506.7"/>
	<line class="st1" x1="259.1" y1="506.7" x2="258.3" y2="507.5"/>
	<line class="st1" x1="258.3" y1="507.5" x2="257.8" y2="507.8"/>
	<line class="st1" x1="257.8" y1="507.8" x2="257.5" y2="508.1"/>
	<line class="st1" x1="329.7" y1="115.5" x2="317.5" y2="178.2"/>
	<line class="st1" x1="317.5" y1="178.2" x2="305.7" y2="240.9"/>
	<line class="st1" x1="305.7" y1="240.9" x2="294.5" y2="303.8"/>
	<line class="st1" x1="294.5" y1="303.8" x2="283.7" y2="366.9"/>
	<line class="st1" x1="283.7" y1="366.9" x2="273.4" y2="429.8"/>
	<line class="st1" x1="273.4" y1="429.8" x2="263.7" y2="493"/>
	<line class="st1" x1="317.6" y1="92.3" x2="320.2" y2="94.1"/>
	<line class="st1" x1="320.2" y1="94.1" x2="322.7" y2="96.3"/>
	<line class="st1" x1="322.7" y1="96.3" x2="324.9" y2="98.6"/>
	<line class="st1" x1="324.9" y1="98.6" x2="326.1" y2="100"/>
	<line class="st1" x1="326.1" y1="100" x2="327.1" y2="101.3"/>
	<line class="st1" x1="327.1" y1="101.3" x2="328" y2="102.9"/>
	<line class="st1" x1="328" y1="102.9" x2="328.8" y2="104.6"/>
	<line class="st1" x1="328.8" y1="104.6" x2="329.3" y2="106.3"/>
	<line class="st1" x1="329.3" y1="106.3" x2="329.8" y2="108.1"/>
	<line class="st1" x1="329.8" y1="108.1" x2="330" y2="110"/>
	<line class="st1" x1="330" y1="110" x2="330.1" y2="111.8"/>
	<line class="st1" x1="330.1" y1="111.8" x2="330" y2="113.7"/>
	<line class="st1" x1="330" y1="113.7" x2="329.7" y2="115.5"/>
	<line class="st1" x1="277.7" y1="67.5" x2="291.2" y2="75.5"/>
	<line class="st1" x1="291.2" y1="75.5" x2="304.5" y2="83.7"/>
	<line class="st1" x1="304.5" y1="83.7" x2="317.6" y2="92.3"/>
	<line class="st1" x1="236.9" y1="45.7" x2="250.6" y2="52.6"/>
	<line class="st1" x1="250.6" y1="52.6" x2="264.2" y2="59.8"/>
	<line class="st1" x1="264.2" y1="59.8" x2="277.7" y2="67.5"/>
	<line class="st1" x1="221.4" y1="44.3" x2="222.4" y2="43.8"/>
	<line class="st1" x1="222.4" y1="43.8" x2="223.5" y2="43.3"/>
	<line class="st1" x1="223.5" y1="43.3" x2="224.5" y2="43"/>
	<line class="st1" x1="224.5" y1="43" x2="225.7" y2="42.9"/>
	<line class="st1" x1="225.7" y1="42.9" x2="227.1" y2="42.9"/>
	<line class="st1" x1="227.1" y1="42.9" x2="228.6" y2="43"/>
	<line class="st1" x1="228.6" y1="43" x2="229.9" y2="43.2"/>
	<line class="st1" x1="229.9" y1="43.2" x2="231.4" y2="43.5"/>
	<line class="st1" x1="231.4" y1="43.5" x2="234.1" y2="44.4"/>
	<line class="st1" x1="234.1" y1="44.4" x2="236.9" y2="45.7"/>
	<line class="st1" x1="236.3" y1="46" x2="235.4" y2="46.6"/>
	<line class="st1" x1="263.1" y1="493.3" x2="262.2" y2="493.8"/>
	<line class="st1" x1="327.7" y1="116.5" x2="315.5" y2="179.2"/>
	<line class="st1" x1="315.5" y1="179.2" x2="303.8" y2="242"/>
	<line class="st1" x1="303.8" y1="242" x2="292.6" y2="304.9"/>
	<line class="st1" x1="292.6" y1="304.9" x2="281.8" y2="367.9"/>
	<line class="st1" x1="281.8" y1="367.9" x2="271.4" y2="430.8"/>
	<line class="st1" x1="271.4" y1="430.8" x2="261.6" y2="494"/>
	<line class="st1" x1="261.6" y1="494" x2="261.2" y2="496.8"/>
	<line class="st1" x1="261.2" y1="496.8" x2="260.6" y2="499.5"/>
	<line class="st1" x1="260.6" y1="499.5" x2="260.1" y2="501.5"/>
	<line class="st1" x1="260.1" y1="501.5" x2="259.5" y2="503.4"/>
	<line class="st1" x1="259.5" y1="503.4" x2="258.7" y2="505.2"/>
	<line class="st1" x1="258.7" y1="505.2" x2="257.8" y2="506.8"/>
	<line class="st1" x1="257.8" y1="506.8" x2="257.3" y2="507.5"/>
	<line class="st1" x1="257.3" y1="507.5" x2="256.7" y2="508.2"/>
	<line class="st1" x1="256.7" y1="508.2" x2="256.5" y2="508.4"/>
	<line class="st1" x1="256.5" y1="508.4" x2="256.1" y2="508.7"/>
	<line class="st1" x1="256.1" y1="508.7" x2="255.8" y2="509"/>
	<line class="st1" x1="255.8" y1="509" x2="255.5" y2="509.1"/>
	<line class="st1" x1="255.5" y1="509.1" x2="254.9" y2="509.3"/>
	<line class="st1" x1="254.9" y1="509.3" x2="254.3" y2="509.5"/>
	<line class="st1" x1="141.7" y1="350.3" x2="145.4" y2="324.2"/>
	<line class="st1" x1="145.4" y1="324.2" x2="149.7" y2="298.2"/>
	<line class="st1" x1="149.7" y1="298.2" x2="154.3" y2="272.2"/>
	<line class="st1" x1="154.3" y1="272.2" x2="159.4" y2="246.2"/>
	<line class="st1" x1="159.4" y1="246.2" x2="165.2" y2="220.5"/>
	<line class="st1" x1="165.2" y1="220.5" x2="171.4" y2="194.7"/>
	<line class="st1" x1="171.4" y1="194.7" x2="177.9" y2="169.2"/>
	<line class="st1" x1="177.9" y1="169.2" x2="185.1" y2="143.8"/>
	<line class="st1" x1="214.6" y1="53.1" x2="215.2" y2="51.5"/>
	<line class="st1" x1="215.2" y1="51.5" x2="215.9" y2="49.9"/>
	<line class="st1" x1="215.9" y1="49.9" x2="216.7" y2="48.6"/>
	<line class="st1" x1="216.7" y1="48.6" x2="217.1" y2="47.9"/>
	<line class="st1" x1="217.1" y1="47.9" x2="217.5" y2="47.4"/>
	<line class="st1" x1="217.5" y1="47.4" x2="217.9" y2="46.9"/>
	<line class="st1" x1="217.9" y1="46.9" x2="218.4" y2="46.5"/>
	<line class="st1" x1="218.4" y1="46.5" x2="219.4" y2="45.6"/>
	<line class="st1" x1="219.4" y1="45.6" x2="220.5" y2="45"/>
	<line class="st1" x1="220.5" y1="45" x2="221.6" y2="44.5"/>
	<line class="st1" x1="221.6" y1="44.5" x2="222.9" y2="44.2"/>
	<line class="st1" x1="222.9" y1="44.2" x2="224.1" y2="44"/>
	<line class="st1" x1="224.1" y1="44" x2="225.3" y2="44"/>
	<line class="st1" x1="225.3" y1="44" x2="226.6" y2="44.1"/>
	<line class="st1" x1="226.6" y1="44.1" x2="227.7" y2="44.3"/>
	<line class="st1" x1="227.7" y1="44.3" x2="228.9" y2="44.5"/>
	<line class="st1" x1="228.9" y1="44.5" x2="230.2" y2="44.9"/>
	<line class="st1" x1="230.2" y1="44.9" x2="232.6" y2="45.8"/>
	<line class="st1" x1="232.6" y1="45.8" x2="235" y2="46.9"/>
	<line class="st1" x1="238.8" y1="48.8" x2="251.6" y2="55.3"/>
	<line class="st1" x1="251.6" y1="55.3" x2="268" y2="64.2"/>
	<line class="st1" x1="268" y1="64.2" x2="284.2" y2="73.6"/>
	<line class="st1" x1="284.2" y1="73.6" x2="300.1" y2="83.3"/>
	<line class="st1" x1="300.1" y1="83.3" x2="312.2" y2="91.2"/>
	<line class="st1" x1="315.7" y1="93.5" x2="318.3" y2="95.4"/>
	<line class="st1" x1="318.3" y1="95.4" x2="320.8" y2="97.4"/>
	<line class="st1" x1="320.8" y1="97.4" x2="321.7" y2="98.3"/>
	<line class="st1" x1="321.7" y1="98.3" x2="322.5" y2="99.2"/>
	<line class="st1" x1="322.5" y1="99.2" x2="323.4" y2="100.1"/>
	<line class="st1" x1="323.4" y1="100.1" x2="324.1" y2="101.1"/>
	<line class="st1" x1="324.1" y1="101.1" x2="324.8" y2="102.1"/>
	<line class="st1" x1="324.8" y1="102.1" x2="325.6" y2="103.2"/>
	<line class="st1" x1="325.6" y1="103.2" x2="326.2" y2="104.5"/>
	<line class="st1" x1="326.2" y1="104.5" x2="326.7" y2="105.7"/>
	<line class="st1" x1="326.7" y1="105.7" x2="327.3" y2="106.9"/>
	<line class="st1" x1="327.3" y1="106.9" x2="327.6" y2="108.3"/>
	<line class="st1" x1="327.6" y1="108.3" x2="327.9" y2="109.6"/>
	<line class="st1" x1="327.9" y1="109.6" x2="328.1" y2="111"/>
	<line class="st1" x1="328.1" y1="111" x2="328.1" y2="112.4"/>
	<line class="st1" x1="328.1" y1="112.4" x2="328.1" y2="113.8"/>
	<line class="st1" x1="328.1" y1="113.8" x2="328" y2="115.1"/>
	<line class="st1" x1="328" y1="115.1" x2="327.7" y2="116.5"/>
	<line class="st1" x1="251" y1="509.5" x2="250.4" y2="509.4"/>
	<line class="st1" x1="250.4" y1="509.4" x2="249.8" y2="509"/>
	<line class="st1" x1="249.8" y1="509" x2="249.4" y2="508.3"/>
	<line class="st1" x1="249.4" y1="508.3" x2="248.9" y2="507.3"/>
	<line class="st1" x1="248.9" y1="507.3" x2="248.6" y2="506.1"/>
	<line class="st1" x1="248.6" y1="506.1" x2="248.3" y2="504.7"/>
	<line class="st1" x1="248.3" y1="504.7" x2="248" y2="503"/>
	<line class="st1" x1="248" y1="503" x2="247.9" y2="501.1"/>
	<line class="st1" x1="247.9" y1="501.1" x2="247.7" y2="496.6"/>
	<line class="st1" x1="247.7" y1="496.6" x2="247.7" y2="491"/>
	<line class="st1" x1="247.7" y1="491" x2="248" y2="484.4"/>
	<line class="st1" x1="248" y1="484.4" x2="248.5" y2="476.8"/>
	<line class="st1" x1="142.5" y1="415.6" x2="244.9" y2="474.8"/>
	<line class="st1" x1="137.5" y1="444.1" x2="137.1" y2="443.6"/>
	<line class="st1" x1="137.1" y1="443.6" x2="136.7" y2="443"/>
	<line class="st1" x1="136.7" y1="443" x2="136.5" y2="442.2"/>
	<line class="st1" x1="136.5" y1="442.2" x2="136.3" y2="441.1"/>
	<line class="st1" x1="136.3" y1="441.1" x2="136.2" y2="439.8"/>
	<line class="st1" x1="136.2" y1="439.8" x2="136.1" y2="438.4"/>
	<line class="st1" x1="136.1" y1="438.4" x2="136.1" y2="436.8"/>
	<line class="st1" x1="136.1" y1="436.8" x2="136.2" y2="435"/>
	<line class="st1" x1="136.2" y1="435" x2="136.4" y2="430.7"/>
	<line class="st1" x1="136.4" y1="430.7" x2="137" y2="425.8"/>
	<line class="st1" x1="137" y1="425.8" x2="137.7" y2="420"/>
	<line class="st1" x1="137.7" y1="420" x2="138.8" y2="413.5"/>
	<line class="st1" x1="235" y1="46.9" x2="234" y2="47.6"/>
	<line class="st1" x1="234" y1="47.6" x2="233.1" y2="48.6"/>
	<line class="st1" x1="233.1" y1="48.6" x2="232.1" y2="49.8"/>
	<line class="st1" x1="232.1" y1="49.8" x2="230.9" y2="51.3"/>
	<line class="st1" x1="230.9" y1="51.3" x2="229.9" y2="53"/>
	<line class="st1" x1="229.9" y1="53" x2="228.8" y2="55"/>
	<line class="st1" x1="228.8" y1="55" x2="227.6" y2="57.3"/>
	<line class="st1" x1="227.6" y1="57.3" x2="226.4" y2="59.8"/>
	<line class="st1" x1="226.4" y1="59.8" x2="224" y2="65.6"/>
	<line class="st1" x1="224" y1="65.6" x2="221.4" y2="72.4"/>
	<line class="st1" x1="221.4" y1="72.4" x2="218.7" y2="80.3"/>
	<line class="st1" x1="218.7" y1="80.3" x2="215.9" y2="89.1"/>
	<line class="st1" x1="315.7" y1="93.5" x2="314.8" y2="94.2"/>
	<line class="st1" x1="314.8" y1="94.2" x2="313.8" y2="95.2"/>
	<line class="st1" x1="313.8" y1="95.2" x2="312.9" y2="96.5"/>
	<line class="st1" x1="312.9" y1="96.5" x2="311.9" y2="98.1"/>
	<line class="st1" x1="311.9" y1="98.1" x2="311" y2="99.9"/>
	<line class="st1" x1="311" y1="99.9" x2="310" y2="101.9"/>
	<line class="st1" x1="310" y1="101.9" x2="309" y2="104.2"/>
	<line class="st1" x1="309" y1="104.2" x2="308" y2="106.8"/>
	<line class="st1" x1="308" y1="106.8" x2="306.9" y2="109.8"/>
	<line class="st1" x1="306.9" y1="109.8" x2="305.9" y2="112.9"/>
	<line class="st1" x1="305.9" y1="112.9" x2="304.9" y2="116.3"/>
	<line class="st1" x1="304.9" y1="116.3" x2="303.8" y2="120"/>
	<line class="st1" x1="303.8" y1="120" x2="301.8" y2="128.2"/>
	<line class="st1" x1="301.8" y1="128.2" x2="299.5" y2="137.4"/>
	<line class="st1" x1="248.5" y1="476.8" x2="250.6" y2="451.3"/>
	<line class="st1" x1="250.6" y1="451.3" x2="253" y2="425.7"/>
	<line class="st1" x1="253" y1="425.7" x2="255.7" y2="399.9"/>
	<line class="st1" x1="255.7" y1="399.9" x2="258.7" y2="374.1"/>
	<line class="st1" x1="258.7" y1="374.1" x2="262.1" y2="348.1"/>
	<line class="st1" x1="262.1" y1="348.1" x2="265.7" y2="322"/>
	<line class="st1" x1="265.7" y1="322" x2="269.6" y2="295.8"/>
	<line class="st1" x1="269.6" y1="295.8" x2="273.9" y2="269.6"/>
	<line class="st1" x1="273.9" y1="269.6" x2="278.4" y2="243.3"/>
	<line class="st1" x1="278.4" y1="243.3" x2="283.2" y2="216.9"/>
	<line class="st1" x1="283.2" y1="216.9" x2="288.4" y2="190.5"/>
	<line class="st1" x1="288.4" y1="190.5" x2="293.8" y2="163.9"/>
	<line class="st1" x1="293.8" y1="163.9" x2="299.5" y2="137.4"/>
	<line class="st1" x1="138.8" y1="413.5" x2="142.9" y2="389.1"/>
	<line class="st1" x1="142.9" y1="389.1" x2="147.3" y2="364.6"/>
	<line class="st1" x1="147.3" y1="364.6" x2="152" y2="340.1"/>
	<line class="st1" x1="152" y1="340.1" x2="157.1" y2="315.4"/>
	<line class="st1" x1="157.1" y1="315.4" x2="162.5" y2="290.5"/>
	<line class="st1" x1="162.5" y1="290.5" x2="168.1" y2="265.7"/>
	<line class="st1" x1="168.1" y1="265.7" x2="174.1" y2="240.6"/>
	<line class="st1" x1="174.1" y1="240.6" x2="180.4" y2="215.5"/>
	<line class="st1" x1="180.4" y1="215.5" x2="186.9" y2="190.5"/>
	<line class="st1" x1="186.9" y1="190.5" x2="193.6" y2="165.2"/>
	<line class="st1" x1="193.6" y1="165.2" x2="200.8" y2="139.9"/>
	<line class="st1" x1="200.8" y1="139.9" x2="208.2" y2="114.6"/>
	<line class="st1" x1="208.2" y1="114.6" x2="215.9" y2="89.1"/>
	<line class="st1" x1="160.6" y1="299.2" x2="160.8" y2="298.4"/>
	<line class="st1" x1="160.8" y1="298.4" x2="160.9" y2="297.5"/>
	<line class="st1" x1="317.1" y1="92.7" x2="316.2" y2="93.2"/>
	<line class="st1" x1="255.5" y1="509.1" x2="257.5" y2="508.1"/>
	<line class="st1" x1="221.4" y1="44.3" x2="219.6" y2="45.6"/>
	<line class="st1" x1="251" y1="509.5" x2="254.3" y2="509.5"/>
	<line class="st1" x1="137.5" y1="444.1" x2="146.6" y2="451.8"/>
	<line class="st1" x1="146.6" y1="451.8" x2="156.1" y2="459.2"/>
	<line class="st1" x1="156.1" y1="459.2" x2="165.7" y2="466.1"/>
	<line class="st1" x1="165.7" y1="466.1" x2="175.6" y2="472.9"/>
	<line class="st1" x1="175.6" y1="472.9" x2="185.8" y2="479.2"/>
	<line class="st1" x1="185.8" y1="479.2" x2="196.1" y2="485.1"/>
	<line class="st1" x1="196.1" y1="485.1" x2="206.7" y2="490.7"/>
	<line class="st1" x1="206.7" y1="490.7" x2="217.5" y2="496"/>
	<line class="st1" x1="217.5" y1="496" x2="228.4" y2="500.9"/>
	<line class="st1" x1="228.4" y1="500.9" x2="239.4" y2="505.4"/>
	<line class="st1" x1="239.4" y1="505.4" x2="250.6" y2="509.5"/>
	<line class="st1" x1="215.1" y1="52.1" x2="207" y2="74.8"/>
	<line class="st1" x1="207" y1="74.8" x2="199.2" y2="97.7"/>
	<line class="st1" x1="199.2" y1="97.7" x2="192" y2="120.8"/>
	<line class="st1" x1="192" y1="120.8" x2="185.2" y2="143.9"/>
	<line class="st1" x1="141.6" y1="349.7" x2="141.2" y2="352.9"/>
	<line class="st1" x1="141.2" y1="352.9" x2="140.8" y2="356.1"/>
	<line class="st1" x1="140.8" y1="356.1" x2="140.4" y2="358.8"/>
	<line class="st1" x1="140.4" y1="358.8" x2="140.1" y2="361.5"/>
	<line class="st1" x1="140.1" y1="361.5" x2="139.8" y2="363.7"/>
	<line class="st1" x1="139.8" y1="363.7" x2="139.5" y2="365.8"/>
	<line class="st1" x1="139.5" y1="365.8" x2="139.3" y2="367.5"/>
	<line class="st1" x1="139.3" y1="367.5" x2="139.1" y2="369.2"/>
	<line class="st1" x1="139.1" y1="369.2" x2="138.9" y2="371.1"/>
	<line class="st1" x1="138.9" y1="371.1" x2="138.6" y2="373"/>
	<line class="st1" x1="138.6" y1="373" x2="138.3" y2="374.8"/>
	<line class="st1" x1="138.3" y1="374.8" x2="138.1" y2="376.7"/>
	<line class="st1" x1="138.1" y1="376.7" x2="137.9" y2="378.7"/>
	<line class="st1" x1="137.9" y1="378.7" x2="137.6" y2="380.6"/>
	<line class="st1" x1="137.6" y1="380.6" x2="137.4" y2="382.6"/>
	<line class="st1" x1="137.4" y1="382.6" x2="137.1" y2="384.7"/>
	<line class="st1" x1="137.1" y1="384.7" x2="136.9" y2="387"/>
	<line class="st1" x1="136.9" y1="387" x2="136.5" y2="389.1"/>
	<line class="st1" x1="136.5" y1="389.1" x2="136.3" y2="391.3"/>
	<line class="st1" x1="136.3" y1="391.3" x2="136.1" y2="393.4"/>
	<line class="st1" x1="136.1" y1="393.4" x2="135.7" y2="395.4"/>
	<line class="st1" x1="135.7" y1="395.4" x2="135.5" y2="397.4"/>
	<line class="st1" x1="135.5" y1="397.4" x2="135.4" y2="399"/>
	<line class="st1" x1="135.4" y1="399" x2="135.2" y2="400.6"/>
	<line class="st1" x1="135.2" y1="400.6" x2="134.9" y2="402.3"/>
	<line class="st1" x1="134.9" y1="402.3" x2="134.8" y2="403.8"/>
	<line class="st1" x1="134.8" y1="403.8" x2="134.6" y2="405.4"/>
	<line class="st1" x1="134.6" y1="405.4" x2="134.4" y2="407"/>
	<line class="st1" x1="134.4" y1="407" x2="134.3" y2="408.5"/>
	<line class="st1" x1="134.3" y1="408.5" x2="134.2" y2="410"/>
	<line class="st1" x1="134.2" y1="410" x2="134" y2="411.5"/>
	<line class="st1" x1="134" y1="411.5" x2="133.8" y2="412.9"/>
	<line class="st1" x1="133.8" y1="412.9" x2="133.7" y2="414.6"/>
	<line class="st1" x1="133.7" y1="414.6" x2="133.6" y2="416.4"/>
	<line class="st1" x1="133.6" y1="416.4" x2="133.5" y2="418.6"/>
	<line class="st1" x1="133.5" y1="418.6" x2="133.4" y2="420.7"/>
	<line class="st1" x1="133.4" y1="420.7" x2="133.3" y2="422.8"/>
	<line class="st1" x1="133.3" y1="422.8" x2="133.3" y2="425"/>
	<line class="st1" x1="133.3" y1="425" x2="133.3" y2="426.8"/>
	<line class="st1" x1="133.3" y1="426.8" x2="133.3" y2="428.5"/>
	<line class="st1" x1="133.3" y1="428.5" x2="133.4" y2="429.2"/>
	<line class="st1" x1="133.4" y1="429.2" x2="133.4" y2="430"/>
	<line class="st1" x1="133.4" y1="430" x2="133.5" y2="431"/>
	<line class="st1" x1="133.5" y1="431" x2="133.5" y2="432.1"/>
	<line class="st1" x1="133.5" y1="432.1" x2="133.7" y2="433.3"/>
	<line class="st1" x1="133.7" y1="433.3" x2="133.8" y2="434.5"/>
	<line class="st1" x1="133.8" y1="434.5" x2="134" y2="435.7"/>
	<line class="st1" x1="134" y1="435.7" x2="134.3" y2="436.7"/>
	<line class="st1" x1="134.3" y1="436.7" x2="134.6" y2="437.9"/>
	<line class="st1" x1="134.6" y1="437.9" x2="134.9" y2="439"/>
	<line class="st1" x1="134.9" y1="439" x2="135.4" y2="440.3"/>
	<line class="st1" x1="135.4" y1="440.3" x2="135.8" y2="441.4"/>
	<line class="st1" x1="135.8" y1="441.4" x2="136.4" y2="442.5"/>
	<line class="st1" x1="136.4" y1="442.5" x2="137.1" y2="443.6"/>
	<path class="st1" d="M236.7,454.4l-81.1-47.5c-8.8-5.2-13.4-15.1-11.4-24.7l19.5-92.9c1.3-6,8.2-8.9,13.8-5.7l73.4,42.3
		c7.3,4.2,11.4,12.1,10.5,20l-11.7,102.5C249,454.4,242.2,457.6,236.7,454.4z"/>
	<path class="st1" d="M241.5,436l-31.4-17.8c-1.3-0.7-4.7-1.5-7-0.4l-10.3,4.2c-2.1,0.4-4.4,0-6.3-1.1l-20.2-11.2
		c-2.6-1.5-4.6-3.7-5.7-6.4l-5.4-14.5c-0.5-1.2-1.3-7.9-1.4-10.3c0-3.2,0.1-5.9,0.5-8.3c0-0.6,0.2-1.2,0.3-1.9
		c0.1-0.6,0.1-1.2,0.3-1.9l11.2-59c1.4-7.4,9.9-11,16.7-7.1l65.4,37.3c6.8,3.9,10.7,11.3,9.8,18.7l-8.7,75.8
		C248.8,436,244.8,437.9,241.5,436z"/>
	<path class="st1" d="M253.2,368.5L209,410.9c-1,0.9-2.3,1.9-4.2,2.8c-2.1,1-3.9,1.5-5.3,1.7c-5.7-2.6-12-5.8-18.7-10.1
		c-5.4-3.4-10.1-6.9-14.2-10.2c-0.3-3.6-0.7-7.1-1-10.7l43.2-41c1.7,0.3,3.6,0.6,5.8,0.8c1.9,0.1,3.7,0.1,5.2,0
		c4.7,3.4,9.9,7,15.8,10.5c6.4,3.8,12.5,7,18.1,9.6C253.6,365.7,253.4,367.1,253.2,368.5z"/>
	<polygon class="st1" points="243.7,370.6 217.4,354.4 176.8,392.1 203.2,408.3 	"/>
	<path class="st1" d="M154,374.5l48.1-43.1c3.3-0.1,7.6,0,12.6,1c5.6,1.2,10.1,3.1,13.2,4.7c10,5.5,19.9,11,29.9,16.5"/>
	<polygon class="st1" points="286.1,130.9 229.6,98.4 228.6,101.6 285,134.1 	"/>
	<g>
		<path class="st1" d="M236,209.4c0,0,5.2,1.1,6.4,2.4c3.4,3.7,8.1,19.8,8.1,19.8"/>
		<path class="st1" d="M229,221.8c4.8,4.7,7.7,3.7,7.7,3.7"/>
		<path class="st1" d="M230.2,222.9c0.1,6.8,7.9,6.9,7.9,6.9"/>
		<path class="st1" d="M232,227.8c0.6,4.9,7.4,5.4,7.4,5.4"/>
		<path class="st1" d="M222.5,213.6c-5.1,7.1,2.4,5.8,2.4,5.8"/>
		<path class="st1" d="M233,219.2l-5.2,2.9c-0.7,0.4-1.7,0-2.1-1l-10.1-22.5c-0.4-1-0.2-2.1,0.6-2.5l9.5-5.4c0.7-0.4,1.7,0,2.1,1
			l10.1,22.5c0.2,0.4,0.2,0.7,0.2,1.1"/>
		<path class="st1" d="M241.3,236.1c-3.1-4-5.4-13.6-5.4-13.6s-9.4-11.2-7.8-15.5c0.5-1.2,2.3-1.5,3.7,1.3c1.1,2.1,4.2,6.2,7.2,8.2
			c3.5,2.4,4.7,6.5,4.8,5.9"/>
	</g>
	<g>
		<polygon class="st1" points="184.5,452.6 185.5,444.1 189.5,446.3 189.2,448.4 187.1,447.2 187,448.4 188.9,449.5 188.7,451.3 
			186.7,450.3 186.6,451.6 188.7,452.8 188.4,454.8 		"/>
		<polygon class="st1" points="182,446.2 181.9,446.2 181.7,446.1 181.2,445.8 181.4,443.9 182,444.2 182.2,444.3 182.4,444.4 
			182.5,444.6 182.6,444.8 182.7,445 182.7,445.1 182.8,445.3 182.8,445.5 182.7,445.6 182.7,445.7 182.7,445.8 182.7,446 
			182.6,446.1 182.5,446.2 182.4,446.2 182.2,446.3 		"/>
		<polygon class="st1" points="182.6,442.5 182.4,442.4 179.8,441 178.8,449.4 180.6,450.4 181,447.7 181.7,448.1 181.9,448.2 
			182.5,448.5 183.1,448.6 183.6,448.5 183.9,448.3 184.2,447.9 184.4,447.5 184.6,447.1 184.7,446.7 184.7,446.2 184.7,445.7 
			184.6,445.1 184.4,444.6 184.1,444 183.7,443.4 183.2,442.9 		"/>
		<polygon class="st1" points="200.2,460.9 199.9,460.9 199.7,461 199.4,461 199.2,460.9 199,460.8 198.8,460.8 198.5,460.7 
			198.3,460.5 197.6,460.1 197,459.5 196.5,458.8 196.1,458.1 195.7,457.2 195.5,456.2 195.4,455.2 195.5,454.2 195.7,453.2 
			196,452.4 196.5,451.8 197,451.4 197.5,451.2 198.1,451.2 198.8,451.3 199.4,451.6 199.6,451.7 199.9,451.9 200.1,452 
			200.3,452.2 200.5,452.5 200.7,452.7 200.9,453 201.1,453.2 200.8,455.7 200.7,455.5 200.6,455.3 200.5,455 200.3,454.7 
			200.1,454.5 199.9,454.2 199.7,454 199.4,453.8 199,453.7 198.6,453.6 198.3,453.7 198.1,453.9 197.8,454.1 197.6,454.5 
			197.5,454.9 197.4,455.3 197.4,455.9 197.4,456.4 197.5,456.9 197.7,457.3 197.9,457.7 198.2,458 198.5,458.3 198.8,458.6 
			199,458.7 199.3,458.7 199.5,458.8 199.7,458.8 199.9,458.7 200.1,458.7 200.3,458.6 200.5,458.5 		"/>
		<polygon class="st1" points="204.8,460.8 204.8,460.9 204.8,461.1 204.7,461.4 204.6,461.6 204.4,461.8 204.2,461.9 203.9,462 
			203.6,461.8 203.3,461.6 203.1,461.3 202.9,461 202.8,460.6 202.8,460.3 202.8,460 202.8,459.8 202.8,459.7 202.9,459.3 
			202.9,459 203.1,458.8 203.2,458.6 203.4,458.5 203.5,458.5 203.8,458.5 204,458.6 204.2,458.8 204.4,459 204.6,459.2 
			204.7,459.5 204.8,459.8 204.8,460.1 204.8,460.4 		"/>
		<polygon class="st1" points="206.5,461.7 206.6,461.1 206.5,460.4 206.4,459.8 206.1,459.1 205.8,458.5 205.4,458 204.8,457.5 
			204.2,457.1 203.5,456.8 203,456.7 202.5,456.7 202,456.9 201.7,457.2 201.4,457.6 201.2,458.1 201.1,458.7 201.1,459.4 
			201.1,460 201.3,460.7 201.5,461.3 201.8,461.9 202.3,462.4 202.8,462.9 203.4,463.3 204.1,463.6 204.6,463.8 205.2,463.7 
			205.6,463.6 205.9,463.3 206.2,462.8 206.4,462.3 		"/>
		<polygon class="st1" points="192.7,452.2 192.5,452.1 192.4,452 191.8,451.7 192.1,449.8 192.6,450.1 192.8,450.2 193,450.3 
			193.2,450.5 193.3,450.7 193.3,450.9 193.4,451.1 193.4,451.2 193.4,451.4 193.4,451.5 193.4,451.6 193.3,451.7 193.3,451.9 
			193.2,452 193.1,452.1 193,452.2 192.9,452.2 		"/>
		<polygon class="st1" points="193.6,454.5 194,454.4 194.3,454.3 194.6,454.1 194.8,453.9 195,453.6 195.1,453.3 195.2,452.9 
			195.3,452.6 195.3,452.2 195.3,451.7 195.2,451.1 195.1,450.6 194.8,450 194.5,449.5 194,449 193.4,448.5 193.2,448.4 
			190.5,446.9 189.4,455.3 191.3,456.4 191.6,453.6 191.6,453.6 192.1,455.3 192.7,457.1 194.9,458.4 		"/>
	</g>
	<g>
		<path class="st0" d="M385.3,285.4v1.1h-6.7c0.2,0.3,0.5,0.6,0.7,1s0.4,0.8,0.5,1.1h-1c-0.3-0.6-0.6-1.1-1-1.5s-0.8-0.8-1.1-0.9
			v-0.7H385.3z"/>
		<path class="st0" d="M377.9,282.6h-1V277h0.8c0.6,0.5,1.4,1.1,2.3,1.6s2,1,3,1.2c0.7,0.2,1.5,0.3,2.4,0.4v1.1
			c-0.7,0-1.5-0.1-2.4-0.4s-1.9-0.6-2.8-1.1s-1.6-1-2.2-1.5V282.6z"/>
		<path class="st0" d="M381.1,276c-1,0-1.8-0.1-2.5-0.3s-1.1-0.5-1.4-0.9s-0.5-0.9-0.5-1.6c0-0.5,0.1-0.9,0.3-1.2s0.5-0.6,0.8-0.9
			s0.8-0.4,1.3-0.5s1.2-0.2,2-0.2c1,0,1.8,0.1,2.4,0.3s1.1,0.5,1.4,0.9s0.5,0.9,0.5,1.6c0,0.8-0.3,1.5-0.9,2
			C383.9,275.7,382.7,276,381.1,276z M381.1,274.9c1.4,0,2.3-0.2,2.8-0.5s0.7-0.7,0.7-1.2s-0.2-0.9-0.7-1.2s-1.4-0.5-2.8-0.5
			c-1.4,0-2.4,0.2-2.8,0.5s-0.7,0.7-0.7,1.2c0,0.5,0.2,0.9,0.6,1.2C378.7,274.7,379.7,274.9,381.1,274.9z"/>
	</g>
	<g>
		<path class="st0" d="M295,525.5l0.9-0.7c0.4,0.4,0.7,0.7,1.1,0.7c0.4,0.1,0.8,0,1.1-0.2c0.4-0.3,0.7-0.7,0.8-1.2
			c0.1-0.5,0-1-0.4-1.6c-0.3-0.5-0.7-0.8-1.2-0.9c-0.5-0.1-0.9,0-1.4,0.3c-0.3,0.2-0.5,0.4-0.7,0.7s-0.2,0.6-0.2,0.9l-0.9,0.4
			l-1.7-4.2l3.6-2.3l0.5,0.9l-2.9,1.8l0.8,2.2c0.2-0.6,0.6-1,1.1-1.3c0.6-0.4,1.3-0.5,2-0.4c0.7,0.2,1.3,0.6,1.7,1.3
			c0.4,0.7,0.6,1.3,0.5,2.1c-0.1,0.9-0.5,1.6-1.3,2.1c-0.7,0.4-1.3,0.6-2,0.5C296,526.5,295.4,526.1,295,525.5z"/>
		<path class="st0" d="M305.2,521.7l-0.9,0.6l-3.6-5.7c-0.1,0.3-0.2,0.7-0.5,1.1c-0.2,0.4-0.4,0.8-0.6,1.1L299,518
			c0.4-0.6,0.6-1.1,0.8-1.7c0.2-0.6,0.2-1.1,0.2-1.5l0.6-0.4L305.2,521.7z"/>
	</g>
	<line class="st1" x1="319.4" y1="117.6" x2="393.7" y2="69.5"/>
	<line class="st1" x1="199.6" y1="57.9" x2="273.9" y2="9.8"/>
	<polygon class="st0" points="372.6,82.8 364.1,79.6 366.6,79.3 365.6,77 	"/>
	<polygon class="st0" points="258.9,19.9 267.4,23.1 264.9,23.4 265.9,25.7 	"/>
	<line class="st1" x1="262.3" y1="21.8" x2="369.1" y2="80.9"/>
	<g>
		<path class="st0" d="M317,37.2l0.5-0.9l4.9,2.7l-0.4,0.7c-0.8,0.2-1.6,0.7-2.5,1.2c-0.9,0.6-1.8,1.3-2.5,2c-0.5,0.5-1,1.2-1.5,1.9
			l-0.9-0.5c0.3-0.6,0.8-1.2,1.5-2c0.7-0.7,1.5-1.3,2.3-1.9c0.8-0.5,1.6-1,2.4-1.2L317,37.2z"/>
		<path class="st0" d="M321.2,43.2c0.5-0.9,1-1.6,1.5-2c0.5-0.4,1-0.7,1.5-0.8c0.5-0.1,1.1,0,1.6,0.3c0.4,0.2,0.7,0.5,0.9,0.8
			s0.3,0.7,0.4,1.1s0,0.9-0.2,1.4c-0.1,0.5-0.4,1.1-0.8,1.9c-0.5,0.9-1,1.5-1.5,2c-0.5,0.4-1,0.7-1.5,0.8c-0.5,0.1-1.1,0-1.6-0.3
			c-0.7-0.4-1.2-1-1.3-1.7C320.1,45.7,320.4,44.6,321.2,43.2z M322.1,43.7c-0.7,1.2-1,2.1-0.9,2.7c0.1,0.6,0.3,1,0.7,1.2
			c0.4,0.2,0.9,0.2,1.4,0c0.5-0.3,1.1-1,1.8-2.2c0.7-1.2,1-2.1,0.9-2.7c-0.1-0.6-0.3-1-0.7-1.2c-0.4-0.2-0.9-0.2-1.3,0
			C323.4,41.7,322.8,42.5,322.1,43.7z"/>
	</g>
</g>
</svg>
