<?xml version="1.0" encoding="utf-8"?>
<!-- Generator: Adobe Illustrator 23.0.3, SVG Export Plug-In . SVG Version: 6.00 Build 0)  -->
<svg version="1.1" xmlns="http://www.w3.org/2000/svg" xmlns:xlink="http://www.w3.org/1999/xlink" x="0px" y="0px"
	 viewBox="0 0 500 550" style="enable-background:new 0 0 500 550;" xml:space="preserve">
<style type="text/css">
	.st0{fill:#4F89B9;}
	.st1{fill:none;stroke:#4F89B9;stroke-width:0.6593;stroke-linecap:round;stroke-linejoin:round;stroke-miterlimit:10;}
</style>
<g id="Слой_1">
	<polygon class="st0" points="412.3,179.3 413.8,188.2 412.3,186.2 410.8,188.2 	"/>
	<polygon class="st0" points="412.3,457.7 410.8,448.7 412.3,450.8 413.8,448.7 	"/>
	<line class="st1" x1="383.4" y1="431.7" x2="383.4" y2="479.5"/>
	<line class="st1" x1="302.4" y1="486.3" x2="302.4" y2="534.1"/>
	<line class="st1" x1="304.3" y1="524" x2="378.7" y2="475.9"/>
	<polygon class="st0" points="383.3,472.8 376.7,479.1 377.5,476.7 375,476.6 	"/>
	<polygon class="st0" points="302.4,525.3 309.1,519.1 308.2,521.5 310.7,521.6 	"/>
	<line class="st1" x1="369.6" y1="181.2" x2="444" y2="133"/>
	<line class="st1" x1="145.3" y1="62.9" x2="219.6" y2="14.8"/>
	<polygon class="st0" points="422.9,146.4 414.3,143.2 416.8,142.9 415.8,140.6 	"/>
	<polygon class="st0" points="204.6,24.9 213.1,28.1 210.6,28.4 211.6,30.7 	"/>
</g>
<g id="Слой_2">
	<line class="st1" x1="365.8" y1="198.3" x2="366.2" y2="197"/>
	<line class="st1" x1="366.2" y1="197" x2="366.6" y2="195.6"/>
	<line class="st1" x1="366.6" y1="195.6" x2="367.1" y2="193.2"/>
	<line class="st1" x1="367.1" y1="193.2" x2="367.8" y2="191"/>
	<line class="st1" x1="367.8" y1="191" x2="368.3" y2="188.6"/>
	<line class="st1" x1="368.3" y1="188.6" x2="368.8" y2="186.2"/>
	<line class="st1" x1="368.8" y1="186.2" x2="368.9" y2="184"/>
	<line class="st1" x1="368.9" y1="184" x2="369" y2="181.6"/>
	<line class="st1" x1="366.2" y1="169.1" x2="365.6" y2="168"/>
	<line class="st1" x1="365.6" y1="168" x2="364.9" y2="166.9"/>
	<line class="st1" x1="364.9" y1="166.9" x2="363.7" y2="164.9"/>
	<line class="st1" x1="363.7" y1="164.9" x2="362.1" y2="163.1"/>
	<line class="st1" x1="362.1" y1="163.1" x2="360.5" y2="161.7"/>
	<line class="st1" x1="360.5" y1="161.7" x2="358.8" y2="160.4"/>
	<line class="st1" x1="358.8" y1="160.4" x2="357" y2="159.4"/>
	<line class="st1" x1="357" y1="159.4" x2="355.2" y2="158.3"/>
	<line class="st1" x1="355.2" y1="158.3" x2="353.4" y2="157.3"/>
	<line class="st1" x1="353.4" y1="157.3" x2="351.6" y2="156.3"/>
	<line class="st1" x1="351.6" y1="156.3" x2="337.3" y2="148"/>
	<line class="st1" x1="337.3" y1="148" x2="323" y2="139.7"/>
	<line class="st1" x1="323" y1="139.7" x2="294.3" y2="123.2"/>
	<line class="st1" x1="294.3" y1="123.2" x2="265.6" y2="106.6"/>
	<line class="st1" x1="265.6" y1="106.6" x2="237" y2="90.1"/>
	<line class="st1" x1="237" y1="90.1" x2="208.3" y2="73.5"/>
	<line class="st1" x1="208.3" y1="73.5" x2="194" y2="65.3"/>
	<line class="st1" x1="194" y1="65.3" x2="179.6" y2="57"/>
	<line class="st1" x1="179.6" y1="57" x2="177.8" y2="56.1"/>
	<line class="st1" x1="177.8" y1="56.1" x2="176" y2="55.4"/>
	<line class="st1" x1="176" y1="55.4" x2="174.1" y2="55.1"/>
	<line class="st1" x1="174.1" y1="55.1" x2="172.2" y2="55.1"/>
	<line class="st1" x1="172.2" y1="55.1" x2="172" y2="55.1"/>
	<line class="st1" x1="172" y1="55.1" x2="171.8" y2="55.1"/>
	<line class="st1" x1="381.7" y1="439.3" x2="381.9" y2="439"/>
	<line class="st1" x1="381.9" y1="439" x2="382.6" y2="437.5"/>
	<line class="st1" x1="382.6" y1="437.5" x2="382.9" y2="435.9"/>
	<line class="st1" x1="382.9" y1="435.9" x2="383.2" y2="434.2"/>
	<line class="st1" x1="383.2" y1="434.2" x2="383.3" y2="432.3"/>
	<line class="st1" x1="383.3" y1="432.3" x2="383.3" y2="430.4"/>
	<line class="st1" x1="383.3" y1="430.4" x2="383.3" y2="428.5"/>
	<line class="st1" x1="383.3" y1="428.5" x2="383.3" y2="426.6"/>
	<line class="st1" x1="383.3" y1="426.6" x2="383.3" y2="422.8"/>
	<line class="st1" x1="383.3" y1="422.8" x2="383.3" y2="419"/>
	<line class="st1" x1="383.3" y1="419" x2="383.3" y2="411.4"/>
	<line class="st1" x1="383.3" y1="411.4" x2="383.3" y2="403.8"/>
	<line class="st1" x1="383.3" y1="403.8" x2="383.3" y2="388.5"/>
	<line class="st1" x1="383.3" y1="388.5" x2="383.3" y2="373.4"/>
	<line class="st1" x1="383.3" y1="373.4" x2="383.3" y2="342.9"/>
	<line class="st1" x1="383.3" y1="342.9" x2="383.3" y2="312.6"/>
	<line class="st1" x1="383.3" y1="312.6" x2="383.3" y2="251.7"/>
	<line class="st1" x1="383.3" y1="251.7" x2="383.3" y2="190.9"/>
	<line class="st1" x1="383.3" y1="190.9" x2="383.3" y2="187"/>
	<line class="st1" x1="383.3" y1="187" x2="383.3" y2="183.2"/>
	<line class="st1" x1="383.3" y1="183.2" x2="383.3" y2="181.4"/>
	<line class="st1" x1="383.3" y1="181.4" x2="383.3" y2="179.4"/>
	<line class="st1" x1="383.3" y1="179.4" x2="383.1" y2="177.5"/>
	<line class="st1" x1="383.1" y1="177.5" x2="382.8" y2="175.4"/>
	<line class="st1" x1="382.8" y1="175.4" x2="382.3" y2="173.3"/>
	<line class="st1" x1="382.3" y1="173.3" x2="381.6" y2="171.2"/>
	<line class="st1" x1="381.6" y1="171.2" x2="380.8" y2="169.1"/>
	<line class="st1" x1="380.8" y1="169.1" x2="379.8" y2="167.1"/>
	<line class="st1" x1="379.8" y1="167.1" x2="378.6" y2="165.1"/>
	<line class="st1" x1="378.6" y1="165.1" x2="377.4" y2="163.1"/>
	<line class="st1" x1="377.4" y1="163.1" x2="376" y2="161.3"/>
	<line class="st1" x1="376" y1="161.3" x2="374.6" y2="159.7"/>
	<line class="st1" x1="374.6" y1="159.7" x2="373" y2="158.1"/>
	<line class="st1" x1="373" y1="158.1" x2="371.4" y2="156.8"/>
	<line class="st1" x1="371.4" y1="156.8" x2="369.8" y2="155.6"/>
	<line class="st1" x1="369.8" y1="155.6" x2="368.2" y2="154.6"/>
	<line class="st1" x1="368.2" y1="154.6" x2="364.9" y2="152.7"/>
	<line class="st1" x1="364.9" y1="152.7" x2="361.7" y2="150.8"/>
	<line class="st1" x1="361.7" y1="150.8" x2="355.1" y2="147.1"/>
	<line class="st1" x1="355.1" y1="147.1" x2="348.7" y2="143.3"/>
	<line class="st1" x1="348.7" y1="143.3" x2="322.6" y2="128.2"/>
	<line class="st1" x1="322.6" y1="128.2" x2="296.6" y2="113.3"/>
	<line class="st1" x1="296.6" y1="113.3" x2="244.4" y2="83.2"/>
	<line class="st1" x1="244.4" y1="83.2" x2="192.4" y2="53.1"/>
	<line class="st1" x1="192.4" y1="53.1" x2="190.7" y2="52.1"/>
	<line class="st1" x1="190.7" y1="52.1" x2="189.1" y2="51.2"/>
	<line class="st1" x1="189.1" y1="51.2" x2="187.4" y2="50.4"/>
	<line class="st1" x1="187.4" y1="50.4" x2="185.9" y2="49.9"/>
	<line class="st1" x1="185.9" y1="49.9" x2="184.4" y2="49.5"/>
	<line class="st1" x1="184.4" y1="49.5" x2="182.8" y2="49.4"/>
	<line class="st1" x1="182.8" y1="49.4" x2="182.8" y2="49.4"/>
	<line class="st1" x1="316.3" y1="482.9" x2="379.3" y2="441.9"/>
	<line class="st1" x1="179.5" y1="50.3" x2="170.8" y2="54.7"/>
	<line class="st1" x1="379.3" y1="441.9" x2="379.3" y2="441.9"/>
	<line class="st1" x1="379.3" y1="441.9" x2="379.3" y2="441.9"/>
	<line class="st1" x1="379.3" y1="441.8" x2="379.3" y2="441.8"/>
	<line class="st1" x1="379.4" y1="441.8" x2="379.4" y2="441.8"/>
	<line class="st1" x1="379.8" y1="441.5" x2="380.1" y2="441.3"/>
	<line class="st1" x1="380.1" y1="441.3" x2="380.5" y2="440.9"/>
	<line class="st1" x1="380.5" y1="440.9" x2="381" y2="440.3"/>
	<line class="st1" x1="381" y1="440.3" x2="381.6" y2="439.8"/>
	<line class="st1" x1="381.6" y1="439.8" x2="381.9" y2="439.1"/>
	<line class="st1" x1="381.9" y1="439.1" x2="382.4" y2="438.4"/>
	<line class="st1" x1="382.4" y1="438.4" x2="382.7" y2="437.7"/>
	<line class="st1" x1="382.7" y1="437.7" x2="382.9" y2="437.1"/>
	<line class="st1" x1="382.9" y1="437.1" x2="383.2" y2="436.3"/>
	<line class="st1" x1="383.2" y1="436.3" x2="383.4" y2="435.5"/>
	<line class="st1" x1="383.4" y1="435.5" x2="383.5" y2="434.6"/>
	<line class="st1" x1="383.5" y1="434.6" x2="383.7" y2="433.7"/>
	<line class="st1" x1="383.7" y1="433.7" x2="383.8" y2="432.6"/>
	<line class="st1" x1="383.8" y1="432.6" x2="383.8" y2="431.5"/>
	<line class="st1" x1="383.8" y1="431.5" x2="383.8" y2="430.3"/>
	<line class="st1" x1="383.8" y1="430.3" x2="383.8" y2="429.1"/>
	<line class="st1" x1="383.8" y1="429.1" x2="383.8" y2="427.1"/>
	<line class="st1" x1="383.8" y1="427.1" x2="383.8" y2="425.2"/>
	<line class="st1" x1="383.8" y1="425.2" x2="383.8" y2="316.4"/>
	<line class="st1" x1="383.8" y1="316.4" x2="383.8" y2="207.6"/>
	<line class="st1" x1="383.8" y1="207.6" x2="383.8" y2="197.4"/>
	<line class="st1" x1="383.8" y1="197.4" x2="383.8" y2="187.1"/>
	<line class="st1" x1="383.8" y1="187.1" x2="383.8" y2="184.7"/>
	<line class="st1" x1="383.8" y1="184.7" x2="383.8" y2="182.2"/>
	<line class="st1" x1="383.8" y1="182.2" x2="383.8" y2="181"/>
	<line class="st1" x1="383.8" y1="181" x2="383.8" y2="179.8"/>
	<line class="st1" x1="383.8" y1="179.8" x2="383.8" y2="178.7"/>
	<line class="st1" x1="383.8" y1="178.7" x2="383.7" y2="177.6"/>
	<line class="st1" x1="383.7" y1="177.6" x2="383.6" y2="176.5"/>
	<line class="st1" x1="383.6" y1="176.5" x2="383.4" y2="175.5"/>
	<line class="st1" x1="383.4" y1="175.5" x2="383.2" y2="174.5"/>
	<line class="st1" x1="383.2" y1="174.5" x2="382.9" y2="173.4"/>
	<line class="st1" x1="382.9" y1="173.4" x2="382.7" y2="172.4"/>
	<line class="st1" x1="382.7" y1="172.4" x2="382.4" y2="171.4"/>
	<line class="st1" x1="382.4" y1="171.4" x2="382" y2="170.4"/>
	<line class="st1" x1="382" y1="170.4" x2="381.6" y2="169.4"/>
	<line class="st1" x1="381.6" y1="169.4" x2="381.1" y2="168.3"/>
	<line class="st1" x1="381.1" y1="168.3" x2="380.6" y2="167.2"/>
	<line class="st1" x1="380.6" y1="167.2" x2="380" y2="166.1"/>
	<line class="st1" x1="380" y1="166.1" x2="379.5" y2="165.1"/>
	<line class="st1" x1="379.5" y1="165.1" x2="378.8" y2="164.1"/>
	<line class="st1" x1="378.8" y1="164.1" x2="378.1" y2="163.1"/>
	<line class="st1" x1="378.1" y1="163.1" x2="377.5" y2="162.1"/>
	<line class="st1" x1="377.5" y1="162.1" x2="376.8" y2="161.1"/>
	<line class="st1" x1="376.8" y1="161.1" x2="376" y2="160.2"/>
	<line class="st1" x1="376" y1="160.2" x2="375.2" y2="159.4"/>
	<line class="st1" x1="375.2" y1="159.4" x2="374.4" y2="158.6"/>
	<line class="st1" x1="374.4" y1="158.6" x2="373.6" y2="157.9"/>
	<line class="st1" x1="373.6" y1="157.9" x2="372.8" y2="157.1"/>
	<line class="st1" x1="372.8" y1="157.1" x2="371.9" y2="156.4"/>
	<line class="st1" x1="371.9" y1="156.4" x2="371" y2="155.8"/>
	<line class="st1" x1="371" y1="155.8" x2="370.2" y2="155.1"/>
	<line class="st1" x1="370.2" y1="155.1" x2="369.4" y2="154.7"/>
	<line class="st1" x1="369.4" y1="154.7" x2="368.6" y2="154.1"/>
	<line class="st1" x1="368.6" y1="154.1" x2="367.3" y2="153.4"/>
	<line class="st1" x1="367.3" y1="153.4" x2="366" y2="152.8"/>
	<line class="st1" x1="366" y1="152.8" x2="364.4" y2="151.8"/>
	<line class="st1" x1="364.4" y1="151.8" x2="362.8" y2="150.9"/>
	<line class="st1" x1="362.8" y1="150.9" x2="360.1" y2="149.3"/>
	<line class="st1" x1="360.1" y1="149.3" x2="357.5" y2="147.8"/>
	<line class="st1" x1="357.5" y1="147.8" x2="293" y2="110.5"/>
	<line class="st1" x1="293" y1="110.5" x2="228.5" y2="73.4"/>
	<line class="st1" x1="228.5" y1="73.4" x2="216.4" y2="66.4"/>
	<line class="st1" x1="216.4" y1="66.4" x2="204.3" y2="59.4"/>
	<line class="st1" x1="204.3" y1="59.4" x2="198.6" y2="56.2"/>
	<line class="st1" x1="198.6" y1="56.2" x2="193" y2="52.9"/>
	<line class="st1" x1="193" y1="52.9" x2="191.5" y2="52.1"/>
	<line class="st1" x1="191.5" y1="52.1" x2="190.2" y2="51.3"/>
	<line class="st1" x1="190.2" y1="51.3" x2="189.2" y2="50.8"/>
	<line class="st1" x1="189.2" y1="50.8" x2="188.3" y2="50.4"/>
	<line class="st1" x1="188.3" y1="50.4" x2="187.4" y2="50.1"/>
	<line class="st1" x1="187.4" y1="50.1" x2="186.5" y2="49.8"/>
	<line class="st1" x1="186.5" y1="49.8" x2="185.7" y2="49.5"/>
	<line class="st1" x1="185.7" y1="49.5" x2="185" y2="49.4"/>
	<line class="st1" x1="185" y1="49.4" x2="184.3" y2="49.4"/>
	<line class="st1" x1="184.3" y1="49.4" x2="183.5" y2="49.4"/>
	<line class="st1" x1="183.5" y1="49.4" x2="182.7" y2="49.4"/>
	<line class="st1" x1="182.7" y1="49.4" x2="182" y2="49.4"/>
	<line class="st1" x1="182" y1="49.4" x2="181.3" y2="49.6"/>
	<line class="st1" x1="181.3" y1="49.6" x2="180.5" y2="49.9"/>
	<line class="st1" x1="180.5" y1="49.9" x2="180.5" y2="49.9"/>
	<line class="st1" x1="180.5" y1="49.9" x2="180.5" y2="49.9"/>
	<line class="st1" x1="171.8" y1="55.1" x2="172.4" y2="55.1"/>
	<line class="st1" x1="172.4" y1="55.1" x2="172.9" y2="55.1"/>
	<line class="st1" x1="172.9" y1="55.1" x2="174.8" y2="55.2"/>
	<line class="st1" x1="174.8" y1="55.2" x2="176.7" y2="55.6"/>
	<line class="st1" x1="176.7" y1="55.6" x2="178.5" y2="56.4"/>
	<line class="st1" x1="178.5" y1="56.4" x2="180.4" y2="57.4"/>
	<line class="st1" x1="180.4" y1="57.4" x2="183.9" y2="59.4"/>
	<line class="st1" x1="183.9" y1="59.4" x2="187.5" y2="61.5"/>
	<line class="st1" x1="187.5" y1="61.5" x2="194.7" y2="65.7"/>
	<line class="st1" x1="194.7" y1="65.7" x2="201.9" y2="69.8"/>
	<line class="st1" x1="201.9" y1="69.8" x2="230.6" y2="86.4"/>
	<line class="st1" x1="230.6" y1="86.4" x2="259.3" y2="103"/>
	<line class="st1" x1="259.3" y1="103" x2="288.1" y2="119.6"/>
	<line class="st1" x1="288.1" y1="119.6" x2="316.8" y2="136.2"/>
	<line class="st1" x1="316.8" y1="136.2" x2="331.1" y2="144.4"/>
	<line class="st1" x1="331.1" y1="144.4" x2="345.5" y2="152.8"/>
	<line class="st1" x1="345.5" y1="152.8" x2="349.1" y2="154.8"/>
	<line class="st1" x1="349.1" y1="154.8" x2="352.7" y2="156.9"/>
	<line class="st1" x1="352.7" y1="156.9" x2="354.5" y2="158"/>
	<line class="st1" x1="354.5" y1="158" x2="356.3" y2="159"/>
	<line class="st1" x1="356.3" y1="159" x2="358" y2="160"/>
	<line class="st1" x1="358" y1="160" x2="359.9" y2="161.1"/>
	<line class="st1" x1="359.9" y1="161.1" x2="361.5" y2="162.5"/>
	<line class="st1" x1="361.5" y1="162.5" x2="363" y2="164.1"/>
	<line class="st1" x1="363" y1="164.1" x2="364.5" y2="166.1"/>
	<line class="st1" x1="364.5" y1="166.1" x2="365.7" y2="168.1"/>
	<line class="st1" x1="365.7" y1="168.1" x2="365.9" y2="168.7"/>
	<line class="st1" x1="365.9" y1="168.7" x2="366.2" y2="169.2"/>
	<line class="st1" x1="369" y1="182.7" x2="368.8" y2="185.2"/>
	<line class="st1" x1="368.8" y1="185.2" x2="368.5" y2="187.7"/>
	<line class="st1" x1="368.5" y1="187.7" x2="367.9" y2="190"/>
	<line class="st1" x1="367.9" y1="190" x2="367.4" y2="192.4"/>
	<line class="st1" x1="367.4" y1="192.4" x2="366.8" y2="194.8"/>
	<line class="st1" x1="366.8" y1="194.8" x2="366.2" y2="197.1"/>
	<line class="st1" x1="366.2" y1="197.1" x2="366" y2="197.7"/>
	<line class="st1" x1="366" y1="197.7" x2="365.9" y2="198.2"/>
	<line class="st1" x1="315.7" y1="487.2" x2="315.3" y2="489.5"/>
	<line class="st1" x1="315.3" y1="489.5" x2="314.9" y2="491.8"/>
	<line class="st1" x1="314.9" y1="491.8" x2="314.6" y2="492.9"/>
	<line class="st1" x1="314.6" y1="492.9" x2="314.2" y2="494"/>
	<line class="st1" x1="314.2" y1="494" x2="314" y2="495"/>
	<line class="st1" x1="314" y1="495" x2="313.6" y2="496"/>
	<line class="st1" x1="313.6" y1="496" x2="313.1" y2="496.9"/>
	<line class="st1" x1="313.1" y1="496.9" x2="312.7" y2="497.8"/>
	<line class="st1" x1="312.7" y1="497.8" x2="312" y2="498.6"/>
	<line class="st1" x1="312" y1="498.6" x2="311.4" y2="499.2"/>
	<line class="st1" x1="311.4" y1="499.2" x2="311.1" y2="499.5"/>
	<line class="st1" x1="311.1" y1="499.5" x2="310.8" y2="499.7"/>
	<line class="st1" x1="369" y1="182.1" x2="359.2" y2="232.7"/>
	<line class="st1" x1="359.2" y1="232.7" x2="349.7" y2="283.5"/>
	<line class="st1" x1="349.7" y1="283.5" x2="340.6" y2="334.3"/>
	<line class="st1" x1="340.6" y1="334.3" x2="331.9" y2="385.2"/>
	<line class="st1" x1="331.9" y1="385.2" x2="323.6" y2="436.2"/>
	<line class="st1" x1="323.6" y1="436.2" x2="315.7" y2="487.2"/>
	<line class="st1" x1="359.3" y1="163.3" x2="361.5" y2="164.7"/>
	<line class="st1" x1="361.5" y1="164.7" x2="363.5" y2="166.3"/>
	<line class="st1" x1="363.5" y1="166.3" x2="365.4" y2="168.2"/>
	<line class="st1" x1="365.4" y1="168.2" x2="366.3" y2="169.3"/>
	<line class="st1" x1="366.3" y1="169.3" x2="367.1" y2="170.4"/>
	<line class="st1" x1="367.1" y1="170.4" x2="367.8" y2="171.7"/>
	<line class="st1" x1="367.8" y1="171.7" x2="368.4" y2="173.1"/>
	<line class="st1" x1="368.4" y1="173.1" x2="368.9" y2="174.5"/>
	<line class="st1" x1="368.9" y1="174.5" x2="369.2" y2="176.1"/>
	<line class="st1" x1="369.2" y1="176.1" x2="369.4" y2="177.5"/>
	<line class="st1" x1="369.4" y1="177.5" x2="369.4" y2="179.1"/>
	<line class="st1" x1="369.4" y1="179.1" x2="369.3" y2="180.6"/>
	<line class="st1" x1="369.3" y1="180.6" x2="369" y2="182.1"/>
	<line class="st1" x1="172.6" y1="55.4" x2="210.3" y2="76.4"/>
	<line class="st1" x1="210.3" y1="76.4" x2="247.9" y2="97.5"/>
	<line class="st1" x1="247.9" y1="97.5" x2="285.2" y2="119.2"/>
	<line class="st1" x1="285.2" y1="119.2" x2="322.4" y2="141.1"/>
	<line class="st1" x1="322.4" y1="141.1" x2="359.3" y2="163.3"/>
	<line class="st1" x1="160.3" y1="54.1" x2="161" y2="53.6"/>
	<line class="st1" x1="161" y1="53.6" x2="161.8" y2="53.3"/>
	<line class="st1" x1="161.8" y1="53.3" x2="162.6" y2="53.1"/>
	<line class="st1" x1="162.6" y1="53.1" x2="163.5" y2="52.9"/>
	<line class="st1" x1="163.5" y1="52.9" x2="164.6" y2="52.9"/>
	<line class="st1" x1="164.6" y1="52.9" x2="165.8" y2="53"/>
	<line class="st1" x1="165.8" y1="53" x2="167" y2="53.2"/>
	<line class="st1" x1="167" y1="53.2" x2="168.1" y2="53.5"/>
	<line class="st1" x1="168.1" y1="53.5" x2="170.4" y2="54.4"/>
	<line class="st1" x1="170.4" y1="54.4" x2="172.6" y2="55.4"/>
	<line class="st1" x1="171.5" y1="56.2" x2="172.2" y2="55.7"/>
	<line class="st1" x1="358.3" y1="164" x2="358.9" y2="163.5"/>
	<line class="st1" x1="368.6" y1="182.3" x2="367.8" y2="182.7"/>
	<line class="st1" x1="367.5" y1="182.9" x2="357.6" y2="233.6"/>
	<line class="st1" x1="357.6" y1="233.6" x2="348.1" y2="284.3"/>
	<line class="st1" x1="348.1" y1="284.3" x2="339" y2="335.2"/>
	<line class="st1" x1="339" y1="335.2" x2="330.3" y2="386.1"/>
	<line class="st1" x1="330.3" y1="386.1" x2="322" y2="437"/>
	<line class="st1" x1="322" y1="437" x2="314.1" y2="488.1"/>
	<line class="st1" x1="314.1" y1="488.1" x2="313.7" y2="490.3"/>
	<line class="st1" x1="313.7" y1="490.3" x2="313.2" y2="492.6"/>
	<line class="st1" x1="313.2" y1="492.6" x2="312.9" y2="494.2"/>
	<line class="st1" x1="312.9" y1="494.2" x2="312.3" y2="495.8"/>
	<line class="st1" x1="312.3" y1="495.8" x2="311.8" y2="497.2"/>
	<line class="st1" x1="311.8" y1="497.2" x2="311" y2="498.6"/>
	<line class="st1" x1="311" y1="498.6" x2="310.7" y2="499.1"/>
	<line class="st1" x1="310.7" y1="499.1" x2="310.1" y2="499.7"/>
	<line class="st1" x1="310.1" y1="499.7" x2="309.7" y2="500.1"/>
	<line class="st1" x1="309.7" y1="500.1" x2="309" y2="500.5"/>
	<line class="st1" x1="309" y1="500.5" x2="308.7" y2="500.7"/>
	<line class="st1" x1="308.7" y1="500.7" x2="308.3" y2="500.8"/>
	<line class="st1" x1="96.8" y1="292.7" x2="99.7" y2="273.6"/>
	<line class="st1" x1="99.7" y1="273.6" x2="102.9" y2="254.4"/>
	<line class="st1" x1="102.9" y1="254.4" x2="106.5" y2="235.3"/>
	<line class="st1" x1="106.5" y1="235.3" x2="110.4" y2="216.2"/>
	<line class="st1" x1="110.4" y1="216.2" x2="114.5" y2="197.2"/>
	<line class="st1" x1="114.5" y1="197.2" x2="119" y2="178.4"/>
	<line class="st1" x1="119" y1="178.4" x2="123.8" y2="159.5"/>
	<line class="st1" x1="154.6" y1="61.4" x2="155.1" y2="60.3"/>
	<line class="st1" x1="155.1" y1="60.3" x2="155.6" y2="59"/>
	<line class="st1" x1="155.6" y1="59" x2="156.3" y2="57.7"/>
	<line class="st1" x1="156.3" y1="57.7" x2="156.9" y2="56.8"/>
	<line class="st1" x1="156.9" y1="56.8" x2="157.6" y2="56"/>
	<line class="st1" x1="157.6" y1="56" x2="158.5" y2="55.3"/>
	<line class="st1" x1="158.5" y1="55.3" x2="159.3" y2="54.7"/>
	<line class="st1" x1="159.3" y1="54.7" x2="160.2" y2="54.3"/>
	<line class="st1" x1="160.2" y1="54.3" x2="161.2" y2="54"/>
	<line class="st1" x1="161.2" y1="54" x2="162.2" y2="53.9"/>
	<line class="st1" x1="162.2" y1="53.9" x2="163.2" y2="53.9"/>
	<line class="st1" x1="163.2" y1="53.9" x2="164.2" y2="53.9"/>
	<line class="st1" x1="164.2" y1="53.9" x2="165.2" y2="54.1"/>
	<line class="st1" x1="165.2" y1="54.1" x2="166.2" y2="54.4"/>
	<line class="st1" x1="166.2" y1="54.4" x2="167.2" y2="54.7"/>
	<line class="st1" x1="167.2" y1="54.7" x2="169.2" y2="55.4"/>
	<line class="st1" x1="169.2" y1="55.4" x2="171.1" y2="56.4"/>
	<line class="st1" x1="357.9" y1="164.2" x2="359.9" y2="165.7"/>
	<line class="st1" x1="359.9" y1="165.7" x2="361.9" y2="167.2"/>
	<line class="st1" x1="361.9" y1="167.2" x2="363.4" y2="168.7"/>
	<line class="st1" x1="363.4" y1="168.7" x2="364.8" y2="170.2"/>
	<line class="st1" x1="364.8" y1="170.2" x2="365.3" y2="171.1"/>
	<line class="st1" x1="365.3" y1="171.1" x2="365.9" y2="172"/>
	<line class="st1" x1="365.9" y1="172" x2="366.4" y2="173"/>
	<line class="st1" x1="366.4" y1="173" x2="366.8" y2="174"/>
	<line class="st1" x1="366.8" y1="174" x2="367.2" y2="175.1"/>
	<line class="st1" x1="367.2" y1="175.1" x2="367.5" y2="176.1"/>
	<line class="st1" x1="367.5" y1="176.1" x2="367.7" y2="177.2"/>
	<line class="st1" x1="367.7" y1="177.2" x2="367.8" y2="178.4"/>
	<line class="st1" x1="367.8" y1="178.4" x2="367.8" y2="179.5"/>
	<line class="st1" x1="367.8" y1="179.5" x2="367.8" y2="180.7"/>
	<line class="st1" x1="367.8" y1="180.7" x2="367.7" y2="181.8"/>
	<line class="st1" x1="367.7" y1="181.8" x2="367.5" y2="182.9"/>
	<line class="st1" x1="357.9" y1="164.2" x2="356.9" y2="165"/>
	<line class="st1" x1="356.9" y1="165" x2="356" y2="165.9"/>
	<line class="st1" x1="356" y1="165.9" x2="355.1" y2="167"/>
	<line class="st1" x1="355.1" y1="167" x2="354.2" y2="168.2"/>
	<line class="st1" x1="354.2" y1="168.2" x2="353.3" y2="169.8"/>
	<line class="st1" x1="353.3" y1="169.8" x2="352.4" y2="171.5"/>
	<line class="st1" x1="352.4" y1="171.5" x2="351.5" y2="173.5"/>
	<line class="st1" x1="351.5" y1="173.5" x2="350.6" y2="175.6"/>
	<line class="st1" x1="350.6" y1="175.6" x2="349.8" y2="178"/>
	<line class="st1" x1="349.8" y1="178" x2="348.9" y2="180.6"/>
	<line class="st1" x1="348.9" y1="180.6" x2="347.9" y2="183.4"/>
	<line class="st1" x1="347.9" y1="183.4" x2="347.1" y2="186.4"/>
	<line class="st1" x1="347.1" y1="186.4" x2="345.3" y2="193"/>
	<line class="st1" x1="345.3" y1="193" x2="343.6" y2="200.5"/>
	<line class="st1" x1="95.8" y1="354.8" x2="300" y2="472.7"/>
	<line class="st1" x1="92.1" y1="377.7" x2="91.8" y2="377.4"/>
	<line class="st1" x1="91.8" y1="377.4" x2="91.5" y2="376.8"/>
	<line class="st1" x1="91.5" y1="376.8" x2="91.3" y2="376.2"/>
	<line class="st1" x1="91.3" y1="376.2" x2="91.1" y2="375.4"/>
	<line class="st1" x1="91.1" y1="375.4" x2="90.9" y2="374.4"/>
	<line class="st1" x1="90.9" y1="374.4" x2="90.8" y2="373.2"/>
	<line class="st1" x1="90.8" y1="373.2" x2="90.8" y2="371.9"/>
	<line class="st1" x1="90.8" y1="371.9" x2="90.8" y2="370.5"/>
	<line class="st1" x1="90.8" y1="370.5" x2="91" y2="367"/>
	<line class="st1" x1="91" y1="367" x2="91.4" y2="363"/>
	<line class="st1" x1="91.4" y1="363" x2="92" y2="358.4"/>
	<line class="st1" x1="92" y1="358.4" x2="92.8" y2="353.1"/>
	<line class="st1" x1="92.8" y1="353.1" x2="96.1" y2="333.4"/>
	<line class="st1" x1="96.1" y1="333.4" x2="99.6" y2="313.7"/>
	<line class="st1" x1="99.6" y1="313.7" x2="103.5" y2="293.8"/>
	<line class="st1" x1="103.5" y1="293.8" x2="107.5" y2="273.9"/>
	<line class="st1" x1="107.5" y1="273.9" x2="111.7" y2="253.8"/>
	<line class="st1" x1="111.7" y1="253.8" x2="116.3" y2="233.8"/>
	<line class="st1" x1="116.3" y1="233.8" x2="121" y2="213.6"/>
	<line class="st1" x1="121" y1="213.6" x2="126" y2="193.4"/>
	<line class="st1" x1="126" y1="193.4" x2="131.2" y2="173.1"/>
	<line class="st1" x1="131.2" y1="173.1" x2="136.7" y2="152.7"/>
	<line class="st1" x1="136.7" y1="152.7" x2="142.4" y2="132.3"/>
	<line class="st1" x1="142.4" y1="132.3" x2="148.4" y2="111.8"/>
	<line class="st1" x1="148.4" y1="111.8" x2="154.5" y2="91.3"/>
	<line class="st1" x1="305.1" y1="500.6" x2="304.7" y2="500.4"/>
	<line class="st1" x1="304.7" y1="500.4" x2="304.2" y2="500.1"/>
	<line class="st1" x1="304.2" y1="500.1" x2="303.9" y2="499.4"/>
	<line class="st1" x1="303.9" y1="499.4" x2="303.5" y2="498.7"/>
	<line class="st1" x1="303.5" y1="498.7" x2="303.2" y2="497.7"/>
	<line class="st1" x1="303.2" y1="497.7" x2="303" y2="496.5"/>
	<line class="st1" x1="303" y1="496.5" x2="302.8" y2="495.1"/>
	<line class="st1" x1="302.8" y1="495.1" x2="302.6" y2="493.6"/>
	<line class="st1" x1="302.6" y1="493.6" x2="302.4" y2="490"/>
	<line class="st1" x1="302.4" y1="490" x2="302.4" y2="485.5"/>
	<line class="st1" x1="302.4" y1="485.5" x2="302.6" y2="480.3"/>
	<line class="st1" x1="302.6" y1="480.3" x2="303" y2="474.4"/>
	<line class="st1" x1="303" y1="474.4" x2="304.6" y2="453.8"/>
	<line class="st1" x1="304.6" y1="453.8" x2="306.5" y2="433.1"/>
	<line class="st1" x1="306.5" y1="433.1" x2="308.7" y2="412.4"/>
	<line class="st1" x1="308.7" y1="412.4" x2="311" y2="391.4"/>
	<line class="st1" x1="311" y1="391.4" x2="313.7" y2="370.5"/>
	<line class="st1" x1="313.7" y1="370.5" x2="316.6" y2="349.5"/>
	<line class="st1" x1="316.6" y1="349.5" x2="319.7" y2="328.4"/>
	<line class="st1" x1="319.7" y1="328.4" x2="323" y2="307.2"/>
	<line class="st1" x1="323" y1="307.2" x2="326.7" y2="285.9"/>
	<line class="st1" x1="326.7" y1="285.9" x2="330.6" y2="264.7"/>
	<line class="st1" x1="330.6" y1="264.7" x2="334.7" y2="243.3"/>
	<line class="st1" x1="334.7" y1="243.3" x2="339" y2="221.9"/>
	<line class="st1" x1="339" y1="221.9" x2="343.6" y2="200.5"/>
	<line class="st1" x1="171.1" y1="56.4" x2="170.2" y2="57.1"/>
	<line class="st1" x1="170.2" y1="57.1" x2="169.2" y2="58"/>
	<line class="st1" x1="169.2" y1="58" x2="168.3" y2="59.1"/>
	<line class="st1" x1="168.3" y1="59.1" x2="167.3" y2="60.4"/>
	<line class="st1" x1="167.3" y1="60.4" x2="166.3" y2="61.8"/>
	<line class="st1" x1="166.3" y1="61.8" x2="165.3" y2="63.5"/>
	<line class="st1" x1="165.3" y1="63.5" x2="164.3" y2="65.4"/>
	<line class="st1" x1="164.3" y1="65.4" x2="163.3" y2="67.4"/>
	<line class="st1" x1="163.3" y1="67.4" x2="162.3" y2="69.7"/>
	<line class="st1" x1="162.3" y1="69.7" x2="161.2" y2="72.3"/>
	<line class="st1" x1="161.2" y1="72.3" x2="160.1" y2="74.9"/>
	<line class="st1" x1="160.1" y1="74.9" x2="159" y2="77.8"/>
	<line class="st1" x1="159" y1="77.8" x2="156.8" y2="84.2"/>
	<line class="st1" x1="156.8" y1="84.2" x2="154.5" y2="91.3"/>
	<line class="st1" x1="304.3" y1="319.5" x2="141.6" y2="225.6"/>
	<line class="st1" x1="141.6" y1="225.6" x2="170.6" y2="101.5"/>
	<line class="st1" x1="140.4" y1="226.3" x2="141.6" y2="225.6"/>
	<line class="st1" x1="336.9" y1="196.7" x2="336.9" y2="196.7"/>
	<line class="st1" x1="140.4" y1="226.3" x2="169.5" y2="100.9"/>
	<line class="st1" x1="161.2" y1="95.2" x2="161.2" y2="95.2"/>
	<line class="st1" x1="333.2" y1="195.4" x2="169.5" y2="100.9"/>
	<line class="st1" x1="140.4" y1="226.3" x2="304" y2="320.8"/>
	<line class="st1" x1="304" y1="320.8" x2="333.2" y2="195.4"/>
	<line class="st1" x1="161.2" y1="95.1" x2="161.4" y2="94.6"/>
	<line class="st1" x1="161.4" y1="94.6" x2="161.5" y2="94.2"/>
	<line class="st1" x1="161.5" y1="94.2" x2="161.7" y2="93.8"/>
	<line class="st1" x1="161.7" y1="93.8" x2="162" y2="93.3"/>
	<line class="st1" x1="162" y1="93.3" x2="162.3" y2="93.1"/>
	<line class="st1" x1="162.3" y1="93.1" x2="162.5" y2="92.8"/>
	<line class="st1" x1="162.5" y1="92.8" x2="162.9" y2="92.5"/>
	<line class="st1" x1="162.9" y1="92.5" x2="163.2" y2="92.3"/>
	<line class="st1" x1="163.2" y1="92.3" x2="163.9" y2="92.1"/>
	<line class="st1" x1="163.9" y1="92.1" x2="164.7" y2="92"/>
	<line class="st1" x1="164.7" y1="92" x2="165.1" y2="92.1"/>
	<line class="st1" x1="165.1" y1="92.1" x2="165.5" y2="92.2"/>
	<line class="st1" x1="165.5" y1="92.2" x2="165.9" y2="92.3"/>
	<line class="st1" x1="165.9" y1="92.3" x2="166.3" y2="92.4"/>
	<line class="st1" x1="131.3" y1="226.5" x2="136.5" y2="200"/>
	<line class="st1" x1="136.5" y1="200" x2="142.2" y2="173.7"/>
	<line class="st1" x1="142.2" y1="173.7" x2="148.2" y2="147.4"/>
	<line class="st1" x1="148.2" y1="147.4" x2="154.5" y2="121.2"/>
	<line class="st1" x1="154.5" y1="121.2" x2="161.2" y2="95.2"/>
	<line class="st1" x1="133.7" y1="232.5" x2="303" y2="330.2"/>
	<line class="st1" x1="133.7" y1="232.5" x2="132.7" y2="231.6"/>
	<line class="st1" x1="132.7" y1="231.6" x2="131.9" y2="230.4"/>
	<line class="st1" x1="131.9" y1="230.4" x2="131.4" y2="229.2"/>
	<line class="st1" x1="131.4" y1="229.2" x2="131.2" y2="227.9"/>
	<line class="st1" x1="131.2" y1="227.9" x2="131.3" y2="226.5"/>
	<line class="st1" x1="307" y1="327.9" x2="312.3" y2="301.6"/>
	<line class="st1" x1="312.3" y1="301.6" x2="318" y2="275.2"/>
	<line class="st1" x1="318" y1="275.2" x2="324" y2="248.9"/>
	<line class="st1" x1="324" y1="248.9" x2="330.3" y2="222.8"/>
	<line class="st1" x1="330.3" y1="222.8" x2="336.9" y2="196.7"/>
	<line class="st1" x1="307" y1="327.9" x2="307" y2="328.4"/>
	<line class="st1" x1="307" y1="328.4" x2="306.9" y2="328.7"/>
	<line class="st1" x1="306.9" y1="328.7" x2="306.7" y2="329.1"/>
	<line class="st1" x1="306.7" y1="329.1" x2="306.5" y2="329.4"/>
	<line class="st1" x1="306.5" y1="329.4" x2="306.3" y2="329.6"/>
	<line class="st1" x1="306.3" y1="329.6" x2="306" y2="329.9"/>
	<line class="st1" x1="306" y1="329.9" x2="305.8" y2="330.1"/>
	<line class="st1" x1="305.8" y1="330.1" x2="305.5" y2="330.3"/>
	<line class="st1" x1="305.5" y1="330.3" x2="305" y2="330.6"/>
	<line class="st1" x1="305" y1="330.6" x2="304.3" y2="330.6"/>
	<line class="st1" x1="304.3" y1="330.6" x2="304" y2="330.6"/>
	<line class="st1" x1="304" y1="330.6" x2="303.6" y2="330.5"/>
	<line class="st1" x1="303.6" y1="330.5" x2="303.3" y2="330.3"/>
	<line class="st1" x1="303.3" y1="330.3" x2="303" y2="330.2"/>
	<line class="st1" x1="334.5" y1="189.6" x2="166.3" y2="92.4"/>
	<line class="st1" x1="334.5" y1="189.6" x2="335.7" y2="190.7"/>
	<line class="st1" x1="335.7" y1="190.7" x2="336.5" y2="192"/>
	<line class="st1" x1="336.5" y1="192" x2="337" y2="193.4"/>
	<line class="st1" x1="337" y1="193.4" x2="337.2" y2="195"/>
	<line class="st1" x1="337.2" y1="195" x2="336.9" y2="196.6"/>
	<line class="st1" x1="314.6" y1="487.8" x2="315.3" y2="487.4"/>
	<line class="st1" x1="160.3" y1="54.1" x2="158.8" y2="55"/>
	<line class="st1" x1="309.2" y1="500.4" x2="310.8" y2="499.7"/>
	<line class="st1" x1="305.1" y1="500.6" x2="306.8" y2="500.8"/>
	<line class="st1" x1="306.8" y1="500.8" x2="308.3" y2="500.8"/>
	<line class="st1" x1="92.1" y1="377.7" x2="112.5" y2="391.5"/>
	<line class="st1" x1="112.5" y1="391.5" x2="133" y2="405"/>
	<line class="st1" x1="133" y1="405" x2="153.8" y2="418.2"/>
	<line class="st1" x1="153.8" y1="418.2" x2="174.8" y2="431"/>
	<line class="st1" x1="174.8" y1="431" x2="196" y2="443.4"/>
	<line class="st1" x1="196" y1="443.4" x2="217.3" y2="455.5"/>
	<line class="st1" x1="217.3" y1="455.5" x2="239" y2="467.3"/>
	<line class="st1" x1="239" y1="467.3" x2="260.7" y2="478.7"/>
	<line class="st1" x1="260.7" y1="478.7" x2="282.7" y2="489.8"/>
	<line class="st1" x1="282.7" y1="489.8" x2="304.8" y2="500.5"/>
	<line class="st1" x1="154.9" y1="60.6" x2="147.7" y2="81.1"/>
	<line class="st1" x1="147.7" y1="81.1" x2="140.8" y2="101.7"/>
	<line class="st1" x1="140.8" y1="101.7" x2="134.4" y2="122.4"/>
	<line class="st1" x1="134.4" y1="122.4" x2="128.4" y2="143.3"/>
	<line class="st1" x1="128.4" y1="143.3" x2="122.7" y2="164.3"/>
	<line class="st1" x1="96.8" y1="292.1" x2="96.5" y2="294.9"/>
	<line class="st1" x1="96.5" y1="294.9" x2="96.1" y2="297.6"/>
	<line class="st1" x1="96.1" y1="297.6" x2="95.7" y2="300.1"/>
	<line class="st1" x1="95.7" y1="300.1" x2="95.4" y2="302.7"/>
	<line class="st1" x1="95.4" y1="302.7" x2="95.1" y2="304.9"/>
	<line class="st1" x1="95.1" y1="304.9" x2="94.7" y2="307.1"/>
	<line class="st1" x1="94.7" y1="307.1" x2="94.5" y2="309.1"/>
	<line class="st1" x1="94.5" y1="309.1" x2="94.2" y2="311.2"/>
	<line class="st1" x1="94.2" y1="311.2" x2="94" y2="313.1"/>
	<line class="st1" x1="94" y1="313.1" x2="93.7" y2="315"/>
	<line class="st1" x1="93.7" y1="315" x2="93.5" y2="316.7"/>
	<line class="st1" x1="93.5" y1="316.7" x2="93.3" y2="318.5"/>
	<line class="st1" x1="93.3" y1="318.5" x2="93.1" y2="320"/>
	<line class="st1" x1="93.1" y1="320" x2="92.8" y2="321.6"/>
	<line class="st1" x1="92.8" y1="321.6" x2="92.6" y2="323.5"/>
	<line class="st1" x1="92.6" y1="323.5" x2="92.4" y2="325.4"/>
	<line class="st1" x1="92.4" y1="325.4" x2="92.1" y2="327.4"/>
	<line class="st1" x1="92.1" y1="327.4" x2="91.8" y2="329.3"/>
	<line class="st1" x1="91.8" y1="329.3" x2="91.7" y2="331.2"/>
	<line class="st1" x1="91.7" y1="331.2" x2="91.4" y2="333.1"/>
	<line class="st1" x1="91.4" y1="333.1" x2="91.2" y2="334.8"/>
	<line class="st1" x1="91.2" y1="334.8" x2="90.9" y2="336.5"/>
	<line class="st1" x1="90.9" y1="336.5" x2="90.7" y2="337.7"/>
	<line class="st1" x1="90.7" y1="337.7" x2="90.7" y2="339"/>
	<line class="st1" x1="90.7" y1="339" x2="90.4" y2="340.6"/>
	<line class="st1" x1="90.4" y1="340.6" x2="90.2" y2="342.3"/>
	<line class="st1" x1="90.2" y1="342.3" x2="90" y2="344.2"/>
	<line class="st1" x1="90" y1="344.2" x2="89.7" y2="346.1"/>
	<line class="st1" x1="89.7" y1="346.1" x2="89.6" y2="347.7"/>
	<line class="st1" x1="89.6" y1="347.7" x2="89.4" y2="349.4"/>
	<line class="st1" x1="89.4" y1="349.4" x2="89.3" y2="350.8"/>
	<line class="st1" x1="89.3" y1="350.8" x2="89.1" y2="352.2"/>
	<line class="st1" x1="89.1" y1="352.2" x2="89" y2="353.8"/>
	<line class="st1" x1="89" y1="353.8" x2="88.8" y2="355.4"/>
	<line class="st1" x1="88.8" y1="355.4" x2="88.7" y2="356.8"/>
	<line class="st1" x1="88.7" y1="356.8" x2="88.7" y2="358.2"/>
	<line class="st1" x1="88.7" y1="358.2" x2="88.7" y2="359.5"/>
	<line class="st1" x1="88.7" y1="359.5" x2="88.6" y2="360.9"/>
	<line class="st1" x1="88.6" y1="360.9" x2="88.6" y2="362.1"/>
	<line class="st1" x1="88.6" y1="362.1" x2="88.6" y2="363.3"/>
	<line class="st1" x1="88.6" y1="363.3" x2="88.6" y2="364.4"/>
	<line class="st1" x1="88.6" y1="364.4" x2="88.7" y2="365.5"/>
	<line class="st1" x1="88.7" y1="365.5" x2="88.7" y2="366.7"/>
	<line class="st1" x1="88.7" y1="366.7" x2="88.7" y2="368"/>
	<line class="st1" x1="88.7" y1="368" x2="88.9" y2="369.5"/>
	<line class="st1" x1="88.9" y1="369.5" x2="89.2" y2="370.9"/>
	<line class="st1" x1="89.2" y1="370.9" x2="89.4" y2="371.6"/>
	<line class="st1" x1="89.4" y1="371.6" x2="89.6" y2="372.5"/>
	<line class="st1" x1="89.6" y1="372.5" x2="89.8" y2="373.4"/>
	<line class="st1" x1="89.8" y1="373.4" x2="90.1" y2="374.2"/>
	<line class="st1" x1="90.1" y1="374.2" x2="90.5" y2="375"/>
	<line class="st1" x1="90.5" y1="375" x2="90.8" y2="375.8"/>
	<line class="st1" x1="90.8" y1="375.8" x2="91.3" y2="376.5"/>
	<line class="st1" x1="91.3" y1="376.5" x2="91.7" y2="377.4"/>
	<path class="st1" d="M284.9,451.8l-63.3-36.2c-6.9-3.9-10.5-11.8-8.9-19.6l15.1-75.5c1-4.9,6.4-7.4,10.7-4.9l57.3,32.2
		c5.7,3.2,8.9,9.4,8.2,15.9l-9,83C294.4,451.6,289.1,454.3,284.9,451.8z"/>
	<path class="st1" d="M288.6,436.9l-24.5-13.5c-1-0.6-3.7-1.1-5.5-0.1l-8,3.7c-1.7,0.4-3.4,0.1-4.9-0.7l-15.8-8.5
		c-2-1.1-3.6-2.9-4.5-5l-4.2-11.5c-0.4-1-1-6.4-1.1-8.3c0-2.5,0.1-4.8,0.4-6.7c0-0.5,0.2-1,0.2-1.5c0-0.5,0.1-1,0.2-1.5l8.7-47.8
		c1.1-6,7.7-9.1,13-6.2l51,28.4c5.3,3,8.3,8.8,7.7,14.8l-6.7,61.4C294.3,436.7,291.1,438.3,288.6,436.9z"/>
	<path class="st1" d="M297.7,382.1l-34.5,35.4c-0.7,0.7-1.8,1.6-3.2,2.4c-1.6,0.9-3.1,1.3-4.2,1.5c-4.4-1.9-9.4-4.4-14.6-7.6
		c-4.2-2.6-7.9-5.3-11.1-7.8c-0.3-2.9-0.5-5.7-0.8-8.6l33.6-34.2c1.3,0.2,2.8,0.4,4.5,0.5c1.5,0.1,2.9,0,4.1-0.1
		c3.6,2.6,7.8,5.4,12.4,8c5,2.9,9.8,5.3,14.2,7.2C298,379.9,297.8,381,297.7,382.1z"/>
	<polygon class="st1" points="290.3,384.1 269.7,371.7 238.1,403.2 258.7,415.5 	"/>
	<g>
		<polygon class="st1" points="190.7,419.9 191.6,413 194.8,414.8 194.5,416.5 192.8,415.5 192.7,416.5 194.3,417.3 194.1,418.9 
			192.5,418 192.4,419.1 194.1,420 193.9,421.7 		"/>
		<polygon class="st1" points="188.7,414.7 188.6,414.7 188.5,414.6 188.1,414.4 188.3,412.8 188.7,413.1 188.8,413.2 189,413.3 
			189.1,413.4 189.2,413.6 189.3,413.7 189.3,413.9 189.3,414 189.3,414.1 189.3,414.2 189.3,414.3 189.3,414.4 189.2,414.5 
			189.2,414.6 189.1,414.7 189,414.7 188.9,414.8 		"/>
		<polygon class="st1" points="189.2,411.7 189,411.6 187,410.5 186.1,417.3 187.6,418.1 187.9,415.9 188.5,416.2 188.6,416.3 
			189.2,416.6 189.6,416.6 190,416.6 190.3,416.4 190.5,416.1 190.7,415.8 190.8,415.4 190.8,415.1 190.9,414.7 190.9,414.3 
			190.8,413.9 190.6,413.4 190.4,412.9 190.1,412.5 189.7,412.1 		"/>
		<polygon class="st1" points="203.4,426.6 203.2,426.7 203,426.7 202.8,426.7 202.6,426.6 202.4,426.6 202.2,426.5 202,426.4 
			201.9,426.3 201.3,426 200.8,425.5 200.4,424.9 200.1,424.3 199.8,423.6 199.6,422.8 199.6,422 199.6,421.2 199.8,420.4 
			200,419.7 200.4,419.3 200.8,418.9 201.2,418.8 201.7,418.7 202.2,418.8 202.8,419.1 202.9,419.2 203.1,419.3 203.3,419.4 
			203.5,419.6 203.6,419.8 203.8,420 204,420.2 204.1,420.4 203.9,422.4 203.8,422.2 203.7,422 203.6,421.8 203.5,421.6 
			203.3,421.4 203.2,421.2 203,421 202.7,420.9 202.4,420.8 202.1,420.7 201.9,420.8 201.7,420.9 201.5,421.1 201.3,421.4 
			201.2,421.7 201.1,422.1 201.1,422.5 201.1,423 201.2,423.4 201.4,423.7 201.5,424 201.7,424.3 202,424.5 202.3,424.7 
			202.5,424.8 202.6,424.9 202.8,424.9 203,424.9 203.2,424.9 203.3,424.8 203.5,424.7 203.6,424.7 		"/>
		<polygon class="st1" points="207.1,426.5 207.1,426.6 207.1,426.8 207,427 206.9,427.2 206.8,427.3 206.6,427.5 206.4,427.5 
			206.1,427.4 205.9,427.2 205.7,426.9 205.6,426.7 205.5,426.4 205.5,426.1 205.5,425.9 205.5,425.7 205.5,425.6 205.5,425.3 
			205.6,425.1 205.7,424.9 205.8,424.8 205.9,424.7 206.1,424.6 206.3,424.7 206.5,424.7 206.6,424.9 206.8,425 206.9,425.2 
			207,425.5 207.1,425.7 207.1,426 207.1,426.2 		"/>
		<polygon class="st1" points="208.5,427.3 208.5,426.8 208.5,426.2 208.4,425.7 208.2,425.2 207.9,424.7 207.6,424.3 207.1,423.9 
			206.6,423.5 206.1,423.3 205.6,423.2 205.2,423.2 204.9,423.3 204.6,423.6 204.4,423.9 204.2,424.3 204.1,424.8 204.1,425.4 
			204.1,425.9 204.2,426.4 204.4,427 204.7,427.4 205.1,427.9 205.5,428.3 206,428.6 206.5,428.8 207,428.9 207.4,428.9 
			207.7,428.8 208,428.5 208.2,428.2 208.4,427.8 		"/>
		<polygon class="st1" points="197.3,419.5 197.2,419.5 197.1,419.4 196.6,419.2 196.8,417.6 197.3,417.8 197.4,417.9 197.6,418.1 
			197.7,418.2 197.8,418.4 197.9,418.5 197.9,418.6 197.9,418.8 197.9,418.9 197.9,419 197.9,419.1 197.9,419.2 197.8,419.3 
			197.8,419.4 197.7,419.5 197.6,419.5 197.5,419.6 		"/>
		<polygon class="st1" points="198.1,421.4 198.4,421.4 198.7,421.3 198.9,421.1 199.1,420.9 199.2,420.7 199.3,420.4 199.4,420.2 
			199.4,419.9 199.5,419.5 199.4,419.1 199.4,418.7 199.2,418.2 199,417.8 198.8,417.4 198.4,417 197.9,416.6 197.7,416.5 
			195.5,415.3 194.7,422.1 196.2,422.9 196.5,420.7 196.5,420.7 196.9,422.1 197.3,423.6 199.1,424.6 		"/>
	</g>
	<path class="st1" d="M161.8,326.4c0,0,4,0.8,5,1.8c2.8,2.8,7.4,15.1,7.4,15.1"/>
	<path class="st1" d="M157.3,335.9c3.9,3.6,6.1,2.8,6.1,2.8"/>
	<path class="st1" d="M158.3,336.7c0.5,5.2,6.4,5.2,6.4,5.2"/>
	<path class="st1" d="M160,340.5c0.8,3.7,5.9,4.1,5.9,4.1"/>
	<path class="st1" d="M151.9,329.6c-3.4,5.4,2.2,4.4,2.2,4.4"/>
	<path class="st1" d="M160.2,333.9l-3.7,2.2c-0.5,0.3-1.3,0-1.7-0.8l-9.1-17.1c-0.4-0.7-0.3-1.6,0.2-1.9l6.8-4.1
		c0.5-0.3,1.3,0,1.7,0.8l9.1,17.1c0.1,0.3,0.2,0.6,0.2,0.8"/>
	<path class="st1" d="M167.6,346.8c-2.6-3.1-5-10.4-5-10.4s-7.9-8.5-6.9-11.8c0.3-0.9,1.6-1.1,2.9,1c1,1.6,3.6,4.7,6,6.2
		c2.8,1.8,4,4.9,4,4.5"/>
	<path class="st1" d="M219.9,389.6l37.5-36c2.5-0.2,5.9-0.2,9.8,0.5c4.4,0.8,7.9,2.2,10.3,3.4c7.8,4.2,15.6,8.3,23.4,12.5"/>
	<line class="st1" x1="370.2" y1="155.1" x2="436.3" y2="192.4"/>
	<line class="st1" x1="381.6" y1="439.8" x2="436.3" y2="471.3"/>
	<line class="st1" x1="412.3" y1="183.2" x2="412.3" y2="452"/>
	<line class="st1" x1="208" y1="26.8" x2="419.4" y2="144.5"/>
	<g>
		<path class="st0" d="M304.8,75.8l-0.9-0.5l3.3-5.8c-0.3,0.1-0.8,0.1-1.2,0.1c-0.5,0-0.9,0-1.2-0.1l0.5-0.9c0.7,0.1,1.3,0,1.8-0.1
			c0.6-0.1,1-0.3,1.4-0.5l0.6,0.3L304.8,75.8z"/>
		<path class="st0" d="M308.3,75.2l1,0.5c-0.2,0.5-0.2,1-0.1,1.3c0.1,0.4,0.4,0.7,0.7,0.9c0.4,0.3,0.9,0.3,1.4,0.1s0.9-0.5,1.2-1.1
			c0.3-0.5,0.4-1,0.3-1.5c-0.1-0.5-0.4-0.8-0.9-1.1c-0.3-0.2-0.6-0.3-0.9-0.3c-0.3,0-0.6,0.1-0.9,0.2l-0.8-0.6l2.9-3.4l3.7,2.1
			l-0.5,0.9l-3-1.7l-1.5,1.8c0.6-0.1,1.2,0.1,1.7,0.3c0.7,0.4,1.1,0.9,1.3,1.6s0.1,1.4-0.3,2.1c-0.4,0.7-0.9,1.1-1.6,1.4
			c-0.8,0.3-1.6,0.3-2.5-0.2c-0.7-0.4-1.1-0.9-1.3-1.5C307.9,76.5,308,75.8,308.3,75.2z"/>
		<path class="st0" d="M315.1,76.8c0.5-0.9,1-1.5,1.5-2c0.5-0.4,1-0.7,1.5-0.8c0.5-0.1,1.1,0,1.6,0.3c0.4,0.2,0.7,0.5,0.9,0.8
			c0.2,0.3,0.3,0.7,0.3,1.1c0,0.4,0,0.9-0.2,1.4c-0.1,0.5-0.4,1.1-0.8,1.9c-0.5,0.9-1,1.5-1.5,2c-0.5,0.4-1,0.7-1.5,0.8
			c-0.5,0.1-1.1,0-1.6-0.3c-0.7-0.4-1.1-1-1.3-1.7C313.9,79.3,314.3,78.2,315.1,76.8z M316,77.3c-0.7,1.2-1,2.1-1,2.7
			c0.1,0.6,0.3,1,0.7,1.2c0.4,0.2,0.9,0.2,1.4,0c0.5-0.2,1.1-1,1.8-2.2c0.7-1.2,1-2.1,1-2.7c-0.1-0.6-0.3-1-0.7-1.2
			c-0.4-0.2-0.9-0.3-1.3,0C317.3,75.3,316.7,76.1,316,77.3z"/>
	</g>
	<g>
		<path class="st0" d="M347.8,512.1l0.9-0.7c0.4,0.4,0.7,0.6,1.1,0.7c0.4,0.1,0.8,0,1.1-0.3c0.4-0.3,0.7-0.7,0.8-1.2
			c0.1-0.5,0-1-0.4-1.6c-0.3-0.5-0.7-0.8-1.2-0.9c-0.5-0.1-0.9,0-1.4,0.3c-0.3,0.2-0.5,0.4-0.6,0.7s-0.2,0.6-0.2,0.9l-0.9,0.4
			l-1.7-4.1l3.6-2.3l0.6,0.8l-2.9,1.9l0.9,2.2c0.2-0.6,0.6-1,1.1-1.3c0.6-0.4,1.3-0.5,2-0.4c0.7,0.2,1.3,0.6,1.7,1.3
			c0.4,0.7,0.6,1.3,0.5,2.1c-0.1,0.9-0.5,1.6-1.3,2.1c-0.7,0.4-1.3,0.6-2,0.5C348.8,513,348.2,512.7,347.8,512.1z"/>
		<path class="st0" d="M355.6,501.9l-0.8,0.6c-0.3-0.3-0.6-0.5-0.8-0.5c-0.4-0.1-0.8,0-1.1,0.2c-0.3,0.2-0.5,0.4-0.6,0.7
			c-0.1,0.4-0.2,0.8-0.1,1.3c0.1,0.5,0.4,1.1,0.8,1.8c0-0.5,0.1-0.9,0.3-1.2c0.2-0.4,0.5-0.6,0.8-0.9c0.6-0.4,1.2-0.5,1.9-0.3
			s1.3,0.6,1.7,1.3c0.3,0.5,0.5,0.9,0.5,1.4c0.1,0.5,0,1-0.2,1.4c-0.2,0.4-0.5,0.8-1,1.1c-0.7,0.5-1.5,0.6-2.3,0.4
			c-0.8-0.2-1.6-1-2.4-2.2c-0.9-1.4-1.3-2.6-1.2-3.5c0.1-0.8,0.5-1.5,1.3-2c0.6-0.4,1.1-0.5,1.7-0.4S355.2,501.4,355.6,501.9z
			 M354,507.4c0.2,0.3,0.5,0.6,0.8,0.7c0.3,0.2,0.6,0.3,1,0.3c0.3,0,0.6-0.1,0.9-0.3c0.4-0.2,0.6-0.6,0.7-1.1c0.1-0.5-0.1-1-0.4-1.5
			c-0.3-0.5-0.7-0.8-1.2-0.9c-0.5-0.1-0.9,0-1.3,0.2c-0.4,0.3-0.6,0.6-0.7,1.1S353.7,506.9,354,507.4z"/>
	</g>
	<g>
		<g>
			<path class="st0" d="M429.3,324.5v1.1h-6.7c0.2,0.3,0.5,0.6,0.7,1s0.4,0.8,0.5,1.1h-1c-0.3-0.6-0.6-1.1-1-1.5s-0.8-0.8-1.1-0.9
				v-0.7H429.3z"/>
			<path class="st0" d="M421.9,321.7h-1v-5.6h0.8c0.6,0.5,1.4,1.1,2.3,1.6s2,1,3,1.2c0.7,0.2,1.5,0.3,2.4,0.4v1.1
				c-0.7,0-1.5-0.1-2.4-0.4s-1.9-0.6-2.8-1.1s-1.6-1-2.2-1.5V321.7z"/>
			<path class="st0" d="M425.1,315.1c-1,0-1.8-0.1-2.5-0.3s-1.1-0.5-1.4-0.9s-0.5-0.9-0.5-1.6c0-0.5,0.1-0.9,0.3-1.2
				s0.5-0.6,0.8-0.9s0.8-0.4,1.3-0.5s1.2-0.2,2-0.2c1,0,1.8,0.1,2.4,0.3s1.1,0.5,1.4,0.9s0.5,0.9,0.5,1.6c0,0.8-0.3,1.5-0.9,2
				C427.9,314.8,426.7,315.1,425.1,315.1z M425.1,314c1.4,0,2.3-0.2,2.8-0.5s0.7-0.7,0.7-1.2s-0.2-0.9-0.7-1.2s-1.4-0.5-2.8-0.5
				c-1.4,0-2.4,0.2-2.8,0.5s-0.7,0.7-0.7,1.2c0,0.5,0.2,0.9,0.6,1.2C422.7,313.9,423.7,314,425.1,314z"/>
		</g>
	</g>
</g>
</svg>
