<?xml version="1.0" encoding="utf-8"?>
<!-- Generator: Adobe Illustrator 23.0.3, SVG Export Plug-In . SVG Version: 6.00 Build 0)  -->
<svg version="1.1" id="Слой_1" xmlns="http://www.w3.org/2000/svg" xmlns:xlink="http://www.w3.org/1999/xlink" x="0px" y="0px"
	 viewBox="0 0 500 600" style="enable-background:new 0 0 500 600;" xml:space="preserve">
<style type="text/css">
	.st0{fill:none;stroke:#4C86B9;stroke-miterlimit:22.9256;}
	.st1{fill:none;stroke:#4C86B9;stroke-width:0.25;stroke-miterlimit:22.9256;}
	.st2{fill:#4C86B9;}
</style>
<line class="st0" x1="98.7" y1="120.4" x2="98.7" y2="464.8"/>
<line class="st0" x1="110.5" y1="118.7" x2="468.2" y2="142.2"/>
<line class="st0" x1="473.3" y1="155.3" x2="473.3" y2="412"/>
<line class="st0" x1="98.7" y1="464.8" x2="118.2" y2="469.5"/>
<line class="st0" x1="459.4" y1="435.5" x2="118.2" y2="469.5"/>
<line class="st0" x1="98.7" y1="120.4" x2="110.5" y2="118.7"/>
<line class="st0" x1="142.4" y1="153.6" x2="470.9" y2="159.7"/>
<line class="st0" x1="143" y1="449.3" x2="468.6" y2="409.6"/>
<line class="st0" x1="263" y1="246.7" x2="263" y2="340.8"/>
<line class="st0" x1="370.9" y1="247.6" x2="370.9" y2="337.7"/>
<line class="st0" x1="268.9" y1="345.2" x2="366" y2="340.8"/>
<line class="st0" x1="267.2" y1="241.9" x2="364.3" y2="242.8"/>
<path class="st0" d="M110.5,118.7c7.3,17.5,20.5,34.9,31.9,34.9"/>
<path class="st0" d="M118.2,469.5c8.2-10.1,18.2-20.2,24.8-20.2"/>
<path class="st0" d="M468.6,409.6c11-1.8,0.5,14.3-9.2,25.9"/>
<path class="st0" d="M470.9,159.7c4.1-1.6,2.6-8.8-2.7-17.6"/>
<line class="st0" x1="143" y1="153.6" x2="143" y2="449.3"/>
<line class="st0" x1="142.4" y1="198" x2="210.5" y2="201"/>
<line class="st0" x1="143.4" y1="394.4" x2="207.4" y2="391.8"/>
<line class="st0" x1="228.1" y1="226.1" x2="228.1" y2="360.1"/>
<line class="st0" x1="403.4" y1="227.4" x2="403.4" y2="359.2"/>
<line class="st0" x1="473.3" y1="373.2" x2="416.1" y2="376.8"/>
<line class="st0" x1="473.3" y1="208.5" x2="419.2" y2="206.8"/>
<line class="st0" x1="143.7" y1="264.3" x2="173.1" y2="264.8"/>
<line class="st0" x1="143.7" y1="328.9" x2="172.7" y2="329.4"/>
<line class="st0" x1="175.4" y1="238.8" x2="173.1" y2="264.8"/>
<line class="st0" x1="174.3" y1="353.5" x2="172.7" y2="329.4"/>
<line class="st0" x1="175.4" y1="238.8" x2="205.6" y2="294.6"/>
<line class="st0" x1="174.3" y1="353.5" x2="205.6" y2="298.2"/>
<line class="st0" x1="446.2" y1="263.4" x2="473.3" y2="263.4"/>
<line class="st0" x1="473.3" y1="319.7" x2="446.2" y2="319.2"/>
<line class="st0" x1="446.2" y1="319.2" x2="446.2" y2="341.4"/>
<line class="st0" x1="421" y1="291.9" x2="446.2" y2="242.3"/>
<line class="st0" x1="446.2" y1="341.4" x2="421" y2="291.9"/>
<path class="st0" d="M228.1,226.1c0-13.8-7.6-25-17.6-25"/>
<path class="st0" d="M228.1,360.1c0,17.5-10.4,31.7-22.8,31.7"/>
<path class="st0" d="M403.4,227.4c0-11.4,7.6-20.7,15.8-20.7"/>
<path class="st0" d="M403.4,359.2c0,9.7,5.2,17.6,12.7,17.6"/>
<line class="st0" x1="446.2" y1="263.4" x2="446.2" y2="242.3"/>
<path class="st0" d="M370.9,247.6c0-2.7-2.9-4.8-6.6-4.8"/>
<path class="st0" d="M370.9,337.7c0,1.7-2.2,3.1-4.8,3.1"/>
<path class="st0" d="M263,340.8c0,2.4,2.7,4.4,5.9,4.4"/>
<path class="st0" d="M263,246.7c0-2.7,1.9-4.8,4.2-4.8"/>
<path class="st0" d="M205.6,294.6c0.8,1.8,0.2,3.2,0,3.6"/>
<line class="st1" x1="98.7" y1="537.9" x2="98.7" y2="463.7"/>
<line class="st1" x1="459.7" y1="491" x2="459.7" y2="435.5"/>
<line class="st1" x1="459.7" y1="480.3" x2="98.7" y2="525.4"/>
<line class="st1" x1="98.7" y1="120.4" x2="44.9" y2="120.4"/>
<line class="st1" x1="98.7" y1="464.8" x2="46.3" y2="464.8"/>
<line class="st1" x1="56.2" y1="120.4" x2="56.2" y2="464.8"/>
<line class="st1" x1="143" y1="153.6" x2="143" y2="68.9"/>
<line class="st1" x1="98.7" y1="121" x2="98.7" y2="77.6"/>
<line class="st1" x1="98.9" y1="86.9" x2="142.9" y2="82.3"/>
<g id="XMLID_1_">
	<g>
		<path class="st2" d="M58.7,446.9l-2.5,17.9l-2.5-17.9C53.6,446.9,56.2,449.3,58.7,446.9z"/>
	</g>
</g>
<g id="XMLID_2_">
	<g>
		<path class="st2" d="M58.7,138.3l-2.5-17.9l-2.5,17.9C53.6,138.3,56.1,135.9,58.7,138.3z"/>
	</g>
</g>
<g id="XMLID_3_">
	<g>
		<path class="st2" d="M124.9,81.6l18,0.6l-17.5,4.4C125.4,86.6,127.5,83.9,124.9,81.6z"/>
	</g>
</g>
<g id="XMLID_4_">
	<g>
		<path class="st2" d="M116.9,87.5l-18-0.6l17.5-4.4C116.4,82.5,114.3,85.3,116.9,87.5z"/>
	</g>
</g>
<g id="XMLID_5_">
	<g>
		<path class="st2" d="M116.8,525.4l-18,0l17.3-5C116.1,520.5,114.1,523.3,116.8,525.4z"/>
	</g>
</g>
<g id="XMLID_6_">
	<g>
		<path class="st2" d="M441.7,480.3l18.1,0l-17.4,5C442.4,485.3,444.4,482.5,441.7,480.3z"/>
	</g>
</g>
<g>
	<path class="st2" d="M280.5,486.5l0.5-1.3l2.6-0.3l1.5,12l-1.3,0.2l-1.3-10.7L280.5,486.5z"/>
	<path class="st2" d="M291.9,495.5l2.3-4.1l0,0c-0.3,0.1-0.6,0.2-1,0.3c-2.2,0.3-4.1-1.3-4.4-3.5c-0.3-2.3,1.4-4.3,3.6-4.6
		c2.3-0.3,4.4,1.3,4.6,3.6c0.1,1.1-0.2,2.1-0.8,3l-3.3,5.9L291.9,495.5z M290.1,488c0.2,1.6,1.6,2.6,3.1,2.4
		c1.5-0.2,2.6-1.6,2.5-3.1c-0.2-1.5-1.6-2.6-3.1-2.5C291,485,289.9,486.4,290.1,488z"/>
	<path class="st2" d="M307.3,488.1c0.4,3-0.8,6.4-3.5,6.7c-2.7,0.3-4.7-2.7-5-5.7c-0.3-2.5,0.5-6.4,3.5-6.7
		C305.3,482,307,485.6,307.3,488.1z M300.1,489c0.2,1.7,1.3,4.8,3.6,4.5c2.2-0.3,2.5-3.6,2.4-5.2c-0.2-1.7-1.3-5-3.6-4.7
		C300.2,483.9,299.8,487.3,300.1,489z"/>
</g>
<g>
	<path class="st2" d="M39.1,307.1l-1.2-0.7v-2.6h12.1v1.3H39.1V307.1z"/>
	<path class="st2" d="M46.7,290.7H48v1.5h2v1.3h-2v6.2l-10.8-7.5v0h9.5V290.7z M41.3,293.5L41.3,293.5l5.5,3.8v-3.8H41.3z"/>
	<path class="st2" d="M43.9,280.7c3,0,6.2,1.6,6.2,4.3c0,2.8-3.2,4.3-6.2,4.3c-2.5,0-6.3-1.3-6.3-4.3
		C37.7,282,41.4,280.7,43.9,280.7z M44,288c1.7,0,4.9-0.8,4.9-3c0-2.2-3.2-2.9-4.9-3c-1.7,0-5.1,0.7-5.1,3S42.3,288,44,288z"/>
</g>
<g>
	<path class="st2" d="M115.9,75.4l0.1,1.2l-7.8,0.8l4.9-7.2c0.4-0.6,0.7-1.3,0.6-2.1c-0.1-1.3-1.3-2.2-2.6-2.1
		c-1.4,0.2-2.3,1.3-2.2,2.7l-1.3,0.1c-0.2-2.1,1.2-3.9,3.3-4.1c2-0.2,3.9,1.1,4.1,3.2c0.1,1-0.1,1.8-0.6,2.6l-3.6,5.3L115.9,75.4z"
		/>
	<path class="st2" d="M121,69.2c1.3-0.2,2.3-0.7,2.2-2.2c-0.1-1.3-1.1-2-2.3-1.9c-1.2,0.1-1.8,1-1.8,2.1l-1.3,0.1c0-1.9,1-3.3,3-3.5
		c1.9-0.2,3.5,0.9,3.8,2.9c0.1,1.1-0.3,2.2-1.3,2.8c1.2,0.4,1.9,1.5,2,2.8c0.2,2.1-1.3,3.7-3.4,4c-1.9,0.2-3.7-0.9-3.9-3l1.3-0.1
		c0.2,1.2,1.3,2,2.5,1.8c1.3-0.1,2.2-1.3,2.1-2.7c-0.2-1.5-1.3-2.2-2.8-2L121,69.2z"/>
</g>
</svg>
