<?xml version="1.0" encoding="utf-8"?>
<!-- Generator: Adobe Illustrator 23.0.3, SVG Export Plug-In . SVG Version: 6.00 Build 0)  -->
<svg version="1.1" id="Слой_1" xmlns="http://www.w3.org/2000/svg" xmlns:xlink="http://www.w3.org/1999/xlink" x="0px" y="0px"
	 viewBox="0 0 500 600" style="enable-background:new 0 0 500 600;" xml:space="preserve">
<style type="text/css">
	.st0{fill:none;stroke:#4C86B9;stroke-miterlimit:10;}
	.st1{fill:none;stroke:#4C86B9;stroke-width:0.5;stroke-miterlimit:10;}
	.st2{fill:none;stroke:#4C86B9;stroke-linecap:round;stroke-miterlimit:10;}
	.st3{fill:none;stroke:#4C86B9;stroke-width:0.25;stroke-miterlimit:10;}
	.st4{fill:#4C86B9;}
</style>
<line class="st0" x1="237.6" y1="88.8" x2="385.8" y2="88.8"/>
<line class="st0" x1="237.6" y1="554.6" x2="237.6" y2="88.8"/>
<line class="st0" x1="258" y1="564.1" x2="237.6" y2="554.6"/>
<line class="st0" x1="380.1" y1="542.7" x2="258" y2="564.1"/>
<line class="st0" x1="398" y1="104.2" x2="398" y2="371.4"/>
<path class="st1" d="M398,104.2c0-3.2-0.7-5.1-1.6-6.6"/>
<line class="st0" x1="293.7" y1="123.7" x2="384.7" y2="117"/>
<path class="st0" d="M398,104.2c0,7.1-4.9,10.7-13.4,12.8"/>
<path class="st0" d="M251.9,94.6c5.3,29.1,22.7,31.2,41.8,29.1"/>
<line class="st0" x1="237.6" y1="88.8" x2="251.9" y2="94.6"/>
<line class="st0" x1="396.4" y1="97.6" x2="251.9" y2="94.6"/>
<line class="st0" x1="288.4" y1="550.6" x2="383.4" y2="527.9"/>
<path class="st0" d="M396.4,527.9c0-3.7-7.6-1.4-13.1,0"/>
<path class="st0" d="M258,564.1c3.3-2.4,16.1-10.5,30.5-13.5"/>
<line class="st1" x1="269.9" y1="122.2" x2="269.9" y2="556.4"/>
<line class="st1" x1="289.8" y1="123.9" x2="289.8" y2="398.8"/>
<line class="st1" x1="289.3" y1="165.2" x2="339.2" y2="157.3"/>
<line class="st1" x1="289.4" y1="206.8" x2="339.4" y2="198.8"/>
<path class="st1" d="M339.2,157.3c22.5-2.1,23,37.6,0.2,41.5"/>
<ellipse class="st0" cx="338.4" cy="176.9" rx="8.7" ry="10.6"/>
<line class="st1" x1="289.4" y1="238.2" x2="339.4" y2="230.2"/>
<line class="st1" x1="289.6" y1="279.7" x2="339.6" y2="271.8"/>
<path class="st1" d="M339.4,230.2c22.5-2.1,23,37.6,0.2,41.5"/>
<ellipse class="st0" cx="338.6" cy="249.8" rx="8.7" ry="10.6"/>
<line class="st1" x1="289.6" y1="311.1" x2="339.6" y2="303.2"/>
<line class="st1" x1="289.8" y1="352.6" x2="339.8" y2="344.7"/>
<path class="st1" d="M339.6,303.2c22.5-2.1,23,37.6,0.2,41.5"/>
<ellipse class="st0" cx="338.8" cy="322.7" rx="8.7" ry="10.6"/>
<line class="st1" x1="396.4" y1="375.8" x2="290.5" y2="398.8"/>
<path class="st2" d="M398,371.4c0,3-0.5,4.1-1.6,4.4"/>
<path class="st1" d="M288.4,402.9c0-3.1,0.3-3.7,2-4.1"/>
<line class="st1" x1="288.4" y1="402.9" x2="288.4" y2="550.6"/>
<line class="st0" x1="396.4" y1="375.8" x2="396.4" y2="527.9"/>
<path class="st0" d="M396.4,527.9c0,3.1-13.6,14-16.4,14.7"/>
<line class="st3" x1="237.6" y1="88.8" x2="106.9" y2="88.8"/>
<line class="st3" x1="237.6" y1="554.6" x2="106.9" y2="554.6"/>
<line class="st3" x1="237.6" y1="52.2" x2="237.6" y2="88.7"/>
<line class="st3" x1="385.8" y1="52.1" x2="385.8" y2="88.8"/>
<line class="st3" x1="339.6" y1="322.7" x2="210.4" y2="322.7"/>
<line class="st3" x1="238.1" y1="282.1" x2="131.6" y2="282.1"/>
<line class="st3" x1="116.1" y1="89.5" x2="116.1" y2="554.6"/>
<line class="st3" x1="385.8" y1="61" x2="237.6" y2="61"/>
<g id="XMLID_1_">
	<g>
		<path class="st4" d="M237.8,61l24.3-3.5c-4.1,3.5,0,7,0,7L237.8,61z"/>
	</g>
</g>
<g id="XMLID_2_">
	<g>
		<path class="st4" d="M385.6,61l-24.3-3.5c4.2,3.5,0,7,0,7L385.6,61z"/>
	</g>
</g>
<g id="XMLID_3_">
	<g>
		<path class="st4" d="M116.1,89.7l3.6,24.3c-3.6-4.2-7.1,0-7.1,0L116.1,89.7z"/>
	</g>
</g>
<g id="XMLID_4_">
	<g>
		<path class="st4" d="M116.1,554.4l-3.5-24.3c3.5,4.2,7,0,7,0L116.1,554.4z"/>
	</g>
</g>
<g>
	<path class="st4" d="M306.7,41.3l-0.8,2.6l0.7-0.1c2.4,0,4,1.9,4,4.2c0,2.5-2,4.3-4.4,4.3c-1.6,0-2.9-0.8-3.7-2.2l1.1-0.8
		c0.5,1,1.5,1.7,2.7,1.7c1.8,0,3-1.3,3-3.1c0-1.7-1.3-2.9-3-2.9c-0.8,0-1.6,0.3-2.3,0.8l1.7-5.8h4.8v1.2H306.7z"/>
	<path class="st4" d="M321.3,46.1c0,3-1.6,6.2-4.3,6.2c-2.8,0-4.3-3.2-4.3-6.2c0-2.5,1.3-6.3,4.3-6.3
		C320,39.9,321.3,43.6,321.3,46.1z M314,46.2c0,1.7,0.8,4.9,3,4.9c2.2,0,2.9-3.2,3-4.9c0-1.7-0.7-5.1-3-5.1
		C314.7,41.1,313.9,44.5,314,46.2z"/>
</g>
<g>
	<path class="st4" d="M95.1,331.8l-1.2-0.7v-2.6H106v1.3H95.1V331.8z"/>
	<path class="st4" d="M102.8,315.4h1.2v1.5h2v1.3h-2v6.2l-10.8-7.5v0h9.5V315.4z M97.3,318.2L97.3,318.2l5.5,3.8v-3.8H97.3z"/>
	<path class="st4" d="M95.1,310.1l2.6,0.8l-0.1-0.7c0-2.4,1.9-4,4.2-4c2.5,0,4.3,2,4.3,4.4c0,1.6-0.8,2.9-2.2,3.7l-0.8-1.1
		c1-0.5,1.7-1.5,1.7-2.7c0-1.8-1.3-3-3.1-3c-1.7,0-2.9,1.3-2.9,3c0,0.8,0.3,1.6,0.8,2.3l-5.8-1.7v-4.8h1.2V310.1z"/>
</g>
<line class="st0" x1="396.4" y1="97.6" x2="385.8" y2="88.8"/>
<line class="st3" x1="229.6" y1="322.7" x2="142.7" y2="282.1"/>
<g id="XMLID_5_">
	<g>
		<path class="st4" d="M142.9,282.1l23.4,7.5c-5.3,1.3-3.1,6.3-3.1,6.3L142.9,282.1z"/>
	</g>
</g>
<g id="XMLID_6_">
	<g>
		<path class="st4" d="M228.8,322.4l-23.4-7.5c5.3-1.3,3.1-6.4,3.1-6.4L228.8,322.4z"/>
	</g>
</g>
<g>
	<path class="st4" d="M162.8,321.1l-0.5,1.1l-7-3.4l8-3.5c0.7-0.3,1.3-0.8,1.6-1.5c0.6-1.2,0-2.6-1.1-3.2c-1.3-0.6-2.6-0.1-3.3,1.2
		l-1.2-0.6c1-1.9,3.1-2.7,5-1.7c1.8,0.9,2.8,3,1.8,4.9c-0.4,0.9-1.1,1.5-1.9,1.9l-5.9,2.6L162.8,321.1z"/>
	<path class="st4" d="M174.4,321.5c-1.3,2.7-4.1,4.9-6.6,3.7c-2.5-1.2-2.5-4.8-1.2-7.5c1.1-2.2,3.9-5.1,6.6-3.7
		C176,315.3,175.5,319.3,174.4,321.5z M167.8,318.4c-0.7,1.5-1.5,4.7,0.5,5.7s4.1-1.6,4.8-3.1c0.8-1.5,1.6-4.9-0.5-5.9
		C170.7,314.1,168.6,316.8,167.8,318.4z"/>
</g>
<ellipse class="st3" cx="339.4" cy="249.8" rx="5.7" ry="6.9"/>
<ellipse class="st3" cx="339.6" cy="322.7" rx="5.7" ry="6.9"/>
<ellipse class="st3" cx="339.2" cy="176.9" rx="5.7" ry="6.9"/>
<line class="st3" x1="396.4" y1="376.9" x2="288.5" y2="400.9"/>
</svg>
