<?xml version="1.0" encoding="utf-8"?>
<!-- Generator: Adobe Illustrator 23.0.3, SVG Export Plug-In . SVG Version: 6.00 Build 0)  -->
<svg version="1.1" id="Слой_1" xmlns="http://www.w3.org/2000/svg" xmlns:xlink="http://www.w3.org/1999/xlink" x="0px" y="0px"
	 viewBox="0 0 500 600" style="enable-background:new 0 0 500 600;" xml:space="preserve">
<style type="text/css">
	.st0{fill:#4C86B9;stroke:#4C86B9;stroke-miterlimit:10;}
	.st1{fill:none;stroke:#4C86B9;stroke-miterlimit:10;}
	.st2{fill:#4C86B9;stroke:#4C86B9;stroke-width:0.5;stroke-miterlimit:10;}
	.st3{fill:#4C86B9;stroke:#4C86B9;stroke-width:0.25;stroke-miterlimit:10;}
	.st4{fill:#4C86B9;}
	.st5{fill:none;stroke:#4C86B9;stroke-width:0.25;stroke-miterlimit:10;}
</style>
<line class="st0" x1="219.8" y1="97" x2="361.4" y2="97"/>
<line class="st0" x1="219.8" y1="546.9" x2="219.8" y2="97"/>
<line class="st0" x1="239.5" y1="556.1" x2="219.8" y2="546.9"/>
<line class="st0" x1="357.4" y1="535.4" x2="239.5" y2="556.1"/>
<path class="st0" d="M373.2,111.9c0-3.1-0.7-5-1.6-6.3"/>
<line class="st0" x1="274" y1="130.7" x2="360.3" y2="124.3"/>
<path class="st1" d="M373.2,111.9c0,6.8-4.7,10.3-12.9,12.4"/>
<path class="st1" d="M233.6,102.6c5.1,28.1,22,30.2,40.4,28.1"/>
<line class="st0" x1="219.8" y1="97" x2="233.6" y2="102.6"/>
<line class="st0" x1="371.6" y1="105.5" x2="233.6" y2="102.6"/>
<line class="st0" x1="268.9" y1="543.1" x2="360.6" y2="521.2"/>
<path class="st0" d="M373.2,521.2c0-3.5-7.4-1.4-12.6,0"/>
<path class="st0" d="M239.5,556.1c3.2-2.3,15.6-10.2,29.4-13.1"/>
<line class="st2" x1="251" y1="129.3" x2="251" y2="177.5"/>
<line class="st2" x1="268.9" y1="130.9" x2="268.9" y2="176"/>
<line class="st2" x1="268.9" y1="429.8" x2="268.9" y2="543.1"/>
<line class="st0" x1="373.2" y1="111.5" x2="373.2" y2="521.2"/>
<path class="st0" d="M373.2,521.2c0,3-13.1,13.5-15.8,14.2"/>
<line class="st3" x1="219.8" y1="97" x2="93.5" y2="97"/>
<line class="st3" x1="219.8" y1="546.9" x2="93.5" y2="546.9"/>
<line class="st3" x1="219.8" y1="61.7" x2="219.8" y2="96.9"/>
<line class="st3" x1="361.4" y1="61.6" x2="361.4" y2="97"/>
<line class="st3" x1="220.3" y1="283.8" x2="117.4" y2="283.8"/>
<line class="st3" x1="102.4" y1="97.6" x2="102.4" y2="546.9"/>
<line class="st3" x1="361.4" y1="70.1" x2="219.8" y2="70.1"/>
<g id="XMLID_1_">
	<g>
		<path class="st4" d="M220,70.1l23.5-3.4c-4,3.4,0,6.8,0,6.8L220,70.1z"/>
	</g>
	<g>
		<line class="st5" x1="220" y1="70.1" x2="243.5" y2="66.7"/>
		<line class="st5" x1="220" y1="70.1" x2="243.5" y2="73.5"/>
		<path class="st5" d="M243.5,66.7c-4,3.4,0,6.8,0,6.8"/>
	</g>
</g>
<g id="XMLID_2_">
	<g>
		<path class="st4" d="M361.2,70.1l-23.5-3.4c4,3.4,0,6.8,0,6.8L361.2,70.1z"/>
	</g>
	<g>
		<line class="st5" x1="361.2" y1="70.1" x2="337.7" y2="66.7"/>
		<line class="st5" x1="361.2" y1="70.1" x2="337.7" y2="73.5"/>
		<path class="st5" d="M337.7,66.7c4,3.4,0,6.8,0,6.8"/>
	</g>
</g>
<g id="XMLID_3_">
	<g>
		<path class="st4" d="M102.4,97.8l3.4,23.5c-3.4-4-6.8,0-6.8,0L102.4,97.8z"/>
	</g>
	<g>
		<line class="st5" x1="102.4" y1="97.8" x2="105.8" y2="121.3"/>
		<line class="st5" x1="102.4" y1="97.8" x2="99" y2="121.3"/>
		<path class="st5" d="M105.8,121.3c-3.4-4-6.8,0-6.8,0"/>
	</g>
</g>
<g id="XMLID_4_">
	<g>
		<path class="st4" d="M102.4,546.8L99,523.3c3.4,4,6.8,0,6.8,0L102.4,546.8z"/>
	</g>
	<g>
		<line class="st5" x1="102.4" y1="546.8" x2="99" y2="523.3"/>
		<line class="st5" x1="102.4" y1="546.8" x2="105.8" y2="523.3"/>
		<path class="st5" d="M99,523.3c3.4,4,6.8,0,6.8,0"/>
	</g>
</g>
<g>
	<path class="st4" d="M286.9,50.3L286,53l0.8-0.1c2.5,0,4.2,2,4.2,4.4c0,2.6-2.1,4.5-4.6,4.5c-1.7,0-3-0.8-3.9-2.3l1.1-0.8
		c0.6,1,1.6,1.8,2.8,1.8c1.9,0,3.2-1.4,3.2-3.2c0-1.8-1.4-3.1-3.2-3.1c-0.9,0-1.7,0.3-2.4,0.8l1.8-6.1h5v1.3H286.9z"/>
	<path class="st4" d="M302.2,55.3c0,3.1-1.6,6.5-4.5,6.5c-2.9,0-4.5-3.4-4.5-6.5c0-2.6,1.3-6.6,4.5-6.6S302.2,52.7,302.2,55.3z
		 M294.5,55.4c0,1.8,0.8,5.1,3.1,5.1s3.1-3.4,3.1-5.1c0-1.8-0.7-5.3-3.1-5.3S294.5,53.6,294.5,55.4z"/>
</g>
<g>
	<path class="st4" d="M81.3,331.5l-1.3-0.7V328h12.6v1.4H81.3V331.5z"/>
	<path class="st4" d="M89.3,314.3h1.3v1.6h2v1.4h-2v6.5l-11.3-7.8v0h10V314.3z M83.6,317.3L83.6,317.3l5.7,4v-4H83.6z"/>
	<path class="st4" d="M81.3,308.8l2.7,0.8l-0.1-0.8c0-2.5,2-4.2,4.4-4.2c2.6,0,4.5,2.1,4.5,4.6c0,1.7-0.8,3-2.3,3.9l-0.8-1.1
		c1-0.6,1.8-1.6,1.8-2.8c0-1.9-1.4-3.2-3.2-3.2c-1.8,0-3.1,1.4-3.1,3.2c0,0.9,0.3,1.7,0.8,2.4l-6.1-1.8v-5h1.3V308.8z"/>
</g>
<line class="st0" x1="371.6" y1="105.5" x2="361.4" y2="97"/>
<line class="st3" x1="212" y1="323" x2="128.2" y2="283.8"/>
<g id="XMLID_5_">
	<g>
		<path class="st4" d="M128.4,283.8L151,291c-5.1,1.3-3,6.1-3,6.1L128.4,283.8z"/>
	</g>
	<g>
		<line class="st5" x1="128.4" y1="283.8" x2="151" y2="291"/>
		<line class="st5" x1="128.4" y1="283.8" x2="148" y2="297.1"/>
		<path class="st5" d="M151,291c-5.1,1.3-3,6.1-3,6.1"/>
	</g>
</g>
<g id="XMLID_6_">
	<g>
		<path class="st4" d="M211.3,322.6l-22.6-7.2c5.1-1.3,3-6.1,3-6.1L211.3,322.6z"/>
	</g>
	<g>
		<line class="st5" x1="211.3" y1="322.6" x2="188.6" y2="315.4"/>
		<line class="st5" x1="211.3" y1="322.6" x2="191.6" y2="309.3"/>
		<path class="st5" d="M188.6,315.4c5.1-1.3,3-6.1,3-6.1"/>
	</g>
</g>
<g>
	<path class="st4" d="M159.4,319l-0.6,1.2l-7.4-3.6l8.4-3.7c0.7-0.3,1.3-0.8,1.7-1.5c0.6-1.3,0-2.7-1.2-3.3
		c-1.4-0.7-2.8-0.1-3.4,1.2l-1.3-0.6c1-2,3.2-2.8,5.2-1.8c1.9,0.9,2.9,3.1,1.9,5.1c-0.4,0.9-1.1,1.6-2,2l-6.2,2.7L159.4,319z"/>
	<path class="st4" d="M171.6,319.4c-1.4,2.8-4.3,5.1-6.9,3.9c-2.6-1.3-2.6-5-1.2-7.8c1.1-2.3,4.1-5.3,6.9-3.9
		C173.3,312.9,172.8,317,171.6,319.4z M164.7,316.1c-0.8,1.6-1.5,5,0.5,6c2.1,1,4.3-1.7,5.1-3.3c0.8-1.6,1.7-5.1-0.5-6.1
		C167.7,311.6,165.5,314.5,164.7,316.1z"/>
</g>
<line class="st2" x1="251" y1="430.7" x2="251" y2="549.6"/>
<g id="XMLID_7_">
	<g>
		<line class="st1" x1="219.8" y1="176.7" x2="242.6" y2="177.5"/>
		<line class="st1" x1="219.3" y1="420.3" x2="240.8" y2="428.7"/>
		<line class="st1" x1="363.7" y1="410.5" x2="269.9" y2="429.7"/>
		<line class="st1" x1="271" y1="175.5" x2="362.7" y2="161.9"/>
		<path class="st1" d="M362.7,161.9c2.9-0.4,6.4-0.8,10.5-0.8"/>
		<path class="st1" d="M271,175.5c-6.9,1.2-14.7,2.1-28.4,2.1"/>
		<path class="st1" d="M240.8,428.7c5.3,2,14.9,3.7,29.1,1"/>
		<path class="st1" d="M373.2,402.9c0,4.2-4.8,6.6-9.5,7.7"/>
		<line class="st1" x1="282.1" y1="182.1" x2="282.1" y2="411.1"/>
		<line class="st1" x1="350.7" y1="178.7" x2="349.1" y2="403.7"/>
		<line class="st1" x1="282.1" y1="182.1" x2="350.7" y2="178.7"/>
		<line class="st1" x1="282.1" y1="411.1" x2="349.1" y2="403.7"/>
		<line class="st1" x1="306.6" y1="221.2" x2="306.6" y2="246.9"/>
		<line class="st1" x1="328.7" y1="220.2" x2="328.7" y2="245.5"/>
		<line class="st1" x1="306.6" y1="246.9" x2="328.7" y2="245.5"/>
		<line class="st1" x1="295.6" y1="221.8" x2="317.5" y2="193.4"/>
		<line class="st1" x1="339.4" y1="219.6" x2="317.5" y2="193.4"/>
		<line class="st1" x1="309" y1="273" x2="308.9" y2="294.3"/>
		<line class="st1" x1="323.6" y1="271.6" x2="309" y2="273"/>
		<line class="st1" x1="323.8" y1="292.3" x2="323.6" y2="271.6"/>
		<line class="st1" x1="315.8" y1="326.9" x2="328.8" y2="326"/>
		<line class="st1" x1="328.8" y1="296.7" x2="328.8" y2="326"/>
		<line class="st1" x1="323.8" y1="292.3" x2="328.8" y2="296.7"/>
		<line class="st1" x1="310.4" y1="303.6" x2="311.3" y2="313.2"/>
		<line class="st1" x1="315.7" y1="314.8" x2="311.3" y2="313.2"/>
		<line class="st1" x1="315.8" y1="326.9" x2="315.7" y2="314.8"/>
		<line class="st1" x1="308.9" y1="294.3" x2="308.9" y2="298.3"/>
		<line class="st1" x1="328.7" y1="220.2" x2="339.4" y2="219.6"/>
		<line class="st1" x1="295.6" y1="221.8" x2="306.6" y2="221.2"/>
		<line class="st1" x1="308.9" y1="298.3" x2="302.2" y2="299.9"/>
		<line class="st1" x1="310.4" y1="303.6" x2="302.4" y2="301.8"/>
		<line class="st1" x1="302.2" y1="299.9" x2="302.4" y2="301.8"/>
		<line class="st1" x1="219.3" y1="420.3" x2="219.8" y2="176.7"/>
		<line class="st1" x1="373.2" y1="161.2" x2="373.2" y2="402.9"/>
	</g>
</g>
<g>
	<path class="st4" d="M293,369l2.6-0.6c0.3,2,1.2,2.9,2.8,2.8c0.8-0.1,1.4-0.4,1.9-0.8c0.5-0.5,0.7-1,0.7-1.6c0-0.4-0.1-0.7-0.2-0.9
		s-0.4-0.4-0.7-0.6s-1.1-0.3-2.4-0.6c-1.1-0.2-1.9-0.5-2.5-0.9c-0.5-0.3-0.9-0.8-1.2-1.4c-0.3-0.6-0.5-1.3-0.5-2.1
		c0-0.9,0.2-1.7,0.6-2.4c0.4-0.7,0.9-1.3,1.6-1.8c0.7-0.4,1.5-0.7,2.6-0.8c1.5-0.2,2.7,0.1,3.6,0.9c0.9,0.7,1.3,1.9,1.4,3.5
		l-2.6,0.4c-0.1-0.8-0.4-1.4-0.7-1.7s-0.9-0.4-1.6-0.3s-1.3,0.3-1.6,0.6c-0.4,0.3-0.6,0.7-0.6,1.2c0,0.4,0.2,0.8,0.5,1
		c0.3,0.3,1.1,0.5,2.4,0.7c1.3,0.2,2.3,0.6,2.9,0.9c0.6,0.4,1,0.9,1.3,1.5c0.3,0.6,0.5,1.4,0.5,2.4c0,1.4-0.4,2.6-1.3,3.6
		c-0.8,1-2.2,1.6-4,1.8C295.2,374.3,293.4,372.7,293,369z"/>
	<path class="st4" d="M308.7,372.6v-13.3l-3.9,0.4V357l10.3-1.1v2.7l-3.8,0.4v13.3L308.7,372.6z"/>
	<path class="st4" d="M316.1,363.9c0-1.9,0.3-3.5,0.8-4.8c0.6-1.3,1.3-2.3,2.2-3s2-1.1,3.3-1.3c1.9-0.2,3.4,0.4,4.5,1.7
		c1.2,1.3,1.8,3.3,1.8,5.9c0,2.7-0.6,4.8-1.9,6.5c-1.1,1.4-2.6,2.3-4.4,2.5c-1.9,0.2-3.4-0.3-4.5-1.5
		C316.7,368.6,316.1,366.6,316.1,363.9z M318.8,363.5c0,1.8,0.3,3.2,1,4c0.7,0.8,1.6,1.2,2.6,1.1c1-0.1,1.9-0.7,2.6-1.6
		c0.7-1,1-2.4,1-4.3c0-1.9-0.3-3.2-1-4c-0.7-0.8-1.5-1.2-2.6-1.1s-1.9,0.7-2.6,1.6C319.1,360.2,318.8,361.7,318.8,363.5z"/>
	<path class="st4" d="M330.7,370.3v-16l4.2-0.4c1.6-0.2,2.6-0.2,3.1-0.1c0.8,0.2,1.4,0.6,1.9,1.4c0.5,0.8,0.8,1.8,0.8,3
		c0,1.2-0.2,2.2-0.6,3c-0.4,0.8-1,1.4-1.6,1.8c-0.6,0.4-1.8,0.7-3.3,0.8l-1.7,0.2v6L330.7,370.3z M333.3,356.7v4.6l1.5-0.2
		c1-0.1,1.6-0.2,2-0.4c0.4-0.2,0.6-0.5,0.9-0.8c0.2-0.4,0.3-0.8,0.3-1.4c0-0.5-0.1-1-0.3-1.3c-0.2-0.3-0.5-0.6-0.9-0.6
		c-0.3-0.1-1.1-0.1-2.2,0L333.3,356.7z"/>
</g>
<line class="st2" x1="268.9" y1="176" x2="268.9" y2="429.8"/>
<line class="st2" x1="251" y1="178.3" x2="251" y2="430.7"/>
<line class="st3" x1="292.4" y1="323" x2="193.5" y2="323"/>
</svg>
