<?xml version="1.0" encoding="utf-8"?>
<!-- Generator: Adobe Illustrator 23.0.3, SVG Export Plug-In . SVG Version: 6.00 Build 0)  -->
<svg version="1.1" id="Слой_1" xmlns="http://www.w3.org/2000/svg" xmlns:xlink="http://www.w3.org/1999/xlink" x="0px" y="0px"
	 viewBox="0 0 500 600" style="enable-background:new 0 0 500 600;" xml:space="preserve">
<style type="text/css">
	.st0{fill:none;stroke:#4C86B9;stroke-miterlimit:10;}
	.st1{fill:none;stroke:#4C86B9;stroke-width:0.5;stroke-miterlimit:10;}
	.st2{fill:none;stroke:#4C86B9;stroke-width:0.25;stroke-miterlimit:10;}
	.st3{fill:#4C86B9;}
	.st4{font-family:'Futura-Book';}
	.st5{font-size:16px;}
</style>
<path class="st0" d="M223.5,101.3c-6.4,132.8-9.9,243.7,0,385.3"/>
<line class="st0" x1="249.6" y1="101.3" x2="252.1" y2="162.7"/>
<line class="st0" x1="249.2" y1="502" x2="251.8" y2="449.8"/>
<path class="st0" d="M251.8,164.5c-3.5,102-2.7,190.7,0,285.3"/>
<line class="st0" x1="344.3" y1="97.7" x2="355.9" y2="155.6"/>
<path class="st0" d="M355.9,155.6c3.5,102,2.6,185-0.1,279.6"/>
<line class="st0" x1="345.3" y1="488.8" x2="355.8" y2="435.3"/>
<path class="st0" d="M336.8,88.1c-4-1.5-44.3-6.5-82.9-0.4"/>
<path class="st0" d="M336.8,88.1c-4-1.5-66.7-7.9-105.3-1.8"/>
<path class="st0" d="M249.6,101.3c-0.6-6-0.2-12.6,4.2-13.6"/>
<path class="st0" d="M344.3,97.7c-1-4.4-3.8-8.2-7.5-9.5"/>
<path class="st0" d="M223.5,101.3c0.5-6.8,2.9-14,8-15"/>
<path class="st1" d="M251.8,164.5c-0.2-18.4,96.9-19.5,104.1-8.8"/>
<path class="st1" d="M251.8,449.8c7,9.9,101.7-2.8,104-14.5"/>
<path class="st0" d="M340.5,494c-7.2,4.8-38.9,13.7-82.8,14.7"/>
<path class="st0" d="M345.3,488.8c-0.6,2.6-3.2,4.1-4.8,5.2"/>
<path class="st0" d="M249.2,502c-0.1,3.9,3.8,6.7,8.4,6.7"/>
<line class="st0" x1="253.4" y1="507.8" x2="232.7" y2="502"/>
<path class="st0" d="M223.5,486.7c1.5,10.6,4.6,13.2,9.2,15.3"/>
<path class="st1" d="M267,168.8c-3.5,102-2.7,174.8,0,269.5"/>
<path class="st1" d="M346.6,164.5c3.5,102,2.7,165.9,0,260.6"/>
<path class="st1" d="M267,168.8c6.4-4.8,46.3-8.7,79.6-4.3"/>
<path class="st1" d="M346.6,425c-14,9.7-46,15-79.6,13.2"/>
<g id="XMLID_13_">
	<g>
		<polyline class="st1" points="323.4,178.9 323.4,193.8 323.4,205.1 		"/>
		<polyline class="st1" points="326.6,178.9 326.6,193.8 326.6,205.1 		"/>
		<line class="st1" x1="323.4" y1="178.9" x2="326.6" y2="178.9"/>
		<line class="st1" x1="323.4" y1="193.8" x2="326.6" y2="193.8"/>
	</g>
</g>
<line class="st1" x1="323.4" y1="205.1" x2="326.6" y2="205.1"/>
<line class="st1" x1="317.5" y1="201.4" x2="317.5" y2="212.7"/>
<line class="st1" x1="320.7" y1="199.7" x2="320.7" y2="212.7"/>
<line class="st1" x1="317.5" y1="201.4" x2="320.7" y2="199.7"/>
<line class="st1" x1="317.5" y1="212.7" x2="320.7" y2="212.7"/>
<line class="st1" x1="317.5" y1="201.4" x2="310.9" y2="193.8"/>
<line class="st1" x1="320.7" y1="199.7" x2="313.4" y2="192"/>
<line class="st1" x1="310.9" y1="193.8" x2="313.4" y2="192"/>
<line class="st1" x1="332.4" y1="199.9" x2="332.4" y2="211.2"/>
<line class="st1" x1="329.2" y1="198.3" x2="329.2" y2="211.2"/>
<line class="st1" x1="332.4" y1="199.9" x2="329.2" y2="198.3"/>
<line class="st1" x1="332.4" y1="211.2" x2="329.2" y2="211.2"/>
<line class="st1" x1="332.4" y1="199.9" x2="339" y2="192.4"/>
<line class="st1" x1="329.2" y1="198.3" x2="336.5" y2="190.6"/>
<line class="st1" x1="339" y1="192.4" x2="336.5" y2="190.6"/>
<line class="st2" x1="261.3" y1="84.2" x2="178.1" y2="84.2"/>
<line class="st2" x1="232.7" y1="502" x2="178.5" y2="502"/>
<line class="st2" x1="188.2" y1="84.2" x2="188.2" y2="502"/>
<line class="st2" x1="217.3" y1="49" x2="217.3" y2="295.3"/>
<line class="st2" x1="252.1" y1="50" x2="252.1" y2="162.7"/>
<line class="st2" x1="277.1" y1="60.1" x2="158.4" y2="60.3"/>
<line class="st2" x1="249.6" y1="457.5" x2="249.6" y2="573.1"/>
<line class="st2" x1="356.8" y1="372" x2="356.8" y2="551.5"/>
<line class="st2" x1="249.2" y1="559.5" x2="357" y2="537.8"/>
<g id="XMLID_12_">
	<g>
		<path class="st3" d="M191.2,482.8l-3.1,19.1l-3-19.1C185.1,482.8,188.2,486.1,191.2,482.8z"/>
	</g>
</g>
<g id="XMLID_11_">
	<g>
		<path class="st3" d="M191.2,104.1L188.2,85l-3.1,19.1C185.1,104.1,188.2,100.8,191.2,104.1z"/>
	</g>
</g>
<g id="XMLID_10_">
	<g>
		<path class="st3" d="M337.6,538.1l19.4-0.3l-18.3,6.3C338.7,544.1,341.4,540.5,337.6,538.1z"/>
	</g>
</g>
<g id="XMLID_9_">
	<g>
		<path class="st3" d="M268.6,559.2l-19.4,0.3l18.3-6.3C267.6,553.2,264.8,556.8,268.6,559.2z"/>
	</g>
</g>
<g id="XMLID_8_">
	<g>
		<path class="st3" d="M272.3,57.3l-19.1,3.1l19.1,3.1C272.3,63.4,268.9,60.3,272.3,57.3z"/>
	</g>
</g>
<g id="XMLID_7_">
	<g>
		<path class="st3" d="M198.4,63.2l19.1-3.1l-19.1-3.1C198.4,57.1,201.7,60.2,198.4,63.2z"/>
	</g>
</g>
<text transform="matrix(1 0 0 1 163.7368 53.3216)" class="st3 st4 st5">23</text>
<text transform="matrix(0.9877 -0.1564 0.1564 0.9877 284.0325 544.2601)" class="st3 st4 st5">45</text>
<text transform="matrix(0 -1 1 0 182.2758 335.7581)" class="st3 st4 st5">145</text>
</svg>
