<?xml version="1.0" encoding="utf-8"?>
<!-- Generator: Adobe Illustrator 23.0.3, SVG Export Plug-In . SVG Version: 6.00 Build 0)  -->
<svg version="1.1" id="Слой_1" xmlns="http://www.w3.org/2000/svg" xmlns:xlink="http://www.w3.org/1999/xlink" x="0px" y="0px"
	 viewBox="0 0 500 600" style="enable-background:new 0 0 500 600;" xml:space="preserve">
<style type="text/css">
	.st0{fill:none;stroke:#4C86B9;stroke-miterlimit:10;}
	.st1{fill:none;stroke:#4C86B9;stroke-width:0.5;stroke-miterlimit:10;}
	.st2{fill:none;stroke:#4C86B9;stroke-width:0.75;stroke-miterlimit:10;}
	.st3{fill:none;stroke:#4C86B9;stroke-width:0.25;stroke-miterlimit:10;}
	.st4{fill:#4C86B9;}
</style>
<path class="st0" d="M149.5,142.1c-10.7,178.7-3.9,301.1-2,310"/>
<path class="st0" d="M178.8,102.6c46.3-2.8,160.4,0,212.7,10.1"/>
<path class="st0" d="M149.5,142.1c1.2-22.9,17.6-38.8,29.4-39.5"/>
<path class="st0" d="M424.2,158.1c1.8,101.7,0.7,225.7-1.5,267.2"/>
<path class="st0" d="M424.2,158.1c-1.5-25.8-13.8-41.5-32.6-45.4"/>
<path class="st0" d="M217.3,489.6c38.4-1.3,103-5.2,178.8-20.4"/>
<path class="st0" d="M422.7,425.3c-1,22-13.7,41.3-26.6,44"/>
<path class="st0" d="M178.8,447.2c2.3,26,8.2,42.7,38.5,42.4"/>
<path class="st0" d="M147.4,452c4.1,21.6,16.8,35.5,27.4,36.1"/>
<line class="st0" x1="174.9" y1="488.2" x2="217.3" y2="489.6"/>
<path class="st0" d="M178.8,447.2c-5.6-112.6-5.6-221.2-0.6-293.4"/>
<path class="st0" d="M178.2,153.9c1.9-26.6,16.7-43.7,37.9-44.1"/>
<path class="st0" d="M216.2,109.7c52.6-1.2,127.9,3.2,178.1,10"/>
<path class="st0" d="M424.2,158.1c-1.5-22.7-14.2-36.1-29.9-38.4"/>
<path class="st1" d="M208.1,153.9c0,153.4,82,279.4,184.9,275.6"/>
<path class="st1" d="M218.7,153.9c4.7,157,75.8,265.3,172.9,265.3"/>
<path class="st1" d="M254.5,153.9c0,119,63.3,215.4,141.5,215.4"/>
<path class="st1" d="M263.8,153.9c0,112,59.5,205.5,130.9,205.5"/>
<path class="st1" d="M296.4,152.3c0,84.9,44.6,153.5,99.7,153.5"/>
<path class="st1" d="M306,152.3c0,77.7,40.3,145.2,89.7,145.2"/>
<line class="st1" x1="384.9" y1="153.9" x2="384.9" y2="244.1"/>
<line class="st1" x1="409.4" y1="156.1" x2="409.4" y2="246.3"/>
<path class="st1" d="M384.9,153.9c0.2-20.3,24.4-17.6,24.5,2.2"/>
<path class="st1" d="M384.9,244.1c0,17.5,24.5,19,24.5,2.2"/>
<ellipse class="st2" cx="396.9" cy="161.3" rx="4.1" ry="6.9"/>
<ellipse class="st2" cx="396.9" cy="161.3" rx="3.5" ry="5.6"/>
<ellipse class="st2" cx="396.9" cy="198" rx="4.1" ry="6.9"/>
<ellipse class="st2" cx="396.9" cy="198" rx="3.5" ry="5.6"/>
<ellipse class="st2" cx="396.9" cy="235.5" rx="4.1" ry="6.9"/>
<ellipse class="st2" cx="396.9" cy="235.5" rx="3.5" ry="5.6"/>
<path class="st1" d="M208.1,153.9c0-6.9,10.6-6.1,10.6,0"/>
<path class="st1" d="M254.5,153.9c0-6.9,9.2-6.1,9.2,0"/>
<path class="st1" d="M296.4,152.3c0-6.9,9.7-6.1,9.7,0"/>
<path class="st1" d="M393,429.5c6.6-0.3,6.2-9.5-1.4-10.3"/>
<path class="st1" d="M396.1,369.2c6.6,0,6.5-9.8-1.4-9.8"/>
<path class="st1" d="M396.1,305.9c6.6,0,7.5-8.3-0.3-8.3"/>
<line class="st3" x1="143" y1="45.9" x2="143" y2="562"/>
<line class="st3" x1="401.3" y1="468.4" x2="401.3" y2="531.1"/>
<line class="st3" x1="143" y1="543.8" x2="401.3" y2="514.4"/>
<line class="st3" x1="176.7" y1="488.9" x2="91.9" y2="488.9"/>
<line class="st3" x1="178.8" y1="102" x2="90.9" y2="102"/>
<line class="st3" x1="108.8" y1="102" x2="108.8" y2="488.9"/>
<line class="st3" x1="174.6" y1="305.6" x2="174.6" y2="45.5"/>
<line class="st3" x1="219.2" y1="59.5" x2="55.6" y2="59.5"/>
<g id="XMLID_2_">
	<g>
		<path class="st4" d="M105.2,127l3.6-24.4l3.6,24.4C112.5,127,108.8,122.7,105.2,127z"/>
	</g>
</g>
<g id="XMLID_1_">
	<g>
		<path class="st4" d="M112.5,464.5l-3.6,24.4l-3.6-24.4C105.2,464.5,108.8,468.7,112.5,464.5z"/>
	</g>
</g>
<g id="XMLID_3_">
	<g>
		<path class="st4" d="M167.8,544.8l-24.7-1.1l23.9-6.2C167.1,537.6,163.2,541.6,167.8,544.8z"/>
	</g>
</g>
<g id="XMLID_4_">
	<g>
		<path class="st4" d="M376.7,513.3l24.7,1.1l-23.9,6.2C377.4,520.6,381.3,516.5,376.7,513.3z"/>
	</g>
</g>
<g>
	<path class="st4" d="M253.9,518.2c1.3-0.2,2.3-0.7,2.2-2.2c-0.1-1.3-1.1-2-2.3-1.9c-1.2,0.1-1.8,1-1.8,2.1l-1.3,0.1
		c0-1.9,1-3.3,3-3.5c1.9-0.2,3.5,0.9,3.8,2.9c0.1,1.1-0.3,2.2-1.3,2.8c1.2,0.4,1.9,1.5,2,2.8c0.2,2.1-1.3,3.7-3.4,4
		c-1.9,0.2-3.7-0.9-3.9-3l1.3-0.1c0.2,1.2,1.3,2,2.5,1.8c1.3-0.1,2.2-1.3,2.1-2.6c-0.2-1.5-1.3-2.2-2.8-2L253.9,518.2z"/>
	<path class="st4" d="M268.7,517.6c0.3,3-0.9,6.4-3.6,6.6s-4.6-2.8-4.9-5.7c-0.3-2.5,0.6-6.4,3.6-6.7
		C266.8,511.5,268.5,515.1,268.7,517.6z M261.5,518.4c0.2,1.7,1.3,4.8,3.5,4.6c2.2-0.2,2.6-3.5,2.4-5.2c-0.1-1.7-1.2-5-3.5-4.7
		C261.6,513.3,261.3,516.7,261.5,518.4z"/>
	<path class="st4" d="M278.5,516.5c0.3,3-0.9,6.4-3.6,6.6c-2.7,0.3-4.6-2.8-4.9-5.7c-0.3-2.5,0.6-6.4,3.6-6.7
		C276.6,510.5,278.3,514.1,278.5,516.5z M271.3,517.4c0.2,1.7,1.3,4.8,3.5,4.6s2.6-3.5,2.4-5.2c-0.1-1.7-1.2-5-3.5-4.7
		C271.4,512.3,271.1,515.7,271.3,517.4z"/>
</g>
<g>
	<path class="st4" d="M96,303.7c0-1.3-0.4-2.4-2-2.4c-1.3,0-2.1,0.8-2.1,2.1c0,1.2,0.8,1.9,1.9,2v1.3c-1.9-0.2-3.2-1.4-3.2-3.3
		c0-1.9,1.3-3.4,3.3-3.4c1.1,0,2.1,0.6,2.6,1.6c0.5-1.2,1.7-1.7,3-1.7c2.1,0,3.6,1.7,3.6,3.7c0,2-1.3,3.6-3.3,3.6v-1.3
		c1.2-0.1,2.1-1.1,2.1-2.3c0-1.3-1.1-2.4-2.4-2.4c-1.5,0-2.3,1.1-2.3,2.6H96z"/>
	<path class="st4" d="M97,289c3,0,6.2,1.6,6.2,4.3c0,2.8-3.2,4.3-6.2,4.3c-2.5,0-6.3-1.3-6.3-4.3C90.7,290.2,94.5,289,97,289z
		 M97,296.3c1.7,0,4.9-0.8,4.9-3c0-2.2-3.2-2.9-4.9-3c-1.7,0-5.1,0.7-5.1,3S95.3,296.3,97,296.3z"/>
	<path class="st4" d="M97,279.1c3,0,6.2,1.6,6.2,4.3c0,2.8-3.2,4.3-6.2,4.3c-2.5,0-6.3-1.3-6.3-4.3C90.7,280.4,94.5,279.1,97,279.1z
		 M97,286.4c1.7,0,4.9-0.8,4.9-3c0-2.2-3.2-2.9-4.9-3c-1.7,0-5.1,0.7-5.1,3S95.3,286.4,97,286.4z"/>
</g>
<g id="XMLID_5_">
	<g>
		<path class="st4" d="M199.1,63.5l-24.4-3.6l24.4-3.6C199.1,56.2,194.9,59.9,199.1,63.5z"/>
	</g>
</g>
<g id="XMLID_6_">
	<g>
		<path class="st4" d="M118.5,55.9l24.4,3.6l-24.4,3.6C118.5,63.2,122.7,59.5,118.5,55.9z"/>
	</g>
</g>
<g>
	<path class="st4" d="M82.4,48.9c1.3,0,2.4-0.4,2.4-2c0-1.3-0.8-2.1-2.1-2.1c-1.2,0-1.9,0.8-2,1.9h-1.3c0.2-1.9,1.4-3.2,3.3-3.2
		c1.9,0,3.4,1.3,3.4,3.3c0,1.1-0.6,2.1-1.6,2.6c1.2,0.5,1.7,1.7,1.7,3c0,2.1-1.7,3.6-3.7,3.6c-2,0-3.6-1.3-3.6-3.3h1.3
		c0.1,1.2,1.1,2.1,2.3,2.1c1.3,0,2.4-1.1,2.4-2.4c0-1.5-1.1-2.3-2.6-2.3V48.9z"/>
	<path class="st4" d="M97.2,49.9c0,3-1.6,6.2-4.3,6.2c-2.8,0-4.3-3.2-4.3-6.2c0-2.5,1.3-6.3,4.3-6.3C95.9,43.6,97.2,47.4,97.2,49.9z
		 M89.9,49.9c0,1.7,0.8,4.9,3,4.9c2.2,0,2.9-3.2,3-4.9c0-1.7-0.7-5.1-3-5.1S89.9,48.2,89.9,49.9z"/>
</g>
</svg>
