<?xml version="1.0" encoding="utf-8"?>
<!-- Generator: Adobe Illustrator 23.0.3, SVG Export Plug-In . SVG Version: 6.00 Build 0)  -->
<svg version="1.1" id="Слой_1" xmlns="http://www.w3.org/2000/svg" xmlns:xlink="http://www.w3.org/1999/xlink" x="0px" y="0px"
	 viewBox="0 0 500 600" style="enable-background:new 0 0 500 600;" xml:space="preserve">
<style type="text/css">
	.st0{fill:none;stroke:#4C86B9;stroke-miterlimit:22.9256;}
	.st1{fill:none;stroke:#4C86B9;stroke-width:0.25;stroke-miterlimit:22.9256;}
	.st2{fill:none;stroke:#4C86B9;stroke-width:0.5;stroke-miterlimit:22.9256;}
	.st3{fill:#4C86B9;}
</style>
<line class="st0" x1="72.6" y1="277.3" x2="317" y2="140.7"/>
<line class="st0" x1="159.6" y1="409.8" x2="413.8" y2="258.2"/>
<line class="st0" x1="166.2" y1="430" x2="414.9" y2="278.4"/>
<line class="st0" x1="418.4" y1="253.1" x2="415.8" y2="275.5"/>
<line class="st0" x1="70.7" y1="286.9" x2="148.4" y2="408.2"/>
<line class="st0" x1="73.2" y1="298.9" x2="153.5" y2="428.1"/>
<line class="st0" x1="69.8" y1="284.3" x2="73" y2="298.1"/>
<line class="st0" x1="151.2" y1="411.1" x2="157.7" y2="431.2"/>
<line class="st0" x1="325.7" y1="140.4" x2="363.1" y2="184.7"/>
<path class="st0" d="M317.5,232.1c-8.9-10.4,50.9-48.2,73.4-71.4"/>
<path class="st0" d="M325.5,233c1.5-10.4,55.8-46.5,70-63"/>
<path class="st0" d="M325.5,233c-1.1,1.2-5.6,1.6-8-0.9"/>
<path class="st1" d="M390.9,160.7c5,3,0,5.8,4.5,9.3"/>
<path class="st0" d="M136.2,400.3c-19.6,11.6-6.7,26.8,9.9,15.9"/>
<path class="st0" d="M126.3,412.8c1,14.9,12.7,12.2,22,7.1"/>
<ellipse class="st0" cx="136.2" cy="410.5" rx="3.9" ry="3.3"/>
<path class="st0" d="M82.7,314.1c-19.1,9.6-8,24.6,8.5,13.7"/>
<path class="st0" d="M72.6,325.7c0,11.8,11.7,11.2,21.1,6.1"/>
<ellipse class="st0" cx="81.9" cy="323.5" rx="3.9" ry="3.3"/>
<line class="st0" x1="76.5" y1="281.4" x2="319.7" y2="145.3"/>
<line class="st0" x1="157.3" y1="406" x2="411.5" y2="254.4"/>
<line class="st0" x1="75.7" y1="283.5" x2="153.4" y2="404.9"/>
<line class="st0" x1="321.1" y1="145.5" x2="357.9" y2="188.9"/>
<path class="st0" d="M72.6,277.3c-3.5,2-3.6,6.8-1.9,9.5"/>
<path class="st0" d="M153.5,428.1c2.3,3.6,8.1,4.8,12.7,1.9"/>
<path class="st0" d="M148.4,408.2c3.5,5.5,7.4,3.9,11.2,1.6"/>
<path class="st0" d="M153.4,404.9c0.7,1.1,2.1,2.2,3.9,1.1"/>
<path class="st0" d="M73,298.1c0,0.2,0.1,0.7,0.2,0.7"/>
<path class="st0" d="M75.7,283.5c-0.3-0.5,0.2-1.9,0.7-2.1"/>
<path class="st0" d="M317,140.7c2.9-1.6,6.8-2.6,8.7-0.3"/>
<path class="st0" d="M319.7,145.3c0.4-0.2,1-0.3,1.4,0.2"/>
<path class="st0" d="M411.7,252.5c0.5,0.7,0.1,1.7-0.3,1.9"/>
<path class="st0" d="M416.9,248.1c3.5,4.4,1.1,7.2-3.1,10.1"/>
<line class="st0" x1="369.7" y1="192.4" x2="416.9" y2="248.1"/>
<line class="st0" x1="364.4" y1="196.6" x2="411.7" y2="252.5"/>
<path class="st0" d="M415.8,275.5c-0.1,1.1-0.4,2.7-0.9,2.9"/>
<line class="st2" x1="18.4" y1="327.8" x2="72" y2="297.9"/>
<line class="st2" x1="101.9" y1="467.4" x2="165.1" y2="429.6"/>
<line class="st2" x1="417.9" y1="257.5" x2="462.6" y2="310.3"/>
<line class="st2" x1="73.2" y1="330.5" x2="169" y2="484.8"/>
<line class="st2" x1="162.4" y1="474.2" x2="452" y2="297.7"/>
<line class="st2" x1="414.4" y1="257.6" x2="469.8" y2="224.5"/>
<line class="st2" x1="414.9" y1="278" x2="466.3" y2="247.4"/>
<line class="st2" x1="463.9" y1="204.7" x2="455.6" y2="275.5"/>
<line class="st2" x1="31.4" y1="320.6" x2="117" y2="458.4"/>
<g id="XMLID_20_">
	<g>
		<path class="st3" d="M177.6,467.9l-15.2,6.3l12.3-10.9C174.7,463.2,172.8,467.7,177.6,467.9z"/>
	</g>
</g>
<g id="XMLID_19_">
	<g>
		<path class="st3" d="M436.8,304l15.2-6.3l-12.3,10.9C439.6,308.6,441.5,304.2,436.8,304z"/>
	</g>
</g>
<g id="XMLID_18_">
	<g>
		<path class="st3" d="M37.7,335.8l-6.3-15.2l10.9,12.3C42.3,332.9,37.9,331,37.7,335.8z"/>
	</g>
</g>
<g id="XMLID_17_">
	<g>
		<path class="st3" d="M110.7,443.2l6.3,15.2l-10.9-12.3C106.1,446.1,110.5,448,110.7,443.2z"/>
	</g>
</g>
<g id="XMLID_16_">
	<g>
		<path class="st3" d="M465.4,214l-4.4,15.9l-1-16.4C460,213.5,462.3,217.7,465.4,214z"/>
	</g>
</g>
<g id="XMLID_15_">
	<g>
		<path class="st3" d="M454.1,267.8l4.4-15.9l1,16.4C459.5,268.4,457.2,264.2,454.1,267.8z"/>
	</g>
</g>
<g>
	<path class="st3" d="M309.7,394.8l0.7-1.2h2.6v12.1h-1.3v-10.8H309.7z"/>
	<path class="st3" d="M321.4,398.7c1.3,0,2.4-0.4,2.4-2c0-1.3-0.8-2.1-2.1-2.1c-1.2,0-1.9,0.8-2,1.9h-1.3c0.2-1.9,1.4-3.2,3.3-3.2
		c1.9,0,3.4,1.3,3.4,3.3c0,1.1-0.6,2.1-1.6,2.6c1.2,0.5,1.7,1.7,1.7,3c0,2.1-1.7,3.6-3.7,3.6c-2,0-3.6-1.3-3.6-3.3h1.3
		c0.1,1.2,1.1,2.1,2.3,2.1c1.3,0,2.4-1.1,2.4-2.4c0-1.5-1.1-2.3-2.6-2.3V398.7z"/>
	<path class="st3" d="M327.7,394.8v-1.2h8.9l-8.1,12.3l-1.1-0.6l6.9-10.4H327.7z"/>
</g>
<g>
	<path class="st3" d="M50.9,389.4v-1.2h8.9l-8.1,12.3l-1.1-0.6l6.9-10.4H50.9z"/>
	<path class="st3" d="M69.2,394.2c0,3-1.6,6.2-4.3,6.2c-2.8,0-4.3-3.2-4.3-6.2c0-2.5,1.3-6.3,4.3-6.3
		C67.9,388,69.2,391.8,69.2,394.2z M61.9,394.3c0,1.7,0.8,4.9,3,4.9c2.2,0,2.9-3.2,3-4.9c0-1.7-0.7-5.1-3-5.1S61.9,392.6,61.9,394.3
		z"/>
</g>
<g>
	<path class="st3" d="M476.7,238.8v1.2h-7.8l5.7-6.7c0.5-0.6,0.8-1.2,0.8-2c0-1.3-1.1-2.3-2.4-2.3c-1.5,0-2.4,1.1-2.4,2.5h-1.3
		c0-2.1,1.6-3.7,3.7-3.7c2,0,3.8,1.5,3.8,3.6c0,1-0.3,1.8-0.9,2.5l-4.2,4.9H476.7z"/>
	<path class="st3" d="M487.3,234.1c0,3-1.6,6.2-4.3,6.2c-2.8,0-4.3-3.2-4.3-6.2c0-2.5,1.3-6.3,4.3-6.3
		C486,227.8,487.3,231.6,487.3,234.1z M480,234.1c0,1.7,0.8,4.9,3,4.9c2.2,0,2.9-3.2,3-4.9c0-1.7-0.7-5.1-3-5.1
		C480.7,229.1,480,232.4,480,234.1z"/>
</g>
</svg>
