<?xml version="1.0" encoding="utf-8"?>
<!-- Generator: Adobe Illustrator 23.0.3, SVG Export Plug-In . SVG Version: 6.00 Build 0)  -->
<svg version="1.1" id="Слой_1" xmlns="http://www.w3.org/2000/svg" xmlns:xlink="http://www.w3.org/1999/xlink" x="0px" y="0px"
	 viewBox="0 0 500 600" style="enable-background:new 0 0 500 600;" xml:space="preserve">
<style type="text/css">
	.st0{fill:none;stroke:#4C86B9;stroke-width:2;stroke-linecap:round;stroke-miterlimit:10;}
	.st1{fill:none;stroke:#4C86B9;stroke-width:2;stroke-miterlimit:10;}
	.st2{fill:none;stroke:#4C86B9;stroke-width:2;stroke-linecap:round;stroke-linejoin:round;stroke-miterlimit:10;}
	.st3{fill:none;stroke:#4C86B9;stroke-width:0.75;stroke-linecap:round;stroke-miterlimit:10;}
	.st4{fill:none;stroke:#4C86B9;stroke-width:0.75;stroke-miterlimit:10;}
	.st5{fill:none;}
	.st6{fill:none;stroke:#4C86B9;stroke-miterlimit:10;}
	.st7{fill:none;stroke:#4C86B9;stroke-linecap:round;stroke-miterlimit:10;}
	.st8{fill:#4C86B9;}
	.st9{fill:none;stroke:#4C86B9;stroke-width:0.5;stroke-miterlimit:10;}
	.st10{fill:none;stroke:#4C86B9;stroke-width:0.225;stroke-miterlimit:10;}
</style>
<line class="st0" x1="168.3" y1="431.2" x2="262.6" y2="431.2"/>
<line class="st1" x1="262.6" y1="431.2" x2="366.3" y2="402"/>
<line class="st0" x1="168.3" y1="431.2" x2="114.4" y2="404.6"/>
<line class="st0" x1="114.4" y1="404.6" x2="85.5" y2="321.1"/>
<line class="st1" x1="366.3" y1="402" x2="345.2" y2="317.3"/>
<line class="st1" x1="343.2" y1="315.8" x2="230.6" y2="293.1"/>
<line class="st0" x1="230.6" y1="293.1" x2="125.6" y2="293"/>
<line class="st1" x1="130.1" y1="293" x2="85.5" y2="321.1"/>
<line class="st0" x1="132.2" y1="298.1" x2="219.4" y2="298.1"/>
<line class="st1" x1="171.2" y1="427.8" x2="257.6" y2="427.8"/>
<line class="st1" x1="246.2" y1="377.4" x2="259.9" y2="425.5"/>
<line class="st0" x1="130.7" y1="300.4" x2="167.7" y2="425.8"/>
<line class="st1" x1="143.5" y1="308.5" x2="210.8" y2="308.3"/>
<line class="st1" x1="181.1" y1="421.4" x2="241.8" y2="421.4"/>
<line class="st2" x1="141.2" y1="311.7" x2="151.3" y2="347.1"/>
<line class="st2" x1="164" y1="388.4" x2="172.4" y2="416"/>
<line class="st1" x1="235.9" y1="369.2" x2="249.1" y2="415.3"/>
<line class="st3" x1="174" y1="418.9" x2="205.9" y2="370.9"/>
<line class="st3" x1="178" y1="421.4" x2="209.3" y2="372.7"/>
<line class="st3" x1="194.8" y1="321.9" x2="196.1" y2="325.4"/>
<line class="st3" x1="210.9" y1="371.6" x2="236.6" y2="371.6"/>
<line class="st1" x1="224.7" y1="302.8" x2="237.6" y2="348.7"/>
<line class="st1" x1="245.6" y1="356.1" x2="294.8" y2="356.1"/>
<line class="st0" x1="248.9" y1="371.3" x2="299" y2="371.3"/>
<line class="st2" x1="161.1" y1="355.3" x2="163.4" y2="363"/>
<line class="st2" x1="165.2" y1="369" x2="169.4" y2="382.6"/>
<line class="st2" x1="151.3" y1="347.1" x2="161.1" y2="355.3"/>
<line class="st2" x1="169.4" y1="382.6" x2="164" y2="388.4"/>
<line class="st4" x1="161.7" y1="356.9" x2="193.1" y2="322.1"/>
<line class="st3" x1="169.4" y1="383.1" x2="201.1" y2="341.1"/>
<line class="st3" x1="150.7" y1="345" x2="182" y2="312.5"/>
<line class="st3" x1="197.5" y1="329.5" x2="201.1" y2="341.1"/>
<line class="st4" x1="199" y1="343.9" x2="206.3" y2="368.7"/>
<line class="st3" x1="182" y1="308.4" x2="182.6" y2="310.3"/>
<line class="st3" x1="185.8" y1="313.8" x2="191.2" y2="317.3"/>
<line class="st0" x1="96" y1="351.6" x2="110.5" y2="351.6"/>
<line class="st1" x1="86.4" y1="323.9" x2="105.2" y2="323.9"/>
<line class="st5" x1="357.8" y1="368.1" x2="336.9" y2="370.9"/>
<path class="st1" d="M94.4,325.4c-10.4,8.2,5.6,28.5,16.2,21.8"/>
<path class="st1" d="M110.2,347.4c10.4-8.2-5.6-28.5-16.2-21.8"/>
<path class="st0" d="M105.2,323.9c10.3,0.4,17.7,24.7,5.3,27.7"/>
<line class="st0" x1="113.4" y1="401.2" x2="127.9" y2="401.2"/>
<line class="st1" x1="103.8" y1="373.5" x2="122.6" y2="373.5"/>
<path class="st1" d="M111.8,375c-10.4,8.2,5.6,28.5,16.2,21.8"/>
<path class="st1" d="M127.6,397c10.4-8.2-5.6-28.5-16.2-21.8"/>
<path class="st0" d="M122.6,373.5c10.3,0.4,17.7,24.7,5.3,27.7"/>
<path class="st1" d="M294.6,356c8.1,0.6,10.7,12.6,4.2,15.3"/>
<line class="st6" x1="245.8" y1="352.9" x2="295" y2="352.9"/>
<path class="st7" d="M294.8,352.9c8.9,0.6,11.1,15.7,4.2,18.4"/>
<line class="st6" x1="226.9" y1="299.8" x2="240.5" y2="348.3"/>
<path class="st1" d="M237.6,348.7c1.2,4.2,3.6,7.4,8,7.4"/>
<path class="st6" d="M240.5,348.3c1,3.6,2.4,4.7,5.3,4.7"/>
<path class="st1" d="M248.9,371.3c-2.9,0-3.4,3.3-2.7,6"/>
<path class="st0" d="M219.4,298.1c4.3,0,4.8,3,5.3,4.7"/>
<path class="st6" d="M219.3,296.1c4.8,0,6.5,0.6,7.6,3.8"/>
<path class="st1" d="M219.4,312.8c-1.2-3.1-4.9-4.5-8.6-4.5"/>
<path class="st0" d="M249.1,415.3c1,3.6-2.9,6.1-7.3,6.1"/>
<path class="st1" d="M172.4,416c1.7,4.3,3.6,5.3,8.7,5.3"/>
<path class="st1" d="M143.5,308.5c-1.7,0-2.7,1.4-2.2,3.2"/>
<g id="XMLID_1_">
	<g>
		<path class="st8" d="M196.3,325.4c1.1-0.8,1.5-0.9,3-1h14.3l0.3,1.9h5.5l-0.1-2.1h3.3l1.1,3.9l-0.1,0h-23.2c-1.5,0-2.1,0.4-3,1.3
			l-32.2,39.5l0,0h-10.8v0l-1.3-4.7h10.3L196.3,325.4z"/>
		<path class="st8" d="M200.5,328.2l-3,1.3C198.4,328.6,199,328.2,200.5,328.2z"/>
	</g>
	<g>
		<polyline class="st1" points="219.4,312.8 222.7,324.2 223.8,328.2 234.4,364.6 		"/>
		<line class="st7" x1="153.1" y1="364.2" x2="154.4" y2="368.9"/>
		<line class="st7" x1="153.1" y1="364.2" x2="163.5" y2="364.2"/>
		<line class="st7" x1="154.4" y1="368.9" x2="165.2" y2="368.9"/>
		<line class="st7" x1="163.5" y1="364.2" x2="196.3" y2="325.4"/>
		<polyline class="st7" points="165.2,369 165.2,368.9 197.5,329.5 		"/>
		<line class="st6" x1="200.5" y1="328.2" x2="223.7" y2="328.2"/>
		<line class="st7" x1="199.4" y1="324.4" x2="213.7" y2="324.4"/>
		<line class="st7" x1="213.7" y1="324.4" x2="214" y2="326.3"/>
		<line class="st7" x1="214" y1="326.3" x2="219.5" y2="326.3"/>
		<line class="st7" x1="219.5" y1="326.3" x2="219.4" y2="324.2"/>
		<polyline class="st7" points="219.4,324.2 222.7,324.2 222.9,324.2 		"/>
		<path class="st6" d="M196.3,325.4c1.1-0.8,1.5-0.9,3-1"/>
		<path class="st7" d="M197.5,329.5c1-0.8,1.5-1.3,3-1.3"/>
	</g>
</g>
<g id="XMLID_2_">
	<g>
		<path class="st8" d="M236.7,367.1l1.4-2.4l0-0.3l14-0.3v-2.5v-0.6h40.2l0.6,0.1v5h-54.8v0.2C237.6,366.3,237.1,366.7,236.7,367.1z
			"/>
	</g>
	<g>
		<line class="st7" x1="238.1" y1="366.1" x2="292.9" y2="366.1"/>
		<line class="st7" x1="292.9" y1="361.2" x2="292.9" y2="366.1"/>
		<polyline class="st0" points="234.4,364.6 238.1,364.5 252.1,364.2 		"/>
		<line class="st7" x1="252.1" y1="364.2" x2="252.1" y2="361.7"/>
		<line class="st7" x1="252.1" y1="361.1" x2="292.3" y2="361.1"/>
		<polyline class="st6" points="236.2,368 236.7,367.1 238.1,364.7 		"/>
		<path class="st0" d="M238.1,366.3c-0.5,0-1,0.3-1.4,0.8c-0.5,0.6-0.9,1.4-0.8,2.1"/>
	</g>
</g>
<path class="st0" d="M273,331.4c3.3-2.1-0.5-9.7-5.5-8"/>
<path class="st0" d="M267.5,323.4c-3.3,2.1,0.5,9.7,5.5,8"/>
<line class="st0" x1="122.4" y1="290.3" x2="79.5" y2="317.3"/>
<line class="st1" x1="228.1" y1="289.2" x2="125.6" y2="289.1"/>
<line class="st1" x1="342.4" y1="312.4" x2="228.1" y2="289.2"/>
<line class="st1" x1="368.9" y1="402" x2="347.2" y2="315.1"/>
<line class="st0" x1="106.2" y1="402.1" x2="78.2" y2="321.1"/>
<path class="st1" d="M106.2,402.1c1.4,3.4,5.6,3.4,10.3,3.4"/>
<path class="st0" d="M79.5,317.3c-0.8,0.7-1.9,2.8-1.3,3.8"/>
<path class="st0" d="M122.4,290.3c1.1-0.9,2.3-1.1,3.3-1.1"/>
<path class="st1" d="M342.4,312.4c2.4,0.5,4.3,1.4,4.7,2.7"/>
<path class="st1" d="M366.3,402c1.7,2.3,2.9,2.5,6.9,2"/>
<path class="st1" d="M368.9,402c0.4,2.1,1.9,2.1,3.8,2.1"/>
<path class="st1" d="M342.4,315.7c1.8,0.5,2.5,0.5,2.8,1.6"/>
<line class="st1" x1="373.2" y1="404" x2="410.2" y2="321.8"/>
<line class="st1" x1="435.4" y1="141.8" x2="435.4" y2="399.8"/>
<line class="st1" x1="413.7" y1="319.7" x2="427.9" y2="394.4"/>
<line class="st1" x1="346.3" y1="112.8" x2="429.9" y2="133.4"/>
<line class="st1" x1="338.5" y1="112.5" x2="259" y2="112.5"/>
<line class="st1" x1="254.6" y1="114.6" x2="221.9" y2="138.8"/>
<line class="st1" x1="221.9" y1="138.8" x2="79.5" y2="317.3"/>
<line class="st6" x1="124" y1="289.1" x2="256.8" y2="113.1"/>
<line class="st6" x1="225.8" y1="289.2" x2="340.8" y2="112.2"/>
<line class="st6" x1="344.1" y1="312.6" x2="432.8" y2="135.1"/>
<path class="st1" d="M410.2,321.8c1.3-2.6,2.8-5.9,3.6-2.1"/>
<path class="st1" d="M427.9,394.4c0.7,3.8,3.4,5.4,7.6,5.4"/>
<line class="st1" x1="414.8" y1="318.8" x2="429" y2="393.5"/>
<path class="st1" d="M429,393.5c0.7,3.8,2.3,6.3,6.5,6.3"/>
<path class="st1" d="M411.9,318.6c0,0.1,1.8-2.1,2.9,0.3"/>
<path class="st1" d="M429.9,133.4c4.6,1.3,5.3,5.3,5.3,8.5"/>
<path class="st1" d="M337.9,112.5c3.7,0,7.3,0.2,9.2,0.5"/>
<path class="st1" d="M254.6,114.6c2.2-2,4.4-2,4.4-2"/>
<path class="st1" d="M397.1,301.3c-2.8,4.9-1,17.1,2.4,17.1"/>
<path class="st1" d="M400.7,317.3c2.8-4.9,1-17.1-2.4-17.1"/>
<path class="st1" d="M397.1,301.3c0.6-0.9,0.6-0.9,1.2-1"/>
<path class="st1" d="M400.7,317.3c-0.2,0.6-0.5,0.8-1.2,1"/>
<line class="st6" x1="398.7" y1="305" x2="398.3" y2="307.7"/>
<line class="st6" x1="398.7" y1="305" x2="399.7" y2="307.3"/>
<line class="st6" x1="399.7" y1="307.3" x2="400.7" y2="307.3"/>
<line class="st6" x1="400.7" y1="307.3" x2="399.9" y2="308.8"/>
<line class="st6" x1="399.9" y1="308.8" x2="401" y2="310"/>
<line class="st6" x1="401" y1="310" x2="399.9" y2="310.9"/>
<line class="st6" x1="399.9" y1="310.9" x2="399.5" y2="313.6"/>
<line class="st6" x1="399.5" y1="313.6" x2="398.7" y2="311.1"/>
<line class="st6" x1="398.7" y1="311.1" x2="397.6" y2="311.1"/>
<line class="st6" x1="397.6" y1="311.1" x2="398.5" y2="309"/>
<line class="st6" x1="398.5" y1="309" x2="397.1" y2="308"/>
<line class="st6" x1="397.1" y1="308" x2="398.3" y2="307.7"/>
<path class="st1" d="M419.8,254.3c-2.8,4.9-1,17,2.4,17"/>
<path class="st1" d="M423.3,270.3c2.8-4.9,1-17.1-2.4-17.1"/>
<path class="st1" d="M419.8,254.3c0.6-0.9,0.6-0.9,1.2-1"/>
<path class="st1" d="M423.3,270.3c-0.2,0.6-0.5,0.8-1.2,1"/>
<line class="st6" x1="421.3" y1="258" x2="421" y2="260.7"/>
<line class="st6" x1="421.3" y1="258" x2="422.3" y2="260.3"/>
<line class="st6" x1="422.3" y1="260.3" x2="423.3" y2="260.3"/>
<line class="st6" x1="423.3" y1="260.3" x2="422.6" y2="261.8"/>
<line class="st6" x1="422.6" y1="261.8" x2="423.6" y2="263"/>
<line class="st6" x1="423.6" y1="263" x2="422.6" y2="263.9"/>
<line class="st6" x1="422.6" y1="263.9" x2="422.1" y2="266.6"/>
<line class="st6" x1="422.1" y1="266.6" x2="421.3" y2="264.1"/>
<line class="st6" x1="421.3" y1="264.1" x2="420.3" y2="264.1"/>
<line class="st6" x1="420.3" y1="264.1" x2="421.1" y2="262"/>
<line class="st6" x1="421.1" y1="262" x2="419.8" y2="261"/>
<line class="st6" x1="419.8" y1="261" x2="421" y2="260.7"/>
<line class="st0" x1="110.5" y1="402.1" x2="82.8" y2="322"/>
<line class="st0" x1="125.6" y1="293" x2="83.4" y2="319.8"/>
<path class="st0" d="M82.8,322c-0.5-0.9-0.2-1.7,0.6-2.3"/>
<path class="st1" d="M110.5,402.1c1.3,2.8,3.6,3.4,6,3.4"/>
<path class="st0" d="M130.7,300.4c0-1.1,0.7-2,1.5-2"/>
<path class="st0" d="M167.7,425.8c0.6,1.1,1.7,2.1,3.5,2.1"/>
<path class="st1" d="M259.9,425.5c0,1.1-1,2.3-2.3,2.3"/>
<line class="st7" x1="248.9" y1="377.4" x2="261.9" y2="423.4"/>
<path class="st6" d="M251.6,371.9c-2.9,0-3.4,2.7-2.7,5.5"/>
<path class="st7" d="M261.9,423.4c0.3,2.7-1.8,4.4-4.3,4.4"/>
<path class="st6" d="M272.7,330.1c1.6-1-1.2-6.5-3.9-5.6"/>
<path class="st6" d="M268.8,324.5c-1.6,1,1.2,6.5,3.9,5.6"/>
<path class="st6" d="M99.4,334.8c-2.1,1.6,1.1,5.7,3.2,4.4"/>
<path class="st6" d="M102.5,339.2c2.1-1.6-1.1-5.7-3.2-4.4"/>
<path class="st6" d="M116.6,385.1c-2.1,1.6,1.1,5.7,3.2,4.4"/>
<path class="st6" d="M119.8,389.5c2.1-1.6-1.1-5.7-3.2-4.4"/>
<line class="st0" x1="345.6" y1="319" x2="323.4" y2="319"/>
<line class="st1" x1="352.9" y1="348" x2="331.8" y2="348"/>
<path class="st1" d="M341.7,344.6c10.9-8.6-5.8-29.9-17-22.9"/>
<path class="st1" d="M325.1,321.5c-10.9,8.6,5.8,29.9,17,22.9"/>
<path class="st0" d="M331.8,348c-10.9-0.4-21.4-26-8.4-29.1"/>
<path class="st6" d="M333.5,335.8c2.2-1.7-1.2-6-3.4-4.6"/>
<path class="st6" d="M330.1,331.2c-2.2,1.7,1.2,6,3.4,4.6"/>
<line class="st0" x1="358.6" y1="371.1" x2="335.6" y2="371.1"/>
<line class="st1" x1="365.8" y1="400.1" x2="344.1" y2="400.1"/>
<path class="st1" d="M354,396.7c10.9-8.6-5.8-29.9-17-22.9"/>
<path class="st1" d="M337.4,373.6c-10.9,8.6,5.8,29.9,17,22.9"/>
<path class="st0" d="M344.1,400.1c-10.9-0.4-21.4-25.9-8.4-29.1"/>
<path class="st6" d="M345.7,387.9c2.2-1.7-1.2-6-3.4-4.6"/>
<path class="st6" d="M342.4,383.3c-2.2,1.7,1.2,6,3.4,4.6"/>
<line class="st4" x1="211.5" y1="368.7" x2="235.9" y2="368.7"/>
<line class="st3" x1="202.3" y1="344.2" x2="208.8" y2="366.4"/>
<path class="st3" d="M208.8,366.4c0.4,1.4,1.1,2.3,2.7,2.3"/>
<line class="st3" x1="196.7" y1="318.3" x2="198.8" y2="324.2"/>
<line class="st3" x1="200.5" y1="328.4" x2="203.9" y2="339.4"/>
<line class="st3" x1="185" y1="307.9" x2="185.7" y2="310"/>
<line class="st3" x1="187.3" y1="311.5" x2="195.5" y2="317"/>
<line class="st3" x1="152.9" y1="347.9" x2="183.7" y2="314.3"/>
<line class="st3" x1="202.9" y1="342.3" x2="203.6" y2="341.3"/>
<line class="st4" x1="159.8" y1="354" x2="191.6" y2="319.6"/>
<line class="st6" x1="347.8" y1="318.5" x2="435.2" y2="143.5"/>
<line class="st6" x1="230.7" y1="289.6" x2="345.7" y2="112.6"/>
<line class="st6" x1="126.4" y1="289.1" x2="259.2" y2="113.1"/>
<path class="st3" d="M209.3,372.7c0.5-0.6,1-1,1.9-1"/>
<path class="st3" d="M206.3,368.7c0.2,0.8,0,1.7-0.3,2.2"/>
<path class="st3" d="M203.9,339.4c0.3,0.9,0.1,1.5-0.3,1.9"/>
<path class="st3" d="M202.4,344.4c-0.2-0.7,0.1-1.7,0.5-2.1"/>
<path class="st3" d="M183.7,314.3c0.6-0.6,1.4-0.8,2.1-0.6"/>
<path class="st3" d="M185.7,310c0.4,0.8,0.8,1,1.6,1.6"/>
<path class="st3" d="M182.6,310.3c0.2,0.8-0.2,1.5-0.6,2.2"/>
<path class="st3" d="M191.6,319.6c0.7-0.7,0.5-1.8-0.4-2.3"/>
<path class="st3" d="M193.1,322.1c0.5-0.5,1.3-0.9,1.7-0.3"/>
<path class="st3" d="M196.7,318.3c-0.4-0.8-0.6-0.9-1.2-1.3"/>
<line class="st6" x1="132.1" y1="296.1" x2="219.3" y2="296.1"/>
<path class="st7" d="M130.1,300c-0.6-2,1.2-3.9,2-3.9"/>
<line class="st6" x1="95.6" y1="349.1" x2="113.6" y2="349.1"/>
<line class="st7" x1="113.2" y1="398.7" x2="131.2" y2="398.7"/>
<line class="st6" x1="365.2" y1="397.8" x2="344.8" y2="397.8"/>
<path class="st6" d="M344.8,397.8c-10.9-0.4-19.4-23.7-6.1-26.9"/>
<line class="st6" x1="352.3" y1="345.8" x2="332.5" y2="345.9"/>
<path class="st6" d="M332.5,345.9c-10.9-0.4-19.4-23.7-6.1-26.9"/>
<line class="st9" x1="478.9" y1="400.8" x2="434.4" y2="400.8"/>
<line class="st10" x1="475.5" y1="111.9" x2="345.1" y2="111.9"/>
<line class="st9" x1="465.6" y1="111.6" x2="465.6" y2="400.4"/>
<g id="XMLID_3_">
	<g>
		<path class="st8" d="M465.6,111.6l1.7,12c-1.6-1.5-3.5,0-3.5,0L465.6,111.6z"/>
	</g>
	<g>
		<line class="st9" x1="465.6" y1="111.6" x2="463.9" y2="123.6"/>
		<line class="st9" x1="465.6" y1="111.6" x2="467.3" y2="123.6"/>
		<path class="st9" d="M463.9,123.6c0,0,1.8-1.5,3.5,0"/>
	</g>
</g>
<g id="XMLID_4_">
	<g>
		<path class="st8" d="M465.6,400.4l1.7-12c-1.6,1.5-3.5,0-3.5,0L465.6,400.4z"/>
	</g>
	<g>
		<line class="st9" x1="465.6" y1="400.4" x2="463.9" y2="388.4"/>
		<line class="st9" x1="465.6" y1="400.4" x2="467.3" y2="388.4"/>
		<path class="st9" d="M463.9,388.4c0,0,1.8,1.5,3.5,0"/>
	</g>
</g>
<g>
	<path class="st8" d="M450.5,276.7l-1.2-0.7v-2.6h12.1v1.3h-10.8V276.7z"/>
	<path class="st8" d="M460.1,260.9h1.2v7.8l-6.7-5.7c-0.6-0.5-1.2-0.8-2-0.8c-1.3,0-2.3,1.1-2.3,2.4c0,1.5,1.1,2.4,2.5,2.4v1.3
		c-2.1,0-3.7-1.6-3.7-3.7c0-2,1.5-3.8,3.6-3.8c1,0,1.8,0.3,2.5,0.9l4.9,4.2V260.9z"/>
	<path class="st8" d="M454.4,255.2c0-1.3-0.4-2.4-2-2.4c-1.3,0-2.1,0.8-2.1,2.1c0,1.2,0.8,1.9,1.9,2v1.3c-1.9-0.2-3.2-1.4-3.2-3.3
		c0-1.9,1.3-3.4,3.3-3.4c1.1,0,2.1,0.6,2.6,1.6c0.5-1.2,1.7-1.7,3-1.7c2.1,0,3.6,1.7,3.6,3.7c0,2-1.3,3.6-3.3,3.6v-1.3
		c1.2-0.1,2.1-1.1,2.1-2.3c0-1.3-1.1-2.4-2.4-2.4c-1.5,0-2.3,1.1-2.3,2.6H454.4z"/>
</g>
<line class="st9" x1="38.9" y1="432.2" x2="173.6" y2="432.2"/>
<line class="st9" x1="37.8" y1="288.9" x2="350.7" y2="288.9"/>
<line class="st9" x1="50" y1="288.6" x2="50" y2="431.8"/>
<g id="XMLID_6_">
	<g>
		<path class="st8" d="M50,288.5l-1.7,12c1.6-1.5,3.5,0,3.5,0L50,288.5z"/>
	</g>
	<g>
		<line class="st9" x1="50" y1="288.5" x2="51.7" y2="300.5"/>
		<line class="st9" x1="50" y1="288.5" x2="48.2" y2="300.5"/>
		<path class="st9" d="M51.7,300.5c0,0-1.8-1.5-3.5,0"/>
	</g>
</g>
<g id="XMLID_5_">
	<g>
		<path class="st8" d="M50,431.8l-1.7-12c1.6,1.5,3.5,0,3.5,0L50,431.8z"/>
	</g>
	<g>
		<line class="st9" x1="50" y1="431.8" x2="51.7" y2="419.8"/>
		<line class="st9" x1="50" y1="431.8" x2="48.2" y2="419.8"/>
		<path class="st9" d="M51.7,419.8c0,0-1.8,1.5-3.5,0"/>
	</g>
</g>
<g>
	<path class="st8" d="M364.6,207.1l-0.8-1.2l1.2-2.4l10.8,5.4l-0.6,1.2l-9.7-4.8L364.6,207.1z"/>
	<path class="st8" d="M369.9,196.5l2,1.9l0.3-0.7c1.1-2.1,3.5-2.8,5.6-1.7c2.2,1.1,3,3.7,1.9,5.9c-0.7,1.4-2,2.2-3.6,2.3l-0.2-1.3
		c1.1-0.1,2.2-0.6,2.7-1.6c0.8-1.6,0.2-3.3-1.4-4.1c-1.5-0.8-3.2-0.1-4,1.4c-0.4,0.7-0.4,1.6-0.3,2.4l-4.4-4.1l2.1-4.3l1.1,0.6
		L369.9,196.5z"/>
	<path class="st8" d="M380.7,185.6c2.7,1.3,4.9,4.2,3.6,6.6s-4.8,2.4-7.5,1.1c-2.2-1.1-5-3.9-3.7-6.7
		C374.5,184,378.5,184.5,380.7,185.6z M377.5,192.2c1.5,0.7,4.7,1.5,5.7-0.5c1-2-1.6-4.1-3.1-4.9c-1.5-0.8-4.9-1.6-5.9,0.4
		C373.3,189.3,376,191.4,377.5,192.2z"/>
</g>
<line class="st9" x1="77.4" y1="477.4" x2="77.4" y2="319.6"/>
<line class="st9" x1="348.9" y1="478.5" x2="348.9" y2="314.6"/>
<line class="st9" x1="348.9" y1="466.3" x2="77.8" y2="466.3"/>
<g id="XMLID_8_">
	<g>
		<path class="st8" d="M348.9,466.3l-12,1.7c1.5-1.6,0-3.5,0-3.5L348.9,466.3z"/>
	</g>
	<g>
		<line class="st9" x1="348.9" y1="466.3" x2="337" y2="464.6"/>
		<line class="st9" x1="348.9" y1="466.3" x2="337" y2="468"/>
		<path class="st9" d="M337,464.6c0,0,1.5,1.8,0,3.5"/>
	</g>
</g>
<g id="XMLID_7_">
	<g>
		<path class="st8" d="M77.8,466.3l12,1.7c-1.5-1.6,0-3.5,0-3.5L77.8,466.3z"/>
	</g>
	<g>
		<line class="st9" x1="77.8" y1="466.3" x2="89.7" y2="464.6"/>
		<line class="st9" x1="77.8" y1="466.3" x2="89.7" y2="468"/>
		<path class="st9" d="M89.7,464.6c0,0-1.5,1.8,0,3.5"/>
	</g>
</g>
<g>
	<path class="st8" d="M197.9,451.2l0.7-1.2h2.6v12.1h-1.3v-10.8H197.9z"/>
	<path class="st8" d="M214.5,456c0,3-1.6,6.2-4.3,6.2c-2.8,0-4.3-3.2-4.3-6.2c0-2.5,1.3-6.3,4.3-6.3
		C213.2,449.8,214.5,453.6,214.5,456z M207.2,456.1c0,1.7,0.8,4.9,3,4.9c2.2,0,2.9-3.2,3-4.9c0-1.7-0.7-5.1-3-5.1
		S207.1,454.4,207.2,456.1z"/>
	<path class="st8" d="M219.6,451.2l-0.8,2.6l0.7-0.1c2.4,0,4,1.9,4,4.2c0,2.5-2,4.3-4.4,4.3c-1.6,0-2.9-0.8-3.7-2.2l1.1-0.8
		c0.5,1,1.5,1.7,2.7,1.7c1.8,0,3-1.3,3-3.1c0-1.7-1.3-2.9-3-2.9c-0.8,0-1.6,0.3-2.3,0.8l1.7-5.8h4.8v1.2H219.6z"/>
</g>
<line class="st9" x1="432.4" y1="112" x2="339.9" y2="288.9"/>
<g id="XMLID_10_">
	<g>
		<path class="st8" d="M432.4,112l-6.9,9.9c2.1-0.6,3.1,1.5,3.1,1.5L432.4,112z"/>
	</g>
	<g>
		<line class="st9" x1="432.4" y1="112" x2="428.6" y2="123.4"/>
		<line class="st9" x1="432.4" y1="112" x2="425.5" y2="121.9"/>
		<path class="st9" d="M428.6,123.4c0,0-1-2.1-3.1-1.5"/>
	</g>
</g>
<g id="XMLID_9_">
	<g>
		<path class="st8" d="M339.9,288.8l4.1-11.4c0.8,2.1,3,1.6,3,1.6L339.9,288.8z"/>
	</g>
	<g>
		<line class="st9" x1="339.9" y1="288.8" x2="347.1" y2="279.1"/>
		<line class="st9" x1="339.9" y1="288.8" x2="344" y2="277.5"/>
		<path class="st9" d="M347.1,279.1c0,0-2.3,0.5-3-1.6"/>
	</g>
</g>
<g>
	<path class="st8" d="M33.2,370.6l3.7,2.8l0,0c-0.1-0.3-0.2-0.7-0.2-1.1c0-2.2,1.8-3.9,4-3.9c2.3,0,4.1,1.9,4.1,4.2
		c0,2.3-1.9,4.2-4.1,4.2c-1.1,0-2-0.5-2.9-1.1l-5.5-4L33.2,370.6z M40.8,369.7c-1.6,0-2.8,1.3-2.8,2.8c0,1.6,1.2,2.8,2.8,2.8
		c1.6,0,2.8-1.2,2.8-2.8C43.7,370.9,42.4,369.7,40.8,369.7z"/>
	<path class="st8" d="M43.5,359.1h1.2v7.8l-6.7-5.7c-0.6-0.5-1.2-0.8-2-0.8c-1.3,0-2.3,1.1-2.3,2.4c0,1.5,1.1,2.4,2.5,2.4v1.3
		c-2.1,0-3.7-1.6-3.7-3.7c0-2,1.5-3.8,3.6-3.8c1,0,1.8,0.3,2.5,0.9l4.9,4.2V359.1z"/>
</g>
<line class="st9" x1="435.5" y1="442.8" x2="348.9" y2="466.3"/>
<g id="XMLID_12_">
	<g>
		<path class="st8" d="M435.5,442.8l-11.1,4.8c1-2-0.9-3.3-0.9-3.3L435.5,442.8z"/>
	</g>
	<g>
		<line class="st9" x1="435.5" y1="442.8" x2="423.5" y2="444.2"/>
		<line class="st9" x1="435.5" y1="442.8" x2="424.4" y2="447.5"/>
		<path class="st9" d="M423.5,444.2c0,0,1.9,1.4,0.9,3.3"/>
	</g>
</g>
<g id="XMLID_11_">
	<g>
		<path class="st8" d="M348.9,466.3l12-1.4c-1.9-1.2-0.9-3.3-0.9-3.3L348.9,466.3z"/>
	</g>
	<g>
		<line class="st9" x1="348.9" y1="466.3" x2="360" y2="461.5"/>
		<line class="st9" x1="348.9" y1="466.3" x2="360.9" y2="464.9"/>
		<path class="st9" d="M360,461.5c0,0-1,2.1,0.9,3.3"/>
	</g>
</g>
<line class="st9" x1="435.5" y1="452" x2="435.5" y2="397.8"/>
<line class="st9" x1="435.5" y1="431.8" x2="426.6" y2="434.1"/>
<line class="st9" x1="426.6" y1="445.1" x2="426.6" y2="434.1"/>
<g>
	<path class="st8" d="M376,439.8l0.4-1.4l2.6-0.7l3.1,11.7l-1.3,0.3l-2.8-10.5L376,439.8z"/>
	<path class="st8" d="M393.7,444.9l0.3,1.2l-7.5,2l3.7-7.9c0.3-0.7,0.5-1.4,0.3-2.2c-0.3-1.3-1.7-2-2.9-1.6c-1.4,0.4-2,1.7-1.7,3
		l-1.3,0.3c-0.5-2.1,0.6-4,2.6-4.6c1.9-0.5,4,0.4,4.6,2.5c0.3,0.9,0.2,1.8-0.2,2.7l-2.8,5.8L393.7,444.9z"/>
	<path class="st8" d="M396.9,434.1l-0.1,2.7l0.7-0.2c2.3-0.6,4.4,0.8,5,3c0.6,2.4-0.8,4.7-3.2,5.3c-1.5,0.4-3,0-4.1-1.1l0.8-1
		c0.8,0.8,1.9,1.2,3,0.9c1.7-0.5,2.6-2.1,2.1-3.8c-0.4-1.7-2-2.5-3.7-2c-0.8,0.2-1.5,0.7-2,1.3l0.2-6l4.6-1.2l0.3,1.2L396.9,434.1z"
		/>
</g>
<line class="st9" x1="401.6" y1="171.1" x2="433.3" y2="400.4"/>
<g id="XMLID_14_">
	<g>
		<path class="st8" d="M401.6,171.1l3.4,11.6c-1.8-1.2-3.4,0.5-3.4,0.5L401.6,171.1z"/>
	</g>
	<g>
		<line class="st9" x1="401.6" y1="171.1" x2="401.5" y2="183.2"/>
		<line class="st9" x1="401.6" y1="171.1" x2="405" y2="182.7"/>
		<path class="st9" d="M401.5,183.2c0,0,1.6-1.7,3.4-0.5"/>
	</g>
</g>
<g id="XMLID_13_">
	<g>
		<path class="st8" d="M433.3,400.4l0-12.1c-1.4,1.7-3.4,0.5-3.4,0.5L433.3,400.4z"/>
	</g>
	<g>
		<line class="st9" x1="433.3" y1="400.4" x2="429.9" y2="388.8"/>
		<line class="st9" x1="433.3" y1="400.4" x2="433.3" y2="388.3"/>
		<path class="st9" d="M429.9,388.8c0,0,2,1.2,3.4-0.5"/>
	</g>
</g>
<g>
	<path class="st8" d="M402.6,278.3l-1.3-0.5l-0.4-2.6l12-1.7l0.2,1.3l-10.7,1.5L402.6,278.3z"/>
	<path class="st8" d="M405,261.2c2.9-0.4,6.4,0.7,6.8,3.4c0.4,2.7-2.6,4.7-5.6,5.1c-2.5,0.3-6.4-0.4-6.8-3.4
		C399,263.3,402.6,261.5,405,261.2z M406.1,268.4c1.7-0.3,4.8-1.4,4.5-3.6c-0.3-2.2-3.6-2.5-5.3-2.3c-1.7,0.2-4.9,1.4-4.6,3.7
		C401,268.4,404.4,268.7,406.1,268.4z"/>
	<path class="st8" d="M400.9,252.7c1-0.1,2.2,0.2,2.8,1.1c0.3-1.2,1.4-2,2.6-2.2c2.1-0.3,3.8,1.1,4.1,3.1c0.3,2.1-1,3.9-3,4.1
		c-1.2,0.2-2.5-0.3-3.1-1.4c-0.4,1-1.4,1.7-2.4,1.8c-1.9,0.3-3.5-1-3.8-2.9C397.8,254.7,399,253,400.9,252.7z M401.7,258.2
		c1.2-0.2,2-1.2,1.8-2.4c-0.2-1.1-1.2-1.9-2.4-1.8c-1.1,0.2-1.9,1.2-1.8,2.4C399.5,257.5,400.5,258.3,401.7,258.2z M407.2,257.6
		c1.3-0.2,2.2-1.3,2-2.6s-1.4-2.2-2.6-2c-1.3,0.2-2.2,1.3-2,2.6S406,257.8,407.2,257.6z"/>
</g>
<line class="st9" x1="403.3" y1="182.4" x2="398.7" y2="191.2"/>
<line class="st9" x1="397.1" y1="179.6" x2="398.7" y2="191.2"/>
</svg>
