<?xml version="1.0" encoding="utf-8"?>
<!-- Generator: Adobe Illustrator 23.0.3, SVG Export Plug-In . SVG Version: 6.00 Build 0)  -->
<svg version="1.1" id="Слой_1" xmlns="http://www.w3.org/2000/svg" xmlns:xlink="http://www.w3.org/1999/xlink" x="0px" y="0px"
	 viewBox="0 0 500 600" style="enable-background:new 0 0 500 600;" xml:space="preserve">
<style type="text/css">
	.st0{fill:none;stroke:#4C86B9;stroke-miterlimit:10;}
	.st1{fill:none;stroke:#4C86B9;stroke-width:0.5;stroke-miterlimit:10;}
	.st2{fill:none;stroke:#4C86B9;stroke-linecap:round;stroke-miterlimit:10;}
	.st3{fill:none;stroke:#4C86B9;stroke-width:0.25;stroke-miterlimit:10;}
	.st4{fill:#4C86B9;}
	.st5{fill:none;stroke:#4C86B9;stroke-width:0.8;stroke-miterlimit:10;}
	.st6{fill:none;stroke:#4C86B9;stroke-width:0.2;stroke-miterlimit:10;}
</style>
<line class="st0" x1="159.9" y1="139.5" x2="451" y2="129.8"/>
<line class="st0" x1="159.9" y1="529.1" x2="159.9" y2="139.5"/>
<line class="st0" x1="177" y1="537.1" x2="159.9" y2="529.1"/>
<line class="st0" x1="446.2" y1="486.7" x2="177" y2="537.1"/>
<line class="st0" x1="461.2" y1="142.7" x2="461.2" y2="360.9"/>
<path class="st0" d="M461.2,142.7c0-2.6-0.6-4.3-1.4-5.5"/>
<line class="st0" x1="206.9" y1="182.7" x2="450.1" y2="153.5"/>
<path class="st0" d="M461.2,142.7c0,5.9-4.1,9-11.2,10.7"/>
<path class="st0" d="M171.9,146.1c4.4,24.3,19,38.4,35,36.6"/>
<line class="st0" x1="159.9" y1="139.5" x2="171.9" y2="146.1"/>
<line class="st0" x1="459.9" y1="137.2" x2="171.9" y2="146.1"/>
<line class="st0" x1="202.5" y1="525.8" x2="449" y2="469.1"/>
<path class="st0" d="M459.9,469.1c0-3.1-6.4-1.2-10.9,0"/>
<path class="st0" d="M177,537.1c2.8-2,13.5-8.8,25.5-11.3"/>
<line class="st1" x1="187" y1="175.2" x2="187" y2="530.6"/>
<line class="st1" x1="203.6" y1="182.9" x2="203.6" y2="411.1"/>
<line class="st1" x1="459.9" y1="364.7" x2="204.2" y2="411.1"/>
<path class="st2" d="M461.2,360.9c0,2.5-0.4,3.4-1.4,3.7"/>
<path class="st1" d="M202.5,414.5c0-2.6,0.3-3.1,1.7-3.4"/>
<line class="st1" x1="202.5" y1="414.5" x2="202.5" y2="525.8"/>
<line class="st0" x1="459.9" y1="364.7" x2="459.9" y2="469.1"/>
<path class="st0" d="M459.9,469.1c0,2.6-11.4,17-13.7,17.6"/>
<line class="st3" x1="159.9" y1="139.5" x2="50.6" y2="139.5"/>
<line class="st3" x1="159.9" y1="529.1" x2="50.6" y2="529.1"/>
<line class="st3" x1="159.9" y1="108.9" x2="159.9" y2="139.4"/>
<line class="st3" x1="451" y1="99.2" x2="451" y2="129.8"/>
<line class="st3" x1="434.7" y1="214.3" x2="137.2" y2="230.1"/>
<line class="st3" x1="160.4" y1="180.3" x2="71.3" y2="182.1"/>
<line class="st3" x1="58.3" y1="140" x2="58.3" y2="529.1"/>
<line class="st3" x1="451" y1="106.6" x2="159.9" y2="116.2"/>
<g id="XMLID_1_">
	<g>
		<path class="st4" d="M160.1,116.2l20.4-2.9c-3.5,2.9,0,5.9,0,5.9L160.1,116.2z"/>
	</g>
	<g>
		<line class="st3" x1="160.1" y1="116.2" x2="180.5" y2="113.2"/>
		<line class="st3" x1="160.1" y1="116.2" x2="180.5" y2="119.2"/>
		<path class="st3" d="M180.5,113.2c-3.5,2.9,0,5.9,0,5.9"/>
	</g>
</g>
<g id="XMLID_2_">
	<g>
		<path class="st4" d="M450.8,106.5l-20.4-2.9c3.5,2.9,0,5.9,0,5.9L450.8,106.5z"/>
	</g>
	<g>
		<line class="st3" x1="450.8" y1="106.5" x2="430.4" y2="103.6"/>
		<line class="st3" x1="450.8" y1="106.5" x2="430.4" y2="109.5"/>
		<path class="st3" d="M430.4,103.6c3.5,2.9,0,5.9,0,5.9"/>
	</g>
</g>
<g id="XMLID_3_">
	<g>
		<path class="st4" d="M58.3,140.2l3,20.4c-3-3.5-5.9,0-5.9,0L58.3,140.2z"/>
	</g>
	<g>
		<line class="st3" x1="58.3" y1="140.2" x2="61.3" y2="160.6"/>
		<line class="st3" x1="58.3" y1="140.2" x2="55.3" y2="160.6"/>
		<path class="st3" d="M61.3,160.6c-3-3.5-5.9,0-5.9,0"/>
	</g>
</g>
<g id="XMLID_4_">
	<g>
		<path class="st4" d="M58.3,529l-2.9-20.4c2.9,3.5,5.9,0,5.9,0L58.3,529z"/>
	</g>
	<g>
		<line class="st3" x1="58.3" y1="529" x2="55.4" y2="508.6"/>
		<line class="st3" x1="58.3" y1="529" x2="61.2" y2="508.6"/>
		<path class="st3" d="M55.4,508.6c2.9,3.5,5.9,0,5.9,0"/>
	</g>
</g>
<g>
	<g>
		<path class="st4" d="M296.1,95.7l0.7-1.2h2.6v12.1h-1.3V95.7H296.1z"/>
		<path class="st4" d="M312.6,103.3v1.2h-1.5v2h-1.3v-2h-6.2l7.5-10.8h0v9.5H312.6z M309.7,97.9L309.7,97.9l-3.8,5.5h3.8V97.9z"/>
		<path class="st4" d="M322.6,100.5c0,3-1.6,6.2-4.3,6.2c-2.8,0-4.3-3.2-4.3-6.2c0-2.5,1.3-6.3,4.3-6.3
			C321.3,94.3,322.6,98.1,322.6,100.5z M315.3,100.6c0,1.7,0.8,4.9,3,4.9c2.2,0,2.9-3.2,3-4.9c0-1.7-0.7-5.1-3-5.1
			C316,95.5,315.2,98.9,315.3,100.6z"/>
	</g>
</g>
<g>
	<path class="st4" d="M39.5,340.7l-1.2-0.7v-2.6h12.1v1.3H39.5V340.7z"/>
	<path class="st4" d="M38.8,326.5l3.7,2.8l0,0c-0.1-0.3-0.2-0.7-0.2-1.1c0-2.2,1.8-3.9,4-3.9c2.3,0,4.1,1.9,4.1,4.2
		c0,2.3-1.9,4.2-4.1,4.2c-1.1,0-2-0.5-2.9-1.1l-5.5-4L38.8,326.5z M46.4,325.7c-1.6,0-2.8,1.3-2.8,2.8c0,1.6,1.2,2.8,2.8,2.8
		c1.6,0,2.8-1.2,2.8-2.8C49.3,326.9,48,325.7,46.4,325.7z"/>
	<path class="st4" d="M39.5,319l2.6,0.8L42,319c0-2.4,1.9-4,4.2-4c2.5,0,4.3,2,4.3,4.4c0,1.6-0.8,2.9-2.2,3.7l-0.8-1.1
		c1-0.5,1.7-1.5,1.7-2.7c0-1.8-1.3-3-3.1-3c-1.7,0-2.9,1.3-2.9,3c0,0.8,0.3,1.6,0.8,2.3l-5.8-1.7v-4.8h1.2V319z"/>
</g>
<line class="st0" x1="459.9" y1="137.2" x2="451" y2="129.8"/>
<line class="st3" x1="152" y1="229.3" x2="80.6" y2="182.1"/>
<g id="XMLID_5_">
	<g>
		<path class="st4" d="M80.7,182.1l18.5,8.9c-4.5,0.5-3.3,4.9-3.3,4.9L80.7,182.1z"/>
	</g>
</g>
<g id="XMLID_6_">
	<g>
		<path class="st4" d="M151.4,228.8l-18.5-8.9c4.5-0.5,3.3-4.9,3.3-4.9L151.4,228.8z"/>
	</g>
	<g>
		<line class="st3" x1="151.4" y1="228.8" x2="132.9" y2="219.8"/>
		<line class="st3" x1="151.4" y1="228.8" x2="136.2" y2="214.9"/>
		<path class="st3" d="M132.9,219.8c4.5-0.5,3.3-4.9,3.3-4.9"/>
	</g>
</g>
<g>
	<g>
		<path class="st4" d="M118,195.3c1.1,0.6,2.3,0.9,3.1-0.4c0.7-1.1,0.4-2.2-0.7-2.9c-1-0.6-2-0.3-2.7,0.6l-1.1-0.7
			c1.2-1.5,2.8-2,4.5-0.9c1.6,1,2.2,2.9,1.2,4.6c-0.6,0.9-1.6,1.5-2.7,1.4c0.7,1.1,0.5,2.4-0.1,3.4c-1.1,1.8-3.3,2.1-5.1,1.1
			c-1.7-1-2.3-3-1.3-4.7l1.1,0.7c-0.6,1.1-0.2,2.4,0.9,3c1.1,0.7,2.6,0.3,3.3-0.8c0.8-1.3,0.3-2.5-1-3.3L118,195.3z"/>
		<path class="st4" d="M126.9,196.3l1.3-0.7l2.2,1.4l-6.4,10.2l-1.1-0.7l5.7-9.2L126.9,196.3z"/>
	</g>
</g>
<line class="st3" x1="459.9" y1="365.6" x2="202.6" y2="412.8"/>
<ellipse class="st5" cx="433.7" cy="186" rx="5.8" ry="7.1"/>
<ellipse class="st6" cx="434.2" cy="186" rx="3.8" ry="4.6"/>
<ellipse class="st5" cx="433.7" cy="213.2" rx="5.8" ry="7.1"/>
<ellipse class="st6" cx="434.2" cy="213.2" rx="3.8" ry="4.6"/>
</svg>
