<?xml version="1.0" encoding="utf-8"?>
<!-- Generator: Adobe Illustrator 23.0.3, SVG Export Plug-In . SVG Version: 6.00 Build 0)  -->
<svg version="1.1"
	 id="_x30_" xmlns:cc="http://creativecommons.org/ns#" xmlns:dc="http://purl.org/dc/elements/1.1/" xmlns:inkscape="http://www.inkscape.org/namespaces/inkscape" xmlns:rdf="http://www.w3.org/1999/02/22-rdf-syntax-ns#" xmlns:sodipodi="http://sodipodi.sourceforge.net/DTD/sodipodi-0.dtd" xmlns:svg="http://www.w3.org/2000/svg"
	 xmlns="http://www.w3.org/2000/svg" xmlns:xlink="http://www.w3.org/1999/xlink" x="0px" y="0px" viewBox="0 0 500 500"
	 style="enable-background:new 0 0 500 500;" xml:space="preserve">
<style type="text/css">
	.st0{opacity:0.5;fill:none;stroke:#4E86B9;stroke-width:1.0817;enable-background:new    ;}
	.st1{opacity:0.5;fill:none;stroke:#4E86B9;stroke-width:0.6;enable-background:new    ;}
	.st2{fill:none;stroke:#4E86B9;stroke-width:0.35;}
	.st3{fill:none;stroke:#4E86B9;stroke-width:0.3;}
	.st4{fill:#4E86B9;}
	.st5{fill:none;stroke:#4E86B9;stroke-width:0.35;stroke-linecap:round;}
	.st6{fill:none;stroke:#4E86B9;stroke-width:0.6;}
	.st7{fill:none;stroke:#4E86B9;stroke-width:0.6;stroke-linecap:round;}
	.st8{opacity:0.5;fill:none;stroke:#4E86B9;stroke-width:0.35;enable-background:new    ;}
	.st9{fill:none;stroke:#4E86B9;stroke-width:0.6;stroke-linecap:square;}
	.st10{fill:none;stroke:#4E86B9;stroke-miterlimit:10;}
</style>
<path id="path5_1_" class="st0" d="M230.8,53.2c-4.9,8.7-9.7,18.6-14.1,30.1"/>
<path id="path7_1_" class="st1" d="M314.8,61.9c-7.2,13.1-9.7,18.3-15.4,33.1"/>
<line id="line9_1_" class="st2" x1="329.4" y1="63.6" x2="370.7" y2="69.3"/>
<line id="line11_1_" class="st3" x1="221.7" y1="28.6" x2="178.3" y2="148.4"/>
<line id="line13_1_" class="st3" x1="329.5" y1="188.1" x2="372.6" y2="194"/>
<line id="line15_1_" class="st3" x1="331.3" y1="104.8" x2="358.2" y2="108.3"/>
<line id="line17_1_" class="st3" x1="247" y1="186" x2="271.8" y2="189.4"/>
<line id="line19_1_" class="st3" x1="271.8" y1="155.1" x2="271.8" y2="193.1"/>
<line id="line21_1_" class="st3" x1="351.6" y1="107.6" x2="351.6" y2="191.1"/>
<line id="line23_1_" class="st3" x1="367.2" y1="68.5" x2="367.2" y2="193.5"/>
<line id="line25_1_" class="st3" x1="212.9" y1="27.3" x2="246" y2="31.8"/>
<line id="line27_1_" class="st3" x1="171.5" y1="147.5" x2="204.6" y2="152"/>
<line id="line29_1_" class="st3" x1="359.4" y1="27.4" x2="331.9" y2="103.1"/>
<line id="line31_1_" class="st3" x1="241.2" y1="14.7" x2="357.9" y2="31.3"/>
<line id="line33_1_" class="st3" x1="270.7" y1="31.9" x2="319.2" y2="39.4"/>
<g id="XMLID_56_">
	<g id="g36_1_">
		<path id="path38_1_" class="st4" d="M352.2,186.1l-0.6,4.9l0,0l-0.6-4.9C351,186.1,351.7,186.9,352.2,186.1z"/>
	</g>
</g>
<g id="XMLID_55_">
	<g id="g41_1_">
		<path id="path43_1_" class="st4" d="M367.8,188.5l-0.6,4.9l0,0l-0.6-4.9C366.5,188.5,367.2,189.3,367.8,188.5z"/>
	</g>
</g>
<g id="XMLID_54_">
	<g id="g46_1_">
		<path id="path48_1_" class="st4" d="M352.3,112.5l-0.6-4.9l0,0l-0.6,4.9C351,112.5,351.7,111.7,352.3,112.5z"/>
	</g>
</g>
<g id="XMLID_53_">
	<g id="g51_1_">
		<path id="path53_1_" class="st4" d="M367.7,73.9l-0.6-4.9l0,0l-0.6,4.9C366.5,73.9,367.2,73.1,367.7,73.9z"/>
	</g>
</g>
<g id="XMLID_52_">
	<g id="g56_1_">
		<path id="path58_1_" class="st4" d="M275.7,32.1l-5-0.1l0,0l4.7,1.4C275.4,33.4,274.8,32.5,275.7,32.1z"/>
	</g>
</g>
<g id="XMLID_51_">
	<g id="g61_1_">
		<path id="path63_1_" class="st4" d="M246.4,14.8l-5-0.1l0,0l4.7,1.4C246.1,16.1,245.5,15.3,246.4,14.8z"/>
	</g>
</g>
<g id="XMLID_50_">
	<g id="g66_1_">
		<path id="path68_1_" class="st4" d="M314.2,39.3l5,0.1l0,0l-4.7-1.4C314.5,38,315.1,38.8,314.2,39.3z"/>
	</g>
</g>
<g id="XMLID_49_">
	<g id="g71_1_">
		<path id="path73_1_" class="st4" d="M352.9,31.1l5,0.1l0,0l-4.7-1.4C353.1,29.9,353.8,30.7,352.9,31.1z"/>
	</g>
</g>
<g id="XMLID_48_">
	<g id="g76_1_">
		<path id="path78_1_" class="st4" d="M220.6,33.5l1.1-4.9l-2.3,4.4C219.4,33.1,220.3,32.6,220.6,33.5z"/>
	</g>
</g>
<g id="XMLID_47_">
	<g id="g81_1_">
		<path id="path83_1_" class="st4" d="M179.4,143.5l-1.1,4.9l0,0l2.3-4.4C180.6,143.9,179.7,144.4,179.4,143.5z"/>
	</g>
</g>
<line id="line85_1_" class="st1" x1="216.3" y1="88.5" x2="246.4" y2="92.8"/>
<line id="line87_1_" class="st1" x1="304.4" y1="97.7" x2="328.7" y2="101"/>
<path id="path89_1_" class="st1" d="M297.5,100.3c3.1-9.2,4.7-13,7.1-18.2"/>
<line id="line91_1_" class="st1" x1="298.6" y1="96.9" x2="303.6" y2="97.6"/>
<line id="line93_1_" class="st1" x1="299" y1="99.2" x2="305.6" y2="100.2"/>
<line id="line95_1_" class="st1" x1="298.9" y1="61" x2="298.9" y2="99.2"/>
<line id="line97_1_" class="st5" x1="298.9" y1="60.2" x2="298.9" y2="61"/>
<line id="line99_1_" class="st1" x1="297.5" y1="100.3" x2="297.6" y2="101.2"/>
<line id="line101_1_" class="st5" x1="273.9" y1="58.9" x2="273.9" y2="158.1"/>
<line id="line103_1_" class="st1" x1="297.5" y1="100.3" x2="304.2" y2="101.2"/>
<line id="line105_1_" class="st1" x1="216.2" y1="87.5" x2="248.5" y2="92.1"/>
<line id="line107_1_" class="st1" x1="216.3" y1="86.8" x2="248.7" y2="91.4"/>
<line id="line109_1_" class="st6" x1="203.3" y1="151.7" x2="203.3" y2="234.3"/>
<line id="line111_1_" class="st6" x1="220.2" y1="149.6" x2="220.2" y2="231.2"/>
<line id="line113_1_" class="st6" x1="244.3" y1="103.9" x2="244.3" y2="182.7"/>
<line id="line115_1_" class="st7" x1="246.9" y1="97" x2="246.9" y2="154.4"/>
<line id="line117_1_" class="st6" x1="204.9" y1="235.2" x2="214.3" y2="236.5"/>
<line id="line119_1_" class="st7" x1="213.7" y1="91.9" x2="246.8" y2="96.4"/>
<line id="line121_1_" class="st7" x1="215.4" y1="87.4" x2="216.3" y2="87.5"/>
<line id="line123_1_" class="st6" x1="246" y1="31.8" x2="256.3" y2="33.1"/>
<path id="path125_1_" class="st6" d="M248.1,93c-8.5,22.3-24,54.4-31.5,59.7"/>
<path id="path127_1_" class="st6" d="M257.3,54.6c1.5-10,1.9-15.8,1.5-19.3"/>
<path id="path129_1_" class="st6" d="M244.3,108.3c-8.5,22.3-18.2,40.8-23.8,48.1"/>
<path id="path131_1_" class="st6" d="M244.3,111.8c-8.5,22.3-16.8,37.7-24,47.9"/>
<path id="path133_1_" class="st6" d="M244.2,177.8c-8.5,22.3-18.2,39-23.9,47.7"/>
<path id="path135_1_" class="st6" d="M244.2,174c-8.5,22.3-19.2,41.8-24,48.6"/>
<line id="line137_1_" class="st8" x1="241.5" y1="52.7" x2="241.5" y2="92.1"/>
<path id="path139_1_" class="st6" d="M246.3,177.5c-7.9,22.3-22,51.2-29.5,57.6"/>
<line id="line141_1_" class="st6" x1="204.9" y1="152.1" x2="214.8" y2="153.3"/>
<path id="path143_1_" class="st6" d="M216.6,152.7c-0.6,0.5-1.4,0.6-1.8,0.6"/>
<path id="path145_1_" class="st6" d="M202,149.6c0,1.5,1.4,2.3,2.8,2.5"/>
<path id="path147_1_" class="st6" d="M203.3,234.3c0.2,0.4,0.5,0.8,1.5,1"/>
<path id="path149_1_" class="st6" d="M216.8,235.1c-0.9,0.9-1.5,1.3-2.5,1.4"/>
<path id="path151_1_" class="st2" d="M271.4,155.8c0,0.2-0.6,0.3-1.3,0.3"/>
<path id="path153_1_" class="st5" d="M271.4,56.3c0-0.2-0.4-0.3-1-0.3"/>
<path id="path155_1_" class="st6" d="M258.8,35.3c0-1.2-1.1-2.2-2.5-2.2"/>
<path id="path157_1_" class="st6" d="M243.5,33.1c0.7-0.7,1.1-1.3,2.5-1.3"/>
<path id="path159_1_" class="st5" d="M241.5,52.8c0-0.2,0.1-0.9,0.8-0.8"/>
<path id="path161_1_" class="st1" d="M252.5,154.7c2.7-11.5,5.8-25.4,5.8-41.2"/>
<path id="path163_1_" class="st1" d="M251.1,154.5c1.8-6.6,7-26.4,7.1-41.1"/>
<line id="line165_1_" class="st6" x1="248.1" y1="153.3" x2="248.1" y2="172.7"/>
<line id="line167_1_" class="st1" x1="248.3" y1="93.3" x2="248.2" y2="153.1"/>
<line id="line169_1_" class="st7" x1="215.4" y1="86.7" x2="216.3" y2="86.9"/>
<line id="line171_1_" class="st5" x1="242.3" y1="52" x2="270.9" y2="55.5"/>
<line id="line173_1_" class="st5" x1="271.8" y1="55.8" x2="271.8" y2="155.3"/>
<path id="path175_1_" class="st5" d="M271.8,55.8c0-0.2-0.4-0.3-1-0.3"/>
<line id="line177_1_" class="st5" x1="270.7" y1="56" x2="271.5" y2="55.6"/>
<line id="line179_1_" class="st5" x1="271.1" y1="56.2" x2="271.8" y2="55.8"/>
<line id="line181_1_" class="st2" x1="271.4" y1="155.8" x2="271.8" y2="155.3"/>
<path id="path183_1_" class="st1" d="M257.6,54.7c-3.6,20.7-6.3,31.4-9.2,39.5"/>
<path id="path185_1_" class="st6" d="M257.6,54.7c1.2-7.1,1.8-15.8,1.5-19.6"/>
<line id="line187_1_" class="st1" x1="258.2" y1="54.8" x2="258.2" y2="116.6"/>
<path id="path189_1_" class="st1" d="M258.2,116.6c-0.3,20.8-2.6,29.4-4.5,38.3"/>
<path id="path191_1_" class="st6" d="M251.3,154c-1,3.4-2.1,7-3.3,10.2"/>
<path id="path193_1_" class="st6" d="M252.6,154.1c-1.3,4.8-2.5,8.4-4.4,13.1"/>
<path id="path195_1_" class="st6" d="M253.9,154.2c-1.6,6.6-3.7,13.1-7.6,23.2"/>
<line id="line197_1_" class="st6" x1="258.2" y1="51" x2="258.2" y2="54.6"/>
<path id="path199_1_" class="st6" d="M259.1,35.1c-0.4-1-0.5-1.4-1.9-1.9"/>
<path id="path201_1_" class="st6" d="M248.3,93.5c-8.5,22.3-23.9,54.5-31.5,59.8"/>
<line id="line203_1_" class="st6" x1="205.1" y1="152.6" x2="215" y2="153.9"/>
<path id="path205_1_" class="st6" d="M216.8,153.3c-0.6,0.5-1.4,0.6-1.8,0.6"/>
<line id="line207_1_" class="st2" x1="247" y1="153.3" x2="270.1" y2="156.1"/>
<path id="path209_1_" class="st6" d="M202.1,149.9c0.2,1.2,1.3,2.4,3,2.7"/>
<line id="line211_1_" class="st6" x1="286.5" y1="161.7" x2="286.5" y2="244.2"/>
<line id="line213_1_" class="st6" x1="303.5" y1="159.5" x2="303.5" y2="241.1"/>
<line id="line215_1_" class="st9" x1="327.5" y1="113.8" x2="327.5" y2="192.6"/>
<line id="line217_1_" class="st6" x1="288.1" y1="245.2" x2="297.5" y2="246.4"/>
<line id="line219_1_" class="st9" x1="296.9" y1="101.8" x2="330" y2="106.4"/>
<line id="line221_1_" class="st9" x1="297.1" y1="101.2" x2="328.1" y2="105.5"/>
<line id="line223_1_" class="st9" x1="304.2" y1="101.2" x2="328.7" y2="104.7"/>
<line id="line225_1_" class="st7" x1="329.2" y1="41.8" x2="339.6" y2="43"/>
<path id="path227_1_" class="st7" d="M340.5,64.5c1.6-10,1.9-15.8,1.5-19.3"/>
<path id="path229_1_" class="st6" d="M327.5,118.2c-8.5,22.3-18.2,40.8-23.8,48.1"/>
<path id="path231_1_" class="st6" d="M327.5,121.7c-8.5,22.3-16.8,37.7-24,47.9"/>
<path id="path233_1_" class="st6" d="M327.4,187.8c-8.5,22.3-18.2,39-23.9,47.7"/>
<path id="path235_1_" class="st6" d="M327.4,184c-8.5,22.3-19.2,41.8-24,48.6"/>
<path id="path237_1_" class="st6" d="M329.5,187.4c-7.9,22.3-22,51.2-29.5,57.6"/>
<line id="line239_1_" class="st6" x1="288.1" y1="162" x2="298" y2="163.3"/>
<path id="path241_1_" class="st6" d="M299.8,162.6c-0.6,0.5-1.3,0.6-1.8,0.6"/>
<path id="path243_1_" class="st6" d="M285.3,159.5c0,1.5,1.4,2.3,2.8,2.5"/>
<path id="path245_1_" class="st6" d="M286.5,244.2c0.2,0.4,0.5,0.8,1.6,1"/>
<path id="path247_1_" class="st6" d="M300.1,245c-0.9,0.9-1.5,1.3-2.5,1.4"/>
<path id="path249_1_" class="st7" d="M342.1,45.2c0-1.2-1.1-2.2-2.5-2.2"/>
<path id="path251_1_" class="st7" d="M326.7,43c0.7-0.7,1.1-1.3,2.5-1.3"/>
<path id="path253_1_" class="st6" d="M335.6,164.6c2.7-11.5,5.8-25.4,5.8-41.2"/>
<path id="path255_1_" class="st6" d="M334.4,164.5c1.8-6.6,7-26.4,7.1-41.1"/>
<line id="line257_1_" class="st6" x1="331.2" y1="104.2" x2="331.2" y2="182.8"/>
<line id="line259_1_" class="st7" x1="329.4" y1="101.2" x2="332" y2="101.5"/>
<path id="path261_1_" class="st7" d="M340.8,64.6c1.2-7.1,1.8-15.8,1.5-19.6"/>
<line id="line263_1_" class="st6" x1="341.4" y1="60.9" x2="341.4" y2="126.5"/>
<path id="path265_1_" class="st6" d="M341.4,126.5c-0.3,20.8-2.6,29.4-4.5,38.3"/>
<path id="path267_1_" class="st6" d="M334.4,164.5c-1,3.4-1.9,6.4-3.1,9.6"/>
<path id="path269_1_" class="st6" d="M335.6,164.6c-1.3,4.8-2.3,7.9-4.3,12.5"/>
<path id="path271_1_" class="st6" d="M336.9,164.8c-1.6,6.6-3.6,12.4-7.4,22.6"/>
<path id="path273_1_" class="st7" d="M342.3,45c-0.4-1-0.5-1.4-1.9-1.9"/>
<line id="line275_1_" class="st6" x1="288.3" y1="162.6" x2="298.2" y2="163.8"/>
<path id="path277_1_" class="st6" d="M300,163.3c-0.6,0.5-1.3,0.6-1.8,0.6"/>
<path id="path279_1_" class="st6" d="M285.3,159.9c0.2,1.2,1.3,2.4,3,2.7"/>
<line id="line281_1_" class="st5" x1="274.2" y1="58.5" x2="302.8" y2="62"/>
<path id="path283_1_" class="st5" d="M303.7,62.4c0-0.2-0.4-0.3-1-0.3"/>
<path id="path285_1_" class="st5" d="M273.9,58.9c0-0.2,0.2-0.4,0.4-0.4"/>
<line id="line287_1_" class="st5" x1="274.7" y1="58" x2="303.3" y2="61.6"/>
<path id="path289_1_" class="st5" d="M304.2,61.9c0-0.2-0.4-0.3-1-0.3"/>
<line id="line291_1_" class="st5" x1="273.9" y1="58.5" x2="274.7" y2="58"/>
<line id="line293_1_" class="st5" x1="303.1" y1="62" x2="303.9" y2="61.7"/>
<line id="line295_1_" class="st5" x1="303.6" y1="62.2" x2="304.2" y2="61.9"/>
<line id="line297_1_" class="st2" x1="274.4" y1="158.6" x2="285.3" y2="160.1"/>
<path id="path299_1_" class="st2" d="M273.9,158.1c0,0.1,0.2,0.6,0.5,0.6"/>
<path id="path301_1_" class="st9" d="M285.3,159.5c1.9-21.7,6.1-42.7,11.8-58.3"/>
<line id="line303_1_" class="st5" x1="241.8" y1="52.4" x2="270.4" y2="56"/>
<path id="path305_1_" class="st6" d="M331.3,103.7c-8.8,21.7-23.9,53.5-31.5,58.9"/>
<path id="path307_1_" class="st7" d="M340.6,64.4c-3.6,20.7-6.7,31.7-9.4,39.7"/>
<path id="path309_1_" class="st7" d="M340.8,64.5c-3.6,20.7-6.8,32.3-9.5,40.3"/>
<path id="path311_1_" class="st6" d="M331.3,104.8c-8.8,21.3-23.8,53-31.3,58.3"/>
<line id="line313_1_" class="st5" x1="299.3" y1="59.9" x2="327.9" y2="63.4"/>
<line id="line315_1_" class="st5" x1="328.8" y1="63.7" x2="328.8" y2="103.3"/>
<path id="path317_1_" class="st5" d="M328.8,63.7c0-0.2-0.4-0.3-1-0.3"/>
<path id="path319_1_" class="st5" d="M298.9,60.2c0-0.2,0.2-0.4,0.4-0.4"/>
<line id="line321_1_" class="st5" x1="299.8" y1="59.4" x2="328.4" y2="63"/>
<line id="line323_1_" class="st5" x1="329.3" y1="63.3" x2="329.3" y2="102.5"/>
<path id="path325_1_" class="st5" d="M329.3,63.3c0-0.2-0.4-0.3-1-0.3"/>
<line id="line327_1_" class="st5" x1="299" y1="59.9" x2="299.8" y2="59.4"/>
<line id="line329_1_" class="st5" x1="328.1" y1="63.5" x2="328.9" y2="63"/>
<line id="line331_1_" class="st5" x1="328.6" y1="63.6" x2="329.3" y2="63.3"/>
<line id="line333_1_" class="st9" x1="328.1" y1="105.5" x2="328.7" y2="104.7"/>
<line id="line335_1_" class="st9" x1="328.8" y1="103.3" x2="329.3" y2="102.5"/>
<line id="line337_1_" class="st9" x1="304.2" y1="100" x2="328.7" y2="103.5"/>
<line id="line339_1_" class="st7" x1="214.8" y1="88.3" x2="216.4" y2="88.5"/>
<line id="line341_1_" class="st2" x1="216.3" y1="51.4" x2="216.3" y2="90.6"/>
<line id="line343_1_" class="st5" x1="216.7" y1="51.2" x2="245.3" y2="54.8"/>
<line id="line345_1_" class="st5" x1="246.2" y1="55.1" x2="246.3" y2="94.8"/>
<path id="path347_1_" class="st5" d="M246.2,55.1c0-0.2-0.4-0.3-1-0.3"/>
<path id="path349_1_" class="st2" d="M216.3,51.5c0-0.2,0.2-0.4,0.4-0.4"/>
<line id="line351_1_" class="st5" x1="217.2" y1="50.7" x2="245.8" y2="54.3"/>
<line id="line353_1_" class="st5" x1="246.7" y1="54.6" x2="246.7" y2="93.8"/>
<path id="path355_1_" class="st5" d="M246.7,54.6c0-0.2-0.4-0.3-1-0.3"/>
<line id="line357_1_" class="st2" x1="216.4" y1="51.2" x2="217.2" y2="50.7"/>
<line id="line359_1_" class="st5" x1="245.6" y1="54.8" x2="246.4" y2="54.3"/>
<line id="line361_1_" class="st5" x1="246" y1="55" x2="246.7" y2="54.6"/>
<line id="line363_1_" class="st7" x1="246.3" y1="94.8" x2="246.7" y2="93.8"/>
<line id="line365_1_" class="st7" x1="216.3" y1="90.6" x2="246.1" y2="95.1"/>
<line id="line367_1_" class="st2" x1="241.5" y1="52.4" x2="241.5" y2="53.7"/>
<line id="line369_1_" class="st7" x1="246.4" y1="92.8" x2="248.1" y2="93"/>
<line id="line371_1_" class="st5" x1="303.7" y1="62.4" x2="303.7" y2="102"/>
<line id="line373_1_" class="st5" x1="304.2" y1="61.9" x2="304.2" y2="102.1"/>
<path id="path375_1_" class="st7" d="M326.7,43c-4.6,6.8-8.2,12.3-11.6,18.3"/>
<path id="path377_1_" class="st6" d="M243.5,33.1c-5.3,7.5-8.8,13.3-12.2,19.3"/>
<path id="path379_1_" class="st7" d="M216.2,84.5c-7.1,19.1-12.6,42.8-14.2,65"/>
<line id="line381_1_" class="st3" x1="243" y1="10.1" x2="215.1" y2="87.5"/>
<line id="line383_1_" class="st3" x1="272.3" y1="27.1" x2="248.2" y2="93.5"/>
<line id="line385_1_" class="st3" x1="321" y1="34.9" x2="297.5" y2="100.3"/>
<line id="line387_1_" class="st3" x1="247" y1="153.6" x2="247" y2="189.7"/>
<g id="XMLID_46_">
	<g id="g390_1_">
		<path id="path392_1_" class="st4" d="M266.8,189.3l5,0.1l0,0l-4.7-1.4C267,187.9,267.7,188.8,266.8,189.3z"/>
	</g>
</g>
<g id="XMLID_45_">
	<g id="g395_1_">
		<path id="path397_1_" class="st4" d="M252.1,186.1l-5-0.1l0,0l4.7,1.4C251.9,187.4,251.2,186.6,252.1,186.1z"/>
	</g>
</g>
<path id="path429_1_" class="st6" d="M231.7,302c-7.1,12.8-9.5,18-15.2,32.5"/>
<line id="line431_1_" class="st2" x1="217.2" y1="300.2" x2="217.2" y2="339.2"/>
<line id="line433_1_" class="st2" x1="217.6" y1="300.1" x2="217.6" y2="338.9"/>
<line id="line435_1_" class="st6" x1="217.3" y1="339.2" x2="221.6" y2="339.8"/>
<line id="line437_1_" class="st6" x1="165.5" y1="335.8" x2="165.5" y2="391.2"/>
<line id="line439_1_" class="st2" x1="192.5" y1="395.9" x2="192.9" y2="396.5"/>
<path id="path441_1_" class="st6" d="M214.8,339.6c3.1-9.1,4.9-13.4,7.3-18.6"/>
<path id="path443_1_" class="st9" d="M203.1,397.3c1.9-21.4,6.1-42.4,11.7-57.7"/>
<path id="path445_1_" class="st6" d="M297,349.2c3.1-9.1,4.7-12.8,7.1-18"/>
<line id="line447_1_" class="st6" x1="216.3" y1="335.6" x2="222.2" y2="336.5"/>
<line id="line449_1_" class="st6" x1="215.8" y1="336.7" x2="222.1" y2="337.6"/>
<line id="line451_1_" class="st6" x1="286.3" y1="409.7" x2="286.3" y2="491"/>
<line id="line453_1_" class="st6" x1="288.4" y1="410.6" x2="288.4" y2="491.9"/>
<line id="line455_1_" class="st6" x1="297.1" y1="411.9" x2="297.1" y2="493.2"/>
<line id="line457_1_" class="st6" x1="300.5" y1="410.3" x2="300.5" y2="490.9"/>
<line id="line459_1_" class="st6" x1="303" y1="407.5" x2="303" y2="487.9"/>
<line id="line461_1_" class="st6" x1="326.6" y1="362.5" x2="326.6" y2="440.1"/>
<line id="line463_1_" class="st6" x1="287.8" y1="491.9" x2="297.1" y2="493.2"/>
<line id="line465_1_" class="st6" x1="296.5" y1="350.7" x2="329.1" y2="355.2"/>
<line id="line467_1_" class="st6" x1="328.3" y1="291.6" x2="338.5" y2="292.8"/>
<path id="path469_1_" class="st6" d="M330.2,352.5c-8.3,22-23.4,52.9-30.8,58.1"/>
<path id="path471_1_" class="st6" d="M339.5,313.9c1.5-9.9,1.8-15.6,1.5-18.9"/>
<path id="path473_1_" class="st6" d="M326.6,366.9c-8.3,22-17.9,40.1-23.5,47.4"/>
<path id="path475_1_" class="st6" d="M326.6,370.4c-8.3,22-16.6,37.2-23.7,47.2"/>
<path id="path477_1_" class="st6" d="M326.6,435.4c-8.3,22-17.9,38.4-23.6,47"/>
<path id="path479_1_" class="st6" d="M326.6,431.6c-8.3,22-18.9,41.2-23.7,47.8"/>
<path id="path481_1_" class="st6" d="M328.6,435.1c-7.7,22-21.7,50.4-29,56.7"/>
<line id="line483_1_" class="st6" x1="287.8" y1="410" x2="297.6" y2="411.2"/>
<path id="path485_1_" class="st6" d="M299.4,410.6c-0.6,0.5-1.3,0.6-1.8,0.6"/>
<path id="path487_1_" class="st6" d="M285,407.5c0,1.4,1.4,2.3,2.8,2.5"/>
<path id="path489_1_" class="st6" d="M286.3,491c0.2,0.4,0.5,0.8,1.5,1"/>
<path id="path491_1_" class="st6" d="M299.6,491.8c-0.8,0.8-1.4,1.3-2.5,1.4"/>
<path id="path493_1_" class="st6" d="M341,295c0-1.2-1.1-2.2-2.5-2.2"/>
<path id="path495_1_" class="st6" d="M325.8,292.8c0.6-0.7,1.1-1.2,2.5-1.2"/>
<path id="path497_1_" class="st6" d="M334.7,412.5c2.7-11.3,5.7-25.1,5.7-40.6"/>
<path id="path499_1_" class="st6" d="M333.4,412.4c1.8-6.5,6.9-26,7-40.4"/>
<line id="line501_1_" class="st6" x1="330.3" y1="352.1" x2="330.3" y2="430.5"/>
<path id="path503_1_" class="st6" d="M339.5,313.9c-3.6,20.4-6.1,29.9-8.7,37.8"/>
<path id="path505_1_" class="st6" d="M339.8,314c-3.6,20.4-6.3,30.5-8.9,38.4"/>
<path id="path507_1_" class="st6" d="M339.8,314c1.2-7,1.8-15.5,1.4-19.3"/>
<line id="line509_1_" class="st6" x1="340.4" y1="310.4" x2="340.4" y2="375.1"/>
<path id="path511_1_" class="st6" d="M340.4,375.1c-0.3,20.4-2.5,29-4.4,37.7"/>
<path id="path513_1_" class="st6" d="M333.4,412.4c-1,3.3-1.9,6.3-3.1,9.4"/>
<path id="path515_1_" class="st6" d="M334.7,412.5c-1.3,4.8-2.3,7.7-4.2,12.4"/>
<path id="path517_1_" class="st6" d="M336,412.8c-1.6,6.5-3.6,12.2-7.3,22.2"/>
<line id="line519_1_" class="st6" x1="330.8" y1="351.6" x2="330.8" y2="352.5"/>
<line id="line521_1_" class="st6" x1="330.9" y1="352.1" x2="330.3" y2="352.1"/>
<path id="path523_1_" class="st6" d="M341.2,294.7c-0.4-1-0.5-1.4-1.9-1.9"/>
<path id="path525_1_" class="st6" d="M330.3,353.1c-8.3,22-23.4,52.9-30.8,58.1"/>
<line id="line527_1_" class="st6" x1="288" y1="410.6" x2="297.8" y2="411.8"/>
<path id="path529_1_" class="st6" d="M299.6,411.2c-0.6,0.5-1.3,0.6-1.8,0.6"/>
<line id="line531_1_" class="st6" x1="330.3" y1="352.6" x2="330.3" y2="353.5"/>
<path id="path533_1_" class="st6" d="M285.1,407.9c0.2,1.2,1.3,2.4,3,2.7"/>
<line id="line535_1_" class="st2" x1="192.7" y1="396.3" x2="203.1" y2="397.6"/>
<line id="line537_1_" class="st6" x1="204.3" y1="399.5" x2="204.3" y2="480.8"/>
<line id="line539_1_" class="st6" x1="206.5" y1="400.4" x2="206.5" y2="481.7"/>
<line id="line541_1_" class="st6" x1="215.2" y1="401.6" x2="215.2" y2="482.9"/>
<line id="line543_1_" class="st6" x1="218.6" y1="400.1" x2="218.6" y2="480.8"/>
<line id="line545_1_" class="st6" x1="221" y1="397.3" x2="221" y2="477.7"/>
<line id="line547_1_" class="st6" x1="244.7" y1="352.3" x2="244.7" y2="429.9"/>
<line id="line549_1_" class="st6" x1="247.2" y1="346.5" x2="247.2" y2="402.7"/>
<line id="line551_1_" class="st6" x1="205.9" y1="481.7" x2="215.2" y2="482.9"/>
<line id="line553_1_" class="st6" x1="214.5" y1="340.5" x2="247.2" y2="344.9"/>
<line id="line555_1_" class="st6" x1="246.4" y1="281.3" x2="256.6" y2="282.6"/>
<path id="path557_1_" class="st6" d="M247.7,343.6c-8.2,21-22.8,51.5-30.3,56.8"/>
<path id="path559_1_" class="st6" d="M257.6,303.7c1.5-9.9,1.8-15.6,1.5-18.9"/>
<path id="path561_1_" class="st6" d="M244.7,356.7c-8.3,22-17.9,40.1-23.5,47.4"/>
<path id="path563_1_" class="st6" d="M244.7,360.1c-8.3,22-16.6,37.2-23.7,47.2"/>
<path id="path565_1_" class="st6" d="M244.6,425.2c-8.3,22-17.9,38.4-23.5,47"/>
<path id="path567_1_" class="st6" d="M244.6,421.4c-8.3,22-18.9,41.2-23.7,47.8"/>
<path id="path569_1_" class="st6" d="M246.7,424.8c-7.7,22-21.7,50.4-29,56.7"/>
<line id="line571_1_" class="st6" x1="205.9" y1="399.8" x2="215.6" y2="401"/>
<path id="path573_1_" class="st6" d="M217.4,400.4c-0.6,0.5-1.3,0.6-1.8,0.6"/>
<path id="path575_1_" class="st6" d="M203.1,397.3c0,1.4,1.4,2.3,2.8,2.5"/>
<path id="path577_1_" class="st6" d="M204.3,480.8c0.2,0.4,0.5,0.8,1.5,1"/>
<path id="path579_1_" class="st6" d="M217.7,481.5c-0.8,0.8-1.4,1.3-2.5,1.4"/>
<path id="path581_1_" class="st6" d="M259.1,284.7c0-1.2-1.1-2.2-2.5-2.2"/>
<path id="path583_1_" class="st6" d="M243.9,282.6c0.6-0.7,1.1-1.2,2.5-1.2"/>
<path id="path585_1_" class="st6" d="M252.7,402.3c2.7-11.3,5.7-25.1,5.7-40.6"/>
<path id="path587_1_" class="st6" d="M251.5,402.2c1.8-6.5,6.9-26,7-40.4"/>
<line id="line589_1_" class="st6" x1="248.4" y1="401.9" x2="248.4" y2="420.1"/>
<line id="line591_1_" class="st6" x1="248.4" y1="342.2" x2="248.4" y2="401.7"/>
<path id="path593_1_" class="st6" d="M257.6,303.7c-3.6,20.4-6.1,29.9-8.7,37.8"/>
<line id="line595_1_" class="st6" x1="247.4" y1="401.7" x2="247.4" y2="402.3"/>
<line id="line597_1_" class="st6" x1="247.2" y1="402.6" x2="247.4" y2="402.3"/>
<path id="path599_1_" class="st6" d="M257.8,303.8c-3.6,20.4-6.3,30.5-8.9,38.4"/>
<path id="path601_1_" class="st6" d="M257.8,303.8c1.2-7,1.8-15.5,1.4-19.3"/>
<line id="line603_1_" class="st6" x1="258.4" y1="304" x2="258.4" y2="364.8"/>
<path id="path605_1_" class="st6" d="M258.4,364.8c-0.3,20.4-2.5,29-4.4,37.7"/>
<path id="path607_1_" class="st6" d="M251.5,402.2c-1,3.3-1.9,6.3-3.1,9.4"/>
<path id="path609_1_" class="st6" d="M252.7,402.3c-1.3,4.8-2.3,7.7-4.2,12.4"/>
<path id="path611_1_" class="st6" d="M254,402.6c-1.6,6.5-3.6,12.2-7.3,22.2"/>
<line id="line613_1_" class="st6" x1="248.9" y1="341.4" x2="248.9" y2="342.3"/>
<line id="line615_1_" class="st6" x1="248.9" y1="342.2" x2="248.4" y2="342.1"/>
<line id="line617_1_" class="st6" x1="258.5" y1="300.3" x2="258.5" y2="303.8"/>
<path id="path619_1_" class="st6" d="M259.3,284.5c-0.4-1-0.5-1.4-1.9-1.9"/>
<path id="path621_1_" class="st6" d="M247.7,344.7c-8.3,21.4-22.6,51.1-30,56.4"/>
<line id="line623_1_" class="st6" x1="206.1" y1="400.3" x2="215.8" y2="401.6"/>
<path id="path625_1_" class="st6" d="M217.6,401c-0.6,0.5-1.3,0.6-1.8,0.6"/>
<line id="line627_1_" class="st6" x1="248.3" y1="342.4" x2="248.3" y2="343.2"/>
<line id="line629_1_" class="st6" x1="247.4" y1="345.8" x2="247.4" y2="401.3"/>
<path id="path631_1_" class="st6" d="M203.1,397.7c0.2,1.2,1.3,2.4,3,2.7"/>
<line id="line633_1_" class="st2" x1="192.5" y1="297.9" x2="220.7" y2="301.4"/>
<path id="path635_1_" class="st2" d="M221.6,301.7c0-0.2-0.4-0.3-1-0.3"/>
<path id="path637_1_" class="st2" d="M192.1,298.2c0-0.2,0.2-0.3,0.4-0.3"/>
<line id="line639_1_" class="st2" x1="193" y1="297.4" x2="221.1" y2="300.9"/>
<path id="path641_1_" class="st2" d="M222.1,301.2c0-0.2-0.4-0.3-1-0.3"/>
<line id="line643_1_" class="st2" x1="192.2" y1="297.9" x2="193" y2="297.4"/>
<line id="line645_1_" class="st2" x1="221" y1="301.4" x2="221.7" y2="301"/>
<line id="line647_1_" class="st2" x1="221.4" y1="301.6" x2="222.1" y2="301.2"/>
<line id="line649_1_" class="st2" x1="192.5" y1="298" x2="192.6" y2="396.1"/>
<line id="line651_1_" class="st2" x1="192.7" y1="396.6" x2="203.1" y2="397.8"/>
<path id="path653_1_" class="st2" d="M192.2,396c0,0.1,0.2,0.6,0.5,0.6"/>
<line id="line655_1_" class="st6" x1="214.5" y1="340.5" x2="247.2" y2="344.9"/>
<path id="path657_1_" class="st9" d="M285,407.5c1.9-21.4,6.3-42.9,11.9-58.3"/>
<line id="line659_1_" class="st6" x1="247.7" y1="343.6" x2="247.7" y2="344.7"/>
<line id="line661_1_" class="st6" x1="248" y1="342.8" x2="248" y2="343.9"/>
<line id="line663_1_" class="st6" x1="247.9" y1="342.9" x2="248.3" y2="342.2"/>
<line id="line665_1_" class="st6" x1="248.1" y1="343.8" x2="248.4" y2="343.1"/>
<line id="line667_1_" class="st6" x1="248" y1="343.9" x2="247.8" y2="343.8"/>
<line id="line669_1_" class="st6" x1="122.4" y1="389.4" x2="122.4" y2="470.6"/>
<line id="line671_1_" class="st6" x1="124.6" y1="390.3" x2="124.6" y2="471.6"/>
<line id="line673_1_" class="st6" x1="133.3" y1="391.5" x2="133.3" y2="472.8"/>
<line id="line675_1_" class="st6" x1="136.7" y1="389.9" x2="136.7" y2="470.6"/>
<line id="line677_1_" class="st6" x1="139.2" y1="387.2" x2="139.2" y2="467.6"/>
<line id="line679_1_" class="st6" x1="162.8" y1="342.2" x2="162.8" y2="419.8"/>
<line id="line681_1_" class="st6" x1="165.3" y1="336.3" x2="165.3" y2="392.6"/>
<line id="line683_1_" class="st6" x1="124" y1="471.6" x2="133.3" y2="472.8"/>
<line id="line685_1_" class="st6" x1="132.6" y1="330.3" x2="165.3" y2="334.8"/>
<line id="line687_1_" class="st6" x1="164.5" y1="271.2" x2="174.7" y2="272.4"/>
<path id="path689_1_" class="st6" d="M166.3,332.1c-8.3,22-23.4,52.9-30.8,58.1"/>
<path id="path691_1_" class="st6" d="M175.7,293.6c1.5-9.9,1.8-15.6,1.5-18.9"/>
<path id="path693_1_" class="st6" d="M162.8,346.6c-8.3,22-17.9,40.1-23.5,47.4"/>
<path id="path695_1_" class="st6" d="M162.8,350c-8.3,22-16.6,37.2-23.7,47.2"/>
<path id="path697_1_" class="st6" d="M162.7,415c-8.3,22-17.9,38.4-23.5,47"/>
<path id="path699_1_" class="st6" d="M162.7,411.3c-8.3,22-18.9,41.2-23.7,47.8"/>
<path id="path701_1_" class="st6" d="M164.8,414.7c-7.7,22-21.7,50.4-29,56.7"/>
<line id="line703_1_" class="st6" x1="124" y1="389.6" x2="133.7" y2="390.8"/>
<path id="path705_1_" class="st6" d="M135.6,390.3c-0.6,0.5-1.3,0.6-1.8,0.6"/>
<path id="path707_1_" class="st6" d="M121.2,387.2c0,1.4,1.4,2.3,2.8,2.5"/>
<path id="path709_1_" class="st6" d="M122.4,470.6c0.2,0.4,0.5,0.8,1.5,1"/>
<path id="path711_1_" class="st6" d="M135.8,471.4c-0.8,0.8-1.4,1.3-2.5,1.4"/>
<path id="path713_1_" class="st6" d="M177.2,274.6c0-1.2-1.1-2.2-2.5-2.2"/>
<path id="path715_1_" class="st6" d="M162,272.4c0.6-0.7,1.1-1.2,2.5-1.2"/>
<path id="path717_1_" class="st6" d="M170.8,392.2c2.7-11.3,5.7-25.1,5.7-40.6"/>
<path id="path719_1_" class="st6" d="M169.6,392.1c1.8-6.5,6.9-26,7-40.4"/>
<line id="line721_1_" class="st6" x1="166.5" y1="391.8" x2="166.5" y2="410"/>
<line id="line723_1_" class="st6" x1="166.5" y1="331.3" x2="166.5" y2="391.6"/>
<path id="path725_1_" class="st6" d="M175.7,293.6c-3.6,20.4-6.1,29.9-8.7,37.8"/>
<line id="line727_1_" class="st6" x1="165.5" y1="391.5" x2="165.5" y2="392.2"/>
<line id="line729_1_" class="st6" x1="165.3" y1="392.4" x2="165.5" y2="392.2"/>
<path id="path731_1_" class="st6" d="M175.9,293.7c-3.6,20.4-6.3,30.5-8.9,38.4"/>
<path id="path733_1_" class="st6" d="M175.9,293.7c1.2-7,1.8-15.5,1.4-19.3"/>
<line id="line735_1_" class="st6" x1="176.5" y1="293.8" x2="176.5" y2="354.7"/>
<path id="path737_1_" class="st6" d="M176.5,354.7c-0.3,20.4-2.5,29-4.4,37.7"/>
<path id="path739_1_" class="st6" d="M169.6,392.1c-1,3.3-1.9,6.3-3.1,9.4"/>
<path id="path741_1_" class="st6" d="M170.8,392.2c-1.3,4.8-2.3,7.7-4.2,12.4"/>
<path id="path743_1_" class="st6" d="M172.1,392.4c-1.6,6.5-3.6,12.2-7.3,22.2"/>
<line id="line745_1_" class="st6" x1="167" y1="331.2" x2="167" y2="332.1"/>
<line id="line747_1_" class="st6" x1="167" y1="332" x2="166.5" y2="332"/>
<line id="line749_1_" class="st6" x1="176.6" y1="290.2" x2="176.6" y2="293.6"/>
<path id="path751_1_" class="st6" d="M177.4,274.4c-0.4-1-0.5-1.4-1.9-1.9"/>
<path id="path753_1_" class="st6" d="M166.5,332.7c-8.3,22-23.4,52.9-30.8,58.1"/>
<line id="line755_1_" class="st6" x1="124.2" y1="390.2" x2="134" y2="391.4"/>
<path id="path757_1_" class="st6" d="M135.8,390.8c-0.6,0.5-1.3,0.6-1.8,0.6"/>
<line id="line759_1_" class="st6" x1="166.4" y1="332.2" x2="166.4" y2="333.1"/>
<path id="path761_1_" class="st6" d="M121.2,387.5c0.2,1.2,1.3,2.4,3,2.7"/>
<line id="line763_1_" class="st9" x1="297" y1="348.9" x2="297" y2="347.2"/>
<line id="line765_1_" class="st9" x1="297.4" y1="348.3" x2="297.4" y2="349.1"/>
<line id="line767_1_" class="st6" x1="215.9" y1="336.8" x2="215.9" y2="337.7"/>
<line id="line769_1_" class="st2" x1="192.1" y1="298.2" x2="192.2" y2="396"/>
<path id="path771_1_" class="st6" d="M314.2,311.3c-7.1,12.8-9.5,18-15.2,32.5"/>
<line id="line773_1_" class="st2" x1="328.5" y1="313" x2="369.2" y2="318.6"/>
<line id="line775_1_" class="st3" x1="328.7" y1="435.6" x2="371.1" y2="441.4"/>
<line id="line777_1_" class="st3" x1="330.4" y1="353.6" x2="356.9" y2="357"/>
<line id="line779_1_" class="st3" x1="350.4" y1="356.3" x2="350.4" y2="438.5"/>
<line id="line781_1_" class="st3" x1="365.7" y1="317.8" x2="365.7" y2="440.9"/>
<line id="line783_1_" class="st3" x1="358" y1="277.3" x2="331" y2="351.8"/>
<line id="line785_1_" class="st3" x1="272.3" y1="277.7" x2="320.2" y2="285.1"/>
<g id="XMLID_44_">
	<g id="g788_1_">
		<path id="path790_1_" class="st10" d="M351,433.6l-0.6,4.9l0,0l-0.6-4.8C349.8,433.6,350.5,434.4,351,433.6z"/>
	</g>
</g>
<g id="XMLID_43_">
	<g id="g793_1_">
		<path id="path795_1_" class="st10" d="M366.4,436l-0.6,4.9l0,0l-0.6-4.8C365.1,436,365.8,436.8,366.4,436z"/>
	</g>
</g>
<g id="XMLID_42_">
	<g id="g798_1_">
		<path id="path800_1_" class="st10" d="M351.1,361.1l-0.6-4.9l0,0l-0.6,4.8C349.8,361.1,350.5,360.3,351.1,361.1z"/>
	</g>
</g>
<g id="XMLID_41_">
	<g id="g803_1_">
		<path id="path805_1_" class="st10" d="M366.3,323.1l-0.6-4.9l0,0l-0.6,4.8C365.1,323.1,365.7,322.3,366.3,323.1z"/>
	</g>
</g>
<g id="XMLID_40_">
	<g id="g808_1_">
		<path id="path810_1_" class="st10" d="M277.3,277.8l-4.9-0.1l0,0l4.7,1.4C277,279.1,276.4,278.3,277.3,277.8z"/>
	</g>
</g>
<g id="XMLID_39_">
	<g id="g813_1_">
		<path id="path815_1_" class="st10" d="M315.2,285l4.9,0.1l0,0l-4.7-1.4C315.5,283.7,316.1,284.5,315.2,285z"/>
	</g>
</g>
<line id="line837_1_" class="st2" x1="247.5" y1="401.1" x2="270.8" y2="403.9"/>
<line id="line839_1_" class="st2" x1="274.2" y1="308" x2="274.2" y2="406.1"/>
<line id="line841_1_" class="st6" x1="217.5" y1="337.6" x2="246.7" y2="341.7"/>
<line id="line843_1_" class="st6" x1="217.2" y1="338.9" x2="246.6" y2="343.2"/>
<line id="line845_1_" class="st6" x1="303.6" y1="348.6" x2="327.8" y2="352"/>
<line id="line847_1_" class="st6" x1="247.5" y1="345.4" x2="247.5" y2="401"/>
<line id="line849_1_" class="st6" x1="303.9" y1="346.5" x2="327.8" y2="349.9"/>
<path id="path851_1_" class="st6" d="M297.1,349.1c3.1-9.1,4.6-12.7,7-17.9"/>
<line id="line853_1_" class="st6" x1="298.2" y1="345.8" x2="303.1" y2="346.5"/>
<line id="line855_1_" class="st6" x1="298.5" y1="348.1" x2="305.1" y2="349"/>
<line id="line857_1_" class="st7" x1="298.5" y1="347.8" x2="303.5" y2="348.5"/>
<line id="line859_1_" class="st2" x1="298.5" y1="310.4" x2="298.5" y2="348.1"/>
<line id="line861_1_" class="st2" x1="298.5" y1="309.6" x2="298.5" y2="310.4"/>
<line id="line863_1_" class="st2" x1="298.9" y1="309.4" x2="298.9" y2="347.8"/>
<line id="line865_1_" class="st2" x1="274.1" y1="406" x2="274.6" y2="406.5"/>
<line id="line867_1_" class="st7" x1="297.1" y1="349.1" x2="297.2" y2="350"/>
<line id="line869_1_" class="st2" x1="273.8" y1="308.3" x2="273.8" y2="406"/>
<line id="line871_1_" class="st6" x1="297.1" y1="349.1" x2="303.6" y2="350"/>
<line id="line873_1_" class="st6" x1="217.4" y1="336.5" x2="249" y2="341.1"/>
<line id="line875_1_" class="st6" x1="217.6" y1="336" x2="249.1" y2="340.4"/>
<line id="line877_1_" class="st2" x1="274.3" y1="406.3" x2="284.9" y2="407.7"/>
<line id="line879_1_" class="st7" x1="247.2" y1="345.8" x2="247.2" y2="402.4"/>
<line id="line881_1_" class="st6" x1="216.1" y1="336.4" x2="217.1" y2="336.5"/>
<line id="line883_1_" class="st2" x1="271.3" y1="305.8" x2="271.3" y2="403.8"/>
<line id="line885_1_" class="st2" x1="241.9" y1="302.3" x2="241.9" y2="341.1"/>
<path id="path887_1_" class="st2" d="M271.3,403.8c0,0.2-0.5,0.3-1.2,0.3"/>
<path id="path889_1_" class="st2" d="M271.3,305.8c0-0.2-0.4-0.3-1-0.3"/>
<path id="path891_1_" class="st2" d="M241.9,302.3c0-0.2,0.2-0.3,0.4-0.3"/>
<line id="line893_1_" class="st6" x1="216.2" y1="335.8" x2="217.1" y2="335.9"/>
<line id="line895_1_" class="st2" x1="242.7" y1="301.5" x2="270.8" y2="305"/>
<line id="line897_1_" class="st2" x1="271.8" y1="305.3" x2="271.8" y2="403.3"/>
<path id="path899_1_" class="st2" d="M271.8,305.3c0-0.2-0.4-0.3-1-0.3"/>
<line id="line901_1_" class="st5" x1="241.9" y1="301.9" x2="242.7" y2="301.5"/>
<line id="line903_1_" class="st2" x1="270.7" y1="305.5" x2="271.4" y2="305.1"/>
<line id="line905_1_" class="st2" x1="271.2" y1="305.7" x2="271.8" y2="305.3"/>
<line id="line907_1_" class="st2" x1="271.3" y1="403.8" x2="271.8" y2="403.3"/>
<line id="line909_1_" class="st6" x1="247.6" y1="401.3" x2="247.6" y2="402"/>
<line id="line911_1_" class="st7" x1="247.4" y1="402.3" x2="247.6" y2="402"/>
<line id="line913_1_" class="st2" x1="242.2" y1="302" x2="242.2" y2="340.9"/>
<line id="line915_1_" class="st6" x1="249.1" y1="341.1" x2="249.1" y2="342"/>
<line id="line917_1_" class="st6" x1="249.1" y1="341.6" x2="248.7" y2="341.6"/>
<line id="line919_1_" class="st7" x1="248.6" y1="342.1" x2="248.6" y2="342.8"/>
<line id="line921_1_" class="st2" x1="247.4" y1="401.3" x2="270.1" y2="404.1"/>
<line id="line923_1_" class="st2" x1="270.8" y1="403.9" x2="271.3" y2="403.5"/>
<line id="line925_1_" class="st6" x1="296.5" y1="350.6" x2="329.1" y2="355.2"/>
<line id="line927_1_" class="st6" x1="296.7" y1="350" x2="327.3" y2="354.2"/>
<line id="line929_1_" class="st6" x1="303.6" y1="350" x2="327.8" y2="353.5"/>
<line id="line931_1_" class="st6" x1="328.5" y1="350" x2="331.1" y2="350.3"/>
<line id="line933_1_" class="st2" x1="274.1" y1="307.9" x2="302.3" y2="311.4"/>
<path id="path935_1_" class="st2" d="M303.3,311.8c0-0.2-0.4-0.3-1-0.3"/>
<path id="path937_1_" class="st2" d="M273.8,308.3c0-0.2,0.2-0.3,0.4-0.3"/>
<line id="line939_1_" class="st2" x1="274.6" y1="307.5" x2="302.8" y2="311"/>
<path id="path941_1_" class="st2" d="M303.8,311.3c0-0.2-0.4-0.3-1-0.3"/>
<line id="line943_1_" class="st2" x1="273.9" y1="307.9" x2="274.6" y2="307.5"/>
<line id="line945_1_" class="st2" x1="302.6" y1="311.4" x2="303.4" y2="311.1"/>
<line id="line947_1_" class="st2" x1="303.1" y1="311.6" x2="303.8" y2="311.3"/>
<line id="line949_1_" class="st2" x1="274.3" y1="406.6" x2="285" y2="408"/>
<path id="path951_1_" class="st2" d="M273.9,406c0,0.1,0.2,0.6,0.5,0.6"/>
<line id="line953_1_" class="st5" x1="242.2" y1="301.9" x2="270.4" y2="305.5"/>
<line id="line955_1_" class="st6" x1="330.2" y1="352.8" x2="330.2" y2="353.7"/>
<line id="line957_1_" class="st6" x1="216.1" y1="336.4" x2="216.1" y2="337.4"/>
<line id="line959_1_" class="st2" x1="298.9" y1="309.3" x2="327" y2="312.8"/>
<line id="line961_1_" class="st2" x1="328" y1="313.1" x2="328" y2="352.1"/>
<path id="path963_1_" class="st2" d="M328,313.1c0-0.2-0.4-0.3-1-0.3"/>
<path id="path965_1_" class="st2" d="M298.5,309.6c0-0.2,0.2-0.3,0.4-0.3"/>
<line id="line967_1_" class="st2" x1="299.3" y1="308.8" x2="327.5" y2="312.3"/>
<line id="line969_1_" class="st2" x1="328.4" y1="312.7" x2="328.4" y2="351.3"/>
<path id="path971_1_" class="st2" d="M328.4,312.7c0-0.2-0.4-0.3-1-0.3"/>
<line id="line973_1_" class="st5" x1="298.5" y1="309.3" x2="299.3" y2="308.8"/>
<line id="line975_1_" class="st2" x1="327.3" y1="312.8" x2="328.1" y2="312.4"/>
<line id="line977_1_" class="st2" x1="327.8" y1="313" x2="328.4" y2="312.7"/>
<line id="line979_1_" class="st7" x1="327.3" y1="354.2" x2="327.8" y2="353.5"/>
<line id="line981_1_" class="st7" x1="328" y1="352.1" x2="328.4" y2="351.3"/>
<line id="line983_1_" class="st7" x1="303.6" y1="348.9" x2="327.8" y2="352.3"/>
<line id="line985_1_" class="st6" x1="215.6" y1="337.3" x2="217.2" y2="337.6"/>
<line id="line987_1_" class="st2" x1="217.5" y1="300.1" x2="245.6" y2="303.6"/>
<line id="line989_1_" class="st2" x1="246.7" y1="303.9" x2="246.7" y2="343.3"/>
<path id="path991_1_" class="st2" d="M246.6,303.9c0-0.2-0.4-0.3-1-0.3"/>
<path id="path993_1_" class="st2" d="M217.1,300.4c0-0.2,0.2-0.3,0.4-0.3"/>
<line id="line995_1_" class="st2" x1="217.9" y1="299.6" x2="246.1" y2="303.1"/>
<line id="line997_1_" class="st2" x1="247.1" y1="303.4" x2="247.1" y2="342.3"/>
<path id="path999_1_" class="st2" d="M247.1,303.4c0-0.2-0.4-0.3-1-0.3"/>
<line id="line1001_1_" class="st5" x1="217.2" y1="300.1" x2="217.9" y2="299.6"/>
<line id="line1003_1_" class="st2" x1="246" y1="303.6" x2="246.7" y2="303.2"/>
<line id="line1005_1_" class="st2" x1="246.4" y1="303.7" x2="247.1" y2="303.4"/>
<line id="line1007_1_" class="st7" x1="246.7" y1="343.3" x2="247.2" y2="342.3"/>
<line id="line1009_1_" class="st7" x1="221.7" y1="340" x2="246.6" y2="343.4"/>
<line id="line1011_1_" class="st5" x1="241.9" y1="301.9" x2="241.9" y2="302.3"/>
<line id="line1013_1_" class="st7" x1="246.7" y1="341.7" x2="248.4" y2="342"/>
<line id="line1015_1_" class="st2" x1="303.3" y1="311.8" x2="303.3" y2="350.8"/>
<line id="line1017_1_" class="st2" x1="303.8" y1="311.3" x2="303.8" y2="350.9"/>
<line id="line1019_1_" class="st3" x1="272.2" y1="277" x2="248.4" y2="342.4"/>
<line id="line1021_1_" class="st3" x1="320.3" y1="284.7" x2="297.1" y2="349.1"/>
<path id="path1023_1_" class="st6" d="M325.8,292.8c-3.1,4.6-7.5,10.9-11.3,17.8"/>
<line id="line1025_1_" class="st2" x1="221.6" y1="301.7" x2="221.6" y2="340.8"/>
<line id="line1027_1_" class="st2" x1="222.1" y1="301.2" x2="222.1" y2="340.7"/>
<line id="line1029_1_" class="st6" x1="214.8" y1="339.6" x2="247.6" y2="344.2"/>
<path id="path1031_1_" class="st6" d="M243.9,282.6c-3.1,4.6-8.1,11.9-11.9,18.8"/>
<line id="line1033_1_" class="st2" x1="165.7" y1="391.2" x2="189" y2="394"/>
<line id="line1035_1_" class="st6" x1="135.7" y1="327.6" x2="164.9" y2="331.8"/>
<line id="line1037_1_" class="st6" x1="135.3" y1="329.3" x2="164.7" y2="333.7"/>
<line id="line1039_1_" class="st6" x1="165.6" y1="335.4" x2="165.6" y2="391.1"/>
<line id="line1041_1_" class="st6" x1="135.6" y1="326.6" x2="167.1" y2="331.1"/>
<line id="line1043_1_" class="st6" x1="135.7" y1="326" x2="167.2" y2="330.5"/>
<line id="line1045_1_" class="st7" x1="165.4" y1="335.9" x2="165.4" y2="392.5"/>
<line id="line1047_1_" class="st6" x1="134.3" y1="326.5" x2="135.3" y2="326.6"/>
<line id="line1049_1_" class="st2" x1="189.5" y1="295.8" x2="189.5" y2="393.9"/>
<line id="line1051_1_" class="st2" x1="160.1" y1="292.4" x2="160.1" y2="331.2"/>
<path id="path1053_1_" class="st2" d="M189.5,393.9c0,0.2-0.5,0.3-1.2,0.3"/>
<path id="path1055_1_" class="st2" d="M189.5,295.8c0-0.2-0.4-0.3-1-0.3"/>
<path id="path1057_1_" class="st2" d="M160.1,292.4c0-0.2,0.2-0.3,0.4-0.3"/>
<line id="line1059_1_" class="st6" x1="134.4" y1="325.9" x2="135.3" y2="326"/>
<line id="line1061_1_" class="st2" x1="160.9" y1="291.5" x2="189.1" y2="295.1"/>
<line id="line1063_1_" class="st2" x1="190" y1="295.4" x2="190" y2="393.4"/>
<path id="path1065_1_" class="st2" d="M190,295.4c0-0.2-0.4-0.3-1-0.3"/>
<line id="line1067_1_" class="st5" x1="160.1" y1="292" x2="160.9" y2="291.5"/>
<line id="line1069_1_" class="st2" x1="188.8" y1="295.6" x2="189.6" y2="295.1"/>
<line id="line1071_1_" class="st2" x1="189.3" y1="295.7" x2="190" y2="295.4"/>
<line id="line1073_1_" class="st2" x1="189.5" y1="393.9" x2="190" y2="393.4"/>
<line id="line1075_1_" class="st6" x1="165.8" y1="391.4" x2="165.8" y2="392.1"/>
<line id="line1077_1_" class="st7" x1="165.5" y1="392.3" x2="165.8" y2="392.1"/>
<line id="line1079_1_" class="st2" x1="160.4" y1="292.1" x2="160.4" y2="331"/>
<line id="line1081_1_" class="st6" x1="167.2" y1="331.2" x2="167.2" y2="332"/>
<line id="line1083_1_" class="st6" x1="167.3" y1="331.7" x2="166.9" y2="331.7"/>
<line id="line1085_1_" class="st7" x1="166.7" y1="332.1" x2="166.7" y2="332.9"/>
<line id="line1087_1_" class="st2" x1="165.5" y1="391.4" x2="188.3" y2="394.2"/>
<line id="line1089_1_" class="st2" x1="189" y1="394" x2="189.5" y2="393.5"/>
<line id="line1091_1_" class="st5" x1="160.4" y1="292" x2="188.6" y2="295.5"/>
<line id="line1093_1_" class="st6" x1="134.3" y1="326.5" x2="134.3" y2="327.5"/>
<line id="line1095_1_" class="st7" x1="133.9" y1="327.4" x2="135.3" y2="327.6"/>
<line id="line1097_1_" class="st2" x1="135.3" y1="291" x2="135.3" y2="329.6"/>
<line id="line1099_1_" class="st2" x1="135.7" y1="290.9" x2="135.7" y2="329.3"/>
<line id="line1101_1_" class="st2" x1="135.7" y1="290.8" x2="163.8" y2="294.3"/>
<line id="line1103_1_" class="st2" x1="164.7" y1="294.7" x2="164.8" y2="333.8"/>
<path id="path1105_1_" class="st2" d="M164.7,294.7c0-0.2-0.4-0.3-1-0.3"/>
<path id="path1107_1_" class="st2" d="M135.3,291.2c0-0.2,0.2-0.3,0.4-0.3"/>
<line id="line1109_1_" class="st2" x1="136.1" y1="290.4" x2="164.3" y2="293.9"/>
<line id="line1111_1_" class="st2" x1="165.2" y1="294.2" x2="165.2" y2="332.8"/>
<path id="path1113_1_" class="st2" d="M165.2,294.2c0-0.2-0.4-0.3-1-0.3"/>
<line id="line1115_1_" class="st5" x1="135.3" y1="290.8" x2="136.1" y2="290.4"/>
<line id="line1117_1_" class="st2" x1="164.1" y1="294.3" x2="164.9" y2="294"/>
<line id="line1119_1_" class="st2" x1="164.6" y1="294.6" x2="165.2" y2="294.2"/>
<line id="line1121_1_" class="st7" x1="164.8" y1="333.8" x2="165.2" y2="332.8"/>
<line id="line1123_1_" class="st7" x1="135.3" y1="329.6" x2="164.7" y2="334"/>
<line id="line1125_1_" class="st5" x1="160.1" y1="292" x2="160.1" y2="293.3"/>
<line id="line1127_1_" class="st7" x1="164.9" y1="331.8" x2="166.6" y2="332"/>
<line id="line1129_1_" class="st3" x1="161.5" y1="250.4" x2="134.1" y2="326.6"/>
<line id="line1131_1_" class="st6" x1="248.4" y1="342.2" x2="247.2" y2="345.8"/>
<line id="line1133_1_" class="st6" x1="330.8" y1="351.7" x2="329.2" y2="356.2"/>
<path id="path1135_1_" class="st6" d="M149.3,292.6c-7.1,12.8-7.5,13.9-13.2,28.4"/>
<path id="path1137_1_" class="st6" d="M162,272.4c-3.1,4.6-8.5,12.6-12.4,19.5"/>
<path id="path1139_1_" class="st6" d="M121.2,387.2c2.8-32.4,10.5-54,14.1-64.3"/>
<line id="line1141_1_" class="st3" x1="140.5" y1="268" x2="97.8" y2="386"/>
<line id="line1143_1_" class="st3" x1="136.3" y1="266.9" x2="164.5" y2="271.2"/>
<line id="line1145_1_" class="st3" x1="91.1" y1="385.1" x2="123.7" y2="389.6"/>
<g id="XMLID_38_">
	<g id="g1148_1_">
		<path id="path1150_1_" class="st10" d="M139.5,272.9l1.1-4.8l0,0l-2.2,4.3C138.3,272.4,139.2,271.9,139.5,272.9z"/>
	</g>
</g>
<line id="line1167_1_" class="st3" x1="239.3" y1="272.6" x2="272" y2="277.7"/>
<g id="XMLID_36_">
	<g id="g1170_1_">
		<path id="path1172_1_" class="st10" d="M244.2,272.7l-4.9-0.1l0,0l4.7,1.4C244,274,243.3,273.2,244.2,272.7z"/>
	</g>
</g>
<g id="XMLID_35_">
	<g id="g1175_1_">
		<path id="path1177_1_" class="st10" d="M267.1,277.6l4.9,0.1l0,0l-4.7-1.4C267.3,276.3,268,277.1,267.1,277.6z"/>
	</g>
</g>
<line id="line1179_1_" class="st3" x1="239.5" y1="271.9" x2="215.6" y2="337.3"/>
<line id="line1181_1_" class="st3" x1="191.2" y1="265.2" x2="239.1" y2="272.5"/>
<g id="XMLID_34_">
	<g id="g1184_1_">
		<path id="path1186_1_" class="st10" d="M196.2,265.4l-4.9-0.1l0,0l4.7,1.4C195.9,266.6,195.3,265.8,196.2,265.4z"/>
	</g>
</g>
<g id="XMLID_33_">
	<g id="g1189_1_">
		<path id="path1191_1_" class="st10" d="M234.2,272.4l4.9,0.1l0,0l-4.7-1.4C234.4,271.2,235,271.9,234.2,272.4z"/>
	</g>
</g>
<line id="line1193_1_" class="st3" x1="158.2" y1="260.1" x2="190.9" y2="265.1"/>
<g id="XMLID_32_">
	<g id="g1196_1_">
		<path id="path1198_1_" class="st10" d="M163.1,260.2l-4.9-0.1l0,0l4.7,1.4C162.9,261.4,162.2,260.6,163.1,260.2z"/>
	</g>
</g>
<g id="XMLID_29_">
	<g id="g1201_1_">
		<path id="path1203_1_" class="st10" d="M186,265l4.9,0.1l0,0l-4.7-1.4C186.2,263.7,186.9,264.6,186,265z"/>
	</g>
</g>
<line id="line1205_1_" class="st3" x1="191.2" y1="264.4" x2="167.5" y2="329.9"/>
<line id="line1207_1_" class="st3" x1="320.3" y1="285.1" x2="353" y2="290.2"/>
<g id="XMLID_2_">
	<g id="g1210_1_">
		<path id="path1212_1_" class="st10" d="M325.2,285.2l-4.9-0.1l0,0l4.7,1.4C325,286.5,324.3,285.7,325.2,285.2z"/>
	</g>
</g>
<g id="XMLID_1_">
	<g id="g1215_1_">
		<path id="path1217_1_" class="st10" d="M348.1,290l4.9,0.1l0,0l-4.7-1.4C348.3,288.8,349,289.6,348.1,290z"/>
	</g>
</g>
<g>
	<path class="st4" d="M333.2,265.3c0.1-0.4,0.3-0.7,0.5-0.9c0.5-0.6,1.3-0.6,1.7-0.5c1.2,0.2,1.7,1.2,1.6,2.1
		c-0.1,0.5-0.4,1.1-1.1,1.3c0.2,0.1,0.9,0.6,0.7,1.7c-0.2,1.2-1.2,1.8-2.3,1.6c-0.7-0.1-1.4-0.5-1.6-1.4c-0.1-0.3-0.1-0.5,0-0.7
		l0.7,0.1c0,0.2,0,0.5,0.1,0.7c0.2,0.4,0.5,0.6,0.9,0.7c0.7,0.1,1.4-0.4,1.5-1.1c0.1-0.4,0-0.9-0.5-1.2c-0.2-0.1-0.5-0.2-0.7-0.3
		l0.1-0.7c0.3,0.1,0.5,0.1,0.8,0c0.2-0.1,0.6-0.3,0.7-0.9c0.1-0.6-0.1-1.2-0.9-1.3c-0.3,0-0.6,0-0.9,0.2c-0.2,0.1-0.3,0.4-0.4,0.6
		L333.2,265.3z"/>
	<path class="st4" d="M342.3,270c-0.2,1-1,1.8-2.3,1.6s-1.9-1.2-1.7-2.3c0.1-0.7,0.5-1.3,1.3-1.4c-0.5-0.4-0.7-1-0.6-1.6
		c0.2-0.9,0.9-1.7,2.1-1.5s1.7,1.2,1.5,2.1c-0.1,0.6-0.5,1.1-1,1.3C342.2,268.7,342.4,269.3,342.3,270z M341.5,269.9
		c0.1-0.7-0.3-1.3-1.1-1.5c-0.7-0.1-1.4,0.3-1.5,1c-0.1,0.7,0.3,1.4,1.1,1.5C340.8,271.1,341.4,270.7,341.5,269.9z M341.9,266.9
		c0.1-0.7-0.3-1.3-0.9-1.3c-0.6-0.1-1.2,0.3-1.3,1c-0.1,0.7,0.3,1.2,0.9,1.3S341.8,267.5,341.9,266.9z"/>
	<path class="st4" d="M344.4,267.2c0.1-0.4,0.3-0.7,0.5-0.9c0.5-0.6,1.3-0.6,1.7-0.5c1.2,0.2,1.7,1.2,1.6,2.1
		c-0.1,0.5-0.4,1.1-1.1,1.3c0.2,0.1,0.9,0.6,0.7,1.7c-0.2,1.2-1.2,1.8-2.3,1.6c-0.7-0.1-1.4-0.5-1.6-1.4c-0.1-0.3-0.1-0.5,0-0.7
		l0.7,0.1c0,0.2,0,0.5,0.1,0.7c0.2,0.4,0.5,0.6,0.9,0.7c0.7,0.1,1.4-0.4,1.5-1.1c0.1-0.4,0-0.9-0.5-1.2c-0.2-0.1-0.5-0.2-0.7-0.3
		l0.1-0.7c0.3,0.1,0.5,0.1,0.8,0c0.2-0.1,0.6-0.3,0.7-0.9c0.1-0.6-0.1-1.2-0.9-1.3c-0.3,0-0.6,0-0.9,0.2c-0.2,0.1-0.3,0.4-0.4,0.6
		L344.4,267.2z"/>
	<path class="st4" d="M330.4,274.9c-0.3,0.4-0.5,1-0.8,1.6c-0.3,0.8-0.5,1.6-0.7,2.4c-0.1,0.8-0.2,1.5-0.2,2.4
		c0,0.7,0.1,1.3,0.2,1.9l-0.7,0.2c-0.2-1.2-0.3-2.2-0.3-2.3c0-0.8,0-1.6,0.2-2.3c0.1-0.7,0.3-1.6,0.7-2.5c0.3-0.6,0.6-1.3,0.9-1.8
		L330.4,274.9z"/>
	<path class="st4" d="M335.6,276.9l-2.1-0.3l-0.7,1.3c0.1,0,0.3,0,0.4,0c1.3,0.2,2,1.4,1.8,2.6c-0.2,1.5-1.5,2.2-2.8,2
		c-0.5-0.1-1-0.3-1.4-0.8c-0.2-0.2-0.3-0.5-0.5-0.8l0.6-0.3c0.1,0.2,0.2,0.4,0.4,0.6c0.2,0.3,0.5,0.5,1,0.6c0.9,0.2,1.7-0.5,1.9-1.4
		c0.2-0.9-0.4-1.7-1.3-1.9c-0.2,0-0.7-0.1-1.3,0.2l1.5-3l2.6,0.4L335.6,276.9z"/>
	<path class="st4" d="M337.1,278.1c0.1-0.4,0.3-0.7,0.5-0.9c0.5-0.6,1.3-0.6,1.7-0.5c1.2,0.2,1.7,1.2,1.6,2.1
		c-0.1,0.5-0.4,1.1-1.1,1.3c0.2,0.1,0.9,0.6,0.7,1.7c-0.2,1.2-1.2,1.8-2.3,1.6c-0.7-0.1-1.4-0.5-1.6-1.4c-0.1-0.3-0.1-0.5,0-0.7
		l0.7,0.1c0,0.2,0,0.5,0.1,0.7c0.2,0.4,0.5,0.6,0.9,0.7c0.7,0.1,1.4-0.4,1.5-1.1c0.1-0.4,0-0.9-0.5-1.2c-0.2-0.1-0.5-0.2-0.7-0.3
		l0.1-0.7c0.3,0.1,0.5,0.1,0.8,0c0.2-0.1,0.6-0.3,0.7-0.9c0.1-0.6-0.1-1.2-0.9-1.3c-0.3,0-0.6,0-0.9,0.2c-0.2,0.1-0.3,0.4-0.4,0.6
		L337.1,278.1z"/>
	<path class="st4" d="M341.1,283.9l2.9-2.4c0.2-0.2,0.7-0.6,0.9-0.8c0.4-0.4,0.5-0.7,0.5-0.9c0.1-0.7-0.3-1.4-1.1-1.5
		c-0.5-0.1-0.9,0.1-1.2,0.4c-0.2,0.2-0.3,0.4-0.3,0.7l-0.7-0.1c0.1-0.7,0.4-1,0.7-1.3c0.3-0.3,0.8-0.5,1.7-0.4
		c1.2,0.2,1.9,1.2,1.7,2.3c-0.1,0.4-0.3,0.8-0.8,1.3c-0.3,0.3-0.8,0.7-1.1,0.9l-1.6,1.3l2.8,0.5l-0.1,0.7L341.1,283.9z"/>
	<path class="st4" d="M348.6,277.6c0.1,0.6,0.2,1.3,0.3,2c0.1,1,0,1.9-0.1,2.6c-0.1,0.7-0.3,1.5-0.6,2.3c-0.1,0.2-0.4,1.1-1,2.1
		l-0.6-0.4c0.3-0.5,0.6-1.1,0.8-1.7c0.3-0.9,0.5-1.6,0.6-2.4c0.1-0.9,0.2-1.6,0.2-2.5c0-0.7-0.1-1.3-0.2-1.8L348.6,277.6z"/>
</g>
<g>
	<path class="st4" d="M297.8,259.5l-1.8,1.9c0.2,0,0.4,0,0.6,0c1.3,0.2,2,1.3,1.8,2.5c-0.2,1.3-1.3,2.1-2.6,1.9
		c-1.6-0.2-2.1-1.6-1.9-2.6c0-0.2,0.2-0.8,0.8-1.4l2.7-2.8L297.8,259.5z M297.7,263.8c0.1-0.9-0.4-1.6-1.3-1.8s-1.6,0.4-1.8,1.3
		c-0.1,0.9,0.4,1.7,1.3,1.8C296.8,265.3,297.5,264.7,297.7,263.8z"/>
	<path class="st4" d="M299.9,265.4c-0.3-0.7-0.4-1.6-0.3-2.5c0.1-0.9,0.5-1.8,1-2.3c0.6-0.7,1.3-0.8,1.8-0.7
		c0.5,0.1,1.1,0.4,1.5,1.2c0.3,0.7,0.4,1.6,0.3,2.5c-0.1,0.9-0.5,1.8-1,2.3c-0.6,0.7-1.3,0.8-1.8,0.7
		C300.9,266.6,300.3,266.2,299.9,265.4z M301.1,261.1c-0.4,0.5-0.7,1.2-0.8,1.9s-0.1,1.5,0.2,2.1c0.3,0.6,0.7,0.9,1,0.9
		s0.8-0.1,1.2-0.6c0.4-0.5,0.7-1.2,0.8-1.9s0.1-1.5-0.2-2.1c-0.3-0.6-0.7-0.9-1-0.9S301.5,260.6,301.1,261.1z"/>
	<path class="st4" d="M305.5,266.3c-0.3-0.7-0.4-1.6-0.3-2.5c0.1-0.9,0.5-1.8,1-2.3c0.6-0.7,1.3-0.8,1.8-0.7
		c0.5,0.1,1.1,0.4,1.5,1.2c0.3,0.7,0.4,1.6,0.3,2.5c-0.1,0.9-0.5,1.8-1,2.3c-0.6,0.7-1.3,0.8-1.8,0.7
		C306.5,267.4,305.9,267.1,305.5,266.3z M306.7,261.9c-0.4,0.5-0.7,1.2-0.8,1.9s-0.1,1.5,0.2,2.1c0.3,0.6,0.7,0.9,1,0.9
		s0.8-0.1,1.2-0.6c0.4-0.5,0.7-1.2,0.8-1.9s0.1-1.5-0.2-2.1c-0.3-0.6-0.7-0.9-1-0.9S307.1,261.4,306.7,261.9z"/>
	<path class="st4" d="M291.6,270c-0.2,0.4-0.5,1-0.8,1.6c-0.3,0.8-0.5,1.6-0.6,2.5c-0.1,0.8-0.2,1.5-0.1,2.4c0,0.7,0.1,1.3,0.2,1.9
		l-0.7,0.2c-0.3-1.2-0.3-2.2-0.3-2.3c0-0.8,0-1.6,0.1-2.3c0.1-0.7,0.3-1.6,0.7-2.5c0.2-0.6,0.6-1.3,0.9-1.8L291.6,270z"/>
	<path class="st4" d="M293,277.1l1.8-1.9c-0.2,0-0.4,0-0.6,0c-1.3-0.2-2-1.3-1.8-2.5c0.2-1.3,1.3-2.1,2.6-1.9
		c1.6,0.2,2.1,1.6,1.9,2.6c0,0.2-0.2,0.8-0.8,1.4l-2.7,2.8L293,277.1z M293.1,272.9c-0.1,0.9,0.4,1.6,1.3,1.8
		c0.9,0.1,1.6-0.4,1.8-1.3c0.1-0.9-0.4-1.7-1.3-1.8C294,271.4,293.3,272,293.1,272.9z"/>
	<path class="st4" d="M298.1,277.3c-0.3-0.7-0.4-1.6-0.3-2.5c0.1-0.9,0.5-1.8,1-2.3c0.6-0.7,1.3-0.8,1.8-0.7
		c0.5,0.1,1.1,0.4,1.5,1.2c0.3,0.7,0.4,1.6,0.3,2.5c-0.1,0.9-0.5,1.8-1,2.3c-0.6,0.7-1.3,0.8-1.8,0.7
		C299.1,278.4,298.5,278.1,298.1,277.3z M299.3,272.9c-0.4,0.5-0.7,1.2-0.8,1.9s-0.1,1.5,0.2,2.1c0.3,0.6,0.7,0.9,1,0.9
		s0.8-0.1,1.2-0.6c0.4-0.5,0.7-1.2,0.8-1.9s0.1-1.5-0.2-2.1c-0.3-0.6-0.7-0.9-1-0.9S299.7,272.4,299.3,272.9z"/>
	<path class="st4" d="M303.7,278.1c-0.3-0.7-0.4-1.6-0.3-2.5c0.1-0.9,0.5-1.8,1-2.3c0.6-0.7,1.3-0.8,1.8-0.7
		c0.5,0.1,1.1,0.4,1.5,1.2c0.3,0.7,0.4,1.6,0.3,2.5c-0.1,0.9-0.5,1.8-1,2.3c-0.6,0.7-1.3,0.8-1.8,0.7
		C304.7,279.3,304.1,278.9,303.7,278.1z M304.9,273.8c-0.4,0.5-0.7,1.2-0.8,1.9s-0.1,1.5,0.2,2.1c0.3,0.6,0.7,0.9,1,0.9
		s0.8-0.1,1.2-0.6c0.4-0.5,0.7-1.2,0.8-1.9s0.1-1.5-0.2-2.1c-0.3-0.6-0.7-0.9-1-0.9S305.3,273.3,304.9,273.8z"/>
	<path class="st4" d="M310.4,272.6c0.1,0.6,0.2,1.3,0.3,2c0.1,1,0,1.9-0.1,2.6c-0.1,0.7-0.3,1.6-0.6,2.3c-0.1,0.2-0.4,1.1-1,2.1
		l-0.6-0.4c0.3-0.5,0.6-1.1,0.8-1.7c0.3-0.9,0.5-1.6,0.6-2.4c0.1-0.9,0.2-1.6,0.1-2.5c0-0.7-0.1-1.3-0.2-1.8L310.4,272.6z"/>
</g>
<g>
	<path class="st4" d="M251.8,253c0.1-0.4,0.3-0.7,0.5-0.9c0.5-0.6,1.3-0.6,1.7-0.5c1.2,0.2,1.7,1.2,1.6,2.1
		c-0.1,0.5-0.4,1.1-1.1,1.3c0.2,0.1,0.9,0.6,0.7,1.7c-0.2,1.2-1.2,1.8-2.3,1.6c-0.7-0.1-1.4-0.5-1.6-1.4c-0.1-0.3-0.1-0.5,0-0.7
		l0.7,0.1c0,0.2,0,0.5,0.1,0.7c0.2,0.4,0.5,0.6,0.9,0.7c0.7,0.1,1.4-0.4,1.5-1.1c0.1-0.4,0-0.9-0.5-1.2c-0.2-0.1-0.5-0.2-0.7-0.3
		l0.1-0.7c0.3,0.1,0.5,0.1,0.8,0c0.2-0.1,0.6-0.3,0.7-0.9c0.1-0.6-0.1-1.2-0.9-1.3c-0.3,0-0.6,0-0.9,0.2c-0.2,0.1-0.3,0.4-0.4,0.6
		L251.8,253z"/>
	<path class="st4" d="M260.9,257.7c-0.2,1-1,1.8-2.3,1.6s-1.9-1.2-1.7-2.3c0.1-0.7,0.5-1.3,1.3-1.4c-0.5-0.4-0.7-1-0.6-1.6
		c0.2-0.9,0.9-1.7,2.1-1.5s1.7,1.2,1.5,2.1c-0.1,0.6-0.5,1.1-1,1.3C260.8,256.4,261,257,260.9,257.7z M260.1,257.6
		c0.1-0.7-0.3-1.3-1.1-1.5c-0.7-0.1-1.4,0.3-1.5,1c-0.1,0.7,0.3,1.4,1.1,1.5C259.4,258.8,260,258.4,260.1,257.6z M260.5,254.6
		c0.1-0.7-0.3-1.3-0.9-1.3c-0.6-0.1-1.2,0.3-1.3,1c-0.1,0.7,0.3,1.2,0.9,1.3S260.4,255.2,260.5,254.6z"/>
	<path class="st4" d="M263,254.9c0.1-0.4,0.3-0.7,0.5-0.9c0.5-0.6,1.3-0.6,1.7-0.5c1.2,0.2,1.7,1.2,1.6,2.1
		c-0.1,0.5-0.4,1.1-1.1,1.3c0.2,0.1,0.9,0.6,0.7,1.7c-0.2,1.2-1.2,1.8-2.3,1.6c-0.7-0.1-1.4-0.5-1.6-1.4c-0.1-0.3-0.1-0.5,0-0.7
		l0.7,0.1c0,0.2,0,0.5,0.1,0.7c0.2,0.4,0.5,0.6,0.9,0.7c0.7,0.1,1.4-0.4,1.5-1.1c0.1-0.4,0-0.9-0.5-1.2c-0.2-0.1-0.5-0.2-0.7-0.3
		l0.1-0.7c0.3,0.1,0.5,0.1,0.8,0c0.2-0.1,0.6-0.3,0.7-0.9c0.1-0.6-0.1-1.2-0.9-1.3c-0.3,0-0.6,0-0.9,0.2c-0.2,0.1-0.3,0.4-0.4,0.6
		L263,254.9z"/>
	<path class="st4" d="M249,262.6c-0.3,0.4-0.5,1-0.8,1.6c-0.3,0.8-0.5,1.6-0.7,2.4c-0.1,0.8-0.2,1.5-0.2,2.4c0,0.7,0.1,1.3,0.2,1.9
		l-0.7,0.2c-0.2-1.2-0.3-2.2-0.3-2.3c0-0.8,0-1.6,0.2-2.3c0.1-0.7,0.3-1.6,0.7-2.5c0.3-0.6,0.6-1.3,0.9-1.8L249,262.6z"/>
	<path class="st4" d="M254.1,264.6l-2.1-0.3l-0.7,1.3c0.1,0,0.3,0,0.4,0c1.3,0.2,2,1.4,1.8,2.6c-0.2,1.5-1.5,2.2-2.8,2
		c-0.5-0.1-1-0.3-1.4-0.8c-0.2-0.2-0.3-0.5-0.5-0.8l0.6-0.3c0.1,0.2,0.2,0.4,0.4,0.6c0.2,0.3,0.5,0.5,1,0.6c0.9,0.2,1.7-0.5,1.9-1.4
		c0.2-0.9-0.4-1.7-1.3-1.9c-0.2,0-0.7-0.1-1.3,0.2l1.5-3l2.6,0.4L254.1,264.6z"/>
	<path class="st4" d="M255.7,265.8c0.1-0.4,0.3-0.7,0.5-0.9c0.5-0.6,1.3-0.6,1.7-0.5c1.2,0.2,1.7,1.2,1.6,2.1
		c-0.1,0.5-0.4,1.1-1.1,1.3c0.2,0.1,0.9,0.6,0.7,1.7c-0.2,1.2-1.2,1.8-2.3,1.6c-0.7-0.1-1.4-0.5-1.6-1.4c-0.1-0.3-0.1-0.5,0-0.7
		l0.7,0.1c0,0.2,0,0.5,0.1,0.7c0.2,0.4,0.5,0.6,0.9,0.7c0.7,0.1,1.4-0.4,1.5-1.1c0.1-0.4,0-0.9-0.5-1.2c-0.2-0.1-0.5-0.2-0.7-0.3
		l0.1-0.7c0.3,0.1,0.5,0.1,0.8,0c0.2-0.1,0.6-0.3,0.7-0.9c0.1-0.6-0.1-1.2-0.9-1.3c-0.3,0-0.6,0-0.9,0.2c-0.2,0.1-0.3,0.4-0.4,0.6
		L255.7,265.8z"/>
	<path class="st4" d="M259.7,271.6l2.9-2.4c0.2-0.2,0.7-0.6,0.9-0.8c0.4-0.4,0.5-0.7,0.5-0.9c0.1-0.7-0.3-1.4-1.1-1.5
		c-0.5-0.1-0.9,0.1-1.2,0.4c-0.2,0.2-0.3,0.4-0.3,0.7l-0.7-0.1c0.1-0.7,0.4-1,0.7-1.3c0.3-0.3,0.8-0.5,1.7-0.4
		c1.2,0.2,1.9,1.2,1.7,2.3c-0.1,0.4-0.3,0.8-0.8,1.3c-0.3,0.3-0.8,0.7-1.1,0.9l-1.6,1.3l2.8,0.5l-0.1,0.7L259.7,271.6z"/>
	<path class="st4" d="M267.2,265.3c0.1,0.6,0.2,1.3,0.3,2c0.1,1,0,1.9-0.1,2.6c-0.1,0.7-0.3,1.5-0.6,2.3c-0.1,0.2-0.4,1.1-1,2.1
		l-0.6-0.4c0.3-0.5,0.6-1.1,0.8-1.7c0.3-0.9,0.5-1.6,0.6-2.4c0.1-0.9,0.2-1.6,0.2-2.5c0-0.7-0.1-1.3-0.2-1.8L267.2,265.3z"/>
</g>
<g>
	<path class="st4" d="M214.7,246.1l-1.8,1.9c0.2,0,0.4,0,0.6,0c1.3,0.2,2,1.3,1.8,2.5c-0.2,1.3-1.3,2.1-2.6,1.9
		c-1.6-0.2-2.1-1.6-1.9-2.6c0-0.2,0.2-0.8,0.8-1.4l2.7-2.8L214.7,246.1z M214.5,250.4c0.1-0.9-0.4-1.6-1.3-1.8s-1.6,0.4-1.8,1.3
		c-0.1,0.9,0.4,1.7,1.3,1.8C213.7,251.9,214.4,251.3,214.5,250.4z"/>
	<path class="st4" d="M216.7,252c-0.3-0.7-0.4-1.6-0.3-2.5c0.1-0.9,0.5-1.8,1-2.3c0.6-0.7,1.3-0.8,1.8-0.7c0.5,0.1,1.1,0.4,1.5,1.2
		c0.3,0.7,0.4,1.6,0.3,2.5c-0.1,0.9-0.5,1.8-1,2.3c-0.6,0.7-1.3,0.8-1.8,0.7C217.7,253.2,217.1,252.8,216.7,252z M217.9,247.7
		c-0.4,0.5-0.7,1.2-0.8,1.9s-0.1,1.5,0.2,2.1c0.3,0.6,0.7,0.9,1,0.9s0.8-0.1,1.2-0.6c0.4-0.5,0.7-1.2,0.8-1.9s0.1-1.5-0.2-2.1
		c-0.3-0.6-0.7-0.9-1-0.9S218.4,247.2,217.9,247.7z"/>
	<path class="st4" d="M222.3,252.9c-0.3-0.7-0.4-1.6-0.3-2.5c0.1-0.9,0.5-1.8,1-2.3c0.6-0.7,1.3-0.8,1.8-0.7
		c0.5,0.1,1.1,0.4,1.5,1.2c0.3,0.7,0.4,1.6,0.3,2.5c-0.1,0.9-0.5,1.8-1,2.3c-0.6,0.7-1.3,0.8-1.8,0.7
		C223.4,254,222.7,253.7,222.3,252.9z M223.6,248.5c-0.4,0.5-0.7,1.2-0.8,1.9s-0.1,1.5,0.2,2.1c0.3,0.6,0.7,0.9,1,0.9
		s0.8-0.1,1.2-0.6c0.4-0.5,0.7-1.2,0.8-1.9s0.1-1.5-0.2-2.1c-0.3-0.6-0.7-0.9-1-0.9S224,248,223.6,248.5z"/>
	<path class="st4" d="M208.5,256.6c-0.2,0.4-0.5,1-0.8,1.6c-0.3,0.8-0.5,1.6-0.6,2.5c-0.1,0.8-0.2,1.5-0.1,2.4
		c0,0.7,0.1,1.3,0.2,1.9l-0.7,0.2c-0.3-1.2-0.3-2.2-0.3-2.3c0-0.8,0-1.6,0.1-2.3c0.1-0.7,0.3-1.6,0.7-2.5c0.2-0.6,0.6-1.3,0.9-1.8
		L208.5,256.6z"/>
	<path class="st4" d="M209.8,263.7l1.8-1.9c-0.2,0-0.4,0-0.6,0c-1.3-0.2-2-1.3-1.8-2.5c0.2-1.3,1.3-2.1,2.6-1.9
		c1.6,0.2,2.1,1.6,1.9,2.6c0,0.2-0.2,0.8-0.8,1.4l-2.7,2.8L209.8,263.7z M210,259.5c-0.1,0.9,0.4,1.6,1.3,1.8
		c0.9,0.1,1.6-0.4,1.8-1.3c0.1-0.9-0.4-1.7-1.3-1.8C210.9,258,210.1,258.6,210,259.5z"/>
	<path class="st4" d="M214.9,263.9c-0.3-0.7-0.4-1.6-0.3-2.5c0.1-0.9,0.5-1.8,1-2.3c0.6-0.7,1.3-0.8,1.8-0.7
		c0.5,0.1,1.1,0.4,1.5,1.2c0.3,0.7,0.4,1.6,0.3,2.5c-0.1,0.9-0.5,1.8-1,2.3c-0.6,0.7-1.3,0.8-1.8,0.7
		C215.9,265,215.3,264.7,214.9,263.9z M216.1,259.5c-0.4,0.5-0.7,1.2-0.8,1.9s-0.1,1.5,0.2,2.1c0.3,0.6,0.7,0.9,1,0.9
		s0.8-0.1,1.2-0.6c0.4-0.5,0.7-1.2,0.8-1.9s0.1-1.5-0.2-2.1c-0.3-0.6-0.7-0.9-1-0.9S216.6,259,216.1,259.5z"/>
	<path class="st4" d="M220.5,264.7c-0.3-0.7-0.4-1.6-0.3-2.5c0.1-0.9,0.5-1.8,1-2.3c0.6-0.7,1.3-0.8,1.8-0.7
		c0.5,0.1,1.1,0.4,1.5,1.2c0.3,0.7,0.4,1.6,0.3,2.5c-0.1,0.9-0.5,1.8-1,2.3c-0.6,0.7-1.3,0.8-1.8,0.7
		C221.6,265.9,220.9,265.5,220.5,264.7z M221.8,260.4c-0.4,0.5-0.7,1.2-0.8,1.9s-0.1,1.5,0.2,2.1c0.3,0.6,0.7,0.9,1,0.9
		s0.8-0.1,1.2-0.6c0.4-0.5,0.7-1.2,0.8-1.9s0.1-1.5-0.2-2.1c-0.3-0.6-0.7-0.9-1-0.9S222.2,259.9,221.8,260.4z"/>
	<path class="st4" d="M227.3,259.2c0.1,0.6,0.2,1.3,0.3,2c0.1,1,0,1.9-0.1,2.6c-0.1,0.7-0.3,1.6-0.6,2.3c-0.1,0.2-0.4,1.1-1,2.1
		l-0.6-0.4c0.3-0.5,0.6-1.1,0.8-1.7c0.3-0.9,0.5-1.6,0.6-2.4c0.1-0.9,0.2-1.6,0.1-2.5c0-0.7-0.1-1.3-0.2-1.8L227.3,259.2z"/>
</g>
<g>
	<path class="st4" d="M173.5,240.4c0.1-0.4,0.3-0.7,0.5-0.9c0.5-0.6,1.3-0.6,1.7-0.5c1.2,0.2,1.7,1.2,1.6,2.1
		c-0.1,0.5-0.4,1.1-1.1,1.3c0.2,0.1,0.9,0.6,0.7,1.7c-0.2,1.2-1.2,1.8-2.3,1.6c-0.7-0.1-1.4-0.5-1.6-1.4c-0.1-0.3-0.1-0.5,0-0.7
		l0.7,0.1c0,0.2,0,0.5,0.1,0.7c0.2,0.4,0.5,0.6,0.9,0.7c0.7,0.1,1.4-0.4,1.5-1.1c0.1-0.4,0-0.9-0.5-1.2c-0.2-0.1-0.5-0.2-0.7-0.3
		l0.1-0.7c0.3,0.1,0.5,0.1,0.8,0c0.2-0.1,0.6-0.3,0.7-0.9c0.1-0.6-0.1-1.2-0.9-1.3c-0.3,0-0.6,0-0.9,0.2c-0.2,0.1-0.3,0.4-0.4,0.6
		L173.5,240.4z"/>
	<path class="st4" d="M182.6,245.1c-0.2,1-1,1.8-2.3,1.6s-1.9-1.2-1.7-2.3c0.1-0.7,0.5-1.3,1.3-1.4c-0.5-0.4-0.7-1-0.6-1.6
		c0.2-0.9,0.9-1.7,2.1-1.5s1.7,1.2,1.5,2.1c-0.1,0.6-0.5,1.1-1,1.3C182.5,243.7,182.7,244.4,182.6,245.1z M181.8,245
		c0.1-0.7-0.3-1.3-1.1-1.5c-0.7-0.1-1.4,0.3-1.5,1c-0.1,0.7,0.3,1.4,1.1,1.5C181.1,246.2,181.7,245.7,181.8,245z M182.2,241.9
		c0.1-0.7-0.3-1.3-0.9-1.3c-0.6-0.1-1.2,0.3-1.3,1c-0.1,0.7,0.3,1.2,0.9,1.3S182.1,242.6,182.2,241.9z"/>
	<path class="st4" d="M184.7,242.2c0.1-0.4,0.3-0.7,0.5-0.9c0.5-0.6,1.3-0.6,1.7-0.5c1.2,0.2,1.7,1.2,1.6,2.1
		c-0.1,0.5-0.4,1.1-1.1,1.3c0.2,0.1,0.9,0.6,0.7,1.7c-0.2,1.2-1.2,1.8-2.3,1.6c-0.7-0.1-1.4-0.5-1.6-1.4c-0.1-0.3-0.1-0.5,0-0.7
		l0.7,0.1c0,0.2,0,0.5,0.1,0.7c0.2,0.4,0.5,0.6,0.9,0.7c0.7,0.1,1.4-0.4,1.5-1.1c0.1-0.4,0-0.9-0.5-1.2c-0.2-0.1-0.5-0.2-0.7-0.3
		l0.1-0.7c0.3,0.1,0.5,0.1,0.8,0c0.2-0.1,0.6-0.3,0.7-0.9c0.1-0.6-0.1-1.2-0.9-1.3c-0.3,0-0.6,0-0.9,0.2c-0.2,0.1-0.3,0.4-0.4,0.6
		L184.7,242.2z"/>
	<path class="st4" d="M170.7,250c-0.3,0.4-0.5,1-0.8,1.6c-0.3,0.8-0.5,1.6-0.7,2.4c-0.1,0.8-0.2,1.5-0.2,2.4c0,0.7,0.1,1.3,0.2,1.9
		l-0.7,0.2c-0.2-1.2-0.3-2.2-0.3-2.3c0-0.8,0-1.6,0.2-2.3c0.1-0.7,0.3-1.6,0.7-2.5c0.3-0.6,0.6-1.3,0.9-1.8L170.7,250z"/>
	<path class="st4" d="M175.8,252l-2.1-0.3l-0.7,1.3c0.1,0,0.3,0,0.4,0c1.3,0.2,2,1.4,1.8,2.6c-0.2,1.5-1.5,2.2-2.8,2
		c-0.5-0.1-1-0.3-1.4-0.8c-0.2-0.2-0.3-0.5-0.5-0.8l0.6-0.3c0.1,0.2,0.2,0.4,0.4,0.6c0.2,0.3,0.5,0.5,1,0.6c0.9,0.2,1.7-0.5,1.9-1.4
		c0.2-0.9-0.4-1.7-1.3-1.9c-0.2,0-0.7-0.1-1.3,0.2l1.5-3l2.6,0.4L175.8,252z"/>
	<path class="st4" d="M177.4,253.2c0.1-0.4,0.3-0.7,0.5-0.9c0.5-0.6,1.3-0.6,1.7-0.5c1.2,0.2,1.7,1.2,1.6,2.1
		c-0.1,0.5-0.4,1.1-1.1,1.3c0.2,0.1,0.9,0.6,0.7,1.7c-0.2,1.2-1.2,1.8-2.3,1.6c-0.7-0.1-1.4-0.5-1.6-1.4c-0.1-0.3-0.1-0.5,0-0.7
		l0.7,0.1c0,0.2,0,0.5,0.1,0.7c0.2,0.4,0.5,0.6,0.9,0.7c0.7,0.1,1.4-0.4,1.5-1.1c0.1-0.4,0-0.9-0.5-1.2c-0.2-0.1-0.5-0.2-0.7-0.3
		l0.1-0.7c0.3,0.1,0.5,0.1,0.8,0c0.2-0.1,0.6-0.3,0.7-0.9c0.1-0.6-0.1-1.2-0.9-1.3c-0.3,0-0.6,0-0.9,0.2c-0.2,0.1-0.3,0.4-0.4,0.6
		L177.4,253.2z"/>
	<path class="st4" d="M181.4,258.9l2.9-2.4c0.2-0.2,0.7-0.6,0.9-0.8c0.4-0.4,0.5-0.7,0.5-0.9c0.1-0.7-0.3-1.4-1.1-1.5
		c-0.5-0.1-0.9,0.1-1.2,0.4c-0.2,0.2-0.3,0.4-0.3,0.7l-0.7-0.1c0.1-0.7,0.4-1,0.7-1.3c0.3-0.3,0.8-0.5,1.7-0.4
		c1.2,0.2,1.9,1.2,1.7,2.3c-0.1,0.4-0.3,0.8-0.8,1.3c-0.3,0.3-0.8,0.7-1.1,0.9l-1.6,1.3l2.8,0.5l-0.1,0.7L181.4,258.9z"/>
	<path class="st4" d="M188.9,252.7c0.1,0.6,0.2,1.3,0.3,2c0.1,1,0,1.9-0.1,2.6c-0.1,0.7-0.3,1.5-0.6,2.3c-0.1,0.2-0.4,1.1-1,2.1
		l-0.6-0.4c0.3-0.5,0.6-1.1,0.8-1.7c0.3-0.9,0.5-1.6,0.6-2.4c0.1-0.9,0.2-1.6,0.2-2.5c0-0.7-0.1-1.3-0.2-1.8L188.9,252.7z"/>
</g>
<g>
	<path class="st4" d="M287,37.7l-1.8,1.9c0.2,0,0.4,0,0.6,0c1.3,0.2,2,1.3,1.8,2.5c-0.2,1.3-1.3,2.1-2.6,1.9
		c-1.6-0.2-2.1-1.6-1.9-2.6c0-0.2,0.2-0.8,0.8-1.4l2.7-2.8L287,37.7z M286.9,42c0.1-0.9-0.4-1.6-1.3-1.8s-1.6,0.4-1.8,1.3
		c-0.1,0.9,0.4,1.7,1.3,1.8C286,43.4,286.7,42.9,286.9,42z"/>
	<path class="st4" d="M289.1,43.6c-0.3-0.7-0.4-1.6-0.3-2.5c0.1-0.9,0.5-1.8,1-2.3c0.6-0.7,1.3-0.8,1.8-0.7c0.5,0.1,1.1,0.4,1.5,1.2
		c0.3,0.7,0.4,1.6,0.3,2.5c-0.1,0.9-0.5,1.8-1,2.3c-0.6,0.7-1.3,0.8-1.8,0.7C290.1,44.7,289.5,44.4,289.1,43.6z M290.3,39.2
		c-0.4,0.5-0.7,1.2-0.8,1.9s-0.1,1.5,0.2,2.1c0.3,0.6,0.7,0.9,1,0.9s0.8-0.1,1.2-0.6c0.4-0.5,0.7-1.2,0.8-1.9s0.1-1.5-0.2-2.1
		c-0.3-0.6-0.7-0.9-1-0.9S290.7,38.7,290.3,39.2z"/>
	<path class="st4" d="M294.7,44.4c-0.3-0.7-0.4-1.6-0.3-2.5c0.1-0.9,0.5-1.8,1-2.3c0.6-0.7,1.3-0.8,1.8-0.7c0.5,0.1,1.1,0.4,1.5,1.2
		c0.3,0.7,0.4,1.6,0.3,2.5c-0.1,0.9-0.5,1.8-1,2.3c-0.6,0.7-1.3,0.8-1.8,0.7C295.7,45.6,295.1,45.2,294.7,44.4z M295.9,40.1
		c-0.4,0.5-0.7,1.2-0.8,1.9s-0.1,1.5,0.2,2.1c0.3,0.6,0.7,0.9,1,0.9s0.8-0.1,1.2-0.6c0.4-0.5,0.7-1.2,0.8-1.9s0.1-1.5-0.2-2.1
		c-0.3-0.6-0.7-0.9-1-0.9S296.3,39.6,295.9,40.1z"/>
	<path class="st4" d="M280.8,48.2c-0.2,0.4-0.5,1-0.8,1.6c-0.3,0.8-0.5,1.6-0.6,2.5c-0.1,0.8-0.2,1.5-0.1,2.4c0,0.7,0.1,1.3,0.2,1.9
		l-0.7,0.2c-0.3-1.2-0.3-2.2-0.3-2.3c0-0.8,0-1.6,0.1-2.3c0.1-0.7,0.3-1.6,0.7-2.5c0.2-0.6,0.6-1.3,0.9-1.8L280.8,48.2z"/>
	<path class="st4" d="M282.2,55.3l1.8-1.9c-0.2,0-0.4,0-0.6,0c-1.3-0.2-2-1.3-1.8-2.5c0.2-1.3,1.3-2.1,2.6-1.9
		c1.6,0.2,2.1,1.6,1.9,2.6c0,0.2-0.2,0.8-0.8,1.4l-2.7,2.8L282.2,55.3z M282.3,51c-0.1,0.9,0.4,1.6,1.3,1.8c0.9,0.1,1.6-0.4,1.8-1.3
		c0.1-0.9-0.4-1.7-1.3-1.8C283.2,49.6,282.5,50.1,282.3,51z"/>
	<path class="st4" d="M287.3,55.4c-0.3-0.7-0.4-1.6-0.3-2.5c0.1-0.9,0.5-1.8,1-2.3c0.6-0.7,1.3-0.8,1.8-0.7c0.5,0.1,1.1,0.4,1.5,1.2
		c0.3,0.7,0.4,1.6,0.3,2.5c-0.1,0.9-0.5,1.8-1,2.3c-0.6,0.7-1.3,0.8-1.8,0.7C288.3,56.6,287.7,56.3,287.3,55.4z M288.5,51.1
		c-0.4,0.5-0.7,1.2-0.8,1.9s-0.1,1.5,0.2,2.1c0.3,0.6,0.7,0.9,1,0.9s0.8-0.1,1.2-0.6c0.4-0.5,0.7-1.2,0.8-1.9s0.1-1.5-0.2-2.1
		c-0.3-0.6-0.7-0.9-1-0.9S288.9,50.6,288.5,51.1z"/>
	<path class="st4" d="M292.9,56.3c-0.3-0.7-0.4-1.6-0.3-2.5c0.1-0.9,0.5-1.8,1-2.3c0.6-0.7,1.3-0.8,1.8-0.7c0.5,0.1,1.1,0.4,1.5,1.2
		c0.3,0.7,0.4,1.6,0.3,2.5c-0.1,0.9-0.5,1.8-1,2.3c-0.6,0.7-1.3,0.8-1.8,0.7C293.9,57.5,293.3,57.1,292.9,56.3z M294.1,52
		c-0.4,0.5-0.7,1.2-0.8,1.9s-0.1,1.5,0.2,2.1c0.3,0.6,0.7,0.9,1,0.9s0.8-0.1,1.2-0.6c0.4-0.5,0.7-1.2,0.8-1.9s0.1-1.5-0.2-2.1
		c-0.3-0.6-0.7-0.9-1-0.9S294.5,51.5,294.1,52z"/>
	<path class="st4" d="M299.6,50.7c0.1,0.6,0.2,1.3,0.3,2c0.1,1,0,1.9-0.1,2.6c-0.1,0.7-0.3,1.6-0.6,2.3c-0.1,0.2-0.4,1.1-1,2.1
		l-0.6-0.4c0.3-0.5,0.6-1.1,0.8-1.7c0.3-0.9,0.5-1.6,0.6-2.4c0.1-0.9,0.2-1.6,0.1-2.5c0-0.7-0.1-1.3-0.2-1.8L299.6,50.7z"/>
</g>
<g>
	<path class="st4" d="M285,11.7l-1.1-0.2l0.5-0.6l1.5,0.2l-1,6.6l-0.7-0.1L285,11.7z"/>
	<path class="st4" d="M287.3,13c0.1-0.4,0.2-0.7,0.4-0.9c0.5-0.6,1.3-0.6,1.6-0.5c1.2,0.2,1.7,1.1,1.6,2.1c-0.1,0.5-0.3,1.1-1.1,1.3
		c0.2,0.1,0.9,0.6,0.7,1.7c-0.2,1.2-1.2,1.9-2.3,1.7c-0.7-0.1-1.4-0.5-1.7-1.4c-0.1-0.3-0.1-0.5,0-0.7l0.7,0.1c0,0.2,0,0.5,0.1,0.7
		c0.2,0.3,0.5,0.6,0.9,0.6c0.7,0.1,1.4-0.4,1.5-1.1c0.1-0.4,0-0.9-0.5-1.2c-0.2-0.1-0.5-0.2-0.7-0.2l0.1-0.7c0.3,0.1,0.5,0.1,0.8,0
		c0.2-0.1,0.6-0.3,0.7-0.9c0.1-0.6-0.2-1.2-1-1.3c-0.3,0-0.6,0-0.9,0.3c-0.2,0.1-0.3,0.4-0.4,0.7L287.3,13z"/>
	<path class="st4" d="M296.2,12.9l-1.8,1.9c0.2,0,0.4,0,0.6,0c1.3,0.2,2,1.3,1.8,2.5c-0.2,1.3-1.3,2.1-2.6,1.9
		c-1.6-0.2-2.1-1.5-2-2.6c0-0.2,0.2-0.8,0.8-1.4l2.7-2.8L296.2,12.9z M296,17.2c0.1-0.9-0.4-1.6-1.3-1.7c-0.9-0.1-1.6,0.4-1.8,1.3
		c-0.1,0.9,0.4,1.7,1.3,1.8C295.2,18.7,295.9,18.1,296,17.2z"/>
	<path class="st4" d="M298.5,14.7c0.1-0.4,0.2-0.7,0.4-0.9c0.5-0.6,1.3-0.6,1.6-0.5c1.2,0.2,1.7,1.1,1.6,2.1
		c-0.1,0.5-0.3,1.1-1.1,1.3c0.2,0.1,0.9,0.6,0.7,1.7c-0.2,1.2-1.2,1.9-2.3,1.7c-0.7-0.1-1.4-0.5-1.7-1.4c-0.1-0.3-0.1-0.5,0-0.7
		l0.7,0.1c0,0.2,0,0.5,0.1,0.7c0.2,0.3,0.5,0.6,0.9,0.6c0.7,0.1,1.4-0.4,1.5-1.1c0.1-0.4,0-0.9-0.5-1.2c-0.2-0.1-0.5-0.2-0.7-0.2
		l0.1-0.7c0.3,0.1,0.5,0.1,0.8,0c0.2-0.1,0.6-0.3,0.7-0.9c0.1-0.6-0.2-1.2-1-1.3c-0.3,0-0.6,0-0.9,0.3c-0.2,0.1-0.3,0.4-0.4,0.7
		L298.5,14.7z"/>
	<path class="st4" d="M308.2,13.9c-0.2,0.4-0.5,1-0.8,1.6c-0.3,0.8-0.5,1.6-0.6,2.5c-0.1,0.8-0.2,1.5-0.1,2.4c0,0.7,0.1,1.3,0.3,1.9
		l-0.7,0.2c-0.3-1.2-0.3-2.2-0.3-2.3c0-0.8,0-1.6,0.1-2.3c0.1-0.7,0.3-1.6,0.7-2.5c0.2-0.6,0.6-1.3,0.9-1.8L308.2,13.9z"/>
	<path class="st4" d="M311.3,15.5l-1.1-0.2l0.5-0.6l1.5,0.2l-1,6.6l-0.7-0.1L311.3,15.5z"/>
	<path class="st4" d="M314.1,21.7l1.8-1.9c-0.2,0-0.4,0-0.6,0c-1.3-0.2-2-1.3-1.8-2.5c0.2-1.3,1.3-2.1,2.6-1.9
		c1.6,0.2,2.1,1.5,2,2.6c0,0.2-0.2,0.8-0.8,1.4l-2.7,2.8L314.1,21.7z M314.2,17.4c-0.1,0.9,0.4,1.6,1.3,1.7c0.9,0.1,1.6-0.4,1.8-1.3
		c0.1-0.9-0.4-1.7-1.3-1.8C315.1,16,314.4,16.6,314.2,17.4z"/>
	<path class="st4" d="M322.5,16.7l-1.8,1.9c0.2,0,0.4,0,0.6,0c1.3,0.2,2,1.3,1.8,2.5c-0.2,1.3-1.3,2.1-2.6,1.9
		c-1.6-0.2-2.1-1.5-2-2.6c0-0.2,0.2-0.8,0.8-1.4l2.7-2.8L322.5,16.7z M322.4,21c0.1-0.9-0.4-1.6-1.3-1.7c-0.9-0.1-1.6,0.4-1.8,1.3
		c-0.1,0.9,0.4,1.7,1.3,1.8C321.5,22.5,322.2,21.9,322.4,21z"/>
	<path class="st4" d="M327.9,22l0.8,0.1l-0.1,0.7l-0.8-0.1l-0.2,1.2l-0.7-0.1l0.2-1.2l-3.4-0.5l4.9-5.1L327.9,22z M327.2,21.9
		l0.4-2.9l-2.5,2.6L327.2,21.9z"/>
	<path class="st4" d="M331.3,17c0.1,0.6,0.3,1.3,0.3,2c0.1,1,0,1.9-0.1,2.6c-0.1,0.7-0.3,1.6-0.5,2.3c-0.1,0.2-0.4,1.1-1,2.1
		l-0.6-0.4c0.3-0.5,0.6-1.1,0.8-1.7c0.3-0.9,0.5-1.6,0.6-2.4c0.1-0.9,0.2-1.6,0.1-2.5c0-0.7-0.1-1.3-0.3-1.8L331.3,17z"/>
</g>
<g>
	<path class="st4" d="M250.4,199.5l2.7-2.5c0.2-0.2,0.7-0.7,0.9-0.9c0.3-0.4,0.4-0.7,0.5-1c0.1-0.7-0.4-1.3-1.2-1.4
		c-0.5,0-0.9,0.1-1.2,0.5c-0.2,0.2-0.3,0.4-0.3,0.8l-0.7-0.1c0.1-0.7,0.4-1,0.6-1.3c0.3-0.3,0.8-0.6,1.6-0.5c1.2,0.1,2,1,1.8,2.2
		c0,0.4-0.2,0.8-0.7,1.4c-0.3,0.4-0.7,0.7-1,1L252,199l2.8,0.3l-0.1,0.7L250.4,199.5z"/>
	<path class="st4" d="M257,199.9l1.7-2c-0.2,0-0.4,0-0.6,0c-1.3-0.1-2-1.2-1.9-2.4c0.1-1.3,1.2-2.2,2.5-2c1.6,0.2,2.2,1.5,2.1,2.5
		c0,0.2-0.1,0.8-0.7,1.5l-2.6,2.9L257,199.9z M257,195.6c-0.1,0.9,0.5,1.6,1.4,1.7c0.9,0.1,1.6-0.5,1.7-1.4c0.1-0.9-0.5-1.6-1.4-1.7
		C257.8,194.1,257.1,194.7,257,195.6z"/>
	<path class="st4" d="M262.1,199.8c-0.4-0.7-0.5-1.6-0.4-2.5s0.4-1.8,0.9-2.4c0.6-0.7,1.3-0.9,1.8-0.8c0.5,0.1,1.2,0.4,1.6,1.2
		c0.4,0.7,0.5,1.6,0.4,2.5c-0.1,0.9-0.4,1.8-0.9,2.4c-0.6,0.7-1.3,0.9-1.8,0.8C263.2,200.9,262.5,200.6,262.1,199.8z M263.1,195.4
		c-0.4,0.5-0.6,1.3-0.7,2s0,1.5,0.3,2.1c0.3,0.6,0.7,0.8,1.1,0.9c0.3,0,0.8-0.1,1.2-0.6c0.4-0.5,0.6-1.3,0.7-2s0-1.5-0.3-2.1
		c-0.3-0.6-0.7-0.8-1.1-0.9C264,194.8,263.5,194.9,263.1,195.4z"/>
	<path class="st4" d="M248.6,204.2c-0.2,0.4-0.5,1-0.7,1.7c-0.3,0.8-0.4,1.6-0.5,2.5c-0.1,0.8-0.1,1.5,0,2.5
		c0.1,0.7,0.2,1.3,0.3,1.9l-0.7,0.2c-0.3-1.2-0.4-2.2-0.4-2.3c-0.1-0.8,0-1.6,0-2.3c0.1-0.7,0.2-1.6,0.5-2.6
		c0.2-0.6,0.5-1.3,0.8-1.8L248.6,204.2z"/>
	<path class="st4" d="M253.1,209.9l0.8,0.1l-0.1,0.7l-0.8-0.1l-0.1,1.3l-0.7-0.1l0.1-1.3l-3.4-0.4l4.7-5.3L253.1,209.9z
		 M252.3,209.8l0.3-2.9l-2.4,2.7L252.3,209.8z"/>
	<path class="st4" d="M258.7,210.5l0.8,0.1l-0.1,0.7l-0.8-0.1l-0.1,1.3l-0.7-0.1l0.1-1.3l-3.4-0.4l4.7-5.3L258.7,210.5z M258,210.4
		l0.3-2.9l-2.4,2.7L258,210.4z"/>
	<path class="st4" d="M261,211.8c-0.4-0.7-0.5-1.6-0.4-2.5c0.1-0.9,0.4-1.8,0.9-2.4c0.6-0.7,1.3-0.9,1.8-0.8
		c0.5,0.1,1.2,0.4,1.6,1.2c0.4,0.7,0.5,1.6,0.4,2.5c-0.1,0.9-0.4,1.8-0.9,2.4c-0.6,0.7-1.3,0.9-1.8,0.8
		C262.1,212.9,261.5,212.6,261,211.8z M262.1,207.4c-0.4,0.5-0.6,1.3-0.7,2c-0.1,0.7,0,1.5,0.3,2.1c0.3,0.6,0.7,0.8,1.1,0.9
		c0.3,0,0.8-0.1,1.2-0.6c0.4-0.5,0.6-1.3,0.7-2c0.1-0.7,0-1.5-0.3-2.1c-0.3-0.6-0.7-0.8-1.1-0.9
		C262.9,206.7,262.5,206.8,262.1,207.4z"/>
	<path class="st4" d="M267.5,205.9c0.1,0.5,0.3,1.3,0.4,2c0.1,1,0.1,1.9,0,2.6c-0.1,0.7-0.2,1.6-0.4,2.3c0,0.2-0.3,1.1-0.9,2.2
		l-0.6-0.4c0.3-0.6,0.5-1.1,0.7-1.8c0.3-0.9,0.4-1.6,0.5-2.4c0.1-0.9,0.1-1.6,0-2.5c-0.1-0.7-0.2-1.3-0.3-1.8L267.5,205.9z"/>
</g>
<g>
	<path class="st4" d="M359.7,152.7v1.1l-0.7-0.4v-1.5h6.7v0.7H359.7z"/>
	<path class="st4" d="M363.7,146.5v-0.8h0.7v0.8h1.3v0.7h-1.3v3.4l-5.8-4.2H363.7z M363.7,147.3h-2.9l2.9,2.1V147.3z"/>
	<path class="st4" d="M363.8,140.3c1,0,2,0.7,2,2s-0.9,2-2,2c-0.7,0-1.3-0.3-1.6-1c-0.3,0.5-0.8,0.8-1.5,0.8c-0.9,0-1.8-0.6-1.8-1.8
		s0.9-1.8,1.8-1.8c0.6,0,1.1,0.3,1.5,0.8C362.5,140.7,363.1,140.3,363.8,140.3z M360.7,141.2c-0.7,0-1.2,0.5-1.2,1.1
		c0,0.6,0.4,1.1,1.2,1.1c0.7,0,1.1-0.5,1.1-1.1C361.9,141.7,361.4,141.2,360.7,141.2z M363.8,141.1c-0.7,0-1.3,0.5-1.3,1.3
		c0,0.8,0.5,1.3,1.3,1.3c0.8,0,1.3-0.5,1.3-1.3S364.5,141.1,363.8,141.1z"/>
	<path class="st4" d="M365.6,139.4l-2.8-2.4c-0.2-0.2-0.7-0.6-1-0.8c-0.4-0.3-0.7-0.4-1-0.4c-0.7,0-1.3,0.5-1.3,1.3
		c0,0.5,0.2,0.9,0.6,1.1c0.2,0.1,0.4,0.2,0.8,0.2v0.7c-0.7,0-1.1-0.2-1.4-0.5c-0.3-0.3-0.7-0.7-0.7-1.6c0-1.2,0.8-2.1,2-2.1
		c0.5,0,0.9,0.1,1.4,0.5c0.4,0.3,0.8,0.6,1.1,0.9l1.6,1.4v-2.8h0.7V139.4z"/>
</g>
<g>
	<path class="st4" d="M344.4,168.1v1.1l-0.7-0.4v-1.5h6.7v0.7H344.4z"/>
	<path class="st4" d="M349.5,164.6c-0.6,0.4-1.5,0.7-2.4,0.7c-1,0-1.8-0.2-2.4-0.7c-0.7-0.5-1-1.2-1-1.7s0.3-1.2,1-1.7
		c0.6-0.4,1.5-0.7,2.4-0.7c0.9,0,1.8,0.2,2.4,0.7c0.7,0.5,1,1.2,1,1.7S350.3,164.1,349.5,164.6z M345,164.1c0.6,0.4,1.3,0.5,2,0.5
		c0.7,0,1.5-0.1,2-0.5c0.6-0.4,0.7-0.8,0.7-1.1s-0.2-0.8-0.7-1.1c-0.6-0.4-1.3-0.5-2-0.5c-0.7,0-1.5,0.1-2,0.5
		c-0.6,0.3-0.7,0.8-0.7,1.1S344.5,163.7,345,164.1z"/>
	<path class="st4" d="M350.4,159.6l-2.8-2.4c-0.2-0.2-0.7-0.6-1-0.8c-0.4-0.3-0.7-0.4-1-0.4c-0.7,0-1.3,0.5-1.3,1.3
		c0,0.5,0.2,0.9,0.6,1.1c0.2,0.1,0.4,0.2,0.8,0.2v0.7c-0.7,0-1.1-0.2-1.4-0.5c-0.3-0.3-0.7-0.7-0.7-1.6c0-1.2,0.8-2.1,2-2.1
		c0.5,0,0.9,0.1,1.4,0.5c0.4,0.3,0.8,0.6,1.1,0.9l1.6,1.4v-2.8h0.7V159.6z"/>
	<path class="st4" d="M344.4,153.2v1.1l-0.7-0.4v-1.5h6.7v0.7H344.4z"/>
</g>
<g>
	<path class="st4" d="M357.8,401.7v1.1l-0.7-0.4V401h6.7v0.7H357.8z"/>
	<path class="st4" d="M361.8,395.6v-0.8h0.7v0.8h1.3v0.7h-1.3v3.4l-5.8-4.2H361.8z M361.8,396.3h-2.9l2.9,2.1V396.3z"/>
	<path class="st4" d="M361.9,389.4c1,0,2,0.7,2,2s-0.9,2-2,2c-0.7,0-1.3-0.3-1.6-1c-0.3,0.5-0.8,0.8-1.5,0.8c-1,0-1.8-0.6-1.8-1.8
		s0.9-1.8,1.8-1.8c0.6,0,1.1,0.3,1.5,0.8C360.6,389.7,361.2,389.4,361.9,389.4z M358.8,390.3c-0.7,0-1.2,0.5-1.2,1.1
		s0.5,1.1,1.2,1.1c0.7,0,1.1-0.5,1.1-1.1C360,390.8,359.5,390.3,358.8,390.3z M361.9,390.1c-0.8,0-1.3,0.5-1.3,1.3s0.5,1.3,1.3,1.3
		c0.8,0,1.3-0.5,1.3-1.3S362.7,390.1,361.9,390.1z"/>
	<path class="st4" d="M363.8,388.5l-2.8-2.4c-0.2-0.2-0.7-0.6-1-0.8c-0.4-0.3-0.8-0.4-1-0.4c-0.8,0-1.3,0.5-1.3,1.3
		c0,0.5,0.2,0.9,0.6,1.1c0.2,0.1,0.5,0.2,0.8,0.2v0.7c-0.7,0-1.1-0.2-1.4-0.5c-0.3-0.3-0.7-0.7-0.7-1.6c0-1.2,0.8-2.1,2-2.1
		c0.5,0,0.9,0.1,1.4,0.5c0.4,0.3,0.8,0.6,1.1,0.9l1.6,1.4v-2.8h0.7V388.5z"/>
</g>
<g>
	<path class="st4" d="M342.6,417.2v1.1l-0.7-0.4v-1.5h6.7v0.7H342.6z"/>
	<path class="st4" d="M347.6,413.7c-0.6,0.4-1.5,0.7-2.4,0.7c-1,0-1.8-0.2-2.4-0.7c-0.7-0.5-1-1.2-1-1.7c0-0.5,0.3-1.2,1-1.7
		c0.6-0.4,1.5-0.7,2.4-0.7c0.9,0,1.8,0.2,2.4,0.7c0.7,0.5,1,1.2,1,1.7C348.6,412.5,348.4,413.2,347.6,413.7z M343.2,413.1
		c0.6,0.4,1.3,0.5,2,0.5c0.7,0,1.5-0.1,2-0.5c0.6-0.4,0.7-0.8,0.7-1.2s-0.2-0.8-0.7-1.1c-0.6-0.4-1.3-0.5-2-0.5
		c-0.7,0-1.5,0.1-2,0.5c-0.6,0.3-0.7,0.8-0.7,1.1S342.6,412.8,343.2,413.1z"/>
	<path class="st4" d="M348.5,408.6l-2.8-2.4c-0.2-0.2-0.7-0.6-1-0.8c-0.4-0.3-0.7-0.4-1-0.4c-0.7,0-1.3,0.5-1.3,1.3
		c0,0.5,0.2,0.9,0.6,1.1c0.2,0.1,0.4,0.2,0.8,0.2v0.7c-0.7,0-1.1-0.2-1.4-0.5c-0.3-0.3-0.7-0.8-0.7-1.6c0-1.2,0.8-2.1,2-2.1
		c0.5,0,0.9,0.1,1.4,0.5c0.4,0.3,0.8,0.6,1.1,0.9l1.6,1.4v-2.8h0.7V408.6z"/>
	<path class="st4" d="M342.6,402.3v1.1l-0.7-0.4v-1.5h6.7v0.7H342.6z"/>
</g>
<g>
	<path class="st4" d="M188.8,94.5l-0.4,1l-0.5-0.6l0.5-1.4l6.2,2.4l-0.3,0.7L188.8,94.5z"/>
	<path class="st4" d="M195.4,93.1l-1.4-2.2c0,0.2-0.1,0.4-0.1,0.6c-0.5,1.2-1.7,1.7-2.8,1.2c-1.2-0.5-1.8-1.7-1.3-3
		c0.6-1.5,2-1.7,3-1.3c0.2,0.1,0.8,0.4,1.2,1.1l2.1,3.2L195.4,93.1z M191.3,92c0.8,0.3,1.7-0.1,2-0.9c0.3-0.8-0.1-1.7-0.9-2
		c-0.8-0.3-1.7,0-2,0.9C190,90.9,190.4,91.7,191.3,92z"/>
	<path class="st4" d="M197.1,89.4l-1.7-3.3c-0.1-0.2-0.5-0.8-0.6-1.1c-0.3-0.4-0.6-0.6-0.8-0.7c-0.7-0.3-1.4,0-1.7,0.8
		c-0.2,0.4-0.1,0.9,0.1,1.2c0.1,0.2,0.3,0.4,0.7,0.5l-0.3,0.7c-0.6-0.3-0.9-0.6-1.1-1c-0.2-0.4-0.4-0.9-0.1-1.7
		c0.4-1.1,1.5-1.6,2.6-1.2c0.4,0.2,0.8,0.4,1.1,1c0.3,0.4,0.5,0.9,0.7,1.2l1,1.9l1-2.6l0.6,0.2L197.1,89.4z"/>
	<path class="st4" d="M194.5,82.3c-0.3-0.2-0.6-0.4-0.8-0.6c-0.5-0.7-0.3-1.4-0.2-1.7c0.5-1.2,1.5-1.4,2.4-1.1
		c0.4,0.2,1,0.6,1.1,1.3c0.2-0.2,0.8-0.7,1.8-0.3c1.2,0.5,1.5,1.6,1.1,2.6c-0.3,0.6-0.8,1.3-1.7,1.3c-0.3,0-0.5,0-0.7-0.1l0.3-0.7
		c0.2,0.1,0.5,0.1,0.7,0c0.4-0.1,0.7-0.4,0.8-0.8c0.3-0.7-0.1-1.4-0.8-1.7c-0.4-0.1-0.9-0.2-1.3,0.2c-0.2,0.2-0.3,0.4-0.4,0.7
		l-0.6-0.2c0.1-0.2,0.2-0.5,0.1-0.8s-0.2-0.7-0.7-0.9c-0.5-0.2-1.2-0.1-1.5,0.7c-0.1,0.3-0.2,0.6,0,0.9c0.1,0.2,0.3,0.4,0.6,0.5
		L194.5,82.3z"/>
</g>
<g>
	<path class="st4" d="M108.1,330l-0.4,1l-0.5-0.6l0.5-1.4l6.2,2.4l-0.3,0.7L108.1,330z"/>
	<path class="st4" d="M114.7,328.7l-1.4-2.2c0,0.2-0.1,0.4-0.1,0.6c-0.5,1.2-1.7,1.7-2.8,1.2c-1.2-0.5-1.8-1.7-1.3-3
		c0.6-1.5,2-1.7,3-1.3c0.2,0.1,0.8,0.4,1.2,1.1l2.1,3.3L114.7,328.7z M110.6,327.6c0.8,0.3,1.7-0.1,2-0.9s-0.1-1.7-0.9-2
		c-0.8-0.3-1.7,0-2,0.9C109.3,326.4,109.7,327.2,110.6,327.6z"/>
	<path class="st4" d="M116.4,325l-1.7-3.3c-0.1-0.2-0.5-0.8-0.6-1.1c-0.3-0.4-0.6-0.6-0.8-0.7c-0.7-0.3-1.4,0-1.7,0.8
		c-0.2,0.4-0.1,0.9,0.1,1.2c0.1,0.2,0.3,0.4,0.7,0.5l-0.3,0.7c-0.6-0.3-0.9-0.6-1.1-1c-0.2-0.4-0.4-0.9-0.1-1.7
		c0.4-1.1,1.5-1.6,2.6-1.2c0.4,0.2,0.8,0.4,1.1,1c0.3,0.4,0.5,0.9,0.7,1.2l1,1.9l1-2.6l0.6,0.2L116.4,325z"/>
	<path class="st4" d="M113.8,317.9c-0.3-0.2-0.6-0.4-0.8-0.6c-0.5-0.7-0.3-1.4-0.2-1.7c0.5-1.2,1.5-1.4,2.4-1.1
		c0.4,0.2,1,0.6,1.1,1.3c0.2-0.2,0.8-0.7,1.8-0.3c1.2,0.5,1.5,1.6,1.1,2.6c-0.3,0.6-0.8,1.3-1.7,1.3c-0.3,0-0.5,0-0.7-0.1l0.3-0.7
		c0.2,0.1,0.5,0.1,0.7,0c0.4-0.1,0.7-0.4,0.8-0.8c0.3-0.7-0.1-1.4-0.8-1.7c-0.4-0.1-0.9-0.2-1.3,0.2c-0.2,0.2-0.3,0.4-0.4,0.7
		l-0.6-0.2c0.1-0.2,0.2-0.5,0.1-0.8s-0.2-0.7-0.7-0.9c-0.5-0.2-1.2-0.1-1.5,0.7c-0.1,0.3-0.2,0.6,0,0.9c0.1,0.2,0.3,0.4,0.6,0.5
		L113.8,317.9z"/>
</g>
</svg>
