<?xml version="1.0" encoding="utf-8"?>
<!-- Generator: Adobe Illustrator 23.0.3, SVG Export Plug-In . SVG Version: 6.00 Build 0)  -->
<svg version="1.1" id="Слой_1" xmlns="http://www.w3.org/2000/svg" xmlns:xlink="http://www.w3.org/1999/xlink" x="0px" y="0px"
	 viewBox="0 0 568.2 241" style="enable-background:new 0 0 568.2 241;" xml:space="preserve">
<style type="text/css">
	.st0{fill:none;stroke:#D2D2D2;stroke-width:1.8681;stroke-miterlimit:10;}
	.st1{fill:none;stroke:#D2D2D2;stroke-width:1.8681;stroke-miterlimit:10;stroke-dasharray:8.1621,8.1621;}
	.st2{fill:#D2D2D2;}
	.st3{fill:#FFFFFF;}
	.st4{fill:none;stroke:#D2D2D2;stroke-width:1.8681;stroke-miterlimit:10;stroke-dasharray:7.9599,7.9599;}
	.st5{fill:url(#SVGID_1_);}
	.st6{fill:none;stroke:#FFFFFF;stroke-width:1.5379;stroke-linejoin:round;stroke-miterlimit:10;}
	.st7{fill:none;stroke:#FFFFFF;stroke-width:2.0506;stroke-linejoin:round;stroke-miterlimit:10;}
	.st8{fill:none;stroke:#FFFFFF;stroke-width:1.4074;stroke-linejoin:round;stroke-miterlimit:10;}
	.st9{fill:none;stroke:#FFFFFF;stroke-width:1.8681;stroke-miterlimit:10;}
	.st10{fill:none;stroke:#FFFFFF;stroke-width:2;stroke-miterlimit:10;}
	.st11{fill:none;stroke:#D2D2D2;stroke-width:1.8681;stroke-miterlimit:10;stroke-dasharray:7.638,7.638;}
	.st12{fill:url(#SVGID_2_);}
	.st13{fill:url(#SVGID_3_);}
	.st14{fill:#7A7A7A;}
	.st15{fill:url(#SVGID_4_);}
	.st16{fill:none;stroke:#FFFFFF;stroke-width:2.5;stroke-miterlimit:10;}
	.st17{fill:none;stroke:#FFFFFF;stroke-width:2;stroke-miterlimit:10;stroke-dasharray:4.5852,4.5852;}
</style>
<g>
	<g>
		<path class="st0" d="M105.1,96.6c0,1.3,0.1,2.7,0.2,4"/>
		<path class="st1" d="M106.8,108.6c6.4,22.3,31,42.4,78.6,30.8"/>
		<path class="st0" d="M189.3,138.3c1.3-0.3,2.5-0.7,3.8-1.1"/>
	</g>
</g>
<circle class="st2" cx="316.1" cy="25.6" r="20.9"/>
<circle class="st2" cx="185" cy="95.2" r="20.9"/>
<g>
	<g>
		<path class="st3" d="M183.3,98.5c0.3-0.4,2.5-2.9,3.2-3.9c0.5-0.8,1.1-1.9,1.1-3c0-1.7-1.2-2.8-2.8-2.8c-1.9,0-2.9,1.5-3,3.1h-3.8
			c0.2-3.8,2.9-6.2,6.6-6.2c4.3,0,6.6,3,6.6,5.9c0,2.9-1.9,5-3.4,6.5l-3.2,3.5h6.7v3.1h-13.6L183.3,98.5z"/>
	</g>
</g>
<g>
	<g>
		<path class="st0" d="M345.7,97c-0.8-1-1.8-2-2.8-2.9"/>
		<path class="st4" d="M336.6,89.4c-17.8-10.4-48.6-8.6-76.5,32.2"/>
		<path class="st0" d="M257.8,125c-0.7,1.1-1.4,2.2-2.1,3.4"/>
	</g>
</g>
<g>
	<g>
		<path class="st3" d="M309.8,21.3c0.3-3.4,2.9-5.3,6.1-5.3c3.6,0,5.9,2,5.9,5.2c0,1-0.2,2.8-2.2,3.9c0.8,0.3,2.9,1.4,2.9,4.5
			c0,3.8-3,6-6.7,6c-3.6,0-6.4-2.2-6.7-5.8h3.6c0.2,1.5,1.3,2.7,3.1,2.7c2.1,0,3-1.5,3-3c0-1.4-0.8-2.9-3.1-2.9h-0.5v-2.6h0.5
			c1.8,0,2.5-1.3,2.5-2.5c0-1.5-1-2.5-2.5-2.5c-1.3,0-2.5,0.8-2.6,2.4H309.8z"/>
	</g>
</g>
<linearGradient id="SVGID_1_" gradientUnits="userSpaceOnUse" x1="231.6496" y1="173.7823" x2="231.6496" y2="47.0169">
	<stop  offset="0" style="stop-color:#233D7C"/>
	<stop  offset="1" style="stop-color:#5387C6"/>
</linearGradient>
<circle class="st5" cx="231.6" cy="134.6" r="43.6"/>
<g>
	<line class="st6" x1="211.9" y1="129.8" x2="211.9" y2="148.8"/>
	<line class="st7" x1="216" y1="129.8" x2="216" y2="148.8"/>
	<line class="st7" x1="220.7" y1="129.8" x2="220.7" y2="148.8"/>
	<line class="st8" x1="223.3" y1="129.8" x2="223.3" y2="148.8"/>
	<line class="st8" x1="226.3" y1="129.8" x2="226.3" y2="148.8"/>
	<line class="st7" x1="230" y1="129.8" x2="230" y2="148.8"/>
	<line class="st8" x1="234.7" y1="129.8" x2="234.7" y2="148.8"/>
	<line class="st8" x1="237.7" y1="129.8" x2="237.7" y2="148.8"/>
	<line class="st8" x1="241.5" y1="132.3" x2="241.5" y2="148.8"/>
	<line class="st8" x1="244" y1="134.2" x2="244" y2="148.8"/>
</g>
<g>
	<circle class="st9" cx="251.5" cy="123.4" r="13.2"/>
</g>
<polyline class="st10" points="243.8,120.7 251.3,128.4 258.9,120.7 "/>
<g>
	<g>
		<path class="st0" d="M484.3,116.4c-0.7-1.1-1.3-2.3-2.1-3.4"/>
		<path class="st11" d="M478,106.7c-15.9-21.5-43.8-39.2-92.6-29.1"/>
		<path class="st0" d="M381.6,78.4c-1.3,0.3-2.6,0.6-3.9,1"/>
	</g>
</g>
<path class="st3" d="M250.9,136.6v15.6c0,1.3-1.1,2.4-2.4,2.4h-41.1c-1.3,0-2.4-1.1-2.4-2.4v-25.9c0-1.3,1.1-2.4,2.4-2.4h30.8v-2.3
	h-30.8c-2.6,0-4.7,2.1-4.7,4.7v25.9c0,2.6,2.1,4.7,4.7,4.7h41.1c2.6,0,4.7-2.1,4.7-4.7v-15.6H250.9z"/>
<linearGradient id="SVGID_2_" gradientUnits="userSpaceOnUse" x1="362.4678" y1="105.8808" x2="362.4678" y2="-20.8846">
	<stop  offset="0" style="stop-color:#233D7C"/>
	<stop  offset="1" style="stop-color:#5387C6"/>
</linearGradient>
<circle class="st12" cx="362.5" cy="66.7" r="43.6"/>
<polygon class="st9" points="373.8,88.8 351.2,88.8 348.2,56.6 376.8,56.6 "/>
<line class="st9" x1="343.2" y1="56.6" x2="381.8" y2="56.6"/>
<g>
	<line class="st9" x1="362.5" y1="59.6" x2="362.5" y2="84.5"/>
	<line class="st9" x1="370" y1="59.6" x2="368" y2="84.5"/>
	<line class="st9" x1="355" y1="59.6" x2="357" y2="84.5"/>
</g>
<polygon class="st9" points="370.2,56.6 379,45.9 369.5,38 354.2,56.6 "/>
<circle class="st2" cx="473.4" cy="56.5" r="20.9"/>
<linearGradient id="SVGID_3_" gradientUnits="userSpaceOnUse" x1="519.0587" y1="134.8666" x2="519.0587" y2="8.1012">
	<stop  offset="0" style="stop-color:#233D7C"/>
	<stop  offset="1" style="stop-color:#5387C6"/>
</linearGradient>
<circle class="st13" cx="519.1" cy="95.7" r="43.6"/>
<g>
	<g>
		<path class="st3" d="M478.9,59.6h2.2v2.9h-2.2V66h-3.4v-3.5h-9.1v-1.6l9.3-13.5h3.3V59.6z M475.5,59.6v-7.1l-4.8,7.1H475.5z"/>
	</g>
</g>
<rect x="503.5" y="74.7" class="st9" width="31.2" height="42.3"/>
<path class="st3" d="M521.4,91.1h-14v-2.8h14V91.1z M507.4,86.4h23.2v-2.8h-23.2V86.4z M507.4,78.6v2.8h23.2v-2.8H507.4z
	 M507.5,97.6l0.7,1.2l7.2-4l7.2,3.3l8-5.8l-0.8-1.2l-7.3,5.3l-7.1-3.2L507.5,97.6z M507.4,113.1h4V106h-4V113.1z M513.7,113.1h4
	v-12.8h-4V113.1z M520.3,113.1h4v-9.2h-4V113.1z M526.6,113.1h4V97.5h-4V113.1z"/>
<g>
	<g>
		<path class="st14" d="M46.8,133.1v9.3h-1v-8.4h-4.8v8.4h-1v-9.3H46.8z"/>
		<path class="st14" d="M54.1,140.9c-0.2,0.3-0.4,0.7-0.7,0.9c-0.5,0.5-1.2,0.7-1.9,0.7c-1.4,0-2.9-0.9-2.9-3c0-1.7,1.1-3.1,2.8-3.1
			c1.1,0,1.8,0.6,2.2,1.1c0.4,0.5,0.6,1.4,0.5,2.2h-4.5c0,1.2,0.8,2,1.8,2c0.5,0,0.9-0.1,1.2-0.4c0.3-0.2,0.5-0.5,0.6-0.8
			L54.1,140.9z M53.1,138.9c-0.2-0.9-0.9-1.5-1.7-1.5c-0.9,0-1.6,0.6-1.7,1.5H53.1z"/>
		<path class="st14" d="M56.7,145.6h-1v-9h1v0.8c0.7-0.9,1.6-1,2-1c1.8,0,2.8,1.5,2.8,3.1c0,1.6-1,3-2.8,3c-0.9,0-1.6-0.4-2-1V145.6
			z M60.4,139.6c0-1.4-1-2.2-1.9-2.2s-1.9,0.8-1.9,2.2c0,1.2,0.8,2.2,1.9,2.2C59.7,141.7,60.4,140.7,60.4,139.6z"/>
		<path class="st14" d="M68.2,140.9c-0.2,0.3-0.4,0.7-0.7,0.9c-0.5,0.5-1.2,0.7-1.9,0.7c-1.4,0-2.9-0.9-2.9-3c0-1.7,1.1-3.1,2.8-3.1
			c1.1,0,1.8,0.6,2.2,1.1c0.4,0.5,0.6,1.4,0.5,2.2h-4.5c0,1.2,0.8,2,1.8,2c0.5,0,0.9-0.1,1.2-0.4c0.3-0.2,0.5-0.5,0.6-0.8
			L68.2,140.9z M67.2,138.9c-0.2-0.9-0.9-1.5-1.7-1.5c-0.9,0-1.6,0.6-1.7,1.5H67.2z"/>
		<path class="st14" d="M74.3,136.6v4.9h0.9v2.5h-0.9v-1.5h-4.4v1.5h-0.9v-2.5c0.5,0,0.9-0.4,1.1-0.8c0.2-0.4,0.2-1,0.2-1.5v-2.6
			H74.3z M73.2,137.5h-2.1v2.2c0,0.7-0.2,1.3-0.7,1.8h2.8V137.5z"/>
		<path class="st14" d="M80.6,136.6h1v5.8h-1v-0.8c-0.3,0.4-1,1-2,1c-1.5,0-2.8-1-2.8-3.1c0-2,1.3-3,2.8-3c1.1,0,1.7,0.6,2,1V136.6z
			 M76.9,139.5c0,1.2,0.7,2.2,1.9,2.2c1.2,0,1.9-1,1.9-2.2c0-1.5-1-2.2-1.9-2.2C77.8,137.4,76.9,138.1,76.9,139.5z"/>
		<path class="st14" d="M86.7,140.1c-0.4,0.1-1,0.1-1.4,0.1c-0.3,0-1,0-1.4-0.4c-0.4-0.3-0.5-0.9-0.5-1.4v-1.8h1v1.7
			c0,0.2,0,0.5,0.1,0.7c0.2,0.3,0.6,0.4,0.9,0.4c0.4,0,0.8,0,1.3-0.1v-2.6h1v5.8h-1V140.1z"/>
		<path class="st14" d="M94,136.6h1v5.8h-1v-0.8c-0.3,0.4-1,1-2,1c-1.5,0-2.8-1-2.8-3.1c0-2,1.3-3,2.8-3c1.1,0,1.7,0.6,2,1V136.6z
			 M90.2,139.5c0,1.2,0.7,2.2,1.9,2.2c1.2,0,1.9-1,1.9-2.2c0-1.5-1-2.2-1.9-2.2C91.2,137.4,90.2,138.1,90.2,139.5z"/>
		<path class="st14" d="M44.2,155c-0.5-0.7-1.3-0.9-1.8-0.9c-1.1,0-2.1,0.8-2.1,2.2s1,2.2,2,2.2c0.6,0,1.3-0.3,1.9-0.9v1.2
			c-0.6,0.5-1.3,0.6-1.8,0.6c-1.8,0-3.1-1.3-3.1-3c0-1.8,1.3-3.1,3.1-3.1c0.9,0,1.5,0.4,1.8,0.6V155z"/>
		<path class="st14" d="M50.5,153.4v5.8h-1v-4.9h-2.7v4.9h-1v-5.8H50.5z"/>
		<path class="st14" d="M53.4,153.4v3.8l4-4.3v6.3h-1v-3.9l-4,4.3v-6.2H53.4z"/>
		<path class="st14" d="M63.8,155c-0.5-0.7-1.3-0.9-1.8-0.9c-1.1,0-2.1,0.8-2.1,2.2s1,2.2,2,2.2c0.6,0,1.3-0.3,1.9-0.9v1.2
			c-0.6,0.5-1.3,0.6-1.8,0.6c-1.8,0-3.1-1.3-3.1-3c0-1.8,1.3-3.1,3.1-3.1c0.9,0,1.5,0.4,1.8,0.6V155z"/>
		<path class="st14" d="M66.4,153.4v2.4l2.4-2.4H70l-2.5,2.6l2.8,3.2H69l-2.3-2.5l-0.3,0.3v2.3h-1v-5.8H66.4z"/>
		<path class="st14" d="M75.7,153.4h1v5.8h-1v-0.8c-0.3,0.4-1,1-2,1c-1.5,0-2.8-1-2.8-3.1c0-2,1.3-3,2.8-3c1.1,0,1.7,0.6,2,1V153.4z
			 M72,156.3c0,1.2,0.7,2.2,1.9,2.2c1.2,0,1.9-1,1.9-2.2c0-1.5-1-2.2-1.9-2.2C72.9,154.2,72,154.9,72,156.3z"/>
		<path class="st14" d="M87.5,149.4c-0.3,1.1-1.3,1.4-1.9,1.6c-0.5,0.1-1.3,0.3-1.8,0.7c-0.7,0.5-1.2,1.6-1.2,2.7h0
			c0.4-0.6,1.1-1.1,2.1-1.1c1.7,0,3,1.3,3,3.1s-1.3,3.1-3.2,3.1c-1,0-1.6-0.4-2-0.7c-0.9-0.8-1-2-1-3c0-1,0-3.7,1.7-4.8
			c0.6-0.4,1.4-0.6,2-0.7c0.8-0.2,1-0.4,1.2-0.7H87.5z M82.6,156.3c0,1.4,1,2.2,2,2.2c1.1,0,2-0.7,2-2.2c0-1.4-1-2.2-2-2.2
			S82.6,154.9,82.6,156.3z"/>
		<path class="st14" d="M90.3,153.4v3.8l4-4.3v6.3h-1v-3.9l-4,4.3v-6.2H90.3z"/>
		<path class="st14" d="M100.5,159.2h-1v-4.9h-2.1v2.6c0,0.5,0,1.1-0.4,1.7c-0.2,0.2-0.6,0.6-1.4,0.6c-0.1,0-0.2,0-0.3,0v-0.9
			c0.1,0,0.2,0,0.2,0c0.4,0,0.6-0.2,0.7-0.4c0.2-0.3,0.2-0.6,0.2-1v-3.5h4.1V159.2z"/>
		<path class="st14" d="M107.6,157.7c-0.2,0.3-0.4,0.7-0.7,0.9c-0.5,0.5-1.2,0.7-1.9,0.7c-1.4,0-2.9-0.9-2.9-3
			c0-1.7,1.1-3.1,2.8-3.1c1.1,0,1.8,0.6,2.2,1.1c0.4,0.5,0.6,1.4,0.5,2.2h-4.5c0,1.2,0.8,2,1.8,2c0.5,0,0.9-0.1,1.2-0.4
			c0.3-0.2,0.5-0.5,0.6-0.8L107.6,157.7z M106.6,155.7c-0.2-0.9-0.9-1.5-1.7-1.5s-1.6,0.6-1.7,1.5H106.6z"/>
		<path class="st14" d="M111.2,154.3v4.9h-1v-4.9h-1.8v-0.9h4.7v0.9H111.2z"/>
		<path class="st14" d="M113.5,156.3c0-1.8,1.3-3.1,3.1-3.1s3.1,1.3,3.1,3.1s-1.3,3.1-3.1,3.1S113.5,158.1,113.5,156.3z
			 M114.6,156.3c0,1.4,1,2.2,2,2.2c1.1,0,2-0.7,2-2.2c0-1.4-1-2.2-2-2.2S114.6,154.9,114.6,156.3z"/>
		<path class="st14" d="M123.4,153.4c0.3,0,0.8,0,1.2,0.3c0.2,0.2,0.5,0.5,0.5,1.1c0,0.6-0.3,0.9-0.6,1.2c0.2,0,0.4,0.1,0.7,0.4
			c0.3,0.3,0.5,0.7,0.5,1.1c0,0.6-0.3,1.1-0.6,1.3c-0.4,0.3-0.9,0.4-1.4,0.4h-2.5v-5.8H123.4z M123.3,155.8c0.1,0,0.4,0,0.6-0.2
			c0.1-0.1,0.3-0.3,0.3-0.6c0-0.3-0.1-0.4-0.3-0.6c-0.2-0.2-0.5-0.1-0.8-0.1h-0.9v1.5H123.3z M123.5,158.3c0.3,0,0.7,0,0.9-0.2
			c0.2-0.1,0.3-0.4,0.3-0.6c0-0.3-0.1-0.5-0.3-0.7c-0.3-0.2-0.6-0.2-0.9-0.2h-1.3v1.7H123.5z"/>
	</g>
</g>
<g>
	<g>
		<path class="st14" d="M196.8,184v9.3h-1V185H191v8.4h-1V184H196.8z"/>
		<path class="st14" d="M200,196.6h-1v-9h1v0.8c0.7-0.9,1.6-1,2-1c1.8,0,2.8,1.5,2.8,3.1c0,1.6-1,3-2.8,3c-0.9,0-1.6-0.4-2-1V196.6z
			 M203.7,190.5c0-1.4-1-2.2-1.9-2.2s-1.9,0.8-1.9,2.2c0,1.2,0.8,2.2,1.9,2.2C203,192.6,203.7,191.6,203.7,190.5z"/>
		<path class="st14" d="M205.9,190.4c0-1.8,1.3-3.1,3.1-3.1s3.1,1.3,3.1,3.1c0,1.8-1.3,3.1-3.1,3.1S205.9,192.2,205.9,190.4z
			 M207,190.4c0,1.4,1,2.2,2,2.2c1.1,0,2-0.7,2-2.2c0-1.4-1-2.2-2-2.2S207,189,207,190.4z"/>
		<path class="st14" d="M215.8,187.5c0.3,0,0.8,0,1.2,0.3c0.2,0.2,0.5,0.5,0.5,1.1c0,0.6-0.3,0.9-0.6,1.2c0.2,0,0.4,0.1,0.7,0.4
			c0.3,0.3,0.5,0.7,0.5,1.1c0,0.6-0.3,1.1-0.6,1.3c-0.4,0.3-0.9,0.4-1.4,0.4h-2.5v-5.8H215.8z M215.7,189.9c0.1,0,0.4,0,0.6-0.2
			c0.1-0.1,0.3-0.3,0.3-0.6c0-0.3-0.1-0.4-0.3-0.6c-0.2-0.2-0.5-0.1-0.8-0.1h-0.9v1.5H215.7z M215.9,192.4c0.3,0,0.7,0,0.9-0.2
			c0.2-0.1,0.3-0.4,0.3-0.6c0-0.3-0.1-0.5-0.3-0.7c-0.3-0.2-0.6-0.2-0.9-0.2h-1.3v1.7H215.9z"/>
		<path class="st14" d="M224.8,191.8c-0.2,0.3-0.4,0.7-0.7,0.9c-0.5,0.5-1.2,0.7-1.9,0.7c-1.4,0-2.9-0.9-2.9-3
			c0-1.7,1.1-3.1,2.8-3.1c1.1,0,1.8,0.6,2.2,1.1c0.4,0.5,0.6,1.4,0.5,2.2h-4.5c0,1.2,0.8,2,1.8,2c0.5,0,0.9-0.1,1.2-0.4
			c0.3-0.2,0.5-0.5,0.6-0.8L224.8,191.8z M223.8,189.8c-0.2-0.9-0.9-1.5-1.7-1.5s-1.6,0.6-1.7,1.5H223.8z"/>
		<path class="st14" d="M227.4,196.6h-1v-9h1v0.8c0.7-0.9,1.6-1,2-1c1.8,0,2.8,1.5,2.8,3.1c0,1.6-1,3-2.8,3c-0.9,0-1.6-0.4-2-1
			V196.6z M231.2,190.5c0-1.4-1-2.2-1.9-2.2s-1.9,0.8-1.9,2.2c0,1.2,0.8,2.2,1.9,2.2C230.5,192.6,231.2,191.6,231.2,190.5z"/>
		<path class="st14" d="M234.8,187.5v2.4l2.4-2.4h1.2l-2.5,2.6l2.8,3.2h-1.3l-2.3-2.5l-0.3,0.3v2.3h-1v-5.8H234.8z"/>
		<path class="st14" d="M244.1,187.5h1v5.8h-1v-0.8c-0.3,0.4-1,1-2,1c-1.5,0-2.8-1-2.8-3.1c0-2,1.3-3,2.8-3c1.1,0,1.7,0.6,2,1V187.5
			z M240.3,190.4c0,1.2,0.7,2.2,1.9,2.2c1.2,0,1.9-1,1.9-2.2c0-1.5-1-2.2-1.9-2.2C241.3,188.3,240.3,189,240.3,190.4z"/>
		<path class="st14" d="M191.9,204.3c0.3,0,0.8,0,1.2,0.3c0.2,0.2,0.5,0.5,0.5,1.1c0,0.6-0.3,0.9-0.6,1.2c0.2,0,0.4,0.1,0.7,0.4
			c0.3,0.3,0.5,0.7,0.5,1.1c0,0.6-0.3,1.1-0.6,1.3c-0.4,0.3-0.9,0.4-1.4,0.4h-2.5v-5.8H191.9z M191.7,206.7c0.1,0,0.4,0,0.6-0.2
			c0.1-0.1,0.3-0.3,0.3-0.6c0-0.3-0.1-0.4-0.3-0.6c-0.2-0.2-0.5-0.1-0.8-0.1h-0.9v1.5H191.7z M191.9,209.2c0.3,0,0.7,0,0.9-0.2
			c0.2-0.1,0.3-0.4,0.3-0.6c0-0.3-0.1-0.5-0.3-0.7c-0.3-0.2-0.6-0.2-0.9-0.2h-1.3v1.7H191.9z"/>
		<path class="st14" d="M200.2,204.3h1v5.8h-1v-0.8c-0.3,0.4-1,1-2,1c-1.5,0-2.8-1-2.8-3.1c0-2,1.3-3,2.8-3c1.1,0,1.7,0.6,2,1V204.3
			z M196.4,207.2c0,1.2,0.7,2.2,1.9,2.2c1.2,0,1.9-1,1.9-2.2c0-1.5-1-2.2-1.9-2.2C197.3,205.1,196.4,205.8,196.4,207.2z"/>
		<path class="st14" d="M207.5,210.1h-1v-4.9h-2.1v2.6c0,0.5,0,1.1-0.4,1.7c-0.2,0.2-0.6,0.6-1.4,0.6c-0.1,0-0.2,0-0.3,0v-0.9
			c0.1,0,0.2,0,0.2,0c0.4,0,0.6-0.2,0.7-0.4c0.2-0.3,0.2-0.6,0.2-1v-3.5h4.1V210.1z"/>
		<path class="st14" d="M210.4,204.3v3.8l4-4.3v6.3h-1v-3.9l-4,4.3v-6.2H210.4z"/>
		<path class="st14" d="M220.8,204.3v4.9h0.9v2.5h-0.9v-1.5h-4.4v1.5h-0.9v-2.5c0.5,0,0.9-0.4,1.1-0.8s0.2-1,0.2-1.5v-2.6H220.8z
			 M219.7,205.2h-2.1v2.2c0,0.7-0.2,1.3-0.7,1.8h2.8V205.2z"/>
		<path class="st14" d="M222.7,204.3h1v2.4h2.7v-2.4h1v5.8h-1v-2.5h-2.7v2.5h-1V204.3z"/>
		<path class="st14" d="M229,207.2c0-1.8,1.3-3.1,3.1-3.1s3.1,1.3,3.1,3.1c0,1.8-1.3,3.1-3.1,3.1S229,209,229,207.2z M230,207.2
			c0,1.4,1,2.2,2,2.2c1.1,0,2-0.7,2-2.2c0-1.4-1-2.2-2-2.2S230,205.8,230,207.2z"/>
		<path class="st14" d="M241.2,205.9c-0.5-0.7-1.3-0.9-1.8-0.9c-1.1,0-2.1,0.8-2.1,2.2c0,1.4,1,2.2,2,2.2c0.6,0,1.3-0.3,1.9-0.9v1.2
			c-0.6,0.5-1.3,0.6-1.8,0.6c-1.8,0-3.1-1.3-3.1-3c0-1.8,1.3-3.1,3.1-3.1c0.9,0,1.5,0.4,1.8,0.6V205.9z"/>
		<path class="st14" d="M244.8,205.2v4.9h-1v-4.9H242v-0.9h4.7v0.9H244.8z"/>
		<path class="st14" d="M248.7,204.3v3.8l4-4.3v6.3h-1v-3.9l-4,4.3v-6.2H248.7z"/>
	</g>
</g>
<g>
	<g>
		<path class="st14" d="M487.2,150.5v9.3h-1v-8.4h-4.8v8.4h-1v-9.3H487.2z"/>
		<path class="st14" d="M489,157c0-1.8,1.3-3.1,3.1-3.1s3.1,1.3,3.1,3.1s-1.3,3.1-3.1,3.1S489,158.8,489,157z M490.1,157
			c0,1.4,1,2.2,2,2.2c1.1,0,2-0.7,2-2.2c0-1.4-1-2.2-2-2.2S490.1,155.6,490.1,157z"/>
		<path class="st14" d="M501.1,159.9h-1V155H498v2.6c0,0.5,0,1.1-0.4,1.7c-0.2,0.2-0.6,0.6-1.4,0.6c-0.1,0-0.2,0-0.3,0V159
			c0.1,0,0.2,0,0.2,0c0.4,0,0.6-0.2,0.7-0.4c0.2-0.3,0.2-0.6,0.2-1v-3.5h4.1V159.9z"/>
		<path class="st14" d="M504.9,159.3l-2.7-5.3h1.1l2.1,4.2l1.9-4.2h1.1l-4.3,9H503L504.9,159.3z"/>
		<path class="st14" d="M512.4,157.6c-0.4,0.1-1,0.1-1.4,0.1c-0.3,0-1,0-1.4-0.4c-0.4-0.3-0.5-0.9-0.5-1.4v-1.8h1v1.7
			c0,0.2,0,0.5,0.1,0.7c0.2,0.3,0.6,0.4,0.9,0.4c0.4,0,0.8,0,1.3-0.1v-2.6h1v5.8h-1V157.6z"/>
		<path class="st14" d="M520.5,158.4c-0.2,0.3-0.4,0.7-0.7,0.9c-0.5,0.5-1.2,0.7-1.9,0.7c-1.4,0-2.9-0.9-2.9-3
			c0-1.7,1.1-3.1,2.8-3.1c1.1,0,1.8,0.6,2.2,1.1c0.4,0.5,0.6,1.4,0.5,2.2H516c0,1.2,0.8,2,1.8,2c0.5,0,0.9-0.1,1.2-0.4
			c0.3-0.2,0.5-0.5,0.6-0.8L520.5,158.4z M519.5,156.3c-0.2-0.9-0.9-1.5-1.7-1.5c-0.9,0-1.6,0.6-1.7,1.5H519.5z"/>
		<path class="st14" d="M522.1,154.1h1v2.4h2.7v-2.4h1v5.8h-1v-2.5h-2.7v2.5h-1V154.1z"/>
		<path class="st14" d="M529.8,154.1v3.8l4-4.3v6.3h-1V156l-4,4.3v-6.2H529.8z"/>
		<path class="st14" d="M540.8,158.4c-0.2,0.3-0.4,0.7-0.7,0.9c-0.5,0.5-1.2,0.7-1.9,0.7c-1.4,0-2.9-0.9-2.9-3
			c0-1.7,1.1-3.1,2.8-3.1c1.1,0,1.8,0.6,2.2,1.1c0.4,0.5,0.6,1.4,0.5,2.2h-4.5c0,1.2,0.8,2,1.8,2c0.5,0,0.9-0.1,1.2-0.4
			c0.3-0.2,0.5-0.5,0.6-0.8L540.8,158.4z M539.8,156.3c-0.2-0.9-0.9-1.5-1.7-1.5c-0.9,0-1.6,0.6-1.7,1.5H539.8z"/>
		<path class="st14" d="M479.8,173.8c0-1.8,1.3-3.1,3.1-3.1s3.1,1.3,3.1,3.1s-1.3,3.1-3.1,3.1S479.8,175.6,479.8,173.8z
			 M480.8,173.8c0,1.4,1,2.2,2,2.2c1.1,0,2-0.7,2-2.2c0-1.4-1-2.2-2-2.2S480.8,172.4,480.8,173.8z"/>
		<path class="st14" d="M489.3,171.8v4.9h-1v-4.9h-1.8v-0.9h4.7v0.9H489.3z"/>
		<path class="st14" d="M495.2,174.4c-0.4,0.1-1,0.1-1.4,0.1c-0.3,0-1,0-1.4-0.4c-0.4-0.3-0.5-0.9-0.5-1.4v-1.8h1v1.7
			c0,0.2,0,0.5,0.1,0.7c0.2,0.3,0.6,0.4,0.9,0.4c0.4,0,0.8,0,1.3-0.1v-2.6h1v5.8h-1V174.4z"/>
		<path class="st14" d="M503.2,175.2c-0.2,0.3-0.4,0.7-0.7,0.9c-0.5,0.5-1.2,0.7-1.9,0.7c-1.4,0-2.9-0.9-2.9-3
			c0-1.7,1.1-3.1,2.8-3.1c1.1,0,1.8,0.6,2.2,1.1c0.4,0.5,0.6,1.4,0.5,2.2h-4.5c0,1.2,0.8,2,1.8,2c0.5,0,0.9-0.1,1.2-0.4
			c0.3-0.2,0.5-0.5,0.6-0.8L503.2,175.2z M502.2,173.1c-0.2-0.9-0.9-1.5-1.7-1.5c-0.9,0-1.6,0.6-1.7,1.5H502.2z"/>
		<path class="st14" d="M506.8,171.8v4.9h-1v-4.9H504v-0.9h4.7v0.9H506.8z"/>
		<path class="st14" d="M509.7,170.9h1v2.4h2.7v-2.4h1v5.8h-1v-2.5h-2.7v2.5h-1V170.9z"/>
		<path class="st14" d="M516,173.8c0-1.8,1.3-3.1,3.1-3.1s3.1,1.3,3.1,3.1s-1.3,3.1-3.1,3.1S516,175.6,516,173.8z M517,173.8
			c0,1.4,1,2.2,2,2.2c1.1,0,2-0.7,2-2.2c0-1.4-1-2.2-2-2.2S517,172.4,517,173.8z"/>
		<path class="st14" d="M528.2,172.5c-0.5-0.7-1.3-0.9-1.8-0.9c-1.1,0-2.1,0.8-2.1,2.2s1,2.2,2,2.2c0.6,0,1.3-0.3,1.9-0.9v1.2
			c-0.6,0.5-1.3,0.6-1.8,0.6c-1.8,0-3.1-1.3-3.1-3c0-1.8,1.3-3.1,3.1-3.1c0.9,0,1.5,0.4,1.8,0.6V172.5z"/>
		<path class="st14" d="M531.8,171.8v4.9h-1v-4.9H529v-0.9h4.7v0.9H531.8z"/>
		<path class="st14" d="M535.7,170.9v3.8l4-4.3v6.3h-1v-3.9l-4,4.3v-6.2H535.7z"/>
	</g>
</g>
<g>
	<g>
		<path class="st14" d="M326.7,125.7h-4l-1.1,2.6h-1.1l4.3-9.8l4.2,9.8h-1.1L326.7,125.7z M326.3,124.7l-1.6-3.7l-1.6,3.7H326.3z"/>
		<path class="st14" d="M330,122.5h1v2.4h2.7v-2.4h1v5.8h-1v-2.5H331v2.5h-1V122.5z"/>
		<path class="st14" d="M338.5,127.8l-2.7-5.3h1.1l2.1,4.2l1.9-4.2h1.1l-4.3,9h-1.1L338.5,127.8z"/>
		<path class="st14" d="M347.4,128.4h-1v-4.9h-2.1v2.6c0,0.5,0,1.1-0.4,1.7c-0.2,0.2-0.6,0.6-1.4,0.6c-0.1,0-0.2,0-0.3,0v-0.9
			c0.1,0,0.2,0,0.2,0c0.4,0,0.6-0.2,0.7-0.4c0.2-0.3,0.2-0.6,0.2-1v-3.5h4.1V128.4z"/>
		<path class="st14" d="M350.3,122.5v3.8l4-4.3v6.3h-1v-3.9l-4,4.3v-6.2H350.3z"/>
		<path class="st14" d="M357.2,131.6h-1v-9h1v0.8c0.7-0.9,1.6-1,2-1c1.8,0,2.8,1.5,2.8,3.1c0,1.6-1,3-2.8,3c-0.9,0-1.6-0.4-2-1
			V131.6z M360.9,125.5c0-1.4-1-2.2-1.9-2.2s-1.9,0.8-1.9,2.2c0,1.2,0.8,2.2,1.9,2.2C360.2,127.6,360.9,126.7,360.9,125.5z"/>
		<path class="st14" d="M363.1,125.5c0-1.8,1.3-3.1,3.1-3.1s3.1,1.3,3.1,3.1s-1.3,3.1-3.1,3.1S363.1,127.2,363.1,125.5z
			 M364.2,125.5c0,1.4,1,2.2,2,2.2c1.1,0,2-0.7,2-2.2c0-1.4-1-2.2-2-2.2S364.2,124.1,364.2,125.5z"/>
		<path class="st14" d="M373,122.5c0.3,0,0.8,0,1.2,0.3c0.2,0.2,0.5,0.5,0.5,1.1c0,0.6-0.3,0.9-0.6,1.2c0.2,0,0.4,0.1,0.7,0.4
			c0.3,0.3,0.5,0.7,0.5,1.1c0,0.6-0.3,1.1-0.6,1.3c-0.4,0.3-0.9,0.4-1.4,0.4h-2.5v-5.8H373z M372.9,124.9c0.1,0,0.4,0,0.6-0.2
			c0.1-0.1,0.3-0.3,0.3-0.6c0-0.3-0.1-0.4-0.3-0.6c-0.2-0.2-0.5-0.1-0.8-0.1h-0.9v1.5H372.9z M373.1,127.5c0.3,0,0.7,0,0.9-0.2
			c0.2-0.1,0.3-0.4,0.3-0.6c0-0.3-0.1-0.5-0.3-0.7c-0.3-0.2-0.6-0.2-0.9-0.2h-1.3v1.7H373.1z"/>
		<path class="st14" d="M381.3,122.5h1v5.8h-1v-0.8c-0.3,0.4-1,1-2,1c-1.5,0-2.8-1-2.8-3.1c0-2,1.3-3,2.8-3c1.1,0,1.7,0.6,2,1V122.5
			z M377.5,125.4c0,1.2,0.7,2.2,1.9,2.2c1.2,0,1.9-1,1.9-2.2c0-1.5-1-2.2-1.9-2.2C378.4,123.3,377.5,124,377.5,125.4z"/>
		<path class="st14" d="M384.2,122.5h1v2.4h2.7v-2.4h1v5.8h-1v-2.5h-2.7v2.5h-1V122.5z"/>
		<path class="st14" d="M391.9,122.5v3.8l4-4.3v6.3h-1v-3.9l-4,4.3v-6.2H391.9z"/>
		<path class="st14" d="M402.9,126.9c-0.2,0.3-0.4,0.7-0.7,0.9c-0.5,0.5-1.2,0.7-1.9,0.7c-1.4,0-2.9-0.9-2.9-3
			c0-1.7,1.1-3.1,2.8-3.1c1.1,0,1.8,0.6,2.2,1.1c0.4,0.5,0.6,1.4,0.5,2.2h-4.5c0,1.2,0.8,2,1.8,2c0.5,0,0.9-0.1,1.2-0.4
			c0.3-0.2,0.5-0.5,0.6-0.8L402.9,126.9z M401.9,124.8c-0.2-0.9-0.9-1.5-1.7-1.5s-1.6,0.6-1.7,1.5H401.9z"/>
		<path class="st14" d="M326.9,135.4c-0.3,1.1-1.3,1.4-1.9,1.6c-0.5,0.1-1.3,0.3-1.8,0.7c-0.7,0.5-1.2,1.6-1.2,2.7h0
			c0.4-0.6,1.1-1.1,2.1-1.1c1.7,0,3,1.3,3,3.1s-1.3,3.1-3.2,3.1c-1,0-1.6-0.4-2-0.7c-0.9-0.8-1-2-1-3c0-1,0-3.7,1.7-4.8
			c0.6-0.4,1.4-0.6,2-0.7c0.8-0.2,1-0.4,1.2-0.7H326.9z M322,142.3c0,1.4,1,2.2,2,2.2c1.1,0,2-0.7,2-2.2c0-1.4-1-2.2-2-2.2
			S322,140.9,322,142.3z"/>
		<path class="st14" d="M329.6,139.3v3.8l4-4.3v6.3h-1v-3.9l-4,4.3v-6.2H329.6z"/>
		<path class="st14" d="M339.9,145.2h-1v-4.9h-2.1v2.6c0,0.5,0,1.1-0.4,1.7c-0.2,0.2-0.6,0.6-1.4,0.6c-0.1,0-0.2,0-0.3,0v-0.9
			c0.1,0,0.2,0,0.2,0c0.4,0,0.6-0.2,0.7-0.4c0.2-0.3,0.2-0.6,0.2-1v-3.5h4.1V145.2z"/>
		<path class="st14" d="M347,143.7c-0.2,0.3-0.4,0.7-0.7,0.9c-0.5,0.5-1.2,0.7-1.9,0.7c-1.4,0-2.9-0.9-2.9-3c0-1.7,1.1-3.1,2.8-3.1
			c1.1,0,1.8,0.6,2.2,1.1c0.4,0.5,0.6,1.4,0.5,2.2h-4.5c0,1.2,0.8,2,1.8,2c0.5,0,0.9-0.1,1.2-0.4c0.3-0.2,0.5-0.5,0.6-0.8L347,143.7
			z M346,141.6c-0.2-0.9-0.9-1.5-1.7-1.5c-0.9,0-1.6,0.6-1.7,1.5H346z"/>
		<path class="st14" d="M350.5,140.3v4.9h-1v-4.9h-1.8v-0.9h4.7v0.9H350.5z"/>
		<path class="st14" d="M357.7,139.3h1v5.8h-1v-0.8c-0.3,0.4-1,1-2,1c-1.5,0-2.8-1-2.8-3.1c0-2,1.3-3,2.8-3c1.1,0,1.7,0.6,2,1V139.3
			z M353.9,142.2c0,1.2,0.7,2.2,1.9,2.2c1.2,0,1.9-1,1.9-2.2c0-1.5-1-2.2-1.9-2.2C354.8,140.1,353.9,140.8,353.9,142.2z"/>
	</g>
</g>
<circle class="st2" cx="32.8" cy="35" r="20.9"/>
<g>
	<g>
		<path class="st3" d="M31.5,29h-2.7v-3.1h6.3v18.7h-3.6V29z"/>
	</g>
</g>
<linearGradient id="SVGID_4_" gradientUnits="userSpaceOnUse" x1="78.4221" y1="114.8399" x2="78.4221" y2="-11.9255">
	<stop  offset="0" style="stop-color:#233D7C"/>
	<stop  offset="1" style="stop-color:#5387C6"/>
</linearGradient>
<circle class="st15" cx="78.4" cy="75.7" r="43.6"/>
<g>
	<g>
		<path class="st16" d="M46.5,90.9c-1,0-1.8-0.8-1.8-1.8V59.2c0-1,0.8-1.8,1.8-1.8h25.8c1,0,1.8,0.8,1.8,1.8v29.9
			c0,1-0.8,1.8-1.8,1.8H46.5z"/>
	</g>
	<g>
		<line class="st16" x1="53.3" y1="64.6" x2="68.5" y2="64.6"/>
		<line class="st16" x1="53.4" y1="70.6" x2="68.5" y2="70.6"/>
		<line class="st16" x1="53.6" y1="76.7" x2="68.8" y2="76.7"/>
		<line class="st16" x1="53.6" y1="82.6" x2="68.7" y2="82.6"/>
	</g>
	<g>
		<line class="st16" x1="48.9" y1="64.6" x2="51.9" y2="64.6"/>
		<line class="st16" x1="49" y1="70.6" x2="51.9" y2="70.6"/>
		<line class="st16" x1="49" y1="76.7" x2="52" y2="76.7"/>
		<line class="st16" x1="49" y1="82.6" x2="52" y2="82.6"/>
	</g>
	<g>
		<path class="st16" d="M82.7,90.9c-1,0-1.8-0.8-1.8-1.8V59.2c0-1,0.8-1.8,1.8-1.8h25.8c1,0,1.8,0.8,1.8,1.8v29.9
			c0,1-0.8,1.8-1.8,1.8H82.7z"/>
	</g>
	<circle class="st3" cx="104.7" cy="64.4" r="1.5"/>
	<g>
		<g>
			<line class="st10" x1="74.1" y1="75.6" x2="77.1" y2="75.6"/>
			<line class="st17" x1="81.7" y1="75.6" x2="88.5" y2="75.6"/>
			<line class="st10" x1="90.8" y1="75.6" x2="93.8" y2="75.6"/>
		</g>
	</g>
	<polygon class="st3" points="89.3,75.6 89.3,71.3 93,73.5 96.7,75.6 93,77.7 89.3,79.8 	"/>
</g>
</svg>
