<?xml version="1.0" encoding="utf-8"?>
<!-- Generator: Adobe Illustrator 23.0.3, SVG Export Plug-In . SVG Version: 6.00 Build 0)  -->
<svg version="1.1" id="Слой_1" xmlns="http://www.w3.org/2000/svg" xmlns:xlink="http://www.w3.org/1999/xlink" x="0px" y="0px"
	 viewBox="0 0 435.3 143.2" style="enable-background:new 0 0 435.3 143.2;" xml:space="preserve">
<style type="text/css">
	.st0{fill:url(#SVGID_1_);}
	.st1{fill:none;stroke:#1F4487;stroke-width:1.9382;stroke-miterlimit:10;}
	.st2{fill:#FFFFFF;}
	.st3{fill:none;stroke:#A6B2B6;stroke-width:2;stroke-miterlimit:22.926;}
	.st4{fill:none;stroke:#154A8A;stroke-width:2.1712;stroke-linejoin:round;stroke-miterlimit:10;}
	.st5{fill:none;stroke:#154A8A;stroke-width:2.895;stroke-linejoin:round;stroke-miterlimit:10;}
	.st6{fill:none;stroke:#154A8A;stroke-width:1.4475;stroke-linejoin:round;stroke-miterlimit:10;}
	.st7{fill:none;stroke:#154A8A;stroke-width:1.9869;stroke-linejoin:round;stroke-miterlimit:10;}
</style>
<linearGradient id="SVGID_1_" gradientUnits="userSpaceOnUse" x1="153.5912" y1="68.3378" x2="216.1727" y2="68.3378">
	<stop  offset="0" style="stop-color:#233D7C"/>
	<stop  offset="1" style="stop-color:#5387C6"/>
</linearGradient>
<path class="st0" d="M181.3,81.9c-1.2,4.2-2.5,8-3.5,11.9c-0.8,2.9-2.1,5.6-3.7,8.2c-3,4.7-5.8,9.4-8.7,14.1
	c-2.6,4.1-7.8,4.3-10.6,0.4c-1.8-2.5-1.3-5.1,0.1-7.6c1.7-3,3.3-6.1,5.2-9c3.9-5.9,6.2-12.3,7.8-19.1c1.8-8.1,4-16.1,6.1-24.2
	c0.1-0.4,0.2-0.8,0.3-1.4c-2.2,0.5-3.8,1.4-4.5,3.7c-1.2,3.8-2.8,7.5-4.3,11.3c-1.2,3-3.7,4.1-6.8,3c-2.4-0.9-3.3-3.6-2.1-6.5
	c2-4.8,4-9.6,5.9-14.4c1-2.5,2.5-4.6,4.8-6.1c3.8-2.5,7.6-5.2,11.5-7.5c4.3-2.6,9-2.2,13.4-0.2c1.6,0.8,2.9,2.6,3.8,4.2
	c2.5,4.6,4.6,9.4,7,14.1c0.4,0.8,1.2,1.6,2,2.2c3,2,6,3.9,9,5.9c1.6,1,2.6,2.5,2.4,4.5c-0.3,3-2.9,4.7-5.8,3.7
	c-0.6-0.2-1.2-0.6-1.8-0.9c-1.5-0.9-2.9-1.9-4.4-2.7c-4.4-2.4-8.2-5.4-10.9-9.6c-0.2-0.3-0.5-0.6-1-1.1c-0.5,2.3-0.6,4.4-1.3,6.4
	c-1.5,4.4-0.4,7.8,2.8,11.2c3.3,3.6,6.1,7.7,8.9,11.7c1,1.4,1.7,3.2,2,4.9c1.2,6.5,2.1,13.1,3.2,19.7c0.6,4-1.1,6.4-5.2,7
	c-3.5,0.6-6.2-1.5-6.8-5c-0.7-3.9-1.4-7.8-2-11.7c-0.4-2.2-0.8-4.4-1.1-6.6c-0.2-1.6-0.9-2.9-2-4.1
	C187.5,88.7,184.6,85.4,181.3,81.9L181.3,81.9z M198.4,26.8c-0.1,5.2-4.3,9.4-9.5,9.4c-5.3,0-9.5-4.4-9.4-9.7
	c0.1-5.2,4.4-9.4,9.6-9.3C194.2,17.3,198.4,21.6,198.4,26.8L198.4,26.8z"/>
<path class="st1" d="M152.5,73.5c-0.7,0-1.4-0.2-2.2-0.4c-2.4-0.9-3.3-3.6-2.1-6.5c2-4.8,4-9.6,5.9-14.4c1-2.5,2.5-4.6,4.8-6.1
	c3.8-2.5,7.6-5.2,11.5-7.5c1.2-0.7,2.5-1.2,3.8-1.5"/>
<path class="st1" d="M151.7,119.3c-1.9,0-3.8-0.9-5.2-2.8c-1.8-2.5-1.3-5.1,0.1-7.6c1.7-3,3.3-6.1,5.2-9c3.9-5.9,6.2-12.3,7.8-19.1
	c0.1-0.3,0.1-0.7,0.2-1"/>
<path class="st1" d="M174.5,34c-2.1-1.8-3.4-4.5-3.4-7.5c0.1-5.2,4.4-9.4,9.6-9.3"/>
<g>
	<g>
		<g>
			<g>
				<path class="st2" d="M228.7,25.9c0-2.8,2.3-5,5-5h58c2.8,0,5,2.3,5,5v36.6c0,2.8-2.3,5-5,5h-58c-2.8,0-5-2.3-5-5V25.9z"/>
				<path class="st3" d="M228.7,25.9c0-2.8,2.3-5,5-5h58c2.8,0,5,2.3,5,5v36.6c0,2.8-2.3,5-5,5h-58c-2.8,0-5-2.3-5-5V25.9z"/>
			</g>
		</g>
	</g>
	<g>
		<line class="st4" x1="240.1" y1="30.8" x2="240.1" y2="57.6"/>
		<line class="st5" x1="244.4" y1="30.8" x2="244.4" y2="57.6"/>
		<line class="st6" x1="247.7" y1="30.8" x2="247.7" y2="57.6"/>
		<line class="st5" x1="252.5" y1="30.8" x2="252.5" y2="57.6"/>
		<line class="st7" x1="256.1" y1="30.8" x2="256.1" y2="57.6"/>
		<line class="st7" x1="260.4" y1="30.8" x2="260.4" y2="57.6"/>
		<line class="st5" x1="265.6" y1="30.8" x2="265.6" y2="57.6"/>
		<line class="st5" x1="269.3" y1="30.8" x2="269.3" y2="57.6"/>
		<line class="st7" x1="272.3" y1="30.8" x2="272.3" y2="57.6"/>
		<line class="st7" x1="276.5" y1="30.8" x2="276.5" y2="57.6"/>
		<line class="st7" x1="281.8" y1="30.8" x2="281.8" y2="57.6"/>
		<line class="st7" x1="285.4" y1="30.8" x2="285.4" y2="57.6"/>
	</g>
</g>
</svg>
