<?xml version="1.0" encoding="utf-8"?>
<!-- Generator: Adobe Illustrator 23.0.3, SVG Export Plug-In . SVG Version: 6.00 Build 0)  -->
<svg version="1.1" id="Слой_1" xmlns="http://www.w3.org/2000/svg" xmlns:xlink="http://www.w3.org/1999/xlink" x="0px" y="0px"
	 viewBox="0 0 435.3 143.2" style="enable-background:new 0 0 435.3 143.2;" xml:space="preserve">
<style type="text/css">
	.st0{fill:url(#SVGID_1_);}
	.st1{fill:none;stroke:url(#SVGID_2_);stroke-width:4;stroke-miterlimit:10;}
	.st2{fill:none;stroke:url(#SVGID_3_);stroke-width:2;stroke-miterlimit:10;}
	.st3{fill:url(#SVGID_4_);}
	.st4{fill:url(#SVGID_5_);}
	.st5{fill:none;stroke:#1F4487;stroke-width:1.2053;stroke-miterlimit:10;}
	.st6{fill:#7A7A7A;}
</style>
<g>
	<linearGradient id="SVGID_1_" gradientUnits="userSpaceOnUse" x1="226.1974" y1="40.2968" x2="251.756" y2="40.2968">
		<stop  offset="0" style="stop-color:#233D7C"/>
		<stop  offset="1" style="stop-color:#5387C6"/>
	</linearGradient>
	<path class="st0" d="M248.6,23.6c1.9,1.9,3.1,4.7,3.1,8c0,3.5-1.3,6-3,7.6c-3.2,3.1-7.4,3.4-9.7,3.4h-3.9v5.3h9.8v3.4h-9.8v9h-4.4
		v-9h-4.6v-3.4h4.6v-5.3h-4.6v-4h4.6V20.3h7.3C241.5,20.3,245.6,20.6,248.6,23.6z M235.2,38.7h3.7c3.5,0,5.6-1.2,6.7-2.3
		c0.5-0.6,1.7-2.2,1.7-5c0-1.4-0.2-3.1-1.7-4.6c-2-2.1-5.2-2.3-7.1-2.3h-3.3V38.7z"/>
</g>
<linearGradient id="SVGID_2_" gradientUnits="userSpaceOnUse" x1="206.2707" y1="40.7308" x2="269.7982" y2="40.7308">
	<stop  offset="0" style="stop-color:#233D7C"/>
	<stop  offset="1" style="stop-color:#5387C6"/>
</linearGradient>
<circle class="st1" cx="238" cy="40.7" r="29.8"/>
<linearGradient id="SVGID_3_" gradientUnits="userSpaceOnUse" x1="365.9139" y1="40.7308" x2="411.823" y2="40.7308">
	<stop  offset="0" style="stop-color:#233D7C"/>
	<stop  offset="1" style="stop-color:#5387C6"/>
</linearGradient>
<rect x="366.9" y="11" class="st2" width="43.9" height="59.5"/>
<linearGradient id="SVGID_4_" gradientUnits="userSpaceOnUse" x1="372.5048" y1="40.7579" x2="405.2325" y2="40.7579">
	<stop  offset="0" style="stop-color:#233D7C"/>
	<stop  offset="1" style="stop-color:#5387C6"/>
</linearGradient>
<path class="st3" d="M392.2,34.1h-19.7v-4h19.7V34.1z M372.5,27.4h32.7v-4h-32.7V27.4z M372.5,16.4v4h32.7v-4H372.5z M372.6,43.3
	l1,1.7l10.1-5.7l10.2,4.6l11.2-8.1l-1.2-1.6l-10.3,7.4l-10.1-4.6L372.6,43.3z M372.5,65.1h5.7v-10h-5.7V65.1z M381.3,65.1h5.7v-18
	h-5.7V65.1z M390.6,65.1h5.7V52h-5.7V65.1z M399.5,65.1h5.7V43h-5.7V65.1z"/>
<linearGradient id="SVGID_5_" gradientUnits="userSpaceOnUse" x1="62.6792" y1="36.7025" x2="101.5957" y2="36.7025">
	<stop  offset="0" style="stop-color:#233D7C"/>
	<stop  offset="1" style="stop-color:#5387C6"/>
</linearGradient>
<path class="st4" d="M79.9,45.1c-0.8,2.6-1.5,5-2.2,7.4c-0.5,1.8-1.3,3.5-2.3,5.1c-1.9,2.9-3.6,5.9-5.4,8.8
	c-1.6,2.6-4.9,2.7-6.6,0.2c-1.1-1.5-0.8-3.2,0-4.7c1-1.9,2.1-3.8,3.3-5.6c2.4-3.6,3.9-7.6,4.8-11.9c1.1-5,2.5-10,3.8-15.1
	c0.1-0.3,0.1-0.5,0.2-0.9c-1.4,0.3-2.3,0.9-2.8,2.3c-0.8,2.4-1.8,4.7-2.7,7c-0.7,1.9-2.3,2.6-4.2,1.9c-1.5-0.6-2-2.3-1.3-4.1
	c1.2-3,2.5-6,3.6-9c0.6-1.6,1.5-2.9,3-3.8c2.4-1.6,4.7-3.2,7.1-4.7c2.7-1.6,5.6-1.4,8.3-0.1c1,0.5,1.8,1.6,2.4,2.6
	c1.5,2.9,2.9,5.9,4.4,8.8c0.3,0.5,0.7,1,1.2,1.3c1.8,1.3,3.7,2.4,5.6,3.6c1,0.7,1.6,1.5,1.5,2.8c-0.2,1.9-1.8,2.9-3.6,2.3
	c-0.4-0.1-0.8-0.3-1.1-0.6c-0.9-0.6-1.8-1.2-2.8-1.7c-2.7-1.5-5.1-3.3-6.8-6c-0.1-0.2-0.3-0.4-0.6-0.7c-0.3,1.4-0.4,2.8-0.8,4
	c-1,2.8-0.3,4.9,1.7,7c2.1,2.2,3.8,4.8,5.6,7.3c0.6,0.9,1,2,1.2,3c0.7,4.1,1.3,8.2,2,12.2c0.4,2.5-0.7,4-3.3,4.4
	c-2.2,0.4-3.9-0.9-4.3-3.1c-0.4-2.4-0.8-4.9-1.3-7.3c-0.2-1.4-0.5-2.7-0.7-4.1c-0.1-1-0.6-1.8-1.3-2.5
	C83.8,49.4,81.9,47.3,79.9,45.1L79.9,45.1z M90.5,10.9c0,3.3-2.7,5.9-5.9,5.9c-3.3,0-5.9-2.7-5.9-6c0.1-3.3,2.7-5.8,6-5.8
	C88,4.9,90.6,7.6,90.5,10.9L90.5,10.9z"/>
<path class="st5" d="M62,39.9c-0.4,0-0.9-0.1-1.3-0.3c-1.5-0.6-2-2.3-1.3-4.1c1.2-3,2.5-6,3.6-9c0.6-1.6,1.5-2.9,3-3.8
	c2.4-1.6,4.7-3.2,7.1-4.7c0.8-0.5,1.6-0.8,2.4-0.9"/>
<path class="st5" d="M61.5,68.4c-1.2,0-2.4-0.6-3.2-1.8c-1.1-1.5-0.8-3.2,0-4.7c1-1.9,2.1-3.8,3.3-5.6c2.4-3.6,3.9-7.6,4.8-11.9
	c0-0.2,0.1-0.4,0.1-0.6"/>
<path class="st5" d="M75.7,15.3c-1.3-1.1-2.1-2.8-2.1-4.6c0.1-3.3,2.7-5.8,6-5.8"/>
<g>
	<g>
		<path class="st6" d="M14.6,89.7h-3.3v-3.8h7.7v22.7h-4.4V89.7z"/>
	</g>
</g>
<g>
	<g>
		<path class="st6" d="M181.7,101c0.4-0.5,3.1-3.5,3.9-4.7c0.6-0.9,1.3-2.3,1.3-3.6c0-2-1.5-3.4-3.4-3.4c-2.3,0-3.5,1.8-3.6,3.8
			h-4.6c0.2-4.6,3.5-7.6,8-7.6c5.3,0,8,3.6,8,7.2c0,3.5-2.3,6-4.1,7.9l-3.9,4.2h8.2v3.8H175L181.7,101z"/>
	</g>
</g>
<g>
	<g>
		<path class="st6" d="M334.2,91.8c0.4-4.1,3.5-6.4,7.4-6.4c4.4,0,7.1,2.4,7.1,6.3c0,1.2-0.2,3.4-2.6,4.8c0.9,0.4,3.5,1.7,3.5,5.4
			c0,4.7-3.6,7.3-8.1,7.3c-4.4,0-7.8-2.7-8.2-7h4.4c0.3,1.9,1.6,3.2,3.8,3.2c2.5,0,3.6-1.9,3.6-3.6c0-1.7-1-3.5-3.8-3.5h-0.6v-3.2
			h0.6c2.2,0,3.1-1.5,3.1-3.1c0-1.8-1.2-3-3-3c-1.6,0-3,1-3.1,3H334.2z"/>
	</g>
</g>
<g>
	<g>
		<path class="st6" d="M34.8,89.9l4-4h1.4l-4.4,4.4l4.5,5h-1.4l-3.8-4.3l-0.3,0.3v4h-1v-9.3h1V89.9z"/>
		<path class="st6" d="M40.5,92.3c0-1.8,1.3-3.1,3.1-3.1s3.1,1.3,3.1,3.1c0,1.8-1.3,3.1-3.1,3.1S40.5,94.1,40.5,92.3z M41.5,92.3
			c0,1.4,1,2.2,2,2.2c1.1,0,2-0.7,2-2.2c0-1.4-1-2.2-2-2.2S41.5,90.9,41.5,92.3z"/>
		<path class="st6" d="M48.2,89.4h1v2.4h2.7v-2.4h1v5.8h-1v-2.5h-2.7v2.5h-1V89.4z"/>
		<path class="st6" d="M56.8,90.3v4.9h-1v-4.9H54v-0.9h4.7v0.9H56.8z"/>
		<path class="st6" d="M60.7,98.4h-1v-9h1v0.8c0.7-0.9,1.6-1,2-1c1.8,0,2.8,1.5,2.8,3.1c0,1.6-1,3-2.8,3c-0.9,0-1.6-0.4-2-1V98.4z
			 M64.5,92.3c0-1.4-1-2.2-1.9-2.2s-1.9,0.8-1.9,2.2c0,1.2,0.8,2.2,1.9,2.2C63.8,94.5,64.5,93.5,64.5,92.3z"/>
		<path class="st6" d="M66.7,92.3c0-1.8,1.3-3.1,3.1-3.1s3.1,1.3,3.1,3.1c0,1.8-1.3,3.1-3.1,3.1S66.7,94.1,66.7,92.3z M67.8,92.3
			c0,1.4,1,2.2,2,2.2c1.1,0,2-0.7,2-2.2c0-1.4-1-2.2-2-2.2S67.8,90.9,67.8,92.3z"/>
		<path class="st6" d="M78.8,95.2h-1v-4.9h-2.1v2.6c0,0.5,0,1.1-0.4,1.7c-0.2,0.2-0.6,0.6-1.4,0.6c-0.1,0-0.2,0-0.3,0v-0.9
			c0.1,0,0.2,0,0.2,0c0.4,0,0.6-0.2,0.7-0.4c0.2-0.3,0.2-0.6,0.2-1v-3.5h4.1V95.2z"/>
		<path class="st6" d="M80.7,89.4h1v2.2h1c0.5,0,1.2,0,1.8,0.6c0.2,0.2,0.4,0.6,0.4,1.2c0,0.6-0.3,1.1-0.5,1.3
			c-0.5,0.5-1.1,0.5-1.7,0.5h-2V89.4z M82.7,94.3c0.3,0,0.7,0,0.9-0.2c0.1-0.1,0.4-0.3,0.4-0.7c0-0.3-0.1-0.5-0.4-0.7
			c-0.3-0.2-0.6-0.2-0.9-0.2h-1v1.8H82.7z"/>
		<path class="st6" d="M94.3,89.4v5.8h-1v-4.9h-2.7v4.9h-1v-5.8H94.3z"/>
		<path class="st6" d="M95.8,92.3c0-1.8,1.3-3.1,3.1-3.1s3.1,1.3,3.1,3.1c0,1.8-1.3,3.1-3.1,3.1S95.8,94.1,95.8,92.3z M96.8,92.3
			c0,1.4,1,2.2,2,2.2c1.1,0,2-0.7,2-2.2c0-1.4-1-2.2-2-2.2S96.8,90.9,96.8,92.3z"/>
		<path class="st6" d="M108.1,91c-0.5-0.7-1.3-0.9-1.8-0.9c-1.1,0-2.1,0.8-2.1,2.2c0,1.4,1,2.2,2,2.2c0.6,0,1.3-0.3,1.9-0.9v1.2
			c-0.6,0.5-1.3,0.6-1.8,0.6c-1.8,0-3.1-1.3-3.1-3c0-1.8,1.3-3.1,3.1-3.1c0.9,0,1.5,0.4,1.8,0.6V91z"/>
		<path class="st6" d="M114.8,93.7c-0.2,0.3-0.4,0.7-0.7,0.9c-0.5,0.5-1.2,0.7-1.9,0.7c-1.4,0-2.9-0.9-2.9-3c0-1.7,1.1-3.1,2.8-3.1
			c1.1,0,1.8,0.6,2.2,1.1c0.4,0.5,0.6,1.4,0.5,2.2h-4.5c0,1.2,0.8,2,1.8,2c0.5,0,0.9-0.1,1.2-0.4c0.3-0.2,0.5-0.5,0.6-0.8
			L114.8,93.7z M113.8,91.7c-0.2-0.9-0.9-1.5-1.7-1.5c-0.9,0-1.6,0.6-1.7,1.5H113.8z"/>
		<path class="st6" d="M116.4,89.4h1v4.9h2.2v-4.9h1v4.9h2.2v-4.9h1v4.9h1v2.5h-0.9v-1.5h-7.5V89.4z"/>
		<path class="st6" d="M131,93.7c-0.2,0.3-0.4,0.7-0.7,0.9c-0.5,0.5-1.2,0.7-1.9,0.7c-1.4,0-2.9-0.9-2.9-3c0-1.7,1.1-3.1,2.8-3.1
			c1.1,0,1.8,0.6,2.2,1.1c0.4,0.5,0.6,1.4,0.5,2.2h-4.5c0,1.2,0.8,2,1.8,2c0.5,0,0.9-0.1,1.2-0.4c0.3-0.2,0.5-0.5,0.6-0.8L131,93.7z
			 M130.1,91.7c-0.2-0.9-0.9-1.5-1.7-1.5c-0.9,0-1.6,0.6-1.7,1.5H130.1z"/>
		<path class="st6" d="M132.6,89.4h1v2.4h2.7v-2.4h1v5.8h-1v-2.5h-2.7v2.5h-1V89.4z"/>
		<path class="st6" d="M140.3,89.4v3.8l4-4.3v6.3h-1v-3.9l-4,4.3v-6.2H140.3z"/>
		<path class="st6" d="M147.2,89.4v3.8l4-4.3v6.3h-1v-3.9l-4,4.3v-6.2H147.2z M147.5,86.6c0.1,0.5,0.5,0.8,1.2,0.8
			c0.7,0,1-0.4,1.2-0.8l0.8,0.3c-0.3,0.8-1,1.4-2,1.4s-1.7-0.5-2-1.4L147.5,86.6z"/>
		<path class="st6" d="M38.2,106.2v5.8h-1v-4.9h-2.7v4.9h-1v-5.8H38.2z"/>
		<path class="st6" d="M39.7,109.1c0-1.8,1.3-3.1,3.1-3.1s3.1,1.3,3.1,3.1c0,1.8-1.3,3.1-3.1,3.1S39.7,110.9,39.7,109.1z
			 M40.7,109.1c0,1.4,1,2.2,2,2.2c1.1,0,2-0.7,2-2.2c0-1.4-1-2.2-2-2.2S40.7,107.7,40.7,109.1z"/>
		<path class="st6" d="M56.3,102.2c-0.3,1.1-1.3,1.4-1.9,1.6c-0.5,0.1-1.3,0.3-1.8,0.7c-0.7,0.5-1.2,1.6-1.2,2.7h0
			c0.4-0.6,1.1-1.1,2.1-1.1c1.7,0,3,1.3,3,3.1c0,1.7-1.3,3.1-3.2,3.1c-1,0-1.6-0.4-2-0.7c-0.9-0.8-1-2-1-3c0-1,0-3.7,1.7-4.8
			c0.6-0.4,1.4-0.6,2-0.7c0.8-0.2,1-0.4,1.2-0.7H56.3z M51.3,109.1c0,1.4,1,2.2,2,2.2c1.1,0,2-0.7,2-2.2c0-1.4-1-2.2-2-2.2
			S51.3,107.7,51.3,109.1z"/>
		<path class="st6" d="M59,106.2v3.8l4-4.3v6.3h-1v-3.9l-4,4.3v-6.2H59z"/>
		<path class="st6" d="M69.3,112h-1v-4.9h-2.1v2.6c0,0.5,0,1.1-0.4,1.7c-0.2,0.2-0.6,0.6-1.4,0.6c-0.1,0-0.2,0-0.3,0v-0.9
			c0.1,0,0.2,0,0.2,0c0.4,0,0.6-0.2,0.7-0.4c0.2-0.3,0.2-0.6,0.2-1v-3.5h4.1V112z"/>
		<path class="st6" d="M76.4,110.5c-0.2,0.3-0.4,0.7-0.7,0.9c-0.5,0.5-1.2,0.7-1.9,0.7c-1.4,0-2.9-0.9-2.9-3c0-1.7,1.1-3.1,2.8-3.1
			c1.1,0,1.8,0.6,2.2,1.1c0.4,0.5,0.6,1.4,0.5,2.2h-4.5c0,1.2,0.8,2,1.8,2c0.5,0,0.9-0.1,1.2-0.4c0.3-0.2,0.5-0.5,0.6-0.8
			L76.4,110.5z M75.4,108.5c-0.2-0.9-0.9-1.5-1.7-1.5c-0.9,0-1.6,0.6-1.7,1.5H75.4z"/>
		<path class="st6" d="M79.9,107.1v4.9h-1v-4.9h-1.8v-0.9h4.7v0.9H79.9z"/>
		<path class="st6" d="M87.1,106.2h1v5.8h-1v-0.8c-0.3,0.4-1,1-2,1c-1.5,0-2.8-1-2.8-3.1c0-2,1.3-3,2.8-3c1.1,0,1.7,0.6,2,1V106.2z
			 M83.3,109.1c0,1.2,0.7,2.2,1.9,2.2c1.2,0,1.9-1,1.9-2.2c0-1.5-1-2.2-1.9-2.2C84.2,106.9,83.3,107.7,83.3,109.1z"/>
		<path class="st6" d="M90.7,105.7l2.4,4.7l2.4-4.7l1.4,6.3h-1l-0.8-3.6l-2,4l-2-4l-0.7,3.6h-1L90.7,105.7z"/>
		<path class="st6" d="M105.9,107.8c-0.5-0.7-1.3-0.9-1.8-0.9c-1.1,0-2.1,0.8-2.1,2.2c0,1.4,1,2.2,2,2.2c0.6,0,1.3-0.3,1.9-0.9v1.2
			c-0.6,0.5-1.3,0.6-1.8,0.6c-1.8,0-3.1-1.3-3.1-3c0-1.8,1.3-3.1,3.1-3.1c0.9,0,1.5,0.4,1.8,0.6V107.8z"/>
		<path class="st6" d="M107,109.1c0-1.8,1.3-3.1,3.1-3.1s3.1,1.3,3.1,3.1c0,1.8-1.3,3.1-3.1,3.1S107,110.9,107,109.1z M108,109.1
			c0,1.4,1,2.2,2,2.2c1.1,0,2-0.7,2-2.2c0-1.4-1-2.2-2-2.2S108,107.7,108,109.1z"/>
		<path class="st6" d="M33.5,123h1v4.9h2.2V123h1v4.9H40V123h1v5.8h-7.5V123z"/>
		<path class="st6" d="M44.9,123.9v4.9h-1v-4.9h-1.8V123h4.7v0.9H44.9z"/>
		<path class="st6" d="M48.8,132h-1v-9h1v0.8c0.7-0.9,1.6-1,2-1c1.8,0,2.8,1.5,2.8,3.1c0,1.6-1,3-2.8,3c-0.9,0-1.6-0.4-2-1V132z
			 M52.6,125.9c0-1.4-1-2.2-1.9-2.2s-1.9,0.8-1.9,2.2c0,1.2,0.8,2.2,1.9,2.2C51.9,128.1,52.6,127.1,52.6,125.9z"/>
		<path class="st6" d="M56.1,123v3.8l4-4.3v6.3h-1v-3.9l-4,4.3V123H56.1z"/>
		<path class="st6" d="M63.7,125.7l-2.1-2.7h1.2l1.5,2l1.5-2H67l-2.1,2.7l2.4,3.1h-1.2l-1.8-2.4l-1.8,2.4h-1.2L63.7,125.7z"/>
		<path class="st6" d="M68.1,125.3h3.1v1h-3.1V125.3z"/>
		<path class="st6" d="M73.9,123v2.4l2.4-2.4h1.2l-2.5,2.6l2.8,3.2h-1.3l-2.3-2.5l-0.3,0.3v2.3h-1V123H73.9z"/>
		<path class="st6" d="M78.1,125.9c0-1.8,1.3-3.1,3.1-3.1s3.1,1.3,3.1,3.1S83,129,81.2,129S78.1,127.7,78.1,125.9z M79.2,125.9
			c0,1.4,1,2.2,2,2.2c1.1,0,2-0.7,2-2.2c0-1.4-1-2.2-2-2.2S79.2,124.5,79.2,125.9z"/>
		<path class="st6" d="M90.3,123v4.9h0.9v2.5h-0.9v-1.5h-4.4v1.5h-0.9v-2.5c0.5,0,0.9-0.4,1.1-0.8c0.2-0.4,0.2-1,0.2-1.5V123H90.3z
			 M89.3,123.9h-2.1v2.2c0,0.7-0.2,1.3-0.7,1.8h2.8V123.9z"/>
		<path class="st6" d="M91.9,125.9c0-1.8,1.3-3.1,3.1-3.1s3.1,1.3,3.1,3.1S96.7,129,95,129S91.9,127.7,91.9,125.9z M92.9,125.9
			c0,1.4,1,2.2,2,2.2c1.1,0,2-0.7,2-2.2c0-1.4-1-2.2-2-2.2S92.9,124.5,92.9,125.9z"/>
		<path class="st6" d="M100.3,122.5l2.4,4.7l2.4-4.7l1.4,6.3h-1l-0.8-3.6l-2,4l-2-4l-0.7,3.6h-1L100.3,122.5z"/>
	</g>
</g>
<g>
	<g>
		<path class="st6" d="M200.7,88.9l4-4h1.4l-4.4,4.4l4.5,5h-1.4l-3.8-4.3l-0.3,0.3v4h-1v-9.3h1V88.9z"/>
		<path class="st6" d="M206.4,91.3c0-1.8,1.3-3.1,3.1-3.1s3.1,1.3,3.1,3.1c0,1.8-1.3,3.1-3.1,3.1S206.4,93.1,206.4,91.3z
			 M207.5,91.3c0,1.4,1,2.2,2,2.2c1.1,0,2-0.7,2-2.2c0-1.4-1-2.2-2-2.2S207.5,89.9,207.5,91.3z"/>
		<path class="st6" d="M214.1,88.4h1v2.4h2.7v-2.4h1v5.8h-1v-2.5h-2.7v2.5h-1V88.4z"/>
		<path class="st6" d="M222.8,89.3v4.9h-1v-4.9H220v-0.9h4.7v0.9H222.8z"/>
		<path class="st6" d="M226.7,97.4h-1v-9h1v0.8c0.7-0.9,1.6-1,2-1c1.8,0,2.8,1.5,2.8,3.1c0,1.6-1,3-2.8,3c-0.9,0-1.6-0.4-2-1V97.4z
			 M230.5,91.3c0-1.4-1-2.2-1.9-2.2s-1.9,0.8-1.9,2.2c0,1.2,0.8,2.2,1.9,2.2C229.8,93.5,230.5,92.5,230.5,91.3z"/>
		<path class="st6" d="M232.7,91.3c0-1.8,1.3-3.1,3.1-3.1s3.1,1.3,3.1,3.1c0,1.8-1.3,3.1-3.1,3.1S232.7,93.1,232.7,91.3z
			 M233.7,91.3c0,1.4,1,2.2,2,2.2c1.1,0,2-0.7,2-2.2c0-1.4-1-2.2-2-2.2S233.7,89.9,233.7,91.3z"/>
		<path class="st6" d="M244.8,94.2h-1v-4.9h-2.1v2.6c0,0.5,0,1.1-0.4,1.7c-0.2,0.2-0.6,0.6-1.4,0.6c-0.1,0-0.2,0-0.3,0v-0.9
			c0.1,0,0.2,0,0.2,0c0.4,0,0.6-0.2,0.7-0.4c0.2-0.3,0.2-0.6,0.2-1v-3.5h4.1V94.2z"/>
		<path class="st6" d="M246.7,88.4h1v2.2h1c0.5,0,1.2,0,1.8,0.6c0.2,0.2,0.4,0.6,0.4,1.2c0,0.6-0.3,1.1-0.5,1.3
			c-0.5,0.5-1.1,0.5-1.7,0.5h-2V88.4z M248.6,93.3c0.3,0,0.7,0,0.9-0.2c0.1-0.1,0.4-0.3,0.4-0.7c0-0.3-0.1-0.5-0.4-0.7
			c-0.3-0.2-0.6-0.2-0.9-0.2h-1v1.8H248.6z"/>
		<path class="st6" d="M257.7,88.4c0.3,0,0.8,0,1.2,0.3c0.2,0.2,0.5,0.5,0.5,1.1c0,0.6-0.3,0.9-0.6,1.2c0.2,0,0.4,0.1,0.7,0.4
			c0.3,0.3,0.5,0.7,0.5,1.1c0,0.6-0.3,1.1-0.6,1.3c-0.4,0.3-0.9,0.4-1.4,0.4h-2.5v-5.8H257.7z M257.6,90.8c0.1,0,0.4,0,0.6-0.2
			c0.1-0.1,0.3-0.3,0.3-0.6c0-0.3-0.1-0.4-0.3-0.6c-0.2-0.2-0.5-0.1-0.8-0.1h-0.9v1.5H257.6z M257.8,93.3c0.3,0,0.7,0,0.9-0.2
			c0.2-0.1,0.3-0.4,0.3-0.6c0-0.3-0.1-0.5-0.3-0.7c-0.3-0.2-0.6-0.2-0.9-0.2h-1.3v1.7H257.8z"/>
		<path class="st6" d="M261.6,88.4h1v2.2h1c0.5,0,1.2,0,1.8,0.6c0.2,0.2,0.4,0.6,0.4,1.2c0,0.6-0.3,1.1-0.5,1.3
			c-0.5,0.5-1.1,0.5-1.7,0.5h-2V88.4z M263.5,93.3c0.3,0,0.7,0,0.9-0.2c0.1-0.1,0.4-0.3,0.4-0.7c0-0.3-0.1-0.5-0.4-0.7
			c-0.3-0.2-0.6-0.2-0.9-0.2h-1v1.8H263.5z M266.5,88.4h1v5.8h-1V88.4z"/>
		<path class="st6" d="M270.4,97.4h-1v-9h1v0.8c0.7-0.9,1.6-1,2-1c1.8,0,2.8,1.5,2.8,3.1c0,1.6-1,3-2.8,3c-0.9,0-1.6-0.4-2-1V97.4z
			 M274.2,91.3c0-1.4-1-2.2-1.9-2.2s-1.9,0.8-1.9,2.2c0,1.2,0.8,2.2,1.9,2.2C273.5,93.5,274.2,92.5,274.2,91.3z"/>
		<path class="st6" d="M278.6,93.7l-2.7-5.3h1.1l2.1,4.2l1.9-4.2h1.1l-4.3,9h-1.1L278.6,93.7z"/>
		<path class="st6" d="M286.2,91.9c-0.4,0.1-1,0.1-1.4,0.1c-0.3,0-1,0-1.4-0.4c-0.4-0.4-0.5-0.9-0.5-1.4v-1.8h1v1.7
			c0,0.2,0,0.5,0.1,0.7c0.2,0.4,0.6,0.4,0.9,0.4c0.4,0,0.8,0,1.3-0.1v-2.6h1v5.8h-1V91.9z"/>
		<path class="st6" d="M290.1,88.4v2.4l2.4-2.4h1.2l-2.5,2.6l2.8,3.2h-1.3l-2.3-2.5l-0.3,0.3v2.3h-1v-5.8H290.1z"/>
		<path class="st6" d="M296,88.4v3.8l4-4.3v6.3h-1v-3.9l-4,4.3v-6.2H296z"/>
		<path class="st6" d="M199.1,108.1c0-1.8,1.3-3.1,3.1-3.1s3.1,1.3,3.1,3.1c0,1.8-1.3,3.1-3.1,3.1S199.1,109.9,199.1,108.1z
			 M200.1,108.1c0,1.4,1,2.2,2,2.2c1.1,0,2-0.7,2-2.2c0-1.4-1-2.2-2-2.2S200.1,106.7,200.1,108.1z"/>
		<path class="st6" d="M208.6,106.1v4.9h-1v-4.9h-1.8v-0.9h4.7v0.9H208.6z"/>
		<path class="st6" d="M219.5,105.2v5.8h-1v-4.9h-2.7v4.9h-1v-5.8H219.5z"/>
		<path class="st6" d="M222.4,114.2h-1v-9h1v0.8c0.7-0.9,1.6-1,2-1c1.8,0,2.8,1.5,2.8,3.1c0,1.6-1,3-2.8,3c-0.9,0-1.6-0.4-2-1V114.2
			z M226.1,108.1c0-1.4-1-2.2-1.9-2.2s-1.9,0.8-1.9,2.2c0,1.2,0.8,2.2,1.9,2.2C225.4,110.3,226.1,109.3,226.1,108.1z"/>
		<path class="st6" d="M228.4,108.1c0-1.8,1.3-3.1,3.1-3.1s3.1,1.3,3.1,3.1c0,1.8-1.3,3.1-3.1,3.1S228.4,109.9,228.4,108.1z
			 M229.4,108.1c0,1.4,1,2.2,2,2.2c1.1,0,2-0.7,2-2.2c0-1.4-1-2.2-2-2.2S229.4,106.7,229.4,108.1z"/>
		<path class="st6" d="M240.6,105.2v4.9h0.9v2.5h-0.9V111h-4.4v1.5h-0.9v-2.5c0.5,0,0.9-0.4,1.1-0.8s0.2-1,0.2-1.5v-2.6H240.6z
			 M239.6,106.1h-2.1v2.2c0,0.7-0.2,1.3-0.7,1.8h2.8V106.1z"/>
		<path class="st6" d="M247,105.2h1v5.8h-1v-0.8c-0.3,0.4-1,1-2,1c-1.5,0-2.8-1-2.8-3.1c0-2,1.3-3,2.8-3c1.1,0,1.7,0.6,2,1V105.2z
			 M243.2,108.1c0,1.2,0.7,2.2,1.9,2.2c1.2,0,1.9-1,1.9-2.2c0-1.5-1-2.2-1.9-2.2C244.1,105.9,243.2,106.7,243.2,108.1z"/>
		<path class="st6" d="M253.6,105.2v2.4l2.2-2.4h1.2l-2.5,2.7l2.8,3.1h-1.3l-2.2-2.5l-0.2,0.2v2.3h-1v-2.3l-0.2-0.2l-2.2,2.5H249
			l2.8-3.1l-2.5-2.7h1.2l2.2,2.4v-2.4H253.6z"/>
		<path class="st6" d="M259.2,105.2v3.8l4-4.3v6.3h-1v-3.9l-4,4.3v-6.2H259.2z"/>
		<path class="st6" d="M205.1,118c-0.3,1.1-1.3,1.4-1.9,1.6c-0.5,0.1-1.3,0.3-1.8,0.7c-0.7,0.5-1.2,1.6-1.2,2.7h0
			c0.4-0.6,1.1-1.1,2.1-1.1c1.7,0,3,1.3,3,3.1s-1.3,3.1-3.2,3.1c-1,0-1.6-0.4-2-0.7c-0.9-0.8-1-2-1-3c0-1,0-3.7,1.7-4.8
			c0.6-0.4,1.4-0.6,2-0.7c0.8-0.2,1-0.4,1.2-0.7H205.1z M200.1,124.9c0,1.4,1,2.2,2,2.2c1.1,0,2-0.7,2-2.2c0-1.4-1-2.2-2-2.2
			S200.1,123.5,200.1,124.9z"/>
		<path class="st6" d="M207.8,122v3.8l4-4.3v6.3h-1v-3.9l-4,4.3V122H207.8z"/>
		<path class="st6" d="M218.1,127.8h-1v-4.9H215v2.6c0,0.5,0,1.1-0.4,1.7c-0.2,0.2-0.6,0.6-1.4,0.6c-0.1,0-0.2,0-0.3,0v-0.9
			c0.1,0,0.2,0,0.2,0c0.4,0,0.6-0.2,0.7-0.4c0.2-0.3,0.2-0.6,0.2-1V122h4.1V127.8z"/>
		<path class="st6" d="M225.1,126.3c-0.2,0.3-0.4,0.7-0.7,0.9c-0.5,0.5-1.2,0.7-1.9,0.7c-1.4,0-2.9-0.9-2.9-3c0-1.7,1.1-3.1,2.8-3.1
			c1.1,0,1.8,0.6,2.2,1.1c0.4,0.5,0.6,1.4,0.5,2.2h-4.5c0,1.2,0.8,2,1.8,2c0.5,0,0.9-0.1,1.2-0.4c0.3-0.2,0.5-0.5,0.6-0.8
			L225.1,126.3z M224.1,124.3c-0.2-0.9-0.9-1.5-1.7-1.5c-0.9,0-1.6,0.6-1.7,1.5H224.1z"/>
		<path class="st6" d="M228.7,122.9v4.9h-1v-4.9h-1.8V122h4.7v0.9H228.7z"/>
		<path class="st6" d="M231.1,124.9c0-1.8,1.3-3.1,3.1-3.1s3.1,1.3,3.1,3.1s-1.3,3.1-3.1,3.1S231.1,126.7,231.1,124.9z M232.1,124.9
			c0,1.4,1,2.2,2,2.2c1.1,0,2-0.7,2-2.2c0-1.4-1-2.2-2-2.2S232.1,123.5,232.1,124.9z"/>
		<path class="st6" d="M241,122c0.3,0,0.8,0,1.2,0.3c0.2,0.2,0.5,0.5,0.5,1.1c0,0.6-0.3,0.9-0.6,1.2c0.2,0,0.4,0.1,0.7,0.4
			c0.3,0.3,0.5,0.7,0.5,1.1c0,0.6-0.3,1.1-0.6,1.3c-0.4,0.3-0.9,0.4-1.4,0.4h-2.5V122H241z M240.8,124.4c0.1,0,0.4,0,0.6-0.2
			c0.1-0.1,0.3-0.3,0.3-0.6c0-0.3-0.1-0.4-0.3-0.6c-0.2-0.2-0.5-0.1-0.8-0.1h-0.9v1.5H240.8z M241,126.9c0.3,0,0.7,0,0.9-0.2
			c0.2-0.1,0.3-0.4,0.3-0.6c0-0.3-0.1-0.5-0.3-0.7c-0.3-0.2-0.6-0.2-0.9-0.2h-1.3v1.7H241z"/>
	</g>
</g>
<g>
	<g>
		<path class="st6" d="M368.8,84.9v9.3h-1v-8.4H363v8.4h-1v-9.3H368.8z"/>
		<path class="st6" d="M370.6,91.3c0-1.8,1.3-3.1,3.1-3.1s3.1,1.3,3.1,3.1c0,1.8-1.3,3.1-3.1,3.1S370.6,93.1,370.6,91.3z
			 M371.7,91.3c0,1.4,1,2.2,2,2.2c1.1,0,2-0.7,2-2.2c0-1.4-1-2.2-2-2.2S371.7,89.9,371.7,91.3z"/>
		<path class="st6" d="M382.7,94.2h-1v-4.9h-2.1v2.6c0,0.5,0,1.1-0.4,1.7c-0.2,0.2-0.6,0.6-1.4,0.6c-0.1,0-0.2,0-0.3,0v-0.9
			c0.1,0,0.2,0,0.2,0c0.4,0,0.6-0.2,0.7-0.4c0.2-0.3,0.2-0.6,0.2-1v-3.5h4.1V94.2z"/>
		<path class="st6" d="M386.5,93.7l-2.7-5.3h1.1l2.1,4.2l1.9-4.2h1.1l-4.3,9h-1.1L386.5,93.7z"/>
		<path class="st6" d="M394,91.9c-0.4,0.1-1,0.1-1.4,0.1c-0.3,0-1,0-1.4-0.4c-0.4-0.4-0.5-0.9-0.5-1.4v-1.8h1v1.7
			c0,0.2,0,0.5,0.1,0.7c0.2,0.4,0.6,0.4,0.9,0.4c0.4,0,0.8,0,1.3-0.1v-2.6h1v5.8h-1V91.9z"/>
		<path class="st6" d="M402.1,92.7c-0.2,0.3-0.4,0.7-0.7,0.9c-0.5,0.5-1.2,0.7-1.9,0.7c-1.4,0-2.9-0.9-2.9-3c0-1.7,1.1-3.1,2.8-3.1
			c1.1,0,1.8,0.6,2.2,1.1c0.4,0.5,0.6,1.4,0.5,2.2h-4.5c0,1.2,0.8,2,1.8,2c0.5,0,0.9-0.1,1.2-0.4c0.3-0.2,0.5-0.5,0.6-0.8
			L402.1,92.7z M401.1,90.7c-0.2-0.9-0.9-1.5-1.7-1.5s-1.6,0.6-1.7,1.5H401.1z"/>
		<path class="st6" d="M403.7,88.4h1v2.4h2.7v-2.4h1v5.8h-1v-2.5h-2.7v2.5h-1V88.4z"/>
		<path class="st6" d="M411.4,88.4v3.8l4-4.3v6.3h-1v-3.9l-4,4.3v-6.2H411.4z"/>
		<path class="st6" d="M422.4,92.7c-0.2,0.3-0.4,0.7-0.7,0.9c-0.5,0.5-1.2,0.7-1.9,0.7c-1.4,0-2.9-0.9-2.9-3c0-1.7,1.1-3.1,2.8-3.1
			c1.1,0,1.8,0.6,2.2,1.1c0.4,0.5,0.6,1.4,0.5,2.2h-4.5c0,1.2,0.8,2,1.8,2c0.5,0,0.9-0.1,1.2-0.4c0.3-0.2,0.5-0.5,0.6-0.8
			L422.4,92.7z M421.4,90.7c-0.2-0.9-0.9-1.5-1.7-1.5s-1.6,0.6-1.7,1.5H421.4z"/>
		<path class="st6" d="M361.4,108.1c0-1.8,1.3-3.1,3.1-3.1s3.1,1.3,3.1,3.1c0,1.8-1.3,3.1-3.1,3.1S361.4,109.9,361.4,108.1z
			 M362.4,108.1c0,1.4,1,2.2,2,2.2c1.1,0,2-0.7,2-2.2c0-1.4-1-2.2-2-2.2S362.4,106.7,362.4,108.1z"/>
		<path class="st6" d="M370.9,106.1v4.9h-1v-4.9h-1.8v-0.9h4.7v0.9H370.9z"/>
		<path class="st6" d="M376.8,108.7c-0.4,0.1-1,0.1-1.4,0.1c-0.3,0-1,0-1.4-0.4c-0.4-0.4-0.5-0.9-0.5-1.4v-1.8h1v1.7
			c0,0.2,0,0.5,0.1,0.7c0.2,0.4,0.6,0.4,0.9,0.4c0.4,0,0.8,0,1.3-0.1v-2.6h1v5.8h-1V108.7z"/>
		<path class="st6" d="M384.8,109.5c-0.2,0.3-0.4,0.7-0.7,0.9c-0.5,0.5-1.2,0.7-1.9,0.7c-1.4,0-2.9-0.9-2.9-3c0-1.7,1.1-3.1,2.8-3.1
			c1.1,0,1.8,0.6,2.2,1.1c0.4,0.5,0.6,1.4,0.5,2.2h-4.5c0,1.2,0.8,2,1.8,2c0.5,0,0.9-0.1,1.2-0.4c0.3-0.2,0.5-0.5,0.6-0.8
			L384.8,109.5z M383.8,107.5c-0.2-0.9-0.9-1.5-1.7-1.5c-0.9,0-1.6,0.6-1.7,1.5H383.8z"/>
		<path class="st6" d="M388.4,106.1v4.9h-1v-4.9h-1.8v-0.9h4.7v0.9H388.4z"/>
		<path class="st6" d="M391.3,105.2h1v2.4h2.7v-2.4h1v5.8h-1v-2.5h-2.7v2.5h-1V105.2z"/>
		<path class="st6" d="M397.6,108.1c0-1.8,1.3-3.1,3.1-3.1s3.1,1.3,3.1,3.1c0,1.8-1.3,3.1-3.1,3.1S397.6,109.9,397.6,108.1z
			 M398.6,108.1c0,1.4,1,2.2,2,2.2c1.1,0,2-0.7,2-2.2c0-1.4-1-2.2-2-2.2S398.6,106.7,398.6,108.1z"/>
		<path class="st6" d="M409.8,106.8c-0.5-0.7-1.3-0.9-1.8-0.9c-1.1,0-2.1,0.8-2.1,2.2c0,1.4,1,2.2,2,2.2c0.6,0,1.3-0.3,1.9-0.9v1.2
			c-0.6,0.5-1.3,0.6-1.8,0.6c-1.8,0-3.1-1.3-3.1-3c0-1.8,1.3-3.1,3.1-3.1c0.9,0,1.5,0.4,1.8,0.6V106.8z"/>
		<path class="st6" d="M413.4,106.1v4.9h-1v-4.9h-1.8v-0.9h4.7v0.9H413.4z"/>
		<path class="st6" d="M417.3,105.2v3.8l4-4.3v6.3h-1v-3.9l-4,4.3v-6.2H417.3z"/>
	</g>
</g>
</svg>
