<?xml version="1.0" encoding="utf-8"?>
<!-- Generator: Adobe Illustrator 24.2.1, SVG Export Plug-In . SVG Version: 6.00 Build 0)  -->
<svg version="1.1" id="Слой_1" xmlns="http://www.w3.org/2000/svg" xmlns:xlink="http://www.w3.org/1999/xlink" x="0px" y="0px"
	 viewBox="0 0 935.5 600" style="enable-background:new 0 0 935.5 600;" xml:space="preserve">
<style type="text/css">
	.st0{fill:none;stroke:#4E86B9;stroke-width:1.5004;stroke-linecap:round;stroke-linejoin:round;stroke-miterlimit:10;}
	.st1{fill:#FFFFFF;}
	.st2{fill:none;stroke:#4E86B9;stroke-width:0.5;stroke-linecap:round;stroke-linejoin:round;stroke-miterlimit:10;}
	.st3{fill:#4E86B9;}
	.st4{fill:none;stroke:#4E86B9;stroke-width:0.5;stroke-linecap:round;stroke-linejoin:round;}
	.st5{fill:none;stroke:#4E86B9;stroke-width:0.5;stroke-linecap:round;stroke-linejoin:round;stroke-dasharray:7.9503,7.9503;}
	.st6{fill:none;stroke:#4E86B9;stroke-width:0.5;stroke-linecap:round;stroke-linejoin:round;stroke-dasharray:7.8781,7.8781;}
	.st7{fill:none;stroke:#4E86B9;stroke-width:0.5;stroke-linecap:round;stroke-linejoin:round;stroke-dasharray:5.8047,5.8047;}
	.st8{enable-background:new    ;}
	.st9{fill:none;stroke:#4E86B9;stroke-width:0.5;stroke-linecap:round;stroke-linejoin:round;stroke-dasharray:5.7795;}
	
		.st10{fill:none;stroke:#4E86B9;stroke-width:0.5;stroke-linecap:round;stroke-linejoin:round;stroke-miterlimit:10;stroke-dasharray:8,8;}
	
		.st11{fill:none;stroke:#000000;stroke-width:0.5;stroke-linecap:round;stroke-linejoin:round;stroke-miterlimit:10;stroke-dasharray:12,4;}
</style>
<line class="st0" x1="813.5" y1="389.6" x2="813.5" y2="380.5"/>
<g>
	<line class="st0" x1="798.7" y1="456.2" x2="798.7" y2="459.6"/>
	<line class="st0" x1="794.4" y1="460.8" x2="794.4" y2="457.4"/>
	<g>
		<line class="st0" x1="784.5" y1="406.3" x2="763.9" y2="394.4"/>
		<line class="st0" x1="784.5" y1="406.3" x2="763.7" y2="394.3"/>
		<line class="st0" x1="813.3" y1="391.6" x2="813.3" y2="503"/>
		<line class="st0" x1="784.4" y1="407.4" x2="784.4" y2="520"/>
		<line class="st0" x1="784.4" y1="407.4" x2="763.9" y2="395.6"/>
		<line class="st0" x1="784.4" y1="520" x2="763.7" y2="507.3"/>
		<line class="st0" x1="763.7" y1="394.3" x2="763.7" y2="404.9"/>
		<line class="st0" x1="763.7" y1="417.9" x2="763.7" y2="507.3"/>
		<line class="st0" x1="763.7" y1="394.3" x2="763.7" y2="386.8"/>
		<line class="st0" x1="784.5" y1="406.3" x2="784.5" y2="396.7"/>
		<line class="st0" x1="763.7" y1="386.8" x2="784.5" y2="396.7"/>
		<line class="st0" x1="813.3" y1="380.1" x2="792.6" y2="370.1"/>
		<path class="st0" d="M784.4,520c15.9,0.1,28.9-6.3,28.9-17"/>
		<path class="st0" d="M784.4,407.4c9.8-0.1,29-2.4,29-17.8"/>
		<path class="st0" d="M784.5,406.3c9.8-0.1,28.9-1.3,28.9-16.7"/>
		<path class="st0" d="M784.5,396.7c17.3-0.6,29.2-8.3,28.9-16.2"/>
		<path class="st0" d="M763.7,386.8c0-9.1,13.1-16.7,28.9-16.7"/>
	</g>
	<path class="st0" d="M794.4,457.4c0-2.1,4.3-2.6,4.3-1.2"/>
	<path class="st0" d="M798.7,459.6c0,1.9-4.3,2.9-4.3,1.1"/>
</g>
<path class="st1" d="M768.5,408.5c2.8-6.6,10.3,0.4,10.6,6.1"/>
<path class="st1" d="M768.5,408.5c3.5-4.1,8,2.3,8.4,4.8"/>
<path class="st1" d="M770.2,409.5c1.4-1.7,4.4,0.5,5.5,3.2"/>
<line class="st2" x1="763.7" y1="507.3" x2="811.6" y2="537.1"/>
<line class="st2" x1="813.3" y1="503" x2="855.1" y2="527.3"/>
<line class="st2" x1="812.9" y1="403.8" x2="829.7" y2="413.2"/>
<line class="st2" x1="771.1" y1="420.6" x2="801.4" y2="438.4"/>
<line class="st2" x1="838" y1="391.8" x2="838" y2="517.4"/>
<line class="st2" x1="851.7" y1="124" x2="851.7" y2="525.3"/>
<line class="st2" x1="812.8" y1="379.3" x2="842.4" y2="393.9"/>
<line class="st2" x1="807.9" y1="534.8" x2="837.4" y2="517.5"/>
<line class="st2" x1="791.5" y1="432.6" x2="827" y2="411.8"/>
<line class="st2" x1="772.1" y1="374.8" x2="795.7" y2="361"/>
<line class="st2" x1="803" y1="392.7" x2="830.5" y2="376.6"/>
<line class="st2" x1="793.2" y1="362.5" x2="828.1" y2="377.9"/>
<line class="st2" x1="771.9" y1="84.8" x2="857.2" y2="126.7"/>
<line class="st2" x1="469.4" y1="345.6" x2="489.9" y2="333.6"/>
<line class="st2" x1="778.5" y1="531.2" x2="806.6" y2="515.1"/>
<line class="st2" x1="784" y1="528.1" x2="474.9" y2="342.4"/>
<g id="XMLID_1_">
	<g>
		<path class="st3" d="M853.4,514.3l-1.7,10.9l-1.7-10.9C850,514.3,851.7,517.3,853.4,514.3z"/>
	</g>
</g>
<g id="XMLID_2_">
	<g>
		<path class="st3" d="M839.7,506.1L838,517l-1.7-10.9C836.3,506.1,838,509.1,839.7,506.1z"/>
	</g>
</g>
<g id="XMLID_3_">
	<g>
		<path class="st3" d="M836.3,402.7l1.7-10.9l1.7,10.9C839.7,402.7,838,399.7,836.3,402.7z"/>
	</g>
</g>
<g id="XMLID_4_">
	<g>
		<path class="st3" d="M850,134.9l1.7-10.9l1.7,10.9C853.4,134.9,851.7,131.9,850,134.9z"/>
	</g>
</g>
<g id="XMLID_5_">
	<g>
		<path class="st3" d="M827.1,521.4l10.3-4l-8.6,6.9C828.8,524.4,830.6,521.4,827.1,521.4z"/>
	</g>
</g>
<g id="XMLID_6_">
	<g>
		<path class="st3" d="M816.7,415.7l10.3-4l-8.6,6.9C818.4,418.7,820.2,415.7,816.7,415.7z"/>
	</g>
</g>
<g id="XMLID_7_">
	<g>
		<path class="st3" d="M818.2,530.8l-10.3,4l8.6-6.9C816.5,527.8,814.8,530.8,818.2,530.8z"/>
	</g>
</g>
<g id="XMLID_8_">
	<g>
		<path class="st3" d="M801.8,428.6l-10.3,4l8.6-6.9C800.1,425.7,798.3,428.7,801.8,428.6z"/>
	</g>
</g>
<g id="XMLID_9_">
	<g>
		<path class="st3" d="M775.9,520.7l8.2,7.4l-10.1-4.5C774.1,523.6,777.5,523.8,775.9,520.7z"/>
	</g>
</g>
<g id="XMLID_10_">
	<g>
		<path class="st3" d="M483.2,349.8l-8.2-7.4l10.1,4.5C485,346.9,481.6,346.7,483.2,349.8z"/>
	</g>
</g>
<g id="XMLID_11_">
	<g>
		<path class="st3" d="M818.9,371.7l9.2,6.2l-10.6-3.1C817.5,374.8,820.9,374.6,818.9,371.7z"/>
	</g>
</g>
<g id="XMLID_12_">
	<g>
		<path class="st3" d="M802.6,368.8l-9.2-6.2l10.6,3.1C804,365.7,800.6,366,802.6,368.8z"/>
	</g>
</g>
<line class="st2" x1="728.6" y1="396.5" x2="728.6" y2="495"/>
<g id="XMLID_14_">
	<g>
		<path class="st3" d="M730.4,483.7l-1.7,10.9l-1.7-10.9C726.9,483.7,728.6,486.7,730.4,483.7z"/>
	</g>
</g>
<g id="XMLID_13_">
	<g>
		<path class="st3" d="M726.9,407.8l1.7-10.9l1.7,10.9C730.4,407.8,728.6,404.8,726.9,407.8z"/>
	</g>
</g>
<g>
	<g id="XMLID_15_">
		<g>
			<line class="st0" x1="777.5" y1="417" x2="752.7" y2="402.7"/>
			<line class="st0" x1="775.4" y1="420.5" x2="750.7" y2="406.2"/>
			<line class="st0" x1="781.6" y1="415.1" x2="777.6" y2="417"/>
			<line class="st0" x1="777.5" y1="417.2" x2="775.6" y2="420.5"/>
			<line class="st0" x1="775.5" y1="420.6" x2="775.5" y2="424.6"/>
			<line class="st0" x1="775.5" y1="424.7" x2="776" y2="424.8"/>
			<line class="st0" x1="776" y1="424.8" x2="776" y2="424.8"/>
			<line class="st0" x1="776" y1="424.8" x2="776.1" y2="424.8"/>
			<line class="st0" x1="775.5" y1="424.6" x2="775.5" y2="424.7"/>
			<line class="st0" x1="775.5" y1="424.7" x2="775.5" y2="424.7"/>
			<line class="st0" x1="775.6" y1="420.5" x2="775.5" y2="420.6"/>
			<line class="st0" x1="775.5" y1="420.6" x2="775.5" y2="420.6"/>
			<line class="st0" x1="777.6" y1="417" x2="777.5" y2="417.1"/>
			<line class="st0" x1="777.5" y1="417.1" x2="777.5" y2="417.2"/>
			<line class="st0" x1="781.7" y1="414.9" x2="777.6" y2="416.8"/>
			<line class="st0" x1="781.7" y1="414.9" x2="774.2" y2="410.8"/>
			<line class="st0" x1="756.9" y1="401" x2="752.9" y2="402.5"/>
			<line class="st0" x1="777.6" y1="416.8" x2="777.6" y2="416.9"/>
			<line class="st0" x1="777.6" y1="416.9" x2="777.5" y2="417"/>
			<line class="st0" x1="777.5" y1="417" x2="777.4" y2="417.1"/>
			<line class="st0" x1="752.9" y1="402.5" x2="752.8" y2="402.6"/>
			<line class="st0" x1="752.8" y1="402.6" x2="752.7" y2="402.7"/>
			<line class="st0" x1="752.7" y1="402.7" x2="752.6" y2="402.8"/>
			<line class="st0" x1="777.4" y1="417.1" x2="775.5" y2="420.4"/>
			<line class="st0" x1="752.6" y1="402.8" x2="750.7" y2="406.1"/>
			<line class="st0" x1="775.5" y1="420.4" x2="775.4" y2="420.5"/>
			<line class="st0" x1="775.4" y1="420.5" x2="775.4" y2="420.7"/>
			<line class="st0" x1="775.4" y1="420.7" x2="775.4" y2="420.8"/>
			<line class="st0" x1="750.7" y1="406.1" x2="750.7" y2="406.2"/>
			<line class="st0" x1="750.7" y1="406.2" x2="750.6" y2="406.4"/>
			<line class="st0" x1="750.6" y1="406.4" x2="750.6" y2="406.5"/>
			<line class="st0" x1="775.4" y1="420.8" x2="775.4" y2="424.8"/>
			<line class="st0" x1="750.6" y1="406.5" x2="750.5" y2="410"/>
			<line class="st0" x1="775.4" y1="424.8" x2="775.3" y2="424.8"/>
			<line class="st0" x1="775.3" y1="424.8" x2="775.4" y2="424.9"/>
			<line class="st0" x1="775.4" y1="424.9" x2="775.4" y2="425"/>
			<line class="st0" x1="750.5" y1="410" x2="750.5" y2="410.1"/>
			<line class="st0" x1="750.5" y1="410.1" x2="750.5" y2="410.1"/>
			<line class="st0" x1="750.5" y1="410.1" x2="750.5" y2="410.2"/>
			<line class="st0" x1="775.4" y1="425" x2="775.9" y2="425.1"/>
			<line class="st0" x1="775.4" y1="425" x2="750.5" y2="410.2"/>
			<line class="st0" x1="775.9" y1="425.1" x2="775.9" y2="425.1"/>
			<line class="st0" x1="775.9" y1="425.1" x2="776" y2="425"/>
			<line class="st0" x1="776" y1="425" x2="776" y2="425"/>
			<line class="st0" x1="776" y1="425" x2="777.1" y2="424"/>
			<line class="st0" x1="781.7" y1="414.9" x2="781.6" y2="415.1"/>
			<line class="st0" x1="773" y1="410.1" x2="765.5" y2="405.9"/>
			<line class="st0" x1="773" y1="410.1" x2="773" y2="410.2"/>
			<line class="st0" x1="773" y1="410.1" x2="772.7" y2="410.4"/>
			<polyline class="st0" points="773.8,411.1 774.1,410.8 774.2,410.8 			"/>
			<polyline class="st0" points="772.7,410.4 772.7,410.5 773.8,411.1 			"/>
			<line class="st0" x1="764.3" y1="405.2" x2="756.9" y2="401"/>
			<line class="st0" x1="764.3" y1="405.2" x2="764.3" y2="405.3"/>
			<line class="st0" x1="764.3" y1="405.2" x2="763.9" y2="405.5"/>
			<polyline class="st0" points="765.1,406.2 765.4,405.9 765.5,405.9 			"/>
			<line class="st0" x1="764" y1="405.6" x2="765.1" y2="406.2"/>
			<line class="st0" x1="763.9" y1="405.5" x2="764" y2="405.6"/>
			<line class="st0" x1="781.1" y1="416.3" x2="781.2" y2="415.6"/>
			<line class="st0" x1="780.6" y1="416.1" x2="781.1" y2="416.3"/>
			<line class="st0" x1="781.4" y1="416.9" x2="781.6" y2="415.3"/>
			<line class="st0" x1="781.1" y1="416.3" x2="781.4" y2="416"/>
			<line class="st0" x1="781.2" y1="415.6" x2="781.6" y2="415.3"/>
			<line class="st0" x1="781.6" y1="415.3" x2="781.5" y2="415.2"/>
			<line class="st0" x1="781.2" y1="415.5" x2="781.2" y2="415.6"/>
			<polyline class="st0" points="764,405.6 764,405.6 764.3,405.3 764.3,405.3 764.3,405.3 			"/>
			<line class="st0" x1="765.4" y1="405.9" x2="764.3" y2="405.3"/>
			<polyline class="st0" points="772.7,410.5 773,410.2 773,410.2 			"/>
			<line class="st0" x1="774.1" y1="410.8" x2="773" y2="410.2"/>
		</g>
	</g>
</g>
<line class="st2" x1="756.6" y1="410" x2="756.5" y2="413.6"/>
<line class="st2" x1="768.3" y1="416.8" x2="768.3" y2="420.3"/>
<g>
	<g id="XMLID_31_">
		<g>
			<polyline class="st0" points="755,401.7 728.7,386.5 699.3,369.5 673.4,354.6 644.9,338.1 613.5,320 588.3,305.5 559,288.5 
				533.8,274 506.7,258.4 484.6,245.6 479.6,242.7 			"/>
			<polyline class="st0" points="641.4,345.6 670,362.2 696.1,377.2 696.9,377.7 725.7,394.3 726.1,394.5 750.5,408.6 			"/>
			<polyline class="st0" points="530.3,281.5 555.1,295.8 555.3,295.9 585,313.1 586.1,313.7 610,327.5 641.4,345.6 			"/>
			<polyline class="st0" points="477.4,250.9 481.2,253.1 503.1,265.8 530.3,281.5 			"/>
			<line class="st2" x1="474.9" y1="245.9" x2="474.9" y2="342.4"/>
			<path class="st0" d="M778.3,424.7c-1-1-1.3-2.8-0.6-4.6c0.8-2.1,2.8-3.3,4.3-2.8h0.1c1.6,0.6,2.2,2.9,1.3,5.1s-2.9,3.4-4.5,2.8
				C778.7,425,778.5,424.9,778.3,424.7"/>
			<path class="st0" d="M477.4,250.9c-1.7-0.4-2.6-2.6-2-4.8c0.6-2.3,2.6-3.8,4.2-3.4"/>
			<polyline class="st0" points="779.8,415.9 782,417.2 782.2,417.3 			"/>
			<polyline class="st0" points="775.4,423 778.3,424.7 778.3,424.7 778.8,425 			"/>
			<path class="st0" d="M482.3,253.8c-0.5-0.1-0.9-0.4-1.2-0.7c-0.9-0.9-1.3-2.4-0.9-4.1c0.6-2.2,2.5-3.8,4.2-3.3"/>
			<path class="st0" d="M504.4,266.7c-0.5-0.1-1-0.4-1.3-0.9c-0.8-0.9-1.1-2.4-0.7-4c0.6-2.3,2.6-3.8,4.2-3.4"/>
			<path class="st0" d="M531.6,282.3c-0.5-0.1-0.9-0.4-1.3-0.8l0,0c-0.8-0.9-1.2-2.4-0.8-4c0.6-2.3,2.6-3.8,4.2-3.4"/>
			<path class="st0" d="M554.5,293.2c0-0.3,0.1-0.7,0.2-1c0.6-2.3,2.6-3.8,4.2-3.4"/>
			<path class="st0" d="M556.7,297c-0.6-0.2-1.2-0.6-1.5-1.1c-0.4-0.6-0.6-1.3-0.7-2.1"/>
			<path class="st0" d="M556.7,296.9c-0.6-0.2-1-0.5-1.4-1c-0.5-0.6-0.7-1.3-0.8-2.2c0-0.2,0-0.3,0-0.5c0-0.4,0.1-0.8,0.2-1.1
				c0.6-2.3,2.6-3.8,4.2-3.4"/>
			<path class="st0" d="M586.1,313.7L586.1,313.7c-0.5-0.1-0.8-0.3-1.1-0.6c-0.9-0.9-1.4-2.5-0.9-4.2c0.6-2.3,2.6-3.8,4.2-3.4"/>
			<path class="st0" d="M611.3,328.3c-0.5-0.1-0.9-0.4-1.3-0.8c-0.8-0.9-1.2-2.4-0.8-4c0.6-2.3,2.6-3.8,4.2-3.4"/>
			<path class="st0" d="M642.6,346.4c-0.5-0.1-0.9-0.4-1.3-0.8l0,0c-0.8-0.9-1.2-2.4-0.8-4c0.6-2.3,2.6-3.8,4.2-3.4"/>
			<path class="st0" d="M669.2,358c0.6-2.3,2.6-3.8,4.2-3.4"/>
			<path class="st0" d="M671.2,362.9c-0.4-0.1-0.8-0.4-1.2-0.7c-0.9-0.9-1.3-2.5-0.9-4.1"/>
			<path class="st0" d="M697.1,377.7c-0.1,0-0.1,0-0.2-0.1c-0.3-0.1-0.6-0.3-0.8-0.4c-1-0.9-1.5-2.5-1-4.3c0.6-2.3,2.5-3.8,4.2-3.4"
				/>
			<path class="st0" d="M726.5,394.7c-0.1,0-0.3-0.1-0.4-0.1c-0.1-0.1-0.3-0.1-0.4-0.2c-1.2-0.8-1.8-2.6-1.3-4.5
				c0.6-2.3,2.6-3.8,4.2-3.4"/>
		</g>
	</g>
</g>
<g>
	<g>
		<line class="st4" x1="776.2" y1="402.1" x2="776.2" y2="398.1"/>
		<line class="st5" x1="776.2" y1="390.2" x2="776.2" y2="92"/>
		<line class="st4" x1="776.2" y1="88" x2="776.2" y2="84"/>
	</g>
</g>
<g>
	<g>
		<line class="st4" x1="767.8" y1="85.6" x2="767.8" y2="89.6"/>
		<line class="st6" x1="767.8" y1="97.5" x2="767.8" y2="392.9"/>
		<line class="st4" x1="767.8" y1="396.9" x2="767.8" y2="400.9"/>
	</g>
</g>
<g>
	<path class="st7" d="M772.5,81.9c-2.3-0.3-4.4,0.8-4.6,2.5c-0.2,1.7,1.4,3.4,3.8,3.7s4.4-0.8,4.6-2.5S774.8,82.3,772.5,81.9z"/>
</g>
<g>
	<g id="XMLID_16_">
		<g>
			<line class="st2" x1="774.6" y1="402.5" x2="774.6" y2="431.1"/>
			<line class="st2" x1="770.6" y1="402.5" x2="770.6" y2="431.1"/>
			<line class="st2" x1="778.4" y1="399.9" x2="774.7" y2="402.4"/>
			<line class="st2" x1="774.5" y1="402.5" x2="770.7" y2="402.5"/>
			<line class="st2" x1="770.5" y1="402.4" x2="767.1" y2="400.5"/>
			<line class="st2" x1="767" y1="400.4" x2="767.1" y2="399.9"/>
			<line class="st2" x1="767.1" y1="399.9" x2="767.2" y2="399.9"/>
			<line class="st2" x1="767.2" y1="399.9" x2="767.2" y2="399.9"/>
			<line class="st2" x1="767.1" y1="400.5" x2="767" y2="400.4"/>
			<line class="st2" x1="767" y1="400.4" x2="767" y2="400.4"/>
			<line class="st2" x1="770.7" y1="402.5" x2="770.6" y2="402.4"/>
			<line class="st2" x1="770.6" y1="402.4" x2="770.5" y2="402.4"/>
			<line class="st2" x1="774.7" y1="402.4" x2="774.6" y2="402.5"/>
			<line class="st2" x1="774.6" y1="402.5" x2="774.5" y2="402.5"/>
			<line class="st2" x1="778.6" y1="400" x2="774.9" y2="402.5"/>
			<line class="st2" x1="778.6" y1="400" x2="778.4" y2="408.5"/>
			<line class="st2" x1="778.3" y1="428.4" x2="774.9" y2="431.1"/>
			<line class="st2" x1="774.9" y1="402.5" x2="774.8" y2="402.5"/>
			<line class="st2" x1="774.8" y1="402.5" x2="774.6" y2="402.5"/>
			<line class="st2" x1="774.6" y1="402.5" x2="774.5" y2="402.6"/>
			<line class="st2" x1="774.9" y1="431.1" x2="774.8" y2="431.1"/>
			<line class="st2" x1="774.8" y1="431.1" x2="774.6" y2="431.1"/>
			<line class="st2" x1="774.6" y1="431.1" x2="774.5" y2="431.2"/>
			<line class="st2" x1="774.5" y1="402.6" x2="770.7" y2="402.5"/>
			<line class="st2" x1="774.5" y1="431.2" x2="770.7" y2="431.2"/>
			<line class="st2" x1="770.7" y1="402.5" x2="770.6" y2="402.5"/>
			<line class="st2" x1="770.6" y1="402.5" x2="770.4" y2="402.5"/>
			<line class="st2" x1="770.4" y1="402.5" x2="770.3" y2="402.5"/>
			<line class="st2" x1="770.7" y1="431.2" x2="770.6" y2="431.1"/>
			<line class="st2" x1="770.6" y1="431.1" x2="770.5" y2="431.1"/>
			<line class="st2" x1="770.5" y1="431.1" x2="770.3" y2="431.1"/>
			<line class="st2" x1="770.3" y1="402.5" x2="766.9" y2="400.5"/>
			<line class="st2" x1="770.3" y1="431.1" x2="767.3" y2="429.4"/>
			<line class="st2" x1="766.9" y1="400.5" x2="766.8" y2="400.5"/>
			<line class="st2" x1="766.8" y1="400.5" x2="766.8" y2="400.4"/>
			<line class="st2" x1="766.8" y1="400.4" x2="766.7" y2="400.4"/>
			<line class="st2" x1="767.3" y1="429.4" x2="767.2" y2="429.4"/>
			<line class="st2" x1="767.2" y1="429.4" x2="767.1" y2="429.3"/>
			<line class="st2" x1="767.1" y1="429.3" x2="767.1" y2="429.3"/>
			<line class="st2" x1="766.7" y1="400.4" x2="766.9" y2="399.9"/>
			<line class="st2" x1="766.7" y1="400.4" x2="767.1" y2="429.3"/>
			<line class="st2" x1="766.9" y1="399.9" x2="766.9" y2="399.9"/>
			<line class="st2" x1="766.9" y1="399.9" x2="766.9" y2="399.8"/>
			<line class="st2" x1="766.9" y1="399.8" x2="767" y2="399.8"/>
			<line class="st2" x1="767" y1="399.8" x2="768.4" y2="399.4"/>
			<line class="st2" x1="778.6" y1="400" x2="778.4" y2="399.9"/>
			<line class="st2" x1="778.4" y1="409.9" x2="778.3" y2="418.5"/>
			<line class="st2" x1="778.4" y1="409.9" x2="778.3" y2="409.8"/>
			<line class="st2" x1="778.4" y1="409.9" x2="777.9" y2="410"/>
			<polyline class="st2" points="777.9,408.7 778.3,408.6 778.4,408.5 			"/>
			<polyline class="st2" points="777.9,410 777.9,409.9 777.9,408.7 			"/>
			<line class="st2" x1="778.3" y1="419.9" x2="778.3" y2="428.4"/>
			<line class="st2" x1="778.3" y1="419.9" x2="778.2" y2="419.8"/>
			<line class="st2" x1="778.3" y1="419.9" x2="777.8" y2="420"/>
			<polyline class="st2" points="777.8,418.7 778.2,418.6 778.3,418.5 			"/>
			<polyline class="st2" points="777.8,420 777.8,419.9 777.8,418.7 			"/>
			<line class="st2" x1="777.1" y1="399.8" x2="777.7" y2="400"/>
			<line class="st2" x1="777.1" y1="400.3" x2="777.1" y2="399.8"/>
			<line class="st2" x1="776.7" y1="399.2" x2="778.2" y2="399.9"/>
			<line class="st2" x1="777.1" y1="399.8" x2="777.5" y2="399.6"/>
			<line class="st2" x1="777.7" y1="400" x2="778.2" y2="399.9"/>
			<line class="st2" x1="778.2" y1="399.9" x2="778.3" y2="400"/>
			<line class="st2" x1="777.8" y1="400.1" x2="777.7" y2="400"/>
			<polyline class="st2" points="777.8,419.9 778.2,419.8 778.2,419.8 			"/>
			<line class="st2" x1="778.2" y1="418.6" x2="778.2" y2="419.8"/>
			<polyline class="st2" points="777.9,409.9 778.3,409.8 778.3,409.8 			"/>
			<line class="st2" x1="778.3" y1="408.6" x2="778.3" y2="409.8"/>
		</g>
	</g>
</g>
<g>
	<g class="st8">
		<path class="st3" d="M808,354.6c0.2-0.5,0.6-0.8,1-1.1c1-0.6,1.9-0.3,2.4-0.1c1.6,0.7,1.9,2.2,1.4,3.4c-0.3,0.6-0.9,1.4-1.9,1.4
			c0.2,0.2,1,1.1,0.3,2.6c-0.7,1.6-2.3,2.1-3.8,1.4c-0.9-0.4-1.8-1.2-1.7-2.5c0-0.4,0.1-0.7,0.2-1l0.9,0.4c-0.1,0.3-0.1,0.7-0.1,1
			c0.1,0.5,0.5,1,1,1.2c0.9,0.4,2,0,2.4-1c0.2-0.5,0.3-1.2-0.2-1.8c-0.2-0.2-0.6-0.5-0.9-0.6l0.4-0.8c0.3,0.2,0.7,0.3,1.1,0.3
			c0.3,0,0.9-0.2,1.3-0.9c0.3-0.8,0.2-1.6-0.8-2.1c-0.3-0.2-0.8-0.3-1.3,0c-0.3,0.1-0.5,0.4-0.7,0.7L808,354.6z"/>
		<path class="st3" d="M814.6,357.5c0.2-0.5,0.6-0.8,1-1.1c1-0.6,1.9-0.3,2.4-0.1c1.6,0.7,1.9,2.2,1.4,3.4c-0.3,0.6-0.9,1.4-1.9,1.4
			c0.2,0.2,1,1.1,0.3,2.6c-0.7,1.6-2.3,2.1-3.8,1.4c-0.9-0.4-1.8-1.2-1.7-2.5c0-0.4,0.1-0.7,0.2-1l0.9,0.4c-0.1,0.3-0.1,0.7-0.1,1
			c0.1,0.5,0.5,1,1,1.2c0.9,0.4,2,0,2.4-1c0.2-0.5,0.3-1.2-0.2-1.8c-0.2-0.2-0.6-0.5-0.9-0.6l0.4-0.8c0.3,0.2,0.7,0.3,1.1,0.3
			c0.3,0,0.9-0.2,1.3-0.9c0.3-0.8,0.2-1.6-0.8-2.1c-0.3-0.2-0.8-0.3-1.3,0c-0.3,0.1-0.5,0.4-0.7,0.7L814.6,357.5z"/>
		<path class="st3" d="M819.9,366.2c-0.2-1.1,0-2.3,0.5-3.5s1.3-2.2,2.3-2.8c1.1-0.7,2.1-0.6,2.8-0.3c0.7,0.3,1.4,1,1.6,2.3
			c0.2,1.1,0,2.3-0.5,3.5s-1.3,2.2-2.3,2.8c-1.1,0.7-2.1,0.6-2.8,0.3C820.8,368.2,820.1,367.4,819.9,366.2z M823.1,360.8
			c-0.8,0.5-1.4,1.4-1.8,2.3c-0.4,0.9-0.7,1.9-0.5,2.9c0.1,0.9,0.6,1.4,1.1,1.6c0.4,0.2,1.1,0.2,1.9-0.3c0.8-0.5,1.4-1.4,1.8-2.3
			c0.4-0.9,0.7-1.9,0.5-2.9c-0.1-0.9-0.6-1.4-1-1.6C824.6,360.3,823.9,360.3,823.1,360.8z"/>
	</g>
</g>
<g>
	<g class="st8">
		<path class="st3" d="M721.9,447.5c1.5,0,2.7,1,2.7,2.9s-1.3,2.9-2.7,2.9c-1,0-1.9-0.5-2.3-1.4c-0.4,0.7-1.2,1.1-2,1.1
			c-1.3,0-2.6-0.9-2.6-2.6s1.3-2.6,2.6-2.6c0.9,0,1.6,0.4,2,1.1C720,448,720.9,447.5,721.9,447.5z M717.6,448.8
			c-1,0-1.7,0.7-1.7,1.6s0.6,1.6,1.7,1.6c0.9,0,1.6-0.7,1.6-1.6C719.2,449.5,718.5,448.8,717.6,448.8z M721.8,448.6
			c-1.1,0-1.8,0.8-1.8,1.8c0,1.1,0.7,1.8,1.8,1.8s1.8-0.7,1.8-1.8C723.7,449.3,722.9,448.6,721.8,448.6z"/>
		<path class="st3" d="M721.7,440.6v-1.1h1v1.1h1.8v1h-1.8v4.8l-8.1-5.8H721.7z M721.7,441.7h-4.1l4.1,3V441.7z"/>
		<path class="st3" d="M716.1,432.1v3l2,0.6c0-0.2-0.1-0.4-0.1-0.6c0-1.9,1.4-3.1,3.2-3.1c2.1,0,3.4,1.6,3.4,3.4
			c0,0.8-0.2,1.5-0.7,2.1c-0.3,0.3-0.6,0.6-1,0.8l-0.6-0.8c0.3-0.2,0.5-0.3,0.8-0.6c0.3-0.4,0.6-0.9,0.6-1.5c0-1.3-1.1-2.3-2.4-2.3
			c-1.3,0-2.3,1-2.3,2.3c0,0.3,0.1,1,0.6,1.8l-4.5-1.4v-3.7L716.1,432.1L716.1,432.1z"/>
	</g>
</g>
<g>
	<g class="st8">
		<path class="st3" d="M837.7,325.2c-0.5,0-1-0.2-1.4-0.4c-1-0.6-1.1-1.6-1.1-2.2c0-1.8,1.2-2.6,2.5-2.6c0.7,0,1.6,0.3,2.1,1.2
			c0.1-0.3,0.6-1.3,2.3-1.3c1.8,0,2.8,1.3,2.8,2.9c0,1-0.4,2.1-1.6,2.6c-0.3,0.1-0.6,0.2-1,0.2v-1c0.3,0,0.7-0.2,0.9-0.3
			c0.4-0.3,0.7-0.9,0.7-1.4c0-1-0.9-1.8-1.9-1.8c-0.5,0-1.2,0.2-1.6,0.9c-0.1,0.3-0.2,0.7-0.2,1.1h-0.9c0-0.4,0-0.8-0.2-1.1
			c-0.2-0.3-0.5-0.8-1.4-0.8c-0.8,0-1.6,0.4-1.6,1.6c0,0.4,0.1,0.8,0.5,1.2c0.2,0.2,0.6,0.3,1,0.4v0.8H837.7z"/>
		<path class="st3" d="M842.2,311.6c1.5,0,2.7,1,2.7,2.9s-1.3,2.9-2.7,2.9c-1,0-1.9-0.5-2.3-1.4c-0.4,0.7-1.2,1.1-2,1.1
			c-1.3,0-2.6-0.9-2.6-2.6s1.3-2.6,2.6-2.6c0.9,0,1.6,0.4,2,1.1C840.3,312.1,841.2,311.6,842.2,311.6z M837.9,312.9
			c-1,0-1.7,0.7-1.7,1.6s0.6,1.6,1.7,1.6c0.9,0,1.6-0.7,1.6-1.6S838.8,312.9,837.9,312.9z M842.2,312.6c-1.1,0-1.8,0.8-1.8,1.8
			s0.7,1.8,1.8,1.8s1.8-0.7,1.8-1.8C844,313.4,843.2,312.6,842.2,312.6z"/>
		<path class="st3" d="M836.4,308.7v1.6l-1-0.5v-2.1h9.3v1H836.4z"/>
		<path class="st3" d="M843.5,303.8c-0.9,0.6-2.1,0.9-3.4,0.9c-1.3,0-2.5-0.3-3.4-0.9c-1-0.7-1.4-1.7-1.4-2.4c0-0.7,0.4-1.7,1.4-2.4
			c0.9-0.6,2.1-0.9,3.4-0.9c1.3,0,2.5,0.3,3.4,0.9c1,0.7,1.4,1.7,1.4,2.4C844.9,302.1,844.6,303,843.5,303.8z M837.3,303
			c0.8,0.5,1.9,0.7,2.8,0.7c1,0,2-0.2,2.8-0.7s1-1.1,1-1.6s-0.3-1.1-1-1.6c-0.8-0.5-1.9-0.7-2.8-0.7c-1,0-2,0.2-2.8,0.7
			s-1,1.1-1,1.6S836.5,302.5,837.3,303z"/>
		<path class="st3" d="M834.8,290.9c0.7,0.3,1.5,0.5,2.4,0.7c1.2,0.3,2.3,0.4,3.5,0.4c1.1,0,2.2-0.1,3.4-0.3
			c0.9-0.2,1.8-0.4,2.6-0.7l0.4,0.9c-1.6,0.6-2.9,0.9-3.2,0.9c-1,0.2-2.2,0.3-3.3,0.3c-0.9,0-2.2-0.1-3.6-0.4
			c-0.9-0.2-1.9-0.5-2.7-0.8L834.8,290.9z"/>
		<path class="st3" d="M836.4,283.3v3l2,0.6c0-0.2-0.1-0.4-0.1-0.6c0-1.9,1.4-3.1,3.2-3.1c2.1,0,3.4,1.6,3.4,3.4
			c0,0.8-0.2,1.5-0.7,2.1c-0.3,0.3-0.6,0.6-1,0.8l-0.6-0.8c0.3-0.2,0.5-0.4,0.8-0.6c0.3-0.4,0.6-0.9,0.6-1.5c0-1.3-1.1-2.3-2.4-2.3
			c-1.3,0-2.3,1-2.3,2.3c0,0.3,0.1,1,0.6,1.8l-4.5-1.4v-3.7L836.4,283.3L836.4,283.3z"/>
		<path class="st3" d="M836.4,280.3v1.6l-1-0.5v-2.1h9.3v1H836.4z"/>
		<path class="st3" d="M836.4,275.4v1.6l-1-0.5v-2.1h9.3v1H836.4z"/>
		<path class="st3" d="M843.5,270.5c-0.9,0.6-2.1,0.9-3.4,0.9c-1.3,0-2.5-0.3-3.4-0.9c-1-0.7-1.4-1.7-1.4-2.4c0-0.7,0.4-1.7,1.4-2.4
			c0.9-0.6,2.1-0.9,3.4-0.9c1.3,0,2.5,0.3,3.4,0.9c1,0.7,1.4,1.7,1.4,2.4C844.9,268.9,844.6,269.8,843.5,270.5z M837.3,269.7
			c0.8,0.5,1.9,0.7,2.8,0.7c1,0,2-0.2,2.8-0.7s1-1.1,1-1.6s-0.3-1.1-1-1.6c-0.8-0.5-1.9-0.7-2.8-0.7c-1,0-2,0.2-2.8,0.7
			s-1,1.1-1,1.6C836.2,268.6,836.5,269.2,837.3,269.7z"/>
		<path class="st3" d="M834.4,262.4c0.7-0.3,1.8-0.6,2.7-0.8c1.4-0.3,2.7-0.4,3.6-0.4c1,0,2.2,0.1,3.3,0.3c0.2,0,1.6,0.3,3.2,0.9
			l-0.4,0.9c-0.8-0.3-1.7-0.5-2.6-0.7c-1.3-0.3-2.3-0.3-3.4-0.3c-1.2,0-2.3,0.1-3.5,0.4c-1,0.2-1.8,0.5-2.4,0.7L834.4,262.4z"/>
	</g>
</g>
<g>
	<g class="st8">
		<path class="st3" d="M825.9,471.4v1.6l-1-0.5v-2.1h9.3v1H825.9z"/>
		<path class="st3" d="M833,466.4c-0.9,0.6-2.1,0.9-3.4,0.9c-1.3,0-2.5-0.3-3.4-0.9c-1-0.7-1.4-1.7-1.4-2.4c0-0.7,0.4-1.7,1.4-2.4
			c0.9-0.6,2.1-0.9,3.4-0.9c1.3,0,2.5,0.3,3.4,0.9c1,0.7,1.4,1.7,1.4,2.4C834.4,464.8,834,465.7,833,466.4z M826.7,465.7
			c0.8,0.5,1.9,0.7,2.8,0.7c1,0,2-0.2,2.8-0.7s1-1.1,1-1.6s-0.3-1.1-1-1.6c-0.8-0.5-1.9-0.7-2.8-0.7c-1,0-2,0.2-2.8,0.7
			s-1,1.1-1,1.6C825.7,464.5,825.9,465.2,826.7,465.7z"/>
		<path class="st3" d="M825.8,454.7v5.1h-1V453l9.6,6.2l-0.5,0.8L825.8,454.7z"/>
		<path class="st3" d="M833,451.9c-0.9,0.6-2.1,0.9-3.4,0.9c-1.3,0-2.5-0.3-3.4-0.9c-1-0.7-1.4-1.7-1.4-2.4c0-0.7,0.4-1.7,1.4-2.4
			c0.9-0.6,2.1-0.9,3.4-0.9c1.3,0,2.5,0.3,3.4,0.9c1,0.7,1.4,1.7,1.4,2.4C834.4,450.3,834,451.2,833,451.9z M826.7,451.2
			c0.8,0.5,1.9,0.7,2.8,0.7c1,0,2-0.2,2.8-0.7s1-1.1,1-1.6s-0.3-1.1-1-1.6c-0.8-0.5-1.9-0.7-2.8-0.7c-1,0-2,0.2-2.8,0.7
			s-1,1.1-1,1.6C825.7,450,825.9,450.7,826.7,451.2z"/>
	</g>
</g>
<g>
	<g class="st8">
		<path class="st3" d="M795.9,422.4l1-0.6l0.5,0.8l-1,0.6l0.9,1.5l-0.9,0.5l-0.9-1.5l-4.1,2.4l1-9.9L795.9,422.4z M795,422.9
			l-2.1-3.6l-0.5,5.1L795,422.9z"/>
		<path class="st3" d="M799.6,422c-1-0.5-1.9-1.4-2.5-2.5c-0.7-1.2-1-2.4-0.9-3.4c0.1-1.3,0.7-2,1.4-2.4s1.6-0.5,2.8,0
			c1,0.5,1.9,1.4,2.5,2.5s1,2.4,0.9,3.4c-0.1,1.3-0.7,2-1.4,2.4C801.7,422.4,800.7,422.5,799.6,422z M797.1,416.1
			c0,0.9,0.3,2,0.8,2.8s1.2,1.7,2,2.1s1.5,0.3,1.9,0.1c0.4-0.2,0.8-0.8,0.9-1.7c0-0.9-0.3-2-0.8-2.8s-1.2-1.7-2-2.1
			s-1.5-0.3-1.9-0.1C797.6,414.7,797.1,415.2,797.1,416.1z"/>
		<path class="st3" d="M807.3,409.2l-2.6,1.5l0.5,2c0.1-0.1,0.3-0.2,0.5-0.3c1.6-0.9,3.4-0.3,4.3,1.3c1,1.8,0.3,3.7-1.3,4.6
			c-0.7,0.4-1.4,0.5-2.2,0.4c-0.4-0.1-0.8-0.2-1.2-0.4l0.4-0.9c0.3,0.2,0.6,0.3,0.9,0.3c0.5,0.1,1,0.1,1.6-0.3
			c1.1-0.7,1.5-2.1,0.8-3.2c-0.7-1.2-2-1.5-3.1-0.8c-0.3,0.2-0.8,0.5-1.2,1.5l-1.1-4.6l3.2-1.9L807.3,409.2z"/>
	</g>
</g>
<g>
	<g class="st8">
		<path class="st3" d="M808.8,529.9l1-5.1c0.1-0.4,0.2-1.3,0.3-1.7c0.1-0.7-0.1-1.2-0.3-1.5c-0.5-0.9-1.6-1.2-2.5-0.6
			c-0.6,0.3-0.9,0.9-0.9,1.5c0,0.3,0.1,0.7,0.3,1.1l-0.9,0.5c-0.4-0.8-0.5-1.5-0.4-2c0.1-0.6,0.4-1.4,1.4-1.9c1.4-0.8,3.1-0.4,3.9,1
			c0.3,0.5,0.4,1.1,0.4,2.1c-0.1,0.7-0.2,1.4-0.3,2l-0.6,2.9l3.4-2l0.5,0.8L808.8,529.9z"/>
		<path class="st3" d="M819.2,520.9c0.7,1.3,0.5,2.9-1.1,3.8c-1.6,1-3.1,0.3-3.8-0.9c-0.5-0.9-0.5-1.8,0.1-2.7c-0.9,0-1.6-0.5-2-1.2
			c-0.7-1.2-0.5-2.7,0.9-3.5c1.5-0.8,2.9-0.2,3.5,1c0.4,0.8,0.5,1.6,0,2.3C817.9,519.5,818.7,520,819.2,520.9z M816,517.8
			c-0.5-0.9-1.5-1.1-2.2-0.6c-0.7,0.4-1.1,1.3-0.6,2.2c0.5,0.8,1.4,1.1,2.2,0.6S816.4,518.6,816,517.8z M818.3,521.4
			c-0.5-0.9-1.5-1.2-2.5-0.6s-1.2,1.5-0.7,2.5c0.5,0.9,1.6,1.2,2.5,0.7S818.8,522.3,818.3,521.4z"/>
		<path class="st3" d="M821.9,512.7l-4.4,2.6l-0.5-0.8l5.9-3.4l-0.6,11.4l-1-0.1L821.9,512.7z"/>
	</g>
</g>
<g>
	<g>
		<path class="st4" d="M767.9,88.3c-0.3,1.2,0.3,2.6,1.6,3.4"/>
		<path class="st4" d="M773,92.6c1.5-0.1,2.8-1,3.1-2.1"/>
	</g>
</g>
<path class="st2" d="M767.8,370.5c-0.4,1.7,0.9,3.6,3.2,4.2s4.6-0.3,5-2"/>
<path class="st2" d="M767.9,339.2c-0.4,1.7,0.9,3.6,3.2,4.2s4.6-0.3,5-2"/>
<path class="st2" d="M767.7,310.1c-0.4,1.7,0.9,3.6,3.2,4.2s4.6-0.3,5-2"/>
<path class="st2" d="M767.8,310.1c-0.4,1.7,0.9,3.6,3.2,4.2s4.6-0.3,5-2"/>
<path class="st2" d="M767.9,276.2c-0.4,1.7,0.9,3.6,3.2,4.2s4.6-0.3,5-2"/>
<path class="st2" d="M767.9,247.2c-0.4,1.7,0.9,3.6,3.2,4.2c2.3,0.6,4.6-0.3,5-2"/>
<path class="st2" d="M767.9,247.2c-0.4,1.7,0.9,3.6,3.2,4.2c2.3,0.6,4.6-0.3,5-2"/>
<path class="st2" d="M767.9,210.9c-0.4,1.7,0.9,3.6,3.2,4.2c2.3,0.6,4.6-0.3,5-2"/>
<path class="st2" d="M767.9,179c-0.4,1.7,0.9,3.6,3.2,4.2c2.3,0.6,4.6-0.3,5-2"/>
<path class="st2" d="M771.1,183.1c2.3,0.6,4.6-0.3,5-2"/>
<g>
	<path class="st9" d="M767.9,179c-0.4,1.7,0.9,3.6,3.2,4.2"/>
</g>
<path class="st2" d="M767.9,150.1c-0.4,1.7,0.9,3.6,3.2,4.2c2.3,0.6,4.6-0.3,5-2"/>
<path class="st2" d="M768,117.2c-0.4,1.7,0.9,3.6,3.2,4.2s4.6-0.3,5-2"/>
<line class="st0" x1="382.3" y1="389.5" x2="382.3" y2="380.4"/>
<g>
	<line class="st0" x1="367.5" y1="456.2" x2="367.5" y2="459.6"/>
	<line class="st0" x1="363.2" y1="460.7" x2="363.2" y2="457.3"/>
	<g>
		<line class="st0" x1="353.4" y1="406.2" x2="332.7" y2="394.3"/>
		<line class="st0" x1="353.4" y1="406.2" x2="332.5" y2="394.2"/>
		<line class="st0" x1="382.2" y1="391.5" x2="382.2" y2="503"/>
		<line class="st0" x1="353.2" y1="407.3" x2="353.2" y2="519.9"/>
		<line class="st0" x1="353.2" y1="407.3" x2="332.7" y2="395.5"/>
		<line class="st0" x1="353.2" y1="519.9" x2="332.5" y2="507.2"/>
		<line class="st0" x1="332.5" y1="394.2" x2="332.5" y2="405.7"/>
		<line class="st0" x1="332.5" y1="420.3" x2="332.5" y2="507.2"/>
		<line class="st0" x1="332.5" y1="394.2" x2="332.5" y2="386.7"/>
		<line class="st0" x1="353.4" y1="406.2" x2="353.4" y2="396.6"/>
		<line class="st0" x1="332.5" y1="386.7" x2="353.4" y2="396.6"/>
		<line class="st0" x1="382.2" y1="380" x2="361.4" y2="370"/>
		<path class="st0" d="M353.2,519.9c15.9,0.1,28.9-6.3,28.9-17"/>
		<path class="st0" d="M353.2,407.3c9.8-0.1,29-2.4,29-17.8"/>
		<path class="st0" d="M353.4,406.2c9.8-0.1,28.9-1.3,28.9-16.7"/>
		<path class="st0" d="M353.4,396.6c17.3-0.6,29.2-8.3,28.9-16.2"/>
		<path class="st0" d="M332.5,386.7c0-9.1,13.1-16.7,28.9-16.7"/>
	</g>
	<path class="st0" d="M363.2,457.4c0-2.1,4.3-2.6,4.3-1.2"/>
	<path class="st0" d="M367.5,459.6c0,1.9-4.3,2.9-4.3,1.1"/>
</g>
<path class="st2" d="M337.4,408.5c2.8-6.6,10.3,0.4,10.6,6.1"/>
<path class="st2" d="M337.4,408.5c3.5-4.1,8,2.3,8.4,4.8"/>
<path class="st2" d="M339,409.4c1.4-1.7,4.4,0.5,5.5,3.2"/>
<g>
	<g id="XMLID_32_">
		<g>
			<line class="st2" x1="255.5" y1="367.4" x2="258" y2="375"/>
			<line class="st2" x1="232.3" y1="360.3" x2="234.8" y2="355.5"/>
			<line class="st2" x1="258" y1="375" x2="232.3" y2="360.3"/>
			<line class="st2" x1="234.9" y1="355.4" x2="255.5" y2="367.4"/>
			<line class="st0" x1="44.7" y1="245.4" x2="42.8" y2="244.4"/>
			<polyline class="st2" points="303.1,394.8 303.1,394.9 300.6,399.6 			"/>
			<line class="st2" x1="279.9" y1="387.8" x2="277.5" y2="380.1"/>
			<line class="st2" x1="277.5" y1="380.1" x2="303" y2="394.8"/>
			<line class="st2" x1="300.6" y1="399.7" x2="279.9" y2="387.8"/>
			<polyline class="st2" points="345.4,426.5 300.2,400.4 231.9,361 210,348.3 167.3,323.7 119.8,296.2 53,257.7 44.7,252.9 			"/>
			<line class="st0" x1="44.7" y1="252.9" x2="44.7" y2="245.4"/>
			<line class="st0" x1="348.7" y1="415" x2="48.4" y2="241.7"/>
			<polyline class="st2" points="44.7,245.4 74.2,262.4 122.8,290.4 165.4,315.1 213,342.5 235,355.2 303.2,394.6 345.4,419 			"/>
			<line class="st2" x1="44.7" y1="254.1" x2="345.4" y2="427.7"/>
			<polyline class="st0" points="345.4,427.7 345.4,426.5 345.4,425.7 345.4,419 			"/>
			<polyline class="st0" points="345.4,419 345.4,419 347.1,420 			"/>
			<line class="st0" x1="347.8" y1="425.8" x2="347.9" y2="425.6"/>
			<line class="st0" x1="347.9" y1="425.6" x2="348" y2="424.3"/>
			<polyline class="st0" points="348,424.3 347.9,423.5 347.9,422.9 			"/>
			<polyline class="st2" points="212.9,342.8 212.9,342.8 210.4,347.6 			"/>
			<line class="st2" x1="189.7" y1="335.7" x2="187.2" y2="328"/>
			<line class="st2" x1="187.2" y1="328" x2="212.8" y2="342.8"/>
			<polyline class="st2" points="210.4,347.6 210.4,347.6 189.7,335.7 			"/>
			<line class="st2" x1="165.3" y1="315.3" x2="167.8" y2="323"/>
			<line class="st2" x1="142.2" y1="308.2" x2="144.6" y2="303.4"/>
			<line class="st2" x1="167.7" y1="323" x2="142.2" y2="308.2"/>
			<line class="st2" x1="144.7" y1="303.4" x2="165.3" y2="315.3"/>
			<line class="st2" x1="122.7" y1="290.7" x2="120.2" y2="295.5"/>
			<line class="st2" x1="99.5" y1="283.6" x2="97" y2="275.9"/>
			<line class="st2" x1="97" y1="275.9" x2="122.7" y2="290.7"/>
			<line class="st2" x1="120.1" y1="295.5" x2="99.5" y2="283.6"/>
			<path class="st0" d="M44.7,245.4c0-2.1,1.7-4.1,3.5-3.8c0,0,0,0,0.1,0"/>
			<path class="st0" d="M43.3,252.8c-0.8-0.5-1.9-5.7-0.5-8.4"/>
			<path class="st0" d="M44.7,254.1c0-0.7,0-1.2,0-1.2"/>
			<path class="st0" d="M44.7,254.1c-0.5-0.3-1-0.6-1.4-1.3"/>
			<path class="st0" d="M42.8,244.4c1.3-2.2,3.6-3.9,5.4-2.8c0,0,0.1,0,0.1,0.1"/>
			<path class="st0" d="M345.4,419c0-1.6,1.3-4,3.3-4"/>
			<path class="st0" d="M347.1,420c0-0.1,0-0.1,0-0.2c-0.8-4,1.1-5.1,2.9-4"/>
			<path class="st0" d="M350,415.8c3.3,3.4,1.8,9.5,1.3,10.3"/>
			<path class="st0" d="M346.9,428.5c0.3,0.1,0.6,0.1,0.8,0"/>
			<path class="st0" d="M345.4,427.7c0.5,0.3,1,0.7,1.6,0.8"/>
			<path class="st0" d="M347.7,428.6c1.8-0.5,3.1-1.7,3.5-2.5"/>
			<path class="st0" d="M347.1,419.7C347.1,419.8,347.1,419.8,347.1,419.7c0.5,1.4,0.7,2.6,0.9,3.8c0.3,2.9-0.4,5-1,5l0,0l0,0"/>
			<path class="st0" d="M350,415.8c-0.5-0.4-1-0.7-1.3-0.8"/>
			<path class="st2" d="M74.2,262.4c0.4,0.2,0.7,0.6,0.8,1l1.5,4.9c0.3,0.8-0.6,1.6-1.4,1.1L53.4,257c-0.6-0.4-0.9-1.2-0.5-1.8
				l1.7-3.2c0.2-0.3,0.6-0.5,0.9-0.3L74.2,262.4z"/>
			<polygon class="st2" points="61.4,260.9 61.4,255.9 63,256.8 63,258 62.2,257.5 62.2,258.2 62.9,258.7 62.9,259.8 62.2,259.3 
				62.2,260.1 63,260.6 63,261.8 			"/>
			<path class="st2" d="M60.3,255.3L60.3,255.3l-1.1-0.6v4.9l0.7,0.4v-1.6l0.3,0.2h0.1c0.8,0.4,1-0.5,1-1.1
				C61.2,256.8,61,255.7,60.3,255.3z"/>
			<path class="st2" d="M60.2,257.5L60.2,257.5l-0.1-0.1l-0.2-0.1v-1.1l0.2,0.1h0.1c0.3,0.2,0.3,0.5,0.3,0.7S60.5,257.5,60.2,257.5z
				"/>
			<path class="st2" d="M67.7,260.2v0.9c-0.1-0.3-0.3-0.8-0.6-0.9c-0.4-0.2-0.7,0.3-0.7,1c0,0.9,0.3,1.5,0.7,1.7
				c0.3,0.2,0.5,0,0.6-0.2v1.4c-0.1,0.1-0.1,0.1-0.2,0.1h-0.1c-0.1,0-0.3-0.1-0.4-0.1c-0.7-0.4-1.3-1.7-1.3-3.4
				c0-1.7,0.7-2.3,1.3-1.9c0.2,0.1,0.5,0.4,0.7,0.8V260.2L67.7,260.2z"/>
			<path class="st2" d="M70.1,264c0-1-0.3-2-1.1-2.4c-0.7-0.4-1.1,0.2-1.1,1.2s0.3,2,1.1,2.4C69.7,265.7,70.1,265,70.1,264z"/>
			<path class="st2" d="M69.4,263.7c0,0.1,0,0.9-0.4,0.7c-0.2-0.1-0.3-0.3-0.3-0.5c-0.1-0.3-0.1-0.6-0.1-0.7c0-0.5,0.1-0.9,0.4-0.7
				C69.2,262.6,69.4,263.1,69.4,263.7z"/>
			<path class="st2" d="M64.9,261.1c0.4-0.1,0.5-0.7,0.5-1.2c0-0.4-0.1-0.9-0.3-1.3c-0.1-0.3-0.3-0.6-0.6-0.8l-0.1-0.1l-1.1-0.6v4.9
				l0.7,0.4v-1.6l0.3,0.9l0.3,1l0.9,0.5L64.9,261.1z"/>
			<path class="st2" d="M64.5,260C64.4,260,64.4,260,64.5,260L64.5,260l-0.3-0.1v-1.2l0.2,0.1h0.1c0.3,0.2,0.3,0.5,0.3,0.8
				C64.7,259.7,64.7,260.1,64.5,260z"/>
			<line class="st2" x1="325.5" y1="413.4" x2="325.1" y2="413.2"/>
			<path class="st2" d="M341,423l-21.8-12.4c-0.6-0.4-0.9-1.2-0.5-1.8l1.7-3.2c0.2-0.3,0.6-0.5,0.9-0.3L340,416
				c0.4,0.2,0.7,0.6,0.8,1l1.5,4.9C342.6,422.8,341.7,423.5,341,423z"/>
			<polygon class="st2" points="327.2,414.4 327.3,409.5 328.8,410.4 328.8,411.6 328,411.1 328,411.8 328.7,412.2 328.7,413.3 
				328,412.9 328,413.7 328.8,414.1 328.8,415.3 			"/>
			<path class="st2" d="M326.1,408.8L326.1,408.8l-1.1-0.6v4.9l0.7,0.4v-1.6l0.3,0.2l0.1,0.1c0.8,0.4,1-0.5,1-1.1
				C327,410.4,326.8,409.3,326.1,408.8z"/>
			<path class="st2" d="M326.1,411C326,411,326,411,326.1,411l-0.1-0.1l-0.2-0.1v-1.1l0.2,0.1h0.1c0.3,0.2,0.3,0.5,0.3,0.7
				C326.3,410.7,326.3,411.1,326.1,411z"/>
			<path class="st2" d="M333.5,417.7c-0.2,0.2-0.5,0.1-0.7,0c-0.7-0.4-1.3-1.7-1.3-3.4c0-1.7,0.7-2.3,1.3-1.9
				c0.2,0.1,0.5,0.4,0.7,0.8v1.4c-0.1-0.3-0.3-0.8-0.6-0.9c-0.4-0.2-0.7,0.3-0.7,1c0,0.9,0.3,1.5,0.7,1.7c0.3,0.2,0.5,0,0.6-0.2
				V417.7z"/>
			<path class="st2" d="M335.9,417.6c0-1-0.3-2-1.1-2.4c-0.7-0.4-1.1,0.2-1.1,1.2s0.4,2,1.1,2.4S335.9,418.6,335.9,417.6z"/>
			<path class="st2" d="M335.2,417.2c0,0.1,0,0.9-0.4,0.7c-0.4-0.2-0.4-1-0.4-1.2c0-0.5,0.1-0.9,0.4-0.7
				C335.1,416.2,335.2,416.7,335.2,417.2z"/>
			<path class="st2" d="M330.7,414.6c0.4-0.1,0.5-0.7,0.5-1.2c0-0.6-0.2-1.7-0.9-2.1c-0.1,0-0.1-0.1-0.1-0.1l-1.1-0.6v4.9l0.7,0.4
				v-1.6l0.3,0.9l0.3,1l0.9,0.5L330.7,414.6z"/>
			<path class="st2" d="M330.3,413.6C330.2,413.6,330.2,413.6,330.3,413.6h-0.1l-0.2-0.1v-1.2l0.2,0.1c0,0,0.1,0,0.1,0.1
				c0.2,0.2,0.3,0.5,0.3,0.7C330.5,413.3,330.5,413.6,330.3,413.6z"/>
		</g>
	</g>
</g>
<line class="st2" x1="341.4" y1="188.5" x2="336" y2="182.5"/>
<line class="st2" x1="341.4" y1="188.5" x2="336" y2="182.5"/>
<line class="st2" x1="336" y1="212.1" x2="341.4" y2="212.3"/>
<line class="st10" x1="336" y1="182.5" x2="336" y2="182.5"/>
<line class="st2" x1="336" y1="182.5" x2="336" y2="212.1"/>
<line class="st2" x1="341.4" y1="212.3" x2="341.4" y2="188.5"/>
<line class="st10" x1="341.4" y1="212.3" x2="341.4" y2="212.3"/>
<line class="st10" x1="341.4" y1="188.5" x2="341.4" y2="188.5"/>
<line class="st2" x1="341.7" y1="432" x2="341.6" y2="434.1"/>
<line class="st11" x1="341.4" y1="396.8" x2="341.4" y2="396.8"/>
<line class="st2" x1="341.4" y1="133.5" x2="336" y2="133.3"/>
<line class="st2" x1="336" y1="157.1" x2="341.4" y2="163.1"/>
<line class="st2" x1="341.4" y1="133.6" x2="335.9" y2="133.3"/>
<line class="st10" x1="341.4" y1="163.1" x2="341.4" y2="163.1"/>
<line class="st2" x1="341.4" y1="163.1" x2="341.4" y2="133.6"/>
<line class="st10" x1="341.4" y1="133.5" x2="341.4" y2="133.5"/>
<line class="st2" x1="335.9" y1="133.3" x2="336" y2="157.1"/>
<line class="st10" x1="335.9" y1="133.3" x2="335.9" y2="133.3"/>
<line class="st2" x1="341.4" y1="396.8" x2="336" y2="390.8"/>
<line class="st11" x1="335.9" y1="390.8" x2="335.9" y2="390.8"/>
<line class="st2" x1="335.9" y1="390.8" x2="336" y2="420.4"/>
<line class="st2" x1="341.4" y1="420.6" x2="341.4" y2="396.8"/>
<line class="st2" x1="341.1" y1="113.2" x2="336.6" y2="113"/>
<line class="st10" x1="341.4" y1="113" x2="341.5" y2="112.7"/>
<line class="st2" x1="341.4" y1="112.8" x2="341.4" y2="90.5"/>
<line class="st10" x1="341.5" y1="112.7" x2="341.4" y2="112.8"/>
<line class="st10" x1="341.4" y1="112.8" x2="341.3" y2="113.1"/>
<line class="st10" x1="341.3" y1="113.1" x2="341.1" y2="113.2"/>
<line class="st10" x1="336.6" y1="113" x2="336.3" y2="112.8"/>
<line class="st10" x1="336.3" y1="112.8" x2="336" y2="112.4"/>
<line class="st10" x1="336" y1="112.4" x2="335.9" y2="112"/>
<line class="st2" x1="336.8" y1="84.7" x2="341.3" y2="89.7"/>
<line class="st10" x1="336.6" y1="84.8" x2="336.8" y2="84.7"/>
<line class="st10" x1="336.8" y1="84.7" x2="336.5" y2="84.5"/>
<line class="st10" x1="336.5" y1="84.5" x2="336.2" y2="84.5"/>
<line class="st2" x1="335.9" y1="84.9" x2="335.9" y2="112"/>
<line class="st10" x1="335.9" y1="84.9" x2="336" y2="84.7"/>
<line class="st10" x1="336" y1="84.7" x2="336.2" y2="84.6"/>
<line class="st10" x1="336.2" y1="84.6" x2="336.6" y2="84.8"/>
<line class="st10" x1="341.4" y1="90.5" x2="341.6" y2="90.4"/>
<line class="st10" x1="341.6" y1="90.4" x2="341.5" y2="90.1"/>
<line class="st10" x1="341.5" y1="90.1" x2="341.3" y2="89.7"/>
<line class="st10" x1="341.3" y1="89.7" x2="341.1" y2="89.8"/>
<line class="st10" x1="341.1" y1="89.8" x2="341.3" y2="90.2"/>
<line class="st10" x1="341.3" y1="90.2" x2="341.4" y2="90.5"/>
<line class="st10" x1="341.4" y1="113" x2="341.2" y2="113.1"/>
<line class="st10" x1="336" y1="84.6" x2="336.2" y2="84.5"/>
<line class="st10" x1="335.2" y1="81.1" x2="335.2" y2="81.1"/>
<line class="st10" x1="335.2" y1="81.1" x2="335.2" y2="428.3"/>
<line class="st10" x1="335.9" y1="81.5" x2="335.2" y2="81.1"/>
<line class="st10" x1="335.9" y1="81.5" x2="335.9" y2="81.5"/>
<line class="st2" x1="335.2" y1="428.3" x2="341.7" y2="432"/>
<line class="st10" x1="346.8" y1="84" x2="346.7" y2="430.7"/>
<line class="st10" x1="341.7" y1="432" x2="341.7" y2="84.8"/>
<line class="st10" x1="334.1" y1="427.7" x2="334.1" y2="80.5"/>
<line class="st10" x1="334.1" y1="80.5" x2="341.6" y2="84.8"/>
<line class="st10" x1="341.7" y1="84.8" x2="341.7" y2="82.8"/>
<line class="st10" x1="337" y1="79.3" x2="337.2" y2="79.3"/>
<line class="st10" x1="337.2" y1="79.3" x2="338.3" y2="79.9"/>
<line class="st10" x1="338.3" y1="79.9" x2="339.5" y2="80.7"/>
<line class="st2" x1="341.4" y1="237.7" x2="336" y2="237.4"/>
<line class="st2" x1="336" y1="261.3" x2="341.4" y2="267.3"/>
<line class="st2" x1="341.4" y1="237.7" x2="336" y2="237.4"/>
<line class="st10" x1="341.4" y1="267.3" x2="341.4" y2="267.3"/>
<line class="st2" x1="341.4" y1="267.3" x2="341.4" y2="237.7"/>
<line class="st10" x1="341.4" y1="237.7" x2="341.4" y2="237.7"/>
<line class="st2" x1="336" y1="237.4" x2="336" y2="261.3"/>
<line class="st10" x1="336" y1="237.4" x2="336" y2="237.4"/>
<line class="st2" x1="341.4" y1="292.6" x2="336" y2="286.6"/>
<line class="st2" x1="341.4" y1="292.6" x2="335.9" y2="286.7"/>
<line class="st2" x1="336" y1="316.2" x2="341.4" y2="316.5"/>
<line class="st10" x1="335.9" y1="286.7" x2="335.9" y2="286.7"/>
<line class="st2" x1="335.9" y1="286.7" x2="336" y2="316.2"/>
<line class="st2" x1="341.4" y1="316.4" x2="341.4" y2="292.6"/>
<line class="st10" x1="341.4" y1="316.5" x2="341.4" y2="316.5"/>
<line class="st10" x1="341.4" y1="292.6" x2="341.4" y2="292.6"/>
<line class="st2" x1="341.4" y1="341.9" x2="336" y2="341.6"/>
<line class="st2" x1="336" y1="365.5" x2="341.4" y2="371.4"/>
<line class="st2" x1="341.4" y1="341.9" x2="335.9" y2="341.6"/>
<line class="st11" x1="341.4" y1="371.4" x2="341.4" y2="371.4"/>
<line class="st2" x1="341.4" y1="371.4" x2="341.4" y2="341.9"/>
<line class="st10" x1="341.4" y1="341.9" x2="341.4" y2="341.9"/>
<line class="st2" x1="335.9" y1="341.6" x2="336" y2="365.5"/>
<line class="st10" x1="335.9" y1="341.6" x2="335.9" y2="341.6"/>
<path class="st2" d="M341.7,432c1.8,1,4.5,0.6,5.1-1.2"/>
<path class="st2" d="M334.5,429.5c0.1,0.9,4,4.5,7.1,4.6"/>
<path class="st2" d="M334.1,427.7c0.6,0.3,1,0.6,1,0.6"/>
<path class="st2" d="M334.1,427.7c0,0.5,0,1.1,0.4,1.9"/>
<path class="st2" d="M341.6,434.1c2.6,0,5.3-1.1,5.1-3.4"/>
<path class="st10" d="M341.7,84.8c1.4,0.8,4.1,0.9,5.1-0.9"/>
<path class="st10" d="M341.7,82.8c3.2,2.8,5.1,1.7,5.1-0.4"/>
<path class="st10" d="M346.7,82.4c-1.3-4.6-7.3-6.3-8.3-6.3"/>
<path class="st10" d="M334.1,80.5c-0.1-0.9-0.1-2,0.4-2.5"/>
<path class="st10" d="M334.5,78c1.3-1.4,3.1-1.9,3.9-1.8"/>
<path class="st10" d="M341.8,83c-3.4-3.9-7.3-5-7.7-4.3"/>
<path class="st10" d="M346.7,82.4c0.1,0.6,0.1,1.2,0,1.5"/>
<line class="st2" x1="332.5" y1="507.2" x2="380.4" y2="537"/>
<line class="st2" x1="382.2" y1="503" x2="424" y2="527.2"/>
<line class="st2" x1="381.7" y1="403.7" x2="398.6" y2="413.1"/>
<line class="st2" x1="334.3" y1="416.3" x2="364" y2="434.8"/>
<line class="st2" x1="406.9" y1="391.7" x2="406.9" y2="517.3"/>
<line class="st2" x1="420.5" y1="118" x2="420.5" y2="525.2"/>
<line class="st2" x1="381.7" y1="379.3" x2="411.2" y2="393.8"/>
<line class="st2" x1="376.7" y1="534.7" x2="406.3" y2="517.4"/>
<line class="st2" x1="360.3" y1="432.5" x2="395.9" y2="411.7"/>
<line class="st2" x1="340.9" y1="374.7" x2="363" y2="361.8"/>
<line class="st2" x1="371.8" y1="392.6" x2="397.8" y2="377.4"/>
<line class="st2" x1="360.5" y1="363.3" x2="395.5" y2="378.8"/>
<line class="st2" x1="340.7" y1="78.7" x2="426" y2="120.7"/>
<line class="st2" x1="42.1" y1="249.6" x2="42.1" y2="339.1"/>
<line class="st2" x1="36.6" y1="342.3" x2="57.1" y2="330.3"/>
<line class="st2" x1="347.3" y1="531.1" x2="375.4" y2="515"/>
<line class="st2" x1="352.8" y1="528" x2="42.1" y2="339.1"/>
<g id="XMLID_30_">
	<g>
		<path class="st3" d="M422.2,514.3l-1.7,10.9l-1.7-10.9C418.8,514.3,420.5,517.3,422.2,514.3z"/>
	</g>
</g>
<g id="XMLID_29_">
	<g>
		<path class="st3" d="M408.6,506l-1.7,10.9l-1.7-10.9C405.2,506,406.9,509,408.6,506z"/>
	</g>
</g>
<g id="XMLID_28_">
	<g>
		<path class="st3" d="M405.2,402.6l1.7-10.9l1.7,10.9C408.6,402.6,406.9,399.6,405.2,402.6z"/>
	</g>
</g>
<g id="XMLID_27_">
	<g>
		<path class="st3" d="M418.8,128.9l1.7-10.9l1.7,10.9C422.2,128.9,420.5,125.9,418.8,128.9z"/>
	</g>
</g>
<g id="XMLID_26_">
	<g>
		<path class="st3" d="M396,521.4l10.3-4l-8.6,6.9C397.7,524.3,399.4,521.3,396,521.4z"/>
	</g>
</g>
<g id="XMLID_25_">
	<g>
		<path class="st3" d="M385.6,415.7l10.3-4l-8.6,6.9C387.3,418.6,389,415.6,385.6,415.7z"/>
	</g>
</g>
<g id="XMLID_24_">
	<g>
		<path class="st3" d="M387,530.7l-10.3,4l8.6-6.9C385.3,527.8,383.6,530.7,387,530.7z"/>
	</g>
</g>
<g id="XMLID_23_">
	<g>
		<path class="st3" d="M370.6,428.6l-10.3,4l8.6-6.9C368.9,425.6,367.2,428.6,370.6,428.6z"/>
	</g>
</g>
<g id="XMLID_22_">
	<g>
		<path class="st3" d="M344.7,520.6l8.2,7.4l-10.1-4.5C342.9,523.5,346.3,523.7,344.7,520.6z"/>
	</g>
</g>
<g id="XMLID_21_">
	<g>
		<path class="st3" d="M50.4,346.5l-8.2-7.4l10.1,4.5C52.2,343.7,48.8,343.5,50.4,346.5z"/>
	</g>
</g>
<g id="XMLID_20_">
	<g>
		<path class="st3" d="M386.2,372.5l9.2,6.2l-10.6-3.1C384.8,375.6,388.2,375.4,386.2,372.5z"/>
	</g>
</g>
<g id="XMLID_19_">
	<g>
		<path class="st3" d="M369.9,369.6l-9.2-6.2l10.6,3.1C371.3,366.5,367.9,366.8,369.9,369.6z"/>
	</g>
</g>
<line class="st2" x1="297" y1="400" x2="297" y2="494.5"/>
<g id="XMLID_18_">
	<g>
		<path class="st3" d="M298.7,483.2l-1.7,10.9l-1.7-10.9C295.3,483.2,297,486.2,298.7,483.2z"/>
	</g>
</g>
<g id="XMLID_17_">
	<g>
		<path class="st3" d="M295.3,411.3l1.7-10.9l1.7,10.9C298.7,411.3,297,408.3,295.3,411.3z"/>
	</g>
</g>
<g>
	<g class="st8">
		<path class="st3" d="M377.5,357.5c0.2-0.5,0.6-0.8,1-1.1c1-0.6,1.9-0.3,2.4-0.1c1.6,0.7,1.9,2.2,1.4,3.4c-0.3,0.6-0.9,1.4-1.9,1.4
			c0.2,0.2,1,1.1,0.3,2.6c-0.7,1.6-2.3,2.1-3.8,1.4c-0.9-0.4-1.8-1.2-1.7-2.5c0-0.4,0.1-0.7,0.2-1l0.9,0.4c-0.1,0.3-0.1,0.7-0.1,1
			c0.1,0.5,0.5,1,1,1.2c0.9,0.4,2,0,2.4-1c0.2-0.5,0.3-1.2-0.2-1.8c-0.2-0.2-0.6-0.5-0.9-0.6l0.4-0.8c0.3,0.2,0.7,0.3,1.1,0.3
			c0.3,0,0.9-0.2,1.3-0.9c0.3-0.8,0.2-1.6-0.8-2.1c-0.3-0.2-0.8-0.3-1.3,0c-0.3,0.1-0.5,0.4-0.7,0.7L377.5,357.5z"/>
		<path class="st3" d="M384.1,360.4c0.2-0.5,0.6-0.8,1-1.1c1-0.6,1.9-0.3,2.4-0.1c1.6,0.7,1.9,2.2,1.4,3.4c-0.3,0.6-0.9,1.4-1.9,1.4
			c0.2,0.2,1,1.1,0.3,2.6c-0.7,1.6-2.3,2.1-3.8,1.4c-0.9-0.4-1.8-1.2-1.7-2.5c0-0.4,0.1-0.7,0.2-1l0.9,0.4c-0.1,0.3-0.1,0.7-0.1,1
			c0.1,0.5,0.5,1,1,1.2c0.9,0.4,2,0,2.4-1c0.2-0.5,0.3-1.2-0.2-1.8c-0.2-0.2-0.6-0.5-0.9-0.6l0.4-0.8c0.3,0.2,0.7,0.3,1.1,0.3
			c0.3,0,0.9-0.2,1.3-0.9c0.3-0.8,0.2-1.6-0.8-2.1c-0.3-0.2-0.8-0.3-1.3,0c-0.3,0.1-0.5,0.4-0.7,0.7L384.1,360.4z"/>
		<path class="st3" d="M389.4,369.1c-0.2-1.1,0-2.3,0.5-3.5s1.3-2.2,2.3-2.8c1.1-0.7,2.1-0.6,2.8-0.3c0.7,0.3,1.4,1,1.6,2.3
			c0.2,1.1,0,2.3-0.5,3.5s-1.3,2.2-2.3,2.8c-1.1,0.7-2.1,0.6-2.8,0.3C390.3,371.1,389.6,370.3,389.4,369.1z M392.7,363.7
			c-0.8,0.5-1.4,1.4-1.8,2.3s-0.7,1.9-0.5,2.9c0.1,0.9,0.6,1.4,1,1.6s1.1,0.2,1.9-0.3s1.4-1.4,1.8-2.3s0.7-1.9,0.5-2.9
			c-0.1-0.9-0.6-1.4-1-1.6C394.1,363.2,393.4,363.2,392.7,363.7z"/>
	</g>
</g>
<g>
	<g class="st8">
		<path class="st3" d="M291.4,450.4c1.5,0,2.7,1,2.7,2.9s-1.3,2.9-2.7,2.9c-1,0-1.9-0.5-2.3-1.4c-0.4,0.7-1.2,1.1-2,1.1
			c-1.3,0-2.6-0.9-2.6-2.6s1.3-2.6,2.6-2.6c0.9,0,1.6,0.4,2,1.1C289.5,450.9,290.4,450.4,291.4,450.4z M287.1,451.7
			c-1,0-1.7,0.7-1.7,1.6s0.6,1.6,1.7,1.6c0.9,0,1.6-0.7,1.6-1.6C288.7,452.4,288,451.7,287.1,451.7z M291.4,451.4
			c-1.1,0-1.8,0.8-1.8,1.8c0,1.1,0.7,1.8,1.8,1.8c1.1,0,1.8-0.7,1.8-1.8C293.2,452.2,292.4,451.4,291.4,451.4z"/>
		<path class="st3" d="M294,449.1l-3.9-3.4c-0.3-0.2-1-0.9-1.4-1.1c-0.6-0.4-1.1-0.5-1.4-0.5c-1.1,0-1.8,0.8-1.8,1.9
			c0,0.7,0.3,1.2,0.8,1.6c0.3,0.2,0.6,0.3,1.1,0.3v1c-0.9,0-1.5-0.3-1.9-0.7c-0.4-0.4-1-1.1-1-2.2c0-1.7,1.2-2.9,2.8-2.9
			c0.6,0,1.2,0.2,2,0.7c0.5,0.4,1.1,0.9,1.6,1.3l2.2,1.9v-3.9h1v6H294z"/>
		<path class="st3" d="M292.8,440.6c-0.9,0.6-2.1,0.9-3.4,0.9s-2.5-0.3-3.4-0.9c-1-0.7-1.4-1.7-1.4-2.4c0-0.7,0.4-1.7,1.4-2.4
			c0.9-0.6,2.1-0.9,3.4-0.9s2.5,0.3,3.4,0.9c1,0.7,1.4,1.7,1.4,2.4C294.2,439,293.8,439.9,292.8,440.6z M286.5,439.9
			c0.8,0.5,1.9,0.7,2.8,0.7c1,0,2-0.2,2.8-0.7s1-1.1,1-1.6s-0.3-1.1-1-1.6c-0.8-0.5-1.9-0.7-2.8-0.7c-1,0-2,0.2-2.8,0.7
			s-1,1.1-1,1.6C285.4,438.7,285.7,439.4,286.5,439.9z"/>
	</g>
</g>
<g>
	<g class="st8">
		<path class="st3" d="M407.3,328.1c-0.5,0-1-0.2-1.4-0.4c-1-0.6-1.1-1.6-1.1-2.2c0-1.8,1.2-2.6,2.5-2.6c0.7,0,1.6,0.3,2.1,1.2
			c0.1-0.3,0.6-1.3,2.3-1.3c1.8,0,2.8,1.3,2.8,2.9c0,1-0.4,2.1-1.6,2.6c-0.3,0.1-0.6,0.2-1,0.2v-1c0.3,0,0.7-0.2,0.9-0.3
			c0.4-0.3,0.7-0.9,0.7-1.4c0-1-0.9-1.8-1.9-1.8c-0.5,0-1.2,0.2-1.6,0.9c-0.1,0.3-0.2,0.7-0.2,1.1h-0.9c0-0.4,0-0.8-0.2-1.1
			c-0.2-0.3-0.5-0.8-1.4-0.8c-0.8,0-1.6,0.4-1.6,1.6c0,0.4,0.1,0.8,0.5,1.2c0.2,0.2,0.6,0.3,1,0.4v0.8H407.3z"/>
		<path class="st3" d="M411.7,314.5c1.5,0,2.7,1,2.7,2.9s-1.3,2.9-2.7,2.9c-1,0-1.9-0.5-2.3-1.4c-0.4,0.7-1.2,1.1-2,1.1
			c-1.3,0-2.6-0.9-2.6-2.6s1.3-2.6,2.6-2.6c0.9,0,1.6,0.4,2,1.1C409.9,315,410.7,314.5,411.7,314.5z M407.4,315.8
			c-1,0-1.7,0.7-1.7,1.6s0.6,1.6,1.7,1.6c0.9,0,1.6-0.7,1.6-1.6S408.3,315.8,407.4,315.8z M411.7,315.5c-1.1,0-1.8,0.8-1.8,1.8
			s0.7,1.8,1.8,1.8c1.1,0,1.8-0.7,1.8-1.8C413.5,316.3,412.8,315.5,411.7,315.5z"/>
		<path class="st3" d="M405.9,311.6v1.6l-1-0.5v-2.1h9.3v1H405.9z"/>
		<path class="st3" d="M413.1,306.7c-0.9,0.6-2.1,0.9-3.4,0.9s-2.5-0.3-3.4-0.9c-1-0.7-1.4-1.7-1.4-2.4s0.4-1.7,1.4-2.4
			c0.9-0.6,2.1-0.9,3.4-0.9s2.5,0.3,3.4,0.9c1,0.7,1.4,1.7,1.4,2.4S414.1,305.9,413.1,306.7z M406.8,305.9c0.8,0.5,1.9,0.7,2.8,0.7
			c1,0,2-0.2,2.8-0.7s1-1.1,1-1.6s-0.3-1.1-1-1.6c-0.8-0.5-1.9-0.7-2.8-0.7c-1,0-2,0.2-2.8,0.7s-1,1.1-1,1.6S406,305.4,406.8,305.9z
			"/>
		<path class="st3" d="M404.3,293.8c0.7,0.3,1.5,0.5,2.4,0.7c1.2,0.3,2.3,0.4,3.5,0.4c1.1,0,2.2-0.1,3.4-0.3
			c0.9-0.2,1.8-0.4,2.6-0.7l0.4,0.9c-1.6,0.6-2.9,0.9-3.2,0.9c-1,0.2-2.2,0.3-3.3,0.3c-0.9,0-2.2-0.1-3.6-0.4
			c-0.9-0.2-1.9-0.5-2.7-0.8L404.3,293.8z"/>
		<path class="st3" d="M405.9,286.2v3l2,0.6c0-0.2-0.1-0.4-0.1-0.6c0-1.9,1.4-3.1,3.2-3.1c2.1,0,3.4,1.6,3.4,3.4
			c0,0.8-0.2,1.5-0.7,2.1c-0.3,0.3-0.6,0.6-1,0.8l-0.6-0.8c0.3-0.2,0.5-0.4,0.8-0.6c0.3-0.4,0.6-0.9,0.6-1.5c0-1.3-1.1-2.3-2.4-2.3
			s-2.3,1-2.3,2.3c0,0.3,0.1,1,0.6,1.8l-4.5-1.4v-3.7L405.9,286.2L405.9,286.2z"/>
		<path class="st3" d="M405.9,283.1v1.6l-1-0.5v-2.1h9.3v1H405.9z"/>
		<path class="st3" d="M405.9,278.3v1.6l-1-0.5v-2.1h9.3v1H405.9z"/>
		<path class="st3" d="M413.1,273.4c-0.9,0.6-2.1,0.9-3.4,0.9s-2.5-0.3-3.4-0.9c-1-0.7-1.4-1.7-1.4-2.4c0-0.7,0.4-1.7,1.4-2.4
			c0.9-0.6,2.1-0.9,3.4-0.9s2.5,0.3,3.4,0.9c1,0.7,1.4,1.7,1.4,2.4C414.5,271.8,414.1,272.7,413.1,273.4z M406.8,272.6
			c0.8,0.5,1.9,0.7,2.8,0.7c1,0,2-0.2,2.8-0.7s1-1.1,1-1.6s-0.3-1.1-1-1.6c-0.8-0.5-1.9-0.7-2.8-0.7c-1,0-2,0.2-2.8,0.7
			s-1,1.1-1,1.6S406,272.1,406.8,272.6z"/>
		<path class="st3" d="M403.9,265.3c0.7-0.3,1.8-0.6,2.7-0.8c1.4-0.3,2.7-0.4,3.6-0.4c1,0,2.2,0.1,3.3,0.3c0.2,0,1.6,0.3,3.2,0.9
			l-0.4,0.9c-0.8-0.3-1.7-0.5-2.6-0.7c-1.3-0.3-2.3-0.3-3.4-0.3c-1.2,0-2.3,0.1-3.5,0.4c-1,0.2-1.8,0.5-2.4,0.7L403.9,265.3z"/>
	</g>
</g>
<g>
	<g class="st8">
		<path class="st3" d="M395.4,468.3v1.6l-1-0.5v-2.1h9.3v1H395.4z"/>
		<path class="st3" d="M402.5,463.3c-0.9,0.6-2.1,0.9-3.4,0.9s-2.5-0.3-3.4-0.9c-1-0.7-1.4-1.7-1.4-2.4c0-0.7,0.4-1.7,1.4-2.4
			c0.9-0.6,2.1-0.9,3.4-0.9s2.5,0.3,3.4,0.9c1,0.7,1.4,1.7,1.4,2.4C403.9,461.7,403.6,462.6,402.5,463.3z M396.3,462.6
			c0.8,0.5,1.9,0.7,2.8,0.7c1,0,2-0.2,2.8-0.7s1-1.1,1-1.6s-0.3-1.1-1-1.6c-0.8-0.5-1.9-0.7-2.8-0.7c-1,0-2,0.2-2.8,0.7
			s-1,1.1-1,1.6C395.2,461.4,395.5,462.1,396.3,462.6z"/>
		<path class="st3" d="M395.4,451.6v5.1h-1v-6.9l9.6,6.2l-0.5,0.8L395.4,451.6z"/>
		<path class="st3" d="M402.5,448.8c-0.9,0.6-2.1,0.9-3.4,0.9s-2.5-0.3-3.4-0.9c-1-0.7-1.4-1.7-1.4-2.4c0-0.7,0.4-1.7,1.4-2.4
			c0.9-0.6,2.1-0.9,3.4-0.9s2.5,0.3,3.4,0.9c1,0.7,1.4,1.7,1.4,2.4C403.9,447.2,403.6,448.1,402.5,448.8z M396.3,448.1
			c0.8,0.5,1.9,0.7,2.8,0.7c1,0,2-0.2,2.8-0.7s1-1.1,1-1.6s-0.3-1.1-1-1.6c-0.8-0.5-1.9-0.7-2.8-0.7c-1,0-2,0.2-2.8,0.7
			s-1,1.1-1,1.6C395.2,446.9,395.5,447.6,396.3,448.1z"/>
	</g>
</g>
<g>
	<g class="st8">
		<path class="st3" d="M358.9,418.8c-0.2-0.5-0.3-1-0.3-1.4c0.1-1.1,0.8-1.8,1.3-2c1.5-0.9,2.9-0.3,3.5,0.9c0.3,0.6,0.6,1.5,0,2.4
			c0.3-0.1,1.5-0.1,2.3,1.3c0.9,1.5,0.3,3.1-1.1,3.9c-0.8,0.5-2,0.7-3.1-0.1c-0.3-0.2-0.5-0.5-0.7-0.7l0.9-0.5
			c0.2,0.3,0.5,0.5,0.8,0.6c0.5,0.2,1.1,0.2,1.6-0.1c0.9-0.5,1.2-1.7,0.6-2.6c-0.3-0.5-0.8-1-1.6-0.9c-0.3,0-0.7,0.2-1,0.4l-0.5-0.8
			c0.3-0.2,0.6-0.4,0.8-0.7c0.2-0.3,0.4-0.9,0-1.6s-1.2-1.2-2.2-0.6c-0.3,0.2-0.7,0.5-0.8,1.1c0,0.3,0,0.7,0.2,1L358.9,418.8z"/>
		<path class="st3" d="M368.7,411.6l-4.4,2.6l-0.5-0.8l5.9-3.4l-0.6,11.4l-1-0.1L368.7,411.6z"/>
		<path class="st3" d="M374.7,416.4c-1-0.5-1.9-1.4-2.5-2.5c-0.7-1.2-1-2.4-0.9-3.4c0.1-1.3,0.7-2,1.4-2.4s1.6-0.5,2.8,0
			c1,0.5,1.9,1.4,2.5,2.5c0.7,1.2,1,2.4,0.9,3.4c-0.1,1.3-0.7,2-1.4,2.4C376.8,416.8,375.9,417,374.7,416.4z M372.3,410.6
			c0,0.9,0.3,2,0.8,2.8s1.2,1.7,2,2.1s1.5,0.3,1.9,0.1s0.8-0.8,0.9-1.7c0-0.9-0.3-2-0.8-2.8c-0.5-0.9-1.2-1.7-2-2.1
			s-1.5-0.3-1.9-0.1C372.7,409.1,372.3,409.7,372.3,410.6z"/>
	</g>
</g>
<g>
	<g class="st8">
		<path class="st3" d="M376.9,529.6l1-5.1c0.1-0.4,0.2-1.3,0.3-1.7c0.1-0.7-0.1-1.2-0.3-1.5c-0.5-0.9-1.6-1.2-2.5-0.6
			c-0.6,0.3-0.9,0.9-0.9,1.5c0,0.3,0.1,0.7,0.3,1.1l-0.9,0.5c-0.4-0.8-0.5-1.5-0.4-2c0.1-0.6,0.4-1.4,1.4-1.9c1.4-0.8,3.1-0.4,3.9,1
			c0.3,0.5,0.4,1.1,0.4,2.1c-0.1,0.7-0.2,1.4-0.3,2l-0.6,2.9l3.4-2l0.5,0.8L376.9,529.6z"/>
		<path class="st3" d="M387.3,520.6c0.7,1.3,0.5,2.9-1.1,3.8c-1.6,1-3.1,0.3-3.8-0.9c-0.5-0.9-0.5-1.8,0.1-2.7c-0.9,0-1.6-0.5-2-1.2
			c-0.7-1.2-0.5-2.7,0.9-3.5c1.5-0.8,2.9-0.2,3.5,1c0.4,0.8,0.5,1.6,0,2.3C386,519.2,386.8,519.7,387.3,520.6z M384.1,517.5
			c-0.5-0.9-1.5-1.1-2.2-0.6c-0.7,0.4-1.1,1.3-0.6,2.2c0.5,0.8,1.4,1.1,2.2,0.6C384.3,519.2,384.5,518.3,384.1,517.5z M386.4,521.1
			c-0.5-0.9-1.5-1.2-2.5-0.6s-1.2,1.5-0.7,2.5c0.5,0.9,1.6,1.2,2.5,0.7C386.7,523,386.9,522,386.4,521.1z"/>
		<path class="st3" d="M390,512.3l-4.4,2.6l-0.5-0.8l5.9-3.4l-0.6,11.4l-1-0.1L390,512.3z"/>
	</g>
</g>
<polygon class="st3" points="760.5,415 760.5,413 761.1,413.3 761.1,413.8 760.8,413.6 760.8,413.9 761.1,414.1 761.1,414.5 
	760.8,414.4 760.8,414.7 761.1,414.9 761.1,415.4 "/>
<path class="st3" d="M760,412.7L760,412.7l-0.4-0.3v2l0.3,0.2v-0.7l0.1,0.1l0,0c0.3,0.2,0.4-0.2,0.4-0.5
	C760.4,413.3,760.3,412.9,760,412.7z"/>
<path class="st3" d="M763,416.3c-0.1,0.1-0.2,0-0.3,0c-0.3-0.2-0.5-0.7-0.5-1.4c0-0.7,0.3-0.9,0.5-0.8c0.1,0.1,0.2,0.2,0.3,0.3v0.6
	c0-0.1-0.1-0.3-0.3-0.4s-0.3,0.1-0.3,0.4c0,0.4,0.1,0.6,0.3,0.7c0.1,0.1,0.2,0,0.3-0.1V416.3z"/>
<path class="st3" d="M764,416.3c0-0.4-0.1-0.8-0.4-1c-0.3-0.2-0.4,0.1-0.4,0.5s0.1,0.8,0.4,1C763.8,417,764,416.7,764,416.3
	L764,416.3z"/>
<path class="st3" d="M763.7,416.1c0,0.1,0,0.4-0.2,0.3s-0.2-0.4-0.2-0.5c0-0.2,0.1-0.4,0.2-0.3C763.7,415.7,763.7,415.9,763.7,416.1
	L763.7,416.1z"/>
<path class="st3" d="M761.9,415.1c0.2,0,0.2-0.3,0.2-0.5c0-0.3-0.1-0.7-0.4-0.9l0,0l-0.4-0.2v2l0.3,0.2V415l0,0l0.1,0.4l0.1,0.4
	l0.4,0.2L761.9,415.1z"/>
<path class="st3" d="M761.7,414.7L761.7,414.7L761.7,414.7l-0.1-0.1v-0.5h0.1l0,0c0.1,0.1,0.1,0.2,0.1,0.3
	C761.8,414.5,761.8,414.7,761.7,414.7z"/>
<g>
	<path class="st3" d="M145.9,385.2c0.3-0.4,0.7-0.7,1.1-0.9c1-0.5,1.9-0.1,2.4,0.2c1.5,0.9,1.6,2.4,0.9,3.5c-0.3,0.6-1,1.2-2.1,1.1
		c0.2,0.3,0.8,1.2,0,2.6c-0.9,1.5-2.6,1.7-3.9,0.9c-0.8-0.5-1.6-1.4-1.4-2.7c0.1-0.4,0.2-0.7,0.3-0.9l0.9,0.5
		c-0.1,0.3-0.2,0.7-0.2,1c0,0.5,0.4,1,0.9,1.3c0.9,0.5,2,0.2,2.5-0.7c0.3-0.5,0.5-1.2,0-1.8c-0.2-0.3-0.5-0.5-0.8-0.7l0.5-0.8
		c0.3,0.2,0.7,0.4,1,0.4c0.3,0,1-0.1,1.4-0.8c0.4-0.7,0.4-1.6-0.5-2.2c-0.3-0.2-0.8-0.4-1.3-0.2c-0.3,0.1-0.6,0.3-0.8,0.6
		L145.9,385.2z"/>
	<path class="st3" d="M153.7,388.4l-1.3-0.8l1-0.6l1.8,1.1l-4.9,8l-0.9-0.5L153.7,388.4z"/>
	<path class="st3" d="M154.2,397c-0.1-1.1,0.3-2.3,1-3.4c0.7-1.1,1.6-2,2.6-2.4c1.1-0.5,2.1-0.3,2.8,0c0.6,0.4,1.2,1.2,1.3,2.4
		c0.1,1.1-0.3,2.3-1,3.4s-1.6,2-2.6,2.4c-1.1,0.5-2.1,0.3-2.8,0C154.9,399.1,154.3,398.3,154.2,397z M158.1,392.1
		c-0.8,0.4-1.6,1.2-2.1,2.1s-0.9,1.8-0.9,2.8c0,0.9,0.4,1.5,0.8,1.7c0.4,0.2,1.1,0.4,1.9,0c0.8-0.4,1.6-1.2,2.1-2.1s0.9-1.8,0.9-2.8
		c0-0.9-0.4-1.5-0.8-1.7C159.7,391.8,159,391.7,158.1,392.1z"/>
	<path class="st3" d="M161,401.2c-0.1-1.1,0.3-2.3,1-3.4c0.7-1.1,1.6-2,2.6-2.4c1.1-0.5,2.1-0.3,2.8,0c0.6,0.4,1.2,1.2,1.3,2.4
		c0.1,1.1-0.3,2.3-1,3.4c-0.7,1.1-1.6,2-2.6,2.4c-1.1,0.5-2.1,0.3-2.8,0C161.7,403.2,161.1,402.4,161,401.2z M164.9,396.2
		c-0.8,0.4-1.6,1.2-2.1,2.1s-0.9,1.8-0.9,2.8c0,0.9,0.4,1.5,0.8,1.7c0.4,0.2,1.1,0.4,1.9,0c0.8-0.4,1.6-1.2,2.1-2.1s0.9-1.8,0.9-2.8
		c0-0.9-0.4-1.5-0.8-1.7C166.4,395.9,165.8,395.8,164.9,396.2z"/>
	<path class="st3" d="M176.5,400.4c-0.6,0.4-1.2,1-1.9,1.7c-0.8,0.9-1.5,1.8-2.1,2.8c-0.6,1-1.1,1.9-1.5,3.1
		c-0.3,0.9-0.5,1.7-0.7,2.6l-1-0.1c0.3-1.7,0.8-3,0.9-3.2c0.4-1,0.9-2,1.4-2.9c0.5-0.8,1.2-1.9,2.2-2.9c0.6-0.7,1.5-1.4,2.1-1.9
		L176.5,400.4z"/>
	<path class="st3" d="M178.7,410.2l1,0.6l-0.5,0.8l-1-0.6l-0.9,1.5l-0.9-0.5l0.9-1.5l-4.1-2.5l9.2-3.9L178.7,410.2z M177.9,409.7
		l2.1-3.5l-4.7,2L177.9,409.7z"/>
	<path class="st3" d="M185.5,414.4l1,0.6l-0.5,0.8l-1-0.6l-0.9,1.5l-0.9-0.5l0.9-1.5l-4.1-2.5l9.2-3.9L185.5,414.4z M184.6,413.8
		l2.1-3.5l-4.7,2L184.6,413.8z"/>
	<path class="st3" d="M187.7,417.4c-0.1-1.1,0.3-2.3,1-3.4c0.7-1.1,1.6-2,2.6-2.4c1.1-0.5,2.1-0.3,2.8,0c0.6,0.4,1.2,1.2,1.3,2.4
		c0.1,1.1-0.3,2.3-1,3.4c-0.7,1.1-1.6,2-2.6,2.4c-1.1,0.5-2.1,0.3-2.8,0C188.4,419.5,187.8,418.7,187.7,417.4z M191.6,412.5
		c-0.8,0.4-1.6,1.2-2.1,2.1c-0.5,0.8-0.9,1.8-0.9,2.8c0,0.9,0.4,1.5,0.8,1.7c0.4,0.2,1.1,0.4,1.9,0c0.8-0.4,1.6-1.2,2.1-2.1
		c0.5-0.8,0.9-1.8,0.9-2.8c0-0.9-0.4-1.5-0.8-1.7C193.1,412.2,192.4,412.1,191.6,412.5z"/>
	<path class="st3" d="M194.5,421.6c-0.1-1.1,0.3-2.3,1-3.4c0.7-1.1,1.6-2,2.6-2.4c1.1-0.5,2.1-0.3,2.8,0c0.6,0.4,1.2,1.2,1.3,2.4
		c0.1,1.1-0.3,2.3-1,3.4c-0.7,1.1-1.6,2-2.6,2.4c-1.2,0.5-2.1,0.3-2.8,0C195.2,423.6,194.6,422.8,194.5,421.6z M198.4,416.6
		c-0.8,0.4-1.6,1.2-2.1,2.1s-0.9,1.8-0.9,2.8c0,0.9,0.4,1.5,0.8,1.7s1.1,0.4,1.9,0c0.8-0.4,1.6-1.2,2.1-2.1s0.9-1.8,0.9-2.8
		c0-0.9-0.4-1.5-0.8-1.7C199.9,416.3,199.2,416.2,198.4,416.6z"/>
	<path class="st3" d="M206.2,418c-0.1,0.8-0.4,1.9-0.7,2.7c-0.5,1.4-1.1,2.5-1.6,3.3c-0.5,0.9-1.2,1.8-1.9,2.6
		c-0.2,0.2-1.1,1.2-2.4,2.2l-0.5-0.8c0.7-0.5,1.3-1.1,2-1.8c0.9-0.9,1.5-1.8,2.1-2.7c0.6-1,1.1-2,1.5-3.2c0.3-0.9,0.5-1.7,0.6-2.4
		L206.2,418z"/>
</g>
<g>
	<path class="st3" d="M576.5,383.8c0.3-0.4,0.7-0.7,1.1-0.9c1-0.5,1.9-0.1,2.4,0.2c1.5,0.9,1.6,2.4,0.9,3.5c-0.3,0.6-1,1.2-2.1,1.1
		c0.2,0.3,0.8,1.2,0,2.6c-0.9,1.5-2.6,1.7-3.9,0.9c-0.8-0.5-1.6-1.4-1.4-2.7c0.1-0.4,0.2-0.7,0.3-0.9l0.9,0.5
		c-0.1,0.3-0.2,0.7-0.2,1c0,0.5,0.4,1,0.9,1.3c0.9,0.5,2,0.2,2.5-0.7c0.3-0.5,0.5-1.2,0-1.8c-0.2-0.3-0.5-0.5-0.8-0.7l0.5-0.8
		c0.3,0.2,0.7,0.4,1,0.4c0.3,0,1-0.1,1.4-0.8c0.4-0.7,0.4-1.6-0.5-2.2c-0.3-0.2-0.8-0.4-1.3-0.2c-0.3,0.1-0.6,0.3-0.8,0.6
		L576.5,383.8z"/>
	<path class="st3" d="M584.3,387l-1.3-0.8l1-0.6l1.8,1.1l-4.9,8l-0.9-0.5L584.3,387z"/>
	<path class="st3" d="M584.8,395.7c-0.1-1.1,0.3-2.3,1-3.4c0.7-1.1,1.6-2,2.6-2.4c1.1-0.5,2.1-0.3,2.8,0c0.6,0.4,1.2,1.2,1.3,2.4
		c0.1,1.1-0.3,2.3-1,3.4s-1.6,2-2.6,2.4c-1.1,0.5-2.1,0.3-2.8,0C585.5,397.7,584.9,396.9,584.8,395.7z M588.7,390.7
		c-0.8,0.4-1.6,1.2-2.1,2.1s-0.9,1.8-0.9,2.8c0,0.9,0.4,1.5,0.8,1.7c0.4,0.2,1.1,0.4,1.9,0c0.8-0.4,1.6-1.2,2.1-2.1s0.9-1.8,0.9-2.8
		c0-0.9-0.4-1.5-0.8-1.7C590.2,390.4,589.6,390.3,588.7,390.7z"/>
	<path class="st3" d="M591.6,399.8c-0.1-1.1,0.3-2.3,1-3.4c0.7-1.1,1.6-2,2.6-2.4c1.1-0.5,2.1-0.3,2.8,0c0.6,0.4,1.2,1.2,1.3,2.4
		c0.1,1.1-0.3,2.3-1,3.4c-0.7,1.1-1.6,2-2.6,2.4c-1.1,0.5-2.1,0.3-2.8,0C592.3,401.9,591.7,401.1,591.6,399.8z M595.5,394.9
		c-0.8,0.4-1.6,1.2-2.1,2.1s-0.9,1.8-0.9,2.8c0,0.9,0.4,1.5,0.8,1.7c0.4,0.2,1.1,0.4,1.9,0c0.8-0.4,1.6-1.2,2.1-2.1s0.9-1.8,0.9-2.8
		c0-0.9-0.4-1.5-0.8-1.7C597,394.6,596.4,394.4,595.5,394.9z"/>
	<path class="st3" d="M607.1,399c-0.6,0.4-1.2,1-1.9,1.7c-0.8,0.9-1.5,1.8-2.1,2.8c-0.6,1-1.1,1.9-1.5,3.1c-0.3,0.9-0.5,1.7-0.7,2.6
		l-1-0.1c0.3-1.7,0.8-3,0.9-3.2c0.4-1,0.9-2,1.4-2.9c0.5-0.8,1.2-1.9,2.2-2.9c0.6-0.7,1.5-1.4,2.1-1.9L607.1,399z"/>
	<path class="st3" d="M609.3,408.9l1,0.6l-0.5,0.8l-1-0.6l-0.9,1.5l-0.9-0.5l0.9-1.5l-4.1-2.5l9.2-3.9L609.3,408.9z M608.4,408.3
		l2.1-3.5l-4.7,2L608.4,408.3z"/>
	<path class="st3" d="M616.1,413l1,0.6l-0.5,0.8l-1-0.6l-0.9,1.5l-0.9-0.5l0.9-1.5l-4.1-2.5l9.2-3.9L616.1,413z M615.2,412.5
		l2.1-3.5l-4.7,2L615.2,412.5z"/>
	<path class="st3" d="M618.3,416.1c-0.1-1.1,0.3-2.3,1-3.4c0.7-1.1,1.6-2,2.6-2.4c1.1-0.5,2.1-0.3,2.8,0c0.6,0.4,1.2,1.2,1.3,2.4
		c0.1,1.1-0.3,2.3-1,3.4c-0.7,1.1-1.6,2-2.6,2.4c-1.1,0.5-2.1,0.3-2.8,0C619,418.1,618.3,417.3,618.3,416.1z M622.2,411.1
		c-0.8,0.4-1.6,1.2-2.1,2.1c-0.5,0.8-0.9,1.8-0.9,2.8c0,0.9,0.4,1.5,0.8,1.7c0.4,0.2,1.1,0.4,1.9,0c0.8-0.4,1.6-1.2,2.1-2.1
		c0.5-0.8,0.9-1.8,0.9-2.8c0-0.9-0.4-1.5-0.8-1.7C623.7,410.8,623,410.7,622.2,411.1z"/>
	<path class="st3" d="M625.1,420.2c-0.1-1.1,0.3-2.3,1-3.4c0.7-1.1,1.6-2,2.6-2.4c1.1-0.5,2.1-0.3,2.8,0c0.6,0.4,1.2,1.2,1.3,2.4
		c0.1,1.1-0.3,2.3-1,3.4c-0.7,1.1-1.6,2-2.6,2.4c-1.2,0.5-2.1,0.3-2.8,0C625.8,422.2,625.1,421.4,625.1,420.2z M629,415.2
		c-0.8,0.4-1.6,1.2-2.1,2.1s-0.9,1.8-0.9,2.8c0,0.9,0.4,1.5,0.8,1.7s1.1,0.4,1.9,0c0.8-0.4,1.6-1.2,2.1-2.1s0.9-1.8,0.9-2.8
		c0-0.9-0.4-1.5-0.8-1.7C630.5,414.9,629.8,414.8,629,415.2z"/>
	<path class="st3" d="M636.8,416.6c-0.1,0.8-0.4,1.9-0.7,2.7c-0.5,1.4-1.1,2.5-1.6,3.3c-0.5,0.9-1.2,1.8-1.9,2.6
		c-0.2,0.2-1.1,1.2-2.4,2.2l-0.5-0.8c0.7-0.5,1.3-1.1,2-1.8c0.9-0.9,1.5-1.8,2.1-2.7c0.6-1,1.1-2,1.5-3.2c0.3-0.9,0.5-1.7,0.6-2.4
		L636.8,416.6z"/>
</g>
</svg>
