<?xml version="1.0" encoding="utf-8"?>
<!-- Generator: Adobe Illustrator 23.0.3, SVG Export Plug-In . SVG Version: 6.00 Build 0)  -->
<svg version="1.1" id="Слой_1" xmlns="http://www.w3.org/2000/svg" xmlns:xlink="http://www.w3.org/1999/xlink" x="0px" y="0px"
	 viewBox="0 0 500 600" style="enable-background:new 0 0 500 600;" xml:space="preserve">
<style type="text/css">
	.st0{fill:none;stroke:#4E86B9;stroke-width:0.8366;stroke-miterlimit:10;}
	.st1{fill:none;stroke:#4E86B9;stroke-width:0.8366;stroke-linecap:round;stroke-miterlimit:10;}
	.st2{fill:none;stroke:#4E86B9;stroke-width:0.4;stroke-miterlimit:10;}
	.st3{fill:none;stroke:#4E86B9;stroke-width:0.4;stroke-miterlimit:10;stroke-dasharray:1.1912,3.5735;}
	.st4{fill:none;stroke:#4E86B9;stroke-width:0.4;stroke-miterlimit:10;stroke-dasharray:14.2939,3.5735,1.1912,3.5735;}
	.st5{fill:#4E86B9;}
	.st6{fill:none;stroke:#4E86B9;stroke-width:0.7096;stroke-miterlimit:10;}
</style>
<path class="st0" d="M297.8,181.5c9.3-13.5-40.2-43.3-46.1-27.4"/>
<line class="st0" x1="365.7" y1="154.3" x2="365.7" y2="326.7"/>
<line class="st0" x1="365.9" y1="357.2" x2="365.9" y2="516.7"/>
<line class="st0" x1="272.2" y1="191.7" x2="272.2" y2="481.9"/>
<line class="st0" x1="202.3" y1="99.3" x2="202.3" y2="129.3"/>
<line class="st0" x1="328.3" y1="110.5" x2="297.7" y2="120.6"/>
<line class="st0" x1="297.7" y1="151.6" x2="202.3" y2="128.9"/>
<line class="st0" x1="353.4" y1="212.2" x2="305.7" y2="199.6"/>
<line class="st0" x1="289.8" y1="195.5" x2="272.1" y2="191.2"/>
<line class="st1" x1="353.4" y1="212.2" x2="353.4" y2="300.4"/>
<line class="st0" x1="353.4" y1="335.5" x2="353.4" y2="502.9"/>
<line class="st0" x1="353.4" y1="502.9" x2="272.2" y2="481.9"/>
<line class="st0" x1="288.1" y1="532.8" x2="206.6" y2="512.2"/>
<line class="st0" x1="287" y1="536.9" x2="205.3" y2="515.4"/>
<line class="st0" x1="365.9" y1="516.7" x2="287" y2="536.9"/>
<line class="st0" x1="353.4" y1="502.9" x2="288.1" y2="532.8"/>
<line class="st0" x1="272.2" y1="481.9" x2="206.6" y2="512.2"/>
<line class="st1" x1="353.3" y1="211.8" x2="298" y2="152"/>
<line class="st0" x1="235.7" y1="158.2" x2="202.3" y2="128.9"/>
<line class="st0" x1="252.6" y1="173.6" x2="247.2" y2="168.9"/>
<line class="st0" x1="272.2" y1="191.7" x2="262.3" y2="182.4"/>
<polyline class="st0" points="328.3,110.5 238.7,91 202,99.8 "/>
<line class="st0" x1="255.1" y1="153.3" x2="112" y2="189.9"/>
<line class="st0" x1="258.4" y1="165.8" x2="116.2" y2="204.7"/>
<line class="st0" x1="257.7" y1="167.7" x2="143.7" y2="293.7"/>
<line class="st0" x1="265.4" y1="178.7" x2="153.1" y2="302.7"/>
<line class="st0" x1="296.6" y1="179.7" x2="376.5" y2="349.9"/>
<line class="st0" x1="284.7" y1="184.6" x2="363" y2="356.1"/>
<path class="st0" d="M297.8,181.3c2.2-11.9-31.5-32.3-42.7-28"/>
<path class="st0" d="M258.4,165.8c-5.6,7,19.2,23.4,25.4,19.2"/>
<path class="st0" d="M283.8,185c7.2-6.6-15.8-24.1-25.4-19.2"/>
<path class="st0" d="M262.1,168.4c-2.6,3.9,15.1,16.3,19.2,13.7C283.1,176.6,265,165.5,262.1,168.4z"/>
<line class="st0" x1="297.7" y1="120.6" x2="202" y2="99.8"/>
<path class="st0" d="M284.8,185c0-3,7.9-6.6,12.2-5"/>
<path class="st0" d="M258.9,165.5c2.5-3,0.7-11.9-4.4-12.1"/>
<line class="st0" x1="365.6" y1="154.8" x2="327.5" y2="110.7"/>
<ellipse transform="matrix(0.6157 -0.788 0.788 0.6157 -42.6281 286.0293)" class="st0" cx="271.9" cy="186.7" rx="1.3" ry="3.5"/>
<ellipse transform="matrix(0.9848 -0.1738 0.1738 0.9848 -80.8112 54.5698)" class="st0" cx="271.2" cy="488.7" rx="5.2" ry="1.9"/>
<ellipse transform="matrix(0.9848 -0.1736 0.1736 0.9848 -82.6968 65.9876)" class="st0" cx="335.9" cy="505.7" rx="5.2" ry="1.9"/>
<line class="st0" x1="294.5" y1="206.3" x2="294.5" y2="487.2"/>
<line class="st0" x1="330.7" y1="286" x2="330.7" y2="496.9"/>
<line class="st0" x1="307" y1="234.1" x2="307" y2="484"/>
<line class="st0" x1="307" y1="484" x2="294.5" y2="487.2"/>
<line class="st0" x1="330.7" y1="490.3" x2="307" y2="484"/>
<path class="st0" d="M287,536.9c-0.5-2,0.5-4,0.9-4"/>
<path class="st0" d="M205.3,515.4c0-1.4,0.6-2.6,1.3-3.2"/>
<line class="st0" x1="330.7" y1="206.9" x2="330.7" y2="252.3"/>
<line class="st0" x1="307" y1="201.8" x2="307" y2="200.2"/>
<line class="st0" x1="297.7" y1="120.6" x2="297.7" y2="152"/>
<ellipse class="st0" cx="209.1" cy="125.1" rx="2.5" ry="3.2"/>
<ellipse class="st0" cx="290.8" cy="143.7" rx="2.5" ry="3.2"/>
<polygon class="st0" points="306.2,129 303.8,130.1 303.8,128.1 302.6,128.6 305.1,122.3 307.3,126.3 306.2,126.9 "/>
<ellipse class="st0" cx="305.4" cy="136" rx="1.8" ry="3.4"/>
<ellipse transform="matrix(0.9848 -0.1736 0.1736 0.9848 -85.8339 60.1584)" class="st0" cx="301" cy="520.8" rx="5.2" ry="1.9"/>
<line class="st2" x1="287" y1="536.9" x2="242.6" y2="548.1"/>
<line class="st2" x1="205.9" y1="515.6" x2="164.3" y2="526.2"/>
<line class="st2" x1="287" y1="536.9" x2="335.9" y2="549.9"/>
<line class="st2" x1="365.9" y1="516.9" x2="411.8" y2="528.9"/>
<line class="st2" x1="406" y1="527.4" x2="327.4" y2="547.6"/>
<line class="st2" x1="170.7" y1="524.7" x2="253.1" y2="545.4"/>
<g>
	<g>
		<line class="st2" x1="243.7" y1="525.1" x2="236.1" y2="527.2"/>
		<line class="st3" x1="231.9" y1="528.2" x2="228.6" y2="529"/>
		<line class="st4" x1="226.5" y1="529.6" x2="99" y2="562.6"/>
		<line class="st2" x1="97" y1="563.2" x2="89.3" y2="565.1"/>
	</g>
</g>
<line class="st2" x1="98.3" y1="194.2" x2="98.3" y2="562.3"/>
<line class="st2" x1="143.9" y1="294.3" x2="376.5" y2="349.9"/>
<g id="XMLID_5_">
	<g>
		<path class="st5" d="M98.3,194.2l2,16.6c0,0-2-2.2-3.9,0L98.3,194.2z"/>
	</g>
</g>
<g id="XMLID_7_">
	<g>
		<path class="st5" d="M98.3,562.4l-2-16.6c0,0,2,2.2,3.9,0L98.3,562.4z"/>
	</g>
</g>
<g id="XMLID_11_">
	<g>
		<path class="st5" d="M371.2,348.7l-16.6-2.1c0,0,2.6-1.4,0.9-3.8L371.2,348.7z"/>
	</g>
</g>
<g id="XMLID_12_">
	<g>
		<path class="st5" d="M406,527.4l-15.5,6.2c0,0,1.7-2.5-1.1-3.8L406,527.4z"/>
	</g>
</g>
<g id="XMLID_14_">
	<g>
		<path class="st5" d="M327.6,547.6l15.5-6.2c0,0-1.7,2.5,1.1,3.8L327.6,547.6z"/>
	</g>
</g>
<g id="XMLID_3_">
	<g>
		<path class="st5" d="M253.1,545.4l-16.6-2.4c0,0,2.7-1.3,1.1-3.8L253.1,545.4z"/>
	</g>
</g>
<g id="XMLID_16_">
	<g>
		<path class="st5" d="M170.7,524.7l16.6,2.4c0,0-2.7,1.3-1.1,3.8L170.7,524.7z"/>
	</g>
</g>
<ellipse transform="matrix(0.9848 -0.1737 0.1737 0.9848 -83.7811 48.9604)" class="st0" cx="237.8" cy="503.1" rx="5.2" ry="1.9"/>
<line class="st2" x1="113.3" y1="96.2" x2="113.3" y2="190.1"/>
<line class="st2" x1="238.4" y1="110.6" x2="113.3" y2="141.2"/>
<g id="XMLID_1_">
	<g>
		<path class="st5" d="M113.1,141.5l15.5-6.2c0,0-1.7,2.5,1.1,3.8L113.1,141.5z"/>
	</g>
</g>
<g id="XMLID_2_">
	<g>
		<path class="st5" d="M244.2,109.2l-15.5,6.2c0,0,1.7-2.5-1.1-3.8L244.2,109.2z"/>
	</g>
</g>
<line class="st2" x1="413.8" y1="89.1" x2="324.1" y2="111.9"/>
<line class="st2" x1="415.6" y1="504" x2="365.9" y2="516.7"/>
<line class="st2" x1="404.7" y1="91.3" x2="404.7" y2="506.9"/>
<g id="XMLID_6_">
	<g>
		<path class="st5" d="M404.7,91.4l2,16.6c0,0-2-2.2-3.9,0L404.7,91.4z"/>
	</g>
</g>
<g id="XMLID_4_">
	<g>
		<path class="st5" d="M404.7,507l-2-16.6c0,0,2,2.2,3.9,0L404.7,507z"/>
	</g>
</g>
<line class="st2" x1="366.4" y1="38.1" x2="366.4" y2="160.9"/>
<line class="st2" x1="362.1" y1="46.7" x2="118.5" y2="104.6"/>
<g id="XMLID_8_">
	<g>
		<path class="st5" d="M113.1,105.9l15.5-6.2c0,0-1.7,2.5,1.1,3.8L113.1,105.9z"/>
	</g>
</g>
<g id="XMLID_9_">
	<g>
		<path class="st5" d="M366.4,45.5l-15.5,6.2c0,0,1.7-2.5-1.1-3.8L366.4,45.5z"/>
	</g>
</g>
<line class="st2" x1="112" y1="189.9" x2="87.3" y2="196.2"/>
<ellipse transform="matrix(0.953 -0.3031 0.3031 0.953 -54.4183 43.94)" class="st0" cx="114.4" cy="197.3" rx="4.3" ry="7.7"/>
<ellipse transform="matrix(0.7071 -0.7071 0.7071 0.7071 -167.2694 192.3208)" class="st6" cx="148.5" cy="298.1" rx="3.5" ry="6.5"/>
<g id="XMLID_10_">
	<g>
		<path class="st5" d="M144.3,294.3l16.6,2.1c0,0-2.6,1.4-0.9,3.8L144.3,294.3z"/>
	</g>
</g>
<ellipse transform="matrix(0.9314 -0.3641 0.3641 0.9314 -103.1685 158.842)" class="st0" cx="369.7" cy="353.1" rx="7.5" ry="3.4"/>
<g>
	<path class="st5" d="M392.5,320.3v1.6l-1-0.6v-2.1h9.4v1H392.5z"/>
	<path class="st5" d="M399.7,315.3c-0.9,0.6-2.1,0.9-3.5,0.9c-1.3,0-2.6-0.3-3.5-0.9c-1-0.7-1.4-1.7-1.4-2.4s0.4-1.7,1.4-2.4
		c0.9-0.6,2.1-0.9,3.5-0.9c1.3,0,2.6,0.3,3.5,0.9c1,0.7,1.4,1.7,1.4,2.4S400.7,314.6,399.7,315.3z M393.3,314.5
		c0.8,0.5,1.9,0.7,2.9,0.7s2.1-0.2,2.9-0.7c0.8-0.5,1-1.1,1-1.6s-0.3-1.1-1-1.6c-0.8-0.5-1.9-0.7-2.9-0.7s-2.1,0.2-2.9,0.7
		c-0.8,0.5-1,1.1-1,1.6S392.5,314,393.3,314.5z"/>
	<path class="st5" d="M400.9,308.2l-4-3.4c-0.3-0.2-1-0.9-1.4-1.1c-0.6-0.4-1.1-0.5-1.4-0.5c-1.1,0-1.8,0.8-1.8,1.9
		c0,0.7,0.3,1.2,0.8,1.6c0.3,0.2,0.6,0.3,1.1,0.3v1c-0.9,0-1.5-0.3-2-0.7c-0.5-0.4-1-1.1-1-2.2c0-1.7,1.2-2.9,2.8-2.9
		c0.6,0,1.2,0.2,2,0.7c0.6,0.4,1.1,0.9,1.6,1.3l2.2,2v-4h1V308.2z"/>
	<path class="st5" d="M391.9,295.8l3,2.2c-0.1-0.3-0.1-0.5-0.1-0.8c0-1.8,1.4-3.1,3.1-3.1c1.9,0,3.2,1.4,3.2,3.2
		c0,2.2-1.7,3.3-3.2,3.3c-0.4,0-1.2-0.1-2.2-0.8l-4.5-3.2L391.9,295.8z M397.9,295.1c-1.3,0-2.2,0.9-2.2,2.2c0,1.3,0.9,2.2,2.2,2.2
		c1.3,0,2.2-0.9,2.2-2.2C400.1,296,399.1,295.1,397.9,295.1z"/>
</g>
<g>
	<path class="st5" d="M92.8,356.7l-3-2.2c0.1,0.3,0.1,0.5,0.1,0.8c0,1.8-1.4,3.1-3.1,3.1c-1.9,0-3.2-1.4-3.2-3.2
		c0-2.2,1.7-3.3,3.2-3.3c0.4,0,1.2,0.1,2.2,0.8l4.4,3.2L92.8,356.7z M86.8,357.3c1.3,0,2.2-0.9,2.2-2.2c0-1.3-0.9-2.2-2.2-2.2
		c-1.3,0-2.2,0.9-2.2,2.2C84.5,356.4,85.5,357.3,86.8,357.3z"/>
	<path class="st5" d="M93.2,350.9l-4-3.4c-0.3-0.2-1-0.9-1.4-1.1c-0.6-0.4-1.1-0.5-1.4-0.5c-1.1,0-1.8,0.8-1.8,1.9
		c0,0.7,0.3,1.2,0.8,1.6c0.3,0.2,0.6,0.3,1.1,0.3v1c-0.9,0-1.5-0.3-2-0.7c-0.5-0.4-1-1.1-1-2.2c0-1.7,1.2-2.9,2.8-2.9
		c0.6,0,1.2,0.2,2,0.7c0.6,0.4,1.1,0.9,1.6,1.3l2.2,2v-4h1V350.9z"/>
	<path class="st5" d="M90.6,337.3c1.5,0,2.8,1,2.8,2.9S92,343,90.6,343c-1,0-1.9-0.5-2.3-1.4c-0.4,0.7-1.2,1.1-2.1,1.1
		c-1.3,0-2.6-0.9-2.6-2.6s1.3-2.6,2.6-2.6c0.9,0,1.6,0.4,2.1,1.1C88.7,337.7,89.5,337.3,90.6,337.3z M86.2,338.5
		c-1,0-1.7,0.7-1.7,1.6c0,0.9,0.6,1.6,1.7,1.6c0.9,0,1.6-0.7,1.6-1.6C87.8,339.2,87.1,338.5,86.2,338.5z M90.5,338.3
		c-1.1,0-1.8,0.8-1.8,1.8c0,1.1,0.7,1.8,1.8,1.8c1.1,0,1.8-0.7,1.8-1.8S91.6,338.3,90.5,338.3z"/>
</g>
<g>
	<path class="st5" d="M206.9,530.5l4.3-3.1c0.3-0.2,1.1-0.8,1.4-1.1c0.6-0.5,0.8-0.9,0.8-1.3c0.2-1-0.3-2-1.4-2.2
		c-0.6-0.2-1.3,0-1.7,0.4c-0.2,0.2-0.4,0.6-0.6,1l-1-0.2c0.3-0.9,0.7-1.4,1.1-1.7c0.5-0.3,1.3-0.7,2.4-0.4c1.6,0.4,2.6,1.8,2.2,3.4
		c-0.1,0.6-0.5,1.1-1.2,1.8c-0.5,0.4-1.1,0.9-1.6,1.2l-2.4,1.7l3.9,0.9l-0.2,0.9L206.9,530.5z"/>
	<path class="st5" d="M220.8,531.2c-0.3,1.4-1.6,2.5-3.4,2s-2.5-1.9-2.2-3.4c0.2-1,0.9-1.7,1.9-1.9c-0.6-0.6-0.8-1.4-0.6-2.3
		c0.3-1.3,1.5-2.3,3.1-1.9c1.7,0.4,2.2,1.8,1.9,3.1c-0.2,0.9-0.8,1.5-1.6,1.7C220.8,529.2,221.1,530.2,220.8,531.2z M219.8,530.9
		c0.2-1-0.3-1.9-1.4-2.2c-1-0.2-2,0.3-2.2,1.3c-0.2,1,0.3,2,1.4,2.2C218.7,532.5,219.6,531.9,219.8,530.9z M220.6,526.6
		c0.2-1-0.3-1.8-1.2-2c-0.8-0.2-1.7,0.2-2,1.3c-0.2,0.9,0.3,1.7,1.2,2C219.6,528,220.4,527.5,220.6,526.6z"/>
	<path class="st5" d="M223.2,533.1c-0.4-1-0.4-2.3-0.1-3.6c0.3-1.3,0.9-2.4,1.7-3.2c0.9-0.9,1.9-1,2.7-0.8c0.7,0.2,1.6,0.7,2,1.9
		c0.4,1,0.4,2.3,0.1,3.6s-0.9,2.4-1.7,3.2c-0.9,0.9-1.9,1-2.7,0.8C224.5,534.9,223.6,534.3,223.2,533.1z M225.4,527.1
		c-0.7,0.7-1.1,1.7-1.3,2.6c-0.2,1-0.3,2,0,3c0.3,0.9,0.9,1.3,1.3,1.4c0.5,0.1,1.2,0,1.8-0.6c0.7-0.7,1.1-1.7,1.3-2.6
		c0.2-1,0.3-2.1,0-3c-0.3-0.9-0.9-1.3-1.3-1.4S226.1,526.5,225.4,527.1z"/>
</g>
<g>
	<path class="st5" d="M354.2,537.1l2.3-4.7c0.2-0.3,0.6-1.2,0.7-1.6c0.3-0.7,0.2-1.2,0.1-1.5c-0.3-1-1.2-1.6-2.3-1.3
		c-0.6,0.2-1.1,0.6-1.3,1.2c-0.1,0.3-0.1,0.7,0,1.2l-1,0.3c-0.2-0.9-0.1-1.6,0.2-2.1c0.3-0.5,0.8-1.2,1.9-1.5c1.6-0.4,3.1,0.4,3.5,2
		c0.2,0.6,0.1,1.2-0.2,2.1c-0.2,0.6-0.6,1.3-0.9,1.8l-1.3,2.6l3.9-1l0.2,0.9L354.2,537.1z"/>
	<path class="st5" d="M363.8,525.2l-1.3,3.5c0.2-0.1,0.5-0.3,0.8-0.3c1.8-0.5,3.3,0.5,3.7,2.2c0.5,1.8-0.5,3.5-2.3,3.9
		c-2.1,0.6-3.6-0.9-4-2.3c-0.1-0.3-0.2-1.2,0.2-2.3l2-5.1L363.8,525.2z M366,530.9c-0.3-1.2-1.4-1.9-2.7-1.5
		c-1.2,0.3-1.9,1.5-1.6,2.7c0.3,1.2,1.4,2,2.7,1.6C365.7,533.3,366.3,532.1,366,530.9z"/>
	<path class="st5" d="M369.8,531.8c-0.8-0.7-1.4-1.8-1.8-3.1c-0.3-1.3-0.3-2.6,0-3.6c0.4-1.2,1.3-1.8,2-2c0.7-0.2,1.7-0.1,2.7,0.8
		c0.8,0.7,1.4,1.8,1.8,3.1c0.3,1.3,0.3,2.6,0,3.6c-0.4,1.2-1.3,1.8-2,2C371.7,532.7,370.7,532.6,369.8,531.8z M368.9,525.5
		c-0.3,0.9-0.2,2,0,3c0.2,1,0.7,2,1.4,2.6c0.7,0.6,1.4,0.7,1.8,0.6c0.5-0.1,1-0.5,1.3-1.4c0.3-0.9,0.2-2,0-3c-0.2-1-0.7-2-1.4-2.6
		c-0.7-0.6-1.4-0.7-1.8-0.6C369.8,524.2,369.2,524.6,368.9,525.5z"/>
</g>
<g>
	<path class="st5" d="M204.7,71.8l-5,1.3l-0.2-0.9l6.7-1.7l-3.7,10.9l-0.9-0.3L204.7,71.8z"/>
	<path class="st5" d="M207.1,72.6c-0.1-0.5-0.1-1,0.1-1.5c0.4-1.1,1.3-1.5,1.8-1.6c1.7-0.4,2.9,0.5,3.2,1.8c0.2,0.7,0.2,1.6-0.7,2.3
		c0.3,0,1.5,0.3,1.9,1.9c0.4,1.7-0.5,3.1-2.1,3.5c-0.9,0.2-2.2,0.1-3-0.9c-0.2-0.3-0.4-0.6-0.5-0.9l1-0.3c0.1,0.3,0.3,0.6,0.6,0.8
		c0.4,0.4,1,0.5,1.6,0.3c1-0.3,1.6-1.3,1.3-2.3c-0.1-0.5-0.5-1.2-1.3-1.3c-0.3-0.1-0.7,0-1.1,0.1l-0.2-0.9c0.4-0.1,0.7-0.2,1-0.5
		s0.6-0.7,0.4-1.6c-0.2-0.8-0.8-1.4-2-1.2c-0.4,0.1-0.8,0.3-1,0.8c-0.1,0.3-0.2,0.7-0.1,1L207.1,72.6z"/>
	<path class="st5" d="M218.5,67.6l-1.3,3.5c0.2-0.1,0.5-0.3,0.8-0.3c1.8-0.5,3.3,0.5,3.7,2.2c0.5,1.8-0.5,3.5-2.3,3.9
		c-2.1,0.6-3.6-0.9-4-2.3c-0.1-0.3-0.2-1.2,0.2-2.3l2-5.1L218.5,67.6z M220.7,73.2c-0.3-1.2-1.4-1.9-2.7-1.5
		c-1.2,0.3-1.9,1.5-1.6,2.7c0.3,1.2,1.4,2,2.7,1.6C220.4,75.6,221,74.4,220.7,73.2z"/>
	<path class="st5" d="M227,64.3c-0.1,0.7-0.1,1.6-0.1,2.5c0.1,1.3,0.2,2.3,0.6,3.5c0.3,1.1,0.6,2.1,1.2,3.3c0.4,0.8,0.9,1.6,1.4,2.3
		l-0.8,0.6c-1-1.4-1.6-2.7-1.7-2.9c-0.5-1-0.8-2.1-1.1-3.1c-0.2-0.9-0.5-2.2-0.5-3.7c0-0.9,0-2,0.1-2.8L227,64.3z"/>
	<path class="st5" d="M236.4,69.6c0.4,1.4-0.2,2.9-2.1,3.4c-1.9,0.5-3.1-0.5-3.5-2c-0.3-1,0-1.9,0.8-2.6c-0.8-0.2-1.4-0.9-1.6-1.7
		c-0.3-1.3,0.2-2.8,1.9-3.2s2.8,0.6,3.2,1.9c0.2,0.8,0,1.7-0.6,2.3C235.5,67.9,236.2,68.6,236.4,69.6z M234.1,65.7
		c-0.3-1-1.1-1.4-2-1.2c-0.8,0.2-1.4,1-1.1,2c0.2,0.9,1.1,1.4,2,1.2S234.3,66.6,234.1,65.7z M235.4,69.8c-0.3-1-1.2-1.5-2.2-1.3
		c-1,0.3-1.6,1.2-1.3,2.2c0.3,1,1.2,1.6,2.2,1.3C235.1,71.8,235.7,70.9,235.4,69.8z"/>
	<path class="st5" d="M237.6,64.7c-0.1-0.5-0.1-1,0.1-1.4c0.4-1.1,1.3-1.5,1.8-1.6c1.7-0.4,2.9,0.5,3.2,1.8c0.2,0.7,0.2,1.6-0.7,2.3
		c0.3,0,1.5,0.3,1.9,1.9c0.4,1.7-0.5,3.1-2.1,3.5c-0.9,0.2-2.2,0.1-3-0.9c-0.2-0.3-0.4-0.6-0.5-0.9l1-0.3c0.1,0.3,0.3,0.6,0.6,0.8
		c0.4,0.4,1,0.5,1.6,0.3c1-0.3,1.6-1.3,1.3-2.3c-0.1-0.5-0.5-1.2-1.3-1.3c-0.3-0.1-0.7,0-1.1,0.1l-0.2-0.9c0.4-0.1,0.7-0.2,1-0.5
		c0.2-0.2,0.6-0.7,0.4-1.6c-0.2-0.8-0.8-1.4-2-1.2c-0.4,0.1-0.8,0.3-1,0.8c-0.1,0.3-0.2,0.7-0.1,1L237.6,64.7z"/>
	<path class="st5" d="M249,59.7l-1.3,3.5c0.2-0.1,0.5-0.3,0.8-0.3c1.8-0.5,3.3,0.5,3.7,2.2c0.5,1.8-0.5,3.5-2.3,3.9
		c-2.1,0.6-3.6-0.9-4-2.3c-0.1-0.3-0.2-1.2,0.2-2.3l2-5.1L249,59.7z M251.2,65.3c-0.3-1.2-1.4-1.9-2.7-1.5c-1.2,0.3-1.9,1.5-1.6,2.7
		c0.3,1.2,1.4,2,2.7,1.6C250.9,67.7,251.5,66.5,251.2,65.3z"/>
	<path class="st5" d="M252.8,57.2c0.5,0.7,1.1,1.6,1.5,2.4c0.7,1.3,1.1,2.5,1.3,3.5c0.3,1,0.5,2.2,0.5,3.2c0,0.2,0.1,1.6-0.1,3.3
		l-1-0.2c0.1-0.9,0.1-1.8,0.1-2.7c-0.1-1.3-0.2-2.3-0.5-3.4c-0.3-1.2-0.7-2.2-1.2-3.4c-0.4-0.9-0.9-1.6-1.3-2.2L252.8,57.2z"/>
</g>
<g>
	<path class="st5" d="M145.5,126.3l1.1-0.3l0.2,0.9l-1.1,0.3l0.4,1.7l-1,0.2l-0.4-1.7l-4.7,1.1l3.9-9.3L145.5,126.3z M144.5,126.5
		l-0.9-4.1l-2,4.7L144.5,126.5z"/>
	<path class="st5" d="M152.6,118.8l-2.9,0.7l-0.1,2.1c0.2-0.1,0.3-0.1,0.6-0.2c1.8-0.4,3.4,0.7,3.8,2.5c0.5,2.1-0.8,3.7-2.6,4.1
		c-0.7,0.2-1.5,0.1-2.2-0.2c-0.3-0.2-0.7-0.4-1-0.8l0.7-0.8c0.2,0.3,0.5,0.4,0.8,0.6c0.5,0.2,1,0.4,1.6,0.2c1.3-0.3,2-1.6,1.7-2.9
		c-0.3-1.3-1.5-2-2.8-1.7c-0.3,0.1-0.9,0.3-1.6,1l0.3-4.7l3.6-0.8L152.6,118.8z"/>
	<path class="st5" d="M160.8,122.8l1.1-0.3l0.2,0.9l-1.1,0.3l0.4,1.7l-1,0.2l-0.4-1.7l-4.7,1.1l3.9-9.3L160.8,122.8z M159.8,123
		l-0.9-4.1l-2,4.7L159.8,123z"/>
	<path class="st5" d="M167.4,113.7c-0.1,0.7-0.2,1.6-0.1,2.5c0,1.3,0.2,2.4,0.5,3.5c0.3,1.1,0.6,2.1,1.1,3.3
		c0.4,0.9,0.8,1.6,1.3,2.4l-0.8,0.6c-1-1.4-1.5-2.7-1.6-2.9c-0.4-1-0.8-2.1-1-3.1c-0.2-0.9-0.4-2.2-0.4-3.7c0-0.9,0.1-2,0.2-2.8
		L167.4,113.7z"/>
	<path class="st5" d="M175.2,113.5l-2.9,0.7l-0.1,2.1c0.2-0.1,0.3-0.1,0.6-0.2c1.8-0.4,3.4,0.7,3.8,2.5c0.5,2.1-0.8,3.7-2.6,4.1
		c-0.7,0.2-1.5,0.1-2.2-0.2c-0.3-0.2-0.7-0.4-1-0.8l0.7-0.8c0.2,0.3,0.5,0.4,0.8,0.6c0.5,0.2,1,0.4,1.6,0.2c1.3-0.3,2-1.6,1.7-2.9
		c-0.3-1.3-1.5-2-2.8-1.7c-0.3,0.1-0.9,0.3-1.6,1l0.3-4.7l3.6-0.8L175.2,113.5z"/>
	<path class="st5" d="M183,111.7l-2.9,0.7l-0.1,2.1c0.2-0.1,0.3-0.1,0.6-0.2c1.8-0.4,3.4,0.7,3.8,2.5c0.5,2.1-0.8,3.7-2.6,4.1
		c-0.7,0.2-1.5,0.1-2.2-0.2c-0.3-0.2-0.7-0.4-1-0.8l0.7-0.8c0.2,0.3,0.5,0.4,0.8,0.6c0.5,0.2,1,0.4,1.6,0.2c1.3-0.3,2-1.6,1.7-2.9
		c-0.3-1.3-1.5-2-2.8-1.7c-0.3,0.1-0.9,0.3-1.6,1l0.3-4.7l3.6-0.8L183,111.7z"/>
	<path class="st5" d="M191.2,115.7l1.1-0.3l0.2,0.9l-1.1,0.3l0.4,1.7l-1,0.2l-0.4-1.7l-4.7,1.1l3.9-9.3L191.2,115.7z M190.2,115.9
		l-0.9-4.1l-2,4.7L190.2,115.9z"/>
	<path class="st5" d="M193,107.4c0.4,0.7,1,1.6,1.4,2.5c0.6,1.3,1,2.6,1.2,3.5c0.2,1,0.4,2.2,0.5,3.3c0,0.2,0.1,1.6-0.2,3.3l-1-0.2
		c0.1-0.9,0.2-1.7,0.1-2.7c0-1.3-0.2-2.3-0.4-3.4c-0.3-1.2-0.6-2.2-1.1-3.4c-0.4-0.9-0.9-1.6-1.3-2.2L193,107.4z"/>
</g>
<g>
	<path class="st5" d="M220.9,295.8l-5-1.2l0.2-0.9l6.7,1.6l-8.4,7.9l-0.7-0.7L220.9,295.8z"/>
	<path class="st5" d="M222.6,297.6c0.1-0.5,0.4-0.9,0.7-1.2c0.8-0.8,1.8-0.7,2.4-0.6c1.7,0.4,2.3,1.8,2,3.1
		c-0.2,0.7-0.6,1.5-1.7,1.8c0.3,0.2,1.2,0.9,0.8,2.5c-0.4,1.7-1.9,2.5-3.5,2.1c-0.9-0.2-2-0.9-2.2-2.2c-0.1-0.4,0-0.7,0-1l1,0.2
		c0,0.3,0,0.7,0.1,1c0.2,0.5,0.7,0.9,1.3,1c1,0.2,2-0.4,2.2-1.4c0.1-0.5,0.1-1.3-0.5-1.8c-0.3-0.2-0.6-0.4-1-0.4l0.2-0.9
		c0.4,0.1,0.8,0.1,1.1,0.1c0.3-0.1,0.9-0.4,1.1-1.2c0.2-0.8-0.1-1.7-1.2-1.9c-0.4-0.1-0.8-0.1-1.3,0.2c-0.2,0.2-0.5,0.5-0.6,0.9
		L222.6,297.6z"/>
	<path class="st5" d="M229.7,306.2l2.8-2.4c-0.3,0-0.6,0-0.8-0.1c-1.8-0.4-2.7-2-2.2-3.7c0.4-1.8,2.1-2.8,3.9-2.4
		c2.2,0.5,2.8,2.4,2.4,3.9c-0.1,0.3-0.3,1.1-1.3,1.9l-4.2,3.6L229.7,306.2z M230.5,300.2c-0.3,1.2,0.4,2.3,1.7,2.6
		c1.3,0.3,2.3-0.4,2.6-1.6c0.3-1.2-0.3-2.4-1.6-2.7C231.9,298.3,230.8,299,230.5,300.2z"/>
	<path class="st5" d="M243.7,299.6c-0.4,0.6-0.9,1.3-1.3,2.2c-0.5,1.1-0.9,2.2-1.2,3.4c-0.3,1.1-0.4,2.1-0.5,3.4
		c0,0.9,0,1.8,0.1,2.7l-1,0.2c-0.2-1.7-0.2-3.1-0.2-3.3c0.1-1.1,0.2-2.2,0.5-3.3c0.2-0.9,0.6-2.2,1.2-3.5c0.4-0.8,1-1.8,1.4-2.4
		L243.7,299.6z"/>
	<path class="st5" d="M249.6,308.7c-0.3,1.4-1.6,2.5-3.4,2c-1.9-0.4-2.5-1.9-2.2-3.4c0.2-1,0.9-1.7,1.9-1.9
		c-0.6-0.6-0.8-1.4-0.6-2.3c0.3-1.3,1.5-2.3,3.1-1.9s2.2,1.8,1.9,3.1c-0.2,0.9-0.8,1.5-1.6,1.7C249.6,306.7,249.8,307.7,249.6,308.7
		z M248.6,308.4c0.2-1-0.3-1.9-1.4-2.2c-1-0.3-2,0.3-2.2,1.3c-0.3,1,0.3,2,1.4,2.2C247.4,310,248.3,309.5,248.6,308.4z M249.4,304.2
		c0.2-1-0.3-1.8-1.2-2c-0.8-0.2-1.7,0.2-2,1.2c-0.2,0.9,0.3,1.7,1.2,2C248.3,305.6,249.2,305.1,249.4,304.2z"/>
	<path class="st5" d="M257.3,304.5l-5-1.2l0.2-0.9l6.7,1.6l-8.4,7.9l-0.7-0.7L257.3,304.5z"/>
	<path class="st5" d="M258.4,312.2c-0.4-1-0.4-2.3-0.1-3.6c0.3-1.3,0.9-2.4,1.7-3.1c0.9-0.8,2-1,2.7-0.8c0.7,0.2,1.6,0.8,2,1.9
		c0.4,1,0.4,2.3,0.1,3.6c-0.3,1.3-0.9,2.4-1.7,3.1c-0.9,0.8-2,1-2.7,0.8C259.7,313.9,258.8,313.4,258.4,312.2z M260.6,306.2
		c-0.7,0.7-1.1,1.7-1.3,2.6c-0.2,1-0.3,2,0,3c0.3,0.9,0.9,1.3,1.3,1.4c0.5,0.1,1.2,0,1.8-0.6c0.7-0.7,1.1-1.7,1.3-2.6s0.3-2,0-3
		c-0.3-0.9-0.9-1.3-1.3-1.4S261.3,305.6,260.6,306.2z"/>
	<path class="st5" d="M268.5,305.1c0.1,0.8,0.2,1.9,0.2,2.8c0,1.4-0.3,2.7-0.5,3.7c-0.2,1-0.6,2.1-1.1,3.1c-0.1,0.2-0.7,1.5-1.7,2.9
		l-0.8-0.6c0.5-0.7,0.9-1.5,1.3-2.3c0.6-1.2,0.9-2.1,1.1-3.3c0.3-1.2,0.4-2.3,0.5-3.5c0-1,0-1.8-0.1-2.5L268.5,305.1z"/>
</g>
</svg>
