<?xml version="1.0" encoding="utf-8"?>
<!-- Generator: Adobe Illustrator 23.0.3, SVG Export Plug-In . SVG Version: 6.00 Build 0)  -->
<svg version="1.1" id="Слой_1" xmlns="http://www.w3.org/2000/svg" xmlns:xlink="http://www.w3.org/1999/xlink" x="0px" y="0px"
	 viewBox="0 0 500 600" style="enable-background:new 0 0 500 600;" xml:space="preserve">
<style type="text/css">
	.st0{fill:none;stroke:#4E86B9;stroke-width:0.5;}
	
		.st1{fill:none;stroke:#4E86B9;stroke-width:0.5;stroke-linecap:round;stroke-linejoin:round;stroke-miterlimit:10;stroke-dasharray:12.8023,1.0669,1.0669,1.0669;stroke-dashoffset:3;}
	.st2{fill:none;stroke:#4E86B9;stroke-width:0.75;stroke-linecap:round;stroke-linejoin:round;}
	.st3{fill:#4E86B9;}
	.st4{fill:none;stroke:#4E86B9;stroke-width:0.3722;}
</style>
<path class="st0" d="M74.5,521.1l188,43.5 M111,512.9l65.1,13 M264.1,525.7l69.6-17.7 M170.9,366.6l174.9-38.2 M124.8,493.9
	l-0.3-403.2"/>
<path class="st0" d="M409.3,99.3L286.9,87.6 M416.7,541.6V85"/>
<line class="st1" x1="261.2" y1="510.3" x2="416.4" y2="536.6"/>
<path class="st0" d="M416.9,537.4l-165.6,32.9 M332.9,508.3l24.5-7.4 M301.1,503.3l38,6.4 M221.7,519.3l48.7,8.3 M221.7,519.3
	l-49.4,9.8 M137.5,505.2l-82.3,16.4 M354.8,314.1v18.2 M162,351v27.8 M255.6,106.7L115.1,83 M153.7,508l-38.5-6.5 M282.5,123.7v30.4
	 M282.5,123.7V81.8"/>
<path class="st2" d="M265.7,185.7l5-4.3 M253.6,201l-11.9,10.2 M275.4,182.3l-8,6.9 M271.1,182.3l-5,4.3 M146.5,175.6l36.2-32.7
	 M161.8,226l47.5-40.8 M243.9,161.8l68.8-13.6 M212.8,182.5L212.8,182.5l-2.2,1.1l-2.3,0.7l-1.7,0.3l-1.7,0.1l-1.8-0.1l-1.8-0.2
	l-1.8-0.4l-1.8-0.6l-0.2-0.1 M210.8,181.7l-0.8,0.5l-0.9,0.4l-1.6,0.6l-0.9,0.2 M234.7,120.6L234.7,120.6l-2.2-0.9l-2.2-0.7
	l-2.5-0.5l-2.7-0.3h-2.7l-2.8,0.2l-2.5,0.5l-2.5,0.7l-1.8,0.7 M215.6,121.7L215.6,121.7l2.7,0.2l2.9,0.5l2.8,0.8 M310.8,152.3
	L310.8,152.3l0.1-0.1 M311.2,108.1L311.2,108.1l0.2,0.1l0.1,0.1 M305.4,157l4.2-3.6 M310.8,152.3l1.5-1.6l1.4-1.7l1.1-1.9l0.2-0.4
	 M313.4,108.8l-0.1-0.1l-0.5-0.2 M217.2,197.8V197 M264.9,184.4v-0.1v-0.1 M264.7,193.9L264.7,193.9l-0.1-0.1 M265.4,193.9
	L265.4,193.9 M256.8,198.7L256.8,198.7L256.8,198.7L256.8,198.7 M264.9,184.6l-0.1-0.1v-0.1v-0.1v-0.1v-0.1l0.1-0.1l0.1-0.1l0.1-0.1
	 M252.7,193.4L252.7,193.4L252.7,193.4l0.2-0.1l0.1-0.1h0.1 M252.9,199.8l0.4,0.6l0.4,0.4l0.3,0.3l0.2,0.1l0,0 M256.6,200.1h-0.1
	l-0.2-0.2v-0.1 M262.5,190.7L262.5,190.7L262.5,190.7L262.5,190.7h-0.1l0,0h-0.1l-0.1,0.1 M266.4,194h-0.1l-0.2-0.1l0,0
	 M266.7,191.3l0.5,0.6l0.4,0.4l0.3,0.3l0.2,0.1l0.1-0.1 M261.9,189.8L261.9,189.8L261.9,189.8l-0.1,0.1h-0.1 M263.5,191.8l-0.2-0.2
	l-0.4-0.5 M261.5,189.3L261.5,189.3L261.5,189.3l0.1,0.1h0.1h0.1h0.1h0.1h0.1 M258.9,189.2L258.9,189.2L258.9,189.2L258.9,189.2
	l-0.1-0.1V189 M253.7,192.3L253.7,192.3L253.7,192.3L253.7,192.3l-0.1-0.1v-0.1 M264.9,184.4v-0.2 M218.2,198.1L218.2,198.1l0.3,0.2
	 M237.4,198.1L237.4,198.1L237.4,198.1v0.2 M242.3,192.5L242.3,192.5L242.3,192.5L242.3,192.5L242.3,192.5L242.3,192.5L242.3,192.5
	L242.3,192.5 M278.3,170.5l0.2-0.4l0.2-0.7l0.1-0.7V168l-0.1-0.5l-0.2-0.5l-0.4-0.4l-0.4-0.3l-0.6-0.3l-0.7-0.2 M264.1,184.4
	L264.1,184.4 M224.3,199l-0.4-0.6 M276.2,165.4h0.1l0.7,0.2l0.6,0.2l0.5,0.3l0.4,0.4l0.3,0.4l0.2,0.5l0.1,0.6l-0.1,0.5 M275.6,162.8
	L275.6,162.8l0.1,0.5v0.3 M246.1,186L246.1,186L246.1,186L246.1,186L246.1,186 M273.1,169.5L273.1,169.5 M275.6,163.3v-0.1v-0.1V163
	l0,0l0,0 M271.9,169l0.3,0.1l0.7,0.4 M273.1,169.5L273.1,169.5 M273.6,169.7l-0.5-0.8 M237.4,198.3l0.3-0.5 M236.9,198.8l0.3-0.5
	 M242.3,192.5l-1.1,1.5l-1.3,1.8 M242.3,192.5h-0.4l-0.4-0.1h-0.1 M251.5,182.6L251.5,182.6L251.5,182.6L251.5,182.6L251.5,182.6
	l0.2-0.1l0.8-0.3l0.5-0.2 M246.1,185.9L246.1,185.9L246.1,185.9L246.1,185.9L246.1,185.9L246.1,185.9L246.1,185.9l-0.2,0.1l-0.8,0.7
	l-0.5,0.4 M227.3,198.8L227.3,198.8L227.3,198.8v-0.1 M222.8,202.5l-0.9-0.9l-3.4-3.3 M237,198.2l-0.2,0.2l-0.9,0.5l-1,0.4l-1,0.2
	h-1.1l-1-0.2l-1-0.4l-0.9-0.5l-0.8-0.6l-0.3-0.3 M269.7,172.8L269.7,172.8L269.7,172.8h-0.1h-0.1 M263.3,181.6L263.3,181.6
	L263.3,181.6l-0.1-0.1v-0.1v-0.1v-0.1V181 M264.7,181.1l0.3-0.1l0.7-0.5l0.7-0.7l0.5-0.8l0.4-0.9l0.3-1l0.1-1.1v-1l-0.2-1l-0.1-0.4
	 M277.6,170.3l-0.7-2.7l-1.4-4.7 M241.6,192l0.1,0.1l0.3,0.1l0.5,0.1 M246.1,186l-0.1,0.1 M242.3,192.6l0.2-0.1l0.1-0.1v-0.1v-0.1
	l0,0l0,0 M238.4,197.9L238.4,197.9l1.3-0.3l1.3-0.4l1.4-0.4l1.4-0.5l1.5-0.6l1.5-0.6l1.5-0.7 M264.1,184.4l1.1-0.9l1-0.9l0.9-0.9
	l0.6-0.6 M234.3,468.9h-0.1H234 M233.9,468.8L233.9,468.8L233.9,468.8L233.9,468.8 M232.1,475.4l-0.7-0.3l-0.7-0.3l-0.8-0.2
	l-0.8-0.2l-0.8-0.2l-0.8-0.1l-0.8-0.1h-0.7H225l-0.6,0.1l-0.5,0.1l-0.4,0.2l-0.3,0.2l-0.1,0.2v0.3l0.1,0.3l0.2,0.3l0.4,0.3l0.5,0.3
	l0.5,0.3l0.6,0.3l0.7,0.3l0.8,0.2l0.8,0.2l0.8,0.2l0.8,0.1l0.8,0.1l0.8,0.1h0.7l0.6-0.1l0.5-0.1l0.5-0.1l0.3-0.2l0.2-0.2l0.1-0.2
	V477l-0.2-0.3l-0.3-0.3l-0.4-0.3l-0.5-0.3L232.1,475.4 M184,485l-0.7-0.3l-0.7-0.3l-0.8-0.2l-0.8-0.2l-0.8-0.2l-0.8-0.1l-0.8-0.1
	h-0.7H177l-0.6,0.1l-0.5,0.1l-0.4,0.2l-0.3,0.2l-0.1,0.2v0.3l0.1,0.3l0.2,0.3l0.3,0.3l0.4,0.3l0.6,0.3l0.6,0.3l0.7,0.2l0.8,0.2
	l0.8,0.2l0.8,0.1l0.8,0.1l0.8,0.1l0.8,0.1h0.7l0.6-0.1l0.5-0.1l0.4-0.1l0.4-0.1l0.2-0.2l0.1-0.2v-0.2l-0.2-0.3l-0.3-0.3l-0.4-0.3
	l-0.5-0.3L184,485 M231,506.3l-0.7-0.3l-0.7-0.3l-0.8-0.2l-0.8-0.2L227,505l-0.8-0.1l-0.8-0.1h-0.7h-0.7l-0.6,0.1l-0.5,0.1l-0.4,0.2
	l-0.3,0.2l-0.2,0.2v0.3l0.1,0.3l0.2,0.3l0.3,0.3l0.4,0.3l0.5,0.3l0.6,0.3l0.7,0.3l0.8,0.2l0.8,0.2l0.8,0.2l0.8,0.1l0.8,0.1l0.8,0.1
	h0.7l0.6-0.1l0.5-0.1l0.5-0.1l0.3-0.2l0.2-0.2l0.1-0.2v-0.3l-0.2-0.3l-0.3-0.3l-0.4-0.3l-0.5-0.3L231,506.3 M279.2,496.6l-0.6-0.3
	l-0.7-0.3l-0.8-0.2l-0.8-0.2l-0.8-0.2l-0.8-0.1l-0.8-0.1h-0.8h-0.6l-0.6,0.1l-0.5,0.1l-0.4,0.2l-0.3,0.2l-0.1,0.2v0.3l0.1,0.3
	l0.2,0.3l0.3,0.3l0.5,0.3l0.6,0.3l0.6,0.3l0.7,0.3l0.8,0.3l0.8,0.2l0.8,0.2l0.8,0.1l0.8,0.1l0.7,0.1h0.7l0.6-0.1l0.6-0.1l0.4-0.1
	l0.3-0.2l0.2-0.2l0.1-0.3l-0.1-0.3l-0.1-0.3l-0.3-0.3l-0.4-0.3l-0.5-0.3L279.2,496.6 M297.7,497.6l-63.7-28.6 M234,468.9L154.1,485
	 M298.7,498.3l-0.4-0.4l-0.4-0.3l-0.1-0.1 M220.7,518.5l80-16 M153.7,485.2l65.5,29.8 M153.2,507.1l67.5,11.4 M219.2,515l1.5,3.4
	 M219.2,515l79.5-16.7 M298.7,498.3l2.1,4.2 M234.2,468.7L234.2,468.7L234.2,468.7l-0.2,0.1h-0.1 M153.3,507.1H153 M137,504.3
	L137,504.3L137,504.3l0.2,0.1h0.2h0.2 M146.5,175.6L146.5,175.6l0.1,0.1h0.2h0.2 M147.3,175.8h-0.2 M153,507.1l-15.5-2.6
	 M153.8,484.4l-0.7,22.7 M161.3,223.9l-7.5,260.5 M161.3,223.9l-13.9-48.1 M216.9,197.5l0.3,0.3l0.5,0.3l0.3,0.1 M278.8,163.2V163
	l-0.1-0.6l-0.1-0.5 M279.2,163.8v-0.2V163l-0.1-0.5l-0.2-0.5l-0.4-0.4l-0.5-0.3l-0.6-0.3l-0.7-0.2l-0.8-0.1l-0.9-0.1h-1l-1.1,0.1
	l-1.3,0.1l-1.3,0.2l-1.5,0.3l-1.5,0.4l-1.6,0.4l-1.6,0.5l-1.7,0.6l-1.7,0.6l-1.8,0.7l-1.8,0.7l-1.9,0.8l-1.9,0.8l-1.9,0.9l-1.9,0.9
	l-1.9,1l-2,1l-1.9,1l-1.9,1.1l-1.9,1.1l-1.9,1.1l-1.8,1.1l-1.8,1.1l-1.7,1.1l-1.7,1.3l-1.6,1.1l-1.5,1.1l-1.5,1.1l-1.4,1.1l-1.3,1.1
	L223,187l-1,1l-0.9,1l-0.9,1l-0.7,0.9l-0.6,0.9l-0.5,0.9l-0.4,0.8l-0.3,0.8l-0.7,1l-0.1,0.6v0.6l0.1,0.5l0.3,0.5l0.4,0.4l0.5,0.3
	l0.3,0.1 M241.9,211.1L241.9,211.1l-0.2,0.1 M231.5,213.3l10-2.1 M147.3,175.7l14.6,50.3 M312,149l-24.1,23.1 M186.3,168.2
	L186.3,168.2 M186.8,153.1L186.8,153.1 M186.2,167.7L186.2,167.7 M186.6,153.7L186.6,153.7 M186.8,168.5L186.8,168.5 M201.5,171.1
	L201.5,171.1 M198.6,159.8L198.6,159.8 M199.1,152L199.1,152 M198.6,159.8l0.1-2.6 M200.6,160.2l-2.1-0.3 M187.8,154.6L187.8,154.6
	 M199.2,149.6L199.2,149.6 M199.3,147.1L199.3,147.1 M199.6,152.7L199.6,152.7 M201.3,157l-13.5-2.3 M187.8,154.6l-0.4,12.4
	 M187.4,167l13.5,2.3 M198.5,159.8l0.1-2.6 M198.6,157.2l2.1,0.3 M200.7,157.6l-0.1,2.6 M200.6,160.2l-2.1-0.3 M200.9,169.4
	l0.4-12.4 M200.9,169.3L200.9,169.3 M201.3,157L201.3,157 M181.9,145.3l0.4-1.1l0.6-1.7l0.7-1.6l0.8-1.5l0.9-1.4l1-1.4 M213.4,183.4
	l-1.4,0.7l-1.5,0.6l-1.5,0.5l-1.5,0.3l-1.5,0.2l-1.5,0.1l-1.6-0.1l-1.6-0.2l-1.6-0.4l-1.6-0.4l-1.5-0.6l-1.5-0.7l-1.5-0.8l-1.4-0.9
	l-1.4-1l-1.4-1.1l0,0 M204.9,160.5L204.9,160.5 M204.3,159.7L204.3,159.7 M203,155.1L203,155.1 M199.7,150.3L199.7,150.3
	 M204.9,160.5h-0.1l-0.2-0.1l-0.1-0.2l-0.1-0.2v-0.2 M205,160.5h-0.1 M199.1,152v-0.2l0.1-0.2l0.1-0.1l0.1-0.1 M199.6,152.7h-0.1
	l-0.2-0.1l-0.1-0.2l-0.1-0.2V152 M203,155.1l-0.1-0.1l-0.4-0.5l-0.4-0.4l-0.5-0.4l-0.5-0.3l-0.3-0.1l-1.1-0.4 M204.3,159.7v-0.2
	v-0.7l-0.1-0.7l-0.1-0.6l-0.2-0.6l-0.1-0.3l-0.7-1.3 M201.6,171.1h-0.1 M186.8,153.1l0.1-0.1l0.1-0.1 M186.6,153.7v-0.2l0.1-0.2
	l0.1-0.1 M186.2,167.7l0.4-14 M186.3,168.2l-0.1-0.1l-0.1-0.3v-0.2 M186.8,168.5h-0.1l-0.2-0.1l-0.1-0.1 M201.5,171.1l-14.8-2.5
	 M201.3,157l-13.5-2.3 M200.9,169.3l0.4-12.4 M206.7,160.8L206.7,160.8 M199.7,147.8L199.7,147.8L199.7,147.8 M206.2,160L206.2,160
	 M204.4,153.7L204.4,153.7 M206.7,160.8h-0.1l-0.1-0.1l-0.1-0.2l-0.1-0.2V160 M206.8,160.8h-0.1 M199.2,149.6v-0.2l0.1-0.2l0.1-0.1
	l0.2-0.1 M199.7,150.3l-0.1-0.1l-0.2-0.1l-0.1-0.2l-0.1-0.2v-0.2 M204.4,153.7l-0.1-0.1l-0.4-0.5l-0.8-0.9l-0.5-0.4l-0.5-0.3
	l-0.5-0.3l-0.9-0.4l-0.9-0.2 M206.2,160v-0.2v-0.7v-0.7l-0.1-0.7l-0.1-0.7l-0.2-0.6l-0.5-1.5l-0.7-1.3 M206.6,183.6l-0.7,0.2
	l-1.7,0.3l-1.7,0.1l-1.7-0.1l-1.7-0.2l-1.6-0.4 M208.7,161.1L208.7,161.1 M208.3,160.4L208.3,160.4 M205.9,152.1L205.9,152.1
	 M208.7,161.1h-0.1l-0.1-0.1l-0.1-0.2l-0.1-0.2v-0.2 M208.8,161.1h-0.1 M199.3,147.1v-0.2l0.1-0.2l0.1-0.1l0.1-0.1 M199.7,147.8
	l-0.1-0.1l-0.1-0.1l-0.1-0.2l-0.1-0.2V147 M205.9,152.1l-0.1-0.1l-0.4-0.5l-0.4-0.5l-0.2-0.2l-0.4-0.4l-0.2-0.2l-0.4-0.4l-0.2-0.2
	l-0.5-0.3l-0.2-0.2l-0.6-0.3l-0.5-0.2l-0.3-0.1l-0.5-0.2l-0.2-0.1l-0.7-0.1 M208.3,160.4v-0.2v-0.7v-0.7v-0.3l-0.1-0.7l-0.1-0.7
	l-0.1-0.3l-0.2-0.7l-0.1-0.3l-0.2-0.6l-0.1-0.3l-0.3-0.6l-0.1-0.3l-0.3-0.6l-0.6-1 M207.3,160.2v0.2l-0.1,0.2l-0.1,0.1l-0.2,0.1
	h-0.1 M206.7,160.8h-0.1l-0.2-0.1l-0.1-0.2l-0.1-0.2V160 M199.6,150.3l-0.1-0.1l-0.1-0.1l-0.1-0.2l-0.1-0.2v-0.2 M199.1,149.6v-0.2
	l0.1-0.2l0.1-0.1l0.1-0.1h0.1 M199.7,149.1h0.1l0.5,0.1l0.2,0.1l0.5,0.2l0.3,0.1l0.5,0.3l0.3,0.1l0.2,0.1l0.5,0.3l0.2,0.2l0.2,0.2
	l0.4,0.4l0.2,0.2l0.4,0.5l0.2,0.2l0.2,0.3l0.4,0.5l0.2,0.3l0.1,0.3l0.3,0.6l0.2,0.3l0.2,0.6l0.1,0.3l0.1,0.3l0.2,0.6l0.1,0.3
	l0.1,0.3l0.1,0.7l0.1,0.3v0.7v0.3v0.7 M202.1,170.4v0.2l-0.1,0.2l-0.1,0.1 M201.9,170.9l-0.1,0.1l-0.2,0.1h-0.1 M201.5,171.1
	l-14.7-2.5 M186.7,168.5h-0.1l-0.2-0.1l-0.1-0.1 M186.3,168.2l-0.1-0.1l-0.1-0.3v-0.2 M186.1,167.7l0.5-14 M186.6,153.7v-0.2
	l0.1-0.2l0.1-0.1 M186.8,153.1l0.1-0.1l0.2-0.1h0.1 M187.2,152.9l14.7,2.5 M202,155.5h0.1l0.2,0.1l0.1,0.1 M202.5,155.9l0.1,0.1
	l0.1,0.3v0.2 M202.6,156.4l-0.4,14 M209.2,160.6v0.2l-0.1,0.2l-0.1,0.1l-0.2,0.1h-0.1 M208.7,161.1l-0.1-0.1l-0.2-0.1l-0.1-0.2
	l-0.1-0.2v-0.2 M208.2,160.4v-0.2v-0.7v-0.7v-0.3l-0.1-0.7l-0.1-0.7l-0.1-0.3l-0.1-0.6l-0.1-0.3l-0.2-0.6l-0.1-0.3l-0.3-0.6
	l-0.1-0.3l-0.3-0.6l-0.3-0.5l-0.3-0.5 M205.9,152.1l-0.1-0.1l-0.4-0.5l-0.4-0.5l-0.2-0.2l-0.4-0.5l-0.2-0.2l-0.4-0.4l-0.2-0.2
	l-0.5-0.3l-0.2-0.2l-0.5-0.3l-0.5-0.3l-0.2-0.1l-0.5-0.2l-0.3-0.1l-0.7-0.1 M199.7,147.8L199.7,147.8 M199.7,147.8h-0.1l-0.2-0.1
	l-0.1-0.2l-0.1-0.2v-0.2 M199.2,147.1v-0.2l0.1-0.2l0.1-0.1l0.2-0.1h0.1 M199.7,146.6h0.1l0.5,0.1l0.5,0.2l0.5,0.2l0.5,0.2l0.5,0.3
	l0.5,0.3l0.2,0.2l0.5,0.3l0.5,0.4l0.2,0.2l0.4,0.4l0.4,0.4l0.4,0.5l0.2,0.3l0.4,0.5l0.3,0.5l0.2,0.3l0.3,0.6l0.3,0.6l0.3,0.6
	l0.1,0.3l0.2,0.6l0.2,0.6l0.2,0.6l0.1,0.3l0.1,0.7l0.1,0.7l0.1,0.7v0.3v0.7v0.9 M205.3,159.8v0.2l-0.1,0.2l-0.1,0.1l-0.2,0.1h-0.1
	 M199.6,152.7h-0.1l-0.2-0.1l-0.1-0.2l-0.1-0.2V152 M199.1,152.1v-0.2l0.1-0.2l0.1-0.1l0.2-0.1h0.2 M199.6,151.5h0.1l0.5,0.1
	l0.5,0.2l0.9,0.5l0.4,0.3l0.4,0.4l0.4,0.4l0.3,0.4l0.6,0.9l0.3,0.5l0.2,0.5l0.2,0.5l0.1,0.6l0.2,0.6l0.1,0.6l0.1,1.5 M185.8,170.2
	l0.7,1.3l0.8,1.1l0.9,1l1,1l1,0.9l1.1,0.8l1.1,0.6l1.1,0.5l1.3,0.4l1.3,0.3l1.3,0.2h1.3l1.1-0.1l1.1-0.2l1.1-0.4l1.1-0.5l1-0.6
	l1-0.7l0.9-0.8l0.8-0.9l0.8-1l0.7-1.1l0.6-1.3l0.5-1.4l0.4-1.4l0.3-1.5l0.2-1.5l0.1-1.5V162l-0.1-1.6l-0.2-1.6l-0.3-1.5l-0.4-1.5
	l-0.5-1.5l-0.6-1.5l-0.6-1.4l-0.7-1.3l-0.8-1.3l-0.9-1.1l-0.9-1l-1-0.9l-1-0.8l-1.1-0.7l-1.1-0.6l-1.3-0.5l-1.1-0.3l-1.3-0.2
	l-1.3-0.1h-1.1l-1.3,0.2l-1.1,0.3l-1.1,0.4l-1.1,0.5l-1,0.7l-1,0.8l-0.9,0.9l-0.8,1l-0.7,1l-0.6,1.1l-0.6,1.3l-0.5,1.4l-0.4,1.4
	l-0.3,1.5l-0.2,1.5l-0.1,1.5v1.6l0.1,1.6l0.2,1.6l0.3,1.6l0.4,1.5l0.5,1.5l0.6,1.4L185.8,170.2 M200.3,178.4l0.9-0.2l1.1-0.3
	l1.1-0.5l1-0.6l1-0.7l0.9-0.8l0.8-0.9l0.8-1l0.7-1.1l0.6-1.3l0.5-1.4l0.4-1.4l0.4-1.5l0.2-1.5l0.1-1.5v-1.6l-0.1-1.6l-0.2-1.6
	l-0.3-1.6l-0.4-1.5l-0.5-1.5l-0.5-1.5l-0.6-1.4l-0.7-1.3l-0.8-1.3L206,148l-0.9-1l-1-0.9l-1.1-0.8l-1.1-0.7l-1.1-0.6l-1.1-0.5
	l-1.3-0.3l-1.3-0.2l-1.3-0.1h-1.3l-1.3,0.2l-0.2,0.1 M212.8,182.5L212.8,182.5 M210.8,181.7L210.8,181.7 M213.1,116.7l-26.6,20.1
	 M186.5,136.7L186.5,136.7 M212.9,120.3l-0.6,0.2l-2.4,1.1l-2,0.9 M202.2,125.2L202.2,125.2l1.9-1l2-0.8l2.1-0.7l2.4-0.5l2.5-0.3
	l2.6-0.1 M224.2,123.2l2.7,0.7l2.9,0.4 M229.7,124.2L229.7,124.2L229.7,124.2 M234.7,120.6L234.7,120.6 M234.7,120.6L234.7,120.6
	 M244.6,120.6l-1.7-2.1 M242.8,122l0.8-0.4l0.5-0.2 M245.3,120.9l-2.5,0.8l-1.4,0.2 M241.4,121.9L241.4,121.9h-0.5h-1.8l-1.9-0.3
	 M237.4,121.6L237.4,121.6l-1.3-0.4l-1.3-0.5 M229.7,124.2L229.7,124.2h2.1l2.1-0.1l2.2-0.3l1.9-0.4l1.9-0.4 M229.7,124.2
	L229.7,124.2 M240,122.9L240,122.9l0.5-0.1l1.9-0.6l0.4-0.1 M249.7,129.3l0.8,2.6 M249.6,129.3v0.1l-0.1,0.2 M249.4,129.6l-0.9,1.5
	l-0.7,1.6l-0.8,2.4l-0.3,1.4l-0.2,1.4l-0.1,1.7 M246.2,139.5l-0.1,2.2l-0.2,2.2l-0.8,4.2l-1.3,4.1l-1.7,3.9l-1.8,3.2l-2.1,2.9
	l-2.4,2.7l-1.5,1.5l-1.6,1.4 M232.8,167.6l-10,7.5l-9.9,7.4 M213.4,183.4L213.4,183.4 M240.2,163.7l-26.8,19.8 M242.9,118.6
	l-1.4-1.3l-1.5-1.1l-1.6-1l-1.6-0.8l-1.7-0.7l-1.7-0.6l-1.7-0.4l-1.8-0.3l-1.8-0.2h-1.8l-1.8,0.1l-1.8,0.2l-1.8,0.4l-1.7,0.5
	l-1.7,0.7l-1.7,0.8l-1.6,0.9l-1.6,1 M248.1,124.5l-1.4-2.2l-0.8-1.1l-1-1l-0.9-0.7l-1-0.6l0,0 M250.5,131.8V131l-0.1-0.8l-0.2-1.3
	l-0.5-1.1l-0.6-1.4l-1-2 M240.2,163.7l1.5-1.1l1.4-1.3l1.4-1.4l1.3-1.5l1.1-1.6l1-1.7l0.9-1.8l0.8-1.8l0.6-1.9l0.5-1.9l0.4-2l0.3-2
	l0.2-2v-2v-2l-0.2-2l-0.3-2l-0.4-2 M223.9,112.1l0.5-0.1l1.7-0.3l1.7-0.1h1.7l1.7,0.1l1.7,0.2l1.7,0.4l1.7,0.5l1.6,0.6l1.6,0.7
	l1.5,0.8l1.5,1l1.4,1.1l1.4,1.3l1.3,1.4l1.1,1.4l1,1.5l0.9,1.6l0.8,1.7l0.7,1.7l0.7,1.8l0.5,1.8l0.5,1.9l0.3,1.9l0.2,1.9l0.1,2v2
	l-0.1,1.9l-0.2,1.9l-0.3,1.9l-0.5,1.9l-0.6,1.8l-0.7,1.8l-0.7,1.7l-0.9,1.7l-0.9,1.6l-1,1.5l-1.1,1.5l-1.3,1.4l-1.4,1.3l-4.1,2.1
	 M249.7,128.9l-1.7,0.4l-0.9,0.2 M247.1,129.4l-1.5,0.7l-1.1,0.7 M244.6,130.9L244.6,130.9l-0.4,0.3l-1.8,1.5l-1.4,1.6l-1.3,1.8
	l-0.8,1.5l-0.6,1.6 M221.7,145.2l0.3-2.2l0.2-1.1l0.2-1.1 M222.4,140.7l1.9,0.4l1,0.2l0.9,0.2 M226.3,141.6l-0.4,2.2l-0.2,1.1
	l-0.2,1.1 M225.6,146l-1.9-0.4l-0.9-0.2l-0.9-0.2 M223.6,134.3l0.4-2.2l0.2-1.1l0.2-1.1 M224.5,129.8l2,0.4l1,0.2l1,0.2
	 M228.5,130.8L228,133l-0.2,1.1l-0.2,1.1 M227.5,135.2l-2-0.4l-1-0.2l-1-0.2 M218.9,133.2l0.4-2.2l0.2-1.1l0.2-1.1 M219.7,128.8
	l1.9,0.4l1,0.2l1,0.2 M223.6,129.6l-0.4,2.2l-0.2,1.1l-0.2,1.1 M222.7,134.1l-1.9-0.4l-0.9-0.2l-0.9-0.2 M229.4,130.9l2,0.4l2,0.4
	 M233.3,131.7L233.3,131.7h0.1h0.1 M233.5,131.8L233.5,131.8v0.1v0.1 M233.5,132l-0.5,2.1l-0.5,2.1 M232.6,136.3l-2-0.4l-1-0.2
	l-1-0.2 M228.4,135.4l0.5-2.2l0.2-1.1l0.2-1.1 M223.4,135.3l1.9,0.4l1,0.2l1,0.2 M227.3,136.2l-0.4,2.2l-0.2,1.1l-0.2,1.1
	 M226.5,140.7l-1.9-0.4l-1-0.2l-0.9-0.2 M222.6,139.8l0.4-2.2l0.2-1.1l0.2-1.1 M230.3,147.2l-1.9-0.4l-1-0.2l-1-0.2 M226.4,146.2
	l0.4-2.2l0.2-1.1l0.2-1.1 M227.1,141.9l2,0.4l1,0.2l1,0.2 M231.1,142.7l-0.4,2.2l-0.2,1.1l-0.2,1.1 M231.3,141.8l-2-0.4l-1-0.2
	l-1-0.2 M227.3,140.9l0.4-2.2l0.2-1.1l0.2-1.1 M228.3,136.4l2,0.4l1,0.2l1,0.2 M232.2,137.3l-0.5,2.2l-0.2,1.1l-0.2,1.1
	 M217.9,138.6l0.3-2.2l0.2-1.1l0.2-1.1 M218.7,134.2l1.9,0.4l1,0.2l1,0.2 M222.5,135.1l-0.4,2.2l-0.2,1.1l-0.2,1.1 M221.8,139.6
	l-1.9-0.4l-0.9-0.2l-0.9-0.2 M238.3,139L238.3,139 M238.3,139L238.3,139 M238.3,139L238.3,139l-0.3,0.8l-0.3,0.8l-0.5,2.2l-0.4,2.3
	 M236.8,145.1l-0.2,1.6l-0.6,3.2l-0.4,1.6l-0.8,2.7l-1,2.7l-1.3,2.6L231,162l-1.3,2l-1.4,1.9l-1.5,1.8l-1.6,1.6 M225.2,169.3
	l-0.9,0.8l-0.3,0.3 M224,170.4l-6.6,5.5l-6.6,5.6 M295.5,167.1L295.5,167.1 M291,169l0.3-0.1l1.5-0.4l1.4-0.6l1.4-0.7 M309.6,153.5
	L309.6,153.5l0.1-0.1 M313.1,149.2l-17.7,18 M312.3,108.3L312.3,108.3l0.3,0.1l0.2,0.2 M309.6,153.5l0.9-0.8l0.3-0.3 M318,123.2
	L318,123.2L318,123.2 M318,123.2L318,123.2 M318.1,122.9L318.1,122.9l-0.1,0.2 M312.8,108.5l-0.7-0.1l-0.5-0.1 M311.6,108.3
	L311.6,108.3l-0.1-0.1l-0.1-0.1l-0.3-0.3l-0.2-0.3 M310.7,107.5l-1.6-2.1 M312.8,108.6L312.8,108.6L312.8,108.6 M311.3,149.6
	l1.8-0.4 M316.8,118.7l0.6,1.9l0.5,2l0.4,2l0.3,2l0.2,2l0.1,2v2l-0.1,1.9l-0.2,1.9l-0.2,1.8l-0.4,1.8l-0.4,1.7l-0.5,1.6l-0.6,1.5
	l-0.7,1.4l-0.8,1.3l-0.8,1.1l-0.9,1 M313,111.6l1.1,2.4l0.6,1.4l0.6,1.4l0.6,1l0.7,0.9l0,0 M309.2,105.4l0.2,0.6l0.3,0.6l0.6,0.9
	l0.7,0.9l0.8,1.1l1.1,1.9 M293.2,98.4l1.3-0.1h1.4l1.4,0.1l1.4,0.3l1.4,0.4l1.4,0.5l1.4,0.6l1.4,0.8l1.4,0.9l1.4,1l1.3,1.1l1.3,1.3
	 M310.4,109.7l-0.6-0.9l-1-1.5l-1.1-1.4l-1.1-1.3l-1.3-1.1l-1.3-1l-1.3-0.9l-1.3-0.8l-1.4-0.7l-1.4-0.5l-1.4-0.4l-1.4-0.3l-1.4-0.2
	l-1.3-0.1l-1.3,0.1l-1.3,0.2l-1.3,0.3l-1.1,0.4l-1.1,0.5l-0.8,0.5 M311.3,149.6l0.9-1l0.8-1.1l0.8-1.3l0.7-1.4l0.6-1.4l0.5-1.5
	l0.4-1.6l0.4-1.7l0.3-1.7l0.2-1.8l0.1-1.8v-1.9l-0.1-1.9l-0.1-1.9l-0.2-1.9l-0.3-1.9l-0.4-1.9l-0.5-1.9l-0.6-1.8l-0.7-1.8l-0.7-1.8
	l-0.4-0.9 M218.7,134.2l1.9,0.4l1,0.2l1,0.2 M217.9,138.6l0.3-2.2l0.2-1.1l0.2-1.1 M221.8,139.6l-1.9-0.4l-0.9-0.2l-0.9-0.2
	 M222.5,135.1l-0.4,2.2l-0.2,1.1l-0.2,1.1 M219.7,128.8l1.9,0.4l1,0.2l1,0.2 M218.9,133.2l0.4-2.2l0.2-1.1l0.2-1.1 M222.7,134.1
	l-1.9-0.4l-0.9-0.2l-0.9-0.2 M223.6,129.6l-0.4,2.2l-0.2,1.1l-0.2,1.1 M222.4,140.7l1.9,0.4l1,0.2l0.9,0.2 M221.7,145.2l0.3-2.2
	l0.2-1.1l0.2-1.1 M225.6,146l-1.9-0.4l-0.9-0.2l-0.9-0.2 M226.3,141.6l-0.4,2.2l-0.2,1.1l-0.2,1.1 M223.4,135.3l1.9,0.4l1,0.2l1,0.2
	 M222.6,139.8l0.4-2.2l0.2-1.1l0.2-1.1 M226.5,140.7l-1.9-0.4l-1-0.2l-0.9-0.2 M227.3,136.2l-0.4,2.2l-0.2,1.1l-0.2,1.1
	 M224.5,129.8l2,0.4l1,0.2l1,0.2 M223.6,134.3l0.4-2.2l0.2-1.1l0.2-1.1 M227.5,135.2l-2-0.4l-1-0.2l-1-0.2 M228.5,130.8L228,133
	l-0.2,1.1l-0.2,1.1 M226.4,146.2l0.4-2.2l0.2-1.1l0.2-1.1 M230.3,147.2l-1.9-0.4l-1-0.2l-1-0.2 M227.1,141.9l2,0.4l1,0.2l1,0.2
	 M231.1,142.7l-0.4,2.2l-0.2,1.1l-0.2,1.1 M227.3,140.9l0.4-2.2l0.2-1.1l0.2-1.1 M231.3,141.8l-2-0.4l-1-0.2l-1-0.2 M228.3,136.4
	l2,0.4l1,0.2l1,0.2 M232.2,137.3l-0.5,2.2l-0.2,1.1l-0.2,1.1 M233.5,131.8L233,134l-0.2,1.1l-0.3,1.1 M229.4,130.9l2,0.4l1,0.2
	l1,0.2 M228.4,135.4l0.5-2.2l0.2-1.1l0.2-1.1 M232.6,136.3l-2-0.4l-1-0.2l-1-0.2 M311.3,110.9l-62.3,12.3 M312.3,112.6l-0.9-1.6
	 M249.1,123.4l-0.1,0.1 M250,124.9l-0.9-1.6 M312.3,112.6L312.3,112.6 M312.3,112.6L250,124.9 M250,124.9l-0.1,0.1 M311.3,110.9
	l-0.5-0.8l-0.6-0.7l-0.7-0.5l-0.7-0.3 M247.2,120.9l61.7-12.2 M249.1,123.4l-0.6-0.8l-0.5-0.5 M249.1,123.4l62.3-12.3 M250,124.9
	l-0.1,0.1 M313.3,116.6l-0.1-1l-0.2-1l-0.3-1l-0.4-0.9 M250,124.9l62.3-12.3 M250.6,126.6l-0.2-0.6L250,125 M251.6,128.8l61.9-12.2
	 M267.6,189.5L267.6,189.5 M264.7,193.9L264.7,193.9h-0.1 M265.4,194L265.4,194 M255.2,196.8L255.2,196.8L255.2,196.8L255.2,196.8
	L255.2,196.8L255.2,196.8L255.2,196.8L255.2,196.8L255.2,196.8 M264.5,193.9l-0.4-0.4l-0.4-0.5 M264.6,193.8L264.6,193.8
	L264.6,193.8L264.6,193.8L264.6,193.8L264.6,193.8L264.6,193.8L264.6,193.8L264.6,193.8 M265.3,193.9L265.3,193.9l-0.1-0.1h-0.1
	h-0.1h-0.1h-0.1h-0.1h-0.1 M264.6,193.8L264.6,193.8l-0.3-0.3l-0.3-0.4l-0.1-0.2 M265.3,193.9L265.3,193.9l0.1,0.1h0.1h0.1h0.1h0.1
	h0.1h0.1 M265.3,193.9l-0.4-0.4l-0.5-0.6 M263.7,193L263,192 M263.9,192.9L263.9,192.9L263.9,192.9L263.9,192.9h-0.1l0,0l0,0l0,0
	l0,0 M263.9,185.4v-0.1v-0.1v-0.1V185v-0.1v-0.1l0.1-0.1l0.1-0.1 M263,192l-0.5-0.8 M263.1,191.9L263.1,191.9L263.1,191.9
	L263.1,191.9L263.1,191.9L263.1,191.9L263.1,191.9L263.1,191.9L263.1,191.9 M256.2,199.9l-0.1-0.1l-0.3-0.4l-0.4-0.5l-0.1-0.2
	 M264.3,192.9L264.3,192.9L264.3,192.9h-0.2l0,0H264l0,0h-0.1l0,0 M263.9,192.9l-0.6-0.7l-0.2-0.2 M264.3,192.9L264.3,192.9
	L264.3,192.9h0.2h0.1h0.1l0,0h0.1l0,0 M264.3,192.9l-0.7-0.9l-0.1-0.1 M262.1,190.8l0.2,0.4 M263.1,191.9l-0.2-0.2l-0.4-0.5
	 M263.5,191.8L263.5,191.8L263.5,191.8h-0.1h-0.1h-0.1l0,0h-0.1l0,0 M261.6,189.9l0.5,0.8 M266,193.9l-0.2-0.1l-0.4-0.4l-0.5-0.5
	l-0.1-0.2 M261.1,189l0.1,0.2l0.4,0.7 M252.9,193.2L252.9,193.2 M256,197.7l-0.7-0.9 M256.6,198.4l-0.1-0.1l-0.4-0.5 M252.8,193.5
	l-0.1-0.2 M263.5,191.8L263.5,191.8h0.1h0.1h0.1h0.1h0.1h0.1l0,0 M262.8,191v-0.1 M259.6,188.9L259.6,188.9l0.7-0.2 M260.2,188.7
	l0.1,0.1l0.1,0.1 M258.9,189.2L258.9,189.2 M263.8,185.3v-0.1v-0.1V185v-0.1v-0.1l0.1-0.1l0.1-0.1l0.1-0.1 M264.9,184.6L264.9,184.6
	v-0.2 M263.9,185.4l1.1-0.7 M263.8,185.3L263.8,185.3 M267.6,189.4l0.1,0.3l0.3,0.7l0.2,0.6l0.1,0.5l0.1,0.4v0.2l-0.1,0.1l-0.2-0.1
	l-0.3-0.3l-0.4-0.4l-0.4-0.5 M267.6,189.4L267.6,189.4 M264.8,184.2l1.1,2.3l1.5,2.9 M266.7,191.3L266.7,191.3l0.1-0.1v-0.1l0.1-0.1
	v-0.1v-0.1v-0.1v-0.1 M260.4,183.2L260.4,183.2L260.4,183.2h-0.1l0,0l0,0l0,0l0,0h-0.1 M246.5,191.8L246.5,191.8L246.5,191.8v-0.1
	l0,0l0,0l0,0l0,0l0,0 M253.6,192.2l1.3-0.8l1.3-0.8l1.3-0.7l1.4-0.7 M262.1,189.4l-0.5-0.4l-0.7-0.3l-0.8-0.1l-0.8,0.2l-0.5,0.2
	 M264,191.7l-1.9-2.4 M264.7,192.7L264.7,192.7l-0.7-0.9 M266.7,191.3l-0.2,0.2l-0.2,0.2l-0.2,0.2l-0.2,0.2l-0.2,0.2l-0.2,0.2
	l-0.2,0.2l-0.2,0.2 M260.4,183.2l0.8,1l2.8,3.6l2.7,3.4 M246.5,191.8l0.8,1l2.8,3.6l2.7,3.4 M252.9,199.8l0.3-0.2l0.3-0.1l0.3-0.1
	l0.3-0.1l0.3-0.1l0.3-0.1l0.3-0.2l0.3-0.1 M255.2,198.6L255.2,198.6l-0.7-0.9 M254.4,197.7l-1.8-2.4 M252.6,195.3l-0.3-0.6v-0.7
	l0.3-0.7l0.5-0.6l0.4-0.4 M264.1,184.4L264.1,184.4 M218.2,197.9L218.2,197.9v0.2v0.1 M237.9,198.6l0.2-0.1l1.8-0.6l1.8-0.7l0.2-0.1
	 M248,194.3l-1.4,0.6l-1.5,0.6l-1.5,0.6l-1.5,0.5l-1.4,0.4l-1.4,0.4l-1.3,0.3l0,0 M242.3,192.5L242.3,192.5L242.3,192.5l0.1-0.1l0,0
	l0,0l0,0h0.1l0,0 M265.7,183.2l1.1-0.8l1.6-1.1l0.2-0.2 M267.9,181l-0.6,0.6l-0.9,0.9l-1,0.9l-1.1,0.9 M264.9,183.9l-0.5,0.4
	l-0.3,0.2 M279.1,168.6v0.1l-0.2,0.7l-0.3,0.7l-0.1,0.3 M223.8,198.5L223.8,198.5l0.2,0.5l0.1,0.3 M275.2,162.8h0.1h0.2h0.1
	 M226.4,198.8l-0.1-0.1 M227.3,198.8l-0.2,0.1h-0.2h-0.2l-0.2-0.1l0,0 M273.6,169.2l-0.2-0.2l-0.2-0.2l0,0 M273.9,169.8l-0.1-0.1
	l-0.2-0.2l-0.1-0.1 M227.3,198.8L227.3,198.8v-0.1 M226.7,198.1L226.7,198.1l0.1,0.3l0.1,0.2 M244.7,187.2l-0.1-0.1l-0.1-0.1v-0.1
	v-0.1v-0.1v-0.1v-0.1v-0.1 M236.3,190.9v-0.1l-0.1-0.1v-0.1v-0.1v-0.1v-0.1v-0.1V190 M253,182l-0.1-0.1l-0.1-0.1l-0.1-0.1l-0.1-0.1
	l-0.1-0.1h-0.1h-0.1h-0.1 M259.1,176.8l-0.1-0.1l-0.1-0.1l-0.1-0.1l-0.1-0.1l-0.1-0.1l-0.1-0.1h-0.1h-0.1 M227.4,198.7L227.4,198.7
	 M227.4,198.7L227.4,198.7 M228.5,197.5L228.5,197.5 M224.6,192.4v-0.1v-0.1v-0.1l0.1-0.1v-0.1v-0.1l0.1-0.1v-0.1 M234.3,195.8
	l0.4-0.3l0.3-0.5l0.1-0.3v-0.4l-0.1-0.4l-0.2-0.4l-0.3-0.4l-0.3-0.3l-0.4-0.2l-0.4-0.1l-0.6-0.1l-0.3,0.3l-0.4,0.3l-0.3,0.5
	l-0.1,0.3v0.4l0.1,0.4l0.1,0.4l0.3,0.3l0.3,0.3l0.3,0.2l0.3,0.1l0.7,0.1L234.3,195.8 M228.5,197.5L228.5,197.5 M223.8,192.1V192
	v-0.1v-0.1l0.1-0.1v-0.1v-0.1l0.1-0.1v-0.1 M222,191.4L222,191.4l0.3-0.3l0.1-0.1 M239.9,195.9l-2.1,2.9L237,200 M256.1,182l2.4-0.2
	l4.9-0.3 M246,186.1l-1.1,1.5l-3.4,4.8l-3.1,4.6 M235.2,200.1L235.2,200.1L235.2,200.1 M222.9,200l0.3-0.5l0.3-0.6l0.3-0.6
	 M224,198.1L224,198.1l0.4-0.3h0.4l0.5,0.2l0.6,0.3l0.3,0.3 M226.3,198.7l0.4-0.6 M226.7,198.1l0.5,0.5l0,0l0.1,0.1 M228.5,197.5
	l-0.1,0.1l-0.1,0.2l-0.1,0.1l-0.1,0.2l-0.1,0.1l-0.1,0.2l-0.1,0.1l-0.1,0.1 M228.5,197.5L228.5,197.5 M222.3,191.3L222.3,191.3
	L222.3,191.3h-0.2l-0.1,0.1 M218.4,198.1L218.4,198.1L218.4,198.1l-0.1-0.2v-0.1 M223.4,201.2l-0.2-0.4l-0.2-0.5V200l0,0
	 M223.8,192.1l-0.6-0.4l-0.6-0.3h-0.1h-0.1l0,0l0,0 M228.5,197.5l-2.7-2.7l-3.4-3.4 M228.5,197.5L228.5,197.5 M228.5,197.5
	L228.5,197.5l0.1-0.2l0.1-0.1l0,0l0,0 M269.7,172.7h0.1 M262,174.4l-0.3,0.4l-0.2,0.6v0.3v0.4l0.1,0.4l0.2,0.4l0.3,0.3l0.3,0.2
	l0.3,0.2l0.3,0.1l0.5-0.1l0.4-0.2l0.3-0.4l0.2-0.6V176v-0.4l-0.1-0.4l-0.2-0.4l-0.2-0.3l-0.3-0.3l-0.3-0.2l-0.3-0.1h-0.5L262,174.4
	 M235.9,191v-0.1v-0.1v-0.1v-0.1v-0.1v-0.1v-0.1v-0.1 M225.3,192.5v-0.1v-0.1v-0.1v-0.1V192v-0.1v-0.1v-0.1 M270.1,171.7v0.1
	 M270.2,171.8v0.1v0.2l-0.1,0.2l-0.1,0.2l-0.1,0.1 M269.1,172L269.1,172l0.2,0.2l0.1,0.2v0.1 M269.7,172.8L269.7,172.8L269.7,172.8
	h-0.2 M228.5,197.5l-0.1,0.1l-0.1,0.2l-0.1,0.1l-0.1,0.1l-0.1,0.1l-0.1,0.2l-0.1,0.1l-0.1,0.2 M227.4,198.7l0.8,0.6l0.9,0.5l0.9,0.4
	l1,0.3l1,0.1l1-0.1l0.9-0.2l0.9-0.4l0.1-0.1 M235.2,200l0.4-0.2l0.7-0.6l0.3-0.3 M238.3,196.9L238.3,196.9L238.3,196.9v-0.1l0,0l0,0
	l-0.1-0.1v-0.1l-0.1-0.1 M228.5,197.5L228.5,197.5L228.5,197.5l0.1-0.1h0.1l0,0v-0.1l0,0l0,0 M238.3,196.9l-0.6,0.8l-0.6,0.5
	 M267.6,180L267.6,180L267.6,180 M264.8,167.7h-0.1h-0.1h-0.1h-0.1h-0.1h-0.1h-0.1H264 M259.4,176.4L259.4,176.4l-0.2-0.2l-0.1-0.1
	L259,176l-0.1-0.1h-0.1h-0.1h-0.1 M264.6,168.3l-0.1-0.1l-0.1-0.1l-0.1-0.1l-0.1-0.1h-0.1H264h-0.1h-0.1 M269.4,172.8L269.4,172.8
	 M269.4,172.8L269.4,172.8 M267.5,173.4L267.5,173.4 M267.5,173.4L267.5,173.4 M265.2,164.7l-0.2,0.1l-0.3,0.1h-0.2 M264.9,166.7
	h-0.1h-0.1h-0.1h-0.1h-0.1h-0.1h-0.1h-0.1 M267.5,180.1l-0.3,0.2l-0.7,0.3 M269.4,172.8l0.2,1l0.1,1l-0.1,1l-0.1,1l-0.3,0.9
	l-0.4,0.8l-0.5,0.7l-0.6,0.6l-0.1,0.1 M267.5,173.4l0.2-0.1l0.2-0.1l0.2-0.1l0.2-0.1l0.2-0.1l0.2-0.1l0.2-0.1l0.2-0.1 M264.5,181.3
	l0.2-0.1 M267.5,173.4L267.5,173.4h-0.1h-0.1l0,0l0,0h-0.1l0,0H267 M267.5,173.4h-0.1h-0.1h-0.1l0,0H267 M267.5,173.4L267.5,173.4
	 M264.9,166.7l-0.1-0.7v-0.7v-0.1v-0.1l0,0l0,0 M271,169.1l1-0.1l0.9-0.2l0.8-0.2 M273.8,168.6h0.2h0.2l0.2,0.1l0.2,0.2l0.2,0.2
	l0.2,0.2l0.2,0.3l0.1,0.3l0,0 M275.5,163L275.5,163L275.5,163l-0.1-0.1h-0.1 M264.9,165.1L264.9,165.1L264.9,165.1l0.1-0.2l0.2-0.1
	 M267.5,173.4l-1.1-3.7l-1.5-4.6 M267.5,173.4L267.5,173.4 M267.5,173.4l0.2-0.1l0.2-0.1l0.2-0.1l0.2-0.1l0.2-0.1l0.2-0.1l0.2-0.1
	l0.2-0.1 M269.1,172l0.2,0.7l0,0v0.1 M269.1,172l0.9-0.2 M270.1,171.7v-0.1l-0.1-0.9l0.2-0.7l0.3-0.5l0.4-0.2h0.1 M261.9,174.4
	l0.5-0.3h0.6l0.5,0.3l0.5,0.5l0.3,0.7l0.1,0.7l-0.2,0.7l-0.4,0.5l-0.5,0.2h-0.6l-0.6-0.3l-0.4-0.5l-0.3-0.7v-0.7l0.1-0.7
	L261.9,174.4 M264.6,168.3l0.1-0.2l0.1-0.5 M259.4,176.4l5.2-8.2 M259.1,176.8l0.2-0.3 M253,182l6.1-5.2 M263,181.3l-5,0.3l-5,0.5
	 M267,173.5l0.1,0.4l0.2,1v1l-0.1,1L267,178l-0.4,0.9l-0.5,0.7l-0.6,0.6l-0.7,0.5l-0.8,0.3l-0.8,0.1 M267,173.5L267,173.5
	 M264.9,166.7l0.9,3.1l1.1,3.7 M264.8,167.7l0.1-0.9 M234.3,195.8l-0.7,0.1l-0.7-0.1l-0.6-0.4l-0.5-0.6l-0.2-0.7v-0.7l0.3-0.6
	l0.5-0.4l0.7-0.1l0.7,0.1l0.6,0.4l0.5,0.6l0.2,0.7v0.7l-0.3,0.6L234.3,195.8 M225.3,192.5h-0.2l-0.5-0.1 M224.6,192.4l-0.8-0.3
	 M223.8,192.1l2.3,2.3l2.7,2.7 M228.8,197.1L228.8,197.1 M228.8,197.1l0.3,0.3l0.8,0.6l0.9,0.4l1,0.3l1,0.2h1l1-0.2l0.9-0.3l0.9-0.5
	l0.7-0.6l0.6-0.8 M238.1,196.5l3.2-4.7l3.3-4.6 M244.7,187.2l-8.4,3.7 M236.3,190.9l-0.4,0.1 M235.9,191l-10.6,1.6 M247.8,190.2
	l0.3-0.3l0.2-0.3l0.1-0.2v-0.2l-0.1-0.1l-0.2-0.1l-0.3,0.1l-0.4,0.1l-0.5,0.2l-0.5,0.2l-0.5,0.3l-0.5,0.3l-0.5,0.3l-0.4,0.3
	l-0.3,0.3l-0.2,0.3l-0.1,0.2v0.2l0.1,0.1h0.2h0.3l0.4-0.1l0.5-0.2l0.5-0.2l0.5-0.3l0.5-0.3l0.5-0.3L247.8,190.2 M259.3,181.8
	l-0.4,0.2l-0.5,0.3l-0.5,0.3l-0.5,0.3l-0.4,0.3l-0.3,0.3l-0.2,0.3l-0.1,0.2v0.2l0.1,0.1h0.2h0.3l0.4-0.1l0.5-0.2l0.5-0.2l0.5-0.3
	l0.5-0.3l0.4-0.3l0.4-0.3 M260.4,182.5l0.3-0.3l0.2-0.3l0.1-0.2l0,0 M251.2,184.3l0.4-0.3l0.2-0.3l0.1-0.2v-0.2l-0.1-0.1h-0.2h-0.4
	l-0.4,0.1l-0.5,0.2l-0.5,0.2l-0.5,0.3l-0.5,0.3l-0.5,0.3l-0.4,0.3l-0.3,0.3l-0.2,0.3l-0.1,0.2v0.2l0.1,0.1h0.2h0.3l0.4-0.1l0.5-0.2
	l0.5-0.2l0.5-0.3l0.5-0.3l0.5-0.3L251.2,184.3 M252.2,181.5l-0.5,0.5l-0.4,0.4l-0.1,0.2v0.1l0,0h0.1h0.1l0.2-0.1l0.1-0.1
	 M258.4,176.2l-6.2,5.2 M236.1,189.9l8.4-3.7 M244.5,186.3l0.7-0.3l0.7-0.2l0.3-0.1h0.1h0.1v0.1l-0.1,0.1l-0.1,0.1l-0.1,0.1
	 M246.6,191.5l0.9-0.4l1-0.4l1-0.5l1.1-0.5l1-0.5l1-0.6l1-0.6l1-0.6l1-0.6l0.9-0.7l0.8-0.7l0.8-0.6l0.7-0.6l0.6-0.6 M235.9,190
	l0.3-0.1 M236.1,189.9l1-0.9l1.1-0.9l1.1-0.9l1.3-0.9l1.4-0.9l1.4-0.9l1.5-0.9l1.5-0.9l1.5-0.9l1.5-0.8l1.6-0.8l1.6-0.8l1.6-0.7
	l1.5-0.7l1.5-0.6l1.5-0.6 M258.5,176l-0.2,0.2 M224.9,191.6h0.3h0.1 M263.9,167.6l-0.1,0.2v0.1 M225.3,191.6l1-1l1.1-1.1l1.3-1.1
	l1.4-1.1l1.5-1.1l1.5-1.1l1.6-1.1l1.7-1.1l1.7-1.1l1.8-1.1l1.8-1.1l1.9-1.1l1.9-1.1l1.9-1l1.9-1l1.9-1l1.9-0.9l1.9-0.9l1.9-0.8
	l1.9-0.8l1.8-0.7l1.8-0.7l1.8-0.6 M225.3,191.6l1.5-0.2l5.7-0.8l3.3-0.5 M258.5,176l-1.5,0.6l-1.6,0.6l-1.6,0.7l-1.6,0.7l-1.6,0.8
	l-1.6,0.8l-1.6,0.9l-1.6,0.9l-1.5,0.9l-1.5,0.9l-1.3,1l-1.4,0.9l-1.3,0.9l-1.1,0.9l-1.1,0.9l-1,0.9 M263.8,167.9l-0.7,1.1l-2.8,4.5
	l-1.7,2.6 M222.3,191L222.3,191h0.6l1.1,0.3 M224.1,191.3l0.8,0.3 M263.9,167.6l-1.7,0.6l-1.7,0.6l-1.8,0.7l-1.8,0.7l-1.9,0.8
	l-1.8,0.8l-1.9,0.9l-1.9,0.9l-1.9,1l-1.9,1l-1.9,1l-1.8,1l-1.8,1.1l-1.8,1.1l-1.7,1.1l-1.7,1.1l-1.6,1.1l-1.5,1.1l-1.5,1.1l-1.4,1.1
	l-1.1,1.1l-1.1,1l-1.1,1l-1,1 M264,166.6l-0.1,0.9 M264.5,165.1L264.5,165.1l-0.2,0.5l-0.2,1.1 M216.9,195.5l0.1,0.1l0.1,0.2v0.1
	 M217.3,197.1L217.3,197.1l-0.2-0.6l-0.1-0.6 M274.6,160.6l0.8,0.1l0.8,0.1l0.6,0.2l0.5,0.3l0.4,0.4l0.3,0.4 M264.5,165.1h0.1l0,0
	h0.1h0.1h0.1h0.1h0.1h0.1 M275.2,162.8h-0.9l-1,0.1l-1.1,0.1l-1.3,0.2l-1.4,0.3l-1.4,0.3l-1.5,0.4l-1.5,0.4 M275.2,162.8
	L275.2,162.8h0.1l0,0l0,0l0,0h0.1l0,0l0,0 M275.6,162.8l0.9,0.1l0.8,0.1l0.7,0.2l0.5,0.3l0.5,0.4l0.3,0.4l0.2,0.5l0.1,0.6v0.6
	l-0.1,0.7v0.2 M220.8,200.8l-0.4-0.1l-0.6-0.2l-0.5-0.3l-0.4-0.4l-0.3-0.5l-0.2-0.5l-0.1-0.6 M218.2,198.1L218.2,198.1L218.2,198.1
	L218.2,198.1V198l0,0l0,0l0,0l0,0 M222,191.4l-0.8,0.9l-0.7,0.9l-0.6,0.8l-0.5,0.8l-0.4,0.8l-0.3,0.7l-0.2,0.7l-0.1,0.6 M222,191.4
	L222,191.4L222,191.4l0.1-0.1l0.1-0.1v-0.1l0.1-0.1v-0.1v-0.1 M264.5,165.1l-1.7,0.6l-1.8,0.6l-1.8,0.7l-1.9,0.7l-1.9,0.8l-1.9,0.9
	l-1.9,0.9l-2,0.9l-2,1l-1.9,1l-1.9,1l-1.9,1.1l-1.9,1.1l-1.9,1.1l-1.8,1.1l-1.8,1.1l-1.7,1.1l-1.7,1.3l-1.6,1.1l-1.5,1.1l-1.4,1.1
	l-1.3,1.1l-1.3,1.1l-1.1,1.1l-1,1 M233.7,208.1L233.7,208.1l0.1-0.4l-0.1-0.4l-0.2-0.5l-0.3-0.5l-0.4-0.5l-0.5-0.5l-0.6-0.5
	l-0.7-0.5l-0.7-0.4l-0.8-0.4 M229.4,203.4l-0.8-0.3l-0.8-0.3l-0.8-0.2l-0.8-0.1l-0.7-0.1h-0.7l-0.6,0.1l-0.5,0.1l-0.4,0.2l-0.3,0.3
	l-0.2,0.3 M235.7,203.3L235.7,203.3L235.7,203.3L235.7,203.3l-0.1,0.1v0.1l-0.1,0.1l-0.1,0.2 M235.4,203.8v0.1l-0.1,0.1v0.1
	l-0.1,0.2v0.1l-0.1,0.1v0.1l0,0 M236.9,198.5v0.2v0.3v0.3v0.3v0.3v0.2l-0.1,0.2v0.1 M235.1,200.1l-1.3,3 M233.8,203.1l-0.6-0.5
	l-0.6-0.5l-0.7-0.5l-0.8-0.4l-0.8-0.4l-0.9-0.3l-0.9-0.2l-0.9-0.1l-0.8-0.1 M226.5,199.9l0.4-0.9 M256.6,198.4l2.2,2.9 M255.2,196.5
	l1.4,1.9 M268.1,195.3l0.2,0.4l0.1,0.5v0.6l-0.1,0.6l-0.2,0.6l-0.3,0.6l-0.4,0.7l-0.5,0.6l-0.6,0.6l-0.7,0.6l-0.7,0.5l-0.8,0.4
	l-0.8,0.4l-0.8,0.3l-0.7,0.2l-0.7,0.1H260l-0.6-0.1l-0.5-0.2l-0.5-0.3l-0.4-0.4l0,0 M258.8,201.4l-0.7-0.1l-0.5-0.2l-0.5-0.3
	l-0.3-0.4l-0.1-0.2 M266.9,193.7l0.1,0.2l0.1,0.6v0.6l-0.2,0.7l-0.3,0.7 M256.1,196.4l-0.4,0.1h-0.5 M255.2,196.5l-0.6-1l-0.6-1
	l-0.6-0.9l-0.4-0.5 M262.3,192.5l0.3-0.4l0.3-0.4 M266.5,196.6l-2.2-3 M266.5,196.6l-1.1-2.7 M262.3,190.4L262.3,190.4l0.3,0.4
	 M256.1,196.4l-0.5-1.4l-0.6-1.5l-0.7-1.5V192 M256.1,196.4l0.6,0.1l0.5,0.1h0.4h0.4l0.4-0.1l0.4-0.1l0.4-0.1l0.4-0.2l0.3-0.2
	l0.3-0.2l0.3-0.2l0.3-0.3l0.3-0.3l0.2-0.3l0.2-0.3l0.2-0.3l0.2-0.4l0.1-0.4l0.1-0.3l0.1-0.3 M262.3,192.5l-1-1l-1-1.3l-1-1.3l0,0
	 M277.1,170.3L277.1,170.3h-0.5l-0.6,0.1l-0.5,0.2l-0.5,0.4l-0.5,0.5l-0.4,0.6l-0.4,0.6l-0.3,0.7l-0.3,0.8l-0.2,0.8l-0.1,0.9
	l-0.1,0.9v0.8l0.1,0.8l0.2,0.7l0.2,0.7l0.3,0.6l0.4,0.5l0.4,0.4l0.5,0.3l0.5,0.2 M266.4,180.5L266.4,180.5l-0.4-0.2l-0.3-0.1
	l-0.3-0.2 M267.8,180.9h-0.1l-0.3-0.1l-0.3-0.1l-0.3-0.1l-0.1-0.1 M270.1,172.3l0.9,0.1 M271,172.5l-0.4,0.8l-0.3,0.9l-0.2,0.9
	l-0.1,0.9l-0.1,0.9l0.1,0.9l0.1,0.8l0.2,0.8l0.4,0.7 M270.8,180.3l-2.9-0.5 M233.7,208.1L233.7,208.1l0.1-0.4l-0.1-0.4l-0.2-0.5
	l-0.3-0.5l-0.4-0.5l-0.5-0.5l-0.6-0.5l-0.7-0.5l-0.7-0.4l-0.8-0.4 M229.4,203.4l-0.8-0.3l-0.8-0.3l-0.8-0.2l-0.8-0.1l-0.7-0.1h-0.7
	l-0.6,0.1l-0.5,0.1l-0.4,0.2l-0.3,0.3l-0.2,0.3 M354.4,313.1l0.2,0.4l0.1,0.5v0.6l-0.1,0.6l-0.2,0.6l-0.3,0.6l-0.4,0.6l-0.5,0.6
	l-0.6,0.6l-0.6,0.6l-0.7,0.5l-0.7,0.5l-0.8,0.4l-0.8,0.3l-0.7,0.2l-0.7,0.1h-0.7l-0.6-0.1l-0.5-0.2l-0.4-0.3l-0.4-0.4l0,0
	 M268.1,195.3l0.2,0.4l0.1,0.5v0.6l-0.1,0.6l-0.2,0.6l-0.3,0.6l-0.4,0.7l-0.5,0.6l-0.6,0.6l-0.7,0.6l-0.7,0.5l-0.8,0.4l-0.8,0.4
	l-0.8,0.3l-0.7,0.2l-0.7,0.1H260l-0.6-0.1l-0.5-0.2l-0.5-0.3l-0.4-0.4l0,0 M417.2,193.9L417.2,193.9h-0.5l-0.5,0.1l-0.5,0.2
	l-0.5,0.4l-0.5,0.5l-0.5,0.6l-0.4,0.6l-0.4,0.7l-0.3,0.8l-0.2,0.8l-0.1,0.9l-0.1,0.8v0.8l0.1,0.8l0.2,0.7l0.2,0.7l0.3,0.6l0.4,0.5
	l0.4,0.4l0.5,0.3l0.5,0.2 M277.1,170.3L277.1,170.3h-0.5l-0.6,0.1l-0.5,0.2l-0.5,0.4l-0.5,0.5l-0.4,0.6l-0.4,0.6l-0.3,0.7l-0.3,0.8
	l-0.2,0.8l-0.1,0.9l-0.1,0.9v0.8l0.1,0.8l0.2,0.7l0.2,0.7l0.3,0.6l0.4,0.5l0.4,0.4l0.5,0.3l0.5,0.2 M235.6,205.4L235.6,205.4
	l0.1-0.1l0.1-0.2l0.1-0.3l0.1-0.3l0.1-0.3l0.1-0.2 M236.3,203.8v-0.1l0,0 M261.4,199.3l0.1-0.3l0.2-0.3l0.3-0.2l0.3-0.1h0.4l0.3,0.1
	l0.2,0.2v0.3v0.3l-0.2,0.3l-0.3,0.2l-0.3,0.1H262l-0.3-0.1l-0.2-0.2L261.4,199.3 M271,182.3L271,182.3l0.2,0.1l0.3,0.1h0.3h0.4h0.3
	h0.2l0.1-0.1l0,0 M169,350.8l-0.8-0.3l-0.8-0.3l-0.8-0.2l-0.8-0.1l-0.7-0.1h-0.7l-0.6,0.1l-0.5,0.2l-0.4,0.2l-0.3,0.3l-0.2,0.3
	l-0.1,0.4v0.4l0.2,0.5l0.3,0.5l0.4,0.5l0.5,0.5l0.6,0.5l0.7,0.4l0.7,0.4l0.8,0.4l0.8,0.3l0.8,0.3l0.8,0.2l0.8,0.1l0.7,0.1h0.7
	l0.6-0.1l0.5-0.2l0.4-0.2l0.3-0.3l0.2-0.4l0.1-0.4v-0.5l-0.2-0.4l-0.3-0.5l-0.4-0.5l-0.5-0.5l-0.6-0.5l-0.7-0.4l-0.7-0.4L169,350.8
	 M417.2,193.9L417.2,193.9h-0.5l-0.5,0.1l-0.5,0.2l-0.5,0.4l-0.5,0.5l-0.5,0.6l-0.4,0.6l-0.4,0.7l-0.3,0.8l-0.2,0.8l-0.1,0.9
	l-0.1,0.8v0.8l0.1,0.8l0.2,0.7l0.2,0.7l0.3,0.6l0.4,0.5l0.4,0.4l0.5,0.3l0.5,0.2 M420.2,199.2v-0.8l-0.1-0.8l-0.2-0.8l-0.3-0.7
	l-0.3-0.6l-0.4-0.5l-0.4-0.4l-0.5-0.3l-0.5-0.1h-0.5l-0.6,0.1l-0.6,0.2l-0.5,0.4l-0.5,0.5l-0.4,0.6l-0.4,0.7l-0.4,0.8l-0.3,0.8
	l-0.2,0.8l-0.2,0.9v0.9v0.8l0.1,0.8l0.2,0.8l0.2,0.7l0.3,0.6l0.4,0.5l0.4,0.4l0.5,0.3l0.5,0.1h0.5l0.5-0.1l0.5-0.2l0.5-0.4l0.5-0.5
	l0.5-0.6l0.4-0.7l0.4-0.7l0.3-0.8l0.2-0.8l0.1-0.9L420.2,199.2 M263.2,177.8l-0.4-0.1l-0.4-0.2l-0.4-0.3l-0.2-0.3l-0.2-0.5l-0.1-0.5
	v-0.5l0.1-0.5l0.2-0.4l0.3-0.3 M262.5,174.4l-0.3,0.1l-0.3,0.3l-0.2,0.4l-0.1,0.4v0.5l0.1,0.5l0.2,0.4l0.3,0.3l0.3,0.2l0.4,0.1h0.4
	l0.3-0.1l0.3-0.2l0.2-0.4l0.1-0.4V176l-0.1-0.5l-0.2-0.4l-0.3-0.4l-0.3-0.2l-0.4-0.1L262.5,174.4 M232,193.1l-0.2,0.4l-0.1,0.4v0.4
	l0.2,0.4l0.3,0.4l0.4,0.3l0.4,0.2l0.5,0.1l0.4-0.1l0.4-0.2l0.3-0.3l0.2-0.4l0.1-0.4v-0.4l-0.2-0.4l-0.3-0.4l-0.4-0.3l-0.4-0.2
	l-0.5-0.1h-0.4l-0.4,0.2L232,193.1 M231.9,193l0.3-0.2l0.4-0.2l0.5-0.1l0.5,0.1l0.5,0.2l0.4,0.3l0.3,0.4l0.2,0.4l0.1,0.5v0.4v0.1
	 M234.2,468.7l7.4-257.5 M146.5,175.6L137,504.4 M265.8,185.9l5.1-4.4 M161.8,226l55.4-9.8 M267.4,189.2l8-6.9 M296.1,98.8
	l-65.2,12.9 M207.6,185.6l1-0.2 M202.2,184.2h0.7h0.7 M181.9,145.4l-0.5,1.6l-0.4,1.6l-0.4,1.7l-0.3,1.7l-0.2,1.7l-0.1,1.8v1.8
	l0.1,1.8l0.2,1.8l0.3,1.8l0.4,1.7l0.5,1.7l0.5,1.7l0.6,1.6l0.7,1.6l0.8,1.6l0.9,1.5l0.9,1.4l1,1.4l1,1.1l1.1,1.1l1.3,1l1.3,0.9
	l1.3,0.8l1.4,0.7l1.4,0.6l1.4,0.5l0.4,0.1 M200.2,178.4L200.2,178.4 M193.4,143L193.4,143 M202.1,125.2l-1.3,0.8l-0.5,0.3
	 M223.9,112.1l-1.8,0.4 M309.7,153.4l0.9-0.8l0.3-0.3 M305.2,157.2l1.7-1.4l2-1.7l0.8-0.7 M318.1,124.1v-1.1 M310.9,152.2l0.5-0.5
	l1.1-1.4l1-1.4l0.9-1.5l0.6-1.1 M313.4,108.8l-0.1-0.1l-0.1-0.1l-0.2-0.1l-0.2-0.1l-0.4-0.1h-0.1 M312.3,108.3h-0.1l-0.7-0.1h-0.2
	 M318.2,122.9v-1.1v-1v-1l-0.1-0.9l-0.1-0.8l-0.1-0.8l-0.2-0.7l-0.2-0.5 M317.5,115.7l-4-6.9 M293.2,98.4l-1.9,0.3 M264.8,184.3
	L264.8,184.3L264.8,184.3v-0.1V184l0.1-0.2l0.1-0.1 M256.9,198.9L256.9,198.9L256.9,198.9 M264.7,193.9L264.7,193.9L264.7,193.9
	 M264.7,193.9h0.1h0.2l0.2,0.1h0.1 M265.4,193.9l0.1,0.1l0.2,0.1h0.2h0.3l0.2-0.1 M253.7,201.1l0.1,0.1l0.1,0.1h0.2h0.2l0,0
	 M254.4,201.2l0.9-0.5l1.3-0.6 M266.4,194l0.1-0.1l1.5-1l0.3-0.2 M268.3,192.6l0.1-0.1l0.1-0.2v-0.2v-0.2l-0.1-0.3l-0.1-0.4
	l-0.2-0.5l-0.2-0.5l-0.3-0.6v-0.1 M261.5,189.3l1.4,1.7 M253.2,192.7l0.1-0.1l0.4-0.3l0,0 M258.9,189.2l0.4-0.2l0.2-0.1
	 M260.5,188.9h0.1l0.3,0.1l0.3,0.1l0.2,0.2l0,0 M253.7,192.3L253.7,192.3l1.7-1.1l1.6-0.9l1.6-0.9l0.4-0.2 M242.4,192.5L242.4,192.5
	L242.4,192.5L242.4,192.5 M220.8,200.8l0.5,0.1 M218.4,198.2L218.4,198.2L218.4,198.2L218.4,198.2 M240.8,194.5l0.6-0.9l0.8-1
	 M241.9,196.9l3.9-1.7 M218.4,198.2l4.4,4.3 M264.9,183.9l0.7-0.5 M278.8,169.2l0.7-2.2 M246.1,185.9L246.1,185.9L246.1,185.9
	 M277.6,170.4l-0.6-2.1l-1.5-5 M251.5,182.6L251.5,182.6L251.5,182.6L251.5,182.6 M235.2,200l0.4-0.3l0.6-0.5l0.3-0.3 M227,198.5
	l0.3,0.3 M266.4,180.6l0.5-0.2l0.6-0.4l0,0 M251.5,182.6l0.9-0.2l1.7-0.2l1.9-0.2 M246.1,186L246.1,186 M227.3,198.8l0.2,0.2
	l0.7,0.5l0.7,0.4l0.8,0.3l0.8,0.2l0.8,0.1h0.8l0.8-0.1l0.8-0.2l0.7-0.3l0.4-0.2 M269.7,172.8L269.7,172.8 M269.7,172.8l-0.1-0.3
	 M236.6,198.8l0.3-0.3l0.6-0.6l0.1-0.1 M267.6,180l0.1-0.1l0.5-0.5l0.5-0.5l0.4-0.6l0.4-0.7l0.2-0.8l0.1-0.8l0.1-0.8v-0.8l-0.1-0.8
	l-0.1-0.5 M264.6,181.3l0.2-0.1l1.1-0.4l0.4-0.1 M263.3,181.6l0.7-0.1l0.6-0.2l0.1-0.1 M217.3,197.1l1.3,2.3 M279.5,164.4l-1.3-2.3
	 M224.7,197.9l-2.3,5.6 M233.7,208.1l1.4-3.3 M235.7,203.3l1.1-2.8 M256.8,200.4l1.5,2 M268.1,195.3l-1.1-1.6 M267.8,180.9l7.3,1.3
	 M277.1,170.3l-6.2-1 M222.4,203.5l-60.3,147 M173.4,355.1l60.2-147 M258.4,202.5l86.3,117.9 M354.4,313.1l-86.3-117.9 M275.1,182.2
	l140,23.6 M417.2,193.9l-140-23.6 M235,205.1l0.6,0.3 M236.3,203.6l-0.7-0.3 M271.1,181.6v0.7 M273,182.3v-0.4 M162.2,350.5
	l-0.1,0.3 M173.3,355.5l0.1-0.3 M344.6,320.3l0.2,0.2 M354.6,313.4l-0.2-0.2 M415.1,205.9h0.3 M417.4,193.9l-0.3-0.1"/>
<polygon class="st3" points="282.4,87 296,91 293.2,88.2 296.5,86.3 "/>
<polygon class="st3" points="416.7,100.3 402.6,101.2 405.9,99.2 403,96.5 "/>
<polygon class="st3" points="124.7,83.9 122.2,97.8 124.6,94.7 126.9,97.8 "/>
<polygon class="st3" points="124.8,502.5 122.7,488.5 124.8,491.6 127.4,488.5 "/>
<polygon class="st3" points="162,368.6 175.3,363.7 172.6,366.4 176.2,368.3 "/>
<polygon class="st3" points="354.4,326.7 341.1,331.6 343.7,328.8 340.2,326.9 "/>
<polygon class="st3" points="162,368.6 175.3,363.7 172.6,366.4 176.2,368.3 "/>
<polygon class="st3" points="67.5,519.3 81.7,520.4 78.1,521.8 80.5,525 "/>
<polygon class="st3" points="268.8,566.2 254.7,564.8 258.4,563.5 256,560.2 "/>
<polygon class="st3" points="106.6,511.6 120.7,512.6 117.2,514.1 119.6,517.3 "/>
<polygon class="st3" points="181.2,527.3 167.1,525.8 170.8,524.4 168.4,521.2 "/>
<polygon class="st3" points="416.6,199.5 414.1,213.4 416.5,210.4 418.8,213.5 "/>
<polygon class="st3" points="416.8,536.6 414.6,522.6 416.8,525.7 419.3,522.6 "/>
<line class="st4" x1="412.9" y1="201" x2="432.5" y2="196"/>
<line class="st0" x1="212.5" y1="78" x2="315" y2="55.6"/>
<line class="st0" x1="203.6" y1="155.8" x2="203.3" y2="52"/>
<polygon class="st3" points="315,55.6 301.7,60.6 304.3,57.8 300.8,56 "/>
<polygon class="st3" points="203.6,80 216.9,75.1 214.2,77.8 217.8,79.8 "/>
<line class="st0" x1="315.1" y1="113.5" x2="314.9" y2="21.9"/>
<polygon class="st3" points="331.5,508.6 318.6,514.3 321.1,511.4 317.4,509.7 "/>
<polygon class="st3" points="262.1,526.2 275.2,520.7 272.7,523.5 276.3,525.3 "/>
<g>
	<path class="st3" d="M270.9,348.8l-6.4,1.5l-0.3-1.2l8.6-2l-5.1,13.8l-1.2-0.4L270.9,348.8z"/>
	<path class="st3" d="M277.9,357.8l1.8-4.4c-0.3,0.2-0.6,0.3-1,0.4c-2.2,0.5-4.2-0.8-4.7-3c-0.5-2.3,0.8-4.4,3.1-4.9
		c2.8-0.6,4.5,1.2,5,3c0.1,0.4,0.3,1.5-0.3,2.9l-2.7,6.4L277.9,357.8z M275.3,350.6c0.4,1.6,1.8,2.4,3.4,2.1
		c1.6-0.4,2.4-1.8,2.1-3.3c-0.4-1.6-1.8-2.5-3.4-2.2C275.8,347.5,274.9,349,275.3,350.6z"/>
	<path class="st3" d="M292.4,351.5c0.4,1.8-0.4,3.7-2.8,4.3c-2.4,0.6-4-0.8-4.4-2.6c-0.3-1.3,0-2.5,1.1-3.3c-1.1-0.3-1.8-1.1-2-2.2
		c-0.4-1.7,0.4-3.5,2.5-4c2.1-0.5,3.6,0.8,4,2.5c0.3,1.1,0,2.1-0.8,2.9C291.3,349.3,292.1,350.3,292.4,351.5z M289.6,346.5
		c-0.3-1.3-1.4-1.9-2.5-1.6c-1.1,0.2-1.8,1.3-1.5,2.5c0.3,1.2,1.3,1.8,2.5,1.6C289.2,348.7,289.9,347.6,289.6,346.5z M291.1,351.8
		c-0.3-1.3-1.5-2-2.8-1.7c-1.3,0.3-2.1,1.4-1.8,2.8c0.3,1.3,1.5,2.1,2.8,1.8C290.7,354.3,291.4,353.1,291.1,351.8z"/>
</g>
<g>
	<path class="st3" d="M432.8,377.5l-3.8-2.8c0.1,0.3,0.2,0.7,0.1,1.1c0,2.3-1.8,3.9-4,3.8c-2.4,0-4.1-1.8-4.1-4.2
		c0-2.8,2.3-4.1,4.1-4.1c0.5,0,1.5,0.1,2.7,1l5.6,4.2L432.8,377.5z M425.1,378.3c1.6,0,2.8-1.1,2.8-2.8c0-1.6-1.2-2.8-2.7-2.8
		c-1.6,0-2.9,1.1-2.9,2.8C422.3,377.1,423.5,378.2,425.1,378.3z"/>
	<path class="st3" d="M431.8,368.4c-1.2,0.8-2.7,1.2-4.4,1.1c-1.7,0-3.3-0.5-4.4-1.3c-1.3-0.9-1.8-2.2-1.8-3.1s0.5-2.2,1.8-3.1
		c1.2-0.8,2.7-1.2,4.4-1.1c1.7,0,3.3,0.5,4.4,1.3c1.3,0.9,1.8,2.1,1.8,3.1C433.7,366.3,433.2,367.5,431.8,368.4z M423.8,367.3
		c1,0.7,2.4,0.9,3.6,0.9c1.3,0,2.6-0.2,3.7-0.8c1-0.6,1.4-1.4,1.4-2.1c0-0.6-0.3-1.4-1.3-2.1c-1-0.7-2.4-0.9-3.6-0.9
		c-1.3,0-2.6,0.2-3.7,0.8c-1,0.6-1.4,1.4-1.4,2.1S422.8,366.6,423.8,367.3z"/>
	<path class="st3" d="M422.8,357.1l0,2l-1.3-0.7l0-2.6l12,0.2l0,1.3L422.8,357.1z"/>
</g>
<g>
	<path class="st3" d="M246.2,57.7c-0.1-0.7,0-1.3,0.1-1.8c0.5-1.4,1.7-1.8,2.4-2c2.2-0.5,3.7,0.8,4,2.4c0.2,0.8,0.1,2.1-0.9,2.9
		c0.4,0.1,1.9,0.4,2.3,2.4c0.5,2.2-0.8,3.9-2.8,4.4c-1.2,0.3-2.7,0.1-3.7-1.3c-0.3-0.4-0.4-0.8-0.5-1.2l1.3-0.3
		c0.1,0.4,0.4,0.8,0.7,1.1c0.5,0.5,1.3,0.6,2,0.5c1.3-0.3,2.1-1.6,1.8-2.9c-0.2-0.7-0.6-1.5-1.6-1.7c-0.4-0.1-0.9-0.1-1.4,0.1
		l-0.3-1.2c0.5-0.1,1-0.3,1.3-0.6c0.3-0.3,0.8-0.9,0.6-2c-0.2-1-1-1.9-2.5-1.5c-0.5,0.1-1,0.3-1.4,1c-0.2,0.4-0.3,0.8-0.2,1.3
		L246.2,57.7z"/>
	<path class="st3" d="M261,51.7l-1.8,4.4c0.3-0.2,0.6-0.3,1-0.4c2.2-0.5,4.2,0.8,4.7,3c0.5,2.3-0.8,4.4-3.1,4.9
		c-2.8,0.6-4.5-1.2-5-3c-0.1-0.4-0.2-1.5,0.3-2.9l2.7-6.4L261,51.7z M263.5,59c-0.4-1.6-1.8-2.4-3.4-2.1c-1.6,0.4-2.4,1.8-2.1,3.3
		c0.4,1.6,1.8,2.5,3.4,2.2C263.1,62,263.9,60.5,263.5,59z"/>
	<path class="st3" d="M274.5,57c0.4,1.8-0.4,3.7-2.8,4.3c-2.4,0.6-4-0.8-4.4-2.6c-0.3-1.3,0-2.5,1.1-3.3c-1.1-0.3-1.8-1.1-2-2.2
		c-0.4-1.7,0.4-3.5,2.5-4c2.1-0.5,3.6,0.8,4,2.5c0.3,1.1,0,2.1-0.8,2.9C273.4,54.8,274.2,55.7,274.5,57z M271.6,52
		c-0.3-1.3-1.4-1.9-2.5-1.6s-1.8,1.3-1.5,2.5c0.3,1.2,1.3,1.8,2.5,1.6C271.3,54.2,271.9,53.1,271.6,52z M273.2,57.3
		c-0.3-1.3-1.5-2-2.8-1.7c-1.3,0.3-2.1,1.4-1.8,2.8c0.3,1.3,1.5,2.1,2.8,1.8C272.8,59.8,273.5,58.6,273.2,57.3z"/>
</g>
<g>
	<path class="st3" d="M333.2,496.9c-0.2-0.6-0.2-1.3-0.1-1.8c0.3-1.4,1.5-2,2.1-2.3c2.1-0.8,3.7,0.3,4.3,1.9c0.3,0.8,0.4,2-0.5,3
		c0.4,0,1.9,0.2,2.6,2.1c0.8,2.1-0.3,4-2.2,4.7c-1.2,0.4-2.7,0.4-3.9-0.8c-0.3-0.3-0.5-0.7-0.7-1.1l1.3-0.5c0.2,0.4,0.5,0.8,0.8,1
		c0.6,0.4,1.3,0.5,2.1,0.2c1.3-0.5,1.8-1.8,1.4-3.1c-0.2-0.6-0.8-1.4-1.8-1.5c-0.4,0-0.9,0.1-1.4,0.2l-0.4-1.1
		c0.5-0.1,0.9-0.4,1.2-0.7c0.3-0.3,0.7-1,0.3-2c-0.4-1-1.3-1.7-2.6-1.2c-0.5,0.2-1,0.5-1.2,1.2c-0.1,0.4-0.1,0.9,0,1.3L333.2,496.9z
		"/>
	<path class="st3" d="M349.8,496.7l1.4-0.5l0.4,1.1l-1.4,0.5l0.8,2.1l-1.2,0.5l-0.8-2.1l-5.8,2.1l3.4-12.4L349.8,496.7z
		 M348.5,497.2l-1.8-5l-1.7,6.3L348.5,497.2z"/>
	<path class="st3" d="M354.6,497c-1.1-0.8-2.1-2.1-2.7-3.7c-0.6-1.6-0.7-3.2-0.4-4.6c0.4-1.6,1.4-2.4,2.3-2.8
		c0.9-0.3,2.2-0.3,3.5,0.6c1.1,0.8,2.1,2.1,2.7,3.7c0.6,1.6,0.7,3.2,0.4,4.6c-0.4,1.6-1.4,2.4-2.3,2.8
		C357.2,498,355.9,497.9,354.6,497z M352.7,489.1c-0.3,1.2,0,2.6,0.4,3.7s1.1,2.4,2.1,3.1c0.9,0.7,1.8,0.7,2.4,0.5
		c0.6-0.2,1.2-0.8,1.5-2c0.3-1.2,0-2.6-0.4-3.7c-0.4-1.2-1.1-2.4-2.1-3.1c-0.9-0.7-1.8-0.7-2.4-0.5S352.9,487.9,352.7,489.1z"/>
</g>
<g>
	<path class="st3" d="M148,544.7l-6.5-1.2l0.2-1.2l8.7,1.6l-10.2,10.6l-0.9-0.9L148,544.7z"/>
	<path class="st3" d="M157.8,546.6l-6.5-1.2l0.2-1.2l8.7,1.6l-10.2,10.6l-0.9-0.9L157.8,546.6z"/>
	<path class="st3" d="M167.6,548.4l-6.5-1.2l0.2-1.2l8.7,1.6l-10.2,10.6l-0.9-0.9L167.6,548.4z"/>
</g>
<g>
	<path class="st3" d="M128.5,530.7l5.4-4c0.4-0.3,1.4-1,1.7-1.4c0.7-0.6,0.9-1.2,1-1.7c0.3-1.3-0.4-2.5-1.8-2.8
		c-0.8-0.2-1.6,0-2.2,0.6c-0.3,0.3-0.5,0.7-0.7,1.3l-1.3-0.3c0.3-1.2,0.8-1.8,1.4-2.2c0.6-0.5,1.6-0.9,3-0.6
		c2.1,0.5,3.3,2.3,2.9,4.3c-0.2,0.8-0.6,1.5-1.5,2.3c-0.6,0.6-1.4,1.2-2,1.6l-3,2.2l5,1.1l-0.3,1.2L128.5,530.7z"/>
	<path class="st3" d="M146.2,531.2c-0.4,1.8-1.9,3.2-4.3,2.7c-2.4-0.5-3.2-2.4-2.8-4.2c0.3-1.3,1.1-2.2,2.4-2.5
		c-0.8-0.7-1.1-1.8-0.9-2.9c0.4-1.7,1.8-3,3.9-2.5c2.1,0.5,2.9,2.3,2.5,4c-0.2,1.1-0.9,1.9-2,2.3
		C146.1,528.7,146.5,529.9,146.2,531.2z M144.9,530.8c0.3-1.3-0.5-2.4-1.8-2.7s-2.5,0.4-2.8,1.7c-0.3,1.3,0.4,2.5,1.8,2.8
		C143.5,532.9,144.6,532.2,144.9,530.8z M145.8,525.4c0.3-1.3-0.5-2.3-1.6-2.5c-1.1-0.2-2.2,0.4-2.5,1.6c-0.3,1.2,0.4,2.2,1.6,2.5
		C144.5,527.2,145.6,526.5,145.8,525.4z"/>
	<path class="st3" d="M157,525.9l-3.8-0.8l-1.3,2.4c0.2,0,0.5,0,0.8,0.1c2.4,0.5,3.5,2.6,3,4.9c-0.6,2.6-2.9,3.8-5.2,3.3
		c-0.9-0.2-1.8-0.7-2.4-1.5c-0.3-0.4-0.6-0.9-0.8-1.4l1.2-0.5c0.1,0.4,0.3,0.8,0.6,1.1c0.4,0.5,0.9,0.9,1.7,1.1
		c1.7,0.4,3.2-0.7,3.5-2.4c0.4-1.7-0.6-3.1-2.3-3.5c-0.4-0.1-1.2-0.2-2.4,0.3l2.9-5.3l4.7,1L157,525.9z"/>
</g>
<g>
	<path class="st3" d="M108.7,289.7l0,2l-1.3-0.7l0-2.6l12,0.1l0,1.3L108.7,289.7z"/>
	<path class="st3" d="M118,283.5c-1.2,0.8-2.7,1.2-4.4,1.2c-1.7,0-3.3-0.4-4.4-1.3c-1.3-0.9-1.8-2.1-1.8-3.1s0.5-2.2,1.8-3.1
		c1.2-0.8,2.7-1.2,4.4-1.2c1.7,0,3.3,0.4,4.4,1.3c1.3,0.9,1.8,2.1,1.8,3.1C119.8,281.4,119.3,282.6,118,283.5z M109.9,282.4
		c1,0.7,2.4,0.9,3.6,0.9c1.3,0,2.6-0.2,3.7-0.8c1-0.6,1.3-1.4,1.4-2.1c0-0.6-0.3-1.4-1.3-2.1c-1-0.7-2.4-0.9-3.6-0.9
		c-1.3,0-2.6,0.2-3.7,0.8c-1,0.6-1.3,1.4-1.4,2.1S108.9,281.7,109.9,282.4z"/>
	<path class="st3" d="M116.4,266.5c1.9,0,3.5,1.3,3.5,3.7c0,2.4-1.7,3.7-3.6,3.6c-1.3,0-2.4-0.6-2.9-1.8c-0.6,0.9-1.5,1.4-2.6,1.4
		c-1.7,0-3.3-1.2-3.3-3.3c0-2.2,1.7-3.3,3.4-3.3c1.1,0,2.1,0.5,2.6,1.5C114,267.1,115.1,266.5,116.4,266.5z M110.8,268.1
		c-1.3,0-2.1,0.9-2.1,2c0,1.1,0.8,2.1,2.1,2.1c1.2,0,2.1-0.9,2.1-2C112.9,269,112,268.1,110.8,268.1z M116.4,267.8
		c-1.4,0-2.3,0.9-2.3,2.3c0,1.4,0.9,2.4,2.3,2.4c1.4,0,2.4-0.9,2.4-2.3S117.7,267.8,116.4,267.8z"/>
	<path class="st3" d="M116.3,257.6l0-1.5l1.2,0l0,1.5l2.3,0l0,1.3l-2.3,0l-0.1,6.2l-10.3-7.6L116.3,257.6z M116.3,259l-5.3-0.1
		l5.3,3.9L116.3,259z"/>
</g>
<g>
	<path class="st3" d="M350.7,86.9l1.5,0.1l-0.1,1.2l-1.5-0.1l-0.2,2.3l-1.3-0.1l0.2-2.3l-6.1-0.6l8.4-9.7L350.7,86.9z M349.4,86.8
		l0.5-5.3l-4.3,4.9L349.4,86.8z"/>
	<path class="st3" d="M360.9,87.9l1.5,0.1l-0.1,1.2l-1.5-0.1l-0.2,2.3l-1.3-0.1l0.2-2.3l-6.1-0.6l8.4-9.7L360.9,87.9z M359.5,87.8
		l0.5-5.3l-4.3,4.9L359.5,87.8z"/>
	<path class="st3" d="M372.5,81.6l-3.8-0.4l-1,2.5c0.2,0,0.5,0,0.8,0c2.4,0.2,3.8,2.2,3.6,4.5c-0.2,2.7-2.4,4.1-4.8,3.9
		c-1-0.1-1.8-0.4-2.6-1.2c-0.3-0.4-0.7-0.8-0.9-1.3l1.1-0.7c0.2,0.4,0.4,0.7,0.7,1c0.5,0.5,1,0.8,1.9,0.9c1.7,0.2,3.1-1.1,3.2-2.8
		c0.2-1.7-1-3.1-2.7-3.2c-0.4,0-1.2,0-2.4,0.6l2.3-5.6l4.8,0.4L372.5,81.6z"/>
</g>
</svg>
