<?xml version="1.0" encoding="utf-8"?>
<!-- Generator: Adobe Illustrator 23.0.3, SVG Export Plug-In . SVG Version: 6.00 Build 0)  -->
<svg version="1.1" id="Слой_1" xmlns="http://www.w3.org/2000/svg" xmlns:xlink="http://www.w3.org/1999/xlink" x="0px" y="0px"
	 viewBox="0 0 500 600" style="enable-background:new 0 0 500 600;" xml:space="preserve">
<style type="text/css">
	.st0{fill:#4E86B9;}
	.st1{fill:none;stroke:#4E86B9;stroke-width:0.75;}
</style>
<g>
	<path class="st0" d="M235.6,528.1L235.6,528.1L214,526l0,0l-71.2-7.6c-0.3,0-0.4-0.3-0.4-0.4c0-0.3,0.3-0.4,0.4-0.4h0.4V147.5
		c0,0,0,0,0-0.1c0,0,0,0,0-0.1v-9.6v-0.1l0,0l0,0l0,0l0,0c0,0,0-0.1,0.1-0.1l0,0l0,0l0,0l0,0l0,0l0,0L211,75.6l0,0l0,0l0,0l0,0
		l0.6-0.4h0.1h0.1h0.1l72.4-14.1l0,0h0.1h0.5l0.4,0.1l0.4,0.1c0,0,0,0,0.1,0l0.4,0.3l0.4,0.4l0,0l0,0l0,0l22,25l0.5,0.9l0.3,0.9V89
		l0,0v18.3l0,0c0,0.1,0,0.1,0,0.3c0,0.1,0,0.3-0.1,0.4l-27.5,25.9L439.6,151c0.3,0,0.4,0.3,0.4,0.4c0,0.3-0.3,0.4-0.4,0.4
		l-166.1-18.1h-0.4l-0.5,0.1l-0.5,0.3l-0.5,0.4l-0.5,0.5l-0.5,0.6l-0.4,0.8l-0.4,0.9l-0.3,0.9l-0.3,1l-0.1,1v1v1l0.1,1l0.3,0.9
		l0.3,0.8l0.4,0.6l0.4,0.5l0.5,0.4l0.5,0.3l0.6,0.1l166.1,17.9c0.3,0,0.4,0.3,0.4,0.4c0,0.3-0.3,0.4-0.4,0.4l-166.1-17.9l0,0
		l-2.3-0.3v0.3c0,0.1-0.1,0.3-0.1,0.4l-0.1,0.1h-0.1l-0.6,0.1h-0.9l-0.6-0.1c0,0,0,0-0.1,0l-6.7,6.2l1.9,3.3l0,0l0,0l0,0l0,0l0,0
		l0,0l1.3,2.4l0.3,0.6v0.1v0.1v0.1v0.1c0,0,0,0.1-0.1,0.1l-0.1,0.1c0,0,0,0-0.1,0.1l-0.3,0.3l-1.1,0.9l1.3,1.8l0,0l99.3,135l0,0l0,0
		l0.3,0.3l0,0l0.1,0.3l0.3,0.6c0,0,0,0,0,0.1l0.1,0.6l-0.1,0.8l-0.3,0.8l-0.3,0.8l-0.5,0.9l-0.5,0.8l-0.6,0.8l-0.8,0.8l-0.9,0.6
		l-0.9,0.6l-0.9,0.5l-1,0.4L356,309l-0.9,0.3l-0.9,0.1l-0.8-0.1l-0.8-0.1l-0.6-0.3l-0.5-0.4l-0.3-0.3l0,0l0,0l0,0l0,0l-0.3-0.3l0,0
		l-99.4-134.9l0,0l-1.6-2.3l-2,1.1l0,0l0,0h-0.3h-0.1h-0.1h-0.1l-0.4-0.3l-0.3-0.3l-1.1-1.4c0,0,0,0,0-0.1l-0.8-0.9l-5.2,4.7
		l-11,10.1c0,0.1,0,0.3-0.1,0.3l-0.1,0.1l-0.3,295.5c0,0.1,0,0.1-0.1,0.3v0.4l0.4,0.5l0.3,0.1l0,0l68.6,21.7c0,0,0,0,0.1,0
		c0,0,0.1,0,0.1,0.1c0,0,0,0.1,0.1,0.1c0,0,0,0,0,0.1v2.5c0,0,0,0,0,0.1v0.1l-0.1,0.1c0,0,0,0-0.1,0l-60.7,22.2
		C235.8,528.1,235.8,528.1,235.6,528.1C235.8,528.1,235.8,528.1,235.6,528.1C235.8,528.1,235.8,528.1,235.6,528.1
		C235.8,528.1,235.6,528.1,235.6,528.1z M214.2,525.2l21.1,2.1v-2l-80.4-21.5l-1-0.1c-0.3,0-0.4-0.1-0.4-0.4V502l0,0V344.6
		c0-0.1,0-0.1,0-0.1l-0.8-0.5l-0.6-0.6l-0.5-0.6l-0.4-0.6l-0.3-0.6v-0.6v-0.1l0.1-0.5l0,0l0,0l0.1-0.4l0,0l2.1-6.1V198.3v-0.1
		c0,0,0,0,0-0.1l0,0l0,0v-0.1l0,0l0,0l0,0l81.6-76.5V103v-0.1l-0.1-0.9l-0.4-0.6l-0.1-0.3l-20.7-24.9L213,76h-0.3h-0.5l-0.6,0.3
		l-67.6,61.6v9.5c0,0,0,0,0,0.1c0,0,0,0,0,0.1v370.3L214.2,525.2z M236,525.5v1.6l60-22v-0.9c0,0,0,0,0-0.1c0,0,0,0,0-0.1v-0.6
		l-59.9,22C236.1,525.5,236.1,525.5,236,525.5L236,525.5L236,525.5L236,525.5L236,525.5L236,525.5z M154.9,503.1l81.1,21.6
		l59.1-21.7l-67.4-21.3l0,0l-0.5-0.3c0,0,0,0-0.1,0l-0.4-0.4l-0.1-0.1l0,0l-72.6,21.3v0.8L154.9,503.1L154.9,503.1z M154.2,345
		v156.5l72.4-21.3v-0.3c0-0.1,0-0.3,0.1-0.3l0.3-295.1l-3.8,1L165,344.8l0,0l-0.1,0.4v0.1l-0.3,0.4c0,0,0,0,0,0.1l-0.4,0.4l-0.6,0.4
		l-0.8,0.3l-0.8,0.1l-0.9,0.1h-0.9l-1-0.1l-1-0.3l-1-0.3l-1-0.4l-1-0.4L154.2,345z M151.8,340.7v0.5l0.1,0.5l0.4,0.5l0.5,0.5
		l0.5,0.5l0.6,0.5l0.8,0.5l0.9,0.5l0.9,0.4l0.9,0.4l1,0.3l1,0.3l0.9,0.1h0.9l0.8-0.1l0.6-0.1l0.6-0.3l0.4-0.3l0.3-0.3l0.3-0.4
		l0.1-0.5v-0.4l-0.1-0.5l-0.3-0.5l-0.5-0.5l-0.5-0.5l-0.6-0.5l-0.8-0.5l-0.9-0.5l-0.9-0.4l-1-0.4l-1-0.3l-1-0.1l-0.9-0.1h-0.9H154
		l-0.8,0.1l-0.5,0.3l-0.4,0.3l-0.3,0.3l-0.1,0.4L151.8,340.7z M160,338.8l1,0.4l0.9,0.5l0.9,0.5l0.8,0.6l0.6,0.6l0.5,0.6l0.4,0.8
		l60-164.4l0.1-0.4v-0.5L225,177l-0.3-0.5l-0.5-0.5l-0.5-0.5l-0.6-0.5l-0.8-0.5l-0.9-0.5l-1.9-0.8l-1-0.3l-0.9-0.3l-0.9-0.1h-0.9
		l-0.8,0.1l-0.6,0.1l-0.6,0.3l-0.4,0.3l-0.3,0.3L213,174l-5.2,14c0,0.1,0,0.1,0,0.1l-53.7,145.7l0,0l-1.6,4.4l0,0l0.8-0.3l0.8-0.1
		l0.9-0.1h0.9l1,0.1l1,0.3l1,0.3L160,338.8L160,338.8z M154.2,198.6v133l52.2-143.2L154.2,198.6z M351.3,307.5l0.1,0.1l0.4,0.4
		l0.5,0.3l0.6,0.1h0.8l0.8-0.1l0.9-0.1l0.9-0.3l0.9-0.4l0.9-0.5l0.9-0.5l0.8-0.6l0.8-0.6l0.6-0.8l0.5-0.8l0.4-0.8l0.4-0.8l0.1-0.6
		v-0.6l-0.1-0.5l-0.1-0.5l-0.1-0.1l-98.1-133.4v0.5l-0.3,0.8l-0.4,0.9l-0.5,0.9l-0.6,0.8l-0.6,0.8l-0.8,0.8l-0.9,0.6L259,173
		l-0.9,0.5l-1,0.4l-0.9,0.3l-0.9,0.3l-0.9,0.1h-0.8l-0.4-0.1L351.3,307.5z M235.3,122.3l-80.2,75.3l51.7-10.1l5.1-13.9l0,0l0.1-0.5
		l-0.6-0.6l-1.1-0.3l0,0l-0.4-0.1l-0.9-0.3l-0.8-0.4l-0.6-0.5c0,0,0,0-0.1-0.1l-0.3-0.4l-0.1-0.1l-0.1-0.1h-0.1l-0.6-0.4l-0.6-0.5
		l-0.4-0.6l-0.1-0.4c0,0-0.1-0.1-0.1-0.3l-0.1-0.1v-0.1l-0.1-0.8v-0.9l0.1-0.5c0-0.1,0-0.1,0-0.1v-0.1l0.3-1l0.4-1l0.5-1.1l0.8-1.1
		l0.8-1.1l0.9-1.3l2.1-2.7l1.3-1.4l1.4-1.4l1.5-1.4l4.9-4.4l3.7-2.9l3.9-2.9l4.2-2.8l4.3-2.8l4.3-2.5l2.1-1.3l4.3-2.3l4.2-2l2-0.9
		l3.9-1.6l3.7-1.3l3.4-0.9l1.5-0.4l1.5-0.3l1.4-0.1l1.3-0.1h1.1l1,0.1l0.6,0.1c0.1,0,0.1,0,0.3,0h0.3l0.8,0.3l0.8,0.4l0.4,0.4
		c0,0,0,0,0.1,0.1l0.1,0.1l0.5,0.6l0.3,0.6l0.1,0.8v0.4l0.1,0.1c0,0,0,0,0,0.1l0.1,0.3l0.3,0.8l0.1,0.9l-0.1,0.9l-0.1,0.8l0,0
		l-0.6,2.7l5.3,0.6l27.4-25.8L235.3,122.3L235.3,122.3z M225.7,178.7l-2.1,5.9l3.2-0.8c0-0.1,0-0.1,0.1-0.3l11.6-10.4l5.2-4.8
		l-3.4-4.3l-0.6,0.4l0,0l-0.6,0.4l-4.2,2.1l-4,1.9l-1.8,0.8l-0.1,0.5c0,0,0,0,0,0.1l-1,2.9l0.5,0.3c0.1,0,0.1,0.1,0.1,0.1
		c0.1,0.1,0.1,0.3,0.1,0.4v0.1l0,0l0,0l-0.5,1.4l-0.3,0.5c0,0.1-0.1,0.1-0.1,0.1l0,0c-0.1,0.1-0.3,0.1-0.4,0l-0.4-0.1L225.7,178.7
		L225.7,178.7z M220.5,172.7l0.9,0.4l0.9,0.5l0.8,0.5l0.8,0.6l0.6,0.6l0.5,0.6l0.4,0.8l0.6-1.6V175c0,0,0,0,0-0.1l0.1-0.4v-0.1
		l0.4-1l0,0l0,0l0.3-0.5l0,0l1.1-3.2l0,0l0.1-0.5c0-0.1,0-0.3,0-0.4v-0.4v-0.1l-0.1,0.1l-0.8,0.6l-0.4,0.3l-0.1,0.1l-1.1,3.3
		c0,0,0,0,0,0.1c0,0,0,0.1-0.1,0.1l0,0l0,0c0,0-0.1,0-0.1,0.1l0,0l0,0H225h-0.1l0,0l0,0c0,0,0,0-0.1,0l-0.6-0.6l-0.8-0.5l-0.9-0.5
		l-0.9-0.5l-1-0.4l-1-0.4l-1-0.3l-1-0.1h-0.9c0,0,0,0-0.1,0h-0.1l-0.1-0.1c0,0,0-0.1-0.1-0.1v-0.1c0,0,0,0,0-0.1l0.3-0.8h-0.1
		c0,0,0,0-0.1,0s-0.1-0.1-0.1-0.1l-0.4-0.4l-0.6-0.4l-0.4-0.1l-1.4,3.9c0,0,0,0.1-0.1,0.1l-0.3,0.8l0.8-0.3l0.8-0.1l0.9-0.1h1l1,0.1
		l1,0.3l1,0.3L220.5,172.7L220.5,172.7z M226.9,174.9L226.9,174.9l0.5-0.9l0.1-0.4l-0.1-0.1l-0.4,1v0.1L226.9,174.9z M252.4,173
		l0.5,0.3l0.6,0.1h0.6h0.8l0.8-0.1l0.9-0.3l0.9-0.4l0.9-0.5l0.9-0.5l0.8-0.6l0.8-0.6l0.6-0.8l0.5-0.8l0.4-0.8l0.3-0.8l0.1-0.8v-0.6
		l-0.1-0.6l-0.1-0.5l-0.1-0.1l0,0l-0.5-0.8v0.3l-0.1,0.9l-0.4,0.9c0,0,0,0,0,0.1l-0.1,0.1H261l0,0l0,0c0,0,0,0-0.1,0h-0.1
		c0,0-0.1,0-0.1-0.1l0,0l0,0l0,0l0,0l0,0l0,0l0,0l0,0l0,0l0,0l0,0l0,0l0,0l0,0l0,0l0,0l0,0l0,0l0,0l0,0l0,0l0,0l0,0l0,0l0,0l0,0l0,0
		l-3.2-4.3l0,0l-0.6-0.9l-0.3,0.4l-0.1,0.6l-0.4,0.9l-0.5,0.9l-0.6,0.8l-0.8,0.6l-0.8,0.5l-0.9,0.4l-1,0.3l-1.1,0.1L249,166
		l-0.4,0.1l0.6,0.8l0.6,0.8c0,0,0.1,0,0.1,0.1l0.4,0.5l0,0l0.1,0.1l2.1,2.9l0,0l0,0l0,0l0,0l0,0c0,0.1,0.1,0.1,0,0.3l0,0l0,0v0.1
		l0,0l0,0l-0.1,0.1c0,0-0.1,0-0.1,0.1l0,0l0,0l0,0l0,0l0,0l0,0l0,0l0,0l0,0l0,0l0,0l0,0l0,0l0,0l-1-0.1l0.8,0.9L252.4,173z
		 M207.3,167.8l4.9,4.4l0.4-0.9l-0.3-0.4l-0.3-0.6v-0.1v-0.4v-0.1l0,0c0,0,0,0,0-0.1l0.4-0.6l0.8-1.5l0,0l0,0l0,0l0,0l0.1-0.1
		l0.4-0.3c0,0,0.1-0.1,0.3-0.1h0.4c0,0,0,0,0.1,0h0.1h0.1l0.6,0.1l1,0.5l0.3-0.4l0,0l0.1-0.1l0,0l0,0l0,0l0,0h0.1l0,0l0,0h0.1l0,0
		l0,0h0.1l0,0l0.5,0.4l0.8-0.9l-6.9-6.4l-1.8,2.3l-0.8,1.1l-0.6,1l-0.5,1l-0.4,0.9l-0.3,0.9L207.3,167.8L207.3,167.8z M222.8,170.5
		l0.3,0.1l1,0.6l1.1,0.9l0.8-2.1l-0.4,0.1l-1,0.3l-1,0.1L222.8,170.5z M208.1,170.5l0.5,0.4l0.6,0.4l1,0.3l-3-2.7v0.1l0.1,0.6
		l0.3,0.5L208.1,170.5z M246.4,169.8l1,1.3l1.8-1l0,0l0,0L249,170l-0.8-1.1L246.4,169.8z M250.5,170.6l0.5,0.4l0.5,0.1l-1-1.3v0.1
		v0.1l-0.1,0.3c0,0,0,0,0,0.1L250.5,170.6z M218.3,167.8l0.6,0.5l1,0.5l1.1,0.4l1.1,0.3l1.1,0.1l1.1-0.1l1-0.3l1-0.4l0,0l0,0l0,0
		l0,0l0.5-0.4l-0.4,0.1l-1.3,0.3H224l-1.3-0.1l-1.3-0.4l-1.1-0.5l-1.1-0.9L218.3,167.8z M239,160.5l6.8,8.7l0,0l0.4-0.1l1.5-0.9
		l-0.6-0.8l0,0l-2-2.8l0,0l0,0c0,0,0,0,0-0.1l-0.4-0.6v-0.1v-0.9v-0.1l0.3-0.9v-0.1l0.5-0.8l0.6-0.5l0,0l0,0l2.8-2l2.9-1.8l0,0
		l0.6-0.3l1-0.3h0.1h0.9h0.1l0.9,0.3c0,0,0.1,0,0.1,0.1l0.6,0.5l0,0l0,0l0,0l0,0l2.1,2.7l0,0l0.6,0.8l1.6-1.3l-6.7-8.8l-1.3,1.3
		l-2,1.8l-2.3,1.8l-2.5,1.6l-1.3,0.8l-2.5,1.4l-2.4,1.1L239,160.5z M206.1,167.6l0.4,0.6l0,0l0,0v-0.1v-0.1v-0.1l0,0l0.1-0.8
		l0.3-0.9l0.4-1l0.5-1l0.6-1l0.8-1.1l0.9-1.1l1-1.3l0,0l0,0l0,0c0,0,0-0.1,0.1-0.1l0,0l0.1-0.1l0,0l0.1-0.1l0.1-0.1c0,0,0,0,0-0.1
		l1.1-1.3l2.7-2.8l1.5-1.5l3.3-2.9l3.7-2.9l3.9-2.9l2-1.4l4.2-2.8l4.3-2.8l4.3-2.5l4.3-2.3l2.1-1l4.2-1.9l3.9-1.6l1.9-0.6l0,0h0.1
		h0.1l0.5-0.1l0,0l0,0l1.6-0.5l3.2-0.9l1.4-0.4l2.7-0.4h2.3l0,0h0.1h0.1h0.1l0,0l0,0l1,0.1l0.9,0.3l0.4,0.1l-0.5-0.8l-0.4-0.5
		l-0.8-0.5l-0.6-0.1l-1-0.1H269l-1.1,0.1l-1.4,0.1l-1.4,0.3l-1.5,0.4l-3.3,0.9l-3.7,1.3l-3.9,1.6l-2,0.9l-4.2,2l-4.3,2.3l-4.3,2.4
		l-2.1,1.3l-4.2,2.7l-4,2.8l-3.9,2.9l-3.7,2.9L215,153l-2.8,2.8l-1.3,1.4l-2.1,2.5L208,161l-0.8,1.1l-0.6,1.1l-0.5,1l-0.4,1
		l-0.4,1.1v0.6l0.1,0.5L206.1,167.6z M219.6,165.7l0.4,0.3l0.9,0.6l1,0.5l1.1,0.4l1.1,0.1h1.1l1.1-0.3l1-0.4l0.9-0.5l0.8-0.8
		l0.6-0.8l3.4-5.4l2.8-4.2l-8,3.8l0,0l0,0l0,0l0,0l-0.5,0.1l0,0l-11.9,2l0,0h-0.3H215L219.6,165.7L219.6,165.7z M231.7,165l-1.4,2.1
		l0.4-0.1l1.4-0.4l1.5-0.5l3-1.3l2.8-1.3l-1.9-1.6l0,0l0,0l-0.1-0.3c0-0.1,0-0.1,0-0.3v-0.4V161l-0.9,0.3l-0.5,0.1h-0.1h-0.3
		c-0.1,0-0.1,0-0.3-0.1l-0.1-0.1l-0.1-0.1l-0.1-0.3c0-0.1,0-0.1,0-0.3l0.1-0.3l0.1-0.3c0,0,0,0,0-0.1l0.1-0.1l0.4-0.4l1-0.9l1.3-0.8
		l1.3-0.6l0.6-0.3l0.4-0.1c0.1,0,0.1,0,0.3,0h0.4h0.1h0.3c0.1,0,0.3,0.1,0.3,0.3l0.1,0.1c0,0.1,0,0.1,0,0.3v0.3v0.1l-0.1,0.3
		l-0.4,0.4l-0.4,0.4l0,0l-0.3,0.3l0.6-0.3l2.4-1.1l2.4-1.4l2.4-1.5l1.1-0.8l2-1.6l1.1-1.1l0,0l-1.3,0.5l-0.5,0.1l-0.4,0.1h-0.4
		c-0.1,0-0.1,0-0.3-0.1l-0.1-0.1c-0.1-0.1-0.1-0.1-0.1-0.3v-0.1v-0.1l0.1-0.3v-0.1l0.1-0.1c0,0,0-0.1,0.1-0.1v-0.1l0.4-0.4l1-0.9
		l1.3-0.9l0.4-0.3l-5.7,0.9l-1.8,0.4l0,0c0.1,0,0.3,0.1,0.3,0.3l0.1,0.1c0,0.1,0,0.1,0,0.3v0.3v0.1l-0.1,0.3l-0.4,0.5l-0.4,0.4l0,0
		l-1,0.9l-1.9,1.1l-1.1,0.4l-0.5,0.1h-0.1h-0.3c0,0-0.1,0-0.1-0.1l-0.1-0.1c-0.1,0-0.1-0.1-0.1-0.3v-0.3l-0.1,0.1l0,0l0,0l0,0l0,0
		l-1.3,1.6l-3.7,5.4l0,0l0.4,0.1c0.1,0,0.3,0.1,0.3,0.1c0.1,0.1,0.1,0.3,0.1,0.4l-0.1,0.1l-0.4,0.4l-1.1,1.5L231.7,165z
		 M245.9,164.4l1,1.3l-0.3-0.4L245.9,164.4L245.9,164.4z M249.5,165.4l1.1,0.3l0.9-0.1l0.9-0.3l0.8-0.4l0.8-0.5l0.6-0.6l0.5-0.6
		l0.4-0.8l0.3-0.8l0.1-0.5l-1-1l-1.3-1.4l-1.1-1.3l-2.1,1.3l-3,2.1l0.8,1.4l0.8,1.8L249.5,165.4z M246.1,162l2.3,3.5h0.3l-0.5-1.1
		l-0.8-1.6l-0.8-1.4l-0.5,0.4l0,0V162z M260.3,163.4l0.8,1.5l0,0l0.1-0.8v-0.6l-0.1-0.3l0,0l0,0l-0.3,0.1h-0.1H260.3
		C260.4,163.4,260.3,163.4,260.3,163.4z M260.6,162.3C260.8,162.3,260.8,162.3,260.6,162.3l0.1,0.1l0.1-0.1l0,0l0,0l1.3-0.9
		l-0.3-0.3l-0.8-1l-1.6,1.3L260.6,162.3z M253.3,157.2l0.9,1.1l2.1,2.1l0.1-0.3l-0.4-0.5l0,0l0,0l0,0l0,0l-0.9-1.4l0,0l-0.8-1.1
		h-0.3c-0.1,0-0.3-0.1-0.3-0.1l0,0l-0.5,0.3C253.3,157.2,253.3,157.2,253.3,157.2L253.3,157.2z M215.6,160.2L215.6,160.2l11.1-1.8
		v-0.4l-3.3,0.6l-7.8,1.3V160.2z M213.9,159.1l0.8,0.3l1-1.1l2.7-2.7l1.5-1.4l3.2-2.8l3.5-2.8l3.8-2.8l4-2.8l4-2.7l2-1.3l4.2-2.4
		l4.2-2.1l4-1.9l1.9-0.9l1.9-0.8l1.6-0.6l0.1-0.8l0,0l0.3-1.1l-1.1,0.4l-3.9,1.6l-4.2,1.9l-2.1,1l-4.3,2.3l-4.3,2.5l-4.3,2.7
		l-4.2,2.8l-2,1.4l-3.9,2.9l-3.5,2.9l-3.3,2.9l-2.9,2.8l-1.9,2L213.9,159.1L213.9,159.1z M257.5,131.8l-2.8,1.1l-2,0.9l-4,2
		l-2.1,1.1l-4.3,2.4l-4.2,2.5l-2.1,1.4l-4,2.8l-5.8,4.3l-3.4,2.9l-3.2,2.9l-3.2,3.3l10.6-1.8l2.4-2.3l2.9-2.4l3.2-2.4l1.6-1.1
		l3.4-2.3l3.5-2.1l3.5-1.9l3.4-1.6l1.5-0.6l1.8-3L257.5,131.8z M227.8,157.8l0.1,0.3l8.6-4l-0.1-0.3l0,0L227.8,157.8z M250.3,142.4
		l-2.8,1.4l-3.4,1.9l-3.4,2l-3.3,2.1l-3.2,2.3l-2.9,2.3l-2,1.8l7.1-3.3l0,0l0.9-0.4l1.1-0.4h0.1h0.3c0.1,0,0.3,0,0.3,0.1
		c0,0,0,0.1,0.1,0.1l0,0c0,0,0-0.1,0.1-0.1l0,0l0.9-0.9l0.5-0.5l1.3-0.8l1.3-0.6l0.6-0.3c0-0.1-0.1-0.3-0.1-0.3v-0.1v-0.1l0.1-0.3
		l0.5-0.6l0.6-0.6l0,0L250.3,142.4z M257.9,153.3l0.5,0.6v-0.1c0-0.1,0-0.3,0-0.4c0.1-0.1,0.1-0.3,0.4-0.1h0.1l-0.3-0.4l-0.6,0.4
		l0,0C258,153.2,257.9,153.3,257.9,153.3L257.9,153.3L257.9,153.3L257.9,153.3L257.9,153.3L257.9,153.3z M258.9,151.9l0.9,1.5
		l6.8-6.3l-2-0.3l-0.4,0.4l-1.6,1.4l-3.4,2.8l0,0l-0.3,0.3L258.9,151.9z M255.7,150.5l1.5,1.4v-0.1l0.1-0.1l-1.8-1.5v0.3
		L255.7,150.5z M256,149.2l2,1.9l1-0.9l2.3-2.3l1.3-1.4h-0.1l-0.9-0.4l-0.3,0.1l-1.6,0.6c0,0,0,0-0.1,0l-0.4,0.1l-0.8,0.1h-0.1
		l-2.9,0.4c0,0.1,0.1,0.1,0.1,0.3v0.3v0.1l-0.1,0.3L255,149l0,0h0.5h0.1L256,149.2C255.8,149.1,255.8,149.1,256,149.2
		C256,149.1,256,149.1,256,149.2L256,149.2C256,149.1,256,149.1,256,149.2L256,149.2C256,149.1,256,149.2,256,149.2L256,149.2z
		 M246.1,147.4l0.3,0.1l0,0l6.4-5.8l-0.1-0.1l-0.3-0.1L246.1,147.4z M253.6,141.9l-6.1,5.6l4.5-0.8l5.8-0.8l1-0.3l0.9-0.4l0.8-0.5
		l0.6-0.8l0.6-0.9l0.4-1l0.3-1l0.1-1.1l-0.1-1.1l-0.3-1.1l-0.1-0.4l0,0l-2.1-6.1v0.1l-0.1,0.3l0,0l-5.8,9.7l0,0l0,0L253.6,141.9
		L253.6,141.9z M267.5,147.2h0.3h1.1l-1.4-0.1C267.5,147.1,267.5,147.1,267.5,147.2L267.5,147.2L267.5,147.2z M267.2,146.3l2.8,0.3
		l-0.1-0.1l-0.5-0.6l-0.4-0.8l-0.4-0.9l-0.1-1l-0.1-1v-1V140l0.1-1l0.3-1l0.4-1l0.4-0.9l0.5-0.8l0.5-0.8l0.6-0.6l0.5-0.4l0,0
		l-2.1-0.3h-0.1l-2.8-0.3l-0.3,0.4l-0.1,0.8l0.1,1l0,0v0.1l0,0l0,0v0.1v0.1l0.6,0.1c0,0,0,0,0.1,0h0.1l0.1,0.1v0.1v0.1
		c0,0,0,0,0,0.1l-0.4,1l-0.3,1l-0.1,1.1l-0.1,1.1v1l0.1,1l0.3,1l0.3,0.9l0.4,0.8v0.1v0.1l0,0l0,0v0.1l-0.1,0.1h-0.1l0,0h-0.1
		l-3.3-0.4l0,0l-0.1,0.1l-0.6,0.4h0.1l0.6,0.1l0,0l0,0h0.1l0.9,0.1h0.1l2.4,0.3c0,0,0,0,0.1,0C267.2,146.2,267.2,146.3,267.2,146.3z
		 M263.4,137.4v0.1l0.3,1.3l0.1,1.3l-0.1,1.4l-0.3,1.3l-0.5,1.3l-0.6,1l-0.3,0.3l0.4-0.3l0.3-0.3l0,0l0.1-0.1l0.6-0.8l0.6-0.9
		l0.5-0.9l0.4-1l0.1-1.1v-1.1l-0.1-1.1l-0.3-0.8L263.4,137.4z M264.3,144.4l1.9,0.3l-0.1-0.1l-0.3-1l-0.3-1.3l-0.3,0.6l-0.5,0.9
		L264.3,144.4z M253.2,140.5l0.3,0.1l5.4-9.1l-0.3-0.1l-0.8,1.1L253.2,140.5z M260.1,127.8l3,8.8l1.4-0.5l-0.3-0.6v-0.1l0,0l0,0
		v-0.1l0,0l0,0l0,0l0,0l0.1-0.1l0,0l0,0h0.1l0,0l0,0l0,0l0.6-0.1l-0.1-0.9V134l0.1-0.9V133l0.4-0.5c0-0.1,0.1-0.1,0.1-0.1l0.5-0.3
		h0.1c0,0,0,0,0.1,0l0,0l1.9-0.4l0,0c0.1,0,0.3-0.1,0.3,0l0.8-0.3h0.1l0,0h0.5h0.1l0.5,0.3c0,0,0,0,0.1,0l0.5,0.5l0.3,0.5l1.5,0.1
		l-2.4-7.3h-2.1l-2.5,0.4l-2.9,0.8l-1.6,0.4L260.1,127.8z M274.2,133.1h0.1l0.1-0.6v-0.8l-0.1-0.6l-0.3-0.5l-0.4-0.5l-0.4-0.4
		l-0.4-0.3L274.2,133.1z M269.9,132.6l0.9,0.1l-0.3-0.3l-0.4-0.3h-0.3h-0.3l0.1,0.1l0,0L269.9,132.6z M272.5,128l0.6,0.3l0.8,0.4
		l0.6,0.5l0.5,0.6l0.3,0.5l0.1-0.5V129l-0.1-0.8l-0.1-0.6l-0.3-0.4l-0.1-0.1l-0.4-0.4l-0.5-0.4l-0.6-0.3l-0.8-0.3h-0.4v0.1v0.3
		L272.5,128z M235.9,103.3v18.1l72.5-14.3V89.5L235.9,103.3z M235.1,100.6L235.1,100.6l0.4,0.5l0.3,0.6l0.1,0.8l72.5-13.8l-0.1-0.6
		l-0.4-0.6l-0.1-0.1l0,0l-22.1-25l-0.3-0.1l-0.4-0.1h-0.3h-0.3l0,0l-70.6,13.8l0,0l0.4,0.4l0,0l0,0l0,0l0,0L235.1,100.6L235.1,100.6
		L235.1,100.6z M219.1,517h-0.9l-2-0.1l-2-0.3l-1.8-0.4l-0.8-0.3l-1.1-0.5l-0.4-0.3c0,0,0,0-0.1-0.1l-0.3-0.3l-0.1-0.1v-0.3
		c0-0.1,0-0.1,0-0.3l0.1-0.3l0.1-0.1l0.3-0.1l0.5-0.3l0.6-0.1l0,0l0.6-0.1l1.6-0.1l1.9,0.1l2,0.3l1.9,0.4l1.6,0.5l0.8,0.3l0.6,0.3
		l0.5,0.3l0.4,0.3l0.1,0.1l0.1,0.3v0.1v0.3c0,0.1,0,0.3-0.1,0.3l-0.3,0.3c0,0,0,0-0.1,0.1l-0.3,0.1l-0.5,0.1l-0.6,0.1l-0.8,0.1
		L219.1,517z M210.8,514.5l0.3,0.3l0.4,0.3l0.6,0.3l1.5,0.4l1.8,0.4l1.9,0.3l1.9,0.1h1.6l1.3-0.3l0.6-0.3v-0.1l-0.3-0.1l-0.4-0.3
		l-0.5-0.3l-1.4-0.4l-0.9-0.3l-1.9-0.4l-2-0.3h-1.8l-1.6,0.1l-1.1,0.3l-0.4,0.3l0,0H210.8z M176.7,505.8l-2-0.1l-2-0.3l-1.9-0.4
		l-0.9-0.3l-0.8-0.3l-1.1-0.5l-0.4-0.3l-0.3-0.3l-0.1-0.1v-0.3c0-0.1,0-0.1,0-0.3l0.1-0.3l0.1-0.1l0.3-0.1l0.5-0.3l0.6-0.1l0,0
		l0.6-0.1l1.6-0.1h1.9l2,0.3l1.9,0.4l1.6,0.5l0.8,0.3l1,0.5l0.4,0.3l0.1,0.1l0.1,0.3v0.1v0.3c0,0.1,0,0.1-0.1,0.3l-0.3,0.3
		c0,0-0.1,0-0.1,0.1l-0.4,0.1l-0.5,0.1l-0.6,0.1l-0.8,0.1h-0.9L176.7,505.8z M168.1,503l0.1,0.1l0.3,0.1l1,0.5l0.6,0.3l1.6,0.4
		l0.9,0.1l1.9,0.3l1.9,0.1h1.6l1.3-0.3l0.6-0.3v-0.1l-0.3-0.3l-0.9-0.5l-0.6-0.3l-1.6-0.4l-1.9-0.4l-2-0.3h-1.9l-1.5,0.1l-1.1,0.3
		L168.1,503z M265.7,500.3h-1l-1.9-0.1l-2-0.3l-1-0.1l-1.6-0.5l-0.6-0.3l-0.6-0.3l-0.5-0.3l-0.4-0.3c0,0-0.1,0-0.1-0.1l-0.1-0.3
		c0-0.1-0.1-0.1,0-0.3v-0.3c0-0.1,0-0.1,0.1-0.1l0.1-0.3c0,0,0,0,0.1-0.1l0.3-0.1l0.5-0.1l0.6-0.1l1.5-0.1h0.9l1.9,0.1l2,0.3
		l1.9,0.4l1.5,0.5l0.6,0.3l0.5,0.3l0.4,0.3l0.3,0.3l0.1,0.1v0.3c0,0.1,0,0.1,0,0.3l-0.1,0.3c0,0,0,0.1-0.1,0.1l-0.3,0.3
		c0,0,0,0-0.1,0l-0.4,0.1l-0.6,0.1l0,0l-1.4,0.1L265.7,500.3z M256.7,497.6l0.3,0.3l0.4,0.3l0.5,0.3l1.4,0.4l0.9,0.3l1.9,0.4
		l1.9,0.3l1.9,0.1l1.5-0.1l0.6-0.1l0.8-0.3l0.1-0.1l0,0l-0.1-0.1l-0.3-0.3l-0.4-0.3l-1.3-0.5l-1.6-0.4l-1.9-0.3l-1.9-0.1h-0.9h-1.6
		l-1.3,0.3l-0.5,0.1H256.7L256.7,497.6z M232.5,489.6l-2-0.1l-2-0.3l-1.9-0.4l-1.6-0.5l-1.1-0.5l-0.4-0.3c0,0-0.1,0-0.1-0.1
		l-0.3-0.3l-0.1-0.1v-0.3c0-0.1,0-0.1,0-0.3l0.1-0.3l0.1-0.1l0.3-0.3c0,0,0,0,0.1,0l0.4-0.1l0.5-0.1l0,0l0.6-0.1l1.6-0.1h1.9l2,0.3
		l1.9,0.4l1.6,0.5l0.8,0.3l1,0.5l0.4,0.3c0,0,0,0,0.1,0.1l0.1,0.3c0,0.1,0.1,0.1,0,0.3v0.3c0,0,0,0.1-0.1,0.1l-0.1,0.3l-0.1,0.1
		l-0.4,0.1l-0.5,0.1l-1.4,0.3L232.5,489.6z M224,487.1l0.8,0.5l0.5,0.3l1.5,0.4l1.8,0.4l2,0.3l1.9,0.1h1.6l1.3-0.3l0.6-0.3v-0.1
		l-0.3-0.3l-0.9-0.5l-0.6-0.3l-1.6-0.4l-1.9-0.4l-1.9-0.3h-1.9l-1.5,0.1l-1.1,0.3l-0.5,0.3L224,487.1L224,487.1z M198.8,173.5h-0.4
		h-0.1l-0.3-0.1c-0.1,0-0.1-0.1-0.3-0.3l-0.1-0.3c0-0.1,0-0.1,0-0.3v-0.3v-0.1l0.3-0.4l0.4-0.5l0.5-0.5l1.1-0.9l1.4-0.8l0.6-0.4
		l1.1-0.4c0,0,0,0,0.1,0h0.4h0.1h0.3c0.1,0,0.1,0,0.3,0.1l0.1,0.1c0,0.1,0.1,0.1,0.1,0.3v0.3v0.1l-0.1,0.4v0.1l-0.3,0.4l-0.4,0.4
		l-0.5,0.5l-1.3,0.9l-1.3,0.8l-1.1,0.5L198.8,173.5z M198.5,172.7h0.3l0.4-0.1l1-0.4l1.3-0.8l1.1-0.8l0.5-0.4l0.6-0.6l0.1-0.1l0,0
		l-0.5,0.1l-0.8,0.8l-1.3,0.9l-1.4,0.8l-1,0.4l-0.1,0.1L198.5,172.7z M256.6,170.1C256.5,170.1,256.5,170.1,256.6,170.1h-0.4h-0.1
		l-0.4-0.1c0,0-0.1,0-0.1-0.1l-0.1-0.1l-0.1-0.1l-0.3-0.5l0,0V169v-0.1v-0.3v-0.1l0.1-0.3v-0.1l0.3-0.3l0.3-0.3c0,0,0.1,0,0.1-0.1
		l0.4-0.1l0.4-0.1h0.1h0.4h0.1l0.3,0.1l0.1,0.1l0.1,0.3c0,0,0,0.1,0.1,0.1l0.3,0.5v0.1l0.1,0.3c0,0.1,0,0.1,0,0.3l-0.1,0.4v0.1
		l-0.3,0.4c0,0,0,0.1-0.1,0.1l-0.4,0.3h-0.1L256.6,170.1L256.6,170.1z M256.2,169.3h0.3l0.3-0.1l0.3-0.1l0.1-0.3v-0.3v-0.1v0
		l-0.3-0.1h-0.3l-0.3,0.1l-0.3,0.1l-0.1,0.3v0.1v0.1l0.1,0.1L256.2,169.3z M224.9,165L224.9,165l-1-0.1h-0.1l-0.8-0.5
		c0,0-0.1,0-0.1-0.1l-0.6-0.6c0,0,0-0.1-0.1-0.1l-0.4-0.8v-0.1v-0.9v-0.1l0.4-0.8l0.1-0.1l0.6-0.5c0,0,0.1,0,0.1-0.1l0.9-0.3h0.1
		l0.9,0.1h0.1l0.9,0.4c0,0,0.1,0,0.1,0.1l0.6,0.6l0.1,0.1l0.3,0.9v0.1v0.9c0,0.1,0,0.1,0,0.1l-0.4,0.8c0,0,0,0.1-0.1,0.1l-0.6,0.5
		c0,0-0.1,0-0.1,0.1L224.9,165L224.9,165z M224.3,163.8l0.5,0.1h0.4l0.4-0.1l0.3-0.3l0.1-0.4l0.1-0.4l-0.1-0.4l-0.1-0.4l-0.3-0.4
		l-0.3-0.3l-0.5-0.1l-0.4-0.1l-0.5,0.1l-0.3,0.1l-0.3,0.3l-0.1,0.3l-0.3,0.3v0.4l0.1,0.4l0.4,0.4l0.4,0.3L224.3,163.8z M257.5,143.2
		h-0.1l-0.8-0.4c0,0-0.1,0-0.1-0.1l-0.6-0.6c0,0,0-0.1-0.1-0.1l-0.4-0.9v-0.1l-0.1-0.9v-0.1l0.3-0.9v-0.1l0.5-0.6l0.1-0.1l0.6-0.4
		h0.1h0.8c0.1,0,0.1,0,0.1,0l0.8,0.4c0,0,0.1,0,0.1,0.1l0.6,0.6c0,0,0,0.1,0.1,0.1l0.4,0.9v0.1l0.1,0.9v0.1l-0.3,0.9
		c0,0,0,0.1-0.1,0.1l-0.5,0.6l-0.1,0.1l-0.6,0.4h-0.1H257.5L257.5,143.2z M257.4,141.9l0.4,0.1h0.4l0.3-0.1l0.3-0.3l0.3-0.4l0.1-0.4
		v-0.5l-0.1-0.4l-0.3-0.4l-0.3-0.3l-0.4-0.3l-0.3-0.1h-0.3l-0.3,0.1l-0.3,0.3l-0.3,0.4l-0.1,0.4v0.5l0.1,0.5l0.1,0.4l0.3,0.4H257.4z
		 M243,98.6h-0.1h-0.3h-0.1l-0.3-0.1h-0.1l-0.4-0.4l0,0L223,76.8l0,0l0,0l-0.1-0.3v-0.1v-0.1c-0.1-0.1-0.1-0.3,0-0.4v-0.1v-0.1
		c0-0.1,0.1-0.3,0.4-0.3l2.7-1.1c0,0,0,0,0.1,0l0,0l53.2-10.4c0,0,0,0,0.1,0l0,0c0,0,0,0,0.1,0L280,64c0,0,0,0,0.1,0l0,0l0,0
		c0,0,0,0,0.1,0l0.3,0.3l0.4,0.4l0,0l0,0l0,0l0,0l18.9,21.7v0.1c0,0,0,0,0,0.1l0,0l0,0l0,0l0,0l0,0l0,0l0,0l0,0l0,0l0,0l0,0l0,0l0,0
		l0,0l0,0c0,0,0,0,0,0.1l0,0l0,0v0.1l0,0l0,0l0,0l0,0l0,0l0,0l0,0l0,0V87l0,0c0,0,0,0,0,0.1l-0.4,0.5l0,0v0.1l-0.1,0.1h-0.1l0,0l0,0
		l0,0l0,0l0,0l0,0l0,0l0,0l0,0l0,0L243,98.6C243.1,98.6,243,98.6,243,98.6z M242.8,97.8h0.1l0,0l55.4-10.7l0.3-0.4l-0.8-0.5
		L245,96.5c0,0,0,0-0.1,0h-0.1c0,0-0.1,0-0.1-0.1l0,0L225.9,75l-2.3,1l0.1,0.1l18.9,21.5L242.8,97.8z M226.7,74.9L245,95.7
		l52.7-10.2l-18.3-20.7H279L226.7,74.9z M248.3,92.8H248h-0.1h-0.1l-0.5-0.1l-0.5-0.3l-0.5-0.4l-1-0.8l-0.4-0.4l0,0l-10.7-12.3l0,0
		l-0.4-0.4l-0.3-0.5l-0.1-0.5l-0.1-0.5v-0.1v-0.3v-0.1l0.1-0.3c0,0,0-0.1,0.1-0.1l0.3-0.1l0.1-0.1l0.4-0.1l0,0l0,0l0,0l0,0l41.2-8
		c0,0,0,0,0.1,0h0.4h0.5l1.1,0.4l1.1,0.6l0.5,0.4l0.4,0.4l0,0l10.7,12.3l0,0l0.4,0.4l0.3,0.5l0.1,0.5l0.1,0.4v0.1v0.4V84l-0.1,0.3
		c0,0,0,0.1-0.1,0.1l-0.3,0.3c0,0-0.1,0-0.1,0.1l-0.4,0.1l0,0L249,92.9c0,0,0,0-0.1,0l0,0L248.3,92.8z M248.3,92h0.4l41.4-8.1
		l0.1-0.1v-0.1v-0.3v-0.3l-0.1-0.4l-0.3-0.4l-0.3-0.4l-11.1-12.6l-0.4-0.4l-0.9-0.6l-0.9-0.3h-0.4h-0.3l-41.4,8.1l-0.1,0.1l-0.1,0.1
		v0.3v0.4l0.1,0.3l0.3,0.4l0.3,0.4l11.1,12.6l0.9,0.6l0.5,0.3l0.9,0.3L248.3,92z"/>
</g>
<g>
	<polygon class="st0" points="334.1,574 330.6,576.2 346,574.9 331,571.2 	"/>
</g>
<g>
	<rect x="438.5" y="171.4" class="st0" width="0.8" height="351.9"/>
</g>
<g>
	<polygon class="st0" points="439,533.1 436.3,517.6 438.8,521.2 441.4,517.6 	"/>
</g>
<g>
	<polygon class="st0" points="122,515.4 119.3,500 121.8,503.4 124.4,500 	"/>
</g>
<g>
	<polygon class="st0" points="121.7,66.8 119.2,82.2 121.7,78.7 124.4,82.2 	"/>
</g>
<g>
	<polygon class="st0" points="57.9,545.1 73.5,544.5 69.7,546.7 72.7,549.7 	"/>
</g>
<g>
	<polygon class="st0" points="353.1,509.2 340.5,518 342.5,514.2 338.3,513.4 	"/>
</g>
<g>
	<polygon class="st0" points="302.3,534.2 315.2,525.4 313.2,529.1 317.3,530 	"/>
</g>
<g>
	<polygon class="st0" points="439.2,164.4 436.8,179.8 439.3,176.3 441.9,179.8 	"/>
</g>
<g>
	<g>
		<path class="st0" d="M341,578l-0.4-0.6l78.4-46.5l-90.9-8.7l-16,8.1l-0.4-0.6l14.9-7.5l-59.4-5.7l0.1-0.8l60.6,5.8l20.5-10.2
			l0.4,0.6l-19.3,9.7l117.3,11.2l-0.3,0.5l-26.4-2.5v0.1L341,578z M338.1,574.5L63.9,546.6l0.1-0.8l274.2,28L338.1,574.5z
			 M45.1,549.7l-0.3-0.8l96.1-30.8l-23.4-2.7l0.1-0.8l25.1,2.9v0.4l0.1,0.4L45.1,549.7z M326.8,537l-91.6-8.8l0.1-0.8l91.6,8.8
			L326.8,537z M366.2,510.2l-12.6-0.8l-0.3,0.1v-0.1l-58.2-3.5v-0.8l58.3,3.7l37.9-17.9l0.4,0.8l-36.6,17.3l11.2,0.8L366.2,510.2z
			 M122.2,503.3h-0.8v-426h0.8V503.3z M211.5,76.1L108,65.9l0.1-0.8l103.6,10.2L211.5,76.1z"/>
	</g>
</g>
<g>
	
		<rect x="169.7" y="539.6" transform="matrix(0.9329 -0.3602 0.3602 0.9329 -180.812 109.5975)" class="st1" width="67.9" height="0.6"/>
</g>
<g>
	<polygon class="st0" points="181.1,549 165.5,549.2 169.3,547.2 166.4,544 	"/>
</g>
<g>
	
		<rect x="133.4" y="502.5" transform="matrix(0.1091 -0.994 0.994 0.1091 -420.7775 616.9352)" class="st0" width="0.8" height="81.5"/>
</g>
<g>
	<polygon class="st0" points="82.1,537.6 97.5,536.6 93.8,538.9 97,541.8 	"/>
</g>
<g>
	<path class="st0" d="M151.6,375.1h-0.8v-34h0.8V375.1z M363.2,324.5h-0.8v-24.4h0.8V324.5z"/>
</g>
<g>
	
		<rect x="156.6" y="346.6" transform="matrix(0.9752 -0.2211 0.2211 0.9752 -70.3291 65.6545)" class="st0" width="203.1" height="0.6"/>
</g>
<g>
	<polygon class="st0" points="362.8,323.2 348.7,329.5 351.3,326.1 347.4,324.4 	"/>
</g>
<g>
	<polygon class="st0" points="151.6,371.1 166,365.3 163.3,368.6 167.1,370.4 	"/>
</g>
<g>
	<g>
		<path class="st0" d="M439.7,165.7H439v-99h0.8V165.7z M270.9,114.8h-0.8V44.3h0.8V114.8z M431.1,72.7l-154-15.4l0.1-0.8l154,15.3
			L431.1,72.7z"/>
	</g>
</g>
<g>
	<polygon class="st0" points="438.8,72.7 423.8,68.9 427.1,71.8 423.4,74.1 	"/>
</g>
<g>
	<polygon class="st0" points="270.5,56.4 285.5,60.3 282.4,57.6 285.9,55.2 	"/>
</g>
<g>
	<g>
		<path class="st0" d="M438.1,165.5L438.1,165.5h-0.6h-0.1l-0.6-0.3l-0.6-0.4l-0.6-0.5l-0.5-0.6l-0.4-0.8l-0.4-0.9l-0.3-1l-0.1-1v-1
			V158l0.1-1l0.3-1l0.4-1l0.4-0.9l0.5-0.9l0.5-0.8l0.6-0.6l0.6-0.5l0.6-0.3l0.6-0.1h0.1h0.6l0.6,0.3l0.6,0.4l0.6,0.5l0.5,0.6
			l0.4,0.8l0.4,0.9l0.3,1l0.1,1v1v1l0,1.3l-0.3,1l-0.3,1l-0.4,0.9l-0.5,0.8l-0.5,0.8l-0.6,0.6l-0.6,0.5l-0.6,0.3L438.1,165.5
			L438.1,165.5z M437.6,164.8h0.5l0.5-0.1l0.5-0.3l0.5-0.4l0.5-0.5l0.5-0.6l0.4-0.8l0.4-0.9l0.3-0.9l0.3-1l0.1-1v-1v-1l-0.1-1
			l-0.3-0.9l-0.3-0.8L441,153l-0.4-0.5l-0.5-0.4l-0.5-0.3l-0.5-0.1h-0.5l-0.5,0.1l-0.4,0.1l-0.5,0.4l-0.5,0.5l-0.5,0.6l-0.4,0.8
			l-0.4,0.9l-0.3,0.9l-0.3,1l-0.1,1v1v1l0.1,0.9l0.3,0.9l0.3,0.8l0.4,0.6l0.4,0.6l0.5,0.4l0.5,0.3L437.6,164.8z"/>
	</g>
</g>
<g>
	<path class="st0" d="M340.4,53l1.5,0.2l-0.1,1.3l-1.5-0.2l-0.2,2.3l-1.4-0.1l0.2-2.3l-6.3-0.7l8.8-9.8L340.4,53z M339.1,52.9
		l0.6-5.4l-4.5,5L339.1,52.9z"/>
	<path class="st0" d="M351.2,46.6l-6.7-0.7l0.1-1.3l9,1L344,57.3l-1-0.8L351.2,46.6z"/>
	<path class="st0" d="M360.7,55.4c-0.2,1.9-1.6,3.5-4.2,3.2s-3.6-2.1-3.4-4c0.1-1.3,0.9-2.4,2.2-2.8c-0.9-0.7-1.3-1.7-1.2-2.9
		c0.2-1.8,1.5-3.3,3.8-3.1c2.2,0.2,3.2,2,3,3.8c-0.1,1.1-0.7,2.1-1.8,2.5C360.4,52.9,360.9,54,360.7,55.4z M359.4,55.2
		c0.1-1.4-0.7-2.5-2.1-2.6c-1.4-0.2-2.5,0.7-2.7,2.1c-0.2,1.4,0.7,2.5,2.1,2.7S359.2,56.6,359.4,55.2z M359.7,49.5
		c0.1-1.3-0.7-2.3-1.9-2.4c-1.1-0.1-2.2,0.6-2.3,2c-0.1,1.2,0.7,2.2,1.9,2.3C358.5,51.5,359.5,50.7,359.7,49.5z"/>
</g>
<g>
	<path class="st0" d="M430.8,348.7c1.9,0,3.6,1.3,3.6,3.8c0,2.5-1.7,3.8-3.6,3.8c-1.3,0-2.5-0.6-3-1.9c-0.6,1-1.6,1.5-2.7,1.5
		c-1.8,0-3.4-1.2-3.4-3.4c0-2.2,1.7-3.4,3.4-3.4c1.2,0,2.1,0.5,2.7,1.5C428.4,349.3,429.5,348.7,430.8,348.7z M425.1,350.3
		c-1.4,0-2.2,1-2.2,2.1s0.8,2.1,2.2,2.1c1.2,0,2.1-0.9,2.1-2.1S426.3,350.3,425.1,350.3z M430.8,350c-1.4,0-2.4,1-2.4,2.4
		c0,1.4,1,2.4,2.4,2.4c1.4,0,2.4-1,2.4-2.4C433.2,351,432.2,350,430.8,350z"/>
	<path class="st0" d="M430.8,338.1c1.9,0,3.6,1.3,3.6,3.8c0,2.5-1.7,3.8-3.6,3.8c-1.3,0-2.5-0.6-3-1.9c-0.6,1-1.6,1.5-2.7,1.5
		c-1.8,0-3.4-1.2-3.4-3.4c0-2.2,1.7-3.4,3.4-3.4c1.2,0,2.1,0.5,2.7,1.5C428.4,338.7,429.5,338.1,430.8,338.1z M425.1,339.8
		c-1.4,0-2.2,1-2.2,2.1s0.8,2.1,2.2,2.1c1.2,0,2.1-0.9,2.1-2.1S426.3,339.8,425.1,339.8z M430.8,339.5c-1.4,0-2.4,1-2.4,2.4
		c0,1.4,1,2.4,2.4,2.4c1.4,0,2.4-1,2.4-2.4C433.2,340.5,432.2,339.5,430.8,339.5z"/>
	<path class="st0" d="M434.3,336.4l-5.2-4.5c-0.4-0.3-1.4-1.2-1.8-1.5c-0.8-0.6-1.4-0.7-1.9-0.7c-1.4,0-2.4,1-2.4,2.5
		c0,0.9,0.4,1.6,1.1,2.1c0.4,0.2,0.8,0.4,1.5,0.4l0,1.4c-1.2-0.1-2-0.4-2.6-0.9c-0.6-0.5-1.3-1.4-1.3-2.9c0-2.2,1.6-3.8,3.7-3.8
		c0.8,0,1.6,0.2,2.7,1c0.7,0.5,1.5,1.2,2.1,1.7l2.9,2.6l0-5.2l1.3,0L434.3,336.4z"/>
</g>
<g>
	<path class="st0" d="M250.4,358.9l-6.7,1.1l-0.2-1.2l9-1.5l-6,13.9l-1.2-0.5L250.4,358.9z"/>
	<path class="st0" d="M257,368.6l2.1-4.4c-0.3,0.2-0.7,0.3-1.1,0.3c-2.3,0.4-4.3-1.1-4.6-3.3c-0.4-2.4,1-4.5,3.5-4.9
		c2.9-0.5,4.6,1.5,4.9,3.4c0.1,0.5,0.2,1.6-0.5,3l-3.2,6.5L257,368.6z M254.8,360.9c0.3,1.6,1.7,2.6,3.4,2.3
		c1.7-0.3,2.6-1.7,2.4-3.3c-0.3-1.6-1.7-2.7-3.4-2.4C255.4,357.8,254.5,359.3,254.8,360.9z"/>
	<path class="st0" d="M272.3,362.9c0.3,1.9-0.6,3.8-3.1,4.2s-4-1-4.3-2.9c-0.2-1.3,0.2-2.5,1.3-3.3c-1.1-0.4-1.7-1.3-1.9-2.4
		c-0.3-1.7,0.6-3.6,2.8-4c2.2-0.4,3.7,1.1,3.9,2.8c0.2,1.1-0.2,2.2-1,2.9C271.3,360.6,272.1,361.6,272.3,362.9z M269.7,357.6
		c-0.2-1.3-1.3-2-2.5-1.8s-1.9,1.2-1.7,2.5c0.2,1.2,1.3,2,2.4,1.7C269.2,359.9,269.9,358.8,269.7,357.6z M271,363.1
		c-0.2-1.4-1.4-2.2-2.8-1.9c-1.4,0.2-2.2,1.4-2,2.7c0.2,1.4,1.4,2.2,2.8,2C270.4,365.7,271.2,364.5,271,363.1z"/>
</g>
<g>
	<path class="st0" d="M244.4,549.7l-6.7-0.7l0.1-1.3l9.1,0.9l-9.5,11.8l-1-0.8L244.4,549.7z"/>
	<path class="st0" d="M254.1,550.7l-4-0.4l-1.1,2.6c0.2,0,0.5,0,0.8,0c2.5,0.2,3.9,2.3,3.7,4.7c-0.3,2.8-2.5,4.2-4.9,4
		c-1-0.1-1.9-0.5-2.7-1.2c-0.4-0.4-0.7-0.8-0.9-1.4l1.2-0.7c0.2,0.4,0.4,0.7,0.7,1.1c0.5,0.5,1.1,0.9,1.9,0.9
		c1.7,0.2,3.2-1.1,3.3-2.9c0.2-1.8-1-3.2-2.7-3.3c-0.4,0-1.3,0-2.5,0.6l2.4-5.8l4.9,0.5L254.1,550.7z"/>
	<path class="st0" d="M254.7,561.9l5-4.8c0.3-0.3,1.3-1.2,1.6-1.7c0.6-0.7,0.8-1.3,0.9-1.8c0.1-1.4-0.8-2.5-2.2-2.6
		c-0.9-0.1-1.6,0.2-2.2,0.9c-0.3,0.3-0.5,0.8-0.5,1.4l-1.4-0.1c0.2-1.2,0.6-2,1.2-2.5c0.6-0.5,1.5-1.1,3-1c2.2,0.2,3.7,1.9,3.5,4
		c-0.1,0.8-0.4,1.6-1.2,2.5c-0.6,0.7-1.3,1.4-1.9,1.9l-2.9,2.7l5.2,0.5l-0.1,1.3L254.7,561.9z"/>
</g>
<g>
	<path class="st0" d="M357.9,503.8l1.7-6.7c0.1-0.5,0.4-1.7,0.5-2.3c0.1-1,0-1.6-0.2-2c-0.6-1.2-2-1.7-3.3-1.1
		c-0.8,0.4-1.3,1.1-1.4,1.9c-0.1,0.4,0,0.9,0.3,1.5l-1.2,0.6c-0.5-1.1-0.5-2-0.3-2.7c0.2-0.8,0.7-1.8,2.1-2.4c2-1,4.1-0.3,5.1,1.6
		c0.4,0.7,0.5,1.5,0.3,2.8c-0.1,0.9-0.4,1.9-0.6,2.6l-1,3.8l4.7-2.3l0.6,1.1L357.9,503.8z"/>
	<path class="st0" d="M372.4,492.7c0.9,1.7,0.5,3.8-1.8,4.9c-2.3,1.1-4.2,0.2-5-1.6c-0.6-1.2-0.6-2.5,0.3-3.5
		c-1.1-0.1-2-0.7-2.6-1.8c-0.8-1.6-0.5-3.6,1.5-4.6c2-1,3.8,0,4.6,1.6c0.5,1,0.5,2.1-0.1,3.1C370.8,490.8,371.8,491.5,372.4,492.7z
		 M368.4,488.3c-0.6-1.2-1.9-1.5-2.9-1c-1,0.5-1.5,1.7-0.9,2.9c0.5,1.1,1.8,1.5,2.8,1S368.9,489.4,368.4,488.3z M371.2,493.3
		c-0.6-1.2-1.9-1.7-3.2-1c-1.3,0.6-1.7,1.9-1.1,3.2c0.6,1.3,2,1.7,3.2,1.1C371.4,495.9,371.8,494.5,371.2,493.3z"/>
	<path class="st0" d="M376.4,492.7c-1.3-0.7-2.4-1.9-3.1-3.5c-0.8-1.6-1.1-3.2-0.9-4.6c0.2-1.7,1.1-2.6,2-3.1
		c0.9-0.4,2.2-0.6,3.7,0.3c1.3,0.7,2.4,1.9,3.1,3.5c0.8,1.6,1.1,3.2,0.9,4.6c-0.2,1.7-1.1,2.6-2,3.1
		C379.2,493.4,377.9,493.5,376.4,492.7z M373.7,484.8c-0.1,1.2,0.3,2.6,0.9,3.8c0.6,1.2,1.4,2.3,2.5,3c1,0.6,2,0.6,2.5,0.3
		s1.2-1,1.3-2.2c0.1-1.2-0.3-2.6-0.9-3.8s-1.4-2.3-2.5-3c-1-0.6-2-0.6-2.5-0.3C374.4,482.9,373.8,483.6,373.7,484.8z"/>
</g>
<g>
	<path class="st0" d="M126.5,539.3l5.1-4.6c0.4-0.3,1.3-1.2,1.7-1.6c0.6-0.7,0.9-1.3,0.9-1.8c0.2-1.4-0.7-2.5-2.2-2.7
		c-0.9-0.1-1.6,0.2-2.2,0.8c-0.3,0.3-0.5,0.8-0.6,1.4l-1.4-0.2c0.2-1.2,0.7-1.9,1.2-2.4c0.6-0.5,1.5-1.1,3.1-0.9
		c2.2,0.3,3.6,2,3.3,4.1c-0.1,0.8-0.4,1.6-1.3,2.5c-0.6,0.7-1.4,1.3-1.9,1.8l-2.9,2.6l5.2,0.6l-0.2,1.3L126.5,539.3z"/>
	<path class="st0" d="M144,529.4l-3.3,3.6c0.4-0.1,0.7-0.1,1.1,0c2.4,0.3,3.8,2.3,3.5,4.5c-0.3,2.5-2.3,4-4.7,3.7
		c-2.9-0.4-4-2.8-3.7-4.7c0.1-0.5,0.3-1.5,1.4-2.7l4.9-5.3L144,529.4z M143.9,537.4c0.2-1.6-0.9-3-2.5-3.2s-3,0.9-3.2,2.5
		c-0.2,1.6,0.8,3.1,2.5,3.3C142.4,540.2,143.7,539.1,143.9,537.4z"/>
	<path class="st0" d="M148.1,540.3c-0.7-1.3-0.9-2.9-0.7-4.7c0.2-1.8,0.8-3.3,1.8-4.4c1.1-1.2,2.4-1.6,3.4-1.5
		c1,0.1,2.2,0.8,2.9,2.2c0.7,1.3,0.9,2.9,0.7,4.7c-0.2,1.8-0.8,3.3-1.8,4.4c-1.1,1.2-2.4,1.6-3.4,1.5S148.9,541.8,148.1,540.3z
		 M150.1,532.2c-0.8,1-1.2,2.3-1.4,3.6c-0.2,1.3-0.1,2.7,0.4,3.9c0.5,1.1,1.3,1.5,2,1.6c0.6,0.1,1.5-0.2,2.3-1.1
		c0.8-1,1.2-2.3,1.4-3.6c0.2-1.3,0.1-2.7-0.4-3.9c-0.5-1.1-1.3-1.5-2-1.6C151.8,531,150.9,531.2,150.1,532.2z"/>
</g>
<g>
	<path class="st0" d="M105.9,307.2l0,2.1l-1.3-0.7l0-2.7l12.4,0l0,1.4L105.9,307.2z"/>
	<path class="st0" d="M115.4,300.6c-1.2,0.8-2.8,1.2-4.6,1.2c-1.8,0-3.4-0.4-4.5-1.3c-1.4-0.9-1.9-2.2-1.9-3.2c0-1,0.5-2.2,1.9-3.2
		c1.2-0.8,2.8-1.2,4.6-1.2s3.4,0.4,4.5,1.3c1.4,0.9,1.9,2.2,1.9,3.2C117.3,298.4,116.8,299.7,115.4,300.6z M107.1,299.6
		c1.1,0.7,2.5,0.9,3.8,0.9c1.3,0,2.7-0.2,3.8-0.9c1-0.6,1.4-1.5,1.4-2.1c0-0.6-0.3-1.5-1.4-2.1c-1.1-0.7-2.5-0.9-3.8-0.9
		c-1.3,0-2.7,0.2-3.8,0.9c-1,0.6-1.4,1.5-1.4,2.1C105.7,298.1,106,298.9,107.1,299.6z"/>
	<path class="st0" d="M105.9,283.3l0,4l2.7,0.8c-0.1-0.2-0.1-0.5-0.1-0.8c0-2.5,1.9-4.1,4.3-4.1c2.8,0,4.5,2.1,4.4,4.5
		c0,1-0.3,1.9-1,2.8c-0.3,0.4-0.8,0.8-1.3,1.1l-0.8-1.1c0.4-0.2,0.7-0.5,1-0.8c0.4-0.5,0.7-1.2,0.7-2c0-1.7-1.4-3-3.2-3
		c-1.8,0-3,1.3-3,3c0,0.4,0.1,1.3,0.9,2.4l-6-1.8l0-4.9L105.9,283.3z"/>
	<path class="st0" d="M113.5,274l0-1.5l1.3,0l0,1.5l2.3,0l0,1.4l-2.3,0l0,6.4L104,274L113.5,274z M113.5,275.4l-5.5,0l5.5,3.9
		L113.5,275.4z"/>
</g>
</svg>
