<?xml version="1.0" encoding="utf-8"?>
<!-- Generator: Adobe Illustrator 23.0.3, SVG Export Plug-In . SVG Version: 6.00 Build 0)  -->
<svg version="1.1" id="Слой_1" xmlns="http://www.w3.org/2000/svg" xmlns:xlink="http://www.w3.org/1999/xlink" x="0px" y="0px"
	 viewBox="0 0 500 600" style="enable-background:new 0 0 500 600;" xml:space="preserve">
<style type="text/css">
	.st0{fill:none;stroke:#4E86B9;stroke-width:0.6;stroke-linecap:round;stroke-linejoin:round;stroke-miterlimit:10;}
	.st1{enable-background:new    ;}
	.st2{fill:#4E86B9;}
</style>
<g>
	<line class="st0" x1="267.8" y1="143.4" x2="261.7" y2="136.6"/>
	<line class="st0" x1="261.7" y1="136.6" x2="255.5" y2="125.3"/>
	<line class="st0" x1="304.4" y1="155.8" x2="304.1" y2="155.7"/>
	<line class="st0" x1="304.6" y1="156.3" x2="304.6" y2="156"/>
	<line class="st0" x1="304.6" y1="156" x2="304.4" y2="155.8"/>
	<line class="st0" x1="304.4" y1="155.8" x2="304.6" y2="156"/>
	<line class="st0" x1="304.6" y1="156" x2="304.6" y2="156.3"/>
	<line class="st0" x1="304.6" y1="156.3" x2="304.4" y2="156.5"/>
	<line class="st0" x1="304.4" y1="156.5" x2="297" y2="163.1"/>
	<line class="st0" x1="260.9" y1="175.3" x2="259.2" y2="177.9"/>
	<line class="st0" x1="247.5" y1="169.3" x2="249.8" y2="166"/>
	<line class="st0" x1="262.4" y1="89.8" x2="262.4" y2="114.7"/>
	<line class="st0" x1="263.2" y1="183.6" x2="274.9" y2="196.6"/>
	<line class="st0" x1="274" y1="196.6" x2="262.1" y2="183.4"/>
	<line class="st0" x1="241.4" y1="121.4" x2="239.2" y2="127.9"/>
	<line class="st0" x1="286.5" y1="170.1" x2="286.3" y2="170.1"/>
	<line class="st0" x1="287.9" y1="154.5" x2="279" y2="151.1"/>
	<line class="st0" x1="303.7" y1="171.5" x2="308.6" y2="167.1"/>
	<line class="st0" x1="262.4" y1="115.3" x2="225.2" y2="115.3"/>
	<line class="st0" x1="317.9" y1="71" x2="308.9" y2="74.7"/>
	<line class="st0" x1="289.4" y1="84.8" x2="289.4" y2="128.8"/>
	<line class="st0" x1="224.4" y1="88.7" x2="263" y2="88.7"/>
	<line class="st0" x1="288.7" y1="84.1" x2="350.5" y2="63.3"/>
	<line class="st0" x1="350.5" y1="63.3" x2="363.8" y2="57.9"/>
	<line class="st0" x1="289.4" y1="84.8" x2="350.2" y2="64.5"/>
	<line class="st0" x1="363.7" y1="196.6" x2="363.7" y2="59.1"/>
	<line class="st0" x1="259.2" y1="177.9" x2="147.9" y2="334.7"/>
	<line class="st0" x1="223.8" y1="82.9" x2="262.4" y2="62.8"/>
	<line class="st0" x1="262.4" y1="62.8" x2="273.6" y2="58.2"/>
	<line class="st0" x1="224.1" y1="114.7" x2="224.1" y2="89.8"/>
	<line class="st0" x1="262.4" y1="89.8" x2="224.1" y2="89.8"/>
	<line class="st0" x1="264" y1="165.2" x2="264.9" y2="163.6"/>
	<line class="st0" x1="240" y1="142.6" x2="73" y2="142.6"/>
	<line class="st0" x1="250.5" y1="140.3" x2="246.5" y2="140.3"/>
	<line class="st0" x1="248.2" y1="130.6" x2="246.7" y2="130.6"/>
	<line class="st0" x1="246.7" y1="130.6" x2="248.2" y2="130.6"/>
	<line class="st0" x1="289.8" y1="170.1" x2="288.3" y2="166.1"/>
	<line class="st0" x1="299.1" y1="166.5" x2="298.3" y2="165"/>
	<line class="st0" x1="350.2" y1="185.5" x2="350.2" y2="64.5"/>
	<line class="st0" x1="350.2" y1="64.5" x2="364.9" y2="58.5"/>
	<line class="st0" x1="240.1" y1="128" x2="73.3" y2="128"/>
	<line class="st0" x1="247.3" y1="128" x2="240.1" y2="128"/>
	<line class="st0" x1="249.4" y1="142.6" x2="240" y2="142.6"/>
	<line class="st0" x1="254.8" y1="71" x2="245.7" y2="74.7"/>
	<line class="st0" x1="219.2" y1="118.3" x2="219.2" y2="87.1"/>
	<line class="st0" x1="262.4" y1="114.7" x2="224.1" y2="114.7"/>
	<line class="st0" x1="250.6" y1="131.2" x2="254.3" y2="121.5"/>
	<line class="st0" x1="268.7" y1="145.8" x2="255.2" y2="142.2"/>
	<line class="st0" x1="247.8" y1="163.4" x2="233" y2="142.6"/>
	<line class="st0" x1="264.4" y1="170.1" x2="266.7" y2="166.9"/>
	<line class="st0" x1="303.7" y1="171.5" x2="300.5" y2="164.5"/>
	<line class="st0" x1="298.3" y1="77.2" x2="244.8" y2="77.2"/>
	<line class="st0" x1="289.8" y1="176.6" x2="286.5" y2="169"/>
	<line class="st0" x1="300.8" y1="156.3" x2="287.9" y2="154.5"/>
	<line class="st0" x1="304.4" y1="156.5" x2="297" y2="163.1"/>
	<line class="st0" x1="363.7" y1="196.6" x2="350.2" y2="185.5"/>
	<line class="st0" x1="318.7" y1="68.8" x2="265.2" y2="68.8"/>
	<line class="st0" x1="135.8" y1="326.5" x2="247.5" y2="169.3"/>
	<line class="st0" x1="372.1" y1="331.7" x2="303.7" y2="171.5"/>
	<line class="st0" x1="358.3" y1="337.3" x2="289.8" y2="176.6"/>
	<line class="st0" x1="324" y1="531.3" x2="236.8" y2="531.3"/>
	<line class="st0" x1="327.8" y1="527.8" x2="240.3" y2="527.8"/>
	<line class="st0" x1="322.7" y1="532.7" x2="235.2" y2="532.7"/>
	<line class="st0" x1="274" y1="196.6" x2="298.4" y2="196.6"/>
	<line class="st0" x1="299.5" y1="199.2" x2="276.7" y2="199.2"/>
	<line class="st0" x1="386.1" y1="191.4" x2="386.1" y2="541.1"/>
	<line class="st0" x1="386.1" y1="541.1" x2="235.2" y2="541.1"/>
	<line class="st0" x1="370.8" y1="57.9" x2="275.4" y2="57.9"/>
	<line class="st0" x1="364.9" y1="58.5" x2="364.9" y2="196.6"/>
	<line class="st0" x1="371.3" y1="58.5" x2="364.9" y2="58.5"/>
	<path class="st0" d="M254.8,71c2.1-0.8,6.4-2.2,10.5-2.2"/>
	<path class="st0" d="M245.7,74.7c-3.3,1.4-3.3,2.5-1,2.5"/>
	<path class="st0" d="M298.3,77.2c3.5,0,8.1-1.4,10.6-2.5"/>
	<path class="st0" d="M318.7,68.8c3.2,0,1,1.6-0.8,2.2"/>
	<path class="st0" d="M273.6,58.2c0.5-0.2,1-0.2,1.7-0.2"/>
	<ellipse class="st0" cx="73" cy="135.3" rx="4.6" ry="7.3"/>
	<path class="st0" d="M135.8,326.5c-1.6,3,7.6,12.2,12.2,8.3"/>
	
		<ellipse transform="matrix(0.9272 -0.3746 0.3746 0.9272 -98.6933 161.1105)" class="st0" cx="365.1" cy="334.4" rx="7.3" ry="4.1"/>
	<path class="st0" d="M224.4,114.7c-9,0-4,9.5-1.9,13.2"/>
	<path class="st0" d="M225.1,115.3c-9,0-3.7,9-1.6,12.7"/>
	<path class="st0" d="M262.4,89.8c9-0.2,18.9-2.1,27-4.8"/>
	<path class="st0" d="M263,88.7c8.4-0.3,18.1-2.2,25.7-4.6"/>
	<path class="st0" d="M223.8,82.9c-6.4,3.7-2.7,5.7,0.6,5.7"/>
	<path class="st0" d="M223.8,82.9c-8.4,4.6-3.2,6.7,0.5,6.8"/>
	<path class="st0" d="M262.4,114.7c21.1,0.6,36.8,27.5,87.8,70.8"/>
	<path class="st0" d="M276.3,196.6c6.7,65.9,23.3,285-40.6,335.3"/>
	<line class="st0" x1="322.7" y1="532.7" x2="322.7" y2="541.1"/>
	<path class="st0" d="M322.7,532.7c0-0.5,0.3-0.6,0.5-0.8"/>
	<line class="st0" x1="235.2" y1="532.7" x2="235.2" y2="541.1"/>
	<path class="st0" d="M235.2,532.7c0-0.5,0.3-0.6,0.5-0.8"/>
	<ellipse class="st0" cx="243" cy="536.7" rx="1.6" ry="2.4"/>
	<ellipse class="st0" cx="243" cy="536.7" rx="0.5" ry="0.8"/>
	<ellipse class="st0" cx="315.4" cy="536.4" rx="1.6" ry="2.4"/>
	<ellipse class="st0" cx="315.4" cy="536.4" rx="0.5" ry="0.8"/>
	<path class="st0" d="M262.4,115.3c21.1,0.6,36.8,27.5,87.8,70.8"/>
	<path class="st0" d="M255.5,125.3c13.2,3.5,33.8,15.4,45.1,30.8"/>
	<path class="st0" d="M235.5,127.9c5.4-23,72.1,14,73,39.7"/>
	<path class="st0" d="M235.5,127.7c7.1-24.9,70.3,13.7,73.5,35.6"/>
	<path class="st0" d="M308.6,167.4c0,3.3-1.7,6-4,6"/>
	<path class="st0" d="M309.2,163.3c0.8,5.1-2.1,10.3-4.6,10.3"/>
	<path class="st0" d="M261.7,136.6c12.5,4.1,20.6,12.2,26.4,17.9"/>
	<path class="st0" d="M240.6,142.6c4.1,6.5,8.6,10.3,11.4,13"/>
	<path class="st0" d="M245.9,142.6c1.3,4.8,4.6,8.3,7.5,11.3"/>
	<path class="st0" d="M270.6,168.2c5.1,3,11.1,5.1,18.4,6.8"/>
	<path class="st0" d="M272.2,166.9c3.8,1.6,8.4,3.5,14.3,3.2"/>
	<line class="st0" x1="255.5" y1="125.3" x2="254.3" y2="121.5"/>
	<path class="st0" d="M267.8,143.4c1.9,2.2,1.9,2.5,1,2.2"/>
	<path class="st0" d="M250.6,131.2c-1.7,5.9,0.8,9.8,4.6,10.8"/>
	<path class="st0" d="M240.1,128c5.6,1.3,6.2,13.7-0.2,14.6"/>
	<path class="st0" d="M237,128c1.3-1.6,1.9-2.2,3.2-3"/>
	<path class="st0" d="M241.6,128c4-4.6,8.3,0.2,6.8,2.9"/>
	<path class="st0" d="M248.4,130.9c-1.7,5.7,2.1,10.8,5.6,10.8"/>
	<path class="st0" d="M246.7,130.6c1.3,1.7,1.3,7.3-0.2,9.7"/>
	<path class="st0" d="M244,128c1.6-1.3,4.4-0.3,4.4,2.9"/>
	<path class="st0" d="M246,142.6c5.4,1.6,10.8,3.5,11,3"/>
	<path class="st0" d="M257,145.7c1.1-1.6,1.3-2.2,3.8-2.1"/>
	<path class="st0" d="M249.5,142.6c2.1,0.3,4.4,0.3,6.8-0.3"/>
	<ellipse class="st0" cx="256.2" cy="135.5" rx="1.7" ry="2.2"/>
	<path class="st0" d="M254.6,134.4c0.5,0.5,0.5,1.6,0,2.2"/>
	<path class="st0" d="M289.8,176.6c-1.4-4.9,10.6-10.5,13.7-5.1"/>
	<path class="st0" d="M287.9,172.2c-3.2-4.8-6.4-8.6-8.4-10.8"/>
	<path class="st0" d="M280,155.8c2.4,4,0.5,5.1-0.3,5.6"/>
	<path class="st0" d="M289.8,170.1c2.2-2.2,5.6-3.8,9.2-3.7"/>
	<path class="st0" d="M305.1,170.1c0,0.6-0.3,1.7-1.1,2.2"/>
	<path class="st0" d="M302.9,169.6c2.1-2.5-0.5-7.9-5.1-4.6"/>
	<path class="st0" d="M297.8,165c-3.2,2.5-8.7,4.1-12.7-2.2"/>
	<path class="st0" d="M301.9,167.7c0.5-1.6-1.1-4.8-4.1-2.7"/>
	<path class="st0" d="M300.8,156.3c1.3-0.3,3-0.8,3.7-0.3"/>
	<path class="st0" d="M276,150.9c3.3,4,7.5,9.5,8.9,11.7"/>
	<path class="st0" d="M279,151.1c-1.1-0.5-4-1.4-3-0.2"/>
	<path class="st0" d="M297,163.1c-3.2,2.9-9.2,3.5-12.1-0.3"/>
	<path class="st0" d="M286.5,169c-0.6-2.1-0.6-3.8-0.3-4.4"/>
	<path class="st0" d="M286.5,169c-3.7-6.2-3-7.5-2.9-8.1"/>
	
		<ellipse transform="matrix(0.9848 -0.1736 0.1736 0.9848 -23.2409 52.9005)" class="st0" cx="290.8" cy="159.3" rx="2.4" ry="1.9"/>
	<path class="st0" d="M290,161.2c0.6-1,2.1-1.4,2.7-0.6"/>
	<path class="st0" d="M247.5,169.3c-1,4.6,8.7,10.5,11.7,8.6"/>
	<path class="st0" d="M234,142.6c3.8,5.4,9,13,14.1,20.2"/>
	<path class="st0" d="M233,142.6c6.4,9,9,13,14.6,20.8"/>
	<path class="st0" d="M259,178.2c1.6,2.1,3.2,4.3,4.1,5.4"/>
	<path class="st0" d="M258.6,178.8c1.1,1.6,2.5,3.3,3.5,4.6"/>
	<line class="st0" x1="249.7" y1="169.3" x2="257.8" y2="158.4"/>
	<line class="st0" x1="258.9" y1="175.7" x2="266.7" y2="164.4"/>
	<path class="st0" d="M249.7,169.3c-0.5-0.6,0-2.7,0-3.3"/>
	<path class="st0" d="M258.9,175.7c1,0,1.3-0.2,2.1-0.3"/>
	<path class="st0" d="M255.5,159.2c2.2-3.2,13.5,4.3,11.3,7.5"/>
	<line class="st0" x1="266.8" y1="166.5" x2="260.9" y2="175.3"/>
	<line class="st0" x1="255.5" y1="159.2" x2="249.8" y2="166.1"/>
	<path class="st0" d="M251.7,155.3c2.9-1.6,4.1-7,6.7-4.9"/>
	<path class="st0" d="M258.4,150.3c2.9,4.4,9.8,9.4,15.6,10.6"/>
	<path class="st0" d="M274.1,161.1c3.3,1.4-1.6,5.4-3.5,7.3"/>
	<path class="st0" d="M252.1,155.7c0.6,0.5-2.5,4.3-4.1,7.8"/>
	<path class="st0" d="M258.7,150.6c-4.6,5.9-6,9.5-10.6,14.1"/>
	<path class="st0" d="M274.1,161.1c-2.9,4.3-7.6,10.5-10.3,14.4"/>
	<path class="st0" d="M274.6,161.4c-2.2,4.4-9.2,14.8-10.8,14.1"/>
	<path class="st0" d="M255.1,163.6c1,4.1,4.1,6.2,7.5,5.1"/>
	<path class="st0" d="M254.9,163.6c1.3-0.5,3.2-3.2,4.9-4.9"/>
	<path class="st0" d="M262.5,168.8c0.6-2.2,2.1-4.9,3.2-6"/>
	<path class="st0" d="M247.8,163.4c-0.5,0.8,0.8,1.9,2.1,2.7"/>
	<path class="st0" d="M263.8,175.5c-0.8-0.3-1.7-0.8-2.2-1.1"/>
	<path class="st0" d="M258.7,150.6c-3.7,0-7.5,9.8-10.8,13"/>
	<line class="st0" x1="350.2" y1="186" x2="363" y2="196.6"/>
	<line class="st0" x1="314.3" y1="196.6" x2="364.9" y2="196.6"/>
	<line class="st0" x1="363.8" y1="199.2" x2="315.4" y2="199.2"/>
	<path class="st0" d="M363.7,196.6c7,65.9,7.1,126.9,7,131.9"/>
	<path class="st0" d="M370.7,335.7c-0.8,66.7-7.8,162.3-47.5,196.2"/>
	<path class="st0" d="M371.8,59.4c10.6,44.9,14.4,88.4,14.3,131.9"/>
	<line class="st0" x1="371.8" y1="59.4" x2="370.8" y2="57.9"/>
</g>
<line class="st0" x1="371.1" y1="57.9" x2="431.9" y2="57.9"/>
<line class="st0" x1="386.1" y1="541.1" x2="431" y2="541.1"/>
<line class="st0" x1="421.1" y1="57.9" x2="421.1" y2="541.1"/>
<line class="st0" x1="269.4" y1="541.1" x2="85.3" y2="541.1"/>
<line class="st0" x1="96.6" y1="128.5" x2="96.6" y2="541.1"/>
<g class="st1">
	<path class="st2" d="M403.6,321.5v2.1l-1.3-0.7v-2.8H415v1.4H403.6z"/>
	<path class="st2" d="M413.3,314.8c-1.2,0.8-2.9,1.3-4.7,1.3s-3.4-0.4-4.7-1.3c-1.4-1-1.9-2.2-1.9-3.3c0-1,0.5-2.3,1.9-3.3
		c1.2-0.8,2.9-1.3,4.7-1.3s3.5,0.4,4.7,1.3c1.4,1,1.9,2.2,1.9,3.3C415.2,312.5,414.7,313.8,413.3,314.8z M404.8,313.7
		c1.1,0.7,2.5,0.9,3.9,0.9s2.8-0.2,3.9-0.9c1.1-0.7,1.4-1.5,1.4-2.2c0-0.6-0.3-1.5-1.4-2.2c-1.1-0.7-2.5-0.9-3.9-0.9
		s-2.8,0.2-3.9,0.9c-1.1,0.7-1.4,1.5-1.4,2.2C403.4,312.2,403.7,313.1,404.8,313.7z"/>
	<path class="st2" d="M403.6,297v4.1l2.7,0.8c-0.1-0.2-0.1-0.5-0.1-0.8c0-2.6,1.9-4.2,4.4-4.2c2.8,0,4.6,2.1,4.6,4.6
		c0,1-0.3,2-1,2.8c-0.3,0.4-0.8,0.8-1.3,1.1l-0.8-1.1c0.4-0.2,0.7-0.5,1-0.9c0.4-0.5,0.8-1.2,0.8-2.1c0-1.8-1.5-3.1-3.3-3.1
		c-1.8,0-3.1,1.3-3.1,3.1c0,0.5,0.1,1.3,0.9,2.5l-6.1-1.8V297H403.6z"/>
	<path class="st2" d="M403.6,286.2v4.1l2.7,0.8c-0.1-0.2-0.1-0.5-0.1-0.8c0-2.6,1.9-4.2,4.4-4.2c2.8,0,4.6,2.1,4.6,4.6
		c0,1-0.3,2-1,2.8c-0.3,0.4-0.8,0.8-1.3,1.1l-0.8-1.1c0.4-0.2,0.7-0.5,1-0.9c0.4-0.5,0.8-1.2,0.8-2.1c0-1.8-1.5-3.1-3.3-3.1
		c-1.8,0-3.1,1.3-3.1,3.1c0,0.5,0.1,1.3,0.9,2.5l-6.1-1.8v-5.1H403.6z"/>
</g>
<g class="st1">
	<path class="st2" d="M90.7,323.2l-4.1-2.9c0.1,0.4,0.2,0.7,0.2,1.1c0,2.4-1.8,4.1-4.2,4.1c-2.5,0-4.4-1.8-4.4-4.4
		c0-3,2.3-4.4,4.3-4.4c0.5,0,1.6,0.1,2.9,1l6,4.3L90.7,323.2z M82.6,324.1c1.7,0,2.9-1.3,2.9-3s-1.3-3-2.9-3c-1.7,0-3,1.2-3,3
		C79.5,322.9,80.8,324.1,82.6,324.1z"/>
	<path class="st2" d="M89.5,313.6c-1.2,0.8-2.9,1.3-4.7,1.3s-3.4-0.4-4.7-1.3c-1.4-1-1.9-2.2-1.9-3.3c0-1,0.5-2.3,1.9-3.3
		c1.2-0.8,2.9-1.3,4.7-1.3s3.4,0.4,4.7,1.3c1.4,1,1.9,2.2,1.9,3.3C91.4,311.3,90.9,312.6,89.5,313.6z M80.9,312.5
		c1.1,0.7,2.5,0.9,3.9,0.9c1.3,0,2.8-0.2,3.9-0.9c1.1-0.7,1.4-1.5,1.4-2.2c0-0.6-0.3-1.5-1.4-2.2c-1.1-0.7-2.5-0.9-3.9-0.9
		c-1.3,0-2.8,0.2-3.9,0.9c-1.1,0.7-1.4,1.5-1.4,2.2C79.5,311,79.9,311.9,80.9,312.5z"/>
	<path class="st2" d="M89.5,302.8c-1.2,0.8-2.9,1.3-4.7,1.3s-3.4-0.4-4.7-1.3c-1.4-1-1.9-2.2-1.9-3.3s0.5-2.3,1.9-3.3
		c1.2-0.8,2.9-1.3,4.7-1.3s3.4,0.4,4.7,1.3c1.4,1,1.9,2.2,1.9,3.3S90.9,301.8,89.5,302.8z M80.9,301.7c1.1,0.7,2.5,0.9,3.9,0.9
		c1.3,0,2.8-0.2,3.9-0.9c1.1-0.7,1.4-1.5,1.4-2.2s-0.3-1.5-1.4-2.2c-1.1-0.7-2.5-0.9-3.9-0.9c-1.3,0-2.8,0.2-3.9,0.9
		c-1.1,0.7-1.4,1.5-1.4,2.2S79.9,301,80.9,301.7z"/>
</g>
<g id="XMLID_2_">
	<g>
		<path class="st2" d="M421.1,57.9l2.2,15.7c0,0-2.2-2.5-4.4,0L421.1,57.9z"/>
	</g>
	<g>
		<line class="st0" x1="421.1" y1="57.9" x2="418.9" y2="73.6"/>
		<line class="st0" x1="421.1" y1="57.9" x2="423.4" y2="73.6"/>
		<path class="st0" d="M423.4,73.6c0,0-2.2-2.5-4.4,0"/>
	</g>
</g>
<g id="XMLID_3_">
	<g>
		<path class="st2" d="M421.1,540.7l2.2-15.7c0,0-2.2,2.5-4.4,0L421.1,540.7z"/>
	</g>
	<g>
		<line class="st0" x1="421.1" y1="540.7" x2="418.9" y2="525"/>
		<line class="st0" x1="421.1" y1="540.7" x2="423.4" y2="525"/>
		<path class="st0" d="M423.4,525c0,0-2.2,2.5-4.4,0"/>
	</g>
</g>
<g id="XMLID_4_">
	<g>
		<path class="st2" d="M96.6,541.1l2.2-15.7c0,0-2.2,2.5-4.4,0L96.6,541.1z"/>
	</g>
	<g>
		<line class="st0" x1="96.6" y1="541.1" x2="94.4" y2="525.4"/>
		<line class="st0" x1="96.6" y1="541.1" x2="98.8" y2="525.4"/>
		<path class="st0" d="M98.8,525.4c0,0-2.2,2.5-4.4,0"/>
	</g>
</g>
<g id="XMLID_5_">
	<g>
		<path class="st2" d="M96.6,129l2.2,15.7c0,0-2.2-2.5-4.4,0L96.6,129z"/>
	</g>
	<g>
		<line class="st0" x1="96.6" y1="129" x2="94.4" y2="144.7"/>
		<line class="st0" x1="96.6" y1="129" x2="98.8" y2="144.7"/>
		<path class="st0" d="M98.8,144.7c0,0-2.2-2.5-4.4,0"/>
	</g>
</g>
<line class="st0" x1="385.3" y1="34.2" x2="385.3" y2="364.9"/>
<line class="st0" x1="71.9" y1="34.8" x2="71.9" y2="133.7"/>
<line class="st0" x1="385.3" y1="42.9" x2="71.9" y2="42.9"/>
<g class="st1">
	<path class="st2" d="M211.8,26.3h-7V25h9.3l-8.5,13l-1.1-0.7L211.8,26.3z"/>
	<path class="st2" d="M220.5,25.5l-2.9,4.1c0.4-0.1,0.7-0.2,1.1-0.2c2.4,0,4.1,1.8,4.1,4.2c0,2.5-1.8,4.4-4.4,4.4
		c-3,0-4.4-2.3-4.4-4.3c0-0.5,0.1-1.6,1-2.9l4.3-6L220.5,25.5z M221.4,33.6c0-1.7-1.3-2.9-3-2.9s-3,1.3-3,2.9c0,1.7,1.2,3,3,3
		C220.2,36.6,221.4,35.3,221.4,33.6z"/>
	<path class="st2" d="M224.1,37.7l4.6-5.4c0.3-0.4,1.2-1.4,1.5-1.8c0.6-0.8,0.7-1.4,0.7-1.9c0-1.4-1-2.5-2.5-2.5
		c-0.9,0-1.6,0.4-2.1,1.1c-0.2,0.4-0.4,0.9-0.4,1.5h-1.4c0.1-1.3,0.5-2.1,1-2.6c0.5-0.6,1.4-1.3,3-1.3c2.2,0,3.9,1.6,3.9,3.8
		c0,0.9-0.2,1.6-1,2.7c-0.5,0.7-1.2,1.5-1.7,2.1l-2.6,3h5.4v1.3H224.1z"/>
</g>
<g id="XMLID_7_">
	<g>
		<path class="st2" d="M385.3,42.9l-15.7,2.2c0,0,2.5-2.2,0-4.4L385.3,42.9z"/>
	</g>
	<g>
		<line class="st0" x1="385.3" y1="42.9" x2="369.5" y2="40.7"/>
		<line class="st0" x1="385.3" y1="42.9" x2="369.5" y2="45.2"/>
		<path class="st0" d="M369.5,45.2c0,0,2.5-2.2,0-4.4"/>
	</g>
</g>
<g id="XMLID_6_">
	<g>
		<path class="st2" d="M72.3,42.9L88,45.2c0,0-2.5-2.2,0-4.4L72.3,42.9z"/>
	</g>
	<g>
		<line class="st0" x1="72.3" y1="42.9" x2="88" y2="40.7"/>
		<line class="st0" x1="72.3" y1="42.9" x2="88" y2="45.2"/>
		<path class="st0" d="M88,45.2c0,0-2.5-2.2,0-4.4"/>
	</g>
</g>
<line class="st0" x1="322.7" y1="540.8" x2="322.7" y2="577.8"/>
<line class="st0" x1="235.2" y1="541.5" x2="235.2" y2="578.5"/>
<line class="st0" x1="322.7" y1="573.4" x2="234.7" y2="573.4"/>
<g class="st1">
	<path class="st2" d="M263.3,558.6c0-0.7,0.3-1.4,0.6-1.9c0.8-1.3,2.2-1.5,3-1.5c2.4,0,3.6,1.7,3.6,3.4c0,0.9-0.3,2.2-1.6,2.8
		c0.4,0.2,1.8,0.9,1.8,3.1c0,2.4-1.7,3.8-3.9,3.8c-1.3,0-2.9-0.6-3.5-2.2c-0.2-0.5-0.3-0.9-0.3-1.3h1.4c0.1,0.5,0.2,0.9,0.5,1.3
		c0.4,0.6,1.2,1,2,1c1.4,0,2.5-1.2,2.5-2.6c0-0.7-0.3-1.7-1.3-2.1c-0.4-0.2-1-0.3-1.4-0.3v-1.3c0.5,0,1-0.1,1.4-0.3
		c0.4-0.2,1.1-0.7,1.1-1.9c0-1.1-0.6-2.2-2.2-2.2c-0.5,0-1.1,0.1-1.6,0.7c-0.2,0.3-0.5,0.8-0.5,1.3H263.3z"/>
	<path class="st2" d="M274.7,566.4c-0.8-1.2-1.3-2.9-1.3-4.7s0.4-3.4,1.3-4.7c1-1.4,2.2-1.9,3.3-1.9c1,0,2.3,0.5,3.3,1.9
		c0.8,1.2,1.3,2.9,1.3,4.7s-0.4,3.5-1.3,4.7c-1,1.4-2.2,1.9-3.3,1.9C276.9,568.4,275.7,567.9,274.7,566.4z M275.7,557.9
		c-0.7,1.1-0.9,2.5-0.9,3.9s0.2,2.8,0.9,3.9c0.7,1.1,1.5,1.4,2.2,1.4c0.6,0,1.5-0.3,2.2-1.4c0.7-1.1,0.9-2.5,0.9-3.9
		s-0.2-2.8-0.9-3.9c-0.7-1.1-1.5-1.4-2.2-1.4C277.3,556.5,276.4,556.8,275.7,557.9z"/>
	<path class="st2" d="M292.5,556.7h-4.1l-0.8,2.7c0.2-0.1,0.5-0.1,0.8-0.1c2.6,0,4.2,1.9,4.2,4.4c0,2.8-2.1,4.6-4.6,4.6
		c-1,0-2-0.3-2.8-1c-0.4-0.3-0.8-0.8-1.1-1.3l1.1-0.8c0.2,0.4,0.5,0.7,0.9,1c0.5,0.4,1.2,0.8,2.1,0.8c1.8,0,3.1-1.5,3.1-3.3
		c0-1.8-1.3-3.1-3.1-3.1c-0.5,0-1.3,0.1-2.5,0.9l1.8-6.1h5.1V556.7z"/>
</g>
<g id="XMLID_8_">
	<g>
		<path class="st2" d="M322.7,573.4l-15.7,2.2c0,0,2.5-2.2,0-4.4L322.7,573.4z"/>
	</g>
	<g>
		<line class="st0" x1="322.7" y1="573.4" x2="307" y2="571.2"/>
		<line class="st0" x1="322.7" y1="573.4" x2="307" y2="575.6"/>
		<path class="st0" d="M307,575.6c0,0,2.5-2.2,0-4.4"/>
	</g>
</g>
<g id="XMLID_1_">
	<g>
		<path class="st2" d="M235.2,573.4l15.7,2.2c0,0-2.5-2.2,0-4.4L235.2,573.4z"/>
	</g>
	<g>
		<line class="st0" x1="235.2" y1="573.4" x2="250.9" y2="571.2"/>
		<line class="st0" x1="235.2" y1="573.4" x2="250.9" y2="575.6"/>
		<path class="st0" d="M250.9,575.6c0,0-2.5-2.2,0-4.4"/>
	</g>
</g>
<line class="st0" x1="371" y1="333.5" x2="135.4" y2="327.1"/>
<g class="st1">
	<path class="st2" d="M252.7,321.9c-0.1,2-1.4,3.7-4,3.6c-2.6-0.1-3.8-1.9-3.8-3.9c0-1.4,0.7-2.5,2-3c-1-0.6-1.5-1.7-1.4-2.8
		c0.1-1.8,1.3-3.5,3.6-3.4s3.4,1.8,3.4,3.6c0,1.2-0.6,2.2-1.6,2.7C252.1,319.3,252.7,320.5,252.7,321.9z M251.3,321.8
		c0-1.4-0.9-2.5-2.4-2.5c-1.4-0.1-2.5,0.9-2.6,2.3c-0.1,1.4,0.9,2.5,2.4,2.6C250.2,324.2,251.2,323.2,251.3,321.8z M251.2,315.9
		c0-1.4-0.9-2.3-2.1-2.3c-1.2,0-2.2,0.8-2.2,2.2c0,1.3,0.9,2.2,2.1,2.3S251.1,317.2,251.2,315.9z"/>
	<path class="st2" d="M256.3,323.8c-0.8-1.2-1.2-2.9-1.1-4.7c0.1-1.8,0.6-3.4,1.4-4.6c1-1.4,2.3-1.8,3.3-1.8s2.3,0.6,3.2,2
		c0.8,1.2,1.2,2.9,1.1,4.7s-0.6,3.4-1.4,4.6c-1,1.4-2.3,1.8-3.3,1.8S257.2,325.3,256.3,323.8z M257.6,315.3c-0.7,1.1-1,2.5-1.1,3.8
		c0,1.3,0.2,2.8,0.8,3.9c0.6,1.1,1.5,1.5,2.1,1.5s1.5-0.3,2.2-1.3c0.7-1.1,1-2.5,1.1-3.8c0-1.3-0.2-2.8-0.8-3.9
		c-0.6-1.1-1.5-1.5-2.1-1.5S258.4,314.3,257.6,315.3z"/>
	<path class="st2" d="M272.8,313.9l-3.1,4c0.4-0.1,0.7-0.1,1.1-0.1c2.4,0.1,4,2,4,4.3c-0.1,2.5-2,4.3-4.5,4.2
		c-3-0.1-4.3-2.5-4.2-4.5c0-0.5,0.1-1.6,1.1-2.9l4.5-5.8L272.8,313.9z M273.4,322c0.1-1.7-1.2-3-2.9-3s-3,1.2-3.1,2.8
		c-0.1,1.7,1.1,3.1,2.9,3.1C272.1,325,273.3,323.7,273.4,322z"/>
</g>
<g id="XMLID_10_">
	<g>
		<path class="st2" d="M371,333.5l-15.7,2.2c0,0,2.5-2.2,0-4.4L371,333.5z"/>
	</g>
	<g>
		<line class="st0" x1="371" y1="333.5" x2="355.3" y2="331.3"/>
		<line class="st0" x1="371" y1="333.5" x2="355.3" y2="335.7"/>
		<path class="st0" d="M355.3,335.7c0,0,2.5-2.2,0-4.4"/>
	</g>
</g>
<g id="XMLID_9_">
	<g>
		<path class="st2" d="M135.8,327.1l15.7,2.2c0,0-2.5-2.2,0-4.4L135.8,327.1z"/>
	</g>
	<g>
		<line class="st0" x1="135.8" y1="327.1" x2="151.6" y2="324.9"/>
		<line class="st0" x1="135.8" y1="327.1" x2="151.6" y2="329.4"/>
		<path class="st0" d="M151.6,329.4c0,0-2.5-2.2,0-4.4"/>
	</g>
</g>
</svg>
