<?xml version="1.0" encoding="utf-8"?>
<!-- Generator: Adobe Illustrator 24.0.2, SVG Export Plug-In . SVG Version: 6.00 Build 0)  -->
<svg version="1.1" id="Слой_1" xmlns="http://www.w3.org/2000/svg" xmlns:xlink="http://www.w3.org/1999/xlink" x="0px" y="0px"
	 viewBox="0 0 500 600" style="enable-background:new 0 0 500 600;" xml:space="preserve">
<style type="text/css">
	.st0{fill:none;stroke:#4E86B9;stroke-width:0.75;stroke-linecap:round;stroke-linejoin:round;}
	.st1{fill:none;stroke:#4E86B9;stroke-width:0.5;}
	.st2{enable-background:new    ;}
	.st3{fill:#4E86B9;}
</style>
<g id="ELLIPSE">
	<path class="st0" d="M193.5,218.4c-1.3-0.3-2.2-0.8-2.6-1.6"/>
</g>
<g id="ELLIPSE_1_">
	<path class="st0" d="M190.9,216.8c-2.4-4.6,11.1-16.5,30.1-26.6c19.1-10.1,36.5-14.6,39-10c0.4,0.8,0.4,1.8-0.1,3"/>
</g>
<g id="ELLIPSE_2_">
	<path class="st0" d="M259.9,179.9c0.2,0.7,0.2,1.5-0.1,2.4"/>
</g>
<g id="ELLIPSE_3_">
	<path class="st0" d="M192.9,217.8c-1-0.3-1.6-0.7-2.1-1.2"/>
</g>
<g id="LINE_1_">
	<line class="st0" x1="248.5" y1="203.3" x2="249.8" y2="201.8"/>
</g>
<g id="ELLIPSE_12_">
	<path class="st0" d="M229.2,222c0.3-0.1,1.5-1.2,1.8-1.4l2.7-2.4"/>
</g>
<g id="ELLIPSE_14_">
	<path class="st0" d="M192.6,217.4c-0.9-0.2-1.5-0.6-1.9-1.1"/>
</g>
<g id="ELLIPSE_15_">
	<path class="st0" d="M259.7,179.7c0.2,0.6,0.1,1.3-0.2,2.2"/>
</g>
<g id="ELLIPSE_16_">
	<path class="st0" d="M259.3,179.3c0,0.5-0.1,1-0.3,1.6"/>
</g>
<g id="ELLIPSE_17_">
	<path class="st0" d="M192.1,216.3c-0.6-0.2-1.1-0.4-1.4-0.7"/>
</g>
<g id="ELLIPSE_18_">
	<path class="st0" d="M258.6,178.9c-0.1,0.2-0.2,0.4-0.4,0.4"/>
</g>
<g id="ELLIPSE_19_">
	<path class="st0" d="M258.1,178.7c0,0.1,0,0.2-0.1,0.3"/>
</g>
<g id="ELLIPSE_20_">
	<path class="st0" d="M257.7,178.6l-0.1,0.1"/>
</g>
<g id="ELLIPSE_21_">
	<path class="st0" d="M257.7,178.6c0,0.1,0,0.1-0.1,0.1"/>
</g>
<g id="LINE_11_">
	<line class="st0" x1="258.9" y1="179.1" x2="258.2" y2="179.4"/>
</g>
<g id="LINE_12_">
	<polyline class="st0" points="230.8,181.8 230.8,160.3 230.5,159.3 	"/>
</g>
<g id="LINE_13_">
	<polyline class="st0" points="269.1,172 269.1,150.4 268.5,149.5 	"/>
</g>
<g id="LINE_14_">
	<line class="st0" x1="268.9" y1="150.5" x2="231.1" y2="160.3"/>
</g>
<g id="LINE_22_">
	<line class="st0" x1="205.9" y1="156.3" x2="154.5" y2="130.7"/>
</g>
<g id="LINE_23_">
	<polyline class="st0" points="206.1,195.3 206.1,156.5 206.6,155.5 	"/>
</g>
<g id="LINE_31_">
	<polyline class="st0" points="154.9,129.6 154.2,130.5 154.2,234.8 	"/>
</g>
<g id="LINE_34_">
	<line class="st0" x1="248.9" y1="204.5" x2="251" y2="202.1"/>
</g>
<g id="LINE_36_">
	<line class="st0" x1="248.8" y1="204.1" x2="250.6" y2="202"/>
</g>
<g id="ELLIPSE_43_">
	<path class="st0" d="M260.8,191.1l11.5-12.9l0.2-0.3c4.4-5.1,3.2-7.4-3.2-5.9l-0.4,0.1l-37.8,9.8l-0.4,0.1c-6.5,1.7-16.3,7-24.2,13
		l-0.2,0.2l-52.1,39.5"/>
</g>
<g id="ELLIPSE_46_">
	<path class="st0" d="M272.5,139.4c4.4,4.8,3.1,9.3-3.2,11"/>
</g>
<g id="LINE_44_">
	<line class="st0" x1="275.1" y1="144.8" x2="275.1" y2="173.3"/>
</g>
<g id="ELLIPSE_54_">
	<path class="st0" d="M235,119.6c2.6-0.7,6.8,0.2,9.3,2"/>
</g>
<g id="LINE_50_">
	<line class="st0" x1="184.1" y1="132.8" x2="235" y2="119.6"/>
</g>
<g id="ELLIPSE_55_">
	<path class="st0" d="M183.9,137.2c-2.5-1.8-2.4-3.7,0.2-4.4"/>
</g>
<g id="LINE_51_">
	<line class="st0" x1="191.3" y1="142.4" x2="183.9" y2="137.2"/>
</g>
<g id="ELLIPSE_56_">
	<path class="st0" d="M200.6,144.4c-2.6,0.7-6.8-0.2-9.3-2"/>
</g>
<g id="LINE_52_">
	<line class="st0" x1="251.6" y1="131.2" x2="200.6" y2="144.4"/>
</g>
<g id="ELLIPSE_57_">
	<path class="st0" d="M251.8,126.8c2.5,1.8,2.4,3.7-0.2,4.4"/>
</g>
<g id="LINE_53_">
	<line class="st0" x1="244.4" y1="121.5" x2="251.8" y2="126.8"/>
</g>
<g id="ELLIPSE_64_">
	<path class="st0" d="M143.9,121.9c0.1-0.1,0.2-0.1,0.3-0.1"/>
</g>
<g id="LINE_59_">
	<polyline class="st0" points="229.7,98.6 230.8,99.2 241.9,107 	"/>
</g>
<g id="LINE_63_">
	<line class="st0" x1="241.9" y1="107" x2="271.8" y2="138.6"/>
</g>
<g id="ELLIPSE_67_">
	<path class="st0" d="M230.6,160.4c-6.5,1.6-16.3,0-24.2-3.8"/>
</g>
<g id="LINE_66_">
	<line class="st0" x1="206.7" y1="155.5" x2="154.8" y2="129.6"/>
</g>
<g id="ELLIPSE_69_">
	<path class="st0" d="M230.4,159.3c-6.3,1.6-16,0.1-23.7-3.8"/>
</g>
<g id="LINE_68_">
	<line class="st0" x1="268.7" y1="149.3" x2="230.4" y2="159.3"/>
</g>
<g id="ELLIPSE_73_">
	<path class="st0" d="M271.8,138.6c4.4,4.7,3.2,9.1-3.1,10.7"/>
</g>
<g id="LINE_69_">
	<polyline class="st0" points="143.6,242.4 143.6,122.8 143.7,122.8 143.8,122.1 144.2,121.8 230.8,99.4 	"/>
</g>
<g id="LINE_83_">
	<line class="st0" x1="248.8" y1="204.1" x2="250.6" y2="202"/>
</g>
<g id="LINE_85_">
	<line class="st0" x1="248.7" y1="203.8" x2="250.3" y2="202"/>
</g>
<g id="LINE_101_">
	<line class="st0" x1="244.4" y1="121.5" x2="251.8" y2="126.8"/>
</g>
<g id="LINE_102_">
	<line class="st0" x1="184.1" y1="132.8" x2="235" y2="119.6"/>
</g>
<g id="LINE_103_">
	<line class="st0" x1="251.6" y1="131.2" x2="200.6" y2="144.4"/>
</g>
<g id="LINE_104_">
	<line class="st0" x1="191.3" y1="142.4" x2="183.9" y2="137.2"/>
</g>
<g id="ELLIPSE_93_">
	<path class="st0" d="M200.6,144.4c-2.6,0.7-6.8-0.2-9.3-2"/>
</g>
<g id="ELLIPSE_94_">
	<path class="st0" d="M183.9,137.2c-2.5-1.8-2.4-3.7,0.2-4.4"/>
</g>
<g id="ELLIPSE_95_">
	<path class="st0" d="M235,119.6c2.6-0.7,6.8,0.2,9.3,2"/>
</g>
<g id="ELLIPSE_96_">
	<path class="st0" d="M251.8,126.8c2.5,1.8,2.4,3.7-0.2,4.4"/>
</g>
<g id="ELLIPSE_98_">
	<path class="st0" d="M249.4,201.8c0,0.1-0.5,0.3-1,0.3s-1-0.1-1-0.3"/>
</g>
<g id="LINE_105_">
	<line class="st0" x1="247.4" y1="201.8" x2="247.4" y2="201.2"/>
</g>
<g id="LINE_106_">
	<line class="st0" x1="249.4" y1="201.7" x2="249.4" y2="201.8"/>
</g>
<g id="ELLIPSE_169_">
	<path class="st0" d="M210.2,226.1c0,0,0.2-0.4,0.4-0.9s0.4-0.9,0.4-0.9s-0.2,0.4-0.4,0.9C210.4,225.7,210.2,226.1,210.2,226.1
		L210.2,226.1z"/>
</g>
<g id="LINE_179_">
	<line class="st0" x1="210.2" y1="226.1" x2="209.4" y2="225.8"/>
</g>
<g id="LINE_180_">
	<line class="st0" x1="210.2" y1="223.9" x2="211" y2="224.2"/>
</g>
<g id="ELLIPSE_177_">
	<path class="st0" d="M242.1,217c-0.1-0.4,0.3-0.9,0.8-1s1.1,0.1,1.2,0.6s-0.3,0.9-0.8,1C242.7,217.7,242.2,217.4,242.1,217
		L242.1,217z"/>
</g>
<g id="LINE_190_">
	<line class="st0" x1="242.1" y1="217" x2="241.9" y2="216.4"/>
</g>
<g id="LINE_191_">
	<line class="st0" x1="244" y1="216" x2="244.1" y2="216.5"/>
</g>
<g id="ELLIPSE_99_">
	<path class="st0" d="M250.5,202c-2.4-0.6-3.6-4-2.7-7.5s3.6-5.8,6-5.2"/>
</g>
<g id="LINE_107_">
	<line class="st0" x1="386.6" y1="237.2" x2="250.5" y2="202"/>
</g>
<g id="LINE_108_">
	<line class="st0" x1="253.8" y1="189.3" x2="389.9" y2="224.5"/>
</g>
<g id="ELLIPSE_170_">
	<path class="st0" d="M195.8,224.1c0.5-1.1,3.6-0.9,6.9,0.6c3.3,1.5,5.6,3.6,5.1,4.7"/>
</g>
<g id="LINE_181_">
	<line class="st0" x1="121.8" y1="389" x2="195.8" y2="224.1"/>
</g>
<g id="LINE_182_">
	<line class="st0" x1="207.8" y1="229.4" x2="133.8" y2="394.3"/>
</g>
<g id="ELLIPSE_178_">
	<path class="st0" d="M249.9,211.2c1.4,1.5,0.3,4.7-2.4,7.1s-6,3.2-7.3,1.7"/>
</g>
<g id="ELLIPSE_179_">
	<path class="st0" d="M356.5,329.3c1.4,1.5,0.3,4.7-2.4,7.1c-2.7,2.4-6,3.2-7.3,1.7"/>
</g>
<g id="LINE_192_">
	<line class="st0" x1="346.8" y1="338.1" x2="240.2" y2="219.9"/>
</g>
<g id="LINE_193_">
	<line class="st0" x1="249.9" y1="211.2" x2="356.5" y2="329.3"/>
</g>
<g id="ELLIPSE_101_">
	<path class="st0" d="M250.5,202c-2.4-0.6-3.6-4-2.7-7.5s3.6-5.8,6-5.2"/>
</g>
<g id="ELLIPSE_102_">
	<path class="st0" d="M246.4,200.2c-1.5-2-1.5-5.6,0-8.4"/>
</g>
<g id="LINE_109_">
	<line class="st0" x1="246.4" y1="191.8" x2="244.8" y2="191.4"/>
</g>
<g id="SPLINE_26_">
	<path class="st0" d="M242.7,200c0.1,0,0.1,0,0.2,0.1c0.1,0,0.2,0.1,0.4,0.1"/>
</g>
<g id="LINE_110_">
	<line class="st0" x1="243.4" y1="199.4" x2="246.4" y2="200.2"/>
</g>
<g id="LINE_111_">
	<line class="st0" x1="250.5" y1="202" x2="243.1" y2="200.1"/>
</g>
<g id="LINE_112_">
	<line class="st0" x1="247.7" y1="187.8" x2="253.8" y2="189.3"/>
</g>
<g id="ELLIPSE_172_">
	<path class="st0" d="M195.8,224.1c0.5-1.1,3.6-0.9,6.9,0.6c3.3,1.5,5.6,3.6,5.1,4.7"/>
</g>
<g id="ELLIPSE_173_">
	<path class="st0" d="M199.6,220.6c2.5,0.3,5.9,1.8,7.9,3.5"/>
</g>
<g id="LINE_183_">
	<line class="st0" x1="207.6" y1="224.1" x2="209.1" y2="220.8"/>
</g>
<g id="SPLINE_112_">
	<path class="st0" d="M209.4,225.8c0-0.1,0.1-0.3,0.2-0.6c0.1-0.2,0.2-0.5,0.3-0.7s0.2-0.4,0.3-0.5"/>
</g>
<g id="LINE_184_">
	<line class="st0" x1="200.2" y1="219.3" x2="199.6" y2="220.6"/>
</g>
<g id="SPLINE_113_">
	<path class="st0" d="M211.6,220.9c0-0.1,0.1-0.2,0.1-0.3s0-0.2,0-0.3s0-0.2,0-0.3s0-0.2,0-0.4c0-0.3-0.1-0.5-0.1-0.8
		c0-0.2-0.1-0.3-0.1-0.5"/>
</g>
<g id="LINE_185_">
	<line class="st0" x1="195.8" y1="224.1" x2="198.4" y2="218.4"/>
</g>
<g id="LINE_186_">
	<line class="st0" x1="209.4" y1="225.7" x2="207.8" y2="229.4"/>
</g>
<g id="LINE_187_">
	<line class="st0" x1="211.6" y1="220.9" x2="210.2" y2="223.9"/>
</g>
<g id="ELLIPSE_180_">
	<path class="st0" d="M249.9,211.2c1.4,1.5,0.3,4.7-2.4,7.1s-6,3.2-7.3,1.7"/>
</g>
<g id="ELLIPSE_181_">
	<path class="st0" d="M239.8,218.7c-1.1-0.2-1.8-0.9-1.9-1.9"/>
</g>
<g id="ELLIPSE_182_">
	<path class="st0" d="M248.7,210.2c0.2,1-0.1,2.2-0.8,3.4"/>
</g>
<g id="LINE_194_">
	<line class="st0" x1="247.3" y1="211" x2="247.9" y2="213.7"/>
</g>
<g id="LINE_195_">
	<line class="st0" x1="239.8" y1="218.7" x2="235.4" y2="213.8"/>
</g>
<g id="SPLINE_114_">
	<path class="st0" d="M243.8,215.7c0.1,0.1,0.1,0.2,0.2,0.3"/>
</g>
<g id="SPLINE_115_">
	<path class="st0" d="M242,216.4c0-0.1,0-0.2,0-0.3c0.1-0.2,0.2-0.4,0.4-0.5s0.5-0.2,0.8-0.2s0.5,0.1,0.6,0.3"/>
</g>
<g id="ARC_121_">
	<path class="st0" d="M234,209.2c1,1.4,1.7,3,2.2,4.6"/>
</g>
<g id="ARC_122_">
	<path class="st0" d="M236.2,213.8c-0.3,0.1-0.6,0-0.8,0"/>
</g>
<g id="ELLIPSE_183_">
	<path class="st0" d="M232.9,209.8c0.8,1.2,1.6,2.5,2.4,4"/>
</g>
<g id="ARC_123_">
	<path class="st0" d="M242.8,209.7c-0.3,2.7-2.8,4.6-5.5,4.3c-0.4,0-0.7-0.1-1.1-0.3"/>
</g>
<g id="ARC_124_">
	<path class="st0" d="M242.8,209.7c-1.1-1.2-2.2-2.4-3.3-3.6"/>
</g>
<g id="LINE_196_">
	<line class="st0" x1="244.7" y1="210.2" x2="247.9" y2="213.7"/>
</g>
<g id="ARC_125_">
	<path class="st0" d="M243.2,209.2c-0.1,0.2-0.3,0.4-0.5,0.6"/>
</g>
<g id="LINE_197_">
	<line class="st0" x1="240.2" y1="219.9" x2="238.4" y2="217.9"/>
</g>
<g id="LINE_198_">
	<line class="st0" x1="248.9" y1="210" x2="249.9" y2="211.2"/>
</g>
<g id="ELLIPSE_103_">
	<path class="st0" d="M390.1,224.6c2.4,0.6,3.6,4,2.7,7.5s-3.6,5.8-6,5.2s-3.6-4-2.7-7.5C385.1,226.3,387.8,224,390.1,224.6
		L390.1,224.6z"/>
</g>
<g id="ELLIPSE_105_">
	<path class="st0" d="M388.8,230.8c0.1,0,0.1,0.1,0.1,0.2c0,0.1-0.1,0.2-0.2,0.2s-0.1-0.1-0.1-0.2
		C388.7,230.9,388.8,230.8,388.8,230.8L388.8,230.8z"/>
</g>
<g id="LINE_113_">
	<line class="st0" x1="386.9" y1="237.3" x2="386.6" y2="237.2"/>
</g>
<g id="LINE_114_">
	<line class="st0" x1="389.9" y1="224.5" x2="390.1" y2="224.6"/>
</g>
<g id="ELLIPSE_174_">
	<path class="st0" d="M121.7,389.3c0.5-1.1,3.6-0.9,6.9,0.6c3.3,1.5,5.6,3.6,5.1,4.7s-3.6,0.9-6.9-0.6
		C123.4,392.6,121.2,390.4,121.7,389.3L121.7,389.3z"/>
</g>
<g id="LINE_188_">
	<line class="st0" x1="121.7" y1="389.3" x2="121.8" y2="389"/>
</g>
<g id="LINE_189_">
	<line class="st0" x1="133.8" y1="394.3" x2="133.6" y2="394.7"/>
</g>
<g id="ELLIPSE_185_">
	<path class="st0" d="M356.5,329.3c1.4,1.5,0.3,4.7-2.4,7.1c-2.7,2.4-6,3.2-7.3,1.7"/>
</g>
<g id="LINE_199_">
	<line class="st0" x1="347" y1="338.3" x2="346.8" y2="338.1"/>
</g>
<g id="LINE_200_">
	<line class="st0" x1="356.5" y1="329.3" x2="356.7" y2="329.6"/>
</g>
<g id="SPLINE_28_">
	<path class="st0" d="M200.6,219.5c-0.1,0-0.1,0,0-0.1"/>
</g>
<g id="ARC_8_">
	<path class="st0" d="M203.6,221.2c-1.1-0.3-2.2-1-3-1.8"/>
</g>
<g id="ELLIPSE_106_">
	<path class="st0" d="M210.1,209.8c2.4-2.3,5.9-5,10.1-7.5"/>
</g>
<g id="ARC_9_">
	<path class="st0" d="M198.1,211.8c0.5-0.6,1.1-1.2,1.7-1.8"/>
</g>
<g id="ELLIPSE_107_">
	<path class="st0" d="M209.8,209.9c2.4-2.4,6-5.1,10.3-7.7"/>
</g>
<g id="LINE_115_">
	<line class="st0" x1="199.9" y1="210" x2="199.9" y2="209.6"/>
</g>
<g id="ELLIPSE_108_">
	<path class="st0" d="M199.9,210c3.5-3.5,8.8-7.5,15.1-11.4"/>
</g>
<g id="ELLIPSE_109_">
	<path class="st0" d="M194.9,211.3c6.9-8.7,26.6-20.9,43.9-27.2c0.2-0.1,0.4-0.1,0.6-0.2"/>
</g>
<g id="ARC_10_">
	<path class="st0" d="M197.7,211.9c0.7-0.8,1.4-1.6,2.2-2.3"/>
</g>
<g id="ELLIPSE_110_">
	<path class="st0" d="M199.9,209.6c3.5-3.4,8.7-7.3,14.9-11.1"/>
</g>
<g id="ARC_11_">
	<path class="st0" d="M193,217.6c-0.1-0.1-0.2-0.1-0.2-0.2"/>
</g>
<g id="SPLINE_29_">
	<path class="st0" d="M219.3,210.6c0.1,0,0.2,0,0.1,0.2c-0.1,0.1-0.1,0.1-0.2,0.2"/>
</g>
<g id="ARC_12_">
	<path class="st0" d="M197.8,218.4c-0.2,0.4-0.6,0.6-1,0.5"/>
</g>
<g id="ARC_13_">
	<path class="st0" d="M196.8,218.9c-0.1,0-0.3-0.1-0.4-0.2"/>
</g>
<g id="SPLINE_30_">
	<path class="st0" d="M194.8,211.7c0.1,0,0.1,0,0.1,0c0.1,0,0.1,0,0.1,0c0.1,0,0.1,0,0.1,0c0.1,0,0.1,0,0.1,0c0.1,0,0.1,0,0.1,0
		c0.1,0,0.1,0,0.1,0.1c0.1,0,0.1,0.1,0.2,0.1c0.2,0.1,0.2,0.1,0.3,0.2c0.1,0.1,0.2,0.1,0.3,0.2c0.1,0.1,0.2,0.1,0.3,0.2
		c0.1,0.1,0.3,0.2,0.4,0.2"/>
</g>
<g id="ARC_14_">
	<path class="st0" d="M194.9,211.3c0.9,0,1.7,0.1,2.5,0.4"/>
</g>
<g id="LINE_116_">
	<line class="st0" x1="197.7" y1="211.9" x2="197.4" y2="211.8"/>
</g>
<g id="ARC_15_">
	<path class="st0" d="M197.1,212.7c0.1-0.3,0.2-0.6,0.3-0.9"/>
</g>
<g id="ARC_16_">
	<path class="st0" d="M198.1,211.8c-0.1,0-0.3,0-0.5,0"/>
</g>
<g id="ARC_17_">
	<path class="st0" d="M197.4,212.8c0.1-0.3,0.2-0.6,0.3-0.9"/>
</g>
<g id="LINE_117_">
	<line class="st0" x1="209.8" y1="209.9" x2="198.1" y2="211.8"/>
</g>
<g id="ARC_18_">
	<path class="st0" d="M198.2,212.8c-0.1-0.3-0.1-0.7-0.1-1"/>
</g>
<g id="SPLINE_31_">
	<path class="st0" d="M221.1,205.4c0.2-0.1,0.3-0.3,0.3-0.3c0-0.1-0.2,0-0.4,0c-0.3,0.1-0.8,0.2-1.2,0.4c-0.3,0.1-0.6,0.2-0.9,0.3
		c-0.2,0.1-0.4,0.2-0.6,0.2"/>
</g>
<g id="ARC_19_">
	<path class="st0" d="M210.1,209.8c-0.1,0-0.2,0.1-0.3,0.1"/>
</g>
<g id="ARC_20_">
	<path class="st0" d="M209.9,210.9c-0.1-0.3-0.1-0.7-0.1-1"/>
</g>
<g id="SPLINE_32_">
	<path class="st0" d="M218.7,207c-0.1-0.2-0.2-0.4-0.2-0.6c-0.1-0.2-0.1-0.3,0-0.4"/>
</g>
<g id="LINE_118_">
	<line class="st0" x1="218.4" y1="206.1" x2="210.1" y2="209.8"/>
</g>
<g id="SPLINE_33_">
	<path class="st0" d="M210.1,209.8c0,0.1,0,0.2,0,0.4c0.1,0.2,0.1,0.4,0.2,0.6"/>
</g>
<g id="ARC_21_">
	<path class="st0" d="M211.5,218.7c0.4-0.6,0.7-1.1,1.1-1.7"/>
</g>
<g id="ELLIPSE_111_">
	<path class="st0" d="M212.6,217c0.3,0.2,0.6,0.5,0.6,0.6"/>
</g>
<g id="ARC_22_">
	<path class="st0" d="M219,211c0.1-0.1,0.1-0.2,0.3-0.3"/>
</g>
<g id="ELLIPSE_112_">
	<path class="st0" d="M220.8,205.7c0.1-0.1,0.3-0.2,0.4-0.3"/>
</g>
<g id="ELLIPSE_113_">
	<path class="st0" d="M219.3,210.6c-1.1,0-1.7-0.2-1.8-0.8"/>
</g>
<g id="ARC_23_">
	<path class="st0" d="M220.9,205.6c0-0.1,0.1-0.1,0.2-0.1"/>
</g>
<g id="SPLINE_35_">
	<path class="st0" d="M218.7,207c0.2-0.1,0.3-0.3,0.5-0.4c0.1-0.1,0.3-0.2,0.4-0.3c0.1-0.1,0.2-0.2,0.3-0.2c0.1-0.1,0.2-0.1,0.3-0.2
		c0.1,0,0.1-0.1,0.2-0.1c0.1-0.1,0.3-0.2,0.4-0.3c0.1-0.1,0.2-0.1,0.3-0.2c0.1,0,0.1,0,0.1,0c-0.1,0.1-0.1,0.2-0.2,0.2"/>
</g>
<g id="SPLINE_36_">
	<path class="st0" d="M201.9,217.7c-0.1-0.1-0.2-0.2-0.3-0.3c-0.5-0.5-1-1-1.5-1.5c-0.3-0.3-0.6-0.6-0.9-0.9
		c-0.2-0.2-0.4-0.4-0.6-0.6c-0.2-0.2-0.4-0.4-0.6-0.6c-0.3-0.3-0.6-0.6-0.9-0.9c-0.1-0.1-0.1-0.1-0.2-0.2"/>
</g>
<g id="ARC_24_">
	<path class="st0" d="M211.6,216.9c2.3-3.4,4.6-6.7,7.1-9.9"/>
</g>
<g id="LINE_119_">
	<line class="st0" x1="210.4" y1="210.8" x2="218.7" y2="207"/>
</g>
<g id="ARC_25_">
	<path class="st0" d="M210.4,210.8c-0.1,0.1-0.3,0.1-0.5,0.1"/>
</g>
<g id="ARC_26_">
	<path class="st0" d="M209.9,210.9c-3.9,0.7-7.8,1.3-11.7,1.9"/>
</g>
<g id="ARC_27_">
	<path class="st0" d="M198.2,212.8c-0.3,0-0.6,0-0.8-0.1"/>
</g>
<g id="LINE_120_">
	<line class="st0" x1="197.1" y1="212.7" x2="197.4" y2="212.8"/>
</g>
<g id="SPLINE_37_">
	<path class="st0" d="M197.8,218.4c0.1-0.1,0.1-0.1,0.1-0.1"/>
</g>
<g id="SPLINE_38_">
	<path class="st0" d="M197.8,218.4c0,0.1,0,0.2-0.1,0.3c0,0.1,0,0.2,0,0.3s0,0.2,0.1,0.4"/>
</g>
<g id="LINE_121_">
	<line class="st0" x1="201.9" y1="217.7" x2="201.9" y2="217.7"/>
</g>
<g id="ARC_28_">
	<path class="st0" d="M201.3,218.4c0.2-0.3,0.4-0.5,0.6-0.7"/>
</g>
<g id="SPLINE_39_">
	<path class="st0" d="M197.1,221.1c-0.1-0.1-0.2-0.2-0.2-0.4c-0.1-0.2-0.2-0.3-0.3-0.5s-0.1-0.3-0.2-0.5s-0.1-0.3-0.1-0.4
		s0-0.2,0-0.4c0-0.1,0-0.2,0.1-0.3"/>
</g>
<g id="SPLINE_40_">
	<path class="st0" d="M199.4,218.5c0,0-0.1,0-0.1-0.1h-0.1h-0.1H199h-0.1h-0.1h-0.1h-0.1h-0.1c-0.3-0.1-0.4-0.1-0.6-0.1
		c-0.2,0-0.3,0-0.4,0c-0.1,0-0.3,0-0.4,0.1c-0.1,0-0.2,0.1-0.3,0.1c-0.1,0.1-0.2,0.1-0.2,0.1c-0.1,0.1-0.1,0.2-0.1,0.2v0.1"/>
</g>
<g id="SPLINE_41_">
	<path class="st0" d="M194.8,211.7c0.1,0.1,0.2,0.2,0.3,0.3c0.5,0.5,1,1,1.5,1.5c0.3,0.3,0.6,0.6,0.9,0.9c0.2,0.2,0.4,0.4,0.6,0.6
		s0.4,0.4,0.6,0.6c0.3,0.3,0.6,0.6,0.9,0.9c0.5,0.5,1,1,1.5,1.5c0.1,0.1,0.2,0.2,0.3,0.3"/>
</g>
<g id="ARC_29_">
	<path class="st0" d="M194.8,211.7c-0.1-0.1,0-0.3,0-0.4"/>
</g>
<g id="ELLIPSE_114_">
	<path class="st0" d="M192.7,217.4c-0.7-1.4,0.1-3.5,2.2-6.1"/>
</g>
<g id="SPLINE_43_">
	<path class="st0" d="M192.8,217.5c0.1,0.1,0.2,0.2,0.3,0.3c0.5,0.5,1,1,1.5,1.5c0.3,0.3,0.6,0.6,0.9,0.9c0.2,0.2,0.4,0.4,0.6,0.6
		s0.4,0.4,0.6,0.6c0.1,0.1,0.2,0.2,0.3,0.3"/>
</g>
<g id="ARC_30_">
	<path class="st0" d="M199.4,218.5c0.3,0.2,0.6,0.4,0.8,0.6"/>
</g>
<g id="SPLINE_44_">
	<path class="st0" d="M199.7,218.8c-0.1,0-0.3-0.1-0.3-0.3"/>
</g>
<g id="ARC_31_">
	<path class="st0" d="M214.7,214.3c-0.3,1.2-0.8,2.3-1.5,3.3"/>
</g>
<g id="LINE_122_">
	<line class="st0" x1="211.7" y1="220" x2="213.2" y2="217.7"/>
</g>
<g id="ARC_32_">
	<path class="st0" d="M211.3,221.5c2.4-3.6,5-7.1,7.7-10.5"/>
</g>
<g id="ELLIPSE_115_">
	<path class="st0" d="M219,211c-1,0-1.6-0.2-1.8-0.7"/>
</g>
<g id="SPLINE_45_">
	<path class="st0" d="M212.2,217.7c0.1-0.1,0-0.2-0.1-0.3s-0.3-0.3-0.5-0.4"/>
</g>
<g id="ARC_33_">
	<path class="st0" d="M211.6,216.9c-2,2.8-6,3.5-8.8,1.5c-0.3-0.2-0.6-0.5-0.8-0.7"/>
</g>
<g id="ARC_34_">
	<path class="st0" d="M201.3,218.4c0.2-0.3,0.4-0.5,0.6-0.7"/>
</g>
<g id="ELLIPSE_116_">
	<path class="st0" d="M200.5,219.4c0.2-0.3,0.5-0.7,0.8-1"/>
</g>
<g id="LINE_123_">
	<line class="st0" x1="200.5" y1="219.4" x2="200.3" y2="219.1"/>
</g>
<g id="SPLINE_46_">
	<path class="st0" d="M200.2,219.3v-0.1"/>
</g>
<g id="SPLINE_47_">
	<path class="st0" d="M200.6,219.5c-0.1,0-0.1,0,0-0.1"/>
</g>
<g id="ELLIPSE_117_">
	<path class="st0" d="M200.5,219.4c0.2-0.3,0.5-0.7,0.8-1"/>
</g>
<g id="ARC_36_">
	<path class="st0" d="M209.1,220.7c-1.7,0.9-3.7,1.1-5.5,0.5"/>
</g>
<g id="ARC_37_">
	<path class="st0" d="M211,219c-0.5,0.7-1.2,1.2-1.9,1.6"/>
</g>
<g id="ARC_38_">
	<path class="st0" d="M210.9,219c-2.9,2.3-7,2.1-9.6-0.6"/>
</g>
<g id="ARC_39_">
	<path class="st0" d="M212.2,217.7c-0.4,0.5-0.8,1-1.3,1.3"/>
</g>
<g id="SPLINE_48_">
	<path class="st0" d="M235.4,218.4c-0.1,0-0.1,0-0.2,0c-0.1,0-0.1,0-0.2,0c-0.1,0-0.2-0.1-0.3-0.1s-0.2-0.1-0.3-0.2
		c-0.1-0.1-0.2-0.2-0.4-0.3l-0.1-0.1l-0.1-0.1l-0.1-0.1c-0.1,0-0.1-0.1-0.2-0.2c-0.1-0.1-0.1-0.1-0.2-0.2"/>
</g>
<g id="SPLINE_49_">
	<path class="st0" d="M237.4,217.3h-0.1c0,0-0.1,0-0.2,0s-0.1,0-0.2,0c-0.1,0-0.2-0.1-0.2-0.1"/>
</g>
<g id="ARC_40_">
	<path class="st0" d="M236.8,217.2c-0.5-0.3-1-0.7-1.4-1.2"/>
</g>
<g id="ELLIPSE_118_">
	<path class="st0" d="M238.8,201c-2.5,2.8-8.4,6.4-13.7,8.5"/>
</g>
<g id="SPLINE_50_">
	<path class="st0" d="M245.4,209.8l-0.1-0.1l-0.1-0.1l-0.1-0.1l-0.1-0.1l-0.1-0.1l-0.1-0.1l-0.1-0.1l-0.1-0.1"/>
</g>
<g id="LINE_124_">
	<line class="st0" x1="244.5" y1="208.9" x2="242.1" y2="206.6"/>
</g>
<g id="ARC_41_">
	<path class="st0" d="M238.2,206.3c1.2-0.7,2.8-0.6,3.9,0.3"/>
</g>
<g id="LINE_125_">
	<line class="st0" x1="238.2" y1="206.3" x2="235.5" y2="207.9"/>
</g>
<g id="ELLIPSE_119_">
	<path class="st0" d="M235.4,216c-0.7,0.4-1.4,0.7-2.1,1.1"/>
</g>
<g id="ARC_42_">
	<path class="st0" d="M225.1,209.4c2.8,2.5,5.5,5.1,8.2,7.7"/>
</g>
<g id="SPLINE_51_">
	<path class="st0" d="M247.8,210.9c-0.1,0-0.1,0-0.1,0.1c-0.1,0-0.1,0-0.2,0h-0.1h-0.1h-0.1h-0.1"/>
</g>
<g id="ARC_43_">
	<path class="st0" d="M247,210.9c-0.6-0.2-1.1-0.6-1.6-1"/>
</g>
<g id="ELLIPSE_120_">
	<path class="st0" d="M247,208.6c-0.5,0.4-1.1,0.8-1.6,1.2"/>
</g>
<g id="SPLINE_52_">
	<path class="st0" d="M249.5,209.7c-0.2,0.1-0.3,0.1-0.5,0.1s-0.5-0.1-0.9-0.3c-0.3-0.2-0.7-0.5-1.1-0.8"/>
</g>
<g id="SPLINE_53_">
	<path class="st0" d="M247,208.6c0.2-0.1,0.4-0.3,0.5-0.5s0.2-0.4,0.1-0.6"/>
</g>
<g id="SPLINE_54_">
	<path class="st0" d="M247.6,207.6c0.3,0.3,0.6,0.6,0.9,0.8c0.3,0.2,0.5,0.3,0.7,0.3c0.1,0,0.2,0,0.3,0s0.1-0.1,0.2-0.1
		c0-0.1,0.1-0.1,0.1-0.2c0-0.1,0.1-0.3,0.1-0.4c0-0.3,0-0.6-0.1-1s-0.3-0.9-0.5-1.4"/>
</g>
<g id="ELLIPSE_121_">
	<path class="st0" d="M234.8,214.6c-0.1,0.2-0.2,0.4-0.4,0.6"/>
</g>
<g id="SPLINE_55_">
	<path class="st0" d="M235.4,216l-0.1-0.1l-0.1-0.1l-0.1-0.1l-0.1-0.1l-0.1-0.1l-0.1-0.1l-0.1-0.1l-0.1-0.1"/>
</g>
<g id="LINE_126_">
	<line class="st0" x1="236.1" y1="215.2" x2="236.1" y2="215.2"/>
</g>
<g id="SPLINE_56_">
	<path class="st0" d="M225.2,210.5c-0.1-0.1-0.2-0.2-0.2-0.2l-0.1-0.1c-0.1-0.2-0.2-0.2-0.2-0.3s0-0.1,0-0.2v-0.1
		c0.1-0.1,0.2-0.1,0.2-0.1c0.1,0,0.1,0,0.2,0"/>
</g>
<g id="SPLINE_57_">
	<path class="st0" d="M233.3,217.1c-0.2,0.1-0.4,0.2-0.6,0.2c-0.1,0-0.1,0-0.2,0"/>
</g>
<g id="SPLINE_58_">
	<path class="st0" d="M232.6,217.3c-0.1,0-0.2-0.1-0.2-0.2"/>
</g>
<g id="ARC_44_">
	<path class="st0" d="M225.1,209.4c0-0.1,0-0.2,0.1-0.3"/>
</g>
<g id="ELLIPSE_122_">
	<path class="st0" d="M238.4,201c-2.5,2.7-8.1,6.1-13.2,8.2"/>
</g>
<g id="ARC_45_">
	<path class="st0" d="M241,201.2c2.2,2.1,4.4,4.2,6.6,6.4"/>
</g>
<g id="ARC_46_">
	<path class="st0" d="M238.8,201c2.8,2.5,5.6,5.1,8.2,7.7"/>
</g>
<g id="ELLIPSE_123_">
	<path class="st0" d="M244.5,208.9c-0.2,0.1-0.4,0.1-0.6,0"/>
</g>
<g id="LINE_127_">
	<line class="st0" x1="243.9" y1="208.9" x2="243.5" y2="208.5"/>
</g>
<g id="LINE_128_">
	<line class="st0" x1="243.5" y1="208.5" x2="243.3" y2="208.4"/>
</g>
<g id="ELLIPSE_124_">
	<path class="st0" d="M242.1,206.6c-0.2,0.1-0.5,0.1-0.6,0"/>
</g>
<g id="ELLIPSE_125_">
	<path class="st0" d="M238.5,206.4c-0.1,0-0.2,0-0.3-0.1"/>
</g>
<g id="SPLINE_59_">
	<path class="st0" d="M235.7,208h-0.1c0,0-0.1-0.1-0.2-0.1"/>
</g>
<g id="ELLIPSE_126_">
	<path class="st0" d="M233,209.8c0,0-0.1,0-0.2-0.2"/>
</g>
<g id="LINE_129_">
	<line class="st0" x1="232.8" y1="209.6" x2="235.5" y2="207.9"/>
</g>
<g id="SPLINE_60_">
	<path class="st0" d="M232.1,212.8c-0.1-0.1-0.2-0.2-0.2-0.3s-0.1-0.1-0.1-0.2c0-0.1-0.1-0.2-0.1-0.2c0-0.1-0.1-0.3-0.1-0.4v-0.1
		v-0.1c0-0.1,0-0.1,0-0.2c0-0.1,0.1-0.3,0.2-0.4c0,0,0-0.1,0.1-0.1c0,0,0-0.1,0.1-0.1c0-0.1,0.1-0.1,0.1-0.2c0-0.1,0.1-0.1,0.2-0.2
		c0.1-0.1,0.1-0.2,0.2-0.2c0.1-0.1,0.3-0.2,0.4-0.3"/>
</g>
<g id="ELLIPSE_127_">
	<path class="st0" d="M232.5,211.9c0.1,0.3-0.1,0.7-0.4,0.9"/>
</g>
<g id="LINE_130_">
	<line class="st0" x1="234.4" y1="215.1" x2="232.1" y2="212.8"/>
</g>
<g id="ARC_47_">
	<path class="st0" d="M224.5,210.5c0.2-0.1,0.4-0.1,0.6-0.1"/>
</g>
<g id="LINE_131_">
	<line class="st0" x1="233.2" y1="212.3" x2="232.3" y2="210.7"/>
</g>
<g id="LINE_132_">
	<line class="st0" x1="235.3" y1="214.2" x2="236.1" y2="215.2"/>
</g>
<g id="ELLIPSE_128_">
	<path class="st0" d="M234.8,214.6c0.1-0.1,0.3-0.3,0.5-0.4"/>
</g>
<g id="LINE_133_">
	<line class="st0" x1="234.8" y1="214.6" x2="233.9" y2="213.3"/>
</g>
<g id="ELLIPSE_129_">
	<path class="st0" d="M233.9,213.3c0-0.1,0.2-0.3,0.5-0.4"/>
</g>
<g id="ARC_48_">
	<path class="st0" d="M232.5,211.9c0.5,0.5,1,0.9,1.4,1.4"/>
</g>
<g id="LINE_134_">
	<line class="st0" x1="232.5" y1="211.9" x2="232.3" y2="210.6"/>
</g>
<g id="SPLINE_61_">
	<path class="st0" d="M232.5,211.9c-0.1-0.1-0.1-0.1-0.1-0.1c-0.1-0.1-0.1-0.1-0.1-0.2c0-0.1,0-0.1,0-0.1c0-0.1,0-0.1,0-0.2"/>
</g>
<g id="ARC_49_">
	<path class="st0" d="M233.9,213.3c-0.2-0.3-0.4-0.7-0.6-1"/>
</g>
<g id="ELLIPSE_130_">
	<path class="st0" d="M233.8,212c-0.3,0.2-0.5,0.3-0.6,0.3"/>
</g>
<g id="ARC_50_">
	<path class="st0" d="M244.2,202c-0.2-0.4-0.1-0.9,0.3-1.1"/>
</g>
<g id="LINE_135_">
	<line class="st0" x1="244.2" y1="202" x2="241" y2="201.2"/>
</g>
<g id="ARC_51_">
	<path class="st0" d="M241,201.2c-0.1-0.2-0.1-0.4-0.1-0.6"/>
</g>
<g id="LINE_136_">
	<line class="st0" x1="242" y1="200.3" x2="244.5" y2="200.9"/>
</g>
<g id="ARC_52_">
	<path class="st0" d="M244.4,202c-0.2-0.3-0.1-0.8,0.2-1"/>
</g>
<g id="ARC_53_">
	<path class="st0" d="M244.4,202h-0.1"/>
</g>
<g id="SPLINE_63_">
	<path class="st0" d="M241,201.2c-0.1-0.1-0.2-0.1-0.3-0.1c-0.1-0.1-0.3-0.1-0.5-0.2"/>
</g>
<g id="LINE_137_">
	<line class="st0" x1="244.6" y1="200.9" x2="245.1" y2="200.6"/>
</g>
<g id="ARC_54_">
	<path class="st0" d="M246.1,200.9c-0.6,0.4-1.1,0.8-1.7,1.1"/>
</g>
<g id="SPLINE_64_">
	<path class="st0" d="M249.4,205.6c0-0.1,0-0.1-0.1-0.2"/>
</g>
<g id="SPLINE_65_">
	<path class="st0" d="M249.3,205.5c0-0.1-0.1-0.2-0.1-0.4c-0.2-0.6-0.5-1.1-0.7-1.7c-0.1-0.4-0.3-0.7-0.4-1.1c0-0.1-0.1-0.2-0.1-0.3
		"/>
</g>
<g id="LINE_138_">
	<line class="st0" x1="249.3" y1="205.5" x2="249.3" y2="205.5"/>
</g>
<g id="ELLIPSE_131_">
	<path class="st0" d="M243.5,209.1c0.2-0.1,0.3-0.2,0.4-0.1"/>
</g>
<g id="LINE_139_">
	<line class="st0" x1="244.5" y1="210" x2="244.5" y2="210"/>
</g>
<g id="ELLIPSE_132_">
	<path class="st0" d="M242.5,207.9c0.1,0,0.2-0.1,0.2-0.1"/>
</g>
<g id="LINE_140_">
	<line class="st0" x1="243.5" y1="209.1" x2="244.5" y2="210"/>
</g>
<g id="ELLIPSE_133_">
	<path class="st0" d="M226.6,211.8c-4.2,1.9-8.1,3.4-11.5,4.3"/>
</g>
<g id="ELLIPSE_134_">
	<path class="st0" d="M215.3,216l-0.1,0.1"/>
</g>
<g id="SPLINE_66_">
	<path class="st0" d="M225.2,209.1c-0.2,0.1-0.5,0.2-0.7,0.4c-0.2,0.1-0.3,0.3-0.3,0.4c-0.1,0.2-0.1,0.3,0,0.4
		c0.1,0.1,0.1,0.1,0.2,0.2c0.1,0,0.1,0,0.2,0.1"/>
</g>
<g id="LINE_141_">
	<line class="st0" x1="224.5" y1="210.5" x2="225.4" y2="210.7"/>
</g>
<g id="ELLIPSE_136_">
	<path class="st0" d="M245,200.6c-0.1,0.1-0.3,0.2-0.4,0.4"/>
</g>
<g id="ELLIPSE_137_">
	<path class="st0" d="M244.9,200.6c-0.1,0.1-0.3,0.2-0.4,0.3"/>
</g>
<g id="ARC_55_">
	<path class="st0" d="M253.3,183.3c0.5,0,1,0,1.5,0"/>
</g>
<g id="ARC_56_">
	<path class="st0" d="M258.8,187c0,0.1-0.1,0.2-0.2,0.3"/>
</g>
<g id="ELLIPSE_138_">
	<path class="st0" d="M258.8,187c-0.3,0.7-0.7,1.6-1.3,2.4"/>
</g>
<g id="ELLIPSE_139_">
	<path class="st0" d="M258.6,187.3c-0.3,0.8-0.8,1.8-1.6,2.8"/>
</g>
<g id="ARC_57_">
	<path class="st0" d="M253.2,182.9c0.7,0,1.4,0,2.1,0"/>
</g>
<g id="SPLINE_67_">
	<path class="st0" d="M252.9,181.9c0-0.1,0-0.1,0-0.2v-0.1v-0.1c0-0.1,0-0.1,0-0.2c0-0.1,0-0.1,0-0.2V181v-0.1v-0.1v-0.1
		c-0.1-0.1-0.1-0.1-0.1-0.2"/>
</g>
<g id="ELLIPSE_140_">
	<path class="st0" d="M252.7,180.4c5.5-0.6,8,0.9,6.9,4.2"/>
</g>
<g id="ELLIPSE_141_">
	<path class="st0" d="M239.3,183.8c5.2-1.9,9.8-3.1,13.4-3.5"/>
</g>
<g id="ARC_58_">
	<path class="st0" d="M245.2,195.6c-0.1,0.1-0.1,0.1-0.2,0.1"/>
</g>
<g id="ARC_59_">
	<path class="st0" d="M244.6,192.2c0.3,1.1,0.4,2.3,0.3,3.5"/>
</g>
<g id="ELLIPSE_142_">
	<path class="st0" d="M242.6,192.9c0.7-0.2,1.4-0.5,2-0.7"/>
</g>
<g id="ARC_60_">
	<path class="st0" d="M245,195.7c-0.1,1.6-0.8,3.1-2,4.1"/>
</g>
<g id="ARC_61_">
	<path class="st0" d="M243,199.8c-0.2,0.2-0.5,0.3-0.8,0.4"/>
</g>
<g id="SPLINE_69_">
	<path class="st0" d="M245,192.1c-0.1,0-0.2,0-0.3,0.1"/>
</g>
<g id="SPLINE_70_">
	<path class="st0" d="M245.2,195.6c0.1-0.1,0.1-0.1,0.1-0.1c0-0.1,0-0.1,0-0.1"/>
</g>
<g id="LINE_142_">
	<line class="st0" x1="244.9" y1="196.1" x2="244.8" y2="196.8"/>
</g>
<g id="ELLIPSE_143_">
	<path class="st0" d="M242.6,192.9c0.7-0.2,1.4-0.5,2-0.7"/>
</g>
<g id="SPLINE_72_">
	<path class="st0" d="M245,192.1c0,0-0.2,0-0.4,0.1"/>
</g>
<g id="SPLINE_73_">
	<path class="st0" d="M244.6,192.2c0-0.1-0.1-0.3-0.1-0.4"/>
</g>
<g id="ARC_62_">
	<path class="st0" d="M241.7,193.2c0.3-0.1,0.6-0.2,1-0.3"/>
</g>
<g id="SPLINE_74_">
	<path class="st0" d="M242.6,192.9c0.2,0.7,0.4,1.4,0.4,2.1c0.1,0.7,0,1.3-0.1,2c-0.1,0.4-0.1,0.8-0.3,1.1c-0.1,0.2-0.2,0.4-0.2,0.6
		c-0.1,0.2-0.2,0.4-0.3,0.6c-0.2,0.3-0.4,0.5-0.6,0.8c-0.3,0.3-0.7,0.6-1,0.7"/>
</g>
<g id="SPLINE_75_">
	<path class="st0" d="M240.5,200.8c0,0-0.1,0-0.1,0.1"/>
</g>
<g id="SPLINE_76_">
	<path class="st0" d="M238.8,201.1c-0.1,0-0.2,0-0.3-0.1s-0.3-0.3-0.3-0.6"/>
</g>
<g id="SPLINE_77_">
	<path class="st0" d="M238.2,200.5c0.4,0,0.9-0.1,1.3-0.2c0.4-0.2,0.8-0.4,1.1-0.7c0.2-0.2,0.4-0.4,0.5-0.7c0.1-0.2,0.2-0.3,0.3-0.5
		s0.2-0.4,0.2-0.6c0.1-0.3,0.2-0.6,0.3-1c0.1-0.6,0.1-1.1,0.1-1.7c0-0.6-0.2-1.3-0.3-1.9"/>
</g>
<g id="SPLINE_78_">
	<path class="st0" d="M252.5,189c0.2-0.1,0.3-0.3,0.4-0.5"/>
</g>
<g id="ARC_63_">
	<path class="st0" d="M252.4,180.6c0-0.1,0.1-0.2,0.3-0.2"/>
</g>
<g id="SPLINE_79_">
	<path class="st0" d="M252.4,180.6c0,0.1,0.1,0.3,0.1,0.4c0.2,0.7,0.4,1.4,0.6,2c0.1,0.4,0.2,0.8,0.4,1.3c0.1,0.3,0.1,0.5,0.2,0.8
		s0.1,0.5,0.2,0.8c0.1,0.4,0.2,0.8,0.4,1.3c0.2,0.7,0.4,1.4,0.6,2c0,0.1,0.1,0.2,0.1,0.4"/>
</g>
<g id="ARC_64_">
	<path class="st0" d="M252.9,188.5c0.2,0.2,0.3,0.4,0.4,0.7"/>
</g>
<g id="SPLINE_80_">
	<path class="st0" d="M252.9,188.5l-0.1-0.1l-0.1-0.1l-0.1-0.1l-0.1-0.1l-0.1-0.1l-0.1-0.1l-0.1-0.1l-0.1-0.1l-0.1-0.1l-0.1-0.1
		c-0.2-0.1-0.4-0.3-0.6-0.4c-0.2-0.1-0.4-0.2-0.6-0.3c-0.2-0.1-0.4-0.1-0.6-0.2c-0.2,0-0.4-0.1-0.6-0.1c-0.1,0-0.2,0-0.2,0
		c-0.1,0-0.2,0-0.2,0c-0.1,0-0.2,0-0.2,0c-0.1,0-0.2,0-0.2,0c-0.1,0-0.2,0-0.2,0.1"/>
</g>
<g id="SPLINE_81_">
	<path class="st0" d="M249.6,187.8c0.1,0,0.1,0,0.2,0.1c0.1,0,0.2,0.1,0.2,0.1c0.1,0,0.2,0.1,0.2,0.1c0.1,0,0.2,0.1,0.2,0.1
		c0.1,0,0.2,0.1,0.2,0.2s0.1,0.1,0.2,0.2"/>
</g>
<g id="SPLINE_82_">
	<path class="st0" d="M250.3,188.4l-0.1-0.1l-0.1-0.1l-0.1-0.1l-0.1-0.1l-0.1-0.1l-0.1-0.1c0,0-0.1,0-0.1-0.1c0,0-0.1,0-0.1-0.1
		c0,0-0.1,0-0.1-0.1"/>
</g>
<g id="ARC_65_">
	<path class="st0" d="M229.2,200.5c3-0.1,6-0.1,9,0"/>
</g>
<g id="SPLINE_83_">
	<path class="st0" d="M252.4,180.6c0.1,0.1,0.1,0.1,0.1,0.1c0.1,0.1,0.1,0.1,0.1,0.1c0,0.1,0,0.1,0.1,0.1c0,0.1,0,0.1,0,0.1
		c0,0.1,0,0.1,0,0.1"/>
</g>
<g id="SPLINE_84_">
	<path class="st0" d="M233.4,195.5c0.1,0,0.2,0,0.2,0s0.2,0.1,0.3,0.1s0.2,0.1,0.2,0.2s0.1,0.2,0.2,0.3"/>
</g>
<g id="LINE_143_">
	<line class="st0" x1="234.3" y1="196" x2="229.2" y2="200.5"/>
</g>
<g id="SPLINE_85_">
	<path class="st0" d="M229.2,200.5c0-0.1-0.1-0.2-0.2-0.3c-0.1-0.1-0.2-0.1-0.2-0.2c-0.1,0-0.2-0.1-0.3-0.1s-0.2,0-0.2,0"/>
</g>
<g id="LINE_144_">
	<line class="st0" x1="228.3" y1="200" x2="233.4" y2="195.5"/>
</g>
<g id="ARC_66_">
	<path class="st0" d="M233.6,195.3c-0.1,0.1-0.1,0.1-0.2,0.2"/>
</g>
<g id="ARC_67_">
	<path class="st0" d="M233.6,195.3c0.4,0,0.7,0.1,1,0.4"/>
</g>
<g id="ARC_68_">
	<path class="st0" d="M234.5,195.7c-0.1,0.1-0.1,0.2-0.2,0.3"/>
</g>
<g id="SPLINE_86_">
	<path class="st0" d="M229.2,200.5c-0.1,0.1-0.2,0.1-0.4,0.2c-0.2,0.1-0.4,0.2-0.5,0.2c-0.3,0.1-0.5,0.2-0.7,0.3"/>
</g>
<g id="SPLINE_87_">
	<path class="st0" d="M227.6,201.4c-0.1,0-0.2,0.1-0.3,0.1s-0.2-0.1-0.2-0.1c0-0.2,0.2-0.4,0.4-0.6c0.1-0.1,0.3-0.3,0.4-0.5
		c0.1-0.1,0.2-0.2,0.3-0.3"/>
</g>
<g id="LINE_145_">
	<line class="st0" x1="233.6" y1="195.3" x2="238.4" y2="187"/>
</g>
<g id="ARC_69_">
	<path class="st0" d="M238.4,187c0.4,0,0.8,0.1,1,0.4"/>
</g>
<g id="ARC_70_">
	<path class="st0" d="M239.4,187.4c-1.6,2.8-3.2,5.5-4.8,8.3"/>
</g>
<g id="ARC_71_">
	<path class="st0" d="M238.6,186.6c0,0.1-0.1,0.3-0.2,0.4"/>
</g>
<g id="ARC_72_">
	<path class="st0" d="M238.6,186.6c0.3,0,0.7,0,1,0.1"/>
</g>
<g id="ARC_73_">
	<path class="st0" d="M239.6,186.7c0,0.2-0.1,0.5-0.2,0.7"/>
</g>
<g id="ARC_74_">
	<path class="st0" d="M238.6,186.3c0.3,0,0.7,0,1,0.1"/>
</g>
<g id="LINE_146_">
	<line class="st0" x1="239.6" y1="186.4" x2="239.6" y2="186.7"/>
</g>
<g id="LINE_147_">
	<line class="st0" x1="238.6" y1="186.6" x2="238.6" y2="186.3"/>
</g>
<g id="ARC_75_">
	<path class="st0" d="M239.3,183.8c0.2-0.1,0.4-0.1,0.5,0"/>
</g>
<g id="SPLINE_88_">
	<path class="st0" d="M239.9,183.9c-0.1,0.1-0.2,0.3-0.3,0.6c0,0.3-0.1,0.6-0.1,0.9c0,0.2,0,0.4,0,0.6c0,0.1,0,0.3,0,0.4"/>
</g>
<g id="ARC_76_">
	<path class="st0" d="M238.6,186.3c0-0.9,0.3-1.7,0.8-2.5"/>
</g>
<g id="SPLINE_89_">
	<path class="st0" d="M239.9,183.9c0,0.1,0.1,0.3,0.1,0.4c0.2,0.7,0.4,1.3,0.6,2c0.1,0.4,0.3,0.8,0.4,1.3c0.1,0.3,0.2,0.5,0.2,0.8
		c0.1,0.3,0.2,0.5,0.2,0.8c0.1,0.4,0.3,0.8,0.4,1.3c0.2,0.7,0.4,1.3,0.6,2c0,0.1,0.1,0.3,0.1,0.4"/>
</g>
<g id="ARC_77_">
	<path class="st0" d="M241.7,193.2c0.3-0.1,0.6-0.2,1-0.3"/>
</g>
<g id="SPLINE_90_">
	<path class="st0" d="M241.7,193.2c0-0.1-0.1-0.3-0.1-0.4c-0.2-0.7-0.4-1.3-0.6-2c-0.1-0.4-0.3-0.8-0.4-1.3
		c-0.1-0.3-0.2-0.5-0.2-0.8c-0.1-0.3-0.2-0.5-0.2-0.8c-0.1-0.4-0.3-0.8-0.4-1.3c0-0.1,0-0.1-0.1-0.2"/>
</g>
<g id="LINE_148_">
	<line class="st0" x1="241.7" y1="193.2" x2="241.7" y2="193.2"/>
</g>
<g id="ARC_79_">
	<path class="st0" d="M248.2,186.7c0,0.1,0.1,0.3,0,0.4"/>
</g>
<g id="SPLINE_91_">
	<path class="st0" d="M248.2,187.1c0,0.1,0,0.2-0.1,0.3c0,0.1-0.1,0.1-0.1,0.2c0,0-0.1,0.1-0.2,0.1"/>
</g>
<g id="SPLINE_92_">
	<path class="st0" d="M244.9,191.1c0-0.1-0.1-0.3-0.4-0.4"/>
</g>
<g id="ARC_80_">
	<path class="st0" d="M244.5,190.7c0.5-1.9,1.8-3.4,3.7-4"/>
</g>
<g id="SPLINE_93_">
	<path class="st0" d="M244.9,191.7c0,0-0.2,0-0.4,0.1"/>
</g>
<g id="ARC_81_">
	<path class="st0" d="M244.5,191.8c-0.1-0.4-0.1-0.8,0-1.1"/>
</g>
<g id="ELLIPSE_144_">
	<path class="st0" d="M254.8,183.2c3.3,0.2,4.6,1.6,3.8,4.1"/>
</g>
<g id="LINE_149_">
	<line class="st0" x1="254.8" y1="183.2" x2="255.3" y2="182.9"/>
</g>
<g id="ELLIPSE_145_">
	<path class="st0" d="M255.3,182.9c2.9,0.2,4.1,1.5,3.6,3.6"/>
</g>
<g id="ELLIPSE_146_">
	<path class="st0" d="M258.9,186.5c0,0.2-0.1,0.3-0.2,0.5"/>
</g>
<g id="ELLIPSE_148_">
	<path class="st0" d="M220.1,202.2c4.3-2.6,9-5.1,13.5-6.9"/>
</g>
<g id="ELLIPSE_149_">
	<path class="st0" d="M220.2,202.3c4.2-2.6,8.8-4.9,13.2-6.8"/>
</g>
<g id="ARC_82_">
	<path class="st0" d="M214.9,198.6c-0.1-0.1-0.2-0.1-0.2-0.2"/>
</g>
<g id="ELLIPSE_150_">
	<path class="st0" d="M214.7,198.4c6.1-3.8,12.9-7.3,19.4-10"/>
</g>
<g id="LINE_150_">
	<line class="st0" x1="234.1" y1="188.4" x2="234.8" y2="188.4"/>
</g>
<g id="ELLIPSE_151_">
	<path class="st0" d="M214.9,198.6c6.3-3.9,13.3-7.5,19.9-10.2"/>
</g>
<g id="ARC_83_">
	<path class="st0" d="M234.1,188.4c1.5-0.6,2.9-1.2,4.4-1.8"/>
</g>
<g id="ARC_84_">
	<path class="st0" d="M234.8,188.4c1.2-0.5,2.3-1,3.5-1.4"/>
</g>
<g id="ELLIPSE_152_">
	<path class="st0" d="M237.2,201.1c-1.4,0.8-2.8,1.2-3.1,0.9c-0.2-0.2,0-0.5,0.6-1"/>
</g>
<g id="ELLIPSE_153_">
	<path class="st0" d="M249.8,188c0,0.1-0.1,0.2-0.2,0.2"/>
</g>
<g id="ARC_85_">
	<path class="st0" d="M191.3,214.9c-0.1-0.2-0.2-0.4-0.3-0.7"/>
</g>
<g id="ELLIPSE_154_">
	<path class="st0" d="M257.3,178.6c0.4,0.3,0.7,0.6,0.9,1"/>
</g>
<g id="SPLINE_94_">
	<path class="st0" d="M238.5,197.4c-0.2,0-0.3,0-0.5,0c-0.4-0.1-0.9-0.5-1.2-1c-0.2-0.4-0.3-0.8-0.3-1.2c0-0.3,0-0.7,0.1-1
		c0.1-0.2,0.2-0.4,0.4-0.6c0.1-0.1,0.3-0.2,0.4-0.2"/>
</g>
<g id="SPLINE_95_">
	<path class="st0" d="M238.9,197.2c0.2-0.1,0.3-0.3,0.4-0.5c0.1-0.2,0.1-0.5,0.2-0.7c0-0.3,0-0.5-0.1-0.8s-0.2-0.5-0.3-0.8
		c-0.1-0.2-0.3-0.4-0.5-0.6c-0.2-0.2-0.4-0.3-0.6-0.4c-0.2-0.1-0.4-0.1-0.6-0.1c-0.2,0-0.4,0.1-0.5,0.3c-0.2,0.1-0.3,0.3-0.4,0.5
		s-0.1,0.5-0.2,0.7c0,0.3,0,0.5,0.1,0.8s0.2,0.5,0.3,0.8c0.1,0.2,0.3,0.4,0.5,0.6c0.2,0.2,0.4,0.3,0.6,0.4c0.2,0.1,0.4,0.1,0.6,0.1
		S238.8,197.4,238.9,197.2z"/>
</g>
<g id="LINE_151_">
	<line class="st0" x1="243.4" y1="209.1" x2="243.5" y2="209.1"/>
</g>
<g id="ELLIPSE_155_">
	<path class="st0" d="M244.5,210c-0.1,0-0.1,0-0.2,0.1"/>
</g>
<g id="ARC_86_">
	<path class="st0" d="M244.3,210c-0.3-0.3-0.6-0.6-0.9-1"/>
</g>
<g id="LINE_152_">
	<line class="st0" x1="242.8" y1="208.3" x2="243.5" y2="209.1"/>
</g>
<g id="LINE_153_">
	<line class="st0" x1="235.3" y1="214.1" x2="235.3" y2="214.2"/>
</g>
<g id="ELLIPSE_156_">
	<path class="st0" d="M236.2,215l-0.1,0.1"/>
</g>
<g id="ARC_87_">
	<path class="st0" d="M236.2,215c-0.3-0.3-0.6-0.6-0.9-1"/>
</g>
<g id="LINE_154_">
	<line class="st0" x1="234.7" y1="213.3" x2="235.3" y2="214.2"/>
</g>
<g id="ELLIPSE_157_">
	<path class="st0" d="M232.9,210.4c-0.3,0.1-0.5,0.3-0.5,0.3"/>
</g>
<g id="ELLIPSE_158_">
	<path class="st0" d="M232.3,210.6c0.1-0.1,0.3-0.2,0.5-0.3"/>
</g>
<g id="ARC_88_">
	<path class="st0" d="M234.7,213.3c-0.1-0.1-0.2-0.3-0.3-0.4"/>
</g>
<g id="ARC_89_">
	<path class="st0" d="M234.4,212.8c-0.2-0.3-0.4-0.6-0.6-0.9"/>
</g>
<g id="ARC_90_">
	<path class="st0" d="M232.8,210.2c0,0,0,0.1,0.1,0.1"/>
</g>
<g id="ARC_91_">
	<path class="st0" d="M232.7,210.1c0,0.1,0.1,0.1,0.1,0.2"/>
</g>
<g id="ARC_92_">
	<path class="st0" d="M243.4,209.1c-0.2-0.3-0.4-0.5-0.7-0.8"/>
</g>
<g id="ELLIPSE_159_">
	<path class="st0" d="M232.9,210.4c0.3,0.5,0.6,1.1,1,1.6"/>
</g>
<g id="ARC_93_">
	<path class="st0" d="M235.3,214.1c-0.2-0.3-0.4-0.5-0.7-0.8"/>
</g>
<g id="LINE_155_">
	<line class="st0" x1="236.2" y1="215" x2="236.3" y2="215.1"/>
</g>
<g id="ARC_94_">
	<path class="st0" d="M242.5,207.9c-0.2-0.2-0.3-0.5-0.5-0.7"/>
</g>
<g id="ARC_95_">
	<path class="st0" d="M242.8,208.3c-0.1-0.1-0.2-0.3-0.3-0.4"/>
</g>
<g id="SPLINE_96_">
	<path class="st0" d="M206,212.7c-0.2,0.1-0.5,0.3-0.6,0.5c-0.2,0.2-0.3,0.4-0.4,0.7c-0.1,0.2-0.1,0.5-0.1,0.8s0.1,0.5,0.2,0.8
		s0.3,0.5,0.5,0.6c0.2,0.2,0.5,0.3,0.7,0.4c0.3,0.1,0.5,0.1,0.8,0.1s0.5-0.1,0.8-0.2c0.2-0.1,0.5-0.3,0.6-0.5
		c0.2-0.2,0.3-0.4,0.4-0.7c0.1-0.2,0.1-0.5,0.1-0.8s-0.1-0.5-0.2-0.8s-0.3-0.5-0.5-0.6c-0.2-0.2-0.5-0.3-0.7-0.4
		c-0.3-0.1-0.5-0.1-0.8-0.1C206.6,212.5,206.3,212.6,206,212.7z"/>
</g>
<g id="SPLINE_97_">
	<path class="st0" d="M206.1,212.8c0.4-0.2,0.9-0.2,1.3-0.1c0.6,0.1,1.1,0.6,1.4,1.1c0.2,0.4,0.3,0.8,0.2,1.2
		c-0.1,0.3-0.2,0.7-0.4,0.9s-0.4,0.4-0.7,0.5c-0.4,0.2-0.9,0.2-1.3,0.1c-0.6-0.1-1.1-0.6-1.4-1.1c-0.2-0.4-0.3-0.8-0.2-1.2
		c0.1-0.3,0.2-0.7,0.4-0.9C205.6,213,205.8,212.9,206.1,212.8z"/>
</g>
<g id="SPLINE_98_">
	<path class="st0" d="M245.7,202.5h0.1c0.1,0,0.2,0.1,0.4,0.2"/>
</g>
<g id="SPLINE_99_">
	<path class="st0" d="M247.9,205.6c0,0.1,0,0.3,0,0.3"/>
</g>
<g id="SPLINE_100_">
	<path class="st0" d="M247.8,206c0.1,0,0.2,0,0.2-0.1s0.1-0.2,0-0.3c0-0.2-0.1-0.3-0.1-0.6c-0.1-0.2-0.2-0.5-0.3-0.7
		s-0.3-0.5-0.4-0.7c-0.1-0.2-0.3-0.4-0.5-0.6c-0.2-0.2-0.3-0.3-0.4-0.5s-0.3-0.2-0.3-0.2c-0.1,0-0.2,0-0.2,0.1s-0.1,0.2,0,0.3
		c0,0.2,0.1,0.3,0.1,0.6c0.1,0.2,0.2,0.5,0.3,0.7s0.3,0.5,0.4,0.7c0.1,0.2,0.3,0.4,0.5,0.6s0.3,0.3,0.4,0.5S247.7,206,247.8,206z"/>
</g>
<g id="ARC_96_">
	<path class="st0" d="M245.2,196.3c-0.2,1.3-0.9,2.5-1.9,3.3"/>
</g>
<g id="SPLINE_101_">
	<path class="st0" d="M244.8,196.8c0.1-0.1,0.2-0.2,0.3-0.3l0.1-0.1"/>
</g>
<g id="ARC_97_">
	<path class="st0" d="M206.2,221.6c-0.6,0.1-1.3,0-1.9-0.1"/>
</g>
<g id="ELLIPSE_161_">
	<path class="st0" d="M244.5,210c0,0,0.1,0,0.1-0.1"/>
</g>
<g id="LINE_156_">
	<line class="st0" x1="244.5" y1="210" x2="244.6" y2="209.9"/>
</g>
<g id="LINE_157_">
	<line class="st0" x1="244.8" y1="209.7" x2="243.9" y2="208.9"/>
</g>
<g id="ELLIPSE_162_">
	<path class="st0" d="M236,215.3l0.1-0.1"/>
</g>
<g id="LINE_158_">
	<line class="st0" x1="235.5" y1="215.4" x2="234.8" y2="214.6"/>
</g>
<g id="ELLIPSE_163_">
	<path class="st0" d="M245.4,209.8c-0.1,0.1-0.2,0.1-0.3,0.1"/>
</g>
<g id="LINE_159_">
	<line class="st0" x1="245.1" y1="209.9" x2="244.8" y2="209.6"/>
</g>
<g id="ELLIPSE_164_">
	<path class="st0" d="M235.7,215.8c-0.1,0.1-0.2,0.2-0.3,0.3"/>
</g>
<g id="LINE_160_">
	<line class="st0" x1="235.7" y1="215.8" x2="235.4" y2="215.5"/>
</g>
<g id="ELLIPSE_165_">
	<path class="st0" d="M247,210.9c-0.2,0.1-0.3,0.1-0.5,0.1"/>
</g>
<g id="ELLIPSE_166_">
	<path class="st0" d="M237.1,216.8c-0.1,0.2-0.2,0.3-0.3,0.4"/>
</g>
<g id="LINE_161_">
	<line class="st0" x1="244.4" y1="210.1" x2="244.3" y2="210"/>
</g>
<g id="LINE_162_">
	<line class="st0" x1="237.3" y1="215.9" x2="235.4" y2="215.5"/>
</g>
<g id="LINE_163_">
	<line class="st0" x1="236.1" y1="215.2" x2="236" y2="215.3"/>
</g>
<g id="ARC_98_">
	<path class="st0" d="M236,215.3c-0.1,0.1-0.3,0.1-0.4,0.1"/>
</g>
<g id="ARC_99_">
	<path class="st0" d="M244.8,209.7c0,0.1-0.1,0.1-0.1,0.2"/>
</g>
<g id="LINE_164_">
	<line class="st0" x1="235.4" y1="215.5" x2="235.6" y2="215.4"/>
</g>
<g id="ARC_100_">
	<path class="st0" d="M236.1,215.2c0.1,0,0.1-0.1,0.2-0.1"/>
</g>
<g id="LINE_165_">
	<line class="st0" x1="236.3" y1="215.1" x2="238" y2="215.5"/>
</g>
<g id="SPLINE_102_">
	<path class="st0" d="M238,216.7c-0.1,0.1-0.1,0.1-0.1,0.2c-0.1,0.1-0.2,0.1-0.3,0.1s-0.1,0-0.2,0c-0.1,0-0.1,0-0.2-0.1"/>
</g>
<g id="ARC_101_">
	<path class="st0" d="M237.1,216.8c-0.5-0.3-1-0.6-1.4-1"/>
</g>
<g id="SPLINE_103_">
	<path class="st0" d="M246.8,211.1c-0.2,0-0.2-0.1-0.3-0.1"/>
</g>
<g id="ARC_102_">
	<path class="st0" d="M246.5,211c-0.5-0.3-1-0.6-1.4-1"/>
</g>
<g id="LINE_166_">
	<line class="st0" x1="244.8" y1="209.6" x2="244.8" y2="209.7"/>
</g>
<g id="ARC_103_">
	<path class="st0" d="M244.4,210.1l0.1-0.1"/>
</g>
<g id="LINE_167_">
	<line class="st0" x1="244.4" y1="210.1" x2="245.7" y2="210.4"/>
</g>
<g id="ELLIPSE_167_">
	<path class="st0" d="M226.2,207.3c0.2,0.3-0.8,1.3-2.3,2c-1.4,0.8-2.8,1.1-3,0.8s0.8-1.3,2.3-2C224.7,207.3,226,207,226.2,207.3
		L226.2,207.3z"/>
</g>
<g id="ELLIPSE_168_">
	<path class="st0" d="M228,202.1c0.2,0.3-0.8,1.3-2.3,2c-1.4,0.8-2.8,1.1-3,0.8s0.8-1.3,2.3-2C226.5,202.1,227.8,201.8,228,202.1
		L228,202.1z"/>
</g>
<g id="SPLINE_104_">
	<path class="st0" d="M199.7,218.8c-0.3-0.1-0.5-0.2-0.7-0.3s-0.4-0.1-0.5-0.2c-0.3-0.1-0.4-0.1-0.5-0.2"/>
</g>
<g id="ARC_105_">
	<path class="st0" d="M211.3,221.5c2.5-3.6,5.1-7.2,7.9-10.6"/>
</g>
<g id="ARC_106_">
	<path class="st0" d="M212.2,217.5c2.8-4.2,5.8-8.4,9-12.3"/>
</g>
<g id="ARC_107_">
	<path class="st0" d="M199.7,218.8c0.2,0.1,0.4,0.2,0.5,0.4"/>
</g>
<g id="LINE_169_">
	<line class="st0" x1="200.5" y1="219.5" x2="200.2" y2="219.3"/>
</g>
<g id="ARC_108_">
	<path class="st0" d="M211,219.1c0.2-0.3,0.4-0.5,0.7-0.8"/>
</g>
<g id="ARC_109_">
	<path class="st0" d="M237.4,217.3c-0.7,0.4-1.4,0.7-2,1.1"/>
</g>
<g id="SPLINE_105_">
	<path class="st0" d="M235.4,218.4c-0.3,0.1-0.5,0.1-0.7,0.1s-0.3,0-0.5-0.1s-0.4-0.2-0.7-0.3c-0.3-0.2-0.7-0.5-1.1-0.9"/>
</g>
<g id="ARC_110_">
	<path class="st0" d="M249.5,209.7c-0.6,0.4-1.1,0.8-1.7,1.2"/>
</g>
<g id="SPLINE_106_">
	<path class="st0" d="M249.4,205.6c0.3,0.7,0.5,1.3,0.6,1.8c0.1,0.4,0.1,0.7,0.1,1c0,0.2,0,0.4-0.1,0.6c-0.1,0.2-0.3,0.5-0.5,0.7"/>
</g>
<g id="ARC_111_">
	<path class="st0" d="M224.8,210.1c2.6,2.3,5.2,4.7,7.8,7.1"/>
</g>
<g id="LINE_170_">
	<line class="st0" x1="243.5" y1="208.5" x2="241.4" y2="206.6"/>
</g>
<g id="SPLINE_107_">
	<path class="st0" d="M241.4,206.6c-0.1-0.1-0.2-0.2-0.4-0.3c-0.1,0-0.2-0.1-0.3-0.1s-0.2-0.1-0.4-0.1c-0.1,0-0.3,0-0.4,0
		c-0.2,0-0.3,0-0.5,0s-0.3,0.1-0.5,0.1c-0.2,0.1-0.3,0.1-0.5,0.2"/>
</g>
<g id="LINE_171_">
	<line class="st0" x1="238.5" y1="206.4" x2="235.7" y2="208"/>
</g>
<g id="LINE_172_">
	<line class="st0" x1="235.7" y1="208" x2="233" y2="209.8"/>
</g>
<g id="SPLINE_108_">
	<path class="st0" d="M233,209.8c-0.2,0.1-0.3,0.3-0.4,0.4c-0.1,0.1-0.2,0.3-0.3,0.4c-0.1,0.1-0.1,0.3-0.1,0.4c0,0.1,0,0.2,0,0.3"/>
</g>
<g id="SPLINE_109_">
	<path class="st0" d="M248,202.1c0.4,1.1,0.9,2.3,1.4,3.5"/>
</g>
<g id="LINE_173_">
	<line class="st0" x1="259.6" y1="184.6" x2="258.8" y2="187"/>
</g>
<g id="LINE_174_">
	<line class="st0" x1="245.3" y1="194.9" x2="245.3" y2="195.5"/>
</g>
<g id="ARC_112_">
	<path class="st0" d="M245,192.1c0.3,0.9,0.4,1.8,0.3,2.8"/>
</g>
<g id="ARC_113_">
	<path class="st0" d="M240.3,200.9c0.6-0.2,1.2-0.5,1.9-0.7"/>
</g>
<g id="LINE_175_">
	<line class="st0" x1="244.9" y1="191.7" x2="245" y2="192.1"/>
</g>
<g id="ARC_114_">
	<path class="st0" d="M240.4,200.8c-0.5,0.2-1.1,0.3-1.6,0.3"/>
</g>
<g id="ARC_115_">
	<path class="st0" d="M227.4,201.3c3.7-0.3,7.5-0.4,11.3-0.2"/>
</g>
<g id="SPLINE_110_">
	<path class="st0" d="M252.7,181.2c0.7,2.6,1.5,5.4,2.3,8.4"/>
</g>
<g id="ARC_116_">
	<path class="st0" d="M247.9,187.7c0.6-0.2,1.2-0.1,1.8,0.1"/>
</g>
<g id="ARC_117_">
	<path class="st0" d="M244.9,191.1c0.3-1.6,1.5-2.9,3-3.4"/>
</g>
<g id="ARC_118_">
	<path class="st0" d="M244.9,191.7c-0.1-0.2-0.1-0.5,0-0.7"/>
</g>
<g id="LINE_176_">
	<line class="st0" x1="258.3" y1="179.5" x2="259.6" y2="182"/>
</g>
<g id="LINE_177_">
	<line class="st0" x1="192.7" y1="217.5" x2="191.3" y2="214.9"/>
</g>
<g id="LINE_178_">
	<line class="st0" x1="245.2" y1="195.4" x2="245.2" y2="195.8"/>
</g>
<g id="ARC_119_">
	<path class="st0" d="M247.8,210.9c-0.1,0-0.1,0.1-0.2,0.1"/>
</g>
<g id="ARC_120_">
	<path class="st0" d="M247.5,211c-0.3,0.1-0.5,0.1-0.8,0"/>
</g>
<g id="SPLINE_111_">
	<path class="st0" d="M238,216.7c0,0.1-0.1,0.2-0.2,0.2c-0.1,0.1-0.3,0.2-0.4,0.4"/>
</g>
<g id="ELLIPSE_186_">
	<path class="st0" d="M245.9,202.6c0.2-0.1,0.8,0.5,1.4,1.3c0.5,0.9,0.8,1.7,0.6,1.8s-0.8-0.5-1.4-1.3
		C245.9,203.5,245.7,202.7,245.9,202.6L245.9,202.6z"/>
</g>
<g id="LINE_201_">
	<line class="st0" x1="247.9" y1="205.6" x2="247.9" y2="205.7"/>
</g>
<g id="ELLIPSE_187_">
	<path class="st0" d="M205.3,213.9c0.3-0.9,1.4-1.4,2.3-1c1,0.3,1.5,1.3,1.2,2.2s-1.4,1.4-2.3,1
		C205.5,215.8,204.9,214.8,205.3,213.9L205.3,213.9z"/>
</g>
<g id="ELLIPSE_188_">
	<path class="st0" d="M237.4,193.6c0.7-0.2,1.4,0.5,1.7,1.5s-0.1,1.9-0.8,2.1s-1.4-0.5-1.7-1.5S236.7,193.8,237.4,193.6L237.4,193.6
		z"/>
</g>
<g id="LINE_202_">
	<line class="st0" x1="236.9" y1="196.4" x2="236.9" y2="196.4"/>
</g>
<g id="LINE_203_">
	<line class="st0" x1="236.6" y1="195.1" x2="236.6" y2="195"/>
</g>
<g id="LINE_236_">
	<line class="st0" x1="235.4" y1="201.3" x2="235.4" y2="201.3"/>
</g>
<g id="LINE_237_">
	<line class="st0" x1="236.1" y1="201.2" x2="236.2" y2="201.2"/>
</g>
<g id="LINE_238_">
	<line class="st0" x1="235.9" y1="200.7" x2="236.1" y2="201.2"/>
</g>
<g id="ELLIPSE_207_">
	<path class="st0" d="M237,201.1c-1.1,0.6-2.2,0.9-2.4,0.7c-0.1-0.1,0-0.3,0.3-0.6"/>
</g>
<g id="LINE_239_">
	<line class="st0" x1="236.1" y1="201.2" x2="236.1" y2="201.2"/>
</g>
<g id="LINE_240_">
	<line class="st0" x1="235.4" y1="201.2" x2="235.4" y2="201.3"/>
</g>
<g id="ELLIPSE_208_">
	<path class="st0" d="M235.5,201.1c0.1-0.1,0.3-0.3,0.5-0.4"/>
</g>
<g id="ELLIPSE_209_">
	<path class="st0" d="M236.1,201.2c-0.4,0.1-0.6,0.1-0.7,0"/>
</g>
<g id="SPLINE_120_">
	<path class="st0" d="M236.1,201.2c-0.1-0.1-0.3-0.1-0.4-0.1c-0.1,0-0.1,0-0.2,0c0,0-0.1,0-0.1,0.1"/>
</g>
<g id="ELLIPSE_210_">
	<path class="st0" d="M236.4,201.1c-0.1,0-0.2,0.1-0.3,0.1"/>
</g>
<g id="LINE_241_">
	<line class="st0" x1="234.2" y1="201.6" x2="234.2" y2="201.6"/>
</g>
<g id="SPLINE_121_">
	<path class="st0" d="M237.3,200.9c-0.2,0.1-0.4,0.2-0.6,0.3c-0.3,0.1-0.6,0.3-0.8,0.4c-0.3,0.1-0.5,0.2-0.7,0.2s-0.4,0.1-0.6,0
		c-0.1,0-0.2-0.1-0.2-0.2c0-0.1-0.1-0.1-0.1-0.2"/>
</g>
<g id="LINE_242_">
	<line class="st0" x1="224.8" y1="208.1" x2="224.8" y2="208.1"/>
</g>
<g id="LINE_243_">
	<line class="st0" x1="224.1" y1="208.1" x2="224.1" y2="208.1"/>
</g>
<g id="LINE_244_">
	<line class="st0" x1="222.9" y1="208.7" x2="222.9" y2="208.7"/>
</g>
<g id="LINE_245_">
	<line class="st0" x1="222.3" y1="209.3" x2="222.3" y2="209.3"/>
</g>
<g id="LINE_246_">
	<line class="st0" x1="223" y1="209.3" x2="223" y2="209.3"/>
</g>
<g id="LINE_247_">
	<line class="st0" x1="222.7" y1="208.8" x2="223" y2="209.3"/>
</g>
<g id="LINE_248_">
	<line class="st0" x1="224.3" y1="208.7" x2="224.3" y2="208.7"/>
</g>
<g id="LINE_249_">
	<line class="st0" x1="224" y1="208.1" x2="224.3" y2="208.7"/>
</g>
<g id="ELLIPSE_211_">
	<path class="st0" d="M225.6,207.6c0.1,0.3-0.7,1-1.8,1.6s-2.2,0.9-2.3,0.6c-0.1-0.3,0.7-1,1.8-1.6S225.5,207.3,225.6,207.6
		L225.6,207.6z"/>
</g>
<g id="LINE_250_">
	<line class="st0" x1="224.8" y1="208.1" x2="224.8" y2="208.1"/>
</g>
<g id="ARC_130_">
	<path class="st0" d="M224.3,208.7c0.1-0.3,0.3-0.5,0.5-0.6"/>
</g>
<g id="LINE_251_">
	<line class="st0" x1="224.2" y1="208.7" x2="224.3" y2="208.7"/>
</g>
<g id="LINE_252_">
	<line class="st0" x1="223" y1="209.3" x2="223" y2="209.3"/>
</g>
<g id="LINE_253_">
	<line class="st0" x1="222.3" y1="209.3" x2="222.3" y2="209.3"/>
</g>
<g id="LINE_254_">
	<line class="st0" x1="222.9" y1="208.7" x2="222.9" y2="208.7"/>
</g>
<g id="LINE_255_">
	<line class="st0" x1="224.1" y1="208.1" x2="224.1" y2="208.1"/>
</g>
<g id="ELLIPSE_212_">
	<path class="st0" d="M224.1,208.1c0.4-0.1,0.6-0.1,0.7,0"/>
</g>
<g id="SPLINE_122_">
	<path class="st0" d="M224.4,208c0.1,0,0.1,0,0.2,0c0.1,0,0.1,0,0.2,0.1"/>
</g>
<g id="ELLIPSE_213_">
	<path class="st0" d="M222.9,208.7c0.4-0.2,0.8-0.5,1.2-0.6"/>
</g>
<g id="ELLIPSE_214_">
	<path class="st0" d="M222.3,209.3c0-0.1,0.2-0.3,0.5-0.6"/>
</g>
<g id="ARC_131_">
	<path class="st0" d="M222.3,209.3c0.1-0.3,0.3-0.5,0.5-0.6"/>
</g>
<g id="ELLIPSE_215_">
	<path class="st0" d="M223,209.3c-0.4,0.1-0.6,0.1-0.7,0"/>
</g>
<g id="SPLINE_123_">
	<path class="st0" d="M223,209.3c-0.1-0.1-0.3-0.1-0.4-0.1c-0.1,0-0.1,0-0.2,0s-0.1,0-0.1,0.1"/>
</g>
<g id="ELLIPSE_216_">
	<path class="st0" d="M224.2,208.7c-0.4,0.2-0.8,0.5-1.2,0.6"/>
</g>
<g id="ARC_132_">
	<path class="st0" d="M223,209.3c0.3-0.3,0.8-0.5,1.2-0.6"/>
</g>
<g id="ELLIPSE_217_">
	<path class="st0" d="M224.8,208.1c0,0.1-0.2,0.3-0.5,0.6"/>
</g>
<g id="SPLINE_124_">
	<path class="st0" d="M223.9,209.2c-0.2,0.1-0.4,0.2-0.6,0.3c-0.3,0.1-0.6,0.2-0.8,0.3c-0.3,0.1-0.5,0.1-0.7,0.2c-0.2,0-0.3,0-0.5,0
		c-0.1,0-0.2-0.1-0.2-0.2"/>
</g>
<g id="SPLINE_125_">
	<path class="st0" d="M225.8,207.2c0,0.1,0,0.2,0,0.3s0,0.2-0.1,0.2c-0.1,0.1-0.2,0.2-0.3,0.4s-0.3,0.3-0.6,0.5
		c-0.2,0.2-0.5,0.4-0.8,0.5c-0.1,0-0.2,0.1-0.2,0.1"/>
</g>
<g id="LINE_256_">
	<line class="st0" x1="224.8" y1="204.1" x2="224.9" y2="204.1"/>
</g>
<g id="LINE_257_">
	<line class="st0" x1="224.6" y1="203.6" x2="224.8" y2="204.1"/>
</g>
<g id="LINE_258_">
	<line class="st0" x1="226.1" y1="203.5" x2="226.1" y2="203.5"/>
</g>
<g id="LINE_259_">
	<line class="st0" x1="225.8" y1="203" x2="226.1" y2="203.5"/>
</g>
<g id="LINE_260_">
	<line class="st0" x1="226.7" y1="202.9" x2="226.7" y2="202.9"/>
</g>
<g id="LINE_261_">
	<line class="st0" x1="226" y1="202.9" x2="225.9" y2="202.9"/>
</g>
<g id="LINE_262_">
	<line class="st0" x1="224.7" y1="203.5" x2="224.7" y2="203.6"/>
</g>
<g id="LINE_263_">
	<line class="st0" x1="224.1" y1="204.2" x2="224.2" y2="204.2"/>
</g>
<g id="ELLIPSE_218_">
	<path class="st0" d="M227.5,202.4c0.1,0.3-0.7,1-1.8,1.6s-2.2,0.9-2.3,0.6c-0.1-0.3,0.7-1,1.8-1.6S227.3,202.2,227.5,202.4
		L227.5,202.4z"/>
</g>
<g id="LINE_264_">
	<line class="st0" x1="224.8" y1="204.1" x2="224.8" y2="204.1"/>
</g>
<g id="SPLINE_126_">
	<path class="st0" d="M224.8,204.1c-0.1,0-0.1,0-0.2-0.1s-0.1,0-0.2,0c-0.1,0-0.1,0-0.2,0s-0.1,0-0.1,0.1"/>
</g>
<g id="LINE_265_">
	<line class="st0" x1="224.2" y1="204.1" x2="224.1" y2="204.2"/>
</g>
<g id="LINE_266_">
	<line class="st0" x1="224.7" y1="203.5" x2="224.7" y2="203.5"/>
</g>
<g id="LINE_267_">
	<line class="st0" x1="226" y1="202.9" x2="226" y2="202.9"/>
</g>
<g id="LINE_268_">
	<line class="st0" x1="226.7" y1="202.9" x2="226.7" y2="202.9"/>
</g>
<g id="LINE_269_">
	<line class="st0" x1="226.1" y1="203.5" x2="226.1" y2="203.5"/>
</g>
<g id="ELLIPSE_219_">
	<path class="st0" d="M226.1,203.5c-0.4,0.2-0.8,0.5-1.2,0.6"/>
</g>
<g id="ARC_133_">
	<path class="st0" d="M224.9,204.1c0.3-0.3,0.8-0.5,1.2-0.6"/>
</g>
<g id="ELLIPSE_220_">
	<path class="st0" d="M226.7,202.9c0,0.1-0.2,0.3-0.5,0.6"/>
</g>
<g id="ARC_134_">
	<path class="st0" d="M226.1,203.5c0.1-0.3,0.3-0.5,0.5-0.6"/>
</g>
<g id="ELLIPSE_221_">
	<path class="st0" d="M226,202.9c0.4-0.1,0.6-0.1,0.7,0"/>
</g>
<g id="SPLINE_127_">
	<path class="st0" d="M226,202.9l0.1-0.1c0,0,0.1,0,0.2,0s0.1,0,0.2,0s0.1,0,0.2,0.1"/>
</g>
<g id="ELLIPSE_222_">
	<path class="st0" d="M224.7,203.5c0.4-0.2,0.8-0.5,1.2-0.6"/>
</g>
<g id="ELLIPSE_223_">
	<path class="st0" d="M224.2,204.1c0-0.1,0.2-0.3,0.5-0.6"/>
</g>
<g id="SPLINE_128_">
	<path class="st0" d="M224.2,204.1c0-0.1,0.1-0.2,0.2-0.3"/>
</g>
<g id="ELLIPSE_224_">
	<path class="st0" d="M224.8,204.1c-0.4,0.1-0.6,0.1-0.7,0"/>
</g>
<g id="SPLINE_129_">
	<path class="st0" d="M227.6,202c0,0.1,0.1,0.1,0.1,0.1c0,0.1,0,0.2,0,0.2c0,0.1-0.1,0.2-0.1,0.3c-0.1,0.2-0.3,0.3-0.4,0.5
		c-0.1,0.1-0.3,0.2-0.5,0.4"/>
</g>
<g id="SPLINE_130_">
	<path class="st0" d="M226.6,203.5c-0.1,0.1-0.3,0.2-0.4,0.3c-0.2,0.2-0.5,0.3-0.8,0.4c-0.3,0.1-0.6,0.3-0.8,0.4
		c-0.3,0.1-0.5,0.2-0.7,0.2s-0.4,0.1-0.6,0c-0.1,0-0.2-0.1-0.3-0.2"/>
</g>
<g id="LINE_288_">
	<line class="st0" x1="230.3" y1="442.5" x2="143.4" y2="465"/>
</g>
<g id="ELLIPSE_238_">
	<path class="st0" d="M229,222c-8.6,70.7-8.2,145.2,1.4,220.5c3.2,25.4,12.6,50,26.5,69.8"/>
</g>
<g id="LINE_290_">
	<line class="st0" x1="229.1" y1="222" x2="208.7" y2="227.3"/>
</g>
<g id="LINE_291_">
	<line class="st0" x1="192.5" y1="231.5" x2="142.4" y2="244.4"/>
</g>
<g id="LINE_292_">
	<line class="st0" x1="260.5" y1="517.3" x2="173.7" y2="539.7"/>
</g>
<g id="ELLIPSE_250_">
	<path class="st0" d="M260.5,522.9c0,0.1,0,0.1-0.1,0.1"/>
</g>
<g id="ELLIPSE_252_">
	<path class="st0" d="M173.5,545.7c-0.1,0-0.1,0-0.1,0"/>
</g>
<g id="LINE_297_">
	<line class="st0" x1="260.1" y1="515.9" x2="173.3" y2="538.4"/>
</g>
<g id="ELLIPSE_255_">
	<path class="st0" d="M257.3,512.3c0,0,0.1,0,0.2,0.1"/>
</g>
<g id="LINE_301_">
	<line class="st0" x1="257" y1="512.2" x2="170.1" y2="534.7"/>
</g>
<g id="ELLIPSE_258_">
	<path class="st0" d="M257,512.2h0.1"/>
</g>
<g id="ELLIPSE_259_">
	<path class="st0" d="M260.5,517.1c0-0.3-0.1-0.7-0.2-0.9l-2.8-3.9l2.6,3.6c0.3,0.4,0.4,0.9,0.4,1.4l-0.1,5.7l-0.1,0.1l-86.6,22.4"
		/>
</g>
<g id="LINE_302_">
	<line class="st0" x1="257.3" y1="512.3" x2="257" y2="512.2"/>
</g>
<g id="LINE_305_">
	<line class="st0" x1="173" y1="538.6" x2="173.3" y2="538.4"/>
</g>
<g id="LINE_306_">
	<line class="st0" x1="260.5" y1="517.3" x2="260.5" y2="517.1"/>
</g>
<g id="LINE_307_">
	<line class="st0" x1="173.4" y1="539.7" x2="173.7" y2="539.7"/>
</g>
<g id="LINE_308_">
	<line class="st0" x1="173.4" y1="545.4" x2="173.7" y2="545.4"/>
</g>
<g id="LINE_310_">
	<line class="st0" x1="173.5" y1="545.7" x2="173.7" y2="545.5"/>
</g>
<g id="LINE_311_">
	<line class="st0" x1="173.4" y1="545.7" x2="173.4" y2="545.7"/>
</g>
<g id="LINE_312_">
	<line class="st0" x1="257.2" y1="512.2" x2="257.4" y2="512.3"/>
</g>
<g id="LINE_313_">
	<line class="st0" x1="260.2" y1="516.1" x2="260.3" y2="516.2"/>
</g>
<g id="ELLIPSE_261_">
	<path class="st0" d="M181.4,538.4c0.7,0.2,1.1,1.3,0.8,2.3c-0.3,1.1-1.1,1.8-1.9,1.6c-0.7-0.2-1.1-1.3-0.8-2.3
		S180.6,538.2,181.4,538.4L181.4,538.4z"/>
</g>
<g id="ELLIPSE_264_">
	<path class="st0" d="M180.6,540.4c0,0.1-0.1,0.2-0.2,0.3"/>
</g>
<g id="ELLIPSE_265_">
	<path class="st0" d="M180.6,539.9c0,0.2,0,0.3,0,0.5"/>
</g>
<g id="LINE_315_">
	<line class="st0" x1="180.4" y1="540.7" x2="180.6" y2="540.4"/>
</g>
<g id="LINE_317_">
	<line class="st0" x1="180.7" y1="540.1" x2="180.6" y2="539.9"/>
</g>
<g id="LINE_318_">
	<line class="st0" x1="180.6" y1="539.9" x2="180.6" y2="539.9"/>
</g>
<g id="LINE_319_">
	<line class="st0" x1="180.3" y1="540.5" x2="180.3" y2="540.5"/>
</g>
<g id="LINE_320_">
	<line class="st0" x1="180.6" y1="541.1" x2="180.6" y2="541.1"/>
</g>
<g id="LINE_321_">
	<line class="st0" x1="181.1" y1="540.9" x2="181.1" y2="540.9"/>
</g>
<g id="LINE_322_">
	<line class="st0" x1="180.4" y1="540.7" x2="181.1" y2="540.9"/>
</g>
<g id="LINE_323_">
	<line class="st0" x1="181.3" y1="540.3" x2="181.3" y2="540.3"/>
</g>
<g id="LINE_324_">
	<line class="st0" x1="180.7" y1="540.1" x2="181.3" y2="540.3"/>
</g>
<g id="LINE_325_">
	<line class="st0" x1="181.1" y1="539.7" x2="181.1" y2="539.7"/>
</g>
<g id="LINE_326_">
	<line class="st0" x1="180.3" y1="540.5" x2="180.3" y2="540.5"/>
</g>
<g id="LINE_327_">
	<line class="st0" x1="180.6" y1="541" x2="180.6" y2="541.1"/>
</g>
<g id="LINE_328_">
	<line class="st0" x1="181.1" y1="540.9" x2="181.1" y2="540.9"/>
</g>
<g id="LINE_329_">
	<line class="st0" x1="181.3" y1="540.3" x2="181.3" y2="540.3"/>
</g>
<g id="LINE_330_">
	<line class="st0" x1="181.1" y1="539.8" x2="181.1" y2="539.7"/>
</g>
<g id="LINE_331_">
	<line class="st0" x1="180.6" y1="539.9" x2="180.6" y2="539.9"/>
</g>
<g id="ELLIPSE_266_">
	<path class="st0" d="M180.6,539.9c0.2-0.2,0.3-0.2,0.5-0.1"/>
</g>
<g id="ELLIPSE_267_">
	<path class="st0" d="M181.1,539.8c0.1,0.1,0.2,0.3,0.2,0.5"/>
</g>
<g id="ELLIPSE_268_">
	<path class="st0" d="M181.3,540.3c0,0.2-0.1,0.5-0.2,0.6"/>
</g>
<g id="ELLIPSE_269_">
	<path class="st0" d="M181.1,540.9c-0.2,0.2-0.3,0.2-0.5,0.1"/>
</g>
<g id="ELLIPSE_270_">
	<path class="st0" d="M180.6,541c-0.1-0.1-0.2-0.3-0.2-0.5"/>
</g>
<g id="ELLIPSE_271_">
	<path class="st0" d="M180.3,540.5c0-0.2,0.1-0.5,0.2-0.6"/>
</g>
<g id="ARC_139_">
	<path class="st0" d="M180.3,540.5c0-0.2,0.1-0.4,0.2-0.6"/>
</g>
<g id="ARC_140_">
	<path class="st0" d="M180.6,541c-0.1-0.2-0.2-0.3-0.2-0.5"/>
</g>
<g id="ARC_141_">
	<path class="st0" d="M180.6,541.1c0.2-0.1,0.3-0.1,0.5-0.1"/>
</g>
<g id="ARC_142_">
	<path class="st0" d="M181.1,540.9c0-0.2,0.1-0.4,0.2-0.6"/>
</g>
<g id="ARC_143_">
	<path class="st0" d="M181.3,540.3c-0.1-0.2-0.2-0.3-0.2-0.5"/>
</g>
<g id="ELLIPSE_272_">
	<path class="st0" d="M253.7,519.7c0.7,0.2,1.1,1.2,0.8,2.3s-1.1,1.8-1.9,1.6c-0.7-0.2-1.1-1.2-0.8-2.3
		C252.2,520.2,253,519.5,253.7,519.7L253.7,519.7z"/>
</g>
<g id="ELLIPSE_275_">
	<path class="st0" d="M252.9,521.7c0,0.1-0.1,0.2-0.2,0.3"/>
</g>
<g id="LINE_334_">
	<line class="st0" x1="252.8" y1="522" x2="252.9" y2="521.7"/>
</g>
<g id="LINE_335_">
	<line class="st0" x1="252.9" y1="521.7" x2="253.1" y2="521.3"/>
</g>
<g id="LINE_336_">
	<line class="st0" x1="253.1" y1="521.3" x2="253" y2="521.1"/>
</g>
<g id="LINE_337_">
	<line class="st0" x1="253" y1="521.1" x2="253" y2="521.1"/>
</g>
<g id="LINE_338_">
	<line class="st0" x1="252.7" y1="521.8" x2="252.7" y2="521.8"/>
</g>
<g id="LINE_339_">
	<line class="st0" x1="253" y1="522.3" x2="253" y2="522.3"/>
</g>
<g id="LINE_340_">
	<line class="st0" x1="253.5" y1="522.2" x2="253.5" y2="522.2"/>
</g>
<g id="LINE_341_">
	<line class="st0" x1="252.8" y1="522" x2="253.5" y2="522.2"/>
</g>
<g id="LINE_342_">
	<line class="st0" x1="253.7" y1="521.5" x2="253.7" y2="521.5"/>
</g>
<g id="LINE_343_">
	<line class="st0" x1="253.1" y1="521.3" x2="253.7" y2="521.5"/>
</g>
<g id="LINE_344_">
	<line class="st0" x1="253.5" y1="521" x2="253.5" y2="521"/>
</g>
<g id="LINE_345_">
	<line class="st0" x1="252.7" y1="521.8" x2="252.7" y2="521.8"/>
</g>
<g id="LINE_346_">
	<line class="st0" x1="253" y1="522.3" x2="253" y2="522.3"/>
</g>
<g id="LINE_347_">
	<line class="st0" x1="253.5" y1="522.2" x2="253.5" y2="522.2"/>
</g>
<g id="LINE_348_">
	<line class="st0" x1="253.7" y1="521.5" x2="253.7" y2="521.5"/>
</g>
<g id="LINE_349_">
	<line class="st0" x1="253.5" y1="521" x2="253.5" y2="521"/>
</g>
<g id="LINE_350_">
	<line class="st0" x1="253" y1="521.1" x2="253" y2="521.1"/>
</g>
<g id="ELLIPSE_277_">
	<path class="st0" d="M253,521.1c0.2-0.2,0.3-0.2,0.5-0.1"/>
</g>
<g id="ELLIPSE_278_">
	<path class="st0" d="M253.5,521c0.1,0.1,0.2,0.3,0.2,0.5"/>
</g>
<g id="ELLIPSE_279_">
	<path class="st0" d="M253.7,521.5c0,0.2-0.1,0.5-0.2,0.6"/>
</g>
<g id="ELLIPSE_280_">
	<path class="st0" d="M253.5,522.2c-0.2,0.2-0.3,0.2-0.5,0.1"/>
</g>
<g id="ELLIPSE_281_">
	<path class="st0" d="M253,522.3c-0.1-0.1-0.2-0.3-0.2-0.5"/>
</g>
<g id="ELLIPSE_282_">
	<path class="st0" d="M252.7,521.8c0-0.2,0.1-0.5,0.2-0.6"/>
</g>
<g id="ARC_145_">
	<path class="st0" d="M252.7,521.8c0-0.2,0.1-0.4,0.2-0.6"/>
</g>
<g id="ARC_146_">
	<path class="st0" d="M253,522.3c-0.1-0.2-0.2-0.3-0.2-0.5"/>
</g>
<g id="ARC_147_">
	<path class="st0" d="M253,522.3c0.2-0.1,0.3-0.1,0.5-0.1"/>
</g>
<g id="ARC_148_">
	<path class="st0" d="M253.5,522.2c0-0.2,0.1-0.4,0.2-0.6"/>
</g>
<g id="ARC_149_">
	<path class="st0" d="M253.7,521.5c-0.1-0.2-0.2-0.3-0.2-0.5"/>
</g>
<g id="ARC_150_">
	<path class="st0" d="M253,521.1c0.2-0.1,0.3-0.1,0.5-0.1"/>
</g>
<g id="LINE_361_">
	<line class="st0" x1="125.2" y1="533.9" x2="165.2" y2="544.2"/>
</g>
<g id="ELLIPSE_284_">
	<path class="st0" d="M125.2,533.9c-0.2-0.1-0.4-0.1-0.4-0.2"/>
</g>
<g id="LINE_368_">
	<polyline class="st0" points="137.9,121 142.1,122.1 144,123.3 154.1,130.4 	"/>
</g>
<g id="LINE_370_">
	<line class="st0" x1="170.1" y1="545.5" x2="172.9" y2="546.2"/>
</g>
<g id="LINE_371_">
	<line class="st0" x1="165.2" y1="543" x2="165.4" y2="543.1"/>
</g>
<g id="LINE_372_">
	<line class="st0" x1="170.1" y1="544.3" x2="170.1" y2="545.5"/>
</g>
<g id="LINE_373_">
	<line class="st0" x1="165.2" y1="543" x2="165.2" y2="544.2"/>
</g>
<g id="LINE_374_">
	<line class="st0" x1="165.6" y1="544.1" x2="165.2" y2="544.2"/>
</g>
<g id="LINE_375_">
	<line class="st0" x1="165.6" y1="543.7" x2="165.6" y2="544.1"/>
</g>
<g id="LINE_376_">
	<line class="st0" x1="169.8" y1="544.2" x2="170.1" y2="544.3"/>
</g>
<g id="ELLIPSE_289_">
	<path class="st0" d="M170.1,545c-0.2-0.2-0.3-0.5-0.3-0.8"/>
</g>
<g id="LINE_377_">
	<line class="st0" x1="169.8" y1="544.2" x2="165.4" y2="543.1"/>
</g>
<g id="ELLIPSE_290_">
	<path class="st0" d="M166,544.1c-0.3-0.1-0.6-0.5-0.6-1"/>
</g>
<g id="ELLIPSE_323_">
	<path class="st0" d="M173,538.7c0.2,0.3,0.3,0.7,0.3,1"/>
</g>
<g id="LINE_394_">
	<line class="st0" x1="173.3" y1="546.2" x2="173.2" y2="546.2"/>
</g>
<g id="LINE_397_">
	<line class="st0" x1="173.2" y1="539.8" x2="173.3" y2="539.8"/>
</g>
<g id="ELLIPSE_333_">
	<path class="st0" d="M135.8,357.8c-0.4-34.1,1.2-67.7,4.6-100.5c0.5-5.1,1.3-10,2.4-14.8"/>
</g>
<g id="ELLIPSE_335_">
	<path class="st0" d="M172.6,538.8c-15.5-20.3-25.9-46.6-29.4-73.7c-3.3-25.8-5.5-51.5-6.6-77.1"/>
</g>
<g id="ELLIPSE_336_">
	<path class="st0" d="M172.6,538.8c0.2,0.3,0.3,0.7,0.3,1"/>
</g>
<g id="LINE_399_">
	<line class="st0" x1="172.9" y1="539.8" x2="172.9" y2="546.2"/>
</g>
<g id="ELLIPSE_337_">
	<path class="st0" d="M173.2,546.2c-0.1,0-0.2,0-0.3,0"/>
</g>
<g id="LINE_400_">
	<line class="st0" x1="172.8" y1="538.6" x2="173" y2="538.6"/>
</g>
<g id="ELLIPSE_338_">
	<path class="st0" d="M172.8,538.6c0.2,0.4,0.3,0.8,0.3,1.2"/>
</g>
<g id="ARC_161_">
	<path class="st0" d="M172.6,538.8c0.1-0.1,0.1-0.1,0.2-0.2"/>
</g>
<g id="ELLIPSE_345_">
	<path class="st0" d="M173.2,539.8c-0.1,0-0.2,0-0.3,0"/>
</g>
<g id="LINE_403_">
	<polyline class="st0" points="139,120.1 142.7,121.1 143.9,121.9 154.8,129.6 	"/>
</g>
<g id="LINE_404_">
	<polyline class="st0" points="229.7,98.6 142.7,121.1 142.1,121.8 142.1,242.1 145.1,242.8 154.2,234.8 	"/>
</g>
<g id="LINE_405_">
	<line class="st0" x1="226" y1="97.6" x2="139" y2="120.1"/>
</g>
<g id="LINE_406_">
	<line class="st0" x1="226" y1="97.6" x2="229.7" y2="98.6"/>
</g>
<g id="LINE_407_">
	<line class="st0" x1="124.8" y1="533.7" x2="124.8" y2="393.1"/>
</g>
<g id="LINE_411_">
	<line class="st0" x1="170.1" y1="545.1" x2="166" y2="544.1"/>
</g>
<g id="SPLINE_138_">
	<path class="st0" d="M137.5,121.2c0.1-0.2,0.1-0.3,0.2-0.5c0.1-0.2,0.2-0.3,0.4-0.4c0.1-0.1,1.2-0.3,1.3-0.3"/>
</g>
<g id="ARC_166_">
	<path class="st0" d="M137.5,121.2C130.2,151.3,126,182,125,213l0,0c-0.2,6.3-0.2,12.7-0.2,19v-0.1v150.4"/>
</g>
<g id="LINE_417_">
	<line class="st1" x1="125.2" y1="533.4" x2="78" y2="545.6"/>
</g>
<g id="LINE_418_">
	<line class="st1" x1="124.9" y1="116.5" x2="78" y2="128.6"/>
</g>
<g id="LINE_419_">
	<line class="st1" x1="124.9" y1="116.5" x2="139" y2="120.1"/>
</g>
<g id="LINE_420_">
	<line class="st1" x1="84.4" y1="541.7" x2="84.4" y2="129.1"/>
</g>
<g id="LINE_422_">
	<line class="st1" x1="388.2" y1="224.6" x2="388.2" y2="117.1"/>
</g>
<g id="LINE_424_">
	<line class="st1" x1="168.4" y1="109.5" x2="168.4" y2="18.5"/>
</g>
<g id="LINE_425_">
	<line class="st1" x1="388.2" y1="224.6" x2="388.2" y2="75.4"/>
</g>
<g id="LINE_426_">
	<line class="st1" x1="175.2" y1="29" x2="382.4" y2="82.6"/>
</g>
<g id="LINE_427_">
	<line class="st1" x1="172.9" y1="546.2" x2="217.6" y2="557.8"/>
</g>
<g id="LINE_428_">
	<line class="st1" x1="260.4" y1="523.2" x2="305.7" y2="535"/>
</g>
<g id="LINE_429_">
	<line class="st1" x1="213" y1="555.7" x2="296.5" y2="534.1"/>
</g>
<g id="LINE_430_">
	<line class="st1" x1="265.8" y1="547.1" x2="424.6" y2="588.3"/>
</g>
<g id="LINE_431_">
	<line class="st1" x1="388.2" y1="224.6" x2="424.6" y2="234"/>
</g>
<g id="LINE_432_">
	<line class="st1" x1="418.3" y1="584.1" x2="418.3" y2="237.4"/>
</g>
<g id="LINE_433_">
	<line class="st0" x1="121.8" y1="389" x2="121.8" y2="430.3"/>
</g>
<g id="LINE_434_">
	<line class="st0" x1="357.1" y1="323.9" x2="357.1" y2="365.2"/>
</g>
<g id="LINE_435_">
	<line class="st0" x1="126.4" y1="420.5" x2="350.8" y2="362.4"/>
</g>
<g id="LINE_436_">
	<line class="st1" x1="173.2" y1="546.2" x2="126.8" y2="558.2"/>
</g>
<g id="LINE_437_">
	<line class="st1" x1="125.2" y1="533.4" x2="78" y2="545.6"/>
</g>
<g id="LINE_438_">
	<line class="st1" x1="158.4" y1="563.2" x2="59.1" y2="537.4"/>
</g>
<g id="TEXT_4_">
	<g class="st2">
		<path class="st3" d="M66.7,348.7v2.1l-1.7-1v-2.9h12v1.8H66.7z"/>
		<path class="st3" d="M75.9,341.9c-1.4,1.3-3.3,1.5-4.9,1.5c-1.6,0-3.5-0.3-4.9-1.5c-0.9-0.8-1.3-1.7-1.3-2.7c0-1.1,0.4-2,1.3-2.7
			c1.4-1.3,3.4-1.5,4.9-1.5c1.6,0,3.5,0.3,4.9,1.5c0.9,0.8,1.3,1.6,1.3,2.7S76.8,341.2,75.9,341.9z M67.4,340.8
			c1,0.7,2.5,0.8,3.6,0.8c1.1,0,2.6-0.2,3.6-0.8c0.8-0.5,1-1.2,1-1.6s-0.2-1.1-1-1.6c-1-0.7-2.5-0.8-3.6-0.8c-1,0-2.6,0.2-3.6,0.8
			c-0.8,0.5-1,1.2-1,1.6S66.6,340.3,67.4,340.8z"/>
		<path class="st3" d="M66.7,325.5v3.7l2,0.6c0-0.2,0-0.4,0-0.6c0-1,0.3-2,1.1-2.8c0.6-0.6,1.5-1.2,3.1-1.2c1.3,0,2.4,0.4,3.2,1.2
			c0.9,1,1.2,2.1,1.2,3.3c0,0.7-0.1,1.5-0.5,2.3c-0.1,0.2-0.5,0.9-1.4,1.4l-1.2-1.4c0.1,0,0.7-0.4,1-0.9c0.3-0.4,0.4-1,0.4-1.6
			c0-1-0.4-1.5-0.7-1.8c-0.4-0.4-1-0.8-2-0.8c-1,0-1.6,0.3-1.9,0.7c-0.6,0.6-0.7,1.4-0.7,2c0,0.5,0.1,0.9,0.3,1.4
			c0.1,0.4,0.3,0.7,0.5,1.1l-6.1-1.8v-5H66.7z"/>
		<path class="st3" d="M66.7,315.6v3.7l2,0.6c0-0.2,0-0.4,0-0.6c0-1,0.3-2,1.1-2.8c0.6-0.6,1.5-1.2,3.1-1.2c1.3,0,2.4,0.4,3.2,1.2
			c0.9,1,1.2,2.1,1.2,3.3c0,0.7-0.1,1.5-0.5,2.3c-0.1,0.2-0.5,0.9-1.4,1.4l-1.2-1.4c0.1,0,0.7-0.4,1-0.9c0.3-0.4,0.4-1,0.4-1.6
			c0-1-0.4-1.5-0.7-1.8c-0.4-0.4-1-0.8-2-0.8c-1,0-1.6,0.3-1.9,0.7c-0.6,0.6-0.7,1.4-0.7,2c0,0.5,0.1,0.9,0.3,1.4
			c0.1,0.4,0.3,0.7,0.5,1.1l-6.1-1.8v-5H66.7z"/>
	</g>
</g>
<polygon class="st3" points="84.4,126.7 82,140.6 84.4,137.5 86.7,140.6 "/>
<polygon class="st3" points="84.4,544.3 86.7,530.3 84.4,533.5 82,530.4 "/>
<polygon class="st3" points="418.3,232.2 415.9,246.1 418.3,243 420.6,246.1 "/>
<polygon class="st3" points="418.3,586.9 420.6,572.9 418.3,576.1 415.9,573 "/>
<polygon class="st3" points="356.7,360.8 342.7,362 346.3,363.5 343.9,366.5 "/>
<polygon class="st3" points="211.6,556 225.7,554.8 222.1,553.3 224.5,550.3 "/>
<polygon class="st3" points="122,421.6 136.1,420.4 132.5,418.9 134.9,415.9 "/>
<polygon class="st3" points="298.9,533.4 284.8,534.6 288.4,536.1 286,539.2 "/>
<polygon class="st3" points="181,32.9 178.6,29.9 182.2,28.3 168.2,27.2 "/>
<polygon class="st3" points="375.6,78.4 378,81.4 374.4,83 388.4,84.1 "/>
<g id="TEXT_13_">
	<g class="st2">
		<path class="st3" d="M437.3,430.1l-3.6-2.8c0.1,0.2,0.1,0.4,0.1,0.6c0,1.4-0.6,2.3-1.1,2.8c-0.6,0.6-1.5,1.1-2.7,1.1
			c-1.2,0-2.3-0.5-3-1.2c-0.8-0.8-1.2-1.8-1.2-3.1c0-1.6,0.7-2.6,1.2-3.1c0.5-0.5,1.4-1,2.7-1c0.9,0,1.6,0.2,2.3,0.6
			c0.9,0.5,1.4,0.9,2.1,1.5l4.3,3.3L437.3,430.1z M431.5,425.9c-0.5-0.5-1.2-0.7-1.8-0.7c-0.6,0-1.3,0.3-1.7,0.7s-0.7,1.1-0.7,1.7
			c0,0.7,0.3,1.3,0.7,1.7c0.4,0.4,1,0.7,1.8,0.7c0.7,0,1.3-0.3,1.8-0.7c0.4-0.4,0.7-1,0.7-1.7C432.2,427,432,426.4,431.5,425.9z"/>
		<path class="st3" d="M436.8,420.1c-1.4,1.3-3.3,1.5-4.9,1.5c-1.6,0-3.5-0.3-4.9-1.5c-0.9-0.8-1.3-1.7-1.3-2.7c0-1.1,0.4-2,1.3-2.7
			c1.4-1.3,3.4-1.5,4.9-1.5c1.6,0,3.5,0.3,4.9,1.5c0.9,0.8,1.3,1.6,1.3,2.7C438.1,418.5,437.7,419.4,436.8,420.1z M428.3,419
			c1,0.7,2.5,0.8,3.6,0.8c1.1,0,2.6-0.2,3.6-0.8c0.8-0.5,1-1.2,1-1.6c0-0.5-0.2-1.1-1-1.6c-1-0.7-2.5-0.8-3.6-0.8
			c-1,0-2.6,0.2-3.6,0.8c-0.8,0.5-1,1.2-1,1.6C427.3,417.9,427.5,418.5,428.3,419z"/>
		<path class="st3" d="M436.8,409.9c-1.4,1.3-3.3,1.5-4.9,1.5c-1.6,0-3.5-0.3-4.9-1.5c-0.9-0.8-1.3-1.7-1.3-2.7s0.4-2,1.3-2.7
			c1.4-1.3,3.4-1.5,4.9-1.5c1.6,0,3.5,0.3,4.9,1.5c0.9,0.8,1.3,1.6,1.3,2.7S437.7,409.1,436.8,409.9z M428.3,408.8
			c1,0.7,2.5,0.8,3.6,0.8c1.1,0,2.6-0.2,3.6-0.8c0.8-0.5,1-1.2,1-1.6s-0.2-1.1-1-1.6c-1-0.7-2.5-0.8-3.6-0.8c-1,0-2.6,0.2-3.6,0.8
			c-0.8,0.5-1,1.2-1,1.6S427.5,408.2,428.3,408.8z"/>
	</g>
</g>
<g id="TEXT_14_">
	<g class="st2">
		<path class="st3" d="M284.4,40.8l-5.7-1.5l0.4-1.6l8.6,2.3l-10.5,10.1l-1.2-1.2L284.4,40.8z"/>
		<path class="st3" d="M293.3,42l-3.7,2.8c0.3,0,0.5,0.1,0.8,0.1c1.4,0.4,2.1,1.2,2.4,1.8c0.5,0.8,0.6,1.9,0.3,3
			c-0.3,1-0.9,2.1-1.9,2.6c-1.2,0.7-2.5,0.5-3.3,0.3c-1-0.3-2.1-0.8-2.7-1.9c-0.4-0.8-0.6-1.8-0.3-2.9c0.2-0.9,0.6-1.5,1.1-2.1
			c0.7-0.8,1.3-1.2,2-1.7l4.3-3.3L293.3,42z M287.7,46.5c-0.5,0.3-0.9,0.8-1.1,1.5c-0.2,0.6-0.1,1.4,0.2,1.9
			c0.3,0.4,0.9,0.9,1.5,1.1c0.5,0.1,1.3,0.1,1.8-0.2c0.6-0.3,1-1,1.1-1.5c0.2-0.6,0.1-1.4-0.2-1.9c-0.3-0.5-0.9-0.9-1.5-1.1
			C289,46.2,288.3,46.3,287.7,46.5z"/>
		<path class="st3" d="M295.5,53.3c-0.9-1.7-0.6-3.6-0.2-5.1c0.4-1.5,1.2-3.3,2.7-4.4c1-0.6,1.9-0.8,3-0.6s1.8,0.9,2.3,2
			c0.9,1.7,0.6,3.7,0.2,5.2c-0.4,1.5-1.1,3.3-2.7,4.4c-1,0.6-1.9,0.8-3,0.6C296.8,55,296,54.3,295.5,53.3z M298.7,45.4
			c-0.9,0.8-1.5,2.2-1.7,3.3c-0.3,1-0.5,2.6-0.1,3.7c0.3,0.9,0.9,1.3,1.3,1.4c0.5,0.1,1.1,0.1,1.8-0.5c0.9-0.8,1.5-2.2,1.7-3.3
			c0.3-1,0.5-2.6,0.1-3.7c-0.3-0.9-0.9-1.3-1.3-1.4C300.1,44.7,299.5,44.7,298.7,45.4z"/>
	</g>
</g>
<g id="TEXT_2_">
	<g class="st2">
		<path class="st3" d="M234.1,538.7c-0.2-1,0-1.9,0.4-2.5c0.6-1,1.5-1.4,2.3-1.6c0.9-0.2,1.8-0.3,2.8,0.3c0.8,0.5,1.2,1.2,1.4,2
			c0.1,0.6,0.2,1.1,0,1.6c-0.2,0.6-0.5,1-0.8,1.3c0.7,0.1,1.1,0.4,1.4,0.6c0.5,0.4,0.8,1,1,1.7c0.3,1.2,0.1,2.2-0.3,2.9
			c-0.6,1.1-1.7,1.5-2.6,1.8c-0.9,0.2-1.9,0.3-2.9-0.3c-0.7-0.4-1.3-1.2-1.6-2.1l1.7-0.4c0.2,0.5,0.6,0.9,1,1.1
			c0.3,0.2,0.8,0.3,1.6,0.2c0.5-0.1,1-0.5,1.2-0.8c0.3-0.4,0.4-1,0.2-1.8c-0.1-0.4-0.3-0.9-0.9-1.2c-0.6-0.4-1.3-0.2-1.6-0.1
			l-0.3,0.1l-0.4-1.5l0.2-0.1c0.8-0.2,1.2-0.6,1.4-0.9c0.2-0.4,0.3-0.8,0.1-1.4c-0.2-0.6-0.5-0.9-0.8-1.1c-0.5-0.3-1-0.2-1.4-0.1
			c-0.4,0.1-0.9,0.3-1.2,0.8c-0.3,0.5-0.2,1.2-0.2,1.2L234.1,538.7z"/>
		<path class="st3" d="M247.1,543.5c-1.6-1.1-2.3-2.8-2.7-4.4c-0.4-1.5-0.6-3.4,0.2-5.2c0.5-1,1.3-1.7,2.3-1.9c1-0.3,2-0.1,3,0.6
			c1.6,1.1,2.3,2.9,2.7,4.4c0.4,1.5,0.6,3.4-0.3,5.1c-0.5,1-1.3,1.7-2.3,1.9C249,544.3,248.1,544.1,247.1,543.5z M246.1,535
			c-0.4,1.1-0.2,2.7,0.1,3.7c0.3,1,0.8,2.5,1.7,3.3c0.7,0.6,1.4,0.7,1.8,0.6c0.5-0.1,1-0.5,1.3-1.4c0.4-1.1,0.2-2.7-0.1-3.7
			c-0.3-1-0.8-2.5-1.7-3.3c-0.7-0.6-1.4-0.7-1.8-0.6C246.9,533.7,246.4,534.1,246.1,535z"/>
		<path class="st3" d="M260.7,530.4l-3.6,0.9l-0.1,2.1c0.2-0.1,0.4-0.1,0.5-0.2c1-0.3,2.1-0.2,3,0.3c0.7,0.4,1.5,1.2,1.9,2.7
			c0.3,1.3,0.2,2.4-0.4,3.4c-0.7,1.1-1.7,1.7-2.9,2c-0.7,0.2-1.5,0.3-2.4,0.1c-0.2-0.1-1-0.3-1.7-1l1.1-1.5c0.1,0.1,0.5,0.6,1.2,0.8
			c0.5,0.2,1,0.2,1.6,0c0.9-0.2,1.4-0.8,1.6-1.1c0.3-0.4,0.5-1.2,0.2-2.2c-0.3-1-0.7-1.5-1.2-1.7c-0.7-0.4-1.5-0.3-2.1-0.2
			c-0.5,0.1-0.9,0.3-1.3,0.6c-0.3,0.2-0.6,0.5-0.9,0.8l0.2-6.3l4.8-1.3L260.7,530.4z"/>
	</g>
</g>
<g id="TEXT_3_">
	<g class="st2">
		<path class="st3" d="M92,553.3l-2-0.5l1.4-1.4l2.8,0.7l-3.1,11.6l-1.8-0.5L92,553.3z"/>
		<path class="st3" d="M101.8,555.9l-5.7-1.5l0.4-1.6l8.6,2.3l-10.5,10.1l-1.2-1.2L101.8,555.9z"/>
		<path class="st3" d="M103.9,566c-0.9-1.7-0.6-3.6-0.2-5.1c0.4-1.5,1.2-3.3,2.7-4.4c1-0.6,1.9-0.8,3-0.6c1,0.3,1.8,0.9,2.3,2
			c0.9,1.7,0.6,3.7,0.2,5.2c-0.4,1.5-1.1,3.3-2.7,4.4c-1,0.6-1.9,0.8-3,0.6C105.2,567.7,104.4,567,103.9,566z M107.2,558.1
			c-0.9,0.8-1.5,2.2-1.7,3.3c-0.3,1-0.5,2.6-0.1,3.7c0.3,0.9,0.9,1.3,1.3,1.4c0.5,0.1,1.1,0.1,1.8-0.5c0.9-0.8,1.5-2.2,1.7-3.3
			c0.3-1,0.5-2.6,0.1-3.7c-0.3-0.9-0.9-1.3-1.3-1.4S107.9,557.4,107.2,558.1z"/>
	</g>
</g>
<polygon class="st3" points="72.3,538.4 74.7,541.4 71.1,543 85.2,544.1 "/>
<polygon class="st3" points="145.2,562.2 142.8,559.1 146.4,557.6 132.3,556.4 "/>
<g id="TEXT_5_">
	<g class="st2">
		<path class="st3" d="M262,375c0.6,0.5,0.8,1.1,1,1.6c0.3,1.2,0.1,2.1-0.3,2.7c-0.4,0.7-1.1,1.5-2.5,1.8c-1.3,0.4-2.3,0.1-3-0.4
			c-0.6-0.4-1.3-1-1.6-2.2c-0.1-0.5-0.2-1.2,0.1-1.9c0.2-0.4,0.5-0.9,1-1.3c-0.5-0.1-1-0.3-1.3-0.6c-0.4-0.4-0.7-1-0.8-1.5
			c-0.2-0.9-0.1-1.9,0.3-2.7c0.3-0.4,0.9-1.2,2.2-1.5c1.3-0.3,2.2,0,2.6,0.3c0.8,0.5,1.4,1.2,1.6,2.2c0.1,0.5,0.2,1.1,0,1.7
			c-0.1,0.4-0.4,0.8-0.8,1.1C261.1,374.4,261.6,374.7,262,375z M256.3,371.5c-0.2,0.4-0.3,0.9-0.1,1.4c0.1,0.5,0.5,0.9,0.8,1.1
			c0.4,0.2,1,0.3,1.4,0.2s0.9-0.5,1.2-0.9c0.2-0.3,0.3-0.8,0.1-1.3c-0.1-0.5-0.5-0.9-0.8-1.2c-0.4-0.2-0.9-0.3-1.4-0.1
			C256.9,370.8,256.6,371.1,256.3,371.5z M257.6,376.5c-0.3,0.4-0.3,1-0.2,1.6c0.1,0.5,0.4,0.9,0.9,1.2c0.3,0.2,0.8,0.4,1.6,0.2
			s1.1-0.6,1.2-1c0.2-0.5,0.3-1,0.2-1.5c-0.1-0.5-0.5-1-0.9-1.3c-0.4-0.3-1-0.3-1.5-0.2S257.8,376.1,257.6,376.5z"/>
		<path class="st3" d="M267.2,377.9c-1.6-1.1-2.3-2.8-2.7-4.3c-0.4-1.5-0.6-3.4,0.2-5.2c0.5-1,1.3-1.7,2.3-2c1-0.3,2-0.1,3,0.6
			c1.6,1.1,2.3,2.9,2.7,4.4c0.4,1.5,0.6,3.4-0.2,5.1c-0.5,1-1.3,1.7-2.3,2C269.1,378.8,268.1,378.6,267.2,377.9z M266.1,369.4
			c-0.4,1.1-0.2,2.7,0.1,3.7c0.3,1,0.8,2.5,1.7,3.3c0.7,0.6,1.4,0.7,1.8,0.5s1-0.5,1.3-1.4c0.4-1.1,0.2-2.7-0.1-3.7
			c-0.3-1-0.8-2.5-1.7-3.3c-0.7-0.6-1.4-0.7-1.8-0.5S266.4,368.5,266.1,369.4z"/>
		<path class="st3" d="M277.1,375.3c-1.6-1.1-2.3-2.8-2.7-4.3c-0.4-1.5-0.6-3.4,0.2-5.2c0.5-1,1.3-1.7,2.3-2c1-0.3,2-0.1,3,0.6
			c1.6,1.1,2.3,2.9,2.7,4.4c0.4,1.5,0.6,3.4-0.2,5.1c-0.5,1-1.3,1.7-2.3,2C279,376.1,278,376,277.1,375.3z M276,366.8
			c-0.4,1.1-0.2,2.7,0.1,3.7c0.3,1,0.8,2.5,1.7,3.3c0.7,0.6,1.4,0.7,1.8,0.5s1-0.5,1.3-1.4c0.4-1.1,0.2-2.7-0.1-3.7
			c-0.3-1-0.8-2.5-1.7-3.3c-0.7-0.6-1.4-0.7-1.8-0.5C276.8,365.5,276.3,365.9,276,366.8z"/>
	</g>
</g>
<g id="LINE_5_">
	<line class="st1" x1="388.2" y1="224.6" x2="388.2" y2="117.1"/>
</g>
<g id="LINE_4_">
	<line class="st1" x1="388.2" y1="224.6" x2="388.2" y2="75.4"/>
</g>
<g id="TEXT_1_">
	<g class="st2">
		<path class="st3" d="M314.8,97.4l1.3,0.3l-0.4,1.6l-1.3-0.3l-0.6,2.2l-1.7-0.5l0.6-2.2l-5.8-1.5l10.2-8.3L314.8,97.4z M313.1,97
			l1-3.8l-3.6,3L313.1,97z"/>
		<path class="st3" d="M325.4,98.8c0.3,0.7,0.2,1.4,0.1,1.9c-0.3,1.2-1,1.9-1.6,2.2c-0.7,0.4-1.7,0.7-3,0.4
			c-1.3-0.4-2.1-1.1-2.5-1.8c-0.3-0.6-0.6-1.5-0.3-2.7c0.1-0.5,0.4-1.1,1-1.6c0.4-0.3,0.9-0.5,1.5-0.6c-0.4-0.3-0.7-0.8-0.8-1.1
			c-0.2-0.5-0.1-1.2,0-1.7c0.2-0.9,0.8-1.7,1.6-2.2c0.5-0.3,1.4-0.6,2.6-0.3c1.3,0.3,1.9,1.1,2.2,1.5c0.5,0.8,0.6,1.8,0.3,2.7
			c-0.1,0.5-0.4,1.1-0.8,1.5c-0.3,0.3-0.7,0.5-1.3,0.6C324.9,97.9,325.2,98.4,325.4,98.8z M320.7,98c-0.4,0.3-0.8,0.8-0.9,1.3
			c-0.1,0.5-0.1,1,0.2,1.5c0.2,0.3,0.5,0.8,1.2,1c0.7,0.2,1.2,0,1.6-0.2c0.5-0.3,0.8-0.8,0.9-1.2c0.1-0.5,0.1-1.1-0.2-1.6
			c-0.3-0.4-0.7-0.8-1.2-0.9C321.8,97.7,321.2,97.7,320.7,98z M322.2,93c-0.4,0.2-0.7,0.6-0.8,1.2c-0.1,0.5,0,1,0.1,1.3
			c0.2,0.4,0.7,0.7,1.2,0.9s1,0.1,1.4-0.2c0.3-0.2,0.6-0.6,0.8-1.1c0.1-0.5,0.1-1-0.1-1.4c-0.2-0.4-0.6-0.7-1.1-0.8
			C323,92.7,322.5,92.8,322.2,93z"/>
		<path class="st3" d="M328.4,104c-0.9-1.7-0.6-3.6-0.2-5.1c0.4-1.5,1.2-3.3,2.7-4.4c1-0.6,1.9-0.8,3-0.6c1,0.3,1.8,0.9,2.3,2
			c0.9,1.7,0.6,3.7,0.2,5.2c-0.4,1.5-1.1,3.3-2.7,4.4c-1,0.6-1.9,0.8-3,0.6C329.7,105.6,328.9,105,328.4,104z M331.7,96
			c-0.9,0.8-1.5,2.2-1.7,3.3c-0.3,1-0.5,2.6-0.1,3.7c0.3,0.9,0.9,1.3,1.3,1.4c0.5,0.1,1.1,0.1,1.8-0.5c0.9-0.8,1.5-2.2,1.7-3.3
			c0.3-1,0.5-2.6,0.1-3.7c-0.3-0.9-0.9-1.3-1.3-1.4S332.4,95.4,331.7,96z"/>
	</g>
</g>
<g id="LINE_421_">
	<line class="st1" x1="250" y1="155.2" x2="250" y2="81.3"/>
</g>
<g id="LINE_3_">
	<line class="st1" x1="388.2" y1="224.6" x2="388.2" y2="117.1"/>
</g>
<g id="LINE_423_">
	<line class="st1" x1="256.4" y1="91.6" x2="381.7" y2="124"/>
</g>
<g id="LINE_2_">
	<line class="st1" x1="388.2" y1="224.6" x2="388.2" y2="75.4"/>
</g>
<polygon class="st3" points="262.6,95.6 260.2,92.6 263.8,91.1 249.7,89.9 "/>
<polygon class="st3" points="375.6,120.1 378,123.1 374.4,124.6 388.4,125.8 "/>
</svg>
