<?xml version="1.0" encoding="utf-8"?>
<!-- Generator: Adobe Illustrator 23.0.3, SVG Export Plug-In . SVG Version: 6.00 Build 0)  -->
<svg version="1.1" id="Слой_1" xmlns="http://www.w3.org/2000/svg" xmlns:xlink="http://www.w3.org/1999/xlink" x="0px" y="0px"
	 viewBox="0 0 500 600" style="enable-background:new 0 0 500 600;" xml:space="preserve">
<style type="text/css">
	.st0{fill:none;stroke:#4E86B9;stroke-width:0.6;}
	.st1{fill:#4E86B9;}
	.st2{fill:none;stroke:#4E86B9;stroke-width:0.8158;}
	.st3{fill:none;stroke:#4E86B9;stroke-width:0.75;}
</style>
<line class="st0" x1="447.4" y1="139.3" x2="449.6" y2="511.1"/>
<polygon class="st1" points="449.7,521.8 447.1,506.8 449.6,510.1 452.1,506.8 "/>
<polygon class="st1" points="113.4,470.7 110.8,455.7 113.2,459 115.7,455.7 "/>
<polygon class="st1" points="111,35.1 108.6,50.1 111,46.8 113.6,50.1 "/>
<polygon class="st1" points="54.2,512.2 69.2,512.7 65.4,514.5 68.3,517.7 "/>
<polygon class="st1" points="326.3,472.6 314.1,481.2 316,477.5 311.9,476.7 "/>
<polygon class="st1" points="260.7,503 273.1,494.4 271.1,498.2 275.1,499 "/>
<polygon class="st1" points="447.4,136.2 444.9,151.1 447.4,147.8 449.8,151.1 "/>
<path class="st2" d="M445.6,137.3c1.5,0.1,3.1-2.6,3.4-6.1c0.4-3.5-0.7-6.5-2.2-6.6c-1.5-0.1-3.1,2.6-3.4,6
	C443,134.2,444,137.2,445.6,137.3z"/>
<path class="st3" d="M445.6,137.3l-196-22.9c0,0-3.4-6.4,1.7-11.5l195.4,21.6"/>
<path class="st2" d="M150.2,332.9c-0.5,1.5,1.9,3.5,5.2,4.6c3.3,1.1,6.4,0.6,6.8-0.9c0.5-1.5-1.9-3.5-5.2-4.6
	C153.7,330.9,150.7,331.4,150.2,332.9z"/>
<path class="st3" d="M150.2,333.1l67.6-201.8c0,0,7-2,10.6,4l-66.2,201.3"/>
<path class="st2" d="M256.8,117.3c1.9,3.9-3.7,10.9-12.3,15c-8.6,4.1-17.1,3.9-19,0s3.7-10.9,12.3-15
	C246.4,113.2,254.9,113.4,256.8,117.3z"/>
<path class="st2" d="M251.4,102.9c-1.3-0.5-2.8-0.8-4.3-0.9c-5.9-0.2-17.8,0.5-28.9,13.7c-6.8,9.6-0.2,15.8-0.2,15.8"/>
<path class="st2" d="M256.9,120.5c0,0,0.6-2.1,1.1-5"/>
<path class="st2" d="M250.1,129.2l103.3,139.4c0.9,1.3-0.5,4-3.2,6.1c-2.7,2.1-5.8,2.8-6.7,1.7L239.4,134"/>
<polygon class="st3" points="270.4,68.2 228.2,70.3 217.8,61 260,58.8 "/>
<line class="st2" x1="262.8" y1="116" x2="256.8" y2="121.4"/>
<line class="st2" x1="240.7" y1="136" x2="223.4" y2="151.7"/>
<polyline class="st3" points="207,164 147.9,170.6 223.3,96.4 287.6,93.8 274.5,105.5 "/>
<polygon class="st3" points="285.4,72 223.2,75.4 223.3,96.4 287.6,93.8 "/>
<polygon class="st3" points="285.4,72 263.6,53.6 201.5,57 223.2,75.4 "/>
<polyline class="st3" points="146.8,347.8 145.9,462.3 217.4,493.7 134.7,475.8 132.5,116.1 201.5,57 223.2,75.4 223.3,96.4 
	147.9,170.6 146.8,343.8 "/>
<polyline class="st3" points="146.8,347.8 147.9,170.6 207,164 "/>
<polyline class="st2" points="210.3,191.6 212.3,437.9 145.9,462.3 146.8,347.2 "/>
<polygon class="st2" points="286.6,464.2 212.3,437.9 145.9,462.3 217.4,493.7 "/>
<path class="st0" d="M201.5,57l-98-24.4 M113.2,459l-2.1-414 M134.7,475.6l-90.9,41.2 M456.7,517.2l-102.4,62.2 M371.1,452
	l-44.6,20.5 M321.3,475l-56.7,26.1 M336,474.8l-49.5-10.6 M134.7,475.6l-26.2-5.7 M270.3,505.1l-52.9-11.5 M350.5,573.5L54.2,512.2
	 M456.7,523.1L251,479.3"/>
<line class="st2" x1="217.4" y1="493.3" x2="165.8" y2="513.2"/>
<polygon class="st1" points="179,507.9 164,506.9 167.8,505.3 165.1,502.1 "/>
<line class="st0" x1="173.5" y1="506.7" x2="102" y2="492.2"/>
<polygon class="st1" points="97.9,491.6 112.9,491.2 109.2,493.2 112.2,496.3 "/>
<path class="st0" d="M348.3,291.2L156.9,358 M353.8,270.1v23.6 M150.1,333.1v32.9"/>
<polygon class="st1" points="353.8,289 340.7,296.5 343,293 339.1,291.8 "/>
<polygon class="st1" points="150.1,360.3 163.3,353.2 160.9,356.6 164.8,357.9 "/>
<path class="st0" d="M447.1,136.9V52.1 M439.9,57.9L264,44.8 M257.5,95.1V32.5"/>
<polygon class="st1" points="447.4,58.6 432.8,55 435.9,57.7 432.5,59.9 "/>
<polygon class="st1" points="257.5,44.4 272,48.1 269,45.4 272.5,43.2 "/>
<polygon class="st1" points="359.9,575.8 344.9,574.8 348.7,573.2 345.9,570 "/>
<g>
	<path class="st1" d="M462.1,307.8c1.9,0,3.6,1.2,3.6,3.7c0,2.5-1.7,3.7-3.6,3.7c-1.3,0-2.4-0.6-3-1.8c-0.6,1-1.5,1.5-2.7,1.5
		c-1.7,0-3.4-1.2-3.4-3.3c0-2.2,1.6-3.3,3.4-3.3c1.1,0,2.1,0.5,2.7,1.5C459.7,308.4,460.8,307.8,462.1,307.8z M456.5,309.4
		c-1.3,0-2.1,1-2.1,2.1c0,1.1,0.8,2.1,2.1,2.1c1.2,0,2.1-0.9,2.1-2.1C458.6,310.3,457.7,309.4,456.5,309.4z M462.1,309.1
		c-1.4,0-2.3,1-2.3,2.4c0,1.4,0.9,2.4,2.3,2.4c1.4,0,2.4-1,2.4-2.4C464.5,310.1,463.5,309.1,462.1,309.1z"/>
	<path class="st1" d="M462.1,297.5c1.9,0,3.6,1.2,3.6,3.7c0,2.5-1.7,3.7-3.6,3.7c-1.3,0-2.4-0.6-3-1.8c-0.6,1-1.5,1.5-2.7,1.5
		c-1.7,0-3.4-1.2-3.4-3.3c0-2.2,1.6-3.3,3.4-3.3c1.1,0,2.1,0.5,2.7,1.5C459.7,298.1,460.8,297.5,462.1,297.5z M456.5,299.1
		c-1.3,0-2.1,1-2.1,2.1c0,1.1,0.8,2.1,2.1,2.1c1.2,0,2.1-0.9,2.1-2.1C458.6,300,457.7,299.1,456.5,299.1z M462.1,298.8
		c-1.4,0-2.3,1-2.3,2.4c0,1.4,0.9,2.4,2.3,2.4c1.4,0,2.4-1,2.4-2.4C464.5,299.8,463.5,298.8,462.1,298.8z"/>
	<path class="st1" d="M461.9,288.5V287h1.2v1.5h2.3v1.3h-2.3v6.2l-10.5-7.6H461.9z M461.9,289.9h-5.4l5.4,3.8V289.9z"/>
</g>
<g>
	<path class="st1" d="M278.6,513.6l1.9-6.5c0.1-0.5,0.5-1.7,0.5-2.2c0.2-0.9,0-1.5-0.2-2c-0.6-1.2-1.9-1.7-3.2-1.1
		c-0.8,0.4-1.3,1-1.4,1.8c-0.1,0.4,0,0.9,0.2,1.5l-1.2,0.6c-0.5-1.1-0.4-2-0.2-2.7c0.2-0.7,0.7-1.7,2.1-2.3c1.9-0.9,4-0.2,4.9,1.7
		c0.3,0.7,0.4,1.5,0.2,2.8c-0.2,0.9-0.4,1.8-0.7,2.5l-1.1,3.7l4.7-2.1l0.5,1.1L278.6,513.6z"/>
	<path class="st1" d="M293.2,503.2c0.8,1.7,0.4,3.8-1.9,4.8s-4.1,0-4.9-1.7c-0.5-1.2-0.5-2.4,0.4-3.5c-1.1-0.1-2-0.8-2.5-1.8
		c-0.7-1.6-0.4-3.5,1.6-4.5c2-0.9,3.7,0.1,4.4,1.7c0.5,1,0.4,2.1-0.2,3C291.7,501.3,292.7,502,293.2,503.2z M289.4,498.8
		c-0.6-1.2-1.8-1.5-2.8-1.1c-1,0.5-1.5,1.6-1,2.8c0.5,1.1,1.7,1.5,2.8,1C289.5,501.1,289.9,499.9,289.4,498.8z M292,503.8
		c-0.6-1.2-1.9-1.7-3.1-1.1s-1.8,1.8-1.2,3.1c0.6,1.3,1.9,1.7,3.1,1.2C292.1,506.3,292.6,505,292,503.8z"/>
	<path class="st1" d="M297.1,503.3c-1.2-0.7-2.2-2-3-3.5s-1-3.2-0.8-4.6c0.3-1.6,1.2-2.6,2.1-3s2.2-0.5,3.6,0.3c1.2,0.7,2.2,2,3,3.5
		s1,3.2,0.8,4.6c-0.3,1.6-1.2,2.6-2.1,3S298.5,504.2,297.1,503.3z M294.7,495.5c-0.2,1.2,0.2,2.6,0.7,3.7s1.3,2.3,2.4,3
		c1,0.7,1.9,0.6,2.5,0.3c0.6-0.3,1.2-0.9,1.3-2.1c0.2-1.2-0.2-2.6-0.7-3.7s-1.3-2.3-2.4-3c-1-0.7-1.9-0.6-2.5-0.3
		C295.4,493.7,294.8,494.3,294.7,495.5z"/>
</g>
<g>
	<path class="st1" d="M354.6,58.4l-3.9-0.3l-1,2.5c0.2,0,0.5,0,0.8,0c2.4,0.2,3.8,2.2,3.6,4.5c-0.2,2.7-2.4,4.2-4.8,4
		c-1-0.1-1.9-0.4-2.6-1.2c-0.4-0.4-0.7-0.8-0.9-1.3l1.1-0.7c0.2,0.4,0.4,0.7,0.7,1c0.5,0.5,1.1,0.8,1.9,0.9c1.7,0.1,3.1-1.1,3.2-2.8
		c0.1-1.7-1-3.1-2.7-3.2c-0.4,0-1.3,0-2.4,0.6l2.3-5.7l4.8,0.4L354.6,58.4z"/>
	<path class="st1" d="M364.9,59.3l-3.9-0.3l-1,2.5c0.2,0,0.5,0,0.8,0c2.4,0.2,3.8,2.2,3.6,4.5c-0.2,2.7-2.4,4.2-4.8,4
		c-1-0.1-1.9-0.4-2.6-1.2c-0.4-0.4-0.7-0.8-0.9-1.3l1.1-0.7c0.2,0.4,0.4,0.7,0.7,1c0.5,0.5,1.1,0.8,1.9,0.9c1.7,0.1,3.1-1.1,3.2-2.8
		c0.1-1.7-1-3.1-2.7-3.2c-0.4,0-1.3,0-2.4,0.6l2.3-5.7L365,58L364.9,59.3z"/>
	<path class="st1" d="M367.8,68.8c-0.7-1.2-1-2.8-0.8-4.5c0.1-1.7,0.7-3.2,1.6-4.3c1-1.3,2.3-1.6,3.3-1.6c1,0.1,2.1,0.7,2.9,2.1
		c0.7,1.2,1,2.8,0.8,4.5c-0.1,1.7-0.7,3.2-1.6,4.3c-1,1.3-2.3,1.6-3.3,1.6C369.7,70.8,368.6,70.2,367.8,68.8z M369.5,60.8
		c-0.7,1-1.1,2.3-1.2,3.6c-0.1,1.3,0,2.7,0.6,3.8c0.5,1.1,1.4,1.5,2,1.5c0.6,0.1,1.5-0.2,2.2-1.2c0.7-1,1.1-2.3,1.2-3.6
		c0.1-1.3,0-2.7-0.6-3.8c-0.5-1.1-1.4-1.5-2-1.5C371,59.6,370.2,59.8,369.5,60.8z"/>
</g>
<g>
	<path class="st1" d="M117.3,511.8l5.3-4.1c0.4-0.3,1.4-1.1,1.7-1.5c0.7-0.7,0.9-1.2,1-1.7c0.3-1.3-0.5-2.5-1.9-2.8
		c-0.8-0.2-1.6,0.1-2.2,0.7c-0.3,0.3-0.5,0.7-0.7,1.3l-1.3-0.3c0.3-1.2,0.8-1.8,1.4-2.3c0.6-0.5,1.6-0.9,3.1-0.6
		c2.1,0.4,3.4,2.2,3,4.3c-0.2,0.8-0.5,1.5-1.5,2.4c-0.6,0.6-1.4,1.2-2,1.7l-3,2.3l5,1l-0.2,1.2L117.3,511.8z"/>
	<path class="st1" d="M135.1,503.5l-3.5,3.3c0.4,0,0.7,0,1.1,0c2.3,0.5,3.5,2.5,3.1,4.7c-0.5,2.4-2.5,3.7-4.9,3.3
		c-2.8-0.6-3.7-3-3.3-4.9c0.1-0.4,0.4-1.5,1.5-2.5l5.2-4.8L135.1,503.5z M134.4,511.3c0.3-1.6-0.6-3-2.2-3.3c-1.6-0.3-3,0.6-3.3,2.2
		c-0.3,1.6,0.6,3.1,2.2,3.4C132.7,513.9,134.1,512.9,134.4,511.3z"/>
	<path class="st1" d="M138.3,514.4c-0.6-1.3-0.7-2.9-0.3-4.6c0.3-1.7,1.1-3.1,2.1-4.1c1.2-1.1,2.5-1.4,3.4-1.2s2,0.9,2.7,2.4
		c0.6,1.3,0.7,2.9,0.3,4.6c-0.3,1.7-1.1,3.1-2.1,4.1c-1.2,1.1-2.5,1.4-3.4,1.2S138.9,515.9,138.3,514.4z M140.9,506.6
		c-0.8,0.9-1.3,2.2-1.6,3.4c-0.3,1.2-0.3,2.7,0.1,3.8c0.4,1.1,1.2,1.6,1.8,1.7c0.6,0.1,1.5,0,2.3-0.9c0.8-0.9,1.4-2.2,1.6-3.4
		c0.3-1.2,0.3-2.6-0.1-3.8c-0.4-1.1-1.2-1.6-1.8-1.7C142.6,505.6,141.7,505.7,140.9,506.6z"/>
</g>
<g>
	<path class="st1" d="M93.2,301v2l-1.3-0.7v-2.7H104v1.3H93.2z"/>
	<path class="st1" d="M102.4,294.6c-1.2,0.8-2.7,1.2-4.5,1.2c-1.7,0-3.3-0.4-4.5-1.2c-1.3-0.9-1.8-2.1-1.8-3.1c0-1,0.5-2.2,1.8-3.1
		c1.2-0.8,2.7-1.2,4.5-1.2c1.7,0,3.3,0.4,4.5,1.2c1.3,0.9,1.8,2.1,1.8,3.1C104.2,292.5,103.8,293.7,102.4,294.6z M94.3,293.6
		c1,0.7,2.4,0.9,3.7,0.9c1.3,0,2.7-0.2,3.7-0.9c1-0.6,1.3-1.5,1.3-2.1c0-0.6-0.3-1.5-1.3-2.1c-1-0.7-2.4-0.9-3.7-0.9
		c-1.3,0-2.7,0.2-3.7,0.9c-1,0.6-1.3,1.5-1.3,2.1C92.9,292.1,93.2,293,94.3,293.6z"/>
	<path class="st1" d="M93.1,277.6v3.9l2.6,0.8c-0.1-0.2-0.1-0.5-0.1-0.8c0-2.4,1.8-4,4.2-4c2.7,0,4.4,2,4.4,4.4c0,1-0.3,1.9-0.9,2.7
		c-0.3,0.4-0.7,0.8-1.2,1.1l-0.8-1.1c0.4-0.2,0.7-0.5,1-0.8c0.4-0.5,0.7-1.1,0.7-2c0-1.7-1.4-3-3.1-3c-1.7,0-3,1.3-3,3
		c0,0.4,0.1,1.3,0.8,2.3l-5.9-1.8v-4.8H93.1z"/>
	<path class="st1" d="M102.4,273.9c-1.2,0.8-2.7,1.2-4.5,1.2c-1.7,0-3.3-0.4-4.5-1.2c-1.3-0.9-1.8-2.1-1.8-3.1c0-1,0.5-2.2,1.8-3.1
		c1.2-0.8,2.7-1.2,4.5-1.2c1.7,0,3.3,0.4,4.5,1.2c1.3,0.9,1.8,2.1,1.8,3.1C104.2,271.8,103.8,273,102.4,273.9z M94.3,272.9
		c1,0.7,2.4,0.9,3.7,0.9c1.3,0,2.7-0.2,3.7-0.9c1-0.6,1.3-1.5,1.3-2.1c0-0.6-0.3-1.5-1.3-2.1c-1-0.7-2.4-0.9-3.7-0.9
		c-1.3,0-2.7,0.2-3.7,0.9c-1,0.6-1.3,1.5-1.3,2.1C92.9,271.5,93.2,272.3,94.3,272.9z"/>
</g>
<g>
	<path class="st1" d="M197.1,557.1c-0.4,1.9-1.9,3.3-4.3,2.8c-2.4-0.5-3.3-2.4-2.9-4.2c0.3-1.3,1.1-2.3,2.4-2.5
		c-0.8-0.7-1.1-1.8-0.9-2.9c0.3-1.7,1.8-3.1,3.9-2.6c2.1,0.4,3,2.3,2.6,4c-0.2,1.1-0.9,2-2,2.3C196.9,554.6,197.3,555.8,197.1,557.1
		z M195.7,556.8c0.3-1.3-0.5-2.5-1.9-2.7c-1.4-0.3-2.5,0.5-2.8,1.8c-0.3,1.4,0.5,2.5,1.9,2.8C194.3,558.9,195.5,558.1,195.7,556.8z
		 M196.6,551.3c0.3-1.3-0.5-2.3-1.6-2.5s-2.2,0.4-2.5,1.7c-0.2,1.2,0.5,2.2,1.6,2.5C195.3,553.1,196.3,552.4,196.6,551.3z"/>
	<path class="st1" d="M202.3,550.5l-2-0.4l0.9-1.1l2.6,0.5l-2.4,11.9l-1.3-0.3L202.3,550.5z"/>
	<path class="st1" d="M206.7,560.8c-0.6-1.3-0.7-2.9-0.3-4.6c0.3-1.7,1.1-3.1,2.1-4.1c1.2-1.1,2.5-1.4,3.4-1.2
		c0.9,0.2,2,0.9,2.7,2.4c0.6,1.3,0.7,2.9,0.3,4.6c-0.3,1.7-1.1,3.1-2.1,4.1c-1.2,1.1-2.5,1.4-3.4,1.2
		C208.5,563,207.4,562.3,206.7,560.8z M209.3,553c-0.8,0.9-1.4,2.2-1.6,3.4c-0.3,1.2-0.3,2.7,0.1,3.8c0.4,1.1,1.2,1.6,1.8,1.7
		s1.5,0,2.3-0.9c0.8-0.9,1.4-2.2,1.6-3.4c0.3-1.2,0.3-2.7-0.1-3.8c-0.4-1.1-1.2-1.6-1.8-1.7C211,552,210.2,552.1,209.3,553z"/>
</g>
<g>
	<path class="st1" d="M266.8,335.4c0.6,1.8,0,3.8-2.3,4.6c-2.3,0.8-4.1-0.4-4.7-2.2c-0.4-1.2-0.2-2.5,0.8-3.4c-1.1-0.2-1.9-1-2.3-2
		c-0.6-1.6,0-3.6,2.1-4.3c2.1-0.7,3.7,0.4,4.3,2.1c0.4,1.1,0.2,2.1-0.5,3C265.5,333.3,266.4,334.2,266.8,335.4z M263.4,330.7
		c-0.4-1.3-1.6-1.7-2.7-1.3c-1,0.4-1.7,1.5-1.3,2.7c0.4,1.1,1.5,1.7,2.6,1.3C263.3,332.9,263.8,331.8,263.4,330.7z M265.5,335.8
		c-0.4-1.3-1.7-1.9-3-1.4c-1.3,0.5-1.9,1.7-1.5,3c0.5,1.3,1.7,1.9,3,1.5C265.4,338.4,266,337.1,265.5,335.8z"/>
	<path class="st1" d="M273.3,325.2l-3.7,1.3l0.1,2.7c0.2-0.1,0.4-0.2,0.7-0.3c2.3-0.8,4.4,0.4,5.2,2.7c0.9,2.6-0.5,4.8-2.7,5.6
		c-0.9,0.3-1.9,0.4-2.9,0c-0.5-0.2-1-0.5-1.4-0.8l0.8-1.1c0.3,0.3,0.7,0.5,1.1,0.7c0.6,0.2,1.3,0.3,2.1,0c1.6-0.6,2.4-2.3,1.8-3.9
		c-0.6-1.7-2.2-2.4-3.8-1.8c-0.4,0.1-1.2,0.5-1.9,1.6l-0.3-6.1l4.6-1.6L273.3,325.2z"/>
	<path class="st1" d="M283.1,321.8l-3.7,1.3l0.1,2.7c0.2-0.1,0.4-0.2,0.7-0.3c2.3-0.8,4.4,0.4,5.2,2.7c0.9,2.6-0.5,4.8-2.7,5.6
		c-0.9,0.3-1.9,0.4-2.9,0c-0.5-0.2-1-0.5-1.4-0.8l0.8-1.1c0.3,0.3,0.7,0.5,1.1,0.7c0.6,0.2,1.3,0.3,2.1,0c1.6-0.6,2.4-2.3,1.8-3.9
		c-0.6-1.7-2.2-2.4-3.8-1.8c-0.4,0.1-1.2,0.5-1.9,1.6l-0.3-6.1l4.6-1.6L283.1,321.8z"/>
</g>
</svg>
