<?xml version="1.0" encoding="utf-8"?>
<!-- Generator: Adobe Illustrator 23.0.3, SVG Export Plug-In . SVG Version: 6.00 Build 0)  -->
<svg version="1.1" id="Слой_1" xmlns="http://www.w3.org/2000/svg" xmlns:xlink="http://www.w3.org/1999/xlink" x="0px" y="0px"
	 viewBox="0 0 500 600" style="enable-background:new 0 0 500 600;" xml:space="preserve">
<style type="text/css">
	.st0{fill:none;stroke:#4E86B9;stroke-width:1.5;stroke-linecap:round;stroke-linejoin:round;stroke-miterlimit:10;}
	.st1{fill:none;stroke:#4E86B9;stroke-width:0.892;stroke-linecap:round;stroke-linejoin:round;stroke-miterlimit:10;}
	.st2{fill:none;stroke:#4E86B9;stroke-width:0.75;stroke-linecap:round;stroke-linejoin:round;stroke-miterlimit:10;}
	.st3{fill:#4E86B9;}
</style>
<path class="st0" d="M108.8,430H64.3c-3.3,0-5.9-2.7-5.9-5.9V131.9c0-3.3,2.7-5.9,5.9-5.9h399.6c3.2,0-10.4,24.1,9.7,80.2
	c10.7,51.1-21.1,75.4-5.9,137.3c12.4,51,13.2,55,12.7,86.5h-35.5"/>
<path class="st1" d="M429,430H124.3"/>
<path class="st0" d="M108.8,401.1h15.5v39.5h-15.5V401.1z"/>
<path class="st0" d="M99.9,440.6h33.4v5.2H99.9V440.6z"/>
<path class="st0" d="M116.6,404.2c0.9,0,1.6,0.7,1.6,1.6s-0.7,1.6-1.6,1.6s-1.6-0.7-1.6-1.6C115,404.9,115.7,404.2,116.6,404.2z"/>
<path class="st0" d="M116.6,419.3c0.9,0,1.6,0.7,1.6,1.6s-0.7,1.6-1.6,1.6s-1.6-0.7-1.6-1.6S115.7,419.3,116.6,419.3z"/>
<path class="st0" d="M121.4,395.9h-9.6l-3,5.2h15.5L121.4,395.9z"/>
<path class="st0" d="M429,401.1h15.5v39.5H429v-10.9V401.1z"/>
<path class="st0" d="M420.1,440.6h33.4v5.2h-33.4V440.6z"/>
<path class="st0" d="M436.8,404.2c0.9,0,1.6,0.7,1.6,1.6s-0.7,1.6-1.6,1.6s-1.6-0.7-1.6-1.6C435.2,404.9,435.9,404.2,436.8,404.2z"
	/>
<path class="st0" d="M436.8,419.3c0.9,0,1.6,0.7,1.6,1.6s-0.7,1.6-1.6,1.6s-1.6-0.7-1.6-1.6C435.2,420,435.9,419.3,436.8,419.3z"/>
<path class="st0" d="M441.6,395.9H432l-3,5.2h15.5L441.6,395.9z"/>
<path class="st2" d="M436.8,392.1v89.5"/>
<path class="st2" d="M116.6,392.1v95.2"/>
<path class="st2" d="M58.4,487.3v-64.8"/>
<path class="st2" d="M24.9,445.8h74.9"/>
<path class="st2" d="M24.9,476.2h402"/>
<path class="st2" d="M24.9,126h37.5"/>
<path class="st2" d="M36.8,126v317.2"/>
<g id="XMLID_22_">
	<path class="st3" d="M34,143.8l2.7-17.1l3.2,17.1c-0.3-0.7-1.5-1.3-2.9-1.3C35.5,142.5,34.3,143,34,143.8"/>
</g>
<g id="XMLID_23_">
	<path class="st3" d="M36.7,429.9c1.5,0,2.7-0.6,3-1.3L37,445.8l-3.1-17.1C34.1,429.4,35.3,429.9,36.7,429.9"/>
</g>
<g id="XMLID_24_">
	<path class="st3" d="M42.6,476.6c0-1.5-0.6-2.7-1.3-3l17.1,2.7l-17.1,3.1C42,479.1,42.6,477.9,42.6,476.6"/>
</g>
<g id="XMLID_25_">
	<path class="st3" d="M132.9,479.4l-17.1-3.1l17.1-2.7c-0.7,0.3-1.3,1.5-1.3,3C131.6,477.9,132.2,479.1,132.9,479.4"/>
</g>
<g id="XMLID_27_">
	<path class="st3" d="M421.2,476.3c0-1.5-0.6-2.7-1.3-3L437,476l-17.1,3.1C420.7,478.8,421.2,477.7,421.2,476.3"/>
</g>
<g>
	<path class="st3" d="M76,467.1v1.2l-7.5-3.4v-1.1l7.5-3.4v1.2l-6.1,2.8L76,467.1z M68.5,470v-1.2H76v1.2H68.5z"/>
	<path class="st3" d="M77.4,470.9l4.2-4.9c0.3-0.3,1.1-1.3,1.3-1.7c0.5-0.7,0.6-1.3,0.6-1.8c0-1.3-0.9-2.3-2.3-2.3
		c-0.8,0-1.5,0.4-1.9,1c-0.2,0.3-0.4,0.8-0.4,1.4h-1.3c0.1-1.2,0.4-1.9,0.9-2.4c0.5-0.6,1.3-1.2,2.7-1.2c2,0,3.5,1.5,3.5,3.5
		c0,0.8-0.2,1.5-0.9,2.5c-0.5,0.7-1.1,1.4-1.6,1.9l-2.4,2.7h4.8v1.2L77.4,470.9L77.4,470.9z"/>
	<path class="st3" d="M88.2,469.4c-0.8-1.1-1.2-2.6-1.2-4.3s0.4-3.2,1.2-4.3c0.9-1.3,2-1.7,2.9-1.7s2.1,0.5,2.9,1.7
		c0.8,1.1,1.2,2.6,1.2,4.3s-0.4,3.2-1.2,4.3c-0.9,1.3-2,1.7-2.9,1.7S89.1,470.7,88.2,469.4z M89.2,461.6c-0.6,1-0.8,2.3-0.8,3.5
		s0.2,2.5,0.8,3.5c0.6,1,1.4,1.3,2,1.3s1.4-0.3,2-1.3s0.8-2.3,0.8-3.5s-0.2-2.5-0.8-3.5c-0.6-1-1.4-1.3-2-1.3
		C90.6,460.3,89.8,460.6,89.2,461.6z"/>
	<path class="st3" d="M98,469.4c-0.8-1.1-1.2-2.6-1.2-4.3s0.4-3.2,1.2-4.3c0.9-1.3,2-1.7,2.9-1.7s2.1,0.5,2.9,1.7
		c0.8,1.1,1.2,2.6,1.2,4.3s-0.4,3.2-1.2,4.3c-0.9,1.3-2,1.7-2.9,1.7S98.9,470.7,98,469.4z M98.9,461.6c-0.6,1-0.8,2.3-0.8,3.5
		s0.2,2.5,0.8,3.5c0.6,1,1.4,1.3,2,1.3s1.4-0.3,2-1.3s0.8-2.3,0.8-3.5s-0.2-2.5-0.8-3.5c-0.6-1-1.4-1.3-2-1.3
		C100.3,460.3,99.5,460.6,98.9,461.6z"/>
</g>
<g>
	<path class="st3" d="M263.3,467.1v1.2l-7.5-3.4v-1.1l7.5-3.4v1.2l-6.1,2.8L263.3,467.1z M255.8,470v-1.2h7.5v1.2H255.8z"/>
	<path class="st3" d="M272.2,467.7c0,1.8-1.2,3.4-3.5,3.4s-3.5-1.6-3.5-3.4c0-1.3,0.6-2.3,1.7-2.8c-0.9-0.5-1.4-1.5-1.4-2.5
		c0-1.7,1.1-3.2,3.2-3.2s3.2,1.6,3.2,3.2c0,1.1-0.5,2-1.4,2.5C271.7,465.4,272.2,466.5,272.2,467.7z M271,467.7
		c0-1.3-0.9-2.2-2.2-2.2s-2.2,0.9-2.2,2.2c0,1.3,0.9,2.3,2.2,2.3C270,469.9,271,469,271,467.7z M270.7,462.3c0-1.3-0.9-2.1-2-2.1
		c-1,0-2,0.8-2,2.1c0,1.2,0.8,2,2,2C269.8,464.4,270.7,463.5,270.7,462.3z"/>
	<path class="st3" d="M275.5,469.4c-0.8-1.1-1.2-2.6-1.2-4.3s0.4-3.2,1.2-4.3c0.9-1.3,2-1.7,2.9-1.7s2.1,0.5,2.9,1.7
		c0.8,1.1,1.2,2.6,1.2,4.3s-0.4,3.2-1.2,4.3c-0.9,1.3-2,1.7-2.9,1.7C277.6,471.1,276.4,470.7,275.5,469.4z M276.5,461.6
		c-0.6,1-0.8,2.3-0.8,3.5s0.2,2.5,0.8,3.5c0.6,1,1.4,1.3,2,1.3s1.4-0.3,2-1.3s0.8-2.3,0.8-3.5s-0.2-2.5-0.8-3.5
		c-0.6-1-1.4-1.3-2-1.3C277.9,460.3,277.1,460.6,276.5,461.6z"/>
	<path class="st3" d="M285.3,469.4c-0.8-1.1-1.2-2.6-1.2-4.3s0.4-3.2,1.2-4.3c0.9-1.3,2-1.7,2.9-1.7s2.1,0.5,2.9,1.7
		c0.8,1.1,1.2,2.6,1.2,4.3s-0.4,3.2-1.2,4.3c-0.9,1.3-2,1.7-2.9,1.7S286.2,470.7,285.3,469.4z M286.3,461.6c-0.6,1-0.8,2.3-0.8,3.5
		s0.2,2.5,0.8,3.5c0.6,1,1.4,1.3,2,1.3s1.4-0.3,2-1.3s0.8-2.3,0.8-3.5s-0.2-2.5-0.8-3.5c-0.6-1-1.4-1.3-2-1.3
		C287.7,460.3,286.9,460.6,286.3,461.6z"/>
</g>
<g>
	<path class="st3" d="M20.3,287.7v1.9l-1.2-0.7v-2.5h11.5v1.3H20.3z"/>
	<path class="st3" d="M29,281.7c-1.1,0.8-2.6,1.2-4.2,1.2s-3.1-0.4-4.2-1.2c-1.3-0.9-1.7-2-1.7-2.9s0.4-2.1,1.7-2.9
		c1.1-0.8,2.6-1.2,4.2-1.2s3.1,0.4,4.2,1.2c1.3,0.9,1.7,2,1.7,2.9S30.3,280.8,29,281.7z M21.3,280.7c1,0.6,2.3,0.8,3.5,0.8
		s2.5-0.2,3.5-0.8c1-0.6,1.3-1.4,1.3-2s-0.3-1.4-1.3-2c-1-0.6-2.3-0.8-3.5-0.8s-2.5,0.2-3.5,0.8c-1,0.6-1.3,1.4-1.3,2
		S20.4,280.1,21.3,280.7z"/>
	<path class="st3" d="M29,271.9c-1.1,0.8-2.6,1.2-4.2,1.2s-3.1-0.4-4.2-1.2c-1.3-0.9-1.7-2-1.7-2.9s0.4-2.1,1.7-2.9
		c1.1-0.8,2.6-1.2,4.2-1.2s3.1,0.4,4.2,1.2c1.3,0.9,1.7,2,1.7,2.9S30.3,271,29,271.9z M21.3,270.9c1,0.6,2.3,0.8,3.5,0.8
		s2.5-0.2,3.5-0.8c1-0.6,1.3-1.4,1.3-2s-0.3-1.4-1.3-2c-1-0.6-2.3-0.8-3.5-0.8s-2.5,0.2-3.5,0.8c-1,0.6-1.3,1.4-1.3,2
		S20.4,270.3,21.3,270.9z"/>
	<path class="st3" d="M29,262.1c-1.1,0.8-2.6,1.2-4.2,1.2s-3.1-0.4-4.2-1.2c-1.3-0.9-1.7-2-1.7-2.9s0.4-2.1,1.7-2.9
		c1.1-0.8,2.6-1.2,4.2-1.2s3.1,0.4,4.2,1.2c1.3,0.9,1.7,2,1.7,2.9S30.3,261.2,29,262.1z M21.3,261.1c1,0.6,2.3,0.8,3.5,0.8
		s2.5-0.2,3.5-0.8c1-0.6,1.3-1.4,1.3-2s-0.3-1.4-1.3-2c-1-0.6-2.3-0.8-3.5-0.8s-2.5,0.2-3.5,0.8c-1,0.6-1.3,1.4-1.3,2
		S20.4,260.5,21.3,261.1z"/>
</g>
<path class="st3" d="M26.9,292.2h1.2l-3.4,7.5h-1.1l-3.4-7.5h1.2l2.8,6.1L26.9,292.2z M29.8,299.7h-1.2v-7.5h1.2V299.7z"/>
</svg>
