<?xml version="1.0" encoding="utf-8"?>
<!-- Generator: Adobe Illustrator 23.0.3, SVG Export Plug-In . SVG Version: 6.00 Build 0)  -->
<svg version="1.1" id="Слой_1" xmlns="http://www.w3.org/2000/svg" xmlns:xlink="http://www.w3.org/1999/xlink" x="0px" y="0px"
	 viewBox="0 0 500 600" style="enable-background:new 0 0 500 600;" xml:space="preserve">
<style type="text/css">
	.st0{fill:#4E86B9;}
	.st1{fill:none;stroke:#4E86B9;stroke-width:0.51;stroke-linecap:round;stroke-linejoin:round;stroke-miterlimit:10;}
	.st2{fill:none;stroke:#4E86B9;stroke-width:0.709;stroke-linecap:round;stroke-linejoin:round;stroke-miterlimit:10;}
</style>
<path class="st0" d="M268.9,475.6l0.4-0.2l0.4-0.3l0.3-0.4l0.2-0.4v-0.4l-0.2-0.4l-0.3-0.4l-0.4-0.3l-0.4,0l8.9,1.3L268.9,475.6
	 M253.6,472.8l-0.4,0.2l-0.4,0.3l-0.3,0.4l-0.2,0.4v0.4l0.2,0.4l0.3,0.4l0.4,0.3l0.4,0.2l-8.9-1.3L253.6,472.8"/>
<path class="st0" d="M123.5,576.7l-0.4,0.2l-0.4,0.3l-0.3,0.4l-0.2,0.4v0.4l0.2,0.4l0.3,0.4l0.4,0.3l0.4,0.2l-8.9-1.3L123.5,576.7
	 M359.7,579.4l0.4-0.2l0.4-0.3l0.3-0.4l0.2-0.4v-0.4l-0.2-0.4l-0.3-0.4l-0.4-0.3l-0.4-0.2l8.9,1.3L359.7,579.4"/>
<path class="st0" d="M397.1,33.4l-0.2-0.6l-0.3-0.5l-0.4-0.4l-0.6-0.2H395l-0.6,0.2l-0.4,0.4l-0.4,0.5l-0.2,0.6l1.9-12.3L397.1,33.4
	 M393.3,540.3l0.2,0.6l0.4,0.5l0.4,0.4l0.6,0.2h0.6l0.6-0.2l0.4-0.4l0.3-0.5l0.2-0.6l-1.9,12.3L393.3,540.3"/>
<path class="st0" d="M181.3,521.1l-0.2-0.4l-0.3-0.4l-0.4-0.3l-0.4-0.2h-0.4l-0.4,0.2l-0.4,0.3l-0.3,0.4l-0.2,0.4l1.3-8.9
	L181.3,521.1 M178.6,543.7l0.2,0.4l0.3,0.4l0.4,0.3l0.4,0.2h0.4l0.4-0.2l0.4-0.3l0.3-0.4l0.2-0.4l-1.3,8.9L178.6,543.7"/>
<path class="st1" d="M244.8,474.2h33"/>
<path class="st1" d="M368.6,578h-254 M114.6,550.6v29.9 M368.6,550.6v29.9"/>
<path class="st1" d="M395.2,552.6V21.1 M368.6,21.1h29.2 M368.6,552.6h29.2"/>
<path class="st1" d="M180,552.6v-40.3 M143.8,552.6h38.7"/>
<path class="st2" d="M122.2,28.7h238.7 M368.6,28v-6.1 M119.7,26.5l-0.4-0.1l-0.4-0.2l-0.3-0.3l-0.4-0.2l-0.2-0.4l-0.1-0.4v-0.4
	l0.1-0.4l0.2-0.4l0.3-0.3l0.4-0.2l0.4-0.1h0.4l0.4,0.1l0.4,0.2l0.3,0.3l0.2,0.4l0.1,0.4V25l-0.1,0.4l-0.2,0.4l-0.3,0.3l-0.3,0.3
	L119.7,26.5L119.7,26.5 M363.5,26.5l-0.4-0.1l-0.4-0.2l-0.3-0.3l-0.3-0.3l-0.2-0.4l-0.1-0.4v-0.4l0.1-0.4l0.2-0.4l0.3-0.3l0.4-0.2
	l0.4-0.1h0.4l0.4,0.1l0.4,0.2l0.3,0.3l0.2,0.4l0.1,0.4v0.4l-0.1,0.4l-0.2,0.4l-0.3,0.3l-0.3,0.3l-0.4,0.2L363.5,26.5 M114.6,28v-6.1
	 M114.6,21.1h254 M360.9,505.4h-1.3 M360.9,504.6h-1.3 M123.5,505.4h-1.3 M123.5,504.6h-1.3 M359.7,504.6L359.7,504.6L359.7,504.6
	v0.3v0.2v0.3v0.3v0.3v0.3 M123.5,504.6h236.1 M123.5,506.2v-0.3v-0.3v-0.3v-0.3v-0.2v-0.2v-0.1l0,0 M122.2,506.5h1.3 M122.2,506.5
	v5.7 M122.2,512.3h238.7 M360.9,506.5v5.7 M359.7,506.5h1.3 M359.7,506.2v0.4 M123.6,506.5v-0.4 M364,25.3l0.1-0.3v-0.3l-0.1-0.3
	l-0.2-0.2l-0.3-0.1h-0.3l-0.3,0.1l-0.2,0.2l-0.1,0.3V25l0.1,0.3l0.2,0.2l0.3,0.1h0.3l0.3-0.1L364,25.3 M364.2,25.4l0.1-0.3v-0.3
	l-0.1-0.3l-0.2-0.3l-0.2-0.2l-0.3-0.1h-0.3l-0.3,0.1l-0.2,0.2l-0.2,0.3l-0.1,0.3v0.3l0.1,0.3l0.2,0.2l0.3,0.1h0.3l0.3-0.1l0.3-0.1
	L364.2,25.4 M364.6,25.6l0.2-0.4l0.1-0.4v-0.4l-0.1-0.4l-0.2-0.3l-0.3-0.3l-0.4-0.2l-0.4-0.1h-0.4l-0.4,0.1l-0.3,0.2l-0.3,0.3
	l-0.2,0.4l-0.1,0.4V25l0.1,0.4l0.2,0.3l0.3,0.3l0.4,0.2l0.4,0.1h0.4l0.4-0.1l0.3-0.2L364.6,25.6 M120.2,24.6l-0.2-0.2l-0.3-0.1h-0.3
	l-0.3,0.1l-0.2,0.2l-0.1,0.3v0.3l0.1,0.3l0.2,0.2l0.3,0.1h0.3l0.3-0.1l0.2-0.2l0.1-0.3v-0.3L120.2,24.6 M120.9,24.2l-0.3-0.3
	l-0.3-0.2l-0.4-0.1h-0.4l-0.4-0.1l-0.4,0.2l-0.2,0.3l-0.2,0.3l-0.2,0.4V25l0.1,0.4l0.2,0.4l0.3,0.3l0.3,0.2l0.4,0.1h0.4l0.4-0.1
	l0.4-0.2l0.3-0.3l0.2-0.3l0.1-0.4v-0.4l-0.1-0.3L120.9,24.2 M120.4,24.5l-0.2-0.2l-0.3-0.1l-0.3-0.1h-0.3l-0.3,0.1l-0.2,0.2
	l-0.1,0.3v0.3l0.1,0.3l0.2,0.3l0.2,0.2l0.3,0.1h0.3l0.3-0.1l0.2-0.2l0.2-0.3l0.1-0.3v-0.3L120.4,24.5 M122.2,28.7L122.2,28.7
	L122.2,28.7L122.2,28.7H122h-0.1h-0.1h-0.2h-0.2 M122.2,506.5V28.7 M122.2,550.6v-38.3 M121.5,28.7h-6.1 M115.4,28.7h-0.2H115H115
	h-0.1h-0.1h-0.1l0,0l0,0 M114.6,550.6V28.7 M367.8,28.7h-6.1 M368.6,28.7L368.6,28.7L368.6,28.7L368.6,28.7h-0.3h-0.1h-0.1h-0.2
	h-0.2 M368.6,550.6V28.7 M361.7,28.7h-0.2h-0.2h-0.1h-0.1H361h-0.1l0,0l0,0 M360.9,506.5V28.7 M360.9,550.6v-38.3 M368.6,552.6
	L368.6,552.6L368.6,552.6L368.6,552.6L368.6,552.6h-0.2h-0.1h0h-0.1 M368.2,550.6L368.2,550.6h0.2h0.1h0.1l0,0l0,0l0,0l0,0
	 M368.6,550.6v2.1 M368.2,552.6h-6.1 M368.2,550.6h-6.1 M361.2,552.6h-21.9 M361.2,550.6h-21.9 M362.1,552.6L362.1,552.6h-0.2h-0.1
	h-0.1h-0.1h-0.1h-0.1h-0.1 M361.2,550.6L361.2,550.6h0.2h0.1h0.1h0.1h0.1h0.1h0.1 M339.4,552.6h-0.3h-0.3h-0.2h-0.2h-0.2h-0.1h-0.1
	l0,0 M338.1,550.6L338.1,550.6L338.1,550.6h0.2h0.2h0.2h0.2h0.3h0.3 M338.1,552.6v-2.1 M114.6,550.6L114.6,550.6L114.6,550.6
	L114.6,550.6L114.6,550.6h0.2h0.1h0.1h0.1 M115,552.6L115,552.6h-0.2l0,0h-0.1l0,0l0,0l0,0l0,0 M114.6,552.6v-2.1 M115,550.6h6.1
	 M115,552.6h6.1 M122,550.6h21.9 M122,552.6h21.9 M121.1,550.6L121.1,550.6h0.2h0.1h0.1h0.1h0.1h0.1h0.1 M122,552.6L122,552.6h-0.2
	h-0.1h-0.1h-0.1h-0.1h-0.1h-0.1 M143.8,550.6h0.3h0.3h0.2h0.2h0.2h0.1h0.1l0,0 M145.1,552.6L145.1,552.6L145.1,552.6h-0.2h-0.2h-0.2
	h-0.2h-0.3h-0.3 M145.1,550.6v2.1 M126.1,550.6l-3.9-3.9 M145.1,550.6v-1.5 M145.1,549.1l-19.8-11.5 M125.3,537.6h-3 M360.9,546.7
	l-3.9,3.9 M357.9,537.6h3 M338.1,549.1l19.8-11.5 M338.1,550.6v-1.5 M369.2,28.7L369.2,28.7h0.2l0.1-0.1l0.1-0.1l0.1-0.1l0.1-0.1
	v-0.1v-0.1 M368.6,21.1L368.6,21.1L368.6,21.1L368.6,21.1L368.6,21.1v0.2v0.1v0.1v0.1 M369.2,21.1h-0.6 M369.8,21.7L369.8,21.7v-0.2
	l-0.1-0.1l-0.1-0.1l-0.1-0.1l-0.1-0.1l-0.1-0.1h-0.1h-0.1 M369.2,28.7h-0.6 M368.6,28.3L368.6,28.3v0.2l0,0v0.1v0.1l0,0l0,0l0,0
	 M368.6,21.5v6.9 M369.8,21.7v6.4 M114,28.7L114,28.7h-0.2l-0.1-0.1l-0.1-0.1l-0.1,0l-0.1-0.1l-0.1-0.1v-0.1v-0.1 M114.6,28.7
	L114.6,28.7L114.6,28.7L114.6,28.7L114.6,28.7v-0.2l0,0v-0.1v-0.1 M114,28.7h0.6 M113.3,21.7L113.3,21.7v-0.2l0.1-0.1l0.1-0.1
	l0.1-0.1l0.1-0.1h0.1h0.1 M114.6,28.3v-6.9 M113.3,28.1v-6.4 M114,21.1h0.6 M114.6,21.5L114.6,21.5v-0.2v-0.1v-0.1v-0.1l0,0l0,0l0,0
	 M166,504.6V28.7 M159.7,28.7v475.9 M205.4,504.6V28.7 M199.1,28.7v475.9 M323.5,504.6V28.7 M317.1,28.7v475.9 M244.8,504.6V28.7
	 M238.4,28.7v475.9 M284.1,504.6V28.7 M277.8,28.7v475.9"/>
<g>
	<path class="st0" d="M249.3,458.5h-2.1l0.7-1.4h2.8v13.2h-1.4V458.5z"/>
	<path class="st0" d="M256.6,460.4c0-0.7,0.3-1.4,0.6-1.9c0.8-1.4,2.2-1.5,2.9-1.5c2.4,0,3.5,1.7,3.5,3.6c0,1-0.3,2.3-1.6,2.9
		c0.4,0.2,1.8,0.9,1.8,3.2c0,2.5-1.7,4-3.9,4c-1.3,0-2.8-0.6-3.5-2.3c-0.2-0.5-0.3-0.9-0.3-1.4h1.4c0.1,0.5,0.2,1,0.5,1.3
		c0.4,0.6,1.2,1,1.9,1c1.4,0,2.5-1.2,2.5-2.7c0-0.8-0.3-1.8-1.2-2.2c-0.4-0.2-0.9-0.3-1.4-0.3v-1.3c0.5,0,1-0.1,1.4-0.3
		c0.4-0.2,1.1-0.8,1.1-2c0-1.2-0.6-2.3-2.2-2.3c-0.5,0-1.1,0.1-1.6,0.8c-0.2,0.3-0.5,0.8-0.5,1.4H256.6z"/>
	<path class="st0" d="M267.8,468.6c-0.8-1.3-1.3-3-1.3-4.9s0.4-3.6,1.3-4.9c1-1.5,2.2-2,3.2-2c1,0,2.3,0.5,3.2,2
		c0.8,1.3,1.3,3,1.3,4.9s-0.4,3.6-1.3,4.9c-1,1.5-2.2,2-3.2,2C270,470.6,268.8,470.1,267.8,468.6z M268.9,459.7
		c-0.7,1.1-0.9,2.6-0.9,4s0.2,2.9,0.9,4c0.7,1.1,1.5,1.5,2.2,1.5c0.6,0,1.5-0.4,2.2-1.5c0.7-1.1,0.9-2.6,0.9-4s-0.2-2.9-0.9-4
		c-0.7-1.1-1.5-1.5-2.2-1.5C270.4,458.2,269.5,458.6,268.9,459.7z"/>
</g>
<g>
	<path class="st0" d="M242.8,558.3h-2.1l0.7-1.4h2.8v13.2h-1.4V558.3z"/>
	<path class="st0" d="M250.7,568.4c-0.8-1.3-1.3-3-1.3-4.9s0.4-3.6,1.3-4.9c1-1.5,2.2-2,3.2-2c1,0,2.3,0.5,3.2,2
		c0.8,1.3,1.3,3,1.3,4.9s-0.4,3.6-1.3,4.9c-1,1.5-2.2,2-3.2,2C252.9,570.4,251.6,569.9,250.7,568.4z M251.7,559.6
		c-0.7,1.1-0.9,2.6-0.9,4s0.2,2.9,0.9,4c0.7,1.1,1.5,1.5,2.2,1.5c0.6,0,1.5-0.4,2.2-1.5c0.7-1.1,0.9-2.6,0.9-4s-0.2-2.9-0.9-4
		c-0.7-1.1-1.5-1.5-2.2-1.5C253.3,558.1,252.4,558.4,251.7,559.6z"/>
	<path class="st0" d="M261.4,568.4c-0.8-1.3-1.3-3-1.3-4.9s0.4-3.6,1.3-4.9c1-1.5,2.2-2,3.2-2c1,0,2.3,0.5,3.2,2
		c0.8,1.3,1.3,3,1.3,4.9s-0.4,3.6-1.3,4.9c-1,1.5-2.2,2-3.2,2C263.6,570.4,262.3,569.9,261.4,568.4z M262.4,559.6
		c-0.7,1.1-0.9,2.6-0.9,4s0.2,2.9,0.9,4c0.7,1.1,1.5,1.5,2.2,1.5c0.6,0,1.5-0.4,2.2-1.5c0.7-1.1,0.9-2.6,0.9-4s-0.2-2.9-0.9-4
		c-0.7-1.1-1.5-1.5-2.2-1.5C264,558.1,263.1,558.4,262.4,559.6z"/>
	<path class="st0" d="M272.1,568.4c-0.8-1.3-1.3-3-1.3-4.9s0.4-3.6,1.3-4.9c1-1.5,2.2-2,3.2-2c1,0,2.3,0.5,3.2,2
		c0.8,1.3,1.3,3,1.3,4.9s-0.4,3.6-1.3,4.9c-1,1.5-2.2,2-3.2,2C274.3,570.4,273.1,569.9,272.1,568.4z M273.2,559.6
		c-0.7,1.1-0.9,2.6-0.9,4s0.2,2.9,0.9,4c0.7,1.1,1.5,1.5,2.2,1.5c0.6,0,1.5-0.4,2.2-1.5c0.7-1.1,0.9-2.6,0.9-4s-0.2-2.9-0.9-4
		c-0.7-1.1-1.5-1.5-2.2-1.5C274.7,558.1,273.8,558.4,273.2,559.6z"/>
</g>
<g>
	<path class="st0" d="M390.5,290.4l-5.6-4.6c-0.4-0.3-1.4-1.2-1.9-1.5c-0.9-0.6-1.5-0.7-2-0.7c-1.5,0-2.6,1-2.6,2.5
		c0,0.9,0.4,1.6,1.2,2.1c0.4,0.2,0.9,0.4,1.6,0.4v1.4c-1.3-0.1-2.1-0.5-2.7-0.9c-0.6-0.5-1.3-1.4-1.3-3c0-2.2,1.7-3.9,4-3.9
		c0.9,0,1.7,0.2,2.8,1c0.8,0.5,1.6,1.2,2.2,1.7l3.1,2.6v-5.3h1.3V290.4z"/>
	<path class="st0" d="M388.7,278.5c-1.3,0.8-3,1.3-4.9,1.3s-3.6-0.4-4.9-1.3c-1.5-1-2-2.2-2-3.2c0-1,0.5-2.3,2-3.2
		c1.3-0.8,3-1.3,4.9-1.3s3.6,0.4,4.9,1.3c1.5,1,2,2.2,2,3.2C390.7,276.3,390.2,277.6,388.7,278.5z M379.8,277.5
		c1.1,0.7,2.6,0.9,4,0.9s2.9-0.2,4-0.9c1.1-0.7,1.5-1.5,1.5-2.2c0-0.6-0.4-1.5-1.5-2.2c-1.1-0.7-2.6-0.9-4-0.9s-2.9,0.2-4,0.9
		c-1.1,0.7-1.5,1.5-1.5,2.2C378.4,275.9,378.7,276.8,379.8,277.5z"/>
	<path class="st0" d="M390,266.6l-4.2-2.9c0.1,0.4,0.2,0.7,0.2,1.1c0,2.4-1.9,4.1-4.4,4.1c-2.6,0-4.5-1.8-4.5-4.3
		c0-3,2.4-4.4,4.5-4.4c0.5,0,1.7,0.1,3,1l6.2,4.3L390,266.6z M381.5,267.5c1.8,0,3.1-1.2,3.1-3s-1.3-2.9-3.1-2.9
		c-1.8,0-3.2,1.2-3.2,2.9C378.4,266.3,379.7,267.5,381.5,267.5z"/>
	<path class="st0" d="M380.5,257.6c-0.7,0-1.4-0.3-1.9-0.6c-1.4-0.8-1.5-2.2-1.5-2.9c0-2.4,1.7-3.5,3.6-3.5c1,0,2.3,0.3,2.9,1.6
		c0.2-0.4,0.9-1.8,3.2-1.8c2.5,0,4,1.7,4,3.9c0,1.3-0.6,2.8-2.3,3.5c-0.5,0.2-0.9,0.3-1.4,0.3v-1.4c0.5-0.1,1-0.2,1.3-0.5
		c0.6-0.4,1-1.2,1-1.9c0-1.4-1.2-2.5-2.7-2.5c-0.8,0-1.8,0.3-2.2,1.2c-0.2,0.4-0.3,0.9-0.3,1.4h-1.3c0-0.5-0.1-1-0.3-1.4
		c-0.2-0.4-0.8-1.1-2-1.1c-1.2,0-2.3,0.6-2.3,2.1c0,0.5,0.1,1.1,0.8,1.6c0.3,0.2,0.8,0.5,1.4,0.5V257.6z"/>
</g>
<g>
	<path class="st0" d="M189.4,545.5v2.1l-1.4-0.7v-2.8h13.2v1.4H189.4z"/>
	<path class="st0" d="M189.4,530.8v4l2.9,0.8c-0.1-0.2-0.1-0.5-0.1-0.8c0-2.5,2-4.1,4.6-4.1c3,0,4.8,2.1,4.8,4.6c0,1-0.3,2-1,2.8
		c-0.4,0.4-0.8,0.8-1.4,1.1l-0.8-1.1c0.4-0.2,0.8-0.5,1.1-0.8c0.5-0.5,0.8-1.2,0.8-2c0-1.8-1.5-3.1-3.4-3.1c-1.9,0-3.3,1.3-3.3,3.1
		c0,0.5,0.1,1.3,0.9,2.4l-6.4-1.8v-5H189.4z"/>
	<path class="st0" d="M200.8,525.8l-4.2-2.9c0.1,0.4,0.2,0.7,0.2,1.1c0,2.4-1.9,4.1-4.4,4.1c-2.6,0-4.5-1.8-4.5-4.3
		c0-3,2.4-4.4,4.5-4.4c0.5,0,1.7,0.1,3,1l6.2,4.3L200.8,525.8z M192.3,526.7c1.8,0,3.1-1.2,3.1-3c0-1.7-1.3-2.9-3.1-2.9
		c-1.8,0-3.2,1.2-3.2,2.9C189.2,525.5,190.5,526.7,192.3,526.7z"/>
</g>
</svg>
