<?xml version="1.0" encoding="utf-8"?>
<!-- Generator: Adobe Illustrator 23.0.3, SVG Export Plug-In . SVG Version: 6.00 Build 0)  -->
<svg version="1.1" id="Слой_1" xmlns="http://www.w3.org/2000/svg" xmlns:xlink="http://www.w3.org/1999/xlink" x="0px" y="0px"
	 viewBox="0 0 500 600" style="enable-background:new 0 0 500 600;" xml:space="preserve">
<style type="text/css">
	.st0{fill:none;stroke:#4E86B9;stroke-width:0.6;stroke-linecap:round;stroke-linejoin:round;stroke-miterlimit:10;}
	.st1{fill:none;stroke:#4E86B9;stroke-width:0.75;stroke-linecap:round;stroke-linejoin:round;stroke-miterlimit:10;}
	.st2{fill:#4E86B9;}
</style>
<g>
	<path class="st0" d="M164,536.4h162.9 M333.9,515.8v24.8 M157.8,515.8v25.9 M256,452.6h21.6 M214.3,509.1V492 M182.1,515.8h39.2
		 M353.9,509.4V49.1 M332.7,49.1h23.5 M320.3,515.8h35.7"/>
	<path class="st1" d="M183.5,512.4l-17.2-10 M166.3,512.6l1.1,1.1 M183.5,513.7v-1.3 M324.2,513.7l1.1-1.1 M308.1,512.4l17.2-10
		 M308.1,513.7v-1.3 M162.1,48.8L162.1,48.8L162.1,48.8h0.2h0.2h0.2h0.3h0.3h0.3h0.3h0.3h0.3h0.2h0.1h0.1 M165.2,48.8L165.2,48.8
		 M326.4,48.8L326.4,48.8L326.4,48.8h0.2h0.2h0.2h0.3h0.3h0.3h0.3h0.3h0.2h0.2h0.1h0.1 M329.4,48.8L329.4,48.8 M158.8,57.8h6.4
		 M165.2,57.8h0.2h0.2h0.2h0.1h0.1h0.1h0.1l0,0 M166.3,486.5v27.1 M166.3,57.8v420.1 M157.8,57.8L157.8,57.8L157.8,57.8h0.2h0.1h0.1
		h0.2h0.2h0.2 M157.8,57.8v455.9 M326.3,57.8h6.4 M332.8,57.8h0.2h0.2h0.2h0.1h0.1h0.1h0.1l0,0 M333.8,57.8v455.9 M325.3,57.8
		L325.3,57.8L325.3,57.8h0.2h0.1h0.1h0.2h0.2h0.2 M325.3,57.8v420.1 M325.3,486.5v27.1 M166.3,477.8L166.3,477.8L166.3,477.8v0.2
		v0.1v0.2v0.2v0.2v0.2 M325.3,477.8L325.3,477.8L325.3,477.8v0.2v0.1v0.2v0.2v0.2v0.2 M325.3,477.8H166.3 M166.3,479v6.5 M325.3,479
		v6.5 M166.3,485.5v0.2v0.2v0.2v0.1v0.1v0.1v0.1l0,0 M325.3,485.5v0.2v0.2v0.2v0.1v0.1v0.1v0.1l0,0 M325.3,486.5H166.3 M333.8,49.1
		L333.8,49.1L333.8,49.1v0.2v0.1v0.1v0.2V50v0.2 M157.8,49.1L157.8,49.1L157.8,49.1v0.2v0.1v0.1v0.2V50v0.2 M333.8,49.1h-176
		 M333.8,56.7v0.2v0.2v0.2v0.1v0.1v0.1v0.1l0,0 M157.8,56.7v0.2v0.2v0.2v0.1v0.1v0.1v0.1l0,0 M325.3,57.8H166.3 M333.8,50.2v6.5
		 M157.8,50.2v6.5 M252.2,57.8v420.1 M239.4,57.8v420.1 M209.3,57.8v420.1 M196.5,57.8v420.1 M295.2,57.8v420.1 M282.3,57.8v420.1
		 M333.8,513.7h-5.7 M333.8,515.8h-5.7 M333.8,515.8v-2.1 M308.1,515.8h20 M328.1,515.8v-2.1 M308.1,513.7h20 M308.1,513.7v2.1
		 M163.5,513.7h-5.7 M163.5,515.8h-5.7 M157.8,515.8v-2.1 M163.5,513.7h20 M163.5,515.8h20 M163.5,515.8v-2.1 M183.5,513.7v2.1
		 M165.2,49.1v-0.3 M162.1,48.8v0.3 M329.5,49.1v-0.3 M326.4,48.8v0.3"/>
</g>
<polygon class="st2" points="354.3,516 356.2,504.7 354.3,507.3 352.3,504.7 "/>
<polygon class="st2" points="353.8,49.1 355.4,60.3 353.6,57.7 351.6,60 "/>
<polygon class="st2" points="214.1,516.1 216,504.8 214,507.3 212.1,504.8 "/>
<polygon class="st2" points="214.3,486.5 216,497.6 214.1,495 212.1,497.4 "/>
<polygon class="st2" points="157.8,536.4 169.4,538.7 166.8,536.6 169.5,534.7 "/>
<polygon class="st2" points="333.6,536.2 322,538.7 324.6,536.6 321.9,534.7 "/>
<polygon class="st2" points="252.3,452.4 263.9,454.7 261.3,452.7 264,450.8 "/>
<polygon class="st2" points="282.2,452.2 270.8,454.7 273.2,452.7 270.5,450.8 "/>
<g>
	<path class="st2" d="M257.8,438.8h-1.7l0.6-1.1h2.2v10.5h-1.1V438.8z"/>
	<path class="st2" d="M268.8,445.1h1.2v1.1h-1.2v2h-1.1v-2h-5.1l6.2-9.1V445.1z M267.7,445.1v-4.6l-3.2,4.6H267.7z"/>
	<path class="st2" d="M272.5,446.8c-0.7-1-1-2.4-1-3.9s0.3-2.8,1-3.9c0.8-1.2,1.8-1.6,2.6-1.6c0.8,0,1.8,0.4,2.6,1.6
		c0.7,1,1,2.4,1,3.9s-0.3,2.8-1,3.9c-0.8,1.2-1.8,1.6-2.6,1.6C274.2,448.4,273.2,448,272.5,446.8z M273.3,439.8
		c-0.5,0.9-0.7,2.1-0.7,3.2c0,1.1,0.2,2.3,0.7,3.2c0.5,0.9,1.2,1.2,1.7,1.2s1.2-0.3,1.7-1.2c0.5-0.9,0.7-2.1,0.7-3.2
		c0-1.1-0.2-2.3-0.7-3.2c-0.5-0.9-1.2-1.2-1.7-1.2S273.8,438.9,273.3,439.8z"/>
</g>
<g>
	<path class="st2" d="M241.7,530.8c0,1.6-1,3.1-3,3.1c-2,0-3-1.4-3-3.1c0-1.1,0.5-2.1,1.5-2.6c-0.8-0.5-1.2-1.3-1.2-2.3
		c0-1.5,1-2.9,2.7-2.9c1.8,0,2.7,1.4,2.7,2.9c0,1-0.4,1.8-1.2,2.3C241.2,528.7,241.7,529.7,241.7,530.8z M240.6,530.8
		c0-1.2-0.8-2-1.9-2s-1.9,0.8-1.9,2c0,1.2,0.8,2,1.9,2C239.8,532.8,240.6,532,240.6,530.8z M240.3,526c0-1.1-0.8-1.9-1.7-1.9
		c-0.9,0-1.7,0.7-1.7,1.9c0,1,0.7,1.8,1.7,1.8C239.6,527.8,240.3,527,240.3,526z"/>
	<path class="st2" d="M243.6,533.7l3.6-4.4c0.3-0.3,0.9-1.1,1.2-1.5c0.4-0.7,0.6-1.2,0.6-1.6c0-1.2-0.8-2-2-2
		c-0.7,0-1.3,0.3-1.7,0.9c-0.2,0.3-0.3,0.7-0.3,1.2h-1.1c0-1.1,0.4-1.7,0.7-2.2c0.4-0.5,1.1-1.1,2.4-1.1c1.8,0,3.1,1.3,3.1,3.1
		c0,0.7-0.2,1.4-0.8,2.2c-0.4,0.6-1,1.3-1.4,1.7l-2.1,2.5h4.2v1.1H243.6z"/>
	<path class="st2" d="M253.1,532.3c-0.7-1-1-2.4-1-3.9s0.3-2.8,1-3.9c0.8-1.2,1.8-1.6,2.6-1.6c0.8,0,1.8,0.4,2.6,1.6
		c0.7,1,1,2.4,1,3.9s-0.3,2.8-1,3.9c-0.8,1.2-1.8,1.6-2.6,1.6C254.8,533.9,253.8,533.5,253.1,532.3z M253.9,525.3
		c-0.5,0.9-0.7,2.1-0.7,3.2c0,1.1,0.2,2.3,0.7,3.2c0.5,0.9,1.2,1.2,1.7,1.2s1.2-0.3,1.7-1.2c0.5-0.9,0.7-2.1,0.7-3.2
		c0-1.1-0.2-2.3-0.7-3.2c-0.5-0.9-1.2-1.2-1.7-1.2S254.4,524.4,253.9,525.3z"/>
</g>
<g>
	<path class="st2" d="M352.4,294.8l-4.4-3.6c-0.3-0.3-1.1-0.9-1.5-1.2c-0.7-0.4-1.2-0.6-1.6-0.6c-1.2,0-2,0.8-2,2
		c0,0.7,0.3,1.3,0.9,1.7c0.3,0.2,0.7,0.3,1.2,0.3v1.1c-1.1,0-1.7-0.4-2.2-0.7c-0.5-0.4-1.1-1.1-1.1-2.4c0-1.8,1.3-3.1,3.1-3.1
		c0.7,0,1.4,0.2,2.2,0.8c0.6,0.4,1.3,1,1.7,1.4l2.5,2.1v-4.2h1.1V294.8z"/>
	<path class="st2" d="M343,283.1v1.7l-1.1-0.6V282h10.5v1.1H343z"/>
	<path class="st2" d="M343,271.5v3.2l2.3,0.6c0-0.2-0.1-0.4-0.1-0.6c0-2,1.6-3.3,3.6-3.3c2.3,0,3.8,1.7,3.8,3.6
		c0,0.8-0.2,1.6-0.8,2.2c-0.3,0.3-0.6,0.6-1.1,0.9l-0.7-0.9c0.3-0.2,0.6-0.4,0.8-0.7c0.4-0.4,0.6-0.9,0.6-1.6c0-1.4-1.2-2.4-2.7-2.4
		c-1.5,0-2.6,1-2.6,2.4c0,0.4,0.1,1,0.7,1.9l-5.1-1.4v-4H343z"/>
	<path class="st2" d="M351,268.5c-1,0.7-2.4,1-3.9,1s-2.8-0.3-3.9-1c-1.2-0.8-1.6-1.8-1.6-2.6c0-0.8,0.4-1.8,1.6-2.6
		c1-0.7,2.4-1,3.9-1s2.8,0.3,3.9,1c1.2,0.8,1.6,1.8,1.6,2.6C352.6,266.7,352.2,267.7,351,268.5z M344,267.6c0.9,0.5,2.1,0.7,3.2,0.7
		c1.1,0,2.3-0.2,3.2-0.7c0.9-0.5,1.2-1.2,1.2-1.7c0-0.5-0.3-1.2-1.2-1.7c-0.9-0.5-2.1-0.7-3.2-0.7c-1.1,0-2.3,0.2-3.2,0.7
		c-0.9,0.5-1.2,1.2-1.2,1.7C342.8,266.4,343.1,267.1,344,267.6z"/>
</g>
<g>
	<path class="st2" d="M200.9,510.3v1.7l-1.1-0.6v-2.2h10.5v1.1H200.9z"/>
	<path class="st2" d="M202.4,504.6c-0.6,0-1.1-0.2-1.5-0.5c-1.1-0.7-1.2-1.7-1.2-2.3c0-1.9,1.4-2.8,2.8-2.8c0.8,0,1.8,0.3,2.3,1.3
		c0.1-0.3,0.7-1.4,2.5-1.4c2,0,3.2,1.4,3.2,3.1c0,1-0.5,2.2-1.8,2.8c-0.4,0.1-0.7,0.2-1.1,0.2v-1.1c0.4,0,0.8-0.2,1.1-0.4
		c0.5-0.3,0.8-0.9,0.8-1.5c0-1.1-1-2-2.1-2c-0.6,0-1.4,0.2-1.8,1c-0.2,0.3-0.2,0.7-0.2,1.1h-1c0-0.4,0-0.8-0.2-1.1s-0.6-0.8-1.6-0.8
		c-0.9,0-1.8,0.5-1.8,1.7c0,0.4,0.1,0.9,0.6,1.3c0.3,0.2,0.7,0.4,1.1,0.4V504.6z"/>
	<path class="st2" d="M200.8,490.2v3.2l2.3,0.6c0-0.2-0.1-0.4-0.1-0.6c0-2,1.6-3.3,3.6-3.3c2.3,0,3.8,1.7,3.8,3.6
		c0,0.8-0.2,1.6-0.8,2.2c-0.3,0.3-0.6,0.6-1.1,0.9l-0.7-0.9c0.3-0.2,0.6-0.4,0.8-0.7c0.4-0.4,0.6-0.9,0.6-1.6c0-1.4-1.2-2.5-2.7-2.5
		c-1.5,0-2.6,1-2.6,2.5c0,0.4,0.1,1,0.7,1.9l-5.1-1.4v-4H200.8z"/>
</g>
</svg>
