<?xml version="1.0" encoding="utf-8"?>
<!-- Generator: Adobe Illustrator 23.0.3, SVG Export Plug-In . SVG Version: 6.00 Build 0)  -->
<svg version="1.1" id="Capa_1" xmlns="http://www.w3.org/2000/svg" xmlns:xlink="http://www.w3.org/1999/xlink" x="0px" y="0px"
	 viewBox="0 0 54 42" style="enable-background:new 0 0 54 42;" xml:space="preserve">
<style type="text/css">
	.st0{fill:#214288;}
</style>
<g>
	<path class="st0" d="M10.1,31H6.2c-3.3,0-6.1-2.8-6.1-6.1V6.2c0-3.3,2.7-6.1,6.1-6.1h32.3c3.3,0,6.1,2.7,6.1,6.1v6.5h-2.1V6.2
		c0-1.8-1.4-3.7-3.2-3.7H6.2c-1.8,0-3.7,1.9-3.7,3.7v18.7c0,1.8,1.4,3.2,3.2,3.2h4.4V31z"/>
	<rect x="1.2" y="6.8" class="st0" width="41.6" height="2.2"/>
	<path class="st0" d="M46.7,42.1H14.4c-3.3,0-6.1-2.7-6.1-6.1V17.3c0-3.3,2.7-6.1,6.1-6.1h32.3c3.3,0,6.1,2.7,6.1,6.1V36
		C52.8,39.4,50,42.1,46.7,42.1z M13.9,13.5c-1.8,0-3.2,1.4-3.2,3.2v19.9c0,1.8,1.4,3.2,3.2,3.2h33.3c1.8,0,3.2-1.4,3.2-3.2V16.7
		c0-1.8-1.4-3.2-3.2-3.2C47.2,13.5,13.9,13.5,13.9,13.5z"/>
	<rect x="9.5" y="18" class="st0" width="41.6" height="2.3"/>
	<g>
		<circle class="st0" cx="14.5" cy="16.1" r="0.9"/>
		<circle class="st0" cx="17.4" cy="16.1" r="0.9"/>
		<circle class="st0" cx="20.3" cy="16.1" r="0.9"/>
	</g>
	<g>
		<circle class="st0" cx="6.2" cy="5.1" r="0.9"/>
		<circle class="st0" cx="9.1" cy="5.1" r="0.9"/>
		<circle class="st0" cx="12" cy="5.1" r="0.9"/>
	</g>
</g>
</svg>
