<?xml version="1.0" encoding="utf-8"?>
<!-- Generator: Adobe Illustrator 23.0.3, SVG Export Plug-In . SVG Version: 6.00 Build 0)  -->
<svg version="1.1" id="Capa_1" xmlns="http://www.w3.org/2000/svg" xmlns:xlink="http://www.w3.org/1999/xlink" x="0px" y="0px"
	 viewBox="0 0 70 42" style="enable-background:new 0 0 70 42;" xml:space="preserve">
<style type="text/css">
	.st0{fill:#214288;}
</style>
<path class="st0" d="M32.6,29H5.3c-2.8,0-5.1-2.3-5.1-5.1V8.1C0.1,5.3,2.4,3,5.3,3h27.3c2.8,0,5.1,2.3,5.1,5.1v15.8
	C37.6,26.8,35.4,29,32.6,29z M5.3,5.4c-1.5,0-2.7,1.2-2.7,2.7v15.8c0,1.5,1.2,2.7,2.7,2.7h27.3c1.5,0,2.7-1.2,2.7-2.7V8.1
	c0-1.5-1.2-2.7-2.7-2.7H5.3z"/>
<path class="st0" d="M24.6,39.1H13.8V26.7h10.8L24.6,39.1L24.6,39.1z M16.2,37.3h6v-8.7h-6V37.3z"/>
<rect x="8.1" y="37" class="st0" width="21.9" height="2.4"/>
<path class="st0" d="M56.3,39.4H41.9c-1.9,0-3.5-1.6-3.5-3.5V6.4C38.4,4.5,40,3,41.9,3h14.3c1.9,0,3.5,1.6,3.5,3.5V36
	C59.7,37.9,58.2,39.4,56.3,39.4z M41.9,5.4c-0.6,0-1,0.4-1,1V36c0,0.6,0.4,1,1,1h14.3c0.6,0,1-0.4,1-1V6.4c0-0.6-0.4-1-1-1
	C56.2,5.4,41.9,5.4,41.9,5.4z"/>
<rect x="44.6" y="10.2" class="st0" width="9.1" height="2.4"/>
<rect x="44.6" y="15.8" class="st0" width="9.1" height="2.4"/>
<path class="st0" d="M49.1,33.1c-1.6,0-2.9-1.3-2.9-2.9s1.3-2.9,2.9-2.9s2.9,1.3,2.9,2.9C51.9,31.9,50.6,33.1,49.1,33.1z M49.1,29.9
	c-0.3,0-0.4,0.2-0.4,0.4s0.2,0.4,0.4,0.4c0.3,0,0.4-0.2,0.4-0.4S49.3,29.9,49.1,29.9z"/>
</svg>
