<?xml version="1.0" encoding="utf-8"?>
<!-- Generator: Adobe Illustrator 23.0.3, SVG Export Plug-In . SVG Version: 6.00 Build 0)  -->
<svg version="1.1" id="Capa_1" xmlns="http://www.w3.org/2000/svg" xmlns:xlink="http://www.w3.org/1999/xlink" x="0px" y="0px"
	 viewBox="0 0 54 53.3" style="enable-background:new 0 0 54 53.3;" xml:space="preserve">
<style type="text/css">
	.st0{fill:#214288;}
</style>
<g>
	<path class="st0" d="M24.3,32.7c-0.1-0.2-0.2-0.3-0.4-0.4l-10.1-7.4c-0.4-0.3-1-0.3-1.5,0L2.2,32.3c-0.1,0.1-0.2,0.2-0.3,0.3
		c-0.3,0.2-0.6,0.6-0.6,1V44c0,0.4,0.2,0.8,0.5,1l10.4,8c0.2,0.2,0.5,0.3,0.8,0.3c0,0,0.1,0,0.1,0c0,0,0.1,0,0.1,0
		c0.3,0,0.5-0.1,0.8-0.3l10.4-8c0.3-0.2,0.5-0.6,0.5-1V33.6C24.8,33.3,24.6,32.9,24.3,32.7z M13.2,27.4l8,5.9l-8,5.9l-8.1-5.9
		L13.2,27.4z M11.7,49.4l-7.9-6.1V36l7.9,5.5V49.4z M22.3,43.4l-7.9,6.1v-8l7.9-5.5V43.4z"/>
	<path class="st0" d="M52.3,32.7c-0.1-0.2-0.2-0.3-0.4-0.4l-10.1-7.4c-0.4-0.3-1-0.3-1.5,0l-10.2,7.4c-0.1,0.1-0.2,0.2-0.3,0.3
		c-0.3,0.2-0.6,0.6-0.6,1V44c0,0.4,0.2,0.8,0.5,1l10.4,8c0.2,0.2,0.5,0.3,0.8,0.3c0,0,0.1,0,0.1,0c0,0,0.1,0,0.1,0
		c0.3,0,0.5-0.1,0.8-0.3l10.4-8c0.3-0.2,0.5-0.6,0.5-1V33.6C52.8,33.3,52.6,32.9,52.3,32.7z M41.2,27.4l8,5.9l-8,5.9l-8.1-5.9
		L41.2,27.4z M39.7,49.4l-7.9-6.1V36l7.9,5.5V49.4z M50.3,43.4l-7.9,6.1v-8l7.9-5.5V43.4z"/>
	<path class="st0" d="M38.8,19.7V9.3c0-0.4-0.2-0.7-0.4-0.9C38.2,8.2,38.1,8.1,38,8L27.9,0.5c-0.4-0.3-1-0.3-1.5,0L16.2,7.9
		C16.1,8,16,8.1,15.9,8.3c-0.3,0.2-0.6,0.6-0.6,1v10.4c0,0.4,0.2,0.8,0.5,1l10.4,8c0.2,0.2,0.5,0.3,0.8,0.3c0,0,0.1,0,0.1,0
		c0,0,0.1,0,0.1,0c0.3,0,0.5-0.1,0.8-0.3l10.4-8C38.6,20.4,38.8,20.1,38.8,19.7z M27.2,3.1l8,5.9l-8,5.9L19.1,9L27.2,3.1z
		 M25.7,25.1l-7.9-6.1v-7.4l7.9,5.5V25.1z M36.3,19.1l-7.9,6.1v-8l7.9-5.5V19.1z"/>
</g>
</svg>
