<?xml version="1.0" encoding="utf-8"?>
<!-- Generator: Adobe Illustrator 23.0.3, SVG Export Plug-In . SVG Version: 6.00 Build 0)  -->
<svg version="1.1" id="Capa_1" xmlns="http://www.w3.org/2000/svg" xmlns:xlink="http://www.w3.org/1999/xlink" x="0px" y="0px"
	 viewBox="0 0 54 42" style="enable-background:new 0 0 54 42;" xml:space="preserve">
<style type="text/css">
	.st0{fill:#214288;}
</style>
<g>
	<path class="st0" d="M7.6,36.6c-0.3,0-0.6-0.1-0.9-0.4c-4.6-4.7-6.8-11.3-5.8-18c1.4-9.6,9.3-17.2,19-18.1
		c12.7-1.2,23.5,8.8,23.5,21.2c0,1.6-0.2,3.1-0.5,4.7c-0.1,0.6-0.8,1-1.4,0.9c-0.6-0.1-1-0.8-0.9-1.4c0.3-1.4,0.5-2.8,0.5-4.1
		C41,10.6,32,2,21.2,2.4C11.4,2.8,3.4,10.9,3.1,20.7c-0.2,5.2,1.7,10.2,5.4,13.9c0.5,0.5,0.4,1.2,0,1.7C8.2,36.5,7.9,36.6,7.6,36.6z
		 M23.2,25.4c-3.2,0.9-6.1-2-5.2-5.2c0.4-1.4,1.5-2.6,2.9-2.9c3.2-0.9,6.1,2,5.2,5.2C25.7,23.9,24.6,25.1,23.2,25.4z M22,19.5
		c-1,0-1.9,0.8-1.9,1.9c0,1,0.8,1.9,1.9,1.9c1,0,1.9-0.8,1.9-1.9C23.9,20.3,23,19.5,22,19.5z"/>
	<g>
		<path class="st0" d="M19,30.8h-4.5v2.7h4.2v2.7h-4.2V42h-3.2V28H19V30.8z"/>
		<path class="st0" d="M26.5,28c1.8,0,2.9,0.6,3.6,1.2c0.6,0.6,1.2,1.6,1.2,3.1c0,0.9-0.2,2-1.1,2.8c-0.5,0.5-1.2,0.9-1.9,1.1
			l4.3,5.7h-3.9l-3.8-5.5V42h-3.2V28H26.5z M24.8,34.4h0.7c0.6,0,1.4-0.1,1.9-0.6c0.2-0.2,0.5-0.7,0.5-1.4c0-0.8-0.4-1.2-0.6-1.4
			c-0.5-0.4-1.4-0.4-1.8-0.4h-0.8V34.4z"/>
		<path class="st0" d="M42.3,30.8h-4.7v2.7h4.4v2.7h-4.4v3.1h4.7V42h-7.9V28h7.9V30.8z"/>
		<path class="st0" d="M53,30.8h-4.7v2.7h4.4v2.7h-4.4v3.1H53V42h-7.9V28H53V30.8z"/>
	</g>
</g>
</svg>
