<?xml version="1.0" encoding="utf-8"?>
<!-- Generator: Adobe Illustrator 23.0.3, SVG Export Plug-In . SVG Version: 6.00 Build 0)  -->
<svg version="1.1" id="Capa_1" xmlns="http://www.w3.org/2000/svg" xmlns:xlink="http://www.w3.org/1999/xlink" x="0px" y="0px"
	 viewBox="0 0 44 42" style="enable-background:new 0 0 44 42;" xml:space="preserve">
<style type="text/css">
	.st0{fill:#214288;}
</style>
<g>
	<g>
		<path class="st0" d="M8.3,4.9c-1.8,0-3.2,1.4-3.2,3.2s1.4,3.2,3.2,3.2s3.2-1.4,3.2-3.2S10.1,4.9,8.3,4.9z M8.3,9.9
			c-1,0-1.8-0.8-1.8-1.8s0.8-1.8,1.8-1.8s1.8,0.8,1.8,1.8S9.3,9.9,8.3,9.9z"/>
		<path class="st0" d="M8.3,11.6c-2,0-3.6-1.6-3.6-3.6s1.6-3.6,3.6-3.6S11.9,6,11.9,8S10.2,11.6,8.3,11.6z M8.3,5.2
			C6.7,5.2,5.5,6.5,5.5,8s1.3,2.8,2.8,2.8s2.8-1.3,2.8-2.8S9.9,5.2,8.3,5.2z M8.3,10.2c-1.2,0-2.1-1-2.1-2.1S7.2,6,8.3,6
			s2.1,1,2.1,2.1S9.5,10.2,8.3,10.2z M8.3,6.7c-0.8,0-1.4,0.6-1.4,1.4s0.6,1.4,1.4,1.4s1.4-0.6,1.4-1.4S9.1,6.7,8.3,6.7z"/>
	</g>
	<g>
		<path class="st0" d="M43.5,12.3V3.9c0-1.8-1.5-3.3-3.3-3.3H4.1c-1.8,0-3.3,1.5-3.3,3.3v8.4c0,1,0.5,2,1.3,2.6
			c-0.8,0.6-1.3,1.5-1.3,2.6v8.4c0,1.8,1.5,3.3,3.3,3.3h17.4V35c-1.4,0.3-2.5,1.4-2.8,2.8H1.5c-0.4,0-0.7,0.3-0.7,0.7S1.1,39,1.5,39
			h17.2c0.3,1.6,1.8,2.8,3.5,2.8s3.2-1.2,3.5-2.8h17.2c0.4,0,0.7-0.3,0.7-0.7s-0.3-0.7-0.7-0.7H25.7c-0.3-1.4-1.4-2.5-2.8-2.8V29
			h17.4c1.8,0,3.3-1.5,3.3-3.3v-8.4c0-1-0.5-2-1.3-2.6C43,14.2,43.5,13.3,43.5,12.3z M24.3,38.3c0,1.2-1,2.1-2.1,2.1s-2.1-1-2.1-2.1
			c0-1.2,1-2.1,2.1-2.1S24.3,37.2,24.3,38.3z M42.1,17.4v8.4c0,1-0.8,1.9-1.9,1.9H4.1c-1,0-1.9-0.8-1.9-1.9v-8.4
			c0-1,0.8-1.9,1.9-1.9h36.2C41.3,15.6,42.1,16.4,42.1,17.4z M4.1,14.1c-1,0-1.9-0.8-1.9-1.9V3.9C2.2,2.9,3,2,4.1,2h36.2
			c1,0,1.9,0.8,1.9,1.9v8.4c0,1-0.8,1.9-1.9,1.9L4.1,14.1L4.1,14.1z"/>
		<path class="st0" d="M22.2,42.3c-1.8,0-3.3-1.2-3.8-2.8H1.5c-0.6,0-1.1-0.5-1.1-1.1s0.5-1.1,1.1-1.1h16.9c0.4-1.3,1.4-2.3,2.7-2.7
			v-5.1h-17c-2,0-3.6-1.6-3.6-3.6v-8.4c0-1,0.4-1.9,1.1-2.6c-0.7-0.7-1.1-1.6-1.1-2.6V3.9c0-2,1.6-3.6,3.6-3.6h36.2
			c2,0,3.6,1.6,3.6,3.6v8.4c0,1-0.4,1.9-1.1,2.6c0.7,0.7,1.1,1.6,1.1,2.6v8.4c0,2-1.6,3.6-3.6,3.6h-17v5.1c1.3,0.4,2.3,1.4,2.7,2.7
			h16.9c0.6,0,1.1,0.5,1.1,1.1s-0.5,1.1-1.1,1.1h-17C25.5,41.1,23.9,42.3,22.2,42.3z M1.5,38c-0.2,0-0.4,0.2-0.4,0.4
			s0.2,0.4,0.4,0.4H19V39c0.3,1.5,1.6,2.6,3.1,2.6s2.8-1.1,3.1-2.6l0.1-0.3h17.4c0.2,0,0.4-0.2,0.4-0.4S43,38,42.8,38H25.4l-0.1-0.3
			c-0.3-1.3-1.2-2.2-2.5-2.5l-0.3-0.1v-6.4h17.7c1.6,0,2.9-1.3,2.9-2.9v-8.4c0-0.9-0.4-1.7-1.1-2.3l-0.4-0.3l0.4-0.3
			c0.7-0.6,1.1-1.4,1.1-2.3V3.9c0-1.6-1.3-2.9-2.9-2.9H4.1C2.5,1,1.2,2.3,1.2,3.9v8.4c0,0.9,0.4,1.7,1.1,2.3l0.4,0.3l-0.4,0.3
			c-0.7,0.6-1.1,1.4-1.1,2.3v8.4c0,1.6,1.3,2.9,2.9,2.9h17.7v6.4l-0.3,0.1c-1.3,0.3-2.2,1.2-2.5,2.5l0,0.2H1.5z M22.2,40.8
			c-1.4,0-2.5-1.1-2.5-2.5s1.1-2.5,2.5-2.5s2.5,1.1,2.5,2.5S23.5,40.8,22.2,40.8z M22.2,36.6c-1,0-1.8,0.8-1.8,1.8s0.8,1.8,1.8,1.8
			s1.8-0.8,1.8-1.8S23.1,36.6,22.2,36.6z M40.2,28H4.1c-1.2,0-2.2-1-2.2-2.2v-8.4c0-1.2,1-2.2,2.2-2.2h36.2c1.2,0,2.2,1,2.2,2.2v8.4
			C42.5,27,41.5,28,40.2,28z M4.1,15.9c-0.8,0-1.5,0.7-1.5,1.5v8.4c0,0.8,0.7,1.5,1.5,1.5h36.2c0.8,0,1.5-0.7,1.5-1.5v-8.4
			c0-0.8-0.7-1.5-1.5-1.5H4.1z M40.2,14.5H4.1c-1.2,0-2.2-1-2.2-2.2V3.9c0-1.2,1-2.2,2.2-2.2h36.2c1.2,0,2.2,1,2.2,2.2v8.4
			C42.5,13.5,41.5,14.5,40.2,14.5z M4.1,2.4c-0.8,0-1.5,0.7-1.5,1.5v8.4c0,0.8,0.7,1.5,1.5,1.5h36.2c0.8,0,1.5-0.7,1.5-1.5V3.9
			c0-0.8-0.7-1.5-1.5-1.5H4.1z"/>
	</g>
	<g>
		<path class="st0" d="M8.3,24.8c1.8,0,3.2-1.4,3.2-3.2s-1.4-3.2-3.2-3.2s-3.2,1.4-3.2,3.2C5.1,23.4,6.5,24.8,8.3,24.8z M8.3,19.8
			c1,0,1.8,0.8,1.8,1.8s-0.8,1.8-1.8,1.8s-1.8-0.8-1.8-1.8S7.3,19.8,8.3,19.8z"/>
		<path class="st0" d="M8.3,25.2c-2,0-3.6-1.6-3.6-3.6S6.3,18,8.3,18s3.6,1.6,3.6,3.6S10.2,25.2,8.3,25.2z M8.3,18.8
			c-1.6,0-2.8,1.3-2.8,2.8c0,1.6,1.3,2.8,2.8,2.8s2.8-1.3,2.8-2.8C11.1,20,9.9,18.8,8.3,18.8z M8.3,23.7c-1.2,0-2.1-1-2.1-2.1
			c0-1.2,1-2.1,2.1-2.1s2.1,1,2.1,2.1C10.4,22.8,9.5,23.7,8.3,23.7z M8.3,20.2c-0.8,0-1.4,0.6-1.4,1.4S7.5,23,8.3,23
			s1.4-0.6,1.4-1.4C9.7,20.8,9.1,20.2,8.3,20.2z"/>
	</g>
</g>
</svg>
