<?xml version="1.0" encoding="utf-8"?>
<!-- Generator: Adobe Illustrator 23.0.3, SVG Export Plug-In . SVG Version: 6.00 Build 0)  -->
<svg version="1.1" id="Capa_1" xmlns="http://www.w3.org/2000/svg" xmlns:xlink="http://www.w3.org/1999/xlink" x="0px" y="0px"
	 viewBox="0 0 54 42" style="enable-background:new 0 0 54 42;" xml:space="preserve">
<style type="text/css">
	.st0{fill:#214288;}
</style>
<g>
	<path class="st0" d="M46.2,17.5V6.4V1.2c0-0.6-0.5-1.1-1.1-1.1H5.3C4.7,0,4.1,0.6,4.1,1.2v5.2v13.2v0.2v13.2c0,0.6,0.5,1.1,1.1,1.1
		h13.2l0,0h7.9c2.1,4.7,6.7,8,12.2,8c7.4,0,13.3-6,13.3-13.3C52,23.9,49.7,19.9,46.2,17.5z M38.7,15.1c-2.1,0-4,0.4-5.7,1.3v-9H44
		v8.8C42.4,15.5,40.6,15.1,38.7,15.1z M6.4,7.4h11.1v11H6.4V7.4z M30.7,17.7c-0.3,0.2-0.6,0.4-0.9,0.7l0,0H19.6v-11h11.1V17.7z
		 M6.4,2.3H44v3H31.8l0,0H18.6l0,0H6.4V2.3z M6.4,20.7h11.1v11H6.4V20.7z M19.6,31.7v-11h8.1c-1.6,2.2-2.5,4.8-2.5,7.7
		c0,1.1,0.2,2.2,0.4,3.2L19.6,31.7L19.6,31.7z M38.7,39.7c-6.1,0-11.2-5-11.2-11.2s5-11.2,11.2-11.2s11.2,5,11.2,11.2
		C49.8,34.7,44.8,39.7,38.7,39.7z"/>
	<path class="st0" d="M39.7,27.9v-7c0-0.6-0.5-1.1-1.1-1.1c-0.6,0-1.1,0.5-1.1,1.1v7.6v0.1c0,0.1,0,0.2,0.1,0.3c0,0.1,0,0.1,0.1,0.2
		c0,0.1,0.1,0.1,0.1,0.2c0.1,0.1,0.1,0.1,0.2,0.2c0,0,0,0,0.1,0.1l4.2,3.2c0.2,0.2,0.4,0.3,0.6,0.3c0.3,0,0.7-0.2,0.9-0.4
		c0.3-0.5,0.3-1.1-0.2-1.6L39.7,27.9z"/>
</g>
</svg>
