<?xml version="1.0" encoding="utf-8"?>
<!-- Generator: Adobe Illustrator 23.0.3, SVG Export Plug-In . SVG Version: 6.00 Build 0)  -->
<svg version="1.1" id="Слой_1" xmlns="http://www.w3.org/2000/svg" xmlns:xlink="http://www.w3.org/1999/xlink" x="0px" y="0px"
	 viewBox="0 0 152.4 99.6" style="enable-background:new 0 0 152.4 99.6;" xml:space="preserve">
<style type="text/css">
	.st0{fill:none;stroke:url(#SVGID_1_);stroke-miterlimit:10;}
	.st1{fill:none;stroke:url(#SVGID_2_);stroke-miterlimit:10;}
	.st2{fill:url(#SVGID_3_);}
	.st3{fill:url(#SVGID_4_);}
	.st4{fill:url(#SVGID_5_);}
	.st5{fill:url(#SVGID_6_);}
	.st6{fill:url(#SVGID_7_);}
	.st7{fill:url(#SVGID_8_);}
	.st8{fill:url(#SVGID_9_);}
	.st9{fill:url(#SVGID_10_);}
	.st10{fill:url(#SVGID_11_);}
</style>
<linearGradient id="SVGID_1_" gradientUnits="userSpaceOnUse" x1="31.4036" y1="62.3153" x2="78.1363" y2="62.3153">
	<stop  offset="0" style="stop-color:#12397F"/>
	<stop  offset="0.713" style="stop-color:#3A71CE"/>
	<stop  offset="1" style="stop-color:#3A71CE"/>
</linearGradient>
<path class="st0" d="M70,44.9l-9.6-6.9c-1.8-1.3-4.4-0.9-5.8,0.9L32.7,69.2c-1.3,1.8-0.9,4.4,0.9,5.8l16.2,11.7
	c1.8,1.3,4.4,0.9,5.8-0.9l21.9-30.4c0,0,0,0,0,0L70,44.9z"/>
<linearGradient id="SVGID_2_" gradientUnits="userSpaceOnUse" x1="52.8873" y1="30.1978" x2="64.1367" y2="30.1978" gradientTransform="matrix(0.8106 0.5856 -0.5856 0.8106 35.8213 -10.9226)">
	<stop  offset="0" style="stop-color:#12397F"/>
	<stop  offset="0.713" style="stop-color:#3A71CE"/>
	<stop  offset="1" style="stop-color:#3A71CE"/>
</linearGradient>
<path class="st1" d="M67.1,51.2l-5.2-3.8c-0.8-0.6-1-1.8-0.4-2.6l0,0c0.6-0.8,1.8-1,2.6-0.4l5.2,3.8c0.8,0.6,1,1.8,0.4,2.6l0,0
	C69.1,51.7,67.9,51.9,67.1,51.2z"/>
<g>
	
		<linearGradient id="SVGID_3_" gradientUnits="userSpaceOnUse" x1="98.8724" y1="34.6611" x2="116.4544" y2="34.6611" gradientTransform="matrix(0.8227 -0.5684 0.5684 0.8227 -20.1397 74.2019)">
		<stop  offset="0" style="stop-color:#12397F"/>
		<stop  offset="0.713" style="stop-color:#3A71CE"/>
		<stop  offset="1" style="stop-color:#3A71CE"/>
	</linearGradient>
	<path class="st2" d="M88.9,47.4c-1.1-0.3-2.2-1-3-2.1c-1.5-2.2-1.2-4.9,0.6-6.2c1.8-1.3,4.5-0.5,6,1.6c0.8,1.1,1.1,2.4,0.9,3.6
		c1.9-0.9,3.6-1.1,4.3-0.5c0.3-2.1-0.2-4.3-1.5-6.2c-2.8-4-8.2-5-12.2-2.2c-4,2.8-5,8.2-2.2,12.2c1.3,1.9,3.2,3.1,5.2,3.6
		C86.6,50.4,87.4,48.9,88.9,47.4z"/>
	
		<linearGradient id="SVGID_4_" gradientUnits="userSpaceOnUse" x1="95.9117" y1="49.2686" x2="119.4151" y2="49.2686" gradientTransform="matrix(0.8227 -0.5684 0.5684 0.8227 -20.1397 74.2019)">
		<stop  offset="0" style="stop-color:#12397F"/>
		<stop  offset="0.713" style="stop-color:#3A71CE"/>
		<stop  offset="1" style="stop-color:#3A71CE"/>
	</linearGradient>
	<path class="st3" d="M105.9,48.2L88.1,60.5c-0.4,0.3-1,0.2-1.3-0.2v0c-0.3-0.4-0.2-1,0.2-1.3l17.8-12.3c0.4-0.3,1-0.2,1.3,0.2l0,0
		C106.4,47.3,106.3,47.9,105.9,48.2z"/>
	
		<linearGradient id="SVGID_5_" gradientUnits="userSpaceOnUse" x1="96.0213" y1="52.8296" x2="112.9049" y2="52.8296" gradientTransform="matrix(0.8227 -0.5684 0.5684 0.8227 -20.1397 74.2019)">
		<stop  offset="0" style="stop-color:#12397F"/>
		<stop  offset="0.713" style="stop-color:#3A71CE"/>
		<stop  offset="1" style="stop-color:#3A71CE"/>
	</linearGradient>
	<path class="st4" d="M102.6,54.4l-12.8,8.8c-0.3,0.2-0.7,0.1-0.9-0.2l0,0c-0.2-0.3-0.1-0.7,0.2-0.9l12.8-8.8
		c0.3-0.2,0.7-0.1,0.9,0.2l0,0C103,53.8,102.9,54.2,102.6,54.4z"/>
	
		<linearGradient id="SVGID_6_" gradientUnits="userSpaceOnUse" x1="96.0213" y1="55.7778" x2="112.9049" y2="55.7778" gradientTransform="matrix(0.8227 -0.5684 0.5684 0.8227 -20.1397 74.2019)">
		<stop  offset="0" style="stop-color:#12397F"/>
		<stop  offset="0.713" style="stop-color:#3A71CE"/>
		<stop  offset="1" style="stop-color:#3A71CE"/>
	</linearGradient>
	<path class="st5" d="M104.3,56.9l-12.8,8.8c-0.3,0.2-0.7,0.1-0.9-0.2l0,0c-0.2-0.3-0.1-0.7,0.2-0.9l12.8-8.8
		c0.3-0.2,0.7-0.1,0.9,0.2h0C104.7,56.2,104.6,56.6,104.3,56.9z"/>
	
		<linearGradient id="SVGID_7_" gradientUnits="userSpaceOnUse" x1="6.0804" y1="-159.2103" x2="8.6921" y2="-159.2103" gradientTransform="matrix(0.9837 0.1798 -0.1798 0.9837 72.9316 226.2907)">
		<stop  offset="0" style="stop-color:#12397F"/>
		<stop  offset="0.713" style="stop-color:#3A71CE"/>
		<stop  offset="1" style="stop-color:#3A71CE"/>
	</linearGradient>
	<polygon class="st6" points="110.2,71 109.1,70.8 109.3,69.8 108.8,69.7 108.6,70.7 107.6,70.5 107.5,71 108.5,71.2 108.3,72.2 
		108.8,72.3 109,71.3 110.1,71.5 	"/>
	
		<linearGradient id="SVGID_8_" gradientUnits="userSpaceOnUse" x1="95.2778" y1="70.6811" x2="98.4412" y2="70.6811" gradientTransform="matrix(0.8227 -0.5684 0.5684 0.8227 -20.1397 74.2019)">
		<stop  offset="0" style="stop-color:#12397F"/>
		<stop  offset="0.713" style="stop-color:#3A71CE"/>
		<stop  offset="1" style="stop-color:#3A71CE"/>
	</linearGradient>
	<polygon class="st7" points="101,76.4 99.2,76.1 99.1,76.6 100,76.8 98.3,78 98.6,78.4 100.3,77.2 100.2,78.1 100.7,78.2 101,76.4 
		101,76.4 	"/>
	
		<linearGradient id="SVGID_9_" gradientUnits="userSpaceOnUse" x1="117.1414" y1="70.6811" x2="120.3049" y2="70.6811" gradientTransform="matrix(0.8227 -0.5684 0.5684 0.8227 -20.1397 74.2019)">
		<stop  offset="0" style="stop-color:#12397F"/>
		<stop  offset="0.713" style="stop-color:#3A71CE"/>
		<stop  offset="1" style="stop-color:#3A71CE"/>
	</linearGradient>
	<polygon class="st8" points="119,64 117.2,63.6 117.1,64.2 118,64.3 116.3,65.5 116.6,66 118.3,64.8 118.2,65.7 118.7,65.8 119,64 
		119,64 	"/>
	
		<linearGradient id="SVGID_10_" gradientUnits="userSpaceOnUse" x1="92.1041" y1="20.937" x2="123.2142" y2="20.937" gradientTransform="matrix(0.8227 -0.5684 0.5684 0.8227 -20.1397 74.2019)">
		<stop  offset="0" style="stop-color:#12397F"/>
		<stop  offset="0.713" style="stop-color:#3A71CE"/>
		<stop  offset="1" style="stop-color:#3A71CE"/>
	</linearGradient>
	<path class="st9" d="M65.8,36.6l3.4,4.9l25.6-17.7l-3.4-4.9L65.8,36.6z M78,33.6l-7.2,5c-0.6,0.4-1.3,0.3-1.7-0.3
		c-0.4-0.6-0.3-1.3,0.3-1.7l7.2-5c0.6-0.4,1.3-0.3,1.7,0.3C78.7,32.4,78.6,33.2,78,33.6z"/>
	
		<linearGradient id="SVGID_11_" gradientUnits="userSpaceOnUse" x1="89.6984" y1="46.8418" x2="125.6283" y2="46.8418" gradientTransform="matrix(0.8227 -0.5684 0.5684 0.8227 -20.1397 74.2019)">
		<stop  offset="0" style="stop-color:#12397F"/>
		<stop  offset="0.713" style="stop-color:#3A71CE"/>
		<stop  offset="1" style="stop-color:#3A71CE"/>
	</linearGradient>
	<path class="st10" d="M84.1,11.4L61.4,27.1c-1.9,1.3-2.4,3.9-1.1,5.9l39.9,57.7c1.3,1.9,3.9,2.4,5.9,1.1L128.7,76
		c1.9-1.3,2.4-3.9,1.1-5.9L89.9,12.5C88.6,10.6,86,10.1,84.1,11.4z M74.2,21.7c0.8-0.6,2-0.4,2.6,0.5c0.6,0.8,0.4,2-0.5,2.6
		c-0.8,0.6-2,0.4-2.6-0.5C73.1,23.4,73.3,22.2,74.2,21.7z M125.2,66.8L98.7,85.1L64.9,36.3L91.5,18L125.2,66.8z"/>
</g>
</svg>
