<?xml version="1.0" encoding="UTF-8" standalone="no"?>
<!-- Generator: Adobe Illustrator 23.0.0, SVG Export Plug-In . SVG Version: 6.00 Build 0)  -->

<svg
   xmlns:dc="http://purl.org/dc/elements/1.1/"
   xmlns:cc="http://creativecommons.org/ns#"
   xmlns:rdf="http://www.w3.org/1999/02/22-rdf-syntax-ns#"
   xmlns:svg="http://www.w3.org/2000/svg"
   xmlns="http://www.w3.org/2000/svg"
   xmlns:sodipodi="http://sodipodi.sourceforge.net/DTD/sodipodi-0.dtd"
   xmlns:inkscape="http://www.inkscape.org/namespaces/inkscape"
   version="1.1"
   id="_x30_"
   x="0px"
   y="0px"
   width="1100px"
   height="571.04px"
   viewBox="0 0 1100 571.04"
   style="enable-background:new 0 0 1100 571.04;"
   xml:space="preserve"
   inkscape:version="0.48.2 r9819"
   sodipodi:docname="st-02_sheme.svg"><metadata
   id="metadata1365"><rdf:RDF><cc:Work
       rdf:about=""><dc:format>image/svg+xml</dc:format><dc:type
         rdf:resource="http://purl.org/dc/dcmitype/StillImage" /></cc:Work></rdf:RDF></metadata><defs
   id="defs1363" /><sodipodi:namedview
   pagecolor="#ffffff"
   bordercolor="#666666"
   borderopacity="1"
   objecttolerance="10"
   gridtolerance="10"
   guidetolerance="10"
   inkscape:pageopacity="0"
   inkscape:pageshadow="2"
   inkscape:window-width="1920"
   inkscape:window-height="1137"
   id="namedview1361"
   showgrid="false"
   inkscape:zoom="1.4727273"
   inkscape:cx="577.99471"
   inkscape:cy="325.16393"
   inkscape:window-x="-8"
   inkscape:window-y="-8"
   inkscape:window-maximized="1"
   inkscape:current-layer="g419" />
<style
   type="text/css"
   id="style3">
	.st0{opacity:0.5;fill:none;stroke:#5A8DBE;stroke-width:1.0817;enable-background:new    ;}
	.st1{opacity:0.5;fill:none;stroke:#5A8DBE;stroke-width:0.6;enable-background:new    ;}
	.st2{fill:none;stroke:#5A8DBE;stroke-width:0.35;}
	.st3{fill:none;stroke:#5A8DBE;stroke-width:0.3;}
	.st4{fill:#5A8DBE;}
	.st5{fill:none;stroke:#5A8DBE;stroke-width:0.35;stroke-linecap:round;}
	.st6{fill:none;stroke:#5A8DBE;stroke-width:0.6;}
	.st7{fill:none;stroke:#5A8DBE;stroke-width:0.6;stroke-linecap:round;}
	.st8{opacity:0.5;fill:none;stroke:#5A8DBE;stroke-width:0.35;enable-background:new    ;}
	.st9{fill:none;stroke:#5A8DBE;stroke-width:0.6;stroke-linecap:square;}
	.st10{fill:none;stroke:#598DBF;stroke-width:0.6;}
	.st11{fill:none;stroke:#598DBF;stroke-width:0.35;}
	.st12{fill:none;stroke:#598DBF;stroke-width:0.6;stroke-linecap:square;}
	.st13{fill:none;stroke:#598DBF;stroke-width:0.3;}
	.st14{fill:#598DBF;}
	.st15{fill:none;stroke:#598DBF;stroke-width:0.6;stroke-linecap:round;}
	.st16{fill:none;stroke:#598DBF;stroke-width:0.35;stroke-linecap:round;}
</style>
<path
   class="st0"
   d="M169.23,137.51c-9.22,16.26-18.31,35.01-26.62,56.73"
   id="path5" />
<path
   class="st1"
   d="M327.47,153.75c-13.46,24.59-18.2,34.43-29.09,62.28"
   id="path7" />
<line
   class="st2"
   x1="354.87"
   y1="157.13"
   x2="432.78"
   y2="167.76"
   id="line9" />
<line
   class="st3"
   x1="152.04"
   y1="91.1"
   x2="70.28"
   y2="316.83"
   id="line11" />
<line
   class="st3"
   x1="355.23"
   y1="391.68"
   x2="436.26"
   y2="402.72"
   id="line13" />
<line
   class="st3"
   x1="358.63"
   y1="234.72"
   x2="409.25"
   y2="241.29"
   id="line15" />
<line
   class="st3"
   x1="199.79"
   y1="387.59"
   x2="246.46"
   y2="394.02"
   id="line17" />
<line
   class="st3"
   x1="246.46"
   y1="329.4"
   x2="246.46"
   y2="401.05"
   id="line19" />
<line
   class="st3"
   x1="396.8"
   y1="239.85"
   x2="396.8"
   y2="397.17"
   id="line21" />
<line
   class="st3"
   x1="426.08"
   y1="166.3"
   x2="426.08"
   y2="401.68"
   id="line23" />
<line
   class="st3"
   x1="135.4"
   y1="88.66"
   x2="197.81"
   y2="97.2"
   id="line25" />
<line
   class="st3"
   x1="57.49"
   y1="315.08"
   x2="119.88"
   y2="323.64"
   id="line27" />
<line
   class="st3"
   x1="411.39"
   y1="88.87"
   x2="359.72"
   y2="231.39"
   id="line29" />
<line
   class="st3"
   x1="188.83"
   y1="64.92"
   x2="408.73"
   y2="96.21"
   id="line31" />
<line
   class="st3"
   x1="244.36"
   y1="97.43"
   x2="335.78"
   y2="111.45"
   id="line33" />
<g
   id="XMLID_3_">
	<g
   id="g36">
		<path
   class="st4"
   d="M398.03,387.77l-1.22,9.32h-0.02l-1.2-9.22C395.58,387.8,396.93,389.31,398.03,387.77z"
   id="path38" />
	</g>
</g>
<g
   id="XMLID_4_">
	<g
   id="g41">
		<path
   class="st4"
   d="M427.31,392.28l-1.22,9.32h-0.02l-1.2-9.22C424.86,392.31,426.21,393.82,427.31,392.28z"
   id="path43" />
	</g>
</g>
<g
   id="XMLID_5_">
	<g
   id="g46">
		<path
   class="st4"
   d="M398.09,249.15l-1.22-9.32h-0.02l-1.2,9.2C395.64,249.12,396.99,247.61,398.09,249.15z"
   id="path48" />
	</g>
</g>
<g
   id="XMLID_6_">
	<g
   id="g51">
		<path
   class="st4"
   d="M427.23,176.45l-1.22-9.32H426l-1.2,9.19C424.78,176.38,426.13,174.87,427.23,176.45z"
   id="path53" />
	</g>
</g>
<g
   id="XMLID_9_">
	<g
   id="g56">
		<path
   class="st4"
   d="M253.76,97.67l-9.37-0.24v0.02l8.88,2.63C253.34,100.09,252.09,98.52,253.76,97.67z"
   id="path58" />
	</g>
</g>
<g
   id="XMLID_10_">
	<g
   id="g61">
		<path
   class="st4"
   d="M198.49,65.14l-9.37-0.24v0.02l8.88,2.63C198.05,67.56,196.82,65.99,198.49,65.14z"
   id="path63" />
	</g>
</g>
<g
   id="XMLID_13_">
	<g
   id="g66">
		<path
   class="st4"
   d="M326.4,111.21l9.41,0.23v-0.02l-8.9-2.63C326.85,108.79,328.07,110.35,326.4,111.21z"
   id="path68" />
	</g>
</g>
<g
   id="XMLID_14_">
	<g
   id="g71">
		<path
   class="st4"
   d="M399.23,95.95l9.43,0.24v-0.02l-8.9-2.63C399.7,93.53,400.93,95.09,399.23,95.95z"
   id="path73" />
	</g>
</g>
<g
   id="XMLID_15_">
	<g
   id="g76">
		<path
   class="st4"
   d="M149.94,100.35l2.03-9.15l-4.27,8.23C147.69,99.47,149.44,98.57,149.94,100.35z"
   id="path78" />
	</g>
</g>
<g
   id="XMLID_16_">
	<g
   id="g81">
		<path
   class="st4"
   d="M72.35,307.55l-2.03,9.17h0.02l4.27-8.25C74.63,308.44,72.86,309.32,72.35,307.55z"
   id="path83" />
	</g>
</g>
<line
   class="st1"
   x1="141.81"
   y1="203.99"
   x2="198.46"
   y2="211.99"
   id="line85" />
<line
   class="st1"
   x1="307.78"
   y1="221.25"
   x2="353.6"
   y2="227.54"
   id="line87" />
<path
   class="st1"
   d="M294.88,226.08c5.94-17.4,8.85-24.35,13.28-34.33"
   id="path89" />
<line
   class="st1"
   x1="296.97"
   y1="219.8"
   x2="306.38"
   y2="221.1"
   id="line91" />
<line
   class="st1"
   x1="297.6"
   y1="224.23"
   x2="310.12"
   y2="226.02"
   id="line93" />
<line
   class="st1"
   x1="297.55"
   y1="152.15"
   x2="297.55"
   y2="224.23"
   id="line95" />
<line
   class="st5"
   x1="297.55"
   y1="150.67"
   x2="297.51"
   y2="152.15"
   id="line97" />
<line
   class="st1"
   x1="294.88"
   y1="226.08"
   x2="294.99"
   y2="227.77"
   id="line99" />
<line
   class="st5"
   x1="250.38"
   y1="148.06"
   x2="250.38"
   y2="335.01"
   id="line101" />
<line
   class="st1"
   x1="294.88"
   y1="226.08"
   x2="307.41"
   y2="227.85"
   id="line103" />
<line
   class="st1"
   x1="141.73"
   y1="202.12"
   x2="202.61"
   y2="210.76"
   id="line105" />
<line
   class="st1"
   x1="141.87"
   y1="200.84"
   x2="203.02"
   y2="209.53"
   id="line107" />
<line
   class="st6"
   x1="117.41"
   y1="323.12"
   x2="117.41"
   y2="478.65"
   id="line109" />
<line
   class="st6"
   x1="149.34"
   y1="318.98"
   x2="149.34"
   y2="472.79"
   id="line111" />
<line
   class="st6"
   x1="194.56"
   y1="232.92"
   x2="194.56"
   y2="381.36"
   id="line113" />
<line
   class="st7"
   x1="199.53"
   y1="219.91"
   x2="199.53"
   y2="328.08"
   id="line115" />
<line
   class="st6"
   x1="120.37"
   y1="480.42"
   x2="138.09"
   y2="482.79"
   id="line117" />
<line
   class="st7"
   x1="136.92"
   y1="210.26"
   x2="199.32"
   y2="218.79"
   id="line119" />
<line
   class="st7"
   x1="140.06"
   y1="201.82"
   x2="141.92"
   y2="201.98"
   id="line121" />
<line
   class="st6"
   x1="197.81"
   y1="97.2"
   x2="217.3"
   y2="99.56"
   id="line123" />
<path
   class="st6"
   d="M201.84,212.46c-15.96,41.99-45.19,102.41-59.38,112.45"
   id="path125" />
<path
   class="st6"
   d="M219.15,139.96c2.95-18.93,3.47-29.75,2.89-36.26"
   id="path127" />
<path
   class="st6"
   d="M194.56,241.31c-15.96,41.99-34.28,76.76-44.93,90.67"
   id="path129" />
<path
   class="st6"
   d="M194.56,247.85c-15.96,41.99-31.62,71.11-45.22,90.33"
   id="path131" />
<path
   class="st6"
   d="M194.45,372.27c-15.96,41.99-34.22,73.45-44.99,89.92"
   id="path133" />
<path
   class="st6"
   d="M194.45,365.06c-15.96,41.99-36.13,78.84-45.22,91.48"
   id="path135" />
<line
   class="st8"
   x1="189.32"
   y1="136.61"
   x2="189.32"
   y2="210.81"
   id="line137" />
<path
   class="st6"
   d="M198.41,371.6c-14.79,41.99-41.42,96.47-55.5,108.56"
   id="path139" />
<line
   class="st6"
   x1="120.37"
   y1="323.7"
   x2="139.02"
   y2="326.02"
   id="line141" />
<path
   class="st6"
   d="M142.46,324.92c-1.22,0.89-2.55,1.22-3.44,1.1"
   id="path143" />
<path
   class="st6"
   d="M115.04,318.98c0,2.76,2.69,4.4,5.32,4.72"
   id="path145" />
<path
   class="st6"
   d="M117.41,478.65c0.34,0.84,0.99,1.51,2.95,1.77"
   id="path147" />
<path
   class="st6"
   d="M142.9,480.16c-1.66,1.66-2.78,2.55-4.8,2.63"
   id="path149" />
<path
   class="st2"
   d="M245.58,330.75c0,0.32-1.06,0.6-2.37,0.6"
   id="path151" />
<path
   class="st5"
   d="M245.58,143.27c0-0.32-0.8-0.58-1.77-0.58"
   id="path153" />
<path
   class="st6"
   d="M222.04,103.69c0-2.29-2.11-4.14-4.74-4.14"
   id="path155" />
<path
   class="st6"
   d="M193.09,99.56c1.25-1.41,2.11-2.37,4.72-2.37"
   id="path157" />
<path
   class="st5"
   d="M189.34,136.71c0.02-0.44,0.05-1.67,1.57-1.62"
   id="path159" />
<path
   class="st1"
   d="M209.97,328.59c5.1-21.62,10.86-47.9,10.91-77.62"
   id="path161" />
<path
   class="st1"
   d="M207.52,328.36c3.33-12.42,13.2-49.69,13.34-77.41"
   id="path163" />
<line
   class="st6"
   x1="201.66"
   y1="326.09"
   x2="201.66"
   y2="362.62"
   id="line165" />
<line
   class="st1"
   x1="202.05"
   y1="212.97"
   x2="201.88"
   y2="325.7"
   id="line167" />
<line
   class="st7"
   x1="140.22"
   y1="200.65"
   x2="141.92"
   y2="200.89"
   id="line169" />
<line
   class="st5"
   x1="190.83"
   y1="135.07"
   x2="244.69"
   y2="141.79"
   id="line171" />
<line
   class="st5"
   x1="246.46"
   y1="142.39"
   x2="246.46"
   y2="329.85"
   id="line173" />
<path
   class="st5"
   d="M246.46,142.39c0-0.32-0.8-0.6-1.77-0.6"
   id="path175" />
<line
   class="st5"
   x1="244.36"
   y1="142.72"
   x2="245.79"
   y2="141.94"
   id="line177" />
<line
   class="st5"
   x1="245.24"
   y1="143.06"
   x2="246.46"
   y2="142.39"
   id="line179" />
<line
   class="st2"
   x1="245.58"
   y1="330.75"
   x2="246.46"
   y2="329.85"
   id="line181" />
<path
   class="st1"
   d="M219.72,140.18c-6.8,39.04-11.83,59.17-17.4,74.36"
   id="path183" />
<path
   class="st6"
   d="M219.72,140.18c2.32-13.31,3.39-29.67,2.78-36.93"
   id="path185" />
<line
   class="st1"
   x1="220.86"
   y1="140.36"
   x2="220.86"
   y2="256.87"
   id="line187" />
<path
   class="st1"
   d="M220.86,256.87c-0.58,39.1-4.92,55.4-8.46,72.15"
   id="path189" />
<path
   class="st6"
   d="M207.82,327.26c-1.77,6.43-3.96,13.2-6.17,19.19"
   id="path191" />
<path
   class="st6"
   d="M210.19,327.56c-2.43,9.09-4.67,15.87-8.33,24.64"
   id="path193" />
<path
   class="st6"
   d="M212.66,327.79c-2.99,12.53-7.03,24.64-14.25,43.81"
   id="path195" />
<line
   class="st6"
   x1="220.94"
   y1="133.42"
   x2="220.94"
   y2="140.07"
   id="line197" />
<path
   class="st6"
   d="M222.48,103.26c-0.7-1.95-0.89-2.66-3.55-3.55"
   id="path199" />
<path
   class="st6"
   d="M202.14,213.39c-15.97,41.99-45.12,102.6-59.31,112.65"
   id="path201" />
<line
   class="st6"
   x1="120.74"
   y1="324.82"
   x2="139.39"
   y2="327.16"
   id="line203" />
<path
   class="st6"
   d="M142.83,326.05c-1.22,0.89-2.55,1.22-3.44,1.1"
   id="path205" />
<line
   class="st2"
   x1="199.81"
   y1="326.02"
   x2="243.21"
   y2="331.33"
   id="line207" />
<path
   class="st6"
   d="M115.09,319.71c0.44,2.34,2.43,4.54,5.65,5.11"
   id="path209" />
<line
   class="st6"
   x1="274.16"
   y1="341.85"
   x2="274.16"
   y2="497.38"
   id="line211" />
<line
   class="st6"
   x1="306.09"
   y1="337.71"
   x2="306.09"
   y2="491.52"
   id="line213" />
<line
   class="st9"
   x1="351.31"
   y1="251.65"
   x2="351.31"
   y2="400.09"
   id="line215" />
<line
   class="st6"
   x1="277.12"
   y1="499.15"
   x2="294.86"
   y2="501.52"
   id="line217" />
<line
   class="st9"
   x1="293.67"
   y1="228.99"
   x2="356.07"
   y2="237.72"
   id="line219" />
<line
   class="st9"
   x1="294.15"
   y1="227.84"
   x2="352.65"
   y2="235.97"
   id="line221" />
<line
   class="st9"
   x1="307.41"
   y1="227.85"
   x2="353.6"
   y2="234.49"
   id="line223" />
<line
   class="st7"
   x1="354.56"
   y1="115.93"
   x2="374.07"
   y2="118.29"
   id="line225" />
<path
   class="st7"
   d="M375.92,158.69c2.95-18.93,3.47-29.75,2.89-36.26"
   id="path227" />
<path
   class="st6"
   d="M351.31,260.04c-15.96,41.99-34.28,76.76-44.93,90.65"
   id="path229" />
<path
   class="st6"
   d="M351.31,266.58c-15.96,41.99-31.62,71.11-45.22,90.33"
   id="path231" />
<path
   class="st6"
   d="M351.2,391c-15.96,41.99-34.22,73.45-44.99,89.92"
   id="path233" />
<path
   class="st6"
   d="M351.2,383.79c-15.96,41.99-36.13,78.84-45.22,91.48"
   id="path235" />
<path
   class="st6"
   d="M355.16,390.33c-14.77,41.99-41.41,96.47-55.5,108.56"
   id="path237" />
<line
   class="st6"
   x1="277.12"
   y1="342.43"
   x2="295.79"
   y2="344.77"
   id="line239" />
<path
   class="st6"
   d="M299.21,343.65c-1.22,0.89-2.55,1.22-3.42,1.1"
   id="path241" />
<path
   class="st6"
   d="M271.81,337.71c0,2.76,2.69,4.4,5.32,4.72"
   id="path243" />
<path
   class="st6"
   d="M274.16,497.38c0.34,0.84,1.01,1.51,2.95,1.77"
   id="path245" />
<path
   class="st6"
   d="M299.66,498.89c-1.66,1.66-2.76,2.55-4.8,2.63"
   id="path247" />
<path
   class="st7"
   d="M378.79,122.43c0-2.29-2.11-4.14-4.72-4.14"
   id="path249" />
<path
   class="st7"
   d="M349.84,118.29c1.25-1.41,2.11-2.37,4.72-2.37"
   id="path251" />
<path
   class="st6"
   d="M366.72,347.32c5.1-21.62,10.86-47.9,10.89-77.62"
   id="path253" />
<path
   class="st6"
   d="M364.28,347.09c3.33-12.42,13.2-49.69,13.34-77.41"
   id="path255" />
<line
   class="st6"
   x1="358.41"
   y1="233.5"
   x2="358.41"
   y2="381.68"
   id="line257" />
<line
   class="st7"
   x1="354.87"
   y1="227.77"
   x2="359.8"
   y2="228.45"
   id="line259" />
<path
   class="st7"
   d="M376.47,158.92c2.34-13.31,3.41-29.67,2.78-36.93"
   id="path261" />
<line
   class="st6"
   x1="377.61"
   y1="152"
   x2="377.61"
   y2="275.61"
   id="line263" />
<path
   class="st6"
   d="M377.61,275.61c-0.58,39.1-4.92,55.42-8.46,72.15"
   id="path265" />
<path
   class="st6"
   d="M364.28,347.09c-1.77,6.43-3.65,12.08-5.88,18.07"
   id="path267" />
<path
   class="st6"
   d="M366.72,347.32c-2.43,9.09-4.43,14.85-8.08,23.62"
   id="path269" />
<path
   class="st6"
   d="M369.15,347.76c-2.99,12.53-6.77,23.39-14.01,42.58"
   id="path271" />
<path
   class="st7"
   d="M379.25,121.99c-0.7-1.95-0.89-2.66-3.55-3.55"
   id="path273" />
<line
   class="st6"
   x1="277.49"
   y1="343.55"
   x2="296.16"
   y2="345.89"
   id="line275" />
<path
   class="st6"
   d="M299.58,344.77c-1.22,0.89-2.55,1.22-3.42,1.1"
   id="path277" />
<path
   class="st6"
   d="M271.84,338.44c0.44,2.32,2.43,4.54,5.65,5.11"
   id="path279" />
<line
   class="st5"
   x1="250.99"
   y1="147.39"
   x2="304.86"
   y2="154.11"
   id="line281" />
<path
   class="st5"
   d="M306.63,154.7c0-0.32-0.8-0.58-1.77-0.58"
   id="path283" />
<path
   class="st5"
   d="M250.32,148.06c0-0.37,0.29-0.67,0.67-0.67"
   id="path285" />
<line
   class="st5"
   x1="251.88"
   y1="146.5"
   x2="305.75"
   y2="153.22"
   id="line287" />
<path
   class="st5"
   d="M307.52,153.82c0-0.32-0.8-0.58-1.77-0.58"
   id="path289" />
<line
   class="st5"
   x1="250.43"
   y1="147.39"
   x2="251.88"
   y2="146.5"
   id="line291" />
<line
   class="st5"
   x1="305.41"
   y1="154.14"
   x2="306.86"
   y2="153.36"
   id="line293" />
<line
   class="st5"
   x1="306.3"
   y1="154.48"
   x2="307.52"
   y2="153.82"
   id="line295" />
<line
   class="st2"
   x1="251.33"
   y1="336.15"
   x2="271.81"
   y2="338.8"
   id="line297" />
<path
   class="st2"
   d="M250.43,335.01c0,0.19,0.39,1.14,0.89,1.14"
   id="path299" />
<path
   class="st9"
   d="M271.81,337.71c3.55-40.92,11.44-80.4,22.33-109.86"
   id="path301" />
<line
   class="st5"
   x1="189.94"
   y1="135.95"
   x2="243.79"
   y2="142.68"
   id="line303" />
<path
   class="st6"
   d="M358.55,232.59C342,273.4,313.45,333.42,299.26,343.47"
   id="path305" />
<path
   class="st7"
   d="M375.95,158.51c-6.8,39.04-12.63,59.77-17.66,74.85"
   id="path307" />
<path
   class="st7"
   d="M376.51,158.72c-6.8,39.04-12.86,60.92-17.87,76"
   id="path309" />
<path
   class="st6"
   d="M358.63,234.72c-16.65,40.17-44.82,99.81-59,109.87"
   id="path311" />
<line
   class="st5"
   x1="298.22"
   y1="150"
   x2="352.09"
   y2="156.72"
   id="line313" />
<line
   class="st5"
   x1="353.86"
   y1="157.32"
   x2="353.86"
   y2="231.94"
   id="line315" />
<path
   class="st5"
   d="M353.86,157.32c0-0.32-0.8-0.58-1.77-0.58"
   id="path317" />
<path
   class="st5"
   d="M297.55,150.67c0-0.37,0.29-0.67,0.67-0.67"
   id="path319" />
<line
   class="st5"
   x1="299.11"
   y1="149.11"
   x2="352.97"
   y2="155.85"
   id="line321" />
<line
   class="st5"
   x1="354.76"
   y1="156.43"
   x2="354.76"
   y2="230.35"
   id="line323" />
<path
   class="st5"
   d="M354.76,156.43c0-0.32-0.8-0.58-1.77-0.58"
   id="path325" />
<line
   class="st5"
   x1="297.67"
   y1="150"
   x2="299.11"
   y2="149.11"
   id="line327" />
<line
   class="st5"
   x1="352.65"
   y1="156.77"
   x2="354.07"
   y2="155.99"
   id="line329" />
<line
   class="st5"
   x1="353.52"
   y1="157.1"
   x2="354.76"
   y2="156.43"
   id="line331" />
<line
   class="st9"
   x1="352.65"
   y1="235.97"
   x2="353.6"
   y2="234.49"
   id="line333" />
<line
   class="st9"
   x1="353.86"
   y1="231.94"
   x2="354.76"
   y2="230.35"
   id="line335" />
<line
   class="st9"
   x1="307.41"
   y1="225.68"
   x2="353.6"
   y2="232.32"
   id="line337" />
<line
   class="st7"
   x1="139.15"
   y1="203.49"
   x2="141.97"
   y2="203.86"
   id="line339" />
<line
   class="st2"
   x1="141.92"
   y1="134.05"
   x2="141.92"
   y2="207.9"
   id="line341" />
<line
   class="st5"
   x1="142.61"
   y1="133.67"
   x2="196.46"
   y2="140.39"
   id="line343" />
<line
   class="st5"
   x1="198.23"
   y1="140.98"
   x2="198.36"
   y2="215.89"
   id="line345" />
<path
   class="st5"
   d="M198.23,140.98c0-0.32-0.8-0.58-1.77-0.58"
   id="path347" />
<path
   class="st2"
   d="M141.94,134.34c0-0.37,0.29-0.67,0.67-0.67"
   id="path349" />
<line
   class="st5"
   x1="143.48"
   y1="132.78"
   x2="197.36"
   y2="139.5"
   id="line351" />
<line
   class="st5"
   x1="199.12"
   y1="140.1"
   x2="199.12"
   y2="214.02"
   id="line353" />
<path
   class="st5"
   d="M199.12,140.1c0-0.32-0.8-0.58-1.77-0.58"
   id="path355" />
<line
   class="st2"
   x1="142.05"
   y1="133.67"
   x2="143.48"
   y2="132.78"
   id="line357" />
<line
   class="st5"
   x1="197.01"
   y1="140.43"
   x2="198.46"
   y2="139.65"
   id="line359" />
<line
   class="st5"
   x1="197.91"
   y1="140.77"
   x2="199.12"
   y2="140.1"
   id="line361" />
<line
   class="st7"
   x1="198.36"
   y1="215.89"
   x2="199.12"
   y2="214.02"
   id="line363" />
<line
   class="st7"
   x1="141.92"
   y1="207.9"
   x2="198.12"
   y2="216.25"
   id="line365" />
<line
   class="st2"
   x1="189.32"
   y1="135.95"
   x2="189.32"
   y2="138.43"
   id="line367" />
<line
   class="st7"
   x1="198.46"
   y1="211.99"
   x2="201.84"
   y2="212.46"
   id="line369" />
<line
   class="st5"
   x1="306.63"
   y1="154.7"
   x2="306.63"
   y2="229.33"
   id="line371" />
<line
   class="st5"
   x1="307.52"
   y1="153.82"
   x2="307.52"
   y2="229.51"
   id="line373" />
<path
   class="st7"
   d="M349.84,118.29c-8.72,12.77-15.44,23.11-21.83,34.51"
   id="path375" />
<path
   class="st6"
   d="M193.09,99.56c-9.85,14.06-16.65,25.14-22.97,36.39"
   id="path377" />
<path
   class="st7"
   d="M141.73,196.52c-13.44,35.95-23.83,80.69-26.69,122.45"
   id="path379" />
<line
   class="st3"
   x1="192.1"
   y1="56.35"
   x2="139.63"
   y2="202.14"
   id="line381" />
<line
   class="st3"
   x1="247.35"
   y1="88.27"
   x2="201.88"
   y2="213.36"
   id="line383" />
<line
   class="st3"
   x1="339.14"
   y1="102.95"
   x2="294.88"
   y2="226.08"
   id="line385" />
<line
   class="st3"
   x1="199.79"
   y1="326.57"
   x2="199.79"
   y2="394.68"
   id="line387" />
<g
   id="XMLID_7_">
	<g
   id="g390">
		<path
   class="st4"
   d="M236.99,393.76l9.38,0.23v-0.02l-8.93-2.63C237.42,391.34,238.67,392.9,236.99,393.76z"
   id="path392" />
	</g>
</g>
<g
   id="XMLID_8_">
	<g
   id="g395">
		<path
   class="st4"
   d="M209.29,387.83l-9.38-0.23v0.02l8.93,2.63C208.86,390.27,207.63,388.69,209.29,387.83z"
   id="path397" />
	</g>
</g>
<g
   id="g399">
	<path
   class="st4"
   d="M97.53,208.21l-0.45,1.27l-0.68-0.73l0.58-1.66l7.94,2.82l-0.29,0.83L97.53,208.21z"
   id="path401" />
	<path
   class="st4"
   d="M105.81,206.52l-1.92-2.63c0,0.24-0.05,0.47-0.13,0.7c-0.52,1.44-2.01,2.03-3.49,1.49   c-1.59-0.57-2.34-2.06-1.8-3.55c0.63-1.77,2.39-2.08,3.64-1.64c0.29,0.11,0.97,0.41,1.59,1.27l2.82,3.9L105.81,206.52z    M100.55,205.26c1.06,0.37,2.09-0.1,2.47-1.12s-0.18-2.03-1.2-2.4c-1.06-0.37-2.14,0.03-2.52,1.09   C98.91,203.86,99.48,204.87,100.55,205.26z"
   id="path403" />
	<path
   class="st4"
   d="M107.72,202.06l-2.37-3.93c-0.16-0.28-0.62-1.01-0.84-1.28c-0.39-0.52-0.75-0.73-1.07-0.84   c-0.89-0.32-1.77,0.06-2.08,0.94c-0.19,0.54-0.1,1.06,0.26,1.49c0.18,0.23,0.45,0.42,0.84,0.58l-0.29,0.83   c-0.78-0.32-1.18-0.73-1.44-1.15c-0.28-0.45-0.5-1.14-0.18-2.06c0.47-1.33,1.83-1.96,3.2-1.48c0.54,0.19,0.97,0.52,1.49,1.2   c0.36,0.49,0.7,1.06,0.96,1.49l1.31,2.24l1.14-3.18l0.81,0.29L107.72,202.06z"
   id="path405" />
	<path
   class="st4"
   d="M104.02,193.55c-0.44-0.18-0.8-0.45-1.04-0.76c-0.65-0.8-0.47-1.62-0.31-2.08c0.5-1.41,1.8-1.75,2.89-1.35   c0.57,0.21,1.28,0.68,1.41,1.59c0.19-0.23,0.93-0.89,2.3-0.41c1.49,0.54,2.03,1.88,1.57,3.17c-0.28,0.78-0.94,1.57-2.11,1.61   c-0.32,0.02-0.6-0.03-0.89-0.13l0.29-0.83c0.29,0.06,0.63,0.08,0.89,0.02c0.47-0.11,0.84-0.47,1.01-0.94   c0.29-0.83-0.19-1.74-1.07-2.05c-0.45-0.16-1.12-0.21-1.59,0.28c-0.19,0.19-0.37,0.5-0.47,0.8l-0.78-0.28   c0.13-0.29,0.18-0.63,0.15-0.91c-0.05-0.29-0.24-0.8-0.96-1.06c-0.7-0.24-1.49-0.13-1.82,0.8c-0.11,0.31-0.18,0.7,0.11,1.14   c0.15,0.21,0.41,0.45,0.73,0.58L104.02,193.55z"
   id="path407" />
</g>
<g
   id="g409">
	<path
   class="st4"
   d="M386.05,315.76v1.35l-0.88-0.47v-1.75h8.42v0.88H386.05z"
   id="path411" />
	<path
   class="st4"
   d="M392.48,311.56c-0.81,0.52-1.9,0.8-3.1,0.8s-2.29-0.28-3.1-0.8c-0.93-0.62-1.27-1.41-1.27-2.05   s0.32-1.43,1.27-2.05c0.81-0.52,1.9-0.8,3.1-0.8s2.29,0.28,3.1,0.8c0.93,0.62,1.27,1.41,1.27,2.05S393.42,310.94,392.48,311.56z    M386.83,310.88c0.71,0.44,1.67,0.58,2.56,0.58c0.88,0,1.85-0.16,2.56-0.58c0.71-0.42,0.94-0.97,0.94-1.38s-0.23-0.96-0.94-1.38   c-0.71-0.44-1.67-0.58-2.56-0.58c-0.89,0-1.85,0.16-2.56,0.58c-0.71,0.42-0.94,0.97-0.94,1.38   C385.89,309.92,386.12,310.47,386.83,310.88z"
   id="path413" />
	<path
   class="st4"
   d="M393.6,305.52l-3.55-2.91c-0.24-0.21-0.93-0.75-1.22-0.93c-0.54-0.36-0.94-0.44-1.28-0.44   c-0.94,0-1.64,0.65-1.64,1.59c0,0.57,0.26,1.02,0.75,1.33c0.24,0.16,0.57,0.24,0.99,0.26v0.86c-0.84-0.03-1.36-0.29-1.74-0.6   c-0.41-0.34-0.86-0.89-0.86-1.88c0-1.41,1.06-2.47,2.52-2.47c0.57,0,1.09,0.16,1.8,0.63c0.49,0.34,1.01,0.76,1.4,1.09l1.98,1.66   v-3.38h0.86L393.6,305.52L393.6,305.52z"
   id="path415" />
	<path
   class="st4"
   d="M386.05,297.92v1.35l-0.88-0.47v-1.75h8.42v0.88L386.05,297.92L386.05,297.92z"
   id="path417" />
</g>
<g
   id="g419">
	<path
   class="st4"
   d="M415.19,313.54v1.35l-0.88-0.47v-1.75h8.42v0.88H415.19z"
   id="path421" />
	<path
   class="st4"
   d="M420.27,306.2v-0.97h0.86v0.97h1.59v0.89h-1.59v4.09l-7.3-4.98L420.27,306.2L420.27,306.2z M420.27,307.1   h-3.72l3.72,2.53V307.1z"
   id="path423" />
	<path
   class="st4"
   d="m 422.72,296.73648 -3.55,-2.91 c -0.24,-0.21 -0.93,-0.75 -1.22,-0.93 -0.54,-0.36 -0.94,-0.44 -1.28,-0.44 -0.94,0 -1.64,0.65 -1.64,1.59 0,0.57 0.26,1.02 0.75,1.33 0.24,0.16 0.57,0.24 0.99,0.26 v 0.88 c -0.84,-0.03 -1.36,-0.29 -1.74,-0.6 -0.41,-0.34 -0.86,-0.89 -0.86,-1.88 0,-1.41 1.06,-2.47 2.52,-2.47 0.57,0 1.09,0.16 1.8,0.63 0.49,0.34 1.01,0.76 1.4,1.09 l 1.98,1.66 v -3.38 h 0.86 l -0.01,5.17 0,0 z"
   id="path425"
   inkscape:connector-curvature="0"
   style="fill:#5a8dbe" />
	<path
   class="st4"
   d="m 420.4,298.66185 c 1.31,0 2.47,0.81 2.47,2.43 0,1.62 -1.17,2.43 -2.47,2.43 -0.91,0 -1.67,-0.39 -2.06,-1.2 -0.39,0.63 -1.06,0.97 -1.85,0.97 -1.2,0 -2.34,-0.76 -2.34,-2.21 0,-1.43 1.14,-2.21 2.34,-2.21 0.78,0 1.46,0.34 1.85,0.97 0.39,-0.8 1.15,-1.18 2.06,-1.18 z m -3.9,1.07 c -0.93,0 -1.49,0.63 -1.49,1.36 0,0.73 0.57,1.36 1.49,1.36 0.83,0 1.44,-0.58 1.44,-1.36 0.02,-0.78 -0.59,-1.36 -1.44,-1.36 z m 3.86,-0.2 c -0.94,0 -1.61,0.65 -1.61,1.56 0,0.91 0.65,1.56 1.61,1.56 0.96,0 1.64,-0.63 1.64,-1.56 0.02,-0.93 -0.66,-1.56 -1.64,-1.56 z"
   id="path427"
   inkscape:connector-curvature="0"
   style="fill:#5a8dbe" />
</g>
<path
   class="st10"
   d="M779.92,154.34c-13.26,24.22-17.94,33.92-28.67,61.34"
   id="path429" />
<line
   class="st11"
   x1="752.58"
   y1="151.04"
   x2="752.58"
   y2="224.48"
   id="line431" />
<line
   class="st11"
   x1="753.3"
   y1="150.82"
   x2="753.3"
   y2="223.91"
   id="line433" />
<line
   class="st10"
   x1="752.86"
   y1="224.51"
   x2="760.91"
   y2="225.6"
   id="line435" />
<line
   class="st10"
   x1="655.27"
   y1="218"
   x2="655.27"
   y2="322.26"
   id="line437" />
<line
   class="st11"
   x1="706.08"
   y1="331.25"
   x2="706.84"
   y2="332.35"
   id="line439" />
<path
   class="st10"
   d="M748.18,225.09c5.86-17.14,9.33-25.16,13.72-35"
   id="path441" />
<path
   class="st12"
   d="M726.06,333.86c3.49-40.3,11.38-79.75,22.11-108.77"
   id="path443" />
<path
   class="st10"
   d="M902.99,243.32c5.86-17.14,8.93-24.12,13.29-33.96"
   id="path445" />
<line
   class="st10"
   x1="750.86"
   y1="217.74"
   x2="762"
   y2="219.27"
   id="line447" />
<line
   class="st10"
   x1="749.98"
   y1="219.7"
   x2="761.88"
   y2="221.34"
   id="line449" />
<line
   class="st10"
   x1="882.78"
   y1="357.2"
   x2="882.78"
   y2="510.42"
   id="line451" />
<line
   class="st10"
   x1="886.85"
   y1="358.96"
   x2="886.85"
   y2="512.15"
   id="line453" />
<line
   class="st10"
   x1="903.16"
   y1="361.29"
   x2="903.16"
   y2="514.49"
   id="line455" />
<line
   class="st10"
   x1="909.58"
   y1="358.37"
   x2="909.58"
   y2="510.32"
   id="line457" />
<line
   class="st10"
   x1="914.23"
   y1="353.13"
   x2="914.23"
   y2="504.64"
   id="line459" />
<line
   class="st10"
   x1="958.79"
   y1="268.37"
   x2="958.79"
   y2="414.58"
   id="line461" />
<line
   class="st10"
   x1="885.68"
   y1="512.15"
   x2="903.16"
   y2="514.49"
   id="line463" />
<line
   class="st10"
   x1="902"
   y1="246.05"
   x2="963.48"
   y2="254.46"
   id="line465" />
<line
   class="st10"
   x1="961.99"
   y1="134.68"
   x2="981.22"
   y2="137.02"
   id="line467" />
<path
   class="st10"
   d="M965.49,249.44c-15.73,41.36-44.05,99.65-58.03,109.55"
   id="path469" />
<path
   class="st10"
   d="M983.04,176.8c2.91-18.63,3.42-29.31,2.84-35.71"
   id="path471" />
<path
   class="st10"
   d="M958.79,276.63c-15.73,41.36-33.78,75.61-44.26,89.31"
   id="path473" />
<path
   class="st10"
   d="M958.79,283.07c-15.73,41.36-31.17,70.04-44.56,88.98"
   id="path475" />
<path
   class="st10"
   d="M958.68,405.62c-15.73,41.36-33.71,72.35-44.35,88.58"
   id="path477" />
<path
   class="st10"
   d="M958.68,398.53c-15.73,41.36-35.61,77.65-44.56,90.1"
   id="path479" />
<path
   class="st10"
   d="M962.59,404.97c-14.56,41.36-40.81,95.02-54.69,106.94"
   id="path481" />
<line
   class="st10"
   x1="885.68"
   y1="357.79"
   x2="904.07"
   y2="360.08"
   id="line483" />
<path
   class="st10"
   d="M907.47,358.99c-1.2,0.88-2.52,1.2-3.39,1.09"
   id="path485" />
<path
   class="st10"
   d="M880.44,353.13c0,2.71,2.66,4.33,5.24,4.66"
   id="path487" />
<path
   class="st10"
   d="M882.78,510.42c0.32,0.84,0.99,1.49,2.91,1.75"
   id="path489" />
<path
   class="st10"
   d="M907.9,511.89c-1.64,1.64-2.73,2.52-4.74,2.58"
   id="path491" />
<path
   class="st10"
   d="M985.88,141.09c0-2.26-2.08-4.07-4.66-4.07"
   id="path493" />
<path
   class="st10"
   d="M957.33,137.02c1.23-1.38,2.08-2.34,4.66-2.34"
   id="path495" />
<path
   class="st10"
   d="M973.97,362.59c5.03-21.3,10.7-47.19,10.75-76.45"
   id="path497" />
<path
   class="st10"
   d="M971.57,362.38c3.28-12.24,13-48.94,13.15-76.24"
   id="path499" />
<line
   class="st10"
   x1="965.79"
   y1="248.74"
   x2="965.79"
   y2="396.45"
   id="line501" />
<path
   class="st10"
   d="M983.04,176.8c-6.7,38.45-11.43,56.32-16.38,71.18"
   id="path503" />
<path
   class="st10"
   d="M983.59,177.03c-6.7,38.45-11.83,57.41-16.78,72.26"
   id="path505" />
<path
   class="st10"
   d="M983.59,177.03c2.29-13.1,3.34-29.23,2.73-36.38"
   id="path507" />
<line
   class="st10"
   x1="984.71"
   y1="170.21"
   x2="984.71"
   y2="291.97"
   id="line509" />
<path
   class="st10"
   d="M984.71,291.97c-0.58,38.52-4.84,54.57-8.34,71.06"
   id="path511" />
<path
   class="st10"
   d="M971.57,362.38c-1.75,6.33-3.6,11.9-5.79,17.81"
   id="path513" />
<path
   class="st10"
   d="M973.97,362.59c-2.4,8.96-4.37,14.64-7.97,23.26"
   id="path515" />
<path
   class="st10"
   d="M976.37,363.03c-2.95,12.34-6.66,23.05-13.8,41.94"
   id="path517" />
<line
   class="st10"
   x1="966.66"
   y1="247.8"
   x2="966.66"
   y2="249.44"
   id="line519" />
<line
   class="st10"
   x1="966.76"
   y1="248.79"
   x2="965.79"
   y2="248.74"
   id="line521" />
<path
   class="st10"
   d="M986.32,140.65c-0.7-1.93-0.88-2.61-3.49-3.49"
   id="path523" />
<path
   class="st10"
   d="M965.85,250.56c-15.73,41.36-44.05,99.65-58.03,109.55"
   id="path525" />
<line
   class="st10"
   x1="886.06"
   y1="358.91"
   x2="904.43"
   y2="361.2"
   id="line527" />
<path
   class="st10"
   d="M907.82,360.11c-1.2,0.88-2.52,1.2-3.39,1.09"
   id="path529" />
<line
   class="st10"
   x1="965.67"
   y1="249.65"
   x2="965.67"
   y2="251.29"
   id="line531" />
<path
   class="st10"
   d="M880.49,353.86c0.44,2.29,2.4,4.48,5.57,5.05"
   id="path533" />
<line
   class="st11"
   x1="706.4"
   y1="332.03"
   x2="726.06"
   y2="334.5"
   id="line535" />
<line
   class="st10"
   x1="728.4"
   y1="337.95"
   x2="728.4"
   y2="491.15"
   id="line537" />
<line
   class="st10"
   x1="732.47"
   y1="339.69"
   x2="732.47"
   y2="492.9"
   id="line539" />
<line
   class="st10"
   x1="748.78"
   y1="342.03"
   x2="748.78"
   y2="495.22"
   id="line541" />
<line
   class="st10"
   x1="755.18"
   y1="339.11"
   x2="755.18"
   y2="491.07"
   id="line543" />
<line
   class="st10"
   x1="759.85"
   y1="333.86"
   x2="759.85"
   y2="485.39"
   id="line545" />
<line
   class="st10"
   x1="804.41"
   y1="249.12"
   x2="804.41"
   y2="395.33"
   id="line547" />
<line
   class="st10"
   x1="809.07"
   y1="238.05"
   x2="809.07"
   y2="344.06"
   id="line549" />
<line
   class="st10"
   x1="731.3"
   y1="492.9"
   x2="748.78"
   y2="495.22"
   id="line551" />
<line
   class="st10"
   x1="747.61"
   y1="226.8"
   x2="809.1"
   y2="235.21"
   id="line553" />
<line
   class="st10"
   x1="807.61"
   y1="115.43"
   x2="826.84"
   y2="117.75"
   id="line555" />
<path
   class="st10"
   d="M810.06,232.71c-15.4,39.54-43,97.13-56.97,107.03"
   id="path557" />
<path
   class="st10"
   d="M828.66,157.55c2.91-18.63,3.42-29.31,2.84-35.71"
   id="path559" />
<path
   class="st10"
   d="M804.41,257.38c-15.73,41.36-33.78,75.61-44.26,89.31"
   id="path561" />
<path
   class="st10"
   d="M804.41,263.82c-15.73,41.36-31.17,70.04-44.56,88.97"
   id="path563" />
<path
   class="st10"
   d="M804.3,386.37c-15.73,41.36-33.71,72.35-44.35,88.58"
   id="path565" />
<path
   class="st10"
   d="M804.3,379.26c-15.73,41.36-35.61,77.65-44.56,90.1"
   id="path567" />
<path
   class="st10"
   d="M808.19,385.71c-14.56,41.36-40.81,95.02-54.69,106.94"
   id="path569" />
<line
   class="st10"
   x1="731.3"
   y1="338.54"
   x2="749.69"
   y2="340.83"
   id="line571" />
<path
   class="st10"
   d="M753.07,339.74c-1.2,0.88-2.52,1.2-3.39,1.09"
   id="path573" />
<path
   class="st10"
   d="M726.06,333.86c0,2.71,2.66,4.33,5.24,4.66"
   id="path575" />
<path
   class="st10"
   d="M728.4,491.15c0.32,0.84,0.99,1.49,2.91,1.75"
   id="path577" />
<path
   class="st10"
   d="M753.51,492.64c-1.64,1.64-2.73,2.52-4.74,2.58"
   id="path579" />
<path
   class="st10"
   d="M831.5,121.84c0-2.26-2.08-4.07-4.66-4.07"
   id="path581" />
<path
   class="st10"
   d="M802.95,117.75c1.23-1.38,2.08-2.34,4.66-2.34"
   id="path583" />
<path
   class="st10"
   d="M819.59,343.34c5.03-21.3,10.7-47.19,10.75-76.47"
   id="path585" />
<path
   class="st10"
   d="M817.18,343.11c3.28-12.24,13-48.94,13.15-76.24"
   id="path587" />
<line
   class="st10"
   x1="811.41"
   y1="342.63"
   x2="811.41"
   y2="376.86"
   id="line589" />
<line
   class="st10"
   x1="811.39"
   y1="229.98"
   x2="811.41"
   y2="342.24"
   id="line591" />
<path
   class="st10"
   d="M828.66,157.55c-6.7,38.44-11.43,56.32-16.38,71.18"
   id="path593" />
<line
   class="st10"
   x1="809.54"
   y1="342.14"
   x2="809.54"
   y2="343.34"
   id="line595" />
<line
   class="st10"
   x1="809.1"
   y1="343.78"
   x2="809.54"
   y2="343.34"
   id="line597" />
<path
   class="st10"
   d="M829.2,157.76c-6.7,38.44-11.83,57.41-16.78,72.26"
   id="path599" />
<path
   class="st10"
   d="M829.2,157.76c2.29-13.1,3.34-29.23,2.73-36.38"
   id="path601" />
<line
   class="st10"
   x1="830.33"
   y1="157.96"
   x2="830.33"
   y2="272.7"
   id="line603" />
<path
   class="st10"
   d="M830.33,272.7c-0.58,38.52-4.84,54.57-8.34,71.06"
   id="path605" />
<path
   class="st10"
   d="M817.18,343.11c-1.75,6.33-3.6,11.9-5.79,17.81"
   id="path607" />
<path
   class="st10"
   d="M819.59,343.34c-2.4,8.96-4.37,14.64-7.97,23.26"
   id="path609" />
<path
   class="st10"
   d="M821.99,343.78c-2.95,12.34-6.66,23.05-13.8,41.94"
   id="path611" />
<line
   class="st10"
   x1="812.27"
   y1="228.55"
   x2="812.27"
   y2="230.19"
   id="line613" />
<line
   class="st10"
   x1="812.31"
   y1="229.96"
   x2="811.5"
   y2="229.9"
   id="line615" />
<line
   class="st10"
   x1="830.4"
   y1="151.11"
   x2="830.4"
   y2="157.67"
   id="line617" />
<path
   class="st10"
   d="M831.94,121.4c-0.7-1.93-0.88-2.61-3.49-3.49"
   id="path619" />
<path
   class="st10"
   d="M810.06,234.67c-15.61,40.42-42.64,96.27-56.62,106.17"
   id="path621" />
<line
   class="st10"
   x1="731.67"
   y1="339.64"
   x2="750.05"
   y2="341.93"
   id="line623" />
<path
   class="st10"
   d="M753.44,340.84c-1.2,0.88-2.52,1.2-3.39,1.09"
   id="path625" />
<line
   class="st10"
   x1="811.29"
   y1="230.4"
   x2="811.29"
   y2="232.04"
   id="line627" />
<line
   class="st10"
   x1="809.57"
   y1="236.8"
   x2="809.54"
   y2="341.38"
   id="line629" />
<path
   class="st10"
   d="M726.09,334.59c0.44,2.29,2.4,4.48,5.57,5.05"
   id="path631" />
<line
   class="st11"
   x1="706.08"
   y1="146.56"
   x2="759.16"
   y2="153.19"
   id="line633" />
<path
   class="st11"
   d="M760.91,153.77c0-0.32-0.78-0.58-1.75-0.58"
   id="path635" />
<path
   class="st11"
   d="M705.41,147.21c0-0.36,0.29-0.65,0.65-0.65"
   id="path637" />
<line
   class="st11"
   x1="706.95"
   y1="145.69"
   x2="760.03"
   y2="152.31"
   id="line639" />
<path
   class="st11"
   d="M761.77,152.89c0-0.32-0.78-0.58-1.75-0.58"
   id="path641" />
<line
   class="st11"
   x1="705.53"
   y1="146.56"
   x2="706.95"
   y2="145.69"
   id="line643" />
<line
   class="st11"
   x1="759.71"
   y1="153.23"
   x2="761.12"
   y2="152.46"
   id="line645" />
<line
   class="st11"
   x1="760.57"
   y1="153.56"
   x2="761.77"
   y2="152.89"
   id="line647" />
<line
   class="st11"
   x1="706.08"
   y1="146.73"
   x2="706.17"
   y2="331.62"
   id="line649" />
<line
   class="st11"
   x1="706.4"
   y1="332.5"
   x2="725.95"
   y2="334.93"
   id="line651" />
<path
   class="st11"
   d="M705.53,331.38c0,0.19,0.39,1.12,0.88,1.12"
   id="path653" />
<line
   class="st10"
   x1="747.61"
   y1="226.8"
   x2="809.1"
   y2="235.21"
   id="line655" />
<path
   class="st12"
   d="M880.44,353.13c3.49-40.3,11.8-80.79,22.53-109.81"
   id="path657" />
<line
   class="st10"
   x1="810.06"
   y1="232.71"
   x2="810.06"
   y2="234.83"
   id="line659" />
<line
   class="st10"
   x1="810.71"
   y1="231.07"
   x2="810.71"
   y2="233.19"
   id="line661" />
<line
   class="st10"
   x1="810.53"
   y1="231.28"
   x2="811.15"
   y2="229.96"
   id="line663" />
<line
   class="st10"
   x1="810.82"
   y1="233.03"
   x2="811.36"
   y2="231.72"
   id="line665" />
<line
   class="st10"
   x1="810.71"
   y1="233.19"
   x2="810.27"
   y2="233.03"
   id="line667" />
<line
   class="st10"
   x1="574.11"
   y1="318.85"
   x2="574.11"
   y2="472.04"
   id="line669" />
<line
   class="st10"
   x1="578.19"
   y1="320.58"
   x2="578.19"
   y2="473.78"
   id="line671" />
<line
   class="st10"
   x1="594.5"
   y1="322.92"
   x2="594.5"
   y2="476.12"
   id="line673" />
<line
   class="st10"
   x1="600.91"
   y1="320"
   x2="600.91"
   y2="471.95"
   id="line675" />
<line
   class="st10"
   x1="605.57"
   y1="314.76"
   x2="605.57"
   y2="466.27"
   id="line677" />
<line
   class="st10"
   x1="650.13"
   y1="230.01"
   x2="650.13"
   y2="376.21"
   id="line679" />
<line
   class="st10"
   x1="654.8"
   y1="218.94"
   x2="654.8"
   y2="324.95"
   id="line681" />
<line
   class="st10"
   x1="577.03"
   y1="473.78"
   x2="594.5"
   y2="476.12"
   id="line683" />
<line
   class="st10"
   x1="593.33"
   y1="207.69"
   x2="654.83"
   y2="216.1"
   id="line685" />
<line
   class="st10"
   x1="653.34"
   y1="96.33"
   x2="672.56"
   y2="98.65"
   id="line687" />
<path
   class="st10"
   d="M656.83,211.07c-15.73,41.36-44.05,99.65-58.03,109.55"
   id="path689" />
<path
   class="st10"
   d="M674.38,138.45c2.91-18.63,3.42-29.31,2.84-35.71"
   id="path691" />
<path
   class="st10"
   d="M650.13,238.27c-15.73,41.36-33.78,75.61-44.26,89.31"
   id="path693" />
<path
   class="st10"
   d="M650.13,244.72c-15.73,41.36-31.17,70.04-44.56,88.97"
   id="path695" />
<path
   class="st10"
   d="M650.03,367.27c-15.73,41.36-33.71,72.35-44.35,88.58"
   id="path697" />
<path
   class="st10"
   d="M650.03,360.16c-15.73,41.36-35.61,77.65-44.56,90.1"
   id="path699" />
<path
   class="st10"
   d="M653.92,366.6c-14.56,41.36-40.81,95.02-54.69,106.94"
   id="path701" />
<line
   class="st10"
   x1="577.03"
   y1="319.42"
   x2="595.41"
   y2="321.72"
   id="line703" />
<path
   class="st10"
   d="M598.8,320.62c-1.2,0.88-2.52,1.2-3.39,1.09"
   id="path705" />
<path
   class="st10"
   d="M571.79,314.76c0,2.71,2.66,4.33,5.24,4.66"
   id="path707" />
<path
   class="st10"
   d="M574.11,472.04c0.32,0.84,0.99,1.49,2.91,1.75"
   id="path709" />
<path
   class="st10"
   d="M599.24,473.54c-1.64,1.64-2.73,2.52-4.74,2.58"
   id="path711" />
<path
   class="st10"
   d="M677.22,102.72c0-2.26-2.08-4.07-4.66-4.07"
   id="path713" />
<path
   class="st10"
   d="M648.68,98.65c1.23-1.38,2.08-2.34,4.66-2.34"
   id="path715" />
<path
   class="st10"
   d="M665.32,324.22c5.03-21.3,10.7-47.19,10.75-76.45"
   id="path717" />
<path
   class="st10"
   d="M662.92,324.01c3.28-12.24,13-48.92,13.15-76.24"
   id="path719" />
<line
   class="st10"
   x1="657.12"
   y1="323.51"
   x2="657.12"
   y2="357.76"
   id="line721" />
<line
   class="st10"
   x1="657.12"
   y1="209.51"
   x2="657.12"
   y2="323.13"
   id="line723" />
<path
   class="st10"
   d="M674.38,138.45c-6.7,38.44-11.43,56.32-16.38,71.18"
   id="path725" />
<line
   class="st10"
   x1="655.27"
   y1="323.02"
   x2="655.27"
   y2="324.22"
   id="line727" />
<line
   class="st10"
   x1="654.83"
   y1="324.66"
   x2="655.27"
   y2="324.22"
   id="line729" />
<path
   class="st10"
   d="M674.93,138.66c-6.7,38.44-11.83,57.41-16.78,72.26"
   id="path731" />
<path
   class="st10"
   d="M674.93,138.66c2.29-13.1,3.34-29.23,2.73-36.38"
   id="path733" />
<line
   class="st10"
   x1="676.05"
   y1="138.84"
   x2="676.05"
   y2="253.6"
   id="line735" />
<path
   class="st10"
   d="M676.05,253.6c-0.58,38.52-4.84,54.57-8.34,71.06"
   id="path737" />
<path
   class="st10"
   d="M662.92,324.01c-1.75,6.33-3.6,11.9-5.79,17.81"
   id="path739" />
<path
   class="st10"
   d="M665.32,324.22c-2.4,8.96-4.37,14.64-7.97,23.26"
   id="path741" />
<path
   class="st10"
   d="M667.72,324.66c-2.95,12.34-6.66,23.05-13.8,41.94"
   id="path743" />
<line
   class="st10"
   x1="658"
   y1="209.43"
   x2="658"
   y2="211.07"
   id="line745" />
<line
   class="st10"
   x1="658.03"
   y1="210.92"
   x2="657.24"
   y2="210.86"
   id="line747" />
<line
   class="st10"
   x1="676.13"
   y1="132"
   x2="676.13"
   y2="138.54"
   id="line749" />
<path
   class="st10"
   d="M677.66,102.28c-0.7-1.93-0.88-2.61-3.49-3.49"
   id="path751" />
<path
   class="st10"
   d="M657.2,212.19c-15.73,41.36-44.05,99.65-58.03,109.55"
   id="path753" />
<line
   class="st10"
   x1="577.39"
   y1="320.54"
   x2="595.78"
   y2="322.82"
   id="line755" />
<path
   class="st10"
   d="M599.16,321.74c-1.2,0.88-2.52,1.2-3.39,1.09"
   id="path757" />
<line
   class="st10"
   x1="657.01"
   y1="211.3"
   x2="657.01"
   y2="212.93"
   id="line759" />
<path
   class="st10"
   d="M571.82,315.49c0.44,2.29,2.4,4.48,5.57,5.05"
   id="path761" />
<line
   class="st12"
   x1="902.94"
   y1="242.59"
   x2="902.94"
   y2="239.47"
   id="line763" />
<line
   class="st12"
   x1="903.72"
   y1="241.58"
   x2="903.67"
   y2="243.03"
   id="line765" />
<line
   class="st10"
   x1="750.16"
   y1="219.83"
   x2="750.16"
   y2="221.51"
   id="line767" />
<line
   class="st11"
   x1="705.41"
   y1="147.21"
   x2="705.53"
   y2="331.38"
   id="line769" />
<path
   class="st10"
   d="M935.3,171.77c-13.26,24.22-17.94,33.92-28.65,61.34"
   id="path771" />
<line
   class="st11"
   x1="962.39"
   y1="175.1"
   x2="1039.09"
   y2="185.57"
   id="line773" />
<line
   class="st13"
   x1="962.65"
   y1="406.11"
   x2="1042.51"
   y2="416.99"
   id="line775" />
<line
   class="st13"
   x1="966"
   y1="251.52"
   x2="1015.89"
   y2="257.98"
   id="line777" />
<line
   class="st13"
   x1="1003.62"
   y1="256.57"
   x2="1003.62"
   y2="411.52"
   id="line779" />
<line
   class="st13"
   x1="1032.47"
   y1="184.12"
   x2="1032.47"
   y2="415.96"
   id="line781" />
<line
   class="st13"
   x1="1018"
   y1="107.85"
   x2="967.09"
   y2="248.24"
   id="line783" />
<line
   class="st13"
   x1="856.48"
   y1="108.6"
   x2="946.57"
   y2="122.39"
   id="line785" />
<g
   id="XMLID_24_">
	<g
   id="g788">
		<path
   class="st14"
   d="M1004.82,402.25l-1.2,9.17h-0.02l-1.18-9.07C1002.42,402.3,1003.74,403.77,1004.82,402.25z"
   id="path790" />
	</g>
</g>
<g
   id="XMLID_23_">
	<g
   id="g793">
		<path
   class="st14"
   d="M1033.68,406.69l-1.2,9.17h-0.02l-1.18-9.07C1031.27,406.74,1032.6,408.2,1033.68,406.69z"
   id="path795" />
	</g>
</g>
<g
   id="XMLID_22_">
	<g
   id="g798">
		<path
   class="st14"
   d="M1004.91,265.72l-1.2-9.17h-0.02l-1.18,9.07C1002.49,265.67,1003.82,264.2,1004.91,265.72z"
   id="path800" />
	</g>
</g>
<g
   id="XMLID_21_">
	<g
   id="g803">
		<path
   class="st14"
   d="M1033.6,194.09l-1.2-9.17h-0.02l-1.18,9.07C1031.2,194.04,1032.53,192.56,1033.6,194.09z"
   id="path805" />
	</g>
</g>
<g
   id="XMLID_20_">
	<g
   id="g808">
		<path
   class="st14"
   d="M865.75,108.82l-9.25-0.24v0.02l8.77,2.6C865.31,111.21,864.09,109.67,865.75,108.82z"
   id="path810" />
	</g>
</g>
<g
   id="XMLID_18_">
	<g
   id="g813">
		<path
   class="st14"
   d="M937.32,122.17l9.25,0.23v-0.02l-8.77-2.6C937.75,119.78,938.97,121.31,937.32,122.17z"
   id="path815" />
	</g>
</g>
<g
   id="g817">
	<path
   class="st14"
   d="M992.8,349.98v1.36l-0.86-0.47v-1.8h8.15v0.91H992.8z"
   id="path819" />
	<path
   class="st14"
   d="M999.01,344.9c-0.78,0.54-1.83,0.81-3,0.81c-1.17,0-2.21-0.28-3-0.81c-0.91-0.62-1.22-1.44-1.22-2.09   s0.32-1.46,1.22-2.09c0.78-0.54,1.83-0.81,3-0.81c1.17,0,2.21,0.28,3,0.81c0.91,0.62,1.22,1.44,1.22,2.09   S999.92,344.27,999.01,344.9z M993.54,344.22c0.7,0.44,1.62,0.6,2.48,0.6c0.86,0,1.79-0.16,2.48-0.6c0.68-0.42,0.91-0.99,0.91-1.41   c0-0.42-0.23-0.97-0.91-1.41c-0.7-0.44-1.62-0.6-2.48-0.6c-0.86,0-1.79,0.16-2.48,0.6c-0.68,0.42-0.91,0.99-0.91,1.41   C992.63,343.23,992.85,343.78,993.54,344.22z"
   id="path821" />
	<path
   class="st14"
   d="M1000.08,338.72l-3.44-2.97c-0.24-0.21-0.89-0.76-1.18-0.96c-0.52-0.37-0.91-0.45-1.25-0.45   c-0.91,0-1.59,0.67-1.59,1.62c0,0.57,0.26,1.06,0.71,1.36c0.24,0.16,0.55,0.26,0.96,0.28v0.91c-0.81-0.03-1.31-0.29-1.69-0.62   c-0.39-0.34-0.83-0.91-0.83-1.93c0-1.44,1.02-2.52,2.43-2.52c0.55,0,1.06,0.16,1.75,0.65c0.47,0.34,0.97,0.78,1.36,1.12l1.92,1.7   v-3.44h0.83v5.24H1000.08z"
   id="path823" />
	<path
   class="st14"
   d="M992.8,329.12v1.36l-0.86-0.47v-1.8h8.15v0.91H992.8z"
   id="path825" />
</g>
<g
   id="g827">
	<path
   class="st14"
   d="M1020.75,324.63v1.36l-0.86-0.47v-1.8h8.15v0.91H1020.75z"
   id="path829" />
	<path
   class="st14"
   d="M1025.89,315.6v-1.01h0.83v1.01h1.33v0.91h-1.33v4.19l-7.27-5.08h6.44V315.6z M1025.89,316.51h-3.68   l3.68,2.58V316.51z"
   id="path831" />
	<path
   class="st14"
   d="M1025.8,308.02c1.27,0,2.4,0.83,2.4,2.5c0,1.66-1.12,2.5-2.4,2.5c-0.88,0-1.62-0.41-2-1.23   c-0.37,0.65-1.02,0.99-1.79,0.99c-1.17,0-2.26-0.78-2.26-2.26c0-1.46,1.1-2.26,2.26-2.26c0.76,0,1.41,0.34,1.79,0.99   C1024.17,308.43,1024.92,308.02,1025.8,308.02z M1022.05,309.12c-0.89,0-1.44,0.65-1.44,1.4c0,0.75,0.55,1.4,1.44,1.4   c0.81,0,1.41-0.6,1.41-1.4C1023.44,309.73,1022.84,309.12,1022.05,309.12z M1025.78,308.93c-0.91,0-1.56,0.67-1.56,1.59   s0.63,1.59,1.56,1.59c0.93,0,1.59-0.65,1.59-1.59C1027.37,309.58,1026.7,308.93,1025.78,308.93z"
   id="path833" />
	<path
   class="st14"
   d="M1028.05,306.43l-3.44-2.97c-0.24-0.21-0.89-0.76-1.18-0.96c-0.52-0.37-0.91-0.45-1.25-0.45   c-0.91,0-1.59,0.67-1.59,1.62c0,0.57,0.26,1.06,0.71,1.36c0.24,0.16,0.55,0.26,0.96,0.28v0.91c-0.81-0.03-1.31-0.29-1.69-0.62   c-0.39-0.34-0.83-0.91-0.83-1.93c0-1.44,1.02-2.52,2.43-2.52c0.55,0,1.06,0.16,1.75,0.65c0.47,0.34,0.97,0.78,1.36,1.12l1.92,1.7   v-3.44h0.83v5.24H1028.05z"
   id="path835" />
</g>
<line
   class="st11"
   x1="809.7"
   y1="341"
   x2="853.61"
   y2="346.34"
   id="line837" />
<line
   class="st11"
   x1="859.99"
   y1="165.64"
   x2="859.99"
   y2="350.55"
   id="line839" />
<line
   class="st10"
   x1="753.18"
   y1="221.34"
   x2="808.18"
   y2="229.12"
   id="line841" />
<line
   class="st10"
   x1="752.65"
   y1="223.92"
   x2="808.11"
   y2="231.88"
   id="line843" />
<line
   class="st10"
   x1="915.53"
   y1="242.05"
   x2="961.06"
   y2="248.61"
   id="line845" />
<line
   class="st10"
   x1="809.69"
   y1="235.98"
   x2="809.69"
   y2="340.78"
   id="line847" />
<line
   class="st10"
   x1="915.89"
   y1="238.24"
   x2="961.06"
   y2="244.46"
   id="line849" />
<path
   class="st10"
   d="M903.2,243c5.86-17.14,8.72-23.99,13.08-33.81"
   id="path851" />
<line
   class="st10"
   x1="905.24"
   y1="236.81"
   x2="914.53"
   y2="238.09"
   id="line853" />
<line
   class="st10"
   x1="905.86"
   y1="241.19"
   x2="918.21"
   y2="242.93"
   id="line855" />
<line
   class="st15"
   x1="905.86"
   y1="240.63"
   x2="915.27"
   y2="241.97"
   id="line857" />
<line
   class="st11"
   x1="905.81"
   y1="170.18"
   x2="905.81"
   y2="241.19"
   id="line859" />
<line
   class="st11"
   x1="905.83"
   y1="168.72"
   x2="905.76"
   y2="170.18"
   id="line861" />
<line
   class="st11"
   x1="906.54"
   y1="168.22"
   x2="906.54"
   y2="240.63"
   id="line863" />
<line
   class="st11"
   x1="859.94"
   y1="350.18"
   x2="860.7"
   y2="351.26"
   id="line865" />
<line
   class="st15"
   x1="903.2"
   y1="243"
   x2="903.29"
   y2="244.67"
   id="line867" />
<line
   class="st11"
   x1="859.34"
   y1="166.14"
   x2="859.34"
   y2="350.29"
   id="line869" />
<line
   class="st10"
   x1="903.2"
   y1="243"
   x2="915.53"
   y2="244.75"
   id="line871" />
<line
   class="st10"
   x1="752.99"
   y1="219.44"
   x2="812.48"
   y2="227.92"
   id="line873" />
<line
   class="st10"
   x1="753.25"
   y1="218.31"
   x2="812.66"
   y2="226.7"
   id="line875" />
<line
   class="st11"
   x1="860.26"
   y1="350.94"
   x2="880.23"
   y2="353.42"
   id="line877" />
<line
   class="st15"
   x1="809.21"
   y1="236.93"
   x2="809.21"
   y2="343.47"
   id="line879" />
<line
   class="st10"
   x1="750.62"
   y1="219.1"
   x2="752.47"
   y2="219.27"
   id="line881" />
<line
   class="st11"
   x1="854.6"
   y1="161.45"
   x2="854.6"
   y2="346.1"
   id="line883" />
<line
   class="st11"
   x1="799.17"
   y1="154.89"
   x2="799.17"
   y2="227.95"
   id="line885" />
<path
   class="st11"
   d="M854.6,346.1c0,0.32-1.04,0.58-2.34,0.58"
   id="path887" />
<path
   class="st11"
   d="M854.6,161.45c0-0.32-0.78-0.58-1.75-0.58"
   id="path889" />
<path
   class="st11"
   d="M799.12,154.89c0-0.36,0.29-0.65,0.65-0.65"
   id="path891" />
<line
   class="st10"
   x1="750.78"
   y1="217.97"
   x2="752.47"
   y2="218.19"
   id="line893" />
<line
   class="st11"
   x1="800.64"
   y1="153.36"
   x2="853.72"
   y2="159.99"
   id="line895" />
<line
   class="st11"
   x1="855.48"
   y1="160.57"
   x2="855.48"
   y2="345.22"
   id="line897" />
<path
   class="st11"
   d="M855.48,160.57c0-0.32-0.78-0.58-1.75-0.58"
   id="path899" />
<line
   class="st16"
   x1="799.22"
   y1="154.22"
   x2="800.64"
   y2="153.36"
   id="line901" />
<line
   class="st11"
   x1="853.4"
   y1="160.9"
   x2="854.81"
   y2="160.13"
   id="line903" />
<line
   class="st11"
   x1="854.27"
   y1="161.22"
   x2="855.48"
   y2="160.57"
   id="line905" />
<line
   class="st11"
   x1="854.6"
   y1="346.1"
   x2="855.48"
   y2="345.22"
   id="line907" />
<line
   class="st10"
   x1="809.93"
   y1="341.54"
   x2="809.93"
   y2="342.74"
   id="line909" />
<line
   class="st15"
   x1="809.49"
   y1="343.18"
   x2="809.93"
   y2="342.74"
   id="line911" />
<line
   class="st11"
   x1="799.83"
   y1="154.39"
   x2="799.83"
   y2="227.67"
   id="line913" />
<line
   class="st10"
   x1="812.66"
   y1="227.95"
   x2="812.66"
   y2="229.59"
   id="line915" />
<line
   class="st10"
   x1="812.77"
   y1="228.94"
   x2="811.96"
   y2="228.87"
   id="line917" />
<line
   class="st15"
   x1="811.68"
   y1="229.82"
   x2="811.68"
   y2="231.18"
   id="line919" />
<line
   class="st11"
   x1="809.49"
   y1="341.44"
   x2="852.26"
   y2="346.69"
   id="line921" />
<line
   class="st11"
   x1="853.61"
   y1="346.34"
   x2="854.6"
   y2="345.48"
   id="line923" />
<line
   class="st10"
   x1="902"
   y1="245.87"
   x2="963.48"
   y2="254.46"
   id="line925" />
<line
   class="st10"
   x1="902.47"
   y1="244.73"
   x2="960.11"
   y2="252.74"
   id="line927" />
<line
   class="st10"
   x1="915.53"
   y1="244.75"
   x2="961.06"
   y2="251.29"
   id="line929" />
<line
   class="st10"
   x1="962.3"
   y1="244.67"
   x2="967.17"
   y2="245.33"
   id="line931" />
<line
   class="st11"
   x1="859.94"
   y1="165.49"
   x2="913.02"
   y2="172.11"
   id="line933" />
<path
   class="st11"
   d="M914.77,172.7c0-0.32-0.78-0.58-1.75-0.58"
   id="path935" />
<path
   class="st11"
   d="M859.29,166.14c0-0.36,0.29-0.65,0.65-0.65"
   id="path937" />
<line
   class="st11"
   x1="860.82"
   y1="164.61"
   x2="913.89"
   y2="171.24"
   id="line939" />
<path
   class="st11"
   d="M915.65,171.82c0-0.32-0.78-0.58-1.75-0.58"
   id="path941" />
<line
   class="st11"
   x1="859.39"
   y1="165.49"
   x2="860.82"
   y2="164.61"
   id="line943" />
<line
   class="st11"
   x1="913.57"
   y1="172.14"
   x2="914.98"
   y2="171.38"
   id="line945" />
<line
   class="st11"
   x1="914.45"
   y1="172.49"
   x2="915.65"
   y2="171.82"
   id="line947" />
<line
   class="st11"
   x1="860.26"
   y1="351.43"
   x2="880.44"
   y2="354.04"
   id="line949" />
<path
   class="st11"
   d="M859.39,350.29c0,0.19,0.39,1.12,0.88,1.12"
   id="path951" />
<line
   class="st16"
   x1="799.77"
   y1="154.22"
   x2="852.85"
   y2="160.86"
   id="line953" />
<line
   class="st10"
   x1="965.64"
   y1="250.02"
   x2="965.64"
   y2="251.66"
   id="line955" />
<line
   class="st10"
   x1="750.62"
   y1="219.1"
   x2="750.62"
   y2="220.99"
   id="line957" />
<line
   class="st11"
   x1="906.48"
   y1="168.07"
   x2="959.55"
   y2="174.69"
   id="line959" />
<line
   class="st11"
   x1="961.31"
   y1="175.28"
   x2="961.31"
   y2="248.77"
   id="line961" />
<path
   class="st11"
   d="M961.31,175.28c0-0.32-0.78-0.58-1.75-0.58"
   id="path963" />
<path
   class="st11"
   d="M905.83,168.72c0-0.36,0.29-0.65,0.65-0.65"
   id="path965" />
<line
   class="st11"
   x1="907.35"
   y1="167.19"
   x2="960.43"
   y2="173.82"
   id="line967" />
<line
   class="st11"
   x1="962.18"
   y1="174.4"
   x2="962.18"
   y2="247.22"
   id="line969" />
<path
   class="st11"
   d="M962.18,174.4c0-0.32-0.78-0.58-1.75-0.58"
   id="path971" />
<line
   class="st16"
   x1="905.94"
   y1="168.07"
   x2="907.35"
   y2="167.19"
   id="line973" />
<line
   class="st11"
   x1="960.11"
   y1="174.73"
   x2="961.53"
   y2="173.96"
   id="line975" />
<line
   class="st11"
   x1="960.98"
   y1="175.07"
   x2="962.18"
   y2="174.4"
   id="line977" />
<line
   class="st15"
   x1="960.11"
   y1="252.74"
   x2="961.06"
   y2="251.29"
   id="line979" />
<line
   class="st15"
   x1="961.31"
   y1="248.77"
   x2="962.18"
   y2="247.22"
   id="line981" />
<line
   class="st15"
   x1="915.53"
   y1="242.61"
   x2="961.06"
   y2="249.15"
   id="line983" />
<line
   class="st10"
   x1="749.74"
   y1="220.86"
   x2="752.58"
   y2="221.26"
   id="line985" />
<line
   class="st11"
   x1="753.17"
   y1="150.67"
   x2="806.24"
   y2="157.29"
   id="line987" />
<line
   class="st11"
   x1="808.18"
   y1="157.88"
   x2="808.18"
   y2="232.06"
   id="line989" />
<path
   class="st11"
   d="M808,157.88c0-0.32-0.78-0.58-1.75-0.58"
   id="path991" />
<path
   class="st11"
   d="M752.52,151.32c0-0.36,0.29-0.65,0.65-0.65"
   id="path993" />
<line
   class="st11"
   x1="754.04"
   y1="149.79"
   x2="807.12"
   y2="156.42"
   id="line995" />
<line
   class="st11"
   x1="808.99"
   y1="157"
   x2="808.99"
   y2="230.22"
   id="line997" />
<path
   class="st11"
   d="M808.87,157c0-0.32-0.78-0.58-1.75-0.58"
   id="path999" />
<line
   class="st16"
   x1="752.61"
   y1="150.67"
   x2="754.04"
   y2="149.79"
   id="line1001" />
<line
   class="st11"
   x1="806.8"
   y1="157.32"
   x2="808.21"
   y2="156.56"
   id="line1003" />
<line
   class="st11"
   x1="807.67"
   y1="157.65"
   x2="808.87"
   y2="157"
   id="line1005" />
<line
   class="st15"
   x1="808.35"
   y1="232.06"
   x2="809.1"
   y2="230.22"
   id="line1007" />
<line
   class="st15"
   x1="761.17"
   y1="225.92"
   x2="808.11"
   y2="232.43"
   id="line1009" />
<line
   class="st16"
   x1="799.17"
   y1="154.22"
   x2="799.17"
   y2="154.92"
   id="line1011" />
<line
   class="st15"
   x1="808.18"
   y1="229.12"
   x2="811.49"
   y2="229.59"
   id="line1013" />
<line
   class="st11"
   x1="914.77"
   y1="172.7"
   x2="914.77"
   y2="246.19"
   id="line1015" />
<line
   class="st11"
   x1="915.65"
   y1="171.82"
   x2="915.65"
   y2="246.39"
   id="line1017" />
<line
   class="st13"
   x1="856.35"
   y1="107.27"
   x2="811.55"
   y2="230.47"
   id="line1019" />
<line
   class="st13"
   x1="946.8"
   y1="121.73"
   x2="903.2"
   y2="243"
   id="line1021" />
<path
   class="st10"
   d="M957.33,137.02c-5.86,8.67-14.12,20.53-21.33,33.49"
   id="path1023" />
<line
   class="st11"
   x1="760.91"
   y1="153.77"
   x2="760.92"
   y2="227.43"
   id="line1025" />
<line
   class="st11"
   x1="761.77"
   y1="152.89"
   x2="761.78"
   y2="227.3"
   id="line1027" />
<line
   class="st10"
   x1="748.18"
   y1="225.09"
   x2="809.93"
   y2="233.84"
   id="line1029" />
<path
   class="st10"
   d="M802.95,117.75c-5.86,8.67-15.18,22.38-22.37,35.35"
   id="path1031" />
<line
   class="st11"
   x1="655.56"
   y1="322.29"
   x2="699.47"
   y2="327.65"
   id="line1033" />
<line
   class="st10"
   x1="599.03"
   y1="202.63"
   x2="654.02"
   y2="210.42"
   id="line1035" />
<line
   class="st10"
   x1="598.31"
   y1="205.84"
   x2="653.68"
   y2="214.07"
   id="line1037" />
<line
   class="st10"
   x1="655.55"
   y1="217.27"
   x2="655.55"
   y2="322.08"
   id="line1039" />
<line
   class="st10"
   x1="598.83"
   y1="200.74"
   x2="658.32"
   y2="209.2"
   id="line1041" />
<line
   class="st10"
   x1="599.09"
   y1="199.61"
   x2="658.5"
   y2="207.98"
   id="line1043" />
<line
   class="st15"
   x1="655.06"
   y1="218.21"
   x2="655.06"
   y2="324.77"
   id="line1045" />
<line
   class="st10"
   x1="596.46"
   y1="200.4"
   x2="598.31"
   y2="200.57"
   id="line1047" />
<line
   class="st11"
   x1="700.44"
   y1="142.73"
   x2="700.44"
   y2="327.39"
   id="line1049" />
<line
   class="st11"
   x1="645.01"
   y1="136.17"
   x2="645.01"
   y2="209.25"
   id="line1051" />
<path
   class="st11"
   d="M700.44,327.39c0,0.32-1.04,0.58-2.34,0.58"
   id="path1053" />
<path
   class="st11"
   d="M700.44,142.73c0-0.32-0.78-0.58-1.75-0.58"
   id="path1055" />
<path
   class="st11"
   d="M644.96,136.17c0-0.36,0.29-0.65,0.65-0.65"
   id="path1057" />
<line
   class="st10"
   x1="596.63"
   y1="199.25"
   x2="598.31"
   y2="199.49"
   id="line1059" />
<line
   class="st11"
   x1="646.49"
   y1="134.65"
   x2="699.57"
   y2="141.27"
   id="line1061" />
<line
   class="st11"
   x1="701.32"
   y1="141.86"
   x2="701.32"
   y2="326.51"
   id="line1063" />
<path
   class="st11"
   d="M701.32,141.86c0-0.32-0.78-0.58-1.75-0.58"
   id="path1065" />
<line
   class="st16"
   x1="645.08"
   y1="135.53"
   x2="646.49"
   y2="134.65"
   id="line1067" />
<line
   class="st11"
   x1="699.24"
   y1="142.18"
   x2="700.67"
   y2="141.42"
   id="line1069" />
<line
   class="st11"
   x1="700.12"
   y1="142.51"
   x2="701.32"
   y2="141.86"
   id="line1071" />
<line
   class="st11"
   x1="700.44"
   y1="327.39"
   x2="701.32"
   y2="326.51"
   id="line1073" />
<line
   class="st10"
   x1="655.77"
   y1="322.84"
   x2="655.77"
   y2="324.04"
   id="line1075" />
<line
   class="st15"
   x1="655.34"
   y1="324.48"
   x2="655.77"
   y2="324.04"
   id="line1077" />
<line
   class="st11"
   x1="645.68"
   y1="135.67"
   x2="645.68"
   y2="208.96"
   id="line1079" />
<line
   class="st10"
   x1="658.5"
   y1="209.25"
   x2="658.5"
   y2="210.89"
   id="line1081" />
<line
   class="st10"
   x1="658.62"
   y1="210.22"
   x2="657.82"
   y2="210.16"
   id="line1083" />
<line
   class="st15"
   x1="657.53"
   y1="211.1"
   x2="657.53"
   y2="212.48"
   id="line1085" />
<line
   class="st11"
   x1="655.34"
   y1="322.73"
   x2="698.12"
   y2="327.97"
   id="line1087" />
<line
   class="st11"
   x1="699.47"
   y1="327.65"
   x2="700.44"
   y2="326.77"
   id="line1089" />
<line
   class="st16"
   x1="645.61"
   y1="135.53"
   x2="698.69"
   y2="142.15"
   id="line1091" />
<line
   class="st10"
   x1="596.46"
   y1="200.4"
   x2="596.46"
   y2="202.29"
   id="line1093" />
<line
   class="st15"
   x1="595.59"
   y1="202.14"
   x2="598.43"
   y2="202.55"
   id="line1095" />
<line
   class="st11"
   x1="598.31"
   y1="133.64"
   x2="598.31"
   y2="206.39"
   id="line1097" />
<line
   class="st11"
   x1="599.03"
   y1="133.42"
   x2="599.03"
   y2="205.83"
   id="line1099" />
<line
   class="st11"
   x1="598.96"
   y1="133.27"
   x2="652.06"
   y2="139.89"
   id="line1101" />
<line
   class="st11"
   x1="653.79"
   y1="140.48"
   x2="653.92"
   y2="214.25"
   id="line1103" />
<path
   class="st11"
   d="M653.79,140.48c0-0.32-0.78-0.58-1.75-0.58"
   id="path1105" />
<path
   class="st11"
   d="M598.31,133.92c0-0.36,0.29-0.65,0.65-0.65"
   id="path1107" />
<line
   class="st11"
   x1="599.84"
   y1="132.39"
   x2="652.92"
   y2="139.02"
   id="line1109" />
<line
   class="st11"
   x1="654.67"
   y1="139.6"
   x2="654.67"
   y2="212.42"
   id="line1111" />
<path
   class="st11"
   d="M654.67,139.6c0-0.32-0.78-0.58-1.75-0.58"
   id="path1113" />
<line
   class="st16"
   x1="598.43"
   y1="133.27"
   x2="599.84"
   y2="132.39"
   id="line1115" />
<line
   class="st11"
   x1="652.59"
   y1="139.92"
   x2="654.02"
   y2="139.16"
   id="line1117" />
<line
   class="st11"
   x1="653.47"
   y1="140.26"
   x2="654.67"
   y2="139.6"
   id="line1119" />
<line
   class="st15"
   x1="653.92"
   y1="214.25"
   x2="654.67"
   y2="212.42"
   id="line1121" />
<line
   class="st15"
   x1="598.31"
   y1="206.39"
   x2="653.68"
   y2="214.62"
   id="line1123" />
<line
   class="st16"
   x1="645.01"
   y1="135.53"
   x2="645.01"
   y2="137.96"
   id="line1125" />
<line
   class="st15"
   x1="654.02"
   y1="210.42"
   x2="657.33"
   y2="210.89"
   id="line1127" />
<line
   class="st13"
   x1="647.74"
   y1="57.11"
   x2="596.04"
   y2="200.71"
   id="line1129" />
<line
   class="st10"
   x1="811.39"
   y1="229.98"
   x2="809.21"
   y2="236.93"
   id="line1131" />
<line
   class="st10"
   x1="966.66"
   y1="247.98"
   x2="963.58"
   y2="256.44"
   id="line1133" />
<path
   class="st10"
   d="M624.71,136.63c-13.26,24.22-14.07,26.05-24.8,53.48"
   id="path1135" />
<path
   class="st10"
   d="M648.68,98.65c-5.86,8.67-16.12,23.78-23.31,36.73"
   id="path1137" />
<path
   class="st10"
   d="M571.79,314.76c5.24-61,19.79-101.84,26.51-121.15"
   id="path1139" />
<line
   class="st13"
   x1="608.23"
   y1="90.3"
   x2="527.67"
   y2="312.65"
   id="line1141" />
<line
   class="st13"
   x1="600.21"
   y1="88.11"
   x2="653.34"
   y2="96.33"
   id="line1143" />
<line
   class="st13"
   x1="515.06"
   y1="310.94"
   x2="576.55"
   y2="319.35"
   id="line1145" />
<g
   id="XMLID_12_">
	<g
   id="g1148">
		<path
   class="st14"
   d="M606.19,99.44l2.01-9.04h-0.02l-4.22,8.12C603.93,98.57,605.67,97.67,606.19,99.44z"
   id="path1150" />
	</g>
</g>
<g
   id="XMLID_11_">
	<g
   id="g1153">
		<path
   class="st14"
   d="M529.7,303.52l-2.01,9.04h0.02l4.22-8.12C531.96,304.4,530.21,305.29,529.7,303.52z"
   id="path1155" />
	</g>
</g>
<g
   id="g1157">
	<path
   class="st14"
   d="M553.24,200.73l-0.49,1.28l-0.63-0.75l0.65-1.67l7.61,2.92l-0.32,0.84L553.24,200.73z"
   id="path1159" />
	<path
   class="st14"
   d="M561.87,197.77l-1.75-2.68c-0.02,0.24-0.06,0.47-0.16,0.71c-0.57,1.46-2.05,2.05-3.46,1.51   c-1.53-0.58-2.19-2.09-1.61-3.62c0.68-1.79,2.4-2.11,3.6-1.64c0.29,0.11,0.94,0.42,1.51,1.3l2.6,3.96L561.87,197.77z    M556.79,196.46c1.02,0.39,2.05-0.08,2.45-1.12s-0.08-2.06-1.09-2.45c-1.02-0.39-2.09,0.02-2.5,1.09   C555.27,195.03,555.77,196.07,556.79,196.46z"
   id="path1161" />
	<path
   class="st14"
   d="M564.1,192.84l-2.14-4.01c-0.15-0.28-0.57-1.02-0.76-1.31c-0.36-0.54-0.7-0.75-1.01-0.88   c-0.86-0.32-1.72,0.05-2.06,0.94c-0.21,0.54-0.13,1.07,0.19,1.53c0.18,0.24,0.42,0.44,0.81,0.6l-0.32,0.84   c-0.75-0.32-1.12-0.75-1.36-1.17c-0.24-0.45-0.44-1.15-0.08-2.09c0.52-1.35,1.87-1.98,3.18-1.48c0.52,0.19,0.93,0.52,1.4,1.23   c0.32,0.49,0.63,1.09,0.88,1.53l1.18,2.27l1.23-3.21l0.78,0.29L564.1,192.84z"
   id="path1163" />
	<path
   class="st14"
   d="M561.01,183.75c-0.42-0.18-0.75-0.47-0.99-0.78c-0.6-0.81-0.39-1.66-0.21-2.11c0.55-1.44,1.83-1.75,2.87-1.36   c0.55,0.21,1.22,0.7,1.31,1.62c0.21-0.23,0.94-0.89,2.26-0.39c1.43,0.55,1.9,1.92,1.4,3.21c-0.31,0.8-0.99,1.59-2.13,1.62   c-0.32,0.02-0.58-0.05-0.86-0.13l0.32-0.84c0.29,0.06,0.62,0.1,0.88,0.02c0.45-0.11,0.84-0.47,1.02-0.96   c0.32-0.84-0.11-1.77-0.97-2.09c-0.44-0.16-1.09-0.23-1.57,0.26c-0.21,0.19-0.39,0.5-0.49,0.81l-0.75-0.29   c0.13-0.29,0.21-0.65,0.18-0.93c-0.03-0.29-0.19-0.81-0.88-1.07c-0.68-0.26-1.44-0.13-1.8,0.8c-0.11,0.31-0.21,0.71,0.05,1.15   c0.13,0.23,0.37,0.45,0.68,0.6L561.01,183.75z"
   id="path1165" />
</g>
<line
   class="st13"
   x1="794.23"
   y1="98.91"
   x2="855.83"
   y2="108.48"
   id="line1167" />
<g
   id="XMLID_26_">
	<g
   id="g1170">
		<path
   class="st14"
   d="M803.48,99.17l-9.24-0.24v0.02l8.77,2.6C803.08,101.54,801.85,99.99,803.48,99.17z"
   id="path1172" />
	</g>
</g>
<g
   id="XMLID_25_">
	<g
   id="g1175">
		<path
   class="st14"
   d="M846.6,108.26l9.25,0.23v-0.02l-8.78-2.6C847.02,105.87,848.25,107.41,846.6,108.26z"
   id="path1177" />
	</g>
</g>
<line
   class="st13"
   x1="794.56"
   y1="97.66"
   x2="749.74"
   y2="220.86"
   id="line1179" />
<line
   class="st13"
   x1="703.74"
   y1="85.01"
   x2="793.81"
   y2="98.81"
   id="line1181" />
<g
   id="XMLID_28_">
	<g
   id="g1184">
		<path
   class="st14"
   d="M713.01,85.26l-9.27-0.24v0.02l8.78,2.6C712.55,87.63,711.35,86.1,713.01,85.26z"
   id="path1186" />
	</g>
</g>
<g
   id="XMLID_27_">
	<g
   id="g1189">
		<path
   class="st14"
   d="M784.56,98.58l9.25,0.23v-0.02l-8.77-2.6C785,96.2,786.23,97.74,784.56,98.58z"
   id="path1191" />
	</g>
</g>
<line
   class="st13"
   x1="641.46"
   y1="75.29"
   x2="703.06"
   y2="84.85"
   id="line1193" />
<g
   id="XMLID_19_">
	<g
   id="g1196">
		<path
   class="st14"
   d="M650.69,75.53l-9.24-0.24v0.02l8.78,2.6C650.29,77.92,649.07,76.38,650.69,75.53z"
   id="path1198" />
	</g>
</g>
<g
   id="XMLID_17_">
	<g
   id="g1201">
		<path
   class="st14"
   d="M693.81,84.64l9.25,0.23v-0.02l-8.77-2.6C694.24,82.25,695.46,83.79,693.81,84.64z"
   id="path1203" />
	</g>
</g>
<line
   class="st13"
   x1="703.74"
   y1="83.55"
   x2="658.94"
   y2="206.75"
   id="line1205" />
<line
   class="st13"
   x1="946.88"
   y1="122.49"
   x2="1008.48"
   y2="132.07"
   id="line1207" />
<g
   id="XMLID_31_">
	<g
   id="g1210">
		<path
   class="st14"
   d="M956.14,122.75l-9.24-0.24v0.02l8.77,2.6C955.72,125.12,954.51,123.58,956.14,122.75z"
   id="path1212" />
	</g>
</g>
<g
   id="XMLID_30_">
	<g
   id="g1215">
		<path
   class="st14"
   d="M999.24,131.84l9.25,0.23v-0.02l-8.78-2.6C999.68,129.45,1000.9,131,999.24,131.84z"
   id="path1217" />
	</g>
</g>
<g
   id="g1219">
	<path
   class="st14"
   d="M201.2,382.41l3.44-2.97c0.24-0.21,0.88-0.78,1.12-1.04c0.44-0.47,0.58-0.84,0.63-1.17   c0.13-0.91-0.42-1.67-1.38-1.82c-0.57-0.08-1.07,0.1-1.44,0.52c-0.19,0.21-0.34,0.5-0.41,0.91l-0.89-0.13   c0.16-0.81,0.49-1.27,0.84-1.57c0.39-0.34,1.02-0.68,2.03-0.54c1.43,0.21,2.34,1.38,2.14,2.78c-0.08,0.54-0.31,1.02-0.89,1.64   c-0.41,0.42-0.91,0.86-1.3,1.18l-1.96,1.66l3.41,0.5l-0.11,0.83L201.2,382.41z"
   id="path1221" />
	<path
   class="st14"
   d="M209.04,383.26l2.22-2.3c-0.24,0.03-0.47,0.03-0.73,0c-1.54-0.23-2.43-1.54-2.22-3.05   c0.24-1.61,1.57-2.6,3.18-2.35c1.9,0.28,2.58,1.88,2.39,3.17c-0.05,0.31-0.21,1.01-0.94,1.75l-3.31,3.39L209.04,383.26z    M209.22,378.03c-0.16,1.07,0.52,1.98,1.62,2.14c1.1,0.16,2-0.54,2.16-1.59c0.16-1.07-0.47-2.03-1.61-2.21   C210.28,376.21,209.38,376.94,209.22,378.03z"
   id="path1223" />
	<path
   class="st14"
   d="M214.66,383.32c-0.42-0.86-0.54-1.93-0.37-3.08c0.16-1.15,0.6-2.14,1.25-2.84c0.75-0.81,1.61-0.99,2.24-0.91   c0.63,0.1,1.4,0.54,1.88,1.51c0.42,0.86,0.54,1.93,0.37,3.08c-0.16,1.15-0.6,2.14-1.25,2.84c-0.75,0.81-1.61,0.99-2.24,0.91   C215.91,384.73,215.15,384.31,214.66,383.32z M216.14,378c-0.54,0.63-0.83,1.53-0.96,2.37c-0.13,0.84-0.1,1.79,0.23,2.55   c0.32,0.75,0.84,1.04,1.27,1.1c0.41,0.06,1.01-0.08,1.53-0.68c0.54-0.63,0.83-1.53,0.96-2.37c0.13-0.84,0.1-1.79-0.23-2.55   c-0.32-0.75-0.84-1.04-1.27-1.1C217.26,377.25,216.65,377.38,216.14,378z"
   id="path1225" />
	<path
   class="st14"
   d="M225.05,377.23c-0.47,0.84-0.76,1.56-0.83,1.72c-0.21,0.52-0.62,1.66-0.86,3.33   c-0.24,1.67-0.19,2.86-0.13,3.42c0.02,0.18,0.08,0.94,0.29,1.88l-0.81,0.24c-0.11-0.5-0.26-1.36-0.32-1.9   c-0.05-0.41-0.19-1.85,0.1-3.78c0.29-1.92,0.84-3.28,1.01-3.65c0.23-0.5,0.6-1.27,0.86-1.72L225.05,377.23z"
   id="path1227" />
	<path
   class="st14"
   d="M228.94,384.33l0.99,0.15l-0.11,0.83l-0.99-0.15l-0.19,1.31l-0.89-0.13l0.19-1.31l-4.14-0.62l6.1-6.44   L228.94,384.33z M228.05,384.2l0.54-3.64l-3.08,3.26L228.05,384.2z"
   id="path1229" />
	<path
   class="st14"
   d="M235.21,385.27l0.99,0.15l-0.11,0.83l-0.99-0.15l-0.19,1.31l-0.89-0.13l0.19-1.31l-4.14-0.62l6.1-6.44   L235.21,385.27z M234.32,385.12l0.54-3.64l-3.08,3.26L234.32,385.12z"
   id="path1231" />
	<path
   class="st14"
   d="M237.42,386.68c-0.42-0.86-0.54-1.93-0.37-3.08c0.16-1.15,0.6-2.14,1.25-2.84c0.75-0.81,1.61-0.99,2.24-0.91   c0.65,0.1,1.41,0.54,1.88,1.51c0.42,0.86,0.54,1.93,0.37,3.08c-0.16,1.15-0.6,2.14-1.25,2.84c-0.75,0.81-1.61,1.01-2.24,0.91   C238.67,388.11,237.9,387.67,237.42,386.68z M238.89,381.37c-0.54,0.63-0.83,1.53-0.96,2.37c-0.13,0.84-0.1,1.79,0.23,2.55   c0.32,0.75,0.84,1.04,1.25,1.1c0.41,0.06,1.01-0.06,1.53-0.68c0.54-0.63,0.83-1.53,0.96-2.37c0.13-0.84,0.1-1.79-0.23-2.55   c-0.32-0.75-0.84-1.04-1.27-1.1C240.01,380.63,239.43,380.76,238.89,381.37z"
   id="path1233" />
	<path
   class="st14"
   d="M242.66,390.41c0.47-0.84,0.76-1.56,0.83-1.72c0.21-0.52,0.62-1.67,0.86-3.33c0.24-1.66,0.19-2.86,0.13-3.42   c-0.02-0.18-0.08-0.94-0.29-1.88l0.81-0.24c0.11,0.5,0.26,1.36,0.32,1.9c0.05,0.41,0.19,1.85-0.1,3.78   c-0.29,1.93-0.84,3.28-1.01,3.65c-0.23,0.5-0.6,1.27-0.86,1.72L242.66,390.41z"
   id="path1235" />
</g>
<g
   id="g1237">
	<path
   class="st14"
   d="M278.71,65.23l-1.35-0.19l0.6-0.78l1.79,0.26l-1.18,8.07l-0.89-0.13L278.71,65.23z"
   id="path1239" />
	<path
   class="st14"
   d="M283.25,67.06c0.1-0.44,0.29-0.83,0.55-1.14c0.65-0.76,1.53-0.75,2.01-0.67c1.53,0.23,2.13,1.4,1.96,2.52   c-0.08,0.58-0.42,1.35-1.3,1.64c0.26,0.15,1.09,0.73,0.88,2.11c-0.23,1.51-1.46,2.27-2.84,2.06c-0.83-0.11-1.77-0.62-2.05-1.72   c-0.08-0.31-0.1-0.58-0.06-0.88l0.89,0.13c0,0.29,0.05,0.62,0.18,0.86c0.21,0.42,0.65,0.71,1.15,0.78c0.89,0.13,1.69-0.5,1.82-1.4   c0.06-0.45-0.02-1.1-0.6-1.48c-0.24-0.16-0.58-0.28-0.89-0.31l0.11-0.8c0.31,0.06,0.67,0.06,0.94-0.03s0.75-0.37,0.84-1.1   c0.1-0.71-0.18-1.43-1.18-1.57c-0.32-0.05-0.73-0.05-1.1,0.31c-0.19,0.18-0.36,0.47-0.44,0.8L283.25,67.06z"
   id="path1241" />
	<path
   class="st14"
   d="M294.06,66.93l-2.22,2.3c0.24-0.03,0.47-0.05,0.73,0c1.54,0.23,2.45,1.54,2.22,3.05   c-0.23,1.61-1.56,2.6-3.18,2.37c-1.9-0.28-2.58-1.88-2.39-3.15c0.05-0.31,0.21-0.99,0.94-1.75l3.3-3.41L294.06,66.93z M293.9,72.16   c0.16-1.07-0.52-1.98-1.62-2.14s-2,0.54-2.14,1.59c-0.16,1.07,0.49,2.03,1.61,2.19C292.85,73.97,293.74,73.24,293.9,72.16z"
   id="path1243" />
	<path
   class="st14"
   d="M297,69.07c0.08-0.44,0.29-0.83,0.55-1.14c0.65-0.76,1.53-0.75,2.01-0.67c1.53,0.23,2.13,1.4,1.96,2.52   c-0.08,0.58-0.42,1.35-1.3,1.64c0.26,0.15,1.09,0.73,0.88,2.11c-0.23,1.51-1.46,2.27-2.84,2.08c-0.83-0.13-1.77-0.62-2.05-1.72   c-0.08-0.31-0.08-0.58-0.06-0.88l0.89,0.13c0,0.29,0.05,0.62,0.18,0.86c0.21,0.42,0.65,0.71,1.15,0.78c0.89,0.13,1.69-0.5,1.82-1.4   c0.06-0.45-0.02-1.1-0.6-1.48c-0.24-0.16-0.58-0.28-0.89-0.31l0.11-0.8c0.31,0.06,0.67,0.06,0.94-0.03c0.28-0.1,0.75-0.37,0.84-1.1   c0.1-0.71-0.18-1.43-1.18-1.57c-0.32-0.05-0.73-0.05-1.1,0.31c-0.19,0.18-0.36,0.47-0.44,0.8L297,69.07z"
   id="path1245" />
	<path
   class="st14"
   d="M308.79,68.28c-0.47,0.84-0.76,1.56-0.81,1.72c-0.21,0.52-0.62,1.67-0.86,3.33s-0.18,2.86-0.13,3.42   c0.02,0.18,0.08,0.94,0.29,1.88l-0.81,0.24c-0.11-0.5-0.26-1.36-0.32-1.9c-0.05-0.41-0.19-1.85,0.08-3.78   c0.28-1.93,0.84-3.28,1.01-3.65c0.23-0.5,0.6-1.27,0.86-1.72L308.79,68.28z"
   id="path1247" />
	<path
   class="st14"
   d="M312.6,70.18l-1.35-0.19l0.6-0.78l1.79,0.26l-1.18,8.07l-0.89-0.13L312.6,70.18z"
   id="path1249" />
	<path
   class="st14"
   d="M317.37,77.93l2.22-2.3c-0.24,0.03-0.47,0.05-0.73,0c-1.54-0.23-2.45-1.54-2.22-3.05   c0.24-1.61,1.56-2.6,3.18-2.37c1.9,0.28,2.58,1.88,2.4,3.15c-0.05,0.31-0.21,1.01-0.94,1.75l-3.3,3.39L317.37,77.93z M317.54,72.71   c-0.16,1.07,0.52,1.98,1.62,2.14c1.1,0.16,2-0.54,2.14-1.59c0.16-1.07-0.49-2.03-1.61-2.19C318.61,70.89,317.7,71.6,317.54,72.71z"
   id="path1251" />
	<path
   class="st14"
   d="M327.94,71.88l-2.22,2.3c0.24-0.03,0.47-0.05,0.73,0c1.54,0.23,2.45,1.54,2.22,3.04   c-0.23,1.61-1.56,2.6-3.18,2.37c-1.9-0.28-2.58-1.88-2.39-3.15c0.05-0.31,0.21-0.99,0.94-1.75l3.3-3.41L327.94,71.88z    M327.78,77.11c0.16-1.07-0.52-1.98-1.62-2.14c-1.1-0.16-2,0.54-2.14,1.59c-0.16,1.07,0.49,2.03,1.61,2.19   C326.72,78.92,327.62,78.19,327.78,77.11z"
   id="path1253" />
	<path
   class="st14"
   d="M334.53,78.57l0.99,0.15l-0.11,0.83l-0.99-0.15l-0.19,1.31l-0.89-0.13l0.19-1.31l-4.14-0.6l6.09-6.46   L334.53,78.57z M333.64,78.44l0.54-3.64l-3.08,3.26L333.64,78.44z"
   id="path1255" />
	<path
   class="st14"
   d="M336.33,82.89c0.47-0.84,0.76-1.56,0.83-1.72c0.21-0.52,0.62-1.67,0.86-3.33c0.24-1.66,0.18-2.86,0.13-3.42   c-0.02-0.18-0.08-0.94-0.29-1.88l0.81-0.24c0.11,0.5,0.26,1.36,0.32,1.9c0.05,0.41,0.19,1.85-0.08,3.78   c-0.28,1.92-0.84,3.28-1.01,3.65c-0.23,0.5-0.6,1.27-0.86,1.72L336.33,82.89z"
   id="path1257" />
</g>
<g
   id="g1259">
	<path
   class="st14"
   d="M274.55,89.65l-2.26,2.27c0.24-0.03,0.47-0.03,0.73,0c1.54,0.24,2.42,1.57,2.19,3.07   c-0.26,1.61-1.59,2.58-3.2,2.32c-1.9-0.31-2.55-1.92-2.35-3.18c0.05-0.31,0.21-0.99,0.96-1.74l3.34-3.38L274.55,89.65z    M274.33,94.88c0.16-1.07-0.5-1.98-1.61-2.16s-2,0.52-2.16,1.56c-0.16,1.07,0.45,2.05,1.57,2.22   C273.24,96.68,274.15,95.97,274.33,94.88z"
   id="path1261" />
	<path
   class="st14"
   d="M276.99,96.88c-0.41-0.86-0.52-1.95-0.34-3.08c0.18-1.15,0.62-2.14,1.28-2.82c0.76-0.8,1.62-0.97,2.26-0.88   c0.65,0.1,1.4,0.54,1.87,1.54c0.41,0.86,0.52,1.95,0.34,3.08c-0.18,1.15-0.62,2.14-1.28,2.82c-0.76,0.8-1.62,0.97-2.26,0.88   C278.22,98.31,277.46,97.87,276.99,96.88z M278.53,91.59c-0.54,0.62-0.84,1.51-0.97,2.35s-0.13,1.79,0.21,2.55   c0.31,0.75,0.84,1.06,1.25,1.12c0.41,0.06,1.01-0.06,1.53-0.68c0.54-0.62,0.84-1.51,0.97-2.35s0.13-1.79-0.21-2.55   c-0.31-0.75-0.84-1.06-1.25-1.12C279.65,90.84,279.05,90.97,278.53,91.59z"
   id="path1263" />
	<path
   class="st14"
   d="M283.85,97.96c-0.41-0.86-0.52-1.95-0.34-3.08c0.18-1.15,0.62-2.14,1.28-2.82c0.76-0.8,1.62-0.97,2.26-0.88   c0.63,0.1,1.4,0.54,1.87,1.54c0.41,0.86,0.52,1.95,0.34,3.08c-0.18,1.15-0.62,2.14-1.28,2.82c-0.76,0.8-1.62,0.97-2.26,0.88   C285.09,99.39,284.33,98.95,283.85,97.96z M285.38,92.66c-0.54,0.62-0.84,1.51-0.97,2.35c-0.13,0.84-0.13,1.79,0.21,2.55   c0.31,0.75,0.84,1.06,1.25,1.12s1.01-0.06,1.53-0.68c0.54-0.62,0.84-1.51,0.97-2.35c0.13-0.84,0.11-1.79-0.21-2.55   c-0.31-0.75-0.84-1.06-1.25-1.12C286.5,91.93,285.92,92.06,285.38,92.66z"
   id="path1265" />
	<path
   class="st14"
   d="M296.13,92.27c-0.49,0.84-0.78,1.54-0.84,1.7c-0.21,0.52-0.63,1.66-0.89,3.31c-0.26,1.66-0.21,2.86-0.18,3.42   c0.02,0.18,0.08,0.94,0.28,1.88l-0.81,0.23c-0.1-0.52-0.24-1.36-0.31-1.9c-0.05-0.41-0.18-1.87,0.13-3.78   c0.31-1.92,0.88-3.26,1.06-3.64c0.23-0.5,0.62-1.27,0.88-1.72L296.13,92.27z"
   id="path1267" />
	<path
   class="st14"
   d="M297.72,100.95l2.26-2.27c-0.24,0.03-0.47,0.03-0.73,0c-1.54-0.24-2.42-1.57-2.19-3.07   c0.26-1.61,1.59-2.58,3.2-2.32c1.9,0.29,2.56,1.92,2.35,3.18c-0.05,0.31-0.23,1.01-0.96,1.74l-3.34,3.36L297.72,100.95z    M297.96,95.71c-0.16,1.07,0.5,1.98,1.61,2.16c1.1,0.18,2-0.52,2.16-1.56c0.16-1.07-0.45-2.05-1.57-2.22   C299.03,93.91,298.14,94.62,297.96,95.71z"
   id="path1269" />
	<path
   class="st14"
   d="M303.95,101.15c-0.41-0.86-0.52-1.95-0.34-3.08c0.18-1.15,0.62-2.14,1.28-2.82c0.76-0.8,1.62-0.97,2.26-0.88   c0.63,0.1,1.4,0.54,1.87,1.54c0.41,0.86,0.52,1.93,0.34,3.08c-0.18,1.15-0.62,2.14-1.28,2.82c-0.76,0.8-1.62,0.97-2.26,0.88   C305.18,102.59,304.42,102.14,303.95,101.15z M305.48,95.85c-0.54,0.62-0.84,1.51-0.97,2.35s-0.13,1.79,0.21,2.55   c0.31,0.75,0.84,1.06,1.25,1.12c0.41,0.06,1.01-0.06,1.53-0.68c0.54-0.62,0.84-1.51,0.97-2.35s0.13-1.79-0.21-2.55   c-0.31-0.75-0.84-1.06-1.25-1.12S306.01,95.24,305.48,95.85z"
   id="path1271" />
	<path
   class="st14"
   d="M310.82,102.23c-0.41-0.86-0.52-1.93-0.34-3.08c0.18-1.15,0.62-2.14,1.28-2.82c0.76-0.8,1.62-0.97,2.26-0.88   c0.63,0.1,1.4,0.54,1.87,1.54c0.41,0.86,0.52,1.95,0.34,3.08c-0.18,1.15-0.62,2.14-1.28,2.82c-0.76,0.8-1.62,0.97-2.26,0.88   C312.05,103.66,311.29,103.22,310.82,102.23z M312.34,96.94c-0.54,0.62-0.84,1.51-0.97,2.35c-0.13,0.84-0.13,1.79,0.21,2.55   c0.31,0.75,0.84,1.06,1.25,1.12c0.41,0.06,1.01-0.06,1.53-0.68c0.54-0.62,0.84-1.51,0.97-2.35s0.13-1.79-0.21-2.55   c-0.31-0.75-0.84-1.06-1.25-1.12S312.88,96.33,312.34,96.94z"
   id="path1273" />
	<path
   class="st14"
   d="M316.63,106.11c0.47-0.84,0.78-1.54,0.84-1.7c0.21-0.52,0.63-1.66,0.89-3.31c0.26-1.66,0.21-2.86,0.18-3.42   c-0.02-0.18-0.08-0.94-0.28-1.88l0.81-0.23c0.1,0.5,0.24,1.36,0.31,1.9c0.05,0.41,0.18,1.87-0.13,3.78   c-0.31,1.92-0.88,3.26-1.04,3.64c-0.23,0.5-0.62,1.27-0.88,1.72L316.63,106.11z"
   id="path1275" />
</g>
<g
   id="g1277">
	<g
   id="g1279">
		<path
   class="st14"
   d="M653.4,65.27c0.1-0.44,0.31-0.83,0.55-1.12c0.67-0.75,1.54-0.73,2.01-0.65c1.53,0.23,2.11,1.41,1.93,2.53    c-0.1,0.58-0.42,1.35-1.31,1.62c0.26,0.15,1.07,0.73,0.86,2.13c-0.23,1.51-1.48,2.26-2.86,2.05c-0.83-0.13-1.75-0.63-2.03-1.74    c-0.08-0.31-0.08-0.58-0.05-0.88l0.89,0.13c0,0.29,0.05,0.62,0.16,0.86c0.21,0.42,0.65,0.71,1.15,0.8    c0.89,0.13,1.69-0.49,1.83-1.38c0.06-0.45-0.02-1.1-0.58-1.48c-0.24-0.16-0.57-0.28-0.89-0.31l0.13-0.8    c0.31,0.06,0.67,0.06,0.94-0.03c0.28-0.1,0.75-0.37,0.86-1.09c0.11-0.71-0.18-1.44-1.17-1.59c-0.32-0.05-0.73-0.05-1.1,0.29    c-0.19,0.18-0.37,0.47-0.44,0.8L653.4,65.27z"
   id="path1281" />
		<path
   class="st14"
   d="M664.54,70.92c-0.19,1.25-1.18,2.24-2.82,1.98c-1.64-0.26-2.29-1.49-2.09-2.74    c0.13-0.88,0.65-1.54,1.53-1.79c-0.58-0.47-0.83-1.17-0.7-1.92c0.18-1.15,1.12-2.11,2.56-1.9c1.44,0.23,2.06,1.43,1.88,2.58    c-0.11,0.75-0.55,1.33-1.25,1.61C664.38,69.27,664.67,70.06,664.54,70.92z M663.65,70.76c0.15-0.91-0.42-1.64-1.33-1.77    c-0.93-0.15-1.67,0.39-1.8,1.3c-0.15,0.93,0.41,1.67,1.33,1.82C662.75,72.24,663.5,71.69,663.65,70.76z M664.02,67.04    c0.13-0.88-0.42-1.53-1.15-1.64c-0.73-0.11-1.46,0.34-1.59,1.22c-0.13,0.8,0.37,1.48,1.17,1.61    C663.21,68.34,663.89,67.84,664.02,67.04z"
   id="path1283" />
		<path
   class="st14"
   d="M665.77,73.39l3.46-2.94c0.24-0.21,0.89-0.76,1.12-1.02c0.44-0.47,0.58-0.84,0.63-1.17    c0.15-0.91-0.41-1.67-1.36-1.82c-0.57-0.08-1.07,0.1-1.44,0.5c-0.19,0.21-0.34,0.5-0.41,0.91l-0.89-0.13    c0.16-0.81,0.49-1.27,0.86-1.57c0.41-0.34,1.04-0.68,2.03-0.52c1.43,0.23,2.34,1.4,2.13,2.79c-0.08,0.54-0.32,1.01-0.91,1.62    c-0.41,0.42-0.93,0.84-1.31,1.17l-1.96,1.64l3.41,0.52l-0.13,0.83L665.77,73.39z"
   id="path1285" />
		<path
   class="st14"
   d="M678.94,66.7c-0.47,0.84-0.78,1.56-0.83,1.72c-0.21,0.52-0.63,1.66-0.88,3.31    c-0.26,1.66-0.21,2.86-0.16,3.42c0.02,0.18,0.08,0.94,0.28,1.88l-0.81,0.23c-0.11-0.5-0.24-1.36-0.31-1.9    c-0.05-0.41-0.18-1.85,0.11-3.78c0.29-1.92,0.86-3.26,1.04-3.64c0.23-0.5,0.62-1.27,0.88-1.72L678.94,66.7z"
   id="path1287" />
		<path
   class="st14"
   d="M685.3,68.99l-2.58-0.41l-0.8,1.66c0.16-0.02,0.32,0,0.52,0.03c1.62,0.24,2.47,1.62,2.22,3.2    c-0.28,1.8-1.8,2.69-3.38,2.45c-0.65-0.1-1.23-0.37-1.7-0.91c-0.23-0.26-0.44-0.57-0.57-0.93l0.8-0.41    c0.1,0.29,0.23,0.5,0.44,0.73c0.29,0.32,0.68,0.6,1.23,0.68c1.14,0.18,2.13-0.63,2.3-1.75c0.18-1.15-0.54-2.11-1.67-2.29    c-0.29-0.05-0.84-0.08-1.64,0.31l1.77-3.72l3.2,0.49L685.3,68.99z"
   id="path1289" />
		<path
   class="st14"
   d="M687.25,70.5c0.1-0.44,0.31-0.83,0.55-1.12c0.67-0.75,1.54-0.73,2.01-0.65c1.53,0.23,2.11,1.41,1.93,2.53    c-0.1,0.58-0.42,1.35-1.31,1.62c0.26,0.15,1.07,0.73,0.86,2.13c-0.23,1.51-1.48,2.26-2.86,2.05c-0.83-0.13-1.75-0.63-2.03-1.74    c-0.08-0.31-0.08-0.58-0.05-0.88l0.89,0.13c-0.02,0.29,0.05,0.62,0.16,0.86c0.21,0.42,0.65,0.71,1.15,0.8    c0.89,0.13,1.69-0.49,1.83-1.38c0.06-0.45-0.02-1.1-0.58-1.48c-0.23-0.16-0.57-0.28-0.89-0.31l0.13-0.8    c0.31,0.06,0.67,0.06,0.94-0.03c0.28-0.1,0.75-0.37,0.86-1.09c0.11-0.71-0.18-1.44-1.17-1.59c-0.32-0.05-0.73-0.05-1.1,0.29    c-0.19,0.18-0.37,0.47-0.44,0.8L687.25,70.5z"
   id="path1291" />
		<path
   class="st14"
   d="M692.73,77.55l3.46-2.94c0.24-0.21,0.89-0.76,1.12-1.02c0.44-0.47,0.58-0.84,0.63-1.17    c0.15-0.91-0.41-1.67-1.36-1.82c-0.57-0.08-1.07,0.1-1.44,0.5c-0.19,0.21-0.34,0.5-0.41,0.91l-0.89-0.13    c0.16-0.81,0.49-1.27,0.86-1.57c0.39-0.34,1.04-0.68,2.03-0.52c1.43,0.23,2.34,1.4,2.13,2.79c-0.08,0.54-0.32,1.01-0.91,1.62    c-0.41,0.42-0.93,0.84-1.3,1.17l-1.96,1.64l3.41,0.52l-0.13,0.83L692.73,77.55z"
   id="path1293" />
		<path
   class="st14"
   d="M699.49,80.47c0.47-0.84,0.76-1.56,0.83-1.72c0.21-0.52,0.63-1.66,0.88-3.31c0.26-1.66,0.21-2.86,0.16-3.42    c-0.02-0.18-0.08-0.94-0.28-1.88l0.81-0.23c0.11,0.5,0.24,1.36,0.31,1.9c0.05,0.41,0.18,1.85-0.11,3.78    c-0.29,1.92-0.86,3.26-1.04,3.64c-0.23,0.5-0.62,1.27-0.88,1.72L699.49,80.47z"
   id="path1295" />
		<path
   class="st14"
   d="M731.03,75.52l-2.24,2.29c0.24-0.03,0.47-0.03,0.73,0c1.54,0.24,2.43,1.56,2.19,3.07    c-0.24,1.61-1.59,2.58-3.2,2.34c-1.9-0.29-2.56-1.9-2.37-3.17c0.05-0.31,0.21-0.99,0.94-1.75l3.33-3.38L731.03,75.52z     M730.81,80.76c0.16-1.07-0.5-1.98-1.61-2.16c-1.1-0.16-2,0.52-2.16,1.57c-0.16,1.07,0.47,2.05,1.59,2.21    C729.74,82.56,730.64,81.85,730.81,80.76z"
   id="path1297" />
		<path
   class="st14"
   d="M733.49,82.74c-0.41-0.86-0.54-1.93-0.36-3.08c0.18-1.15,0.62-2.14,1.27-2.84c0.76-0.8,1.61-0.99,2.26-0.89    s1.4,0.54,1.88,1.53c0.41,0.86,0.54,1.93,0.36,3.08s-0.62,2.14-1.27,2.84c-0.75,0.8-1.61,0.99-2.26,0.89    C734.73,84.17,733.96,83.73,733.49,82.74z M735,77.43c-0.54,0.62-0.84,1.51-0.97,2.37c-0.13,0.84-0.11,1.79,0.21,2.55    c0.32,0.75,0.84,1.04,1.25,1.1c0.41,0.06,1.01-0.06,1.53-0.68c0.54-0.62,0.84-1.51,0.97-2.37c0.13-0.84,0.11-1.79-0.21-2.55    c-0.32-0.75-0.84-1.04-1.25-1.1C736.12,76.68,735.52,76.83,735,77.43z"
   id="path1299" />
		<path
   class="st14"
   d="M740.36,83.81c-0.41-0.86-0.54-1.93-0.36-3.08s0.62-2.14,1.27-2.84c0.75-0.8,1.61-0.99,2.26-0.89    c0.63,0.1,1.4,0.54,1.88,1.53c0.41,0.86,0.54,1.93,0.36,3.08c-0.18,1.15-0.62,2.14-1.27,2.84c-0.75,0.8-1.61,0.99-2.26,0.89    C741.59,85.22,740.83,84.78,740.36,83.81z M741.87,78.49c-0.54,0.62-0.84,1.51-0.97,2.37c-0.13,0.84-0.11,1.79,0.21,2.55    c0.32,0.75,0.84,1.04,1.25,1.1c0.41,0.06,1.01-0.06,1.53-0.68c0.54-0.62,0.84-1.51,0.97-2.37c0.13-0.84,0.11-1.79-0.21-2.55    c-0.32-0.75-0.84-1.04-1.25-1.1C742.99,77.76,742.39,77.89,741.87,78.49z"
   id="path1301" />
		<path
   class="st14"
   d="M752.6,78.06c-0.47,0.84-0.78,1.56-0.83,1.72c-0.21,0.52-0.63,1.66-0.88,3.31    c-0.26,1.66-0.21,2.86-0.16,3.42c0.02,0.18,0.08,0.94,0.28,1.88l-0.81,0.23c-0.11-0.5-0.24-1.36-0.31-1.9    c-0.05-0.41-0.18-1.85,0.11-3.78c0.29-1.92,0.86-3.26,1.04-3.64c0.23-0.5,0.62-1.27,0.88-1.72L752.6,78.06z"
   id="path1303" />
		<path
   class="st14"
   d="M754.24,86.72l2.24-2.29c-0.24,0.03-0.47,0.03-0.73,0c-1.54-0.24-2.43-1.56-2.19-3.07    c0.24-1.61,1.59-2.58,3.2-2.34c1.9,0.29,2.56,1.9,2.37,3.18c-0.05,0.31-0.21,1.01-0.94,1.75l-3.33,3.38L754.24,86.72z     M754.45,81.49c-0.16,1.07,0.5,1.98,1.61,2.16c1.1,0.16,2-0.52,2.16-1.57c0.16-1.07-0.47-2.05-1.59-2.21    C755.52,79.69,754.61,80.4,754.45,81.49z"
   id="path1305" />
		<path
   class="st14"
   d="M760.45,86.89c-0.41-0.86-0.54-1.93-0.36-3.08c0.18-1.15,0.62-2.14,1.27-2.84c0.76-0.8,1.61-0.99,2.26-0.89    c0.63,0.1,1.4,0.54,1.88,1.53c0.41,0.86,0.54,1.93,0.36,3.08c-0.18,1.15-0.62,2.14-1.27,2.84c-0.75,0.8-1.61,0.99-2.26,0.89    C761.7,88.32,760.94,87.88,760.45,86.89z M761.96,81.59c-0.54,0.62-0.84,1.51-0.97,2.35c-0.13,0.84-0.11,1.79,0.21,2.55    c0.32,0.75,0.84,1.04,1.25,1.1c0.41,0.06,1.01-0.06,1.53-0.68c0.54-0.62,0.84-1.51,0.97-2.37c0.13-0.84,0.11-1.79-0.21-2.55    c-0.32-0.75-0.84-1.04-1.25-1.1C763.08,80.86,762.5,80.99,761.96,81.59z"
   id="path1307" />
		<path
   class="st14"
   d="M767.32,87.97c-0.41-0.86-0.54-1.93-0.36-3.08s0.62-2.14,1.27-2.84c0.75-0.8,1.61-0.99,2.26-0.89    c0.63,0.1,1.4,0.54,1.88,1.53c0.41,0.86,0.54,1.93,0.36,3.08c-0.18,1.15-0.62,2.14-1.27,2.84c-0.75,0.8-1.61,0.99-2.26,0.89    C768.57,89.39,767.81,88.96,767.32,87.97z M768.83,82.66c-0.54,0.62-0.84,1.51-0.97,2.35c-0.13,0.84-0.11,1.79,0.21,2.55    c0.32,0.75,0.84,1.04,1.25,1.1c0.41,0.06,1.01-0.06,1.53-0.68c0.54-0.62,0.84-1.51,0.97-2.37c0.13-0.84,0.11-1.79-0.21-2.55    c-0.32-0.75-0.84-1.04-1.25-1.1C769.95,81.91,769.37,82.04,768.83,82.66z"
   id="path1309" />
		<path
   class="st14"
   d="M773.16,91.81c0.47-0.84,0.76-1.56,0.83-1.72c0.21-0.52,0.63-1.66,0.88-3.31c0.26-1.66,0.21-2.86,0.16-3.42    c-0.02-0.18-0.08-0.94-0.28-1.88l0.81-0.23c0.11,0.5,0.24,1.36,0.31,1.9c0.05,0.41,0.18,1.87-0.11,3.78    c-0.29,1.92-0.86,3.26-1.02,3.64c-0.23,0.5-0.62,1.27-0.88,1.72L773.16,91.81z"
   id="path1311" />
		<path
   class="st14"
   d="M803.55,88.42c0.1-0.44,0.31-0.83,0.55-1.12c0.67-0.75,1.54-0.73,2.01-0.65c1.53,0.23,2.11,1.41,1.93,2.53    c-0.1,0.58-0.42,1.35-1.31,1.62c0.26,0.15,1.07,0.73,0.86,2.13c-0.23,1.51-1.48,2.26-2.86,2.05c-0.83-0.13-1.75-0.63-2.03-1.74    c-0.08-0.31-0.08-0.58-0.05-0.88l0.89,0.13c-0.02,0.29,0.05,0.62,0.16,0.86c0.21,0.42,0.65,0.71,1.15,0.8    c0.89,0.13,1.7-0.49,1.83-1.38c0.06-0.45-0.02-1.1-0.58-1.48c-0.23-0.16-0.57-0.28-0.89-0.31l0.13-0.8    c0.31,0.06,0.67,0.06,0.94-0.03c0.28-0.1,0.75-0.37,0.86-1.09c0.11-0.71-0.18-1.44-1.17-1.59c-0.32-0.05-0.73-0.05-1.1,0.29    c-0.19,0.18-0.37,0.45-0.44,0.8L803.55,88.42z"
   id="path1313" />
		<path
   class="st14"
   d="M814.67,94.07c-0.19,1.25-1.18,2.24-2.82,1.98c-1.64-0.26-2.29-1.49-2.09-2.74    c0.13-0.88,0.65-1.54,1.53-1.79c-0.58-0.47-0.83-1.17-0.71-1.92c0.18-1.15,1.12-2.11,2.56-1.9c1.44,0.23,2.06,1.43,1.88,2.58    c-0.11,0.75-0.55,1.33-1.25,1.61C814.52,92.4,814.81,93.19,814.67,94.07z M813.79,93.91c0.15-0.91-0.42-1.64-1.33-1.77    c-0.93-0.15-1.67,0.39-1.8,1.3c-0.15,0.93,0.41,1.67,1.33,1.82C812.9,95.38,813.65,94.83,813.79,93.91z M814.17,90.17    c0.13-0.88-0.42-1.53-1.15-1.64c-0.73-0.11-1.46,0.32-1.59,1.22c-0.13,0.8,0.37,1.48,1.17,1.61    C813.35,91.49,814.04,90.99,814.17,90.17z"
   id="path1315" />
		<path
   class="st14"
   d="M815.9,96.54l3.46-2.94c0.24-0.21,0.89-0.76,1.12-1.02c0.44-0.47,0.58-0.84,0.63-1.17    c0.15-0.91-0.41-1.67-1.36-1.82c-0.57-0.08-1.09,0.1-1.44,0.5c-0.19,0.21-0.34,0.5-0.41,0.91l-0.89-0.13    c0.16-0.81,0.49-1.27,0.86-1.57c0.39-0.34,1.04-0.68,2.03-0.52c1.43,0.23,2.34,1.4,2.13,2.79c-0.08,0.54-0.31,1.02-0.91,1.62    c-0.41,0.42-0.93,0.84-1.3,1.17L817.83,96l3.41,0.52l-0.13,0.83L815.9,96.54z"
   id="path1317" />
		<path
   class="st14"
   d="M829.08,89.85c-0.47,0.84-0.76,1.56-0.83,1.72c-0.21,0.52-0.63,1.66-0.88,3.31    c-0.26,1.66-0.21,2.86-0.16,3.42c0.02,0.18,0.08,0.94,0.28,1.88l-0.81,0.23c-0.11-0.5-0.24-1.36-0.31-1.9    c-0.05-0.41-0.18-1.87,0.11-3.78c0.29-1.92,0.86-3.26,1.04-3.64c0.23-0.5,0.62-1.27,0.88-1.72L829.08,89.85z"
   id="path1319" />
		<path
   class="st14"
   d="M835.45,92.14l-2.58-0.41l-0.78,1.66c0.16-0.02,0.32,0,0.52,0.03c1.62,0.24,2.47,1.62,2.22,3.2    c-0.28,1.8-1.8,2.69-3.38,2.45c-0.65-0.1-1.23-0.37-1.7-0.91c-0.23-0.26-0.44-0.57-0.57-0.93l0.8-0.41    c0.1,0.29,0.23,0.5,0.44,0.73c0.29,0.32,0.68,0.6,1.23,0.68c1.14,0.18,2.13-0.62,2.3-1.75c0.18-1.15-0.54-2.11-1.67-2.29    c-0.29-0.05-0.84-0.08-1.64,0.31l1.77-3.72l3.2,0.49L835.45,92.14z"
   id="path1321" />
		<path
   class="st14"
   d="M837.38,93.63c0.1-0.44,0.31-0.83,0.55-1.12c0.67-0.75,1.54-0.73,2.01-0.65c1.53,0.23,2.11,1.41,1.93,2.53    c-0.1,0.58-0.42,1.35-1.31,1.62c0.26,0.15,1.07,0.73,0.86,2.13c-0.23,1.51-1.48,2.26-2.86,2.05c-0.83-0.13-1.75-0.63-2.03-1.74    c-0.08-0.31-0.08-0.58-0.05-0.88l0.89,0.13c0,0.29,0.05,0.62,0.16,0.86c0.21,0.42,0.65,0.71,1.15,0.8    c0.89,0.13,1.69-0.49,1.83-1.38c0.06-0.45-0.02-1.1-0.58-1.48c-0.24-0.16-0.57-0.28-0.89-0.31l0.13-0.8    c0.31,0.06,0.67,0.06,0.94-0.03c0.28-0.1,0.75-0.37,0.86-1.09c0.11-0.71-0.18-1.44-1.17-1.59c-0.32-0.05-0.73-0.05-1.1,0.31    c-0.19,0.18-0.37,0.45-0.44,0.8L837.38,93.63z"
   id="path1323" />
		<path
   class="st14"
   d="M842.88,100.69l3.46-2.94c0.24-0.21,0.89-0.76,1.12-1.02c0.44-0.47,0.58-0.84,0.63-1.17    c0.15-0.91-0.41-1.67-1.36-1.82c-0.57-0.08-1.07,0.1-1.44,0.5c-0.19,0.21-0.34,0.5-0.41,0.91l-0.89-0.13    c0.16-0.81,0.49-1.27,0.86-1.57c0.41-0.34,1.04-0.68,2.03-0.52c1.43,0.23,2.34,1.4,2.13,2.79c-0.08,0.54-0.31,1.01-0.91,1.62    c-0.41,0.42-0.93,0.84-1.31,1.17l-1.96,1.64l3.41,0.52l-0.13,0.83L842.88,100.69z"
   id="path1325" />
		<path
   class="st14"
   d="M849.63,103.6c0.47-0.84,0.76-1.56,0.83-1.72c0.21-0.52,0.63-1.66,0.88-3.31c0.26-1.66,0.21-2.86,0.16-3.42    c-0.02-0.18-0.08-0.94-0.28-1.88l0.81-0.23c0.11,0.5,0.24,1.36,0.31,1.9c0.05,0.41,0.18,1.87-0.11,3.78s-0.86,3.26-1.02,3.64    c-0.23,0.5-0.62,1.27-0.88,1.72L849.63,103.6z"
   id="path1327" />
		<path
   class="st14"
   d="M886.8,99.54l-2.24,2.29c0.24-0.03,0.47-0.03,0.73,0c1.54,0.24,2.43,1.56,2.19,3.07    c-0.24,1.61-1.59,2.58-3.2,2.34c-1.9-0.29-2.56-1.9-2.37-3.18c0.05-0.31,0.21-0.99,0.94-1.75l3.33-3.38L886.8,99.54z     M886.59,104.77c0.16-1.07-0.5-1.98-1.61-2.16c-1.1-0.16-2,0.52-2.16,1.57c-0.16,1.07,0.47,2.05,1.59,2.21    C885.52,106.57,886.41,105.85,886.59,104.77z"
   id="path1329" />
		<path
   class="st14"
   d="M889.25,106.75c-0.41-0.86-0.54-1.93-0.36-3.08c0.18-1.15,0.62-2.14,1.27-2.84c0.76-0.8,1.61-0.99,2.26-0.89    c0.65,0.1,1.4,0.54,1.88,1.53c0.41,0.86,0.54,1.93,0.36,3.08c-0.18,1.15-0.62,2.14-1.27,2.84c-0.75,0.8-1.61,0.99-2.26,0.89    C890.5,108.17,889.74,107.74,889.25,106.75z M890.78,101.44c-0.54,0.62-0.84,1.51-0.97,2.35c-0.13,0.84-0.11,1.79,0.21,2.55    c0.32,0.75,0.84,1.04,1.25,1.1c0.41,0.06,1.01-0.06,1.53-0.68c0.54-0.62,0.84-1.51,0.97-2.37c0.13-0.84,0.11-1.79-0.21-2.55    c-0.32-0.75-0.84-1.04-1.25-1.1C891.88,100.71,891.3,100.84,890.78,101.44z"
   id="path1331" />
		<path
   class="st14"
   d="M896.14,107.82c-0.41-0.86-0.54-1.93-0.36-3.08c0.18-1.15,0.62-2.14,1.27-2.84c0.75-0.8,1.61-0.99,2.26-0.89    c0.63,0.1,1.4,0.54,1.88,1.53c0.41,0.86,0.54,1.93,0.36,3.08c-0.18,1.15-0.62,2.14-1.27,2.84c-0.75,0.8-1.61,0.99-2.26,0.89    C897.37,109.25,896.61,108.81,896.14,107.82z M897.65,102.51c-0.54,0.62-0.84,1.51-0.97,2.35c-0.13,0.84-0.11,1.79,0.21,2.55    c0.32,0.75,0.84,1.04,1.25,1.1c0.41,0.06,1.01-0.06,1.53-0.68c0.54-0.62,0.84-1.51,0.97-2.37c0.13-0.84,0.11-1.79-0.21-2.55    c-0.32-0.75-0.84-1.04-1.25-1.1C898.75,101.76,898.16,101.89,897.65,102.51z"
   id="path1333" />
		<path
   class="st14"
   d="M908.37,102.07c-0.47,0.84-0.78,1.56-0.83,1.72c-0.21,0.52-0.63,1.66-0.88,3.31    c-0.26,1.66-0.21,2.86-0.16,3.42c0.02,0.18,0.08,0.94,0.28,1.88l-0.81,0.23c-0.11-0.5-0.24-1.36-0.31-1.9    c-0.05-0.41-0.18-1.85,0.11-3.78c0.29-1.92,0.86-3.26,1.04-3.64c0.23-0.5,0.62-1.27,0.88-1.72L908.37,102.07z"
   id="path1335" />
		<path
   class="st14"
   d="M910.01,110.74l2.24-2.29c-0.24,0.03-0.47,0.03-0.73,0c-1.54-0.24-2.43-1.56-2.19-3.07    c0.24-1.61,1.59-2.58,3.2-2.34c1.9,0.29,2.56,1.9,2.37,3.18c-0.05,0.31-0.21,1.01-0.94,1.75l-3.33,3.38L910.01,110.74z     M910.23,105.5c-0.16,1.07,0.5,1.98,1.61,2.16c1.1,0.16,2-0.52,2.16-1.57c0.16-1.07-0.47-2.05-1.59-2.21    C911.3,103.69,910.39,104.41,910.23,105.5z"
   id="path1337" />
		<path
   class="st14"
   d="M916.23,110.92c-0.41-0.86-0.54-1.93-0.36-3.08c0.18-1.15,0.62-2.14,1.27-2.84c0.76-0.8,1.61-0.99,2.26-0.89    c0.65,0.1,1.4,0.54,1.88,1.53c0.41,0.86,0.54,1.93,0.36,3.08c-0.18,1.15-0.62,2.14-1.27,2.84c-0.75,0.8-1.61,0.99-2.26,0.89    C917.48,112.35,916.72,111.91,916.23,110.92z M917.74,105.61c-0.54,0.62-0.84,1.51-0.97,2.37c-0.13,0.84-0.11,1.79,0.21,2.55    c0.32,0.75,0.84,1.04,1.25,1.1c0.41,0.06,1.01-0.06,1.53-0.68c0.54-0.62,0.84-1.51,0.97-2.35c0.13-0.84,0.11-1.79-0.21-2.55    c-0.32-0.75-0.84-1.04-1.25-1.1C918.86,104.86,918.28,104.99,917.74,105.61z"
   id="path1339" />
		<path
   class="st14"
   d="M923.1,111.97c-0.41-0.86-0.54-1.93-0.36-3.08c0.18-1.15,0.62-2.14,1.27-2.84c0.75-0.8,1.61-0.99,2.26-0.89    c0.63,0.1,1.4,0.54,1.88,1.53c0.41,0.86,0.54,1.93,0.36,3.08c-0.18,1.15-0.62,2.14-1.27,2.84c-0.75,0.8-1.61,0.99-2.26,0.89    C924.35,113.4,923.58,112.96,923.1,111.97z M924.61,106.67c-0.54,0.62-0.84,1.51-0.97,2.37c-0.13,0.84-0.11,1.79,0.21,2.55    c0.32,0.75,0.84,1.04,1.25,1.1c0.41,0.06,1.01-0.06,1.53-0.68c0.54-0.62,0.84-1.51,0.97-2.37c0.13-0.84,0.11-1.79-0.21-2.55    c-0.32-0.75-0.84-1.04-1.25-1.1C925.73,105.92,925.14,106.05,924.61,106.67z"
   id="path1341" />
		<path
   class="st14"
   d="M928.92,115.82c0.47-0.84,0.76-1.56,0.83-1.72c0.21-0.52,0.63-1.66,0.88-3.31c0.26-1.66,0.21-2.86,0.16-3.42    c-0.02-0.18-0.08-0.94-0.28-1.88l0.81-0.23c0.11,0.5,0.24,1.36,0.31,1.9c0.05,0.41,0.18,1.87-0.11,3.78s-0.86,3.26-1.04,3.64    c-0.23,0.5-0.62,1.27-0.88,1.72L928.92,115.82z"
   id="path1343" />
		<path
   class="st14"
   d="M956.5,111.99c0.1-0.44,0.31-0.83,0.55-1.12c0.67-0.75,1.54-0.73,2.01-0.65c1.53,0.24,2.11,1.41,1.93,2.53    c-0.1,0.58-0.42,1.35-1.31,1.62c0.26,0.15,1.07,0.73,0.86,2.13c-0.23,1.51-1.48,2.26-2.86,2.05c-0.83-0.13-1.75-0.63-2.03-1.74    c-0.08-0.31-0.08-0.58-0.05-0.88l0.89,0.13c0,0.29,0.05,0.62,0.16,0.86c0.21,0.42,0.65,0.71,1.15,0.8    c0.89,0.13,1.7-0.49,1.83-1.38c0.06-0.45-0.02-1.1-0.58-1.48c-0.23-0.16-0.57-0.28-0.89-0.31l0.13-0.8    c0.31,0.06,0.67,0.06,0.94-0.03c0.28-0.1,0.75-0.37,0.86-1.09c0.11-0.71-0.18-1.44-1.17-1.59c-0.32-0.05-0.73-0.05-1.1,0.29    c-0.19,0.18-0.37,0.47-0.44,0.8L956.5,111.99z"
   id="path1345" />
		<path
   class="st14"
   d="M967.64,117.64c-0.19,1.25-1.18,2.24-2.82,2c-1.64-0.26-2.29-1.49-2.09-2.74c0.13-0.88,0.65-1.54,1.53-1.79    c-0.58-0.47-0.83-1.17-0.71-1.92c0.18-1.15,1.12-2.11,2.56-1.9c1.44,0.23,2.06,1.43,1.88,2.58c-0.11,0.75-0.55,1.33-1.25,1.61    C967.49,115.98,967.77,116.78,967.64,117.64z M966.74,117.49c0.15-0.91-0.42-1.64-1.33-1.77c-0.91-0.15-1.67,0.39-1.8,1.3    c-0.15,0.93,0.41,1.67,1.33,1.82C965.87,118.95,966.6,118.4,966.74,117.49z M967.12,113.76c0.13-0.88-0.42-1.53-1.15-1.64    c-0.73-0.11-1.46,0.32-1.59,1.22c-0.13,0.8,0.37,1.48,1.17,1.61C966.32,115.06,967,114.55,967.12,113.76z"
   id="path1347" />
		<path
   class="st14"
   d="M968.87,120.11l3.46-2.94c0.24-0.21,0.89-0.76,1.12-1.02c0.44-0.47,0.58-0.84,0.63-1.17    c0.15-0.91-0.41-1.67-1.36-1.82c-0.57-0.08-1.07,0.1-1.44,0.5c-0.19,0.21-0.34,0.5-0.41,0.91l-0.89-0.13    c0.16-0.81,0.49-1.27,0.86-1.57c0.41-0.34,1.04-0.68,2.03-0.52c1.43,0.23,2.34,1.4,2.13,2.79c-0.08,0.54-0.31,1.01-0.91,1.62    c-0.41,0.42-0.93,0.84-1.31,1.17l-1.96,1.64l3.41,0.52l-0.13,0.83L968.87,120.11z"
   id="path1349" />
		<path
   class="st14"
   d="M982.03,113.42c-0.47,0.84-0.78,1.56-0.83,1.72c-0.21,0.52-0.63,1.66-0.88,3.31    c-0.26,1.66-0.21,2.86-0.16,3.42c0.02,0.18,0.08,0.94,0.28,1.88l-0.81,0.23c-0.11-0.5-0.24-1.36-0.31-1.9    c-0.05-0.41-0.18-1.87,0.11-3.78c0.29-1.92,0.86-3.26,1.04-3.64c0.23-0.5,0.62-1.27,0.88-1.72L982.03,113.42z"
   id="path1351" />
		<path
   class="st14"
   d="M988.4,115.71l-2.58-0.41l-0.78,1.66c0.16-0.02,0.32,0,0.52,0.03c1.62,0.24,2.47,1.62,2.22,3.2    c-0.28,1.8-1.8,2.69-3.38,2.45c-0.65-0.1-1.23-0.37-1.7-0.91c-0.23-0.26-0.44-0.57-0.57-0.93l0.8-0.39    c0.1,0.29,0.23,0.5,0.44,0.73c0.29,0.32,0.68,0.6,1.23,0.68c1.14,0.18,2.13-0.62,2.3-1.75c0.18-1.15-0.54-2.11-1.67-2.29    c-0.29-0.05-0.84-0.08-1.64,0.31l1.77-3.72l3.2,0.49L988.4,115.71z"
   id="path1353" />
		<path
   class="st14"
   d="M990.35,117.22c0.1-0.44,0.31-0.83,0.55-1.12c0.67-0.75,1.54-0.73,2.01-0.65c1.53,0.24,2.11,1.41,1.93,2.53    c-0.1,0.58-0.42,1.35-1.31,1.62c0.26,0.15,1.07,0.73,0.86,2.13c-0.23,1.51-1.48,2.26-2.86,2.05c-0.83-0.13-1.75-0.63-2.03-1.74    c-0.08-0.31-0.08-0.58-0.05-0.88l0.89,0.13c0,0.29,0.05,0.62,0.16,0.86c0.21,0.42,0.65,0.71,1.15,0.8    c0.89,0.13,1.69-0.49,1.83-1.38c0.06-0.45-0.02-1.1-0.58-1.48c-0.23-0.16-0.57-0.28-0.89-0.31l0.13-0.8    c0.31,0.06,0.67,0.06,0.94-0.03c0.28-0.1,0.75-0.37,0.86-1.09c0.11-0.71-0.18-1.44-1.17-1.59c-0.32-0.05-0.73-0.05-1.1,0.29    c-0.19,0.18-0.37,0.47-0.44,0.8L990.35,117.22z"
   id="path1355" />
		<path
   class="st14"
   d="M995.83,124.28l3.46-2.94c0.24-0.21,0.89-0.76,1.12-1.02c0.44-0.47,0.58-0.84,0.63-1.17    c0.15-0.91-0.41-1.67-1.36-1.82c-0.57-0.08-1.07,0.1-1.44,0.5c-0.19,0.21-0.34,0.5-0.41,0.91l-0.89-0.13    c0.16-0.81,0.49-1.27,0.86-1.57c0.41-0.34,1.04-0.68,2.03-0.52c1.43,0.23,2.34,1.4,2.13,2.79c-0.08,0.54-0.32,1.02-0.91,1.62    c-0.41,0.42-0.93,0.84-1.31,1.17l-1.96,1.64l3.41,0.52l-0.13,0.83L995.83,124.28z"
   id="path1357" />
		<path
   class="st14"
   d="M1002.6,127.18c0.47-0.84,0.76-1.56,0.83-1.72c0.21-0.52,0.63-1.66,0.88-3.31c0.26-1.66,0.21-2.86,0.16-3.42    c-0.02-0.18-0.08-0.94-0.28-1.88l0.81-0.23c0.11,0.5,0.24,1.36,0.31,1.9c0.05,0.41,0.18,1.87-0.11,3.78    c-0.29,1.92-0.86,3.26-1.04,3.64c-0.23,0.5-0.62,1.27-0.88,1.72L1002.6,127.18z"
   id="path1359" />
	</g>
</g>
</svg>