<?xml version="1.0" encoding="utf-8"?>
<!-- Generator: Adobe Illustrator 21.0.2, SVG Export Plug-In . SVG Version: 6.00 Build 0)  -->
<svg version="1.1" id="Слой_1" xmlns="http://www.w3.org/2000/svg" xmlns:xlink="http://www.w3.org/1999/xlink" x="0px" y="0px"
	 viewBox="0 0 147 115" enable-background="new 0 0 147 115" xml:space="preserve">
<polygon fill="#FFFFFF" points="103.385,57.508 54.848,94.82 54.848,20.191 "/>
<path fill="#FFFFFF" d="M112.993,115H34.008C15.256,115,0,99.6,0,80.67V34.331C0,15.401,15.256,0,34.008,0h78.985
	C131.745,0,147,15.401,147,34.331V80.67C147,99.6,131.745,115,112.993,115z M34.008,6.027c-15.46,0-28.038,12.697-28.038,28.304
	V80.67c0,15.607,12.578,28.305,28.038,28.305h78.985c15.46,0,28.037-12.697,28.037-28.305V34.331
	c0-15.607-12.577-28.304-28.037-28.304H34.008z"/>
</svg>
