<?xml version="1.0" encoding="utf-8"?>
<!-- Generator: Adobe Illustrator 24.2.0, SVG Export Plug-In . SVG Version: 6.00 Build 0)  -->
<svg version="1.1" id="Слой_1" xmlns="http://www.w3.org/2000/svg" xmlns:xlink="http://www.w3.org/1999/xlink" x="0px" y="0px"
	 viewBox="0 0 285 185" style="enable-background:new 0 0 285 185;" xml:space="preserve">
<style type="text/css">
	.st0{fill:#EDEDED;}
	.st1{fill:#E6332A;}
	.st2{fill:#D01317;}
	.st3{fill:#E21113;}
	.st4{fill:#444646;}
	.st5{fill:#525251;stroke:#373636;stroke-width:0.2472;stroke-miterlimit:10;}
	.st6{fill-rule:evenodd;clip-rule:evenodd;fill:#0A3C70;}
	.st7{fill-rule:evenodd;clip-rule:evenodd;fill:#4B4645;}
	.st8{fill-rule:evenodd;clip-rule:evenodd;fill:#413E3B;}
	.st9{fill-rule:evenodd;clip-rule:evenodd;fill:#265AA6;}
	.st10{fill-rule:evenodd;clip-rule:evenodd;fill:#0D468F;}
	.st11{fill-rule:evenodd;clip-rule:evenodd;fill:#F8FCFE;}
	.st12{fill-rule:evenodd;clip-rule:evenodd;fill:#FAC42B;}
	.st13{fill-rule:evenodd;clip-rule:evenodd;fill:#FFFFFF;}
	.st14{fill-rule:evenodd;clip-rule:evenodd;fill:#C9CBCC;}
	.st15{fill:#C2C7C1;}
	.st16{fill:#313133;}
	.st17{fill:#010202;}
</style>
<g>
	
		<rect x="70.4" y="143.6" transform="matrix(-1 3.318470e-03 -3.318470e-03 -1 298.1645 292.3483)" class="st0" width="157" height="5.6"/>
	
		<rect x="70.4" y="149.1" transform="matrix(-1 3.318470e-03 -3.318470e-03 -1 298.1999 299.8975)" class="st1" width="157" height="2.1"/>
	<path class="st2" d="M69,151.6l1.5,0l0-7.9l-1.5,0c0,0-0.7,0.7-0.6,3.8C68.4,150.8,69,151.6,69,151.6z"/>
	<g id="LWPOLYLINE_69_">
		<g>
			<polygon class="st3" points="117.9,148.5 103.1,148.5 101.3,145.4 119.7,145.3 			"/>
		</g>
	</g>
	<g>
		<g>
			<g id="LWPOLYLINE_11_">
				<polygon class="st3" points="151,145.2 136.1,145.3 134.4,148.5 152.7,148.4 				"/>
			</g>
		</g>
	</g>
	<g>
		<g id="LWPOLYLINE_65_">
			<g>
				<path class="st4" d="M74.1,145.5l13.3,0c0.3,0,0.5,0.2,0.6,0.4l1.1,2.6c0.2,0.4-0.1,0.9-0.6,0.9l-15.6,0c-0.5,0-0.8-0.5-0.6-0.9
					l1.1-2.6C73.6,145.6,73.8,145.5,74.1,145.5z"/>
			</g>
		</g>
		<g>
			<g id="LWPOLYLINE_64_">
				<polygon class="st5" points="77.5,148.9 77.5,146.1 79.2,146.1 79.2,146.8 78.3,146.8 78.3,147.2 79.1,147.2 79.1,147.8 
					78.3,147.8 78.3,148.2 79.2,148.2 79.2,148.9 				"/>
			</g>
			<path class="st5" d="M77.3,146.9l0-0.2l-0.1-0.2l-0.1-0.1l-0.1-0.1l-0.2-0.1l-0.2-0.1l-0.3,0l-0.1,0l-1.1,0l0,2.8l0.8,0l0-0.9
				l0.3,0l0.1,0l0.3,0l0.2-0.1l0.2-0.1l0.1-0.1l0.1-0.1l0.1-0.2l0-0.2l0-0.1L77.3,146.9z M76.5,147.1L76.5,147.1L76.5,147.1l0,0.1
				l0,0l0,0l-0.1,0l-0.1,0l-0.1,0l-0.1,0l-0.2,0l0-0.6l0.2,0l0.1,0l0.1,0l0.1,0l0.1,0l0,0l0,0l0,0.1L76.5,147.1L76.5,147.1
				L76.5,147.1z"/>
			<g id="LWPOLYLINE_61_">
				<polygon class="st5" points="84.2,148.8 84.1,148.8 84,148.9 83.9,148.9 83.8,148.9 83.7,148.9 83.6,149 83.5,149 83.4,149 
					83.1,148.9 82.9,148.9 82.6,148.7 82.4,148.6 82.2,148.4 82.1,148.1 82,147.8 82,147.5 82,147.1 82.1,146.8 82.2,146.6 
					82.4,146.4 82.6,146.2 82.9,146.1 83.1,146 83.4,146 83.5,146 83.6,146 83.7,146 83.8,146 83.9,146.1 84,146.1 84.1,146.2 
					84.2,146.2 84.2,147 84.1,147 84.1,146.9 84,146.9 83.9,146.8 83.8,146.8 83.7,146.7 83.6,146.7 83.5,146.7 83.3,146.7 
					83.2,146.8 83.1,146.8 83,146.9 82.9,147.1 82.8,147.2 82.8,147.3 82.8,147.5 82.8,147.7 82.8,147.8 82.9,148 83,148.1 
					83.1,148.2 83.2,148.2 83.4,148.3 83.5,148.3 83.6,148.3 83.7,148.2 83.8,148.2 83.9,148.2 84,148.1 84,148.1 84.1,148 
					84.2,148 				"/>
			</g>
			<path class="st5" d="M86.7,147.7l-0.1-0.2l-0.1-0.2l-0.1-0.2l-0.2-0.1l-0.2-0.1l-0.2-0.1l-0.3,0l-0.3,0l-0.2,0.1l-0.2,0.1
				l-0.2,0.1l-0.1,0.2l-0.1,0.2l-0.1,0.2l0,0.2l0,0.2l0.1,0.2l0.1,0.2l0.1,0.2l0.2,0.1l0.2,0.1l0.2,0.1l0.3,0l0.3,0l0.2-0.1l0.2-0.1
				l0.2-0.1l0.1-0.2l0.1-0.2l0.1-0.2l0-0.2L86.7,147.7z M86,148L86,148l0,0.2l0,0.1l-0.1,0.1l-0.1,0.1l-0.1,0.1l-0.1,0l-0.1,0
				l-0.1-0.1l-0.1-0.1l-0.1-0.1l0-0.1l0-0.1l0-0.1l0,0l0-0.1l0-0.1l0-0.1l0-0.1l0.1-0.1l0.1,0l0.1,0l0.1,0l0.1,0l0.1,0l0.1,0
				l0.1,0.1l0,0.1l0,0.1l0,0.1L86,148L86,148z"/>
			<path class="st5" d="M81.2,147.9l0.2-0.1l0.1-0.1l0.1-0.1l0.1-0.1l0.1-0.1l0-0.1l0-0.1l0-0.1l0-0.1l0-0.2l-0.1-0.2l-0.1-0.1
				l-0.1-0.1l-0.2-0.1l-0.2-0.1l-0.3,0l-0.1,0l-1.2,0l0,2.8l0.8,0l0-0.9h0l0.3,0.4l0.3,0.5l0.9,0L81.2,147.9z M81,147.1L81,147.1
				L81,147.1l0,0.1l0,0l0,0l-0.1,0l-0.1,0l-0.1,0l-0.1,0l-0.2,0l0-0.6l0.2,0l0.1,0l0.1,0l0.1,0l0.1,0l0,0l0,0l0,0.1L81,147.1
				L81,147.1L81,147.1z"/>
		</g>
		<g>
			<g id="LWPOLYLINE_60_">
				<polygon class="st4" points="77.5,148.8 77.5,146 79.2,146 79.2,146.6 78.3,146.6 78.3,147 79.1,147 79.1,147.6 78.3,147.7 
					78.3,148.1 79.2,148.1 79.2,148.8 				"/>
			</g>
			<path class="st4" d="M77.3,146.8l0-0.2l-0.1-0.2l-0.1-0.1l-0.1-0.1l-0.2-0.1l-0.2-0.1l-0.3,0l-0.1,0l-1.1,0l0,2.8l0.8,0l0-0.9
				l0.3,0l0.1,0l0.3,0l0.2-0.1l0.2-0.1l0.1-0.1l0.1-0.1l0.1-0.2l0-0.2l0-0.1L77.3,146.8z M76.5,146.9L76.5,146.9L76.5,146.9l0,0.1
				l0,0l0,0l-0.1,0l-0.1,0l-0.1,0l-0.1,0l-0.2,0l0-0.6l0.2,0l0.1,0l0.1,0l0.1,0l0.1,0l0,0l0,0l0,0.1L76.5,146.9L76.5,146.9
				L76.5,146.9z"/>
			<g id="LWPOLYLINE_59_">
				<polygon class="st4" points="84.1,148.6 84,148.7 84,148.7 83.9,148.8 83.8,148.8 83.7,148.8 83.6,148.8 83.5,148.8 83.4,148.8 
					83.1,148.8 82.8,148.7 82.6,148.6 82.4,148.4 82.2,148.2 82.1,148 82,147.7 82,147.4 82,147 82.1,146.7 82.2,146.4 82.4,146.2 
					82.6,146.1 82.8,146 83.1,145.9 83.4,145.9 83.5,145.9 83.6,145.9 83.7,145.9 83.8,145.9 83.9,145.9 83.9,146 84,146 
					84.1,146.1 84.1,146.9 84.1,146.8 84,146.8 84,146.7 83.9,146.7 83.8,146.6 83.7,146.6 83.6,146.6 83.5,146.6 83.3,146.6 
					83.2,146.6 83.1,146.7 83,146.8 82.9,146.9 82.8,147.1 82.8,147.2 82.8,147.4 82.8,147.5 82.8,147.7 82.9,147.8 83,147.9 
					83.1,148 83.2,148.1 83.3,148.1 83.5,148.1 83.6,148.1 83.7,148.1 83.8,148.1 83.9,148 83.9,148 84,147.9 84.1,147.9 
					84.1,147.8 				"/>
			</g>
			<path class="st4" d="M86.7,147.6l-0.1-0.2l-0.1-0.2l-0.1-0.2l-0.2-0.1l-0.2-0.1l-0.2-0.1l-0.3,0l-0.3,0l-0.2,0.1l-0.2,0.1
				l-0.2,0.1l-0.1,0.2l-0.1,0.2l-0.1,0.2l0,0.2l0,0.2l0.1,0.2l0.1,0.2l0.1,0.2l0.2,0.1l0.2,0.1l0.2,0.1l0.3,0l0.3,0l0.2-0.1l0.2-0.1
				l0.2-0.1l0.1-0.2l0.1-0.2l0.1-0.2l0-0.2L86.7,147.6z M86,147.8L86,147.8l0,0.2l0,0.1l-0.1,0.1l-0.1,0.1l-0.1,0.1l-0.1,0l-0.1,0
				l-0.1-0.1l-0.1-0.1l-0.1-0.1l0-0.1l0-0.1l0-0.1l0,0l0-0.1l0-0.1l0-0.1l0-0.1l0.1-0.1l0.1,0l0.1,0l0.1,0l0.1,0l0.1,0l0.1,0
				l0.1,0.1l0,0.1l0,0.1l0,0.1L86,147.8L86,147.8z"/>
			<path class="st4" d="M81.2,147.8l0.2-0.1l0.1-0.1l0.1-0.1l0.1-0.1l0.1-0.1l0-0.1l0-0.1l0-0.1l0-0.1l0-0.2l-0.1-0.2l-0.1-0.1
				l-0.1-0.1l-0.2-0.1l-0.2-0.1l-0.3,0l-0.1,0l-1.2,0l0,2.8l0.8,0l0-0.9h0l0.3,0.4l0.3,0.5l0.9,0L81.2,147.8z M81,146.9L81,146.9
				L81,146.9l0,0.1l0,0l0,0l-0.1,0l-0.1,0l-0.1,0l-0.1,0l-0.2,0l0-0.6l0.2,0l0.1,0l0.1,0l0.1,0l0.1,0l0,0l0,0l0,0.1L81,146.9
				L81,146.9L81,146.9z"/>
		</g>
	</g>
	<path class="st2" d="M229,151l-1.7,0l0-7.6l1.7,0c0,0,0.7,0.6,0.7,3.7C229.8,150.2,229,151,229,151z"/>
	<g id="LWPOLYLINE_57_">
		<g>
			<polygon class="st3" points="185,148.2 170.2,148.3 168.4,145.1 186.7,145.1 			"/>
		</g>
	</g>
	<g>
		<g>
			<g id="LWPOLYLINE_12_">
				<polygon class="st3" points="218,145 203.2,145 201.4,148.2 219.8,148.1 				"/>
			</g>
		</g>
	</g>
</g>
<g>
	<path class="st6" d="M111.6,95.7h5.1c2.5,0,4.5,2,4.5,4.5v3.5c0,2.5-2,4.5-4.5,4.5h-5.1c-2.5,0-4.5-2-4.5-4.5v-3.5
		C107.1,97.8,109.1,95.7,111.6,95.7z"/>
	<path class="st6" d="M206.4,95.7h5.1c2.5,0,4.5,2,4.5,4.5v3.5c0,2.5-2,4.5-4.5,4.5h-5.1c-2.5,0-4.5-2-4.5-4.5v-3.5
		C201.8,97.8,203.9,95.7,206.4,95.7z"/>
	<path class="st7" d="M133.5,153.9h-11.1c-2.5,0-4.6-2.1-4.6-4.6v-7.9c0-2.5,2.1-4.6,4.6-4.6h11.1c2.5,0,4.6,2.1,4.6,4.6v7.9
		C138.1,151.8,136,153.9,133.5,153.9z"/>
	<path class="st8" d="M133.5,153.9h-2.1l-3.5-2l-3.5,2h-2.1c-0.2,0-0.5,0-0.7-0.1l6.2-3.6l0,0l0,0l6.2,3.6
		C134,153.9,133.7,153.9,133.5,153.9z"/>
	<path class="st8" d="M119.9,153.2c-0.4-0.3-0.8-0.6-1.1-1l9.1-5.3l0,0l0,0l9.2,5.3c-0.3,0.4-0.7,0.7-1.1,1l-8-4.6L119.9,153.2z"/>
	<path class="st8" d="M118.1,150.8c-0.2-0.5-0.3-1-0.3-1.5v0l10.1-5.8l0,0l0,0l10.1,5.8v0c0,0.5-0.1,1-0.2,1.5l-9.9-5.7L118.1,150.8
		z"/>
	<polygon class="st8" points="117.8,147.6 117.8,145.9 127.9,140.1 127.9,140.1 128,140 138.1,145.9 138.1,147.5 128,141.7 	"/>
	<polygon class="st8" points="117.8,144.1 117.8,142.5 127.6,136.9 128.4,136.9 138.1,142.5 138.1,144.1 128,138.3 	"/>
	<path class="st8" d="M117.9,140.7c0.1-0.9,0.5-1.7,1.1-2.3l2.5-1.5c0.3-0.1,0.6-0.1,0.9-0.1h2.1L117.9,140.7L117.9,140.7z
		 M131.4,136.9h2.1c0.3,0,0.6,0,0.9,0.1l2.5,1.4c0.6,0.6,1,1.4,1.1,2.3L131.4,136.9z"/>
	<path class="st7" d="M201,153.9h-11.1c-2.5,0-4.6-2.1-4.6-4.6v-7.9c0-2.5,2.1-4.6,4.6-4.6H201c2.5,0,4.6,2.1,4.6,4.6v7.9
		C205.6,151.8,203.5,153.9,201,153.9z"/>
	<path class="st8" d="M201,153.9h-2.1l-3.5-2l-3.5,2h-2.1c-0.2,0-0.5,0-0.7-0.1l6.2-3.6l0,0l0,0l6.2,3.6
		C201.5,153.9,201.2,153.9,201,153.9z"/>
	<path class="st8" d="M187.4,153.2c-0.4-0.3-0.8-0.6-1.1-1l9.1-5.3l0,0l0,0l9.2,5.3c-0.3,0.4-0.7,0.7-1.1,1l-8-4.6L187.4,153.2z"/>
	<path class="st8" d="M185.6,150.8c-0.2-0.5-0.3-1-0.3-1.5v0l10.1-5.8l0,0l0,0l10.1,5.8v0c0,0.5-0.1,1-0.2,1.5l-9.9-5.7L185.6,150.8
		z"/>
	<polygon class="st8" points="185.3,147.6 185.3,145.9 195.4,140.1 195.4,140.1 195.4,140 205.6,145.9 205.6,147.5 195.5,141.7 	"/>
	<polygon class="st8" points="185.3,144.1 185.3,142.5 195.1,136.9 195.9,136.9 205.6,142.5 205.6,144.1 195.5,138.3 	"/>
	<path class="st8" d="M185.4,140.7c0.1-0.9,0.5-1.7,1.1-2.3l2.5-1.5c0.3-0.1,0.6-0.1,0.9-0.1h2.1L185.4,140.7L185.4,140.7z
		 M198.9,136.9h2.1c0.3,0,0.6,0,0.9,0.1l2.5,1.4c0.6,0.6,1,1.4,1.1,2.3L198.9,136.9z"/>
	<path class="st9" d="M161.7,75.2h27.1c6.2,1.6,16.5,22.7,22.6,29.5c0,0,1.7,2.6,3.3,9.1L216,137c0,0-1.7,7.5-9.1,6.2h-45.2h-45.2
		c-7.4,1.3-9.1-6.2-9.1-6.2l1.2-23.2c1.7-6.5,3.3-9.1,3.3-9.1c6.1-6.8,18.1-27.9,24.3-29.5H161.7z"/>
	<path class="st10" d="M214.8,114.8L216,137c0,0-1.2,5.2-5.8,6.2h-96.9c-4.7-1-5.8-6.2-5.8-6.2l1.2-22.2H214.8z"/>
	<path class="st6" d="M215.6,130.6l0.3,6.4c0,0-1.2,5.2-5.8,6.2h-96.9c-4.7-1-5.8-6.2-5.8-6.2l0.3-6.4H215.6z"/>
	<path class="st11" d="M148.9,121.3h25.4c0.5,0,1,0.4,1,1l0,0c0,0.5-0.4,1-1,1h-25.4c-0.5,0-1-0.4-1-1l0,0
		C147.9,121.7,148.3,121.3,148.9,121.3z"/>
	<path class="st11" d="M153.5,126.9h16.2c0.5,0,1,0.4,1,1l0,0c0,0.5-0.4,1-1,1h-16.2c-0.5,0-1-0.4-1-1l0,0
		C152.5,127.4,152.9,126.9,153.5,126.9z"/>
	<path class="st12" d="M120.9,118.3h10c2.4,0,4.4,2,4.4,4.4l0,0c0,2.4-2,4.4-4.4,4.4h-10c-2.4,0-4.4-2-4.4-4.4l0,0
		C116.5,120.3,118.5,118.3,120.9,118.3z"/>
	<path class="st12" d="M192.3,118.3h10c2.4,0,4.4,2,4.4,4.4l0,0c0,2.4-2,4.4-4.4,4.4h-10c-2.4,0-4.4-2-4.4-4.4l0,0
		C187.9,120.3,189.9,118.3,192.3,118.3z"/>
	<path class="st13" d="M122.6,139.7c2,0,3.7-1.7,3.7-3.7c0-2-1.7-3.7-3.7-3.7c-2,0-3.7,1.7-3.7,3.7
		C118.9,138,120.6,139.7,122.6,139.7z"/>
	<path class="st13" d="M198.7,139.7c2,0,3.7-1.7,3.7-3.7c0-2-1.7-3.7-3.7-3.7c-2,0-3.7,1.7-3.7,3.7C195,138,196.7,139.7,198.7,139.7
		z"/>
	<path class="st13" d="M161.7,79.1h19.5c4.1,1.1,10.9,14.3,15.3,20l0.1,0.1h-69.5l0.3-0.7c4.6-6,12-18.4,16-19.4H161.7z"/>
	<polygon class="st14" points="166.7,99.3 164.7,99.3 169,79.1 171,79.1 	"/>
	<polygon class="st14" points="174,99.3 172,99.3 176.3,79.1 178.4,79.1 	"/>
</g>
<polygon class="st15" points="63.8,68.3 87.2,68.3 87.2,62.5 63.8,64.6 "/>
<rect x="63.7" y="70" transform="matrix(-1 -4.398805e-11 4.398805e-11 -1 150.899 205.9502)" class="st15" width="23.4" height="66"/>
<rect x="66.5" y="70" transform="matrix(-1 -4.648649e-11 4.648649e-11 -1 147.3135 205.9502)" class="st16" width="14.3" height="66"/>
<rect x="63.7" y="68.3" transform="matrix(-1 -4.513468e-11 4.513468e-11 -1 150.909 138.2739)" class="st1" width="23.4" height="1.6"/>
<path class="st17" d="M84.9,102.2L84.9,102.2c0.4,0,0.7-0.3,0.7-0.7v-1.7c0-0.4-0.3-0.7-0.7-0.7l0,0c-0.4,0-0.7,0.3-0.7,0.7v1.7
	C84.2,101.9,84.5,102.2,84.9,102.2z"/>
</svg>
