<?xml version="1.0" encoding="utf-8"?>
<!-- Generator: Adobe Illustrator 24.2.0, SVG Export Plug-In . SVG Version: 6.00 Build 0)  -->
<svg version="1.1" id="Слой_1" xmlns="http://www.w3.org/2000/svg" xmlns:xlink="http://www.w3.org/1999/xlink" x="0px" y="0px"
	 viewBox="0 0 285 185" style="enable-background:new 0 0 285 185;" xml:space="preserve">
<style type="text/css">
	.st0{fill:#C6C6C6;stroke:#E6E6ED;stroke-width:1.9844;stroke-miterlimit:10;}
	.st1{fill:#6A6B6B;}
</style>
<circle class="st0" cx="140.6" cy="104.1" r="45"/>
<g>
	<path class="st1" d="M158.3,85.6l0.1-7.1l-5.3-0.6c-0.2-0.3-0.3-0.6-0.4-0.9l3.3-4.2l-5-5l-4.1,3.3c-0.4-0.1-0.7-0.3-1-0.4
		l-0.6-5.2h-7.1l-0.6,5.1c-0.4,0.1-0.7,0.3-1.2,0.4l-4-3.1l-5,5l3.1,3.9c-0.2,0.4-0.4,0.8-0.5,1.2l-5,0.6v6.9l5,0.6
		c0.1,0.4,0.3,0.8,0.5,1.2l-3.1,4l5,5l4-3.2c0.4,0.2,0.7,0.3,1.1,0.4l0.5,5.2h6.9l0.6-5.2c0.3-0.1,0.7-0.3,1-0.4l4.2,3.3l5-5
		l-3.3-4.2c0.2-0.3,0.3-0.6,0.4-0.9L158.3,85.6z M141.8,90.5c-4.7,0-8.5-3.8-8.5-8.5s3.8-8.5,8.5-8.5c4.7,0,8.5,3.8,8.5,8.5
		S146.5,90.5,141.8,90.5z"/>
	<path class="st1" d="M177.5,118.9l0.1-7.1l-5.3-0.6c-0.2-0.3-0.3-0.6-0.4-0.9l3.3-4.2l-5-5l-4.1,3.3c-0.4-0.1-0.7-0.3-1-0.4
		l-0.6-5.2h-7.1l-0.6,5.1c-0.4,0.1-0.7,0.3-1.2,0.4l-4-3.1l-5,5l3.1,3.9c-0.2,0.4-0.4,0.8-0.5,1.2l-5,0.6v6.9l5,0.6
		c0.1,0.4,0.3,0.8,0.5,1.2l-3.1,4l5,5l4-3.2c0.4,0.2,0.7,0.3,1.1,0.4l0.5,5.2h6.9l0.6-5.2c0.3-0.1,0.7-0.3,1-0.4l4.2,3.3l5-5
		l-3.3-4.2c0.2-0.3,0.3-0.6,0.4-0.9L177.5,118.9z M161,123.9c-4.7,0-8.5-3.8-8.5-8.5s3.8-8.5,8.5-8.5c4.7,0,8.5,3.8,8.5,8.5
		S165.7,123.9,161,123.9z"/>
	<path class="st1" d="M137.4,118.9l0.1-7.1l-5.3-0.6c-0.2-0.3-0.3-0.6-0.4-0.9l3.3-4.2l-5-5l-4.1,3.3c-0.4-0.1-0.7-0.3-1-0.4
		l-0.6-5.2h-7.1l-0.6,5.1c-0.4,0.1-0.7,0.3-1.2,0.4l-4-3.1l-5,5l3.1,3.9c-0.2,0.4-0.4,0.8-0.5,1.2l-5,0.6v6.9l5,0.6
		c0.1,0.4,0.3,0.8,0.5,1.2l-3.1,4l5,5l4-3.2c0.4,0.2,0.7,0.3,1.1,0.4l0.5,5.2h6.9l0.6-5.2c0.3-0.1,0.7-0.3,1-0.4l4.2,3.3l5-5
		l-3.3-4.2c0.2-0.3,0.3-0.6,0.4-0.9L137.4,118.9z M120.9,123.9c-4.7,0-8.5-3.8-8.5-8.5s3.8-8.5,8.5-8.5c4.7,0,8.5,3.8,8.5,8.5
		S125.6,123.9,120.9,123.9z"/>
</g>
</svg>
